<?xml version="1.0" encoding="UTF-8" standalone="no"?>
<!-- Created with Inkscape (http://www.inkscape.org/) -->

<svg
   version="1.1"
   id="svg1"
   width="261.10666"
   height="117.77333"
   viewBox="0 0 261.10666 117.77333"
   xmlns="http://www.w3.org/2000/svg"
   xmlns:svg="http://www.w3.org/2000/svg">
  <defs
     id="defs1" />
  <g
     id="g1">
    <path
       id="path1"
       d="m 837.57,484.996 c -2.109,0 -5.812,0 -9.511,0.262 v -59.199 h -41.243 v 178.418 c 15.332,0.793 32.25,1.32 50.754,1.32 45.469,0 70.317,-20.606 70.317,-57.363 0,-34.621 -24.848,-63.438 -70.317,-63.438 m -0.793,87.246 c -2.91,0 -5.808,0 -8.718,-0.285 v -52.332 c 2.64,-0.254 5.019,-0.527 7.129,-0.527 17.191,0.273 30.14,10.039 30.14,27.488 0,15.07 -8.199,25.656 -28.551,25.656"
       style="fill:#231f20;fill-opacity:1;fill-rule:nonzero;stroke:none"
       transform="matrix(0.13333333,0,0,-0.13333333,0,117.77333)" />
    <path
       id="path2"
       d="m 1048.25,426.059 v 74.269 h -65.301 v -74.269 h -41.23 v 178.418 h 41.23 V 536.02 h 65.301 v 68.457 h 41.23 V 426.059 h -41.23"
       style="fill:#231f20;fill-opacity:1;fill-rule:nonzero;stroke:none"
       transform="matrix(0.13333333,0,0,-0.13333333,0,117.77333)" />
    <path
       id="path3"
       d="m 1190.98,425.258 c -10.83,0 -27.75,0.527 -43.09,0.801 v 178.418 c 12.16,0.273 28.29,0.793 49.7,0.793 38.86,0 57.1,-16.379 57.1,-42.297 0,-19.559 -13.48,-36.465 -33.57,-42.293 v -0.52 c 26.43,-3.972 37.8,-22.469 37.8,-41.504 0,-19.285 -11.63,-53.398 -67.94,-53.398 m 2.91,163.633 c -8.72,0 -17.98,-0.274 -25.64,-0.536 v -62.121 c 5.55,-0.254 10.05,-0.254 16.92,-0.254 31.72,0 48.37,12.415 48.37,33.555 0,16.934 -8.19,29.356 -39.65,29.356 m -8.46,-78.243 c -3.17,0 -12.95,0 -17.18,-0.273 v -67.148 c 4.76,-0.789 12.69,-1.582 24.32,-1.582 31.45,0 45.2,15.605 45.2,36.484 0,25.109 -23,32.519 -52.34,32.519"
       style="fill:#231f20;fill-opacity:1;fill-rule:nonzero;stroke:none"
       transform="matrix(0.13333333,0,0,-0.13333333,0,117.77333)" />
    <path
       id="path4"
       d="m 1390.81,495.836 h -87.75 c -1.32,-39.375 14.27,-55.773 43.62,-55.773 13.74,0 28.28,3.437 38.06,8.468 l 1.85,-16.933 c -12.16,-5.02 -26.97,-7.93 -43.35,-7.93 -39.65,0 -60.8,21.414 -60.8,67.422 0,39.375 21.15,68.719 57.62,68.719 36.22,0 51.29,-25.106 51.29,-54.188 0,-2.383 0,-5.812 -0.54,-9.785 m -51.8,48.906 c -18.51,0 -31.72,-13.488 -34.89,-34.094 h 66.61 c 0.53,20.352 -11.63,34.094 -31.72,34.094"
       style="fill:#231f20;fill-opacity:1;fill-rule:nonzero;stroke:none"
       transform="matrix(0.13333333,0,0,-0.13333333,0,117.77333)" />
    <path
       id="path5"
       d="m 1488.35,540.25 c -29.07,4.754 -42.82,-17.453 -42.82,-61.594 v -52.597 h -19.82 v 131.367 h 19.56 c 0,-8.719 -1.06,-21.68 -2.91,-33.035 l 0.26,-0.274 c 5.3,19.297 19.03,38.856 46.52,35.692 l -0.79,-19.559"
       style="fill:#231f20;fill-opacity:1;fill-rule:nonzero;stroke:none"
       transform="matrix(0.13333333,0,0,-0.13333333,0,117.77333)" />
    <path
       id="path6"
       d="m 1611.79,426.059 v 85.109 c 0,20.613 -5.55,32.508 -24.58,32.508 -23.52,0 -40.18,-23.262 -40.18,-54.453 v -63.164 h -19.82 v 131.367 h 19.56 c 0,-8.446 -0.8,-21.153 -2.12,-29.082 l 0.53,-0.254 c 7.4,19.023 24.05,31.973 47.05,31.973 30.14,0 39.39,-19.012 39.39,-42.286 v -91.718 h -19.83"
       style="fill:#231f20;fill-opacity:1;fill-rule:nonzero;stroke:none"
       transform="matrix(0.13333333,0,0,-0.13333333,0,117.77333)" />
    <path
       id="path7"
       d="m 106.898,337.23 c -1.273,0 -2.8,0 -4.246,0.172 v -21.168 h -9.2692 v 57.379 c 4.4219,0.164 9.3512,0.336 14.7072,0.336 13.601,0 21.082,-6.629 21.082,-17.254 0,-11.132 -8.926,-19.465 -22.274,-19.465 m 0.516,29.157 c -1.789,0 -3.234,0 -4.762,-0.172 v -20.996 c 1.274,-0.172 2.719,-0.336 4.078,-0.336 7.735,0.082 12.836,4.332 12.836,11.051 0,6.543 -3.824,10.453 -12.152,10.453"
       style="fill:#231f20;fill-opacity:1;fill-rule:nonzero;stroke:none"
       transform="matrix(0.13333333,0,0,-0.13333333,0,117.77333)" />
    <path
       id="path8"
       d="m 163.254,316.234 c 0,2.719 0.086,5.528 0.422,7.825 l -0.082,0.082 c -2.039,-5.016 -7.309,-8.754 -14.024,-8.754 -7.226,0 -11.816,4.082 -11.816,10.793 0,9.687 9.687,15.3 24.906,15.3 v 2.719 c 0,5.274 -2.211,7.992 -8.84,7.992 -3.914,0 -9.011,-1.191 -12.578,-3.402 l -0.851,7.734 c 4.164,1.618 9.433,2.809 14.875,2.809 12.918,0 16.488,-5.613 16.488,-14.285 v -17.25 c 0,-3.656 0.086,-7.992 0.254,-11.563 h -8.754 m -15.641,50.235 c -2.89,0 -5.097,2.297 -5.097,5.187 0,2.805 2.207,5.102 5.097,5.102 2.891,0 5.184,-2.297 5.184,-5.102 0,-2.89 -2.293,-5.187 -5.184,-5.187 m 15.047,-31.11 c -13.262,0 -16.152,-3.992 -16.152,-7.648 0,-3.145 2.215,-5.188 5.781,-5.188 6.207,0 10.371,5.954 10.371,11.989 v 0.847 m 1.699,31.11 c -2.89,0 -5.183,2.297 -5.183,5.187 0,2.805 2.293,5.102 5.183,5.102 2.805,0 5.098,-2.297 5.098,-5.102 0,-2.89 -2.293,-5.187 -5.098,-5.187"
       style="fill:#231f20;fill-opacity:1;fill-rule:nonzero;stroke:none"
       transform="matrix(0.13333333,0,0,-0.13333333,0,117.77333)" />
    <path
       id="path9"
       d="m 211.535,316.234 c 0,2.211 0.168,5.528 0.594,7.907 h -0.172 c -2.293,-5.188 -7.227,-8.754 -13.769,-8.754 -10.372,0 -15.555,7.648 -15.555,19.886 0,14.536 8.418,23.887 22.097,23.887 2.043,0 4.083,-0.172 6.379,-0.336 v 19.461 h 9.008 v -62.051 h -8.582 m -0.426,34.938 c -2.296,0.508 -4.507,0.762 -6.714,0.762 -7.227,0 -12.157,-4.418 -12.157,-15.805 0,-8.5 2.637,-13.262 8.418,-13.262 6.711,0 10.453,7.988 10.453,15.215 v 13.09"
       style="fill:#231f20;fill-opacity:1;fill-rule:nonzero;stroke:none"
       transform="matrix(0.13333333,0,0,-0.13333333,0,117.77333)" />
    <path
       id="path10"
       d="m 256.754,316.234 c 0,2.719 0.082,5.528 0.426,7.825 l -0.086,0.082 c -2.039,-5.016 -7.309,-8.754 -14.028,-8.754 -7.222,0 -11.812,4.082 -11.812,10.793 0,9.687 9.687,15.3 24.902,15.3 v 2.719 c 0,5.274 -2.207,7.992 -8.836,7.992 -3.91,0 -9.015,-1.191 -12.582,-3.402 l -0.851,7.734 c 4.164,1.618 9.433,2.809 14.879,2.809 12.918,0 16.488,-5.613 16.488,-14.285 v -17.25 c 0,-3.656 0.082,-7.992 0.254,-11.563 h -8.754 m -0.598,19.125 c -13.261,0 -16.144,-3.992 -16.144,-7.648 0,-3.145 2.207,-5.188 5.773,-5.188 6.207,0 10.371,5.954 10.371,11.989 v 0.847"
       style="fill:#231f20;fill-opacity:1;fill-rule:nonzero;stroke:none"
       transform="matrix(0.13333333,0,0,-0.13333333,0,117.77333)" />
    <path
       id="path11"
       d="m 295.766,294.473 c -11.047,0 -17.934,4.254 -17.934,12.41 0,4.762 3.145,8.758 6.801,10.625 -2.551,1.277 -4.164,3.488 -4.164,6.289 0,3.062 1.871,5.953 4.844,7.226 -4.165,2.297 -6.29,6.633 -6.29,11.903 0,8.926 6.797,16.406 18.868,16.406 2.554,0 4.679,-0.344 6.972,-0.852 h 14.278 v -7.136 h -6.461 c 1.789,-1.446 2.89,-4 2.89,-7.059 0,-9.18 -6.371,-15.637 -18.273,-15.637 -1.613,0 -3.57,0.165 -4.844,0.422 -1.699,-0.683 -2.469,-1.957 -2.469,-3.144 0,-2.129 1.871,-2.977 6.973,-2.977 h 7.227 c 9.179,0 14.367,-4.336 14.367,-12.242 0,-9.008 -9.184,-16.234 -22.785,-16.234 m 5.953,21.082 h -7.906 c -0.766,0 -1.614,0 -2.293,0.086 -2.891,-1.618 -4.68,-4.168 -4.68,-7.059 0,-4.5 4.254,-7.055 10.371,-7.055 7.906,0 12.324,3.403 12.324,7.993 0,3.652 -2.465,6.035 -7.816,6.035 m -4.254,37.062 c -6.035,0 -9.602,-3.656 -9.602,-8.844 0,-5.523 3.403,-8.753 9.52,-8.753 5.695,0 9.433,3.144 9.433,8.671 0,5.61 -3.484,8.926 -9.351,8.926"
       style="fill:#231f20;fill-opacity:1;fill-rule:nonzero;stroke:none"
       transform="matrix(0.13333333,0,0,-0.13333333,0,117.77333)" />
    <path
       id="path12"
       d="m 346.852,315.387 c -11.731,0 -19.379,6.543 -19.379,21.418 0,12.75 8.246,22.527 21.082,22.527 11.304,0 19.293,-6.289 19.293,-21.168 0,-13.004 -8.5,-22.777 -20.996,-22.777 m 0.937,36.293 c -5.527,0 -10.879,-4.25 -10.879,-13.942 0,-9.515 3.738,-14.535 10.789,-14.535 5.871,0 10.797,4.594 10.797,14.363 0,9.016 -3.48,14.114 -10.707,14.114"
       style="fill:#231f20;fill-opacity:1;fill-rule:nonzero;stroke:none"
       transform="matrix(0.13333333,0,0,-0.13333333,0,117.77333)" />
    <path
       id="path13"
       d="m 394.789,294.473 c -11.047,0 -17.934,4.254 -17.934,12.41 0,4.762 3.145,8.758 6.801,10.625 -2.547,1.277 -4.164,3.488 -4.164,6.289 0,3.062 1.871,5.953 4.844,7.226 -4.164,2.297 -6.289,6.633 -6.289,11.903 0,8.926 6.801,16.406 18.871,16.406 2.551,0 4.676,-0.344 6.969,-0.852 h 14.281 v -7.136 h -6.457 c 1.781,-1.446 2.891,-4 2.891,-7.059 0,-9.18 -6.379,-15.637 -18.278,-15.637 -1.617,0 -3.57,0.165 -4.847,0.422 -1.7,-0.683 -2.461,-1.957 -2.461,-3.144 0,-2.129 1.867,-2.977 6.964,-2.977 h 7.227 c 9.18,0 14.367,-4.336 14.367,-12.242 0,-9.008 -9.179,-16.234 -22.785,-16.234 m 5.953,21.082 h -7.906 c -0.766,0 -1.613,0 -2.293,0.086 -2.891,-1.618 -4.672,-4.168 -4.672,-7.059 0,-4.5 4.246,-7.055 10.363,-7.055 7.907,0 12.332,3.403 12.332,7.993 0,3.652 -2.468,6.035 -7.824,6.035 m -4.246,37.062 c -6.035,0 -9.609,-3.656 -9.609,-8.844 0,-5.523 3.402,-8.753 9.519,-8.753 5.696,0 9.434,3.144 9.434,8.671 0,5.61 -3.481,8.926 -9.344,8.926"
       style="fill:#231f20;fill-opacity:1;fill-rule:nonzero;stroke:none"
       transform="matrix(0.13333333,0,0,-0.13333333,0,117.77333)" />
    <path
       id="path14"
       d="m 440.434,370.465 c 0,3.23 -2.629,5.695 -5.774,5.695 -3.234,0 -5.867,-2.547 -5.867,-5.695 0,-3.145 2.633,-5.695 5.867,-5.695 3.145,0 5.774,2.55 5.774,5.695 m -1.274,-54.231 v 42.246 h -9.09 v -42.246 h 9.09"
       style="fill:#231f20;fill-opacity:1;fill-rule:nonzero;stroke:none"
       transform="matrix(0.13333333,0,0,-0.13333333,0,117.77333)" />
    <path
       id="path15"
       d="m 461.938,315.387 c -3.145,0 -6.29,0.34 -8.918,0.847 l 0.253,7.735 c 2.629,-0.766 5.946,-1.356 9.18,-1.356 4.93,0 8.328,2.121 8.328,5.61 0,8.496 -18.531,3.398 -18.531,18.015 0,7.313 5.953,13.094 17.43,13.094 2.461,0 5.351,-0.344 7.906,-0.769 l -0.262,-7.391 c -2.547,0.762 -5.523,1.191 -8.242,1.191 -5.016,0 -7.48,-2.043 -7.48,-5.273 0,-8.16 18.703,-3.996 18.703,-18.02 0,-7.902 -7.059,-13.683 -18.367,-13.683"
       style="fill:#231f20;fill-opacity:1;fill-rule:nonzero;stroke:none"
       transform="matrix(0.13333333,0,0,-0.13333333,0,117.77333)" />
    <path
       id="path16"
       d="m 508.691,315.555 c -10.882,0 -18.789,5.351 -18.789,20.402 0,13.426 6.891,23.203 21.422,23.203 3.145,0 6.375,-0.426 9.18,-1.273 l -0.934,-7.907 c -2.547,0.938 -5.437,1.618 -8.5,1.618 -7.734,0 -11.644,-5.7 -11.644,-14.621 0,-7.739 2.804,-13.602 11.219,-13.602 3.234,0 6.714,0.766 9.179,2.039 l 0.766,-7.734 c -2.805,-1.102 -7.227,-2.125 -11.899,-2.125"
       style="fill:#231f20;fill-opacity:1;fill-rule:nonzero;stroke:none"
       transform="matrix(0.13333333,0,0,-0.13333333,0,117.77333)" />
    <path
       id="path17"
       d="m 558.926,316.234 v 27.204 c 0,5.269 -1.446,8.328 -6.289,8.328 -6.375,0 -11.051,-6.719 -11.051,-15.215 v -20.317 h -9.094 v 62.051 h 9.094 V 359.16 c 0,-2.637 -0.168,-6.207 -0.766,-8.5 l 0.172,-0.086 c 2.465,5.27 7.481,8.758 14.363,8.758 9.606,0 12.579,-6.035 12.579,-13.516 v -29.582 h -9.008"
       style="fill:#231f20;fill-opacity:1;fill-rule:nonzero;stroke:none"
       transform="matrix(0.13333333,0,0,-0.13333333,0,117.77333)" />
    <path
       id="path18"
       d="m 616.641,336.805 h -26.95 c -0.253,-9.774 4.082,-14.192 12.497,-14.192 4.335,0 8.843,1.02 12.328,2.719 l 0.851,-7.227 c -4.254,-1.789 -9.437,-2.718 -14.621,-2.718 -13.176,0 -20.398,6.801 -20.398,21.672 0,12.75 6.968,22.273 19.293,22.273 12.07,0 17.254,-8.25 17.254,-18.277 0,-1.192 -0.082,-2.633 -0.254,-4.25 m -17.34,15.812 c -5.102,0 -8.672,-3.738 -9.438,-9.437 h 17.934 c 0.172,5.781 -3.145,9.437 -8.496,9.437"
       style="fill:#231f20;fill-opacity:1;fill-rule:nonzero;stroke:none"
       transform="matrix(0.13333333,0,0,-0.13333333,0,117.77333)" />
    <path
       id="path19"
       d="m 687.188,316.234 v 25.758 h -27.114 v -25.758 h -9.269 v 57.379 h 9.269 v -23.715 h 27.114 v 23.715 h 9.179 v -57.379 h -9.179"
       style="fill:#231f20;fill-opacity:1;fill-rule:nonzero;stroke:none"
       transform="matrix(0.13333333,0,0,-0.13333333,0,117.77333)" />
    <path
       id="path20"
       d="m 728.07,315.387 c -11.726,0 -19.379,6.543 -19.379,21.418 0,12.75 8.247,22.527 21.079,22.527 11.308,0 19.296,-6.289 19.296,-21.168 0,-13.004 -8.5,-22.777 -20.996,-22.777 m 0.938,36.293 c -5.528,0 -10.883,-4.25 -10.883,-13.942 0,-9.515 3.742,-14.535 10.797,-14.535 5.863,0 10.797,4.594 10.797,14.363 0,9.016 -3.489,14.114 -10.711,14.114"
       style="fill:#231f20;fill-opacity:1;fill-rule:nonzero;stroke:none"
       transform="matrix(0.13333333,0,0,-0.13333333,0,117.77333)" />
    <path
       id="path21"
       d="m 776.859,315.555 c -10.879,0 -18.781,5.351 -18.781,20.402 0,13.426 6.883,23.203 21.418,23.203 3.145,0 6.375,-0.426 9.18,-1.273 l -0.93,-7.907 c -2.555,0.938 -5.445,1.618 -8.504,1.618 -7.734,0 -11.644,-5.7 -11.644,-14.621 0,-7.739 2.804,-13.602 11.222,-13.602 3.227,0 6.711,0.766 9.18,2.039 l 0.762,-7.734 c -2.805,-1.102 -7.223,-2.125 -11.903,-2.125"
       style="fill:#231f20;fill-opacity:1;fill-rule:nonzero;stroke:none"
       transform="matrix(0.13333333,0,0,-0.13333333,0,117.77333)" />
    <path
       id="path22"
       d="m 827.094,316.234 v 27.204 c 0,5.269 -1.446,8.328 -6.289,8.328 -6.371,0 -11.047,-6.719 -11.047,-15.215 v -20.317 h -9.098 v 62.051 h 9.098 V 359.16 c 0,-2.637 -0.172,-6.207 -0.77,-8.5 l 0.172,-0.086 c 2.465,5.27 7.481,8.758 14.367,8.758 9.602,0 12.582,-6.035 12.582,-13.516 v -29.582 h -9.015"
       style="fill:#231f20;fill-opacity:1;fill-rule:nonzero;stroke:none"
       transform="matrix(0.13333333,0,0,-0.13333333,0,117.77333)" />
    <path
       id="path23"
       d="m 858.887,315.387 c -3.145,0 -6.289,0.34 -8.926,0.847 l 0.254,7.735 c 2.637,-0.766 5.953,-1.356 9.18,-1.356 4.933,0 8.332,2.121 8.332,5.61 0,8.496 -18.532,3.398 -18.532,18.015 0,7.313 5.953,13.094 17.426,13.094 2.465,0 5.356,-0.344 7.906,-0.769 l -0.254,-7.391 c -2.55,0.762 -5.527,1.191 -8.246,1.191 -5.015,0 -7.48,-2.043 -7.48,-5.273 0,-8.16 18.699,-3.996 18.699,-18.02 0,-7.902 -7.055,-13.683 -18.359,-13.683"
       style="fill:#231f20;fill-opacity:1;fill-rule:nonzero;stroke:none"
       transform="matrix(0.13333333,0,0,-0.13333333,0,117.77333)" />
    <path
       id="path24"
       d="m 905.637,315.555 c -10.879,0 -18.785,5.351 -18.785,20.402 0,13.426 6.882,23.203 21.421,23.203 3.145,0 6.372,-0.426 9.18,-1.273 l -0.937,-7.907 c -2.551,0.938 -5.442,1.618 -8.496,1.618 -7.743,0 -11.649,-5.7 -11.649,-14.621 0,-7.739 2.805,-13.602 11.223,-13.602 3.226,0 6.715,0.766 9.179,2.039 l 0.762,-7.734 c -2.805,-1.102 -7.222,-2.125 -11.898,-2.125"
       style="fill:#231f20;fill-opacity:1;fill-rule:nonzero;stroke:none"
       transform="matrix(0.13333333,0,0,-0.13333333,0,117.77333)" />
    <path
       id="path25"
       d="m 955.871,316.234 v 27.204 c 0,5.269 -1.445,8.328 -6.289,8.328 -6.379,0 -11.051,-6.719 -11.051,-15.215 v -20.317 h -9.097 v 62.051 h 9.097 V 359.16 c 0,-2.637 -0.172,-6.207 -0.765,-8.5 l 0.168,-0.086 c 2.468,5.27 7.484,8.758 14.367,8.758 9.605,0 12.582,-6.035 12.582,-13.516 v -29.582 h -9.012"
       style="fill:#231f20;fill-opacity:1;fill-rule:nonzero;stroke:none"
       transform="matrix(0.13333333,0,0,-0.13333333,0,117.77333)" />
    <path
       id="path26"
       d="m 1007.47,316.234 c 0,2.211 0.17,5.864 0.6,8.246 l -0.09,0.086 c -2.46,-5.441 -7.56,-9.179 -14.707,-9.179 -9.605,0 -12.585,6.035 -12.585,13.515 v 29.578 h 9.015 v -27.203 c 0,-5.265 1.445,-8.328 6.289,-8.328 6.378,0 11.058,6.719 11.058,15.133 v 20.398 h 9.09 v -42.246 h -8.67"
       style="fill:#231f20;fill-opacity:1;fill-rule:nonzero;stroke:none"
       transform="matrix(0.13333333,0,0,-0.13333333,0,117.77333)" />
    <path
       id="path27"
       d="m 1031.95,316.234 h 9.0898 v 62.0508 h -9.0898 z"
       style="fill:#231f20;fill-opacity:1;fill-rule:nonzero;stroke:none"
       transform="matrix(0.13333333,0,0,-0.13333333,0,117.77333)" />
    <path
       id="path28"
       d="m 1089.75,336.805 h -26.95 c -0.25,-9.774 4.08,-14.192 12.5,-14.192 4.33,0 8.84,1.02 12.32,2.719 l 0.85,-7.227 c -4.25,-1.789 -9.43,-2.718 -14.62,-2.718 -13.17,0 -20.4,6.801 -20.4,21.672 0,12.75 6.97,22.273 19.3,22.273 12.07,0 17.25,-8.25 17.25,-18.277 0,-1.192 -0.08,-2.633 -0.25,-4.25 m -17.34,15.812 c -5.1,0 -8.67,-3.738 -9.44,-9.437 h 17.94 c 0.17,5.781 -3.15,9.437 -8.5,9.437"
       style="fill:#231f20;fill-opacity:1;fill-rule:nonzero;stroke:none"
       transform="matrix(0.13333333,0,0,-0.13333333,0,117.77333)" />
  </g>
</svg>
