<?xml version="1.0" encoding="utf-8"?>
<!-- Uploaded to: SVG Repo, www.svgrepo.com, Generator: SVG Repo Mixer Tools -->
<svg width="800px" height="800px" viewBox="-144.96 0 427.151 427.151" xmlns="http://www.w3.org/2000/svg"><defs><style>.a{fill:#ffffff;}.b{fill:#ffda71;}.c{fill:#211715;}.d{fill:none;}.e{fill:#85807f;}.f{fill:#7a7473;}.g{fill:#74c66d;}.h{fill:#febe69;}.i{fill:#f2635f;}.j{fill:#ad7b59;}.k{fill:#acdda7;}</style></defs><path class="a" d="M107.905,241.575c-.92,30.05-3.23,80.43-4.88,114.15a2.565,2.565,0,0,0-1.62-.84H71.325c-1.08,0-1.75,1.05-2,2.1h-1.44c-.25-1.05-.92-2.1-2-2.1H35.805a1.589,1.589,0,0,0-.71.18,3.494,3.494,0,0,0-.91.67c-1.65-33.73-3.96-84.11-4.88-114.16-.14-4.83-.13-9.13-.05-12.76,8.84.19,64.61.2,78.69.031C108.035,232.465,108.045,236.755,107.905,241.575Z"/><path class="b" d="M92.309,83.662c11.524-1.8,20.777-3.516,30.511-10.236,4.646-3.207,9.282-9.672,9.282-14.934a22.118,22.118,0,0,0-6.918-16.664,52.142,52.142,0,0,0-17.7-11.133l-.943-2.57a45.749,45.749,0,0,0-12.7-18.118C88.134,5.281,77.324,1.686,69.017,2.075,60.708,1.685,49.9,5.28,44.182,10.007a45.749,45.749,0,0,0-12.7,18.118l-.864,2.54A52.169,52.169,0,0,0,12.844,41.828a21.819,21.819,0,0,0-7.131,16.4c0,5.263,4.849,11.987,9.5,15.194,9.734,6.72,18.987,8.437,30.511,10.236"/><path class="c" d="M33.414,28.656a42.064,42.064,0,0,1,8.64-13.866,33.337,33.337,0,0,1,16.2-9.362,40.949,40.949,0,0,1,18.839-.645c6.186,1.28,12.385,3.75,17.031,8.132a41.825,41.825,0,0,1,10.5,15.741c.862,2.406,4.729,1.369,3.857-1.063A46.667,46.667,0,0,0,98.8,11.962,37.239,37.239,0,0,0,80.846,1.572,45.426,45.426,0,0,0,59.881.925C53.09,2.332,46.342,5.178,41.229,9.947A45.811,45.811,0,0,0,29.557,27.593c-.87,2.427,2.993,3.473,3.857,1.063Z"/><path class="c" d="M46.251,81.734c-8.1-1.268-16.349-2.646-23.764-6.329a32.038,32.038,0,0,1-9.835-6.95c-2.335-2.6-4.721-6.141-4.924-9.745a19.173,19.173,0,0,1,2.709-10.732A31.255,31.255,0,0,1,19.028,39.2a58.689,58.689,0,0,1,21.68-9.507A129.007,129.007,0,0,1,65.518,26.9,135.787,135.787,0,0,1,90.539,28.4c7.945,1.225,15.832,3.358,22.9,7.257,6.849,3.776,13.982,9.23,15.992,17.158.9,3.532,1.023,7.182-.6,10.516a22.755,22.755,0,0,1-7.925,8.979c-6.912,4.568-14.662,6.9-22.748,8.367-2.123.386-4.254.726-6.386,1.06a2.015,2.015,0,0,0-1.4,2.46,2.051,2.051,0,0,0,2.461,1.4c8.823-1.381,17.619-3.014,25.613-7.187a32.979,32.979,0,0,0,10.508-8c2.672-3.259,4.978-7.268,5.134-11.582a24.687,24.687,0,0,0-2.827-12.285c-2.181-4.111-5.658-7.291-9.308-10.088a60.948,60.948,0,0,0-23.2-10.528,135.013,135.013,0,0,0-26.87-3.039,137.353,137.353,0,0,0-27.037,1.91,68.492,68.492,0,0,0-24.293,8.57C13.177,37.87,5.944,44.293,4.211,53.156a18.162,18.162,0,0,0,1.425,12.1,27.063,27.063,0,0,0,8.283,9.7c7.225,5.218,15.815,7.9,24.485,9.5,2.255.417,4.519.779,6.783,1.133a2.064,2.064,0,0,0,2.461-1.4,2.017,2.017,0,0,0-1.4-2.46Z"/><path class="d" d="M37.791,56.123c-.47-1.68-1.21-4.87-1.21-4.87a40.772,40.772,0,0,1-.03-13.74c2.96-14.53,17.58-26.06,32.9-25.21a30.39,30.39,0,0,1,13.39,2.37,33.506,33.506,0,0,1,17.2,16.08,28.853,28.853,0,0,1,1.9,5.06c.15.56.29,1.13.4,1.7.93,4.48,2.07,13.28.05,18.9"/><path class="e" d="M103.776,84.8a28.272,28.272,0,0,0,.311-3.4,22.848,22.848,0,0,0-.156-3.16,13.728,13.728,0,0,0-2.32-6.211,9.724,9.724,0,0,1-.812.748,4.687,4.687,0,0,1-3.994,1l-.158-.041a28.1,28.1,0,0,1-1.285,3.5c-.961,2.609-6.381,11.921-13.17,15.211.513.617.87,1.049.87,1.049,1.256,1.406,2.806,3.466,4.036,4.89a4.363,4.363,0,0,1,.861,1.691l.357.17,2.172,1.025c1.373.565,2.759,1.138,4.132,1.709l1.593-2.9c7.616,1.185,11.739-2.856,10.973-4.09-2.382-.807-4.013-4.49-3.9-7C103.359,87.6,103.583,86.2,103.776,84.8Z"/><path class="a" d="M104.179,58.031a4.032,4.032,0,0,0-3.621-2.012,4.5,4.5,0,0,0-2.22.5,5.4,5.4,0,0,0-.572-.392,10.593,10.593,0,0,0,1.338-5.9,9.5,9.5,0,0,0-3.776-6.367,23.582,23.582,0,0,0-9.155-4.077c-4.494-1-10.248-1.308-16.32-1.45-6.071.142-11.825.449-16.319,1.45a23.582,23.582,0,0,0-9.155,4.077A9.5,9.5,0,0,0,40.6,50.22c-.283,2.318.584,4.4,1.68,6.6l.3.6-1.567-.864a4.521,4.521,0,0,0-2.311-.541,4.032,4.032,0,0,0-3.621,2.012c-1.23,2.134-1.178,6.066-.353,8.5a13.138,13.138,0,0,0,3.853,6.248,4.7,4.7,0,0,0,3.995,1,33.033,33.033,0,0,0,6.268,11.827,25.844,25.844,0,0,0,7.474,6.374v1.513c.534.432,11.422,8.174,12.247,8.759h2.129c.825-.585,11.713-8.327,12.247-8.759v-1.46c6.433-3.583,11.5-12.288,12.42-14.8a28.215,28.215,0,0,0,1.272-3.448l.353.06a4.788,4.788,0,0,0,3.692-1.066,13.127,13.127,0,0,0,3.852-6.248C105.357,64.1,105.409,60.165,104.179,58.031Z"/><path class="c" d="M37.72,385.982q-.618-11.345-1.163-22.693-.868-17.541-1.684-35.083-.925-19.833-1.776-39.669-.789-18.5-1.46-37c-.4-11.49-.837-23.029.294-34.493.022-.226.045-.453.071-.678a2.012,2.012,0,0,0-2-2,2.047,2.047,0,0,0-2,2c-1.189,10.338-.848,20.838-.5,31.211q.606,18.069,1.391,36.132.834,19.868,1.759,39.73.834,18.037,1.72,36.074.606,12.309,1.249,24.618.05.927.1,1.853c.139,2.561,4.14,2.577,4,0Z"/><path class="c" d="M103.491,385.982q.617-11.345,1.162-22.693.868-17.541,1.685-35.083.924-19.833,1.776-39.669.787-18.5,1.459-37c.4-11.49.837-23.029-.294-34.493-.022-.226-.044-.453-.07-.678a2.061,2.061,0,0,0-2-2,2.012,2.012,0,0,0-2,2c1.188,10.338.847,20.838.5,31.211q-.6,18.069-1.391,36.132-.834,19.868-1.759,39.73-.834,18.037-1.72,36.074-.6,12.309-1.249,24.618l-.1,1.853c-.14,2.573,3.86,2.565,4,0Z"/><path class="c" d="M66.6,243.455q.012,8.725.006,17.451,0,16.624,0,33.25,0,19.542,0,39.084,0,17.476,0,34.954,0,10.411,0,20.823v1.127c0,2.574,4,2.578,4,0q0-9.237,0-18.475l0-33.778q0-19.557,0-39.114,0-17.244,0-34.487,0-9.932,0-19.862c0-.325,0-.649,0-.973,0-2.574-4-2.578-4,0Z"/><path class="c" d="M66.609,241.814q-.012,8.223-.006,16.447,0,15.6,0,31.2,0,18.33,0,36.66l0,32.8q0,9.813,0,19.626v1.066c0,2.574,4,2.579,4,0q0-8.7,0-17.411,0-15.848,0-31.695,0-18.345,0-36.688,0-16.182,0-32.364,0-9.361.006-18.723,0-.461,0-.92c0-2.574-4-2.578-4,0Z"/><path class="f" d="M70.227,394.591c-.226-10.85-.616-27.589-.905-37.6.25-1.057.925-2.1,2-2.1l30.088,0a3.252,3.252,0,0,1,2.584,2.763c-.265,9.624-.511,9.812-.989,23a30.19,30.19,0,0,0,.415,7.706,14.931,14.931,0,0,0,4.558,8.4c4.818,4.286,6.8,5.662,9.344,8.959,2.352,3.05,4.722,8.751,3.381,13-.917,2.91-3.644,4.629-6.686,5.78a26.421,26.421,0,0,1-8.863.419,25.1,25.1,0,0,1-10.439-4.037c-5.054-3.582-9.268-7.139-14.609-10.78-1.876-1.278-4.209-2.163-5.99-3.551a11.109,11.109,0,0,1-2.829-2.9c-.893-1.568-.863-3.195-1.012-4.85C70.274,397.62,70.261,396.2,70.227,394.591Z"/><path class="f" d="M66.983,394.591c.227-10.85.616-27.589.905-37.6-.25-1.057-.924-2.1-2-2.1l-30.087,0a3.25,3.25,0,0,0-2.584,2.763c.264,9.624.51,9.812.988,23a30.254,30.254,0,0,1-.414,7.706,14.925,14.925,0,0,1-4.559,8.4c-4.818,4.286-6.8,5.662-9.344,8.959-2.352,3.05-4.721,8.751-3.381,13,.917,2.91,3.645,4.629,6.686,5.78a26.426,26.426,0,0,0,8.864.419A25.1,25.1,0,0,0,42.5,420.872c5.053-3.582,9.268-7.139,14.609-10.78,1.875-1.278,4.208-2.163,5.989-3.551a11.129,11.129,0,0,0,2.83-2.9c.892-1.568.862-3.195,1.011-4.85C66.936,397.62,66.949,396.2,66.983,394.591Z"/><path class="f" d="M75.824,364.93H97.38"/><path class="f" d="M39.491,364.93H61.269"/><path class="e" d="M73.6,38.255c-7.417.117-14.653.315-20.062,1.521a23.582,23.582,0,0,0-9.155,4.077A9.5,9.5,0,0,0,40.6,50.22,10.746,10.746,0,0,0,42,56.241c11.637-3.9,26.543-11.129,35.826-18.05C76.416,38.214,75,38.233,73.6,38.255Z"/><path class="e" d="M85.477,39.629q.352.071.7.147a23.582,23.582,0,0,1,9.155,4.077A9.5,9.5,0,0,1,99.1,50.22a10.593,10.593,0,0,1-1.338,5.9,33.938,33.938,0,0,1-10.98-10.29,69.485,69.485,0,0,1-3.55-6.592C84.01,39.355,84.758,39.483,85.477,39.629Z"/><path class="c" d="M66.63,379.817v9.994a2,2,0,0,0,4,0v-9.994a2,2,0,0,0-4,0Z"/><path class="d" d="M44.936,104.946c.532-.178,9.171-4.219,9.348-4.284,2.734-.988,2.615-2.739,2.97-4.7.2-1.136.349-2.183.444-3.283"/><path class="c" d="M80.7,92.515c.124,1.379.324,2.746.55,4.112a15.8,15.8,0,0,0,.4,2.118,5.386,5.386,0,0,0,1.471,2.432,6.1,6.1,0,0,0,1.308.917,10.706,10.706,0,0,0,.984.427c.638.244-.464-.225-.22-.1,1.905.975,3.883,1.832,5.818,2.747.925.438,1.844.891,2.788,1.286a2,2,0,0,0,2.461-1.4,2.065,2.065,0,0,0-1.4-2.46c.993.416.082.02-.15-.089q-.622-.291-1.242-.586-1.682-.793-3.362-1.591c-.867-.41-1.733-.822-2.6-1.227-.094-.044-.188-.089-.282-.131l-.073-.033c-.143-.063-.337-.144-.483-.2-.059-.024-.365-.169-.061-.018-.178-.089-.351-.181-.523-.282-.057-.033-.342-.221-.112-.061.2.141.014.011-.023-.026-.063-.062-.13-.132-.2-.191-.29-.26.1.076.063.1a4.583,4.583,0,0,1-.287-.482c-.111-.168.088.173.078.2a2.465,2.465,0,0,0-.119-.351c-.047-.161-.086-.324-.12-.488-.081-.386-.133-.777-.192-1.166-.085-.564-.187-1.125-.272-1.689-.036-.241-.041-.277-.081-.615-.045-.383-.083-.766-.118-1.15a2.044,2.044,0,0,0-2-2,2.022,2.022,0,0,0-2,2Z"/><path class="a" d="M52.828,202.623h33.53c2.574,0,2.578-4,0-4H52.828c-2.574,0-2.578,4,0,4Z"/><path class="a" d="M109.451,163.913c.147-8.863.567-17.716.57-26.58,0-2.574-4-2.578-4,0,0,8.864-.423,17.717-.57,26.58-.043,2.575,3.957,2.575,4,0Z"/><path class="a" d="M29.24,137.783c.026,8.464.96,16.878,1.24,25.33.086,2.567,4.086,2.579,4,0-.28-8.452-1.214-16.866-1.24-25.33-.007-2.574-4.007-2.579-4,0Z"/><path class="a" d="M16.457,128.354c-4.611,15.8-5.359,19.766-8.15,31.8a21.679,21.679,0,0,0,2.331,14.206c2.911,5.417,14.17,12.362,17.668,12.343-.245,18.712-1.174,36.491-1.174,41.1a1.16,1.16,0,0,0,1.05.981c3.254.248,79.63.248,82.884,0a1.16,1.16,0,0,0,1.05-.981c0-5.677-.781-21.829-1.513-43.341a19.2,19.2,0,0,0,11.591-.449c5.7-1.85,9.583-7.642,10.164-13.611a38.2,38.2,0,0,0-.375-8.21c-1.247-10.5-2.324-15.6-3.283-22.767l-6.4-13.416c-1.705-4.572-4.347-10.236-8.365-14.045a30.283,30.283,0,0,0-5.562-3.819c-4.247-2.162-13.764-6.017-17.661-7.516l-2.2-.87L87.6,99.4a4.091,4.091,0,0,0-.624-1.013c-1.23-1.424-2.78-3.484-4.036-4.89-.534.432-11.422,8.174-12.247,8.759H68.566c-.825-.585-11.713-8.327-12.247-8.759-1.257,1.406-2.806,3.466-4.036,4.89a4.345,4.345,0,0,0-.86,1.692l-.358.169-2.172,1.025c-7.709,3.171-15.793,6.576-20.04,8.739a30.267,30.267,0,0,0-5.062,3.729c-4.049,3.775-5.442,9.258-7.334,14.618"/><path class="c" d="M43.257,55.755a6.736,6.736,0,0,0-7.344-1.094,6.408,6.408,0,0,0-3.348,4.308A16,16,0,0,0,34.886,71.6c1.644,2.446,4.242,4.652,7.388,4.244a2.066,2.066,0,0,0,2-2,2.011,2.011,0,0,0-2-2c-2.177.282-3.594-1.521-4.538-3.262a12.909,12.909,0,0,1-1.551-4.819,8.269,8.269,0,0,1,.825-5.039c-.326.524.511-.436.2-.21a1.834,1.834,0,0,1,.919-.42,2.5,2.5,0,0,1,2.3.489c1.916,1.709,4.754-1.11,2.828-2.828Z"/><path class="c" d="M98.832,58.583A2.476,2.476,0,0,1,101,58.067a1.922,1.922,0,0,1,1.045.447c-.3-.222.52.72.2.21a8.254,8.254,0,0,1,.825,5.039,12.958,12.958,0,0,1-1.551,4.819c-.944,1.741-2.361,3.544-4.538,3.262a2.009,2.009,0,0,0-2,2,2.051,2.051,0,0,0,2,2c5.117.664,8.263-4.858,9.542-8.995,1.149-3.716,1.09-9.467-2.542-11.843A6.7,6.7,0,0,0,96,55.755c-1.924,1.717.913,4.538,2.829,2.828Z"/><path class="c" d="M54.639,59.988c-.46,1.495-.16,4.935,2.672,5.227,3.745-.022,3.944-4.181,2.683-6.136C58.963,57.478,55.928,56.812,54.639,59.988Z"/><path class="c" d="M84.622,59.988c.46,1.495.16,4.935-2.672,5.227-3.745-.022-3.944-4.181-2.684-6.136C80.3,57.478,83.333,56.812,84.622,59.988Z"/><path class="c" d="M95.228,71.212a28.081,28.081,0,0,1-1.265,4.219c-.193.506-.324.765-.565,1.363-.2.5.145-.293-.027.067-.061.127-.118.256-.179.384A35.906,35.906,0,0,1,90.1,82.389c-2.681,3.8-6.35,7.949-11.062,9.056-2.5.589-1.444,4.446,1.064,3.857,5.6-1.316,9.906-5.99,13.15-10.472a36.745,36.745,0,0,0,3.359-5.5c.2-.418.383-.844.562-1.272.215-.513-.164.356.072-.165.153-.337.291-.681.428-1.025a28.087,28.087,0,0,0,1.411-4.594c.524-2.512-3.331-3.586-3.857-1.064Z"/><path class="c" d="M64.177,81.142a11.93,11.93,0,0,0,5.747,1.342A9.476,9.476,0,0,0,75.84,80.69a2,2,0,0,0,0-2.828,2.062,2.062,0,0,0-2.829,0c.693-.54-.015-.018-.233.1-.169.089-.618.229.015.013-.156.053-.307.118-.465.169-.422.135-.888.156-1.3.3.211-.072.331-.04.031-.01-.128.012-.256.023-.384.031-.308.02-.616.028-.925.026-.276,0-.552-.011-.828-.03-.127-.008-.253-.019-.38-.031q-.108-.011-.216-.024-.235-.029.188.025a8.192,8.192,0,0,1-1.216-.27c-.17-.051-.336-.112-.5-.17-.446-.152.425.2.021.013-.209-.1-.415-.2-.618-.309a2,2,0,1,0-2.019,3.454Z"/><path class="c" d="M68.642,67.947a25.424,25.424,0,0,1,.6,2.755l-.071-.531a1.665,1.665,0,0,1,.01.38l.071-.532a.991.991,0,0,1-.041.171l.2-.478a.651.651,0,0,1-.06.11l.313-.4a.623.623,0,0,1-.09.088l.4-.312a1.741,1.741,0,0,1-.218.115l.478-.2a1.618,1.618,0,0,1-.368.107l.532-.072a1.483,1.483,0,0,1-.346,0l.532.071c-.13-.018-.258-.049-.388-.067a1.526,1.526,0,0,0-.8-.036,1.477,1.477,0,0,0-.743.238,2,2,0,0,0-.718,2.736l.313.405A2,2,0,0,0,69.14,73c.348.047.686.134,1.041.15a3.422,3.422,0,0,0,1.6-.391A2.441,2.441,0,0,0,73.1,71.171a3.746,3.746,0,0,0-.014-1.649c-.15-.888-.355-1.768-.583-2.638a2.063,2.063,0,0,0-.919-1.2,2,2,0,0,0-2.737.718,2.1,2.1,0,0,0-.2,1.541Z"/><path class="c" d="M81.528,94.906c.7.792,1.365,1.614,2.028,2.438s1.423,1.595,2.007,2.452a2.328,2.328,0,0,1,.332.76c.036.153.1.749.155.4a14.192,14.192,0,0,1-.579,1.595,84.491,84.491,0,0,1-3.351,9.964l2.736-.718a30.982,30.982,0,0,1-6.925-5.189,77.928,77.928,0,0,1-5.822-5.774l-.405,3.141c4.221-2.993,8.6-5.857,12.652-9.072a2.011,2.011,0,0,0,0-2.828,2.048,2.048,0,0,0-2.828,0c.816-.647-.155.1-.36.25q-.678.49-1.358.977-1.986,1.425-3.978,2.844-3.072,2.19-6.147,4.375a2.037,2.037,0,0,0-.405,3.141,78.08,78.08,0,0,0,6.027,5.959,34.231,34.231,0,0,0,7.531,5.63,2.025,2.025,0,0,0,2.736-.718,110.7,110.7,0,0,0,3.9-11.385c.055-.167.326-.947.046-.21a5.138,5.138,0,0,0,.437-1.752,6.047,6.047,0,0,0-1.012-3.5c-.654-.984-1.508-1.866-2.247-2.786-.767-.954-1.531-1.911-2.342-2.828C82.648,90.145,79.827,92.983,81.528,94.906Z"/><path class="c" d="M67.63,104V228.812c0,2.574,4,2.578,4,0V104c0-2.573-4-2.578-4,0Z"/><path class="c" d="M28.644,214.18q32.91,0,65.821-.095,8.322-.012,16.646-.014c2.574,0,2.578-4,0-4q-33.591,0-67.181.1-7.642.011-15.286.013c-2.574,0-2.578,4,0,4Z"/><path class="c" d="M126.772,139.954c.913,6.789,2.133,13.53,2.98,20.329.538,4.329,1.307,8.866-.056,13.115a13.872,13.872,0,0,1-6.075,7.8,16.891,16.891,0,0,1-11.9,1.479c-2.506-.571-3.576,3.284-1.063,3.857A21.914,21.914,0,0,0,123.4,185.7a16.9,16.9,0,0,0,8.757-7.927c2.183-4.119,2.545-8.589,2.094-13.166-.457-4.652-1.125-9.293-1.832-13.913-.6-3.933-1.26-7.857-1.791-11.8a2.011,2.011,0,0,0-2.46-1.4,2.054,2.054,0,0,0-1.4,2.46Z"/><path class="c" d="M18.386,128.885c1.364-3.891,2.459-7.985,4.816-11.426a20.437,20.437,0,0,1,8.1-6.437c6.81-3.279,13.941-5.829,20.77-9.052,2.326-1.1.3-4.548-2.019-3.454-5.567,2.627-11.418,4.814-17.08,7.348a40.85,40.85,0,0,0-7.2,3.745,22.879,22.879,0,0,0-6.86,7.165c-1.979,3.446-3.077,7.321-4.384,11.048-.853,2.434,3.01,3.481,3.857,1.063Z"/><path class="c" d="M124.227,125.475c-2.591-6.9-6.1-13.484-12.413-17.61a48.783,48.783,0,0,0-7.2-3.661c-3.019-1.325-6.067-2.59-9.125-3.825-2.143-.865-4.3-1.7-6.447-2.551a2.015,2.015,0,0,0-2.461,1.4,2.048,2.048,0,0,0,1.4,2.46c4.361,1.726,8.727,3.435,13.036,5.287,5.26,2.26,10.592,4.544,14.072,9.321a42.873,42.873,0,0,1,5.282,10.245,2.055,2.055,0,0,0,2.46,1.4,2.015,2.015,0,0,0,1.4-2.46Z"/><path class="c" d="M14.529,127.822c-2.418,8.295-4.653,16.621-6.594,25.04-1.142,4.955-2.462,9.716-1.654,14.844a20.828,20.828,0,0,0,6.006,11.87A40.073,40.073,0,0,0,25.2,188a2.014,2.014,0,0,0,2.46-1.4,2.047,2.047,0,0,0-1.4-2.46,35.378,35.378,0,0,1-10.377-6.678,17.46,17.46,0,0,1-5.642-10.225c-.84-4.546.539-8.923,1.551-13.315.766-3.322,1.548-6.64,2.4-9.942,1.3-5.059,2.735-10.083,4.2-15.1.722-2.476-3.137-3.533-3.857-1.063Z"/><path class="c" d="M26.279,188.468c-.179,11.488-.64,22.965-1.027,34.446-.049,1.448-.1,2.9-.117,4.346a3.282,3.282,0,0,0,3.212,3.532c.987.069,1.988.047,2.978.059,11.422.135,22.848.112,34.271.116,12.731.006,25.463.008,38.194-.08,1.744-.012,3.488-.024,5.231-.051,1.475-.023,3.164.129,4.263-1.065s.831-2.976.8-4.484c-.032-1.568-.078-3.137-.127-4.705-.139-4.445-.306-8.89-.471-13.334q-.324-8.764-.639-17.531c-.208-5.909-.579-11.842-.446-17.756.214-9.469,1.391-18.875,2.085-28.313.1-1.406.2-2.815.2-4.225,0-2.574-4-2.578-4,0-.008,3.4-.405,6.811-.709,10.194-.432,4.788-.878,9.576-1.2,14.373-.745,11.11-.068,22.215.338,33.327.326,8.926.716,17.853.937,26.782q.022.911.04,1.82a6.148,6.148,0,0,0,.018,1.622c.194.533,1.314-.594.849-.752-.048-.017-.122.015-.173.007a3.3,3.3,0,0,0-.525.016c-1.3.034-2.6.043-3.9.055-11.6.107-23.2.1-34.793.1-12.243,0-24.487,0-36.73-.085-1.6-.012-3.2-.024-4.8-.05a12.25,12.25,0,0,0-1.394-.03c-.064.007-.32-.055-.371-.014.013-.011.689,1.042.849.754a3.171,3.171,0,0,0,.012-.92c.179-9.472.686-18.94.931-28.411q.126-4.872.2-9.744c.04-2.575-3.96-2.576-4,0Z"/><path class="c" d="M100.629,74.252c2.416,4.58,1.028,9.41.69,14.263-.262,3.745,1.713,8,5.335,9.4L105.459,97a1.68,1.68,0,0,1-.13-1.015c0,.065-.107.406-.01.087s-.02.068-.094.113c.316-.19.041-.035-.094.093a5.665,5.665,0,0,1-1.636,1.109,12.031,12.031,0,0,1-6.75.764,2.066,2.066,0,0,0-2.46,1.4,2.015,2.015,0,0,0,1.4,2.46c3.565.513,7.432.364,10.588-1.578,1.706-1.051,4.38-3.8,2.331-5.854-.585-.585-1.34-.691-1.894-1.37a6.389,6.389,0,0,1-.949-1.682c-.744-1.905-.381-3.824-.108-5.794.644-4.636.673-9.247-1.566-13.491-1.2-2.278-4.656-.259-3.454,2.018Z"/><path class="c" d="M72.227,394.591q-.221-10.565-.477-21.128-.127-5.276-.265-10.552-.061-2.351-.128-4.7c-.013-.469-.074-1.115.155-1.376-.055.062-.123.024-.191.051a2.572,2.572,0,0,1,.595,0H73l20.79,0h6.895c.3,0,.92.173.453-.074a1.8,1.8,0,0,1,.61.477c.619.81.175,2.691.139,3.712q-.061,1.74-.142,3.479c-.246,5.308-.545,10.611-.734,15.921-.226,6.35.463,12.994,5.374,17.605,4.417,4.146,9.734,7.576,11.839,13.554,1.039,2.949,1.548,6.5-.961,8.841a11.053,11.053,0,0,1-7.229,2.653,23.531,23.531,0,0,1-9.753-1.484c-3.786-1.4-6.956-4.132-10.13-6.549a97.927,97.927,0,0,0-10.247-7.4c-3.018-1.729-7.087-3.238-7.5-7.183-.2-1.938-.138-3.9-.177-5.844-.051-2.571-4.051-2.58-4,0,.084,4.227-.372,8.81,2.908,12.026a21.85,21.85,0,0,0,5.114,3.565,48.867,48.867,0,0,1,5.625,3.59c3.732,2.7,7.322,5.586,11.059,8.276a27.339,27.339,0,0,0,11.688,4.79c6.078.98,14.681-.116,17.565-6.468,1.658-3.651.8-7.884-.718-11.428a24.524,24.524,0,0,0-5.611-7.877c-2.43-2.357-5.351-4.3-7.572-6.859a14.873,14.873,0,0,1-3.223-8.325,92.5,92.5,0,0,1,.2-11.77c.112-2.53.25-5.058.381-7.586q.195-3.751.307-7.5c.057-1.9-.169-3.478-1.646-4.834-1.393-1.28-2.9-1.305-4.68-1.305H72.22c-1.97,0-3.541.574-4.424,2.47-.737,1.582-.422,3.429-.376,5.129q.073,2.68.141,5.36.3,11.782.555,23.565.057,2.592.111,5.183C68.281,397.161,72.281,397.17,72.227,394.591Z"/><path class="c" d="M68.983,394.591q.24-11.465.521-22.927.136-5.59.286-11.181c.046-1.7.362-3.547-.376-5.129-.883-1.892-2.455-2.47-4.424-2.47l-22.306,0h-5.1c-1.787,0-3.283.021-4.681,1.305-2.464,2.264-1.623,6.018-1.5,9.019.239,5.65.577,11.295.783,16.947.123,3.394.2,6.543-.832,9.714-1.148,3.536-3.752,5.676-6.463,8.028-5.236,4.542-9.975,9.6-10.708,16.857a10.1,10.1,0,0,0,4.42,9.652,16.291,16.291,0,0,0,9.075,2.671,26.466,26.466,0,0,0,11.082-1.953c4.116-1.67,7.534-4.532,11.036-7.2a84.386,84.386,0,0,1,11.162-7.738,21.829,21.829,0,0,0,5.114-3.565,9.15,9.15,0,0,0,2.688-5.774c.239-2.075.178-4.167.22-6.252.051-2.575-3.949-2.575-4,0-.039,1.946.03,3.907-.177,5.844a6.044,6.044,0,0,1-2.655,4.317,36.7,36.7,0,0,1-4.847,2.866,56.284,56.284,0,0,0-5.315,3.672c-3.389,2.5-6.683,5.134-10.115,7.58a23.547,23.547,0,0,1-10.342,4.112c-4.65.652-13.022-.205-13.4-6.379-.382-6.3,4.252-11.236,8.641-15.059,2.48-2.16,5.092-4.156,6.81-7.016a19.921,19.921,0,0,0,2.572-8.787,91.928,91.928,0,0,0-.191-11.12c-.106-2.416-.231-4.83-.359-7.245-.113-2.125-.213-4.252-.288-6.379-.036-1.031-.473-2.892.139-3.712a1.757,1.757,0,0,1,.611-.477c-.415.219-.014.074.3.074H65.294c.261,0,.62.128.444-.019s.116.264.137.381a4.933,4.933,0,0,1-.022.963q-.139,4.961-.262,9.921-.27,10.821-.5,21.643-.052,2.409-.1,4.818C64.929,397.166,68.929,397.165,68.983,394.591Z"/><path class="c" d="M75.824,366.93H97.38c2.574,0,2.578-4,0-4H75.824c-2.573,0-2.578,4,0,4Z"/><path class="c" d="M39.491,366.93H61.269c2.574,0,2.578-4,0-4H39.491c-2.574,0-2.578,4,0,4Z"/><path class="c" d="M44.01,55.814c-1.045-2.125-1.878-4.257-1.141-6.618a8.869,8.869,0,0,1,4.136-4.726c4.1-2.522,8.926-3.3,13.652-3.7a109.91,109.91,0,0,1,16.361-.151c4.834.311,9.882.821,14.259,3.057,2.151,1.1,4.283,2.539,5.3,4.818,1.137,2.548.281,4.962-.881,7.324-1.132,2.3,2.317,4.331,3.454,2.019,1.387-2.82,2.418-5.664,1.768-8.84a11.523,11.523,0,0,0-4.177-6.554c-4.616-3.665-10.426-4.933-16.16-5.53a106.5,106.5,0,0,0-19.256-.2c-5.769.448-11.712,1.33-16.679,4.517A12.783,12.783,0,0,0,38.959,48.3c-.979,3.371.11,6.506,1.6,9.53,1.136,2.31,4.587.285,3.454-2.019Z"/><path class="c" d="M99.105,54.605a36.507,36.507,0,0,1-8.144-6.589,40.654,40.654,0,0,1-6-9.784,2.019,2.019,0,0,0-2.737-.717,2.042,2.042,0,0,0-.717,2.736,43.98,43.98,0,0,0,6.623,10.594,40.364,40.364,0,0,0,8.954,7.214c2.2,1.35,4.212-2.109,2.019-3.454Z"/><path class="c" d="M42.257,58.26a151.853,151.853,0,0,0,18.8-7.817A117.633,117.633,0,0,0,78.235,40.359a2.06,2.06,0,0,0,.718-2.737,2.016,2.016,0,0,0-2.737-.717A116.951,116.951,0,0,1,59.423,46.8a144.479,144.479,0,0,1-18.229,7.6c-2.429.812-1.388,4.677,1.063,3.857Z"/><path class="c" d="M40.1,72.177C42.5,82.711,50.43,94.2,61.814,95.914a2.064,2.064,0,0,0,2.46-1.4,2.014,2.014,0,0,0-1.4-2.46c-10.092-1.523-16.8-11.631-18.924-20.944-.572-2.508-4.43-1.447-3.857,1.064Z"/><path class="c" d="M54.905,92.078a64.623,64.623,0,0,0-4.512,5.5,6.2,6.2,0,0,0-1.1,3.469,5.086,5.086,0,0,0,.446,1.894c-.221-.579-.043-.058.044.21a108.274,108.274,0,0,0,3.874,11.385,2.034,2.034,0,0,0,2.736.718,34.417,34.417,0,0,0,7.544-5.63,77.2,77.2,0,0,0,6.041-5.959,2.037,2.037,0,0,0-.4-3.141q-3.078-2.183-6.147-4.375-1.991-1.421-3.978-2.844-.68-.488-1.358-.977c-.215-.156-1.164-.888-.36-.25a2.061,2.061,0,0,0-2.828,0,2.013,2.013,0,0,0,0,2.828c4.055,3.215,8.431,6.079,12.652,9.072l-.405-3.141a77.17,77.17,0,0,1-5.836,5.774,31.159,31.159,0,0,1-6.94,5.189l2.737.718a82.574,82.574,0,0,1-3.326-9.964c-.153-.5-.459-1.055-.561-1.558-.052-.256.061.144.066.065a1.56,1.56,0,0,1,.035-.36,3.351,3.351,0,0,1,.371-.9c.567-.861,1.36-1.646,2.007-2.452.663-.824,1.328-1.646,2.028-2.438C59.433,92.984,56.614,90.144,54.905,92.078Z"/><path class="a" d="M93.732,93.371a26.165,26.165,0,0,1,6.388,9.111c3.945,9.167,6.686,22.612,5.852,37.521a4.558,4.558,0,0,1-1.557,3.337,5.117,5.117,0,0,1-3.231.756,40.493,40.493,0,0,1-12.3-2.006,3.787,3.787,0,0,1-2.265-1.464,3.96,3.96,0,0,1-.233-2.4q1.218-11.025,2.153-22.079a148.957,148.957,0,0,0,.278-17.807Z"/><path class="a" d="M45.529,93.371a26.167,26.167,0,0,0-6.389,9.111C35.2,111.649,32.455,125.094,33.289,140a4.558,4.558,0,0,0,1.557,3.337,5.117,5.117,0,0,0,3.231.756,40.482,40.482,0,0,0,12.3-2.006,2.935,2.935,0,0,0,2.5-3.86c-1.034-7.459-1.526-14.711-2.153-22.079a150.132,150.132,0,0,1-.174-17.863Z"/><path class="c" d="M44.115,91.957c-5.558,4.778-8.205,12.289-10.025,19.175a92.463,92.463,0,0,0-2.949,24.116c.023,3.828-.319,9.291,4.335,10.575a17.431,17.431,0,0,0,6.071.1,44.085,44.085,0,0,0,6.468-1.075c1.857-.458,4.19-.907,5.621-2.28,1.655-1.588,1.312-3.752,1.045-5.794-.583-4.466-.989-8.953-1.364-13.44a177.363,177.363,0,0,1-.767-25.045c.149-2.572-3.851-2.563-4,0a131.726,131.726,0,0,0,.234,18.583c.343,4.067.653,8.137,1.041,12.2q.288,3.009.644,6.01c.129,1.066.285,2.129.413,3.2.081.679.276,1.272-.376,1.629a19.063,19.063,0,0,1-5.137,1.443,37.052,37.052,0,0,1-5.671.7c-1.313.062-3.443.488-4.134-.977a5.833,5.833,0,0,1-.335-2.27q-.066-1.542-.084-3.086a89.114,89.114,0,0,1,2.331-21.646c1.63-6.844,3.95-14.543,9.468-19.287,1.955-1.68-.885-4.5-2.829-2.828Z"/><path class="c" d="M92.317,94.785c4.876,4.192,7.143,10.652,8.8,16.677a86.645,86.645,0,0,1,2.981,20.99q.068,2.937-.046,5.874c-.05,1.294.106,3.319-1.509,3.689a17.746,17.746,0,0,1-5.52-.163,37.32,37.32,0,0,1-5.61-1.094A18.556,18.556,0,0,1,89,140.017c-.745-.317-.713-.581-.655-1.377.147-2.018.437-4.034.645-6.047q.65-6.252,1.208-12.513a148.707,148.707,0,0,0,.62-21.736c-.147-2.559-4.148-2.576-4,0a147.016,147.016,0,0,1-.6,21.49q-.612,6.874-1.331,13.74c-.219,2.089-.822,4.471-.491,6.561.341,2.159,2.028,3.233,3.957,3.883a40.67,40.67,0,0,0,12.833,2.078c1.917,0,3.86-.346,5.18-1.865,1.41-1.623,1.593-3.61,1.678-5.666a94.407,94.407,0,0,0-2.221-24.79c-1.76-7.72-4.469-16.482-10.675-21.818-1.943-1.67-4.785,1.147-2.829,2.828Z"/><path class="b" d="M5.627,161.424c-.015-.279-.022-.563-.022-.849,0-18.658,44.941-21.545,63-21.545,16.109,0,63,0,63,21.545,0,21.016-49.585,23.03-66.354,23.03C48.7,183.605,6.727,182.439,5.627,161.424Z"/><path class="c" d="M133.6,160.575c-.068-9.714-8.629-15.2-16.862-18.111-10.137-3.587-21.211-4.6-31.884-5.117-8.6-.42-17.27-.486-25.877-.082-11.279.528-22.754,1.688-33.656,4.739-8.018,2.244-19.136,6.3-21.347,15.463a13.782,13.782,0,0,0-.374,3.108c-.021,2.574,3.979,2.577,4,0a8.971,8.971,0,0,1,1.161-4.415,9.484,9.484,0,0,1,1.318-1.865,18.13,18.13,0,0,1,2.085-1.987c3.118-2.565,7.674-4.417,11.753-5.711,10.293-3.267,21.226-4.512,31.965-5.166,8.267-.5,16.57-.511,24.847-.249,10.117.321,20.385,1.084,30.2,3.686a40.05,40.05,0,0,1,12.349,5.155,13.529,13.529,0,0,1,6.049,8.011,9.174,9.174,0,0,1,.271,2.541c.018,2.573,4.018,2.578,4,0Z"/><path class="g" d="M50.469,141.636c6.46-.024,31.479,10.546,32.348,10.809,2.178.659,12.751-3.738,12.823-3.986.04-.139-2.348-7.313-2.329-7.558.029-.355,4.932-1.76,4.581-2.339-1.955-3.228-4.88-6.758-8.245-8.365,1.734-1.243,4.063-1.84,3.2-2.967-1.539-2-4.29-4.539-7.565-5.236a20.542,20.542,0,0,0-14.653,1.718,84.742,84.742,0,0,0-20.647,13.666"/><path class="c" d="M50.469,143.636c.288,0,.572.025.859.047.188.014.551.076.158.015.225.035.449.072.673.113.925.169,1.84.39,2.748.629,2.246.591,4.46,1.3,6.659,2.048,4.756,1.611,9.45,3.405,14.119,5.251q2.427.96,4.846,1.94a8.371,8.371,0,0,0,2.616.824c2.076.118,4.317-.727,6.25-1.381,2.129-.719,4.239-1.529,6.29-2.447.8-.359,1.624-.747,1.881-1.685a5,5,0,0,0-.47-2.651c-.375-1.189-.76-2.375-1.137-3.564-.166-.523-.334-1.045-.492-1.571-.091-.3-.237-1.283-.158-.3l-.273,1.01-.581.586.1-.055a1.212,1.212,0,0,1,.258-.124c-.348.081.4-.16.559-.222.644-.252,1.289-.5,1.925-.772,1.343-.571,3.026-1.485,2.534-3.265a9.4,9.4,0,0,0-1.614-2.625,31.955,31.955,0,0,0-2.227-2.777,18.494,18.494,0,0,0-5.332-4.187v3.454c1.4-.955,3.647-1.624,4.225-3.4.573-1.758-.918-3.2-2.059-4.338-3.079-3.073-6.744-4.355-11.015-4.732a22.775,22.775,0,0,0-11.387,2.158,81.081,81.081,0,0,0-11.036,6.057,93,93,0,0,0-10.82,8.293c-1.935,1.706.9,4.526,2.828,2.829a78.641,78.641,0,0,1,21.551-13.942,19.16,19.16,0,0,1,12-.882,10.8,10.8,0,0,1,4.924,2.92q.5.489.958,1.016c.141.163.279.328.414.5q.687-1.819-.028-1.459a5.018,5.018,0,0,0-1.22.7c-.463.26-.914.53-1.353.829-1.151.784-1.438,2.737,0,3.454a15.011,15.011,0,0,1,4.246,3.262,22.848,22.848,0,0,1,1.761,2.1c.236.321.465.648.688.978a7.978,7.978,0,0,0,.649.883v-1.064a3.664,3.664,0,0,1,.52-.8,2,2,0,0,0-.394.211,5.963,5.963,0,0,1-.667.294c-.669.272-1.346.52-2.013.8-1.527.635-2.39,1.579-1.922,3.321.356,1.325.822,2.628,1.24,3.935.216.675.433,1.349.643,2.026.076.242.137.5.225.733.1.273.06.691.026-.149l.273-1.01c.762-1.051.834-.689.3-.478-.208.082-.409.191-.613.281q-.237.1-.476.207c.3-.128-.019.008-.067.028q-.743.308-1.49.6c-1.8.7-3.629,1.362-5.491,1.888a19.935,19.935,0,0,1-2.184.51c-.6.1.375,0-.171.016-.146,0-.3,0-.442.011-.3.019.365.134,0-.019-.621-.26-1.253-.5-1.877-.748-6.832-2.754-13.691-5.483-20.7-7.753-3.235-1.048-6.785-2.333-10.229-2.354-2.574-.015-2.577,3.985,0,4Z"/><path class="c" d="M71.006,133.766c-.58.079-.028.008.1,0,.164-.017.327-.032.491-.044q.422-.031.844-.042a17.159,17.159,0,0,1,1.828.047,3.252,3.252,0,0,1,.841.085q-.448-.061-.114-.014l.209.033c.162.027.324.055.485.086.6.115,1.191.263,1.776.437a2,2,0,1,0,1.064-3.857,20.264,20.264,0,0,0-8.584-.584,1.994,1.994,0,0,0-1.2.919,2.044,2.044,0,0,0-.2,1.541,2.022,2.022,0,0,0,.919,1.2,2.364,2.364,0,0,0,1.541.2Z"/><path class="h" d="M54.805,150.512a7.692,7.692,0,0,0,.971-1.739c1.459-3.7-.428-7.9-2.984-10.943a11.042,11.042,0,0,0-4.251-3.372c-3.73-1.457-7.86.487-11.3,2.528a99.021,99.021,0,0,0-20.992,15.959,16.512,16.512,0,0,0-3.494,4.936,5.372,5.372,0,0,0,.656,5.6c1.562,1.8,4.11,2.064,6.481,1.851C30,164.423,39.379,159.87,48.4,155.21,50.763,153.988,53.265,152.6,54.805,150.512Z"/><path class="c" d="M56.532,151.522c2.471-3.521,2.019-7.846.128-11.514-1.761-3.413-4.88-7.015-8.8-7.834-4.361-.911-8.56,1.249-12.192,3.418-3.364,2.008-6.669,4.119-9.817,6.453a100.965,100.965,0,0,0-9.06,7.6c-2.922,2.75-6.229,6-6.513,10.247-.292,4.378,3.317,7.138,7.345,7.468a25.654,25.654,0,0,0,6.386-.573,52.4,52.4,0,0,0,6.362-1.541,95.083,95.083,0,0,0,13.947-5.735c4.063-1.993,9.05-3.9,11.9-7.585a2.066,2.066,0,0,0,0-2.828,2.012,2.012,0,0,0-2.828,0c-2.1,2.721-5.444,4.114-8.434,5.632-3.374,1.712-6.783,3.374-10.3,4.77a60.74,60.74,0,0,1-10.821,3.266c-2.428.471-7.173,1.71-9.015-.7-1.934-2.525,1.166-5.992,2.838-7.711a87.089,87.089,0,0,1,7.863-7.044,90.853,90.853,0,0,1,7.778-5.557c2.9-1.865,5.921-4.007,9.19-5.154a7.651,7.651,0,0,1,5.4-.267,10.116,10.116,0,0,1,3.918,3.449c2.148,2.857,3.5,6.539,1.269,9.717C51.6,151.614,55.062,153.615,56.532,151.522Z"/><path class="c" d="M44.146,144.171c.222.261.439.525.649.8l-.313-.405a12.811,12.811,0,0,1,1.647,2.732l-.2-.478a12.111,12.111,0,0,1,.586,1.77,2,2,0,1,0,3.857-1.063,12.5,12.5,0,0,0-1.316-3.315,20.169,20.169,0,0,0-2.081-2.865,2.013,2.013,0,0,0-1.414-.586,2.036,2.036,0,0,0-1.414.586,2.01,2.01,0,0,0-.586,1.414,2.237,2.237,0,0,0,.586,1.414Z"/><path class="c" d="M38.765,147.923a30.721,30.721,0,0,1,2.485,4.126,2,2,0,0,0,3.655-.477,2.181,2.181,0,0,0-.2-1.541,30.67,30.67,0,0,0-2.485-4.127,2.172,2.172,0,0,0-1.2-.919,2.043,2.043,0,0,0-1.541.2,2.017,2.017,0,0,0-.919,1.195,1.956,1.956,0,0,0,.2,1.541Z"/><path class="i" d="M87.059,121.949a10.31,10.31,0,0,1-4.592.537c-4.227-.5-9.7,1.992-12.575,6.66a15.484,15.484,0,0,0,5.639,19.682,22.7,22.7,0,0,0,9.238,2.828,15.5,15.5,0,0,0,6.465-.668c2.993-.966,6.544-2.61,8.778-5.012a15.546,15.546,0,0,0,4.1-12.357c-.5-4.557-2.735-9.044-7.2-11.1A12.567,12.567,0,0,0,87.059,121.949Z"/><path class="c" d="M86.528,120.02a9.4,9.4,0,0,1-3.129.53c-.914-.018-1.8-.165-2.721-.105a14.989,14.989,0,0,0-4.847,1.172c-3.28,1.383-6.629,3.991-8.026,7.352a17.661,17.661,0,0,0,4.349,19.815A20.687,20.687,0,0,0,82.845,153.4a21.2,21.2,0,0,0,12.265-1.774,18.258,18.258,0,0,0,8.948-7.862,18.057,18.057,0,0,0,1.867-11.554,15.639,15.639,0,0,0-5.952-10.2,14.938,14.938,0,0,0-13.445-1.994c-2.433.805-1.391,4.669,1.063,3.857a10.6,10.6,0,0,1,14.156,7.84,13.7,13.7,0,0,1-7.206,15.765,17.208,17.208,0,0,1-10.11,2.135,19.055,19.055,0,0,1-8.479-2.9,13.536,13.536,0,0,1-4.941-14.893,10.84,10.84,0,0,1,6.436-6.577,10.285,10.285,0,0,1,4.139-.821,17.191,17.191,0,0,0,6-.548C90.03,123.088,88.987,119.225,86.528,120.02Z"/><path class="c" d="M82.964,121.865a7.923,7.923,0,0,0-1.164,1.2,10.32,10.32,0,0,0-1.181,1.778,1.484,1.484,0,0,0-.238.744,1.522,1.522,0,0,0,.036.8,2.238,2.238,0,0,0,.919,1.195,2.013,2.013,0,0,0,1.541.2,1.989,1.989,0,0,0,1.2-.919,8.079,8.079,0,0,1,.829-1.322l-.313.405a8.116,8.116,0,0,1,1.2-1.247,2.055,2.055,0,0,0,0-2.828,2.01,2.01,0,0,0-1.414-.586l-.532.072a2,2,0,0,0-.882.514Z"/><path class="c" d="M84.788,125.24l.1.075L84.481,125A8.048,8.048,0,0,1,85.9,126.43l-.313-.405a8.211,8.211,0,0,1,.635.963,1.928,1.928,0,0,0,1.993.955,1.486,1.486,0,0,0,.743-.237,2.023,2.023,0,0,0,.92-1.2,2.123,2.123,0,0,0-.2-1.541,10.538,10.538,0,0,0-1.262-1.75,10.367,10.367,0,0,0-1.612-1.433,1.486,1.486,0,0,0-.743-.237,2.055,2.055,0,0,0-1.993.955,2.022,2.022,0,0,0-.2,1.541l.2.478a2.014,2.014,0,0,0,.718.717Z"/><path class="c" d="M78.584,119.379a17.6,17.6,0,0,1,2.64,2.735l-.312-.4q.408.53.775,1.088a2.12,2.12,0,0,0,1.2.919,2.045,2.045,0,0,0,1.542-.2,2,2,0,0,0,.717-2.736,19.273,19.273,0,0,0-3.728-4.228A2.144,2.144,0,0,0,80,115.965a2.037,2.037,0,0,0-1.415.586A2.013,2.013,0,0,0,78,117.965a1.959,1.959,0,0,0,.585,1.414Z"/><path class="c" d="M86.122,115.32q-.9,2.819-1.72,5.662a2,2,0,1,0,3.857,1.063q.818-2.842,1.72-5.661a2.016,2.016,0,0,0-1.4-2.46,2.044,2.044,0,0,0-2.46,1.4Z"/><path class="h" d="M91.333,163.652a15.242,15.242,0,0,1-2.72-11.517A17.127,17.127,0,0,1,98.072,139.1a13.307,13.307,0,0,1,9.634-.365,26.479,26.479,0,0,1,1.842-2.629c.68-.542,1-.462,1.742,0,1.312.826,3.272,2.05,4.54,2.943a.366.366,0,0,1,.177.5c-.234.929-.485,1.894-.66,2.632a12.925,12.925,0,0,1,4.6,5.867,16.491,16.491,0,0,1-1.891,15.471c-3.228,4.356-10.638,7.779-17.341,6.059a18.016,18.016,0,0,1-6.665-3.159A15.725,15.725,0,0,1,91.333,163.652Z"/><path class="c" d="M93.06,162.643a14.554,14.554,0,0,1-.133-16.444c3.052-4.7,8.742-7.582,14.248-5.534a2.041,2.041,0,0,0,2.258-.919c.526-.686.9-1.894,1.714-2.255l-1.009.273q-.46-.291.142.072l.6.377c.448.282.895.563,1.341.848a13.136,13.136,0,0,1,2.384,1.6l-.586-1.414a13.278,13.278,0,0,1-.6,2.4,2.09,2.09,0,0,0,.919,2.259c5.247,3.911,6.047,11.852,2.844,17.314-3.145,5.362-10.19,7.681-16.061,6.406a14.76,14.76,0,0,1-8.373-5.39,2.012,2.012,0,0,0-2.829,0,2.052,2.052,0,0,0,0,2.829,18.834,18.834,0,0,0,21.3,5.689,18.535,18.535,0,0,0,9.006-6.861,18.048,18.048,0,0,0,2.723-11.715,16.268,16.268,0,0,0-6.594-11.726l.919,2.259c.387-1.606,1.421-3.733-.032-5.074a28.414,28.414,0,0,0-4.186-2.779c-1.412-.889-2.781-1.59-4.363-.589-1.28.809-1.827,2.3-2.716,3.456l2.259-.919c-7.091-2.637-14.542,1.146-18.563,7.068-4.118,6.064-4.487,14.784-.069,20.786a2.061,2.061,0,0,0,2.737.717A2.014,2.014,0,0,0,93.06,162.643Z"/><path class="c" d="M100.493,142.326a21.115,21.115,0,0,0-3.914,4.513,16.19,16.19,0,0,0-2.144,6.193,2.052,2.052,0,0,0,1.4,2.46,2.022,2.022,0,0,0,2.46-1.4,19.7,19.7,0,0,1,.655-2.859q.113-.354.241-.7c.047-.128.1-.255.148-.383-.059.159-.1.225-.011.029a10.935,10.935,0,0,1,.708-1.32c.235-.368.483-.729.74-1.083.053-.072.108-.144.16-.217.146-.2-.26.322-.029.039.125-.153.25-.306.38-.455a21.492,21.492,0,0,1,2.038-1.988,2.011,2.011,0,0,0,0-2.828,2.049,2.049,0,0,0-2.829,0Z"/><path class="c" d="M105.111,145.529a8.49,8.49,0,0,0-1.4,1.261,10.85,10.85,0,0,0-1.134,1.584,11.808,11.808,0,0,0-1.232,3.083,2.1,2.1,0,0,0,.2,1.541,2,2,0,0,0,3.656-.477,10.412,10.412,0,0,1,.525-1.589l-.2.478a9.117,9.117,0,0,1,1.142-1.968l-.313.405a6.556,6.556,0,0,1,1.125-1.133l-.405.312.057-.043a2.2,2.2,0,0,0,.92-1.195,2.05,2.05,0,0,0-.2-1.542,2.017,2.017,0,0,0-1.195-.919,1.939,1.939,0,0,0-1.541.2Z"/><path class="j" d="M25.257,163.716a10.868,10.868,0,0,1,3.517-7.667A12.207,12.207,0,0,1,39.8,152.868a10.654,10.654,0,0,1,5.759,3.889,20.151,20.151,0,0,1,2.347,4.561,13.277,13.277,0,0,1,.055,6.4,11.125,11.125,0,0,1-7.625,7.635,12.54,12.54,0,0,1-12.4-4.192,12.834,12.834,0,0,1-2.363-4.7A11.211,11.211,0,0,1,25.257,163.716Z"/><path class="c" d="M27.257,163.716c.133-4.379,3.7-7.936,7.847-8.882a8.561,8.561,0,0,1,6.006.674,9.092,9.092,0,0,1,3.846,4.084,10.878,10.878,0,0,1,1.353,5.86,8.715,8.715,0,0,1-2.06,5.08,8.928,8.928,0,0,1-9.551,2.732,10.047,10.047,0,0,1-7.441-9.548c-.014-2.573-4.014-2.579-4,0a14,14,0,0,0,8.438,12.7c4.9,2.1,10.513,1.565,14.5-2.141a13.377,13.377,0,0,0,2.944-15.165,14.579,14.579,0,0,0-4.764-6.253,12.069,12.069,0,0,0-8.42-2.187c-6.709.7-12.492,6.145-12.7,13.045C23.179,166.291,27.179,166.288,27.257,163.716Z"/><path class="g" d="M94.294,150.92a46.705,46.705,0,0,0-.247-7.595,6.225,6.225,0,0,0-.632-2.286,5.347,5.347,0,0,0-2.346-1.918,18.659,18.659,0,0,0-12.3-1.522l-.062-3.788c-7.585-.807-18.093,2.551-22.784,9.575,0,0-11.153,14.62,6.744,20.359C92.241,173.228,94.294,150.92,94.294,150.92Z"/><path class="k" d="M79.992,147.546c-2.1.035-4.525,2.046-5.743,3.4-.592.655-.9,1.154-.748,1.2a12.3,12.3,0,0,1,4.523,1.942,4.161,4.161,0,0,1,1.615,4.314c-.112.342-.282.725-.108,1.04a1.153,1.153,0,0,0,.582.419c3.979,1.777,6.713,5.651,8.113,9.778s1.641,8.544,1.87,12.9a10.676,10.676,0,0,1,.013,1.488l4.294-3.273c5.78-6.827,6.825-17.267,2.44-24.152C92.76,150.18,87.3,147.425,79.992,147.546Z"/><path class="c" d="M78.338,149.62a19.121,19.121,0,0,1,10.22,1.695,17.574,17.574,0,0,1,7.159,7.314c3.472,6.489,1.86,15.177-2.729,20.7-1.633,1.966,1.181,4.811,2.829,2.828a24.431,24.431,0,0,0,5.336-19.863A20.893,20.893,0,0,0,89.43,147.316a23.676,23.676,0,0,0-11.092-1.7c-2.555.168-2.574,4.17,0,4Z"/><path class="g" d="M58.961,189.978a31.707,31.707,0,0,1-10.172-6.53,19.424,19.424,0,0,1-4.421-7.168,30.52,30.52,0,0,1,2.31-24.365c1.72-3.053,4.3-6,7.766-6.539,1.862-.291,3.878.794,5.737.485,1.473-.245,2.809-1.6,4.29-1.414,4.244.534,5.669,7.862,7.667,7.3,1.969.616,4.223,1,5.886,2.336a4.161,4.161,0,0,1,1.615,4.314c-.112.342-.282.725-.108,1.04a1.153,1.153,0,0,0,.582.419c3.979,1.777,6.713,5.651,8.113,9.778s1.641,8.544,1.87,12.9c.024.457-.2,3.463-2.2,4.79A26.913,26.913,0,0,1,72.385,191.9C68.252,191.88,63.814,191.831,58.961,189.978Z"/><path class="c" d="M70.956,147.631c-1.279-2.055-2.829-4.211-5.255-4.958a5.076,5.076,0,0,0-3.422.163c-1.127.447-2.05,1.176-3.312,1.059s-2.451-.551-3.717-.568a8.781,8.781,0,0,0-3.754.9,14.057,14.057,0,0,0-5.32,4.75c-5.809,8.054-7.056,20.155-3.172,29.263,3.689,8.653,13.046,14.1,22.122,15.284a44.475,44.475,0,0,0,12.49-.041,28.557,28.557,0,0,0,7.859-2.466c2.2-1.048,4.6-2.319,5.7-4.6a11.451,11.451,0,0,0,.806-5.991,48.915,48.915,0,0,0-1.353-9.766,22.06,22.06,0,0,0-3.535-7.513,16.887,16.887,0,0,0-2.744-2.953,17.259,17.259,0,0,0-1.6-1.184,11.8,11.8,0,0,1-1.806-.991l.515.883-.075-.334v1.064a8.376,8.376,0,0,0,.293-3.23,6.555,6.555,0,0,0-1.562-3.071c-1.534-1.758-3.855-2.5-6.028-3.109-2.482-.7-3.542,3.159-1.064,3.857,1.586.448,5.067,1.273,4.756,3.588-.157,1.166-.594,2.163.337,3.181.766.838,1.994,1.176,2.923,1.821,3.827,2.658,5.559,7.378,6.327,11.781a46.56,46.56,0,0,1,.729,8.078,4.15,4.15,0,0,1-1.165,3.02,18.829,18.829,0,0,1-6.618,3.222,26.26,26.26,0,0,1-7.284,1.131,41.217,41.217,0,0,1-10.3-.849,27.917,27.917,0,0,1-11.792-6.362c-6.658-5.841-7.27-16.457-4.8-24.467a25.03,25.03,0,0,1,3.389-7.066c1.217-1.725,3.1-3.608,5.326-3.823,1.364-.131,2.763.465,4.122.562a7.39,7.39,0,0,0,3.878-.932c1-.488,1.6-.747,2.561,0a9.97,9.97,0,0,1,2.1,2.682c1.358,2.181,4.82.175,3.454-2.019Z"/><path class="c" d="M57.65,144.4c4.406-6.447,13.551-9.325,21.057-8.584l-2-2,.062,3.788a2.028,2.028,0,0,0,2.531,1.929,16.133,16.133,0,0,1,11.44,1.689c1.369.84,1.372,2.36,1.478,3.825a49.687,49.687,0,0,1,.076,5.878c-.118,2.573,3.882,2.567,4,0a45.633,45.633,0,0,0-.172-6.975c-.269-2.475-.862-4.528-3.034-5.976-4.233-2.821-9.99-3.317-14.851-2.3l2.532,1.928-.062-3.788a2.055,2.055,0,0,0-2-2c-8.982-.886-19.328,2.981-24.511,10.565-1.456,2.131,2.008,4.134,3.454,2.019Z"/><path class="c" d="M56.929,175.96a32.261,32.261,0,0,1,7.56-17.486c1.72-1.908-1.1-4.746-2.829-2.829a36.369,36.369,0,0,0-8.731,20.315,2.012,2.012,0,0,0,2,2,2.046,2.046,0,0,0,2-2Z"/><path class="c" d="M59.905,179.969a27.27,27.27,0,0,0,14.605-5.014,2.056,2.056,0,0,0,.718-2.736,2.017,2.017,0,0,0-2.737-.718,23.445,23.445,0,0,1-12.586,4.468,2.043,2.043,0,0,0-2,2,2.019,2.019,0,0,0,2,2Z"/><path class="b" d="M12.509,180.14a25.886,25.886,0,0,1-2.927-7.827s0-.652,0-1.606c11.013,12.1,42.007,12.9,55.671,12.9,13.53,0,48.423-1.311,61.4-12.856,0,.921,0,1.564,0,1.564s-3.658,32.309-58.04,31.566C31.681,204.384,17.688,189.651,12.509,180.14Z"/><path class="c" d="M7.654,172.845c.594,4.1,2.815,8.222,5.145,11.56,6.261,8.974,15.956,14.7,26.289,17.84a93.519,93.519,0,0,0,25.736,3.632c9.438.143,18.916-.2,28.154-2.3,11.042-2.511,21.974-7.7,29.063-16.805,3.075-3.947,5.709-8.724,6.5-13.731q.057-.365.1-.731a2.012,2.012,0,0,0-2-2,2.047,2.047,0,0,0-2,2c.117-1.025-.014.023-.086.372a22.879,22.879,0,0,1-.606,2.289c-.172.542-.362,1.078-.566,1.608-.106.275-.217.547-.33.819.254-.615-.193.425-.3.649a32.952,32.952,0,0,1-2.327,4.155q-.344.523-.708,1.034-.2.279-.4.555l-.232.309c-.253.336.216-.27-.072.093-.618.777-1.26,1.533-1.937,2.26q-1.1,1.181-2.3,2.265c-.843.764-1.868,1.607-2.523,2.1A49.938,49.938,0,0,1,96.8,198.43a88.524,88.524,0,0,1-24.623,3.45c-9.1.123-18.211-.162-27.113-2.191-10.72-2.444-20.759-7.235-27.653-15.742-.1-.121-.437-.555-.175-.215q-.211-.274-.417-.554-.42-.568-.818-1.153-.7-1.031-1.325-2.108-.576-.995-1.083-2.025-.224-.456-.433-.919c-.066-.146-.129-.294-.2-.441-.211-.466.146.384-.037-.09a39.194,39.194,0,0,1-1.382-4.45,1.859,1.859,0,0,1-.036-.211,2.014,2.014,0,0,0-2.461-1.4,2.052,2.052,0,0,0-1.4,2.461Z"/><path class="c" d="M3.605,160.575c.071,10.443,9.078,16.43,17.973,19.589,10.406,3.694,21.77,4.75,32.735,5.223a244.957,244.957,0,0,0,25.822-.251c11.035-.689,22.294-1.949,32.883-5.259,8-2.5,18.294-6.989,20.245-16.151a15.824,15.824,0,0,0,.342-3.151c.019-2.575-3.981-2.577-4,0a7.812,7.812,0,0,1-.281,2.445,12.1,12.1,0,0,1-.368,1.218,4.353,4.353,0,0,1-.408.934,12.514,12.514,0,0,1-3.227,4.085c-2.934,2.643-7.155,4.618-11.059,6-9.886,3.49-20.51,4.861-30.918,5.66a245.875,245.875,0,0,1-24.984.611c-10.275-.258-20.7-1.038-30.666-3.669a42.379,42.379,0,0,1-13.253-5.583,14.879,14.879,0,0,1-6.548-8.891,11.687,11.687,0,0,1-.288-2.806c-.017-2.573-4.017-2.579-4,0Z"/><path class="c" d="M44.2,193.431a164.635,164.635,0,0,0,41.429.516,126.955,126.955,0,0,0,13.212-2.067c2.516-.542,1.451-4.4-1.063-3.858-12.758,2.75-26.076,3.285-39.091,2.75a127.013,127.013,0,0,1-13.424-1.2,2.066,2.066,0,0,0-2.46,1.4,2.014,2.014,0,0,0,1.4,2.46Z"/><path class="c" d="M81.441,189.308c-.008.388-.029.775-.069,1.161q-.014.144-.033.288c.041-.291.044-.324.011-.1-.035.191-.065.383-.1.573a13.771,13.771,0,0,1-.625,2.162c-.044.114-.193.635-.045.129a3.755,3.755,0,0,1-.243.528q-.255.523-.552,1.024t-.637.972c-.056.079-.113.157-.172.235q.249-.318.045-.061c-.124.149-.247.3-.374.445a2,2,0,0,0,2.829,2.829,16.009,16.009,0,0,0,3.969-10.185,2.018,2.018,0,0,0-2-2,2.038,2.038,0,0,0-2,2Z"/><path class="c" d="M89.478,187.777c.005.732-.01,1.464-.065,2.194-.014.183-.03.366-.049.548-.01.091-.02.182-.031.273q-.042.334.018-.123c.043.11-.066.423-.087.541-.029.156-.059.312-.093.468-.071.331-.154.66-.252.984-.052.172-.107.343-.167.513q-.045.126-.093.252-.122.3.05-.1a3.4,3.4,0,0,1-.479.958,8.807,8.807,0,0,1-.6.9,2.005,2.005,0,0,0-.2,1.541,2.038,2.038,0,0,0,.919,1.2,2.017,2.017,0,0,0,1.541.2,2.33,2.33,0,0,0,1.195-.919c2-2.662,2.416-6.186,2.392-9.42a2,2,0,0,0-4,0Z"/><path class="a" d="M123.688,183.369c1.5-14.378,13.193-12.577,11.327,3.406a20.479,20.479,0,0,1-5.563,13.163c-4.146,4.284-10.192,6.448-14.524,5.465-9.15.105-18.968-12.6-6.614-16.608,2.274-1.168,2.4-5.916,6.06-4.672,1.46-3.1,5.713-2.324,7.858-.332"/><path class="a" d="M13.766,182.9C12.231,168.218.294,170.056,2.2,186.377A20.913,20.913,0,0,0,7.88,199.818c4.233,4.374,10.407,6.584,14.83,5.58,9.343.108,19.369-12.868,6.754-16.958-2.322-1.193-2.446-6.041-6.188-4.771-1.491-3.169-5.833-2.373-8.024-.339"/><path class="c" d="M125.688,183.369a16.941,16.941,0,0,1,1.078-4.52,7.136,7.136,0,0,1,1.565-2.474c.077-.075.481-.417.352-.321s.29-.173.369-.223a2.557,2.557,0,0,1,.29-.149c-.063.03-.382.143-.037.028.193-.065.662-.131.208-.088a4.838,4.838,0,0,1,.59-.011c-.4-.01-.084-.016.125.041.189.052.5.211.162.039.116.059.606.36.48.267-.165-.12.247.223.316.291s.485.555.29.3a6.977,6.977,0,0,1,.838,1.456,12.968,12.968,0,0,1,.808,3.405,25.19,25.19,0,0,1-1.143,10.663,17.744,17.744,0,0,1-7.027,8.988,14.338,14.338,0,0,1-9.758,2.376,15.283,15.283,0,0,1-3.683-.66,12.345,12.345,0,0,1-3.351-1.87,8.988,8.988,0,0,1-3.637-5.417c.036.243-.014-.385-.019-.517a1.229,1.229,0,0,1,.051-.6,2.786,2.786,0,0,1,.6-1.369,7.605,7.605,0,0,1,3.349-2.168,6.79,6.79,0,0,0,3.486-3.353,5.944,5.944,0,0,1,.945-1.4c.134-.124.256-.159.192-.148a4.028,4.028,0,0,1,.714.117,2.021,2.021,0,0,0,2.259-.919c.952-1.837,3.448-1.049,4.717.072,1.922,1.7,4.762-1.119,2.828-2.828-3.128-2.765-8.763-3.576-11,.737l2.259-.919a4.666,4.666,0,0,0-5.021,1.3c-.917,1.024-1.453,2.823-2.458,3.522-.317.22-1.653.614-2.269.94a10.722,10.722,0,0,0-2.21,1.559,7.431,7.431,0,0,0-2.308,4.1c-1.167,6.581,5.829,12.446,11.7,13.532a19.771,19.771,0,0,0,12.123-1.269,21.3,21.3,0,0,0,10.274-10.125,27.821,27.821,0,0,0,2.457-13.214c-.129-3.176-.832-6.789-3.183-9.12a5.762,5.762,0,0,0-7.553-.668c-3.309,2.406-4.345,6.775-4.773,10.616a2.012,2.012,0,0,0,2,2,2.048,2.048,0,0,0,2-2Z"/><path class="c" d="M15.766,182.9c-.392-3.521-1.257-7.449-3.9-10.019a6,6,0,0,0-7.031-1.286c-2.675,1.409-4,4.57-4.489,7.4a25.018,25.018,0,0,0-.243,6.4,30.7,30.7,0,0,0,1.012,6.6A22.755,22.755,0,0,0,9.868,204.08a20.784,20.784,0,0,0,6.535,3.012,18.121,18.121,0,0,0,6.4.321,17.07,17.07,0,0,0,9.556-3.652,12.651,12.651,0,0,0,4.985-8.209c.454-4.177-2.6-7.155-6.2-8.62-.884-.359-1.013-.353-1.465-1.077-.439-.7-.822-1.439-1.309-2.11a4.853,4.853,0,0,0-5.621-2L25,182.66c-2.264-4.381-8-3.55-11.165-.744-1.931,1.71.906,4.53,2.828,2.828,1.324-1.171,3.9-1.968,4.883-.065a2.021,2.021,0,0,0,2.259.919,2.348,2.348,0,0,1,.8-.133c-.317,0,.055.056-.049-.02a3.409,3.409,0,0,1,.928,1.2,10.336,10.336,0,0,0,2.406,3.144c1.222.92,2.832,1.113,4.042,2.121a3.566,3.566,0,0,1,1.446,2.408,5.807,5.807,0,0,1-.418,2.442,9.523,9.523,0,0,1-1.987,2.872,12.51,12.51,0,0,1-6.74,3.661,15.835,15.835,0,0,1-9.2-.884A18,18,0,0,1,6.4,194.348,23.35,23.35,0,0,1,4,183.532c-.053-2.624.216-5.573,1.775-7.616-.2.258.287-.3.351-.361s.126-.119.19-.178c.384-.35-.3.168.123-.091a5.2,5.2,0,0,1,.551-.305c-.44.2.155-.018.307-.055.277-.067-.379.021-.095.011.123,0,.244-.012.367-.008s.374.049-.089-.028c.124.02.246.048.368.08.1.026.2.059.294.092.259.085-.4-.225.032.019a6.682,6.682,0,0,1,.573.349c-.3-.208.246.226.355.335.071.071.532.6.4.436a9,9,0,0,1,1.045,1.8,16.666,16.666,0,0,1,1.214,4.888,2.06,2.06,0,0,0,2,2,2.013,2.013,0,0,0,2-2Z"/></svg>