<?xml version="1.0" encoding="utf-8"?>
<!-- Uploaded to: SVG Repo, www.svgrepo.com, Generator: SVG Repo Mixer Tools -->
<svg width="800px" height="800px" viewBox="-71.36 0 456.681 456.681" xmlns="http://www.w3.org/2000/svg"><defs><style>.a{fill:#645d5c;}.b{fill:#211715;}.c{fill:#5199d1;}.d{fill:#ffffff;}.e{fill:#85807f;}.f{fill:none;}.g{fill:#febe69;}.h{fill:#ffda71;}</style></defs><path class="a" d="M176.908,447.918c-2.815-2.309-5.52-4.621-8.7-6.971-1.577-1.166-3.54-1.973-5.038-3.24a8.826,8.826,0,0,1-2.029-2.7c-1.767-3.368-1.611-9.651-.939-13.394,0,0,.07-.387.189-1.055,4.369.5,9.829.75,13.723.788a51.5,51.5,0,0,0,9.41-.92l1.733,2.721c1.256,1.41,3.6,4.228,4.96,5.539,4.052,3.909,5.511,5.764,8.459,9.033,2.265,2.511,4.254,7.551,3.68,11.088-.443,2.729-3.066,4.223-5.624,5.273a20.531,20.531,0,0,1-7.455.382,20.192,20.192,0,0,1-8.781-3.682C179.255,449.826,178.072,448.872,176.908,447.918Z"/><path class="b" d="M181.8,421.438c2.542,4.719,6.881,8.349,10.507,12.188a59.4,59.4,0,0,1,5.524,6.226c1.594,2.268,2.931,5.492,2.6,8.318-.268,2.313-3.088,3.846-5.181,4.228a17.332,17.332,0,0,1-8.063-.487c-3.48-1.031-6.123-3.158-8.886-5.424-3.044-2.5-6.028-5.106-9.244-7.381-1.534-1.086-3.426-1.784-4.787-3.1a8.15,8.15,0,0,1-2.117-4.185,25.587,25.587,0,0,1-.022-9.677,2.058,2.058,0,0,0-1.4-2.46,2.016,2.016,0,0,0-2.46,1.4c-1.154,6.66-1.167,15.2,5.168,19.282,1.658,1.068,3.351,1.984,4.925,3.186,1.7,1.3,3.358,2.67,5.01,4.036,3.136,2.592,6.226,5.54,10,7.17,5.852,2.527,13.787,3.1,18.764-1.609,2.754-2.608,2.649-6.508,1.656-9.9-1.027-3.512-2.992-6.117-5.374-8.808-2.4-2.71-4.961-5.226-7.459-7.84a34.921,34.921,0,0,1-5.713-7.178c-1.221-2.267-4.675-.25-3.454,2.019Z"/><path class="a" d="M136.007,447.918c2.816-2.309,5.52-4.621,8.7-6.971,1.577-1.166,3.54-1.973,5.038-3.24a8.823,8.823,0,0,0,2.028-2.7c1.768-3.368,1.612-9.651.939-13.394l-.188-1.055c-4.37.5-9.83.75-13.723.788a51.524,51.524,0,0,1-9.411-.92l-1.732,2.721c-1.257,1.41-3.6,4.228-4.96,5.539-4.053,3.909-5.511,5.764-8.459,9.033-2.266,2.511-4.254,7.551-3.68,11.088.442,2.729,3.065,4.223,5.623,5.273a20.537,20.537,0,0,0,7.456.382,20.192,20.192,0,0,0,8.781-3.682C133.661,449.826,134.843,448.872,136.007,447.918Z"/><path class="b" d="M127.662,419.419a33.73,33.73,0,0,1-5.116,6.541c-2.132,2.313-4.45,4.441-6.553,6.786-2.167,2.416-4.486,4.731-5.832,7.73-1.41,3.144-2.53,7.208-.982,10.5,1.287,2.741,4.743,4.837,7.674,5.318a22.036,22.036,0,0,0,9.742-.472c8.208-2.356,13.352-9.746,20.448-14.024,1.925-1.161,3.921-2.167,5.311-4a12.75,12.75,0,0,0,2.334-5.253,31.5,31.5,0,0,0-.048-11.47,2.018,2.018,0,0,0-2.461-1.4,2.045,2.045,0,0,0-1.4,2.46,27.593,27.593,0,0,1,.185,8.575,10.525,10.525,0,0,1-1.125,3.652,9.056,9.056,0,0,1-3.773,3.366,69.593,69.593,0,0,0-9.188,6.875c-2.775,2.293-5.511,4.945-8.821,6.45a17.7,17.7,0,0,1-8.532,1.529c-2.316-.138-4.978-.865-6.446-2.831-1.576-2.111-.177-5.871.847-7.937,1.254-2.527,3.337-4.532,5.212-6.608,4.008-4.435,9.095-8.434,11.974-13.779,1.221-2.266-2.231-4.289-3.454-2.019Z"/><path class="c" d="M117.354,245.858a191.429,191.429,0,0,0-.693,25.211c1.289,42.161,5.319,124.338,6.411,144.408a4.76,4.76,0,0,0,3.382,4.392,46.8,46.8,0,0,0,11.8,1.664c5.338-.059,13.8-.587,17.709-1.727,3.91,1.14,12.371,1.668,17.708,1.727a46.8,46.8,0,0,0,11.8-1.664,4.76,4.76,0,0,0,3.381-4.392c1.092-20.07,5.123-102.247,6.411-144.408a191.429,191.429,0,0,0-.693-25.211"/><path class="b" d="M153.983,409.312v9.993a2,2,0,0,0,4,0v-9.993a2,2,0,0,0-4,0Z"/><path class="b" d="M155.423,417.878a51.52,51.52,0,0,1-10.829,1.419,55.982,55.982,0,0,1-12.677-.291q-1.691-.283-3.363-.673a5.535,5.535,0,0,1-2.564-.953c-.9-.807-.921-1.949-.98-3.061q-.141-2.624-.277-5.245-.867-16.728-1.66-33.458-1.072-22.324-2.062-44.654-.975-22.077-1.814-44.161c-.491-13.336-1.21-26.747.067-40.061.028-.294.056-.588.09-.882a2.011,2.011,0,0,0-2-2,2.047,2.047,0,0,0-2,2c-1.411,12.28-.736,24.747-.3,37.063q.79,22.182,1.793,44.357,1,22.918,2.1,45.833.838,17.521,1.733,35.039.142,2.772.29,5.544a19.429,19.429,0,0,0,.261,3.051,6.76,6.76,0,0,0,4.053,4.827,30.582,30.582,0,0,0,6.867,1.491,43.71,43.71,0,0,0,7.045.455,111.391,111.391,0,0,0,12.245-.852,35.438,35.438,0,0,0,5.039-.931c2.473-.7,1.422-4.558-1.063-3.857Z"/><path class="b" d="M153.951,272.949q.012,8.726.006,17.451,0,16.626,0,33.25,0,19.542,0,39.084l0,34.955q0,10.41,0,20.822v1.128c0,2.573,4,2.578,4,0q0-9.238,0-18.476l0-33.777q0-19.557,0-39.115,0-17.243,0-34.487,0-9.93,0-19.862,0-.486,0-.973c0-2.573-4-2.578-4,0Z"/><path class="b" d="M155.43,421.735a55.664,55.664,0,0,0,11.511,1.538,62.547,62.547,0,0,0,13.035-.241c4.22-.61,9.652-1.288,10.7-6.287a38.083,38.083,0,0,0,.4-5.755q.858-16.377,1.635-32.757,1.089-22.579,2.095-45.163,1-22.675,1.873-45.356c.5-13.62,1.266-27.32-.028-40.918-.03-.313-.06-.626-.1-.938a2.061,2.061,0,0,0-2-2,2.013,2.013,0,0,0-2,2c1.378,11.99.754,24.159.329,36.186q-.765,21.657-1.739,43.307-.984,22.609-2.067,45.216-.845,17.721-1.744,35.437-.153,2.982-.309,5.962c-.091,1.716.236,4.344-1.228,5.532a5.471,5.471,0,0,1-2.241.787q-1.769.42-3.564.721a38.462,38.462,0,0,1-6.961.518,112.092,112.092,0,0,1-12.05-.791,30.626,30.626,0,0,1-4.494-.855c-2.482-.7-3.541,3.158-1.063,3.857Z"/><path class="d" d="M181.678,134.02c-.278-.112-8.023-3.8-8.2-3.863-2.733-.989-2.627-2.74-2.97-4.7-.22-1.254-.383-2.5-.48-3.761,6.563-3.484,11.749-12.418,12.688-14.966a28.1,28.1,0,0,0,1.27-3.448l.354.06a4.785,4.785,0,0,0,3.692-1.066,13.125,13.125,0,0,0,3.853-6.248c.826-2.433.878-6.365-.352-8.5a3.8,3.8,0,0,0-1.789-1.618c2.02-5.62.88-14.42-.05-18.9-.11-.57-.25-1.14-.4-1.7a28.853,28.853,0,0,0-1.9-5.06,33.506,33.506,0,0,0-17.2-16.08A30.39,30.39,0,0,0,156.8,41.8c-15.32-.85-29.94,10.68-32.9,25.21a40.772,40.772,0,0,0,.03,13.74s.74,3.19,1.211,4.872a3.86,3.86,0,0,0-2.709,1.906c-1.231,2.134-1.179,6.066-.353,8.5a13.125,13.125,0,0,0,3.853,6.248,4.7,4.7,0,0,0,4,1A33.009,33.009,0,0,0,136.2,115.1a24.453,24.453,0,0,0,8.852,7.068c-.094,1.1-.248,2.148-.443,3.286-.355,1.964-.237,3.715-2.97,4.7-.178.065-8.816,4.106-9.349,4.283,0,0,4.195,12.783,24.695,12.783S181.678,134.02,181.678,134.02Z"/><path class="b" d="M132.82,136.369c.871-.305,1.717-.744,2.555-1.127q1.928-.883,3.851-1.778,1.511-.7,3.022-1.4c.1-.048.211-.093.314-.143s.268-.118-.163.067c-.513.22-.068.035.064-.018.253-.1.506-.2.752-.321a5.422,5.422,0,0,0,2.409-2.23,8.559,8.559,0,0,0,.816-2.852c.226-1.464.478-2.921.611-4.4a2.008,2.008,0,0,0-2-2,2.053,2.053,0,0,0-2,2,37.493,37.493,0,0,1-.891,5.286c-.059.247.2-.312.041-.114a1.809,1.809,0,0,0-.132.232c-.223.4.18-.132-.067.089a2.4,2.4,0,0,0-.212.2c.216-.252.157-.1.028-.023-.1.059-.192.123-.293.18-.037.021-.454.231-.275.15s-.145.054-.145.054c-.153.062-.333.138-.484.2l-.065.029c-.1.044-.2.091-.3.137-2.145.985-4.282,1.988-6.427,2.973q-.836.384-1.672.762c-.177.08-.354.158-.532.237-.445.2.5-.187.133-.058a2,2,0,0,0,1.063,3.857Z"/><path class="b" d="M168.052,122.009c.124,1.379.324,2.747.55,4.112A16,16,0,0,0,169,128.24a5.4,5.4,0,0,0,1.472,2.432,6.034,6.034,0,0,0,1.308.916,10.536,10.536,0,0,0,.983.427c.638.244-.463-.225-.219-.1,1.905.976,3.883,1.832,5.818,2.748.925.437,1.844.89,2.788,1.286a2,2,0,0,0,2.46-1.4,2.062,2.062,0,0,0-1.4-2.46c.994.416.083.02-.149-.089l-1.243-.586-3.362-1.591q-1.3-.617-2.6-1.228c-.094-.044-.188-.089-.283-.131l-.072-.032c-.144-.064-.337-.145-.483-.2-.059-.024-.365-.17-.061-.019-.179-.089-.351-.181-.524-.281-.057-.033-.342-.221-.112-.062.2.141.015.012-.023-.026-.062-.062-.13-.132-.2-.191-.291-.26.1.076.063.1a4.647,4.647,0,0,1-.288-.482c-.11-.167.088.174.079.2a2.645,2.645,0,0,0-.119-.351c-.047-.161-.086-.324-.12-.488-.081-.385-.134-.776-.193-1.166-.085-.563-.187-1.124-.271-1.688-.037-.242-.042-.277-.081-.615q-.067-.575-.118-1.151a2.044,2.044,0,0,0-2-2,2.022,2.022,0,0,0-2,2Z"/><path class="c" d="M49.8,99.754l.883-1.07a364.173,364.173,0,0,0,63.206,36.351l4.461-2.8a123.734,123.734,0,0,0,20.676-3.359,3.988,3.988,0,0,1,.614-1c1.23-1.424,2.779-3.484,4.036-4.89.534.433,11.421,8.174,12.247,8.76h2.128c.826-.586,11.713-8.327,12.247-8.76,1.257,1.406,2.807,3.466,4.036,4.89a4.333,4.333,0,0,1,.822,1.55,103.494,103.494,0,0,0,15.587,2.392l9.27,3.217a364.128,364.128,0,0,0,63.205-36.351l15.012,18.175A436.092,436.092,0,0,1,198.8,177.582c-.309,5.565-.779,12.511-.952,19.962-.545,23.5.659,52.711.659,58.756a1.136,1.136,0,0,1-1.026.959c-3.18.242-77.812.242-80.992,0a1.136,1.136,0,0,1-1.026-.959c0-6.045,1.2-35.258.659-58.756-.172-7.431-.64-14.359-.949-19.917a436.121,436.121,0,0,1-79.5-60.768Z"/><path class="b" d="M190.739,129.818a101.977,101.977,0,0,1-14.155-2.113,2.045,2.045,0,0,0-2.46,1.4,2.02,2.02,0,0,0,1.4,2.46,109.731,109.731,0,0,0,15.218,2.256,2.017,2.017,0,0,0,2-2,2.04,2.04,0,0,0-2-2Z"/><path class="d" d="M144.272,83.263c-3.985.2-7.966.466-11.89.8a101.2,101.2,0,0,0-10.418,1.158l-1.056.292c-1.633,1.217-4.272,3.088-4.848,3.053a1.73,1.73,0,0,1-1.543-1.352,3.38,3.38,0,0,1,.2-1.573,41.253,41.253,0,0,1,4.122-9.9l.858-1.514a45.678,45.678,0,0,1,8.1-22.394,37.705,37.705,0,0,1,17.826-13.49c1.079-2.329,4.036-3.791,6.292-4.134a31.463,31.463,0,0,1,10.961,0c2.371.36,5.514,1.955,6.441,4.493A37.8,37.8,0,0,1,186.174,51.83,45.761,45.761,0,0,1,194.3,74.522l.83,1.216a41.254,41.254,0,0,1,4.123,9.9,3.38,3.38,0,0,1,.2,1.573,1.73,1.73,0,0,1-1.543,1.352c-.592.036-3.37-1.947-4.987-3.157L192,85.217c-3.939-.639-6.871-.859-10.419-1.158-8.112-.684-16.469-1.107-24.6-1.158C152.784,82.928,148.526,83.053,144.272,83.263Z"/><path class="e" d="M190.149,99.86a10.111,10.111,0,0,1-2.118,2.412,4.785,4.785,0,0,1-3.692,1.066l-.354-.06a28.1,28.1,0,0,1-1.27,3.448,38.284,38.284,0,0,1-8.263,11.7,19.309,19.309,0,0,0,8.821-2.7,16.6,16.6,0,0,0,6.18-7.6c1.275-2.9,1.97-6.034,1.146-9.033C190.461,99.35,190.311,99.606,190.149,99.86Z"/><path class="e" d="M123.806,99.842a10.108,10.108,0,0,0,2.129,2.43,4.7,4.7,0,0,0,4,1A33.029,33.029,0,0,0,136.2,115.1a32.379,32.379,0,0,0,3.209,3.357,18.18,18.18,0,0,1-8.994-2.728,16.534,16.534,0,0,1-5.96-7.6,14.118,14.118,0,0,1-1.1-9.055Q123.562,99.457,123.806,99.842Z"/><path class="b" d="M130.61,85.249a6.739,6.739,0,0,0-7.344-1.094,6.4,6.4,0,0,0-3.348,4.308,16,16,0,0,0,2.32,12.631c1.644,2.446,4.242,4.652,7.389,4.244a2.066,2.066,0,0,0,2-2,2.011,2.011,0,0,0-2-2c-2.177.282-3.594-1.521-4.538-3.262a12.9,12.9,0,0,1-1.552-4.819,8.286,8.286,0,0,1,.825-5.039c-.326.524.512-.436.2-.21a1.827,1.827,0,0,1,.918-.42,2.508,2.508,0,0,1,2.3.489c1.915,1.71,4.754-1.11,2.828-2.828Z"/><path class="b" d="M186.185,88.077a2.475,2.475,0,0,1,2.171-.516,1.926,1.926,0,0,1,1.045.447c-.3-.221.52.72.2.21a8.262,8.262,0,0,1,.825,5.039,12.97,12.97,0,0,1-1.551,4.819c-.944,1.741-2.361,3.545-4.539,3.262a2.01,2.01,0,0,0-2,2,2.052,2.052,0,0,0,2,2c5.117.664,8.264-4.857,9.543-8.995,1.148-3.716,1.089-9.466-2.543-11.843a6.7,6.7,0,0,0-7.983.749c-1.925,1.717.912,4.538,2.829,2.828Z"/><path class="b" d="M141.992,89.482c-.461,1.5-.161,4.935,2.672,5.228,3.744-.023,3.944-4.181,2.683-6.137C146.315,86.972,143.281,86.306,141.992,89.482Z"/><path class="b" d="M171.975,89.482c.46,1.5.16,4.935-2.673,5.228-3.744-.023-3.943-4.181-2.683-6.137C167.651,86.972,170.685,86.307,171.975,89.482Z"/><path class="f" d="M125.143,85.617c-.47-1.68-1.21-4.87-1.21-4.87a40.772,40.772,0,0,1-.03-13.74c2.96-14.53,17.58-26.06,32.9-25.21a30.39,30.39,0,0,1,13.39,2.37,33.506,33.506,0,0,1,17.2,16.08,28.853,28.853,0,0,1,1.9,5.06c.15.56.29,1.13.4,1.7.93,4.48,2.07,13.28.05,18.9"/><path class="b" d="M182.581,100.707a27.991,27.991,0,0,1-1.266,4.218c-.192.507-.324.765-.564,1.363-.2.5.145-.292-.028.067-.061.127-.118.257-.179.384a35.881,35.881,0,0,1-3.09,5.144c-2.681,3.8-6.351,7.949-11.062,9.056-2.5.589-1.444,4.447,1.063,3.857,5.6-1.315,9.907-5.989,13.151-10.472a36.768,36.768,0,0,0,3.359-5.5c.2-.419.383-.844.562-1.273.214-.512-.165.356.072-.164.153-.337.291-.682.427-1.026a28.06,28.06,0,0,0,1.412-4.594c.524-2.512-3.331-3.586-3.857-1.063Z"/><path class="b" d="M127.449,101.671c2.4,10.534,10.333,22.02,21.718,23.737a2.065,2.065,0,0,0,2.46-1.4,2.016,2.016,0,0,0-1.4-2.46c-10.092-1.522-16.8-11.631-18.924-20.943-.572-2.509-4.43-1.447-3.857,1.063Z"/><path class="b" d="M151.529,110.636a11.925,11.925,0,0,0,5.748,1.342,9.479,9.479,0,0,0,5.916-1.793,2.005,2.005,0,0,0,0-2.829,2.064,2.064,0,0,0-2.829,0c.692-.539-.015-.018-.233.1-.169.089-.619.229.015.013-.156.053-.308.118-.465.169-.422.136-.888.157-1.3.3.212-.072.332-.04.032-.01-.128.013-.256.023-.384.032-.308.019-.617.027-.925.025q-.416,0-.829-.029c-.126-.009-.253-.019-.379-.032q-.108-.011-.216-.024c-.157-.019-.095-.011.188.025a8.165,8.165,0,0,1-1.216-.27c-.17-.051-.336-.112-.5-.169-.446-.153.425.2.02.012q-.312-.147-.618-.308a2,2,0,1,0-2.019,3.453Z"/><path class="b" d="M155.994,97.441a25.739,25.739,0,0,1,.6,2.756l-.072-.532a1.666,1.666,0,0,1,.011.38l.071-.531a.928.928,0,0,1-.042.171l.2-.478a.656.656,0,0,1-.061.11l.313-.4a.541.541,0,0,1-.09.089l.405-.313a1.821,1.821,0,0,1-.218.116l.478-.2a1.6,1.6,0,0,1-.368.107l.531-.071a1.422,1.422,0,0,1-.345,0l.532.072c-.13-.018-.258-.05-.388-.068a1.515,1.515,0,0,0-.8-.035,1.492,1.492,0,0,0-.744.237,2,2,0,0,0-.717,2.736l.313.405a1.99,1.99,0,0,0,.882.514c.349.047.687.134,1.042.15a3.422,3.422,0,0,0,1.6-.391,2.437,2.437,0,0,0,1.313-1.592,3.731,3.731,0,0,0-.013-1.649c-.15-.888-.355-1.767-.583-2.638a2.062,2.062,0,0,0-.92-1.195,2,2,0,0,0-2.736.717,2.11,2.11,0,0,0-.2,1.541Z"/><path class="b" d="M146.038,36.085c-13.652,4.456-23.381,16.126-26.924,29.851a54.212,54.212,0,0,0-1.657,12.4c-.053,2.575,3.947,2.575,4,0a45.436,45.436,0,0,1,7.212-24.266A35.67,35.67,0,0,1,147.1,39.942c2.436-.8,1.393-4.659-1.064-3.857Z"/><path class="b" d="M122.5,87.146c4.21-.747,8.5-.993,12.76-1.317q6.882-.523,13.781-.765a266.006,266.006,0,0,1,27.751.624c4.9.345,9.829.683,14.684,1.458a2.062,2.062,0,0,0,2.46-1.4,2.015,2.015,0,0,0-1.4-2.46,223.432,223.432,0,0,0-27.362-2.217,267.647,267.647,0,0,0-28.715.668,146.817,146.817,0,0,0-15.025,1.549,2.017,2.017,0,0,0-1.4,2.46,2.046,2.046,0,0,0,2.46,1.4Z"/><path class="b" d="M137.119,54.777v15.43c0,2.573,4,2.578,4,0V54.777c0-2.574-4-2.578-4,0Z"/><path class="b" d="M172.051,54.134V71.653h4v-.589c0-2.574-4-2.578-4,0v.589c0,2.574,4,2.578,4,0V54.134c0-2.574-4-2.578-4,0Z"/><path class="b" d="M170.831,37.206c-2.572-4.772-8.758-5.524-13.626-5.476-4.789.047-10.726.784-13.254,5.476-1.222,2.266,2.231,4.288,3.454,2.019,1.786-3.315,6.5-3.463,9.8-3.5,3.365-.033,8.342.1,10.172,3.5,1.221,2.267,4.676.249,3.454-2.019Z"/><path class="b" d="M117.109,74.729a37.451,37.451,0,0,0-2.748,5.7c-.384.978-.733,1.97-1.055,2.971a12.017,12.017,0,0,0-.821,3.356c-.036,2.206,2.068,4.283,4.327,3.691a10.94,10.94,0,0,0,3.143-1.8c1.166-.809,2.3-1.658,3.423-2.531a2.01,2.01,0,0,0,0-2.828,2.052,2.052,0,0,0-2.829,0c-.355.277.366-.277.077-.059-.114.085-.226.172-.339.257q-.357.27-.717.536c-.56.412-1.125.819-1.7,1.215s-1.143.782-1.742,1.129a4.672,4.672,0,0,0-.623.33c.372-.309.424-.148.21-.1-.23.054.5-.024.541-.028q.321.158.019-.009c.156.127.183.14.082.041s-.078-.082.06.067a.43.43,0,0,1,.068.311,3.485,3.485,0,0,1,.289-1.273c.337-1.128.7-2.247,1.112-3.351a32.244,32.244,0,0,1,2.674-5.613,2,2,0,1,0-3.454-2.019Z"/><path class="b" d="M166.865,39.942a35.586,35.586,0,0,1,18.073,13.6,44.958,44.958,0,0,1,7.531,23.449c.119,2.563,4.12,2.577,4,0-.424-9.134-3.022-18.287-8.32-25.818a40.04,40.04,0,0,0-20.221-15.083c-2.453-.8-3.5,3.06-1.063,3.857Z"/><path class="b" d="M190.588,86.12q1.469,1.146,2.986,2.224a17.746,17.746,0,0,0,2.939,1.842,3.068,3.068,0,0,0,2.417.192,3.78,3.78,0,0,0,2.427-2.554,6.771,6.771,0,0,0-.448-3.631c-.31-1.01-.646-2.014-1.015-3a38.16,38.16,0,0,0-3.037-6.459,2,2,0,1,0-3.454,2.019,32.181,32.181,0,0,1,2.675,5.613c.408,1.1.774,2.223,1.111,3.351a3.515,3.515,0,0,1,.29,1.273,1.052,1.052,0,0,1,.185-.44q-.244.235.024.021-.3.167.019.009c.1.011.58.037.569.035-.242-.052-.178-.209.182.09a4.665,4.665,0,0,0-.623-.33c-.6-.347-1.173-.736-1.742-1.129s-1.137-.8-1.7-1.215q-.36-.265-.718-.536l-.338-.257c-.29-.218.431.336.076.059a2.066,2.066,0,0,0-2.829,0,2.013,2.013,0,0,0,0,2.828Z"/><path class="b" d="M118.346,134.232a130.058,130.058,0,0,0,18-2.67,2,2,0,1,0-1.063-3.857,122.326,122.326,0,0,1-16.932,2.527,2.049,2.049,0,0,0-2,2,2.016,2.016,0,0,0,2,2Z"/><path class="b" d="M168.88,124.4c.7.792,1.366,1.614,2.028,2.438s1.424,1.594,2.008,2.452a2.326,2.326,0,0,1,.331.76c.037.152.1.748.156.4a14.062,14.062,0,0,1-.58,1.594,84.363,84.363,0,0,1-3.35,9.964l2.736-.718a30.985,30.985,0,0,1-6.925-5.188,77.751,77.751,0,0,1-5.822-5.775l-.405,3.142c4.221-2.993,8.6-5.857,12.652-9.072a2.013,2.013,0,0,0,0-2.829,2.05,2.05,0,0,0-2.829,0c.816-.647-.154.1-.36.25q-.677.49-1.358.978-1.986,1.425-3.977,2.843-3.072,2.19-6.147,4.376a2.037,2.037,0,0,0-.405,3.141,78.263,78.263,0,0,0,6.027,5.959,34.253,34.253,0,0,0,7.53,5.629,2.026,2.026,0,0,0,2.737-.717,110.8,110.8,0,0,0,3.9-11.386c.055-.167.325-.947.046-.21a5.131,5.131,0,0,0,.436-1.752,6.041,6.041,0,0,0-1.011-3.5c-.654-.983-1.508-1.865-2.248-2.785-.767-.955-1.53-1.911-2.341-2.829C170,119.64,167.18,122.477,168.88,124.4Z"/><path class="b" d="M142.258,121.572a64.623,64.623,0,0,0-4.512,5.5,6.191,6.191,0,0,0-1.1,3.469,5.058,5.058,0,0,0,.446,1.894c-.221-.578-.043-.058.043.21a108.606,108.606,0,0,0,3.875,11.386,2.034,2.034,0,0,0,2.736.717,34.444,34.444,0,0,0,7.544-5.629,77.377,77.377,0,0,0,6.041-5.959,2.036,2.036,0,0,0-.405-3.141q-3.076-2.183-6.147-4.376-1.989-1.419-3.977-2.843c-.453-.326-.907-.651-1.358-.978-.216-.156-1.165-.888-.36-.25a2.063,2.063,0,0,0-2.828,0,2.014,2.014,0,0,0,0,2.829c4.055,3.215,8.431,6.079,12.651,9.072l-.4-3.142a77.01,77.01,0,0,1-5.837,5.775,31.171,31.171,0,0,1-6.939,5.188l2.736.718a82.511,82.511,0,0,1-3.325-9.964c-.153-.5-.459-1.055-.561-1.557-.052-.256.06.144.066.064a1.5,1.5,0,0,1,.034-.359,3.357,3.357,0,0,1,.371-.905c.567-.862,1.36-1.647,2.008-2.452.663-.824,1.328-1.646,2.028-2.438C146.785,122.478,143.967,119.639,142.258,121.572Z"/><path class="b" d="M154.983,133.493v59.633c0,2.574,4,2.578,4,0V133.493c0-2.574-4-2.578-4,0Z"/><path class="g" d="M41.992,79.621l1.367-7.733c1.114-16.405,4.96-51.254,6.048-65.493a3.155,3.155,0,0,0-2.764-3.221,83.789,83.789,0,0,0-22.31-.755A61.569,61.569,0,0,0,3.909,7.778,2.866,2.866,0,0,0,2.1,11.2C6.726,26.5,18.835,59.467,24.115,73.881l2.927,6.36"/><path class="g" d="M271.974,79.621l-1.366-7.733c-1.115-16.405-4.96-51.254-6.048-65.493a3.154,3.154,0,0,1,2.763-3.221,83.789,83.789,0,0,1,22.31-.755,61.562,61.562,0,0,1,20.424,5.359,2.865,2.865,0,0,1,1.811,3.417C307.24,26.5,295.131,59.467,289.851,73.881l-2.927,6.36"/><path class="b" d="M201.018,136.762a365.616,365.616,0,0,0,49.939-27.272q6.733-4.392,13.267-9.079a2.057,2.057,0,0,0,.717-2.737,2.016,2.016,0,0,0-2.736-.717,365.734,365.734,0,0,1-48.686,29.45q-7.184,3.61-14.519,6.9a2.014,2.014,0,0,0-.718,2.736,2.049,2.049,0,0,0,2.736.718Z"/><path class="b" d="M199.8,179.315a440.067,440.067,0,0,0,63.543-46.093q8.335-7.266,16.292-14.95c1.856-1.791-.974-4.617-2.828-2.828a433.639,433.639,0,0,1-60.324,48.609q-9.2,6.141-18.7,11.808c-2.208,1.318-.2,4.778,2.019,3.454Z"/><path class="b" d="M114.894,133.308a365.734,365.734,0,0,1-49.939-27.272q-6.733-4.392-13.266-9.079a2.016,2.016,0,0,0-2.737.717,2.045,2.045,0,0,0,.718,2.737,365.67,365.67,0,0,0,48.686,29.45q7.182,3.611,14.519,6.9a2.061,2.061,0,0,0,2.736-.718,2.014,2.014,0,0,0-.717-2.736Z"/><path class="b" d="M34.249,118.272a439.749,439.749,0,0,0,61.194,49.273q9.209,6.143,18.72,11.81c2.216,1.322,4.23-2.135,2.019-3.454a433.752,433.752,0,0,1-62.794-45.494q-8.344-7.272-16.311-14.963c-1.853-1.788-4.686,1.037-2.828,2.828Z"/><path class="d" d="M32.808,80.769a13.862,13.862,0,0,0-2.523-.063c-2.47.134-4.515.65-6.119,2.392a7.592,7.592,0,0,0-1.842,4.874c0,6.256,0,7.535.356,13.841.228,4.029.352,8.374,2.734,11.535,2.276,3.02,6.078,4.3,9.722,4.658a13.906,13.906,0,0,0,7.47-1.067c.923.554,1.854,1.117,1.854,1.117.485.33,1.123.023,1.6-.314a17.877,17.877,0,0,0,7.014-11.908c.7-4.646-.079-6.325-1.087-11.647-.506-2.669-1.255-7.4-1.7-10.2A5.836,5.836,0,0,0,47.27,80.3a7.063,7.063,0,0,0-4.5-.337,29.494,29.494,0,0,0-5.265,1.967A17.263,17.263,0,0,0,32.808,80.769Z"/><path class="b" d="M30.372,78.706a11.66,11.66,0,0,0-5.749,1.454A9.131,9.131,0,0,0,21,85.06c-.707,2.111-.488,4.421-.481,6.614.006,1.677.024,3.354.07,5.031.116,4.316-.025,8.9,1.091,13.1A13.446,13.446,0,0,0,30,119.025c4.926,1.913,10.67.778,15.6-.548,2.484-.668,1.43-4.528-1.063-3.857-3.6.968-7.8,1.975-11.521,1.145a9.525,9.525,0,0,1-7.193-6.072c-1.186-3.523-1.047-7.425-1.174-11.1-.106-3.093-.13-6.185-.131-9.28,0-1.806.1-3.562,1.344-5,1.148-1.331,2.865-1.509,4.513-1.607,2.559-.153,2.576-4.154,0-4Z"/><path class="b" d="M30.372,82.706a13.245,13.245,0,0,1,1.982.013c.163.012.326.027.489.044l.248.028c.347.036-.118-.012-.154-.023.379.118.825.129,1.216.21a16.6,16.6,0,0,1,2.211.611c.162.057.32.12.48.18.406.153-.326-.155-.072-.031.075.037.151.068.226.1a9.513,9.513,0,0,1,.949.51c.145.09.284.188.425.284.257.175-.342-.293.022.026.105.092.206.188.3.289.058.059.109.132.17.188.171.154-.267-.4-.1-.131.076.122.152.246.227.369.2.333-.125-.474,0,0a1.389,1.389,0,0,0,.087.367c-.024-.024-.053-.588-.037-.218.005.122.018.244.024.366.014.3-.051.629-.014.917-.055-.421.075-.389.019-.163-.016.066-.028.134-.045.2a1.92,1.92,0,0,0-.058.192c-.024.169.265-.452.046-.118-.3.456.184-.19,0,.028-.017.019-.144.14-.146.138-.025-.032.452-.279.153-.125-.064.032-.133.074-.193.11-.29.178.122-.085.15-.058a5.662,5.662,0,0,0-.656.176c-.4.088.049.007.067,0a2.126,2.126,0,0,1-.521.042l-.911.076-1.918.167c-1.363.118-2.726.225-4.092.3a2,2,0,1,0,0,4c1.366-.073,2.729-.18,4.092-.3,1.344-.116,2.708-.177,4.043-.375A4.363,4.363,0,0,0,43.063,86.7a5.724,5.724,0,0,0-1.841-4.866,12.358,12.358,0,0,0-5.043-2.486,17.941,17.941,0,0,0-5.807-.641,2,2,0,0,0,0,4Z"/><path class="b" d="M38.11,91.12c.2.093.381.209.575.308.351.179-.216-.238.076.047a2.94,2.94,0,0,0,.349.348c.1.113.064.066-.1-.142.052.071.1.144.148.218.068.11.123.225.188.336.174.3-.139-.429.03.1.071.219.081.472.163.683q-.064-.519-.03-.2c.006.073.011.146.014.219.005.112,0,.223,0,.335,0,.376.132-.5.005-.04-.034.124-.068.248-.1.372-.1.369.21-.38.03-.069-.044.074-.231.31-.231.387,0-.134.308-.353.024-.045-.093.1-.217.186-.3.29q-.171.144.162-.121c-.069.05-.14.1-.212.143-.113.071-.232.127-.346.195-.328.194.383-.126-.1.044-.166.058-.335.108-.505.15s-.313.066-.471.1c.509-.1-.252.019-.352.028q-.591.054-1.181.1c-1.661.138-3.324.253-4.986.388a2,2,0,0,0,0,4c1.515-.123,3.031-.23,4.547-.352a14.4,14.4,0,0,0,4.822-.886,5.509,5.509,0,0,0,2.965-6.609,5.917,5.917,0,0,0-3.154-3.774,2.048,2.048,0,0,0-2.737.718,2.024,2.024,0,0,0,.718,2.736Z"/><path class="b" d="M31.888,106.287c1.452-.112,2.9-.212,4.358-.319a9.21,9.21,0,0,0,4.491-1.057,5.184,5.184,0,0,0,2.235-2.962,6.932,6.932,0,0,0,.111-3.439,5.833,5.833,0,0,0-2.63-3.654,2.016,2.016,0,0,0-2.736.718,2.043,2.043,0,0,0,.717,2.736c.066.041.13.083.193.127q.253.186-.139-.108a2.52,2.52,0,0,0,.313.3c.359.381-.165-.282.013,0,.073.112.148.222.213.34.1.186.154.543.006-.033.032.124.089.244.124.367s.059.249.088.374c.079.339-.051-.578-.008-.063a4.837,4.837,0,0,1,0,.742c-.036.507.082-.42.02-.086-.021.114-.041.228-.068.341-.05.213-.149.416-.2.627.129-.569.153-.341.044-.136-.044.083-.094.161-.141.241-.207.353.327-.316.12-.15-.095.076-.186.257-.3.288.216-.159.236-.177.06-.052-.077.052-.155.1-.236.146s-.159.088-.241.127q.411-.163.108-.046c-.168.053-.332.11-.5.151a2.014,2.014,0,0,0-.511.1c.318-.041.368-.05.147-.026l-.27.022-.58.044c-1.6.119-3.2.227-4.8.351a2,2,0,0,0,0,4Z"/><path class="b" d="M36.769,111.924a15.309,15.309,0,0,0,2.65-.507,5.306,5.306,0,0,0,3.607-6.164,4.516,4.516,0,0,0-2.14-2.9,2.02,2.02,0,0,0-2.736.717,2.041,2.041,0,0,0,.717,2.737,3.793,3.793,0,0,1,.334.229l-.405-.313a2.847,2.847,0,0,1,.433.438l-.313-.405a2.66,2.66,0,0,1,.3.53l-.2-.478a3.052,3.052,0,0,1,.184.716L39.131,106a3.193,3.193,0,0,1,0,.763l.071-.531a3.575,3.575,0,0,1-.233.861l.2-.478a3.545,3.545,0,0,1-.43.745l.313-.405a3.487,3.487,0,0,1-.615.611l.405-.313a3.75,3.75,0,0,1-.774.44l.477-.2a13.277,13.277,0,0,1-2.838.579,2,2,0,0,0-1.2.919,2.039,2.039,0,0,0-.2,1.541,2.017,2.017,0,0,0,.919,1.195,2.3,2.3,0,0,0,1.541.2Z"/><path class="b" d="M39.706,83.18a12.9,12.9,0,0,1,5.775-1.469c1.926.121,2.785,1.657,3.064,3.411.6,3.8,1.184,7.611,1.958,11.383.723,3.524,1.277,6.751.441,10.323a17.246,17.246,0,0,1-2.363,5.546,14.231,14.231,0,0,1-1.835,2.255,13.719,13.719,0,0,1-1.114,1.015,5.741,5.741,0,0,1-.491.371q-.583.319-.061.113a2.013,2.013,0,0,0-2.461,1.4,2.051,2.051,0,0,0,1.4,2.46c1.983.816,3.962-.993,5.289-2.263a18.9,18.9,0,0,0,3.606-4.822A21.757,21.757,0,0,0,55.4,101.625c-.221-3.554-1.258-7.063-1.856-10.566-.332-1.941-.645-3.886-.956-5.83a9.625,9.625,0,0,0-2.057-5.2c-3.376-3.92-8.851-2.034-12.844-.3a2.014,2.014,0,0,0-.718,2.737,2.052,2.052,0,0,0,2.737.717Z"/><path class="h" d="M138.852,192.651q-5.311-28.385-8.2-57.152c-.218-2.547-.683-5.723-.874-6.745-1.105.118-4.775.479-6.964.649-.594,29.642,3.189,58.363,6.964,87.77H116.238c-.041,5.529-.131,10.953-.236,15.941,40.846,0,81.76,0,81.76,0h.2c-.1-4.986-.193-10.41-.235-15.939h-13.51c3.774-29.407,7.557-58.128,6.963-87.77-2.189-.17-5.859-.531-6.963-.649-.192,1.022-.657,4.2-.875,6.745a676.029,676.029,0,0,1-13.268,81.676H143.912Q141.157,204.962,138.852,192.651Z"/><path class="d" d="M281.07,80.769a13.871,13.871,0,0,1,2.524-.063c2.47.134,4.514.65,6.118,2.392a7.593,7.593,0,0,1,1.843,4.874c0,6.256,0,7.535-.357,13.841-.227,4.029-.351,8.374-2.734,11.535-2.275,3.02-6.077,4.3-9.722,4.658a13.907,13.907,0,0,1-7.47-1.067c-.922.554-1.854,1.117-1.854,1.117-.484.33-1.123.023-1.6-.314a17.881,17.881,0,0,1-7.014-11.908c-.695-4.646.079-6.325,1.088-11.647.5-2.669,1.254-7.4,1.7-10.2a5.839,5.839,0,0,1,3.019-3.683,7.067,7.067,0,0,1,4.5-.337,29.486,29.486,0,0,1,5.264,1.967A17.281,17.281,0,0,1,281.07,80.769Z"/><path class="b" d="M283.594,82.706a6.725,6.725,0,0,1,4,1.1,5.61,5.61,0,0,1,1.856,3.94c.176,3.176.008,6.432-.087,9.611-.109,3.627.02,7.45-.833,11a9.473,9.473,0,0,1-6.32,7.064c-4.081,1.347-8.752.28-12.775-.8-2.489-.669-3.55,3.188-1.063,3.857,4.437,1.193,9.46,2.209,14.009,1.06a13.528,13.528,0,0,0,9.352-8.044c1.649-4.116,1.457-8.9,1.6-13.262q.087-2.607.109-5.215a42.233,42.233,0,0,0-.1-6.325,9.433,9.433,0,0,0-3.184-5.93c-1.9-1.547-4.183-1.914-6.561-2.055-2.572-.154-2.563,3.847,0,4Z"/><path class="b" d="M283.594,78.706a17.868,17.868,0,0,0-5.166.484,13.277,13.277,0,0,0-4.942,2.057,6.517,6.517,0,0,0-1.946,2.068,5.973,5.973,0,0,0-.649,2.814,5.534,5.534,0,0,0,.629,2.851,4.406,4.406,0,0,0,2.648,1.97,22.257,22.257,0,0,0,4.17.467c1.558.137,3.117.266,4.679.349a2.014,2.014,0,0,0,2-2,2.045,2.045,0,0,0-2-2c-2.341-.124-4.673-.363-7.01-.548-.115-.009-.232-.025-.348-.028-.3-.007.335.073.058.011-.2-.046-.407-.1-.611-.147-.235-.056-.014-.126.134.067a1.273,1.273,0,0,0-.2-.1,1.229,1.229,0,0,0-.182-.116c.622.178.118.243.095.047l-.066-.073.193.251s-.092-.141-.1-.164c-.228-.455.08.387-.007-.019a2.309,2.309,0,0,0-.1-.452c.017.032.041.529.037.209,0-.093-.011-.187-.013-.28-.008-.329.079-.7.043-1.019.054.489-.064.349.013.066.021-.074.055-.148.072-.223.051-.218-.236.444-.07.175.076-.122.145-.249.221-.371.211-.34-.335.343.029-.023.1-.1.192-.2.294-.292.052-.048.11-.092.161-.141.281-.27-.39.268-.06.044.256-.173.51-.342.78-.492.158-.087.32-.17.483-.249.074-.036.149-.069.223-.105.412-.2-.2.071-.016,0a20.033,20.033,0,0,1,2.171-.686q.638-.153,1.285-.261l.255-.041c.213-.032.437.039-.025,0a3.878,3.878,0,0,0,.62-.067,13.65,13.65,0,0,1,2.224-.033,2.01,2.01,0,0,0,2-2,2.049,2.049,0,0,0-2-2Z"/><path class="b" d="M273.838,87.666a6.058,6.058,0,0,0-3.185,6.991,5.519,5.519,0,0,0,2.569,3.181,10.945,10.945,0,0,0,4.632,1.047c1.72.144,3.442.262,5.163.4a2.008,2.008,0,0,0,2-2,2.052,2.052,0,0,0-2-2c-1.632-.133-3.265-.246-4.9-.38q-.636-.052-1.27-.11l-.379-.035q-.308-.033-.073,0c.275.046-.316-.071-.37-.084-.147-.037-.293-.078-.437-.126-.091-.031-.182-.064-.271-.1.261.112.293.123.1.031-.114-.068-.233-.125-.346-.195-.072-.045-.142-.093-.211-.143q.332.265.161.121c-.084-.1-.209-.189-.3-.29-.04-.042-.078-.086-.115-.132-.1-.117-.05-.058.139.177a1.443,1.443,0,0,0-.2-.338c-.246-.395.1.371,0,.02-.029-.106-.066-.21-.091-.318-.122-.532-.01.334-.006-.014,0-.112-.007-.223,0-.335,0-.072.053-.562,0-.173s.029-.11.047-.184c.027-.116.059-.231.1-.344.169-.524-.144.2.031-.1.064-.111.119-.226.188-.336.046-.074.095-.147.147-.218l-.146.193c-.01-.084.334-.343.394-.4.323-.3-.334.176.076-.047.192-.105.376-.215.575-.308a2.009,2.009,0,0,0,.718-2.736,2.054,2.054,0,0,0-2.736-.718Z"/><path class="b" d="M281.8,102.287c-1.695-.132-3.39-.259-5.084-.394-.093-.007-.185-.014-.278-.023-.216-.024-.16-.015.17.027a2.669,2.669,0,0,0-.488-.1q-.246-.058-.485-.141c-.079-.027-.158-.057-.236-.088q.425.183.133.044c-.036-.021-.42-.263-.43-.256q.354.287.11.082c-.062-.055-.122-.112-.18-.172-.162-.173-.127-.321.124.175-.038-.077-.1-.147-.141-.221s-.085-.168-.13-.25c-.146-.268.2.563.058.129a6.118,6.118,0,0,1-.177-.626c-.038-.179-.052-.6,0,.108-.008-.117-.024-.234-.031-.352a6.018,6.018,0,0,1,.016-.723c.023-.342-.106.579,0,.076.025-.122.055-.242.09-.361s.087-.236.125-.356c-.192.608-.087.213.006.048.063-.111.155-.215.21-.329-.215.271-.258.328-.128.169.044-.051.089-.1.136-.151a3.326,3.326,0,0,0,.306-.285c-.265.2-.314.237-.145.114.062-.043.124-.084.188-.124a2,2,0,1,0-2.019-3.454,5.934,5.934,0,0,0-2.508,3.215,6.8,6.8,0,0,0-.109,3.427,5.284,5.284,0,0,0,1.348,2.643,6.737,6.737,0,0,0,4.309,1.74c1.746.151,3.5.27,5.243.406a2.01,2.01,0,0,0,2-2,2.049,2.049,0,0,0-2-2Z"/><path class="b" d="M278.261,108.067a13.289,13.289,0,0,1-2.838-.579l.478.2a3.725,3.725,0,0,1-.774-.44l.4.313a3.521,3.521,0,0,1-.615-.611l.313.405a3.589,3.589,0,0,1-.43-.745l.2.478a3.578,3.578,0,0,1-.234-.861l.071.531a3.193,3.193,0,0,1,0-.763l-.072.532a3.052,3.052,0,0,1,.184-.716l-.2.478a2.66,2.66,0,0,1,.305-.53l-.313.405a2.892,2.892,0,0,1,.433-.438l-.4.313a3.635,3.635,0,0,1,.333-.229,2,2,0,0,0-2.019-3.454,4.672,4.672,0,0,0-2.058,2.578,5.077,5.077,0,0,0-.072,2.593,5.226,5.226,0,0,0,2.9,3.6,6.9,6.9,0,0,0,1.688.519q.831.142,1.663.277a2.18,2.18,0,0,0,1.542-.2,2,2,0,0,0,.717-2.736,1.94,1.94,0,0,0-1.195-.919Z"/><path class="b" d="M276.28,79.726c-3.489-1.515-8.093-3.278-11.568-.747-3.438,2.5-3.4,6.754-4.038,10.586-.6,3.621-1.53,7.21-1.988,10.85a21.5,21.5,0,0,0,1.706,11.088A19.634,19.634,0,0,0,264,117.048c1.374,1.482,3.726,3.853,5.95,2.937a2.065,2.065,0,0,0,1.4-2.46,2.013,2.013,0,0,0-2.46-1.4q.52.206-.062-.113a5.9,5.9,0,0,1-.491-.371,13.719,13.719,0,0,1-1.114-1.015,14.287,14.287,0,0,1-1.835-2.255,17.244,17.244,0,0,1-2.362-5.546c-.837-3.569-.283-6.8.44-10.323.774-3.771,1.353-7.582,1.958-11.383.278-1.744,1.218-3.2,3.1-3.375,1.981-.184,3.959.661,5.737,1.433A2.066,2.066,0,0,0,277,82.463a2.015,2.015,0,0,0-.717-2.737Z"/><path class="b" d="M43.921,80.153l1.012-5.728c.378-2.143.543-4.265.713-6.435.54-6.869,1.2-13.729,1.859-20.587C48.807,33.944,50.3,20.5,51.359,7.014a5.155,5.155,0,0,0-2.279-4.98C47.313.873,44.764.828,42.723.583a85.263,85.263,0,0,0-13.844-.5c-8.8.381-18.029,2-25.979,5.966A4.951,4.951,0,0,0,.02,10.864,20.643,20.643,0,0,0,1.185,15c.944,2.972,1.929,5.931,2.93,8.884,2.4,7.1,4.9,14.166,7.425,21.223q3.671,10.26,7.418,20.492c1.693,4.633,3.381,9.189,5.443,13.669l.914,1.986a2.016,2.016,0,0,0,2.737.718,2.046,2.046,0,0,0,.717-2.736L26.4,74.081l-.447-.971c-.034-.076-.073-.151-.105-.228.229.566-.033-.16-.11-.372l-1.32-3.6q-3.35-9.149-6.663-18.31c-4.574-12.677-9.2-25.364-13.2-38.235a10.386,10.386,0,0,1-.522-1.7c-.078-.653.333-.879.893-1.158a44.271,44.271,0,0,1,5.8-2.267A62.258,62.258,0,0,1,22.975,4.572a83.479,83.479,0,0,1,12.784-.514c2.255.078,4.509.237,6.751.5q1.506.175,3,.437c.638.111,1.567.182,1.846.893.324.826-.1,2.368-.171,3.246q-.165,1.965-.344,3.927-.413,4.55-.858,9.1c-.689,7.116-1.4,14.229-2.1,21.345-.668,6.84-1.33,13.681-1.913,20.528q-.184,2.18-.356,4.359-.071.9-.137,1.8c-.024.327-.055.654-.07.981-.011.242-.051.748.015.219-.245,1.973-.7,3.942-1.043,5.9l-.317,1.794a2.058,2.058,0,0,0,1.4,2.46,2.019,2.019,0,0,0,2.461-1.4Z"/><path class="b" d="M273.9,79.09l-.974-5.51c-.128-.725-.295-1.454-.386-2.184.046.367.034.139.015-.219-.014-.285-.04-.571-.061-.856q-.075-1.032-.156-2.064c-.507-6.489-1.121-12.97-1.744-19.449-1.273-13.224-2.7-26.436-3.816-39.674-.073-.861-.52-2.509-.148-3.3.284-.6,1.045-.7,1.622-.8,1.06-.2,2.13-.347,3.2-.472a85.508,85.508,0,0,1,13.424-.482,73.216,73.216,0,0,1,12.43,1.542A47.3,47.3,0,0,1,309.2,9.583c1.244.654.553,1.693.216,2.778q-.607,1.95-1.241,3.89-1.446,4.449-2.968,8.871c-2.338,6.834-4.75,13.643-7.187,20.443q-3.48,9.7-7.025,19.384-1.382,3.782-2.768,7.561c-.046.127-.377,1.027-.11.372-.026.063-.058.124-.086.186-.164.371-.339.737-.508,1.105l-1.509,3.277-.82,1.782a2.059,2.059,0,0,0,.718,2.736,2.016,2.016,0,0,0,2.736-.718c1.757-3.817,3.4-7.584,4.848-11.531q3.547-9.687,7.051-19.391,3.856-10.7,7.593-21.453,1.662-4.816,3.267-9.653.7-2.109,1.371-4.226a20.646,20.646,0,0,0,1.166-4.132,4.979,4.979,0,0,0-3.085-4.9,63.6,63.6,0,0,0-6.357-2.515A66.144,66.144,0,0,0,291.654.654,84.224,84.224,0,0,0,277.988.066c-2.325.085-4.648.259-6.957.543-2.041.25-4.546.3-6.282,1.519-2.925,2.055-2.1,5.542-1.832,8.586q.4,4.536.837,9.066c.707,7.375,1.447,14.746,2.171,22.119.709,7.226,1.412,14.454,2.032,21.688.25,2.92.271,5.939.722,8.833.3,1.915.675,3.82,1.012,5.728l.355,2.005a2.017,2.017,0,0,0,2.46,1.4,2.046,2.046,0,0,0,1.4-2.46Z"/><path class="b" d="M121.344,98.886c-1.1,5.26.953,10.9,4.209,15.036,3.365,4.271,8.548,6.233,13.86,6.536,2.572.146,2.563-3.854,0-4-4.169-.238-8.21-1.785-10.847-5.132-2.38-3.022-4.173-7.514-3.365-11.376a2.048,2.048,0,0,0-1.4-2.461,2.021,2.021,0,0,0-2.46,1.4Z"/><path class="b" d="M188.754,99.95c.846,3.853-1.045,8.431-3.512,11.376a15.252,15.252,0,0,1-10.789,5.1,2.05,2.05,0,0,0-2,2,2.016,2.016,0,0,0,2,2c5.242-.414,10.425-2.308,13.809-6.506,3.31-4.106,5.51-9.747,4.349-15.036-.551-2.513-4.408-1.449-3.857,1.064Z"/><path class="b" d="M116.424,219.173h13.358a2.009,2.009,0,0,0,2-2c-2.906-22.635-5.876-45.3-6.759-68.128q-.381-9.816-.2-19.642l-2,2q3.486-.276,6.964-.649l-1.929-1.469c.9,4.939,1.175,10,1.739,14.982q1.024,9.03,2.286,18.029,2.475,17.711,5.882,35.273,1.959,10.1,4.224,20.138a2.022,2.022,0,0,0,1.928,1.468h26.163A2.029,2.029,0,0,0,172,217.707,682.976,682.976,0,0,0,184.127,146.7c.677-5.787.978-11.68,2.019-17.416l-1.928,1.469q3.476.368,6.963.649l-2-2c.439,22.839-1.73,45.6-4.494,68.25-.794,6.51-1.634,13.015-2.469,19.52a2.016,2.016,0,0,0,2,2h13.324c2.574,0,2.578-4,0-4H184.218l2,2c2.905-22.635,5.875-45.3,6.759-68.128q.379-9.816.2-19.642a2.049,2.049,0,0,0-2-2q-3.486-.276-6.963-.649a2,2,0,0,0-1.929,1.468c-.9,4.972-1.211,10.054-1.772,15.072q-1.006,8.983-2.253,17.939-2.477,17.71-5.887,35.273-1.962,10.1-4.231,20.137l1.929-1.468H143.912l1.929,1.469a675.343,675.343,0,0,1-12.081-70.916c-.673-5.822-1-11.735-2.05-17.506a2,2,0,0,0-1.928-1.468q-3.477.367-6.964.649a2.047,2.047,0,0,0-2,2c-.439,22.839,1.73,45.6,4.494,68.25.8,6.51,1.635,13.015,2.47,19.52l2-2H116.424c-2.574,0-2.578,4,0,4Z"/><path class="a" d="M128.51,159.319c1.318,5.706,2.875,12.293,4.209,17.969a2.253,2.253,0,0,0,2.864,1.639c3.041-.94,7.129-2.232,9.865-3.106a2.262,2.262,0,0,0,1.482-2.777c-1.625-5.711-3.151-11.186-4.814-17.1a2.263,2.263,0,0,0-2.713-1.592c-2.877.706-6.523,1.623-9.216,2.264A2.254,2.254,0,0,0,128.51,159.319Z"/><path class="b" d="M126.582,159.851q1.935,8.375,3.919,16.739a6.163,6.163,0,0,0,1.4,3.19A4.281,4.281,0,0,0,135.269,181a18.284,18.284,0,0,0,3.762-1.054q1.926-.6,3.851-1.213c2.224-.7,4.964-1.131,5.865-3.608a5.44,5.44,0,0,0-.145-3.514q-.665-2.34-1.324-4.683-1.232-4.372-2.455-8.746c-.713-2.543-1.3-5.554-4.466-5.858a13.34,13.34,0,0,0-4.278.787q-2.274.563-4.55,1.122c-1.381.337-2.822.54-3.866,1.6a4.482,4.482,0,0,0-1.081,4.016,2.015,2.015,0,0,0,2.46,1.4,2.051,2.051,0,0,0,1.4-2.461c.025.163-.014-.071.1-.163a2.507,2.507,0,0,1,.9-.254q1.6-.384,3.189-.779l2.926-.725c.6-.148,1.942-.767,2.53-.556-.021-.007-.005.007.1.165a6.153,6.153,0,0,1,.456,1.623q.48,1.71.959,3.419.939,3.35,1.881,6.7.439,1.558.88,3.117c.154.542.871,1.976.608,2.483-.12.23-1.1.411-1.527.546l-2.767.877-2.71.852-1.5.47a4.58,4.58,0,0,1-1.413.439c-.426-.066-.379-.141-.5-.65q-.37-1.567-.738-3.136-1.7-7.21-3.375-14.426C129.86,156.28,126,157.341,126.582,159.851Z"/><path class="b" d="M112.9,169.939c0,5.714.51,11.43.808,17.133.36,6.913.517,13.828.547,20.749.053,12.1-.2,24.2-.515,36.3-.095,3.644-.215,7.288-.268,10.933a7.682,7.682,0,0,0,.061,1.781,3.205,3.205,0,0,0,3,2.43c.374.03.753.027,1.128.035,4.6.095,9.2.087,13.805.1q23,.084,46,.015c5.567-.014,11.135-.025,16.7-.088,1.089-.012,2.2.025,3.285-.068a3.2,3.2,0,0,0,2.977-2.428,8.35,8.35,0,0,0,.058-1.93c-.025-1.577-.066-3.153-.106-4.73-.28-10.9-.571-21.806-.655-32.713-.051-6.5-.04-13.011.106-19.514.155-6.927.605-13.838.976-20.755.129-2.414.251-4.832.254-7.251,0-2.574-4-2.578-4,0,0,5.565-.491,11.131-.785,16.685-.359,6.783-.528,13.568-.567,20.361-.066,11.856.167,23.712.471,35.564.1,3.85.217,7.7.291,11.55.011.536-.032,1.1.025,1.631.008.072-.014.168,0,.241v.114q-.038.816.952-.825c-.051-.022-.142.02-.2.011a7.684,7.684,0,0,0-1.338.033c-4.683.082-9.368.082-14.051.1q-22.458.078-44.917.014c-5.565-.014-11.13-.025-16.7-.084a18.8,18.8,0,0,0-3.571-.063c-.05.01-.132-.03-.178-.01l.951.935v-.167a1.743,1.743,0,0,0,0-.3c.06-.59.016-1.21.028-1.8.033-1.666.077-3.332.121-5,.285-10.9.562-21.811.631-32.721.041-6.386.024-12.774-.136-19.158-.169-6.749-.619-13.483-.974-20.223-.121-2.293-.232-4.589-.234-6.886,0-2.574-4-2.578-4,0Z"/><path class="b" d="M116.205,235.112h81.557c2.574,0,2.578-4,0-4H116.205c-2.574,0-2.579,4,0,4Z"/></svg>