<?xml version="1.0" encoding="utf-8"?>
<!-- Uploaded to: SVG Repo, www.svgrepo.com, Generator: SVG Repo Mixer Tools -->
<svg width="800px" height="800px" viewBox="0 -0.9 364.199 364.199" xmlns="http://www.w3.org/2000/svg"><defs><style>.a{fill:#ffffff;}.b{fill:#7a7473;}.c{fill:#211715;}.d{fill:#6dbf6b;}.e{fill:#bdbdbd;}</style></defs><path class="a" d="M179.437,192.464c-1-.4-3.787-1.666-4.155-1.8-5.552-2-5.333-5.575-6.033-9.569a78.143,78.143,0,0,1-1.233-13.109c12.929-7.66,22.969-24.624,24.852-29.734.31-.942.942-2.717,1.5-4.823l1.174-.182a14.741,14.741,0,0,0,6.859-3.092,22.229,22.229,0,0,0,5.753-7.55,35.005,35.005,0,0,0,3.569-18.554,11.68,11.68,0,0,0-1.223-4.7,8.259,8.259,0,0,0-5.94-3.949,8.747,8.747,0,0,0-7,2.048s2-48.03-57.765-48.03c-50,0-59.035,33.4-59.627,44.549a32.33,32.33,0,0,0-.028,3.481,8.751,8.751,0,0,0-7-2.048,8.261,8.261,0,0,0-5.94,3.949,11.68,11.68,0,0,0-1.223,4.7,35.005,35.005,0,0,0,3.569,18.554,22.254,22.254,0,0,0,5.753,7.55,14.746,14.746,0,0,0,6.859,3.092s.845.13,2.236.341a59.521,59.521,0,0,0,11.344,22.146,53.167,53.167,0,0,0,14.61,12.512,78.79,78.79,0,0,1-1.233,12.849c-.7,3.994-.481,7.564-6.034,9.569-.367.133-3,1.3-4.155,1.8,0,0,2.172,21.364,37.728,21.364S179.437,192.464,179.437,192.464Z"/><path class="b" d="M122.856,3.062C109.775,4.554,96.313,9.262,85.4,20.243L90.625,24.7c-8.9,5.5-15.892,16.155-19.1,25.587-3.779,11.1-4.907,26.889-.42,45.547l.032.137a8.217,8.217,0,0,1,2.011-.568,8.751,8.751,0,0,1,7,2.048l7.5-4.468.616-.368c15.864-14.845,24.709-20.991,38.927-32.161.087.99,3.257,8.915,4,9.217.913.372,10.078-5.294,17.537-9.9L161.316,61.3c5.783,1.265,11.21,4.407,16.1,8.611,8.662,7.454,15.628,18.247,19.875,27.849a8.566,8.566,0,0,1,7.277-2.356,8.236,8.236,0,0,1,1.525.379c4.35-11.175,4.987-27.364-.506-42.723-3.862-10.8-13.071-22.091-20.331-25.268l-8.572-6.109C168.268,10.159,154.247,3.094,136.3,2.545A93.614,93.614,0,0,0,122.856,3.062Z"/><path class="c" d="M199.262,99.149a6.26,6.26,0,0,1,8.793.814c1.144,1.509,1.276,3.6,1.362,5.416a31.6,31.6,0,0,1-.349,6.648c-1.3,7.825-5.436,17.417-14.159,18.907a2.419,2.419,0,0,0-1.676,2.952,2.455,2.455,0,0,0,2.952,1.676c8.8-1.5,14.009-9.8,16.442-17.716a36.824,36.824,0,0,0,1.566-12.91c-.252-4.221-1.441-8.154-5.25-10.461a11.237,11.237,0,0,0-13.075,1.28,2.421,2.421,0,0,0,0,3.394,2.449,2.449,0,0,0,3.394,0Z"/><path class="c" d="M193.057,126.734a30.072,30.072,0,0,1-1.477,7.732c-.26.859-.544,1.71-.83,2.561-.091.271-.187.539-.28.809-.028.079-.065.155-.093.234-.159.438.216-.482.028-.065a60.1,60.1,0,0,1-3.909,7.144,69.813,69.813,0,0,1-15.631,18,29.782,29.782,0,0,1-11.563,5.84c-3.009.689-1.736,5.318,1.276,4.628,8.673-1.988,15.937-8.232,21.667-14.763a75.392,75.392,0,0,0,12.119-18.011,37.9,37.9,0,0,0,3.493-14.107c.1-3.089-4.7-3.086-4.8,0Z"/><path class="c" d="M81.842,95.755a11.211,11.211,0,0,0-11.508-2.037c-4.138,1.689-6.146,5.234-6.667,9.528a35.806,35.806,0,0,0,6.139,24.465c2.852,3.935,6.837,7.018,11.718,7.851a2.47,2.47,0,0,0,2.952-1.676,2.419,2.419,0,0,0-1.676-2.952c-8.722-1.49-12.856-11.082-14.159-18.907a31.489,31.489,0,0,1-.358-6.427c.075-1.836.18-3.931,1.273-5.489a6.232,6.232,0,0,1,8.892-.962,2.462,2.462,0,0,0,3.394,0,2.421,2.421,0,0,0,0-3.394Z"/><path class="c" d="M80.2,125.832a70.148,70.148,0,0,0,8.967,24.845c5.082,8.264,12.425,15.728,21.074,20.238a40.607,40.607,0,0,0,14.693,4.405,2.415,2.415,0,0,0,2.4-2.4,2.454,2.454,0,0,0-2.4-2.4c-17.661-1.822-31.407-17.633-36.955-33.544a78.238,78.238,0,0,1-3.151-12.42,2.419,2.419,0,0,0-2.952-1.676,2.454,2.454,0,0,0-1.676,2.952Z"/><path class="c" d="M184.041,29.865a27.947,27.947,0,0,1,8.9,7.008,54.355,54.355,0,0,1,7.974,11.511c4.644,8.919,6.483,19.458,6.179,29.451a54.307,54.307,0,0,1-2.551,15.158c-.956,2.945,3.677,4.206,4.629,1.276,3.225-9.934,3.43-20.761,1.606-30.986A59.713,59.713,0,0,0,197.629,34.95c-3.071-3.635-6.769-7.257-11.165-9.23a2.475,2.475,0,0,0-3.284.861,2.42,2.42,0,0,0,.861,3.284Z"/><path class="c" d="M94.869,19.985C84.412,23.9,76.651,33.346,71.893,43.159c-4.651,9.591-6.3,20.315-6.092,30.91a105.752,105.752,0,0,0,2.985,22.4c.716,3,5.345,1.732,4.629-1.276-4.858-20.395-4.5-43.765,9.621-60.567,3.541-4.212,7.89-8.063,13.109-10.016a2.466,2.466,0,0,0,1.676-2.952,2.419,2.419,0,0,0-2.952-1.677Z"/><path class="c" d="M151.294,55.366c-5.007,3.073-9.971,6.219-15.048,9.177-1.014.59-2.032,1.174-3.066,1.729-.405.218-.813.432-1.225.635-.16.079-.322.155-.483.231-.294.14-.489.168-.042.026a1.524,1.524,0,0,0-.379.134c-.145.18-.418-.159.034.024a8.12,8.12,0,0,1,1.678.556c.127.1.3.492.042.018-.436-.805-.842-1.617-1.215-2.455-.439-.987-.842-1.975-1.289-3.164-.175-.464-.346-.928-.5-1.4-.1-.294-.347-1.5-.208-.424a2.44,2.44,0,0,0-4.1-1.7c-10,7.848-20.177,15.447-29.741,23.827q-4.983,4.365-9.8,8.91c-2.258,2.118,1.141,5.507,3.394,3.394,9.786-9.18,20.086-17.663,30.7-25.863q4.433-3.425,8.847-6.874l-4.1-1.7a25.042,25.042,0,0,0,2.185,6.325c.762,1.794,1.682,4.923,3.935,5.261,1.772.266,3.743-1.1,5.224-1.914,2.7-1.483,5.335-3.088,7.965-4.693,3.213-1.961,6.408-3.954,9.617-5.923,2.628-1.613.22-5.766-2.423-4.145Z"/><path class="c" d="M160.678,63.614c8.3,1.88,15.156,7.381,20.724,13.6a83.423,83.423,0,0,1,13.382,20.8,2.419,2.419,0,0,0,3.284.861,2.456,2.456,0,0,0,.861-3.283,87.187,87.187,0,0,0-14.418-22.083c-6.035-6.66-13.643-12.5-22.557-14.52-3.008-.682-4.292,3.945-1.276,4.628Z"/><path class="c" d="M107.948,168.682a74.773,74.773,0,0,1-.807,9.719,52.425,52.425,0,0,1-1.122,6.43,5.12,5.12,0,0,1-.784,1.685,5.808,5.808,0,0,1-2.3,1.645c-1.729.758-3.481,1.473-5.212,2.231a2.415,2.415,0,0,0-.861,3.283,2.46,2.46,0,0,0,3.284.861c1-.439,2.007-.882,3.012-1.317.215-.093.428-.187.644-.277-.187.078-.369.14-.075.037a15.86,15.86,0,0,0,2.1-.906,9.527,9.527,0,0,0,4.678-5.494,39.887,39.887,0,0,0,1.232-6.674,84.409,84.409,0,0,0,1.014-11.223c.061-3.09-4.739-3.09-4.8,0Z"/><path class="c" d="M165.62,168.682a84.241,84.241,0,0,0,1.013,11.223,36.449,36.449,0,0,0,1.315,6.905,9.62,9.62,0,0,0,5.065,5.5c.413.193.837.368,1.261.534.162.063.861.341.111.027.384.161.764.333,1.145.5,1.085.479,2.169.964,3.269,1.41a2.414,2.414,0,0,0,2.952-1.676,2.458,2.458,0,0,0-1.676-2.952c-.562-.229.519.226-.207-.086-.206-.088-.411-.178-.616-.268q-.714-.312-1.425-.628c-.772-.34-1.559-.648-2.334-.982a6.011,6.011,0,0,1-2.277-1.571,4.756,4.756,0,0,1-.867-1.784,51.27,51.27,0,0,1-1.087-6.2,74.792,74.792,0,0,1-.842-9.947c-.061-3.085-4.861-3.095-4.8,0Z"/><path class="c" d="M178.753,20.472C170.777,9.635,158.632,3.107,145.446,1.018c-13.412-2.125-28.13-.98-40.823,3.965A60.56,60.56,0,0,0,83.705,18.546c-2.188,2.186,1.2,5.581,3.394,3.394,9.478-9.469,22.021-14.823,35.236-16.416,12.543-1.513,26.034-.8,37.468,5.017A41.858,41.858,0,0,1,174.608,22.9a2.474,2.474,0,0,0,3.284.861,2.418,2.418,0,0,0,.861-3.284Z"/><path class="c" d="M128.774,144.227a22.9,22.9,0,0,0,11.03,2.543c3.9-.025,7.9-.768,11.025-3.206a2.414,2.414,0,0,0,0-3.395,2.462,2.462,0,0,0-3.394,0c.694-.54.039-.046-.139.068-.226.145-.46.28-.7.405-.141.074-.923.42-.384.2q-.476.192-.964.35a17.6,17.6,0,0,1-5.808.776,18.357,18.357,0,0,1-5.545-.747c-.353-.105-.7-.231-1.045-.351-.114-.039-.224-.089-.337-.131.589.218.075.033-.037-.019q-.648-.3-1.28-.639a2.452,2.452,0,0,0-3.284.861,2.426,2.426,0,0,0,.861,3.283Z"/><path class="c" d="M138.828,117.926a52.874,52.874,0,0,1,1.248,5.71l-.085-.638a3.463,3.463,0,0,1,.021.788l.086-.638a1.978,1.978,0,0,1-.087.355l.242-.574a1.481,1.481,0,0,1-.125.228l.375-.486a1.156,1.156,0,0,1-.186.184l.485-.375a3.482,3.482,0,0,1-.452.239l.573-.242a3.316,3.316,0,0,1-.762.223l.638-.086a3,3,0,0,1-.715,0l.638.086c-.27-.038-.535-.1-.805-.14a2.655,2.655,0,0,0-1.849.242,2.4,2.4,0,0,0-.861,3.284,2.3,2.3,0,0,0,1.434,1.1c.567.076,1.118.222,1.7.247a5.321,5.321,0,0,0,2.437-.571,3.4,3.4,0,0,0,1.92-2.257,5.857,5.857,0,0,0-.027-2.49c-.311-1.839-.736-3.663-1.209-5.467a2.4,2.4,0,0,0-4.629,1.276Z"/><path class="c" d="M108.129,101.9c-.954,3.1-.332,10.226,5.538,10.833,7.759-.047,8.172-8.664,5.56-12.716C117.089,96.7,110.8,95.316,108.129,101.9Z"/><path class="c" d="M170.261,101.9c.953,3.1.332,10.226-5.538,10.833-7.759-.047-8.172-8.665-5.56-12.717C161.3,96.7,167.589,95.316,170.261,101.9Z"/><path class="d" d="M2.367,360C8.561,327.629,17.6,274.838,29.136,243.963a68.52,68.52,0,0,1,5.2-11.647c4.648-7.686,12.092-13.222,19.605-18.144A250.143,250.143,0,0,1,98.31,191.083c.319-1.908,5.694-11.862,7.481-16.476.124-.32.288-.678.617-.775.358-.106.713.154,1,.4,3.173,2.725,20.59,16.913,22.458,19.2.643,2.164,1.753,5.023,3.62,10.889,1.507,3.573,4.211,10.228,5.66,13.349,2.082-4.365,4.795-10.811,6.949-15.995,1.041-3.169,1.878-6.718,2.332-8.243,1.868-2.289,19.285-16.477,22.458-19.2.284-.244.638-.5,1-.4.328.1.492.455.616.775,1.777,4.587,7.1,14.449,7.476,16.434a250.31,250.31,0,0,1,44.466,23.132c7.51,4.92,14.95,10.46,19.6,18.14,2.2,3.65,3.3,9.04,4.79,13.03,1.594,4.286,5.9,16.681,9.137,24.793a394.307,394.307,0,0,0,18.651-37.579.876.876,0,0,1,1.307-.421c1.209.854,2.56,1.739,4.029,2.636.745.464,1.523.94,2.333,1.4a148.977,148.977,0,0,0,19.951,9.668c.021.021.032.021.043.021,1.674.659,3.327,1.264,4.915,1.793,1.642.54,3.022,1.2,4.7,1.857a2.938,2.938,0,0,1,1.5,3.361c-3.52,8.641-14.206,37.125-18.052,44.2-7.907,14.561-20.156,37.039-33.95,38.508-7.982.854-14.139-2.1-21.128-7.172a84.728,84.728,0,0,1-24.251-27.539q-.267,4.762-.356,9.533c-.311,16.606-.017,28.018-.017,49.6Z"/><path class="c" d="M218.525,274.022a272.427,272.427,0,0,0-3.306,38.652c-.148,9.312-.1,18.625-.046,27.937q.057,9.7.068,19.391c0,3.088,4.8,3.093,4.8,0,0-10.508-.106-21.015-.124-31.522-.018-10.531,0-21.081.75-31.589q.775-10.845,2.486-21.593a2.474,2.474,0,0,0-1.676-2.952,2.419,2.419,0,0,0-2.952,1.676Z"/><path class="c" d="M97.856,188.688a255.092,255.092,0,0,0-42.61,21.783c-6.182,3.945-12.4,8.118-17.463,13.47a41.327,41.327,0,0,0-6.533,8.948,87.336,87.336,0,0,0-4.534,10.721,313.393,313.393,0,0,0-10.281,35.075c-3.222,13.237-6.007,26.579-8.64,39.944C5.384,330.865,3.128,343.13.81,355.384q-.376,1.989-.757,3.98a2.464,2.464,0,0,0,1.676,2.952,2.423,2.423,0,0,0,2.953-1.676c2.243-11.731,4.39-23.48,6.661-35.2,2.554-13.182,5.232-26.343,8.279-39.42,2.806-12.042,5.873-24.062,9.831-35.783,2.131-6.312,4.273-12.912,8.073-18.441,3.921-5.7,9.532-10.08,15.2-13.933a244.22,244.22,0,0,1,41.007-22.315c1.789-.767,3.59-1.5,5.4-2.227a2.474,2.474,0,0,0,1.677-2.952,2.417,2.417,0,0,0-2.953-1.676Z"/><path class="c" d="M179.24,193.313a246.68,246.68,0,0,1,45.026,23.614c6.162,4.094,12.335,8.694,16.578,14.858,2.143,3.113,3.239,6.53,4.334,10.113.8,2.6,1.734,5.153,2.654,7.716,2.539,7.078,5.037,14.176,7.822,21.163a2.473,2.473,0,0,0,2.952,1.676,2.416,2.416,0,0,0,1.676-2.952c-2.579-6.471-4.911-13.04-7.261-19.6-.9-2.512-1.87-5.008-2.678-7.551-1.171-3.686-2.112-7.555-4.047-10.938-3.973-6.946-10.386-12.243-16.853-16.76a226.052,226.052,0,0,0-22.026-13.427,256.921,256.921,0,0,0-26.9-12.543,2.416,2.416,0,0,0-2.952,1.676,2.456,2.456,0,0,0,1.676,2.952Z"/><path class="c" d="M56.291,275.3a265.242,265.242,0,0,1,3.141,37.748c.142,9.251.092,18.5.038,27.755q-.055,9.6-.067,19.2c0,3.088,4.8,3.093,4.8,0,0-10.622.109-21.244.125-31.866.015-10.662-.013-21.343-.8-31.981-.551-7.41-1.434-14.795-2.6-22.133a2.418,2.418,0,0,0-2.952-1.676,2.458,2.458,0,0,0-1.677,2.952Z"/><path class="c" d="M141.216,216.459c-.981-2.124-1.88-4.286-2.781-6.444-.968-2.319-2.093-4.637-2.861-7.029-.812-2.529-1.673-5.041-2.533-7.554-.5-1.453-.8-3.019-1.893-4.146-2.084-2.152-4.476-4.046-6.756-5.981q-4.719-4-9.493-7.939-1.92-1.593-3.839-3.187c-1.072-.893-2.306-2.287-3.659-2.66-2.072-.57-3.323.968-4,2.653-.22.543-.076.207-.321.77q-.333.765-.684,1.523c-.969,2.107-2,4.188-3.009,6.275-.873,1.794-1.757,3.586-2.543,5.421-.536,1.252-1.2,2.577-.8,3.967a17.889,17.889,0,0,0,1.715,3.47c1.031,1.855,2.117,3.679,3.225,5.489a114.734,114.734,0,0,0,9.424,13.839,3.712,3.712,0,0,0,4.55,1c1.6-.841,2.274-3,3.057-4.525q2.432-4.741,4.922-9.453c1.446-2.728-2.7-5.156-4.144-2.423q-2.014,3.8-3.984,7.625-.862,1.677-1.721,3.356l-.512,1c-.576,1.126-.441.232,1.028.073.555-.06.383.382.2-.043a2.975,2.975,0,0,0-.358-.462c-2.719-3.559-5.169-7.333-7.533-11.134-1.775-2.856-3.58-5.741-5.073-8.758-.085-.171-.156-.355-.25-.522-.162-.288.159.61.053.1-.059-.285.058.6.057.507,0-.281-.269.592-.047.334a2.4,2.4,0,0,0,.184-.6c.1-.273.207-.541.317-.809-.2.481.178-.392.238-.526.388-.861.793-1.715,1.2-2.566.983-2.05,1.992-4.087,2.972-6.139.472-.989.94-1.981,1.387-2.982a19.643,19.643,0,0,1,1.253-2.765l-.861.861.278-.173-1.211.328.355,0-1.212-.328a1.494,1.494,0,0,1,.614.41c.234.2.47.4.7.593q.978.818,1.96,1.632,2.591,2.151,5.182,4.3c3.67,3.052,7.347,6.1,10.932,9.253a29.159,29.159,0,0,1,3.222,3.033l-.617-1.059a189.4,189.4,0,0,0,9.522,24.811,2.419,2.419,0,0,0,3.284.861,2.456,2.456,0,0,0,.861-3.283Z"/><path class="c" d="M141.216,218.881c1.983-4.174,3.782-8.436,5.573-12.7a57.744,57.744,0,0,0,2.387-6.387c.548-1.9,1.008-3.828,1.562-5.728l-.617,1.059a24.837,24.837,0,0,1,2.672-2.547c1.617-1.437,3.264-2.84,4.915-4.238,3.694-3.128,7.424-6.214,11.15-9.306q1.122-.932,2.242-1.865.438-.366.875-.733a2.756,2.756,0,0,1,.76-.534l-1.211.328.355,0-1.212-.328.279.173-.861-.861a39.752,39.752,0,0,1,2.3,5.039c.866,1.832,1.761,3.651,2.645,5.474q.645,1.326,1.275,2.66.249.528.491,1.058l.243.541c.047.1.3.707.094.206.177.426.291.887.476,1.305.1.226-.038.557-.022-.295,0,.23-.057.22.072-.5-.079.441-.007.028.06-.1a154.648,154.648,0,0,1-11.935,19.2c-.31.424-.623.847-.942,1.265-.048.063-.218.259-.268.347q-.135.173-.271.343.835-.582,1.723.361c.1-.342-.832-1.627-1.027-2.008q-.528-1.03-1.057-2.06-2.2-4.279-4.449-8.532c-1.447-2.73-5.592-.308-4.145,2.423q2.2,4.161,4.356,8.349c1.251,2.434,2.463,6.663,5.99,5.95,2.294-.464,3.733-3.3,5-5.081,1.443-2.025,2.823-4.095,4.167-6.186,2.214-3.445,4.389-6.943,6.309-10.562a7.4,7.4,0,0,0,1.214-3.178c.007-1.405-.839-2.867-1.4-4.1-1.742-3.853-3.722-7.594-5.456-11.452-.146-.326-.455-1.032-.5-1.15-.064-.154-.363-.972-.537-1.3a3.152,3.152,0,0,0-4.826-1.078c-.961.677-1.835,1.515-2.737,2.266-5.685,4.73-11.431,9.4-16.986,14.279-.978.86-1.985,1.713-2.883,2.659a5.214,5.214,0,0,0-1.226,2.4c-.392,1.448-.763,2.9-1.173,4.345a79.386,79.386,0,0,1-3.63,9.455c-1.276,2.986-2.572,5.965-3.965,8.9a2.466,2.466,0,0,0,.861,3.283,2.421,2.421,0,0,0,3.284-.861Z"/><path class="c" d="M136.743,217.67q0,31.721.223,63.441.163,29.432.354,58.862c.037,6.676.081,13.352.081,20.029,0,3.088,4.8,3.093,4.8,0,0-14.507-.133-29.014-.223-43.52q-.2-32.22-.353-64.441-.07-17.185-.082-34.371c0-3.089-4.8-3.094-4.8,0Z"/><path class="a" d="M294.757,179.935a6.462,6.462,0,0,1,3.832-3.108c3.235-.884,6.654,1.423,8.176,4.411l24.048,7.118c2.15-1.2,5.612.194,7.208,2.386,1.312,1.8,1.6,5.452.736,6.674l-2.143,3.033.593-.28c2.449-1.155,5.116.334,6.656,2.482a5.9,5.9,0,0,1-.568,7.2,16.944,16.944,0,0,1-5.355,3.957c2.016-.68,3.437-1.157,3.437-1.157,3.65-1.223,8.215,2.776,7.448,6.408-.589,2.788-3.244,4.775-5.767,6.331a20.79,20.79,0,0,1-6.731,3,7.552,7.552,0,0,1-2.421.044c-6.423,2.931-13.8,8.981-20.117,12.756-1.724,1.031-2.657,3.291-3.96,4.706,0,0-.547.594-1.385,1.51-1.356-.466-2.753-.984-4.166-1.54-.011,0-.022,0-.043-.021a148.977,148.977,0,0,1-19.951-9.668c-.81-.464-1.588-.94-2.333-1.4-.961-.586-1.87-1.168-2.719-1.734,3.772-3.462,5.645-6.756,6.328-9.569,1.37-5.635,1.1-11.754,2.854-17.282a98.4,98.4,0,0,0,4.214-19.115A19.022,19.022,0,0,1,294.757,179.935Z"/><path class="e" d="M310.716,206.169c-2.391,5.557-6.853,5.667-8.366,5.039a5.855,5.855,0,0,1-2.68-7.227c12.655-35.528,48.8-144.234,50.285-147.569,1.391-3.118,5.308-5.284,8.018-4.289,3.395,1.245,4.261,5.984,3.722,8.341C359.392,70.542,310.854,205.848,310.716,206.169Z"/><path class="c" d="M216.353,302.8a89.682,89.682,0,0,0,18.489,22.753c7.237,6.293,15.885,12.583,25.888,12.574a20.831,20.831,0,0,0,10.754-2.9,38.771,38.771,0,0,0,8.872-7.538c5.895-6.521,10.536-14.13,14.845-21.756a158.654,158.654,0,0,0,8.222-16.468c2.861-6.788,5.546-13.65,8.226-20.511q1.863-4.773,3.723-9.547.72-1.841,1.447-3.679a9.731,9.731,0,0,0,1.081-3.605,5.345,5.345,0,0,0-.879-2.887,7.109,7.109,0,0,0-3.593-2.489c-2.5-1.036-5.057-1.92-7.6-2.848a127.451,127.451,0,0,1-14.578-6.631c-2.349-1.226-4.676-2.5-6.945-3.872-1.095-.661-2.183-1.336-3.253-2.036-1.148-.752-2.269-1.808-3.725-1.775-2.808.062-3.616,3.648-4.544,5.721q-1.476,3.3-3,6.57c-4.345,9.348-9.03,18.535-14.148,27.483q-2.167,3.787-4.43,7.52c-1.6,2.65,2.546,5.065,4.145,2.423q7.084-11.706,13.236-23.94,2.758-5.488,5.342-11.063,1.271-2.733,2.507-5.483.57-1.266,1.134-2.534c.29-.65.658-2.1,1.164-2.5l-1.059.617h-.048l-1.211-.328a20.288,20.288,0,0,1,2.394,1.556c.885.576,1.783,1.131,2.683,1.681,1.752,1.071,3.543,2.078,5.348,3.054q5.758,3.117,11.772,5.732c2,.866,3.986,1.684,5.708,2.349,2.037.786,4.13,1.424,6.154,2.241a7.956,7.956,0,0,1,2.449,1.091c.389.406-.245-.233.188.362-.033-.046.02-.048-.033.1-.281.779-.622,1.542-.928,2.313-4.02,10.136-7.868,20.341-12.018,30.426a114.5,114.5,0,0,1-5.014,11.164c-3.166,5.846-6.385,11.675-10,17.259-3.524,5.445-7.43,10.816-12.387,15.054-4.5,3.846-9.249,5.562-15.052,4.673-7.345-1.125-13.82-6.1-19.293-10.833a82.111,82.111,0,0,1-14.81-16.925c-1.077-1.632-2.1-3.3-3.081-4.989-1.551-2.67-5.7-.256-4.145,2.423Z"/><path class="c" d="M332.69,226.36c-4.761,2.208-9.047,5.336-13.35,8.307-2.121,1.464-4.253,2.905-6.446,4.259s-3.132,3.418-4.762,5.272a2.457,2.457,0,0,0,0,3.394,2.421,2.421,0,0,0,3.394,0c1.412-1.606,2.252-3.575,4.109-4.715,2.207-1.355,4.339-2.829,6.468-4.3,4.189-2.895,8.373-5.921,13.01-8.072a2.419,2.419,0,0,0,.861-3.283,2.454,2.454,0,0,0-3.284-.861Z"/><path class="c" d="M308.644,204.958a8.9,8.9,0,0,1-1.782,2.788,4.689,4.689,0,0,1-1.85,1.142,7.511,7.511,0,0,0-.736.176c.243-.026-.474,0-.634,0-.69.013.271.126-.3-.049-.131-.041-.591-.181.042.043-.078-.027-.576-.358-.257-.119-2.674-2-.727-5.49.168-8.032q2.953-8.387,5.833-16.8,7.421-21.574,14.7-43.195,7.557-22.344,15.081-44.7c3.594-10.662,7.175-21.327,10.821-31.971q1.166-3.4,2.373-6.792c.035-.1.086-.192.113-.291.073-.269-.351.5-.195.463s.653-1.153.8-1.329a5.961,5.961,0,0,1,2.291-1.717,2.831,2.831,0,0,1,2.217-.141c1.251.55,1.9,2.443,2.052,3.56a8.42,8.42,0,0,1,.05,1.328c0-.035-.081.745-.024.389.039-.248-.019.055-.04.147-.034.145-.071.29-.109.434-1.635,6.351-4.019,12.568-6.139,18.766q-5.847,17.1-11.875,34.127-6.934,19.723-13.943,39.42-6.018,16.93-12.067,33.848-3.255,9.107-6.524,18.208c-.1.288-.2.583-.314.867a2.415,2.415,0,0,0,1.676,2.952,2.458,2.458,0,0,0,2.952-1.676c1.792-4.405,3.23-8.989,4.832-13.465q5.811-16.234,11.591-32.48,7.146-20.08,14.237-40.181,6.438-18.265,12.768-36.568c2.469-7.178,5.073-14.349,7.185-21.644a12.243,12.243,0,0,0,.38-5.67c-.852-4.844-5.148-8.618-10.161-6.853a10.622,10.622,0,0,0-6.422,6.342c-.342.9-.653,1.821-.971,2.734-3.274,9.4-6.425,18.851-9.608,28.286q-7.527,22.308-15.048,44.618-7.691,22.767-15.456,45.508-3.162,9.225-6.368,18.434c-.853,2.442-1.736,4.874-2.578,7.32-1.494,4.335.836,10.148,5.811,10.638,4.305.423,7.9-2.725,9.566-6.446a2.472,2.472,0,0,0-.861-3.283A2.417,2.417,0,0,0,308.644,204.958Z"/><path class="c" d="M327.511,217.225a8.4,8.4,0,0,0-.916,9.693c2.016,3.2,6.693,4.437,10.235,3.808a19.1,19.1,0,0,0,5.915-2.357,30.728,30.728,0,0,0,4.96-3.379c2.908-2.5,4.558-6.237,2.841-9.9-1.65-3.522-5.981-5.911-9.807-4.75-2.948.9-1.691,5.529,1.276,4.629.107-.033.682-.171.31-.117a3.841,3.841,0,0,1,.844-.006c.288.024.012.007-.036,0,.119.024.241.05.358.085s.237.067.354.106c.707.232-.148-.095.232.094.227.113.443.24.658.375a1.428,1.428,0,0,1,.42.315,4.031,4.031,0,0,1,.84.943,5,5,0,0,1,.406.752c-.126-.318.039.236.069.328a1.715,1.715,0,0,1-.025.859,5.928,5.928,0,0,1-1.8,2.6,18.7,18.7,0,0,1-2.95,2.114,22.543,22.543,0,0,1-3.988,2.09,6.747,6.747,0,0,1-3.632.549,7.2,7.2,0,0,1-2.89-1.143c-.009-.007-.571-.558-.448-.4.109.14-.206-.368-.262-.5.152.35-.08-.384-.121-.534,0-.008-.07-.4-.036-.163.029.209-.015-.252-.017-.3a7.09,7.09,0,0,1,.025-1c.032-.29.01-.028,0,.022.032-.161.067-.321.11-.479.032-.117.069-.232.107-.347.124-.372-.25.409.082-.184.055-.1.112-.2.173-.294.206-.324-.344.361.106-.12,2.107-2.256-1.28-5.657-3.394-3.394Z"/><path class="c" d="M337.845,202.483c2.243-.945,4.834,1.281,4.582,3.657-.3,2.789-3.632,4.585-5.864,5.679-1.937.949-3.867,1.917-5.81,2.854a27.248,27.248,0,0,1-3.06,1.331c-.381.132-.763.234-1.155.328-.276.066.262-.035.261-.035-.146,0-.292.02-.438.008a5.559,5.559,0,0,1-.914-.108,4.277,4.277,0,0,1-2.965-1.9,6.215,6.215,0,0,1-.72-1.77c-.031-.144-.073-.573-.087-.487.059-.362-.067-.088.23-.355,2.306-2.065-1.1-5.45-3.394-3.394-3.393,3.039-.89,8.874,2.253,11.068a10.19,10.19,0,0,0,5.746,1.75,11.812,11.812,0,0,0,4.447-1.272c2.724-1.172,5.366-2.565,8.028-3.871,4-1.963,8.22-5.3,8.255-10.158.036-5.066-5.643-10.072-10.671-7.951a2.481,2.481,0,0,0-1.676,2.952,2.414,2.414,0,0,0,2.952,1.676Z"/><path class="c" d="M325.6,209.62c5.26-2.551,10.7-5.181,14.4-9.886a8.179,8.179,0,0,0,1.281-7.474,8.79,8.79,0,0,0-4.982-5.872,8.685,8.685,0,0,0-3.822-.869,9.885,9.885,0,0,0-4.466,1.642c-2.785,1.517-5.614,2.972-8.27,4.712-4.482,2.935-9.078,7.5-7.012,13.327,1.033,2.909,3.238,5.482,6.448,5.819a12.413,12.413,0,0,0,6.426-1.4,2.422,2.422,0,0,0,.861-3.284,2.453,2.453,0,0,0-3.284-.861c-.077.037-.479.2-.117.057s-.494.18-.623.223a9.436,9.436,0,0,1-2.088.5,2.442,2.442,0,0,1-1.5-.247,4.848,4.848,0,0,1-1.436-1.93,3.707,3.707,0,0,1,.447-4.161,13.384,13.384,0,0,1,4.131-3.785c2.1-1.388,4.313-2.592,6.526-3.788,1.1-.595,2.184-1.249,3.306-1.8a2.314,2.314,0,0,1,1.856-.05,4.214,4.214,0,0,1,2.969,3.045,6.333,6.333,0,0,1,.178,2.238c0-.048-.241.637-.042.272a7.021,7.021,0,0,1-.905,1.179c-3.375,3.886-8.16,6.048-12.7,8.25a2.423,2.423,0,0,0-.861,3.284A2.452,2.452,0,0,0,325.6,209.62Z"/><path class="a" d="M324.763,189.762c1.9-.812,5.827-3.172,6.733-5.213a6.157,6.157,0,0,0,.373-4.445c-.824-2.207-1.854-3.932-4.062-4.756a6.757,6.757,0,0,0-4.668.267,18.39,18.39,0,0,0-6.477,4.372c-1.9,2.238-2.686,5.7-1.029,8.124,1.537,2.246,4.689,2.892,7.334,2.253A11.309,11.309,0,0,0,324.763,189.762Z"/><path class="c" d="M325.974,191.834a21.056,21.056,0,0,0,4.2-2.481,10.28,10.28,0,0,0,3.74-4.408,9,9,0,0,0,.624-3.284,9.229,9.229,0,0,0-1-3.759,8.82,8.82,0,0,0-3.872-4.342c-4.339-2.214-9.181.155-12.7,2.876-3.38,2.615-5.807,7.221-4.1,11.494,1.983,4.971,8,6.024,12.536,4.146a2.478,2.478,0,0,0,1.676-2.952,2.414,2.414,0,0,0-2.952-1.676,12.933,12.933,0,0,1-2.242.7c-.7.152.269-.01-.157.021-.191.014-.382.028-.574.031-.154,0-.308,0-.461,0-.036,0-.776-.064-.277,0a6.672,6.672,0,0,1-1.109-.253c-.143-.044-.285-.094-.425-.147.377.145.03.01-.039-.031-.16-.094-.324-.176-.481-.276-.1-.061-.456-.359-.137-.082-.111-.1-.22-.2-.324-.3-.044-.045-.426-.558-.194-.2a3.48,3.48,0,0,1-.4-3.1,4.438,4.438,0,0,1,.725-1.633q.127-.2.266-.4c-.216.31.1-.121.153-.184a11.157,11.157,0,0,1,1.048-1.049,11.892,11.892,0,0,1,1.7-1.2c.74-.449,1.509-.849,2.287-1.228a4.631,4.631,0,0,1,3.569-.476c.393.126-.413-.257.189.081.132.074.265.141.394.22a4.358,4.358,0,0,1,.364.244c-.355-.267.012.023.088.106.12.129.245.256.367.383.063.067.258.358.02.017a9.26,9.26,0,0,1,.571.932c.088.167.171.337.251.508.041.088.23.545.082.177a5.424,5.424,0,0,1,.349,1.08c.068.386.057-.42.007.289-.013.182,0,.36-.023.542.03-.285-.03.153-.035.174-.062.267-.139.526-.212.79a2.315,2.315,0,0,1-.323.675c-.074.129-.344.4-.006.024-.132.148-.26.3-.4.438-.246.254-.508.492-.778.721-.112.1-.227.19-.342.282.35-.281-.162.118-.236.171a20.871,20.871,0,0,1-3.832,2.212,2.415,2.415,0,0,0-.861,3.283A2.46,2.46,0,0,0,325.974,191.834Z"/><path class="c" d="M308.837,180.027c-2.275-4.244-7.362-7.14-12.062-5.072-3.944,1.736-5.592,6.216-6.267,10.177-.822,4.815-1.4,9.608-2.64,14.349-.682,2.613-1.608,5.165-2.248,7.786a63.25,63.25,0,0,0-1.251,8.2A41.922,41.922,0,0,1,283,223.7a17.117,17.117,0,0,1-4.189,6.4c-2.137,2.231,1.252,5.63,3.394,3.394a21.938,21.938,0,0,0,6.161-11.8c.845-4.953.879-10.039,2.362-14.872a110.353,110.353,0,0,0,3.4-13.6c.651-3.773.606-8.191,2.458-11.639.777-1.444,1.984-2.695,3.746-2.538,1.956.175,3.487,1.769,4.365,3.406,1.46,2.723,5.605.3,4.144-2.423Z"/></svg>