<?xml version="1.0" encoding="utf-8"?>
<!-- Uploaded to: SVG Repo, www.svgrepo.com, Generator: SVG Repo Mixer Tools -->
<svg width="800px" height="800px" viewBox="0 -60.12 384.758 384.758" xmlns="http://www.w3.org/2000/svg"><defs><style>.a{fill:#ffffff;}.b{fill:#3d8dcc;}.c{fill:#d9d9d9;}.d{fill:#211715;}.e{fill:#febe69;}.f{fill:#7abee6;}.g{fill:none;}.h{fill:#85807f;}</style></defs><path class="a" d="M80.846,139.3c-7.78-23.294-14.885-46.688-12.34-42.445.173.209.35.419.53.627a32.241,32.241,0,0,0,18.573,10.977,55.47,55.47,0,0,0,8.279,1.105,34.605,34.605,0,0,0,26.683-12.315,42.912,42.912,0,0,0,2.86-3.69c-1.187,4.529-1.941,7.422-1.941,7.422-4.1,15.7-20.963,66.774-26.478,78.393H95.473C92.57,173.274,86.528,156.313,80.846,139.3Z"/><path class="b" d="M102.422,135.357c.719,5.765,1.794,14.364,2.694,22.082l.069.595c-3.373,9.577-6.376,17.552-8.173,21.339H95.473c-1.815-3.811-4.855-11.865-8.267-21.524,1.942-13.691,4.038-28.251,4.025-29.01-.024-1.441-3.453-9.109-4.109-10.488,1.714-2.367,3.695-5.027,5.229-6.753,0,0,.89-1,1.9-2.128.543.046,1.089.079,1.641.094.792-.022,1.6-.05,2.418-.1l1.494,1.68c1.473,1.657,3.285,4.064,4.92,6.312-.613,2.351-3.1,10.467-3.1,11.245C101.616,128.883,101.938,131.479,102.422,135.357Z"/><path class="c" d="M92.742,172.88c-7.026-17.94-20.193-58.02-23.817-71.777l-2.722.963c-7.864,2.786-15.338,5.7-22.467,9.986-6.709,4.034-12.412,7.14-16.888,13.681-5.413,7.912-9.31,18.034-12.681,26.929-3.315,8.744-5.907,16.665-8.41,25.769-.855,3.111-1.8,6-2.508,9.144A39.843,39.843,0,0,0,3.3,204.241c1.046,5.24,6.14,12.728,11.2,15.789,6.816,4.152,14.383,8.53,21.723,12.13l17.5,7.887a2.174,2.174,0,0,0,2.694-.8c1.751-3.717,4.641-9.321,7.534-14.828h64.385c3.009,5.737,6.033,11.605,7.817,15.392a1.207,1.207,0,0,0,1.587.623c4.846-2.239,10.9-5.03,17.288-8.134a3.167,3.167,0,0,0,.312-.141c7.34-3.6,14.907-7.978,21.723-12.13,5.059-3.061,10.153-10.549,11.2-15.789a39.845,39.845,0,0,0,.052-16.666c-.708-3.148-1.652-6.033-2.507-9.144-2.5-9.1-5.095-17.025-8.41-25.769-3.371-8.9-7.268-19.017-12.682-26.929-4.475-6.541-10.178-9.647-16.887-13.681-7.723-4.643-15.851-7.676-24.441-10.682-4.268,16.143-20.9,66.478-26.375,78H95.473C94.743,177.838,93.814,175.617,92.742,172.88Z"/><path class="a" d="M123.34,218.46c-1.405-3-2.684-5.732-3.632-7.788a178.239,178.239,0,0,0-18.922,1.358c-4.164.6-5.641,2.313-8.015,4.4a5.7,5.7,0,0,0-1.59,2.823l-.842-.859c-3.313-3.38-12.088-5.5-17.344-8.007-3.517,6.844-7.681,15.165-11.171,22.318,4.032,3.434,8.235,6.6,11.994,10.26-1.663,1.794-2.209,4.628-1.345,5.914.982,1.464,3.5,3.169,5.717,2.779a4.2,4.2,0,0,0,1.513,5.079c1.636,1.114,3.708,1.34,6.474.921a3.976,3.976,0,0,0,4.549,3.4,15.206,15.206,0,0,0,5.425-1.125c5.281-2.461,12.539-7.937,21.765-15.678,5.006-4.2,11.383-7.163,13.044-9.244C128.825,230.2,125.878,223.887,123.34,218.46Z"/><path class="c" d="M237.635,229.233c-1.974-1.153-3.911-2.313-5.784-3.454-4.518-2.734-9.037-8.379-10.328-12.974a27.969,27.969,0,0,1,0-15.911c4.607-16.67,15.806-47.688,17.023-50.381a45.724,45.724,0,0,1,7.71-12.388A32.129,32.129,0,0,1,252.891,129c6.868-4.083,18.308-8.989,23.941-10.307,3.431,13.553,18.741,60.345,23.709,70.9h1.368c4.968-10.578,20.3-57.534,23.691-70.981,5.5,1.2,17.263,6.221,24.267,10.386a32.129,32.129,0,0,1,6.635,5.122,45.748,45.748,0,0,1,7.711,12.388c1.216,2.693,12.415,33.711,17.022,50.381a27.969,27.969,0,0,1,0,15.911c-1.291,4.595-5.809,10.24-10.328,12.974-6.089,3.709-12.848,7.62-19.4,10.835a2.858,2.858,0,0,1-.279.126c-5.708,2.772-11.113,5.266-15.442,7.266a1.079,1.079,0,0,1-1.418-.557c-1.723-3.658-4.742-9.49-7.639-15-11.644,0-37.386,0-50.69,0-2.9,5.509-5.918,11.342-7.641,15a1.079,1.079,0,0,1-1.418.557c-4.329-2-9.733-4.494-15.442-7.266a2.74,2.74,0,0,1-.278-.126C246.716,234.388,242.079,231.828,237.635,229.233Z"/><path class="a" d="M281.76,245.953c-1.672,1.7-2.284,3.717-1.442,4.972s2.363,2.857,4.28,2.519c-.053.087-1.608,3,.809,4.65,1.418.965,3.715.911,6.111.548a4.042,4.042,0,0,0,4.159,3.489c1.672-.137,2.848-1.226,4.418-1.78,2.525-.891,13.4-8.908,18.92-13.318,3.6-2.875,7.845-5.212,10.107-6.92,0,0,1.03-.778,2.623-1.977-3.364-6.637-8-15.328-10.614-20.243l-2.98.108c-4.378.158-9.931.525-13.976,1.108-3.608.519-4.887,2-6.944,3.814a4.954,4.954,0,0,0-1.378,2.445l-.729-.743c-2.5-2.546-8.569-4.265-13.106-6.1,0,0-.22-.089-.6-.249-2.584,4.867-6.936,13.027-10.192,19.432.322.265.529.437.529.437,2.659,2.211,5.365,4.336,7.887,6.661"/><path class="a" d="M131.907,60.977a5.622,5.622,0,0,1,4.064-1.488,5.218,5.218,0,0,1,4.687,2.6c1.593,2.762,1.525,7.851.456,11-.757,2.23-2,5.642-4.987,8.088a6.04,6.04,0,0,1-5.314,1.257,40.566,40.566,0,0,1-8.242,14.81,34.605,34.605,0,0,1-26.683,12.315,55.47,55.47,0,0,1-8.279-1.105A32.241,32.241,0,0,1,69.036,97.481,40.567,40.567,0,0,1,60.987,82.46a6.063,6.063,0,0,1-5.235-1.279c-2.99-2.446-4.23-5.858-4.987-8.088-1.069-3.149-1.136-8.238.456-11a5.221,5.221,0,0,1,4.687-2.6,5.624,5.624,0,0,1,4.065,1.488S59.728,30.912,95.94,30.912C134.4,30.912,131.907,60.977,131.907,60.977Z"/><path class="a" d="M325.463,119.151c-3.646,14.113-18.65,60.005-23.554,70.447h-1.368c-4.913-10.441-19.945-56.332-23.6-70.445"/><path class="d" d="M281.38,220.842c2.359.948,4.772,1.753,7.129,2.7l.379.154c.426.174-.183-.083.077.032s.543.236.812.36c.513.235,1.02.482,1.516.75a15.2,15.2,0,0,1,1.394.845c.087.061.171.129.261.186.25.16-.378-.328-.058-.043.181.162.364.32.537.492a2.4,2.4,0,0,0,3.394-3.394,19.8,19.8,0,0,0-6.657-3.856c-2.477-1.021-5.023-1.86-7.507-2.858a2.407,2.407,0,0,0-2.953,1.676,2.472,2.472,0,0,0,1.676,2.952Z"/><path class="d" d="M281.342,243.112c-2.534-2.331-5.24-4.462-7.887-6.661a2.576,2.576,0,0,0-1.7-.7,2.4,2.4,0,0,0-1.7,4.1c2.647,2.2,5.353,4.33,7.887,6.661a2.4,2.4,0,0,0,3.394-3.394Z"/><path class="d" d="M298.66,228.093c-1.4-1.341-.208-3.043.929-4.063a8.776,8.776,0,0,1,4.281-2.438,50.887,50.887,0,0,1,6.783-.767c2.5-.195,5-.331,7.5-.424,3.079-.114,3.094-4.915,0-4.8-3.012.112-6.023.285-9.025.551s-6.2.385-8.973,1.643a14.3,14.3,0,0,0-5.668,4.721,7.106,7.106,0,0,0,.781,8.971c2.23,2.138,5.629-1.252,3.394-3.394Z"/><path class="d" d="M301.378,225.147c-4.3,3.609-8.488,7.356-12.663,11.109q-2.994,2.692-5.953,5.424c-1.707,1.585-3.649,3.169-4.608,5.339a5.461,5.461,0,0,0,.655,5.879c1.386,1.785,3.426,3.212,5.789,2.946l-2.072-3.612a6.178,6.178,0,0,0,.054,6.373c2.154,3.124,6.278,2.824,9.576,2.351l-3.038-2.314a6.431,6.431,0,0,0,7.605,5.75,22.8,22.8,0,0,0,4.952-2.121,22.469,22.469,0,0,0,2.459-1.416A192.97,192.97,0,0,0,319.868,249.4c3.342-2.634,7.059-4.683,10.465-7.215a2.473,2.473,0,0,0,.861-3.283,2.417,2.417,0,0,0-3.284-.861c-2.8,2.081-5.874,3.766-8.686,5.834-2.38,1.75-4.662,3.637-7.026,5.411a117.2,117.2,0,0,1-12.763,8.753c-.531.3.256-.089.022,0a16.994,16.994,0,0,0-1.691.734,6.21,6.21,0,0,1-2.259.966,1.4,1.4,0,0,1-1.15-.488,1.267,1.267,0,0,1-.34-.482c-.194-.362.147.234-.048-.079-.078-.125-.1-.625-.051-.046a2.453,2.453,0,0,0-3.038-2.314c-1.134.162-3.42.6-4.33-.4-.135-.147-.094-.56-.062-.692.062-.254.151-.493.233-.74-.2.611-.138.316-.05.157.8-1.442-.173-3.825-2.073-3.611a1.83,1.83,0,0,1-1.766-.776c-.449-.5-.555-.507-.422-1.023a6.4,6.4,0,0,1,2.079-2.6c1.957-1.871,3.965-3.689,5.973-5.5,4.711-4.262,9.444-8.511,14.31-12.595a2.418,2.418,0,0,0,0-3.394,2.451,2.451,0,0,0-3.394,0Z"/><path class="d" d="M303.825,232.944c-2.369,1.721-4.544,3.731-6.743,5.658-2.4,2.1-4.768,4.236-7.221,6.272a2.409,2.409,0,0,0,0,3.394,2.465,2.465,0,0,0,3.394,0c2.407-2,4.734-4.091,7.086-6.153,1.223-1.073,2.448-2.144,3.686-3.2.5-.422.993-.843,1.5-1.255.2-.161.4-.32.6-.479.439-.352-.417.3-.122.093.084-.06.166-.124.251-.186a2.457,2.457,0,0,0,.861-3.283,2.428,2.428,0,0,0-3.284-.861Z"/><path class="d" d="M74.574,213.674c2.722,1.094,5.507,2.023,8.228,3.121l.437.178a1.26,1.26,0,0,1,.178.074c.314.136.627.273.938.416.591.271,1.176.556,1.748.866a17.228,17.228,0,0,1,1.61.975c.1.07.2.149.3.214.249.158-.324-.286.008.009.21.187.421.369.62.568a2.4,2.4,0,0,0,3.394-3.394c-2.072-2.067-4.859-3.259-7.521-4.356-2.858-1.178-5.8-2.147-8.665-3.3a2.406,2.406,0,0,0-2.952,1.676,2.47,2.47,0,0,0,1.676,2.952Z"/><path class="d" d="M74.17,240c-2.926-2.69-6.049-5.15-9.105-7.688a2.576,2.576,0,0,0-1.7-.7,2.4,2.4,0,0,0-1.7,4.1c3.056,2.538,6.179,5,9.1,7.689A2.4,2.4,0,0,0,74.17,240Z"/><path class="d" d="M94.159,222.662c-1.752-1.679-.426-3.869,1.046-5.189a10.864,10.864,0,0,1,5.168-2.941,60.314,60.314,0,0,1,7.9-.891c2.877-.225,5.759-.382,8.643-.489,3.08-.114,3.095-4.915,0-4.8-3.529.131-7.056.334-10.574.65-3.254.292-6.752.424-9.784,1.734a14.564,14.564,0,0,0-3.587,2.318A15.223,15.223,0,0,0,90.019,216a7.858,7.858,0,0,0,.746,10.06c2.23,2.137,5.629-1.252,3.394-3.395Z"/><path class="d" d="M97.82,219.262C92.685,223.57,87.666,228.016,82.6,232.4c-2.41,2.084-4.822,4.167-7.272,6.2-2.354,1.957-4.772,3.685-5.446,6.9a6.066,6.066,0,0,0,1.472,5.775,8.56,8.56,0,0,0,6.841,2.78l-2.072-3.611a6.618,6.618,0,0,0,.835,7c2.433,2.937,6.4,3.009,9.862,2.523l-3.038-2.314c.325,4.112,4.031,6.086,7.827,5.729a17.542,17.542,0,0,0,6.2-1.587c1.183-.571,2.326-1.227,3.446-1.913,6.819-4.181,12.8-9.507,19.034-14.478,3.311-2.641,7.122-4.545,10.512-7.066a2.475,2.475,0,0,0,.861-3.283,2.418,2.418,0,0,0-3.284-.861c-2.573,1.913-5.41,3.457-8.053,5.272-3.409,2.34-6.489,5.12-9.708,7.708-4.674,3.757-9.512,7.606-14.9,10.31a12.326,12.326,0,0,1-5.183,1.182,2.287,2.287,0,0,1-1.464-.363,1.227,1.227,0,0,1-.441-.56c.159.336-.1-.7-.048-.09a2.453,2.453,0,0,0-3.038-2.314c-1.508.211-3.916.369-4.979-1.031a1.412,1.412,0,0,1-.282-1.146c.008-.255.023-.238-.018,0,.024-.141.061-.278.091-.418.06-.282.352-.8-.089.116.689-1.433-.1-3.861-2.072-3.611a4.089,4.089,0,0,1-3.653-1.6c-.192-.246-.04.111-.081-.249.048.424.012-.436.007-.37a4.8,4.8,0,0,1,.605-1.753,8.832,8.832,0,0,1,2.3-2.18c.877-.711,1.744-1.436,2.608-2.164,4.78-4.029,9.477-8.157,14.2-12.251,2.336-2.026,4.672-4.053,7.041-6.04a2.419,2.419,0,0,0,0-3.394,2.451,2.451,0,0,0-3.394,0Z"/><path class="d" d="M100.083,228.7c-5.036,4.609-10.322,8.957-15.557,13.337a2.421,2.421,0,0,0,0,3.395,2.454,2.454,0,0,0,3.4,0c5.234-4.381,10.52-8.729,15.557-13.338a2.4,2.4,0,0,0-3.395-3.394Z"/><path class="d" d="M90.654,109.9c-3.276,3.7-5.956,7.88-8.912,11.829a2.408,2.408,0,0,0,.861,3.284,2.472,2.472,0,0,0,3.284-.861c1.263-1.687,2.459-3.426,3.7-5.13.8-1.093,1.558-2.257,2.445-3.279-.229.264-.184.237.014-.016.095-.122.191-.245.288-.367q.28-.354.565-.706c.375-.46.757-.915,1.15-1.36a2.4,2.4,0,0,0-3.394-3.394Z"/><path class="d" d="M110.677,121.641c-3.046-4.072-5.8-8.378-9.18-12.194a2.414,2.414,0,0,0-3.394,0,2.457,2.457,0,0,0,0,3.394c.4.456.8.922,1.181,1.394q.3.371.6.746.153.194.3.388l.153.2q-.28-.364-.119-.153,1.278,1.666,2.51,3.369c1.274,1.755,2.5,3.546,3.8,5.282a2.46,2.46,0,0,0,3.283.861,2.423,2.423,0,0,0,.861-3.283Z"/><path class="d" d="M83.231,176.02C75.02,161.787,66.9,147.492,59.256,132.947q-.8-1.524-1.6-3.052a29.117,29.117,0,0,0-1.561-3.028l-.1-.2c-.088-.26-.127-.27-.118-.032.254.194-.522.43.057.112a6.653,6.653,0,0,0,1.145-1.213c.886-.92,1.793-1.82,2.709-2.712,2.216-2.159-1.18-5.552-3.4-3.394A30,30,0,0,0,51.78,124.3c-1.361,2.149-.234,4.205.794,6.2q3.02,5.859,6.149,11.659c4.23,7.857,8.579,15.649,12.985,23.408q3.665,6.453,7.378,12.879c1.543,2.675,5.692.26,4.145-2.423Z"/><path class="d" d="M101.874,124.778c-3.579,0-7.159-.075-10.738-.076a2.4,2.4,0,1,0,0,4.8c3.579,0,7.159.075,10.738.076a2.4,2.4,0,1,0,0-4.8Z"/><path class="d" d="M107.517,157.441c-.86-7.345-1.773-14.684-2.687-22.024-.253-2.028-.519-4.055-.748-6.086a2.5,2.5,0,0,0-.059-.541c-.121-.316-.17.627-.024.124.269-.93.478-1.882.741-2.814.753-2.671,1.58-5.321,2.3-8,.8-2.987-3.825-4.261-4.629-1.277-.637,2.364-1.36,4.705-2.034,7.059-.446,1.559-1.2,3.367-1.145,5.015.057,1.675.406,3.386.612,5.046q.618,4.971,1.235,9.941.836,6.777,1.636,13.557a2.473,2.473,0,0,0,2.4,2.4,2.415,2.415,0,0,0,2.4-2.4Z"/><path class="d" d="M121.175,100.342c-2.638,10.086-5.919,20.024-9.144,29.934-3.885,11.94-7.885,23.852-12.221,35.637-.92,2.5-1.858,5-2.843,7.479q-.294.743-.595,1.481c-.1.243-.2.485-.3.728-.056.135-.387.913-.109.263-.33.771-.665,1.539-1.023,2.3l2.072-1.188H95.473l2.072,1.189c-.314-.664-.611-1.335-.9-2.009-.044-.1-.266-.623-.129-.3.146.346-.14-.335-.171-.411q-.278-.667-.547-1.337c-.848-2.1-1.657-4.221-2.451-6.344-2.028-5.419-3.956-10.875-5.849-16.342q-6.267-18.106-11.975-36.4c-1.513-4.872-3.018-9.755-4.315-14.691-.784-2.985-5.416-1.719-4.629,1.276,2.677,10.19,6.007,20.228,9.279,30.237,3.924,12,7.96,23.977,12.346,35.819,1.61,4.346,3.212,8.736,5.2,12.928a2.365,2.365,0,0,0,2.072,1.188h1.539a2.366,2.366,0,0,0,2.072-1.189c1.7-3.6,3.1-7.364,4.5-11.095,2.047-5.47,3.989-10.98,5.894-16.5q6.3-18.245,12.027-36.683c1.507-4.872,3.006-9.754,4.3-14.688.782-2.991-3.846-4.267-4.629-1.276Z"/><path class="d" d="M132.428,144.665q2.714-4.914,5.309-9.892c1.238-2.372,2.574-4.729,3.683-7.163a4.452,4.452,0,0,0-.128-4.292,19.556,19.556,0,0,0-3.078-3.383c-2.176-2.2-5.57,1.2-3.394,3.394.807.815,1.708,1.75,2.407,2.538-.3-.338.021-.605-.376.17q-.462.9-.927,1.808-1.506,2.929-3.034,5.848-2.256,4.3-4.607,8.549c-1.495,2.706,2.649,5.131,4.145,2.423Z"/><path class="d" d="M113.4,178.443q5.226-9.059,10.328-18.188c1.5-2.7-2.642-5.126-4.145-2.423q-5.082,9.141-10.328,18.188c-1.546,2.681,2.6,5.1,4.145,2.423Z"/><path class="d" d="M38.005,142.852c1.11,14.906,2.117,29.828,2.392,44.776.057,3.085,4.857,3.1,4.8,0-.275-14.948-1.282-29.87-2.392-44.776a2.459,2.459,0,0,0-2.4-2.4,2.419,2.419,0,0,0-2.4,2.4Z"/><path class="d" d="M152.035,191.39c.155-16.2,1.249-32.376,2.443-48.53a2.4,2.4,0,0,0-4.8,0c-1.194,16.154-2.288,32.328-2.443,48.53-.03,3.089,4.77,3.092,4.8,0Z"/><path class="e" d="M141.247,142.214H123.576a1.244,1.244,0,0,0-1.244,1.243v5.383a1.24,1.24,0,0,0,1.24,1.243h17.671a1.244,1.244,0,0,0,1.243-1.243v-5.383A1.24,1.24,0,0,0,141.247,142.214Z"/><path class="d" d="M141.247,139.814H126.362c-1.5,0-3.359-.3-4.693.54a3.8,3.8,0,0,0-1.737,3.186c-.048,1.336,0,2.682,0,4.019,0,.413-.018.831,0,1.243a3.72,3.72,0,0,0,2.518,3.5,9.386,9.386,0,0,0,2.827.184h12c1.392,0,2.826.095,4.214-.025a3.689,3.689,0,0,0,3.393-3.618c.057-1.3,0-2.624,0-3.929,0-.483.021-.971,0-1.454a3.743,3.743,0,0,0-3.639-3.643,2.416,2.416,0,0,0-2.4,2.4,2.454,2.454,0,0,0,2.4,2.4c-.63-.063-1.221-.836-1.161-1.074a2.07,2.07,0,0,0,0,.452v3.394a4.743,4.743,0,0,0,0,1.341c.124.326.252-.591.339-.705l.818-.339H123.981a1.437,1.437,0,0,0-.409,0c.973-.362.977,1.214,1.16,1.157a2.036,2.036,0,0,0,0-.221,8.547,8.547,0,0,0,0-1.413c0-1.131.1-2.31,0-3.437-.006-.07.031-.225,0-.288-.106-.224,4.342-3.887-.338.794-.769.769-1.111.223-.418.339a26.458,26.458,0,0,0,4.147,0h13.124C144.335,144.614,144.34,139.814,141.247,139.814Z"/><path class="d" d="M89.618,157.794c1.087-7.654,2.193-15.305,3.247-22.964.261-1.9.68-3.849.752-5.766.065-1.743-.847-3.562-1.483-5.138-.925-2.3-1.893-4.587-2.958-6.823a2.422,2.422,0,0,0-3.284-.861,2.452,2.452,0,0,0-.861,3.284c.789,1.656,1.57,3.471,2.207,5.02.431,1.048.855,2.1,1.222,3.174.124.363.228.73.34,1.1.207.682.12-.262.027.122a14.279,14.279,0,0,0-.175,1.523c-.157,1.228-.2,1.495-.375,2.8q-.654,4.763-1.335,9.519-.973,6.872-1.952,13.74a2.482,2.482,0,0,0,1.676,2.953,2.417,2.417,0,0,0,2.952-1.677Z"/><path class="d" d="M124.722,104.381c4.532,1.608,9.047,3.282,13.418,5.292a120.539,120.539,0,0,1,12.08,6.613,47.092,47.092,0,0,1,9.282,6.881,44.017,44.017,0,0,1,7.289,10.744c4.3,8.2,7.527,17,10.614,25.717q2.383,6.728,4.413,13.574c1.426,4.811,2.932,9.654,4.074,14.541a35.9,35.9,0,0,1,.472,13.491,23.65,23.65,0,0,1-3.941,10.029,27.515,27.515,0,0,1-3.783,4.5,25.887,25.887,0,0,1-4.737,3.372c-4.241,2.555-8.525,5.04-12.883,7.391-4.432,2.393-8.966,4.572-13.519,6.724q-3.131,1.479-6.27,2.934-1.482.688-2.964,1.373a6.361,6.361,0,0,0-1.226.566c-.589.46,1.2.914,1.136.373a2.1,2.1,0,0,0-.247-.521c-2.879-6.028-6.023-11.935-9.139-17.843q-2.256-4.275-4.527-8.54-.854-1.608-1.706-3.217a3.59,3.59,0,0,0-.335-.635l-.039-.074q-.38-.783-.464,1.382c.138.011.533-.283.659-.35l3.7-1.972q12.926-6.893,25.826-13.833c2.2-1.184,4.406-2.376,6.614-3.556,2.725-1.457.3-5.6-2.423-4.144-9.251,4.945-18.48,9.932-27.732,14.875q-3.548,1.9-7.1,3.786c-1.186.632-2.573,1.16-3.308,2.357a3.825,3.825,0,0,0,0,3.733c1.154,2.394,2.5,4.713,3.743,7.059,3.493,6.581,6.991,13.161,10.326,19.824.645,1.289,1.253,2.6,1.9,3.886a3.84,3.84,0,0,0,2.557,2.133c1.336.316,2.5-.359,3.667-.9,4.487-2.074,8.97-4.158,13.427-6.3,4.826-2.315,9.569-4.765,14.23-7.4q3.489-1.968,6.926-4.025a48.582,48.582,0,0,0,5.943-3.875,29.762,29.762,0,0,0,10.807-22.285,45.962,45.962,0,0,0-2.062-15.721c-1.456-5.08-2.857-10.176-4.45-15.216a289.839,289.839,0,0,0-10.462-28.1,91.755,91.755,0,0,0-6.8-13.111,37.765,37.765,0,0,0-9.245-9.929,103.565,103.565,0,0,0-11.219-7.054,108.993,108.993,0,0,0-13.939-6.476c-2.42-.949-4.863-1.839-7.313-2.708a2.424,2.424,0,0,0-2.952,1.676,2.448,2.448,0,0,0,1.676,2.953Z"/><path class="d" d="M53.085,242.362a4.713,4.713,0,0,0,4.71-1.01,10.109,10.109,0,0,0,1.67-2.92c.976-2,1.981-3.976,3-5.952,2.34-4.556,4.733-9.084,7.136-13.607q1.56-2.939,3.125-5.874c.869-1.634,2.438-3.692,2.044-5.607s-1.954-2.588-3.515-3.419q-2.594-1.382-5.186-2.765-4.617-2.465-9.23-4.936c-6.88-3.686-13.747-7.4-20.63-11.076-2.724-1.456-5.151,2.686-2.423,4.144,11.253,6.015,22.479,12.081,33.74,18.082l1.963,1.045c.187.1.928.635,1.1.584l-.428-1.45-.08.152a11.4,11.4,0,0,0-1.047,1.977q-1.269,2.391-2.543,4.78-3.251,6.108-6.457,12.239-1.737,3.339-3.436,6.7-.7,1.4-1.388,2.8c-.221.453-.45.9-.657,1.364a2.088,2.088,0,0,1-.2.425c.218-.2.368-.191.016-.3-2.948-.948-4.21,3.685-1.276,4.629Z"/><path class="d" d="M65.565,99.752a143.9,143.9,0,0,0-19.044,7.98,89.943,89.943,0,0,0-15.367,9.777c-4.8,3.963-8.114,9.267-10.927,14.754a176.983,176.983,0,0,0-7.633,17.809C10.175,156.415,7.9,162.808,5.91,169.3c-1.03,3.354-1.954,6.737-2.922,10.109a76.774,76.774,0,0,0-2.574,10.41,40.643,40.643,0,0,0-.2,9.9,30.072,30.072,0,0,0,1.725,8.2,31.225,31.225,0,0,0,10.252,13.447,104.223,104.223,0,0,0,9.5,5.715c3.427,1.971,6.891,3.881,10.41,5.685,6.733,3.454,13.649,6.567,20.518,9.74a2.469,2.469,0,0,0,3.283-.861,2.419,2.419,0,0,0-.861-3.283c-11.912-5.5-23.693-11.1-34.99-17.8a37.565,37.565,0,0,1-7.121-4.8,28.67,28.67,0,0,1-4.808-6.122C5.41,205.072,4.675,199.862,4.8,194.6c.156-6.7,2.582-13.246,4.428-19.625q2.722-9.4,6.106-18.6c2.145-5.841,4.348-11.685,6.937-17.346,2.448-5.351,5.2-11,9.265-15.32,4.186-4.449,9.745-7.526,15-10.521a125.161,125.161,0,0,1,20.3-8.813,2.463,2.463,0,0,0,1.677-2.953,2.422,2.422,0,0,0-2.953-1.676Z"/><path class="d" d="M63.186,235.379q5.708-11.74,11.667-23.358c1.407-2.744-2.733-5.175-4.145-2.423q-5.958,11.616-11.667,23.358a2.464,2.464,0,0,0,.861,3.284,2.423,2.423,0,0,0,3.284-.861Z"/><path class="d" d="M118.481,213.705c3.475,7.471,7.024,14.908,10.369,22.439a2.416,2.416,0,0,0,3.283.861,2.459,2.459,0,0,0,.861-3.283c-3.344-7.531-6.894-14.969-10.369-22.44a2.42,2.42,0,0,0-3.283-.861,2.455,2.455,0,0,0-.861,3.284Z"/><path class="d" d="M351.5,198.755c.165-10.792.694-21.57.7-32.366,0-3.088-4.8-3.093-4.8,0,0,10.8-.531,21.574-.7,32.366-.047,3.09,4.753,3.091,4.8,0Z"/><path class="d" d="M250.211,166.959c.028,10.714,1.214,21.364,1.569,32.062.1,3.081,4.9,3.094,4.8,0-.355-10.7-1.541-21.348-1.569-32.062-.009-3.088-4.809-3.094-4.8,0Z"/><path class="d" d="M323.149,118.513c-2.357,9.095-5.286,18.057-8.166,27-3.451,10.707-7,21.391-10.853,31.962-.81,2.224-1.635,4.443-2.5,6.646q-.524,1.334-1.073,2.655c-.16.386.187-.427-.032.072-.078.178-.153.357-.232.534q-.222.507-.456,1.009l2.072-1.189h-1.368l2.073,1.189c-.272-.58-.527-1.166-.78-1.753-.167-.384.175.428-.037-.088l-.225-.545q-.24-.584-.473-1.17c-.758-1.9-1.482-3.818-2.192-5.739-1.814-4.907-3.539-9.846-5.231-14.8q-5.551-16.239-10.608-32.645c-1.336-4.358-2.665-8.724-3.811-13.136-.775-2.988-5.406-1.721-4.628,1.276,2.374,9.144,5.326,18.156,8.229,27.143,3.481,10.777,7.062,21.531,10.955,32.167,1.44,3.937,2.876,7.909,4.656,11.708A2.364,2.364,0,0,0,300.541,192h1.368a2.362,2.362,0,0,0,2.072-1.189c3.726-7.968,6.417-16.5,9.257-24.805q5.6-16.389,10.7-32.95c1.347-4.4,2.688-8.809,3.842-13.265.776-2.992-3.853-4.269-4.628-1.276Z"/><path class="d" d="M289.482,186.625c-4.709-8.164-9.378-16.351-13.929-24.6q-3.393-6.151-6.684-12.36-1.6-3.025-3.167-6.071c-.16-.31-.591-1.666-.513-.493q-.366.512.165-.117.315-.338.634-.672c.856-.895,1.734-1.768,2.621-2.632,2.216-2.16-1.18-5.552-3.394-3.394a26.522,26.522,0,0,0-4.143,4.38c-1.154,1.84-.413,3.6.485,5.351q2.68,5.214,5.462,10.375,5.7,10.593,11.661,21.038,3.306,5.823,6.657,11.623c1.544,2.675,5.693.26,4.145-2.423Z"/><path class="d" d="M333.734,158.555c1.844-3.371,3.663-6.755,5.431-10.167q.633-1.224,1.261-2.449a16.042,16.042,0,0,0,1.418-3.028c.7-2.639-1.613-4.516-3.26-6.18-2.177-2.2-5.571,1.2-3.395,3.394.653.66,1.305,1.322,1.931,2.006s-.232-.37.078-.4a7.431,7.431,0,0,0-.539,1.047q-1.143,2.231-2.3,4.453c-1.557,2.984-3.156,5.946-4.772,8.9-1.483,2.711,2.66,5.136,4.145,2.422Z"/><path class="d" d="M316.573,189.048c2.677-4.641,5.327-9.3,7.9-14a2.4,2.4,0,1,0-4.144-2.423c-2.574,4.7-5.224,9.355-7.9,14a2.4,2.4,0,1,0,4.144,2.423Z"/><path class="f" d="M319.634,130.93c-5.567,3.635-12.477,4.726-18.1,4.726-7.413,0-13.118-1.9-16.274-4.242-2.832-2.1-3.921-7.378-3.1-15.374l.1-1,3.491.966a56.573,56.573,0,0,0,16.563,1.751c5.479-.345,8.914-1.5,14.864-2.534a3.666,3.666,0,0,1,3.168.859,10.373,10.373,0,0,1,2.545,7.561c-.118,1.566.273,4.618-1.608,6.105Q320.481,130.379,319.634,130.93Z"/><path class="d" d="M318.423,128.857c-6.245,4-14.122,4.975-21.383,4.155a24.285,24.285,0,0,1-8.868-2.589,13.265,13.265,0,0,1-1.5-.932c.277.2-.121-.1-.2-.177s-.6-.657-.347-.332a6.738,6.738,0,0,1-1.308-2.944c-.9-3.566-.532-7.387-.162-11l-3.038,2.314c6.75,1.869,13.642,3.234,20.692,2.8a74.334,74.334,0,0,0,10.743-1.69c.9-.189,1.793-.374,2.693-.549a6.643,6.643,0,0,1,2.452-.336c1.142.271,1.7,2.064,1.965,3.061a16.6,16.6,0,0,1,.27,5,4.782,4.782,0,0,1-.263,1.674c-.308.7-1.113,1.12-1.748,1.542-2.56,1.7-.159,5.863,2.422,4.145,1.806-1.2,3.338-2.41,3.989-4.564a17.614,17.614,0,0,0,.448-4.685c.088-3.879-1.283-9.329-5.455-10.695-2.14-.7-4.512.051-6.635.485-1.977.4-3.945.852-5.93,1.209a45.6,45.6,0,0,1-12.192.451,68.435,68.435,0,0,1-12.175-2.479,2.436,2.436,0,0,0-3.038,2.314c-.633,6.186-1.253,14.741,4.607,18.745,6.254,4.273,15.081,4.854,22.367,3.944A33.429,33.429,0,0,0,320.845,133C323.439,131.342,321.035,127.185,318.423,128.857Z"/><path class="e" d="M341.765,155.932H324.094a1.244,1.244,0,0,0-1.244,1.244v5.382a1.24,1.24,0,0,0,1.24,1.243h17.671A1.244,1.244,0,0,0,343,162.558v-5.382A1.24,1.24,0,0,0,341.765,155.932Z"/><path class="d" d="M341.765,153.532H326.88c-1.5,0-3.359-.3-4.693.54a3.8,3.8,0,0,0-1.737,3.186c-.048,1.336,0,2.683,0,4.02,0,.413-.018.83,0,1.243a3.721,3.721,0,0,0,2.518,3.5,9.418,9.418,0,0,0,2.827.183h12c1.392,0,2.826.095,4.214-.025a3.689,3.689,0,0,0,3.393-3.618c.057-1.3,0-2.623,0-3.928,0-.483.021-.972,0-1.454a3.744,3.744,0,0,0-3.639-3.644,2.417,2.417,0,0,0-2.4,2.4,2.453,2.453,0,0,0,2.4,2.4c-.63-.063-1.221-.836-1.161-1.074a2.07,2.07,0,0,0,0,.452V161.1a4.743,4.743,0,0,0,0,1.341c.124.326.252-.591.339-.7l.818-.339H324.5a1.437,1.437,0,0,0-.409,0c.973-.362.977,1.215,1.16,1.157a2.036,2.036,0,0,0,0-.221,8.547,8.547,0,0,0,0-1.413c0-1.131.1-2.31,0-3.436-.006-.07.031-.226,0-.289-.106-.224,4.342-3.886-.338.794-.769.769-1.111.223-.418.339a26.458,26.458,0,0,0,4.147,0h13.124C344.853,158.332,344.858,153.532,341.765,153.532Z"/><path class="d" d="M352.051,194.442c-9.516,5.087-19.009,10.217-28.53,15.294l-3.467,1.847c-1.322.7-2.466,1.54-2.609,3.158-.138,1.57.9,3.01,1.61,4.353q2.428,4.579,4.856,9.161c1.866,3.536,3.721,7.078,5.533,10.642.756,1.486,1.5,2.975,2.232,4.475A7,7,0,0,0,333,245.544c1.287,1.23,2.845,1.052,4.331.379A313.005,313.005,0,0,0,365.7,231.674c4.427-2.571,8.936-5.007,12.362-8.9a25.3,25.3,0,0,0,6.037-11.541,31.111,31.111,0,0,0-.192-13.579c-.834-3.569-1.994-7.085-3.087-10.581-4.1-13.1-8.543-26.143-13.415-38.981a47.853,47.853,0,0,0-9.605-16.108,37.469,37.469,0,0,0-9.51-6.627,129.727,129.727,0,0,0-13.047-6.039c-1.924-.773-3.867-1.5-5.84-2.136-2.946-.952-4.208,3.681-1.276,4.629A108.2,108.2,0,0,1,345.2,129.15a54.174,54.174,0,0,1,6.5,3.943,23.823,23.823,0,0,1,4.952,5.012,44.513,44.513,0,0,1,4.3,7.105,19.865,19.865,0,0,0,1.185,2.514c.269.386-.206-.534-.1-.252.145.4.319.8.474,1.2,1.186,3.078,2.3,6.185,3.41,9.291,3.512,9.814,6.9,19.677,10.031,29.621,1.581,5.026,3.64,10.339,3.979,15.625a21.737,21.737,0,0,1-4.346,15.085,28.541,28.541,0,0,1-8.251,6.842c-3.672,2.2-7.381,4.344-11.152,6.372-3.717,2-7.515,3.828-11.329,5.634q-2.615,1.239-5.239,2.458-1.305.608-2.612,1.211l-1.065.493-.691.319q-.782.322.218.017l1.059.617a5.838,5.838,0,0,1-.926-1.767q-.584-1.193-1.18-2.379-1.33-2.648-2.7-5.278-2.87-5.542-5.805-11.049-1.188-2.241-2.378-4.479-.471-.889-.942-1.778a3.666,3.666,0,0,0-.393-.742c-.286-.3.074-.88-.358.592-.408,1.389.105.634.853.236q7.694-4.095,15.372-8.215c5.471-2.932,10.932-5.884,16.406-8.81,2.726-1.457.3-5.6-2.422-4.145Z"/><path class="d" d="M248.285,198.587c9.947,5.317,19.869,10.679,29.823,15.983l1.737.925a5.551,5.551,0,0,0,1.093.582l.219.117q-.1-2.43-.52-1.561a8.583,8.583,0,0,0-.866,1.638q-1.14,2.15-2.282,4.3-2.849,5.365-5.663,10.749-1.59,3.052-3.146,6.122-.648,1.284-1.284,2.573a7.7,7.7,0,0,1-1.16,2.243l1.059-.617.558.14-.683-.316-1.054-.487q-1.1-.51-2.207-1.023-2.589-1.2-5.169-2.417c-3.373-1.593-6.749-3.185-10.056-4.912-3.389-1.77-6.725-3.643-10.025-5.573-2.878-1.684-5.973-3.244-8.449-5.5a21.638,21.638,0,0,1-7.323-14.11c-.529-5.631,1.179-10.914,2.8-16.228,3.071-10.089,6.489-20.076,10-30.017,1.293-3.655,2.6-7.306,3.959-10.936.348-.93.738-1.849,1.074-2.784.077-.212-.359.638-.1.252a23.389,23.389,0,0,0,1.185-2.514c.724-1.463,1.5-2.9,2.365-4.286a29,29,0,0,1,4.882-6.22,35.817,35.817,0,0,1,6.87-4.67,106.487,106.487,0,0,1,18.71-8.22c2.928-.946,1.675-5.583-1.276-4.629a113.558,113.558,0,0,0-12.691,5.095,77.125,77.125,0,0,0-10.923,5.892,27.862,27.862,0,0,0-4.886,3.926,44.442,44.442,0,0,0-3.429,4.307,48.293,48.293,0,0,0-5.359,9.86c-1.794,4.39-3.324,8.9-4.906,13.371q-3.867,10.92-7.467,21.934c-1.165,3.59-2.3,7.19-3.373,10.81-1.251,4.232-2.4,8.478-2.347,12.933a26.638,26.638,0,0,0,2.647,11.621,28.231,28.231,0,0,0,9.558,10.627c9.2,5.958,19.072,10.824,28.982,15.454,2.142,1,4.28,2.016,6.437,2.986a3.557,3.557,0,0,0,4.033-.351,6.6,6.6,0,0,0,1.452-2.278c1.6-3.291,3.278-6.54,4.968-9.783q2.731-5.245,5.514-10.465,1.1-2.067,2.193-4.131c.736-1.387,1.87-2.934,1.513-4.571a4.027,4.027,0,0,0-2.348-2.723l-4.114-2.192q-3.588-1.914-7.174-3.833-7.14-3.822-14.273-7.655-3.328-1.788-6.653-3.577c-2.724-1.456-5.151,2.686-2.423,4.145Z"/><path class="f" d="M275.069,132.11a25.439,25.439,0,0,0,6.2-5.894,8.385,8.385,0,0,1-.56-1.791,9.229,9.229,0,0,1,.378-5.1c-1.725-6.918-8.366-10.56-12.2-11.23-6.544-1.178-12.94-3.212-19.041-4.794a.674.674,0,0,0-.734.608c-.367,3.607-.907,7.059.473,9.514.906,1.615.909,1.867,3.89,3.981a79.723,79.723,0,0,1-9.553,2.823,2.491,2.491,0,0,0-1.574,3.651c3.315,5.548,10.531,10.061,16.477,11.227A21.565,21.565,0,0,0,275.069,132.11Z"/><path class="d" d="M269.743,113.917a22.538,22.538,0,0,0-14.963.419A98.932,98.932,0,0,1,245.3,117.4c-1.472.378-3.035.615-4.171,1.722a4.966,4.966,0,0,0-1.5,3.871c.194,2.73,2.872,5.348,4.772,7.1a31.1,31.1,0,0,0,6.972,4.855,26,26,0,0,0,14.187,2.905,24.607,24.607,0,0,0,16.187-8.458c2.042-2.305-1.341-5.712-3.394-3.394a20.328,20.328,0,0,1-11.385,6.843,19.914,19.914,0,0,1-10.679-.95,24.506,24.506,0,0,1-10.877-7.746,11.231,11.231,0,0,1-.813-1.184s-.211-.48-.249-.218c.073-.5,2-.663,2.445-.778a72.1,72.1,0,0,0,8.383-2.675,21.6,21.6,0,0,1,7.521-1.761,17.769,17.769,0,0,1,5.766,1.008c2.955.926,4.219-3.706,1.276-4.628Z"/><path class="d" d="M253.83,114.719a10.872,10.872,0,0,1-1.1-.905c-.121-.117-.239-.237-.351-.363-.184-.206.134.233-.09-.134a7.5,7.5,0,0,1-1.022-2.187,10.951,10.951,0,0,1-.143-3.063,15.79,15.79,0,0,1,.384-3.775l-.617,1.059-.088.036-1.211.328a8.757,8.757,0,0,1,2.247.6c.89.242,1.778.489,2.666.735,1.806.5,3.61,1,5.423,1.474,1.833.479,3.673.932,5.525,1.33,1.351.29,2.741.464,4.067.857a14.2,14.2,0,0,1,5.285,2.956,12.584,12.584,0,0,1,3.969,6.3c.785,2.984,5.416,1.719,4.629-1.277a18.4,18.4,0,0,0-13.879-12.916c-4.79-.942-9.486-2.179-14.189-3.481q-1.659-.459-3.32-.908c-1.26-.338-2.521-.8-3.748-.085-2.038,1.186-1.809,4.485-1.932,6.551a12.716,12.716,0,0,0,1.176,6.778,12.257,12.257,0,0,0,3.9,4.228,2.417,2.417,0,0,0,3.284-.861,2.458,2.458,0,0,0-.861-3.284Z"/><path class="d" d="M281.558,115.174a6.478,6.478,0,0,0-2.355,2.5,10.776,10.776,0,0,0-1.06,4.039,12.93,12.93,0,0,0,1.723,7.106,2.421,2.421,0,0,0,3.284.861,2.451,2.451,0,0,0,.861-3.283c-.118-.219-.233-.439-.343-.662-.055-.112-.108-.225-.161-.339q-.163-.37.019.061a3.984,3.984,0,0,1-.4-1.181c-.058-.224-.1-.448-.138-.675-.094-.513.024.442-.013-.119a13.915,13.915,0,0,1-.05-1.4,2.162,2.162,0,0,1,.043-.645q-.073.5-.009.089c.021-.122.045-.244.071-.364a5.071,5.071,0,0,1,.393-1.264c-.326.609.037-.021.107-.136l.078-.124q.217-.312-.123.145c.109-.041.3-.309.39-.4q.286-.24-.146.107c.083-.059.167-.115.253-.17a2.4,2.4,0,0,0-2.423-4.145Z"/><path class="g" d="M336.045,96.028a36.8,36.8,0,0,1-2.272,6.946c-1.37,3.719-9.891,18.189-19.987,20.432"/><path class="a" d="M336.375,77.58a5.493,5.493,0,0,1,3.975-1.455,5.1,5.1,0,0,1,4.583,2.546c1.558,2.7,1.492,7.678.447,10.757-.741,2.181-1.954,5.517-4.877,7.909a5.911,5.911,0,0,1-5.2,1.229,39.674,39.674,0,0,1-8.059,14.483,33.837,33.837,0,0,1-26.094,12.043,54.253,54.253,0,0,1-8.095-1.081,31.527,31.527,0,0,1-18.163-10.734,39.663,39.663,0,0,1-7.871-14.689,5.93,5.93,0,0,1-5.119-1.251c-2.924-2.392-4.137-5.728-4.877-7.909-1.045-3.079-1.111-8.056.446-10.757a5.1,5.1,0,0,1,4.583-2.546,5.491,5.491,0,0,1,3.975,1.455S253.25,41.74,301.2,41.694,336.375,77.58,336.375,77.58Z"/><path class="g" d="M266.261,95.9a42.123,42.123,0,0,0,8.633,17.67c5.03,6.02,10.451,9.666,17.088,10.607"/><path class="h" d="M342.893,34.914a25.344,25.344,0,0,0-6.019-9.185,21.824,21.824,0,0,0-10.443-6.153c-4.353-1.179-10.414-1.32-14.216,1.105l-3.285,1.806a36.685,36.685,0,0,0-7.953-.436c-19.39-1.07-37.9,13.52-41.65,31.91a51.966,51.966,0,0,0,.04,17.4s.65,2.8,1.21,4.96a7.54,7.54,0,0,1,1.479-.2,5.223,5.223,0,0,1,5.3,3.621c23.216-2.323,35.74-13.178,48.908-24.2,5.14,2.935,10.745,9.3,12.944,12.987a81.955,81.955,0,0,1,5.732,11.617,5.2,5.2,0,0,1,5.407-4.023,6,6,0,0,1,2.668.665c2.069-7.129.709-17.439-.411-22.829-.14-.72-.32-1.44-.51-2.15l-.011-.04c2.4-3.721,2.812-8.8,1.89-13.138A25.78,25.78,0,0,0,342.893,34.914Z"/><path class="d" d="M294.94,113.218a24.123,24.123,0,0,0,6.524.808,26.662,26.662,0,0,0,4.4-.356,9.364,9.364,0,0,0,2.049-.546,2.648,2.648,0,0,0,1.434-1.1,2.451,2.451,0,0,0,.242-1.85c-.359-1.11-1.711-2.192-2.952-1.676a8.962,8.962,0,0,1-1.856.513c-.109.019-.218.038-.327.055l-.21.032.268-.037a3.076,3.076,0,0,0-.823.084c-.739.059-1.481.083-2.223.084-.711,0-1.422-.022-2.131-.073q-.456-.033-.911-.084c-.1-.011-.55-.064-.12-.013s.008,0-.087-.016a17.5,17.5,0,0,1-2-.451,2.4,2.4,0,1,0-1.276,4.629Z"/><path class="d" d="M300.079,96.078a32.505,32.505,0,0,1,.762,3.488l-.086-.638a2.039,2.039,0,0,1,.013.481l.086-.638a1.165,1.165,0,0,1-.053.217l.242-.574a.9.9,0,0,1-.076.14l.375-.486a.71.71,0,0,1-.114.112l.486-.375a2.288,2.288,0,0,1-.277.146l.574-.242a1.993,1.993,0,0,1-.466.136l.638-.086a1.825,1.825,0,0,1-.437,0l.638.085c-.165-.023-.326-.063-.491-.085a1.823,1.823,0,0,0-.957-.043,1.8,1.8,0,0,0-.893.285,2.4,2.4,0,0,0-.861,3.284,2.3,2.3,0,0,0,1.435,1.1c.429.057.846.165,1.283.184a4.191,4.191,0,0,0,1.96-.476,2.96,2.96,0,0,0,1.6-1.937,4.6,4.6,0,0,0-.016-2.018c-.19-1.123-.45-2.237-.739-3.339a2.4,2.4,0,0,0-2.952-1.676,2.426,2.426,0,0,0-1.434,1.1,2.518,2.518,0,0,0-.242,1.849Z"/><path class="d" d="M282.89,91.11a17.685,17.685,0,0,0,3.058.349,16.185,16.185,0,0,0,3.057-.313,2.426,2.426,0,0,0,1.434-1.1,2.4,2.4,0,0,0-.861-3.284,2.666,2.666,0,0,0-1.849-.242c-.256.05-.512.095-.77.13l.638-.085a11.459,11.459,0,0,1-2.989.01l.638.086c-.362-.05-.721-.114-1.08-.176a2.6,2.6,0,0,0-1.849.242,2.4,2.4,0,0,0-.861,3.283,2.337,2.337,0,0,0,1.434,1.1Z"/><path class="d" d="M318.208,86.479c-.3.05-.592.1-.889.139l.638-.085a11.367,11.367,0,0,1-3,.057l.638.086c-.308-.044-.613-.1-.918-.159a2.567,2.567,0,0,0-1.85.242,2.4,2.4,0,0,0-.861,3.284,2.38,2.38,0,0,0,1.435,1.1,13.156,13.156,0,0,0,3.063.317,23.9,23.9,0,0,0,3.019-.356,2.41,2.41,0,0,0,1.435-1.1,2.453,2.453,0,0,0,.242-1.849,2.426,2.426,0,0,0-1.1-1.434l-.574-.242a2.4,2.4,0,0,0-1.276,0Z"/><path class="d" d="M263.946,96.541a46.27,46.27,0,0,0,8.5,17.532,34.858,34.858,0,0,0,16.67,11.452,51.38,51.38,0,0,0,10.191,1.853,31.622,31.622,0,0,0,11.636-1.184,37.924,37.924,0,0,0,16.547-9.855,43.6,43.6,0,0,0,10.871-19.8c.752-3-3.876-4.275-4.628-1.276-2.906,11.577-10.775,21.731-22.259,25.717a31.727,31.727,0,0,1-9.43,1.682,37.843,37.843,0,0,1-9.823-1.273,29.511,29.511,0,0,1-14.769-8.851c-4.536-4.888-7.178-10.9-8.875-17.275-.794-2.982-5.426-1.717-4.629,1.276Z"/><path class="d" d="M262.892,75.683a49.539,49.539,0,0,1-1.867-11.9,38.967,38.967,0,0,1,1.92-13.884,39.131,39.131,0,0,1,17.717-20.545A38.425,38.425,0,0,1,294.1,24.72a46.968,46.968,0,0,1,6.873-.269,44.23,44.23,0,0,1,9.38.733A40.139,40.139,0,0,1,335.6,42.947a40.727,40.727,0,0,1,5.522,16.491c.726,5.463,1.088,11.354-.418,16.715-.837,2.979,3.793,4.251,4.629,1.277,1.526-5.433,1.358-11.3.726-16.86A49.935,49.935,0,0,0,341.77,44.2a44.871,44.871,0,0,0-25.327-22.277c-6.126-2.163-12.62-2.574-19.065-2.292A42.716,42.716,0,0,0,282.045,23.3a44.386,44.386,0,0,0-22.027,21.2,40.746,40.746,0,0,0-3.794,17.036,54.056,54.056,0,0,0,.5,8.633,64.537,64.537,0,0,0,1.541,6.788c.769,2.989,5.4,1.722,4.629-1.277Z"/><path class="d" d="M316.26,58.358c7.575,5.09,12.745,13.232,16.057,21.592a2.474,2.474,0,0,0,2.952,1.676,2.417,2.417,0,0,0,1.677-2.952c-3.805-9.605-9.557-18.611-18.263-24.46a2.4,2.4,0,1,0-2.423,4.144Z"/><path class="d" d="M313.8,54.5c-9.277,7.773-18.8,15.347-30.387,19.355A71.818,71.818,0,0,1,271.565,76.8a2.419,2.419,0,0,0-1.677,2.952,2.458,2.458,0,0,0,2.953,1.677,71.668,71.668,0,0,0,20.34-6.523,93.646,93.646,0,0,0,15.881-10.361c2.758-2.158,5.443-4.408,8.127-6.657a2.419,2.419,0,0,0,0-3.4,2.452,2.452,0,0,0-3.394,0Z"/><path class="d" d="M338.072,79.277a3.337,3.337,0,0,1,2.877-.687,2.72,2.72,0,0,1,1.354.578c-.324-.24.687.888.3.314,1.172,1.756,1.25,4.257,1.062,6.444a16.209,16.209,0,0,1-1.981,6.166c-1.215,2.241-3.055,4.558-5.858,4.194a2.412,2.412,0,0,0-2.4,2.4,2.461,2.461,0,0,0,2.4,2.4c6.415.832,10.349-6.1,11.951-11.288,1.435-4.643,1.386-11.868-3.158-14.843a8.349,8.349,0,0,0-9.945.928,2.4,2.4,0,0,0,3.394,3.394Z"/><path class="h" d="M128.25,53.73c-.132-.588-.291-1.172-.47-1.751q-.105-.343-.227-.683c-1.651-.486-3.109-.92-3.109-.92-8.761-2.808-30.83-10.366-39.086-10.691l-3.7,2.455c-6.807,1.395-12.755,5.929-16.592,11.723a22.85,22.85,0,0,0-3.6,9.882,5.325,5.325,0,0,0-5.562-4.256,6.313,6.313,0,0,0-2.474.553A46.859,46.859,0,0,1,51.665,45.5c.748-17.723,4.392-24.73,16.586-31.166C74.671,5.9,85.794,1.991,96.465,2.465c12.256.545,21.95,4.194,29.755,10.385a41.673,41.673,0,0,1,13.758,21.111,48.569,48.569,0,0,1-.136,27.057,5.5,5.5,0,0,0-3.871-1.529,5.622,5.622,0,0,0-4.064,1.488l-3.077,2.955c-.048-2.952.011-5.134-.215-7.864A17.214,17.214,0,0,0,128.25,53.73Z"/><path class="d" d="M267.728,75.883a8.393,8.393,0,0,0-9.136-1.364,7.977,7.977,0,0,0-4.178,5.374,20.13,20.13,0,0,0,2.924,15.887c2.057,3.061,5.3,5.817,9.239,5.306a2.479,2.479,0,0,0,2.4-2.4,2.414,2.414,0,0,0-2.4-2.4c-2.8.364-4.643-1.953-5.858-4.194a16.192,16.192,0,0,1-1.982-6.166c-.187-2.183-.11-4.693,1.063-6.444-.391.583.624-.552.3-.314a2.6,2.6,0,0,1,1.194-.544,3.375,3.375,0,0,1,3.037.653,2.456,2.456,0,0,0,3.394,0,2.423,2.423,0,0,0,0-3.394Z"/><path class="d" d="M81.022,39.825a28.366,28.366,0,0,0-14.456,8.323A27.407,27.407,0,0,0,59,64.4a2.415,2.415,0,0,0,2.4,2.4,2.454,2.454,0,0,0,2.4-2.4c1.031-9.684,9.088-17.941,18.5-19.945a2.4,2.4,0,1,0-1.276-4.629Z"/><path class="d" d="M133.6,62.674a3.479,3.479,0,0,1,2.994-.717,2.915,2.915,0,0,1,1.4.6c-.3-.223.7.894.33.34,1.223,1.819,1.284,4.393,1.094,6.617a16.662,16.662,0,0,1-2.034,6.333c-1.25,2.307-3.152,4.69-6.037,4.315a2.412,2.412,0,0,0-2.4,2.4,2.46,2.46,0,0,0,2.4,2.4c6.535.848,10.537-6.223,12.169-11.5,1.46-4.723,1.42-12.088-3.2-15.117a8.482,8.482,0,0,0-10.1.94,2.4,2.4,0,1,0,3.394,3.394Z"/><path class="d" d="M61.67,59.28a8.525,8.525,0,0,0-9.277-1.386,8.105,8.105,0,0,0-4.247,5.463,20.53,20.53,0,0,0,2.984,16.2c2.094,3.116,5.394,5.919,9.4,5.4a2.478,2.478,0,0,0,2.4-2.4,2.414,2.414,0,0,0-2.4-2.4c-2.884.375-4.786-2.008-6.037-4.315a16.633,16.633,0,0,1-2.034-6.333c-.19-2.22-.13-4.8,1.094-6.617-.379.561.621-.558.33-.34a2.79,2.79,0,0,1,1.233-.562,3.515,3.515,0,0,1,3.159.681,2.455,2.455,0,0,0,3.394,0,2.423,2.423,0,0,0,0-3.394Z"/><path class="d" d="M89.549,97.368a24.546,24.546,0,0,0,6.658.824,17.456,17.456,0,0,0,6.578-.92,2.647,2.647,0,0,0,1.434-1.1,2.453,2.453,0,0,0,.242-1.849c-.36-1.111-1.711-2.193-2.952-1.677a9.181,9.181,0,0,1-1.9.525c-.111.02-.223.039-.335.056-.072.012-.143.023-.215.033l.26-.036c-.094-.072-.71.075-.842.085-.755.062-1.514.086-2.272.086-.727,0-1.455-.021-2.18-.074-.311-.023-.621-.051-.931-.086-.093-.01-.557-.063-.13-.014s0,0-.1-.018a17.863,17.863,0,0,1-2.044-.461,2.4,2.4,0,0,0-1.276,4.629Z"/><path class="d" d="M94.842,79.879a33.252,33.252,0,0,1,.78,3.567l-.086-.638a2.131,2.131,0,0,1,.013.492l.086-.638a1.189,1.189,0,0,1-.054.221l.242-.573a.941.941,0,0,1-.078.143l.375-.486a.8.8,0,0,1-.117.115l.486-.376a2.306,2.306,0,0,1-.282.15l.573-.242a2.079,2.079,0,0,1-.476.139l.638-.086a1.857,1.857,0,0,1-.447,0l.638.086c-.168-.023-.334-.064-.5-.087a1.823,1.823,0,0,0-.957-.043,1.778,1.778,0,0,0-.893.285,2.4,2.4,0,0,0-.861,3.283,2.292,2.292,0,0,0,1.435,1.1c.434.059.855.168,1.3.187A4.247,4.247,0,0,0,98.629,86a2.977,2.977,0,0,0,1.614-1.949,4.654,4.654,0,0,0-.017-2.034c-.194-1.149-.46-2.288-.755-3.415a2.476,2.476,0,0,0-1.1-1.434,2.4,2.4,0,0,0-3.284.861,2.523,2.523,0,0,0-.242,1.849Z"/><path class="d" d="M77.227,74.761a18.026,18.026,0,0,0,3.112.355,16.348,16.348,0,0,0,3.112-.319,2.424,2.424,0,0,0,1.435-1.1,2.453,2.453,0,0,0,.242-1.849,2.426,2.426,0,0,0-1.1-1.434,2.663,2.663,0,0,0-1.85-.242c-.261.051-.523.1-.787.133l.638-.086a11.717,11.717,0,0,1-3.057.011l.638.086c-.369-.052-.736-.117-1.1-.18a2.59,2.59,0,0,0-1.849.242,2.4,2.4,0,0,0-.861,3.283,2.34,2.34,0,0,0,1.434,1.1Z"/><path class="d" d="M113.344,70.13c-.3.051-.606.1-.91.142l.638-.085a11.576,11.576,0,0,1-3.066.058l.638.086c-.315-.045-.628-.1-.94-.162a2.564,2.564,0,0,0-1.849.242,2.4,2.4,0,0,0-.861,3.283,2.371,2.371,0,0,0,1.434,1.1,13.312,13.312,0,0,0,3.119.323,24.434,24.434,0,0,0,3.073-.362,2.408,2.408,0,0,0,1.434-1.1,2.4,2.4,0,0,0-.861-3.284l-.573-.241a2.4,2.4,0,0,0-1.276,0Z"/><path class="d" d="M57.893,80.353a47.357,47.357,0,0,0,8.544,17.741,35.755,35.755,0,0,0,16.851,11.765A51.328,51.328,0,0,0,94,111.847a32.207,32.207,0,0,0,11.693-1.153,38.776,38.776,0,0,0,16.968-10,44.477,44.477,0,0,0,11.223-20.344c.752-3-3.876-4.275-4.628-1.276-2.979,11.874-11.06,22.274-22.84,26.349a32.5,32.5,0,0,1-9.663,1.71,38.751,38.751,0,0,1-9.986-1.3A30.24,30.24,0,0,1,71.6,96.748c-4.635-5-7.338-11.152-9.073-17.671-.794-2.982-5.426-1.717-4.629,1.276Z"/><path class="d" d="M125.082,48.062c-5.727-1.838-11.431-3.745-17.182-5.506a145.821,145.821,0,0,0-18.452-4.789c-2.2-.367-4.876-.906-7.069-.177-2.917.969-1.667,5.606,1.276,4.628.131-.043.265-.068.4-.109.524-.161-.366-.015-.047,0,.407.018.826-.04,1.236-.028.439.014.876.047,1.312.091.26.026.519.057.778.09-.543-.07.336.053.513.081,2.8.447,5.566,1.121,8.309,1.838,6.465,1.689,12.844,3.706,19.2,5.762,2.819.912,5.632,1.843,8.453,2.748,2.948.946,4.211-3.687,1.276-4.628Z"/><path class="d" d="M120.975,45.6a17.379,17.379,0,0,1,5.062,9.252c.689,3.495.331,7.271.433,10.815.089,3.082,4.889,3.095,4.8,0-.12-4.141.206-8.426-.69-12.5A21.941,21.941,0,0,0,124.369,42.2c-2.212-2.159-5.609,1.232-3.394,3.395Z"/><path class="d" d="M71.017,14.721c9.934-11.275,26.715-11.653,40.1-7.295,12.445,4.052,22.753,13.765,26.363,26.481a48.314,48.314,0,0,1,.261,25.7c-.779,2.992,3.85,4.268,4.629,1.276,3.954-15.182,1.353-31.763-8.706-44.043a45.187,45.187,0,0,0-18.6-13.082A53.816,53.816,0,0,0,91.206.186c-8.862.8-17.616,4.368-23.583,11.14-2.035,2.31,1.347,5.718,3.394,3.395Z"/><path class="d" d="M55.577,58.722a55.263,55.263,0,0,1-.16-25.189c1.294-5.741,3.956-10.376,8.634-13.809a2.473,2.473,0,0,0,.861-3.284,2.419,2.419,0,0,0-3.284-.861,26.776,26.776,0,0,0-9.476,12.112c-2.285,5.91-2.8,12.641-2.921,18.92A52.353,52.353,0,0,0,50.948,60c.733,3,5.363,1.729,4.629-1.276Z"/><path class="d" d="M313.429,22.754c2.644-1.623,5.9-1.775,8.916-1.5a20.367,20.367,0,0,1,8.523,2.725,23.7,23.7,0,0,1,10.873,15.677,15.392,15.392,0,0,1-1.726,10.905c-1.633,2.632,2.517,5.045,4.145,2.423,4.457-7.185,2.916-16.835-1.387-23.713a26.744,26.744,0,0,0-18.858-12.63c-4.327-.6-9.093-.373-12.909,1.969-2.629,1.613-.22,5.766,2.423,4.145Z"/></svg>