<?xml version="1.0" encoding="utf-8"?>
<!-- Uploaded to: SVG Repo, www.svgrepo.com, Generator: SVG Repo Mixer Tools -->
<svg width="800px" height="800px" viewBox="0 -27.69 414.455 414.455" xmlns="http://www.w3.org/2000/svg"><defs><style>.a{fill:#ffffff;}.b{fill:#7a7473;}.c{fill:#211715;}.d{fill:#d8e8f5;}.e{fill:#d9d9d9;}.f{fill:#7abee6;}.g{fill:#fec578;}.h{fill:none;}</style></defs><path class="a" d="M374.5,284.84a5.806,5.806,0,0,1,4.2-.87,5.237,5.237,0,0,1,4.311,3.052c1.23,2.805.54,7.581-.907,10.408a15.182,15.182,0,0,1-5.82,6.683,11.156,11.156,0,0,1-5.532,1.2c-.2.451-.346.785-.346.785-.715,1.447-2.4,3.973-2.4,3.973a52.183,52.183,0,0,1-5.451,6.721q.771,2.245,1.547,4.494a20.335,20.335,0,0,0,1.688,3.966c2.008,3.319,6.285,5.073,9.77,6.777.6.292,1.26.588,1.954.884l-1.8,1.322a57.315,57.315,0,0,1-33.762,11.385,32.471,32.471,0,0,1-13.42-2.486,21.1,21.1,0,0,1-9.759-8.749c2.1-.7,4.131-1.4,5.58-2.017a8.1,8.1,0,0,0,4.7-4.169,29.6,29.6,0,0,1-15.293-7.08c-6.337-5.317-9.021-13.611-9.912-22.757-.514-5.274-.946-11-1.631-16.734,0,0-6.73-26.337,27.9-28.767C372.258,249.9,374.5,284.84,374.5,284.84Z"/><path class="b" d="M385.85,259.357c-1.783-7.163-4.5-13.031-10.065-18.166l-1.1-1.018-5.784-4.1a39.949,39.949,0,0,0-26.54-7.762q-2.082.1-4.08.35c-11.768,1.44-21.3,6.489-27.912,14.276a30.8,30.8,0,0,0-2.3,3.09A43.932,43.932,0,0,0,301.9,261.7a51.338,51.338,0,0,0-.695,6.531,19.3,19.3,0,0,1,4.013-.439l7.327-.006h0c11.394-.01,29.812-.026,43.746-.023l0,0,4.6,0a8.818,8.818,0,0,1,8.6,6.925l16.563-4.368a25.444,25.444,0,0,1,.511,4.321c.131-1.685.209-3.176.282-4.259A35.925,35.925,0,0,0,385.85,259.357Z"/><path class="c" d="M360.628,317.318a70.444,70.444,0,0,0,2.919,7.992,13.488,13.488,0,0,0,4.946,5.27c4.041,2.647,8.723,4.347,13.171,6.16a2.012,2.012,0,0,0,2.46-1.4,2.049,2.049,0,0,0-1.4-2.46,78.575,78.575,0,0,1-11.722-5.444,10,10,0,0,1-3.924-3.988,57.916,57.916,0,0,1-2.6-7.2,2.048,2.048,0,0,0-2.46-1.4,2.019,2.019,0,0,0-1.4,2.46Z"/><path class="c" d="M312.394,338.674c3.211-1.209,6.5-2.187,9.737-3.333a28.778,28.778,0,0,0,4.637-1.874,9.886,9.886,0,0,0,4.012-4.264,2.056,2.056,0,0,0-.717-2.736,2.018,2.018,0,0,0-2.737.718c-1.337,2.83-4.218,3.593-6.96,4.545-3.006,1.044-6.057,1.965-9.035,3.086a2.056,2.056,0,0,0-1.4,2.461,2.016,2.016,0,0,0,2.46,1.4Z"/><path class="c" d="M374.371,242.605c4.883,4.564,7.741,10.286,9.4,16.7,1.62,6.254,1.24,12.813.413,19.17a25.082,25.082,0,0,1-2.6,9.253c-1.285,2.236,2.17,4.253,3.454,2.019,3.076-5.355,3.363-12.1,3.731-18.116a43.964,43.964,0,0,0-4.306-22.135,33.552,33.552,0,0,0-7.268-9.72c-1.879-1.756-4.714,1.066-2.828,2.828Z"/><path class="c" d="M326.076,312.9a12.686,12.686,0,0,0,6.067,1.319,12.4,12.4,0,0,0,3.049-.4,22.984,22.984,0,0,0,3.269-1.416,2.007,2.007,0,0,0,.718-2.736,2.059,2.059,0,0,0-2.737-.718c-.449.2-.886.425-1.329.639-.107.052-.215.1-.322.152-.49.232.213-.059-.068.029-.177.056-.349.123-.528.174s-.365.1-.55.134c-.095.02-.19.038-.286.055-.054.009-.388.063-.1.02s-.054,0-.11.009c-.1.01-.2.019-.305.026-.233.017-.467.027-.7.031-.421.006-.843-.008-1.263-.043-.1-.008-.209-.02-.314-.029-.286-.026-.032.047.065.013a1.789,1.789,0,0,1-.61-.1,10.285,10.285,0,0,1-1.222-.315c-.09-.029-.179-.06-.268-.092-.059-.022-.36-.1-.081-.025s0,0-.067-.033c-.1-.049-.193-.1-.288-.146a2,2,0,1,0-2.019,3.454Z"/><path class="c" d="M338.944,291.184c-.481-1.87.089-6.1,3.6-6.291,4.616.245,4.62,5.385,2.953,7.723C344.13,294.53,340.35,295.175,338.944,291.184Z"/><path class="c" d="M311.492,290.755c-.438-1.876.089-6.114,3.3-6.316,4.227.239,4.224,5.4,2.693,7.743C316.237,294.105,312.774,294.757,311.492,290.755Z"/><path class="c" d="M325.534,295.173c-.606.991-1.19,2-1.707,3.042a4.66,4.66,0,0,0-.561,1.778,2.623,2.623,0,0,0,.835,2.068,4.024,4.024,0,0,0,1.6.954,6.709,6.709,0,0,0,1.207.178l-.532-.072.091.014a2.182,2.182,0,0,0,1.541-.2,2,2,0,0,0,.718-2.736,1.941,1.941,0,0,0-1.2-.919c-.321-.052-.645-.082-.967-.122l.531.071a2.068,2.068,0,0,1-.506-.135l.477.2a2.162,2.162,0,0,1-.377-.228l.405.312a2.254,2.254,0,0,1-.312-.3l.313.4a.545.545,0,0,1-.065-.112l.2.477a.92.92,0,0,1-.046-.186l.072.531a1.228,1.228,0,0,1,.006-.2l-.072.532a2.039,2.039,0,0,1,.121-.418l-.2.478a27.022,27.022,0,0,1,1.875-3.393,2,2,0,1,0-3.454-2.019Z"/><path class="c" d="M360.139,321.727a50.049,50.049,0,0,0,7.887-8.3,41.115,41.115,0,0,0,4.1-6.325,2.05,2.05,0,0,0-.718-2.737,2.02,2.02,0,0,0-2.736.718,40.7,40.7,0,0,1-3.963,6.14,47.437,47.437,0,0,1-7.4,7.673,2.014,2.014,0,0,0,0,2.828,2.044,2.044,0,0,0,2.828,0Z"/><path class="c" d="M369.909,234.346a43.133,43.133,0,0,0-21.735-7.984,52.075,52.075,0,0,0-21.317,2.942,42.85,42.85,0,0,0-16.512,10.665,41.865,41.865,0,0,0-10.111,19.849,63.072,63.072,0,0,0,.2,25.341c.508,2.522,4.364,1.454,3.857-1.063-2.647-13.151-1.576-28.9,7.367-39.6,8.3-9.929,21.18-14.417,33.888-14.248A39.388,39.388,0,0,1,367.89,237.8c2.111,1.482,4.112-1.985,2.019-3.454Z"/><path class="c" d="M350.125,322.535c-9,3.992-19.583,5.814-28.742,1.247a26.122,26.122,0,0,1-10.537-9.023,34.659,34.659,0,0,1-4.6-13.3c-1.038-6.551-1.241-13.249-2.02-19.837a2.061,2.061,0,0,0-2-2,2.012,2.012,0,0,0-2,2c.754,6.375,1.07,12.806,1.915,19.169A40.284,40.284,0,0,0,306.915,316c5.411,9.2,16.211,14.572,26.731,14.482a46.579,46.579,0,0,0,18.5-4.493,2.015,2.015,0,0,0,.717-2.737,2.049,2.049,0,0,0-2.736-.717Z"/><path class="c" d="M375.507,286.567a4.222,4.222,0,0,1,3.943-.344,2.727,2.727,0,0,1,1.714,1.56c.079.169.082.17.011,0,.062.161.117.323.166.488a6.83,6.83,0,0,1,.238,1.058,10.763,10.763,0,0,1,.056,1.813,14.432,14.432,0,0,1-.872,4.376,13.815,13.815,0,0,1-4.455,6.186,6.93,6.93,0,0,1-3.195,1.42,6.109,6.109,0,0,1-3.81-.164,2.055,2.055,0,0,0-2.736.718,2.016,2.016,0,0,0,.717,2.736,11.116,11.116,0,0,0,8.891-.06,14.721,14.721,0,0,0,6.67-6.132,18.889,18.889,0,0,0,2.742-8.314c.226-2.636-.154-5.507-1.955-7.556a8.179,8.179,0,0,0-10.144-1.24c-2.153,1.394-.151,4.858,2.019,3.453Z"/><path class="a" d="M369.109,274.793l16.949-4.47a34.486,34.486,0,0,1,.515,8.862c-.249,5.656-1.6,8.51-1.6,8.51l-15.217,4.013"/><path class="c" d="M369.64,276.721l16.949-4.469-2.46-1.4c.044.181.078.366.111.549.041.226.077.452.11.679.027.181.024.186,0,0q.039.314.071.627a43.55,43.55,0,0,1,.16,6.266,28.651,28.651,0,0,1-.805,5.947c-.139.548-.3,1.092-.489,1.624-.024.067-.178.347-.152.4.054.11.232-.524.109-.261l1.195-.919-15.217,4.012c-2.487.656-1.432,4.515,1.063,3.857l12.75-3.362c1.022-.269,2.577-.391,3.35-1.165a2.749,2.749,0,0,0,.594-1.065,16.9,16.9,0,0,0,.682-2.166,38.388,38.388,0,0,0,.935-10.58,27.672,27.672,0,0,0-.611-5.506,2.028,2.028,0,0,0-2.46-1.4l-16.949,4.469c-2.487.656-1.432,4.515,1.063,3.857Z"/><path class="a" d="M360.891,267.766c-17.575-.02-46.172.014-55.678.021a19.164,19.164,0,0,0-6.431,1.105q-1.635.584-3.252,1.213a8.827,8.827,0,0,0-5.59,8.371c.074,4.781.175,9.251.191,15.866a8.821,8.821,0,0,0,8.818,8.806l53.713,0a31.907,31.907,0,0,0,11.459-2.125l.123-.048a8.818,8.818,0,0,0,5.658-8.322c-.055-5.144-.135-11.29-.2-16.186A8.816,8.816,0,0,0,360.891,267.766Z"/><path class="c" d="M360.891,265.766q-21.087-.023-42.173.009l-8.493.008a60.482,60.482,0,0,0-7.582.177,28.136,28.136,0,0,0-6.429,1.75,13.746,13.746,0,0,0-5,2.847c-2.8,2.718-3.3,6.165-3.239,9.88.064,3.84.127,7.68.149,11.52a17.385,17.385,0,0,0,.6,5.887,10.83,10.83,0,0,0,7.195,6.871,19.529,19.529,0,0,0,5.586.433h47.174a55.271,55.271,0,0,0,10.574-.65c3.837-.74,7.92-1.957,10.4-5.173,2.534-3.29,2.251-7.089,2.2-11.018q-.041-3.379-.085-6.759a60.386,60.386,0,0,0-.144-6.123,10.885,10.885,0,0,0-5.649-8.382,11.351,11.351,0,0,0-5.084-1.275c-2.575-.053-2.575,3.947,0,4a6.914,6.914,0,0,1,6.31,4.224,13.357,13.357,0,0,1,.532,4.946q.041,2.991.078,5.982.038,3.016.072,6.032a10.455,10.455,0,0,1-.557,4.555c-1.457,3.271-5.013,4.226-8.222,4.943a44.028,44.028,0,0,1-9.727.7H300.861a11.643,11.643,0,0,1-4.481-.484,6.981,6.981,0,0,1-4.25-6.568c-.033-3.718-.055-7.436-.116-11.154-.049-2.966-.6-6.281,1.334-8.8a7.961,7.961,0,0,1,3.726-2.5,26.956,26.956,0,0,1,5.8-1.715,51.6,51.6,0,0,1,6.981-.146l7.59-.007q19.558-.017,39.117-.014l4.328,0C363.464,269.769,363.468,265.769,360.891,265.766Z"/><path class="c" d="M353.006,280.551c.068,5,.013,10,.012,15,0,2.574,4,2.578,4,0,0-5,.056-10-.012-15-.035-2.572-4.035-2.579-4,0Z"/><path class="c" d="M307.39,277.612c12.2,0,24.409-.034,36.614,0,1.516,0,3.04-.025,4.555.034,2.575.1,2.57-3.9,0-4-3.81-.149-7.645-.042-11.457-.044q-10.137-.006-20.272,0-4.72,0-9.44,0c-2.574,0-2.578,4,0,4Z"/><path class="a" d="M286.954,350.4a50.562,50.562,0,0,1,3.829-4.271c5.472-5.483,16.122-9.481,23.946-11.783.738-.217,2.476-.663,3.55-.936a20.852,20.852,0,0,0,10.258,9.722,32.471,32.471,0,0,0,13.42,2.486,57.315,57.315,0,0,0,33.762-11.385l1.861-1.467.8-.632c9.661,3.441,18.193,7.576,24.209,12.618a50.454,50.454,0,0,1,9.857,11.6l.412.736H282.449A49.371,49.371,0,0,1,286.954,350.4Z"/><path class="c" d="M318.652,331.251A107.362,107.362,0,0,0,302.5,336.6c-5.57,2.383-10.728,5.395-14.836,9.9a53.074,53.074,0,0,0-6.94,9.579c-1.27,2.243,2.184,4.261,3.454,2.018,2.694-4.756,6.24-9.636,10.747-12.856,5.274-3.769,11.5-6.169,17.636-8.134,2.363-.757,4.752-1.392,7.157-2,2.5-.626,1.438-4.485-1.064-3.857Z"/><path class="c" d="M316.5,334.343c4.4,8.854,13.789,12.8,23.246,13.226a57.911,57.911,0,0,0,28.579-6.429,64.2,64.2,0,0,0,10.666-6.961,2.01,2.01,0,0,0,0-2.828,2.049,2.049,0,0,0-2.828,0,57.658,57.658,0,0,1-20.429,10.4,52.725,52.725,0,0,1-12.93,1.86c-4.533.077-9.258-.37-13.427-2.282a19.389,19.389,0,0,1-9.423-9c-1.146-2.306-4.6-.282-3.454,2.018Z"/><path class="c" d="M373.17,332.471c14.325,4.653,29.727,11.152,37.552,24.886,1.275,2.237,4.732.224,3.454-2.019-8.361-14.674-24.61-21.744-39.942-26.724-2.454-.8-3.506,3.064-1.064,3.857Z"/><path class="a" d="M142.019,2C224.8,2,282.013,66.113,282.013,141.135c0,34.347-9.788,64.316-26.94,87.742a4.506,4.506,0,0,0-.628,4.18c3.411,9.532,7.453,20.686,11.511,32.164a1,1,0,0,1-1.279,1.278c-11.4-4.029-22.475-8.043-31.961-11.438a4.513,4.513,0,0,0-4.221.653c-23.272,17.373-52.919,27.166-86.482,27.166-84.695,0-140-58.345-140-141.745C2.013,65.6,59.531,2,142.019,2Z"/><path class="c" d="M142.019,4c22.018.029,44.005,4.7,63.743,14.584A132.855,132.855,0,0,1,252.3,57.258,138.108,138.108,0,0,1,277.115,112.4a154.306,154.306,0,0,1-2.792,71.845,136.673,136.673,0,0,1-14.839,34.443q-2.323,3.813-4.9,7.461a12.228,12.228,0,0,0-2.186,3.783,8.046,8.046,0,0,0,.59,4.965q3.681,10.275,7.374,20.546.915,2.559,1.826,5.119a31.876,31.876,0,0,1,1.9,5.58v-1.064l.45-.451H265.6a25.9,25.9,0,0,1-4.58-1.543q-2.461-.874-4.92-1.753-4.659-1.665-9.316-3.339l-8.588-3.086c-2.628-.944-5.556-2.562-8.416-1.935-2.532.556-4.76,2.842-6.864,4.274q-3.228,2.2-6.584,4.2a132.811,132.811,0,0,1-14.42,7.429c-20.52,9.038-43.125,12.609-65.455,11.924a152.219,152.219,0,0,1-52.4-10.618,124.656,124.656,0,0,1-40.639-26.554,126.982,126.982,0,0,1-27.208-40A152.416,152.416,0,0,1,4.357,152.4a149.019,149.019,0,0,1,6.054-53.657,135.431,135.431,0,0,1,24.406-45.5A133.155,133.155,0,0,1,74.926,20.286,139.163,139.163,0,0,1,127.4,4.68c4.859-.457,9.738-.674,14.619-.68,2.573,0,2.578-4,0-4A150.979,150.979,0,0,0,96.182,6.988,136.615,136.615,0,0,0,27.537,56.135,139.647,139.647,0,0,0,7.964,93.4,145.542,145.542,0,0,0,.1,136.038,169.906,169.906,0,0,0,4.38,180.306a143.145,143.145,0,0,0,14.827,38.261A126.489,126.489,0,0,0,76.654,271.3a146.21,146.21,0,0,0,40.512,11.818,170.817,170.817,0,0,0,50.944-.292,141.912,141.912,0,0,0,49.864-17.708q5.5-3.252,10.663-7.036c.836-.613,1.657-1.364,2.767-1.276a13.536,13.536,0,0,1,3.222,1.059q3.366,1.206,6.73,2.417,7.352,2.643,14.708,5.274c2.586.923,5.177,2.03,7.818,2.779a3.05,3.05,0,0,0,4-3.645,76.939,76.939,0,0,0-2.758-7.761q-1.35-3.786-2.709-7.569-2.466-6.875-4.938-13.749c-.391-1.089-.87-2.182-1.171-3.3a3.056,3.056,0,0,1,.74-2.767c1.226-1.731,2.451-3.459,3.613-5.234q3.459-5.283,6.4-10.881a149.172,149.172,0,0,0,15.606-50.671,157.714,157.714,0,0,0-1.2-48.91,142.334,142.334,0,0,0-14.009-40.165A138.152,138.152,0,0,0,242.468,40,136.332,136.332,0,0,0,207.781,15.13,142.042,142.042,0,0,0,165.144,1.72,158.546,158.546,0,0,0,142.019,0C139.445,0,139.441,4,142.019,4Z"/><path class="d" d="M62.13,174.007Q43.9,184.533,25.666,195.059c-2.228,1.287-.216,4.745,2.019,3.454q18.231-10.527,36.463-21.052c2.229-1.287.217-4.745-2.018-3.454Z"/><path class="d" d="M173.267,109.871Q153.231,121.432,133.2,133c-2.229,1.286-.217,4.744,2.019,3.453q20.031-11.564,40.067-23.124c2.229-1.286.217-4.744-2.019-3.453Z"/><path class="d" d="M176.276,111.6V30.768c0-2.574-4-2.578-4,0V111.6c0,2.573,4,2.578,4,0Z"/><path class="d" d="M268.547,163.7q-35.748-20.639-71.5-41.273l-21.761-12.56c-2.234-1.29-4.251,2.166-2.019,3.453q36.984,21.348,73.968,42.7l19.293,11.138c2.233,1.29,4.25-2.166,2.019-3.454Z"/><path class="d" d="M108.44,47.4,92.732,56.469,62.277,74.052,41.213,86.214c-.935.539-1.8.95-1.888,2.246-.048.747,0,1.514,0,2.262v43.521a2.02,2.02,0,0,0,3.01,1.727L58.042,126.9,88.5,109.318l21.065-12.162c.934-.539,1.8-.95,1.887-2.245.049-.748,0-1.515,0-2.263V49.127c0-2.573-4-2.578-4,0V94.912l.991-1.727L85.453,106.456,48.78,127.629l-8.464,4.887,3.009,1.727V88.459l-.99,1.727L65.321,76.915l36.673-21.174,8.464-4.887C112.687,49.568,110.675,46.11,108.44,47.4Z"/><path class="d" d="M106.92,48.278,91.24,57.331,61.18,74.686,41.348,86.136a3.541,3.541,0,0,0-2.023,2.955c-.056.937,0,1.894,0,2.832v31.865c0,2.874-.18,5.813,0,8.683.165,2.625,2.7,3.612,4.827,2.449.757-.413,1.5-.863,2.242-1.294l9.8-5.659,29.7-17.146,22.493-12.986c.508-.293,1.044-.561,1.532-.885,1.355-.9,1.531-2.146,1.531-3.576V51.68c0-.254.016-.514,0-.768a3.035,3.035,0,0,0-4.051-2.836,2.059,2.059,0,0,0-1.4,2.46,2.014,2.014,0,0,0,2.46,1.4c-3.322,1.288-.823-1.7-1.012-.915a2.162,2.162,0,0,0,0,.455V90c0,1.277-.077,2.582,0,3.858a1.593,1.593,0,0,0,0,.378c.156.429-.653-.719.476-.753-.1,0-.268.163-.359.207-2.182,1.057-4.257,2.458-6.355,3.669l-11.94,6.894L59.909,121.2l-11.758,6.788-3.909,2.257a12.129,12.129,0,0,0-2.124,1.227c-.049.044-.174.063-.207.119-.257.431,1.623.655,1.414.891.069-.078,0-.523,0-.622V90.843c0-.456.039-.931,0-1.385-.08-.956.283.406-.469.427.359-.01,1.041-.6,1.341-.775l3.263-1.883,10.875-6.279L87.568,64.071,107.9,52.331l1.039-.6C111.168,50.445,109.156,46.987,106.92,48.278Z"/><path class="a" d="M132.6,142.936c0-8.175,0-31.55,0-31.55l26.143-14.917a1.478,1.478,0,0,1,1.473,0l67.824,39.161v33.743a.733.733,0,0,1-.368.639l-26.5,15.3a.732.732,0,0,1-.735,0l-67.472-38.955a.734.734,0,0,1-.367-.639Z"/><path class="e" d="M177.56,130.554l20.616,11.9a.325.325,0,0,0,.322,0l14.056-8.116a.321.321,0,0,0,0-.557l-20.616-11.9a.32.32,0,0,0-.322,0L177.56,130A.322.322,0,0,0,177.56,130.554Z"/><path class="f" d="M146.906,112.856l18.522,10.7a1.615,1.615,0,0,0,1.611,0L179,116.645a1.289,1.289,0,0,0,0-2.232L160.48,103.718a1.61,1.61,0,0,0-1.611,0l-11.963,6.907A1.288,1.288,0,0,0,146.906,112.856Z"/><path class="c" d="M198.8,158.443v26.969c0,2.574,4,2.578,4,0V158.443c0-2.574-4-2.578-4,0Z"/><path class="c" d="M134.6,142.936v-28.57q0-1.489,0-2.98l-.99,1.727,21.69-12.377,3.6-2.052c.165-.094.636-.257.744-.425.14-.216-.367-.007-.373-.025.067.186.827.478,1,.577L162.5,100.1l41.719,24.088,22.807,13.168-.991-1.727v32.758c0,.125-.095.863,0,.949-.248-.224,1.12-1.162.285-.857a6.047,6.047,0,0,0-.838.484L212.788,176.3l-7.844,4.529-2.942,1.7a14.27,14.27,0,0,1-1.732.961h1.063c.145.039-.231-.095-.375-.178l-.673-.389-1.871-1.08-5.564-3.212-15.941-9.2L142.4,149.5l-5.929-3.423-1.832-1.057a2.374,2.374,0,0,0-.586-.339c-.431-.068.4,1.434.542.939a2.164,2.164,0,0,0,0-.515v-2.166c0-2.574-4-2.578-4,0,0,1.306-.289,3.1.443,4.266a4.044,4.044,0,0,0,1.551,1.25L135.263,150l9.38,5.416,27.025,15.6,23.295,13.449,3.147,1.817c1.385.8,2.6,1.525,4.243.658,3.77-1.983,7.407-4.276,11.1-6.405l13.24-7.645c1.515-.874,3.227-1.558,3.346-3.572.06-1.019,0-2.059,0-3.079V137.516c0-.623.041-1.261,0-1.883-.1-1.515-1.574-2.064-2.721-2.726l-5.593-3.229-14.084-8.133-30.36-17.529-11.093-6.405c-1.628-.94-3.234-1.982-4.911-2.836a4.217,4.217,0,0,0-4.306.4l-4.706,2.685-14.914,8.511-5.761,3.287a2.011,2.011,0,0,0-.991,1.727q.011,12.182,0,24.364v7.186C130.6,145.51,134.6,145.514,134.6,142.936Z"/><path class="c" d="M138.118,117.943l43.612,25.182,15.334,8.853c.612.353,1.215.744,1.845,1.066a3.9,3.9,0,0,0,3.875-.141c1.816-.994,3.591-2.073,5.384-3.108L221.661,142c2.229-1.287.217-4.745-2.019-3.454l-11.209,6.472-6.576,3.8a9.134,9.134,0,0,0-1.372.792c-.026-.2.714.169.055-.246-.3-.19-.622-.359-.932-.537l-35.79-20.665-23.681-13.674c-2.234-1.289-4.25,2.166-2.019,3.454Z"/><path class="c" d="M145.9,114.583l15.179,8.765c2.043,1.18,4.428,3.22,6.856,2,2.6-1.308,5.086-2.936,7.606-4.391,2.281-1.317,7.07-3.025,5.935-6.467a4.489,4.489,0,0,0-2.436-2.365l-3.427-1.979-9.69-5.6-3.615-2.087a4.892,4.892,0,0,0-2.96-.966c-1.277.1-2.6,1.141-3.677,1.762l-5.3,3.058c-1.365.788-2.742,1.557-4.1,2.364-2.346,1.4-2.681,4.221-.379,5.9a2.014,2.014,0,0,0,2.737-.717,2.046,2.046,0,0,0-.718-2.736c.993.726-.61,1.438.341,1.025a13.379,13.379,0,0,0,1.281-.74l4.12-2.378,4.2-2.425c.229-.132,2.145-.989,2.163-1.249-.033.469-1-.308-.507.106a6.136,6.136,0,0,0,.877.507l3.138,1.811,8.8,5.084,3.718,2.147c.431.249,1.348,1.042,1.862,1.075.014,0,.067.052.081.047-.467.179-.344-1.267-.045-1.2-.151-.035-.7.4-.834.482l-3.6,2.076-4.379,2.528a30.05,30.05,0,0,0-3,1.734c-.594.444.3-.277.433.138-.032-.1-.5-.287-.574-.332l-2.73-1.576-15.35-8.863C145.682,109.84,143.665,113.3,145.9,114.583Z"/><path class="c" d="M176.55,132.281,192.7,141.6l3.574,2.063c1.037.6,2.012,1.133,3.256.509,2.618-1.316,5.118-2.955,7.655-4.42l4.724-2.727c.983-.568,2.392-1.124,2.722-2.326.455-1.658-.817-2.5-2.009-3.191L209,129.422l-10.353-5.977-4.092-2.362a13.639,13.639,0,0,0-1.848-1.03c-1.408-.538-2.538.353-3.69,1.018l-4.688,2.706c-2.567,1.482-5.283,2.836-7.752,4.476a2.384,2.384,0,0,0-.433,3.715c1.648,1.982,4.464-.862,2.829-2.828l-.143-.172.585,1.414v-.214l-.585,1.414c-.211.254-.338.148-.11.053a4.362,4.362,0,0,0,.477-.275l1.568-.905,4.831-2.79,7.028-4.057-1.009.273h.322l-1.01-.273,18.056,10.424,1.844,1.065c.169.1.339.191.506.292.263.159.137.207-.051-.019l-.586-1.414v.213l.586-1.414c.211-.254.337-.147.11-.053a4.338,4.338,0,0,0-.477.275l-1.568.906-4.832,2.789-7.028,4.058,1.01-.273h-.322l1.009.273L181.13,130.305l-2.561-1.478C176.336,127.538,174.319,130.993,176.55,132.281Z"/><ellipse class="c" cx="191.437" cy="128.876" rx="4.188" ry="2.418"/><ellipse class="c" cx="200.249" cy="133.963" rx="4.188" ry="2.418"/><path class="g" d="M90.242,149.618c0-2.393,0-5.112-.006-8.855V129.69a1.227,1.227,0,0,0-1.817-1.074c-4.405,2.451-13.019,7.439-17.727,10.258a3.709,3.709,0,0,0-1.8,2.945c.008,10.57.008,24.065.008,24.065a3.662,3.662,0,0,0,1.839,3.187c5.161,2.977,14.252,8.233,18.188,10.5a4.117,4.117,0,0,0,3.727,0c2.783-1.608,12.234-7.044,16.545-9.516a1.439,1.439,0,0,0-.007-2.5c-3.44-1.983-10.623-6.13-18.946-10.933C90.243,154.142,90.243,152.048,90.242,149.618Z"/><path class="c" d="M107.9,168.7q0,9.356-.012,18.709c0,2.574,4,2.578,4,0q0-9.354.012-18.709c0-2.574-4-2.578-4,0Z"/><path class="c" d="M88.254,180.021q0,9.354-.012,18.709c0,2.574,4,2.578,4,0q0-9.354.012-18.709c0-2.574-4-2.578-4,0Z"/><path class="c" d="M66.894,165.543q0,10.435-.012,20.871c0,2.574,4,2.579,4,0q0-10.435.012-20.871c0-2.574-4-2.578-4,0Z"/><path class="c" d="M92.243,156.385q0-9.229-.007-18.459v-5.07a20.444,20.444,0,0,0-.071-3.729,3.208,3.208,0,0,0-3.717-2.592,13.068,13.068,0,0,0-3.554,1.769q-3.953,2.241-7.879,4.53c-2.488,1.446-5.093,2.8-7.479,4.411-2.736,1.845-2.654,4.642-2.654,7.578V175c0,2.574,4,2.578,4,0V149.625c0-2.446-.126-4.933,0-7.377.059-1.126.629-1.535,1.554-2.085q1.7-1.011,3.4-2.009,3.714-2.18,7.447-4.324,1.671-.96,3.347-1.912l1.357-.769.748-.42.468-.262q.4-.526-.969-.777c-.123.169,0,.925,0,1.162v6.621q0,9.456.007,18.912c0,2.574,4,2.578,4,0Z"/><path class="c" d="M66.9,165.884a5.9,5.9,0,0,0,1.593,3.946,14.908,14.908,0,0,0,3.338,2.181q3.567,2.058,7.132,4.119l6.767,3.909c2.258,1.3,4.467,2.626,7.162,1.612a36.8,36.8,0,0,0,5.073-2.828l6.657-3.829c1.849-1.063,3.805-2.037,5.587-3.209a3.513,3.513,0,0,0,1.569-3.941c-.428-1.388-1.594-2.017-2.761-2.69q-8.878-5.121-17.754-10.246c-2.233-1.289-4.25,2.166-2.019,3.454l14.734,8.5,2.343,1.353,1.1.633a2.366,2.366,0,0,0,.4.227l.369.213q.423-1.255-.093-.9c-.574.017-1.665.956-2.173,1.247l-2.734,1.571q-5.313,3.053-10.623,6.112a3.888,3.888,0,0,1-1.585.7,4.244,4.244,0,0,1-2.388-.949l-5.391-3.113-6.982-4.033L72.89,168c-.916-.528-1.935-.917-1.993-2.12-.122-2.562-4.122-2.577-4,0Z"/><path class="g" d="M121.333,128.78c0-2.393,0-5.112-.006-8.855V108.852a1.227,1.227,0,0,0-1.817-1.074c-4.405,2.451-13.02,7.44-17.727,10.258a3.7,3.7,0,0,0-1.8,2.945c.008,10.57.008,24.066.008,24.066a3.663,3.663,0,0,0,1.838,3.186c5.162,2.977,14.253,8.233,18.189,10.5a4.117,4.117,0,0,0,3.727,0c2.783-1.608,12.234-7.044,16.545-9.516a1.44,1.44,0,0,0-.007-2.5c-3.44-1.983-10.624-6.13-18.946-10.933C121.334,133.3,121.334,131.21,121.333,128.78Z"/><path class="c" d="M138.986,147.857q0,9.355-.011,18.709c0,2.574,4,2.579,4,0q0-9.354.011-18.709c0-2.573-4-2.578-4,0Z"/><path class="c" d="M119.345,159.183q0,9.354-.012,18.709c0,2.574,4,2.578,4,0q0-9.354.012-18.709c0-2.574-4-2.578-4,0Z"/><path class="c" d="M97.985,144.705q0,10.435-.012,20.872c0,2.573,4,2.578,4,0q0-10.437.012-20.872c0-2.574-4-2.578-4,0Z"/><path class="c" d="M123.334,135.547q0-9.229-.007-18.459v-5.07a20.523,20.523,0,0,0-.071-3.728,3.208,3.208,0,0,0-3.717-2.593,13.054,13.054,0,0,0-3.554,1.769q-3.954,2.243-7.88,4.53c-2.487,1.446-5.092,2.8-7.479,4.411-2.735,1.845-2.653,4.642-2.653,7.578v30.176c0,2.574,4,2.578,4,0V128.787c0-2.446-.126-4.933,0-7.377.058-1.126.629-1.535,1.553-2.085q1.7-1.011,3.4-2.009,3.714-2.178,7.447-4.324,1.671-.96,3.346-1.912.678-.386,1.358-.769l.748-.42.468-.262q.4-.526-.969-.777c-.123.17,0,.925,0,1.162v6.621q0,9.456.007,18.912c0,2.574,4,2.578,4,0Z"/><path class="c" d="M97.988,145.047a5.912,5.912,0,0,0,1.592,3.946,14.945,14.945,0,0,0,3.339,2.18q3.567,2.058,7.132,4.119l6.767,3.909c2.258,1.3,4.467,2.626,7.161,1.612a36.706,36.706,0,0,0,5.074-2.828q3.327-1.916,6.656-3.829c1.849-1.062,3.805-2.037,5.587-3.208a3.516,3.516,0,0,0,1.57-3.942c-.428-1.387-1.594-2.017-2.761-2.69q-8.878-5.121-17.754-10.246c-2.234-1.289-4.25,2.166-2.019,3.454l14.733,8.5q1.173.675,2.344,1.352l1.1.633a2.411,2.411,0,0,0,.4.228l.369.212q.424-1.255-.092-.9c-.574.017-1.666.956-2.173,1.247l-2.734,1.571q-5.313,3.054-10.623,6.113a3.906,3.906,0,0,1-1.585.7,4.243,4.243,0,0,1-2.389-.948l-5.39-3.114-6.982-4.033-3.322-1.918c-.916-.528-1.935-.917-1.992-2.119-.122-2.563-4.123-2.578-4,0Z"/><path class="a" d="M173.105,160.629v-4.264a1.441,1.441,0,0,0-.721-1.248l-30.968-17.882a1.436,1.436,0,0,0-1.437,0c-6.586,3.8-56.554,32.654-63.154,36.476a1.44,1.44,0,0,0-.719,1.247v4.573a1.434,1.434,0,0,0,.716,1.243l30.7,17.723a1.423,1.423,0,0,0,1.429,0c6.362-3.672,53.368-30.806,63.438-36.623A1.435,1.435,0,0,0,173.105,160.629Z"/><path class="h" d="M173.105,161.064v30.844"/><path class="a" d="M76.106,179.525v30.45a1.44,1.44,0,0,0,.719,1.248c8.662,5,23.756,13.708,29.348,16.934a1.44,1.44,0,0,0,2.161-1.247V198.687"/><path class="c" d="M74.106,179.525v29.534a8.47,8.47,0,0,0,.068,1.485c.415,2.359,3.267,3.344,5.125,4.416l12.817,7.4,11.2,6.464c1.754,1.011,3.567,2.234,5.539.894,1.924-1.308,1.474-3.922,1.474-5.939V198.687c0-2.574-4-2.578-4,0v27.458a2.177,2.177,0,0,0,0,.553c.127.4-.433.157.271-.268.855-.516.66.225.415-.094a2.1,2.1,0,0,0-.517-.3l-.958-.553-10.466-6.038-12-6.927-2.742-1.582-1.218-.7-.649-.375c-.194-.112-.821-.666-.494-.123.3.5.135-.394.135-.677V179.525c0-2.574-4-2.578-4,0Z"/><path class="c" d="M75.1,182.084l17.187,9.923,11.028,6.368,3.172,1.831c.9.519,1.723.947,2.772.423,1.341-.67,2.621-1.513,3.918-2.262l9.378-5.413L149,177.687q11.13-6.425,22.26-12.852c.934-.54,1.922-1.034,2.822-1.63,1.09-.722,1.025-1.74,1.025-2.864q0-1.743,0-3.486c0-1.159.121-2.3-.992-3.05-.123-.083-.26-.148-.387-.224-.939-.563-1.9-1.1-2.846-1.643l-23.061-13.316c-2.018-1.165-4.007-2.468-6.09-3.516-1.571-.79-3.442.8-4.769,1.561q-10.3,5.944-20.595,11.892-13.146,7.59-26.291,15.183l-9.911,5.725-3.2,1.852c-1.567.907-2.786,1.828-2.853,3.855-.056,1.724,0,3.458,0,5.183,0,2.574,4,2.578,4,0v-3.778a5.908,5.908,0,0,0,0-1.567c-.047-.039-.481.372-.16.358.093,0,.3-.171.38-.22l4.324-2.5,15.284-8.828q17.71-10.23,35.423-20.456l8.347-4.82h-2.019q14.208,8.178,28.393,16.394l4.015,2.319-.991-1.727c.03,1.974,0,3.951,0,5.926l.991-1.727q-12.9,7.457-25.81,14.9l-32.081,18.519-6.978,4.028h2.019q-16.067-9.273-32.13-18.551c-2.234-1.289-4.25,2.166-2.019,3.454Z"/><path class="g" d="M176.776,189.278c0-4.154,0-9.5-.006-14.852V157.184a1.112,1.112,0,0,0-1.646-.973c-3.991,2.221-11.8,6.741-16.061,9.294a3.353,3.353,0,0,0-1.64,2.874v9.962c-1.717.946-7.615,4.355-18.091,10.4a2.025,2.025,0,0,0,0,3.51c5.721,3.291,12.871,7.4,17.4,10a2.019,2.019,0,0,0,2,0c6.006-3.467,13.107-7.563,17.058-9.845a1.962,1.962,0,0,0,.984-1.7Z"/><path class="c" d="M174.776,191.2q0,9.99-.011,19.981c0,2.574,4,2.578,4,0q0-9.99.011-19.981c0-2.574-4-2.578-4,0Z"/><path class="c" d="M136.51,191.2q0,9.99-.011,19.981c0,2.574,4,2.578,4,0q0-9.99.011-19.981c0-2.574-4-2.578-4,0Z"/><path class="c" d="M155.423,202.217q0,9.147-.011,18.295c0,2.574,4,2.578,4,0q0-9.147.011-18.295c0-2.574-4-2.579-4,0Z"/><path class="c" d="M159.423,194.883V170.144a12.048,12.048,0,0,1,0-1.928c.146-.854.961-1.172,1.631-1.57q1.341-.8,2.688-1.587,3.351-1.965,6.718-3.9,1.578-.907,3.16-1.807.666-.38,1.334-.755a3.3,3.3,0,0,0,.609-.342l.347-.194q-.768-.69-.909-.168l-.273-1.009a39.935,39.935,0,0,1,.04,5.19v8.117q0,9.982.006,19.964c0,.662,0,.526-.61.878l-1.949,1.125-4.118,2.377L158.45,200.1c-.712.411-.591.488-1.266.1l-1.962-1.127-4.456-2.561q-4.69-2.7-9.38-5.392c-.359-.206-.715-.427-1.076-.628-.079-.043.011-.276-.017-.025-.018.157.166-.054.38-.2.379-.251.795-.458,1.189-.685l5.206-3.006q4.824-2.785,9.648-5.569c2.229-1.286.217-4.744-2.019-3.454q-4.1,2.361-8.19,4.727l-4.368,2.523a26.514,26.514,0,0,0-4.474,2.686,4.057,4.057,0,0,0-1.236,3.94c.438,1.754,1.837,2.508,3.292,3.345l9.208,5.292q2.057,1.183,4.115,2.365c1.32.759,2.79,1.925,4.346,2.048,1.72.135,3.136-.962,4.555-1.781l4.886-2.82,8.137-4.7c1.177-.679,2.559-1.27,3.272-2.494.853-1.465.536-3.469.536-5.095q0-9.555-.006-19.109V160.83c0-1.667.434-4.281-.739-5.625-2.217-2.54-5.4.1-7.584,1.351q-3.833,2.188-7.641,4.417-1.757,1.026-3.507,2.063a7.478,7.478,0,0,0-3.317,2.986,9.446,9.446,0,0,0-.559,4.274v24.587c0,2.574,4,2.578,4,0Z"/></svg>