<?xml version="1.0" encoding="utf-8"?>
<!-- Uploaded to: SVG Repo, www.svgrepo.com, Generator: SVG Repo Mixer Tools -->
<svg width="800px" height="800px" viewBox="-45.1 0 442.504 442.504" xmlns="http://www.w3.org/2000/svg"><defs><style>.a{fill:#ffffff;}.b{fill:#85807f;}.c{fill:#211715;}.d{fill:#645d5c;}.e{fill:#7a7473;}.f{fill:#d9d9d9;}.g{fill:#febe69;}.h{fill:#7abee6;}.i{fill:#3d8dcc;}</style></defs><path class="a" d="M313.978,71.11a4.345,4.345,0,0,1,3.141-1.15,4.032,4.032,0,0,1,3.621,2.012c1.23,2.134,1.178,6.066.352,8.5a13.128,13.128,0,0,1-3.853,6.249,4.781,4.781,0,0,1-3.692,1.065l-.353-.059a28.216,28.216,0,0,1-1.271,3.447c-.939,2.548-6.125,11.482-12.688,14.967.1,1.259.26,2.506.48,3.76.343,1.965.237,3.716,2.97,4.7.178.065,7.923,3.751,8.2,3.864,0,0-4.728,6.941-25.562,6.941s-23.828-6.521-23.828-6.521c.533-.178,9.171-4.219,9.349-4.284,2.733-.988,2.615-2.739,2.97-4.7.2-1.137.35-2.186.443-3.286a24.449,24.449,0,0,1-8.852-7.067,33.03,33.03,0,0,1-6.268-11.826,4.7,4.7,0,0,1-3.995-1,13.128,13.128,0,0,1-3.853-6.249c-.826-2.432-.878-6.364.353-8.5a4.03,4.03,0,0,1,3.621-2.012,4.343,4.343,0,0,1,3.14,1.15s-5.046-22.834,27.787-22.834S313.978,71.11,313.978,71.11Z"/><path class="b" d="M318.657,50.412a14.416,14.416,0,0,0,1.326-10.072,19.9,19.9,0,0,0-5.611-10.194,17.225,17.225,0,0,0-8.25-4.861c-3.439-.932-8.227-1.043-11.231.872l-1.166.7a29.6,29.6,0,0,0-7.714-.615c-15.324-.842-29.943,10.685-32.9,25.212a41.076,41.076,0,0,0,.03,13.743s.735,3.187,1.211,4.877a4.906,4.906,0,0,1,.913-.111,4.343,4.343,0,0,1,3.14,1.15l4.134-1.672C278.934,67,288.287,58.909,298.092,50.7c4.061,2.319,8.489,7.346,10.226,10.26,1.484,2.487,4.844,8.8,4.991,11.019a4.165,4.165,0,0,1,3.81-2.019,4.9,4.9,0,0,1,1.847.4c2-5.615.861-14.419-.063-18.907C318.832,51.1,318.741,50.758,318.657,50.412Z"/><path class="c" d="M269.389,216.563h33.53c2.573,0,2.578-4,0-4h-33.53c-2.574,0-2.578,4,0,4Z"/><path class="c" d="M262.028,120.815c.871-.3,1.717-.743,2.555-1.127q1.927-.882,3.851-1.777c1.007-.467,2.013-.937,3.022-1.4.1-.048.211-.092.314-.143s.268-.117-.163.067c-.513.22-.068.036.064-.017.253-.1.506-.2.752-.322a5.416,5.416,0,0,0,2.409-2.23,8.552,8.552,0,0,0,.816-2.852c.226-1.464.478-2.92.611-4.4a2.008,2.008,0,0,0-2-2,2.054,2.054,0,0,0-2,2,37.53,37.53,0,0,1-.891,5.287c-.059.246.2-.313.041-.115a1.893,1.893,0,0,0-.132.233c-.223.394.18-.132-.066.088a2.418,2.418,0,0,0-.213.2c.216-.252.157-.1.028-.023-.1.059-.192.124-.293.181-.037.021-.454.23-.275.149s-.145.055-.145.054c-.153.062-.333.139-.484.2l-.065.028-.3.137c-2.145.986-4.282,1.988-6.427,2.974-.557.255-1.113.511-1.672.762l-.531.236c-.446.2.5-.187.132-.058a2,2,0,0,0,1.063,3.857Z"/><path class="c" d="M297.26,106.456c.124,1.379.324,2.746.55,4.112a15.958,15.958,0,0,0,.394,2.118,5.4,5.4,0,0,0,1.472,2.432,6.073,6.073,0,0,0,1.308.917,10.7,10.7,0,0,0,.984.426c.637.245-.464-.224-.22-.1,1.905.975,3.883,1.832,5.818,2.747.925.437,1.844.891,2.788,1.286a2,2,0,0,0,2.46-1.4,2.063,2.063,0,0,0-1.4-2.46c.993.416.082.02-.15-.089l-1.243-.586q-1.681-.793-3.362-1.591c-.867-.41-1.732-.822-2.6-1.228l-.283-.131-.072-.032c-.144-.063-.337-.145-.483-.2-.059-.024-.365-.17-.061-.019-.179-.088-.351-.18-.524-.281-.057-.033-.342-.221-.112-.061.2.141.015.011-.023-.026-.062-.062-.13-.132-.2-.191-.291-.261.1.076.063.1a4.779,4.779,0,0,1-.288-.483c-.11-.167.088.174.079.2a2.609,2.609,0,0,0-.119-.352c-.047-.16-.086-.324-.12-.487-.081-.386-.134-.777-.193-1.166-.085-.564-.187-1.125-.271-1.689-.037-.241-.042-.277-.081-.615q-.067-.575-.118-1.15a2.043,2.043,0,0,0-2-2,2.022,2.022,0,0,0-2,2Z"/><path class="a" d="M313.274,411.562a44.368,44.368,0,0,1-3.48-4.566,13.877,13.877,0,0,1-2.648-7.6q.051-2.185.119-4.409a48.873,48.873,0,0,1-19.61-.6h-4.68a48.838,48.838,0,0,1-17.851.872q.066,2.087.112,4.138a13.861,13.861,0,0,1-2.648,7.6,56.43,56.43,0,0,1-6.667,8.045c-.088,1.132-.158,2.356-.158,2.356-.366,3.522,2.2,5.64,5.075,6.689a10.524,10.524,0,0,0,9.354-1.244,92.6,92.6,0,0,0,13.106-10.7,17.869,17.869,0,0,0,1.385-2.043l3.139.707,1.262,1.336a92.6,92.6,0,0,0,13.106,10.7,10.525,10.525,0,0,0,9.354,1.244c2.88-1.049,5.441-3.167,5.076-6.689,0,0-.128-1.226-.255-2.455C315.285,413.821,314.247,412.7,313.274,411.562Z"/><path class="d" d="M297.585,430.466c-2.744-1.912-5.169-3.592-5.947-4.078-4.989-3.116-4.432-7.357-4.322-10.263a53.215,53.215,0,0,1,.506-5.318l1.262,1.336a92.6,92.6,0,0,0,13.106,10.7,10.525,10.525,0,0,0,9.354,1.244c2.88-1.049,5.441-3.167,5.076-6.689l-.255-2.452.472.484c3.235,3.317,6.8,6.581,10.032,9.8,2.1,2.093,3.75,4.873,3.676,7.921a6.782,6.782,0,0,1-3.219,5.08,13.024,13.024,0,0,1-5.845,2.058,22.09,22.09,0,0,1-13.756-2.823C306.97,437.031,301.886,433.463,297.585,430.466Z"/><path class="d" d="M274.8,430.466c2.744-1.912,5.17-3.592,5.947-4.078,4.989-3.116,4.432-7.357,4.322-10.263a58.859,58.859,0,0,0-.383-6.025,9.951,9.951,0,0,0-1.385,2.043,92.6,92.6,0,0,1-13.106,10.7,10.524,10.524,0,0,1-9.354,1.244c-2.88-1.049-5.441-3.167-5.075-6.689l.254-2.452-.472.484c-3.235,3.317-6.8,6.581-10.032,9.8-2.1,2.093-3.75,4.873-3.676,7.921a6.787,6.787,0,0,0,3.219,5.08,13.023,13.023,0,0,0,5.846,2.058,22.087,22.087,0,0,0,13.755-2.823C265.412,437.031,270.5,433.463,274.8,430.466Z"/><path class="c" d="M298.6,428.74c-1.8-1.255-3.593-2.528-5.425-3.739a8.14,8.14,0,0,1-3.419-3.539,9.927,9.927,0,0,1-.486-4.19,55.558,55.558,0,0,1,.486-5.933l-3.343.882a76.221,76.221,0,0,0,6.955,6.478c3.119,2.574,6.5,5.627,10.3,7.119a12.277,12.277,0,0,0,11.487-1.359,8.263,8.263,0,0,0,3.169-4.147c.566-1.763.237-3.574.051-5.367l-3.414,1.414c3,3.071,6.126,6,9.194,9,2.146,2.1,5.7,5.681,4.059,9.035-1.7,3.479-6.543,4.155-9.964,4.063a19.466,19.466,0,0,1-10.017-3.039c-3.262-2.141-6.427-4.442-9.628-6.673-2.117-1.476-4.118,1.99-2.019,3.453,3.2,2.232,6.366,4.533,9.629,6.674a23.426,23.426,0,0,0,12.251,3.591c4.659.074,9.73-1.2,12.611-5.128,2.827-3.855,1.119-8.823-1.613-12.209a65.935,65.935,0,0,0-5.847-5.843c-1.968-1.89-3.922-3.793-5.827-5.747-1.124-1.153-3.6-.362-3.415,1.414a12.05,12.05,0,0,1,.184,3.994,4.408,4.408,0,0,1-2.232,2.595,8.66,8.66,0,0,1-9.276-.525,78.465,78.465,0,0,1-13.8-11.616c-.947-1-3.122-.631-3.343.882a65.622,65.622,0,0,0-.629,7A13.473,13.473,0,0,0,286,422.8a11.5,11.5,0,0,0,4.689,5.356c2,1.3,3.934,2.68,5.886,4.039C298.693,433.668,300.694,430.2,298.6,428.74Z"/><path class="c" d="M308.452,335.45c-.759,12.668-1.585,25.332-2.258,38-.314,5.916-.594,11.834-.805,17.754-.1,2.791-.311,5.622-.243,8.415a15.939,15.939,0,0,0,1.66,6.326,34.194,34.194,0,0,0,5.335,7.351c2.3,2.641,4.8,5.1,7.312,7.529,1.851,1.791,4.683-1.035,2.828-2.828-4.091-3.955-8.266-8.01-11.346-12.834-2.542-3.982-1.725-8.819-1.57-13.286.412-11.833,1.094-23.656,1.809-35.474q.633-10.479,1.278-20.958c.154-2.571-3.847-2.562-4,0Z"/><path class="c" d="M275.806,432.193c1.972-1.374,3.938-2.759,5.947-4.078a11.325,11.325,0,0,0,4.832-5.861,15.373,15.373,0,0,0,.506-5.569c-.105-2.382-.145-4.751-.48-7.117-.25-1.768-2.87-1.847-3.655-.478a13.346,13.346,0,0,1-1.268,1.892c.488-.588-.026-.014-.112.066-.215.2-.417.417-.628.622-1.058,1.025-2.163,2-3.282,2.962A85.634,85.634,0,0,1,269.5,420.9a8.733,8.733,0,0,1-9.15.79,4.845,4.845,0,0,1-2.425-2.444c-.476-1.292-.044-2.99.092-4.3.184-1.772-2.283-2.574-3.414-1.414-3.423,3.509-7.067,6.792-10.5,10.285-3,3.05-5.521,7.833-3.608,12.1,1.973,4.4,7.022,6.139,11.488,6.481a23.683,23.683,0,0,0,13.722-3.226c3.491-2.1,6.764-4.651,10.1-6.98,2.1-1.461.1-4.93-2.018-3.453-2.978,2.075-5.94,4.174-8.943,6.212a20.065,20.065,0,0,1-8.976,3.384c-3.663.416-8.314.073-10.937-2.861-2.5-2.794-.181-6.62,2-8.83,3.439-3.492,7.081-6.776,10.5-10.286l-3.414-1.414c-.186,1.793-.515,3.6.051,5.367a8.424,8.424,0,0,0,3.431,4.332,12.406,12.406,0,0,0,11.893.9,28.292,28.292,0,0,0,5.384-3.5q2.472-1.854,4.846-3.837c2.509-2.1,5.139-4.212,6.788-7.09l-3.656-.477c.272,1.924.244,3.887.326,5.826a13.492,13.492,0,0,1-.267,4.46,7.258,7.258,0,0,1-3.344,3.914c-1.923,1.259-3.8,2.594-5.681,3.908C271.69,430.2,273.687,433.67,275.806,432.193Z"/><path class="c" d="M259.931,335.45c.73,12.2,1.522,24.387,2.181,36.587.317,5.863.6,11.729.824,17.6q.159,4.224.269,8.449a12.613,12.613,0,0,1-1.008,5.686,29.029,29.029,0,0,1-4.936,6.878c-2.256,2.574-4.7,4.978-7.16,7.356-1.854,1.793.976,4.619,2.829,2.828a88.333,88.333,0,0,0,11.783-13.357c2.956-4.311,2.512-9.308,2.349-14.251-.4-12.037-1.084-24.062-1.809-36.083q-.654-10.845-1.322-21.689c-.153-2.558-4.154-2.575-4,0Z"/><path class="c" d="M283.191,393.758v9.994a2,2,0,0,0,4,0v-9.994a2,2,0,0,0-4,0Z"/><path class="e" d="M251.59,219.167c-4.808,13.808-4.079,28.846-3.247,43.443q3.731,65.456,8.7,130.833a48.786,48.786,0,0,0,28.276.315,48.776,48.776,0,0,0,28.273-.315q4.967-65.373,8.7-130.833c.832-14.6,1.561-29.635-3.247-43.443"/><path class="c" d="M249.661,218.635c-3.519,10.24-4.136,21.18-3.867,31.925.284,11.323,1.151,22.645,1.832,33.95q2.1,34.836,4.542,69.651,1.381,19.645,2.873,39.282a2.08,2.08,0,0,0,1.468,1.929,51.517,51.517,0,0,0,27,.937c2.506-.585,1.445-4.442-1.063-3.857a47.371,47.371,0,0,1-24.872-.937l1.469,1.928q-2.634-34.675-4.922-69.376c-1.506-22.861-3.134-45.741-4.152-68.63-.534-12.016-.4-24.243,3.551-35.738.839-2.44-3.024-3.488-3.857-1.064Z"/><path class="c" d="M317.112,219.7c3.516,10.23,4.014,21.064,3.7,31.791-.33,11.261-1.173,22.521-1.851,33.766q-2.085,34.589-4.515,69.154-1.373,19.521-2.855,39.033l1.469-1.928a47.371,47.371,0,0,1-24.872.937c-2.5-.584-3.573,3.271-1.063,3.857a51.517,51.517,0,0,0,27-.937,2.076,2.076,0,0,0,1.468-1.929q2.643-34.8,4.938-69.624c1.515-23.008,3.195-46.04,4.166-69.078.51-12.117.256-24.522-3.725-36.106-.831-2.42-4.7-1.38-3.857,1.064Z"/><path class="c" d="M283,255.8q0,11.792.032,23.582.031,16.18.075,32.361.045,17.049.092,34.1.041,14.667.079,29.335.022,8.776.039,17.554v1.033c0,2.574,4,2.578,4,0q0-7.821-.031-15.644-.036-14.127-.076-28.256-.046-16.929-.092-33.859-.042-16.482-.079-32.963-.027-12.508-.038-25.016,0-1.113,0-2.225c0-2.574-4-2.578-4,0Z"/><path class="f" d="M244.565,227.322c.5-5.968.959-10.963,1.771-18.469,0,0,.061-.469.157-1.216-5.1-2.518-10.356-5.558-15.092-8.444-3.57-2.16-7.14-6.62-8.16-10.25a22.1,22.1,0,0,1,0-12.57c3.64-13.17,12.813-39.369,13.774-41.5,2.264-5.014,3.6-6.483,5.766-8.093a47.5,47.5,0,0,1,5.07-3.12c4.26-2.18,14.23-5.53,18.14-7.03l1.525-.85c3.546,12.828,14.462,45.984,18.152,53.826h1.081c3.7-7.87,14.653-41.227,18.155-53.961l1.766.985c3.91,1.5,13.88,4.85,18.14,7.03a47.5,47.5,0,0,1,5.07,3.12c2.17,1.61,3.5,3.079,5.765,8.093.961,2.128,10.135,28.327,13.775,41.5a22.1,22.1,0,0,1,0,12.57c-1.02,3.63-4.59,8.09-8.16,10.25-4.77,2.906-10.06,5.968-15.2,8.5.1,1.093.165,1.844.165,1.844.72,7.01,1.28,13.03,1.7,18.71a1.1,1.1,0,0,1-1.01,1.18c-6.21.47-17.74,1.18-23.78.19-4.21-.69-7.1-1.48-9.77-3.73a17.031,17.031,0,0,1-5.64-8.2,88.754,88.754,0,0,1-1.86-8.95.627.627,0,0,0-1.24,0,80.79,80.79,0,0,1-1.75,8.59,15.779,15.779,0,0,1-5.97,8.34c-2.06,1.52-6.21,3.18-10.92,3.91a95.129,95.129,0,0,1-20.45.34,1.218,1.218,0,0,1-1.08-1.3Q244.512,227.959,244.565,227.322Z"/><path class="a" d="M267.025,113.954c2.886,11.15,14.761,47.406,18.643,55.655h1.081c3.874-8.249,15.728-44.506,18.608-55.656Z"/><path class="c" d="M295.9,27.889c2.62-1.59,6.107-1.512,9.007-.848a16.285,16.285,0,0,1,7.9,4.373c4.521,4.4,7.5,12.062,4.133,17.988-1.274,2.241,2.18,4.259,3.454,2.019,4.264-7.5,1.071-17.158-4.759-22.835a20.152,20.152,0,0,0-10.02-5.479c-3.856-.8-8.28-.771-11.738,1.328-2.2,1.333-.189,4.794,2.019,3.454Z"/><path class="c" d="M281.865,118.387c-2.432,2.748-4.422,5.849-6.616,8.781a2.009,2.009,0,0,0-.2,1.541,2,2,0,0,0,3.655.477c.933-1.245,1.816-2.529,2.731-3.787.593-.814,1.22-1.6,1.806-2.421l-.169.218.143-.184.213-.271q.207-.263.418-.521c.276-.34.558-.676.849-1a2,2,0,0,0-2.829-2.829Z"/><path class="c" d="M297.008,127.1c-2.262-3.022-4.308-6.217-6.814-9.05a2.014,2.014,0,0,0-2.829,0,2.048,2.048,0,0,0,0,2.829q.447.506.872,1.029.224.275.442.551l.225.286c.278.356-.128-.168-.01-.014q.942,1.231,1.852,2.488c.942,1.3,1.848,2.618,2.808,3.9a2.183,2.183,0,0,0,1.2.919,2.043,2.043,0,0,0,1.541-.2,2.021,2.021,0,0,0,.718-2.736Z"/><path class="c" d="M256.28,69.532a40.833,40.833,0,0,1-1.662-8.538,33.312,33.312,0,0,1,1.016-11.383A31.239,31.239,0,0,1,280.278,28.5a34.549,34.549,0,0,1,5.733-.259,35.141,35.141,0,0,1,7.219.536A31.626,31.626,0,0,1,313.8,43.668a32.921,32.921,0,0,1,3.928,12.956c.5,4.336.746,9.012-.7,13.2-.843,2.438,3.019,3.485,3.857,1.063,1.443-4.174,1.373-8.848.957-13.191A41.766,41.766,0,0,0,318.8,44.711a35.407,35.407,0,0,0-20.353-18.6,39.645,39.645,0,0,0-15.321-1.881,33.852,33.852,0,0,0-12.7,3.168,35.09,35.09,0,0,0-17.392,17.718,33.743,33.743,0,0,0-2.484,14.064A45.5,45.5,0,0,0,252.423,70.6c.683,2.479,4.543,1.426,3.857-1.063Z"/><path class="c" d="M298.034,53.013c5.96,4.005,10.032,10.419,12.638,17a2.061,2.061,0,0,0,2.46,1.4,2.013,2.013,0,0,0,1.4-2.46c-3.016-7.615-7.573-14.748-14.476-19.386a2,2,0,1,0-2.019,3.453Z"/><path class="c" d="M296.066,49.8a111.762,111.762,0,0,1-14.384,10.764A53.97,53.97,0,0,1,262.748,67.4a2.015,2.015,0,0,0-1.4,2.46,2.047,2.047,0,0,0,2.46,1.4,56.965,56.965,0,0,0,19.89-7.236,118.268,118.268,0,0,0,15.193-11.389c1.976-1.655-.866-4.472-2.828-2.829Z"/><path class="c" d="M259.818,69.695a6.738,6.738,0,0,0-7.344-1.093,6.4,6.4,0,0,0-3.348,4.308,16,16,0,0,0,2.32,12.631c1.644,2.446,4.242,4.652,7.389,4.243a2.065,2.065,0,0,0,2-2,2.012,2.012,0,0,0-2-2c-2.177.283-3.594-1.52-4.538-3.262a12.9,12.9,0,0,1-1.552-4.819,8.275,8.275,0,0,1,.826-5.038c-.327.524.511-.436.2-.211a1.829,1.829,0,0,1,.918-.419,2.5,2.5,0,0,1,2.3.489c1.915,1.709,4.754-1.11,2.828-2.829Z"/><path class="c" d="M315.393,72.524a2.469,2.469,0,0,1,2.171-.516,1.917,1.917,0,0,1,1.045.446c-.3-.221.52.721.2.211a8.259,8.259,0,0,1,.825,5.038,12.964,12.964,0,0,1-1.551,4.819c-.944,1.742-2.361,3.545-4.539,3.262a2.01,2.01,0,0,0-2,2,2.05,2.05,0,0,0,2,2c5.117.664,8.264-4.857,9.543-8.994,1.148-3.717,1.089-9.467-2.543-11.843a6.7,6.7,0,0,0-7.983.748c-1.925,1.718.912,4.539,2.829,2.829Z"/><path class="c" d="M311.789,85.153a28,28,0,0,1-1.266,4.219c-.192.506-.323.765-.564,1.362-.2.5.145-.292-.028.067-.061.128-.118.257-.179.385a35.9,35.9,0,0,1-3.09,5.144c-2.681,3.8-6.351,7.949-11.062,9.056-2.5.588-1.444,4.446,1.063,3.857,5.6-1.316,9.907-5.99,13.151-10.472a36.828,36.828,0,0,0,3.359-5.5c.2-.418.383-.844.562-1.272.214-.513-.165.355.072-.165.153-.337.291-.682.427-1.025a28.071,28.071,0,0,0,1.412-4.6c.524-2.511-3.331-3.585-3.857-1.063Z"/><path class="c" d="M256.657,86.118c2.4,10.534,10.333,22.019,21.718,23.737a2.066,2.066,0,0,0,2.46-1.4,2.017,2.017,0,0,0-1.4-2.461c-10.092-1.522-16.8-11.63-18.924-20.943-.572-2.509-4.43-1.447-3.857,1.064Z"/><path class="c" d="M280.737,95.083a11.948,11.948,0,0,0,5.748,1.342,9.48,9.48,0,0,0,5.916-1.794,2,2,0,0,0,0-2.828,2.062,2.062,0,0,0-2.829,0c.692-.54-.015-.019-.233.1-.169.088-.619.229.015.012-.156.054-.308.119-.465.169-.422.136-.888.157-1.3.3.212-.071.332-.039.032-.01-.128.013-.256.024-.384.032-.308.02-.617.028-.925.026-.277,0-.553-.011-.828-.03-.127-.009-.254-.019-.38-.031q-.108-.011-.216-.024c-.157-.019-.1-.011.188.025a8.293,8.293,0,0,1-1.216-.27c-.17-.051-.336-.112-.5-.17-.446-.153.425.2.02.012-.208-.1-.414-.2-.618-.308a2,2,0,0,0-2.019,3.454Z"/><path class="c" d="M285.2,81.888a25.668,25.668,0,0,1,.6,2.755l-.072-.532a1.676,1.676,0,0,1,.011.381l.071-.532a.909.909,0,0,1-.042.171l.2-.478a.656.656,0,0,1-.061.11l.313-.405a.541.541,0,0,1-.09.089l.4-.313a1.821,1.821,0,0,1-.218.116l.478-.2a1.6,1.6,0,0,1-.368.108l.531-.072a1.475,1.475,0,0,1-.345,0l.532.071c-.13-.018-.258-.05-.388-.067a2.246,2.246,0,0,0-1.542.2,2,2,0,0,0-.717,2.737l.313.4a1.992,1.992,0,0,0,.882.515c.349.047.687.134,1.042.149a3.433,3.433,0,0,0,1.6-.39,2.439,2.439,0,0,0,1.313-1.592,3.736,3.736,0,0,0-.013-1.65c-.15-.887-.355-1.767-.583-2.638a2,2,0,0,0-2.461-1.4,2.025,2.025,0,0,0-1.195.92,2.108,2.108,0,0,0-.2,1.541Z"/><path class="c" d="M271.2,73.928c-.461,1.5-.161,4.935,2.672,5.228,3.744-.022,3.944-4.181,2.683-6.136C275.523,71.419,272.489,70.753,271.2,73.928Z"/><path class="c" d="M301.183,73.928c.46,1.5.16,4.936-2.673,5.228-3.744-.022-3.943-4.181-2.683-6.136C296.859,71.419,299.893,70.753,301.183,73.928Z"/><path class="c" d="M244.811,207.853c-.03.24-.05.48-.07.72a2.056,2.056,0,0,0,2,2l.532-.071a2,2,0,0,0,.882-.514l.313-.405a1.991,1.991,0,0,0,.273-1.01c.02-.24.04-.48.07-.72a2.057,2.057,0,0,0-2-2l-.531.072a2,2,0,0,0-.883.514l-.313.405a1.987,1.987,0,0,0-.273,1.009Z"/><path class="c" d="M326.011,177.853c.148-8.862.568-17.715.57-26.58,0-2.573-4-2.578-4,0,0,8.865-.422,17.718-.57,26.58-.043,2.575,3.957,2.576,4,0Z"/><path class="c" d="M245.8,151.723c.026,8.465.96,16.878,1.24,25.33.085,2.568,4.086,2.579,4,0-.28-8.452-1.214-16.865-1.24-25.33-.008-2.573-4.008-2.578-4,0Z"/><path class="c" d="M303.429,113.422c-1.857,7.161-4.162,14.219-6.43,21.259-2.731,8.477-5.542,16.935-8.59,25.3-.643,1.766-1.3,3.528-1.985,5.277q-.394,1-.808,2c-.208.5.165-.377-.042.1-.059.134-.116.269-.175.4q-.184.418-.377.834l1.727-.991h-1.081l1.727.991c-.213-.456-.415-.915-.613-1.377.2.457-.119-.287-.175-.424q-.242-.587-.475-1.177c-.589-1.484-1.152-2.978-1.7-4.475-1.414-3.831-2.76-7.686-4.08-11.549q-4.393-12.851-8.394-25.834c-1.052-3.431-2.1-6.868-3-10.341-.646-2.49-4.506-1.434-3.857,1.063,1.887,7.262,4.231,14.419,6.537,21.556,2.733,8.457,5.545,16.9,8.6,25.243,1.148,3.138,2.294,6.3,3.711,9.333a1.97,1.97,0,0,0,1.727.991h1.081a1.969,1.969,0,0,0,1.727-.991c2.951-6.32,5.088-13.08,7.339-19.669q4.4-12.865,8.4-25.865c1.077-3.516,2.149-7.039,3.072-10.6.647-2.493-3.21-3.557-3.857-1.063Z"/><path class="c" d="M277.021,166.208c-6.01-10.419-11.947-20.89-17.431-31.6-1.174-2.292-4.627-.271-3.454,2.018,5.484,10.708,11.421,21.179,17.431,31.6,1.286,2.229,4.744.217,3.454-2.019Z"/><path class="c" d="M311.981,144.137q2.187-4,4.291-8.033.5-.966,1-1.935a12.863,12.863,0,0,0,1.13-2.417c.572-2.13-1.271-3.639-2.6-4.983-1.814-1.832-4.643,1-2.829,2.828.516.521,1.029,1.045,1.525,1.585s-.236-.409.041-.427a7.663,7.663,0,0,0-.421.814q-.9,1.763-1.816,3.518c-1.23,2.358-2.493,4.7-3.77,7.031a2,2,0,0,0,3.454,2.019Z"/><path class="c" d="M298.424,168.227c2.115-3.666,4.208-7.345,6.242-11.057a2,2,0,0,0-3.454-2.019c-2.033,3.712-4.127,7.391-6.242,11.057a2,2,0,0,0,3.454,2.019Z"/><path class="c" d="M324.226,209.533c.571,5.566,1.11,11.136,1.548,16.714a7.179,7.179,0,0,0,.137,1.8l.015.2q1.35-.942.445-.779a3.136,3.136,0,0,0-.57.042q-1.581.114-3.163.213c-2.242.138-4.485.25-6.73.32a64.406,64.406,0,0,1-12.671-.426,21.287,21.287,0,0,1-6.579-1.9,15.03,15.03,0,0,1-5.019-4.55,15.814,15.814,0,0,1-2.373-5.493c-.261-1.084-.492-2.176-.712-3.269-.275-1.371-.376-2.86-.759-4.2a2.641,2.641,0,0,0-2.819-1.965,2.679,2.679,0,0,0-2.353,2.437c-.494,2.5-.848,5.033-1.5,7.5a14.063,14.063,0,0,1-7.762,9.209c-4.368,2.032-9.254,2.57-14.01,2.8q-4.175.2-8.359.071c-1.367-.042-2.733-.11-4.1-.219a4.191,4.191,0,0,0-.689-.059q-.669-.178-.042.3.409.705.329-.067a10.673,10.673,0,0,0,.165-1.954q.743-8.713,1.681-17.406a2.013,2.013,0,0,0-2-2,2.046,2.046,0,0,0-2,2q-.877,8.123-1.583,16.261c-.206,2.384-1.014,5.859,2.1,6.69a18.119,18.119,0,0,0,3.479.333c1.279.077,2.56.124,3.841.148a76.922,76.922,0,0,0,15.282-.941c4.982-.914,10.02-2.784,13.487-6.623a18.138,18.138,0,0,0,3.919-7.044c.35-1.193.594-2.423.842-3.641a40.323,40.323,0,0,1,.935-5l-.515.883-.346.214h-1.063l-.342-.214-.515-.883a30.438,30.438,0,0,1,.8,4.225c.259,1.305.534,2.609.857,3.9a18.309,18.309,0,0,0,2.893,6.332A19.557,19.557,0,0,0,294.344,229a22.384,22.384,0,0,0,7.2,2.356,68.79,68.79,0,0,0,14.363.679c2.468-.077,4.935-.2,7.4-.362,2.15-.138,5.286.229,6.342-2.1.6-1.317.14-3.143.027-4.541q-.195-2.4-.411-4.789-.482-5.36-1.04-10.712a2.057,2.057,0,0,0-2-2,2.014,2.014,0,0,0-2,2Z"/><path class="a" d="M303.559,193.535c-1.846-.035-3.271-.065-3.271-.065-2.361-.049-5.642-.006-8.728.012a20.882,20.882,0,0,0-7.274,2.13l-1.779.911-.712-.457c-2.37-1.521-7.35-1.774-11.167-2.386l-.269-.029c-2.009,3.784-5.19,9.757-7.66,14.6,2.452,1.69,4.938,3.3,7.257,5.132a2.355,2.355,0,0,0,.354,1.018c.672,1,1.867,2.257,3.381,1.99-.042.069-1.27,2.374.639,3.674,1.12.762,2.935.72,4.828.433a3.194,3.194,0,0,0,3.286,2.757,12.714,12.714,0,0,0,3.518-.677c2-.7,5.822-2.194,10.819-4.471a26.085,26.085,0,0,0,4.287-2.778c2.931-2.215,6.02-4.935,7.18-5.811l2.646-2C308.542,202.922,305.618,197.414,303.559,193.535Z"/><path class="c" d="M270.1,195.609c1.092.173,2.189.313,3.286.454l.8.1.357.047.181.024.269.038c.118.017.236.033.354.051q.395.057.788.121a25.634,25.634,0,0,1,2.772.578c.4.111.8.245,1.192.391.3.11-.062-.06-.1-.043.029-.013.207.1.239.113.188.093.369.2.547.307a2.019,2.019,0,0,0,2.736-.717,2.043,2.043,0,0,0-.717-2.737,14.772,14.772,0,0,0-5.433-1.721c-1.147-.19-2.3-.338-3.455-.486l-1.506-.195c-.249-.032.316.045-.076-.011l-.341-.048q-.419-.06-.835-.126a2.051,2.051,0,0,0-2.46,1.4,2.024,2.024,0,0,0,1.4,2.46Z"/><path class="c" d="M270.393,211.21c-2.16-1.654-4.44-3.139-6.68-4.68a2.011,2.011,0,0,0-2.736.717,2.051,2.051,0,0,0,.717,2.737c2.24,1.541,4.52,3.026,6.68,4.68a2,2,0,0,0,1.541.2,2.038,2.038,0,0,0,1.2-.919,2.017,2.017,0,0,0,.2-1.541,2.358,2.358,0,0,0-.919-1.195Z"/><path class="c" d="M284.255,199.948a1.782,1.782,0,0,1-.289-1.506,1.232,1.232,0,0,1,.916-1.136c.3-.139-.031.008.173-.076.172-.07.345-.137.519-.2.378-.144.758-.279,1.141-.408.808-.272,1.625-.516,2.452-.725.389-.1.78-.19,1.173-.267.146-.029.292-.056.439-.081.66-.113-.341.012.267-.037.915-.073,1.844-.036,2.761-.043,2.16-.016,4.321-.037,6.481,0,2.575.05,2.575-3.95,0-4-2.622-.05-5.245-.012-7.867.006a20.538,20.538,0,0,0-6.042,1.05c-1.883.59-4.225,1.2-5.41,2.888a5.985,5.985,0,0,0,.458,7.363c1.819,1.826,4.647-1,2.828-2.829Z"/><path class="c" d="M287.486,197.69c-5.013,3.027-10.333,5.521-15.112,8.919-2.175,1.547-4.3,3.072-4.447,6-.149,3,2.681,6.08,5.764,5.781l-1.727-3.009a4.977,4.977,0,0,0,.113,5.226c1.739,2.44,5,2.188,7.612,1.819l-2.531-1.929a5.307,5.307,0,0,0,2.455,4.014c1.719,1.063,3.835.783,5.711.34a57.305,57.305,0,0,0,9.249-3.588,35.7,35.7,0,0,0,4.7-2.248,46.664,46.664,0,0,0,3.925-2.822c1.265-.982,2.5-2,3.734-3.023.476-.4.951-.794,1.428-1.189q.332-.274.664-.547c.079-.063.69-.541.231-.19a2.066,2.066,0,0,0,.718-2.736,2.014,2.014,0,0,0-2.737-.718c-3.721,2.845-7.11,6.487-11.37,8.543-2.9,1.4-5.915,2.622-8.927,3.761a16.651,16.651,0,0,1-3.664,1.081,2.222,2.222,0,0,1-1.645-.118c-.251-.182-.493-.752-.474-.56a2.046,2.046,0,0,0-2.532-1.928c-.75.106-2.689.48-3.282-.233-.143-.172-.092-.313-.057-.51a3.936,3.936,0,0,1,.176-.562c-.024.073-.169.363-.045.136.664-1.219-.141-3.164-1.727-3.01-1.9.185-2.145-2.006-1.006-3.058a4.128,4.128,0,0,1,.582-.454q.558-.414,1.125-.816,1.156-.822,2.334-1.613c4.063-2.723,8.591-4.777,12.779-7.306,2.2-1.329.193-4.789-2.019-3.454Z"/><path class="c" d="M288.927,204.085c-2.023.949-3.968,2.085-5.922,3.165-2.233,1.235-4.457,2.486-6.693,3.717a2.019,2.019,0,0,0-.718,2.736,2.042,2.042,0,0,0,2.737.718c2.236-1.231,4.46-2.483,6.693-3.717,1.954-1.08,3.9-2.216,5.922-3.165a2.008,2.008,0,0,0,.717-2.736,2.055,2.055,0,0,0-2.736-.718Z"/><path class="c" d="M244.331,177.8q6.3,3.37,12.594,6.764,3.279,1.757,6.559,3.511,1.792.959,3.588,1.915a25.462,25.462,0,0,1,3.454,1.891l-.718-.717c-.456-.663.319-1.15-.1-.552a3.9,3.9,0,0,0-.222.419q-.278.526-.558,1.052-.646,1.221-1.3,2.442-1.625,3.058-3.239,6.124-1.648,3.135-3.265,6.285-.751,1.471-1.488,2.95a16.81,16.81,0,0,1-1.3,2.538l.718-.717-.115.036h1.063a21.672,21.672,0,0,1-3.779-1.7q-2.316-1.077-4.623-2.17c-3.105-1.474-6.188-2.978-9.208-4.62-2.986-1.624-5.926-3.335-8.836-5.092a20.088,20.088,0,0,1-6.307-5.675,18.079,18.079,0,0,1-2.324-14.652c1.032-4.3,2.473-8.538,3.819-12.75q4.068-12.728,8.568-25.318c.4-1.116.8-2.232,1.222-3.34.089-.235.558-1.278.167-.456.542-1.14,1.056-2.289,1.673-3.392a13.548,13.548,0,0,1,3.224-3.928,25.654,25.654,0,0,1,2.391-1.608c.889-.546,1.786-1.086,2.709-1.571,4.574-2.4,9.662-3.943,14.509-5.693a31.6,31.6,0,0,0,4.771-1.967l3.969-2.213c2.249-1.253.234-4.71-2.019-3.454q-2.4,1.341-4.809,2.682c-.242.135.024,0,.149-.052-.272.115-.557.21-.834.313-.669.248-1.341.491-2.012.734-1.585.573-3.172,1.141-4.756,1.72-5.866,2.144-12.178,4.495-16.859,8.252-3.654,2.933-5.4,7.524-6.957,11.811-1.918,5.3-3.741,10.628-5.534,15.968-2.142,6.382-4.244,12.782-6.142,19.241-1.053,3.583-2.01,7.188-1.821,10.962a20.316,20.316,0,0,0,3.111,10.24c2.445,3.717,5.666,6.17,9.436,8.417,4.185,2.5,8.431,4.921,12.818,7.046,4.006,1.941,8.032,3.85,12.087,5.686a3.168,3.168,0,0,0,3.129.082,4.472,4.472,0,0,0,1.573-2.155c.65-1.341,1.322-2.671,2-4,2.845-5.574,5.916-11.034,8.734-16.62a3.32,3.32,0,0,0,.413-2.5c-.342-1.22-1.382-1.742-2.42-2.295q-3.287-1.749-6.568-3.5-6.319-3.378-12.631-6.771-2.844-1.527-5.688-3.058c-2.269-1.213-4.292,2.239-2.019,3.454Z"/><path class="c" d="M326.31,174.346c-8.3,4.439-16.579,8.911-24.887,13.334-.985.525-2.016,1.02-2.381,2.166a3.322,3.322,0,0,0,.374,2.629c.543,1.077,1.131,2.134,1.7,3.2q2.34,4.4,4.658,8.82c1.509,2.887,3.014,5.778,4.434,8.711a4.4,4.4,0,0,0,1.38,1.954,3.127,3.127,0,0,0,3.268.007c1.994-.906,3.976-1.838,5.959-2.769,4.291-2.014,8.556-4.066,12.7-6.365q3.151-1.746,6.242-3.6a34.2,34.2,0,0,0,5.333-3.631,20.678,20.678,0,0,0,6.436-9.988,24.739,24.739,0,0,0,.167-11.588c-1.4-6.343-3.695-12.583-5.722-18.746q-2.955-8.982-6.1-17.9c-1.441-4.073-2.782-8.394-5.338-11.931-3.362-4.649-9.141-7.111-14.5-9.211-3.242-1.27-6.524-2.434-9.8-3.617-.671-.243-1.342-.486-2.012-.734l-.736-.275c-.3-.113.425.232.013-.007-.9-.522-1.813-1.011-2.718-1.516l-2.053-1.145c-2.25-1.254-4.27,2.2-2.019,3.454a51.329,51.329,0,0,0,7.4,3.7c4.451,1.622,8.958,3.136,13.316,5a40,40,0,0,1,5.238,2.75,14.343,14.343,0,0,1,4.018,3.144,24.739,24.739,0,0,1,3.27,5.784c-.393-.827.081.23.167.456q.272.712.531,1.429c2.877,7.859,5.547,15.8,8.139,23.758,1.411,4.332,2.794,8.676,4.064,13.053,1.386,4.782,2.122,9.555.435,14.374-2.323,6.634-9.289,9.893-14.976,13.08-3.342,1.873-6.748,3.6-10.2,5.25q-2.448,1.168-4.907,2.313a26.027,26.027,0,0,1-4.551,2.056h1.064l-.115-.036.717.717a16.951,16.951,0,0,1-1.3-2.538q-.7-1.408-1.415-2.808-1.647-3.225-3.337-6.427-1.578-3-3.172-6-.683-1.284-1.364-2.569l-.512-.964a4.532,4.532,0,0,0-.267-.507c-.417-.584.383-.151-.1.552l-.718.717a23.917,23.917,0,0,1,3.241-1.777l3.593-1.917q3.384-1.809,6.767-3.623,6.3-3.378,12.594-6.764c2.271-1.214.253-4.668-2.019-3.454Z"/><path class="g" d="M319.215,142.012H303.293v6.216h15.922Z"/><path class="c" d="M318.236,140.012H306.477c-1.207,0-2.687-.231-3.76.441a3.1,3.1,0,0,0-1.424,2.606c-.037,1.056,0,2.119,0,3.176,0,.326-.014.656,0,.982a3.045,3.045,0,0,0,2.066,2.863,7.537,7.537,0,0,0,2.261.148H315.1c1.1,0,2.233.074,3.33-.02a3.017,3.017,0,0,0,2.784-2.962c.045-1.03,0-2.072,0-3.1,0-.382.017-.768,0-1.149a3.062,3.062,0,0,0-2.979-2.982,2.014,2.014,0,0,0-2,2,2.045,2.045,0,0,0,2,2c-.546-.055-1.078-.693-1.021-.953a1.862,1.862,0,0,0,0,.358v2.68a3.96,3.96,0,0,0,0,1.06c.1.275.238-.551.3-.631l.72-.3H304.6a1.3,1.3,0,0,0-.324,0l.722.3.3.72a1.123,1.123,0,0,0,0-.174,6.943,6.943,0,0,0,0-1.117c0-.9.073-1.823,0-2.714a.974.974,0,0,0,0-.229V143q0-.4-.3.713c-.664.664-.982.206-.4.3a21.991,21.991,0,0,0,3.277,0h10.368C320.81,144.012,320.814,140.012,318.236,140.012Z"/><path class="h" d="M265.544,119.191a20.081,20.081,0,0,0,4.9-4.656A6.585,6.585,0,0,1,270,113.12a7.292,7.292,0,0,1,.3-4.029c-1.363-5.465-6.609-8.343-9.638-8.872-5.17-.93-10.223-2.537-15.043-3.787a.533.533,0,0,0-.58.48c-.29,2.85-.717,5.577.373,7.517.716,1.275.719,1.474,3.074,3.144a62.9,62.9,0,0,1-7.548,2.231,1.967,1.967,0,0,0-1.243,2.884c2.619,4.383,8.32,7.949,13.018,8.87A17.037,17.037,0,0,0,265.544,119.191Z"/><path class="c" d="M261.364,104.717a18,18,0,0,0-12.023.385,76.065,76.065,0,0,1-7.807,2.487,5.709,5.709,0,0,0-3.046,1.442,3.975,3.975,0,0,0-1.025,3.078c.192,2.048,2.141,4.009,3.561,5.36a24.4,24.4,0,0,0,5.682,4.024,20.7,20.7,0,0,0,11.171,2.357,19.561,19.561,0,0,0,13.018-6.726c1.706-1.918-1.113-4.757-2.828-2.829a15.2,15.2,0,0,1-17.13,4.7,19.42,19.42,0,0,1-8.6-5.979c-.229-.287-.44-.586-.64-.893-.15-.23-.259-.467-.277-.367.021-.113-.119.048.045-.025a12.026,12.026,0,0,1,1.81-.46,55.142,55.142,0,0,0,6.456-2.051,14.927,14.927,0,0,1,10.57-.647c2.463.769,3.516-3.091,1.063-3.857Z"/><path class="c" d="M248.817,105.362a4.485,4.485,0,0,1-1.983-2.789,9.32,9.32,0,0,1-.094-2.595,9.715,9.715,0,0,1,.326-2.8l-.514.883.212-.183-.882.515.264-.036h-1.064c2.776.725,5.531,1.528,8.306,2.257,2.536.665,5.175,1.026,7.685,1.754a10.633,10.633,0,0,1,7.3,7.259c.662,2.485,4.522,1.431,3.857-1.063A14.662,14.662,0,0,0,261.189,98.29c-3.956-.793-7.834-1.818-11.722-2.891-1.626-.449-4.066-1.657-5.531-.346-1.271,1.137-1.125,3.545-1.207,5.134a10.051,10.051,0,0,0,1.021,5.375,9.7,9.7,0,0,0,3.048,3.254,2.014,2.014,0,0,0,2.736-.718,2.047,2.047,0,0,0-.717-2.736Z"/><path class="c" d="M270.618,105.722a5.224,5.224,0,0,0-1.9,2.008,8.645,8.645,0,0,0-.851,3.244,10.323,10.323,0,0,0,1.375,5.667,2.019,2.019,0,0,0,2.737.717,2.042,2.042,0,0,0,.717-2.736c-.093-.173-.184-.347-.27-.523-.044-.089-.086-.178-.128-.268q-.135-.3.026.073a2.165,2.165,0,0,0-.154-.4c-.062-.174-.117-.35-.163-.529s-.076-.354-.109-.533c-.077-.421.024.392-.007-.067a11.007,11.007,0,0,1-.039-1.1,1.435,1.435,0,0,1,.034-.51c-.043.29-.047.322-.011.1.016-.1.035-.193.056-.288a3.248,3.248,0,0,1,.31-1q-.177.411-.041.126c.036-.071.074-.14.116-.208l.061-.1q.18-.258-.113.136a2.291,2.291,0,0,0,.308-.314q.237-.2-.136.1c.065-.047.131-.092.2-.135a2,2,0,1,0-2.019-3.453Z"/><path class="h" d="M300.752,119.314c-4.4,2.543-9.858,3.307-14.3,3.307-5.857,0-10.364-1.331-12.857-2.968-2.237-1.469-3.1-5.161-2.452-10.755l.081-.7,2.758.676a50.24,50.24,0,0,0,13.085,1.224c4.329-.241,7.043-1.049,11.744-1.773a3.17,3.17,0,0,1,2.5.6,6.758,6.758,0,0,1,2.011,5.29c-.093,1.1.216,3.23-1.271,4.271Q301.42,118.929,300.752,119.314Z"/><path class="c" d="M299.743,117.587c-5.982,3.372-14.047,3.877-20.625,2.191a16.129,16.129,0,0,1-3.636-1.333,3.394,3.394,0,0,1-1.788-1.692c-1.241-2.555-.784-5.851-.471-8.555l-2.532,1.928c6.8,1.665,13.6,2.545,20.578,1.532,1.664-.242,3.312-.571,4.965-.875,1.211-.222,3.277-1.1,4.166.074a5.828,5.828,0,0,1,.9,3.814,5.252,5.252,0,0,1-.149,1.764c-.23.592-.883.839-1.411,1.152-2.214,1.311-.2,4.77,2.019,3.454,1.919-1.136,3.173-2.378,3.448-4.669a13.839,13.839,0,0,0-.2-4.933,6.833,6.833,0,0,0-3.7-4.794c-1.96-.754-4.153-.082-6.134.281a52.716,52.716,0,0,1-12.374,1.162,58.908,58.908,0,0,1-11.043-1.819,2.035,2.035,0,0,0-2.531,1.929c-.4,3.486-.637,7.346,1.017,10.573,1.369,2.671,4.4,3.894,7.133,4.68,7.751,2.228,17.31,1.581,24.389-2.41C304,119.777,301.99,116.321,299.743,117.587Z"/><path class="a" d="M101.71,97.874c-.288-.116-8.306-3.932-8.489-4-2.83-1.023-2.72-2.836-3.075-4.87-.228-1.3-.4-2.588-.5-3.892,6.794-3.607,12.164-12.856,13.136-15.494A29.062,29.062,0,0,0,104.1,66.05l.367.062a4.958,4.958,0,0,0,3.822-1.1,13.586,13.586,0,0,0,3.988-6.469c.855-2.518.909-6.589-.365-8.8a4.17,4.17,0,0,0-3.748-2.083,4.494,4.494,0,0,0-3.251,1.19s6.814-27.942-28.766-27.942S47.382,48.85,47.382,48.85a4.494,4.494,0,0,0-3.251-1.19,4.172,4.172,0,0,0-3.749,2.083c-1.273,2.208-1.22,6.279-.365,8.8a13.6,13.6,0,0,0,3.989,6.469,4.864,4.864,0,0,0,4.135,1.036A34.2,34.2,0,0,0,54.63,78.287,25.316,25.316,0,0,0,63.793,85.6c-.1,1.14-.257,2.225-.459,3.4-.368,2.034-.245,3.847-3.075,4.87-.184.067-9.126,4.251-9.678,4.434,0,0,1.573,9.749,25.748,9.749S101.71,97.874,101.71,97.874Z"/><path class="c" d="M51.113,100.238c.9-.314,1.766-.765,2.628-1.16q2-.914,3.986-1.84c1.043-.483,2.085-.969,3.129-1.449.108-.05.218-.1.325-.149.09-.044.272-.119-.16.066-.517.221-.059.032.074-.021.256-.1.513-.207.762-.326a5.558,5.558,0,0,0,2.469-2.284,8.788,8.788,0,0,0,.837-2.935c.234-1.51.493-3.011.63-4.534a2.008,2.008,0,0,0-2-2,2.053,2.053,0,0,0-2,2,38.4,38.4,0,0,1-.924,5.491c-.06.248.194-.3.035-.1a1.892,1.892,0,0,0-.136.241c-.222.39.166-.107-.081.106a2.571,2.571,0,0,0-.22.212c.217-.246.136-.086.015-.013-.1.062-.2.128-.3.187-.038.022-.453.23-.293.158-.144.065-.7.288-1.022.436-2.22,1.02-4.433,2.058-6.654,3.078q-.864.4-1.73.789l-.55.245c-.454.2.494-.184.12-.053a2.05,2.05,0,0,0-1.4,2.46,2.018,2.018,0,0,0,2.46,1.4Z"/><path class="c" d="M87.674,85.441c.129,1.421.335,2.83.567,4.238a16.445,16.445,0,0,0,.409,2.193,5.508,5.508,0,0,0,1.5,2.486,6.2,6.2,0,0,0,1.34.938,10.808,10.808,0,0,0,1,.435c.656.251-.46-.225-.21-.1,1.971,1.011,4.02,1.9,6.023,2.844.952.45,1.9.917,2.869,1.324a2,2,0,0,0,2.46-1.4,2.063,2.063,0,0,0-1.4-2.46c1,.417.061.01-.172-.1l-1.287-.607L97.3,93.593c-.9-.425-1.794-.851-2.693-1.271-.1-.045-.194-.092-.292-.135l-.075-.034c-.145-.064-.337-.144-.484-.2-.048-.02-.37-.164-.079-.027-.187-.088-.365-.186-.542-.29-.056-.033-.347-.228-.124-.07.2.14,0,0-.031-.032-.145-.144-.391-.471-.148-.105-.108-.162-.192-.34-.3-.5-.118-.176.1.168.074.186,0,0-.118-.348-.123-.364-.049-.166-.089-.335-.125-.5-.084-.4-.138-.8-.2-1.207-.2-1.316-.372-2.3-.49-3.594a2,2,0,0,0-4,0Z"/><path class="a" d="M88.694,121.065c3.05-9.3,5.927-18.491,7.747-24.81-.629-2.111-1.095-3.677-1.095-3.677-1.111-3.8-1.724-5.589-2.432-8.043.17.218-10.375,8.565-15.589,12.2H74.969c-6.941-3.891-12.93-7.751-15.639-10.443-.986,2.322-1.727,4.334-2.382,6.291-.062.184-.568,1.457-1.267,3.2,4.477,15.621,15.886,50.12,19.858,58.56h1.216C79.114,149.317,84.1,135.072,88.694,121.065Z"/><path class="b" d="M53.906,11.194l-4.149,3.411C43.5,19.153,41.422,24.942,40.929,36.61A36.968,36.968,0,0,0,42.31,48.032a5.163,5.163,0,0,1,1.821-.372,4.494,4.494,0,0,1,3.251,1.19l2.74-.706a18.148,18.148,0,0,1,2.9-8.324A21.268,21.268,0,0,1,66.13,30.558L67.2,27.212c4-1.415,24.971,5.786,32.729,8.273l1.618.418a13.732,13.732,0,0,1,1.018,2.428,15.237,15.237,0,0,1,.66,3.231c.211,2.557.106,4.506.2,7.583l1.485-.3a4.494,4.494,0,0,1,3.251-1.19,4.762,4.762,0,0,1,2.419.682,38.37,38.37,0,0,0,.117-21.406A32.924,32.924,0,0,0,99.83,10.257c-6.165-4.891-13.824-7.774-23.507-8.2-7.98-.355-16.28,2.392-21.446,8.341Z"/><path class="c" d="M56.291,11.809c7.828-8.852,20.958-9.167,31.5-5.762,9.814,3.17,17.955,10.8,20.822,20.838a38.07,38.07,0,0,1,.217,20.281c-.647,2.493,3.21,3.557,3.858,1.063,3.145-12.119,1.042-25.36-7.075-35.1A35.884,35.884,0,0,0,90.979,2.945,42.535,42.535,0,0,0,72.064.157c-7,.657-13.876,3.481-18.6,8.823-1.7,1.922,1.119,4.761,2.828,2.829Z"/><path class="c" d="M44.12,47.025a43.632,43.632,0,0,1-.156-19.711,17.813,17.813,0,0,1,6.8-10.982,2.059,2.059,0,0,0,.717-2.736,2.014,2.014,0,0,0-2.736-.717,21.822,21.822,0,0,0-8.571,13.063,48.019,48.019,0,0,0,.086,22.146c.609,2.5,4.467,1.442,3.857-1.063Z"/><path class="e" d="M40.807,381.659c-1.62-43.967-2.762-86.256-4.666-132.5,0,0-.412-10.653-.5-12.936a104.816,104.816,0,0,0,17.49-.759c5.36-.83,10.1-2.73,12.44-4.46a17.936,17.936,0,0,0,6.8-9.5,91.06,91.06,0,0,0,1.99-9.78.714.714,0,0,1,1.41-.01,100.45,100.45,0,0,0,2.13,10.2,19.358,19.358,0,0,0,6.42,9.35c3.05,2.56,6.33,3.46,11.13,4.25,5.786.942,16,.525,23.306.048-.006.149-.009.23-.009.23l-.517,13.781c-2.214,53.682-3.389,102.043-5.5,153.919a58.854,58.854,0,0,1-16.156,2.5c-5.843-.059-15.091-.573-19.374-1.679-4.278,1.105-13.547,1.617-19.393,1.674a58.681,58.681,0,0,1-16.16-2.493Q41.2,392.479,40.807,381.659Z"/><path class="a" d="M99.469,433.5c-2.915-2.391-5.716-4.785-9.008-7.218-1.633-1.208-3.665-2.044-5.216-3.355a9.148,9.148,0,0,1-2.1-2.794c-1.831-3.488-1.669-9.994-.972-13.871,0,0,.072-.4.2-1.092,4.525.519,10.178.777,14.21.817a53.518,53.518,0,0,0,9.745-.953l1.794,2.818c1.3,1.46,3.729,4.377,5.136,5.735,4.2,4.048,5.707,5.969,8.76,9.354,2.346,2.6,4.405,7.82,3.811,11.482-.458,2.826-3.174,4.373-5.823,5.46a21.251,21.251,0,0,1-7.721.4,20.909,20.909,0,0,1-9.093-3.813C101.9,435.473,100.674,434.485,99.469,433.5Z"/><path class="a" d="M55.01,433.288c2.9-2.267,5.635-4.568,9.84-6.242,2.152-.857,4.405-1.178,6.054-2.805a8.684,8.684,0,0,0,2.046-4.091,33.463,33.463,0,0,0,.132-13.561s-.117-.57-.3-1.512a146.162,146.162,0,0,1-14.97.9,54.759,54.759,0,0,1-10.7-1.131l-3.1,4.929L30.331,425.051c-6.726,6.9-4.421,13.873,3.382,15.131a21.378,21.378,0,0,0,12.1-1.815,29.748,29.748,0,0,0,6.775-3.255C53.428,434.515,54.225,433.9,55.01,433.288Z"/><path class="c" d="M104.6,406.04c2.636,4.9,7.144,8.66,10.9,12.645,3.814,4.043,9.068,8.944,8.4,15.093-.26,2.4-3.212,4.007-5.369,4.419a17.92,17.92,0,0,1-8.434-.5c-3.644-1.08-6.413-3.321-9.306-5.7-3.17-2.6-6.272-5.359-9.651-7.691-1.589-1.1-3.536-1.819-4.907-3.2a8.532,8.532,0,0,1-2.093-4.185,26.5,26.5,0,0,1-.039-10.134,2.057,2.057,0,0,0-1.4-2.46,2.016,2.016,0,0,0-2.46,1.4c-1.172,6.759-1.238,15.559,5.146,19.773,1.749,1.154,3.566,2.11,5.239,3.387,1.778,1.358,3.5,2.783,5.227,4.208,3.245,2.683,6.445,5.735,10.351,7.422,6.016,2.6,14.4,3.244,19.451-1.758,2.733-2.707,2.6-6.654,1.583-10.11-1.053-3.589-3.058-6.259-5.494-9.01-2.494-2.816-5.15-5.435-7.749-8.149a36.229,36.229,0,0,1-5.948-7.469c-1.22-2.268-4.675-.25-3.454,2.018Z"/><path class="c" d="M71.153,407.121a31.7,31.7,0,0,1,.043,11.54,8.18,8.18,0,0,1-1.483,3.929c-1.029,1.251-2.792,1.619-4.25,2.113a31.033,31.033,0,0,0-8.58,4.62c-2.608,1.945-5.03,4.184-7.978,5.617-3.265,1.587-6.971,3.116-10.617,3.414-2.7.221-6,.064-8.207-1.739-5.041-4.12,1.823-10.2,4.538-13.239,2.921-3.267,5.787-6.582,8.711-9.846a40.356,40.356,0,0,0,5.311-7.672c1.229-2.263-2.224-4.285-3.454-2.019a38.63,38.63,0,0,1-5.155,7.387c-2.872,3.206-5.675,6.473-8.555,9.672-2.6,2.892-5.6,5.544-6.711,9.42a8.871,8.871,0,0,0,1.607,8.224c2.138,2.562,5.51,3.537,8.715,3.809,4.36.371,8.3-.9,12.294-2.453a30.7,30.7,0,0,0,5.665-2.688c1.472-.954,2.838-2.083,4.216-3.166a31.56,31.56,0,0,1,9.072-5.418c2.007-.69,4.056-1.265,5.686-2.7a9.772,9.772,0,0,0,2.822-5.088,35.858,35.858,0,0,0,.167-14.784c-.5-2.523-4.352-1.455-3.857,1.064Z"/><path class="c" d="M76.666,406.233c5.6,1.4,11.654,1.543,17.4,1.7a59.614,59.614,0,0,0,19.2-2.518,2.061,2.061,0,0,0,1.468-1.929c1.013-24.953,1.839-49.913,2.662-74.873.835-25.356,1.68-50.711,2.711-76.06.228-5.588.43-11.178.64-16.767.1-2.575-3.9-2.571-4,0-.634,16.889-1.325,33.775-1.924,50.666-.886,24.921-1.66,49.846-2.518,74.768q-.727,21.135-1.571,42.266l1.469-1.928a56.039,56.039,0,0,1-18.137,2.375c-5.394-.149-11.075-.24-16.336-1.56-2.5-.626-3.562,3.231-1.063,3.858Z"/><path class="c" d="M76.662,402.378c-5.263,1.317-10.945,1.406-16.341,1.553a56.018,56.018,0,0,1-18.139-2.373l1.468,1.928c-1.007-24.862-1.831-49.73-2.652-74.6-.833-25.253-1.674-50.507-2.695-75.753q-.351-8.673-.678-17.346c-.1-2.566-4.1-2.579-4,0,.656,16.988,1.345,33.976,1.948,50.966.88,24.828,1.653,49.66,2.508,74.489q.729,21.123,1.569,42.243a2.066,2.066,0,0,0,1.469,1.929,59.6,59.6,0,0,0,19.2,2.516c5.747-.157,11.8-.293,17.4-1.695,2.5-.625,1.439-4.483-1.063-3.858Z"/><path class="c" d="M75.194,257.908q.014,8.668.006,17.337,0,16.617,0,33.235,0,19.476,0,38.953,0,17.414,0,34.825,0,10.4,0,20.79v1.1c0,2.574,4,2.578,4,0q0-9.165,0-18.33l0-33.746q0-19.491,0-38.982,0-17.188,0-34.375,0-9.929-.005-19.857c0-.315,0-.631,0-.946,0-2.574-4-2.578-4,0Z"/><path class="i" d="M70.344,140.921c-.6-1.688-1.225-3.466-1.863-5.306,1.582-11.169,3.372-23.577,3.362-24.2a28.925,28.925,0,0,0-1.6-6.282l-.82-1.708c2.1-2.78,4.337-5.686,5.548-7.049h2.356c1.162,1.307,3.271,4.035,5.292,6.709l-.444,1.825c-.365,1.5-1.225,5.755-1.225,6.4,0,.374,1.724,13.645,2.926,24.095-2.931,8.482-5.582,15.666-7.119,18.937H75.539C74.348,151.807,72.487,146.93,70.344,140.921Z"/><path class="c" d="M67.373,109.473c2.944-3.81,5.767-7.765,9.011-11.329A2.025,2.025,0,0,0,75.979,95c-3.14-1.764-6.25-3.591-9.259-5.573a39.169,39.169,0,0,1-5.975-4.557,2.03,2.03,0,0,0-3.343.883c-.865,2.07-1.515,4.221-2.383,6.29a2.012,2.012,0,0,0,1.4,2.46,2.052,2.052,0,0,0,2.461-1.4c.867-2.068,1.517-4.22,2.382-6.29l-3.343.883a43.628,43.628,0,0,0,6.49,4.986c3.1,2.059,6.311,3.947,9.554,5.769l-.4-3.141c-1.756,1.93-3.354,4.009-4.958,6.065q-1.291,1.657-2.57,3.326-.511.666-1.021,1.333c-.129.169-.889,1.157-.461.6a2.067,2.067,0,0,0,0,2.829,2.013,2.013,0,0,0,2.828,0Z"/><path class="c" d="M87.813,106.723c-2.964-3.837-5.808-7.817-9.074-11.407l-.4,3.141c3.61-2.521,7.1-5.228,10.553-7.954,1.408-1.11,2.815-2.225,4.185-3.382,1.023-.863,2-1.606,1.769-3.118l-3.857,1.063c.781,2.69,1.644,5.356,2.433,8.043.724,2.465,4.585,1.416,3.857-1.063-.789-2.688-1.652-5.353-2.433-8.043a2,2,0,0,0-3.857,1.063l0,.011V84.014c.562-1.43.647-.9.3-.637-.149.112-.283.261-.423.385-.436.385-.885.756-1.333,1.125-1.329,1.1-2.679,2.167-4.033,3.23-3.009,2.36-6.047,4.7-9.182,6.886a2.035,2.035,0,0,0-.405,3.141c3.037,3.339,5.691,7.029,8.448,10.6a2.068,2.068,0,0,0,2.737.717,2.012,2.012,0,0,0,.717-2.736Z"/><path class="f" d="M28.825,231.883c.784-8.633,2.2-21.078,3.058-31.253,0,0,.1-1.2.277-3.222q-1.284-.615-2.6-1.253a2.319,2.319,0,0,1-.246-.112c-5.8-2.843-11.777-6.3-17.162-9.583-4-2.418-7.993-7.411-9.135-11.475a24.735,24.735,0,0,1,0-14.072c4.075-14.744,15.665-44.075,16.74-46.458,1.565-3.464,2.581-5.217,3.75-6.523.84-.81,2.014-1.78,2.014-1.78a53.457,53.457,0,0,1,5.7-3.519c4.8-2.444,16.015-6.218,20.42-7.913l3.194-1.969c3.661,13.61,16.449,52.547,20.7,61.588h1.216C81,145.311,93.73,106.469,97.407,92.8c1.407.872,3.1,1.916,3.1,1.916,4.405,1.7,15.619,5.469,20.42,7.913a53.257,53.257,0,0,1,5.7,3.519s1.174.97,2.014,1.78c1.17,1.306,2.186,3.059,3.75,6.523,1.076,2.383,12.666,31.714,16.741,46.458a24.744,24.744,0,0,1,0,14.072c-1.142,4.064-5.139,9.057-9.136,11.475-5.384,3.28-11.363,6.74-17.162,9.583a2.232,2.232,0,0,1-.246.112l-2.26.969.119,1.5c.16,2.02-.06.19.97,10.75.98,9.42,1.72,17.24,2.27,24.57a1.261,1.261,0,0,1-1.15,1.35c-7.08.54-20.21,1.34-27.09.22-4.8-.79-8.08-1.69-11.13-4.25a19.358,19.358,0,0,1-6.42-9.35,100.45,100.45,0,0,1-2.13-10.2.714.714,0,0,0-1.41.01,91.06,91.06,0,0,1-1.99,9.78,17.936,17.936,0,0,1-6.8,9.5c-2.34,1.73-7.08,3.63-12.44,4.46a108.623,108.623,0,0,1-23.3.38,1.354,1.354,0,0,1-1.22-1.47C28.674,233.584,28.746,232.753,28.825,231.883Z"/><path class="c" d="M65.957,150.638c-4.165-7.22-8.294-14.461-12.32-21.759q-3-5.437-5.91-10.922-1.389-2.626-2.751-5.267-.207-.4-.412-.8-.233-.709-.218-.207c-.2.434.738-.6.83-.694.734-.765,1.486-1.511,2.245-2.251,1.846-1.8-.983-4.627-2.829-2.829-1.427,1.391-3.75,3.087-4.145,5.149-.369,1.93,1.275,4.047,2.119,5.668q3.169,6.088,6.479,12.1c4.384,8,8.9,15.927,13.458,23.829,1.286,2.229,4.744.217,3.454-2.019Z"/><path class="c" d="M118.449,198.62c.771,9.816,1.928,19.6,2.765,29.411q.219,2.566.416,5.135a1.935,1.935,0,0,0,.044.58c.338.518.381-.654.6-.436-.1-.1-.807.06-.982.073q-.99.072-1.981.138c-3.146.211-6.3.379-9.446.475-6.143.186-12.42.274-18.4-1.347A17.107,17.107,0,0,1,79.505,220.2c-.393-1.562-.723-3.139-1.035-4.719q-.287-1.457-.542-2.919a4.468,4.468,0,0,0-.962-2.678,2.764,2.764,0,0,0-4.259.589,8.934,8.934,0,0,0-.629,2.852q-.275,1.575-.588,3.144a24.622,24.622,0,0,1-2.771,8.319,15.971,15.971,0,0,1-6.411,5.835c-6.064,3.049-13.1,3.491-19.771,3.637-3.483.076-6.974.025-10.45-.222-.355-.026-.711-.053-1.067-.083a4.745,4.745,0,0,0-.518-.046c-.657.013-.226-.075-.072.144.317.451.194.125.23-.3q.048-.558.1-1.117.211-2.371.446-4.741c.718-7.323,1.517-14.638,2.205-21.963q.249-2.65.475-5.3c.218-2.565-3.784-2.551-4,0-.6,7.066-1.344,14.119-2.066,21.173-.324,3.164-.646,6.329-.938,9.5-.129,1.393-.55,3.109-.016,4.444.694,1.736,2.313,2.047,3.983,2.194a104.146,104.146,0,0,0,19.526-.133c6.281-.637,12.979-2.181,17.873-6.4a20.108,20.108,0,0,0,5.819-8.666,34.616,34.616,0,0,0,1.115-4.389q.316-1.512.59-3.033c.138-.758.185-2.552.528-3.007l-.718.717-1.3-.139L73.761,212a24.8,24.8,0,0,1,.6,3.212q.3,1.6.636,3.19a39.06,39.06,0,0,0,1.161,4.6,21.863,21.863,0,0,0,6.594,9.535c5.516,4.7,13.275,5.4,20.246,5.516,3.715.065,7.434-.051,11.145-.234q2.585-.127,5.166-.3c1.588-.106,3.73.088,5.059-.884,1.823-1.333,1.25-3.69,1.095-5.619q-.243-3.029-.516-6.056-.612-6.82-1.324-13.632c-.435-4.234-.839-8.468-1.172-12.71-.2-2.55-4.2-2.571-4,0Z"/><path class="c" d="M80.6,108.1c-2.828,0-5.656-.059-8.484-.061a2,2,0,0,0,0,4c2.828,0,5.656.06,8.484.061a2,2,0,0,0,0-4Z"/><path class="c" d="M80.244,104.378a39.158,39.158,0,0,0-1.274,6.66,20.517,20.517,0,0,0,.376,3.607c.8,6.453,1.612,12.906,2.367,19.366a2.061,2.061,0,0,0,2,2,2.012,2.012,0,0,0,2-2c-.744-6.373-1.543-12.738-2.335-19.1-.152-1.224-.352-2.455-.427-3.686-.022-.363-.079.484.005-.07.034-.224.073-.446.112-.669.1-.557.2-1.113.313-1.669.222-1.127.453-2.254.72-3.372.6-2.5-3.257-3.569-3.857-1.063Z"/><path class="c" d="M70.669,134.319c.923-6.507,1.873-13.011,2.754-19.524a15.717,15.717,0,0,0,.337-4.153,23.953,23.953,0,0,0-1.792-6.519,2.014,2.014,0,0,0-2.736-.717,2.048,2.048,0,0,0-.718,2.736c-.192-.427.224.681.291.9.16.518.306,1.041.444,1.565s.274,1.074.391,1.615c.056.258.109.517.156.778.118.659.031-.244.04.272a20.757,20.757,0,0,1-.379,3.262c-.854,6.245-1.759,12.483-2.645,18.724a2.066,2.066,0,0,0,1.4,2.46,2.014,2.014,0,0,0,2.46-1.4Z"/><path class="c" d="M95.767,91.178c-2.082,8.032-4.666,15.948-7.209,23.842-3.08,9.564-6.251,19.105-9.689,28.546-.721,1.978-1.454,3.951-2.223,5.91q-.459,1.17-.94,2.33c-.01.022.079-.179-.073.169q-.1.234-.2.466-.2.447-.4.889l1.727-.991H75.539l1.727.991c-.242-.517-.471-1.04-.7-1.565-.036-.085.1.251-.046-.11-.064-.156-.129-.311-.193-.467q-.222-.541-.438-1.086c-.665-1.668-1.3-3.348-1.923-5.032-1.6-4.334-3.126-8.7-4.622-13.068q-4.957-14.5-9.471-29.143c-1.188-3.874-2.37-7.757-3.389-11.68-.646-2.489-4.505-1.434-3.857,1.064,2.112,8.132,4.737,16.146,7.318,24.138,3.1,9.583,6.28,19.145,9.741,28.6,1.276,3.485,2.547,7,4.122,10.366a1.971,1.971,0,0,0,1.727.99h1.216a1.97,1.97,0,0,0,1.727-.99c3.3-7.066,5.689-14.629,8.207-22q4.983-14.576,9.514-29.3c1.2-3.917,2.393-7.842,3.421-11.809.647-2.493-3.21-3.557-3.857-1.063Z"/><path class="c" d="M104.825,125.972q2.144-3.883,4.195-7.815c.977-1.875,2.031-3.737,2.909-5.66a3.627,3.627,0,0,0-.1-3.5,15.456,15.456,0,0,0-2.448-2.694c-1.814-1.832-4.642,1-2.828,2.828a17.608,17.608,0,0,1,1.885,1.984c0-.006-.083-.4-.077-.393s-.172.328-.22.423q-.366.714-.733,1.428-1.189,2.314-2.4,4.62-1.783,3.4-3.64,6.755c-1.246,2.255,2.207,4.275,3.454,2.019Z"/><path class="c" d="M89.791,152.657q4.13-7.157,8.16-14.369a2,2,0,0,0-3.454-2.019q-4.016,7.221-8.159,14.369a2,2,0,1,0,3.453,2.019Z"/><path class="c" d="M30.033,124.246c.877,12.155,1.672,24.323,1.89,36.51.046,2.571,4.046,2.579,4,0-.218-12.187-1.013-24.355-1.89-36.51-.184-2.552-4.185-2.572-4,0Z"/><path class="c" d="M120.333,164.153c.113-13.32.978-26.618,1.93-39.9.183-2.568-3.817-2.557-4,0-.952,13.282-1.817,26.58-1.93,39.9-.023,2.575,3.977,2.577,4,0Z"/><path class="g" d="M112.681,123.983H96.759V130.2h15.922Z"/><path class="c" d="M111.7,121.983H99.943c-1.207,0-2.687-.231-3.76.441a3.1,3.1,0,0,0-1.424,2.606c-.037,1.056,0,2.119,0,3.176,0,.326-.014.656,0,.982a3.045,3.045,0,0,0,2.066,2.863,7.537,7.537,0,0,0,2.261.148h9.481c1.1,0,2.233.074,3.33-.02a3.017,3.017,0,0,0,2.784-2.962c.045-1.03,0-2.072,0-3.1,0-.382.017-.768,0-1.149a3.062,3.062,0,0,0-2.979-2.982,2.014,2.014,0,0,0-2,2,2.045,2.045,0,0,0,2,2c-.546-.055-1.078-.693-1.021-.953a1.862,1.862,0,0,0,0,.358v2.68a3.96,3.96,0,0,0,0,1.06c.095.275.238-.551.3-.631l.719-.3H98.062a1.3,1.3,0,0,0-.324,0l.722.3.3.72a1.123,1.123,0,0,0,0-.174,6.943,6.943,0,0,0,0-1.117c0-.895.073-1.823,0-2.714a.974.974,0,0,0,0-.229v-.011q0-.4-.3.713c-.664.664-.982.206-.4.3a21.991,21.991,0,0,0,3.277,0H111.7C114.276,125.983,114.28,121.983,111.7,121.983Z"/><path class="c" d="M102.714,63.407a28.935,28.935,0,0,1-1.31,4.367c-.193.508-.355.841-.584,1.41-.2.507.137-.275-.036.087-.063.132-.122.266-.185.4a36.993,36.993,0,0,1-3.2,5.326c-2.785,3.947-6.6,8.256-11.493,9.407-2.505.589-1.444,4.446,1.064,3.857,5.777-1.358,10.224-6.183,13.571-10.809a38.005,38.005,0,0,0,3.477-5.691c.207-.427.392-.862.575-1.3.217-.518-.147.343.082-.187.149-.347.3-.694.435-1.045a28.971,28.971,0,0,0,1.461-4.756c.524-2.512-3.331-3.586-3.857-1.063Z"/><path class="c" d="M45.641,64.368c2.481,10.883,10.671,22.749,22.433,24.523a2.064,2.064,0,0,0,2.46-1.4,2.014,2.014,0,0,0-1.4-2.46C58.668,83.455,51.7,72.966,49.5,63.3c-.572-2.508-4.43-1.447-3.857,1.064Z"/><path class="c" d="M70.537,73.607a12.277,12.277,0,0,0,5.915,1.379,9.738,9.738,0,0,0,6.074-1.836,2.005,2.005,0,0,0,0-2.829,2.064,2.064,0,0,0-2.829,0c.69-.537-.037,0-.256.111-.169.089-.626.23,0,.02-.161.054-.318.123-.481.175-.2.066-.413.122-.623.171a4.509,4.509,0,0,0-.725.137c.2-.089.317-.038.014-.008-.132.013-.265.024-.4.032-.319.021-.638.029-.958.027q-.429,0-.857-.031c-.131-.009-.262-.019-.393-.032L74.8,70.9c-.156-.019-.1-.011.176.023-.113.055-.519-.092-.645-.12q-.309-.069-.614-.159c-.176-.053-.348-.116-.522-.176-.453-.155.415.2,0,.006q-.324-.153-.64-.319a2,2,0,1,0-2.019,3.454Z"/><path class="c" d="M75.192,59.989a26.5,26.5,0,0,1,.623,2.852l-.071-.531a1.722,1.722,0,0,1,.01.393l.072-.531a.993.993,0,0,1-.043.177l.2-.478a.742.742,0,0,1-.062.114l.312-.405a.578.578,0,0,1-.093.092l.405-.313a1.876,1.876,0,0,1-.226.12l.478-.2a1.646,1.646,0,0,1-.381.111l.532-.071a1.531,1.531,0,0,1-.358,0l.532.072c-.135-.019-.267-.052-.4-.07a1.512,1.512,0,0,0-.8-.036,1.489,1.489,0,0,0-.744.237,2,2,0,0,0-.717,2.737,1.913,1.913,0,0,0,1.2.919c.354.048.7.136,1.059.152a3.467,3.467,0,0,0,1.622-.394,2.459,2.459,0,0,0,1.327-1.607,3.811,3.811,0,0,0-.013-1.67c-.155-.918-.368-1.829-.6-2.731a2.064,2.064,0,0,0-.919-1.2,2,2,0,0,0-2.737.718,2.1,2.1,0,0,0-.2,1.541Z"/><path class="c" d="M60.628,51.768c-.477,1.548-.166,5.109,2.766,5.412,3.877-.023,4.083-4.328,2.778-6.353C65.1,49.17,61.962,48.481,60.628,51.768Z"/><path class="c" d="M91.667,51.768c.476,1.548.166,5.109-2.767,5.412-3.876-.023-4.082-4.329-2.778-6.353C87.191,49.17,90.332,48.481,91.667,51.768Z"/><path class="c" d="M106.327,50.264a2.674,2.674,0,0,1,2.317-.552,2.142,2.142,0,0,1,1.1.469c-.276-.2.544.732.235.244a5.278,5.278,0,0,1,.786,2.119,12.019,12.019,0,0,1,.078,3.132,13.252,13.252,0,0,1-1.615,5.024c-.988,1.823-2.48,3.708-4.759,3.412a2.01,2.01,0,0,0-2,2,2.052,2.052,0,0,0,2,2c5.264.683,8.5-5,9.81-9.26,1.179-3.814,1.132-9.738-2.6-12.18a6.866,6.866,0,0,0-8.179.764c-1.925,1.717.912,4.538,2.828,2.828Z"/><path class="c" d="M48.8,47.436a6.9,6.9,0,0,0-7.517-1.121,6.556,6.556,0,0,0-3.434,4.417,16.5,16.5,0,0,0,2.4,13.022c1.689,2.513,4.355,4.777,7.588,4.358a2.066,2.066,0,0,0,2-2,2.011,2.011,0,0,0-2-2c-2.279.3-3.771-1.589-4.759-3.412a13.23,13.23,0,0,1-1.616-5.024,8.615,8.615,0,0,1,.864-5.251c-.317.5.513-.449.235-.244a2.05,2.05,0,0,1,.967-.441,2.7,2.7,0,0,1,2.448.524c1.916,1.709,4.754-1.11,2.829-2.828Z"/><path class="a" d="M93.673,205.454a29.484,29.484,0,0,1-4.846,3.14c-5.648,2.573-9.972,4.257-12.228,5.054a14.357,14.357,0,0,1-3.976.764,3.609,3.609,0,0,1-3.714-3.115c-2.14.324-4.191.372-5.457-.49-2.158-1.469-.769-4.074-.722-4.152-1.712.3-3.062-1.117-3.822-2.249a2.682,2.682,0,0,1-.4-1.151c-3.553-2.813-7.454-5.148-11.135-7.89,2.591-5.034,5.642-10.777,7.794-14.83l4.1.451c4.315.691,9.943.978,12.623,2.7l.8.516,2.01-1.029c2.016-1.033,5.97-2.395,8.222-2.408,3.488-.02,7.2-.069,9.865-.013,0,0,1.61.033,3.7.073,2.327,4.384,5.632,10.609,8.29,15.807l-2.991,2.258C100.477,199.876,96.986,202.951,93.673,205.454Z"/><path class="c" d="M72.9,181.956c-2.753-1.71-6.3-1.989-9.437-2.4-2.2-.287-4.3-.585-6.611-.861a2.011,2.011,0,0,0-2,2,2.049,2.049,0,0,0,2,2l2.208.264c.5.06-.335-.057.009.006.375.068.758.112,1.136.164.925.127,1.852.246,2.778.365,1.388.179,2.872.377,4.369.695a18.894,18.894,0,0,1,2.135.565c.153.051.3.109.455.162.347.122-.074-.045.116.047a8.816,8.816,0,0,1,.823.445,2,2,0,1,0,2.019-3.454Z"/><path class="c" d="M58.873,201.025c-2.748-2.1-5.666-3.966-8.5-5.95a2.01,2.01,0,0,0-2.736.717,2.052,2.052,0,0,0,.718,2.737c2.832,1.984,5.75,3.846,8.5,5.95a2,2,0,0,0,1.541.2,2,2,0,0,0,1.4-2.46,2.369,2.369,0,0,0-.919-1.195Z"/><path class="c" d="M74.486,188.255a2.437,2.437,0,0,1-.263-2.436c.276-.731.879-.911,1.533-1.172a30.9,30.9,0,0,1,6.072-1.778,45.7,45.7,0,0,1,7.143-.145c1.79,0,3.578.029,5.367,0,2.572-.043,2.58-4.043,0-4-2.331.039-4.663-.006-6.994.008a33.545,33.545,0,0,0-8.587.734,37.5,37.5,0,0,0-3.672,1.174,9.342,9.342,0,0,0-3.256,1.661,6.5,6.5,0,0,0-.172,8.783c1.809,1.837,4.637-.992,2.829-2.828Z"/><path class="c" d="M78.454,185.743c-5.632,3.4-11.613,6.2-16.986,10.013-2.4,1.7-4.793,3.354-4.989,6.588s2.9,6.674,6.251,6.311L61,205.646a5.4,5.4,0,0,0,0,5.482c1.859,2.785,5.543,2.509,8.437,2.1L66.909,211.3a5.618,5.618,0,0,0,2.131,3.925c1.621,1.293,3.4,1.269,5.367.993,3.023-.425,5.953-1.824,8.752-2.988a51.491,51.491,0,0,0,9.44-4.541c2.635-1.8,5.1-3.844,7.553-5.883.939-.781,1.87-1.571,2.827-2.33-.443.351.172-.133.312-.248.22-.18.435-.367.652-.551l1.107-.935c1.969-1.664-.873-4.481-2.829-2.828-.586.5-1.176.986-1.758,1.485-.057.049-.191.169.071-.049.4-.337-.247.191-.268.207q-.187.145-.372.294c-.351.28-.7.568-1.043.855-1.979,1.641-3.938,3.31-5.983,4.869-4.566,3.481-9.885,5.558-15.228,7.571a17.873,17.873,0,0,1-4.165,1.19,2.435,2.435,0,0,1-2-.259,1.948,1.948,0,0,1-.408-.505c-.076-.13-.179-.515-.156-.272a2.046,2.046,0,0,0-2.532-1.929c-.922.131-3.51.6-4.079-.508a.842.842,0,0,1-.007-.687,5.006,5.006,0,0,1,.172-.55c-.15.447-.07.157-.006.041.664-1.206-.143-3.18-1.727-3.009-2.184.236-2.87-2.461-1.442-3.8a39.663,39.663,0,0,1,4.548-3.273c4.648-3.135,9.836-5.488,14.636-8.388,2.2-1.329.193-4.789-2.018-3.454Z"/><path class="c" d="M80.082,192.971c-2.287,1.072-4.485,2.356-6.693,3.577-2.525,1.4-5.039,2.81-7.566,4.2a2,2,0,0,0,2.019,3.454c2.527-1.391,5.041-2.806,7.566-4.2,2.208-1.221,4.406-2.5,6.692-3.577a2.017,2.017,0,0,0,.718-2.736,2.045,2.045,0,0,0-2.736-.718Z"/><path class="c" d="M94.531,93.385l3.86,2.379a22.878,22.878,0,0,0,4.339,1.906c5.044,1.834,10.163,3.544,15.081,5.7a45.07,45.07,0,0,1,5.963,3.245,14.139,14.139,0,0,1,4.215,3.832,24.545,24.545,0,0,1,1.91,3.372c.278.571.54,1.149.805,1.727.221.483-.012-.035.015.032.411,1.012.826,2.022,1.23,3.036q5.224,13.113,9.936,26.429c1.661,4.7,3.277,9.427,4.692,14.21,1.57,5.3,2.34,10.838.315,16.15-2.8,7.344-10.336,10.923-16.742,14.515-3.673,2.06-7.415,3.965-11.214,5.781q-2.916,1.4-5.848,2.758-1.341.627-2.686,1.248l-1.09.5-.7.326q-.7.284.009.068l.883.514c-.584-.473-.958-1.836-1.3-2.527q-.8-1.611-1.619-3.212-1.842-3.607-3.733-7.188-1.8-3.429-3.621-6.847-.711-1.341-1.424-2.681-.308-.581-.614-1.16c-.089-.167-.165-.349-.269-.507-.438-.67.236-.172-.125.352l-.717.718a27.414,27.414,0,0,1,3.73-2.044l3.839-2.05q3.73-1.992,7.457-3.991c4.768-2.556,9.528-5.128,14.3-7.679,2.271-1.214.253-4.669-2.019-3.454-9.4,5.029-18.785,10.1-28.2,15.107a3.787,3.787,0,0,0-2.306,2.39,3.874,3.874,0,0,0,.629,2.75q.962,1.823,1.931,3.64,2.63,4.95,5.232,9.913c1.642,3.147,3.281,6.3,4.825,9.494a4.456,4.456,0,0,0,1.378,1.961c1.216.828,2.341.539,3.58-.034q3.344-1.543,6.678-3.1c4.8-2.254,9.569-4.554,14.208-7.13q3.6-2,7.128-4.117a35.231,35.231,0,0,0,5.971-4.154,22.855,22.855,0,0,0,6.838-10.845A27.379,27.379,0,0,0,151.464,162a100.852,100.852,0,0,0-2.918-9.822c-1.161-3.533-2.385-7.045-3.639-10.546q-3.535-9.874-7.356-19.644c-1.647-4.23-3.147-8.747-5.512-12.642-3.454-5.688-9.921-8.59-15.867-10.95-3.677-1.458-7.4-2.786-11.123-4.13q-1.14-.413-2.279-.829-.462-.169-.923-.342c-.139-.052-.278-.113-.419-.157-.562-.179.134.081.046.026-.88-.547-1.765-1.088-2.647-1.632l-2.277-1.4c-2.2-1.355-4.209,2.1-2.019,3.454Z"/><path class="c" d="M55.6,89.931c-1.647,1.015-3.3,2.025-4.941,3.045.557-.345-.156.046-.357.121q-.46.173-.922.342-1.211.446-2.424.881c-1.8.651-3.608,1.3-5.407,1.962-6.274,2.309-12.991,4.6-18.135,9.042-3.876,3.346-5.581,8.466-7.422,13.114q-3.555,8.976-6.879,18.042c-2.5,6.8-4.942,13.623-7.05,20.552C.859,160.994-.177,165,.026,169.181A22.506,22.506,0,0,0,3.384,180.4a26.667,26.667,0,0,0,4.622,5.429,37.452,37.452,0,0,0,5.875,4.006c4.576,2.731,9.217,5.393,14.009,7.728q6.944,3.384,13.979,6.585a3.268,3.268,0,0,0,3.2.11,4.592,4.592,0,0,0,1.635-2.228c.706-1.459,1.435-2.907,2.171-4.35,3.178-6.236,6.495-12.4,9.763-18.586a4,4,0,0,0,.664-2.484c-.19-1.382-1.2-2.049-2.341-2.656q-3.75-2-7.5-4-7-3.741-13.984-7.5c-2.24-1.2-4.477-2.413-6.72-3.612-2.269-1.214-4.292,2.238-2.018,3.454,4.77,2.551,9.53,5.123,14.3,7.679q3.623,1.941,7.247,3.879l3.835,2.047a29.048,29.048,0,0,1,3.945,2.159l-.718-.718c-.4-.576.3-.985-.083-.432a4.723,4.723,0,0,0-.263.5L54.4,178.56l-1.48,2.786q-1.816,3.42-3.621,6.847-1.884,3.585-3.733,7.188-.786,1.539-1.556,3.087c-.358.721-.755,2.159-1.363,2.652l.882-.514.355.091-.7-.321-1.077-.5-2.268-1.051q-2.673-1.244-5.338-2.507c-3.376-1.6-6.731-3.24-10.017-5.023-3.438-1.866-6.82-3.836-10.169-5.858a22.525,22.525,0,0,1-6.931-6.234,20.355,20.355,0,0,1-2.8-16.366A137.41,137.41,0,0,1,8.971,148.76c3.222-9.377,6.712-18.666,10.341-27.893q.805-2.052,1.631-4.1c.161-.4.327-.793.488-1.19.076-.185-.23.5-.005.017.275-.6.543-1.2.828-1.792a16.3,16.3,0,0,1,4.215-5.847c.143-.122.285-.248.433-.365.187-.148-.488.35.1-.068.448-.318.911-.615,1.374-.908,1.091-.69,2.2-1.358,3.332-1.978,5-2.739,10.673-4.427,16.018-6.357a29.617,29.617,0,0,0,5.552-2.222l4.342-2.676c2.187-1.349.18-4.81-2.019-3.454Z"/><path class="c" d="M65.6,28.629a22.5,22.5,0,0,0-11.467,6.6,21.767,21.767,0,0,0-6.01,12.912,2.012,2.012,0,0,0,2,2,2.046,2.046,0,0,0,2-2c.81-7.606,7.152-14.085,14.54-15.657A2,2,0,0,0,65.6,28.629Z"/><path class="c" d="M100.463,33.556c-4.512-1.448-9.006-2.95-13.537-4.338A113.163,113.163,0,0,0,72.191,25.4c-1.731-.282-3.8-.683-5.52-.12-2.436.8-1.393,4.66,1.063,3.857.232-.076.772-.114.231-.081.339-.021.674-.034,1.014-.024a15.055,15.055,0,0,1,2.04.208c2.238.359,4.448.9,6.64,1.475,5.056,1.325,10.046,2.9,15.018,4.51,2.242.725,4.479,1.465,6.723,2.185,2.457.789,3.509-3.072,1.063-3.857Z"/><path class="c" d="M97.117,33.364a13.632,13.632,0,0,1,3.972,7.264c.543,2.752.258,5.727.339,8.517.074,2.568,4.074,2.579,4,0-.095-3.282.161-6.675-.549-9.9a17.432,17.432,0,0,0-4.933-8.706c-1.844-1.8-4.675,1.026-2.829,2.828Z"/></svg>