<?xml version="1.0" encoding="utf-8"?>
<!-- Uploaded to: SVG Repo, www.svgrepo.com, Generator: SVG Repo Mixer Tools -->
<svg width="800px" height="800px" viewBox="0 -30.35 363.542 363.542" xmlns="http://www.w3.org/2000/svg"><defs><style>.a{fill:#ffffff;}.b{fill:#b29683;}.c{fill:#88c5e9;}.d{fill:#211715;}.e{fill:#ffda71;}</style></defs><path class="a" d="M77.349,300.439V74.221h198V300.439"/><path class="b" d="M77.349,226.753v73.692h53.495c-.007-21.271-.007-56.3-.007-77.566H77.349Z"/><path class="c" d="M249.7,134.269H183.4v30.038h66.3Z"/><path class="d" d="M249.7,131.869H183.4a2.435,2.435,0,0,0-2.4,2.4v30.038a2.434,2.434,0,0,0,2.4,2.4h66.3a2.435,2.435,0,0,0,2.4-2.4V134.269c0-3.089-4.8-3.094-4.8,0v30.038l2.4-2.4H183.4l2.4,2.4V134.269l-2.4,2.4h66.3C252.784,136.669,252.789,131.869,249.7,131.869Z"/><path class="d" d="M79.749,300.439V74.221l-2.4,2.4h198l-2.4-2.4V300.439c0,3.088,4.8,3.093,4.8,0V74.221a2.435,2.435,0,0,0-2.4-2.4h-198a2.435,2.435,0,0,0-2.4,2.4V300.439c0,3.088,4.8,3.093,4.8,0Z"/><path class="d" d="M94.548,96.941H258.141c3.089,0,3.094-4.8,0-4.8H94.548c-3.088,0-3.093,4.8,0,4.8Z"/><path class="d" d="M77.348,225.279h53.489l-2.4-2.4v77.575c0,3.088,4.8,3.094,4.8,0V222.879a2.435,2.435,0,0,0-2.4-2.4H77.348c-3.089,0-3.094,4.8,0,4.8Z"/><path class="d" d="M77.349,302.845h198c3.088,0,3.093-4.8,0-4.8h-198c-3.088,0-3.093,4.8,0,4.8Z"/><path class="e" d="M264.551,47.556a.961.961,0,0,1-1.871.02c-1.186-4.688-3.067-10.451-5.976-13.838-3.571-4.158-8.8-5.823-13.545-6.792a.959.959,0,0,1,.006-1.883c4.693-.942,9.99-2.628,13.464-6.376,3.3-3.56,5.1-10.87,6.083-15.539a.96.96,0,0,1,1.875-.021c1.089,4.668,3.107,11.994,6.412,15.56,3.444,3.716,8.489,5.4,13.051,6.352a.96.96,0,0,1-.008,1.886c-4.859.926-10.306,2.507-13.875,6.662C267.259,36.973,265.631,42.829,264.551,47.556Z"/><path class="d" d="M262.237,46.918l2.757.02-.093-.363a5.956,5.956,0,0,0-.244-.923q-.205-.759-.427-1.514c-.344-1.166-.72-2.324-1.14-3.466a32.522,32.522,0,0,0-3.043-6.426A21.031,21.031,0,0,0,249.1,26.063c-.931-.333-1.879-.617-2.836-.865-.469-.122-.941-.235-1.414-.342a5.854,5.854,0,0,0-.875-.188q-1.518-.4-.168,2.709l.362-.074a25.618,25.618,0,0,0,6.465-1.91c4.261-1.74,7.963-4.408,10.155-8.539A46.731,46.731,0,0,0,264.77,4.979c.045-.2.089-.405.132-.608.2-.943.331-.583-1.253-.6-1.7-.014-1.406-.108-1.129,1.028q.362,1.479.774,2.946a53.27,53.27,0,0,0,2.106,6.105,19.839,19.839,0,0,0,8.4,10.058,28.74,28.74,0,0,0,6.316,2.625,14.954,14.954,0,0,0,3.115.777c1.094.063,1.088-2.72,0-2.671a5.722,5.722,0,0,0-.875.176q-.8.166-1.6.361c-4.9,1.2-9.755,3.39-12.9,7.478-3.129,4.062-4.488,9.345-5.619,14.259-.692,3.007,3.935,4.29,4.628,1.276,1.048-4.552,2.183-9.993,5.521-13.486a15.656,15.656,0,0,1,5.742-3.7c2.223-.852,4.578-1.109,6.811-1.854,3.176-1.06,2.825-5.522-.251-6.431a44.424,44.424,0,0,1-7.081-2.224,14.934,14.934,0,0,1-5.413-4.1,21.854,21.854,0,0,1-2.982-5.9,66.081,66.081,0,0,1-2.026-6.826A4.635,4.635,0,0,0,265.631.648a3.364,3.364,0,0,0-4.22.2,4.877,4.877,0,0,0-1.27,2.855c-.258,1.166-.536,2.327-.847,3.481a36.947,36.947,0,0,1-2.26,6.471,12.852,12.852,0,0,1-3.963,5.017,21.832,21.832,0,0,1-6.856,3.183c-2.217.646-5.5.642-6.137,3.4a3.384,3.384,0,0,0,1.613,3.681,16.507,16.507,0,0,0,3.648.988,21.807,21.807,0,0,1,7.277,3.267,15.694,15.694,0,0,1,4.766,6.169,46.346,46.346,0,0,1,2.843,8.312,3.557,3.557,0,0,0,2.969,2.991,3.4,3.4,0,0,0,3.671-2.465,2.422,2.422,0,0,0-1.676-2.952A2.449,2.449,0,0,0,262.237,46.918Z"/><path class="e" d="M23.711,163.708a.765.765,0,0,1-1.49.014c-1.106-4.5-2.908-10.266-5.765-13.591-3.537-4.118-8.8-5.638-13.445-6.53a.762.762,0,0,1,0-1.5c4.58-.859,9.927-2.421,13.369-6.136,3.251-3.509,4.961-10.885,5.85-15.227a.768.768,0,0,1,1.5-.013c.989,4.34,2.918,11.728,6.172,15.24,3.416,3.685,8.5,5.252,12.971,6.115a.767.767,0,0,1,0,1.509c-4.74.855-10.22,2.29-13.749,6.4C26.27,153.313,24.726,159.169,23.711,163.708Z"/><path class="d" d="M21.4,163.07l-.091.235.617-1.059,2.092.012.618,1.059c-.5-1.219-.707-2.618-1.091-3.884-.405-1.337-.857-2.661-1.379-3.958a24.144,24.144,0,0,0-4.271-7.338,19.223,19.223,0,0,0-6.7-4.626,31.255,31.255,0,0,0-4.065-1.431c-1.214-.333-2.543-.459-3.722-.882l1.059.618,0,2.071-1.059.617c1.316-.465,2.793-.6,4.144-.985a32.216,32.216,0,0,0,4.485-1.641,17.824,17.824,0,0,0,7.094-5.509,26.074,26.074,0,0,0,3.55-7.585c.434-1.351.8-2.722,1.138-4.1a31.663,31.663,0,0,1,.82-3.545l-.617,1.059-2.076-.011-.617-1.059a32.256,32.256,0,0,1,.906,3.543c.338,1.263.706,2.518,1.123,3.757a28.774,28.774,0,0,0,3.616,7.69,18.028,18.028,0,0,0,6.931,5.639,30.5,30.5,0,0,0,4.357,1.679c1.379.414,2.882.566,4.228,1.051l-1.059-.617,0-2.062,1.059-.617c-1.18.409-2.508.517-3.724.824a29.87,29.87,0,0,0-3.853,1.242,19.526,19.526,0,0,0-7.093,4.607c-3.8,4.063-5.231,9.931-6.419,15.207-.677,3.008,3.95,4.293,4.629,1.276.972-4.32,1.981-9.559,5.053-12.949a14.5,14.5,0,0,1,5.623-3.716c2.23-.849,4.545-1.118,6.811-1.776a3.187,3.187,0,0,0,.005-6.137c-2.363-.688-4.755-1.02-7.015-2.073a14.378,14.378,0,0,1-5.292-3.873,20.379,20.379,0,0,1-2.923-5.8,64.038,64.038,0,0,1-1.9-6.513,5.6,5.6,0,0,0-1.194-2.892,3.209,3.209,0,0,0-3.93-.367c-1.123.72-1.345,1.92-1.605,3.123-.244,1.13-.507,2.256-.8,3.374a36.042,36.042,0,0,1-2.114,6.218,12.253,12.253,0,0,1-3.686,4.8,19.977,19.977,0,0,1-6.418,3.02c-2.13.627-5.7.575-6.489,3.1A3.141,3.141,0,0,0,1.31,145.4c1.027.714,2.462.786,3.661,1.083a22.2,22.2,0,0,1,7.1,2.932,14.3,14.3,0,0,1,4.831,5.931,43.13,43.13,0,0,1,2.737,7.956c.389,1.5.908,2.914,2.587,3.316a3.238,3.238,0,0,0,3.8-2.269,2.419,2.419,0,0,0-1.676-2.953A2.457,2.457,0,0,0,21.4,163.07Z"/><path class="e" d="M343.269,145.456a.762.762,0,0,1-1.482.017c-1.024-4.114-2.671-9.283-5.254-12.29-3.182-3.7-7.878-5.126-12.083-5.957a.762.762,0,0,1-.009-1.5c4.154-.8,8.927-2.253,12.026-5.6,2.933-3.165,4.5-9.747,5.337-13.775a.763.763,0,0,1,1.492-.017c.928,4.026,2.692,10.623,5.63,13.792,3.072,3.316,7.615,4.77,11.659,5.577a.765.765,0,0,1-.021,1.5c-4.3.795-9.185,2.142-12.36,5.838C345.622,136.058,344.205,141.31,343.269,145.456Z"/><path class="d" d="M340.954,144.818l-.091.232.618-1.059,2.1.015.617,1.059c-.441-1.056-.624-2.27-.957-3.368-.37-1.219-.781-2.427-1.256-3.609a22.742,22.742,0,0,0-3.889-6.754,17.541,17.541,0,0,0-6.184-4.354,29.2,29.2,0,0,0-3.608-1.308c-1.129-.322-2.361-.449-3.458-.848l1.059.617-.008,2.075-1.06.617c1.241-.448,2.629-.588,3.9-.963a29.524,29.524,0,0,0,3.86-1.446,16.564,16.564,0,0,0,6.615-5.2,24.161,24.161,0,0,0,3.2-6.841c.387-1.192.719-2.4,1.019-3.617a30.226,30.226,0,0,1,.779-3.311l-.618,1.059-2.085-.014-.617-1.059a28.485,28.485,0,0,1,.815,3.144c.327,1.215.685,2.422,1.094,3.612a26.32,26.32,0,0,0,3.284,6.9,16.67,16.67,0,0,0,6.214,5.125,27.589,27.589,0,0,0,4,1.588c1.269.394,2.654.545,3.892,1l-1.059-.617-.019-2.068,1.059-.617c-1.1.385-2.324.493-3.453.791a26.822,26.822,0,0,0-3.393,1.128,18.011,18.011,0,0,0-6.558,4.328c-3.395,3.715-4.726,8.975-5.814,13.758-.683,3.007,3.943,4.292,4.629,1.276.9-3.946,1.84-8.735,4.714-11.782a13.474,13.474,0,0,1,5.186-3.3,28.737,28.737,0,0,1,3.053-.919,17.222,17.222,0,0,0,3.2-.774,3.177,3.177,0,0,0-.512-5.924,38.907,38.907,0,0,1-6.33-1.929,12.547,12.547,0,0,1-4.759-3.62,19.856,19.856,0,0,1-2.587-5.275,60.2,60.2,0,0,1-1.7-5.861,4.113,4.113,0,0,0-1.584-2.855,3.222,3.222,0,0,0-3.437.011c-1.736,1.115-1.8,4.1-2.285,5.938a32.8,32.8,0,0,1-1.888,5.571,11.188,11.188,0,0,1-3.44,4.474,18.486,18.486,0,0,1-5.937,2.744c-2.061.595-5.144.577-5.754,3.134a3.145,3.145,0,0,0,1.23,3.293,10.883,10.883,0,0,0,3.553,1.083,18.748,18.748,0,0,1,6.534,2.887,13.67,13.67,0,0,1,4.127,5.483,48.959,48.959,0,0,1,2.416,7.281c.936,3.288,4.942,3.548,6.2.338a2.417,2.417,0,0,0-1.676-2.952A2.456,2.456,0,0,0,340.954,144.818Z"/><path class="d" d="M86.642,259.769v3.8a2.473,2.473,0,0,0,.7,1.7,2.4,2.4,0,0,0,3.394,0,2.5,2.5,0,0,0,.7-1.7v-3.8a2.477,2.477,0,0,0-.7-1.7,2.4,2.4,0,0,0-3.394,0,2.491,2.491,0,0,0-.7,1.7Z"/></svg>