<?xml version="1.0" encoding="utf-8"?>
<!-- Uploaded to: SVG Repo, www.svgrepo.com, Generator: SVG Repo Mixer Tools -->
<svg width="800px" height="800px" viewBox="0 -7.22 338.432 338.432" xmlns="http://www.w3.org/2000/svg"><defs><style>.a{fill:#645d5c;}.b{fill:#211715;}.c{fill:#ffffff;}.d{fill:#f2635f;}.e{fill:#74c66d;}.f{fill:#ffda71;}.g{fill:#fedeb4;}.h{fill:#febe69;}.i{fill:#3d8dcc;}.j{fill:none;}.k{fill:#a0a0a0;}</style></defs><path class="a" d="M335.536,265.512c.891-4.524.5-9.541-.867-12.769-4.661-10.989-14.05-16.7-23.109-13.309,4.208-3.937,6.113-10.069,5.688-15.787a21.51,21.51,0,0,0-2.768-9.008c-4.575-8.042-16.372-12.418-25.356-7.78-20.74,13.259-39.121,26.828-53.364,36.369-3.544,2.374-6.583,5.328-7.186,11.536-4.434,2.621-12.325,8.1-16.564,10.839a4.617,4.617,0,0,0-.732,7.169l46.476,45.851a4.62,4.62,0,0,0,5.746.6c23.3-15,65.72-42.99,67.776-45.347C333.493,271.994,334.871,268.891,335.536,265.512Z"/><path class="b" d="M337.85,266.15c.817-4.356.912-9.2-.621-13.419a29.32,29.32,0,0,0-6.54-10.4c-5.158-5.247-12.667-7.784-19.767-5.209l2.335,4.011c7.244-6.945,8.191-18.49,3.607-27.136-3.871-7.3-12.449-11.8-20.632-11.407a19.64,19.64,0,0,0-6.153,1.238,38.684,38.684,0,0,0-6.926,4.034q-7.107,4.635-14.107,9.43c-8.3,5.668-16.51,11.47-24.765,17.2-3.869,2.687-7.957,5.17-11.667,8.071a17.1,17.1,0,0,0-6.44,12.2l1.189-2.073c-4.128,2.454-8.087,5.2-12.075,7.866-1.862,1.248-4.162,2.38-5.749,3.974a7.106,7.106,0,0,0-1.747,6.959c.849,2.832,4,5.158,6.024,7.157l26.018,25.668,11.879,11.72c2.03,2,4.45,5.193,7.288,6.03,2.681.79,4.9-.25,7.107-1.673q2.6-1.677,5.2-3.361,5.6-3.628,11.179-7.279,11.591-7.576,23.126-15.239c6.393-4.251,12.781-8.515,19.1-12.876,3.443-2.378,7.556-4.685,10.089-8.1a18.715,18.715,0,0,0,3.049-7.383,2.457,2.457,0,0,0-1.676-2.952,2.423,2.423,0,0,0-2.952,1.676,13.021,13.021,0,0,1-3.776,7.438c-.23.206-.47.4-.707.593-.31.26.469-.35-.086.065q-.348.262-.7.521c-2.825,2.08-5.729,4.054-8.625,6.031-9.565,6.528-19.225,12.916-28.9,19.283q-7.965,5.244-15.955,10.447-3.622,2.358-7.249,4.707-1.712,1.108-3.424,2.212c-1.012.653-2.066,1.64-3.352,1.311-1.2-.305-2.321-1.859-3.156-2.683l-6.343-6.257L232.229,290.07,216.1,274.153c-1.023-1.009-2.109-1.982-3.082-3.04-1.267-1.379-.711-2.836.777-3.808,2.722-1.776,5.409-3.608,8.115-5.41,2.6-1.729,5.3-3.311,7.881-5.059,1.151-.781,1.1-1.856,1.332-3.084a15,15,0,0,1,.679-2.52,10.246,10.246,0,0,1,2.013-3.279c1.964-2.152,4.565-3.588,6.983-5.239q4.437-3.031,8.839-6.114c6.573-4.585,13.129-9.193,19.737-13.727q5.442-3.735,10.935-7.395,2.832-1.884,5.682-3.74a34.387,34.387,0,0,1,5.3-3.259c5.585-2.31,12.226-.89,16.956,2.669,5.415,4.075,7.674,11.476,6.264,18a16.54,16.54,0,0,1-4.642,8.589c-1.661,1.592.037,4.844,2.335,4.011,5.533-2.006,11.009-.184,15.1,3.975a23.924,23.924,0,0,1,5.305,8.284,20.928,20.928,0,0,1,.622,10.867,2.464,2.464,0,0,0,1.676,2.952A2.42,2.42,0,0,0,337.85,266.15Z"/><path class="c" d="M243.512,286.978c-8.166,3.265-11.783,14.281-7.867,23.328,4.381,10.122,15.937,13.069,23.018,10.323,7.841-3.041,11.6-13.366,7.243-23.423C261.964,288.1,251.758,283.681,243.512,286.978Z"/><path class="b" d="M299.487,244.651q-20.2,13.323-40.571,26.395c-2.591,1.663-.187,5.819,2.423,4.144q20.367-13.071,40.571-26.394c2.568-1.693.166-5.852-2.423-4.145Z"/><path class="c" d="M238.222,245.411c-8,3.2-11.538,13.983-7.7,22.84,4.289,9.911,15.6,12.8,22.537,10.108,7.677-2.977,11.354-13.086,7.091-22.933C256.287,246.508,246.3,242.184,238.222,245.411Z"/><path class="b" d="M237.584,243.1c-7.606,3.151-11.693,11.36-10.932,19.41A21,21,0,0,0,240.577,280.5c6.659,2.382,14.8,1.364,19.485-4.32,5.643-6.843,5.451-17.114.842-24.47-4.781-7.63-14.649-11.969-23.32-8.612a2.471,2.471,0,0,0-1.677,2.952,2.418,2.418,0,0,0,2.953,1.677c5.86-2.269,12.293-.245,16.424,4.416,4.354,4.913,5.747,13,2.539,18.859a10.931,10.931,0,0,1-6.1,5.291,14.33,14.33,0,0,1-7.319.3,16.148,16.148,0,0,1-12.443-11.479c-1.708-6.254.4-14.692,6.9-17.385a2.48,2.48,0,0,0,1.676-2.953A2.416,2.416,0,0,0,237.584,243.1Z"/><path class="c" d="M212.466,266.267c-8.167,3.264-11.784,14.28-7.868,23.327,4.382,10.123,15.938,13.07,23.019,10.324,7.841-3.041,11.6-13.366,7.243-23.423C230.917,267.386,220.712,262.97,212.466,266.267Z"/><path class="b" d="M211.828,263.952c-7.744,3.206-11.885,11.559-11.129,19.748a21.39,21.39,0,0,0,14.178,18.351c6.756,2.421,15.014,1.413,19.8-4.329,5.865-7.031,5.619-17.71.76-25.232-4.928-7.627-14.868-11.925-23.612-8.538a2.471,2.471,0,0,0-1.676,2.953,2.417,2.417,0,0,0,2.952,1.676,15.173,15.173,0,0,1,16.694,4.378c4.545,5.03,6.058,13.373,2.752,19.436a11.233,11.233,0,0,1-6.389,5.494,14.9,14.9,0,0,1-7.465.258,16.544,16.544,0,0,1-12.708-11.853c-1.707-6.393.49-14.97,7.116-17.713a2.478,2.478,0,0,0,1.676-2.952A2.416,2.416,0,0,0,211.828,263.952Z"/><path class="b" d="M242.874,284.664c-7.744,3.205-11.885,11.558-11.129,19.748a21.392,21.392,0,0,0,14.178,18.351c6.756,2.42,15.015,1.412,19.8-4.329,5.864-7.032,5.619-17.711.759-25.233-4.928-7.627-14.868-11.925-23.612-8.537a2.47,2.47,0,0,0-1.676,2.952,2.417,2.417,0,0,0,2.952,1.676,15.177,15.177,0,0,1,16.694,4.378c4.545,5.03,6.059,13.373,2.752,19.436a11.233,11.233,0,0,1-6.389,5.494,14.9,14.9,0,0,1-7.465.258,16.544,16.544,0,0,1-12.708-11.853c-1.706-6.392.491-14.97,7.116-17.713a2.48,2.48,0,0,0,1.677-2.952A2.416,2.416,0,0,0,242.874,284.664Z"/><path class="d" d="M240.678,257.235a1.81,1.81,0,0,0-1.453,1.944l.959,6.969A1.378,1.378,0,0,0,241.9,267.2c3.843-.94,5.689-1.587,8.4-2.158a1.487,1.487,0,0,0,1.042-1.643c-.329-1.314-1.357-3.972-2.094-5.881a1.9,1.9,0,0,0-2.105-1.272S242.938,256.789,240.678,257.235Z"/><path class="d" d="M255.163,298.676l-2.076-.347-2.306-.384c.729,2.963,1.47,4.742,2.628,8.641l3.907-.73a1.3,1.3,0,0,0,1.077-.982c.231-1.349.581-3.19.82-4.567a.974.974,0,0,0-.885-1.1Z"/><path class="b" d="M240.04,254.92a4.244,4.244,0,0,0-3,2.77,4.773,4.773,0,0,0-.108,2.271q.18,1.316.362,2.632l.456,3.318c.038.277.068.557.115.833a3.545,3.545,0,0,0,1.779,2.395c1.352.758,2.709.43,4.115.071.923-.236,1.843-.484,2.762-.736.794-.218,1.588-.438,2.385-.642a14.91,14.91,0,0,0,2.736-.756,3.911,3.911,0,0,0,2.121-3.457,8.835,8.835,0,0,0-.667-2.625c-.322-.923-.667-1.839-1.017-2.752a9.054,9.054,0,0,0-1.542-3.094,4.232,4.232,0,0,0-3.418-1.3c-.633.063-1.264.168-1.894.255-1.733.238-3.468.482-5.184.816a2.415,2.415,0,0,0-1.677,2.953,2.463,2.463,0,0,0,2.953,1.676c1.326-.259,2.664-.458,4-.65.563-.081,1.127-.157,1.691-.236l-.279.037.2-.026c.068-.009.136-.02.2-.027.045,0,.133-.008.179-.015.4-.058-.151.122-.143-.053,0-.018.612.236,0-.036.362.16-.3-.29-.026,0,0,0-.335-.356-.151-.175.045.044.2.4.055.081s.07.2.1.285l.233.606c.149.39.3.78.444,1.17.279.745.553,1.491.806,2.245.1.286.189.573.274.862.034.12.057.248.1.364.08.214-.037-.367-.024-.457s.192-.535.1-.384c-.133.224.138-.167.14-.169s.41-.256.189-.138.244-.1.241-.1c-.026-.018-.212.045-.246.052q-.513.113-1.023.234c-.657.158-1.31.33-1.961.507-1.566.424-3.129.86-4.7,1.251-.113.028-.235.047-.344.085-.322.112.175-.014.217-.018-.1.01-.316-.057.014.01a1.589,1.589,0,0,1,.457.144c-.124-.063-.164-.177,0,.018.126.152.265.354.394.5.16.178.046.163.04-.009a5.215,5.215,0,0,0-.073-.527l-.348-2.532-.427-3.1c-.034-.249-.085-.5-.1-.753-.006-.085-.052-.262.034.2.08.43.045.212.045.077l-.032.329q.1-.3-.011,0c.036.041-.116.252.024.017-.062.1-.295.361-.07.142,0,0-.389.3-.168.155s-.54.17-.051.051a2.423,2.423,0,0,0,1.676-2.952A2.45,2.45,0,0,0,240.04,254.92Z"/><path class="b" d="M253.022,309.092l2.875-.537c1.385-.259,2.943-.355,3.953-1.479.978-1.09,1.039-2.6,1.29-3.978.273-1.492.877-3.24.019-4.635a3.558,3.558,0,0,0-2.48-1.622l-1.6-.266-3.356-.56a2.608,2.608,0,0,0-1.85.242,2.4,2.4,0,0,0,.574,4.387l2.951.492,1.8.3c.15.025.3.046.451.076.052.01.109.023.159.032q.355.114-.263-.114l-.316-.251q.249.26-.187-.25-.231-.643-.142-.294l-.085-.638a1.348,1.348,0,0,1,0,.311l.085-.638c-.205,1.183-.427,2.363-.639,3.545-.047.26-.093.519-.138.779a1.977,1.977,0,0,0-.068.351c-.025-.025.3-.571.1-.269a1.748,1.748,0,0,1,.529-.53c-.314.2.505-.11.124-.032-.044.009-.088.021-.133.031s-.087.016-.13.024c-1.183.228-2.368.442-3.551.663l-1.243.233a2.412,2.412,0,0,0-1.676,2.952,2.462,2.462,0,0,0,2.952,1.676Z"/><path class="e" d="M243.584,308.518a1.81,1.81,0,0,0,2.01,1.359l6.916-1.283a1.378,1.378,0,0,0,.972-1.762c-1.118-3.794-1.851-5.608-2.548-8.285a1.488,1.488,0,0,0-1.691-.964c-1.3.391-4.566,1.488-6.168,2.044a1.82,1.82,0,0,0-1.173,2.162S243.032,306.281,243.584,308.518Z"/><path class="b" d="M241.269,309.156a4.31,4.31,0,0,0,3.016,3,5,5,0,0,0,2.182-.012c.975-.176,1.948-.362,2.922-.542l3.269-.607c.211-.039.431-.065.638-.123a3.784,3.784,0,0,0,2.642-3.588,11.881,11.881,0,0,0-.87-3.475c-.271-.856-.552-1.708-.828-2.563-.248-.768-.491-1.538-.712-2.315-.11-.385-.2-.78-.326-1.16a3.921,3.921,0,0,0-1.585-2.008c-1.837-1.241-3.96-.21-5.817.407q-1.235.411-2.464.83a5.752,5.752,0,0,0-2.97,1.748,4.332,4.332,0,0,0-.762,3.739c.114.5.25,1,.375,1.491q.648,2.586,1.29,5.174a2.424,2.424,0,0,0,2.953,1.676,2.45,2.45,0,0,0,1.676-2.952q-.482-1.953-.972-3.9a22.119,22.119,0,0,0-.693-2.761c0-.012,0-.052-.015-.06s.031.28.031.291c0-.066,0-.367-.022-.016-.024.321-.006.078.023-.007,0,0-.2.433-.068.2s-.118.149-.124.156c.213-.281-.073.02-.216.114-.243.16.062-.017.167-.053l.393-.135q.521-.179,1.042-.354c1.338-.453,2.678-.9,4.027-1.326a2.474,2.474,0,0,0,.317-.1c.252-.122-.2.016-.253.015.015,0-.532-.086-.261-.028.247.053-.2-.083-.212-.087s-.349-.323-.174-.139-.141-.2-.138-.192c-.285-.479-.125-.288-.066-.067.176.664.369,1.324.573,1.98.45,1.454.94,2.9,1.392,4.35q.213.683.417,1.37l.1.342c-.02.008-.024-.528-.031-.259s.047-.268.045-.256c-.064.345.086-.166.171-.275a1.212,1.212,0,0,1,.36-.312c.033-.018.46-.109.233-.1a.681.681,0,0,0-.092.019c-.072.008-.145.027-.217.04-.795.15-1.591.3-2.386.443l-3.347.621c-.288.053-.58.1-.866.161-.025,0-.051.008-.075.014s.474-.07.459-.069c-.317.02-.012.013.139.039-.158-.027-.185-.139-.021.01.159.072.181.076.068.012-.15-.094-.1-.052.164.127-.086-.062-.153-.255-.019-.011.047.086.264.611.145.21a2.4,2.4,0,1,0-4.629,1.276Z"/><path class="f" d="M214.773,288.692c2.243.062,7.358.151,10.023.195a1.172,1.172,0,0,0,1.123-1.574c-1.145-3.133-2.767-6.925-3.7-8.969a1.164,1.164,0,0,0-1.166-.678c-1.785.159-4.521.442-6.677.819a1.168,1.168,0,0,0-.97,1.172c.024,1.791.105,5.469.228,7.915A1.176,1.176,0,0,0,214.773,288.692Z"/><path class="b" d="M214.773,291.092c2.773.076,5.547.119,8.321.166.618.011,1.257.067,1.874.02a3.616,3.616,0,0,0,3.145-2.235,4.362,4.362,0,0,0-.273-3.423q-.472-1.242-.974-2.472-1-2.471-2.08-4.91a5.215,5.215,0,0,0-1.281-2.074,4.032,4.032,0,0,0-3.211-.828c-1.829.174-3.656.386-5.473.659a3.786,3.786,0,0,0-3.808,4.324q.042,2.547.129,5.093a14.554,14.554,0,0,0,.215,3.04,3.673,3.673,0,0,0,3.416,2.64,2.408,2.408,0,0,0,2.4-2.4,2.465,2.465,0,0,0-2.4-2.4,1.349,1.349,0,0,1,.853.311l.38.652.025.317c-.089-.081-.033-.7-.039-.857q-.045-1.039-.075-2.079-.059-1.851-.093-3.7-.008-.378-.014-.756c0-.247.109-.806-.05-.217-.091.338-.5.948-.915.881a2.011,2.011,0,0,0,.358-.075c.4-.073.8-.129,1.2-.187l.414-.059c-.579.082.12-.015.2-.024q.521-.066,1.043-.126,1.028-.119,2.057-.217c.258-.025.516-.054.775-.073.232-.017.588.085,0-.044l-.653-.381-.169-.243c.015-.008.656,1.432.712,1.56q.378.858.744,1.721c.177.417.028.067-.006-.015l.239.572q.224.537.442,1.075.382.939.75,1.884.191.489.375.979c.072.191.146.382.214.575l.069.188q.156.633.045-.623a1.183,1.183,0,0,1,.446-.6c.087-.064.608-.372.7-.245a2.684,2.684,0,0,0-.69-.012l-1.685-.028c-2.55-.045-5.1-.085-7.648-.155a2.421,2.421,0,0,0-2.4,2.4A2.447,2.447,0,0,0,214.773,291.092Z"/><path class="b" d="M221.554,292.468c2.31-2.418,4.533-4.916,6.842-7.334A2.4,2.4,0,1,0,225,281.74c-2.309,2.418-4.532,4.916-6.842,7.334a2.4,2.4,0,0,0,3.394,3.394Z"/><path class="g" d="M59.394,236.459H10.954A3.488,3.488,0,0,0,8.1,237.919c-1.684,2.375-3.552,5.442-5.391,8.416a2.234,2.234,0,0,0-.31,1.2c0,10.663,1.016,39.181,1.639,59.227.114,3.666.463,7.093.669,10.162a2.529,2.529,0,0,0,2.528,2.361l52.164,0,52.163,0a2.53,2.53,0,0,0,2.529-2.361c.206-3.069.554-6.5.668-10.162.624-20.046,1.642-48.564,1.64-59.227a2.234,2.234,0,0,0-.31-1.2c-1.839-2.974-3.708-6.041-5.391-8.416a3.49,3.49,0,0,0-2.856-1.461Z"/><path class="h" d="M113.8,294.524l1.031.04c-.2,5.634-.411,11.137-.591,16.12l-1.491-.05H97.274a1.325,1.325,0,0,1-1.33-1.391c.21-4.312.44-8.855.66-13.448a1.331,1.331,0,0,1,1.331-1.271Z"/><path class="h" d="M23.578,309.243a1.326,1.326,0,0,1-1.331,1.391H5.977l-1.731.11c-.09-1.291-.171-2.621-.211-3.982-.12-3.823-.25-7.945-.39-12.2l1.311-.04H21.6a1.34,1.34,0,0,1,1.34,1.271C23.158,300.408,23.368,304.951,23.578,309.243Z"/><path class="h" d="M22.187,279.785a1.335,1.335,0,0,1-1.331,1.4H4.126l-.911.03c-.17-5.614-.34-11.127-.48-16.131l.41-.01H20.236a1.326,1.326,0,0,1,1.331,1.271C21.757,270.449,21.967,275.012,22.187,279.785Z"/><path class="h" d="M115.646,265.075l.23.01c-.17,4.944-.36,10.457-.56,16.131l-.661-.03H98.705a1.335,1.335,0,0,1-1.331-1.4c.231-4.813.441-9.386.631-13.439a1.325,1.325,0,0,1,1.331-1.271Z"/><path class="b" d="M59.394,234.059H13.872c-2.1,0-4.374-.247-6.2,1-1.454.99-2.356,2.657-3.3,4.1-1.106,1.7-2.167,3.426-3.232,5.151A7.274,7.274,0,0,0,0,248.507q.008,1.464.029,2.929c.156,11.322.559,22.641.922,33.957q.3,9.44.608,18.878c.112,3.542.322,7.066.6,10.6.127,1.638.073,3.321,1.062,4.717,1.2,1.691,2.957,2.1,4.919,2.1q45.977,0,91.952,0c3.673,0,7.35.054,11.023,0a5.213,5.213,0,0,0,4.468-2.1c1.059-1.5.957-3.386,1.094-5.139.51-6.521.654-13.053.865-19.588.4-12.337.825-24.675,1.107-37.016.05-2.217.1-4.435.125-6.652q.018-1.343.025-2.685c0-.466.014-.93-.028-1.394a7.3,7.3,0,0,0-1.36-3.209c-.982-1.589-1.963-3.179-2.982-4.744-1-1.54-1.969-3.351-3.6-4.3-1.823-1.061-4.076-.8-6.106-.8H59.394c-3.088,0-3.093,4.8,0,4.8h44.232a26.966,26.966,0,0,1,4.319-.008c1.152.2,1.889,2.043,2.457,2.92,1.062,1.639,2.085,3.3,3.111,4.964a2.117,2.117,0,0,1,.484,1.178c.035.4,0,.82,0,1.221q-.011,1.4-.033,2.8c-.162,10.89-.541,21.778-.889,32.664q-.292,9.108-.587,18.217c-.1,3.16-.2,6.315-.441,9.469-.065.861-.135,1.723-.2,2.585-.024.309.021,1.931-.19,2.05-.019.011-.083-.042-.089-.038a4.72,4.72,0,0,1-1.354,0h-1.816q-43.908,0-87.815,0H8.588a4.721,4.721,0,0,1-1.354,0s-.07.048-.088.038c-.212-.119-.167-1.74-.191-2.05-.072-.936-.148-1.871-.218-2.807-.456-6.108-.519-12.251-.718-18.372-.38-11.741-.779-23.482-1.054-35.225q-.079-3.392-.133-6.782-.018-1.275-.028-2.551c0-.4-.042-.822-.006-1.221a3.5,3.5,0,0,1,.736-1.585c.9-1.463,1.805-2.925,2.738-4.369.634-.983,1.4-2.931,2.682-3.1a35.02,35.02,0,0,1,4.442,0h44C62.483,238.859,62.488,234.059,59.394,234.059Z"/><path class="b" d="M115.649,262.676h-14.47c-.609,0-1.224-.025-1.832,0a3.8,3.8,0,0,0-3.556,2.581,17.8,17.8,0,0,0-.332,4.221q-.212,4.526-.427,9.051c-.085,1.792.055,3.517,1.77,4.539,1.371.817,3.233.522,4.763.522h13.086c3.088,0,3.093-4.8,0-4.8H99.067q-.8-.045.158.133a1.064,1.064,0,0,1,.547.864l.034-.721q.2-4.143.392-8.286.09-1.912.179-3.825a2.947,2.947,0,0,0,.029-.613c.254.387-.663,1.362-1.066,1.134.028.016.1,0,.129,0a15.127,15.127,0,0,0,2.086,0h14.094c3.089,0,3.094-4.8,0-4.8Z"/><path class="b" d="M113.8,292.122H99.784c-.61,0-1.227-.028-1.837,0a3.8,3.8,0,0,0-3.438,2.3c-.586,1.392-.4,3.222-.469,4.715q-.222,4.554-.447,9.107c-.081,1.634.149,3.248,1.664,4.195,1.363.852,3.127.6,4.664.6h12.826c3.089,0,3.094-4.8,0-4.8h-13a15.668,15.668,0,0,0-2.112,0c-.821.115.061-.006.373.292a1.13,1.13,0,0,1,.336.713l.033-.665q.2-4.109.4-8.216c.062-1.28.2-2.582.188-3.863-.01-.77.062-.236-.091-.14s-.593.829-.938.562c.026.02.129,0,.161,0a17.2,17.2,0,0,0,2.118,0H113.8c3.089,0,3.094-4.8,0-4.8Z"/><path class="b" d="M3.146,267.476H19.721a1.51,1.51,0,0,0,.38,0c.4-.13-.482-.2-.641-.337-.347-.3-.287-.692-.254.021l.06,1.329q.059,1.283.118,2.566.123,2.69.247,5.379l.129,2.79.008.188q-.035.69.1.122c.176-.187.185-.456.464-.61,1.864-1.031.616-.08.483-.134a2.909,2.909,0,0,0-.859,0H4.127c-3.088,0-3.094,4.8,0,4.8H12.3c2.837,0,5.711.135,8.545,0a3.813,3.813,0,0,0,3.736-3.677c.094-1.981-.175-4.043-.266-6.026q-.129-2.783-.255-5.566c-.1-2.128-.093-4.388-2.395-5.341a9.121,9.121,0,0,0-3.457-.3H3.146c-3.089,0-3.094,4.8,0,4.8Z"/><path class="b" d="M4.955,296.922H21.1a1.587,1.587,0,0,0,.371,0c.336-.092-.255-.051-.426-.155-.063-.038-.453-.563-.455-.563-.119,0,.14-.367-.029.138a5.358,5.358,0,0,0,.069,1.451q.063,1.351.128,2.7.128,2.655.255,5.309.061,1.295.125,2.587a2.4,2.4,0,0,0,.033.681c.138.355.056-.153.176-.342.085-.133.692-.609.879-.5-.143-.087-.614,0-.776,0H5.979c-3.088,0-3.093,4.8,0,4.8h8.04c2.733,0,5.492.11,8.224,0a3.807,3.807,0,0,0,3.728-3.963c-.034-1.907-.185-3.82-.276-5.726s-.183-3.824-.274-5.736a11.968,11.968,0,0,0-.272-2.9,3.682,3.682,0,0,0-2.172-2.3,9.171,9.171,0,0,0-3.351-.286H4.955c-3.089,0-3.094,4.8,0,4.8Z"/><path class="b" d="M16.057,240.294c-.839,1.316-2,3.243-3.022,5.063a.95.95,0,0,0,.83,1.423h89.049a1.7,1.7,0,0,0,1.467-2.545c-.8-1.379-1.626-2.731-2.254-3.721Z"/><path class="f" d="M81.5,230.029c.294-5.879-4.488-10.59-11.417-11.051-7.751-.516-13.091,3.871-13.337,8.769-.276,5.5,4.308,10.666,12.009,11.179C75.733,239.39,81.218,235.677,81.5,230.029Z"/><path class="b" d="M83.9,230.029c.457-13.1-17.353-17.27-25.939-9.649a10.982,10.982,0,0,0-1.911,13.974c3.042,5.045,9.232,7.342,14.93,6.978,6.489-.415,12.456-4.408,12.92-11.3a2.4,2.4,0,0,0-4.8,0c-.238,3.541-3.462,5.78-7.006,6.378-3.967.669-8.742-.417-11.344-3.662a6.317,6.317,0,0,1-.309-8.046c2.656-3.174,7.6-3.947,11.5-3.041,4.209.98,7.312,4.092,7.163,8.371C78.994,233.118,83.794,233.114,83.9,230.029Z"/><path class="h" d="M40.416,238.248c-1.511-5.165-7.057-7.8-13.178-6.115-6.85,1.883-10.144,7.275-8.885,11.579A8.57,8.57,0,0,0,20,246.778H37.7A8.217,8.217,0,0,0,40.416,238.248Z"/><path class="h" d="M62.617,232.427c-.489-5.359-5.425-9.009-11.756-8.535-7.083.53-11.353,5.188-10.945,9.654.458,5.018,5.271,9.1,12.309,8.575C58.6,241.644,63.087,237.576,62.617,232.427Z"/><path class="f" d="M100.255,241.853c1.115-5.265-2.523-10.209-8.712-11.626-6.924-1.585-12.378,1.6-13.307,5.993-.847,4,1.226,8.252,5.708,10.558h12.9A7.709,7.709,0,0,0,100.255,241.853Z"/><path class="b" d="M21.693,245.086a5.991,5.991,0,0,1-.8-1.34,6.148,6.148,0,0,1-.285-.887c-.027-.109-.048-.219-.073-.328-.088-.382.023.549-.024-.139a6.849,6.849,0,0,1,.024-1.358c-.052.4.046-.147.076-.274.065-.27.149-.533.237-.8.038-.113.079-.228.126-.338-.022.052-.116.261.006.013.111-.225.227-.446.354-.662a5.518,5.518,0,0,1,.777-1.1,10.025,10.025,0,0,1,2.659-2.16c4.085-2.352,10.246-2.582,12.751,1.806,1.55,2.716.651,5.528-1.525,7.562-2.261,2.114,1.138,5.5,3.394,3.394a10.78,10.78,0,0,0,3.284-11.038,11.628,11.628,0,0,0-7.6-7.573c-6.59-2.161-15.5,1.2-18.392,7.682A10.179,10.179,0,0,0,18.3,248.48a2.414,2.414,0,0,0,3.394,0,2.457,2.457,0,0,0,0-3.394Z"/><path class="b" d="M65.017,232.427a12.05,12.05,0,0,0-9.911-10.658c-5.24-1-11.517.445-15.054,4.659A10.272,10.272,0,0,0,40,239.745c3.432,4.312,9.37,5.432,14.557,4.473,5.69-1.053,10.923-5.609,10.464-11.791a2.459,2.459,0,0,0-2.4-2.4,2.42,2.42,0,0,0-2.4,2.4,4.961,4.961,0,0,1-.2,2.3,7.072,7.072,0,0,1-.882,1.71,8.155,8.155,0,0,1-3.972,2.67c-3.457,1.142-8.031.894-10.6-1.5a6.564,6.564,0,0,1-2.176-3.681,4.55,4.55,0,0,1,.621-3.436,8.158,8.158,0,0,1,3.528-3.07,12.461,12.461,0,0,1,6.016-1.163,9.3,9.3,0,0,1,5.124,1.751,6.538,6.538,0,0,1,2.542,4.413,2.471,2.471,0,0,0,2.4,2.4A2.415,2.415,0,0,0,65.017,232.427Z"/><path class="b" d="M85.188,244.711c-2.634-1.355-4.788-3.763-4.737-6.87a4.378,4.378,0,0,1,.973-2.91,4.63,4.63,0,0,1,.336-.382,7.575,7.575,0,0,1,.653-.614,10.179,10.179,0,0,1,1.43-.87,11.687,11.687,0,0,1,8.352-.17,9.616,9.616,0,0,1,3.315,1.846,8.285,8.285,0,0,1,2.01,2.629A6.439,6.439,0,0,1,98,240.934a5.523,5.523,0,0,1-2.362,3.777,2.457,2.457,0,0,0-.861,3.283,2.422,2.422,0,0,0,3.284.861,10.739,10.739,0,0,0,4.547-11.213,12.526,12.526,0,0,0-7.07-8.546,16.757,16.757,0,0,0-12.627-.813,10.6,10.6,0,0,0-7.048,7.624c-1.057,5.388,2.187,10.521,6.905,12.948a2.456,2.456,0,0,0,3.284-.861,2.425,2.425,0,0,0-.861-3.283Z"/><path class="h" d="M70.426,232.791c-7.613-.622-12.927,3.612-13.241,8.424a9.34,9.34,0,0,0,1.428,5.563H80.739a8.29,8.29,0,0,0,.746-2.955C81.862,238.049,77.229,233.347,70.426,232.791Z"/><path class="b" d="M60.689,245.572a7.676,7.676,0,0,1-1.016-2.514,6.439,6.439,0,0,1-.112-1.217c0-.181.068-1.029.024-.759a5.412,5.412,0,0,1,1.055-2.5,9.7,9.7,0,0,1,6.856-3.395c3.1-.265,6.571.271,8.974,2.4,2.178,1.932,3.418,5.152,2.2,7.976a2.478,2.478,0,0,0,.861,3.283,2.417,2.417,0,0,0,3.284-.861,11.92,11.92,0,0,0-.516-10.8,13.981,13.981,0,0,0-8.457-6.227c-6.2-1.693-14.318-.11-17.746,5.831a11.09,11.09,0,0,0,.444,11.2c1.583,2.649,5.735.238,4.145-2.422Z"/><path class="f" d="M57.1,242.931c-.624-5.345-5.65-8.869-11.967-8.237-7.067.708-11.219,5.472-10.7,9.927a8.567,8.567,0,0,0,.556,2.157H56.562A7.625,7.625,0,0,0,57.1,242.931Z"/><path class="b" d="M58.881,247.421c2.312-5.981-1.542-12.14-7.161-14.307-5.788-2.232-13.6-.379-17.448,4.555a9.91,9.91,0,0,0-1.6,9.752,2.468,2.468,0,0,0,2.952,1.676,2.42,2.42,0,0,0,1.677-2.952,5.427,5.427,0,0,1,1.675-6.518,11.618,11.618,0,0,1,7.845-2.607,8.673,8.673,0,0,1,6.106,2.413,6.151,6.151,0,0,1,1.325,6.712,2.418,2.418,0,0,0,1.676,2.952,2.455,2.455,0,0,0,2.953-1.676Z"/><path class="b" d="M14.627,239.082c-.583.97-1.171,1.938-1.753,2.909-.649,1.08-1.654,2.345-1.707,3.644a3.413,3.413,0,0,0,3.479,3.543c1.17.052,2.356,0,3.527,0H90.787c4.191,0,8.409.14,12.6,0a4.171,4.171,0,0,0,4.249-3.928c.065-2.13-1.706-4.22-2.787-5.95-1.634-2.614-5.788-.208-4.145,2.422q.654,1.046,1.289,2.1c.236.393.445.838.716,1.206.57.774-.036.145.24-.312.23-.38.97-.246.268-.34a8.65,8.65,0,0,0-1.092,0H19.014a37.417,37.417,0,0,0-4.019,0,2.737,2.737,0,0,0-.4,0q.668,3.177,1.308,1.92c.068-.118.137-.235.206-.353.276-.469.556-.935.836-1.4.608-1.014,1.222-2.025,1.831-3.039,1.6-2.654-2.553-5.07-4.144-2.423Z"/><path class="b" d="M10.016,257.873h98.763c3.089,0,3.094-4.8,0-4.8H10.016c-3.088,0-3.093,4.8,0,4.8Z"/><path class="f" d="M221.024,20.232c-.7-3.314-1.128-6.249-1.577-9.983a5.227,5.227,0,0,1,.544-2.775c.684-.726,1.992-.594,3.269-.2a99.739,99.739,0,0,1,14.179,6.551A17.575,17.575,0,0,0,226.76,27.574a15.554,15.554,0,0,0-3.775.636C222.135,25.089,221.514,22.566,221.024,20.232Z"/><path class="f" d="M309.089,11.642c-1.356.681-2.767,1.414-4.193,2.185a17.576,17.576,0,0,1,10.68,13.747,15.6,15.6,0,0,1,3.775.635,107.426,107.426,0,0,0,3.537-17.96,5.217,5.217,0,0,0-.543-2.775c-.685-.726-1.992-.594-3.269-.2A79.006,79.006,0,0,0,309.089,11.642Z"/><path class="c" d="M321.275,73.282a7.265,7.265,0,0,0-3.117-.753,6.81,6.81,0,0,0-2.734.468l-.614.01c-7.727,0-13.136-4.582-14.507-11.488a15.487,15.487,0,0,1-7.9,2.056,14.471,14.471,0,0,1-11.514-5.016,16.1,16.1,0,0,1-19.347-.116,14.446,14.446,0,0,1-11.616,5.132,15.49,15.49,0,0,1-7.9-2.056c-1.37,6.906-6.78,11.488-14.506,11.488h-.589a6.82,6.82,0,0,0-2.76-.478,6.123,6.123,0,0,0-5.5,3.057c-1.87,3.242-1.791,9.216-.536,12.912.889,2.618,2.345,6.622,5.854,9.494a7.158,7.158,0,0,0,6.022,1.533,50.711,50.711,0,0,0,9.7,18.414c6.1,7.3,13.686,11.7,21.677,13.182a63.1,63.1,0,0,0,9.718,1.041,56.08,56.08,0,0,0,10.544-1.069c7.939-1.737,14.754-5.856,20.852-13.154a50.718,50.718,0,0,0,9.7-18.443,7.126,7.126,0,0,0,6.135-1.5c3.509-2.872,4.965-6.876,5.854-9.494,1.254-3.7,1.333-9.67-.536-12.912A5.8,5.8,0,0,0,321.275,73.282Z"/><path class="b" d="M224.619,25.014a107.685,107.685,0,0,1-2.252-10.843,24.114,24.114,0,0,1-.526-4.552c.014-.286.086-.311.118-.725q.132-.409.037-.159a1.028,1.028,0,0,1-.6.615c-.082-.076.941.156.843.13.28.074.554.163.827.255a62.493,62.493,0,0,1,7.48,3.243q5.355,2.609,10.491,5.64c2.667,1.573,5.085-2.575,2.423-4.145A125.394,125.394,0,0,0,225.934,5.7c-2.475-.978-6.321-2.225-8.066.635-1.576,2.582-.564,6.18-.156,8.936a107.8,107.8,0,0,0,2.279,11.023c.768,2.99,5.4,1.723,4.628-1.276Z"/><path class="b" d="M322.345,26.29c.83-3.23,1.559-6.483,2.087-9.778.27-1.681.5-3.37.709-5.06a9.18,9.18,0,0,0-.208-4.08c-1.146-3.491-4.97-3.009-7.741-1.98-2.61.97-5.152,2.145-7.656,3.36q-5.444,2.641-10.66,5.721c-2.658,1.569-.246,5.719,2.423,4.145q5.132-3.027,10.491-5.64a62.725,62.725,0,0,1,7.48-3.243c.274-.092.548-.181.827-.255-.09.024.915-.214.843-.13l-.566-.528q-.143-.382,0,.072c.011.4.105.446.118.725a24.121,24.121,0,0,1-.525,4.552,107.966,107.966,0,0,1-2.253,10.843c-.769,2.994,3.859,4.271,4.629,1.276Z"/><path class="i" d="M329.668,42.3a14.539,14.539,0,0,0-14.092-14.729,17.628,17.628,0,0,0-17.817-15.12,18.37,18.37,0,0,0-9.29,2.438,18.134,18.134,0,0,0-34.488.07,18.345,18.345,0,0,0-9.4-2.508,17.626,17.626,0,0,0-17.817,15.12A14.539,14.539,0,0,0,212.668,42.3a15.941,15.941,0,0,0,2.058,8.051,15.015,15.015,0,0,0-2.058,7.61c0,8.908,6.2,15.043,14.858,15.043,7.726,0,13.136-4.582,14.506-11.488a15.49,15.49,0,0,0,7.9,2.056,14.446,14.446,0,0,0,11.616-5.132,16.1,16.1,0,0,0,19.347.116,14.471,14.471,0,0,0,11.514,5.016,15.487,15.487,0,0,0,7.9-2.056c1.371,6.906,6.78,11.488,14.507,11.488,8.655,0,14.858-6.135,14.858-15.043a15.006,15.006,0,0,0-2.059-7.61A15.942,15.942,0,0,0,329.668,42.3Z"/><path class="b" d="M332.068,42.3a17.555,17.555,0,0,0-4.613-11.814,17.38,17.38,0,0,0-11.879-5.315l2.314,1.762a20.121,20.121,0,0,0-10.07-14.372,21.482,21.482,0,0,0-20.563.256l3.526,1.434A20.183,20.183,0,0,0,277.213.829,21.2,21.2,0,0,0,257.6,5.02a20.282,20.282,0,0,0-5.937,9.3l3.525-1.434a21.469,21.469,0,0,0-20.532-.4,20.111,20.111,0,0,0-10.215,14.45l2.315-1.762a17.247,17.247,0,0,0-14.136,8.337,18.448,18.448,0,0,0,.03,18.054V49.143c-4,7.038-2.942,16.982,3.494,22.284,5.858,4.827,15.187,5.449,21.493,1.048a16.576,16.576,0,0,0,6.706-10.318l-3.526,1.435c7.088,4.023,17.079,2.991,22.421-3.452h-3.394a18.482,18.482,0,0,0,22.741.116H279.2c5.378,6.336,15.271,7.337,22.32,3.336l-3.526-1.435c1.634,7.823,8.2,12.94,16.092,13.236,7.727.29,14.78-4.182,17.139-11.653a18.48,18.48,0,0,0-1.538-14.6v2.422a19.235,19.235,0,0,0,2.386-9.262c.038-3.09-4.762-3.092-4.8,0a13.874,13.874,0,0,1-1.354,6.145,4.266,4.266,0,0,0-.7,1.906,4.243,4.243,0,0,0,.724,1.932,12.678,12.678,0,0,1,1.083,3.134A13.565,13.565,0,0,1,325.2,65.4c-3.41,5.285-11.279,6.7-16.765,3.744a11.7,11.7,0,0,1-5.815-8.258,2.422,2.422,0,0,0-3.525-1.434c-5.31,3.014-12.5,2.128-16.5-2.585a2.454,2.454,0,0,0-3.394,0,13.594,13.594,0,0,1-15.953-.116c-.937-.752-2.5-1.083-3.394,0-3.985,4.806-11.241,5.745-16.6,2.7a2.423,2.423,0,0,0-3.526,1.434,11.534,11.534,0,0,1-8.041,9.158c-4.172,1.215-9.182.579-12.476-2.3a13.047,13.047,0,0,1-3.837-12.527,13.447,13.447,0,0,1,.607-1.994,22.96,22.96,0,0,0,1.069-2.229c.415-1.507-.993-3.167-1.411-4.6a13.882,13.882,0,0,1,.034-7.97,12.222,12.222,0,0,1,11.1-8.444,2.442,2.442,0,0,0,2.314-1.762,15.629,15.629,0,0,1,7.72-11.425,16.5,16.5,0,0,1,15.976.248A2.43,2.43,0,0,0,256.3,15.6a15.738,15.738,0,0,1,29.86-.07,2.431,2.431,0,0,0,3.525,1.435,16.5,16.5,0,0,1,16-.1,15.629,15.629,0,0,1,7.578,11.344,2.425,2.425,0,0,0,2.314,1.762A12.312,12.312,0,0,1,327.268,42.3C327.3,45.39,332.1,45.4,332.068,42.3Z"/><path class="b" d="M263.2,110.149a17.474,17.474,0,0,0,8.41,1.951,13.74,13.74,0,0,0,8.537-2.538,2.4,2.4,0,0,0,0-3.394,2.475,2.475,0,0,0-3.4,0c.741-.578.219-.173.029-.051-.167.107-.338.2-.513.3-.241.126-.768.225-.129.083-.236.053-.474.183-.706.257a12.992,12.992,0,0,1-1.978.451c.362-.056.084-.012-.122.008s-.389.035-.583.048c-.468.03-.937.042-1.406.039q-.63,0-1.258-.045-.289-.019-.577-.048c-.072-.007-.774-.126-.212-.021a17.66,17.66,0,0,1-1.848-.41c-.259-.078-.511-.171-.766-.258-.592-.2.413.207-.121-.046q-.475-.224-.939-.468a2.4,2.4,0,1,0-2.423,4.145Z"/><path class="b" d="M270.282,90.482a38.888,38.888,0,0,1,.915,4.186l-.086-.638a2.6,2.6,0,0,1,.016.578l.085-.638a1.369,1.369,0,0,1-.063.26l.242-.573a1.087,1.087,0,0,1-.092.167l.375-.486a.964.964,0,0,1-.136.135l.485-.375a2.9,2.9,0,0,1-.331.175l.573-.242a2.422,2.422,0,0,1-.559.163l.638-.086a2.187,2.187,0,0,1-.524,0l.638.086c-.2-.027-.392-.075-.59-.1a1.823,1.823,0,0,0-.957-.043,1.778,1.778,0,0,0-.893.285,2.4,2.4,0,0,0-.861,3.283,2.294,2.294,0,0,0,1.435,1.1c.472.064.931.184,1.412.205a4.553,4.553,0,0,0,2.11-.506,3.1,3.1,0,0,0,1.7-2.038,5.025,5.025,0,0,0-.02-2.166c-.228-1.349-.54-2.685-.887-4.008a2.4,2.4,0,0,0-2.952-1.677,2.446,2.446,0,0,0-1.676,2.953Z"/><path class="b" d="M248.3,78.558c-.7,2.272-.243,7.5,4.061,7.943,5.689-.034,5.992-6.352,4.076-9.323C254.872,74.745,250.261,73.734,248.3,78.558Z"/><path class="b" d="M294.033,78.559c.7,2.272.244,7.5-4.06,7.942-5.689-.034-5.992-6.352-4.077-9.323C287.464,74.745,292.074,73.734,294.033,78.559Z"/><path class="b" d="M230.646,72.579a9.591,9.591,0,0,0-10.487-1.518,9.16,9.16,0,0,0-4.726,6.251c-1.6,6.148-.047,13.221,3.433,18.473,2.373,3.582,6.145,6.834,10.737,6.226a2.48,2.48,0,0,0,2.4-2.4c0-1.165-1.1-2.571-2.4-2.4-3.529.467-5.913-2.449-7.446-5.273a20.011,20.011,0,0,1-2.461-7.833c-.2-2.554-.181-5.759,1.439-7.9-.355.47.674-.6.455-.434a4.064,4.064,0,0,1,1.674-.732,4.516,4.516,0,0,1,3.988.937c2.293,2.057,5.7-1.327,3.394-3.394Z"/><path class="b" d="M315.084,75.973a4.515,4.515,0,0,1,3.988-.937,4.043,4.043,0,0,1,1.561.656,2.878,2.878,0,0,1,.385.342c.04.039.5.589.182.168,1.621,2.144,1.637,5.349,1.44,7.9a20.049,20.049,0,0,1-2.461,7.833c-1.531,2.824-3.919,5.74-7.447,5.273a2.412,2.412,0,0,0-2.4,2.4,2.462,2.462,0,0,0,2.4,2.4c7.534,1,12.2-7.366,13.966-13.477,1.537-5.321,1.534-13.567-3.642-16.986a9.522,9.522,0,0,0-11.366,1.031c-2.3,2.067,1.1,5.452,3.394,3.394Z"/><path class="j" d="M312.991,96.421a44.283,44.283,0,0,1-2.727,8.338c-1.644,4.463-11.873,21.832-23.993,24.525"/><path class="j" d="M229.224,96.271a50.558,50.558,0,0,0,10.363,21.209c6.038,7.228,12.545,11.6,20.512,12.734"/><path class="b" d="M226.91,97.059c3.5,15.562,14.17,30.437,29.824,35.375a52.3,52.3,0,0,0,12.942,2.071,47.482,47.482,0,0,0,13.7-1.354,39.427,39.427,0,0,0,19.685-12.2,53.467,53.467,0,0,0,12.239-23.888c.676-3.009-3.951-4.294-4.629-1.276-3.063,13.634-12.151,27.383-25.9,31.964a45.548,45.548,0,0,1-24.034.8A35.167,35.167,0,0,1,242.407,117.4a48.264,48.264,0,0,1-10.869-21.612c-.677-3.013-5.306-1.738-4.628,1.276Z"/><path class="b" d="M112.3,52.411c-.206-.481-.421-.954-.64-1.4a54.8,54.8,0,0,1-5.908,5.661,54.087,54.087,0,0,0,7.759,2.671c.177.045.5.1.641-.015.279-.246.2-.621.135-1.009A34.551,34.551,0,0,0,112.3,52.411Z"/><path class="b" d="M100.063,62.715l-.315-1.22Q96.1,64.369,92.37,67.183c1.292.775,2.384,1.436,2.384,1.436,1.292.781,3.348,2.211,4.494,2.464a2.064,2.064,0,0,0,1.865-.192c.469-.438.394-1.179.334-1.817a31.754,31.754,0,0,0-.76-3.941Z"/><path class="b" d="M86.472,72.111c-.02-.166-.04-.333-.06-.5q-3.93,2.874-7.929,5.688a58.444,58.444,0,0,0,7.079,3.5,1.06,1.06,0,0,0,1.131-.273,1.449,1.449,0,0,0,.273-.594A35.682,35.682,0,0,0,86.472,72.111Z"/><path class="b" d="M56.837,43.36a29.383,29.383,0,0,0-6.658-.352,1.447,1.447,0,0,0-.594.272,1.061,1.061,0,0,0-.273,1.132,57.925,57.925,0,0,0,3.48,7.033q2.742-3.983,5.568-7.893C57.835,43.488,57.329,43.423,56.837,43.36Z"/><path class="b" d="M62.13,36.386l-.6-.987c-.781-1.293-2.212-3.349-2.465-4.5a2.071,2.071,0,0,1,.192-1.865c.438-.469,1.179-.394,1.818-.334,2.455.232,4.557,1.149,7.585,1.291q-3.007,3.748-5.849,7.522Z"/><path class="b" d="M72.919,23.005a49.222,49.222,0,0,1-2.106-6.365c-.045-.176-.106-.5.015-.641.246-.278.62-.2,1.009-.134a36.586,36.586,0,0,1,7.259,2.6,55.53,55.53,0,0,0-5.683,5.752Q73.154,23.594,72.919,23.005Z"/><path class="k" d="M118.663,39.624a21.357,21.357,0,0,0-4.9-22.318c-.064-.064-.129-.129-.194-.192l-.193-.2c-5.641-5.641-15.016-8.351-22.846-5.429C83.367,14.162,77.558,19.233,72.661,25.1c-18.79,22.518-32.222,45.111-49.6,72.6A14.427,14.427,0,0,0,8.7,101.548c-6.186,6.186-6.292,14.6-.495,20.4,6.02,6.02,14.251,5.651,20.4-.5a14.4,14.4,0,0,0,3.847-14.355c25.172-15.234,50.3-31.662,72.706-49.935C111.082,52.329,115.991,46.785,118.663,39.624Z"/><path class="c" d="M21.728,108.424a4.306,4.306,0,0,0-6.189.093,4.236,4.236,0,0,0-.152,6.248,4.194,4.194,0,0,0,6.249-.151A4.3,4.3,0,0,0,21.728,108.424Z"/><path class="b" d="M23.425,106.727a6.558,6.558,0,0,0-3.459-1.842,7.489,7.489,0,0,0-2.486,0,6.709,6.709,0,0,0-1.825.621,7.332,7.332,0,0,0-2.973,2.781,6.52,6.52,0,0,0-.984,3.788,6.631,6.631,0,0,0,.5,2.154,7.291,7.291,0,0,0,1.192,1.908,6.738,6.738,0,0,0,3.419,2.15,7.1,7.1,0,0,0,7.456-3.137,6.576,6.576,0,0,0,1.117-4.032,6.861,6.861,0,0,0-1.961-4.393,2.4,2.4,0,0,0-3.394,3.394,5.452,5.452,0,0,1,.384.435l-.375-.486a4.643,4.643,0,0,1,.557.947l-.242-.573a4.446,4.446,0,0,1,.3,1.1l-.086-.638a4.53,4.53,0,0,1-.011,1.122l.085-.638a4.765,4.765,0,0,1-.3,1.092l.242-.574a4.94,4.94,0,0,1-.586,1.007l.376-.485a5.812,5.812,0,0,1-.97.969l.485-.376a5.294,5.294,0,0,1-1.16.681l.574-.242a4.535,4.535,0,0,1-1.042.28l.638-.086a4.146,4.146,0,0,1-1.05,0l.638.086a4.263,4.263,0,0,1-.943-.258l.573.242a4.74,4.74,0,0,1-1.056-.623l.486.376a5.527,5.527,0,0,1-.842-.84l.375.485a4.735,4.735,0,0,1-.605-1.024l.242.573a4.378,4.378,0,0,1-.275-1.013l.086.638a4.282,4.282,0,0,1,0-1.043l-.086.638a4.56,4.56,0,0,1,.31-1.122l-.242.573a5.254,5.254,0,0,1,.634-1.071l-.376.486a5.631,5.631,0,0,1,.962-.965l-.486.375a5.059,5.059,0,0,1,1-.584l-.573.242a4.74,4.74,0,0,1,1.176-.318l-.638.086a4.546,4.546,0,0,1,1.124.009l-.638-.085a4.466,4.466,0,0,1,1.014.282l-.573-.242a4.586,4.586,0,0,1,.949.557l-.485-.375a5.479,5.479,0,0,1,.436.385,2.4,2.4,0,1,0,3.394-3.394Z"/><path class="b" d="M120.977,40.262c3.615-9.984-.226-21.062-8.6-27.332A25.683,25.683,0,0,0,98.3,7.924c-5.241-.245-10.189,1.559-14.629,4.23A50.2,50.2,0,0,0,71.759,22.469c-3.7,4.279-7.177,8.77-10.593,13.276C54.52,44.513,48.311,53.6,42.31,62.819,35.061,73.954,28.084,85.262,20.985,96.492l2.71-1.1C11.836,91.968-.626,103.243,1.913,115.423a17.543,17.543,0,0,0,11.019,12.36c5.494,2.036,11.434.329,15.844-3.262a17.249,17.249,0,0,0,5.99-18.065l-1.1,2.71c12.981-7.859,25.826-15.951,38.369-24.494q9.368-6.38,18.48-13.12c5.965-4.428,11.95-8.911,17.6-13.742a43.706,43.706,0,0,0,12.868-17.548A2.419,2.419,0,0,0,119.3,37.31a2.454,2.454,0,0,0-2.953,1.676c-2.192,5.765-6.147,10.568-10.715,14.629-5.311,4.722-11.095,8.988-16.789,13.232C77.079,75.616,64.927,83.855,52.571,91.766Q42,98.537,31.24,105.022a2.451,2.451,0,0,0-1.1,2.71,12.135,12.135,0,0,1-3.088,11.876c-2.86,2.938-6.986,4.968-11.152,4.045a12.643,12.643,0,0,1-8.949-8.008,11.7,11.7,0,0,1,2.347-11.2c3.231-3.893,8.17-5.861,13.124-4.431a2.456,2.456,0,0,0,2.711-1.1c11.607-18.363,22.859-37,35.621-54.594q4.529-6.244,9.331-12.283a91.284,91.284,0,0,1,10.193-11.42,32.352,32.352,0,0,1,12.331-7.284A19.374,19.374,0,0,1,105.415,14.4a19.632,19.632,0,0,1,10.933,24.586,2.422,2.422,0,0,0,1.677,2.952A2.449,2.449,0,0,0,120.977,40.262Z"/><path class="b" d="M53.519,47.739c-.634-1.2-1.255-2.4-1.783-3.653l.241.573a5.13,5.13,0,0,1-.4-1.09l.086.638a1.583,1.583,0,0,1,0-.3l-.086.638a1.563,1.563,0,0,1,.074-.294l-.242.573a1.294,1.294,0,0,1,.1-.19l-.375.486a.847.847,0,0,1,.144-.143l-.485.376a2.906,2.906,0,0,1,.328-.193l-.573.242a1.158,1.158,0,0,1,.265-.08l-.638.086a23.627,23.627,0,0,1,4.643.107,2.4,2.4,0,0,0,1.7-.7,2.4,2.4,0,0,0,0-3.394,2.752,2.752,0,0,0-1.7-.7,26.108,26.108,0,0,0-3.5-.176,5.755,5.755,0,0,0-2.706.52,3.279,3.279,0,0,0-1.653,2.134,3.776,3.776,0,0,0,.19,2.256q.36.915.77,1.811c.449.984.947,1.946,1.453,2.9a2.421,2.421,0,0,0,3.284.861,2.453,2.453,0,0,0,.861-3.284Z"/><path class="b" d="M63.606,34.187a31.279,31.279,0,0,1-2.264-3.89l.242.573a4.664,4.664,0,0,1-.292-1.1l.085.638a3.031,3.031,0,0,1-.016-.693l-.086.638a1.9,1.9,0,0,1,.1-.363l-.242.574a1.641,1.641,0,0,1,.142-.243l-.375.486a1.511,1.511,0,0,1,.2-.2l-.485.375a1.633,1.633,0,0,1,.238-.134l-.573.242A2.043,2.043,0,0,1,60.637,31L60,31.086a6.4,6.4,0,0,1,1.581.076l-.638-.086c1.162.159,2.3.449,3.44.7a2.534,2.534,0,0,0,1.849-.242,2.4,2.4,0,0,0-.573-4.387c-1.1-.245-2.2-.526-3.316-.686a13.064,13.064,0,0,0-2-.2,4,4,0,0,0-2.634.956c-1.264,1.085-1.306,2.86-.942,4.356a9.952,9.952,0,0,0,1.168,2.563c.489.837,1.028,1.645,1.532,2.474a2.4,2.4,0,1,0,4.144-2.423Z"/><path class="b" d="M74.57,20.638c-.3-.819-.582-1.645-.839-2.479a16.775,16.775,0,0,1-.651-2.4l.086.638a1.226,1.226,0,0,1,0-.264l-.085.638.022-.074-.242.574.037-.06-.375.486.07-.067L72.109,18a.56.56,0,0,1,.158-.089l-.574.242a.725.725,0,0,1,.177-.037l-.638.085a2.036,2.036,0,0,1,.292.01l-.638-.086a14.976,14.976,0,0,1,2.514.65c1.174.379,2.33.811,3.467,1.288l-.573-.242.238.1a2.628,2.628,0,0,0,1.849.242,2.4,2.4,0,0,0,1.676-2.952,2.306,2.306,0,0,0-1.1-1.434c-1.337-.571-2.685-1.108-4.066-1.563a16.549,16.549,0,0,0-2.674-.711,4.068,4.068,0,0,0-1.8.021,2.826,2.826,0,0,0-1.941,1.891,4.881,4.881,0,0,0,.237,2.674c.353,1.291.769,2.563,1.229,3.82a2.575,2.575,0,0,0,1.1,1.434,2.4,2.4,0,0,0,3.525-2.71Z"/><path class="b" d="M79.812,80.737c.956.506,1.917,1,2.9,1.453q.894.408,1.811.771a3.775,3.775,0,0,0,2.256.189A3.277,3.277,0,0,0,88.914,81.5a5.743,5.743,0,0,0,.52-2.706,26.108,26.108,0,0,0-.176-3.5,2.6,2.6,0,0,0-.7-1.7,2.4,2.4,0,0,0-3.394,0,2.33,2.33,0,0,0-.7,1.7,23.7,23.7,0,0,1,.108,4.643l.085-.638a1.109,1.109,0,0,1-.079.265l.242-.573a3.181,3.181,0,0,1-.193.329L85,78.829a.847.847,0,0,1-.143.144l.486-.375a1.2,1.2,0,0,1-.19.1l.574-.242a1.49,1.49,0,0,1-.294.074l.638-.086a1.593,1.593,0,0,1-.3,0l.638.086a5.13,5.13,0,0,1-1.09-.4l.574.242c-1.249-.529-2.456-1.15-3.654-1.784a2.529,2.529,0,0,0-1.849-.242,2.4,2.4,0,0,0-.573,4.387Z"/><path class="b" d="M93.542,70.691a23.6,23.6,0,0,0,4.814,2.637,4.528,4.528,0,0,0,4.138-.49,3.7,3.7,0,0,0,1.373-2.685,6.083,6.083,0,0,0-.053-1.394A42.9,42.9,0,0,0,103,64.5a2.419,2.419,0,0,0-2.952-1.677,2.455,2.455,0,0,0-1.677,2.953c.255,1.142.545,2.278.7,3.439l-.086-.638a6.35,6.35,0,0,1,.077,1.581l.085-.638a1.938,1.938,0,0,1-.095.359L99.3,69.3a1.6,1.6,0,0,1-.133.239l.375-.486a1.527,1.527,0,0,1-.2.2l.486-.376a1.5,1.5,0,0,1-.242.142l.573-.242a1.75,1.75,0,0,1-.363.1l.638-.086a2.922,2.922,0,0,1-.693-.016l.638.086a4.729,4.729,0,0,1-1.1-.293l.573.242a31.425,31.425,0,0,1-3.89-2.264,2.4,2.4,0,0,0-2.423,4.145Z"/><path class="b" d="M108.238,60.211c1.237.452,2.488.862,3.758,1.211a4.976,4.976,0,0,0,2.736.254,2.827,2.827,0,0,0,1.892-1.941,4.093,4.093,0,0,0,.021-1.8,16.376,16.376,0,0,0-.694-2.621c-.46-1.4-1-2.766-1.58-4.12a2.4,2.4,0,0,0-1.435-1.1,2.452,2.452,0,0,0-1.849.242,2.421,2.421,0,0,0-1.1,1.434l-.086.638a2.4,2.4,0,0,0,.328,1.212c.034.079.068.158.1.238l-.242-.574q.716,1.706,1.289,3.467a15.069,15.069,0,0,1,.649,2.514l-.086-.638a2.036,2.036,0,0,1,.01.292l.086-.638a.707.707,0,0,1-.038.177l.242-.573a.531.531,0,0,1-.089.157l.376-.486-.068.07.486-.375-.059.037.573-.242-.074.023.638-.086a1.217,1.217,0,0,1-.263,0l.638.086a16.739,16.739,0,0,1-2.4-.651c-.835-.256-1.66-.539-2.48-.839a2.4,2.4,0,0,0-2.71,3.526,2.7,2.7,0,0,0,1.434,1.1Z"/></svg>