<?xml version="1.0" encoding="utf-8"?>
<!-- Uploaded to: SVG Repo, www.svgrepo.com, Generator: SVG Repo Mixer Tools -->
<svg width="800px" height="800px" viewBox="-62.02 0 358.509 358.509" xmlns="http://www.w3.org/2000/svg"><defs><style>.a{fill:#ffffff;}.b{fill:#957f6e;}.c{fill:#211715;}.d{fill:#c6c6c6;}.e{fill:#79c6e0;}</style></defs><path class="a" d="M160.418,86.249a8.029,8.029,0,0,1,6.328-2.183,7.58,7.58,0,0,1,5.618,3.361,10.7,10.7,0,0,1,1.326,4.254,32.128,32.128,0,0,1-2.462,17.166,20.424,20.424,0,0,1-4.945,7.173,13.53,13.53,0,0,1-6.153,3.134l-1.069.217c-.424,1.956-.926,3.61-1.169,4.488-1.668,5.29-11.908,24.4-25.382,30.511a79.954,79.954,0,0,0,1.179,10.929c.7,3.99.49,7.56,6.04,9.56.37.14,6.61,2.57,7.18,2.81,0,0,4,28.848-36.442,28.848s-38.958-30.308-38.958-30.308c1.07-.36,3.65-1.21,4.02-1.35,5.55-2,5.33-5.57,6.03-9.56a78.343,78.343,0,0,0,1.187-10.756,49.519,49.519,0,0,1-13.133-10.419,54.582,54.582,0,0,1-11.364-19.806l-2.067-.217a13.538,13.538,0,0,1-6.424-2.536,20.424,20.424,0,0,1-5.6-6.67A32.131,32.131,0,0,1,40.074,98.04a10.705,10.705,0,0,1,.916-4.361A7.58,7.58,0,0,1,46.263,89.8a8.03,8.03,0,0,1,6.507,1.572s-16.279-60.41,47.475-60.41S160.418,86.249,160.418,86.249Z"/><path class="a" d="M102.482,201.439a57.87,57.87,0,0,1-22.441-7.123c4.507,16.471,8.543,32.439,14.554,49.454,3.88,10.985,8.121,20.986,12.729,32.222,5.349-9.57,9.016-18.77,12.813-29.014,6.441-17.378,11.148-35.491,15.764-53.482-7.627,5.711-19.988,9.027-29.484,8.314C105.062,201.708,103.754,201.586,102.482,201.439Z"/><path class="a" d="M83.065,205.467c-2.957-10.922-5.876-21.912-9.49-33.437L56.57,189.592a49.9,49.9,0,0,1-3.333,16.851l-.586,1.692c3.844.321,7.04.585,8.911.74.912,16.624.581,62.31.641,70.587.08,10.961-.369,33.745-3.47,45.472-2.269,6.868-6.919,13.183-14.1,16.43,0,0,7.76,15.079,14.575,15.079,15.408,0,142.222-.253,159.8-.253.23-30.919.5-75.481-1.986-102.35-.8-8.72-1.86-17.52-4.98-25.7-7.56-19.78-25.47-32.57-44.64-42.74-5.265-2.8-13.584-7.065-19.369-9.364-2.461-2.783-4.645-5.179-5.977-6.557l-5.845,22.793c-4.716,18.393-9.49,36.934-16.077,54.706-3.8,10.244-7.464,19.444-12.814,29.013-4.607-11.235-8.848-21.236-12.728-32.221C89.948,230.615,86.481,218.087,83.065,205.467Z"/><path class="a" d="M53.237,206.443a49.9,49.9,0,0,0,3.333-16.851L58,153.8H13.758c1.56,6.06,6.1,14.48,8.08,19.2a176.7,176.7,0,0,1,6.58,16.99,17.034,17.034,0,0,1,1.07,6.44,16.766,16.766,0,0,1-1.4,4.67c-1.22,2.99-1.35,3.46-1.95,4.97"/><path class="b" d="M167.2,50.446c-.259-1.173-.519-2.259-.767-3.234-6.88-27.087-35.462-47.488-64.277-44.526C73.185,2.474,46.669,25.5,42.393,53.115c-1.16,7.449-.379,20.062,1.276,25.886L46.95,89.7a7.968,7.968,0,0,1,5.82,1.668c11.042-8.464,29.755-23.145,39.373-32.246-.581,5.158-3.1,14.005.551,12.934,15.247-4.3,29.68-12.206,38.079-23.862,2.2,6.541,5.737,15.352,8.209,19.158,3.5,5.386,13.467,17.405,21.436,18.893a8.029,8.029,0,0,1,6.328-2.183,7.814,7.814,0,0,1,1.011.17C171.329,74.747,169.262,59.8,167.2,50.446Z"/><path class="c" d="M45.964,78.6a49.631,49.631,0,0,1-1.457-9.586A87,87,0,0,1,44.358,57.4a50.4,50.4,0,0,1,5.783-20.126A61.135,61.135,0,0,1,82.247,8.749,58.657,58.657,0,0,1,93.174,5.777a105.929,105.929,0,0,1,11.156-.871,56.226,56.226,0,0,1,22,3.119,60.771,60.771,0,0,1,33.157,28c3.342,6.181,5.1,12.887,6.332,19.766,1.306,7.316,2.2,15.17.979,22.559a28.947,28.947,0,0,1-1.322,5.152,2.422,2.422,0,0,0,1.676,2.952,2.449,2.449,0,0,0,2.952-1.676c2.75-7.585,2.274-16.273,1.271-24.141-.932-7.3-2.3-14.731-5.149-21.555A64.554,64.554,0,0,0,133.5,5.767,63.011,63.011,0,0,0,109.939.043a55.341,55.341,0,0,0-5.972.087c-1.981.136-3.962.147-5.943.282a60.068,60.068,0,0,0-11.84,2.006A66.07,66.07,0,0,0,48.808,30.042a58.182,58.182,0,0,0-8.589,21.577,75.613,75.613,0,0,0,.2,23.734,37.62,37.62,0,0,0,.92,4.522c.826,2.972,5.458,1.709,4.629-1.276Z"/><path class="c" d="M128.726,49.63q1.985,5.755,4.388,11.354a48.944,48.944,0,0,0,4.277,8.306,64.6,64.6,0,0,0,12.964,14.258c2.778,2.2,5.888,4.307,9.425,5.015a2.461,2.461,0,0,0,2.952-1.676,2.422,2.422,0,0,0-1.676-2.952c-5.516-1.1-10.271-6.041-13.986-10.133a51.006,51.006,0,0,1-9.1-13.633c-1.733-3.856-3.233-7.82-4.611-11.815-1-2.9-5.639-1.656-4.628,1.276Z"/><path class="c" d="M128.846,46.784c-4.743,6.6-11.343,11.674-18.417,15.565a82.036,82.036,0,0,1-11.7,5.259c-2.067.745-4.161,1.427-6.276,2.025-.043.012-.578.138-.58.159.006-.065.445-.02.476-.013.518.12-.287-.173.209.058a1.784,1.784,0,0,1,.559.394c.027.027.158.336.109.1-.025-.123-.054-.245-.076-.369.1.568.01-.136.011-.22.056-3.568.959-7.02,1.382-10.614.258-2.193-2.726-2.992-4.1-1.7-9.714,9.171-20.337,17.43-30.852,25.65q-4,3.129-8.035,6.221a2.479,2.479,0,0,0-.861,3.283,2.416,2.416,0,0,0,3.284.861C64.9,85.074,75.755,76.59,86.205,67.639c2.591-2.22,5.154-4.474,7.635-6.816l-4.1-1.7c-.375,3.19-1.509,7.109-1.382,10.614.058,1.61.449,3.41,1.943,4.305,1.8,1.081,3.988.072,5.794-.494a82.448,82.448,0,0,0,25.947-13.084,54.328,54.328,0,0,0,10.946-11.261,2.417,2.417,0,0,0-.861-3.283,2.453,2.453,0,0,0-3.284.861Z"/><path class="c" d="M162.115,87.946c2.183-2.052,6.056-2.084,7.977.391a9.007,9.007,0,0,1,1.349,4.682,31.187,31.187,0,0,1-.057,6.268c-.782,7.015-4.24,15.86-11.892,17.552-3.015.667-1.739,5.3,1.276,4.629,8.1-1.791,12.644-9.616,14.536-17.117a33.847,33.847,0,0,0,.868-12c-.441-3.913-1.714-7.66-5.465-9.549a10.538,10.538,0,0,0-11.987,1.752c-2.255,2.12,1.144,5.509,3.4,3.394Z"/><path class="c" d="M157.363,113.186A30.6,30.6,0,0,1,155.308,124c-.078.208-.162.415-.243.622-.216.557.075-.156-.081.2-.247.559-.5,1.114-.765,1.664-.611,1.268-1.269,2.513-1.96,3.739a64.65,64.65,0,0,1-13.47,17.164,27.047,27.047,0,0,1-10.28,5.9c-2.97.832-1.708,5.465,1.276,4.628,7.924-2.222,14.34-8.21,19.35-14.505A71.279,71.279,0,0,0,159.694,125.9a33.92,33.92,0,0,0,2.469-12.709c-.045-3.086-4.845-3.1-4.8,0Z"/><path class="c" d="M54.468,89.675a10.555,10.555,0,0,0-10.892-1.5C39.687,89.9,37.958,93.514,37.7,97.6a33.376,33.376,0,0,0,7.054,22.45A17.192,17.192,0,0,0,56.182,126.5a2.414,2.414,0,0,0,2.4-2.4,2.459,2.459,0,0,0-2.4-2.4c-7.557-.931-11.623-9.726-13.067-16.263a28.322,28.322,0,0,1-.66-5.649c-.031-1.759-.1-3.825.872-5.372a5.524,5.524,0,0,1,7.746-1.348,2.481,2.481,0,0,0,3.4,0,2.416,2.416,0,0,0,0-3.394Z"/><path class="c" d="M53.839,117.34a64.947,64.947,0,0,0,9.019,22.028c5.034,7.534,12.137,14.245,20.4,18.1a37.553,37.553,0,0,0,13.871,3.534c3.086.172,3.077-4.628,0-4.8C80.9,155.3,67.586,141.539,61.841,127.171a72.051,72.051,0,0,1-3.374-11.107c-.671-3.014-5.3-1.739-4.628,1.276Z"/><path class="c" d="M72.147,178.524a44.636,44.636,0,0,0,6.006-2.2,9.5,9.5,0,0,0,4.694-5.28,32.679,32.679,0,0,0,1.17-5.939,85.084,85.084,0,0,0,1.132-10.61c.128-3.088-4.672-3.082-4.8,0a74.312,74.312,0,0,1-.892,8.92,47.022,47.022,0,0,1-1.026,5.712c-.053.18-.114.358-.175.536-.085.247.133-.24-.059.151-.1.2-.206.4-.324.6-.012.019-.422.581-.166.268a5.219,5.219,0,0,1-2.118,1.573,42.708,42.708,0,0,1-4.718,1.64,2.455,2.455,0,0,0-1.676,2.952,2.424,2.424,0,0,0,2.952,1.677Z"/><path class="c" d="M130.109,154.379a116.365,116.365,0,0,0,1.475,12.871c.4,2.645.969,5.232,2.92,7.208,1.74,1.763,4.1,2.524,6.352,3.4,1.806.7,3.625,1.382,5.415,2.125a2.416,2.416,0,0,0,2.953-1.677,2.461,2.461,0,0,0-1.677-2.952c-1.583-.656-3.191-1.258-4.788-1.88-1.546-.6-3.548-1.183-4.67-2.226a4.1,4.1,0,0,1-1.255-2.075,25.037,25.037,0,0,1-.661-3.459,101.008,101.008,0,0,1-1.264-11.336c-.119-3.078-4.92-3.094-4.8,0Z"/><path class="c" d="M177.445,356.16c-.164-12.027-.638-24.048-.977-36.071-.149-5.285-.285-10.572-.3-15.86a50.191,50.191,0,0,1,.336-7.263c.489-3.461,1.072-6.908,1.648-10.356,1.323-7.926,2.589-15.894,2.614-23.95.01-3.089-4.79-3.093-4.8,0a130.156,130.156,0,0,1-2.134,20.815c-1.035,6.274-2.441,12.6-2.464,18.977-.041,11.149.442,22.3.783,33.441.207,6.755.4,13.51.5,20.267.042,3.086,4.842,3.095,4.8,0Z"/><path class="c" d="M103.624,134.794c.179-.084.359-.166.538-.248.644-.3-.4.137.227-.093a16.954,16.954,0,0,1,1.723-.542c.377-.093.758-.172,1.14-.238a3.765,3.765,0,0,0,.382-.062c-.257.033.377-.037.432-.042a23.766,23.766,0,0,1,3.279-.058,15.855,15.855,0,0,1,4.977.945c.087.031.691.29.129.039.132.059.264.118.394.181.257.124.509.257.754.4.19.112.371.237.556.357.511.331-.433-.376.1.083a2.462,2.462,0,0,0,3.394,0,2.422,2.422,0,0,0,0-3.4c-2.757-2.367-6.433-3.181-9.98-3.4a21.19,21.19,0,0,0-10.468,1.921,2.42,2.42,0,0,0-.861,3.284,2.453,2.453,0,0,0,3.283.861Z"/><path class="c" d="M109.243,109.534c.271.863.522,1.733.762,2.606a23.328,23.328,0,0,1,.664,2.781l-.086-.638a2.777,2.777,0,0,1,.017.562l.086-.638a1.614,1.614,0,0,1-.081.336l.242-.573a1.217,1.217,0,0,1-.125.215l.376-.486a.794.794,0,0,1-.12.119l.486-.375a3.261,3.261,0,0,1-.617.336l.574-.242a2.874,2.874,0,0,1-.569.157l.638-.085a3.117,3.117,0,0,1-.784-.009l.638.086c-.388-.054-.774-.121-1.164-.155a2.4,2.4,0,0,0-1.7,4.1,2.69,2.69,0,0,0,1.7.7c.063.006.126.012.189.021l-.638-.086a7.655,7.655,0,0,0,1.588.161,5.25,5.25,0,0,0,2.381-.718,3.267,3.267,0,0,0,1.614-2.226,6.1,6.1,0,0,0-.126-2.394c-.36-1.629-.817-3.239-1.317-4.831a2.4,2.4,0,0,0-4.628,1.276Z"/><path class="c" d="M80.619,96.226c-.739,2.882.142,9.39,5.55,9.69,7.111-.381,7.114-8.3,4.543-11.9C88.606,91.067,82.782,90.077,80.619,96.226Z"/><path class="c" d="M137.58,93.515c1.01,2.8.751,9.361-4.6,10.173-7.115.3-7.87-7.587-5.653-11.415C129.139,89.138,134.843,87.6,137.58,93.515Z"/><path class="c" d="M146.827,178.125a169.308,169.308,0,0,1,16.672,7.929c5.408,2.82,10.749,5.773,15.88,9.077,10.09,6.5,19.581,14.467,25.929,24.787,7.418,12.061,8.766,26.124,9.825,39.941,1.11,14.466,1.473,28.982,1.583,43.486.133,17.616-.117,35.231-.2,52.845-.015,3.089,4.785,3.093,4.8,0,.149-31.081.994-62.253-1.16-93.288-.994-14.329-2.006-29.241-8.85-42.167-5.922-11.185-15.351-20.011-25.64-27.165a173.1,173.1,0,0,0-18.2-10.85A188.912,188.912,0,0,0,148.1,173.5a2.418,2.418,0,0,0-2.952,1.676,2.457,2.457,0,0,0,1.676,2.953Z"/><path class="c" d="M79.754,196.881c14.119,7.366,30.954,9.8,46.167,4.416a42.623,42.623,0,0,0,11.219-5.749,2.474,2.474,0,0,0,.861-3.284,2.418,2.418,0,0,0-3.284-.861c-11.544,8.557-26.945,9.649-40.484,6.1a57.777,57.777,0,0,1-12.056-4.763c-2.736-1.427-5.165,2.714-2.423,4.144Z"/><path class="a" d="M107.447,275.772c5.282-9.491,8.922-18.628,12.69-28.794,6.587-17.772,11.361-36.313,16.077-54.706l5.845-22.793c4.765,4.929,20.435,22.88,20.67,25.03a25.075,25.075,0,0,1-9.049,10.66c2.061,2.826,7.712,10.916,7.737,11.9.088,3.405-23.249,41.328-40.111,59.714Z"/><path class="c" d="M109.519,276.983c6.956-12.547,12.074-26.152,16.561-39.751,4.61-13.973,8.317-28.221,11.973-42.467q3.162-12.322,6.32-24.648l-4.011,1.059c3.057,3.17,5.956,6.5,8.839,9.827q2.65,3.059,5.239,6.172,1.158,1.4,2.293,2.814.495.619.983,1.243c.035.044.33.425.164.21-.147-.19.075.1.085.111.171.224.341.448.51.674.515.687,1.025,1.382,1.488,2.1.165.259.3.551.473.8.221.32-.114-.6-.021.013l.242-1.849a24.144,24.144,0,0,1-8.188,9.8,2.428,2.428,0,0,0-.861,3.284q2.514,3.454,4.88,7.014c.756,1.136,1.511,2.276,2.191,3.459.1.182.2.367.306.549.152.269.18.686.041.021.1.474-.01-.4-.009-.31.006.356.213-.625.057-.4a5.737,5.737,0,0,0-.406,1.227c-.114.359.257-.555.045-.11-.071.15-.135.3-.2.454-.158.343-.321.682-.488,1.02-.892,1.808-1.871,3.574-2.869,5.325a353.843,353.843,0,0,1-21.506,32.944,200.964,200.964,0,0,1-14.037,17.515c-2.081,2.275,1.3,5.679,3.394,3.394,9.706-10.61,18.023-22.581,25.891-34.587,3.446-5.259,6.8-10.586,9.94-16.035,1.083-1.88,2.146-3.775,3.122-5.713a20.967,20.967,0,0,0,1.689-3.915c.585-2.208-1.01-4.186-2.145-5.943-1.831-2.833-3.763-5.606-5.747-8.334l-.861,3.284a28.5,28.5,0,0,0,9.484-10.649,3.817,3.817,0,0,0,.056-4.152,22.545,22.545,0,0,0-1.573-2.315c-4-5.422-8.478-10.522-12.936-15.571-2.02-2.288-4.048-4.575-6.167-6.772a2.421,2.421,0,0,0-4.012,1.059c-7.278,28.385-13.886,57.063-24.544,84.422a174.02,174.02,0,0,1-9.825,21.3c-1.5,2.7,2.645,5.127,4.144,2.422Z"/><path class="c" d="M67.678,254.025c5.083,7.311,10.272,14.551,15.646,21.651,4.434,5.857,8.947,11.7,13.907,17.121,2.089,2.285,5.476-1.117,3.394-3.394-4.783-5.232-9.15-10.847-13.421-16.5-5.279-6.989-10.381-14.111-15.381-21.3a2.463,2.463,0,0,0-3.284-.861,2.422,2.422,0,0,0-.861,3.284Z"/><path class="c" d="M71.261,172.668c4.509,14.407,8.21,29.041,12.269,43.577a415.782,415.782,0,0,0,13.757,41.46c2.582,6.52,5.291,12.988,7.949,19.477q2.164,5.286,4.273,10.594c.178.452.363.895.551,1.343.226.536-.219-.532.063.149.1.238.2.476.294.714a30.128,30.128,0,0,1,1.139,3.275c.025.088.128.845.072.23.024.269.007.544.007.814V356.13c0,3.089,4.8,3.094,4.8,0v-60.2a18.464,18.464,0,0,0-.148-3.487,19.332,19.332,0,0,0-1.137-3.479c-.183-.461-.374-.918-.566-1.375-.105-.249-.212-.5-.315-.745.247.593.1.251.05.115-.7-1.98-1.557-3.92-2.343-5.868-2.684-6.645-5.456-13.254-8.148-19.9a412.226,412.226,0,0,1-14.147-40.856c-4.692-16.291-8.726-32.766-13.792-48.95-.919-2.938-5.554-1.684-4.628,1.276Z"/><path class="c" d="M97.794,299.616a8.847,8.847,0,0,0-8.057,5.024,8.244,8.244,0,0,0-.653,4.82,8.526,8.526,0,0,0,2.423,4.559,8.419,8.419,0,0,0,8.923,2.238,8.88,8.88,0,0,0,5.736-8.67,8.48,8.48,0,0,0-8.372-7.971,2.4,2.4,0,0,0,0,4.8c.183,0,.365.016.548.024.591.024-.5-.141.063.015.276.078.551.149.825.232.536.164-.439-.258.041.021.095.055.2.1.291.156.143.081.276.175.416.261.432.264-.308-.3.028.021.095.092.7.559.675.689,0,0-.337-.493-.082-.1.088.134.18.265.262.4.068.115.125.236.192.351.216.372.119,0-.011-.062.149.071.246.754.283.921.127.573.033,0,.02,0a3.272,3.272,0,0,1,.033.487,2.1,2.1,0,0,1-.035.858c.2-.333.053-.341-.008-.045-.028.138-.06.276-.1.412-.045.163-.1.321-.153.482-.15.5.211-.376-.017.043-.16.294-.325.575-.5.86-.124.2-.017.214.079-.089-.037.116-.242.283-.325.372-.11.117-.438.53-.6.56l.226-.174c-.088.065-.178.128-.27.188q-.206.137-.423.255a1.471,1.471,0,0,1-.443.221l.267-.115c-.1.04-.208.077-.314.111-.142.046-.7.28-.815.2.156.107.477-.045.044-.014-.145.011-.29.018-.434.016-.113,0-.226-.015-.339-.015-.431,0,.6.128.166.018-.25-.063-.5-.116-.742-.2a1.4,1.4,0,0,0-.252-.092c.474.042.353.16.067.021a6.965,6.965,0,0,1-.629-.343c-.126-.076-.249-.157-.37-.24-.438-.3.024-.043.007.014.011-.035-.61-.558-.672-.623s-.141-.151-.209-.229l-.1-.118q-.242-.3.088.115c-.063.01-.391-.609-.423-.667s-.238-.37-.215-.428q.186.453.088.2c-.029-.076-.056-.153-.081-.23-.052-.157-.1-.316-.135-.477-.015-.066-.187-.544-.049-.178.128.342-.007-.093-.013-.194-.009-.153-.013-.306-.009-.459,0-.089.017-.18.016-.269,0-.3-.139.67-.035.248.057-.231.1-.464.166-.692.036-.119.081-.235.12-.352.146-.433-.241.486-.042.1a8.5,8.5,0,0,1,.457-.811,1.35,1.35,0,0,0,.155-.224c-.238.3-.278.353-.12.156.059-.072.121-.143.183-.212.194-.215.406-.4.619-.6.362-.33-.362.2-.077.06.153-.075.293-.2.442-.286.133-.079.272-.144.407-.219.406-.227-.479.148.008-.008a9.106,9.106,0,0,1,.959-.272l.17-.032c.267-.043.23-.038-.112.013a2.108,2.108,0,0,1,.742-.036,2.4,2.4,0,1,0,0-4.8Z"/><path class="a" d="M17.347,205.558c1.6-.2,35.922,2.63,44.215,3.317.912,16.624.581,62.31.641,70.587.08,10.961-.369,33.745-3.47,45.472-2.269,6.868-6.919,13.183-14.1,16.43a32.163,32.163,0,0,1-17.4,2.443,24.562,24.562,0,0,1-16.448-9.313c-6.149-7.6-7.808-18.8-8.262-26.981-.773-13.894,1.91-26.554,4.306-41.247C9.831,247.869,16.583,208.436,17.347,205.558Z"/><path class="c" d="M17.347,207.958a25.905,25.905,0,0,1,4.256.192c3.045.2,6.089.425,9.132.655q11.046.837,22.087,1.751,4.369.357,8.74.719l-2.4-2.4c.444,8.181.493,16.389.565,24.58.085,9.674.094,19.349.085,29.024-.016,17.02.423,34.14-1.516,51.079-.548,4.79-1.129,9.829-3.284,14.2a23.888,23.888,0,0,1-11.986,11.71,29.227,29.227,0,0,1-18.934,1.244,22.846,22.846,0,0,1-12.8-9.586c-3.215-4.916-4.78-10.716-5.663-16.47A86.242,86.242,0,0,1,5,296.15c.791-12.419,3.381-24.723,5.42-36.983,2.841-17.076,5.55-34.206,8.867-51.2.115-.592.222-1.189.374-1.773.778-2.991-3.85-4.268-4.629-1.276-.495,1.9-.775,3.876-1.127,5.805q-1.062,5.835-2.071,11.681-2.629,15.081-5.156,30.181C4.673,264.543,2.385,276.5.92,288.536a106.1,106.1,0,0,0-.666,20.942,60.213,60.213,0,0,0,3.678,17.7,31.54,31.54,0,0,0,11.162,14.578c5.255,3.634,11.859,5.022,18.174,4.708a31.092,31.092,0,0,0,19.128-7.33,29.386,29.386,0,0,0,8.978-14.878,111.694,111.694,0,0,0,2.249-16.063c.485-5.809.744-11.637.882-17.464.166-7.032.086-14.069.1-21.1.029-18.586.193-37.2-.429-55.777-.055-1.658-.121-3.316-.211-4.973a2.471,2.471,0,0,0-2.4-2.4c-12.977-1.075-25.955-2.184-38.947-3.058a31.6,31.6,0,0,0-5.268-.259,2.471,2.471,0,0,0-2.4,2.4A2.416,2.416,0,0,0,17.347,207.958Z"/><path class="d" d="M74.46,158.686c-6.391-7.487-15.943-33.9-16.616-38.306-1.15-7.541,1.036-8.782,1.415-11.7.555-4.284-6.908-19.725-10.829-21.272a7.519,7.519,0,0,0-4.117-.286c-4.157,1.019-7.841,2.981-11.656,4.917-1.923.975-3.891,2.163-4.867,4-1.473,2.769.262,5.783,1.046,8.688,2.071,7.673,5.757,19.248,8.189,27.939,6.961,21.911,9.35,32.556,18.668,51.844a17.25,17.25,0,0,0,7.134,7.466c4.041,2.332,9.629,1,13.921-1.337s12.668-6.315,12-12.036c-.3-2.568-4.4-12.234-5.77-15.193C81.58,160.385,76.982,161.641,74.46,158.686Z"/><path class="c" d="M76.157,156.989c-.1-.123-.645-.82-.317-.382q-.3-.406-.593-.824c-.473-.685-.917-1.39-1.345-2.1-.958-1.6-1.831-3.252-2.664-4.921-1.865-3.737-3.532-7.573-5.089-11.448-1.467-3.648-2.849-7.333-4.105-11.059a38.739,38.739,0,0,1-1.926-6.782,20.494,20.494,0,0,1-.191-3.688,7.908,7.908,0,0,1,.365-2.347c.337-1.214.929-2.352,1.19-3.588.68-3.215-.678-6.647-1.879-9.581a51.352,51.352,0,0,0-5.785-10.846,14.725,14.725,0,0,0-3.458-3.678,8.931,8.931,0,0,0-6.906-.879,43.884,43.884,0,0,0-8.959,3.56c-2.559,1.269-5.449,2.462-7.436,4.588-2.27,2.429-2.615,5.467-1.742,8.585.734,2.621,1.59,5.218,2.344,7.837,3.238,11.254,6.656,22.459,10.1,33.65,2.984,9.693,5.9,19.412,9.713,28.821q1.559,3.849,3.262,7.637a60.225,60.225,0,0,0,3.83,7.872c3.051,4.761,8.29,8.56,14.141,8.145,5.113-.362,9.747-2.9,14.053-5.512,3.788-2.3,8.071-5.541,8.406-10.342a12.259,12.259,0,0,0-.919-4.72c-.68-2.009-1.463-3.984-2.263-5.947-.783-1.919-1.588-3.831-2.43-5.725a6.976,6.976,0,0,0-4.122-4.095c-1.808-.689-3.912-.73-5.276-2.227-2.085-2.289-5.472,1.113-3.394,3.394,1.613,1.771,3.793,2.418,6.028,3.029a9.145,9.145,0,0,1,1.366.432c-.052-.024.411.267.412.267a7.478,7.478,0,0,1,.886,1.723c1.5,3.393,2.953,6.848,4.165,10.425.231.68.456,1.366.631,2.064.056.223.147,1.113.1.277.011.187.034.369.037.557,0-.011-.059.8,0,.443-.248,1.647-1.5,2.937-2.857,4.09a30.63,30.63,0,0,1-5.081,3.3,39.681,39.681,0,0,1-5.462,2.745,12.749,12.749,0,0,1-7.075.868,12.3,12.3,0,0,1-5.947-3.975c-1.774-1.966-2.771-4.508-3.873-6.881-1.085-2.336-2.139-4.688-3.134-7.064-3.645-8.7-6.5-17.672-9.269-26.676q-4.876-15.858-9.6-31.757c-.747-2.5-1.488-5-2.2-7.514-.289-1.022-.552-2.052-.853-3.07a38.3,38.3,0,0,1-1.34-4.4c-.415-2.478,1.557-3.764,3.5-4.811a71.342,71.342,0,0,1,7.88-3.786A20.06,20.06,0,0,1,45.126,89.4a5.092,5.092,0,0,1,1.469-.006,3.667,3.667,0,0,1,.975.257c.379.127.367.256.2.108.2.178.4.355.594.546.24.24.467.493.687.751.12.14.237.283.353.427q.151.191-.019-.028c.073.1.145.193.216.29a49.664,49.664,0,0,1,5.264,9.534,34.85,34.85,0,0,1,1.7,4.905c.086.341.166.684.232,1.029.024.127.044.254.067.382.107.6-.023-.383-.006-.019.011.23.008.473.031.7.006.058-.031.532.009.11.041-.44-.061.27-.081.354-.269,1.138-.8,2.2-1.123,3.318a17.1,17.1,0,0,0-.533,5.774c.392,6.08,2.973,12.018,5.135,17.637,2.8,7.267,5.765,14.712,9.9,21.342a30.581,30.581,0,0,0,2.572,3.572,2.42,2.42,0,0,0,3.394,0A2.452,2.452,0,0,0,76.157,156.989Z"/><path class="a" d="M22.707,111.7a17.8,17.8,0,0,1,2.073-1.259c3.235-1.668,6.295-1.353,9.894-.777,2.773.443,4.44,1.888,4.773,3.888a4.456,4.456,0,0,1-3.346,5.479c-5.131,1.475-9.211,2.665-11.885,8.642a25.73,25.73,0,0,1,14.46-2.58c4.66.459,10.8,1.226,14.406,6.08a5.967,5.967,0,0,1,.869,3.526,5.253,5.253,0,0,1-3.627,4.546,4.087,4.087,0,0,1-1.772.184c.816.856,1.407,1.478,1.407,1.478a6.911,6.911,0,0,1,1.253,6.428c-.5,1.894-1.979,2.709-3.866,2.866a8.6,8.6,0,0,1-1.579-.022l1.973,1.989c1.828,1.847,2.584,4.688,1.357,6.7a4.185,4.185,0,0,1-3.91,1.7,19.454,19.454,0,0,1-4.368-1.124c-2.074-.638-2.766-.912-4.858-.46a13.535,13.535,0,0,0-5.408,2.454s-6.087,4.786-10.28,8.092c-2.222-4.74-5.289-10.967-6.516-15.733A41.487,41.487,0,0,1,12.44,143.63l-.771-3.414c-.777-3.444-1.888-8.208-1.333-11a19.279,19.279,0,0,1,3.259-7.09C16.154,118.208,19.02,114.284,22.707,111.7Z"/><path class="c" d="M24.985,143.729c3.371-3.676,7.776-5.964,12.865-5.249,2.877.405,5.335,1.735,8.015,2.733a7.647,7.647,0,0,0,8.059-1.361,7.833,7.833,0,0,0,2.256-7.287c-.553-2.761-2.671-4.835-4.935-6.351-4.153-2.781-9.711-3.507-14.6-3.654-11.2-.335-23.691,6.607-26.276,18.194a21.385,21.385,0,0,0-.1,7.041,46.405,46.405,0,0,0,1.266,6.961c1.422,5.211,3.915,10.128,6.208,15a174.309,174.309,0,0,1,7.635,18.6,42.434,42.434,0,0,1,1.584,5.472,9.055,9.055,0,0,1-.526,4.985c-.807,2.227-1.732,4.425-2.6,6.629a2.416,2.416,0,0,0,1.676,2.952,2.456,2.456,0,0,0,2.952-1.676c.655-1.655,1.28-3.321,1.95-4.97a15.331,15.331,0,0,0,1.18-9.2c-1.239-6.231-4.078-12.262-6.54-18.082-3.626-8.571-8.715-16.865-9.931-26.232-.133-1.025-.221-2.061-.262-3.095a16.813,16.813,0,0,1,.091-2.861,17.165,17.165,0,0,1,3.275-6.819,21.614,21.614,0,0,1,12.066-7.476,29.328,29.328,0,0,1,13.868.383c2.785.713,9.316,3.494,6.98,7.389-1.363,2.274-3.914.873-5.751.067a24.7,24.7,0,0,0-8.7-2.239c-5.873-.3-11.187,2.507-15.083,6.756-2.084,2.273,1.3,5.677,3.394,3.394Z"/><path class="c" d="M26.4,128.637a11.058,11.058,0,0,1,4.258-5.029,24.714,24.714,0,0,1,5.759-2.173,7.224,7.224,0,0,0,5.173-4.5A7.336,7.336,0,0,0,40,109.623c-2.161-2.181-5.453-2.52-8.354-2.756a14.876,14.876,0,0,0-8.774,1.881c-5.219,3-8.906,8.227-12.034,13.234a17.271,17.271,0,0,0-3.05,9.12,46.333,46.333,0,0,0,1.568,9.752c.681,3.012,5.31,1.738,4.629-1.276a53.33,53.33,0,0,1-1.322-7.034,10.57,10.57,0,0,1,1.2-6.207,39.173,39.173,0,0,1,9.144-11.87,11.151,11.151,0,0,1,6.177-2.838,18.537,18.537,0,0,1,3.729.175,7.837,7.837,0,0,1,3.222.848,2.366,2.366,0,0,1,.7,3.192c.087-.133-.618.565-.411.419-.122.086-.843.436-.519.306-.941.377-1.969.579-2.935.888-4.765,1.525-8.516,4.149-10.715,8.758a2.465,2.465,0,0,0,.861,3.283,2.421,2.421,0,0,0,3.284-.861Z"/><path class="c" d="M48.262,142.6c1.015,1.151,1.331,4.279-.043,4.967a5.675,5.675,0,0,1-3.312.052c-1.633-.345-3.213-.9-4.829-1.311-5.69-1.446-11.445.977-15.633,4.85-2.273,2.1,1.128,5.49,3.394,3.394a15.045,15.045,0,0,1,7.74-3.92c3.059-.441,6.17,1.367,9.153,1.809,3.283.486,7.01-.2,8.458-3.561a9.334,9.334,0,0,0-1.534-9.674c-2.047-2.322-5.431,1.084-3.394,3.394Z"/><path class="c" d="M46.043,153.863a4.5,4.5,0,0,1,1.176,2.1,2.251,2.251,0,0,1,.066,1.016c.034-.4-.086.306-.095.339-.114.41.1-.008-.165.333.172-.22-.235.241-.074.106.194-.162-.585.333-.354.23a2.417,2.417,0,0,1-.879.19,11.4,11.4,0,0,1-3.429-.78,22.292,22.292,0,0,0-3.139-.888,9.892,9.892,0,0,0-3.827.16,16.67,16.67,0,0,0-5.981,2.7,2.462,2.462,0,0,0-.861,3.284,2.421,2.421,0,0,0,3.283.861,10.832,10.832,0,0,1,5.925-2.35c.159,0,.318,0,.476.019q-.38-.059.06.02c.249.065.5.121.747.191.629.178,1.253.378,1.874.58a15.176,15.176,0,0,0,4.738,1.007,6.293,6.293,0,0,0,6.326-4.744,8.711,8.711,0,0,0-2.473-7.766c-2.133-2.243-5.524,1.155-3.394,3.394Z"/><path class="c" d="M69.671,109.393a43.861,43.861,0,0,1,2.809,5.493q.592,1.44,1.079,2.922c.173.525.342,1.053.489,1.586.055.2.106.4.152.6q.042.182.075.366c-.017-.188-.018-.2,0-.025a5.344,5.344,0,0,1,.018.607c-.016.267-.02.317-.012.152s-.006-.117-.06.139c.27-.443-.253.372.016-.052l-.169.162c.144-.111.147-.122.008-.031a2.7,2.7,0,0,1-.314.168q.253-.117.017-.034c-.224.06-.445.1-.084.058a5.678,5.678,0,0,1-.612.016c-.577,0,.383.136-.171-.03-.2-.058-.394-.108-.588-.18.32.118.1.047-.081-.062-.061-.037-.585-.374-.362-.209.244.181-.187-.169-.231-.211s-.481-.546-.166-.133c-.126-.165-.215-.346-.33-.518-.257-.38.032.307-.08-.176-.029-.124-.152-.72-.082-.166a2.463,2.463,0,0,0-2.4-2.4c-1.164.052-2.57,1.066-2.4,2.4a7.273,7.273,0,0,0,4.856,6.1c2.633.95,6.085.081,7.426-2.53,1.382-2.691.129-5.867-.846-8.483a48.246,48.246,0,0,0-3.81-7.958,2.4,2.4,0,1,0-4.144,2.423Z"/><path class="c" d="M54.17,189.592a48.6,48.6,0,0,1-3.247,16.213,2.42,2.42,0,0,0,1.676,2.953,2.453,2.453,0,0,0,2.952-1.677,52.675,52.675,0,0,0,3.419-17.489,2.4,2.4,0,1,0-4.8,0Z"/><path class="e" d="M231.669,117.105a8.17,8.17,0,0,1-3.338,4.128,10.278,10.278,0,0,1-6.551.761c-7.438-1.936-9.731-11.091-16.84-13.287,3.725-2.79,8.247-5.481,12.958-5.608a16.978,16.978,0,0,1,11.533,4.6A9.237,9.237,0,0,1,231.669,117.105Z"/><path class="e" d="M230.5,78.883a10.068,10.068,0,0,1-.859,5.782,6.732,6.732,0,0,1-4.419,3.5c-6.828,1.878-13.329-4.248-20.014-2.729,1.69-3.941,4.5-8.168,8.2-10.438,3.046-1.867,7.939-3.106,11.37-2.111C228.046,73.83,229.827,75.394,230.5,78.883Z"/><path class="c" d="M229.355,116.467c-.769,2.414-3.359,3.443-5.906,3.352-2.329-.084-4.338-1.622-5.919-3.194-3.8-3.78-6.575-8.481-11.952-10.232l.573,4.386c4.6-3.419,9.845-6.416,15.708-4.707a13.016,13.016,0,0,1,6.151,3.622,7.1,7.1,0,0,1,1.345,6.773c-.779,2.992,3.85,4.268,4.629,1.276a12,12,0,0,0-1.468-10.037,16.768,16.768,0,0,0-8.3-5.91,17.289,17.289,0,0,0-10.339-.5,30.62,30.62,0,0,0-10.147,5.34,2.437,2.437,0,0,0,.573,4.387c2.54.827,4.392,2.833,6.124,4.825a38.765,38.765,0,0,0,6.267,6.342c5.723,4.141,14.936,2.946,17.291-4.445C234.924,114.793,230.291,113.53,229.355,116.467Z"/><path class="c" d="M228.188,79.521c.356,2.183-.522,4.89-2.558,5.927a9.075,9.075,0,0,1-6.267.249c-4.965-1.225-9.535-3.668-14.79-2.579l2.71,3.525c2.154-4.936,5.425-9.5,10.8-11.086a10.724,10.724,0,0,1,7.03-.044c1.923.756,2.647,1.932,3.079,4.008.63,3.022,5.258,1.743,4.629-1.276a9.292,9.292,0,0,0-4.986-6.756,14.788,14.788,0,0,0-9.9-.855c-7.1,1.629-11.964,7.1-14.793,13.586a2.436,2.436,0,0,0,2.71,3.526c2.575-.533,5.187.345,7.613,1.145a31.709,31.709,0,0,0,8.494,2.02,10.921,10.921,0,0,0,8.328-3c2.384-2.5,3.073-6.357,2.533-9.669a2.419,2.419,0,0,0-2.952-1.676A2.458,2.458,0,0,0,228.188,79.521Z"/></svg>