<?xml version="1.0" encoding="utf-8"?>
<!-- Uploaded to: SVG Repo, www.svgrepo.com, Generator: SVG Repo Mixer Tools -->
<svg width="800px" height="800px" viewBox="-38.82 0 429.982 429.982" xmlns="http://www.w3.org/2000/svg"><defs><style>.a{fill:#ffffff;}.b{fill:#85807f;}.c{fill:#3d8dcc;}.d{fill:#645d5c;}.e{fill:#211715;}.f{fill:#7a7473;}.g{fill:#d9d9d9;}.h{fill:#7abee6;}.i{fill:#febe69;}</style></defs><path class="a" d="M104.36,48.279a4.448,4.448,0,0,1,3.212-1.175,4.121,4.121,0,0,1,3.7,2.057c1.259,2.182,1.2,6.2.361,8.691a13.418,13.418,0,0,1-3.94,6.389,4.774,4.774,0,0,1-4.2.993,32.052,32.052,0,0,1-6.511,11.7A27.339,27.339,0,0,1,75.9,86.664a43.847,43.847,0,0,1-6.541-.873A25.472,25.472,0,0,1,54.69,77.119a32.045,32.045,0,0,1-6.359-11.867A4.791,4.791,0,0,1,44.2,64.241a13.418,13.418,0,0,1-3.94-6.389c-.844-2.488-.9-6.509.361-8.691a4.121,4.121,0,0,1,3.7-2.057,4.447,4.447,0,0,1,3.211,1.175S41.373,28.314,76.706,28.314,104.36,48.279,104.36,48.279Z"/><path class="b" d="M101.259,41.709a14.567,14.567,0,0,1,.5,2.692c.178,2.157.132,3.881.169,6.213.8-.77,2.431-2.335,2.431-2.335a4.448,4.448,0,0,1,3.212-1.175,4.336,4.336,0,0,1,3.058,1.209,38.381,38.381,0,0,0,.107-21.377,32.924,32.924,0,0,0-10.87-16.679C93.7,5.366,86.043,2.483,76.36,2.053c-8.433-.375-17.222,2.713-22.293,9.384-9.632,5.083-12.51,10.618-13.1,24.618a37.019,37.019,0,0,0,1.4,11.486,4.968,4.968,0,0,1,1.955-.437,4.222,4.222,0,0,1,4.407,3.377,16.554,16.554,0,0,1,2.83-7.438,21.27,21.27,0,0,1,13.108-8.835l1.072-3.192c4-1.349,24.971,5.52,32.729,7.892l2.035.679a13.623,13.623,0,0,1,.6,1.583C101.156,41.35,101.208,41.529,101.259,41.709Z"/><path class="a" d="M64.02,110.157c-6.135-18.369-11.74-36.817-9.763-33.55q.213.257.433.512a25.472,25.472,0,0,0,14.673,8.672,43.847,43.847,0,0,0,6.541.873,27.339,27.339,0,0,0,21.081-9.729,33.784,33.784,0,0,0,2.259-2.915c-.937,3.578-1.533,5.863-1.533,5.863-3.238,12.408-16.562,52.754-20.919,61.934H75.576C73.283,137,68.509,123.6,64.02,110.157Z"/><path class="c" d="M74.719,139.892c-1.442-3.4-3.453-8.794-5.662-15.047l.065-.58c1.513-10.654,3.113-21.783,3.1-22.373-.019-1.138-2.728-7.2-3.246-8.285,1.354-1.871,2.919-3.972,4.131-5.336l1.016-1.733q.879.1,1.778.126c.731-.02,1.48-.047,2.239-.1L79,87.913c1.163,1.309,2.595,3.211,3.887,4.987-.485,1.857-2.453,8.27-2.453,8.884,0,.358,1.576,12.5,2.765,22.7l.046.5c-2.661,7.554-5.03,13.845-6.448,16.833H75.576C75.32,141.278,75.033,140.633,74.719,139.892Z"/><path class="a" d="M305.4,101.43c-2.881,11.15-14.735,47.407-18.609,55.656h-1.081c-3.882-8.249-15.757-44.505-18.643-55.654Z"/><path class="a" d="M283.012,381.858a48.827,48.827,0,0,1-17.849.872q.063,2.084.11,4.138a13.867,13.867,0,0,1-2.647,7.605,56.153,56.153,0,0,1-6.571,7.944c-.128,1.231-.255,2.457-.255,2.457-.366,3.523,2.195,5.64,5.075,6.689a10.524,10.524,0,0,0,9.354-1.244,92.6,92.6,0,0,0,13.106-10.7s.5-.632.958-1.336h3.566l1.262,1.336a92.6,92.6,0,0,0,13.106,10.7,10.525,10.525,0,0,0,9.354,1.244c2.88-1.049,5.441-3.166,5.076-6.689,0,0-.127-1.226-.255-2.457a56.016,56.016,0,0,1-6.571-7.944,13.877,13.877,0,0,1-2.648-7.605q.051-2.185.121-4.409a48.882,48.882,0,0,1-19.612-.6Z"/><path class="d" d="M297.622,417.944c-2.744-1.913-5.169-3.593-5.947-4.079-4.989-3.116-4.432-7.357-4.322-10.263a53.215,53.215,0,0,1,.506-5.318l1.262,1.336a92.6,92.6,0,0,0,13.106,10.7,10.525,10.525,0,0,0,9.354,1.244c2.88-1.049,5.441-3.166,5.076-6.689l-.255-2.452.472.484c3.235,3.317,6.8,6.581,10.032,9.8,2.1,2.092,3.75,4.872,3.676,7.921a6.782,6.782,0,0,1-3.219,5.079,13.024,13.024,0,0,1-5.845,2.058,22.09,22.09,0,0,1-13.756-2.823C307.007,424.508,301.923,420.941,297.622,417.944Z"/><path class="d" d="M274.834,417.944c2.744-1.913,5.17-3.593,5.947-4.079,4.989-3.116,4.432-7.357,4.322-10.263a58.859,58.859,0,0,0-.383-6.025,9.951,9.951,0,0,0-1.385,2.043,92.6,92.6,0,0,1-13.106,10.7,10.524,10.524,0,0,1-9.354,1.244c-2.88-1.049-5.441-3.166-5.075-6.689l.254-2.452-.472.484c-3.235,3.317-6.8,6.581-10.032,9.8-2.1,2.092-3.75,4.872-3.676,7.921a6.787,6.787,0,0,0,3.219,5.079,13.023,13.023,0,0,0,5.846,2.058,22.087,22.087,0,0,0,13.755-2.823C265.449,424.508,270.533,420.941,274.834,417.944Z"/><path class="e" d="M298.632,416.217c-1.8-1.255-3.593-2.528-5.425-3.739a8.143,8.143,0,0,1-3.419-3.538,9.933,9.933,0,0,1-.486-4.191,55.558,55.558,0,0,1,.486-5.933l-3.343.882a76.221,76.221,0,0,0,6.955,6.478c3.119,2.574,6.5,5.627,10.3,7.119a12.277,12.277,0,0,0,11.487-1.359,8.263,8.263,0,0,0,3.169-4.147c.566-1.763.237-3.574.051-5.367l-3.414,1.414c3,3.071,6.126,6,9.194,9,2.146,2.1,5.7,5.681,4.059,9.035-1.7,3.479-6.543,4.155-9.964,4.064a19.479,19.479,0,0,1-10.017-3.04c-3.262-2.141-6.427-4.442-9.628-6.673-2.117-1.476-4.118,1.99-2.019,3.453,3.2,2.232,6.366,4.533,9.629,6.674a23.426,23.426,0,0,0,12.251,3.591c4.659.074,9.73-1.2,12.611-5.127,2.827-3.856,1.119-8.824-1.613-12.21a65.935,65.935,0,0,0-5.847-5.843c-1.968-1.89-3.922-3.793-5.827-5.747-1.124-1.152-3.6-.362-3.415,1.414a12.05,12.05,0,0,1,.184,3.994,4.405,4.405,0,0,1-2.232,2.6,8.66,8.66,0,0,1-9.276-.525,78.465,78.465,0,0,1-13.8-11.616c-.947-1-3.122-.631-3.343.882a65.622,65.622,0,0,0-.629,7,13.473,13.473,0,0,0,.736,5.526,11.5,11.5,0,0,0,4.689,5.356c2,1.3,3.934,2.68,5.886,4.039C298.73,421.145,300.731,417.679,298.632,416.217Z"/><path class="e" d="M308.489,322.927c-.759,12.668-1.585,25.333-2.258,38-.314,5.916-.594,11.834-.805,17.754-.1,2.791-.311,5.622-.243,8.415a15.939,15.939,0,0,0,1.66,6.326,34.194,34.194,0,0,0,5.335,7.351c2.3,2.641,4.8,5.1,7.312,7.53,1.851,1.79,4.683-1.035,2.828-2.829-4.091-3.955-8.266-8.01-11.346-12.834-2.542-3.982-1.725-8.819-1.57-13.286.412-11.833,1.094-23.656,1.809-35.474q.633-10.479,1.278-20.958c.154-2.571-3.847-2.562-4,0Z"/><path class="e" d="M275.843,419.67c1.972-1.373,3.938-2.759,5.947-4.078a11.325,11.325,0,0,0,4.832-5.861,15.373,15.373,0,0,0,.506-5.569c-.1-2.382-.145-4.751-.48-7.117-.25-1.768-2.87-1.847-3.655-.477a13.394,13.394,0,0,1-1.268,1.891c.488-.588-.026-.014-.112.066-.215.2-.417.417-.628.622-1.058,1.026-2.163,2-3.282,2.962a85.634,85.634,0,0,1-8.166,6.271,8.731,8.731,0,0,1-9.15.79,4.845,4.845,0,0,1-2.425-2.444c-.476-1.292-.044-2.99.092-4.3.184-1.772-2.283-2.574-3.414-1.414-3.423,3.509-7.067,6.792-10.5,10.285-3,3.05-5.521,7.833-3.608,12.1,1.973,4.4,7.022,6.139,11.488,6.481a23.683,23.683,0,0,0,13.722-3.226c3.491-2.1,6.764-4.651,10.105-6.98,2.1-1.461.1-4.93-2.018-3.453-2.978,2.075-5.94,4.174-8.943,6.212a20.054,20.054,0,0,1-8.976,3.384c-3.663.416-8.314.073-10.937-2.861-2.5-2.794-.181-6.62,2-8.83,3.439-3.491,7.081-6.776,10.5-10.286l-3.414-1.414c-.186,1.793-.515,3.6.051,5.367a8.424,8.424,0,0,0,3.431,4.332,12.406,12.406,0,0,0,11.893.9,28.292,28.292,0,0,0,5.384-3.5q2.472-1.854,4.846-3.837c2.509-2.1,5.139-4.212,6.788-7.09l-3.656-.477c.272,1.924.244,3.887.326,5.826a13.492,13.492,0,0,1-.267,4.46,7.258,7.258,0,0,1-3.344,3.914c-1.922,1.259-3.8,2.594-5.681,3.908C271.727,417.678,273.724,421.147,275.843,419.67Z"/><path class="e" d="M259.968,322.927c.73,12.2,1.522,24.387,2.181,36.587.317,5.863.6,11.729.824,17.6q.159,4.224.269,8.449a12.626,12.626,0,0,1-1.007,5.686,29.061,29.061,0,0,1-4.937,6.878c-2.256,2.574-4.7,4.978-7.16,7.356-1.854,1.793.977,4.619,2.829,2.829A88.34,88.34,0,0,0,264.75,394.95c2.956-4.311,2.512-9.308,2.349-14.251-.4-12.037-1.084-24.062-1.809-36.083q-.654-10.845-1.322-21.689c-.153-2.558-4.154-2.575-4,0Z"/><path class="e" d="M283.228,381.235v9.994a2,2,0,0,0,4,0v-9.994a2,2,0,0,0-4,0Z"/><path class="a" d="M251.627,206.644c-4.808,13.808-4.079,28.846-3.247,43.443q3.731,65.456,8.7,130.833a48.786,48.786,0,0,0,28.276.315,48.776,48.776,0,0,0,28.273-.315q4.966-65.373,8.7-130.833c.832-14.6,1.561-29.635-3.247-43.443"/><path class="f" d="M251.627,206.644c-4.808,13.808-4.079,28.846-3.247,43.443q3.731,65.456,8.7,130.833a48.786,48.786,0,0,0,28.276.315,48.776,48.776,0,0,0,28.273-.315q4.966-65.373,8.7-130.833c.832-14.6,1.561-29.635-3.247-43.443"/><path class="e" d="M249.7,206.112c-3.519,10.24-4.136,21.18-3.867,31.925.284,11.323,1.151,22.646,1.832,33.95q2.1,34.836,4.542,69.651,1.381,19.646,2.873,39.282a2.08,2.08,0,0,0,1.468,1.929,51.527,51.527,0,0,0,27,.938c2.506-.586,1.445-4.443-1.063-3.858a47.371,47.371,0,0,1-24.872-.937l1.469,1.928q-2.634-34.675-4.922-69.376c-1.506-22.861-3.134-45.741-4.152-68.63-.534-12.016-.4-24.242,3.551-35.738.839-2.44-3.024-3.488-3.857-1.064Z"/><path class="e" d="M317.149,207.176c3.516,10.23,4.014,21.064,3.7,31.791-.33,11.262-1.173,22.521-1.851,33.766q-2.085,34.588-4.515,69.154-1.373,19.521-2.855,39.033l1.469-1.928a47.371,47.371,0,0,1-24.872.937c-2.5-.584-3.573,3.271-1.063,3.858a51.527,51.527,0,0,0,27-.938,2.076,2.076,0,0,0,1.468-1.929q2.643-34.8,4.938-69.624c1.515-23.008,3.195-46.04,4.166-69.078.51-12.117.256-24.522-3.725-36.106-.831-2.42-4.7-1.38-3.857,1.064Z"/><path class="e" d="M283.037,243.272q0,11.792.032,23.582.031,16.181.075,32.362.045,17.048.092,34.1.04,14.667.079,29.335.022,8.778.039,17.554v1.033c0,2.574,4,2.578,4,0q0-7.821-.031-15.644-.036-14.127-.076-28.256-.046-16.929-.092-33.859-.042-16.482-.079-32.963-.027-12.508-.038-25.016,0-1.113,0-2.225c0-2.574-4-2.578-4,0Z"/><path class="g" d="M245.036,212.554c.435-3.906.939-7.572,1.541-13.139l.61-4.987-.2-.1a2.14,2.14,0,0,1-.22-.1c-5.18-2.54-10.52-5.63-15.33-8.56-3.57-2.16-7.14-6.62-8.16-10.25a22.1,22.1,0,0,1,0-12.57c3.64-13.17,12.487-37.675,13.448-39.8a36.137,36.137,0,0,1,6.092-9.787,25.388,25.388,0,0,1,5.242-4.046c5.425-3.226,14.463-7.1,18.914-8.143,2.711,10.707,14.806,47.675,18.731,56.015h1.081c3.925-8.356,16.037-45.453,18.716-56.077,4.349.949,13.639,4.915,19.173,8.2a25.441,25.441,0,0,1,5.242,4.046,36.163,36.163,0,0,1,6.091,9.787c.961,2.128,9.809,26.633,13.449,39.8a22.1,22.1,0,0,1,0,12.57c-1.02,3.63-4.59,8.09-8.16,10.25-4.81,2.93-10.15,6.02-15.33,8.56a2.14,2.14,0,0,1-.22.1l-.282.137c.269,2.728.5,5.108.5,5.108.72,7.01,1.577,12.466,2,18.146a1.1,1.1,0,0,1-1.01,1.18c-6.21.47-17.74,1.18-23.78.19-4.21-.69-7.1-1.48-9.77-3.73a17.031,17.031,0,0,1-5.64-8.2,88.754,88.754,0,0,1-1.86-8.95.627.627,0,0,0-1.24,0,80.79,80.79,0,0,1-1.75,8.59,15.779,15.779,0,0,1-5.97,8.34c-2.06,1.52-6.21,3.18-10.92,3.91a95.129,95.129,0,0,1-20.45.34,1.218,1.218,0,0,1-1.08-1.3C244.662,216.073,244.842,214.29,245.036,212.554Z"/><path class="h" d="M300.789,110.736c-4.4,2.872-9.857,3.734-14.3,3.734-5.857,0-10.364-1.5-12.857-3.351-2.237-1.66-3.1-5.829-2.452-12.147l.081-.791,2.758.763a44.674,44.674,0,0,0,13.085,1.383c4.329-.272,7.043-1.184,11.744-2a2.9,2.9,0,0,1,2.5.679,8.192,8.192,0,0,1,2.011,5.974c-.093,1.237.216,3.648-1.271,4.823Q301.458,110.3,300.789,110.736Z"/><path class="e" d="M299.78,109.009c-6.013,3.83-14.4,4.468-21.138,2.345a13.629,13.629,0,0,1-3.58-1.666,3.7,3.7,0,0,1-1.4-1.912c-1.111-3-.721-6.488-.4-9.595l-2.532,1.928c6.9,1.911,13.826,2.889,20.957,1.667,1.676-.287,3.333-.669,5-1.009a9.163,9.163,0,0,1,2.819-.488c.613.1.913.675,1.179,1.2a8.708,8.708,0,0,1,.654,4.252,6.253,6.253,0,0,1-.176,1.94c-.235.669-.8.951-1.38,1.34-2.13,1.424-.129,4.89,2.019,3.454,1.892-1.266,3.133-2.559,3.425-4.891a17.212,17.212,0,0,0-.147-5.52,8.055,8.055,0,0,0-2.972-5c-1.976-1.314-4.352-.583-6.484-.147a49.144,49.144,0,0,1-12.352,1.429,52.048,52.048,0,0,1-11.478-2.087,2.03,2.03,0,0,0-2.531,1.929c-.373,3.642-.669,7.668.734,11.145,1.242,3.08,3.9,4.6,6.925,5.665,7.79,2.749,17.873,1.935,24.88-2.528C303.963,111.084,301.959,107.62,299.78,109.009Z"/><path class="f" d="M95.485,224.987c-4.8-.79-8.08-1.69-11.129-4.25a19.351,19.351,0,0,1-6.42-9.35,100.167,100.167,0,0,1-2.13-10.2.714.714,0,0,0-1.41.01,90.744,90.744,0,0,1-1.991,9.78,17.94,17.94,0,0,1-6.8,9.5c-2.34,1.73-7.08,3.63-12.44,4.46a104.686,104.686,0,0,1-17.411.76c.149,3.853.423,10.935.423,10.935,1.9,46.248,3.046,88.537,4.666,132.5q.4,10.833.843,21.827a58.681,58.681,0,0,0,16.16,2.493c5.846-.057,15.115-.569,19.393-1.674,4.283,1.106,13.531,1.621,19.374,1.679a58.894,58.894,0,0,0,16.156-2.5c2.107-51.877,3.282-100.238,5.5-153.92l.45-12.007C111.41,225.515,101.256,225.926,95.485,224.987Z"/><path class="a" d="M99.506,420.974c-2.915-2.391-5.716-4.785-9.008-7.218-1.633-1.208-3.665-2.044-5.216-3.355a9.148,9.148,0,0,1-2.1-2.794c-1.831-3.488-1.669-9.994-.972-13.871,0,0,.072-.4.195-1.092,4.525.519,10.178.777,14.21.817a53.51,53.51,0,0,0,9.745-.953l1.794,2.818c1.3,1.46,3.729,4.377,5.136,5.735,4.2,4.048,5.707,5.969,8.76,9.354,2.346,2.6,4.4,7.82,3.811,11.482-.458,2.826-3.174,4.373-5.823,5.461a21.276,21.276,0,0,1-7.721.395,20.909,20.909,0,0,1-9.093-3.813C101.936,422.95,100.711,421.962,99.506,420.974Z"/><path class="a" d="M55.047,420.765c2.9-2.267,5.635-4.568,9.84-6.242,2.152-.857,4.405-1.178,6.054-2.805a8.684,8.684,0,0,0,2.046-4.091,33.463,33.463,0,0,0,.132-13.561s-.117-.57-.3-1.512a146.162,146.162,0,0,1-14.97.9,54.759,54.759,0,0,1-10.7-1.131l-3.1,4.929L30.368,412.528c-6.726,6.9-4.421,13.873,3.382,15.132a21.387,21.387,0,0,0,12.1-1.816,29.748,29.748,0,0,0,6.775-3.255C53.465,421.992,54.262,421.38,55.047,420.765Z"/><path class="e" d="M104.632,393.518c2.636,4.9,7.144,8.659,10.9,12.644,3.814,4.043,9.068,8.944,8.4,15.093-.26,2.4-3.212,4.007-5.369,4.419a17.92,17.92,0,0,1-8.434-.5c-3.644-1.08-6.413-3.321-9.306-5.695-3.17-2.6-6.272-5.359-9.651-7.691-1.589-1.1-3.536-1.819-4.907-3.2a8.528,8.528,0,0,1-2.093-4.185,26.5,26.5,0,0,1-.039-10.134,2.057,2.057,0,0,0-1.4-2.46,2.017,2.017,0,0,0-2.46,1.4c-1.172,6.759-1.238,15.559,5.146,19.773,1.749,1.154,3.566,2.11,5.239,3.387,1.778,1.358,3.5,2.783,5.227,4.208,3.245,2.683,6.445,5.735,10.351,7.422,6.016,2.6,14.4,3.244,19.451-1.758,2.733-2.707,2.6-6.654,1.583-10.11-1.053-3.589-3.058-6.259-5.494-9.01-2.494-2.816-5.15-5.435-7.749-8.149a36.229,36.229,0,0,1-5.948-7.469c-1.22-2.268-4.675-.25-3.454,2.019Z"/><path class="e" d="M71.19,394.6a31.708,31.708,0,0,1,.043,11.541,8.18,8.18,0,0,1-1.483,3.928c-1.029,1.251-2.792,1.619-4.25,2.113a31.033,31.033,0,0,0-8.58,4.62c-2.608,1.945-5.029,4.184-7.978,5.617-3.265,1.587-6.971,3.116-10.617,3.414-2.705.221-6,.064-8.207-1.739-5.041-4.12,1.823-10.2,4.538-13.239,2.921-3.267,5.787-6.582,8.711-9.846a40.356,40.356,0,0,0,5.311-7.672c1.229-2.263-2.224-4.285-3.454-2.019a38.63,38.63,0,0,1-5.155,7.387c-2.872,3.206-5.675,6.473-8.555,9.672-2.6,2.892-5.6,5.544-6.711,9.42a8.871,8.871,0,0,0,1.607,8.224c2.138,2.562,5.51,3.537,8.715,3.81,4.36.37,8.3-.9,12.294-2.454a30.7,30.7,0,0,0,5.665-2.688c1.472-.954,2.838-2.083,4.216-3.166a31.56,31.56,0,0,1,9.072-5.418c2.007-.69,4.056-1.265,5.686-2.7a9.781,9.781,0,0,0,2.823-5.088,35.871,35.871,0,0,0,.166-14.783c-.495-2.524-4.352-1.456-3.857,1.063Z"/><path class="e" d="M76.7,393.71c5.6,1.405,11.655,1.543,17.4,1.7a59.586,59.586,0,0,0,19.2-2.518,2.06,2.06,0,0,0,1.468-1.928c1.013-24.954,1.839-49.914,2.662-74.874.835-25.356,1.68-50.711,2.711-76.06.228-5.588.43-11.178.64-16.767.1-2.575-3.9-2.571-4,0-.634,16.889-1.324,33.775-1.924,50.666-.886,24.921-1.66,49.846-2.518,74.768q-.728,21.135-1.571,42.267l1.469-1.929A56.039,56.039,0,0,1,94.1,391.412c-5.394-.149-11.075-.24-16.336-1.559-2.5-.627-3.562,3.23-1.063,3.857Z"/><path class="e" d="M76.7,389.856c-5.263,1.316-10.945,1.405-16.341,1.552a56.018,56.018,0,0,1-18.139-2.373l1.468,1.928c-1.007-24.862-1.831-49.73-2.652-74.6-.833-25.253-1.674-50.507-2.695-75.753q-.351-8.673-.678-17.346c-.1-2.566-4.1-2.579-4,0,.656,16.988,1.345,33.976,1.948,50.966.88,24.828,1.653,49.66,2.508,74.489q.729,21.123,1.569,42.243a2.066,2.066,0,0,0,1.469,1.929,59.6,59.6,0,0,0,19.2,2.516c5.747-.157,11.8-.293,17.4-1.695,2.5-.625,1.439-4.483-1.063-3.857Z"/><path class="e" d="M75.231,245.385q.013,8.668.006,17.337,0,16.617,0,33.235,0,19.476,0,38.954,0,17.412,0,34.824,0,10.395,0,20.79v1.1c0,2.574,4,2.578,4,0q0-9.165,0-18.33l0-33.745q0-19.493,0-38.983,0-17.188,0-34.375,0-9.928,0-19.856c0-.316,0-.631,0-.947,0-2.574-4-2.578-4,0Z"/><path class="g" d="M29.044,219.414C29.822,211.276,31,201,31.791,191.608l.441-6.426c-1.053-.5-2.129-1.021-3.218-1.55a2.245,2.245,0,0,1-.247-.112c-5.8-2.843-11.777-6.3-17.162-9.583-4-2.418-8.021-8.334-8.847-12.473A31.479,31.479,0,0,1,2.716,148.3c.56-2.488,1.306-4.766,1.981-7.225,1.977-7.192,4.026-13.449,6.644-20.358C14,113.687,17.083,105.69,21.36,99.439,24.9,94.271,29.4,91.817,34.7,88.63a95.6,95.6,0,0,1,17.75-7.888L54.6,79.98c3.3,12.529,16.613,52.68,20.972,61.836h1.216c4.322-9.105,17.465-48.872,20.838-61.626,6.786,2.375,13.208,4.772,19.309,8.439,5.3,3.187,9.806,5.641,13.342,10.809,4.277,6.251,7.355,14.248,10.019,21.275,2.618,6.909,4.666,13.166,6.643,20.358.676,2.459,1.422,4.737,1.982,7.225a31.479,31.479,0,0,1-.042,13.167c-.826,4.139-4.851,10.055-8.848,12.473-5.384,3.28-11.363,6.74-17.162,9.583a2.232,2.232,0,0,1-.246.112q-1.3.63-2.565,1.236c.375,3.671.7,6.875.7,6.875.16,2.02-.334-3.456.7,7.1.98,9.42,1.72,17.24,2.27,24.57a1.261,1.261,0,0,1-1.15,1.35c-7.08.54-20.21,1.34-27.09.22-4.8-.79-8.08-1.69-11.13-4.25a19.358,19.358,0,0,1-6.42-9.35,100.45,100.45,0,0,1-2.13-10.2.714.714,0,0,0-1.41.01,91.06,91.06,0,0,1-1.99,9.78,17.936,17.936,0,0,1-6.8,9.5c-2.34,1.73-7.08,3.63-12.44,4.46a108.623,108.623,0,0,1-23.3.38,1.354,1.354,0,0,1-1.22-1.47C28.76,222.462,28.9,220.977,29.044,219.414Z"/><path class="e" d="M71.7,86.857c-2.594,2.931-4.717,6.239-7.057,9.367a2.005,2.005,0,0,0,.717,2.736,2.061,2.061,0,0,0,2.737-.717c1-1.334,1.942-2.707,2.922-4.053q.457-.629.921-1.253c.168-.225.336-.451.506-.675a4.077,4.077,0,0,0,.505-.663l-.159.206.153-.2.228-.29q.222-.281.447-.558c.3-.364.6-.723.908-1.074A2,2,0,1,0,71.7,86.857Z"/><path class="e" d="M87.678,96.154c-2.412-3.224-4.595-6.634-7.269-9.655a2.011,2.011,0,0,0-2.828,0,2.047,2.047,0,0,0,0,2.828q.479.542.932,1.1c.16.195.317.392.473.589.081.1.161.2.241.307.279.357-.1-.134.011.012q1.01,1.318,1.983,2.662c1.007,1.387,1.976,2.8,3,4.173a2.193,2.193,0,0,0,1.195.92,2.05,2.05,0,0,0,1.542-.2,2.021,2.021,0,0,0,.717-2.736Z"/><path class="e" d="M65.994,139.116c-4.165-7.22-8.294-14.462-12.32-21.76q-3-5.437-5.91-10.922-1.389-2.626-2.751-5.267-.207-.4-.412-.8-.233-.71-.218-.206c-.2.434.738-.6.83-.7.734-.765,1.486-1.511,2.245-2.251,1.846-1.8-.983-4.627-2.829-2.828-1.427,1.391-3.75,3.087-4.145,5.148-.369,1.93,1.275,4.047,2.119,5.668q3.169,6.089,6.479,12.1c4.384,8,8.9,15.927,13.458,23.829,1.286,2.23,4.744.218,3.454-2.018Z"/><path class="e" d="M118.76,191.743a3.824,3.824,0,0,1,.036.5l3.414-1.414h0l.515.883c.175.868.054.578.053.349l-3.414,1.414h0l-.514-.882c-.189-1.06-.032-.177,0,.093.09.863.175,1.728.26,2.592.361,3.641.738,7.28,1.1,10.921q.517,5.247.978,10.5.207,2.388.395,4.778.047.584.091,1.167l.029.388q-.069.956.611-.244c-.233-.191-1.7.125-2.025.147-5.854.409-11.735.717-17.6.595-5.28-.111-11.38-.459-15.9-3.464a17.925,17.925,0,0,1-5.788-6.48,29.537,29.537,0,0,1-2.349-7.988c-.326-1.612-.453-3.364-.9-4.942a2.752,2.752,0,0,0-3.958-1.726c-1.59.873-1.5,3.013-1.785,4.57-.315,1.754-.658,3.5-1.067,5.239a16.7,16.7,0,0,1-9.837,11.946c-5.833,2.479-12.255,2.913-18.513,3.05-3.543.078-7.1.025-10.631-.235-.353-.026-.707-.054-1.06-.085q-.342-.03-.683-.063a.73.73,0,0,1,.446.5,13.777,13.777,0,0,0,.215-2.468c.164-1.811.342-3.62.524-5.429.817-8.113,1.717-16.217,2.406-24.342.218-2.565-3.784-2.55-4,0-.619,7.293-1.405,14.571-2.153,21.852-.319,3.115-.635,6.231-.905,9.352-.139,1.612.044,3.106,1.545,4.039,1.266.787,3.317.634,4.763.721a103.4,103.4,0,0,0,18.552-.421c6.155-.743,12.626-2.465,17.271-6.79a20.147,20.147,0,0,0,5.356-8.5,37.991,37.991,0,0,0,1.038-4.237q.315-1.529.59-3.064a11.457,11.457,0,0,1,.486-2.777l-.718.718-1.3-.14-.515-.883a55.486,55.486,0,0,1,1.15,6c.3,1.427.6,2.866,1.009,4.266a21.135,21.135,0,0,0,5.37,8.921,19.984,19.984,0,0,0,8.757,5.213,44.268,44.268,0,0,0,9.522,1.524,158.134,158.134,0,0,0,20.055-.433c1.367-.093,3.183.06,4.4-.631,1.946-1.109,1.654-3.164,1.5-5.066q-.456-5.764-1.012-11.52c-.446-4.669-.936-9.333-1.4-14-.139-1.407.033-3.949-.962-5.114-1.155-1.352-3.419-.229-3.414,1.415a2.093,2.093,0,0,0,.6,1.6,2.03,2.03,0,0,0,3.415-1.414,3.824,3.824,0,0,0-.036-.5c-.2-2.549-4.2-2.571-4,0Z"/><path class="e" d="M80.634,98.581c-2.828,0-5.656-.059-8.484-.06a2,2,0,0,0,0,4c2.828,0,5.656.059,8.484.06a2,2,0,0,0,0-4Z"/><path class="e" d="M85.191,124.49c-.809-6.925-1.689-13.841-2.535-20.762a5.872,5.872,0,0,0-.218-1.847c-.067-.1-.171.58,0-.032.122-.431.218-.871.336-1.3.649-2.379,1.4-4.73,2.032-7.113.665-2.49-3.193-3.552-3.857-1.063-.635,2.382-1.383,4.734-2.032,7.113a9.485,9.485,0,0,0-.289,4.046c.852,6.988,1.743,13.971,2.56,20.962a2.061,2.061,0,0,0,2,2,2.012,2.012,0,0,0,2-2Z"/><path class="e" d="M95.782,79.352c-2.084,7.96-4.671,15.8-7.217,23.626-3.067,9.428-6.226,18.834-9.648,28.14-.728,1.979-1.469,3.953-2.247,5.913-.664,1.674-.872,2.223-1.605,3.776l1.727-.99H75.576l1.727.991c-.233-.493-.454-.991-.672-1.491-.063-.144-.124-.288-.185-.432.192.453-.029-.07-.056-.135-.159-.388-.319-.776-.476-1.165-.672-1.667-1.313-3.347-1.943-5.031-1.62-4.331-3.16-8.692-4.671-13.062q-4.923-14.234-9.409-28.616C58.7,87.048,57.523,83.213,56.5,79.338c-.654-2.488-4.514-1.433-3.857,1.063,2.109,8.024,4.729,15.929,7.305,23.811,3.107,9.507,6.3,18.991,9.777,28.371,1.276,3.444,2.547,6.921,4.12,10.243a1.971,1.971,0,0,0,1.727.99h1.216a1.972,1.972,0,0,0,1.727-.991c3.3-7,5.695-14.5,8.216-21.8q4.983-14.431,9.514-29.017c1.188-3.845,2.371-7.7,3.39-11.591.653-2.492-3.2-3.556-3.857-1.063Z"/><path class="e" d="M104.862,114.449q2.145-3.882,4.2-7.815c.977-1.875,2.031-3.737,2.909-5.66a3.627,3.627,0,0,0-.1-3.5,15.456,15.456,0,0,0-2.448-2.694c-1.814-1.832-4.642,1-2.828,2.829a17.609,17.609,0,0,1,1.885,1.983c0-.006-.083-.395-.077-.393s-.172.328-.22.423q-.366.714-.733,1.428-1.19,2.314-2.4,4.62-1.784,3.4-3.64,6.755c-1.246,2.255,2.207,4.275,3.454,2.019Z"/><path class="e" d="M89.828,141.134q4.13-7.156,8.16-14.369a2,2,0,0,0-3.454-2.019q-4.016,7.221-8.159,14.37a2,2,0,1,0,3.453,2.018Z"/><path class="e" d="M30.07,112.964c.877,11.776,1.672,23.565,1.89,35.375.048,2.571,4.048,2.579,4,0-.218-11.81-1.013-23.6-1.89-35.375-.19-2.552-4.191-2.572-4,0Z"/><path class="e" d="M120.366,151.31c.125-12.8.988-25.578,1.93-38.34.19-2.568-3.811-2.555-4,0-.942,12.762-1.805,25.54-1.93,38.34-.025,2.575,3.975,2.577,4,0Z"/><path class="i" d="M111.739,112.46H97.779a.983.983,0,0,0-.983.982v4.252a.98.98,0,0,0,.979.983h13.961a.983.983,0,0,0,.983-.983v-4.252A.98.98,0,0,0,111.739,112.46Z"/><path class="e" d="M111.739,110.46H99.98c-1.207,0-2.687-.231-3.76.441a3.1,3.1,0,0,0-1.424,2.606c-.037,1.056,0,2.12,0,3.176,0,.326-.014.656,0,.982a3.045,3.045,0,0,0,2.066,2.863,7.537,7.537,0,0,0,2.261.149H108.6c1.1,0,2.233.073,3.33-.02a3.021,3.021,0,0,0,2.785-2.963c.044-1.03,0-2.072,0-3.1,0-.382.016-.767,0-1.149a3.064,3.064,0,0,0-2.98-2.982,2.014,2.014,0,0,0-2,2,2.045,2.045,0,0,0,2,2c-.546-.055-1.078-.693-1.02-.953a1.785,1.785,0,0,0,0,.358v2.68a3.919,3.919,0,0,0,0,1.06c.094.275.237-.551.3-.63l.719-.3H98.1a1.255,1.255,0,0,0-.324,0l.722.3.3.719a1.123,1.123,0,0,0,0-.174,6.943,6.943,0,0,0,0-1.117c0-.894.073-1.822,0-2.714a.966.966,0,0,0,0-.228v-.011q0-.4-.3.712c-.664.664-.982.206-.4.3a21.977,21.977,0,0,0,3.276,0h10.368C114.313,114.46,114.317,110.46,111.739,110.46Z"/><path class="e" d="M71.051,124.8c1.016-7.16,2.093-14.315,3.015-21.488a8.442,8.442,0,0,0-.69-4.471c-.815-2.118-1.71-4.22-2.685-6.269-1.105-2.324-4.555-.3-3.454,2.018.864,1.817,1.664,3.677,2.375,5.559.163.43.324.863.46,1.3.058.188.094.392.162.576.138.374-.023-.007-.009-.1-.075.522-.116,1.052-.184,1.576-.847,6.52-1.9,13.536-2.847,20.232a2.067,2.067,0,0,0,1.4,2.46,2.014,2.014,0,0,0,2.46-1.4Z"/><path class="e" d="M51.921,78.813A114.276,114.276,0,0,0,36.865,85.12a72,72,0,0,0-12.078,7.668c-3.768,3.082-6.383,7.192-8.6,11.473a136.269,136.269,0,0,0-6.111,14.178c-1.928,5.051-3.743,10.14-5.332,15.309-.832,2.707-1.578,5.438-2.36,8.159A60.365,60.365,0,0,0,.361,150.15c-.629,4.482-.541,9.707,1.112,13.986A24.644,24.644,0,0,0,9.76,175.109a86.756,86.756,0,0,0,7.615,4.574c2.734,1.569,5.5,3.09,8.306,4.524,5.248,2.681,10.632,5.107,15.981,7.578a2.059,2.059,0,0,0,2.737-.717,2.017,2.017,0,0,0-.718-2.737,302.048,302.048,0,0,1-27.53-13.995,30.7,30.7,0,0,1-5.615-3.743,22.329,22.329,0,0,1-3.869-4.887c-2.171-3.658-2.743-7.837-2.618-12.046.154-5.208,2.049-10.315,3.486-15.28q2.183-7.538,4.9-14.9c1.7-4.606,3.436-9.216,5.489-13.677,1.937-4.21,4.117-8.648,7.349-12.028,3.312-3.461,7.687-5.879,11.819-8.22A99.387,99.387,0,0,1,52.984,82.67c2.409-.855,1.371-4.721-1.063-3.857Z"/><path class="e" d="M326.066,164.32c.13-8.526.548-17.041.55-25.57,0-2.573-4-2.578-4,0,0,8.529-.42,17.044-.55,25.57-.039,2.575,3.961,2.576,4,0Z"/><path class="e" d="M245.838,139.2c.026,8.465.96,16.879,1.24,25.33.085,2.568,4.086,2.579,4,0-.28-8.451-1.214-16.865-1.24-25.33-.008-2.573-4.008-2.578-4,0Z"/><path class="e" d="M303.466,100.9c-1.857,7.161-4.162,14.219-6.43,21.259-2.731,8.477-5.542,16.935-8.59,25.3-.643,1.766-1.3,3.528-1.985,5.277q-.395,1-.808,2c-.208.5.165-.377-.042.1-.059.134-.116.269-.175.4q-.185.418-.377.834l1.727-.991h-1.081l1.727.991c-.213-.455-.415-.915-.613-1.377.2.457-.119-.287-.175-.424q-.241-.587-.475-1.177c-.589-1.484-1.152-2.978-1.7-4.475-1.414-3.831-2.76-7.686-4.08-11.549q-4.394-12.85-8.394-25.834c-1.052-3.431-2.1-6.868-3-10.341-.646-2.49-4.506-1.434-3.857,1.063,1.887,7.262,4.231,14.419,6.537,21.556,2.733,8.457,5.545,16.895,8.6,25.243,1.148,3.138,2.294,6.3,3.711,9.333a1.97,1.97,0,0,0,1.727.991h1.081a1.969,1.969,0,0,0,1.727-.991c2.951-6.319,5.088-13.08,7.339-19.669q4.4-12.865,8.4-25.865c1.077-3.516,2.149-7.039,3.072-10.6.647-2.493-3.21-3.557-3.857-1.063Z"/><path class="e" d="M277.058,154.685q-5.034-8.726-9.944-17.521-2.407-4.339-4.758-8.711-1.209-2.252-2.4-4.514c-.682-1.3-1.907-2.931-2.121-4.376v1.064c.083-.456.791-.987,1.122-1.326.522-.535,1.054-1.061,1.59-1.583,1.846-1.8-.984-4.627-2.829-2.828-1.243,1.212-3.151,2.625-3.679,4.34-.575,1.869,1,3.931,1.826,5.508q2.8,5.385,5.729,10.705c3.91,7.138,7.939,14.211,12.006,21.261,1.286,2.229,4.744.217,3.454-2.019Z"/><path class="e" d="M312.018,132.614q2.187-4,4.291-8.033.5-.966,1-1.934a12.9,12.9,0,0,0,1.13-2.418c.572-2.129-1.271-3.639-2.6-4.983-1.814-1.832-4.643,1-2.829,2.828.516.521,1.029,1.045,1.525,1.585s-.236-.409.041-.427a7.764,7.764,0,0,0-.421.814q-.9,1.763-1.816,3.518c-1.23,2.358-2.493,4.7-3.77,7.031a2,2,0,0,0,3.454,2.019Z"/><path class="e" d="M298.461,156.7c2.115-3.666,4.209-7.345,6.242-11.057a2,2,0,1,0-3.454-2.018c-2.033,3.712-4.127,7.39-6.242,11.056a2,2,0,0,0,3.454,2.019Z"/><path class="e" d="M323.966,199.575c.56,5.4,1.344,10.768,1.834,16.17a7.306,7.306,0,0,0,.148,1.778l.015.2q1.35-.943.445-.78a3.136,3.136,0,0,0-.57.042q-1.581.114-3.163.213c-2.242.138-4.485.25-6.73.32a64.253,64.253,0,0,1-12.671-.426,21.26,21.26,0,0,1-6.579-1.9,15.019,15.019,0,0,1-5.019-4.55,15.806,15.806,0,0,1-2.373-5.493c-.261-1.084-.492-2.175-.712-3.269-.275-1.371-.376-2.86-.759-4.2a2.642,2.642,0,0,0-2.819-1.965,2.679,2.679,0,0,0-2.353,2.437c-.494,2.5-.848,5.033-1.5,7.5a14.064,14.064,0,0,1-7.762,9.21c-4.368,2.032-9.254,2.569-14.01,2.8q-4.175.2-8.359.07c-1.367-.042-2.733-.11-4.1-.219a4.3,4.3,0,0,0-.689-.059q-.669-.179-.042.3.41.7.329-.065a11.042,11.042,0,0,0,.173-1.911c.524-5.466,1.284-10.907,1.877-16.366a2.012,2.012,0,0,0-2-2,2.047,2.047,0,0,0-2,2c-.554,5.095-1.252,10.174-1.769,15.272-.24,2.366-1,5.771,2.079,6.594a17.961,17.961,0,0,0,3.479.333c1.279.077,2.56.124,3.841.148a76.922,76.922,0,0,0,15.282-.941c4.982-.914,10.02-2.784,13.487-6.623a18.138,18.138,0,0,0,3.919-7.044c.351-1.193.594-2.423.842-3.641a40.357,40.357,0,0,1,.935-5l-.515.883-.346.215h-1.063l-.342-.215-.515-.883a30.291,30.291,0,0,1,.8,4.225c.259,1.3.534,2.61.857,3.9a18.323,18.323,0,0,0,2.893,6.333,19.566,19.566,0,0,0,5.939,5.513,22.384,22.384,0,0,0,7.2,2.356,68.79,68.79,0,0,0,14.363.679c2.468-.077,4.935-.2,7.4-.362,2.15-.138,5.286.229,6.342-2.1.593-1.309.137-3.107,0-4.491-.152-1.534-.329-3.066-.511-4.6-.414-3.462-.85-6.921-1.21-10.39a2.057,2.057,0,0,0-2-2,2.014,2.014,0,0,0-2,2Z"/><path class="a" d="M305.867,186.785c-1.479-2.8-2.881-5.435-3.894-7.345l-2.356.086c-3.458.125-7.845.414-11.041.875-2.851.41-3.861,1.583-5.486,3.013a3.955,3.955,0,0,0-1.1,1.984l-.562-.639c-1.971-2.012-6.769-3.37-10.354-4.817l-.473-.194c-2.042,3.847-5.48,10.293-8.053,15.353.256.206.42.342.42.342,2.58,2.144,5.214,4.186,7.568,6.544-1.065,1.253-1.41,2.649-.805,3.55.673,1,1.867,2.257,3.382,1.99-.042.069-1.271,2.374.639,3.673,1.12.763,2.934.72,4.827.434a3.194,3.194,0,0,0,3.286,2.756c1.321-.108,2.25-.968,3.49-1.406,2-.7,10.588-7.038,14.949-10.522,2.843-2.271,6.2-4.118,7.984-5.467l2.072-1.564C309.006,192.767,307.4,189.684,305.867,186.785Z"/><path class="e" d="M270.54,181.87c1.863.749,3.769,1.385,5.632,2.137l.3.122c.357.144-.186-.084.036.014s.429.187.642.284c.4.186.805.381,1.2.593a11.729,11.729,0,0,1,1.1.668c.07.047.136.1.207.146.207.134-.329-.283-.067-.05.143.128.288.253.424.389a2,2,0,1,0,2.829-2.828,15.777,15.777,0,0,0-5.306-3.074c-1.956-.806-3.968-1.469-5.931-2.258a2.006,2.006,0,0,0-2.46,1.4,2.058,2.058,0,0,0,1.4,2.46Z"/><path class="e" d="M270.611,199.291c-2-1.841-4.14-3.526-6.232-5.262a2.144,2.144,0,0,0-1.414-.586,2,2,0,0,0-1.414,3.414c2.091,1.737,4.229,3.421,6.231,5.262a2,2,0,1,0,2.829-2.828Z"/><path class="e" d="M284.292,187.425c-1.057-1.014-.114-2.3.734-3.063a6.7,6.7,0,0,1,3.337-1.9,40.109,40.109,0,0,1,5.331-.6c1.972-.154,3.947-.262,5.923-.335,2.567-.1,2.579-4.1,0-4-2.379.088-4.758.225-7.13.435s-4.937.309-7.141,1.312a11.414,11.414,0,0,0-4.516,3.767,5.719,5.719,0,0,0,.634,7.214c1.859,1.781,4.691-1.043,2.828-2.829Z"/><path class="e" d="M286.293,185.1c-4.467,3.751-8.812,7.66-13.116,11.6-1.623,1.484-3.627,2.986-4.814,4.866a4.679,4.679,0,0,0-.183,5.241,5.554,5.554,0,0,0,4.93,2.726l-1.727-3.01a4.979,4.979,0,0,0,.112,5.227c1.739,2.439,5,2.188,7.613,1.818l-2.532-1.928a5.334,5.334,0,0,0,2.714,4.166c1.9,1.056,3.882.492,5.688-.436a55.524,55.524,0,0,0,6.639-3.928c2.867-2.008,5.671-4.106,8.435-6.252,2.983-2.316,6.216-4.221,9.242-6.462a2.061,2.061,0,0,0,.718-2.736,2.016,2.016,0,0,0-2.737-.718c-2.8,2.077-5.849,3.77-8.593,5.943q-3.405,2.7-6.93,5.236a70.54,70.54,0,0,1-6.311,4.263c-.154.088-1.139.59-.524.309-.766.351-1.526.707-2.289,1.065-.525.246-1.056.487-1.578.109-.251-.182-.493-.758-.474-.559a2.046,2.046,0,0,0-2.531-1.929c-.751.106-2.689.48-3.283-.233-.143-.172-.091-.313-.057-.509a3.953,3.953,0,0,1,.177-.563c-.025.074-.169.363-.045.136.664-1.219-.142-3.163-1.727-3.009-.912.088-1.94-.7-1.488-1.621a7.089,7.089,0,0,1,1.615-1.814c1.556-1.481,3.15-2.924,4.744-4.365,3.668-3.315,7.353-6.621,11.14-9.8,1.974-1.657-.868-4.474-2.828-2.828Z"/><path class="e" d="M288.247,191.241c-1.879,1.365-3.6,2.958-5.348,4.487-1.894,1.66-3.767,3.347-5.7,4.955a2.007,2.007,0,0,0,0,2.828,2.055,2.055,0,0,0,2.829,0c1.9-1.578,3.74-3.232,5.6-4.861.967-.847,1.934-1.694,2.913-2.528.391-.334.784-.666,1.183-.992.155-.127.312-.252.469-.378.356-.285-.359.264-.117.09.066-.048.131-.1.2-.147a2.047,2.047,0,0,0,.717-2.736,2.022,2.022,0,0,0-2.736-.718Z"/><path class="i" d="M318.273,130.489h-13.96a.983.983,0,0,0-.983.982v4.252a.98.98,0,0,0,.979.983H318.27a.982.982,0,0,0,.982-.983v-4.252A.979.979,0,0,0,318.273,130.489Z"/><path class="e" d="M318.273,128.489H306.514c-1.207,0-2.687-.231-3.76.441a3.1,3.1,0,0,0-1.424,2.606c-.037,1.056,0,2.12,0,3.176,0,.326-.014.656,0,.982a3.045,3.045,0,0,0,2.066,2.863,7.537,7.537,0,0,0,2.261.149h9.481c1.1,0,2.233.073,3.33-.02a3.019,3.019,0,0,0,2.784-2.963c.045-1.03,0-2.072,0-3.1,0-.382.017-.767,0-1.149a3.062,3.062,0,0,0-2.979-2.982,2.014,2.014,0,0,0-2,2,2.045,2.045,0,0,0,2,2c-.546-.055-1.078-.693-1.021-.953a1.862,1.862,0,0,0,0,.358v2.68a3.96,3.96,0,0,0,0,1.06c.095.275.238-.551.3-.63l.719-.3H304.633a1.255,1.255,0,0,0-.324,0l.722.3.3.719a1.123,1.123,0,0,0,0-.174,6.943,6.943,0,0,0,0-1.117c0-.894.073-1.822,0-2.714a.966.966,0,0,0,0-.228v-.011q0-.4-.3.712c-.664.664-.982.206-.4.3a21.991,21.991,0,0,0,3.277,0h10.368C320.847,132.489,320.851,128.489,318.273,128.489Z"/><path class="a" d="M97.947,173.45c-1.245-2.664-2.389-5.108-3.214-6.906a140.946,140.946,0,0,0-14.959,1.073c-3.29.474-4.457,1.828-6.332,3.479a4.5,4.5,0,0,0-1.256,2.231l-.665-.679c-2.618-2.67-9.551-4.343-13.7-6.326-2.779,5.409-6.07,11.984-8.827,17.636,3.187,2.71,6.507,5.211,9.477,8.1-1.314,1.418-1.745,3.657-1.063,4.673.777,1.156,2.769,2.5,4.517,2.195a3.319,3.319,0,0,0,1.2,4.013c1.293.88,2.93,1.058,5.115.727a3.142,3.142,0,0,0,3.594,2.69,12.052,12.052,0,0,0,4.286-.889c4.172-1.945,9.907-6.27,17.2-12.387,3.952-3.315,8.985-5.655,10.309-7.3C102.027,182.2,99.868,177.564,97.947,173.45Z"/><path class="e" d="M270.655,98.2a5.22,5.22,0,0,0-1.9,2.009,8.64,8.64,0,0,0-.851,3.243,10.319,10.319,0,0,0,1.375,5.667,2.019,2.019,0,0,0,2.737.717,2.042,2.042,0,0,0,.717-2.736c-.093-.173-.184-.347-.27-.523-.044-.089-.086-.178-.128-.267q-.135-.306.026.073a2.114,2.114,0,0,0-.154-.4c-.062-.174-.117-.351-.163-.53s-.076-.354-.109-.533c-.077-.42.024.393-.006-.066a10.748,10.748,0,0,1-.04-1.106,1.437,1.437,0,0,1,.034-.51q-.065.435-.011.1c.017-.1.035-.192.056-.288a3.233,3.233,0,0,1,.31-1q-.177.411-.041.126c.036-.071.074-.141.116-.209l.061-.1c.12-.172.082-.126-.113.136a2.291,2.291,0,0,0,.308-.314q.237-.2-.136.1c.065-.046.131-.091.2-.134a2,2,0,1,0-2.019-3.454Z"/><path class="e" d="M59.038,169.016c2.15.864,4.351,1.6,6.5,2.466l.345.141c.343.139-.086-.042.116.048.247.109.5.215.741.328.467.214.93.439,1.382.684a13.689,13.689,0,0,1,1.271.771c.08.055.156.117.238.169.209.132-.288-.253-.015-.01.166.148.333.292.49.449a2,2,0,1,0,2.829-2.828,17.826,17.826,0,0,0-5.988-3.468c-2.258-.931-4.58-1.7-6.846-2.607a2.006,2.006,0,0,0-2.46,1.4,2.058,2.058,0,0,0,1.4,2.46Z"/><path class="e" d="M58.819,189.64c-2.311-2.126-4.778-4.07-7.192-6.074a2.147,2.147,0,0,0-1.415-.586,2,2,0,0,0-1.414,3.414c2.414,2,4.882,3.949,7.193,6.074a2,2,0,0,0,2.828-2.828Z"/><path class="e" d="M74.611,175.944a1.835,1.835,0,0,1-.513-2.03,3.679,3.679,0,0,1,1.361-1.942,8.4,8.4,0,0,1,3.987-2.271,46.711,46.711,0,0,1,6.236-.707c2.276-.178,4.556-.3,6.837-.387,2.566-.095,2.579-4.095,0-4-2.747.1-5.492.26-8.23.5-2.692.239-5.595.342-8.088,1.472a12.869,12.869,0,0,0-5.1,4.238,6.292,6.292,0,0,0,.683,7.952c1.859,1.782,4.691-1.043,2.828-2.828Z"/><path class="e" d="M77.357,173.257c-4.114,3.453-8.136,7.017-12.2,10.529-1.908,1.649-3.817,3.3-5.76,4.907-1.975,1.636-3.818,3.116-4.221,5.843-.54,3.649,3.18,6.8,6.746,6.392l-1.727-3.01a5.359,5.359,0,0,0,.716,5.71c1.965,2.3,5.1,2.349,7.852,1.969l-2.531-1.929a5.027,5.027,0,0,0,2.631,4.064c1.831.99,4.174.656,6.117.219,3.095-.7,6.008-2.852,8.55-4.651,3.478-2.461,6.8-5.146,10.073-7.869,3.136-2.608,6.668-4.517,9.93-6.932a2.062,2.062,0,0,0,.717-2.737,2.014,2.014,0,0,0-2.736-.717c-2.783,2.061-5.862,3.673-8.6,5.806-3.044,2.37-5.933,4.929-9.018,7.252a61.691,61.691,0,0,1-7.212,4.832,10.25,10.25,0,0,1-3.957,1.344c-.635.068-1.527.279-2.1-.145-.261-.194-.409-.609-.4-.466A2.045,2.045,0,0,0,67.7,201.74c-1.124.155-2.894.286-3.739-.688a1.189,1.189,0,0,1-.287-.886c0-.018.321-.973-.025-.229.563-1.209-.07-3.2-1.727-3.009a2.921,2.921,0,0,1-2.25-.679c-.488-.385-.6-.45-.586-.886a3.689,3.689,0,0,1,1.717-2.685c1.939-1.548,3.82-3.169,5.7-4.787,4.567-3.928,9.068-7.933,13.681-11.806,1.974-1.657-.868-4.473-2.828-2.828Z"/><path class="e" d="M79.145,180.709c-3.979,3.642-8.155,7.077-12.29,10.538a2.007,2.007,0,0,0,0,2.828,2.053,2.053,0,0,0,2.828,0c4.136-3.46,8.312-6.9,12.291-10.537a2.015,2.015,0,0,0,0-2.829,2.046,2.046,0,0,0-2.829,0Z"/><path class="e" d="M28.342,185.247c3.065,1.394,6.08,2.907,9.133,4.328q1.954.911,3.911,1.813c1.478.683,3.041,1.235,4.362-.15a9.316,9.316,0,0,0,1.335-2.421q.729-1.487,1.48-2.961,1.612-3.181,3.272-6.338c2.056-3.931,4.142-7.846,6.22-11.764,1.052-1.984,2.256-4.247-.177-5.854-1.475-.975-3.206-1.708-4.767-2.54l-4.651-2.485c-6.556-3.507-13.1-7.041-19.656-10.548-2.269-1.213-4.292,2.238-2.018,3.454,4.77,2.551,9.53,5.123,14.3,7.679q3.623,1.941,7.247,3.879l3.835,2.047a29.048,29.048,0,0,1,3.945,2.159l-.718-.718c-.4-.576.3-.985-.083-.432a4.723,4.723,0,0,0-.263.5l-.606,1.144-1.48,2.786q-1.816,3.42-3.621,6.847-1.884,3.585-3.733,7.188-.786,1.539-1.556,3.087c-.358.721-.755,2.159-1.363,2.652l.882-.514c.233-.094.533.2.01-.068-.287-.149-.591-.273-.884-.409l-1.471-.68q-1.769-.82-3.536-1.647c-2.448-1.147-4.867-2.367-7.328-3.486a2.062,2.062,0,0,0-2.737.718,2.016,2.016,0,0,0,.718,2.736Z"/><path class="e" d="M98.657,82.67a106.788,106.788,0,0,1,14.1,5.9,66.413,66.413,0,0,1,11.412,7.16c3.514,2.909,5.865,6.722,7.931,10.738a131.285,131.285,0,0,1,5.757,13.421c1.821,4.778,3.534,9.594,5.048,14.479.79,2.551,1.515,5.12,2.237,7.691s1.563,5.107,2.053,7.728a25.266,25.266,0,0,1-.884,13.281,19.738,19.738,0,0,1-7.671,9.373c-5,3.051-10.091,5.983-15.323,8.625-2.626,1.326-5.3,2.571-7.959,3.823q-1.893.889-3.791,1.769-.928.432-1.859.861l-.713.33-.35.162q-.7.284.009.068l.883.514c-.584-.473-.958-1.836-1.3-2.527q-.8-1.611-1.619-3.212-1.842-3.608-3.733-7.188-1.8-3.429-3.621-6.847-.711-1.341-1.424-2.681-.308-.581-.614-1.16c-.089-.167-.165-.349-.269-.507-.438-.67.236-.172-.125.352l-.717.718a27.414,27.414,0,0,1,3.73-2.044l3.839-2.049q3.73-1.994,7.457-3.992c4.768-2.556,9.528-5.128,14.3-7.679,2.271-1.214.253-4.669-2.019-3.454-7.257,3.881-14.5,7.792-21.756,11.671q-2.894,1.545-5.788,3.087c-1.763.939-3.639,2.077-2.852,4.405a42.459,42.459,0,0,0,3.06,5.87c2.769,5.214,5.541,10.429,8.188,15.707.532,1.061,1.023,2.147,1.57,3.2.967,1.86,2.67,2.181,4.477,1.361,3.576-1.623,7.13-3.3,10.673-4.995,3.8-1.816,7.541-3.721,11.214-5.781,3.465-1.944,7.22-3.809,10.357-6.262a24.755,24.755,0,0,0,6.51-8.021,24.345,24.345,0,0,0,2.446-9.681,34.985,34.985,0,0,0-1.423-12.077c-1.139-4.064-2.277-8.133-3.539-12.16a229.541,229.541,0,0,0-8.406-22.675c-2.979-6.867-6.5-13.585-12.574-18.188a84.128,84.128,0,0,0-20.095-10.842c-1.907-.747-3.832-1.448-5.762-2.133-2.43-.863-3.476,3-1.063,3.857Z"/><path class="e" d="M326.347,160.823c-7.442,3.98-14.868,7.991-22.314,11.963-1.668.89-4.528,1.74-5.031,3.794-.32,1.306.515,2.494,1.1,3.6q1.9,3.584,3.8,7.167c1.493,2.828,2.979,5.661,4.43,8.511q.915,1.794,1.8,3.6c.778,1.6,1.888,3.18,3.946,2.544a42.961,42.961,0,0,0,5.184-2.383q2.887-1.346,5.762-2.722,5.91-2.838,11.583-6.112c3.432-1.979,7.05-3.853,9.812-6.75a20.292,20.292,0,0,0,5.248-9.151,24.6,24.6,0,0,0,.2-10.509,82.36,82.36,0,0,0-2.424-8.616c-3.278-10.562-6.865-21.065-10.784-31.408a39.809,39.809,0,0,0-7.429-12.613,27.851,27.851,0,0,0-7.559-5.386,101.686,101.686,0,0,0-10.441-4.851c-1.547-.623-3.11-1.207-4.7-1.721-2.454-.8-3.505,3.066-1.063,3.857a85.679,85.679,0,0,1,13.348,5.724c3.6,1.89,6.813,3.985,9.266,7.282a35.514,35.514,0,0,1,3.326,5.568c.3.611.564,1.24.869,1.849.158.314-.219-.573-.058-.138.114.306.242.608.359.913.958,2.489,1.858,5,2.755,7.513,2.772,7.755,5.451,15.549,7.918,23.408,1.239,3.95,2.847,8.112,3.078,12.269a17.01,17.01,0,0,1-3.541,11.818,23.271,23.271,0,0,1-6.625,5.384c-2.86,1.711-5.75,3.376-8.688,4.953-2.821,1.514-5.7,2.9-8.594,4.274q-2.2,1.044-4.413,2.071a21.63,21.63,0,0,1-3.78,1.7h1.064l-.115-.036.717.717a16.951,16.951,0,0,1-1.3-2.538q-.7-1.409-1.415-2.808-1.647-3.225-3.337-6.427-1.578-3-3.172-6-.682-1.284-1.364-2.569l-.512-.964a4.532,4.532,0,0,0-.267-.507c-.417-.584.383-.151-.1.552l-.718.717a23.917,23.917,0,0,1,3.241-1.777l3.593-1.917q3.384-1.809,6.767-3.623,6.3-3.378,12.594-6.764c2.271-1.214.253-4.668-2.019-3.454Z"/><path class="e" d="M50.158,186.116q4.509-9.276,9.217-18.454a2.046,2.046,0,0,0-.717-2.736,2.022,2.022,0,0,0-2.737.717Q51.214,174.82,46.7,184.1a2.054,2.054,0,0,0,.718,2.737,2.018,2.018,0,0,0,2.736-.718Z"/><path class="e" d="M93.664,168.993c2.745,5.9,5.549,11.778,8.191,17.728a2.015,2.015,0,0,0,2.737.717,2.049,2.049,0,0,0,.717-2.736c-2.642-5.95-5.446-11.826-8.191-17.728a2.018,2.018,0,0,0-2.737-.718,2.046,2.046,0,0,0-.717,2.737Z"/><path class="e" d="M244.368,164.277q6.3,3.371,12.594,6.764,3.279,1.756,6.559,3.511,1.792.959,3.588,1.915a25.462,25.462,0,0,1,3.454,1.891l-.718-.717c-.456-.663.319-1.15-.1-.552a3.9,3.9,0,0,0-.222.419q-.278.526-.558,1.052-.647,1.221-1.3,2.442-1.624,3.058-3.239,6.124-1.648,3.135-3.265,6.285-.752,1.471-1.488,2.95a16.81,16.81,0,0,1-1.3,2.538l.718-.717-.115.036h1.063a18.35,18.35,0,0,1-3.212-1.432q-1.87-.87-3.739-1.748c-2.606-1.228-5.217-2.453-7.777-3.776-2.7-1.394-5.349-2.874-7.973-4.4a43.288,43.288,0,0,1-6.759-4.281,17.144,17.144,0,0,1-6.094-11.128c-.508-4.506.862-8.745,2.156-13,2.421-7.961,5.117-15.84,7.89-23.684,1.018-2.878,2.046-5.752,3.115-8.611.28-.75.584-1.492.862-2.242.154-.415-.248.449-.058.138.313-.513.513-1.118.776-1.659.551-1.132,1.14-2.248,1.791-3.327a20.751,20.751,0,0,1,9.257-8.826,83.652,83.652,0,0,1,14.985-6.611c2.439-.79,1.4-4.654-1.063-3.857a90.739,90.739,0,0,0-10.182,4.1,59.944,59.944,0,0,0-8.637,4.689c-5.044,3.446-8.444,8.69-10.726,14.294-3.793,9.312-6.9,18.983-9.984,28.545-.9,2.793-1.781,5.593-2.606,8.41a31.578,31.578,0,0,0-1.671,10.443,21.349,21.349,0,0,0,10.226,17.259,227.619,227.619,0,0,0,22.853,12.1,34.563,34.563,0,0,0,5.345,2.421c2,.531,3.037-1.042,3.786-2.582,1.288-2.648,2.644-5.264,4.006-7.875q2.136-4.1,4.309-8.173.856-1.615,1.715-3.231c.616-1.161,1.446-2.35,1.061-3.724-.549-1.959-3.377-2.8-4.993-3.666q-2.928-1.561-5.856-3.129-5.678-3.039-11.35-6.088c-1.7-.914-3.4-1.834-5.108-2.746-2.269-1.213-4.292,2.239-2.019,3.454Z"/><path class="h" d="M265.581,111.668a20.081,20.081,0,0,0,4.895-4.656,6.585,6.585,0,0,1-.442-1.415,7.293,7.293,0,0,1,.3-4.029c-1.363-5.465-6.609-8.342-9.638-8.872-5.17-.93-10.223-2.537-15.043-3.787a.533.533,0,0,0-.58.48c-.29,2.85-.717,5.577.373,7.517.716,1.275.719,1.474,3.074,3.145a63.08,63.08,0,0,1-7.548,2.23,1.968,1.968,0,0,0-1.243,2.884c2.619,4.383,8.32,7.949,13.018,8.87A17.032,17.032,0,0,0,265.581,111.668Z"/><path class="e" d="M261.4,97.2a18,18,0,0,0-12.023.385,76.059,76.059,0,0,1-7.807,2.486,5.724,5.724,0,0,0-3.046,1.442,3.975,3.975,0,0,0-1.025,3.078c.192,2.048,2.141,4.009,3.561,5.36a24.422,24.422,0,0,0,5.682,4.024,20.691,20.691,0,0,0,11.171,2.357,19.561,19.561,0,0,0,13.018-6.726c1.706-1.918-1.113-4.757-2.828-2.828a15.206,15.206,0,0,1-17.129,4.7,19.411,19.411,0,0,1-8.6-5.98c-.229-.287-.439-.586-.64-.893-.15-.23-.259-.466-.277-.367.021-.113-.119.049.045-.024a11.907,11.907,0,0,1,1.81-.46,55.147,55.147,0,0,0,6.456-2.052,14.927,14.927,0,0,1,10.57-.646c2.463.769,3.516-3.091,1.063-3.857Z"/><path class="e" d="M248.854,97.839a4.482,4.482,0,0,1-1.983-2.788,9.323,9.323,0,0,1-.094-2.595,9.718,9.718,0,0,1,.326-2.8l-.514.883.212-.182-.882.514.264-.036h-1.064c2.776.725,5.531,1.528,8.306,2.257,2.536.666,5.175,1.027,7.685,1.755a10.629,10.629,0,0,1,7.3,7.259c.662,2.484,4.522,1.43,3.857-1.064a14.662,14.662,0,0,0-11.037-10.277c-3.956-.793-7.834-1.818-11.722-2.891-1.626-.449-4.066-1.656-5.531-.346-1.271,1.137-1.125,3.546-1.207,5.135a10.054,10.054,0,0,0,1.021,5.375,9.706,9.706,0,0,0,3.048,3.253,2.013,2.013,0,0,0,2.736-.718,2.046,2.046,0,0,0-.717-2.736Z"/><path class="e" d="M64.132,32.28a22.746,22.746,0,0,0-11.42,6.274,20.491,20.491,0,0,0-6.057,12.429,2.012,2.012,0,0,0,2,2,2.047,2.047,0,0,0,2-2c.831-7.444,7.413-13.4,14.54-14.846a2,2,0,1,0-1.063-3.857Z"/><path class="e" d="M105.774,49.694a2.6,2.6,0,0,1,2.265-.54,2.07,2.07,0,0,1,1.08.462c-.287-.211.535.728.223.231a5.176,5.176,0,0,1,.773,2.088,11.959,11.959,0,0,1,.077,3.087,13.139,13.139,0,0,1-1.593,4.951c-.972,1.793-2.436,3.649-4.679,3.358a2.01,2.01,0,0,0-2,2,2.051,2.051,0,0,0,2,2c5.211.676,8.412-4.952,9.714-9.164,1.168-3.78,1.116-9.642-2.579-12.06a6.807,6.807,0,0,0-8.109.758c-1.925,1.718.912,4.539,2.828,2.829Z"/><path class="e" d="M48.944,46.865a6.843,6.843,0,0,0-7.455-1.111,6.506,6.506,0,0,0-3.4,4.378,16.319,16.319,0,0,0,2.368,12.882c1.673,2.489,4.315,4.733,7.517,4.317a2.066,2.066,0,0,0,2-2,2.012,2.012,0,0,0-2-2c-2.242.291-3.708-1.565-4.68-3.358A13.092,13.092,0,0,1,41.7,55.022a12.139,12.139,0,0,1,.077-3.087,5.186,5.186,0,0,1,.773-2.088c-.32.509.513-.444.224-.231a1.953,1.953,0,0,1,.949-.434,2.63,2.63,0,0,1,2.4.512c1.915,1.709,4.754-1.111,2.828-2.829Z"/><path class="e" d="M70.869,77.13a19.514,19.514,0,0,0,5.287.655,21.553,21.553,0,0,0,3.569-.29,7.448,7.448,0,0,0,1.655-.441,2.2,2.2,0,0,0,1.2-.919,2.044,2.044,0,0,0,.2-1.541,2.019,2.019,0,0,0-2.46-1.4,7.275,7.275,0,0,1-1.5.414c-.088.016-.176.031-.265.045-.231.036-.363-.052.063-.006a3.853,3.853,0,0,0-.664.067c-.6.048-1.2.068-1.8.068-.574,0-1.149-.017-1.722-.059-.246-.018-.491-.04-.736-.068-.08-.009-.451-.053-.089-.009s.018,0-.062-.012a14.12,14.12,0,0,1-1.615-.364,2,2,0,1,0-1.063,3.857Z"/><path class="e" d="M74.978,63.241a26.336,26.336,0,0,1,.616,2.817l-.072-.531a1.68,1.68,0,0,1,.011.388l.071-.531a.9.9,0,0,1-.043.175l.2-.478a.679.679,0,0,1-.062.112l.313-.4a.56.56,0,0,1-.092.09l.405-.312a2.161,2.161,0,0,1-.223.118l.477-.2a1.639,1.639,0,0,1-.376.11l.532-.072a1.438,1.438,0,0,1-.353,0l.531.071c-.133-.018-.263-.051-.4-.069a1.511,1.511,0,0,0-.8-.035,1.492,1.492,0,0,0-.744.237,2,2,0,0,0-.717,2.736,1.915,1.915,0,0,0,1.195.92c.352.047.694.135,1.053.151a3.458,3.458,0,0,0,1.614-.393,2.453,2.453,0,0,0,1.323-1.6,3.779,3.779,0,0,0-.014-1.663c-.153-.908-.363-1.807-.6-2.7a2,2,0,0,0-2.46-1.4,2.03,2.03,0,0,0-1.2.919,2.106,2.106,0,0,0-.2,1.542Z"/><path class="e" d="M61.134,59.27a14.343,14.343,0,0,0,2.486.283,13.057,13.057,0,0,0,2.486-.255,2,2,0,0,0,.478-3.655,2.217,2.217,0,0,0-1.541-.2q-.309.061-.622.1l.532-.071a9.3,9.3,0,0,1-2.415.009l.531.071c-.291-.041-.582-.092-.872-.142a2.244,2.244,0,0,0-1.541.2,2,2,0,0,0-.718,2.737,1.955,1.955,0,0,0,1.2.919Z"/><path class="e" d="M89.667,55.41c-.239.041-.478.08-.719.113l.532-.072a9.139,9.139,0,0,1-2.422.047l.531.071c-.248-.035-.5-.08-.742-.128a2.135,2.135,0,0,0-1.541.2,2,2,0,0,0-.717,2.736,1.977,1.977,0,0,0,1.2.919,10.66,10.66,0,0,0,2.491.259,19.515,19.515,0,0,0,2.456-.29,2.01,2.01,0,0,0,1.2-.919,2.039,2.039,0,0,0,.2-1.541,2.017,2.017,0,0,0-.919-1.2l-.477-.2a2.022,2.022,0,0,0-1.064,0Z"/><path class="e" d="M45.787,63.615a37.467,37.467,0,0,0,6.88,14.191A28.273,28.273,0,0,0,66.1,87.054c5.572,1.724,11.97,2.25,17.613.593A30.7,30.7,0,0,0,97.24,79.619a35.329,35.329,0,0,0,8.782-16c.629-2.5-3.228-3.562-3.857-1.064-2.326,9.24-8.565,17.4-17.715,20.654a26.434,26.434,0,0,1-27.491-6.553,32.067,32.067,0,0,1-7.315-14.1c-.663-2.485-4.523-1.43-3.857,1.064Z"/><path class="e" d="M99,36.979c-4.5-1.378-8.986-2.808-13.5-4.129A118.847,118.847,0,0,0,70.77,29.209c-1.755-.276-3.816-.667-5.566-.122-2.45.764-1.4,4.627,1.063,3.858.1-.031.2-.058.3-.079.339-.073-.441.021-.059,0,.342-.016.68-.031,1.024-.021a16,16,0,0,1,2.068.2c2.211.341,4.4.85,6.566,1.392,5.088,1.271,10.114,2.787,15.124,4.333,2.216.684,4.428,1.382,6.646,2.061,2.467.756,3.522-3.1,1.063-3.857Z"/><path class="e" d="M95.65,36.2a13.64,13.64,0,0,1,3.973,7.264c.543,2.752.258,5.727.338,8.517.074,2.568,4.074,2.579,4,0-.094-3.282.161-6.675-.549-9.9a17.424,17.424,0,0,0-4.933-8.706c-1.843-1.8-4.674,1.026-2.829,2.828Z"/><path class="e" d="M56.328,11.809c7.828-8.852,20.958-9.167,31.5-5.762,9.814,3.17,17.955,10.8,20.822,20.838a38.07,38.07,0,0,1,.217,20.281c-.647,2.493,3.21,3.557,3.858,1.063,3.145-12.119,1.042-25.36-7.075-35.1A35.884,35.884,0,0,0,91.016,2.945,42.535,42.535,0,0,0,72.1.157C65.1.814,58.225,3.638,53.5,8.98c-1.7,1.922,1.119,4.761,2.828,2.829Z"/><path class="e" d="M44.157,46.47A43.632,43.632,0,0,1,44,26.759a17.808,17.808,0,0,1,6.8-10.981,2.061,2.061,0,0,0,.717-2.737,2.014,2.014,0,0,0-2.736-.717,21.822,21.822,0,0,0-8.571,13.063A48.023,48.023,0,0,0,40.3,47.534c.609,2.5,4.467,1.441,3.857-1.064Z"/><path class="a" d="M314.015,68.587a3.953,3.953,0,0,1,.724-.548,4.493,4.493,0,0,1,2.417-.6,4.033,4.033,0,0,1,3.621,2.011c1.23,2.134,1.178,6.066.352,8.5a13.121,13.121,0,0,1-3.853,6.248,4.644,4.644,0,0,1-4.1.966A31.351,31.351,0,0,1,306.8,96.609a26.73,26.73,0,0,1-20.615,9.515,42.856,42.856,0,0,1-6.4-.854,24.907,24.907,0,0,1-14.349-8.48,31.344,31.344,0,0,1-6.22-11.611,4.662,4.662,0,0,1-4.043-.983,13.121,13.121,0,0,1-3.853-6.248c-.826-2.433-.878-6.365.353-8.5a4.032,4.032,0,0,1,3.621-2.011,4.342,4.342,0,0,1,3.14,1.149s-4.435-24.162,27.787-24.162S314.015,68.587,314.015,68.587Z"/><path class="b" d="M253.136,63.486c.014.063.028.125.042.185,0,0,.515,2.22.959,3.931a5.223,5.223,0,0,1,1.164-.164,4.127,4.127,0,0,1,4.189,2.86c18.34-1.833,28.235-10.409,38.639-19.12,4.061,2.319,8.489,7.346,10.227,10.26a64.8,64.8,0,0,1,4.528,9.179,4.113,4.113,0,0,1,4.272-3.179,4.729,4.729,0,0,1,2.113.528c1.626-5.62.553-13.778-.331-18.035-.11-.57-.25-1.14-.4-1.7l-.009-.035a14.252,14.252,0,0,0,1.491-10.378,19.9,19.9,0,0,0-5.611-10.195,17.241,17.241,0,0,0-8.25-4.861c-3.439-.931-7.842-.227-11.231.873-.286.093-1.52.688-2.906,1.373a29.02,29.02,0,0,0-5.974-.287c-15.32-.85-29.94,10.68-32.9,25.21A41.212,41.212,0,0,0,253.136,63.486Z"/><path class="e" d="M295.94,25.357c2.625-1.585,6.105-1.5,9.007-.838A16.346,16.346,0,0,1,313,29.034c4.512,4.475,7.415,12.291,3.807,18.157-1.353,2.2,2.106,4.21,3.454,2.019,4.55-7.4,1.342-17.283-4.433-23a20.2,20.2,0,0,0-10.166-5.62c-3.858-.8-8.275-.773-11.738,1.317-2.2,1.329-.192,4.789,2.019,3.454Z"/><path class="e" d="M281.252,96.843a19.109,19.109,0,0,0,5.183.642,21.164,21.164,0,0,0,3.5-.285,7.358,7.358,0,0,0,1.619-.432,2.2,2.2,0,0,0,1.195-.919,2.043,2.043,0,0,0,.2-1.541,2.02,2.02,0,0,0-2.46-1.4,7.082,7.082,0,0,1-1.466.405c-.086.016-.173.031-.259.044-.2.032-.416-.033.073-.007a5.319,5.319,0,0,0-.65.065c-.584.048-1.17.067-1.755.067-.562,0-1.124-.017-1.685-.058q-.36-.026-.719-.066c-.081-.009-.446-.053-.081-.008s.026,0-.055-.011a14.136,14.136,0,0,1-1.579-.356,2,2,0,1,0-1.064,3.857Z"/><path class="e" d="M285.24,83.23a25.908,25.908,0,0,1,.6,2.755l-.072-.532a1.674,1.674,0,0,1,.011.381l.071-.532a.928.928,0,0,1-.042.171l.2-.478a.73.73,0,0,1-.06.11l.312-.405a.541.541,0,0,1-.09.089l.405-.313a1.821,1.821,0,0,1-.218.116l.478-.2a1.651,1.651,0,0,1-.368.108l.531-.072a1.475,1.475,0,0,1-.345,0l.532.071c-.13-.018-.258-.05-.388-.067a1.506,1.506,0,0,0-.8-.036,1.486,1.486,0,0,0-.743.237,2,2,0,0,0-.718,2.737l.313.4a1.992,1.992,0,0,0,.882.515c.349.047.687.134,1.042.149a3.433,3.433,0,0,0,1.6-.39,2.439,2.439,0,0,0,1.313-1.592,3.736,3.736,0,0,0-.013-1.65c-.15-.887-.355-1.767-.583-2.638a2,2,0,0,0-2.461-1.4,2.028,2.028,0,0,0-1.2.919,2.106,2.106,0,0,0-.2,1.542Z"/><path class="e" d="M271.732,79.377a14.066,14.066,0,0,0,2.444.279,12.866,12.866,0,0,0,2.443-.251,2,2,0,0,0,.477-3.655,2.216,2.216,0,0,0-1.541-.2c-.2.04-.4.075-.608.1l.532-.072a9.066,9.066,0,0,1-2.362.009l.532.071c-.286-.04-.569-.09-.853-.139a1.526,1.526,0,0,0-.8-.036,1.5,1.5,0,0,0-.743.238,2,2,0,0,0-.718,2.736,1.956,1.956,0,0,0,1.2.919Z"/><path class="e" d="M299.635,75.518c-.234.04-.468.078-.7.11l.532-.071a8.992,8.992,0,0,1-2.369.045l.532.071c-.243-.034-.485-.078-.726-.125a2.135,2.135,0,0,0-1.541.2,2,2,0,0,0-.718,2.736,1.983,1.983,0,0,0,1.2.919,10.453,10.453,0,0,0,2.448.254,19,19,0,0,0,2.413-.284,2.01,2.01,0,0,0,1.195-.919,2,2,0,0,0-.718-2.737l-.477-.2a2,2,0,0,0-1.064,0Z"/><path class="e" d="M256.694,83.6a36.677,36.677,0,0,0,6.724,13.879,27.71,27.71,0,0,0,13.112,9.054c5.47,1.71,11.77,2.225,17.312.6a30.056,30.056,0,0,0,13.214-7.833,34.573,34.573,0,0,0,8.627-15.7c.629-2.5-3.228-3.562-3.857-1.063-2.267,9-8.336,16.967-17.248,20.151a25.809,25.809,0,0,1-26.866-6.361,31.329,31.329,0,0,1-7.161-13.79c-.663-2.485-4.523-1.431-3.857,1.063Z"/><path class="e" d="M256.069,67.069a39.4,39.4,0,0,1-1.478-9.414,30.726,30.726,0,0,1,1.513-10.9A30.764,30.764,0,0,1,269.96,30.628a30.422,30.422,0,0,1,10.534-3.678,35.83,35.83,0,0,1,5.557-.23,35.363,35.363,0,0,1,7.219.536A31.606,31.606,0,0,1,313.341,41.32a31.984,31.984,0,0,1,4.3,12.794c.6,4.352.891,9.049-.3,13.325-.69,2.484,3.168,3.544,3.857,1.063a35.444,35.444,0,0,0,.553-13.495,39.458,39.458,0,0,0-3.384-12.846,35.535,35.535,0,0,0-20.094-17.652,39.892,39.892,0,0,0-15.107-1.8,33.682,33.682,0,0,0-12.05,2.876,35.2,35.2,0,0,0-17.47,16.735,32.34,32.34,0,0,0-3.054,13.468,44.566,44.566,0,0,0,1.619,12.348c.648,2.489,4.507,1.434,3.857-1.063Z"/><path class="e" d="M298.071,53.491c5.96,4.005,10.032,10.419,12.638,17a2.06,2.06,0,0,0,2.46,1.4,2.013,2.013,0,0,0,1.4-2.46c-3.016-7.615-7.573-14.749-14.476-19.387a2,2,0,0,0-2.019,3.454Z"/><path class="e" d="M296.1,50.276A111.762,111.762,0,0,1,281.719,61.04a53.97,53.97,0,0,1-18.934,6.833,2.015,2.015,0,0,0-1.4,2.46,2.048,2.048,0,0,0,2.46,1.4,56.985,56.985,0,0,0,19.89-7.236,118.36,118.36,0,0,0,15.193-11.389c1.976-1.655-.866-4.472-2.828-2.829Z"/><path class="e" d="M315.43,70a2.475,2.475,0,0,1,2.171-.516,1.926,1.926,0,0,1,1.045.447c-.3-.221.52.72.2.211a8.259,8.259,0,0,1,.825,5.038A12.97,12.97,0,0,1,318.123,80c-.944,1.741-2.361,3.545-4.539,3.262a2.01,2.01,0,0,0-2,2,2.052,2.052,0,0,0,2,2c5.117.664,8.264-4.857,9.543-8.994,1.148-3.717,1.089-9.467-2.543-11.844a6.7,6.7,0,0,0-7.983.749c-1.925,1.717.912,4.538,2.829,2.828Z"/><path class="e" d="M259.855,67.173a6.739,6.739,0,0,0-7.344-1.094,6.4,6.4,0,0,0-3.348,4.308,16,16,0,0,0,2.32,12.631c1.644,2.446,4.242,4.652,7.389,4.244a2.066,2.066,0,0,0,2-2,2.011,2.011,0,0,0-2-2c-2.177.283-3.594-1.52-4.538-3.262a12.9,12.9,0,0,1-1.552-4.819,8.275,8.275,0,0,1,.826-5.038c-.327.523.511-.437.2-.211a1.821,1.821,0,0,1,.918-.419,2.5,2.5,0,0,1,2.3.488c1.915,1.71,4.754-1.11,2.828-2.828Z"/></svg>