<?xml version="1.0" encoding="utf-8"?>
<!-- Uploaded to: SVG Repo, www.svgrepo.com, Generator: SVG Repo Mixer Tools -->
<svg width="800px" height="800px" viewBox="-150.67 0 448.61 448.61" xmlns="http://www.w3.org/2000/svg"><defs><style>.a{fill:#ffffff;}.b{fill:#211715;}.c{fill:#7a7473;}.d{fill:#ffda71;}.e{fill:#85807f;}.f{fill:#74c66d;}.g{fill:#febe69;}.h{fill:#f2635f;}.i{fill:#ad7b59;}.j{fill:#acdda7;}</style></defs><path class="a" d="M111.33,364.856c1.521-39.107,3.454-92.073,4.5-121.306-14.365.48-71.443,1-84.395.543,1.13,30.163,3.125,85.239,4.64,124.4l1.084,0,33.446,0c1.194,0,1.944,1.164,2.221,2.339h1.595c.277-1.175,1.027-2.339,2.222-2.339l33.446,0h1.095Q111.26,366.7,111.33,364.856Z"/><path class="b" d="M71.625,264.042q.024,15.636.007,31.272,0,27.964,0,55.928,0,14.217,0,28.434c0,2.574,4,2.579,4,0q0-26.82,0-53.641,0-24.822,0-49.644,0-6.174,0-12.349c0-2.573-4-2.578-4,0Z"/><path class="b" d="M111.629,406.247c.356-7.613.663-15.227.969-22.841q.663-16.45,1.286-32.9.721-18.879,1.421-37.758.684-18.438,1.357-36.877.561-15.392,1.114-30.782.056-1.582.113-3.165c.092-2.575-3.908-2.571-4,0q-.529,14.819-1.07,29.636-.663,18.2-1.337,36.407-.7,18.984-1.424,37.966-.642,16.893-1.312,33.785-.486,12.2-1.019,24.4-.048,1.067-.1,2.132c-.121,2.573,3.88,2.567,4,0Z"/><path class="b" d="M39.629,406.247c-.355-7.583-.657-15.168-.96-22.752q-.657-16.475-1.275-32.95-.714-18.844-1.41-37.691-.685-18.489-1.363-36.978-.567-15.4-1.135-30.809l-.117-3.145c-.1-2.566-4.1-2.579-4,0q.552,14.826,1.094,29.653.67,18.254,1.344,36.5.7,18.951,1.414,37.9.639,16.922,1.3,33.841c.321,8.109.643,16.218,1.009,24.325q.048,1.05.1,2.1c.12,2.563,4.12,2.577,4,0Z"/><path class="a" d="M11.188,131.935a28.834,28.834,0,0,1,8.844-15.608,29.169,29.169,0,0,1,5.717-3.8c4.8-2.444,14.917-6.5,23.631-10.084l2.455-.987,1.526-.614a2.791,2.791,0,0,0,.138,1.248c.523,1.044,2.2,8.169,4.368,12.9,4.361-2.067,12.151-9.739,14.588-12.48h2.356c2.437,2.741,10.2,10.413,14.556,12.48,2.167-4.733,3.877-11.858,4.4-12.9a3.731,3.731,0,0,0-.2-2.63L95.28,100l2.5.785c4.406,1.695,15.619,5.468,20.42,7.912a53.418,53.418,0,0,1,5.7,3.519c4.871,3.93,7.449,9.307,8.79,15.684l6.9,16.051c1.083,8.1,2.3,13.868,3.711,25.735a43.189,43.189,0,0,1,.423,9.281c-.656,6.746-5.049,13.293-11.488,15.384a21.67,21.67,0,0,1-12.874.566c.211,21.308.365,42.219.365,47.451a1.256,1.256,0,0,1-1.136,1.061c-7.08.54-82.428,1.26-89.278.55a1.4,1.4,0,0,1-1.22-1.47c0-4.286.194-19.595.444-36.9l.082-5.705L23.2,197.807c-5.352-2.063-14.365-8.231-17.058-13.242A24.507,24.507,0,0,1,3.5,168.506c3.154-13.6,3.76-19.3,7.685-36.571"/><path class="c" d="M75.432,412.632c-.252-12.061-.685-30.668-1.006-41.8.277-1.175,1.027-2.339,2.222-2.339l33.446,0a3.614,3.614,0,0,1,2.872,3.071c-.294,10.7-.567,10.908-1.1,25.564a33.6,33.6,0,0,0,.461,8.566,16.6,16.6,0,0,0,5.067,9.337c5.356,4.764,7.562,6.294,10.388,9.959,2.614,3.39,5.248,9.728,3.758,14.455-1.02,3.235-4.052,5.146-7.432,6.425-1.475.559-7.039.947-9.853.466a27.924,27.924,0,0,1-11.605-4.487c-5.617-3.983-10.3-7.936-16.239-11.984-2.085-1.421-4.678-2.4-6.658-3.947a12.375,12.375,0,0,1-3.146-3.224c-.992-1.743-.958-3.551-1.124-5.391C75.484,416,75.469,414.418,75.432,412.632Z"/><path class="c" d="M71.826,412.632c.252-12.061.684-30.668,1.005-41.8-.277-1.175-1.027-2.339-2.221-2.339l-33.446,0a3.615,3.615,0,0,0-2.873,3.071c.3,10.7.568,10.908,1.1,25.564a33.59,33.59,0,0,1-.462,8.566,16.6,16.6,0,0,1-5.067,9.337c-5.356,4.764-7.561,6.294-10.387,9.959-2.614,3.39-5.248,9.728-3.758,14.455,1.02,3.235,4.051,5.146,7.432,6.425,1.475.559,7.039.947,9.853.466a27.92,27.92,0,0,0,11.6-4.487c5.618-3.983,10.3-7.936,16.24-11.984,2.084-1.421,4.678-2.4,6.658-3.947a12.371,12.371,0,0,0,3.145-3.224c.992-1.743.959-3.551,1.124-5.391C71.773,416,71.788,414.418,71.826,412.632Z"/><path class="b" d="M77.432,412.632q-.248-11.835-.535-23.669-.141-5.856-.3-11.71-.067-2.6-.141-5.2c-.014-.5-.16-1.182.285-1.565.1-.084-.082,0-.1,0a2.525,2.525,0,0,1,.59,0h1.387l22.906,0h5.384c1.228,0,2.989-.461,3.78.585.406.536.255,1.066.236,1.714q-.036,1.242-.08,2.484-.067,1.947-.158,3.894c-.282,6.066-.636,12.128-.834,18.2-.227,6.94.718,14.123,6.122,19.077,5.053,4.632,10.939,8.611,13.174,15.432,1.078,3.291,1.449,7.118-1.337,9.653-2.346,2.135-5.246,2.814-8.3,2.971a26.362,26.362,0,0,1-10.947-1.748c-4.146-1.574-7.636-4.585-11.125-7.242-3.694-2.813-7.356-5.911-11.394-8.222-3.512-2.011-8-3.712-8.431-8.3-.2-2.112-.142-4.238-.184-6.357-.051-2.571-4.052-2.58-4,0a69.323,69.323,0,0,0,.275,7.193,9.846,9.846,0,0,0,3.2,6.308,26.656,26.656,0,0,0,5.673,3.821,52.6,52.6,0,0,1,6.136,3.972c4.1,2.974,8.05,6.149,12.164,9.105a30.176,30.176,0,0,0,12.842,5.232c6.683,1.087,16.182-.142,19.3-7.16,1.82-4.09.75-8.818-.976-12.746a27.029,27.029,0,0,0-6.171-8.481c-2.7-2.594-5.935-4.75-8.371-7.593a16.753,16.753,0,0,1-3.572-9.246,99.7,99.7,0,0,1,.209-12.967c.126-2.837.278-5.673.426-8.508q.221-4.218.347-8.438c.064-2.126-.188-3.852-1.869-5.341-1.555-1.377-3.241-1.292-5.184-1.292l-24.659,0H77.692c-2.165,0-3.849.6-4.795,2.7-.776,1.719-.41,3.786-.36,5.629q.081,2.961.156,5.92.335,13.091.617,26.181.061,2.856.122,5.712C73.486,415.2,77.486,415.211,77.432,412.632Z"/><path class="b" d="M73.826,412.632q.266-12.736.578-25.472.153-6.255.321-12.51c.049-1.8.393-3.783-.365-5.46-.981-2.172-2.73-2.7-4.947-2.7l-24.417,0H39.233c-1.962,0-3.615-.029-5.149,1.4-1.645,1.536-1.808,3.272-1.743,5.395q.07,2.3.166,4.6c.274,6.413.664,12.82.884,19.237.125,3.664.15,7.061-1.013,10.5-1.306,3.859-4.161,6.222-7.138,8.8a51.69,51.69,0,0,0-7.084,7.026,22.861,22.861,0,0,0-4.782,11.464,11.029,11.029,0,0,0,4.866,10.719c3.073,2.111,6.366,2.748,10.019,2.889A29.153,29.153,0,0,0,40.524,446.3c4.474-1.845,8.206-4.973,12.023-7.883,3.965-3.023,7.9-6.215,12.311-8.564a25.284,25.284,0,0,0,5.647-3.868,9.92,9.92,0,0,0,3.071-6.373c.269-2.318.2-4.654.25-6.984.051-2.575-3.949-2.575-4,0-.044,2.188.026,4.388-.2,6.566-.241,2.279-1.451,3.693-3.216,5.056a47.377,47.377,0,0,1-5.371,3.136,64.562,64.562,0,0,0-5.82,4.039c-3.7,2.737-7.3,5.6-11.046,8.284a26.551,26.551,0,0,1-11.694,4.695c-5.242.752-14.548-.226-15.155-7.076-.621-7,4.566-12.685,9.429-16.931,2.718-2.374,5.63-4.559,7.577-7.652a21.638,21.638,0,0,0,3-9.849,97.5,97.5,0,0,0-.19-12.133c-.12-2.782-.264-5.563-.411-8.344-.129-2.43-.243-4.86-.328-7.292q-.038-1.086-.07-2.173c-.023-.779-.2-1.4.346-2,.806-.893,2.645-.464,3.827-.464l23,0h6.362c.237,0,.8.111.609-.037.48.38.333,1.073.319,1.6q-.156,5.488-.29,10.977-.308,12.219-.571,24.437-.057,2.583-.11,5.165C69.772,415.207,73.772,415.206,73.826,412.632Z"/><path class="b" d="M81.06,381.884h26c2.574,0,2.578-4,0-4h-26c-2.574,0-2.578,4,0,4Z"/><path class="b" d="M40.727,381.884H66.532c2.574,0,2.578-4,0-4h-25.8c-2.574,0-2.578,4,0,4Z"/><path class="b" d="M134.618,127.363a32.072,32.072,0,0,0-4.5-11.267,25.165,25.165,0,0,0-8-7.456c-5.76-3.51-12.3-5.6-18.609-7.883-2.562-.924-5.1-1.875-7.7-2.69-2.462-.773-3.515,3.088-1.063,3.857,5.3,1.663,10.527,3.656,15.715,5.644a56.431,56.431,0,0,1,7.92,3.509,23.367,23.367,0,0,1,7.284,5.689,26.977,26.977,0,0,1,5.094,11.66c.541,2.516,4.4,1.451,3.857-1.063Z"/><path class="a" d="M115.643,141.38c.253-14.932-2.646-28.274-6.669-37.622a29.135,29.135,0,0,0-7.116-10.148L92.13,87.467A16.075,16.075,0,0,1,88.862,90.2c0,1.42,0,2.62,0,2.62v.565c1.288,1.507,2.769,3.453,3.973,4.848a4.333,4.333,0,0,1,.6.92h2.952a165.8,165.8,0,0,1-.309,19.834q-1.047,12.309-2.4,24.591a4.416,4.416,0,0,0,.259,2.668,4.222,4.222,0,0,0,2.524,1.631,45.072,45.072,0,0,0,13.7,2.234,5.69,5.69,0,0,0,3.6-.842,5.076,5.076,0,0,0,1.735-3.717Q115.609,143.445,115.643,141.38Z"/><path class="b" d="M13.117,132.467c1.553-6.961,5.406-13.326,11.6-17.068a64.592,64.592,0,0,1,7.684-3.755c3.584-1.563,7.2-3.046,10.818-4.53,3.047-1.25,6.093-2.5,9.149-3.732a2.064,2.064,0,0,0,1.4-2.46,2.015,2.015,0,0,0-2.461-1.4c-6.654,2.677-13.3,5.38-19.892,8.219A73.511,73.511,0,0,0,23,111.763a28.669,28.669,0,0,0-8.5,7.783A31.306,31.306,0,0,0,9.26,131.4c-.56,2.508,3.3,3.579,3.857,1.064Z"/><path class="d" d="M96.5,83.662c11.524-1.8,20.777-3.516,30.511-10.236,4.646-3.207,9.282-9.672,9.282-14.934a22.118,22.118,0,0,0-6.918-16.664,52.31,52.31,0,0,0-17.833-11.191c-.461-1.429-.809-2.512-.809-2.512a45.749,45.749,0,0,0-12.7-18.118C92.326,5.281,81.516,1.686,73.209,2.075,64.9,1.685,54.087,5.28,48.374,10.007a45.749,45.749,0,0,0-12.7,18.118L34.617,30.74A52.109,52.109,0,0,0,17.036,41.828,21.819,21.819,0,0,0,9.9,58.232c0,5.263,4.849,11.987,9.495,15.194,9.734,6.72,18.987,8.437,30.511,10.236"/><path class="a" d="M109.4,55.877a4.173,4.173,0,0,0-3.748-2.083,4.415,4.415,0,0,0-3.452,1.411c1.18-2.358,2.135-4.57,1.834-7.041a9.886,9.886,0,0,0-3.926-6.619,24.5,24.5,0,0,0-9.519-4.239c-4.672-1.042-10.655-1.36-16.968-1.508-6.312.148-12.3.466-16.967,1.508a24.493,24.493,0,0,0-9.519,4.239,9.878,9.878,0,0,0-3.926,6.619c-.3,2.446.634,4.638,1.8,6.969a4.436,4.436,0,0,0-3.388-1.339,4.173,4.173,0,0,0-3.749,2.083c-1.274,2.209-1.22,6.279-.365,8.8a13.587,13.587,0,0,0,3.989,6.468,4.863,4.863,0,0,0,4.135,1.036,34.192,34.192,0,0,0,6.489,12.243A27.928,27.928,0,0,0,58.9,90.481v2.334c.592.479,12.642,9.047,13.555,9.7h2.356c.913-.648,12.963-9.216,13.555-9.7V90.524c6.2-3.992,10.993-12.294,11.905-14.77a29.013,29.013,0,0,0,1.314-3.57l.367.062a4.956,4.956,0,0,0,3.822-1.1,13.587,13.587,0,0,0,3.989-6.468C110.618,62.156,110.672,58.086,109.4,55.877Z"/><path class="e" d="M78.935,38.329c-3.828,1.614-9.227,5-12.257,6.685A1.037,1.037,0,0,1,65.2,43.9a5.447,5.447,0,0,0-.13-1.991c-.2-.832-.841-1.185-1.339-.924-4.244,2.226-10.293,7.982-13.719,11.8L44.953,55.03c-1.139-2.292-2.04-4.456-1.746-6.866a9.878,9.878,0,0,1,3.926-6.619,24.493,24.493,0,0,1,9.519-4.239c4.672-1.042,10.655-1.36,16.967-1.508,6.313.148,12.3.466,16.968,1.508a24.5,24.5,0,0,1,9.519,4.239,9.886,9.886,0,0,1,3.926,6.619c.294,2.41-.607,4.574-1.747,6.866l-4.232-2c-1.463-3.682-4.766-7.75-8.212-10.715a18.331,18.331,0,0,0-5.229-3.288Z"/><path class="b" d="M37.606,28.656a42.064,42.064,0,0,1,8.64-13.866,33.337,33.337,0,0,1,16.2-9.362A40.949,40.949,0,0,1,81.28,4.783c6.186,1.28,12.385,3.75,17.031,8.132a41.825,41.825,0,0,1,10.495,15.741c.862,2.406,4.729,1.369,3.857-1.063A46.667,46.667,0,0,0,103,11.962,37.239,37.239,0,0,0,85.038,1.572,45.426,45.426,0,0,0,64.073.925C57.282,2.332,50.534,5.178,45.421,9.947A45.811,45.811,0,0,0,33.749,27.593c-.87,2.427,2.993,3.473,3.857,1.063Z"/><path class="a" d="M50.082,148.1A45.082,45.082,0,0,1,37.1,150.106a5.691,5.691,0,0,1-3.6-.842,5.075,5.075,0,0,1-1.734-3.717c-.929-16.6,2.124-31.58,6.517-41.789A29.148,29.148,0,0,1,45.4,93.61a49.5,49.5,0,0,1,5.9-3.353,27.7,27.7,0,0,1,4.891-1.72,21.473,21.473,0,0,0,4.072,2.716L58.9,92.815c-1.39,1.557-3.1,3.836-4.466,5.413l-3.443.858a167.316,167.316,0,0,0,.193,19.9c.7,8.206,1.247,16.283,2.4,24.591a3.268,3.268,0,0,1-2.783,4.3Q50.442,147.989,50.082,148.1Z"/><path class="b" d="M50.443,81.734c-8.1-1.268-16.349-2.646-23.764-6.329a32.038,32.038,0,0,1-9.835-6.95c-2.335-2.6-4.722-6.141-4.924-9.745a19.173,19.173,0,0,1,2.709-10.732A31.255,31.255,0,0,1,23.22,39.2,58.689,58.689,0,0,1,44.9,29.69,129.007,129.007,0,0,1,69.71,26.9,135.787,135.787,0,0,1,94.731,28.4c7.945,1.225,15.832,3.358,22.9,7.257,6.849,3.776,13.982,9.23,15.992,17.158.895,3.532,1.023,7.182-.6,10.516a22.755,22.755,0,0,1-7.925,8.979c-6.912,4.568-14.662,6.9-22.748,8.367-2.123.386-4.254.726-6.386,1.06a2.015,2.015,0,0,0-1.4,2.46,2.05,2.05,0,0,0,2.461,1.4c8.822-1.381,17.619-3.014,25.613-7.187a32.979,32.979,0,0,0,10.508-8c2.672-3.259,4.978-7.268,5.134-11.582a24.687,24.687,0,0,0-2.827-12.285c-2.181-4.111-5.658-7.291-9.308-10.088a60.948,60.948,0,0,0-23.2-10.528,135.013,135.013,0,0,0-26.87-3.039,137.353,137.353,0,0,0-27.037,1.91,68.492,68.492,0,0,0-24.293,8.57C17.369,37.87,10.136,44.293,8.4,53.156a18.162,18.162,0,0,0,1.425,12.1,27.063,27.063,0,0,0,8.283,9.7c7.225,5.218,15.815,7.9,24.485,9.5,2.255.417,4.519.779,6.783,1.133a2.064,2.064,0,0,0,2.461-1.4,2.017,2.017,0,0,0-1.4-2.46Z"/><path class="b" d="M100.2,69.541a28.935,28.935,0,0,1-1.31,4.367c-.193.508-.355.841-.584,1.411-.2.507.137-.275-.036.086-.063.132-.122.266-.185.4a37.22,37.22,0,0,1-3.2,5.325c-2.785,3.948-6.6,8.257-11.493,9.407-2.5.589-1.445,4.447,1.063,3.857,5.778-1.357,10.224-6.183,13.572-10.808a38.056,38.056,0,0,0,3.477-5.691c.207-.428.392-.863.575-1.3.217-.518-.147.344.081-.187.149-.347.3-.694.436-1.045a28.971,28.971,0,0,0,1.461-4.756c.524-2.511-3.331-3.585-3.857-1.063Z"/><path class="b" d="M43.126,70.5C45.608,81.386,53.8,93.251,65.56,95.026a2.064,2.064,0,0,0,2.46-1.4,2.014,2.014,0,0,0-1.4-2.46c-10.47-1.58-17.436-12.068-19.64-21.73-.572-2.509-4.429-1.447-3.857,1.063Z"/><path class="b" d="M103.813,56.4a2.671,2.671,0,0,1,2.317-.553,2.144,2.144,0,0,1,1.1.47c-.276-.2.544.732.235.243a5.268,5.268,0,0,1,.785,2.119,12.019,12.019,0,0,1,.079,3.132,13.241,13.241,0,0,1-1.616,5.025c-.987,1.822-2.479,3.707-4.759,3.411a2.01,2.01,0,0,0-2,2,2.05,2.05,0,0,0,2,2c5.265.683,8.5-5,9.811-9.259,1.179-3.815,1.131-9.739-2.6-12.181a6.866,6.866,0,0,0-8.179.764c-1.924,1.718.913,4.538,2.829,2.829Z"/><path class="b" d="M46.282,53.57a6.9,6.9,0,0,0-7.518-1.121,6.564,6.564,0,0,0-3.434,4.418,16.5,16.5,0,0,0,2.4,13.021c1.689,2.513,4.355,4.778,7.588,4.358a2.066,2.066,0,0,0,2-2,2.012,2.012,0,0,0-2-2c-2.279.3-3.771-1.589-4.759-3.411a13.212,13.212,0,0,1-1.616-5.025,8.61,8.61,0,0,1,.864-5.251c-.317.5.513-.449.235-.243a2.052,2.052,0,0,1,.967-.442,2.7,2.7,0,0,1,2.448.525c1.916,1.709,4.754-1.111,2.829-2.829Z"/><path class="b" d="M68.023,79.741a12.288,12.288,0,0,0,5.914,1.38,9.743,9.743,0,0,0,6.074-1.837,2,2,0,0,0,0-2.828,2.06,2.06,0,0,0-2.828,0c.689-.538-.037,0-.256.11-.17.089-.626.23,0,.021-.162.054-.319.122-.481.175q-.308.1-.623.17a4.509,4.509,0,0,0-.725.137c.2-.088.316-.038.014-.008-.132.013-.265.024-.4.033-.319.02-.639.028-.958.027q-.429,0-.858-.031c-.131-.009-.262-.02-.392-.033-.075-.007-.15-.015-.224-.025q-.235-.028.176.024c-.113.055-.519-.093-.645-.121-.207-.045-.411-.1-.614-.159-.176-.053-.348-.116-.522-.175-.453-.155.415.2,0,0q-.323-.151-.639-.319a2,2,0,1,0-2.019,3.454Z"/><path class="b" d="M72.677,66.123a26.283,26.283,0,0,1,.624,2.853l-.072-.532a1.675,1.675,0,0,1,.011.394l.072-.532a.975.975,0,0,1-.044.177l.2-.478a.6.6,0,0,1-.063.114l.313-.405a.578.578,0,0,1-.093.092l.405-.313a1.744,1.744,0,0,1-.226.12l.478-.2a1.7,1.7,0,0,1-.381.112l.531-.072a1.523,1.523,0,0,1-.357,0l.532.072c-.135-.019-.267-.052-.4-.07a1.526,1.526,0,0,0-.8-.036,1.5,1.5,0,0,0-.743.238,2,2,0,0,0-.718,2.736,1.912,1.912,0,0,0,1.2.919c.354.048.7.137,1.059.153a3.483,3.483,0,0,0,1.622-.4,2.458,2.458,0,0,0,1.327-1.606,3.81,3.81,0,0,0-.013-1.67c-.156-.919-.368-1.83-.6-2.731a2.062,2.062,0,0,0-.92-1.2,2,2,0,0,0-2.736.717,2.11,2.11,0,0,0-.2,1.541Z"/><path class="b" d="M58.114,57.9c-.477,1.548-.166,5.109,2.766,5.412,3.876-.023,4.083-4.328,2.778-6.352C62.589,55.3,59.448,54.615,58.114,57.9Z"/><path class="b" d="M89.152,57.9c.477,1.547.166,5.108-2.766,5.411-3.876-.023-4.083-4.328-2.778-6.352C84.676,55.3,87.818,54.615,89.152,57.9Z"/><path class="a" d="M88.366,92.815c1.39,1.557,3.105,3.836,4.466,5.413a4.31,4.31,0,0,1,.935,3.86c-.523,1.044-2.233,8.169-4.4,12.9-4.36-2.067-12.119-9.739-14.556-12.48C75.724,101.862,87.774,93.294,88.366,92.815Z"/><path class="a" d="M58.9,92.815c-1.39,1.557-3.1,3.836-4.466,5.413a4.31,4.31,0,0,0-.935,3.86c.523,1.044,2.2,8.169,4.368,12.9,4.361-2.067,12.151-9.739,14.588-12.48C71.542,101.862,59.492,93.294,58.9,92.815Z"/><path class="b" d="M86.951,94.23a67.87,67.87,0,0,1,4.467,5.412,2.783,2.783,0,0,1,.422.935c.044.18.108.843.15.611a17.65,17.65,0,0,1-.619,1.714,94.1,94.1,0,0,1-3.73,11.078l2.736-.717a34.522,34.522,0,0,1-7.708-5.776,86.54,86.54,0,0,1-6.444-6.391l-.405,3.141c4.657-3.3,9.486-6.46,13.96-10.007a2.013,2.013,0,0,0,0-2.829,2.051,2.051,0,0,0-2.829,0c.816-.646-.233.159-.441.31q-.75.543-1.5,1.082-2.2,1.578-4.4,3.147-3.4,2.424-6.8,4.843a2.037,2.037,0,0,0-.4,3.141,86.47,86.47,0,0,0,6.67,6.595c2.522,2.27,5.215,4.7,8.291,6.2A2.026,2.026,0,0,0,91.094,116c1.832-4.057,2.918-8.335,4.3-12.55.053-.162.35-.993.072-.283a5.318,5.318,0,0,0,.454-1.832,6.469,6.469,0,0,0-1.091-3.763c-.715-1.072-1.646-2.035-2.454-3.039-.848-1.056-1.694-2.115-2.591-3.131C88.071,89.469,85.251,92.306,86.951,94.23Z"/><path class="b" d="M57.486,91.4a72.364,72.364,0,0,0-4.96,6.045,6.628,6.628,0,0,0-1.186,3.731,5.325,5.325,0,0,0,.464,1.989c-.23-.595-.007.046.07.283,1.368,4.216,2.436,8.494,4.267,12.55a2.035,2.035,0,0,0,2.736.718c3.08-1.5,5.778-3.929,8.306-6.2a85.262,85.262,0,0,0,6.686-6.595,2.037,2.037,0,0,0-.4-3.141q-3.406-2.415-6.8-4.843-2.2-1.57-4.4-3.147-.753-.54-1.5-1.082c-.22-.159-1.244-.946-.441-.31a2.065,2.065,0,0,0-2.829,0,2.014,2.014,0,0,0,0,2.829c4.474,3.547,9.3,6.7,13.96,10.007l-.405-3.141a85.412,85.412,0,0,1-6.459,6.391,34.743,34.743,0,0,1-7.724,5.776l2.736.717a91.805,91.805,0,0,1-3.7-11.078c-.166-.546-.478-1.126-.6-1.673-.063-.282.047.166.047-.008a2.737,2.737,0,0,1,.043-.483,2.856,2.856,0,0,1,.465-1.1,60.686,60.686,0,0,1,4.467-5.412C62.014,92.307,59.2,89.468,57.486,91.4Z"/><path class="b" d="M71.629,104.444V244.27c0,2.574,4,2.579,4,0V104.444c0-2.574-4-2.578-4,0Z"/><path class="b" d="M116.709,147.116c.392,15.318.481,30.647.635,45.968.155,15.386.307,30.772.375,46.158a21.728,21.728,0,0,0,.008,2.64c.012.086-.05.331,0,.406l.816-.86-.1.007c-.047-.016-.117.018-.167.011a4.871,4.871,0,0,0-.842.043c-1.9.086-3.8.129-5.7.174-6.637.155-13.275.245-19.912.327-16.064.2-32.132.334-48.2.268-4.531-.018-9.1.056-13.622-.23a2.931,2.931,0,0,0-.639-.049c.7-.92.46.986.734.4a1.449,1.449,0,0,0,0-.416q0-.542.005-1.084.017-2.9.052-5.8.1-9.193.23-18.387.075-5.546.156-11.091c.037-2.575-3.963-2.576-4,0-.173,11.962-.389,23.925-.441,35.888-.01,2.337.806,4.259,3.415,4.5.606.056,1.217.074,1.825.1,2.187.08,4.376.1,6.563.128,15.812.168,31.63.012,47.441-.155q11.2-.117,22.4-.316c2.491-.048,4.983-.1,7.474-.177,2.069-.064,5.024.26,6.147-1.876a7.122,7.122,0,0,0,.362-3.333q-.006-1.651-.015-3.3-.025-4.73-.062-9.46-.094-13.049-.22-26.1c-.159-16.917-.3-33.836-.636-50.751q-.036-1.816-.081-3.633c-.066-2.57-4.067-2.58-4,0Z"/><path class="b" d="M100.444,95.024c5.46,4.682,8,11.931,9.857,18.668a96.836,96.836,0,0,1,3.329,23.4q.077,3.274-.049,6.551c-.059,1.556.094,3.97-1.871,4.37a20.524,20.524,0,0,1-5.956-.151,41.589,41.589,0,0,1-6.315-1.19,22.869,22.869,0,0,1-2.94-.9,1.159,1.159,0,0,1-.895-1.413c.108-2.227.472-4.465.7-6.682q.717-6.882,1.335-13.773a168.174,168.174,0,0,0,.74-24.756c-.147-2.559-4.148-2.576-4,0a164.085,164.085,0,0,1-.674,24.018q-.691,7.752-1.5,15.494c-.235,2.237-.883,4.777-.52,7.015.373,2.3,2.183,3.433,4.242,4.125a45.285,45.285,0,0,0,14.233,2.306c2.128,0,4.245-.388,5.677-2.1,1.536-1.84,1.658-4.073,1.745-6.365a104.924,104.924,0,0,0-2.484-27.274c-1.951-8.544-4.944-18.27-11.824-24.169-1.945-1.667-4.787,1.149-2.829,2.828Z"/><path class="b" d="M43.985,92.2c-6.189,5.306-9.116,13.69-11.132,21.347A102.666,102.666,0,0,0,29.6,140.1c.021,4.185-.439,10.336,4.7,11.723,2.192.591,4.747.28,6.972.057a48.765,48.765,0,0,0,7.159-1.241c1.944-.5,4.427-.973,5.9-2.457,1.808-1.827,1.288-4.28.995-6.563-.639-4.966-1.088-9.955-1.5-14.944a195.406,195.406,0,0,1-.83-27.592c.15-2.571-3.851-2.563-4,0a147.75,147.75,0,0,0,.275,20.86c.383,4.567.732,9.136,1.171,13.7.218,2.257.458,4.513.733,6.764.139,1.128.311,2.253.439,3.382.09.8.238,1.43-.531,1.838a22.13,22.13,0,0,1-5.746,1.627,41.614,41.614,0,0,1-6.608.811c-1.5.064-3.747.47-4.576-1.124a6.011,6.011,0,0,1-.442-2.588q-.08-1.773-.1-3.548a99.491,99.491,0,0,1,2.635-24.33c1.825-7.611,4.425-16.181,10.572-21.451,1.958-1.678-.883-4.5-2.828-2.828Z"/><path class="b" d="M29.246,230.189q16.485,0,32.969-.042,19.51-.034,39.022-.066,9.236-.013,18.472-.016c2.573,0,2.578-4,0-4q-17.552,0-35.1.042-19.213.033-38.427.066-8.467.012-16.935.016c-2.574,0-2.578,4,0,4Z"/><path class="b" d="M9.26,131.4c-2.21,9.742-4.011,19.56-6.079,29.331-.543,2.567-1.24,5.124-1.689,7.708a26.034,26.034,0,0,0,.1,9.265,23.231,23.231,0,0,0,6.793,12.762,45.056,45.056,0,0,0,14.282,9.267,2.015,2.015,0,0,0,2.46-1.4,2.047,2.047,0,0,0-1.4-2.46,40.246,40.246,0,0,1-11.48-7.291,20.306,20.306,0,0,1-4.12-4.574,22,22,0,0,1-2.522-6.594,20.656,20.656,0,0,1-.174-8.382c.464-2.316,1.049-4.613,1.54-6.925.865-4.07,1.652-8.156,2.458-12.238q1.723-8.73,3.688-17.408c.568-2.507-3.287-3.577-3.857-1.064Z"/><path class="b" d="M137.663,144.477c1.045,7.775,2.442,15.5,3.406,23.281.605,4.888,1.43,9.977-.135,14.766a15.9,15.9,0,0,1-7.077,8.939,19.413,19.413,0,0,1-13.529,1.626c-2.506-.573-3.575,3.282-1.063,3.857a24.5,24.5,0,0,0,14.186-.912,18.864,18.864,0,0,0,9.861-8.943c2.465-4.7,2.8-9.768,2.265-14.968-.526-5.153-1.255-10.292-2.039-15.412-.678-4.432-1.421-8.853-2.018-13.3a2.013,2.013,0,0,0-2.461-1.4,2.054,2.054,0,0,0-1.4,2.46Z"/><path class="b" d="M46.68,54.02c-1.112-2.261-1.979-4.53-1.166-7.035a9.418,9.418,0,0,1,4.41-4.928c4.271-2.585,9.258-3.391,14.157-3.8A114.473,114.473,0,0,1,81.154,38.1c4.925.32,10.068.84,14.548,3.067,2.28,1.134,4.521,2.605,5.675,4.957,1.331,2.713.435,5.343-.819,7.892-1.132,2.3,2.317,4.332,3.454,2.019,1.453-2.953,2.533-5.945,1.8-9.266a12.181,12.181,0,0,0-4.7-6.955c-4.741-3.6-10.648-4.828-16.445-5.425A111.014,111.014,0,0,0,64.741,34.2c-5.878.456-11.9,1.35-17.008,4.508a13.485,13.485,0,0,0-6.076,7.214c-1.145,3.559-.01,6.906,1.569,10.118,1.136,2.31,4.587.285,3.454-2.019Z"/><path class="b" d="M83.6,40.754a22.258,22.258,0,0,1,7.27,5.294,30.821,30.821,0,0,1,3.019,3.619c.465.664.9,1.346,1.305,2.051.182.32.357.644.522.974.1.192.186.387.279.58a1.319,1.319,0,0,1,.127.289,2.063,2.063,0,0,0,2.46,1.4,2.013,2.013,0,0,0,1.4-2.46,29.533,29.533,0,0,0-6.112-9.1,25.73,25.73,0,0,0-8.249-6.1,2.065,2.065,0,0,0-2.736.717,2.015,2.015,0,0,0,.718,2.737Z"/><path class="b" d="M51.426,54.2a82.691,82.691,0,0,1,6.99-6.882,45.468,45.468,0,0,1,3.933-3.127,21.533,21.533,0,0,0,1.884-1.2l.256-.143q-1.671-1.145-1.271-.056a6.773,6.773,0,0,0-.015,1.267,3.072,3.072,0,0,0,3.732,2.988,16.891,16.891,0,0,0,3.95-2.15,83.467,83.467,0,0,1,9.06-4.84,2.012,2.012,0,0,0,.717-2.736,2.051,2.051,0,0,0-2.736-.717,84.739,84.739,0,0,0-9.217,4.931c-.678.4-1.356.794-2.038,1.185a3.691,3.691,0,0,0-.765.435q1.384,1.579,1.324.395a5.326,5.326,0,0,0-.012-.758c-.124-1.823-1.022-3.884-3.153-3.881-1.419,0-2.906,1.237-4.015,2.024-1.445,1.026-2.83,2.143-4.17,3.3A82.305,82.305,0,0,0,48.6,51.371c-1.72,1.908,1.1,4.745,2.829,2.829Z"/><path class="d" d="M7.652,170.815c-.016-.293-.023-.59-.023-.89,0-19.546,47.081-22.571,66-22.571,16.876,0,66,0,66,22.571,0,22.018-51.946,24.127-69.514,24.127C52.777,194.052,8.8,192.831,7.652,170.815Z"/><path class="b" d="M141.629,169.925c-.068-10.124-9-15.839-17.58-18.876-10.591-3.75-22.158-4.81-33.31-5.358-9.034-.444-18.133-.514-27.17-.092-11.788.551-23.78,1.763-35.178,4.941a50.191,50.191,0,0,0-14.576,6.185c-3.564,2.4-6.782,5.7-7.8,10a14.307,14.307,0,0,0-.381,3.2c-.021,2.575,3.979,2.577,4,0a6.969,6.969,0,0,1,.3-2.4,7.108,7.108,0,0,1,.881-2.195,13.8,13.8,0,0,1,3.639-4.144,25.916,25.916,0,0,1,2.4-1.659c.984-.6,2-1.149,3.04-1.653a51.032,51.032,0,0,1,6.962-2.7c10.745-3.4,22.152-4.7,33.361-5.39,8.7-.532,17.438-.542,26.148-.265,10.6.337,21.355,1.139,31.639,3.864a42,42,0,0,1,12.989,5.431,16,16,0,0,1,2.278,1.784q.51.468.985.973c.156.166.308.334.457.506.068.079.533.65.354.417a11.275,11.275,0,0,1,2.287,4.795,10.307,10.307,0,0,1,.276,2.64c.017,2.573,4.017,2.579,4,0Z"/><path class="f" d="M54.629,150.085c6.768-.026,32.978,11.047,33.888,11.323,2.283.691,13.358-3.916,13.434-4.176.042-.145-2.46-7.661-2.439-7.917.03-.373,5.166-1.844,4.8-2.451-2.049-3.381-5.113-7.08-8.638-8.763,1.816-1.3,4.257-1.928,3.349-3.108-1.612-2.1-4.5-4.755-7.925-5.485a21.517,21.517,0,0,0-15.351,1.8,88.772,88.772,0,0,0-21.63,14.317"/><path class="b" d="M54.629,152.085c.31,0,.617.028.926.051.393.029.126.011.158.016.224.035.448.071.671.112.952.172,1.894.4,2.829.642,2.36.617,4.686,1.364,6.995,2.145,4.971,1.682,9.876,3.555,14.755,5.484q2.576,1.017,5.141,2.057a8.934,8.934,0,0,0,2.743.875c2.143.132,4.464-.742,6.46-1.415,2.228-.749,4.432-1.6,6.58-2.551.836-.372,1.723-.757,1.992-1.737a5.131,5.131,0,0,0-.487-2.709c-.4-1.269-.811-2.536-1.214-3.805-.166-.524-.333-1.048-.493-1.574-.092-.3-.249-1.347-.173-.361l-.273,1.009c-.246.548-.93.609-.185.384.269-.081-.279.116.033-.013.133-.055.267-.106.4-.159.707-.278,1.415-.548,2.115-.845,1.361-.576,3.135-1.484,2.656-3.3a9.325,9.325,0,0,0-1.639-2.683,33.919,33.919,0,0,0-2.24-2.818,19.39,19.39,0,0,0-5.7-4.515v3.454c1.4-.961,3.6-1.615,4.3-3.308.772-1.867-.824-3.42-2.047-4.642a16.643,16.643,0,0,0-4.811-3.431,20.321,20.321,0,0,0-6.491-1.487,23.8,23.8,0,0,0-12.1,2.25,85.241,85.241,0,0,0-11.561,6.354A97.068,97.068,0,0,0,52.7,144.21c-1.935,1.706.9,4.526,2.828,2.828A89.524,89.524,0,0,1,72.8,135.021a34.364,34.364,0,0,1,9.766-3.929,17.55,17.55,0,0,1,9.889.972,13.608,13.608,0,0,1,4.127,3.136c.172.186.514.771.74.852.523.187-.033-1.465.166-1.377.009,0-.255.178-.264.182a14.63,14.63,0,0,0-2.564,1.517c-1.149.785-1.44,2.737,0,3.454a15.738,15.738,0,0,1,4.467,3.432,23.932,23.932,0,0,1,1.8,2.137,16.439,16.439,0,0,1,1.475,2.056V146.39c.114-.708,1.02-1.007.188-.6-.334.162-.494.233-.724.327-.7.289-1.414.546-2.114.836-1.555.643-2.536,1.544-2.05,3.365.372,1.392.863,2.76,1.3,4.132.228.714.458,1.428.68,2.143.077.247.145.5.228.744.1.3.068.72.04-.1l.273-1.009c.736-1.037.847-.7.312-.483-.251.1-.493.23-.741.339-.562.248-1.21.511-2.058.842-1.89.738-3.807,1.43-5.761,1.983a18.655,18.655,0,0,1-2.4.555c.4-.057-.451.01-.6.017-.3.014.369.133,0-.021-.641-.27-1.3-.513-1.942-.773-7.118-2.87-14.264-5.712-21.566-8.086-3.426-1.114-7.191-2.491-10.841-2.511-2.574-.015-2.577,3.985,0,4Z"/><path class="b" d="M76.119,141.748c-.561.076.007,0,.127-.008.171-.018.342-.033.514-.046.294-.022.589-.036.884-.044a18.294,18.294,0,0,1,1.916.049,5.169,5.169,0,0,1,.88.09c-.534-.138,0,0,.125.023.17.028.339.058.508.09a18.919,18.919,0,0,1,1.861.458A2,2,0,0,0,84,138.5a21.117,21.117,0,0,0-8.943-.612,1.992,1.992,0,0,0-1.2.919,2,2,0,0,0,.718,2.737,2.363,2.363,0,0,0,1.541.2Z"/><path class="g" d="M59.172,159.383a8.023,8.023,0,0,0,1.017-1.822c1.529-3.871-.449-8.276-3.126-11.463a11.562,11.562,0,0,0-4.454-3.533c-3.907-1.526-8.234.51-11.843,2.648a103.769,103.769,0,0,0-21.992,16.719,17.314,17.314,0,0,0-3.66,5.171,5.627,5.627,0,0,0,.687,5.87c1.636,1.883,4.305,2.163,6.79,1.939,10.592-.955,20.42-5.725,29.869-10.607C54.937,163.025,57.558,161.569,59.172,159.383Z"/><path class="b" d="M60.9,160.393c2.638-3.757,2.074-8.4-.022-12.264-1.984-3.658-5.336-7.34-9.639-7.966-4.565-.664-8.821,1.72-12.592,3.987a119.553,119.553,0,0,0-10.087,6.692A106.638,106.638,0,0,0,19,158.932c-3,2.852-6.652,6.565-6.388,11.063s4.111,6.877,8.285,6.978c4.429.107,9.108-1.117,13.3-2.447a103.539,103.539,0,0,0,14.377-6.012c4.375-2.159,9.267-4.16,12.324-8.121a2.011,2.011,0,0,0-.717-2.737,2.051,2.051,0,0,0-2.736.718c-2.1,2.716-5.875,4.16-8.841,5.661-3.521,1.782-7.082,3.506-10.756,4.951a62.883,62.883,0,0,1-11.295,3.365c-2.552.483-7.191,1.673-9.211-.657-2.268-2.615.91-6.321,2.7-8.191a86.938,86.938,0,0,1,8.183-7.375,94.4,94.4,0,0,1,8.083-5.813c3.02-1.957,6.171-4.168,9.55-5.452a8.62,8.62,0,0,1,5.813-.515,9.994,9.994,0,0,1,4.326,3.6c2.337,3.03,3.843,7.016,1.447,10.429C55.962,160.485,59.429,162.486,60.9,160.393Z"/><path class="b" d="M48.072,152.673c.233.273.461.55.68.834l-.313-.405a13.53,13.53,0,0,1,1.726,2.861l-.2-.477a12.706,12.706,0,0,1,.615,1.854,2.019,2.019,0,0,0,2.46,1.4,2.041,2.041,0,0,0,1.4-2.46,13.041,13.041,0,0,0-1.369-3.45,21.12,21.12,0,0,0-2.165-2.983,2.019,2.019,0,0,0-1.415-.585,2.039,2.039,0,0,0-1.414.585,2.014,2.014,0,0,0-.586,1.415,2.239,2.239,0,0,0,.586,1.414Z"/><path class="b" d="M42.45,156.623a32.167,32.167,0,0,1,2.6,4.323,2,2,0,0,0,3.656-.478,2.187,2.187,0,0,0-.2-1.541,32.23,32.23,0,0,0-2.6-4.323,2.172,2.172,0,0,0-1.2-.919,2.043,2.043,0,0,0-1.541.2,2.017,2.017,0,0,0-.919,1.195,1.956,1.956,0,0,0,.2,1.541Z"/><path class="h" d="M92.962,129.46a10.82,10.82,0,0,1-4.811.563c-4.429-.527-10.167,2.086-13.174,6.977a16.221,16.221,0,0,0,5.908,20.619,23.782,23.782,0,0,0,9.678,2.963,16.228,16.228,0,0,0,6.772-.7c3.136-1.012,6.856-2.734,9.2-5.251a16.285,16.285,0,0,0,4.3-12.946c-.518-4.773-2.865-9.474-7.539-11.626A13.163,13.163,0,0,0,92.962,129.46Z"/><path class="b" d="M92.43,127.531a9.872,9.872,0,0,1-3.169.558c-.921-.006-1.825-.162-2.748-.121a15.088,15.088,0,0,0-5.081,1.149c-3.476,1.433-7.059,4.148-8.542,7.706a18.409,18.409,0,0,0,4.481,20.643,21.341,21.341,0,0,0,10.9,4.8,21.783,21.783,0,0,0,6.664.2,24.354,24.354,0,0,0,6.3-1.95,19.142,19.142,0,0,0,9.4-8.149,18.793,18.793,0,0,0,2.01-12.089,16.324,16.324,0,0,0-6.15-10.637,15.549,15.549,0,0,0-14.061-2.114c-2.432.806-1.39,4.671,1.063,3.857a11.2,11.2,0,0,1,14.935,8.232,14.761,14.761,0,0,1-.655,9.538,14.5,14.5,0,0,1-6.912,7.126,18.158,18.158,0,0,1-10.469,2.278,19.675,19.675,0,0,1-9.374-3.256,14.32,14.32,0,0,1-4.93-15.63,11.449,11.449,0,0,1,6.721-6.831,10.936,10.936,0,0,1,4.46-.886,17.557,17.557,0,0,0,6.224-.571C95.931,130.6,94.888,126.731,92.43,127.531Z"/><path class="b" d="M88.739,129.44a8.3,8.3,0,0,0-1.22,1.251,10.825,10.825,0,0,0-1.223,1.844,1.486,1.486,0,0,0-.237.743,1.526,1.526,0,0,0,.036.8,2.238,2.238,0,0,0,.919,1.195,2.022,2.022,0,0,0,1.541.2,1.992,1.992,0,0,0,1.195-.919,8.489,8.489,0,0,1,.868-1.385l-.313.4a8.466,8.466,0,0,1,1.262-1.305,2.054,2.054,0,0,0,0-2.828,2.012,2.012,0,0,0-1.414-.586l-.532.071a1.992,1.992,0,0,0-.882.515Z"/><path class="b" d="M90.63,132.826l.1.078-.405-.312a8.439,8.439,0,0,1,1.491,1.495l-.313-.405a8.656,8.656,0,0,1,.665,1.009,2.057,2.057,0,0,0,1.195.919,1.506,1.506,0,0,0,.8.036,1.486,1.486,0,0,0,.743-.237,2.027,2.027,0,0,0,.92-1.2,2.123,2.123,0,0,0-.2-1.541,10.888,10.888,0,0,0-1.307-1.814,10.719,10.719,0,0,0-1.669-1.486,1.492,1.492,0,0,0-.744-.237,2.053,2.053,0,0,0-1.993.954,2.02,2.02,0,0,0-.2,1.542l.2.477a2.008,2.008,0,0,0,.718.718Z"/><path class="b" d="M84.151,126.7a18.464,18.464,0,0,1,2.765,2.866l-.312-.405q.426.555.812,1.14a2.111,2.111,0,0,0,1.2.919,2,2,0,0,0,2.46-1.4,2.014,2.014,0,0,0-.2-1.542,20.127,20.127,0,0,0-3.891-4.41,2.144,2.144,0,0,0-1.414-.586,2.032,2.032,0,0,0-1.414.586,2.012,2.012,0,0,0-.586,1.414,1.96,1.96,0,0,0,.586,1.414Z"/><path class="b" d="M92.071,122.541q-.944,2.952-1.8,5.931a2,2,0,0,0,3.857,1.064q.858-2.979,1.8-5.931a2.018,2.018,0,0,0-1.4-2.461,2.045,2.045,0,0,0-2.461,1.4Z"/><path class="g" d="M97.439,173.149a15.963,15.963,0,0,1-2.849-12.066A17.938,17.938,0,0,1,104.5,147.43a13.942,13.942,0,0,1,10.093-.383,27.96,27.96,0,0,1,1.929-2.754c.713-.568,1.053-.484,1.825,0,1.375.866,3.428,2.148,4.756,3.084a.382.382,0,0,1,.185.519c-.244.973-.507,1.985-.69,2.758a13.535,13.535,0,0,1,4.82,6.146,17.275,17.275,0,0,1-1.981,16.208c-3.381,4.563-11.145,8.149-18.167,6.347a18.855,18.855,0,0,1-6.981-3.31A16.387,16.387,0,0,1,97.439,173.149Z"/><path class="b" d="M99.166,172.14c-3.763-5.1-3.529-12.126-.118-17.357,3.22-4.937,9.224-7.97,15.012-5.807a2.043,2.043,0,0,0,2.259-.919c.562-.733.963-2.011,1.83-2.4l-1.01.273c-.2.025-.123-.1.2.089.2.117.389.244.583.367q.738.464,1.473.931A13.786,13.786,0,0,1,121.884,149l-.586-1.414a14.254,14.254,0,0,1-.63,2.543,2.091,2.091,0,0,0,.919,2.259c5.623,4.19,6.406,12.709,2.876,18.5-3.391,5.558-10.787,7.858-16.917,6.508a15.514,15.514,0,0,1-8.693-5.652,2.01,2.01,0,0,0-2.828,0,2.052,2.052,0,0,0,0,2.829,20.021,20.021,0,0,0,31.365-.858,18.684,18.684,0,0,0,3.114-12.2,17.021,17.021,0,0,0-6.9-12.578l.919,2.258c.394-1.636,1.47-3.863-.008-5.222a28.235,28.235,0,0,0-4.1-2.732c-1.421-.9-2.9-1.872-4.571-.9-1.425.831-2.016,2.45-2.976,3.7l2.259-.919c-7.372-2.755-15.137,1.189-19.327,7.341-4.307,6.324-4.7,15.434-.085,21.7a2.061,2.061,0,0,0,2.737.717A2.014,2.014,0,0,0,99.166,172.14Z"/><path class="b" d="M107.1,150.874a22.029,22.029,0,0,0-4.086,4.709,16.886,16.886,0,0,0-2.236,6.466,2.053,2.053,0,0,0,1.4,2.46,2.023,2.023,0,0,0,2.46-1.4,20.632,20.632,0,0,1,.686-3q.117-.371.252-.737c.05-.135.1-.267.155-.4-.065.172-.084.186,0,.007a11.408,11.408,0,0,1,.742-1.383c.246-.386.506-.764.775-1.134.055-.076.113-.151.168-.227.146-.2-.25.308-.016.021.132-.16.263-.32.4-.476a22.44,22.44,0,0,1,2.134-2.083,2.012,2.012,0,0,0,0-2.829,2.048,2.048,0,0,0-2.828,0Z"/><path class="b" d="M111.921,154.245a8.827,8.827,0,0,0-1.45,1.307,11.26,11.26,0,0,0-1.172,1.639,12.338,12.338,0,0,0-1.282,3.208,2.1,2.1,0,0,0,.2,1.541,2,2,0,0,0,3.655-.478,10.849,10.849,0,0,1,.551-1.664l-.2.478a9.516,9.516,0,0,1,1.2-2.062l-.313.405a6.928,6.928,0,0,1,1.178-1.187l-.4.313.06-.046a2.2,2.2,0,0,0,.919-1.2,2,2,0,0,0-1.4-2.461,1.939,1.939,0,0,0-1.541.2Z"/><path class="i" d="M28.216,173.216a11.385,11.385,0,0,1,3.685-8.032,12.79,12.79,0,0,1,11.553-3.333,11.161,11.161,0,0,1,6.033,4.074,21.133,21.133,0,0,1,2.459,4.778,13.907,13.907,0,0,1,.058,6.7,11.658,11.658,0,0,1-7.988,8,13.136,13.136,0,0,1-12.993-4.392,13.42,13.42,0,0,1-2.475-4.919A11.714,11.714,0,0,1,28.216,173.216Z"/><path class="b" d="M30.216,173.216c.141-4.629,3.908-8.4,8.291-9.4a9.222,9.222,0,0,1,10.429,5.029,11.487,11.487,0,0,1,1.43,6.186,9.2,9.2,0,0,1-2.186,5.39,9.458,9.458,0,0,1-10.1,2.886,10.622,10.622,0,0,1-7.866-10.094c-.013-2.573-4.013-2.579-4,0a14.572,14.572,0,0,0,8.793,13.224c5.1,2.182,10.932,1.623,15.079-2.228a13.92,13.92,0,0,0,3.069-15.773,15.254,15.254,0,0,0-4.957-6.516,12.562,12.562,0,0,0-8.773-2.278c-6.976.727-12.993,6.4-13.211,13.571C26.138,175.791,30.138,175.788,30.216,173.216Z"/><path class="f" d="M100.541,159.81a48.9,48.9,0,0,0-.259-7.956,6.524,6.524,0,0,0-.662-2.394,5.594,5.594,0,0,0-2.458-2.01,19.531,19.531,0,0,0-12.886-1.594l-.064-3.969c-7.947-.845-18.954,2.672-23.869,10.031,0,0-11.684,15.316,7.065,21.329C98.39,183.181,100.541,159.81,100.541,159.81Z"/><path class="j" d="M85.558,156.276c-2.2.037-4.74,2.143-6.017,3.557-.619.686-.942,1.209-.783,1.253A12.892,12.892,0,0,1,83.5,163.12a4.361,4.361,0,0,1,1.692,4.519c-.117.359-.3.76-.113,1.09a1.2,1.2,0,0,0,.61.439c4.169,1.862,7.032,5.92,8.5,10.244s1.719,8.951,1.959,13.511a11.015,11.015,0,0,1,.013,1.558c2.375-1.809,4.5-3.429,4.5-3.429,6.055-7.151,7.151-18.088,2.557-25.3C98.934,159.036,93.211,156.149,85.558,156.276Z"/><path class="b" d="M83.826,158.354c5.776-.382,11.219.925,15.265,5.276a18.554,18.554,0,0,1,4.592,16.4,21.363,21.363,0,0,1-4.442,9.6c-1.635,1.966,1.179,4.811,2.828,2.829a25.48,25.48,0,0,0,5.56-20.745,21.787,21.787,0,0,0-12.2-15.589,24.708,24.708,0,0,0-11.607-1.779c-2.556.169-2.575,4.17,0,4Z"/><path class="f" d="M63.526,200.729a33.2,33.2,0,0,1-10.657-6.842,20.358,20.358,0,0,1-4.632-7.509,31.98,31.98,0,0,1,2.42-25.525c1.8-3.2,4.508-6.285,8.136-6.851,1.951-.3,4.063.833,6.011.509,1.543-.257,2.942-1.678,4.494-1.482,4.446.56,5.938,8.237,8.032,7.644,2.063.645,4.424,1.048,6.166,2.447a4.361,4.361,0,0,1,1.692,4.519c-.117.359-.3.76-.113,1.09a1.2,1.2,0,0,0,.61.439c4.169,1.862,7.032,5.92,8.5,10.244s1.719,8.951,1.959,13.511c.025.478-.206,3.628-2.31,5.018a28.2,28.2,0,0,1-16.244,4.805C73.258,202.722,68.609,202.67,63.526,200.729Z"/><path class="b" d="M76.009,156.413c-1.332-2.141-2.95-4.4-5.485-5.162a5.36,5.36,0,0,0-3.736.284c-1.2.508-2.09,1.153-3.443.992a34.653,34.653,0,0,0-3.764-.577,9.066,9.066,0,0,0-3.863.948,14.817,14.817,0,0,0-5.6,5.059c-6.026,8.488-7.261,21.091-3.149,30.622,3.9,9.03,13.8,14.617,23.269,15.806a45.322,45.322,0,0,0,13.4-.173,29.667,29.667,0,0,0,8.186-2.756c2.174-1.1,4.4-2.37,5.44-4.68.979-2.184.871-4.26.721-6.594a47.348,47.348,0,0,0-1.534-10.215,22.926,22.926,0,0,0-3.821-7.667,16.939,16.939,0,0,0-2.869-2.938A16.282,16.282,0,0,0,88,168.119a8.374,8.374,0,0,1-1.511-.805L87,168.2l-.078-.349v1.063a8.539,8.539,0,0,0,.291-3.4,6.8,6.8,0,0,0-1.643-3.162c-1.589-1.794-4-2.549-6.227-3.177-2.482-.7-3.541,3.159-1.063,3.857,1.709.481,5.008,1.233,5.059,3.548a6.554,6.554,0,0,1-.274,1.272,2.68,2.68,0,0,0,.592,2.295,12.722,12.722,0,0,0,2.786,1.722c4.042,2.644,5.969,7.486,6.833,12.042a61.291,61.291,0,0,1,.815,8.1c.075,1.381.118,2.692-.945,3.893a10.438,10.438,0,0,1-2.955,1.9,23.843,23.843,0,0,1-3.686,1.564,27.429,27.429,0,0,1-7.639,1.362,43.209,43.209,0,0,1-11.157-.815,29.073,29.073,0,0,1-12.344-6.473c-7.2-6.195-8.033-17.3-5.408-25.9a26.3,26.3,0,0,1,3.613-7.559c1.3-1.824,3.267-3.762,5.611-4.016,1.327-.144,2.719.411,4.032.553a7.631,7.631,0,0,0,4.33-.93c1.031-.5,1.672-.8,2.682-.062a9.943,9.943,0,0,1,2.327,2.911c1.357,2.181,4.819.175,3.453-2.019Z"/><path class="b" d="M62.07,152.927c4.628-6.78,14.248-9.822,22.142-9.04l-2-2,.064,3.969a2.028,2.028,0,0,0,2.532,1.928,17.154,17.154,0,0,1,11.98,1.733c1.52.894,1.544,2.414,1.666,4.032a51.5,51.5,0,0,1,.087,6.261c-.119,2.574,3.881,2.568,4,0a47.61,47.61,0,0,0-.184-7.341c-.285-2.606-.941-4.73-3.241-6.218-4.423-2.859-10.326-3.386-15.371-2.324l2.531,1.929-.064-3.969a2.056,2.056,0,0,0-2-2c-9.37-.928-20.191,3.1-25.6,11.021-1.455,2.132,2.009,4.135,3.454,2.019Z"/><path class="b" d="M61.3,186.043a33.722,33.722,0,0,1,7.948-18.386c1.72-1.908-1.1-4.745-2.828-2.829a37.99,37.99,0,0,0-9.12,21.215,2.013,2.013,0,0,0,2,2,2.045,2.045,0,0,0,2-2Z"/><path class="b" d="M64.515,190.148a28.476,28.476,0,0,0,15.252-5.24,2.056,2.056,0,0,0,.717-2.736,2.015,2.015,0,0,0-2.736-.718,24.7,24.7,0,0,1-13.233,4.694,2.042,2.042,0,0,0-2,2,2.02,2.02,0,0,0,2,2Z"/><path class="d" d="M14.862,190.422a27.118,27.118,0,0,1-3.067-8.2s0-.683,0-1.682C23.33,193.22,55.8,194.052,70.115,194.052c14.174,0,50.728-1.373,64.321-13.468,0,.964,0,1.638,0,1.638s-3.832,33.848-60.8,33.07C34.947,215.82,20.287,200.386,14.862,190.422Z"/><path class="b" d="M9.867,182.754c.621,4.282,2.939,8.586,5.371,12.076,6.539,9.381,16.678,15.368,27.475,18.652a97.914,97.914,0,0,0,27.13,3.81c9.864.135,19.762-.221,29.414-2.432,11.5-2.635,22.885-8.055,30.272-17.537,3.215-4.126,5.971-9.121,6.8-14.356q.059-.372.1-.745a2.012,2.012,0,0,0-2-2,2.048,2.048,0,0,0-2,2c-.016.145.133-.746.034-.271-.046.223-.078.449-.124.673a23.839,23.839,0,0,1-.651,2.451q-.267.837-.584,1.656c-.083.216-.451,1.094-.191.491-.148.344-.3.687-.457,1.026a34.4,34.4,0,0,1-2.449,4.382,28.5,28.5,0,0,1-3.551,4.5,41.313,41.313,0,0,1-5.031,4.55,52.963,52.963,0,0,1-16.209,7.987,92.753,92.753,0,0,1-25.806,3.625c-9.537.132-19.1-.166-28.431-2.289-11.207-2.549-21.849-7.574-29.037-16.509-.072-.09-.468-.594-.332-.417s-.241-.323-.309-.414q-.442-.6-.861-1.214-.74-1.088-1.4-2.225-.606-1.047-1.139-2.133-.223-.456-.433-.919c-.067-.147-.131-.295-.2-.442-.264-.591.076.205-.059-.139a39.689,39.689,0,0,1-1.454-4.676,1.9,1.9,0,0,1-.038-.224,2.013,2.013,0,0,0-2.461-1.4,2.051,2.051,0,0,0-1.4,2.46Z"/><path class="b" d="M5.629,169.925c.071,10.927,9.538,17.172,18.84,20.459,10.87,3.841,22.729,4.945,34.18,5.439a256.815,256.815,0,0,0,26.987-.257c11.544-.718,23.317-2.034,34.4-5.481,8.359-2.6,19.138-7.261,21.225-16.821a16.3,16.3,0,0,0,.369-3.339c.018-2.574-3.982-2.577-4,0a11.567,11.567,0,0,1-1.124,4.871,13.151,13.151,0,0,1-3.338,4.243,25.876,25.876,0,0,1-5.185,3.533,44.744,44.744,0,0,1-6.456,2.808c-10.406,3.681-21.595,5.118-32.552,5.955a257.663,257.663,0,0,1-26.158.63c-10.8-.274-21.762-1.1-32.238-3.889a44.346,44.346,0,0,1-13.69-5.78c-3.4-2.3-6.084-5.452-6.966-9.457-.1-.461-.182-.967-.2-1.147-.062-.587-.088-1.176-.092-1.767-.017-2.573-4.017-2.579-4,0Z"/><path class="b" d="M48.09,204.255a172.352,172.352,0,0,0,43.344.54,132.665,132.665,0,0,0,13.849-2.166c2.515-.542,1.45-4.4-1.064-3.857-13.394,2.888-27.379,3.448-41.044,2.881A133.009,133.009,0,0,1,49.153,200.4a2.066,2.066,0,0,0-2.46,1.4,2.016,2.016,0,0,0,1.4,2.461Z"/><path class="b" d="M87.172,200.026c-.009.407-.031.812-.073,1.216-.01.1-.022.2-.034.3.038-.28.041-.306.007-.079-.036.2-.068.4-.108.6a14.391,14.391,0,0,1-.656,2.266c-.039.1-.217.645-.056.157a4.777,4.777,0,0,1-.255.554q-.266.548-.578,1.072t-.667,1.019c-.059.082-.119.164-.18.245q.238-.3.032-.044c-.13.157-.258.313-.392.467a2,2,0,0,0,2.829,2.828,16.677,16.677,0,0,0,4.131-10.6,2,2,0,0,0-4,0Z"/><path class="b" d="M95.591,198.423c.005.767-.011,1.533-.069,2.3q-.021.288-.051.574c-.01.1-.021.191-.032.287q-.042.337.015-.1a4.584,4.584,0,0,1-.188,1.057c-.075.347-.162.691-.264,1.031-.054.18-.113.359-.175.537-.039.108-.229.721-.055.177a7.071,7.071,0,0,1-1.128,1.945,2.009,2.009,0,0,0-.2,1.541,2,2,0,0,0,3.656.477c2.086-2.776,2.518-6.448,2.493-9.82a2,2,0,0,0-4,0Z"/><path class="a" d="M133.281,191.905c1.562-14.944,13.713-13.072,11.774,3.54a21.286,21.286,0,0,1-5.783,13.681c-4.308,4.453-10.592,6.7-15.095,5.68-9.51.11-19.715-13.1-6.875-17.261,2.364-1.214,2.49-6.149,6.3-4.856,1.518-3.226,5.938-2.415,8.167-.345"/><path class="a" d="M14.329,191.347C12.721,175.964.213,177.89,2.209,194.991a21.912,21.912,0,0,0,5.952,14.083c4.436,4.585,10.905,6.9,15.54,5.847,9.79.113,20.3-13.483,7.077-17.768-2.434-1.25-2.563-6.33-6.484-5-1.563-3.321-6.113-2.487-8.408-.355"/><path class="b" d="M135.281,191.905c.283-2.54,1.053-5.6,2.713-7.267a2.587,2.587,0,0,1,.857-.655,2.622,2.622,0,0,1,.29-.146c-.061.028-.382.159-.039.03.095-.035.2-.056.295-.083.372-.1-.26,0-.015-.014.173-.012.343-.01.515-.01.253,0-.283-.073.2.046.511.127-.044-.079.231.069.122.067.6.359.476.271-.146-.108.305.282.378.353s.436.493.229.229a7.243,7.243,0,0,1,.893,1.532,13.186,13.186,0,0,1,.868,3.651,26.484,26.484,0,0,1-1.21,11.108c-2.436,6.794-9.63,13.1-17.25,11.859a21.591,21.591,0,0,1-4.085-.716,12.784,12.784,0,0,1-3.48-1.929,9.454,9.454,0,0,1-3.859-5.715,7.342,7.342,0,0,1,.04-1.223,3.019,3.019,0,0,1,.665-1.466,8.266,8.266,0,0,1,3.673-2.3c1.652-.614,2.562-1.978,3.423-3.439a10.865,10.865,0,0,1,1-1.454c.085-.1.043-.117.28-.163-.1.019-.31-.028.148,0-.05,0,.552.141.556.142a2.021,2.021,0,0,0,2.259-.919c1.014-1.962,3.664-1.146,5.026.059,1.921,1.7,4.76-1.118,2.828-2.828-3.209-2.842-9.015-3.687-11.308.75l2.258-.919a4.768,4.768,0,0,0-5.1,1.282c-.97,1.06-1.539,2.929-2.545,3.664-.32.233-1.711.665-2.356,1a11.129,11.129,0,0,0-2.339,1.635,7.646,7.646,0,0,0-2.385,4.194c-1.243,6.835,6.082,12.935,12.179,14.022a20.478,20.478,0,0,0,12.411-1.3,22.077,22.077,0,0,0,10.648-10.407,28.782,28.782,0,0,0,2.6-13.813c-.134-3.281-.861-7.029-3.3-9.431a5.914,5.914,0,0,0-7.825-.6c-3.352,2.493-4.4,6.975-4.839,10.9a2.012,2.012,0,0,0,2,2,2.047,2.047,0,0,0,2-2Z"/><path class="b" d="M16.329,191.347c-.406-3.656-1.3-7.72-4.032-10.4a6.2,6.2,0,0,0-7.379-1.313C2.2,181.115.858,184.379.357,187.277a26.111,26.111,0,0,0-.248,6.73A31.767,31.767,0,0,0,1.19,200.94c3.025,9.616,12.106,17.121,22.454,16.024a19.65,19.65,0,0,0,5.183-1,18.463,18.463,0,0,0,4.9-2.821c2.656-2.118,4.877-5.159,5.219-8.619.434-4.393-2.849-7.459-6.645-8.948a2.059,2.059,0,0,1-1.382-1.081c-.468-.726-.855-1.5-1.363-2.2a4.987,4.987,0,0,0-5.8-2.076l2.259.92c-2.337-4.533-8.277-3.662-11.549-.761-1.93,1.711.907,4.532,2.828,2.829,1.421-1.26,4.206-2.108,5.267-.05a2.02,2.02,0,0,0,2.259.92,2.239,2.239,0,0,1,.8-.147c-.028,0,.057.014.206.119a5.386,5.386,0,0,1,.843,1.137,11.568,11.568,0,0,0,2.33,3.154c1.294,1.06,3.079,1.255,4.4,2.344a3.942,3.942,0,0,1,1.57,2.6c0-.02.006,1-.022,1.185a12.719,12.719,0,0,1-.394,1.369,10,10,0,0,1-2.111,3.083,13.151,13.151,0,0,1-7.216,3.9,16.7,16.7,0,0,1-9.738-1.006,19.017,19.017,0,0,1-9.024-8.529A24.574,24.574,0,0,1,4,191.963c-.05-2.747.231-5.82,1.873-7.979-.176.232.312-.322.41-.427.32-.341.012-.075.314-.264a4.6,4.6,0,0,1,.619-.341c-.459.2.231-.034.379-.066-.466.1.074.017.272.016.075,0,.392.044.1,0-.316-.047.114.029.176.051a2.75,2.75,0,0,1,.907.442,7.021,7.021,0,0,1,1.991,2.777,17.551,17.551,0,0,1,1.287,5.174,2.06,2.06,0,0,0,2,2,2.013,2.013,0,0,0,2-2Z"/></svg>