<?xml version="1.0" encoding="utf-8"?>
<!-- Uploaded to: SVG Repo, www.svgrepo.com, Generator: SVG Repo Mixer Tools -->
<svg width="800px" height="800px" viewBox="-14.11 0 231.024 231.024" xmlns="http://www.w3.org/2000/svg"><defs><style>.a{fill:#ffffff;}.b{fill:#b29683;}.c{fill:#88c5e9;}.d{fill:#211715;}</style></defs><path class="a" d="M2.4,228.618V2.4h198V228.618"/><path class="b" d="M2.4,154.932v73.692H55.894c-.007-21.271-.007-56.3-.007-77.566H2.4Z"/><path class="c" d="M174.746,62.448h-66.3V92.486h66.3Z"/><path class="d" d="M174.746,60.048h-66.3a2.435,2.435,0,0,0-2.4,2.4V92.486a2.435,2.435,0,0,0,2.4,2.4h66.3a2.435,2.435,0,0,0,2.4-2.4V62.448c0-3.089-4.8-3.094-4.8,0V92.486l2.4-2.4h-66.3l2.4,2.4V62.448l-2.4,2.4h66.3C177.834,64.848,177.839,60.048,174.746,60.048Z"/><path class="d" d="M4.8,228.618V2.4L2.4,4.8h198L198,2.4V228.618c0,3.088,4.8,3.093,4.8,0V2.4A2.435,2.435,0,0,0,200.4,0H2.4A2.435,2.435,0,0,0,0,2.4V228.618c0,3.088,4.8,3.093,4.8,0Z"/><path class="d" d="M19.6,25.12H183.192c3.088,0,3.093-4.8,0-4.8H19.6c-3.089,0-3.094,4.8,0,4.8Z"/><path class="d" d="M2.4,153.458H55.887l-2.4-2.4v77.575c0,3.088,4.8,3.094,4.8,0V151.058a2.435,2.435,0,0,0-2.4-2.4H2.4c-3.088,0-3.093,4.8,0,4.8Z"/><path class="d" d="M2.4,231.024h198c3.089,0,3.094-4.8,0-4.8H2.4c-3.089,0-3.094,4.8,0,4.8Z"/><path class="d" d="M11.692,187.948v3.795a2.477,2.477,0,0,0,.7,1.7,2.4,2.4,0,0,0,3.394,0,2.5,2.5,0,0,0,.7-1.7v-3.795a2.477,2.477,0,0,0-.7-1.7,2.4,2.4,0,0,0-3.394,0,2.494,2.494,0,0,0-.7,1.7Z"/></svg>