<?xml version="1.0" encoding="utf-8"?>
<!-- Uploaded to: SVG Repo, www.svgrepo.com, Generator: SVG Repo Mixer Tools -->
<svg width="800px" height="800px" viewBox="0 -28.73 349.785 349.785" xmlns="http://www.w3.org/2000/svg"><defs><style>.a{fill:#ad7b59;}.b{fill:#211715;}.c{fill:#ffffff;}.d{fill:#f2635f;}</style></defs><path class="a" d="M226.73,215.687c-.008,23.14-.018,37.14-.024,60.508a3.289,3.289,0,0,0,3.28,3.3c24.454,0,88.315.035,114.408.038a3.285,3.285,0,0,0,3.278-3.294c0-23.359.009-37.358.024-60.5a3.289,3.289,0,0,0-3.281-3.3c-19.14,0-91.206-.032-114.407-.038A3.283,3.283,0,0,0,226.73,215.687Z"/><path class="b" d="M224.73,215.687q-.007,24.429-.021,48.859,0,3.288,0,6.577c0,2.073-.382,4.578.217,6.582a5.365,5.365,0,0,0,3.711,3.605,14.07,14.07,0,0,0,3.548.18l14.355,0,37.428.014,38.842.014,15.91,0h3.342a14.979,14.979,0,0,0,3.685-.178,5.328,5.328,0,0,0,3.709-3.606c.583-2.026.218-4.488.218-6.579q0-24.168.019-48.336c0-2.357.117-4.745.005-7.1a5.483,5.483,0,0,0-2.435-4.459c-1.735-1.132-4.011-.837-5.993-.838l-12,0-33.621-.011L258.98,210.4q-13.947,0-27.894-.009a6.916,6.916,0,0,0-3.787.753,5.467,5.467,0,0,0-2.569,4.539c-.13,2.573,3.87,2.566,4,0,.095-1.893,3.13-1.292,4.417-1.291h5.676l14.1,0,34.514.012,33.944.012,13.6,0,5.435,0H342.7a6.784,6.784,0,0,1,2.156.077c1.37.513.835,2.792.835,3.887q0,3.23,0,6.459,0,5.93-.008,11.859-.007,11.155-.01,22.31,0,6.188,0,12.373v3.114c0,.743.223,1.758-.2,2.416-.55.85-1.772.6-2.647.6q-6.99,0-13.98,0l-36.176-.012-37.385-.014-15.706-.006-6.547,0c-.945,0-1.906.052-2.85,0-1.545-.087-1.472-1.249-1.472-2.529q.008-23.429.019-46.856,0-6.208,0-12.418C228.73,213.113,224.73,213.109,224.73,215.687Z"/><path class="b" d="M308.6,220.151q0,19.212,0,38.424v7.67c0,2.574,4,2.578,4,0q0-19.092,0-38.183v-7.911c0-2.574-4-2.578-4,0Z"/><path class="b" d="M336.432,264.235q-5.993,0-11.986.009h-1.379a1.964,1.964,0,0,0-.455,0c.084-.148.954.412.719.718.121-.158,0-.944,0-1.136v-3.416c0-2.573-4-2.578-4,0v2.719a6.581,6.581,0,0,0,.52,3.6c1.187,1.906,3.635,1.515,5.557,1.513l5.678,0,5.346,0c2.574,0,2.578-4,0-4Z"/><path class="b" d="M336.432,246.086q-5.993,0-11.986.009h-1.379a1.973,1.973,0,0,0-.456,0c.085-.149.954.413.72.718.121-.157,0-.943,0-1.136v-3.416c0-2.574-4-2.578-4,0v2.719a6.581,6.581,0,0,0,.52,3.6c1.187,1.906,3.635,1.515,5.556,1.513l5.679,0q2.673,0,5.346,0c2.574,0,2.578-4,0-4Z"/><path class="b" d="M336.432,225.807q-7.551,0-15.1.011c-2.574,0-2.578,4,0,4q7.551-.006,15.1-.011c2.574,0,2.578-4,0-4Z"/><path class="c" d="M225.72,214.117c-.006,22.084-.016,40.043-.022,62.341a4.038,4.038,0,0,0,4.031,4.041c22.228.006,47.579.033,71.4.037a4,4,0,0,0,3.967-4.529c-2.7-20.093-5.9-40.6-9.306-62.528a3.989,3.989,0,0,0-3.933-3.379c-16.646-.006-41.319-.031-62.092-.037A4.049,4.049,0,0,0,225.72,214.117Z"/><path class="b" d="M223.72,214.117q-.009,30.425-.022,60.85c0,2.2.174,4.276,1.883,5.874,1.756,1.643,3.857,1.658,6.118,1.658l14.639.007,30.871.02,15.457.008,7.762,0a6.424,6.424,0,0,0,5.542-2.476c1.355-1.846,1.162-3.792.872-5.935q-.5-3.726-1.028-7.451-1.058-7.537-2.177-15.066-2.287-15.441-4.708-30.864c-.4-2.591-.7-5.224-1.21-7.8a6.032,6.032,0,0,0-3.855-4.488c-1.793-.646-3.942-.361-5.82-.362l-5.956,0q-13.83-.007-27.66-.019l-14.371-.009-7.127,0c-2.165,0-4.488-.279-6.4.942a6.23,6.23,0,0,0-2.807,5.111c-.109,2.573,3.891,2.568,4,0,.073-1.7,1.449-2.054,2.883-2.054l6.623,0,13.43.007,26.087.019,11.657.006h2.442a3.437,3.437,0,0,1,2.206.4,2.308,2.308,0,0,1,.814,1.517c.256,1.291.4,2.612.607,3.913q2.249,14.481,4.449,28.969,2.073,13.8,3.975,27.62c.187,1.374.65,3.11-.928,3.847a6.721,6.721,0,0,1-2.707.175H295.5l-14.236-.007q-14.451-.007-28.9-.018L238.6,278.5l-6.9,0c-1.418,0-3.333.311-3.9-1.393a10.534,10.534,0,0,1-.106-3.126q0-1.949,0-3.9l0-7.112q0-6.857,0-13.715.006-13.933.011-27.866,0-3.637,0-7.273C227.721,211.543,223.721,211.538,223.72,214.117Z"/><path class="c" d="M155.031,248.584l.492.434q14.568-3.906,29.137-7.808-2.128-1.872-4.223-3.779-4.179-3.807-8.224-7.759,2.329-8.3,5.1-16.474-14.566,3.9-29.139,7.807-2.768,8.167-5.1,16.475Q148.912,243.182,155.031,248.584Z"/><path class="d" d="M17.345,267.776A5.123,5.123,0,0,0,18.37,271.6a3.214,3.214,0,0,1,.42.669,6.859,6.859,0,0,1,.679,3.019,4.1,4.1,0,0,1-2.538,3.132,8.782,8.782,0,0,1-4.122.988,13.125,13.125,0,0,1-5.187-.794,12.882,12.882,0,0,1-4.551-2.666,3.629,3.629,0,0,1-.972-3.628,11.048,11.048,0,0,1,2.608-4.582,16.058,16.058,0,0,1,3.534-2.872,10.328,10.328,0,0,1,4.625-1.616,3.59,3.59,0,0,1,3.553,1.544,5.48,5.48,0,0,1,.944,2.8C17.357,267.656,17.351,267.717,17.345,267.776Z"/><path class="b" d="M15.345,267.776a7.554,7.554,0,0,0,1.446,5.032,4.108,4.108,0,0,1,.272.473c-.042-.083-.116-.319.041.113a8.7,8.7,0,0,1,.284.949,1.513,1.513,0,0,1,.1.693c-.029.319.065-.3-.021.056a3.238,3.238,0,0,1-.091.32c.059-.106.057-.1-.006.023a1.913,1.913,0,0,1-.96,1,7.2,7.2,0,0,1-1.953.792,10.673,10.673,0,0,1-4.357.017,13,13,0,0,1-4.447-1.792c-.981-.626-1.907-1.371-1.627-2.6.663-2.9,3.258-5.176,5.74-6.568,1.3-.729,3.174-1.4,4.489-.884-.128-.05-.148-.082.081.078-.246-.172.223.2.24.218a1.545,1.545,0,0,1,.353.491,2.785,2.785,0,0,1,.415,1.586,2.014,2.014,0,0,0,2,2,2.044,2.044,0,0,0,2-2,6.652,6.652,0,0,0-2.25-5.193,6.719,6.719,0,0,0-6.137-1.039A15.6,15.6,0,0,0,4.921,264.8a14.062,14.062,0,0,0-3.954,4.912c-.99,2.16-1.5,4.5-.134,6.642a10.851,10.851,0,0,0,4.957,3.666c4.015,1.729,9.3,2.233,13.071-.408a5.749,5.749,0,0,0,2.463-5.967,7.715,7.715,0,0,0-1.227-3.048,3.745,3.745,0,0,1-.752-2.817,2.016,2.016,0,0,0-2-2A2.04,2.04,0,0,0,15.345,267.776Z"/><path class="b" d="M17.585,272.189,60.8,260.608c2.484-.665,1.43-4.525-1.064-3.857L16.521,268.332c-2.483.665-1.43,4.525,1.064,3.857Z"/><path class="d" d="M76.931,214.746a2.125,2.125,0,0,1-3.261,0c-4.371-5.231-10.776-9.009-18.311-11.067-5.1-1.392-13.391-1.111-17.6.7a26.191,26.191,0,0,0-15.522,17.68,48.177,48.177,0,0,0,1.023,25.893A56.155,56.155,0,0,0,35.4,268.484c9.1,10.206,20.254,16.51,32.357,20.627a23.323,23.323,0,0,0,15.01,0C94.891,285,106.1,278.693,115.2,268.484a56.155,56.155,0,0,0,12.137-20.536,48.177,48.177,0,0,0,1.023-25.893,26.191,26.191,0,0,0-15.522-17.68c-4.2-1.807-12.5-2.088-17.595-.7C87.707,205.737,81.3,209.515,76.931,214.746Z"/><path class="b" d="M75.517,213.332c-.472.486-1.073-.746-1.4-1.1a30.293,30.293,0,0,0-2.966-2.787,37.084,37.084,0,0,0-6.83-4.467,36.641,36.641,0,0,0-15.614-4.167,28.151,28.151,0,0,0-14.513,3.081,28.643,28.643,0,0,0-10.741,10.156,34.119,34.119,0,0,0-4.389,15.411,49.84,49.84,0,0,0,1.89,17.825C24.276,258.3,31.1,268,39.683,275.567a73.1,73.1,0,0,0,13.952,9.65c2.519,1.342,5.112,2.532,7.748,3.625a53,53,0,0,0,8.014,2.82,25.732,25.732,0,0,0,9.522.41,38.494,38.494,0,0,0,8.51-2.533,83.015,83.015,0,0,0,15.054-7.586c9.45-6.127,17.834-14.638,23.066-24.674a51.4,51.4,0,0,0,5.166-33.909,28.537,28.537,0,0,0-6.975-13.819,27.231,27.231,0,0,0-12.314-7.762c-10.283-2.754-21.771.064-30.236,6.306a33.071,33.071,0,0,0-5.673,5.237c-1.654,1.953,1.162,4.8,2.828,2.828a33.008,33.008,0,0,1,26.221-11.325,24.818,24.818,0,0,1,6.679,1.072,22.927,22.927,0,0,1,5.84,3.112,23.682,23.682,0,0,1,8.282,10.323c2,4.877,2.457,10.386,2.26,15.6A47.078,47.078,0,0,1,124.08,251c-3.944,9.688-11.057,18.162-19.324,24.483A73.54,73.54,0,0,1,91.2,283.611c-4.8,2.244-10.12,4.641-15.493,4.738-5.437.1-10.683-2.146-15.551-4.364a74.771,74.771,0,0,1-13.9-8.177,60.615,60.615,0,0,1-19.584-24.427,46.849,46.849,0,0,1-3.685-16.006A38.883,38.883,0,0,1,25.1,219.689a23.483,23.483,0,0,1,8.131-10.467A23.777,23.777,0,0,1,39.078,206a23.629,23.629,0,0,1,6.578-1.148A33,33,0,0,1,71.9,215.744c1.728,1.987,4.5,2.415,6.445.416C80.14,214.313,77.315,211.482,75.517,213.332Z"/><path class="b" d="M91.129,253.061l52.789-14.144c2.484-.666,1.43-4.526-1.063-3.858l-2.618.7c-2.484.665-1.43,4.525,1.064,3.857l2.617-.7-1.063-3.858L90.066,249.2c-2.484.666-1.431,4.526,1.063,3.857Z"/><path class="b" d="M153.617,250a3.725,3.725,0,0,0,1.375.948,4.423,4.423,0,0,0,2.257-.321l3.821-1.024,8.12-2.176,16-4.288a2.016,2.016,0,0,0,.883-3.343q-6.371-5.608-12.447-11.537l.514,1.946q2.336-8.3,5.1-16.475a2.016,2.016,0,0,0-2.46-2.46q-12.061,3.234-24.123,6.464l-3.106.832c-.88.235-2.12.353-2.793,1.026a6.794,6.794,0,0,0-1.124,2.7q-.492,1.478-.968,2.96-1.871,5.816-3.521,11.7a2,2,0,0,0,.514,1.946q5.841,5.7,11.956,11.1c1.922,1.7,4.761-1.12,2.828-2.829q-6.112-5.406-11.956-11.1l.515,1.945q2.336-8.3,5.1-16.474l-1.4,1.4q14.57-3.9,29.139-7.808l-2.46-2.46q-2.766,8.171-5.1,16.475a2.008,2.008,0,0,0,.514,1.946q6.076,5.927,12.447,11.537l.883-3.343-29.136,7.808,1.946.515-.493-.434C154.521,245.473,151.682,248.292,153.617,250Z"/><path class="b" d="M171.545,243.688q-6.369-5.608-12.447-11.537l.515,1.946q2.3-8.171,5.011-16.215c.824-2.445-3.038-3.494-3.858-1.063q-2.71,8.043-5.01,16.215a2.006,2.006,0,0,0,.514,1.946q6.076,5.927,12.447,11.537c1.925,1.695,4.765-1.123,2.828-2.829Z"/><path class="c" d="M245.021,46.87a1.09,1.09,0,0,0-1.1-1.084h-4.874a1.343,1.343,0,0,1-1.352-1.362c.01-4.487.063-18.9.077-25.107a2.432,2.432,0,0,1,2.438-2.432c13.746,0,81.438.018,96.959.019a2.448,2.448,0,0,1,2.448,2.449c.013,7.735.059,20.8.078,25.032a1.351,1.351,0,0,1-1.352,1.371h-4.278a1.1,1.1,0,0,0-1.1,1.091c-.012,6.745-.084,41.749-.089,52.531a1.09,1.09,0,0,1-1.093,1.089H246.148a1.086,1.086,0,0,1-1.093-1.084C245.053,87.574,245.025,53.5,245.021,46.87Z"/><path class="d" d="M254.068,10.921a15.01,15.01,0,0,0-1.617,5.962c19.254.008,52.886.017,72.493.021-.438-6.877-4.948-11.58-11.03-13.875-2.824-1.065-8.4-1.231-11.82-.41a24.825,24.825,0,0,0-12.3,6.525,1.559,1.559,0,0,1-2.19,0,24.821,24.821,0,0,0-12.3-6.525c-3.424-.821-9-.655-11.82.41A17.033,17.033,0,0,0,254.068,10.921Z"/><path class="b" d="M326.27,12.921A18.645,18.645,0,0,0,314.2,1.012c-5.524-1.875-12.148-.958-17.421,1.224a24.863,24.863,0,0,0-7.9,4.987l-.254.251q-.532.45.071.119l.319.136c-.164-.172-.331-.34-.5-.506A20.669,20.669,0,0,0,286.863,5.8a24.187,24.187,0,0,0-3.954-2.529A28.086,28.086,0,0,0,264.933.57a18.454,18.454,0,0,0-13.809,12.351c-.762,2.465,3.1,3.519,3.857,1.063a14.438,14.438,0,0,1,10.395-9.427A23.318,23.318,0,0,1,280.89,6.726a21.238,21.238,0,0,1,3.434,2.131c1.069.83,1.932,2.116,3.249,2.552a3.738,3.738,0,0,0,3.882-1.106,20,20,0,0,1,3.034-2.431,24.289,24.289,0,0,1,15.749-3.618,14.546,14.546,0,0,1,12.175,9.73c.758,2.452,4.621,1.406,3.857-1.063Z"/><path class="b" d="M243.853,47.785q14.837,0,29.675,0l43.653,0h15.79c2.574,0,2.578-4,0-4l-34.151,0-42.4,0-12.568,0c-2.574,0-2.578,4,0,4Z"/><path class="d" d="M297.394,20.582V16.9l-17.393,0v83.575h17.393c0-.342,0-.527,0-.527C297.393,82.615,297.393,40.614,297.394,20.582Z"/><path class="b" d="M278,18.108V99.942c0,2.574,4,2.578,4,0V18.108c0-2.574-4-2.578-4,0Z"/><path class="b" d="M295.393,18.108V99.942c0,2.574,4,2.578,4,0V18.108c0-2.574-4-2.578-4,0Z"/><path class="b" d="M246.949,46.339c-.421-3.094-4.174-2.553-6.412-2.552-.226,0-1.29-.162-1.488,0l.648.638v-.158a1.635,1.635,0,0,0,0-.431q0-1.075,0-2.15.018-6.038.039-12.074.011-3.075.02-6.151,0-1.246.007-2.495c0-.459-.219-1.608.133-1.955s1.7-.125,2.174-.125h2.81l38.446.008,42.514.01h10.219a4.489,4.489,0,0,1,1.105,0c.7.209.449,1.06.45,1.663q.014,6.756.038,13.512.01,3.1.022,6.2,0,1.166.009,2.332c0,.354,0,.707,0,1.061a1.843,1.843,0,0,0,0,.371v.339l.648-.629a6.1,6.1,0,0,0-1.455,0h-1.717c-1.389,0-2.765.055-3.623,1.328-.714,1.06-.582,2.318-.584,3.537l-.015,7.826q-.023,11.232-.042,22.466-.018,9.786-.028,19.573c0,.111-.078.643,0,.738l.907-.757h-.013c-.042-.019-.116.011-.162,0a4.2,4.2,0,0,0-.839,0H249.481c-.936,0-1.9-.067-2.834,0-.049,0-.458-.041-.483,0-.069.113-5.989-4.882.438.371.693.567.453.2.453-.358q0-1.014,0-2.028-.007-21.8-.029-43.6,0-2.989,0-5.98c0-2.573-4-2.578-4,0q.014,20.741.029,41.48,0,4.776,0,9.553a8.517,8.517,0,0,0,.11,2.3,3.209,3.209,0,0,0,2.983,2.263c.126.009.254,0,.379,0,2.614.057,5.236,0,7.851,0h68.945c2.681,0,5.366.05,8.046,0,.137,0,.277.009.414,0a3.262,3.262,0,0,0,2.675-1.528,4.847,4.847,0,0,0,.423-2.538q0-4.425.01-8.851.031-20.909.076-41.817a2.51,2.51,0,0,0,0-.581c-.011-.038.023-.167,0-.207l-.9.811h.676c1.193,0,2.411.07,3.6,0A3.452,3.452,0,0,0,341.292,46a5.741,5.741,0,0,0,.4-2.829q-.025-6.183-.044-12.364-.01-3.631-.02-7.262c0-2,.434-4.638-.617-6.434-1.606-2.748-5.043-2.2-7.75-2.2L293.635,14.9l-43.349-.01h-7.028c-2.838,0-6.4-.247-7.324,3.252-.446,1.689-.166,3.739-.172,5.473q-.009,3.171-.02,6.341-.019,6.167-.039,12.332c0,1.714-.227,3.586,1.285,4.779a4.777,4.777,0,0,0,3.206.724h3.253q1.15.1-.355-.384a2.012,2.012,0,0,0,2.46,1.4A2.053,2.053,0,0,0,246.949,46.339Z"/><path class="c" d="M23.31,22.257c-.007,21.8-.016,50.05-.022,72.021a7.261,7.261,0,0,0,7.265,7.266c25.257.007,79.037.031,105.448.036a7.258,7.258,0,0,0,7.265-7.265c0-21.962.009-50.209.022-72.016a7.256,7.256,0,0,0-7.26-7.268C113.878,15.024,55.255,15,30.577,15A7.26,7.26,0,0,0,23.31,22.257Z"/><path class="b" d="M21.31,22.257,21.3,71.413q0,6.2,0,12.389,0,2.967,0,5.935a52.609,52.609,0,0,0,.049,5.388,9.347,9.347,0,0,0,5.929,7.806c2.487.961,5.4.613,8.027.614l37.612.014,41.471.015,17.5,0c2.874,0,5.833.289,8.469-1.084a9.414,9.414,0,0,0,4.916-8.374c.125-16.425,0-32.857.011-49.283q0-6.167.005-12.334,0-2.947,0-5.895a46.356,46.356,0,0,0-.067-5.325,9.35,9.35,0,0,0-6.056-7.7c-2.232-.825-4.8-.552-7.14-.553l-33.6-.011L58.868,13,41.422,13l-7.276,0c-2.763,0-5.544-.217-8.061,1.157a9.413,9.413,0,0,0-4.775,8.1c-.06,2.575,3.94,2.574,4,0a5.317,5.317,0,0,1,4.756-5.242C32.2,16.82,34.43,17,36.573,17L52.3,17l37.526.013,34.753.012,6.882,0c1.95,0,4.3-.336,6.173.253a5.213,5.213,0,0,1,2.88,2.265,7.732,7.732,0,0,1,.769,4.3L141.281,35q-.012,24-.015,48.005c0,3.7.029,7.409,0,11.113a5.353,5.353,0,0,1-4.585,5.428,62.32,62.32,0,0,1-7.561.029l-8.241,0L81.92,99.562l-38.1-.014-8,0H32.358a9.978,9.978,0,0,1-3.724-.354A5.308,5.308,0,0,1,25.9,96.751c-.741-1.391-.612-2.9-.611-4.428l0-11.245q.008-24,.014-48l0-10.824C25.311,19.683,21.311,19.678,21.31,22.257Z"/><path class="b" d="M33.368,26.848q18.42,16.3,37.459,31.893,2.391,1.953,4.792,3.891A40.035,40.035,0,0,0,80.152,66.2a6.021,6.021,0,0,0,5.066.433c1.916-.718,3.538-2.407,5.125-3.664q10.281-8.145,20.271-16.65,11.429-9.685,22.594-19.677c1.926-1.717-.911-4.537-2.828-2.829-12.624,11.252-25.427,22.31-38.6,32.918q-2.4,1.937-4.823,3.849c-1.074.849-2.528,2.6-4.053,2.416a3.717,3.717,0,0,1-1.769-1.032q-1.092-.875-2.182-1.752-2.31-1.861-4.609-3.737-9.191-7.5-18.225-15.186Q46.072,32.755,36.2,24.019c-1.922-1.7-4.761,1.118-2.829,2.829Z"/><path class="d" d="M82.273,48.62a12.506,12.506,0,0,0-7.214-4.648,12.106,12.106,0,0,0-6.353.244,9.985,9.985,0,0,0-5.83,6.437,15.447,15.447,0,0,0,.239,8.815,17.177,17.177,0,0,0,4.738,7.186,34.512,34.512,0,0,0,11.778,7.128,7.651,7.651,0,0,0,5.282,0,34.5,34.5,0,0,0,11.778-7.128,17.17,17.17,0,0,0,4.739-7.186,15.456,15.456,0,0,0,.239-8.815,9.985,9.985,0,0,0-5.83-6.437,12.11,12.11,0,0,0-6.354-.244A12.5,12.5,0,0,0,82.273,48.62Z"/><path class="b" d="M84,47.61a14.666,14.666,0,0,0-10.586-5.9,11.708,11.708,0,0,0-10.486,4.5c-2.713,3.5-3.131,8.544-2.056,12.739a20.622,20.622,0,0,0,7.565,10.831,36.138,36.138,0,0,0,5.676,3.736,23.808,23.808,0,0,0,6.29,2.546,11.707,11.707,0,0,0,6.952-1.112,36.456,36.456,0,0,0,5.937-3.117c3.665-2.408,7.168-5.455,9.091-9.473a16.939,16.939,0,0,0,.761-13.522,11.633,11.633,0,0,0-10.361-7.164A14.649,14.649,0,0,0,80.546,47.61a2.016,2.016,0,0,0,.717,2.737A2.046,2.046,0,0,0,84,49.629a10.455,10.455,0,0,1,7.858-3.96,7.675,7.675,0,0,1,7.076,3.655c1.758,2.886,1.576,6.938.426,10a17.98,17.98,0,0,1-6.219,7.73,28.243,28.243,0,0,1-9.406,5c-1.856.5-3.548-.133-5.243-.863A34.379,34.379,0,0,1,73.8,68.719a22.167,22.167,0,0,1-7.539-7.161,13.494,13.494,0,0,1-1.5-10.182A7.573,7.573,0,0,1,71.4,45.693a10.646,10.646,0,0,1,9.151,3.936,2.058,2.058,0,0,0,2.736.718A2.016,2.016,0,0,0,84,47.61Z"/></svg>