<?xml version="1.0" encoding="utf-8"?>
<!-- Uploaded to: SVG Repo, www.svgrepo.com, Generator: SVG Repo Mixer Tools -->
<svg width="800px" height="800px" viewBox="-5.85 0 356.359 356.359" xmlns="http://www.w3.org/2000/svg"><defs><style>.a{fill:#211715;}.b{fill:#74c66d;}.c{fill:#ffffff;}.d{fill:#f8b8b4;}.e{fill:#85807f;}</style></defs><path class="a" d="M328.646,270.2c4.922-3.354,9.888-6.642,14.81-10a2.4,2.4,0,0,0-2.422-4.145c-4.923,3.353-9.888,6.642-14.811,9.995a2.4,2.4,0,1,0,2.423,4.145Z"/><path class="b" d="M303.143,261.944a22.541,22.541,0,0,0-23.452,22.37c-.26,13.759,9.171,23.417,22.58,23.671,13.927.263,23.2-9.128,23.46-22.8A22.521,22.521,0,0,0,303.143,261.944Z"/><path class="a" d="M303.143,259.544a25.282,25.282,0,0,0-24.565,17.119c-3.27,9.78-.425,21.769,7.8,28.249,8.157,6.427,20.406,7.307,29.5,2.294,9.259-5.107,13.4-16.1,11.969-26.278a24.856,24.856,0,0,0-7.767-14.818,25.965,25.965,0,0,0-16.931-6.566c-3.09-.08-3.089,4.72,0,4.8,8.941.232,16.887,5.826,19.379,14.549,2.265,7.926-.111,17.505-6.6,22.563-6.615,5.159-16.914,5.511-24.139,1.366-7.348-4.216-10.872-13.157-9.44-21.459a20.1,20.1,0,0,1,20.8-17.019C306.232,264.381,306.234,259.581,303.143,259.544Z"/><path class="c" d="M277.785,279.452a22.54,22.54,0,0,0-23.734,22.07c-.436,13.754,8.871,23.531,22.277,23.955,13.922.441,23.315-8.831,23.748-22.5A22.521,22.521,0,0,0,277.785,279.452Z"/><path class="a" d="M277.785,277.052a25.273,25.273,0,0,0-24.758,16.835c-3.39,9.725-.68,21.777,7.467,28.337a27.591,27.591,0,0,0,29.469,2.633c9.157-4.9,13.6-15.76,12.313-25.822a25.11,25.11,0,0,0-7.635-15.224,25.971,25.971,0,0,0-16.856-6.759c-3.089-.119-3.084,4.681,0,4.8a20.355,20.355,0,0,1,19.17,14.823c2.155,7.923-.344,17.54-6.918,22.463-6.729,5.04-16.946,5.286-24.154,1.028-7.3-4.313-10.667-13.316-9.132-21.591a20.083,20.083,0,0,1,21.034-16.723C280.875,281.928,280.873,277.128,277.785,277.052Z"/><path class="d" d="M248.994,298.1a22.54,22.54,0,0,0-23.734,22.07c-.436,13.754,8.871,23.531,22.276,23.956,13.922.441,23.316-8.832,23.749-22.5A22.521,22.521,0,0,0,248.994,298.1Z"/><path class="a" d="M248.994,295.7a25.274,25.274,0,0,0-24.758,16.835c-3.39,9.726-.68,21.777,7.467,28.337a27.589,27.589,0,0,0,29.469,2.633c9.157-4.9,13.6-15.76,12.313-25.822a25.11,25.11,0,0,0-7.635-15.224,25.976,25.976,0,0,0-16.856-6.759c-3.089-.119-3.084,4.681,0,4.8a20.356,20.356,0,0,1,19.17,14.823c2.155,7.924-.344,17.541-6.918,22.464-6.73,5.04-16.946,5.286-24.155,1.027-7.3-4.312-10.667-13.316-9.131-21.591A20.083,20.083,0,0,1,248.994,300.5C252.084,300.578,252.082,295.778,248.994,295.7Z"/><path class="c" d="M13.56,313.373C6.606,316.888,2.4,321.6,2.4,327.81c0,17.8,37.673,26.119,70.5,26.119,32.973,0,70.5-8.151,70.5-26.119,0-7.38-5.942-12.652-15.386-16.3"/><path class="d" d="M118.763,300.439a2.562,2.562,0,0,1,.7.413l-.917,1.077c-8.691,2.166-39.057,10.092-47.2,12.277-8.037-2.1-38.372-10-47.215-12.277l-1.642-.08a2.632,2.632,0,0,1,1.44-1.41c7.917-1.884,35.673-9.125,45.705-11.865a6.583,6.583,0,0,1,3.424,0C83.1,291.324,110.837,298.555,118.763,300.439Z"/><path class="d" d="M119.468,300.852a2.907,2.907,0,0,1,1,2.3c-.04,2.034-.07,4.179-.111,6.365-15.82,4.455-31.546,8.711-47.388,13.363a5.58,5.58,0,0,1-3.15,0c-15.578-4.587-31.546-9.012-47.477-13.465-.04-2.155-.08-4.26-.121-6.264a2.951,2.951,0,0,1,.272-1.3l1.642.08c8.843,2.276,39.178,10.182,47.215,12.277,8.147-2.185,38.513-10.111,47.2-12.277Z"/><path class="c" d="M120.354,309.513c-.05,2.77-.1,5.6-.151,8.369-15.24,4.239-34.118,9.429-46.344,12.695a9.377,9.377,0,0,1-4.879-.008c-12.3-3.331-31.346-8.575-46.5-12.787-.05-2.77-.091-5.61-.141-8.37,15.931,4.453,31.9,8.878,47.477,13.465a5.58,5.58,0,0,0,3.15,0C88.808,318.224,104.534,313.968,120.354,309.513Z"/><path class="b" d="M120.2,317.882c-.04,2.135-.07,4.23-.111,6.224a2.759,2.759,0,0,1-1.833,2.639c-4.864,1.461-33.88,10.192-44.838,13.486a7.3,7.3,0,0,1-4.159,0C58.3,336.937,32.9,329.293,24.515,326.775a2.8,2.8,0,0,1-1.914-2.669c-.04-2.024-.081-4.149-.121-6.324,15.15,4.211,34.186,9.454,46.49,12.784a9.407,9.407,0,0,0,4.9.008C86.1,327.308,104.967,322.12,120.2,317.882Z"/><path class="a" d="M12.349,311.3C5.724,314.693-.453,320.5.026,328.549c.31,5.2,3.341,9.569,7.324,12.744,5.081,4.05,11.208,6.608,17.356,8.566a133.4,133.4,0,0,0,23.236,4.88,194.93,194.93,0,0,0,50.279-.015,131.313,131.313,0,0,0,23.259-4.9c6.126-1.97,12.219-4.554,17.242-8.651,3.95-3.223,6.9-7.718,7.075-12.929.247-7.39-5.057-12.948-11.143-16.307a50.194,50.194,0,0,0-6-2.74,2.418,2.418,0,0,0-2.953,1.677,2.457,2.457,0,0,0,1.677,2.952c5.623,2.2,12.205,5.8,13.464,12.1a11.5,11.5,0,0,1,.073,3.374c.066-.551-.059.285-.082.395-.049.238-.106.475-.169.71a12.51,12.51,0,0,1-.5,1.482c.174-.429-.081.159-.145.291q-.164.333-.344.659a17.294,17.294,0,0,1-.929,1.464c-.064.091-.13.179-.2.268-.228.306.207-.255-.036.044-.168.206-.337.409-.513.608-.412.469-.848.917-1.3,1.347-3.677,3.489-8.953,5.973-13.975,7.769a114.633,114.633,0,0,1-20.888,5.066,191.5,191.5,0,0,1-46.817,1.321,151.132,151.132,0,0,1-22.288-3.6,71.336,71.336,0,0,1-17.689-6.446,28.213,28.213,0,0,1-5.969-4.212c-.423-.4-.831-.819-1.219-1.253-.176-.2-.346-.4-.516-.6-.046-.055-.284-.357-.038-.039-.09-.116-.178-.234-.262-.354-.289-.412-.568-.83-.82-1.266q-.212-.366-.4-.744c-.067-.132-.374-.825-.19-.376a12.372,12.372,0,0,1-.468-1.367c-.064-.231-.122-.465-.172-.7-.028-.126-.17-1.036-.1-.483A10.774,10.774,0,0,1,5,325.724a13.023,13.023,0,0,1,5-7.34,28.908,28.908,0,0,1,4.767-2.938c2.751-1.409.325-5.552-2.422-4.145Z"/><path class="a" d="M66.435,319.383c-11.146-3.249-22.324-6.383-33.506-9.5-2.98-.832-4.252,3.8-1.276,4.628,11.182,3.122,22.36,6.256,33.506,9.5,2.971.866,4.24-3.765,1.276-4.629Z"/><path class="a" d="M109.786,309.972c-11.15,3.106-22.307,6.187-33.424,9.411-2.961.859-1.7,5.492,1.276,4.629,11.117-3.225,22.274-6.306,33.424-9.412,2.971-.827,1.709-5.46-1.276-4.628Z"/><path class="a" d="M60.584,325.8q-8.892-2.429-17.776-4.88a2.4,2.4,0,0,0-1.276,4.628q8.885,2.451,17.776,4.881a2.4,2.4,0,0,0,1.276-4.629Z"/><path class="a" d="M99.673,321.07q-12.645,3.477-25.308,6.887c-2.981.8-1.716,5.429,1.276,4.628q12.669-3.39,25.308-6.886c2.975-.818,1.712-5.45-1.276-4.629Z"/><path class="a" d="M23.5,304.239q19.711,5.09,39.406,10.247c2.445.637,4.884,1.313,7.339,1.914a7.109,7.109,0,0,0,3.727-.407q1.869-.5,3.739-.99,10.523-2.776,21.055-5.509c6.8-1.769,13.609-3.551,20.431-5.255,3-.749,1.726-5.379-1.276-4.629-13.017,3.253-25.992,6.686-38.967,10.1q-4.122,1.085-8.24,2.184h1.276q-19.3-5.048-38.618-10.057-4.3-1.116-8.6-2.228c-2.993-.773-4.269,3.856-1.276,4.629Z"/><path class="a" d="M118.9,329.055a5.175,5.175,0,0,0,3.18-2.981,12.874,12.874,0,0,0,.456-4.554q.09-4.869.173-9.738.042-2.371.085-4.742a35.043,35.043,0,0,0,.017-4.571c-.307-2.674-2.217-4.05-4.638-4.64-7.55-1.842-15.068-3.812-22.587-5.771q-6.42-1.673-12.834-3.369-2.7-.714-5.392-1.436A34.49,34.49,0,0,0,72.208,286c-2.049-.219-4.019.481-5.972,1.006q-2.593.7-5.19,1.385-6.407,1.7-12.822,3.37c-7.721,2.014-15.441,4.034-23.19,5.936-2.129.523-3.975,1.209-4.842,3.455a10.722,10.722,0,0,0-.332,4.126q.045,2.452.089,4.9.085,4.782.17,9.563c.05,2.794-.474,6.247,1.872,8.29,1.3,1.136,3.26,1.459,4.884,1.947l5.164,1.554,12.92,3.886,13.682,4.115,6.036,1.816a29.473,29.473,0,0,0,5.965,1.545c2.168.171,4.209-.6,6.249-1.21l5.194-1.562,12.383-3.724,21.849-6.573,2.585-.778c2.95-.888,1.693-5.522-1.276-4.628Q97.613,330.45,77.6,336.468c-1.449.436-2.9.878-4.349,1.308-2.03.6-3.625.056-5.567-.528l-11.327-3.407-24.893-7.488-4.54-1.365a7.846,7.846,0,0,1-1.606-.483c-.576-.34-.332-1.252-.344-1.9q-.165-8.88-.319-17.76a7.412,7.412,0,0,1-.051-1.769c.076-.274.283-.479.106-.361a6,6,0,0,1,1.6-.389q2.108-.517,4.211-1.051,5.617-1.418,11.225-2.872,11.911-3.078,23.8-6.241c1.429-.382,2.855-.775,4.285-1.154,1.7-.45,3.078.013,4.71.454q5.2,1.4,10.412,2.769,12.2,3.214,24.433,6.339c2.786.709,5.608,1.327,8.38,2.093.309.085.089-.093.183.043.227.326.112.9.105,1.28q-.043,2.307-.085,4.614-.079,4.446-.158,8.892-.039,2.231-.08,4.462c-.007.357.186,2.358-.1,2.469a2.468,2.468,0,0,0-1.676,2.952A2.417,2.417,0,0,0,118.9,329.055Z"/><path class="e" d="M283.745,65.405c-7.788.232-15.511,0-23.248,2.089-9.268,2.5-16.984,6.184-23.254,13.554-4.625,5.436-7.091,13.706-7.994,20.633a54.833,54.833,0,0,0,1.821,23.386c6.934,22.186,30.808,32.218,52.674,32.218,23.619,0,45.742-10.032,52.676-32.218a54.833,54.833,0,0,0,1.821-23.386c-.9-6.927-3.293-14.642-7.918-20.078-6.27-7.37-12.834-10.712-22.1-13.237-7.609-2.076-16.694-2.729-24.482-2.961Z"/><path class="a" d="M283.745,63.005c-6.876.2-13.786.111-20.571,1.413a56.873,56.873,0,0,0-16.316,5.777,38.893,38.893,0,0,0-12.629,10.827,40.667,40.667,0,0,0-6.551,15.7c-2.536,11.88-1.683,25.068,3.952,35.972,4.486,8.682,12.086,15.443,20.744,19.815a69.484,69.484,0,0,0,28.347,7.114,72.6,72.6,0,0,0,29.785-4.719c8.975-3.59,16.955-9.286,22.492-17.293,6.786-9.813,9.026-22.357,7.854-34.087a49.636,49.636,0,0,0-4.73-17.414A36.619,36.619,0,0,0,325.357,73.6c-9.173-6.963-21.241-9.177-32.449-10.1-3.049-.251-6.106-.4-9.163-.491-3.09-.1-3.087,4.7,0,4.8,11,.338,22.585,1.21,32.679,5.988A35.789,35.789,0,0,1,327.841,82.4a32.588,32.588,0,0,1,6.973,14.03c2.71,10.79,2.112,23.155-2.764,33.26a41.151,41.151,0,0,1-17.937,18.291,62.448,62.448,0,0,1-26.388,6.808,69.316,69.316,0,0,1-26.836-3.811c-8.24-2.96-16.012-7.888-21.415-14.869-6.53-8.437-8.8-19.314-8.248-29.813a50.569,50.569,0,0,1,3.442-16.174,30.106,30.106,0,0,1,8.957-12.013c8.423-6.99,19.929-9.622,30.611-10.063,3.168-.13,6.34-.15,9.509-.241,3.082-.089,3.095-4.889,0-4.8Z"/><path class="c" d="M283.745,77.68c-17.64,0-35.281,2.738-35.281,11.733,0,9.534,18.874,13.071,35.281,13.071s35.281-3.537,35.281-13.071C319.026,80.418,301.385,77.68,283.745,77.68Z"/><path class="a" d="M283.745,75.28a111,111,0,0,0-21.381,1.76c-4.819.954-10.644,2.482-13.973,6.393a9.316,9.316,0,0,0,.107,12.281c3.225,3.889,8.742,5.69,13.467,6.852a89.083,89.083,0,0,0,19.244,2.29,104.059,104.059,0,0,0,19.859-1.37c5.27-.9,11.041-2.277,15.418-5.509,3.563-2.633,6.077-6.943,4.453-11.439-1.731-4.794-6.938-7.1-11.479-8.445-6.5-1.926-13.436-2.481-20.177-2.718-1.845-.065-3.691-.093-5.538-.095-3.089,0-3.094,4.8,0,4.8a107.894,107.894,0,0,1,19.177,1.412,42.826,42.826,0,0,1,7.724,2.061,13.366,13.366,0,0,1,4.675,2.849,4.213,4.213,0,0,1,1.3,3.235c0,.072-.08.788,0,.236a6.186,6.186,0,0,1-.133.633c-.039.151-.4,1.058-.2.633a7.839,7.839,0,0,1-.662,1.13c-.407.586.3-.319-.181.226-.155.175-.312.346-.477.512a15.758,15.758,0,0,1-4.909,3.078,40.732,40.732,0,0,1-7.029,2.137,86.264,86.264,0,0,1-17.147,1.842,98.324,98.324,0,0,1-17.449-1.083c-4.8-.774-9.906-1.853-14.043-4.482a8.1,8.1,0,0,1-3.153-3.263c-.188-.36.167.519-.055-.117-.07-.2-.137-.405-.191-.613a6.186,6.186,0,0,1-.133-.633c.072.486.007,0,.008-.125,0-.186,0-.374,0-.561,0-.076.094-.783,0-.237a5.778,5.778,0,0,1,.346-1.236c-.2.491.091-.146.125-.2.155-.248.3-.5.472-.734-.238.318,0,.015.045-.04.2-.232.419-.454.645-.667a11.243,11.243,0,0,1,2.481-1.671,29.727,29.727,0,0,1,7.387-2.468,99.393,99.393,0,0,1,21.373-1.854C286.833,80.076,286.839,75.276,283.745,75.28Z"/><path class="c" d="M72.9,13.574c-14.074,0-28.759,3.772-38.123,14.254C27.376,36.116,23.4,47.593,23.4,59.441c0,11.787,5.086,22.887,12.491,31.175C45.259,101.1,59.141,105.309,72.9,105.309s27.645-4.211,37.009-14.693c7.405-8.288,12.491-19.388,12.491-31.175,0-11.848-3.972-23.325-11.377-31.613C101.663,17.346,86.977,13.574,72.9,13.574Z"/><path class="e" d="M60.174,111.6v-5.7s0-.749,0-1.873a63.805,63.805,0,0,0,25.462,0v8.191a3.556,3.556,0,0,1-3.555,3.562H63.734a3.561,3.561,0,0,1-3.56-3.562Z"/><path class="e" d="M60.174,7.971v6.718a73.46,73.46,0,0,1,25.461-.007c0-1.119,0-1.811,0-1.811V5.984a3.557,3.557,0,0,0-3.555-3.563H63.734a3.561,3.561,0,0,0-3.56,3.563Z"/><path class="e" d="M77.369,115.779h-8.93v39.184h8.93Z"/><path class="a" d="M72.9,11.174c-10.035.024-20.3,1.812-29.2,6.642-9.2,5-15.771,13.355-19.423,23.079A49.427,49.427,0,0,0,40.807,98.241c8.228,6.034,18.47,8.833,28.558,9.374s20.449-1.113,29.52-5.65a47.325,47.325,0,0,0,21.037-21.993A49.363,49.363,0,0,0,123.677,48.4c-2.057-10.1-7.254-19.97-15.4-26.458-7.994-6.365-17.928-9.4-27.987-10.406-2.454-.244-4.918-.353-7.384-.359-3.089-.008-3.093,4.792,0,4.8,9.118.022,18.5,1.536,26.609,5.9a37.954,37.954,0,0,1,17.456,20.491,45.666,45.666,0,0,1,1.182,29.1c-2.715,8.846-8.323,17.423-15.888,22.86-7.508,5.4-16.656,8-25.82,8.49-9.212.494-18.783-.837-27.1-5a43.019,43.019,0,0,1-19.137-19.9,44,44,0,0,1-3.365-28.649c1.954-9.21,6.593-18.048,14.083-23.934,7.059-5.547,16.151-8.21,24.981-9.037,2.326-.218,4.66-.317,7-.322C75.992,15.966,76,11.166,72.9,11.174Z"/><path class="a" d="M57.774,105.9c0,2.065-.069,4.142,0,6.206a6.144,6.144,0,0,0,2.859,5.2c2.108,1.264,4.792.87,7.143.87h11.3c2.068,0,4.253.243,6.1-.87a6.127,6.127,0,0,0,2.856-5.138c.085-2.274,0-4.566,0-6.842,0-3.088-4.8-3.093-4.8,0v5.62a4.2,4.2,0,0,1-.133,1.806c-.57,1.058-2.45.624-3.443.624h-9.2c-2.151,0-4.336.115-6.483,0-.882-.047-1.353-.411-1.4-1.316-.115-2.041,0-4.119,0-6.164,0-3.088-4.8-3.093-4.8,0Z"/><path class="a" d="M62.574,12.3V6.627c0-.657-.054-1.3.623-1.671a5.514,5.514,0,0,1,2.426-.135H80.7a4.3,4.3,0,0,1,1.919.135c.654.356.619.973.619,1.61v6.305c0,3.089,4.8,3.094,4.8,0V6.494A6.436,6.436,0,0,0,86.4,1.884C84.781.188,82.753.021,80.546.021H66.071A15.067,15.067,0,0,0,62.1.249,5.975,5.975,0,0,0,57.876,5a46.518,46.518,0,0,0-.1,7.3c0,3.089,4.8,3.094,4.8,0Z"/><path class="a" d="M66.039,116.539V155.2c0,3.089,4.8,3.094,4.8,0v-38.66c0-3.088-4.8-3.093-4.8,0Z"/><path class="a" d="M74.969,116.729V155.2c0,3.089,4.8,3.094,4.8,0v-38.47c0-3.088-4.8-3.093-4.8,0Z"/><path class="a" d="M61.979,100.316c-1.909-2.058-3.051-4.824-4.232-7.339-1.095-2.333-2.1-4.7-2.973-7.128a67.753,67.753,0,0,1-3.662-15.362,88.245,88.245,0,0,1,3.071-34.875A76.612,76.612,0,0,1,57.421,26.7c1.22-2.777,2.472-5.883,4.558-8.132s-1.288-5.665-3.394-3.394a29.264,29.264,0,0,0-4.794,7.957,87.022,87.022,0,0,0-3.339,8.381,89.364,89.364,0,0,0-4.006,18.266c-1.4,11.988-.694,24.4,3.187,35.883a92.087,92.087,0,0,0,3.625,9c1.46,3.173,2.927,6.463,5.327,9.051,2.1,2.269,5.494-1.131,3.394-3.394Z"/><path class="a" d="M87.223,103.71a30.417,30.417,0,0,0,4.807-7.939c1.228-2.59,2.364-5.229,3.364-7.915a73.054,73.054,0,0,0,4-16.556,91.41,91.41,0,0,0-3.268-37.37,86.509,86.509,0,0,0-3.6-9.654c-1.408-3.206-2.9-6.51-5.308-9.1-2.106-2.27-5.494,1.131-3.395,3.394,1.911,2.059,3.073,4.834,4.218,7.367a75.04,75.04,0,0,1,2.947,7.656A83.807,83.807,0,0,1,94.66,50.655c1.2,11.2.578,22.626-2.991,33.363a80.142,80.142,0,0,1-3.264,8.219c-1.265,2.748-2.5,5.836-4.577,8.079-2.1,2.262,1.288,5.664,3.395,3.394Z"/><path class="e" d="M45.246,177.286h55.316A1.285,1.285,0,0,0,101.847,176v-15.14a5.9,5.9,0,0,0-5.9-5.9H49.858a5.9,5.9,0,0,0-5.9,5.9V176A1.285,1.285,0,0,0,45.246,177.286Z"/><path class="a" d="M45.246,179.686H99.329c.378,0,.76.016,1.138,0a3.783,3.783,0,0,0,3.78-3.691c.114-2.385,0-4.8,0-7.19,0-2.618.054-5.242,0-7.859a8.439,8.439,0,0,0-8.342-8.383c-1.208-.028-2.42,0-3.628,0H54.748c-1.531,0-3.063-.01-4.595,0a8.406,8.406,0,0,0-8.443,6.8,47.658,47.658,0,0,0-.15,7.7c0,2.866-.063,5.74,0,8.6a3.843,3.843,0,0,0,3.686,4.016,2.413,2.413,0,0,0,2.4-2.4,2.457,2.457,0,0,0-2.4-2.4c1.644.19,1.017,1.8,1.114.7.042-.478,0-.979,0-1.458V161.369c0-2.2,1.281-4,3.641-4.006,1.273,0,2.547,0,3.82,0H95.049c1.843,0,3.6.468,4.243,2.461a7.471,7.471,0,0,1,.155,2.276v12.936a3.914,3.914,0,0,0,0,.879c.159.6,1.61-.865,1.061-1.029a3.7,3.7,0,0,0-.911,0H45.246C42.157,174.886,42.152,179.686,45.246,179.686Z"/></svg>