<?xml version="1.0" encoding="utf-8"?>
<!-- Uploaded to: SVG Repo, www.svgrepo.com, Generator: SVG Repo Mixer Tools -->
<svg width="800px" height="800px" viewBox="0 -27.69 414.455 414.455" xmlns="http://www.w3.org/2000/svg"><defs><style>.a{fill:#ffffff;}.b{fill:#211715;}.c{fill:#88c5e9;}.d{fill:#fec578;}.e{fill:#74c66d;}.f{fill:#cfcfcf;}.g{fill:#7a7473;}</style></defs><path class="a" d="M142.019,2C224.8,2,282.013,66.113,282.013,141.135c0,34.347-9.788,64.316-26.94,87.742a4.506,4.506,0,0,0-.628,4.18c3.411,9.532,7.453,20.686,11.511,32.164a1,1,0,0,1-1.279,1.278c-11.4-4.029-22.475-8.043-31.961-11.438a4.513,4.513,0,0,0-4.221.653c-23.272,17.373-52.919,27.166-86.482,27.166-84.695,0-140-58.345-140-141.745C2.013,65.6,59.531,2,142.019,2Z"/><path class="a" d="M80.3,193.757c-.015-16.8-.036-98.091-.036-101.718H206.454v1.067c0,3.8.036,75.325.052,100.651"/><path class="b" d="M82.3,193.757q-.018-20.419-.019-40.839-.009-24.394-.015-48.79,0-6.043,0-12.089l-2,2H206.454l-2-2q0,14.529.013,29.059.012,25.169.026,50.337.006,11.161.013,22.322c0,2.574,4,2.579,4,0q-.013-22.252-.025-44.506-.012-22.855-.023-45.711,0-5.751,0-11.5a2.029,2.029,0,0,0-2-2H80.267a2.03,2.03,0,0,0-2,2q0,15.714.008,31.429.007,25.717.017,51.437,0,9.426.011,18.852c0,2.574,4,2.579,4,0Z"/><path class="c" d="M157.968,146.812c-1.267,0-27.333.04-29.45.04V193.76H157.91C157.91,190.2,157.968,147.818,157.968,146.812Z"/><path class="b" d="M159.939,193.315V145.471c0-2.574-4-2.578-4,0v47.844c0,2.574,4,2.578,4,0Z"/><path class="d" d="M128.428,193.515v-46.7H75.488c.076,14.872-.01,35.534-.01,46.945"/><path class="b" d="M91.144,146.022q0,20.211,0,40.422,0,3.435,0,6.871c0,2.574,4,2.578,4,0q0-20.037.005-40.073v-7.22c0-2.574-4-2.578-4,0Z"/><path class="b" d="M108.785,146.022v47.293c0,2.574,4,2.578,4,0V146.022c0-2.574-4-2.578-4,0Z"/><path class="b" d="M73.488,146.022c.074,15.913-.009,31.825-.01,47.738,0,2.573,4,2.578,4,0,0-15.913.084-31.825.01-47.738-.012-2.573-4.012-2.578-4,0Z"/><path class="b" d="M178.635,191.76H88.229c-4.179,0-8.4-.166-12.572,0-.06,0-.12,0-.179,0-2.574,0-2.578,4,0,4h90.406c4.179,0,8.4.166,12.572,0,.06,0,.12,0,.179,0,2.574,0,2.578-4,0-4Z"/><path class="e" d="M177.712,181.249c-.788-2.073-1.112-5.229.607-7.585,1.352-1.852,3.778-3.45,8.076-3.45h21.421c5.182,0,7.274,2.145,8.328,4.5a9.4,9.4,0,0,1-.311,6.53"/><path class="b" d="M179.64,180.717c-1.056-2.925-.612-5.988,2.226-7.543,2.707-1.483,6.3-.96,9.279-.96h11.378c1.663,0,3.326,0,4.989,0a9.483,9.483,0,0,1,4.66.887,4.72,4.72,0,0,1,1.428,1.2,5.49,5.49,0,0,1,.354.535c.075.125.394.752.336.6a6.81,6.81,0,0,1-.184,4.8,2.061,2.061,0,0,0,.718,2.737,2.015,2.015,0,0,0,2.736-.718c1.612-3.527,1.442-7.907-1.207-10.878-2.808-3.15-7.063-3.166-10.958-3.166H192.032c-4.01,0-8.38-.487-12.054,1.438-4.454,2.334-5.845,7.556-4.2,12.129.868,2.4,4.734,1.366,3.857-1.064Z"/><path class="a" d="M176.274,193.76V181.25h40.312v12.51"/><path class="b" d="M178.274,193.76V181.25l-2,2h40.312l-2-2v12.51l2-2H176.274c-2.574,0-2.578,4,0,4h40.312a2.03,2.03,0,0,0,2-2V181.25a2.029,2.029,0,0,0-2-2H176.274a2.03,2.03,0,0,0-2,2v12.51C174.274,196.333,178.274,196.338,178.274,193.76Z"/><path class="c" d="M194.3,132.184c.007-4.063.058-18.835.058-19.428-1.274,0-27.477.026-29.6.026v19.4Z"/><path class="b" d="M196.3,132.973c0-6.739.054-13.478.059-20.217a2.03,2.03,0,0,0-2-2q-12.589,0-25.179.023-2.213,0-4.425,0a2.029,2.029,0,0,0-2,2v20.191c0,2.574,4,2.578,4,0V112.782l-2,2q12.81,0,25.62-.023,1.992,0,3.984,0l-2-2c0,6.739-.058,13.478-.059,20.217,0,2.574,4,2.578,4,0Z"/><path class="b" d="M177.556,112.782v23.81c0,2.573,4,2.578,4,0v-3.619c0-2.573-4-2.578-4,0v3.619c0,2.573,4,2.578,4,0v-23.81c0-2.574-4-2.578-4,0Z"/><path class="f" d="M75.488,132.184H211.749v14.628H75.488Z"/><path class="b" d="M75.488,134.184H211.749l-2-2v14.628l2-2H75.488l2,2V132.184c0-2.574-4-2.578-4,0v14.628a2.029,2.029,0,0,0,2,2H211.749a2.03,2.03,0,0,0,2-2V132.184a2.03,2.03,0,0,0-2-2H75.488C72.914,130.184,72.91,134.184,75.488,134.184Z"/><path class="b" d="M130.428,193.76V147.735c0-2.574-4-2.579-4,0V193.76c0,2.573,4,2.578,4,0Z"/><path class="b" d="M142.019,4c22.018.029,44.005,4.7,63.743,14.584A132.855,132.855,0,0,1,252.3,57.258,138.108,138.108,0,0,1,277.115,112.4a154.306,154.306,0,0,1-2.792,71.845,136.673,136.673,0,0,1-14.839,34.443q-2.323,3.813-4.9,7.461a12.228,12.228,0,0,0-2.186,3.783,8.046,8.046,0,0,0,.59,4.965q3.681,10.275,7.374,20.546.915,2.559,1.826,5.119a31.876,31.876,0,0,1,1.9,5.58v-1.064l.45-.451H265.6a25.9,25.9,0,0,1-4.58-1.543q-2.461-.874-4.92-1.753-4.659-1.665-9.316-3.339l-8.588-3.086c-2.628-.944-5.556-2.562-8.416-1.935-2.532.556-4.76,2.842-6.864,4.274q-3.228,2.2-6.584,4.2a132.811,132.811,0,0,1-14.42,7.429c-20.52,9.038-43.125,12.609-65.455,11.924a152.219,152.219,0,0,1-52.4-10.618,124.656,124.656,0,0,1-40.639-26.554,126.982,126.982,0,0,1-27.208-40A152.416,152.416,0,0,1,4.357,152.4a149.019,149.019,0,0,1,6.054-53.657,135.431,135.431,0,0,1,24.406-45.5A133.155,133.155,0,0,1,74.926,20.286,139.163,139.163,0,0,1,127.4,4.68c4.859-.457,9.738-.674,14.619-.68,2.573,0,2.578-4,0-4A150.979,150.979,0,0,0,96.182,6.988,136.615,136.615,0,0,0,27.537,56.135,139.647,139.647,0,0,0,7.964,93.4,145.542,145.542,0,0,0,.1,136.038,169.906,169.906,0,0,0,4.38,180.306a143.145,143.145,0,0,0,14.827,38.261A126.489,126.489,0,0,0,76.654,271.3a146.21,146.21,0,0,0,40.512,11.818,170.817,170.817,0,0,0,50.944-.292,141.912,141.912,0,0,0,49.864-17.708q5.5-3.252,10.663-7.036c.836-.613,1.657-1.364,2.767-1.276a13.536,13.536,0,0,1,3.222,1.059q3.366,1.206,6.73,2.417,7.352,2.643,14.708,5.274c2.586.923,5.177,2.03,7.818,2.779a3.05,3.05,0,0,0,4-3.645,76.939,76.939,0,0,0-2.758-7.761q-1.35-3.786-2.709-7.569-2.466-6.875-4.938-13.749c-.391-1.089-.87-2.182-1.171-3.3a3.056,3.056,0,0,1,.74-2.767c1.226-1.731,2.451-3.459,3.613-5.234q3.459-5.283,6.4-10.881a149.172,149.172,0,0,0,15.606-50.671,157.714,157.714,0,0,0-1.2-48.91,142.334,142.334,0,0,0-14.009-40.165A138.152,138.152,0,0,0,242.468,40,136.332,136.332,0,0,0,207.781,15.13,142.042,142.042,0,0,0,165.144,1.72,158.546,158.546,0,0,0,142.019,0C139.445,0,139.441,4,142.019,4Z"/><path class="a" d="M374.5,284.84a5.806,5.806,0,0,1,4.2-.87,5.237,5.237,0,0,1,4.311,3.052c1.23,2.805.54,7.581-.907,10.408a15.182,15.182,0,0,1-5.82,6.683,11.156,11.156,0,0,1-5.532,1.2c-.2.451-.346.785-.346.785-.715,1.447-2.4,3.973-2.4,3.973a52.183,52.183,0,0,1-5.451,6.721q.771,2.245,1.547,4.494a20.335,20.335,0,0,0,1.688,3.966c2.008,3.319,6.285,5.073,9.77,6.777.6.292,1.26.588,1.954.884l-1.8,1.322a57.315,57.315,0,0,1-33.762,11.385,32.471,32.471,0,0,1-13.42-2.486,21.1,21.1,0,0,1-9.759-8.749c2.1-.7,4.131-1.4,5.58-2.017a8.1,8.1,0,0,0,4.7-4.169,29.6,29.6,0,0,1-15.293-7.08c-6.337-5.317-9.021-13.611-9.912-22.757-.514-5.274-.946-11-1.631-16.734,0,0-6.73-26.337,27.9-28.767C372.258,249.9,374.5,284.84,374.5,284.84Z"/><path class="g" d="M385.85,259.357c-1.783-7.163-4.5-13.031-10.065-18.166l-1.1-1.018-5.784-4.1a39.949,39.949,0,0,0-26.54-7.762q-2.082.1-4.08.35c-11.768,1.44-21.3,6.489-27.912,14.276a30.8,30.8,0,0,0-2.3,3.09A43.932,43.932,0,0,0,301.9,261.7a51.338,51.338,0,0,0-.695,6.531,19.3,19.3,0,0,1,4.013-.439l7.327-.006h0c11.394-.01,29.812-.026,43.746-.023l0,0,4.6,0a8.818,8.818,0,0,1,8.6,6.925l16.563-4.368a25.444,25.444,0,0,1,.511,4.321c.131-1.685.209-3.176.282-4.259A35.925,35.925,0,0,0,385.85,259.357Z"/><path class="b" d="M360.628,317.318a70.444,70.444,0,0,0,2.919,7.992,13.488,13.488,0,0,0,4.946,5.27c4.041,2.647,8.723,4.347,13.171,6.16a2.012,2.012,0,0,0,2.46-1.4,2.049,2.049,0,0,0-1.4-2.46,78.575,78.575,0,0,1-11.722-5.444,10,10,0,0,1-3.924-3.988,57.916,57.916,0,0,1-2.6-7.2,2.048,2.048,0,0,0-2.46-1.4,2.019,2.019,0,0,0-1.4,2.46Z"/><path class="b" d="M312.394,338.674c3.211-1.209,6.5-2.187,9.737-3.333a28.778,28.778,0,0,0,4.637-1.874,9.886,9.886,0,0,0,4.012-4.264,2.056,2.056,0,0,0-.717-2.736,2.018,2.018,0,0,0-2.737.718c-1.337,2.83-4.218,3.593-6.96,4.545-3.006,1.044-6.057,1.965-9.035,3.086a2.056,2.056,0,0,0-1.4,2.461,2.016,2.016,0,0,0,2.46,1.4Z"/><path class="b" d="M374.371,242.605c4.883,4.564,7.741,10.286,9.4,16.7,1.62,6.254,1.24,12.813.413,19.17a25.082,25.082,0,0,1-2.6,9.253c-1.285,2.236,2.17,4.253,3.454,2.019,3.076-5.355,3.363-12.1,3.731-18.116a43.964,43.964,0,0,0-4.306-22.135,33.552,33.552,0,0,0-7.268-9.72c-1.879-1.756-4.714,1.066-2.828,2.828Z"/><path class="b" d="M326.076,312.9a12.686,12.686,0,0,0,6.067,1.319,12.4,12.4,0,0,0,3.049-.4,22.984,22.984,0,0,0,3.269-1.416,2.007,2.007,0,0,0,.718-2.736,2.059,2.059,0,0,0-2.737-.718c-.449.2-.886.425-1.329.639-.107.052-.215.1-.322.152-.49.232.213-.059-.068.029-.177.056-.349.123-.528.174s-.365.1-.55.134c-.095.02-.19.038-.286.055-.054.009-.388.063-.1.02s-.054,0-.11.009c-.1.01-.2.019-.305.026-.233.017-.467.027-.7.031-.421.006-.843-.008-1.263-.043-.1-.008-.209-.02-.314-.029-.286-.026-.032.047.065.013a1.789,1.789,0,0,1-.61-.1,10.285,10.285,0,0,1-1.222-.315c-.09-.029-.179-.06-.268-.092-.059-.022-.36-.1-.081-.025s0,0-.067-.033c-.1-.049-.193-.1-.288-.146a2,2,0,1,0-2.019,3.454Z"/><path class="b" d="M338.944,291.184c-.481-1.87.089-6.1,3.6-6.291,4.616.245,4.62,5.385,2.953,7.723C344.13,294.53,340.35,295.175,338.944,291.184Z"/><path class="b" d="M311.492,290.755c-.438-1.876.089-6.114,3.3-6.316,4.227.239,4.224,5.4,2.693,7.743C316.237,294.105,312.774,294.757,311.492,290.755Z"/><path class="b" d="M325.534,295.173c-.606.991-1.19,2-1.707,3.042a4.66,4.66,0,0,0-.561,1.778,2.623,2.623,0,0,0,.835,2.068,4.024,4.024,0,0,0,1.6.954,6.709,6.709,0,0,0,1.207.178l-.532-.072.091.014a2.182,2.182,0,0,0,1.541-.2,2,2,0,0,0,.718-2.736,1.941,1.941,0,0,0-1.2-.919c-.321-.052-.645-.082-.967-.122l.531.071a2.068,2.068,0,0,1-.506-.135l.477.2a2.162,2.162,0,0,1-.377-.228l.405.312a2.254,2.254,0,0,1-.312-.3l.313.4a.545.545,0,0,1-.065-.112l.2.477a.92.92,0,0,1-.046-.186l.072.531a1.228,1.228,0,0,1,.006-.2l-.072.532a2.039,2.039,0,0,1,.121-.418l-.2.478a27.022,27.022,0,0,1,1.875-3.393,2,2,0,1,0-3.454-2.019Z"/><path class="b" d="M360.139,321.727a50.049,50.049,0,0,0,7.887-8.3,41.115,41.115,0,0,0,4.1-6.325,2.05,2.05,0,0,0-.718-2.737,2.02,2.02,0,0,0-2.736.718,40.7,40.7,0,0,1-3.963,6.14,47.437,47.437,0,0,1-7.4,7.673,2.014,2.014,0,0,0,0,2.828,2.044,2.044,0,0,0,2.828,0Z"/><path class="b" d="M369.909,234.346a43.133,43.133,0,0,0-21.735-7.984,52.075,52.075,0,0,0-21.317,2.942,42.85,42.85,0,0,0-16.512,10.665,41.865,41.865,0,0,0-10.111,19.849,63.072,63.072,0,0,0,.2,25.341c.508,2.522,4.364,1.454,3.857-1.063-2.647-13.151-1.576-28.9,7.367-39.6,8.3-9.929,21.18-14.417,33.888-14.248A39.388,39.388,0,0,1,367.89,237.8c2.111,1.482,4.112-1.985,2.019-3.454Z"/><path class="b" d="M350.125,322.535c-9,3.992-19.583,5.814-28.742,1.247a26.122,26.122,0,0,1-10.537-9.023,34.659,34.659,0,0,1-4.6-13.3c-1.038-6.551-1.241-13.249-2.02-19.837a2.061,2.061,0,0,0-2-2,2.012,2.012,0,0,0-2,2c.754,6.375,1.07,12.806,1.915,19.169A40.284,40.284,0,0,0,306.915,316c5.411,9.2,16.211,14.572,26.731,14.482a46.579,46.579,0,0,0,18.5-4.493,2.015,2.015,0,0,0,.717-2.737,2.049,2.049,0,0,0-2.736-.717Z"/><path class="b" d="M375.507,286.567a4.222,4.222,0,0,1,3.943-.344,2.727,2.727,0,0,1,1.714,1.56c.079.169.082.17.011,0,.062.161.117.323.166.488a6.83,6.83,0,0,1,.238,1.058,10.763,10.763,0,0,1,.056,1.813,14.432,14.432,0,0,1-.872,4.376,13.815,13.815,0,0,1-4.455,6.186,6.93,6.93,0,0,1-3.195,1.42,6.109,6.109,0,0,1-3.81-.164,2.055,2.055,0,0,0-2.736.718,2.016,2.016,0,0,0,.717,2.736,11.116,11.116,0,0,0,8.891-.06,14.721,14.721,0,0,0,6.67-6.132,18.889,18.889,0,0,0,2.742-8.314c.226-2.636-.154-5.507-1.955-7.556a8.179,8.179,0,0,0-10.144-1.24c-2.153,1.394-.151,4.858,2.019,3.453Z"/><path class="a" d="M369.109,274.793l16.949-4.47a34.486,34.486,0,0,1,.515,8.862c-.249,5.656-1.6,8.51-1.6,8.51l-15.217,4.013"/><path class="b" d="M369.64,276.721l16.949-4.469-2.46-1.4c.044.181.078.366.111.549.041.226.077.452.11.679.027.181.024.186,0,0q.039.314.071.627a43.55,43.55,0,0,1,.16,6.266,28.651,28.651,0,0,1-.805,5.947c-.139.548-.3,1.092-.489,1.624-.024.067-.178.347-.152.4.054.11.232-.524.109-.261l1.195-.919-15.217,4.012c-2.487.656-1.432,4.515,1.063,3.857l12.75-3.362c1.022-.269,2.577-.391,3.35-1.165a2.749,2.749,0,0,0,.594-1.065,16.9,16.9,0,0,0,.682-2.166,38.388,38.388,0,0,0,.935-10.58,27.672,27.672,0,0,0-.611-5.506,2.028,2.028,0,0,0-2.46-1.4l-16.949,4.469c-2.487.656-1.432,4.515,1.063,3.857Z"/><path class="a" d="M360.891,267.766c-17.575-.02-46.172.014-55.678.021a19.164,19.164,0,0,0-6.431,1.105q-1.635.584-3.252,1.213a8.827,8.827,0,0,0-5.59,8.371c.074,4.781.175,9.251.191,15.866a8.821,8.821,0,0,0,8.818,8.806l53.713,0a31.907,31.907,0,0,0,11.459-2.125l.123-.048a8.818,8.818,0,0,0,5.658-8.322c-.055-5.144-.135-11.29-.2-16.186A8.816,8.816,0,0,0,360.891,267.766Z"/><path class="b" d="M360.891,265.766q-21.087-.023-42.173.009l-8.493.008a60.482,60.482,0,0,0-7.582.177,28.136,28.136,0,0,0-6.429,1.75,13.746,13.746,0,0,0-5,2.847c-2.8,2.718-3.3,6.165-3.239,9.88.064,3.84.127,7.68.149,11.52a17.385,17.385,0,0,0,.6,5.887,10.83,10.83,0,0,0,7.195,6.871,19.529,19.529,0,0,0,5.586.433h47.174a55.271,55.271,0,0,0,10.574-.65c3.837-.74,7.92-1.957,10.4-5.173,2.534-3.29,2.251-7.089,2.2-11.018q-.041-3.379-.085-6.759a60.386,60.386,0,0,0-.144-6.123,10.885,10.885,0,0,0-5.649-8.382,11.351,11.351,0,0,0-5.084-1.275c-2.575-.053-2.575,3.947,0,4a6.914,6.914,0,0,1,6.31,4.224,13.357,13.357,0,0,1,.532,4.946q.041,2.991.078,5.982.038,3.016.072,6.032a10.455,10.455,0,0,1-.557,4.555c-1.457,3.271-5.013,4.226-8.222,4.943a44.028,44.028,0,0,1-9.727.7H300.861a11.643,11.643,0,0,1-4.481-.484,6.981,6.981,0,0,1-4.25-6.568c-.033-3.718-.055-7.436-.116-11.154-.049-2.966-.6-6.281,1.334-8.8a7.961,7.961,0,0,1,3.726-2.5,26.956,26.956,0,0,1,5.8-1.715,51.6,51.6,0,0,1,6.981-.146l7.59-.007q19.558-.017,39.117-.014l4.328,0C363.464,269.769,363.468,265.769,360.891,265.766Z"/><path class="b" d="M353.006,280.551c.068,5,.013,10,.012,15,0,2.574,4,2.578,4,0,0-5,.056-10-.012-15-.035-2.572-4.035-2.579-4,0Z"/><path class="b" d="M307.39,277.612c12.2,0,24.409-.034,36.614,0,1.516,0,3.04-.025,4.555.034,2.575.1,2.57-3.9,0-4-3.81-.149-7.645-.042-11.457-.044q-10.137-.006-20.272,0-4.72,0-9.44,0c-2.574,0-2.578,4,0,4Z"/><path class="a" d="M286.954,350.4a50.562,50.562,0,0,1,3.829-4.271c5.472-5.483,16.122-9.481,23.946-11.783.738-.217,2.476-.663,3.55-.936a20.852,20.852,0,0,0,10.258,9.722,32.471,32.471,0,0,0,13.42,2.486,57.315,57.315,0,0,0,33.762-11.385l1.861-1.467.8-.632c9.661,3.441,18.193,7.576,24.209,12.618a50.454,50.454,0,0,1,9.857,11.6l.412.736H282.449A49.371,49.371,0,0,1,286.954,350.4Z"/><path class="b" d="M318.652,331.251A107.362,107.362,0,0,0,302.5,336.6c-5.57,2.383-10.728,5.395-14.836,9.9a53.074,53.074,0,0,0-6.94,9.579c-1.27,2.243,2.184,4.261,3.454,2.018,2.694-4.756,6.24-9.636,10.747-12.856,5.274-3.769,11.5-6.169,17.636-8.134,2.363-.757,4.752-1.392,7.157-2,2.5-.626,1.438-4.485-1.064-3.857Z"/><path class="b" d="M316.5,334.343c4.4,8.854,13.789,12.8,23.246,13.226a57.911,57.911,0,0,0,28.579-6.429,64.2,64.2,0,0,0,10.666-6.961,2.01,2.01,0,0,0,0-2.828,2.049,2.049,0,0,0-2.828,0,57.658,57.658,0,0,1-20.429,10.4,52.725,52.725,0,0,1-12.93,1.86c-4.533.077-9.258-.37-13.427-2.282a19.389,19.389,0,0,1-9.423-9c-1.146-2.306-4.6-.282-3.454,2.018Z"/><path class="b" d="M373.17,332.471c14.325,4.653,29.727,11.152,37.552,24.886,1.275,2.237,4.732.224,3.454-2.019-8.361-14.674-24.61-21.744-39.942-26.724-2.454-.8-3.506,3.064-1.064,3.857Z"/></svg>