<?xml version="1.0" encoding="utf-8"?>
<!-- Uploaded to: SVG Repo, www.svgrepo.com, Generator: SVG Repo Mixer Tools -->
<svg width="800px" height="800px" viewBox="-40.39 0 365.45 365.45" xmlns="http://www.w3.org/2000/svg"><defs><style>.a{fill:#ffffff;}.b{fill:#7a7473;}.c{fill:#211715;}.d{fill:#66bd6f;}</style></defs><path class="a" d="M83.784,93.971c.591-11.153,9.628-44.549,59.627-44.549,59.766,0,57.764,48.03,57.764,48.03a8.751,8.751,0,0,1,7-2.048,8.261,8.261,0,0,1,5.94,3.949,11.68,11.68,0,0,1,1.223,4.7,35.005,35.005,0,0,1-3.569,18.554,22.254,22.254,0,0,1-5.753,7.55,14.746,14.746,0,0,1-6.859,3.092l-1.174.182c-.563,2.106-1.2,3.881-1.506,4.823-1.856,5.037-11.637,21.591-24.3,29.4a111.494,111.494,0,0,0,.776,11.457,154.482,154.482,0,0,0,7.664,13.7c3.84,5.974-4.084,25.713-39.024,25.713s-47.029-18.87-38.571-25.864c7.866-6.5,9.448-13.937,9.448-14.008.388-3.63.644-7.618.731-10.842a53.852,53.852,0,0,1-13.851-12.077,59.524,59.524,0,0,1-11.345-22.146c-1.39-.211-2.235-.341-2.235-.341a14.741,14.741,0,0,1-6.859-3.092,22.229,22.229,0,0,1-5.753-7.55,35.005,35.005,0,0,1-3.569-18.554,11.664,11.664,0,0,1,1.223-4.7,8.259,8.259,0,0,1,5.94-3.949,8.747,8.747,0,0,1,7,2.048A32.207,32.207,0,0,1,83.784,93.971Z"/><path class="b" d="M126.466,3.062c-13.081,1.492-26.542,6.2-37.453,17.181L94.235,24.7c-8.9,5.5-15.891,16.155-19.1,25.587-3.779,11.1-4.908,26.889-.421,45.547l.033.137a8.2,8.2,0,0,1,2.011-.568,8.747,8.747,0,0,1,7,2.048l7.5-4.468.617-.368c15.864-14.845,24.709-20.991,38.927-32.161.086.99,3.256,8.915,4,9.217.914.372,10.079-5.294,17.538-9.9L164.927,61.3c5.783,1.265,11.209,4.407,16.1,8.611,8.662,7.454,15.629,18.247,19.876,27.849a8.565,8.565,0,0,1,7.277-2.356,8.256,8.256,0,0,1,1.525.379c4.35-11.175,4.987-27.364-.506-42.723-3.863-10.8-13.072-22.091-20.332-25.268l-8.572-6.109C171.879,10.159,157.857,3.094,139.91,2.545A93.633,93.633,0,0,0,126.466,3.062Z"/><path class="c" d="M196.668,126.734a30.114,30.114,0,0,1-1.477,7.732c-.261.859-.545,1.71-.83,2.561-.091.271-.187.539-.281.809-.027.079-.064.155-.093.234-.158.438.217-.482.028-.065a59.958,59.958,0,0,1-3.909,7.144,69.775,69.775,0,0,1-15.631,18,29.778,29.778,0,0,1-11.562,5.84c-3.01.689-1.736,5.318,1.276,4.628,8.673-1.988,15.937-8.232,21.667-14.763a75.451,75.451,0,0,0,12.119-18.011,37.936,37.936,0,0,0,3.493-14.107c.1-3.089-4.7-3.086-4.8,0Z"/><path class="c" d="M83.81,125.832a70.13,70.13,0,0,0,8.968,24.845c5.082,8.264,12.424,15.728,21.074,20.238a40.6,40.6,0,0,0,14.693,4.405,2.416,2.416,0,0,0,2.4-2.4,2.454,2.454,0,0,0-2.4-2.4c-17.662-1.822-31.408-17.633-36.956-33.544a78.235,78.235,0,0,1-3.15-12.42,2.419,2.419,0,0,0-2.952-1.676,2.455,2.455,0,0,0-1.677,2.952Z"/><path class="c" d="M187.652,29.865a27.943,27.943,0,0,1,8.9,7.008,54.318,54.318,0,0,1,7.974,11.511c4.645,8.919,6.484,19.458,6.18,29.451a54.343,54.343,0,0,1-2.551,15.158c-.956,2.945,3.677,4.206,4.628,1.276,3.226-9.934,3.431-20.761,1.606-30.986A59.713,59.713,0,0,0,201.239,34.95c-3.07-3.635-6.768-7.257-11.165-9.23a2.474,2.474,0,0,0-3.283.861,2.419,2.419,0,0,0,.861,3.284Z"/><path class="c" d="M98.48,19.985C88.022,23.9,80.261,33.346,75.5,43.159c-4.651,9.591-6.3,20.315-6.092,30.91a105.752,105.752,0,0,0,2.985,22.4c.715,3,5.345,1.732,4.628-1.276-4.858-20.395-4.5-43.765,9.622-60.567,3.541-4.212,7.89-8.063,13.109-10.016a2.467,2.467,0,0,0,1.676-2.952,2.419,2.419,0,0,0-2.952-1.677Z"/><path class="c" d="M182.364,20.472C174.387,9.635,162.243,3.107,149.057,1.018c-13.413-2.125-28.13-.98-40.824,3.965A60.556,60.556,0,0,0,87.316,18.546c-2.188,2.186,1.2,5.581,3.394,3.394,9.478-9.469,22.021-14.823,35.236-16.416,12.542-1.513,26.034-.8,37.467,5.017A41.87,41.87,0,0,1,178.219,22.9a2.473,2.473,0,0,0,3.284.861,2.419,2.419,0,0,0,.861-3.284Z"/><path class="c" d="M154.905,55.366c-5.007,3.073-9.972,6.219-15.048,9.177-1.014.59-2.033,1.174-3.066,1.729-.406.218-.813.432-1.226.635-.16.079-.321.155-.482.231-.294.14-.489.168-.042.026a1.51,1.51,0,0,0-.379.134c-.146.18-.418-.159.033.024a8.081,8.081,0,0,1,1.678.556c.128.1.3.492.043.018-.436-.805-.843-1.617-1.215-2.455-.439-.987-.842-1.975-1.29-3.164-.174-.464-.346-.928-.5-1.4-.1-.294-.347-1.5-.208-.424a2.44,2.44,0,0,0-4.1-1.7c-9.995,7.848-20.177,15.447-29.742,23.827q-4.981,4.365-9.8,8.91C87.3,93.613,90.7,97,92.955,94.889c9.786-9.18,20.087-17.663,30.7-25.863q4.432-3.425,8.846-6.874l-4.1-1.7a25.042,25.042,0,0,0,2.185,6.325c.761,1.794,1.681,4.923,3.934,5.261,1.773.266,3.744-1.1,5.224-1.914,2.7-1.483,5.336-3.088,7.965-4.693,3.214-1.961,6.409-3.954,9.617-5.923,2.629-1.613.22-5.766-2.422-4.145Z"/><path class="c" d="M164.289,63.614c8.3,1.88,15.155,7.381,20.724,13.6a83.452,83.452,0,0,1,13.382,20.8,2.417,2.417,0,0,0,3.283.861,2.455,2.455,0,0,0,.861-3.283,87.156,87.156,0,0,0-14.417-22.083c-6.035-6.66-13.644-12.5-22.557-14.52-3.008-.682-4.292,3.945-1.276,4.628Z"/><path class="c" d="M114.842,178.96c.371-3.709.657-7.422.766-11.149a2.421,2.421,0,0,0-2.4-2.4,2.448,2.448,0,0,0-2.4,2.4c-.109,3.727-.4,7.44-.766,11.149a2.408,2.408,0,0,0,2.4,2.4,2.466,2.466,0,0,0,2.4-2.4Z"/><path class="c" d="M169.779,167.911a111.842,111.842,0,0,0,.777,11.2,2.461,2.461,0,0,0,2.4,2.4c1.173-.053,2.558-1.065,2.4-2.4a111.842,111.842,0,0,1-.777-11.2,2.4,2.4,0,0,0-4.8,0Z"/><path class="c" d="M259.474,89.115c-7.263,2.177-14.388,4.774-21.5,7.4a2.465,2.465,0,0,0-1.676,2.952,2.419,2.419,0,0,0,2.952,1.676c7.112-2.622,14.237-5.22,21.5-7.4,2.952-.885,1.694-5.519-1.276-4.628Z"/><path class="c" d="M225.041,182.678c3.269,2.067,6.375,4.42,9.5,6.693q6.478,4.713,12.889,9.519,2.784,2.085,5.548,4.2a2.414,2.414,0,0,0,3.284-.862,2.46,2.46,0,0,0-.861-3.283q-11.575-8.909-23.506-17.368c-1.46-1.037-2.918-2.086-4.433-3.044-2.618-1.655-5.029,2.5-2.422,4.145Z"/><path class="c" d="M266.334,116.773c1.874-.208,3.758-.456,5.645-.492.725-.014,1.448.011,2.171.059.414.028.827.066,1.24.1.448.037-.137-.044.306.037.31.057.619.119.924.2q.4.1.782.241c.055.019.5.2.25.091-.222-.1.117.061.13.068.233.123.465.245.687.387.1.06.187.122.279.186-.338-.233.05.049.116.11a6.2,6.2,0,0,1,.533.554c-.3-.354.038.092.124.244.048.087.087.18.138.265-.216-.358-.054-.156-.01-.019.083.258.152.514.215.777.012.049.052.379.02.08-.035-.323,0,.105,0,.183.009.235-.013.465-.017.7.006-.414.01-.085-.048.139-.032.123-.085.248-.113.373.041-.187.15-.28.012-.042-.057.1-.41.568-.236.4.278-.277-.509.417-.095.1a4.1,4.1,0,0,1-.666.4c-.248.124.024-.012.065-.026-.175.059-.349.114-.528.159-.107.026-.216.043-.323.071.436-.111,0,0-.124,0a6.537,6.537,0,0,1-.885-.023c-.126-.01-.251-.022-.377-.035.017,0-.679-.085-.357-.038.278.041-.058-.011-.1-.018-.159-.03-.318-.057-.476-.09a10.533,10.533,0,0,1-1.414-.41c-.091-.033-.182-.067-.272-.1.007,0-.55-.225-.292-.116s-.107-.048-.127-.057l-.695-.309a2.461,2.461,0,0,0-3.283.861,2.428,2.428,0,0,0,.861,3.284c2.417,1.085,5.025,2.091,7.739,1.829,3.111-.3,5.91-2.284,6.421-5.509a7.93,7.93,0,0,0-3.391-7.873c-2.254-1.569-5.056-1.885-7.726-2a46.122,46.122,0,0,0-7.11.473,2.46,2.46,0,0,0-2.4,2.4,2.424,2.424,0,0,0,2.4,2.4Z"/><path class="c" d="M274.605,177.352c.448.283.874.595,1.3.907.329.241-.426-.339-.195-.151.071.058.143.113.214.17.132.107.264.215.394.325.305.257.6.524.891.8q.4.386.781.8.188.209.368.423c.05.061.305.4.045.047s.017.027.07.1a8.2,8.2,0,0,1,.572.912c.082.153.148.313.227.467-.37-.72-.063-.12,0,.109.043.157.064.317.1.475-.187-.792-.038-.271-.046,0-.016.556.116-.47.027-.112-.03.12-.254.772-.073.336s-.081.112-.148.224c-.046.077-.26.375.01,0s.066-.083-.011-.016a1.443,1.443,0,0,0-.144.137c-.2.24.223-.173.252-.185-.179.079-.345.229-.522.319-.487.247.436-.146.088-.033-.174.056-.345.115-.522.161s-.332.071-.5.1c-.2.041-.489.015.236-.026-.118.007-.236.026-.354.035a12.281,12.281,0,0,1-2.332-.057c-.082-.009-.164-.023-.247-.03.785.069.328.044.15.016q-.33-.052-.658-.116-.594-.117-1.179-.273c-.363-.1-.722-.2-1.076-.327-.14-.048-.279-.1-.418-.153-.473-.172.638.291.081.033a2.458,2.458,0,0,0-3.284.861,2.43,2.43,0,0,0,.861,3.284,16.888,16.888,0,0,0,4.763,1.373,11.774,11.774,0,0,0,6.526-.577,5.576,5.576,0,0,0,3.266-5.3,9.442,9.442,0,0,0-2.822-5.7,21.388,21.388,0,0,0-4.275-3.509,2.421,2.421,0,0,0-3.283.861,2.452,2.452,0,0,0,.861,3.284Z"/><path class="c" d="M254.567,150.686c.5.3.982.642,1.453.991.346.255-.4-.325-.165-.129.077.064.157.125.234.188q.194.156.382.318.5.423.958.884c.286.285.561.582.821.892a1.86,1.86,0,0,0,.171.209c-.41-.359-.219-.3-.089-.112s.282.4.411.608c.1.167.2.338.291.513.05.1.1.194.143.291.1.2-.009.244-.093-.221.032.178.13.363.178.538.027.1.052.2.073.3.054.262-.074.463-.012-.15-.016.159.021.331.017.492,0,.1-.065.493.014.053.083-.457,0-.028-.019.053-.037.17-.094.332-.144.5-.138.451.237-.425.074-.179-.061.094-.1.2-.162.3-.047.077-.112.152-.151.232.247-.5.317-.375.176-.229-.122.127-.248.251-.371.377-.243.247.528-.337.07-.059-.166.1-.331.192-.5.282-.442.233.583-.209.03-.022-.154.053-.311.1-.47.137s-.325.067-.488.1c-.363.073.3-.038.3-.038-.113.006-.226.026-.339.035a11.637,11.637,0,0,1-2.2-.046c-.095-.01-.19-.024-.286-.033-.269-.028.691.107.186.022-.2-.034-.4-.065-.605-.1q-.518-.1-1.029-.221-.885-.213-1.751-.5a2.419,2.419,0,0,0-2.952,1.677A2.454,2.454,0,0,0,250.4,161.6c3.195,1.041,6.928,1.671,10.1.288a6.259,6.259,0,0,0,3.621-5.334c.184-2.365-1.125-4.55-2.614-6.267a19.068,19.068,0,0,0-4.522-3.74,2.4,2.4,0,1,0-2.423,4.144Z"/><path class="c" d="M23.941,93.743c7.263,2.177,14.388,4.775,21.5,7.4a2.421,2.421,0,0,0,2.952-1.676,2.451,2.451,0,0,0-1.676-2.952c-7.112-2.623-14.237-5.22-21.5-7.4-2.965-.889-4.233,3.742-1.276,4.628Z"/><path class="c" d="M57.228,178.533c-3.27,2.067-6.375,4.42-9.5,6.694q-6.479,4.711-12.889,9.518c-1.856,1.391-3.71,2.785-5.548,4.2a2.48,2.48,0,0,0-.861,3.283,2.416,2.416,0,0,0,3.284.862q11.576-8.908,23.506-17.368c1.46-1.037,2.918-2.087,4.432-3.044,2.6-1.646.2-5.8-2.422-4.145Z"/><path class="c" d="M18.357,111.973c-4.537-.5-9.623-1.158-13.871.958A8.012,8.012,0,0,0,0,119.943a6.732,6.732,0,0,0,5.154,6.723c3.145.78,6.3-.337,9.135-1.609a2.409,2.409,0,0,0,.861-3.284,2.47,2.47,0,0,0-3.283-.861c-.267.12-.535.234-.8.355s.022-.008.065-.025c-.126.051-.252.1-.378.152a11.427,11.427,0,0,1-1.325.428c-.213.054-.427.1-.642.14-.168.031-.6.088-.184.038a10.066,10.066,0,0,1-1.725.11c-.072,0-.521-.065-.226-.013.276.049-.085-.025-.114-.033l-.426-.115c-.021,0-.367-.125-.127-.033s-.092-.047-.116-.06c-.131-.072-.257-.145-.383-.222-.022-.013-.3-.232-.115-.076.211.181-.187-.211-.229-.244.033.026.2.337.077.108-.06-.111-.137-.217-.2-.326-.049-.082-.09-.171-.131-.257.048.1.131.435.037.03-.045-.191-.091-.381-.135-.572.123.534.01-.17.013-.354,0-.134.021-.268.023-.4,0,.038-.085.407-.015.139.059-.229.1-.46.169-.686.04-.128.085-.255.134-.379-.018.047-.18.327-.035.118.055-.079.093-.179.142-.262,0,0,.336-.507.144-.245-.148.2.292-.307.382-.393.106-.1.218-.2.331-.291-.037.03-.267.194-.041.044s.44-.283.672-.407c.1-.053.2-.1.3-.153.222-.111-.235.068.167-.07a11.593,11.593,0,0,1,1.583-.436c.117-.023.685-.1.3-.056.265-.028.53-.051.794-.072.757-.062,1.514-.11,2.273-.115a53.228,53.228,0,0,1,6.226.5,2.406,2.406,0,0,0,2.4-2.4,2.471,2.471,0,0,0-2.4-2.4Z"/><path class="c" d="M7.664,173.207a22.431,22.431,0,0,0-3.8,3.017A10.381,10.381,0,0,0,.7,181.356a5.721,5.721,0,0,0,2.662,6.129,9.787,9.787,0,0,0,5.8.957,18.413,18.413,0,0,0,5.956-1.524,2.41,2.41,0,0,0,.861-3.284,2.468,2.468,0,0,0-3.284-.861c-.528.244.46-.173.158-.063-.122.044-.242.094-.364.137-.295.106-.594.2-.894.287a20.39,20.39,0,0,1-2.21.484c-.541.092.6-.067-.037,0-.186.02-.371.038-.558.052-.41.03-.821.043-1.233.033-.18,0-.361-.013-.541-.028-.079-.006-.158-.015-.237-.022-.446-.036.538.1.233.032-.368-.081-.723-.158-1.084-.267-.482-.146.55.275.038.015-.153-.078-.292-.172-.44-.261-.293-.176.457.439.1.06a2.459,2.459,0,0,0-.173-.18c-.169-.146.358.565.129.166-.083-.145-.159-.313-.253-.45.325.472.16.45.1.212-.022-.087-.052-.172-.073-.26-.127-.544.013.478.01.114,0-.28.143-.922-.051-.1.074-.313.2-.636.258-.948,0,.01-.271.587-.109.259.042-.086.082-.173.126-.259.1-.193.207-.38.322-.564.085-.136.175-.27.268-.4.059-.083.123-.163.181-.247.176-.256-.4.49-.109.145.27-.316.541-.629.832-.927a20.569,20.569,0,0,1,1.852-1.652c.327-.262-.43.323-.193.149l.242-.182q.206-.151.415-.3.338-.237.686-.458a2.4,2.4,0,0,0-2.422-4.145Z"/><path class="c" d="M27.7,146.542c-3.292,1.989-6.8,5.216-7.133,9.267a6.275,6.275,0,0,0,3.051,5.794,9.552,9.552,0,0,0,5.622,1.022,22.671,22.671,0,0,0,5.05-1.03,2.4,2.4,0,0,0-1.276-4.629,23.363,23.363,0,0,1-3.441.829c-.371.061.3-.039.3-.039-.1.009-.191.024-.286.035-.173.019-.346.035-.52.048-.386.029-.775.042-1.162.034-.173,0-.345-.012-.518-.025-.243-.019-.777-.165.019.015a10.317,10.317,0,0,1-1.069-.255c-.523-.177.395.212.078.045-.156-.082-.313-.156-.463-.249-.058-.036-.115-.082-.174-.115-.289-.162.222.165.236.186a3.893,3.893,0,0,0-.416-.405c-.334-.344.319.489.019,0-.05-.08-.091-.165-.139-.246-.124-.2-.05-.364.07.2-.036-.167-.12-.33-.163-.5-.026-.1-.036-.211-.065-.311-.065-.222.018.655.033.142a4.665,4.665,0,0,0,.015-.554c.05.49-.085.5-.036.271.022-.1.041-.2.065-.3.046-.184.11-.359.165-.54.11-.357-.083.19-.1.219.065-.109.107-.237.165-.35a8.472,8.472,0,0,1,.653-1.07c.064-.09.142-.176.2-.27-.019.03-.377.46-.124.168.148-.17.29-.344.442-.511a18.236,18.236,0,0,1,1.992-1.838c.357-.289-.479.358-.118.092.088-.066.176-.132.265-.2.138-.1.277-.2.418-.3.252-.173.508-.34.77-.5a2.4,2.4,0,1,0-2.423-4.144Z"/><path class="d" d="M27.261,363.05c-3.289-35.651-7.728-90.266,3.808-121.141a68.665,68.665,0,0,1,5.2-11.647c4.648-7.685,12.093-13.221,19.606-18.143,14.026-9.189,28.978-11.862,44.556-18.068l1.712-.682c1.093-2.988,5.649-11.537,7.266-15.713.124-.32.288-.678.617-.775.358-.107.713.154,1,.4,3.173,2.724,20.591,16.912,22.459,19.2.643,2.165,1.753,5.024,3.62,10.89,1.506,3.573,4.211,10.227,5.66,13.349,2.082-4.365,4.795-10.811,6.949-16,1.041-3.169,1.878-6.718,2.331-8.244,1.868-2.289,19.286-16.477,22.459-19.2.284-.244.638-.5,1-.4.328.1.492.455.616.775,1.762,4.55,7.013,14.291,7.465,16.391,15.586,6.207,30.545,8.878,44.578,18.072,7.513,4.922,14.958,10.458,19.606,18.143a68.665,68.665,0,0,1,5.2,11.647c11.536,30.875,7.1,85.49,3.808,121.141"/><path class="c" d="M182.958,196.365c14.149,5.61,29.364,8.749,42.435,16.84,6.012,3.722,11.938,7.959,16.632,13.292s7.35,12.058,9.558,18.733c3.718,11.244,5.153,23.179,5.885,34.953a374.834,374.834,0,0,1,.031,40.393c-.585,12.769-1.6,25.512-2.75,38.241q-.19,2.116-.387,4.233a2.418,2.418,0,0,0,2.4,2.4,2.45,2.45,0,0,0,2.4-2.4c1.172-12.712,2.248-25.435,2.925-38.185a405.217,405.217,0,0,0,.37-41.269c-.608-12.416-1.9-25.036-5.421-37-.873-2.965-1.938-5.864-3.064-8.741a51.661,51.661,0,0,0-5.263-10.54c-4.249-6.188-10.1-10.963-16.236-15.185a97.42,97.42,0,0,0-20.7-10.775c-7.243-2.764-14.7-4.925-22-7.532q-2.79-1-5.546-2.086a2.416,2.416,0,0,0-2.952,1.676,2.456,2.456,0,0,0,1.676,2.952Z"/><path class="c" d="M214.23,277.071a272.415,272.415,0,0,0-3.306,38.652c-.148,9.312-.1,18.625-.046,27.937q.057,9.7.069,19.39c0,3.089,4.8,3.094,4.8,0,0-10.507-.107-21.014-.124-31.522-.018-10.53,0-21.08.749-31.588q.775-10.846,2.486-21.593a2.474,2.474,0,0,0-1.676-2.952,2.418,2.418,0,0,0-2.952,1.676Z"/><path class="c" d="M99.789,191.737c-14.532,5.761-30.155,9.012-43.581,17.324-6.223,3.852-12.423,8.263-17.33,13.735-5.18,5.775-8.154,12.763-10.678,20.015-4,11.476-5.522,23.8-6.346,35.867a365.474,365.474,0,0,0-.166,41.115c.58,13.031,1.611,26.035,2.786,39.024q.19,2.116.387,4.233a2.465,2.465,0,0,0,2.4,2.4,2.417,2.417,0,0,0,2.4-2.4c-1.148-12.454-2.205-24.918-2.883-37.408-.733-13.487-1.069-27.018-.482-40.518.525-12.106,1.7-24.341,4.974-36.047,1.77-6.332,4.037-12.937,7.617-18.48,3.8-5.88,9.379-10.394,15.086-14.322a92.915,92.915,0,0,1,19.955-10.446c7.116-2.69,14.428-4.82,21.591-7.377q2.79-1,5.546-2.087a2.474,2.474,0,0,0,1.677-2.952,2.417,2.417,0,0,0-2.953-1.676Z"/><path class="c" d="M65.165,278.347a265.241,265.241,0,0,1,3.14,37.748c.142,9.251.093,18.5.039,27.755q-.057,9.6-.068,19.2c0,3.089,4.8,3.094,4.8,0,0-10.622.11-21.243.125-31.865.016-10.663-.013-21.343-.8-31.981-.551-7.411-1.434-14.8-2.6-22.133a2.416,2.416,0,0,0-2.952-1.676,2.457,2.457,0,0,0-1.676,2.952Z"/><path class="c" d="M144.83,219.508c-.981-2.124-1.88-4.286-2.781-6.444-.968-2.319-2.093-4.637-2.861-7.029-.812-2.529-1.673-5.041-2.533-7.554-.5-1.453-.8-3.019-1.893-4.146-2.084-2.152-4.476-4.046-6.756-5.981-3.146-2.669-6.319-5.305-9.493-7.939q-1.92-1.593-3.839-3.188c-1.072-.892-2.306-2.286-3.66-2.659-2.071-.57-3.322.968-4,2.652-.22.544-.076.208-.321.771-.222.51-.452,1.017-.684,1.522-.97,2.108-2,4.189-3.009,6.275-.873,1.795-1.757,3.587-2.543,5.421-.536,1.253-1.2,2.577-.8,3.967a17.869,17.869,0,0,0,1.715,3.471c1.031,1.854,2.117,3.679,3.224,5.489a114.767,114.767,0,0,0,9.425,13.838,3.711,3.711,0,0,0,4.55,1c1.6-.842,2.274-3,3.057-4.525q2.432-4.742,4.922-9.453c1.446-2.728-2.7-5.157-4.144-2.423q-2.014,3.8-3.984,7.625-.862,1.677-1.721,3.356l-.512,1c-.576,1.126-.441.232,1.028.073.555-.06.383.382.2-.043a2.975,2.975,0,0,0-.358-.462c-2.719-3.559-5.169-7.333-7.533-11.135-1.775-2.855-3.58-5.74-5.073-8.757-.085-.172-.156-.355-.25-.522-.163-.288.159.61.053.1-.059-.285.057.6.057.507,0-.281-.269.592-.047.334a2.414,2.414,0,0,0,.184-.6c.1-.273.206-.542.317-.809-.2.481.178-.392.238-.526.387-.862.793-1.715,1.2-2.566.983-2.05,1.992-4.087,2.972-6.139.472-.989.94-1.981,1.387-2.982a19.529,19.529,0,0,1,1.253-2.765l-.861.861.278-.173-1.211.328h.354l-1.211-.327a1.494,1.494,0,0,1,.614.41c.234.2.47.395.7.593q.978.817,1.96,1.632,2.591,2.151,5.182,4.3c3.669,3.053,7.347,6.1,10.932,9.254a29.15,29.15,0,0,1,3.222,3.032l-.617-1.059a189.412,189.412,0,0,0,9.522,24.812,2.419,2.419,0,0,0,3.284.861,2.456,2.456,0,0,0,.861-3.283Z"/><path class="c" d="M144.83,221.93c1.983-4.174,3.782-8.436,5.573-12.7a57.819,57.819,0,0,0,2.387-6.387c.548-1.9,1.008-3.829,1.562-5.729l-.617,1.059a25.034,25.034,0,0,1,2.672-2.547c1.617-1.436,3.264-2.839,4.915-4.237,3.694-3.128,7.424-6.214,11.15-9.306q1.122-.931,2.242-1.865.438-.366.875-.733a2.756,2.756,0,0,1,.76-.534l-1.211.327h.355l-1.212-.328.279.173-.861-.861A39.752,39.752,0,0,1,176,183.3c.866,1.832,1.761,3.651,2.645,5.474q.645,1.326,1.275,2.659c.166.353.33.7.491,1.059l.243.541c.047.1.3.707.094.206.177.425.291.886.476,1.3.1.227-.038.558-.022-.294,0,.23-.057.219.072-.5-.079.441-.007.028.06-.1a154.648,154.648,0,0,1-11.935,19.2c-.31.424-.623.847-.942,1.265-.048.062-.218.259-.268.347-.09.114-.18.229-.271.342q.836-.582,1.723.362c.1-.342-.832-1.627-1.027-2.008q-.528-1.031-1.057-2.06-2.2-4.28-4.449-8.532c-1.447-2.731-5.592-.308-4.145,2.423q2.205,4.161,4.356,8.349c1.251,2.434,2.462,6.662,5.99,5.95,2.294-.464,3.733-3.3,5-5.081,1.443-2.025,2.823-4.095,4.167-6.186,2.214-3.445,4.389-6.943,6.309-10.563A7.394,7.394,0,0,0,186,194.283c.007-1.4-.839-2.866-1.4-4.1-1.742-3.853-3.722-7.594-5.456-11.452-.146-.326-.455-1.032-.5-1.15-.064-.154-.363-.972-.538-1.3a3.151,3.151,0,0,0-4.825-1.078c-.961.677-1.835,1.514-2.737,2.265-5.685,4.731-11.431,9.4-16.986,14.28-.978.86-1.985,1.713-2.883,2.659a5.216,5.216,0,0,0-1.226,2.4c-.392,1.449-.763,2.9-1.173,4.346a79.386,79.386,0,0,1-3.63,9.455c-1.276,2.986-2.572,5.964-3.965,8.9a2.465,2.465,0,0,0,.861,3.283,2.421,2.421,0,0,0,3.284-.861Z"/><path class="c" d="M140.357,220.719q0,27.813.181,55.627.151,28.828.343,57.657c.058,9.682.132,19.365.134,29.047,0,3.089,4.8,3.094,4.8,0,0-18.1-.179-36.2-.29-54.294q-.177-28.944-.3-57.887-.057-15.075-.065-30.15c0-3.089-4.8-3.094-4.8,0Z"/><path class="c" d="M202.872,99.149a6.261,6.261,0,0,1,8.794.814c1.144,1.509,1.276,3.6,1.362,5.416a31.6,31.6,0,0,1-.349,6.648c-1.3,7.825-5.436,17.417-14.159,18.907a2.418,2.418,0,0,0-1.676,2.952,2.455,2.455,0,0,0,2.952,1.676c8.8-1.5,14.009-9.8,16.442-17.716a36.824,36.824,0,0,0,1.566-12.91c-.253-4.221-1.441-8.154-5.25-10.461a11.238,11.238,0,0,0-13.076,1.28,2.421,2.421,0,0,0,0,3.394,2.449,2.449,0,0,0,3.394,0Z"/><path class="c" d="M85.452,95.755a11.21,11.21,0,0,0-11.508-2.037c-4.138,1.689-6.146,5.234-6.666,9.528a35.805,35.805,0,0,0,6.138,24.465c2.852,3.935,6.837,7.018,11.719,7.851a2.471,2.471,0,0,0,2.952-1.676,2.419,2.419,0,0,0-1.676-2.952c-8.723-1.49-12.856-11.082-14.159-18.907a31.489,31.489,0,0,1-.358-6.427c.075-1.836.18-3.931,1.272-5.489a6.232,6.232,0,0,1,8.892-.962,2.462,2.462,0,0,0,3.394,0,2.421,2.421,0,0,0,0-3.394Z"/><path class="c" d="M142.439,117.926a53.115,53.115,0,0,1,1.248,5.71L143.6,123a3.463,3.463,0,0,1,.022.788l.085-.638a1.894,1.894,0,0,1-.086.355l.242-.574a1.406,1.406,0,0,1-.126.228l.376-.486a1.162,1.162,0,0,1-.187.184l.486-.375a3.548,3.548,0,0,1-.452.239l.573-.242a3.33,3.33,0,0,1-.762.223l.638-.086a3.009,3.009,0,0,1-.716,0l.638.086c-.269-.038-.534-.1-.8-.14a2.655,2.655,0,0,0-1.849.242,2.4,2.4,0,0,0-.861,3.284,2.3,2.3,0,0,0,1.434,1.1c.567.076,1.118.222,1.694.247a5.315,5.315,0,0,0,2.437-.571,3.4,3.4,0,0,0,1.921-2.257,5.874,5.874,0,0,0-.028-2.49c-.31-1.839-.735-3.663-1.209-5.467a2.4,2.4,0,0,0-4.628,1.276Z"/><path class="c" d="M142.809,135.387c-.115,0-.878-.08-.42-.014-.338-.049-.675-.124-1.009-.2-.9-.2-1.783-.437-2.674-.658a33.108,33.108,0,0,0-6.081-1.048,11.36,11.36,0,0,0-10.474,5.441c-4.747,7.429-2.273,19.771,7.488,21.241a13.469,13.469,0,0,0,6.822-.611c1.84-.715,3.511-2.082,5.462-2.471,1.812-.362,3.356.56,4.9,1.38a14.773,14.773,0,0,0,6.442,1.876,11.482,11.482,0,0,0,11.108-6.306,16.177,16.177,0,0,0,.242-12.84c-1.88-4.55-5.769-7.707-10.8-7.733a27.377,27.377,0,0,0-6.466.935c-.931.224-1.856.473-2.787.695-.407.1-.815.18-1.223.266-.106.022-.489.06.01.011-.18.017-.358.03-.538.034-3.084.073-3.095,4.874,0,4.8,5.219-.124,11.768-4.6,15.964.383,3.893,4.621,2.976,14.4-4.183,14.942a8.986,8.986,0,0,1-4.88-.96,19.394,19.394,0,0,0-4.939-2.148,10.03,10.03,0,0,0-6.061.715,38.328,38.328,0,0,1-4.382,2.088c-3.082.892-6.8.132-8.5-2.779a11.147,11.147,0,0,1-.391-9.484,8.244,8.244,0,0,1,2.854-3.709,6.954,6.954,0,0,1,4.676-.942c3.336.256,6.489,1.819,9.839,1.894C145.9,140.257,145.9,135.457,142.809,135.387Z"/><path class="c" d="M122.7,106.42a16.363,16.363,0,0,0-5.013-.617,44.517,44.517,0,0,0-4.96.613,2.4,2.4,0,0,0-1.434,1.1,2.4,2.4,0,0,0,.861,3.284,2.782,2.782,0,0,0,1.849.242l1.095-.169.6-.089.294-.042-.348.046a19.724,19.724,0,0,1,2.044-.188,13.835,13.835,0,0,1,1.984.06c.612.064-.465-.087.027,0,.177.032.355.06.532.095.4.08.8.179,1.194.289a2.4,2.4,0,0,0,1.276-4.628Z"/><path class="c" d="M163.691,109.827c.37-.1.743-.189,1.12-.262a3.322,3.322,0,0,0,.61-.1c-.389.05-.453.06-.192.028l.146-.015a13.73,13.73,0,0,1,2.058-.044c.326.016.652.043.977.076.165.018.329.038.494.057.481.056-.6-.086,0,0,.736.107,1.469.233,2.2.353a2.61,2.61,0,0,0,1.849-.241,2.4,2.4,0,0,0-.573-4.387,44.259,44.259,0,0,0-4.954-.66,16.345,16.345,0,0,0-5.018.567,2.4,2.4,0,1,0,1.276,4.629Z"/></svg>