<?xml version="1.0" encoding="utf-8"?>
<!-- Uploaded to: SVG Repo, www.svgrepo.com, Generator: SVG Repo Mixer Tools -->
<svg width="800px" height="800px" viewBox="-22.93 0 422.441 422.441" xmlns="http://www.w3.org/2000/svg"><defs><style>.a{fill:#ffffff;}.b{fill:#7a7473;}.c{fill:#211715;}.d{fill:#5394cf;}.e{fill:#d9d9d9;}</style></defs><path class="a" d="M103.433,150.975c-1.913,3.012-5.221,9.779-7.938,12.091-4.67,3.973-11,5.272-16.412,8.149a52.732,52.732,0,0,0-11.477,8.9c-4.782,4.593-5.9,16.648-7.456,28.791a34.336,34.336,0,0,1-8.242,2.515c-10.3,1.705-23.143-2.654-26.628-5.835-2.057-1.878-2.619-3.036-2.52-4.621l1.1-1.4c1.066-1.358,17.3-34.956,19.7-39.2a5.88,5.88,0,0,0,.178-3.844c-1.646-6.527-.951-19.175,2.866-29.153Z"/><path class="a" d="M232.726,182.4c-3.421-2.222-9.173-5.55-10.642-9.356-.638-1.654-1.048-8.295-1.163-12.822a20.352,20.352,0,0,1,.688-5.616c.945-3.549,3.721-6.771,7.067-9.693,0,0,30.176-54.37-16.091-96.9-54.451-50.057-70.009.044-70.009.044a69.8,69.8,0,0,0-3.355,14.872c-1.82,9.225-4.319,22.033-13.567,25.21a8.73,8.73,0,0,0-4.591,3.3c-2.8,4.28.824,7.011,2.849,10.082a14.317,14.317,0,0,1,2.219,6.555,88.523,88.523,0,0,0-.342,13.664,38.325,38.325,0,0,0,1.521,9.465c1.859,5.574,4.885,8.707,8.248,10.614,6.593,3.736,16.042,6.259,22.543,5.614a3.116,3.116,0,0,1,3.335,2.424c.146.648,1.719,16.486,1.644,19.621,0,0-18.9,25.606,19.5,24.539S232.726,182.4,232.726,182.4Z"/><path class="b" d="M142.576,48.056a64.138,64.138,0,0,0-2.28,8.283l7.894-.413c17.562-1.494,20.419,6.467,32.129,10.086,2.43.751,7.022,1.522,8.974,3.265,2.788,2.49,1.894,5.132,1.957,9.114a40.6,40.6,0,0,0,.761,8.588c.273,1.169.373,2.356,1.492,2.821,1.269.528,3.415.1,4.684-.236,0,0,2.63-.694,3.941-1.047a10.088,10.088,0,0,1,3.215-.786,8.952,8.952,0,0,1,7.278,2.407c2.674,2.731,3.294,7.612,2.464,11.4a22.8,22.8,0,0,1-8.48,13.886c.089.533.142.842.142.842,1.528,8.933,10.771,24.256,19.323,31.132,4.4-4.633,10.86-8.573,15.138-11.915,9.78-7.641,25.761-22.577,29.162-47.164,1.59-11.5,1.161-24.13-2.61-35.186-1.724-5.054-4.877-8.557-7.462-13.085-7.235-12.673-8.427-14.133-9.313-15.24a57.818,57.818,0,0,0-15.4-13.4,59.615,59.615,0,0,0-17.2-6.8,67.007,67.007,0,0,0-27.4-1.4,65.05,65.05,0,0,0-29.5,12.675A52.153,52.153,0,0,0,148.73,29.476a50.741,50.741,0,0,0-7.143,18.353Z"/><path class="c" d="M44.283,126.731a60.507,60.507,0,0,0-3.726,24.054,38.511,38.511,0,0,0,.579,5.081c.2,1.091.731,2.273.313,3.347-.449,1.154-1.2,2.271-1.757,3.378-4.561,9-8.952,18.1-13.451,27.131-.977,1.96-1.954,3.92-2.955,5.869a18.793,18.793,0,0,1-1.5,2.763,2.414,2.414,0,0,0,.861,3.284,2.458,2.458,0,0,0,3.283-.861,15.589,15.589,0,0,0,1.237-2.254c.855-1.651,1.687-3.314,2.519-4.978q3.544-7.093,7.037-14.214c2.186-4.43,4.366-8.864,6.587-13.277.666-1.323,1.327-2.65,2.029-3.954a7.6,7.6,0,0,0,1.032-3.8,34.365,34.365,0,0,0-.749-4.552,48.992,48.992,0,0,1,.047-12.091,56.168,56.168,0,0,1,3.242-13.653,2.421,2.421,0,0,0-1.676-2.952,2.454,2.454,0,0,0-2.953,1.676Z"/><path class="a" d="M99.735,91.4q-1.56-2.064-3.13-4.122a.707.707,0,0,0-.994-.13c-20,15.515-38.358,33.016-56.582,50.581-1.926,1.856-2.853,3.7-1.766,5.084.746.951,11.131,14.966,16.839,21.593.938.953,2.2,1.619,3.34,1.085,13.51-5.665,25.629-14.132,37.629-22.533,3.783-2.649,25.54-17.857,27.328-20.467.152-.858-.82-1.854-1.329-2.563C114.151,110.28,106.9,100.865,99.735,91.4Z"/><path class="c" d="M101.808,90.186q-1.136-1.5-2.275-3c-.846-1.112-1.572-2.34-3.079-2.54-1.369-.182-2.28.6-3.289,1.384q-1.683,1.313-3.352,2.645-6.025,4.806-11.876,9.828c-7.871,6.739-15.533,13.72-23.088,20.81q-5.539,5.2-11.016,10.463-2.828,2.711-5.646,5.428c-1.693,1.631-3.6,3.491-3.767,5.987a4.508,4.508,0,0,0,.77,2.829c.2.287.852.782.053.069a.649.649,0,0,1,.074.1c.067.091.137.18.206.271q.79,1.053,1.583,2.1,2.749,3.654,5.531,7.286c2.265,2.95,4.544,5.89,6.883,8.78.939,1.16,1.849,2.4,2.885,3.472a6.644,6.644,0,0,0,3,1.826,5.72,5.72,0,0,0,3.882-.634A160.216,160.216,0,0,0,85.34,152.581c10.175-6.828,20.231-13.922,30.049-21.254,2.12-1.584,4.237-3.179,6.278-4.864,1.558-1.286,3.612-2.734,3.028-5.051a7.763,7.763,0,0,0-1.545-2.685c-.775-1.05-1.525-2.12-2.294-3.176q-2.3-3.156-4.631-6.285-4.81-6.459-9.7-12.859-2.361-3.109-4.718-6.221a2.479,2.479,0,0,0-3.284-.861,2.417,2.417,0,0,0-.861,3.284c3.927,5.189,7.877,10.36,11.786,15.562q2.858,3.8,5.679,7.637,1.443,1.966,2.872,3.943c.454.628.9,1.259,1.37,1.876.156.2.63.826.629.862l.327-1.211c.1-.144.411-.442,0-.038-.174.17-.344.344-.523.51-.492.458-1.008.891-1.526,1.319-.679.561-1.37,1.107-2.063,1.65-.279.218-.312.243-.332.258l-.57.437q-.647.495-1.3.983c-3.869,2.916-7.8,5.747-11.747,8.557-9.132,6.5-18.263,13.08-27.822,18.945-3.377,2.071-6.817,4.041-10.344,5.847q-2.643,1.353-5.351,2.576a9.737,9.737,0,0,1-2.29.978c.392-.055-.052-.092-.3-.265a3.978,3.978,0,0,1-.693-.715c-3.5-4.1-6.785-8.4-10.056-12.683q-2.154-2.825-4.287-5.664l-1.291-1.716q-.174-.233-.35-.464l-.11-.144c-.987-1.289-.142-.328-.181-.208.317-.954,1.8-2.271,2.73-3.17q2.222-2.141,4.447-4.277,4.453-4.273,8.936-8.518C67.316,114.124,79.567,103,92.466,92.663q1.11-.89,2.227-1.772a15.015,15.015,0,0,1,2.382-1.8l-1.212.328-.108-.017L94.7,88.788a25.3,25.3,0,0,1,2.967,3.821,2.477,2.477,0,0,0,3.284.861A2.417,2.417,0,0,0,101.808,90.186Z"/><path class="c" d="M140.262,47.418a67.418,67.418,0,0,0-2.508,9.39c-.552,2.879-.888,5.783-1.484,8.655-.982,4.729-2.095,9.608-4.442,13.874a15.61,15.61,0,0,1-3.971,4.931c-1.9,1.48-4.46,1.913-6.458,3.415a8.515,8.515,0,0,0-3.622,8.121c.464,2.652,2.418,4.526,3.88,6.653a11.659,11.659,0,0,1,1.741,3.84,11.113,11.113,0,0,1,.14,3.828,89.034,89.034,0,0,0-.232,9.7c.2,6.371,1.016,13.155,4.87,18.459,3.34,4.595,8.322,7.043,13.56,8.918a47.2,47.2,0,0,0,8.969,2.275,38.371,38.371,0,0,0,4.344.431c.579.019,1.158.022,1.737,0a8.132,8.132,0,0,1,1.653-.114,2.068,2.068,0,0,1,.334.1c.246.16.179.477.348.587l.011.06c.006.033.01.065.015.1q-.1-.795-.058-.423c.048.587.135,1.173.2,1.758.208,1.972.4,3.946.581,5.92a106.718,106.718,0,0,1,.814,11.57c-.054,3.09,4.746,3.09,4.8,0a93.6,93.6,0,0,0-.664-9.909c-.28-3.141-.543-6.29-.937-9.419a5.581,5.581,0,0,0-4.482-5.026,23.731,23.731,0,0,0-3.817.006,28.389,28.389,0,0,1-3.982-.329c-5.509-.863-11.427-2.654-16.072-5.83-4.4-3-6.358-8.405-7.013-13.517a69.462,69.462,0,0,1-.418-10.488c.07-2.882.675-5.9.183-8.746a18.26,18.26,0,0,0-3.949-8.133c-1.327-1.721-2.64-3.4-1.193-5.436s4.158-2.356,6.181-3.587a18.185,18.185,0,0,0,5.343-5.185c3.172-4.5,4.695-10.094,5.869-15.4.664-3.006,1.087-6.022,1.611-9.052a67.972,67.972,0,0,1,2.751-10.723c1.015-2.924-3.62-4.18-4.629-1.276Z"/><path class="c" d="M233.938,180.33a63.418,63.418,0,0,1-6.429-4.4c-1.661-1.39-3.073-2.779-3.438-4.887a66.4,66.4,0,0,1-.623-7.419c-.144-2.975-.3-5.923.6-8.809,1.447-4.649,6.095-8.228,9.862-11.052,3.811-2.857,7.765-5.5,11.437-8.542a83.092,83.092,0,0,0,18.071-20.488c6.449-10.561,9.549-22.452,10.126-34.759a80.65,80.65,0,0,0-1.6-20.674,46.175,46.175,0,0,0-3.085-9.784,69.081,69.081,0,0,0-4.933-8.131c-3.825-5.93-6.716-12.565-11.122-18.116A59.529,59.529,0,0,0,225,3.98,73.813,73.813,0,0,0,195.287.27c-23.544,2.174-46.644,16.8-54.247,39.919a52.113,52.113,0,0,0-1.767,7,2.467,2.467,0,0,0,1.676,2.952,2.42,2.42,0,0,0,2.952-1.676,48.87,48.87,0,0,1,16.918-28.994A63.71,63.71,0,0,1,189.964,5.814c9.911-1.848,19.84-.975,29.526,1.552A56.012,56.012,0,0,1,246.864,23.68c.873.952,1.7,1.939,2.516,2.944.511.632-.281-.4.081.1.452.631.889,1.269,1.309,1.921,2.3,3.571,4.395,7.275,6.506,10.956,1.64,2.857,3.469,5.567,5.224,8.351a32.1,32.1,0,0,1,3.738,8.333,70.362,70.362,0,0,1,2.6,20.109c-.077,12.018-2.589,23.795-8.6,34.277a77.573,77.573,0,0,1-17.371,20.383c-3.361,2.851-6.938,5.286-10.5,7.909-4.3,3.16-8.83,6.633-11.529,11.343-2.936,5.124-2.4,11.2-1.973,16.865a26.5,26.5,0,0,0,.906,6.511c.9,2.627,3.074,4.665,5.206,6.331,2.085,1.629,4.32,3.024,6.539,4.459,2.6,1.683,5.01-2.471,2.423-4.145Z"/><path class="c" d="M204.433,116.908c1.038,5.837,3.959,11.454,7,16.476a62.54,62.54,0,0,0,12.295,15.185,2.462,2.462,0,0,0,3.394,0,2.421,2.421,0,0,0,0-3.394,58.262,58.262,0,0,1-11.545-14.214c-2.85-4.705-5.546-9.859-6.52-15.329a2.42,2.42,0,0,0-2.952-1.676,2.453,2.453,0,0,0-1.676,2.952Z"/><path class="c" d="M200.736,92.121c2.569-1.995,6.349-2.9,9.259-1.046,2.687,1.712,3.2,5.46,2.991,8.375a20.194,20.194,0,0,1-8.512,14.566,28.608,28.608,0,0,1-9.846,4.06c-3.01.691-1.736,5.32,1.276,4.628,7.527-1.729,14.524-5.664,18.46-12.517,3.91-6.807,5.934-18.32-1.947-23.257a11.88,11.88,0,0,0-7.5-1.558,14.743,14.743,0,0,0-7.58,3.355,2.412,2.412,0,0,0,0,3.394,2.462,2.462,0,0,0,3.394,0Z"/><path class="c" d="M145.516,78.385c-1.389,2.5-2.277,8.766,2.417,10.366,6.371,1.383,8.4-5.98,7.051-9.956C153.881,75.539,149,73.195,145.516,78.385Z"/><path class="c" d="M148.19,58.326a32.52,32.52,0,0,1,14.285,1.542c2.989,1.128,6.224,3.27,9.255,4.967a45.562,45.562,0,0,0,5.646,2.685,64.245,64.245,0,0,0,6.291,1.871c1.882.525,4.176,1.1,4.958,2.859.766,1.729.2,4.546.233,6.62a52.809,52.809,0,0,0,.333,5.748,17.373,17.373,0,0,0,1.177,5.247c1.556,3.247,5.56,2.754,8.457,2.013,2.991-.764,1.723-5.395-1.276-4.628a7.492,7.492,0,0,1-2.97.371c-.364-.063.012-.02.067.111a3.86,3.86,0,0,1-.128-.524c-.2-.831-.383-1.671-.51-2.516a49.26,49.26,0,0,1-.3-9.054c.091-2.553-.141-4.988-1.79-7.051-1.586-1.985-3.924-2.922-6.3-3.629-2.137-.636-4.32-1.077-6.416-1.855a36.055,36.055,0,0,1-4.941-2.349,91.569,91.569,0,0,0-9.767-5.219c-5.158-2.109-10.806-2.455-16.309-2.009a2.461,2.461,0,0,0-2.4,2.4,2.419,2.419,0,0,0,2.4,2.4Z"/><path class="a" d="M324.813,335.131q-5.359-2.772-10.544-5.864c-6.492,16.3-11.508,32.489-13.046,36.35a6.653,6.653,0,0,1-6.5,5.2c-7.65.7-10.55.619-13.245-.318a48.139,48.139,0,0,0-7.688-2.276c-4.055-.766-9.85-.274-14.779.838a57.566,57.566,0,0,0-12.933,4.533c-3.058,1.639-4.647,3.231-3.867,6.3a4.043,4.043,0,0,0,4.534,3.3c3.15-.166,10.832-2.571,16.2-2.472-7.806,3.917-14.86,7.15-21.826,11.67a6.787,6.787,0,0,0-3.295,5.2c-.168,3.263,3.315,5.628,6.5,4.9a35.288,35.288,0,0,0,8.051-3.263l-2.851,2.1c-2.4,1.768-3.538,6.783-1.883,8.457,2.483,2.51,7.8,1.823,10.176.844,1.22-.5,14.2-6.034,20.48-8.7l3.713-1.576-4.4,3.152c-11.484,8.233-4.7,3.37-7.311,5.242-2.419,1.734-5.073,3.878-5.217,6.851a3.363,3.363,0,0,0,.7,2.364,6.91,6.91,0,0,0,3.22,2.03c3.451.25,7.358-2.112,11.841-5.333,2.149-1.546,6.875-5.208,9.493-5.6a17.356,17.356,0,0,1,3.125-.061,19.265,19.265,0,0,0,5.737-1.673c2.189-1.248,5.252-3.309,6.7-5.371,12.614-17.925,26.83-39.708,39.444-57.633A199.538,199.538,0,0,1,324.813,335.131Z"/><path class="a" d="M276.826,373.027c2.447-26.383,3.663-48.306,5.5-68.569,1.233-13.585,4.957-26.22,6.949-36.183,10.716,8.13,20.931,16.428,31.732,24.53-3.017,2.257-1.261,6.831,1.289,6.946a41.484,41.484,0,0,1-3.8,9.432,6.13,6.13,0,0,1,3.23.347c14.121,4.187,32.4,5.629,47.778,5.581,3.76-8.619,5.761-16.271,4.038-25.345-1.652-8.7-7.08-16.138-12.492-23.144-14.17-18.343-29.259-35.972-45.081-52.912-7.285-7.8-14.8-15.513-23.637-21.492-17.651-11.937-39.28-16.141-60.14-20.294-.368-.073-8.974-15.052-9.35-15.164-.346-.1-25.41,16.467-27.209,18.671,0,0-.713.873-1.83,2.244l-1.84.016-2.424-.02-1.826-2.24c-1.8-2.2-27.128-18.938-27.474-18.835-.318.094-9.335,14.886-9.163,16.03-14.722,2.514-38.016,7.3-46.3,13.522-5.908,3.22-36.049,33.136-48.872,51.675l-.2.036a56.613,56.613,0,0,1-41.815-9.293c-.594-.422-1.183-.859-1.737-1.332C1.546,255.467,1.587,280.6,3.169,287.148c1.067,4.421,3.817,11.92,7.882,14.4,15.03,9.173,29.017,7.56,45.548.8,16.173-6.614,35.945-21.324,49.877-31.9l.884-.672c.683,6.606,1.405,13.692,1.98,21.67,1.941,26.917,2.559,58.06,3.425,82.042"/><path class="c" d="M233.255,174.576c13.154,2.62,26.4,5.287,38.974,10.057a93.092,93.092,0,0,1,17.456,8.706,102.271,102.271,0,0,1,16.121,13.3c10.235,10.074,19.779,20.934,29.15,31.807,9.457,10.974,18.876,22.136,27.4,33.861,4.3,5.916,8.17,12.362,9.152,19.738,1.011,7.594-1.071,14.942-4.069,21.856a2.48,2.48,0,0,0,.861,3.284,2.418,2.418,0,0,0,3.284-.861c2.856-6.588,5.133-13.471,4.983-20.74a40.117,40.117,0,0,0-6.221-19.971c-3.654-6.037-8.209-11.542-12.579-17.065q-7.092-8.964-14.469-17.7c-9.648-11.43-19.593-22.651-29.969-33.426a140.006,140.006,0,0,0-16.119-14.652,88.031,88.031,0,0,0-17.961-10.419c-14.255-6.232-29.528-9.379-44.715-12.4a2.462,2.462,0,0,0-2.953,1.677,2.423,2.423,0,0,0,1.677,2.952Z"/><path class="c" d="M289.229,271.232c10.242,7.814,20.265,15.91,30.567,23.645a2.415,2.415,0,0,0,3.284-.861,2.458,2.458,0,0,0-.861-3.284c-10.3-7.735-20.326-15.831-30.568-23.644a2.413,2.413,0,0,0-3.283.861,2.459,2.459,0,0,0,.861,3.283Z"/><path class="c" d="M350.764,280.516l-13.793,4.052c-4.317,1.268-8.756,2.344-12.986,3.88a11.064,11.064,0,0,0-4.569,2.5,10.894,10.894,0,0,0-1.537,1.806,6.275,6.275,0,0,0-.81,2.551,6.059,6.059,0,0,0,5.228,6.845l-2.314-3.038a33.018,33.018,0,0,1-3.555,8.859c-1.578,2.664,2.57,5.081,4.144,2.422a37.613,37.613,0,0,0,4.04-10,2.44,2.44,0,0,0-2.315-3.038q.33.05.075-.017t.046.009c-.195-.4.044.153-.252-.241.216.287-.195-.355-.2-.36.119.254-.066-.222-.088-.3-.189-.682-.066-1.065.563-1.729.077-.082.953-.887.51-.529-.3.242.441-.282.418-.269a11.074,11.074,0,0,1,1.691-.765c1.668-.619,3.393-1.077,5.1-1.578l21.879-6.427c2.958-.869,1.7-5.5-1.276-4.629Z"/><path class="a" d="M374.091,315.051c-16.218.373-36.808-.91-52.361-5.521-1.234-.365-2.613-.736-3.759-.152a5.046,5.046,0,0,0-1.821,2.032l-6.458,10.611a4.24,4.24,0,0,0-.888,2.744c.186,1.168,1.279,1.939,2.283,2.563a199.49,199.49,0,0,0,35.962,17.635,8.328,8.328,0,0,0,4.645.745,8.138,8.138,0,0,0,3.812-2.63,94.549,94.549,0,0,0,18.585-28.027"/><path class="c" d="M374.091,312.651a221.919,221.919,0,0,1-31.8-1.468,133.3,133.3,0,0,1-15.391-2.748c-2.458-.6-5.176-1.842-7.723-1.758-3.4.112-4.843,3.095-6.395,5.644q-2.454,4.032-4.908,8.064a8.041,8.041,0,0,0-1.5,3.967,5.16,5.16,0,0,0,1.828,3.838c2.063,1.849,4.819,3.152,7.206,4.532q3.792,2.192,7.68,4.216,7.845,4.086,16.025,7.468c2.61,1.087,5.24,2.163,7.911,3.094,2.871,1,5.707.964,8.192-.929a41.69,41.69,0,0,0,6.318-6.639q2.973-3.562,5.617-7.387a95.449,95.449,0,0,0,9.008-16.282,2.48,2.48,0,0,0-.861-3.284,2.418,2.418,0,0,0-3.284.861,93.288,93.288,0,0,1-16.144,25.318c-.764.849-1.537,1.693-2.339,2.506a5.132,5.132,0,0,1-2.479,1.73,6.569,6.569,0,0,1-3.164-.67c-1.3-.471-2.583-.97-3.866-1.475q-7.435-2.927-14.6-6.474-7.134-3.519-13.974-7.6c-1.106-.661-2.217-1.319-3.3-2.016-.717-.46-1.128-.571-.7-1.374,1.326-2.519,2.975-4.913,4.455-7.345q1.034-1.7,2.067-3.395c.648-1.062.79-1.727,2.074-1.484,2.271.429,4.5,1.257,6.76,1.78,4.76,1.1,9.586,1.886,14.43,2.508a220.2,220.2,0,0,0,32.863,1.6c3.084-.068,3.095-4.868,0-4.8Z"/><path class="c" d="M263.378,377.821c-4.813,2.441-9.693,4.75-14.466,7.27-2.277,1.2-4.528,2.457-6.726,3.8s-4.452,2.68-5.715,5a7.388,7.388,0,0,0,4.753,10.9c2.409.576,4.764-.138,7.007-1.015a62.543,62.543,0,0,0,7.332-3.543,133.53,133.53,0,0,1,17.1-8.092,2.468,2.468,0,0,0,1.676-2.953,2.419,2.419,0,0,0-2.952-1.676,129.886,129.886,0,0,0-13.534,6.065c-4.18,2.152-8.228,4.827-12.75,6.222-1.387.428-2.72.707-3.96-.25a2.472,2.472,0,0,1-.431-3.394c.985-1.691,3.042-2.612,4.661-3.579,1.956-1.17,3.95-2.274,5.965-3.338,4.772-2.52,9.653-4.829,14.466-7.271,2.756-1.4.329-5.54-2.423-4.144Z"/><path class="c" d="M247.827,399.631a9.922,9.922,0,0,0-3.089,9.744c1.148,3.8,5.848,4.777,9.314,4.493a21.367,21.367,0,0,0,6.792-1.933q4.168-1.766,8.332-3.539,5.166-2.2,10.333-4.392a2.415,2.415,0,0,0,.861-3.284,2.465,2.465,0,0,0-3.284-.861q-7.931,3.366-15.857,6.74l-2.98,1.265c-.2.086-1.338.562-.54.228-.176.074-.352.152-.53.223-2.119.837-5.063,1.312-7.143.266-.3-.152-.45-.351-.7-.493.1.056.184.4,0-.031.1.242.039.086-.008-.072a4.585,4.585,0,0,1-.016-1.458,5.425,5.425,0,0,1,1.906-3.5,2.414,2.414,0,0,0,0-3.394,2.46,2.46,0,0,0-3.394,0Z"/><path class="c" d="M343.279,343.112c-10.739,15.269-21.012,30.858-31.559,46.258-2.562,3.741-5.049,7.573-7.765,11.2a16.3,16.3,0,0,1-8.892,5.667c-1.963.473-3.986.092-5.935.634a17.665,17.665,0,0,0-4.623,2.29c-3.261,2.085-6.224,4.6-9.584,6.54a11.691,11.691,0,0,1-5.3,1.906c-.356.01-.242.059-.563-.117a6.118,6.118,0,0,1-1-.672,1.312,1.312,0,0,1-.53-1.485c.4-2.253,2.935-3.747,4.648-4.989a2.47,2.47,0,0,0,.861-3.284,2.419,2.419,0,0,0-3.284-.861l-.335.24,2.423,4.145q3.488-2.51,6.985-5.008a2.468,2.468,0,0,0,.861-3.284,2.419,2.419,0,0,0-3.283-.861q-3.493,2.5-6.986,5.008a2.469,2.469,0,0,0-.861,3.284,2.42,2.42,0,0,0,3.284.861l.335-.24-2.423-4.145a21.665,21.665,0,0,0-5.662,5.169,7.41,7.41,0,0,0-1,6.629,7.86,7.86,0,0,0,4.807,4.2,9.579,9.579,0,0,0,5.917-.652,31.712,31.712,0,0,0,6.308-3.454c3.141-2.132,6.157-4.953,9.7-6.4a4.246,4.246,0,0,1,1.753-.324,21.614,21.614,0,0,0,3.907-.308,18.125,18.125,0,0,0,5.83-2.19,25.987,25.987,0,0,0,5.4-4.146,48.213,48.213,0,0,0,4.184-5.732c5.806-8.351,11.493-16.784,17.188-25.211,6.388-9.455,12.773-18.914,19.337-28.248a2.421,2.421,0,0,0-.861-3.284,2.45,2.45,0,0,0-3.283.861Z"/><path class="c" d="M262.931,378.325c-4.339-.039-8.636,1.04-12.859,1.909-.871.179-1.743.357-2.621.491-.07.011-.493.056-.083.012-.142.016-.286.036-.429.042a6.637,6.637,0,0,0-.859.03,2.226,2.226,0,0,1-1.652-2.7,2.321,2.321,0,0,1,.808-1.131,12.049,12.049,0,0,1,2.43-1.5,40.2,40.2,0,0,1,6.552-2.608,54.145,54.145,0,0,1,11.864-2.473,28.587,28.587,0,0,1,6.724.09,40.551,40.551,0,0,1,6.949,1.961,23.593,23.593,0,0,0,8.944,1.208c4.655-.177,10.6-.029,13.447-4.407,1.538-2.367,2.306-5.477,3.21-8.135,3.559-10.468,7.144-20.925,11.226-31.2a2.417,2.417,0,0,0-1.677-2.952,2.457,2.457,0,0,0-2.952,1.676c-3.864,9.73-7.3,19.618-10.658,29.531a61.828,61.828,0,0,1-2.829,7.83c-1.112,2.227-3.322,2.405-5.6,2.592-2.072.171-4.154.326-6.234.3q-1.08-.012-2.156-.117c-.1-.011-.479-.068.015.006-.132-.02-.265-.038-.4-.064-.312-.063-.624-.123-.933-.2-2.036-.518-3.971-1.393-6-1.957a36.15,36.15,0,0,0-15.409-.44,58.9,58.9,0,0,0-12.234,3.317c-3.97,1.544-9.511,3.685-9.9,8.629a7.289,7.289,0,0,0,3.115,6.578c1.918,1.192,4.116,1.028,6.243.682,4.642-.756,9.2-2.23,13.945-2.188,3.09.028,3.093-4.772,0-4.8Z"/><path class="c" d="M288.04,260.7c-.547,6.077-2.2,12.162-3.587,18.14a203.949,203.949,0,0,0-4.287,23.265c-1.5,13.434-2.312,26.967-3.43,40.438q-1.1,13.2-2.31,26.4a2.418,2.418,0,0,0,2.4,2.4,2.451,2.451,0,0,0,2.4-2.4c1.365-14.741,2.562-29.5,3.771-44.25q.805-9.836,1.679-19.665a173.814,173.814,0,0,1,3.984-23.081c1.6-7.018,3.533-14.056,4.18-21.248a2.418,2.418,0,0,0-2.4-2.4,2.45,2.45,0,0,0-2.4,2.4Z"/><path class="c" d="M102.9,245.309c.7,16.142,3.079,32.174,4.191,48.291,1.206,17.468,1.824,34.973,2.385,52.472.293,9.138.559,18.277.888,27.413.111,3.08,4.912,3.095,4.8,0-.6-16.782-1.02-33.571-1.707-50.351-.716-17.491-1.8-34.936-3.593-52.352-.873-8.477-1.793-16.956-2.164-25.473-.134-3.077-4.935-3.094-4.8,0Z"/><path class="d" d="M191.967,177.691c-3.412-.029-6.9-.058-9.351-.077a3.132,3.132,0,0,0-3.155,3.168c.033,2.856.16,5.65.174,9.056a3.13,3.13,0,0,0,.225,1.167c1.275,3.143,2.888,6.622,3.811,9.6a3.037,3.037,0,0,1,.125,1.129c-.95,12.919-11.277,123.089-12.48,138.4a3.647,3.647,0,0,0,.918,2.471c4.672,6.144,11.319,13.607,16.635,19.261a4.08,4.08,0,0,0,3.1,1.416,3.575,3.575,0,0,0,3.1-1.416C200.532,355.783,207,349.015,211.7,342.6a3.726,3.726,0,0,0,.919-2.471c-1.2-15.307-11.53-125.477-12.48-138.4a3.057,3.057,0,0,1,.124-1.129c.923-2.976,2.537-6.455,3.812-9.6a3.15,3.15,0,0,0,.225-1.167c.014-3.406.141-6.2.174-9.056a3.132,3.132,0,0,0-3.156-3.168C198.866,177.633,195.38,177.662,191.967,177.691Z"/><path class="c" d="M191.967,175.291c-3.1-.026-6.25-.208-9.351-.077a5.633,5.633,0,0,0-5.54,5.222c-.226,2.924.1,5.987.156,8.919s1.778,5.692,2.85,8.37c.593,1.483,1.43,3.027,1.235,4.637-.067.547-.129,1.095-.19,1.643-.178,1.613-.344,3.228-.507,4.844-1.153,11.416-2.184,22.845-3.223,34.273q-2.049,22.558-4.025,45.124-1.7,19.329-3.353,38.661-.49,5.747-.965,11.5c-.046.572-.125,1.152-.138,1.726-.067,2.9,2.41,5.232,4.106,7.336,3.725,4.62,7.66,9.072,11.679,13.437,1.965,2.134,3.756,4.519,6.873,4.757,2.9.222,4.561-1.413,6.353-3.39,4.151-4.579,8.381-9.094,12.292-13.882q1.431-1.754,2.8-3.56a7.864,7.864,0,0,0,2-4.31,15.274,15.274,0,0,0-.124-1.933q-.195-2.4-.4-4.8-1.431-17.115-2.935-34.224-1.968-22.612-3.994-45.221c-1.162-12.938-2.33-25.876-3.583-38.805-.374-3.853-.746-7.707-1.178-11.554q-.1-.869-.2-1.737c-.207-1.66.8-3.409,1.412-4.926.554-1.367,1.14-2.721,1.711-4.081a15.137,15.137,0,0,0,.786-1.974,11.94,11.94,0,0,0,.2-2.851c.018-1.383.054-2.766.089-4.149a23.386,23.386,0,0,0-.028-4.467,5.639,5.639,0,0,0-5.812-4.581c-3-.01-6,.049-8.994.074-3.087.025-3.094,4.825,0,4.8,2.993-.025,6-.142,8.994-.074.686.016.96.089,1.113.765a8.356,8.356,0,0,1-.032,1.835c-.017.758-.038,1.517-.057,2.276-.038,1.487-.051,2.975-.082,4.462a10.56,10.56,0,0,1-1.25,3.663c-.567,1.34-1.138,2.679-1.667,4.035a13.019,13.019,0,0,0-1.262,4.3,31.193,31.193,0,0,0,.4,3.648q.279,2.56.533,5.124c1.148,11.42,2.182,22.851,3.219,34.281q1.992,21.961,3.91,43.93,1.66,18.938,3.277,37.877.492,5.793.972,11.588.073.906.146,1.812c.132,1.654-1.536,3.115-2.523,4.352-3.766,4.715-7.873,9.144-11.933,13.6-.848.931-1.665,1.9-2.543,2.8.016-.016-.607.5-.313.312-.013.008-.368.164-.169.1a2.2,2.2,0,0,1-1.279.025c-.866-.292-1.611-1.453-2.207-2.094q-1.571-1.69-3.119-3.4c-3.821-4.221-7.567-8.522-11.077-13.007-.519-.663-1.285-1.386-1.294-2.247,0-.253.041-.515.061-.766q.076-.951.155-1.9.213-2.586.431-5.172,1.435-17.037,2.936-34.068,1.926-22.047,3.905-44.089,1.695-18.852,3.473-37.7c.374-3.891.749-7.783,1.17-11.669a15.645,15.645,0,0,0,.27-4.041c-.445-2.748-1.936-5.5-3.013-8.046a9.441,9.441,0,0,1-1.081-3.728c-.015-1.47-.052-2.939-.089-4.408-.018-.687-.036-1.374-.05-2.061a8.616,8.616,0,0,1-.047-1.673c.145-.67.519-.7,1.132-.722,2.981-.129,6.009.049,8.993.074C195.057,180.116,195.06,175.316,191.967,175.291Z"/><path class="a" d="M152.272,174.558c3.078,4.382,16.949,20.724,19.554,21.248,1.27.255,13.447-15.766,15.891-20.375-1.8-2.2-27.128-18.938-27.474-18.835-.316.093-9.243,14.735-9.165,16.011A8.862,8.862,0,0,0,152.272,174.558Z"/><path class="a" d="M231.081,174.558c-3.078,4.382-16.948,20.724-19.554,21.248-1.269.255-13.446-15.766-15.89-20.375,1.8-2.2,26.863-18.773,27.209-18.671.316.094,9.508,14.571,9.43,15.847A8.843,8.843,0,0,1,231.081,174.558Z"/><path class="c" d="M150.2,175.769c2.278,3.224,4.874,6.249,7.44,9.244a135.481,135.481,0,0,0,9.2,9.981,16.445,16.445,0,0,0,3.384,2.732c1.628.871,2.971.319,4.237-.826,2.877-2.6,5.215-5.975,7.555-9.041a86.766,86.766,0,0,0,7.775-11.216,2.5,2.5,0,0,0-.375-2.909,17.262,17.262,0,0,0-2.921-2.393c-1.614-1.21-3.265-2.372-4.919-3.526q-6.174-4.305-12.469-8.434a75.873,75.873,0,0,0-7.552-4.822c-2.056-1.026-3.249.519-4.243,2.058-1.177,1.824-2.3,3.686-3.409,5.552-1.341,2.255-2.677,4.522-3.885,6.852a14.7,14.7,0,0,0-1.178,2.6c-.461,1.623.474,2.877,1.362,4.153a2.463,2.463,0,0,0,3.283.861,2.421,2.421,0,0,0,.861-3.284c-.267-.384-.538-.767-.786-1.165-.452-.727-.086-.765-.08.386,0,.848.011.514.051.152.033-.306-.287.588-.013.034.064-.129.121-.262.184-.392.148-.308.3-.613.461-.917.95-1.833,1.986-3.623,3.03-5.4q1.594-2.722,3.257-5.405c.394-.634.79-1.267,1.2-1.892.131-.2.273-.395.4-.6.3-.47-.455.442-.593.522l-1.211.328c-.22,0-1.424-.527-.914-.185.208.139.435.256.648.386.648.4,1.288.805,1.927,1.214,2.074,1.329,4.131,2.683,6.183,4.044,4.783,3.174,9.555,6.375,14.212,9.732q.754.544,1.5,1.1c.218.162.434.326.652.489.544.407-.3-.248.2.152a9.74,9.74,0,0,1,1.37,1.2l-.376-2.908a75.354,75.354,0,0,1-6.129,9.029,107.285,107.285,0,0,1-7.384,9.178c-.372.4-.763.779-1.155,1.16-.517.5.339-.181-.035.033-.038.022-.074.045-.114.064a2.8,2.8,0,0,1,1.508-.228c.8.2.285.146,0-.054-.172-.121-.345-.239-.515-.362.626.455-.225-.2-.37-.325-.337-.292-.665-.593-.99-.9a123.663,123.663,0,0,1-8.57-9.2q-2.347-2.712-4.617-5.493-.924-1.136-1.827-2.289c-.407-.521.288.38-.092-.12q-.21-.275-.417-.55-.3-.4-.593-.815a2.465,2.465,0,0,0-3.283-.861A2.42,2.42,0,0,0,150.2,175.769Z"/><path class="c" d="M229.009,173.346c-.362.513-.739,1.014-1.121,1.511.353-.461-.266.339-.363.461q-.489.621-.986,1.236-1.978,2.452-4.031,4.845c-2.833,3.315-5.721,6.612-8.836,9.667-.533.523-1.074,1.039-1.635,1.532-.249.219-.5.43-.76.639.5-.4-.053.017-.259.165-.281.2-.8.256,0,.054a3.616,3.616,0,0,1,1.454.2c-.522-.273.383.421-.009.007-.21-.222-.453-.418-.669-.635a82.311,82.311,0,0,1-7.006-8.509,82.083,82.083,0,0,1-7.079-10.3l-.375,2.908a8.008,8.008,0,0,1,1.131-1.014c.156-.125.313-.247.47-.37-.419.328-.1.08.112-.083q.627-.469,1.258-.933c2.106-1.539,4.249-3.027,6.4-4.5q6.871-4.72,13.871-9.255c.778-.5,1.558-1,2.347-1.491.249-.154.507-.3.754-.455.649-.413-.522.144-.83.137l-1.212-.327a3.19,3.19,0,1,0-.394-.282c.058.06-.437-.628-.193-.244.117.183.251.356.373.536.415.606.815,1.223,1.214,1.84q1.743,2.691,3.408,5.432c1.057,1.735,2.107,3.478,3.074,5.265.178.328.354.658.521.992.071.144.425.988.263.539s-.008-.03.009.058c.055.276-.038.258-.034-.4.009-1.33.405-1.059,0-.52-.309.415-.575.873-.871,1.3a2.422,2.422,0,0,0,.861,3.284,2.449,2.449,0,0,0,3.284-.861c.844-1.213,1.8-2.448,1.4-4.006a10,10,0,0,0-.885-2.026c-1-1.954-2.146-3.838-3.285-5.713q-1.842-3.034-3.772-6.016c-.762-1.172-1.673-3.161-3.132-3.562-1.3-.356-2.464.558-3.5,1.206-1.463.918-2.909,1.863-4.353,2.809q-6.243,4.093-12.391,8.332c-1.976,1.365-3.946,2.741-5.878,4.169a19.537,19.537,0,0,0-3.427,2.772,2.5,2.5,0,0,0-.376,2.909,79.249,79.249,0,0,0,6.646,9.721,101.312,101.312,0,0,0,8.026,9.888c.972,1,2.1,2.1,3.61,1.911,1.442-.181,2.685-1.369,3.721-2.291a102.448,102.448,0,0,0,8.906-9.421,137.122,137.122,0,0,0,8.681-10.682,2.422,2.422,0,0,0-.861-3.284A2.452,2.452,0,0,0,229.009,173.346Z"/><path class="c" d="M184,203.763c5.358,0,10.715-.213,16.073-.219a2.4,2.4,0,0,0,0-4.8c-5.358.006-10.715.215-16.073.219a2.4,2.4,0,0,0,0,4.8Z"/><path class="c" d="M11.261,222.951A157.584,157.584,0,0,0,.726,264.988a111.07,111.07,0,0,0-.7,14.779,38.28,38.28,0,0,0,1.3,9.806c1.577,5.388,4.06,11.418,9.1,14.4a44.11,44.11,0,0,0,20.1,6.293,55.556,55.556,0,0,0,20.517-3.289,108.95,108.95,0,0,0,18.543-8.35c12.105-6.789,23.38-15.011,34.449-23.351q1.828-1.377,3.65-2.762a2.478,2.478,0,0,0,.861-3.284,2.417,2.417,0,0,0-3.284-.861C94.687,276.4,84,284.352,72.647,291.272A122.593,122.593,0,0,1,56.289,299.9c-6.307,2.638-13.034,4.876-19.881,5.466a38.032,38.032,0,0,1-18.259-2.816c-2.68-1.142-5.739-2.455-7.6-4.628a22.722,22.722,0,0,1-3.733-7.011,31.927,31.927,0,0,1-1.554-5.486c-.031-.185-.163-1.168-.065-.382-.041-.33-.08-.661-.114-.992-.077-.764-.133-1.531-.176-2.3a97.408,97.408,0,0,1,.283-13.232,151.845,151.845,0,0,1,10.7-44.293,2.415,2.415,0,0,0-1.676-2.952,2.458,2.458,0,0,0-2.952,1.676Z"/><path class="c" d="M54.285,220.03c-2.2,11.627-2.863,23.465-4.887,35.12a2.471,2.471,0,0,0,1.677,2.952,2.42,2.42,0,0,0,2.952-1.676c2.024-11.655,2.687-23.495,4.886-35.12a2.464,2.464,0,0,0-1.676-2.952,2.421,2.421,0,0,0-2.952,1.676Z"/><path class="c" d="M55.865,242.209a148.141,148.141,0,0,1,13.956-18.144C75.552,217.439,81.538,211.03,87.7,204.8c4.8-4.856,9.685-9.694,14.921-14.088.4-.332.8-.661,1.2-.983.1-.075.714-.557.383-.3-.316.243.266-.2.382-.283.665-.486,1.367-.918,2.046-1.382a42.15,42.15,0,0,1,10.424-4.754c10.711-3.631,21.926-5.84,33.047-7.79a2.42,2.42,0,0,0,1.676-2.952,2.453,2.453,0,0,0-2.952-1.676,246.98,246.98,0,0,0-30.032,6.817c-6.527,2.008-12.808,4.529-18.192,8.79a168.706,168.706,0,0,0-13.953,12.863q-9.458,9.4-18.294,19.4C62.417,225.2,56.5,232.159,51.721,239.786c-1.644,2.626,2.507,5.038,4.144,2.423Z"/><path class="a" d="M73.328,91.906q-.444.254-.874.556c-1.781,1.253-3.129,3.527-2.41,5.582a6.532,6.532,0,0,0,1,1.7c-2.354-1.537-5.653-3.527-8.239-2.02a4.759,4.759,0,0,0-2.139,3.92,10.015,10.015,0,0,0,1.062,4.489l.738,1.644-.792-1.076c-1.646-2.239-6.379-1.318-8.245.868s-1.923,5.418-.886,8l1.163,2.892-1.776-1.155c-1.622-1.056-4.1-.322-5.545.685a4.563,4.563,0,0,0-1.581,4.219c.413,4.324,4.249,7.4,7.769,9.944l4.729,3.421a5.224,5.224,0,0,0,2.084,1.071A4.913,4.913,0,0,0,63.6,134.7c.89-1.4,1.595-3.672.247-5.2,1.6.716,2.574,2.754,4.338,3.586,2.251,1.061,5.269-.362,6.306-2.672s.885-4.034-.762-6.447l-2.255-3.3,3.586,4.944a5.545,5.545,0,0,0,2.488,1.969,6.366,6.366,0,0,0,3.068-.365,6.22,6.22,0,0,0,2.7-2.094,6.4,6.4,0,0,0,.3-6.421c-1.411-3.033-3.578-7.247-3.679-7.014a12.339,12.339,0,0,0,1.919,2.235c2.264,1.778,5.905.681,7.481-1.727s1.436-5.6.468-8.315a38.578,38.578,0,0,0-3.664-6.811c-1.792-2.579-3.406-4.94-5.987-5.864A7.99,7.99,0,0,0,73.328,91.906Z"/><path class="c" d="M78.509,105.769l-4.24-5.689c-.812-1.089-2.426-2.5-1.886-3.9a5.738,5.738,0,0,1,8.266-2.006,15.162,15.162,0,0,1,3.1,3.645,40.421,40.421,0,0,1,3.189,5.4c1.248,2.567,2.171,6.855-.644,8.64A2.442,2.442,0,0,1,83,111.714a24.827,24.827,0,0,1-2.139-2.789l-2.353-3.156a2.475,2.475,0,0,0-3.284-.861,2.417,2.417,0,0,0-.861,3.284l2.614,3.507a26.644,26.644,0,0,0,2.9,3.673,7.053,7.053,0,0,0,6.762,1.529c5.508-1.543,7.14-7.6,5.8-12.625A28.343,28.343,0,0,0,88.853,96.9a25.664,25.664,0,0,0-4.538-5.9,10.581,10.581,0,0,0-14.787.872c-2.056,2.353-2.792,5.557-1.082,8.329,1.721,2.788,3.96,5.359,5.918,7.986a2.476,2.476,0,0,0,3.284.861A2.418,2.418,0,0,0,78.509,105.769Z"/><path class="c" d="M71.47,97.167c-2.028-1.253-4.389-2.485-6.845-2.376a6.454,6.454,0,0,0-5.662,3.882c-2.164,4.856,1.17,10.2,3.87,14.113,3.091,4.482,6.381,8.837,9.578,13.244,1.351,1.862,2.948,3.82,5.424,3.991a8.651,8.651,0,0,0,6.267-2.216,8.231,8.231,0,0,0,2.461-7.637c-.441-2.665-2.08-5.252-3.316-7.624-1.428-2.74-5.572-.316-4.145,2.423.813,1.56,1.669,3.133,2.353,4.755a4.1,4.1,0,0,1-.106,4.019,4.008,4.008,0,0,1-3.13,1.5c-.383.04-.15-.033-.071.012a3.371,3.371,0,0,1-.707-.551,15.964,15.964,0,0,1-1.6-2.081q-3.645-5.024-7.289-10.047c-2.065-2.853-4.544-5.979-5.355-9.479-.27-1.164-.227-2.986,1.138-3.432,1.528-.5,3.5.9,4.715,1.65,2.635,1.628,5.048-2.522,2.422-4.144Z"/><path class="c" d="M63.37,105c-2.523-3.1-7.748-2.214-10.573-.076-3.8,2.871-3.993,8.193-2.165,12.237a22.289,22.289,0,0,0,4.111,5.718c1.783,1.937,3.614,3.832,5.423,5.746,3.09,3.268,6.581,8.592,11.8,6.883a8.055,8.055,0,0,0,5.138-5.2,8.434,8.434,0,0,0-1.3-7.546c-1.692-2.57-5.85-.168-4.145,2.422.976,1.484,1.573,2.992.448,4.606a2.614,2.614,0,0,1-2.984,1.112,9.054,9.054,0,0,1-2.156-2.068l-2.721-2.878Q61.617,123.178,59,120.4c-2.419-2.565-5.623-5.918-4.524-9.785a3.579,3.579,0,0,1,2.59-2.563,4.386,4.386,0,0,1,2.062-.223c-.342-.053.723.287.364.113.267.129.208.105.489.45a2.417,2.417,0,0,0,3.394,0,2.455,2.455,0,0,0,0-3.394Z"/><path class="c" d="M53.14,115.232a7.693,7.693,0,0,0-9.754,2.536c-1.863,3.071-.936,7.141,1,9.94,1.945,2.819,4.678,4.854,7.422,6.838,1.548,1.12,3.076,2.275,4.649,3.359a5.9,5.9,0,0,0,5.151.9c4.133-1.234,6.659-6.018,4.67-10.016a2.4,2.4,0,1,0-4.144,2.423,1.925,1.925,0,0,1-.118,1.31,5.878,5.878,0,0,1-.349.734c-.2.419.111.032-.211.284a2.651,2.651,0,0,1-.571.4,3.425,3.425,0,0,1-.68.274c-.3.059-.341.075-.117.05a2.9,2.9,0,0,1-.475,0c.338.066-.021-.046-.106-.112-2.593-1.979-5.466-3.717-7.932-5.772a18.662,18.662,0,0,1-2.88-2.871,7.112,7.112,0,0,1-1.494-3.342,2.252,2.252,0,0,1,.725-2.323,3.1,3.1,0,0,1,2.8-.475c2.672,1.563,5.09-2.584,2.422-4.145Z"/><path class="a" d="M10.927,226.049c-.2-.225-1.746-1.573-1.925-1.817-.673-.917,4.34-13.734,6.258-18.153a24.9,24.9,0,0,1,8.367-9.4c-1.026,4.606-1.833,5.723,1.653,8.905s16.323,7.54,26.628,5.835a32.462,32.462,0,0,0,10.631-3.76c4.769,2.073-.945,26.318-2.236,29.053a20.4,20.4,0,0,1-4.6,1.144,56.613,56.613,0,0,1-41.815-9.293A17.428,17.428,0,0,1,10.927,226.049Z"/><path class="c" d="M12.624,224.351c-.4-.411-.845-.781-1.266-1.172-.15-.139-.4-.494-.594-.569a2,2,0,0,1,.579,1.409,1.514,1.514,0,0,1,0-.165c-.016-.556-.161.482-.014.072a5.956,5.956,0,0,0,.129-.6c.121-.515.27-1.023.423-1.529.842-2.788,1.878-5.522,2.925-8.239q.817-2.121,1.674-4.226.313-.768.634-1.534c-.208.5.111-.259.149-.345.145-.332.291-.661.459-.982a20.379,20.379,0,0,1,7.118-7.718l-3.526-2.71c-.669,2.96-1.724,6.068.128,8.83a15.448,15.448,0,0,0,6.674,5.218,44,44,0,0,0,22.269,3.937,33.651,33.651,0,0,0,13.366-4.294H61.328c.608.287-.288-.365.19.139-.222-.235-.207-.418-.1-.1s.206.466.046.022a8.653,8.653,0,0,1,.306,1.023c.037.166.063.334.1.5.025.12.068.465-.006-.1.016.125.032.25.043.375A35.42,35.42,0,0,1,61.784,218c-.23,2.391-.557,4.478-1.028,7.009q-.619,3.324-1.432,6.608c-.231.927-.474,1.852-.748,2.768-.093.31-.188.62-.293.927-.044.127-.095.253-.135.382-.152.482.134-.3.082-.187l1.435-1.1a46.02,46.02,0,0,1-17.026,1.76,54.134,54.134,0,0,1-19.975-5.208c-3.5-1.692-7.364-3.725-10.04-6.6-2.108-2.266-5.5,1.134-3.394,3.4A32.015,32.015,0,0,0,16.8,233.28a59.428,59.428,0,0,0,25.427,7.653A52.992,52.992,0,0,0,59.2,239.6c.481-.127.95-.289,1.417-.458a3.139,3.139,0,0,0,2.163-2.17c.357-.953.621-1.944.881-2.927.884-3.335,1.586-6.725,2.142-10.13a55.518,55.518,0,0,0,.988-11.114c-.1-2.551-.535-6.258-3.323-7.327-1.6-.614-3.158.751-4.578,1.39a29.772,29.772,0,0,1-4.123,1.459,28.563,28.563,0,0,1-8.1,1.085,40.4,40.4,0,0,1-16.523-3.639,19.277,19.277,0,0,1-2.651-1.475c-.143-.1-.287-.2-.425-.3.467.358-.158-.162-.234-.231a10.492,10.492,0,0,1-1.268-1.327c.127.179-.29-.486-.244-.405-.23-.4.047.169-.136-.362-.049-.141-.056-.579-.03-.1a5.772,5.772,0,0,1,.018-.789c.038-.447-.116.584.039-.229.062-.33.134-.657.208-.984.169-.747.354-1.492.523-2.239a2.43,2.43,0,0,0-3.526-2.711,26.394,26.394,0,0,0-7.252,6.974,29.56,29.56,0,0,0-3.46,6.835c-1.811,4.464-3.857,9.078-4.914,13.794a5.269,5.269,0,0,0-.124,2.619c.373,1.259,1.694,2.022,2.564,2.915C11.389,229.962,14.781,226.567,12.624,224.351Z"/><path class="a" d="M104.73,141.475a50.245,50.245,0,0,1-.24,6.21,8.1,8.1,0,0,1-.906,2.939,2.572,2.572,0,0,1-2.072.977,8.55,8.55,0,0,1-7.527-3.811c-1.79-2.721-1.277-6.711-.094-9.571a8.8,8.8,0,0,1,3.424-4.407,4.681,4.681,0,0,1,5.245.447C104.66,135.982,104.855,137.927,104.73,141.475Z"/><path class="c" d="M101.361,149.764c-2.212,3.519-3.878,7.579-6.659,10.7-3.351,3.767-9.014,5.187-13.492,7.1a48.7,48.7,0,0,0-14.019,9.63,17.7,17.7,0,0,0-4.022,5.092,33.054,33.054,0,0,0-2.357,6.723c-1.583,6.405-2.194,13.041-3.022,19.573a2.411,2.411,0,0,0,2.4,2.4,2.461,2.461,0,0,0,2.4-2.4c.711-5.608,1.293-11.261,2.5-16.791a33.741,33.741,0,0,1,1.959-6.524,12.337,12.337,0,0,1,3.213-4.376,44.988,44.988,0,0,1,13.555-9.259c4.753-1.979,10.209-3.6,13.912-7.384,3.351-3.421,5.257-8.062,7.775-12.069,1.649-2.623-2.5-5.035-4.144-2.423Z"/><path class="c" d="M105.478,152.186c1.5-2.928,1.609-5.984,1.625-9.2.014-2.676.294-5.389-.857-7.892a7.485,7.485,0,0,0-6.875-4.273c-3.324.155-5.838,2.567-7.22,5.445a14.6,14.6,0,0,0-1.072,10.891,2.456,2.456,0,0,0,2.952,1.676,2.422,2.422,0,0,0,1.676-2.952,9.853,9.853,0,0,1,.966-7.919,5.461,5.461,0,0,1,1.071-1.465,2.934,2.934,0,0,1,1.145-.772,2.268,2.268,0,0,1,2.3.516,7.58,7.58,0,0,1,.554.58c-.378-.436.092.17.156.285s.116.216.167.326q-.177-.44-.035-.06c.068.246.149.485.2.736.027.13.051.261.072.392q-.056-.447-.007-.014c.018.3.044.6.053.9.022.7,0,1.394-.02,2.091-.045,1.542.014,3.088-.076,4.629a9.028,9.028,0,0,1-.92,3.659,2.456,2.456,0,0,0,.861,3.284,2.424,2.424,0,0,0,3.283-.861Z"/><path class="e" d="M47.682,143.432a63.119,63.119,0,0,0,5.368,7.505,28.524,28.524,0,0,0,3.047,2.984,9.6,9.6,0,0,0,4.071,2.259,2.4,2.4,0,1,0,1.276-4.628,2.583,2.583,0,0,1-.882-.264c.37.3.206.086.03-.006-.123-.065-.244-.134-.362-.207-.142-.088-.277-.183-.415-.278-.3-.207.075,0,.081.066-.01-.127-.564-.474-.68-.575a27.976,27.976,0,0,1-2.9-2.9c-.219-.255-.434-.515-.645-.777-.106-.132-.21-.264-.314-.4.208.265.069.088-.056-.078-.407-.54-.8-1.091-1.184-1.648-.788-1.143-1.538-2.312-2.286-3.482a2.4,2.4,0,0,0-4.145,2.423Z"/></svg>