<?xml version="1.0" encoding="utf-8"?>
<!-- Uploaded to: SVG Repo, www.svgrepo.com, Generator: SVG Repo Mixer Tools -->
<svg width="800px" height="800px" viewBox="0 -65.45 332.133 332.133" xmlns="http://www.w3.org/2000/svg"><defs><style>.a{fill:#ffffff;}.b{fill:#ac9d91;}.c{fill:#211916;}.d{fill:#9fc0e5;}</style></defs><path class="a" d="M329.522,198.91c0-30.693.211-182.29.211-196.441H2.612C2.612,16.62,2.4,168.217,2.4,198.91H329.522"/><path class="b" d="M311.586,198.841V93.6H247.847c.092,25.99,0,85.3,0,105.246"/><path class="c" d="M313.986,198.841V93.6a2.435,2.435,0,0,0-2.4-2.4H247.847a2.435,2.435,0,0,0-2.4,2.4q.072,20.679.04,41.357-.006,22.938-.03,45.876-.006,9.006-.01,18.013c0,3.089,4.8,3.094,4.8,0q0-18.519.026-37.039.016-23.544.011-47.089-.007-10.558-.037-21.118l-2.4,2.4h63.739l-2.4-2.4V198.841c0,3.089,4.8,3.094,4.8,0Z"/><path class="c" d="M329.522,196.441H2.612c-3.089,0-3.094,4.8,0,4.8h326.91c3.088,0,3.093-4.8,0-4.8Z"/><path class="c" d="M329.522,0H2.612c-3.089,0-3.094,4.8,0,4.8h326.91c3.088,0,3.093-4.8,0-4.8Z"/><path class="c" d="M315.29,15.424H16.843c-3.088,0-3.094,4.8,0,4.8H315.29c3.089,0,3.094-4.8,0-4.8Z"/><path class="d" d="M53.864,63.323H81.178c-.039,30.845,0,62.336,0,86H53.864Z"/><path class="c" d="M53.864,65.723H81.178l-2.4-2.4q-.044,34.58,0,69.159,0,8.423,0,16.844l2.4-2.4H53.864l2.4,2.4v-86c0-3.089-4.8-3.094-4.8,0v86a2.435,2.435,0,0,0,2.4,2.4H81.178a2.434,2.434,0,0,0,2.4-2.4q0-32.718-.016-65.437,0-10.282.016-20.566a2.435,2.435,0,0,0-2.4-2.4H53.864C50.776,60.923,50.771,65.723,53.864,65.723Z"/><path class="d" d="M101.57,63.323h27.313c-.039,30.845,0,62.336,0,86H101.57Z"/><path class="c" d="M101.57,65.723h27.313l-2.4-2.4q-.044,34.58,0,69.159,0,8.423,0,16.844l2.4-2.4H101.57l2.4,2.4v-86c0-3.089-4.8-3.094-4.8,0v86a2.434,2.434,0,0,0,2.4,2.4h27.313a2.434,2.434,0,0,0,2.4-2.4q0-32.718-.015-65.437,0-10.282.015-20.566a2.434,2.434,0,0,0-2.4-2.4H101.57C98.481,60.923,98.476,65.723,101.57,65.723Z"/><path class="d" d="M149.3,63.323h27.314c-.04,30.845,0,62.336,0,86H149.3Z"/><path class="c" d="M149.3,65.723h27.314l-2.4-2.4q-.045,34.58,0,69.159,0,8.423,0,16.844l2.4-2.4H149.3l2.4,2.4v-86c0-3.089-4.8-3.094-4.8,0v86a2.434,2.434,0,0,0,2.4,2.4h27.314a2.435,2.435,0,0,0,2.4-2.4q0-32.718-.016-65.437,0-10.282.016-20.566a2.435,2.435,0,0,0-2.4-2.4H149.3C146.213,60.923,146.208,65.723,149.3,65.723Z"/><path class="c" d="M.212,2.4q0,11.073-.021,22.147L.14,66.51q-.032,25.15-.061,50.3Q.05,140.437.026,164.061.009,180.234,0,196.407v2.434c0,3.089,4.8,3.094,4.8,0q0-14.978.021-29.955.023-22.984.051-45.969.029-25.264.061-50.529Q4.96,50.545,4.986,28.7,5,16.183,5.011,3.664q0-.633,0-1.264c0-3.089-4.8-3.094-4.8,0Z"/><path class="c" d="M327.333,2.4q0,11.073-.021,22.147-.024,20.982-.05,41.963-.031,25.15-.061,50.3-.029,23.627-.053,47.251-.017,16.173-.026,32.346v2.434c0,3.089,4.8,3.094,4.8,0q0-14.978.021-29.955.023-22.984.05-45.969.03-25.264.061-50.529.027-21.843.053-43.688.015-12.517.026-25.036V2.4c0-3.089-4.8-3.094-4.8,0Z"/><path class="c" d="M263.429,145.478c.076,4.842.006,9.683,0,14.525a2.4,2.4,0,1,0,4.8,0c0-4.842.072-9.683,0-14.525a2.4,2.4,0,1,0-4.8,0Z"/></svg>