<?xml version="1.0" encoding="utf-8"?>
<!-- Uploaded to: SVG Repo, www.svgrepo.com, Generator: SVG Repo Mixer Tools -->
<svg width="800px" height="800px" viewBox="-26.79 0 338.251 338.251" xmlns="http://www.w3.org/2000/svg"><defs><style>.a{fill:#ffffff;}.b{fill:#957f6e;}.c{fill:#211715;}.d{fill:#f4b867;}</style></defs><path class="a" d="M184.249,179.659c-.562-.231-6.81-2.668-7.178-2.8-5.553-2-5.333-5.575-6.033-9.569a79.164,79.164,0,0,1-1.225-12.241c13.3-5.93,23.951-23.776,25.823-28.856.284-.863.863-2.485,1.378-4.412.692-.122,1.082-.182,1.082-.182a13.531,13.531,0,0,0,6.295-2.838,20.412,20.412,0,0,0,5.28-6.929A32.13,32.13,0,0,0,212.947,94.8a10.716,10.716,0,0,0-1.123-4.313,7.581,7.581,0,0,0-5.452-3.625,8.03,8.03,0,0,0-6.425,1.88s4.6-44.545-55.07-44.545c-56.111,0-52.7,44.545-52.7,44.545a8.029,8.029,0,0,0-6.425-1.88A7.585,7.585,0,0,0,80.3,90.489,10.714,10.714,0,0,0,79.179,94.8a32.129,32.129,0,0,0,3.275,17.029,20.412,20.412,0,0,0,5.28,6.929,13.53,13.53,0,0,0,6.3,2.838l2.051.313a54.622,54.622,0,0,0,10.413,20.326,48.6,48.6,0,0,0,13.647,11.616,77.929,77.929,0,0,1-1.233,13.436c-.7,3.994-.481,7.564-6.034,9.569-.367.133-2.952.983-4.021,1.347,0,0-2.519,34.778,34.815,34.778S184.249,179.659,184.249,179.659Z"/><path class="b" d="M101.921,164.221c7.536-1.146,13.934-4.792,16.774-9.052l.988-1.584a48.954,48.954,0,0,1-13.189-11.348,54.622,54.622,0,0,1-10.413-20.326L94.03,121.6a13.53,13.53,0,0,1-6.3-2.838,16.647,16.647,0,0,1-2.187-2.149,26.776,26.776,0,0,0-2.707,8.946,43.777,43.777,0,0,0-.3,5.964c.007.405.023.811.045,1.218.236,4.349,1.252,8.78,1.467,13.112.218,4.72-1.01,9.367-5.513,10.9-.178.06-.213.636-.208.783a2.05,2.05,0,0,0,.361,1.009A6.974,6.974,0,0,0,81,160.562C86.02,163.64,93.745,165.465,101.921,164.221Z"/><path class="b" d="M208.42,53.3c-.2-1.184-.411-2.281-.612-3.267C202.223,22.654,174.643.917,145.719,2.506,116.8.917,89.216,22.654,83.631,50.037c-1.513,7.386-1.332,20.022.044,25.918L86.444,86.8a7.969,7.969,0,0,1,5.734,1.943C103.61,80.815,123,67.04,133.039,58.406c-.826,5.125-3.76,13.842-.064,12.946,15.434-3.574,30.226-10.781,39.17-22.025,1.885,6.639,5,15.608,7.289,19.527,3.239,5.546,12.624,18.025,20.513,19.89a8.03,8.03,0,0,1,6.425-1.88,7.707,7.707,0,0,1,1,.219C211.393,77.774,210.039,62.742,208.42,53.3Z"/><path class="c" d="M85.959,75.551a49.478,49.478,0,0,1-.97-9.647,86.7,86.7,0,0,1,.422-11.775,50.282,50.282,0,0,1,6.938-19.921A61.1,61.1,0,0,1,126.343,7.371a55.018,55.018,0,0,1,10.9-2.274c3.776-.375,7.586-.268,11.373-.273a56.045,56.045,0,0,1,21.756,4.462,60.953,60.953,0,0,1,31.41,30.033,64.6,64.6,0,0,1,5.035,19.406c.918,7.419,1.425,15.283-.176,22.644a28.84,28.84,0,0,1-1.545,4.984,2.416,2.416,0,0,0,1.676,2.953,2.463,2.463,0,0,0,2.953-1.677c3.047-7.3,3-15.861,2.42-23.618-.547-7.275-1.552-14.783-3.993-21.687-5.3-14.992-16.687-27.556-30.695-34.958A63.253,63.253,0,0,0,154.371.315,111.126,111.126,0,0,0,142.459.024a59.8,59.8,0,0,0-12.04,1.32A65.977,65.977,0,0,0,91.192,27.231a58.172,58.172,0,0,0-9.654,21.14,73.589,73.589,0,0,0-.965,23.574,42.331,42.331,0,0,0,.757,4.882c.684,3.011,5.313,1.737,4.629-1.276Z"/><path class="c" d="M170.06,50.771c1.117,3.822,2.359,7.612,3.769,11.336a51.076,51.076,0,0,0,3.979,8.7,64.718,64.718,0,0,0,12.3,14.84c2.673,2.332,5.712,4.534,9.206,5.409,3,.749,4.276-3.878,1.276-4.629-5.358-1.341-9.964-6.6-13.457-10.836a50.25,50.25,0,0,1-8.321-13.852c-1.562-4.014-2.91-8.114-4.119-12.247-.865-2.959-5.5-1.7-4.628,1.276Z"/><path class="c" d="M170.6,47.434a55.5,55.5,0,0,1-19.011,14.848,81,81,0,0,1-11.7,4.692q-3.144,1-6.35,1.777c-.263.064-.541.116-.8.193-.392.116-.45-.081-.128.067-.145-.067-.325-.195.178.049a2.242,2.242,0,0,1,.595.352.613.613,0,0,1,.23.335c0-.069-.045-.458-.047-.133,0,.365-.01-.229-.01-.3-.024-3.308,1.225-6.827,1.8-10.271a2.422,2.422,0,0,0-4.011-2.335C121.266,65.354,110.324,73.039,99.5,80.7q-4.251,3.006-8.528,5.974a2.463,2.463,0,0,0-.861,3.284,2.422,2.422,0,0,0,3.284.861c11.3-7.843,22.532-15.823,33.395-24.268,2.694-2.094,5.362-4.224,7.951-6.446l-4.011-2.335c-.61,3.673-1.891,7.34-1.969,11.085a4.971,4.971,0,0,0,1.576,4.229c1.752,1.337,3.98.439,5.884-.055A82.024,82.024,0,0,0,162.532,61.4,53.671,53.671,0,0,0,174,50.828a2.475,2.475,0,0,0,0-3.394,2.417,2.417,0,0,0-3.394,0Z"/><path class="c" d="M83.467,115.4c-3.1,6.137-3.809,13.16-3.064,19.933.4,3.622,1.15,7.222,1.26,10.872.068,2.245-.121,4.884-1.595,6.71-.774.96-1.729,1.163-2.74,1.754-1.643.961-1.66,3.249-.887,4.764,1.363,2.668,4.74,4.112,7.376,5.181a35.74,35.74,0,0,0,19.605,1.778c6.577-1.182,13.479-4.356,17.35-10.009,1.749-2.556-2.409-4.959-4.145-2.423-3.661,5.347-11.313,7.731-17.462,8.167a31.828,31.828,0,0,1-11.189-1.136,24.2,24.2,0,0,1-4.274-1.665,15.637,15.637,0,0,1-2.138-1.251c-.231-.17-.47-.492-.706-.625-.3-.17-.023-.268-.115.057l-.617,1.059.11-.128-1.059.618c7.673-2.774,7.7-11.145,6.8-17.973-1.04-7.83-2.064-15.921,1.639-23.26,1.388-2.751-2.752-5.184-4.145-2.423Z"/><path class="c" d="M201.644,90.441a5.517,5.517,0,0,1,7.923.949,9.234,9.234,0,0,1,1.067,4.754,28.767,28.767,0,0,1-.342,6.065c-1.211,7.083-4.944,15.719-12.834,17.075a2.418,2.418,0,0,0-1.676,2.952,2.455,2.455,0,0,0,2.952,1.676c8.17-1.4,13.02-9.12,15.255-16.488A33.938,33.938,0,0,0,215.4,95.473c-.257-3.959-1.454-7.683-5.1-9.744a10.537,10.537,0,0,0-12.042,1.318,2.421,2.421,0,0,0,0,3.394,2.448,2.448,0,0,0,3.394,0Z"/><path class="c" d="M195.613,115.62a26.974,26.974,0,0,1-1.275,6.8c-.256.858-.537,1.707-.822,2.555-.077.229-.151.46-.235.687-.066.179-.365.846-.056.156a53.7,53.7,0,0,1-3.583,6.565,63.959,63.959,0,0,1-14.278,16.468,27.2,27.2,0,0,1-10.587,5.358c-3.009.692-1.735,5.321,1.276,4.629,8.046-1.85,14.781-7.653,20.082-13.725a69.309,69.309,0,0,0,11.052-16.461,35.1,35.1,0,0,0,3.226-13.032c.1-3.09-4.7-3.086-4.8,0Z"/><path class="c" d="M93.875,87.047a10.5,10.5,0,0,0-10.613-1.98c-3.931,1.551-5.9,4.858-6.4,8.928a32.942,32.942,0,0,0,5.766,22.774,17.222,17.222,0,0,0,10.76,7.143,2.469,2.469,0,0,0,2.952-1.676,2.42,2.42,0,0,0-1.676-2.952c-7.89-1.355-11.623-9.993-12.834-17.075a28.624,28.624,0,0,1-.35-5.841c.059-1.651.132-3.553,1.075-4.978a5.513,5.513,0,0,1,7.922-.949,2.461,2.461,0,0,0,3.394,0,2.421,2.421,0,0,0,0-3.394Z"/><path class="c" d="M92.039,114.844c2.922,16.865,12.063,33.37,27.688,41.509a37.506,37.506,0,0,0,13.56,4.056,2.415,2.415,0,0,0,2.4-2.4,2.455,2.455,0,0,0-2.4-2.4c-16.112-1.67-28.665-16.118-33.726-30.634a72,72,0,0,1-2.894-11.407,2.419,2.419,0,0,0-2.952-1.676,2.454,2.454,0,0,0-1.676,2.952Z"/><path class="c" d="M145.848,107.588a48.9,48.9,0,0,1,1.146,5.241l-.086-.638a3.18,3.18,0,0,1,.02.723l.085-.638a1.713,1.713,0,0,1-.079.325l.242-.573a1.368,1.368,0,0,1-.115.209l.375-.486a1.093,1.093,0,0,1-.171.169l.486-.375a3.506,3.506,0,0,1-.415.22l.573-.242a3.039,3.039,0,0,1-.7.2l.638-.086a2.822,2.822,0,0,1-.656,0l.638.086c-.248-.035-.491-.095-.738-.128a2.651,2.651,0,0,0-1.85.241,2.4,2.4,0,0,0-.861,3.284,2.3,2.3,0,0,0,1.434,1.1c.539.073,1.061.21,1.608.234a5.085,5.085,0,0,0,2.336-.551,3.309,3.309,0,0,0,1.854-2.189,5.617,5.617,0,0,0-.026-2.39c-.285-1.689-.675-3.362-1.109-5.018a2.4,2.4,0,0,0-4.629,1.276Z"/><path class="a" d="M113.533,335.935c1.341-41.2-1.384-114.024-2.914-146.86a47.271,47.271,0,0,0,70.561.556c-1.538,33.091-4.226,105.336-2.892,146.3"/><path class="c" d="M107.787,189.474a51.68,51.68,0,0,0,29.532,17.232,49.273,49.273,0,0,0,32.994-5.589,51.989,51.989,0,0,0,15.05-12.651,2.474,2.474,0,0,0,0-3.4,2.418,2.418,0,0,0-3.394,0,47.824,47.824,0,0,1-26.63,16.686,44.038,44.038,0,0,1-30.145-4.361,48.005,48.005,0,0,1-14.013-11.316,2.419,2.419,0,0,0-3.394,0,2.45,2.45,0,0,0,0,3.394Z"/><path class="c" d="M117.737,154.875a74.209,74.209,0,0,1-.72,9.131,67.142,67.142,0,0,1-1.114,6.658c-.078.311-.255.907-.294,1a7.7,7.7,0,0,1-.57,1.02,6.516,6.516,0,0,1-1.848,1.434,34.934,34.934,0,0,1-4.976,1.769,2.456,2.456,0,0,0-1.676,2.952,2.423,2.423,0,0,0,2.952,1.677,39.528,39.528,0,0,0,6.274-2.332,9.519,9.519,0,0,0,4.563-5.533,43.6,43.6,0,0,0,1.252-6.932,84.057,84.057,0,0,0,.957-10.848c.06-3.09-4.74-3.09-4.8,0Z"/><path class="c" d="M167.408,154.875a98.351,98.351,0,0,0,1.41,13.62c.438,2.735.8,5.394,2.679,7.576,1.694,1.97,4.138,2.787,6.48,3.7,1.88.73,3.767,1.446,5.634,2.206a2.415,2.415,0,0,0,2.952-1.677,2.459,2.459,0,0,0-1.676-2.952c-1.651-.672-3.318-1.305-4.979-1.951s-3.615-1.151-4.835-2.511c-1.171-1.3-1.323-3.825-1.672-5.947a84.268,84.268,0,0,1-1.193-12.061c-.061-3.085-4.861-3.095-4.8,0Z"/><path class="c" d="M259.474,68.668c-7.263,2.177-14.388,4.775-21.5,7.4a2.466,2.466,0,0,0-1.676,2.953,2.419,2.419,0,0,0,2.952,1.676c7.112-2.622,14.237-5.22,21.5-7.4,2.952-.885,1.694-5.519-1.276-4.629Z"/><path class="c" d="M225.041,162.232c3.269,2.067,6.375,4.42,9.5,6.693q6.478,4.713,12.889,9.518,2.784,2.086,5.548,4.2a2.414,2.414,0,0,0,3.284-.861,2.46,2.46,0,0,0-.861-3.283q-11.575-8.908-23.506-17.368c-1.46-1.037-2.918-2.086-4.433-3.044-2.618-1.655-5.029,2.5-2.422,4.145Z"/><path class="c" d="M266.334,96.327c1.874-.208,3.758-.456,5.645-.493.725-.014,1.448.012,2.171.06.414.028.827.066,1.24.1.448.037-.137-.044.306.037.31.057.619.119.924.2q.4.1.782.241c.055.019.5.2.25.091-.222-.1.117.061.13.067.233.124.465.246.687.388.1.06.187.122.279.186-.338-.233.05.049.116.11a6.064,6.064,0,0,1,.533.554c-.3-.354.038.092.124.244.048.087.087.18.138.264-.216-.357-.054-.156-.01-.018.083.257.152.514.215.777.012.049.052.379.02.08-.035-.323,0,.105,0,.183.009.235-.013.465-.017.7.006-.415.01-.085-.048.139-.032.123-.085.248-.113.372.041-.187.15-.279.012-.041-.057.1-.41.568-.236.4.278-.277-.509.417-.095.1a4.028,4.028,0,0,1-.666.395c-.248.124.024-.011.065-.025-.175.059-.349.114-.528.159-.107.026-.216.043-.323.07.436-.111,0,0-.124,0a6.537,6.537,0,0,1-.885-.023c-.126-.01-.251-.022-.377-.035.017,0-.679-.086-.357-.038.278.041-.058-.011-.1-.018-.159-.03-.318-.057-.476-.09a10.682,10.682,0,0,1-1.414-.41c-.091-.033-.182-.067-.272-.1.007,0-.55-.225-.292-.116s-.107-.048-.127-.057l-.695-.309a2.461,2.461,0,0,0-3.283.861,2.428,2.428,0,0,0,.861,3.284c2.417,1.084,5.025,2.091,7.739,1.829,3.111-.3,5.91-2.284,6.421-5.509a7.93,7.93,0,0,0-3.391-7.873c-2.254-1.569-5.056-1.886-7.726-2a46.122,46.122,0,0,0-7.11.473,2.459,2.459,0,0,0-2.4,2.4,2.425,2.425,0,0,0,2.4,2.4Z"/><path class="c" d="M274.605,156.906c.448.283.874.594,1.3.907.329.241-.426-.339-.195-.151.071.058.143.113.214.17.132.106.264.215.394.324.305.258.6.524.891.8q.4.386.781.8.188.209.368.423c.05.061.305.4.045.047s.017.027.07.1a8.211,8.211,0,0,1,.572.913c.082.153.148.313.227.467-.37-.72-.063-.121,0,.109.043.157.064.317.1.475-.187-.792-.038-.271-.046,0-.016.556.116-.47.027-.113-.03.121-.254.773-.073.337s-.081.112-.148.224c-.046.077-.26.375.01,0s.066-.083-.011-.017a1.576,1.576,0,0,0-.144.138c-.2.24.223-.173.252-.186-.179.079-.345.23-.522.32-.487.247.436-.146.088-.033-.174.056-.345.115-.522.16s-.332.072-.5.106c-.2.041-.489.014.236-.026-.118.006-.236.026-.354.035a12.281,12.281,0,0,1-2.332-.057c-.082-.01-.164-.023-.247-.03.785.069.328.044.15.016q-.33-.053-.658-.117-.594-.115-1.179-.272c-.363-.1-.722-.2-1.076-.327-.14-.048-.279-.1-.418-.153-.473-.173.638.29.081.033a2.458,2.458,0,0,0-3.284.861,2.429,2.429,0,0,0,.861,3.283,16.857,16.857,0,0,0,4.763,1.374,11.774,11.774,0,0,0,6.526-.577,5.576,5.576,0,0,0,3.266-5.3,9.442,9.442,0,0,0-2.822-5.7,21.388,21.388,0,0,0-4.275-3.509,2.421,2.421,0,0,0-3.283.861,2.452,2.452,0,0,0,.861,3.284Z"/><path class="c" d="M254.567,130.24c.5.3.982.642,1.453.99.346.256-.4-.325-.165-.128.077.064.157.124.234.187q.194.158.382.318.5.424.958.885c.286.285.561.582.821.892a1.954,1.954,0,0,0,.171.209c-.41-.359-.219-.3-.089-.112s.282.4.411.608c.1.167.2.338.291.513.05.1.1.194.143.29.1.2-.009.245-.093-.22.032.178.13.362.178.538.027.1.052.2.073.3.054.261-.074.463-.012-.15-.016.158.021.331.017.492,0,.1-.065.493.014.053.083-.458,0-.028-.019.053-.037.17-.094.332-.144.5-.138.451.237-.424.074-.178-.061.093-.1.2-.162.3-.047.077-.112.152-.151.232.247-.5.317-.375.176-.229-.122.127-.248.251-.371.377-.243.247.528-.337.07-.06-.166.1-.331.192-.5.283-.442.233.583-.209.03-.022-.154.053-.311.1-.47.136s-.325.068-.488.1c-.363.074.3-.037.3-.037-.113.006-.226.026-.339.035a11.637,11.637,0,0,1-2.2-.046c-.095-.01-.19-.024-.286-.034-.269-.027.691.108.186.023-.2-.034-.4-.066-.605-.1q-.518-.1-1.029-.221-.885-.213-1.751-.5a2.419,2.419,0,0,0-2.952,1.677,2.454,2.454,0,0,0,1.676,2.952c3.195,1.041,6.928,1.671,10.1.287a6.257,6.257,0,0,0,3.621-5.333c.184-2.366-1.125-4.55-2.614-6.268a19.087,19.087,0,0,0-4.522-3.739,2.4,2.4,0,1,0-2.423,4.144Z"/><path class="c" d="M23.941,73.3c7.263,2.177,14.388,4.775,21.5,7.4a2.422,2.422,0,0,0,2.952-1.676,2.453,2.453,0,0,0-1.676-2.953c-7.112-2.622-14.237-5.22-21.5-7.4-2.965-.888-4.233,3.743-1.276,4.629Z"/><path class="c" d="M57.228,158.087c-3.27,2.067-6.375,4.42-9.5,6.694q-6.479,4.712-12.889,9.518-2.784,2.085-5.548,4.2a2.48,2.48,0,0,0-.861,3.283,2.415,2.415,0,0,0,3.284.861q11.576-8.907,23.506-17.367c1.46-1.037,2.918-2.087,4.432-3.044,2.6-1.646.2-5.8-2.422-4.145Z"/><path class="c" d="M18.357,91.527c-4.537-.5-9.623-1.158-13.871.958A8.012,8.012,0,0,0,0,99.5a6.732,6.732,0,0,0,5.154,6.723c3.145.779,6.3-.337,9.135-1.609a2.409,2.409,0,0,0,.861-3.284,2.47,2.47,0,0,0-3.283-.861c-.267.119-.535.234-.8.355s.022-.008.065-.025c-.126.051-.252.1-.378.152a11.427,11.427,0,0,1-1.325.428c-.213.054-.427.1-.642.14-.168.03-.6.088-.184.038a10.066,10.066,0,0,1-1.725.11c-.072,0-.521-.065-.226-.013.276.049-.085-.025-.114-.033l-.426-.115c-.021,0-.367-.125-.127-.033s-.092-.047-.116-.06c-.131-.072-.257-.145-.383-.222-.022-.013-.3-.232-.115-.076.211.18-.187-.211-.229-.244.033.026.2.337.077.108-.06-.111-.137-.217-.2-.326-.049-.083-.09-.171-.131-.257.048.1.131.435.037.03-.045-.191-.091-.381-.135-.572.123.533.01-.17.013-.354,0-.134.021-.268.023-.4,0,.037-.085.406-.015.139.059-.229.1-.46.169-.686.04-.128.085-.255.134-.379-.018.047-.18.327-.035.118.055-.08.093-.179.142-.262,0,0,.336-.507.144-.246-.148.2.292-.306.382-.392.106-.1.218-.2.331-.291-.037.03-.267.194-.041.044s.44-.284.672-.407c.1-.053.2-.1.3-.153.222-.112-.235.068.167-.071a11.887,11.887,0,0,1,1.583-.436c.117-.022.685-.1.3-.056.265-.027.53-.05.794-.071.757-.062,1.514-.11,2.273-.115a53.012,53.012,0,0,1,6.226.5,2.406,2.406,0,0,0,2.4-2.4,2.47,2.47,0,0,0-2.4-2.4Z"/><path class="c" d="M7.664,152.761a22.381,22.381,0,0,0-3.8,3.017A10.383,10.383,0,0,0,.7,160.909a5.722,5.722,0,0,0,2.662,6.13,9.8,9.8,0,0,0,5.8.957,18.388,18.388,0,0,0,5.956-1.525,2.409,2.409,0,0,0,.861-3.283,2.468,2.468,0,0,0-3.284-.861c-.528.244.46-.173.158-.063-.122.044-.242.093-.364.137-.295.106-.594.2-.894.286a20.159,20.159,0,0,1-2.21.485c-.541.092.6-.067-.037,0-.186.02-.371.038-.558.052-.41.03-.821.043-1.233.033-.18,0-.361-.014-.541-.028-.079-.006-.158-.016-.237-.022-.446-.036.538.1.233.032-.368-.081-.723-.158-1.084-.267-.482-.147.55.274.038.015-.153-.078-.292-.173-.44-.261-.293-.176.457.439.1.059-.055-.058-.113-.127-.173-.18-.169-.145.358.566.129.167-.083-.145-.159-.313-.253-.45.325.472.16.45.1.212-.022-.087-.052-.172-.073-.26-.127-.544.013.478.01.113,0-.28.143-.921-.051-.1.074-.313.2-.636.258-.949,0,.011-.271.588-.109.26.042-.086.082-.173.126-.259.1-.193.207-.381.322-.564.085-.136.175-.27.268-.4.059-.083.123-.163.181-.247.176-.257-.4.49-.109.145.27-.317.541-.629.832-.927A20.734,20.734,0,0,1,8.936,157.7c.327-.261-.43.324-.193.149.081-.059.161-.121.242-.181q.206-.151.415-.3.338-.237.686-.458a2.4,2.4,0,0,0-2.422-4.145Z"/><path class="c" d="M27.7,126.1c-3.292,1.989-6.8,5.216-7.133,9.267a6.276,6.276,0,0,0,3.051,5.794,9.552,9.552,0,0,0,5.622,1.022,22.727,22.727,0,0,0,5.05-1.03,2.4,2.4,0,0,0-1.276-4.629,23.363,23.363,0,0,1-3.441.829c-.371.061.3-.039.3-.039-.1.009-.191.024-.286.035-.173.019-.346.035-.52.048-.386.029-.775.042-1.162.034-.173,0-.345-.012-.518-.026-.243-.018-.777-.164.019.016a10.317,10.317,0,0,1-1.069-.255c-.523-.177.395.212.078.045-.156-.082-.313-.156-.463-.249-.058-.037-.115-.082-.174-.115-.289-.162.222.165.236.185a3.884,3.884,0,0,0-.416-.4c-.334-.344.319.489.019,0-.05-.08-.091-.166-.139-.246-.124-.2-.05-.364.07.2-.036-.168-.12-.33-.163-.5-.026-.1-.036-.21-.065-.31-.065-.222.018.654.033.142a4.665,4.665,0,0,0,.015-.554c.05.49-.085.5-.036.271.022-.1.041-.2.065-.3.046-.184.11-.36.165-.54.11-.357-.083.19-.1.219.065-.109.107-.237.165-.35a8.4,8.4,0,0,1,.653-1.07c.064-.09.142-.176.2-.271-.019.031-.377.461-.124.169.148-.171.29-.344.442-.511a18.137,18.137,0,0,1,1.992-1.838c.357-.289-.479.358-.118.091l.265-.2c.138-.1.277-.2.418-.3.252-.173.508-.34.77-.5A2.4,2.4,0,1,0,27.7,126.1Z"/><path class="d" d="M178.288,335.935c-1.594-48.964,2.556-142.6,3.612-160.692,15.035,5.964,25.739,7.026,39.211,15.851,7.154,4.688,14.244,9.96,18.671,17.279a65.463,65.463,0,0,1,4.949,11.092c10.986,29.4,4.206,78.335,2.532,115.612"/><path class="c" d="M179.491,175.4c-.357,6.17-.637,12.345-.913,18.52Q177.9,209,177.365,224.091q-.665,18.381-1.135,36.769c-.316,12.577-.556,25.157-.656,37.739-.089,11.242-.082,22.489.209,33.729q.047,1.8.105,3.607c.1,3.081,4.9,3.094,4.8,0-.353-10.943-.4-21.9-.343-32.844.063-12.5.277-25.009.57-37.511q.436-18.6,1.1-37.2.546-15.629,1.225-31.251c.3-6.756.6-13.513.971-20.265q.041-.732.083-1.464c.179-3.086-4.622-3.076-4.8,0Z"/><path class="c" d="M181.642,177.716c11.318,4.5,22.96,8.153,33.987,13.365,5.368,2.538,10.816,5.231,15.3,9.186a35.367,35.367,0,0,1,9.331,13.49,82.9,82.9,0,0,1,4.434,16.83c1.054,5.953,1.735,11.964,2.192,17.991a367.7,367.7,0,0,1,.533,39.521c-.5,15.677-1.569,31.327-2.559,46.978-.195,3.085,4.606,3.073,4.8,0,1.755-27.763,4.006-55.714,2.233-83.534-.408-6.4-1.06-12.777-2.051-19.11a97.326,97.326,0,0,0-3.928-17.24A44.423,44.423,0,0,0,237,199.48,50.1,50.1,0,0,0,222.679,189.2c-12.8-6.522-26.447-10.824-39.761-16.116a2.417,2.417,0,0,0-2.952,1.677,2.458,2.458,0,0,0,1.676,2.952Z"/><path class="c" d="M214.776,253.8a113.826,113.826,0,0,1-1.747,17.856c-.482,2.97-1,5.934-1.469,8.906a59.857,59.857,0,0,0-1.038,8.539c-.112,8.939.471,17.875.812,26.8.244,6.388.393,12.778.4,19.171,0,3.088,4.8,3.094,4.8,0-.006-10.576-.5-21.13-.922-31.695-.173-4.277-.315-8.557-.3-12.838.021-5.525,1.26-11.007,2.156-16.446a127.544,127.544,0,0,0,2.109-20.3c.01-3.089-4.79-3.093-4.8,0Z"/><path class="d" d="M113.533,335.935c1.594-48.964-2.556-142.6-3.612-160.692-15.035,5.964-25.739,7.026-39.211,15.851-7.154,4.688-14.244,9.96-18.671,17.279a65.463,65.463,0,0,0-4.949,11.092c-10.986,29.4-4.206,78.335-2.532,115.612"/><path class="c" d="M107.53,175.4c.357,6.17.637,12.345.913,18.52q.674,15.081,1.213,30.169.665,18.381,1.135,36.769c.316,12.577.556,25.157.656,37.739.089,11.242.083,22.489-.209,33.729q-.047,1.8-.105,3.607c-.1,3.089,4.7,3.086,4.8,0,.353-10.943.4-21.9.343-32.844-.063-12.5-.277-25.009-.57-37.511q-.436-18.6-1.1-37.2-.546-15.629-1.225-31.251c-.294-6.756-.6-13.513-.971-20.265q-.04-.732-.083-1.464c-.178-3.071-4.979-3.091-4.8,0Z"/><path class="c" d="M108.9,173.087c-11.706,4.653-23.727,8.458-35.133,13.85-5.661,2.676-11.229,5.573-15.995,9.691a38.648,38.648,0,0,0-10.12,14.122,80.444,80.444,0,0,0-4.95,17.4,188.738,188.738,0,0,0-2.44,18.743,356.377,356.377,0,0,0-.7,40.281c.486,15.984,1.579,31.942,2.588,47.9a2.454,2.454,0,0,0,2.4,2.4,2.421,2.421,0,0,0,2.4-2.4c-1.72-27.2-3.895-54.563-2.336-81.826.351-6.138.9-12.275,1.8-18.357a108.365,108.365,0,0,1,3.6-16.917c1.75-5.488,4.257-10.836,8.192-15.1a46.364,46.364,0,0,1,13.347-9.527c12.43-6.333,25.685-10.492,38.614-15.631a2.474,2.474,0,0,0,1.676-2.952,2.417,2.417,0,0,0-2.952-1.677Z"/><path class="c" d="M72.245,253.8A118.281,118.281,0,0,0,74.013,272c.473,2.966.989,5.925,1.468,8.89A56.446,56.446,0,0,1,76.5,289.1c.112,8.939-.471,17.875-.812,26.8-.244,6.388-.393,12.778-.4,19.171,0,3.089,4.8,3.093,4.8,0,.006-10.576.5-21.13.923-31.695.172-4.277.314-8.557.3-12.838-.021-5.635-1.251-11.243-2.173-16.789A124.192,124.192,0,0,1,77.045,253.8c-.01-3.088-4.81-3.094-4.8,0Z"/><path class="c" d="M146.378,123.364c-.111,0-.864-.092-.429-.022-.3-.049-.6-.114-.894-.18-.852-.19-1.694-.418-2.542-.627a29.449,29.449,0,0,0-5.576-.935,10.619,10.619,0,0,0-9.716,5.138c-4.4,6.954-2.029,18.392,7.062,19.748a12.521,12.521,0,0,0,6.261-.544c1.672-.641,3.2-1.9,4.96-2.265,1.693-.355,3.087.5,4.529,1.261a13.7,13.7,0,0,0,5.915,1.709,10.731,10.731,0,0,0,10.444-6.014,15.069,15.069,0,0,0,.144-11.908c-1.733-4.157-5.311-7.056-9.9-7.139a24.6,24.6,0,0,0-6.111.854c-.878.21-1.749.446-2.627.655q-.489.115-.981.215c-.142.028-.29.057-.435.075.386-.048.138-.027-.1-.021-3.083.079-3.095,4.88,0,4.8,4.69-.12,10.689-4.173,14.465.24,3.549,4.146,2.728,13.016-3.758,13.438a8.036,8.036,0,0,1-4.317-.884,18.261,18.261,0,0,0-4.437-1.947,9.149,9.149,0,0,0-5.448.5c-1.408.577-2.679,1.515-4.123,1.987-2.712.884-6.17.294-7.727-2.283a10.013,10.013,0,0,1-.432-8.6,7.338,7.338,0,0,1,2.642-3.409,6.333,6.333,0,0,1,4.21-.771c3.023.255,5.884,1.656,8.925,1.73C149.468,128.24,149.467,123.44,146.378,123.364Z"/><path class="c" d="M127.977,96.785a15.182,15.182,0,0,0-4.653-.573,41.508,41.508,0,0,0-4.605.569,2.4,2.4,0,0,0-1.434,1.1,2.4,2.4,0,0,0,.861,3.284,2.782,2.782,0,0,0,1.849.242c.652-.1,1.3-.2,1.958-.293l-.638.085a15.968,15.968,0,0,1,4.166-.095l-.638-.086a14.168,14.168,0,0,1,1.858.392,2.4,2.4,0,0,0,1.276-4.628Z"/><path class="c" d="M165.6,100.292a14.493,14.493,0,0,1,1.725-.354l-.638.086a14.981,14.981,0,0,1,3.906.068l-.638-.086c.786.108,1.568.243,2.351.371a2.606,2.606,0,0,0,1.849-.242,2.4,2.4,0,0,0-.573-4.386,41.259,41.259,0,0,0-4.6-.613,15.167,15.167,0,0,0-4.658.528,2.4,2.4,0,0,0,1.276,4.628Z"/></svg>