<?xml version="1.0" encoding="utf-8"?>
<!-- Uploaded to: SVG Repo, www.svgrepo.com, Generator: SVG Repo Mixer Tools -->
<svg width="800px" height="800px" viewBox="0 -73.32 306.129 306.129" xmlns="http://www.w3.org/2000/svg"><defs><style>.a{fill:#e6d7cd;}.b{fill:#211715;}.c{fill:#d6bdac;}.d{fill:#e7d9cf;}.e{fill:#f3736f;}.f{fill:#ad7b59;}</style></defs><path class="a" d="M302.842,3.266V2.9c-16.768.016-51.524-.272-77.78.05-12.526.154-25.724.308-38.25.462-61.28.752-121.889.474-183.175,1.226C2.948,55.32,2.243,106.015,3.47,156.684c61.339-.754,122-.132,183.342-.885,12.526-.154,25.724-.308,38.25-.461,26.168-.322,61.447.3,78.267.293C303.09,105.047,302.841,52.267,302.842,3.266Z"/><path class="b" d="M305.642,3.266V2.9a2.839,2.839,0,0,0-2.8-2.8c-15.06.013-30.121-.1-45.181-.1C239.17-.008,220.684.207,202.2.429q-31.589.378-63.176.6-31.872.186-63.745.28-31.779.135-63.555.439-4.041.043-8.082.093a2.848,2.848,0,0,0-2.8,2.8C.3,44.147-.247,83.658.119,123.168q.155,16.76.551,33.516a2.841,2.841,0,0,0,2.8,2.8c21.414-.262,42.83-.359,64.246-.4,21.365-.045,42.731-.039,64.1-.1q31.893-.093,63.784-.488c18.722-.225,37.441-.5,56.165-.426,15.8.065,31.605.293,47.408.357q2.08.007,4.159.008a2.84,2.84,0,0,0,2.8-2.8q-.141-29.96-.269-59.918-.12-29.754-.185-59.507-.031-16.47-.033-32.94c0-3.6-5.6-3.609-5.6,0q0,29.394.1,58.788.09,29.91.232,59.82.076,16.878.157,33.757l2.8-2.8c-14.966.005-29.931-.239-44.9-.33-18.365-.112-36.722.079-55.086.3-21.159.253-42.317.474-63.477.554-21.367.08-42.735.078-64.1.112-21.4.034-42.806.1-64.208.328q-4.044.042-8.088.091l2.8,2.8c-.951-39.5-.739-79.015-.27-118.521Q6.2,21.4,6.437,4.641l-2.8,2.8q31.946-.39,63.891-.5,31.871-.148,63.74-.271,31.738-.165,63.472-.554c18.81-.227,37.62-.5,56.431-.516,15.819-.017,31.637.079,47.456.1q2.107,0,4.215,0l-2.8-2.8v.363C300.042,6.869,305.642,6.875,305.642,3.266Z"/><path class="c" d="M289.408,18.666a3.819,3.819,0,0,0-3.78-3.854c-16.156-.022-36.238-.247-60.566.052-12.526.153-25.724.307-38.25.461-60.039.737-106.525.485-166.02,1.182a3.851,3.851,0,0,0-3.76,3.829c-.654,46.821-1.278,70.143-.206,116.936a3.847,3.847,0,0,0,3.847,3.794c59.525-.685,106.059-.1,166.139-.841,12.526-.154,25.724-.308,38.25-.461,24.229-.3,44.741.215,61,.285a3.83,3.83,0,0,0,3.8-3.9C289.662,92.693,289.46,34.1,289.408,18.666Z"/><path class="b" d="M31.472,81.1q15.156,0,30.312-.028l5.388,0c4.118,0,4.125-6.4,0-6.4q-14.821,0-29.643.028l-6.057,0c-4.118,0-4.125,6.4,0,6.4Z"/><path class="b" d="M79.449,81.1c4,0,8.007-.031,12.01-.032a3.2,3.2,0,0,0,0-6.4c-4,0-8.007.031-12.01.032a3.2,3.2,0,1,0,0,6.4Z"/><path class="d" d="M153.461,31.768c-23.483.193-39.552,20.937-39.362,45.055.22,27.918,15.721,45.44,40.075,45.24,24.921-.2,39.578-17.975,39.358-45.894C193.341,51.887,176.862,31.575,153.461,31.768Z"/><path class="e" d="M101.538,106.409a12.3,12.3,0,0,0-12.547,12.47c0,7.784,4.854,12.7,12.548,12.7,7.873,0,12.547-4.92,12.547-12.7A12.292,12.292,0,0,0,101.538,106.409Z"/><path class="f" d="M200.5,126.16c4.893-3.908,13.311-9.606,18.412-10.962a6.44,6.44,0,0,0,2.654-1.12,35.794,35.794,0,0,0,4.885-6.583c4.86,7.429,8.055,14.028,15.144,19.331,6.168-6.608,14.528-14.393,19.323-21.665q3.217,2.917,6.447,5.822a26.185,26.185,0,0,0,5.2,3.955,29.667,29.667,0,0,0,4.651,1.763c5.249,1.709,10.517,2.4,11.76,3.043,1.523,3.407,1.549,11.608.887,16.408-.647,4.689-5.412,4.261-9.2,4.292-12.693.105-31.27,1.279-40.3,1.353-6.732.056-33.689-1.041-39.017-.7-5.281.338-17.336,1.452-14.643-1.769C189.515,136.4,198.84,127.485,200.5,126.16Z"/><path class="b" d="M256.03,101.649q-.174,2.341-.115,4.689a2.913,2.913,0,0,0,.82,1.98,2.8,2.8,0,0,0,4.78-1.98q-.06-2.346.115-4.689a2.8,2.8,0,0,0-4.78-1.98l-.438.567a2.785,2.785,0,0,0-.382,1.413Z"/><path class="b" d="M215.114,68.866a57.45,57.45,0,0,0-.74,10.049,46.765,46.765,0,0,0,.615,7.845,38.561,38.561,0,0,0,6.633,17.451c2.4,3.274,5.35,6.035,9.325,7.2,3.465,1.016,4.945-4.386,1.489-5.4-3.426-1-5.708-3.99-7.5-6.909a30.819,30.819,0,0,1-3.7-9.376,44.918,44.918,0,0,1-1.253-9.2,45.888,45.888,0,0,1,.535-10.173,2.87,2.87,0,0,0-1.955-3.444,2.828,2.828,0,0,0-3.445,1.956Z"/><path class="b" d="M263.486,87.371c-.515,1.431-.978,2.882-1.451,4.328-.223.682-.444,1.364-.668,2.046-.044.132-.086.266-.132.4-.036.105-.208.577-.023.094s-.029.027-.084.132c-.078.147-.16.29-.245.433-.175.291-.363.574-.558.852-.117.166-.239.328-.359.491.4-.551.007-.012-.092.109-.59.725-1.22,1.418-1.878,2.082-.686.691-1.4,1.353-2.155,1.973-.1.084-.662.524-.178.154q-.231.175-.467.345c-.39.282-.791.546-1.2.8a2.8,2.8,0,1,0,2.826,4.835,27.455,27.455,0,0,0,8.807-8.662,19.406,19.406,0,0,0,1.711-4.291c.5-1.545,1-3.1,1.548-4.627a2.816,2.816,0,0,0-1.956-3.444,2.871,2.871,0,0,0-3.444,1.956Z"/><path class="b" d="M268.6,74.076c.037-.236.1-.458.153-.689.129-.539-.209.214.1-.2.134-.178.451-.52.12-.2.169-.165.524-.433.126-.173.25-.163.565-.252.12-.123.128-.037.838-.188.1-.051.715-.133-.6.123.121.053-.306-.132-.37-.148-.194-.046s.122.07-.151-.123a2.44,2.44,0,0,1,.218.225q.2.228-.117-.145c.077.186.221.393.314.573-.294-.569-.011.043.028.178.065.222.109.445.161.67.167.726-.029-.574.03.158.022.275.043.549.055.824.027.6.026,1.206,0,1.808q-.021.451-.063.9c-.008.085-.116.9-.048.451q-.137.892-.358,1.77c-.138.555-.3,1.106-.49,1.645-.039.111-.326.8-.1.291-.105.234-.217.465-.341.69s-.261.437-.4.653c-.288.464.248-.172-.188.224-.049.044-.526.523-.268.29.223-.2-.355.2-.422.256q-.27.136.117-.031a3.464,3.464,0,0,1-.345.111,3.02,3.02,0,0,1-.35.084c.311-.034.363-.045.153-.033a2.772,2.772,0,0,1-.353,0q.475.083.166.014c-.667-.273.189.165-.3-.132a2.8,2.8,0,0,0-2.826,4.836,6.809,6.809,0,0,0,8.028-1.081c1.931-1.74,2.912-4.437,3.452-6.913a20.733,20.733,0,0,0,.248-8.3c-.539-2.753-2.494-5.277-5.455-5.475-3.118-.208-5.973,2.533-6.449,5.522a2.872,2.872,0,0,0,1.955,3.445c1.343.305,3.2-.409,3.445-1.956Z"/><path class="b" d="M228.5,75.615c.113-.054.227-.1.342-.154l-.669.283a9.707,9.707,0,0,1,2.395-.686l-.744.1a3.272,3.272,0,0,1,.6-.032,2.878,2.878,0,0,0,2.8-2.8,2.833,2.833,0,0,0-.82-1.98l-.567-.438a2.785,2.785,0,0,0-1.413-.382,7.218,7.218,0,0,0-1.433.144,8.309,8.309,0,0,0-.9.193,14.231,14.231,0,0,0-2.421.917,2.7,2.7,0,0,0-1.337,2.789,2.079,2.079,0,0,0,.333,1.041,2.821,2.821,0,0,0,1.673,1.287l.744.1a2.786,2.786,0,0,0,1.414-.382Z"/><path class="b" d="M246.521,75.164a3.463,3.463,0,0,1,.594.03l-.744-.1a7.044,7.044,0,0,1,1.693.52l-.668-.282c.389.166.771.347,1.151.531a2.079,2.079,0,0,0,1.041.333,2.875,2.875,0,0,0,2.79-1.337,2.829,2.829,0,0,0,.282-2.158,2.764,2.764,0,0,0-1.287-1.673,23.535,23.535,0,0,0-2.448-1.059,5.969,5.969,0,0,0-.87-.242,6.863,6.863,0,0,0-1.534-.163,2.935,2.935,0,0,0-1.979.82,3.121,3.121,0,0,0-.821,1.98,2.8,2.8,0,0,0,2.8,2.8Z"/><path class="b" d="M235.006,95.173a40.668,40.668,0,0,1,5.639-.031l-.745-.1a3.739,3.739,0,0,1,.934.233l-.668-.282.052.023a3.038,3.038,0,0,0,2.158.283,2.8,2.8,0,0,0,1.955-3.445,2.727,2.727,0,0,0-1.287-1.673,6.636,6.636,0,0,0-1.178-.453,11.476,11.476,0,0,0-1.341-.2,14.23,14.23,0,0,0-1.74-.071c-1.26.011-2.518.1-3.779.117a2.9,2.9,0,0,0-1.98.82,2.8,2.8,0,0,0,1.98,4.78Z"/><path class="b" d="M259.672,40.664a6.3,6.3,0,0,1,3.338,1.3,11.167,11.167,0,0,1,1.25,1.07,18.606,18.606,0,0,1,1.624,1.8c-.168-.212.323.438.388.53.2.288.405.581.6.876.431.658.835,1.334,1.217,2.022q.466.843.888,1.711.222.458.432.921c.052.116.45,1.066.178.394,2.366,5.832,1.963,13.2-.381,19.2a2.819,2.819,0,0,0,1.955,3.444,2.866,2.866,0,0,0,3.445-1.955,33.8,33.8,0,0,0,1.26-19.61,29.848,29.848,0,0,0-7.432-13.078,13.271,13.271,0,0,0-8.761-4.217,2.8,2.8,0,0,0,0,5.6Z"/><path class="b" d="M219.85,65.22c-.459-4.889-.471-9.62.9-14.184q.193-.644.423-1.277c.059-.162.121-.324.182-.485.3-.784-.229.489.1-.259a20.9,20.9,0,0,1,1.068-2.086c.363-.616.768-1.2,1.184-1.779-.442.616.208-.248.31-.368q.37-.433.765-.845.558-.581,1.159-1.116c.21-.188.424-.371.64-.55.125-.1.257-.2.38-.308.391-.339-.512.369-.068.05.755-.544,1.505-1.092,2.275-1.617A25.488,25.488,0,0,1,242.3,36.285a32.86,32.86,0,0,1,7.432.422,27.351,27.351,0,0,1,3.265.808c.534.17,1.066.355,1.584.57-.422-.175-.011,0,.062.034.307.143.608.294.906.453,3.18,1.691,6.013-3.141,2.826-4.836a30.366,30.366,0,0,0-13.948-3.1,33.476,33.476,0,0,0-15.971,3.636,26.313,26.313,0,0,0-12.542,13.63c-2.085,5.453-2.2,11.574-1.659,17.314a2.876,2.876,0,0,0,2.8,2.8,2.82,2.82,0,0,0,2.8-2.8Z"/><path class="b" d="M224.326,105.909a12.459,12.459,0,0,1-.889,1.3c-.319.424-.12.154-.049.064q-.176.224-.353.444-.46.575-.933,1.139a36.136,36.136,0,0,1-2.4,2.73c-.112.109.593-.2-.14.1a12.516,12.516,0,0,1-1.4.414,16.009,16.009,0,0,0-1.552.527,36.6,36.6,0,0,0-3.845,1.8,102.468,102.468,0,0,0-18.712,13.492,83.545,83.545,0,0,0-9.332,9.433,2.88,2.88,0,0,0,0,3.96,2.822,2.822,0,0,0,3.96,0,95.753,95.753,0,0,1,17.59-16.055,83.639,83.639,0,0,1,8.968-5.8c.6-.327,1.2-.642,1.81-.939.277-.135.558-.261.837-.392.085-.04.523-.226.162-.074-.38.16.158-.063.237-.092,1.584-.593,3.3-.839,4.689-1.856a18.7,18.7,0,0,0,3.086-3.283,29.361,29.361,0,0,0,3.1-4.079c1.788-3.135-3.048-5.96-4.836-2.826Z"/><path class="b" d="M259.089,106.893c2.369,2.135,4.723,4.287,7.109,6.4a24.008,24.008,0,0,0,7.694,4.845c2.737,1.011,5.567,1.8,8.382,2.561,1.208.326,2.419.638,3.625.973.4.112.806.225,1.2.351.176.055.351.129.529.173.54.134-.494-.241-.069-.037a2.875,2.875,0,0,0,3.831-1,2.825,2.825,0,0,0-1-3.831,30.411,30.411,0,0,0-5.429-1.7c-2.787-.743-5.556-1.534-8.3-2.439a18.029,18.029,0,0,1-6.507-3.848c-2.386-2.115-4.741-4.267-7.109-6.4-2.671-2.407-6.644,1.541-3.96,3.96Z"/><path class="b" d="M243.656,46.682c.065.082.13.164.194.247l-.438-.567a24.7,24.7,0,0,1,2.54,4.05,2.835,2.835,0,0,0,1.674,1.287,2.109,2.109,0,0,0,1.116.05,2.078,2.078,0,0,0,1.041-.332,2.831,2.831,0,0,0,1.287-1.673l.1-.745a2.785,2.785,0,0,0-.382-1.413,28.022,28.022,0,0,0-3.172-4.864,2.085,2.085,0,0,0-.9-.578,2.108,2.108,0,0,0-1.079-.242,2.8,2.8,0,0,0-2.8,2.8l.1.745a2.8,2.8,0,0,0,.72,1.235Z"/><path class="b" d="M234.231,44.6c-4,.655-7.165,3.615-9.172,6.989-.966,1.623-1.649,3.383-2.534,5.047-.233.44-.482.871-.757,1.285-.094.141-.191.279-.288.416-.465.66.346-.373-.189.236a16.222,16.222,0,0,1-2.039,1.97,2.807,2.807,0,0,0,0,3.96,2.881,2.881,0,0,0,3.959,0,16.2,16.2,0,0,0,3.675-4.2c.964-1.583,1.617-3.331,2.489-4.963.42-.786.905-1.51,1.392-2.253.253-.389-.4.451.134-.172.146-.17.292-.34.444-.5a11.326,11.326,0,0,1,.845-.824c.089-.078.524-.424.072-.081.157-.119.318-.232.482-.341a10,10,0,0,1,1.025-.6c.223-.112.462-.206.093-.061q.279-.11.564-.2a9.087,9.087,0,0,1,1.293-.3,2.811,2.811,0,0,0,1.956-3.444,2.882,2.882,0,0,0-3.444-1.956Z"/><path class="b" d="M257.077,56.434a14.056,14.056,0,0,1,1.061,1.1c.078.091.156.182.231.275.054.065.32.4.06.07-.288-.362.073.11.1.15q.105.148.2.3a14.105,14.105,0,0,1,.781,1.319q.168.32.319.648c.037.079.2.472.041.08-.181-.437.045.122.063.168a14.6,14.6,0,0,1,.772,2.882c.036.221-.016.588-.013-.116,0,.119.027.243.037.361.022.241.037.482.047.724a14.8,14.8,0,0,1-.035,1.631,2.813,2.813,0,0,0,2.8,2.8,2.87,2.87,0,0,0,2.8-2.8,17.143,17.143,0,0,0-5.309-13.544,2.8,2.8,0,0,0-3.96,3.96Z"/><path class="b" d="M225.186,110.307c3.844,6.065,7.484,12.359,13.068,17.025a2.862,2.862,0,0,0,3.96,0,2.833,2.833,0,0,0,0-3.959,36.274,36.274,0,0,1-3.749-3.616q-.84-.937-1.619-1.926c-.055-.069-.414-.54-.128-.161-.1-.14-.211-.28-.316-.421q-.393-.528-.774-1.066c-2-2.816-3.76-5.788-5.607-8.7a2.8,2.8,0,1,0-4.835,2.826Z"/><path class="b" d="M258.067,103.988a10.185,10.185,0,0,1-1.248,1.98c-.443.6.364-.444-.136.172-.18.222-.359.445-.542.666-.429.518-.869,1.029-1.313,1.534-2.213,2.519-4.541,4.937-6.888,7.33-4.857,4.952-9.84,9.779-14.858,14.566-1.377,1.314-2.771,2.611-4.138,3.936-2.593,2.512,1.369,6.47,3.96,3.96,8.574-8.308,17.443-16.364,25.4-25.284,1.609-1.8,3.64-3.78,4.6-6.034a2.9,2.9,0,0,0-1-3.831c-1.177-.688-3.234-.394-3.831,1Z"/><path class="b" d="M225.186,110.307c3.844,6.065,7.484,12.359,13.068,17.025a2.862,2.862,0,0,0,3.96,0,2.833,2.833,0,0,0,0-3.959,36.274,36.274,0,0,1-3.749-3.616q-.84-.937-1.619-1.926c-.055-.069-.414-.54-.128-.161-.1-.14-.211-.28-.316-.421q-.393-.528-.774-1.066c-2-2.816-3.76-5.788-5.607-8.7a2.8,2.8,0,1,0-4.835,2.826Z"/><path class="b" d="M278.3,142.238c2.045-1,4.133-1.906,6.188-2.882a31.041,31.041,0,0,0,5.65-3.09,3.076,3.076,0,0,0,1.287-1.673,2.863,2.863,0,0,0-.282-2.158c-.738-1.145-2.587-1.957-3.831-1a31.135,31.135,0,0,1-5.65,3.09c-2.056.975-4.144,1.883-6.188,2.882a2.817,2.817,0,0,0-1,3.831,2.872,2.872,0,0,0,3.831,1Z"/><path class="b" d="M238.2,84.4c3.6,0,3.61-5.6,0-5.6s-3.609,5.6,0,5.6Z"/></svg>