<?xml version="1.0" encoding="utf-8"?>
<!-- Uploaded to: SVG Repo, www.svgrepo.com, Generator: SVG Repo Mixer Tools -->
<svg width="800px" height="800px" viewBox="0 -52.88 457.739 457.739" xmlns="http://www.w3.org/2000/svg"><defs><style>.a{fill:#ffffff;}.b{fill:#7a7473;}.c{fill:#cfcfcf;}.d{fill:#d9d9d9;}.e{fill:#211715;}.f{fill:#bdbdbd;}.g{fill:#f2635f;}</style></defs><path class="a" d="M294.974,184.422c.44-.187,4.994-2.217,6.428-2.84a43.388,43.388,0,0,1-7.931-6.263,44.708,44.708,0,0,1-10.085-15.732l-1.7-.1a11.074,11.074,0,0,1-5.351-1.814,16.716,16.716,0,0,1-4.848-5.228,26.293,26.293,0,0,1-4.012-13.612,8.766,8.766,0,0,1,.574-3.6,6.205,6.205,0,0,1,4.155-3.383,6.568,6.568,0,0,1,5.381,1.024s-6.765-34.563,38.865-39.3,48.917,30.8,48.917,30.8a6.573,6.573,0,0,1,5.085-2.039,6.208,6.208,0,0,1,4.727,2.522,8.763,8.763,0,0,1,1.254,3.425,26.279,26.279,0,0,1-1.324,14.129,16.7,16.7,0,0,1-3.754,6.061,11.074,11.074,0,0,1-4.9,2.808s-.314.08-.866.228c-.268,1.613-.612,2.982-.775,3.708-1.071,4.085-7.728,18.247-17.325,24.653a6.808,6.808,0,0,0,2.594,1.525c.276.1,7.87,3.07,8.494,3.345,0,0-5.976,31.5-33.828,29.133S294.974,184.422,294.974,184.422Z"/><path class="b" d="M234.91,289.843c2.452-13.8,7.682-44.236,10.963-57.98,2.273-9.523,6.7-19.664,13.886-26.507,5.245-5,11.934-8.04,18.113-11.641,5.734-3.341,10.6-6.24,16.488-9.365,7.9,9.293,19.967,13,33.449,12.858,12.193-.124,21.759-5.016,31.9-12.468,5.721,3.035,10.894,5.713,16.493,8.975,6.179,3.6,12.868,6.646,18.113,11.641,7.186,6.843,11.614,16.984,13.887,26.507,3.28,13.744,8.511,44.182,10.963,57.98"/><path class="a" d="M197.4,193.4c16.5-18.311,27.05-43.146,27.05-73.658C224.451,43.205,176.193,2.4,113.443,2.4S2.435,43.205,2.435,119.737c0,69.99,55.5,110.118,111.008,110.118a115.547,115.547,0,0,0,66.976-21.3c6.405,3.622,22.075,11.713,29.477,15.058C206.256,213.791,201.5,202.546,197.4,193.4Z"/><path class="c" d="M294.974,184.422c.407-.173,4.33-1.921,6.052-2.676a43.832,43.832,0,0,1-7.259-5.834,42.918,42.918,0,0,1-8.454-12c-.634-1.267-1.191-2.519-1.684-3.742-1.023-.055-1.643-.09-1.643-.09a11.065,11.065,0,0,1-5.352-1.815,13.576,13.576,0,0,1-1.951-1.577,21.91,21.91,0,0,0-1.5,7.5,35.784,35.784,0,0,0,.225,4.881c.037.33.082.66.132.989.536,3.524,1.713,7.053,2.23,10.564.551,3.828-.084,7.71-3.63,9.31-.14.064-.124.536-.108.655a1.682,1.682,0,0,0,.373.793,5.71,5.71,0,0,0,2.04,1.466,20.467,20.467,0,0,0,3.845,1.388c5.475-3.185,11.138-6.132,16.759-9.106C294.993,184.677,294.974,184.422,294.974,184.422Z"/><path class="d" d="M369.474,94.836c-.259-.949-.514-1.826-.756-2.613-6.71-21.864-30.891-37.392-54.325-33.816-23.684.989-44.434,20.871-46.821,43.616-.65,6.135.5,16.414,2.081,21.108l3.111,8.616a6.525,6.525,0,0,1,4.824,1.13c8.686-7.361,23.392-20.111,30.889-27.936-.269,4.24-1.971,11.571.969,10.55,12.29-4.129,23.769-11.167,30.167-21.032,2.059,5.259,5.305,12.318,7.479,15.33,3.075,4.262,11.705,13.686,18.278,14.583a6.573,6.573,0,0,1,5.085-2.039,6.441,6.441,0,0,1,.833.1C373.827,114.533,371.538,102.4,369.474,94.836Z"/><path class="e" d="M339.114,63.933c11.31,4.834,21.08,13.651,25.911,25.1a65.145,65.145,0,0,1,3.341,11.369c.662,3.016,5.29,1.74,4.628-1.276-1.51-6.876-3.677-13.518-7.561-19.446a54.273,54.273,0,0,0-23.9-19.89,2.481,2.481,0,0,0-3.283.861,2.417,2.417,0,0,0,.861,3.284Z"/><path class="e" d="M271.961,122.686c-1.851-5.606-2.3-11.98-2.161-17.845a40.949,40.949,0,0,1,4.52-17.26,49.589,49.589,0,0,1,27.175-24.2,44.067,44.067,0,0,1,10.043-2.364,72.749,72.749,0,0,1,13.725-.546,2.419,2.419,0,0,0,2.4-2.4,2.449,2.449,0,0,0-2.4-2.4,75.63,75.63,0,0,0-12.836.461,49.084,49.084,0,0,0-10.2,1.955,53.727,53.727,0,0,0-18.018,9.729c-10.452,8.478-17.8,21.012-19.068,34.5a56.585,56.585,0,0,0,.247,11.086,50.329,50.329,0,0,0,1.942,10.562c.964,2.92,5.6,1.669,4.629-1.276Z"/><path class="e" d="M337.549,95.735a107.484,107.484,0,0,0,5.9,12.741,46.086,46.086,0,0,0,8.4,10.3c2.225,2.144,5.624-1.246,3.394-3.394a41.335,41.335,0,0,1-7.653-9.325,97.957,97.957,0,0,1-5.415-11.594,2.475,2.475,0,0,0-2.952-1.676,2.416,2.416,0,0,0-1.676,2.952Z"/><path class="e" d="M337.652,93.076a44.232,44.232,0,0,1-14.028,13.209,68.332,68.332,0,0,1-9.3,4.812c-1.621.69-3.274,1.309-4.94,1.882a3.463,3.463,0,0,0-.579.2c-.174.1-.238-.046-.019.032.5.179.893.133,1.342.589a.723.723,0,0,1,.116.188,2.532,2.532,0,0,1-.068-.273c-.062-.457.007.219-.011-.109-.152-2.9.51-5.782.709-8.662.145-2.1-2.713-3.138-4.1-1.7-9.6,9.993-20.329,18.984-30.889,27.936a2.421,2.421,0,0,0,0,3.394,2.451,2.451,0,0,0,3.395,0c10.559-8.952,21.287-17.943,30.888-27.936l-4.1-1.7c-.2,2.9-.937,5.861-.7,8.778a4.6,4.6,0,0,0,1.849,3.793c1.559.956,3.243.18,4.782-.38a68.992,68.992,0,0,0,21.184-11.9,44.551,44.551,0,0,0,8.6-9.734c1.685-2.6-2.469-5.009-4.144-2.423Z"/><path class="e" d="M272.066,155.463a26.9,26.9,0,0,0-1.447,12.063c.387,4.449,1.978,8.639,2.524,13.047a9.17,9.17,0,0,1-.367,4.62,3.68,3.68,0,0,1-.929,1.328c-.678.6-1.565.793-2.074,1.608-1.116,1.791-.041,3.922,1.426,5.1a16.514,16.514,0,0,0,5.927,2.673c2.98.831,4.252-3.8,1.276-4.629a17.509,17.509,0,0,1-3.04-1.09,7.264,7.264,0,0,0-1.055-.572c-.1-.088-.2-.18-.293-.276q.123.819.136.175l-.328,1.212.1-.172-.861.861c6.084-2.931,5.269-10.251,4-15.709a53.089,53.089,0,0,1-1.758-10,22.092,22.092,0,0,1,1.392-8.967,2.419,2.419,0,0,0-1.677-2.953,2.455,2.455,0,0,0-2.952,1.677Z"/><path class="e" d="M358.778,162.9a53.718,53.718,0,0,1-7.173,10.179c-2.763,3.013-6,5.687-9.651,6.909a2.456,2.456,0,0,0-1.677,2.952,2.425,2.425,0,0,0,2.953,1.677c8.942-2.993,15.259-11.374,19.692-19.3,1.511-2.7-2.634-5.121-4.144-2.422Z"/><path class="e" d="M278.8,130.805a8.975,8.975,0,0,0-11.464,1.237c-3.033,3.28-2.471,8.351-1.636,12.384,1.658,8.011,7.1,16.777,15.989,17.465a2.419,2.419,0,0,0,2.4-2.4,2.448,2.448,0,0,0-2.4-2.4c-5.983-.463-9.535-7.137-10.953-12.254a22.667,22.667,0,0,1-.8-4.483,8.974,8.974,0,0,1,.306-4.162c1.083-2.417,4.179-2.586,6.131-1.243a2.423,2.423,0,0,0,3.284-.861,2.447,2.447,0,0,0-.861-3.283Z"/><path class="e" d="M279.055,154.083c3.75,13.629,12.375,26.267,25.755,31.912a30.73,30.73,0,0,0,11.729,2.456c3.09.026,3.093-4.774,0-4.8-8.567-.07-16.161-4.643-21.991-10.654-5.43-5.6-8.814-12.737-10.864-20.19-.819-2.975-5.451-1.712-4.629,1.276Z"/><path class="e" d="M322.2,146.612c.266.721.515,1.448.754,2.179a13.639,13.639,0,0,1,.652,2.321l-.086-.638a1.9,1.9,0,0,1,.006.377l.086-.638a1.149,1.149,0,0,1-.071.269l.242-.574a.724.724,0,0,1-.068.118l.375-.486a.9.9,0,0,1-.149.147l.485-.375a3.169,3.169,0,0,1-.514.29l.573-.242a2.207,2.207,0,0,1-.517.138l.638-.086a6.638,6.638,0,0,1-.935-.033,2.419,2.419,0,0,0-2.4,2.4,2.45,2.45,0,0,0,2.4,2.4c.28.011.554.057.835.042a4.561,4.561,0,0,0,2.163-.647,3.17,3.17,0,0,0,1.572-2.085,4.814,4.814,0,0,0-.121-2.186c-.369-1.341-.81-2.662-1.291-3.967a2.58,2.58,0,0,0-1.1-1.435,2.4,2.4,0,0,0-3.284.861,2.367,2.367,0,0,0-.242,1.85Z"/><path class="e" d="M333.153,160.228a11.373,11.373,0,0,0-6.31-1.259,10.48,10.48,0,0,0-5.079,2.014A12.426,12.426,0,0,0,318.2,165.2a9.681,9.681,0,0,0-1.3,6.043A4.265,4.265,0,0,0,318.736,174a4.629,4.629,0,0,0,3.022.542,31.373,31.373,0,0,0,5.54-1.29c.395-.114.792-.225,1.192-.32.153-.037.306-.072.46-.1.061-.013.8-.118.247-.059.684-.073,1.377-.04,2.063-.091,1.9-.138,3.92-.531,5.226-2.042a6.139,6.139,0,0,0,.469-6.954,8.346,8.346,0,0,0-3.8-3.458,2.464,2.464,0,0,0-3.284.861,2.423,2.423,0,0,0,.861,3.284c.395.193.763.417,1.141.641.039.023.293.207.06.032-.254-.19.076.067.132.119.1.093.193.188.291.281.068.066.353.435.1.085a4.632,4.632,0,0,1,.409.684c.171.35-.085-.3.04.118a5.3,5.3,0,0,1,.136.513c.076.4.009-.286,0,.1,0,.119,0,.237-.009.356.049-.456,0-.016-.042.032.262-.292-.014.019-.079.125-.188.31.226-.225-.039.03s.282-.186,0,.011c-.059.041-.43.224-.16.1.253-.115-.064.017-.1.027-.286.075-.568.145-.858.2-.086.017-.466.05-.034.007q-.279.027-.558.047a23.77,23.77,0,0,0-3.7.362c-1.326.3-2.61.753-3.922,1.1-.337.09-.675.175-1.016.248-.126.027-.253.053-.38.077-.048.009-.568.1-.311.059s-.256.024-.307.028c-.123.009-.247.017-.371.021a2.673,2.673,0,0,0-.49,0c.373-.271.694.206.9.4.151.142.033-.172-.008-.024-.013.047-.047.28.045.023.117-.328-.005-.325.067-.606.084-.328.173-.654.281-.975.052-.154.109-.306.166-.459.141-.377-.014.008.09-.2a12.248,12.248,0,0,1,.877-1.534c.087-.126.175-.254.269-.375-.068.089-.251.283.055-.048.2-.22.4-.444.619-.653.106-.1.221-.2.327-.3.479-.468-.189.118.114-.1a8.243,8.243,0,0,1,.816-.529c.124-.07.252-.132.378-.2.392-.214-.145.038.108-.055.394-.146.788-.25,1.193-.36.018,0,.465-.1.168-.051a5.012,5.012,0,0,1,.533-.041c.176-.008.354-.009.531,0,.01,0,.609.046.476.028a9.206,9.206,0,0,1,2.079.656,2.469,2.469,0,0,0,3.284-.861A2.42,2.42,0,0,0,333.153,160.228Z"/><path class="e" d="M342.842,133.705c.053.1.1.2.144.3l-.242-.573a5.5,5.5,0,0,1,.351,1.34l-.086-.638a6.329,6.329,0,0,1,.006,1.586l.085-.639a5.326,5.326,0,0,1-.343,1.3l.242-.573a4.674,4.674,0,0,1-.335.648c-.065.1-.352.486-.051.1s0-.01-.088.077-.164.163-.251.239c-.07.062-.329.264.037-.018.345-.268.142-.107.06-.054a5.708,5.708,0,0,1-.8.44l.573-.242a4.205,4.205,0,0,1-1.035.319l.638-.086a7.253,7.253,0,0,1-1.791.019l.638.086a5.063,5.063,0,0,1-1.27-.34l.573.242a4.954,4.954,0,0,1-.692-.381c-.395-.258.456.4.156.12-.091-.084-.183-.165-.269-.255s-.142-.17-.218-.248c.555.568.266.36.119.131a4.557,4.557,0,0,1-.338-.641l.242.574a5.26,5.26,0,0,1-.357-1.332l.086.638a5.912,5.912,0,0,1,0-1.45l-.086.638a5.645,5.645,0,0,1,.358-1.358l-.241.573a4.262,4.262,0,0,1,.347-.671c.034-.051.071-.1.105-.151.141-.216-.437.516-.214.278.1-.1.188-.211.29-.31s.2-.176.3-.265c.2-.177-.537.394-.26.2.067-.047.134-.095.2-.14a5.625,5.625,0,0,1,.818-.436l-.574.242a5.554,5.554,0,0,1,1.337-.37l-.638.086a5.02,5.02,0,0,1,1.243,0l-.638-.086a4.712,4.712,0,0,1,1.153.319l-.574-.242a4.92,4.92,0,0,1,.516.265c.086.052.168.11.252.163.341.218-.488-.433-.118-.091.161.149.321.292.469.455.065.071.34.416.073.066-.283-.37.046.073.1.146a2.56,2.56,0,0,0,1.435,1.1,2.4,2.4,0,0,0,2.71-3.525,7.4,7.4,0,0,0-4.289-3.2,7.116,7.116,0,0,0-4.3.291,7.336,7.336,0,0,0-3.552,2.816,7.6,7.6,0,0,0-1.049,3.569,6.884,6.884,0,0,0,3.389,6.49c2.845,1.5,6.931,1.07,9.013-1.536a7.5,7.5,0,0,0,1.665-4.564,7.879,7.879,0,0,0-.874-3.862,2.418,2.418,0,0,0-3.284-.861A2.454,2.454,0,0,0,342.842,133.705Z"/><path class="e" d="M305.287,137.483c.052.1.1.2.144.305l-.242-.573a5.548,5.548,0,0,1,.35,1.34l-.085-.638a6.321,6.321,0,0,1,0,1.585l.086-.638a5.417,5.417,0,0,1-.343,1.3l.242-.573a4.68,4.68,0,0,1-.336.648c-.065.1-.351.486-.05.095s-.006-.009-.088.077-.164.164-.251.24c-.071.062-.33.264.036-.019.346-.267.142-.106.06-.053a5.754,5.754,0,0,1-.8.44l.573-.242a4.235,4.235,0,0,1-1.035.319l.638-.086a7.3,7.3,0,0,1-1.791.019l.638.086a5.086,5.086,0,0,1-1.27-.34l.574.242a4.752,4.752,0,0,1-.692-.382c-.395-.257.455.4.156.121-.092-.084-.184-.166-.27-.256s-.141-.169-.218-.248c.555.569.267.36.12.132a4.563,4.563,0,0,1-.339-.641l.242.573a5.2,5.2,0,0,1-.356-1.331l.085.638a6.012,6.012,0,0,1,0-1.45l-.085.638a5.6,5.6,0,0,1,.358-1.358l-.242.573a4.348,4.348,0,0,1,.347-.671c.034-.051.072-.1.1-.151.141-.217-.437.516-.213.278.1-.1.187-.211.289-.311s.2-.175.3-.264c.2-.177-.538.393-.261.2.068-.047.134-.1.2-.14a5.53,5.53,0,0,1,.818-.436l-.573.242a5.484,5.484,0,0,1,1.337-.37l-.638.086a5.019,5.019,0,0,1,1.243,0l-.638-.086a4.661,4.661,0,0,1,1.152.319l-.573-.242a4.829,4.829,0,0,1,.516.265c.086.052.167.109.251.163.342.217-.488-.433-.117-.091.161.148.321.292.469.455.064.071.34.416.072.065-.282-.37.047.074.1.147a2.562,2.562,0,0,0,1.434,1.1,2.4,2.4,0,0,0,2.71-3.525,7.4,7.4,0,0,0-4.289-3.2,7.112,7.112,0,0,0-4.3.29,7.346,7.346,0,0,0-3.553,2.817,7.627,7.627,0,0,0-1.049,3.569,6.884,6.884,0,0,0,3.39,6.49c2.845,1.5,6.93,1.07,9.012-1.536a7.5,7.5,0,0,0,1.665-4.564,7.879,7.879,0,0,0-.874-3.862,2.418,2.418,0,0,0-3.283-.862A2.455,2.455,0,0,0,305.287,137.483Z"/><path class="e" d="M331.238,68.774A70.074,70.074,0,0,1,341.3,52.62a2.466,2.466,0,0,0,0-3.394,2.42,2.42,0,0,0-3.394,0,74.105,74.105,0,0,0-10.817,17.125,2.474,2.474,0,0,0,.861,3.284,2.42,2.42,0,0,0,3.284-.861Z"/><path class="e" d="M237.224,290.481c2.612-14.707,5.138-29.431,8.019-44.088,1.4-7.1,2.67-14.348,5.1-21.185,3.044-8.577,7.983-16.532,15.584-21.745,4.457-3.056,9.334-5.442,13.994-8.162,5.182-3.024,10.357-6.059,15.655-8.879l-2.909-.375c6.074,7.065,14.756,11.177,23.848,12.695,10.052,1.678,20.182.94,29.59-3.1a76.275,76.275,0,0,0,14.817-8.829H358.5c4.683,2.483,9.385,4.932,14,7.543,4.267,2.416,8.621,4.723,12.809,7.275a40.269,40.269,0,0,1,10.552,8.945,47.2,47.2,0,0,1,6.709,11.584c2.861,6.874,4.264,14.238,5.723,21.507,1.568,7.811,3.008,15.648,4.422,23.488,1.4,7.772,2.757,15.552,4.138,23.327a2.421,2.421,0,0,0,2.953,1.676,2.454,2.454,0,0,0,1.676-2.952c-2.651-14.924-5.211-29.867-8.147-44.739-1.439-7.287-2.768-14.708-5.388-21.682-3.417-9.1-8.679-17.291-16.678-22.982-4.5-3.2-9.5-5.639-14.272-8.4-5.278-3.057-10.686-5.875-16.073-8.731a2.384,2.384,0,0,0-2.423,0c-7.559,5.537-15.761,10.341-25.167,11.737a51.584,51.584,0,0,1-13.882-.045,42.065,42.065,0,0,1-12.112-3.289,32.517,32.517,0,0,1-11.277-8.418,2.432,2.432,0,0,0-2.908-.376c-4.74,2.524-9.384,5.216-14.02,7.925-4.294,2.509-8.724,4.8-12.964,7.394a43.955,43.955,0,0,0-11.089,9.274,51.574,51.574,0,0,0-7.475,12.308c-3.134,7.189-4.743,14.782-6.288,22.432-1.607,7.952-3.075,15.932-4.516,23.915-1.424,7.889-2.8,15.787-4.2,23.68a2.468,2.468,0,0,0,1.677,2.952,2.42,2.42,0,0,0,2.952-1.676Z"/><path class="e" d="M380.3,226.85c-.019,9.385-1.162,18.817-2.183,28.133-.462,4.22-1.241,8.483-1.2,12.731.039,4.586.436,9.158.792,13.726.52,6.652.887,13.305.895,19.979,0,3.088,4.8,3.093,4.8,0-.007-6.024-.293-12.035-.745-18.04-.354-4.695-.8-9.389-.915-14.1a92.4,92.4,0,0,1,.994-12.632c.558-4.992,1.073-9.989,1.509-14.993.429-4.92.848-9.865.858-14.807.006-3.089-4.794-3.093-4.8,0Z"/><path class="e" d="M269.463,226.85c.019,9.385,1.162,18.817,2.183,28.133.462,4.22,1.241,8.483,1.2,12.731-.038,4.586-.435,9.158-.792,13.726-.519,6.652-.887,13.305-.9,19.979,0,3.088,4.8,3.093,4.8,0,.007-6.024.294-12.035.746-18.04.353-4.695.8-9.389.915-14.1a92.4,92.4,0,0,0-.994-12.632c-.558-4.992-1.073-9.989-1.51-14.993-.429-4.92-.848-9.865-.858-14.807-.006-3.088-4.806-3.094-4.8,0Z"/><path class="e" d="M298.528,180.24c-1.588.7-3.169,1.425-4.765,2.11a2.4,2.4,0,0,0-1.1,1.434,2.454,2.454,0,0,0,.242,1.85,2.425,2.425,0,0,0,1.434,1.1l.638.085a2.388,2.388,0,0,0,1.212-.327c1.6-.685,3.177-1.408,4.765-2.11a2.407,2.407,0,0,0,1.1-1.435,2.452,2.452,0,0,0-.242-1.849,2.417,2.417,0,0,0-1.434-1.1l-.638-.086a2.4,2.4,0,0,0-1.212.328Z"/><path class="e" d="M346.019,181.776a16.836,16.836,0,0,0,5.1,2.579q2.562,1,5.12,2.011.529.21,1.059.422l.391.157c.451.182-.428-.183-.32-.136a2.464,2.464,0,0,0,3.283-.861c.548-1.037.368-2.748-.861-3.284-2.849-1.241-5.781-2.314-8.678-3.437l-.479-.183c-.045-.017-.241-.062-.266-.1.046.074.395.184.083.031-.172-.084-.343-.167-.51-.26s-.306-.178-.453-.277c-.059-.04-.116-.087-.177-.125-.245-.153.468.382.105.071a2.4,2.4,0,0,0-3.394,3.394Z"/><path class="e" d="M455.42,288.651q-8.394.014-16.788-.017-12.009-.03-24.018-.083-14.712-.06-29.423-.134-16.354-.081-32.708-.17-16.906-.092-33.815-.189-16.591-.094-33.183-.193l-30.255-.181-25.558-.155-18.691-.112q-4.886-.028-9.77-.053l-.821,0c-3.088,0-3.093,4.8,0,4.8,2.449,0,4.9.023,7.347.037q8.323.046,16.649.1l24.065.146,29.4.176q16.275.1,32.551.192,16.977.1,33.956.192,16.529.09,33.058.175,15.207.077,30.415.144,12.8.057,25.6.1,9.339.027,18.678.034,1.66,0,3.32,0c3.089-.006,3.094-4.806,0-4.8Z"/><path class="a" d="M327.394,242.484c-30.532.221-60.917.4-71.706.435a3.1,3.1,0,0,0-3.092,3.116c.063,17.528.908,78.191,1.552,100.488a3.107,3.107,0,0,0,3.159,3.015c9.75-.15,39.948-.058,70.087.046,30.139-.1,60.337-.2,70.087-.046a3.106,3.106,0,0,0,3.159-3.015c.644-22.3,1.49-82.96,1.552-100.488a3.1,3.1,0,0,0-3.092-3.116C388.311,242.883,357.927,242.705,327.394,242.484Z"/><path class="e" d="M327.394,240.084q-32.061.233-64.122.4l-4.789.022a13.563,13.563,0,0,0-4.714.377,5.683,5.683,0,0,0-3.571,5.59c0,1.029.01,2.059.017,3.089q.061,9.027.178,18.054.285,24.16.706,48.32.189,10.806.423,21.61.093,4.115.205,8.227c.065,2.335.858,4.5,3.09,5.583,1.531.745,3.235.566,4.885.551,19.587-.183,39.181-.021,58.768.043,22.363.074,44.726-.13,67.09-.088,3.277.006,6.555.015,9.833.047,1.66.017,3.36.172,4.864-.693,2.127-1.223,2.746-3.333,2.81-5.634.172-6.179.3-12.359.418-18.539q.471-24.227.773-48.455.14-10.629.249-21.26.041-4.02.068-8.04c.007-1.012.029-2.025.017-3.038a5.623,5.623,0,0,0-4.03-5.53,17.6,17.6,0,0,0-4.481-.215l-4.846-.023q-6.318-.032-12.636-.068-16.48-.093-32.962-.206-9.122-.06-18.243-.127c-3.089-.022-3.092,4.778,0,4.8q31.416.228,62.832.4c2.873.015,5.832-.179,8.7.039,1.1.083.87,1.046.865,1.93q-.007,1.628-.02,3.255-.066,8.988-.182,17.975-.279,23.414-.685,46.826-.183,10.561-.409,21.123-.091,4.139-.2,8.277c-.024.9.279,2.276-.81,2.433a24.13,24.13,0,0,1-3.473-.038c-19.228-.148-38.461-.01-57.69.053-21.877.073-43.755-.121-65.632-.09q-5.064.006-10.128.039a14.512,14.512,0,0,1-3.433.022c-.935-.26-.615-1.935-.636-2.719q-.244-9.189-.4-18.379-.452-23.48-.747-46.963-.138-10.381-.246-20.762-.041-4.041-.071-8.083-.012-1.564-.019-3.128c0-1.008-.147-1.733,1.046-1.772,7.082-.23,14.2-.066,21.284-.107q16.274-.095,32.547-.2,8.758-.06,17.516-.123C330.482,244.862,330.489,240.062,327.394,240.084Z"/><path class="f" d="M253.947,338.565c11.706-.074,49.285,0,73.447.084,24.162-.082,61.745-.158,73.45-.084"/><path class="e" d="M253.947,340.965c18.746-.116,37.494-.015,56.239.033,21.228.055,42.454-.033,63.682-.056,8.992-.01,17.984-.033,26.976.023,3.089.02,3.093-4.78,0-4.8-18.746-.116-37.5-.015-56.242.033-21.227.055-42.453-.033-63.68-.056-8.991-.01-17.983-.033-26.975.023-3.087.02-3.094,4.82,0,4.8Z"/><path class="e" d="M327.394,285.005c-2.23.022-4.46.051-6.69.053a2.437,2.437,0,0,0-2.4,2.4q-.013,3.51-.009,7.018c0,1.374,0,2.749.016,4.123,0,.493,0,.989.02,1.483a2.505,2.505,0,0,0,2.638,2.586c4.008,0,8.017-.027,12.026-.008a4.492,4.492,0,0,0,2.269-.309c1.106-.585,1.189-1.79,1.2-2.882.018-1.287.021-2.573.024-3.86q.009-4.075-.007-8.151a2.437,2.437,0,0,0-2.4-2.4c-2.231,0-4.461-.031-6.691-.053a2.4,2.4,0,1,0,0,4.8c2.23.022,4.46.051,6.691.053l-2.4-2.4c.016,4.272.074,8.55-.032,12.82l.328-1.211h0l2.072-1.188c-.735-.068-1.494-.021-2.231-.021-1.475,0-2.951.015-4.427.015-1.441,0-2.882-.014-4.323-.015-.771,0-1.565-.05-2.335.021l2.073,1.188h0l.328,1.211c-.107-4.27-.049-8.548-.032-12.82l-2.4,2.4c2.23,0,4.46-.031,6.69-.053a2.4,2.4,0,0,0,0-4.8Z"/><path class="a" d="M430.562,6.9c-7.711-3.006-16.613-4-24.183-1.767-9.093,2.687-17.28,8.1-20.9,16.866-3.135,7.583-3.226,16.185-1.423,24.19,2.55,11.323,8.854,20.731,9.982,32.629,1.079,11.387-2.333,19.029-13.006,26.433-7.193,4.99-15.755,6.409-21.168,13.289-3.347,4.254-5.315,10.627-5.771,16.02-.518,6.127-.537,19.547-12.468,26.56,9.118,1.349,16.327-5.351,19.863-13.862,3.6-8.657,3.957-17.783,11.229-23.445,6.908-5.381,16.022-7.61,23.813-11.05,11.707-5.17,17.061-13.136,18.445-28.963.6-6.842,2.879-14.373,7.8-19.162,4.233-4.119,9.641-6.788,14.35-10.354,5.841-4.424,11.93-11.125,12.737-18.41,1.215-10.973-2.874-18.683-10-23.926A40.687,40.687,0,0,0,430.562,6.9Z"/><path class="d" d="M431.2,4.581c-7.738-2.973-16.554-4.114-24.657-1.99-6.824,1.789-13.59,5.345-18.322,10.654-5.422,6.082-7.683,14.219-7.751,22.254-.071,8.446,2.448,16.348,5.5,24.119,4.687,11.94,10.178,27.049.391,37.908a36.979,36.979,0,0,1-8.031,6.622c-3.112,1.924-6.49,3.342-9.762,4.963a32.519,32.519,0,0,0-8.986,6.118,26.871,26.871,0,0,0-5.869,9.871,38.941,38.941,0,0,0-2.084,10.26c-.073.973-.137,1.946-.222,2.918q-.072.829-.162,1.658c-.084.762-.113.973-.195,1.51-.843,5.5-2.72,10.782-6.808,14.717a20.975,20.975,0,0,1-3.829,2.88c-1.592.953-1.582,4.092.573,4.387,7.3,1,13.9-2.161,18.4-7.893,4.755-6.049,6.128-13.412,8.649-20.49a20.969,20.969,0,0,1,5.074-8.423c2.784-2.633,6.424-4.421,9.9-5.949,6.622-2.911,13.848-4.693,19.982-8.633a28.337,28.337,0,0,0,10.885-12.718,41.523,41.523,0,0,0,2.692-9.27c.636-3.659.737-7.391,1.538-11.021a28.4,28.4,0,0,1,4.27-10.267c2.23-3.188,5.582-5.456,8.786-7.563,6.867-4.517,13.7-9.169,18-16.392,3.892-6.534,4.323-15.036,1.753-22.154-2.429-6.729-7.507-11.771-13.662-15.242A49.076,49.076,0,0,0,431.2,4.581a2.417,2.417,0,0,0-2.952,1.677,2.457,2.457,0,0,0,1.676,2.952c6.2,2.451,12.18,6.409,15.35,12.436,2.874,5.464,3.487,13.156.8,18.792-3.352,7.014-9.719,11.676-16.059,15.792-3.364,2.185-6.851,4.433-9.6,7.39a27.853,27.853,0,0,0-5.611,9.559c-2.416,6.638-2.024,13.784-3.983,20.531a24.582,24.582,0,0,1-8.088,12.652c-4.729,3.853-11.189,5.828-16.946,8.043-7.034,2.706-14.636,5.893-19.02,12.356-3.969,5.851-4.8,13.133-7.467,19.555-2.311,5.56-6.614,10.961-12.753,12.311a12.448,12.448,0,0,1-4.282.174l.574,4.387a26.321,26.321,0,0,0,11.572-14.907c1.458-4.594,1.656-9.34,2.118-14.094.662-6.822,3.5-13.952,9.28-17.962a67.464,67.464,0,0,1,9.473-5.019,51.8,51.8,0,0,0,9.471-5.734c5.072-3.927,9.3-8.951,10.957-15.26,1.807-6.87.818-14.36-1.181-21.066C392.265,61.57,388.6,54.48,386.666,46.8c-1.961-7.8-2.117-16.416,1.028-23.936,2.634-6.3,8.054-10.733,14.14-13.518a33.811,33.811,0,0,1,22.23-1.967,46.47,46.47,0,0,1,5.86,1.833,2.42,2.42,0,0,0,2.953-1.676A2.456,2.456,0,0,0,431.2,4.581Z"/><path class="e" d="M293.128,48.341c0,10.223.219,20.445.222,30.668,0,3.088,4.8,3.093,4.8,0,0-10.223-.219-20.445-.222-30.668,0-3.089-4.8-3.094-4.8,0Z"/><path class="e" d="M306.671,46.67c0,8.62.145,17.239.148,25.859,0,3.089,4.8,3.094,4.8,0,0-8.62-.145-17.239-.148-25.859,0-3.089-4.8-3.094-4.8,0Z"/><path class="e" d="M278.519,42.759c0,13.594.087,27.188.129,40.783q.012,3.671.018,7.34c0,3.089,4.8,3.094,4.8,0,0-13.6-.087-27.2-.129-40.8q-.012-3.662-.018-7.323c0-3.089-4.8-3.094-4.8,0Z"/><path class="e" d="M199.1,195.092a106.852,106.852,0,0,0,19.919-32.256,117.094,117.094,0,0,0,7.816-40.919,155.8,155.8,0,0,0-3.857-37.757,118.908,118.908,0,0,0-11.649-30.725A99.426,99.426,0,0,0,168.936,12.5a113.014,113.014,0,0,0-28.614-9.857A136.749,136.749,0,0,0,108.248.1,128.558,128.558,0,0,0,76.968,5,107.629,107.629,0,0,0,49.711,17.163,98.744,98.744,0,0,0,27.386,36.409a104.623,104.623,0,0,0-16.33,26.152A128.755,128.755,0,0,0,1.785,95.439a149.629,149.629,0,0,0-.933,38.73A113.577,113.577,0,0,0,10.734,169.5a105.019,105.019,0,0,0,18.947,27.646,110.2,110.2,0,0,0,25.727,19.964,117.577,117.577,0,0,0,30.154,11.828,118.751,118.751,0,0,0,77.455-7.528,112.728,112.728,0,0,0,18.613-10.779h-2.423c9.584,5.409,19.454,10.516,29.478,15.058a2.447,2.447,0,0,0,2.665-.187,2.375,2.375,0,0,0,.861-2.523c-3.867-10.412-8.2-20.654-12.738-30.791a2.417,2.417,0,0,0-3.283-.861,2.458,2.458,0,0,0-.861,3.284c4.365,9.759,8.53,19.62,12.253,29.644l3.526-2.71c-10.024-4.543-19.9-9.65-29.478-15.058a2.375,2.375,0,0,0-2.423,0,112.684,112.684,0,0,1-39.356,17.867A114,114,0,0,1,71.289,219.4a108.08,108.08,0,0,1-26.836-15.314A101.046,101.046,0,0,1,8.9,150.776a123.052,123.052,0,0,1-3.966-36.957,143.412,143.412,0,0,1,5.22-34.627,109.31,109.31,0,0,1,12.5-28.318A95.1,95.1,0,0,1,41.4,29.187,97.93,97.93,0,0,1,65.392,14.266a113.44,113.44,0,0,1,28.057-8,134.979,134.979,0,0,1,31.082-1.028,118.782,118.782,0,0,1,29.239,6.021,100.482,100.482,0,0,1,25.2,12.864,94.45,94.45,0,0,1,20.2,19.444A103.3,103.3,0,0,1,213.671,69.9a130.976,130.976,0,0,1,7.527,32.7c1.361,13.281,1.291,26.85-1.284,39.981a104.374,104.374,0,0,1-13.828,35.351A100.243,100.243,0,0,1,195.7,191.7C193.645,193.991,197.029,197.4,199.1,195.092Z"/><path class="a" d="M149.005,169.057c0-11.119.052-30.032.052-36.7h-21.7c0,3.9.051,25.579.051,36.7"/><path class="a" d="M111.08,169.057c0-11.119.052-62.715.052-69.381h-21.7c0,3.9.051,58.262.051,69.381"/><path class="a" d="M74.009,166.883c0-11.252.052-96.55.052-103.3H52.1c0,3.943.052,92.044.052,103.3"/><path class="g" d="M186.93,169.056c0-11.119.051-5.52.051-12.186h-21.7c0,3.9.052,12.187.052,12.187"/><path class="g" d="M115.831,46.448a68.423,68.423,0,0,1,21.32,16.6c8.032,9.226,13.78,20.291,17.709,31.875a87.647,87.647,0,0,1-22.869,2.214,161.75,161.75,0,0,1,43.937,26.116A192.6,192.6,0,0,0,186,82.973,46.878,46.878,0,0,1,173.246,90.2C166.06,78.688,157.5,67.889,146.809,59.539,136.776,51.7,124.74,46.112,112.118,44.787Q114,45.554,115.831,46.448Z"/><path class="e" d="M151.405,169.057c0-12.233.051-24.466.052-36.7a2.435,2.435,0,0,0-2.4-2.4h-21.7a2.435,2.435,0,0,0-2.4,2.4c0,9.356.033,18.712.045,28.068q0,4.316.006,8.63c0,3.088,4.8,3.094,4.8,0q0-15.9-.045-31.8,0-2.448-.006-4.895l-2.4,2.4h21.7l-2.4-2.4c0,12.232-.051,24.465-.052,36.7,0,3.089,4.8,3.094,4.8,0Z"/><path class="e" d="M113.48,169.057q0-13.221.018-26.441.014-16.485.027-32.969,0-4.986.007-9.971a2.435,2.435,0,0,0-2.4-2.4h-21.7a2.435,2.435,0,0,0-2.4,2.4q0,11.01.017,22.021.015,17.362.028,34.726,0,6.316.006,12.634c0,3.088,4.8,3.094,4.8,0q0-13.587-.017-27.175l-.027-33.293q0-4.457-.007-8.913l-2.4,2.4h21.7l-2.4-2.4q0,11.631-.018,23.262-.013,16.93-.027,33.861,0,6.129-.007,12.258c0,3.089,4.8,3.094,4.8,0Z"/><path class="e" d="M76.409,166.883q0-18.993.018-37.986.014-25.6.028-51.2,0-7.053.006-14.106a2.434,2.434,0,0,0-2.4-2.4H52.1a2.434,2.434,0,0,0-2.4,2.4q0,5.343,0,10.686L49.714,97.1l.015,27.586q.008,12.7.013,25.408,0,7.912.007,15.824v.966c0,3.089,4.8,3.094,4.8,0q0-7.062-.005-14.124-.006-12.3-.013-24.607l-.015-27.691Q54.51,88.542,54.5,76.623c0-4.182.191-8.417-.006-12.595-.007-.147,0-.3,0-.441l-2.4,2.4H74.061l-2.4-2.4q0,17.383-.017,34.768-.015,26.056-.028,52.112,0,8.208-.007,16.416c0,3.089,4.8,3.094,4.8,0Z"/><path class="e" d="M189.33,169.056c0-4.063.051-8.124.051-12.186a2.433,2.433,0,0,0-2.4-2.4h-21.7a2.435,2.435,0,0,0-2.4,2.4c0,4.062.009,8.125.052,12.187.033,3.087,4.833,3.095,4.8,0-.043-4.062-.051-8.125-.052-12.187l-2.4,2.4h21.7l-2.4-2.4c0,4.062-.051,8.123-.051,12.186,0,3.088,4.8,3.093,4.8,0Z"/><path class="e" d="M114.619,48.521c14.614,7.208,25.488,19.79,32.647,34.24a105.542,105.542,0,0,1,5.28,12.8l1.676-2.952a86.772,86.772,0,0,1-22.231,2.128,2.389,2.389,0,0,0-2.357,2.081,2.446,2.446,0,0,0,1.719,2.633,159.391,159.391,0,0,1,42.878,25.5,2.439,2.439,0,0,0,4.011-1.059,194.59,194.59,0,0,0,10.067-40.28,2.424,2.424,0,0,0-4.011-2.335,44.363,44.363,0,0,1-11.691,6.609l2.711,1.1c-11.194-17.884-25.9-34.148-45.811-42.239a64.61,64.61,0,0,0-17.389-4.362,2.373,2.373,0,0,0-2.357,2.081A2.45,2.45,0,0,0,111.48,47.1c1.063.437,2.106.919,3.139,1.42a2.465,2.465,0,0,0,3.284-.861,2.421,2.421,0,0,0-.861-3.284c-1.408-.682-2.839-1.308-4.286-1.9l-.638,4.714c20.058,2.183,36.985,15.047,49.3,30.343a143.338,143.338,0,0,1,9.757,13.881,2.437,2.437,0,0,0,2.711,1.1,51.775,51.775,0,0,0,13.808-7.844l-4.011-2.335a194.593,194.593,0,0,1-10.068,40.28l4.012-1.059a166.556,166.556,0,0,0-45-26.733l-.638,4.714a91.958,91.958,0,0,0,23.507-2.3,2.418,2.418,0,0,0,1.676-2.953c-5.506-16.137-14.467-31.5-28-42.176a68.569,68.569,0,0,0-12.127-7.733,2.462,2.462,0,0,0-3.284.861A2.424,2.424,0,0,0,114.619,48.521Z"/><path class="e" d="M199.207,166.654q-14.247.03-28.494.04-19.585.02-39.17.033-20.52.015-41.04.026-16.824.011-33.649.018l-17.463.007h-.6c-3.089,0-3.094,4.8,0,4.8q7.415,0,14.83-.006l32.127-.016q20.314-.011,40.628-.025,19.935-.014,39.871-.033,15.151-.015,30.305-.039l2.652,0c3.089-.006,3.094-4.806,0-4.8Z"/><path class="e" d="M379.129,142.663a21.6,21.6,0,0,1,5.522,9.344,14.627,14.627,0,0,1,.73,5.459c-.095.83-.706,2.688-1.869,2.195-1.038-.44-1.5-2.534-1.605-3.5a2.014,2.014,0,0,1,2.02-2.253c3.048-.295,5.43,3.531,6.6,5.833,1.754,3.44,1.967,7.394,1.979,11.182.01,3.088,4.81,3.094,4.8,0-.015-4.963-.542-9.99-3.05-14.375-2.45-4.282-7.172-8.93-12.56-7a6.639,6.639,0,0,0-4.6,5.924,10.352,10.352,0,0,0,2.745,7.384,5.648,5.648,0,0,0,7.465.464c2.419-1.833,3.1-4.89,2.838-7.788a26.443,26.443,0,0,0-7.626-16.255c-2.184-2.191-5.579,1.2-3.395,3.394Z"/><path class="e" d="M274.85,106.908a25.25,25.25,0,0,0-20.028-1.823,2.456,2.456,0,0,0-1.676,2.952,2.423,2.423,0,0,0,2.952,1.676,20.364,20.364,0,0,1,16.329,1.34c2.712,1.481,5.137-2.662,2.423-4.145Z"/></svg>