<?xml version="1.0" encoding="utf-8"?>
<!-- Uploaded to: SVG Repo, www.svgrepo.com, Generator: SVG Repo Mixer Tools -->
<svg width="800px" height="800px" viewBox="-81.05 0 269.555 269.555" xmlns="http://www.w3.org/2000/svg"><defs><style>.a{fill:#bd957a;}.b{fill:#211916;}.c{fill:#ad7b59;}</style></defs><path class="a" d="M2.4,23.771c0,40.2.206,200.244.206,220.3,0,2.941.654,6.712,2.465,9.326a16.752,16.752,0,0,0,7.447,6.2c11.626,4.9,22.985,7.46,41.19,7.46,18.489,0,29.564-2.56,41.19-7.46a15.863,15.863,0,0,0,7.663-6.337,19.526,19.526,0,0,0,2.249-9.184c0-20.059.206-180.1.206-220.3"/><path class="b" d="M0,23.771Q0,32.884.008,42q.008,12.744.02,25.489Q.041,82.559.057,97.632.074,113.9.091,130.164t.035,32.548l.033,30.322.027,25.444Q.2,227.648.2,236.817q0,2.892,0,5.784c0,5.259.947,10.078,4.461,14.177a21.546,21.546,0,0,0,8.742,5.762c2.841,1.148,5.732,2.171,8.673,3.031a97.455,97.455,0,0,0,19.748,3.456c14.562,1.138,29.884.646,43.957-3.576,2.843-.853,5.637-1.86,8.386-2.978,3.39-1.379,6.6-3.036,8.968-5.919,3.3-4.016,4.067-9.074,4.069-14.116q0-7.024.011-14.048.01-11.149.022-22.3l.03-28.32q.018-15.852.035-31.7.018-16.417.035-32.836.016-15.8.032-31.6.013-14.051.025-28.1.009-10.987.014-21.977,0-3.891,0-7.783c0-3.089-4.8-3.094-4.8,0q0,9.012-.007,18.025-.009,12.526-.02,25.054-.013,14.889-.029,29.778l-.033,32.2q-.018,16.152-.035,32.3l-.033,29.981-.027,25.634q-.009,9.417-.017,18.836c-.005,5.4.857,12.1-2.132,16.8-1.783,2.806-4.693,4.377-7.688,5.585-2.752,1.11-5.55,2.107-8.4,2.949a90.05,90.05,0,0,1-18.793,3.334c-14.293,1.077-29.2.616-43-3.591-5.676-1.731-12.275-3.569-15.566-8.935-1.884-3.07-1.836-6.685-1.837-10.156q0-7.357-.012-14.717-.01-11.316-.023-22.632l-.03-28.239q-.018-15.7-.035-31.392-.016-16.269-.034-32.536Q4.855,96.434,4.84,80.816,4.827,67,4.816,53.187,4.807,42.33,4.8,31.472q0-3.851,0-7.7c0-3.089-4.8-3.094-4.8,0Z"/><path class="c" d="M53.717,2.4c-37.209,0-51.3,10.111-51.3,20.265,0,11.458,13.774,23.822,51.3,23.822,37.915,0,51.317-12.362,51.317-23.822C105.033,12.51,90.043,2.4,53.717,2.4Z"/><path class="b" d="M53.717,0C42.1.014,30.029.721,18.9,4.311,12.618,6.335,5.914,9.5,2.234,15.246c-2.873,4.489-2.725,9.971-.548,14.708,2.7,5.879,8.424,9.943,14.165,12.526,9.957,4.48,21.109,5.893,31.927,6.3,12.21.458,24.947-.109,36.731-3.607,6.918-2.053,14.168-5.346,18.741-11.153,3.229-4.1,5.182-9.674,3.688-14.867-1.692-5.882-7.111-9.866-12.4-12.349C85.1,2.378,74.411.926,64.108.3,60.648.091,57.183,0,53.717,0c-3.089,0-3.094,4.8,0,4.8,11.064.014,22.427.723,33.037,4.1a36.382,36.382,0,0,1,9.432,4.3q.423.276.836.567c.16.114.318.23.477.346.525.383-.376-.308.123.092.521.419,1.027.854,1.508,1.319.447.432.866.888,1.27,1.361.1.123.2.251.3.378-.036-.046-.321-.442-.086-.105.192.276.387.548.565.832.278.442.507.9.746,1.365.072.139.248.621-.012-.047.052.131.109.261.154.4.088.264.181.526.257.795q.092.33.164.666c.027.129.151.934.094.483s.025.356.032.486c.014.274.016.548.011.823-.01.53-.055,1.056-.117,1.581.094-.8-.017.042-.052.226q-.082.435-.191.864c-.136.536-.309,1.057-.494,1.577-.051.145-.111.286-.167.429.223-.569.119-.272.061-.147-.155.334-.309.666-.48.991-.252.479-.528.946-.824,1.4-.184.282-.38.555-.575.828-.067.093-.137.183-.206.274.4-.527-.087.1-.168.194A22.7,22.7,0,0,1,96.5,34.052c-.154.128-.31.253-.466.378-.509.407.245-.18-.08.06-.308.229-.618.455-.934.673-.663.458-1.346.889-2.042,1.3a40.725,40.725,0,0,1-4.714,2.334c-9.572,3.882-20.146,4.985-30.387,5.242-11.352.284-23.051-.3-33.978-3.636a40.914,40.914,0,0,1-10.081-4.412q-1.019-.628-1.987-1.332c-.168-.123-.336-.248-.5-.375.357.275.071.054,0,0-.361-.292-.718-.59-1.065-.9q-.708-.633-1.364-1.32-.375-.4-.731-.811c-.134-.155-.774-.98-.4-.474a19.674,19.674,0,0,1-1.878-3.1c-.069-.141-.13-.287-.193-.43.254.574.087.218.035.07-.093-.265-.2-.526-.285-.794a14.62,14.62,0,0,1-.425-1.594c-.06-.289-.106-.58-.153-.871.13.8,0-.061-.012-.233a12.948,12.948,0,0,1-.035-1.683c.011-.218.046-.438.052-.656.013-.489-.132.591-.016.115.021-.086.027-.176.045-.262a13.717,13.717,0,0,1,.408-1.561c.074-.218.158-.431.241-.646-.288.747.079-.147.168-.323a13.147,13.147,0,0,1,.816-1.389c.1-.149.708-.952.257-.383.164-.207.332-.412.5-.612a17.773,17.773,0,0,1,1.339-1.378q.357-.332.728-.643c.094-.08.854-.676.375-.313q.934-.708,1.931-1.33a35.757,35.757,0,0,1,4.29-2.254c.5-.223,1.339-.56,2.19-.873q1.389-.508,2.8-.941C23.172,8.013,25.42,7.462,27.685,7A111.729,111.729,0,0,1,43.747,5.064c3.32-.184,6.645-.26,9.97-.264C56.805,4.8,56.81,0,53.717,0Z"/><path class="b" d="M.344,55.845a295.354,295.354,0,0,0,32.347,52.348c12.209,15.87,25.8,30.667,42.32,42.145a102.263,102.263,0,0,0,29.241,14.452c2.97.873,4.238-3.758,1.276-4.629-18.371-5.4-34.373-17.274-47.884-30.536-14-13.737-26.013-29.72-36.522-46.239A286.733,286.733,0,0,1,4.489,53.422a2.423,2.423,0,0,0-3.284-.861,2.453,2.453,0,0,0-.861,3.284Z"/><path class="b" d="M46.1,148.311A117.041,117.041,0,0,0,81,173.564a122.581,122.581,0,0,0,12.164,4.85c2.932.993,4.19-3.641,1.276-4.629A109.2,109.2,0,0,1,58.218,153.19c-3.039-2.615-5.939-5.387-8.721-8.273-2.147-2.229-5.539,1.168-3.394,3.394Z"/></svg>