<?xml version="1.0" encoding="utf-8"?>
<!-- Uploaded to: SVG Repo, www.svgrepo.com, Generator: SVG Repo Mixer Tools -->
<svg width="800px" height="800px" viewBox="-48.78 0 314.553 314.553" xmlns="http://www.w3.org/2000/svg"><defs><style>.a{fill:#ffffff;}.b{fill:#bdbdbd;}.c,.d{fill:none;stroke:#bdbdbd;stroke-linecap:round;stroke-linejoin:round;stroke-width:4.8px;}.d{stroke-dasharray:4.002 12.006;}.e{fill:#211916;}</style></defs><path class="a" d="M214.351,268.187a24.659,24.659,0,0,0,.191-3.063V41.183C213.354,16.245,175.984,2.4,108.5,2.4,36.755,2.4,2.433,20.74,2.433,42.419c0,39.618.2,200.945.2,224.639,2.832,21.787,35.163,45.1,105.847,45.1C179.989,312.153,211.647,289.9,214.351,268.187Z"/><path class="b" d="M109.589,29.267c-23.279,0-33.605,5.192-33.605,12.679,0,12.909,19.618,15.284,33.72,15.284,16.525,0,33.49-4.745,33.49-15.284C143.194,33.8,132.316,29.267,109.589,29.267Z"/><path class="c" d="M165.24,98.618v2"/><path class="d" d="M165.25,112.618c.035,38.735.155,139.717.182,170.094"/><path class="c" d="M165.437,288.718c0,.862,0,1.532,0,2"/><path class="e" d="M108.5,0C87,.014,65.1,1.607,44.264,7.231c-12.655,3.416-26.1,8.428-35.7,17.7A28.84,28.84,0,0,0,1.07,36.188c-1.758,5.158-1.157,11.084.411,16.2,4.6,15.022,19.015,23.9,32.843,29.314,17.9,7.011,37.5,9.684,56.575,10.825,22.141,1.325,44.436.155,66.087-4.868a147.835,147.835,0,0,0,29.334-9.879c7.646-3.581,15.126-8.1,21.052-14.183,4.978-5.111,8.672-11.416,9.456-18.593A22.564,22.564,0,0,0,213.8,31.142c-6.117-10.477-18.293-16.44-29.238-20.457C166.172,3.933,146.21,1.476,126.749.46,120.672.143,114.587,0,108.5,0c-3.089,0-3.094,4.8,0,4.8,20.914.013,42.13,1.459,62.446,6.7A108.481,108.481,0,0,1,191.931,19a64.453,64.453,0,0,1,7.964,4.633q.781.538,1.543,1.105c.5.376.683.512,1.428,1.132.958.8,1.882,1.639,2.758,2.526a33.85,33.85,0,0,1,2.321,2.614c.372.464-.306-.416.046.06l.2.274q.249.34.489.69c.311.454.609.918.89,1.393s.532.932.773,1.411q.16.318.31.641c.055.119.107.239.162.357.231.5-.2-.511,0,0a21.824,21.824,0,0,1,.933,2.908c.109.465.186.934.276,1.4.1.543-.036-.47.025.179.028.3.06.595.079.9A21.62,21.62,0,0,1,212,45.24c.051-.414-.079.488-.105.633-.062.345-.13.688-.207,1.03a24.418,24.418,0,0,1-.7,2.478,20.512,20.512,0,0,1-1.754,3.89c-3.4,6.089-9.008,10.887-14.976,14.709a106.71,106.71,0,0,1-24.987,11.325c-20.615,6.632-42.442,9.187-64.043,8.934-19.023-.224-38.285-1.967-56.7-6.943a100.517,100.517,0,0,1-23.062-8.989c-5.981-3.354-11.686-7.731-15.433-13.187A28.312,28.312,0,0,1,4.848,41.705c.018-.414.073-.823.1-1.235.015-.228-.106.571.025-.143.044-.239.085-.478.135-.716a18.306,18.306,0,0,1,.728-2.536c.079-.218.168-.433.25-.65.173-.461-.19.423-.052.12.049-.107.094-.217.144-.324.205-.435.413-.868.64-1.292a24.646,24.646,0,0,1,1.593-2.566c.151-.214.308-.424.463-.636.4-.546-.225.253.215-.275.353-.423.7-.848,1.068-1.258.775-.867,1.6-1.693,2.45-2.481q.643-.593,1.312-1.157.324-.276.654-.544c.127-.1,1-.793.575-.463,1.073-.826,2.182-1.605,3.315-2.345a79.494,79.494,0,0,1,16.948-8.187C53.048,8.7,71.987,6.234,90.613,5.255,96.571,4.942,102.536,4.8,108.5,4.8,111.591,4.8,111.6,0,108.5,0Z"/><path class="e" d="M212.142,41.126V263.4c0,1.015.018,2.033-.036,3.048q-.034.626-.1,1.25c-.009.082-.1.8-.041.385.051-.392-.053.338-.074.463q-.209,1.264-.544,2.5-.353,1.308-.835,2.576c-.069.182-.143.363-.213.544-.241.618.081-.165-.085.2-.2.442-.4.882-.616,1.316a33.251,33.251,0,0,1-3.06,4.965c-.092.125-.518.678-.2.266q-.235.3-.477.6-.522.642-1.071,1.262-1.071,1.212-2.232,2.34-1.255,1.225-2.6,2.357-.676.57-1.371,1.119l-.265.208c-.3.237.257-.2-.052.039q-.411.312-.826.617a75.816,75.816,0,0,1-14.553,8.2c-13.753,6.006-29.233,9.006-44.226,10.592a278.278,278.278,0,0,1-61.24-.2c-15.007-1.749-30.357-5.008-44.053-11.373a84.509,84.509,0,0,1-7.855-4.145q-1.787-1.071-3.51-2.243-.752-.513-1.489-1.047-.386-.281-.768-.565c-.085-.064-.825-.632-.54-.409a52.291,52.291,0,0,1-5.35-4.782q-1.176-1.212-2.258-2.511c-.169-.2-.334-.409-.5-.615-.083-.1-.163-.2-.244-.308.017.021.241.314.077.1q-.5-.651-.964-1.321a33.456,33.456,0,0,1-2.953-5.118c-.1-.211-.191-.423-.284-.635-.135-.308.167.407.04.1-.043-.106-.087-.211-.129-.318-.173-.448-.345-.9-.5-1.353q-.428-1.255-.733-2.549-.15-.633-.266-1.273c-.039-.211-.071-.424-.108-.635-.1-.567-.011.082,0-.118.016-.475,0-.954,0-1.429q0-1.839,0-3.679-.008-11.875-.021-23.751-.016-17.3-.036-34.6-.021-20.329-.043-40.658-.021-20.955-.043-41.911-.018-19.181-.035-38.362Q4.844,67.537,4.835,52.53q0-5.056,0-10.111c0-3.089-4.8-3.094-4.8,0q0,12.237.011,24.474.013,17.713.03,35.426Q.094,122.91.115,143.5L.16,185.8Q.18,204.878.2,223.958q.015,14.64.028,29.278,0,4.917.008,9.833a29.528,29.528,0,0,0,.907,8.524c2.543,8.735,8.877,15.725,16,21.1,10.329,7.787,22.882,12.5,35.315,15.685,18.4,4.708,37.594,6.2,56.539,6.178,18.8-.027,37.828-1.461,56.12-5.983,12.194-3.015,24.543-7.474,34.755-14.96,7.079-5.191,13.34-12.007,15.9-20.578,1.574-5.26,1.166-10.855,1.166-16.279V41.126c0-3.089-4.8-3.094-4.8,0Z"/><path class="e" d="M109.589,26.867c-7.209.011-14.589.375-21.607,2.15-4.141,1.048-8.72,2.709-11.635,6a11.163,11.163,0,0,0-2.042,11.341c1.857,5.21,6.664,8.229,11.633,10.046,5.71,2.088,11.949,2.782,17.987,3.087a86.5,86.5,0,0,0,21.318-1.329c5.952-1.189,12.68-3.267,16.921-7.876a11.732,11.732,0,0,0,2.313-13.077c-1.837-3.754-5.867-5.889-9.63-7.231-6.027-2.151-12.659-2.714-19.006-2.983-2.083-.088-4.167-.123-6.252-.126-3.089,0-3.094,4.8,0,4.8a90.506,90.506,0,0,1,19.434,1.653c1.2.266,2.391.577,3.563.951q.735.235,1.458.506c.267.1.534.2.8.315-.325-.138.292.136.393.183a17.826,17.826,0,0,1,2.424,1.359c.163.111.323.226.483.341.106.077-.228-.209.112.095.294.263.59.518.864.8.141.146.269.3.409.451.323.338-.023-.053.045.046.2.3.4.587.576.9.078.142.143.29.22.432.19.351-.116-.428.035.092.1.334.208.659.29,1,.038.157.059.317.088.476-.071-.387-.019-.3-.011.011a13.95,13.95,0,0,1-.006,1.446,6.225,6.225,0,0,1-.227,1.1,4.527,4.527,0,0,1-.5,1.267,11.74,11.74,0,0,1-4.421,4.33,30.611,30.611,0,0,1-7.8,3.2,70.228,70.228,0,0,1-19.633,2.2,76.678,76.678,0,0,1-16.142-1.644,32.3,32.3,0,0,1-7.014-2.335,18.8,18.8,0,0,1-2.969-1.789c-.09-.068-.07-.049-.311-.256-.19-.163-.377-.328-.559-.5-.349-.331-.88-.9-1.047-1.108a8.25,8.25,0,0,1-1.755-4.971c-.008-.371.018-.734.041-1.1.008-.14-.123.513,0,.046.044-.167.069-.34.113-.508.076-.291.176-.57.279-.852-.24.657.164-.3.3-.52a9.087,9.087,0,0,1,.529-.787c-.383.518.341-.358.5-.518.251-.252.517-.484.786-.717.154-.133.432-.326.1-.085.182-.132.366-.264.554-.39a18.419,18.419,0,0,1,5-2.367,63.067,63.067,0,0,1,17.123-2.631c1.957-.083,3.915-.117,5.874-.12C112.677,31.663,112.683,26.863,109.589,26.867Z"/></svg>