<?xml version="1.0" encoding="utf-8"?>
<!-- Uploaded to: SVG Repo, www.svgrepo.com, Generator: SVG Repo Mixer Tools -->
<svg width="800px" height="800px" viewBox="0 -39.21 318.283 318.283" xmlns="http://www.w3.org/2000/svg"><defs><style>.a{fill:#94d1e6;}.b{fill:#ffffff;}.c{fill:#211715;}</style></defs><path class="a" d="M315.508,2.153C250.552,2.363,5.2,2.3,2.622,3.457c0,18.852-.029,188.388-.029,234.549,19.078,0,248.427-2.384,314.283-2.384,0-54.459-.087-205.443-.087-233.474Z"/><path class="b" d="M246.6,56.042c-.3-.017-9.146-1.418-9.444-1.435-43.777-2.558-116.574-6.767-159.588-9.272-10.806-1.861-22.221-3.974-26.327-1.78C47.927,52.376,41.969,164,44.066,170.688c2.241,1.884,7.952,2.73,14.36,2.637"/><path class="b" d="M245.71,61.354c-43.851.041-116.769.153-159.856.2-10.9-1.217-22.418-2.65-26.386-.216-2.79,9-2.124,120.779.367,127.334,3.758,2.8,17.7,2.327,25.795-.053,26.769,0,105.126.036,159.569.049,8.116,2.338,21.894,2.782,25.626,0,2.49-6.555,3.157-118.333.367-127.334-3.751-2.3-14.247-1.147-24.588.014Z"/><path class="c" d="M245.71,59.354q-21.828.021-43.658.05l-49.876.066q-23.629.032-47.259.062l-10.449.013a91.09,91.09,0,0,1-10.229-.171c-4.647-.522-9.3-1.074-13.976-1.287-3.364-.154-7.166-.333-10.379.865A3.3,3.3,0,0,0,57.459,61.1a8.943,8.943,0,0,0-.183.919c-.181,1.084-.3,2.181-.405,3.276-.278,2.944-.422,5.9-.549,8.854-.39,9.086-.518,18.185-.6,27.279q-.15,16.575.006,33.151c.089,10.255.243,20.51.548,30.761.2,6.712.332,13.472,1.029,20.155.1.952.2,1.911.384,2.851a6.331,6.331,0,0,0,.174.732c.39,1.223,1.54,1.742,2.647,2.184a25.537,25.537,0,0,0,8.89,1.324,64.587,64.587,0,0,0,11.23-.831c1.674-.264,3.316-.63,4.958-1.042a14.669,14.669,0,0,1,2.755-.091h6.652l16.722,0,43.51.014,49.268.018,24.139.008,11.472,0c1.684,0,3.66-.282,5.293.131q2.5.63,5.038,1.016a64.1,64.1,0,0,0,11.267.759,23.782,23.782,0,0,0,9.014-1.552,3.558,3.558,0,0,0,2.275-2.794c.175-.951.28-1.917.378-2.878.688-6.744.826-13.561,1.024-20.332.3-10.276.455-20.558.542-30.838q.14-16.565,0-33.13c-.085-9.082-.215-18.169-.613-27.244-.127-2.91-.271-5.825-.553-8.725-.1-1.058-.221-2.119-.4-3.167a8.394,8.394,0,0,0-.184-.889c-.389-1.353-1.656-1.851-2.9-2.242-3.267-1.029-6.99-.846-10.361-.673-2.311.118-4.617.322-6.92.552-2.414.241-4.869.69-7.295.692-2.573,0-2.578,4,0,4,2.5,0,5.038-.469,7.528-.716,2.433-.24,4.87-.451,7.312-.558,2.969-.131,7.121-.479,9.632.986l-.919-1.2a8.22,8.22,0,0,1,.2.848c.032.167.06.335.086.5.016.1.029.2.046.3.079.486-.024-.2-.006-.047.13,1.121.245,2.243.332,3.369.263,3.38.406,6.771.528,10.159.355,9.831.469,19.672.527,29.509q.1,17.311-.111,34.624c-.121,10.027-.3,20.056-.676,30.077-.133,3.555-.287,7.111-.531,10.66-.085,1.225-.179,2.45-.307,3.671q-.039.358-.08.715c-.013.11-.029.219-.041.329-.052.464.074-.471.015-.113-.056.342-.1.685-.174,1.024a4.619,4.619,0,0,1-.175.645l.919-1.195a6.526,6.526,0,0,1-2.717,1.061,25.219,25.219,0,0,1-4.243.522,57.557,57.557,0,0,1-10.834-.5,48.184,48.184,0,0,1-5.109-.976,21.546,21.546,0,0,0-5.389-.39l-11.221,0-48.273-.017-47.144-.017q-18.822-.006-37.646-.011H87.22a15.084,15.084,0,0,0-3.743.5,54.437,54.437,0,0,1-10.442,1.407A35.992,35.992,0,0,1,63.542,188a6.439,6.439,0,0,1-2.7-1.057l.919,1.195a9.233,9.233,0,0,1-.354-1.706c.054.324.037.315-.015-.137-.029-.252-.058-.5-.085-.757q-.09-.856-.159-1.715c-.268-3.212-.423-6.434-.561-9.654-.413-9.635-.6-19.28-.74-28.922q-.247-17.293-.185-34.591c.036-10.2.135-20.4.445-30.6.113-3.711.249-7.424.483-11.13.084-1.32.179-2.64.309-3.956.051-.517.112-1.032.175-1.547-.079.651-.016.111.029-.173.03-.19.061-.381.1-.57a8.145,8.145,0,0,1,.193-.817l-.919,1.2c1.636-.956,4.263-1.03,6.345-1.051a96.211,96.211,0,0,1,10.306.595c3.494.341,7,.947,10.514.943l7.467-.009,35.073-.044q38.774-.052,77.548-.1,18.99-.024,37.98-.043C248.284,63.352,248.289,59.352,245.71,59.354Z"/><path class="c" d="M246.6,54.042c-.3-.027.608.1.243.034-.14-.026-.281-.042-.422-.063q-.789-.117-1.578-.24-1.907-.294-3.812-.591c-2.214-.342-4.371-.6-6.61-.735l-20.768-1.21q-23.915-1.392-47.828-2.778L116.548,45.6,94.222,44.3l-10.264-.6-4.751-.277a57.269,57.269,0,0,1-6.212-.9A132.359,132.359,0,0,0,59.361,40.71a29.12,29.12,0,0,0-5.123.039c-1.362.155-3.377.362-4.407,1.392a5.308,5.308,0,0,0-.966,2.625c-.206,1.012-.364,2.034-.511,3.056C47.3,55.154,46.711,62.559,46.123,69.94,45.288,80.414,44.606,90.9,44,101.388q-.952,16.344-1.633,32.7c-.352,8.635-.668,17.277-.726,25.919-.018,2.613-.028,5.232.107,7.843A23.907,23.907,0,0,0,42,170.565c.334,2,2.457,2.821,4.2,3.394,3.91,1.283,8.272,1.411,12.35,1.366,2.572-.028,2.579-4.029,0-4a46.548,46.548,0,0,1-8.088-.474c-1.587-.262-3.861-.679-4.986-1.577l.515.882c-.068-.223-.077-.46-.141-.681-.01-.036.059.57.011.039-.019-.208-.041-.416-.057-.625-.081-1.024-.114-2.053-.139-3.08-.077-3.223-.04-6.448.013-9.671.159-9.642.542-19.282.975-28.915q.777-17.279,1.865-34.54c.64-10.18,1.343-20.358,2.257-30.517.332-3.7.689-7.395,1.142-11.081q.066-.537.136-1.074c.019-.15.039-.3.059-.449-.084.639.007-.049.029-.206.083-.592.169-1.183.264-1.773.145-.9.3-1.807.523-2.692a7.819,7.819,0,0,1,.242-.8l-.919,1.195a8.9,8.9,0,0,1,2.708-.6,33.092,33.092,0,0,1,4.775.053c3.86.272,7.688.9,11.5,1.533,2.145.36,4.316.889,6.482,1.076,1.351.116,2.713.158,4.066.236l8.765.51,39.524,2.295L173.356,52.9q20.592,1.194,41.184,2.392l18.335,1.069c1.36.079,2.773.282,4.134.241.566-.017-.546-.1.129.008.383.059.766.115,1.148.174,2.14.327,4.277.665,6.417.991.63.1,1.266.212,1.9.271a2.014,2.014,0,0,0,2-2,2.043,2.043,0,0,0-2-2Z"/><path class="b" d="M264.473,57.245a7.812,7.812,0,0,0-5-3.888c-3.063-.739-6.279.105-9.235,1.2-13.955,5.147-25.489,15.925-32.824,28.864s-10.643,27.922-10.9,42.794a89.677,89.677,0,0,0,5.8,34.513A68.069,68.069,0,0,0,237.363,191.8c6.036,4.005,29.664,14.483,27.569-1.429-3.17.136-6.807-.248-7.913-.248-4.743,0-11.82-4.222-16.537-7.834-9.992-7.649-23.685-23.126-23.685-55.129,0-18.664,5.151-31.046,9.8-38.465,4.586-7.326,10.044-14.939,16.7-20.472a54.575,54.575,0,0,1,13.871-7.285,46.606,46.606,0,0,1,8.381-.864C265.548,58.662,265.068,58.354,264.473,57.245Z"/><path class="c" d="M266.2,56.235c-4.885-8.618-15.809-4.377-22.652-.944a64.153,64.153,0,0,0-18.707,14.427c-11.691,12.975-17.882,29.8-19.737,47-1.938,17.972.392,37.262,9.4,53.171,6.546,11.564,16.517,21.949,28.84,27.268,4.454,1.922,9.294,3.662,14.2,3.738,4.366.067,8.559-1.938,9.337-6.6a13.571,13.571,0,0,0,.051-3.928,2.043,2.043,0,0,0-2-2,57.377,57.377,0,0,1-8.83-.3c-2.935-.357-5.768-1.847-8.293-3.3a52,52,0,0,1-10.7-8A56,56,0,0,1,223.1,154.788c-4.419-12.576-5.35-26.688-3.514-39.842a70.24,70.24,0,0,1,4.553-17.155,73.835,73.835,0,0,1,7.6-13.333,88.321,88.321,0,0,1,6.648-8.632,43.26,43.26,0,0,1,7.086-6.764,54.268,54.268,0,0,1,7.223-4.134,23.728,23.728,0,0,1,7.279-2.455,45.88,45.88,0,0,1,5.568-.4,2.026,2.026,0,0,0,2-2,7.924,7.924,0,0,0-1.348-3.834c-1.261-2.244-4.717-.23-3.454,2.019a3.984,3.984,0,0,1,.8,1.815l2-2c-3.327.058-7.034.2-10.186,1.36a57.719,57.719,0,0,0-8.12,3.849c-5.991,3.356-10.7,8.22-14.895,13.609a92.873,92.873,0,0,0-10.176,15.634,68.126,68.126,0,0,0-5.535,16.187,91.666,91.666,0,0,0,1.346,43.158,62.021,62.021,0,0,0,14.445,25.88,60.015,60.015,0,0,0,9.472,8.026,46.213,46.213,0,0,0,9.3,5.068,26.035,26.035,0,0,0,8.244,1.409c1.828.11,3.658.182,5.49.117l-2-2a15.458,15.458,0,0,1,.131,1.824c0,.235-.009.469-.019.7a1.962,1.962,0,0,1-.054.541,6.462,6.462,0,0,1-.363,1.3c.136-.332-.082.141-.141.239s-.372.56-.265.425a3.139,3.139,0,0,1-1.425,1.026c-.208.1.063-.028.088-.037-.105.04-.216.084-.325.115-.2.057-.392.12-.593.169-.176.044-.354.078-.531.114-.446.089.06.015-.4.054-4.114.354-8.242-1-12.194-2.536-10.76-4.195-19.889-12.574-26.335-22.283-9.328-14.05-12.527-31.145-11.937-47.8.577-16.269,5-32.663,14.542-46.016A63.478,63.478,0,0,1,238.429,62.99a58.278,58.278,0,0,1,9.41-5.322c3.4-1.519,7.688-3.39,11.453-2.289a5.92,5.92,0,0,1,3.454,2.875C264.016,60.493,267.473,58.48,266.2,56.235Z"/><path class="b" d="M68.962,57.245a7.812,7.812,0,0,1,5-3.888c3.063-.739,6.279.105,9.235,1.2,13.955,5.147,25.489,15.925,32.824,28.864s10.643,27.922,10.9,42.794a89.677,89.677,0,0,1-5.8,34.513A68.069,68.069,0,0,1,96.072,191.8c-6.036,4.005-29.664,14.483-27.569-1.429,3.17.136,6.807-.248,7.913-.248,4.743,0,11.82-4.222,16.537-7.834,9.992-7.649,23.685-23.126,23.685-55.129,0-18.664-5.151-31.046-9.8-38.465-4.586-7.326-10.044-14.939-16.7-20.472a54.575,54.575,0,0,0-13.871-7.285,46.616,46.616,0,0,0-8.381-.864C67.887,58.662,68.367,58.354,68.962,57.245Z"/><path class="c" d="M70.689,58.254C72.712,54.685,76.751,54.7,80.3,55.7a46.517,46.517,0,0,1,10.128,4.41,62.18,62.18,0,0,1,16.622,13.9c10.434,12.265,15.914,28.142,17.418,44.03,1.573,16.615-.448,34.328-8.592,49.123-5.991,10.885-15.144,20.764-26.558,25.988a40.55,40.55,0,0,1-12.057,3.668,16.633,16.633,0,0,1-2.858.022c-.451-.036.02.023-.309-.038-.179-.033-.358-.067-.536-.108-.2-.048-.4-.106-.6-.164-.111-.033-.219-.073-.327-.112-.286-.1.279.133.007.007-.176-.081-.346-.173-.516-.267-.093-.051-.5-.329-.339-.206.127.094-.768-.822-.515-.481a3.632,3.632,0,0,1-.824-2.037,7.99,7.99,0,0,1-.072-1.125,15.233,15.233,0,0,1,.13-1.944l-2,2a57.868,57.868,0,0,0,9.36-.363,26.5,26.5,0,0,0,9.255-3.476A59.314,59.314,0,0,0,99,179.75,60.38,60.38,0,0,0,114.135,156c4.734-13.369,5.546-28.356,3.54-42.321a71.379,71.379,0,0,0-4.752-17.5,79.371,79.371,0,0,0-8.4-14.644c-4.1-5.867-8.805-12.008-14.776-16.089A56.885,56.885,0,0,0,81.975,61.1c-1.277-.6-2.576-1.18-3.9-1.67a19.9,19.9,0,0,0-4.347-.921,50.918,50.918,0,0,0-5.839-.439l2,2a3.984,3.984,0,0,1,.8-1.815c1.262-2.247-2.192-4.266-3.454-2.019a7.924,7.924,0,0,0-1.348,3.834,2.028,2.028,0,0,0,2,2,27.876,27.876,0,0,1,9.378,1.313,53.407,53.407,0,0,1,7.361,3.606c5.564,3.175,9.94,7.891,13.858,13.02a89.232,89.232,0,0,1,9.445,14.773,64.333,64.333,0,0,1,5.051,15.174,88.527,88.527,0,0,1,1.575,21.462,82.853,82.853,0,0,1-2.912,19.221,57.842,57.842,0,0,1-13.386,24.2q-1.83,1.932-3.839,3.683-.915.8-1.863,1.557c-.342.273-.705.554-.754.591q-.969.733-1.964,1.431a43.615,43.615,0,0,1-8.49,4.818,16.208,16.208,0,0,1-4.014,1.155c-1.156.141-2.363.121-3.526.19-1.767.105-3.534.169-5.3.106a2.054,2.054,0,0,0-2,2c-.572,4.634,1.237,9.17,6.165,10.225,4.589.983,9.571-.435,13.867-2a50.978,50.978,0,0,0,11.87-5.969A69.859,69.859,0,0,0,115.7,175.053c10.359-15.023,13.92-33.715,13.133-51.715-.762-17.419-5.742-35.047-16.443-49.028A67.786,67.786,0,0,0,94.93,58.147a59.511,59.511,0,0,0-10.656-5.319c-4.109-1.566-8.886-2.689-13.014-.565a9.974,9.974,0,0,0-4.025,3.972C65.963,58.478,69.418,60.5,70.689,58.254Z"/><path class="c" d="M18.522,227.485c5.861-5.723,11.891-11.379,18.2-16.6a2.014,2.014,0,0,0,0-2.828,2.045,2.045,0,0,0-2.829,0c-6.313,5.222-12.342,10.878-18.2,16.6-1.845,1.8.985,4.629,2.828,2.828Z"/><path class="c" d="M44.911,227.485c5.861-5.723,11.89-11.379,18.2-16.6a2.014,2.014,0,0,0,0-2.828,2.044,2.044,0,0,0-2.828,0c-6.313,5.222-12.343,10.878-18.2,16.6-1.845,1.8.984,4.629,2.828,2.828Z"/><path class="c" d="M71.3,227.485c5.86-5.723,11.89-11.379,18.2-16.6a2.014,2.014,0,0,0,0-2.828,2.045,2.045,0,0,0-2.829,0c-6.313,5.222-12.342,10.878-18.2,16.6-1.845,1.8.985,4.629,2.829,2.828Z"/><path class="c" d="M97.688,227.485c5.861-5.723,11.89-11.379,18.2-16.6a2.013,2.013,0,0,0,0-2.828,2.044,2.044,0,0,0-2.828,0c-6.313,5.222-12.343,10.878-18.2,16.6-1.845,1.8.984,4.629,2.828,2.828Z"/><path class="c" d="M124.37,227.485c5.861-5.723,11.89-11.379,18.2-16.6a2.014,2.014,0,0,0,0-2.828,2.044,2.044,0,0,0-2.828,0c-6.313,5.222-12.343,10.878-18.2,16.6-1.845,1.8.984,4.629,2.828,2.828Z"/><path class="c" d="M150.759,227.485c5.86-5.723,11.89-11.379,18.2-16.6a2.014,2.014,0,0,0,0-2.828,2.045,2.045,0,0,0-2.829,0c-6.313,5.222-12.342,10.878-18.2,16.6-1.845,1.8.985,4.629,2.829,2.828Z"/><path class="c" d="M177.147,227.485c5.861-5.723,11.89-11.379,18.2-16.6a2.014,2.014,0,0,0,0-2.828,2.044,2.044,0,0,0-2.828,0c-6.313,5.222-12.343,10.878-18.2,16.6-1.845,1.8.984,4.629,2.828,2.828Z"/><path class="c" d="M203.536,227.485c5.86-5.723,11.89-11.379,18.2-16.6a2.014,2.014,0,0,0,0-2.828,2.044,2.044,0,0,0-2.828,0c-6.313,5.222-12.343,10.878-18.2,16.6-1.844,1.8.985,4.629,2.829,2.828Z"/><path class="c" d="M230.137,227.485c5.86-5.723,11.89-11.379,18.2-16.6a2.014,2.014,0,0,0,0-2.828,2.045,2.045,0,0,0-2.829,0c-6.313,5.222-12.342,10.878-18.2,16.6-1.845,1.8.985,4.629,2.829,2.828Z"/><path class="c" d="M256.525,227.485c5.861-5.723,11.891-11.379,18.2-16.6a2.013,2.013,0,0,0,0-2.828,2.044,2.044,0,0,0-2.828,0c-6.313,5.222-12.343,10.878-18.2,16.6-1.845,1.8.985,4.629,2.828,2.828Z"/><path class="c" d="M282.914,227.485c5.86-5.723,11.89-11.379,18.2-16.6a2.014,2.014,0,0,0,0-2.828,2.044,2.044,0,0,0-2.828,0c-6.313,5.222-12.343,10.878-18.2,16.6-1.844,1.8.985,4.629,2.829,2.828Z"/><path class="c" d="M244.6,74.062v4.006a2.064,2.064,0,0,0,.586,1.414,2,2,0,0,0,2.828,0,2.082,2.082,0,0,0,.586-1.414V74.062a2.062,2.062,0,0,0-.586-1.414,2,2,0,0,0-2.828,0,2.078,2.078,0,0,0-.586,1.414Z"/><path class="c" d="M244.6,88.052v4.006a2.064,2.064,0,0,0,.586,1.414,2,2,0,0,0,2.828,0,2.078,2.078,0,0,0,.586-1.414V88.052a2.064,2.064,0,0,0-.586-1.414,2,2,0,0,0-2.828,0,2.082,2.082,0,0,0-.586,1.414Z"/><path class="c" d="M244.6,102.043v4a2.062,2.062,0,0,0,.586,1.414,2,2,0,0,0,2.828,0,2.078,2.078,0,0,0,.586-1.414v-4a2.064,2.064,0,0,0-.586-1.415,2,2,0,0,0-2.828,0,2.083,2.083,0,0,0-.586,1.415Z"/><path class="c" d="M244.6,116.033v4a2.062,2.062,0,0,0,.586,1.414,2,2,0,0,0,2.828,0,2.078,2.078,0,0,0,.586-1.414v-4a2.064,2.064,0,0,0-.586-1.415,2,2,0,0,0-2.828,0,2.083,2.083,0,0,0-.586,1.415Z"/><path class="c" d="M244.6,130.023v4a2.06,2.06,0,0,0,.586,1.414,2,2,0,0,0,2.828,0,2.078,2.078,0,0,0,.586-1.414v-4a2.06,2.06,0,0,0-.586-1.414,2,2,0,0,0-2.828,0,2.078,2.078,0,0,0-.586,1.414Z"/><path class="c" d="M244.6,144.013v4a2.06,2.06,0,0,0,.586,1.414,2,2,0,0,0,2.828,0,2.078,2.078,0,0,0,.586-1.414v-4a2.06,2.06,0,0,0-.586-1.414,2,2,0,0,0-2.828,0,2.078,2.078,0,0,0-.586,1.414Z"/><path class="c" d="M244.6,158v4.005a2.064,2.064,0,0,0,.586,1.415,2,2,0,0,0,2.828,0,2.083,2.083,0,0,0,.586-1.415V158a2.062,2.062,0,0,0-.586-1.414,2,2,0,0,0-2.828,0A2.078,2.078,0,0,0,244.6,158Z"/><path class="c" d="M244.6,171.993v4a2.064,2.064,0,0,0,.586,1.415,2,2,0,0,0,2.828,0A2.083,2.083,0,0,0,248.6,176v-4a2.062,2.062,0,0,0-.586-1.414,2,2,0,0,0-2.828,0,2.078,2.078,0,0,0-.586,1.414Z"/><path class="c" d="M79.529,74.062v4.006a2.064,2.064,0,0,0,.586,1.414,2,2,0,0,0,2.828,0,2.082,2.082,0,0,0,.586-1.414V74.062a2.062,2.062,0,0,0-.586-1.414,2,2,0,0,0-2.828,0,2.074,2.074,0,0,0-.586,1.414Z"/><path class="c" d="M79.529,88.052v4.006a2.064,2.064,0,0,0,.586,1.414,2,2,0,0,0,2.828,0,2.078,2.078,0,0,0,.586-1.414V88.052a2.064,2.064,0,0,0-.586-1.414,2,2,0,0,0-2.828,0,2.077,2.077,0,0,0-.586,1.414Z"/><path class="c" d="M79.529,102.043v4a2.062,2.062,0,0,0,.586,1.414,2,2,0,0,0,2.828,0,2.078,2.078,0,0,0,.586-1.414v-4a2.064,2.064,0,0,0-.586-1.415,2,2,0,0,0-2.828,0,2.078,2.078,0,0,0-.586,1.415Z"/><path class="c" d="M79.529,116.033v4a2.062,2.062,0,0,0,.586,1.414,2,2,0,0,0,2.828,0,2.078,2.078,0,0,0,.586-1.414v-4a2.064,2.064,0,0,0-.586-1.415,2,2,0,0,0-2.828,0,2.078,2.078,0,0,0-.586,1.415Z"/><path class="c" d="M79.529,130.023v4a2.06,2.06,0,0,0,.586,1.414,2,2,0,0,0,2.828,0,2.078,2.078,0,0,0,.586-1.414v-4a2.06,2.06,0,0,0-.586-1.414,2,2,0,0,0-2.828,0,2.074,2.074,0,0,0-.586,1.414Z"/><path class="c" d="M79.529,144.013v4a2.06,2.06,0,0,0,.586,1.414,2,2,0,0,0,2.828,0,2.078,2.078,0,0,0,.586-1.414v-4a2.06,2.06,0,0,0-.586-1.414,2,2,0,0,0-2.828,0,2.074,2.074,0,0,0-.586,1.414Z"/><path class="c" d="M79.529,158v4.005a2.064,2.064,0,0,0,.586,1.415,2,2,0,0,0,2.828,0,2.083,2.083,0,0,0,.586-1.415V158a2.062,2.062,0,0,0-.586-1.414,2,2,0,0,0-2.828,0A2.074,2.074,0,0,0,79.529,158Z"/><path class="c" d="M79.529,171.993v4a2.064,2.064,0,0,0,.586,1.415,2,2,0,0,0,2.828,0A2.083,2.083,0,0,0,83.529,176v-4a2.062,2.062,0,0,0-.586-1.414,2,2,0,0,0-2.828,0,2.074,2.074,0,0,0-.586,1.414Z"/><path class="c" d="M314.916.005Q303.011.042,291.107.06q-15.887.028-31.772.048L221.967.157q-20.3.027-40.6.059-20.729.033-41.457.076Q119.94.336,99.965.4,81.928.451,63.89.531,48.973.6,34.057.711C26.983.767,19.908.828,12.834.942,9.433,1,5.981.931,2.589,1.231a3.769,3.769,0,0,0-1.091.15A2.089,2.089,0,0,0,.03,3.309l0,26.2q0,24.2-.007,48.394L.011,136.475q0,28.073-.007,56.146,0,20.847,0,41.692v3.545a2.029,2.029,0,0,0,2,2c3.756,0,7.512-.036,11.267-.064q10.611-.079,21.222-.174,14.466-.125,28.933-.256l34.831-.313q19.258-.172,38.517-.343,20.056-.177,40.112-.346,19.716-.166,39.432-.322,18.521-.145,37.04-.273,16.183-.111,32.366-.2,12.8-.066,25.6-.093,2.481,0,4.962,0a2.03,2.03,0,0,0,2-2q0-20.692-.008-41.383-.009-26.742-.021-53.483-.012-27.977-.025-55.952-.012-24.413-.022-48.824Q318.2,20.045,318.2,4.255V2a2.028,2.028,0,0,0-2-2l-1.28.005c-2.574.009-2.579,4.009,0,4l1.28,0-2-2q0,14.456.009,28.911.009,23.543.021,47.087.012,27.787.025,55.576.012,27.25.021,54.5.007,21.633.011,43.266v4.133l2-2q-11.82,0-23.64.063-15.457.069-30.915.174-17.96.117-35.919.256-19.588.148-39.176.313-20.091.166-40.183.343-19.549.171-39.1.347-17.881.159-35.762.321-15.339.138-30.678.273-11.662.1-23.325.2c-4.626.036-9.252.075-13.878.093l-1.71,0,2,2Q4,218.326,4,198.8q0-27.511.007-55.023l.009-58.959q0-25.144.007-50.287,0-14.8,0-29.6,0-.81,0-1.62L2.561,5.238c.364-.151-.695.028.118-.014.488-.024.976-.057,1.465-.077C5.915,5.074,7.688,5.037,9.46,5c6.277-.126,12.555-.186,18.833-.243q14.025-.126,28.051-.19,17.339-.091,34.677-.146,19.624-.066,39.249-.109,20.658-.048,41.315-.082Q192,4.2,212.422,4.17q19.179-.027,38.359-.051,16.666-.021,33.332-.047,12.923-.021,25.844-.053l4.959-.014C317.489,4,317.494,0,314.916.005Z"/><path class="c" d="M2.224,16.987H316.2c2.574,0,2.578-4,0-4H2.224c-2.574,0-2.578,4,0,4Z"/><path class="b" d="M287.521,27.843A92.232,92.232,0,0,1,264.73,36.81c-2.5.617-1.439,4.476,1.064,3.857A96.386,96.386,0,0,0,289.54,31.3c2.249-1.253.234-4.71-2.019-3.454Z"/><path class="b" d="M298.4,39.072a251.523,251.523,0,0,0-3.66,33.276c-.109,2.574,3.891,2.569,4,0a243.424,243.424,0,0,1,3.517-32.213,2.056,2.056,0,0,0-1.4-2.46,2.016,2.016,0,0,0-2.46,1.4Z"/></svg>