<?xml version="1.0" encoding="utf-8"?>
<!-- Uploaded to: SVG Repo, www.svgrepo.com, Generator: SVG Repo Mixer Tools -->
<svg width="800px" height="800px" viewBox="0 -2.34 359.814 359.814" xmlns="http://www.w3.org/2000/svg"><defs><style>.a{fill:#ffffff;}.b{fill:#957f6e;}.c{fill:#211715;}.d{fill:#79c6e0;}.e{fill:#7a7473;}.f{fill:#d9d9d9;}</style></defs><path class="a" d="M222.314,173.356a211.352,211.352,0,0,0-3.422,39.177c.08,8.309,1.859,18.45,3.433,26.46,0,0,1.066,3.9,2.291,8.384-46.861.028-101.048.064-137.559.106V211.675c.574-8.184,1.753-31.923.514-38.4-14.273,1.392-32.71,1.516-47.163,1.25-11.066-.2-19.347-8.206-20.482-14.837-.7-4.091-.062-9.292.949-13.323,1.23-4.9,8.62-15.561,12.008-19.427C36.992,122.254,65.97,90.662,71.355,85.4c7.338,5.286,17.261,13.531,24.6,18.817-1.817,3.78-17.231,22.527-24.043,32.114l10.64-2.958c5.148-1.43,15.963-3.423,18.843-3.195,1.856.147,14.86.722,17.556.406l1.688-.2c3.367-2.792,6.868-5.366,10.325-7.693a34.713,34.713,0,0,0,4.511,3.111c0,7.8.089,15.742.264,23.762A71.943,71.943,0,0,0,154,151.752c15.57,0,24.29-4.22,24.29-4.22l3.872-1.874,0-.028c-.81-3.96-1.8-7.54-2.66-11.48a63.387,63.387,0,0,1-1.3-7.96,31.7,31.7,0,0,0,5.81-4.12,100.815,100.815,0,0,1,8.366,7.369c4.474.351,14.534.861,16.134.731,2.88-.22,22.32,3.14,27.46,4.57l2.092.583c-6.321-9-22.231-27.2-24.113-31.11,7.338-5.286,17.262-13.531,24.6-18.817,5.385,5.266,34.363,36.858,38.472,41.547,3.387,3.866,10.778,14.527,12.008,19.427,1.011,4.031,1.649,9.232.949,13.323-1.135,6.631-9.416,14.633-20.483,14.837-14.262.263-32.4.146-46.6-1.185"/><path class="b" d="M116.948,102.09a43.747,43.747,0,0,0,8.083,14.752,44.676,44.676,0,0,0,5.933,5.847c-3.457,2.327-6.958,4.9-10.326,7.693l-1.687.2c-2.7.316-15.7-.259-17.556-.406l-.067,0-.056-.751c-.009-.122.019-.6.166-.646,3.664-1.271,4.638-5.075,4.427-8.927-.219-3.868-1.23-7.82-1.326-11.689a36.024,36.024,0,0,1,.206-4.876,21.721,21.721,0,0,1,2.456-7.907,13.881,13.881,0,0,0,2.361,2.425,11.06,11.06,0,0,0,5.158,2.276l1.678.245Q116.653,101.192,116.948,102.09Z"/><path class="a" d="M207.217,274.673a6.531,6.531,0,0,0-2.769-5.155,14.367,14.367,0,0,0-5.469-2.181c-5.345-1.212-10.808-1.18-16.335-1.18s-10.991-.032-16.335,1.18a14.36,14.36,0,0,0-5.469,2.181,6.332,6.332,0,0,0-2.5,5.155h0c0,3.2,0,6.629,0,9.356.609,2.982,4.04,4.653,7.078,5.454,5.6,1.477,11.519,1.645,17.223,1.645,5.814,0,11.626-.168,17.225-1.645,3.205-.845,6.848-2.658,7.157-5.959l.192-2.046v-6.805Z"/><path class="c" d="M2.318,251.783c7.874,0,15.748-.074,23.623-.075,3.088,0,3.093-4.8,0-4.8-7.875,0-15.749.073-23.623.075-3.088,0-3.093,4.8,0,4.8Z"/><path class="a" d="M124.465,316.373c-27.931.007-84.022-.277-112.652-.271.01-9.644.514-47.823.514-55.955,4.93-5.84,16.086-18.471,18.747-21.435h9.8c0,1.794-.028,4.522-.061,8.23h.061l78.049,0c1.025-3,2.086-5.96,3.289-9h11.281c0,2.275.717,37.49.746,42.844-1.652,7.468-5.276,22.465-9.333,35.581Z"/><path class="d" d="M81.574,276.925c0,3.873,0,7.42,0,10.409,0,6.752,4.27,9.978,8.653,9.978,5.435,0,9.03-2.416,9.03-7.929,0-.714-.048-5.409-.128-12.129"/><path class="c" d="M121.329,263.024q.006,6.618,0,13.236a2.4,2.4,0,1,0,4.8,0q0-6.618,0-13.236a2.4,2.4,0,0,0-4.8,0Z"/><path class="c" d="M20.387,260.483c-.017,2.97.012,5.94.033,8.91a2.437,2.437,0,0,0,2.4,2.4c24.026,0,48.05.172,72.075.245q9.833.03,19.665.031a2.434,2.434,0,0,0,2.4-2.4q-.021-4-.026-8a11.029,11.029,0,0,1,.829-3.621q.693-2.088,1.378-4.178c1.689-5.132,3.4-10.255,5.384-15.283l-2.314,1.762h11.281l-2.4-2.4c.011,7.952.281,15.91.429,23.86q.135,7.229.257,14.457c.022,1.39-.035,2.805.057,4.193.013.191-.077.512.035-.063-.058.3-.131.589-.2.883q-.236,1.043-.475,2.085-.562,2.436-1.149,4.867c-2.228,9.234-4.658,18.427-7.459,27.5l2.315-1.762q-21.208.007-42.416-.089-24.093-.077-48.185-.15-11.246-.027-22.491-.032l2.4,2.4c.019-15.584.3-31.169.45-46.752.029-3.067.063-6.135.064-9.2l-.7,1.7c6.124-7.248,12.411-14.371,18.747-21.435,2.057-2.294-1.326-5.7-3.394-3.395-3.95,4.4-7.847,8.856-11.738,13.312-2.146,2.458-4.288,4.92-6.4,7.407a4.113,4.113,0,0,0-1.311,2.522c-.017.348,0,.7,0,1.05q0,1.334-.015,2.668c-.086,12.018-.245,24.035-.368,36.053-.055,5.358-.121,10.717-.128,16.076a2.435,2.435,0,0,0,2.4,2.4q21.567,0,43.133.092,23.993.076,47.985.149,10.987.026,21.974.03a2.458,2.458,0,0,0,2.314-1.762c2.544-8.246,4.776-16.589,6.839-24.968q1.182-4.8,2.273-9.619a19.362,19.362,0,0,0,.27-4.669c-.147-9.881-.353-19.762-.536-29.643-.063-3.387-.168-6.776-.173-10.164a2.435,2.435,0,0,0-2.4-2.4H122.211a2.486,2.486,0,0,0-2.314,1.762c-2.038,5.169-3.791,10.439-5.527,15.715-.869,2.642-2.239,5.458-2.236,8.253s.012,5.594.026,8.391l2.4-2.4c-23.988.007-47.975-.164-71.963-.24q-9.888-.032-19.777-.036l2.4,2.4c-.021-2.97-.05-5.94-.033-8.91.018-3.089-4.782-3.093-4.8,0Z"/><path class="c" d="M99.3,249.539q8.9.036,17.807.061c3.089.008,3.094-4.792,0-4.8q-8.9-.023-17.807-.061c-3.089-.013-3.093,4.787,0,4.8Z"/><path class="c" d="M68.247,249.405q6.413.025,12.824.054a2.4,2.4,0,0,0,0-4.8q-6.411-.029-12.824-.054a2.4,2.4,0,1,0,0,4.8Z"/><path class="d" d="M50.736,276.925c0,3.873,0,7.42,0,10.409,0,6.752,4.27,9.978,8.654,9.978,5.434,0,9.029-2.416,9.029-7.929,0-.714-.047-5.409-.128-12.129"/><path class="c" d="M79.174,276.925q0,3.82,0,7.642a26.493,26.493,0,0,0,.491,6.765,11.113,11.113,0,0,0,7.133,7.837,13.1,13.1,0,0,0,10.581-1.236c3.045-1.97,4.282-5.277,4.277-8.8-.006-3.96-.08-7.922-.127-11.882-.037-3.086-4.837-3.094-4.8,0q.063,5.319.117,10.636a23.884,23.884,0,0,1-.042,2.608c.028-.278-.089.486-.124.629s-.08.314-.127.468c.015-.046-.242.679-.117.372s-.181.36-.164.329c-.07.129-.143.257-.221.381s-.157.245-.243.361c.287-.389-.14.135-.175.172-.1.108-.673.6-.319.331a6.366,6.366,0,0,1-.831.527c-.131.071-.265.137-.4.2-.382.182.523-.173-.169.065a11.257,11.257,0,0,1-1.153.335,6.857,6.857,0,0,1-1.691.222c-.39.019-.781.028-1.171.013-.182-.006-.364-.021-.546-.036.353.029.083.017-.118-.024a9.541,9.541,0,0,1-.953-.237c-.147-.046-.85-.341-.448-.152a8.252,8.252,0,0,1-.872-.474c-.158-.1-.313-.2-.463-.31.272.2-.02-.019-.13-.12a6.277,6.277,0,0,1-1.962-3.093,20.163,20.163,0,0,1-.433-5.892q0-3.821,0-7.642c0-3.089-4.8-3.094-4.8,0Z"/><path class="c" d="M48.336,276.925q0,3.82,0,7.642a26.538,26.538,0,0,0,.491,6.765,11.113,11.113,0,0,0,7.134,7.837,13.1,13.1,0,0,0,10.581-1.236c3.045-1.97,4.281-5.277,4.276-8.8-.005-3.96-.079-7.922-.127-11.882-.036-3.086-4.837-3.094-4.8,0q.065,5.319.117,10.636a23.884,23.884,0,0,1-.041,2.608c.028-.278-.09.486-.124.629s-.08.314-.127.468c.014-.046-.242.679-.118.372s-.18.36-.164.329c-.069.129-.143.257-.221.381s-.157.245-.242.361c.287-.389-.14.135-.175.172-.105.108-.673.6-.32.331a6.356,6.356,0,0,1-.83.527c-.132.071-.265.137-.4.2-.383.182.522-.173-.169.065a11.275,11.275,0,0,1-1.154.335,6.85,6.85,0,0,1-1.691.222c-.389.019-.781.028-1.17.013-.183-.006-.364-.021-.546-.036.352.029.082.017-.118-.024a9.407,9.407,0,0,1-.953-.237c-.147-.046-.85-.341-.448-.152a8.367,8.367,0,0,1-.873-.474c-.158-.1-.313-.2-.463-.31.272.2-.02-.019-.129-.12a6.27,6.27,0,0,1-1.962-3.093,20.129,20.129,0,0,1-.434-5.892q0-3.821,0-7.642c0-3.089-4.8-3.094-4.8,0Z"/><path class="c" d="M182.644,263.757a97.348,97.348,0,0,0-13.291.614c-3.907.536-8.552,1.355-11.309,4.459a7.511,7.511,0,0,0-.3,10.142c2.353,2.714,6.164,3.783,9.554,4.448a72.694,72.694,0,0,0,13.255,1.146,101.13,101.13,0,0,0,13.414-.523c3.787-.467,7.913-1.074,11.219-3.127,3.122-1.938,5.165-5.446,3.838-9.136-1.677-4.662-6.616-6.289-11.062-7.093a85.668,85.668,0,0,0-15.318-.93c-3.089,0-3.094,4.8,0,4.8a106.985,106.985,0,0,1,11.59.4c2.877.313,6.813.728,9.091,2.731,1.79,1.574,1.606,3.584-.279,4.9-2.411,1.685-5.685,2.173-8.527,2.579a79.5,79.5,0,0,1-10.907.605c-3.6.014-7.207-.024-10.792-.369-2.528-.244-14.924-1.629-11.676-6.767,1.747-2.763,6.394-3.241,9.309-3.611a96.519,96.519,0,0,1,12.191-.47C185.732,268.557,185.737,263.757,182.644,263.757Z"/><path class="c" d="M155.944,274.673q0,4.176,0,8.353a7.374,7.374,0,0,0,3.03,6.034c4.039,3.171,9.843,3.776,14.784,4.181a111.394,111.394,0,0,0,17.339.037c4.922-.371,10.818-.921,14.913-3.98a8.146,8.146,0,0,0,3.43-5.92,80.735,80.735,0,0,0,.178-8.7c0-3.089-4.8-3.094-4.8,0,0,2.4.134,4.851-.041,7.246-.1,1.316-.154,2.263-1.178,3.188a10.47,10.47,0,0,1-4.368,2.062,42.43,42.43,0,0,1-7.175,1.23,116.593,116.593,0,0,1-15.012.237c-4.361-.173-9.331-.419-13.356-2.282a7.03,7.03,0,0,1-2.293-1.538,2.455,2.455,0,0,1-.651-2q0-4.072,0-8.147c0-3.089-4.8-3.094-4.8,0Z"/><path class="c" d="M24.809,310.6c3.089,0,3.094-4.8,0-4.8s-3.093,4.8,0,4.8Z"/><path class="c" d="M11.813,310.6c3.089,0,3.094-4.8,0-4.8s-3.094,4.8,0,4.8Z"/><path class="c" d="M31.074,241.112h9.8l-2.4-2.4c0,2.743-.037,5.487-.061,8.23a2.433,2.433,0,0,0,2.4,2.4q4.887,0,9.774.01c3.088.006,3.093-4.794,0-4.8q-4.887-.009-9.774-.01l2.4,2.4c.024-2.743.059-5.487.061-8.23a2.434,2.434,0,0,0-2.4-2.4h-9.8c-3.089,0-3.094,4.8,0,4.8Z"/><path class="c" d="M20.476,276.763c.076,10.474.251,20.972-.112,31.443a2.43,2.43,0,0,0,2.4,2.4c24.112-.006,48.223.16,72.335.234q9.8.03,19.6.034a2.434,2.434,0,0,0,2.4-2.4c0-10.516-.063-21.033-.11-31.55a2.436,2.436,0,0,0-2.4-2.4c-23.94.008-47.879-.163-71.819-.24q-9.945-.032-19.889-.036a2.432,2.432,0,0,0-2.4,2.4v.115c.023,3.087,4.823,3.094,4.8,0v-.115l-2.4,2.4c23.982,0,47.964.173,71.946.246q9.881.03,19.762.03l-2.4-2.4c.047,10.517.109,21.034.11,31.55l2.4-2.4c-24.107,0-48.214-.167-72.321-.238q-9.8-.029-19.609-.03l2.4,2.4c.363-10.471.188-20.969.112-31.443C25.254,273.676,20.454,273.669,20.476,276.763Z"/><path class="c" d="M150.215,251.3q15.412-.033,30.824-.056,17.883-.029,35.765-.05,18.3-.022,36.6-.041,16.663-.018,33.325-.032l25.946-.02h2.508c3.089,0,3.094-4.8,0-4.8q-12.371.007-24.741.018-16.315.014-32.631.03-18.207.02-36.414.041-18.045.021-36.092.048-15.831.024-31.662.055l-3.425.008c-3.089.006-3.094,4.806,0,4.8Z"/><path class="c" d="M134.582,251.341q7.817-.024,15.633-.039a2.4,2.4,0,1,0,0-4.8q-7.817.017-15.633.039a2.4,2.4,0,0,0,0,4.8Z"/><path class="a" d="M68.247,223.142v34.887c-1.061,1.709-3.307,2.3-5.331,2.571a19.558,19.558,0,0,1-6.31-.019,9.515,9.515,0,0,1-5.7-3.231C50.9,243.2,50.9,229.116,50.9,223.226"/><path class="a" d="M99.085,223.142v34.887c-1.061,1.709-3.307,2.3-5.33,2.571a19.565,19.565,0,0,1-6.311-.019,9.515,9.515,0,0,1-5.7-3.231c-.006-14.147-.013-28.234-.013-34.124"/><path class="c" d="M65.847,223.142v34.887l.327-1.211c-1.168,1.7-4.872,1.631-6.647,1.628-2.652,0-5.176-.7-6.92-2.793l.7,1.7q-.008-17.063-.013-34.124c0-3.089-4.8-3.094-4.8,0q0,8.511.005,17.023,0,5.814,0,11.629l0,2.978a12.413,12.413,0,0,0,.087,3.132c.463,1.684,2.7,3.112,4.176,3.815,3.4,1.618,7.124,1.632,10.782,1.111a11.748,11.748,0,0,0,4.4-1.385,7,7,0,0,0,1.791-1.513,3.989,3.989,0,0,0,.9-2.884v-33.99c0-3.088-4.8-3.093-4.8,0Z"/><path class="c" d="M96.685,223.142v34.887l.328-1.211c-1.169,1.7-4.872,1.631-6.648,1.628-2.652,0-5.175-.7-6.92-2.793l.7,1.7q-.007-17.063-.013-34.124c0-3.089-4.8-3.094-4.8,0q0,8.511.006,17.023,0,5.814.005,11.629v2.978a12.507,12.507,0,0,0,.087,3.132c.464,1.684,2.7,3.112,4.176,3.815,3.4,1.618,7.124,1.632,10.783,1.111a11.743,11.743,0,0,0,4.4-1.385,7,7,0,0,0,1.791-1.513,3.984,3.984,0,0,0,.9-2.884v-33.99c0-3.088-4.8-3.093-4.8,0Z"/><path class="a" d="M59.241,219.034c-4.778,0-8.344,1.248-8.344,4.192,0,3.041,2.891,3.954,8.394,3.954,5.968,0,8.956-.856,8.956-4.038C68.247,220.2,64.022,219.034,59.241,219.034Z"/><path class="a" d="M90.08,219.034c-4.779,0-8.345,1.248-8.345,4.192,0,3.041,2.891,3.954,8.395,3.954,5.968,0,8.955-.856,8.955-4.038C99.085,220.2,94.861,219.034,90.08,219.034Z"/><path class="c" d="M59.241,216.634c-3.54.019-8.5.547-10.2,4.221a5.847,5.847,0,0,0,.2,5.281,6.5,6.5,0,0,0,3.906,2.79,21.038,21.038,0,0,0,5.853.653,29.514,29.514,0,0,0,6.176-.477,7.5,7.5,0,0,0,4.031-2.056,5.735,5.735,0,0,0,1.34-4.893c-.883-4.849-7.383-5.5-11.3-5.519a2.4,2.4,0,1,0,0,4.8,15.966,15.966,0,0,1,4.574.507c.333.091.659.2.982.318-.415-.156.244.124.377.2s.275.168.411.256c.291.189-.349-.391.016.024.073.083.164.174.243.25-.253-.245-.185-.166.009.063.07.084.328.352-.049-.117-.007-.009.076.324.082.325-.166-.048.01-.532-.04-.037a1.633,1.633,0,0,0-.016.312c.029.287.185-.553.01-.13a1.391,1.391,0,0,0-.072.27c-.05.445.053-.26.095-.2.021.032-.18.314-.193.345-.174.392.117-.228.136-.172.011.033-.2.21-.236.24-.17.152-.361.168.1-.073-.087.045-.158.113-.247.156-.238.112-.611.265-.135.1-.307.109-.61.213-.927.294-.289.074-.58.134-.874.185-.14.025-.281.047-.422.067.449-.064.053-.009-.033,0-.857.079-1.712.133-2.572.152-.823.019-1.647.019-2.47-.007q-.6-.018-1.193-.059c-.166-.012-.331-.025-.5-.041-.03,0-.8-.095-.29-.023a10.461,10.461,0,0,1-1.775-.394c-.111-.036-.223-.087-.335-.118.489.135.245.126.112.043-.218-.135-.444-.253-.66-.394.5.324.24.181.107.05-.16-.157-.209-.366.062.119-.085-.152-.175-.329-.272-.473.456.676.144.238.1.178-.019-.025-.155-.565-.048-.113.085.365,0,.048,0-.066a4.107,4.107,0,0,0,0-.508c-.044-.323-.13.554.012.054.127-.447-.277.384-.005-.031.056-.085.121-.191.167-.278-.158.3-.188.221.047-.023.079-.082.174-.149.254-.23-.372.378-.045.05.1-.04.166-.1.951-.427.5-.269a12.884,12.884,0,0,1,4.852-.71,2.4,2.4,0,0,0,0-4.8Z"/><path class="c" d="M90.08,216.634c-3.54.019-8.5.547-10.206,4.221a5.847,5.847,0,0,0,.2,5.281,6.5,6.5,0,0,0,3.905,2.79,21.041,21.041,0,0,0,5.854.653,29.5,29.5,0,0,0,6.175-.477,7.5,7.5,0,0,0,4.031-2.056,5.732,5.732,0,0,0,1.341-4.893c-.883-4.849-7.384-5.5-11.3-5.519a2.4,2.4,0,1,0,0,4.8,15.974,15.974,0,0,1,4.574.507q.5.137.981.318c-.414-.156.244.124.377.2s.276.168.412.256c.29.189-.35-.391.015.024.074.083.165.174.243.25-.252-.245-.184-.166.009.063.071.084.328.352-.048-.117-.007-.009.075.324.081.325-.165-.048.01-.532-.04-.037a1.632,1.632,0,0,0-.015.312c.028.287.184-.553.009-.13a1.55,1.55,0,0,0-.072.27c-.05.445.054-.26.095-.2.021.032-.179.314-.193.345-.173.392.118-.228.136-.172.011.033-.2.21-.235.24-.171.152-.361.168.1-.073-.086.045-.158.113-.247.156-.237.112-.61.265-.134.1-.308.109-.611.213-.928.294-.288.074-.58.134-.873.185-.14.025-.281.047-.422.067.449-.064.053-.009-.034,0-.856.079-1.711.133-2.572.152-.823.019-1.647.019-2.47-.007q-.6-.018-1.193-.059c-.165-.012-.331-.025-.5-.041-.03,0-.8-.095-.29-.023a10.45,10.45,0,0,1-1.774-.394c-.112-.036-.223-.087-.335-.118.488.135.245.126.111.043-.217-.135-.444-.253-.66-.394.5.324.24.181.107.05-.159-.157-.209-.366.063.119-.085-.152-.175-.329-.272-.473.455.676.143.238.1.178-.019-.025-.154-.565-.048-.113.086.365,0,.048,0-.066a3.92,3.92,0,0,0,0-.508c-.044-.323-.129.554.012.054.127-.447-.276.384,0-.031.055-.085.121-.191.166-.278-.158.3-.188.221.047-.023.08-.082.175-.149.255-.23-.372.378-.046.05.1-.04.166-.1.951-.427.5-.269a12.884,12.884,0,0,1,4.852-.71,2.4,2.4,0,1,0,0-4.8Z"/><path class="a" d="M301.122,293.828h28.572c6.035,7.547,22.717,32.653,27.717,41.908.008,4-.1,11.986-.285,16.236-37.2.24-62.135.481-99.485.721-4.657-15.519-9.154-32.529-12.809-48.39,0-3.485.151-6.228.151-9.75,10.579-.069,47.686-.139,56.139-.209"/><path class="e" d="M265.527,228.36c-2.214-4.043-6.72-10.683-9.661-15.55a8.1,8.1,0,0,1-1-5.97,11.357,11.357,0,0,1,5.749-7.408,12.06,12.06,0,0,1,13,1.3,9.319,9.319,0,0,1,5.475-7.176c4.965-1.827,7.749.079,8.981.894,6.658,6.394,11.873,11.519,18.183,18.414"/><path class="c" d="M267.6,227.148c-1.7-3.083-3.642-6.036-5.539-9-1.066-1.665-2.134-3.328-3.177-5.007-.919-1.481-1.823-2.851-1.809-4.654.024-3.233,2.676-6.23,5.575-7.377a10.058,10.058,0,0,1,9.75,1.693c1.613,1.222,3.444-.5,3.611-2.072.315-2.985,3.264-5.12,6.027-5.49,2.645-.354,4.039.62,5.856,2.371,5.707,5.5,11.3,11.1,16.659,16.948,2.092,2.283,5.479-1.119,3.395-3.394q-4.677-5.1-9.568-10-2.462-2.466-4.966-4.889a30.024,30.024,0,0,0-4.6-4.2,11.668,11.668,0,0,0-17.605,8.655l3.611-2.072c-5.8-4.395-14.433-3.812-19.259,1.773a12.169,12.169,0,0,0-3.008,10.529,15.632,15.632,0,0,0,2.284,4.762c.94,1.51,1.9,3.008,2.858,4.506,1.97,3.079,3.991,6.141,5.759,9.343,1.493,2.705,5.64.286,4.144-2.423Z"/><path class="c" d="M270.646,201.548c2.862,3.86,5.776,7.682,8.608,11.565a2.457,2.457,0,0,0,3.284.861,2.427,2.427,0,0,0,.861-3.283c-2.832-3.883-5.746-7.706-8.609-11.566a2.46,2.46,0,0,0-3.283-.861,2.426,2.426,0,0,0-.861,3.284Z"/><path class="c" d="M318.831,267.953c-12.365,4.621-32.267,4.56-44.3.261.207,2.905.821,9.9,2.7,13.918,11.491,5.707,30.437,6.924,40.82.631a65.473,65.473,0,0,0,2.163-15.358Q319.537,267.69,318.831,267.953Z"/><path class="c" d="M272.13,264.1c.307,4.365.619,8.734,1.329,13.057.326,1.989.626,4.423,1.695,6.182.72,1.186,2.6,1.681,3.827,2.184,1.277.523,2.58.982,3.9,1.385,10.581,3.227,23.307,3.849,33.613-.658,1.4-.612,3.328-1.3,3.867-2.852a34.806,34.806,0,0,0,1.188-5.416,63.6,63.6,0,0,0,1.061-10.581c.015-3.089-4.785-3.093-4.8,0a58.508,58.508,0,0,1-2.077,14.72l1.1-1.434c-5.571,3.32-12.417,4.053-18.783,3.857a48.276,48.276,0,0,1-19.615-4.488l.861.861c.2.447-.1-.27-.151-.423-.106-.309-.2-.622-.287-.937-.212-.764-.381-1.54-.531-2.318-.311-1.611-.532-3.235-.713-4.864-.3-2.753-.492-5.514-.686-8.275a2.457,2.457,0,0,0-2.4-2.4,2.421,2.421,0,0,0-2.4,2.4Z"/><path class="c" d="M301.122,296.74h24.305c.686,0,1.379-.029,2.064,0,1.411.061,1.924,1.139,2.693,2.181,5.645,7.653,10.991,15.542,16.2,23.5,2.449,3.741,4.871,7.506,7.149,11.354.411.695.846,1.387,1.217,2.105.512.99.256,2.428.247,3.522q-.037,4.467-.148,8.931c-.019.728.048,1.017-.594,1.259a8.66,8.66,0,0,1-2.467.016l-3.155.021-10.076.071q-9.681.069-19.362.143-18.644.143-37.286.284-10.332.077-20.664.144c-.855.006-1.6.159-2.029-.7a16.336,16.336,0,0,1-.789-2.683q-.394-1.353-.784-2.707-1.446-5.028-2.823-10.076-2.713-9.936-5.172-19.939-.621-2.524-1.223-5.052a44.248,44.248,0,0,1-1.174-5,33,33,0,0,1,.053-4.468c.016-.689-.355-2.4.389-2.709a6.48,6.48,0,0,1,1.977-.01l2.924-.012q3.087-.01,6.174-.021,6.918-.024,13.837-.043,12.545-.038,25.09-.088,1.713-.009,3.428-.021c3.087-.026,3.094-4.826,0-4.8-17,.139-33.994.111-50.991.183-2.558.011-5.145-.043-6.734,2.376-.938,1.429-.845,3.084-.884,4.718-.04,1.674-.2,3.411-.081,5.082a35.447,35.447,0,0,0,1.2,5.4q.627,2.64,1.273,5.276,1.308,5.339,2.691,10.658,2.758,10.626,5.809,21.174c.914,3.156,1.493,7,5.175,8.032a19.873,19.873,0,0,0,5.374.209l5.538-.038q40.659-.279,81.318-.6c1.7-.012,3.593.217,5.217-.344a5.4,5.4,0,0,0,3.319-3.36,15.506,15.506,0,0,0,.353-4.577q.048-2.38.077-4.761c.017-1.426.05-2.854.034-4.279a8.03,8.03,0,0,0-1.184-4.11c-.985-1.728-2.019-3.428-3.068-5.118-5.46-8.8-11.279-17.393-17.257-25.849q-1.889-2.675-3.824-5.316c-1.643-2.232-3.164-4.367-6.157-4.7a51.981,51.981,0,0,0-5.68-.061H301.122c-3.089,0-3.094,4.8,0,4.8Z"/><path class="c" d="M275.782,303.725c1.284,3.721,2.892,7.315,4.26,11a2.486,2.486,0,0,0,2.314,1.762h26.2a2.428,2.428,0,0,0,2.073-3.611c-1.386-2.8-2.924-5.525-4.508-8.212-.733-1.243-1.678-3.486-3.168-3.895a5.725,5.725,0,0,0-1.492-.085q-7.441,0-14.883,0H278.1c-3.088,0-3.093,4.8,0,4.8,8.07,0,16.15.128,24.218,0l-2.072-1.189a97.247,97.247,0,0,1,6.241,11l2.072-3.612h-26.2l2.314,1.762c-1.368-3.689-2.975-7.283-4.259-11C279.409,299.546,274.771,300.794,275.782,303.725Z"/><path class="c" d="M272.118,258.1c-6.8-5.337-6.687-17.543-2.913-23.195s6.776-8.3,13.408-9.8c3.311-.749,8.409-.41,9.945.849l.187.153.981-1.606c1.976-3.227,7.136-6.216,13.5-6.213,3.891,0,8.359.517,11.872,2.188a13.685,13.685,0,0,1,7.674,14.006c-5.409-5.723-10.641-8.87-21.034-9.337-12.019-.54-21.751,4.5-26.587,9.031s-9.5,13.829-7.775,20.231Z"/><path class="a" d="M269.046,235.152a19.222,19.222,0,0,0-2.4,10.577c-4.075-7.445-5.011-8.82-7.787-16.159-.468-5.147,2.132-12.655,6.171-15.89,4.109-3.293,22.09-7.977,26.08-8.62,3.714-.6,7.5-.023,11.223.552,7.757,4.4,14.209,8.079,20.337,16.563l-3.57-1.7c-3.513-1.671-8.348-1.593-12.238-1.595-6.367,0-11.16,2.393-13.136,5.62l-.981,1.606-.187-.153c-1.536-1.259-6.634-1.6-9.945-.849-6.632,1.5-9.632,4.145-13.408,9.8C269.151,234.987,269.1,235.069,269.046,235.152Z"/><path class="c" d="M329.174,234.484a16.321,16.321,0,0,0-7.693-15.443,23.871,23.871,0,0,0-9.872-2.916,26.081,26.081,0,0,0-11.34.886,16.187,16.187,0,0,0-8.615,6.281c-1.663,2.614,2.489,5.024,4.145,2.422,1.584-2.49,4.88-4.018,7.846-4.661a25.483,25.483,0,0,1,11.724.607c5.918,1.635,9.56,6.421,9,12.824a2.419,2.419,0,0,0,2.4,2.4,2.449,2.449,0,0,0,2.4-2.4Z"/><path class="c" d="M272.59,254.6c-4.541-2.9-4.485-10.061-2.978-14.914a17.783,17.783,0,0,1,17.38-12.571,14.083,14.083,0,0,1,2.608.247,3.492,3.492,0,0,1,1.747.664,2.417,2.417,0,0,0,3.284-.861,2.459,2.459,0,0,0-.861-3.284c-1.509-1.127-3.708-1.361-5.519-1.5a21.544,21.544,0,0,0-6.276.414,21.241,21.241,0,0,0-10.287,5.2,23.87,23.87,0,0,0-7.613,20.016c.526,4.307,2.331,8.34,6.092,10.739,2.612,1.665,5.022-2.487,2.423-4.145Z"/><path class="c" d="M268.356,244.064a107.831,107.831,0,0,1-7.183-15.132,2.467,2.467,0,0,0-2.952-1.676,2.418,2.418,0,0,0-1.676,2.952,115.828,115.828,0,0,0,7.666,16.278,2.4,2.4,0,0,0,4.145-2.422Z"/><path class="c" d="M261.259,229.57c-.715-5.7,2.088-10.951,6.69-14.266a13.439,13.439,0,0,1,1.983-1.131,25.852,25.852,0,0,1,2.424-1.052c2.275-.892,4.6-1.666,6.927-2.394,4.2-1.312,8.467-2.536,12.779-3.439a18.047,18.047,0,0,1,6.565-.178,13.326,13.326,0,0,1,4.223,1.323,37.242,37.242,0,0,1,3.969,2.736,83.029,83.029,0,0,1,15.713,14.989,2.416,2.416,0,0,0,3.394,0,2.456,2.456,0,0,0,0-3.394,85.177,85.177,0,0,0-15.18-14.631c-2.8-2.1-5.543-4.291-8.968-5.239a23.006,23.006,0,0,0-9.943-.439,104.611,104.611,0,0,0-12.65,3.281c-2.558.777-5.105,1.606-7.6,2.562a30.471,30.471,0,0,0-5.732,2.643c-6.126,3.97-10.318,11.247-9.391,18.629a2.478,2.478,0,0,0,2.4,2.4,2.413,2.413,0,0,0,2.4-2.4Z"/><path class="a" d="M292.873,277.777v48.606c1.868,3.283,3.6,7.017,5.72,11-2.593.069,13.457-.037,15.6-.037,0-8.127-.325-54.21-.325-59.014"/><path class="c" d="M299.8,307.59q0,14.828-.026,29.656c0,3.089,4.8,3.094,4.8,0q0-14.827.026-29.656c0-3.089-4.8-3.094-4.8,0Z"/><path class="c" d="M311.464,279.348c0,6.453.068,12.907.109,19.36q.092,14.379.176,28.756c.018,3.293.04,6.585.04,9.878,0,3.088,4.8,3.094,4.8,0,0-7.244-.065-14.487-.109-21.73q-.087-14.048-.176-28.094c-.016-2.723-.04-5.447-.04-8.17,0-3.088-4.8-3.094-4.8,0Z"/><path class="c" d="M290.473,279.348v47.035c0,3.088,4.8,3.094,4.8,0V279.348c0-3.088-4.8-3.094-4.8,0Z"/><path class="c" d="M314.563,339.709c10.715-.1,21.432-.058,32.148-.126,3.087-.019,3.094-4.819,0-4.8-10.716.068-21.433.025-32.148.126-3.087.029-3.095,4.829,0,4.8Z"/><path class="c" d="M270.685,340c10.131-.1,20.263-.061,30.394-.125,3.087-.02,3.094-4.82,0-4.8-10.131.064-20.263.029-30.394.125-3.087.029-3.094,4.829,0,4.8Z"/><path class="a" d="M334.489,249.987a30.221,30.221,0,0,0-7.715-15.5c-5.409-5.723-10.641-8.87-21.034-9.337-12.019-.54-21.751,4.5-26.587,9.031s-9.5,16.1-7.775,22.5c1.674,5.724,8.016,14.154,11.888,18.826,12.589,4.5,33.79,4.356,45.958-.934a144.6,144.6,0,0,0,5.638-17.619A29.135,29.135,0,0,0,334.489,249.987Z"/><path class="f" d="M293.088,267.133a49.3,49.3,0,0,0,15.474,1.471,70.74,70.74,0,0,0,16.306-2.477c2.968-.838,1.707-5.471-1.276-4.629a64.928,64.928,0,0,1-15.03,2.306,44.984,44.984,0,0,1-14.2-1.3c-2.974-.853-4.245,3.778-1.276,4.629Z"/><path class="c" d="M332.613,256.037a151.6,151.6,0,0,1-5.7,17.892l1.1-1.434a52.343,52.343,0,0,1-16.3,3.558,79.076,79.076,0,0,1-18.631-.608,52.4,52.4,0,0,1-9.182-2.258l1.059.617a105.5,105.5,0,0,1-6.393-8.533,35.863,35.863,0,0,1-4.877-9.234c-.894-2.948-5.528-1.692-4.629,1.276,1.683,5.557,5.305,10.568,8.765,15.147q1.272,1.683,2.592,3.33a15.284,15.284,0,0,0,1.148,1.408,6.245,6.245,0,0,0,2.526,1.108,54.636,54.636,0,0,0,7.89,1.8,84.644,84.644,0,0,0,18.223.856,64.4,64.4,0,0,0,17.045-3.066c1.593-.549,3.608-1,4.285-2.687.786-1.953,1.479-3.954,2.168-5.943,1.362-3.928,2.556-7.908,3.536-11.949.728-3-3.9-4.281-4.629-1.276Z"/><path class="c" d="M273.693,256.037c-1.252-4.941,1.27-11.39,3.864-15.83,2.735-4.685,6.935-7.614,11.891-9.751a37.811,37.811,0,0,1,20.445-2.539,24.54,24.54,0,0,1,14.058,7.109,28.325,28.325,0,0,1,8.56,20.985c-.085,3.09,4.715,3.087,4.8,0,.39-14.281-9.442-28.929-23.685-32.251a42.337,42.337,0,0,0-23.814,1.423c-5.916,2.163-11.626,5.534-15.257,10.8a35.98,35.98,0,0,0-4.834,10.475c-.992,3.477-1.558,7.3-.657,10.858.758,2.993,5.388,1.725,4.629-1.276Z"/><path class="c" d="M249.253,66.834c-.562-2.3-1.458-5.306.052-7.444,1.33-1.882,3.813-1.111,5.391.021a17.027,17.027,0,0,1,2.775,2.731c.448.514,1.044.86.545,1.39-1.4,1.489-3.68-1.34-4.348-2.34-2.574-3.854-3.351-9.232-1.112-13.428a10.722,10.722,0,0,1,10.372-5.526c4.807.495,7.8,5.134,9.493,9.222.517,1.246,1.525,4.494-.5,5.114-1.985.608-4.34-2.571-5.265-3.887a28.313,28.313,0,0,1-3.626-7.3c-.838-2.5-1.482-5.311-.885-7.942.913-4.021,4.549-6.51,8.532-6.926,5.206-.544,9.766,2.712,12.758,6.731a19.7,19.7,0,0,1,3.491,7.2c.381,1.634.313,4.231-1.2,4.993-2.759,1.391-.332,5.534,2.423,4.145,2.9-1.463,3.911-5.064,3.732-8.094a20.005,20.005,0,0,0-3.316-9.216c-3.546-5.616-9.353-10.442-16.254-10.611-6.286-.155-12.678,3.468-14.576,9.673-1.149,3.755-.513,7.892.736,11.535a31.941,31.941,0,0,0,5.415,10.036c2.235,2.713,5.808,5.416,9.531,4.207,3.94-1.281,5.095-5.79,4.136-9.437a24.428,24.428,0,0,0-5.271-9.5,13.9,13.9,0,0,0-8.864-4.688,15.41,15.41,0,0,0-15.5,8.867,18.294,18.294,0,0,0,3.536,19.679c2.679,2.675,6.97,3.792,9.949.889a5.165,5.165,0,0,0,1.489-4.969c-.477-1.778-2.03-3.3-3.286-4.576-2.613-2.659-6.221-4.641-10.046-3.692-3.747.929-5.723,4.68-5.852,8.306a22.63,22.63,0,0,0,.91,6.115c.734,3,5.364,1.729,4.628-1.276Z"/><path class="a" d="M189.885,144.169c-.472-.2-5.728-2.194-6.039-2.3-4.663-1.643-4.507-4.644-5.124-7.98a72.672,72.672,0,0,1-.969-7.459c10.367-5.32,18.5-19.232,19.948-23.27.227-.707.69-2.041,1.1-3.623l.879-.143a11.039,11.039,0,0,0,5.121-2.358,16.658,16.658,0,0,0,4.265-5.691,26.234,26.234,0,0,0,2.563-13.924,8.746,8.746,0,0,0-.945-3.514,6.187,6.187,0,0,0-4.474-2.923,6.553,6.553,0,0,0-5.233,1.577s11.863-42.192-46.819-42.192c-48.889,0-41.163,42.9-41.163,42.9a6.556,6.556,0,0,0-5.258-1.492,6.189,6.189,0,0,0-4.427,2.994,8.758,8.758,0,0,0-.888,3.528,26.225,26.225,0,0,0,2.786,13.881,16.667,16.667,0,0,0,4.355,5.623,11.06,11.06,0,0,0,5.158,2.276l1.678.245a44.609,44.609,0,0,0,8.633,16.523,38.007,38.007,0,0,0,13.357,10.445,68.2,68.2,0,0,1-.814,6.931c-.554,3.345-.35,6.343-5,8.06-.3.113-2.463.84-3.361,1.157,0,0-6.205,28.118,28.644,28.118C191.935,171.553,189.885,144.169,189.885,144.169Z"/><path class="b" d="M208.094,46.187c1.157,7.65,1.809,18.159-1.068,24.974a5.381,5.381,0,0,0-.817-.178c-3.214-.454-6.79,1.641-6.819,5.058C193.305,73.489,186.563,64.6,184.1,60.455c-1.894-3.184-4.5-10.486-6.078-15.893C170.792,53.8,158.763,59.78,146.187,62.8c-3.012.756-.674-6.379-.033-10.569-7.692,6.723-22.169,17.247-31.565,23.907-.442-2.969-3.634-4.733-6.582-4.4-1-4.2-2.062-8.665-2.062-8.665-1.162-4.8-1.369-15.311-.182-21.35,4.38-22.392,26.755-40.318,50.378-39.211,23.6-1.485,46.261,16.08,51,38.4C207.457,42.4,207.792,44.2,208.094,46.187Z"/><path class="c" d="M108.259,62.432c-1.253-5.347-1.136-11.519-.6-17.082a40.55,40.55,0,0,1,5.4-16.206A49.419,49.419,0,0,1,140.231,7.11a44.507,44.507,0,0,1,8.558-1.94c3.108-.364,6.226-.285,9.346-.341a45.754,45.754,0,0,1,17.9,3.416A49.165,49.165,0,0,1,201.594,32.05a52.408,52.408,0,0,1,4.358,15.967c.811,5.978,1.266,12.378.026,18.327a23.785,23.785,0,0,1-1.233,4.1,2.416,2.416,0,0,0,1.677,2.952,2.459,2.459,0,0,0,2.952-1.676c2.468-6.078,2.375-13.17,1.826-19.6a68.445,68.445,0,0,0-3.5-17.9A53.269,53.269,0,0,0,181.938,5.7,52.112,52.112,0,0,0,163,.205a89.221,89.221,0,0,0-9.921-.133,49.63,49.63,0,0,0-9.84,1.228A54.347,54.347,0,0,0,111.36,22.892,47.819,47.819,0,0,0,103.589,40.4a60.49,60.49,0,0,0-.612,19.279,35.849,35.849,0,0,0,.654,4.031c.7,3.006,5.333,1.734,4.628-1.276Z"/><path class="c" d="M175.9,45.856c2.07,6.862,4.384,13.767,8.667,19.587a56.474,56.474,0,0,0,7.086,8.114c2.475,2.284,5.355,4.5,8.687,5.317,3,.734,4.28-3.894,1.276-4.629-2.567-.628-4.934-2.528-6.948-4.437a51.5,51.5,0,0,1-6.312-7.275c-3.867-5.367-5.932-11.669-7.827-17.953-.89-2.95-5.524-1.693-4.629,1.276Z"/><path class="c" d="M176.449,42.7a45.011,45.011,0,0,1-15.217,12.122,65.066,65.066,0,0,1-9.36,3.869q-2.536.832-5.127,1.494c-.1.026-1.2.262-1.2.3,0-.149.877.13.942.168-.14-.081.859.788.541.514-.155-.133.071.176.091.21-.106-.176.068-.187-.028-.042-.086.13-.01.023-.006-.19.046-2.691.931-5.458,1.379-8.277a2.422,2.422,0,0,0-4.011-2.335c-10.269,8.95-21.557,16.813-32.674,24.66a2.465,2.465,0,0,0-.861,3.284,2.42,2.42,0,0,0,3.283.861c11.449-8.082,23.071-16.194,33.646-25.411l-4.011-2.335c-.48,3.018-1.475,6.021-1.552,9.092a4.589,4.589,0,0,0,1.431,3.848c1.416,1.143,3.115.6,4.7.182A67.636,67.636,0,0,0,170.412,54.9a44.329,44.329,0,0,0,9.431-8.8,2.479,2.479,0,0,0,0-3.394,2.416,2.416,0,0,0-3.394,0Z"/><path class="c" d="M202.673,74.257a4.074,4.074,0,0,1,5.753.559,7.273,7.273,0,0,1,.893,3.939,23.012,23.012,0,0,1-.286,4.919c-.976,5.558-3.82,12.27-9.992,13.4a2.421,2.421,0,0,0-1.676,2.952,2.451,2.451,0,0,0,2.952,1.676c8.834-1.624,13.013-11.6,13.722-19.609.36-4.059.168-8.978-3.311-11.693a8.991,8.991,0,0,0-11.449.458,2.421,2.421,0,0,0,0,3.394,2.449,2.449,0,0,0,3.394,0Z"/><path class="c" d="M173.863,130.434c7.113-1.731,12.944-7.04,17.457-12.575a52.7,52.7,0,0,0,8.562-13.7,29.335,29.335,0,0,0,2.093-9.647c.084-3.09-4.716-3.088-4.8,0a22.207,22.207,0,0,1-1.043,5.677c-.213.722-.435,1.444-.683,2.155-.054.155-.11.308-.165.463-.115.323.181-.367-.11.254a53.987,53.987,0,0,1-4.3,7.432c-4.372,6.424-10.429,13.4-18.284,15.314-3,.731-1.73,5.36,1.276,4.629Z"/><path class="c" d="M114.691,71.567a8.994,8.994,0,0,0-11.209-.512c-3.661,2.743-3.836,7.73-3.4,11.917.835,7.977,5.136,17.932,14,19.416a2.473,2.473,0,0,0,2.953-1.676,2.42,2.42,0,0,0-1.677-2.953c-6.2-1.037-9.163-7.655-10.232-13.216a22.819,22.819,0,0,1-.378-4.689,8.135,8.135,0,0,1,.724-4.029,4.039,4.039,0,0,1,5.825-.864,2.467,2.467,0,0,0,3.394,0,2.419,2.419,0,0,0,0-3.394Z"/><path class="c" d="M112.622,94.675c2.512,13.806,10.105,27.282,22.934,33.908a31.332,31.332,0,0,0,11.451,3.36,2.417,2.417,0,0,0,2.4-2.4,2.452,2.452,0,0,0-2.4-2.4c-13.017-1.261-23.235-12.911-27.375-24.608A58.991,58.991,0,0,1,117.25,93.4a2.422,2.422,0,0,0-2.952-1.677,2.453,2.453,0,0,0-1.676,2.953Z"/><path class="c" d="M135.1,151.876a76.464,76.464,0,0,0,22.61,2.195,67.344,67.344,0,0,0,18.436-3.15A29.252,29.252,0,0,0,179.5,149.6a2.422,2.422,0,0,0,.861-3.284,2.45,2.45,0,0,0-3.283-.861c-.313.15-.723.275-.046.029-.559.2-1.107.438-1.669.635a51.716,51.716,0,0,1-6.218,1.721,75.109,75.109,0,0,1-22.568,1.175,63.058,63.058,0,0,1-10.2-1.772c-2.991-.782-4.267,3.847-1.276,4.628Z"/><path class="c" d="M141.117,230.868c.6-12.437-.427-24.74-1.169-37.144q-1.3-21.723-1.793-43.485-.276-12.218-.28-24.439c0-3.089-4.8-3.094-4.8,0q0,21.736.865,43.463c.531,13.653,1.481,27.271,2.272,40.908a195.206,195.206,0,0,1,.105,20.7c-.149,3.087,4.652,3.08,4.8,0Z"/><path class="c" d="M182.308,123.767a135.8,135.8,0,0,1,17.765,17.492c1.37,1.567,2.745,3.131,4.1,4.708.778.9,1.642,2.046.6,3.048q-4.4,4.257-8.935,8.378a2.415,2.415,0,0,0,.486,3.769q2.574,1.253,5.109,2.583a20.066,20.066,0,0,1,4.15,2.367c1.385,1.255.477,3.42.066,4.978-.74,2.811-1.511,5.614-2.28,8.417q-3.4,12.408-6.909,24.786c-.838,2.938-1.646,5.893-2.59,8.8-.958,2.944,3.676,4.206,4.628,1.276,2.207-6.79,4-13.734,5.913-20.609,2-7.191,4.029-14.381,5.922-21.6.8-3.043,1.368-6.329-.863-8.93-1.244-1.451-3.12-2.3-4.772-3.18q-2.944-1.575-5.952-3.031l.486,3.77q3.918-3.575,7.752-7.238c1.184-1.136,2.471-2.191,2.87-3.863a6.938,6.938,0,0,0-.747-5.113,30.422,30.422,0,0,0-3.411-4.139q-1.806-2.075-3.622-4.143c-2.284-2.587-4.608-5.14-7.044-7.586a105.4,105.4,0,0,0-9.338-8.332,2.476,2.476,0,0,0-3.394,0,2.416,2.416,0,0,0,0,3.394Z"/><path class="c" d="M175.8,126.19c.719,7.393,3.034,14.445,4.365,21.725a113.4,113.4,0,0,1,1.559,20.6c-.025,13.909-1.928,27.708-2.422,41.6-.284,8-.312,16.009-.313,24.015,0,3.088,4.8,3.093,4.8,0,0-13.23.126-26.459,1.252-39.649,1.263-14.793,2.388-29.668.3-44.446C184.2,142,181.381,134.273,180.6,126.19a2.467,2.467,0,0,0-2.4-2.4,2.417,2.417,0,0,0-2.4,2.4Z"/><path class="c" d="M192.375,131.84c3.515.271,7.039.457,10.561.609,2.162.093,4.337.019,6.493.13a62.464,62.464,0,0,1,7.141.893q5.033.779,10.04,1.721c2.914.546,5.856,1.074,8.717,1.861,2.983.82,4.255-3.809,1.276-4.629A164.1,164.1,0,0,0,218.828,129c-2.876-.455-5.767-.919-8.669-1.165-1.9-.162-3.833-.052-5.741-.123-4.017-.15-8.036-.36-12.043-.669a2.42,2.42,0,0,0-2.4,2.4,2.448,2.448,0,0,0,2.4,2.4Z"/><path class="a" d="M218.678,100.685c4.943-3.775,10.444-8.188,15.368-11.942a39.759,39.759,0,0,1-3.571-4.866c-1.668-3.087-1.615-6.772-1.69-10.28-.217-10.263-3.415-26.887-9.247-32.359l-.5-.644c-5.821-5.322-9.709-8.782-15.824-11.977-5.337-2.789-8.394-2.667-9.848-1.883-1.588.856-2.57,3.234-1.925,4.384a3.3,3.3,0,0,0-4.749,1.534,4.395,4.395,0,0,0,1,5.517c-2.483.956-2.43,3.738-1.876,5.526s1.558,2.511,3.131,3.523c1.438.926,2.389,1.717,4.3,3.193-1.722,3.269-1.958,6.292.494,9.662,2.95,4.053,7.086,6.086,10.409,9.84,3.711,4.193,3.3,6.47,4.036,12.021s2.2,11.647,6.857,14.761A21.965,21.965,0,0,1,218.678,100.685Z"/><path class="c" d="M217.84,42.936a17.881,17.881,0,0,1,3.753,6.019,55.463,55.463,0,0,1,2.859,9.406,81.958,81.958,0,0,1,1.565,9.546c.346,3.379.25,6.769.533,10.147a17.868,17.868,0,0,0,1.757,6.852,33.88,33.88,0,0,0,4.043,5.538,2.417,2.417,0,0,0,3.394,0,2.455,2.455,0,0,0,0-3.394,29.974,29.974,0,0,1-3.2-4.38,12.885,12.885,0,0,1-1.256-5.463c-.191-3.335-.178-6.651-.546-9.978a72.848,72.848,0,0,0-4.523-19.55,23.148,23.148,0,0,0-4.988-8.137c-2.228-2.141-5.627,1.249-3.394,3.394Z"/><path class="c" d="M220.732,38.9c-5.893-5.383-11.977-10.786-19.483-13.8-2.442-.981-5.395-1.734-7.993-.9-3.257,1.044-5.332,4.963-3.885,8.139l3.284-3.284a6.462,6.462,0,0,0-4.735-.506,6.131,6.131,0,0,0-3.3,2.9A6.874,6.874,0,0,0,186,39.866l.485-3.769c-3.444,1.494-4,5.734-2.737,8.893a8.88,8.88,0,0,0,3.685,4.1c1.423.945,2.767,1.974,4.118,3.02l-.376-2.909a12.262,12.262,0,0,0-1.611,6.557,12.261,12.261,0,0,0,3,6.691c2.854,3.52,6.89,5.785,9.889,9.162a10.888,10.888,0,0,1,2.375,3.921,23.23,23.23,0,0,1,.731,4.507,39.681,39.681,0,0,0,2.87,12.223,15.446,15.446,0,0,0,3.8,5.273c.9.779,1.487,1.084,2.2,1.808a26.86,26.86,0,0,1,2.178,2.55,2.48,2.48,0,0,0,3.284.861,2.416,2.416,0,0,0,.861-3.284,24.64,24.64,0,0,0-3.813-4.333,13.813,13.813,0,0,1-3.469-3.58c-1.862-3.1-2.557-6.867-2.984-10.413-.4-3.312-.526-6.667-2.2-9.642-2.079-3.684-5.537-6.192-8.705-8.86a17.067,17.067,0,0,1-4.706-5.31,6.218,6.218,0,0,1,.452-5.708,2.441,2.441,0,0,0-.375-2.909c-1.19-.921-2.364-1.869-3.585-2.75a14.006,14.006,0,0,1-2.762-2.025,3.939,3.939,0,0,1-.691-2.074c-.016-.908.036-1.2,1-1.623a2.412,2.412,0,0,0,.486-3.769,2.111,2.111,0,0,1-.76-2.352c.362-.934.749-1.285,1.6-.926a2.423,2.423,0,0,0,3.284-3.284c.253.555.081.244.255-.164a2.4,2.4,0,0,1,.805-.935c.293-.258-.488.108-.043.012a3.294,3.294,0,0,0,.391-.112c.5-.181-.122-.016.085-.031.172-.013.343-.026.515-.029,2.164-.039,4.843,1.162,7.032,2.337,5.542,2.974,10.165,7.084,14.782,11.3,2.277,2.08,5.681-1.3,3.394-3.394Z"/><path class="c" d="M214.447,43.519a83.781,83.781,0,0,0-10.465-8.054,69.9,69.9,0,0,0-11.531-6.4,2.414,2.414,0,0,0-2.953,1.676,2.463,2.463,0,0,0,1.677,2.953c-.315-.133.178.082.231.106.2.091.4.18.593.273q.62.29,1.23.6c.923.466,1.833.96,2.732,1.471,1.908,1.085,3.772,2.25,5.6,3.468a75.632,75.632,0,0,1,9.494,7.3c2.264,2.1,5.667-1.29,3.394-3.394Z"/><path class="c" d="M212.733,51.2c-7.215-5.655-14.851-11.027-23.141-15a2.465,2.465,0,0,0-3.284.861,2.421,2.421,0,0,0,.861,3.283,121.74,121.74,0,0,1,22.169,14.246,2.478,2.478,0,0,0,3.4,0,2.417,2.417,0,0,0,0-3.394Z"/><path class="c" d="M210.214,60.289c-5.25-4.258-10.216-8.962-16.087-12.379a2.4,2.4,0,1,0-2.423,4.145c5.567,3.24,10.085,7.548,15.116,11.628a2.471,2.471,0,0,0,3.394,0,2.418,2.418,0,0,0,0-3.394Z"/><path class="c" d="M220,172.718c-1.148,6.225-2,12.509-2.588,18.811-.962,10.217-1.432,20.592-.226,30.805.686,5.805,1.7,11.563,2.825,17.3a2.425,2.425,0,0,0,2.953,1.676,2.45,2.45,0,0,0,1.676-2.952c-1.929-9.84-3.455-19.657-3.344-29.709a206.787,206.787,0,0,1,2.039-26.718q.567-3.979,1.294-7.934a2.466,2.466,0,0,0-1.676-2.952A2.422,2.422,0,0,0,220,172.718Z"/><path class="c" d="M118.951,128.18a46.638,46.638,0,0,1-5.935.056c-2.648-.056-5.3-.151-7.94-.268-1.541-.069-3.111-.256-4.653-.2a60.758,60.758,0,0,0-8.406,1.1c-3.39.6-6.782,1.277-10.1,2.19-2.975.818-1.712,5.45,1.276,4.629A86.224,86.224,0,0,1,99.808,132.6a40.414,40.414,0,0,1,4.562.139q3.827.177,7.657.277a52.8,52.8,0,0,0,6.924-.033,2.469,2.469,0,0,0,2.4-2.4,2.417,2.417,0,0,0-2.4-2.4Z"/><path class="a" d="M122.205,38.169a4.4,4.4,0,0,0,1-5.517,3.3,3.3,0,0,0-4.749-1.534c.644-1.15-.337-3.528-1.925-4.384-1.455-.784-4.512-.906-9.848,1.883-6.115,3.2-10,6.655-15.824,11.977l-.5.644c-5.832,5.472-9.03,22.1-9.248,32.359-.074,3.508-.021,7.193-1.689,10.28a39.759,39.759,0,0,1-3.571,4.866c4.924,3.754,10.425,8.167,15.368,11.942a21.963,21.963,0,0,1,3.632-3.99c4.655-3.114,6.121-9.21,6.858-14.761s.324-7.828,4.036-12.021c3.323-3.754,7.459-5.787,10.409-9.84,2.452-3.37,2.215-6.393.494-9.662,1.911-1.476,2.863-2.267,4.3-3.193,1.573-1.012,2.577-1.736,3.131-3.523S124.688,39.125,122.205,38.169Z"/><path class="c" d="M77.551,90.444c2.628-3.217,4.976-6.267,5.577-10.492.5-3.546.322-7.146.627-10.711a72.021,72.021,0,0,1,4.077-19.079A28.68,28.68,0,0,1,89.765,46a11.728,11.728,0,0,1,2.3-3.059c2.232-2.144-1.165-5.536-3.394-3.394-4.262,4.095-6.165,10.571-7.522,16.139a93.57,93.57,0,0,0-2.469,19.824,18.183,18.183,0,0,1-.961,6.407,21.566,21.566,0,0,1-3.558,5.138,2.469,2.469,0,0,0,0,3.394,2.418,2.418,0,0,0,3.394,0Z"/><path class="c" d="M92.553,42.289c4.618-4.217,9.243-8.324,14.783-11.3a23.705,23.705,0,0,1,4.157-1.829,8.617,8.617,0,0,1,2.774-.508c.176,0,.351.012.526.019.576.024-.37-.113.1.021.157.045.317.09.474.132.415.109-.333-.267-.043-.012a2.35,2.35,0,0,1,.8.935c.189.444.019.683.255.164a2.424,2.424,0,0,0,3.284,3.284c.837-.356,1.232-.012,1.6.926a2.114,2.114,0,0,1-.76,2.352,2.412,2.412,0,0,0,.486,3.769c.893.389,1.027.7,1,1.483a3.614,3.614,0,0,1-.69,2.214,12.993,12.993,0,0,1-2.639,1.933c-1.267.9-2.477,1.889-3.708,2.842a2.422,2.422,0,0,0-.375,2.909,6.418,6.418,0,0,1,.684,5.157,12.85,12.85,0,0,1-3.725,4.8c-3.185,2.908-6.74,5.264-9.248,8.853-1.951,2.794-2.35,5.957-2.715,9.255-.395,3.57-.88,7.368-2.474,10.631a11.434,11.434,0,0,1-3.46,4.3,23.565,23.565,0,0,0-4.491,4.848,2.414,2.414,0,0,0,.861,3.284,2.459,2.459,0,0,0,3.283-.861,20.143,20.143,0,0,1,3.589-3.727,15.007,15.007,0,0,0,3.956-4.64c2.043-3.684,2.793-7.866,3.32-11.993.424-3.321.455-6.243,2.473-8.951,2.631-3.529,6.607-5.721,9.611-8.883a13.9,13.9,0,0,0,3.933-6.752,12.007,12.007,0,0,0-1.453-7.746l-.375,2.909c1.351-1.047,2.693-2.075,4.118-3.02a8.855,8.855,0,0,0,3.685-4.1c1.265-3.158.7-7.4-2.737-8.893l.485,3.769a6.872,6.872,0,0,0,1.38-8.421,6.164,6.164,0,0,0-3.306-2.9,6.434,6.434,0,0,0-4.728.506l3.284,3.284c1.448-3.178-.629-7.092-3.886-8.139-2.6-.835-5.557-.078-8,.9-7.506,3.011-13.595,8.418-19.488,13.8-2.286,2.088,1.116,5.475,3.394,3.394Z"/><path class="c" d="M98.846,46.913a75.727,75.727,0,0,1,9.494-7.3c1.783-1.19,3.6-2.329,5.464-3.392.9-.515,1.814-1.012,2.739-1.483q.613-.312,1.236-.607c.2-.094.4-.187.6-.277.065-.03.7-.31.348-.159a2.482,2.482,0,0,0,1.676-2.953,2.414,2.414,0,0,0-2.952-1.676,69.855,69.855,0,0,0-11.531,6.4,83.708,83.708,0,0,0-10.465,8.054c-2.272,2.1,1.129,5.491,3.394,3.394Z"/><path class="c" d="M100.56,54.589a121.809,121.809,0,0,1,22.169-14.246,2.421,2.421,0,0,0,.861-3.283,2.45,2.45,0,0,0-3.283-.861c-8.29,3.969-15.926,9.342-23.141,15a2.413,2.413,0,0,0,0,3.394,2.459,2.459,0,0,0,3.394,0Z"/><path class="c" d="M103.079,63.683c5.03-4.079,9.549-8.388,15.115-11.628a2.4,2.4,0,0,0-2.422-4.145c-5.871,3.417-10.837,8.121-16.087,12.379a2.415,2.415,0,0,0,0,3.394,2.456,2.456,0,0,0,3.394,0Z"/><path class="c" d="M85.271,173.994c.031.172.056.345.085.518.02.116-.048-.474,0,.025.048.478.1.955.136,1.435.08,1.045.126,2.092.159,3.139.083,2.657.076,5.317.04,7.975-.079,5.8-.307,11.591-.607,17.381-.124,2.4-.262,4.807-.429,7.208a2.4,2.4,0,1,0,4.8,0c.742-10.638,1.294-21.382,1.01-32.047a46.061,46.061,0,0,0-.568-6.91,2.42,2.42,0,0,0-2.952-1.676,2.453,2.453,0,0,0-1.676,2.952Z"/><path class="c" d="M128.288,121.614A110.629,110.629,0,0,0,109.1,138.033a67.929,67.929,0,0,0-7.431,9.763c-1.067,1.726-2.448,3.683-2.641,5.748a5.852,5.852,0,0,0,2.381,5.165c3.238,2.545,6.738,4.814,9.817,7.554v-3.394c-1.892,1.564-3.821,3.091-5.632,4.751a15.046,15.046,0,0,0-3.731,4.488c-1.036,2.256.47,5.295,1.166,7.474,3.16,9.9,6.669,19.69,10.1,29.5,1.5,4.283,3.034,8.557,4.473,12.862.974,2.915,5.611,1.665,4.628-1.276-2.841-8.5-5.911-16.928-8.847-25.4-1.608-4.638-3.209-9.279-4.748-13.941-.563-1.706-1.122-3.415-1.644-5.134a21.534,21.534,0,0,0-.782-2.882c.1.2-.043.35-.033.841,0,.148-.291.323.016-.026a5.223,5.223,0,0,0,.331-.537,15.658,15.658,0,0,1,1.9-2.054c1.964-1.868,4.1-3.546,6.19-5.271a2.411,2.411,0,0,0,0-3.394c-2.437-2.169-5.155-4.031-7.762-5.987-.638-.479-1.276-.958-1.905-1.449-.4-.314-1.035-.657-1.154-1.194-.135-.6.417-1.253.687-1.745q.683-1.244,1.436-2.449a74.021,74.021,0,0,1,14.712-16.523,119.882,119.882,0,0,1,10.081-7.763,2.464,2.464,0,0,0,.861-3.284,2.422,2.422,0,0,0-3.284-.861Z"/><path class="c" d="M222.889,175.745c7.811.724,15.656,1.04,23.5,1.194,7.822.154,15.688.267,23.508-.02a25.453,25.453,0,0,0,18.185-8.5,18.015,18.015,0,0,0,4.084-7.475,30.367,30.367,0,0,0-.082-11.581,27.3,27.3,0,0,0-2.7-8.36,76,76,0,0,0-4.713-7.805,88.291,88.291,0,0,0-7.523-9.7c-5.938-6.6-11.957-13.13-17.978-19.655C253.27,97.444,247.409,91,241.318,84.78c-.356-.363-.714-.725-1.077-1.081a2.427,2.427,0,0,0-2.908-.375c-8.372,6.045-16.229,12.771-24.6,18.816a2.48,2.48,0,0,0-.861,3.284,26.278,26.278,0,0,0,2.789,4.094c1.741,2.3,3.542,4.552,5.352,6.8,4.113,5.1,8.3,10.151,12.323,15.325,1.541,1.98,3.328,4.322,4.793,6.588,1.671,2.585,5.828.182,4.145-2.423a165.3,165.3,0,0,0-10.439-13.717c-2.1-2.6-4.206-5.184-6.306-7.779q-1.457-1.8-2.9-3.6-.621-.778-1.237-1.561-.271-.347-.544-.694c-.3-.377-.383-.491-.5-.645a30.12,30.12,0,0,1-3.331-4.8l-.861,3.284c8.372-6.046,16.229-12.771,24.6-18.817l-2.908-.375c5.375,5.268,10.4,10.923,15.513,16.444q9.574,10.34,19.056,20.763c5.682,6.261,10.849,12.75,14.511,20.533A10.161,10.161,0,0,1,286.4,146a16.267,16.267,0,0,1,.494,1.779,37.451,37.451,0,0,1,.863,5.449c.23,2.876.2,6.2-.979,8.6-2.524,5.123-7.779,8.591-13.26,9.827-3.4.765-7.012.533-10.473.564q-5.8.051-11.592,0c-7.728-.078-15.461-.3-23.173-.832q-2.7-.187-5.391-.437a2.418,2.418,0,0,0-2.4,2.4,2.451,2.451,0,0,0,2.4,2.4Z"/><path class="c" d="M87.009,170.945c-15.143,1.4-30.427,1.46-45.622,1.2-6.3-.107-12.293-2.418-16.375-7.363a11.846,11.846,0,0,1-2.834-6.116A31.143,31.143,0,0,1,23,147.777a22.857,22.857,0,0,1,2.85-6.551c1.512-2.64,3.187-5.191,4.945-7.673a79.42,79.42,0,0,1,6.094-7.5q8.938-9.9,18.013-19.673c5.656-6.125,11.275-12.3,17.113-18.254.342-.348.685-.7,1.033-1.036l-2.909.375c8.372,6.046,16.229,12.771,24.6,18.817L93.882,103a30.154,30.154,0,0,1-2.871,4.322c-1.742,2.386-3.543,4.728-5.348,7.066-4.116,5.331-8.433,10.8-12.535,16.25-1.767,2.35-3.537,4.709-5.133,7.18-1.681,2.6,2.473,5.012,4.145,2.423,3.142-4.867,6.8-9.42,10.349-13.994,4.044-5.221,8.154-10.4,12.08-15.7a34.844,34.844,0,0,0,3.458-5.119,2.483,2.483,0,0,0-.861-3.284C88.8,96.1,80.938,89.369,72.566,83.324a2.415,2.415,0,0,0-2.908.375C64.045,89.2,58.8,95.11,53.465,100.876Q43.8,111.322,34.227,121.857c-2.229,2.461-4.39,4.93-6.367,7.6-3.444,4.662-7.05,9.749-8.989,15.26a34.551,34.551,0,0,0-1.639,10.88,18.486,18.486,0,0,0,2,9.148c3.059,5.673,8.977,9.747,15.133,11.353,3.677.96,7.48.862,11.248.9q5.867.061,11.734.018c8.026-.065,16.056-.278,24.064-.828q2.8-.192,5.6-.451a2.465,2.465,0,0,0,2.4-2.4,2.417,2.417,0,0,0-2.4-2.4Z"/><path class="c" d="M156.442,92.519a39.58,39.58,0,0,1,.935,4.278l-.085-.638a2.6,2.6,0,0,1,.016.591l.085-.638a1.444,1.444,0,0,1-.065.265l.242-.573a1.132,1.132,0,0,1-.093.171l.375-.486a.962.962,0,0,1-.14.138l.486-.376a2.679,2.679,0,0,1-.339.18l.573-.242a2.413,2.413,0,0,1-.571.166l.638-.085a2.288,2.288,0,0,1-.536,0l.638.085c-.2-.028-.4-.077-.6-.1a1.823,1.823,0,0,0-.957-.043,1.784,1.784,0,0,0-.892.285,2.4,2.4,0,0,0-.861,3.283,2.29,2.29,0,0,0,1.434,1.1c.479.065.943.186,1.43.207a4.6,4.6,0,0,0,2.13-.51A3.117,3.117,0,0,0,162,97.525a5.069,5.069,0,0,0-.02-2.186c-.233-1.378-.552-2.744-.906-4.1a2.4,2.4,0,0,0-2.953-1.677,2.447,2.447,0,0,0-1.676,2.953Z"/><path class="c" d="M125.406,94.234a21.648,21.648,0,0,1,2.371,3.652,2.19,2.19,0,0,0,.249.54c-.132-.319-.164-.393-.1-.224.03.071.058.143.086.215.138.352.263.709.38,1.068s.215.712.306,1.074c.108.428.008-.563-.021-.09,0,.093,0,.186,0,.279.062-.377.075-.472.04-.282-.013.073-.03.145-.05.216q-.12.361.081-.132a3.154,3.154,0,0,0-.25.454c-.238.406.239-.229-.134.155-.406.418.334-.131-.06.077-.53.28-.008,0,.01.032a2.69,2.69,0,0,1-.28.076c-.254.047-.173.039.244-.026a2.359,2.359,0,0,0-.4.012c-.091,0-.18-.008-.27-.017q.585.088.3.036c-.145-.055-.314-.07-.464-.117-.065-.021-.13-.043-.194-.068-.173-.065-.087-.029.256.11a2.712,2.712,0,0,0-.478-.265l-.114-.075q-.3-.22.166.127c-.035-.084-.213-.209-.289-.278q-.244-.282.124.181c-.051-.071-.1-.143-.144-.218-.191-.318.008-.254.017.107,0-.137-.173-.868-.062,0a2.63,2.63,0,0,0-.7-1.7,2.434,2.434,0,0,0-1.7-.7c-1.165.052-2.569,1.066-2.4,2.4a5.378,5.378,0,0,0,.884,2.582,6.3,6.3,0,0,0,1.97,1.821,6.024,6.024,0,0,0,5.245.46,5.818,5.818,0,0,0,3.453-4.972,11.175,11.175,0,0,0-1.337-4.813,20.6,20.6,0,0,0-2.59-4.124,2.638,2.638,0,0,0-1.434-1.1,2.454,2.454,0,0,0-1.85.242c-.981.633-1.677,2.217-.861,3.284Z"/><path class="c" d="M157.107,105.594c-.078,0-.694-.089-.211-.008-.26-.044-.517-.106-.774-.166-.5-.117-.989-.249-1.485-.371a20.354,20.354,0,0,0-4.307-.692,8.132,8.132,0,0,0-7.146,3.87c-3.315,5.066-1.617,13.521,4.917,14.839a9.893,9.893,0,0,0,4.646-.147c1.343-.393,2.515-1.443,3.868-1.728,1.054-.222,1.893.382,2.8.853a10.172,10.172,0,0,0,4.556,1.229,8.178,8.178,0,0,0,7.737-4.628,11.158,11.158,0,0,0,.221-8.593,8.449,8.449,0,0,0-7.33-5.684,15.979,15.979,0,0,0-4.589.559c-.595.138-1.185.3-1.779.442-.253.062-.506.12-.761.177-.147.031-.295.058-.444.082.308-.039.336-.05.082-.034-3.08.11-3.094,4.91,0,4.8,2.943-.105,7.209-2.786,9.519-.092,2.238,2.61,1.657,8.154-2.466,8.17-2.108.009-3.636-1.6-5.655-1.988a7.049,7.049,0,0,0-3.843.3c-.992.377-1.864,1.007-2.846,1.389-1.68.653-3.873.347-4.834-1.3a6.252,6.252,0,0,1-.181-5.263c1.847-4.546,6.856-1.341,10.306-1.224C160.2,110.5,160.193,105.7,157.107,105.594Z"/><path class="c" d="M143.531,82.956a14.088,14.088,0,0,0-2.225-.224,13.48,13.48,0,0,0-1.974.184,26.292,26.292,0,0,0-2.992.7,2.48,2.48,0,0,0-1.434,1.1,2.4,2.4,0,0,0,2.71,3.526,25.169,25.169,0,0,1,3.085-.716l-.638.086a9.639,9.639,0,0,1,2.494,0l-.638-.086q.168.024.336.051a2.606,2.606,0,0,0,1.849-.242,2.4,2.4,0,0,0,.861-3.283,2.329,2.329,0,0,0-1.434-1.1Z"/><path class="c" d="M172.522,87.532a9.79,9.79,0,0,1,2.419.014l-.638-.086a21.486,21.486,0,0,1,3.458.924,2.419,2.419,0,0,0,2.952-1.676,2.453,2.453,0,0,0-1.676-2.952,25.854,25.854,0,0,0-2.909-.832,11.713,11.713,0,0,0-3.606-.192,2.618,2.618,0,0,0-1.7.7,2.4,2.4,0,0,0,0,3.395,2.315,2.315,0,0,0,1.7.7Z"/><path class="c" d="M179.2,75.672a6.732,6.732,0,0,0,3.184,3.436,11.783,11.783,0,0,0,4.994,1.723,2.4,2.4,0,0,0,1.7-.7,2.4,2.4,0,0,0,0-3.394,2.736,2.736,0,0,0-1.7-.7L187.14,76l.638.086a8.43,8.43,0,0,1-2-.575l.573.242a10.964,10.964,0,0,1-2.409-1.389l.486.376a5.312,5.312,0,0,1-.95-.915l.375.486a1.865,1.865,0,0,1-.23-.387l.241.574c-.013-.035-.025-.07-.036-.106a2.5,2.5,0,0,0-1.1-1.434,2.4,2.4,0,0,0-3.525,2.71Z"/><path class="c" d="M188.373,18.454c.612-.59,1.234-1.17,1.878-1.725q.4-.349.822-.686c.108-.087.414-.325.147-.121q.222-.17.45-.333a18.75,18.75,0,0,1,3.541-2.054c-.453.2.3-.106.467-.166q.483-.169.974-.308c.642-.182,1.292-.306,1.947-.427.677-.125-.282.027.119-.02q.276-.033.554-.06.575-.053,1.15-.077c.827-.036,1.654-.028,2.48,0a2.4,2.4,0,1,0,0-4.8,22.743,22.743,0,0,0-9.926,1.631,27.453,27.453,0,0,0-8,5.749,2.4,2.4,0,1,0,3.394,3.394Z"/><path class="c" d="M111.892,13.265c.2-.036.389-.071.585-.1.4-.061-.333.031.068-.005.355-.031.708-.061,1.064-.073a17.606,17.606,0,0,1,2.13.078c.745.066-.239-.046.185.023.156.025.312.051.468.08.35.066.7.142,1.043.231q.575.147,1.139.335c.15.05.3.1.448.157.049.018.6.232.377.139-.189-.076.222.1.259.115.18.083.359.168.536.257q.479.239.94.509t.9.568c.132.088.259.181.39.271.329.225-.009-.021.175.126a15.194,15.194,0,0,1,1.571,1.44c.246.258.476.528.708.8.079.093.216.277.064.074.142.19.277.386.412.582a2.46,2.46,0,0,0,3.283.861,2.423,2.423,0,0,0,.861-3.284,18.774,18.774,0,0,0-18.886-7.809,2.421,2.421,0,0,0-1.676,2.952,2.451,2.451,0,0,0,2.952,1.676Z"/><path class="c" d="M104.818,94.753c-3.142,6.38-2.965,13.253-1.941,20.121.425,2.852,1.081,6,.243,8.837a4.305,4.305,0,0,1-1.367,2.217c-.617.486-1.453.588-2.012,1.147a3.32,3.32,0,0,0-.869,2.343c-.095,3.09,4.7,3.087,4.8,0l-.162.565-1.434,1.1c6.471-2.438,6.573-9.289,5.771-15.144-.864-6.3-1.814-12.818,1.116-18.766a2.462,2.462,0,0,0-.861-3.284,2.422,2.422,0,0,0-3.284.861Z"/></svg>