<?xml version="1.0" encoding="utf-8"?>
<!-- Uploaded to: SVG Repo, www.svgrepo.com, Generator: SVG Repo Mixer Tools -->
<svg width="800px" height="800px" viewBox="0 -112.54 492.398 492.398" xmlns="http://www.w3.org/2000/svg"><defs><style>.a{fill:#ffffff;}.b{fill:#c6c6c6;}.c{fill:#957f6e;}.d{fill:#211715;}.e{fill:#d8d8d8;}.f{fill:#cfcfcf;}.g{fill:#f4b3b3;}.h{fill:#bdbdbd;}</style></defs><path class="a" d="M1.6,3.481V265.6c15.847,0,90.633.133,100.109.133s86.258-.681,100.108-.681V3.483Z"/><path class="a" d="M373.83,1.668c-13.739,9.524-95.616,73.055-116.939,89.914,3.248,0,15.1.013,22.131.017V265.041c13.117,0,85.835.608,94.808.608s81.691-.608,94.808-.608V91.6c7.032-.006,18.883-.019,22.131-.019C470.608,75.819,385.282,9.643,373.83,1.668Z"/><path class="a" d="M414.052,106.508a3.818,3.818,0,0,1,3.055-.894,3.607,3.607,0,0,1,2.593,1.724,5.108,5.108,0,0,1,.534,2.051,15.293,15.293,0,0,1-1.558,8.1,9.7,9.7,0,0,1-2.511,3.3,6.431,6.431,0,0,1-2.994,1.349l-.512.079c-.246.92-.522,1.7-.657,2.106-.88,2.389-5.844,10.711-12.066,13.625.38,1.893.143,3.633,2.753,4.575.165.06,4.706,2.249,4.958,2.352,0,0-2.314,16.722-18.61,16.722s-19.2-17.042-19.2-17.042c.479-.164,3.937-1.972,4.1-2.032,2.522-.911,2.386-2.954,2.716-4.762a22.562,22.562,0,0,1-7.039-5.808,25.981,25.981,0,0,1-4.952-9.665l-.975-.15a6.431,6.431,0,0,1-2.994-1.349,9.7,9.7,0,0,1-2.511-3.3,15.283,15.283,0,0,1-1.558-8.1,5.108,5.108,0,0,1,.534-2.051,3.607,3.607,0,0,1,2.593-1.724,3.82,3.82,0,0,1,3.055.894s-1.026-24.326,24.159-24.326C413.925,82.182,414.052,106.508,414.052,106.508Z"/><path class="a" d="M104.5,144.548c.479-.164,3.937-1.972,4.1-2.032,2.522-.911,2.385-2.954,2.715-4.762a22.573,22.573,0,0,1-7.039-5.808,25.993,25.993,0,0,1-4.951-9.665l-.976-.15a6.428,6.428,0,0,1-2.993-1.349,9.7,9.7,0,0,1-2.511-3.3,15.274,15.274,0,0,1-1.558-8.1,5.092,5.092,0,0,1,.534-2.051,3.607,3.607,0,0,1,2.592-1.724,3.821,3.821,0,0,1,3.056.894s-1.322-24.326,25.641-24.326,25.607,24.326,25.607,24.326a3.821,3.821,0,0,1,3.056-.894,3.605,3.605,0,0,1,2.592,1.724,5.092,5.092,0,0,1,.534,2.051,15.274,15.274,0,0,1-1.558,8.1,9.714,9.714,0,0,1-2.51,3.3,6.436,6.436,0,0,1-2.994,1.349l-.513.08c-.245.919-.521,1.694-.657,2.105-.88,2.389-5.843,10.711-12.064,13.625.379,1.893.142,3.633,2.752,4.575.164.06,4.706,2.249,4.958,2.352,0,0-4.185,15.537-19.5,15.537S104.5,144.548,104.5,144.548Z"/><path class="b" d="M116.26,66.723l.11-.022c6.544-1.284,14.331-.014,18.963,2.815l5.3,2.407c2.056.667,4.529,2.78,5.963,4.334,6.671,7.23,9.034,21.269,5.281,29.378a.671.671,0,0,0-.1-.021,3.821,3.821,0,0,0-3.056.894L147.1,107.97l-.052-.567a24.2,24.2,0,0,0-7.6-15.781,43.287,43.287,0,0,0-5.339-1.893c-1.491,3.259-4.787,4.333-8.272,5.554-4.726,1.655-8.137,1.9-14.133,1.9-.52.213-1.037.414-1.536.609-2.3.9-4.931.931-7.042,2.214a9.036,9.036,0,0,0-3.6,4.766,22.523,22.523,0,0,0-.864,2.813l-1.2-1.081a3.818,3.818,0,0,0-3-.9c-.172-.749-.276-1.2-.276-1.2a36.28,36.28,0,0,1-.341-14.923,30.852,30.852,0,0,1,7.63-14.852C104.209,71.6,108.405,68.287,116.26,66.723Z"/><path class="c" d="M370.841,142.885a13.089,13.089,0,0,0,6.416-4.831,22.2,22.2,0,0,1-7.646-6.108,25.959,25.959,0,0,1-4.951-9.664l-.976-.151a6.431,6.431,0,0,1-2.994-1.349c-.152-.122-.3-.25-.437-.383a12.822,12.822,0,0,0-1.442,4.579,20.851,20.851,0,0,0-.143,2.9c.036,2.3.615,4.649.731,6.948s-.847,4.925-3.029,5.665C355.377,142.086,363.686,145.427,370.841,142.885Z"/><path class="d" d="M358.872,119.591A15.83,15.83,0,0,0,357.114,126a40.062,40.062,0,0,0,.559,7.365c.189,1.658.309,3.567-.85,4.932-.534.629-1.446.706-1.863,1.434a2.17,2.17,0,0,0-.194,1.614c.5,1.881,3.038,2.761,4.668,3.249a20.084,20.084,0,0,0,8.234.653,15.639,15.639,0,0,0,10.009-5.142c1.339-1.553-.915-3.826-2.263-2.263-2.932,3.4-7.241,4.637-11.621,4.316A16.34,16.34,0,0,1,359.1,141.1c-.034-.015-.533-.254-.736-.37-.12-.068-.235-.147-.355-.217-.318-.185-.032-.015-.053-.03-.086-.06-.145-.155-.229-.217-.209-.155.157.335.047.051a1.2,1.2,0,0,1-.027.978l-.956.736c3.687-1.4,4.478-5.318,4.056-8.849-.483-4.052-1.223-8.187.784-11.974.964-1.818-1.8-3.437-2.763-1.615Z"/><path class="e" d="M373.022.287C367.956,3.8,363.06,7.576,358.14,11.292q-12.465,9.419-24.84,18.955Q318.833,41.359,304.412,52.53q-13.6,10.532-27.174,21.1-9.913,7.725-19.8,15.49l-1.683,1.329c-1.133.9-.147,2.731,1.131,2.731q11.065,0,22.131.017l-1.6-1.6V265.041a1.623,1.623,0,0,0,1.6,1.6c11.8,0,23.591.123,35.386.206q22.843.162,45.687.328c7.786.052,15.569.076,23.354.027q21.982-.139,43.965-.313c12.973-.093,25.947-.2,38.92-.244q1.152,0,2.3,0a1.623,1.623,0,0,0,1.6-1.6V91.6l-1.6,1.6q11.065-.009,22.131-.019c1.264,0,2.272-1.839,1.132-2.731q-9.111-7.123-18.25-14.208-13.469-10.462-26.957-20.9-14.748-11.412-29.522-22.788-12.851-9.891-25.745-19.725c-5.243-3.989-10.466-8.018-15.82-11.859-.322-.231-.645-.461-.97-.687-1.693-1.181-3.294,1.592-1.615,2.763,4.819,3.36,9.464,6.984,14.142,10.534Q399.564,23,411.892,32.5q14.574,11.2,29.113,22.456,13.741,10.627,27.464,21.281,9.8,7.6,19.577,15.231l1.592,1.244,1.131-2.732q-11.066,0-22.131.019a1.622,1.622,0,0,0-1.6,1.6v173.44l1.6-1.6c-11.795,0-23.591.123-35.385.206q-22.845.162-45.688.328c-7.786.052-15.568.076-23.354.027q-21.983-.14-43.965-.313c-12.973-.093-25.946-.205-38.919-.244q-1.154,0-2.305,0l1.6,1.6V91.6a1.624,1.624,0,0,0-1.6-1.6q-11.065-.006-22.131-.017l1.131,2.732q9.2-7.272,18.457-14.464,13.2-10.294,26.436-20.545,14.34-11.11,28.717-22.172,12.735-9.792,25.525-19.511c5.426-4.112,10.839-8.255,16.387-12.2q.544-.387,1.093-.769C376.318,1.883,374.72-.892,373.022.287Z"/><path class="e" d="M347.629,82.709H301.472a1.623,1.623,0,0,0-1.6,1.6c0,13.648-.167,27.29-.068,40.938.027,3.785.067,7.571.068,11.356a1.623,1.623,0,0,0,1.6,1.6h43.565a1.6,1.6,0,0,0,0-3.2H301.472l1.6,1.6c0-13.648-.167-27.29-.068-40.938.027-3.785.067-7.571.068-11.356l-1.6,1.6h46.157a1.6,1.6,0,0,0,0-3.2Z"/><path class="e" d="M340.822,104.7h-3.94a1.6,1.6,0,0,0-1.6,1.6c0,1.541-.011,3.617-.011,3.974s.007,2.432.011,3.974a1.6,1.6,0,0,0,1.6,1.594h3.888Z"/><path class="e" d="M342.59,136.243V84.3a1.6,1.6,0,0,0-3.2,0v51.947a1.6,1.6,0,0,0,3.2,0Z"/><path class="e" d="M0,3.481V265.6a1.623,1.623,0,0,0,1.6,1.6q19.5,0,38.993.046,23.925.036,47.85.072c8.143.011,16.285.011,24.428-.045q23.144-.159,46.286-.35c13.421-.1,26.841-.224,40.261-.267q1.2,0,2.4,0a1.623,1.623,0,0,0,1.6-1.6V3.483a1.623,1.623,0,0,0-1.6-1.6H1.6a1.6,1.6,0,0,0,0,3.2H201.817l-1.6-1.6v261.57l1.6-1.6c-12.241,0-24.484.134-36.725.226q-23.9.18-47.794.364-12.324.088-24.648.082-22.986-.03-45.97-.069Q25.512,264.025,4.344,264H1.6l1.6,1.6V3.481A1.6,1.6,0,0,0,0,3.481Z"/><path class="e" d="M57.106,116.5H42.138l1.6,1.6V73.7l-1.6,1.6h14.7a1.6,1.6,0,0,0,0-3.2h-14.7a1.624,1.624,0,0,0-1.6,1.6v44.4a1.623,1.623,0,0,0,1.6,1.6H57.106a1.6,1.6,0,0,0,0-3.2Z"/><path class="e" d="M32.378,68.062v50.626a1.6,1.6,0,0,0,3.2,0V68.062a1.6,1.6,0,0,0-3.2,0Z"/><path class="e" d="M40.309,68.062v50.626a1.6,1.6,0,0,0,3.2,0V68.062a1.6,1.6,0,0,0-3.2,0Z"/><path class="e" d="M32.378,42.838V60.8a1.6,1.6,0,0,0,3.2,0V42.838a1.6,1.6,0,0,0-3.2,0Z"/><path class="e" d="M39.781,42.838V60.8a1.6,1.6,0,0,0,3.2,0V42.838a1.6,1.6,0,0,0-3.2,0Z"/><path class="f" d="M49.48,106.014l2.262.02a.993.993,0,0,1,.987.995c0,1.159,0,2.994-.005,4.229a1,1,0,0,1-1,.992c-.609,0-1.429,0-2.247.007s-1.637-.007-2.247-.007a1,1,0,0,1-1-.992c-.009-1.235-.007-3.07,0-4.229a.994.994,0,0,1,.988-.995Z"/><path class="e" d="M56.746,75.3h14.7l-1.6-1.6c0,12.382.156,24.764.231,37.145.015,2.418.033,4.835.033,7.252l1.6-1.6H56.746l1.6,1.6V73.7a1.6,1.6,0,0,0-3.2,0v44.4a1.623,1.623,0,0,0,1.6,1.6H71.713a1.623,1.623,0,0,0,1.6-1.6c0-12.288-.158-24.577-.231-36.865-.015-2.51-.033-5.021-.033-7.532a1.624,1.624,0,0,0-1.6-1.6h-14.7A1.6,1.6,0,0,0,56.746,75.3Z"/><path class="f" d="M63.484,106.014c.93.009,2.062.017,2.862.021a.994.994,0,0,1,.99,1c0,1.159,0,2.992,0,4.227a1,1,0,0,1-1,.992c-.61,0-1.429,0-2.247.007s-1.638-.007-2.248-.007a1,1,0,0,1-1-.992c-.01-1.236-.008-3.073-.005-4.231a.992.992,0,0,1,.982-1Z"/><path class="f" d="M26.352,106.014l2.262.02a.993.993,0,0,1,.987.995c0,1.159.005,2.994,0,4.229a1,1,0,0,1-1,.992c-.61,0-1.429,0-2.248.007s-1.637-.007-2.247-.007a1,1,0,0,1-1-.992c-.009-1.235-.007-3.07,0-4.229a.993.993,0,0,1,.987-.995Z"/><path class="g" d="M348.939,234.752c-6.073-4.127-10.933-8.163-17-12.29-2.112-1.435-4.337-3.006-5.286-5.376a14.653,14.653,0,0,1-.52-8.382c3.236-12.956,9.055-26.643,13.31-39.3a28.274,28.274,0,0,1,6.579-11.238,21.84,21.84,0,0,1,5.362-4.134c6.213-3.667,14.278-7.3,17.866-9.95l.427.387s6.8,6.121,18.941,6.121,18.942-6.121,18.942-6.121l.032-.029c3.95,2.616,12.093,6.087,18.033,9.592a29.846,29.846,0,0,1,6.12,5.023c3.1,3.032,4.439,6.239,5.82,10.349,4.256,12.658,10.074,26.345,13.311,39.3a14.653,14.653,0,0,1-.52,8.382c-.949,2.37-3.174,3.941-5.286,5.376-6.073,4.127-10.933,8.163-17,12.29"/><path class="d" d="M375.093,137.4a20.71,20.71,0,0,1-.4,2.282c-.025.085-.052.169-.081.253-.017.048-.038.094-.053.142-.047.154.1-.227.089-.207-.108.17-.19.361-.3.533-.136.219.256-.283.033-.044-.065.069-.128.14-.2.205-.041.039-.084.074-.125.112-.119.111-.112-.01.119-.089a2.093,2.093,0,0,0-.307.2c-.1.058-.2.1-.305.16-.183.1.3-.11.094-.036-.051.018-.1.038-.153.058-.163.065-.325.133-.483.208-.187.089-.37.186-.555.279-.61.311-1.219.623-1.83.931-.33.166-.66.332-.992.493-.116.056-.233.112-.351.166-.076.035-.308.133.03-.009.313-.132.154-.063.079-.036a1.6,1.6,0,1,0,.851,3.086,15.553,15.553,0,0,0,1.714-.794c.655-.328,1.307-.662,1.961-1,.219-.112.438-.225.659-.333.086-.043.314-.141-.05.013-.425.179.022,0,.119-.043.237-.1.474-.194.7-.315a4.958,4.958,0,0,0,2.268-2.657,13.634,13.634,0,0,0,.55-2.712,1.638,1.638,0,0,0-1.117-1.968,1.62,1.62,0,0,0-1.969,1.117Z"/><path class="d" d="M398.444,138.632a11.005,11.005,0,0,0,.714,2.908,5.161,5.161,0,0,0,2.984,2.474c.449.176-.48-.224-.139-.062l.265.124q.411.194.821.39l2.191,1.046c.518.247,1.031.515,1.56.738a1.758,1.758,0,0,0,1.232.161,1.6,1.6,0,0,0,.383-2.924c-1.128-.476-2.22-1.054-3.324-1.581-.5-.24-1.006-.485-1.513-.717-.163-.075-.326-.146-.493-.211-.082-.033-.171-.058-.251-.1.046.022.3.148.053.014-.082-.044-.166-.084-.247-.13-.106-.06-.206-.129-.309-.194-.235-.147.23.223-.012-.018-.073-.073-.145-.149-.219-.222-.175-.172.078.1.09.125a1.49,1.49,0,0,0-.117-.172c-.065-.1-.118-.213-.175-.322-.025-.049-.089-.2.016.042.115.261.017.027,0-.036a5.443,5.443,0,0,1-.176-.678c-.1-.5-.157-1.007-.243-1.509a1.607,1.607,0,0,0-1.969-1.117,1.645,1.645,0,0,0-1.117,1.968Z"/><path class="d" d="M349.747,233.37c-3.329-2.271-6.549-4.691-9.78-7.1-3.035-2.26-6.314-4.271-9.251-6.65a7.917,7.917,0,0,1-2.843-3.88,13.249,13.249,0,0,1-.446-5.292,34.959,34.959,0,0,1,1.35-5.447c.545-1.911,1.13-3.81,1.74-5.7,2.464-7.625,5.351-15.1,8.07-22.636a109.189,109.189,0,0,1,3.987-10.779,25.527,25.527,0,0,1,6.5-8.374,30.623,30.623,0,0,1,5.09-3.234c1.985-1.11,4-2.164,6.014-3.216a27.473,27.473,0,0,0,4.987-3.094c1.241-1.026,2.406-2.121,4.082-2.289l-1.131-.469a27.91,27.91,0,0,0,12.513,6.087,35.068,35.068,0,0,0,23.821-2.891,20.846,20.846,0,0,0,4.27-2.837l-1.131.468c1.49.14,2.74,1.179,3.905,2.029a32.553,32.553,0,0,0,4.709,2.79c3.418,1.707,7.127,3.312,10.226,5.571a25.927,25.927,0,0,1,7.035,7.393c1.749,2.983,2.66,6.377,3.8,9.619,2.676,7.612,5.61,15.131,8.2,22.775,1.274,3.763,2.467,7.556,3.48,11.4.847,3.212,1.324,7.258-.781,10.136a16.805,16.805,0,0,1-4.3,3.606c-1.874,1.284-3.714,2.614-5.54,3.964-3.668,2.712-7.294,5.479-11.063,8.05-1.691,1.154-.092,3.928,1.615,2.764,4.6-3.137,8.975-6.571,13.488-9.823,3.941-2.84,8.748-5.206,10.016-10.294,1.305-5.237-.567-10.395-2.108-15.366-1.658-5.351-3.559-10.624-5.488-15.882-1.9-5.182-3.832-10.352-5.6-15.58a39.749,39.749,0,0,0-2.675-6.5,23.207,23.207,0,0,0-4.3-5.42,29.071,29.071,0,0,0-5.616-4.534c-2.4-1.375-4.831-2.663-7.3-3.9a47.532,47.532,0,0,1-6.639-3.861c-1.427-1.03-4.264-2.987-6.034-1.789-.122.082-.227.187-.341.28l-.251.2c.238-.191,0,0-.194.14a27.255,27.255,0,0,1-2.893,1.786,29.59,29.59,0,0,1-10.925,3.236c-7.239.7-14.81-.842-20.767-5.131-.33-.238.067.062-.079-.058-.078-.063-.16-.124-.235-.191-.185-.163-.363-.346-.556-.5-1.708-1.335-4.532.387-5.954,1.5-.734.574-1.416,1.217-2.166,1.769a26.136,26.136,0,0,1-3.488,1.976c-2.491,1.3-4.984,2.6-7.418,4a27.805,27.805,0,0,0-10.542,10.191c-2.628,4.562-3.988,9.806-5.777,14.728-1.917,5.273-3.9,10.522-5.742,15.82a129.23,129.23,0,0,0-4.791,15.717c-1,4.738-.023,9.917,3.805,13.112,1.993,1.664,4.236,3.03,6.341,4.547,2.229,1.607,4.422,3.263,6.627,4.9,2.259,1.68,4.535,3.334,6.861,4.921,1.7,1.163,3.308-1.609,1.615-2.764Z"/><path class="d" d="M344.319,203.146a36.769,36.769,0,0,0-6.365,4.392,1.607,1.607,0,0,0,0,2.263,1.641,1.641,0,0,0,2.262,0q.335-.285.673-.562.192-.155.385-.308l.173-.135c.171-.134-.238.18-.064.05.483-.361.967-.718,1.465-1.058a34.78,34.78,0,0,1,3.086-1.879,1.615,1.615,0,0,0,.574-2.189,1.635,1.635,0,0,0-2.189-.574Z"/><path class="d" d="M431.907,205.909a34.78,34.78,0,0,1,3.086,1.879c.483.329.955.673,1.422,1.025.161.122.009.011-.064-.05.056.047.116.09.173.135.129.1.257.2.385.307q.361.292.716.6a1.6,1.6,0,0,0,2.262-2.263,36.769,36.769,0,0,0-6.365-4.392,1.6,1.6,0,1,0-1.615,2.763Z"/><path class="d" d="M414.514,147.665c-11.558,9.684-29.024,10.763-42.752,5.527a32.672,32.672,0,0,1-9.564-5.527c-1.558-1.33-3.832.923-2.262,2.263,5.725,4.887,13.047,7.673,20.425,8.839a49.739,49.739,0,0,0,24.293-1.955,39.259,39.259,0,0,0,12.123-6.884c1.581-1.324-.693-3.578-2.263-2.263Z"/><path class="c" d="M400.939,90.143a47.586,47.586,0,0,0,3.358,8.608c1.424,2.357,5.293,7.5,8.984,8.9a3.518,3.518,0,0,1,3.826-2.04,3.08,3.08,0,0,1,.477.108c2.15-4.949,1.065-13.314.206-17.486C415.134,75.31,402.018,65.05,388.264,65.8c-13.754-.75-26.87,9.51-29.525,22.436a36.466,36.466,0,0,0,.02,12.233l1.03,5.142a3.622,3.622,0,0,1,3.638,1.685c5.192-3.929,14.3-9.6,18.807-13.349-.393,2.356-1.788,6.364-.03,5.952,7.382-1.653,14.455-5,18.7-10.216"/><path class="d" d="M360.3,100.044a30.916,30.916,0,0,1-.269-9.771,23.085,23.085,0,0,1,3.24-9.261,28.532,28.532,0,0,1,15.882-12.46,34.678,34.678,0,0,1,10.554-1.191,26.47,26.47,0,0,1,10,2.028A28.415,28.415,0,0,1,414.481,83.31,31.218,31.218,0,0,1,417,93.565c.39,3.85.56,8.042-.941,11.688a1.613,1.613,0,0,0,1.118,1.969,1.639,1.639,0,0,0,1.968-1.118c1.464-3.558,1.453-7.691,1.152-11.467a39.481,39.481,0,0,0-1.957-10.324A31.3,31.3,0,0,0,392.4,64.3a38.055,38.055,0,0,0-11.685.533,31.862,31.862,0,0,0-18.657,12.242,29.832,29.832,0,0,0-4.838,23.819c.447,2.009,3.533,1.158,3.085-.851Z"/><path class="d" d="M399.4,90.569c1.195,3.942,2.548,7.878,5.027,11.209,2.3,3.091,5.381,6.8,9.333,7.684,2.006.448,2.863-2.637.851-3.086a9.175,9.175,0,0,1-4.07-2.462,27.939,27.939,0,0,1-3.606-4.1,33.188,33.188,0,0,1-4.45-10.1c-.6-1.965-3.685-1.128-3.085.851Z"/><path class="d" d="M399.773,88.551a27.453,27.453,0,0,1-11.312,7.783q-1.622.633-3.292,1.134-.888.267-1.786.5-.5.129-1,.248c-.558.132-.9-.024-.021.465.848.476.532.382.6-.32a11.075,11.075,0,0,1,.208-1.154c.2-.946.436-1.883.6-2.835a1.615,1.615,0,0,0-2.674-1.557c-6.221,5.134-13.355,9.059-19.7,14.035-1.619,1.27.66,3.52,2.263,2.263,6.346-4.977,13.473-8.9,19.7-14.035l-2.675-1.557c-.348,1.968-1.463,4.5-.78,6.489a2.214,2.214,0,0,0,2.627,1.445,33.209,33.209,0,0,0,4.463-1.21c5.654-1.843,11.192-4.792,15.035-9.432,1.3-1.574-.948-3.851-2.263-2.263Z"/><path class="d" d="M415.183,107.64a2.153,2.153,0,0,1,3.073.4,4.425,4.425,0,0,1,.428,2.234,13.071,13.071,0,0,1-.186,2.68c-.582,3.187-2.213,7-5.752,7.631a1.614,1.614,0,0,0-1.118,1.968,1.637,1.637,0,0,0,1.969,1.117c5.309-.952,7.84-6.952,8.239-11.764.2-2.453.02-5.278-2.1-6.871a5.448,5.448,0,0,0-6.812.338,1.614,1.614,0,0,0,0,2.263,1.636,1.636,0,0,0,2.263,0Z"/><path class="d" d="M411.532,119.289a14.465,14.465,0,0,1-.843,3.913c-.075.229-.161.457-.23.689-.029.1-.159.387.013-.015-.117.274-.246.542-.38.807a32.663,32.663,0,0,1-2.822,4.538c-2.473,3.391-5.829,6.982-10.065,7.976-2,.47-1.156,3.556.851,3.086,5.006-1.175,8.893-5.271,11.839-9.259,2.546-3.447,4.659-7.353,4.837-11.735.083-2.06-3.117-2.056-3.2,0Z"/><path class="d" d="M363.935,105.377a5.451,5.451,0,0,0-6.812-.338c-2.126,1.589-2.308,4.421-2.1,6.871.4,4.812,2.93,10.812,8.239,11.764a1.643,1.643,0,0,0,1.968-1.117,1.613,1.613,0,0,0-1.117-1.968c-3.539-.635-5.171-4.445-5.752-7.631a12.932,12.932,0,0,1-.188-2.531,5.058,5.058,0,0,1,.368-2.282,2.141,2.141,0,0,1,3.135-.5,1.646,1.646,0,0,0,2.263,0,1.615,1.615,0,0,0,0-2.263Z"/><path class="d" d="M362.294,119.042a29.609,29.609,0,0,0,6.3,14.173c3.543,4.194,8.232,7.235,13.757,7.832a1.611,1.611,0,0,0,1.6-1.6,1.636,1.636,0,0,0-1.6-1.6c-4.774-.516-8.765-3.562-11.728-7.175a26.7,26.7,0,0,1-5.244-12.481c-.353-2.025-3.438-1.167-3.086.851Z"/><path class="d" d="M383.749,129.205a10.577,10.577,0,0,0,5.093,1.185,8.352,8.352,0,0,0,5.2-1.561,1.6,1.6,0,0,0,0-2.263,1.651,1.651,0,0,0-2.263,0c.545-.424-.077.027-.253.12-.138.072-.515.181-.036.032-.142.044-.279.108-.421.153-.179.058-.36.107-.544.149-.129.03-.511.173-.633.12l.172-.023c-.066.008-.133.015-.2.021-.115.012-.231.021-.347.029-.278.018-.558.025-.837.023q-.375,0-.749-.027c-.114-.008-.229-.017-.343-.028s-.455.02-.081-.007a3.566,3.566,0,0,1-1.1-.244c-.154-.046-.3-.1-.456-.153-.377-.129.31.151-.031-.01q-.284-.133-.559-.279a1.6,1.6,0,0,0-1.615,2.763Z"/><path class="d" d="M387.883,117.4a23.074,23.074,0,0,1,.545,2.493l-.057-.426a1.524,1.524,0,0,1,.009.344l.057-.425a.825.825,0,0,1-.038.154l.162-.382a.649.649,0,0,1-.055.1l.25-.324a.511.511,0,0,1-.081.08l.324-.25a1.622,1.622,0,0,1-.2.1l.382-.161a1.375,1.375,0,0,1-.332.1l.425-.057a1.3,1.3,0,0,1-.312,0l.425.057c-.118-.017-.233-.045-.351-.061a1.215,1.215,0,0,0-.638-.029,1.2,1.2,0,0,0-.595.19,1.6,1.6,0,0,0-.574,2.189,1.529,1.529,0,0,0,.956.735c.3.04.585.115.887.128a2.886,2.886,0,0,0,1.342-.324,2.005,2.005,0,0,0,1.092-1.316,3.166,3.166,0,0,0-.011-1.38c-.136-.8-.322-1.6-.528-2.386A1.6,1.6,0,0,0,389,115.427a1.619,1.619,0,0,0-.957.736,1.683,1.683,0,0,0-.161,1.232Z"/><path class="d" d="M375.017,110.252c-.416,1.353-.145,4.464,2.417,4.729,3.387-.021,3.567-3.782,2.427-5.551C378.927,107.983,376.183,107.38,375.017,110.252Z"/><path class="d" d="M402.135,110.252c.416,1.353.145,4.464-2.417,4.729-3.387-.021-3.567-3.782-2.427-5.551C398.224,107.982,400.969,107.38,402.135,110.252Z"/><path class="d" d="M109.76,137.4a20.713,20.713,0,0,1-.4,2.282c-.024.085-.051.169-.081.253-.016.048-.037.094-.052.142-.047.154.1-.227.088-.207-.107.17-.19.361-.3.533-.135.219.257-.283.034-.044-.065.069-.128.14-.2.205-.04.039-.084.074-.124.112-.119.111-.113-.01.119-.089a1.992,1.992,0,0,0-.307.2c-.1.058-.205.1-.305.16-.184.1.3-.11.094-.036-.051.018-.1.038-.154.058-.162.065-.324.133-.482.208-.187.089-.371.186-.555.279-.61.311-1.219.623-1.83.931-.33.166-.66.332-.992.493-.117.056-.233.112-.351.166-.076.035-.308.133.029-.009.314-.132.155-.063.08-.036a1.6,1.6,0,1,0,.85,3.086,15.468,15.468,0,0,0,1.714-.794c.656-.328,1.308-.662,1.961-1,.219-.112.438-.225.659-.333.086-.043.314-.141-.049.013-.425.179.022,0,.119-.043.236-.1.474-.194.7-.315a4.958,4.958,0,0,0,2.268-2.657,13.634,13.634,0,0,0,.55-2.712,1.638,1.638,0,0,0-1.118-1.968,1.619,1.619,0,0,0-1.968,1.117Z"/><path class="d" d="M133.111,138.632a10.967,10.967,0,0,0,.714,2.908,5.162,5.162,0,0,0,2.983,2.474c.449.176-.48-.224-.139-.062l.266.124q.411.194.821.39l2.191,1.046c.517.247,1.031.515,1.559.738a1.76,1.76,0,0,0,1.233.161,1.6,1.6,0,0,0,.382-2.924c-1.127-.476-2.22-1.054-3.324-1.581-.5-.24-1-.485-1.513-.717-.162-.075-.325-.146-.492-.211-.082-.033-.171-.058-.251-.1.045.022.3.148.053.014-.082-.044-.166-.084-.247-.13-.107-.06-.206-.129-.309-.194-.235-.147.23.223-.012-.018-.074-.073-.145-.149-.219-.222-.175-.172.077.1.09.125a1.49,1.49,0,0,0-.117-.172c-.066-.1-.119-.213-.175-.322-.026-.049-.09-.2.016.042.115.261.016.027,0-.036a5.443,5.443,0,0,1-.176-.678c-.1-.5-.157-1.007-.244-1.509a1.606,1.606,0,0,0-1.968-1.117,1.643,1.643,0,0,0-1.117,1.968Z"/><path class="d" d="M149.85,107.64a2.153,2.153,0,0,1,3.073.4,4.424,4.424,0,0,1,.427,2.234,13,13,0,0,1-.185,2.68c-.582,3.187-2.214,7-5.752,7.631a1.613,1.613,0,0,0-1.118,1.968,1.636,1.636,0,0,0,1.968,1.117c5.31-.952,7.84-6.952,8.24-11.764.2-2.453.02-5.278-2.1-6.871a5.447,5.447,0,0,0-6.811.338,1.613,1.613,0,0,0,0,2.263,1.636,1.636,0,0,0,2.263,0Z"/><path class="d" d="M146.2,119.289a14.5,14.5,0,0,1-.843,3.913c-.075.229-.161.457-.231.689-.029.1-.158.387.014-.015-.118.274-.246.542-.38.807a32.669,32.669,0,0,1-2.823,4.538c-2.473,3.391-5.828,6.982-10.064,7.976-2,.47-1.156,3.556.85,3.086,5.007-1.175,8.894-5.271,11.839-9.259,2.546-3.447,4.66-7.353,4.838-11.735.083-2.06-3.117-2.056-3.2,0Z"/><path class="d" d="M98.6,105.377a5.449,5.449,0,0,0-6.811-.338c-2.126,1.589-2.308,4.421-2.105,6.871.4,4.812,2.931,10.812,8.24,11.764a1.644,1.644,0,0,0,1.968-1.117,1.613,1.613,0,0,0-1.117-1.968c-3.539-.635-5.171-4.445-5.753-7.631a13.009,13.009,0,0,1-.188-2.531,5.058,5.058,0,0,1,.368-2.282,2.141,2.141,0,0,1,3.135-.5,1.646,1.646,0,0,0,2.263,0,1.613,1.613,0,0,0,0-2.263Z"/><path class="d" d="M96.961,119.042a29.609,29.609,0,0,0,6.3,14.173c3.543,4.194,8.232,7.235,13.757,7.832a1.611,1.611,0,0,0,1.6-1.6,1.637,1.637,0,0,0-1.6-1.6c-4.775-.516-8.765-3.562-11.728-7.175a26.7,26.7,0,0,1-5.244-12.481c-.354-2.025-3.438-1.167-3.086.851Z"/><path class="d" d="M118.415,129.205a10.58,10.58,0,0,0,5.093,1.185,8.355,8.355,0,0,0,5.2-1.561,1.6,1.6,0,0,0,0-2.263,1.651,1.651,0,0,0-2.263,0c.545-.424-.077.027-.253.12-.138.072-.516.181-.036.032-.142.044-.279.108-.421.153-.179.058-.361.107-.544.149-.13.03-.512.173-.633.12l.172-.023-.2.021c-.116.012-.231.021-.347.029-.279.018-.558.025-.837.023q-.375,0-.749-.027c-.115-.008-.229-.017-.343-.028s-.456.02-.081-.007a3.559,3.559,0,0,1-1.1-.244c-.154-.046-.3-.1-.456-.153-.377-.129.309.151-.032-.01q-.282-.133-.558-.279a1.6,1.6,0,1,0-1.616,2.763Z"/><path class="d" d="M122.55,117.4a23.07,23.07,0,0,1,.544,2.493l-.057-.426a1.524,1.524,0,0,1,.01.344l.057-.425a.825.825,0,0,1-.038.154l.161-.382a.643.643,0,0,1-.054.1l.25-.324a.517.517,0,0,1-.082.08l.324-.25a1.609,1.609,0,0,1-.2.1l.382-.161a1.382,1.382,0,0,1-.333.1l.426-.057a1.3,1.3,0,0,1-.312,0l.425.057c-.118-.017-.233-.045-.351-.061a1.216,1.216,0,0,0-.638-.029,1.2,1.2,0,0,0-.595.19,1.6,1.6,0,0,0-.574,2.189,1.526,1.526,0,0,0,.956.735c.3.04.584.115.886.128a2.89,2.89,0,0,0,1.343-.324,2.008,2.008,0,0,0,1.092-1.316,3.15,3.15,0,0,0-.012-1.38c-.135-.8-.321-1.6-.528-2.386a1.6,1.6,0,0,0-1.968-1.118,1.62,1.62,0,0,0-.956.736,1.678,1.678,0,0,0-.161,1.232Z"/><path class="d" d="M109.684,110.252c-.417,1.353-.145,4.464,2.417,4.729,3.386-.021,3.566-3.782,2.426-5.551C113.594,107.983,110.85,107.38,109.684,110.252Z"/><path class="d" d="M136.8,110.252c.417,1.353.146,4.464-2.417,4.729-3.386-.021-3.566-3.782-2.426-5.551C132.891,107.982,135.635,107.38,136.8,110.252Z"/><path class="a" d="M126.752,158.258c-1.124.091-2.338.144-3.638.144a36.651,36.651,0,0,1-12.407-1.924q.4,1.11.827,2.231c4.178,10.9,10.07,23.127,13.021,29.5l.179.388c3.325-8.092,7.5-19.818,10.481-29.765.253-.844.494-1.684.723-2.512A32.6,32.6,0,0,1,126.752,158.258Z"/><path class="h" d="M83.236,234.752c-6.1-4.148-10.989-8.2-17.093-12.353-2.122-1.442-4.359-3.022-5.313-5.4a14.732,14.732,0,0,1-.523-8.425c3.254-13.022,9.1-26.78,13.38-39.5,1.388-4.131,2.928-8.4,6.043-11.449a24.426,24.426,0,0,1,5.958-4c7.038-4.153,16.438-8.258,19.1-10.968l1.508-1.534.1.491a126.256,126.256,0,0,0,5.133,17.1c4.178,10.9,10.07,23.127,13.021,29.5l.179.388c3.325-8.092,7.5-19.818,10.481-29.765,2.29-7.641,3.57-14.846,4.007-16.968l.086-.42,1.186,1.206c2.662,2.71,12.779,6.815,19.816,10.968a24.407,24.407,0,0,1,5.958,4c3.115,3.048,4.655,7.318,6.044,11.449,4.277,12.722,10.126,26.48,13.379,39.5a14.732,14.732,0,0,1-.523,8.425c-.954,2.382-3.19,3.962-5.313,5.4-6.1,4.149-10.989,8.205-17.093,12.353Z"/><path class="d" d="M142.639,146.994a164.806,164.806,0,0,1,18.552,8.918,17.2,17.2,0,0,1,7.185,7.47,88.245,88.245,0,0,1,3.872,10.39c2.678,7.578,5.595,15.071,8.16,22.689,1.249,3.708,2.417,7.446,3.409,11.231.84,3.2,1.217,7.306-.949,10.118a18.547,18.547,0,0,1-4.427,3.624c-1.813,1.248-3.595,2.538-5.365,3.846-3.687,2.725-7.332,5.5-11.119,8.089-1.69,1.155-.091,3.929,1.615,2.764,3.534-2.414,6.946-4.992,10.38-7.542,1.754-1.3,3.517-2.592,5.308-3.842a50.2,50.2,0,0,0,4.532-3.307c6.457-5.673,3.245-14.718,1.074-21.625-2.578-8.2-5.69-16.216-8.605-24.3-2.542-7.051-4.2-15.567-10.456-20.391a46.9,46.9,0,0,0-5.6-3.419c-1.883-1.074-3.813-2.062-5.766-3-3.593-1.727-7.266-3.276-10.949-4.8a1.611,1.611,0,0,0-1.968,1.118,1.639,1.639,0,0,0,1.117,1.968Z"/><path class="d" d="M84.042,233.369c-3.344-2.283-6.58-4.714-9.828-7.131-3.051-2.271-6.347-4.293-9.3-6.684-2.855-2.311-3.727-5.637-3.314-9.229a35.088,35.088,0,0,1,1.359-5.474c.549-1.921,1.137-3.83,1.751-5.731,2.476-7.662,5.375-15.178,8.108-22.751,1.288-3.569,2.393-7.22,3.8-10.744a17.978,17.978,0,0,1,6.038-8.363c1.743-1.226,3.673-2.184,5.522-3.236q2.889-1.644,5.853-3.15c3.11-1.59,6.278-3.061,9.421-4.583,1.853-.9.232-3.658-1.615-2.764a220.31,220.31,0,0,0-19.559,10.158,19.671,19.671,0,0,0-7.418,8.08,93.3,93.3,0,0,0-4.121,10.939c-2.857,8.091-5.989,16.085-8.679,24.235A90.75,90.75,0,0,0,58.6,208.905c-.627,3.443-.323,7.628,1.786,10.545a17.682,17.682,0,0,0,4.474,4.006c1.983,1.366,3.953,2.749,5.893,4.177,3.878,2.853,7.7,5.783,11.675,8.5,1.7,1.164,3.308-1.608,1.615-2.764Z"/><path class="d" d="M110.279,158.024a38.484,38.484,0,0,0,13.776,1.968,35.878,35.878,0,0,0,12.305-2.128c1.895-.745,1.07-3.84-.851-3.086a33.281,33.281,0,0,1-11.454,2.014,35.825,35.825,0,0,1-12.925-1.854c-1.939-.7-2.774,2.387-.851,3.086Z"/><path class="d" d="M127.452,200.53c4.4-6.64,8.569-13.438,12.705-20.246,3-4.93,6.1-9.838,8.857-14.908a2.187,2.187,0,0,0,.149-2.417,20.685,20.685,0,0,0-3.633-4.273v2.263a23.908,23.908,0,0,0,4.763-5.472c.895-1.61-1.236-4.31-2.084-5.643a46.24,46.24,0,0,0-4.34-5.842c-1.051-1.187-2.488-2.841-4.148-3.112A1.63,1.63,0,0,0,137.753,142a262.771,262.771,0,0,1-13.481,43.49c-1.2,3.023-2.429,6.043-3.874,8.958-.912,1.839,1.847,3.462,2.763,1.615a177.924,177.924,0,0,0,7.565-18.651c2.91-8.054,5.655-16.2,7.8-24.5.861-3.334,1.622-6.691,2.316-10.063l-1.969,1.117c.408.067.382.079.837.416a9.944,9.944,0,0,1,1,.912,28.573,28.573,0,0,1,2.68,3.163,32.31,32.31,0,0,1,4.034,6.54l.161-1.233a21.007,21.007,0,0,1-4.316,4.922,1.615,1.615,0,0,0,0,2.263,39.916,39.916,0,0,1,2.939,3.346c.073.084.138.266.227.333.509.383-.244-1.237,0-1.186-.06-.012.161-.257,0-.031-.124.177-.214.4-.32.585-1.032,1.85-2.124,3.668-3.205,5.49q-5.7,9.6-11.6,19.074c-2.168,3.476-4.357,6.94-6.621,10.355-1.141,1.721,1.629,3.325,2.763,1.615Z"/><path class="d" d="M122.911,193.6c-4.657-5.611-9.042-11.451-13.381-17.31-3.336-4.5-6.685-9.016-9.846-13.648-.159-.233-.3-.487-.476-.71-.5-.643.542.778-.073,1.121.442-.246.953-1.238,1.286-1.627a21.545,21.545,0,0,1,1.656-1.788,1.614,1.614,0,0,0,0-2.263,42.953,42.953,0,0,1-4.278-4.914l.412,1.556a26.246,26.246,0,0,1,3.931-5.872,30.222,30.222,0,0,1,2.727-2.952,8.627,8.627,0,0,1,1.066-.879,3.682,3.682,0,0,1,.456-.272c.259-.122-.113,0,.275-.071l-1.969-1.117a116.109,116.109,0,0,0,5.759,17.487c2.653,6.781,5.632,13.432,8.689,20.039,1.334,2.884,2.692,5.757,4.028,8.64.865,1.867,3.624.243,2.763-1.615-5.7-12.288-11.558-24.519-15.821-37.4a78.45,78.45,0,0,1-2.332-8,1.634,1.634,0,0,0-1.968-1.118c-2.4.459-4.488,3.241-5.935,5a28.771,28.771,0,0,0-4.755,7.285,1.612,1.612,0,0,0,.412,1.556,42.768,42.768,0,0,0,4.278,4.915V157.37a26.022,26.022,0,0,0-3.09,3.564,2.115,2.115,0,0,0-.327,2.534c.864,1.513,2.007,2.917,3.017,4.332q6.478,9.081,13.25,17.949c2.607,3.412,5.241,6.805,7.983,10.109,1.317,1.586,3.57-.688,2.263-2.263Z"/><path class="a" d="M388.5,175.237c-18.573.134-37.056.242-43.619.264A1.887,1.887,0,0,0,343,177.4c.038,10.662.553,47.563.944,61.127a1.89,1.89,0,0,0,1.922,1.834c5.931-.091,24.3-.035,42.634.028,18.334-.063,36.7-.119,42.634-.028a1.89,1.89,0,0,0,1.922-1.834c.392-13.564.906-50.465.944-61.127a1.886,1.886,0,0,0-1.881-1.9C425.556,175.479,407.072,175.371,388.5,175.237Z"/><path class="d" d="M388.5,173.637q-19.653.141-39.307.246c-1.731.008-4.185-.4-5.778.357-2.119,1.012-2.017,3.121-2,5.108q.036,5.589.109,11.179.176,14.8.433,29.6.117,6.62.261,13.24c.038,1.654.029,3.319.125,4.97a3.67,3.67,0,0,0,1.768,3.162,5.7,5.7,0,0,0,3.027.441c11.974-.119,23.952-.014,35.927.025,13.647.045,27.3-.08,40.943-.053,2.02,0,4.041.009,6.062.03a5.312,5.312,0,0,0,2.828-.443,3.769,3.769,0,0,0,1.773-3.349c.172-3.727.182-7.469.254-11.2q.292-14.907.477-29.815.084-6.468.151-12.937.024-2.427.041-4.854c.014-2.084.055-4.491-2.386-5.269-1.672-.533-3.934-.189-5.673-.2l-7.572-.041q-10.065-.057-20.13-.125l-11.329-.079a1.6,1.6,0,0,0,0,3.2q18.938.137,37.875.239c1.788.009,3.6-.061,5.381.024.815.039.644.533.64,1.218q0,.984-.012,1.967-.041,5.409-.11,10.816-.169,14.118-.413,28.235-.111,6.394-.246,12.788-.055,2.524-.121,5.049c-.018.667.215,1.446-.523,1.583a12.315,12.315,0,0,1-2.18-.023c-11.617-.084-23.235,0-34.851.034-13.16.044-26.321-.071-39.481-.056q-3.125,0-6.249.022a13.808,13.808,0,0,1-2.18.023c-.75-.123-.5-.924-.523-1.583q-.147-5.546-.245-11.091-.272-14.155-.451-28.314-.083-6.3-.15-12.591-.024-2.446-.044-4.892-.007-.982-.012-1.967c0-.679-.17-1.179.639-1.218,4.293-.208,8.639-.041,12.936-.065q9.738-.057,19.476-.123,5.423-.036,10.844-.075A1.6,1.6,0,0,0,388.5,173.637Z"/><path class="d" d="M351.958,233.619c19.993-.122,39.991.015,59.984-.014,4.367-.006,8.733-.012,13.1.014a1.6,1.6,0,0,0,0-3.2c-19.994-.122-39.991.015-59.985-.014-4.366-.006-8.732-.012-13.1.014a1.6,1.6,0,0,0,0,3.2Z"/><path class="d" d="M388.5,200.962c-1.356.013-2.713.031-4.069.033a1.623,1.623,0,0,0-1.6,1.6q-.009,2.135-.006,4.269,0,1.254.01,2.507c0,.3,0,.6.012.9a1.666,1.666,0,0,0,1.745,1.714c2.438,0,4.877-.017,7.315,0a2.855,2.855,0,0,0,1.451-.207,1.915,1.915,0,0,0,.8-1.874c.011-.783.013-1.566.015-2.348q.006-2.479,0-4.958a1.623,1.623,0,0,0-1.6-1.6c-1.356,0-2.713-.02-4.07-.033a1.6,1.6,0,0,0,0,3.2c1.357.013,2.714.031,4.07.033l-1.6-1.6c.01,2.6.045,5.2-.019,7.8l.218-.808h0l1.381-.793c-.447-.041-.908-.013-1.357-.012-.9,0-1.8.009-2.693.009-.876,0-1.753-.008-2.629-.009-.469,0-.953-.031-1.421.012l1.382.793h0l.219.808c-.065-2.6-.029-5.2-.019-7.8l-1.6,1.6c1.356,0,2.713-.02,4.069-.033a1.6,1.6,0,0,0,0-3.2Z"/><path class="d" d="M95.735,103.977c-1.989-8.951-.646-18.43,4.919-25.875a25.585,25.585,0,0,1,18.934-10.225c5.038-.361,10.543.4,14.937,3.02a1.6,1.6,0,0,0,1.615-2.763c-8.653-5.157-20.755-4.514-29.4.271-6.784,3.754-11.555,10.748-13.751,18.059a36.431,36.431,0,0,0-.336,18.363c.447,2.01,3.533,1.16,3.086-.85Z"/><path class="d" d="M140.2,73.466c2.617.93,4.979,3.31,6.573,5.527a26.9,26.9,0,0,1,3.76,7.684c1.665,5.318,2.2,11.289.517,16.67-.616,1.97,2.472,2.813,3.086.851,1.914-6.113,1.284-13.062-.743-19.064-2.021-5.983-6.089-12.532-12.343-14.754-1.944-.69-2.78,2.4-.85,3.086Z"/><path class="d" d="M138.318,92.753a23.235,23.235,0,0,1,7.129,14.65,1.644,1.644,0,0,0,1.6,1.6,1.611,1.611,0,0,0,1.6-1.6A26.637,26.637,0,0,0,140.58,90.49c-1.485-1.426-3.751.833-2.262,2.263Z"/><path class="d" d="M132.75,88.9c-1.116,2.7-4.144,3.723-6.677,4.612a35.4,35.4,0,0,1-10.557,2.02c-2.053.079-2.063,3.28,0,3.2a39.825,39.825,0,0,0,12.192-2.413c3.534-1.274,6.629-2.94,8.127-6.569a1.61,1.61,0,0,0-1.117-1.968A1.641,1.641,0,0,0,132.75,88.9Z"/><path class="d" d="M120.286,86.431a20.967,20.967,0,0,1-4.847,6.746,17.75,17.75,0,0,1-7.468,3.622c-2.673.672-5.345,1.129-7.362,3.187a15.018,15.018,0,0,0-3.5,7.254c-.457,2.005,2.627,2.861,3.086.851.534-2.344,1.387-5.049,3.442-6.506a10.194,10.194,0,0,1,3.731-1.365,26.637,26.637,0,0,0,3.919-1.151,19.667,19.667,0,0,0,7.094-4.277,24,24,0,0,0,4.67-6.746c.861-1.857-1.9-3.484-2.763-1.615Z"/><path class="d" d="M132.185,124.814a5.209,5.209,0,0,1,.622.672l-.25-.324a5.281,5.281,0,0,1,.667,1.15l-.161-.382a5.244,5.244,0,0,1,.246.752,1.6,1.6,0,0,0,1.969,1.117,1.619,1.619,0,0,0,.956-.735,1.7,1.7,0,0,0,.161-1.233,6.6,6.6,0,0,0-.736-1.784,7.828,7.828,0,0,0-.667-.922,5.088,5.088,0,0,0-.544-.574,1.683,1.683,0,0,0-1.131-.469,1.632,1.632,0,0,0-1.132.469,1.6,1.6,0,0,0,0,2.263Z"/><path class="d" d="M78.4,203.146a36.807,36.807,0,0,0-6.365,4.392,1.608,1.608,0,0,0,0,2.263,1.643,1.643,0,0,0,2.263,0q.333-.285.673-.562.192-.155.385-.308l.172-.135c.171-.134-.237.18-.063.05.482-.361.967-.718,1.464-1.058a34.941,34.941,0,0,1,3.087-1.879,1.615,1.615,0,0,0,.574-2.189,1.636,1.636,0,0,0-2.19-.574Z"/><path class="d" d="M165.986,205.909a34.78,34.78,0,0,1,3.086,1.879c.482.329.955.673,1.421,1.025.162.122.009.011-.063-.05.056.047.115.09.173.135.129.1.257.2.385.307q.362.292.715.6a1.6,1.6,0,0,0,2.263-2.263,36.769,36.769,0,0,0-6.365-4.392,1.6,1.6,0,1,0-1.615,2.763Z"/><path class="a" d="M123,175.237c-18.573.134-37.056.242-43.619.264a1.887,1.887,0,0,0-1.881,1.9c.038,10.662.553,47.563.944,61.127a1.89,1.89,0,0,0,1.922,1.834c5.931-.091,24.3-.035,42.634.028,18.334-.063,36.7-.119,42.634-.028a1.89,1.89,0,0,0,1.922-1.834c.392-13.564.906-50.465.944-61.127a1.887,1.887,0,0,0-1.881-1.9C160.055,175.479,141.572,175.371,123,175.237Z"/><path class="d" d="M123,173.637q-19.653.141-39.307.246c-1.731.008-4.185-.4-5.778.357-2.12,1.012-2.018,3.121-2,5.108q.037,5.589.11,11.179.175,14.8.433,29.6.115,6.62.261,13.24c.037,1.654.028,3.319.125,4.97a3.67,3.67,0,0,0,1.768,3.162,5.7,5.7,0,0,0,3.026.441c11.975-.119,23.953-.014,35.928.025,13.647.045,27.295-.08,40.942-.053,2.021,0,4.042.009,6.062.03a5.315,5.315,0,0,0,2.829-.443,3.771,3.771,0,0,0,1.773-3.349c.172-3.727.181-7.469.254-11.2q.291-14.907.476-29.815.086-6.468.152-12.937.024-2.427.041-4.854c.014-2.084.055-4.491-2.387-5.269-1.671-.533-3.933-.189-5.673-.2l-7.572-.041q-10.065-.057-20.129-.125L123,173.637a1.6,1.6,0,0,0,0,3.2q18.938.137,37.874.239c1.788.009,3.6-.061,5.382.024.815.039.644.533.64,1.218q0,.984-.013,1.967-.041,5.409-.11,10.816-.168,14.118-.412,28.235-.111,6.394-.246,12.788-.056,2.524-.122,5.049c-.017.667.216,1.446-.522,1.583a12.327,12.327,0,0,1-2.181-.023c-11.616-.084-23.234,0-34.85.034-13.161.044-26.321-.071-39.481-.056q-3.124,0-6.249.022a13.82,13.82,0,0,1-2.181.023c-.749-.123-.505-.924-.522-1.583-.1-3.7-.174-7.394-.245-11.091q-.272-14.155-.451-28.314-.084-6.3-.15-12.591-.025-2.446-.044-4.892-.007-.982-.013-1.967c0-.679-.17-1.179.64-1.218,4.293-.208,8.639-.041,12.936-.065q9.738-.057,19.475-.123,5.423-.036,10.845-.075A1.6,1.6,0,0,0,123,173.637Z"/><path class="d" d="M86.458,233.619c19.993-.122,39.99.015,59.984-.014,4.366-.006,8.733-.012,13.1.014a1.6,1.6,0,0,0,0-3.2c-19.994-.122-39.991.015-59.985-.014-4.366-.006-8.732-.012-13.1.014a1.6,1.6,0,0,0,0,3.2Z"/><path class="d" d="M123,200.962c-1.356.013-2.713.031-4.07.033a1.625,1.625,0,0,0-1.6,1.6q-.007,2.135,0,4.269c0,.836,0,1.672.01,2.507,0,.3,0,.6.012.9a1.666,1.666,0,0,0,1.745,1.714c2.438,0,4.877-.017,7.315,0a2.855,2.855,0,0,0,1.451-.207,1.915,1.915,0,0,0,.8-1.874c.011-.783.013-1.566.015-2.348q0-2.479,0-4.958a1.624,1.624,0,0,0-1.6-1.6c-1.357,0-2.713-.02-4.07-.033a1.6,1.6,0,1,0,0,3.2c1.357.013,2.713.031,4.07.033l-1.6-1.6c.01,2.6.045,5.2-.019,7.8l.218-.808h0l1.381-.793c-.447-.041-.909-.013-1.357-.012-.9,0-1.795.009-2.693.009-.876,0-1.753-.008-2.629-.009-.47,0-.953-.031-1.421.012l1.382.793h0l.219.808c-.065-2.6-.03-5.2-.02-7.8l-1.6,1.6c1.357,0,2.714-.02,4.07-.033a1.6,1.6,0,0,0,0-3.2Z"/><path class="f" d="M264.462,155.116c-6.848-2.364-18.586-6.25-24.239-8.385a.345.345,0,0,0-.45.435c1.291,3.672,2.889,10.759,4.506,14.753a.344.344,0,0,1-.465.441c-5.073-2.34-22.25-11.462-29.767-15.473a.347.347,0,0,1,.263-.639c6.352,1.848,16.917,4.249,21.319,5.84a.344.344,0,0,0,.432-.463c-1.69-3.878-3.888-10.228-5.26-13.826a.345.345,0,0,1,.455-.444c6.191,2.625,25.081,12.638,33.484,17.127A.347.347,0,0,1,264.462,155.116Z"/><path class="e" d="M33.978,66.462H18.814a1.6,1.6,0,0,0,0,3.2H33.978a1.6,1.6,0,0,0,0-3.2Z"/><path class="e" d="M33.978,117.088h-14.9a1.6,1.6,0,0,0,0,3.2h14.9a1.6,1.6,0,0,0,0-3.2Z"/><path class="e" d="M33.978,59.2H18.814a1.6,1.6,0,0,0,0,3.2H33.978a1.6,1.6,0,0,0,0-3.2Z"/><path class="e" d="M19.011,75.3h14.7l-1.6-1.6c0,12.382.156,24.764.231,37.145.015,2.418.033,4.835.033,7.252l1.6-1.6H19.011l1.6,1.6V73.7a1.6,1.6,0,0,0-3.2,0v44.4a1.623,1.623,0,0,0,1.6,1.6H33.978a1.623,1.623,0,0,0,1.6-1.6c0-12.288-.158-24.577-.231-36.865-.015-2.51-.033-5.021-.033-7.532a1.624,1.624,0,0,0-1.6-1.6h-14.7A1.6,1.6,0,0,0,19.011,75.3Z"/><path class="e" d="M41.905,69.661H83.629a1.6,1.6,0,0,0,0-3.2H41.905a1.6,1.6,0,0,0,0,3.2Z"/><path class="e" d="M41.905,120.291H78.814a1.6,1.6,0,0,0,0-3.2H41.905a1.6,1.6,0,0,0,0,3.2Z"/><path class="e" d="M41.385,62.391h42.24a1.6,1.6,0,0,0,0-3.2H41.385a1.6,1.6,0,0,0,0,3.2Z"/><path class="e" d="M17.2,127.661h61.61a1.6,1.6,0,0,0,0-3.2H17.2a1.6,1.6,0,0,0,0,3.2Z"/><path class="e" d="M71.445,75.3h7.37a1.6,1.6,0,1,0,0-3.2h-7.37a1.6,1.6,0,1,0,0,3.2Z"/></svg>