<?xml version="1.0" encoding="utf-8"?>
<!-- Uploaded to: SVG Repo, www.svgrepo.com, Generator: SVG Repo Mixer Tools -->
<svg width="800px" height="800px" viewBox="0 -71.36 341.822 341.822" xmlns="http://www.w3.org/2000/svg"><defs><style>.a{fill:#f1f9fc;}.b{fill:#211715;}.c,.d,.e{fill:none;stroke:#211715;stroke-linecap:round;stroke-linejoin:round;stroke-width:4.8px;}.d{stroke-dasharray:4.015 12.045;}.e{stroke-dasharray:4.053 12.16;}</style></defs><path class="a" d="M170.911,2.4c-14.042,0-85.9,5.49-117.978,8.564-2.282-1.7-15.124.637-15.911,4.291C35.363,22.827,26.727,56,25.212,89.037c-.019.408-.02.82,0,1.229a920.431,920.431,0,0,0,8.7,95.009,2.655,2.655,0,0,0,2.532,2.191c14.85.089,74.1,9.309,134.475,9.254,60.373.055,119.625-9.165,134.475-9.254a2.657,2.657,0,0,0,2.533-2.191,920.484,920.484,0,0,0,8.695-95.009c.016-.409.015-.821,0-1.229C315.1,56,306.956,24.64,304.8,15.879c-1.28-5.2-14.106-5.521-15.911-4.9C258.135,7.988,189.884,2.4,170.911,2.4Z"/><path class="b" d="M170.911,0c-12.37.013-24.8,1.186-37.132,2.044Q106.273,3.957,78.8,6.272c-8.626.722-17.249,1.467-25.865,2.292l1.211.328c-1.62-1.092-4.023-.974-5.881-.81a29.1,29.1,0,0,0-7.634,1.639c-2,.751-4.289,1.769-5.425,3.7a16.407,16.407,0,0,0-1.254,4.487c-2.782,11.867-5.333,23.781-7.283,35.816-1.386,8.56-2.51,17.17-3.234,25.812A99.818,99.818,0,0,0,22.878,92q.284,6.824.671,13.642,1.363,24.044,3.943,48,1.047,9.732,2.308,19.439.572,4.365,1.189,8.725c.435,3.05.5,6.712,4.019,7.837,1.456.466,3.259.261,4.783.349,1.785.1,3.568.245,5.349.4,4.752.41,9.5.906,14.239,1.4,30.441,3.159,60.9,6.121,91.509,7.034,34.3,1.024,68.564-.9,102.709-4.119,12.243-1.154,24.466-2.507,36.7-3.716,3.9-.386,7.813-.77,11.731-1,1.7-.1,3.8.137,5.356-.591,3.133-1.461,3.071-4.964,3.492-7.926a903.387,903.387,0,0,0,8.088-90.05,100.21,100.21,0,0,0-.617-12.447q-.549-6.523-1.385-13.019-1.49-11.675-3.706-23.24-1.719-9.009-3.824-17.938-.75-3.2-1.541-6.385a17.771,17.771,0,0,0-1.449-4.74c-2.45-4.192-8.84-5-13.189-5.253-1.686-.1-3.267.19-4.924.239.8-.023-.157-.121-.236-.137a8.035,8.035,0,0,0-.808-.078l-1.663-.159q-1.75-.167-3.5-.33-16.694-1.557-33.4-2.921C226.06,3.142,203.366,1.252,180.646.267,177.4.126,174.157,0,170.911,0c-3.089,0-3.094,4.8,0,4.8,9.824.008,19.668.742,29.466,1.38C214.593,7.106,228.8,8.194,243,9.346q19.8,1.607,39.576,3.431c2.345.219,5.037.858,7.352.422.4-.075-.533.037-.058.013.213-.011.425-.032.639-.043.565-.027,1.133-.027,1.7-.013a29.839,29.839,0,0,1,3.449.278,22.506,22.506,0,0,1,3.942.941,6.638,6.638,0,0,1,2.529,1.471c.252.263,0-.11.23.326.2.376.066.124.1.238.122.413.211.84.315,1.258q.346,1.4.692,2.8A408.855,408.855,0,0,1,312,64.637c1.316,10,2.477,20.145,2.025,30.238q-.679,15.176-1.861,30.322c-1.288,16.615-2.978,33.2-5.18,49.724q-.6,4.481-1.261,8.952c-.188,1.269-.234,1.18-1.387,1.213-.832.023-1.663.065-2.494.114-4.791.285-9.571.783-14.346,1.267-15.311,1.552-30.609,3.21-45.944,4.518-19.965,1.7-39.981,2.929-60.019,3.252-20.645.334-41.286-.377-61.883-1.766-17.327-1.168-34.615-2.82-51.887-4.613-10.28-1.067-20.558-2.311-30.886-2.787-.427-.019-.466.1-.649-.34a9.648,9.648,0,0,1-.3-2.106q-.325-2.225-.634-4.452-.7-5.044-1.324-10.1-1.5-12.095-2.673-24.227-1.37-14.118-2.324-28.274-.514-7.637-.905-15.28a134.1,134.1,0,0,1-.237-15.174,359.565,359.565,0,0,1,8.05-54.073c1.062-4.878,2.23-9.732,3.339-14.6.037-.162.073-.324.109-.486.11-.489-.207.22.026-.114.252-.36-.229.241.1-.106a3.584,3.584,0,0,1,.308-.284c-.2.166-.079.059.059-.034a11.082,11.082,0,0,1,3.1-1.42,21.721,21.721,0,0,1,7.756-1.185c.095,0,.825.091.557.043s.3.082.414.113c.45.123-.39-.179-.025-.007a3.152,3.152,0,0,0,1.577.374c1.267-.03,2.556-.242,3.819-.359q4.182-.387,8.364-.756,9.657-.852,19.318-1.641,21.152-1.737,42.319-3.261c11.5-.825,23-1.634,34.509-2.2,3.126-.155,6.258-.316,9.389-.319C174,4.8,174.005,0,170.911,0Z"/><path class="b" d="M314.156,159.718c8.449,0,16.9-.147,25.348-.15,3.088,0,3.094-4.8,0-4.8-8.45,0-16.9.147-25.348.15-3.089,0-3.094,4.8,0,4.8Z"/><path class="b" d="M311.038,172.19c9.489,0,18.977-.146,28.466-.149,3.088,0,3.094-4.8,0-4.8-9.489,0-18.977.147-28.466.149-3.089,0-3.094,4.8,0,4.8Z"/><path class="b" d="M311.038,31.875c9.489,0,18.977-.146,28.466-.149,3.088,0,3.094-4.8,0-4.8-9.489,0-18.977.147-28.466.149-3.089,0-3.094,4.8,0,4.8Z"/><path class="b" d="M314.156,44.348c8.449,0,16.9-.147,25.348-.15,3.088,0,3.094-4.8,0-4.8-8.45,0-16.9.147-25.348.15-3.089,0-3.094,4.8,0,4.8Z"/><path class="b" d="M27.666,154.918c-8.449,0-16.9-.147-25.348-.15-3.088,0-3.093,4.8,0,4.8,8.45,0,16.9.147,25.348.15,3.089,0,3.094-4.8,0-4.8Z"/><path class="b" d="M30.784,167.39c-9.488,0-18.977-.146-28.466-.149-3.088,0-3.093,4.8,0,4.8,9.489,0,18.978.147,28.466.149,3.089,0,3.094-4.8,0-4.8Z"/><path class="b" d="M30.784,27.075c-9.488,0-18.977-.146-28.466-.149-3.088,0-3.093,4.8,0,4.8,9.489,0,18.978.147,28.466.149,3.089,0,3.094-4.8,0-4.8Z"/><path class="b" d="M27.666,39.548c-8.449,0-16.9-.147-25.348-.15-3.088,0-3.093,4.8,0,4.8,8.45,0,16.9.147,25.348.15,3.089,0,3.094-4.8,0-4.8Z"/><path class="b" d="M44.409,66.894c5.524-.005,11.061-.4,16.575-.692,9.347-.5,18.691-1.069,28.036-1.634q16.077-.972,32.155-1.941c9.512-.564,19.025-1.12,28.542-1.592,5.767-.286,11.554-.633,17.33-.594,6.225.043,12.451.316,18.67.557q14.277.555,28.549,1.222,16.077.725,32.154,1.473,14.544.669,29.088,1.3c6.466.273,12.934.563,19.405.7.858.018,1.716.033,2.574.033,3.089,0,3.093-4.8,0-4.8-5.387,0-10.781-.277-16.162-.492q-13.617-.543-27.229-1.186-16.005-.729-32.009-1.47-15.061-.688-30.126-1.326c-7.2-.3-14.407-.6-21.615-.756-5.054-.111-10.095.06-15.144.283-8.8.389-17.6.892-26.393,1.4q-15.99.927-31.975,1.916Q81.918,60.2,67,61.068c-6.666.378-13.336.784-20.01.979-.86.025-1.721.046-2.581.047-3.088,0-3.094,4.8,0,4.8Z"/><path class="c" d="M50.651,30.05l1.976-.279"/><path class="d" d="M64.563,28.178c22.586-2.871,64.555-7.422,106.761-7.584,46.742-.179,90.668,5.54,111.385,7.834"/><path class="c" d="M288.705,29.051q1.08.1,1.989.17"/><path class="c" d="M49.4,171.764c.583.037,1.249.086,1.991.145"/><path class="e" d="M63.5,173.025c22.843,2.194,65.371,6.282,107.513,6.121,46.779-.18,91.824-5.419,112.882-7.5"/><path class="c" d="M289.951,171.086q1.082-.089,1.99-.151"/><path class="b" d="M43.162,100.769q6.256,0,12.514-.013,10.218-.013,20.436-.032l26.454-.049,30.569-.059,32.779-.065L199,100.485l31.488-.061,27.985-.052q11.289-.02,22.579-.037,7.635-.01,15.269-.017h2.414c3.089,0,3.094-4.8,0-4.8q-6.591,0-13.182.012-10.481.013-20.96.033-13.417.022-26.834.048l-30.8.06-32.869.065-33.03.065-31.288.061-27.642.052q-11.044.02-22.091.037-7.317.01-14.636.018H43.162c-3.089,0-3.094,4.8,0,4.8Z"/><path class="b" d="M46.28,134.643c4.162.006,8.329.346,12.477.644,6.618.474,13.231,1.01,19.847,1.514,18.524,1.411,37.065,2.619,55.632,3.286,21.242.763,42.487.689,63.73-.012,19.161-.632,38.3-1.708,57.432-3.008,12.7-.864,25.394-1.929,38.1-2.713q1.316-.081,2.632-.15c3.073-.158,3.092-4.959,0-4.8-11.567.593-23.116,1.632-34.668,2.443-18.665,1.312-37.345,2.433-56.042,3.16-21.187.824-42.389,1.114-63.586.523-19.14-.534-38.255-1.675-57.348-3.087-11.959-.885-23.938-2.155-35.927-2.556-.76-.025-1.52-.043-2.281-.044-3.089,0-3.094,4.8,0,4.8Z"/><path class="b" d="M286.49,12.286a20.27,20.27,0,0,0,.437,3.455c.305,1.9.65,3.79.994,5.682,1.083,5.951,2.2,11.9,3.269,17.851,2.561,14.268,5.1,28.62,6.322,43.076a65.022,65.022,0,0,1,.119,9.352q-.252,4.355-.558,8.707-.7,10.182-1.554,20.355c-1.14,13.938-2.389,27.866-3.67,41.792-.737,8.019-1.594,16.035-2.2,24.064-.016.216-.035.432-.043.648-.11,3.09,4.69,3.085,4.8,0,.074-2.075.347-4.158.537-6.225q.648-7.06,1.307-14.121,1.879-20.335,3.619-40.683.878-10.466,1.658-20.939.35-4.76.658-9.521c.181-2.833.511-5.724.458-8.564-.128-6.974-1.242-14.029-2.2-20.925-1.047-7.487-2.274-14.949-3.573-22.4-1.136-6.519-2.338-13.026-3.539-19.533-.437-2.37-.875-4.74-1.294-7.113-.151-.859-.3-1.72-.441-2.581q-.087-.529-.167-1.058c-.022-.144-.041-.287-.063-.43-.089-.567.054.543.016.121a9.562,9.562,0,0,1-.084-1.013c.045-3.09-4.755-3.091-4.8,0Z"/><path class="b" d="M50.532,12.286c.005.356-.064.7-.089,1.056s.108-.719.021-.164c-.022.143-.041.286-.063.43q-.084.563-.178,1.126c-.319,1.949-.673,3.893-1.028,5.836-1.1,6.018-2.226,12.03-3.3,18.052C43.3,53.1,40.752,67.678,39.511,82.35a64.878,64.878,0,0,0-.12,9.352q.252,4.355.558,8.707.7,10.182,1.554,20.355c1.14,13.938,2.389,27.866,3.67,41.792.737,8.019,1.594,16.035,2.2,24.064.016.216.035.432.043.648.11,3.08,4.911,3.095,4.8,0-.074-2.075-.347-4.158-.537-6.225q-.647-7.06-1.307-14.121-1.878-20.335-3.618-40.683Q45.878,115.774,45.1,105.3q-.349-4.76-.658-9.521c-.181-2.833-.511-5.724-.458-8.564a168.942,168.942,0,0,1,2.127-20.31c1.057-7.484,2.29-14.942,3.593-22.386,1.131-6.464,2.325-12.916,3.515-19.37.726-3.933,1.553-7.876,2.031-11.85a7.468,7.468,0,0,0,.084-1.013c-.044-3.086-4.845-3.095-4.8,0Z"/></svg>