<?xml version="1.0" encoding="utf-8"?>
<!-- Uploaded to: SVG Repo, www.svgrepo.com, Generator: SVG Repo Mixer Tools -->
<svg width="800px" height="800px" viewBox="-159.44 0 468.965 468.965" xmlns="http://www.w3.org/2000/svg"><defs><style>.a{fill:#ffffff;}.b{fill:#211715;}.c{fill:#645d5c;}.d{fill:#a0a0a0;}.e{fill:#f6c385;}.f{fill:#89705d;}.g{fill:#7a7473;}</style></defs><path class="a" d="M105.291,52.256a4.555,4.555,0,0,1,3.644-1.066,4.3,4.3,0,0,1,3.092,2.056,6.085,6.085,0,0,1,.637,2.446,18.218,18.218,0,0,1-1.858,9.658,11.588,11.588,0,0,1-2.995,3.931,7.683,7.683,0,0,1-3.57,1.609l-.611.094c-.293,1.1-.623,2.021-.784,2.511-.964,2.618-6.039,11.208-12.615,15.279A49.512,49.512,0,0,0,91,96.485c.436,2.491.3,4.718,3.763,5.969.229.082,2.154.842,2.672,1.07,0,0,1.3,14.856-21.815,14.856s-22.993-15.06-22.993-15.06c.424-.182,1.861-.784,2.091-.866,3.463-1.251,3.327-3.478,3.763-5.969a48.834,48.834,0,0,0,.763-7.755A28.261,28.261,0,0,1,52.288,82.6a31,31,0,0,1-5.906-11.527l-1.164-.179a7.678,7.678,0,0,1-3.57-1.609,11.588,11.588,0,0,1-3-3.931A18.227,18.227,0,0,1,36.8,55.692a6.085,6.085,0,0,1,.637-2.446,4.3,4.3,0,0,1,3.092-2.056,4.555,4.555,0,0,1,3.644,1.066s2.339-25.21,29.45-25.21S105.291,52.256,105.291,52.256Z"/><path class="a" d="M100.29,433.129a4.077,4.077,0,0,0,1.618-1.9,30.553,30.553,0,0,1-1.364-4.215A143.017,143.017,0,0,1,81,426.2l-.018,2.7a23.9,23.9,0,0,0,15.026,5.2A8.355,8.355,0,0,0,100.29,433.129Z"/><path class="a" d="M49.779,427.017a30.47,30.47,0,0,1-1.363,4.209,4.082,4.082,0,0,0,1.618,1.9,8.36,8.36,0,0,0,4.278.966,23.908,23.908,0,0,0,15.027-5.2q-.011-1.365-.019-2.731A142.214,142.214,0,0,1,49.779,427.017Z"/><path class="b" d="M48.65,419.978a28.7,28.7,0,0,1-3.185,12.92,2.047,2.047,0,0,0,.718,2.737,2.021,2.021,0,0,0,2.736-.718,33.169,33.169,0,0,0,3.731-14.939,2,2,0,0,0-4,0Z"/><path class="b" d="M67.285,421.017l.085,12.46a2,2,0,0,0,4,0l-.085-12.46a2,2,0,0,0-4,0Z"/><path class="b" d="M97.675,419.978a33.155,33.155,0,0,0,3.73,14.939,2,2,0,1,0,3.454-2.019,28.706,28.706,0,0,1-3.184-12.92,2,2,0,0,0-4,0Z"/><path class="b" d="M79.04,421.017l-.086,12.46a2,2,0,0,0,4,0l.086-12.46a2,2,0,0,0-4,0Z"/><path class="a" d="M119.715,232.943c-1.651,17.269-2.922,51.4-4.608,79.423-1.436,23.86-2.827,68.691-3.341,94.475-.2,9.875,4.267,17.046-.471,19-5.038,1.68-24.934,1.765-36.273-.568-11.338,2.333-31.223,2.247-36.258.568-4.739-1.949-.275-9.12-.472-19-.514-25.784-1.337-70.615-2.774-94.475-1.686-28.02-3.524-62.154-5.174-79.423"/><path class="b" d="M28.344,232.943c1.486,15.642,2.077,31.38,2.871,47.068.821,16.234,1.843,32.459,2.578,48.7.736,16.262,1.287,32.532,1.762,48.8q.332,11.334.594,22.67a87,87,0,0,1-.083,11.361c-.377,3.473-1.508,6.954-1.491,10.46.015,2.856,1.436,5.212,4.295,5.947a40.879,40.879,0,0,0,7.946.954,130.429,130.429,0,0,0,22.725-.758c1.778-.218,3.551-.475,5.311-.806,2.527-.476,1.457-4.332-1.063-3.857a112.842,112.842,0,0,1-21.953,1.573,84.831,84.831,0,0,1-9.481-.523,23.741,23.741,0,0,1-2.649-.5,1.6,1.6,0,0,1-.742-.4c-.039-.041-.249-.287-.042-.038a1.435,1.435,0,0,1-.187-.329c.1.291-.084-.334-.11-.459a8.449,8.449,0,0,1-.025-1.547,19.856,19.856,0,0,1,.25-2.018c.307-1.862.679-3.712.945-5.58a69.476,69.476,0,0,0,.4-11.437q-.242-10.952-.559-21.9c-.456-16-.989-32-1.682-47.984-.676-15.586-1.663-31.155-2.456-46.735-.82-16.114-1.476-32.254-2.776-48.339q-.176-2.16-.378-4.318a2.055,2.055,0,0,0-2-2,2.014,2.014,0,0,0-2,2Z"/><path class="b" d="M117.715,232.943c-1.446,15.216-2.034,30.524-2.806,45.785-.813,16.044-1.815,32.079-2.559,48.127-.733,15.806-1.277,31.622-1.752,47.439q-.345,11.486-.621,22.973c-.078,3.266-.176,6.532-.214,9.8-.047,4.121.779,8.127,1.445,12.172a19.856,19.856,0,0,1,.25,2.018c.018.288.028.577.023.866a2.747,2.747,0,0,1-.048.681c-.017.08-.216.77-.11.459-.114.335-.1.235-.229.367a1.534,1.534,0,0,1-.742.4,32.219,32.219,0,0,1-7.11.871,131.675,131.675,0,0,1-22.045-.677q-2.476-.286-4.928-.744c-2.515-.474-3.594,3.38-1.063,3.857a118.108,118.108,0,0,0,22.845,1.718,85.975,85.975,0,0,0,9.652-.525c2.458-.3,5.242-.552,6.779-2.769,1.717-2.476.875-5.978.391-8.7A60.293,60.293,0,0,1,113.8,405.1q.225-10.818.531-21.635.683-24.6,1.688-49.183c.67-15.8,1.667-31.587,2.473-47.383.844-16.545,1.507-33.118,2.842-49.633q.176-2.16.379-4.318a2.015,2.015,0,0,0-2-2,2.043,2.043,0,0,0-2,2Z"/><path class="b" d="M73.162,281.725c-.537,5.889-.468,11.849-.464,17.756.005,7.1.111,14.208.177,21.313.074,8.029.021,16.06,0,24.09q-.033,16.512-.062,33.025-.024,15.76-.013,31.523.007,5.4.038,10.792c.012,1.634-.053,3.3.083,4.932a2.292,2.292,0,0,0,1.011,1.866,2.012,2.012,0,0,0,2.737-.718,2.051,2.051,0,0,0-.718-2.736l0,0,.718.718c.118.219.245,1.377.242.66,0-.266-.018-.533-.024-.8-.021-.935-.029-1.87-.038-2.805-.029-3.288-.037-6.576-.043-9.864q-.032-15.249,0-30.5.022-16.614.061-33.227c.015-7.719.065-15.44.029-23.159-.063-13.174-.6-26.4.037-39.564.053-1.1.122-2.2.222-3.3a2.015,2.015,0,0,0-2-2,2.043,2.043,0,0,0-2,2Z"/><path class="c" d="M28.045,462.5q-.174-.228-.329-.47a8.81,8.81,0,0,1-.582-7.38,24.137,24.137,0,0,1,3.787-6.607q5.481-7.488,11.587-14.491c1.587-1.819,3.38-3.716,5.753-4.164a3.568,3.568,0,0,0,1.773,3.742,8.36,8.36,0,0,0,4.278.966,23.746,23.746,0,0,0,16.62-6.614c-.028,5,.022,6.663,0,11.665a10.477,10.477,0,0,1-.438,3.606c-1.028,2.78-4.076,4.119-6.521,5.793-6.364,4.354-9.715,12.3-16.383,16.17a17.214,17.214,0,0,1-15.914.571A10.046,10.046,0,0,1,28.045,462.5Z"/><path class="c" d="M122.279,462.5q.174-.228.329-.47a8.806,8.806,0,0,0,.583-7.38,24.163,24.163,0,0,0-3.787-6.607q-5.483-7.488-11.588-14.491c-1.586-1.819-3.38-3.716-5.752-4.164a3.567,3.567,0,0,1-1.774,3.742,8.355,8.355,0,0,1-4.278.966,23.741,23.741,0,0,1-16.619-6.614c.027,5-.023,6.663,0,11.665a10.477,10.477,0,0,0,.438,3.606c1.028,2.78,4.076,4.119,6.522,5.793,6.363,4.354,9.714,12.3,16.382,16.17a17.214,17.214,0,0,0,15.914.571A10.037,10.037,0,0,0,122.279,462.5Z"/><path class="b" d="M29.772,461.489c-1.764-2.411-1.3-5.449-.01-7.975a55.6,55.6,0,0,1,5.739-8.272q3.173-4.139,6.559-8.112c1.828-2.153,3.807-5.162,6.732-5.814l-2.46-2.46a5.827,5.827,0,0,0,3.884,6.567c2.632,1.032,5.78.761,8.51.324a25.449,25.449,0,0,0,13.62-6.852l-3.414-1.414c-.022,4.261.164,8.554-.021,12.811-.093,2.137-1.179,3.406-2.893,4.564a57.464,57.464,0,0,0-5.2,3.61c-6.048,5.129-9.633,13.856-17.855,16-4.468,1.166-10.438.41-13.5-3.383a2.014,2.014,0,0,0-2.828,0,2.048,2.048,0,0,0,0,2.829c3.11,3.849,8.921,5.341,13.677,5.006a20.359,20.359,0,0,0,12.98-6.144c3.2-3.157,5.678-6.96,8.876-10.119a31.033,31.033,0,0,1,5.264-3.946,11.806,11.806,0,0,0,4.659-4.621c1.26-2.721.856-6.043.849-8.965-.006-2.548-.017-5.1,0-7.643a2.023,2.023,0,0,0-3.415-1.414,21.422,21.422,0,0,1-9.4,5.293,20.489,20.489,0,0,1-6.213.724c-1.138-.045-4.061-.4-3.719-2.165a2.027,2.027,0,0,0-2.46-2.46c-3.578.8-5.931,3.833-8.189,6.48q-4.028,4.72-7.782,9.663c-4.04,5.3-10.39,13.142-5.44,19.906a2.061,2.061,0,0,0,2.737.718A2.016,2.016,0,0,0,29.772,461.489Z"/><path class="b" d="M124.006,463.508c4.95-6.764-1.4-14.61-5.439-19.906q-3.763-4.933-7.783-9.663c-2.258-2.647-4.61-5.682-8.189-6.48a2.027,2.027,0,0,0-2.46,2.46c.343,1.766-2.586,2.12-3.718,2.165a20.454,20.454,0,0,1-6.213-.724,21.425,21.425,0,0,1-9.4-5.293,2.022,2.022,0,0,0-3.414,1.414c.011,2.269.006,4.537,0,6.806a48.173,48.173,0,0,0,.189,7.675c.812,5.083,5.969,6.587,9.377,9.571,3.39,2.968,5.9,6.763,8.938,10.058,3.234,3.5,7.2,6.272,11.985,7.069,5.371.895,12.207-.283,15.813-4.747a2.06,2.06,0,0,0,0-2.829,2.015,2.015,0,0,0-2.828,0c-2.682,3.32-7.738,4.32-11.787,3.739-4.287-.614-7.625-3.079-10.479-6.195-2.743-3-5.056-6.375-8-9.183a30.281,30.281,0,0,0-4.907-3.7c-1.436-.9-3.228-1.881-3.928-3.522A11.018,11.018,0,0,1,81.389,438q0-1.773,0-3.548c.007-2.323.014-4.646,0-6.97L77.978,428.9a25.449,25.449,0,0,0,13.62,6.852c2.665.427,5.737.7,8.324-.252a5.867,5.867,0,0,0,4.07-6.639l-2.46,2.46c2.863.638,4.786,3.526,6.578,5.633q3.458,4.062,6.714,8.293a57.644,57.644,0,0,1,5.642,8.083c1.343,2.572,1.9,5.682.086,8.164a2.016,2.016,0,0,0,.718,2.737A2.047,2.047,0,0,0,124.006,463.508Z"/><path class="d" d="M135.679,205c4.153-6.494,9.649-12.312,11.568-19.738a38.5,38.5,0,0,0,.594-12.723,134.767,134.767,0,0,0-16.275-54.111,23.4,23.4,0,0,0-3.919-3.883c-1.122-.9-13.706-7.243-24.562-12.221-2.258-4-3.448-7.45-6.8-10.531a64.253,64.253,0,0,1-18.543,12.923c-.384.174-.812.387-.936.79H73.252c-.124-.4-.552-.616-.935-.79A64.244,64.244,0,0,1,53.773,91.792c-3.352,3.081-4.542,6.531-6.8,10.531-10.856,4.978-23.44,11.325-24.562,12.221a23.354,23.354,0,0,0-3.918,3.883A134.736,134.736,0,0,0,2.218,172.538a38.477,38.477,0,0,0,.593,12.723C4.73,192.687,10.226,198.505,14.379,205l12.872,10.23c0,4.2,0,26.083,0,34.8,3.311,0,91.948.336,95.553.336,0-6.8,0-31.53,0-37.182Z"/><path class="b" d="M57.246,88.741a45.025,45.025,0,0,1-.431,5.562,41.926,41.926,0,0,1-.7,4.153c-.031.125-.065.25-.1.373-.017.056-.159.47-.055.193s-.061.124-.09.178c-.073.139-.158.265-.24.4.141-.229.109-.117-.039.035-.1.1-.2.2-.3.3-.332.316.251-.1-.186.129-.15.08-.292.176-.444.255-.336.175-.756.322-1.218.513q-.915.378-1.826.767a2.012,2.012,0,0,0-.717,2.736,2.053,2.053,0,0,0,2.736.718c.251-.107.162-.068-.039.016l.446-.187q.435-.183.873-.361a15.048,15.048,0,0,0,2.038-.9,6.463,6.463,0,0,0,2.944-3.8,31.423,31.423,0,0,0,.756-4.314,53.6,53.6,0,0,0,.594-6.763,2,2,0,0,0-4,0Z"/><path class="b" d="M88.231,88.741a53.674,53.674,0,0,0,.65,7.135,22.97,22.97,0,0,0,.82,4.307,6.489,6.489,0,0,0,3.391,3.728c.614.29,1.26.515,1.892.764q.483.191.965.385c.152.061.3.124.455.184.487.195-.238-.1.02.007a2.066,2.066,0,0,0,2.736-.717,2.015,2.015,0,0,0-.717-2.737c-1.039-.45-2.092-.871-3.15-1.272a5.293,5.293,0,0,1-.834-.415c-.11-.064-.367-.246-.136-.066a3.74,3.74,0,0,1-.383-.351c-.039-.041-.318-.395-.156-.17s-.115-.206-.142-.255c-.062-.112-.118-.227-.171-.343.207.456.015-.012-.011-.1a28.053,28.053,0,0,1-.722-4.017,45.705,45.705,0,0,1-.507-6.071,2,2,0,1,0-4,0Z"/><path class="b" d="M25.251,215.229q0,13.663,0,27.327,0,3.736,0,7.474a2.03,2.03,0,0,0,2,2c3.484,0,6.968.021,10.452.033l22.256.08,26.67.1q11.634.043,23.27.084c4.16.015,8.332.122,12.491.041.138,0,.276,0,.414,0a2.03,2.03,0,0,0,2-2q0-15.512,0-31.022v-6.16c0-2.574-4-2.578-4,0v30.427q0,3.377,0,6.755l2-2c-3.53,0-7.06-.021-10.59-.034l-22.328-.08-26.674-.1-23.208-.084c-4.091-.014-8.273-.281-12.36-.041-.13.008-.262,0-.393,0l2,2q0-14.84,0-29.68v-5.121c0-2.574-4-2.578-4,0Z"/><path class="b" d="M55.847,96.282c-7.149,2.909-14.135,6.234-21.071,9.614-3.05,1.487-6.09,2.994-9.1,4.555A28.393,28.393,0,0,0,21,113.13a18.7,18.7,0,0,0-5.087,5.863q-1.955,3.657-3.678,7.431A139.175,139.175,0,0,0,6.29,141.733,135.083,135.083,0,0,0,.113,173.959C-.3,180.264.37,186.267,3.3,191.935c2.594,5.017,6.3,9.342,9.35,14.073,1.39,2.157,4.854.154,3.454-2.019-2.612-4.053-5.685-7.8-8.159-11.941a27.109,27.109,0,0,1-3.975-14.526c.069-10.442,2.165-21.084,5.063-31.081a132.473,132.473,0,0,1,5.219-14.749q1.521-3.6,3.263-7.093c1.137-2.293,2.16-4.717,3.972-6.553a18.66,18.66,0,0,1,5-3.513c2.661-1.4,5.352-2.747,8.05-4.077,7.357-3.627,14.77-7.224,22.372-10.317a2.064,2.064,0,0,0,1.4-2.46,2.015,2.015,0,0,0-2.461-1.4Z"/><path class="b" d="M93.147,100.139c6.778,2.758,13.4,5.938,19.971,9.141,2.964,1.443,5.918,2.907,8.847,4.417a34.2,34.2,0,0,1,4.577,2.5c3.868,2.835,5.694,7.606,7.643,11.836a130.185,130.185,0,0,1,5.726,14.76,131.425,131.425,0,0,1,6,30.689c.422,5.895.02,11.5-2.8,16.791-2.589,4.864-6.186,9.094-9.162,13.713-1.4,2.17,2.063,4.178,3.454,2.019,2.758-4.28,6.038-8.22,8.572-12.645a30.47,30.47,0,0,0,4.107-15.129,100.135,100.135,0,0,0-1.575-16.683,134.941,134.941,0,0,0-3.567-15.958,137.49,137.49,0,0,0-5.482-15.442q-1.622-3.837-3.466-7.571a28.207,28.207,0,0,0-4.03-6.766c-3.779-4.13-9.228-6.245-14.152-8.676-7.759-3.831-15.584-7.594-23.6-10.856a2.013,2.013,0,0,0-2.46,1.4,2.048,2.048,0,0,0,1.4,2.46Z"/><path class="b" d="M73.029,107.052v141.3c0,2.574,4,2.578,4,0v-141.3c0-2.574-4-2.578-4,0Z"/><path class="a" d="M62.117,119.337c-5.954-5.918-9.563-12.054-13.962-19.214,1.6-3.085,2.9-5.83,5.618-8.331a64.244,64.244,0,0,0,18.544,12.923c.383.174.811.387.935.79a1.487,1.487,0,0,1-.214,1.047,59.725,59.725,0,0,1-3.836,4.953C66.593,114.7,63.87,117.179,62.117,119.337Z"/><path class="a" d="M87.941,119.337c5.954-5.918,9.563-12.054,13.962-19.214-1.6-3.085-2.9-5.83-5.618-8.331a64.253,64.253,0,0,1-18.543,12.923c-.384.174-.812.387-.936.79a1.487,1.487,0,0,0,.214,1.047,59.725,59.725,0,0,0,3.836,4.953C83.465,114.7,86.188,117.179,87.941,119.337Z"/><path class="b" d="M63.532,117.923c-5.541-5.549-9.572-12.168-13.65-18.809v2.019c1.487-2.874,2.921-5.681,5.305-7.927H52.359a66.072,66.072,0,0,0,9.421,7.816q2.439,1.677,5.021,3.132,1.3.729,2.632,1.4.561.279,1.126.546c.249.117.5.233.748.346q.453.273.218.073l-.273-1.01c.038.482-.895,1.393-1.227,1.813-1.075,1.359-2.156,2.717-3.294,4.024-1.953,2.243-4.135,4.285-6.028,6.581-1.625,1.971,1.189,4.817,2.829,2.828,2.446-2.968,5.27-5.6,7.7-8.586,1.547-1.9,5.723-5.7,3.29-8.343a7.134,7.134,0,0,0-2.319-1.358q-1.236-.6-2.443-1.247-2.591-1.4-5.043-3.029a60.771,60.771,0,0,1-9.53-7.811,2.037,2.037,0,0,0-2.828,0,26.535,26.535,0,0,0-5.179,7.282,10.643,10.643,0,0,0-.953,1.933,3.145,3.145,0,0,0,.786,2.493c.831,1.355,1.66,2.711,2.5,4.058A81.624,81.624,0,0,0,60.7,120.751C62.524,122.575,65.354,119.747,63.532,117.923Z"/><path class="b" d="M89.355,120.751a81.588,81.588,0,0,0,11.187-14.608c.8-1.284,1.595-2.577,2.387-3.868a3.761,3.761,0,0,0,.938-2.418,7.427,7.427,0,0,0-.989-2.2A26.531,26.531,0,0,0,97.7,90.377a2.036,2.036,0,0,0-2.829,0,60.884,60.884,0,0,1-9.53,7.811q-2.362,1.569-4.855,2.927-1.3.707-2.631,1.349a7.152,7.152,0,0,0-2.319,1.358c-2.432,2.638,1.743,6.438,3.291,8.343,2.429,2.99,5.253,5.618,7.7,8.586,1.638,1.988,4.454-.856,2.828-2.828-1.893-2.3-4.074-4.338-6.028-6.581-1.095-1.258-2.137-2.565-3.173-3.872-.356-.45-1.388-1.444-1.348-1.965l-.273,1.01q-.235.2.218-.073c.25-.113.5-.229.748-.346q.566-.267,1.126-.546,1.333-.664,2.632-1.4,2.581-1.451,5.021-3.132A66.136,66.136,0,0,0,97.7,93.206H94.871c2.384,2.246,3.819,5.053,5.305,7.927V99.114c-4.078,6.641-8.109,13.26-13.649,18.809C84.705,119.747,87.533,122.576,89.355,120.751Z"/><path class="e" d="M75.713,129.036c26.056.188,51.5.335,56.257.335v80.916c-1.252,0-109.494-.2-111.724.01-.006,0-.952,0-.952-.01,0-17.605.115-71.693.163-80.916C24.215,129.371,49.658,129.224,75.713,129.036Z"/><path class="f" d="M87.194,129.146c0,1.849.285,10.959.17,11.116s-23.054.027-23.2-.06c-.268-.165-.3-8.166-.3-11.056"/><path class="b" d="M75.713,131.036q25.107.182,50.213.314c2.014.01,4.029.021,6.044.021l-2-2v80.916l2-2q-5.781,0-11.56-.019-13.347-.02-26.694-.036-16.035-.02-32.069-.028-13.842-.006-27.684.009c-4.513.008-9.027-.011-13.54.074-.376.007-.752.015-1.129,0l2,2q0-16.249.042-32.5.035-18.34.082-36.683.015-5.867.039-11.735l-2,2c13.048,0,26.1-.13,39.144-.216q8.556-.057,17.112-.119c2.573-.019,2.579-4.019,0-4q-25.105.181-50.212.314c-2.015.01-4.029.021-6.044.021a2.03,2.03,0,0,0-2,2c-.046,8.837-.056,17.674-.076,26.511q-.044,19.176-.072,38.354-.011,8.025-.015,16.051a2.038,2.038,0,0,0,2,2c3.982.165,8.019-.06,12-.069q13.225-.028,26.45-.016,16.028.006,32.054.025,13.95.015,27.9.037c4.654.007,9.332.155,13.985.023.094,0,.189,0,.284,0a2.03,2.03,0,0,0,2-2V129.371a2.03,2.03,0,0,0-2-2c-13.048,0-26.1-.13-39.145-.216q-8.556-.057-17.112-.119C73.139,127.017,73.136,131.017,75.713,131.036Z"/><path class="b" d="M85.186,129.146c0,2.021.08,4.043.125,6.064.025,1.091.05,2.181.064,3.272,0,.38.012.761.008,1.141,0,.426-.193.784.045.107l.919-1.195c.2-.116,1.336-.237.741-.246-.174,0-.35.013-.523.017-.582.015-1.164.018-1.746.023-1.819.014-3.639.012-5.459.009q-6.087-.011-12.174-.074c-.711-.008-1.421-.016-2.132-.03-.2,0-.395-.018-.591-.015-.455.007-.048-.028.23.054l.883.515-.015-.018.514.882c-.163-.388.007.553-.026-.1-.018-.344-.045-.688-.06-1.032-.045-1.032-.064-2.064-.081-3.1-.033-2.091-.042-4.183-.043-6.274,0-2.574-4-2.578-4,0,0,2.229.011,4.458.05,6.687.028,1.53-.24,3.683.4,5.121.607,1.357,1.933,1.267,3.165,1.287,1.472.025,2.943.037,4.415.05q5.917.048,11.835.049c1.436,0,2.871,0,4.307-.024,1.278-.02,2.811.025,3.247-1.53a7.519,7.519,0,0,0,.091-2.022c-.012-1.1-.037-2.2-.062-3.3-.047-2.106-.126-4.214-.131-6.321-.006-2.573-4.006-2.578-4,0Z"/><path class="a" d="M31.223,199.331c.983-.713,4.194-3.209,5.177-3.922a4.01,4.01,0,0,0,1.562-1.68,2.637,2.637,0,0,0-.957-2.828,5.429,5.429,0,0,0-2.944-1.122c-6.243-.556-16.722-.115-20.592,6.087.137,4.843-.472,10.552,3.037,13.819l1.456,1.356.981.534a32.61,32.61,0,0,0,26.4,1.978,10.27,10.27,0,0,0,2.323-1.233c2.923-2.036,3.856-3.34,5.267-6.746a.24.24,0,0,0,.017-.118c-.361-3.338-3.452-3.231-5.846-2.85l-5.284.841c-2.809.447-10.878-2.048-13.186-3.711"/><path class="b" d="M32.232,201.058c1.437-1.05,2.833-2.155,4.251-3.229,1.909-1.446,4.057-2.912,3.507-5.658-.988-4.942-7.519-4.678-11.392-4.543-4.149.146-8.495.817-12.166,2.866a12.5,12.5,0,0,0-4.529,4.114c-.633,1.015-.413,2.278-.407,3.429.007,1.233.007,2.467.082,3.7.282,4.692,1.924,9.17,6.271,11.521A34.942,34.942,0,0,0,33.4,217.442c5.1.155,11.333-.581,15.594-3.619a14.707,14.707,0,0,0,4.325-4.429,15.753,15.753,0,0,0,1.467-3.1,4.416,4.416,0,0,0-.612-3.433c-2.81-4.677-9.383-1.227-13.432-1.364a23.041,23.041,0,0,1-5.948-1.274,18.814,18.814,0,0,1-5.149-2.21c-2.12-1.471-4.121,2-2.019,3.454a21.316,21.316,0,0,0,5.49,2.416,33.234,33.234,0,0,0,6.659,1.536c2.626.294,5.275-.522,7.863-.881a6.856,6.856,0,0,1,2.379-.036c.764.183.88.6,1.007,1.49v-1.064a8.8,8.8,0,0,1-1.816,3.433,12.167,12.167,0,0,1-3.288,2.711c-3.084,1.817-7.326,2.309-10.842,2.382a31.252,31.252,0,0,1-11.009-1.764c-2.816-.987-6.044-2.361-7.458-5.177-1.591-3.169-1.06-7.219-1.144-10.643l-.273,1.009c2.9-4.488,9.471-5.206,14.331-5.269.9-.011,7.382-.106,6.373,1.651-.2.355-.807.643-1.134.89-.532.4-1.059.8-1.588,1.208-.985.753-1.963,1.517-2.964,2.249a2.059,2.059,0,0,0-.718,2.736,2.015,2.015,0,0,0,2.736.718Z"/><path class="a" d="M119.513,199.331c-.984-.713-4.194-3.209-5.177-3.922a4,4,0,0,1-1.562-1.68,2.635,2.635,0,0,1,.956-2.828,5.429,5.429,0,0,1,2.945-1.122c6.242-.556,16.722-.115,20.591,6.087-.136,4.843.472,10.552-3.036,13.819l-1.456,1.356-.981.534a32.612,32.612,0,0,1-26.4,1.978,10.263,10.263,0,0,1-2.322-1.233c-2.924-2.036-3.856-3.34-5.268-6.746a.265.265,0,0,1-.017-.118c.361-3.338,3.453-3.231,5.846-2.85l5.285.841c2.809.447,10.878-2.048,13.186-3.711"/><path class="b" d="M120.522,197.6c-1-.732-1.98-1.5-2.965-2.249q-.743-.569-1.489-1.134a5.43,5.43,0,0,1-1.233-.964c-1.1-1.682,5.534-1.662,6.374-1.651,4.859.063,11.429.78,14.331,5.269l-.274-1.009c-.077,3.16.236,6.488-.714,9.549-.924,2.978-3.608,4.526-6.32,5.674a30.64,30.64,0,0,1-21.916.677,11.58,11.58,0,0,1-4.488-3.071,8.65,8.65,0,0,1-2.118-3.771v1.064c.125-.879.243-1.307,1.007-1.49a6.874,6.874,0,0,1,2.378.036c2.589.355,5.238,1.178,7.864.881a33.388,33.388,0,0,0,6.659-1.536,21.359,21.359,0,0,0,5.489-2.416c2.1-1.458.1-4.927-2.019-3.454a17.109,17.109,0,0,1-4.382,1.962,32.07,32.07,0,0,1-5.618,1.428c-4.074.575-8.437-2.205-12.391-.409-1.784.811-3.348,3.076-2.827,5.115a13.688,13.688,0,0,0,3.328,5.628c3.749,3.85,9.17,5.172,14.362,5.608a34.387,34.387,0,0,0,15.736-2.4,18.8,18.8,0,0,0,6.319-3.82,11.292,11.292,0,0,0,3.131-6,37.322,37.322,0,0,0,.493-7.092c.006-1.152.223-2.413-.406-3.429a10.659,10.659,0,0,0-2.057-2.367c-3.228-2.8-7.465-3.908-11.623-4.388a40.9,40.9,0,0,0-6.6-.2c-2.643.124-5.577.456-7.143,2.9a4.325,4.325,0,0,0-.361,4.185,7.935,7.935,0,0,0,2.722,2.726c1.587,1.185,3.134,2.425,4.734,3.594a2.015,2.015,0,0,0,2.736-.718,2.044,2.044,0,0,0-.717-2.736Z"/><path class="g" d="M81.252,31.456c-3.882,1.777-10.9,5.614-11.516,5.351-.421-.181-1.186-1.946-1.733-3.632a13.425,13.425,0,0,1-.626-2.588A293.24,293.24,0,0,0,44.323,51.62a4.524,4.524,0,0,0-3.8-1.214,4.28,4.28,0,0,0-1.047.3c-2.355-9.744-1.77-17.99.2-23.781s6.657-12.436,12.486-14.569l-5.26-1.071C54.569,3.568,64.649,1.8,73.4,2.069c9.343.285,16.642,3.963,21.021,9.962L99.456,16.2c4.127,2.137,8,6.541,10.009,12.162,2.86,8,2.528,16.424.265,22.238a4.493,4.493,0,0,0-4.6,1.025A38.175,38.175,0,0,0,87.514,32.941Z"/><path class="b" d="M98.447,17.929c10.449,5.557,13.111,20.555,9.755,31.022-.788,2.457,3.073,3.509,3.857,1.064,3.887-12.126.4-29.162-11.594-35.54-2.271-1.208-4.3,2.243-2.018,3.454Z"/><path class="b" d="M51.633,10.423c-6.988,2.667-11.883,9.61-14.074,16.552-2.458,7.785-1.878,16.347-.027,24.187.591,2.505,4.449,1.444,3.857-1.063-1.647-6.976-2.184-14.5-.156-21.459,1.66-5.7,5.681-12.152,11.464-14.36a2.058,2.058,0,0,0,1.4-2.46,2.016,2.016,0,0,0-2.461-1.4Z"/><path class="b" d="M96.147,11.022A27.128,27.128,0,0,0,78.364.55,42.531,42.531,0,0,0,56.736,2.605,32.616,32.616,0,0,0,45.491,9.867c-1.83,1.816,1,4.644,2.828,2.828A30.275,30.275,0,0,1,66.2,4.362c6.292-.765,13.118-.446,18.877,2.427a21.2,21.2,0,0,1,7.617,6.251,2.061,2.061,0,0,0,2.736.718,2.014,2.014,0,0,0,.718-2.736Z"/><path class="b" d="M80.242,29.729c-2.857,1.317-5.632,2.806-8.469,4.167-.524.251-1.048.507-1.584.73.308-.128-.3.107-.358.132-.464.2-.3-.107.011.061,1.835,1,1.31.736.956.047a11.665,11.665,0,0,1-.577-1.381,13.566,13.566,0,0,1-.844-2.9,2.031,2.031,0,0,0-3.414-1.414C58.2,35.629,50.774,42.4,43.605,49.513c-1.83,1.816,1,4.644,2.829,2.828C53.6,45.227,61.025,38.457,68.792,32l-3.415-1.414a16.083,16.083,0,0,0,2.4,7.014c1.161,1.644,2.685,1.229,4.246.56,3.489-1.5,6.8-3.389,10.243-4.978a2.017,2.017,0,0,0,.718-2.737,2.047,2.047,0,0,0-2.737-.717Z"/><path class="b" d="M86.5,34.668A36.774,36.774,0,0,1,103.2,52.142a2.016,2.016,0,0,0,2.737.718,2.048,2.048,0,0,0,.717-2.737A40.252,40.252,0,0,0,88.523,31.214a2.047,2.047,0,0,0-2.736.717,2.021,2.021,0,0,0,.717,2.737Z"/><path class="b" d="M106.705,53.671a2.475,2.475,0,0,1,3.521.463,5.192,5.192,0,0,1,.5,2.619,15.528,15.528,0,0,1-.218,3.172c-.689,3.77-2.608,8.285-6.8,9.036a2.018,2.018,0,0,0-1.4,2.461,2.045,2.045,0,0,0,2.461,1.4c6.374-1.142,9.414-8.341,9.894-14.119.246-2.964.009-6.353-2.555-8.274a6.59,6.59,0,0,0-8.235.417,2.016,2.016,0,0,0,0,2.829,2.044,2.044,0,0,0,2.828,0Z"/><path class="b" d="M102.194,67.5a17.2,17.2,0,0,1-1,4.643c-.09.274-.193.545-.275.822-.037.125-.2.477.026-.039-.141.325-.294.646-.453.962A39.074,39.074,0,0,1,97.123,79.3C94.187,83.325,90.2,87.59,85.174,88.77c-2.505.587-1.445,4.445,1.063,3.857,6-1.407,10.648-6.309,14.175-11.085,3.047-4.125,5.57-8.8,5.782-14.043.1-2.574-3.9-2.569-4,0Z"/><path class="b" d="M45.582,50.842a6.591,6.591,0,0,0-8.235-.417c-2.566,1.916-2.8,5.315-2.555,8.274.48,5.778,3.52,12.977,9.895,14.119a2.056,2.056,0,0,0,2.46-1.4,2.018,2.018,0,0,0-1.4-2.461c-4.189-.751-6.108-5.267-6.8-9.036a15.33,15.33,0,0,1-.221-2.995,5.959,5.959,0,0,1,.426-2.675,2.46,2.46,0,0,1,3.595-.584,2.055,2.055,0,0,0,2.828,0,2.016,2.016,0,0,0,0-2.829Z"/><path class="b" d="M43.473,67.229a35.394,35.394,0,0,0,7.539,16.945c4.242,5.022,9.857,8.653,16.471,9.367a2.012,2.012,0,0,0,2-2,2.046,2.046,0,0,0-2-2c-5.669-.612-10.4-4.242-13.922-8.53-3.469-4.23-5.3-9.519-6.231-14.845a2.016,2.016,0,0,0-2.46-1.4,2.045,2.045,0,0,0-1.4,2.46Z"/><path class="b" d="M98.253,65.551a76.47,76.47,0,0,1,3.9-6.762,47.111,47.111,0,0,1,5.267-7.017,2,2,0,0,0-2.828-2.828A63.179,63.179,0,0,0,94.8,63.532a2.048,2.048,0,0,0,.718,2.736,2.02,2.02,0,0,0,2.736-.717Z"/><path class="b" d="M41.78,52.41a51.21,51.21,0,0,1,5.2,6.882c1.382,2.09,2.69,4.228,3.963,6.386,1.306,2.216,4.765.206,3.453-2.019-2.886-4.9-5.918-9.886-9.789-14.078A2,2,0,0,0,41.78,52.41Z"/><path class="a" d="M74.366,62.192a151.666,151.666,0,0,0-18.139,1.721c-.953.139-3.312.346-3.934,1.047-1.156,1.3-.717,4.084-.867,5.663a40.414,40.414,0,0,0,.225,7.58c.346,3.331.515,6.88,2.8,9.479,4.22,4.8,14,7.36,20.427,7.361A38.869,38.869,0,0,0,87.45,92.766c3.5-1.257,6.781-3.364,8.614-6.394,1.729-2.857,1.662-5.722,2.033-8.977A33.72,33.72,0,0,0,98.23,70.5c-.158-1.575.244-4.15-.926-5.468-.621-.7-2.566-.981-3.52-1.109A170.432,170.432,0,0,0,74.366,62.192Z"/><path class="b" d="M74.366,60.192a116.936,116.936,0,0,0-14.459,1.217c-2.317.3-4.285.445-6.46.921-2.427.53-3.606,2.117-3.891,4.538-.121,1.025-.069,2.045-.1,3.074-.034,1.247-.151,2.481-.124,3.732a71.223,71.223,0,0,0,.652,7.632,14.547,14.547,0,0,0,2.481,7.081A16.217,16.217,0,0,0,57.362,92.5c8.419,4.871,18.91,5.6,28.147,2.983,4.883-1.384,9.945-3.846,12.5-8.477a18.84,18.84,0,0,0,1.887-7.541,50.658,50.658,0,0,0,.374-8.545c-.184-2.468.3-5.59-1.716-7.459-1.724-1.6-4.873-1.561-7.058-1.839a140,140,0,0,0-17.128-1.432c-2.574-.009-2.577,3.991,0,4a121.361,121.361,0,0,1,13.25.964c2.047.232,4.1.457,6.139.766.561.086,1.746.115,2.167.542.293.3.247,1.61.256,2.094.084,4.509.285,9.059-.622,13.52-.893,4.392-4.4,7.193-8.45,8.69A34.047,34.047,0,0,1,62.342,90.5c-3.25-1.317-6.778-3.324-7.846-6.886a31.911,31.911,0,0,1-.92-6.156,47.72,47.72,0,0,1-.13-7.093c.049-.945-.038-1.9.046-2.843a2.407,2.407,0,0,1,.214-1.094c-.06.078.051-.063.35-.13,1.92-.43,3.9-.637,5.851-.888a116.952,116.952,0,0,1,14.459-1.217C76.94,64.182,76.945,60.182,74.366,60.192Z"/><path class="b" d="M58.735,54.57c-.5,1.613-.172,5.324,2.883,5.639,4.039-.024,4.254-4.51,2.894-6.619C63.4,51.863,60.126,51.145,58.735,54.57Z"/><path class="b" d="M91.078,54.57c.5,1.613.173,5.324-2.883,5.639-4.039-.024-4.254-4.51-2.894-6.619C86.414,51.863,89.687,51.145,91.078,54.57Z"/></svg>