<?xml version="1.0" encoding="utf-8"?>
<!-- Uploaded to: SVG Repo, www.svgrepo.com, Generator: SVG Repo Mixer Tools -->
<svg width="800px" height="800px" viewBox="-0.42 0 360.645 360.645" xmlns="http://www.w3.org/2000/svg"><defs><style>.a{fill:#ffffff;}.b{fill:#7a7473;}.c{fill:#211715;}.d{fill:#79c6e0;}.e{fill:#d9d9d9;}</style></defs><path class="a" d="M112.86,71.088c.443-8.364,7.221-33.411,44.72-33.411C202.4,37.677,200.9,73.7,200.9,73.7a6.563,6.563,0,0,1,5.251-1.536,6.2,6.2,0,0,1,4.455,2.962,8.754,8.754,0,0,1,.917,3.524,26.25,26.25,0,0,1-2.677,13.916,16.679,16.679,0,0,1-4.314,5.662,11.067,11.067,0,0,1-5.145,2.319l-.88.137c-.422,1.579-.9,2.91-1.13,3.617-1.391,3.778-8.727,16.193-18.223,22.05a83.377,83.377,0,0,0,.582,8.592,115.857,115.857,0,0,0,5.748,10.278c2.88,4.481-1.532,22.692-27.738,22.692s-36.8-17.56-30.458-22.806c5.9-4.878,7.085-10.452,7.085-10.506.292-2.722.483-5.713.549-8.131a40.368,40.368,0,0,1-10.388-9.057,44.633,44.633,0,0,1-8.509-16.61l-1.677-.256a11.063,11.063,0,0,1-5.144-2.319,16.7,16.7,0,0,1-4.315-5.662,26.258,26.258,0,0,1-2.676-13.916,8.738,8.738,0,0,1,.917-3.524,6.2,6.2,0,0,1,4.455-2.962,6.561,6.561,0,0,1,5.25,1.536A24.208,24.208,0,0,1,112.86,71.088Z"/><path class="b" d="M201.277,30.111c-3.015-4.046-6.543-7.316-9.608-8.657l-6.429-4.581C178.931,8.23,168.415,2.931,154.954,2.519c-8.935-.273-18.833.926-27.771,5.6-3.674,1.923-5.874,2.778-10.277,7.726-2.757,3.1-7.708,8.274-10.337,12.978-4.3,7.692-3.883,29.722-.49,43.758a6.344,6.344,0,0,1,1.509-.422,6.561,6.561,0,0,1,5.25,1.536l2.906,2.623.672-.632c12.192-11.448,20.907-17.254,31.707-25.739.065.743,2.443,6.687,3,6.913.731.3,8.5-4.556,14.251-8.106l8.344,1.827c4.337.949,11.483,3.384,15.148,6.538,5.8,4.989,7.507,11.893,10.728,18.451.942-2.443,3.884-3.811,6.561-3.411a6.014,6.014,0,0,1,1.143.286c3.263-8.381,3.741-20.523-.379-32.043A40.685,40.685,0,0,0,201.277,30.111Z"/><path class="a" d="M86.741,176.443c1.259,6.814.045,31.247-.547,39.692L84.02,254.39c44.052-.08,109.821-.145,143.39-.167l-2.253-9.792c-1.63-8.3-3.473-18.8-3.556-27.408a219.015,219.015,0,0,1,3.559-40.66c14.784,1.443,33.882,1.571,48.852,1.295,11.463-.211,20.041-8.5,21.217-15.368.725-4.237.064-9.625-.984-13.8-1.273-5.075-8.929-16.118-12.438-20.123-4.256-4.857-34.272-37.581-39.85-43.036-7.6,5.475-17.88,14.016-25.481,19.491,1.949,4.054,18.427,22.9,24.972,32.22l-2.157-.6c-5.334-1.482-25.467-4.965-28.45-4.73-1.923.152-15.632-.585-18.425-.912l-.613-.073a102.885,102.885,0,0,0-8.648-6.737.835.835,0,0,0-1.306.718c.029.879.053,1.713.084,2.531a66.711,66.711,0,0,1-17.176,11.44c-.4.18-.839.4-.966.816-.143.463.176.961.354,1.361-.459,4.36-3.669,13.952-6,19.2a103.744,103.744,0,0,1-4.885-17.549c-1.274-.175.223-1.216-.057-2.126-.128-.416-.57-.636-.966-.816a65.377,65.377,0,0,1-20.991-15.322c-3.442,2.335-6.919,4.9-10.268,7.683l-1.748.2c-2.793.326-16.263-.27-18.186-.422-2.982-.235-14.185,1.829-19.518,3.31l-11.816,4.2c6.563-9.5,23.743-30.328,25.7-34.4-7.6-5.475-17.881-14.016-25.482-19.491-5.578,5.455-35.594,38.179-39.85,43.036-3.509,4.005-11.164,15.048-12.438,20.123-1.048,4.175-1.708,9.563-.983,13.8,1.175,6.869,9.753,15.157,21.216,15.368,14.773.273,33.566.151,48.271-1.227"/><path class="c" d="M202.6,75.4a4.078,4.078,0,0,1,5.753.637,7.32,7.32,0,0,1,.853,3.954,22.906,22.906,0,0,1-.331,4.92c-1.023,5.566-3.931,12.237-10.123,13.325a2.42,2.42,0,0,0-1.676,2.952,2.454,2.454,0,0,0,2.952,1.676c8.855-1.555,13.1-11.532,13.872-19.528.392-4.057.236-8.988-3.235-11.721A9,9,0,0,0,199.206,72a2.42,2.42,0,0,0,0,3.394,2.45,2.45,0,0,0,3.394,0Z"/><path class="c" d="M196.923,95.661a21.973,21.973,0,0,1-1.045,5.5c-.2.674-.423,1.341-.646,2.008-.077.23-.533,1.34-.217.643a45.092,45.092,0,0,1-2.9,5.3,51.936,51.936,0,0,1-11.537,13.332,21.928,21.928,0,0,1-8.534,4.326c-3.008.7-1.735,5.325,1.276,4.628,6.6-1.529,12.145-6.247,16.515-11.226a56.886,56.886,0,0,0,9.2-13.666,29.449,29.449,0,0,0,2.686-10.847c.11-3.09-4.69-3.085-4.8,0Z"/><path class="c" d="M114.535,72a9,9,0,0,0-11.215-.579c-3.672,2.731-3.884,7.713-3.478,11.909.773,8,5.016,17.973,13.871,19.528a2.47,2.47,0,0,0,2.953-1.676,2.42,2.42,0,0,0-1.677-2.952c-6.192-1.088-9.1-7.759-10.123-13.325a22.882,22.882,0,0,1-.336-4.7,7.931,7.931,0,0,1,.767-4.026,4.05,4.05,0,0,1,5.844-.788,2.464,2.464,0,0,0,3.394,0,2.42,2.42,0,0,0,0-3.394Z"/><path class="c" d="M112.3,95.144c2.413,13.892,9.977,27.513,22.861,34.2a31.33,31.33,0,0,0,11.269,3.358,2.415,2.415,0,0,0,2.4-2.4,2.455,2.455,0,0,0-2.4-2.4c-8.192-.86-15.065-6.026-20.2-12.185-5.172-6.207-7.937-13.976-9.3-21.847a2.422,2.422,0,0,0-2.953-1.677,2.455,2.455,0,0,0-1.676,2.953Z"/><path class="c" d="M190.458,23.527a20.674,20.674,0,0,1,6.556,5.162A40.114,40.114,0,0,1,202.9,37.2a44.812,44.812,0,0,1,4.554,21.732,40.365,40.365,0,0,1-1.893,11.262c-.953,2.947,3.681,4.208,4.628,1.276a48.538,48.538,0,0,0-8.879-45.148,25.418,25.418,0,0,0-8.431-6.941,2.472,2.472,0,0,0-3.283.861,2.419,2.419,0,0,0,.861,3.284Z"/><path class="c" d="M187.313,15.661A38.33,38.33,0,0,0,163.037.977a60.214,60.214,0,0,0-34.191,3.7,40.955,40.955,0,0,0-13.637,9.475c-2.121,2.245,1.267,5.645,3.394,3.394a36.4,36.4,0,0,1,10.4-7.664,47.234,47.234,0,0,1,15.486-4.531c9.494-1.149,19.741-.594,28.333,3.966a30.65,30.65,0,0,1,10.344,8.767,2.474,2.474,0,0,0,3.284.861,2.418,2.418,0,0,0,.861-3.284Z"/><path class="c" d="M165.9,45.617c-4.569,2.8-9.068,5.794-13.812,8.3-.35.185-.707.353-1.06.532-.428.217.032-.02.036-.013s-.306.1-.344.108c.762-.067,2.012.016,2.252.872a2.562,2.562,0,0,0-.227-.373c-.187-.373-.383-.739-.559-1.117-.456-.977-.669-1.508-1.064-2.54a9.961,9.961,0,0,1-.682-2.072c-.282-2-2.792-2.016-4.012-1.059-10.734,8.423-21.731,16.39-31.707,25.739-2.259,2.117,1.141,5.506,3.394,3.394,9.976-9.349,20.972-17.315,31.707-25.739l-4.011-1.059a10.859,10.859,0,0,0,.773,2.306c.479,1.236.986,2.469,1.557,3.666a5.034,5.034,0,0,0,1.772,2.375c1.145.656,2.3.216,3.39-.276a64.312,64.312,0,0,0,6.621-3.736c2.812-1.7,5.6-3.444,8.4-5.163,2.629-1.613.22-5.766-2.422-4.144Z"/><path class="c" d="M173.079,52.9c5.783,1.29,12.042,3.41,16.122,7.9,4.493,4.947,6.39,11.657,9.1,17.623a2.418,2.418,0,0,0,3.283.861A2.457,2.457,0,0,0,202.444,76c-2.968-6.537-5.09-13.541-10.12-18.887-4.6-4.891-11.544-7.409-17.969-8.841-3.009-.671-4.295,3.955-1.276,4.628Z"/><path class="c" d="M156.272,92.937a39.468,39.468,0,0,1,.936,4.282l-.085-.638a2.6,2.6,0,0,1,.016.591l.085-.638a1.434,1.434,0,0,1-.065.266l.242-.573a1.076,1.076,0,0,1-.093.17l.375-.485a.962.962,0,0,1-.14.138l.486-.376a2.823,2.823,0,0,1-.339.18l.573-.242a2.485,2.485,0,0,1-.572.167l.638-.086a2.288,2.288,0,0,1-.536,0l.638.086c-.2-.028-.4-.078-.6-.105a1.823,1.823,0,0,0-.957-.043,1.794,1.794,0,0,0-.892.285,2.4,2.4,0,0,0-.861,3.284,2.3,2.3,0,0,0,1.434,1.1c.479.064.943.185,1.43.207a4.6,4.6,0,0,0,2.131-.51,3.117,3.117,0,0,0,1.716-2.052,5.069,5.069,0,0,0-.02-2.186c-.233-1.38-.552-2.747-.907-4.1a2.4,2.4,0,1,0-4.629,1.276Z"/><path class="a" d="M141.137,156.143c-6.147-6.11-10.174-13.51-14.715-20.9a32.742,32.742,0,0,1,6.671-9.014,66.34,66.34,0,0,0,19.145,13.342c.4.18.838.4.966.816a1.535,1.535,0,0,1-.221,1.081,61.631,61.631,0,0,1-3.96,5.113C146.329,149.876,142.946,153.915,141.137,156.143Z"/><path class="a" d="M175.857,155.254c6.148-6.11,10.175-13.51,14.716-20.9a32.761,32.761,0,0,0-6.672-9.014,66.336,66.336,0,0,1-19.144,13.342c-.4.18-.839.4-.966.816a1.535,1.535,0,0,0,.221,1.081,61.631,61.631,0,0,0,3.96,5.113C170.666,148.987,174.048,153.026,175.857,155.254Z"/><path class="c" d="M142.834,154.446c-5.928-5.949-9.985-13.314-14.34-20.416v2.422a31.563,31.563,0,0,1,6.3-8.528H131.4a68.643,68.643,0,0,0,9.788,8.116q2.514,1.731,5.176,3.23,1.293.727,2.617,1.392.649.325,1.306.636.371.174.744.344.542.32.105-.046l-.328-1.211c-.016-.208.154-.06-.053.136a4.487,4.487,0,0,0-.416.589c-.335.455-.689.9-1.04,1.338-1.165,1.463-2.353,2.907-3.542,4.35-2.1,2.551-4.227,5.083-6.313,7.648a2.472,2.472,0,0,0,0,3.394,2.419,2.419,0,0,0,3.394,0c2.438-3,4.925-5.951,7.374-8.938,1.333-1.626,2.666-3.254,3.938-4.928,1-1.313,1.9-2.807,1.251-4.514-.731-1.923-3.257-2.545-4.932-3.421q-2.868-1.5-5.579-3.284a62.593,62.593,0,0,1-10.1-8.225,2.443,2.443,0,0,0-3.394,0,34.256,34.256,0,0,0-6.138,7.844,10.265,10.265,0,0,0-1.151,2.229c-.316,1.152.38,2.07.943,3,.849,1.4,1.688,2.794,2.535,4.189,3.46,5.7,7.13,11.311,11.855,16.052C141.624,160.031,145.019,156.637,142.834,154.446Z"/><path class="c" d="M177.555,156.951c4.725-4.741,8.394-10.356,11.855-16.052.847-1.394,1.686-2.794,2.534-4.189a4.079,4.079,0,0,0,.986-2.677,7.121,7.121,0,0,0-1.087-2.364,34.357,34.357,0,0,0-6.245-8.028,2.441,2.441,0,0,0-3.394,0,62.645,62.645,0,0,1-10.095,8.226c-1.806,1.183-3.667,2.283-5.58,3.283-1.677.878-4.2,1.494-4.932,3.421-.649,1.708.253,3.2,1.251,4.514,1.273,1.674,2.606,3.3,3.939,4.928,2.449,2.987,4.936,5.942,7.373,8.938a2.418,2.418,0,0,0,3.4,0,2.457,2.457,0,0,0,0-3.394c-2.086-2.564-4.211-5.1-6.313-7.648-1.189-1.443-2.377-2.887-3.542-4.35-.352-.442-.7-.883-1.04-1.338-.126-.172-.259-.342-.373-.522-.171-.271-.084-.364-.1-.2l-.328,1.211q-.438.366.1.046.374-.169.744-.344.561-.265,1.118-.542,1.326-.658,2.618-1.381,2.758-1.539,5.363-3.334a68.653,68.653,0,0,0,9.787-8.117H182.2a31.535,31.535,0,0,1,6.3,8.529v-2.423c-4.355,7.1-8.412,14.467-14.341,20.416C171.977,155.747,175.37,159.143,177.555,156.951Z"/><path class="a" d="M207.217,280.188a6.531,6.531,0,0,0-2.769-5.155,14.367,14.367,0,0,0-5.469-2.181c-5.345-1.212-10.808-1.181-16.335-1.181s-10.991-.031-16.335,1.181a14.36,14.36,0,0,0-5.469,2.181,6.332,6.332,0,0,0-2.5,5.155h0c0,3.2,0,6.629,0,9.356.609,2.982,4.04,4.653,7.078,5.454,5.6,1.477,11.519,1.645,17.223,1.645,5.814,0,11.626-.168,17.225-1.645,3.205-.845,6.848-2.659,7.157-5.959l.192-2.046v-6.805Z"/><path class="c" d="M2.318,257.3c7.874,0,15.748-.074,23.623-.075,3.088,0,3.093-4.8,0-4.8-7.875,0-15.749.073-23.623.075-3.088,0-3.093,4.8,0,4.8Z"/><path class="a" d="M124.465,321.888c-27.931.007-84.022-.277-112.652-.272.01-9.643.514-47.822.514-55.954,4.93-5.84,16.086-18.471,18.747-21.436h9.8c0,1.795-.028,4.522-.061,8.231h.061l78.049,0c1.025-3,2.086-5.96,3.289-9h11.281c0,2.275.717,37.49.746,42.844-1.652,7.468-5.276,22.465-9.333,35.581Z"/><path class="d" d="M81.574,282.439c0,3.874,0,7.421,0,10.41,0,6.752,4.27,9.978,8.653,9.978,5.435,0,9.03-2.416,9.03-7.929,0-.714-.048-5.409-.128-12.129"/><path class="c" d="M121.329,268.539q.006,6.618,0,13.236a2.4,2.4,0,1,0,4.8,0q0-6.618,0-13.236a2.4,2.4,0,0,0-4.8,0Z"/><path class="c" d="M20.387,266c-.017,2.97.012,5.94.033,8.91a2.437,2.437,0,0,0,2.4,2.4c24.026,0,48.05.172,72.075.245q9.833.03,19.665.031a2.434,2.434,0,0,0,2.4-2.4q-.021-4-.026-8a11.029,11.029,0,0,1,.829-3.621q.693-2.088,1.378-4.178c1.689-5.132,3.4-10.255,5.384-15.283l-2.314,1.762h11.281l-2.4-2.4c.011,7.952.281,15.91.429,23.86q.135,7.229.257,14.457c.022,1.39-.035,2.805.057,4.193.013.191-.077.512.035-.063-.058.3-.131.589-.2.883q-.236,1.043-.475,2.085-.562,2.436-1.149,4.867c-2.228,9.234-4.658,18.427-7.459,27.5l2.315-1.762q-21.208.006-42.416-.089-24.093-.077-48.185-.15-11.246-.027-22.491-.033l2.4,2.4c.019-15.583.3-31.168.45-46.751.029-3.067.063-6.135.064-9.2l-.7,1.7c6.124-7.248,12.411-14.371,18.747-21.436,2.057-2.293-1.326-5.7-3.394-3.394-3.95,4.4-7.847,8.856-11.738,13.312-2.146,2.458-4.288,4.92-6.4,7.407a4.113,4.113,0,0,0-1.311,2.522c-.017.348,0,.7,0,1.05q0,1.334-.015,2.667c-.086,12.018-.245,24.036-.368,36.054-.055,5.358-.121,10.717-.128,16.075a2.434,2.434,0,0,0,2.4,2.4q21.567,0,43.133.093,23.993.077,47.985.148,10.987.027,21.974.031a2.459,2.459,0,0,0,2.314-1.762c2.544-8.247,4.776-16.589,6.839-24.968q1.182-4.8,2.273-9.619a19.362,19.362,0,0,0,.27-4.669c-.147-9.881-.353-19.762-.536-29.643-.063-3.387-.168-6.776-.173-10.164a2.435,2.435,0,0,0-2.4-2.4H122.211a2.486,2.486,0,0,0-2.314,1.762c-2.038,5.169-3.791,10.439-5.527,15.715-.869,2.642-2.239,5.457-2.236,8.253s.012,5.594.026,8.391l2.4-2.4c-23.988.007-47.975-.164-71.963-.24q-9.888-.033-19.777-.036l2.4,2.4c-.021-2.97-.05-5.94-.033-8.91.018-3.089-4.782-3.093-4.8,0Z"/><path class="c" d="M99.3,255.054q8.9.036,17.807.061c3.089.008,3.094-4.792,0-4.8q-8.9-.022-17.807-.061c-3.089-.013-3.093,4.787,0,4.8Z"/><path class="c" d="M68.247,254.92q6.413.026,12.824.054a2.4,2.4,0,1,0,0-4.8q-6.411-.029-12.824-.054a2.4,2.4,0,0,0,0,4.8Z"/><path class="d" d="M50.736,282.439c0,3.874,0,7.421,0,10.41,0,6.752,4.27,9.978,8.654,9.978,5.434,0,9.029-2.416,9.029-7.929,0-.714-.047-5.409-.128-12.129"/><path class="c" d="M79.174,282.439q0,3.822,0,7.643a26.493,26.493,0,0,0,.491,6.765,11.113,11.113,0,0,0,7.133,7.837,13.1,13.1,0,0,0,10.581-1.237c3.045-1.969,4.282-5.276,4.277-8.8-.006-3.96-.08-7.922-.127-11.882-.037-3.086-4.837-3.094-4.8,0q.063,5.317.117,10.636a23.884,23.884,0,0,1-.042,2.608c.028-.278-.089.486-.124.629s-.08.314-.127.468c.015-.046-.242.679-.117.372s-.181.36-.164.329c-.07.129-.143.257-.221.381s-.157.245-.243.361c.287-.389-.14.135-.175.172-.1.108-.673.6-.319.331a6.366,6.366,0,0,1-.831.527c-.131.071-.265.137-.4.2-.382.182.523-.173-.169.065a11.515,11.515,0,0,1-1.153.335,6.857,6.857,0,0,1-1.691.222c-.39.019-.781.028-1.171.013-.182-.006-.364-.021-.546-.036.353.028.083.017-.118-.024a9.541,9.541,0,0,1-.953-.237c-.147-.046-.85-.341-.448-.152a8.252,8.252,0,0,1-.872-.474c-.158-.1-.313-.2-.463-.31.272.2-.02-.019-.13-.12a6.277,6.277,0,0,1-1.962-3.093,20.163,20.163,0,0,1-.433-5.892q0-3.82,0-7.643c0-3.088-4.8-3.093-4.8,0Z"/><path class="c" d="M48.336,282.439q0,3.822,0,7.643a26.538,26.538,0,0,0,.491,6.765,11.113,11.113,0,0,0,7.134,7.837,13.1,13.1,0,0,0,10.581-1.237c3.045-1.969,4.281-5.276,4.276-8.8-.005-3.96-.079-7.922-.127-11.882-.036-3.086-4.837-3.094-4.8,0q.065,5.317.117,10.636a23.884,23.884,0,0,1-.041,2.608c.028-.278-.09.486-.124.629s-.08.314-.127.468c.014-.046-.242.679-.118.372s-.18.36-.164.329c-.069.129-.143.257-.221.381s-.157.245-.242.361c.287-.389-.14.135-.175.172-.105.108-.673.6-.32.331a6.356,6.356,0,0,1-.83.527c-.132.071-.265.137-.4.2-.383.182.522-.173-.169.065a11.534,11.534,0,0,1-1.154.335,6.85,6.85,0,0,1-1.691.222c-.389.019-.781.028-1.17.013-.183-.006-.364-.021-.546-.036.352.028.082.017-.118-.024a9.407,9.407,0,0,1-.953-.237c-.147-.046-.85-.341-.448-.152a8.367,8.367,0,0,1-.873-.474c-.158-.1-.313-.2-.463-.31.272.2-.02-.019-.129-.12a6.27,6.27,0,0,1-1.962-3.093,20.129,20.129,0,0,1-.434-5.892q0-3.82,0-7.643c0-3.088-4.8-3.093-4.8,0Z"/><path class="c" d="M182.644,269.271a97.509,97.509,0,0,0-13.291.615c-3.907.536-8.552,1.355-11.309,4.459a7.511,7.511,0,0,0-.3,10.142c2.353,2.714,6.164,3.783,9.554,4.448a72.694,72.694,0,0,0,13.255,1.146,101.3,101.3,0,0,0,13.414-.523c3.787-.468,7.913-1.074,11.219-3.127,3.122-1.938,5.165-5.447,3.838-9.136-1.677-4.662-6.616-6.289-11.062-7.093a85.762,85.762,0,0,0-15.318-.931c-3.089,0-3.094,4.8,0,4.8a106.985,106.985,0,0,1,11.59.4c2.877.312,6.813.728,9.091,2.731,1.79,1.574,1.606,3.583-.279,4.9-2.411,1.685-5.685,2.173-8.527,2.579a79.5,79.5,0,0,1-10.907.6c-3.6.014-7.207-.024-10.792-.369-2.528-.244-14.924-1.629-11.676-6.767,1.747-2.763,6.394-3.241,9.309-3.611a96.707,96.707,0,0,1,12.191-.471C185.732,274.072,185.737,269.272,182.644,269.271Z"/><path class="c" d="M155.944,280.188q0,4.176,0,8.353a7.374,7.374,0,0,0,3.03,6.034c4.039,3.17,9.843,3.776,14.784,4.181a111.517,111.517,0,0,0,17.339.037c4.922-.371,10.818-.921,14.913-3.98a8.146,8.146,0,0,0,3.43-5.92,80.735,80.735,0,0,0,.178-8.7c0-3.089-4.8-3.094-4.8,0,0,2.4.134,4.851-.041,7.246-.1,1.316-.154,2.263-1.178,3.188a10.47,10.47,0,0,1-4.368,2.062,42.43,42.43,0,0,1-7.175,1.23,116.593,116.593,0,0,1-15.012.237c-4.361-.173-9.331-.419-13.356-2.282a7.03,7.03,0,0,1-2.293-1.538,2.456,2.456,0,0,1-.651-2q0-4.074,0-8.147c0-3.089-4.8-3.094-4.8,0Z"/><path class="c" d="M24.809,316.113c3.089,0,3.094-4.8,0-4.8s-3.093,4.8,0,4.8Z"/><path class="c" d="M11.813,316.113c3.089,0,3.094-4.8,0-4.8s-3.094,4.8,0,4.8Z"/><path class="c" d="M31.074,246.626h9.8l-2.4-2.4c0,2.744-.037,5.488-.061,8.231a2.433,2.433,0,0,0,2.4,2.4q4.887,0,9.774.01c3.088.006,3.093-4.794,0-4.8q-4.887-.009-9.774-.01l2.4,2.4c.024-2.743.059-5.487.061-8.231a2.435,2.435,0,0,0-2.4-2.4h-9.8c-3.089,0-3.094,4.8,0,4.8Z"/><path class="c" d="M20.476,282.278c.076,10.474.251,20.972-.112,31.442a2.429,2.429,0,0,0,2.4,2.4c24.112,0,48.223.16,72.335.235q9.8.03,19.6.034a2.434,2.434,0,0,0,2.4-2.4c0-10.516-.063-21.033-.11-31.55a2.436,2.436,0,0,0-2.4-2.4c-23.94.008-47.879-.163-71.819-.24q-9.945-.031-19.889-.036a2.432,2.432,0,0,0-2.4,2.4v.115c.023,3.087,4.823,3.094,4.8,0v-.115l-2.4,2.4c23.982,0,47.964.173,71.946.246q9.881.03,19.762.03l-2.4-2.4c.047,10.517.109,21.034.11,31.55l2.4-2.4c-24.107,0-48.214-.167-72.321-.238q-9.8-.029-19.609-.031l2.4,2.4c.363-10.47.188-20.968.112-31.442C25.254,279.19,20.454,279.183,20.476,282.278Z"/><path class="c" d="M150.215,256.817q15.412-.033,30.824-.056,17.883-.029,35.765-.05,18.3-.022,36.6-.041,16.663-.018,33.325-.032l25.946-.02h2.508c3.089,0,3.094-4.8,0-4.8q-12.371.007-24.741.018-16.315.013-32.631.03-18.207.019-36.414.041-18.045.021-36.092.048-15.831.024-31.662.055l-3.425.008c-3.089.006-3.094,4.806,0,4.8Z"/><path class="c" d="M134.582,256.856q7.817-.024,15.633-.039a2.4,2.4,0,0,0,0-4.8q-7.817.017-15.633.039a2.4,2.4,0,1,0,0,4.8Z"/><path class="a" d="M68.247,228.657v34.887c-1.061,1.709-3.307,2.3-5.331,2.571a19.558,19.558,0,0,1-6.31-.019,9.515,9.515,0,0,1-5.7-3.231c-.006-14.147-.013-28.234-.013-34.124"/><path class="a" d="M99.085,228.657v34.887c-1.061,1.709-3.307,2.3-5.33,2.571a19.565,19.565,0,0,1-6.311-.019,9.515,9.515,0,0,1-5.7-3.231c-.006-14.147-.013-28.234-.013-34.124"/><path class="c" d="M65.847,228.657v34.887l.327-1.211c-1.168,1.7-4.872,1.631-6.647,1.628-2.652,0-5.176-.7-6.92-2.793l.7,1.7Q53.3,245.8,53.3,228.741c0-3.089-4.8-3.094-4.8,0q0,8.511.005,17.023,0,5.814,0,11.629l0,2.977A12.419,12.419,0,0,0,48.6,263.5c.463,1.684,2.7,3.112,4.176,3.815,3.4,1.617,7.124,1.631,10.782,1.111a11.748,11.748,0,0,0,4.4-1.385,7,7,0,0,0,1.791-1.513,3.989,3.989,0,0,0,.9-2.884v-33.99c0-3.088-4.8-3.094-4.8,0Z"/><path class="c" d="M96.685,228.657v34.887l.328-1.211c-1.169,1.7-4.872,1.631-6.648,1.628-2.652,0-5.175-.7-6.92-2.793l.7,1.7q-.007-17.062-.013-34.124c0-3.089-4.8-3.094-4.8,0q0,8.511.006,17.023,0,5.814.005,11.629v2.977a12.513,12.513,0,0,0,.087,3.133c.464,1.684,2.7,3.112,4.176,3.815,3.4,1.617,7.124,1.631,10.783,1.111a11.743,11.743,0,0,0,4.4-1.385,7,7,0,0,0,1.791-1.513,3.984,3.984,0,0,0,.9-2.884v-33.99c0-3.088-4.8-3.094-4.8,0Z"/><path class="a" d="M59.241,224.549c-4.778,0-8.344,1.248-8.344,4.192,0,3.041,2.891,3.954,8.394,3.954,5.968,0,8.956-.856,8.956-4.038C68.247,225.714,64.022,224.549,59.241,224.549Z"/><path class="a" d="M90.08,224.549c-4.779,0-8.345,1.248-8.345,4.192,0,3.041,2.891,3.954,8.395,3.954,5.968,0,8.955-.856,8.955-4.038C99.085,225.714,94.861,224.549,90.08,224.549Z"/><path class="c" d="M59.241,222.149c-3.54.019-8.5.547-10.2,4.221a5.847,5.847,0,0,0,.2,5.281,6.508,6.508,0,0,0,3.906,2.79,21.038,21.038,0,0,0,5.853.653,29.514,29.514,0,0,0,6.176-.477A7.5,7.5,0,0,0,69.2,232.56a5.733,5.733,0,0,0,1.34-4.892c-.883-4.849-7.383-5.5-11.3-5.519a2.4,2.4,0,1,0,0,4.8,15.966,15.966,0,0,1,4.574.507c.333.091.659.2.982.318-.415-.156.244.124.377.2s.275.168.411.256c.291.189-.349-.391.016.024.073.083.164.174.243.25-.253-.245-.185-.166.009.063.07.084.328.352-.049-.117-.007-.009.076.324.082.325-.166-.048.01-.532-.04-.037a1.633,1.633,0,0,0-.016.312c.029.287.185-.553.01-.13a1.354,1.354,0,0,0-.072.27c-.05.445.053-.26.095-.2.021.031-.18.314-.193.345-.174.392.117-.228.136-.172.011.033-.2.21-.236.239-.17.153-.361.169.1-.072-.087.045-.158.113-.247.155-.238.113-.611.266-.135.1-.307.109-.61.213-.927.294-.289.074-.58.134-.874.185-.14.025-.281.047-.422.067.449-.064.053-.009-.033,0-.857.079-1.712.133-2.572.152-.823.019-1.647.019-2.47-.007q-.6-.018-1.193-.059c-.166-.012-.331-.025-.5-.041-.03,0-.8-.095-.29-.023a10.461,10.461,0,0,1-1.775-.394c-.111-.036-.223-.087-.335-.118.489.135.245.126.112.043-.218-.135-.444-.253-.66-.394.5.324.24.181.107.05-.16-.157-.209-.366.062.119-.085-.152-.175-.329-.272-.474.456.677.144.238.1.179-.019-.025-.155-.565-.048-.113.085.365,0,.048,0-.066a4.121,4.121,0,0,0,0-.509c-.044-.322-.13.555.012.055.127-.447-.277.384-.005-.031.056-.085.121-.191.167-.278-.158.3-.188.22.047-.023.079-.082.174-.149.254-.23-.372.377-.045.05.1-.04.166-.1.951-.427.5-.269a12.864,12.864,0,0,1,4.852-.71,2.4,2.4,0,0,0,0-4.8Z"/><path class="c" d="M90.08,222.149c-3.54.019-8.5.547-10.206,4.221a5.847,5.847,0,0,0,.2,5.281,6.506,6.506,0,0,0,3.905,2.79,21.041,21.041,0,0,0,5.854.653,29.5,29.5,0,0,0,6.175-.477,7.492,7.492,0,0,0,4.031-2.057,5.73,5.73,0,0,0,1.341-4.892c-.883-4.849-7.384-5.5-11.3-5.519a2.4,2.4,0,1,0,0,4.8,15.974,15.974,0,0,1,4.574.507q.5.137.981.318c-.414-.156.244.124.377.2s.276.168.412.256c.29.189-.35-.391.015.024.074.083.165.174.243.25-.252-.245-.184-.166.009.063.071.084.328.352-.048-.117-.007-.009.075.324.081.325-.165-.048.01-.532-.04-.037a1.632,1.632,0,0,0-.015.312c.028.287.184-.553.009-.13a1.5,1.5,0,0,0-.072.27c-.05.445.054-.26.095-.2.021.031-.179.314-.193.345-.173.392.118-.228.136-.172.011.033-.2.21-.235.239-.171.153-.361.169.1-.072-.086.045-.158.113-.247.155-.237.113-.61.266-.134.1-.308.109-.611.213-.928.294-.288.074-.58.134-.873.185-.14.025-.281.047-.422.067.449-.064.053-.009-.034,0-.856.079-1.711.133-2.572.152-.823.019-1.647.019-2.47-.007q-.6-.018-1.193-.059c-.165-.012-.331-.025-.5-.041-.03,0-.8-.095-.29-.023a10.45,10.45,0,0,1-1.774-.394c-.112-.036-.223-.087-.335-.118.488.135.245.126.111.043-.217-.135-.444-.253-.66-.394.5.324.24.181.107.05-.159-.157-.209-.366.063.119-.085-.152-.175-.329-.272-.474.455.677.143.238.1.179-.019-.025-.154-.565-.048-.113.086.365,0,.048,0-.066a3.934,3.934,0,0,0,0-.509c-.044-.322-.129.555.012.055.127-.447-.276.384,0-.031.055-.085.121-.191.166-.278-.158.3-.188.22.047-.023.08-.082.175-.149.255-.23-.372.377-.046.05.1-.04.166-.1.951-.427.5-.269a12.864,12.864,0,0,1,4.852-.71,2.4,2.4,0,0,0,0-4.8Z"/><path class="a" d="M187.231,241.616c-.889-13.037-1.778-29.037-1.037-42.37,1.072-19.293,3.2-32.357-.037-48.1-.813-3.954-1.8-7.54-2.667-11.482a67.941,67.941,0,0,1-1.641-14.951.835.835,0,0,1,1.306-.718c11.937,8.342,18.441,16.325,26.715,25.8a6.2,6.2,0,0,1,1.718,2.909,3.635,3.635,0,0,1-.721,3.16c-2.636,2.545-5.6,5.36-9.323,8.749q3.864,1.875,7.634,3.937a7.118,7.118,0,0,1,3.009,2.487c.888,1.59.463,3.56.014,5.325-1.5,5.9-9.84,35.359-11.341,41.262Z"/><path class="c" d="M189.631,241.616c-1.107-16.266-1.751-32.477-.637-48.76.515-7.544,1.211-15.09,1.279-22.655a95.219,95.219,0,0,0-2.256-21.8c-1.04-4.622-2.336-9.194-3.071-13.88-.26-1.654-.416-3.322-.513-4.993a28.482,28.482,0,0,1-.148-5.094l-.328,1.211-1.052.627-1.211-.327a26.628,26.628,0,0,1,4.519,3.263q2.241,1.758,4.379,3.644c2.6,2.294,5.081,4.727,7.464,7.249,2.338,2.476,4.588,5.033,6.825,7.6,1.139,1.309,2.286,2.612,3.418,3.927.693.806,1.423,1.842.615,2.778a53.742,53.742,0,0,1-4,3.811q-2.514,2.367-5.069,4.69a2.416,2.416,0,0,0,.486,3.77q2.359,1.149,4.688,2.362a35.8,35.8,0,0,1,4.2,2.312c1.73,1.23.957,3.261.5,5.016-.715,2.736-1.475,5.461-2.228,8.186-2.172,7.866-4.377,15.722-6.549,23.588-.813,2.941-1.642,5.88-2.4,8.837-.763,3,3.865,4.272,4.629,1.276,3.488-13.682,7.7-27.173,11.233-40.844.827-3.2,1.258-6.693-1.42-9.174a21.555,21.555,0,0,0-4.7-2.9q-2.742-1.452-5.533-2.807l.486,3.77q3.5-3.19,6.934-6.457a26.009,26.009,0,0,0,2.794-2.78,5.932,5.932,0,0,0,1.019-4.369c-.368-3.09-3.123-5.411-5.065-7.644-1.781-2.048-3.566-4.093-5.393-6.1a116.349,116.349,0,0,0-12.572-12.059q-1.77-1.437-3.6-2.805c-1.283-.963-2.9-2.6-4.586-2.63a3.224,3.224,0,0,0-3.291,2.976,28.4,28.4,0,0,0,.073,3.523,88.7,88.7,0,0,0,2.808,17.4,99.993,99.993,0,0,1,2.926,17.421c.744,11.992-.794,24.019-1.471,35.979-.807,14.274.041,28.614,1.01,42.859a2.457,2.457,0,0,0,2.4,2.4,2.421,2.421,0,0,0,2.4-2.4Z"/><path class="c" d="M150.991,143.413a93.186,93.186,0,0,0,4.841,17.285,2.433,2.433,0,0,0,2,1.72,2.362,2.362,0,0,0,2.391-1.146c1.364-3.09,2.545-6.259,3.6-9.466a65.9,65.9,0,0,0,2.464-9.108,2.469,2.469,0,0,0-1.676-2.952,2.421,2.421,0,0,0-2.953,1.676,64.9,64.9,0,0,1-2.377,8.844q-.771,2.352-1.637,4.672-.426,1.142-.88,2.271-.2.5-.407.993c.1-.229.043-.1-.023.053q-.129.3-.259.594l4.386.573a93.186,93.186,0,0,1-4.841-17.285,2.419,2.419,0,0,0-2.952-1.676,2.456,2.456,0,0,0-1.676,2.952Z"/><path class="a" d="M301.122,299.343h28.572c6.035,7.547,22.717,32.653,27.717,41.908.008,4-.1,11.986-.285,16.236-37.2.24-62.135.481-99.485.721-4.657-15.519-9.154-32.529-12.809-48.39,0-3.485.151-6.228.151-9.75,10.579-.069,47.686-.139,56.139-.209"/><path class="b" d="M265.527,233.875c-2.214-4.043-6.72-10.683-9.661-15.55a8.1,8.1,0,0,1-1-5.97,11.357,11.357,0,0,1,5.749-7.408,12.06,12.06,0,0,1,13,1.3,9.317,9.317,0,0,1,5.475-7.176c4.965-1.827,7.749.078,8.981.894,6.658,6.394,11.873,11.519,18.183,18.414"/><path class="c" d="M267.6,232.663c-1.7-3.084-3.642-6.036-5.539-9-1.066-1.665-2.134-3.328-3.177-5.008-.919-1.48-1.823-2.85-1.809-4.654.024-3.232,2.676-6.23,5.575-7.376a10.058,10.058,0,0,1,9.75,1.693c1.613,1.222,3.444-.5,3.611-2.072.315-2.985,3.264-5.12,6.027-5.49,2.645-.354,4.039.62,5.856,2.371,5.707,5.5,11.3,11.1,16.659,16.948,2.092,2.283,5.479-1.119,3.395-3.394q-4.677-5.1-9.568-10-2.462-2.466-4.966-4.89a30.069,30.069,0,0,0-4.6-4.2,11.668,11.668,0,0,0-17.605,8.655l3.611-2.072c-5.8-4.4-14.433-3.812-19.259,1.773a12.169,12.169,0,0,0-3.008,10.529,15.632,15.632,0,0,0,2.284,4.762c.94,1.51,1.9,3.008,2.858,4.506,1.97,3.079,3.991,6.141,5.759,9.343,1.493,2.7,5.64.286,4.144-2.423Z"/><path class="c" d="M270.646,207.063c2.862,3.86,5.776,7.682,8.608,11.565a2.457,2.457,0,0,0,3.284.861,2.427,2.427,0,0,0,.861-3.283c-2.832-3.883-5.746-7.706-8.609-11.566a2.46,2.46,0,0,0-3.283-.861,2.426,2.426,0,0,0-.861,3.284Z"/><path class="c" d="M318.831,273.468c-12.365,4.621-32.267,4.56-44.3.261.207,2.905.821,9.9,2.7,13.918,11.491,5.707,30.437,6.924,40.82.631a65.473,65.473,0,0,0,2.163-15.358Q319.537,273.2,318.831,273.468Z"/><path class="c" d="M272.13,269.619c.307,4.365.619,8.734,1.329,13.057.326,1.989.626,4.423,1.695,6.182.72,1.186,2.6,1.681,3.827,2.184,1.277.523,2.58.982,3.9,1.384,10.581,3.228,23.307,3.85,33.613-.657,1.4-.612,3.328-1.3,3.867-2.853a34.769,34.769,0,0,0,1.188-5.415,63.6,63.6,0,0,0,1.061-10.581c.015-3.089-4.785-3.093-4.8,0a58.514,58.514,0,0,1-2.077,14.72l1.1-1.434c-5.571,3.32-12.417,4.053-18.783,3.857a48.261,48.261,0,0,1-19.615-4.489l.861.861c.2.448-.1-.269-.151-.422-.106-.309-.2-.623-.287-.937-.212-.764-.381-1.54-.531-2.319-.311-1.61-.532-3.234-.713-4.863-.3-2.753-.492-5.514-.686-8.275a2.457,2.457,0,0,0-2.4-2.4,2.421,2.421,0,0,0-2.4,2.4Z"/><path class="c" d="M301.122,302.255h24.305c.686,0,1.379-.029,2.064,0,1.411.061,1.924,1.139,2.693,2.181,5.645,7.653,10.991,15.542,16.2,23.5,2.449,3.742,4.871,7.507,7.149,11.355.411.695.846,1.387,1.217,2.1.512.99.256,2.429.247,3.523q-.037,4.465-.148,8.931c-.019.728.048,1.017-.594,1.259a8.66,8.66,0,0,1-2.467.016l-3.155.021-10.076.07q-9.681.07-19.362.144-18.644.142-37.286.284-10.332.075-20.664.144c-.855,0-1.6.159-2.029-.7a16.336,16.336,0,0,1-.789-2.683q-.394-1.353-.784-2.707-1.446-5.028-2.823-10.076-2.713-9.936-5.172-19.939-.621-2.524-1.223-5.052a44.248,44.248,0,0,1-1.174-5,33,33,0,0,1,.053-4.468c.016-.689-.355-2.4.389-2.71a6.48,6.48,0,0,1,1.977-.009l2.924-.012q3.087-.012,6.174-.021,6.918-.024,13.837-.043,12.545-.037,25.09-.088,1.713-.009,3.428-.021c3.087-.026,3.094-4.826,0-4.8-17,.139-33.994.111-50.991.183-2.558.011-5.145-.043-6.734,2.376-.938,1.429-.845,3.083-.884,4.718-.04,1.674-.2,3.41-.081,5.082a35.447,35.447,0,0,0,1.2,5.4q.627,2.64,1.273,5.276,1.308,5.338,2.691,10.658,2.758,10.626,5.809,21.174c.914,3.156,1.493,7,5.175,8.031a19.873,19.873,0,0,0,5.374.21l5.538-.038q40.659-.279,81.318-.6c1.7-.012,3.593.217,5.217-.344a5.4,5.4,0,0,0,3.319-3.36,15.506,15.506,0,0,0,.353-4.577q.048-2.381.077-4.762c.017-1.425.05-2.853.034-4.279a8.027,8.027,0,0,0-1.184-4.109c-.985-1.728-2.019-3.428-3.068-5.118-5.46-8.8-11.279-17.393-17.257-25.85q-1.889-2.673-3.824-5.315c-1.643-2.232-3.164-4.367-6.157-4.7a51.981,51.981,0,0,0-5.68-.061H301.122c-3.089,0-3.094,4.8,0,4.8Z"/><path class="c" d="M275.782,309.24c1.284,3.721,2.892,7.315,4.26,11a2.487,2.487,0,0,0,2.314,1.762h26.2a2.428,2.428,0,0,0,2.073-3.611c-1.386-2.795-2.924-5.525-4.508-8.212-.733-1.244-1.678-3.487-3.168-3.895a5.725,5.725,0,0,0-1.492-.085q-7.441,0-14.883,0H278.1c-3.088,0-3.093,4.8,0,4.8,8.07,0,16.15.128,24.218,0l-2.072-1.189a97.321,97.321,0,0,1,6.241,11l2.072-3.611h-26.2l2.314,1.762c-1.368-3.689-2.975-7.283-4.259-11C279.409,305.061,274.771,306.309,275.782,309.24Z"/><path class="c" d="M272.118,263.617c-6.8-5.338-6.687-17.543-2.913-23.2s6.776-8.3,13.408-9.8c3.311-.749,8.409-.41,9.945.849l.187.153.981-1.606c1.976-3.227,7.136-6.216,13.5-6.213,3.891,0,8.359.517,11.872,2.188A13.685,13.685,0,0,1,326.774,240c-5.409-5.724-10.641-8.87-21.034-9.337-12.019-.54-21.751,4.5-26.587,9.031s-9.5,13.829-7.775,20.231Z"/><path class="a" d="M269.046,240.667a19.222,19.222,0,0,0-2.4,10.577c-4.075-7.445-5.011-8.82-7.787-16.159-.468-5.147,2.132-12.655,6.171-15.891,4.109-3.292,22.09-7.976,26.08-8.619,3.714-.6,7.5-.023,11.223.552,7.757,4.4,14.209,8.079,20.337,16.563l-3.57-1.7c-3.513-1.671-8.348-1.593-12.238-1.595-6.367,0-11.16,2.393-13.136,5.62l-.981,1.606-.187-.153c-1.536-1.259-6.634-1.6-9.945-.849-6.632,1.5-9.632,4.144-13.408,9.8Q269.124,240.543,269.046,240.667Z"/><path class="c" d="M329.174,240a16.321,16.321,0,0,0-7.693-15.443,23.871,23.871,0,0,0-9.872-2.916,26.081,26.081,0,0,0-11.34.886,16.187,16.187,0,0,0-8.615,6.281c-1.663,2.614,2.489,5.024,4.145,2.422,1.584-2.49,4.88-4.019,7.846-4.661a25.483,25.483,0,0,1,11.724.607c5.918,1.635,9.56,6.421,9,12.824a2.419,2.419,0,0,0,2.4,2.4,2.449,2.449,0,0,0,2.4-2.4Z"/><path class="c" d="M272.59,260.118c-4.541-2.9-4.485-10.061-2.978-14.914a17.783,17.783,0,0,1,17.38-12.571,14.083,14.083,0,0,1,2.608.247,3.492,3.492,0,0,1,1.747.664,2.417,2.417,0,0,0,3.284-.861,2.459,2.459,0,0,0-.861-3.284c-1.509-1.128-3.708-1.361-5.519-1.5a21.544,21.544,0,0,0-6.276.414,21.241,21.241,0,0,0-10.287,5.2,23.87,23.87,0,0,0-7.613,20.016c.526,4.307,2.331,8.34,6.092,10.738,2.612,1.666,5.022-2.486,2.423-4.144Z"/><path class="c" d="M268.356,249.579a107.884,107.884,0,0,1-7.183-15.132,2.467,2.467,0,0,0-2.952-1.676,2.418,2.418,0,0,0-1.676,2.952A115.828,115.828,0,0,0,264.211,252a2.4,2.4,0,0,0,4.145-2.422Z"/><path class="c" d="M261.259,235.085c-.715-5.7,2.088-10.951,6.69-14.266a13.35,13.35,0,0,1,1.983-1.131,25.852,25.852,0,0,1,2.424-1.052c2.275-.892,4.6-1.666,6.927-2.394,4.2-1.312,8.467-2.536,12.779-3.439a18.047,18.047,0,0,1,6.565-.178,13.326,13.326,0,0,1,4.223,1.323,37.38,37.38,0,0,1,3.969,2.735,83.066,83.066,0,0,1,15.713,14.99,2.416,2.416,0,0,0,3.394,0,2.456,2.456,0,0,0,0-3.394,85.143,85.143,0,0,0-15.18-14.631c-2.8-2.1-5.543-4.291-8.968-5.239a23.006,23.006,0,0,0-9.943-.439,104.611,104.611,0,0,0-12.65,3.281c-2.558.777-5.105,1.606-7.6,2.562a30.531,30.531,0,0,0-5.732,2.642c-6.126,3.971-10.318,11.248-9.391,18.63a2.478,2.478,0,0,0,2.4,2.4,2.413,2.413,0,0,0,2.4-2.4Z"/><path class="a" d="M292.873,283.292V331.9c1.868,3.283,3.6,7.016,5.72,11-2.593.069,13.457-.037,15.6-.037,0-8.127-.325-54.21-.325-59.014"/><path class="c" d="M299.8,313.105q0,14.827-.026,29.656c0,3.089,4.8,3.094,4.8,0q0-14.828.026-29.656c0-3.089-4.8-3.094-4.8,0Z"/><path class="c" d="M311.464,284.863c0,6.453.068,12.907.109,19.36q.092,14.379.176,28.756c.018,3.293.04,6.585.04,9.878,0,3.088,4.8,3.093,4.8,0,0-7.244-.065-14.487-.109-21.731q-.087-14.046-.176-28.093c-.016-2.724-.04-5.447-.04-8.17,0-3.088-4.8-3.094-4.8,0Z"/><path class="c" d="M290.473,284.863V331.9c0,3.088,4.8,3.093,4.8,0V284.863c0-3.089-4.8-3.094-4.8,0Z"/><path class="c" d="M314.563,345.224c10.715-.1,21.432-.058,32.148-.126,3.087-.019,3.094-4.819,0-4.8-10.716.068-21.433.025-32.148.126-3.087.029-3.095,4.829,0,4.8Z"/><path class="c" d="M270.685,345.515c10.131-.1,20.263-.061,30.394-.126,3.087-.019,3.094-4.819,0-4.8-10.131.065-20.263.03-30.394.126-3.087.029-3.094,4.829,0,4.8Z"/><path class="a" d="M334.489,255.5a30.221,30.221,0,0,0-7.715-15.5c-5.409-5.724-10.641-8.87-21.034-9.337-12.019-.54-21.751,4.5-26.587,9.031s-9.5,16.1-7.775,22.5c1.674,5.724,8.016,14.154,11.888,18.826,12.589,4.5,33.79,4.356,45.958-.934a144.6,144.6,0,0,0,5.638-17.619A29.135,29.135,0,0,0,334.489,255.5Z"/><path class="e" d="M293.088,272.648a49.3,49.3,0,0,0,15.474,1.471,70.74,70.74,0,0,0,16.306-2.477c2.968-.838,1.707-5.471-1.276-4.629a64.928,64.928,0,0,1-15.03,2.306,44.984,44.984,0,0,1-14.2-1.3c-2.974-.853-4.245,3.778-1.276,4.629Z"/><path class="c" d="M332.613,261.552a151.6,151.6,0,0,1-5.7,17.892l1.1-1.434a52.343,52.343,0,0,1-16.3,3.558,79.076,79.076,0,0,1-18.631-.608A52.31,52.31,0,0,1,283.9,278.7l1.059.618a105.5,105.5,0,0,1-6.393-8.533,35.879,35.879,0,0,1-4.877-9.234c-.894-2.948-5.528-1.692-4.629,1.276,1.683,5.557,5.305,10.568,8.765,15.147q1.272,1.683,2.592,3.33a15.284,15.284,0,0,0,1.148,1.408,6.245,6.245,0,0,0,2.526,1.108,54.636,54.636,0,0,0,7.89,1.8,84.644,84.644,0,0,0,18.223.856,64.4,64.4,0,0,0,17.045-3.066c1.593-.55,3.608-1,4.285-2.687.786-1.953,1.479-3.954,2.168-5.943,1.362-3.928,2.556-7.908,3.536-11.949.728-3-3.9-4.281-4.629-1.276Z"/><path class="c" d="M273.693,261.552c-1.252-4.941,1.27-11.39,3.864-15.83,2.735-4.685,6.935-7.614,11.891-9.751a37.811,37.811,0,0,1,20.445-2.539,24.534,24.534,0,0,1,14.058,7.109,28.325,28.325,0,0,1,8.56,20.985c-.085,3.09,4.715,3.087,4.8,0,.39-14.281-9.442-28.929-23.685-32.251a42.328,42.328,0,0,0-23.814,1.423c-5.916,2.162-11.626,5.534-15.257,10.8a35.98,35.98,0,0,0-4.834,10.475c-.992,3.477-1.558,7.3-.657,10.858.758,2.993,5.388,1.725,4.629-1.276Z"/><path class="c" d="M125.208,94.653a21.746,21.746,0,0,1,2.373,3.655,2.11,2.11,0,0,0,.249.541c-.133-.319-.164-.393-.095-.224.029.072.058.143.086.215.138.353.263.71.38,1.07s.216.712.307,1.074c.107.428.007-.562-.021-.089,0,.093,0,.186,0,.279q.093-.566.039-.282a1.8,1.8,0,0,1-.05.217q-.12.361.081-.132a3.208,3.208,0,0,0-.25.454c-.237.406.239-.228-.135.156-.406.418.334-.131-.06.077-.53.28-.007.007.01.032a2.484,2.484,0,0,1-.281.077c-.254.047-.173.039.244-.026a2.37,2.37,0,0,0-.4.012c-.09,0-.18-.008-.27-.017q.585.088.3.036c-.145-.055-.315-.07-.464-.118-.066-.02-.131-.043-.2-.067-.173-.066-.087-.029.256.109a2.787,2.787,0,0,0-.479-.265l-.113-.075q-.3-.22.165.127c-.035-.083-.214-.209-.289-.278q-.244-.282.124.18c-.051-.07-.1-.143-.144-.218-.191-.318.008-.253.016.106,0-.135-.173-.868-.062,0a2.63,2.63,0,0,0-.7-1.7,2.438,2.438,0,0,0-1.7-.7c-1.165.052-2.569,1.066-2.4,2.4a5.383,5.383,0,0,0,.885,2.583,6.3,6.3,0,0,0,1.971,1.822,6.024,6.024,0,0,0,5.248.461,5.821,5.821,0,0,0,3.455-4.975,11.191,11.191,0,0,0-1.339-4.816,20.587,20.587,0,0,0-2.592-4.128,2.638,2.638,0,0,0-1.434-1.1,2.451,2.451,0,0,0-1.849.242c-.982.633-1.678,2.217-.861,3.284Z"/><path class="c" d="M156.936,106.027c-.077,0-.694-.089-.212-.008-.26-.044-.518-.107-.774-.167-.5-.116-.991-.248-1.487-.371a20.511,20.511,0,0,0-4.31-.693A8.137,8.137,0,0,0,143,108.662c-3.317,5.069-1.619,13.53,4.92,14.849a9.906,9.906,0,0,0,4.649-.147c1.345-.393,2.518-1.445,3.872-1.73,1.056-.222,1.895.383,2.8.854a10.185,10.185,0,0,0,4.559,1.23,8.185,8.185,0,0,0,7.743-4.631,11.173,11.173,0,0,0,.221-8.6,8.455,8.455,0,0,0-7.335-5.688,16,16,0,0,0-4.593.559c-.6.139-1.186.3-1.78.442-.254.062-.507.121-.762.177-.148.032-.3.059-.445.083q.462-.059.082-.034c-3.08.11-3.095,4.91,0,4.8,2.945-.105,7.216-2.79,9.53-.091,2.241,2.613,1.659,8.165-2.471,8.181-2.11.009-3.639-1.6-5.66-1.99a7.06,7.06,0,0,0-3.846.3c-.993.378-1.866,1.009-2.849,1.391-1.682.653-3.878.347-4.841-1.3a6.26,6.26,0,0,1-.18-5.27c1.849-4.552,6.863-1.344,10.317-1.227C160.025,110.931,160.021,106.131,156.936,106.027Z"/><path class="c" d="M143.346,83.368a13.972,13.972,0,0,0-2.226-.224,13.492,13.492,0,0,0-1.975.183,26.35,26.35,0,0,0-3,.7,2.476,2.476,0,0,0-1.434,1.1,2.4,2.4,0,0,0,2.71,3.525,25.4,25.4,0,0,1,3.088-.716l-.638.086a9.655,9.655,0,0,1,2.5,0l-.638-.086q.168.024.336.051a2.605,2.605,0,0,0,1.849-.242,2.4,2.4,0,0,0,.861-3.283,2.327,2.327,0,0,0-1.434-1.1Z"/><path class="c" d="M172.365,87.944a9.758,9.758,0,0,1,2.421.013l-.638-.086a21.4,21.4,0,0,1,3.461.926,2.421,2.421,0,0,0,2.953-1.676,2.454,2.454,0,0,0-1.677-2.953,26.1,26.1,0,0,0-2.911-.833,11.732,11.732,0,0,0-3.609-.191,2.613,2.613,0,0,0-1.7.7,2.4,2.4,0,0,0,0,3.394,2.316,2.316,0,0,0,1.7.7Z"/><path class="c" d="M179.047,76.074a6.737,6.737,0,0,0,3.187,3.438,11.78,11.78,0,0,0,5,1.725,2.4,2.4,0,0,0,1.7-.7,2.4,2.4,0,0,0,0-3.394,2.73,2.73,0,0,0-1.7-.7c-.078-.008-.156-.017-.234-.028l.638.086a8.386,8.386,0,0,1-2.006-.575l.573.242a11,11,0,0,1-2.411-1.39l.486.375a5.283,5.283,0,0,1-.951-.915l.375.486a1.971,1.971,0,0,1-.231-.387l.242.573a1.017,1.017,0,0,1-.036-.106,2.505,2.505,0,0,0-1.1-1.434,2.4,2.4,0,0,0-3.526,2.71Z"/><path class="c" d="M258.833,62.374c-.562-2.3-1.458-5.3.052-7.443,1.33-1.883,3.813-1.112,5.39.021a16.987,16.987,0,0,1,2.776,2.73c.448.515,1.043.86.545,1.391-1.4,1.489-3.68-1.34-4.348-2.34-2.574-3.854-3.352-9.233-1.112-13.429a10.722,10.722,0,0,1,10.372-5.526c4.806.5,7.8,5.134,9.493,9.222.517,1.246,1.525,4.495-.5,5.114-1.985.608-4.34-2.571-5.265-3.886a28.319,28.319,0,0,1-3.626-7.3c-.838-2.5-1.482-5.31-.885-7.942.913-4.02,4.549-6.51,8.532-6.926,5.206-.543,9.766,2.713,12.758,6.732a19.708,19.708,0,0,1,3.491,7.2c.381,1.634.313,4.23-1.2,4.993-2.759,1.391-.332,5.533,2.422,4.145,2.9-1.463,3.912-5.064,3.733-8.095a20.005,20.005,0,0,0-3.316-9.216C294.6,26.2,288.8,21.377,281.9,21.207c-6.286-.154-12.678,3.469-14.576,9.674-1.149,3.755-.513,7.891.736,11.534a31.93,31.93,0,0,0,5.415,10.036c2.235,2.714,5.808,5.417,9.531,4.207,3.94-1.28,5.095-5.79,4.136-9.436a24.414,24.414,0,0,0-5.271-9.5A13.9,13.9,0,0,0,273,33.032a15.408,15.408,0,0,0-15.5,8.867,18.3,18.3,0,0,0,3.536,19.679c2.679,2.675,6.97,3.792,9.949.889a5.165,5.165,0,0,0,1.489-4.969c-.477-1.779-2.03-3.3-3.286-4.576-2.613-2.66-6.222-4.641-10.046-3.693-3.747.93-5.724,4.681-5.852,8.307a22.617,22.617,0,0,0,.91,6.114c.734,3,5.364,1.729,4.628-1.276Z"/><path class="c" d="M192.416,133.2c3.017.342,6.072.455,9.1.613,3.007.157,6.055.405,9.069.312a18.871,18.871,0,0,1,2.388.088c.622.059,1.242.131,1.862.208,1.021.126,1.04.131,2.1.283,3.841.553,7.668,1.2,11.485,1.9,3.419.627,6.876,1.228,10.232,2.15,2.983.819,4.255-3.81,1.276-4.629a176.8,176.8,0,0,0-20.667-3.9,51.1,51.1,0,0,0-8.172-.928c-2.615.039-5.224-.075-7.836-.2-3.607-.174-7.247-.293-10.838-.7a2.415,2.415,0,0,0-2.4,2.4,2.456,2.456,0,0,0,2.4,2.4Z"/><path class="a" d="M221.38,101.168C226.5,97.258,232.2,92.687,237.3,88.8a41.278,41.278,0,0,1-3.7-5.04c-1.728-3.2-1.673-7.015-1.75-10.649-.225-10.63-3.538-27.85-9.579-33.518l-.517-.667c-6.029-5.512-10.056-9.1-16.39-12.406-5.528-2.889-8.695-2.763-10.2-1.951-1.645.888-2.662,3.35-1.994,4.541a3.425,3.425,0,0,0-4.92,1.589,4.556,4.556,0,0,0,1.037,5.716c-2.572.99-2.517,3.872-1.944,5.723s1.614,2.6,3.244,3.65c1.489.958,2.474,1.778,4.454,3.307-1.783,3.386-2.027,6.518.512,10.008,3.056,4.2,7.34,6.3,10.782,10.192,3.844,4.343,3.418,6.7,4.181,12.452s2.282,12.065,7.1,15.29A22.738,22.738,0,0,1,221.38,101.168Z"/><path class="c" d="M220.572,41.289a18.571,18.571,0,0,1,3.892,6.228,57.793,57.793,0,0,1,2.961,9.708,85.085,85.085,0,0,1,1.666,10.219c.349,3.5.227,7.026.55,10.526a17.822,17.822,0,0,0,1.886,7A37.8,37.8,0,0,0,235.6,90.5a2.416,2.416,0,0,0,3.394,0,2.454,2.454,0,0,0,0-3.394,30.593,30.593,0,0,1-3.324-4.554,13.065,13.065,0,0,1-1.3-5.423c-.225-3.459-.184-6.906-.555-10.358a75.621,75.621,0,0,0-4.728-20.529,23.774,23.774,0,0,0-5.127-8.346c-2.228-2.139-5.627,1.25-3.394,3.394Z"/><path class="c" d="M223.446,37.225c-6.03-5.508-12.242-11.023-19.89-14.17-2.55-1.049-5.611-1.892-8.351-1.079-3.387,1.005-5.606,5.059-4.108,8.348l3.284-3.284a6.6,6.6,0,0,0-4.838-.516,6.336,6.336,0,0,0-3.431,3.091,7.01,7.01,0,0,0,1.48,8.494l.486-3.769c-3.537,1.527-4.093,5.883-2.8,9.115a9.1,9.1,0,0,0,3.778,4.193c1.481.983,2.877,2.053,4.282,3.141l-.375-2.908a12.512,12.512,0,0,0-1.639,6.938,13.017,13.017,0,0,0,3.314,6.989c2.962,3.545,7.09,5.856,10.124,9.335,2.328,2.668,2.739,5.312,3.113,8.681A40.572,40.572,0,0,0,210.9,92.545a15.72,15.72,0,0,0,4.019,5.431,25.845,25.845,0,0,1,4.386,4.4,2.479,2.479,0,0,0,3.284.861,2.417,2.417,0,0,0,.861-3.284,26.582,26.582,0,0,0-3.75-4.319,15.956,15.956,0,0,1-3.64-3.626c-2.015-3.219-2.762-7.148-3.229-10.866-.435-3.459-.528-6.971-2.262-10.092-2.1-3.771-5.616-6.367-8.858-9.075a19.108,19.108,0,0,1-4.966-5.473c-1.084-2.085-.661-4.181.365-6.2a2.442,2.442,0,0,0-.376-2.909c-1.211-.938-2.405-1.9-3.646-2.8a14.808,14.808,0,0,1-2.928-2.146,3.863,3.863,0,0,1-.744-2.4c0-.874.139-1.155,1.083-1.562a2.413,2.413,0,0,0,.485-3.77,2.249,2.249,0,0,1-.779-2.574c.346-.893.821-1.35,1.751-.956a2.424,2.424,0,0,0,3.284-3.284c.236.519.076.184.264-.257.218-.51.518-.645.865-1,.28-.287-.444.116-.041.009.157-.042.319-.09.475-.135.126-.036.674-.069.1-.027.211-.015.422-.026.634-.025,2.3,0,5.076,1.292,7.344,2.518,5.682,3.071,10.429,7.305,15.169,11.634,2.277,2.08,5.681-1.3,3.394-3.394Z"/><path class="c" d="M216.936,42.015a86.591,86.591,0,0,0-10.823-8.329,72.1,72.1,0,0,0-11.923-6.623,2.414,2.414,0,0,0-2.953,1.676,2.463,2.463,0,0,0,1.677,2.953c-.278-.117.213.1.259.119.2.094.411.186.615.282q.642.3,1.275.621c.956.484,1.9,1,2.829,1.524,1.977,1.124,3.907,2.331,5.8,3.593a78.462,78.462,0,0,1,9.851,7.578c2.264,2.1,5.667-1.29,3.394-3.394Z"/><path class="c" d="M215.16,49.966c-7.467-5.853-15.372-11.412-23.952-15.521a2.467,2.467,0,0,0-3.284.861,2.422,2.422,0,0,0,.861,3.284,126.224,126.224,0,0,1,22.981,14.77,2.478,2.478,0,0,0,3.394,0,2.416,2.416,0,0,0,0-3.394Z"/><path class="c" d="M212.552,59.386c-5.433-4.406-10.571-9.273-16.646-12.81-2.675-1.557-5.094,2.59-2.423,4.145,5.756,3.35,10.494,7.857,15.674,12.059a2.474,2.474,0,0,0,3.395,0,2.419,2.419,0,0,0,0-3.394Z"/><path class="c" d="M222.831,175.805c-1.191,6.455-2.068,12.973-2.683,19.509-1,10.607-1.477,21.374-.215,31.976.71,5.966,1.754,11.885,2.91,17.779a2.423,2.423,0,0,0,2.952,1.676,2.449,2.449,0,0,0,1.676-2.952c-1.99-10.154-3.576-20.291-3.468-30.664a214.488,214.488,0,0,1,2.13-27.929q.582-4.072,1.327-8.119a2.467,2.467,0,0,0-1.677-2.953,2.422,2.422,0,0,0-2.952,1.677Z"/><path class="c" d="M119.231,129.735a48.82,48.82,0,0,1-6.227.055c-2.762-.059-5.522-.159-8.282-.282-1.6-.071-3.225-.267-4.824-.2a66.5,66.5,0,0,0-8.7,1.159c-3.458.614-6.918,1.308-10.306,2.24-2.975.818-1.712,5.45,1.276,4.629a90.877,90.877,0,0,1,17.108-3.191,40.207,40.207,0,0,1,4.745.129q3.99.186,7.986.291a55.151,55.151,0,0,0,7.227-.032,2.471,2.471,0,0,0,2.4-2.4,2.415,2.415,0,0,0-2.4-2.4Z"/><path class="a" d="M122.6,36.413a4.554,4.554,0,0,0,1.037-5.716,3.425,3.425,0,0,0-4.919-1.589c.667-1.191-.35-3.653-1.994-4.541-1.507-.812-4.673-.938-10.2,1.951-6.334,3.31-10.361,6.894-16.391,12.406l-.517.667c-6.041,5.668-9.353,22.888-9.579,33.518-.077,3.634-.022,7.452-1.75,10.649a41.062,41.062,0,0,1-3.7,5.04c5.1,3.889,10.8,8.46,15.919,12.37a22.7,22.7,0,0,1,3.763-4.133c4.821-3.225,6.34-9.54,7.1-15.29s.336-8.109,4.181-12.452C109,65.405,113.28,63.3,116.335,59.1c2.54-3.49,2.3-6.622.512-10.008,1.98-1.529,2.965-2.349,4.455-3.307,1.63-1.049,2.669-1.8,3.243-3.65S125.173,37.4,122.6,36.413Z"/><path class="c" d="M76.286,90.5c2.663-3.258,5.084-6.365,5.729-10.639.553-3.668.35-7.4.658-11.089a74.553,74.553,0,0,1,4.276-20.052,20.352,20.352,0,0,1,4.367-7.43c2.233-2.143-1.164-5.534-3.394-3.394-4.4,4.223-6.359,10.91-7.762,16.654a99.932,99.932,0,0,0-2.571,20.885,18.178,18.178,0,0,1-1,6.368,22.461,22.461,0,0,1-3.693,5.3,2.471,2.471,0,0,0,0,3.394,2.418,2.418,0,0,0,3.394,0Z"/><path class="c" d="M91.826,40.619c4.742-4.33,9.492-8.556,15.17-11.634,2.266-1.227,5.058-2.515,7.353-2.518.212,0,.423.011.635.025-.395-.027-.149-.047.1.027.129.039.268.084.4.11.49.1-.111-.086-.026-.016a2.494,2.494,0,0,1,.847.889c.072.142.126.524.213.589.107.079-.014.127.13-.19a2.424,2.424,0,0,0,3.284,3.284c.92-.391,1.4.06,1.751.956a2.263,2.263,0,0,1-.78,2.574,2.413,2.413,0,0,0,.486,3.77c.937.406,1.074.66,1.08,1.562a3.8,3.8,0,0,1-.741,2.4A14.8,14.8,0,0,1,118.8,44.6c-1.241.9-2.433,1.863-3.643,2.8a2.422,2.422,0,0,0-.375,2.909,6.746,6.746,0,0,1,.718,5.408,13.467,13.467,0,0,1-3.941,5.066c-3.269,2.968-6.9,5.392-9.477,9.057-2.044,2.906-2.455,6.2-2.835,9.635-.408,3.686-.915,7.606-2.555,10.977a11.853,11.853,0,0,1-3.48,4.41,25.244,25.244,0,0,0-4.77,5.094,2.415,2.415,0,0,0,.861,3.284,2.46,2.46,0,0,0,3.284-.861,22.173,22.173,0,0,1,3.97-4.063,15.376,15.376,0,0,0,3.868-4.648c2.089-3.788,2.862-8.086,3.4-12.326.433-3.394.467-6.432,2.5-9.219,2.65-3.633,6.7-5.9,9.806-9.078,1.947-1.994,3.765-4.405,4.29-7.2a12.3,12.3,0,0,0-1.5-7.957l-.376,2.908c1.406-1.088,2.8-2.158,4.283-3.141a9.117,9.117,0,0,0,3.778-4.193c1.3-3.23.733-7.585-2.8-9.115l.485,3.769a7.006,7.006,0,0,0,1.48-8.494,5.852,5.852,0,0,0-8.268-2.575l3.284,3.284c1.5-3.289-.719-7.343-4.108-8.348-2.742-.813-5.8.03-8.357,1.079-7.648,3.145-13.865,8.663-19.895,14.17-2.285,2.088,1.116,5.475,3.394,3.394Z"/><path class="c" d="M98.345,45.409a78.484,78.484,0,0,1,9.851-7.578c1.847-1.233,3.731-2.412,5.66-3.514.934-.533,1.878-1.048,2.837-1.536q.636-.324,1.28-.629.309-.145.619-.287c.059-.026.7-.309.381-.173a2.483,2.483,0,0,0,1.676-2.953,2.414,2.414,0,0,0-2.952-1.676,72.3,72.3,0,0,0-11.924,6.623A86.5,86.5,0,0,0,94.95,42.015c-2.271,2.1,1.129,5.491,3.395,3.394Z"/><path class="c" d="M100.12,53.36A126.224,126.224,0,0,1,123.1,38.59a2.422,2.422,0,0,0,.861-3.284,2.453,2.453,0,0,0-3.284-.861c-8.579,4.109-16.485,9.668-23.952,15.521a2.413,2.413,0,0,0,0,3.394,2.46,2.46,0,0,0,3.394,0Z"/><path class="c" d="M102.729,62.78c5.18-4.2,9.919-8.709,15.674-12.059,2.669-1.553.255-5.7-2.422-4.145-6.075,3.537-11.214,8.4-16.646,12.81a2.415,2.415,0,0,0,0,3.394,2.456,2.456,0,0,0,3.394,0Z"/><path class="a" d="M130.342,236.579c.815-17.481,2.37-25.778,3-40.866.882-21.112-2.083-48.725-1.841-71.638-11.686,7.89-23.805,18.487-30.088,30.792a3.467,3.467,0,0,0,.94,4.283c3.514,2.8,8.446,6.216,10.629,8.187-3.789,3.138-8.641,6.9-9.382,9.268-.254.814,4.506,14.716,9.052,27.757,3.315,9.507,6.516,18.557,7.578,21.743Z"/><path class="c" d="M84.427,177.081c.03.172.056.344.085.516.046.267-.03-.242-.029-.234.014.114.03.229.042.343.048.445.092.891.127,1.337.088,1.118.138,2.239.173,3.36.087,2.755.079,5.514.042,8.27-.081,5.963-.315,11.924-.622,17.879-.131,2.529-.275,5.057-.451,7.583a2.4,2.4,0,1,0,4.8,0c.766-10.983,1.331-22.073,1.05-33.084a48.021,48.021,0,0,0-.589-7.246,2.421,2.421,0,0,0-2.952-1.677,2.453,2.453,0,0,0-1.676,2.953Z"/><path class="c" d="M128.946,122.921a114.237,114.237,0,0,0-19.916,17.054,70,70,0,0,0-7.7,10.144c-1.093,1.777-2.484,3.765-2.664,5.891a5.966,5.966,0,0,0,2.436,5.19c3.358,2.64,6.989,4.992,10.182,7.834V165.64c-2.01,1.662-4.061,3.282-5.977,5.054a14.418,14.418,0,0,0-3.832,4.791,4.834,4.834,0,0,0,.084,3.218c.381,1.44.838,2.861,1.292,4.279,3.284,10.27,6.924,20.43,10.489,30.6,1.535,4.381,3.1,8.753,4.575,13.156.974,2.915,5.612,1.665,4.628-1.276-2.95-8.828-6.138-17.578-9.187-26.372-1.656-4.776-3.3-9.556-4.889-14.356-.907-2.745-1.629-5.551-2.513-8.3-.071-.219,0,.433,0,.517-.006.315-.3.56-.022.252a4.887,4.887,0,0,0,.329-.54,14.82,14.82,0,0,1,2.023-2.193c2.03-1.929,4.239-3.663,6.4-5.446a2.411,2.411,0,0,0,0-3.394c-2.546-2.267-5.39-4.21-8.113-6.255-.694-.521-1.387-1.043-2.069-1.579-.432-.34-1.012-.677-1.061-1.282a3,3,0,0,1,.614-1.517c.484-.9,1-1.775,1.534-2.64A76.624,76.624,0,0,1,120.9,135.125a124.605,124.605,0,0,1,10.465-8.059,2.462,2.462,0,0,0,.861-3.284,2.421,2.421,0,0,0-3.283-.861Z"/><path class="c" d="M129.09,125.216c-.078,15.469,1.062,30.913,1.665,46.363.284,7.271.476,14.555.268,21.831-.186,6.543-.7,13.071-1.3,19.587-.722,7.854-1.406,15.7-1.778,23.582-.146,3.088,4.654,3.08,4.8,0,.641-13.579,2.416-27.072,2.992-40.653.632-14.929-.428-29.9-1.13-44.8-.406-8.629-.758-17.266-.714-25.906.016-3.089-4.784-3.093-4.8,0Z"/><path class="c" d="M155.746,160.06c-.1,9.848.144,19.694.166,29.541.021,9.643-.442,19.274-.491,28.916-.03,5.683-.011,11.367-.067,17.051-.031,3.089,4.769,3.092,4.8,0,.1-9.876-.048-19.757.275-29.63.314-9.63.283-19.247.175-28.881-.063-5.665-.113-11.331-.058-17,.03-3.089-4.77-3.092-4.8,0Z"/><path class="c" d="M225.742,178.831c8.087.75,16.211,1.077,24.33,1.237,8.1.159,16.246.28,24.344-.02a26.29,26.29,0,0,0,18.8-8.793,18.678,18.678,0,0,0,4.176-7.595c.958-3.944.568-8.213-.081-12.17a28.093,28.093,0,0,0-2.739-8.468,78.477,78.477,0,0,0-4.955-8.206,91.25,91.25,0,0,0-7.753-9.986c-6.167-6.855-12.418-13.636-18.671-20.412-6.089-6.6-12.137-13.25-18.42-19.662-.37-.377-.741-.752-1.118-1.122a2.429,2.429,0,0,0-2.908-.375c-8.672,6.262-16.81,13.229-25.482,19.491a2.482,2.482,0,0,0-.861,3.284,27.162,27.162,0,0,0,2.867,4.211c1.788,2.362,3.638,4.676,5.5,6.982,4.27,5.3,8.614,10.54,12.8,15.911,1.615,2.075,3.473,4.507,5,6.875,1.671,2.585,5.828.181,4.145-2.423a169.762,169.762,0,0,0-10.74-14.116c-2.192-2.719-4.4-5.424-6.6-8.138q-1.5-1.854-2.988-3.715-.662-.829-1.318-1.663c-.206-.263-.413-.526-.618-.79q-.15-.191-.3-.383c-.25-.321.014.02-.128-.165a31.386,31.386,0,0,1-3.476-5.009l-.861,3.284c8.672-6.262,16.81-13.23,25.482-19.491l-2.909-.376c5.585,5.474,10.808,11.35,16.118,17.085q9.924,10.719,19.754,21.526c5.884,6.485,11.305,13.252,15.034,21.333a10.7,10.7,0,0,1,.459,1.151,17.041,17.041,0,0,1,.492,1.776,39.17,39.17,0,0,1,.9,5.686c.24,2.987.21,6.451-1.027,8.961-2.621,5.317-8.075,8.922-13.764,10.21-3.523.8-7.269.561-10.86.593q-6.006.054-12.012,0c-8.014-.08-16.032-.307-24.028-.862q-2.8-.195-5.587-.453a2.417,2.417,0,0,0-2.4,2.4,2.451,2.451,0,0,0,2.4,2.4Z"/><path class="c" d="M86.145,174.031c-15.7,1.456-31.542,1.513-47.293,1.245-6.5-.111-12.623-2.5-16.888-7.534a12.394,12.394,0,0,1-3.054-6.478,32.26,32.26,0,0,1,.859-11.365,23.808,23.808,0,0,1,2.955-6.781c1.538-2.684,3.237-5.278,5.021-7.8a82.928,82.928,0,0,1,6.424-7.923q9.233-10.226,18.607-20.323c5.876-6.363,11.713-12.781,17.778-18.965.355-.361.711-.72,1.072-1.075l-2.908.376c8.671,6.261,16.81,13.229,25.481,19.491l-.861-3.284a31.146,31.146,0,0,1-2.952,4.446c-1.791,2.454-3.643,4.863-5.5,7.268-4.3,5.576-8.815,11.284-13.1,16.987-1.811,2.409-3.626,4.83-5.263,7.364-1.68,2.6,2.473,5.011,4.145,2.422,3.237-5.013,7.009-9.7,10.66-14.418,4.223-5.453,8.519-10.856,12.618-16.4a35.727,35.727,0,0,0,3.537-5.242,2.484,2.484,0,0,0-.861-3.284C87.95,96.488,79.812,89.521,71.14,83.259a2.415,2.415,0,0,0-2.908.375c-5.822,5.706-11.263,11.838-16.8,17.819Q41.42,112.277,31.5,123.192a102.164,102.164,0,0,0-6.6,7.9c-3.548,4.811-7.279,10.065-9.265,15.756a35.932,35.932,0,0,0-1.678,11.125,19.05,19.05,0,0,0,2.119,9.62c3.212,5.852,9.357,10.052,15.753,11.661,3.748.943,7.617.843,11.451.884q6.078.065,12.156.019c8.31-.068,16.625-.289,24.918-.858q2.9-.2,5.793-.467a2.465,2.465,0,0,0,2.4-2.4,2.418,2.418,0,0,0-2.4-2.4Z"/><path class="c" d="M184.919,20.721c.613-.59,1.235-1.169,1.878-1.725.271-.233.544-.461.822-.685.108-.088.414-.325.147-.121.148-.113.3-.224.45-.334a18.808,18.808,0,0,1,3.542-2.053c-.454.2.3-.107.466-.166q.483-.17.974-.309c.643-.181,1.292-.306,1.948-.427.676-.125-.283.028.118-.02.185-.021.369-.042.555-.059.382-.036.765-.061,1.149-.078.827-.035,1.654-.027,2.481,0a2.4,2.4,0,0,0,0-4.8,22.76,22.76,0,0,0-9.927,1.631,27.5,27.5,0,0,0-8,5.749,2.4,2.4,0,0,0,3.394,3.394Z"/><path class="c" d="M112.882,8.644c.195-.037.39-.072.586-.1.4-.061-.333.031.068,0,.355-.032.708-.061,1.064-.073a17.215,17.215,0,0,1,2.13.078c.745.066-.239-.046.185.022.156.025.312.052.467.081q.525.1,1.043.23.576.147,1.139.336c.151.05.3.1.449.156.049.018.6.233.377.14-.189-.077.221.1.259.115.18.082.358.168.536.256.318.16.632.33.939.509s.61.369.905.568c.131.089.259.182.39.271.328.226-.01-.02.175.127a15.083,15.083,0,0,1,1.571,1.44c.245.258.476.528.707.8.08.093.216.278.064.075.143.19.278.385.412.581a2.46,2.46,0,0,0,3.284.861,2.422,2.422,0,0,0,.861-3.283,18.778,18.778,0,0,0-18.887-7.81,2.423,2.423,0,0,0-1.676,2.952,2.452,2.452,0,0,0,2.952,1.677Z"/></svg>