<?xml version="1.0" encoding="utf-8"?>
<!-- Uploaded to: SVG Repo, www.svgrepo.com, Generator: SVG Repo Mixer Tools -->
<svg width="800px" height="800px" viewBox="-23.4 0 398.476 398.476" xmlns="http://www.w3.org/2000/svg"><defs><style>.a{fill:#211916;}.b{fill:#f6e37b;}.c{fill:#85ca8c;}.d{fill:#eb6960;}</style></defs><path class="a" d="M191.182,191.719c29.669.617,58.107-10.234,83.659-24.5a137.166,137.166,0,0,0,50.134-47.912c3.86-6.333,7.663-13.329,9.324-20.625.685-3.007-3.941-4.291-4.628-1.276a34.8,34.8,0,0,1-.975,3.4q-.3.879-.627,1.747-.192.507-.394,1.013-.1.261-.21.521c-.041.1-.365.871-.13.318a92.474,92.474,0,0,1-4.9,9.761,126.089,126.089,0,0,1-17.26,23.27,132.625,132.625,0,0,1-28.336,23.079A207.865,207.865,0,0,1,238.12,178.84c-15.093,5.279-30.908,8.412-46.938,8.079-3.09-.064-3.089,4.736,0,4.8Z"/><path class="b" d="M335.8,79.8c-5.016-.967-8.7,4.159-9.5,7.672a14.993,14.993,0,0,0-.188,7.244,7.746,7.746,0,0,0,6.343,5.339c2.344.452,4.693.086,6.194-1.647,1.668-1.925,2.182-4.586,2.336-7.129.169-2.8.157-5.692-1.242-8.122C338.9,81.7,337.438,80.112,335.8,79.8Z"/><path class="a" d="M336.44,77.483c-4.5-.771-8.327,1.6-10.712,5.323a14.564,14.564,0,0,0-2.032,5.466,14.911,14.911,0,0,0,.367,7.859,10.812,10.812,0,0,0,10.911,6.463,8.163,8.163,0,0,0,6.321-3.732,14.745,14.745,0,0,0,2.045-6.948,18.584,18.584,0,0,0-.82-8.466c-1.065-2.655-3.181-5.273-6.08-5.965-3-.718-4.284,3.91-1.276,4.628a4.8,4.8,0,0,1,2.842,2.9,12.171,12.171,0,0,1,.633,5.21c-.1,2.632-.429,6.813-3.408,7.51a7.135,7.135,0,0,1-3.857-.491,4.989,4.989,0,0,1-2.7-2.47,9.505,9.505,0,0,1-.42-4.769,16.7,16.7,0,0,1,.463-2.292c.078-.279.171-.553.271-.824.163-.438.062-.155.021-.062.1-.217.2-.431.31-.641q.226-.435.487-.851.133-.212.274-.418c-.006.009.431-.576.23-.325a10.161,10.161,0,0,1,.77-.85c.12-.12.245-.235.37-.351.065-.06.435-.369.2-.189a7.536,7.536,0,0,1,1.069-.673c-.009,0,.361-.178.17-.093a4.435,4.435,0,0,0,.42-.149,4.065,4.065,0,0,1,1.853-.174,2.469,2.469,0,0,0,2.952-1.676A2.419,2.419,0,0,0,336.44,77.483Z"/><path class="a" d="M159.9,186.919c-28.836.6-56.4-9.98-81.236-23.844a132.177,132.177,0,0,1-48.552-46.42,98.737,98.737,0,0,1-5.968-11.336c-.086-.2-.515-1.2-.307-.7q-.255-.61-.5-1.225c-.3-.755-.583-1.515-.847-2.282a35.479,35.479,0,0,1-1.081-3.7c-.685-3.01-5.314-1.736-4.628,1.276,1.433,6.295,4.532,12.339,7.715,17.9A131.737,131.737,0,0,0,42.51,140.827a137.335,137.335,0,0,0,29.308,23.83,214.582,214.582,0,0,0,39.449,18.664c15.59,5.5,32.061,8.743,48.634,8.4,3.085-.064,3.095-4.865,0-4.8Z"/><path class="b" d="M14.61,79.889c4.974-1.161,8.852,3.817,9.792,7.3a15,15,0,0,1,.469,7.231A7.747,7.747,0,0,1,18.74,100c-2.325.543-4.686.268-6.253-1.405-1.742-1.858-2.359-4.5-2.612-7.033C9.6,88.77,9.5,85.879,10.8,83.4,11.584,81.906,12.988,80.267,14.61,79.889Z"/><path class="a" d="M15.248,82.2a4.118,4.118,0,0,1,3.1.59,8.15,8.15,0,0,1,2.516,2.463,11.7,11.7,0,0,1,.941,1.7c-.176-.4.133.38.161.466.136.423.242.857.343,1.29a10.951,10.951,0,0,1,.177,5.333,4.721,4.721,0,0,1-1.982,2.64,7.039,7.039,0,0,1-3.971,1.162,3.243,3.243,0,0,1-2.926-1.722,10.947,10.947,0,0,1-1.335-4.567,15.421,15.421,0,0,1,.2-5.926,6.713,6.713,0,0,1,1-2.028,3.714,3.714,0,0,1,1.775-1.4c2.972-.826,1.709-5.458-1.276-4.629-5.254,1.46-6.909,7.622-6.626,12.41.283,4.765,1.514,10.739,6.768,12.314a11.117,11.117,0,0,0,12.015-4.676,11.537,11.537,0,0,0,1.315-7.194,17.993,17.993,0,0,0-1.8-6.532c-2.257-4.3-6.71-7.369-11.669-6.322A2.4,2.4,0,1,0,15.248,82.2Z"/><path class="a" d="M182.186,200.716a39.59,39.59,0,0,0,5.363,4.428c2.89,2.16,5.868,4.2,8.885,6.179a148.185,148.185,0,0,0,21.293,12,38.836,38.836,0,0,0,9.608,3.1,53.645,53.645,0,0,0,16.438.432,37.708,37.708,0,0,0,14.628-5.776,33.342,33.342,0,0,0,9.089-9.348,73.692,73.692,0,0,0,7.358-14.043,63.427,63.427,0,0,0,3.752-11.91,2.464,2.464,0,0,0-1.676-2.953,2.423,2.423,0,0,0-2.952,1.677,68.5,68.5,0,0,1-8.618,21.672,36.932,36.932,0,0,1-7.634,9.493,31.628,31.628,0,0,1-12.375,6,40.345,40.345,0,0,1-14.415.456,36.818,36.818,0,0,1-9.668-2.465c-6.785-2.758-13.945-7.043-20.383-11.161-3.4-2.173-6.744-4.429-10-6.813q-.93-.683-1.848-1.383c-.1-.075-.464-.36-.071-.054q-.227-.175-.451-.354-.384-.3-.764-.612a21.811,21.811,0,0,1-2.17-1.95c-2.113-2.262-5.5,1.137-3.394,3.394Z"/><path class="a" d="M50.335,70.555c6.186,21.3,19.244,40.256,34.653,55.963A267.965,267.965,0,0,0,110.52,149.4a217.3,217.3,0,0,0,28.042,19.225c10.952,6.125,23,10.654,35.683,10.827,3.089.042,3.091-4.758,0-4.8-10.71-.147-20.968-3.686-30.379-8.611a193.713,193.713,0,0,1-27.577-18.189A263.815,263.815,0,0,1,91.242,126a163.042,163.042,0,0,1-20.805-24.668A115.2,115.2,0,0,1,54.963,69.279c-.86-2.961-5.493-1.7-4.628,1.276Z"/><path class="a" d="M93.415,47.714c3.853,19.182,12.03,37.44,21.285,54.577,8.131,15.059,17.285,29.737,28.951,42.338a147.692,147.692,0,0,0,22.222,19.452,2.418,2.418,0,0,0,3.283-.861,2.452,2.452,0,0,0-.861-3.284,144.7,144.7,0,0,1-34.53-35.365c-4.86-7.031-9.234-14.389-13.37-21.865a274.558,274.558,0,0,1-12.376-25.148,159.987,159.987,0,0,1-9.975-31.12,2.4,2.4,0,0,0-4.629,1.276Z"/><path class="a" d="M133.994,32.29a197.973,197.973,0,0,0,9.661,53.456A339.728,339.728,0,0,0,164.988,136.4c4.694,9.235,9.675,18.321,14.789,27.329,1.525,2.686,5.674.27,4.145-2.423A533.368,533.368,0,0,1,159.1,112.884a254.212,254.212,0,0,1-16.718-50.8,176.017,176.017,0,0,1-3.589-29.79c-.1-3.081-4.9-3.094-4.8,0Z"/><path class="a" d="M163.927,206.661a77.455,77.455,0,0,1-14.533,20.585,87.548,87.548,0,0,1-20.884,16.172,54.968,54.968,0,0,1-22.925,6.911,56.353,56.353,0,0,1-23.4-3.486,48.378,48.378,0,0,1-21.109-15.4,2.414,2.414,0,0,0-3.394,0,2.46,2.46,0,0,0,0,3.394c10.542,13.5,27.888,20.554,44.8,20.4a58.9,58.9,0,0,0,24.829-5.828,87.618,87.618,0,0,0,22.733-16.035,83.408,83.408,0,0,0,18.031-24.295,2.468,2.468,0,0,0-.861-3.284,2.421,2.421,0,0,0-3.284.861Z"/><path class="b" d="M91.886,25.722c5.046-.8,8.552,4.451,9.237,7.989a15.011,15.011,0,0,1-.057,7.246,7.747,7.747,0,0,1-6.521,5.121c-2.358.373-4.692-.073-6.134-1.855-1.6-1.98-2.026-4.658-2.094-7.2-.074-2.8.036-5.694,1.517-8.075C88.722,27.515,90.241,25.982,91.886,25.722Z"/><path class="a" d="M92.524,28.036a4.133,4.133,0,0,1,1.361.13c.163.043.326.093.485.149.04.014.413.181.126.048a7.261,7.261,0,0,1,.982.568,8.274,8.274,0,0,1,2.191,2.49c.167.283.319.573.468.866.024.047.234.5.127.256s.08.2.1.253a11.516,11.516,0,0,1,.513,1.913,12.1,12.1,0,0,1-.023,5.258A4.588,4.588,0,0,1,96.725,42.8a7.135,7.135,0,0,1-3.93,1A3.308,3.308,0,0,1,89.75,41.92a10.229,10.229,0,0,1-1.022-4.568,16.1,16.1,0,0,1,.548-5.9c.512-1.484,1.687-3.1,3.248-3.418a2.4,2.4,0,1,0-1.276-4.628,9.139,9.139,0,0,0-5.665,4.625,15.509,15.509,0,0,0-1.682,7.58c-.042,4.884,1,10.841,6.31,12.575a11.063,11.063,0,0,0,12.236-4.49c2.4-3.923,1.807-9.718-.112-13.725a13.28,13.28,0,0,0-4.124-4.967,9.3,9.3,0,0,0-6.963-1.6,2.414,2.414,0,0,0-1.676,2.952A2.465,2.465,0,0,0,92.524,28.036Z"/><path class="b" d="M134.639,9.483c5.094-.383,8.161,5.133,8.555,8.715a15.007,15.007,0,0,1-.647,7.217,7.745,7.745,0,0,1-6.916,4.573c-2.381.179-4.672-.455-5.963-2.348-1.436-2.105-1.64-4.808-1.5-7.351.154-2.8.5-5.672,2.169-7.925C131.339,11.012,132.978,9.608,134.639,9.483Z"/><path class="a" d="M134.639,11.883a4.257,4.257,0,0,1,3.07.88,7.617,7.617,0,0,1,2.189,2.783,5.583,5.583,0,0,1,.576,1.411c.089.283.167.57.232.86.032.138.054.279.085.417.115.509-.012-.371.022.147a15.13,15.13,0,0,1-.335,5.709c-.846,2.664-3.627,3.793-6.378,3.5a3.28,3.28,0,0,1-2.707-1.719,9.51,9.51,0,0,1-.853-4.911,16.833,16.833,0,0,1,.878-5.623c.48-1.23,1.807-3.276,3.221-3.449a2.475,2.475,0,0,0,2.4-2.4,2.414,2.414,0,0,0-2.4-2.4,9.358,9.358,0,0,0-6.659,4.482,15.67,15.67,0,0,0-2.1,7.209c-.454,4.869.161,10.874,5.329,12.972a11.013,11.013,0,0,0,12.432-3.433,12.38,12.38,0,0,0,2.1-7.179,16.436,16.436,0,0,0-.868-6.113c-1.631-4.324-5.274-8.209-10.236-7.938a2.453,2.453,0,0,0-2.4,2.4A2.422,2.422,0,0,0,134.639,11.883Z"/><path class="b" d="M174,2.406a7.472,7.472,0,0,1,6.24,3.495,13.876,13.876,0,0,1,2.17,8.314c-.1,2.742-.791,6.09-3.346,7.579a10.3,10.3,0,0,1-4.737,1.139,6.858,6.858,0,0,1-5.691-2.272c-1.644-2.077-1.673-5.16-1.454-7.664a17.334,17.334,0,0,1,1.58-6.364C169.738,4.719,171.692,2.5,174,2.406Z"/><path class="a" d="M174,4.806c3.012-.047,4.923,2.84,5.626,5.548a13.957,13.957,0,0,1,.336,4.672,8.81,8.81,0,0,1-1.037,3.618,3.32,3.32,0,0,1-.831.928,5.823,5.823,0,0,1-2.484.857,6.872,6.872,0,0,1-3.882-.335c-2.71-1.276-2.36-5.06-2.1-7.606A12.788,12.788,0,0,1,171.1,7.361c.657-1.126,1.877-2.472,2.9-2.555a2.461,2.461,0,0,0,2.4-2.4,2.418,2.418,0,0,0-2.4-2.4c-5.066.409-8,5.4-8.822,9.959-.786,4.334-1.147,10.129,2.624,13.253a9.708,9.708,0,0,0,6.525,2.115,11.316,11.316,0,0,0,7.124-2.324c3.4-2.913,3.754-8.334,3.108-12.444C183.725,5.28,179.817-.084,174,.006,170.912.054,170.9,4.854,174,4.806Z"/><path class="b" d="M47.634,49.881c5-1.053,8.767,4.009,9.631,7.508a15.006,15.006,0,0,1,.313,7.239,7.745,7.745,0,0,1-6.251,5.447c-2.336.492-4.691.167-6.221-1.539-1.7-1.9-2.261-4.549-2.459-7.088-.217-2.8-.254-5.689,1.1-8.143C44.565,51.833,46,50.224,47.634,49.881Z"/><path class="a" d="M48.272,52.2a4.26,4.26,0,0,1,3.084.7A8.171,8.171,0,0,1,53.8,55.428c.176.28.342.567.495.86.073.139.39.836.254.5a12.411,12.411,0,0,1,.608,2.132,10.935,10.935,0,0,1,.034,5.335,4.6,4.6,0,0,1-2.07,2.572,7.159,7.159,0,0,1-4,1.05,3.281,3.281,0,0,1-2.861-1.83,10.924,10.924,0,0,1-1.21-4.6,15.841,15.841,0,0,1,.34-5.919c.431-1.417,1.615-3.01,2.885-3.334C51.263,51.434,50,46.8,47,47.567c-5.282,1.344-7.022,7.538-6.843,12.3.18,4.8,1.324,10.731,6.549,12.421a11.109,11.109,0,0,0,12.09-4.473,11.53,11.53,0,0,0,1.445-7.171,18.134,18.134,0,0,0-1.688-6.563C56.375,49.715,51.975,46.628,47,47.567a2.422,2.422,0,0,0-1.677,2.952A2.451,2.451,0,0,0,48.272,52.2Z"/><path class="b" d="M49.345,215.676c4.363-2.657,9.6.861,11.581,3.873a15,15,0,0,1,2.7,6.722,7.95,7.95,0,0,1-15.392,3.076,18.05,18.05,0,0,1-1.416-9.15C47.1,218.538,47.922,216.542,49.345,215.676Z"/><path class="a" d="M50.556,217.748a4.323,4.323,0,0,1,3.719-.358,9.328,9.328,0,0,1,3.39,2.025c.263.248.516.507.755.779.1.114.2.231.3.351-.248-.312-.02-.022.019.041a28.707,28.707,0,0,1,1.557,2.664,10.7,10.7,0,0,1,.792,2.254,6,6,0,0,1,.165,1.035c.01.176.011.355.006.531,0,.011-.089.752-.024.4a5.262,5.262,0,0,1-2.033,3.346,5.474,5.474,0,0,1-4.183,1.263,5.219,5.219,0,0,1-3.224-1.541,2.858,2.858,0,0,1-.478-.568c-.185-.287-.368-.573-.532-.874a9.5,9.5,0,0,1-.89-2.163,15.423,15.423,0,0,1-.8-5.411,4.307,4.307,0,0,1,.09-.935,11.618,11.618,0,0,1,.353-1.294,4.957,4.957,0,0,1,.532-1.028,2.177,2.177,0,0,1,.488-.514,2.456,2.456,0,0,0,.861-3.284,2.426,2.426,0,0,0-3.284-.861c-4.28,2.833-4.3,8.727-3.252,13.2,1.036,4.425,3.512,8.635,8.2,9.773a10.61,10.61,0,0,0,12.324-6.358c1.808-4.48-.524-9.771-3.444-13.241-3.3-3.924-9.138-6.093-13.833-3.372C45.462,215.152,47.876,219.3,50.556,217.748Z"/><path class="a" d="M296.12,69.279C290.5,89.9,277.5,108.036,262.7,123.124a267.746,267.746,0,0,1-24.821,22.321,214.4,214.4,0,0,1-27.02,18.608c-10.425,5.921-21.89,10.434-34.021,10.6-3.087.042-3.095,4.842,0,4.8,22.752-.311,42.971-14.126,60.377-27.455,17.924-13.726,34.927-29.5,47.682-48.248a111.933,111.933,0,0,0,15.851-33.195c.813-2.984-3.816-4.258-4.629-1.276Z"/><path class="a" d="M253.04,46.438c-3.778,18.8-11.73,36.633-20.8,53.431-7.908,14.644-16.745,28.956-28.074,41.228a141.469,141.469,0,0,1-21.377,18.839,2.468,2.468,0,0,0-.861,3.284,2.418,2.418,0,0,0,3.283.861,151.018,151.018,0,0,0,35.821-36.465,254.444,254.444,0,0,0,13.7-22.313A274.855,274.855,0,0,0,247.3,79.772a165.5,165.5,0,0,0,10.37-32.058,2.461,2.461,0,0,0-1.676-2.952,2.422,2.422,0,0,0-2.952,1.676Z"/><path class="a" d="M212.29,32.29a193.145,193.145,0,0,1-9.49,52.18,332.4,332.4,0,0,1-20.952,49.709c-4.664,9.165-9.61,18.184-14.687,27.126-1.527,2.69,2.618,5.112,4.145,2.423a529.137,529.137,0,0,0,25.184-49.25c7.28-16.668,13.355-33.922,16.973-51.775A183.747,183.747,0,0,0,217.09,32.29c.1-3.089-4.7-3.086-4.8,0Z"/><path class="a" d="M184.541,208.7c11.07,7.434,24.162,10.8,37.261,12.35,13.321,1.579,26.906,1.694,40.14-.67,23.084-4.123,45.4-16.487,60.286-34.752,7.946-9.747,13.9-20.872,19.414-32.121a2.461,2.461,0,0,0-.861-3.283,2.421,2.421,0,0,0-3.284.861c-4.846,9.887-10.006,19.725-16.632,28.557a88.582,88.582,0,0,1-21.175,20.055,100.672,100.672,0,0,1-34.017,15.034c-12.593,2.892-25.522,3.118-38.354,2.068-14.123-1.155-28.432-4.236-40.356-12.243-2.571-1.727-4.977,2.429-2.422,4.144Z"/><path class="a" d="M187.825,213.021c7.161,15.254,19.384,28.509,34.625,35.91a60.613,60.613,0,0,0,48.74,2.146A52.717,52.717,0,0,0,293.4,234.84a2.478,2.478,0,0,0,0-3.394,2.417,2.417,0,0,0-3.394,0c-9.583,12.275-24.89,18.842-40.3,19-15.878.158-30.877-6.926-42.156-17.874A74.9,74.9,0,0,1,191.97,210.6a2.421,2.421,0,0,0-3.284-.861,2.454,2.454,0,0,0-.861,3.284Z"/><path class="a" d="M171.88,24.951c.588,29.88,1.172,59.838-1.405,89.648-.727,8.408-1.71,16.792-3.019,25.13a2.475,2.475,0,0,0,1.676,2.952,2.418,2.418,0,0,0,2.952-1.676c4.7-29.947,5.356-60.3,5.023-90.556-.094-8.5-.26-17-.427-25.5-.061-3.085-4.861-3.1-4.8,0Z"/><path class="c" d="M181,217.574c.115-6.863.206-13.212.279-18.856,8.435-11.073,18.178-18.9,31.966-22.865-2.069-2.933-6.795-9.6-7.255-9.721-6.064.4-17.328,5.93-25.935,12.089.113-1.419.179-2.264.179-2.264a101.178,101.178,0,0,0-15.053-61.147c-5.073,2.766-8.326,4.629-13.167,7.785,5.059,5.532,6.775,10.253,9,16.143,5.267,13.952,8.633,29.6,3.04,43.6-11.885-3.907-24.077-1.14-30.677,2.136-.609.3,1.08,12.7,1.449,12.571,7.336-2.558,23.2-6.344,32.521.007-1.456,41.359-7.363,148.474-13.5,189.358a8.4,8.4,0,0,0,6.993,9.531l.172.028a8.41,8.41,0,0,0,9.679-7.361C174.8,352.441,180.3,259.259,181,217.574Z"/><path class="a" d="M183.4,217.574q.158-9.428.279-18.856l-.328,1.211a66.371,66.371,0,0,1,13.28-13.359,55.256,55.256,0,0,1,17.252-8.4,2.42,2.42,0,0,0,1.435-3.526c-1.885-2.669-3.763-5.349-5.744-7.949a9.649,9.649,0,0,0-2.335-2.614c-1.375-.8-3.549-.093-4.99.264a54.826,54.826,0,0,0-11.318,4.5,93.766,93.766,0,0,0-12.087,7.307l3.611,2.072a106.885,106.885,0,0,0-8.113-51.1,100.541,100.541,0,0,0-7.089-13.521,2.45,2.45,0,0,0-3.283-.861c-4.482,2.446-8.885,5-13.167,7.784a2.44,2.44,0,0,0-.486,3.77,38.192,38.192,0,0,1,7.139,11.832,125.549,125.549,0,0,1,4.886,14.6c2.636,10.217,3.308,20.992-.6,30.978l2.952-1.677a44.693,44.693,0,0,0-23.285-.838,41.748,41.748,0,0,0-8.653,2.933c-1.971.924-1.98,2.623-1.856,4.52.147,2.244.446,4.483.761,6.709a22.815,22.815,0,0,0,.773,4.23c1.065,3.082,4.421,1.277,6.61.656a65.843,65.843,0,0,1,8.047-1.76c6.308-.958,13.542-1.006,19.047,2.651l-1.189-2.072c-.366,10.379-.84,20.755-1.349,31.129q-.99,20.205-2.192,40.4-1.293,21.805-2.843,43.6c-.977,13.582-2.039,27.159-3.3,40.717q-.8,8.628-1.744,17.241-.427,3.849-.9,7.692c-.312,2.5-.509,4-.859,6.419-.5,3.487-.54,6.751,1.661,9.727a11.057,11.057,0,0,0,9.538,4.482,10.89,10.89,0,0,0,9.155-6.208c1.139-2.512,1.185-5.417,1.468-8.132,1.189-11.428,2.1-22.885,2.965-34.343q1.613-21.5,2.886-43.02,1.331-22.06,2.377-44.138c.589-12.559,1.113-25.124,1.437-37.693q.094-3.672.158-7.343c.052-3.09-4.747-3.091-4.8,0-.213,12.565-.706,25.126-1.26,37.679q-1.021,23.175-2.4,46.331-1.36,23.125-3.048,46.23c-.908,12.231-1.871,24.463-3.149,36.661-.276,2.629-.179,5.475-2.18,7.459a6.22,6.22,0,0,1-8.383.207c-2.473-2.19-2.017-5-1.616-7.864q.543-3.867,1.013-7.744c1.524-12.476,2.663-25,3.711-37.523,1.265-15.108,2.353-30.23,3.351-45.357q1.5-22.748,2.729-45.514,1.05-19.35,1.9-38.712.163-3.846.313-7.692.066-1.737.13-3.476a5.079,5.079,0,0,0-.164-2.134c-.427-1.062-1.747-1.677-2.721-2.179-7.148-3.681-15.78-3.165-23.441-1.682a67.077,67.077,0,0,0-9.19,2.465h1.276l-.018,0,1.059.617c.175.172.49,1.143.48.72a2.935,2.935,0,0,0-.117-.5c-.111-.5-.194-1.006-.278-1.51-.221-1.33-.363-2.373-.507-3.554-.165-1.355-.318-2.715-.4-4.078-.027-.453,0-.915-.034-1.367-.042-.576-.094.35-.028.166-.545,1.51-1.1,1.325.013.829a39.834,39.834,0,0,1,27.78-1.4,2.458,2.458,0,0,0,2.952-1.676c6.469-16.512,1.353-35.032-5.314-50.639a40.864,40.864,0,0,0-7.341-11.437l-.485,3.769c4.282-2.784,8.684-5.338,13.166-7.784l-3.283-.861a99.14,99.14,0,0,1,14.966,49.028,116.969,116.969,0,0,1-.42,13.171,2.413,2.413,0,0,0,3.612,2.072,92.414,92.414,0,0,1,13.515-8.009c3.441-1.654,7.6-3.472,11.208-3.752l-1.212-.328c-.241-.115-.388-.4-.077.013.175.231.526.637.6.725.5.643,1.264,1.684,1.85,2.488,1.36,1.865,2.695,3.748,4.026,5.634l1.434-3.526a60.085,60.085,0,0,0-20.352,10.372,64.817,64.817,0,0,0-8,7.482q-1.945,2.14-3.732,4.419a6.289,6.289,0,0,0-1.6,2.588,21.235,21.235,0,0,0-.083,3.358q-.107,7.908-.239,15.817C178.551,220.664,183.351,220.664,183.4,217.574Z"/><path class="d" d="M170.813,69.478c-4.973.574-10.072,1.755-11.944,3.973-4.16,4.93-5.622,10.756-7.972,17.254a26.085,26.085,0,0,0,1.12,20.145c-3.777-2.752-8.34-8.09-12.975-8.685-8.345-1.071-17.592-.683-23.232,1.488-10.2,3.926-18.324,6.951-24.758,15.784,9.917-.818,25.854-.964,35.771-1.782,3.917-.323,8.217-.544,11.385,1.782-6.309,1.07-9.649,4.47-13.24,7.173-6.283,4.73,1.613,16.857,4.885,24.175,3.2-1.7,5.618-9.34,7.972-12.094a15.378,15.378,0,0,1,7.743-5.4c.82,2.437,8.522,11.767,13.3,10.75.976-4.964,8.363-5.3,11.374-9.367,2.278-3.077,1.457-7.428,2.705-11.047,1.222-3.544,4.4-6.142,7.878-7.534s7.277-1.74,11.015-2.019q17.511-1.3,35.093-.955c-4.776-11.409-17.348-18.246-29.7-18.81s-26.919,5.141-37.468,11.6c-.842-5.845.726-9.481,3.937-14.437,1.53-2.362,3.471-4.474,4.66-7.024s9-10.42,10.572-15.442A73.667,73.667,0,0,0,170.813,69.478Z"/><path class="a" d="M154.09,109.639A23.96,23.96,0,0,1,151.875,97.3c.345-4.253,2.137-8.367,3.569-12.349,1.263-3.51,2.77-7.356,5.4-10.095a4.142,4.142,0,0,1,.311-.282c-.035.03-.276.2-.047.041a8.711,8.711,0,0,1,.808-.5,8.268,8.268,0,0,1,1.658-.713,31.135,31.135,0,0,1,4.763-1.165,62.7,62.7,0,0,1,10.6-.831l-2.315-3.038a13.514,13.514,0,0,1-1.364,2.742c-.732,1.2-1.549,2.35-2.392,3.475-1.526,2.037-3.178,3.976-4.735,5.988-1.535,1.982-2.577,4.216-4.041,6.246a46.576,46.576,0,0,0-5.285,8.524,20.341,20.341,0,0,0-1.351,11.2,2.413,2.413,0,0,0,2.952,1.676,2.464,2.464,0,0,0,1.676-2.952,15.97,15.97,0,0,1,2.393-10.486,61.66,61.66,0,0,1,3.511-5.2c1.073-1.471,1.863-3.051,2.823-4.581,3.111-4.952,8.462-9.341,10.442-15.359a2.42,2.42,0,0,0-2.314-3.038,72.971,72.971,0,0,0-10.879.84c-3.262.5-6.932,1.216-9.643,3.22-3.44,2.543-5.388,7.251-6.889,11.112-.878,2.258-1.627,4.563-2.427,6.848a35.259,35.259,0,0,0-1.843,7.091,28.844,28.844,0,0,0,2.694,16.343,2.421,2.421,0,0,0,3.284.861,2.451,2.451,0,0,0,.861-3.283Z"/><path class="a" d="M153.229,108.778c-3.675-2.721-6.714-6.356-11.007-8.17-2.387-1.008-5.073-1.105-7.631-1.27a67.195,67.195,0,0,0-7.965-.056,50.363,50.363,0,0,0-7.455.92,40.238,40.238,0,0,0-6.415,2.068,84.307,84.307,0,0,0-12.4,5.626,37.96,37.96,0,0,0-11.374,10.33,2.412,2.412,0,0,0,2.073,3.611c7.817-.635,15.669-.79,23.5-1.106,3.775-.152,7.552-.316,11.32-.6,3.729-.282,7.871-.894,11.121,1.379a2.419,2.419,0,0,0,3.283-.861,2.449,2.449,0,0,0-.861-3.283c-3.679-2.574-8.318-2.451-12.6-2.11-3.82.305-7.649.486-11.478.644-8.1.334-16.214.481-24.293,1.138l2.072,3.611c4.917-6.674,12.1-10.3,19.64-13.255a42.5,42.5,0,0,1,12.168-3.2,63.669,63.669,0,0,1,7.641-.161,30.107,30.107,0,0,1,6.961.68,15.919,15.919,0,0,1,5.531,3.426c1.911,1.6,3.736,3.3,5.741,4.779a2.417,2.417,0,0,0,3.284-.861,2.456,2.456,0,0,0-.861-3.283Z"/><path class="a" d="M137.57,117.123a23.357,23.357,0,0,0-9.336,3.972c-1.276.9-2.49,1.885-3.716,2.852a12.24,12.24,0,0,0-2.942,2.833c-3.208,4.9-.278,11.577,1.869,16.272,1.378,3.014,2.973,5.923,4.335,8.944a2.427,2.427,0,0,0,3.284.861c4.33-2.478,5.632-8.309,8.267-12.205a10.527,10.527,0,0,1,.783-.941c.373-.414.756-.819,1.157-1.206a9.729,9.729,0,0,1,2.176-1.675,24.011,24.011,0,0,1,7.341-2.383c3.023-.626,1.743-5.254-1.276-4.629a28.829,28.829,0,0,0-8.142,2.672,18.812,18.812,0,0,0-5.242,4.5,33.77,33.77,0,0,0-3.735,6.333c-.6,1.156-1.212,2.312-1.925,3.4a7.883,7.883,0,0,1-.924,1.226,5.95,5.95,0,0,1-.543.534c-.13.111-.123.107.021-.01a3.8,3.8,0,0,1-.381.232l3.284.861c-1.386-3.073-3.013-6.032-4.408-9.1-1.228-2.7-2.509-5.831-2.507-8.649a4.3,4.3,0,0,1,.19-1.53q.068-.237.153-.469c-.089.2-.07.164.054-.1.047-.089.5-.766.312-.533a20.643,20.643,0,0,1,3.451-2.848,21.767,21.767,0,0,1,9.676-4.595,2.421,2.421,0,0,0,1.676-2.952,2.452,2.452,0,0,0-2.952-1.676Z"/><path class="d" d="M255.205,114.917c-.284-4.637-1.082-6.066-4.56-12.274-.766-1.368-4.2-7.314-5.756-7.148-1.336,3.378-3.451,9.112-4,11.089-5.857,21.071-12.468,33.783-27.82,48.022-1.24-10.772-3.422-13.826-8.7-24.133-2.351-4.588-6.309-6.8-11.463-6.8-5.652,0-9.684-.349-13.969,1.542-.116.687,11.075,15.019,13.969,20.89,3.26,6.616,4.109,10.9,6.543,18.157-6.257-4.341-13.931-7.681-27.179-7.213-1.766.063-12.177,2.5-13.4,3.778-4.925,5.161-6.513,15.525-6.46,18.789,8.857-2.356,13.807-5.548,22.968-5.966,10.072-.46,23.187,2.848,32.614,5.36,2.134,8.819,2.913,19.5,6.233,28.024,3.244,8.325,7.521,17.414,16.264,19.252,5.905.884,16.767.818,18.222-.8-10.222-6.141-11.39-16.876-11.555-17.33-4.368-12-5.676-16.085-15.232-24.555,8.994,3.284,19.1,2.383,28.713,1.408a27.988,27.988,0,0,0,7.886-1.576c3.648-1.5,6.486-4.451,9.878-6.46,3.676-2.178,7.9-3.194,11.954-4.539.649-.215,4.78-2.133,4.8-2.53.138-2.681-11.949-7.844-14.622-8.1-8.691-.841-17.7-.617-25.819,2.59-7.77,3.068-15.384,8.9-23.6,6.626,7.909-11.63,10.91-16.095,17.076-25.053,3.547-5.153,11.854-15.535,15.3-20.754A25.775,25.775,0,0,0,255.205,114.917Z"/><path class="a" d="M204.718,165.229a51.335,51.335,0,0,0-11.855-7.334,45.726,45.726,0,0,0-16.542-3.273,30.8,30.8,0,0,0-6.859.445c-2.095.412-4.176.922-6.231,1.5a21.022,21.022,0,0,0-5.248,1.933c-1.938,1.191-3.278,3.7-4.244,5.688a35.969,35.969,0,0,0-3.73,15.422,2.426,2.426,0,0,0,3.038,2.314c7.3-1.969,14.214-5.421,21.868-5.856,7.684-.437,15.424,1.106,22.871,2.835,3.967.922,7.9,1.968,11.835,3.021,2.987.8,4.261-3.829,1.276-4.628-14.844-3.975-31.1-8.793-46.332-4.161-4.294,1.306-8.455,2.991-12.794,4.161l3.038,2.314a31.5,31.5,0,0,1,2.375-11.395,22.429,22.429,0,0,1,3.382-5.7c.19-.246-.537.2-.16.127a1.72,1.72,0,0,0,.366-.2c.51-.3-.224.053.427-.187.832-.307,1.672-.583,2.521-.835,1.933-.573,3.894-1.063,5.865-1.49.766-.166,1.535-.314,2.307-.451.726-.129-.386-.027.187-.026.676,0,1.357-.048,2.035-.054a44.243,44.243,0,0,1,15.775,2.445,44.246,44.246,0,0,1,11.435,6.774,2.476,2.476,0,0,0,3.394,0,2.416,2.416,0,0,0,0-3.394Z"/><path class="a" d="M205.818,180.25c1.35,5.853,2.1,11.821,3.34,17.7a72.231,72.231,0,0,0,5.364,15.906c2.126,4.53,4.889,8.895,8.981,11.888s8.946,3.352,13.837,3.482a53.83,53.83,0,0,0,7.587-.247c1.836-.213,4.093-.411,5.48-1.793a2.428,2.428,0,0,0-.485-3.77,21.836,21.836,0,0,1-7.84-8.235,23.265,23.265,0,0,1-2.393-6.565,51.515,51.515,0,0,0-2.726-7.86,47.309,47.309,0,0,0-4.463-9.113,51.4,51.4,0,0,0-8.88-9.736c-2.3-2.048-5.707,1.335-3.394,3.394a49.191,49.191,0,0,1,7.826,8.316,41.228,41.228,0,0,1,4.34,8.564,51.993,51.993,0,0,1,2.682,7.772,28.692,28.692,0,0,0,2.73,7.4,26.707,26.707,0,0,0,9.695,10.2l-.486-3.77c-.3.3.492-.4.121-.1-.089.073-.462.193.175-.057a7.047,7.047,0,0,1-.877.269,11.039,11.039,0,0,1-2.062.333,55.154,55.154,0,0,1-6.165.206c-4.215-.063-8.179-.054-11.741-2.463s-5.837-6.433-7.644-10.222a65.459,65.459,0,0,1-4.852-14.239c-1.344-6.148-2.107-12.409-3.521-18.543-.694-3.009-5.323-1.735-4.629,1.276Z"/><path class="a" d="M218.527,184.785c10.44,4.644,21.936,3.708,33,2.532a27.83,27.83,0,0,0,8.391-1.891,32.849,32.849,0,0,0,6.323-4.064,29.2,29.2,0,0,1,6.763-3.975c2.545-1,5.195-1.675,7.775-2.57a29.923,29.923,0,0,0,4.117-1.864c1.591-.841,3.072-1.965,2.534-4-.74-2.8-4.353-4.553-6.695-5.761a38.517,38.517,0,0,0-8.878-3.579,37.28,37.28,0,0,0-6.751-.578,64.781,64.781,0,0,0-8.6.226,49.022,49.022,0,0,0-9.457,1.785,58.77,58.77,0,0,0-8.582,3.547c-4.845,2.35-10.289,5.418-15.873,4.319a2.462,2.462,0,0,0-2.952,1.676,2.422,2.422,0,0,0,1.676,2.952c5.4,1.062,10.435-.541,15.315-2.764s9.459-4.726,14.734-5.9a57.813,57.813,0,0,1,16.456-.9q1.017.071,2.031.162c.262.023,1.226.2.258.006.084.017.173.023.255.047.536.156,1.08.276,1.612.45a44.031,44.031,0,0,1,9.105,4.277c.326.212.65.429.961.664-.338-.255.325.28.451.4.085.082.165.17.25.251.4.378-.012.162.021,0,.013-.067.2.617.07.059a1.483,1.483,0,0,1-.018-.976l.617-1.059c-.273.342.4-.147,0,.009a7.071,7.071,0,0,0-.744.427c-.65.352-1.316.675-1.985.988-.277.13-.558.254-.837.381-.161.073.392-.115-.115.044-1.141.359-2.279.727-3.421,1.084a56.561,56.561,0,0,0-7,2.588,33.033,33.033,0,0,0-5.842,3.686,29.44,29.44,0,0,1-5.623,3.653,22.572,22.572,0,0,1-6.787,1.448,132.879,132.879,0,0,1-14.675.942,38.637,38.637,0,0,1-15.458-2.865,2.475,2.475,0,0,0-3.284.861,2.418,2.418,0,0,0,.861,3.283Z"/><path class="a" d="M214.766,156.3a87.189,87.189,0,0,0,16.99-20.871,117.171,117.171,0,0,0,10.925-26.374c1.275-4.391,2.846-8.672,4.522-12.925L244.889,97.9c.035,0-1.1-.287-.583-.145.431.118-.286-.293.1.072a10.828,10.828,0,0,1,.965,1.044,30.611,30.611,0,0,1,1.858,2.719,76.382,76.382,0,0,1,3.8,6.9,27.156,27.156,0,0,1,1.446,3.463,14.73,14.73,0,0,1,.685,3.108,17.339,17.339,0,0,1-1.043,6.686,11.917,11.917,0,0,1-1.549,3.515c-.858,1.242-1.744,2.463-2.64,3.678-1.92,2.6-3.889,5.17-5.848,7.745q-5.522,7.256-10.623,14.8c-4.1,6.036-8.132,12.11-12.338,18.072a2.422,2.422,0,0,0,.861,3.284,2.451,2.451,0,0,0,3.284-.861c7.708-10.928,14.859-22.228,22.961-32.876,2.071-2.721,4.153-5.435,6.176-8.192.907-1.235,1.8-2.479,2.665-3.747a15.861,15.861,0,0,0,1.779-4.471,21.375,21.375,0,0,0,1.1-7.766,23.725,23.725,0,0,0-2.452-8.187,70.05,70.05,0,0,0-4.568-8.275c-1.3-2.009-3.266-5.41-6.044-5.371a2.5,2.5,0,0,0-2.315,1.762c-1.414,3.589-2.867,7.216-3.952,10.921-1.356,4.629-2.762,9.223-4.517,13.72A89.875,89.875,0,0,1,221.5,142.11a84.662,84.662,0,0,1-10.127,10.8c-2.3,2.072,1.1,5.458,3.394,3.394Z"/><path class="a" d="M215.469,164.156c-.908-8.973-2.059-17.951-5.267-26.436-.83-2.2-1.762-4.357-2.779-6.473a21.293,21.293,0,0,0-3.531-5.591,15.042,15.042,0,0,0-10.99-4.387c-5.2-.057-10.313-.212-15.181,1.87a2.358,2.358,0,0,0-1.188,2.072c-.025,1.5,1.432,3.059,2.234,4.2,1.592,2.253,3.218,4.483,4.815,6.732,3.516,4.953,6.975,9.88,9.2,15.569,1.689,4.311,2.881,8.8,4.346,13.19.973,2.916,5.61,1.666,4.628-1.276-2.36-7.071-4.135-14.472-8-20.926-2.954-4.929-6.435-9.544-9.776-14.212-.7-.979-1.4-1.957-2.079-2.954-.209-.308-.41-.622-.611-.936a2.729,2.729,0,0,0-.175-.3c.011.012-.061-.113-.058-.115.138-.078.274,1.159.276,1.035l-1.189,2.073c3.5-1.5,7.444-1.251,11.154-1.222,3.327.026,6.492.268,8.971,2.753a16.438,16.438,0,0,1,2.915,4.658c.9,1.867,1.732,3.766,2.46,5.709a70.966,70.966,0,0,1,3.112,11.033c.919,4.6,1.441,9.273,1.913,13.941a2.468,2.468,0,0,0,2.4,2.4,2.415,2.415,0,0,0,2.4-2.4Z"/><path class="a" d="M143.259,133.933c1.091,3.045,3.68,5.764,5.994,7.933,2.736,2.565,6.292,5.214,10.254,4.493a2.342,2.342,0,0,0,1.677-1.676,3.026,3.026,0,0,1,1.246-2.015,16.679,16.679,0,0,1,2.835-1.706c2.157-1.1,4.447-2.146,6.134-3.943,2.307-2.455,2.76-5.612,3.114-8.822.322-2.928,1-5.4,3.224-7.443,3.5-3.211,8.854-3.839,13.334-4.672a81.382,81.382,0,0,1,15.131-1.521c6.921-.04,13.814.815,20.732.962,2,.043,2.749-2.03,2.072-3.611-3.9-9.112-13.173-14.468-22.159-17.54a66.179,66.179,0,0,0-6.585-1.867,24.255,24.255,0,0,0-7.467-.5,66.975,66.975,0,0,0-16.813,3.67,90.621,90.621,0,0,0-17.43,8.159c-2.636,1.6-.226,5.756,2.422,4.144,8.905-5.418,19.13-9.613,29.522-10.944a22.432,22.432,0,0,1,6.983-.233q3.127.647,6.186,1.579a47.314,47.314,0,0,1,11.785,5.3,24.036,24.036,0,0,1,9.411,10.65l2.073-3.611c-6.359-.135-12.69-.87-19.048-.955a89,89,0,0,0-16.807,1.452c-4.908.87-10.416,1.61-14.626,4.483a14.481,14.481,0,0,0-5.99,7.838c-.85,2.959-.3,6.573-1.877,9.294-1.258,2.169-4.08,3.1-6.264,4.252-2.62,1.383-5.086,3.279-5.767,6.32l1.676-1.676c.5-.091-.184-.009-.382-.017-.231-.01-.232-.045-.006,0-.186-.038-.369-.084-.551-.137a5.32,5.32,0,0,1-1.481-.678,17.98,17.98,0,0,1-3.595-2.84q-.84-.819-1.618-1.7-.372-.417-.728-.846c-.1-.117-.634-.792-.514-.634-.358-.471-.7-.955-1.014-1.456-.14-.224-.267-.455-.4-.684-.049-.085-.084-.179-.133-.264-.147-.258.219.57.078.177a2.463,2.463,0,0,0-2.953-1.677,2.422,2.422,0,0,0-1.676,2.953Z"/><path class="d" d="M98.3,160.808c11.062,9.867,21.793,21.2,28.323,30.27-13.573,1.5-25.769-7.59-38.788-11.706-3.508-1.11-7.241-1.866-10.86-1.206-6.027,1.1-10.7,5.909-14.078,11.018-2.206,3.334-4.088,7-4.55,10.976s.7,8.3,3.746,10.891c2.043-8.923,8.452-17.945,17.578-18.657,7.471-.583,14.066,4.44,21.128,6.947,9.174,3.257,21.758,2.879,30.006-2.291-.152,5.173-1.52,20.356-3.942,23.66-3.093,4.217-27.859,13.822-31.676,16.78,3.817,2.627,18.344,3.259,21.083,3.111,4.687-.253,16.834-.2,20.114-3.556s4.043-11.934,4.151-16.339a172.041,172.041,0,0,0-.828-22.225c8.48-2.042,17.681-4.1,26.4-4.624a18.1,18.1,0,0,1,7.4.644c4.392,1.628,7.039,6.334,7.591,10.986s-.608,9.317-1.757,13.858c8.062-2.486,13.141-11.594,11.956-19.948s-7.89-15.384-15.919-17.976-17.051-1.081-24.413,3.04a38.491,38.491,0,0,0,11.278-25.916c.142-4.719-.658-9.607-3.227-13.569s-8.748-9.936-13.456-9.577c1.6,9.263,2.843,21.412-.4,31.081-2.4,7.155-8.206,12.318-11.352,18.452-3.4-12.429-13.618-23.385-21.786-33.36-2.578-3.147-7.059-7.16-16.834-8.377-6.473-.807-14.473-1.845-19.806,0A170.652,170.652,0,0,1,98.3,160.808Z"/><path class="a" d="M135.3,187.319c2.659-6.312,8.113-11.014,10.978-17.242,3.223-7.008,3.629-15.1,3.151-22.69a118.831,118.831,0,0,0-1.561-12.626l-2.314,3.038c2.67-.134,5.462,2.007,7.482,3.885a20.058,20.058,0,0,1,5.626,8.029c2.437,7.15,1.1,15.641-2,22.385a36.677,36.677,0,0,1-7.4,10.666,2.411,2.411,0,0,0,2.909,3.769c8.53-4.707,19.443-5.763,27.849-.212,7.115,4.7,11.014,13.437,7.867,21.644a15.153,15.153,0,0,1-9.19,9.066l2.952,2.952c2.064-8.163,3.8-17.7-2.532-24.511-2.892-3.113-6.883-4.178-11.026-4.1a91.468,91.468,0,0,0-13.8,1.532c-5.116.884-10.177,2.049-15.224,3.262-3,.721-1.731,5.351,1.276,4.628,7.877-1.892,15.831-3.732,23.921-4.4,3.374-.28,7.312-.78,10.222,1.34a11.6,11.6,0,0,1,4.16,7.5c.754,4.5-.529,9.146-1.624,13.477a2.422,2.422,0,0,0,2.953,2.952c10.07-3.234,15.715-14.564,13.3-24.668-2.62-10.938-13-18.246-23.855-19.151a35.153,35.153,0,0,0-19.666,4.548l2.908,3.77a41.146,41.146,0,0,0,11.641-23.61,31.989,31.989,0,0,0-.817-13.519,24.369,24.369,0,0,0-6.528-10.241c-2.958-2.887-7.026-6.009-11.4-5.789a2.443,2.443,0,0,0-2.314,3.038,82.554,82.554,0,0,1,1.3,21.553,31.256,31.256,0,0,1-2.411,10.065,50.3,50.3,0,0,1-5.506,8.666,47.746,47.746,0,0,0-5.956,9.722A2.414,2.414,0,0,0,132.346,189a2.464,2.464,0,0,0,2.953-1.676Z"/><path class="a" d="M136.025,183.963c-3.307-11.408-11.2-20.754-18.668-29.7-2.691-3.222-5.142-6.561-8.662-8.934-4.447-3-9.661-4.06-14.892-4.706-6.182-.763-13.013-1.75-19.064.253a2.432,2.432,0,0,0-.573,4.387,155.627,155.627,0,0,1,20.816,15.812,241.725,241.725,0,0,1,20.8,20.481,132.707,132.707,0,0,1,8.767,10.733,2.468,2.468,0,0,0,3.284.861,2.418,2.418,0,0,0,.861-3.283,171.944,171.944,0,0,0-17.985-20.635A236.607,236.607,0,0,0,88.621,149.6a134.5,134.5,0,0,0-12.033-8.485l-.573,4.387c4.929-1.632,10.494-.929,15.549-.35,4.771.546,9.581,1.211,13.771,3.723,2.891,1.733,5,4.43,7.307,7.2,3.551,4.258,7.15,8.488,10.37,13.007a54.27,54.27,0,0,1,8.384,16.156c.858,2.961,5.492,1.7,4.629-1.276Z"/><path class="a" d="M126.619,188.678c-13.126,1.343-24.67-6.969-36.56-11.093-6.625-2.3-13.657-3.15-19.877.719-5.2,3.237-9.319,8.66-11.933,14.138-3.1,6.5-3.743,15.085,2.143,20.306a2.426,2.426,0,0,0,4.011-1.059c2.066-8.779,8.951-18.695,19.21-16.685,5.533,1.085,10.378,4.28,15.584,6.294a40.283,40.283,0,0,0,15.583,2.52,34.793,34.793,0,0,0,17.232-4.7c2.626-1.617.218-5.77-2.422-4.145-8.8,5.42-20.951,5.212-30.26,1.229-5.4-2.309-10.514-5.461-16.454-6.136a18.478,18.478,0,0,0-14.5,4.979,30.066,30.066,0,0,0-8.6,15.364l4.012-1.059c-4.195-3.721-3.6-9.854-1.392-14.489,2.309-4.842,5.85-9.828,10.533-12.613,5.441-3.234,11.467-1.663,17.044.386,5.717,2.1,11.151,4.889,16.8,7.164,6.293,2.534,13.01,4.376,19.85,3.676a2.468,2.468,0,0,0,2.4-2.4,2.417,2.417,0,0,0-2.4-2.4Z"/><path class="a" d="M152.2,123.241q.386.018.768.068l-.638-.086a8.766,8.766,0,0,1,2.115.587l-.573-.242a9.347,9.347,0,0,1,1.992,1.168l-.486-.375a9.251,9.251,0,0,1,1.556,1.552l-.375-.485a8.582,8.582,0,0,1,1.062,1.794l-.241-.573.084.2a2.622,2.622,0,0,0,1.1,1.434,2.451,2.451,0,0,0,1.85.242,2.422,2.422,0,0,0,1.434-1.1,2.324,2.324,0,0,0,.242-1.849,12,12,0,0,0-1.8-3.1,11.136,11.136,0,0,0-2.273-2.082,10.877,10.877,0,0,0-5.821-1.953,2.416,2.416,0,0,0-2.4,2.4,2.452,2.452,0,0,0,2.4,2.4Z"/><path class="a" d="M158.732,115.818a10.831,10.831,0,0,0-2.666,5.556,1.812,1.812,0,0,0-.042.957,1.783,1.783,0,0,0,.284.892,2.4,2.4,0,0,0,3.284.861,2.3,2.3,0,0,0,1.1-1.434,8.8,8.8,0,0,1,.588-2.16l-.242.574a8.825,8.825,0,0,1,1.127-1.934l-.375.486c.107-.138.218-.272.333-.4a2.543,2.543,0,0,0,.7-1.7,2.439,2.439,0,0,0-.7-1.7,2.412,2.412,0,0,0-1.7-.7,2.387,2.387,0,0,0-1.7.7Z"/><path class="b" d="M259.2,25.722c-5.046-.8-8.552,4.451-9.237,7.989a15.023,15.023,0,0,0,.057,7.246,7.747,7.747,0,0,0,6.521,5.121c2.358.373,4.692-.073,6.134-1.855,1.6-1.98,2.026-4.658,2.094-7.2.075-2.8-.036-5.694-1.517-8.075C262.361,27.515,260.842,25.982,259.2,25.722Z"/><path class="a" d="M259.835,23.408A9.336,9.336,0,0,0,253.5,24.58a12.786,12.786,0,0,0-4.166,4.312,14.22,14.22,0,0,0-1.876,5.266,15.589,15.589,0,0,0,.436,7.973c1.7,4.4,6.549,6.917,11.165,6.4a8.123,8.123,0,0,0,6.254-3.909,15.066,15.066,0,0,0,1.842-7.274,18.747,18.747,0,0,0-1.2-8.389c-1.1-2.5-3.341-4.99-6.118-5.555a2.459,2.459,0,0,0-2.953,1.676,2.424,2.424,0,0,0,1.677,2.952c3.232.658,3.818,5.042,3.824,7.753,0,2.609-.112,7.054-3.072,7.855a6.187,6.187,0,0,1-6.735-2.73,9.551,9.551,0,0,1-.544-5.022,14.179,14.179,0,0,1,.356-2.045c.073-.283.159-.561.255-.837.05-.144.1-.287.16-.429.088-.219-.094.184.09-.186a8.767,8.767,0,0,1,2.49-3.3c-.228.189.092-.07.117-.089.206-.145.421-.281.64-.4a2.189,2.189,0,0,1,.693-.321,3.787,3.787,0,0,1,1.726-.24,2.483,2.483,0,0,0,2.952-1.676A2.416,2.416,0,0,0,259.835,23.408Z"/><path class="b" d="M216.444,9.483c-5.094-.383-8.161,5.133-8.555,8.715a15.007,15.007,0,0,0,.648,7.217,7.744,7.744,0,0,0,6.916,4.573c2.38.179,4.671-.455,5.963-2.348,1.435-2.105,1.639-4.808,1.5-7.351-.154-2.8-.5-5.672-2.169-7.925C219.744,11.012,218.105,9.608,216.444,9.483Z"/><path class="a" d="M216.444,7.083c-4.236-.232-7.8,2.7-9.567,6.369a16.219,16.219,0,0,0-.179,13.694c2.123,4.208,7.392,5.916,11.806,5.029,5.4-1.085,7.024-6.716,6.828-11.554a19.438,19.438,0,0,0-1.809-8.342,9.5,9.5,0,0,0-7.079-5.2,2.413,2.413,0,0,0-2.4,2.4,2.459,2.459,0,0,0,2.4,2.4c1.251.153,2.486,1.9,3.008,2.966a12.9,12.9,0,0,1,1.022,4.767,14.34,14.34,0,0,1-.332,5.162,5.065,5.065,0,0,1-.88,1.736,2.908,2.908,0,0,1-1.468.9c-2.506.728-5.608-.265-6.82-2.439a9.548,9.548,0,0,1-.824-4.94c.019-.491.059-.979.1-1.468.065-.745.034-.288.006-.125.024-.137.047-.274.075-.411a10.924,10.924,0,0,1,.591-1.952c-.122.3.192-.394.262-.529a11.8,11.8,0,0,1,.626-1.072,7.178,7.178,0,0,1,1.232-1.423,2.353,2.353,0,0,1,.7-.525c.108-.066.813-.432.534-.313a3.78,3.78,0,0,1,2.17-.33,2.4,2.4,0,1,0,0-4.8Z"/><path class="b" d="M303.45,49.881c-5-1.053-8.768,4.009-9.632,7.508a15.005,15.005,0,0,0-.312,7.239,7.743,7.743,0,0,0,6.25,5.447c2.337.492,4.691.167,6.222-1.539,1.7-1.9,2.261-4.549,2.458-7.088.217-2.8.254-5.689-1.1-8.143C306.519,51.833,305.08,50.224,303.45,49.881Z"/><path class="a" d="M304.088,47.567c-4.547-.858-8.463,1.58-10.88,5.332a14.921,14.921,0,0,0-2.084,5.65,14.331,14.331,0,0,0,.421,7.752,10.851,10.851,0,0,0,11.03,6.329c5.649-.6,7.774-5.848,8.234-10.864a17.736,17.736,0,0,0-.958-8.732c-1.061-2.449-3.1-4.788-5.763-5.467-3-.763-4.273,3.866-1.276,4.628,2.966.756,3.429,5.164,3.312,7.849-.112,2.566-.434,6.918-3.3,7.7a6.647,6.647,0,0,1-4.039-.468,5.313,5.313,0,0,1-2.616-2.343,6,6,0,0,1-.514-1.74,11.244,11.244,0,0,1,.03-2.915,17.68,17.68,0,0,1,.5-2.452c.078-.279.169-.554.269-.825.162-.439.063-.161.021-.066.1-.219.2-.436.315-.648.153-.293.319-.58.5-.86q.135-.215.279-.424c-.007.011.429-.565.243-.336a10.536,10.536,0,0,1,.788-.862c.111-.11.719-.645.6-.552a5.442,5.442,0,0,1,1.709-.922,3.877,3.877,0,0,1,1.911-.137,2.464,2.464,0,0,0,2.952-1.676A2.421,2.421,0,0,0,304.088,47.567Z"/><path class="b" d="M344.232,132.184c-4.991-1.087-8.8,3.949-9.683,7.442a15,15,0,0,0-.362,7.236,7.746,7.746,0,0,0,6.214,5.49c2.333.508,4.689.2,6.231-1.5,1.714-1.884,2.292-4.533,2.507-7.071.236-2.794.293-5.686-1.047-8.15C347.287,134.156,345.859,132.538,344.232,132.184Z"/><path class="a" d="M344.87,129.869c-4.543-.889-8.47,1.548-10.909,5.277a14.955,14.955,0,0,0-2.118,5.637,14.291,14.291,0,0,0,.377,7.755,10.858,10.858,0,0,0,11,6.388c5.655-.579,7.8-5.808,8.292-10.824a17.775,17.775,0,0,0-.8-8.481c-1.049-2.562-3.069-5.025-5.843-5.752-2.991-.783-4.267,3.846-1.276,4.629a4.808,4.808,0,0,1,2.6,2.687,11.209,11.209,0,0,1,.638,5.2c-.129,2.571-.489,6.9-3.371,7.666a6.717,6.717,0,0,1-3.877-.44,5.227,5.227,0,0,1-2.751-2.434,6.06,6.06,0,0,1-.494-1.746,11.2,11.2,0,0,1,.051-2.915,18.136,18.136,0,0,1,.523-2.448c.079-.278.171-.553.274-.824.168-.441.067-.155.026-.064.1-.218.206-.433.319-.645a12,12,0,0,1,1.031-1.61,10.726,10.726,0,0,1,.794-.857c.113-.111.725-.635.6-.545a5.5,5.5,0,0,1,1.717-.907,3.864,3.864,0,0,1,1.912-.114,2.462,2.462,0,0,0,2.952-1.676A2.423,2.423,0,0,0,344.87,129.869Z"/><path class="a" d="M164.7,204.551c-10.585,7.108-23.136,10.384-35.686,11.792-12.74,1.43-25.788,1.637-38.436-.672-22.228-4.058-43.407-15.85-57.748-33.442-7.665-9.4-13.348-20.305-18.664-31.149a2.423,2.423,0,0,0-3.284-.861,2.449,2.449,0,0,0-.861,3.283c4.942,10.082,10.211,20.116,17.027,29.08a95.454,95.454,0,0,0,22.8,21.456,104.339,104.339,0,0,0,35.281,15.411c13.157,2.965,26.671,3.239,40.064,2.074,14.66-1.275,29.542-4.509,41.929-12.828,2.551-1.713.151-5.873-2.423-4.144Z"/><path class="b" d="M7.43,132.184c4.991-1.087,8.794,3.949,9.682,7.442a14.991,14.991,0,0,1,.362,7.236,7.744,7.744,0,0,1-6.213,5.49c-2.333.508-4.689.2-6.232-1.5-1.713-1.884-2.292-4.533-2.506-7.071-.237-2.794-.293-5.686,1.047-8.15C4.374,134.156,5.8,132.538,7.43,132.184Z"/><path class="a" d="M8.068,134.5c2.132-.417,4.285,1.188,5.557,3.176q.267.418.5.857c.073.138.4.831.261.5a12.186,12.186,0,0,1,.623,2.128,10.938,10.938,0,0,1,.078,5.335,4.592,4.592,0,0,1-2.042,2.593,7.067,7.067,0,0,1-3.992,1.086,3.276,3.276,0,0,1-2.883-1.8,10.919,10.919,0,0,1-1.248-4.59,15.379,15.379,0,0,1,.294-5.921c.443-1.417,1.568-3.029,2.851-3.365,2.985-.782,1.719-5.413-1.276-4.629C1.519,131.25-.194,137.434.017,142.205.229,147,1.4,152.939,6.635,154.593A11.111,11.111,0,0,0,18.7,150.056a11.515,11.515,0,0,0,1.4-7.179,18.176,18.176,0,0,0-1.725-6.553c-2.2-4.344-6.617-7.428-11.59-6.455A2.4,2.4,0,1,0,8.068,134.5Z"/><path class="b" d="M301.738,215.676c-4.363-2.657-9.6.861-11.581,3.873a15,15,0,0,0-2.7,6.722,7.95,7.95,0,0,0,15.392,3.076,18.039,18.039,0,0,0,1.416-9.15C303.983,218.538,303.161,216.542,301.738,215.676Z"/><path class="a" d="M302.95,213.6c-4.321-2.5-9.374-.861-12.836,2.333a16.715,16.715,0,0,0-3.738,5.47,12.044,12.044,0,0,0-1.1,7.59,10.557,10.557,0,0,0,10.939,7.866,10.386,10.386,0,0,0,6.214-2.676,13.518,13.518,0,0,0,3.307-5.71c1.57-4.77,1.976-11.723-2.784-14.873a2.4,2.4,0,1,0-2.423,4.145,1.665,1.665,0,0,1,.442.432,7.089,7.089,0,0,1,.508.917c-.1-.216.072.2.071.193.061.171.116.346.166.521q.091.319.159.645c.028.126.052.252.073.379-.019-.168-.02-.165,0,.009a13.68,13.68,0,0,1-.405,4.824,12.493,12.493,0,0,1-1.77,4.3,7.645,7.645,0,0,1-1.052,1.106,4.9,4.9,0,0,1-1.718.8,5.277,5.277,0,0,1-4.254-.457,6.468,6.468,0,0,1-1.635-1.356c-.117-.129-.241-.264-.346-.4.161.214-.083-.142-.089-.151-.117-.183-.229-.368-.332-.559-.063-.113-.122-.228-.176-.345.052.141.05.135-.007-.02a6.075,6.075,0,0,1-.309-1.114c.052.295-.028-.5-.026-.661a8.027,8.027,0,0,1,.529-2.516,13.163,13.163,0,0,1,1.036-2.17c.264-.461.542-.918.839-1.359.079-.118.159-.235.243-.35-.245.337.126-.144.191-.217a11.669,11.669,0,0,1,1.547-1.455,11.86,11.86,0,0,1,1.108-.706q.231-.13.468-.249c-.022.011.716-.3.4-.183.414-.157.837-.261,1.263-.376a3.437,3.437,0,0,1,.922-.088,4.37,4.37,0,0,1,2.16.611C303.205,219.3,305.624,215.154,302.95,213.6Z"/><path class="d" d="M139.552,197.1a170.783,170.783,0,0,1,.979,23.6c-.108,4.405-.872,12.981-4.151,16.339s-15.427,3.3-20.114,3.556c-2.739.148-17.266-.484-21.083-3.111,3.817-2.958,28.583-12.563,31.676-16.78,2.422-3.3,3.79-18.487,3.942-23.66"/><path class="a" d="M137.152,197.1a169.789,169.789,0,0,1,.976,23.722,47.745,47.745,0,0,1-.733,7.47c-.429,2.283-1.122,5.311-2.539,6.867a5.712,5.712,0,0,1-.451.443c.311-.276-.014.007-.171.1a7.808,7.808,0,0,1-1.105.557,21.289,21.289,0,0,1-3.361.894,57.2,57.2,0,0,1-7.8.8,100.506,100.506,0,0,1-11.355.094,79.253,79.253,0,0,1-8-.833,35.126,35.126,0,0,1-3.826-.816,16.013,16.013,0,0,1-1.6-.531c-.263-.106.09.034.117.047-.111-.053-.227-.1-.334-.162-.195-.113-.389-.218-.577-.343v4.145c2.469-1.876,5.626-3.054,8.415-4.353,4.3-2,8.627-3.951,12.885-6.044,3.419-1.681,7.062-3.369,9.983-5.862,2.808-2.4,3.333-6.894,3.9-10.311A120.914,120.914,0,0,0,133.2,197.05c.1-3.09-4.7-3.087-4.8,0a114.72,114.72,0,0,1-1.189,12.984,56.011,56.011,0,0,1-1.316,6.712c-.121.438-.25.874-.4,1.3q-.1.288-.209.571c-.227.592.232-.424-.047.1-.14.261-.329.517-.456.781.309-.642.124-.167-.151.1-.2.194-.418.368-.634.545.566-.463-.293.2-.446.307-.717.492-1.461.945-2.213,1.381-1.738,1.008-3.527,1.928-5.325,2.823-4.1,2.037-8.264,3.925-12.414,5.848-1.986.92-3.973,1.84-5.931,2.818a23.131,23.131,0,0,0-3.7,2.1,2.441,2.441,0,0,0,0,4.145,17.075,17.075,0,0,0,6.238,2.09,78.842,78.842,0,0,0,8.29,1.053,97.305,97.305,0,0,0,12.135.119,84.942,84.942,0,0,0,8.9-.783,18.04,18.04,0,0,0,7.3-2.3c2.359-1.569,3.595-4.282,4.4-6.907a42.27,42.27,0,0,0,1.553-9.268,143.46,143.46,0,0,0-.837-26.458,2.472,2.472,0,0,0-2.4-2.4,2.415,2.415,0,0,0-2.4,2.4Z"/><path class="a" d="M178.691,235.974c2.23,4.77,4.827,9.667,9.048,12.977a19.255,19.255,0,0,0,15.714,3.458c5.332-1.032,10.091-4.15,14.046-7.759a57.179,57.179,0,0,0,10.12-12.47,64.9,64.9,0,0,0,7.264-17.169c.791-2.99-3.838-4.265-4.629-1.276a58.008,58.008,0,0,1-13.733,25.146c-6.051,6.373-15.872,12.514-24.553,7.206-4.495-2.748-6.982-7.935-9.132-12.536a2.421,2.421,0,0,0-3.284-.861,2.455,2.455,0,0,0-.861,3.284Z"/><path class="b" d="M236.771,195.737c-5.012-.985-8.712,4.128-9.529,7.638a15.005,15.005,0,0,0-.214,7.243,7.748,7.748,0,0,0,6.324,5.362c2.343.46,4.693.1,6.2-1.624,1.675-1.919,2.2-4.579,2.362-7.121.179-2.8.177-5.691-1.213-8.126C239.866,197.647,238.406,196.059,236.771,195.737Z"/><path class="a" d="M237.409,193.423c-4.5-.787-8.33,1.579-10.727,5.294a14.563,14.563,0,0,0-2.049,5.46,14.892,14.892,0,0,0,.342,7.86,10.819,10.819,0,0,0,10.9,6.494,8.165,8.165,0,0,0,6.33-3.717,14.727,14.727,0,0,0,2.065-6.941,18.524,18.524,0,0,0-.791-8.469c-1.062-2.66-3.166-5.277-6.065-5.981-3-.728-4.281,3.9-1.276,4.629a4.8,4.8,0,0,1,2.827,2.917,12.211,12.211,0,0,1,.61,5.213c-.106,2.633-.458,6.812-3.443,7.492a7.144,7.144,0,0,1-3.854-.513,4.982,4.982,0,0,1-2.689-2.482,9.527,9.527,0,0,1-.4-4.772,16.856,16.856,0,0,1,.473-2.29c.079-.278.172-.552.274-.823.166-.439.064-.153.023-.06.1-.217.2-.43.313-.641q.228-.433.49-.848c.089-.141.181-.281.275-.418,0,.008.435-.571.233-.322a10.514,10.514,0,0,1,.773-.848c.121-.119.246-.234.371-.349.066-.06.438-.366.205-.187a7.564,7.564,0,0,1,1.072-.669c-.009,0,.362-.175.17-.092a3.787,3.787,0,0,0,.421-.146,4.045,4.045,0,0,1,1.854-.162,2.47,2.47,0,0,0,2.953-1.677A2.421,2.421,0,0,0,237.409,193.423Z"/><path class="a" d="M163.047,240.707c-2.414,3.468-5.572,6.125-9.778,7.023a18.421,18.421,0,0,1-11.937-1.85c-7.689-3.862-13.661-11.1-17.846-18.464a59.222,59.222,0,0,1-5.616-13.681c-.814-2.976-5.446-1.713-4.629,1.276a62.922,62.922,0,0,0,14.185,25.928c6.728,7.33,15.973,13.3,26.326,11.57,5.781-.965,10.178-4.693,13.44-9.379a2.422,2.422,0,0,0-.861-3.284,2.449,2.449,0,0,0-3.284.861Z"/><path class="b" d="M111.009,196.021c5.012-.985,8.712,4.127,9.529,7.638a15,15,0,0,1,.214,7.242,7.745,7.745,0,0,1-6.324,5.362c-2.343.461-4.692.1-6.2-1.624-1.675-1.919-2.2-4.579-2.362-7.12-.179-2.8-.177-5.692,1.214-8.127C107.914,197.931,109.375,196.342,111.009,196.021Z"/><path class="a" d="M111.647,198.335a4.279,4.279,0,0,1,2.993.715,8.066,8.066,0,0,1,2.381,2.478c.174.276.338.56.49.849.072.137.4.833.253.491a11.09,11.09,0,0,1,.579,1.966,11.63,11.63,0,0,1,.095,5.429,4.673,4.673,0,0,1-1.97,2.652,7.023,7.023,0,0,1-3.941,1.131,3.26,3.26,0,0,1-2.972-1.635,10.222,10.222,0,0,1-1.266-4.574,16.4,16.4,0,0,1,.3-5.9c.438-1.48,1.527-3.228,3.054-3.6,3-.728,1.73-5.358-1.276-4.628-5.454,1.323-7.138,7.727-6.967,12.583.168,4.772,1.384,10.723,6.684,12.221a11.121,11.121,0,0,0,11.994-4.658,11.991,11.991,0,0,0,1.352-7.3,17.879,17.879,0,0,0-1.668-6.388c-2.165-4.322-6.467-7.324-11.4-6.461a2.419,2.419,0,0,0-1.676,2.952A2.454,2.454,0,0,0,111.647,198.335Z"/><path class="b" d="M280.117,164.965c-4.991-1.087-8.8,3.949-9.683,7.442a15.007,15.007,0,0,0-.361,7.237,7.746,7.746,0,0,0,6.213,5.49c2.333.508,4.689.2,6.231-1.5,1.714-1.884,2.292-4.533,2.507-7.071.237-2.794.293-5.686-1.047-8.149C283.173,166.938,281.745,165.32,280.117,164.965Z"/><path class="a" d="M280.755,162.651c-4.543-.889-8.469,1.547-10.908,5.276a14.946,14.946,0,0,0-2.119,5.637,14.291,14.291,0,0,0,.377,7.755,10.861,10.861,0,0,0,11,6.389c5.655-.579,7.8-5.809,8.292-10.825a17.764,17.764,0,0,0-.8-8.481c-1.049-2.561-3.068-5.024-5.843-5.751-2.991-.783-4.266,3.845-1.276,4.628a4.808,4.808,0,0,1,2.605,2.688,11.209,11.209,0,0,1,.638,5.2c-.13,2.571-.49,6.9-3.372,7.666a6.717,6.717,0,0,1-3.877-.44,5.224,5.224,0,0,1-2.751-2.435,6.085,6.085,0,0,1-.494-1.745,11.245,11.245,0,0,1,.051-2.915,18.224,18.224,0,0,1,.523-2.448c.079-.279.171-.553.274-.824.168-.441.068-.156.026-.064.1-.218.206-.434.319-.645a12.014,12.014,0,0,1,1.032-1.611,10.713,10.713,0,0,1,.793-.857c.114-.11.725-.634.605-.544a5.5,5.5,0,0,1,1.717-.907,3.861,3.861,0,0,1,1.911-.115,2.461,2.461,0,0,0,2.952-1.676A2.422,2.422,0,0,0,280.755,162.651Z"/></svg>