<?xml version="1.0" encoding="utf-8"?>
<!-- Uploaded to: SVG Repo, www.svgrepo.com, Generator: SVG Repo Mixer Tools -->
<svg width="800px" height="800px" viewBox="0 -58.81 311.415 311.415" xmlns="http://www.w3.org/2000/svg"><defs><style>.a{fill:#382f2d;}.b{fill:#4d4544;}.c{fill:#908b8a;}.d{fill:#f2635f;}.e{fill:#645d5c;}</style></defs><path class="a" d="M30.544,98.318C103,70.787,190.391,32.546,256.826,6.658c20.223-9.132,37.4-2.028,44.521,6.807,5.835,7.242,7.953,16.657,7.632,26.518-.317,9.765-8,25.926-18.368,33.5l-2.381,1.74c-12.117,6.7-165.295,85.155-218,111.588"/><path class="a" d="M31.182,100.633C56.341,91.07,81.311,81.016,106.22,70.822c25.576-10.465,51.083-21.1,76.623-31.653,23.767-9.822,47.556-19.6,71.5-28.979,6.3-2.466,12.373-5,19.223-5.339A34.956,34.956,0,0,1,289.6,7.666a26.382,26.382,0,0,1,10.5,8.076,34.47,34.47,0,0,1,6.27,17.187,36.6,36.6,0,0,1-1.468,15.4,54.386,54.386,0,0,1-7.569,14.782,37.685,37.685,0,0,1-13.041,11.506c-8.294,4.4-16.646,8.684-24.987,12.99q-21.036,10.862-42.1,21.659-25.032,12.843-50.086,25.642-24.963,12.756-49.951,25.468Q96.882,170.69,76.575,180.941q-3.775,1.9-7.553,3.8c-2.761,1.386-.334,5.528,2.423,4.145Q90.4,179.375,109.3,169.746q24.643-12.515,49.259-25.088,25.662-13.1,51.3-26.245,22.475-11.52,44.927-23.085c9.721-5.01,19.444-10.015,29.128-15.095a57.7,57.7,0,0,0,8.5-5.124c8.83-6.733,15.185-17.567,17.909-28.251a42.864,42.864,0,0,0,.4-17.312,37.55,37.55,0,0,0-7.407-17.426C296.712,3.71,285.322-.174,274.9.006a45.791,45.791,0,0,0-9.84,1.275A76.86,76.86,0,0,0,255.022,4.8q-8.587,3.353-17.149,6.776-18.024,7.2-35.97,14.589C176.129,36.739,150.42,47.469,124.664,58.09c-25.565,10.543-51.17,21-76.934,31.048Q38.832,92.609,29.906,96a2.468,2.468,0,0,0-1.676,2.952,2.418,2.418,0,0,0,2.952,1.677Z"/><path class="b" d="M50.244,191.4c23.305,0,45.163-17.531,45.163-47.448,0-31.255-25.285-48.719-48.422-48.719-23.3,0-44.51,17.458-44.51,48.719C2.475,174.424,29.534,191.4,50.244,191.4Z"/><path class="a" d="M50.244,193.8a47.837,47.837,0,0,0,27.622-8.729,47.3,47.3,0,0,0,17.66-24.91,55.688,55.688,0,0,0-.8-34.422,49.506,49.506,0,0,0-18.682-23.892c-15.851-10.818-37.78-12.333-54.162-1.794A46.684,46.684,0,0,0,3.543,123.29,56.637,56.637,0,0,0,1.9,157.459c5.315,18.875,22.737,33.114,42,35.846a46.331,46.331,0,0,0,6.346.493c3.089.011,3.094-4.789,0-4.8a46.26,46.26,0,0,1-23.29-6.819A45.946,45.946,0,0,1,8.925,162.648C4.457,153.254,3.93,142.285,6,132.2a44.265,44.265,0,0,1,13.414-24.273c13.124-11.8,32.7-13.1,48.213-5.434a45.448,45.448,0,0,1,19.557,18.253c5.178,9.172,6.735,20.049,5.378,30.426a44.113,44.113,0,0,1-12.475,25.813,42.563,42.563,0,0,1-23.494,11.573,44.648,44.648,0,0,1-6.35.444C47.156,189.009,47.15,193.809,50.244,193.8Z"/><path class="a" d="M47.847,181.336c17.538,0,33.988-13.194,33.988-35.709,0-23.522-19.029-36.665-36.441-36.665-17.534,0-33.5,13.139-33.5,36.665C11.9,168.562,32.26,181.336,47.847,181.336Z"/><path class="c" d="M47.847,183.736A35.77,35.77,0,0,0,82.491,158a42.436,42.436,0,0,0-.642-26.365A37.929,37.929,0,0,0,67.51,113.392c-12.123-8.245-28.938-9.351-41.419-1.244a35.836,35.836,0,0,0-13.947,17.729,43.153,43.153,0,0,0-1.25,26.094c4.047,14.338,17.267,25.246,31.916,27.358a36.315,36.315,0,0,0,5.037.407c3.089.014,3.093-4.786,0-4.8a34.252,34.252,0,0,1-17.172-5.017A34.047,34.047,0,0,1,17.359,159.6c-3.373-6.972-3.775-15.165-2.234-22.673a32.776,32.776,0,0,1,9.82-17.883c9.591-8.715,23.99-9.784,35.439-4.226a33.7,33.7,0,0,1,14.735,13.616,36.379,36.379,0,0,1,4,22.5,32.625,32.625,0,0,1-9.177,19.075,31.455,31.455,0,0,1-17.278,8.58,32.727,32.727,0,0,1-4.815.343C44.759,178.95,44.753,183.75,47.847,183.736Z"/><path class="b" d="M105.446,69.338l.338-.139c21.416,2.79,42.253,20.191,43.7,50.1.521,10.754-.657,19.56-5.237,28.185q-5.94,3.03-11.856,6.052c5.765-7.694,9.314-17.738,9.314-29.793,0-32.039-26.569-49.586-50.158-48.686Q98.494,72.209,105.446,69.338Z"/><path class="d" d="M60.643,146.652v5.89a1.527,1.527,0,0,1-1.527,1.526h-9.09A1.527,1.527,0,0,0,48.5,155.6v2.03a1.527,1.527,0,0,0,1.527,1.526h9.09a1.527,1.527,0,0,1,1.527,1.527v.948a1.527,1.527,0,0,0,1.526,1.527h3.019a1.527,1.527,0,0,0,1.527-1.527V129.482a1.519,1.519,0,0,0-1.337-1.508,114.476,114.476,0,0,1-14.32-2.758,1.525,1.525,0,0,0-1.849,1.037l-.639,2.157a1.522,1.522,0,0,0,1.076,1.911q4.437,1.125,9.717,2.024a1.531,1.531,0,0,1,1.28,1.5v4.714a1.527,1.527,0,0,1-1.527,1.527H50.5a1.526,1.526,0,0,0-1.526,1.526V143.6a1.526,1.526,0,0,0,1.526,1.527h8.62A1.527,1.527,0,0,1,60.643,146.652ZM32.825,160.611q.585,0,2.754-.057a1.527,1.527,0,0,0,1.484-1.42l.163-2.345a1.53,1.53,0,0,0-1.575-1.631q-1.328.039-1.7.04a3.742,3.742,0,0,1-1.883-.259q-.284-.258-.282-1.86V133.142a1.526,1.526,0,0,1,1.526-1.526h5.325a1.527,1.527,0,0,1,1.527,1.526V165.3a1.526,1.526,0,0,0,1.526,1.527h3.019a1.526,1.526,0,0,0,1.526-1.527V128.059a1.526,1.526,0,0,0-1.526-1.526H27.432a1.526,1.526,0,0,0-1.526,1.526v25.02q0,1.884.07,2.99a8.774,8.774,0,0,0,.353,2.023,3.7,3.7,0,0,0,.659,1.342,2.97,2.97,0,0,0,1.271.729,7.353,7.353,0,0,0,1.859.377Q31.084,160.611,32.825,160.611Z"/><path class="e" d="M249.517,6.116c16.7-5.4,30.528-3.746,37.491,2.846-20.4,7.6-67.691,25.378-77.14,28.98-8.451,3.221-13.629,3.748-15.963,3.411-4.948-.712-9.587-3.984-9.875-9C184.359,30.427,241.581,8.742,249.517,6.116Z"/><path class="a" d="M250.155,8.43c6.9-2.2,14.139-3.59,21.4-3.017,4.986.394,10.2,1.938,13.754,5.246l1.059-4.011q-20.739,7.725-41.448,15.526-17.441,6.554-34.868,13.14a62.869,62.869,0,0,1-11.525,3.43,15.021,15.021,0,0,1-1.854.239,15.833,15.833,0,0,1-1.822.05,4.958,4.958,0,0,1-1.509-.219,11.487,11.487,0,0,1-2.823-1.015,7.712,7.712,0,0,1-3.7-3.76c-.09-.225-.178-1.136-.35-1.3a3.893,3.893,0,0,0-.333.755c-.361.608-.453.55-.256.356.247-.243-.627.362-.279.215,1.019-.43,2-1.11,3.008-1.585,1.825-.857,3.677-1.657,5.532-2.445.13-.056.81-.343.332-.142l.939-.394q.932-.39,1.867-.776,1.954-.808,3.916-1.6,8.909-3.614,17.883-7.064c9.816-3.8,19.642-7.617,29.574-11.108.5-.176,1-.351,1.506-.518,2.917-.968,1.667-5.6-1.276-4.628-9.384,3.114-18.6,6.819-27.826,10.369C209.817,18.5,198.5,22.759,187.525,27.718a40.185,40.185,0,0,0-3.854,1.89,6.284,6.284,0,0,0-1.259.917c-1.319,1.318-.71,3.548-.11,5.079,1.721,4.393,6.067,7.24,10.621,8.01a24.035,24.035,0,0,0,9.642-.825c5.681-1.393,11.143-3.751,16.61-5.815q9.943-3.751,19.891-7.49,22.219-8.355,44.455-16.669l4.125-1.538a2.429,2.429,0,0,0,1.059-4.012c-4.481-4.174-10.448-6.008-16.436-6.589-7.867-.764-15.915.735-23.39,3.126C245.948,4.739,247.2,9.375,250.155,8.43Z"/><path class="e" d="M291.039,19.054c6.357,9.384,7.539,21.02,4.618,31.832-.806,2.986,3.823,4.26,4.629,1.276,3.232-11.968,1.943-25.13-5.1-35.531-1.723-2.543-5.883-.144-4.145,2.423Z"/></svg>