<?xml version="1.0" encoding="utf-8"?>
<!-- Uploaded to: SVG Repo, www.svgrepo.com, Generator: SVG Repo Mixer Tools -->
<svg width="800px" height="800px" viewBox="-160.22 0 442.661 442.661" xmlns="http://www.w3.org/2000/svg"><defs><style>.a{fill:#ffffff;}.b{fill:#957f6e;}.c{fill:#211715;}.d{fill:#bdbdbd;}.e{fill:#645d5c;}</style></defs><path class="a" d="M56.083,108.3a34.192,34.192,0,0,1-10.232-2.464l-.706-.343c.649,2.175,1.352,4.516,2.081,6.947,3.687,12.3,9.531,23.92,13.844,32.28.679-1.47,1.094-2.365,1.094-2.365,3.523-7.609,7.506-15.677,12.5-28.688.992-2.589,1.878-5.167,2.649-7.59A42.608,42.608,0,0,1,61.851,108.6,53.459,53.459,0,0,1,56.083,108.3Z"/><path class="a" d="M81.369,95.422c-.277-.114-3.354-1.314-3.535-1.38-2.735-.987-2.627-2.746-2.972-4.713a38.588,38.588,0,0,1-.6-6.173c7.1-3.164,12.79-12.694,13.79-15.407.152-.461.461-1.33.737-2.36.367-.06.576-.092.576-.092a7.24,7.24,0,0,0,3.361-1.515,10.891,10.891,0,0,0,2.818-3.7,17.143,17.143,0,0,0,1.749-9.091,5.723,5.723,0,0,0-.6-2.3,4.051,4.051,0,0,0-2.911-1.935,4.283,4.283,0,0,0-3.43,1S90.537,21.467,61.2,21.467,32.816,47.758,32.816,47.758a4.282,4.282,0,0,0-3.43-1,4.047,4.047,0,0,0-2.91,1.935,5.706,5.706,0,0,0-.6,2.3,17.152,17.152,0,0,0,1.748,9.091,10.907,10.907,0,0,0,2.819,3.7A7.231,7.231,0,0,0,33.805,65.3l1.1.169a29.146,29.146,0,0,0,5.558,10.849,24.579,24.579,0,0,0,9.055,7.065,38.577,38.577,0,0,1-.6,5.949c-.345,1.967-.237,3.726-2.972,4.713-.181.066-1.454.484-1.98.664,0,0-4.159,21.472,16.286,21.472C83.361,116.178,81.369,95.422,81.369,95.422Z"/><path class="b" d="M41.84,88.6a14.69,14.69,0,0,0,7.2-5.423,24.933,24.933,0,0,1-8.583-6.857A29.146,29.146,0,0,1,34.9,65.466l-1.1-.169a7.231,7.231,0,0,1-3.361-1.515c-.17-.138-.333-.281-.491-.43a14.425,14.425,0,0,0-1.619,5.14,23.481,23.481,0,0,0-.16,3.25c.04,2.58.69,5.22.82,7.8s-.95,5.53-3.4,6.36C24.479,87.7,33.807,91.449,41.84,88.6Z"/><path class="c" d="M28.227,62.342a18,18,0,0,0-2,7.3,44.942,44.942,0,0,0,.628,8.268c.205,1.809.356,3.893-.895,5.393-.608.729-1.634.8-2.123,1.651a2.633,2.633,0,0,0-.238,1.969c.582,2.191,3.475,3.218,5.382,3.79a22.705,22.705,0,0,0,9.3.741,17.77,17.77,0,0,0,11.381-5.833c1.673-1.941-1.144-4.782-2.829-2.828-3.278,3.8-8.051,5.141-12.9,4.785a19.175,19.175,0,0,1-5.186-1.17c.234.1-.3-.14-.347-.165-.154-.076-.306-.155-.454-.24-.253-.144-.81-.56-.417-.246-.057-.045-.243-.171-.257-.243-.061-.305.281.421.084.1a1.463,1.463,0,0,1-.03,1.3l-1.2.919c4.228-1.605,5.188-6.062,4.7-10.13-.538-4.506-1.381-9.126.852-13.339,1.205-2.273-2.246-4.3-3.454-2.019Z"/><path class="b" d="M94.352,26.373C90.972,12.276,76.53,1.233,61.4,2.058,45.959,1.216,31.235,12.734,28.254,27.245a40.949,40.949,0,0,0,.023,13.733l1.239,5.787a4.424,4.424,0,0,1,2.914.688C38,43.042,49.242,36.111,54.63,31.631c-.441,2.645-2.007,7.144-.034,6.682,8.243-1.846,16.143-5.568,20.9-11.387a54.95,54.95,0,0,0,3.9,10.1c1.778,2.943,6.951,9.761,11.469,10.355a4.416,4.416,0,0,1,2.912-.6,3.461,3.461,0,0,1,.527.116c2.425-5.553,1.2-14.96.24-19.648Q94.456,26.807,94.352,26.373Z"/><path class="c" d="M30.205,40.447a34.1,34.1,0,0,1-.268-11.156A25.9,25.9,0,0,1,33.6,19.11a31.811,31.811,0,0,1,17.737-13.8,38.844,38.844,0,0,1,11.691-1.3A29.476,29.476,0,0,1,74.231,6.3,31.734,31.734,0,0,1,90.6,21.707a34.454,34.454,0,0,1,2.833,11.336c.454,4.357.677,9.123-1.029,13.252a2.011,2.011,0,0,0,1.4,2.46,2.051,2.051,0,0,0,2.461-1.4c1.648-3.989,1.639-8.642,1.3-12.878a44.412,44.412,0,0,0-2.233-11.761A35.333,35.333,0,0,0,66.07.174,59.034,59.034,0,0,0,59.594.015a33.193,33.193,0,0,0-6.568.728A35.976,35.976,0,0,0,31.789,14.628a30.56,30.56,0,0,0-5.576,12.677,37.521,37.521,0,0,0,.135,14.2c.563,2.511,4.42,1.448,3.857-1.063Z"/><path class="c" d="M73.7,27.892c1.347,4.441,2.872,8.88,5.663,12.632,2.615,3.514,6.109,7.717,10.6,8.72,2.507.561,3.578-3.3,1.063-3.857-3.454-.771-6.442-4.437-8.5-7.27-2.451-3.382-3.772-7.32-4.975-11.288-.745-2.457-4.608-1.41-3.857,1.063Z"/><path class="c" d="M74.176,25.429A30.673,30.673,0,0,1,61.43,34.166Q59.5,34.916,57.5,35.5q-1,.294-2.014.549c-.331.083-.7.134-1.015.245l-.408.093a1.386,1.386,0,0,1,1.505.747c.2-.061-.149.671.054.025a3.665,3.665,0,0,0,.036-.614c.045-.407.14-.813.224-1.213.221-1.057.488-2.1.676-3.166a2.019,2.019,0,0,0-3.343-1.946C46.235,35.982,38.222,40.385,31.1,45.973a2.011,2.011,0,0,0,0,2.829,2.051,2.051,0,0,0,2.828,0c7.122-5.59,15.127-9.985,22.115-15.757L52.7,31.1c-.4,2.244-1.639,5.077-.9,7.345a2.735,2.735,0,0,0,3.323,1.8,39.639,39.639,0,0,0,5.026-1.382c6.332-2.084,12.545-5.4,16.85-10.6,1.629-1.97-1.186-4.815-2.828-2.829Z"/><path class="c" d="M91.763,49.172a2.213,2.213,0,0,1,3.13.412,4.724,4.724,0,0,1,.452,2.406,14.32,14.32,0,0,1-.2,2.954c-.64,3.51-2.412,7.725-6.315,8.424a2.018,2.018,0,0,0-1.4,2.46,2.045,2.045,0,0,0,2.461,1.4c6.054-1.085,8.944-7.915,9.4-13.4.236-2.839-.01-6.054-2.463-7.89a6.322,6.322,0,0,0-7.894.411,2.016,2.016,0,0,0,0,2.829,2.043,2.043,0,0,0,2.828,0Z"/><path class="c" d="M87.317,62.105a16.107,16.107,0,0,1-.939,4.339c-.063.191-.491,1.317-.223.709-.135.306-.276.607-.427.906a36.743,36.743,0,0,1-3.168,5.093c-2.746,3.766-6.476,7.758-11.177,8.861-2.506.588-1.445,4.446,1.063,3.857C78.12,84.539,82.52,79.9,85.858,75.383c2.881-3.9,5.258-8.321,5.459-13.278.1-2.574-3.9-2.569-4,0Z"/><path class="c" d="M34.231,46.343a6.325,6.325,0,0,0-7.894-.411c-2.455,1.829-2.7,5.056-2.464,7.89.456,5.487,3.346,12.318,9.4,13.4a2.055,2.055,0,0,0,2.46-1.4,2.017,2.017,0,0,0-1.4-2.46c-3.9-.7-5.674-4.915-6.315-8.424a14.294,14.294,0,0,1-.2-2.787A5.5,5.5,0,0,1,28.2,49.7a2.2,2.2,0,0,1,3.2-.527,2.057,2.057,0,0,0,2.829,0,2.017,2.017,0,0,0,0-2.829Z"/><path class="c" d="M32.049,61.882a33.418,33.418,0,0,0,7.126,16c4.015,4.753,9.33,8.177,15.587,8.852a2.012,2.012,0,0,0,2-2,2.046,2.046,0,0,0-2-2c-5.3-.573-9.731-3.986-13.021-8-3.253-3.964-4.964-8.93-5.835-13.921a2.016,2.016,0,0,0-2.46-1.4,2.044,2.044,0,0,0-1.4,2.46Z"/><path class="c" d="M56.228,71.388a12.083,12.083,0,0,0,5.82,1.358,9.592,9.592,0,0,0,5.984-1.812,2,2,0,0,0,0-2.829,2.062,2.062,0,0,0-2.828,0c.691-.538-.025-.012-.243.1-.169.089-.622.23.008.016-.158.054-.312.12-.472.172-.424.136-.911.149-1.322.3.211-.078.323-.039.024-.009-.13.013-.26.024-.39.032-.312.02-.626.028-.939.026q-.422,0-.841-.03c-.129-.009-.257-.019-.385-.032-.074-.007-.147-.015-.22-.024q-.235-.028.183.024c-.049.051-.552-.1-.633-.118q-.3-.067-.6-.156c-.173-.052-.341-.114-.512-.172-.449-.154.421.2.014.009q-.318-.15-.628-.313a2,2,0,1,0-2.018,3.454Z"/><path class="c" d="M60.775,58.009a25.965,25.965,0,0,1,.612,2.8l-.072-.531a1.662,1.662,0,0,1,.011.386l.071-.532a.959.959,0,0,1-.042.174l.2-.478a.674.674,0,0,1-.061.112l.313-.405a.56.56,0,0,1-.092.09l.405-.313a1.874,1.874,0,0,1-.221.118l.477-.2a1.628,1.628,0,0,1-.373.109l.532-.072a1.526,1.526,0,0,1-.351,0l.532.071c-.132-.018-.262-.05-.394-.068a1.526,1.526,0,0,0-.8-.036,1.492,1.492,0,0,0-.744.237,2,2,0,0,0-.717,2.737,1.913,1.913,0,0,0,1.2.919c.351.047.692.135,1.049.151a3.442,3.442,0,0,0,1.61-.393,2.442,2.442,0,0,0,1.32-1.6,3.772,3.772,0,0,0-.013-1.658c-.152-.9-.361-1.8-.593-2.679a2,2,0,0,0-2.46-1.4,2.022,2.022,0,0,0-1.2.92,2.1,2.1,0,0,0-.2,1.541Z"/><path class="c" d="M46.528,49.935c-.467,1.519-.163,5.011,2.714,5.308,3.8-.022,4-4.245,2.724-6.23C50.918,47.387,47.837,46.711,46.528,49.935Z"/><path class="c" d="M76.971,49.936c.467,1.518.163,5.01-2.713,5.307-3.8-.022-4-4.245-2.725-6.23C72.581,47.387,75.662,46.711,76.971,49.936Z"/><path class="d" d="M93.34,192.133c1.391,4.88,3.111,12.983,4.234,19.344,5.485,31.082.182,62.809-2.2,93.228-.161,2.05-.317,7.683-.47,9.732-8.116,0-49.712-1.454-67.427.072-.209-2.89-.427-6.914-.654-9.8-2.379-30.419-7.682-62.146-2.2-93.228,1.123-6.361,2.843-14.464,4.234-19.344L60.99,179.141Z"/><path class="a" d="M85.375,315.266c2.428,19.3-1.573,38.742-3.973,58.047-1.3,10.477-1.745,22.16,2.828,31.253.081.275.12.423.12.423.364,1.357.979,4.969-.218,5.706s-3.168.709-4.573.734c-6.1.105-12.553-4.492-15.975-7.536a.459.459,0,0,0-.369-.1c-.591-23.987-.6-47.987-.6-71.983,0-5.262,0-11.658,0-16.92"/><path class="a" d="M37.864,315.266c-2.428,19.3,1.573,38.742,3.973,58.047,1.3,10.477,1.745,22.16-2.829,31.253-.08.275-.119.423-.119.423-.364,1.357-.979,4.969.218,5.706s3.168.709,4.573.734c6.1.105,12.553-4.492,15.975-7.536a.457.457,0,0,1,.369-.1c.591-23.987.6-47.987.6-71.983,0-5.262,0-11.658,0-16.92"/><path class="c" d="M35.978,315.266c-1.74,14.142-.1,28.353,1.834,42.385.907,6.58,1.968,13.156,2.591,19.771a66.932,66.932,0,0,1-.107,16.5c-.9,5.8-3.007,11.365-7.149,15.634-1.794,1.848,1.032,4.68,2.828,2.828,8.1-8.344,9.382-20.458,8.7-31.544-.407-6.585-1.444-13.128-2.361-19.656-.993-7.067-1.98-14.14-2.562-21.255a121,121,0,0,1,.229-24.663,2.011,2.011,0,0,0-2-2,2.049,2.049,0,0,0-2,2Z"/><path class="c" d="M59.53,314.886c-.005,25.282.083,50.567-.337,75.847q-.183,11.063-.52,22.122c-.08,2.575,3.92,2.572,4,0,.81-26.1.848-52.207.853-78.314q0-9.828,0-19.655c0-2.574-4-2.579-4,0Z"/><path class="c" d="M83.375,315.266c1.786,14.517.017,29.1-1.994,43.5-1.7,12.141-4.183,24.7-2.061,36.952a31.306,31.306,0,0,0,8.057,16.667c1.8,1.851,4.623-.979,2.829-2.828-7.659-7.894-8.214-19.688-7.433-30.049,1.022-13.578,3.867-26.961,4.907-40.546a119.352,119.352,0,0,0-.305-23.695,2.063,2.063,0,0,0-2-2,2.012,2.012,0,0,0-2,2Z"/><path class="c" d="M26.934,191.6a181.224,181.224,0,0,0-6.677,46.18c-.274,16.915,1.471,33.77,3.1,50.582.843,8.71,1.5,17.419,2.123,26.146a2.026,2.026,0,0,0,2,2c9.423-.8,18.938-.732,28.387-.688,9.812.046,19.623.245,29.433.452,3.2.068,6.405.162,9.607.164a2.044,2.044,0,0,0,2-2c.191-2.686.238-5.383.371-8.073.188-3.787.585-7.569.935-11.344.805-8.69,1.719-17.371,2.442-26.069,1.452-17.464,2.093-35.058-.289-52.472a182.994,182.994,0,0,0-5.1-24.878c-.7-2.473-4.56-1.422-3.857,1.064a178.193,178.193,0,0,1,6.558,47.294c.107,17.386-1.821,34.691-3.467,51.975-.424,4.458-.892,8.923-1.169,13.393-.188,3.034-.211,6.078-.427,9.11l2-2c-17.63-.012-35.243-.848-52.878-.55-4.852.082-9.712.211-14.549.622l2,2c-.545-7.613-1.078-15.214-1.8-22.813-.791-8.3-1.645-16.6-2.3-24.912-1.33-16.758-1.929-33.755.491-50.446a185.048,185.048,0,0,1,4.928-23.673c.7-2.482-3.157-3.541-3.857-1.064Z"/><path class="e" d="M20.318,436.423q-.165-.216-.312-.446a8.358,8.358,0,0,1-.553-7.006,22.939,22.939,0,0,1,3.595-6.273q5.2-7.107,11-13.756c1.507-1.727,3.209-3.528,5.461-3.953-.363,1.357-.908,4.71.288,5.446s3.021.735,4.426.76c6.152.107,12.726-4.3,16.14-7.381.233-.21.667.084.67.418.031,3.963.364,5.676.344,10.055a10.082,10.082,0,0,1-.762,3.39c-.975,2.639-3.869,3.91-6.191,5.5-6.041,4.134-9.222,11.676-15.552,15.351a16.344,16.344,0,0,1-15.108.542A9.545,9.545,0,0,1,20.318,436.423Z"/><path class="e" d="M103.542,436.423q.165-.216.312-.446a8.362,8.362,0,0,0,.553-7.006,22.939,22.939,0,0,0-3.595-6.273q-5.2-7.107-11-13.756c-1.506-1.727-3.208-3.528-5.461-3.953.364,1.357.979,4.969-.218,5.706s-3.168.709-4.573.734c-6.1.105-12.553-4.492-15.975-7.536-.265-.236-.755-.058-.759.246-.046,3.986-.517,5.4-.5,9.815a12.272,12.272,0,0,0,.916,3.723c.976,2.639,3.87,3.91,6.191,5.5,6.041,4.134,9.223,11.676,15.553,15.351a16.342,16.342,0,0,0,15.107.542A9.54,9.54,0,0,0,103.542,436.423Z"/><path class="c" d="M22.045,435.414c-1.631-2.23-1.232-5.047-.048-7.4a52.085,52.085,0,0,1,5.49-7.931q3.032-3.954,6.267-7.746c1.712-2.014,3.554-4.809,6.287-5.423l-2.46-2.461c-.52,2.026-1.029,4.858.2,6.726,1.579,2.392,5.88,2.2,8.369,1.905,5.866-.7,11.282-3.988,15.623-7.86l-.883.514.2-.07H60.034l.219.076-.883-.515.176.177-.515-.882a11.679,11.679,0,0,1,.084,2.59c.042.882.1,1.764.146,2.646.107,1.993.392,4.2-.158,6.137a6.716,6.716,0,0,1-3.268,4,39.993,39.993,0,0,0-4.695,3.312c-5.59,4.871-9.015,12.974-16.7,14.981-4.212,1.1-9.813.374-12.7-3.188a2.013,2.013,0,0,0-2.828,0,2.046,2.046,0,0,0,0,2.828c2.178,2.683,5.788,4.12,9.133,4.6A18.708,18.708,0,0,0,38.629,440.9c5.881-2.721,9.186-8.573,13.5-13.088A21.378,21.378,0,0,1,55.58,424.8c1.239-.836,2.544-1.563,3.734-2.471,3.06-2.334,4.107-5.654,4.057-9.413-.019-1.492-.1-2.98-.185-4.469-.087-1.532.152-3.4-.261-4.869a2.52,2.52,0,0,0-1.718-1.729,2.663,2.663,0,0,0-2.588.839,34.378,34.378,0,0,1-3.282,2.492c-3.043,2.015-6.623,3.851-10.343,4a18.59,18.59,0,0,1-2.67-.062,9.4,9.4,0,0,1-1.1-.218c-.777-.179.005-.207-.066.145.1-.512-.1-1.28-.039-1.86a11.842,11.842,0,0,1,.32-1.669,2.023,2.023,0,0,0-2.46-2.461c-3.455.778-5.719,3.713-7.9,6.271q-3.795,4.455-7.336,9.116c-3.858,5.058-9.873,12.535-5.153,18.985a2.059,2.059,0,0,0,2.736.718A2.015,2.015,0,0,0,22.045,435.414Z"/><path class="c" d="M105.269,437.432c4.721-6.451-1.3-13.928-5.153-18.985q-3.549-4.653-7.336-9.116c-2.179-2.558-4.443-5.493-7.9-6.271a2.023,2.023,0,0,0-2.46,2.461,10.132,10.132,0,0,1,.406,3.3,2.313,2.313,0,0,1-.08.511c-.143-.065.852-.388.083-.219a11.622,11.622,0,0,1-2.225.3,17.719,17.719,0,0,1-9.378-2.487,35.348,35.348,0,0,1-4.132-2.709c-1.061-.805-2.313-2.415-3.742-2.425-2.4-.016-2.493,2.176-2.574,3.971-.064,1.417-.215,2.827-.319,4.242-.243,3.335-.277,7,1.693,9.9,1.822,2.676,4.9,3.794,7.321,5.79,4.955,4.1,7.962,10.053,13.277,13.78a18.065,18.065,0,0,0,11.336,3.158c3.912-.239,8.318-1.65,10.868-4.791a2.059,2.059,0,0,0,0-2.828,2.014,2.014,0,0,0-2.828,0c-2.551,3.141-7.352,4.09-11.193,3.508-4-.607-7.119-2.91-9.79-5.828-2.609-2.85-4.811-6.066-7.618-8.736a29.458,29.458,0,0,0-4.738-3.567c-1.342-.84-2.929-1.734-3.616-3.241-1-2.191-.892-4.467-.735-6.81.06-.9.149-1.8.221-2.7.04-.5.076-1.006.1-1.509a6.375,6.375,0,0,1,.075-1.654l-.919,1.195.2-.125-1.009.273.247-.025-1.009-.273a7.187,7.187,0,0,1,1.244.993q.873.7,1.775,1.373a35.93,35.93,0,0,0,3.673,2.4,23.121,23.121,0,0,0,8.992,3.082c2.4.243,6.606.412,8.1-1.911,1.253-1.944.686-4.9.148-6.993l-2.46,2.461c2.669.6,4.457,3.275,6.133,5.242q3.306,3.883,6.421,7.927a54.253,54.253,0,0,1,5.392,7.742c1.242,2.395,1.735,5.282.05,7.585a2.015,2.015,0,0,0,.717,2.736A2.046,2.046,0,0,0,105.269,437.432Z"/><path class="d" d="M27.1,210.525c-1.594-.141-3-.316-4.1-.513-.256,2.3-.5,4.405-.5,4.405-5.626-.474-15.407-1.34-19.988-1.846C3.232,198.136,7.159,129.1,9.5,120.142a19.431,19.431,0,0,1,2.993-7.09,18.66,18.66,0,0,1,3.082-2.993c8-6.542,22.311-13,26.034-17.1.541,2.583,2.9,10.4,5.621,19.474,3.687,12.3,9.531,23.92,13.844,32.28.674-1.46,1.094-2.365,1.094-2.365,3.523-7.609,7.506-15.677,12.5-28.688a149.723,149.723,0,0,0,6.192-20.723c3.678,4.092,18.04,10.562,26.06,17.12a18.66,18.66,0,0,1,3.082,2.993,19.431,19.431,0,0,1,2.993,7.09c2.337,8.963,6.038,74.514,6.976,92.429-4.581.506-14.362,1.372-19.988,1.846,0,0-.232-2.077-.485-4.413-6.2,1.058-20.982,1.506-26.028-.754-6.576-2.945-11.307-22.666-11.838-27.347l-.289-2.55-.533,3.081c-1.941,11.217-5.945,25.165-11.3,27.121C45.194,211.13,34.25,211.16,27.1,210.525Z"/><path class="a" d="M106.691,215.1c-1.547,6.538-1.406,14.413-1.943,21.11-.139,1.732,1.057,2.787,2.312,1.586.6-.575,3.206-3.552,3.962-4.149,0,2.767.083,3.272.015,5.119-.216,5.905-.46,7.619-.866,11.543-.174,1.687-.1,3,.331,3.307,1.523,1.1,3.4,1.448,4.892.114a11.552,11.552,0,0,0,3.262-4.993,64.078,64.078,0,0,0,1.6-9.315,33.8,33.8,0,0,0-.837-8.99c-1.418-6.135-2.913-9.035-3.019-15.332"/><path class="c" d="M104.763,214.571c-1.573,6.823-1.455,13.869-1.952,20.815-.116,1.613-.007,3.357,1.463,4.363a3.307,3.307,0,0,0,4.2-.537c1.4-1.3,2.491-2.922,3.961-4.149l-3.414-1.414c.007,4.34-.05,8.648-.468,12.974a28.724,28.724,0,0,0-.393,6.277c.328,2.567,3.105,3.892,5.522,3.661,2.717-.259,4.763-2.774,5.942-5.05a18.442,18.442,0,0,0,1.656-5.287,40.047,40.047,0,0,0,.66-13.037c-.841-6.142-3.395-11.827-3.537-18.085-.058-2.57-4.058-2.579-4,0,.108,4.743,1.358,9.1,2.544,13.649a32.575,32.575,0,0,1,1.062,12.865c-.463,3.164-.752,6.828-2.806,9.433-.444.565-1.115,1.454-1.881,1.546-.441.053-.737-.18-1.139-.28l-.341-.2.313.506c-.061.013-.07-.62-.071-.65a41.106,41.106,0,0,1,.481-5.481c.41-4.283.463-8.546.456-12.842a2.026,2.026,0,0,0-3.414-1.415,38.958,38.958,0,0,0-3.36,3.521c-.095.1-.544.441-.559.586.049-.484,1.167.292,1.089.411.066-.1-.024-.577-.014-.746.078-1.34.18-2.679.248-4.02.278-5.465.373-11,1.608-16.352.577-2.5-3.279-3.575-3.857-1.063Z"/><path class="a" d="M15.792,215.1c1.547,6.538,1.406,14.413,1.943,21.11.139,1.732-1.057,2.787-2.312,1.586-.6-.575-3.206-3.552-3.962-4.149,0,2.767-.083,3.272-.015,5.119.217,5.905.46,7.619.866,11.543.175,1.687.1,3-.331,3.307-1.523,1.1-3.4,1.448-4.892.114a11.552,11.552,0,0,1-3.262-4.993,64.078,64.078,0,0,1-1.6-9.315,33.8,33.8,0,0,1,.837-8.99C4.478,224.3,5.973,221.4,6.079,215.1"/><path class="c" d="M13.583,215.634c1.235,5.356,1.33,10.887,1.608,16.352.064,1.272.148,2.543.232,3.814,0-.028.008.862.021.875q-.1.307.264-.228l.849-.064c.006-.107-.443-.458-.526-.547a40.755,40.755,0,0,0-3.436-3.6,2.027,2.027,0,0,0-3.414,1.415c-.007,3.89.022,7.751.347,11.633.136,1.625.326,3.245.487,4.868.054.543.1,1.086.1,1.633a3.159,3.159,0,0,0-.011.6l-.03.121q-.132.462.284-.386a5.24,5.24,0,0,1-1.118.473,1.547,1.547,0,0,1-1.308-.539c-2.621-2.377-3.04-5.977-3.564-9.272a31.162,31.162,0,0,1,.393-12.045C5.985,225.489,7.675,220.545,7.8,215.1c.058-2.575-3.942-2.574-4,0-.124,5.478-2.08,10.425-3.15,15.735a37.329,37.329,0,0,0,.012,13.906c.69,4.106,1.855,8.946,5.8,11.188,2.076,1.18,5.821.734,7.122-1.49,1.079-1.844.41-4.49.2-6.489a135.007,135.007,0,0,1-.6-14.3l-3.414,1.414c1.471,1.227,2.551,2.863,3.961,4.149a3.312,3.312,0,0,0,4.2.537c1.467-1,1.579-2.751,1.463-4.363-.5-6.946-.379-13.991-1.952-20.815-.578-2.508-4.435-1.446-3.857,1.063Z"/><path class="c" d="M13.863,215.634c1.235,5.356,1.33,10.887,1.608,16.352.065,1.272.148,2.543.232,3.814,0-.028.008.862.021.875q-.1.307.264-.228l.849-.064c.006-.107-.443-.458-.525-.547a41.048,41.048,0,0,0-3.436-3.6,2.028,2.028,0,0,0-3.415,1.415c-.006,3.89.022,7.751.347,11.633.136,1.625.326,3.245.487,4.868.054.543.1,1.086.1,1.633a3.244,3.244,0,0,0-.011.6l-.03.121q-.132.462.284-.386a5.24,5.24,0,0,1-1.118.473,1.547,1.547,0,0,1-1.308-.539c-2.621-2.377-3.04-5.977-3.563-9.272a31.142,31.142,0,0,1,.392-12.045c1.223-5.244,2.913-10.188,3.036-15.631.058-2.575-3.942-2.574-4,0C3.955,220.58,2,225.527.93,230.837a37.308,37.308,0,0,0,.011,13.906c.69,4.106,1.855,8.946,5.8,11.188,2.076,1.18,5.821.734,7.122-1.49,1.079-1.844.41-4.49.2-6.489a135.007,135.007,0,0,1-.6-14.3l-3.414,1.414c1.471,1.227,2.551,2.863,3.961,4.149a3.313,3.313,0,0,0,4.2.537c1.467-1,1.579-2.751,1.463-4.363-.5-6.946-.379-13.991-1.951-20.815-.578-2.508-4.436-1.446-3.858,1.063Z"/><path class="c" d="M44.493,96.639a20.985,20.985,0,0,0,3.27-1.229,5.52,5.52,0,0,0,2.62-3.155,19.727,19.727,0,0,0,.6-3.272,41.09,41.09,0,0,0,.524-5.612,2,2,0,0,0-4,0q-.023,1.223-.127,2.44-.048.552-.114,1.1c-.006.053-.068.543-.048.394s-.05.341-.058.394a30.485,30.485,0,0,1-.537,3.151c-.025.095-.052.191-.082.285-.024.072-.149.409-.025.092.152-.386-.241.39-.242.385-.028-.084.328-.348.034-.068-.029.028-.192.236-.238.227q.311-.228.127-.1c-.06.043-.122.085-.185.124-.112.07-.228.134-.345.195-.137.071-.338.151-.083.051-.091.036-.184.07-.276.1-.166.059-.333.114-.5.17-.461.155-.923.308-1.383.464a2,2,0,0,0,1.063,3.857Z"/><path class="c" d="M72.256,83.215a49.985,49.985,0,0,0,.724,6.925,7.616,7.616,0,0,0,1.53,4.093,8.382,8.382,0,0,0,3.552,2.031c.926.36,1.856.712,2.775,1.087a2.007,2.007,0,0,0,2.461-1.4,2.061,2.061,0,0,0-1.4-2.46c-.813-.331-1.635-.643-2.453-.961-.345-.135-.69-.27-1.036-.4-.079-.03-.159-.057-.237-.089.337.14-.2-.116-.267-.153-.113-.066-.536-.421-.175-.09-.1-.1-.2-.2-.305-.293-.3-.285.181.337-.01-.014-.06-.111-.124-.223-.186-.334-.185-.329.108.423-.008-.051-.035-.145-.084-.287-.118-.433-.133-.572-.2-1.158-.292-1.736a39.463,39.463,0,0,1-.558-5.723,2,2,0,0,0-4,0Z"/><path class="c" d="M44.842,107.558c4.28,2.042,9.358,2.709,14.028,2.962,6.278.341,13.068-.179,18.973-2.521a2.06,2.06,0,0,0,1.4-2.46,2.014,2.014,0,0,0-2.46-1.4c-5.479,2.173-11.636,2.669-17.47,2.4a42.947,42.947,0,0,1-9.383-1.417c-.86-.235-1.714-.5-2.549-.814-.247-.093-.932-.379-.281-.1-.079-.033-.158-.068-.236-.105-2.312-1.1-4.344,2.344-2.019,3.454Z"/><path class="c" d="M104.912,110.059c-.005.042-.051.353-.131.8s-.169.894-.263,1.339c-.221,1.045-.47,2.084-.729,3.12-.587,2.352-1.23,4.689-1.874,7.025-1.235,4.475-2.582,8.948-3.5,13.5-1,4.958-1.386,10.1-2.025,15.11-.958,7.5-1.922,15.011-2.783,22.528a47.173,47.173,0,0,0-.58,5.865,44.061,44.061,0,0,0,1.008,6.575c1.645,9.647,3.443,19.271,4.94,28.943a2.014,2.014,0,0,0,2.46,1.4,2.049,2.049,0,0,0,1.4-2.46c-1.341-8.666-2.93-17.3-4.423-25.937q-.462-2.67-.911-5.343-.153-.919-.3-1.84c-.04-.253-.079-.507-.118-.76-.084-.549-.021-.2-.018-.113a33.857,33.857,0,0,1,.343-4.535q2.031-18.45,4.59-36.861c-.05.357.117-.671.149-.841.1-.539.211-1.075.328-1.61.257-1.17.544-2.333.841-3.493.694-2.709,1.446-5.4,2.192-8.1,1.3-4.7,2.807-9.458,3.406-14.315a2.01,2.01,0,0,0-2-2,2.049,2.049,0,0,0-2,2Z"/><path class="c" d="M79.67,94.607c3.534,3.525,8.427,5.855,12.691,8.346,2.728,1.595,5.453,3.2,8.1,4.925a39.8,39.8,0,0,1,7.276,5.611c2.561,2.7,3.367,6.707,3.895,10.3.04.273.078.547.116.82.069.5-.06-.461.007.052.019.152.039.3.059.455q.136,1.075.259,2.153c.186,1.626.353,3.254.511,4.883,1.813,18.618,2.892,37.317,4,55.988q.726,12.213,1.375,24.431l2-2c-6.65.729-13.322,1.283-19.988,1.846-2.547.215-2.57,4.217,0,4,6.666-.563,13.338-1.117,19.988-1.846a2.036,2.036,0,0,0,2-2q-.561-10.709-1.2-21.412Q119.9,176.324,118.9,161.5c-.623-9.13-1.277-18.261-2.124-27.374-.567-6.093-.787-12.678-3.089-18.428-2.5-6.252-8.894-9.921-14.4-13.283C94.351,99.4,89.13,96.76,84.428,93.388a14.7,14.7,0,0,1-1.93-1.61c-1.825-1.82-4.654,1.008-2.828,2.829Z"/><path class="c" d="M13.571,110.059a89.928,89.928,0,0,0,2.964,12.711c1.249,4.539,2.607,9.069,3.579,13.678.094.445.183.891.263,1.339a6.013,6.013,0,0,0,.11.63c.032.229.057.459.085.689q.158,1.242.319,2.484.6,4.684,1.2,9.369c.95,7.441,1.9,14.883,2.761,22.336a52.517,52.517,0,0,1,.6,5.984c0,.18-.028.356-.032.534,0,.074.083-.545,0,0-.046.29-.088.58-.133.869-.232,1.473-.483,2.942-.734,4.412-1.631,9.569-3.41,19.116-4.895,28.709a2.063,2.063,0,0,0,1.4,2.46,2.014,2.014,0,0,0,2.46-1.4c1.342-8.666,2.928-17.3,4.419-25.937.518-3,1.162-6.016,1.479-9.044a20.588,20.588,0,0,0-.3-4.282c-1.346-12.36-3.033-24.684-4.605-37.016-.619-4.858-2.105-9.607-3.406-14.315-.759-2.743-1.525-5.485-2.229-8.243-.293-1.152-.577-2.308-.83-3.47-.108-.5-.211-.991-.3-1.489-.038-.206-.072-.413-.109-.619-.021-.129-.041-.258-.061-.388q.042.338,0-.008a2.064,2.064,0,0,0-2-2,2.011,2.011,0,0,0-2,2Z"/><path class="c" d="M39.985,91.778a28.826,28.826,0,0,1-5.359,3.859c-2.632,1.624-5.322,3.153-7.988,4.721-2.869,1.688-5.726,3.4-8.469,5.291-2.769,1.9-5.7,3.965-7.662,6.739-2.179,3.088-3.041,7-3.562,10.7-.442,3.138-.771,6.292-1.074,9.446C5,141.563,4.346,150.609,3.717,159.654Q2.679,174.582,1.8,189.521,1.164,200.287.6,211.057q-.039.758-.076,1.514a2.046,2.046,0,0,0,2,2c6.65.729,13.322,1.283,19.988,1.846,2.565.216,2.551-3.785,0-4-6.666-.563-13.338-1.117-19.988-1.846l2,2c.318-6.446.689-12.891,1.065-19.334q.851-14.542,1.823-29.079c.631-9.337,1.295-18.674,2.127-27.995.3-3.407.626-6.813,1.036-10.208q.06-.5.124-1l.057-.438c.062-.479-.035.243.013-.1.076-.538.152-1.077.239-1.613a28.146,28.146,0,0,1,.643-2.97,17.509,17.509,0,0,1,2.073-5.078,16.667,16.667,0,0,1,3.78-3.7,78.209,78.209,0,0,1,7.719-5.192c5.036-3.074,10.408-5.748,15.168-9.252a21.107,21.107,0,0,0,2.426-2.008c1.825-1.82-1-4.649-2.828-2.829Z"/><path class="c" d="M58.413,160.229a5.716,5.716,0,0,0-.753-2.883,4.974,4.974,0,0,0-2.78-2.156,5.445,5.445,0,0,0-6.357,2.259,5.908,5.908,0,0,0-.006,5.782,5.552,5.552,0,0,0,6.246,2.3,5.363,5.363,0,0,0,3.65-5.3,2,2,0,0,0-4,0,4.914,4.914,0,0,1-.044.619l.072-.531a4.461,4.461,0,0,1-.208.851c-.147.41.209-.434.069-.156-.032.063-.062.127-.095.189-.061.111-.37.543-.115.214s-.1.09-.186.17c-.145.131-.309.163.174-.126-.077.046-.147.1-.225.145-.055.032-.212.078-.245.127.052-.076.537-.2.171-.084a3.47,3.47,0,0,1-.611.133l.532-.071a4.771,4.771,0,0,1-1.114-.011l.532.071a4.052,4.052,0,0,1-.634-.139c-.082-.026-.161-.062-.243-.088.592.187.334.145.178.063-.093-.05-.183-.1-.271-.163-.153-.1-.268-.3.161.13-.113-.113-.231-.218-.341-.335-.261-.276.286.416.115.152-.038-.059-.078-.117-.114-.177-.065-.109-.284-.588-.115-.19s-.019-.087-.048-.2a3.59,3.59,0,0,1-.086-.437l.071.532a4.378,4.378,0,0,1,.015-1.079l-.072.532a4.843,4.843,0,0,1,.23-.926c.108-.311-.225.466-.079.193.037-.067.07-.136.109-.2s.081-.129.122-.193c.17-.275-.373.415-.1.133.108-.112.219-.214.331-.321.142-.136-.478.313-.151.127.07-.04.137-.085.208-.123s.382-.174.025-.023-.039.023.045,0a3.923,3.923,0,0,1,.587-.132l-.532.071a4.5,4.5,0,0,1,1.136,0l-.532-.072a4.228,4.228,0,0,1,.557.113c.085.024.168.054.252.081.327.1-.447-.222-.169-.069.14.078.27.165.407.246-.517-.308-.3-.244-.169-.12.065.058.122.123.184.184.259.257-.236-.348-.129-.177.039.061.084.119.122.181.056.091.281.577.113.179s.024.1.052.2a4.079,4.079,0,0,1,.093.463l-.071-.532a4.9,4.9,0,0,1,.039.58,2,2,0,0,0,4,0Z"/><path class="c" d="M35.045,112.381a28.511,28.511,0,0,0-2.405,2.745,9.759,9.759,0,0,0-2.02,2.966c-.4,1.366.884,2.741,1.6,3.778,3.637,5.289,7.415,10.483,11.185,15.678q4.225,5.82,8.5,11.6a2.063,2.063,0,0,0,2.737.717,2.014,2.014,0,0,0,.717-2.736q-6.792-9.171-13.443-18.446-2.5-3.489-4.971-7-.822-1.173-1.632-2.357a10.615,10.615,0,0,0-.908-1.375c-.037-.038-.065-.167-.112-.193.308.173-.479,2.164.15,1.576a10.327,10.327,0,0,0,.848-1.159,28.7,28.7,0,0,1,2.582-2.967c1.86-1.788-.971-4.614-2.828-2.829Z"/><path class="c" d="M42.247,90.914c-1.6.092-2.812,1.355-3.829,2.476A52.507,52.507,0,0,0,34.3,98.711a64.116,64.116,0,0,0-3.488,5.532A18.863,18.863,0,0,0,29.57,106.8a2.509,2.509,0,0,0,.391,2.491,38.525,38.525,0,0,0,5.084,5.921c1.869,1.768,4.7-1.055,2.828-2.829a36.561,36.561,0,0,1-2.7-2.91c-.793-.931-1.27-1.595-1.912-2.421-.315-.406-.416-1.338.062,1.059.079-.2.064-.162-.045.1.04-.092.081-.183.123-.274.2-.417.4-.833.624-1.242.529-.988,1.1-1.95,1.7-2.9a66.281,66.281,0,0,1,4.2-6.009,25.773,25.773,0,0,1,2.046-2.322c.143-.14.293-.271.438-.409.413-.393-.122.135.088-.081.087-.089.271-.117.344-.21-.147.186-.336.136-.59.15,2.559-.146,2.576-4.147,0-4Z"/><path class="c" d="M39.667,93.446c1.241,5.887,3.275,11.667,5,17.422a168.746,168.746,0,0,0,8.578,22.519c2.7,5.834,5.708,11.514,8.625,17.243a18.583,18.583,0,0,1,1.466,4.569,8.9,8.9,0,0,1,.281,2.746c-.014.166-.071.549-.016.158q-.038.269-.08.535c-.076.488-.16.973-.247,1.458-.209,1.164-.438,2.324-.672,3.483-1.2,5.93-2.6,11.827-3.612,17.792a2.059,2.059,0,0,0,1.4,2.46,2.016,2.016,0,0,0,2.46-1.4c.912-5.375,2.151-10.7,3.253-16.035.465-2.255.943-4.513,1.293-6.79a15.727,15.727,0,0,0,.273-2.309,19.822,19.822,0,0,0-.923-4.991,40.978,40.978,0,0,0-3.639-8.007c-1.517-2.937-3.021-5.882-4.467-8.855a161.808,161.808,0,0,1-9.011-22.009c-1.365-4.328-2.628-8.692-3.907-13.047-.777-2.648-1.626-5.305-2.2-8.008-.531-2.518-4.387-1.452-3.857,1.063Z"/><path class="c" d="M85.889,114.828c.824.755,1.581,1.588,2.331,2.414q.591.653,1.161,1.321c.335.392.2.1.409.56l-.2-1.541c.16-.733.269-.478.062-.249-.128.141-.231.32-.344.473-.177.239-.358.475-.538.711l-.312.407c-.05.065-.225.292.015-.019l-.213.276q-2.242,2.885-4.522,5.742-6.516,8.2-13.134,16.319-3.755,4.609-7.55,9.187c-1.634,1.966,1.181,4.811,2.828,2.828q8.466-10.186,16.725-20.545,3.429-4.279,6.826-8.586a58.151,58.151,0,0,0,3.656-4.751c.838-1.329.135-2.41-.732-3.467A38.1,38.1,0,0,0,88.718,112c-1.894-1.737-4.731,1.084-2.829,2.829Z"/><path class="c" d="M80.79,95.237c-.091,0-.6-.111-.274-.022-.2-.053-.421-.249-.164-.058a2.843,2.843,0,0,0,.268.166c.406.231-.119-.123.1.065.527.454,1.031.926,1.515,1.426a51.684,51.684,0,0,1,3.676,4.309c1.05,1.357,2.212,2.98,3.19,4.521.4.631.789,1.272,1.134,1.936.078.15.147.305.226.455.023.044.047.15.084.182-.218-.191-.012-.834,0-.907.172-1.091.022-.506-.283-.091.232-.315-.121.15-.2.246-.162.2-.327.4-.493.6q-.567.675-1.155,1.332a34.686,34.686,0,0,1-2.526,2.6c-1.908,1.737.928,4.559,2.829,2.829a40.393,40.393,0,0,0,4.585-5.055c.642-.824,1.356-1.686,1.016-2.814a11.079,11.079,0,0,0-1.116-2.274A57.819,57.819,0,0,0,85.264,94.2c-1.181-1.243-2.643-2.861-4.474-2.958-2.573-.137-2.565,3.864,0,4Z"/><path class="c" d="M78.861,92.705c-2.944,13.819-8.423,27.006-14.308,39.8-1.358,2.952-2.75,5.889-4.116,8.837a2.057,2.057,0,0,0,.717,2.736,2.016,2.016,0,0,0,2.737-.717C70,130.178,76.248,116.985,80.335,103c.892-3.049,1.721-6.126,2.383-9.234.535-2.511-3.32-3.584-3.857-1.064Z"/><path class="c" d="M21.977,211.846a64.68,64.68,0,0,0,10.33.994,87.725,87.725,0,0,0,11.847-.265c3.15-.314,6.464-.68,8.832-2.993,2.825-2.76,4.4-6.806,5.69-10.449a99.346,99.346,0,0,0,4.054-16.167,2.057,2.057,0,0,0-1.4-2.46,2.017,2.017,0,0,0-2.46,1.4,108.343,108.343,0,0,1-3.215,13.644c-1.1,3.52-2.375,7.354-4.681,10.3a7.945,7.945,0,0,1-1.323,1.364,4.356,4.356,0,0,1-1.031.537,22.99,22.99,0,0,1-3.906.77,82,82,0,0,1-11.1.363,63.283,63.283,0,0,1-10.573-.891c-2.514-.5-3.59,3.354-1.063,3.858Z"/><path class="c" d="M99.723,207.933a64.448,64.448,0,0,1-11.2.925,50.879,50.879,0,0,1-12.361-.844c-.362-.085-.722-.178-1.077-.288-.12-.037-.925-.343-.616-.2a4.407,4.407,0,0,1-1.436-.971,14.817,14.817,0,0,1-2.756-3.8,54.71,54.71,0,0,1-4.391-11.139q-.861-2.916-1.533-5.885c-.182-.812-.353-1.627-.5-2.446-.061-.33-.115-.66-.171-.991-.016-.1-.029-.193-.045-.29-.065-.4.055.465-.012-.1a2.061,2.061,0,0,0-2-2,2.012,2.012,0,0,0-2,2,62.952,62.952,0,0,0,2.091,9.678,65.29,65.29,0,0,0,4.664,12.357c1.632,3.149,3.775,6.3,7.256,7.518,4.021,1.408,8.7,1.408,12.913,1.418a72.381,72.381,0,0,0,14.238-1.084c2.523-.5,1.455-4.36-1.063-3.857Z"/></svg>