<?xml version="1.0" encoding="utf-8"?>
<!-- Uploaded to: SVG Repo, www.svgrepo.com, Generator: SVG Repo Mixer Tools -->
<svg width="800px" height="800px" viewBox="0 -52.88 457.739 457.739" xmlns="http://www.w3.org/2000/svg"><defs><style>.a{fill:#ffffff;}.b{fill:#957f6e;}.c{fill:#211715;}.d{fill:#7a7473;}.e{fill:#bdbdbd;}.f{fill:#79c6e0;}.g{fill:#e2e2e2;}.h{fill:#c62722;}</style></defs><path class="a" d="M369.842,125.841a6.617,6.617,0,0,1,5.294-1.549,6.251,6.251,0,0,1,4.491,2.986,8.836,8.836,0,0,1,.925,3.553,26.473,26.473,0,0,1-2.7,14.03,16.813,16.813,0,0,1-4.35,5.708,11.143,11.143,0,0,1-5.186,2.338l-.888.137c-.425,1.593-.9,2.935-1.138,3.648-1.428,3.874-9.057,16.761-18.87,22.533a6.041,6.041,0,0,0,3.391,2.525c.271.1,7.593,2.962,8.452,3.327-9.982,7.26-19.444,12.009-31.455,12.131-13.122.133-24.906-3.37-32.8-12.13l.695-.3c.511-.219,6.594-2.931,6.87-3.031a6.845,6.845,0,0,0,2.716-1.645,39.074,39.074,0,0,1-12.437-10.194,45.017,45.017,0,0,1-8.578-16.743l-1.691-.261a11.143,11.143,0,0,1-5.186-2.338,16.813,16.813,0,0,1-4.35-5.708,26.473,26.473,0,0,1-2.7-14.03,8.852,8.852,0,0,1,.925-3.553,6.251,6.251,0,0,1,4.491-2.986,6.617,6.617,0,0,1,5.294,1.549s-7.864-39.527,41.469-39.527S369.842,125.841,369.842,125.841Z"/><path class="a" d="M197.4,193.4c16.5-18.311,27.05-43.146,27.05-73.658C224.451,43.205,176.193,2.4,113.443,2.4S2.435,43.205,2.435,119.737c0,69.99,55.5,110.118,111.008,110.118a115.547,115.547,0,0,0,66.976-21.3c6.405,3.622,22.075,11.713,29.477,15.058C206.256,213.791,201.5,202.546,197.4,193.4Z"/><path class="b" d="M289.084,188.022c6.209-.945,11.48-3.948,13.82-7.458l.813-1.305a40.346,40.346,0,0,1-10.865-9.348,45.024,45.024,0,0,1-8.579-16.746l-1.69-.258a11.143,11.143,0,0,1-5.186-2.338,13.65,13.65,0,0,1-1.8-1.77,22.038,22.038,0,0,0-2.23,7.37,36,36,0,0,0-.249,4.913q.009.5.037,1c.195,3.583,1.031,7.233,1.208,10.8.18,3.889-.832,7.718-4.541,8.977-.147.05-.176.525-.172.645a1.689,1.689,0,0,0,.3.831,5.743,5.743,0,0,0,1.9,1.668A26.388,26.388,0,0,0,289.084,188.022Z"/><path class="b" d="M376.822,96.644c-.167-.976-.338-1.879-.5-2.691-4.6-22.56-27.322-40.467-51.151-39.159-23.828-1.308-46.55,16.6-51.151,39.159-1.246,6.084-1.1,16.494.037,21.351l2.281,8.936a6.569,6.569,0,0,1,4.724,1.6c9.417-6.533,25.391-17.881,33.663-24.994-.681,4.222-3.1,11.4-.053,10.665,12.715-2.944,24.9-8.881,32.27-18.144,1.553,5.469,4.119,12.858,6,16.087,2.668,4.569,10.4,14.849,16.9,16.386a6.617,6.617,0,0,1,5.294-1.549,6.415,6.415,0,0,1,.825.18C379.272,116.8,378.156,104.419,376.822,96.644Z"/><path class="c" d="M276.342,114.859c-1.2-5.312-1.045-11.567-.478-17.139a40.952,40.952,0,0,1,5.562-16.361,49.88,49.88,0,0,1,27.745-22.1,45,45,0,0,1,8.791-1.881c3.118-.325,6.252-.226,9.379-.246a45.849,45.849,0,0,1,17.843,3.584,49.784,49.784,0,0,1,25.685,24.362,52.364,52.364,0,0,1,4.207,15.99c.757,6.094,1.192,12.572-.131,18.619a23.9,23.9,0,0,1-1.266,4.076,2.415,2.415,0,0,0,1.676,2.952,2.46,2.46,0,0,0,2.952-1.676c2.535-6.1,2.5-13.243,2-19.72a69.139,69.139,0,0,0-3.375-18.057,53.746,53.746,0,0,0-25.7-28.982,52.594,52.594,0,0,0-19.037-5.719,90.99,90.99,0,0,0-9.923-.228A49.771,49.771,0,0,0,312.2,53.482a54.8,54.8,0,0,0-32.437,21.626A48.159,48.159,0,0,0,271.811,92.8a61.258,61.258,0,0,0-.723,19.33,35.814,35.814,0,0,0,.625,4.005c.681,3.012,5.31,1.738,4.629-1.276Z"/><path class="c" d="M344.812,94.669c2.024,6.915,4.3,13.882,8.549,19.772a57.127,57.127,0,0,0,7.1,8.266c2.485,2.334,5.382,4.6,8.747,5.448,3,.758,4.274-3.87,1.276-4.628-2.645-.669-5.074-2.694-7.127-4.691a52.3,52.3,0,0,1-6.2-7.3c-3.841-5.433-5.862-11.8-7.716-18.138-.867-2.958-5.5-1.7-4.629,1.276Z"/><path class="c" d="M345.369,91.509a45.423,45.423,0,0,1-15.441,12.1,65.642,65.642,0,0,1-9.373,3.793q-2.539.816-5.129,1.461a7,7,0,0,0-1.2.289c-.4.186-.071-.032.078.013a2.842,2.842,0,0,1,.657.194c-.141-.08.866.775.54.508-.156-.128.07.171.093.206-.113-.173.075-.192-.026-.046-.083.12-.009.021,0-.195.086-2.669.991-5.513,1.465-8.346a2.422,2.422,0,0,0-4.011-2.335c-10.435,8.949-21.895,16.79-33.177,24.619a2.461,2.461,0,0,0-.861,3.283,2.42,2.42,0,0,0,3.283.861c11.617-8.061,23.4-16.155,34.149-25.369l-4.012-2.335c-.513,3.07-1.589,6.146-1.637,9.278a4.381,4.381,0,0,0,1.667,3.936c1.456.944,3.123.36,4.664-.033a68.214,68.214,0,0,0,22.033-9.643,44.805,44.805,0,0,0,9.63-8.844,2.476,2.476,0,0,0,0-3.394,2.417,2.417,0,0,0-3.394,0Z"/><path class="c" d="M273.516,147.589a29.848,29.848,0,0,0-2.565,16.792,87.9,87.9,0,0,1,1.029,9.214c.012,1.748-.189,3.832-1.5,5.129-.714.705-1.765.823-2.443,1.545a3.571,3.571,0,0,0-.306,4.022c1.152,2.206,3.81,3.412,6,4.324a29.9,29.9,0,0,0,16.855,1.577c5.494-1.019,11.159-3.708,14.4-8.414a2.422,2.422,0,0,0-.861-3.283,2.447,2.447,0,0,0-3.283.861c-2.971,4.315-9.265,6.221-14.255,6.534a25.8,25.8,0,0,1-8.973-.967,19.079,19.079,0,0,1-3.518-1.4,10.861,10.861,0,0,1-1.637-.978c-.594-.465-.25-.493-.407.062l-.617,1.059.091-.105-1.059.617c6.343-2.326,6.708-9.039,5.961-14.82-.841-6.5-1.833-13.229,1.24-19.344,1.383-2.753-2.756-5.186-4.145-2.422Z"/><path class="c" d="M371.539,127.538a4.1,4.1,0,0,1,5.923.8c.765,1.186.756,2.878.781,4.238a23.006,23.006,0,0,1-.345,4.577c-1.03,5.617-3.976,12.344-10.219,13.441A2.42,2.42,0,0,0,366,153.545a2.453,2.453,0,0,0,2.952,1.676c8.894-1.562,13.164-11.558,13.964-19.594.393-3.947.309-8.94-3-11.689a9.078,9.078,0,0,0-11.769.206,2.42,2.42,0,0,0,0,3.394,2.451,2.451,0,0,0,3.394,0Z"/><path class="c" d="M365.849,147.982a22.145,22.145,0,0,1-1.054,5.55c-.2.679-.426,1.352-.652,2.024-.073.218-.542,1.354-.217.646a47,47,0,0,1-2.956,5.4A52.1,52.1,0,0,1,349.3,175.054a22.062,22.062,0,0,1-8.544,4.312c-3.008.7-1.734,5.325,1.276,4.628,6.659-1.541,12.243-6.3,16.649-11.321a57.625,57.625,0,0,0,9.235-13.7,29.636,29.636,0,0,0,2.734-10.989c.111-3.089-4.69-3.085-4.8,0Z"/><path class="c" d="M282.755,124.144a9.077,9.077,0,0,0-11.769-.206c-3.314,2.754-3.4,7.737-3,11.689.8,8.036,5.07,18.032,13.964,19.594a2.469,2.469,0,0,0,2.952-1.676,2.419,2.419,0,0,0-1.676-2.952c-6.248-1.1-9.181-7.824-10.219-13.441a22.932,22.932,0,0,1-.345-4.577,8.954,8.954,0,0,1,.688-4.085,4.085,4.085,0,0,1,6.016-.952,2.464,2.464,0,0,0,3.394,0,2.42,2.42,0,0,0,0-3.394Z"/><path class="c" d="M280.535,147.455c2.43,13.994,10.043,27.71,23.014,34.454a31.554,31.554,0,0,0,11.376,3.4,2.415,2.415,0,0,0,2.4-2.4,2.455,2.455,0,0,0-2.4-2.4c-13.065-1.369-23.264-13.144-27.371-24.909a59.405,59.405,0,0,1-2.39-9.416,2.421,2.421,0,0,0-2.953-1.676,2.455,2.455,0,0,0-1.676,2.952Z"/><path class="c" d="M324.866,141.478a40.06,40.06,0,0,1,.943,4.317l-.085-.638a2.641,2.641,0,0,1,.016.6l.086-.638a1.543,1.543,0,0,1-.066.268l.242-.573a1.154,1.154,0,0,1-.1.172l.376-.486a.926.926,0,0,1-.141.139l.485-.375a2.723,2.723,0,0,1-.342.181l.574-.242a2.478,2.478,0,0,1-.577.168l.638-.086a2.226,2.226,0,0,1-.541,0l.638.086c-.2-.028-.4-.078-.608-.105a1.812,1.812,0,0,0-.957-.043,1.774,1.774,0,0,0-.892.285,2.4,2.4,0,0,0-.861,3.283,2.3,2.3,0,0,0,1.434,1.1c.481.065.948.187,1.437.208a4.609,4.609,0,0,0,2.138-.511,3.125,3.125,0,0,0,1.721-2.057,5.075,5.075,0,0,0-.021-2.194c-.235-1.391-.556-2.769-.914-4.133a2.4,2.4,0,0,0-2.952-1.677,2.446,2.446,0,0,0-1.676,2.953Z"/><path class="c" d="M303.537,178.464c-.115.114-.235.219-.354.328-.291.263.506-.347-.031.011a9.008,9.008,0,0,1-1.019.561c-.235.1-.194.088.124-.05-.107.042-.214.083-.322.122l-.056.022c-.264.1-.522.219-.782.331-.711.307-1.418.622-2.126.936-1.493.661-2.979,1.339-4.479,1.983a2.4,2.4,0,0,0-1.1,1.435,2.452,2.452,0,0,0,.242,1.849,2.425,2.425,0,0,0,1.434,1.1,2.811,2.811,0,0,0,1.849-.242c1.53-.657,3.046-1.349,4.568-2.023q1.054-.467,2.111-.928c.325-.142-.732.286-.382.162a14.106,14.106,0,0,0,1.623-.689,8.3,8.3,0,0,0,2.1-1.517,2.4,2.4,0,0,0-3.394-3.394Z"/><path class="c" d="M346.748,182.134a16.8,16.8,0,0,0,5.1,2.579q2.56,1,5.119,2.012.531.209,1.06.421l.39.158c.451.181-.427-.184-.32-.137a2.465,2.465,0,0,0,3.284-.861c.548-1.037.368-2.748-.861-3.283-2.85-1.241-5.781-2.315-8.679-3.438-.159-.062-.319-.122-.479-.183-.045-.017-.24-.061-.265-.1.046.073.394.183.083.031-.172-.085-.343-.167-.51-.261s-.306-.178-.453-.277c-.06-.04-.116-.087-.177-.125-.245-.153.468.382.105.071a2.4,2.4,0,0,0-3.394,3.394Z"/><path class="d" d="M234.91,289.843c2.452-13.8,7.682-44.236,10.963-57.98,2.273-9.523,6.7-19.664,13.886-26.507,5.245-5,11.934-8.04,18.113-11.641,5.734-3.341,10.6-6.24,16.488-9.365,7.9,9.293,19.967,13,33.449,12.858,12.193-.124,21.759-5.016,31.9-12.468,5.721,3.035,10.894,5.713,16.493,8.975,6.179,3.6,12.868,6.646,18.113,11.641,7.186,6.843,11.614,16.984,13.887,26.507,3.28,13.744,8.511,44.182,10.963,57.98"/><path class="c" d="M237.224,290.481c2.612-14.707,5.138-29.431,8.019-44.088,1.4-7.1,2.67-14.348,5.1-21.185,3.044-8.577,7.983-16.532,15.584-21.745,4.457-3.056,9.334-5.442,13.994-8.162,5.182-3.024,10.357-6.059,15.655-8.879l-2.909-.375c6.074,7.065,14.756,11.177,23.848,12.695,10.052,1.678,20.182.94,29.59-3.1a76.275,76.275,0,0,0,14.817-8.829H358.5c4.683,2.483,9.385,4.932,14,7.543,4.267,2.416,8.621,4.723,12.809,7.275a40.269,40.269,0,0,1,10.552,8.945,47.2,47.2,0,0,1,6.709,11.584c2.861,6.874,4.264,14.238,5.723,21.507,1.568,7.811,3.008,15.648,4.422,23.488,1.4,7.772,2.757,15.552,4.138,23.327a2.421,2.421,0,0,0,2.953,1.676,2.454,2.454,0,0,0,1.676-2.952c-2.651-14.924-5.211-29.867-8.147-44.739-1.439-7.287-2.768-14.708-5.388-21.682-3.417-9.1-8.679-17.291-16.678-22.982-4.5-3.2-9.5-5.639-14.272-8.4-5.278-3.057-10.686-5.875-16.073-8.731a2.384,2.384,0,0,0-2.423,0c-7.559,5.537-15.761,10.341-25.167,11.737a51.584,51.584,0,0,1-13.882-.045,42.065,42.065,0,0,1-12.112-3.289,32.517,32.517,0,0,1-11.277-8.418,2.432,2.432,0,0,0-2.908-.376c-4.74,2.524-9.384,5.216-14.02,7.925-4.294,2.509-8.724,4.8-12.964,7.394a43.955,43.955,0,0,0-11.089,9.274,51.574,51.574,0,0,0-7.475,12.308c-3.134,7.189-4.743,14.782-6.288,22.432-1.607,7.952-3.075,15.932-4.516,23.915-1.424,7.889-2.8,15.787-4.2,23.68a2.468,2.468,0,0,0,1.677,2.952,2.42,2.42,0,0,0,2.952-1.676Z"/><path class="c" d="M380.3,226.85c-.019,9.385-1.162,18.817-2.183,28.133-.462,4.22-1.241,8.483-1.2,12.731.039,4.586.436,9.158.792,13.726.52,6.652.887,13.305.895,19.979,0,3.088,4.8,3.093,4.8,0-.007-6.024-.293-12.035-.745-18.04-.354-4.695-.8-9.389-.915-14.1a92.4,92.4,0,0,1,.994-12.632c.558-4.992,1.073-9.989,1.509-14.993.429-4.92.848-9.865.858-14.807.006-3.089-4.794-3.093-4.8,0Z"/><path class="c" d="M269.463,226.85c.019,9.385,1.162,18.817,2.183,28.133.462,4.22,1.241,8.483,1.2,12.731-.038,4.586-.435,9.158-.792,13.726-.519,6.652-.887,13.305-.9,19.979,0,3.088,4.8,3.093,4.8,0,.007-6.024.294-12.035.746-18.04.353-4.695.8-9.389.915-14.1a92.4,92.4,0,0,0-.994-12.632c-.558-4.992-1.073-9.989-1.51-14.993-.429-4.92-.848-9.865-.858-14.807-.006-3.088-4.806-3.094-4.8,0Z"/><path class="c" d="M455.42,288.651q-8.394.014-16.788-.017-12.009-.03-24.018-.083-14.712-.06-29.423-.134-16.354-.081-32.708-.17-16.906-.092-33.815-.189-16.591-.094-33.183-.193l-30.255-.181-25.558-.155-18.691-.112q-4.886-.028-9.77-.053l-.821,0c-3.088,0-3.093,4.8,0,4.8,2.449,0,4.9.023,7.347.037q8.323.046,16.649.1l24.065.146,29.4.176q16.275.1,32.551.192,16.977.1,33.956.192,16.529.09,33.058.175,15.207.077,30.415.144,12.8.057,25.6.1,9.339.027,18.678.034,1.66,0,3.32,0c3.089-.006,3.094-4.806,0-4.8Z"/><path class="a" d="M327.394,242.484c-30.532.221-60.917.4-71.706.435a3.1,3.1,0,0,0-3.092,3.116c.063,17.528.908,78.191,1.552,100.488a3.107,3.107,0,0,0,3.159,3.015c9.75-.15,39.948-.058,70.087.046,30.139-.1,60.337-.2,70.087-.046a3.106,3.106,0,0,0,3.159-3.015c.644-22.3,1.49-82.96,1.552-100.488a3.1,3.1,0,0,0-3.092-3.116C388.311,242.883,357.927,242.705,327.394,242.484Z"/><path class="c" d="M327.394,240.084q-32.061.233-64.122.4l-4.789.022a13.563,13.563,0,0,0-4.714.377,5.683,5.683,0,0,0-3.571,5.59c0,1.029.01,2.059.017,3.089q.061,9.027.178,18.054.285,24.16.706,48.32.189,10.806.423,21.61.093,4.115.205,8.227c.065,2.335.858,4.5,3.09,5.583,1.531.745,3.235.566,4.885.551,19.587-.183,39.181-.021,58.768.043,22.363.074,44.726-.13,67.09-.088,3.277.006,6.555.015,9.833.047,1.66.017,3.36.172,4.864-.693,2.127-1.223,2.746-3.333,2.81-5.634.172-6.179.3-12.359.418-18.539q.471-24.227.773-48.455.14-10.629.249-21.26.041-4.02.068-8.04c.007-1.012.029-2.025.017-3.038a5.623,5.623,0,0,0-4.03-5.53,17.6,17.6,0,0,0-4.481-.215l-4.846-.023q-6.318-.032-12.636-.068-16.48-.093-32.962-.206-9.122-.06-18.243-.127c-3.089-.022-3.092,4.778,0,4.8q31.416.228,62.832.4c2.873.015,5.832-.179,8.7.039,1.1.083.87,1.046.865,1.93q-.007,1.628-.02,3.255-.066,8.988-.182,17.975-.279,23.414-.685,46.826-.183,10.561-.409,21.123-.091,4.139-.2,8.277c-.024.9.279,2.276-.81,2.433a24.13,24.13,0,0,1-3.473-.038c-19.228-.148-38.461-.01-57.69.053-21.877.073-43.755-.121-65.632-.09q-5.064.006-10.128.039a14.512,14.512,0,0,1-3.433.022c-.935-.26-.615-1.935-.636-2.719q-.244-9.189-.4-18.379-.452-23.48-.747-46.963-.138-10.381-.246-20.762-.041-4.041-.071-8.083-.012-1.564-.019-3.128c0-1.008-.147-1.733,1.046-1.772,7.082-.23,14.2-.066,21.284-.107q16.274-.095,32.547-.2,8.758-.06,17.516-.123C330.482,244.862,330.489,240.062,327.394,240.084Z"/><path class="e" d="M253.947,338.565c11.706-.074,49.285,0,73.447.084,24.162-.082,61.745-.158,73.45-.084"/><path class="c" d="M253.947,340.965c18.746-.116,37.494-.015,56.239.033,21.228.055,42.454-.033,63.682-.056,8.992-.01,17.984-.033,26.976.023,3.089.02,3.093-4.78,0-4.8-18.746-.116-37.5-.015-56.242.033-21.227.055-42.453-.033-63.68-.056-8.991-.01-17.983-.033-26.975.023-3.087.02-3.094,4.82,0,4.8Z"/><path class="c" d="M327.394,285.005c-2.23.022-4.46.051-6.69.053a2.437,2.437,0,0,0-2.4,2.4q-.013,3.51-.009,7.018c0,1.374,0,2.749.016,4.123,0,.493,0,.989.02,1.483a2.505,2.505,0,0,0,2.638,2.586c4.008,0,8.017-.027,12.026-.008a4.492,4.492,0,0,0,2.269-.309c1.106-.585,1.189-1.79,1.2-2.882.018-1.287.021-2.573.024-3.86q.009-4.075-.007-8.151a2.437,2.437,0,0,0-2.4-2.4c-2.231,0-4.461-.031-6.691-.053a2.4,2.4,0,1,0,0,4.8c2.23.022,4.46.051,6.691.053l-2.4-2.4c.016,4.272.074,8.55-.032,12.82l.328-1.211h0l2.072-1.188c-.735-.068-1.494-.021-2.231-.021-1.475,0-2.951.015-4.427.015-1.441,0-2.882-.014-4.323-.015-.771,0-1.565-.05-2.335.021l2.073,1.188h0l.328,1.211c-.107-4.27-.049-8.548-.032-12.82l-2.4,2.4c2.23,0,4.46-.031,6.69-.053a2.4,2.4,0,0,0,0-4.8Z"/><path class="c" d="M199.1,195.092a106.852,106.852,0,0,0,19.919-32.256,117.094,117.094,0,0,0,7.816-40.919,155.8,155.8,0,0,0-3.857-37.757,118.908,118.908,0,0,0-11.649-30.725A99.426,99.426,0,0,0,168.936,12.5a113.014,113.014,0,0,0-28.614-9.857A136.749,136.749,0,0,0,108.248.1,128.558,128.558,0,0,0,76.968,5,107.629,107.629,0,0,0,49.711,17.163,98.744,98.744,0,0,0,27.386,36.409a104.623,104.623,0,0,0-16.33,26.152A128.755,128.755,0,0,0,1.785,95.439a149.629,149.629,0,0,0-.933,38.73A113.577,113.577,0,0,0,10.734,169.5a105.019,105.019,0,0,0,18.947,27.646,110.2,110.2,0,0,0,25.727,19.964,117.577,117.577,0,0,0,30.154,11.828,118.751,118.751,0,0,0,77.455-7.528,112.728,112.728,0,0,0,18.613-10.779h-2.423c9.584,5.409,19.454,10.516,29.478,15.058a2.447,2.447,0,0,0,2.665-.187,2.375,2.375,0,0,0,.861-2.523c-3.867-10.412-8.2-20.654-12.738-30.791a2.417,2.417,0,0,0-3.283-.861,2.458,2.458,0,0,0-.861,3.284c4.365,9.759,8.53,19.62,12.253,29.644l3.526-2.71c-10.024-4.543-19.9-9.65-29.478-15.058a2.375,2.375,0,0,0-2.423,0,112.684,112.684,0,0,1-39.356,17.867A114,114,0,0,1,71.289,219.4a108.08,108.08,0,0,1-26.836-15.314A101.046,101.046,0,0,1,8.9,150.776a123.052,123.052,0,0,1-3.966-36.957,143.412,143.412,0,0,1,5.22-34.627,109.31,109.31,0,0,1,12.5-28.318A95.1,95.1,0,0,1,41.4,29.187,97.93,97.93,0,0,1,65.392,14.266a113.44,113.44,0,0,1,28.057-8,134.979,134.979,0,0,1,31.082-1.028,118.782,118.782,0,0,1,29.239,6.021,100.482,100.482,0,0,1,25.2,12.864,94.45,94.45,0,0,1,20.2,19.444A103.3,103.3,0,0,1,213.671,69.9a130.976,130.976,0,0,1,7.527,32.7c1.361,13.281,1.291,26.85-1.284,39.981a104.374,104.374,0,0,1-13.828,35.351A100.243,100.243,0,0,1,195.7,191.7C193.645,193.991,197.029,197.4,199.1,195.092Z"/><path class="c" d="M340.882,136.58q.768.054,1.529.151l-.638-.085a24.235,24.235,0,0,1,6.052,1.631,2.4,2.4,0,0,0,1.85-.242,2.4,2.4,0,0,0,.861-3.284,2.843,2.843,0,0,0-1.435-1.1,26.115,26.115,0,0,0-8.219-1.868,2.413,2.413,0,0,0-2.4,2.4,2.458,2.458,0,0,0,2.4,2.4Z"/><path class="c" d="M311.253,131.78a26.127,26.127,0,0,0-8.219,1.868,2.651,2.651,0,0,0-1.434,1.1,2.4,2.4,0,0,0,.861,3.284,2.313,2.313,0,0,0,1.849.242,24.235,24.235,0,0,1,6.052-1.631l-.638.085q.764-.1,1.529-.151a2.55,2.55,0,0,0,1.7-.7,2.4,2.4,0,0,0-1.7-4.1Z"/><path class="f" d="M349.372,158.4a7.764,7.764,0,0,1-2.48-.561c-2.036-.892-2.987-3.53-2.844-5.2.313-3.668,2.757-8.323,5.59-11.508,1.926,2.37,4.685,7.067,5.037,10,.429,3.569,0,6.074-3.5,7.124A5.2,5.2,0,0,1,349.372,158.4Z"/><path class="c" d="M349.372,156a5.708,5.708,0,0,1-1.174-.235,4.329,4.329,0,0,1-.47-.159c.4.172-.056-.057-.126-.108-.2-.143.146.193-.137-.11-.036-.038-.435-.462-.266-.26.151.181-.2-.314-.2-.312-.079-.129-.144-.265-.22-.4-.331-.577.054.2-.066-.145-.06-.172-.117-.345-.164-.521s-.065-.347-.113-.515c-.084-.3-.017.489.007-.054,0-.123-.006-.247,0-.371,0-.018.051-.569.021-.321-.034.278.059-.338.07-.392q.058-.306.131-.607a21.026,21.026,0,0,1,4.676-8.667h-3.394c.407.506-.288-.407.122.153.13.178.261.354.389.534q.342.482.664.977.767,1.174,1.436,2.41a13.732,13.732,0,0,1,1.768,4.586c.041.223-.028-.35.008.123.018.232.043.463.057.695.024.4.035.795.02,1.193-.006.169-.021.338-.031.507-.037.6.136-.434-.028.125-.051.174-.1.357-.14.533-.1.421.153-.209.012,0a3.544,3.544,0,0,0-.21.383c-.214.435.31-.259-.051.075-.133.125-.257.257-.395.378.252-.22.147-.1-.067.017-.151.084-.3.168-.454.248-.529.275.352-.064-.271.1a3.763,3.763,0,0,1-1.4.134,2.4,2.4,0,0,0,0,4.8,7.617,7.617,0,0,0,6.685-3.181,9.08,9.08,0,0,0,1.082-5.892c-.425-4.536-3-8.8-5.8-12.294a2.409,2.409,0,0,0-3.394,0c-2.916,3.32-5.481,7.551-6.14,11.986a8.422,8.422,0,0,0,1.171,6.011c1.507,2.267,3.764,3.152,6.4,3.37a2.419,2.419,0,0,0,2.4-2.4A2.45,2.45,0,0,0,349.372,156Z"/><path class="c" d="M338.253,166.932a7.561,7.561,0,0,0,.354-6.172,6.629,6.629,0,0,0-4.079-3.677,7.789,7.789,0,0,0-4.705-.229c-1.466.353-2.856.98-4.334,1.283h1.276c-4.97-.852-12.436-.946-13.269,5.6-.423,3.321,1.372,6.467,4.825,7.1a11.61,11.61,0,0,0,5.314-.3,15.2,15.2,0,0,1,4.434-.426c1.882.049,3.7.432,5.581.109a6.432,6.432,0,0,0,4.6-3.288c1.475-2.714-2.668-5.14-4.145-2.422-.645,1.186-1.819,1.15-3.107,1.026a28.943,28.943,0,0,0-5.591-.142,19.473,19.473,0,0,0-2.748.435,8.628,8.628,0,0,1-2.343.415,3.28,3.28,0,0,1-1.683-.353c-.274-.173-.135-.109-.272-.253-.276-.291.064.272-.018-.042a4.566,4.566,0,0,1-.136-.58c.045.333.012-.6.019-.685-.014.182.093-.444.14-.57a3.232,3.232,0,0,1,.249-.411c-.29.474.128-.1.274-.24.235-.228-.343.2-.047.044.083-.044.158-.1.241-.149.115-.061.23-.121.346-.18-.1.048-.438.137-.006.011.247-.072.488-.153.738-.212.151-.035.3-.065.457-.093.417-.076-.563.026.222-.028a19.993,19.993,0,0,1,4.466.232c1.643.255,3.157-.473,4.7-.949.359-.11.72-.216,1.086-.3.173-.041.346-.078.52-.113.424-.084-.019-.009.2-.016.08,0,.542.023.2-.016-.363-.042.433.123.432.123.179.049.359.1.535.161.032.011.392.15.183.057a3.912,3.912,0,0,1,.465.247c.279.173.093.042.232.179a1.448,1.448,0,0,1,.334.523,2.6,2.6,0,0,1-.1,1.883,2.469,2.469,0,0,0,.861,3.283A2.42,2.42,0,0,0,338.253,166.932Z"/><path class="g" d="M199.47,62.584c-9.9.02-19.8-.04-29.694-.1q-20.409-.123-40.817-.3-21.3-.18-42.606-.383-17.527-.165-35.056-.336C45.24,61.4,39.183,61.33,33.126,61.3c-.2,0-.407,0-.611,0-3.088,0-3.093,4.8,0,4.8,5.154,0,10.309.086,15.462.135q16.745.16,33.49.322,21.092.2,42.183.384,20.769.177,41.538.319c10.519.068,21.038.134,31.558.132q1.362,0,2.724,0c3.088-.006,3.094-4.806,0-4.8Z"/><path class="g" d="M39.267,95.751c-2.251-.02-4.5-.052-6.752-.053a2.4,2.4,0,1,0,0,4.8c2.251,0,4.5.033,6.752.053a2.4,2.4,0,0,0,0-4.8Z"/><path class="g" d="M132.608,96.614q-17.04-.141-34.079-.3c-3.09-.028-3.092,4.772,0,4.8q17.039.157,34.079.3c3.089.025,3.092-4.774,0-4.8Z"/><path class="g" d="M199.47,96.987c-13.7.027-27.393-.079-41.089-.175-3.089-.021-3.093,4.779,0,4.8,13.7.1,27.393.2,41.089.175,3.088-.006,3.094-4.807,0-4.8Z"/><path class="g" d="M147.421,131.135q-29.626-.226-59.252-.514-22.751-.213-45.5-.435c-3.384-.032-6.769-.084-10.154-.085-3.088,0-3.093,4.8,0,4.8,8.951,0,17.9.158,26.853.245q27.31.264,54.623.511,16.715.148,33.43.278c3.089.023,3.092-4.777,0-4.8Z"/><path class="g" d="M199.47,131.389q-8.692.018-17.385-.034a2.4,2.4,0,1,0,0,4.8q8.692.037,17.385.034a2.4,2.4,0,1,0,0-4.8Z"/><path class="g" d="M199.47,165.792c-9.9.02-19.8-.04-29.694-.1q-20.409-.124-40.817-.3-21.3-.178-42.606-.382-17.527-.165-35.056-.336c-6.057-.059-12.114-.133-18.171-.165l-.611,0c-3.088,0-3.093,4.8,0,4.8,5.154,0,10.309.085,15.462.135q16.745.16,33.49.322,21.092.2,42.183.383,20.769.178,41.538.32c10.519.068,21.038.133,31.558.131q1.362,0,2.724,0c3.088-.006,3.094-4.806,0-4.8Z"/><path class="h" d="M31.489,77.708c5.419,6.614,10.716,13.332,16.25,19.851,1.8,2.115,4.927,1.126,6.282-.81q3.4-4.848,6.664-9.785H53.777c2.106,2.854,4.3,5.646,6.479,8.443a3.99,3.99,0,0,0,4.848.625c2.437-1.719,4.766-3.586,7.16-5.364l-4.847-.625c9.517,10,19.307,19.735,28.905,29.655,2.458,2.541,4.91,5.09,7.327,7.67,1.863,1.989,4.893,1.242,6.282-.81,2.847-4.206,5.359-7.17,8.469-11.221l-6.282.809a79.92,79.92,0,0,0,6.632,5.666c2.061,1.632,4.763,1.544,6.282-.809,2.076-3.216,4.167-6.43,6.11-9.73l-6.283.81c2.666,2.593,5.146,5.373,7.846,7.93a4.065,4.065,0,0,0,6.282-.809c.206-.295.428-.578.639-.869.265-.367-.54.684-.076.1.185-.233.367-.466.551-.7.833-1.05,1.674-2.093,2.512-3.139,2.183-2.73,4.345-5.478,6.426-8.287h-6.907c3.785,5.2,7.3,10.6,10.867,15.944q7.367,11.023,14.619,22.122c1.946,2.982,3.891,5.965,5.792,8.975a4.071,4.071,0,0,0,6.283.81c2.291-1.908,4.562-3.841,6.768-5.848l-6.283-.809,8.341,11.337c1.237,1.68,3.526,2.69,5.473,1.435,1.664-1.073,2.761-3.671,1.435-5.473l-8.341-11.337c-1.563-2.124-4.225-2.682-6.282-.81-2.205,2.007-4.477,3.941-6.768,5.848l6.282.809c-8.466-13.4-17.307-26.594-26.206-39.714-1.667-2.457-3.324-4.926-5.073-7.326a4.073,4.073,0,0,0-6.907,0c-3.135,4.229-6.89,8.377-10.053,12.894l6.283-.809c-2.7-2.558-5.18-5.338-7.846-7.931a4.046,4.046,0,0,0-6.282.81c-1.943,3.3-4.034,6.513-6.11,9.729l6.282-.81a80.058,80.058,0,0,1-6.631-5.665c-2.018-1.991-4.735-1.206-6.282.809-.445.579.342-.432.012-.017-.131.165-.259.333-.389.5q-.48.615-.962,1.227-1.246,1.588-2.481,3.185c-1.6,2.072-3.182,4.159-4.65,6.328l6.283-.81c-9.683-10.337-19.722-20.34-29.611-30.478-2.217-2.272-4.432-4.547-6.621-6.847a4.025,4.025,0,0,0-4.848-.625c-2.394,1.777-4.722,3.644-7.16,5.363l4.847.626q-.621-.8-1.241-1.595-.3-.381-.593-.764l-.418-.54q.4.52-.022-.029c-.992-1.293-1.986-2.584-2.954-3.9-1.809-2.452-5.137-2.672-6.908,0q-3.269,4.935-6.663,9.786L53.4,91.9c-5.534-6.518-10.831-13.236-16.25-19.851-1.332-1.625-4.294-1.484-5.657,0a4.113,4.113,0,0,0,0,5.657Z"/><path class="e" d="M395.509,160.647c0,9.588-.069,19.176-.07,28.763,0,3.089,4.8,3.094,4.8,0,0-9.587.069-19.175.07-28.763,0-3.088-4.8-3.093-4.8,0Z"/><path class="e" d="M408.314,164.332c.023,7.771-.19,15.54-.167,23.31.009,3.088,4.809,3.094,4.8,0-.023-7.77.19-15.539.167-23.31-.009-3.088-4.809-3.094-4.8,0Z"/><path class="e" d="M420.616,166.9c0,11.114-.153,22.228-.155,33.342,0,3.089,4.8,3.094,4.8,0,0-11.114.153-22.228.155-33.342,0-3.088-4.8-3.093-4.8,0Z"/><path class="c" d="M350.22,69.765a70,70,0,0,1,16.568-9.353,2.472,2.472,0,0,0,1.676-2.952,2.418,2.418,0,0,0-2.952-1.677A74.145,74.145,0,0,0,347.8,65.621a2.477,2.477,0,0,0-.861,3.283,2.415,2.415,0,0,0,3.284.861Z"/><path class="c" d="M392.925,110.234a21.6,21.6,0,0,1,5.521,9.344,14.619,14.619,0,0,1,.73,5.458c-.094.831-.706,2.689-1.869,2.2-1.038-.44-1.5-2.534-1.605-3.5a2.013,2.013,0,0,1,2.02-2.253c3.048-.295,5.431,3.531,6.605,5.833,1.754,3.439,1.968,7.394,1.98,11.182.009,3.088,4.809,3.094,4.8,0-.016-4.963-.543-9.991-3.051-14.375-2.45-4.282-7.171-8.93-12.56-7a6.638,6.638,0,0,0-4.6,5.924,10.352,10.352,0,0,0,2.745,7.383,5.65,5.65,0,0,0,7.465.465c2.419-1.834,3.1-4.891,2.838-7.788a26.446,26.446,0,0,0-7.626-16.256c-2.184-2.19-5.579,1.2-3.394,3.395Z"/><path class="c" d="M281.746,87.45a25.248,25.248,0,0,0-20.027-1.824,2.457,2.457,0,0,0-1.676,2.953A2.424,2.424,0,0,0,263,90.255a20.356,20.356,0,0,1,16.329,1.34c2.712,1.481,5.137-2.662,2.422-4.145Z"/></svg>