<?xml version="1.0" encoding="utf-8"?>
<!-- Uploaded to: SVG Repo, www.svgrepo.com, Generator: SVG Repo Mixer Tools -->
<svg width="800px" height="800px" viewBox="-64.81 0 336.695 336.695" xmlns="http://www.w3.org/2000/svg"><defs><style>.a{fill:#ffffff;}.b{fill:#f4b467;}.c{fill:#957f6e;}.d{fill:#211715;}.e{fill:#211916;}</style></defs><path class="a" d="M158.08,88.744a8.032,8.032,0,0,1,6.426-1.88,7.581,7.581,0,0,1,5.451,3.625A10.716,10.716,0,0,1,171.08,94.8a32.13,32.13,0,0,1-3.276,17.029,20.412,20.412,0,0,1-5.28,6.929,13.527,13.527,0,0,1-6.295,2.838l-.813.125-1.647,4.469c-1.923,5.22-13.12,23.917-26.925,29.318A80.561,80.561,0,0,0,128,165.734c.7,3.994.481,7.564,6.033,9.569.368.132,6.616,2.57,7.178,2.8l5.516,2.4s4.444,36.148-42.963,36.148-46.815-36.444-46.815-36.444l8.866-3.555c1.069-.365,3.654-1.215,4.021-1.347,5.553-2,5.334-5.575,6.034-9.569A78.881,78.881,0,0,0,77.1,153.178a49.64,49.64,0,0,1-12.471-10.941,54.62,54.62,0,0,1-10.411-20.323l-2.053-.316a13.522,13.522,0,0,1-6.295-2.838,20.4,20.4,0,0,1-5.28-6.929A32.12,32.12,0,0,1,37.312,94.8a10.714,10.714,0,0,1,1.122-4.313,7.585,7.585,0,0,1,5.452-3.625,8.029,8.029,0,0,1,6.425,1.88S33.542,36.8,103.764,38.872,158.08,88.744,158.08,88.744Z"/><path class="a" d="M137.727,334.379c-1.376-42.267,1.528-117.827,3.034-149.333-9.093,11.442-23.1,18.371-37.01,18.558a48.806,48.806,0,0,1-37.306-17.4c1.514,32.161,4.333,106.416,2.973,148.174Z"/><path class="b" d="M8.016,211.983c4.426-7.32,10.133-12.654,17.288-17.342,13.358-8.751,24-14.885,38.83-20.795l2.311,12.359a48.806,48.806,0,0,0,37.306,17.4c13.953-.187,28-7.158,37.093-18.662l.95-11.1c14.835,5.91,25.472,12.044,38.83,20.795,7.094,4.647,12.764,9.931,17.174,17.154a28.928,28.928,0,0,1,4.843,13.459c2.639,26.592-.449,54.337-18,73.676a68.809,68.809,0,0,1-9.617,9.179c.046.977.082,1.973.127,2.987.279,6.6.531,13.923.531,22.428H30.937c0-9.366.3-17.319.613-24.434-.2-.155-.4-.315-.6-.482-4-2.963-6.481-6.1-9.721-9.674-17.55-19.34-20.64-47.09-18-73.68a28.859,28.859,0,0,1,4.76-13.33"/><path class="c" d="M60.054,164.221c7.536-1.146,13.934-4.792,16.775-9.052,0,0,.4-.64.987-1.584a48.969,48.969,0,0,1-13.189-11.348,54.619,54.619,0,0,1-10.412-20.326l-2.052-.313a13.522,13.522,0,0,1-6.295-2.838,16.593,16.593,0,0,1-2.188-2.149,26.754,26.754,0,0,0-2.706,8.946,43.768,43.768,0,0,0-.3,5.964c.007.405.023.811.045,1.218.236,4.349,1.252,8.78,1.467,13.112.219,4.72-1.01,9.367-5.512,10.9-.178.06-.214.636-.209.783a2.06,2.06,0,0,0,.361,1.009,6.974,6.974,0,0,0,2.308,2.023C44.153,163.64,51.878,165.465,60.054,164.221Z"/><path class="c" d="M166.553,53.3c-.2-1.184-.411-2.281-.612-3.267C160.357,22.654,132.776.917,103.853,2.506,74.929.917,47.349,22.654,41.764,50.037c-1.513,7.386-1.331,20.022.044,25.918L44.577,86.8a7.969,7.969,0,0,1,5.734,1.943c11.432-7.929,30.821-21.7,40.861-30.338-.825,5.125-3.76,13.842-.064,12.946,15.434-3.574,30.226-10.781,39.17-22.025,1.885,6.639,5,15.608,7.29,19.527,3.238,5.546,12.623,18.025,20.512,19.89a8.032,8.032,0,0,1,6.426-1.88,7.729,7.729,0,0,1,1,.219C169.526,77.774,168.172,62.742,166.553,53.3Z"/><path class="d" d="M44.092,75.551a49.4,49.4,0,0,1-.969-9.647,86.377,86.377,0,0,1,.422-11.775,50.281,50.281,0,0,1,6.937-19.921A61.1,61.1,0,0,1,84.476,7.371,55.013,55.013,0,0,1,95.38,5.1c3.775-.375,7.585-.268,11.372-.273a56.041,56.041,0,0,1,21.756,4.462,60.959,60.959,0,0,1,31.411,30.033,64.624,64.624,0,0,1,5.034,19.406c.919,7.419,1.425,15.283-.176,22.644a28.754,28.754,0,0,1-1.545,4.984,2.415,2.415,0,0,0,1.677,2.953,2.462,2.462,0,0,0,2.952-1.677c3.047-7.3,3-15.861,2.42-23.618-.546-7.275-1.552-14.783-3.993-21.687-5.3-14.992-16.687-27.556-30.7-34.958A63.253,63.253,0,0,0,112.5.315,111.113,111.113,0,0,0,100.592.024a59.809,59.809,0,0,0-12.04,1.32A65.977,65.977,0,0,0,49.325,27.231a58.172,58.172,0,0,0-9.654,21.14,73.589,73.589,0,0,0-.965,23.574,42.331,42.331,0,0,0,.757,4.882c.684,3.011,5.313,1.737,4.629-1.276Z"/><path class="d" d="M128.193,50.771c1.118,3.822,2.359,7.612,3.769,11.336a51.153,51.153,0,0,0,3.979,8.7,64.718,64.718,0,0,0,12.295,14.84c2.673,2.332,5.712,4.534,9.206,5.409,3,.749,4.276-3.878,1.276-4.629-5.358-1.341-9.964-6.6-13.457-10.836a50.275,50.275,0,0,1-8.321-13.852c-1.562-4.014-2.91-8.114-4.119-12.247-.865-2.959-5.5-1.7-4.628,1.276Z"/><path class="d" d="M128.736,47.434a55.5,55.5,0,0,1-19.011,14.848,81,81,0,0,1-11.7,4.692q-3.144,1-6.35,1.777c-.263.064-.541.116-.8.193-.393.116-.451-.081-.129.067-.144-.067-.325-.195.178.049a2.227,2.227,0,0,1,.595.352.613.613,0,0,1,.23.335c0-.069-.045-.458-.046-.133,0,.365-.01-.229-.011-.3-.024-3.308,1.225-6.827,1.8-10.271a2.422,2.422,0,0,0-4.012-2.335C79.4,65.354,68.457,73.039,57.628,80.7Q53.379,83.7,49.1,86.672a2.464,2.464,0,0,0-.861,3.284,2.422,2.422,0,0,0,3.284.861c11.3-7.843,22.532-15.823,33.4-24.268,2.693-2.094,5.361-4.224,7.95-6.446l-4.011-2.335c-.61,3.673-1.891,7.34-1.969,11.085a4.968,4.968,0,0,0,1.577,4.229c1.751,1.337,3.979.439,5.883-.055A82.014,82.014,0,0,0,120.665,61.4a53.7,53.7,0,0,0,11.466-10.571,2.477,2.477,0,0,0,0-3.394,2.418,2.418,0,0,0-3.4,0Z"/><path class="d" d="M41.6,115.4c-3.1,6.137-3.808,13.16-3.064,19.933.4,3.622,1.15,7.222,1.26,10.872.068,2.245-.121,4.884-1.595,6.71-.774.96-1.729,1.163-2.74,1.754-1.643.961-1.66,3.249-.886,4.764,1.362,2.668,4.739,4.112,7.375,5.181a35.74,35.74,0,0,0,19.6,1.778c6.577-1.182,13.479-4.356,17.35-10.009,1.749-2.556-2.409-4.959-4.145-2.423-3.661,5.347-11.313,7.731-17.462,8.167a31.82,31.82,0,0,1-11.188-1.136,24.212,24.212,0,0,1-4.275-1.665,15.7,15.7,0,0,1-2.138-1.251c-.231-.17-.47-.492-.705-.625-.3-.17-.023-.268-.115.057l-.618,1.059.111-.128-1.06.618c7.673-2.774,7.7-11.145,6.8-17.973-1.041-7.83-2.065-15.921,1.638-23.26,1.388-2.751-2.752-5.184-4.145-2.423Z"/><path class="d" d="M159.777,90.441a5.517,5.517,0,0,1,7.923.949,9.234,9.234,0,0,1,1.067,4.754,28.767,28.767,0,0,1-.342,6.065c-1.211,7.083-4.944,15.719-12.834,17.075a2.419,2.419,0,0,0-1.676,2.952,2.455,2.455,0,0,0,2.952,1.676c8.171-1.4,13.02-9.12,15.256-16.488a33.937,33.937,0,0,0,1.407-11.951c-.257-3.959-1.454-7.683-5.1-9.744a10.539,10.539,0,0,0-12.043,1.318,2.421,2.421,0,0,0,0,3.394,2.448,2.448,0,0,0,3.394,0Z"/><path class="d" d="M52.009,87.047A10.5,10.5,0,0,0,41.4,85.067C37.464,86.618,35.5,89.925,35,94a32.936,32.936,0,0,0,5.765,22.774,17.222,17.222,0,0,0,10.76,7.143,2.469,2.469,0,0,0,2.952-1.676,2.42,2.42,0,0,0-1.676-2.952c-7.89-1.355-11.623-9.993-12.834-17.075a28.624,28.624,0,0,1-.35-5.841c.059-1.651.133-3.553,1.075-4.978a5.513,5.513,0,0,1,7.922-.949,2.462,2.462,0,0,0,3.4,0,2.421,2.421,0,0,0,0-3.394Z"/><path class="d" d="M51.82,122.261c4.093,14.578,13.76,28.619,27.9,34.993a37.624,37.624,0,0,0,11.7,3.155,2.415,2.415,0,0,0,2.4-2.4,2.454,2.454,0,0,0-2.4-2.4C77.8,154.2,66.483,143.334,60.508,131.6a57.668,57.668,0,0,1-4.06-10.612c-.834-2.969-5.466-1.708-4.628,1.276Z"/><path class="a" d="M161.93,145.292c-2.977-6.1-5.406-17.451-9.056-22.907-7.97-11.917-28.6-12.372-40.74-20-1.563-.983-4.741-3.852-8.371-3.852-3.333,0-11.6,5.047-13.111,6.074-14.915,10.157-27.444,7.083-39.7,24.592-3.834,5.476-12.613,19.4-17.185,29.926,6.049,2.613,35.162,16.569,41.185,18.074,4.741,1.186,15.556,6.074,28.445,10.963,14.882-2.479,30.815-16,39.745-19.332,7.922-2.955,26.933-8.31,25.674-10.467C165.022,151.866,162.689,146.848,161.93,145.292Z"/><path class="e" d="M164,144.081c-2.685-5.58-3.984-11.752-6.343-17.471a27.914,27.914,0,0,0-4.347-7.592,25.977,25.977,0,0,0-6.507-5.354c-10.14-6.091-22.521-6.906-32.685-12.881-2.547-1.5-4.721-3.461-7.642-4.267S101,96.508,98.32,97.67c-4.631,2.007-8.611,4.977-13,7.395-4.968,2.734-10.349,4.424-15.586,6.537a44.791,44.791,0,0,0-15.165,9.52c-4.251,4.219-7.485,9.373-10.649,14.424a204.675,204.675,0,0,0-10.144,17.9q-1.092,2.208-2.082,4.465c-.469,1.073-.434,2.723.861,3.284,8.382,3.629,16.592,7.665,24.924,11.408,4.39,1.973,8.791,3.949,13.28,5.689,3.638,1.41,7.4,2.411,11.043,3.842,3.476,1.367,6.928,2.791,10.392,4.188q3,1.209,6,2.391,1.468.576,2.942,1.142a5.8,5.8,0,0,0,3.6.492c7.157-1.354,13.866-4.793,20.129-8.39,5.606-3.219,10.954-6.961,16.745-9.846a21.106,21.106,0,0,1,2.782-1.2c1.115-.406,2.238-.79,3.363-1.169,2.684-.907,5.379-1.781,8.065-2.683,2.66-.893,5.319-1.8,7.932-2.824a26.691,26.691,0,0,0,5.5-2.589,4.5,4.5,0,0,0,1.765-1.952c.651-1.608-.319-2.845-1.094-4.209q-2.538-4.467-4.8-9.084c-.38-.773-.751-1.551-1.128-2.326a2.421,2.421,0,0,0-3.283-.861,2.448,2.448,0,0,0-.861,3.283c1.017,2.091,2.032,4.181,3.109,6.242q1.309,2.506,2.7,4.967c.272.48.53.974.825,1.44.5.8-.021-.1-.024-.561a2.038,2.038,0,0,1,.359-1.074c.154-.356.077-.068-.1.07-.387.3.422-.25.053-.041-.124.07-.241.158-.362.233-.342.211-.7.4-1.056.577-.433.218-.874.419-1.317.615-.093.042-.606.26-.282.124-.306.129-.614.252-.922.375-2.533,1.008-5.115,1.9-7.7,2.766-4.916,1.659-10.036,3.022-14.769,5.168-5.576,2.528-10.666,6.134-15.924,9.242-6.754,3.994-13.877,7.855-21.7,9.2h1.276c-7.185-2.73-14.263-5.725-21.421-8.522-3.4-1.329-6.918-2.254-10.318-3.559-1.886-.724-3.626-1.459-5.181-2.126-2.28-.979-4.548-1.985-6.812-3-4.753-2.132-9.484-4.313-14.212-6.5-3.7-1.709-7.375-3.471-11.112-5.089l.861,3.284a158.4,158.4,0,0,1,9.36-17.682A139.979,139.979,0,0,1,54.345,128.6a37.62,37.62,0,0,1,13.6-11.018c4.839-2.324,10.085-3.862,15.032-6.033,4.667-2.048,8.738-4.982,13.172-7.437a30.675,30.675,0,0,1,6.543-2.977c.22-.061.442-.107.662-.163.1-.025.207-.043.31-.058-.022,0-.427.034-.16.029a6.121,6.121,0,0,1,2.066.31,14.447,14.447,0,0,1,3.775,2.1c9.3,6.526,20.944,7.764,31.112,12.408,4.668,2.132,8.951,4.985,11.381,9.584,2.846,5.385,4.192,11.477,6.332,17.15.511,1.357,1.064,2.7,1.693,4.009a2.421,2.421,0,0,0,3.283.861A2.45,2.45,0,0,0,164,144.081Z"/><path class="a" d="M69.418,334.379c1.36-41.755-1.458-116-2.973-148.174a48.806,48.806,0,0,0,37.306,17.4c13.953-.187,28-7.158,37.093-18.662-1.508,31.441-4.421,107.122-3.042,149.437"/><path class="d" d="M64.748,187.9A51.647,51.647,0,0,0,94.279,205.15a49.284,49.284,0,0,0,33.313-5.767,51.915,51.915,0,0,0,14.949-12.744,2.475,2.475,0,0,0,0-3.394,2.417,2.417,0,0,0-3.394,0,47.838,47.838,0,0,1-26.668,16.916,43.986,43.986,0,0,1-30.153-4.233,47.947,47.947,0,0,1-14.184-11.42,2.42,2.42,0,0,0-3.394,0,2.451,2.451,0,0,0,0,3.394Z"/><path class="d" d="M33.337,333.523c0-8.152.256-16.3.61-24.44.134-3.088-4.667-3.082-4.8,0-.354,8.143-.606,16.288-.61,24.44,0,3.089,4.8,3.094,4.8,0Z"/><path class="d" d="M63.415,173.846c.357,6.17.637,12.346.913,18.52q.673,15.082,1.213,30.169.665,18.381,1.135,36.769c.316,12.578.556,25.158.656,37.739.089,11.243.083,22.49-.209,33.729q-.047,1.8-.105,3.607c-.1,3.09,4.7,3.086,4.8,0,.353-10.943.4-21.9.343-32.843-.063-12.5-.277-25.01-.57-37.512q-.436-18.6-1.1-37.2-.546-15.628-1.225-31.251c-.294-6.756-.6-13.512-.971-20.264q-.041-.734-.083-1.465c-.178-3.071-4.979-3.091-4.8,0Z"/><path class="d" d="M138.93,173.846c-.357,6.17-.637,12.346-.913,18.52q-.673,15.082-1.214,30.169-.663,18.381-1.134,36.769c-.316,12.578-.556,25.158-.656,37.739-.089,11.243-.083,22.49.209,33.729q.046,1.8.1,3.607c.1,3.081,4.9,3.095,4.8,0-.353-10.943-.4-21.9-.343-32.843.063-12.5.277-25.01.57-37.512q.436-18.6,1.1-37.2.546-15.628,1.225-31.251c.294-6.756.6-13.512.971-20.264q.041-.734.083-1.465c.178-3.086-4.622-3.076-4.8,0Z"/><path class="d" d="M141.156,176.16a183.9,183.9,0,0,1,23.835,11.584c3.856,2.23,7.64,4.583,11.384,7a80.332,80.332,0,0,1,10.512,7.673,48.52,48.52,0,0,1,8.953,10.782c1.606,2.633,5.759.224,4.144-2.423-4.747-7.779-11.334-13.756-18.917-18.7a237.967,237.967,0,0,0-23.878-13.976c-4.821-2.4-9.757-4.561-14.757-6.559a2.417,2.417,0,0,0-2.953,1.676,2.458,2.458,0,0,0,1.677,2.952Z"/><path class="d" d="M63.5,171.532A192.633,192.633,0,0,0,38.337,183.7c-4.053,2.349-8.026,4.833-11.958,7.378a82.17,82.17,0,0,0-11.022,8.2,53.018,53.018,0,0,0-9.414,11.49c-1.613,2.644,2.537,5.059,4.145,2.423,4.45-7.293,10.665-12.734,17.767-17.355a236.119,236.119,0,0,1,22.939-13.42c4.568-2.288,9.235-4.363,13.978-6.259a2.475,2.475,0,0,0,1.677-2.952,2.417,2.417,0,0,0-2.953-1.676Z"/><path class="d" d="M172.629,308.126c.381,8.461.652,16.927.657,25.4,0,3.088,4.8,3.093,4.8,0-.005-8.471-.276-16.937-.657-25.4-.138-3.077-4.939-3.094-4.8,0Z"/><path class="d" d="M74.7,153.319a74.209,74.209,0,0,1-.72,9.131,67.113,67.113,0,0,1-1.114,6.659c-.078.311-.255.907-.294,1a7.638,7.638,0,0,1-.57,1.02,6.517,6.517,0,0,1-1.848,1.435,34.93,34.93,0,0,1-4.976,1.768,2.457,2.457,0,0,0-1.676,2.953,2.423,2.423,0,0,0,2.952,1.676,39.524,39.524,0,0,0,6.274-2.331,9.527,9.527,0,0,0,4.564-5.533,43.872,43.872,0,0,0,1.252-6.932,84.265,84.265,0,0,0,.956-10.849c.06-3.09-4.74-3.089-4.8,0Z"/><path class="d" d="M124.371,153.319a98.2,98.2,0,0,0,1.409,13.62c.438,2.736.8,5.394,2.68,7.576,1.693,1.971,4.137,2.788,6.479,3.7,1.88.73,3.767,1.445,5.634,2.205a2.416,2.416,0,0,0,2.953-1.676,2.459,2.459,0,0,0-1.677-2.952c-1.651-.672-3.318-1.3-4.979-1.951s-3.615-1.152-4.835-2.511c-1.171-1.3-1.323-3.826-1.672-5.948a84.109,84.109,0,0,1-1.192-12.061c-.061-3.084-4.862-3.095-4.8,0Z"/><path class="d" d="M189.839,116.609c2.363-.73,4.665-1.733,6.973-2.617,2.591-.993,5.173-2.024,7.788-2.954a2.4,2.4,0,1,0-1.276-4.628c-2.615.93-5.2,1.961-7.788,2.953-2.308.884-4.61,1.888-6.973,2.618a2.4,2.4,0,1,0,1.276,4.628Z"/><path class="d" d="M189.235,132.753c4.893,1.822,9.845,3.543,14.808,5.167A2.421,2.421,0,0,0,207,136.243a2.455,2.455,0,0,0-1.677-2.952c-4.963-1.623-9.915-3.345-14.808-5.167a2.413,2.413,0,0,0-2.953,1.677,2.465,2.465,0,0,0,1.677,2.952Z"/><path class="a" d="M131.963,266.82c-6.009-17.758-9.843-30.094-12.051-45.488-1.126-7.844-.186-16.077-3.112-23.441-.551-1.388-1-3.752-1.694-4.793-2.618-11.113,1.417-24.519,1.151-30.785-4.785-11.734-6.267-14.334-7.387-18a5.009,5.009,0,0,1,3.434-5.831c-2.91-3.255-5.477-5.809-6.06-6.682-.743-1.114-1.466-1.835-1.532-3.029a3.358,3.358,0,0,1,2.718-3.5,4.96,4.96,0,0,1,.945-.046c-.036-.073-.055-.114-.055-.114a3.471,3.471,0,0,1-.513-4.184,3.371,3.371,0,0,1,3.263-1.542,14,14,0,0,1,4.841,1.368c.593.4,1.231.859,1.906,1.369l2.652-1.189a5.982,5.982,0,0,1,4.535.653,129.836,129.836,0,0,1,14.056,10.834c4.693,5.485,7.5,12.908,9.333,17,4.438,9.924-2.833,26.738-5.908,36.306-1.222,3.325-2.464,6.82-1.961,10.327a21.109,21.109,0,0,0,2.484,6.538q9.327,18.05,20.13,35.283"/><path class="e" d="M134.277,266.181c-3.275-9.684-6.515-19.4-8.933-29.344q-1.653-6.8-2.752-13.716c-.823-5.212-.83-10.458-1.322-15.7a41.646,41.646,0,0,0-1.426-8.062,65.836,65.836,0,0,0-2.156-6.421,19.034,19.034,0,0,1-1.037-6.583,59.732,59.732,0,0,1,.219-7.253c.374-4.389,1.163-8.725,1.612-13.1.081-.786.148-1.574.174-2.363a7.346,7.346,0,0,0-.63-3.29q-1.35-3.291-2.744-6.564c-.7-1.637-1.4-3.268-2.106-4.9l-.4-.936c-.054-.127-.227-.542-.014-.033-.058-.137-.115-.274-.172-.412-.207-.5-.412-1-.606-1.512-.177-.463-.347-.929-.506-1.4-.078-.233-.149-.467-.227-.7-.037-.11-.06-.226-.1-.335-.135-.383.005.416.01.1,0-.153-.009-.309-.008-.463,0-.065.071-.612.02-.309a6.742,6.742,0,0,0,.233-.756,2.765,2.765,0,0,1,1.435-1.3,2.468,2.468,0,0,0,1.677-2.952,2.419,2.419,0,0,0-2.953-1.676c-3.593,1.363-6.038,5-4.966,8.891a48.493,48.493,0,0,0,2.39,6.11c.611,1.421,1.227,2.84,1.834,4.263.924,2.163,1.664,4.51,2.753,6.589.675,1.287.175,3.4.005,4.861-.252,2.157-.579,4.3-.865,6.456a69.208,69.208,0,0,0-.739,15.057c.108,1.239.267,2.48.485,3.7a24.576,24.576,0,0,0,1.065,3.339c.738,2.274,1.6,4.549,2.144,6.877,1.251,5.336,1.023,10.878,1.529,16.305a127.989,127.989,0,0,0,2.51,15.087c2.482,11.465,6.185,22.617,9.939,33.716.984,2.91,5.622,1.661,4.628-1.277Z"/><path class="e" d="M125.676,154.1c-2.006-3.444-3.874-6.95-6.074-10.281-2.835-4.292-6.463-7.992-9.951-11.749-.468-.5-.907-1.04-1.38-1.538-.292-.308.075.1.109.147-.138-.209-.285-.412-.43-.617a4.383,4.383,0,0,1-.838-1.292c-.345-1.684,2.173-1.127,3-.773a9.631,9.631,0,0,1,2.369,1.926q1.466,1.332,2.868,2.733c1.738,1.742,3.388,3.568,4.993,5.433a53.851,53.851,0,0,1,8.51,13.6,2.481,2.481,0,0,0,2.953,1.676,2.414,2.414,0,0,0,1.676-2.952,55.6,55.6,0,0,0-8.65-14.434c-1.824-2.154-3.686-4.277-5.665-6.289q-1.524-1.549-3.131-3.013a17.459,17.459,0,0,0-3.45-2.807c-2.31-1.192-5.577-1.6-7.8-.031a5.808,5.808,0,0,0-1.541,7.844,29.534,29.534,0,0,0,3.742,4.569c1.939,2.073,3.87,4.153,5.7,6.323,3.577,4.236,6.064,9.184,8.839,13.949,1.554,2.668,5.7.255,4.145-2.423Z"/><path class="e" d="M110.017,123.416c-.911-1.17.232-1.715,1.273-1.609a10.225,10.225,0,0,1,3.618,1.162,48.971,48.971,0,0,1,7.757,6.636,65.215,65.215,0,0,1,8.576,10.664,89.486,89.486,0,0,1,4.376,8.438,2.423,2.423,0,0,0,3.283.861,2.448,2.448,0,0,0,.861-3.284c-1.288-2.606-2.43-5.256-3.947-7.748a69.77,69.77,0,0,0-8.18-10.664,62.531,62.531,0,0,0-7.8-7.2,17.06,17.06,0,0,0-3.942-2.573,15.49,15.49,0,0,0-4.714-1.1,5.883,5.883,0,0,0-5.446,2.721c-1.465,2.4-.729,5.015.889,7.092a2.413,2.413,0,0,0,3.394,0,2.462,2.462,0,0,0,0-3.394Z"/><path class="e" d="M121.107,123.249c2.056-.414,3.345.88,4.922,1.993,1.807,1.275,3.613,2.553,5.375,3.89,1.869,1.419,3.67,2.928,5.415,4.5a22.25,22.25,0,0,1,3.929,5.359,96.31,96.31,0,0,1,5.141,10.666,19.556,19.556,0,0,1,1.434,9.313c-.507,7.724-3.4,15.206-5.912,22.453-1.429,4.118-3.347,8.39-3.4,12.809-.061,5.158,3.032,9.836,5.365,14.236q8.288,15.626,17.691,30.625c1.635,2.612,5.79.205,4.144-2.423q-8.626-13.776-16.339-28.095-1.925-3.579-3.79-7.189c-1.043-2.022-2.162-4.147-2.259-6.469a19.892,19.892,0,0,1,1.581-7.456c.62-1.732,1.191-3.481,1.8-5.219,2.671-7.687,5.549-15.582,5.955-23.788a23.727,23.727,0,0,0-2.008-10.965,100.694,100.694,0,0,0-5.252-10.921,26.921,26.921,0,0,0-4.86-6.492c-2.046-1.828-4.179-3.551-6.368-5.2-2.042-1.544-4.141-3.011-6.231-4.487a9.568,9.568,0,0,0-3.381-1.777,9.935,9.935,0,0,0-4.222.019,2.4,2.4,0,1,0,1.276,4.628Z"/><path class="a" d="M74.326,266.82c6.008-17.758,9.842-30.094,12.051-45.488,1.125-7.844.186-16.077,3.111-23.441.552-1.388,1-3.752,1.694-4.793,2.619-11.113-1.417-24.519-1.15-30.785,4.785-11.734,6.267-14.334,7.387-18a5.01,5.01,0,0,0-3.435-5.831c2.911-3.255,5.478-5.809,6.061-6.682.743-1.114,1.465-1.835,1.532-3.029a3.36,3.36,0,0,0-2.718-3.5,4.965,4.965,0,0,0-.945-.046l.055-.114a3.471,3.471,0,0,0,.513-4.184,3.373,3.373,0,0,0-3.263-1.542,14.006,14.006,0,0,0-4.842,1.368c-.592.4-1.231.859-1.906,1.369l-2.651-1.189a5.981,5.981,0,0,0-4.535.653,129.836,129.836,0,0,0-14.056,10.834c-4.694,5.485-7.5,12.908-9.333,17-4.439,9.924,2.832,26.738,5.907,36.306,1.223,3.325,2.465,6.82,1.962,10.327a21.086,21.086,0,0,1-2.485,6.538q-9.327,18.05-20.129,35.283"/><path class="e" d="M76.64,267.458c3.379-9.992,6.721-20.023,9.161-30.294q1.694-7.126,2.771-14.38c.811-5.469.742-10.99,1.362-16.474a33.094,33.094,0,0,1,1.868-7.781c.371-1,.631-2.039.959-3.056a24.393,24.393,0,0,0,1.029-3.138,52.938,52.938,0,0,0,.233-15.255c-.455-4.265-1.3-8.506-1.56-12.791a4.239,4.239,0,0,1,.249-2.234c.573-1.234,1.041-2.528,1.566-3.783q1.08-2.578,2.191-5.144c1.045-2.421,2.155-4.832,2.994-7.335a7.518,7.518,0,0,0-4.74-9.591,2.419,2.419,0,0,0-2.952,1.676,2.453,2.453,0,0,0,1.676,2.952,2.781,2.781,0,0,1,1.332,1.125c.176.3.074.087.239.577a3.665,3.665,0,0,1,.107.452c-.1-.485.011.113.01.208,0,.307-.125.753.031.224-.06.2-.11.41-.172.613-.136.444-.292.884-.451,1.321-.148.409-.305.815-.466,1.219q-.136.345-.279.689c-.058.141-.406.973-.172.419-.514,1.214-1.041,2.422-1.562,3.633Q90.843,154.147,89.65,157c-.879,2.1-2.087,4.195-2.022,6.51.112,4.015.935,8.008,1.414,11.988a55.96,55.96,0,0,1,.3,14.464,40.752,40.752,0,0,1-1.8,6.192,55.346,55.346,0,0,0-1.993,7.1c-.907,5.4-.773,10.875-1.356,16.3a126.439,126.439,0,0,1-2.459,13.869c-2.476,11.132-6.079,21.972-9.729,32.762-.992,2.933,3.643,4.192,4.629,1.277Z"/><path class="e" d="M84.758,156.524c2.345-4.027,4.452-8.233,7.232-11.991a82.313,82.313,0,0,1,5.985-6.866,53.177,53.177,0,0,0,4-4.462c1.679-2.277,2.785-4.854,1.212-7.546-1.545-2.645-4.472-3.162-7.26-2.576-2.975.624-5.115,3.013-7.225,5.04-2.018,1.939-3.919,3.993-5.752,6.106A60.1,60.1,0,0,0,72.8,150.413a2.412,2.412,0,0,0,1.676,2.952,2.462,2.462,0,0,0,2.952-1.676A49.4,49.4,0,0,1,84.568,139.7a111.62,111.62,0,0,1,10.577-10.973c.84-.758,3.194-1.856,3.9-.65.364.623-.111,1.134-.473,1.653-.12.173-1.026,1.379-.453.676-.2.243-.405.48-.614.715-3.208,3.6-6.706,6.968-9.57,10.863-2.8,3.811-4.948,8.039-7.321,12.113-1.558,2.675,2.589,5.094,4.145,2.423Z"/><path class="e" d="M99.666,126.81c1.4-1.8,2.194-3.937,1.322-6.177a5.653,5.653,0,0,0-4.215-3.527c-3.178-.565-6.626.8-9.133,2.661a68.914,68.914,0,0,0-16.282,17.374,82.916,82.916,0,0,0-4.831,9.143,2.461,2.461,0,0,0,.861,3.284,2.423,2.423,0,0,0,3.284-.861,91.751,91.751,0,0,1,4.265-8.264A64.87,64.87,0,0,1,83.624,129.6a51.552,51.552,0,0,1,7.651-6.563,4.664,4.664,0,0,1,1.591-.733c.437-.131.88-.242,1.325-.339.125-.028,1.079-.191.807-.163,1.041-.106,2.185.439,1.274,1.609a2.479,2.479,0,0,0,0,3.394,2.416,2.416,0,0,0,3.394,0Z"/><path class="e" d="M86.458,118.621a8.534,8.534,0,0,0-6.737,1.145c-1.9,1.319-3.784,2.656-5.647,4.021-1.954,1.432-3.873,2.913-5.727,4.471a28.14,28.14,0,0,0-5.19,5.55,64.582,64.582,0,0,0-5.995,11.322c-.7,1.617-1.505,3.233-2.067,4.906a21,21,0,0,0-.963,5.561c-.428,8.149,2.4,16.353,5.023,23.946,1.33,3.855,2.948,7.731,3.908,11.693a11.481,11.481,0,0,1-.414,7.131,67.448,67.448,0,0,1-3.433,6.828q-8.481,16.065-18.138,31.47c-1.644,2.626,2.507,5.038,4.145,2.423q8.373-13.371,15.885-27.254,1.819-3.364,3.584-6.757a34.392,34.392,0,0,0,3.126-7.1c1.269-4.914-.56-9.5-2.1-14.1-2.442-7.3-5.341-14.556-6.472-22.216a22.645,22.645,0,0,1,.428-10.21A68.032,68.032,0,0,1,64,141.787a47.053,47.053,0,0,1,3.778-6.224,30.629,30.629,0,0,1,5.965-5.545c1.844-1.462,3.762-2.829,5.682-4.187,1.757-1.243,3.441-3.048,5.757-2.582a2.46,2.46,0,0,0,2.952-1.676,2.422,2.422,0,0,0-1.676-2.952Z"/><path class="b" d="M62.721,253.8c-9.659-7.345-20.131-15.62-23.564-18.788-3.08,6.43-7.23,14.79-11.09,22.35-.99,1.94-1.95,3.82-2.88,5.61v40.37a40.885,40.885,0,0,0,5.761,5.264c2.519,2.074,4.593,3.111,8.593,5.037,2.5,1.2,7.376,2.639,10.136,2.449a13.536,13.536,0,0,0,6.97-3c21.09-16.22,25.48-45.55,24.12-46.29C78.548,265.609,70.928,260.04,62.721,253.8Z"/><path class="b" d="M141.743,254.866c-7.658,5.8-14.549,10.815-16.639,11.941-1.359.732,3.03,30.065,24.114,46.287a13.591,13.591,0,0,0,6.976,3,23.88,23.88,0,0,0,12.088-3.339,65.3,65.3,0,0,0,12.393-9.619c.006-15.7.006-40.16.006-40.16-4.547-8.771-10.1-19.882-13.968-27.962C163.109,238.335,151.769,247.274,141.743,254.866Z"/><path class="d" d="M5.914,210.712A31.368,31.368,0,0,0,.9,224.605a141.031,141.031,0,0,0-.89,15.209,113.416,113.416,0,0,0,3.71,31.332,73.14,73.14,0,0,0,14.257,27.7,78.288,78.288,0,0,0,11.475,11.617,41.344,41.344,0,0,0,12.464,6.667,23.9,23.9,0,0,0,7.2,1.377,14.444,14.444,0,0,0,8.062-2.844,52.522,52.522,0,0,0,10.55-10.109,75.5,75.5,0,0,0,12.231-22.2,70.089,70.089,0,0,0,2.583-9.064,31.022,31.022,0,0,0,.849-6.254,4.694,4.694,0,0,0-.454-2.323,4.851,4.851,0,0,0-1.913-1.555c-1.87-1.179-3.664-2.482-5.455-3.775-11.169-8.056-22.124-16.326-32.623-25.237-.707-.6-1.41-1.207-2.093-1.835a2.425,2.425,0,0,0-3.77.486q-6.754,14.091-13.97,27.96c-1.421,2.738,2.72,5.168,4.145,2.422q7.2-13.869,13.97-27.96l-3.77.486c3.936,3.619,8.228,6.882,12.428,10.183q8.773,6.894,17.718,13.569c2.395,1.784,4.8,3.556,7.237,5.283a35.124,35.124,0,0,0,4.512,3.019c.531.262-.265-.261-.419-.458-.057-.073-.439-.936-.344-.628.14.45,0-.727,0,.026a19.6,19.6,0,0,1-.108,2.026c-.012.115-.1.815-.043.384s-.05.328-.068.446c-.089.572-.191,1.142-.3,1.711-.251,1.289-.55,2.568-.884,3.837a72.77,72.77,0,0,1-8.365,19.633,60.046,60.046,0,0,1-7.711,10.105,54.622,54.622,0,0,1-5.149,4.755c-1.823,1.475-4.008,2.939-6.417,3.1a17.27,17.27,0,0,1-6.177-1.14,38.865,38.865,0,0,1-6.109-2.717,40.1,40.1,0,0,1-10.987-8.871A88.8,88.8,0,0,1,16.9,289.365a67.21,67.21,0,0,1-6.417-12.859A95.837,95.837,0,0,1,4.94,247.475a145.88,145.88,0,0,1,.139-15.353c.142-2.392.317-4.787.579-7.168.016-.149.034-.3.051-.446.048-.4-.1.621.016-.105.054-.338.107-.675.169-1.01a30.235,30.235,0,0,1,.755-3.128,26.117,26.117,0,0,1,3.41-7.131c1.731-2.568-2.426-4.973-4.145-2.422Z"/><path class="d" d="M182.754,261.764q-7.189-13.875-13.968-27.962a2.425,2.425,0,0,0-3.77-.485c-4.178,3.837-8.741,7.291-13.2,10.787Q143,251.012,133.95,257.722c-2.309,1.706-4.627,3.4-6.99,5.034-1.359.937-3.76,1.9-4.283,3.572-.476,1.518-.11,3.366.107,4.89a56.824,56.824,0,0,0,1.713,7.745,77.128,77.128,0,0,0,10.028,21.717,63.082,63.082,0,0,0,9.121,10.819c3.788,3.541,8.313,7.266,13.812,7a28.061,28.061,0,0,0,14.166-5.055,68.46,68.46,0,0,0,10.763-8.625,74.93,74.93,0,0,0,17.186-25.888,98.838,98.838,0,0,0,6.14-31.139,145.948,145.948,0,0,0-.147-16.039c-.271-4.392-.5-8.888-1.828-13.114a30.606,30.606,0,0,0-3.784-7.928c-1.716-2.55-5.876-.15-4.145,2.422a26.2,26.2,0,0,1,3.458,7.306q.408,1.392.68,2.818c.073.382.134.765.2,1.148.116.727-.033-.294.016.106.021.175.041.349.06.524a151.689,151.689,0,0,1,.845,15.263,107.647,107.647,0,0,1-3.655,29.979A67.245,67.245,0,0,1,184,296.045a75.146,75.146,0,0,1-9.575,9.512c-1.719,1.386-3.549,2.636-5.392,3.852a25.017,25.017,0,0,1-6.339,3.251,19.479,19.479,0,0,1-6.027,1.053c-2.337-.036-4.542-1.366-6.33-2.768a54.435,54.435,0,0,1-9.447-9.594A70.487,70.487,0,0,1,130.1,280.818a67.934,67.934,0,0,1-2.261-8.364q-.156-.783-.286-1.571c-.043-.263-.081-.527-.122-.79-.064-.418.02.151.026.194-.018-.141-.037-.281-.052-.421-.074-.695-.12-1.383-.126-2.081a2.158,2.158,0,0,0,.021-.366c-.043-.2-.147.726-.039.329s-.139.309-.171.366a5.025,5.025,0,0,0-.552.591c-.255.322-.262.17-.058.082a12.593,12.593,0,0,0,1.866-1.182c2.049-1.373,4.048-2.824,6.039-4.279,10.881-7.949,21.72-16.11,31.994-24.836.685-.583,1.367-1.171,2.029-1.779l-3.769-.486q6.749,14.1,13.968,27.962c1.421,2.744,5.565.319,4.145-2.423Z"/><path class="d" d="M123.968,98.283c.77-.193,1.547-.357,2.331-.484l.321-.049q.4-.057-.153.018c.091-.067.381-.046.486-.058q.608-.066,1.217-.1a17.622,17.622,0,0,1,2.3.018,2.944,2.944,0,0,0,.608.061l-.341-.046c.1.014.2.03.293.047a10.48,10.48,0,0,1,1.119.258,2.4,2.4,0,0,0,1.276-4.629c-3.452-.99-7.3-.526-10.731.335a2.4,2.4,0,0,0,1.276,4.628Z"/><path class="d" d="M86.8,93.645A21.73,21.73,0,0,0,76.07,93.33a2.418,2.418,0,0,0-1.676,2.952,2.454,2.454,0,0,0,2.952,1.677c.373-.082.747-.157,1.124-.219l.324-.05-.313.041a2.131,2.131,0,0,1,.653-.073,18.289,18.289,0,0,1,2.158-.075c.368.01.736.03,1.1.062.2.017.4.039.6.061.6.064-.542-.095.054.01a24.086,24.086,0,0,1,2.477.557A2.4,2.4,0,0,0,86.8,93.645Z"/><path class="d" d="M99.49,92.942a18.231,18.231,0,0,1,3.153-3.116l-.486.375q.348-.267.706-.517a2.677,2.677,0,0,0,1.1-1.434,2.449,2.449,0,0,0-.242-1.85,2.425,2.425,0,0,0-1.434-1.1,2.374,2.374,0,0,0-1.849.242A20.264,20.264,0,0,0,96.1,89.548a2.678,2.678,0,0,0-.7,1.7,2.443,2.443,0,0,0,.7,1.7,2.412,2.412,0,0,0,1.7.7,2.316,2.316,0,0,0,1.7-.7Z"/><path class="d" d="M109.175,93.13a37.94,37.94,0,0,1,3.2-3.315,2.456,2.456,0,0,0,.7-1.7,2.663,2.663,0,0,0-.7-1.7,2.417,2.417,0,0,0-1.7-.7,2.551,2.551,0,0,0-1.7.7,37.94,37.94,0,0,0-3.2,3.315,2.465,2.465,0,0,0,0,3.394,2.412,2.412,0,0,0,1.7.7,2.337,2.337,0,0,0,1.7-.7Z"/></svg>