<?xml version="1.0" encoding="utf-8"?>
<!-- Uploaded to: SVG Repo, www.svgrepo.com, Generator: SVG Repo Mixer Tools -->
<svg width="800px" height="800px" viewBox="0 -65 540 540" xmlns="http://www.w3.org/2000/svg"><defs><style>.a{fill:#b3e1f9;}.b,.e{fill:#ffffff;}.c{fill:#659ad6;}.d{fill:#3f81cc;}.e{font-size:16px;font-family:rounded-mplus-2c-medium, "Rounded M+ 2c";font-weight:500;}.f{letter-spacing:-0.26em;}.g{font-family:rounded-mplus-2c-light, "Rounded M+ 2c";font-weight:300;letter-spacing:-0.24em;}.h{letter-spacing:-0.28em;}.i{fill:#fce0cd;}.j{fill:#211916;}</style></defs><rect class="a" width="540" height="410" rx="8"/><rect class="b" x="12" y="11" width="164" height="188" rx="8"/><path class="c" d="M20,11H168a8,8,0,0,1,8,8V43a0,0,0,0,1,0,0H12a0,0,0,0,1,0,0V19A8,8,0,0,1,20,11Z"/><path class="d" d="M20,11H44a0,0,0,0,1,0,0V43a0,0,0,0,1,0,0H12a0,0,0,0,1,0,0V19A8,8,0,0,1,20,11Z"/><rect class="b" x="188" y="11" width="164" height="188" rx="8"/><rect class="b" x="364" y="11" width="164" height="188" rx="8"/><rect class="b" x="12" y="209" width="164" height="188" rx="8"/><rect class="b" x="188" y="209" width="164" height="188" rx="8"/><rect class="b" x="364" y="209" width="164" height="188" rx="8"/><text class="e" transform="translate(72.581 33.815)">手のひら</text><text class="e" transform="translate(22.957 33.248)">1</text><path class="c" d="M20,209H168a8,8,0,0,1,8,8v24a0,0,0,0,1,0,0H12a0,0,0,0,1,0,0V217A8,8,0,0,1,20,209Z"/><path class="d" d="M20,209H44a0,0,0,0,1,0,0v32a0,0,0,0,1,0,0H12a0,0,0,0,1,0,0V217A8,8,0,0,1,20,209Z"/><text class="e" transform="translate(61.242 231.957)">親指のまわり</text><text class="e" transform="translate(23.524 231.39)">4</text><path class="c" d="M196,209H344a8,8,0,0,1,8,8v24a0,0,0,0,1,0,0H188a0,0,0,0,1,0,0V217A8,8,0,0,1,196,209Z"/><path class="d" d="M196,209h24a0,0,0,0,1,0,0v32a0,0,0,0,1,0,0H188a0,0,0,0,1,0,0V217A8,8,0,0,1,196,209Z"/><text class="e" transform="translate(231.377 231.957)">つ<tspan class="f" x="16" y="0">め</tspan><tspan class="g" x="27.84" y="0">・</tspan><tspan x="40" y="0">指のさ</tspan><tspan class="h" x="88" y="0">き</tspan></text><text class="e" transform="translate(199.272 231.39)">5</text><path class="c" d="M372,209H520a8,8,0,0,1,8,8v24a0,0,0,0,1,0,0H364a0,0,0,0,1,0,0V217A8,8,0,0,1,372,209Z"/><path class="d" d="M372,209h24a0,0,0,0,1,0,0v32a0,0,0,0,1,0,0H364a0,0,0,0,1,0,0V217A8,8,0,0,1,372,209Z"/><text class="e" transform="translate(432.581 231.957)">手くび</text><text class="e" transform="translate(375.02 231.39)">6</text><path class="c" d="M196,11H344a8,8,0,0,1,8,8V43a0,0,0,0,1,0,0H188a0,0,0,0,1,0,0V19A8,8,0,0,1,196,11Z"/><path class="d" d="M196,11h24a0,0,0,0,1,0,0V43a0,0,0,0,1,0,0H188a0,0,0,0,1,0,0V19A8,8,0,0,1,196,11Z"/><text class="e" transform="translate(248.612 33.815)">手のこう</text><text class="e" transform="translate(198.989 33.248)">2</text><path class="c" d="M372,11H520a8,8,0,0,1,8,8V43a0,0,0,0,1,0,0H364a0,0,0,0,1,0,0V19A8,8,0,0,1,372,11Z"/><path class="d" d="M372,11h24a0,0,0,0,1,0,0V43a0,0,0,0,1,0,0H364a0,0,0,0,1,0,0V19A8,8,0,0,1,372,11Z"/><text class="e" transform="translate(420.676 33.815)">指のあいだ</text><text class="e" transform="translate(375.304 33.248)">3</text><path class="i" d="M402.386,369.413c13.775,9.5,19,7,19,7,3.408-6.1,19.812-32.9,20.609-33.735a62.612,62.612,0,0,0,7.414-1.592c2.876-1.024,13.708-7.541,17.133-10.412,2.946-1.782-2.759-15.013-7.03-22.266-10.478-17.8-16.234-18.686-18.337-18.26a10.274,10.274,0,0,1-5.286,1.253,61.73,61.73,0,0,1,.7-9.34c1.1-3.959,1.446-7.1.038-11a9.871,9.871,0,0,0-1.406-2.6,5.378,5.378,0,0,0-3.064-1.316c-1.43.05-2.575,1.334-3.172,2.635a30.071,30.071,0,0,0-2.542,10.567c-.714,6.191-3.907,14.641-4.523,17.251-1.851,5.064-4.089,10.376-3.633,15.817a19.823,19.823,0,0,0,1,4.644,7.16,7.16,0,0,1-1.194,4.738c-.814,1.462-14.767,14.79-15.928,16-2.985,2.406-11.563,8.769-14.757,10.891,0,0-3.846,5.733,12.095,17.656Q401,368.459,402.386,369.413Z"/><path class="i" d="M414.99,326.525a19.5,19.5,0,0,0,3.126-3.909,7.156,7.156,0,0,0,1.193-4.739,19.863,19.863,0,0,1-1-4.643c-.456-5.442,1.782-10.753,3.633-15.817.615-2.61,3.809-11.06,4.522-17.251a30.109,30.109,0,0,1,2.542-10.567c.6-1.3,1.742-2.585,3.173-2.636a5.38,5.38,0,0,1,3.063,1.317,9.83,9.83,0,0,1,1.407,2.6c1.407,3.9,1.062,7.042-.038,11a61.806,61.806,0,0,0-.7,9.342,10.3,10.3,0,0,0,5.287-1.255c1.136-1.18,6.115-5.1,7.162-6.446,3.694-4.125,5.271-6.08,8.436-10.2,2.41-3.139,5.981-7.648,8.049-10.061a40.308,40.308,0,0,1,6.323-7.282,3.381,3.381,0,0,1,3.4-.363c1.809.978,2.193,2.47,2.191,4.322,0,2.012-2.231,5.615-4.925,8.825-2.345,3.695-5.466,7.5-7.192,9.791-2.487,3.479-4.979,7.091-7.588,11.124-.71,1.214,2.577,3.442,3.517,3,2.06-1.891,8.407-7.813,10.875-10.115,2.062-2.336,9.86-9.9,11.668-11.619,2.341-2.225,4.335-4.569,7.263-6.165a4.493,4.493,0,0,1,5.261,1.058,4.612,4.612,0,0,1,.3,3.511c-.925,2.815-5.656,7.1-6.625,8.092-.09.092-7.338,7.959-10.515,11.031-3.648,3.977-7.221,7.974-10.906,12.057-.373,1.025,1.146,3.31,2.72,3.367,2.344-.525,8.406-4.224,10.521-5.683,3.159-2.335,7.917-5.394,10.244-7.121l8.358-5.432c1.279-.831,2.818-1.7,4.252-.89a2.787,2.787,0,0,1,1.31,1.883,5.835,5.835,0,0,1-1.247,4.372,26.185,26.185,0,0,1-6.8,6.467c-1.9,1.52-8.766,6.622-10.971,7.936-1.6,1.483-8.087,5.991-9.223,6.813a2.62,2.62,0,0,0-.8,3.133c.42.672.892,1.358,1.652,1.12a101.349,101.349,0,0,1,10.158-1.07c1.889-.4,4.318-.842,6.235-1.053,2.563-.679,5.731-1.042,7.687-.01a3.584,3.584,0,0,1,1.083.811,2.141,2.141,0,0,1,.233,1.77,4.293,4.293,0,0,1-2.064,2.493,12.791,12.791,0,0,1-3.1,1.16c-1.23.341-3.02,1-4.25,1.338l-8.716,2.3a64.282,64.282,0,0,1-9.742,2.375c-.781.127-1.564.239-2.347.352-1.329.191-3.572,1.748-6.518,3.531-3.425,2.871-14.256,9.388-17.132,10.412a62.609,62.609,0,0,1-7.414,1.591,11.211,11.211,0,0,0-1.969,2.834"/><path class="i" d="M442.173,388.126a91.522,91.522,0,0,0-18.029-16.452c5.819-9.8,17.187-28.3,17.847-29,1.547-.31,3.776-.643,5.64-1.086l5.213,11.233a11.057,11.057,0,0,0,5.09,6.118l5.99,3.956s3.723,7.768-7.532,16.993S442.884,388.985,442.173,388.126Z"/><path class="j" d="M422.418,377.019c5.658-10.108,11.873-19.953,18.029-29.763.566-.9,1.133-1.8,1.712-2.7.177-.272.356-.542.535-.813.134-.2.41-.511.145-.218,1.035-1.143-.658-2.845-1.7-1.7A23.13,23.13,0,0,0,439,345.053q-2.175,3.444-4.3,6.918-5.286,8.575-10.466,17.215c-1.312,2.195-2.633,4.389-3.883,6.622-.755,1.349,1.317,2.561,2.072,1.211Z"/><path class="a" d="M395.443,326.45a7.226,7.226,0,0,1-1.509-8c1.3-2.6,4.607-2.645,7.13-2.67a1.217,1.217,0,0,0,1.158-.881c.263-1.358,1.673-2.439,2.864-3.064a7.779,7.779,0,0,1,6.708-.043c1.425.591,2.046-1.73.638-2.314a10.018,10.018,0,0,0-8.557.285c-1.693.887-3.586,2.526-3.968,4.5l1.157-.881c-3.546.036-7.668.5-9.339,4.144a9.679,9.679,0,0,0,2.021,10.628c1.115,1.068,2.815-.626,1.7-1.7Z"/><path class="j" d="M388.007,350.715c3.321-2.217,6.521-4.627,9.715-7.02a63.543,63.543,0,0,0,6.427-5.186c4.546-4.435,9.22-8.774,13.554-13.42a10.015,10.015,0,0,0,1.742-2.3,8.755,8.755,0,0,0,1.114-3.842c.011-1.7-.83-3.367-1.032-5.063-.713-5.985,2.176-11.26,3.771-16.823,1.265-4.408,2.838-8.713,3.767-13.215.545-2.642.629-5.34,1.184-7.978a27.8,27.8,0,0,1,1.208-4.154c.439-1.157,1.172-3.28,2.693-3.374,2.871-.179,3.834,4.087,4.1,6.151.374,2.9-.6,5.459-1,8.269a63.6,63.6,0,0,0-.535,6.894c-.093,2.976.356,5.847.445,8.808.047,1.541,2.447,1.547,2.4,0-.083-2.784-.527-5.493-.459-8.29a66.372,66.372,0,0,1,.448-6.64c.3-2.36,1.127-4.585,1.191-6.993a14.916,14.916,0,0,0-1.951-7.909c-1.08-1.8-3.529-3.157-5.65-2.525-2.63.784-3.676,3.868-4.431,6.2a52.714,52.714,0,0,0-1.57,8.75,58.662,58.662,0,0,1-1.792,7.69c-1.335,4.619-2.921,9.122-4.458,13.671a30.733,30.733,0,0,0-1.866,9.185,19.386,19.386,0,0,0,.459,4.479c.167.767.508,1.525.639,2.293a5.119,5.119,0,0,1-.645,3,8.382,8.382,0,0,1-.516.95c.034-.052.01,0-.174.206-.348.4-.706.785-1.07,1.169-1.079,1.141-2.189,2.253-3.3,3.361-2.569,2.562-5.169,5.091-7.771,7.618a68.385,68.385,0,0,1-6.387,5.627c-3.759,2.852-7.537,5.717-11.463,8.337-1.279.854-.078,2.933,1.211,2.073Z"/><path class="j" d="M423.683,372.7a84.58,84.58,0,0,1,17.642,16.277c.977,1.2,2.666-.509,1.7-1.7a86.709,86.709,0,0,0-18.128-16.652c-1.276-.877-2.478,1.2-1.211,2.072Z"/><path class="b" d="M399.274,345.459c-5.7.533-5.63,7.036-3.44,9.753a9.97,9.97,0,0,0,6.457,4c5.491.988,9.605-1.855,10.837-7.3a10.324,10.324,0,0,0,9.36,1.85,17.663,17.663,0,0,0,6.368-3.317,18.332,18.332,0,0,0,4.756-7.487c1.063-2.844.334-9.949-1.172-10.349,3.177-1.5,7.377-9.1,3.131-15.413-4.9-7.291-18.156-8.237-19.847-.218"/><path class="a" d="M399.274,344.259c-5.209-.477-7.192,6.425-5.274,10.325,2.564,5.211,9.575,7.5,14.781,5.066a10.631,10.631,0,0,0,5.5-7.416l-2.006.53c6.732,5.275,16.284,1.634,20.441-5.147a16,16,0,0,0,2.566-9.535c-.105-2.02-.24-5.782-2.527-6.627l.287,2.194c2.663-1.347,4.369-4.5,5.09-7.28a12.116,12.116,0,0,0-2.216-10.7c-3.5-4.372-10.176-6.69-15.59-5a8.191,8.191,0,0,0-5.763,6c-.344,1.5,1.969,2.145,2.315.638,1.039-4.537,6.164-5.334,10.078-4.407,5.358,1.269,9.956,5.773,9.112,11.639-.373,2.6-1.773,5.8-4.238,7.044a1.216,1.216,0,0,0,.287,2.194c-.36-.133-.109-.018.056.344a6.8,6.8,0,0,1,.392,1.386,17.74,17.74,0,0,1,.346,3.5,13.534,13.534,0,0,1-2.267,7.405c-3.249,5.311-11.2,8.946-16.672,4.661a1.216,1.216,0,0,0-2,.529c-.627,2.611-2.047,5.06-4.652,6.086a9.5,9.5,0,0,1-8.273-.944,6.821,6.821,0,0,1-3.355-6.029c.149-2.049,1.25-4.264,3.583-4.05,1.538.141,1.528-2.26,0-2.4Z"/><path class="i" d="M404.319,327.651c-.81-1.966,1.826-5.071,3.872-5.288,1.673-.177,3.493,1.283,4.861,2.19a29.942,29.942,0,0,1,6.563,5.827c1.813,2.224,3.564,4.512,3.28,7.449a5.158,5.158,0,0,1-1.236,2.64,2.968,2.968,0,0,1-3.888-.215c-4.613-4.618-13.881-11.9-13.452-12.6"/><path class="j" d="M405.476,327.332c-.457-1.291.876-2.746,1.882-3.383,1.618-1.025,3.31.43,4.642,1.338,3.437,2.341,6.83,5.194,8.867,8.9.839,1.526,1.326,3.585.211,5.117-1.045,1.435-2.428.121-3.215-.638-2.36-2.272-4.854-4.4-7.321-6.556-1.221-1.067-2.448-2.13-3.631-3.24-.389-.364-.777-.732-1.139-1.124-.071-.077-.49-.492-.252-.274.012.01-.08-.116-.079-.116-.02-.033-.039-.066-.056-.1a.98.98,0,0,1-.03,1,1.244,1.244,0,0,0-.431-1.642,1.208,1.208,0,0,0-1.642.43c-.478,1.125.357,1.961,1.1,2.715,1.132,1.147,2.361,2.2,3.571,3.265,1.588,1.392,3.186,2.772,4.766,4.175,1.45,1.287,2.811,2.68,4.264,3.96a4.111,4.111,0,0,0,5.721-.046,6.566,6.566,0,0,0,.963-6.529,19.456,19.456,0,0,0-4.488-6.5,38.792,38.792,0,0,0-6.321-5.11c-2.165-1.476-4.614-2.6-7-.9-1.749,1.247-3.5,3.653-2.7,5.9.512,1.446,2.831.824,2.315-.638Z"/><path class="i" d="M398.847,334.442a54.922,54.922,0,0,0,6.615,6.359,27.554,27.554,0,0,0,5.556,4c1.9.917,4.16.748,5.232-1.03s.189-3.785-1.544-5.659c-1.769-1.913-5.668-5.739-8.035-7.04a6.1,6.1,0,0,0-3.56-.893c-1.948.229-4.536,3.165-4.264,4.259"/><path class="j" d="M398,335.29a51.959,51.959,0,0,0,8.423,7.88c2.66,2.122,7.135,5.247,10.242,2.025a4.729,4.729,0,0,0,.656-5.445,15.823,15.823,0,0,0-3.354-4.126c-1.245-1.244-2.532-2.453-3.89-3.573a14.217,14.217,0,0,0-4.516-2.767,5.545,5.545,0,0,0-5.617,1.246c-1.188,1.007-2.528,2.566-2.253,4.231.251,1.52,2.564.875,2.314-.638.047.284-.006.1.08-.02.141-.187.233-.427.37-.622a6.569,6.569,0,0,1,1.272-1.324,3.324,3.324,0,0,1,3.782-.329c2.429,1.1,4.476,3.246,6.349,5.085,1.4,1.372,5.37,4.73,2.945,6.745a3.2,3.2,0,0,1-3.428-.013,22.685,22.685,0,0,1-4.3-3.037,52.25,52.25,0,0,1-7.374-7.015,1.209,1.209,0,0,0-1.7,0,1.227,1.227,0,0,0,0,1.7Z"/><path class="i" d="M409.435,321.325c1.1-2.061,2.413-3.537,4.331-3.648a8.221,8.221,0,0,1,3.147.549,20.263,20.263,0,0,1,9.516,8.844,3.924,3.924,0,0,1,.549,2.628,3.434,3.434,0,0,1-4.336,2.164,14.418,14.418,0,0,1-4.849-3.133c-2.668-2.581-5.522-4.869-8.358-7.4"/><path class="j" d="M410.471,321.93a6.47,6.47,0,0,1,2.233-2.717,4.291,4.291,0,0,1,3.2-.073,12.389,12.389,0,0,1,3.312,1.766,19.457,19.457,0,0,1,3.172,2.61,16.9,16.9,0,0,1,2.467,3.187c.578.969,1.524,2.415.555,3.424-1.879,1.957-5.036-.66-6.469-1.967-2.851-2.6-5.775-5.115-8.657-7.684-1.149-1.025-2.853.667-1.7,1.7,1.608,1.433,3.254,2.822,4.878,4.237,1.533,1.335,2.957,2.823,4.539,4.1,2.485,2,6.109,4.05,8.948,1.464,2.934-2.672.078-6.728-1.871-9.054a20.608,20.608,0,0,0-8.02-5.923,7.072,7.072,0,0,0-4.895-.169,8.019,8.019,0,0,0-3.766,3.894c-.741,1.356,1.331,2.569,2.072,1.211Z"/><path class="i" d="M398.84,336.346c-1.744.739-2.24,3.02-1.964,4.894a11.362,11.362,0,0,0,6.314,8.321,4.647,4.647,0,0,0,3.325.518,4.153,4.153,0,0,0,1.7-1.132,3.6,3.6,0,0,0,.825-1.2,3.444,3.444,0,0,0-.392-3.426c-.8-.876-2.683-1.639-3.542-2.455-2.032-1.932-4.21-3.488-6.263-5.522"/><path class="j" d="M398.234,335.31c-2.615,1.207-2.941,4.576-2.362,7.053a12.53,12.53,0,0,0,4.788,7.058,9.813,9.813,0,0,0,3.963,1.892,4.814,4.814,0,0,0,4.437-1.518,5.007,5.007,0,0,0,1.371-4.366,4.611,4.611,0,0,0-2.489-3.129,17.734,17.734,0,0,1-1.849-1.151c-.7-.561-1.336-1.223-2.021-1.806-1.481-1.261-2.994-2.481-4.383-3.845-1.1-1.083-2.8.613-1.7,1.7,2,1.964,4.218,3.723,6.323,5.574a23.2,23.2,0,0,0,2.755,1.817,1.972,1.972,0,0,1,.982,2.267,2.892,2.892,0,0,1-2.14,2.139,5.075,5.075,0,0,1-3.193-1.062,10.3,10.3,0,0,1-4.109-4.843c-.668-1.691-1.248-4.743.837-5.7a1.209,1.209,0,0,0,.43-1.641,1.228,1.228,0,0,0-1.642-.431Z"/><path class="j" d="M436.089,292.443a11.194,11.194,0,0,0,5.094-1.136,11.006,11.006,0,0,0,2.469-1.932,56.675,56.675,0,0,0,5.515-4.947c4.724-5.291,8.936-10.961,13.375-16.486,1.934-2.407,3.784-4.9,5.766-7.26,1.306-1.557,4.568-6.2,6.714-3.151,1.9,2.7-1.117,6.567-2.65,8.634-2.4,3.23-4.7,6.531-7.169,9.713-2.348,3.024-4.519,6.179-6.654,9.358q-.937,1.4-1.858,2.8a3.805,3.805,0,0,0-.931,2.048,3.92,3.92,0,0,0,1.937,2.828,4.005,4.005,0,0,0,3.065.964c.9-.244,1.753-1.359,2.422-1.979q3.2-2.964,6.382-5.939c3.568-3.328,6.911-6.886,10.4-10.3,1.575-1.54,3.176-3.053,4.747-4.6a50.746,50.746,0,0,1,4.061-3.8c1.53-1.2,3.2-2.325,5.126-1.305,2.852,1.511-.4,5.35-1.671,6.783s-2.666,2.683-3.964,4.06c-3.242,3.438-6.409,6.952-9.768,10.28-2.964,2.936-5.669,6.171-8.46,9.271q-1.162,1.29-2.325,2.581a2.832,2.832,0,0,0-1.076,2,4.7,4.7,0,0,0,2.042,3.455c2.229,1.589,4.983-.357,7.02-1.469a66.635,66.635,0,0,0,6.912-4.307c2.822-2.026,5.75-3.9,8.58-5.914,1.687-1.2,3.445-2.3,5.181-3.426l2.716-1.765a14.307,14.307,0,0,1,2.838-1.69,1.538,1.538,0,0,1,2.215,1.151,4.481,4.481,0,0,1-.9,3.09,19.6,19.6,0,0,1-3.76,4.212c-1.967,1.744-4.206,3.261-6.318,4.833-2.154,1.6-4.316,3.208-6.556,4.69-1.807,1.2-3.467,2.62-5.226,3.894a60.182,60.182,0,0,0-5.3,3.808,3.9,3.9,0,0,0-1.186,3.617c.262,1.217,1.358,2.617,2.7,2.626a21.382,21.382,0,0,0,2.795-.4q1.782-.237,3.572-.41c1.955-.19,3.889-.258,5.817-.633s3.9-.589,5.824-1.006a9.981,9.981,0,0,1,5.441-.041c2.656,1.015-.181,3.181-1.635,3.707-1.691.611-3.466,1.1-5.186,1.625-4.07,1.247-8.243,2.264-12.347,3.4a64.526,64.526,0,0,1-6.532,1.438,14.79,14.79,0,0,0-4.5,1.117,63.523,63.523,0,0,0-7.443,4.828,92.679,92.679,0,0,1-13.6,8.1c-2.454,1.136-5.44,1.362-8.112,1.886-1.515.3-.874,2.611.638,2.315,2.889-.567,5.9-.855,8.6-2.091a68.69,68.69,0,0,0,6.494-3.557c2.516-1.5,5-3.051,7.4-4.729a48.368,48.368,0,0,1,7.491-4.807c1.6-.725,3.587-.707,5.3-1.038a63.836,63.836,0,0,0,6.493-1.608c4.106-1.247,8.319-2.126,12.4-3.467,3.012-.991,7.55-1.738,8.031-5.622.51-4.117-5.042-4.433-7.831-4.063-1.887.251-3.773.641-5.652.958-2.075.35-4.081.629-6.179.813-2.132.186-4.257.445-6.374.753-.76.11-1.1.3-1.286-.641a1.541,1.541,0,0,1,.655-1.439c1.81-1.509,3.9-2.753,5.8-4.151,1.738-1.278,3.376-2.562,5.135-3.776,2.316-1.6,4.583-3.272,6.831-4.966a61.364,61.364,0,0,0,6.889-5.541c2.27-2.292,5.337-6.037,3.5-9.432-2.336-4.33-7.2-.443-9.842,1.273-3.228,2.1-6.4,4.256-9.586,6.418-2.628,1.784-5.179,3.7-7.867,5.395a42.427,42.427,0,0,1-7.608,4.137c-.581.214-.756.249-1.248-.167a2.78,2.78,0,0,1-.664-.851c-.278-.552-.161-.318.011-.636a16.753,16.753,0,0,1,2.327-2.582q1.236-1.374,2.474-2.747c4.34-4.814,8.868-9.43,13.293-14.165,2.8-2.992,6.012-5.792,8.393-9.122,1.517-2.121,2.633-5.638.318-7.665a5.93,5.93,0,0,0-4.184-1.407c-1.83.136-3.4,1.333-4.786,2.439-2.289,1.826-4.3,4.02-6.405,6.056q-2.916,2.819-5.793,5.677c-1.595,1.588-3.094,3.3-4.737,4.835q-3.111,2.9-6.223,5.8-1.5,1.395-3,2.786c-.08.075-1.095.965-1.076.994.049.078.422-.273.428-.183a2.415,2.415,0,0,1-.323-.091c-.257-.168-.563-.272-.822-.45a2.681,2.681,0,0,1-.967-.963c.069.158-.5.814.2-.166.142-.2.268-.413.4-.618q.531-.81,1.066-1.618,1.8-2.708,3.659-5.372c2.2-3.146,4.6-6.122,6.86-9.219,1.242-1.7,2.407-3.443,3.684-5.118a26,26,0,0,0,3.085-4.91c1.164-2.556,1.309-5.927-1.086-7.855-2.736-2.2-5.522-.45-7.534,1.693-2.1,2.238-3.842,4.742-5.789,7.1-2.3,2.787-4.532,5.629-6.735,8.492-2.158,2.8-4.349,5.567-6.68,8.227a56.647,56.647,0,0,1-6.024,5.885c-.865.736-1.695,1.549-2.59,2.248a7.421,7.421,0,0,1-4.59,1.238c-1.544-.075-1.54,2.325,0,2.4Z"/><path class="i" d="M447.337,341.969q-1.017-2.178-2.245-4.249a6.414,6.414,0,0,0-1.773-2.145,6.558,6.558,0,0,0-2.632-.865,71.672,71.672,0,0,0-9.881-.992c-1.345-.006-2.437,1.612-2.644,2.313a5.5,5.5,0,0,0,.147,4.008c1.038,2.052,3.585,2.723,5.828,3.228s4.79,1.315,5.648,3.448l1.823,4.227,8.039-3.563Z"/><path class="j" d="M440.822,346.11c-.945-2.133-3.186-3.161-5.316-3.742-1.927-.526-4.624-.715-5.895-2.485-1.142-1.591-.607-5.036,1.747-4.946a66.918,66.918,0,0,1,9.163.957,5.5,5.5,0,0,1,2.061.636,4.84,4.84,0,0,1,1.393,1.661,48.208,48.208,0,0,1,2.326,4.384c.658,1.4,2.727.179,2.072-1.211a45.33,45.33,0,0,0-2.406-4.518,6.314,6.314,0,0,0-3.442-2.953,27.558,27.558,0,0,0-5.116-.865q-2.647-.328-5.316-.459c-1.536-.075-2.765.025-3.883,1.193a5.614,5.614,0,0,0-1.486,3.355c-.386,3.128,1.416,5.38,4.221,6.485,2.526.994,6.536.856,7.8,3.719.625,1.409,2.693.189,2.073-1.211Z"/><path class="j" d="M446.3,342.575c.994,2.124,2.1,4.19,3.195,6.265,1.065,2.025,2.006,4.111,3.058,6.14a12.4,12.4,0,0,0,4.312,4.693c2.139,1.439,4.3,2.843,6.452,4.263,1.293.854,2.5-1.224,1.211-2.072q-2.994-1.978-5.989-3.956a9.287,9.287,0,0,1-4.22-4.755c-1.922-3.959-4.081-7.8-5.947-11.789-.654-1.4-2.724-.181-2.072,1.211Z"/><path class="i" d="M220.31,346.509a20.178,20.178,0,0,0,3.24-4.052,7.42,7.42,0,0,0,1.237-4.912,20.518,20.518,0,0,1-1.035-4.813c-.474-5.641,1.847-11.147,3.766-16.4.637-2.706,3.948-11.464,4.687-17.883a31.2,31.2,0,0,1,2.636-10.954c.619-1.348,1.8-2.679,3.288-2.732a5.568,5.568,0,0,1,3.176,1.365,10.2,10.2,0,0,1,1.458,2.7c1.459,4.043,1.1,7.3-.04,11.4a64.085,64.085,0,0,0-.722,9.685,10.689,10.689,0,0,0,5.48-1.3c1.177-1.223,6.339-5.286,7.424-6.683,3.83-4.276,5.464-6.3,8.746-10.577,2.5-3.253,6.2-7.928,8.343-10.429,1.746-2.659,5.489-6.867,6.555-7.548a3.5,3.5,0,0,1,3.522-.377c1.875,1.014,2.274,2.56,2.271,4.481,0,2.086-2.312,5.821-5.1,9.148-2.432,3.83-5.667,7.779-7.456,10.149-2.579,3.606-5.161,7.351-7.866,11.532-.737,1.259,2.671,3.568,3.646,3.113,2.135-1.96,8.715-8.1,11.273-10.486,2.137-2.422,10.222-10.263,12.1-12.044,2.427-2.307,4.494-4.737,7.529-6.391a4.657,4.657,0,0,1,5.454,1.1,4.78,4.78,0,0,1,.312,3.64c-.959,2.918-5.863,7.358-6.868,8.387-.093.1-7.607,8.251-10.9,11.436-3.781,4.123-7.486,8.266-11.305,12.5-.387,1.063,1.188,3.432,2.819,3.491,2.43-.545,8.714-4.378,10.907-5.891,3.275-2.421,8.207-5.592,10.619-7.382l8.664-5.631c1.326-.861,2.922-1.765,4.408-.923a2.889,2.889,0,0,1,1.358,1.952,6.051,6.051,0,0,1-1.293,4.532,27.141,27.141,0,0,1-7.047,6.7c-1.97,1.575-9.087,6.863-11.372,8.226-1.654,1.537-8.383,6.21-9.561,7.062a2.718,2.718,0,0,0-.833,3.249c.436.7.925,1.407,1.713,1.16a105.072,105.072,0,0,1,10.53-1.108c1.958-.418,4.476-.873,6.463-1.093,2.657-.7,5.942-1.079,7.969-.009a3.7,3.7,0,0,1,1.122.84,2.219,2.219,0,0,1,.242,1.835,4.453,4.453,0,0,1-2.139,2.584,13.224,13.224,0,0,1-3.215,1.2c-1.275.354-3.131,1.033-4.406,1.387l-9.035,2.389a66.753,66.753,0,0,1-10.1,2.462c-.81.131-1.622.248-2.433.364-1.378.2-3.7,1.813-6.756,3.661-3.551,2.976-14.779,9.732-17.761,10.794a65.032,65.032,0,0,1-7.686,1.649,11.645,11.645,0,0,0-2.04,2.938"/><path class="j" d="M243.7,317.236c-.051-1.8-.388-3.582-.464-5.385-.063-1.5-.031-3,.03-4.5a37.205,37.205,0,0,1,.859-7.695,18.409,18.409,0,0,0-.254-11.283,7.547,7.547,0,0,0-2.325-3.6,5.743,5.743,0,0,0-3.909-1.147c-3.47.544-4.719,4.981-5.5,7.841-.959,3.536-1.015,7.2-1.809,10.772a148.3,148.3,0,0,1-5.394,17.656c-1.519,4.238-2.826,8.737-2.34,13.287.238,2.23,1.51,4.586.791,6.78a15.535,15.535,0,0,1-3.925,5.7c-1.069,1.115.626,2.814,1.7,1.7,2.306-2.4,5.083-5.6,4.9-9.175-.093-1.835-.948-3.594-1.108-5.451a20.151,20.151,0,0,1,.4-5.8c.756-3.67,2.372-7.015,3.4-10.589.664-2.311,1.426-4.592,2.123-6.894a72.135,72.135,0,0,0,2.266-9.122c.589-3.565.775-7.057,2.027-10.493.468-1.284,1.183-3.57,2.79-3.838,1.383-.231,2.564.934,3.139,2.029a14.778,14.778,0,0,1,.87,10.33,45.7,45.7,0,0,0-1.074,8.29c-.08,1.631-.125,3.269-.072,4.9.062,1.9.421,3.781.475,5.685a1.2,1.2,0,0,0,2.4,0Z"/><path class="j" d="M242.182,311.135a11.708,11.708,0,0,0,5.425-1.248,13.025,13.025,0,0,0,2.64-2.139,56.7,56.7,0,0,0,5.83-5.325c4.989-5.656,9.461-11.7,14.2-17.553,2.007-2.478,3.886-5.073,5.979-7.477a19.2,19.2,0,0,1,2.795-2.9,2.408,2.408,0,0,1,3.805,1.017c1.3,3.255-1.881,7.033-3.738,9.379-2.543,3.215-4.809,6.67-7.325,9.921-2.549,3.293-4.875,6.774-7.176,10.244-.833,1.256-2.419,2.8-1.861,4.434a5.27,5.27,0,0,0,2.5,2.574c1.016.559,2.218.946,3.208.161.9-.717,1.72-1.59,2.565-2.374q3.436-3.192,6.865-6.394c3.748-3.5,7.244-7.277,10.921-10.853q2.8-2.726,5.6-5.452a18.817,18.817,0,0,1,4.638-3.6c1.412-.683,3.863-.186,4.139,1.585.45,2.879-2.634,5.586-4.439,7.425-1.08,1.1-2.192,2.162-3.242,3.293-3.851,4.149-7.883,8.135-11.692,12.318C280.7,311.6,277.5,315,274.467,318.535c-1.863,2.169,1.309,6.063,3.823,5.677a12.194,12.194,0,0,0,3.3-1.348c1.392-.695,2.747-1.464,4.084-2.258,2.589-1.538,5-3.3,7.481-5,3-2.053,5.966-4.153,9.01-6.131l5.982-3.888a8.609,8.609,0,0,1,2.664-1.429c1.219-.26,2,.672,2,1.838,0,1.925-1.564,3.735-2.8,5.073a27,27,0,0,1-4.445,3.914c-2.1,1.457-4.094,3.08-6.158,4.589-1.991,1.455-4.178,2.735-6.1,4.268-1.954,1.559-3.948,3.047-5.985,4.5-1.751,1.249-4.374,2.478-4.855,4.759a3.768,3.768,0,0,0,1.344,3.729,2.4,2.4,0,0,0,2.035.442c1.2-.177,2.4-.35,3.608-.494,2.195-.261,4.411-.321,6.6-.571,1.958-.224,3.888-.767,5.85-1.019s3.821-.845,5.822-.738a4.8,4.8,0,0,1,2.443.654c1.023.7.378,1.847-.377,2.53-1.461,1.319-3.8,1.606-5.623,2.2-2.046.673-4.12,1.213-6.2,1.764-4.482,1.185-8.91,2.64-13.467,3.515-1.814.348-3.815.365-5.523,1.1a35.91,35.91,0,0,0-4.608,2.641c-2.28,1.408-4.382,3.112-6.641,4.569-2.542,1.64-5.133,3.21-7.773,4.686a23.9,23.9,0,0,1-6.219,2.709c-1.637.383-3.3.642-4.95.948a2.747,2.747,0,0,0-1.969,1.21,13.7,13.7,0,0,0-1.574,2.429c-.7,1.374,1.372,2.59,2.073,1.211a6.472,6.472,0,0,1,1.583-2.4,8.245,8.245,0,0,1,2.481-.485,29.618,29.618,0,0,0,5-1.171,40.63,40.63,0,0,0,6.057-3.1c2.681-1.543,5.32-3.163,7.894-4.877,2.49-1.657,4.836-3.44,7.4-4.984a10.8,10.8,0,0,1,4.32-1.647c2.278-.34,4.538-.775,6.773-1.335,2.325-.584,4.6-1.331,6.92-1.944,2.273-.6,4.562-1.161,6.822-1.807,1.834-.524,3.668-1.116,5.483-1.7a7.432,7.432,0,0,0,4.556-3.269c2.171-4.126-2.578-5.956-5.876-5.846a53.9,53.9,0,0,0-5.706.858c-2.107.295-4.19.84-6.312.98-2.226.147-4.446.378-6.658.669-.584.077-2.434.6-2.824.392-.474-.253-.546-1.149-.354-1.635.332-.84,1.526-1.39,2.224-1.885q1.683-1.191,3.356-2.4c1.841-1.336,3.6-2.818,5.458-4.058,2.411-1.608,4.743-3.34,7.064-5.073,2.285-1.707,4.7-3.339,6.814-5.248,2.514-2.266,5.862-5.665,5.339-9.374a4,4,0,0,0-3.329-3.529c-1.989-.277-3.721,1.018-5.3,2.041-3.5,2.277-6.983,4.57-10.43,6.927-2.87,1.963-5.689,4.028-8.595,5.934a64.869,64.869,0,0,1-7.777,4.466,6.894,6.894,0,0,1-1.535.634c-.623.119-1.033-.258-1.431-.792-.6-.808-.481-.845.061-1.447q1.218-1.35,2.433-2.7c2.894-3.215,5.708-6.546,8.773-9.6,2.057-2.049,4.048-4.165,6.035-6.28,1.363-1.451,2.695-2.933,4.073-4.37,1.615-1.684,3.342-3.241,4.822-5.056,1.819-2.23,3.75-5.329,2.147-8.251a5.3,5.3,0,0,0-3.659-2.316,6.713,6.713,0,0,0-5.2,1.541,63.674,63.674,0,0,0-7.2,6.571q-2.973,2.863-5.906,5.77c-1.746,1.73-3.422,3.526-5.147,5.275-2.006,2.034-4.2,3.916-6.289,5.863q-1.7,1.578-3.394,3.154c-.392.363-.838.707-1.194,1.1-.448.5-.027-.053.16.073a7.178,7.178,0,0,0-.681-.243,5.933,5.933,0,0,1-1.37-1.053c-.177-.163-.229-.522-.266-.072.037-.453.963-1.479,1.209-1.853q1.872-2.844,3.813-5.642c2.275-3.282,4.733-6.4,7.114-9.607,1.325-1.782,2.5-3.675,3.877-5.418a30.743,30.743,0,0,0,3.453-5.212c1.277-2.56,1.81-5.975-.406-8.23-2.477-2.521-5.594-1.327-7.731.862-2.255,2.311-4.057,4.949-6.111,7.419-2.4,2.888-4.723,5.843-7.018,8.816-4.075,5.279-8.151,10.5-13.244,14.84-.967.823-1.921,1.658-2.879,2.491a7.456,7.456,0,0,1-4.847,1.349c-1.544-.075-1.54,2.325,0,2.4Z"/><path class="b" d="M251.176,354.835a8.906,8.906,0,0,1-6.727.548,6.945,6.945,0,0,1-4.222-7.183,6.41,6.41,0,0,1,.6-2.239c-2.669.345-6.126-1.521-8.331-3.514-2.291-2.069-2.582-5.283-2.33-8.36s2.641-6.071,5.72-6.292c-3.776-4.568-3.638-11.663-.331-16.581s9.272-7.679,15.194-7.914a19.5,19.5,0,0,1,2.162.032,11.2,11.2,0,0,1-.427-5.868c.653-4.181,4.83-6.237,8.363-6.954a7.831,7.831,0,0,1,8.576,5.05,13.672,13.672,0,0,1,14.734.848c4.169,3.128,6.919,8.549,4.936,13.908,0,0,11.186,7.047-11.743,29.141S251.176,354.835,251.176,354.835Z"/><path class="a" d="M236.169,343.4a6.757,6.757,0,0,1-3.466-2.746,9.55,9.55,0,0,1-1.339-4.746c-.077-2.939,1.165-6.565,4.577-6.926a1.219,1.219,0,0,0,.848-2.049c-4.126-5.156-2.788-12.9,1.709-17.337a18.575,18.575,0,0,1,19.312-3.936c1.431.579,2.053-1.741.638-2.314-7.343-2.97-16.811-.7-22.169,5.092-5.079,5.492-5.957,14.231-1.187,20.192l.849-2.048c-4.38.463-6.87,4.374-6.976,8.523a12.429,12.429,0,0,0,1.462,6.41,8.84,8.84,0,0,0,4.531,3.957c1.4.623,2.621-1.444,1.211-2.072Z"/><path class="a" d="M250.62,353.79a8.425,8.425,0,0,1-4.405.777,7.161,7.161,0,0,1-1.681-.46c-.222-.084.1.045.024.011s-.136-.061-.2-.092q-.248-.115-.488-.247a7.759,7.759,0,0,1-.885-.571c.194.144.01,0-.069-.063s-.137-.12-.2-.182c-.148-.139-.286-.286-.421-.437-.062-.07-.181-.222-.055-.057-.06-.079-.117-.159-.173-.241a5.629,5.629,0,0,1-.363-.619c-.048-.095-.095-.192-.136-.29.079.185-.019-.062-.041-.125a6.365,6.365,0,0,1-.208-.732,3.4,3.4,0,0,1-.111-.761,9.057,9.057,0,0,1-.012-1,11.546,11.546,0,0,1,.393-2.384,1.2,1.2,0,0,0-2.314-.638c-.687,2.665-.813,5.732.922,8.042a8.46,8.46,0,0,0,5.246,3.144,10.978,10.978,0,0,0,6.395-1,1.209,1.209,0,0,0,.431-1.642,1.229,1.229,0,0,0-1.642-.431Z"/><path class="a" d="M290.3,310.626c1.962-5.619-.64-11.526-5.192-15.035a14.921,14.921,0,0,0-16.24-1.076l1.763.717a9.219,9.219,0,0,0-7.347-5.974,12.111,12.111,0,0,0-6.484,1.309,9.924,9.924,0,0,0-4.8,4.357c-1.39,2.739-1.1,5.873-.241,8.727a1.2,1.2,0,0,0,2.314-.638c-.668-2.217-1.058-4.712,0-6.878a7.524,7.524,0,0,1,3.565-3.316,11.423,11.423,0,0,1,4.3-1.242,6.712,6.712,0,0,1,6.387,4.293,1.219,1.219,0,0,0,1.762.717,12.523,12.523,0,0,1,13.523.849c3.866,2.936,6.033,7.829,4.384,12.552-.51,1.462,1.808,2.09,2.314.638Z"/><path class="i" d="M318.621,350.826a64.551,64.551,0,0,1-7.164-8.874c-1.006-1.639-1.2-3.632-1.757-5.472-1.409-4.637-4.407-8.513-7.647-12.6-3.512-4.433-6.859-9.451-10.992-13.312-2.518-2.353-10.106-5.957-11.171-6.16-1.5-.285-3.74-1.107-5.1.174a3.679,3.679,0,0,0-.949,2.308l-.067.3c-.482-.248-1.937-.854-2.351-1.021-2.86-1.155-6.276.157-8.065,1.914-1.591,1.561-1.275,3.337-.989,5.349,4.588,1.963,1.06.3.236-.116l-.261-.091c-2.117-.74-5.331.2-7.47,2.4-.884.909-1.918,3.161.245,6.027,4.677,2.007.179-.087-.462-.442-2.347-1.463-5.342-.227-7.636,2.289-2.8,5.349-3.05,12.3-2.784,15.2.217,2.351,1.332,5.313,3.692,5.217,1.825-.074,2.914-1.992,3.756-3.613.8-1.546,2.359-3.738,4.051-3.608,1.211,1.207,2.569,2.623,3.946,4.107l-1.146.911c-1.593,1.165-2.953,4.429-3.338,6.921-.467,3.012,1.269,5.666,3.374,8.012,1.915,2.134,2.9,3.549,6.562,3.549,3.3.159,10.181,1.813,13.456,2.241,3.817,1.446,6.545,3.613,9.978,6.931"/><path class="j" d="M255.507,320.035c-1.036-2.118.3-4.546,2.367-5.426a6.44,6.44,0,0,1,4.411-.141,8.25,8.25,0,0,1,2.425,1.552,65.671,65.671,0,0,1,7.086,6.9c.934,1.038,1.843,2.1,2.745,3.164a9.423,9.423,0,0,0,1.427,1.544c1.235.927,2.433-1.155,1.211-2.072.388.29.061.018-.012-.078-.13-.17-.283-.328-.421-.491-.441-.518-.879-1.04-1.321-1.558-1.18-1.379-2.383-2.739-3.64-4.048-1.442-1.5-2.948-2.956-4.516-4.326a17.276,17.276,0,0,0-3.358-2.494,8.392,8.392,0,0,0-8.73.914,6.342,6.342,0,0,0-1.747,7.773c.678,1.387,2.749.172,2.073-1.212Z"/><path class="j" d="M286.385,318.261a16.8,16.8,0,0,1-2.034-2.487,40.913,40.913,0,0,0-3.913-4.221A38.285,38.285,0,0,0,273.2,306.6a10.363,10.363,0,0,0-7.414-1.16c-3.447.776-5.1,4.025-4.7,7.391.179,1.516,2.581,1.534,2.4,0a4.834,4.834,0,0,1,1.153-4.255,4.93,4.93,0,0,1,3.241-.981,9.821,9.821,0,0,1,5.216,1.687,30.59,30.59,0,0,1,7.049,5.35c1.094,1.143,2.12,2.348,3.115,3.578a11.084,11.084,0,0,0,1.431,1.75c1.195.954,2.9-.733,1.7-1.7Z"/><path class="j" d="M270.4,333.173c-3.562-3.631-6.9-7.773-11.129-10.667a28.36,28.36,0,0,0-4.623-2.631,6.6,6.6,0,0,0-6.093.757,8.679,8.679,0,0,0-2.575,2.257,15.073,15.073,0,0,0-1.512,3.642,32.439,32.439,0,0,0-1.345,6.747c-.34,3.4-.676,8.29,2.134,10.822a3.978,3.978,0,0,0,5.646-.443,14.717,14.717,0,0,0,1.966-3.039c.525-.941,1.448-2.6,2.66-2.733,1.519-.164,1.536-2.566,0-2.4-1.886.2-3.166,1.51-4.185,3.023-.836,1.24-1.57,3.859-3.254,4.168-1.733.319-2.395-2.267-2.6-3.518a20.129,20.129,0,0,1-.1-4.179,31.792,31.792,0,0,1,.844-5.879c.483-1.989,1.046-4.407,2.669-5.766,1.515-1.269,3.452-2.03,5.289-1.006,1.259.7,2.554,1.366,3.75,2.173,4.093,2.758,7.324,6.869,10.757,10.37,1.083,1.1,2.779-.593,1.7-1.7Z"/><path class="j" d="M269.5,350.465a109.064,109.064,0,0,0-7.629-9.055,91.441,91.441,0,0,0-8.139-8.237c-1.17-1-2.876.695-1.7,1.7a90.247,90.247,0,0,1,7.981,8.063,104.631,104.631,0,0,1,7.412,8.742c.9,1.236,2.983.04,2.072-1.211Z"/><path class="j" d="M257.686,340.859a9.9,9.9,0,0,0-2.735,4.2,11.539,11.539,0,0,0-.986,5.3c.355,3.483,2.923,6.538,5.367,8.879a7.225,7.225,0,0,0,3.487,1.928c1.463.314,2.99.238,4.472.456,3.3.484,6.549,1.255,9.839,1.8,4.17.687,7.647,3.965,10.588,6.794,1.114,1.071,2.813-.624,1.7-1.7a33.428,33.428,0,0,0-8.451-6.36c-2.647-1.274-5.726-1.515-8.6-2.066-1.526-.293-3.054-.582-4.592-.805-1.376-.2-2.8-.159-4.162-.4a5.425,5.425,0,0,1-3.068-1.838,22.593,22.593,0,0,1-3.128-3.906,6.983,6.983,0,0,1-.708-5.791,9.172,9.172,0,0,1,2.675-4.789c1.209-.961-.5-2.649-1.7-1.7Z"/><path class="j" d="M275,307.206c.222-1.054.333-2,1.609-2.12a9.064,9.064,0,0,1,2.965.477,16.929,16.929,0,0,1,2.895,1.22,30.832,30.832,0,0,1,8.814,5.67c3.607,3.649,6.5,7.914,9.661,11.939s6.516,8.151,7.822,13.2a27.071,27.071,0,0,0,1.111,3.864,17.963,17.963,0,0,0,2.3,3.653c1.731,2.3,3.7,4.408,5.6,6.562,1.026,1.159,2.718-.544,1.7-1.7-1.914-2.162-3.919-4.264-5.617-6.6a13.164,13.164,0,0,1-2.059-3.61c-.4-1.249-.608-2.554-1-3.807-1.686-5.368-5.379-9.656-8.754-14.031-3.241-4.2-6.27-8.822-10.283-12.349a37.241,37.241,0,0,0-9.471-5.513,15.7,15.7,0,0,0-4.652-1.32,4.521,4.521,0,0,0-3.427.77,4.71,4.71,0,0,0-1.523,3.054c-.317,1.507,2,2.151,2.314.638Z"/><path class="i" d="M60.7,364.027a12.53,12.53,0,0,0,.375-5.328c-1.694-2.782-2.809-3.024-4.406-6.5-2.291-4.989-4.619-8.78-5.6-14.716a55.424,55.424,0,0,0-3.819-8.812c-2.167-2.808-3.594-7.627-5.295-10.679-1.528-2.741-2.988-5.431-4.314-8.322-.564-1.229-1.191-2.989-1.7-4.175a14.043,14.043,0,0,1-1.122-3.187,4.185,4.185,0,0,1,.534-3.139,1.924,1.924,0,0,1,1.484-.949,3.891,3.891,0,0,1,1.645.362,11.028,11.028,0,0,1,4.889,5.551c1.121,1.812,2.24,3.45,3.256,5.326,1.851,2.556,4.207,5.717,6.241,8.384a1.31,1.31,0,0,0,1.846.244c.589-.485,1.045-.146.68-2.354s-1.859-7.883-2.275-10.821c-1.138-3.821-2.365-9.2-3.3-13.028-.932-3.918-1.659-6.13-1.513-9.5a5.023,5.023,0,0,1,1.731-3.969,2.861,2.861,0,0,1,2.514-.593c1.635.444,2.4,1.7,2.891,3.3,1.071,3.491,1.621,5.711,2.758,9.66.992,3.444,2.12,7.641,3.325,11.919,1.182,2.832,2.336,7.607,4.21,10.368a2.628,2.628,0,0,0,3.718-1.065c-.256-4.52-.339-11.249-.67-15.339-.271-3.349-.9-13.865-.929-14.383-.275-5.555-.938-7.315.209-11.144a2.928,2.928,0,0,1,2.543-2.449,3.927,3.927,0,0,1,4.548,2.627c1.061,3.144,1.118,5.09,1.624,9.634.39,3.508,1.025,11.411,1.336,15.885.336,4.845,1.151,9.857,1.644,14.669.677,1.036,3.629,1.272,3.876-.1.844-4.681,1.08-8.442,1.533-13.422.3-3.335.348-8.154.934-11.8-.052-2.822.363-7.6,1.948-9.559s2.417-2.287,4.529-1.881c1.252.24,1.836.69,2.325,2.629s.361,6.833,0,9.312c-.027,4.166-.29,8.868-.5,12.759-.28,5.113-.407,8.1-.345,13.562.013,1.144.405,3.923.738,6.288.038.217,2.613,0,2.613,0,1.351,2.9,6.226,12.13,7.665,19.635.671,3.5-.568,5.163-2.026,6.976l-1.068,1.328a21.2,21.2,0,0,1-4.954,7.36,30.455,30.455,0,0,1-3.63,2.845,6.966,6.966,0,0,0-2.075,4.254,21.307,21.307,0,0,0-.173,4.842"/><path class="j" d="M96.381,322.15c-.322-2.666-.793-5.315-1.046-7.99a73.666,73.666,0,0,1,.026-9.754c.147-3.747.4-7.488.564-11.234.086-1.941.165-3.887.176-5.831.007-1.418.244-2.841.3-4.264.088-2.51.339-5.9-1.181-8.078-1.34-1.919-4.7-2.087-6.482-.763-2.387,1.777-3.176,4.592-3.554,7.405-.192,1.425-.222,2.837-.279,4.269-.07,1.746-.39,3.5-.505,5.254-.268,4.067-.521,8.124-.9,12.184-.195,2.07-.423,4.136-.751,6.19-.117.733.08,1.485-.629,1.62a1.651,1.651,0,0,1-1.5-.5l.351.849c-.609-5.84-1.409-11.638-1.85-17.5-.339-4.515-.693-9.033-1.183-13.535a68.878,68.878,0,0,0-.885-6.838c-.423-1.994-.97-4.2-2.785-5.385a5.4,5.4,0,0,0-5.426-.195c-1.73,1.012-2.188,3.306-2.452,5.136-.485,3.358.143,6.874.344,10.24q.312,5.226.66,10.45c.294,4.3.506,8.6.653,12.913.042,1.216.085,2.432.14,3.647.016.349.181.992.011,1.3a1.447,1.447,0,0,1-1.593.447c-.331-.212-.586-1.023-.754-1.365-.257-.523-.487-1.057-.7-1.6-.5-1.252-.922-2.532-1.354-3.807-1.819-5.372-3.265-10.848-4.811-16.309-.707-2.5-1.377-5.007-2.124-7.493-.648-2.156-1.58-4.334-3.977-4.955-2.234-.579-4.232.92-5.156,2.87-.948,2-.7,4.54-.389,6.662.369,2.5,1.088,4.957,1.679,7.413.635,2.643,1.258,5.289,1.94,7.921,1.129,4.353,2.092,8.748,3.027,13.152.083.39.167.78.233,1.173.052.309-.035.968.118,1.22-.131-.216.491-.234.14-.261-.058,0-.185.132-.23.139-.308.05-.128.2-.447.074-.337-.136-.706-.88-.921-1.164-1.708-2.259-3.516-4.494-5.084-6.853-1.524-2.293-2.819-4.753-4.233-7.111a10.45,10.45,0,0,0-4.981-4.582,3.556,3.556,0,0,0-4.864,2.647c-.7,2.621.841,5.189,1.763,7.546,2.02,5.162,5.054,9.8,7.224,14.883a35.313,35.313,0,0,0,3.32,6.61,22.538,22.538,0,0,1,1.967,3.833A29.28,29.28,0,0,1,49.91,337.8a47.979,47.979,0,0,0,2.358,7.822c1.037,2.431,2.236,4.793,3.368,7.181a29.949,29.949,0,0,0,3.507,5.167,3.636,3.636,0,0,1,.882,2.83,13.445,13.445,0,0,1-.479,2.907,1.2,1.2,0,0,0,2.314.638,16.036,16.036,0,0,0,.58-3.882,5.472,5.472,0,0,0-1.319-3.831c-.716-.953-1.544-1.819-2.2-2.815a39.385,39.385,0,0,1-2.355-4.635,49.846,49.846,0,0,1-3.848-9.628A35.2,35.2,0,0,0,51.7,335.6c-.431-1.153-.913-2.288-1.408-3.415-.467-1.062-.946-2.122-1.472-3.156-.434-.853-1.021-1.588-1.5-2.412-1.672-2.843-2.624-6.034-4.171-8.938A99.875,99.875,0,0,1,38,307.432a44.008,44.008,0,0,1-1.882-4.824c-.394-1.509-.081-3.853,1.929-2.9a8.241,8.241,0,0,1,3.244,3.1c.946,1.5,1.772,3.064,2.714,4.566,1,1.6,1.94,3.179,3.059,4.7q1.717,2.336,3.465,4.649c.878,1.164,1.727,2.837,3.4,2.835a3.439,3.439,0,0,0,2.364-1.183c.715-.9.4-2.229.214-3.261-.22-1.226-.516-2.441-.8-3.655-.645-2.814-1.116-5.685-1.885-8.463-.918-3.319-1.7-6.676-2.5-10.024-.772-3.209-1.84-6.47-1.83-9.8,0-1.414.152-2.985,1.4-3.907,1.393-1.031,2.759.451,3.23,1.677,1.224,3.189,1.92,6.649,2.86,9.929,1.091,3.806,2.123,7.628,3.192,11.44a67.886,67.886,0,0,0,3.211,8.9c.589,1.337,1.154,2.863,2.676,3.291a3.835,3.835,0,0,0,3.827-1.054c1.123-1.2.7-2.787.638-4.3-.066-1.656-.117-3.313-.174-4.969-.1-2.845-.232-5.682-.44-8.521-.315-4.284-.574-8.574-.823-12.863-.138-2.375-.434-4.758-.468-7.136-.028-1.956.049-5.682,2.595-5.827,3.029-.173,3.449,3.709,3.784,5.947.42,2.816.654,5.675.913,8.51.615,6.712.962,13.447,1.8,20.137.247,1.971.506,3.941.726,5.916a3.4,3.4,0,0,0,.595,2.165,3.341,3.341,0,0,0,1.384.814,4.2,4.2,0,0,0,3.3-.186c1.314-.766,1.273-2.483,1.471-3.821,1.043-7.044,1.1-14.153,1.863-21.216.319-2.942.184-5.981,1.054-8.844a5.776,5.776,0,0,1,2.08-3.119,2.846,2.846,0,0,1,2.947.094c.785.7.793,2.414.847,3.389a40.082,40.082,0,0,1-.033,4.506c-.2,3.39-.312,6.778-.473,10.175-.171,3.621-.416,7.239-.541,10.863a68.129,68.129,0,0,0,.028,9.26c.264,2.586.708,5.149,1.02,7.729.183,1.514,2.586,1.533,2.4,0Z"/><path class="b" d="M101.857,300.021c-3.034-5.638-11.3-3.209-13.156-2.148-3.576,2.049-5.183,6.616-5.2,10.738a8.457,8.457,0,0,0,5.061,8.291,12.654,12.654,0,0,0-5.085,3.823c-1.832,2.184-2.267,5.6-2.273,8.447-.007,3.185,2.751,10.408,6.173,12.562,4.538,2.855,15.4,4.525,21.67-1.984"/><path class="a" d="M102.893,299.416c-2.619-4.624-8.5-4.859-13.042-3.321C84.208,298,81.7,304.683,82.4,310.251a9.691,9.691,0,0,0,5.55,7.687v-2.073c-3.69,1.876-6.591,4.491-7.5,8.7a17.749,17.749,0,0,0,1.055,10.818c1.323,3.234,3.187,6.469,6.445,8.038a21.857,21.857,0,0,0,9.924,2.027,17.258,17.258,0,0,0,12.013-4.849c1.087-1.1-.609-2.8-1.7-1.7-4.629,4.679-12.129,5.1-18.046,2.865-2.808-1.062-4.44-3.118-5.749-5.766a16.488,16.488,0,0,1-1.9-9.045,10,10,0,0,1,2.182-5.8,14.016,14.016,0,0,1,4.482-3.216,1.208,1.208,0,0,0,0-2.073,7.676,7.676,0,0,1-4.461-7.608c.085-3.266,1.231-7,4.011-8.972a10.83,10.83,0,0,1,5.469-1.625c2.66-.165,5.251.518,6.639,2.967a1.2,1.2,0,0,0,2.072-1.211Z"/><path class="i" d="M149.624,355.684c-4.11-4.515-5.674-5.844-7.427-9.292-1.248-2.593-.188-13.856-1-17.514-1.222-5.94-2.222-11.216-3.375-15.959-.625-2.573-2.945-5.84-6-6.51-1.039-.228-4.142.265-5.365,2.352,0,0-.143.2-.327.457a6.677,6.677,0,0,0-6.9-1.641,5.284,5.284,0,0,0-3.13,3.68L116,311.6c-1.46-1.424-4.467-1.888-7.077-.9-.949.359-1.9,1.4-2.268,3.982,0,0-.039.2-.094.493-1.381-2.069-4.3-2.2-7.146-1.016a4.05,4.05,0,0,0-2,5.141c1.351,2.9,6.226,12.13,7.665,19.635.671,3.5-.568,5.163-2.026,6.976l-1.067,1.327a20.227,20.227,0,0,1-2.936,5.057c3.778,1.959,9.435,4.9,11.356,6.124,2.588,2.663,4,5.5,5.549,9.559"/><path class="j" d="M127.5,309.367a4.512,4.512,0,0,1,4.01-1.8c2.076.253,3.79,2.436,4.627,4.177.973,2.026,1.246,4.513,1.711,6.7.561,2.636,1.086,5.278,1.621,7.919a33.691,33.691,0,0,1,.823,5.337c.075,1.793.055,3.59.048,5.384-.007,1.821-.021,3.644.063,5.463a13.943,13.943,0,0,0,.536,3.917c1.376,3.925,5.125,7.1,7.84,10.072,1.043,1.143,2.737-.558,1.7-1.7-1.625-1.781-3.334-3.5-4.865-5.366a13.22,13.22,0,0,1-2.451-3.94,16.8,16.8,0,0,1-.4-4.407c-.043-2.081-.009-4.163-.012-6.244a44.324,44.324,0,0,0-.191-5.076c-.293-2.513-.957-5.008-1.459-7.486-.553-2.725-1.112-5.45-1.739-8.159a13.6,13.6,0,0,0-2.652-5.918c-1.386-1.679-3.533-3.2-5.805-3.068a6.938,6.938,0,0,0-5.471,2.985c-.84,1.3,1.237,2.506,2.072,1.211Z"/><path class="j" d="M107.807,315a8.562,8.562,0,0,1,.487-1.971c-.058.142.109-.223.1-.2.055-.108.114-.214.178-.317.015-.023.182-.271.1-.153-.075.1.113-.13.138-.156.066-.07.137-.133.207-.2s-.185.095.041-.027c.1-.056.489-.229.185-.12a7.58,7.58,0,0,1,1.9-.454,6.091,6.091,0,0,1,3.263.526,2.963,2.963,0,0,1,1.054.852c.288.344.753.93.883,1.1a1.24,1.24,0,0,0,1.642.431,1.209,1.209,0,0,0,.431-1.642,9.058,9.058,0,0,0-2.8-2.814,8.288,8.288,0,0,0-4.646-.838,6.09,6.09,0,0,0-3.823,1.451,6.943,6.943,0,0,0-1.648,3.893,1.238,1.238,0,0,0,.838,1.476,1.208,1.208,0,0,0,1.476-.838Z"/><path class="j" d="M128.818,310.5a15.029,15.029,0,0,0-2.423-2.67,8,8,0,0,0-4.476-1.78,6.8,6.8,0,0,0-4.3,1.008,7.2,7.2,0,0,0-2.671,3.882c-.471,1.475,1.845,2.106,2.314.638a4.5,4.5,0,0,1,1.782-2.587,4.769,4.769,0,0,1,3.04-.526,5.347,5.347,0,0,1,2.888,1.294,13.659,13.659,0,0,1,.986,1.041c.162.181.323.362.481.545.086.1.171.2.256.3.047.055.247.325.055.064a1.236,1.236,0,0,0,1.642.43,1.208,1.208,0,0,0,.43-1.641Z"/><path class="j" d="M103.9,346.757c1.791-2.236,2.851-4.437,2.454-7.377a40.949,40.949,0,0,0-2.731-9.285c-1.1-2.794-2.338-5.53-3.641-8.234-.89-1.846-2.8-4.633-.577-6.32a5.721,5.721,0,0,1,4.981-.653c1.134.483,1.994,1.934,2.717,2.9.916,1.22,3,.025,2.072-1.212a21.872,21.872,0,0,0-2.384-2.96,5.909,5.909,0,0,0-4.3-1.4c-3.208.164-6.326,1.8-6.515,5.32-.134,2.475,1.728,5.063,2.742,7.226a83.325,83.325,0,0,1,4,9.881,21.451,21.451,0,0,1,1.352,5.96,6.781,6.781,0,0,1-1.861,4.456c-.956,1.194.732,2.9,1.7,1.7Z"/><path class="j" d="M117.108,367.657a37.878,37.878,0,0,0-2.994-6.418,21.941,21.941,0,0,0-1.946-2.662,8.091,8.091,0,0,0-2.156-1.807c-3.3-1.964-6.714-3.733-10.107-5.524-1.365-.721-2.579,1.35-1.212,2.072,3.226,1.7,6.464,3.394,9.615,5.233a6.947,6.947,0,0,1,1.841,1.354,17.986,17.986,0,0,1,1.766,2.343,33.716,33.716,0,0,1,2.879,6.047c.547,1.428,2.868.808,2.314-.638Z"/><path class="j" d="M101.735,344.974c-.762,1.58-1.439,3.223-2.331,4.737a22.961,22.961,0,0,1-3.226,4.038c-1.655,1.743-4.066,2.575-5.143,4.85-1.178,2.487-1.184,5.249-1.086,7.939.056,1.54,2.456,1.547,2.4,0-.088-2.414-.269-5.309,1.142-7.424a10.23,10.23,0,0,1,2.684-2.211,16.9,16.9,0,0,0,2.6-2.456,22.807,22.807,0,0,0,2.746-3.6c.867-1.492,1.535-3.105,2.284-4.658.668-1.385-1.4-2.6-2.072-1.211Z"/><path class="a" d="M102.029,291.583c.762-1.582,2.049-2.913,3.937-2.885a3.541,3.541,0,0,1,3.345,2.717,1.213,1.213,0,0,0,2.006.529,8.968,8.968,0,0,1,7.262-2.328c2.26.344,4.861,1.846,4.925,4.392a1.2,1.2,0,0,0,2.4,0c-.088-3.5-3.089-5.962-6.326-6.638a11.416,11.416,0,0,0-9.958,2.877l2,.53a5.976,5.976,0,0,0-5.314-4.463,6.672,6.672,0,0,0-6.354,4.057c-.668,1.386,1.4,2.6,2.072,1.212Z"/><path class="a" d="M417.4,86.314a10.075,10.075,0,0,0-10.7,1.672c-3.226,2.927-2.2,7.241-.82,10.81l.309-1.167a8.507,8.507,0,0,0-1.363,9.215c.632,1.406,2.7.187,2.072-1.212a6,6,0,0,1,.988-6.306,1.2,1.2,0,0,0,.309-1.168c-1-2.588-2.308-6,0-8.284a7.578,7.578,0,0,1,7.991-1.487c1.4.634,2.617-1.434,1.212-2.073Z"/><path class="i" d="M400.784,166.509c1.217-2.808,3.739-5.035,4.334-8.037a13.5,13.5,0,0,0-.03-4.078l-1.823-16.7c-.48-4.4-.778-9.419,2.74-12.436q.573.714,1.193,1.41c4.12,5.057,8.122,13.621,9.629,15.988,2.444,5.086,4.791,10.642,9.2,14.274a20.754,20.754,0,0,0,4.211,2.642,7.488,7.488,0,0,1,2.68,4.355,20.337,20.337,0,0,1,.647,5.2"/><path class="a" d="M481.918,141.215a8.265,8.265,0,0,0,10.192-10.246l-1.763,1.356c4.4,2.34,8.637-2.511,9.251-6.544a8.546,8.546,0,0,0-5.809-9.657c-1.475-.471-2.107,1.846-.638,2.314a6.042,6.042,0,0,1,4.156,6.351,6.99,6.99,0,0,1-1.648,4.077c-.956,1.106-2.644,2.16-4.1,1.386a1.215,1.215,0,0,0-1.763,1.355,5.939,5.939,0,0,1-7.24,7.294,1.2,1.2,0,0,0-.638,2.314Z"/><path class="i" d="M433.568,169.124a20.337,20.337,0,0,0-.647-5.2,7.488,7.488,0,0,0-2.68-4.355,20.754,20.754,0,0,1-4.211-2.642c-4.412-3.632-6.759-9.188-9.2-14.274-1.507-2.367-5.509-10.931-9.629-15.988a31.507,31.507,0,0,1-6.064-9.622c-.539-1.4-.666-3.194.341-4.3a5.633,5.633,0,0,1,3.224-1.335,10.3,10.3,0,0,1,2.979.848c3.952,1.793,6.055,4.346,8.218,8.062a64.715,64.715,0,0,0,6.494,7.345,10.781,10.781,0,0,0,2.92-4.879c-.055-1.713.643-8.308.4-10.077-.394-5.781-.708-8.39-1.487-13.775-.594-4.1-1.365-10.068-1.664-13.38-.693-3.136-1.1-5.972-.841-7.222a3.54,3.54,0,0,1,2.209-2.813c2.054-.641,3.453.16,4.84,1.514,1.507,1.472,2.58,5.773,3.019,10.136,1.057,4.457,1.634,6.743,2.087,9.707.791,4.405,1.68,8.911,2.8,13.812.392,1.419,4.462.581,4.82-.444.086-2.925.283-12.007.359-15.538-.246-3.252-.221-11.787-.189-14.4.042-3.38-.259-6.587.683-9.947a4.7,4.7,0,0,1,4.635-3.171,4.823,4.823,0,0,1,2.852,2.338c1.435,2.749,1.191,9.424,1.227,10.875,0,.135.607,8.479.59,13.1.318,5.639.7,11.237,1.074,16.98.5,1.028,3.318,1.559,4.51.42,1.318-2.141,2.973-9.385,3.424-12.036.556-4.074,1.737-9.874,2.142-12.88.678-3.41,1.355-3.986,2.032-7.4.311-1.565.782-3.356,2.438-3.837a2.92,2.92,0,0,1,2.369.393A6.11,6.11,0,0,1,472,79.276a13.984,13.984,0,0,1-.117,6.984c-.248,2.534-1.438,11.406-2.063,14.018-.053,2.279-1.415,10.437-1.628,11.889a2.743,2.743,0,0,0,1.762,2.891c.811.175,1.669.322,2.046-.422a105.967,105.967,0,0,1,6.616-8.394c1.077-1.711,2.522-3.852,3.764-5.444,1.362-2.417,2.376-4.422,4.577-5.134a3.747,3.747,0,0,1,1.4-.219,2.238,2.238,0,0,1,1.5,1.117,4.5,4.5,0,0,1,.361,3.368,13.342,13.342,0,0,1-1.395,3.171c-.642,1.172-1.458,2.992-2.1,4.163-1.546,2.739-2.064,4.842-3.61,7.581a67.155,67.155,0,0,1-5.334,9.037c-.475.678-.963,1.348-1.45,2.017-.827,1.135-1.3,3.954-2.112,7.464-.35,4.664-3.374,17.543-4.707,20.446a65.587,65.587,0,0,1-4.222,6.72,11.763,11.763,0,0,0,.686,3.545"/><path class="j" d="M423.832,132.67c2.646-4.743,2.7-10.709,3.017-15.992.381-6.431-.75-12.925-1.644-19.276-.493-3.5-.954-7.013-1.319-10.531-.2-1.9-.667-3.743-.906-5.638-.168-1.327-.442-3.136.656-4.171,1.379-1.3,3.437-.222,4.44.985a10.969,10.969,0,0,1,1.752,4.493c.5,2.158.66,4.365,1.173,6.519.391,1.641.788,3.282,1.132,4.934.763,3.662,1.331,7.365,2.083,11.032q.3,1.474.621,2.945a19.777,19.777,0,0,0,.735,3.188,2.746,2.746,0,0,0,2.76,1.48,6.176,6.176,0,0,0,3.43-.962c.983-.69.932-1.621.961-2.712.076-2.923.139-5.847.2-8.77.12-5.429-.093-10.84-.088-16.271,0-3.082-.106-6.193.05-9.27.088-1.727.118-4.237,1.585-5.43a2.76,2.76,0,0,1,2.785-.66c2.6,1.363,2.472,5.5,2.556,7.992.057,1.688.009,3.371.12,5.056.44,6.7.58,13.4,1.012,20.1q.228,3.526.46,7.053a5.4,5.4,0,0,0,.373,2.482,3.051,3.051,0,0,0,1.518,1.121,5.009,5.009,0,0,0,3.988-.066c1.127-.579,1.506-1.775,1.919-2.9,2.13-5.79,2.831-11.984,3.9-18.021a69.9,69.9,0,0,1,2.1-9.5c.512-1.575.609-3.37,1.3-4.873,1-2.186,3.162-.719,3.849.9,1.342,3.157.576,6.283.2,9.516-.317,2.722-.694,5.438-1.111,8.146-.332,2.154-.726,4.269-.965,6.431-.289,2.614-.716,5.214-1.126,7.811a14.465,14.465,0,0,0-.37,2.9,3.963,3.963,0,0,0,2.309,3.376,4.108,4.108,0,0,0,2.159.256,2.9,2.9,0,0,0,1.858-1.487q1.966-2.733,4.095-5.344a73.617,73.617,0,0,0,6.8-9.507c.8-1.375,1.853-3.12,3.608-3.328,2.382-.281.969,3.906.484,4.854-1.8,3.526-3.52,7.056-5.178,10.65a72.215,72.215,0,0,1-6.379,11.091,14.567,14.567,0,0,0-2.275,3.866,50.162,50.162,0,0,0-1.354,5.664c-.471,2.386-.7,4.827-1.186,7.22-.594,2.9-1.266,5.789-2.037,8.648a23.793,23.793,0,0,1-2.3,6.17c-.869,1.462-1.853,2.853-2.8,4.265a2.751,2.751,0,0,0-.656,2.1,14.066,14.066,0,0,0,.682,3.186c.493,1.455,2.811.831,2.315-.638a6.947,6.947,0,0,1-.637-2.881A9.456,9.456,0,0,1,468,158.64a29.632,29.632,0,0,0,2.6-4.339,39.675,39.675,0,0,0,1.978-6.4q1.113-4.34,1.966-8.743c.538-2.8.861-5.6,1.483-8.383a12.956,12.956,0,0,1,1.341-4.274c1.161-1.778,2.466-3.449,3.585-5.259a104.1,104.1,0,0,0,5.764-11.323c.844-1.827,1.814-3.613,2.724-5.409.87-1.718,1.942-3.381,2.115-5.349a4.725,4.725,0,0,0-1.858-4.456c-1.394-.878-3.237-.355-4.53.494a10.277,10.277,0,0,0-3.03,3.6c-1.006,1.728-2.221,3.3-3.333,4.96-1.213,1.817-2.606,3.438-3.968,5.146q-.974,1.222-1.916,2.47-.5.658-.986,1.324c-.228.311-.679,1.222-.956,1.316-1.324.451-1.637-1.452-1.5-2.32.184-1.17.371-2.339.55-3.51.389-2.531.686-5.064.987-7.606.278-2.344.845-4.914,1.187-7.338.374-2.655.64-5.329,1.1-7.969.555-3.208.426-7.4-1.77-10.03a4.5,4.5,0,0,0-4.575-1.645,4.565,4.565,0,0,0-2.924,3.249c-.53,1.634-.769,3.346-1.319,4.983a28.607,28.607,0,0,0-1.2,4.794c-.541,3.513-1.256,7-1.8,10.511a73.735,73.735,0,0,1-1.808,8.425,28.636,28.636,0,0,1-1.3,3.953c-.253.571-.374.739-1.023.82-.4.051-1.5.021-1.777-.388a5.443,5.443,0,0,0,.01-1.177l-.111-1.712q-.12-1.823-.239-3.646-.228-3.5-.443-7.006c-.2-3.386-.226-6.777-.4-10.165-.1-1.963-.292-3.929-.356-5.893a70.813,70.813,0,0,0-.37-7.787c-.386-2.7-1.691-6.265-4.908-6.569a5.856,5.856,0,0,0-5.792,4.052c-1.147,3.608-.71,7.661-.736,11.388-.02,2.874-.016,5.749.033,8.622.042,2.5.159,4.985.1,7.488q-.1,4.66-.21,9.319-.022.936-.046,1.872l-.021.78a2.631,2.631,0,0,0-.008.294c.053.529-.088-.107.094-.051.019.006.121-.007,0-.044-.031-.01-.227.136-.266.15a6.276,6.276,0,0,1-.851.269,3.671,3.671,0,0,1-1.526.047c-.155-.032.021.132.07.191a2.448,2.448,0,0,1-.16-.709q-.185-.816-.363-1.633-.374-1.7-.725-3.413-.653-3.166-1.237-6.347c-.624-3.375-1.28-6.714-2.075-10.056-.878-3.689-.765-7.959-3-11.216-1.744-2.548-5.649-4.1-8.206-1.738s-1.509,6.491-.909,9.458c.7,3.461.889,7.072,1.358,10.576.48,3.574,1.049,7.137,1.433,10.724a62.5,62.5,0,0,1,.574,9.327,74.13,74.13,0,0,1-.455,7.459c-.439,2.9-.861,6.073-2.305,8.66-.753,1.351,1.319,2.562,2.072,1.212Z"/><path class="j" d="M404.36,125.2a12.706,12.706,0,0,0-2.578,8.622c.058,3.749.681,7.519,1.087,11.242l.644,5.894a43.027,43.027,0,0,1,.548,6.166c-.129,3.411-2.967,5.828-4.313,8.783-.636,1.4,1.432,2.616,2.072,1.211,1.28-2.808,3.718-5.061,4.413-8.139a16.824,16.824,0,0,0-.052-5.565l-.644-5.894c-.413-3.783-.9-7.566-1.225-11.358-.268-3.12-.377-6.714,1.745-9.265.981-1.18-.708-2.886-1.7-1.7Z"/><path class="b" d="M419.953,112.032c-1.7,3.867.46,8.847,4.725,10.877s7.831.969,11.735-1.66c.565,4.008,4.712,6.631,6.342,7.312a19.383,19.383,0,0,0,8.223,1.114c2.89-.068,6.052-1.638,7.332-3.882,2.394,3.122,11.239,4.3,15.121,3,7.9-2.632,4.569-11.08,3.1-13.66-2.518-4.429-.8-7.538-5.2-9.678s-22.826-4.052-25.02-4.4c-6.21-.994-15.965-.8-19.931.987a11.131,11.131,0,0,0-6.432,9.989"/><path class="a" d="M418.8,111.713c-1.7,4.125.3,8.837,3.78,11.34a11.235,11.235,0,0,0,6.989,2.1,15.207,15.207,0,0,0,7.454-2.87l-1.762-.717c.736,4.39,4.927,7.736,9.073,8.774,5.035,1.261,12,.982,15.017-3.943l-1.885.243c2.253,2.776,6.733,3.518,10.071,3.793,3.565.294,7.726-.1,10.243-2.972,2.146-2.447,2.234-5.824,1.443-8.836a17.982,17.982,0,0,0-1.381-3.6,22.856,22.856,0,0,1-1.88-5.262,7.464,7.464,0,0,0-2.575-4.448,11.036,11.036,0,0,0-3.777-1.751,78.419,78.419,0,0,0-9.826-1.922c-3.4-.516-6.806-.954-10.216-1.376-2.84-.35-5.35-.775-8.423-.931-4.633-.235-9.883-.306-14.322,1.249a12.327,12.327,0,0,0-8.065,11.443,1.2,1.2,0,0,0,2.4,0,9.857,9.857,0,0,1,6.538-9.207c3.6-1.173,7.64-1.223,11.39-1.155a141.3,141.3,0,0,1,16.585,1.789c3.224.445,6.448.924,9.64,1.565,2.315.465,5.478.844,7.146,2.668,1.01,1.105,1.166,2.7,1.514,4.1a22.408,22.408,0,0,0,1.869,4.592,11.641,11.641,0,0,1,1.364,6.894c-.648,3.671-4.375,4.821-7.656,4.84a21.993,21.993,0,0,1-6.064-.806,8.253,8.253,0,0,1-4.321-2.365,1.209,1.209,0,0,0-1.884.242c-2.462,4.02-8.767,3.854-12.729,2.728-3.241-.921-6.4-3.544-6.975-6.985a1.206,1.206,0,0,0-1.763-.717c-3.661,2.424-7.819,3.64-11.738.966a7.428,7.428,0,0,1-2.959-8.828c.588-1.427-1.733-2.048-2.315-.638Z"/><path class="i" d="M451.952,96.376c2.164-1.115,4.58-1.386,6.176-.023a7.09,7.09,0,0,1,2.246,4.318,30.568,30.568,0,0,1,.288,8.95c-.376,2.9-1.473,6.019-3.848,7.868a3.216,3.216,0,0,1-2.191.724,3.03,3.03,0,0,1-2.569-3.032,158.773,158.773,0,0,0-.1-18.8"/><path class="j" d="M452.558,97.412c1.28-.631,2.968-1.161,4.328-.456,1.393.721,2.019,2.428,2.3,3.87a24.6,24.6,0,0,1-.087,10.589,10.429,10.429,0,0,1-1.942,4.077c-.774.934-2.319,2.262-3.417,1.014a2.456,2.456,0,0,1-.468-1.972c.054-1.859.116-3.718.159-5.578a120,120,0,0,0-.279-12.58c-.125-1.529-2.526-1.542-2.4,0a129.788,129.788,0,0,1,.237,14.2c-.077,2.773-.983,7,2.233,8.476,3.934,1.8,6.967-3.082,7.96-6.189A25.481,25.481,0,0,0,461.4,99.7a7.173,7.173,0,0,0-3.709-5.009c-2.085-.911-4.392-.31-6.341.651-1.385.682-.17,2.753,1.212,2.072Z"/><path class="i" d="M470.8,100.159c-1.339,2.613-2.583,7.3-3.327,9.243-.777,2.031-2.115,3.917-2.085,6.071s1.567,4.461,3.823,4.643,5.085-3.469,6.589-7.365a16.476,16.476,0,0,0,1.477-7.023,6.6,6.6,0,0,0-.858-3.662c-1.17-1.68-3.52-1.649-5.619-1.907"/><path class="j" d="M469.764,99.553c-1.524,3.042-2.222,6.377-3.448,9.53-.744,1.913-1.908,3.659-2.1,5.751a6.41,6.41,0,0,0,1.651,4.85,4.638,4.638,0,0,0,4.41,1.518,7.723,7.723,0,0,0,3.828-2.976,21,21,0,0,0,4.366-11.45c.085-2.112-.056-4.648-1.746-6.155-1.6-1.43-3.914-1.427-5.927-1.662-1.531-.179-1.518,2.222,0,2.4,1.3.151,2.919.1,4.05.84,1.319.866,1.256,2.84,1.232,4.236a18.6,18.6,0,0,1-3.224,9.436,7.691,7.691,0,0,1-2.826,2.875,2.279,2.279,0,0,1-2.686-1.032c-1.952-2.689.476-5.75,1.409-8.332,1.035-2.865,1.711-5.882,3.082-8.618.69-1.377-1.38-2.593-2.073-1.211Z"/><path class="i" d="M412.942,115.759c4.124-1.757,8.755-1.666,13.91-1.431,2.937.134,3.96,1.443,3.466,3.328a10.158,10.158,0,0,1-2.7,4.988c-2.132,1.832-5.177,2.675-6.965,3.592"/><path class="j" d="M413.261,116.916a22.792,22.792,0,0,1,8.61-1.512c1.658-.017,3.325.024,4.981.124.72.044,1.92.11,2.3.839.279.536-.111,1.455-.311,2.048a7.8,7.8,0,0,1-1.885,3.211c-1.9,1.8-4.624,2.43-6.911,3.574-1.381.691-.167,2.762,1.212,2.072,2.145-1.073,4.478-1.726,6.432-3.168a10.435,10.435,0,0,0,3.7-5.8c.507-1.8.126-3.643-1.671-4.533a8.928,8.928,0,0,0-3.664-.676c-1.443-.061-2.886-.106-4.33-.087a24.459,24.459,0,0,0-9.1,1.6,1.242,1.242,0,0,0-.839,1.476,1.207,1.207,0,0,0,1.477.838Z"/><path class="j" d="M424,127.549a40.206,40.206,0,0,1-6.6-7.15c-1.759-2.438-3.083-5-5.474-6.931-2.111-1.7-5.5-3.791-8.336-3.12a4.879,4.879,0,0,0-3.787,6.517,28.061,28.061,0,0,0,5.556,9.5,39.321,39.321,0,0,1,5.128,8.169c2.443,5.077,4.35,10.354,7.465,15.089a34.366,34.366,0,0,0,8.363,9.031c1.774,1.282,3.86,1.832,4.84,3.93a16.494,16.494,0,0,1,1.206,6.539c.053,1.54,2.453,1.547,2.4,0-.108-3.2-.436-6.857-2.594-9.413-1.125-1.333-2.858-1.9-4.271-2.868a26.17,26.17,0,0,1-4.18-3.725c-3.839-4.1-6.458-9.132-8.669-14.249-1.137-2.631-2.278-5.264-3.622-7.8a35.485,35.485,0,0,0-2.33-3.861c-.938-1.329-2.064-2.5-3.036-3.807a30.544,30.544,0,0,1-2.775-4.448c-.673-1.328-1.727-3.156-1.287-4.707.342-1.208,2.052-1.779,3.181-1.559a11.972,11.972,0,0,1,4.171,1.849c2.788,1.829,4.151,4.57,6.054,7.174a43.066,43.066,0,0,0,6.9,7.533c1.174.989,2.88-.7,1.7-1.7Z"/><path class="i" d="M434.042,96.915c2.456-1.037,4.676-1.406,6.456-.13a9.367,9.367,0,0,1,2.4,2.744A23.1,23.1,0,0,1,445,114.2a4.479,4.479,0,0,1-1.4,2.725c-1.624,1.265-4.305.543-5.4-1.19a16.427,16.427,0,0,1-2.055-6.256c-.516-4.2-1.407-8.277-2.1-12.56"/><path class="j" d="M434.361,98.072c1.4-.575,3.1-1.236,4.615-.731a5.752,5.752,0,0,1,2.785,2.6,21.355,21.355,0,0,1,2.454,9.718c.039,2.1.1,7.5-3.322,6.6-1.376-.362-2-1.558-2.5-2.792a18.071,18.071,0,0,1-1.1-4.373c-.554-4.191-1.414-8.328-2.1-12.5-.25-1.52-2.563-.875-2.314.638.377,2.3.814,4.585,1.221,6.877.388,2.184.63,4.392,1.018,6.573.584,3.285,1.965,7.47,5.765,8.011a4.38,4.38,0,0,0,4.325-1.782c1.043-1.53,1.233-3.649,1.356-5.444a24.764,24.764,0,0,0-2.563-12.384,8.306,8.306,0,0,0-3.836-3.846c-2.108-.907-4.42-.314-6.448.519-1.409.579-.792,2.9.638,2.314Z"/><path class="i" d="M480.732,119.219c1.907.313,2.948,2.454,3.126,4.378a11.589,11.589,0,0,1-4.255,9.77,4.745,4.745,0,0,1-3.172,1.315,4.253,4.253,0,0,1-1.954-.714,3.656,3.656,0,0,1-1.107-.988,3.516,3.516,0,0,1-.436-3.492c.579-1.06,2.265-2.271,2.919-3.287,1.55-2.4,3.334-4.472,4.879-6.982"/><path class="j" d="M480.413,120.376c2,.4,2.36,2.97,2.274,4.661a10.349,10.349,0,0,1-2.63,6.227,7,7,0,0,1-2.725,2.093,2.827,2.827,0,0,1-2.987-1.079,2.139,2.139,0,0,1-.126-2.561c.673-.863,1.581-1.52,2.27-2.372.9-1.117,1.655-2.378,2.508-3.538.96-1.3,1.916-2.607,2.772-3.982.818-1.315-1.257-2.522-2.073-1.212-.93,1.5-1.98,2.9-3.02,4.322a29.132,29.132,0,0,1-2.75,3.644c-.937.929-2.071,1.876-2.383,3.221a4.981,4.981,0,0,0,1.213,4.317,5.361,5.361,0,0,0,4.491,1.711,7.451,7.451,0,0,0,3.923-2.256,13.082,13.082,0,0,0,3.869-7.938c.314-2.9-.667-6.905-3.988-7.572-1.508-.3-2.153,2.009-.638,2.314Z"/><path class="i" d="M215.554,155.067a51,51,0,0,1,9.187-6.243c10.111-4.494,22.632,1.035,32-4.537,2.41-1.435,4.37-3.5,6.489-5.334a43.134,43.134,0,0,1,14.753-8.371c2.628-.863,5.924-2.188,5.922-4.953,0-1.807-1.633-3.28-3.385-3.721a12.338,12.338,0,0,0-5.366.255c-5.417,1.065-10.327,2.011-15.742,3.077,1.96-3.244,2.738-5.116,4.842-8.132,3.115-3.177,7.851-7.952,11.223-11.333,2.135-2.141,4.1-4.2,6.9-6.864.75-.411,7.938-6.657,9.178-9.073.754-1.468,1.008-3.221-.224-4.318-1.912-1.7-5-.093-7.224,1.181-.39.224-.766.458-1.132.7a49.783,49.783,0,0,0,9.065-6.477c.953-.954,2.033-3.454,1.787-4.78a2.18,2.18,0,0,0-1.193-1.709,2.8,2.8,0,0,0-1.529,0,36.038,36.038,0,0,0-8.768,3.169l.425-.247c.933-.541,2.356-1.848,1.936-3.617-.2-.831-1.885-1.488-2.724-1.649-1.116-.214-3.5.391-5.2,1.106-1.587.668-3.408,1.34-5.141,2.105l.072-.182a3.042,3.042,0,0,0-.437-2.871,3.28,3.28,0,0,0-3.183-.931,31.373,31.373,0,0,0-6.628,2.089c-3.831,2.121-10.495,6.587-12.671,8.007a103.914,103.914,0,0,0-9.833,7.911c-1.371,1.071-5.612,4.326-8.145,6.062-4.293,4.037-8.193,6.51-10.427,10.9-.631,1.087-6.579,12.083-9.66,16.2a48.83,48.83,0,0,1-5.827,6.165"/><path class="j" d="M259.694,126.4q5.546-1.089,11.092-2.166c1.858-.362,3.711-.758,5.575-1.088,1.666-.294,3.637-.545,5.112.49a2.271,2.271,0,0,1,.761,3.313,7.435,7.435,0,0,1-3.327,2.038,66.652,66.652,0,0,0-8.952,3.8,45.415,45.415,0,0,0-8.208,5.871c-2.512,2.244-4.894,4.6-8.119,5.789-5.994,2.205-12.614,1.088-18.846,1.252a27.441,27.441,0,0,0-10.28,1.928c-3.607,1.571-6.737,4.164-9.8,6.589-1.21.959.5,2.647,1.7,1.7,2.985-2.366,6.148-5.041,9.763-6.384a29.242,29.242,0,0,1,10.221-1.45c6.6-.007,13.606.875,19.755-2.113,3.252-1.58,5.693-4.288,8.421-6.583a42,42,0,0,1,9.458-5.97c2.878-1.328,6.333-1.9,8.893-3.84,2.312-1.751,2.95-4.782.913-7.043-2.861-3.174-7.526-1.814-11.126-1.109q-6.822,1.336-13.645,2.665c-1.514.3-.873,2.612.638,2.314Z"/><path class="j" d="M251.055,103.124c3.675-3.556,7.273-7.191,11.012-10.681a40.389,40.389,0,0,1,4.481-3.722c1.509-1.052,3.028-2.088,4.546-3.127,2.916-2,5.935-3.764,9-5.528a46.742,46.742,0,0,1,6.826-3.167,29.73,29.73,0,0,1,3.4-1.063c1.031-.251,2.331-.672,2.335.818a5.9,5.9,0,0,1-2.342,4.207,50.319,50.319,0,0,1-5.976,4.333c-1.3.821-.1,2.9,1.212,2.072a56.073,56.073,0,0,0,6.172-4.463,9.012,9.012,0,0,0,2.812-3.813c.691-1.791.867-4.292-1.027-5.454a4.2,4.2,0,0,0-3.168-.166,29.026,29.026,0,0,0-4.268,1.293c-8.107,3.1-15.569,8.133-22.532,13.26a72,72,0,0,0-7.091,6.567c-2.371,2.3-4.713,4.638-7.089,6.937-1.112,1.076.586,2.772,1.7,1.7Z"/><path class="j" d="M283.361,78.394a4.777,4.777,0,0,0,2.572-4.441c-.194-1.772-2.052-2.707-3.646-3.018-1.975-.385-4.221.445-6.018,1.183-2.265.93-4.579,1.764-6.772,2.859-6.266,3.127-11.532,7.376-16.872,11.831-3.123,2.606-6.3,5.178-9.268,7.96-1.13,1.058.57,2.752,1.7,1.7,4.285-4.012,8.9-7.735,13.438-11.451a64.423,64.423,0,0,1,17.087-10.042c1.81-.724,4.13-1.988,6.15-1.712.422.058,1.6.392,1.806.8.44.852-.79,1.895-1.385,2.262-1.312.81-.108,2.887,1.211,2.072Z"/><path class="j" d="M205.741,129.494a48.191,48.191,0,0,0,6.793-7.5c1.5-2.191,2.851-4.487,4.186-6.781,1.264-2.173,2.5-4.363,3.715-6.56a27.2,27.2,0,0,1,3.579-5.442c4.484-4.874,10.051-8.592,15.257-12.623,1.422-1.1,2.7-2.391,4.1-3.533,1.573-1.287,3.2-2.506,4.83-3.717,2.177-1.615,4.484-3.06,6.761-4.53,2.65-1.712,5.411-3.834,8.39-4.928,1.52-.558,8.445-3.151,7.2.924-.452,1.48,1.864,2.113,2.315.638a4.214,4.214,0,0,0-1.095-4.388,4.848,4.848,0,0,0-4.211-.848,24.526,24.526,0,0,0-7.7,2.731,146.939,146.939,0,0,0-16.07,10.74c-2.912,2.252-5.59,4.759-8.525,6.978-1.347,1.018-2.7,2.029-4.075,3.007-1.582,1.125-2.971,2.469-4.439,3.738-2.866,2.479-5.575,4.95-7.421,8.306q-1.307,2.378-2.646,4.738c-1.629,2.887-3.28,5.766-5.057,8.565a46.985,46.985,0,0,1-7.582,8.79c-1.12,1.068.578,2.764,1.7,1.7Z"/><path class="j" d="M265.1,117.957c4.648-4.74,9.34-9.436,14.011-14.153,1.74-1.757,3.48-3.444,5.368-5.027,1.777-1.491,3.494-3.069,5.121-4.722,1.49-1.514,3.143-3.163,3.632-5.306.742-3.256-1.848-5.6-5.024-5.062-3.4.581-6.309,3.024-9.042,4.951A90.643,90.643,0,0,0,270.3,95.6a184.534,184.534,0,0,0-13.942,14.8c-1.019,1.154.672,2.858,1.7,1.7,3.5-3.967,6.988-7.942,10.715-11.7a83.912,83.912,0,0,1,7.594-6.846c1.293-1.019,2.672-1.894,4.015-2.84,1.434-1.01,2.811-2.09,4.33-2.973a12.5,12.5,0,0,1,3.791-1.67c1.933-.37,2.924.948,2.2,2.758-.663,1.665-2.261,3.017-3.509,4.243-1.486,1.458-3.028,2.87-4.632,4.2-1.518,1.255-3.222,2.9-4.735,4.427Q270.6,108.961,263.4,116.26c-1.083,1.1.613,2.8,1.7,1.7Z"/><path class="b" d="M260.629,90.488c-4.771-1.539-7.671-1.036-12.777.719-.986-2.907-4.734-5.254-7.793-6.423-2.146-.821-7.514-.841-10.722,2.215-4.667,4.444-3.843,9.7-2.41,13.363a10.117,10.117,0,0,0,9,16.858c.668,5.061,7.966,12.091,16.263,13.168,5.229.679,17.752-2.671,20.813-6.964,2.341-3.281,3.682-6.185,2.656-10.083-.537-2.037-3.4-5.836-6.566-4.537,3-5.624.38-13.229-4.983-16.678A14.876,14.876,0,0,0,260.629,90.488Z"/><path class="a" d="M260.948,89.331a17.54,17.54,0,0,0-6.582-.918,28.063,28.063,0,0,0-6.833,1.637l1.476.838c-1.292-3.456-4.722-5.644-7.989-7a12.429,12.429,0,0,0-8.486-.09,11.788,11.788,0,0,0-7.335,7.4,14.029,14.029,0,0,0,.571,9.486l.308-1.168a11.313,11.313,0,0,0,10.169,18.864l-1.476-.838c.662,4.388,4.463,8.069,7.97,10.427a20.044,20.044,0,0,0,13.329,3.571c8.292-.9,19.163-4.2,20.943-13.66a9.571,9.571,0,0,0-1.553-7.512c-1.554-2.092-4.034-3.668-6.685-2.718l1.355,1.763a13.578,13.578,0,0,0,.176-11.648,15.278,15.278,0,0,0-9.358-8.431c-1.466-.5-2.1,1.822-.638,2.314,6.519,2.2,11.12,9.983,7.748,16.553-.439.856.3,2.14,1.355,1.763,1.918-.687,3.535.8,4.481,2.359a7.5,7.5,0,0,1,.487,6.148c-1.223,3.746-3.785,6.051-7.252,7.638a36.411,36.411,0,0,1-11.059,3.031,17.527,17.527,0,0,1-11.028-2.553c-3.456-2.055-7.323-5.482-7.956-9.683-.105-.694-.9-.923-1.477-.838a8.926,8.926,0,0,1-7.833-14.853,1.2,1.2,0,0,0,.308-1.167,12.366,12.366,0,0,1-.811-7.388,9.311,9.311,0,0,1,5.9-6.546,10.434,10.434,0,0,1,6.568-.168c2.61.93,5.934,2.857,6.954,5.585a1.22,1.22,0,0,0,1.477.838,25.648,25.648,0,0,1,6.2-1.551,15.631,15.631,0,0,1,5.944.832C261.788,92.108,262.42,89.792,260.948,89.331Z"/><path class="i" d="M323.788,175.725A51.023,51.023,0,0,0,314.271,170c-10.342-3.933-22.541,2.276-32.2-2.774-2.485-1.3-4.556-3.251-6.772-4.97a43.124,43.124,0,0,0-15.191-7.547c-2.671-.718-6.035-1.86-6.184-4.621-.1-1.8,1.45-3.365,3.175-3.9a12.379,12.379,0,0,1,5.372-.04c5.468.767,10.422,1.442,15.887,2.208-2.135-3.131-3.015-4.957-5.281-7.853-3.285-3-8.275-7.509-11.828-10.7-2.249-2.021-4.323-3.964-7.264-6.475-.772-.369-8.291-6.211-9.663-8.555-.833-1.424-1.183-3.161-.012-4.324,1.815-1.8,4.99-.367,7.277.782.4.2.79.415,1.169.635a49.846,49.846,0,0,1-9.407-5.969c-1-.9-2.219-3.337-2.046-4.675a2.176,2.176,0,0,1,1.1-1.771,2.8,2.8,0,0,1,1.527-.082,36.057,36.057,0,0,1,8.929,2.683l-.438-.223c-.962-.489-2.454-1.716-2.133-3.5.152-.841,1.8-1.59,2.63-1.8,1.1-.275,3.514.2,5.249.82,1.621.579,3.476,1.151,5.249,1.819l-.083-.178a3.04,3.04,0,0,1,.28-2.89,3.275,3.275,0,0,1,3.127-1.1,31.285,31.285,0,0,1,6.732,1.721c3.942,1.908,10.841,6,13.092,7.3a103.541,103.541,0,0,1,10.252,7.359c1.428.994,5.842,4.011,8.466,5.605,4.508,3.8,8.538,6.051,11.009,10.309.691,1.05,7.233,11.7,10.535,15.64a48.8,48.8,0,0,0,6.157,5.836"/><path class="j" d="M278.714,147.2q-6.061-.849-12.126-1.683c-3.456-.48-7.845-1.794-11.094.07-2.567,1.472-3.706,4.765-1.719,7.189,1.8,2.2,4.887,2.714,7.453,3.5a41.955,41.955,0,0,1,10.15,4.685c3.207,2.032,5.893,4.78,9.13,6.752,6,3.656,13.143,2.824,19.818,2.329,3.837-.284,7.782-.5,11.547.458,4.19,1.065,7.833,3.806,11.309,6.262,1.264.894,2.464-1.187,1.211-2.072a53.374,53.374,0,0,0-9.11-5.556,23.634,23.634,0,0,0-9.147-1.721c-6.191-.1-12.5,1.45-18.661.35a19.4,19.4,0,0,1-8.906-4.408,56.783,56.783,0,0,0-8.368-5.876,44.7,44.7,0,0,0-9.359-3.818c-1.8-.5-5.535-1.193-5.715-3.576-.164-2.161,2.508-3,4.186-3.021a41.146,41.146,0,0,1,6.17.7q6.3.875,12.593,1.748c1.511.212,2.164-2.1.638-2.314Z"/><path class="j" d="M287.137,124.067c-4.474-3.877-8.856-7.861-13.448-11.6-3-2.441-6.543-4.251-9.833-6.269a76.092,76.092,0,0,0-12.728-6.13c-2.454-.929-5.5-2.12-8.168-1.953-2.211.139-3.151,2.415-2.753,4.365a8.366,8.366,0,0,0,3.03,4.859,52.353,52.353,0,0,0,6.881,4.5c1.352.75,2.563-1.322,1.212-2.073a54.813,54.813,0,0,1-5.823-3.7,7.091,7.091,0,0,1-2.587-2.971c-.264-.6-.722-1.694-.237-2.313.584-.745,2.772.054,3.566.25a46.381,46.381,0,0,1,7.271,2.588,82.006,82.006,0,0,1,9.957,5.156,75.389,75.389,0,0,1,8.7,5.54c4.524,3.694,8.847,7.622,13.259,11.446,1.163,1.007,2.867-.683,1.7-1.7Z"/><path class="j" d="M253.026,100.787a3.049,3.049,0,0,1-1.459-1.381c-.376-.946.41-1.294,1.2-1.581,1.564-.569,3.588.161,5.083.673a77.6,77.6,0,0,1,11.681,4.8c4.744,2.539,9,5.921,13.293,9.13,2.778,2.074,5.587,4.126,8.245,6.354,1.176.985,2.882-.7,1.7-1.7-5.111-4.283-10.572-8.287-16.042-12.1a61.719,61.719,0,0,0-9.492-5.5,67.807,67.807,0,0,0-6.8-2.643,22.043,22.043,0,0,0-6.549-1.6c-1.634-.029-4.095.849-4.682,2.545-.723,2.089.879,4.123,2.616,5.068,1.357.738,2.57-1.333,1.211-2.072Z"/><path class="j" d="M333.831,147.91a45.763,45.763,0,0,1-7.42-7.459c-1.776-2.408-3.421-4.913-5.046-7.424-1.24-1.915-2.452-3.846-3.67-5.774a26.332,26.332,0,0,0-5.746-6.519c-1.564-1.275-3.191-2.469-4.76-3.738-1.382-1.116-2.861-2.024-4.345-3-2.776-1.824-5.4-3.752-8.041-5.756A135.38,135.38,0,0,0,277.394,97.4a33.352,33.352,0,0,0-4.482-2.2A29.85,29.85,0,0,0,268,93.984a6,6,0,0,0-4.273.4,4.1,4.1,0,0,0-1.554,4.915c.528,1.438,2.848.817,2.315-.638-1.36-3.706,4.044-2.184,5.788-1.745a33.047,33.047,0,0,1,7.908,3.655,118.392,118.392,0,0,1,16.656,10.717c2.251,1.812,4.669,3.392,7.088,4.974a96.873,96.873,0,0,1,8.472,6.291,24.473,24.473,0,0,1,5.291,6.023c1.138,1.805,2.275,3.611,3.433,5.4,1.678,2.6,3.376,5.191,5.212,7.68a48.18,48.18,0,0,0,7.8,7.945c1.169,1,2.874-.693,1.7-1.7Z"/><path class="j" d="M283.064,152.7a92.265,92.265,0,0,1-5.664-8.028,28.2,28.2,0,0,0-4.611-6.061c-5.545-5.05-11.062-10.148-16.719-15.072-1.618-1.408-3.406-2.6-5.068-3.962a30.7,30.7,0,0,1-5.38-5.023c-.9-1.209-1.46-3.447.6-3.74,1.666-.238,3.543.815,4.967,1.554,1.867.97,3.567,2.221,5.38,3.285a52.765,52.765,0,0,1,5.348,3.621c6.173,4.723,11.589,10.31,17.031,15.835,1.086,1.1,2.782-.6,1.7-1.7a177.339,177.339,0,0,0-16-15.03,94.361,94.361,0,0,0-11.261-7.544c-2.75-1.593-7.559-4.094-10.164-.963-2.15,2.584.031,5.822,1.96,7.745a64.906,64.906,0,0,0,6.472,5.511c5.567,4.253,10.64,9.2,15.837,13.908a59.525,59.525,0,0,1,4.827,4.42,28.427,28.427,0,0,1,2.5,3.621,110.66,110.66,0,0,0,6.547,9.317c.957,1.211,2.645-.5,1.7-1.7Z"/><path class="i" d="M59.378,122.008l20.235-12.3s31.847-7.434,37.964-10.67L109.7,92.029l-1.041-.823-8.517-6.729a11.106,11.106,0,0,0-3.371-2.062,11.679,11.679,0,0,0-5.3.025c-7.7,1.167-16.117,2.1-23.9,1.736-5.314-.488-9.031-1.218-12.959-3.155,0,0-11.61.437-10.957,9.516.122,1.685.186,3.644.313,5.751C44.536,105.529,46.3,117.617,59.378,122.008Z"/><path class="j" d="M54.015,82.057c8.262,4.007,17.8,3.74,26.732,2.922,2.466-.226,4.925-.521,7.379-.854,2.355-.32,4.972-1.077,7.353-.773s4.342,2.388,6.14,3.809l6.194,4.894c1.2.947,2.909-.74,1.7-1.7-3.177-2.511-6.307-5.1-9.548-7.528a8.762,8.762,0,0,0-4.483-1.878,23.007,23.007,0,0,0-5.457.5C82.255,82.594,74.06,83.68,66.21,82.841a32.857,32.857,0,0,1-10.984-2.857c-1.383-.671-2.6,1.4-1.211,2.073Z"/><path class="a" d="M141.634,128.914a9.8,9.8,0,0,0,5.469-6.436,12.253,12.253,0,0,0-.4-6.554,10.294,10.294,0,0,0-4.724-5.857c-2.08-1.155-4.841-1.766-7.051-.622L136.7,110.8A12.412,12.412,0,0,0,131.1,97.939c-6.192-3.694-14.547-2.83-20.467.959-1.3.83-.095,2.908,1.211,2.072,5.149-3.3,12.252-4.168,17.739-1.134a9.949,9.949,0,0,1,4.8,10.326,1.216,1.216,0,0,0,1.763,1.355c1.574-.814,3.79.057,5.141.929a7.894,7.894,0,0,1,3.22,4.472,9.682,9.682,0,0,1,.285,4.922,7.532,7.532,0,0,1-4.366,5c-1.385.684-.17,2.755,1.211,2.072Z"/><path class="i" d="M145.057,148.346a14.537,14.537,0,0,1,1.66,2.056,58.944,58.944,0,0,1,5.575,8.237,6.324,6.324,0,0,1,.967,3.237,2.478,2.478,0,0,1-2.009,2.409,4.6,4.6,0,0,1-2-.209,49.651,49.651,0,0,1-7.034-4.444c.5-.207,1.63,3.816.618,5.173-1.2,1.613-3.705.843-4.6.487-.574-.228-5.079-3.53-8.779-6.335a2.379,2.379,0,0,1,.074,1.959c-.867,1.513-3.973.711-4.712.325-.946-.493-3.518-1.808-5.734-3.007l-5.06-2.392,30.821-19.35,5.729,5.66a83.848,83.848,0,0,1,5.577,6.627,10.036,10.036,0,0,1,.9,1.61c.332.785.406,2.735-.689,3.622-.746.6-2.483.182-3.361-.207a40.192,40.192,0,0,1-6.5-3.724"/><path class="i" d="M38.3,130.6c2.941,1.474,5.986,1.737,9.036,3.245,5.214,2.577,16.843,10.638,18.036,11.412,4.5,3.288,9.7,3.79,16.1,5.67,3.444.458,9.391,1.575,11.324,1.955a117.344,117.344,0,0,0,13.974,2.959c2.923.321,11.935,1.422,16.889,1.605a35.4,35.4,0,0,0,7.759-1.281,3.707,3.707,0,0,0,2.738-2.568,3.4,3.4,0,0,0-1.209-3.265c2.147-.116,4.335-.37,6.283-.507,2.081-.147,4.795-.754,5.813-1.541.764-.591,2.133-2.118,1.907-3.058-.481-2-2.586-2.593-3.805-2.662l-14.915-.842c.76.1,1.41.189,1.882.256,2.283.353,6.337.279,8.877.571,4.776.014,9.481-.006,14.074-1.3a3.167,3.167,0,0,0,1.545-.779,2.467,2.467,0,0,0,.331-2.336c-.43-1.464-2.8-3.437-4.249-3.912a53.915,53.915,0,0,0-9.874-1.733c2.716.076,5.875-.178,6.806-2.547.684-1.738-.469-3.378-1.981-4.475-2.488-1.8-12.939-4.436-13.906-4.466-4.191-1.263-7.225-2.333-10.475-3.4-5.134-1.69-12.357-4.089-17.127-5.7-3.667-1.969-5.41-3.461-9.047-5.734,6.012-1.694,11.452-3.249,17.467-4.944a13.97,13.97,0,0,0,5.549-2.487c1.543-1.341,2.437-3.663,1.514-5.488-1.412-2.793-5.418-2.445-8.512-1.973a48.83,48.83,0,0,1-19.177-.906c-3.079-.773-6.112-1.852-9.28-2.067-12.3-.838-22.119,11.149-34.626,11.782a57.709,57.709,0,0,1-12.469-1.606s-5.177-.817-4.724,10.619S33.591,128.239,38.3,130.6Z"/><path class="j" d="M95.366,107.324q6.77-1.908,13.534-3.833c3.658-1.035,8.554-1.682,10.987-4.954,2.027-2.726,1.62-6.684-1.686-8.143-3.229-1.426-7.04-.222-10.374.056a47.754,47.754,0,0,1-13.745-.827c-4.217-.884-8.3-2.572-12.67-2.573-7.053,0-13.3,3.813-19.338,7a42.262,42.262,0,0,1-11.009,4.424c-5.03,1.044-10.256-.158-15.195-1.166-1.508-.308-2.153,2-.638,2.314,4.221.862,8.632,1.853,12.968,1.638a27.877,27.877,0,0,0,9.382-2.379c6.065-2.56,11.53-6.543,17.86-8.474a19.812,19.812,0,0,1,10.236-.452c4.117.906,8.061,2.207,12.27,2.712a49.7,49.7,0,0,0,12.774-.147c2.2-.307,7.173-1.38,7.988,1.7.559,2.111-1.4,3.864-3.085,4.677a39.48,39.48,0,0,1-6.44,2.02q-7.23,2.044-14.457,4.094a1.2,1.2,0,0,0,.638,2.314Z"/><path class="j" d="M118.473,159.27c1.432.773,2.875,1.527,4.32,2.275a12.628,12.628,0,0,0,2.676,1.191,6.175,6.175,0,0,0,3.527.029,2.916,2.916,0,0,0,1.565-1.243,3.409,3.409,0,0,0,.079-2.787c-.46-1.469-2.778-.842-2.314.638a3.3,3.3,0,0,1,.183.894.529.529,0,0,1-.075.131c.087-.189.011.01-.08.057.185-.095-.017,0-.094.033.192-.09-.022.006-.1.029s-.177.044-.266.062-.072.015.042,0c-.057.007-.114.011-.171.014a6.518,6.518,0,0,1-.7,0c-.1-.006-.2-.015-.292-.026.239.027-.086-.016-.135-.025a9.2,9.2,0,0,1-1.144-.3c-.095-.029-.287-.153.026.017-.055-.03-.114-.055-.17-.084-.159-.085-.319-.166-.479-.249l-1.406-.728q-1.9-.984-3.778-1.994c-1.36-.735-2.573,1.337-1.212,2.072Z"/><path class="j" d="M126.6,158.234c3.071,2.352,6.152,4.7,9.3,6.945a8.831,8.831,0,0,0,2.748,1.519c1.819.516,4.146.434,5.261-1.346,1.041-1.664.521-4.354-.311-6.007-.695-1.38-2.766-.167-2.073,1.211.49.973,1.222,3.787-.6,4.025a4.727,4.727,0,0,1-2.279-.408c.368.15-.085-.07-.181-.131-.213-.135-.42-.279-.627-.423-3.422-2.37-6.725-4.926-10.028-7.458a1.208,1.208,0,0,0-1.642.431,1.23,1.23,0,0,0,.43,1.642Z"/><path class="j" d="M133.631,154.524a114.059,114.059,0,0,0,13.229,9.628c1.894,1.128,4.514,2.226,6.4.434,2.526-2.4.486-5.974-.95-8.342-.979-1.615-2.071-3.159-3.2-4.671a35.622,35.622,0,0,0-3.2-4.076,1.2,1.2,0,0,0-1.7,1.7,26.541,26.541,0,0,1,2.308,2.9c.866,1.14,1.714,2.294,2.515,3.481a39.719,39.719,0,0,1,2.224,3.665c.5.951,1.258,2.4.507,3.422-1.028,1.4-3.437-.417-4.43-1.038-1.911-1.195-3.752-2.5-5.569-3.836q-3.278-2.4-6.436-4.965c-1.189-.965-2.9.723-1.7,1.7Z"/><path class="j" d="M149.72,143c1.214,1.321,2.4,2.665,3.55,4.043.537.645,1.068,1.295,1.568,1.969a10.787,10.787,0,0,1,.624.921q.161.272.306.552c.039.076.078.153.116.23.216.445,0-.055.056.125a2.762,2.762,0,0,1,.034,1.576,1.4,1.4,0,0,1-.3.6c-.024.027-.145.082-.077.06a1.322,1.322,0,0,1-.471.035,8.153,8.153,0,0,1-3.544-1.337c-.819-.428-1.629-.874-2.423-1.347-.344-.2-.686-.414-1.021-.634-.165-.108-.329-.219-.49-.333l-.147-.106c-.3-.22.163.135-.1-.076a1.234,1.234,0,0,0-1.7,0,1.209,1.209,0,0,0,0,1.7,26.851,26.851,0,0,0,4.454,2.761,12.036,12.036,0,0,0,4.888,1.773c2.254.114,3.459-1.845,3.419-3.914-.037-1.95-1.3-3.5-2.455-4.967-1.451-1.839-3.006-3.6-4.591-5.324-1.047-1.14-2.741.561-1.7,1.7Z"/><path class="j" d="M97.218,135.206c6.227,1.926,12.409,4,18.689,5.753,4.241,1.184,8.744,1.471,13.1,2.064a86.723,86.723,0,0,0,16.146.621c2.952-.158,6.461-.338,9.189-1.581,2.441-1.112,2.3-4.011.848-5.885a9.58,9.58,0,0,0-5.347-3.437,60.815,60.815,0,0,0-9.028-1.456c-1.537-.143-1.527,2.258,0,2.4a59.264,59.264,0,0,1,7.531,1.167,8.182,8.182,0,0,1,4.131,1.917c.621.572,1.563,1.466,1.4,2.42-.2,1.187-2.94,1.359-3.905,1.533a52.536,52.536,0,0,1-9.08.625,93.794,93.794,0,0,1-12.686-.831,85.046,85.046,0,0,1-11.663-1.871c-6.28-1.753-12.462-3.827-18.689-5.753-1.479-.458-2.112,1.858-.638,2.314Z"/><path class="j" d="M143.144,143.761a3.6,3.6,0,0,1,1.921.667c.832.653.763,1.222.153,1.994-1.269,1.606-3.5,1.945-5.424,2.149a83.55,83.55,0,0,1-14.833.423c-6.158-.441-12.188-2.052-18.181-3.44-3.87-.9-7.763-1.757-11.578-2.87A1.2,1.2,0,0,0,94.564,145c7.2,2.1,14.644,3.736,22,5.191a69.847,69.847,0,0,0,12.106,1.372,81.255,81.255,0,0,0,8.893-.4c2.441-.214,4.992-.333,7.253-1.379,1.726-.8,3.789-2.983,3.239-5.034-.589-2.194-2.828-3.22-4.915-3.383-1.54-.12-1.533,2.281,0,2.4Z"/><path class="j" d="M37.979,131.754A52.243,52.243,0,0,1,49.51,136.4c2.9,1.69,5.72,3.522,8.521,5.371,2.105,1.39,4.189,2.812,6.283,4.219a29.981,29.981,0,0,0,9.177,4.091c2.188.588,4.4,1.087,6.582,1.693a57.676,57.676,0,0,0,5.711,1.034q2.608.449,5.208.943c1.966.372,3.873.969,5.822,1.419a159.533,159.533,0,0,0,22.785,3.212,31.353,31.353,0,0,0,5.621.191,40.034,40.034,0,0,0,5.621-1.02,5.936,5.936,0,0,0,4.133-2.711,4.564,4.564,0,0,0-1-5.218,1.2,1.2,0,0,0-1.7,1.7c1.452,1.451.507,3.131-1.226,3.7a28.922,28.922,0,0,1-3.7.834,35.467,35.467,0,0,1-9.869-.057,141.147,141.147,0,0,1-21.841-3.377c-3.292-.841-6.585-1.481-9.939-2.045-1.828-.308-3.635-.544-5.423-1.03-2.045-.556-4.111-1.026-6.157-1.576a28.086,28.086,0,0,1-8.651-3.882c-1.909-1.284-3.81-2.58-5.729-3.85-2.967-1.966-5.952-3.915-9.028-5.708a54.937,54.937,0,0,0-12.1-4.887,1.2,1.2,0,0,0-.638,2.314Z"/><path class="j" d="M88.119,103.562a105.678,105.678,0,0,1,9.636,5.776,31.855,31.855,0,0,0,7.525,4.2c8.239,2.776,16.472,5.628,24.779,8.2.557.172,1.1.34,1.675.457.027.006-.227-.044.064.009.433.078.863.174,1.291.273,1.346.311,2.682.666,4.01,1.042,2.539.72,5.522,1.372,7.75,2.852,1.593,1.059,2.615,3.276.464,4.326-1.537.75-3.471.636-5.131.563-2.473-.109-4.884-.645-7.335-.943a63.3,63.3,0,0,1-7.242-1.3c-8.7-2.1-16.981-5.458-25.272-8.76-1.435-.571-2.058,1.749-.638,2.314,7.707,3.07,15.411,6.2,23.452,8.3a67.109,67.109,0,0,0,7.8,1.62c2.6.357,5.207.838,7.819,1.08,3.227.3,8.323.564,9.894-3.027,1.638-3.745-2.282-6.321-5.24-7.483a69.875,69.875,0,0,0-9.08-2.75c-.909-.22-1.858-.367-2.746-.61-2.348-.642-4.658-1.474-6.966-2.247-4.307-1.443-8.626-2.855-12.936-4.292a65.96,65.96,0,0,1-7.214-2.449,33.666,33.666,0,0,1-4.228-2.582,125.856,125.856,0,0,0-10.917-6.64c-1.364-.724-2.578,1.347-1.212,2.072Z"/><path class="a" d="M122.89,89.208a5.028,5.028,0,0,1,5.681-3.067c2.241.278,4.825,1.6,4.356,4.341-.165.963.8,1.959,1.762,1.356a7.015,7.015,0,0,1,9.651,2.413c2.117,3.3,1.5,7.189-.356,10.459a1.2,1.2,0,0,0,2.072,1.212c2.336-4.115,2.964-9.233.094-13.269-2.9-4.074-8.333-5.613-12.672-2.888l1.763,1.355c.674-3.939-2.238-6.673-5.873-7.271-3.566-.586-7.051.67-8.551,4.148-.6,1.4,1.462,2.627,2.073,1.211Z"/></svg>