<?xml version="1.0" encoding="utf-8"?>
<!-- Uploaded to: SVG Repo, www.svgrepo.com, Generator: SVG Repo Mixer Tools -->
<svg width="800px" height="800px" viewBox="-157.29 0 443.444 443.444" xmlns="http://www.w3.org/2000/svg"><defs><style>.a{fill:#ffffff;}.b{fill:#957f6e;}.c{fill:#211715;}.d{fill:#645d5c;}.e{fill:#a0a0a0;}.f{fill:#f6c385;}.g{fill:#89705d;}</style></defs><path class="a" d="M93.261,47.758a4.283,4.283,0,0,1,3.43-1A4.051,4.051,0,0,1,99.6,48.689a5.723,5.723,0,0,1,.6,2.3,17.149,17.149,0,0,1-1.749,9.092,10.91,10.91,0,0,1-2.818,3.7A7.24,7.24,0,0,1,92.273,65.3s-.209.032-.576.092c-.276,1.031-.585,1.9-.737,2.36-.987,2.678-6.545,12-13.517,15.282a38.521,38.521,0,0,0,.609,6.571c.344,1.968.237,3.726,2.971,4.714.182.065,3.259,1.265,3.536,1.379a20.14,20.14,0,0,1-19.811,14.07c-16,0-17.6-14.786-17.6-14.786.527-.179,1.8-.6,1.981-.663,2.735-.988,2.627-2.746,2.972-4.714a39.058,39.058,0,0,0,.6-6.1,24.366,24.366,0,0,1-9.34-7.184,29.146,29.146,0,0,1-5.558-10.849l-1.1-.169a7.231,7.231,0,0,1-3.361-1.515,10.913,10.913,0,0,1-2.819-3.7,17.158,17.158,0,0,1-1.749-9.092,5.724,5.724,0,0,1,.6-2.3,4.047,4.047,0,0,1,2.91-1.935,4.282,4.282,0,0,1,3.43,1S30.082,21.172,63.563,21.172,93.261,47.758,93.261,47.758Z"/><path class="b" d="M52.494,83.987l.383-.422a24.248,24.248,0,0,1-9.506-7.25,29.2,29.2,0,0,1-5.561-10.85L36.717,65.3a7.231,7.231,0,0,1-3.361-1.515q-.255-.207-.491-.43A15.948,15.948,0,0,0,31.246,68.8a26.382,26.382,0,0,0-.16,3.446c.04,2.736.69,5.536.82,8.272s-.95,5.864-3.4,6.744c-1.44,2.461,14.54,8.378,22.65-1.8Z"/><path class="c" d="M50.711,83.488Q50.689,84.7,50.59,85.9q-.047.546-.107,1.091c-.021.182-.043.363-.065.545-.019.141-.019.145,0,.012l-.031.218c-.161,1.084-.283,2.214-.549,3.279-.024.1-.051.2-.081.3s-.192.361-.022.1c.219-.333-.257.382-.24.405-.031-.042.341-.362.035-.058l-.239.234c-.31.3.343-.185-.063.036-.118.065-.23.138-.35.2s-.347.157-.092.057c-.094.037-.186.069-.281.1-.166.058-.333.112-.5.168-.461.153-.922.305-1.382.462a2,2,0,0,0,1.063,3.857,20.7,20.7,0,0,0,3.286-1.231,5.526,5.526,0,0,0,2.623-3.214,21.52,21.52,0,0,0,.617-3.415,42.986,42.986,0,0,0,.5-5.56,2,2,0,0,0-4,0Z"/><path class="c" d="M75.446,83.488a50.016,50.016,0,0,0,.724,6.926,7.616,7.616,0,0,0,1.53,4.092,8.384,8.384,0,0,0,3.552,2.032c.926.359,1.856.712,2.775,1.086a2.007,2.007,0,0,0,2.461-1.4,2.061,2.061,0,0,0-1.4-2.46c-.813-.331-1.635-.643-2.453-.961-.345-.135-.69-.27-1.036-.4-.079-.029-.159-.057-.237-.089.337.14-.2-.116-.267-.153-.113-.065-.536-.421-.175-.09-.1-.095-.2-.2-.306-.293-.3-.285.182.338-.009-.014-.06-.111-.124-.223-.187-.333-.184-.33.109.422-.007-.052-.035-.145-.084-.287-.118-.432-.133-.572-.2-1.158-.292-1.737a39.435,39.435,0,0,1-.558-5.723,2,2,0,0,0-4,0Z"/><path class="c" d="M31.139,62.342c-2.532,5.067-2.107,10.348-1.449,15.79.252,2.084.58,4.617-.792,6.422-.587.772-1.619.87-2.119,1.7a2.705,2.705,0,0,0-.28,2.007c.539,2.183,3.264,3.274,5.156,3.905a21.613,21.613,0,0,0,9.616.848,17.382,17.382,0,0,0,11.3-6.139,2.059,2.059,0,0,0,0-2.829,2.015,2.015,0,0,0-2.828,0c-3.2,3.933-7.91,5.493-12.877,5.112a15.619,15.619,0,0,1-2.727-.442c-.478-.117-.952-.251-1.419-.407-.419-.14-.893-.332-.922-.345-.294-.138-.586-.282-.867-.447-.164-.1-.32-.2-.48-.308-.384-.249.333.275.01,0-.1-.082-.179-.181-.271-.269-.134-.128.325.436.071.066a1.232,1.232,0,0,1-.027,1.264l-1.2.919C33.471,87.4,34.212,82.6,33.716,78.35c-.549-4.7-1.333-9.567.877-13.989,1.148-2.3-2.3-4.324-3.454-2.019Z"/><path class="b" d="M97.263,26.373c-3.379-14.1-17.821-25.14-32.952-24.315-15.44-.842-30.164,10.676-33.146,25.187a40.948,40.948,0,0,0,.024,13.733l1.239,5.787a4.424,4.424,0,0,1,2.914.688c5.567-4.411,16.812-11.342,22.2-15.822-.441,2.645-2.007,7.144-.034,6.682,8.243-1.846,16.143-5.568,20.9-11.387a54.95,54.95,0,0,0,3.9,10.1c1.778,2.943,6.951,9.761,11.469,10.355a4.416,4.416,0,0,1,2.912-.6,3.461,3.461,0,0,1,.527.116c2.425-5.553,1.2-14.96.24-19.648Q97.368,26.807,97.263,26.373Z"/><path class="c" d="M33.117,40.447a34.1,34.1,0,0,1-.268-11.156,25.9,25.9,0,0,1,3.66-10.181,31.811,31.811,0,0,1,17.737-13.8,38.844,38.844,0,0,1,11.691-1.3A29.476,29.476,0,0,1,77.143,6.3,31.734,31.734,0,0,1,93.515,21.707a34.454,34.454,0,0,1,2.833,11.336c.454,4.357.676,9.123-1.03,13.252a2.013,2.013,0,0,0,1.4,2.46,2.051,2.051,0,0,0,2.461-1.4c1.648-3.989,1.639-8.642,1.3-12.878a44.412,44.412,0,0,0-2.233-11.761A35.333,35.333,0,0,0,68.982.174,59.034,59.034,0,0,0,62.506.015a33.193,33.193,0,0,0-6.568.728A35.976,35.976,0,0,0,34.7,14.628a30.56,30.56,0,0,0-5.576,12.677,37.521,37.521,0,0,0,.135,14.2c.562,2.511,4.42,1.448,3.857-1.063Z"/><path class="c" d="M76.612,27.892c1.348,4.441,2.873,8.88,5.664,12.632,2.615,3.514,6.109,7.717,10.6,8.72,2.507.561,3.578-3.3,1.063-3.857-3.454-.771-6.442-4.437-8.5-7.27-2.451-3.382-3.772-7.32-4.975-11.288-.746-2.457-4.608-1.41-3.858,1.063Z"/><path class="c" d="M77.088,25.429a30.67,30.67,0,0,1-12.747,8.737q-1.935.75-3.928,1.331-1,.294-2.014.549c-.331.083-.7.134-1.016.245l-.407.093a1.386,1.386,0,0,1,1.505.747c.2-.061-.149.671.054.025a3.562,3.562,0,0,0,.035-.614c.046-.407.141-.813.224-1.213.222-1.057.489-2.1.677-3.166a2.019,2.019,0,0,0-3.343-1.946c-6.981,5.765-14.995,10.168-22.116,15.756a2.013,2.013,0,0,0,0,2.829,2.052,2.052,0,0,0,2.829,0c7.122-5.59,15.127-9.985,22.115-15.757L55.613,31.1c-.395,2.244-1.639,5.077-.9,7.345a2.735,2.735,0,0,0,3.323,1.8,39.684,39.684,0,0,0,5.026-1.382c6.332-2.084,12.545-5.4,16.85-10.6,1.628-1.97-1.186-4.815-2.828-2.829Z"/><path class="c" d="M94.675,49.172a2.213,2.213,0,0,1,3.13.412,4.724,4.724,0,0,1,.452,2.406,14.32,14.32,0,0,1-.2,2.954c-.64,3.51-2.413,7.725-6.315,8.424a2.018,2.018,0,0,0-1.4,2.46,2.043,2.043,0,0,0,2.46,1.4c6.055-1.085,8.944-7.915,9.4-13.4.236-2.839-.01-6.054-2.463-7.89a6.321,6.321,0,0,0-7.894.412,2.015,2.015,0,0,0,0,2.828,2.043,2.043,0,0,0,2.828,0Z"/><path class="c" d="M90.229,62.105a16.107,16.107,0,0,1-.939,4.339c-.063.191-.491,1.317-.223.709-.135.306-.276.607-.427.906a36.743,36.743,0,0,1-3.168,5.093C82.726,76.918,79,80.91,74.294,82.013c-2.5.588-1.444,4.446,1.064,3.857C81.032,84.539,85.432,79.9,88.77,75.383c2.881-3.9,5.258-8.321,5.459-13.278.1-2.574-3.9-2.569-4,0Z"/><path class="c" d="M37.143,46.344a6.323,6.323,0,0,0-7.894-.412c-2.455,1.829-2.7,5.056-2.464,7.89.456,5.487,3.346,12.318,9.4,13.4a2.055,2.055,0,0,0,2.46-1.4,2.017,2.017,0,0,0-1.4-2.46c-3.9-.7-5.674-4.915-6.315-8.424a14.216,14.216,0,0,1-.2-2.787,5.5,5.5,0,0,1,.385-2.458,2.2,2.2,0,0,1,3.2-.527,2.057,2.057,0,0,0,2.829,0,2.017,2.017,0,0,0,0-2.828Z"/><path class="c" d="M34.961,61.882a33.418,33.418,0,0,0,7.126,16c4.014,4.754,9.33,8.177,15.587,8.852a2.012,2.012,0,0,0,2-2,2.046,2.046,0,0,0-2-2c-5.3-.573-9.731-3.986-13.021-8-3.253-3.964-4.964-8.93-5.835-13.921a2.016,2.016,0,0,0-2.46-1.4,2.044,2.044,0,0,0-1.4,2.46Z"/><path class="c" d="M86.738,60.33a72.274,72.274,0,0,1,3.668-6.365c.77-1.2,1.571-2.382,2.418-3.53.462-.628.631-.85,1.161-1.5q.656-.8,1.36-1.555a2,2,0,0,0-2.828-2.828,59.553,59.553,0,0,0-9.233,13.754A2.049,2.049,0,0,0,84,61.048a2.02,2.02,0,0,0,2.736-.718Z"/><path class="c" d="M33.4,47.985q.684.741,1.321,1.522c.2.249.4.5.6.755a1.6,1.6,0,0,1,.169.222c.1.133.2.266.3.4.863,1.16,1.686,2.35,2.483,3.556,1.3,1.968,2.532,3.98,3.73,6.011a2,2,0,1,0,3.454-2.019,76.556,76.556,0,0,0-9.233-13.274A2,2,0,0,0,33.4,47.985Z"/><path class="a" d="M64.153,57.11a142.8,142.8,0,0,0-17.074,1.62c-.9.131-3.118.326-3.7.985-1.088,1.226-.675,3.844-.816,5.331a38.011,38.011,0,0,0,.212,7.134c.326,3.135.484,6.477,2.633,8.923,3.973,4.521,13.18,6.928,19.228,6.928a36.58,36.58,0,0,0,11.835-2.143c3.3-1.183,6.382-3.167,8.108-6.019C86.2,77.18,86.14,74.484,86.49,71.42a31.743,31.743,0,0,0,.125-6.49c-.149-1.483.23-3.906-.872-5.148-.585-.659-2.415-.922-3.313-1.043A160.568,160.568,0,0,0,64.153,57.11Z"/><path class="c" d="M64.153,55.11A110.862,110.862,0,0,0,50.4,56.274a56.8,56.8,0,0,0-6.131.889c-2.319.555-3.345,2.178-3.6,4.466a48.357,48.357,0,0,0-.188,6.459,67.555,67.555,0,0,0,.66,7.392,13.212,13.212,0,0,0,2.594,6.726,15.857,15.857,0,0,0,4.64,3.7C56.42,90.387,66.253,91.031,75,88.466c4.52-1.325,9.177-3.671,11.526-7.971a18.491,18.491,0,0,0,1.795-7.362,45.99,45.99,0,0,0,.331-7.806c-.177-2.317.25-5.112-1.494-6.959-1.546-1.638-4.568-1.615-6.633-1.879A133.222,133.222,0,0,0,64.153,55.11c-2.574-.01-2.578,3.99,0,4a114.553,114.553,0,0,1,12.493.909c1.923.219,3.856.426,5.769.722a12.761,12.761,0,0,1,1.258.246c.13.034.827.331.6.138s.067.093.1.246.085.308.112.465a9.421,9.421,0,0,1,.078,1.493c.051,4.18.26,8.382-.595,12.519-.825,3.992-3.991,6.576-7.672,7.976a31.974,31.974,0,0,1-23.225-.1c-2.955-1.158-6.393-3.011-7.435-6.225a28.2,28.2,0,0,1-.945-6.065,41.727,41.727,0,0,1-.127-6.518c.053-.877-.014-1.757.043-2.634a2.6,2.6,0,0,1,.173-1.071c.048-.069-.114.02.24-.116a12.175,12.175,0,0,1,2.584-.438c.994-.139,1.987-.281,2.982-.409A110.021,110.021,0,0,1,64.153,59.11C66.726,59.1,66.731,55.1,64.153,55.11Z"/><path class="c" d="M49.44,49.935c-.467,1.519-.163,5.011,2.713,5.309,3.8-.023,4-4.246,2.725-6.231C53.83,47.387,50.749,46.711,49.44,49.935Z"/><path class="c" d="M79.883,49.936c.467,1.518.163,5.01-2.713,5.308-3.8-.023-4-4.246-2.725-6.231C75.493,47.387,78.574,46.711,79.883,49.936Z"/><path class="a" d="M39.257,408a3.9,3.9,0,0,0,1.3,1.327,7.944,7.944,0,0,0,4.061.916,22.682,22.682,0,0,0,14.266-4.93l-.031-4.449a136.557,136.557,0,0,1-18.011-.1,28.753,28.753,0,0,1-1.815,6.775A3.372,3.372,0,0,0,39.257,408Z"/><path class="a" d="M69.973,401.056v-.11a136.907,136.907,0,0,0,17.991-.313,28.889,28.889,0,0,0,1.836,6.9,3.807,3.807,0,0,1-1.53,1.791,7.944,7.944,0,0,1-4.061.916,22.7,22.7,0,0,1-14.27-4.93Q69.96,403.181,69.973,401.056Z"/><path class="c" d="M39.144,396.836a27.185,27.185,0,0,1-3.009,12.215,2.045,2.045,0,0,0,.718,2.736,2.02,2.02,0,0,0,2.736-.717,31.594,31.594,0,0,0,3.555-14.234,2,2,0,0,0-4,0Z"/><path class="c" d="M56.835,397.823l.081,11.828a2,2,0,0,0,4,0l-.081-11.828a2,2,0,0,0-4,0Z"/><path class="c" d="M85.686,396.836a31.594,31.594,0,0,0,3.555,14.234,2,2,0,0,0,3.454-2.019,27.192,27.192,0,0,1-3.009-12.215,2,2,0,0,0-4,0Z"/><path class="c" d="M68,397.823l-.081,11.828a2,2,0,0,0,4,0L72,397.823a2,2,0,0,0-4,0Z"/><path class="a" d="M31.348,193.106c-1.391,4.88-3.111,12.983-4.233,19.343-5.486,31.083-.183,62.81,2.2,93.229,2.468,31.549,3.976,63.1,6.444,94.648a143.18,143.18,0,0,0,27.823.2,143.253,143.253,0,0,0,27.838-.2c2.468-31.55,3.976-63.1,6.445-94.648,2.379-30.419,7.682-62.146,2.2-93.229-1.123-6.36-2.843-14.463-4.234-19.343"/><path class="c" d="M62.415,250.385c-.428,4.681-.377,9.426-.413,14.121-.053,6.863-.025,13.727.016,20.589.059,9.672.164,19.343.15,29.015q-.025,16.1-.063,32.2-.033,18.055-.035,36.112,0,6.5.031,13c.011,2.072-.068,4.179.083,6.248A2.173,2.173,0,0,0,62.8,403.3a2.063,2.063,0,0,0,2.829,0,2.015,2.015,0,0,0,0-2.829,2.2,2.2,0,0,1,.566,1.281,2.106,2.106,0,0,0-.016-.3c-.005-.332-.019-.664-.025-1-.021-1.141-.03-2.282-.038-3.423-.029-4.01-.034-8.019-.038-12.028q-.019-17.535.026-35.069.028-16.645.065-33.29c.015-8.94-.05-17.878-.114-26.817-.089-12.35-.4-24.767.208-37.107.039-.781.086-1.561.157-2.339a2.016,2.016,0,0,0-2-2,2.042,2.042,0,0,0-2,2Z"/><path class="c" d="M29.419,192.574a178.948,178.948,0,0,0-6.268,36.267c-.933,13.688-.253,27.429.882,41.083,1.13,13.588,2.638,27.138,3.661,40.736,1.054,14.023,1.94,28.058,2.824,42.093,1,15.863,2,31.726,3.238,47.573a2.069,2.069,0,0,0,2,2,154.429,154.429,0,0,0,26.485.307c2.551-.191,2.572-4.192,0-4a154.429,154.429,0,0,1-26.485-.307l2,2c-2.189-28.042-3.632-56.134-5.659-84.187-.981-13.583-2.348-27.122-3.581-40.683s-2.163-27.189-1.667-40.814a174.93,174.93,0,0,1,6.427-41c.7-2.481-3.157-3.54-3.857-1.063Z"/><path class="c" d="M93.9,193.637a173.541,173.541,0,0,1,6.188,36.17c.845,13.533.147,27.1-.985,40.6s-2.624,26.983-3.639,40.5c-1.053,14.023-1.937,28.058-2.822,42.093-.994,15.78-1.992,31.56-3.222,47.324l2-2a154.428,154.428,0,0,1-26.485.307c-2.568-.192-2.555,3.809,0,4a154.428,154.428,0,0,0,26.485-.307,2.068,2.068,0,0,0,2-2c2.2-28.208,3.649-56.467,5.695-84.685.99-13.658,2.383-27.269,3.61-40.906,1.221-13.564,2.122-27.2,1.574-40.818a179.377,179.377,0,0,0-6.542-41.343c-.7-2.473-4.56-1.422-3.857,1.063Z"/><path class="d" d="M19.685,437.2q-.165-.216-.312-.446a8.358,8.358,0,0,1-.553-7.006,22.939,22.939,0,0,1,3.595-6.273q5.2-7.107,11-13.756c1.507-1.727,3.209-3.528,5.461-3.953a3.391,3.391,0,0,0,1.684,3.553,7.944,7.944,0,0,0,4.061.916A22.536,22.536,0,0,0,60.4,403.96c-.026,4.745.021,6.325,0,11.073a9.97,9.97,0,0,1-.417,3.424c-.975,2.639-3.869,3.91-6.191,5.5-6.041,4.134-9.222,11.676-15.552,15.351a16.344,16.344,0,0,1-15.108.542A9.545,9.545,0,0,1,19.685,437.2Z"/><path class="d" d="M109.145,437.2q.165-.216.312-.446a8.358,8.358,0,0,0,.553-7.006,22.939,22.939,0,0,0-3.595-6.273q-5.2-7.107-11-13.756c-1.507-1.727-3.209-3.528-5.461-3.953a3.391,3.391,0,0,1-1.684,3.553,7.944,7.944,0,0,1-4.061.916,22.536,22.536,0,0,1-15.778-6.278c.026,4.745-.021,6.325,0,11.073a9.97,9.97,0,0,0,.417,3.424c.975,2.639,3.869,3.91,6.191,5.5,6.041,4.134,9.222,11.676,15.552,15.351a16.344,16.344,0,0,0,15.108.542A9.545,9.545,0,0,0,109.145,437.2Z"/><path class="c" d="M21.412,436.194c-1.631-2.23-1.232-5.047-.048-7.4a52.085,52.085,0,0,1,5.49-7.931q3.032-3.954,6.267-7.746c1.712-2.014,3.554-4.809,6.287-5.423l-2.46-2.461a5.56,5.56,0,0,0,3.35,6.187c2.6,1.169,5.747.918,8.491.487a24.238,24.238,0,0,0,13.024-6.537L58.4,403.96c-.021,4.044.156,8.12-.02,12.161-.087,2.008-1.119,3.183-2.726,4.266a56.634,56.634,0,0,0-4.73,3.255c-5.789,4.806-9.177,13.167-16.924,15.284-4.26,1.164-9.96.484-12.9-3.137a2.013,2.013,0,0,0-2.828,0,2.046,2.046,0,0,0,0,2.828c2.981,3.672,8.532,5.113,13.085,4.78a19.4,19.4,0,0,0,12.29-5.788c3.069-3.008,5.432-6.646,8.488-9.666a30.386,30.386,0,0,1,5.087-3.806,11.187,11.187,0,0,0,4.357-4.348c1.2-2.573.831-5.685.825-8.45,0-2.46-.017-4.92,0-7.379a2.022,2.022,0,0,0-3.414-1.415,20.24,20.24,0,0,1-8.822,4.983,19.441,19.441,0,0,1-5.753.7c-.946-.028-3.926-.28-3.6-1.932a2.028,2.028,0,0,0-2.46-2.461c-3.455.778-5.719,3.713-7.9,6.271q-3.795,4.455-7.336,9.116c-3.858,5.058-9.873,12.535-5.153,18.985a2.059,2.059,0,0,0,2.736.718A2.015,2.015,0,0,0,21.412,436.194Z"/><path class="c" d="M110.872,438.212c4.721-6.451-1.3-13.928-5.153-18.985q-3.549-4.653-7.336-9.116c-2.179-2.558-4.443-5.493-7.9-6.271a2.028,2.028,0,0,0-2.46,2.461c.3,1.572-2.456,1.886-3.394,1.926a19.343,19.343,0,0,1-5.964-.7,20.24,20.24,0,0,1-8.822-4.983,2.022,2.022,0,0,0-3.414,1.415c.012,2.23.005,4.461,0,6.692a43.924,43.924,0,0,0,.184,7.082c.772,4.787,5.507,6.193,8.744,8.971,3.269,2.806,5.668,6.434,8.563,9.593,3.076,3.357,6.852,6.047,11.422,6.834,5.169.89,11.734-.225,15.217-4.515a2.058,2.058,0,0,0,0-2.828,2.014,2.014,0,0,0-2.828,0c-2.551,3.141-7.352,4.09-11.193,3.508-4-.607-7.118-2.91-9.79-5.828-2.609-2.85-4.81-6.066-7.617-8.736a29.51,29.51,0,0,0-4.739-3.567c-1.32-.826-2.968-1.735-3.616-3.241a9.937,9.937,0,0,1-.348-3.831q0-1.72,0-3.442c.007-2.231.014-4.462,0-6.692l-3.414,1.414a24.238,24.238,0,0,0,13.023,6.537c2.666.418,5.7.667,8.253-.386a5.6,5.6,0,0,0,3.589-6.288l-2.46,2.461c2.669.6,4.457,3.275,6.133,5.242q3.308,3.883,6.421,7.927a54.253,54.253,0,0,1,5.392,7.742c1.242,2.4,1.735,5.282.05,7.585a2.014,2.014,0,0,0,.718,2.736A2.045,2.045,0,0,0,110.872,438.212Z"/><path class="e" d="M105.248,192.424c0,4.83,0,25.966,0,31.778-3.081,0-78.836-.287-81.666-.287,0-7.451,0-26.155,0-29.743l-11-8.744c-3.549-5.549-8.246-10.522-9.887-16.869a32.936,32.936,0,0,1-.507-10.874A115.163,115.163,0,0,1,16.1,111.438a19.977,19.977,0,0,1,3.349-3.319c.959-.766,11.714-6.19,20.992-10.444,1.93-3.42,2.947-6.368,5.812-9A54.914,54.914,0,0,0,62.1,99.719c.328.149.694.331.8.675h3.038c.105-.344.471-.526.8-.675A54.914,54.914,0,0,0,82.582,88.674c2.865,2.633,3.882,5.581,5.812,9,9.278,4.254,20.033,9.678,20.992,10.444a19.977,19.977,0,0,1,3.349,3.319,115.163,115.163,0,0,1,13.91,46.247,32.936,32.936,0,0,1-.507,10.874c-1.641,6.347-6.338,11.32-9.887,16.869Z"/><path class="c" d="M21.581,194.172q0,14.871,0,29.743a2.029,2.029,0,0,0,2,2c9.362,0,18.724.064,28.086.1q21.282.076,42.563.154c3.673.013,7.345.034,11.017.035a2.028,2.028,0,0,0,2-2q0-15.888,0-31.778c0-2.574-4-2.578-4,0q0,15.889,0,31.778l2-2c-9.422,0-18.844-.063-28.266-.1q-21.255-.078-42.512-.154c-3.629-.013-7.259-.035-10.888-.036l2,2q0-14.871,0-29.743c0-2.574-4-2.578-4,0Z"/><path class="c" d="M47.944,92.231c-6.134,2.5-12.128,5.346-18.078,8.246-2.629,1.282-5.249,2.58-7.845,3.926a24.254,24.254,0,0,0-3.992,2.3,16.25,16.25,0,0,0-4.413,5.11q-1.644,3.079-3.1,6.256a119.754,119.754,0,0,0-5.088,13.07A115.691,115.691,0,0,0,.1,158.873c-.359,5.4.211,10.545,2.7,15.408,2.219,4.342,5.424,8.075,8.057,12.157,1.391,2.156,4.855.152,3.454-2.019-2.234-3.463-4.859-6.665-6.974-10.206a22.873,22.873,0,0,1-3.357-12.242A98.657,98.657,0,0,1,8.3,135.436a113.421,113.421,0,0,1,4.4-12.46c.875-2.075,1.822-4.122,2.823-6.139a20.49,20.49,0,0,1,3.316-5.5,15.8,15.8,0,0,1,4.277-3c2.246-1.184,4.517-2.318,6.794-3.441,6.28-3.1,12.609-6.17,19.1-8.811a2.064,2.064,0,0,0,1.4-2.46,2.014,2.014,0,0,0-2.46-1.4Z"/><path class="c" d="M79.823,96.088c5.762,2.346,11.387,5.05,16.978,7.773,2.507,1.221,5.007,2.459,7.486,3.736a30.2,30.2,0,0,1,3.991,2.177c3.234,2.357,4.763,6.383,6.392,9.907a110.7,110.7,0,0,1,4.873,12.524A112.039,112.039,0,0,1,124.7,158.4c.368,5.069.037,9.856-2.4,14.4-2.206,4.116-5.251,7.7-7.776,11.618-1.4,2.169,2.061,4.177,3.454,2.019,2.343-3.633,5.121-6.981,7.282-10.733a26.34,26.34,0,0,0,3.592-13.02A84.855,84.855,0,0,0,127.5,148.21a115.563,115.563,0,0,0-3.044-13.621,117.3,117.3,0,0,0-4.693-13.217q-1.359-3.217-2.9-6.352a25.33,25.33,0,0,0-3.473-5.9c-3.239-3.6-7.917-5.432-12.175-7.535-6.682-3.3-13.422-6.539-20.327-9.35a2.013,2.013,0,0,0-2.46,1.4,2.049,2.049,0,0,0,1.4,2.46Z"/><path class="c" d="M62.415,101.716V222.48c0,2.574,4,2.578,4,0V101.716c0-2.574-4-2.578-4,0Z"/><path class="a" d="M53.38,112.216c-5.09-5.058-8.174-10.3-11.933-16.422,1.367-2.637,2.475-4.982,4.8-7.12A54.914,54.914,0,0,0,62.1,99.719c.328.149.694.331.8.675a1.268,1.268,0,0,1-.183.895,50.993,50.993,0,0,1-3.278,4.233C57.205,108.251,54.877,110.372,53.38,112.216Z"/><path class="a" d="M75.45,112.216c5.09-5.058,8.174-10.3,11.933-16.422-1.367-2.637-2.475-4.982-4.8-7.12A54.914,54.914,0,0,1,66.733,99.719c-.328.149-.694.331-.8.675a1.268,1.268,0,0,0,.183.895,50.993,50.993,0,0,0,3.278,4.233C71.625,108.251,73.953,110.372,75.45,112.216Z"/><path class="c" d="M54.794,110.8c-4.717-4.727-8.148-10.36-11.62-16.016V96.8a23.644,23.644,0,0,1,4.488-6.716H44.834a56.94,56.94,0,0,0,8.124,6.734q2.09,1.437,4.305,2.683,1.032.579,2.089,1.111.519.261,1.043.509c.23.109.46.216.692.321q.451.267.082-.043l-.273-1.009c-.014-.182.159-.095.013.021a1.66,1.66,0,0,0-.223.33c-.209.3-.439.591-.665.88-.888,1.134-1.791,2.26-2.73,3.351-1.717,1.994-3.65,3.8-5.325,5.825a2.057,2.057,0,0,0,0,2.829,2.015,2.015,0,0,0,2.828,0c2.148-2.6,4.614-4.913,6.742-7.537,1.413-1.743,4.9-4.976,2.651-7.343-1-1.051-2.773-1.544-4.035-2.221q-2.222-1.192-4.325-2.587a51.788,51.788,0,0,1-8.165-6.683,2.037,2.037,0,0,0-2.828,0,22.756,22.756,0,0,0-4.417,6.176,10.13,10.13,0,0,0-.9,1.828,2.788,2.788,0,0,0,.641,2.257c.71,1.157,1.418,2.316,2.137,3.467a70.536,70.536,0,0,0,9.67,12.643C53.786,115.455,56.615,112.627,54.794,110.8Z"/><path class="c" d="M76.864,113.63a70.536,70.536,0,0,0,9.67-12.643c.719-1.151,1.427-2.31,2.137-3.467a2.8,2.8,0,0,0,.641-2.257A9.132,9.132,0,0,0,88.5,93.6,23.13,23.13,0,0,0,84,87.259a2.035,2.035,0,0,0-2.828,0,51.8,51.8,0,0,1-7.994,6.569c-1.4.933-2.842,1.806-4.322,2.607-1.305.707-3.187,1.215-4.209,2.315-2.191,2.359,1.1,5.43,2.518,7.179,2.17,2.682,4.682,5.046,6.875,7.7a2.014,2.014,0,0,0,2.828,0,2.045,2.045,0,0,0,0-2.829c-1.675-2.029-3.608-3.831-5.325-5.825-.9-1.048-1.766-2.131-2.623-3.215-.242-.307-.484-.613-.711-.931a2.481,2.481,0,0,0-.251-.362c-.148-.142-.006-.262-.02-.074l-.273,1.009q-.37.31.082.043c.174-.079.347-.158.519-.24q.524-.245,1.042-.5,1.146-.572,2.263-1.2,2.213-1.242,4.305-2.683A56.94,56.94,0,0,0,84,90.088H81.168A23.658,23.658,0,0,1,85.656,96.8V94.785c-3.472,5.656-6.9,11.289-11.62,16.016C72.216,112.626,75.043,115.455,76.864,113.63Z"/><path class="f" d="M65,120.505c22.269.161,44.014.287,48.08.287v69.156c-1.069,0-93.581-.17-95.487.008,0,0-.813,0-.813-.008,0-15.047.1-61.274.139-69.156C20.985,120.792,42.731,120.666,65,120.505Z"/><path class="g" d="M74.812,120.6c0,1.58.243,9.367.145,9.5s-19.7.022-19.824-.052c-.228-.141-.253-6.979-.253-9.449"/><path class="c" d="M65,122.505q21.5.156,43.007.269c1.691.008,3.382.017,5.073.018l-2-2v69.156l2-2q-4.941,0-9.881-.016-11.409-.018-22.818-.031-13.705-.017-27.411-.024-11.83,0-23.66.008c-3.855.007-7.712,0-11.566.064-.321,0-.642.01-.964,0l2,2q0-13.866.036-27.733.029-15.715.07-31.431.014-5,.033-9.992l-2,2c11.211,0,22.422-.112,33.633-.187q7.224-.048,14.448-.1c2.573-.018,2.579-4.019,0-4q-21.5.156-43.007.269c-1.691.008-3.383.017-5.074.018a2.03,2.03,0,0,0-2,2c-.039,7.539-.048,15.079-.065,22.618q-.037,16.433-.061,32.864-.011,6.837-.013,13.674a2.036,2.036,0,0,0,2,2c3.415.119,6.865-.051,10.281-.059q11.31-.024,22.62-.013,13.7,0,27.4.021,11.917.014,23.835.032c3.966.006,7.963.159,11.927.019.079,0,.158,0,.237,0a2.029,2.029,0,0,0,2-2V120.792a2.028,2.028,0,0,0-2-2c-11.21,0-22.422-.112-33.632-.187q-7.224-.048-14.448-.1C62.425,118.487,62.423,122.486,65,122.505Z"/><path class="c" d="M72.805,120.6c0,1.728.068,3.456.107,5.183.021.932.043,1.864.055,2.8,0,.325.01.65.007.974,0,.42-.181.668.048.015l.919-1.2c.169-.1,1.331-.244.78-.25-.148,0-.3.011-.447.014-.5.013-.994.016-1.492.02-1.555.012-3.11.011-4.665.008q-5.2-.009-10.4-.063c-.608-.007-1.215-.014-1.822-.027-.168,0-.338-.015-.506-.012-.437.008.058-.007.275.057l.882.514-.013-.015.514.882c-.154-.368.018.6-.012-.012-.014-.294-.038-.587-.051-.882-.038-.881-.054-1.764-.068-2.646-.029-1.787-.037-3.574-.037-5.362,0-2.573-4-2.578-4,0,0,1.905.008,3.81.042,5.715.025,1.353-.2,3.22.37,4.49.578,1.294,1.793,1.258,2.971,1.278,1.258.021,2.516.032,3.773.042q5.058.042,10.116.042c1.227,0,2.454,0,3.68-.02s2.641-.036,3.056-1.521a6.7,6.7,0,0,0,.088-1.806c-.01-.939-.032-1.878-.053-2.818-.04-1.8-.107-3.6-.112-5.4-.006-2.573-4.006-2.578-4,0Z"/><path class="a" d="M26.975,180.584c.84-.609,3.584-2.743,4.425-3.351a3.44,3.44,0,0,0,1.335-1.437,2.255,2.255,0,0,0-.818-2.417,4.631,4.631,0,0,0-2.516-.958c-5.336-.476-14.292-.1-17.6,5.2.117,4.139-.4,9.018,2.6,11.81l1.244,1.159.839.457a27.878,27.878,0,0,0,22.567,1.691,8.8,8.8,0,0,0,1.985-1.055,10.572,10.572,0,0,0,4.5-5.765.216.216,0,0,0,.014-.1c-.308-2.852-2.951-2.761-5-2.436l-4.516.719c-2.4.383-9.3-1.75-11.27-3.172"/><path class="c" d="M27.985,182.311c1.271-.93,2.506-1.91,3.763-2.859,1.61-1.214,3.255-2.379,3.053-4.643-.417-4.677-6.381-4.625-9.858-4.524a23.645,23.645,0,0,0-10.69,2.458,11.033,11.033,0,0,0-4.017,3.622,5.376,5.376,0,0,0-.411,3.069c.006,1.11.005,2.222.077,3.33.261,4.022,1.717,7.931,5.444,9.944a30.329,30.329,0,0,0,13.485,3.645c4.5.141,9.936-.543,13.657-3.26a12.644,12.644,0,0,0,3.7-3.888c1.027-1.789,1.856-3.621.755-5.589-2.411-4.309-8.008-1.439-11.664-1.469a18.336,18.336,0,0,1-5.122-1.069,16,16,0,0,1-4.379-1.875c-2.124-1.465-4.126,2-2.019,3.454a18.294,18.294,0,0,0,4.576,2.032,28.941,28.941,0,0,0,5.876,1.376c2.143.248,4.316-.348,6.424-.681a8.151,8.151,0,0,1,2.044-.161c.755.09.822.307.944,1.128v-1.064a7.1,7.1,0,0,1-1.993,3.363,10.7,10.7,0,0,1-4.694,2.681,25.7,25.7,0,0,1-11.912.623c-3.263-.612-7.508-1.719-9.69-4.433-2.085-2.594-1.456-6.816-1.53-9.9l-.273,1.009c2.435-3.744,7.979-4.312,12.035-4.359q1.593-.02,3.185.1a3.854,3.854,0,0,1,1.511.31c.114.058.579.283.583.5,0-.037.06-.3-.075.005-.119.268-.706.561-.94.738q-.636.478-1.266.964c-.863.659-1.719,1.327-2.595,1.968a2.06,2.06,0,0,0-.718,2.737,2.017,2.017,0,0,0,2.737.717Z"/><path class="a" d="M102.434,180.584c-.84-.609-3.584-2.743-4.425-3.351a3.434,3.434,0,0,1-1.335-1.437,2.253,2.253,0,0,1,.818-2.417,4.631,4.631,0,0,1,2.516-.958c5.336-.476,14.292-.1,17.6,5.2-.116,4.139.4,9.018-2.595,11.81l-1.244,1.159-.839.457a27.878,27.878,0,0,1-22.567,1.691,8.8,8.8,0,0,1-1.985-1.055,10.572,10.572,0,0,1-4.5-5.765.216.216,0,0,1-.014-.1c.308-2.852,2.951-2.761,5-2.436l4.516.719c2.4.383,9.3-1.75,11.27-3.172"/><path class="c" d="M103.443,178.857c-.833-.609-1.648-1.244-2.467-1.871q-.648-.495-1.3-.988c-.256-.192-.906-.513-1.038-.811-.05-.11-.069-.126-.074-.026.006-.123.281-.294.414-.383a3.157,3.157,0,0,1,1.545-.4q1.656-.125,3.319-.1c4.057.05,9.6.614,12.035,4.359l-.274-1.009c-.073,3.085.557,7.3-1.529,9.9-2.179,2.711-6.432,3.821-9.69,4.433a25.7,25.7,0,0,1-11.912-.623,10.684,10.684,0,0,1-4.694-2.681,7.091,7.091,0,0,1-1.993-3.363v1.064c.113-.764.151-1,.819-1.1a6.9,6.9,0,0,1,1.943.1c2.191.317,4.427.975,6.65.717a28.929,28.929,0,0,0,5.726-1.325,18.632,18.632,0,0,0,4.726-2.083c2.1-1.452.107-4.921-2.019-3.454a20.493,20.493,0,0,1-8.562,2.878c-3.516.444-7.324-1.985-10.72-.267-1.545.782-2.894,2.846-2.405,4.638a12.316,12.316,0,0,0,2.811,4.826c3.216,3.418,7.974,4.583,12.493,4.981a29.489,29.489,0,0,0,13.58-2.032,16.367,16.367,0,0,0,5.546-3.334,9.926,9.926,0,0,0,2.739-5.1,31.07,31.07,0,0,0,.468-6.36,5.4,5.4,0,0,0-.411-3.069,9.463,9.463,0,0,0-1.777-2.042c-2.839-2.475-6.564-3.434-10.226-3.85a35.014,35.014,0,0,0-5.828-.147c-2.376.127-4.941.571-6.229,2.837-1.439,2.531.206,4.543,2.175,6.009,1.388,1.034,2.74,2.117,4.136,3.139a2.016,2.016,0,0,0,2.737-.717,2.047,2.047,0,0,0-.718-2.737Z"/></svg>