<?xml version="1.0" encoding="utf-8"?>
<!-- Uploaded to: SVG Repo, www.svgrepo.com, Generator: SVG Repo Mixer Tools -->
<svg width="800px" height="800px" viewBox="0 -112.54 492.398 492.398" xmlns="http://www.w3.org/2000/svg"><defs><style>.a{fill:#ffffff;}.b{fill:#c6c6c6;}.c{fill:#bdbdbd;}.d{fill:#211715;}.e{fill:#5394cf;}.f{fill:#7a7473;}.g{fill:#6dbf6b;}.h{fill:#d8d8d8;}.i{fill:#cfcfcf;}</style></defs><path class="a" d="M373.83,1.668c-13.739,9.524-95.616,73.055-116.939,89.914,3.248,0,15.1.013,22.131.017V265.041c13.117,0,85.835.608,94.808.608s81.691-.608,94.808-.608V91.6c7.032-.006,18.883-.019,22.131-.019C470.608,75.819,385.282,9.643,373.83,1.668Z"/><path class="a" d="M1.6,3.481V265.6c15.847,0,90.633.133,100.109.133s86.258-.681,100.108-.681V3.483Z"/><path class="a" d="M104.166,145.214c.479-.163,3.937-1.972,4.1-2.031,2.522-.911,2.386-2.954,2.716-4.762a22.562,22.562,0,0,1-7.039-5.808,25.978,25.978,0,0,1-4.951-9.665l-.976-.15a6.441,6.441,0,0,1-2.994-1.349,9.721,9.721,0,0,1-2.511-3.3,15.279,15.279,0,0,1-1.557-8.1A5.1,5.1,0,0,1,91.488,108a3.608,3.608,0,0,1,2.593-1.723,3.814,3.814,0,0,1,3.055.894s-1.322-24.326,25.641-24.326,25.608,24.326,25.608,24.326a3.818,3.818,0,0,1,3.056-.894A3.606,3.606,0,0,1,154.033,108a5.112,5.112,0,0,1,.534,2.051,15.279,15.279,0,0,1-1.558,8.1,9.708,9.708,0,0,1-2.511,3.3,6.438,6.438,0,0,1-2.993,1.349l-.513.079c-.246.92-.522,1.694-.657,2.106-.88,2.388-5.843,10.711-12.065,13.625.379,1.893.143,3.632,2.753,4.575.164.059,4.706,2.248,4.957,2.352,0,0-4.184,15.536-19.5,15.536S104.166,145.214,104.166,145.214Z"/><path class="b" d="M108.058,86.786c-5.626,3.115-8.1,12.372-8.454,17.138l-2.468,3.251a3.814,3.814,0,0,0-3.055-.894,1.084,1.084,0,0,0-.176.038c-2.684-4.55-2.741-13.477-.956-21.154,1.35-5.809,4.906-9.976,10.488-13.361a18.5,18.5,0,0,0,1.738-.771,21.588,21.588,0,0,0,2.444-1.8c6.535-4.828,15.717-4.7,20.1-3.781,11.051,2.31,17.573,8.8,20.191,13.45,4.234,7.512,7,16.174,3.521,27.372a3.819,3.819,0,0,0-3.044.9l-1.909-3.251c.012-3.4-2.952-15.028-12.095-18.444,0,0-5.629-2.8-14.307-1.668A46.172,46.172,0,0,0,108.058,86.786Z"/><path class="c" d="M83.615,234.746,65.591,222.5c-2.089-1.42-4.29-2.975-5.23-5.32a14.5,14.5,0,0,1-.514-8.292c3.2-12.817,6.056-24.085,10.266-36.607,1.367-4.066,2.883-8.269,5.949-11.269,2.032-1.987,6.246-4.192,8.78-5.48q10.6-5.387,21.2-10.785c.994,3.676,2.519,9.816,4.656,15.939,4.069,11.658,9.646,24.669,12.647,31.15l.325.7c3.535-8.516,8.228-21.74,11.473-32.634a152.151,152.151,0,0,0,3.714-15.719q11.148,5.687,22.3,11.348c2.534,1.288,6.749,3.493,8.78,5.48,3.067,3,4.582,7.2,5.949,11.269,4.21,12.522,7.064,23.79,10.266,36.607a14.491,14.491,0,0,1-.514,8.292c-.939,2.345-3.141,3.9-5.229,5.32l-18.024,12.248"/><path class="d" d="M84.424,233.369q-5.121-3.48-10.243-6.959c-3.2-2.176-6.594-4.211-9.634-6.612a8.222,8.222,0,0,1-2.774-3.4,12.436,12.436,0,0,1-.67-5.181,29.177,29.177,0,0,1,1.113-5.2q.749-2.982,1.509-5.96c1.919-7.487,3.954-14.945,6.285-22.315,2-6.327,3.683-13.6,9.583-17.439a105.832,105.832,0,0,1,9.988-5.389q6.108-3.1,12.212-6.211c1.835-.935.218-3.7-1.615-2.763q-5.776,2.945-11.558,5.879c-3.244,1.647-6.552,3.214-9.664,5.106a19.35,19.35,0,0,0-7.046,6.914A53.745,53.745,0,0,0,67.8,174.159c-2.554,7.815-4.761,15.735-6.816,23.7q-.793,3.075-1.566,6.155a57.721,57.721,0,0,0-1.366,5.8c-.489,3.4-.074,7.34,2.094,10.124a18.744,18.744,0,0,0,4.319,3.737c2.007,1.385,4.032,2.743,6.048,4.113q6.146,4.176,12.291,8.352c1.708,1.16,3.311-1.611,1.616-2.764Z"/><path class="a" d="M124.686,146.365a.559.559,0,0,0-.243.294.842.842,0,0,0,.121.59h-4.185a.837.837,0,0,0,.121-.59c-.07-.227-.311-.346-.527-.444a36.18,36.18,0,0,1-10.44-7.277,17.977,17.977,0,0,0-3.7,5.046c.986,3.544,2.575,10.132,4.867,16.7,4.069,11.658,9.646,24.669,12.647,31.15l.325.7c3.535-8.516,8.228-21.74,11.473-32.634a153.263,153.263,0,0,0,3.809-16.236,17.7,17.7,0,0,0-3.539-4.727,36.18,36.18,0,0,1-10.44,7.277A1.977,1.977,0,0,0,124.686,146.365Z"/><path class="d" d="M141.721,147.44c7.115,3.622,14.346,7.078,21.354,10.9,2.775,1.514,5.563,3.113,7.4,5.765,1.99,2.875,3.087,6.233,4.18,9.521,2.476,7.456,4.635,15.01,6.628,22.608,1.017,3.877,2,7.765,2.968,11.654.791,3.163,1.271,7.108-.8,9.935a16.55,16.55,0,0,1-4.262,3.573q-2.865,1.951-5.735,3.9-5.941,4.036-11.881,8.073c-1.694,1.152-.094,3.926,1.615,2.764q5.529-3.761,11.062-7.517c3.347-2.274,7-4.37,10.049-7.046,6.4-5.619,3.057-14.528,1.289-21.455-2.066-8.1-4.259-16.167-6.805-24.129a75.369,75.369,0,0,0-4.032-10.91,18.823,18.823,0,0,0-6.732-7.534,117.019,117.019,0,0,0-10.94-5.873q-6.874-3.49-13.745-6.992c-1.831-.933-3.452,1.827-1.615,2.763Z"/><path class="d" d="M109.6,141.082a32.675,32.675,0,0,1-.377,3.807,20.481,20.481,0,0,1-.454,2.537c-.023.08-.059.159-.078.239-.042.184.162-.309.027-.06-.048.089-.091.179-.144.265-.183.3.018.038.009.012.021.063-.346.345-.394.388.286-.255-.007-.01-.08.034-.117.071-.239.131-.36.195-.249.134.066-.019-.108.048l-.16.061c-.152.06-.3.123-.454.186q-.669.276-1.334.56a1.6,1.6,0,0,0-.574,2.189,1.65,1.65,0,0,0,2.189.574c.23-.1.021-.006-.091.038.1-.039.2-.083.3-.124l.6-.25a12.844,12.844,0,0,0,1.495-.647,4.788,4.788,0,0,0,2.184-2.665,16.231,16.231,0,0,0,.515-2.73,39.98,39.98,0,0,0,.491-4.657,1.613,1.613,0,0,0-1.6-1.6,1.634,1.634,0,0,0-1.6,1.6Z"/><path class="d" d="M131.731,141.033a39.863,39.863,0,0,0,.522,4.886,13.263,13.263,0,0,0,.575,2.782,4.808,4.808,0,0,0,2.6,2.681c.427.186.864.347,1.3.518l.634.253.34.139c.357.143-.277-.121-.066-.029a1.644,1.644,0,0,0,2.189-.574,1.618,1.618,0,0,0-.574-2.189c-.744-.323-1.5-.63-2.259-.914-.047-.018-.319-.132-.088-.029a4.191,4.191,0,0,1-.384-.195c-.094-.053-.182-.13-.279-.175s.181.189-.052-.05c-.065-.067-.129-.135-.2-.2-.236-.233.135.249-.006-.015-.047-.09-.1-.182-.152-.269-.171-.294.1.332,0,.007a19.934,19.934,0,0,1-.5-2.592c-.116-.7-.17-1.084-.245-1.8-.079-.744-.131-1.489-.162-2.237a1.6,1.6,0,0,0-3.2,0Z"/><path class="e" d="M119.014,153.116q.074.315.154.63a5.573,5.573,0,0,1,.229,1.4c0,.5-3.114,25.715-3.7,30.548,1.429,1.98,5.844,8.2,7.929,10.092,1.819-1.754,5.694-7.47,7.3-10.015-.446-3.927-4.438-29.688-4.426-30.469a8.452,8.452,0,0,1,.545-2.482c.71-2.169.853-3.684,1.564-5.852-2.109,0-9.366.017-10.9.017C118.233,149.028,118.537,151.072,119.014,153.116Z"/><path class="d" d="M119.468,156.692c2.346,0,4.691-.052,7.037-.053a1.6,1.6,0,0,0,0-3.2c-2.346,0-4.691.052-7.037.053a1.6,1.6,0,0,0,0,3.2Z"/><path class="d" d="M117.471,153.541a14.8,14.8,0,0,1-.119,5.475q-.587,4.891-1.186,9.779-.645,5.286-1.293,10.572-.252,2.054-.5,4.107c-.138,1.133-.495,2.3.152,3.308,1.124,1.751,2.459,3.409,3.718,5.064a39.04,39.04,0,0,0,4.258,5.071,1.632,1.632,0,0,0,2.263,0,37.5,37.5,0,0,0,3.98-5.035q.98-1.377,1.92-2.78a19.517,19.517,0,0,0,1.651-2.525c.467-1.02.006-2.466-.143-3.535q-.292-2.09-.6-4.177c-1.025-6.99-2.106-13.973-3.116-20.965q-.124-.863-.245-1.726a2.451,2.451,0,0,1-.037-.277c-.016-.132-.042-.266-.049-.4a8.989,8.989,0,0,1,.681-2.927c.506-1.713.816-3.473,1.356-5.178a1.614,1.614,0,0,0-1.543-2.025c-3.633,0-7.265.016-10.9.017a1.619,1.619,0,0,0-1.543,2.025c.5,2.03.835,4.094,1.3,6.132.457,2.007,3.543,1.158,3.086-.851-.463-2.038-.8-4.1-1.3-6.132l-1.543,2.026c3.633,0,7.265-.017,10.9-.017l-1.543-2.026c-.451,1.426-.745,2.884-1.121,4.329s-1.087,2.927-1.045,4.44a17.941,17.941,0,0,0,.249,1.958c.392,2.817.82,5.628,1.24,8.441q.847,5.676,1.7,11.352.357,2.409.707,4.818.133.924.264,1.849c.037.262.073.523.109.785.019.14.039.28.057.42-.035-.266-.011-.089.01.073a2.138,2.138,0,0,0,.076.6c.133.129.334-.493.055-.361-.164.078-.38.591-.481.746q-1.035,1.588-2.116,3.144a38.225,38.225,0,0,1-4.272,5.516h2.263c-2.768-2.573-4.916-5.931-7.114-8.983-.155-.216-.521-.986-.4-.363s.083.037.12-.152c.095-.5.123-1.014.184-1.513q.238-1.963.479-3.926,1.23-10.059,2.452-20.118c.137-1.144.275-2.288.406-3.433a9.455,9.455,0,0,0-.331-3.476C120.08,150.688,116.994,151.536,117.471,153.541Z"/><path class="a" d="M113.92,155.252c-3.353-3.331-5.549-7.367-8.025-11.4a17.86,17.86,0,0,1,3.638-4.916,36.18,36.18,0,0,0,10.44,7.277c.216.1.457.217.527.444a.837.837,0,0,1-.121.59C120.067,147.9,115.659,153.111,113.92,155.252Z"/><path class="a" d="M131.024,155.252c3.352-3.331,5.548-7.367,8.025-11.4a17.884,17.884,0,0,0-3.639-4.916,36.18,36.18,0,0,1-10.44,7.277c-.216.1-.457.217-.527.444a.842.842,0,0,0,.121.59C124.877,147.9,129.284,153.111,131.024,155.252Z"/><path class="d" d="M115.051,154.121c-3.213-3.229-5.413-7.221-7.775-11.074v1.615a17.1,17.1,0,0,1,3.388-4.592H108.4a38.012,38.012,0,0,0,5.416,4.485q1.409.969,2.905,1.805.664.37,1.345.712.365.183.733.355c.121.058.243.114.365.169q.362.207-.048-.129l-.218-.808c-.022-.277.172-.256.026-.095a2.627,2.627,0,0,0-.175.252c-.082.115-.17.228-.255.341.247-.326-.125.158-.168.212-.582.738-1.178,1.464-1.775,2.19-1.252,1.523-2.521,3.033-3.765,4.562a1.648,1.648,0,0,0,0,2.263,1.612,1.612,0,0,0,2.263,0c1.18-1.45,2.382-2.882,3.57-4.325a35.027,35.027,0,0,0,3.05-3.853,2.263,2.263,0,0,0-.649-3.247c-1.126-.691-2.4-1.175-3.539-1.855a34.391,34.391,0,0,1-6.819-5.3,1.629,1.629,0,0,0-2.262,0,19.046,19.046,0,0,0-3.367,4.291,6.049,6.049,0,0,0-.683,1.331,2.126,2.126,0,0,0,.463,1.726c.474.778.942,1.558,1.414,2.336a46.662,46.662,0,0,0,6.559,8.893A1.6,1.6,0,0,0,115.051,154.121Z"/><path class="d" d="M132.155,156.384a46.619,46.619,0,0,0,6.559-8.893c.473-.778.94-1.558,1.414-2.336a2.294,2.294,0,0,0,.492-1.513,4.114,4.114,0,0,0-.643-1.425,19.071,19.071,0,0,0-3.435-4.41,1.629,1.629,0,0,0-2.263,0,34.4,34.4,0,0,1-6.7,5.225c-1.161.7-2.414,1.21-3.583,1.88a2.266,2.266,0,0,0-.727,3.294,34.449,34.449,0,0,0,2.985,3.774c1.21,1.469,2.434,2.927,3.635,4.4a1.611,1.611,0,0,0,2.263,0,1.637,1.637,0,0,0,0-2.263c-1.244-1.529-2.513-3.039-3.765-4.562-.6-.726-1.192-1.452-1.775-2.19-.043-.054-.415-.538-.167-.212-.086-.113-.173-.226-.256-.341a2.627,2.627,0,0,0-.175-.252c-.146-.161.048-.182.026.095l-.218.808q-.409.336-.047.129l.243-.111c.245-.116.489-.231.732-.352q.743-.368,1.468-.773,1.494-.833,2.905-1.805a37.945,37.945,0,0,0,5.416-4.485h-2.263a17.076,17.076,0,0,1,3.388,4.592v-1.615c-2.362,3.853-4.561,7.845-7.775,11.074A1.6,1.6,0,0,0,132.155,156.384Z"/><path class="c" d="M123.342,191.834c-3-6.481-8.578-19.492-12.647-31.15-2.526-7.239-4.2-14.5-5.147-17.689-1.739.084-9.18,9.911-10.389,13.05-.08.206,3.559,3.49,5.206,4.967a35.313,35.313,0,0,0-3.961,4.7c-.042.281,19.434,24.139,25.009,31.231"/><path class="c" d="M119.952,203.341a31.29,31.29,0,0,1,1.148-5.061c3.454-6.927,9.916-24.535,14.04-38.379a152.859,152.859,0,0,0,3.924-16.907c1.8.2,9.155,9.931,10.357,13.051.079.206-3.56,3.49-5.207,4.967a35.186,35.186,0,0,1,3.961,4.7c.043.281-14.456,22.832-22.158,34.437"/><path class="d" d="M122.545,195.81c-7.96-10.118-16.264-19.963-24.184-30.111a2.07,2.07,0,0,1-.17-.221,3.663,3.663,0,0,0-.23-.307c-.043-.046-.081-.163-.137-.195-.1-.059.075-.827.124.315l-.107,1.1c.042-.071.087-.14.135-.208a12.435,12.435,0,0,0,1.609-1.974,25.291,25.291,0,0,1,1.912-2.069,1.613,1.613,0,0,0,0-2.263c-1.647-1.477-3.25-2.991-4.854-4.512-.361-.343-.047-.066-.071-.05q-.178,1.926.144,1.125l.07-.15c.21-.314.358-.692.547-1.021.516-.9,1.086-1.771,1.671-2.628a59.966,59.966,0,0,1,4.086-5.345,26.781,26.781,0,0,1,1.923-2.049c.19-.179.617-.543.582-.514.412-.338.391-.17-.022-.14,2.041-.15,2.058-3.351,0-3.2-1.863.137-3.35,2.048-4.488,3.344a65.5,65.5,0,0,0-4.922,6.4c-.881,1.295-3.285,4.153-2.354,5.791a11.031,11.031,0,0,0,2.174,2.249c1.072,1,2.16,1.981,3.251,2.96V159.88a32.7,32.7,0,0,0-3.694,4.249,2.119,2.119,0,0,0-.359,2.634,59.734,59.734,0,0,0,3.873,4.924c4.868,6.078,9.778,12.121,14.665,18.184,2.2,2.726,4.4,5.449,6.563,8.2,1.272,1.618,3.523-.661,2.263-2.262Z"/><path class="d" d="M103.988,143.362c1.963,6.622,3.559,13.3,5.9,19.817,2.506,6.98,5.279,13.865,8.191,20.684,1.256,2.943,2.542,5.874,3.885,8.779.863,1.867,3.622.244,2.763-1.615-5.812-12.573-11.247-25.577-15.033-38.913-.906-3.191-1.675-6.422-2.618-9.6-.584-1.97-3.673-1.131-3.085.85Z"/><path class="d" d="M137.531,142.512a175.7,175.7,0,0,1-6.187,24.2c-2.694,8.323-5.608,16.6-8.93,24.695-.657,1.6-1.338,3.2-2.071,4.768a23.823,23.823,0,0,0-1.991,7.168,1.609,1.609,0,0,0,1.6,1.6,1.639,1.639,0,0,0,1.6-1.6c.469-3.683,2.182-6.838,3.588-10.214,1.54-3.7,2.965-7.442,4.34-11.2a277.652,277.652,0,0,0,8.614-26.721q1.491-5.867,2.523-11.841c.347-2.014-2.736-2.879-3.086-.85Z"/><path class="d" d="M139.007,144.6c-.14-.01-.323.036-.394-.091.043.076.239.126.314.19.033.029.326.262.568.487A25.6,25.6,0,0,1,141.4,147.2a59.5,59.5,0,0,1,4.172,5.445c.566.827,1.115,1.666,1.617,2.533.192.332.346.724.562,1.038s.145.846.214-.263a.75.75,0,0,1,.168-.8c-.047.054-.095.108-.145.16a17.933,17.933,0,0,0-2.225,2.138q-1.332,1.227-2.683,2.434a1.612,1.612,0,0,0,0,2.262,32.022,32.022,0,0,1,3,3.364c.156.194.3.432.475.613.662.7-.311-.718.213-1.156a2.014,2.014,0,0,0-.239.425c-1.048,1.673-2.079,3.355-3.138,5.022q-5.935,9.35-12,18.621-3.361,5.166-6.763,10.307c-1.142,1.721,1.629,3.325,2.763,1.615Q134.084,190.88,140.6,180.7q2.883-4.476,5.74-8.968c1.027-1.619,2.143-3.221,3.057-4.909a2.215,2.215,0,0,0-.363-2.692,32.538,32.538,0,0,0-3.693-4.247v2.262c1.052-.944,2.1-1.892,3.138-2.856a11.558,11.558,0,0,0,2.286-2.353c.931-1.639-1.472-4.5-2.353-5.791a65.513,65.513,0,0,0-4.923-6.4c-1.139-1.3-2.624-3.207-4.487-3.344-2.055-.151-2.045,3.05,0,3.2Z"/><path class="a" d="M414.052,106.953a3.814,3.814,0,0,1,3.055-.894,3.6,3.6,0,0,1,2.593,1.723,5.108,5.108,0,0,1,.534,2.051,15.289,15.289,0,0,1-1.558,8.1,9.7,9.7,0,0,1-2.511,3.3,6.433,6.433,0,0,1-2.994,1.35l-.512.079c-.246.92-.522,1.694-.657,2.105-.88,2.389-5.844,10.711-12.066,13.625.38,1.893.143,3.633,2.753,4.576.165.059,1.459,15.962-14.838,15.962s-14.082-15.9-13.917-15.962c2.522-.911,2.386-2.955,2.716-4.762a22.562,22.562,0,0,1-7.039-5.808,25.988,25.988,0,0,1-4.952-9.665l-.975-.15a6.433,6.433,0,0,1-2.994-1.35,9.7,9.7,0,0,1-2.511-3.3,15.279,15.279,0,0,1-1.558-8.1,5.108,5.108,0,0,1,.534-2.051,3.6,3.6,0,0,1,2.593-1.723,3.817,3.817,0,0,1,3.055.894s2.974-21.215,25.641-21.215C414.37,85.738,414.052,106.953,414.052,106.953Z"/><path class="f" d="M408.684,101.237a31.985,31.985,0,0,0-9.537-7.427L393.9,92.565c-3.254,1.49-9.143,4.707-9.656,4.487-.353-.152-.994-1.632-1.452-3.045a11.274,11.274,0,0,1-.525-2.17,241.728,241.728,0,0,0-18.537,16.85c-.218-1.817-2.2-2.894-3.978-2.628a3.612,3.612,0,0,0-.878.246c-1.975-8.169-1.484-15.082.169-19.938,1.5-4.4,4.886-9.417,9.16-11.636-1.448-.686-3.1-1.477-3.1-1.477,6.425-6.467,14.878-7.948,22.214-7.724,7.833.239,13.953,3.323,17.625,8.353l4.222,3.5a18.553,18.553,0,0,1,8.393,10.2c2.4,6.7,2.119,13.772.221,18.645a3.662,3.662,0,0,0-.666-.164,3.52,3.52,0,0,0-3.825,2.033A31.86,31.86,0,0,0,408.684,101.237Z"/><path class="d" d="M408.352,78.762c8.793,4.7,11.03,17.272,8.215,26.1-.628,1.966,2.461,2.808,3.085.85C422.891,95.556,420,81.355,409.967,76c-1.816-.97-3.434,1.792-1.615,2.764Z"/><path class="d" d="M369.083,72.609c-5.859,2.255-9.958,8.075-11.775,13.912-2.023,6.5-1.534,13.613,0,20.151.471,2,3.558,1.156,3.086-.85-1.367-5.806-1.826-12.049-.183-17.852,1.381-4.879,4.782-10.376,9.717-12.275,1.9-.732,1.076-3.827-.85-3.086Z"/><path class="d" d="M406.318,73.075c-4.793-6.444-12.375-9.137-20.219-9.166-8.179-.03-16.221,2.364-22.133,8.214-1.466,1.45.8,3.713,2.263,2.263,5.229-5.174,12.3-7.246,19.52-7.277,6.71-.029,13.642,1.984,17.806,7.581,1.216,1.634,4,.04,2.763-1.615Z"/><path class="d" d="M393.088,91.183c-2.343,1.082-4.621,2.3-6.945,3.419-.46.222-.92.452-1.392.647a2.835,2.835,0,0,0-.69.243q-.689.153,1.178.294-.123-.21-.227-.432c-.128-.384-.326-.754-.464-1.138a11.554,11.554,0,0,1-.685-2.379,1.626,1.626,0,0,0-2.731-1.132c-6.512,5.414-12.735,11.09-18.747,17.054a1.6,1.6,0,0,0,2.263,2.263c6.011-5.965,12.235-11.64,18.746-17.054l-2.731-1.131a13.658,13.658,0,0,0,1.953,5.783c.873,1.271,2.025,1.118,3.271.6,3.012-1.26,5.854-2.9,8.817-4.271,1.867-.862.244-3.621-1.616-2.763Z"/><path class="d" d="M398.339,95.192a30.9,30.9,0,0,1,14.022,14.679,1.612,1.612,0,0,0,2.189.574,1.637,1.637,0,0,0,.574-2.189,33.674,33.674,0,0,0-15.17-15.827,1.637,1.637,0,0,0-2.189.574,1.616,1.616,0,0,0,.574,2.189Z"/><path class="d" d="M415.183,108.084a2.153,2.153,0,0,1,3.073.4,4.429,4.429,0,0,1,.428,2.235,13.062,13.062,0,0,1-.186,2.679c-.582,3.187-2.213,7-5.752,7.631A1.614,1.614,0,0,0,411.628,123a1.637,1.637,0,0,0,1.969,1.118c5.309-.952,7.84-6.952,8.239-11.764.2-2.454.02-5.278-2.1-6.872a5.448,5.448,0,0,0-6.812.338,1.614,1.614,0,0,0,0,2.263,1.635,1.635,0,0,0,2.263,0Z"/><path class="d" d="M411.532,119.733a14.465,14.465,0,0,1-.843,3.913c-.075.23-.161.457-.23.689-.029.1-.159.387.013-.014-.117.273-.246.541-.38.807a32.711,32.711,0,0,1-2.822,4.537c-2.473,3.392-5.829,6.983-10.065,7.976-2,.471-1.156,3.557.851,3.086,5.006-1.174,8.893-5.27,11.839-9.259,2.546-3.447,4.659-7.353,4.837-11.735.083-2.059-3.117-2.056-3.2,0Z"/><path class="d" d="M363.935,105.821a5.451,5.451,0,0,0-6.812-.338c-2.126,1.59-2.308,4.421-2.1,6.872.4,4.811,2.93,10.812,8.239,11.764A1.645,1.645,0,0,0,365.226,123a1.613,1.613,0,0,0-1.117-1.968c-3.539-.634-5.171-4.444-5.752-7.631a12.92,12.92,0,0,1-.188-2.531,5.054,5.054,0,0,1,.368-2.281,2.141,2.141,0,0,1,3.135-.506,1.645,1.645,0,0,0,2.263,0,1.615,1.615,0,0,0,0-2.263Z"/><path class="d" d="M362.294,119.486a29.6,29.6,0,0,0,6.3,14.173c3.543,4.194,8.232,7.236,13.757,7.832a1.611,1.611,0,0,0,1.6-1.6,1.637,1.637,0,0,0-1.6-1.6c-4.774-.515-8.765-3.562-11.728-7.175a26.7,26.7,0,0,1-5.244-12.481c-.353-2.025-3.438-1.166-3.086.851Z"/><path class="d" d="M383.749,129.649a10.578,10.578,0,0,0,5.093,1.186,8.359,8.359,0,0,0,5.2-1.562,1.6,1.6,0,0,0,0-2.262,1.65,1.65,0,0,0-2.263,0c.545-.425-.077.027-.253.119-.138.073-.515.182-.036.033-.142.044-.279.107-.421.153-.179.057-.36.106-.544.149-.129.03-.511.172-.633.119l.172-.023-.2.022c-.115.011-.231.021-.347.028-.278.018-.558.025-.837.024-.25,0-.5-.01-.749-.027-.114-.008-.229-.017-.343-.029s-.455.02-.081-.006a3.539,3.539,0,0,1-1.1-.245c-.154-.046-.3-.1-.456-.153-.377-.129.31.151-.031-.01-.189-.089-.375-.181-.559-.279a1.6,1.6,0,1,0-1.615,2.763Z"/><path class="d" d="M387.883,117.84a23.108,23.108,0,0,1,.545,2.492l-.057-.425a1.522,1.522,0,0,1,.009.344l.057-.426a.816.816,0,0,1-.038.155l.162-.382a.639.639,0,0,1-.055.1l.25-.324a.517.517,0,0,1-.081.081L389,119.2a1.5,1.5,0,0,1-.2.105l.382-.161a1.471,1.471,0,0,1-.332.1l.425-.057a1.357,1.357,0,0,1-.312,0l.425.057c-.118-.016-.233-.045-.351-.061a1.215,1.215,0,0,0-.638-.028,1.185,1.185,0,0,0-.595.19,1.6,1.6,0,0,0-.574,2.189,1.535,1.535,0,0,0,.956.735c.3.04.585.114.887.128a2.887,2.887,0,0,0,1.342-.325,2.006,2.006,0,0,0,1.092-1.315,3.17,3.17,0,0,0-.011-1.381c-.136-.8-.322-1.6-.528-2.386a1.648,1.648,0,0,0-.735-.956,1.6,1.6,0,0,0-2.19.574,1.686,1.686,0,0,0-.161,1.233Z"/><path class="d" d="M375.017,110.7c-.416,1.352-.145,4.463,2.417,4.728,3.387-.02,3.567-3.782,2.427-5.55C378.927,108.427,376.183,107.825,375.017,110.7Z"/><path class="d" d="M402.135,110.7c.416,1.352.145,4.463-2.417,4.728-3.387-.02-3.567-3.782-2.427-5.55C398.224,108.427,400.969,107.825,402.135,110.7Z"/><path class="g" d="M350.231,233.226q-8.757-5.951-17.513-11.9c-2.03-1.379-4.169-2.89-5.082-5.168a14.094,14.094,0,0,1-.5-8.058c3.112-12.453,5.885-23.4,9.976-35.569,1.328-3.951,2.8-8.035,5.78-10.949,1.974-1.932,6.069-4.074,8.531-5.325l18.748-9.528a1.367,1.367,0,0,1-.133-.346c-.037-.6,2.544-5.352,3.38-7.512.056-.144.13-.306.278-.35s.322.07.45.18c1.431,1.229,9.286,7.627,10.129,8.66.29.976.79,2.265,1.632,4.911.68,1.611,1.9,4.612,2.553,6.02.939-1.969,2.163-4.876,3.134-7.214.469-1.429.847-3.029,1.051-3.717.843-1.033,8.7-7.431,10.129-8.66.128-.11.288-.228.45-.18s.222.206.278.35c.836,2.16,3.416,6.915,3.38,7.512l-.269.237,18.962,9.637c2.462,1.251,6.557,3.393,8.531,5.325,2.979,2.914,4.452,7,5.78,10.949,4.091,12.167,6.864,23.116,9.976,35.569a14.094,14.094,0,0,1-.5,8.058c-.913,2.278-3.052,3.789-5.082,5.168q-8.755,5.952-17.513,11.9Z"/><path class="d" d="M346.381,228.678q-4.819-3.274-9.642-6.545c-2.526-1.714-6.245-3.484-7.563-6.429-1.389-3.1-.69-6.389.1-9.521.911-3.636,1.83-7.269,2.784-10.894,1.854-7.038,3.858-14.036,6.143-20.947a40.069,40.069,0,0,1,3.832-9.148c1.677-2.628,4.108-4.231,6.774-5.733,7.222-4.07,14.793-7.591,22.182-11.348,1.836-.933.218-3.695-1.615-2.763-7.056,3.587-14.215,7.022-21.174,10.792-2.781,1.506-5.632,3.15-7.638,5.651a29.877,29.877,0,0,0-4.6,9.167c-2.538,7.359-4.7,14.847-6.7,22.368-1.02,3.838-2,7.687-2.962,11.539-.884,3.524-1.57,6.868-.613,10.468,1.043,3.927,4.248,6.039,7.427,8.2q5.825,3.956,11.65,7.908c1.708,1.16,3.311-1.611,1.615-2.763Z"/><path class="d" d="M405.966,148.084c6.751,3.433,13.556,6.776,20.258,10.3,2.556,1.346,5.335,2.745,7.308,4.905,2.18,2.386,3.383,5.512,4.426,8.518,2.375,6.848,4.4,13.819,6.287,20.816.965,3.585,1.888,7.182,2.8,10.781.838,3.324,2.028,6.659,1.407,10.125a7.434,7.434,0,0,1-2.192,4.283,35.428,35.428,0,0,1-4.791,3.5q-5.422,3.683-10.846,7.363c-1.694,1.151-.1,3.925,1.615,2.763q5.121-3.478,10.244-6.954c2.8-1.9,6.273-3.747,7.945-6.827a14.592,14.592,0,0,0,1.029-9.8c-.873-3.9-1.94-7.769-2.946-11.636-1.967-7.56-4.088-15.081-6.534-22.5a46.6,46.6,0,0,0-4.024-9.8A19.318,19.318,0,0,0,431,157.386c-3.465-2.071-7.141-3.8-10.738-5.623q-6.342-3.22-12.683-6.442c-1.832-.931-3.453,1.829-1.615,2.763Z"/><path class="d" d="M438.125,207.165a35.281,35.281,0,0,0-5.44-3.831,1.6,1.6,0,0,0-1.615,2.763,33.348,33.348,0,0,1,3.885,2.581l-.323-.251q.627.486,1.231,1a1.7,1.7,0,0,0,1.131.468,1.6,1.6,0,0,0,1.131-2.731Z"/><path class="d" d="M344.315,203.334a35.241,35.241,0,0,0-5.441,3.831,1.613,1.613,0,0,0-.469,1.131,1.6,1.6,0,0,0,2.732,1.132q.6-.514,1.231-1l-.324.251a33.36,33.36,0,0,1,3.886-2.581,1.6,1.6,0,1,0-1.615-2.763Z"/><path class="d" d="M389.841,157.483A61.286,61.286,0,0,1,387.176,151c-.336-1.033-.694-2.059-1.043-3.088a4.705,4.705,0,0,0-.945-1.915,91.122,91.122,0,0,0-7.805-6.668c-1.078-.894-2.786-2.906-4.3-2.268-1.07.45-1.341,1.746-1.778,2.684-.451.966-.924,1.921-1.388,2.88-.572,1.179-1.795,2.931-1.384,4.309a19.876,19.876,0,0,0,2.378,4.315q1.062,1.728,2.2,3.406a15.988,15.988,0,0,0,2.277,3.012,2.16,2.16,0,0,0,2.455.262,4.28,4.28,0,0,0,1.445-2.025q1.142-2.228,2.311-4.442c.963-1.818-1.8-3.437-2.763-1.615q-.759,1.433-1.5,2.872-.33.637-.657,1.277c-.122.237-.551,1.218-.543,1.214l.808-.219,0,0,.706.412a10.9,10.9,0,0,1-1.7-2.253q-.925-1.35-1.792-2.738c-.874-1.391-1.722-2.8-2.488-4.254-.042-.081-.077-.165-.12-.245-.15-.279.083.338.05.116.084.561-.1.9.115.289a5.161,5.161,0,0,1,.295-.676c.184-.4.374-.794.565-1.189.429-.889.866-1.773,1.289-2.665.18-.379.358-.759.529-1.142.1-.219.192-.438.285-.659.052-.122.1-.243.154-.365q.14-.35,0,.031l-1.132.468.238.031-.808-.219.687.571q.615.513,1.232,1.024,1.629,1.351,3.254,2.708a38.652,38.652,0,0,1,4.844,4.256l-.411-.706a88.606,88.606,0,0,0,4.346,11.314,1.613,1.613,0,0,0,2.189.574,1.636,1.636,0,0,0,.574-2.189Z"/><path class="d" d="M389.841,159.1c.9-1.9,1.715-3.827,2.528-5.76a48.961,48.961,0,0,0,1.819-5.554l-.411.706a38.714,38.714,0,0,1,4.843-4.256q1.587-1.329,3.18-2.646c.6-.5,1.551-1.346,1.994-1.657l-.808.219.238-.031-1.132-.468q-.141-.381,0-.031l.073.174c.108.251.212.5.323.753.184.416.377.828.572,1.239.423.892.86,1.776,1.289,2.665.288.595.707,1.448.836,1.8.2.548.038.585.145-.247-.034.262.152-.317.062-.136-.047.094-.088.191-.138.285-.775,1.45-1.613,2.862-2.488,4.254q-.87,1.386-1.792,2.738a10.869,10.869,0,0,1-1.7,2.253l.706-.412.005,0,.808.219c.23.106-.121-.391-.162-.47l-.306-.6q-.365-.713-.732-1.424-.745-1.44-1.5-2.872c-.964-1.82-3.727-.2-2.763,1.615q.981,1.854,1.94,3.719c.634,1.234,1.167,3,2.826,3.016,1.346.013,2.034-1.179,2.737-2.143.659-.9,1.285-1.829,1.895-2.765,1.08-1.657,2.133-3.344,3.069-5.086a6.23,6.23,0,0,0,.632-1.377,3.51,3.51,0,0,0-.486-2.215c-.762-1.752-1.665-3.441-2.462-5.178-.432-.941-.751-2.305-2.038-2.481a3.012,3.012,0,0,0-2.333,1.075c-2.608,2.183-5.252,4.325-7.818,6.558-.514.448-1.047.89-1.522,1.38a5.682,5.682,0,0,0-1.129,2.708,54.086,54.086,0,0,1-3.556,8.814c-.876,1.851,1.882,3.477,2.763,1.615Z"/><path class="d" d="M386.857,158.29q0,8.688.057,17.376a1.6,1.6,0,0,0,3.2,0q-.052-8.688-.057-17.376a1.6,1.6,0,0,0-3.2,0Z"/><path class="h" d="M373.022.287C367.956,3.8,363.06,7.576,358.14,11.292q-12.465,9.419-24.84,18.955Q318.833,41.359,304.412,52.53q-13.6,10.532-27.174,21.1-9.913,7.725-19.8,15.49l-1.683,1.329c-1.133.9-.147,2.731,1.131,2.731q11.065,0,22.131.017l-1.6-1.6V265.041a1.623,1.623,0,0,0,1.6,1.6c11.8,0,23.591.123,35.386.206q22.843.162,45.687.328c7.786.052,15.569.076,23.354.027q21.982-.139,43.965-.313c12.973-.093,25.947-.2,38.92-.244q1.152,0,2.3,0a1.623,1.623,0,0,0,1.6-1.6V91.6l-1.6,1.6q11.065-.009,22.131-.019c1.264,0,2.272-1.839,1.132-2.731q-9.111-7.123-18.25-14.208-13.469-10.462-26.957-20.9-14.748-11.412-29.522-22.788-12.851-9.891-25.745-19.725c-5.243-3.989-10.466-8.018-15.82-11.859-.322-.231-.645-.461-.97-.687-1.693-1.181-3.294,1.592-1.615,2.763,4.819,3.36,9.464,6.984,14.142,10.534Q399.564,23,411.892,32.5q14.574,11.2,29.113,22.456,13.741,10.627,27.464,21.281,9.8,7.6,19.577,15.231l1.592,1.244,1.131-2.732q-11.066,0-22.131.019a1.622,1.622,0,0,0-1.6,1.6v173.44l1.6-1.6c-11.795,0-23.591.123-35.385.206q-22.845.162-45.688.328c-7.786.052-15.568.076-23.354.027q-21.983-.14-43.965-.313c-12.973-.093-25.946-.205-38.919-.244q-1.154,0-2.305,0l1.6,1.6V91.6a1.624,1.624,0,0,0-1.6-1.6q-11.065-.006-22.131-.017l1.131,2.732q9.2-7.272,18.457-14.464,13.2-10.294,26.436-20.545,14.34-11.11,28.717-22.172,12.735-9.792,25.525-19.511c5.426-4.112,10.839-8.255,16.387-12.2q.544-.387,1.093-.769C376.318,1.883,374.72-.892,373.022.287Z"/><path class="h" d="M347.629,82.709H301.472a1.623,1.623,0,0,0-1.6,1.6c0,13.648-.167,27.29-.068,40.938.027,3.785.067,7.571.068,11.356a1.623,1.623,0,0,0,1.6,1.6h43.565a1.6,1.6,0,0,0,0-3.2H301.472l1.6,1.6c0-13.648-.167-27.29-.068-40.938.027-3.785.067-7.571.068-11.356l-1.6,1.6h46.157a1.6,1.6,0,0,0,0-3.2Z"/><path class="h" d="M340.822,104.7h-3.94a1.6,1.6,0,0,0-1.6,1.6c0,1.541-.011,3.617-.011,3.974s.007,2.432.011,3.974a1.6,1.6,0,0,0,1.6,1.594h3.888Z"/><path class="h" d="M342.59,136.243V84.3a1.6,1.6,0,0,0-3.2,0v51.947a1.6,1.6,0,0,0,3.2,0Z"/><path class="h" d="M0,3.481V265.6a1.623,1.623,0,0,0,1.6,1.6q19.5,0,38.993.046,23.925.036,47.85.072c8.143.011,16.285.011,24.428-.045q23.144-.159,46.286-.35c13.421-.1,26.841-.224,40.261-.267q1.2,0,2.4,0a1.623,1.623,0,0,0,1.6-1.6V3.483a1.623,1.623,0,0,0-1.6-1.6H1.6a1.6,1.6,0,0,0,0,3.2H201.817l-1.6-1.6v261.57l1.6-1.6c-12.241,0-24.484.134-36.725.226q-23.9.18-47.794.364-12.324.088-24.648.082-22.986-.03-45.97-.069Q25.512,264.025,4.344,264H1.6l1.6,1.6V3.481A1.6,1.6,0,0,0,0,3.481Z"/><path class="h" d="M57.106,116.5H42.138l1.6,1.6V73.7l-1.6,1.6h14.7a1.6,1.6,0,0,0,0-3.2h-14.7a1.624,1.624,0,0,0-1.6,1.6v44.4a1.623,1.623,0,0,0,1.6,1.6H57.106a1.6,1.6,0,0,0,0-3.2Z"/><path class="h" d="M32.378,68.062v50.626a1.6,1.6,0,0,0,3.2,0V68.062a1.6,1.6,0,0,0-3.2,0Z"/><path class="h" d="M40.309,68.062v50.626a1.6,1.6,0,0,0,3.2,0V68.062a1.6,1.6,0,0,0-3.2,0Z"/><path class="h" d="M32.378,42.838V60.8a1.6,1.6,0,0,0,3.2,0V42.838a1.6,1.6,0,0,0-3.2,0Z"/><path class="h" d="M39.781,42.838V60.8a1.6,1.6,0,0,0,3.2,0V42.838a1.6,1.6,0,0,0-3.2,0Z"/><path class="i" d="M49.48,106.014l2.262.02a.993.993,0,0,1,.987.995c0,1.159,0,2.994-.005,4.229a1,1,0,0,1-1,.992c-.609,0-1.429,0-2.247.007s-1.637-.007-2.247-.007a1,1,0,0,1-1-.992c-.009-1.235-.007-3.07,0-4.229a.994.994,0,0,1,.988-.995Z"/><path class="h" d="M56.746,75.3h14.7l-1.6-1.6c0,12.382.156,24.764.231,37.145.015,2.418.033,4.835.033,7.252l1.6-1.6H56.746l1.6,1.6V73.7a1.6,1.6,0,0,0-3.2,0v44.4a1.623,1.623,0,0,0,1.6,1.6H71.713a1.623,1.623,0,0,0,1.6-1.6c0-12.288-.158-24.577-.231-36.865-.015-2.51-.033-5.021-.033-7.532a1.624,1.624,0,0,0-1.6-1.6h-14.7A1.6,1.6,0,0,0,56.746,75.3Z"/><path class="i" d="M63.484,106.014c.93.009,2.062.017,2.862.021a.994.994,0,0,1,.99,1c0,1.159,0,2.992,0,4.227a1,1,0,0,1-1,.992c-.61,0-1.429,0-2.247.007s-1.638-.007-2.248-.007a1,1,0,0,1-1-.992c-.01-1.236-.008-3.073-.005-4.231a.992.992,0,0,1,.982-1Z"/><path class="i" d="M26.352,106.014l2.262.02a.993.993,0,0,1,.987.995c0,1.159.005,2.994,0,4.229a1,1,0,0,1-1,.992c-.61,0-1.429,0-2.248.007s-1.637-.007-2.247-.007a1,1,0,0,1-1-.992c-.009-1.235-.007-3.07,0-4.229a.993.993,0,0,1,.987-.995Z"/><path class="d" d="M149.516,108.306a2.153,2.153,0,0,1,3.073.4,4.418,4.418,0,0,1,.428,2.235,13.076,13.076,0,0,1-.186,2.68c-.581,3.186-2.213,7-5.752,7.63a1.614,1.614,0,0,0-1.117,1.968,1.635,1.635,0,0,0,1.968,1.118c5.309-.952,7.84-6.952,8.24-11.764.2-2.454.02-5.278-2.1-6.871a5.447,5.447,0,0,0-6.811.337,1.612,1.612,0,0,0,0,2.263,1.633,1.633,0,0,0,2.262,0Z"/><path class="d" d="M145.865,119.955a14.5,14.5,0,0,1-.842,3.913c-.076.23-.162.458-.231.689-.029.1-.159.387.014-.014-.118.273-.247.542-.38.807a32.718,32.718,0,0,1-2.823,4.537c-2.473,3.392-5.828,6.983-10.065,7.977-2,.47-1.155,3.556.851,3.085,5.007-1.174,8.894-5.27,11.839-9.258,2.546-3.448,4.66-7.354,4.837-11.736.084-2.059-3.116-2.055-3.2,0Z"/><path class="d" d="M98.268,106.043a5.45,5.45,0,0,0-6.812-.337c-2.126,1.589-2.308,4.421-2.1,6.871.4,4.812,2.93,10.812,8.24,11.764a1.646,1.646,0,0,0,1.968-1.118,1.614,1.614,0,0,0-1.118-1.968c-3.539-.634-5.17-4.444-5.752-7.63a12.936,12.936,0,0,1-.188-2.532,5.054,5.054,0,0,1,.368-2.281,2.141,2.141,0,0,1,3.135-.506,1.645,1.645,0,0,0,2.263,0,1.614,1.614,0,0,0,0-2.263Z"/><path class="d" d="M96.628,119.708a29.6,29.6,0,0,0,6.3,14.174c3.542,4.194,8.231,7.235,13.756,7.831a1.61,1.61,0,0,0,1.6-1.6,1.637,1.637,0,0,0-1.6-1.6c-4.774-.515-8.765-3.561-11.727-7.175a26.715,26.715,0,0,1-5.245-12.48c-.353-2.025-3.437-1.167-3.085.85Z"/><path class="d" d="M118.082,129.872a10.592,10.592,0,0,0,5.093,1.185,8.358,8.358,0,0,0,5.2-1.562,1.6,1.6,0,0,0,0-2.262,1.65,1.65,0,0,0-2.263,0c.545-.425-.077.027-.254.119-.138.073-.515.182-.035.033-.142.044-.279.107-.421.153-.179.057-.361.106-.544.149-.13.03-.512.173-.633.119l.171-.023c-.066.008-.132.016-.2.022-.115.011-.231.021-.347.028-.278.018-.557.025-.836.024-.25,0-.5-.01-.75-.027-.114-.008-.229-.017-.343-.029s-.455.021-.081-.006a3.56,3.56,0,0,1-1.1-.244c-.155-.046-.305-.1-.457-.154-.377-.129.31.151-.031-.01-.188-.089-.374-.181-.559-.279a1.6,1.6,0,0,0-1.615,2.764Z"/><path class="d" d="M122.216,118.062a23.108,23.108,0,0,1,.545,2.492l-.057-.425a1.466,1.466,0,0,1,.009.344l.058-.426a.9.9,0,0,1-.038.155l.161-.382a.6.6,0,0,1-.055.1l.251-.323a.517.517,0,0,1-.082.08l.324-.25a1.685,1.685,0,0,1-.2.1l.382-.161a1.5,1.5,0,0,1-.333.1l.425-.057a1.357,1.357,0,0,1-.312,0l.426.057c-.118-.016-.234-.045-.352-.061a1.215,1.215,0,0,0-.638-.028,1.188,1.188,0,0,0-.594.19,1.6,1.6,0,0,0-.574,2.189,1.529,1.529,0,0,0,.956.735c.3.04.584.115.886.128a2.882,2.882,0,0,0,1.343-.325,2.009,2.009,0,0,0,1.092-1.315,3.186,3.186,0,0,0-.012-1.381c-.136-.8-.321-1.6-.528-2.386a1.6,1.6,0,0,0-1.968-1.117,1.616,1.616,0,0,0-.956.735,1.681,1.681,0,0,0-.162,1.233Z"/><path class="d" d="M109.35,110.919c-.416,1.352-.145,4.463,2.418,4.728,3.386-.02,3.566-3.781,2.426-5.55C113.261,108.649,110.516,108.047,109.35,110.919Z"/><path class="d" d="M136.468,110.919c.416,1.353.145,4.464-2.417,4.728-3.386-.02-3.567-3.781-2.427-5.55C132.558,108.649,135.3,108.047,136.468,110.919Z"/><path class="a" d="M388.5,175.237c-18.573.134-37.056.242-43.619.264A1.887,1.887,0,0,0,343,177.4c.038,10.662.553,47.563.944,61.127a1.89,1.89,0,0,0,1.922,1.834c5.931-.091,24.3-.035,42.634.028,18.334-.063,36.7-.119,42.634-.028a1.89,1.89,0,0,0,1.922-1.834c.392-13.564.906-50.465.944-61.127a1.886,1.886,0,0,0-1.881-1.9C425.556,175.479,407.072,175.371,388.5,175.237Z"/><path class="d" d="M388.5,173.637q-19.653.141-39.307.246c-1.731.008-4.185-.4-5.778.357-2.119,1.012-2.017,3.121-2,5.108q.036,5.589.109,11.179.176,14.8.433,29.6.117,6.62.261,13.24c.038,1.654.029,3.319.125,4.97a3.67,3.67,0,0,0,1.768,3.162,5.7,5.7,0,0,0,3.027.441c11.974-.119,23.952-.014,35.927.025,13.647.045,27.3-.08,40.943-.053,2.02,0,4.041.009,6.062.03a5.312,5.312,0,0,0,2.828-.443,3.769,3.769,0,0,0,1.773-3.349c.172-3.727.182-7.469.254-11.2q.292-14.907.477-29.815.084-6.468.151-12.937.024-2.427.041-4.854c.014-2.084.055-4.491-2.386-5.269-1.672-.533-3.934-.189-5.673-.2l-7.572-.041q-10.065-.057-20.13-.125l-11.329-.079a1.6,1.6,0,0,0,0,3.2q18.938.137,37.875.239c1.788.009,3.6-.061,5.381.024.815.039.644.533.64,1.218q0,.984-.012,1.967-.041,5.409-.11,10.816-.169,14.118-.413,28.235-.111,6.394-.246,12.788-.055,2.524-.121,5.049c-.018.667.215,1.446-.523,1.583a12.315,12.315,0,0,1-2.18-.023c-11.617-.084-23.235,0-34.851.034-13.16.044-26.321-.071-39.481-.056q-3.125,0-6.249.022a13.808,13.808,0,0,1-2.18.023c-.75-.123-.5-.924-.523-1.583q-.147-5.546-.245-11.091-.272-14.155-.451-28.314-.083-6.3-.15-12.591-.024-2.446-.044-4.892-.007-.982-.012-1.967c0-.679-.17-1.179.639-1.218,4.293-.208,8.639-.041,12.936-.065q9.738-.057,19.476-.123,5.423-.036,10.844-.075A1.6,1.6,0,0,0,388.5,173.637Z"/><path class="d" d="M351.958,233.619c19.993-.122,39.991.015,59.984-.014,4.367-.006,8.733-.012,13.1.014a1.6,1.6,0,0,0,0-3.2c-19.994-.122-39.991.015-59.985-.014-4.366-.006-8.732-.012-13.1.014a1.6,1.6,0,0,0,0,3.2Z"/><path class="d" d="M388.5,200.962c-1.356.013-2.713.031-4.069.033a1.623,1.623,0,0,0-1.6,1.6q-.009,2.135-.006,4.269,0,1.254.01,2.507c0,.3,0,.6.012.9a1.666,1.666,0,0,0,1.745,1.714c2.438,0,4.877-.017,7.315,0a2.855,2.855,0,0,0,1.451-.207,1.915,1.915,0,0,0,.8-1.874c.011-.783.013-1.566.015-2.348q.006-2.479,0-4.958a1.623,1.623,0,0,0-1.6-1.6c-1.356,0-2.713-.02-4.07-.033a1.6,1.6,0,0,0,0,3.2c1.357.013,2.714.031,4.07.033l-1.6-1.6c.01,2.6.045,5.2-.019,7.8l.218-.808h0l1.381-.793c-.447-.041-.908-.013-1.357-.012-.9,0-1.8.009-2.693.009-.876,0-1.753-.008-2.629-.009-.469,0-.953-.031-1.421.012l1.382.793h0l.219.808c-.065-2.6-.029-5.2-.019-7.8l-1.6,1.6c1.356,0,2.713-.02,4.069-.033a1.6,1.6,0,0,0,0-3.2Z"/><path class="d" d="M131.852,125.48a5.344,5.344,0,0,1,.622.672l-.251-.323a5.261,5.261,0,0,1,.668,1.15l-.161-.382a5.33,5.33,0,0,1,.246.752,1.6,1.6,0,0,0,1.968,1.117,1.616,1.616,0,0,0,.956-.735,1.7,1.7,0,0,0,.162-1.233,6.615,6.615,0,0,0-.736-1.785,7.933,7.933,0,0,0-.667-.921,5.093,5.093,0,0,0-.544-.574,1.682,1.682,0,0,0-1.132-.469,1.625,1.625,0,0,0-1.131.469,1.6,1.6,0,0,0,0,2.262Z"/><path class="d" d="M78.4,203.146a36.807,36.807,0,0,0-6.365,4.392,1.608,1.608,0,0,0,0,2.263,1.643,1.643,0,0,0,2.263,0q.333-.285.673-.562.192-.155.385-.308l.172-.135c.171-.134-.237.18-.063.05.482-.361.967-.718,1.464-1.058a34.941,34.941,0,0,1,3.087-1.879,1.615,1.615,0,0,0,.574-2.189,1.636,1.636,0,0,0-2.19-.574Z"/><path class="d" d="M165.986,205.909a34.78,34.78,0,0,1,3.086,1.879c.482.329.955.673,1.421,1.025.162.122.009.011-.063-.05.056.047.115.09.173.135.129.1.257.2.385.307q.362.292.715.6a1.6,1.6,0,0,0,2.263-2.263,36.769,36.769,0,0,0-6.365-4.392,1.6,1.6,0,1,0-1.615,2.763Z"/><path class="a" d="M123,175.237c-18.573.134-37.056.242-43.619.264a1.887,1.887,0,0,0-1.881,1.9c.038,10.662.553,47.563.944,61.127a1.89,1.89,0,0,0,1.922,1.834c5.931-.091,24.3-.035,42.634.028,18.334-.063,36.7-.119,42.634-.028a1.89,1.89,0,0,0,1.922-1.834c.392-13.564.906-50.465.944-61.127a1.887,1.887,0,0,0-1.881-1.9C160.055,175.479,141.572,175.371,123,175.237Z"/><path class="d" d="M123,173.637q-19.653.141-39.307.246c-1.731.008-4.185-.4-5.778.357-2.12,1.012-2.018,3.121-2,5.108q.037,5.589.11,11.179.175,14.8.433,29.6.115,6.62.261,13.24c.037,1.654.028,3.319.125,4.97a3.67,3.67,0,0,0,1.768,3.162,5.7,5.7,0,0,0,3.026.441c11.975-.119,23.953-.014,35.928.025,13.647.045,27.295-.08,40.942-.053,2.021,0,4.042.009,6.062.03a5.315,5.315,0,0,0,2.829-.443,3.771,3.771,0,0,0,1.773-3.349c.172-3.727.181-7.469.254-11.2q.291-14.907.476-29.815.086-6.468.152-12.937.024-2.427.041-4.854c.014-2.084.055-4.491-2.387-5.269-1.671-.533-3.933-.189-5.673-.2l-7.572-.041q-10.065-.057-20.129-.125L123,173.637a1.6,1.6,0,0,0,0,3.2q18.938.137,37.874.239c1.788.009,3.6-.061,5.382.024.815.039.644.533.64,1.218q0,.984-.013,1.967-.041,5.409-.11,10.816-.168,14.118-.412,28.235-.111,6.394-.246,12.788-.056,2.524-.122,5.049c-.017.667.216,1.446-.522,1.583a12.327,12.327,0,0,1-2.181-.023c-11.616-.084-23.234,0-34.85.034-13.161.044-26.321-.071-39.481-.056q-3.124,0-6.249.022a13.82,13.82,0,0,1-2.181.023c-.749-.123-.505-.924-.522-1.583-.1-3.7-.174-7.394-.245-11.091q-.272-14.155-.451-28.314-.084-6.3-.15-12.591-.025-2.446-.044-4.892-.007-.982-.013-1.967c0-.679-.17-1.179.64-1.218,4.293-.208,8.639-.041,12.936-.065q9.738-.057,19.475-.123,5.423-.036,10.845-.075A1.6,1.6,0,0,0,123,173.637Z"/><path class="d" d="M86.458,233.619c19.993-.122,39.99.015,59.984-.014,4.366-.006,8.733-.012,13.1.014a1.6,1.6,0,0,0,0-3.2c-19.994-.122-39.991.015-59.985-.014-4.366-.006-8.732-.012-13.1.014a1.6,1.6,0,0,0,0,3.2Z"/><path class="d" d="M123,200.962c-1.356.013-2.713.031-4.07.033a1.625,1.625,0,0,0-1.6,1.6q-.007,2.135,0,4.269c0,.836,0,1.672.01,2.507,0,.3,0,.6.012.9a1.666,1.666,0,0,0,1.745,1.714c2.438,0,4.877-.017,7.315,0a2.855,2.855,0,0,0,1.451-.207,1.915,1.915,0,0,0,.8-1.874c.011-.783.013-1.566.015-2.348q0-2.479,0-4.958a1.624,1.624,0,0,0-1.6-1.6c-1.357,0-2.713-.02-4.07-.033a1.6,1.6,0,1,0,0,3.2c1.357.013,2.713.031,4.07.033l-1.6-1.6c.01,2.6.045,5.2-.019,7.8l.218-.808h0l1.381-.793c-.447-.041-.909-.013-1.357-.012-.9,0-1.795.009-2.693.009-.876,0-1.753-.008-2.629-.009-.47,0-.953-.031-1.421.012l1.382.793h0l.219.808c-.065-2.6-.03-5.2-.02-7.8l-1.6,1.6c1.357,0,2.714-.02,4.07-.033a1.6,1.6,0,0,0,0-3.2Z"/><path class="i" d="M264.462,155.116c-6.848-2.364-18.586-6.25-24.239-8.385a.345.345,0,0,0-.45.435c1.291,3.672,2.889,10.759,4.506,14.753a.344.344,0,0,1-.465.441c-5.073-2.34-22.25-11.462-29.767-15.473a.347.347,0,0,1,.263-.639c6.352,1.848,16.917,4.249,21.319,5.84a.344.344,0,0,0,.432-.463c-1.69-3.878-3.888-10.228-5.26-13.826a.345.345,0,0,1,.455-.444c6.191,2.625,25.081,12.638,33.484,17.127A.347.347,0,0,1,264.462,155.116Z"/><path class="h" d="M33.978,66.462H18.814a1.6,1.6,0,0,0,0,3.2H33.978a1.6,1.6,0,0,0,0-3.2Z"/><path class="h" d="M33.978,117.088h-14.9a1.6,1.6,0,0,0,0,3.2h14.9a1.6,1.6,0,0,0,0-3.2Z"/><path class="h" d="M33.978,59.2H18.814a1.6,1.6,0,0,0,0,3.2H33.978a1.6,1.6,0,0,0,0-3.2Z"/><path class="h" d="M19.011,75.3h14.7l-1.6-1.6c0,12.382.156,24.764.231,37.145.015,2.418.033,4.835.033,7.252l1.6-1.6H19.011l1.6,1.6V73.7a1.6,1.6,0,0,0-3.2,0v44.4a1.623,1.623,0,0,0,1.6,1.6H33.978a1.623,1.623,0,0,0,1.6-1.6c0-12.288-.158-24.577-.231-36.865-.015-2.51-.033-5.021-.033-7.532a1.624,1.624,0,0,0-1.6-1.6h-14.7A1.6,1.6,0,0,0,19.011,75.3Z"/><path class="h" d="M41.905,69.661H83.629a1.6,1.6,0,0,0,0-3.2H41.905a1.6,1.6,0,0,0,0,3.2Z"/><path class="h" d="M41.905,120.291H78.814a1.6,1.6,0,0,0,0-3.2H41.905a1.6,1.6,0,0,0,0,3.2Z"/><path class="h" d="M41.385,62.391h42.24a1.6,1.6,0,0,0,0-3.2H41.385a1.6,1.6,0,0,0,0,3.2Z"/><path class="h" d="M17.2,127.661h61.61a1.6,1.6,0,0,0,0-3.2H17.2a1.6,1.6,0,0,0,0,3.2Z"/><path class="h" d="M71.445,75.3h7.37a1.6,1.6,0,1,0,0-3.2h-7.37a1.6,1.6,0,1,0,0,3.2Z"/><path class="d" d="M101.2,103.924a24.768,24.768,0,0,1,.634-3.875,31.018,31.018,0,0,1,1.474-4.679c1.147-2.8,2.856-5.669,5.554-7.2a1.6,1.6,0,0,0-1.615-2.763c-3.286,1.867-5.387,5.21-6.816,8.61A32.174,32.174,0,0,0,98,103.924a1.614,1.614,0,0,0,1.6,1.6,1.632,1.632,0,0,0,1.6-1.6Z"/><path class="d" d="M133.956,87.023c3.938,1.509,6.741,4.9,8.57,8.586a25.107,25.107,0,0,1,1.818,4.945c.174.678.313,1.363.43,2.053.079.464,0-.06.029.2.012.114.025.227.035.341.023.259.037.518.038.778a1.6,1.6,0,0,0,3.2,0,23.632,23.632,0,0,0-2.88-10.116,19.8,19.8,0,0,0-10.39-9.871,1.613,1.613,0,0,0-1.968,1.118,1.636,1.636,0,0,0,1.118,1.968Z"/><path class="d" d="M116.43,85.053a8.181,8.181,0,0,1,.412-1.3l-.161.382a8.32,8.32,0,0,1,.629-1.206c.058-.09.117-.18.178-.268.03-.044.061-.087.092-.131s.2-.261.019-.031.052-.062.1-.119c.078-.093.157-.183.238-.272q.217-.236.452-.455c.088-.082.178-.161.27-.239.057-.049.346-.278.118-.1s-.009.009.03-.02l.131-.092c.087-.061.176-.121.267-.178.2-.129.412-.247.626-.358a1.612,1.612,0,0,0,.574-2.189,1.638,1.638,0,0,0-2.189-.574,9.626,9.626,0,0,0-4.872,6.3,1.6,1.6,0,1,0,3.086.851Z"/><path class="d" d="M123.433,84.992c.26-.239.528-.466.8-.686-.252.2.118-.083.2-.145.144-.1.289-.2.437-.3a15.084,15.084,0,0,1,1.915-1.032c.216-.1-.24.09-.017.008.082-.031.163-.065.245-.1q.248-.095.5-.178.5-.168,1.014-.3t1.033-.214c.037-.007.324-.055.114-.021s.076-.009.114-.013c.2-.023.394-.039.592-.054a1.6,1.6,0,0,0,0-3.2,15.143,15.143,0,0,0-9.213,3.96,1.612,1.612,0,0,0,0,2.263,1.633,1.633,0,0,0,2.262,0Z"/><path class="d" d="M153.373,105.325a34.969,34.969,0,0,0-3.127-25.457,29.735,29.735,0,0,0-14.359-13.409A31.984,31.984,0,0,0,113.8,64.514,23.172,23.172,0,0,0,108.086,67c-1.62,1-2.949,2.36-4.71,3.124A22.521,22.521,0,0,0,94.7,77.448c-2.838,3.893-3.792,8.63-4.305,13.332-.515,4.729-.517,9.92,1.215,14.42.733,1.9,3.828,1.076,3.086-.851a27.115,27.115,0,0,1-1.286-11.392c.238-3.88.779-8.1,2.61-11.582a20.762,20.762,0,0,1,7.219-7.559c1.264-.826,2.7-1.265,3.908-2.194a23.876,23.876,0,0,1,4.9-3.1c6.192-2.719,13.408-2.472,19.7-.293,5.705,1.975,11.256,5.7,14.45,10.935a36.733,36.733,0,0,1,4.557,11.164,30.054,30.054,0,0,1-.473,14.147,1.6,1.6,0,0,0,3.086.85Z"/></svg>