<?xml version="1.0" encoding="utf-8"?>
<!-- Uploaded to: SVG Repo, www.svgrepo.com, Generator: SVG Repo Mixer Tools -->
<svg width="800px" height="800px" viewBox="0 -8.27 350.127 350.127" xmlns="http://www.w3.org/2000/svg"><defs><style>.a{fill:#ffffff;}.b{fill:#211715;}.c{fill:#957f6e;}.d{fill:#bdbdbd;}</style></defs><path class="a" d="M298.1,243.732a16.946,16.946,0,0,0-6.734,2.535c-3.133,2.288-4.517,6.147-6.369,9.615a100.311,100.311,0,0,1-25.265-21.561c1.566-1.036,3.968-2.626,4.329-2.867,2.419-1.619,5.86-6.059,6.183-8.952s-.128-5.848.379-8.714c.837-4.731,4.136-8.594,7.309-12.2,3.26-3.707,6.554-7.445,10.534-10.366,2.04-1.5,4.4-2.81,6.931-2.741s5.147,1.994,5.162,4.526c.011,1.917-1.364,3.526-2.661,4.939l-8.086,8.815q4.107.287,8.22.267c2.6-.011,12.94-3.783,16.021-4.95,3.62-1.372,6.612-2.826,9.528-4.03,3.461-1.428,5.446-2.646,9.111-3.487,3.055-.7,4.853-.267,6.7.93a3.974,3.974,0,0,1,2.025,3.132c2.452-.371,4.443,1.935,4.994,3.749.746,2.458.926,4.747.017,6.122,2.354,2.867.883,8.122.489,9.092a11.354,11.354,0,0,1-3.226,3.973,93.887,93.887,0,0,1-43.7,21.8C299.365,243.481,298.733,243.6,298.1,243.732Z"/><path class="b" d="M293.31,206.5c2.226-2.427,4.489-4.825,6.677-7.286,2.269-2.551,4-5.85,2.186-9.181-1.685-3.086-5.338-4.327-8.663-3.789-3.526.57-6.564,2.965-9.186,5.244a81.411,81.411,0,0,0-7.494,7.731,51.684,51.684,0,0,0-6.257,8.062,20.152,20.152,0,0,0-2.608,10.372,24.92,24.92,0,0,1-.122,4.741,9.955,9.955,0,0,1-1.765,3.558c-2.253,3.256-5.618,5.019-8.915,7.2-2.565,1.7-.164,5.856,2.423,4.145a62.447,62.447,0,0,0,7.294-5.026,20.119,20.119,0,0,0,4.747-6.313c1.388-2.973,1.072-6.079,1.147-9.277.148-6.366,4.637-10.93,8.643-15.415A66.654,66.654,0,0,1,288.4,194.3c1.907-1.585,4.688-3.835,7.368-3.387a2.943,2.943,0,0,1,2.333,1.733c.31,1.109-.695,2.244-1.379,3.027-2.209,2.527-4.539,4.957-6.808,7.43-2.085,2.273,1.3,5.677,3.395,3.4Z"/><path class="b" d="M288.137,209.04c2.552.2,5.108.334,7.668.373a19.579,19.579,0,0,0,4.5-.308,73.585,73.585,0,0,0,8.544-2.6c6.874-2.38,13.44-5.41,20.139-8.227a16.469,16.469,0,0,1,6.509-1.653c1.081.029,3.438.784,3.519,2a2.426,2.426,0,0,0,2.4,2.4,2.581,2.581,0,0,1,2.595,1.744c.493,1.1,1.041,3.33.344,4.516a2.352,2.352,0,0,0,0,2.423c1.3,1.692,1.1,3.94.681,5.757-.51,2.232-2.091,3.585-3.987,5.228A91.779,91.779,0,0,1,307.877,238.9c-2.941.889-5.922,1.621-8.934,2.222-3.167.632-6.419,1.294-9.058,3.277-2.548,1.916-4.137,4.647-5.536,7.454-1.285,2.578-2.473,5.258-4.676,7.195-2.324,2.044,1.082,5.428,3.394,3.394a21.861,21.861,0,0,0,4.808-6.918c1.163-2.333,2.239-4.865,4.155-6.693,2.272-2.166,5.656-2.568,8.6-3.162a93.414,93.414,0,0,0,9.724-2.511,96.809,96.809,0,0,0,34.719-19.627c2.311-2.039,4.1-4.218,4.7-7.287.578-2.958.654-6.452-1.269-8.964V209.7c2.849-4.846-.687-14.129-7.084-13.483l2.4,2.4c-.312-4.675-5.383-7.189-9.628-6.726-4.693.511-9,2.853-13.282,4.7a158.558,158.558,0,0,1-19.771,7.345c-.73.206-1.464.4-2.207.558-.274.057-.548.111-.826.151.863-.125-.5-.023-.562-.022-3.138,0-6.274-.137-9.4-.387a2.42,2.42,0,0,0-2.4,2.4,2.448,2.448,0,0,0,2.4,2.4Z"/><path class="b" d="M306.911,217.945c7.3-2.844,14.315-6.275,21.419-9.557a2.419,2.419,0,0,0,.861-3.284,2.454,2.454,0,0,0-3.283-.861c-6.726,3.108-13.364,6.381-20.273,9.074a2.47,2.47,0,0,0-1.676,2.952,2.416,2.416,0,0,0,2.952,1.676Z"/><path class="b" d="M314.446,225.42a213.28,213.28,0,0,0,23.114-10.861c2.683-1.53.267-5.679-2.423-4.145a202.794,202.794,0,0,1-21.967,10.377,2.483,2.483,0,0,0-1.677,2.953,2.415,2.415,0,0,0,2.953,1.676Z"/><path class="b" d="M286.516,228.382c.4-.115.812-.217,1.225-.3a3.465,3.465,0,0,1,.709-.123l-.281.038c.12-.015.239-.028.359-.04a15.134,15.134,0,0,1,2.519-.036c.18.013.359.034.538.048q.41.048-.1-.02c.119.017.237.035.356.055q.621.1,1.234.259t1.207.362c.17.059.337.126.507.187q.372.15-.073-.037c.11.048.219.1.328.148a2.461,2.461,0,0,0,3.284-.861,2.428,2.428,0,0,0-.861-3.284,17.7,17.7,0,0,0-12.226-1.025,2.4,2.4,0,0,0,1.276,4.628Z"/><path class="b" d="M301.852,213.575l9.707,15.534a2.4,2.4,0,1,0,4.144-2.423L306,211.153a2.4,2.4,0,0,0-4.145,2.422Z"/><path class="a" d="M171.335,88.744a8.03,8.03,0,0,1,6.425-1.88,7.585,7.585,0,0,1,5.452,3.625,10.7,10.7,0,0,1,1.122,4.313,32.129,32.129,0,0,1-3.275,17.029,20.412,20.412,0,0,1-5.28,6.929,13.531,13.531,0,0,1-6.295,2.838l-1.07.164c-.528,1.945-1.106,3.567-1.39,4.43-1.909,5.182-12.958,23.646-26.625,29.2q.3,3.849.979,7.674c.67,3.84.46,7.26,5.79,9.19.36.13,6.35,2.47,6.89,2.69,0,0,7.967,38.227-37.366,38.227-44,0-35.014-39.627-35.014-39.627,1.03-.35,3.51-1.16,3.86-1.29,5.33-1.93,5.12-5.35,5.8-9.19a78.017,78.017,0,0,0,1.049-8.756,47.825,47.825,0,0,1-14.5-12.071A54.611,54.611,0,0,1,67.47,121.913l-2.052-.315a13.53,13.53,0,0,1-6.3-2.838,20.412,20.412,0,0,1-5.28-6.929A32.129,32.129,0,0,1,50.567,94.8a10.714,10.714,0,0,1,1.122-4.313,7.585,7.585,0,0,1,5.452-3.625,8.03,8.03,0,0,1,6.425,1.88S56.248,44.43,116.1,44.43,171.335,88.744,171.335,88.744Z"/><path class="c" d="M73.309,164.221c7.536-1.146,13.934-4.792,16.774-9.052l.987-1.584a48.965,48.965,0,0,1-13.188-11.348,54.622,54.622,0,0,1-10.413-20.326l-2.051-.313a13.53,13.53,0,0,1-6.3-2.838,16.647,16.647,0,0,1-2.187-2.149,26.776,26.776,0,0,0-2.707,8.946,43.777,43.777,0,0,0-.3,5.964q.01.607.045,1.218c.236,4.349,1.252,8.78,1.467,13.112.218,4.72-1.011,9.367-5.513,10.9-.178.06-.214.636-.209.783a2.061,2.061,0,0,0,.362,1.009,6.964,6.964,0,0,0,2.308,2.023C57.408,163.64,65.132,165.465,73.309,164.221Z"/><path class="c" d="M179.808,53.3c-.2-1.184-.411-2.281-.612-3.267C173.611,22.654,146.031.917,117.107,2.506,88.184.917,60.6,22.654,55.019,50.037c-1.513,7.386-1.332,20.022.044,25.918L57.832,86.8a7.971,7.971,0,0,1,5.734,1.943C75,80.815,94.387,67.04,104.427,58.406c-.826,5.125-3.76,13.842-.064,12.946,15.434-3.574,30.226-10.781,39.17-22.025,1.885,6.639,5,15.608,7.289,19.527,3.239,5.546,12.624,18.025,20.513,19.89a8.03,8.03,0,0,1,6.425-1.88,7.743,7.743,0,0,1,1,.219C182.781,77.774,181.427,62.742,179.808,53.3Z"/><path class="b" d="M57.346,75.551a49.555,49.555,0,0,1-.969-9.647A86.538,86.538,0,0,1,56.8,54.129a50.282,50.282,0,0,1,6.938-19.921A61.1,61.1,0,0,1,97.731,7.371a55.018,55.018,0,0,1,10.9-2.274c3.776-.375,7.586-.268,11.372-.273a56.05,56.05,0,0,1,21.757,4.462,60.957,60.957,0,0,1,31.41,30.033,64.565,64.565,0,0,1,5.034,19.406c.919,7.419,1.426,15.283-.175,22.644a28.84,28.84,0,0,1-1.545,4.984,2.415,2.415,0,0,0,1.676,2.953,2.461,2.461,0,0,0,2.952-1.677c3.048-7.3,3-15.861,2.421-23.618-.547-7.275-1.553-14.783-3.994-21.687-5.3-14.992-16.687-27.556-30.694-34.958A63.253,63.253,0,0,0,125.759.315,111.126,111.126,0,0,0,113.847.024a59.8,59.8,0,0,0-12.04,1.32A65.982,65.982,0,0,0,62.579,27.231a58.2,58.2,0,0,0-9.654,21.14,73.617,73.617,0,0,0-.964,23.574,42.116,42.116,0,0,0,.757,4.882c.684,3.011,5.313,1.737,4.628-1.276Z"/><path class="b" d="M141.447,50.771c1.118,3.822,2.359,7.612,3.77,11.336a51,51,0,0,0,3.979,8.7,64.718,64.718,0,0,0,12.3,14.84c2.673,2.332,5.712,4.534,9.206,5.409,3,.749,4.276-3.878,1.276-4.629-5.358-1.341-9.964-6.6-13.457-10.836A50.25,50.25,0,0,1,150.2,61.742c-1.562-4.014-2.91-8.114-4.119-12.247-.865-2.959-5.5-1.7-4.629,1.276Z"/><path class="b" d="M141.991,47.434A55.5,55.5,0,0,1,122.98,62.282a80.964,80.964,0,0,1-11.7,4.692q-3.142,1-6.349,1.777c-.263.064-.541.116-.8.193-.392.116-.45-.081-.128.067-.145-.067-.325-.195.177.049a2.232,2.232,0,0,1,.6.352.62.62,0,0,1,.23.335c0-.069-.045-.458-.047-.133,0,.365-.01-.229-.01-.3-.024-3.308,1.225-6.827,1.8-10.271a2.422,2.422,0,0,0-4.011-2.335C92.654,65.354,81.712,73.039,70.883,80.7q-4.251,3.006-8.528,5.974a2.462,2.462,0,0,0-.861,3.284,2.421,2.421,0,0,0,3.283.861c11.3-7.843,22.533-15.823,33.4-24.268,2.694-2.094,5.361-4.224,7.951-6.446l-4.011-2.335c-.611,3.673-1.891,7.34-1.969,11.085a4.971,4.971,0,0,0,1.576,4.229c1.752,1.337,3.98.439,5.883-.055A82.019,82.019,0,0,0,133.92,61.4a53.671,53.671,0,0,0,11.465-10.571,2.475,2.475,0,0,0,0-3.394,2.417,2.417,0,0,0-3.394,0Z"/><path class="b" d="M54.855,115.4c-3.1,6.137-3.809,13.16-3.065,19.933.4,3.622,1.151,7.222,1.261,10.872.068,2.245-.121,4.884-1.595,6.71-.774.96-1.729,1.163-2.74,1.754-1.644.961-1.661,3.249-.887,4.764,1.363,2.668,4.74,4.112,7.376,5.181a35.74,35.74,0,0,0,19.605,1.778c6.577-1.182,13.479-4.356,17.349-10.009,1.75-2.556-2.408-4.959-4.144-2.423-3.661,5.347-11.313,7.731-17.462,8.167a31.828,31.828,0,0,1-11.189-1.136,24.2,24.2,0,0,1-4.274-1.665,15.577,15.577,0,0,1-2.138-1.251c-.231-.17-.47-.492-.706-.625-.3-.17-.023-.268-.115.057l-.617,1.059.11-.128-1.059.618c7.673-2.774,7.7-11.145,6.8-17.973-1.04-7.83-2.064-15.921,1.638-23.26,1.388-2.751-2.751-5.184-4.144-2.423Z"/><path class="b" d="M173.032,90.441a5.518,5.518,0,0,1,7.923.949,9.234,9.234,0,0,1,1.067,4.754,28.767,28.767,0,0,1-.342,6.065c-1.211,7.083-4.944,15.719-12.834,17.075a2.419,2.419,0,0,0-1.677,2.952,2.456,2.456,0,0,0,2.953,1.676c8.17-1.4,13.019-9.12,15.255-16.488a33.938,33.938,0,0,0,1.408-11.951c-.257-3.959-1.455-7.683-5.1-9.744a10.537,10.537,0,0,0-12.042,1.318,2.421,2.421,0,0,0,0,3.394,2.448,2.448,0,0,0,3.394,0Z"/><path class="b" d="M167,115.62a26.975,26.975,0,0,1-1.276,6.8c-.255.858-.537,1.707-.821,2.555-.077.229-.151.46-.235.687-.066.179-.365.846-.056.156a53.835,53.835,0,0,1-3.583,6.565,63.959,63.959,0,0,1-14.278,16.468,27.2,27.2,0,0,1-10.587,5.358c-3.009.692-1.736,5.321,1.276,4.629,8.046-1.85,14.78-7.653,20.082-13.725a69.309,69.309,0,0,0,11.052-16.461A35.124,35.124,0,0,0,171.8,115.62c.1-3.09-4.7-3.086-4.8,0Z"/><path class="b" d="M65.263,87.047a10.5,10.5,0,0,0-10.613-1.98c-3.931,1.551-5.9,4.858-6.4,8.928a32.942,32.942,0,0,0,5.766,22.774,17.222,17.222,0,0,0,10.76,7.143,2.469,2.469,0,0,0,2.952-1.676,2.42,2.42,0,0,0-1.676-2.952c-7.89-1.355-11.624-9.993-12.835-17.075a28.767,28.767,0,0,1-.35-5.841c.06-1.651.133-3.553,1.076-4.978a5.513,5.513,0,0,1,7.922-.949,2.461,2.461,0,0,0,3.394,0,2.421,2.421,0,0,0,0-3.394Z"/><path class="b" d="M63.426,114.844c2.923,16.865,12.064,33.37,27.689,41.509a37.5,37.5,0,0,0,13.559,4.056,2.415,2.415,0,0,0,2.4-2.4,2.454,2.454,0,0,0-2.4-2.4c-16.111-1.67-28.665-16.118-33.725-30.634a71.893,71.893,0,0,1-2.894-11.407,2.419,2.419,0,0,0-2.952-1.676,2.455,2.455,0,0,0-1.677,2.952Z"/><path class="b" d="M82.316,175.859c3.85-1.3,8.228-2.356,10.016-6.455a22.679,22.679,0,0,0,1.282-5.481,94.507,94.507,0,0,0,1.174-9.619,2.4,2.4,0,1,0-4.8,0,77.447,77.447,0,0,1-.965,8.122,42.583,42.583,0,0,1-.936,4.757c-.138.478.192-.316-.061.162-.078.148-.15.3-.233.442-.1.177-.212.347-.33.512-.142.2.23-.206-.089.085a6.156,6.156,0,0,1-2.179,1.449c-1.312.539-2.785.933-4.155,1.4a2.456,2.456,0,0,0-1.677,2.952,2.425,2.425,0,0,0,2.953,1.677Z"/><path class="b" d="M138,155.384c.283,3.533.853,7.023,1.406,10.521a10.187,10.187,0,0,0,3.234,6.525,20.466,20.466,0,0,0,5.952,2.936c1.611.628,3.227,1.245,4.83,1.893a2.415,2.415,0,0,0,2.952-1.677,2.459,2.459,0,0,0-1.676-2.952c-1.42-.574-2.851-1.121-4.278-1.677a20.146,20.146,0,0,1-4.481-2q-.207-.147,0,.006-.177-.147-.344-.308c-.072-.069-.635-.74-.337-.332a5.741,5.741,0,0,1-.338-.522c-.055-.095-.4-.868-.2-.342a13.875,13.875,0,0,1-.706-2.936c-.475-3.041-.972-6.065-1.218-9.137a2.461,2.461,0,0,0-2.4-2.4,2.418,2.418,0,0,0-2.4,2.4Z"/><path class="d" d="M5.432,303.958c.359-3.178.721-6.205,1.093-8.92,2.241-16.387,6.09-58.277,10.263-74.282,1.164-4.463,2.533-9,5.344-12.659a33.46,33.46,0,0,1,5.5-5.344c14.028-11.47,43.978-22.787,51.18-30.116l2.509-2.553.215,1.044c.931,4.525,3.66,19.888,8.544,36.182,6.431,21.456,15.466,46.794,22.594,64.065.089-.2.136-.3.136-.3,6.292-13.586,18.855-39.665,27.764-62.9a269.035,269.035,0,0,0,10.976-36.614c6.343,7.345,36.3,18.313,50.637,30.039a33.427,33.427,0,0,1,5.5,5.344c2.811,3.657,4.18,8.2,5.343,12.659,1.912,7.33,4.934,20.143,8.047,33.382.463,1.97,2.9,11.381,3.427,13.624l.8,3.375c10.926-13.037,20.426-23.859,31.329-37.149a1.445,1.445,0,0,1,.771-.611c.484-.088.893.339,1.2.721a100.128,100.128,0,0,0,28.723,24.293c-15.885,21.3-30.478,44.7-50.18,62.549-4.2,3.8-8.922,7.712-14.576,8.063-7.188.446-13.321-4.955-18.052-10.384-8.746-10.037-13.419-16-18.611-28.261l-.475-1.121,1.33,11.779c.9,7.929,2.419,20.265,4.118,31.276L2.348,331.2C3.413,323.413,4.405,313.066,5.432,303.958Z"/><path class="a" d="M121.056,253.4c6.2-13.388,13.654-29.923,19.521-45.224,1.49-3.887,2.845-7.76,4.035-11.459-.006,0-10.262,4.959-28.57,4.959s-28.565-4.957-28.565-4.957l-.349-.126c.869,3.446,1.858,7.059,2.955,10.719,6.43,21.455,15.465,46.791,22.593,64.063l.137-.3C114.961,266.434,117.84,260.339,121.056,253.4Z"/><path class="b" d="M86.266,198.79c5.818,2.8,12.574,3.941,18.916,4.673a89.273,89.273,0,0,0,34.329-2.407,39.707,39.707,0,0,0,6.307-2.266,2.423,2.423,0,0,0,.861-3.284,2.452,2.452,0,0,0-3.284-.861c-.094.045-.19.087-.285.129-.2.088-.656.226.181-.073-.188.067-.371.152-.557.226-1.124.443-2.27.83-3.425,1.183a70.294,70.294,0,0,1-12.6,2.575,85.661,85.661,0,0,1-32.86-2.258c-1.4-.4-2.8-.846-4.158-1.368-.214-.082-.426-.169-.639-.252-.651-.252.452.22.035.017-.131-.064-.267-.116-.4-.179a2.465,2.465,0,0,0-3.284.861,2.422,2.422,0,0,0,.861,3.284Z"/><path class="b" d="M25.235,202.753c.717,5.909,2.739,11.737,4.446,17.412,2.632,8.745,5.422,17.441,8.18,26.146,2.645,8.348,5.314,16.694,7.733,25.111.818,2.845,1.624,5.7,2.263,8.591.11.5.215,1,.307,1.5.039.215.073.43.111.645.141.779-.1-.918.063.5a48.866,48.866,0,0,1,.423,9.95c-1.1,12.669-2.863,25.335-4.8,37.9a2.478,2.478,0,0,0,1.677,2.952,2.418,2.418,0,0,0,2.952-1.676q2.824-18.36,4.742-36.862a58.408,58.408,0,0,0-2.265-21.759c-4.7-17.106-10.529-33.9-15.724-50.857-1.239-4.045-2.461-8.1-3.574-12.178-.421-1.542-.827-3.088-1.186-4.646-.14-.6-.273-1.213-.389-1.823-.049-.257-.092-.515-.138-.773-.145-.806.031.323-.024-.125a2.475,2.475,0,0,0-2.4-2.4,2.414,2.414,0,0,0-2.4,2.4Z"/><path class="b" d="M199.79,201.528c-.026.219-.142.962,0,.034-.033.219-.061.44-.094.659q-.124.839-.265,1.675c-.216,1.305-.449,2.607-.689,3.908-.654,3.554-1.354,7.1-2.062,10.645-1.807,9.036-3.686,18.056-5.549,27.081-1.741,8.44-3.494,16.88-5.121,25.343-1.385,7.2-3.053,14.772-2.37,22.121,1.205,12.964,2.952,25.916,4.932,38.782a2.417,2.417,0,0,0,2.952,1.676A2.459,2.459,0,0,0,193.2,330.5q-2.743-17.826-4.592-35.79a44.837,44.837,0,0,1-.314-5.873c.056-1.911.258-3.814.477-5.711.05-.435.14-.882.157-1.32.017-.422-.1.664-.031.232.023-.146.041-.293.062-.439.372-2.546.85-5.078,1.327-7.606,3.266-17.3,7.037-34.5,10.516-51.754,1.383-6.859,2.956-13.756,3.787-20.711a2.413,2.413,0,0,0-2.4-2.4,2.459,2.459,0,0,0-2.4,2.4Z"/><path class="b" d="M109.285,312.075a8.018,8.018,0,0,0-5.448-7.87c-3.648-1.183-8.089.06-10.029,3.5a9.359,9.359,0,0,0-.01,9.142,8.727,8.727,0,0,0,9.829,3.566c3.678-1.074,5.632-4.67,5.658-8.334a2.4,2.4,0,1,0-4.8,0c0,.217-.009.434-.027.651a2.308,2.308,0,0,0-.036.34c-.048-.617.075-.449.014-.176-.052.236-.1.471-.164.7-.034.118-.07.235-.11.351-.075.222-.353.624.017,0-.128.215-.218.454-.347.669-.066.109-.139.213-.207.32-.255.4.388-.43.063-.081-.148.159-.29.32-.451.465-.249.226-.332.089.073-.041a3.077,3.077,0,0,0-.46.294,1.834,1.834,0,0,0-.378.191l.305-.13c-.092.036-.186.069-.281.1-.2.064-.725.289-.924.215l.3-.045c-.116.012-.233.02-.35.026q-.279.012-.558.006c-.186,0-.371-.022-.557-.03-.275-.03-.238-.023.113.021-.112-.018-.223-.038-.333-.061a8.611,8.611,0,0,1-.919-.265c-.5-.164.473.263.026,0-.083-.047-.171-.087-.255-.135-.122-.069-.242-.142-.359-.221l-.113-.078q-.3-.224.163.126a5.513,5.513,0,0,0-.65-.646c-.323-.351.318.481.065.082-.068-.106-.14-.208-.2-.315-.128-.212-.219-.44-.339-.654.389.694.029.034-.04-.211a7.206,7.206,0,0,0-.17-.781c.2.47.055.539.042.256,0-.089-.013-.177-.017-.267a7.97,7.97,0,0,1,.015-.8,2.439,2.439,0,0,0,.039-.44c.075.517-.055.361,0,.065a7.379,7.379,0,0,1,.248-.962c.043-.128.116-.262.145-.392-.131.584-.121.284-.011.072a5.332,5.332,0,0,0,.428-.7c-.125.4-.261.315-.034.062.092-.1.187-.2.287-.294.067-.063.138-.121.206-.184.293-.272-.473.309.081-.039.122-.077.248-.149.376-.216.486-.252.031.059-.028,0,.023.024.824-.253.914-.273.15-.032.653-.216.037-.027a2.37,2.37,0,0,1,.54-.046c.193-.009.385-.008.578,0,.125,0,.25.013.375.023.278.03.243.022-.1-.022a3.121,3.121,0,0,1,1.123.27l.146.052c.243.094.191.072-.154-.069.027.065.308.154.388.2.123.07.238.15.359.224.353.214-.427-.387.048.047.1.089.193.183.283.28.436.47-.184-.316.037.022.167.255.314.511.457.781.225.426-.192-.556-.042-.1.054.164.113.325.16.492.034.125.065.251.092.377.048.221.039.77.022,0,.007.3.05.6.053.907a2.4,2.4,0,0,0,4.8,0Z"/><path class="b" d="M77.118,170.94q-.421.423-.872.813c-.164.143-.334.278-.5.418-.405.343.145-.091-.3.235q-1.322.974-2.707,1.851c-2.277,1.448-4.64,2.76-7.015,4.038-5.792,3.115-11.7,6.013-17.525,9.058A172.58,172.58,0,0,0,30.993,197.3a63.529,63.529,0,0,0-7.965,6.273,26.88,26.88,0,0,0-6.65,10.3A89.09,89.09,0,0,0,12.4,230.132c-1.048,6.05-1.891,12.136-2.689,18.224-1.642,12.518-2.985,25.072-4.46,37.61-.275,2.339-.556,4.677-.857,7.013q-.048.374-.1.746c-.023.18-.1.772-.036.282-.117.868-.236,1.736-.349,2.6q-.354,2.721-.665,5.446c-.906,7.821-1.659,15.66-2.586,23.48-.2,1.675-.4,3.349-.63,5.02a2.483,2.483,0,0,0,1.676,2.952,2.417,2.417,0,0,0,2.953-1.676c1.044-7.679,1.81-15.392,2.643-23.1.664-6.144,1.469-12.266,2.224-18.4,1.47-11.943,2.719-23.912,4.2-35.853,1.36-10.94,2.559-22.1,5.295-32.8a37.384,37.384,0,0,1,4.105-10.831c1.873-2.975,4.833-5.424,7.537-7.451a127.372,127.372,0,0,1,16.29-9.965c5.937-3.186,11.979-6.169,17.952-9.284a90.043,90.043,0,0,0,13.361-7.907,22.151,22.151,0,0,0,2.239-1.91c2.182-2.191-1.21-5.586-3.394-3.394Z"/><path class="b" d="M81.539,168.728c-2.645.095-4.844,2.6-6.512,4.392a97.539,97.539,0,0,0-7.484,9.351,117.743,117.743,0,0,0-6.538,9.966,41.014,41.014,0,0,0-2.046,3.93,3.656,3.656,0,0,0-.487,2.617,5.4,5.4,0,0,0,.932,1.628,72.13,72.13,0,0,0,9.4,10.5v-3.4a56.366,56.366,0,0,0-7.009,8.086c-.7.951-1.436,2.011-1.084,3.262a6.906,6.906,0,0,0,.614,1.31c1.969,3.664,4.147,7.225,6.265,10.8Q80,252.153,92.9,272.841c4.784,7.678,9.61,15.332,14.611,22.871,1.7,2.562,5.859.161,4.145-2.423-9.054-13.648-17.628-27.62-26.142-41.609-6.526-10.721-13.1-21.437-19.282-32.362-.3-.527-.6-1.053-.879-1.59a2.086,2.086,0,0,0-.216-.427c-.168-.179.271.75.194.451-.005-.019.172,1.36-.171,1.636.067-.054.122-.233.175-.3A65.953,65.953,0,0,1,72.2,211.11a2.419,2.419,0,0,0,0-3.4,76.286,76.286,0,0,1-7.918-8.6c-.1-.126-.753-.954-.494-.614-.182-.239-.364-.479-.534-.726a3.253,3.253,0,0,0-.3-.467c-.135-.133-.1-.657.134.347l.05,1.07q.144-.353-.061.139c.722-1.012,1.164-2.4,1.783-3.49A107.163,107.163,0,0,1,77.3,177.763a36.279,36.279,0,0,1,3.24-3.344c.136-.121.92-.737.343-.31.206-.153.413-.306.632-.44.275-.168.827-.3.082-.1.568-.153.026-.046-.055-.043,3.079-.111,3.094-4.911,0-4.8Z"/><path class="b" d="M79.224,171.766c2.067,10.08,4.083,20.143,6.8,30.077,3.367,12.317,7.452,24.462,11.661,36.513,3.8,10.884,7.794,21.71,12.157,32.382,1.718,4.2,3.484,8.39,5.4,12.5.366.784.784,1.554,1.123,2.35a31.7,31.7,0,0,1,1.307,4.6,26.76,26.76,0,0,1,1.112,6.737c-.054,4.586-.708,9.195-1.187,13.749-.588,5.581-1.228,11.166-1.546,16.77-.176,3.086,4.625,3.076,4.8,0,.541-9.522,2.058-18.96,2.646-28.476a21.988,21.988,0,0,0-.076-4.308,49.167,49.167,0,0,0-1.006-5.287,37.924,37.924,0,0,0-1.492-5.328c-1.517-3.7-3.4-7.275-4.956-10.968-4.391-10.41-8.343-21.01-12.126-31.654-4.195-11.8-8.179-23.69-11.727-35.7-3.426-11.6-5.836-23.4-8.262-35.234a2.4,2.4,0,0,0-4.629,1.276Z"/><path class="b" d="M151.523,174.1c.173.006-.748-.178-.158.009.288.092-.542-.334-.092-.024.175.121.372.217.549.336.151.1.767.589.255.173a32.184,32.184,0,0,1,2.821,2.631,93.049,93.049,0,0,1,6.585,7.714c2.063,2.658,4.14,5.55,5.976,8.457.736,1.166,1.45,2.351,2.073,3.583.1.209.206.42.307.631a2.491,2.491,0,0,0,.166.368l.031.072a1.611,1.611,0,0,1-.081-1.371c.072-.332.329-.571.039-.2-.176.228-.33.477-.5.709-.065.088-.332.432-.07.1-.148.19-.3.378-.451.566q-.429.532-.868,1.055-1.053,1.258-2.147,2.48a61.23,61.23,0,0,1-4.5,4.641,2.42,2.42,0,0,0,0,3.394,39,39,0,0,1,3.071,3.278c1.026,1.179,2.25,2.634,2.925,3.568.132.182.249.379.386.557a2.329,2.329,0,0,0,.158.262c-.28,0-.087-1.794-.142-1.593.223-.809.323-.611.13-.358-.235.308-.423.667-.638.99-2.322,3.479-4.781,6.869-7.216,10.268q-13.375,18.667-27.312,36.928c-5.15,6.735-10.367,13.425-15.785,19.947a2.469,2.469,0,0,0,0,3.4,2.422,2.422,0,0,0,3.395,0c10.511-12.655,20.39-25.847,30.168-39.071,7.056-9.543,14.211-19.071,20.819-28.932.933-1.392,1.58-2.58.568-4.259a34.319,34.319,0,0,0-3.381-4.3,44.312,44.312,0,0,0-3.751-4.069v3.394a70.41,70.41,0,0,0,8.1-8.918c.969-1.244,2.095-2.479,1.528-4.166a21,21,0,0,0-1.95-3.851,103.435,103.435,0,0,0-13.826-18.225c-1.822-1.924-4.308-4.857-7.183-4.964-3.09-.115-3.085,4.685,0,4.8Z"/><path class="b" d="M149.208,171.066a249.79,249.79,0,0,1-11.88,38.883C131.791,224.117,125.55,238,119.161,251.8c-2.79,6.027-5.628,12.032-8.42,18.058a2.471,2.471,0,0,0,.861,3.284,2.421,2.421,0,0,0,3.284-.861c5.532-11.943,11.175-23.833,16.5-35.87,6.579-14.867,12.884-29.887,17.569-45.473,1.844-6.133,3.55-12.332,4.881-18.6.639-3.013-3.987-4.3-4.629-1.276Z"/><path class="b" d="M150.3,173.753a34.6,34.6,0,0,0,6.8,4.969c3.216,1.933,6.548,3.672,9.883,5.391,7.705,3.971,15.516,7.762,23,12.147a87.614,87.614,0,0,1,9.822,6.484,39.154,39.154,0,0,1,5.377,4.907,21.029,21.029,0,0,1,3.709,6.546,117.229,117.229,0,0,1,3.544,12.849c1.244,5.056,2.449,10.121,3.648,15.188,1.978,8.353,4.128,16.662,6.111,25.012.714,3,5.343,1.733,4.629-1.276-1.67-7.031-3.516-14.017-5.175-21.052q-1.929-8.176-3.9-16.343c-1.043-4.293-2.025-8.625-3.3-12.857-1.567-5.2-3.931-9.871-7.967-13.589a71.581,71.581,0,0,0-10.266-7.7c-7.424-4.7-15.326-8.608-23.147-12.59-4-2.034-8-4.062-11.89-6.293-1.56-.9-3.1-1.824-4.588-2.841q-.459-.315-.91-.643c-.114-.083-.228-.168-.342-.253-.551-.413.358.295-.159-.125a18.922,18.922,0,0,1-1.489-1.328c-2.183-2.191-5.578,1.2-3.394,3.394Z"/><path class="b" d="M221.056,278.84c9.658-11.711,19.607-23.174,29.373-34.795q2.1-2.5,4.2-5.022,1.034-1.245,2.064-2.494c.5-.6,1.259-1.949,1.93-2.234l-1.212.328.349.022-1.212-.328c.576.294,1.025,1.133,1.448,1.638q.75.9,1.521,1.776,1.613,1.839,3.313,3.6,3.4,3.514,7.134,6.684a104.105,104.105,0,0,0,16.161,11.3l-.861-3.283c-12.324,16.544-23.583,33.947-37.325,49.389-3.415,3.837-6.977,7.546-10.727,11.058-3.343,3.132-6.968,6.712-11.384,8.255-9.508,3.323-16.9-5.749-22.345-12.135a105.108,105.108,0,0,1-8.558-11.2,88.878,88.878,0,0,1-6.936-13.4,2.414,2.414,0,0,0-3.283-.861,2.463,2.463,0,0,0-.861,3.284,90.218,90.218,0,0,0,6.384,12.529,99.458,99.458,0,0,0,7.854,10.66c6.019,7.269,13.447,16.86,23.911,16.667,5.338-.1,9.925-2.947,13.925-6.234a127.3,127.3,0,0,0,11.447-10.9,269.671,269.671,0,0,0,20.616-25.1c7.251-9.782,14.153-19.817,21.427-29.582a2.418,2.418,0,0,0-.861-3.283,97.763,97.763,0,0,1-15.513-10.824q-3.552-3.042-6.811-6.408-1.626-1.68-3.173-3.436c-1.048-1.189-1.982-2.581-3.134-3.662-3.415-3.205-6.346,1.977-8.242,4.264q-3.157,3.807-6.349,7.585c-4.222,5-8.478,9.981-12.721,14.968q-7.527,8.849-14.939,17.794a2.469,2.469,0,0,0,0,3.394,2.419,2.419,0,0,0,3.394,0Z"/><path class="b" d="M109.31,129.773a17.042,17.042,0,0,0,8.845,2.034c5.05,0,7.628-1.428,8.728-2.3"/><path class="b" d="M108.1,131.845a21.228,21.228,0,0,0,10.223,2.361c3.638-.024,7.341-.728,10.258-3a2.413,2.413,0,0,0,0-3.394,2.462,2.462,0,0,0-3.394,0c.71-.553.095-.085-.087.031-.208.134-.423.257-.642.372-.151.079-.9.393-.3.165-.294.112-.585.226-.885.322a15.228,15.228,0,0,1-5.278.705,15.863,15.863,0,0,1-5.037-.678c-.324-.1-.64-.213-.959-.323-.1-.035-.2-.089-.31-.12.591.173.17.076.014,0-.4-.186-.788-.382-1.176-.586a2.452,2.452,0,0,0-3.283.861,2.426,2.426,0,0,0,.861,3.283Z"/><path class="b" d="M119.55,106.95c.273,1.036.886,3.575,1.086,4.888.128.648.216,1.5-.357,1.825a3.008,3.008,0,0,1-2.439.249"/><path class="b" d="M117.236,107.588a48.9,48.9,0,0,1,1.146,5.241l-.086-.638a3.124,3.124,0,0,1,.019.723l.086-.638a1.792,1.792,0,0,1-.079.325l.242-.573a1.368,1.368,0,0,1-.115.209l.375-.486a1.093,1.093,0,0,1-.171.169l.486-.375a3.506,3.506,0,0,1-.415.22l.573-.242a3.054,3.054,0,0,1-.7.2l.638-.086a2.822,2.822,0,0,1-.656,0l.638.086c-.248-.035-.491-.095-.739-.128a2.649,2.649,0,0,0-1.849.241,2.4,2.4,0,0,0-.861,3.284,2.3,2.3,0,0,0,1.434,1.1c.538.073,1.061.21,1.608.234a5.085,5.085,0,0,0,2.336-.551A3.305,3.305,0,0,0,123,113.72a5.6,5.6,0,0,0-.025-2.39c-.285-1.689-.675-3.362-1.109-5.018a2.4,2.4,0,0,0-4.629,1.276Z"/><path class="b" d="M89.25,92.824c-.875,2.844-.305,9.386,5.083,9.942,7.121-.042,7.5-7.952,5.1-11.671C97.473,88.05,91.7,86.784,89.25,92.824Z"/><path class="b" d="M146.275,92.824c.876,2.844.305,9.386-5.082,9.942-7.122-.042-7.5-7.952-5.1-11.671C138.052,88.05,143.823,86.784,146.275,92.824Z"/></svg>