<?xml version="1.0" encoding="utf-8"?>
<!-- Uploaded to: SVG Repo, www.svgrepo.com, Generator: SVG Repo Mixer Tools -->
<svg width="800px" height="800px" viewBox="-110.4 0 485.791 485.791" xmlns="http://www.w3.org/2000/svg"><defs><style>.a{fill:#ffffff;}.b{fill:#211715;}.c{fill:#645d5c;}.d{fill:#f5bc76;}.e{fill:#b5886a;}</style></defs><path class="a" d="M261.113,83.775c-12.095,18.611-10.853,72.983-4.593,95.34-13.219,4.943-37.784,36.639-44.679,60.951C189,235.75,134.267,239.9,111.31,254,98.821,242.148,61.938,224.542,28.8,224.542c0-22.205-9.727-63.536-23.981-82.738C16.082,121.275,22.131,79,20.671,52.49,41.705,46.039,77.28,24.246,95.427,4.351c23.1,9.942,72.892,10.906,103.11,6.149C201.16,24.034,244.571,78.033,261.113,83.775Z"/><path class="a" d="M153.431,117.737a4.012,4.012,0,0,1,3.214-.94,3.792,3.792,0,0,1,2.728,1.813,5.357,5.357,0,0,1,.562,2.158,16.073,16.073,0,0,1-1.639,8.52,10.216,10.216,0,0,1-2.642,3.467,6.759,6.759,0,0,1-3.15,1.42s-.195.03-.541.091c-.258.964-.547,1.776-.689,2.207-.964,2.617-6.586,12-13.511,14.685a37.052,37.052,0,0,0,.577,6.232c.32,1.83.22,3.47,2.76,4.39.15.05,5.63,1.25,7.17,1.62,0,0-3.246,18-22.578,18s-19.674-17.9-19.674-17.9c.49-.167,4.687-1.666,4.856-1.727,2.545-.919,2.444-2.555,2.765-4.386a35.192,35.192,0,0,0,.56-6.712,23.763,23.763,0,0,1-7.527-6.178,27.344,27.344,0,0,1-5.21-10.17l-1.026-.157a6.759,6.759,0,0,1-3.15-1.42,10.216,10.216,0,0,1-2.642-3.467,16.073,16.073,0,0,1-1.639-8.52,5.357,5.357,0,0,1,.562-2.158A3.792,3.792,0,0,1,96.3,116.8a4.013,4.013,0,0,1,3.214.94s-4.928-25.221,26.628-25.221S153.431,117.737,153.431,117.737Z"/><path class="a" d="M86.617,272.829c.455,6.235-.838,13.449-1.335,19.68-.128,1.612-1.383,2.4-2.358,1.115-.467-.616-2.42-3.736-3.027-4.4-.409,2.543-.56,2.994-.771,4.7-.673,5.456-.7,7.067-.91,10.732-.089,1.576-.352,2.768-.793,2.99-1.562.788-3.34.827-4.511-.619a10.751,10.751,0,0,1-2.259-5.069,59.7,59.7,0,0,1-.1-8.8,31.442,31.442,0,0,1,2.1-8.135c2.21-5.427,4.012-7.87,5.039-13.639l.444-3.21,8.722.389Z"/><path class="a" d="M149.148,442.284a26.978,26.978,0,0,0,3.054,12.305l-19.592-.38.076-11.007"/><path class="a" d="M105.839,442.284a26.978,26.978,0,0,1-3.054,12.305l19.592-.38L122.3,443.2"/><path class="b" d="M103.839,442.284a25.23,25.23,0,0,1-2.781,11.3,2,2,0,0,0,3.454,2.019,29.553,29.553,0,0,0,3.327-13.315,2,2,0,0,0-4,0Z"/><path class="b" d="M120.3,443.2l.076,11.007a2,2,0,0,0,4,0L124.3,443.2a2,2,0,0,0-4,0Z"/><path class="b" d="M147.148,442.284a29.553,29.553,0,0,0,3.327,13.315,2.014,2.014,0,0,0,2.736.717,2.046,2.046,0,0,0,.718-2.736,25.22,25.22,0,0,1-2.781-11.3,2,2,0,0,0-4,0Z"/><path class="b" d="M130.686,443.2l-.076,11.007a2,2,0,0,0,4,0l.076-11.007a2,2,0,0,0-4,0Z"/><path class="c" d="M85.871,479.846q-.154-.2-.291-.415a7.779,7.779,0,0,1-.514-6.519,21.306,21.306,0,0,1,3.345-5.837q4.844-6.613,10.236-12.8c1.4-1.608,2.986-3.284,5.082-3.679A3.152,3.152,0,0,0,105.3,453.9a7.4,7.4,0,0,0,3.779.853,20.97,20.97,0,0,0,14.681-5.843c-.024,4.416.02,5.887,0,10.3a9.271,9.271,0,0,1-.387,3.187c-.908,2.455-3.6,3.638-5.761,5.117-5.621,3.846-8.582,10.864-14.472,14.285a15.208,15.208,0,0,1-14.058.5A8.858,8.858,0,0,1,85.871,479.846Z"/><path class="c" d="M169.116,479.846q.154-.2.291-.415a7.783,7.783,0,0,0,.515-6.519,21.335,21.335,0,0,0-3.346-5.837q-4.843-6.613-10.236-12.8c-1.4-1.608-2.986-3.284-5.082-3.679a3.152,3.152,0,0,1-1.567,3.306,7.4,7.4,0,0,1-3.779.853,20.97,20.97,0,0,1-14.681-5.843c.024,4.416-.02,5.887,0,10.3a9.271,9.271,0,0,0,.387,3.187c.908,2.455,3.6,3.638,5.761,5.117,5.621,3.846,8.582,10.864,14.472,14.285a15.208,15.208,0,0,0,14.058.5A8.858,8.858,0,0,0,169.116,479.846Z"/><path class="b" d="M87.6,478.837C84.2,474.2,89.993,468.2,92.666,464.71q2.766-3.606,5.715-7.068c1.6-1.881,3.327-4.538,5.88-5.117l-2.461-2.461a5.319,5.319,0,0,0,3.181,5.914c2.4,1.084,5.288.879,7.829.494a22.734,22.734,0,0,0,12.361-6.146l-3.415-1.414c-.019,3.734.152,7.5-.014,11.23a4.6,4.6,0,0,1-2.384,3.877c-1.51,1.03-3.079,1.922-4.493,3.091-5.359,4.43-8.492,12.177-15.622,14.18-3.948,1.11-9.221.493-11.958-2.858-1.629-2-4.444.85-2.828,2.829,2.819,3.452,8.026,4.807,12.321,4.483a18.23,18.23,0,0,0,11.532-5.464c2.843-2.8,5.035-6.175,7.876-8.974a27.257,27.257,0,0,1,4.581-3.432,10.571,10.571,0,0,0,4.3-4.374c1.042-2.366.7-5.234.7-7.762-.005-2.276-.015-4.551,0-6.826a2.022,2.022,0,0,0-3.414-1.414,18.7,18.7,0,0,1-8.161,4.6,17.979,17.979,0,0,1-5.3.648c-.81-.024-3.483-.223-3.22-1.622a2.028,2.028,0,0,0-2.461-2.461c-3.208.729-5.311,3.411-7.34,5.79q-3.587,4.2-6.93,8.607c-3.62,4.747-9.206,11.748-4.783,17.792a2.059,2.059,0,0,0,2.736.717A2.015,2.015,0,0,0,87.6,478.837Z"/><path class="b" d="M170.843,480.856c4.424-6.045-1.163-13.044-4.783-17.792q-3.279-4.3-6.778-8.429c-2.069-2.433-4.211-5.223-7.492-5.968a2.028,2.028,0,0,0-2.461,2.461c.25,1.329-2.235,1.582-3.024,1.616a17.822,17.822,0,0,1-5.5-.642,18.7,18.7,0,0,1-8.161-4.6,2.022,2.022,0,0,0-3.414,1.414c.01,1.992,0,3.983,0,5.974a40.847,40.847,0,0,0,.187,6.936c.772,4.507,5.26,5.823,8.3,8.475,3.013,2.628,5.232,6,7.933,8.919,2.914,3.152,6.5,5.635,10.816,6.318,4.81.761,10.825-.307,14.064-4.273a2.059,2.059,0,0,0,0-2.829,2.014,2.014,0,0,0-2.828,0c-2.371,2.9-6.813,3.781-10.373,3.213-3.678-.585-6.52-2.708-8.976-5.395-2.437-2.664-4.493-5.671-7.124-8.158a27.551,27.551,0,0,0-4.369-3.28c-1.2-.75-2.718-1.578-3.313-2.941a9.809,9.809,0,0,1-.32-3.808q0-1.5,0-3.009c.006-2.048.012-4.095,0-6.142l-3.415,1.414a22.734,22.734,0,0,0,12.361,6.146c2.46.372,5.238.578,7.59-.393a5.356,5.356,0,0,0,3.42-6.015l-2.461,2.461c2.492.565,4.166,3.1,5.728,4.938q3.021,3.552,5.867,7.247c2.672,3.484,8.462,9.489,5.068,14.127a2.014,2.014,0,0,0,.718,2.736A2.046,2.046,0,0,0,170.843,480.856Z"/><path class="b" d="M84.617,272.829c.355,5.342-.4,10.673-.976,15.973a13.854,13.854,0,0,0-.336,3.532c.083.453-.415.2.629.161,1.382-.052.587.074.605-.034.023-.136-.435-.643-.507-.751a37.094,37.094,0,0,0-2.72-3.9,2.011,2.011,0,0,0-3.343.883c-.6,3.7-1.17,7.385-1.462,11.13-.117,1.5-.185,3-.272,4.507A11.224,11.224,0,0,1,76.1,305.8c.015-.078-.154.63-.158.627l.475-.5-.2.088c-.941.062-1.29.379-1.977-.523a8.2,8.2,0,0,1-1.318-2.659,14.3,14.3,0,0,1-.334-1.4c-.061-.324.005.041.01.092-.023-.2-.036-.394-.05-.59-.105-1.48-.108-2.971-.1-4.454a29.431,29.431,0,0,1,2.315-11.338c1.83-4.4,3.993-8.485,4.865-13.216.464-2.517-3.39-3.6-3.857-1.064-.886,4.807-3.12,8.952-4.952,13.428a33.537,33.537,0,0,0-2.372,13.08c.016,4.006.278,8.343,3.317,11.365a5.572,5.572,0,0,0,6.8.549c1.914-1.254,1.647-4.461,1.756-6.453a122.817,122.817,0,0,1,1.51-13.071l-3.343.882c.3.349-.285-.4.111.137.146.2.285.4.425.6.27.394.534.793.8,1.191.455.688.89,1.4,1.38,2.06,2.11,2.862,5.654,1.434,6.05-1.859.787-6.548,1.809-13.343,1.37-19.946-.169-2.555-4.171-2.574-4,0Z"/><path class="a" d="M126.721,252.523c-16.557,0-29.027,0-29.943-.009-1.3,4.519-2.934,12.189-3.994,18.192-5.1,28.923-.17,58.446,2.045,86.752,2.3,29.358,3.7,58.715,6,88.073a133.191,133.191,0,0,0,25.889.187,133.342,133.342,0,0,0,25.9-.187c2.3-29.358,3.7-58.715,6-88.073,2.214-28.306,7.148-57.829,2.044-86.752-1.059-6-2.69-13.671-3.993-18.189Z"/><path class="b" d="M92.546,2.441c5.578,16.456,11.5,32.8,17.213,49.206q2.949,8.472,5.857,16.957c.828,2.421,4.693,1.381,3.857-1.064-6.5-19-13.219-37.919-19.852-56.871C98.539,7.575,97.455,4.482,96.4,1.378c-.822-2.425-4.687-1.384-3.857,1.063Z"/><path class="b" d="M59.126,226.663A124.936,124.936,0,0,0,28.8,222.542l2,2c-.018-10.966-1.827-21.986-4.174-32.669a185.5,185.5,0,0,0-11.289-35.416A82.62,82.62,0,0,0,6.55,140.794v2.019c5.407-9.918,8.473-21.129,10.842-32.109a248.941,248.941,0,0,0,5.167-38.658,178.931,178.931,0,0,0,.112-19.556L21.2,54.419c10.5-3.243,20.479-8.351,29.978-13.815A232.41,232.41,0,0,0,82.644,19.012a135.979,135.979,0,0,0,14.2-13.246l-2.424.312c11.675,4.991,24.655,6.794,37.2,7.977a296.732,296.732,0,0,0,44.829.708c7.569-.437,15.127-1.162,22.619-2.334l-2.46-1.4c.875,4.38,3.564,8.574,5.867,12.321A208.052,208.052,0,0,0,214.6,40.7c9.454,12.355,19.662,24.436,31.25,34.858,4.336,3.9,9.144,8.172,14.737,10.145l-1.195-2.938c-2.884,4.478-4.559,9.728-5.8,14.87a131.5,131.5,0,0,0-3.018,20.036,223.491,223.491,0,0,0,.651,42.9,120.767,120.767,0,0,0,3.371,19.081l1.4-2.46a33.649,33.649,0,0,0-9.521,6.057A90.621,90.621,0,0,0,236.33,193.5,147.679,147.679,0,0,0,216.972,222.2a96.2,96.2,0,0,0-7.06,17.331c-.71,2.479,3.149,3.538,3.857,1.064,2.973-10.383,8.2-20.093,14.073-29.105a121.437,121.437,0,0,1,19.75-23.928,48,48,0,0,1,4.975-4.011c.805-.554,1.63-1.078,2.485-1.551.358-.2.72-.387,1.089-.564a7.379,7.379,0,0,1,.91-.395,2.046,2.046,0,0,0,1.4-2.461c-3.249-11.683-4.116-24.135-4.469-36.2-.4-13.747.047-27.811,2.924-41.3,1.217-5.7,2.792-11.41,5.937-16.294a2.024,2.024,0,0,0-1.195-2.938c-.209-.074-.416-.154-.623-.234-.328-.126.044.02.092.041-.131-.058-.263-.115-.393-.176-.464-.219-.922-.449-1.371-.7-1-.549-1.969-1.161-2.913-1.8a66.1,66.1,0,0,1-6.481-5.111A186.393,186.393,0,0,1,234.794,58.74a266.483,266.483,0,0,1-27.637-35.45,91.677,91.677,0,0,1-4.61-7.928q-.4-.792-.772-1.6c-.119-.26-.236-.522-.349-.785.208.483-.114-.285-.16-.4a15.679,15.679,0,0,1-.8-2.608,2.047,2.047,0,0,0-2.46-1.4,257.134,257.134,0,0,1-40.926,2.69c-14.148-.069-28.424-.907-42.348-3.519a87.949,87.949,0,0,1-18.3-5.119,2.079,2.079,0,0,0-2.424.313C86.028,11.66,76.662,19.1,66.981,25.848a226.341,226.341,0,0,1-31.634,18.6A112.043,112.043,0,0,1,20.14,50.562a2.039,2.039,0,0,0-1.469,1.928,205.915,205.915,0,0,1-1.571,35.9,206.3,206.3,0,0,1-7.508,36.428,87.867,87.867,0,0,1-6.5,15.981,1.982,1.982,0,0,0,0,2.019c6.52,8.834,10.715,19.335,14.12,29.7a206.285,206.285,0,0,1,8.27,35.343,120.2,120.2,0,0,1,1.318,16.69,2.03,2.03,0,0,0,2,2,120.309,120.309,0,0,1,29.259,3.978c2.5.634,3.561-3.223,1.063-3.857Z"/><path class="b" d="M21.867,50.475q-1.28-.824-2.563-1.637a1.493,1.493,0,0,0-.744-.238,1.8,1.8,0,0,0-1.478.394,1.52,1.52,0,0,0-.515.561,2.018,2.018,0,0,0-.2,1.541,2.151,2.151,0,0,0,.919,1.2q1.284.813,2.563,1.637a1.486,1.486,0,0,0,.743.237,1.8,1.8,0,0,0,1.478-.394,1.511,1.511,0,0,0,.515-.561,2.022,2.022,0,0,0,.2-1.541,2.172,2.172,0,0,0-.919-1.2Z"/><path class="b" d="M86.405,92.863A491.741,491.741,0,0,0,44.759,64.637q-6.285-3.846-12.7-7.478c-2.245-1.266-4.264,2.188-2.019,3.454A505.778,505.778,0,0,1,74.319,88.926q5.091,3.617,10.068,7.391a2.012,2.012,0,0,0,2.736-.717,2.05,2.05,0,0,0-.718-2.737Z"/><path class="b" d="M196.81,9.491q-16.188,25.635-32.075,51.458-4.523,7.374-8.992,14.78c-1.332,2.211,2.126,4.224,3.454,2.019,10.846-18,21.964-35.842,33.137-53.642q3.957-6.3,7.93-12.6c1.379-2.183-2.081-4.192-3.454-2.019Z"/><path class="b" d="M198.015,7.478q-.634.986-1.268,1.972a1.492,1.492,0,0,0-.237.744,1.511,1.511,0,0,0,.035.8,1.519,1.519,0,0,0,.358.681,1.515,1.515,0,0,0,.562.515l.477.2a2,2,0,0,0,1.064,0l.477-.2a2.008,2.008,0,0,0,.718-.718q.633-.987,1.268-1.972a1.487,1.487,0,0,0,.238-.743,1.526,1.526,0,0,0-.036-.8,1.505,1.505,0,0,0-.358-.68,1.511,1.511,0,0,0-.561-.515l-.478-.2a2.018,2.018,0,0,0-1.063,0l-.478.2a2.014,2.014,0,0,0-.718.717Z"/><path class="b" d="M243.978,85.718C224,89.64,204.108,94.19,184.588,100.01q-8.214,2.448-16.316,5.244c-2.417.839-1.378,4.7,1.063,3.858A514.121,514.121,0,0,1,228.76,92.934q8.123-1.764,16.282-3.359c2.523-.5,1.455-4.352-1.064-3.857Z"/><path class="b" d="M262.455,81.36l-1.888.418a2.235,2.235,0,0,0-1.2.919,1.486,1.486,0,0,0-.237.743,1.506,1.506,0,0,0,.036.8l.2.478a2.014,2.014,0,0,0,.718.717l.478.2a2.018,2.018,0,0,0,1.063,0l1.888-.418a1.924,1.924,0,0,0,1.433-1.662,1.516,1.516,0,0,0-.036-.8l-.2-.478a2.014,2.014,0,0,0-.718-.717l-.478-.2a2.018,2.018,0,0,0-1.063,0Z"/><path class="b" d="M259.563,178.364c-23.927-11.832-48.1-23.187-72.57-33.855q-9.792-4.269-19.658-8.366a2.012,2.012,0,0,0-2.46,1.4,2.051,2.051,0,0,0,1.4,2.46c24.027,9.962,47.7,20.78,71.154,32.022q10.089,4.836,20.118,9.8c2.3,1.137,4.329-2.312,2.019-3.454Z"/><path class="b" d="M27.682,222.416c-.67.765-1.337,1.537-1.972,2.333a1.489,1.489,0,0,0-.413.643,2.06,2.06,0,0,0,.413,2.185,2.012,2.012,0,0,0,1.414.586l.532-.072a2,2,0,0,0,.883-.514c.634-.795,1.3-1.568,1.971-2.333a2.054,2.054,0,0,0,0-2.828,2.01,2.01,0,0,0-1.414-.586,1.989,1.989,0,0,0-1.414.586Z"/><path class="b" d="M64.765,185.143c-8.375,7.963-16.6,16.087-24.758,24.276-1.825,1.832-3.646,3.67-5.438,5.534s1.04,4.688,2.828,2.828c7.821-8.132,15.927-16,24.02-23.863q3.075-2.987,6.177-5.946c1.869-1.778-.962-4.6-2.829-2.829Z"/><path class="b" d="M2.485,144.213c8.814-2.261,17.8-3.907,26.747-5.553Q46.957,135.4,64.8,132.794c5.964-.86,11.939-1.65,17.931-2.278a2.056,2.056,0,0,0,2-2,2.014,2.014,0,0,0-2-2c-11.438,1.2-22.827,2.911-34.177,4.757-11.4,1.853-22.776,3.871-34.092,6.175-4.362.888-8.725,1.8-13.038,2.908-2.492.639-1.436,4.5,1.063,3.857Z"/><path class="b" d="M210.365,241.471c.49.575,1,1.136,1.49,1.711a2.055,2.055,0,0,0,2.828,0l.313-.405a1.987,1.987,0,0,0,.273-1.009l-.072-.532a1.99,1.99,0,0,0-.514-.882c-.492-.575-1-1.136-1.49-1.712a1.489,1.489,0,0,0-.643-.413,1.814,1.814,0,0,0-1.542,0,1.489,1.489,0,0,0-.643.413l-.313.405a1.991,1.991,0,0,0-.273,1.01l.071.531a2,2,0,0,0,.515.883Z"/><path class="b" d="M170.642,65.729c-2.326,5.407-4.487,10.882-6.686,16.342a2.014,2.014,0,0,0,1.4,2.46,2.05,2.05,0,0,0,2.461-1.4c2.069-5.138,4.093-10.3,6.282-15.386a2.066,2.066,0,0,0-.717-2.736,2.015,2.015,0,0,0-2.737.717Z"/><path class="b" d="M174.831,118.213c4.419-2.664,9-5.044,13.535-7.5a2,2,0,0,0-2.019-3.454c-4.534,2.459-9.116,4.839-13.535,7.5a2,2,0,0,0,2.019,3.454Z"/><path class="b" d="M66.967,93.1c3.185,3.207,6.2,6.586,9.511,9.669a2,2,0,0,0,2.829-2.828C76,96.854,72.981,93.475,69.8,90.268A2,2,0,0,0,66.967,93.1Z"/><path class="d" d="M156.351,252.527H96.778c-1.352,4.675-3.062,12.778-4.115,18.875-5.136.014-14.113-.606-18.736-.783,2.7-13.375,1.3-49.668,2.811-75.158a55.717,55.717,0,0,1,1.315-10.49,35.753,35.753,0,0,1,2.588-5.936c2.029-3.355,5.279-5.771,8.558-7.92,4.735-3.1,14.091-8.447,16.2-8.053,11.918,8.847,29.8,10.69,43.837-.394l2.21-1.071,23.114,39.359,8.9-3.583c3.47,6.245,6.794,14.729,7.679,21.248.545,4.014.068,8.256-2.457,11.591a7.525,7.525,0,0,1-7.037,2.947,22.6,22.6,0,0,1-10.863-4.369,55.412,55.412,0,0,1-8.224-6.525l-3.408-3.55-.091.55c-1.667,10.129-3.668,29.948-2.706,33.262"/><path class="a" d="M163.049,198.891c1.622,2.855,4.86,4.158,7.242,6.243.53.464,1.045,1.407,1.61,1.752s1.6-.852,2.044-1.312a24.266,24.266,0,0,0,3.713-6.154,92.171,92.171,0,0,0-.644-10.7c-.264-.853-.3-1.832-.5-2.709a38.542,38.542,0,0,0-3.879-10.266,5.4,5.4,0,0,0-1.594-1.99c-1.42-.942-3.315-.467-4.922.1-1.823.645-3.866,1.312-5.625,2.114-1.409.643-2.644,1.709-2.315,3.222a2.271,2.271,0,0,0,1.736,1.767l-2.459.249c-.99-.408-2.18-.8-3.07-.2a3.92,3.92,0,0,0-1.319,4.38c1.259,2.631,3.508,4.814,5.382,7.05,1.031,1.23,2.639,2.417,3.381,3.84C162.276,197.126,162.573,198.054,163.049,198.891Z"/><path class="b" d="M112.2,151.7a42.436,42.436,0,0,1-.6,5.835c-.052.344-.1.689-.178,1.029-.028.122-.058.244-.095.364-.023.08-.049.158-.077.236q-.115.3.057-.137c-.025,0-.225.452-.255.431.01.007.292-.394-.033-.006q-.24.21.075-.036c-.083.061-.169.119-.257.173a4.043,4.043,0,0,0-.38.215c.19-.088-.237.085-.3.107l-.474.17-1.536.548c-.889.317-1.776.64-2.668.946a2,2,0,1,0,1.064,3.857c.99-.34,1.975-.7,2.961-1.051a19.008,19.008,0,0,0,3.279-1.3,5.7,5.7,0,0,0,2.651-4.353,54.089,54.089,0,0,0,.761-7.031,2.018,2.018,0,0,0-2-2,2.04,2.04,0,0,0-2,2Z"/><path class="b" d="M135.77,151.7a48.572,48.572,0,0,0,.686,6.488,7.189,7.189,0,0,0,1.471,3.882c1.537,1.767,4.162,1.984,6.3,2.462,1.17.261,2.341.517,3.507.8a2,2,0,1,0,1.064-3.857c-2-.478-4.006-.906-6.01-1.354-.317-.071-.635-.137-.95-.215-.067-.017-.134-.03-.2-.048-.154-.042-.245-.119-.048-.015-.17-.089-.339-.176-.5-.276-.064-.04-.125-.084-.188-.127.063.043.3.282.08.044-.021-.023-.272-.284-.267-.288.036-.024.248.374.035,0-.029-.052-.051-.112-.083-.161-.126-.19.114.366.061.144-.127-.531-.263-1.043-.345-1.587-.131-.872-.3-1.791-.374-2.455-.133-1.139-.21-2.282-.238-3.428a2,2,0,0,0-4,0Z"/><path class="b" d="M96.724,254.527h59.627c2.574,0,2.578-4,0-4H96.724c-2.574,0-2.579,4,0,4Z"/><path class="b" d="M125.494,306.006c-.393,4.306-.349,8.67-.384,12.99-.051,6.423-.025,12.847.014,19.271.054,8.979.153,17.957.14,26.936q-.022,15.006-.059,30.011-.03,16.794-.032,33.587,0,6.074.028,12.146c.011,1.939-.066,3.913.079,5.85a2.189,2.189,0,0,0,.608,1.6c1.958,1.647,4.8-1.169,2.829-2.829a2.146,2.146,0,0,1,.566,1.284,1.622,1.622,0,0,0-.014-.286c0-.3-.017-.61-.023-.915-.02-1.075-.028-2.151-.035-3.227-.027-3.717-.032-7.434-.036-11.151q-.018-16.356.024-32.713.027-15.5.061-31.01c.014-8.34-.048-16.678-.108-25.018-.082-11.427-.37-22.915.2-34.334.036-.731.08-1.461.147-2.19a2.016,2.016,0,0,0-2-2,2.042,2.042,0,0,0-2,2Z"/><path class="b" d="M94.8,252.174a166.737,166.737,0,0,0-5.82,33.52c-.889,12.759-.268,25.566.787,38.295,1.048,12.658,2.456,25.281,3.41,37.948.987,13.095,1.813,26.2,2.64,39.309.93,14.766,1.862,29.533,3.014,44.285a2.067,2.067,0,0,0,2,2,143.861,143.861,0,0,0,24.645.286c2.551-.191,2.572-4.192,0-4a143.861,143.861,0,0,1-24.645-.286l2,2c-2.038-26.1-3.381-52.255-5.268-78.37-.914-12.643-2.188-25.243-3.334-37.865s-2.013-25.333-1.544-38.026a162.621,162.621,0,0,1,5.972-38.032c.7-2.482-3.157-3.541-3.857-1.064Z"/><path class="b" d="M154.793,253.238a161.406,161.406,0,0,1,5.742,33.425c.806,12.682.152,25.4-.912,38.05-1.058,12.581-2.443,25.13-3.387,37.721-.976,13.013-1.8,26.037-2.618,39.061-.925,14.683-1.854,29.367-3,44.036l2-2a143.851,143.851,0,0,1-24.644.286c-2.568-.192-2.556,3.809,0,4a143.851,143.851,0,0,0,24.644-.286,2.066,2.066,0,0,0,2-2c2.045-26.187,3.39-52.422,5.287-78.619.921-12.72,2.213-25.4,3.359-38.1,1.148-12.718,1.994-25.5,1.472-38.272a166.968,166.968,0,0,0-6.087-38.368c-.7-2.473-4.559-1.422-3.857,1.064Z"/><path class="b" d="M157.129,218.733c-1.068,6.532-1.826,13.127-2.41,19.719-.263,2.962-.492,5.931-.585,8.9a19.881,19.881,0,0,0,.289,5.7c.674,2.482,4.534,1.428,3.857-1.063-.035-.128-.061-.256-.087-.385-.058-.3.025.493-.009-.1-.022-.378-.055-.753-.067-1.131-.036-1.092-.012-2.186.025-3.277.1-2.889.321-5.775.577-8.654.552-6.237,1.256-12.475,2.267-18.656a2.061,2.061,0,0,0-1.4-2.46,2.016,2.016,0,0,0-2.46,1.4Z"/><path class="b" d="M94.606,194.884a73.088,73.088,0,0,0-.646,10.857c-.032,4.628.088,9.259.317,13.882.2,4.07.647,8.1.98,12.158a52.105,52.105,0,0,1-.874,11.891A125.874,125.874,0,0,1,91,259.607c-.714,2.479,3.145,3.537,3.857,1.064a124.435,124.435,0,0,0,3.1-14.107,78.813,78.813,0,0,0,1.368-13.183c-.009-1.663-.265-3.3-.424-4.956-.206-2.133-.36-4.27-.487-6.409q-.414-6.966-.449-13.95c-.011-2.4.012-4.791.112-7.185.04-.944.091-1.888.166-2.831.035-.441.075-.882.124-1.322.014-.134.03-.267.046-.4.031-.247.033-.257,0-.032.016-.116.034-.232.053-.348a2.062,2.062,0,0,0-1.4-2.46,2.015,2.015,0,0,0-2.46,1.4Z"/><path class="b" d="M147.825,161.254a33.887,33.887,0,0,1-32.911,4.774,35.043,35.043,0,0,1-7.068-3.681c-1.007-.674-1.777-1.388-3.055-1.278a9.465,9.465,0,0,0-2.62.7,77.389,77.389,0,0,0-13.3,7.178,40.12,40.12,0,0,0-7.161,5.513,23.34,23.34,0,0,0-4.981,8.362,37.283,37.283,0,0,0-1.88,10.806c-.2,2.895-.333,5.793-.446,8.692-.475,12.192-.479,24.4-.645,36.6-.082,6.047-.185,12.1-.48,18.137A91.062,91.062,0,0,1,72,270.087a2.032,2.032,0,0,0,1.928,2.532c5.856.231,11.7.692,17.565.774,2.575.036,2.576-3.964,0-4-5.861-.082-11.709-.543-17.565-.774l1.929,2.532c1.75-8.812,1.657-18.078,1.823-27.022.223-12.046.208-24.1.541-36.141.165-6,.26-12.08.954-18.048a24.509,24.509,0,0,1,3.194-9.9,21.647,21.647,0,0,1,6.488-6.3,90.223,90.223,0,0,1,13.118-7.575,18.666,18.666,0,0,1,2.322-.928c.182-.057.368-.1.55-.154.5-.15.09-.051.086-.039l.132-.009q.441,0-.389-.047c-.011.026.82.58.861.608a39.35,39.35,0,0,0,7.65,4.023,37.384,37.384,0,0,0,37.468-5.545,2.01,2.01,0,0,0,0-2.828,2.052,2.052,0,0,0-2.829,0Z"/><path class="b" d="M167.716,171.285q-7.137-12.164-14.075-24.445c-1.267-2.24-4.724-.227-3.453,2.019q6.942,12.274,14.074,24.445c1.3,2.219,4.76.208,3.454-2.019Z"/><path class="b" d="M160.842,173.734c-3.87-6.718-8-13.286-11.867-20-1.285-2.23-4.743-.218-3.454,2.019,3.871,6.719,8,13.287,11.868,20,1.284,2.23,4.742.218,3.453-2.019Z"/><path class="b" d="M178.989,188.5a40.436,40.436,0,0,0-2.869-10.153c-1.305-3.061-2.808-6.775-6.58-7.112a11.889,11.889,0,0,0-4.879,1.009c-1.695.591-3.392,1.183-5.028,1.925a5.828,5.828,0,0,0-3.3,3.264,4.348,4.348,0,0,0,1.24,4.493c2.844,2.55,7.211.27,10.052-1.122a2.019,2.019,0,0,0,.717-2.736,2.04,2.04,0,0,0-2.736-.718c-.685.336-5.3,2.662-5.478,1.319.025.188-.022-.026.054-.1a3.321,3.321,0,0,1,.6-.5,10.391,10.391,0,0,1,1.765-.818c1.537-.6,3.108-1.174,4.683-1.669.969-.305,2.319-.755,3.079.182a18.254,18.254,0,0,1,2.226,4.294,38.208,38.208,0,0,1,2.6,9.5,2.013,2.013,0,0,0,2.46,1.4,2.052,2.052,0,0,0,1.4-2.46Z"/><path class="b" d="M158.316,179.818a4.976,4.976,0,0,0-1.286,4.508,4.093,4.093,0,0,0,2.874,3.112,8.323,8.323,0,0,0,4.135-.067,34.133,34.133,0,0,0,4.329-1.31A2,2,0,0,0,167.3,182.2c-1.207.427-2.421.845-3.664,1.157q-.394.1-.794.181c-.127.025-.254.049-.381.07-.082.014-.165.028-.247.04.31-.04.386-.051.23-.032-.462.042-.9.024-1.365.023.551,0,.35.053.151.01-.09-.02-.179-.043-.266-.071-.422-.134.158.054.15.073s-.195-.108-.225-.124c-.287-.152.377.378.1.082-.061-.066-.266-.318-.045-.018.238.323.022-.02-.027-.075q-.108-.207.1.249c-.025-.064-.047-.13-.066-.2a2.727,2.727,0,0,0-.068-.309l.044.317c-.006-.073-.01-.145-.011-.218,0-.112.007-.22.011-.331.012-.389-.118.465-.006.093.031-.1.06-.212.086-.317.091-.368-.214.382-.038.081.045-.078.3-.423.061-.149s.056-.042.11-.092a2.018,2.018,0,0,0,0-2.829,2.044,2.044,0,0,0-2.829,0Z"/><path class="b" d="M168.63,187.008c-.564.281-1.131.555-1.712.8l.478-.2a22.352,22.352,0,0,1-3.8,1.119,2.015,2.015,0,0,0-1.4,2.46,2.045,2.045,0,0,0,2.46,1.4,25.9,25.9,0,0,0,2.926-.78,26.69,26.69,0,0,0,3.069-1.341,2,2,0,0,0-2.019-3.454Z"/><path class="b" d="M157.989,179.276c-1.887-.748-3.932-.858-5.458.683a6.127,6.127,0,0,0-1.688,4.588,9.391,9.391,0,0,0,2.293,4.684c1.218,1.6,2.571,3.105,3.9,4.615,1.163,1.323,2.587,2.362,3.336,3.994a13.506,13.506,0,0,0,2.715,4.312c2.208,2.175,5.47,3.369,7.242,5.972,1.44,2.116,4.907.117,3.454-2.019-1.59-2.335-3.894-3.768-6.153-5.376a10.184,10.184,0,0,1-2.586-2.415c-.859-1.26-1.2-2.775-2.12-4-.907-1.2-2.068-2.166-3.06-3.294-1.121-1.274-2.285-2.534-3.325-3.875-.638-.822-1.821-2.1-1.7-3.209.159-1.494.988-1.237,2.089-.8a2.014,2.014,0,0,0,2.46-1.4,2.046,2.046,0,0,0-1.4-2.46Z"/><path class="c" d="M155.893,206.492a4.054,4.054,0,0,1-.156-5.033,3.761,3.761,0,0,1,4.962-.261c1.881,1.555,4.253,4.266,6.32,5.047a6.654,6.654,0,0,0,4.614.059,2.839,2.839,0,0,0,1.289-3.591,36.7,36.7,0,0,0-1.253-3.97c-.472-1.084-.488-3.772,1.723-4.649a4.208,4.208,0,0,1,4.806.784c3.369,4.108,3.116,11.069.384,14.879s-9.234,5.636-13.652,4.134C160.712,212.457,156.6,207.307,155.893,206.492Z"/><path class="b" d="M157.307,205.078a1.946,1.946,0,0,1,.04-2.407,1.85,1.85,0,0,1,2.176.142c2.414,1.809,4.175,4.4,7.139,5.42,2.668.921,6.2.643,7.793-1.974,1.579-2.592-.146-5.806-.969-8.365a1.754,1.754,0,0,1,.36-1.782,2.557,2.557,0,0,1,2.686-.079,6.428,6.428,0,0,1,1.578,2.823,11.931,11.931,0,0,1,.566,3.894,9.7,9.7,0,0,1-2.233,6.468,11.1,11.1,0,0,1-6.514,3.1,9.812,9.812,0,0,1-7.674-2.24,35.346,35.346,0,0,1-4.948-5c-1.674-1.96-4.492.881-2.828,2.829,3.765,4.405,8.3,8.8,14.524,8.492a15.974,15.974,0,0,0,9.3-3.464,12.687,12.687,0,0,0,4.24-8.438,14.913,14.913,0,0,0-1.893-9.612,6.152,6.152,0,0,0-3.677-2.97,6.607,6.607,0,0,0-5.549,1.037,5.473,5.473,0,0,0-2.009,4.221c-.049,1.491.639,2.738,1.029,4.136.276.993,1.208,2.529.178,3.268.264-.189.161-.048-.01-.007a4.029,4.029,0,0,1-.474.1,5.742,5.742,0,0,1-.84,0,4.514,4.514,0,0,1-2.192-.613c-3.276-1.947-5.3-6.216-9.663-5.589-4.7.675-5.584,6.131-2.965,9.435a2.011,2.011,0,0,0,2.828,0A2.049,2.049,0,0,0,157.307,205.078Z"/><path class="b" d="M160.389,223.005a64.1,64.1,0,0,0,11.465,8.866c3.772,2.231,8.812,4.128,13.231,3.031,4.576-1.136,7.253-5.709,7.972-10.1.738-4.509-.207-9.08-1.5-13.4a77.281,77.281,0,0,0-6.368-15.041c-1.244-2.254-4.7-.239-3.454,2.019a73.747,73.747,0,0,1,5.045,11.26,37.9,37.9,0,0,1,2.557,11.405c.08,3.446-.908,8.206-4.458,9.728-3.247,1.391-7.627-.454-10.471-2.053a56.922,56.922,0,0,1-11.186-8.547c-1.858-1.783-4.69,1.041-2.829,2.829Z"/><path class="b" d="M212.373,238.137a119.363,119.363,0,0,0-20.489-1.687c-2.575-.03-2.577,3.97,0,4a113.2,113.2,0,0,1,19.425,1.544,2.054,2.054,0,0,0,2.46-1.4,2.018,2.018,0,0,0-1.4-2.461Z"/><path class="e" d="M107.268,156.05c-7.5,2.6-16.156-.888-15.116-2.563,2.3-.778,3.3-3.543,3.186-5.961s-.731-4.892-.768-7.31a21.876,21.876,0,0,1,.15-3.046,13.362,13.362,0,0,1,1.732-5.195,7.916,7.916,0,0,0,.834.78,6.759,6.759,0,0,0,3.15,1.42l1.028.158a27.3,27.3,0,0,0,5.208,10.169,23.706,23.706,0,0,0,7.6,6.215A13.768,13.768,0,0,1,107.268,156.05Z"/><path class="b" d="M94.511,131.343a17.024,17.024,0,0,0-1.893,6.9,42.3,42.3,0,0,0,.588,7.749c.19,1.665.339,3.578-.8,4.966-.572.695-1.54.754-2.01,1.572a2.6,2.6,0,0,0-.235,1.943c.559,2.1,3.3,3.089,5.131,3.639a21.379,21.379,0,0,0,8.748.7,16.778,16.778,0,0,0,10.755-5.5c1.673-1.941-1.144-4.782-2.828-2.829-3.087,3.58-7.494,4.779-12,4.448a14.3,14.3,0,0,1-2.6-.4c-.427-.1-.851-.216-1.269-.348q-.291-.093-.578-.2c-.053-.019-.629-.248-.367-.138s-.263-.124-.311-.148c-.144-.071-.286-.145-.426-.224s-.247-.156-.373-.229c-.406-.232.091.011.008.018-.042,0-.219-.191-.241-.228-.173-.3.3.45.1.117a1.491,1.491,0,0,1-.027,1.349l-1.2.919c4.017-1.525,4.963-5.739,4.5-9.615-.5-4.2-1.3-8.514.782-12.438,1.2-2.273-2.247-4.3-3.454-2.019Z"/><path class="e" d="M157.182,97.7c-3.168-13.212-16.7-23.562-30.884-22.789-14.471-.789-28.271,10.006-31.065,23.606a38.384,38.384,0,0,0,.022,12.871l1.161,5.424a4.15,4.15,0,0,1,2.732.645c5.217-4.135,15.756-10.631,20.806-14.829-.413,2.479-1.882,6.695-.032,6.262,7.725-1.73,15.129-5.218,19.591-10.672a51.536,51.536,0,0,0,3.654,9.464c1.666,2.758,6.514,9.148,10.749,9.7a4.145,4.145,0,0,1,2.729-.563,3.151,3.151,0,0,1,.494.109c2.273-5.205,1.129-14.021.224-18.415Q157.279,98.1,157.182,97.7Z"/><path class="b" d="M97.183,110.852a31.892,31.892,0,0,1-.246-10.431,24.179,24.179,0,0,1,3.463-9.553,29.7,29.7,0,0,1,16.711-12.856,36.416,36.416,0,0,1,10.812-1.146,27.375,27.375,0,0,1,10.5,2.186A29.683,29.683,0,0,1,153.671,93.62a32.477,32.477,0,0,1,2.545,10.5c.407,4.024.593,8.405-.978,12.217a2.012,2.012,0,0,0,1.4,2.46,2.051,2.051,0,0,0,2.461-1.4c1.537-3.729,1.539-8.074,1.232-12.035a42.084,42.084,0,0,0-2.073-11.043,33.242,33.242,0,0,0-27.289-21.272,54.9,54.9,0,0,0-6.111-.181,31.16,31.16,0,0,0-6.219.643A33.841,33.841,0,0,0,98.5,86.536a28.8,28.8,0,0,0-5.284,11.892,35.232,35.232,0,0,0,.107,13.487c.56,2.511,4.418,1.448,3.857-1.063Z"/><path class="b" d="M137.706,99.152c1.265,4.172,2.7,8.345,5.321,11.869,2.47,3.32,5.767,7.283,10.01,8.23,2.507.561,3.578-3.3,1.063-3.857-3.136-.7-6.016-4.174-7.887-6.756-2.291-3.162-3.525-6.84-4.65-10.549-.745-2.457-4.607-1.41-3.857,1.063Z"/><path class="b" d="M138.183,96.722a28.532,28.532,0,0,1-11.735,8.1q-1.711.671-3.476,1.2-.984.3-1.98.553-.4.1-.8.2c-.8.194-1.141-.011.011.661s.732.8.838-.179c.038-.359.121-.714.194-1.068.21-1.011.467-2.012.647-3.03a2.018,2.018,0,0,0-3.342-1.945c-6.544,5.4-14.053,9.53-20.727,14.767a2.01,2.01,0,0,0,0,2.828,2.05,2.05,0,0,0,2.828,0c6.676-5.237,14.176-9.359,20.727-14.767l-3.343-1.946c-.382,2.161-1.554,4.847-.807,7.027,1.121,3.267,5.792,1.112,7.991.386,5.938-1.959,11.764-5.073,15.8-9.954,1.629-1.969-1.185-4.814-2.829-2.828Z"/><path class="b" d="M154.845,119.151a1.949,1.949,0,0,1,2.736.362,4.323,4.323,0,0,1,.406,2.191,13.321,13.321,0,0,1-.183,2.735c-.593,3.247-2.218,7.16-5.832,7.808a2.017,2.017,0,0,0-1.4,2.46,2.045,2.045,0,0,0,2.46,1.4c5.732-1.028,8.47-7.487,8.9-12.683.225-2.712-.031-5.755-2.371-7.5a6.051,6.051,0,0,0-7.551.4,2.015,2.015,0,0,0,0,2.828,2.044,2.044,0,0,0,2.829,0Z"/><path class="b" d="M150.463,131.184a14.964,14.964,0,0,1-.875,4.033c-.08.241-.173.481-.243.725-.039.134-.2.459.046-.091-.127.286-.259.57-.4.849a34.449,34.449,0,0,1-2.969,4.774c-2.556,3.505-6.073,7.232-10.4,8.247-2.5.588-1.445,4.446,1.063,3.857,5.352-1.255,9.5-5.625,12.646-9.887,2.714-3.674,4.944-7.839,5.133-12.507.1-2.574-3.9-2.569-4,0Z"/><path class="b" d="M100.924,116.323a6.052,6.052,0,0,0-7.551-.4c-2.343,1.742-2.6,4.8-2.371,7.5.432,5.2,3.17,11.655,8.9,12.683a2.057,2.057,0,0,0,2.46-1.4,2.017,2.017,0,0,0-1.4-2.46c-3.614-.648-5.238-4.561-5.831-7.808a13.18,13.18,0,0,1-.186-2.579,5.04,5.04,0,0,1,.344-2.241,1.933,1.933,0,0,1,2.8-.468,2.055,2.055,0,0,0,2.829,0,2.016,2.016,0,0,0,0-2.828Z"/><path class="b" d="M98.669,131.008a31.444,31.444,0,0,0,6.711,15.052c3.786,4.483,8.8,7.7,14.7,8.333a2.013,2.013,0,0,0,2-2,2.047,2.047,0,0,0-2-2c-4.939-.533-9.053-3.729-12.116-7.456a27.768,27.768,0,0,1-5.436-12.992,2.017,2.017,0,0,0-2.46-1.4,2.044,2.044,0,0,0-1.4,2.46Z"/><path class="b" d="M121.388,139.992a11.464,11.464,0,0,0,5.518,1.291,9.124,9.124,0,0,0,5.7-1.736,1.994,1.994,0,0,0,.585-1.414,2.036,2.036,0,0,0-.585-1.414,2.014,2.014,0,0,0-1.415-.586,2.343,2.343,0,0,0-1.414.586c.7-.542.015-.038-.2.076-.169.089-.606.227.038,0-.148.052-.292.113-.442.161-.407.131-.832.168-1.239.283.2-.057.365-.044.056-.013-.122.012-.244.022-.365.03-.294.019-.587.026-.881.025-.263,0-.526-.011-.788-.029-.121-.008-.241-.018-.361-.03-.069-.006-.137-.014-.206-.023q-.237-.029.2.028a2.182,2.182,0,0,0-.593-.111q-.285-.063-.564-.146c-.162-.049-.32-.107-.48-.162-.436-.149.438.208.042.022-.2-.094-.394-.191-.588-.294a2,2,0,0,0-2.018,3.454Z"/><path class="b" d="M125.592,127.378a24.5,24.5,0,0,1,.573,2.622l-.071-.532a1.625,1.625,0,0,1,.01.362l.071-.532a.9.9,0,0,1-.04.163l.2-.478a.669.669,0,0,1-.058.1l.313-.405a.576.576,0,0,1-.086.085l.405-.313a1.641,1.641,0,0,1-.207.11l.477-.2a1.465,1.465,0,0,1-.35.1l.532-.071a1.393,1.393,0,0,1-.329,0l.532.072c-.124-.017-.245-.047-.369-.064a1.516,1.516,0,0,0-.8-.036,1.486,1.486,0,0,0-.743.237,2,2,0,0,0-.718,2.737l.313.405a2,2,0,0,0,.882.514c.34.046.67.131,1.017.146a3.358,3.358,0,0,0,1.572-.385,2.413,2.413,0,0,0,1.295-1.573,3.665,3.665,0,0,0-.013-1.621c-.142-.845-.338-1.682-.555-2.51a2.063,2.063,0,0,0-.919-1.2,2.039,2.039,0,0,0-1.541-.2,2.017,2.017,0,0,0-1.2.919,2.1,2.1,0,0,0-.2,1.541Z"/><path class="b" d="M112.36,119.778c-.438,1.423-.152,4.7,2.543,4.975,3.563-.021,3.753-3.979,2.554-5.84C116.475,117.39,113.587,116.756,112.36,119.778Z"/><path class="b" d="M140.892,119.778c.438,1.423.153,4.7-2.543,4.975-3.563-.022-3.753-3.979-2.553-5.84C136.778,117.39,139.665,116.756,140.892,119.778Z"/></svg>