<?xml version="1.0" encoding="utf-8"?>
<!-- Uploaded to: SVG Repo, www.svgrepo.com, Generator: SVG Repo Mixer Tools -->
<svg width="800px" height="800px" viewBox="0 -69.75 306.762 306.762" xmlns="http://www.w3.org/2000/svg"><defs><style>.a{fill:#cfcfcf;}.b{fill:#211715;}</style></defs><path class="a" d="M302.839,44.667a22.512,22.512,0,0,0-20.046-17.094,104.514,104.514,0,0,0-23.738.2c-7.831,1.022-25.835-.249-33.771-2.894-10.278-3.426-18.6-6.118-28.142-9.789C187.379,11.337,163.149,2.8,153.384,2.8c-9.213,0-34,8.538-43.766,12.292-9.544,3.671-17.864,6.363-28.142,9.789C73.54,27.526,55.535,28.8,47.705,27.775a104.514,104.514,0,0,0-23.738-.2A22.513,22.513,0,0,0,3.921,44.667C-1.434,68.8,13.49,94.794,29.256,112.9a123.008,123.008,0,0,0,27.7,24.223c18.927,12.822,63.885,27.384,96.433,27.384,32.785,0,77.5-14.563,96.421-27.384A123.008,123.008,0,0,0,277.5,112.9C293.27,94.794,308.194,68.8,302.839,44.667ZM66.216,92.858c-.366,6.218-.183,13.673-4.979,18.3a8.346,8.346,0,0,1-3.77,2.188,6.278,6.278,0,0,1-2.644.023c-3.669-.7-7.522-4.039-10.016-6.122a76.242,76.242,0,0,1-9.72-9.853c-7.852-9.468-13.381-19.179-16.265-32.7-1.048-4.914-1.46-16.234,3.057-20.885C27.821,37.7,43.242,41.387,51.5,43.46c3.674.923,9.31,6.331,10.791,9.723a51.016,51.016,0,0,1,3.957,18.91A203.137,203.137,0,0,1,66.216,92.858ZM287.938,64.7c-2.885,13.519-8.412,23.23-16.266,32.7a76.17,76.17,0,0,1-9.719,9.853c-2.493,2.083-6.346,5.426-10.016,6.122a6.278,6.278,0,0,1-2.644-.023,8.346,8.346,0,0,1-3.77-2.188c-4.8-4.627-4.612-12.082-4.979-18.3a202.851,202.851,0,0,1-.028-20.765,51.015,51.015,0,0,1,3.956-18.91c1.482-3.392,7.117-8.8,10.791-9.723,8.255-2.073,23.677-5.765,29.618.351C289.4,48.462,288.986,59.782,287.938,64.7Z"/><path class="b" d="M252.681,116.069c3.682-.782,6.811-3.188,9.662-5.519a81.494,81.494,0,0,0,8.518-7.973,87.291,87.291,0,0,0,12.7-17.59A69.546,69.546,0,0,0,290.782,64.7c.994-5.559,1.086-11.841-.718-17.245a13.549,13.549,0,0,0-4.938-7.06,16.968,16.968,0,0,0-8.008-2.585c-6.08-.677-12.4.563-18.306,1.911-2.693.615-5.411,1.137-7.786,2.622a27.98,27.98,0,0,0-7.327,6.8c-2.143,2.816-3.277,6.364-4.164,9.753a61.252,61.252,0,0,0-1.762,12.05,230.486,230.486,0,0,0,.153,25.471c.369,6.8,1.566,15.147,8.282,18.7a9.853,9.853,0,0,0,6.473.95,2.821,2.821,0,0,0,1.956-3.445,2.869,2.869,0,0,0-3.445-1.955c-2.753.44-4.929-2.529-5.926-4.7a23.39,23.39,0,0,1-1.651-8.095,222.61,222.61,0,0,1-.414-22.814,76.57,76.57,0,0,1,.942-11.083,35.887,35.887,0,0,1,2.958-9.823,18.68,18.68,0,0,1,4.857-5.6,16.012,16.012,0,0,1,2.966-1.987c.019-.009.878-.371.357-.177.239-.089.48-.162.726-.23.606-.167,1.223-.306,1.833-.455a68.727,68.727,0,0,1,15.771-2.456,17.188,17.188,0,0,1,7.014,1.033c.815.313-.441-.24.323.149.236.12.47.242.7.377s.442.274.655.424c-.467-.329.189.164.233.2a6.239,6.239,0,0,1,1.757,2.521,21.536,21.536,0,0,1,1.454,6.851,44.35,44.35,0,0,1-.2,7.315c-.087.863.09-.546-.034.273-.036.236-.073.471-.113.7-.1.573-.224,1.141-.352,1.709q-.6,2.691-1.394,5.337a64.292,64.292,0,0,1-3.392,8.948,78.366,78.366,0,0,1-11.727,17.684,77.116,77.116,0,0,1-8.81,8.694c-2.522,2.113-5.232,4.5-8.535,5.2a2.8,2.8,0,0,0,1.489,5.4Z"/><path class="b" d="M150.657,22.393q0,8.139-.015,16.279-.018,14.574-.037,29.148l-.045,33.641q-.019,14.878-.038,29.759-.011,8.753-.019,17.5v.89c0,3.6,5.6,3.61,5.6,0q0-7.718.015-15.435.018-14.358.037-28.714l.045-33.616q.019-15.072.038-30.143.011-9.149.019-18.3V22.393c0-3.6-5.6-3.61-5.6,0Z"/><path class="b" d="M55.568,110.669c-2.969-.63-5.465-2.643-7.751-4.541a80.415,80.415,0,0,1-7.806-7.346A81.985,81.985,0,0,1,28.583,83.157,68.313,68.313,0,0,1,21.71,64.81c-.127-.568-.252-1.136-.352-1.709-.04-.234-.077-.469-.113-.7-.124-.819.053.59-.034-.273-.117-1.157-.217-2.31-.253-3.473a31.009,31.009,0,0,1,.565-7.6c.52-2.376,1.163-4.214,2.7-5.613.044-.04.7-.533.233-.2.213-.15.431-.292.655-.424s.461-.257.7-.377c.764-.389-.492.164.323-.149a14.15,14.15,0,0,1,1.609-.5q.425-.106.853-.192c.1-.021,1.118-.19.74-.138,5.443-.741,10.8.283,16.049,1.435,1.181.259,2.359.536,3.534.823.528.129,1.056.258,1.583.393.246.062.488.127.729.2q.45.171.084.015c.175.079.349.162.52.25a20.488,20.488,0,0,1,5.983,4.944,19.767,19.767,0,0,1,3.6,7.407,49.653,49.653,0,0,1,1.866,10.438,207.9,207.9,0,0,1-.011,26.334,31.259,31.259,0,0,1-1.512,9.64c-.879,2.326-3.2,5.816-6.191,5.339a2.887,2.887,0,0,0-3.445,1.955,2.823,2.823,0,0,0,1.956,3.445,9.86,9.86,0,0,0,6.473-.95,13.329,13.329,0,0,0,4.312-3.9,20.558,20.558,0,0,0,3.506-9.681c.467-3.445.573-6.937.738-10.406.215-4.529.231-9.065.122-13.6-.2-8.336-.735-16.682-3.976-24.47a21.8,21.8,0,0,0-5.56-7.646,18.815,18.815,0,0,0-7.956-4.782,85.808,85.808,0,0,0-17.6-2.962c-5.734-.206-12.142.8-15.607,5.869-3.266,4.782-3.512,11.628-3.06,17.2a61.785,61.785,0,0,0,5.467,19.6,79.946,79.946,0,0,0,11.176,17.82,82.686,82.686,0,0,0,8.033,8.7,57.927,57.927,0,0,0,8.832,7.043,16.421,16.421,0,0,0,5.1,2.16,2.867,2.867,0,0,0,3.444-1.956A2.828,2.828,0,0,0,55.568,110.669Z"/><path class="b" d="M153.384,0c-4.4.03-8.859,1.143-13.1,2.218-5.483,1.39-10.9,3.056-16.269,4.822-11.159,3.668-22.063,8.044-33.2,11.783C85,20.774,79.28,22.906,73.208,23.893a117.855,117.855,0,0,1-16.883,1.42c-5.973.1-11.817-.888-17.775-1.07a112.8,112.8,0,0,0-11.744.3,33.542,33.542,0,0,0-10.362,1.988A25.554,25.554,0,0,0,3.268,38.392C.387,44.032-.2,50.841.052,57.083c.568,14.1,6.233,27.6,13.588,39.454,13.556,21.849,33.121,40.249,56.565,51a224.625,224.625,0,0,0,34.959,12.442,209.36,209.36,0,0,0,38.473,6.932,149.687,149.687,0,0,0,37.423-2.3,238.756,238.756,0,0,0,38.26-10.114c10.28-3.635,20.619-7.84,29.888-13.646A135.3,135.3,0,0,0,280.1,114.164c9.282-10.8,17.305-22.922,22.266-36.329a68.115,68.115,0,0,0,4.318-20.272c.3-6.274-.23-13.116-3.024-18.832a25.2,25.2,0,0,0-12.477-11.84,31.139,31.139,0,0,0-10.1-2.266c-3.91-.318-7.833-.483-11.755-.41-6.07.113-12.045,1.165-18.122,1.108a118.371,118.371,0,0,1-17.08-1.339c-6.11-.952-11.827-3.031-17.674-4.991q-9.957-3.337-19.767-7.058a274.839,274.839,0,0,0-30.166-9.769A56.3,56.3,0,0,0,153.384,0c-3.6-.024-3.608,5.576,0,5.6a27.287,27.287,0,0,1,5.37.579c2.362.43,4.7.978,7.025,1.576,5.383,1.385,10.7,3.041,15.968,4.8,10.985,3.665,21.732,7.982,32.711,11.668,5.686,1.908,11.292,4.016,17.225,5.007a128.155,128.155,0,0,0,17.168,1.645c2.543.078,5.093.089,7.633-.065,2.978-.181,5.927-.658,8.907-.839a103.572,103.572,0,0,1,11.754-.012,39.647,39.647,0,0,1,9.833,1.3,19.94,19.94,0,0,1,11.679,9.963c2.619,5.129,2.749,11.686,2.374,17.306-.9,13.425-6.87,26.18-14.1,37.318a137.144,137.144,0,0,1-26.53,30.117,119.305,119.305,0,0,1-28.233,17.461,220.01,220.01,0,0,1-34.3,11.781,193.086,193.086,0,0,1-37.229,6.284,147.066,147.066,0,0,1-35.634-2.692,242.1,242.1,0,0,1-36.751-9.961c-9.66-3.444-19.321-7.434-28.026-12.911a130.741,130.741,0,0,1-29.768-25.9C21.754,99.861,14.087,88.3,9.536,75.644A61.963,61.963,0,0,1,5.629,56.363c-.145-5.538.3-11.63,3.217-16.481a20.018,20.018,0,0,1,12.664-9.1,56.055,56.055,0,0,1,10.9-.941,98.273,98.273,0,0,1,11.24.293c2.763.237,5.494.657,8.268.749,2.539.084,5.082.039,7.619-.071a121.762,121.762,0,0,0,17.024-1.846c6.079-1.136,11.92-3.45,17.762-5.426,6.127-2.073,12.179-4.324,18.239-6.581a282.329,282.329,0,0,1,29.393-9.39c2.223-.561,4.461-1.077,6.719-1.477q.737-.13,1.475-.242c.077-.012.559-.079.092-.017q.4-.053.8-.1c.781-.082,1.563-.135,2.349-.141C156.986,5.575,156.994-.025,153.384,0Z"/></svg>