<?xml version="1.0" encoding="utf-8"?>
<!-- Uploaded to: SVG Repo, www.svgrepo.com, Generator: SVG Repo Mixer Tools -->
<svg width="800px" height="800px" viewBox="-5.61 0 336.368 336.368" xmlns="http://www.w3.org/2000/svg"><defs><style>.a{fill:#ffffff;}.b{fill:#bdbdbd;}.c{fill:#957f6e;}.d{fill:#211715;}.e{fill:#d9d9d9;}.f{fill:#a0a0a0;}.g{fill:#c6c6c6;}</style></defs><path class="a" d="M154.713,158.615c-15.079-.57-23.215-5.077-20.628-3.775.9,2.985,1.853,6.171,2.842,9.47,5.42,18.083,14.01,35.159,20.35,47.449,5.177-11.186,12.642-26.52,19.976-45.647,1.509-3.933,2.849-7.85,4.009-11.518l-.614.3s-7.75,3.78-22.82,3.78Q156.224,158.673,154.713,158.615Z"/><path class="a" d="M179.347,155.434c.866-.324,1.3-.537,1.3-.537l.611-.3c2.011-6.359,3.483-11.978,4.36-15.662-1.447-.559-4.1-1.592-4.3-1.665-4.532-1.636-3.754-4.712-4.6-8.044a60.164,60.164,0,0,1-9.677,2.477,75.5,75.5,0,0,1-9.75.78,75.781,75.781,0,0,1-9.77-.78,56,56,0,0,1-8.591-2.042l-.052.307c-.021.125-.042.249-.064.374-.507,2.892-.348,5.477-4.368,6.928-.266.1-2.138.712-2.912.976,0,0-.934.318-2.054.7.982,3.664,2.631,9.263,4.6,15.844,2.024.806,10.645,3.891,23.749,3.891C169.322,158.678,176.561,156.477,179.347,155.434Z"/><path class="b" d="M72.905,279.975c2.246-38.159,5.98-94.639,8.5-104.323.958-3.674,2.085-7.411,4.4-10.421a27.552,27.552,0,0,1,4.531-4.4c11.548-9.442,31.017-17.678,36.946-23.712a1.115,1.115,0,0,1,1.853.536c1.279,5,4.338,15.143,7.788,26.655,5.42,18.083,14.011,35.16,20.35,47.45,5.177-11.187,12.642-26.521,19.976-45.648a221.527,221.527,0,0,0,9.011-30.024c1.362,0,4.894,3.646,8.416,8.017,8.584,5.141,19.764,11.184,27.219,17.278a27.585,27.585,0,0,1,4.53,4.4c2.314,3.01,3.441,6.747,4.4,10.422,2.577,9.881,6.281,66.553,8.554,105.381Z"/><path class="a" d="M175.711,121.621c10.646-4.332,19.252-18.713,20.739-22.751.222-.672.672-1.936,1.074-3.438.539-.095.843-.141.843-.141a10.553,10.553,0,0,0,4.906-2.212,15.912,15.912,0,0,0,4.115-5.4,25.043,25.043,0,0,0,2.553-13.271,8.352,8.352,0,0,0-.875-3.361,5.914,5.914,0,0,0-4.249-2.825,6.258,6.258,0,0,0-5.007,1.465s3.588-34.714-42.916-34.714c-43.729,0-41.069,34.714-41.069,34.714a6.258,6.258,0,0,0-5.007-1.465,5.914,5.914,0,0,0-4.249,2.825,8.352,8.352,0,0,0-.875,3.361,25.043,25.043,0,0,0,2.553,13.271,15.912,15.912,0,0,0,4.115,5.4,10.553,10.553,0,0,0,4.906,2.212l1.6.243a42.572,42.572,0,0,0,8.114,15.841,36.875,36.875,0,0,0,11.9,9.711"/><path class="c" d="M206.413,42.069c-.158-.923-.32-1.778-.477-2.546-4.352-21.34-25.846-38.28-48.386-37.042-22.54-1.238-44.034,15.7-48.386,37.042-1.179,5.755-1.038,15.6.034,20.2l2.158,8.453a6.215,6.215,0,0,1,4.469,1.514c8.908-6.179,24.019-16.914,31.843-23.642-.643,3.994-2.93,10.787-.05,10.088,12.028-2.785,23.555-8.4,30.526-17.164,1.469,5.174,3.9,12.163,5.68,15.218,2.524,4.322,9.838,14.047,15.986,15.5a6.258,6.258,0,0,1,5.007-1.465,6.07,6.07,0,0,1,.781.171C208.73,61.139,207.675,49.424,206.413,42.069Z"/><path class="d" d="M136.561,129.332c-.168.984-.28,1.982-.49,2.959-.049.23-.106.459-.173.685-.077.258-.443,1-.026.161a6.834,6.834,0,0,1-.326.616c-.063.1-.135.2-.2.3.432-.659.261-.33.115-.167a6.057,6.057,0,0,1-.522.5c-.289.253.555-.394.067-.062q-.184.126-.378.238c-.137.08-.278.155-.42.226-.075.037-.151.073-.227.108q-.341.151.212-.086c-.189.052-.372.144-.559.208-.912.312-1.829.606-2.741.916a2.4,2.4,0,0,0,1.276,4.629,22.588,22.588,0,0,0,5.169-2.034,7.761,7.761,0,0,0,3.389-5.092c.19-.936.3-1.887.463-2.828a2.6,2.6,0,0,0-.242-1.849,2.4,2.4,0,0,0-4.387.573Z"/><path class="d" d="M174.636,130.982a28.366,28.366,0,0,0,.593,3.251,7.316,7.316,0,0,0,2.217,3.561c1.736,1.451,4.029,2.1,6.111,2.909.774.3,1.552.6,2.321.912a2.4,2.4,0,0,0,1.849-.242,2.4,2.4,0,0,0,.861-3.284,2.82,2.82,0,0,0-1.434-1.1c-1.464-.6-2.945-1.157-4.42-1.729-.238-.092-.476-.185-.715-.276l-.062-.023a1.8,1.8,0,0,0-.3-.114s.453.205.22.093a9.517,9.517,0,0,1-.922-.484c-.138-.087-.269-.2-.411-.282-.011-.006.4.358.254.191-.036-.041-.09-.076-.13-.113-.11-.1-.216-.2-.316-.311-.036-.04-.07-.082-.106-.121-.307-.326.164.189.147.2a3.756,3.756,0,0,1-.372-.606c-.054-.1-.228-.5-.048-.077s0-.016-.038-.134a23.3,23.3,0,0,1-.668-3.491,2.411,2.411,0,0,0-2.953-1.676,2.468,2.468,0,0,0-1.676,2.952Z"/><path class="d" d="M133.44,157.108a63.963,63.963,0,0,0,18.652,3.765,72.883,72.883,0,0,0,25.422-2.312,28.152,28.152,0,0,0,4.345-1.595,2.423,2.423,0,0,0,.861-3.284,2.452,2.452,0,0,0-3.284-.861c-.055.027-.112.052-.168.077-.551.247.649-.245-.108.044s-1.5.553-2.262.791a53.475,53.475,0,0,1-8.893,1.918,75.131,75.131,0,0,1-26.295-1.094,49.183,49.183,0,0,1-6.994-2.078,2.419,2.419,0,0,0-2.953,1.676,2.457,2.457,0,0,0,1.677,2.953Z"/><path class="d" d="M218.829,160.816c-.057.463.065-.405-.01.081-.035.226-.068.452-.106.678-.081.5-.173.99-.269,1.483-.207,1.056-.44,2.106-.684,3.154-.595,2.553-1.26,5.09-1.941,7.622-1.5,5.593-3.1,11.16-4.575,16.761a94.876,94.876,0,0,0-2.633,12.321c-.227,1.826-.465,3.652-.7,5.477q-1.539,11.963-3.052,23.928c-1.019,8.1-2.045,16.2-2.939,24.315a58.963,58.963,0,0,0-.558,5.96,22.72,22.72,0,0,0,.47,3.656c.5,3.113,1.035,6.22,1.57,9.326q.524,3.039,1.053,6.079a2.419,2.419,0,0,0,2.952,1.676,2.455,2.455,0,0,0,1.677-2.952q-1-5.731-1.974-11.466c-.221-1.312-.44-2.625-.649-3.939-.074-.466-.148-.933-.217-1.4l-.072-.5c.058.406.026.377.008.022a30.317,30.317,0,0,1,.346-4.658c.807-7.68,1.785-15.344,2.743-23.006q1.557-12.454,3.167-24.9.446-3.462.888-6.925c.03-.237.061-.474.089-.711.027-.219.058-.441,0-.035q.1-.689.22-1.374c.391-2.207.914-4.391,1.456-6.565,2.592-10.383,6.13-20.6,8.088-31.137.183-.985.331-1.976.452-2.97a2.413,2.413,0,0,0-2.4-2.4,2.458,2.458,0,0,0-2.4,2.4Z"/><path class="d" d="M183.921,139.794a109.312,109.312,0,0,0,13.288,8.593c5.516,3.228,11.074,6.4,16.405,9.931,5.072,3.36,10.736,7.032,13.132,12.869a43.157,43.157,0,0,1,2.594,10.107c.051.343.1.687.148,1.03.025.181.05.361.074.542-.087-.645,0,0,.014.113q.158,1.216.3,2.436c.234,1.964.446,3.932.647,5.9.475,4.652.889,9.311,1.28,13.971.987,11.765,1.824,23.544,2.615,35.324q1.377,20.482,2.561,40.976c.179,3.07,4.981,3.091,4.8,0-1.427-24.355-2.927-48.713-4.906-73.031-.727-8.937-1.458-17.892-2.66-26.78a56.881,56.881,0,0,0-1.514-7.843,27.7,27.7,0,0,0-4.576-9.846,38.466,38.466,0,0,0-7.5-6.711,192.6,192.6,0,0,0-18.017-11.4c-2.949-1.722-5.906-3.431-8.814-5.22a71.6,71.6,0,0,1-6.475-4.358,2.474,2.474,0,0,0-3.394,0,2.418,2.418,0,0,0,0,3.394Z"/><path class="d" d="M87.4,161.281A98.128,98.128,0,0,0,90.453,175c1.512,5.576,3.133,11.121,4.624,16.7.64,2.4,1.261,4.8,1.8,7.225.222,1.012.43,2.027.6,3.05.033.2.062.4.094.594.079.488,0-.011.015.1s.025.2.038.308c.226,1.861.474,3.719.713,5.577q1.529,11.883,3.032,23.767c1.011,8.044,2.029,16.088,2.92,24.146.221,2,.535,4.036.574,6.051,0,.212-.014.415-.021.626,0,.095-.062.514-.009.1s-.028.188-.047.31c-.068.459-.139.916-.211,1.374-.484,3.053-1.012,6.1-1.536,9.147q-.514,2.986-1.034,5.973A2.471,2.471,0,0,0,103.678,283a2.421,2.421,0,0,0,2.952-1.677c1.035-5.963,2.277-11.944,2.982-17.959a21.539,21.539,0,0,0-.284-4.637c-.791-7.6-1.761-15.192-2.709-22.777q-1.559-12.483-3.172-24.958a144.3,144.3,0,0,0-2.587-16.084c-2.577-10.517-6.2-20.813-8.29-31.446q-.127-.645-.238-1.294c-.039-.231-.074-.464-.111-.7-.1-.585.024.219-.026-.191a2.475,2.475,0,0,0-2.4-2.4,2.413,2.413,0,0,0-2.4,2.4Z"/><path class="d" d="M126.609,134.342a25.621,25.621,0,0,1-4.465,3.5c-2.256,1.516-4.585,2.921-6.922,4.307-5.434,3.223-10.943,6.322-16.283,9.7-2.621,1.658-5.206,3.379-7.685,5.244a36.483,36.483,0,0,0-7.643,7.093c-2.847,3.828-4.264,8.815-5.055,13.484-1.348,7.954-1.964,16.059-2.66,24.09-1.037,11.961-1.9,23.937-2.719,35.915q-1.3,19-2.418,38.018-.127,2.139-.254,4.28c-.182,3.085,4.619,3.075,4.8,0q1.089-18.485,2.312-36.959c.812-12.163,1.67-24.324,2.674-36.472.409-4.948.842-9.9,1.336-14.835q.307-3.081.659-6.158.151-1.3.315-2.6.074-.572.149-1.143c-.081.607.066-.466.1-.691a47.034,47.034,0,0,1,2.417-9.889c2.279-6.086,7.9-9.828,13.106-13.292,5.255-3.5,10.739-6.639,16.186-9.823a115.184,115.184,0,0,0,13.46-8.631A22.232,22.232,0,0,0,130,137.736c2.183-2.191-1.21-5.586-3.395-3.394Z"/><path class="d" d="M152.831,234.564a7.032,7.032,0,0,0-4.8-6.887,7.47,7.47,0,0,0-8.736,3.073,8.138,8.138,0,0,0-.008,7.954,7.614,7.614,0,0,0,8.571,3.131c3.212-.938,4.947-4.063,4.969-7.271a2.4,2.4,0,1,0-4.8,0c0,.179-.007.358-.022.536-.008.093-.026.187-.029.28.031-.792.074-.475.026-.257-.042.194-.081.388-.135.579-.073.256-.44.96-.034.192-.1.184-.178.373-.286.551-.054.09-.113.175-.17.263-.23.357.407-.466.118-.152-.121.131-.238.263-.371.383-.185.167-.4.192.146-.1-.13.07-.249.169-.379.242-.1.056-.214.1-.311.158.536-.336.358-.144.122-.068s-.514.1-.761.176c.617-.187.316-.042.073-.031-.153.008-.306.009-.459.006s-.306-.018-.459-.025c-.448-.02.591.12-.069-.018a6.866,6.866,0,0,1-.756-.218c-.448-.147.523.274.122.047-.068-.039-.14-.072-.209-.111-.1-.057-.2-.117-.3-.182-.209-.141-.289-.351.127.106-.168-.185-.366-.346-.535-.532-.287-.316.349.509.12.153-.056-.087-.115-.171-.168-.259-.105-.175-.186-.358-.279-.539.394.767.078.17.009-.072-.06-.211-.082-.432-.139-.643.214.792.047.382.036.1a6.359,6.359,0,0,1,.012-.662c.008-.119.029-.241.032-.361-.018.729-.055.38-.015.165a6.12,6.12,0,0,1,.2-.791c.036-.109.084-.214.119-.323-.221.685-.147.345-.052.161.1-.2.246-.378.353-.574-.3.553-.257.319-.094.137.075-.084.154-.165.236-.242.055-.052.114-.1.169-.152.289-.266-.536.36-.019.034.1-.063.2-.122.31-.177.243-.126.427-.062-.124.04.251-.046.5-.169.752-.225s.487.042-.083-.007a3.532,3.532,0,0,0,.445-.038c.159-.007.317-.006.476,0,.1,0,.206.011.309.02q.4.04-.2-.034c.281.114.631.123.924.223.259.087.366.274-.108-.057.095.066.218.106.32.164s.2.123.295.184c.342.211-.487-.429-.046-.027.081.074.159.151.233.231.4.433-.25-.4-.036-.068a7.371,7.371,0,0,1,.376.642c.2.382-.212-.59-.076-.181.044.134.092.267.131.405.072.259.136,1.1.078.2.016.25.042.495.044.746a2.4,2.4,0,0,0,4.8,0Z"/><path class="d" d="M322.837,279.372q-10.465.021-20.931-.023-15.058-.043-30.117-.116-18.409-.084-36.821-.187-20.578-.113-41.157-.237-21.3-.128-42.592-.263-20.823-.132-41.645-.269l-38.3-.254-32.082-.215q-11.781-.079-23.563-.156-6.144-.041-12.289-.074c-.34,0-.679,0-1.019,0-3.088,0-3.093,4.8,0,4.8s6.159.031,9.238.051q10.5.066,20.993.137l30.214.2,37.053.246q20.514.137,41.026.268,21.3.137,42.6.266,20.894.127,41.788.246,19.036.107,38.074.2,16.056.078,32.112.136,11.661.039,23.323.047,2.05,0,4.1,0c3.088-.006,3.094-4.806,0-4.8Z"/><path class="e" d="M108.829,290.721a25.934,25.934,0,0,0-10.113,15.817c-.542,2.936-.368,6.059-.865,8.9a20.6,20.6,0,0,1-3.19,7.813,39.976,39.976,0,0,1-8.836,9.045,2.413,2.413,0,0,0,0,3.394,2.458,2.458,0,0,0,3.394,0c5.491-4.337,10.6-9.712,12.681-16.554.9-2.945.858-5.927,1.128-8.957a22.107,22.107,0,0,1,2.067-7.891,24.113,24.113,0,0,1,7.128-8.168,2.414,2.414,0,0,0,0-3.395,2.464,2.464,0,0,0-3.394,0Z"/><path class="e" d="M51.83,291.207c-3.76,6.84-9.054,13.169-10.113,21.146-.06.449-.1.9-.153,1.348.055-.446-.049.262-.075.388a12.217,12.217,0,0,1-.479,1.689,6.538,6.538,0,0,1-.562,1.194,14.784,14.784,0,0,1-1.024,1.617,22.238,22.238,0,0,1-5.953,5.188,48.722,48.722,0,0,1-11.888,5.1c-2.953.881-1.695,5.515,1.276,4.628,6.916-2.065,14.337-5.112,19.237-10.643a16.813,16.813,0,0,0,3.948-7.158c.368-1.565.4-3.176.8-4.74a25.724,25.724,0,0,1,2.068-5.357c2.1-4.137,4.834-7.914,7.068-11.978,1.489-2.709-2.654-5.133-4.145-2.423Z"/><path class="e" d="M205.555,294.116c4.875,3.767,8.325,8.428,9.117,14.651.39,3.061.113,6.128.814,9.158a24.123,24.123,0,0,0,3.836,8.338,45.712,45.712,0,0,0,9.238,9.423,2.476,2.476,0,0,0,3.394,0,2.417,2.417,0,0,0,0-3.394c-5.134-4.054-10.311-9.037-11.839-15.643-.656-2.836-.364-5.9-.77-8.855a24.5,24.5,0,0,0-2.754-8.555,28.273,28.273,0,0,0-7.641-8.518,2.483,2.483,0,0,0-3.395,0,2.417,2.417,0,0,0,0,3.395Z"/><path class="e" d="M261.941,293.63c1.976,3.592,4.33,6.959,6.31,10.548a30.812,30.812,0,0,1,2.384,5.265A34.213,34.213,0,0,1,271.7,314.8c.947,5.892,5.754,10.348,10.619,13.307a54.4,54.4,0,0,0,12.741,5.4c2.966.886,4.233-3.745,1.276-4.628-6.312-1.885-13-4.595-17.389-9.721a11.425,11.425,0,0,1-2.606-5.546c.036.26-.007-.117-.009-.139-.027-.267-.054-.533-.087-.8-.067-.543-.143-1.086-.242-1.625a21.875,21.875,0,0,0-.738-2.88,35.753,35.753,0,0,0-2.293-5.34c-2.079-4-4.714-7.673-6.884-11.62-1.489-2.707-5.635-.288-4.145,2.423Z"/><path class="e" d="M64.306,295.112c.288,4.517,0,9.059,0,13.581a2.4,2.4,0,0,0,4.8,0c0-4.522.288-9.064,0-13.581a2.4,2.4,0,1,0-4.8,0Z"/><path class="e" d="M121.138,295.112c.287,4.517,0,9.059,0,13.581a2.4,2.4,0,0,0,4.8,0c0-4.522.287-9.064,0-13.581a2.4,2.4,0,1,0-4.8,0Z"/><path class="e" d="M191.723,295.112c-.288,4.517,0,9.059,0,13.581a2.4,2.4,0,0,0,4.8,0c0-4.522-.288-9.064,0-13.581a2.413,2.413,0,0,0-2.4-2.4,2.455,2.455,0,0,0-2.4,2.4Z"/><path class="e" d="M246.346,295.112c-.287,4.517,0,9.059,0,13.581a2.4,2.4,0,0,0,4.8,0c0-4.522-.287-9.064,0-13.581a2.413,2.413,0,0,0-2.4-2.4,2.457,2.457,0,0,0-2.4,2.4Z"/><path class="d" d="M159.347,212.969c9.481-20.462,19.361-40.912,25.713-62.616,1.317-4.5,2.544-9.039,3.519-13.627l-2.315,1.762c.238.011-.737-.13-.236,0-.307-.076-.487-.287-.135-.038.122.086.26.159.387.238.082.051.157.113.238.166.358.235-.279-.232-.042-.034a29.6,29.6,0,0,1,2.235,2.088,76.344,76.344,0,0,1,5.434,6.358c1.666,2.149,3.36,4.51,4.851,6.868.588.93,1.159,1.875,1.662,2.855.095.186.185.374.278.561a1.577,1.577,0,0,0,.138.3,2.3,2.3,0,0,1,.037-1.011c.223-1.362-.016-.529-.388-.015-.25.345-.056.078,0,.009-.123.159-.249.315-.375.472q-.387.48-.784.952-.858,1.023-1.749,2.017a50.579,50.579,0,0,1-3.671,3.781,2.42,2.42,0,0,0,0,3.394c1.195,1.088,2.288,2.3,3.373,3.491.582.641,1.159,1.287,1.717,1.949.125.148.815.881.385.451.19.191.484.881.1-.041v-1.276c.126-.775.324-.591.052-.261-.2.239-.365.508-.55.757-.235.316-.474.631-.714.945q-.265.348-.533.695l-.195.252c.422-.546-.066.085-.146.188q-3.257,4.2-6.573,8.348-9.621,12.112-19.4,24.1-5.515,6.772-11.092,13.5a2.467,2.467,0,0,0,0,3.394,2.42,2.42,0,0,0,3.394,0q12.324-14.829,24.348-29.9,4.992-6.228,9.937-12.491c1.871-2.378,3.832-4.723,5.56-7.209,1.156-1.664.238-3.114-.894-4.491a55.48,55.48,0,0,0-5.38-5.788v3.394a58.55,58.55,0,0,0,6.713-7.4c.859-1.1,1.809-2.193,1.361-3.7a15.528,15.528,0,0,0-1.608-3.23,84.648,84.648,0,0,0-11.568-15.265c-1.6-1.682-3.674-4.053-6.171-4.166a2.418,2.418,0,0,0-2.314,1.762c-4.533,21.334-13.231,41.569-22.321,61.3-2.123,4.608-4.293,9.195-6.426,13.8a2.47,2.47,0,0,0,.861,3.284,2.42,2.42,0,0,0,3.283-.861Z"/><path class="d" d="M155.5,281.514c1.131-4.028,2.342-8.036,3.328-12.1.656-2.7,1.091-5.455,1.633-8.183,1.177-5.915,2.467-11.807,3.687-17.713.876-4.243,2.042-8.643,2.275-12.986a15.7,15.7,0,0,0-.444-3.71,44.1,44.1,0,0,0-1.627-6.418,32.775,32.775,0,0,0-1.892-3.828q-.974-1.9-1.956-3.791c-7.112-13.757-14.008-27.657-19.07-42.322-2.751-7.971-5.019-16.129-7.389-24.22-.824-2.815-1.647-5.632-2.394-8.468-.5-1.9-1.677-3.457-3.843-3.336-1.626.091-2.712,1.429-3.715,2.561a88.127,88.127,0,0,0-10.631,15.184c-1.065,1.894-3.008,4.568-1.788,6.717a38.769,38.769,0,0,0,4.9,6.135c.907,1.024,1.837,2.032,2.833,2.972v-3.394a40.672,40.672,0,0,0-3.583,4.1c-.946,1.181-2.395,2.6-2.8,4.118-.5,1.855,1.595,4.042,2.551,5.428,5.331,7.726,10.849,15.325,16.363,22.92q6.131,8.443,12.338,16.831a2.474,2.474,0,0,0,3.284.861,2.417,2.417,0,0,0,.861-3.284q-10.138-13.689-20.062-27.535c-3.662-5.109-7.161-10.336-10.8-15.455-.007-.01-.133-.241-.132-.242.265-.107.279,2.088.148,1.936.089.1-.167.268.113-.124.48-.669.872-1.228,1.265-1.725a42.167,42.167,0,0,1,3.85-4.431,2.426,2.426,0,0,0,0-3.394,60.353,60.353,0,0,1-5.5-6.125c-.525-.654-.818-1.285-1.484-2.011-.021-.023-.05-.124-.079-.137.2.088.2.9.207.96l.026.519.066-.168c.012.012-.244.542-.013.036q.33-.725.692-1.435a83.539,83.539,0,0,1,9.2-14c.773-.961,1.568-1.906,2.422-2.795.135-.14.4-.319.485-.491l-2-.675.053.208a1.932,1.932,0,0,0,.085.324q.219.839.449,1.674c.795,2.9,1.642,5.793,2.493,8.68,2.285,7.755,4.459,15.573,7.125,23.207,4.92,14.087,11.44,27.533,18.272,40.774,1.261,2.443,2.531,4.882,3.777,7.333a20.929,20.929,0,0,1,1.53,4.377,24.729,24.729,0,0,1,1.025,5.1,10.723,10.723,0,0,1-.1,1.529c-.032.308-.049.353,0-.009-.025.173-.05.346-.076.519-.068.453-.142.906-.218,1.359-.387,2.278-.839,4.545-1.3,6.81-1.14,5.617-2.362,11.218-3.513,16.833-1.19,5.8-2.249,11.557-3.861,17.261-.563,1.99-1.137,3.977-1.7,5.969-.837,2.979,3.793,4.25,4.628,1.276Z"/><path class="c" d="M123.417,128.507c5.873-.893,10.859-3.734,13.073-7.054l.769-1.235a38.175,38.175,0,0,1-10.278-8.843,42.572,42.572,0,0,1-8.114-15.841l-1.6-.243a10.553,10.553,0,0,1-4.906-2.212,12.862,12.862,0,0,1-1.7-1.675,20.858,20.858,0,0,0-2.109,6.972,34.174,34.174,0,0,0-.236,4.647q.009.474.035.95c.184,3.389.976,6.842,1.143,10.218.171,3.679-.787,7.3-4.3,8.491-.138.047-.166.5-.162.61a1.611,1.611,0,0,0,.281.787,5.436,5.436,0,0,0,1.8,1.577A24.96,24.96,0,0,0,123.417,128.507Z"/><path class="d" d="M111.489,59.265c-1.167-5.174-1-11.221-.4-16.61A38.559,38.559,0,0,1,116.4,27.477a47.061,47.061,0,0,1,26.26-20.716,42.213,42.213,0,0,1,8.423-1.745,89.9,89.9,0,0,1,8.992-.2A43.149,43.149,0,0,1,176.53,8.236,47.015,47.015,0,0,1,200.81,31.49c2.441,5.275,3.479,11.1,4.056,16.851.636,6.345.943,13.334-1.552,19.342a2.416,2.416,0,0,0,1.677,2.953,2.461,2.461,0,0,0,2.952-1.677c2.372-5.714,2.361-12.4,1.911-18.47a66.269,66.269,0,0,0-3.146-17.141A50.9,50.9,0,0,0,182.476,5.771a50.01,50.01,0,0,0-18.1-5.519,86.234,86.234,0,0,0-9.347-.234,47.307,47.307,0,0,0-9.511,1.041A51.931,51.931,0,0,0,114.66,21.4,45.734,45.734,0,0,0,107,38.2a57.885,57.885,0,0,0-.74,18.432,34.552,34.552,0,0,0,.605,3.907c.679,3.012,5.308,1.737,4.629-1.276Z"/><path class="d" d="M108.579,90.194a28.136,28.136,0,0,0-2.481,15.615c.3,2.854.9,5.687,1,8.561.06,1.675-.039,3.671-1.152,5.022-.609.738-1.486.85-2.2,1.4a3.343,3.343,0,0,0-.694,4.12c1.144,2.294,3.859,3.493,6.117,4.409a28.373,28.373,0,0,0,15.742,1.355c5.222-.977,10.578-3.543,13.658-8.011a2.423,2.423,0,0,0-.861-3.284,2.448,2.448,0,0,0-3.283.861c-2.632,3.817-8.183,5.657-12.627,6.059a24.562,24.562,0,0,1-8.408-.633,18.973,18.973,0,0,1-3.377-1.177c-.526-.25-1.04-.523-1.54-.823a7.206,7.206,0,0,1-.65-.4l-.3-.27q-.489-.582-.25.889l-1.434,1.1c6.123-2.256,6.443-8.706,5.716-14.284-.794-6.081-1.695-12.376,1.173-18.092,1.382-2.754-2.757-5.187-4.144-2.423Z"/><path class="d" d="M201.507,71.385a3.732,3.732,0,0,1,5.487.873,8.535,8.535,0,0,1,.635,3.906,21.627,21.627,0,0,1-.363,4.392c-1,5.218-3.741,11.393-9.537,12.42a2.422,2.422,0,0,0-1.676,2.953,2.454,2.454,0,0,0,2.952,1.676c8.451-1.5,12.513-10.943,13.3-18.588.4-3.865.278-8.66-2.99-11.313a8.713,8.713,0,0,0-11.2.286,2.42,2.42,0,0,0,0,3.4,2.453,2.453,0,0,0,3.394,0Z"/><path class="d" d="M117.522,67.99a8.716,8.716,0,0,0-11.2-.286c-3.268,2.653-3.387,7.449-2.99,11.313.783,7.645,4.845,17.089,13.3,18.588a2.469,2.469,0,0,0,2.952-1.676,2.421,2.421,0,0,0-1.676-2.953c-5.8-1.027-8.532-7.2-9.537-12.42a21.461,21.461,0,0,1-.364-4.172,8.833,8.833,0,0,1,.636-4.126,3.733,3.733,0,0,1,5.487-.873,2.466,2.466,0,0,0,3.394,0,2.421,2.421,0,0,0,0-3.4Z"/><path class="a" d="M157.009,132.486a78.242,78.242,0,0,1-9.487-.77,52.562,52.562,0,0,1-13.881-3.941c-8.137-4.047-17.542-7.5-20.392-16.818a123.07,123.07,0,0,1-3.444-18c-.588-4.675-1.222-14.8-2.111-21.888-.937-7.467-.291-13.695-.212-23.986,6.108-2.978,14.576-4.8,20.792-5.591a219.162,219.162,0,0,1,57.183,0c6.5.83,15.466,2.782,21.625,6.008.045,4.958.218,8.968.271,12.645a76.249,76.249,0,0,1-.487,10.924c-.889,7.085-1.523,17.213-2.111,21.888a123.072,123.072,0,0,1-3.445,18c-2.85,9.316-12.254,12.771-20.391,16.818a52.558,52.558,0,0,1-13.882,3.941,78.228,78.228,0,0,1-9.486.77"/><path class="f" d="M157.491,49.542A216.193,216.193,0,0,0,128.9,51.414c-7.154.914-17.292,3.47-23.391,7.3a77.784,77.784,0,0,1,.114-11.922c.151-1.468.1-3.7,1.185-4.687a14.8,14.8,0,0,1,3.988-2.131,74.741,74.741,0,0,1,18.1-4.406,219.17,219.17,0,0,1,57.184,0,74.741,74.741,0,0,1,18.1,4.406c1.19.474,3.032.974,3.988,1.848,1.084.991,1.034,3.219,1.185,4.686a77.8,77.8,0,0,1,.115,11.923c-6.1-3.834-16.238-6.106-23.392-7.02A216.2,216.2,0,0,0,157.491,49.542Z"/><path class="b" d="M109.854,90.392c-.11-.151-.217-.3-.321-.46.093.955.184,1.809.275,2.533a124.361,124.361,0,0,0,3.44,18.22c2.493,8.258,9.937,12.292,17.264,15.629,3.237-1.593,5.666-3.794,6.682-6.135a38.013,38.013,0,0,1-10.213-8.8,42.573,42.573,0,0,1-8.112-15.831l-1.6-.249a10.635,10.635,0,0,1-4.91-2.22A13.65,13.65,0,0,1,109.854,90.392Z"/><path class="g" d="M199.006,97.609a12.134,12.134,0,0,0,4.309-1.642,14.719,14.719,0,0,0,2.019-1.5c.861-.755,1.934-1.733,1.934-2.944a2.4,2.4,0,1,0-4.8,0v.01l.7-1.7a12.675,12.675,0,0,1-1.677,1.607l.486-.375a11.678,11.678,0,0,1-2.572,1.511l.573-.242a10.191,10.191,0,0,1-2.251.642,2.4,2.4,0,0,0-1.435,1.1,2.453,2.453,0,0,0-.242,1.849,2.426,2.426,0,0,0,1.1,1.434,2.76,2.76,0,0,0,1.85.242Z"/><path class="b" d="M195.9,90.632a20.935,20.935,0,0,1-1,5.257c-.187.621-.39,1.236-.6,1.85-.068.2-.142.4-.207.6-.149.462.052-.1.016-.023a43.377,43.377,0,0,1-2.793,5.115,49.555,49.555,0,0,1-10.935,12.637,20.793,20.793,0,0,1-8.122,4.123c-3.008.7-1.735,5.327,1.276,4.628,6.294-1.46,11.582-5.94,15.754-10.684a54.168,54.168,0,0,0,8.843-13.123A28.3,28.3,0,0,0,200.7,90.632c.112-3.09-4.688-3.085-4.8,0Z"/><path class="b" d="M107.455,91.136a16.94,16.94,0,0,0,4.151,4.358,12.143,12.143,0,0,0,5.024,2.115,2.606,2.606,0,0,0,1.849-.242,2.4,2.4,0,0,0,.861-3.283,2.329,2.329,0,0,0-1.434-1.1,10.254,10.254,0,0,1-2.252-.642l.573.242a11.728,11.728,0,0,1-2.558-1.5l.486.376a13.438,13.438,0,0,1-2.312-2.37l.375.486c-.214-.281-.419-.567-.618-.859a2.557,2.557,0,0,0-1.434-1.1,2.4,2.4,0,0,0-2.711,3.525Z"/><path class="b" d="M115.205,90.168c2.3,13.248,9.5,26.217,21.761,32.632a30.044,30.044,0,0,0,10.895,3.266,2.415,2.415,0,0,0,2.4-2.4,2.455,2.455,0,0,0-2.4-2.4c-7.782-.819-14.309-5.737-19.183-11.588-4.919-5.905-7.543-13.3-8.844-20.786a2.419,2.419,0,0,0-2.952-1.676,2.455,2.455,0,0,0-1.677,2.952Z"/><path class="b" d="M162.284,51.066a70.494,70.494,0,0,1-14.666,5.069c-2.08.51-1.46-2.91-.71-6.35,3.42-.18,6.97-.27,10.58-.24,2.55-.02,5.07.02,7.54.11Q163.683,50.393,162.284,51.066Z"/><path class="b" d="M107.283,65.375c-.121-2.485-.112-4.963-.055-7.65.47-.25.96-.5,1.47-.74a72.926,72.926,0,0,1,20.2-5.57c4.12-.53,8.83-1.03,13.892-1.38-8.2,6.468-19.662,14.589-26.962,19.65a6.258,6.258,0,0,0-5.01-1.46,6.087,6.087,0,0,0-3.18,1.51C107.465,68.251,107.352,66.812,107.283,65.375Z"/><path class="b" d="M207.26,65.8c.084-1.562.114-3.115.108-4.711,0-.61,0-1.22-.01-1.84-.01-.66-.03-1.33-.03-2.02-6.15-3.11-14.88-5-21.24-5.81-1.22-.16-2.5-.31-3.819-.46a26.5,26.5,0,0,0,1.559,3.23c2.52,4.32,9.83,14.05,15.98,15.5a6.258,6.258,0,0,1,5.01-1.46,6.17,6.17,0,0,1,2.19.78C207.121,67.921,207.2,66.856,207.26,65.8Z"/><path class="b" d="M180.2,52.166a45.112,45.112,0,0,0,9.89,13.919,24.434,24.434,0,0,0,6.868,5.107,12.053,12.053,0,0,0,1.967.744c1.245.317,1.835-.1,2.852-.743a3.868,3.868,0,0,1,4.024-.116c2.71,1.486,5.135-2.657,2.423-4.144a8.814,8.814,0,0,0-10.108,1.055l2.335-.617c-3.681-.932-6.928-4.429-9.446-7.351a39.562,39.562,0,0,1-6.66-10.276,2.414,2.414,0,0,0-3.284-.861,2.464,2.464,0,0,0-.861,3.283Z"/><path class="b" d="M144.593,49.147c-.471,2.176-1.249,4.815-.548,7.019a3.317,3.317,0,0,0,2.764,2.372,11.2,11.2,0,0,0,4.01-.726,69.675,69.675,0,0,0,15.41-6.085l-1.211.328h.01c3.088,0,3.093-4.8,0-4.8-1.171,0-2.461,1-3.5,1.512-.967.477-1.947.931-2.94,1.353a65.845,65.845,0,0,1-6.352,2.289q-1.658.51-3.336.942c-.532.137-1.072.251-1.6.4-.662.179.062.025.328.1.311.085.988.818.9.67-.145-.23.219.49.063.063.169.462.018.12.014-.136a9.332,9.332,0,0,1,.074-1.193c-.036.31.035-.224.049-.311q.06-.358.127-.716c.113-.6.241-1.2.371-1.8a2.455,2.455,0,0,0-1.676-2.952,2.424,2.424,0,0,0-2.953,1.676Z"/><path class="b" d="M109.335,71.432a3.813,3.813,0,0,1,4.8-.05,2.463,2.463,0,0,0,2.908.375c9.3-6.451,18.55-13.018,27.446-20.025a2.414,2.414,0,0,0,0-3.394,2.46,2.46,0,0,0-3.394,0c-8.573,6.753-17.509,13.058-26.475,19.275l2.909.375a8.752,8.752,0,0,0-11.584.05,2.421,2.421,0,0,0,0,3.394,2.449,2.449,0,0,0,3.394,0Z"/><path class="d" d="M157.491,47.142a208.1,208.1,0,0,0-23.716,1.295,96.791,96.791,0,0,0-19.309,3.744A46.025,46.025,0,0,0,104.3,56.645l3.612,2.072a96.129,96.129,0,0,1,.233-13.395,3.212,3.212,0,0,1,.363-1.531,6.185,6.185,0,0,1,1.927-1.07,43.579,43.579,0,0,1,5.845-2.111c8.236-2.478,16.919-3.311,25.464-3.95a211.091,211.091,0,0,1,28.063-.23c8.516.5,17.215,1.215,25.518,3.258a63.718,63.718,0,0,1,7.361,2.267c1.06.4,3.635.884,3.977,2a12.51,12.51,0,0,1,.3,2.556c.114,1.269.21,2.536.251,3.81.088,2.705,0,5.411-.136,8.113l3.611-2.073c-5.546-3.43-12.173-5.175-18.522-6.389a170.189,170.189,0,0,0-20.514-2.382c-4.714-.318-9.436-.476-14.16-.448-3.088.018-3.1,4.818,0,4.8a209.237,209.237,0,0,1,28.593,1.872,84.433,84.433,0,0,1,11.453,2.329,41.017,41.017,0,0,1,10.727,4.363,2.425,2.425,0,0,0,3.612-2.072,81.182,81.182,0,0,0-.331-14.271,6.087,6.087,0,0,0-3.247-5.121,47.274,47.274,0,0,0-6.093-2.347c-8.856-3.031-18.335-3.981-27.618-4.731a211.852,211.852,0,0,0-30.566-.263c-9.314.6-18.886,1.416-27.9,3.954a58.386,58.386,0,0,0-7.448,2.625c-2.179.946-4.2,2.122-4.937,4.519a30.1,30.1,0,0,0-.75,7.329c-.114,2.863-.022,5.729.12,8.589a2.424,2.424,0,0,0,3.611,2.073c6.525-4.041,14.645-5.963,22.18-6.976a206.045,206.045,0,0,1,28.591-1.872C160.58,51.96,160.583,47.16,157.491,47.142Z"/><path class="d" d="M204.918,57.225a96.651,96.651,0,0,1-.341,12.141c-.376,3.451-.757,6.9-1.059,10.354-.546,6.251-1.011,12.486-2.019,18.683-1,6.173-1.795,13.279-6.221,18.059-4.034,4.357-9.715,6.868-15.151,9A64.725,64.725,0,0,1,160.133,130a57.711,57.711,0,0,1-20.3-2.569,70.394,70.394,0,0,1-8.734-3.477,55.156,55.156,0,0,1-8.04-4.373,19.842,19.842,0,0,1-5.96-6.069c-1.641-2.747-2.283-5.974-2.932-9.072a155.5,155.5,0,0,1-2.614-18.716c-.3-3.528-.585-7.058-.93-10.583-.361-3.689-.881-7.355-1-11.064-.064-2.118-.043-4.236,0-6.354.059-3.09-4.741-3.09-4.8,0a92.884,92.884,0,0,0,.512,12.929c.435,3.611.75,7.235,1.058,10.858.57,6.7,1.184,13.357,2.338,19.987a68.059,68.059,0,0,0,2.423,10.522,21.557,21.557,0,0,0,5.437,8.47c4.717,4.556,11.036,7.313,17.012,9.8a62.991,62.991,0,0,0,43.111,1.456c6.18-1.991,12.64-4.491,17.9-8.365a25.5,25.5,0,0,0,6.89-7.274,31.621,31.621,0,0,0,3.379-9.8,160.7,160.7,0,0,0,2.884-20.215c.313-3.649.606-7.3.964-10.947.383-3.908.922-7.785,1.009-11.717.046-2.067,0-4.134-.03-6.2-.053-3.085-4.853-3.095-4.8,0Z"/><path class="d" d="M191.472,61.454c.39.442.755.905,1.115,1.371l-.375-.486q1.116,1.446,2.162,2.946a19.725,19.725,0,0,1,1.39,2.128,2.418,2.418,0,0,0,3.283.861,2.455,2.455,0,0,0,.861-3.284,25.838,25.838,0,0,0-2.05-3.057c-.952-1.32-1.914-2.652-2.991-3.873a2.4,2.4,0,0,0-3.395,0,2.458,2.458,0,0,0,0,3.394Z"/><path class="d" d="M179.764,59.858c2.29,3.088,4.751,6.053,6.938,9.218a61.627,61.627,0,0,1,6.233,10.146,2.417,2.417,0,0,0,3.284.861,2.463,2.463,0,0,0,.861-3.284,61.514,61.514,0,0,0-6.234-10.145c-2.187-3.165-4.647-6.13-6.938-9.219a2.472,2.472,0,0,0-3.283-.861,2.417,2.417,0,0,0-.861,3.284Z"/><path class="d" d="M230.256,256.389c4.026,6.216,22.921,33.4,25.352,35.743a6.972,6.972,0,0,0,8.287,1.2c2.242-1.038,2.57-4.314,1.662-6.579-2.449-6.824-19.912-35.87-22.33-38.716a8.031,8.031,0,0,0-10.55-1.291C229.063,249.488,228.838,254.2,230.256,256.389Z"/><path class="d" d="M176.028,256.389c4.025,6.216,22.921,33.4,25.352,35.743a6.972,6.972,0,0,0,8.287,1.2c2.242-1.038,2.57-4.314,1.662-6.579-2.449-6.824-19.912-35.87-22.33-38.716a8.032,8.032,0,0,0-10.55-1.291C174.835,249.488,174.61,254.2,176.028,256.389Z"/><path class="d" d="M86.143,256.389c-4.025,6.216-22.921,33.4-25.351,35.743a6.974,6.974,0,0,1-8.288,1.2c-2.242-1.038-2.57-4.314-1.661-6.579,2.448-6.824,19.912-35.87,22.33-38.716a8.031,8.031,0,0,1,10.55-1.291C87.337,249.488,87.562,254.2,86.143,256.389Z"/><path class="d" d="M141.789,256.389c-4.026,6.216-22.921,33.4-25.352,35.743a6.972,6.972,0,0,1-8.287,1.2c-2.242-1.038-2.57-4.314-1.662-6.579,2.449-6.824,19.912-35.87,22.33-38.716a8.031,8.031,0,0,1,10.55-1.291C142.982,249.488,143.207,254.2,141.789,256.389Z"/><path class="b" d="M150.262,103.734a17.108,17.108,0,0,0,8.234,1.912,13.464,13.464,0,0,0,8.369-2.494,2.4,2.4,0,0,0,0-3.394,2.475,2.475,0,0,0-3.394,0c.744-.579.231-.181.039-.059-.162.1-.329.2-.5.29-.227.119-.778.245-.112.076-.232.059-.46.176-.689.25a12.9,12.9,0,0,1-1.93.44c.359-.057.118-.016-.1.006-.19.018-.379.034-.569.046-.456.03-.914.042-1.371.039q-.615,0-1.228-.044c-.188-.013-.375-.028-.562-.047-.082-.008-.769-.128-.192-.019a17.551,17.551,0,0,1-1.8-.4c-.253-.075-.5-.166-.748-.251-.586-.2.425.211-.1-.039q-.464-.218-.916-.457a2.4,2.4,0,1,0-2.423,4.145Z"/><path class="b" d="M157.14,84.513a38.06,38.06,0,0,1,.892,4.084l-.085-.638a2.535,2.535,0,0,1,.015.564l.086-.638a1.471,1.471,0,0,1-.062.254l.241-.574a.989.989,0,0,1-.089.163l.375-.485a.867.867,0,0,1-.133.131l.486-.375a2.709,2.709,0,0,1-.324.171l.573-.242a2.35,2.35,0,0,1-.545.159l.638-.086a2.131,2.131,0,0,1-.511,0l.638.086c-.193-.027-.383-.074-.576-.1a1.812,1.812,0,0,0-.957-.042,1.783,1.783,0,0,0-.892.284,2.4,2.4,0,0,0-.861,3.284,2.3,2.3,0,0,0,1.434,1.1c.467.063.919.181,1.394.2a4.5,4.5,0,0,0,2.088-.5,3.078,3.078,0,0,0,1.687-2.023,4.955,4.955,0,0,0-.019-2.144c-.222-1.316-.526-2.62-.865-3.911a2.4,2.4,0,0,0-2.952-1.676,2.445,2.445,0,0,0-1.676,2.952Z"/><path class="b" d="M135.841,72.866c-.682,2.217-.238,7.315,3.961,7.749,5.549-.033,5.845-6.2,3.977-9.095C142.249,69.147,137.752,68.16,135.841,72.866Z"/><path class="b" d="M180.281,72.867c.682,2.216.238,7.314-3.961,7.748-5.55-.033-5.845-6.2-3.977-9.1C173.872,69.147,178.37,68.16,180.281,72.867Z"/></svg>