<?xml version="1.0" encoding="utf-8"?>
<!-- Uploaded to: SVG Repo, www.svgrepo.com, Generator: SVG Repo Mixer Tools -->
<svg width="800px" height="800px" viewBox="0 -37.86 329.399 329.399" xmlns="http://www.w3.org/2000/svg"><defs><style>.a{fill:#ffffff;}.b{fill:#211715;}</style></defs><path class="a" d="M63.894,105.143a109.447,109.447,0,0,0,11.893-5q1.669-.831,3.322-1.7c1.773-.925,4.548-1.115,7.579-1l.266.01c-.033,17.538-.077,38.489-.095,51.107a7.625,7.625,0,0,0,5.538,7.348c10.683-5.247,20.5-13.07,30.8-19.289,4.591-2.773,10.657-5.231,14.923-1.592a8.642,8.642,0,0,1,2.852,6.286c.174,4.288-1.959,8.051-4.326,11.456-5.8,8.35-11.649,13.77-17.671,19.5.268,1.319.469,2.4.537,2.923.841,6.424,2.248,17.175,1.54,20.721-.875,4.379-2.824,8.9-6.858,10.812s-9.607.554-11.581-3.453l-.145-.294L102.4,204.4c-.232,4.326-4.042,11.013-5.835,12.649a6.82,6.82,0,0,1-6.719,1.672,5.728,5.728,0,0,1-1.34-.711,44.222,44.222,0,0,1-4.145,7.722C79.723,234.2,65.144,241.307,52.2,251.045c-5.4,2.622-51.195-17.854-49.769-25.78,0,0,.137-1.31.206-1.522C14.567,184.591,11.4,161.8,28.505,124.711a20.559,20.559,0,0,1,9.6-9.885C47.173,110.4,55.375,108.211,63.894,105.143Z"/><path class="b" d="M87.591,220.279a8.6,8.6,0,0,0,8.35.09,11.18,11.18,0,0,0,4.26-4.069,31.687,31.687,0,0,0,2.821-5.29A20.155,20.155,0,0,0,104.8,204.4a2.414,2.414,0,0,0-2.4-2.4,2.456,2.456,0,0,0-2.4,2.4,2.816,2.816,0,0,1-.06.657c.19-.581.01-.125-.022.049-.079.422-.179.841-.294,1.255a24.415,24.415,0,0,1-.907,2.615c.2-.5-.029.067-.076.174q-.163.372-.338.738-.3.633-.624,1.252c-.389.742-.8,1.471-1.253,2.179-.19.3-.386.6-.589.889-.114.163-.232.322-.348.482-.3.411.361-.418.044-.06-.176.2-.34.405-.528.592-.124.122-.254.236-.387.348s-.113.095.049-.034c-.121.088-.243.172-.368.252q-.282.181-.578.338c-.131.07-.265.135-.4.2.233-.094.219-.091-.044.01-.211.065-.419.138-.634.193-.123.031-.97.118-.441.1-.219.008-.432.024-.652.018-.144,0-.288-.013-.432-.028.279.038.278.032-.005-.02-.209-.067-.423-.11-.629-.187.389.145-.383-.218-.466-.268a2.4,2.4,0,1,0-2.423,4.144Z"/><path class="b" d="M97.117,196.314c1.24,4,2.745,8.8,6.241,11.431a11.839,11.839,0,0,0,12.374.889c4.223-2.21,6.479-6.919,7.487-11.375.809-3.58.36-7.378.014-10.989a143.67,143.67,0,0,0-1.965-14.766,2.4,2.4,0,1,0-4.628,1.276c.7,3.454,1.087,6.952,1.509,10.762a72.55,72.55,0,0,1,.685,10.545c-.009.264-.033.528-.044.792-.027.634.086-.23-.033.31-.217.982-.436,1.956-.744,2.915a12.707,12.707,0,0,1-2.441,4.595,7.069,7.069,0,0,1-8.346,1.82c-3.3-1.564-4.5-6.311-5.481-9.481-.911-2.942-5.546-1.687-4.628,1.276Z"/><path class="b" d="M58.937,141.659q5.108,8.607,9.784,17.459a2.4,2.4,0,0,0,4.144-2.422q-4.674-8.85-9.784-17.46a2.4,2.4,0,1,0-4.144,2.423Z"/><path class="b" d="M68.7,152.334a82.176,82.176,0,0,0,10.679-7.883c1.589-1.39,3.12-2.847,4.6-4.353q1.155-1.173,2.271-2.383c.385-.417.759-.848,1.159-1.252.172-.174.359-.332.531-.5.373-.371-.2.123.1-.082a2.463,2.463,0,0,0,.861-3.284,2.421,2.421,0,0,0-3.284-.861,32.147,32.147,0,0,0-4.464,4.39c-1.511,1.562-3.074,3.076-4.7,4.521A74.768,74.768,0,0,1,66.28,148.19c-2.617,1.63-.21,5.784,2.422,4.144Z"/><path class="b" d="M86.688,95.044c-2.852-.092-5.887-.039-8.517,1.2-2.816,1.322-5.532,2.822-8.4,4.051-5.6,2.4-11.421,4.211-17.179,6.172-2.892.984-5.77,2.01-8.6,3.154a61.216,61.216,0,0,0-8.606,3.956,22.541,22.541,0,0,0-6,5.233,33.685,33.685,0,0,0-4.31,7.693,185.475,185.475,0,0,0-10.751,31.874c-2.319,9.718-3.918,19.583-5.71,29.406A319.359,319.359,0,0,1,1,220.838,22.734,22.734,0,0,0,.1,224.584c-.019.156-.042.316-.055.473l-.016.151q.144-1.071-.019.136a4.283,4.283,0,0,0-.011.494,6.253,6.253,0,0,0,.923,2.853,18.351,18.351,0,0,0,4.6,4.8,94.746,94.746,0,0,0,16.941,10.167,148.121,148.121,0,0,0,19.18,8.006,42.849,42.849,0,0,0,6.854,1.778,12.7,12.7,0,0,0,2.772.213c1.8-.122,2.9-1.126,4.342-2.17,4.884-3.526,9.975-6.748,14.964-10.12a74.082,74.082,0,0,0,12.087-9.494,24.27,24.27,0,0,0,3.759-4.934c1.509-2.7-2.636-5.122-4.145-2.422-2,3.57-5.335,6.359-8.611,8.815-4.328,3.244-8.91,6.137-13.407,9.136-2.508,1.673-5,3.371-7.44,5.143-.12.087-1.868,1.306-1.842,1.36,0,0,.77-.3.237-.121-.436.146-.037-.033.225-.01-.168-.015-.366.03-.536.033-.322.007-.642-.019-.962-.044-.208-.016-.916-.154-.1,0-.247-.046-.5-.078-.744-.123-1.041-.19-2.069-.445-3.088-.727a111.132,111.132,0,0,1-16.825-6.418,125.83,125.83,0,0,1-17.436-9.452q-.88-.588-1.742-1.2c-.272-.2-.54-.4-.809-.594-.1-.077-.208-.156-.311-.235.453.345-.055-.043-.115-.092a27.038,27.038,0,0,1-2.525-2.246c-.3-.306-.571-.628-.848-.951-.317-.371.323.473.062.077-.045-.068-.1-.131-.142-.2-.121-.2-.245-.389-.363-.587-.067-.112-.286-.638-.107-.185s0-.058-.04-.169c-.071-.2-.145-.853-.011.117-.018-.128-.045-.726-.03-.174.02.755.075-.616.1-.825a4.3,4.3,0,0,1,.211-.914c.439-1.5.89-2.985,1.314-4.484q1.207-4.264,2.269-8.568c1.281-5.185,2.4-10.409,3.42-15.652,1.849-9.516,3.344-19.1,5.316-28.592A193.028,193.028,0,0,1,25.827,137.2q1.509-3.968,3.21-7.857a33.907,33.907,0,0,1,3.746-7.145c3.348-4.385,8.572-6.424,13.551-8.378,5.4-2.121,10.956-3.826,16.435-5.739A129.693,129.693,0,0,0,79.7,100.841c2.161-1.12,4.6-1.074,6.988-1,3.09.1,3.086-4.7,0-4.8Z"/><path class="a" d="M179.039,2.6c-11.439,0-64.078-.1-83.985-.151a7.62,7.62,0,0,0-7.642,7.568C87.29,28.061,87,61.882,87,69.657c0,11.912-.105,57.451-.136,78.9a7.622,7.622,0,0,0,7.612,7.636c36.8.053,190.24.376,225.557.448a6.391,6.391,0,0,0,6.407-6.387c.027-20.648.137-68.364.137-80.6,0-7.676.288-40.742.414-58.933a7.622,7.622,0,0,0-7.6-7.681C290.24,2.945,187.312,2.6,179.039,2.6Z"/><path class="b" d="M179.039.2Q161.566.2,144.091.15,122.224.111,100.357.06C97.1.052,93.593-.362,90.582,1.1a9.916,9.916,0,0,0-4.49,4.455A13.427,13.427,0,0,0,85,11.656q-.084,12.065-.183,24.13c-.1,12.392-.214,24.784-.225,37.177q-.02,21.441-.075,42.883-.023,11.79-.044,23.581c-.006,3.244-.252,6.595.015,9.829a10.1,10.1,0,0,0,8.309,9.185,39.745,39.745,0,0,0,6.068.163l5.742.009,14.344.026,36.94.071q21.716.042,43.432.087l44.371.09,39.755.083,29.587.061c4.678.01,10.424.916,13.741-3.146,2.473-3.029,2.058-6.787,2.064-10.443q.007-5.1.017-10.2.043-23.572.09-47.146c.018-10.5.019-21,.092-31.5q.084-12.348.185-24.694.05-6.2.1-12.407.022-2.889.043-5.778a20.243,20.243,0,0,0-.371-5.832A10.209,10.209,0,0,0,319.1.642c-1.962-.017-3.926-.013-5.889-.02L297.517.57Q277.263.5,257.008.435,236.11.366,215.211.3,200.23.254,185.249.211,182.144.2,179.039.2c-3.088,0-3.093,4.8,0,4.8,6.322,0,12.643.03,18.965.049q18.395.055,36.788.116,21.126.067,42.253.138l34.867.117,6.156.021a7.968,7.968,0,0,1,3.53.5,5.276,5.276,0,0,1,2.927,3.882,30.486,30.486,0,0,1,.031,5.1q-.019,2.781-.041,5.564-.048,6.244-.1,12.49c-.1,12.8-.239,25.6-.246,38.4q-.012,19.736-.066,39.471-.022,11.742-.045,23.485-.009,5.109-.018,10.217,0,2.19-.007,4.381c0,1.449.03,2.755-.96,3.925-1.475,1.744-3.8,1.391-5.844,1.387l-5.223-.011-13.336-.028-35.072-.072-42.092-.087-43.84-.089-40.445-.08q-15.783-.03-31.568-.058c-3.566-.006-7.133,0-10.7-.017a5.4,5.4,0,0,1-5.7-5.71c-.01-3.23.01-6.459.016-9.688q.04-23.625.089-47.248c.019-10.452.009-20.9.076-31.355q.153-23.575.353-47.149c.011-1.545-.185-3.222.443-4.676A5.269,5.269,0,0,1,94,4.946a19.738,19.738,0,0,1,3.891-.092l4.146.01q10.26.026,20.519.045,21.936.045,43.871.077Q172.731,5,179.039,5C182.128,5,182.133.2,179.039.2Z"/><path class="a" d="M105.308,186.738c11.044-13.794,21.256-19.458,31.342-33.968,2.367-3.405,4.5-7.168,4.326-11.456a8.642,8.642,0,0,0-2.852-6.286c-4.266-3.639-10.332-1.181-14.923,1.592-15.683,9.47-30.261,22.66-48.456,24.812"/><path class="b" d="M86.429,226.94c3.784-5.51,5.808-12,8.446-18.083a90.459,90.459,0,0,1,11.482-19.6c8.588-11.039,20.012-19.381,28.684-30.332,4.394-5.549,9.537-12.2,8.077-19.744a10.392,10.392,0,0,0-6.4-7.714c-3.041-1.185-6.526-.641-9.493.5a49.832,49.832,0,0,0-8.837,4.827c-2.865,1.835-5.682,3.743-8.5,5.645A171.27,171.27,0,0,1,92.451,153.2c-5.62,2.882-11.995,5.451-18.363,5.9-2.28.161-4.658-.672-7-1.444-2.6-.857-5.144-1.869-7.75-2.7a18.854,18.854,0,0,0-2.9-.74,2.478,2.478,0,0,0-2.952,1.676,2.419,2.419,0,0,0,1.676,2.953,35.911,35.911,0,0,1,6.6,2.026,72.465,72.465,0,0,0,7.682,2.473c5.835,1.388,12.122-.45,17.6-2.514,12.524-4.714,23.082-13.1,34.269-20.216,3.9-2.479,11.363-7.867,15.653-3.37,2.008,2.106,1.866,5.362,1.052,7.948-1,3.192-3.127,6.012-5.1,8.668-8.08,10.88-19.137,19-27.814,29.352A93.225,93.225,0,0,0,91.69,204.275c-3.08,6.733-5.182,14.093-9.406,20.243-1.753,2.552,2.4,4.956,4.145,2.422Z"/></svg>