<?xml version="1.0" encoding="utf-8"?>
<!-- Uploaded to: SVG Repo, www.svgrepo.com, Generator: SVG Repo Mixer Tools -->
<svg width="800px" height="800px" viewBox="0 -32.84 374.946 374.946" xmlns="http://www.w3.org/2000/svg"><defs><style>.a{fill:#ffffff;}.b{fill:#211715;}.c{fill:#bdbdbd;}.d{fill:#b5886a;}.e{fill:#d9d9d9;}.f{fill:#ffda71;}.g{fill:#f4b3b3;}.h{fill:#7a7473;}</style></defs><path class="a" d="M225.775,251.887c.373,3.918.6,6.913.732,9.623.229,4.634.647,9.445,1.051,14.1.941,10.85,3.749,16.973,15.089,19.131,3.274.623,5.164,1.95,6.12,4.018s1.1,8.5-2.118,8.5c-5.97,0-108.3-.023-118-.023-3.143,0-3.428-6.411-2.472-8.479s2.846-3.4,6.119-4.018c11.34-2.158,14.148-8.281,15.09-19.131.4-4.65.821-9.461,1.05-14.1.134-2.71.359-5.7.732-9.623"/><path class="b" d="M223.775,251.887c.709,7.493,1.03,15.013,1.678,22.512.433,5.008.94,10.44,3.815,14.738,2.795,4.179,7.335,6.368,12.142,7.386a10.774,10.774,0,0,1,4.157,1.407,4.272,4.272,0,0,1,.915.861,5.388,5.388,0,0,1,.433.718c.232.427.007-.11.134.349a8.023,8.023,0,0,1-.142,5.077,2.708,2.708,0,0,1-.163.274c.029-.043.1-.191,0-.011a.182.182,0,0,1-.071.071c-.088.033.041-.009-.167-.013-.189,0-.378,0-.567,0h-7.9l-19.827,0-25.668-.006-26.737,0-22.642,0-13.464,0c-.265,0-.531,0-.8,0a1.531,1.531,0,0,0-.242.006c-.1,0-.123-.032-.285-.28-.889-1.362-.821-3.745-.453-5.181.086-.337-.127.166.1-.269a5.132,5.132,0,0,1,.434-.718,4.2,4.2,0,0,1,1.043-.942,11.992,11.992,0,0,1,4.2-1.363,22.859,22.859,0,0,0,7.243-2.771c4.009-2.5,6.32-6.547,7.4-11.068a58.034,58.034,0,0,0,1.167-8.49c.357-4.131.7-8.265.913-12.407.169-3.294.434-6.579.744-9.863a2.014,2.014,0,0,0-2-2,2.043,2.043,0,0,0-2,2c-.724,7.654-1.056,15.336-1.719,23-.385,4.438-.907,9.759-3.953,13.187a13.025,13.025,0,0,1-5.252,3.524c-2.82,1.052-6.024,1.131-8.63,2.72a7.949,7.949,0,0,0-3.845,6.094,10.4,10.4,0,0,0,1.339,6.844c1.545,2.221,3.907,1.982,6.262,1.982h6.681l20.972,0,26.8.006,26.984.006,21.94,0c3.854,0,7.709.033,11.563,0,4.817-.039,5.443-5.593,4.855-9.309a8.061,8.061,0,0,0-4.1-5.79c-2.618-1.454-5.727-1.556-8.5-2.618a12.633,12.633,0,0,1-7.82-8.868,42.633,42.633,0,0,1-1.265-8.03c-.358-4.133-.709-8.267-.929-12.41q-.277-5.183-.77-10.344a2.055,2.055,0,0,0-2-2,2.014,2.014,0,0,0-2,2Z"/><path class="b" d="M153.556,294.066h67.671c2.574,0,2.578-4,0-4H153.556c-2.574,0-2.578,4,0,4Z"/><path class="a" d="M1.514,22.094c.094,49.576.422,161.284.523,208.213a20.138,20.138,0,0,0,20.06,20.1c64.472.249,264.276-.155,330.254-.269A20.127,20.127,0,0,0,372.456,230c-.024-48.068-.1-162.454-.127-207.907A20.128,20.128,0,0,0,352.2,1.969c-68.4-.008-265.249-.047-330.539-.057A20.139,20.139,0,0,0,1.514,22.094Z"/><path class="a" d="M13.985,248.61A20.143,20.143,0,0,1,2.523,230.469c-.011-5.036-.024-10.818-.053-17.2,48.551-.081,362.362-1.179,367.777-1.488l2.671-.153c.017,6.886.021,13.126.023,18.529a20.127,20.127,0,0,1-20.1,20.14c-65.977.114-265.781.518-330.254.269A20.064,20.064,0,0,1,13.985,248.61Z"/><path class="b" d="M0,22.256Q.055,51.592.137,80.925q.092,35.727.188,71.454Q.411,184.1.489,215.811q.015,6.052.028,12.106c.012,5.378.711,10.439,3.853,14.976a22.315,22.315,0,0,0,13.4,9.129c3.643.8,7.473.557,11.183.568q23.181.066,46.364.057,30.164.007,60.327-.022,33.25-.027,66.5-.074,32.445-.045,64.89-.1,27.836-.047,55.67-.1l21.685-.039c3.233-.006,6.517.15,9.744-.06a22.287,22.287,0,0,0,14.846-6.972,22.584,22.584,0,0,0,5.966-15.436c.013-3.889,0-7.778-.006-11.667q-.007-14.229-.016-28.457-.021-34.467-.043-68.933l-.042-66.726q-.007-13.1-.016-26.2c0-4.579.226-9.167-1.474-13.519A22.266,22.266,0,0,0,362.418,2.388C358.082.3,353.655.131,348.953.131l-10.148,0-23.787,0L256.645.116,190.219.1,123.607.092,64.674.081l-24.208,0-10.395,0c-3.3,0-6.705-.224-9.992.1A22.4,22.4,0,0,0,0,22.256c-.028,2.575,3.972,2.577,4,0A18.394,18.394,0,0,1,11.086,7.811c3.974-3.053,8.461-3.738,13.321-3.737l19.974,0,52.57.01,63.054.011,66.506.012,62,.011,50.452.008,9.854,0c4.528,0,8.813.058,12.876,2.392a18.311,18.311,0,0,1,8.919,12.947c.6,3.8.207,7.918.209,11.756q.018,29.256.037,58.511.021,34.691.043,69.38.02,30.086.036,60.17c0,3.956.174,7.957-.02,11.908a18.169,18.169,0,0,1-7.443,13.652c-6.5,4.684-15.125,3.461-22.711,3.474q-24.276.043-48.552.087-30.324.053-60.648.1-32.763.049-65.526.087-31.63.036-63.26.05-26.652.009-53.3-.015-10.261-.013-20.523-.04c-3.493-.01-7.2.3-10.6-.539a18.353,18.353,0,0,1-12.1-9.895c-2.055-4.293-1.719-8.972-1.729-13.594q-.013-6.135-.029-12.27-.037-14.9-.076-29.8-.091-34.727-.184-69.453-.088-32.957-.167-65.914Q4.024,34.689,4,22.256C4,19.683,0,19.678,0,22.256Z"/><path class="b" d="M3.133,215.276q8.219,0,16.436-.031,15.171-.039,30.342-.088,20.358-.063,40.714-.131,23.778-.081,47.555-.165,25.43-.091,50.861-.187,25.318-.1,50.636-.2,23.439-.095,46.878-.2,19.794-.087,39.588-.184,14.342-.072,28.681-.161c4.823-.032,9.648-.037,14.47-.127.317-.006.636-.007.953-.024,2.56-.14,2.577-4.141,0-4-3.462.19-6.961.091-10.427.116q-12.818.094-25.634.154-18.652.1-37.306.18-22.723.1-45.447.195-25.028.1-50.055.2-25.564.1-51.13.19-24.336.089-48.672.171-21.342.074-42.683.141-16.528.052-33.058.1-10.08.027-20.16.046l-2.542,0c-2.574,0-2.578,4,0,4Z"/><path class="c" d="M196.136,230.68c0,4.367-3.27,7.576-7.933,7.576-5.348,0-8.106-3.654-8.106-7.579a7.688,7.688,0,0,1,7.794-7.8A8.112,8.112,0,0,1,196.136,230.68Z"/><path class="b" d="M62.154,60.166A98.676,98.676,0,0,1,45.468,74.318a90.868,90.868,0,0,1-8.675,5.343,30.006,30.006,0,0,1-7.012,2.91c-2.5.6-1.442,4.461,1.064,3.858,6-1.445,11.629-5.209,16.641-8.657a103.368,103.368,0,0,0,17.5-14.778c1.744-1.89-1.078-4.725-2.828-2.828Z"/><path class="b" d="M82.813,19.376a87.71,87.71,0,0,1-6.239,17.888,90.8,90.8,0,0,1-9.523,16.961,2.014,2.014,0,0,0,.718,2.736,2.046,2.046,0,0,0,2.736-.717,91.423,91.423,0,0,0,9.68-17.311A91.861,91.861,0,0,0,86.67,20.439c.526-2.511-3.329-3.585-3.857-1.063Z"/><path class="b" d="M62.812,23.31c-2.879,6.946-7.177,13.365-11.588,19.416a162.635,162.635,0,0,1-14.567,17.4c-1.171,1.209-2.367,2.4-3.6,3.538-.5.46-1,.913-1.518,1.355q-.387.331-.781.655c-.1.081-.2.161-.3.241a1.3,1.3,0,0,1-.169.133,2.065,2.065,0,0,0-.717,2.736,2.013,2.013,0,0,0,2.736.718c5.055-3.851,9.381-8.7,13.492-13.514A163.76,163.76,0,0,0,60.743,35.76a80.282,80.282,0,0,0,5.926-11.386,2.012,2.012,0,0,0-1.4-2.461,2.051,2.051,0,0,0-2.46,1.4Z"/><path class="b" d="M31.008,42A54.765,54.765,0,0,1,15.784,68.659c-1.881,1.766.952,4.59,2.828,2.828A58.584,58.584,0,0,0,34.865,43.063c.6-2.5-3.261-3.571-3.857-1.063Z"/><path class="b" d="M308.45,62.616a103.515,103.515,0,0,0,17.523,14.8c5.02,3.453,10.66,7.222,16.668,8.67,2.5.6,3.568-3.254,1.063-3.857a30.129,30.129,0,0,1-7.024-2.916,91.14,91.14,0,0,1-8.688-5.351,98.752,98.752,0,0,1-16.714-14.176c-1.749-1.9-4.573.938-2.828,2.828Z"/><path class="b" d="M286.728,20a92.046,92.046,0,0,0,6.5,18.523,91.565,91.565,0,0,0,9.695,17.338,2.063,2.063,0,0,0,2.737.718,2.014,2.014,0,0,0,.717-2.737,90.908,90.908,0,0,1-9.537-16.988,87.863,87.863,0,0,1-6.25-17.918c-.527-2.518-4.384-1.452-3.857,1.064Z"/><path class="b" d="M306.761,23.936a100.735,100.735,0,0,0,12.118,20.551,169.3,169.3,0,0,0,15.31,18.3,63.784,63.784,0,0,0,6.989,6.35,2.012,2.012,0,0,0,2.736-.717,2.051,2.051,0,0,0-.718-2.737c-.3-.229-.084-.066-.023-.017-.1-.079-.2-.156-.3-.236-.2-.168-.411-.336-.614-.507-.506-.425-1-.863-1.489-1.308-1.048-.954-2.065-1.942-3.062-2.948-2.471-2.492-4.827-5.1-7.108-7.763A158,158,0,0,1,316.336,33.62a75.006,75.006,0,0,1-5.718-10.748,2.066,2.066,0,0,0-2.46-1.4,2.013,2.013,0,0,0-1.4,2.461Z"/><path class="b" d="M338.616,42.655a58.664,58.664,0,0,0,16.278,28.468c1.876,1.761,4.71-1.062,2.829-2.828a54.842,54.842,0,0,1-15.25-26.7c-.6-2.5-4.453-1.443-3.857,1.064Z"/><path class="b" d="M58.762,98.794a18.234,18.234,0,0,1-4.064.614,9.893,9.893,0,0,0-4.679,1.442,15.226,15.226,0,0,0-3.034,3.061,9.141,9.141,0,0,1-2.861,2.635,2.029,2.029,0,0,0-.718,2.737c1.8,3.2,6,4.041,9.382,3.838,3.733-.224,7.67-1.778,9.263-5.427a9.383,9.383,0,0,0,.06-7.058,2.054,2.054,0,0,0-2.46-1.4,2.015,2.015,0,0,0-1.4,2.46,11.635,11.635,0,0,1,.476,1.676c.094.446.02-.124.036.285.011.266.028.529.02.8,0,.086-.1.832-.026.429-.035.187-.074.372-.124.555-.019.072-.266.768-.113.408a5.239,5.239,0,0,1-.35.668,4.383,4.383,0,0,1-1.553,1.511c-.255.157-.521.285-.784.427-.511.274.347-.088-.251.1-.342.11-.681.22-1.031.3-.38.091-.766.164-1.153.217.492-.068-.258.018-.344.025q-.36.027-.721.038-.639.019-1.279-.019c-.243-.015-.486-.038-.728-.065.36.041-.056-.01-.185-.033a9.878,9.878,0,0,1-1.368-.342c-.162-.053-.323-.111-.481-.175.443.178-.194-.108-.272-.151-.165-.091-.321-.193-.48-.294-.118-.083-.089-.057.088.08-.081-.065-.159-.133-.236-.2a4.672,4.672,0,0,1-.422-.445c.326.386-.058-.132-.113-.23L46.143,110a10.7,10.7,0,0,0,3.259-2.759,18.419,18.419,0,0,1,2.679-2.971,4.121,4.121,0,0,1,1.34-.615,8.6,8.6,0,0,1,1.742-.294,20.811,20.811,0,0,0,4.662-.709,2.046,2.046,0,0,0,1.4-2.461,2.02,2.02,0,0,0-2.46-1.4Z"/><path class="b" d="M322.7,143.1a20.031,20.031,0,0,0,4.546.7,6.708,6.708,0,0,1,3.2.918,17.693,17.693,0,0,1,2.61,2.888,10.863,10.863,0,0,0,3.329,2.843l-.718-2.736c-.055.1-.439.616-.112.23a4.806,4.806,0,0,1-.423.445c-.142.131-.359.257-.082.078-.181.116-.357.235-.545.339-.079.043-.715.329-.272.151-.158.063-.319.121-.481.175a9.91,9.91,0,0,1-1.368.341c-.048.009-.633.084-.185.034-.243.027-.485.05-.728.064q-.639.039-1.28.02-.36-.011-.72-.039c-.086-.006-.836-.092-.344-.024q-.582-.081-1.154-.217c-.35-.083-.689-.19-1.031-.3-.6-.2.263.171-.25-.105-.263-.141-.53-.27-.785-.427a4.343,4.343,0,0,1-1.552-1.51,5.239,5.239,0,0,1-.35-.668c.152.36-.1-.337-.114-.408-.05-.183-.088-.369-.124-.555.077.4-.023-.344-.026-.43-.007-.232,0-.464.014-.695,0-.1.014-.2.025-.3q-.043.288.017-.082a11.765,11.765,0,0,1,.476-1.676,2.016,2.016,0,0,0-1.4-2.46,2.043,2.043,0,0,0-2.461,1.4,9.54,9.54,0,0,0-.3,6.139,8.648,8.648,0,0,0,3.867,4.762,13.949,13.949,0,0,0,10.333,1.152,7.613,7.613,0,0,0,4.806-3.405,2.025,2.025,0,0,0-.717-2.737,4.711,4.711,0,0,1-1.438-1.022,17.875,17.875,0,0,1-1.355-1.529,15.67,15.67,0,0,0-3.1-3.145,9.753,9.753,0,0,0-4.564-1.43,19.258,19.258,0,0,1-4.179-.626A2,2,0,1,0,322.7,143.1Z"/><path class="a" d="M214.783,192.812a6.292,6.292,0,0,1-.612-3.322c-.01-1.513.737-8.36,1.493-13.837.265-1.923.53-3.671.761-4.962,8.65-3.256,44.9-3.905,57.137-.01.045.25.095.53.15.826.928,5.372,2.46,16.029,2.432,17.964-.029,2.317-.645,2.641-1.13,3.188Z"/><path class="a" d="M216.6,145.134c-5.4,2.694-11.241,6.273-12.774,10.094-3.217,8.053-7.163,29.675-8.331,37.632l19.285-.048a6.292,6.292,0,0,1-.612-3.322c-.01-1.513.737-8.36,1.493-13.837.265-1.923.53-3.671.761-4.971,8.65-3.247,44.9-3.9,57.137,0,.045.25.095.53.15.826.928,5.372,2.46,16.029,2.432,17.964-.029,2.317-.645,2.641-1.13,3.188l18.912-.048c-1.226-8.244-4.865-28.535-8.264-37.383-2.107-5.5-13.214-10.437-19.1-13.032H222.942C221.166,142.977,218.926,143.973,216.6,145.134Z"/><path class="a" d="M266.558,142.194c-.454-.155-5.921-2.7-6.077-2.762a7.621,7.621,0,0,1-4.548-5,33.3,33.3,0,0,1-.522-5.36c6.33-2.51,11.457-11.074,12.34-13.47.131-.4.4-1.146.635-2.034.316-.052.5-.079.5-.079a6.239,6.239,0,0,0,2.9-1.306A9.388,9.388,0,0,0,274.208,109a14.779,14.779,0,0,0,1.507-7.835,4.937,4.937,0,0,0-.516-1.984,3.489,3.489,0,0,0-2.509-1.667,3.693,3.693,0,0,0-2.956.864s.162-22.657-25.117-22.657-24.465,22.657-24.465,22.657a3.693,3.693,0,0,0-2.956-.864,3.489,3.489,0,0,0-2.508,1.667,4.937,4.937,0,0,0-.516,1.984A14.779,14.779,0,0,0,215.679,109a9.388,9.388,0,0,0,2.429,3.188,6.239,6.239,0,0,0,2.9,1.306l.945.145a25.119,25.119,0,0,0,4.79,9.35,21.513,21.513,0,0,0,7.347,5.886,33.088,33.088,0,0,1-.522,5.562,7.621,7.621,0,0,1-4.548,5c-.156.057-5.624,2.607-6.078,2.762,0,0,.62,12.641,22.452,12.641S266.558,142.194,266.558,142.194Z"/><path class="d" d="M227.929,133.569a12.66,12.66,0,0,0,6.207-4.674,21.463,21.463,0,0,1-7.4-5.909,25.119,25.119,0,0,1-4.79-9.35l-.945-.145a6.239,6.239,0,0,1-2.9-1.306c-.147-.118-.287-.242-.423-.37a12.421,12.421,0,0,0-1.4,4.429,20.183,20.183,0,0,0-.138,2.8c.034,2.223.6,4.5.707,6.722s-.819,4.766-2.931,5.481C212.968,132.8,221.007,136.028,227.929,133.569Z"/><path class="b" d="M215.959,110.805a15.854,15.854,0,0,0-1.763,6.426,38.881,38.881,0,0,0,.541,7.126c.172,1.517.3,3.221-.69,4.452-.5.627-1.414.681-1.873,1.479a2.553,2.553,0,0,0-.233,1.91c.532,2,3.083,2.935,4.832,3.458a19.768,19.768,0,0,0,8.086.649,15.586,15.586,0,0,0,10-5.108,2.05,2.05,0,0,0,0-2.828,2.017,2.017,0,0,0-2.828,0c-2.84,3.293-6.766,4.348-10.924,4.043q-.354-.027-.709-.065a1.557,1.557,0,0,1-.348-.048c-.432-.073-.862-.153-1.288-.253-.393-.093-.783-.2-1.167-.321q-.269-.084-.532-.18c-.052-.019-.61-.242-.318-.118s-.217-.1-.267-.128c-.132-.065-.263-.133-.391-.206s-.227-.144-.344-.21c-.389-.222.08.081.041.041a1.838,1.838,0,0,1-.222-.21c-.189-.277.294.467.116.141a1.548,1.548,0,0,1-.026,1.4l-1.195.919c3.763-1.429,4.691-5.352,4.256-9-.457-3.825-1.2-7.778.7-11.356,1.2-2.273-2.247-4.3-3.454-2.019Z"/><path class="d" d="M273.184,79.946c-2.913-12.149-15.359-21.666-28.4-20.955-13.306-.725-26,9.2-28.565,21.706a35.292,35.292,0,0,0,.02,11.836l1.068,4.987a3.82,3.82,0,0,1,2.512.593c4.8-3.8,14.488-9.775,19.132-13.636-.38,2.28-1.73,6.157-.03,5.759,7.1-1.591,13.912-4.8,18.015-9.814a47.381,47.381,0,0,0,3.36,8.7c1.532,2.536,5.99,8.411,9.884,8.923a3.8,3.8,0,0,1,2.509-.517,3.021,3.021,0,0,1,.455.1c2.089-4.786,1.038-12.892.206-16.933C273.3,80.446,273.243,80.195,273.184,79.946Z"/><path class="b" d="M218.169,92a29.079,29.079,0,0,1-.22-9.556,22.187,22.187,0,0,1,3.206-8.77,27.14,27.14,0,0,1,15.126-11.643,33.177,33.177,0,0,1,9.953-1.078,25.146,25.146,0,0,1,9.573,1.971,27.1,27.1,0,0,1,13.936,13.2,29.68,29.68,0,0,1,2.4,9.791c.367,3.672.528,7.649-.9,11.127a2.013,2.013,0,0,0,1.4,2.461,2.051,2.051,0,0,0,2.46-1.4c1.415-3.445,1.422-7.453,1.139-11.109a38.853,38.853,0,0,0-1.9-10.171A30.719,30.719,0,0,0,248.928,57.1a37.343,37.343,0,0,0-11.29.459,31.28,31.28,0,0,0-18.567,12.065,29.294,29.294,0,0,0-4.759,23.437c.558,2.511,4.415,1.448,3.857-1.064Z"/><path class="b" d="M255.12,81.329c1.167,3.848,2.49,7.7,4.909,10.952,2.3,3.086,5.356,6.761,9.3,7.642a2.045,2.045,0,0,0,2.461-1.4,2.021,2.021,0,0,0-1.4-2.46c-.188-.042-.374-.088-.557-.146-.007,0-.566-.219-.27-.089a8.292,8.292,0,0,1-1.124-.618,11.491,11.491,0,0,1-1.788-1.412,26.139,26.139,0,0,1-2-2.09c-.593-.688-.955-1.146-1.417-1.784a31.613,31.613,0,0,1-4.26-9.662c-.745-2.456-4.607-1.409-3.857,1.064Z"/><path class="b" d="M255.6,78.937a26.066,26.066,0,0,1-10.7,7.395q-1.628.639-3.3,1.139-.793.237-1.595.446-.4.1-.8.2c-.8.194-1.168-.007.028.64,1.082.585.8.808.884,0a10.009,10.009,0,0,1,.194-1.054c.189-.9.415-1.792.576-2.7a2.019,2.019,0,0,0-3.343-1.946c-6.018,4.965-12.92,8.766-19.059,13.579a2.013,2.013,0,0,0,0,2.829,2.053,2.053,0,0,0,2.829,0c6.14-4.815,13.033-8.608,19.059-13.579l-3.343-1.946c-.357,2.008-1.408,4.452-.769,6.486,1,3.183,5.274,1.276,7.39.588,5.555-1.808,11.007-4.7,14.785-9.254,1.631-1.968-1.184-4.813-2.829-2.829Z"/><path class="b" d="M271.149,99.79a1.75,1.75,0,0,1,1.274-.307,1.612,1.612,0,0,1,.989.606,3.849,3.849,0,0,1,.352,1.934,12.032,12.032,0,0,1-.164,2.472c-.535,2.934-1.983,6.481-5.249,7.067a2.018,2.018,0,0,0-1.4,2.46,2.044,2.044,0,0,0,2.46,1.4c5.345-.958,7.9-6.972,8.3-11.817.212-2.56-.055-5.394-2.26-7.038a5.726,5.726,0,0,0-7.138.4,2.016,2.016,0,0,0,0,2.829,2.045,2.045,0,0,0,2.829,0Z"/><path class="b" d="M266.845,110.74a13.6,13.6,0,0,1-.8,3.666c-.065.195-.475,1.21-.165.545-.122.261-.238.523-.367.78a31.785,31.785,0,0,1-2.731,4.39c-2.3,3.15-5.593,6.6-9.468,7.509-2.5.588-1.444,4.446,1.064,3.857,4.963-1.164,8.8-5.212,11.724-9.165,2.513-3.4,4.566-7.26,4.742-11.582.1-2.574-3.9-2.569-4,0Z"/><path class="b" d="M221.567,96.961a5.727,5.727,0,0,0-7.138-.4c-2.208,1.637-2.472,4.483-2.26,7.038.4,4.845,2.959,10.859,8.3,11.817a2.055,2.055,0,0,0,2.46-1.4,2.017,2.017,0,0,0-1.4-2.46c-3.266-.586-4.714-4.133-5.249-7.067-.234-1.277-.443-3.181.128-4.307a1.632,1.632,0,0,1,2.323-.4,2.057,2.057,0,0,0,2.829,0,2.017,2.017,0,0,0,0-2.829Z"/><path class="b" d="M219.224,110.621a29.07,29.07,0,0,0,6.213,13.912,20.855,20.855,0,0,0,13.628,7.71,2.013,2.013,0,0,0,2-2,2.045,2.045,0,0,0-2-2c-4.484-.484-8.259-3.413-11.026-6.81a25.508,25.508,0,0,1-4.957-11.875,2.018,2.018,0,0,0-2.461-1.4,2.046,2.046,0,0,0-1.4,2.46Z"/><path class="e" d="M235.143,55.829c-1.532.383-4.883-1.915-6.99-1.054-1.156.413-2.1,6.519-2.7,10.465a.761.761,0,0,0,1.124.781c4.292-2.351,12.215-3.359,16.039-3.394,5.115-.046,13.108.477,18.31,2.342a.719.719,0,0,0,.941-.869c-.825-2.976-2.792-9.676-3.834-9.9-2.3-.383-4.5,2.3-5.841,2.2-1.628-.191-6.416-7.66-8.331-7.852C241.655,48.743,237.058,55.925,235.143,55.829Z"/><path class="b" d="M234.612,53.9c.213-.037-.261-.1-.448-.143-.443-.111-.874-.268-1.307-.411a14.276,14.276,0,0,0-3.014-.726,3.757,3.757,0,0,0-4.117,2.09,22.915,22.915,0,0,0-1.47,5.505c-.183,1-.348,2.007-.506,3.013-.186,1.179-.578,2.474.1,3.572,1.467,2.39,3.837.744,5.724.066a37.1,37.1,0,0,1,6.267-1.577,51.144,51.144,0,0,1,11.248-.569,65.83,65.83,0,0,1,6.866.649c2.213.342,4.277,1.012,6.439,1.529a2.753,2.753,0,0,0,3.215-1.461,4.118,4.118,0,0,0-.154-3.073c-.518-1.8-1.061-3.6-1.7-5.36a10.93,10.93,0,0,0-2.068-4.074c-1.491-1.479-3.965-.573-5.522.292a10.082,10.082,0,0,0-1.907,1.152l-.208.062.583.021c.83.008.048.215.1.027,0,0-.332-.23-.109-.066.2.144-.23-.212-.28-.26-1.1-1.059-2.07-2.256-3.067-3.414a17.916,17.916,0,0,0-3.6-3.558c-1.521-.979-3-.586-4.36.448A31.124,31.124,0,0,0,237.5,51.4c-.591.637-1.183,1.278-1.826,1.864a4.971,4.971,0,0,1-.559.464c-.086.068-.212.1-.289.173-.139.072-.092.053.143-.056q-.334.083.174-.018c-2.57.055-2.579,4.055,0,4,2.165-.047,3.837-2.144,5.185-3.6.814-.878,1.61-1.775,2.47-2.608q.307-.3.628-.583c.044-.039.513-.4.273-.229a4.759,4.759,0,0,1,.47-.3c.32-.175-.29.038.22-.035h-1.064c.5.082-.191-.178.124.027.094.056.186.117.275.181q-.206-.163-.036-.024a12.378,12.378,0,0,1,1.143,1.1c.908.956,1.749,1.973,2.609,2.972,1.333,1.549,3.112,4.07,5.468,3.591,1.394-.283,2.435-1.306,3.7-1.883.243-.111.578-.146.8-.277h.311q-1.251-.78-.78-.321c-.166-.221-.181-.232-.046-.031.067.108.13.218.189.331.106.2.2.4.294.6a34.886,34.886,0,0,1,1.334,3.733,17.837,17.837,0,0,1,1.172,3.944l.273-1.009-.028.08.883-.514c.327-.109-.531-.269-.685-.315q-.6-.181-1.2-.335c-.724-.186-1.456-.346-2.19-.49-1.718-.335-3.456-.574-5.2-.763a74.448,74.448,0,0,0-9.239-.452,50.369,50.369,0,0,0-8.259.9,40.062,40.062,0,0,0-4.584,1.1c-.649.2-1.291.424-1.922.677-.36.143-.718.293-1.071.452-.19.083-.378.171-.564.262q-.5.228-.083.076l1.009.273.166.161.273,1.01a23.834,23.834,0,0,1,.785-4.966,34.793,34.793,0,0,1,1.036-4.073c-.041.1-.018.061.068-.124q.2-.309-.051.015a1.8,1.8,0,0,1-.355.225c.057-.094.158-.105.3-.034.574.211,1.321.229,1.93.42a9.324,9.324,0,0,0,4.5.756,2.017,2.017,0,0,0,1.4-2.46A2.045,2.045,0,0,0,234.612,53.9Z"/><path class="b" d="M232.086,129.165a31.176,31.176,0,0,1-.289,3.739,9.18,9.18,0,0,1-.3,1.527c-.031.094-.065.186-.1.278.1-.242.1-.26.009-.052-.112.192-.209.391-.327.579-.039.063-.45.644-.2.317-.15.195-.315.38-.483.559-.13.136-.263.269-.4.4-.052.048-.616.506-.329.294a7.052,7.052,0,0,1-.637.418c-.061.035-.726.379-.372.215-.263.122-.54.216-.805.335-1.012.453-2.015.928-3.023,1.391q-.916.421-1.834.838l-.668.3c-.5.222.481-.179.076-.033a2.052,2.052,0,0,0-1.4,2.46,2.018,2.018,0,0,0,2.461,1.4c1.9-.683,3.725-1.665,5.557-2.509.3-.136.594-.265.887-.406.093-.045.283-.124-.141.057-.575.247.28-.109.363-.144a7.842,7.842,0,0,0,1.318-.7,9.969,9.969,0,0,0,3.54-4.031,11.063,11.063,0,0,0,.766-3.189,35.89,35.89,0,0,0,.326-4.037,2,2,0,0,0-4,0Z"/><path class="b" d="M216.953,172.621a34.282,34.282,0,0,1,7.476-1.545c3.919-.479,7.865-.736,11.808-.9a191.833,191.833,0,0,1,26.053.545,52.5,52.5,0,0,1,10.718,1.878c2.462.77,3.516-3.09,1.063-3.857a53.044,53.044,0,0,0-9.865-1.821c-4.234-.48-8.5-.718-12.756-.839a187.516,187.516,0,0,0-25.917.863,40.84,40.84,0,0,0-9.644,1.816c-2.393.886-1.358,4.754,1.064,3.857Z"/><path class="b" d="M201.286,171.671c1.194-4.551,2.4-9.107,3.734-13.618.215-.722.417-1.456.687-2.16-.1.253.042-.108.158-.318s.251-.443.391-.656a9.376,9.376,0,0,1,1.189-1.419,31.386,31.386,0,0,1,7.422-5.2c2.947-1.62,6.008-3.019,9.084-4.373a2.014,2.014,0,0,0,.718-2.737,2.051,2.051,0,0,0-2.737-.717c-5.761,2.536-11.832,5.2-16.551,9.471a13.1,13.1,0,0,0-3.866,5.892c-.743,2.358-1.384,4.749-2.036,7.133q-1.046,3.816-2.05,7.643c-.654,2.492,3.2,3.555,3.857,1.063Z"/><path class="b" d="M216.712,192.281c-.116-.309-.263-.606-.383-.913.2.511.006-.039-.043-.252a8.725,8.725,0,0,1-.108-1.989c.05-1.58.248-3.164.416-4.735.487-4.551,1.013-9.123,1.842-13.627a2.055,2.055,0,0,0-1.4-2.46,2.017,2.017,0,0,0-2.46,1.4c-.893,4.853-1.461,9.785-1.985,14.69-.17,1.593-.374,3.2-.418,4.8a12.369,12.369,0,0,0,.214,2.8,5.233,5.233,0,0,0,.213.751c.081.219.182.429.272.644.145.348-.169-.44-.02-.043a2.055,2.055,0,0,0,2.46,1.4,2.016,2.016,0,0,0,1.4-2.46Z"/><path class="b" d="M253.411,129.165q.033,1.64.226,3.271a15.087,15.087,0,0,0,.527,3.128,9.512,9.512,0,0,0,3.087,4.266,8.659,8.659,0,0,0,2.7,1.531c.028.009-.641-.286-.384-.161l.127.058.469.214q1.488.684,2.976,1.371c.951.436,1.9.926,2.89,1.28a2.011,2.011,0,0,0,2.46-1.4,2.051,2.051,0,0,0-1.4-2.46c-.4-.146.572.255.076.033l-.668-.3q-.918-.416-1.833-.838c-1.008-.463-2.011-.938-3.024-1.391-.265-.119-.542-.213-.8-.335.353.164-.312-.18-.372-.215a7.067,7.067,0,0,1-.638-.418c.287.212-.276-.246-.329-.294-.138-.129-.271-.261-.4-.4a7.113,7.113,0,0,1-.483-.559c.251.327-.16-.254-.2-.317-.118-.188-.214-.387-.326-.579-.1-.208-.094-.19.009.052-.037-.092-.071-.184-.1-.278a9.077,9.077,0,0,1-.3-1.527,30.971,30.971,0,0,1-.289-3.739,2,2,0,0,0-4,0Z"/><path class="b" d="M265.549,143.923a104.747,104.747,0,0,1,10.515,5.16c2.746,1.6,6.375,3.76,7.669,6.677a65.676,65.676,0,0,1,3.2,10.721c1.049,4.21,1.964,8.453,2.8,12.71.787,4,1.516,8.007,2.118,12.036a2.014,2.014,0,0,0,2.46,1.4,2.052,2.052,0,0,0,1.4-2.461c-1.2-8.018-2.782-16.007-4.707-23.882a94.457,94.457,0,0,0-3.324-11.347c-1.4-3.67-4.591-6.15-7.807-8.213a89.05,89.05,0,0,0-12.306-6.252,2.064,2.064,0,0,0-2.736.717,2.016,2.016,0,0,0,.717,2.737Z"/><path class="b" d="M276.428,194.073a6.527,6.527,0,0,0,1.7-5.057c-.079-1.7-.336-3.412-.557-5.1-.621-4.752-1.32-9.5-2.165-14.212a2.016,2.016,0,0,0-2.46-1.4,2.044,2.044,0,0,0-1.4,2.46c.749,4.181,1.386,8.385,1.949,12.6.223,1.67.448,3.344.585,5.024a8.438,8.438,0,0,1,.023,1.825,3.622,3.622,0,0,1-.113.536c-.164.547.149-.2-.094.188.257-.408-.186.184-.3.312-1.737,1.895,1.084,4.731,2.828,2.828Z"/><path class="b" d="M233.493,145.851a13.143,13.143,0,0,0,4.1,1.023,13.749,13.749,0,0,0,3.908-.247,2.011,2.011,0,0,0,1.4-2.46,2.05,2.05,0,0,0-2.46-1.4q-.368.073-.739.124l.532-.071a12.348,12.348,0,0,1-3.185-.012l.532.072a10.157,10.157,0,0,1-2.448-.648l.478.2-.093-.04a2.193,2.193,0,0,0-1.541-.2,2,2,0,0,0-1.4,2.46,1.924,1.924,0,0,0,.92,1.195Z"/><path class="b" d="M211.338,68.577a106.986,106.986,0,0,0-9.062,27.905,84.891,84.891,0,0,0-1.226,14.647,77.675,77.675,0,0,0,1.855,14.662c1.059,5.3,2.207,10.613,2,16.05-.1,2.575,3.9,2.571,4,0,.357-9.58-3.284-18.7-3.791-28.2a81.991,81.991,0,0,1,3.8-27.914A109.934,109.934,0,0,1,214.792,70.6c1.094-2.315-2.353-4.347-3.454-2.019Z"/><path class="b" d="M275.466,67.432c-.071,5.966,1.937,11.574,3.949,17.1a66.282,66.282,0,0,1,4.154,17.671c.928,11.824-.571,23.777,1.9,35.476a39.225,39.225,0,0,0,7.47,16.489,2.011,2.011,0,0,0,2.828,0,2.048,2.048,0,0,0,0-2.828c-6.608-8.31-7.711-19.561-7.852-29.8-.084-6.057.124-12.121-.267-18.171a64.622,64.622,0,0,0-3.477-17.393c-2.112-6.019-4.786-12.051-4.709-18.55.03-2.574-3.97-2.576-4,0Z"/><path class="b" d="M271.165,120.017a118.519,118.519,0,0,0-.752,16.2c0,2.574,4,2.578,4,0,0-2.716.064-5.431.166-8.145.051-1.365.113-2.729.2-4.092.039-.612.083-1.223.137-1.833.021-.238.044-.475.069-.713.016-.15.128-1.01.036-.349a2.069,2.069,0,0,0-1.4-2.461,2.014,2.014,0,0,0-2.46,1.4Z"/><path class="a" d="M255.557,188.337s-2.271-3.231-4.221-3.719l-15.607-3.17-4.45,1.768c-2.286,2.011-3.989,6.41-4.356,7.975-.455,1.946-.046,2.021,1.978,2.276,2.156.272,8.7-.527,10.425-2.387a17.907,17.907,0,0,0,3.484-2.519c3.66,3.516,11.867,6.629,12.946,5.807C256.794,193.578,256.76,189.837,255.557,188.337Z"/><path class="f" d="M251.725,172.677c2.348.94,5.027,4.809,3.116,7.133,1.309,1.033.935,3.093.295,4.179-.034.059-.069.116-.1.172,2.651.42,4.96.792,4.96.792,3.78,1.262,6.462-1.311,5.243-3.993,3.17-.488,3.236-5.132,2.9-7.072-.485-2.846-2.49-4.7-6.692-5.344-1.368,1.544-3.656,2.63-7.034,2.6Z"/><path class="g" d="M257.068,170.908c8.032-1.626,7.273-11.066,1.872-12.215l-4.361-1.5a19.586,19.586,0,0,1-2.268,2.068l-1.255.993a8.619,8.619,0,0,1,1.869,3.593c.233,1.183.6,5.2-.3,7.289l1.786.013A12.865,12.865,0,0,0,257.068,170.908Z"/><path class="g" d="M235.868,182.112c-2.491.612-8.087.894-9.893-.3-2.267-1.5-2.589-5.687.605-6.021-5.5.021-2.556-8.611,1.115-8.316l2.527-3.273a4.606,4.606,0,0,0,4.356-.305c-.481,3.261,1.9,6.7,4.761,6.954l.234.021-1.13,2.942c-.688,1.79.668,3.025.62,4.616-.037,1.246-1.56,2.1-2.031,3.284l-.449.177A5.709,5.709,0,0,1,235.868,182.112Z"/><path class="g" d="M239.813,152.7a7.192,7.192,0,0,0-5.219-1.553c-2.895.385-3.5,2.994-3.05,5.389-6.065-1.26-4.316,11.652,3.5,7.116A5.367,5.367,0,0,1,239.063,161a3.894,3.894,0,0,1,3.652-4.2,9.268,9.268,0,0,1,1.443-.07,15.07,15.07,0,0,0-2.775-2.683A12.934,12.934,0,0,0,239.813,152.7Z"/><path class="f" d="M256.456,151.086c-.987-1.742-4.151-2.193-5.364-2.193a8.83,8.83,0,0,0-7.636,4.695,5.133,5.133,0,0,0-.472,2.255l.015.931a8.931,8.931,0,0,1,5.848,1.4,11.444,11.444,0,0,1,2.209,2.074l1.255-.993c1.82-1.44,5.121-4.389,4.382-7.565A2.29,2.29,0,0,0,256.456,151.086Z"/><path class="g" d="M241.508,185.3c-1.587.28-4.749-1.084-4.61-3.019.107-1.5,2.122-2.416,2.165-3.851.048-1.591-1.308-2.826-.62-4.616,1.269-3.3,4.494-3.672,7.476-2.173a5.463,5.463,0,0,0,3.516.676,6,6,0,0,1,2.29.358c2.348.94,5.027,4.809,3.116,7.133,1.309,1.033.935,3.093.295,4.179a3.781,3.781,0,0,1-3.6,2.09c-1.37.061-8.459.063-10.026-.777"/><path class="f" d="M239.339,170.853c-2.343-.207-4.359-2.545-4.754-5.175-.347-2.306,2.549-4.677,4.478-4.677a3.894,3.894,0,0,1,3.652-4.2,9.033,9.033,0,0,1,6.132,1.378,10.383,10.383,0,0,1,4.078,5.667c.295,1.5.813,7.561-1.323,8.457Z"/><path class="b" d="M239.339,168.853a3.388,3.388,0,0,1-1.78-1.191,4.955,4.955,0,0,1-1-2.207,1.168,1.168,0,0,1,.166-.733,3.035,3.035,0,0,1,.748-.917,4.037,4.037,0,0,1,.88-.591,2.4,2.4,0,0,1,.351-.141,2.922,2.922,0,0,1,.306-.079q-.3.027.051.007a2.024,2.024,0,0,0,2-2,1.741,1.741,0,0,1,.851-1.866,5.008,5.008,0,0,1,3.092-.347,7.654,7.654,0,0,1,5.394,4.019,5.247,5.247,0,0,1,.6,1.568c.02.1.026.2.052.3.094.344-.046-.476.007.056.082.813.142,1.624.147,2.442a11.234,11.234,0,0,1-.2,2.464c-.041.177-.092.348-.141.523-.034.109-.072.216-.114.322.1-.226.095-.241,0-.043-.085.182-.358.32-.024.067-.277.21.371-.168-.131.071a2.017,2.017,0,0,0-.717,2.736,2.044,2.044,0,0,0,2.736.718c1.877-.893,2.334-3.266,2.517-5.118a20.2,20.2,0,0,0-.233-5.355,11.341,11.341,0,0,0-4.207-6.474,10.839,10.839,0,0,0-8.24-2.246A5.957,5.957,0,0,0,237.063,161l2-2c-3.175.122-6.655,3.1-6.5,6.454a7.92,7.92,0,0,0,6.778,7.4,2.011,2.011,0,0,0,2-2,2.049,2.049,0,0,0-2-2Z"/><path class="b" d="M233.645,162.133c-.17.086-.342.164-.513.246.33-.158.158-.066-.076.013-.3.1-.614.154-.923.235-.194.051.257-.036.259-.035a1.1,1.1,0,0,0-.212.018c-.137,0-.273.009-.41,0-.092,0-.523-.048-.124,0,.383.045-.044-.019-.15-.047a3.482,3.482,0,0,0-.347-.11c-.043,0,.447.234.111.041-.089-.051-.18-.1-.267-.152-.049-.031-.1-.066-.146-.1-.279-.17.128.064.162.129-.073-.138-.322-.3-.437-.421-.321-.326.2.319.04.066-.063-.1-.134-.192-.195-.292-.117-.188-.2-.391-.308-.584-.044-.08.175.49.053.107-.041-.127-.085-.252-.121-.381a4.838,4.838,0,0,0-.141-.648c.078.172.048.528.024.139-.008-.131-.018-.261-.02-.392,0-.2.017-.4.026-.6.014-.311-.122.564-.011.117.026-.106.045-.214.074-.319s.056-.18.083-.27c.015-.05.042-.1.055-.149.057-.216-.235.443-.107.262a2.3,2.3,0,0,0,.291-.5c-.1.373-.29.337-.047.09s.249-.047-.095.045a1.186,1.186,0,0,0,.254-.162c.346-.236-.418.107-.091.029.1-.024.211-.054.31-.086.329-.108-.524.007-.066.011l.367,0c.508.006-.466-.094.065.01a2.031,2.031,0,0,0,2.46-2.461c0-.018-.061-.507-.036-.2s-.007-.146-.011-.206a6.75,6.75,0,0,1-.005-.779c.007-.127.106-.566-.007-.074.027-.121.044-.244.073-.365s.071-.234.1-.353c.086-.35-.133.193-.013.01.065-.1.108-.213.17-.313.047-.077.3-.317.091-.144s.086-.061.133-.114c.255-.288-.185.069,0,0a2.985,2.985,0,0,0,.33-.193c.387-.226-.334.072.127-.039.113-.027.227-.058.339-.087.545-.141-.319,0,.046-.015.137-.006,1.176.046,1.2.009-.031.049-.5-.093-.062,0,.117.024.234.045.349.073a7.166,7.166,0,0,1,.733.217c.069.024.53.244.137.046.105.053.212.1.317.152a9.449,9.449,0,0,1,.9.52,9.174,9.174,0,0,1,1.589,1.327,2,2,0,1,0,2.829-2.828c-2.376-2.337-5.514-4.014-8.921-3.389a5.274,5.274,0,0,0-3.788,2.832,8.059,8.059,0,0,0-.474,4.989l2.461-2.46a5,5,0,0,0-4.529,1.077,5.669,5.669,0,0,0-1.625,3.779,6.737,6.737,0,0,0,4.122,6.84,7.1,7.1,0,0,0,5.619-.712,2.014,2.014,0,0,0,.718-2.736,2.048,2.048,0,0,0-2.736-.718Z"/><path class="b" d="M244.984,155.843c-.007-.144.045-.743-.009-.375a3.426,3.426,0,0,1,.391-1.221c.112-.2.234-.4.364-.587.024-.035.269-.359.138-.195-.117.147.092-.1.094-.1a10.536,10.536,0,0,1,1.07-1.032c.179-.143.024-.015-.01.01.108-.077.216-.154.327-.227.194-.127.393-.247.595-.36.173-.1.349-.187.529-.273.04-.019.414-.179.212-.1-.161.065.188-.065.22-.076a8.694,8.694,0,0,1,1.31-.35c.094-.018.188-.035.282-.048-.36.05-.034.01.034.008.216-.008.431-.024.648-.021.233,0,.465.025.7.045.5.041-.324-.065.053,0,.188.035.377.065.564.1a9.363,9.363,0,0,1,1.029.28c.08.027.576.233.338.122-.221-.1.231.125.308.169.057.032.51.336.291.17s.165.171.224.225c.128.117.082.231-.053-.078.028.063.082.114.108.178.085.209-.056-.164-.055-.162.03.122.071.242.1.365.056.23,0-.026,0-.067.009.122.016.245.016.368,0,.092-.007.183-.01.274-.008.316.068-.3,0,.011-.039.18-.078.357-.132.533-.036.117-.076.233-.119.349-.108.293.125-.247-.019.035a9.951,9.951,0,0,1-.788,1.3c-.189.263.168-.2-.038.05-.081.1-.162.2-.245.292-.165.19-.335.375-.51.557a20.724,20.724,0,0,1-2.044,1.828,2.011,2.011,0,0,0,0,2.828,2.048,2.048,0,0,0,2.828,0,14.659,14.659,0,0,0,4.251-4.832c1.077-2.237,1.285-5.184-.776-6.946-3.275-2.8-8.642-2.472-12.035-.123-2.283,1.581-4.319,4.145-4.181,7.073a2.041,2.041,0,0,0,2,2,2.02,2.02,0,0,0,2-2Z"/><path class="b" d="M258.408,160.621c.26.058.509.174.767.23.226.049-.423-.214-.225-.094.064.039.139.065.2.1.12.062.238.13.352.2a2.306,2.306,0,0,0,.332.228c-.017-.006-.4-.344-.2-.146.042.041.091.078.134.117.173.157.353.472.549.582-.011-.006-.306-.434-.15-.192.033.049.07.1.1.146.068.1.132.2.192.3s.119.209.174.316c.034.067.064.136.1.2.151.3-.074-.11-.076-.186a4.145,4.145,0,0,0,.243.739c.031.119.058.239.083.359.015.076.025.153.041.228.069.317-.026-.448-.027-.209,0,.264.044.529.042.8,0,.126-.006.252-.015.378,0,.063-.011.126-.015.189-.02.294-.135.157.025-.154a4.417,4.417,0,0,0-.162.75c-.035.125-.073.248-.115.37-.021.061-.048.122-.066.183-.106.35.208-.421.051-.115-.13.251-.248.5-.4.745-.071.115-.149.224-.225.336-.046.068-.192.265,0,0,.217-.293-.023.018-.074.077a8.052,8.052,0,0,1-.642.638c-.356.322.192-.118-.028.031-.157.107-.311.218-.473.318s-.305.181-.462.263c-.088.045-.669.327-.373.185.277-.132-.259.092-.36.126-.212.072-.427.135-.644.191s-.457.11-.688.153c-.1.018-.192.033-.287.05-.5.091.451-.038-.066.009-.54.049-1.077.08-1.62.078a2,2,0,0,0,0,4c3.738.011,7.769-1.333,9.619-4.829a8.445,8.445,0,0,0-.351-8.615,7.076,7.076,0,0,0-4.21-2.937,2,2,0,1,0-1.064,3.857Z"/><path class="b" d="M261.9,170.654a9.7,9.7,0,0,1,2.082.682,7.328,7.328,0,0,1,.864.527c.172.124-.133-.132.116.1.134.127.259.263.392.39.111.107.156.18.031.015a4.755,4.755,0,0,1,.295.449c.076.129.142.263.211.4.1.19-.063-.241.042.109.09.3.175.6.245.9.031.138.06.633.016.02.008.112.025.224.036.337a11.341,11.341,0,0,1,.029,1.575c-.007.143-.016.286-.029.428-.006.066-.1.618-.015.161-.054.287-.108.572-.187.854-.039.139-.089.273-.13.411-.066.223.151-.259-.025.07-.073.135-.487.739-.213.422-.107.123-.217.232-.334.344.19-.183.13-.092-.051.016-.108.064-.409.139-.052.039-.173.049-.342.092-.518.125a2,2,0,0,0-1.4,2.46c.052.123.1.246.145.373,0,0,.115.53.085.285-.028-.224-.007.142-.006.184.008.312.041-.318.01-.015-.016.168-.1.357.014.088-.045.1-.109.2-.162.3-.086.165-.129.142,0,.009-.033.034-.375.349-.192.2.14-.111-.5.268-.365.211s-.716.169-.421.129a3.856,3.856,0,0,1-1.892-.233c-2.463-.77-3.516,3.09-1.063,3.857a6.667,6.667,0,0,0,6.441-1.033,4.816,4.816,0,0,0,1.262-5.421l-1.4,2.461c3.732-.68,4.75-5.077,4.462-8.3a8.459,8.459,0,0,0-1.928-4.921,9.822,9.822,0,0,0-5.338-2.869,2.043,2.043,0,0,0-2.461,1.4,2.023,2.023,0,0,0,1.4,2.46Z"/><path class="b" d="M227.7,165.477c-3.061-.177-5.362,2.945-5.951,5.642a6.121,6.121,0,0,0,.485,4.418,4.926,4.926,0,0,0,4.351,2.256v-4a4.584,4.584,0,0,0-4.19,3.366,5.912,5.912,0,0,0,4.985,7.214,22.279,22.279,0,0,0,5.023.212,16.36,16.36,0,0,0,4.716-.763,2.057,2.057,0,0,0,1.4-2.46,2.015,2.015,0,0,0-2.46-1.4,8.847,8.847,0,0,1-1.652.409c-.173.029-.347.055-.521.081.55-.083-.171.017-.273.028-.4.043-.8.076-1.207.1-.834.052-1.672.07-2.507.041-.4-.014-.8-.038-1.195-.078-.211-.022-.458-.067-.1-.008-.2-.033-.4-.064-.592-.106-.308-.065-.6-.169-.9-.254.526.149.166.085.015-.013-.117-.075-.413-.361-.081-.035-.142-.139-.28-.276-.415-.421.218.234.085.116-.033-.075-.062-.1-.325-.686-.13-.183-.053-.137-.1-.275-.143-.416s-.1-.746-.066-.177c-.008-.14-.01-.283-.021-.423,0-.092,0-.185.013-.277-.047.305-.05.347-.01.128.044-.123.076-.258.112-.384-.147.511.008.052.1-.1-.357.57.039.028.041.014q-.346.255-.073.073.288-.15-.087.013c.1-.036.744-.174.253-.111a2.065,2.065,0,0,0,2-2,2.028,2.028,0,0,0-2-2c-.148,0-.3-.015-.443-.018.528.011.152.033,0-.012a2.013,2.013,0,0,0-.354-.105c.356.017.289.169.063.011-.356-.246.023.09.051.07-.015.011-.211-.2-.225-.215-.237-.18.181.354.063.081-.016-.036-.159-.264-.151-.267.04-.017.168.551.048.091-.027-.1-.053-.207-.082-.309-.111-.405-.012.091.006.1a1.029,1.029,0,0,1-.016-.281c0-.115,0-.229,0-.344,0-.074.034-.512,0-.144s.014-.07.03-.148c.024-.12.051-.239.082-.357.057-.219.144-.43.2-.648.108-.394-.184.357-.012.018.056-.111.106-.225.163-.335.115-.219.249-.424.378-.635.082-.134.336-.364-.028.016.081-.085.151-.183.231-.27s.368-.467.5-.475c-.111.007-.4.255-.05.053a3.2,3.2,0,0,0,.278-.162c.272-.2-.441.108-.1.036a1.583,1.583,0,0,0,.246-.073c.354-.149-.232-.025-.131.007a1.851,1.851,0,0,0,.357,0,2,2,0,0,0,0-4Z"/><path class="b" d="M229.865,181.8a15.884,15.884,0,0,0-3.636,5.476c-.73,1.663-1.785,3.862-1.393,5.729.453,2.154,2.922,2.456,4.75,2.507a24.849,24.849,0,0,0,5.451-.557c1.961-.387,4.269-.974,5.7-2.463a2,2,0,1,0-2.828-2.828c-.029.03-.286.25-.282.261-.011-.034.437-.287.153-.126-.063.036-.124.082-.185.12-.134.082-.271.157-.411.228-.055.028-.111.053-.166.082-.31.159-.012.077.066-.019-.161.2-.8.3-1.048.375-.382.119-.768.222-1.157.315-.805.193-1.619.336-2.438.454.526-.076-.079.006-.216.021q-.288.031-.578.057-.57.051-1.142.073a10.781,10.781,0,0,1-1.7-.051c-.069-.009-.433-.067-.141-.018.262.044.017,0-.03-.007-.164-.029-.327-.066-.491-.095a1.274,1.274,0,0,0-.2-.058c.014-.007.471.233.229.1-.153-.087-.125-.168.217.175l.221.292c-.065-.118-.053-.083.036.1.2.428,0-.193.079.262.077.474.03.088.023.075,0,.01.008-.224.012-.223.055.014-.089.465-.015.138s.139-.65.234-.971c.086-.291.183-.579.285-.865q.095-.267.2-.531c.036-.093.073-.187.11-.279.021-.052.191-.456.079-.2s.034-.075.06-.133c.056-.126.113-.253.171-.379q.162-.35.336-.694c.237-.471.49-.933.764-1.384q.2-.338.424-.664c.065-.095.131-.19.2-.284.028-.041.313-.412.149-.207s.068-.078.106-.123c.087-.1.177-.206.269-.306.177-.193.364-.375.559-.55a2.013,2.013,0,0,0,0-2.828,2.044,2.044,0,0,0-2.828,0Z"/><path class="b" d="M253.83,189.346c.122.161.214.327.319.5.05.082.132.339-.006-.037.039.105.076.211.11.318.061.195.11.394.152.593.025.117.046.235.065.353.051.313-.011-.461,0,.1.011.439-.016.88-.006,1.318.007.3.071-.328.007-.05-.018.075-.028.151-.045.226s-.062.19-.075.281c-.058.394.123-.209.033-.051s-.165.118.006.04c.345-.158-.225.119.171-.156.513-.356-.295.155.314-.179.264-.144.251-.1.153-.07-.339.1.526.013.257-.03a2.334,2.334,0,0,0-.313,0c-.073,0-.224-.055-.283-.026.234-.115.5.088.073,0-.287-.059-.571-.123-.854-.2-.695-.187-1.377-.419-2.05-.674q-.282-.107-.563-.219c-.074-.03-.573-.238-.338-.138s-.272-.12-.348-.154q-.335-.15-.668-.307a28.326,28.326,0,0,1-4.5-2.6c-.085-.061-.168-.124-.252-.185-.407-.294.2.166-.02-.015-.173-.14-.346-.28-.514-.427a10.835,10.835,0,0,1-.9-.87c-.115-.126-.217-.268-.335-.39.382.4.023.02-.074-.134s-.158-.3-.249-.44c-.184-.285.112.171.073.186-.005,0-.094-.279-.1-.291a2,2,0,1,0-3.857,1.064,8.971,8.971,0,0,0,3.3,4.272,28.357,28.357,0,0,0,5.4,3.285,27.779,27.779,0,0,0,5.257,1.981c1.659.4,3.5.554,4.541-1.1a6.533,6.533,0,0,0,.761-3.764,7.459,7.459,0,0,0-1.2-4.022,2.064,2.064,0,0,0-2.736-.717,2.013,2.013,0,0,0-.718,2.736Z"/><path class="b" d="M240.976,183.373c.511-.07-.263-.044-.075-.028.132.011-.4-.083-.523-.117a3.328,3.328,0,0,1-1.176-.559c-.042-.03-.1-.1-.3-.286.279.257-.07-.067-.026-.058-.014,0,.125.3.021.057-.117-.273,0,.294-.005-.007,0-.256.014.022.009.024-.2.139.244-.359.146-.225.845-1.152,1.873-2.013,1.993-3.541.1-1.288-.572-2.392-.777-3.527a2.337,2.337,0,0,1,1.087-1.965,2.955,2.955,0,0,1,2.257-.229c1.175.295,2.183,1.033,3.377,1.275,1.291.263,2.7-.12,3.941.323a4.435,4.435,0,0,1,2.048,1.91c.076.128.314.6.309.59.056.143.095.292.137.439l.052.219c0-.129,0-.124.006.016a1.936,1.936,0,0,1-.022.531c-.059.2-.013.074.016.024a5.1,5.1,0,0,1-.361.561,2,2,0,0,0,.312,2.424c.33.29.373.587.232,1.111,0,0-.2.61-.074.31a3.781,3.781,0,0,1-.248.455,3.69,3.69,0,0,0-.216.325s-.442.423-.252.28a2.3,2.3,0,0,1-1.493.38c-.486.018-.973.018-1.459.017-1.5,0-3.011-.038-4.511-.14-.347-.024-.694-.051-1.041-.084-.2-.019-.391-.04-.587-.063-.39-.044.116.022-.1-.014-.289-.046-.577-.093-.861-.163-.12-.029-.26-.088-.381-.105-.358-.05.386.191.086.042a2.049,2.049,0,0,0-2.736.718,2.018,2.018,0,0,0,.717,2.736,13.86,13.86,0,0,0,5.337.96c1.7.1,3.411.136,5.115.106,2.319-.041,4.238-.67,5.617-2.636,1.441-2.054,1.715-5.282-.312-7.064l.313,2.424c2.216-2.917.137-6.985-2.363-8.949a7.64,7.64,0,0,0-5.083-1.543,8.7,8.7,0,0,1-1.208-.013c.337.042-.343-.107-.466-.153-.727-.274-1.584-.768-2.419-1.012a6.686,6.686,0,0,0-8.41,3.88c-.75,1.893.008,3.382.447,5.2-.041-.171,0,.2,0,.2,0-.081.133-.357.01-.149a2.284,2.284,0,0,1-.408.549,7.44,7.44,0,0,0-1.544,2.307c-1.429,4,3.647,6.545,6.918,6.092a2.014,2.014,0,0,0,1.4-2.461,2.054,2.054,0,0,0-2.46-1.4Z"/><path class="b" d="M240.189,118.979a10.705,10.705,0,0,0,5.155,1.208,8.557,8.557,0,0,0,5.353-1.643,2,2,0,0,0,.586-1.414,2.032,2.032,0,0,0-.586-1.414,2.01,2.01,0,0,0-1.414-.586,2.34,2.34,0,0,0-1.414.586c.7-.545.062-.069-.154.045-.17.089-.586.221.073-.014-.136.048-.269.1-.407.148-.375.12-.759.166-1.139.26.176-.044.42-.05.094-.018-.112.011-.223.02-.335.027-.27.018-.54.025-.81.023q-.363,0-.725-.026c-.111-.008-.221-.016-.332-.028q-.094-.009-.189-.021-.24-.028.231.031c-.334-.116-.72-.133-1.064-.236-.149-.045-.294-.1-.441-.148-.419-.144.458.215.077.036q-.273-.129-.54-.27a2,2,0,1,0-2.019,3.454Z"/><path class="b" d="M243.981,107.283a22.326,22.326,0,0,1,.527,2.411l-.072-.531a1.418,1.418,0,0,1,.01.332l.071-.531a.773.773,0,0,1-.037.149l.2-.477a.646.646,0,0,1-.053.1l.313-.405a.53.53,0,0,1-.079.078l.405-.313a1.514,1.514,0,0,1-.191.1l.478-.2a1.4,1.4,0,0,1-.322.094l.531-.071a1.271,1.271,0,0,1-.3,0l.532.072c-.114-.016-.226-.044-.34-.059a1.511,1.511,0,0,0-.8-.036,1.492,1.492,0,0,0-.744.237,2,2,0,0,0-.717,2.737l.313.405a2,2,0,0,0,.882.514c.327.044.644.125.978.14a3.249,3.249,0,0,0,1.527-.376,2.373,2.373,0,0,0,1.264-1.543,3.538,3.538,0,0,0-.011-1.576c-.132-.777-.311-1.546-.511-2.308a2,2,0,0,0-2.46-1.4,2.021,2.021,0,0,0-1.195.919,2.1,2.1,0,0,0-.2,1.541Z"/><path class="b" d="M231.969,100.252c-.4,1.309-.14,4.318,2.339,4.575,3.276-.02,3.45-3.659,2.347-5.37C235.752,98.056,233.1,97.474,231.969,100.252Z"/><path class="b" d="M258.205,100.252c.4,1.309.14,4.319-2.338,4.575-3.277-.02-3.451-3.659-2.348-5.37C254.422,98.056,257.077,97.474,258.205,100.252Z"/><path class="a" d="M152.414,124.939c-.447-.2-2.1-.851-2.3-.923-2.985-1.077-2.867-3-3.243-5.144a41.7,41.7,0,0,1-.664-7.458c5.577-3.639,9.853-10.893,10.678-13.134.141-.426.426-1.227.687-2.2L158.1,96a6.7,6.7,0,0,0,3.12-1.406,10.123,10.123,0,0,0,2.617-3.434,15.918,15.918,0,0,0,1.624-8.44,5.312,5.312,0,0,0-.557-2.138,3.755,3.755,0,0,0-2.7-1.8,3.976,3.976,0,0,0-3.184.931s-.176-24.866-28.712-24.866-24.7,24.866-24.7,24.866a3.976,3.976,0,0,0-3.184-.931,3.755,3.755,0,0,0-2.7,1.8,5.328,5.328,0,0,0-.557,2.138,15.927,15.927,0,0,0,1.624,8.44A10.123,10.123,0,0,0,103.4,94.6,6.7,6.7,0,0,0,106.524,96l1.017.156a27.076,27.076,0,0,0,5.16,10.074,24.153,24.153,0,0,0,6.8,5.781,42.115,42.115,0,0,1-.661,6.858c-.376,2.147-.258,4.067-3.243,5.144-.2.072-1.436.591-1.8.747,0,0,2.811,11.985,17.876,11.985A23.084,23.084,0,0,0,152.414,124.939Z"/><path class="a" d="M120.115,136.774c4.306,12.337,10.207,26.1,13.383,32.964l.835,1.726.01.008a277.3,277.3,0,0,0,11.639-32.435,126.806,126.806,0,0,0,4.249-18.168c-.13-.182-.261-.364-.4-.528a18.294,18.294,0,0,0-3.148-3.9,39.826,39.826,0,0,1-11.491,8.008c-.238.108-.5.24-.58.489a.926.926,0,0,0,.133.649h-4.185a.92.92,0,0,0,.132-.649c-.076-.249-.342-.381-.579-.489a39.813,39.813,0,0,1-11.491-8.008,18.676,18.676,0,0,0-3.42,4.352c-.065.126-.137.264-.206.4C116.128,124.86,117.916,130.475,120.115,136.774Z"/><path class="b" d="M117.5,112.2q-.026,1.319-.133,2.634c-.058.7-.153,1.568-.229,2.085-.174,1.184-.308,2.417-.6,3.58-.027.108-.055.215-.088.321l-.041.126c-.061.164-.059.166.007.008s.069-.156,0,0l-.06.118c-.063.119-.142.226-.207.343.108-.194.2-.223.009-.026-.086.086-.174.17-.261.256-.32.313.315-.167-.105.068-.128.071-.252.151-.382.219-.092.048-.387.18-.145.08-.1.042-.207.077-.309.117-.177.07-.353.144-.53.217q-.822.341-1.64.689a2,2,0,0,0-.717,2.736,2.063,2.063,0,0,0,2.736.718c.284-.121.053-.008-.1.041.128-.041.259-.108.384-.161.25-.1.5-.209.752-.311a13.446,13.446,0,0,0,1.822-.8,5.856,5.856,0,0,0,2.665-3.438,27.14,27.14,0,0,0,.651-3.719,46.861,46.861,0,0,0,.522-5.9,2,2,0,0,0-4,0Z"/><path class="b" d="M144.207,112.2a46.855,46.855,0,0,0,.57,6.222,19.894,19.894,0,0,0,.707,3.712,5.864,5.864,0,0,0,3.049,3.378c.551.261,1.13.463,1.7.687.278.109.555.22.832.331.131.053.261.107.392.159.464.186-.31-.135-.049-.022a2.056,2.056,0,0,0,2.737-.717,2.023,2.023,0,0,0-.718-2.737c-.916-.4-1.845-.773-2.78-1.124-.579-.217.231.161-.262-.113-.131-.072-.262-.142-.391-.217-.172-.1-.282-.194-.061-.014a3.5,3.5,0,0,1-.33-.3c-.052-.054-.272-.374-.113-.118s-.072-.14-.1-.193c-.017-.03-.169-.262-.147-.3-.019.029.152.414.018-.017a24.2,24.2,0,0,1-.622-3.461,40.028,40.028,0,0,1-.427-5.159,2,2,0,0,0-4,0Z"/><path class="e" d="M128.918,132.675c.052.222.106.445.162.667a5.893,5.893,0,0,1,.243,1.48c0,.532-3.3,27.211-3.91,32.326,1.512,2.095,6.184,8.678,8.39,10.679,1.925-1.856,6.026-7.905,7.725-10.6-.472-4.155-4.7-31.415-4.684-32.242a8.929,8.929,0,0,1,.577-2.626c.752-2.3.9-3.9,1.655-6.193-2.232,0-9.911.018-11.532.018C128.091,128.349,128.413,130.512,128.918,132.675Z"/><path class="b" d="M129.4,136.766c2.482,0,4.964-.055,7.446-.056a2,2,0,0,0,0-4c-2.482,0-4.964.055-7.446.056a2,2,0,0,0,0,4Z"/><path class="b" d="M126.989,133.206a6.605,6.605,0,0,1,.231,2.592c-.118,1.033-.242,2.066-.366,3.1q-.612,5.117-1.241,10.233-.685,5.621-1.374,11.24-.272,2.212-.541,4.425c-.152,1.251-.532,2.519.188,3.64,1.22,1.9,2.668,3.7,4.035,5.493a40.977,40.977,0,0,0,4.468,5.313,2.037,2.037,0,0,0,2.828,0,39.913,39.913,0,0,0,4.26-5.39q1.084-1.525,2.125-3.081a12.208,12.208,0,0,0,1.855-3.01c.284-1.031-.177-2.461-.32-3.484q-.322-2.3-.664-4.6c-1.084-7.386-2.227-14.764-3.292-22.153q-.123-.852-.242-1.706c-.072-.506.044.431-.034-.257-.015-.127-.039-.256-.046-.384a9.952,9.952,0,0,1,.762-3.17c.507-1.759.829-3.562,1.383-5.309a2.017,2.017,0,0,0-1.928-2.531c-3.844,0-7.688.017-11.532.018a2.023,2.023,0,0,0-1.928,2.531c.528,2.149.882,4.333,1.373,6.489.572,2.509,4.429,1.447,3.857-1.063-.491-2.156-.845-4.341-1.373-6.489l-1.929,2.532c3.844,0,7.688-.018,11.532-.018l-1.929-2.532c-.384,1.213-.669,2.445-.964,3.683-.322,1.354-.841,2.667-1.127,4.026a6.926,6.926,0,0,0-.117,2.477c.276,2.136.6,4.266.917,6.4.92,6.214,1.865,12.424,2.777,18.639q.3,2.073.6,4.149.057.4.112.8c.028.2.116.863.042.3.049.371.1.743.141,1.116l.273-1.01c-2.2,3.473-4.473,7.289-7.412,10.194h2.828c-3.159-2.932-5.57-6.8-8.077-10.275l.273,1.01c1.189-9.883,2.436-19.759,3.607-29.643.085-.718.173-1.435.25-2.154a9.428,9.428,0,0,0-.424-3.208C130.25,129.64,126.392,130.7,126.989,133.206Z"/><path class="a" d="M141.859,134.4c3.69-3.667,6.107-8.109,8.833-12.546a19.655,19.655,0,0,0-4-5.41,39.826,39.826,0,0,1-11.491,8.008c-.238.108-.5.24-.58.489a.926.926,0,0,0,.133.649,37.079,37.079,0,0,0,2.377,3.069C138.743,130.639,140.773,133.064,141.859,134.4Z"/><path class="a" d="M123.454,134.4c-3.69-3.667-6.107-8.109-8.833-12.546a19.634,19.634,0,0,1,4.005-5.41,39.813,39.813,0,0,0,11.491,8.008c.237.108.5.24.579.489a.92.92,0,0,1-.132.649,37.079,37.079,0,0,1-2.377,3.069C126.57,130.639,124.539,133.064,123.454,134.4Z"/><path class="b" d="M143.273,135.815a51.581,51.581,0,0,0,7.257-9.836c.52-.856,1.035-1.716,1.556-2.571a2.749,2.749,0,0,0,.57-1.819,4.726,4.726,0,0,0-.737-1.657,21.22,21.22,0,0,0-3.818-4.9,2.035,2.035,0,0,0-2.828,0A37.03,37.03,0,0,1,139.15,120c-1.085.7-2.2,1.356-3.352,1.949-1.173.606-2.715,1.03-3.11,2.467a3.365,3.365,0,0,0,.843,2.92c.761,1.009,1.562,1.988,2.362,2.965,1.511,1.845,3.047,3.669,4.552,5.519a2.013,2.013,0,0,0,2.828,0,2.047,2.047,0,0,0,0-2.829c-1.256-1.543-2.535-3.069-3.8-4.6-.712-.864-1.424-1.73-2.122-2.607-.234-.293-.335-.414-.539-.693a3.775,3.775,0,0,0-.248-.352c-.192-.2.093-.292.053.213l-.273,1.01c-.393.321-.439.4-.137.228l.267-.123c.27-.127.539-.254.806-.386q.818-.407,1.616-.851,1.644-.918,3.2-1.987a42.1,42.1,0,0,0,6.009-4.974h-2.828a18.572,18.572,0,0,1,3.692,5.006v-2.019c-2.589,4.223-5,8.6-8.52,12.14C138.627,134.813,141.454,137.643,143.273,135.815Z"/><path class="b" d="M124.868,132.986c-3.522-3.539-5.931-7.917-8.52-12.14v2.019a18.572,18.572,0,0,1,3.692-5.006h-2.829a42.286,42.286,0,0,0,6.01,4.974q1.551,1.066,3.2,1.987.732.408,1.481.783.4.2.806.391.2.095.4.186c.3.17.256.093-.138-.228l-.273-1.01c-.036-.469.254-.427.054-.213a2.854,2.854,0,0,0-.2.285c-.249.348-.312.415-.587.76-.7.877-1.41,1.743-2.123,2.607-1.265,1.536-2.544,3.062-3.8,4.6a2.061,2.061,0,0,0,0,2.829,2.015,2.015,0,0,0,2.829,0c1.474-1.812,2.979-3.6,4.46-5.406.81-.988,1.617-1.979,2.391-3a3.438,3.438,0,0,0,.906-3c-.385-1.4-1.833-1.814-2.976-2.4s-2.268-1.234-3.354-1.932a37.2,37.2,0,0,1-6.255-5.051,2.038,2.038,0,0,0-2.829,0,21.168,21.168,0,0,0-3.743,4.772,6.907,6.907,0,0,0-.776,1.521,2.576,2.576,0,0,0,.534,2.085c.522.855,1.037,1.715,1.557,2.571a51.619,51.619,0,0,0,7.256,9.836C123.858,137.642,126.686,134.814,124.868,132.986Z"/><path class="h" d="M154.325,72.05a40.589,40.589,0,0,1,4.559,7.8,3.952,3.952,0,0,1,3.319-1.061,3.485,3.485,0,0,1,.693.175c1.98-5.084,2.27-12.449-.229-19.437-1.757-4.912-6.138-10.06-9.249-11.494l-4.492-3.23c-3.826-5.242-9.612-8-17.776-8.254C123.5,36.315,114.7,37.859,108,44.6l2.155,2.176c-3.946,2.533-7.036,7.28-8.469,11.491-1.72,5.048-2.233,12.232-.192,20.719l.015.061a3.769,3.769,0,0,1,.915-.257,3.933,3.933,0,0,1,3.407,1.151c7.7-7.362,14.41-11.732,21.178-17.049a17.537,17.537,0,0,0,1.819,4.193c.459.186,5.5-2.978,9.011-5.144l5.531,1.455a20.651,20.651,0,0,1,6.484,3.8A30.7,30.7,0,0,1,154.325,72.05Z"/><path class="b" d="M160.433,81.135a1.913,1.913,0,0,1,2.681.354,4.27,4.27,0,0,1,.4,2.161,13.16,13.16,0,0,1-.181,2.7c-.586,3.211-2.19,7.08-5.763,7.721a2.017,2.017,0,0,0-1.4,2.46,2.044,2.044,0,0,0,2.46,1.4c5.687-1.02,8.4-7.427,8.832-12.581.223-2.695-.034-5.713-2.358-7.449a6.012,6.012,0,0,0-7.5.4,2.016,2.016,0,0,0,0,2.829,2.044,2.044,0,0,0,2.828,0Z"/><path class="b" d="M156.06,93.04a14.753,14.753,0,0,1-.866,3.99c-.078.239-.171.477-.24.718-.039.136-.2.459.047-.094-.126.284-.256.564-.4.841a34.109,34.109,0,0,1-2.941,4.729c-2.522,3.459-6.019,7.158-10.292,8.161-2.505.587-1.444,4.445,1.064,3.857,5.306-1.245,9.416-5.577,12.537-9.8,2.69-3.642,4.9-7.771,5.087-12.4.1-2.574-3.9-2.569-4,0Z"/><path class="b" d="M107.02,78.306a6.013,6.013,0,0,0-7.5-.4c-2.328,1.73-2.582,4.759-2.359,7.449.428,5.154,3.146,11.561,8.832,12.581a2.056,2.056,0,0,0,2.46-1.4,2.017,2.017,0,0,0-1.4-2.46c-3.574-.641-5.177-4.511-5.763-7.721a12.952,12.952,0,0,1-.184-2.549,4.986,4.986,0,0,1,.338-2.21,1.894,1.894,0,0,1,2.745-.46,2.055,2.055,0,0,0,2.828,0,2.016,2.016,0,0,0,0-2.829Z"/><path class="b" d="M104.756,92.871a31.172,31.172,0,0,0,6.652,14.919c3.754,4.444,8.725,7.628,14.572,8.26a2.013,2.013,0,0,0,2-2,2.045,2.045,0,0,0-2-2c-4.887-.528-8.957-3.693-11.987-7.381a27.479,27.479,0,0,1-5.38-12.861,2.018,2.018,0,0,0-2.461-1.4,2.045,2.045,0,0,0-1.4,2.46Z"/><path class="b" d="M152.409,49.76a14.841,14.841,0,0,1,4.851,4.283,22.012,22.012,0,0,1,3.783,6.911,27.2,27.2,0,0,1,.276,16.5c-.785,2.457,3.076,3.51,3.858,1.063a31,31,0,0,0-.426-19.071,26.78,26.78,0,0,0-4.415-7.918,17.963,17.963,0,0,0-5.908-5.219c-2.307-1.119-4.337,2.33-2.019,3.454Z"/><path class="b" d="M112.063,43.606c-6.215,2.387-10.563,8.516-12.5,14.709-2.135,6.832-1.622,14.326,0,21.2.589,2.5,4.447,1.444,3.857-1.064-1.415-6.009-1.889-12.472-.177-18.476,1.41-4.943,4.869-10.589,9.882-12.514a2.058,2.058,0,0,0,1.4-2.46,2.016,2.016,0,0,0-2.46-1.4Z"/><path class="b" d="M150.653,43.794a22.428,22.428,0,0,0-15.023-8.831,38.056,38.056,0,0,0-19.076,1.8,28.831,28.831,0,0,0-9.97,6.423c-1.832,1.814,1,4.642,2.828,2.828,5.4-5.351,12.717-7.466,20.183-7.486,6.665-.018,13.45,1.689,17.6,7.286a2.062,2.062,0,0,0,2.737.717,2.013,2.013,0,0,0,.717-2.736Z"/><path class="b" d="M137.513,59.792c-2.688,1.65-5.338,3.389-8.112,4.892-.223.12-.447.235-.672.351-.08.04-.161.079-.243.116q.368-.145.094-.042-1.116.315,1.8.764c-.056-.09-.109-.182-.158-.276a5.49,5.49,0,0,0-.281-.571,10.916,10.916,0,0,1-1-2.667c-.276-1.656-2.3-1.7-3.343-.882-6.881,5.391-14.039,10.365-20.44,16.349-1.884,1.762.949,4.586,2.829,2.828,6.4-5.983,13.559-10.958,20.439-16.349l-3.342-.882a15.065,15.065,0,0,0,1.505,3.829c.672,1.376,1.749,2.179,3.3,1.619a25.156,25.156,0,0,0,4.244-2.307c1.811-1.09,3.6-2.212,5.4-3.318,2.19-1.345.183-4.806-2.019-3.454Z"/><path class="b" d="M142.836,65.324c6.7,2.63,11.2,8.746,14.134,15.109a2.016,2.016,0,0,0,2.736.718,2.047,2.047,0,0,0,.718-2.737,40.86,40.86,0,0,0-6.487-9.991,27.518,27.518,0,0,0-4.7-4.232,24.913,24.913,0,0,0-5.334-2.724,2.015,2.015,0,0,0-2.461,1.4,2.048,2.048,0,0,0,1.4,2.46Z"/><path class="h" d="M187.5,148.542c-.276-5.5-1.268-9.715-6.709-14.057-1.274-1.017-3.063-1.306-4.5-2.086A223.811,223.811,0,0,0,150.4,119.961a134.623,134.623,0,0,1-4.42,19.076,277.3,277.3,0,0,1-11.639,32.435l-.01-.008-.835-1.726c-3.176-6.859-9.077-20.627-13.383-32.964-2.223-6.368-4.029-12.044-5.154-15.708A233.131,233.131,0,0,0,91.805,132.4c-1.433.78-3.221,1.069-4.5,2.086-5.44,4.342-6.433,8.56-6.709,14.057-.72,14.332-1.62,29.485-2.483,44.638,23.1-.042,66.054-.13,111.853-.233C189.112,177.872,188.217,162.8,187.5,148.542Z"/><path class="b" d="M151,122.34c5.483,2.236,10.851,4.734,16.116,7.442,2.614,1.345,5.194,2.753,7.787,4.137,1.085.58,2.22.96,3.352,1.429a10.051,10.051,0,0,1,3.272,2.489c3.427,3.542,3.828,7.893,4.065,12.584q.481,9.533.986,19.064.585,11.013,1.206,22.025c.145,2.559,4.146,2.576,4,0q-1.146-20.307-2.168-40.621c-.266-5.251-.665-10.216-4.048-14.492a15.318,15.318,0,0,0-6.613-5.043,72.5,72.5,0,0,1-7.805-3.978q-9.335-4.9-19.087-8.893a2.013,2.013,0,0,0-2.46,1.4,2.049,2.049,0,0,0,1.4,2.46Z"/><path class="b" d="M138.883,185.4a4.281,4.281,0,0,1,.035-.519l-.071.531a3.467,3.467,0,0,1,.219-.813l-.2.478a2.876,2.876,0,0,1,.361-.615l-.313.405a2.793,2.793,0,0,1,.427-.422l-.405.313a2.885,2.885,0,0,1,.555-.324l-.477.2a3.508,3.508,0,0,1,.866-.231l-.532.071a4.08,4.08,0,0,1,1.018,0l-.532-.072a3.51,3.51,0,0,1,.781.211l-.478-.2a2.956,2.956,0,0,1,.568.324l-.405-.313a2.794,2.794,0,0,1,.487.485l-.313-.405a3.1,3.1,0,0,1,.344.592l-.2-.477a3.869,3.869,0,0,1,.258.958l-.071-.531a4,4,0,0,1,.013.966l.071-.531a3.336,3.336,0,0,1-.21.785l.2-.478a3.111,3.111,0,0,1-.371.645l.313-.405a2.945,2.945,0,0,1-.46.467l.405-.313a2.991,2.991,0,0,1-.608.363l.478-.2a3.525,3.525,0,0,1-.856.233l.532-.072a4.271,4.271,0,0,1-1,.01l.532.071a3.083,3.083,0,0,1-.756-.2l.478.2a2.717,2.717,0,0,1-.541-.312l.4.312a2.749,2.749,0,0,1-.46-.461l.313.405a3.16,3.16,0,0,1-.379-.657l.2.478a3.951,3.951,0,0,1-.254-.937l.071.532a4.488,4.488,0,0,1-.039-.555,2,2,0,0,0-4,0,5.113,5.113,0,0,0,2.5,4.573,5.263,5.263,0,0,0,6.2-1.038,4.871,4.871,0,0,0,1.156-2.387,5.672,5.672,0,0,0-.219-2.86,4.857,4.857,0,0,0-2.039-2.559,5.53,5.53,0,0,0-3.67-.581,4.65,4.65,0,0,0-3.084,1.947,5.082,5.082,0,0,0-.848,2.9,2,2,0,0,0,4,0Z"/><path class="b" d="M174.6,189.436c.431-7,.941-14,1.643-20.983.718-7.139,2.058-14.16,3.291-21.221.738-4.224,1.381-8.468,1.71-12.744.2-2.568-3.8-2.555-4,0-.58,7.53-2.226,14.914-3.461,22.351-1.11,6.679-1.759,13.407-2.3,20.152q-.5,6.217-.881,12.445c-.158,2.571,3.843,2.561,4,0Z"/><path class="b" d="M87.04,134.488c.6,7.8,2.131,15.47,3.357,23.182,1.046,6.579,1.616,13.18,2.088,19.821.3,4.178.568,8.358.854,12.537.175,2.555,4.176,2.574,4,0-.484-7.065-.9-14.139-1.531-21.194-.641-7.164-1.9-14.236-3.072-21.326-.718-4.321-1.361-8.651-1.7-13.02-.2-2.551-4.2-2.572-4,0Z"/><path class="b" d="M80.006,191.584c.716-12.57,1.618-25.128,2.316-37.7.255-4.607-.083-9.732,2.467-13.8a11.946,11.946,0,0,1,5.239-4.8,77.6,77.6,0,0,0,7.794-3.845c5.817-3.082,11.735-5.964,17.815-8.492a2.066,2.066,0,0,0,1.4-2.46,2.014,2.014,0,0,0-2.461-1.4q-8.614,3.582-16.882,7.9a84.266,84.266,0,0,1-7.816,4.1,14.515,14.515,0,0,0-3.78,1.832,20.808,20.808,0,0,0-3.106,2.923c-3.378,3.959-4.174,8.591-4.432,13.638-.334,6.53-.738,13.057-1.154,19.582-.479,7.507-.969,15.014-1.4,22.524-.147,2.572,3.853,2.563,4,0Z"/><path class="h" d="M133.5,169.738c-3.176-6.859-9.077-20.627-13.383-32.964-2.69-7.706-4.77-14.4-5.771-17.739-1.8,0-11.054,9.487-12.338,12.823-.084.218,5.085,4.678,6.828,6.241a45.5,45.5,0,0,0-4.626,5.345c-.036.24,23.742,29.876,26.51,32.687Z"/><path class="b" d="M112.416,119.567a398.3,398.3,0,0,0,15.28,41.975c1.318,3.086,2.667,6.159,4.075,9.205a2.015,2.015,0,0,0,2.736.718,2.047,2.047,0,0,0,.718-2.737,374.422,374.422,0,0,1-15.942-40.655q-1.56-4.767-3.01-9.57c-.739-2.459-4.6-1.411-3.857,1.064Z"/><path class="b" d="M107.419,136.685a40.106,40.106,0,0,0-4.072,4.546c-.89,1.118-1.533,2.24-.631,3.563,1.436,2.1,3.165,4.061,4.75,6.053q8.049,10.109,16.245,20.1c1.821,2.214,3.587,4.544,5.593,6.6,1.8,1.845,4.628-.985,2.828-2.829-3.62-3.707-6.754-8-10.017-12.011q-6.712-8.257-13.333-16.592-1.128-1.424-2.245-2.856c-.236-.3.252.328.1.126-.063-.082-.127-.163-.189-.246-.085-.113-.168-.23-.257-.34-.291-.355-.174-.552-.051.114v1.064c-.24.729-.141.266.036.089q.183-.245,0-.006.132-.165.267-.33c.444-.532.891-1.061,1.349-1.582a34.168,34.168,0,0,1,2.457-2.634c1.9-1.749-.938-4.572-2.829-2.828Z"/><path class="b" d="M114.344,117.035c-1.713.082-3.2,1.487-4.423,2.544a55.81,55.81,0,0,0-4.875,4.828,37.637,37.637,0,0,0-4.119,5.208c-.606.972-1.278,2.156-.642,3.281a7.524,7.524,0,0,0,1.518,1.62c1.841,1.7,3.749,3.326,5.616,5,1.913,1.713,4.752-1.107,2.829-2.828-1.3-1.167-2.625-2.313-3.932-3.476-.65-.579-1.3-1.159-1.936-1.755-.2-.191-.4-.392-.6-.581a2.355,2.355,0,0,0-.2-.21c-.256-.175.274.46.159.2l.273,1.009c.042,1.033-.33.983-.093.586.076-.128.138-.266.211-.4.158-.281.331-.554.51-.822.419-.63.816-1.149,1.095-1.5,1.126-1.411,2.336-2.756,3.589-4.055a49.514,49.514,0,0,1,3.7-3.512c.129-.11.261-.217.392-.325.084-.07.477-.369.089-.077.219-.165.44-.328.669-.478a6.1,6.1,0,0,0,.565-.336c.257-.216-.494.143-.132.054s-.547.034-.26.02c2.563-.123,2.578-4.124,0-4Z"/><path class="h" d="M139.52,175.416c.987-1.5,1.565-2.385,2.646-4.04,8.141-12.464,18.568-27.692,18.532-27.932a45.569,45.569,0,0,0-4.625-5.345c1.742-1.563,6.911-6.023,6.827-6.241-1.284-3.336-10.538-12.823-12.338-12.823a197.915,197.915,0,0,1-4.58,20c-4.364,14.65-9.806,28.972-13.461,36.3-1.215,2.563-2.611,4.611-2.611,9.376Z"/><path class="b" d="M132.561,190.362c-.206-1.875-.588-3.765-.652-5.651a13.8,13.8,0,0,1,1.359-6.361c1.849-3.895,3.667-7.771,5.281-11.773a247.069,247.069,0,0,0,11.145-33.651q1.615-6.63,2.8-13.362a2.057,2.057,0,0,0-1.4-2.46,2.017,2.017,0,0,0-2.46,1.4,207.286,207.286,0,0,1-7.408,29.019,231.679,231.679,0,0,1-11.292,28.56,19.206,19.206,0,0,0-1.986,7.282,40.784,40.784,0,0,0,.612,7,2.06,2.06,0,0,0,2,2,2.013,2.013,0,0,0,2-2Z"/><path class="b" d="M154.659,139.513a34.566,34.566,0,0,1,2.457,2.634c.457.521.9,1.05,1.348,1.582q.135.165.267.33-.181-.238,0,.006c.177.177.275.64.035-.089v-1.064c.092-.594.24-.465.011-.133-.169.246-.32.506-.483.757-.526.81-1.062,1.614-1.6,2.418q-2.61,3.915-5.239,7.817-6.893,10.28-13.667,20.635c-1.419,2.157,2.043,4.163,3.454,2.019q7-10.649,14.078-21.248,2.64-3.936,5.274-7.874c.744-1.121,2.423-2.907,2.028-4.391-.319-1.195-1.535-2.27-2.319-3.175a37.029,37.029,0,0,0-2.821-3.052c-1.89-1.743-4.726,1.079-2.828,2.828Z"/><path class="b" d="M150.562,121.035c.285.014-.587-.094-.294-.031.36.078-.164-.12-.139-.063.041.093.517.3.607.356.229.151.449.313.668.478-.386-.291.346.287.482.4a49.905,49.905,0,0,1,3.7,3.512c1.253,1.3,2.463,2.644,3.589,4.055.043.055.386.5.167.21q.169.22.335.446c.2.276.4.556.592.842.166.249.328.5.477.762.075.131.138.273.217.4.275.442-.107.488-.065-.531l.273-1.009c-.112.25.366-.322.183-.23-.08.041-.159.176-.225.238-.206.189-.4.39-.6.581-.636.6-1.286,1.176-1.936,1.755-1.306,1.163-2.628,2.309-3.931,3.476-1.923,1.72.914,4.541,2.828,2.828,1.677-1.5,3.385-2.969,5.053-4.482a19.967,19.967,0,0,0,1.67-1.595c.916-1.049.712-2.131.09-3.275a28.7,28.7,0,0,0-3.78-5.015,59.823,59.823,0,0,0-4.974-5.072c-1.346-1.209-3.055-2.946-4.984-3.039-2.573-.124-2.567,3.877,0,4Z"/><path class="b" d="M127.269,101.782a11.373,11.373,0,0,0,5.475,1.281,9.06,9.06,0,0,0,5.658-1.725,1.994,1.994,0,0,0,.585-1.414,2,2,0,0,0-2-2,2.345,2.345,0,0,0-1.414.586c.7-.543.021-.042-.2.072-.169.089-.6.227.042,0-.147.051-.29.111-.438.159-.4.13-.823.168-1.227.28.2-.055.371-.044.06-.013-.12.012-.241.022-.362.029-.29.019-.581.026-.872.025-.26,0-.521-.011-.781-.028q-.178-.012-.357-.03c-.068-.007-.136-.014-.2-.023q-.237-.029.208.028a2.3,2.3,0,0,0-.588-.109c-.187-.042-.374-.09-.558-.145-.161-.049-.318-.106-.476-.16-.433-.149.441.208.047.023-.2-.093-.39-.189-.583-.291a2,2,0,0,0-2.018,3.454Z"/><path class="b" d="M131.425,89.275a24.056,24.056,0,0,1,.567,2.6l-.071-.532a1.589,1.589,0,0,1,.01.358l.071-.531a.8.8,0,0,1-.039.161l.2-.478a.583.583,0,0,1-.057.1l.313-.405a.563.563,0,0,1-.085.084l.405-.313a1.761,1.761,0,0,1-.206.109l.478-.2a1.44,1.44,0,0,1-.347.1l.532-.071a1.359,1.359,0,0,1-.325,0l.531.072c-.122-.017-.243-.047-.366-.064a1.511,1.511,0,0,0-.8-.035,1.492,1.492,0,0,0-.744.237,2,2,0,0,0-.717,2.736l.313.405a2,2,0,0,0,.882.515c.339.045.667.129,1.012.145a3.352,3.352,0,0,0,1.567-.384,2.407,2.407,0,0,0,1.291-1.57,3.653,3.653,0,0,0-.012-1.615c-.142-.837-.335-1.666-.55-2.487a2,2,0,0,0-2.46-1.4,2.03,2.03,0,0,0-1.2.919,2.1,2.1,0,0,0-.2,1.541Z"/><path class="b" d="M118.336,81.742c-.434,1.41-.151,4.652,2.519,4.928,3.529-.021,3.717-3.941,2.529-5.784C122.411,79.377,119.551,78.749,118.336,81.742Z"/><path class="b" d="M146.6,81.742c.434,1.41.151,4.652-2.519,4.928-3.53-.021-3.718-3.941-2.53-5.784C142.523,79.376,145.383,78.749,146.6,81.742Z"/></svg>