<?xml version="1.0" encoding="utf-8"?>
<!-- Uploaded to: SVG Repo, www.svgrepo.com, Generator: SVG Repo Mixer Tools -->
<svg width="800px" height="800px" viewBox="-50.83 0 313.758 313.758" xmlns="http://www.w3.org/2000/svg"><defs><style>.a{fill:#b5886a;}.b{fill:#211715;}.c{fill:#f7a19f;}.d{fill:#ffffff;}.e{fill:#f4b467;}</style></defs><path class="a" d="M51.28,128.184a42.538,42.538,0,0,1,.292-5.577,27.155,27.155,0,0,1,1.721-6.7,12.317,12.317,0,0,0,3.75,1.236l1.976.3a52.6,52.6,0,0,0,10.023,19.564c5.219,6.247,11.142,10.811,17.636,13.267-2.4,4.478-8.922,8.421-16.71,9.609-7.877,1.2-15.33-.559-20.17-3.529a6.656,6.656,0,0,1-2.227-1.947,2,2,0,0,1-.347-.974c-.01-.145.028-.7.2-.762,4.339-1.465,5.525-5.949,5.312-10.5-.221-4.571-1.378-9.247-1.455-13.817Z"/><path class="b" d="M52.1,112.776c-3.012,5.976-3.688,12.8-2.952,19.389.4,3.57,1.163,7.131,1.209,10.732.027,2.08-.211,4.478-1.613,6.125-.853,1-2.128,1.1-3.018,1.96-1.26,1.215-1.056,3.265-.231,4.644,1.458,2.436,4.614,3.775,7.136,4.785a34.56,34.56,0,0,0,19.243,1.574c6.216-1.207,12.677-4.258,16.342-9.608,1.75-2.555-2.408-4.959-4.145-2.423-3.472,5.069-10.772,7.384-16.637,7.822a30.676,30.676,0,0,1-10.807-1.059,23.239,23.239,0,0,1-4.279-1.671,14.7,14.7,0,0,1-1.965-1.155c-.163-.121-.469-.539-.663-.59-.282-.073.019-.241-.089.139l-.617,1.059.106-.123-1.059.617c7.4-2.686,7.5-10.713,6.626-17.331-1-7.56-2.016-15.373,1.557-22.463,1.387-2.751-2.752-5.184-4.144-2.423Z"/><path class="c" d="M80.058,170.267c1.888-1.787,1.907-4.165,2.359-6.744A70.1,70.1,0,0,0,83.5,152.544l.67-9.694,43.852-.37.457,10.064a70.219,70.219,0,0,0,1.088,10.979c.618,3.532.425,6.689,5.335,8.463.273.1,11.81,5.3,15.836,7.1-.287.23-.472.382-.472.382-7.662,6.489-29.733,13.018-45.952,12.978-16.941-.042-35.038-6.124-45.152-12.419l.953-.337c2.519-.889,16.637-7.587,16.962-7.7A8.385,8.385,0,0,0,80.058,170.267Z"/><path class="b" d="M81.1,152.544a90.326,90.326,0,0,1-1.306,12.3,7.477,7.477,0,0,1-1.013,3.27,7.608,7.608,0,0,1-2.955,1.817c-3.642,1.608-7.218,3.375-10.838,5.031-1.177.538-2.355,1.073-3.54,1.595-.271.12-.544.238-.816.357l-.249.107c-.422.183.3-.123.044-.018-.315.129-.629.26-.95.375a2.463,2.463,0,0,0-1.676,2.952,2.421,2.421,0,0,0,2.952,1.677c4.512-1.624,8.852-3.9,13.192-5.926l2.891-1.351a6.5,6.5,0,0,0,1.413-.654c-.1.086-1.117.466-.147.079.219-.087.436-.181.652-.274a10.612,10.612,0,0,0,1.4-.7,8.782,8.782,0,0,0,2.073-1.728,9.408,9.408,0,0,0,2.005-4.265A80.923,80.923,0,0,0,85.9,152.544c.062-3.09-4.738-3.09-4.8,0Z"/><path class="b" d="M126.083,152.544a86.791,86.791,0,0,0,1.614,14.379,9.6,9.6,0,0,0,2.057,4.527,8.8,8.8,0,0,0,2.215,1.816,12.289,12.289,0,0,0,1.547.734c.357.147,1.327.688.261.092,1.451.812,3.1,1.383,4.618,2.064q3.838,1.724,7.676,3.45c1.793.806,3.578,1.636,5.39,2.4a2.414,2.414,0,0,0,2.952-1.677,2.462,2.462,0,0,0-1.676-2.952c1.25.526-.424-.2-.717-.332l-2.7-1.212-7.085-3.185c-1.818-.817-3.635-1.637-5.457-2.445-.69-.306-1.418-.553-2.08-.911a3.827,3.827,0,0,1-2.138-2.612,48.831,48.831,0,0,1-.984-5.693,65.727,65.727,0,0,1-.692-8.442c-.062-3.085-4.862-3.095-4.8,0Z"/><path class="d" d="M127.926,150.161c13.751-4.65,25.034-23.44,26.932-28.592.274-.831.831-2.393,1.327-4.248.666-.117,1.041-.175,1.041-.175a13.025,13.025,0,0,0,6.061-2.731,19.672,19.672,0,0,0,5.083-6.671,30.93,30.93,0,0,0,3.153-16.394,10.307,10.307,0,0,0-1.081-4.152,7.3,7.3,0,0,0-5.248-3.489,7.729,7.729,0,0,0-6.185,1.809s4.432-42.882-53.015-42.882c-23.261,0-35.9,7.951-42.744,17.006a41.759,41.759,0,0,0-7.989,25.876,7.731,7.731,0,0,0-6.186-1.809A7.3,7.3,0,0,0,43.827,87.2a10.323,10.323,0,0,0-1.081,4.152A30.931,30.931,0,0,0,45.9,107.744a19.672,19.672,0,0,0,5.083,6.671,13.021,13.021,0,0,0,6.06,2.731s.745.115,1.975.3a52.591,52.591,0,0,0,10.024,19.568,46.341,46.341,0,0,0,13.717,11.5,51.816,51.816,0,0,0,23.23,5.339C119.656,153.85,127.926,150.161,127.926,150.161Z"/><path class="a" d="M167.165,51.4c-.2-1.141-.395-2.2-.589-3.145C161.2,21.894,134.648.969,106.8,2.5,78.96.969,52.409,21.894,47.033,48.256c-1.457,7.109-1.282,19.274.042,24.95l2.666,10.442a7.677,7.677,0,0,1,5.52,1.87C66.266,77.885,84.932,64.624,94.6,56.312c-.795,4.934-3.62,13.326-.062,12.463,14.858-3.44,29.1-10.379,37.709-21.2,1.814,6.391,4.814,15.025,7.017,18.8,3.118,5.339,12.153,17.353,19.748,19.148a7.729,7.729,0,0,1,6.185-1.809,7.451,7.451,0,0,1,.964.21C170.027,74.958,168.724,60.486,167.165,51.4Z"/><path class="b" d="M49.36,72.794a47.7,47.7,0,0,1-.933-9.363A83.293,83.293,0,0,1,48.836,52.2a48.345,48.345,0,0,1,6.712-19.211A58.731,58.731,0,0,1,88.211,7.256,52.953,52.953,0,0,1,98.545,5.092a110.239,110.239,0,0,1,11.147-.273A53.839,53.839,0,0,1,130.61,9.152a58.6,58.6,0,0,1,30.061,28.766,62.039,62.039,0,0,1,4.867,18.726c.886,7.17,1.378,14.781-.2,21.889a27.6,27.6,0,0,1-1.456,4.66,2.414,2.414,0,0,0,1.676,2.952,2.461,2.461,0,0,0,2.952-1.676c2.93-7.023,2.9-15.254,2.337-22.718-.528-7.048-1.5-14.325-3.875-21.011A62.324,62.324,0,0,0,137.394,7.093,61.035,61.035,0,0,0,115.241.31a107.161,107.161,0,0,0-11.5-.291,57.609,57.609,0,0,0-11.816,1.3A63.616,63.616,0,0,0,54.29,26.177a56.131,56.131,0,0,0-9.351,20.416A70.863,70.863,0,0,0,44,69.316a41.011,41.011,0,0,0,.735,4.754c.683,3.011,5.312,1.736,4.629-1.276Z"/><path class="b" d="M130.15,48.986c1.08,3.69,2.278,7.351,3.641,10.947a49.191,49.191,0,0,0,3.843,8.39A62.343,62.343,0,0,0,149.467,82.6c2.586,2.256,5.524,4.384,8.9,5.231,3,.751,4.275-3.877,1.276-4.629-5.121-1.283-9.533-6.311-12.884-10.369a48.22,48.22,0,0,1-7.994-13.268c-1.514-3.886-2.82-7.856-3.991-11.857-.865-2.959-5.5-1.7-4.628,1.276Z"/><path class="b" d="M130.7,45.686a53.305,53.305,0,0,1-18.185,14.231,77.609,77.609,0,0,1-11.478,4.6q-2.94.928-5.936,1.659c-.266.065-.535.122-.8.192l-.2.047q-.371.072-.063.033c.037-.083-.035-.03.147.009a1.526,1.526,0,0,1,.639.255c.126.093.688.8.413.5a1.35,1.35,0,0,1-.076-.354c.042.229.029.3.028.027-.01-3.2,1.169-6.586,1.725-9.929A2.422,2.422,0,0,0,92.9,54.615c-9.685,8.309-20.2,15.7-30.611,23.059q-4.107,2.905-8.239,5.772a2.462,2.462,0,0,0-.861,3.284,2.421,2.421,0,0,0,3.283.861C67.349,80.044,78.153,72.365,88.607,64.24c2.6-2.024,5.183-4.083,7.687-6.23l-4.011-2.336C91.7,59.2,90.5,62.707,90.387,66.3c-.049,1.6.3,3.452,1.764,4.372,1.682,1.058,3.663.281,5.418-.172a79.119,79.119,0,0,0,25.51-11.263A51.706,51.706,0,0,0,134.09,49.08a2.475,2.475,0,0,0,0-3.394,2.417,2.417,0,0,0-3.394,0Z"/><path class="b" d="M160.706,87.216a5.218,5.218,0,0,1,7.486.894c.956,1.4.987,3.374,1.032,5.009a27.4,27.4,0,0,1-.378,5.539c-1.2,6.736-4.756,14.877-12.258,16.174a2.42,2.42,0,0,0-1.676,2.952,2.455,2.455,0,0,0,2.952,1.677c7.8-1.349,12.451-8.617,14.658-15.641a32.76,32.76,0,0,0,1.464-11.586c-.222-3.918-1.358-7.654-4.973-9.7a10.243,10.243,0,0,0-11.7,1.283,2.423,2.423,0,0,0,0,3.395,2.452,2.452,0,0,0,3.395,0Z"/><path class="b" d="M154.747,111.391a26.041,26.041,0,0,1-1.236,6.56c-.241.806-.5,1.6-.773,2.4-.077.23-.156.458-.235.687-.16.469-.093.235-.03.094a51.547,51.547,0,0,1-3.411,6.269A61.652,61.652,0,0,1,135.308,143.3a26.11,26.11,0,0,1-10.181,5.157c-3.009.693-1.735,5.322,1.276,4.629,7.741-1.782,14.224-7.351,19.332-13.19a66.248,66.248,0,0,0,10.733-16,34.035,34.035,0,0,0,3.079-12.5c.1-3.089-4.7-3.086-4.8,0Z"/><path class="b" d="M56.958,83.821a10.2,10.2,0,0,0-10.3-1.929c-3.784,1.491-5.725,4.671-6.213,8.6a31.8,31.8,0,0,0,5.553,22.047,16.678,16.678,0,0,0,10.411,6.918,2.47,2.47,0,0,0,2.952-1.677,2.42,2.42,0,0,0-1.676-2.952c-7.495-1.3-11.065-9.438-12.257-16.174a27.617,27.617,0,0,1-.378-5.539c.044-1.65.086-3.585,1.032-5.009a5.216,5.216,0,0,1,7.486-.894,2.464,2.464,0,0,0,3.394,0,2.422,2.422,0,0,0,0-3.395Z"/><path class="b" d="M55.04,110.668c2.812,16.219,11.593,32.107,26.6,39.965A36.319,36.319,0,0,0,94.835,154.6a2.416,2.416,0,0,0,2.4-2.4,2.454,2.454,0,0,0-2.4-2.4c-15.5-1.61-27.557-15.534-32.4-29.5a69.243,69.243,0,0,1-2.761-10.91,2.42,2.42,0,0,0-2.953-1.676,2.455,2.455,0,0,0-1.676,2.952Z"/><path class="e" d="M200.15,311.358c-1.814-23.4-3.792-51.267-6.036-73.479-.968-9.589-.8-25.512-11.384-37.221-9.6-10.621-26.7-20.517-32.456-21.193-7.658,6.49-29.735,13.022-45.956,12.981-17.441-.043-36.108-6.489-46.028-12.978l-.609-.27c-.67.224-1.141.388-1.289.448-14.492,5.9-29.627,13.176-36.029,25.153-4.246,7.943-6.706,11.717-9.5,20.225-2.941,8.946-7.892,22.569-8.347,31.739-.807,16.3,4.464,28.355,11.919,35.273,11.256,10.447,24.755,4.865,35.754-4.012l0,.109c-.17,8.22-.335,15.422-.475,23.187"/><path class="b" d="M47.783,288.133c-.16,7.729-.335,15.458-.475,23.187-.056,3.09,4.744,3.09,4.8,0,.14-7.729.315-15.458.475-23.187.064-3.09-4.736-3.09-4.8,0Z"/><path class="b" d="M161.466,233.448c.067,1.647-.045,3.318-.074,4.965q-.108,6.123-.2,12.247-.266,18.727-.244,37.459c.022,7.735.1,15.469.262,23.2.066,3.085,4.867,3.095,4.8,0-.514-23.921-.257-47.858.16-71.779.035-2.021.176-4.073.094-6.094-.124-3.078-4.925-3.094-4.8,0Z"/><path class="b" d="M149.678,181.782c3.069.418,5.49,1.762,8.187,3.172a95.338,95.338,0,0,1,11.766,7.359,74.739,74.739,0,0,1,10.921,9.518,35.233,35.233,0,0,1,7.386,12.42c2.8,8.027,3.062,16.452,3.9,24.824,1.113,11.159,2.045,22.337,2.934,33.517,1.027,12.919,1.981,25.845,2.982,38.766a2.461,2.461,0,0,0,2.4,2.4,2.418,2.418,0,0,0,2.4-2.4c-1.816-23.428-3.434-46.879-5.717-70.268-.855-8.755-1.084-17.719-3.644-26.2a42.14,42.14,0,0,0-6.946-13.75,61.937,61.937,0,0,0-10.937-10.518,101.186,101.186,0,0,0-13.893-9.216c-3.19-1.737-6.8-3.759-10.459-4.256A2.484,2.484,0,0,0,148,178.83a2.417,2.417,0,0,0,1.677,2.952Z"/><path class="b" d="M57.079,181.54a77.252,77.252,0,0,0,17.166,7.994,101.036,101.036,0,0,0,21.887,4.851c13.386,1.432,27.136-.847,39.824-5.172,5.6-1.91,11.422-4.212,16.011-8.048a2.419,2.419,0,0,0,0-3.394,2.452,2.452,0,0,0-3.394,0c-.17.142-.341.285-.516.42.376-.291-.25.176-.263.185-.411.285-.823.568-1.247.836-1.024.649-2.087,1.237-3.168,1.786a63.025,63.025,0,0,1-7.335,3.109,107.484,107.484,0,0,1-18.164,4.72,84.87,84.87,0,0,1-39.773-3.077A74.988,74.988,0,0,1,59.5,177.4c-2.6-1.687-5.007,2.466-2.423,4.144Z"/><path class="c" d="M202.757,113.439c-2.52,2.407-12.482,12.527-14.195,14.172-1.77-2.565-5.171-7.03-6.435-8.649-3.574,3.883-19.207,22.525-23.367,27.189,1.756-.929,17.928-8.568,21.463-10.475.083,1.709.384,5.03.653,7.763,2.473-1.253,25.873-14.4,31.217-17.48C211.3,124.932,203.742,114.753,202.757,113.439Z"/><path class="c" d="M191.585,155.775c-2.533.648-12.765,3.606-14.49,4.053-.215-2.327-.8-6.5-1.031-8.02-3.763,1.226-20.835,7.674-25.269,9.2,1.49.038,14.872.983,17.884,1.034-.574,1.149-1.6,3.431-2.425,5.317,2.078.089,22.21.089,26.837.037C192.946,166.427,191.746,157,191.585,155.775Z"/><path class="d" d="M72,203.936c.461-3.664-.006-8.27.695-11.165.507-2.091,1.936-4.41,2.226-6.77a15.9,15.9,0,0,0-.378-6.187c-1.042-3.506-4.322-6.906-2.1-10.022,1.876-2.629,5.39-1.829,7.927.274,1.511,1.253,3.338,4.41,4.466,6.027a26.284,26.284,0,0,1,2.291,5.3l2.749-1.5c5.833-3.177,15.9-6.968,21.754-9.24,2.728-1.058,8.066-3.7,11.1-4.783a5.815,5.815,0,0,1,6.455,1.46,4.76,4.76,0,0,1,.195,4.79s-.459.721-.9,1.436c2.631-1.211,5.334-2.379,7.428-.095,1.8,1.962,1.851,5.153-.428,6.669-.537.273-2.709,1.276-5.574,2.582,2.061,1.207,2.167,2.879,1.733,4.715-.833,3.527-4.569,4.492-7.887,7.086,3.98-2.741,7.6,2.457,4.987,4.708-2.734,2.355-6.281,6.072-11.128,9.039a104.507,104.507,0,0,1-9.331,5.411,76.366,76.366,0,0,0-8.741,4.369,6.668,6.668,0,0,0-2.264,2.284c-.624.947-2.114,3.61-3.156,5.384l-2.687,7.219L69.211,221.072Z"/><path class="b" d="M91.089,181.963c6.66-3.6,13.868-6.154,20.908-8.892,3.287-1.279,6.433-2.884,9.689-4.234,1.455-.6,3.1-1.379,4.675-.711a1.89,1.89,0,0,1,.953,2.78c-1.515,2.7,2.63,5.119,4.144,2.422a6.767,6.767,0,0,0-2.837-9.419c-3.738-1.759-7.244-.16-10.719,1.37-2.82,1.242-5.527,2.524-8.33,3.607-3.286,1.27-6.572,2.541-9.83,3.881a116.16,116.16,0,0,0-11.075,5.051c-2.719,1.469-.3,5.615,2.422,4.145Z"/><path class="b" d="M129.029,184.991c.44.311-.355-.361,0,0,.082.085.171.162.252.249.031.032.061.066.09.1.12.141.062.066-.172-.225a1.179,1.179,0,0,0,.168.268c.213.332-.042-.036-.059-.184a3.287,3.287,0,0,0,.111.345c.027.1.083.477.028.036s-.01-.06,0,.044a4.657,4.657,0,0,1-.008.625c-.019.257-.157.452.025-.124a2.984,2.984,0,0,0-.059.327c-.045.226-.1.451-.164.672-.034.11-.075.217-.11.326-.15.455.263-.493.029-.084-.108.189-.2.382-.324.564-.038.058-.3.4-.037.072s.006-.013-.056.058a7.872,7.872,0,0,1-1,.953c-.294.24-.037.007.111-.083-.115.07-.225.166-.336.243-.192.136-.388.267-.586.4-.453.295-.916.577-1.378.859a2.4,2.4,0,1,0,2.423,4.144,25.933,25.933,0,0,0,3.315-2.293,8.525,8.525,0,0,0,2.414-3.427,7.99,7.99,0,0,0,.414-4.23,5.972,5.972,0,0,0-2.666-3.779,2.412,2.412,0,0,0-3.284.861,2.464,2.464,0,0,0,.861,3.284Z"/><path class="b" d="M129.694,175.625c.4-.184.8-.367,1.208-.54l-.573.242a11.027,11.027,0,0,1,2.6-.8l-.638.086a5.136,5.136,0,0,1,1.245-.025l-.638-.085a3.966,3.966,0,0,1,.991.264l-.573-.242a4.174,4.174,0,0,1,.846.508l-.486-.375a5.2,5.2,0,0,1,.793.8l-.376-.486a5.383,5.383,0,0,1,.686,1.175l-.242-.573a5.32,5.32,0,0,1,.328,1.187l-.085-.638a4.841,4.841,0,0,1,0,1.3l.085-.638a4.417,4.417,0,0,1-.264.971l.242-.574a4.137,4.137,0,0,1-.508.879l.375-.486a4.19,4.19,0,0,1-.682.682l.485-.375c-.081.061-.162.12-.246.177a2.564,2.564,0,0,0-1.1,1.435,2.4,2.4,0,0,0,3.526,2.71,6.5,6.5,0,0,0,2.69-3.605,6.872,6.872,0,0,0-.115-4.028,7.648,7.648,0,0,0-2.867-3.819,6.421,6.421,0,0,0-4.748-.852,16.97,16.97,0,0,0-4.383,1.585,2.414,2.414,0,0,0-1.1,1.435,2.452,2.452,0,0,0,.242,1.849,2.425,2.425,0,0,0,1.434,1.1,2.741,2.741,0,0,0,1.85-.242Z"/><path class="b" d="M125.654,196.154a1.34,1.34,0,0,1,1.476.716,1.868,1.868,0,0,1,.1.365c.066.411-.091-.3-.008.1.03.143.137-.151.02-.038-.15.146-.852.794-1.235,1.139a81.172,81.172,0,0,1-7.531,6.381,89.155,89.155,0,0,1-10.162,6.153c-3.4,1.762-7.143,2.99-10.3,5.2-2.836,1.99-4.27,5.412-5.972,8.321-1.564,2.671,2.583,5.09,4.144,2.423.892-1.524,1.75-3.069,2.659-4.582a7.293,7.293,0,0,1,2.841-2.809c3.784-2.24,7.971-3.7,11.775-5.921a81.992,81.992,0,0,0,10.812-7.227c1.466-1.2,2.866-2.486,4.266-3.766,1.162-1.062,2.522-2.006,3.12-3.514,1.521-3.833-2.057-8.035-6.012-7.744a2.46,2.46,0,0,0-2.4,2.4,2.419,2.419,0,0,0,2.4,2.4Z"/><path class="b" d="M127.844,171.238c-3.895,1.642-7.807,3.244-11.7,4.883-3.586,1.508-7.326,2.884-10.757,4.73-2.722,1.463-.3,5.609,2.422,4.144,3.148-1.692,6.82-3.073,9.861-4.351,3.814-1.6,7.642-3.171,11.454-4.777a2.482,2.482,0,0,0,1.677-2.952,2.416,2.416,0,0,0-2.953-1.677Z"/><path class="b" d="M134.271,178.054c-6.732,3.388-13.747,6.315-20.644,9.347q-1.293.568-2.592,1.129l-.5.212c.008,0,.406-.165-.04.016-.225.092-.449.185-.676.274a2.47,2.47,0,0,0-1.676,2.952,2.418,2.418,0,0,0,2.952,1.676c7.487-2.913,14.776-6.469,22.076-9.817,1.176-.54,2.364-1.062,3.521-1.644,2.759-1.389.332-5.531-2.423-4.145Z"/><path class="b" d="M125.552,190.431c-2.361,1.545-4.8,2.982-7.236,4.4a72.769,72.769,0,0,1-6.743,3.658,2.408,2.408,0,0,0-.861,3.283,2.471,2.471,0,0,0,3.284.861,72.888,72.888,0,0,0,6.743-3.657c2.44-1.416,4.875-2.853,7.236-4.4a2.4,2.4,0,1,0-2.423-4.144Z"/><path class="b" d="M90.313,183.241c-.675-1.884-1.289-3.79-2.058-5.639a29.461,29.461,0,0,0-2.8-4.93c-2.285-3.466-5.341-7.061-9.919-6.934a6.4,6.4,0,0,0-5.37,3.166,7.335,7.335,0,0,0-.136,6.564c.835,2.066,2.11,3.967,2.487,6.193a12.879,12.879,0,0,1-.858,6.987,21.77,21.77,0,0,0-1.733,7.159c-.139,2.71-.009,5.428-.322,8.129a2.415,2.415,0,0,0,2.4,2.4,2.457,2.457,0,0,0,2.4-2.4c.434-3.745-.33-7.854.888-11.464.66-1.955,1.636-3.772,1.948-5.833a18,18,0,0,0-.271-7.073,37.556,37.556,0,0,0-2.323-5.424c-.452-1.046-1.038-2.631.182-3.405.87-.551,2.255.017,3.153.56A10.282,10.282,0,0,1,81,174.625a28.85,28.85,0,0,1,2.736,4.507c.753,1.753,1.31,3.59,1.954,5.385a2.462,2.462,0,0,0,2.952,1.676,2.42,2.42,0,0,0,1.676-2.952Z"/><path class="e" d="M28.437,249.688c5.333-7.7,30.848-35.337,35.555-40.3l1.336-1.406.146.073c2.108,1.054,27.826,16.067,30.518,17.926l.332.229-.406.808c-5.8,11.593-18.769,30.5-30.889,45.778Z"/><path class="b" d="M30.509,250.9c.3-.427.605-.846.918-1.262.1-.13.2-.259.3-.389.355-.466-.326.415.049-.062.231-.293.462-.587.7-.879,1.01-1.263,2.044-2.507,3.086-3.744,2.675-3.172,5.411-6.292,8.164-9.4q8.4-9.472,17.009-18.756,3.129-3.384,6.3-6.729l-2.909.375c3.649,1.825,7.139,4.041,10.662,6.093,5.223,3.04,10.44,6.093,15.621,9.2,1.585.951,3.191,1.881,4.713,2.932L94.251,225a197.594,197.594,0,0,1-13.478,22.314c-5.72,8.435-11.719,16.731-18.134,24.652a88.007,88.007,0,0,1-16.647,16.255c-5.789,4.16-13.134,8-20.276,6.924-7.4-1.119-12.808-7.18-16.1-13.493-4.121-7.9-5.4-17.374-4.612-26.182a70.723,70.723,0,0,1,2.781-13.046c1.3-4.544,2.805-9.026,4.306-13.507a101.011,101.011,0,0,1,4.743-12.385c1.983-4.064,4.106-8.2,6.478-12.046,4.692-7.611,12.748-12.621,20.533-16.594a135.014,135.014,0,0,1,13.186-5.932c2.35-.9,4.773-1.621,7.156-2.422.908-.306,1.834-.585,2.724-.94a2.474,2.474,0,0,0,1.676-2.952,2.417,2.417,0,0,0-2.952-1.677c-2.479.989-5.08,1.726-7.608,2.578-3.532,1.189-6.952,2.694-10.35,4.218-8.842,3.966-17.887,8.744-24.489,16.006-3.3,3.624-5.459,7.86-7.779,12.13a94.72,94.72,0,0,0-5.861,12.6c-1.646,4.49-3.1,9.074-4.556,13.629a130.841,130.841,0,0,0-3.92,14.449,54.964,54.964,0,0,0,1.988,28.98c2.777,7.645,7.795,15.358,15.236,19.152,16.053,8.186,33.139-6.1,43.393-17.3,6.549-7.154,12.28-15.133,17.9-23.018A269.325,269.325,0,0,0,95.777,232.4c.914-1.638,1.779-3.3,2.618-4.976a2.474,2.474,0,0,0-.861-3.284C94,221.7,90.189,219.629,86.5,217.451q-7.753-4.573-15.554-9.069c-1.456-.836-2.9-1.718-4.4-2.469a2.469,2.469,0,0,0-2.909.375C53.085,217.4,42.713,228.734,32.8,240.413c-2.22,2.615-4.473,5.245-6.434,8.063a2.421,2.421,0,0,0,.861,3.284,2.448,2.448,0,0,0,3.283-.861Z"/><path class="b" d="M54.329,85.214c.694.826.924,1.131,1.481,1.886q.918,1.245,1.788,2.525c1.3,1.9,2.553,3.842,3.776,5.8q3.085,4.93,5.951,10c1.515,2.692,5.663.275,4.144-2.423q-2.926-5.2-6.108-10.251A96.527,96.527,0,0,0,57.723,81.82a2.419,2.419,0,0,0-3.394,0,2.452,2.452,0,0,0,0,3.394Z"/><path class="d" d="M105.859,100.946c-8.123,0-21.673,1.257-30.461,1.946-1.625.127-5.6.6-6.657,1.8-1.956,2.247-1.214,7.042-1.467,9.766a70.915,70.915,0,0,0,.381,13.069c.585,5.744.87,11.865,4.734,16.345,7.142,8.282,23.693,12.692,34.567,12.692a64.671,64.671,0,0,0,21.277-3.926c5.93-2.166,11.474-5.8,14.577-11.025,2.926-4.927,2.811-9.866,3.439-15.478a59.206,59.206,0,0,0,.226-11.889c-.268-2.717.413-7.156-1.567-9.43-1.052-1.207-4.333-1.769-5.957-1.911C128.649,102.007,114.885,100.946,105.859,100.946Z"/><path class="b" d="M156.324,83.491C152.606,88.618,148.686,93.6,145,98.747c-1,1.4-2.009,2.81-2.941,4.262a2.4,2.4,0,1,0,4.144,2.423c3.853-6,8.332-11.64,12.623-17.329.55-.729,1.111-1.451,1.647-2.19a2.418,2.418,0,0,0-.861-3.283,2.454,2.454,0,0,0-3.284.861Z"/><path class="d" d="M105.859,100.946c-8.123,0-21.673,1.257-30.461,1.946-1.625.127-5.6.6-6.657,1.8-1.956,2.247-1.214,7.042-1.467,9.766a70.915,70.915,0,0,0,.381,13.069c.585,5.744.87,11.865,4.734,16.345,7.142,8.282,23.693,12.692,34.567,12.692a64.671,64.671,0,0,0,21.277-3.926c5.93-2.166,11.474-5.8,14.577-11.025,2.926-4.927,2.811-9.866,3.439-15.478a59.206,59.206,0,0,0,.226-11.889c-.268-2.717.413-7.156-1.567-9.43-1.052-1.207-4.333-1.769-5.957-1.911C128.649,102.007,114.885,100.946,105.859,100.946Z"/><path class="b" d="M105.859,98.546c-7.913.015-15.831.754-23.712,1.4a94.384,94.384,0,0,0-10.61,1.066A8.343,8.343,0,0,0,67.044,103a8.979,8.979,0,0,0-2,5.388c-.178,1.7-.072,3.407-.12,5.112-.06,2.131-.253,4.237-.2,6.375a123.676,123.676,0,0,0,1.1,12.992c.565,4.335,1.605,8.59,4.366,12.086a27.569,27.569,0,0,0,8.022,6.558,59.052,59.052,0,0,0,21.159,6.866,60.972,60.972,0,0,0,25.377-2.073c8.1-2.348,16.447-6.494,20.575-14.253,2.166-4.071,2.646-8.568,3.053-13.087a81.733,81.733,0,0,0,.541-14.3c-.293-3.456.4-7.5-1.572-10.576-2.084-3.246-6.638-3.433-10.1-3.73-8.614-.74-17.245-1.421-25.887-1.712-1.833-.062-3.666-.1-5.5-.1-3.088-.005-3.093,4.795,0,4.8,7.7.011,15.4.554,23.065,1.138,3.57.272,7.615.37,10.937.942a16.753,16.753,0,0,1,2.134.494,3,3,0,0,1,1.2.594c.82,1.048.758,2.816.785,4.071.082,3.857.411,7.694.2,11.555-.12,2.21-.39,4.406-.589,6.609a55.235,55.235,0,0,1-.7,5.751,18.16,18.16,0,0,1-5.208,9.722,27.748,27.748,0,0,1-9.17,5.755,55.94,55.94,0,0,1-43.3-.343c-5.685-2.394-11.686-5.985-13.61-12.208-1.1-3.565-1.312-7.355-1.663-11.049a84.546,84.546,0,0,1-.23-12.449c.083-1.621-.031-3.247.078-4.868a7.885,7.885,0,0,1,.332-1.934,2.271,2.271,0,0,1,.21-.523c.1-.174.2-.335.107-.21.23-.3-.114.032.116-.088,2.167-1.138,5.469-1.06,8.074-1.273,7.482-.61,14.967-1.28,22.469-1.578,1.587-.063,3.174-.1,4.762-.108C108.948,103.34,108.953,98.54,105.859,98.546Z"/><path class="b" d="M109.111,83.492c0,1.128.131,2.254.134,3.382a2.473,2.473,0,0,0,.7,1.7,2.672,2.672,0,0,0,1.7.7,2.429,2.429,0,0,0,1.7-.7,2.5,2.5,0,0,0,.7-1.7c0-1.128-.132-2.254-.134-3.382a2.482,2.482,0,0,0-.7-1.7,2.663,2.663,0,0,0-1.7-.7,2.421,2.421,0,0,0-1.7.7,2.484,2.484,0,0,0-.7,1.7Z"/><path class="b" d="M101.217,83.419c0,1.121.046,2.24.046,3.361a2.484,2.484,0,0,0,.7,1.7,2.678,2.678,0,0,0,1.7.7,2.426,2.426,0,0,0,1.7-.7,2.491,2.491,0,0,0,.7-1.7c0-1.121-.045-2.24-.046-3.361a2.475,2.475,0,0,0-.7-1.7,2.672,2.672,0,0,0-1.7-.7,2.429,2.429,0,0,0-1.7.7,2.5,2.5,0,0,0-.7,1.7Z"/><path class="b" d="M90.71,87.765c-3.343.231-6.661.757-10,1.038a2.4,2.4,0,1,0,0,4.8c3.339-.281,6.657-.807,10-1.038a2.4,2.4,0,0,0,0-4.8Z"/><path class="b" d="M123.969,92.565c3.343.231,6.661.757,10,1.038a2.411,2.411,0,0,0,2.4-2.4,2.461,2.461,0,0,0-2.4-2.4c-3.339-.281-6.657-.807-10-1.038a2.413,2.413,0,0,0-2.4,2.4,2.457,2.457,0,0,0,2.4,2.4Z"/></svg>