<?xml version="1.0" encoding="utf-8"?>
<!-- Uploaded to: SVG Repo, www.svgrepo.com, Generator: SVG Repo Mixer Tools -->
<svg width="800px" height="800px" viewBox="-135.55 0 476.71 476.71" xmlns="http://www.w3.org/2000/svg"><defs><style>.a{fill:#bdbdbd;}.b{fill:#211715;}.c{fill:#645d5c;}.d{fill:#ffffff;}.e{fill:#b3b3b3;}.f{fill:#6dbf6b;}.g{fill:#c6c6c6;}.h{fill:#7a7473;}</style></defs><path class="a" d="M149.877,403.435h17.415c12.1,12.095,29.96,33.644,33.621,37.305l2.691,2.69v31.2H2V440.74c3.661-3.661,21.526-25.212,33.622-37.308,9.089,0,20.467,0,20.86,0"/><path class="b" d="M149.877,405.435h17.415l-1.414-.585c11.413,11.428,21.968,23.736,32.631,35.856,1.215,1.381,2.387,2.829,3.681,4.138l-.586-1.414v31.2l2-2H2l2,2V440.74l-.586,1.414c3.044-3.846,6.32-7.52,9.551-11.207q7.6-8.672,15.446-17.124c2.831-3.035,5.693-6.04,8.626-8.977l-1.415.586q10.431,0,20.86,0c2.574,0,2.578-4,0-4q-10.131,0-20.263,0a3.673,3.673,0,0,0-2.895,1.475q-.977.986-1.941,1.981-2.053,2.117-4.073,4.264-4.212,4.471-8.327,9.032-7.295,8.06-14.371,16.314c-1.314,1.539-2.636,3.076-3.9,4.661A4.253,4.253,0,0,0,0,442.226v32.407a2.029,2.029,0,0,0,2,2H191.164c4.079,0,8.2.17,12.278,0,.054,0,.108,0,.162,0a2.029,2.029,0,0,0,2-2V445.1c0-1.1.166-2.2-.6-3.1-.1-.12-.218-.229-.323-.347-.452-.508-.907-1.014-1.358-1.523-9.551-10.8-19.012-21.693-28.9-32.193q-2.13-2.262-4.3-4.486c-.641-.655-1.4-1.7-2.3-1.95a11.138,11.138,0,0,0-2.739-.072H149.877c-2.574,0-2.578,4,0,4Z"/><path class="b" d="M17.426,448.977h167.3c2.574,0,2.578-4,0-4H17.426c-2.574,0-2.578,4,0,4Z"/><path class="c" d="M55.085,432.587c-.121-.123-.236-.249-.344-.38a5.716,5.716,0,0,1-.609-5.97,19.074,19.074,0,0,1,3.96-5.345q5.733-6.055,12.117-11.721c1.66-1.472,3.535-3.006,6.016-3.368-.4,1.156.537,2.4,1.855,3.027a10.9,10.9,0,0,0,4.474.781,28.99,28.99,0,0,0,17.379-5.35c-.029,4.044.023,5.39,0,9.436a6.686,6.686,0,0,1-.459,2.917c-1.075,2.249-4.262,3.332-6.819,4.686C86,424.822,82.5,431.248,75.523,434.38a22.725,22.725,0,0,1-16.642.461A10.608,10.608,0,0,1,55.085,432.587Z"/><path class="c" d="M151.774,432.587c.122-.123.236-.249.344-.38a5.714,5.714,0,0,0,.61-5.97,19.059,19.059,0,0,0-3.961-5.345q-5.731-6.055-12.117-11.721c-1.659-1.472-3.535-3.006-6.016-3.368.4,1.156-.536,2.4-1.854,3.027a10.9,10.9,0,0,1-4.474.781,28.993,28.993,0,0,1-17.38-5.35c.029,4.044-.023,5.39,0,9.436a6.67,6.67,0,0,0,.458,2.917c1.075,2.249,4.262,3.332,6.82,4.686,6.654,3.522,10.158,9.948,17.131,13.08a22.725,22.725,0,0,0,16.642.461A10.6,10.6,0,0,0,151.774,432.587Z"/><path class="d" d="M73.5,47.156c.291-5.5,4.748-21.97,29.405-21.97,29.473,0,28.486,23.686,28.486,23.686a4.318,4.318,0,0,1,3.453-1.01,4.073,4.073,0,0,1,2.929,1.948,5.76,5.76,0,0,1,.6,2.317,17.262,17.262,0,0,1-1.76,9.15A10.972,10.972,0,0,1,133.783,65a7.269,7.269,0,0,1-3.383,1.525l-.579.09c-.277,1.038-.589,1.914-.742,2.378-.915,2.484-5.739,10.648-11.983,14.5a55.153,55.153,0,0,0,.383,5.65,76.1,76.1,0,0,0,3.779,6.758c1.894,2.946-2.014,12.68-19.245,12.68S78.821,99.274,82.992,95.825a13.447,13.447,0,0,0,4.659-6.908c.192-1.79.318-3.757.361-5.347a26.56,26.56,0,0,1-6.831-5.955,29.352,29.352,0,0,1-5.594-10.922l-1.1-.168A7.266,7.266,0,0,1,71.1,65a10.972,10.972,0,0,1-2.837-3.723,17.253,17.253,0,0,1-1.76-9.15,5.76,5.76,0,0,1,.6-2.317,4.073,4.073,0,0,1,2.929-1.948,4.318,4.318,0,0,1,3.453,1.01A15.877,15.877,0,0,1,73.5,47.156Z"/><path class="d" d="M126.864,394.4a28.613,28.613,0,0,0,3.239,13.052l-20.779-.4.08-11.674"/><path class="d" d="M80.931,394.4a28.613,28.613,0,0,1-3.239,13.052l20.779-.4-.08-11.674"/><path class="b" d="M78.931,394.4a26.839,26.839,0,0,1-2.966,12.042,2.046,2.046,0,0,0,.717,2.736,2.021,2.021,0,0,0,2.737-.717A31.219,31.219,0,0,0,82.931,394.4a2,2,0,0,0-4,0Z"/><path class="b" d="M96.391,395.37l.08,11.674a2,2,0,0,0,4,0l-.08-11.674a2,2,0,0,0-4,0Z"/><path class="b" d="M124.864,394.4a31.206,31.206,0,0,0,3.512,14.061,2,2,0,0,0,3.454-2.019,26.83,26.83,0,0,1-2.966-12.042,2,2,0,0,0-4,0Z"/><path class="b" d="M107.4,395.37l-.08,11.674a2,2,0,0,0,4,0l.08-11.674a2,2,0,0,0-4,0Z"/><path class="a" d="M103.7,399.378c8.8,1.829,29.405,2.048,34.027.507.417-6.9,1.18-75.4,3.04-106.312,1.567-26.028,2.8-57.255,4.329-73.556-17.984-.274-65.243-.566-83.185-.858,1.546,16.18,3.268,48.161,4.848,74.414,1.861,30.915,2.624,99.412,3.041,106.312,4.621,1.541,22.594,1.65,33.314-.4"/><path class="b" d="M59.906,219.159c1.344,14.127,2.113,28.314,2.96,42.477.852,14.239,1.816,28.48,2.436,42.732.533,12.243.872,24.5,1.176,36.746q.447,18.083.78,36.168c.142,7.215.2,14.439.491,21.65.013.318.027.635.046.953a2.077,2.077,0,0,0,1.468,1.929,27.046,27.046,0,0,0,6.111.942c2.923.231,5.86.292,8.791.276a108.971,108.971,0,0,0,19.475-1.617c2.527-.476,1.457-4.331-1.063-3.857a103.019,103.019,0,0,1-18.412,1.474c-2.839.016-5.683-.043-8.515-.255a21.159,21.159,0,0,1-5.324-.82l1.469,1.928c-.37-6.236-.337-12.513-.461-18.757q-.35-17.547-.738-35.093c-.294-12.484-.625-24.97-1.119-37.448-.536-13.514-1.431-27.012-2.228-40.513-.886-15.007-1.715-30.028-2.992-45.009q-.167-1.954-.351-3.906a2.055,2.055,0,0,0-2-2,2.015,2.015,0,0,0-2,2Z"/><path class="b" d="M143.13,219.6c-1.35,14.213-1.931,28.507-2.671,42.76-.736,14.187-1.658,28.369-2.268,42.561-.525,12.225-.863,24.457-1.164,36.689q-.442,17.969-.773,35.939c-.141,7.127-.2,14.263-.487,21.386-.013.318-.026.635-.045.953l1.468-1.928a20.918,20.918,0,0,1-5.694.768c-3.069.182-6.148.211-9.221.17a97.2,97.2,0,0,1-18.049-1.446c-2.513-.513-3.587,3.342-1.063,3.857a102.729,102.729,0,0,0,19.112,1.589c3.161.042,6.327.012,9.483-.186a26.915,26.915,0,0,0,6.5-.895,2.075,2.075,0,0,0,1.468-1.929c.367-6.195.335-12.431.459-18.633q.346-17.445.732-34.89c.292-12.449.621-24.9,1.11-37.342.529-13.469,1.41-26.921,2.11-40.381.782-15.027,1.423-30.078,2.648-45.078q.162-1.983.349-3.964a2.014,2.014,0,0,0-2-2,2.045,2.045,0,0,0-2,2Z"/><path class="b" d="M101.9,264.865c-.505,5.545-.439,11.159-.434,16.721.005,6.631.1,13.261.165,19.892.069,7.485.02,14.972,0,22.458q-.032,15.515-.059,31.031-.022,14.757-.012,29.516c0,3.352.011,6.7.035,10.055.011,1.555-.048,3.14.077,4.692a2.136,2.136,0,0,0,.606,1.562,2.062,2.062,0,0,0,2.829,0,2.014,2.014,0,0,0,0-2.828,2.124,2.124,0,0,1,.567,1.3,1.2,1.2,0,0,0-.012-.223c0-.25-.017-.5-.023-.753-.019-.876-.027-1.753-.035-2.629-.028-3.078-.035-6.155-.041-9.233q-.028-14.265,0-28.531.021-15.548.057-31.094c.015-7.219.06-14.439.028-21.657-.056-12.341-.557-24.723.028-37.056.051-1.076.117-2.151.214-3.224a2.015,2.015,0,0,0-2-2,2.043,2.043,0,0,0-2,2Z"/><path class="a" d="M78.743,95.5a213.955,213.955,0,0,0-20.275,9.708,42.094,42.094,0,0,0-5.438,3.07c-5.915,4.721-5.17,7.954-7.294,13.226-2.173,7.077-6.382,24.024-7.989,30.671a118.964,118.964,0,0,0-3.108,15.807c-1.025,7.976,9.471,12.063,12.6,11.768a52.865,52.865,0,0,0,13.4-3.219c.43-.154.885-.319,1.361-.491,1.377,5.8.342,11.574-.261,17.341-1.556,14.881-2.686,24.046-3.867,39.084,6.447,1.389,25.47,2.132,31.738-.675,7.094-3.178,12.364-22.944,13.672-30.459-1.878-14.434-3.927-36.52-3.936-38.444,0-5.181,1.518-7.407,2.839-10.193.644-1.292,1.34-2.784,2.073-4.445-.576-.939-1.011-1.645-1.011-1.645-3.453-7.456-9.868-22.424-14.549-35.836-2.418-6.927-4.382-13.1-5.6-17.073C81.58,94.318,80.136,94.917,78.743,95.5Z"/><path class="b" d="M84.31,91.058c-7.067,2.869-14.087,5.857-20.9,9.3-3.161,1.6-6.335,3.219-9.43,4.941a18.08,18.08,0,0,0-7.1,6.972c-1.464,2.731-1.949,5.843-3.08,8.706a2.015,2.015,0,0,0,1.4,2.461,2.048,2.048,0,0,0,2.46-1.4c.9-2.278,1.313-4.744,2.3-6.983a13.68,13.68,0,0,1,5.7-6.115c5.827-3.352,11.954-6.337,18.08-9.1,3.84-1.73,7.728-3.347,11.63-4.931a2.064,2.064,0,0,0,1.4-2.46,2.013,2.013,0,0,0-2.461-1.4Z"/><path class="b" d="M53.212,109.537a12.91,12.91,0,0,1,.969,2.163c.417,1.107.783,2.231,1.128,3.362.86,2.819,1.581,5.681,2.251,8.551,1.343,5.76,2.489,11.579,3.374,17.428a36.927,36.927,0,0,1,.607,5.567c.022,2.573,4.022,2.579,4,0-.039-4.51-1.109-9.151-1.932-13.565a183.858,183.858,0,0,0-4.224-18.314,37.144,37.144,0,0,0-2.719-7.211c-1.227-2.264-4.682-.247-3.454,2.019Z"/><path class="e" d="M103.122,202.207c.64-3.348.659-4.909-.077-2.845a123.137,123.137,0,0,0,5.19,20.279c-3.373-.034-6.779-.064-10.15-.094A102.716,102.716,0,0,0,103.122,202.207Z"/><path class="d" d="M153.1,225.421a176.284,176.284,0,0,0-3.911,23.129,1.943,1.943,0,0,0,3.273,1.553c.611-.584,1.53-1.458,1.964-1.962a15.841,15.841,0,0,1,2.068-2.261,19.167,19.167,0,0,1,.433,5.195c-.22,6.011.095,5.668-1.3,11.767-.385,1.683-.1,3.051.337,3.367,2.79,2.02,6.119,0,7.758-2.14a13.214,13.214,0,0,0,1.77-3.246c2.336-5.969,1.538-11.707.095-17.953s-3.507-12.433-3.614-18.843"/><path class="b" d="M150.445,227.771a121.611,121.611,0,0,0-3.239,20.536,3.989,3.989,0,0,0,4.913,4.2c2.537-.671,3.9-3.633,5.786-5.217l-3.342-.882a30.581,30.581,0,0,1,.307,6.365c-.044,1.576-.032,3.331-.221,4.8-.266,2.07-1.119,4.37-1.2,6.553a4.386,4.386,0,0,0,4.041,4.811c5.579.877,9.173-4.745,10.525-9.331,1.585-5.379.9-10.985-.295-16.365-1.411-6.375-3.591-12.638-3.749-19.222-.062-2.569-4.062-2.579-4,0,.125,5.2,1.393,10.251,2.672,15.267,1.216,4.766,2.522,9.641,2.3,14.6-.169,3.735-1.42,9.66-5.549,10.992a2.789,2.789,0,0,1-1.271.139c-.15-.025-.29-.11-.442-.123-.281-.024-.409-.466-.21.022a5.578,5.578,0,0,1,.291-2.465,43.687,43.687,0,0,0,.66-17.114c-.286-1.613-2.307-1.753-3.343-.882a20.433,20.433,0,0,0-2.069,2.261c-.291.33-.6.642-.915.951-.236.233-.732.927-1.049,1.011.181-.048.125,0,.142-.139.167-1.372.243-2.758.4-4.133a132.035,132.035,0,0,1,2.72-15.583c.588-2.5-3.268-3.572-3.857-1.063Z"/><path class="d" d="M163.4,202.446c.546,8.3,1.229,18.64,1.391,21.847-4.888.772-15.157,1.853-15.573,1.9-1.01-13.37-1.738-24.476-3.164-38.116"/><path class="b" d="M161.4,202.446c.479,7.28,1.019,14.56,1.391,21.847l1.468-1.929c-4.991.781-10.031,1.3-15.054,1.827a2.057,2.057,0,0,0-2,2,2.014,2.014,0,0,0,2,2c5.379-.564,10.773-1.134,16.117-1.969a2,2,0,0,0,1.469-1.929c-.372-7.287-.912-14.567-1.391-21.847-.168-2.555-4.17-2.574-4,0Z"/><path class="b" d="M86.031,84.054a42.52,42.52,0,0,1-.4,5.177c-.187,1.287-.335,2.629-.651,3.892-.029.117-.06.234-.1.349-.019.061-.152.456-.045.166s-.047.092-.078.152c-.069.13-.151.247-.225.373.128-.216.153-.167-.018.006-.093.095-.188.186-.284.278-.32.31.277-.12-.149.1-.141.073-.274.164-.415.238a3.546,3.546,0,0,1-.535.232c-.193.076-.385.156-.576.236q-.873.362-1.741.731a2.013,2.013,0,0,0-.718,2.737,2.054,2.054,0,0,0,2.737.717c.267-.114.111-.047-.067.028l.417-.175c.273-.114.545-.228.818-.339a14.327,14.327,0,0,0,1.94-.854,6.186,6.186,0,0,0,2.816-3.634,29.187,29.187,0,0,0,.708-4.042,50.354,50.354,0,0,0,.562-6.37,2,2,0,0,0-4,0Z"/><path class="b" d="M115.061,84.054a50.418,50.418,0,0,0,.614,6.718,21.577,21.577,0,0,0,.768,4.036,6.2,6.2,0,0,0,3.235,3.568c.585.277,1.2.491,1.8.729q.453.178.905.36l.426.173c.478.191-.272-.119-.011-.006a2.065,2.065,0,0,0,2.736-.718,2.015,2.015,0,0,0-.717-2.736q-1.475-.639-2.982-1.2a3.167,3.167,0,0,1-1.211-.747c-.044-.045-.307-.384-.137-.146s-.095-.176-.123-.227c-.058-.1-.108-.213-.16-.321.224.463.035.047,0-.06a26.251,26.251,0,0,1-.676-3.763,42.494,42.494,0,0,1-.471-5.655,2,2,0,0,0-4,0Z"/><path class="d" d="M104.169,98.614h-4.115a1.006,1.006,0,0,0,.145-.706c-.084-.271-.372-.415-.631-.532A43.273,43.273,0,0,1,87.076,88.67,20.294,20.294,0,0,0,83.358,93.4c1.132,3.97,2.86,10.275,5.337,17.37,4.681,13.412,11.1,28.38,14.549,35.836l.825,1.781c3.79-8.784,8.493-24.238,12.748-38.518,2.252-7.558,3.593-13.846,4.188-16.965a19.886,19.886,0,0,0-3.422-4.236,43.273,43.273,0,0,1-12.492,8.706c-.259.117-.547.261-.631.532a1.006,1.006,0,0,0,.145.706Z"/><path class="f" d="M98.265,106.315q.084.362.176.725a6.367,6.367,0,0,1,.264,1.609c0,.579-3.582,29.583-4.251,35.143,1.645,2.278,6.724,9.435,9.122,11.611,2.092-2.018,6.551-8.594,8.4-11.523-.514-4.517-5.106-34.153-5.093-35.051a9.757,9.757,0,0,1,.627-2.856c.818-2.5.982-4.237,1.8-6.733-2.427,0-10.775.02-12.537.02C97.367,101.612,97.716,103.963,98.265,106.315Z"/><path class="b" d="M98.787,110.588c2.7,0,5.4-.059,8.095-.06a2,2,0,0,0,0-4c-2.7,0-5.4.059-8.095.06a2,2,0,0,0,0,4Z"/><path class="b" d="M96.336,106.846a7.366,7.366,0,0,1,.257,2.868q-.2,1.7-.4,3.406-.673,5.617-1.362,11.233-.742,6.08-1.487,12.158-.289,2.364-.578,4.726c-.157,1.292-.579,2.69.164,3.843,1.328,2.06,2.895,4.016,4.38,5.963a44.153,44.153,0,0,0,4.854,5.774,2.038,2.038,0,0,0,2.828,0,42.964,42.964,0,0,0,4.6-5.825q1.179-1.657,2.31-3.35a13.061,13.061,0,0,0,2-3.23c.3-1.1-.2-2.655-.355-3.747q-.352-2.518-.727-5.034c-1.173-7.984-2.407-15.959-3.559-23.946-.1-.662-.188-1.324-.282-1.986-.071-.5.047.441-.032-.246-.017-.147-.044-.294-.052-.441a10.631,10.631,0,0,1,.82-3.411c.561-1.93.911-3.911,1.521-5.829a2.018,2.018,0,0,0-1.928-2.532c-4.179,0-8.358.019-12.537.02a2.023,2.023,0,0,0-1.929,2.532c.575,2.335.959,4.71,1.493,7.054.573,2.509,4.43,1.447,3.858-1.063-.535-2.344-.919-4.72-1.494-7.055l-1.928,2.532c4.179,0,8.358-.019,12.537-.02l-1.929-2.531c-.436,1.371-.75,2.766-1.086,4.164s-.874,2.769-1.184,4.182a7.39,7.39,0,0,0-.128,2.657c.3,2.332.657,4.658,1,6.985,1,6.744,2.024,13.484,3.014,20.229q.328,2.233.646,4.467.067.483.134.964c.028.2.116.859.042.3.054.407.108.814.155,1.222l.273-1.009c-1.281,2.023-2.624,4.008-4.007,5.961a37.76,37.76,0,0,1-4.079,5.156h2.828c-3.446-3.193-6.074-7.414-8.809-11.205l.273,1.009c1.287-10.695,2.635-21.383,3.905-32.08.1-.817.2-1.633.285-2.451a10.158,10.158,0,0,0-.45-3.478C99.6,103.28,95.74,104.339,96.336,106.846Z"/><path class="d" d="M112.334,108.191c4.012-3.987,6.639-8.816,9.6-13.639a21.354,21.354,0,0,0-4.354-5.882,43.273,43.273,0,0,1-12.492,8.706c-.259.117-.547.261-.631.532a1.006,1.006,0,0,0,.145.706,40.456,40.456,0,0,0,2.584,3.336C108.947,104.1,111.154,106.737,112.334,108.191Z"/><path class="d" d="M92.324,108.191c-4.011-3.987-6.638-8.816-9.6-13.639a21.354,21.354,0,0,1,4.354-5.882,43.273,43.273,0,0,0,12.492,8.706c.259.117.547.261.631.532a1.006,1.006,0,0,1-.145.706,40.456,40.456,0,0,1-2.584,3.336C95.712,104.1,93.505,106.737,92.324,108.191Z"/><path class="b" d="M113.749,109.605a55.947,55.947,0,0,0,7.862-10.658c.565-.931,1.125-1.865,1.691-2.8a2.829,2.829,0,0,0,.6-1.866,4.982,4.982,0,0,0-.78-1.737A22.878,22.878,0,0,0,119,87.256a2.033,2.033,0,0,0-2.828,0,40.568,40.568,0,0,1-6.692,5.424c-1.179.765-2.4,1.475-3.644,2.12-1.224.631-2.888,1.076-3.3,2.577a3.5,3.5,0,0,0,.9,3.04c.818,1.085,1.68,2.137,2.54,3.188,1.643,2.006,3.313,3.989,4.949,6a2.014,2.014,0,0,0,2.829,0,2.046,2.046,0,0,0,0-2.828c-1.366-1.679-2.757-3.337-4.133-5.007-.775-.94-1.549-1.881-2.307-2.834-.213-.267-.414-.516-.613-.789-.086-.118-.172-.275-.27-.383-.187-.2.066-.266.034.144l-.273,1.01c-.359.295-.389.357-.087.185l.291-.133c.293-.138.586-.277.876-.421q.889-.441,1.756-.925c1.192-.664,2.351-1.387,3.476-2.159a45.506,45.506,0,0,0,6.5-5.381h-2.828a20.361,20.361,0,0,1,4.041,5.477V93.542c-2.823,4.605-5.45,9.376-9.29,13.235C109.1,108.6,111.93,111.433,113.749,109.605Z"/><path class="b" d="M93.739,106.777c-3.84-3.859-6.467-8.63-9.29-13.235v2.019a20.361,20.361,0,0,1,4.041-5.477H85.661a45.693,45.693,0,0,0,6.5,5.381q1.686,1.159,3.475,2.159.8.444,1.611.852.435.219.876.425.217.1.437.2.452.258-.087-.185l-.273-1.01c-.029-.369.234-.364.034-.144a3.37,3.37,0,0,0-.217.31c-.218.3-.432.568-.666.862-.759.953-1.533,1.894-2.307,2.834-1.376,1.67-2.767,3.328-4.133,5.007a2.059,2.059,0,0,0,0,2.828,2.015,2.015,0,0,0,2.829,0c1.6-1.97,3.238-3.913,4.848-5.877.871-1.063,1.741-2.128,2.573-3.222a3.587,3.587,0,0,0,.967-3.129c-.4-1.458-1.963-1.894-3.155-2.5-1.25-.638-2.466-1.342-3.646-2.1a40.587,40.587,0,0,1-6.836-5.517,2.036,2.036,0,0,0-2.829,0,22.863,22.863,0,0,0-4.042,5.152,7.328,7.328,0,0,0-.825,1.612,2.629,2.629,0,0,0,.562,2.132c.567.93,1.127,1.864,1.692,2.8a55.947,55.947,0,0,0,7.862,10.658C92.728,111.433,95.557,108.605,93.739,106.777Z"/><path class="a" d="M102.988,199.054c2.38,13.759,7.292,30.868,13.859,33.268,6.645,2.429,26.151,1.863,33.1.447-.445-5.688-.883-10.533-1.337-15.153l.6-.068,15.494-1.756a2.334,2.334,0,0,0,2.046-2.433c-.1-2-.105-3.706-.385-9.446-1.291-26.544-3.116-54.66-4.407-80.348-.3-5.976-1.38-10.562-7.294-15.283-1.386-1.1-3.33-1.42-4.887-2.267a243.429,243.429,0,0,0-28.151-13.522,146.469,146.469,0,0,1-4.805,20.738c-4.587,15.4-10.009,30.19-14.635,39.467-1.321,2.786-2.839,5.012-2.839,10.193.008,1.825,1.853,21.8,3.645,36.163"/><path class="b" d="M122.316,94.915c5.812,2.364,11.5,5,17.089,7.859,5.042,2.582,10.507,5.018,14.832,8.734a16.523,16.523,0,0,1,4.384,5.318,15.965,15.965,0,0,1,1.271,5.708c.46,6.416.677,12.858,1.035,19.28.748,13.43,1.545,26.856,2.29,40.285q.558,10.086,1.064,20.173c.13,2.627.253,5.254.345,7.883.036,1.007.407,2.719-.026,3.6-.087.175.191-.009-.026.051a3.07,3.07,0,0,1-.46.052l-1.653.188-5.261.6-7.994.906a2.061,2.061,0,0,0-2,2,2.012,2.012,0,0,0,2,2c5.122-.58,10.25-1.122,15.368-1.742a4.447,4.447,0,0,0,4.168-4.532c0-1.564-.113-3.143-.174-4.706-.258-6.6-.63-13.192-.986-19.785-.763-14.167-1.6-28.33-2.4-42.5q-.584-10.337-1.121-20.677a38.064,38.064,0,0,0-.885-7.889,16.347,16.347,0,0,0-3.239-6.157c-4.3-5.248-10.776-8.223-16.661-11.289q-9.733-5.07-19.893-9.217a2.012,2.012,0,0,0-2.46,1.4,2.049,2.049,0,0,0,1.4,2.46Z"/><path class="b" d="M109.987,176.57a4.632,4.632,0,0,1,.038-.564l-.072.531a3.768,3.768,0,0,1,.239-.884l-.2.478a3.237,3.237,0,0,1,.228-.437c.038-.06.082-.116.121-.175-.36.546-.234.295-.105.16.059-.062.122-.118.185-.176.22-.2-.441.3-.169.131a3.886,3.886,0,0,1,.482-.264l-.477.2a3.832,3.832,0,0,1,.942-.25l-.532.071a4.4,4.4,0,0,1,1.106,0l-.531-.072a3.881,3.881,0,0,1,.848.229l-.477-.2a4.709,4.709,0,0,1,.491.262c.274.161-.391-.341-.161-.128.065.059.131.116.192.179a1.626,1.626,0,0,0,.173.2c-.074-.052-.329-.458-.139-.165a3.357,3.357,0,0,1,.247.462l-.2-.478a4.174,4.174,0,0,1,.281,1.042l-.072-.531a4.348,4.348,0,0,1,.015,1.051l.071-.532a3.552,3.552,0,0,1-.229.853l.2-.477a3.452,3.452,0,0,1-.247.475c-.036.058-.078.112-.115.17.36-.564.224-.279.09-.135-.066.07-.137.134-.206.2-.217.206.44-.307.173-.13a3.746,3.746,0,0,1-.542.305l.478-.2a3.8,3.8,0,0,1-.93.253l.532-.071a4.688,4.688,0,0,1-1.085.01l.531.072a3.444,3.444,0,0,1-.822-.214l.478.2a3.789,3.789,0,0,1-.469-.254c-.265-.162.445.383.119.089-.061-.056-.12-.114-.176-.175-.128-.14-.239-.387.113.161-.044-.068-.093-.132-.135-.2a3.718,3.718,0,0,1-.235-.457l.2.478a4.33,4.33,0,0,1-.276-1.019l.071.532a4.877,4.877,0,0,1-.042-.6,2,2,0,0,0-4,0,5.387,5.387,0,0,0,2.632,4.822,5.548,5.548,0,0,0,6.533-1.1,5.134,5.134,0,0,0,1.212-2.519,6,6,0,0,0-.238-3.016,5.091,5.091,0,0,0-2.137-2.678,5.815,5.815,0,0,0-3.856-.614,4.884,4.884,0,0,0-3.248,2.036,5.361,5.361,0,0,0-.9,3.07,2,2,0,0,0,4,0Z"/><path class="b" d="M151.049,107.751c-1.557,10.325-4.214,20.45-5.62,30.8-.842,6.205-1.092,12.481-1.372,18.732-.285,6.38-.493,12.762-.724,19.144-.088,2.439-.281,4.892-.2,7.33.188,5.376,1.032,10.767,1.606,16.114,1.176,10.977,2.344,21.95,3.207,32.957.2,2.549,4.2,2.571,4,0-.762-9.716-1.749-19.408-2.792-29.1-.562-5.213-1.156-10.424-1.7-15.638a69.688,69.688,0,0,1-.193-9.946c.472-12.145.511-24.387,1.774-36.484,1.155-11.069,4.2-21.856,5.864-32.849a2.066,2.066,0,0,0-1.4-2.46,2.016,2.016,0,0,0-2.461,1.4Z"/><path class="b" d="M60.622,180.381c.253,4.838-.533,9.655-1.038,14.453-.449,4.266-.914,8.531-1.37,12.8-.9,8.39-1.714,16.786-2.373,25.2-.2,2.566,3.8,2.553,4,0,.659-8.412,1.476-16.808,2.373-25.2.456-4.265.921-8.53,1.37-12.8.5-4.8,1.291-9.615,1.038-14.453-.134-2.561-4.135-2.577-4,0Z"/><path class="b" d="M149.43,230.838a72.355,72.355,0,0,1-11.362,1.056,112.524,112.524,0,0,1-13.852-.245,34.593,34.593,0,0,1-5.329-.805,5.872,5.872,0,0,1-3.3-1.777c-3.058-3.1-4.691-7.724-6.06-11.76a125.569,125.569,0,0,1-4.61-18.785,2.017,2.017,0,0,0-2.46-1.4,2.047,2.047,0,0,0-1.4,2.461,129.285,129.285,0,0,0,4.25,17.7c1.56,4.814,3.436,9.856,6.71,13.793,2.6,3.122,6.095,3.85,9.942,4.334a96.185,96.185,0,0,0,14.148.541,83.1,83.1,0,0,0,14.383-1.257c2.522-.506,1.455-4.362-1.063-3.857Z"/><path class="b" d="M57.539,234.442a77.324,77.324,0,0,0,12.852,1.209,82.814,82.814,0,0,0,14.94-.689,18.416,18.416,0,0,0,5.456-1.521,12.456,12.456,0,0,0,4.139-3.735c2.895-3.776,4.722-8.366,6.284-12.822a98.748,98.748,0,0,0,3.9-14.458c.471-2.516-3.383-3.594-3.857-1.063a99.786,99.786,0,0,1-3.076,12,53.915,53.915,0,0,1-5.424,12.5,13.636,13.636,0,0,1-3.139,3.636,10.632,10.632,0,0,1-4.064,1.393,66.128,66.128,0,0,1-13.521.8,76.081,76.081,0,0,1-13.427-1.1c-2.513-.5-3.589,3.35-1.063,3.857Z"/><path class="e" d="M103.244,146.608c-3.453-7.456-9.868-22.424-14.549-35.836-2.925-8.379-5.186-15.656-6.274-19.286-1.957,0-12.017,10.314-13.414,13.94-.091.238,5.528,5.086,7.423,6.786a49.576,49.576,0,0,0-5.028,5.811c-.039.26,25.81,32.48,28.82,35.536"/><path class="b" d="M80.492,92.018A432.676,432.676,0,0,0,97.05,137.523c1.445,3.384,2.923,6.755,4.467,10.095a2.017,2.017,0,0,0,2.737.717,2.045,2.045,0,0,0,.717-2.736,407.3,407.3,0,0,1-17.363-44.285q-1.689-5.161-3.258-10.36c-.739-2.459-4.6-1.411-3.858,1.064Z"/><path class="b" d="M75.016,110.8a42.967,42.967,0,0,0-4.543,5.091c-.895,1.138-1.417,2.268-.514,3.553,1.613,2.3,3.471,4.451,5.217,6.644q8.709,10.935,17.576,21.746c1.972,2.4,3.883,4.919,6.056,7.142,1.8,1.845,4.629-.985,2.828-2.828-1.412-1.445-2.671-3.058-3.961-4.609q-3.516-4.228-6.975-8.5-7.307-8.989-14.512-18.061-1.206-1.524-2.4-3.057c-.243-.312.3.388.07.091-.053-.07-.108-.139-.161-.21-.1-.131-.194-.27-.3-.4-.3-.359-.175-.568-.065.093v1.063c-.137.427-.219.374.031.091.233-.264-.111.137.061-.083.089-.114.181-.226.273-.338.477-.584.97-1.155,1.467-1.722a37.216,37.216,0,0,1,2.682-2.876c1.9-1.748-.936-4.571-2.828-2.829Z"/><path class="b" d="M82.421,89.486c-1.808.087-3.394,1.6-4.685,2.715a60.774,60.774,0,0,0-5.3,5.248,40.754,40.754,0,0,0-4.45,5.628c-.623,1-1.351,2.231-.7,3.39a8.007,8.007,0,0,0,1.623,1.727c2,1.848,4.076,3.615,6.106,5.432,1.913,1.712,4.751-1.107,2.828-2.829-1.417-1.268-2.854-2.514-4.274-3.778-.707-.63-1.414-1.261-2.1-1.908-.221-.208-.434-.426-.657-.632a2.14,2.14,0,0,0-.218-.228c-.268-.174.264.448.145.184l.273,1.009c.043,1.026-.319.95-.077.549.083-.138.15-.29.23-.431.172-.3.36-.6.554-.893.435-.653.871-1.23,1.217-1.663,1.225-1.534,2.54-3,3.9-4.409a54.162,54.162,0,0,1,4.025-3.819c.141-.119.284-.236.426-.353.074-.061.488-.38.133-.11.237-.18.478-.357.726-.52a6.225,6.225,0,0,0,.615-.365c.262-.224-.476.13-.1.041s-.531.029-.236.015c2.563-.123,2.577-4.124,0-4Z"/><path class="g" d="M109.791,152.781c1.074-1.632,1.7-2.592,2.877-4.392,8.85-13.55,20.186-30.106,20.147-30.366a49.576,49.576,0,0,0-5.028-5.811c1.894-1.7,7.514-6.548,7.423-6.786-1.4-3.626-11.457-13.94-13.414-13.94a215.545,215.545,0,0,1-4.979,21.745c-4.745,15.927-10.661,31.5-14.635,39.467-1.321,2.786-2.839,5.012-2.839,10.193"/><path class="b" d="M104.988,199.054c-.978-7.868-1.81-15.755-2.575-23.647-.286-2.948-.564-5.9-.811-8.848a33.84,33.84,0,0,1-.2-5.428c.24-3.137,1.707-5.749,3.039-8.523,1.567-3.265,2.969-6.613,4.316-9.974,3.514-8.773,6.593-17.728,9.349-26.766a197,197,0,0,0,5.614-23.85,2.059,2.059,0,0,0-1.4-2.461,2.019,2.019,0,0,0-2.461,1.4c-2.849,16.465-7.9,32.45-13.934,48.007-1.348,3.473-2.756,6.926-4.32,10.308-1.279,2.767-2.932,5.465-3.679,8.441-1.22,4.863-.235,10.161.227,15.063.826,8.771,1.74,17.538,2.827,26.281a2.064,2.064,0,0,0,2,2,2.011,2.011,0,0,0,2-2Z"/><path class="b" d="M126.373,113.626a37.216,37.216,0,0,1,2.682,2.876c.472.538.94,1.08,1.394,1.633.095.116.189.231.283.348.4.5-.118-.115.078.1s.3.679.077-.029v-1.063c.023-.171.337-.568.1-.273a5.044,5.044,0,0,0-.317.51c-.359.565-.729,1.122-1.1,1.679-1.261,1.908-2.538,3.806-3.812,5.706q-5.562,8.292-11.092,16.6c-2.212,3.343-4.4,6.7-6.6,10.054-1.419,2.156,2.043,4.163,3.454,2.019q7.556-11.486,15.185-22.92,2.872-4.284,5.74-8.57c.758-1.139,2.556-3.037,2.337-4.544-.2-1.352-1.58-2.563-2.431-3.548A40.652,40.652,0,0,0,129.2,110.8c-1.891-1.741-4.727,1.081-2.828,2.829Z"/><path class="b" d="M121.8,93.486c.294.014-.577-.09-.274-.028.406.084-.231-.135-.109-.051.206.143.448.249.66.388.248.163.489.34.726.52-.367-.279.095.079.132.11.143.118.286.234.427.353a54.162,54.162,0,0,1,4.025,3.819c1.362,1.412,2.677,2.875,3.9,4.409.318.4.8,1.033,1.217,1.663.18.271.356.546.518.829.082.142.149.3.236.436.282.449-.089.523-.047-.49l.273-1.009c-.114.254.354-.285.172-.214-.08.031-.181.2-.245.258-.223.206-.435.424-.657.632-.691.647-1.4,1.278-2.105,1.908-1.421,1.264-2.858,2.51-4.274,3.778-1.922,1.721.914,4.542,2.828,2.829,1.824-1.633,3.68-3.229,5.493-4.873a21.553,21.553,0,0,0,1.816-1.734c.941-1.08.708-2.177.071-3.349a31.018,31.018,0,0,0-4.083-5.417,64.986,64.986,0,0,0-5.407-5.514c-1.422-1.278-3.254-3.155-5.295-3.253-2.573-.124-2.567,3.877,0,4Z"/><path class="d" d="M60.8,188.042c7.685-5.716,20.717-17.528,26.43-24.181a278.363,278.363,0,0,0,22.144-29.981c4.05-6.5,18.965-37.431,19.88-39.309,1.28,0,2.777.876,3.916,1.365,2.309.99,4.579,2.074,6.838,3.174,4.143,2.017,8.743,3.9,12.506,6.593l.374.27c-6.991,15.526-14.261,31.222-23.3,45.674a214.1,214.1,0,0,1-12.429,17.915,247.6,247.6,0,0,1-27.8,30.308c-8.783,8.056-18.558,15.176-29.495,19.91a2.071,2.071,0,0,1-1.03.244c-.765-.085-1.176-.935-1.364-1.682-.725-2.871-.081-6.084.169-9.007q.382-4.463.886-8.913c.307-2.673.634-5.35,1.1-8C59.79,191.469,59.916,188.7,60.8,188.042Z"/><path class="b" d="M61.808,189.769a202.272,202.272,0,0,0,21.253-18.592c7-6.947,13.035-14.828,18.835-22.787a157.95,157.95,0,0,0,12.378-19.221c3.338-6.335,6.512-12.759,9.676-19.183,2.361-4.793,4.69-9.6,7.029-14.4l-1.727.99a7.1,7.1,0,0,1,2.42.872c1.018.468,2.051.9,3.069,1.369,1.956.9,3.882,1.858,5.828,2.777a70.249,70.249,0,0,1,11.308,6.111l-.718-2.737c-10,22.213-20.64,44.241-35.7,63.547a248.47,248.47,0,0,1-23.825,26.479c-8.131,7.8-16.9,14.951-26.9,20.235q-2.117,1.119-4.294,2.119c-.264.121-.529.242-.794.359-.217.1-.435.193-.654.285l.573.294c.051-.066-.406-1.949-.417-2.146-.169-3.226.449-6.566.752-9.774.333-3.536.693-7.077,1.2-10.593.2-1.405.446-2.8.634-4.208a6.132,6.132,0,0,1,.476-2.1c1.9-1.741-.931-4.564-2.828-2.828a4.93,4.93,0,0,0-1.312,2.665c-.237,1.1-.313,2.189-.46,3.064-.544,3.249-.931,6.523-1.286,9.8-.356,3.289-.628,6.585-.977,9.874-.285,2.688-.737,6.48,1.11,8.746,2.143,2.631,5.641.231,7.968-.909a90.817,90.817,0,0,0,7.986-4.44,119.319,119.319,0,0,0,14.434-10.668A223.16,223.16,0,0,0,113.074,177.8a226.556,226.556,0,0,0,22.108-31.584c7.315-12.645,13.437-25.928,19.431-39.235a2.077,2.077,0,0,0-.717-2.736c-3.741-2.692-7.962-4.508-12.1-6.486-2.1-1.006-4.194-2.036-6.325-2.985-1.994-.888-4-2.073-6.22-2.2a1.953,1.953,0,0,0-1.727.991c-5.1,10.466-10.155,20.954-15.507,31.294a149.767,149.767,0,0,1-10.543,17.275c-5.745,8.186-11.768,16.415-18.7,23.642a188.576,188.576,0,0,1-22.981,20.542,2.062,2.062,0,0,0-.718,2.737A2.014,2.014,0,0,0,61.808,189.769Z"/><path class="b" d="M56.5,431.173c-1.725-1.824-.691-4.274.56-6.04a54.379,54.379,0,0,1,6.177-6.657q3.322-3.317,6.8-6.469c2.006-1.818,3.949-3.794,6.718-4.275l-2.46-2.461c-.7,2.9,1.6,5.07,4.192,5.841a21.166,21.166,0,0,0,8.561.218,29.319,29.319,0,0,0,13.892-5.342l-3.009-1.727c-.012,1.844-.006,3.687,0,5.531q.006,1.385,0,2.769a7.661,7.661,0,0,1-.282,3.22c-.667,1.369-2.571,2.1-3.849,2.722a32.482,32.482,0,0,0-5.1,2.931c-3.071,2.258-5.65,5.055-8.532,7.531a20.6,20.6,0,0,1-10.493,5.029,20.874,20.874,0,0,1-6.9-.137c-2.193-.422-4.627-1.107-6.282-2.684-1.864-1.776-4.7,1.048-2.828,2.828,3.41,3.249,8.831,4.282,13.393,4.192a23.456,23.456,0,0,0,13.165-4.223c3.522-2.493,6.363-5.756,9.7-8.467a26.463,26.463,0,0,1,5.222-3.219,15.342,15.342,0,0,0,5.139-3.343c1.866-2.152,1.651-4.907,1.649-7.578,0-2.368-.021-4.735-.006-7.1.009-1.38-1.763-2.675-3.009-1.727a25.365,25.365,0,0,1-9.856,4.405,27.814,27.814,0,0,1-6.514.672,11.269,11.269,0,0,1-2.807-.3,3.216,3.216,0,0,1-1.227-.533,1.325,1.325,0,0,1-.375-.421c-.057-.173-.054-.18.009-.023a2.028,2.028,0,0,0-2.461-2.461c-3.362.585-5.866,2.938-8.307,5.146q-4.261,3.852-8.291,7.951c-2.381,2.425-5.173,4.935-6.609,8.075A7.883,7.883,0,0,0,53.671,434C55.443,435.875,58.268,433.043,56.5,431.173Z"/><path class="b" d="M153.189,434a7.833,7.833,0,0,0,1.266-8.773c-1.423-3.226-4.262-5.784-6.691-8.257q-3.942-4.014-8.115-7.793c-2.492-2.258-5.044-4.7-8.483-5.3a2.028,2.028,0,0,0-2.46,2.461c.062-.157.065-.15.008.023a1.325,1.325,0,0,1-.375.421,3.216,3.216,0,0,1-1.227.533,11.261,11.261,0,0,1-2.806.3,27.808,27.808,0,0,1-6.514-.672,25.358,25.358,0,0,1-9.856-4.405c-1.247-.948-3.019.347-3.01,1.727.014,2.068,0,4.136,0,6.2-.007,2.339-.325,5,.736,7.158.9,1.837,2.782,3.015,4.539,3.919a44.158,44.158,0,0,1,5.632,3.122c3.43,2.445,6.167,5.731,9.485,8.318a23.962,23.962,0,0,0,12.586,5.1c5.084.506,11.449-.421,15.289-4.08,1.867-1.779-.964-4.6-2.829-2.828-2.868,2.733-7.861,3.215-11.62,2.976a19.633,19.633,0,0,1-10.894-4.227c-2.957-2.308-5.448-5.148-8.381-7.484a28.249,28.249,0,0,0-5.068-3.281,18.29,18.29,0,0,1-4.557-2.579c-1.475-1.386-.923-4.095-.918-5.938.005-2.126.018-4.252,0-6.379l-3.009,1.727a29.322,29.322,0,0,0,13.892,5.342,21.9,21.9,0,0,0,8.366-.161c2.662-.718,5.109-2.923,4.388-5.9l-2.46,2.461c2.694.468,4.586,2.347,6.542,4.116q3.57,3.228,6.978,6.628a59.024,59.024,0,0,1,6.055,6.488c1.311,1.783,2.462,4.328.682,6.209S151.415,435.876,153.189,434Z"/><path class="c" d="M108.42,164.963a7.353,7.353,0,0,0,.211-1.35c.4-4.935.616-9.889.887-14.832.343-6.233.958-23.061.958-23.894H99.857c.014,10.884-.815,35.934-.88,38-.065,2.047.366,3.151,1.35,3.226,1.484.112,4.3.134,5.813.134C107.448,166.251,108.1,166.1,108.42,164.963Z"/><path class="b" d="M110.349,165.5a35.533,35.533,0,0,0,.582-6.08c.136-2.143.251-4.287.364-6.431.149-2.827.3-5.654.431-8.482q.342-7.642.608-15.287c.052-1.441.133-2.886.142-4.328a2.029,2.029,0,0,0-2-2H99.857a2.029,2.029,0,0,0-2,2c.006,7.9-.23,15.806-.449,23.7q-.141,5.121-.3,10.241c-.067,2.139-.514,4.912.224,6.943,1.016,2.8,4.01,2.426,6.462,2.46,2.682.037,5.534.313,6.557-2.74.819-2.447-3.043-3.5-3.857-1.064.077-.23.389-.023.144-.193a5.7,5.7,0,0,0-1.4.01c-1.106,0-2.212-.018-3.317-.054-.15,0-1.3-.1-1.313-.058,0-.017.425.257.43.253.39-.391-.453.858.032-.063a7,7,0,0,0-.087-1.435c0-.082,0-.164.008-.246.05-1.849.118-3.7.175-5.547.217-7.089.417-14.179.56-21.27.074-3.646.139-7.293.137-10.941l-2,2h10.619l-2-2c-.052,8.451-.588,16.939-1.038,25.377-.132,2.473-.255,4.947-.4,7.42a38.995,38.995,0,0,1-.545,6.747C105.883,166.932,109.739,168,110.349,165.5Z"/><path class="d" d="M90.49,162.619c3.14-1.4,12.8-2.6,14.921-3.777a50.867,50.867,0,0,0,4.781-2.707c1.692-1.143,4.016-4.1,1.6-6.2,2.891-.711,2.561-5.333-.206-6.62,2.525-1.367,2.142-4.657,1.024-5.508a3.626,3.626,0,0,0-1.252-1.243c1.249-.131,2.137-.215,2.137-.215,2.324-.583,2.4-4.915.684-5.853-3.317-1.815-7.9-1.637-9.592-1.563-9.462.418-11.583,10.863-17.69,14.186Z"/><path class="b" d="M91.5,164.346c-.371.16.271-.089.35-.116.256-.088.515-.167.775-.242.511-.15,1.028-.282,1.547-.407,1.3-.314,2.6-.582,3.911-.849a59.292,59.292,0,0,0,6.9-1.572c4.45-1.479,13.794-7.258,8.223-12.64l-.882,3.342c4.807-1.423,4.286-8.209.271-10.275v3.454a5.725,5.725,0,0,0,2.836-5.571,5.038,5.038,0,0,0-1-2.627c-.17-.217-.424-.457-.13-.1-.14-.171-.261-.365-.4-.54a5.306,5.306,0,0,0-1.539-1.368l-1.01,3.727c1.677-.174,3.358-.141,4.6-1.457a5.818,5.818,0,0,0,1.373-4.438,4.794,4.794,0,0,0-2.482-4.075,16.844,16.844,0,0,0-6.079-1.588,18.013,18.013,0,0,0-9.708,1.326c-2.873,1.4-5,3.876-6.913,6.362-1.846,2.4-3.606,5.2-6.266,6.7-2.244,1.261-.23,4.717,2.019,3.454,4.359-2.45,6.49-7.248,9.926-10.678a10.331,10.331,0,0,1,6.1-3.189,18.231,18.231,0,0,1,8.332.821c.183.07.972.477.821.341a.367.367,0,0,1,.148.226,2.506,2.506,0,0,1,.1,1.285,1.478,1.478,0,0,1-.176.557c-.041.078-.1.3-.235.249.256.1.8-.114.1-.063-.555.041-1.11.111-1.664.169-1.871.193-2.85,2.648-1.009,3.726a3.374,3.374,0,0,1,.847.931c.333.407-.118-.37.159.173-.1-.2.1.331.1.368a1.773,1.773,0,0,1-.882,1.826,2.018,2.018,0,0,0,0,3.454,2.184,2.184,0,0,1,1.226,1.671c.089.664-.037,1.144-.542,1.293a2.019,2.019,0,0,0-.882,3.343c1.724,1.666-2.292,3.792-3.4,4.4-.64.351-1.292.678-1.936,1.02-.2.105-1.11.549-.7.387a17.562,17.562,0,0,1-2.448.7c-4.114.968-8.514,1.361-12.42,3.044a2.011,2.011,0,0,0-.718,2.736,2.051,2.051,0,0,0,2.736.718Z"/><path class="b" d="M104.683,138.563c2.225.088,4.453-.087,6.677,0a2.016,2.016,0,0,0,2-2,2.041,2.041,0,0,0-2-2c-2.224-.087-4.452.088-6.677,0a2.015,2.015,0,0,0-2,2,2.043,2.043,0,0,0,2,2Z"/><path class="b" d="M102.375,145.082a64.032,64.032,0,0,1,8.1.036,2.016,2.016,0,0,0,2-2,2.042,2.042,0,0,0-2-2,64.032,64.032,0,0,0-8.1-.036,2,2,0,0,0,0,4Z"/><path class="b" d="M102.621,151.9c.163-.026.68-.031.046-.013.16,0,.325-.038.485-.054.338-.033.677-.057,1.017-.075.708-.038,1.418-.048,2.128-.038a36.746,36.746,0,0,1,3.895.252,1.988,1.988,0,0,0,1.414-.585,2,2,0,0,0,0-2.829,2.337,2.337,0,0,0-1.414-.586,30.95,30.95,0,0,0-8.635.071,2.006,2.006,0,0,0-1.2.919,2,2,0,0,0,2.259,2.938Z"/><path class="a" d="M58.468,149.936c3.029-1.962,7.9-3.062,11.368-4.157,3.114-.983,12.168-3.709,15.47-4.206A96.193,96.193,0,0,1,88.36,153.28c.555,3.214,1.985,7.586,2.395,10.709-7.05,4.048-22.468,9.795-30.119,12.546Z"/><path class="b" d="M59.477,151.663a30.05,30.05,0,0,1,7.7-3.011c2.041-.6,4.07-1.228,6.105-1.841a95.98,95.98,0,0,1,12.552-3.31l-2.46-1.4a92.42,92.42,0,0,1,3.02,11.519c.664,3.663,1.91,7.208,2.429,10.9l.919-2.258c-6.813,3.881-14.338,6.628-21.651,9.4-3.181,1.2-6.369,2.4-9.585,3.511-3.743,1.289-7.883,2.564-11.869,2.591-.1,0-.2-.015-.3-.023-.3-.024.347.056.035.007-.276-.044-.55-.1-.822-.166a15.094,15.094,0,0,1-5.376-2.486c-2.382-1.717-3.867-4.126-3.536-7.108.828-7.433,2.876-14.711,4.676-21.952,1.994-8.021,3.932-16.088,6.349-23.994.754-2.467-3.105-3.522-3.857-1.064-2.246,7.35-4.063,14.842-5.926,22.295-1.9,7.616-3.952,15.224-5.015,23.012a12.285,12.285,0,0,0,.264,6.062,12.017,12.017,0,0,0,2.806,4.361,18.393,18.393,0,0,0,8.258,4.658c3.723.973,7.845-.149,11.462-1.125,3.471-.937,6.84-2.242,10.209-3.489,4.587-1.7,9.155-3.455,13.673-5.333a109.128,109.128,0,0,0,12.227-5.7,2.076,2.076,0,0,0,.919-2.258c-.519-3.69-1.765-7.235-2.429-10.9a92.246,92.246,0,0,0-3.02-11.519,2.067,2.067,0,0,0-2.46-1.4,97.581,97.581,0,0,0-12.823,3.391c-4.817,1.457-10.193,2.477-14.494,5.174-2.175,1.364-.17,4.827,2.019,3.454Z"/><path class="h" d="M94.552,2.324C88.1,3.06,81.463,5.381,76.082,10.8L78.658,13c-4.39,2.712-7.837,7.967-9.421,12.618-1.864,5.473-2.42,13.261-.208,22.462l.017.067a4.044,4.044,0,0,1,.991-.28,4.318,4.318,0,0,1,3.453,1.01l3.7-2.2.3-.181c7.823-7.321,12.185-10.352,19.2-15.861.042.488,1.605,4.4,1.971,4.546.451.183,4.971-2.611,8.649-4.885l6.208.756a18.436,18.436,0,0,1,7.938,4.247,40.176,40.176,0,0,1,9.8,13.733,4.227,4.227,0,0,1,3.589-1.162,4.1,4.1,0,0,1,.752.187c2.145-5.511,2.459-13.494-.25-21.068-1.905-5.326-6.446-10.9-10.027-12.461L121.1,11.507c-4.148-5.683-11.063-9.167-19.914-9.438A46.107,46.107,0,0,0,94.552,2.324Z"/><path class="b" d="M132.809,50.286a2.24,2.24,0,0,1,3.171.418,4.809,4.809,0,0,1,.457,2.428,14.478,14.478,0,0,1-.2,2.977c-.646,3.536-2.433,7.782-6.365,8.487a2.018,2.018,0,0,0-1.4,2.461,2.045,2.045,0,0,0,2.46,1.4c6.088-1.092,8.993-7.96,9.451-13.478.237-2.852-.008-6.086-2.473-7.93a6.349,6.349,0,0,0-7.929.412,2.015,2.015,0,0,0,0,2.828,2.042,2.042,0,0,0,2.828,0Z"/><path class="b" d="M128.356,63.313a16.212,16.212,0,0,1-.945,4.37c-.063.192-.492,1.322-.226.717-.136.307-.278.611-.429.912a37.038,37.038,0,0,1-3.19,5.126c-2.765,3.792-6.521,7.813-11.257,8.924-2.5.588-1.445,4.446,1.063,3.857,5.708-1.339,10.134-6,13.492-10.549,2.9-3.924,5.29-8.371,5.492-13.357.1-2.574-3.9-2.57-4,0Z"/><path class="b" d="M74.9,47.458a6.35,6.35,0,0,0-7.929-.412c-2.467,1.838-2.71,5.083-2.473,7.93.458,5.517,3.363,12.386,9.451,13.478a2.057,2.057,0,0,0,2.46-1.4,2.018,2.018,0,0,0-1.4-2.461c-3.932-.705-5.72-4.951-6.365-8.487a14.364,14.364,0,0,1-.206-2.809,5.574,5.574,0,0,1,.39-2.481,2.223,2.223,0,0,1,3.24-.533,2.055,2.055,0,0,0,2.829,0,2.016,2.016,0,0,0,0-2.828Z"/><path class="b" d="M72.729,63.085a33.642,33.642,0,0,0,7.169,16.1c4.039,4.781,9.385,8.226,15.68,8.905a2.013,2.013,0,0,0,2-2,2.047,2.047,0,0,0-2-2c-5.343-.576-9.8-4.013-13.115-8.05-3.276-3.992-5-8.991-5.876-14.017a2.017,2.017,0,0,0-2.461-1.4,2.046,2.046,0,0,0-1.4,2.46Z"/><path class="b" d="M124.314,16.247a15.463,15.463,0,0,1,5.484,4.818,24.678,24.678,0,0,1,4,7.559,29.575,29.575,0,0,1,.255,17.832c-.786,2.458,3.074,3.51,3.858,1.064a33.414,33.414,0,0,0-.4-20.4,29.123,29.123,0,0,0-4.76-8.722,18.39,18.39,0,0,0-6.415-5.6,2.058,2.058,0,0,0-2.736.717,2.016,2.016,0,0,0,.717,2.737Z"/><path class="b" d="M80.534,9.882C73.868,12.433,69.2,19.037,67.117,25.666c-2.322,7.387-1.77,15.5-.016,22.941.59,2.5,4.448,1.444,3.857-1.064-1.55-6.572-2.061-13.651-.165-20.212,1.555-5.382,5.342-11.5,10.8-13.592a2.057,2.057,0,0,0,1.4-2.46,2.015,2.015,0,0,0-2.46-1.4Z"/><path class="b" d="M122.823,10.5A25.769,25.769,0,0,0,106.1.56a40.356,40.356,0,0,0-20.687,1.9A31.06,31.06,0,0,0,74.668,9.382c-1.831,1.815,1,4.644,2.828,2.829A28.6,28.6,0,0,1,94.337,4.349c5.95-.731,12.422-.433,17.869,2.29a19.962,19.962,0,0,1,7.163,5.877,2.062,2.062,0,0,0,2.737.718,2.014,2.014,0,0,0,.717-2.736Z"/><path class="b" d="M108.165,27.413c-2.939,1.8-5.836,3.71-8.874,5.346-.222.119-.448.231-.671.349-.105.052-.21.1-.317.15q.38-.155.107-.053-1.12.3,1.809.767c-.055-.085-.106-.172-.154-.261-.093-.256-.258-.508-.373-.756a11.67,11.67,0,0,1-1.073-2.86c-.268-1.657-2.306-1.7-3.343-.882-6.658,5.225-13.316,10.349-19.5,16.144-1.882,1.764.951,4.588,2.829,2.829,6.184-5.8,12.843-10.92,19.5-16.145l-3.343-.882a16.006,16.006,0,0,0,1.575,4.027c.739,1.54,1.905,2.4,3.608,1.686,3.609-1.505,6.919-3.967,10.239-6,2.19-1.345.183-4.806-2.019-3.454Z"/><path class="b" d="M112.988,32.972c3.961.91,7.19,3.518,9.852,6.49a40.584,40.584,0,0,1,6.479,10.1,2.016,2.016,0,0,0,2.736.718,2.047,2.047,0,0,0,.718-2.737,43.72,43.72,0,0,0-7.3-11.126c-3.06-3.357-6.924-6.268-11.42-7.3-2.506-.575-3.575,3.281-1.063,3.857Z"/><path class="c" d="M110.874,126.027H98.936c-8.019-5.328-4.607-19.091,5.249-19.31,5.894-.131,9.257,1.6,11.469,6.448,1.66,3.641.3,10.9-4.78,12.862"/><path class="b" d="M110.874,124.027H98.936l1.009.273a8.221,8.221,0,0,1-3.472-6.958,7.011,7.011,0,0,1,.179-1.787q.12-.57.3-1.127c.059-.184.122-.368.189-.55q.067-.181.141-.36c-.063.151-.066.163-.009.034a11.073,11.073,0,0,1,1.12-1.906c-.162.219.336-.391.42-.483a9.463,9.463,0,0,1,.978-.921c-.206.167.394-.276.535-.365a9.049,9.049,0,0,1,1.033-.562c.574-.266-.344.11.259-.1.192-.068.384-.132.579-.188a8.633,8.633,0,0,1,1.221-.268c-.368.051.341-.022.328-.021.245-.016.491-.021.736-.024.467-.006.935,0,1.4.023a11.624,11.624,0,0,1,2.767.416,6.886,6.886,0,0,1,3.7,2.357,8.251,8.251,0,0,1,1.912,3.973c.109.633-.021-.383.03.273.022.28.037.56.039.841a11.434,11.434,0,0,1-.064,1.308,10.72,10.72,0,0,1-.244,1.242,11.073,11.073,0,0,1-.413,1.307,6.633,6.633,0,0,1-3.261,3.647,2.064,2.064,0,0,0-1.4,2.46,2.014,2.014,0,0,0,2.461,1.4,10.839,10.839,0,0,0,6.209-6.871,12.466,12.466,0,0,0,.038-8.291,12.334,12.334,0,0,0-5.817-6.69,16.465,16.465,0,0,0-9.487-1.2c-5.578.888-9.226,5.9-9.808,11.276a12.709,12.709,0,0,0,1.54,7.51c1.02,1.808,3.006,4.315,5.239,4.341,3.85.046,7.7,0,11.554,0,2.574,0,2.578-4,0-4Z"/><path class="b" d="M97.059,72.644a12.153,12.153,0,0,0,5.851,1.366,9.648,9.648,0,0,0,6.015-1.82,2,2,0,0,0,0-2.829,2.064,2.064,0,0,0-2.829,0c.691-.538-.029-.009-.247.1-.17.089-.623.23,0,.018-.16.054-.314.121-.475.172-.425.137-.923.146-1.33.3.209-.081.32-.038.02-.009-.131.013-.261.024-.392.032-.315.021-.63.029-.946.027-.282,0-.564-.011-.846-.031-.129-.008-.259-.019-.388-.032-.074-.007-.147-.015-.221-.024q-.234-.029.181.024c-.073.055-.54-.1-.637-.119q-.306-.067-.606-.157c-.174-.052-.344-.115-.515-.173-.451-.155.419.2.01.008-.213-.1-.423-.2-.631-.315a2,2,0,1,0-2.019,3.453Z"/><path class="b" d="M101.642,59.186A26.371,26.371,0,0,1,102.258,62l-.072-.532a1.687,1.687,0,0,1,.011.389l.071-.532a.877.877,0,0,1-.043.175l.2-.478a.688.688,0,0,1-.062.113l.313-.405a.609.609,0,0,1-.092.091l.405-.313a1.761,1.761,0,0,1-.223.118l.478-.2a1.6,1.6,0,0,1-.376.11l.531-.071a1.489,1.489,0,0,1-.353,0l.532.071c-.133-.018-.263-.051-.4-.068a2.244,2.244,0,0,0-1.541.2,2,2,0,0,0-.717,2.737,1.916,1.916,0,0,0,1.2.919c.352.047.694.135,1.053.151a3.461,3.461,0,0,0,1.614-.393,2.452,2.452,0,0,0,1.322-1.6,3.775,3.775,0,0,0-.014-1.662c-.153-.907-.362-1.806-.6-2.7a2,2,0,0,0-2.46-1.4,2.021,2.021,0,0,0-1.2.919,2.1,2.1,0,0,0-.2,1.541Z"/><path class="b" d="M87.29,51.064c-.47,1.528-.164,5.043,2.731,5.343,3.826-.023,4.03-4.273,2.742-6.271C91.708,48.5,88.607,47.819,87.29,51.064Z"/><path class="b" d="M117.93,51.064c.471,1.528.164,5.044-2.731,5.343-3.826-.023-4.03-4.273-2.742-6.272C113.512,48.5,116.613,47.819,117.93,51.064Z"/></svg>