<?xml version="1.0" encoding="utf-8"?>
<!-- Uploaded to: SVG Repo, www.svgrepo.com, Generator: SVG Repo Mixer Tools -->
<svg width="800px" height="800px" viewBox="0 -22.62 350.501 350.501" xmlns="http://www.w3.org/2000/svg"><defs><style>.a{fill:#b5a39e;}.b{fill:#84655d;}.c{fill:#211715;}.d{fill:#f2635f;}.e{fill:#87cce3;}.f{fill:#908b8a;}</style></defs><path class="a" d="M113.538,83.126c7.092,6.855,19.62,20.093,24.585,36.168a94.734,94.734,0,0,1,1.639,13.238c0,28.367.725,57.612.725,82.084v64.947c0,21.16-48.53,23.288-69.022,23.288-21.744,0-69.023-2.128-69.023-23.288V214.616c0-24.472.725-53.717.725-82.084a94.734,94.734,0,0,1,1.639-13.238C9.771,103.219,22.3,89.981,29.391,83.126l3.771-12.161,74.889.888Z"/><path class="b" d="M20.441,296.89c15.705,5.194,37.968,5.961,51.024,5.961,20.492,0,69.022-2.128,69.022-23.288V214.616c0-24.472-.725-53.717-.725-82.084a94.734,94.734,0,0,0-1.639-13.238,64.275,64.275,0,0,0-6.507-14.186c-7.109,12.633-46.508,14.956-59.308,14.956-14.447,0-53.658-3.089-60.934-15.059a64.422,64.422,0,0,0-6.568,14.289,94.734,94.734,0,0,0-1.639,13.238c0,28.367-.725,57.612-.725,82.084v64.947C2.442,288.017,9.99,293.434,20.441,296.89Z"/><path class="c" d="M9.3,106.217c1.917,3.09,5.04,5.24,8.239,6.842a63.173,63.173,0,0,0,12.934,4.561,171.776,171.776,0,0,0,29.614,4.356,171.585,171.585,0,0,0,21.417.213,177.354,177.354,0,0,0,28.369-3.558,67.9,67.9,0,0,0,14.594-4.707c3.595-1.7,7.195-4.079,9.222-7.6,1.543-2.683-2.6-5.1-4.144-2.423-.177.308-.371.6-.57.9-.341.5.329-.383-.064.091-.119.143-.237.284-.36.423a16.021,16.021,0,0,1-1.69,1.6c-.052.045-.59.451-.161.131-.168.125-.339.249-.511.369-.355.249-.718.487-1.086.715-.781.485-1.588.927-2.41,1.336a56.76,56.76,0,0,1-11.525,3.942,154.877,154.877,0,0,1-27.121,3.832,177.882,177.882,0,0,1-48.19-3.3c-2.607-.552-5.2-1.185-7.754-1.943q-1.728-.513-3.431-1.111-.876-.311-1.741-.648c-.241-.094-.481-.191-.72-.289-.423-.173.087.043-.363-.153a30.205,30.205,0,0,1-5.453-2.99c-.169-.12-.337-.242-.5-.368.437.334-.226-.192-.3-.254-.293-.25-.578-.511-.852-.783-.3-.3-.589-.622-.865-.952-.387-.464.279.417-.054-.077-.129-.192-.258-.381-.38-.577-1.625-2.62-5.78-.212-4.144,2.423Z"/><path class="d" d="M112.017,27.442c0-3.122.051-7.319.065-11.3,0-12.293-27.256-13.687-41.321-13.687-13.475,0-41.526,1.708-41.526,13.646,0,.151-.062,7.936-.062,11.337,0,11.85.218,35.861.218,43.584,0,11.9,29.943,15.208,41.381,15.208,12.044,0,41.343-2.6,41.343-14.1C112.115,66.613,112.017,36.868,112.017,27.442Z"/><path class="c" d="M34.834,22.811c3.353,2.919,8.306,3.763,12.557,4.428a136.963,136.963,0,0,0,16.23,1.439,163.025,163.025,0,0,0,26.615-.829c5.457-.7,11.715-1.637,16.243-5.027a2.475,2.475,0,0,0,.861-3.284,2.416,2.416,0,0,0-3.283-.861,16.255,16.255,0,0,1-5.323,2.579,49.684,49.684,0,0,1-7.4,1.635,113.173,113.173,0,0,1-14.9,1.074,180.872,180.872,0,0,1-25.621-1.05,56.974,56.974,0,0,1-7.8-1.466c-.574-.155-1.144-.324-1.707-.514-.226-.076-.452-.155-.676-.238-.082-.031-.926-.386-.47-.182a12.155,12.155,0,0,1-1.271-.649c-.16-.095-.313-.2-.47-.3-.362-.23.309.285-.191-.152-2.321-2.02-5.73,1.362-3.395,3.395Z"/><path class="c" d="M114.159,13.589c-1.293-4.77-5.723-7.47-10.032-9.193C98.755,2.248,92.866,1.4,87.145.814a157.088,157.088,0,0,0-31.93,0,73.6,73.6,0,0,0-16.44,3.2c-4.118,1.418-8.829,3.615-10.88,7.725a11.416,11.416,0,0,0-1.066,5.2q-.029,3.923-.049,7.845c-.024,5.621.014,11.243.046,16.865q.055,9.624.121,19.25.023,3.726.039,7.452a16.961,16.961,0,0,0,.48,5.582c1.465,4.193,5.433,6.841,9.318,8.578A64.489,64.489,0,0,0,52.229,86.91,112.037,112.037,0,0,0,80.3,88.224a107.48,107.48,0,0,0,16.582-2.481c4.777-1.151,9.726-2.753,13.6-5.877a11.154,11.154,0,0,0,3.55-4.85,13.26,13.26,0,0,0,.485-4.605q-.01-6.677-.032-13.354c-.028-10.441-.106-20.885-.061-31.327.009-1.962.026-3.925.04-5.888a26.9,26.9,0,0,0-.3-6.253c-.691-3.01-5.32-1.736-4.629,1.276a25.217,25.217,0,0,1,.126,5.665c-.014,1.93-.031,3.86-.037,5.791-.006,1.967,0,3.934,0,5.9q.012,7.716.035,15.431l.042,15.926q.007,2.97.013,5.942,0,.985,0,1.973c0,.242.006.484,0,.726,0,.18-.018.359-.029.539-.017.278.027-.189.029-.2-.027.143-.049.288-.087.429-.045.169-.091.337-.141.5-.066.219-.255.589-.045.159a10.786,10.786,0,0,1-.616,1.081c-.115.181-.328.417-.065.1-.141.17-.285.336-.435.5-.316.337-.658.64-1,.945-.324.287-.065.064-.162.136-.2.148-.4.293-.609.432-.432.291-.877.561-1.33.816s-.9.484-1.357.706c-.219.106-.44.208-.662.309-.113.05-.226.1-.339.15-.734.32.193-.076-.239.1a64.293,64.293,0,0,1-14.81,3.668,110.718,110.718,0,0,1-26.183.759,96.407,96.407,0,0,1-14.785-2.47,52.808,52.808,0,0,1-7.159-2.3c-.56-.231-1.817-.824-2.661-1.289-.436-.241-.865-.493-1.285-.762-.187-.12-.371-.242-.554-.368-.111-.077-.734-.539-.379-.262a12.894,12.894,0,0,1-1.933-1.869c-.08-.1.164.277-.075-.111-.111-.182-.236-.355-.344-.539-.091-.156-.171-.316-.257-.474-.042-.079-.076-.162-.114-.242-.125-.264.135.431.01,0-.107-.371-.21-.731-.289-1.11-.024-.116,0,.409,0-.074,0-.232-.014-.468-.016-.7,0-.881,0-1.762-.006-2.642Q31.755,60.07,31.69,52c-.073-11.271-.149-22.54-.07-33.81,0-.683,0-1.365.015-2.047,0-.2.1-1.133,0-.544a9.808,9.808,0,0,1,.321-1.251c.119-.391-.186.289.081-.185.091-.161.17-.328.264-.488.111-.188.235-.367.354-.549.209-.318-.212.2.154-.191.3-.315.58-.631.9-.922.178-.162.362-.317.548-.469.21-.171-.039.029-.069.052.115-.086.23-.171.348-.252a21.379,21.379,0,0,1,5.512-2.7A54,54,0,0,1,47.46,6.733C57.177,4.864,67.428,4.626,77.4,4.969a111.518,111.518,0,0,1,16.482,1.6c4.618.857,9.761,2.074,13.167,4.79-.132-.105.353.307.428.374.158.143.312.289.461.441.171.173.33.355.493.535.295.323.066.065.127.153.246.358.456.726.667,1.105.221.395-.077-.28.072.147.088.25.168.5.237.754.808,2.978,5.44,1.714,4.629-1.276Z"/><path class="c" d="M111.841,84.823a110.222,110.222,0,0,1,17,20.349,60.588,60.588,0,0,1,6.91,14.564,48.51,48.51,0,0,1,1.411,9.735c.458,4.952.212,9.975.242,14.943q.058,9.692.183,19.381c.148,12.492.343,24.984.444,37.476.184,22.691.06,45.387.06,68.079v6.723q0,1.51,0,3.022c0,.354,0,.708-.013,1.061-.009.19-.135,1.3-.043.709a12.952,12.952,0,0,1-.389,1.741c-.08.268-.174.529-.266.792-.035.1-.289.668-.038.112-.076.169-.154.337-.236.5a13.672,13.672,0,0,1-.891,1.532c-.158.236-.323.468-.5.694.336-.444-.372.429-.485.554a20.6,20.6,0,0,1-6.493,4.8,47.512,47.512,0,0,1-9.012,3.53c-14.016,4.17-28.8,5.047-43.4,5.286-13.964.229-28.247-.242-41.886-2.608a100.034,100.034,0,0,1-11.111-2.527,47.189,47.189,0,0,1-9.248-3.621,31.274,31.274,0,0,1-3.811-2.383c-.092-.067-.462-.362-.107-.079-.109-.088-.221-.174-.328-.265-.263-.225-.528-.447-.784-.68a18.144,18.144,0,0,1-1.479-1.508c-.1-.118-.627-.771-.3-.347q-.293-.384-.558-.785a18.938,18.938,0,0,1-.977-1.735c-.063-.12-.226-.528-.024-.03-.047-.116-.1-.234-.137-.352-.1-.3-.21-.594-.3-.9s-.166-.615-.232-.926c-.026-.126-.048-.252-.073-.378s-.044-.255-.063-.383q.054.426.023.153c-.378-4.024-.082-8.193-.082-12.234V218.077c0-24.8.548-49.593.691-74.391.028-4.865-.19-9.768.276-14.615.327-3.4.494-6.653,1.56-9.921,3.162-9.7,9.079-18.373,15.748-25.994,2.533-2.894,5.208-5.659,7.971-8.333,2.224-2.153-1.172-5.545-3.394-3.394a115.592,115.592,0,0,0-17.746,21.32A68.575,68.575,0,0,0,2.74,117.874c-1.131,3.467-1.348,7.314-1.7,10.923-.487,4.94-.274,9.93-.3,14.889q-.057,9.934-.184,19.868C.4,176.274.2,188.994.1,201.714c-.181,23-.056,46.014-.056,69.019v6.945a26.082,26.082,0,0,0,.329,5.078,16.148,16.148,0,0,0,4,7.6c4.458,4.944,11.186,7.613,17.418,9.47a126.862,126.862,0,0,0,23.793,4.261c7.421.732,14.88,1.062,22.335,1.144,14.31.156,28.778-.474,42.874-3.075,7.122-1.314,14.373-3.163,20.78-6.635,5.067-2.747,9.958-7.064,11.028-13.006a30.571,30.571,0,0,0,.289-5.477V219.056c0-25.369-.557-50.732-.695-76.1-.027-4.863.152-9.736-.341-14.58-.369-3.624-.63-7.419-1.791-10.892-3.424-10.248-9.581-19.366-16.628-27.465-2.6-2.988-5.352-5.838-8.2-8.591-2.221-2.15-5.619,1.24-3.394,3.394Z"/><path class="e" d="M221.042,273.955c0,11.173,31.945,13.6,43.571,13.6,6.873,0,43.558-1.734,43.558-13.6l.383-.676c.14-6.3,1.841-50.231,3.305-84.812l-1.761.133c0-10.576-32-11.862-46.143-11.862-13.777,0-46.143,1.286-46.143,11.862l-.679,1.854c1.533,34.285,3.593,76.24,3.827,83.514"/><path class="e" d="M264.5,176.738c-13.777,0-46.143,1.286-46.143,11.862,0,11.834,33.836,14.406,46.15,14.406,7.279,0,46.136-1.837,46.136-14.406C310.639,178.024,278.64,176.738,264.5,176.738Z"/><path class="c" d="M264.5,174.338a191.693,191.693,0,0,0-23.988,1.344,81.415,81.415,0,0,0-12.292,2.335,24.318,24.318,0,0,0-9.256,4.467,8.111,8.111,0,0,0-2.844,7.719c.548,3.015,2.811,5.3,5.261,6.948a34.908,34.908,0,0,0,9.956,4.216,90.947,90.947,0,0,0,11.944,2.435,145.881,145.881,0,0,0,38.7.4c7.472-.917,15.12-2.151,22.056-5.2,4.846-2.132,10.766-6.737,8.593-12.818-1.049-2.936-3.708-4.894-6.434-6.18a45.081,45.081,0,0,0-10.831-3.281,155.525,155.525,0,0,0-25.959-2.333q-2.454-.05-4.908-.05c-3.089,0-3.094,4.8,0,4.8a197.86,197.86,0,0,1,22.9,1.192,79.743,79.743,0,0,1,11.264,2.054c.822.22,1.639.461,2.447.729q.575.191,1.142.4.276.1.549.209c.086.034.8.338.375.151a20.553,20.553,0,0,1,1.91.948c.286.163.568.333.844.514.164.109.863.636.421.279a11.143,11.143,0,0,1,1.235,1.184c.374.408-.274-.44.016.021.055.087.12.17.172.26.115.2.441,1.04.233.379.075.239.14.48.213.719.178.583.068-.352.024.268-.018.251-.014.508-.028.76.045-.766-.045.148-.111.38-.056.2-.384.914-.065.259-.1.2-.2.405-.31.6-.129.223-.277.431-.421.644-.19.281.4-.439.034-.049-.11.118-.211.246-.322.364a11.842,11.842,0,0,1-1.257,1.155c.489-.395-.265.183-.4.273-.316.217-.641.421-.971.617a31.152,31.152,0,0,1-8.193,3.246,91.117,91.117,0,0,1-10.574,2.2,158.935,158.935,0,0,1-18.151,1.648,129.031,129.031,0,0,1-16.609-.638c-7.393-.7-15.058-1.769-22.182-4.451a24.182,24.182,0,0,1-4-1.9c-.3-.176-.589-.36-.875-.552-.145-.1-.9-.66-.471-.319a11.434,11.434,0,0,1-1.352-1.241c-.141-.154-.619-.8-.278-.31-.156-.227-.311-.453-.447-.693-.095-.167-.406-.946-.173-.3-.108-.3-.183-.6-.275-.909-.185-.606-.059.329-.042-.313.007-.261,0-.522.012-.784-.025.725.024-.012.076-.244.022-.1.063-.187.089-.283.1-.363-.287.434.054-.114.12-.193.241-.394.353-.591.077-.137.339-.415-.047.042.087-.1.169-.211.264-.308.2-.2.387-.4.595-.593.108-.1.221-.19.331-.286.4-.349-.322.219.087-.067a16.715,16.715,0,0,1,1.658-1.029q.463-.251.94-.475c.165-.078.331-.152.5-.227a1.876,1.876,0,0,1,.361-.152,52.723,52.723,0,0,1,10.436-2.724,157.652,157.652,0,0,1,23.513-1.909q2.257-.043,4.516-.044C267.585,179.137,267.59,174.337,264.5,174.338Z"/><path class="c" d="M264.606,129.2a205.8,205.8,0,0,0-25.3,1.4,87.127,87.127,0,0,0-13.4,2.531,25.928,25.928,0,0,0-9.677,4.634,8.526,8.526,0,0,0-3.1,8.1c.554,3.2,2.947,5.629,5.542,7.374a36.761,36.761,0,0,0,10.379,4.427,96.454,96.454,0,0,0,13.07,2.675,156.053,156.053,0,0,0,22.779,1.69,158.245,158.245,0,0,0,18.135-1.255c7.989-.969,16.179-2.275,23.6-5.519,5.126-2.24,11.533-7.107,9.174-13.568-1.112-3.047-3.868-5.081-6.7-6.431a47.6,47.6,0,0,0-11.574-3.516,165.058,165.058,0,0,0-27.515-2.485q-2.7-.057-5.406-.057c-3.088,0-3.093,4.8,0,4.8a210.88,210.88,0,0,1,24.49,1.279,84.481,84.481,0,0,1,12.134,2.225c.863.233,1.72.488,2.568.771q.574.192,1.144.4c.22.082.439.168.659.253q.215.084.427.173c-.189-.081-.207-.087-.053-.02a22.376,22.376,0,0,1,2.011,1q.432.244.85.515c.16.1.316.214.474.321.549.372-.044-.065.242.182a11.768,11.768,0,0,1,1.208,1.2c-.44-.507.08.124.18.287.081.132.148.27.227.4.338.56-.046-.249.06.121.069.239.126.488.2.724.153.484-.022-.442-.007-.112.006.128.028.256.025.385-.005.28-.016.556-.034.837-.022.332.151-.608.008-.122-.055.188-.084.385-.14.575s-.384.918-.067.26c-.109.227-.218.451-.345.668-.143.246-.306.476-.468.709-.193.279.4-.439.033-.049-.149.159-.285.328-.435.486a12.771,12.771,0,0,1-1.275,1.152c.487-.389-.339.234-.476.327-.346.235-.7.456-1.06.668a27.522,27.522,0,0,1-3.858,1.85c-1.642.634-3.322,1.165-5.019,1.633a97.877,97.877,0,0,1-11.246,2.325,169.618,169.618,0,0,1-19.372,1.748,138.279,138.279,0,0,1-17.832-.7c-7.9-.757-16.113-1.912-23.7-4.807a19.559,19.559,0,0,1-2.057-.876c-.729-.347-1.445-.722-2.138-1.137q-.444-.265-.874-.553c-.154-.1-1.047-.783-.626-.44A12.534,12.534,0,0,1,219,147.282c-.115-.129-.225-.262-.334-.4.347.43.138.183.071.08-.181-.277-.352-.554-.519-.84-.055-.093-.095-.193-.145-.288-.257-.489.16.509,0-.015-.1-.306-.175-.608-.26-.916-.17-.619-.055.314-.034-.317.01-.314,0-.622.026-.936-.064.754.038-.033.091-.238.036-.144.1-.282.142-.422-.106.313-.183.331,0,.027.146-.239.29-.482.436-.721.085-.139.347-.4-.041.045.107-.122.207-.251.321-.367.2-.2.393-.4.6-.59.13-.117.266-.229.4-.341-.311.258-.111.076.094-.064a18.873,18.873,0,0,1,1.839-1.125q.466-.248.946-.471c.2-.093.4-.183.6-.272.672-.294-.436.169.26-.106a56.318,56.318,0,0,1,11.186-2.921,168.315,168.315,0,0,1,24.949-2.034q2.488-.05,4.976-.05C267.7,134,267.7,129.2,264.606,129.2Z"/><path class="c" d="M218.642,273.955c.1,7.14,8.392,10.352,14.106,12.034,7.862,2.314,16.193,3.233,24.35,3.72a121.253,121.253,0,0,0,15.88-.11,117.1,117.1,0,0,0,22.429-3.4c5.923-1.611,15.064-4.751,15.164-12.241.041-3.09-4.759-3.092-4.8,0,0,.3-.113.878.013.262-.05.243-.1.481-.168.72-.038.143-.1.28-.146.419.018-.052.255-.517.064-.164-.146.268-.3.526-.453.79-.313.551.249-.205-.2.267-.189.2-.367.407-.565.6s-.423.387-.64.575c-.089.077-.183.15-.276.223.5-.394-.154.1-.252.165a21.787,21.787,0,0,1-3.568,1.932c-.663.293.44-.172-.243.1-.14.056-.279.112-.42.167-.357.14-.718.273-1.079.4-.83.3-1.669.565-2.514.815a99.435,99.435,0,0,1-20.55,3.433A122.138,122.138,0,0,1,238,282.388a38.863,38.863,0,0,1-10.575-3.667c-.364-.206-.722-.423-1.071-.654-.14-.092-.277-.188-.415-.283-.1-.068-.657-.515-.214-.152a12.293,12.293,0,0,1-1.43-1.383c-.385-.436.273.428-.039-.051-.091-.139-.186-.273-.272-.415-.114-.19-.466-1.071-.254-.435-.1-.3-.182-.6-.265-.912-.038-.14-.047-.46.012.166-.02-.216-.034-.43-.037-.647-.043-3.087-4.843-3.095-4.8,0Z"/><path class="c" d="M213.071,144.59c-.225,4.939.179,9.961.362,14.9.361,9.713.786,19.424,1.218,29.134q.767,17.2,1.576,34.393.727,15.55,1.457,31.1c.292,6.263.6,12.527.839,18.793.013.353.026.707.037,1.061.1,3.081,4.9,3.095,4.8,0-.181-5.584-.473-11.165-.732-16.745q-.7-15.044-1.408-30.086-.806-17.223-1.587-34.447-.679-15.127-1.288-30.258c-.219-5.676-.549-11.379-.492-17.061,0-.261.007-.521.018-.781.142-3.088-4.659-3.081-4.8,0Z"/><path class="c" d="M311.477,146.158c-.463,4.922-.574,9.9-.806,14.832q-.679,14.46-1.273,28.925-.72,17.066-1.4,34.132-.609,15.227-1.188,30.454c-.224,5.951-.465,11.9-.633,17.855-.008.308-.017.615-.023.923-.07,3.09,4.73,3.09,4.8,0,.118-5.253.347-10.5.543-15.755q.549-14.7,1.138-29.4.68-17.08,1.393-34.16.628-15.016,1.306-30.032c.261-5.662.462-11.336.879-16.99.02-.261.04-.522.064-.783a2.417,2.417,0,0,0-2.4-2.4,2.452,2.452,0,0,0-2.4,2.4Z"/><path class="c" d="M186.535,77.718a2.657,2.657,0,0,1,1.081,2.766c-.251,1.233-1.381,1.627-2.494,1.683-3.39.169-7.2-.569-9.3,2.869a7.443,7.443,0,0,0-.716,5.21c.277,1.626,1.276,3.145,1.25,4.8a4.327,4.327,0,0,1-1.9,3.625c-1.248.712-2.8.449-4.172.634a6.887,6.887,0,0,0-4.965,3.04,5.153,5.153,0,0,0-.061,5.749,2.477,2.477,0,0,0,3.284.861,2.417,2.417,0,0,0,.861-3.283c-.484-.641.32-1.332,1.233-1.578,1.364-.367,3.085-.073,4.568-.554a8.975,8.975,0,0,0,5.918-9.306c-.178-1.848-1.184-3.441-1.386-5.266-.112-1.016.128-1.811,1.187-2,1.6-.283,3.284.114,4.9-.056a7.22,7.22,0,0,0,4.9-2.314c2.676-3.1,2.212-9.1-1.757-11.028a2.464,2.464,0,0,0-3.284.861,2.422,2.422,0,0,0,.861,3.284Z"/><path class="c" d="M194.321,51.781c-.519-.252-1.082-.438-1.6-.693a5.961,5.961,0,0,1-1.307-.875,9.182,9.182,0,0,1-1.171-1,5.745,5.745,0,0,1-1.644-5.707c.59-1.682,2.178-2.871,2.746-4.56,1.033-3.069-1.834-7.085-.523-10.046,1.136-2.563,2.851-3.191,5.213-3.674,1.881-.385,4.134-.549,5.122-2.2a10.138,10.138,0,0,0,.768-2.714c.687-2.59,2.721-4.633,5.475-4.534a7.777,7.777,0,0,1,4.1.761,10.144,10.144,0,0,0,2.471,1.361c1.866.453,3.565-1.035,5.16-2.1,2-1.341,4.677-2.383,6.787-1.218,2.835,1.565,3.362,6.1,6.271,7.522,1.6.782,3.563.488,5.175,1.25a5.744,5.744,0,0,1,2.905,5.179,9.142,9.142,0,0,1-.114,1.534,5.94,5.94,0,0,1-.295,1.545,10.092,10.092,0,0,0-.852,2.69c-.081,1.918,1.71,3.294,3.069,4.65,1.706,1.7,2.987,4.192,2.257,6.489-.982,3.086-5.064,4.417-5.891,7.548-.456,1.723.216,3.59-.217,5.319a5.741,5.741,0,0,1-4.512,3.86c-3.1.66-6.294-1.228-9.177-.418-2.813,1.336-3.224,4.767-5.751,6.43a5.742,5.742,0,0,1-5.918.5c-1.534-.906-2.39-2.7-3.937-3.583-2.808-1.611-6.624.358-9.51-1.112-2.147-1.094-3.018-3.755-3.031-6.165-.01-1.92.269-4.161-1.152-5.452A3.82,3.82,0,0,0,194.321,51.781Z"/><path class="c" d="M195.533,49.709c-1.915-.864-5.776-2.761-4.623-5.562.548-1.33,1.758-2.318,2.368-3.632a8.19,8.19,0,0,0,.526-4.824c-.326-2.174-1.815-4.935-.171-6.856,1.47-1.716,4.892-1.385,6.983-2.33a5.744,5.744,0,0,0,3.175-3.565c.389-1.235.382-2.551,1.216-3.616a3.107,3.107,0,0,1,2.713-1.159,5.93,5.93,0,0,1,3.589,1.117,6.013,6.013,0,0,0,4.928.884c1.688-.466,2.987-1.6,4.438-2.509a5.6,5.6,0,0,1,3.5-1.163c1.089.171,1.685,1.255,2.224,2.164,1.437,2.424,2.7,4.892,5.519,5.927,1.382.509,3.112.258,4.421.93a3.324,3.324,0,0,1,1.507,2.675,8.4,8.4,0,0,1-.759,3.927,5.9,5.9,0,0,0,.417,5.358c1.3,2.1,5.022,4.028,4.623,6.872-.288,2.046-3.059,3.451-4.307,4.944a7.685,7.685,0,0,0-1.878,4.137c-.164,1.432.441,3.3-.166,4.632-1.23,2.694-4.905,1.709-7.107,1.355-1.729-.278-3.715-.529-5.352.267a8.833,8.833,0,0,0-3.228,3.012c-.792,1.12-1.365,2.544-2.481,3.4a3.453,3.453,0,0,1-3.537.52c-1.357-.752-2.2-2.382-3.5-3.29a8.573,8.573,0,0,0-5.231-1.291c-1.459.04-3.2.46-4.613-.075-1.2-.454-1.691-1.861-1.876-3.03-.245-1.551.027-3.139-.208-4.7a5.881,5.881,0,0,0-3.117-4.514c-2.731-1.439-5.16,2.7-2.423,4.144,1.165.614.892,2.072.879,3.237a12.6,12.6,0,0,0,.848,5.075c1.485,3.555,4.7,4.956,8.4,4.783,1.38-.065,3.2-.477,4.475.224,1.312.722,2.144,2.279,3.356,3.178,3.07,2.277,7.509,1.438,10.177-1.083a20.344,20.344,0,0,0,2.721-3.752A5.273,5.273,0,0,1,225,64.278a2.142,2.142,0,0,1,1.645-.311c1.759.1,3.464.665,5.233.738a9.261,9.261,0,0,0,5.3-1.385,7.7,7.7,0,0,0,3.253-4.037,8.387,8.387,0,0,0,.331-2.734,10.838,10.838,0,0,1-.017-2.917,6.209,6.209,0,0,1,2.15-2.624,14.529,14.529,0,0,0,3.055-3.369c1.956-3.371.639-7.239-1.794-9.96-.723-.808-2.773-2.087-2.793-3.315a6.029,6.029,0,0,1,.659-1.727,11.807,11.807,0,0,0,.573-2.946c.373-3.482-1.222-7.279-4.6-8.646-1.541-.623-3.592-.329-4.983-1.223a7.661,7.661,0,0,1-1.921-2.632c-1.637-2.884-3.749-5.631-7.432-5.5a11.146,11.146,0,0,0-5.406,1.825c-.731.457-1.41.99-2.14,1.447a2.777,2.777,0,0,1-1.511.634c-.7-.075-1.42-.868-2.041-1.192a8.486,8.486,0,0,0-2.6-.854,10.857,10.857,0,0,0-5.044.2,8.011,8.011,0,0,0-3.985,3.057,9.272,9.272,0,0,0-1.114,2.214c-.286.792-.3,1.673-.6,2.45-.426,1.1-2.122,1.124-3.145,1.315a12.832,12.832,0,0,0-4.192,1.353c-3.173,1.861-4.174,5.376-3.561,8.814a32.876,32.876,0,0,1,.847,4.225c.065,1.456-1.041,2.477-1.829,3.62-2.243,3.252-1.482,7.365,1.207,10.116a14.237,14.237,0,0,0,4.567,2.94,2.473,2.473,0,0,0,3.284-.861A2.418,2.418,0,0,0,195.533,49.709Z"/><path class="f" d="M229.493,32.683,220.84,41a2,2,0,0,0,2.828,2.829l8.653-8.314a2,2,0,0,0-2.828-2.828Z"/><path class="f" d="M221.583,35.289c2.531,3.008,5.132,5.952,7.571,9.036a2,2,0,0,0,2.829,0,2.059,2.059,0,0,0,0-2.828c-2.44-3.084-5.04-6.029-7.571-9.037a2.01,2.01,0,0,0-2.829,0,2.055,2.055,0,0,0,0,2.829Z"/><path class="f" d="M208.911,32.683,200.258,41a2,2,0,0,0,2.828,2.829l8.653-8.314a2.018,2.018,0,0,0,0-2.828,2.039,2.039,0,0,0-2.828,0Z"/><path class="f" d="M201,35.289c2.531,3.008,5.132,5.952,7.571,9.036a2,2,0,0,0,2.829,0,2.059,2.059,0,0,0,0-2.828c-2.44-3.084-5.04-6.029-7.571-9.037a2.01,2.01,0,0,0-2.829,0,2.055,2.055,0,0,0,0,2.829Z"/><path class="c" d="M333.238,71.243a15.015,15.015,0,0,0-12.1,1.674A9.718,9.718,0,0,0,316.969,79a10.668,10.668,0,0,0,1.481,7.616c2.439,3.732,7.041,5.247,11.346,4.79,4.178-.443,8.263-2.321,10.041-6.356a9.709,9.709,0,0,0,.349-7.4c-1.233-3.187-3.879-5.138-6.948-6.411a2.4,2.4,0,0,0-2.952,1.676,2.475,2.475,0,0,0,1.676,2.952c-.328-.136.035.02.084.044.138.067.277.132.413.2.261.134.518.276.768.428s.463.3.692.457c.035.024.294.232.073.053-.251-.2.156.141.2.182.183.164.36.336.529.515.1.1.546.7.189.187.256.367.472.74.692,1.129.2.356-.023-.073-.047-.137.037.1.079.194.111.294.064.2.128.391.179.592a1.754,1.754,0,0,1,.123.6c0-.019-.048-.623-.029-.188.006.124.02.249.025.374.007.174.1,1.006-.042,1.114.009-.007.107-.558.022-.2-.023.095-.036.194-.057.29q-.069.324-.167.64c-.056.185-.141.368-.191.554-.07.259.106-.26.1-.236a1.2,1.2,0,0,1-.122.265c-.19.366-.4.712-.618,1.06-.307.48.317-.343-.056.082-.109.124-.214.25-.328.37-.129.135-.262.265-.4.39-.068.062-.142.119-.209.182-.338.317.333-.207.105-.08-.311.173-.6.393-.913.563q-.211.113-.427.216c-.084.04-.169.076-.253.117-.45.218.535-.179.053-.026a18.8,18.8,0,0,1-2.259.638c-.173.032-.349.053-.521.087-.316.062.508-.039.186-.027-.1,0-.2.022-.3.031-.431.039-.865.058-1.3.055-.383,0-.763-.031-1.145-.06-.605-.045.478.1-.117-.012-.224-.041-.447-.079-.669-.13a10.006,10.006,0,0,1-1.154-.332c-.092-.033-.637-.265-.268-.1.348.159-.279-.142-.383-.2a3.149,3.149,0,0,1-1-.626c.015.02.438.391.136.1-.053-.051-.113-.1-.168-.145q-.252-.221-.483-.465c-.138-.146-.265-.3-.4-.455.338.4.069.08-.071-.139q-.169-.266-.317-.545c-.11-.211-.277-.662-.1-.168a10.74,10.74,0,0,1-.4-1.323c-.054-.241-.1-.484-.133-.728.081.547,0-.142-.011-.334-.009-.164,0-.926-.055-.374a5.46,5.46,0,0,1,.146-.748c.057-.236.126-.469.205-.7.039-.111.082-.22.124-.33-.1.265-.141.294.007.024.1-.171.184-.346.287-.513.12-.194.436-.6.1-.186a9.292,9.292,0,0,1,.95-.984c.064-.058.343-.281.068-.064-.3.239.113-.076.144-.1.2-.136.4-.263.611-.382s.424-.231.642-.335c.1-.046.2-.088.294-.133-.232.107-.368.143-.049.03a14.157,14.157,0,0,1,1.393-.426c.236-.057.472-.107.71-.151.106-.02.212-.035.317-.055.446-.084-.392.035-.085.007a17.41,17.41,0,0,1,2.74-.079c.21.013.42.038.631.055.241.019.168.138-.236-.034a1.578,1.578,0,0,0,.323.052,9.775,9.775,0,0,1,1.11.261,2.4,2.4,0,1,0,1.276-4.628Z"/><path class="c" d="M312.4,99.562a10.165,10.165,0,0,0-3.9-.327,10.038,10.038,0,0,0-4.673,1.508,7.2,7.2,0,0,0-3.113,4.482,7.837,7.837,0,0,0,1.054,5.63,8.582,8.582,0,0,0,8.151,3.549c3.016-.316,6-1.658,7.3-4.576a7.2,7.2,0,0,0,.313-5.486,8.6,8.6,0,0,0-5.132-4.78,2.4,2.4,0,0,0-1.85.242,2.4,2.4,0,0,0-.861,3.284,2.836,2.836,0,0,0,1.435,1.1c-.625-.259-.024,0,.128.078q.257.131.5.28c.156.094.3.2.454.3.065.044.265.193-.036-.03-.329-.245-.022-.009.049.055.12.107.236.22.347.337.16.17.375.575,0-.045.152.248.31.486.453.74.177.315-.122-.3-.114-.287a.941.941,0,0,1,.073.193c.04.129.084.256.118.388a1.172,1.172,0,0,1,.08.392c-.007.034-.059-.708-.048-.344,0,.082.012.164.016.245.009.246-.025.486-.028.731.011-.771.063-.421.007-.161-.03.142-.067.282-.109.42-.037.122-.093.241-.126.363-.065.242.163-.43.151-.352a.8.8,0,0,1-.081.174c-.127.238-.261.466-.4.695-.251.4.406-.465.093-.114-.072.081-.141.164-.215.243s-.172.174-.263.256c-.044.04-.093.077-.137.119-.266.25.425-.288.236-.182s-.391.258-.6.369c-.092.049-.186.1-.28.142-.055.026-.111.049-.166.076-.352.171.608-.221.232-.1a12.239,12.239,0,0,1-1.481.418c-.113.021-.228.036-.341.057-.279.05.625-.068.342-.047-.067,0-.133.014-.2.02q-.425.039-.851.036c-.251,0-.5-.022-.75-.039-.5-.035.638.115.143.022-.147-.028-.293-.053-.439-.086a6.877,6.877,0,0,1-.757-.217c-.1-.037-.52-.208-.077-.022s-.049-.033-.152-.087a2.108,2.108,0,0,1-.655-.411c-.017-.023.509.439.256.2-.034-.033-.074-.063-.11-.095-.11-.1-.216-.2-.316-.3a1.22,1.22,0,0,1-.26-.3c-.009-.024.378.551.195.245-.034-.058-.076-.112-.112-.169-.075-.116-.144-.235-.208-.357-.024-.047-.046-.095-.071-.142-.184-.341.066.135.09.23-.074-.293-.2-.571-.266-.868-.035-.157-.048-.322-.087-.477.006.025.06.649.042.261,0-.087-.015-.174-.02-.261s0-.181-.01-.268c-.045-.37-.035.177-.055.243.046-.156.056-.33.1-.49s.082-.307.134-.457c.193-.554-.227.4,0,0,.064-.112.12-.227.188-.337.038-.061.081-.12.118-.182.18-.3-.176.22-.184.227.212-.212.4-.44.623-.644.344-.316-.5.348-.029.023q.195-.133.4-.25t.421-.22c.519-.246-.479.17-.037.016a9.5,9.5,0,0,1,.913-.279c.155-.037.31-.071.466-.1.069-.012.138-.023.207-.036.377-.068-.564.064-.275.035a10.883,10.883,0,0,1,1.8-.052c.138.009.275.024.413.036.353.031-.739-.119-.162-.018a6.516,6.516,0,0,1,.728.171,2.424,2.424,0,0,0,2.952-1.676A2.45,2.45,0,0,0,312.4,99.562Z"/><path class="c" d="M345.981,102.239a7.886,7.886,0,0,0-3.015-.262,8,8,0,0,0-3.737,1.189,5.9,5.9,0,0,0-2.57,3.658,6.389,6.389,0,0,0,.834,4.608A6.891,6.891,0,0,0,344,114.343c2.417-.251,4.835-1.317,5.884-3.66a5.9,5.9,0,0,0,.293-4.5,6.017,6.017,0,0,0-1.5-2.315,8.505,8.505,0,0,0-2.7-1.626,2.4,2.4,0,0,0-1.849.242,2.4,2.4,0,0,0-.861,3.283,2.83,2.83,0,0,0,1.434,1.1l.107.045-.573-.242a5.9,5.9,0,0,1,1.255.726l-.485-.375a4.362,4.362,0,0,1,.685.68l-.376-.486a3.692,3.692,0,0,1,.445.744l-.242-.573a3.555,3.555,0,0,1,.238.851l-.086-.638a3.726,3.726,0,0,1,0,.926l.085-.638a3.972,3.972,0,0,1-.259.946l.242-.573a4.124,4.124,0,0,1-.482.837l.375-.486a3.765,3.765,0,0,1-.657.666l.485-.375a4.537,4.537,0,0,1-.964.54l.573-.242a6.4,6.4,0,0,1-1.563.412l.638-.086a6.514,6.514,0,0,1-1.6.006l.638.085a5.229,5.229,0,0,1-1.318-.351l.574.242a4.211,4.211,0,0,1-.855-.495l.486.376a3.806,3.806,0,0,1-.657-.655l.376.486a3.825,3.825,0,0,1-.453-.784l.242.574a4.625,4.625,0,0,1-.3-1.145l.086.638a3.39,3.39,0,0,1-.033-.766l-.085.639a4.036,4.036,0,0,1,.272-1.02l-.242.573a3.665,3.665,0,0,1,.4-.691l-.375.486a3.831,3.831,0,0,1,.65-.654l-.485.376a4.674,4.674,0,0,1,1-.573l-.573.242a6.285,6.285,0,0,1,1.489-.4l-.638.086a7.147,7.147,0,0,1,1.854-.011l-.638-.085a5.011,5.011,0,0,1,.749.158,2.4,2.4,0,1,0,1.276-4.628Z"/></svg>