<?xml version="1.0" encoding="utf-8"?>
<!-- Uploaded to: SVG Repo, www.svgrepo.com, Generator: SVG Repo Mixer Tools -->
<svg width="800px" height="800px" viewBox="-88.44 0 358.753 358.753" xmlns="http://www.w3.org/2000/svg"><defs><style>.a{fill:#ffffff;}.b{fill:#211715;}.c{fill:#ffda71;}.d{fill:#3f88c9;}.e{fill:#79c6e0;}.f{fill:#7a7473;}.g{fill:#4d4544;}.h{fill:#f4b467;}</style></defs><rect class="a" x="2.4" y="2.415" width="177.04" height="353.934" rx="24"/><path class="b" d="M6.811,33.206l172.943-.012c0,40.158,0,246.689,0,290.842-6.186-.007-173,0-176.526,0,0,0-.175,0-.514.007,0-44.122,0-250.651,0-290.842h4.1Z"/><path class="b" d="M74.856,20.692q11.6,0,23.2-.012c3.089,0,3.094-4.8,0-4.8q-11.6,0-23.2.012c-3.088,0-3.093,4.8,0,4.8Z"/><path class="b" d="M106.984,21.092c3.6,0,3.609-5.6,0-5.6s-3.61,5.6,0,5.6Z"/><path class="b" d="M155.44,353.949H30.717c-1.378,0-2.756.009-4.133,0A21.6,21.6,0,0,1,4.8,332.271c0-.609,0-1.217,0-1.826V28.992c0-5.1.641-9.962,3.516-14.4A21.767,21.767,0,0,1,26.405,4.815c1.05-.009,2.1,0,3.151,0h85.1c13.552,0,27.108-.1,40.66,0A21.84,21.84,0,0,1,177.04,26.506c.015,2.046,0,4.092,0,6.137V310.111c0,7.341.026,14.682,0,22.022a21.838,21.838,0,0,1-21.6,21.816c-3.087.031-3.095,4.831,0,4.8a26.72,26.72,0,0,0,26.4-26.492c.016-2.082,0-4.165,0-6.247V46.366c0-6.645.057-13.293,0-19.938A26.71,26.71,0,0,0,155.358.015c-4.192-.033-8.385,0-12.577,0H29.094c-1.226,0-2.458-.03-3.683.02A26.642,26.642,0,0,0,5.235,10.66C1.26,15.943,0,22.137,0,28.576V330.913c0,7.99,2.637,15.613,8.737,21.052A26.861,26.861,0,0,0,26.5,358.749c1.313.01,2.627,0,3.941,0h125C158.529,358.749,158.534,353.949,155.44,353.949Z"/><path class="c" d="M150.061,301.883a25.916,25.916,0,0,1,2.6-.149,17.252,17.252,0,0,1,2.582.083l-.638-.085.043.006a1.823,1.823,0,0,0,.957.043,1.791,1.791,0,0,0,.892-.285,2.4,2.4,0,0,0,.861-3.284,2.307,2.307,0,0,0-1.434-1.1,19.992,19.992,0,0,0-3.189-.176,25.909,25.909,0,0,0-2.671.15,2.663,2.663,0,0,0-1.7.7,2.4,2.4,0,0,0,0,3.394,2.314,2.314,0,0,0,1.7.7Z"/><path class="d" d="M22.358,302.179c.86-.1,1.731-.133,2.6-.149a17.111,17.111,0,0,1,2.581.084l-.638-.086.043.006a1.823,1.823,0,0,0,.957.043,1.778,1.778,0,0,0,.893-.285,2.4,2.4,0,0,0,.861-3.283,2.305,2.305,0,0,0-1.435-1.1,19.877,19.877,0,0,0-3.189-.177,26.446,26.446,0,0,0-2.67.15,1.8,1.8,0,0,0-.925.207,1.8,1.8,0,0,0-.772.5,2.4,2.4,0,0,0,0,3.394,2.309,2.309,0,0,0,1.7.7Z"/><path class="e" d="M35.4,308.4c.86-.1,1.731-.133,2.6-.149a17.111,17.111,0,0,1,2.581.084l-.638-.086.043.006a1.816,1.816,0,0,0,.958.043,1.777,1.777,0,0,0,.892-.285,2.4,2.4,0,0,0,.861-3.283,2.306,2.306,0,0,0-1.434-1.1,19.9,19.9,0,0,0-3.19-.177,26.446,26.446,0,0,0-2.67.15,2.672,2.672,0,0,0-1.7.7,2.4,2.4,0,0,0,0,3.394,2.309,2.309,0,0,0,1.7.7Z"/><path class="a" d="M100.417,166.382c.128,7.394-.163,14.841-.592,22.222a2.4,2.4,0,1,0,4.8,0c.429-7.381.72-14.828.592-22.222-.054-3.085-4.854-3.095-4.8,0Z"/><path class="f" d="M23.172,65.124c-1.614,2.1-.638,4.062,1.575,5.04,3.032.962,4.421-2,3.915-3.91C28.248,64.688,25.029,62.541,23.172,65.124Z"/><path class="g" d="M35.533,52.992c-2.25,2.926-.89,5.662,2.2,7.026,4.227,1.34,6.163-2.783,5.458-5.45C42.609,52.384,38.122,49.391,35.533,52.992Z"/><path class="g" d="M144.824,215.141c-2.451,3.186-.969,6.165,2.389,7.649,4.6,1.459,6.71-3.03,5.943-5.933C152.527,214.479,147.642,211.22,144.824,215.141Z"/><path class="b" d="M2.914,35.606H21.45l41.6,0,49.918,0,43.473,0h22.821c3.089,0,3.094-4.8,0-4.8h-18.7l-41.689,0-49.922,0-43.4,0-22.118,0H2.914c-3.088,0-3.094,4.8,0,4.8Z"/><path class="b" d="M2.914,326.441l18.536,0,41.6,0,49.918,0,43.473,0,22.271,0h.55c3.089,0,3.094-4.8,0-4.8l-18.7,0-41.689,0-49.922,0-43.4,0-22.118,0H2.914c-3.088,0-3.094,4.8,0,4.8Z"/><path class="b" d="M69.069,342.493q18.5,0,36.995-.011h7.384c3.089,0,3.094-4.8,0-4.8q-18.645,0-37.292.011H69.069c-3.088,0-3.093,4.8,0,4.8Z"/><path class="g" d="M14.373,282.993q8.058-.3,16.121-.463c2.556-.053,5.114-.106,7.671-.084a17.468,17.468,0,0,1,2.059.067c-.626-.081.387.161.4.167a.575.575,0,0,1,.278.314c-.036-.069.032.11-.016.292.121-.46-.178.174-.255.285a2.4,2.4,0,0,0,4.145,2.423,5.31,5.31,0,0,0-3.008-8.011,17.585,17.585,0,0,0-5.108-.339c-5.166.018-10.333.172-15.5.326q-3.393.1-6.787.223c-3.079.115-3.094,4.915,0,4.8Z"/><path class="g" d="M36.918,289.156c5.771-.146,11.559-.559,17.323-.877,3.234-.179,6.474-.4,9.714-.439,1.653-.022,4.349.868,4.6,3.033a2.475,2.475,0,0,0,2.4,2.4,2.414,2.414,0,0,0,2.4-2.4,8.781,8.781,0,0,0-6.382-7.445,13.558,13.558,0,0,0-4.53-.348c-1.913.061-3.824.159-5.734.263-6.588.356-13.2.846-19.793,1.013-3.083.078-3.095,4.878,0,4.8Z"/><path class="g" d="M167.41,273.081H140.328c-2.753,0-5.55-.14-8.3.038-3.459.224-7.461,1.163-9.516,4.223a6.217,6.217,0,0,0-.621,5.82,6.139,6.139,0,0,0,4.469,3.337,38.712,38.712,0,0,0,7.272.347,9.872,9.872,0,0,1,3.321.19c.492.195-.072,0,.37.237-.034-.018-.253-.455.069.106-.184-.32.068.264.094.329-.072-.182.023.03-.035.208.045-.139-.1.183-.231.282a3.33,3.33,0,0,1-1.9.368c-1.389.008-2.778,0-4.166,0H106.884c-3.089,0-3.094,4.8,0,4.8h26.664a13.571,13.571,0,0,0,4.987-.5,5.5,5.5,0,0,0,1.3-9.7c-2.012-1.37-4.6-1.081-6.9-1.132-1.292-.029-2.583-.058-3.876-.069a7.183,7.183,0,0,1-2.117-.255,3.146,3.146,0,0,1-.477-.258c.285.177-.267-.219-.09-.048a.625.625,0,0,1-.145-.223,2,2,0,0,1,.4-1.377,6.28,6.28,0,0,1,3.486-1.62c2.311-.5,5.32-.3,7.957-.3H167.41c3.089,0,3.094-4.8,0-4.8Z"/><path class="g" d="M34.81,276.932c3.981-2.238,8.126-4.207,12.252-6.16,5.03-2.381,10.061-4.692,15.185-6.679,5.314-2.061,10.72-3.162,16.451-2.237,7.393,1.194,13.908,4.822,20.3,8.522a131.376,131.376,0,0,0,16.348,7.749,2.414,2.414,0,0,0,2.952-1.676,2.458,2.458,0,0,0-1.676-2.952c-.115-.047-.627-.258-.44-.18s-.469-.2-.56-.24q-.873-.378-1.741-.767-2.043-.914-4.068-1.865c-2.586-1.213-5.179-2.435-7.683-3.813-6.548-3.6-12.943-7.466-20.346-9.065a34.311,34.311,0,0,0-19.094,1.246c-5.312,1.935-10.486,4.286-15.61,6.666-4.952,2.3-9.932,4.628-14.695,7.307-2.692,1.514-.275,5.662,2.423,4.144Z"/><path class="g" d="M97.757,267.427a37.174,37.174,0,0,1,7.875-3.639,48.8,48.8,0,0,1,4.9-1.547,16.861,16.861,0,0,1,1.876-.385c-.513.068.131,0,.3,0,.2,0,.4.013.6.018.653.019-.218-.061.2.022.254.05.509.093.762.147.663.143,1.318.322,1.969.513,1.456.429,2.89.936,4.311,1.468,3.2,1.2,6.335,2.539,9.454,3.922,2.971,1.317,5.917,2.688,8.875,4.034a2.473,2.473,0,0,0,3.284-.861,2.42,2.42,0,0,0-.861-3.284c-6.163-2.8-12.3-5.688-18.623-8.116a39.725,39.725,0,0,0-8.248-2.5c-3.024-.448-6.034.543-8.87,1.518a44.791,44.791,0,0,0-10.23,4.553c-2.56,1.7-.159,5.863,2.422,4.145Z"/><path class="d" d="M54.522,198.307a28.82,28.82,0,0,1,7.016-7.156c1.015-.774,2.023-1.554,3.105-2.236a20.294,20.294,0,0,1,2.077-1.15,7,7,0,0,1,.861-.369c.478-.18.962-.335,1.451-.478a2.4,2.4,0,1,0-1.276-4.628,26.827,26.827,0,0,0-8.772,4.816c-3.257,2.476-6.457,5.245-8.606,8.778a2.4,2.4,0,1,0,4.144,2.423Z"/><path class="d" d="M32.759,190.1c.389-.009.771.015,1.159.03.56.021-.41-.094.085.007.172.035.346.065.518.105a8.9,8.9,0,0,1,.982.29c.206.074.484.3.046,0a4.263,4.263,0,0,0,.448.21c.591.292,1.129.655,1.687,1,.361.225-.458-.4-.12-.1.094.082.189.161.281.245.2.182.39.375.574.573.2.214.391.436.577.661.04.048.3.347.287.356.013-.014-.353-.47,0,.009.37.5.722,1.014,1.056,1.538.293.461.574.93.838,1.408.117.213.231.428.34.646.1.2.438,1,.067.1a2.644,2.644,0,0,0,1.1,1.435,2.456,2.456,0,0,0,1.85.242c1.113-.361,2.189-1.71,1.676-2.953a22.946,22.946,0,0,0-4.5-6.939,12.258,12.258,0,0,0-8.958-3.67,2.4,2.4,0,1,0,0,4.8Z"/><path class="e" d="M40,203.365a30.82,30.82,0,0,0-14.579-.532c-3.959.9-8.374,3.263-10.42,6.9-1.515,2.7,2.629,5.119,4.145,2.423s5.008-4.167,7.887-4.771a25.736,25.736,0,0,1,11.691.606c2.99.786,4.266-3.843,1.276-4.629Z"/><path class="d" d="M41.5,211.529c-4.269,3.112-8.258,6.568-10.748,11.31a19.186,19.186,0,0,0-2.424,9.956,2.453,2.453,0,0,0,2.4,2.4,2.422,2.422,0,0,0,2.4-2.4c-.025-.425-.037-.851-.026-1.277.006-.269.021-.537.043-.805.014-.164.04-.327.05-.49-.042.656-.009.065.018-.07a17.361,17.361,0,0,1,1.683-4.892,31.312,31.312,0,0,1,1.95-3.138c.556-.81-.157.136.235-.318.156-.179.306-.36.465-.537.359-.4.734-.782,1.116-1.158a47.109,47.109,0,0,1,5.261-4.437,2.47,2.47,0,0,0,.861-3.283,2.418,2.418,0,0,0-3.284-.861Z"/><path class="e" d="M57.278,205.177c4.9-1.638,10.567-2.717,15.732-1.812A17.433,17.433,0,0,1,79,205.526a10.741,10.741,0,0,1,3.187,2.694,2.417,2.417,0,0,0,3.394,0,2.455,2.455,0,0,0,0-3.394c-2.709-3.324-7.157-5.364-11.3-6.089A38.021,38.021,0,0,0,56,200.549c-2.914.975-1.665,5.612,1.276,4.628Z"/><path class="e" d="M54.562,215.868c-.913-.088.1.067.358.156.2.069.4.147.6.228-.408-.165.042.024.194.095a26.854,26.854,0,0,1,2.547,1.366c.459.276.909.564,1.35.868.225.156.446.317.667.479-.268-.2-.175-.141.032.032.646.54,1.271,1.1,1.884,1.682.722.682,1.428,1.381,2.108,2.1.3.319.6.643.881.977.127.148.253.3.374.449-.409-.514.021.059.1.176,1.186,1.775,2.124,3.71,3.231,5.534a2.4,2.4,0,1,0,4.145-2.423c-1.156-1.9-2.116-3.95-3.4-5.776a30.816,30.816,0,0,0-4.384-4.749,28,28,0,0,0-4.892-3.691,14.8,14.8,0,0,0-5.8-2.308,2.417,2.417,0,0,0-2.4,2.4,2.452,2.452,0,0,0,2.4,2.4Z"/><path class="a" d="M47.822,219.314a10.63,10.63,0,0,1,.729,1.349c.094.2.411,1,.106.22.088.226.183.449.271.676a13.616,13.616,0,0,1,.824,3.018l-.086-.638a20.971,20.971,0,0,1,.114,2.745,2.4,2.4,0,1,0,4.8,0,17.113,17.113,0,0,0-.652-5.375c-.2-.614-.44-1.218-.689-1.813a16.055,16.055,0,0,0-1.272-2.605,2.4,2.4,0,0,0-4.145,2.423Z"/><path class="h" d="M111.49,103.759c3.55-5.858,8.994-10.581,14.392-14.688,4.731-3.6,9.461-6.88,15.246-8.552,2.962-.856,1.7-5.489-1.276-4.628-6.3,1.819-11.448,5.282-16.6,9.192-6.006,4.559-11.959,9.738-15.907,16.254-1.605,2.648,2.544,5.063,4.144,2.422Z"/><path class="h" d="M68.648,82.384a17.017,17.017,0,0,1,12.64,5.279,37.336,37.336,0,0,1,4.1,5.459c.572.9,1.119,1.81,1.633,2.742.228.416.451.835.663,1.26.093.187.185.375.273.565.059.127.341.79.086.174A2.479,2.479,0,0,0,91,99.539a2.415,2.415,0,0,0,1.676-2.952A41.749,41.749,0,0,0,84.5,84.069a21.617,21.617,0,0,0-15.847-6.485c-3.083.073-3.095,4.874,0,4.8Z"/><path class="a" d="M63.9,101.979a20.82,20.82,0,0,1,17.865,6.273,2.4,2.4,0,1,0,3.394-3.394A25.34,25.34,0,0,0,63.9,97.179a2.475,2.475,0,0,0-2.4,2.4,2.414,2.414,0,0,0,2.4,2.4Z"/><path class="c" d="M82.151,112.7c-8.738-2.322-18.149-3.059-27.029-1.078a35.2,35.2,0,0,0-10.309,4.15c-3.483,2.065-6.833,4.688-8.808,8.3-1.485,2.711,2.659,5.136,4.144,2.423,1.652-3.018,4.492-5.068,7.41-6.764a30.807,30.807,0,0,1,9.219-3.559c7.922-1.684,16.327-.9,24.1,1.16,2.988.8,4.263-3.834,1.276-4.628Z"/><path class="a" d="M82.3,121.72a20.543,20.543,0,0,0-6.791,1.937,38.96,38.96,0,0,0-6.063,3.3,29.656,29.656,0,0,0-5.583,4.927q-.907,1.017-1.745,2.092-.4.513-.8,1.032c-.345.456.4-.366.085-.118a2.413,2.413,0,0,0,0,3.394,2.46,2.46,0,0,0,3.394,0,3.375,3.375,0,0,0,.5-.635c.118-.153.566-.709.115-.153.525-.647,1.037-1.3,1.586-1.928a25.383,25.383,0,0,1,4.682-4.34,38.526,38.526,0,0,1,5.465-3.074,22.838,22.838,0,0,1,2.8-1.1c.442-.141.888-.268,1.34-.372q.344-.078.691-.139.269-.043-.091.008c.139-.016.278-.027.417-.035a2.457,2.457,0,0,0,2.4-2.4,2.421,2.421,0,0,0-2.4-2.4Z"/><path class="h" d="M86.832,128.381c-5.992,4.359-12.157,9.216-16.475,15.312-3.8,5.367-6.87,11.529-7.8,18.1a30.614,30.614,0,0,0-.271,6.065c.178,3.071,4.979,3.091,4.8,0a28.526,28.526,0,0,1,.069-4.433c.021-.218.046-.437.072-.655-.053.435.043-.278.062-.4q.142-.882.338-1.753a33.256,33.256,0,0,1,1.108-3.83A41.409,41.409,0,0,1,79.612,140.5a98.858,98.858,0,0,1,9.643-7.973,2.47,2.47,0,0,0,.861-3.284,2.419,2.419,0,0,0-3.284-.861Z"/><path class="a" d="M93.1,133.992A18.962,18.962,0,0,0,90.356,141c-.5,2.193-.8,4.423-1.262,6.623a2.4,2.4,0,0,0,4.628,1.276c.449-2.14.744-4.308,1.222-6.442a30.4,30.4,0,0,1,.984-3.523c.049-.138.1-.275.151-.411.028-.072.2-.543.071-.191s.047-.1.08-.176q.086-.186.177-.369a9.5,9.5,0,0,1,.834-1.377,2.408,2.408,0,0,0-.861-3.283,2.468,2.468,0,0,0-3.284.861Z"/><path class="a" d="M144.749,133.825c3.6,0,3.609-5.6,0-5.6s-3.609,5.6,0,5.6Z"/><path class="a" d="M100.6,81.2c3.6,0,3.609-5.6,0-5.6s-3.609,5.6,0,5.6Z"/><path class="a" d="M98.376,87.771c0,3.143,0,6.292.132,9.433a2.4,2.4,0,0,0,4.8,0c-.131-3.141-.131-6.29-.132-9.433a2.4,2.4,0,0,0-4.8,0Z"/><path class="a" d="M117.724,122.369c-.339.046.13-.006.25-.015.178-.014.356-.028.535-.038.422-.024.845-.034,1.268-.033.913,0,1.827.056,2.735.15a27.566,27.566,0,0,1,5.362,1.127,17.718,17.718,0,0,1,3.963,1.779c.738.442,1.462.907,2.175,1.389q.53.357,1.048.73c.143.1.286.207.427.313.651.488-.305-.252.26.206a2.473,2.473,0,0,0,3.394,0,2.419,2.419,0,0,0,0-3.4,30.513,30.513,0,0,0-9.991-5.651,29.69,29.69,0,0,0-12.7-1.191,2.415,2.415,0,0,0-1.676,2.953,2.465,2.465,0,0,0,2.952,1.676Z"/><path class="c" d="M115.826,111.841a75.078,75.078,0,0,1,25.448-4.095,37.2,37.2,0,0,1,19.8,5.728,23.254,23.254,0,0,1,5.513,4.882,2.415,2.415,0,0,0,3.394,0,2.458,2.458,0,0,0,0-3.394c-3.664-4.541-9.15-7.65-14.567-9.587-7.8-2.789-16.32-2.872-24.456-1.859a83.215,83.215,0,0,0-16.408,3.7c-2.911.984-1.662,5.621,1.276,4.628Z"/><path class="c" d="M111.138,132.594c-.67-.06.453.117.71.192a17.008,17.008,0,0,1,1.657.593,38.606,38.606,0,0,1,3.63,1.769,43.747,43.747,0,0,1,7.048,4.586c2.2,1.834,4.273,3.824,6.277,5.864a33.933,33.933,0,0,1,4.94,5.954c1.973,3.189,3.679,6.534,5.628,9.738,1.6,2.635,5.756.226,4.145-2.423-1.827-3-3.45-6.125-5.263-9.137a39.157,39.157,0,0,0-5.544-7,61.3,61.3,0,0,0-14.31-11.453c-2.717-1.5-5.77-3.2-8.918-3.482a2.418,2.418,0,0,0-2.4,2.4,2.451,2.451,0,0,0,2.4,2.4Z"/><path class="a" d="M104.778,139.939a18.323,18.323,0,0,1,1.052,1.863q.243.49.47.989c.085.185.167.37.248.556.016.037.2.455.115.262-.1-.23.126.309.145.356.069.169.137.339.2.508q.163.415.321.834c.194.513.383,1.029.553,1.551a19.674,19.674,0,0,1,.953,4.769c.09,1.274.067,2.548.064,3.824a2.4,2.4,0,0,0,4.8,0,31.231,31.231,0,0,0-1.188-9.869,34.253,34.253,0,0,0-3.592-8.065,2.453,2.453,0,0,0-3.284-.861,2.424,2.424,0,0,0-.861,3.283Z"/></svg>