<?xml version="1.0" encoding="utf-8"?>
<!-- Uploaded to: SVG Repo, www.svgrepo.com, Generator: SVG Repo Mixer Tools -->
<svg width="800px" height="800px" viewBox="-27.64 0 428.666 428.666" xmlns="http://www.w3.org/2000/svg"><defs><style>.a{fill:#ffffff;}.b{fill:#b5886a;}.c{fill:#211715;}.d{fill:#ffda71;}.e{fill:#f4b3b3;}.f{fill:#d9d9d9;}.g{fill:#7a7473;}</style></defs><path class="a" d="M362.162,389.15c-10.715-45.563-22.843-87.309-33.574-107.459-2.639-14.271-3.46-10.861-2.85-15.727,1.522-12.116,3.546-36.8,2.341-46.027-17.52-5.628-70.523-4.563-81.309.291-1.153,9.441.524,33.743,2.03,45.736.639,5.087-.6,2.013-3.509,16.7-8.68,15.892-20.31,59.067-30.841,107.287a45.7,45.7,0,0,0,4.881,11.5c4.273,7.017,8.986,14.367,14.815,16.666,10.375,4.093,17.448-7.555,37.333-7.555,14.223,0,16.223,13.555,37.556,13.555,13.09,0,14.081-10.444,27.778-14.222C349.7,406.343,362.162,389.15,362.162,389.15Z"/><path class="a" d="M318.122,179.771c-.639-.218-8.344-3.812-8.564-3.892-3.321-1.2-5.99-4.654-6.409-7.043a47.215,47.215,0,0,1-.739-7.672c8.294-4.211,14.849-15.228,16.032-18.439.186-.564.564-1.626.9-2.887.449-.073.7-.112.7-.112a8.839,8.839,0,0,0,4.111-1.853,13.328,13.328,0,0,0,3.447-4.525,20.98,20.98,0,0,0,2.139-11.12,7.008,7.008,0,0,0-.733-2.816,4.949,4.949,0,0,0-3.56-2.366,5.24,5.24,0,0,0-4.195,1.227s.23-32.157-35.649-32.157-34.721,32.157-34.721,32.157a5.243,5.243,0,0,0-4.2-1.227,4.951,4.951,0,0,0-3.56,2.366,7.008,7.008,0,0,0-.733,2.816,20.98,20.98,0,0,0,2.139,11.12,13.344,13.344,0,0,0,3.448,4.525,8.835,8.835,0,0,0,4.111,1.853l1.34.206a35.68,35.68,0,0,0,6.8,13.27,29.35,29.35,0,0,0,12.1,9.049,47.218,47.218,0,0,1-.7,6.583c-.42,2.39-3.09,5.85-6.41,7.05-.22.08-7.93,3.67-8.57,3.89,0,0,5.938,16.643,30.827,16.643S318.122,179.771,318.122,179.771Z"/><path class="b" d="M270.371,161.589c.008-.021.011-.043.018-.064s0-.064,0-.1a30.753,30.753,0,0,1-10.158-8.227,35.68,35.68,0,0,1-6.8-13.27l-1.34-.206a8.839,8.839,0,0,1-4.111-1.853,10.892,10.892,0,0,1-.8-.745c-.057.078-.115.159-.161.219a17.631,17.631,0,0,0-1.98,6.287,28.743,28.743,0,0,0-.2,3.975c.049,3.155.844,6.385,1,9.54s-1.162,6.764-4.158,7.779c-1.364,2.2,10.046,6.785,19.87,3.294A17.956,17.956,0,0,0,270.371,161.589Z"/><path class="c" d="M245.3,136.337a21.306,21.306,0,0,0-2.376,8.537c-.263,3.517.382,6.9.768,10.374.254,2.291.377,4.894-1.208,6.78-.717.853-2,.992-2.552,1.954a2.767,2.767,0,0,0-.247,2.082c.68,2.49,4.083,3.656,6.245,4.305a27.657,27.657,0,0,0,11.64.848,21.084,21.084,0,0,0,13.242-6.954c1.671-1.942-1.146-4.783-2.829-2.828-4.068,4.727-10.089,6.44-16.165,5.979a22.228,22.228,0,0,1-3.639-.581q-.753-.183-1.492-.416-.393-.123-.779-.264c-.067-.025-.783-.309-.413-.151a10.96,10.96,0,0,1-1.209-.6c-.168-.1-.328-.208-.5-.308-.483-.29.139.114-.1-.075a3.754,3.754,0,0,1-.311-.307c.4.4.163.2.05.029a1.2,1.2,0,0,1-.006,1.2l-1.2.919c5.038-1.892,5.99-7.317,5.41-12.086-.675-5.556-1.637-11.233,1.118-16.415,1.209-2.272-2.243-4.295-3.453-2.019Z"/><path class="b" d="M326.152,92.117c-4.134-17.243-21.8-30.749-40.3-29.741-18.886-1.029-36.9,13.059-40.542,30.807a50.092,50.092,0,0,0,.028,16.8l1.516,7.078a5.416,5.416,0,0,1,3.565.842c6.808-5.4,20.562-13.874,27.153-19.353-.54,3.235-2.456,8.738-.042,8.173,10.082-2.257,19.745-6.81,25.568-13.928,1.233,4.2,3.272,9.872,4.768,12.351,2.175,3.6,8.5,11.938,14.028,12.665a5.4,5.4,0,0,1,3.562-.735,4.262,4.262,0,0,1,.645.142c2.966-6.793,1.473-18.3.292-24.033Q326.28,92.647,326.152,92.117Z"/><path class="c" d="M247.263,109.449a42.146,42.146,0,0,1-.348-13.739A32.059,32.059,0,0,1,251.5,82.929,39.394,39.394,0,0,1,273.61,65.867c4.7-1.414,9.362-1.549,14.231-1.543a36.432,36.432,0,0,1,13.938,2.854A39.253,39.253,0,0,1,322.009,86.3a43.193,43.193,0,0,1,3.5,14.235c.532,5.277.775,11.07-1.3,16.065a2.013,2.013,0,0,0,1.4,2.46,2.053,2.053,0,0,0,2.461-1.4c2.019-4.855,1.986-10.534,1.575-15.69a53.885,53.885,0,0,0-2.7-14.169,42.786,42.786,0,0,0-35.322-27.283,71.618,71.618,0,0,0-7.944-.2,39.861,39.861,0,0,0-8.015.888A43.563,43.563,0,0,0,250,78a36.916,36.916,0,0,0-6.785,15.545,45.42,45.42,0,0,0,.195,16.965c.567,2.51,4.424,1.447,3.857-1.064Z"/><path class="c" d="M301.324,93.857c1.637,5.4,3.489,10.782,6.882,15.344,3.128,4.2,7.324,9.26,12.7,10.46,2.508.56,3.579-3.3,1.063-3.857a12.788,12.788,0,0,1-5.675-3.431,38.578,38.578,0,0,1-4.982-5.667c-3.018-4.165-4.648-9.027-6.13-13.913-.745-2.457-4.607-1.409-3.857,1.064Z"/><path class="c" d="M301.79,91.278c-4.189,5.082-9.966,8.588-16.072,10.912q-2.414.918-4.9,1.627-1.3.372-2.611.692a5.423,5.423,0,0,0-1.214.283c.589-.572,1.109.566,1.386.853-.174-.181-.028.091-.042-.214a5.559,5.559,0,0,1,.037-.836,16.068,16.068,0,0,1,.291-1.627c.272-1.3.6-2.582.83-3.888a2.018,2.018,0,0,0-3.342-1.946c-8.536,7.058-18.344,12.433-27.05,19.272a2.01,2.01,0,0,0,0,2.828,2.049,2.049,0,0,0,2.828,0c8.708-6.84,18.507-12.208,27.05-19.272l-3.343-1.946c-.281,1.61-.72,3.188-1.01,4.8a8.029,8.029,0,0,0-.048,4.04c.614,1.748,2.243,2.068,3.882,1.7a59.7,59.7,0,0,0,5.99-1.679c7.579-2.531,15.015-6.523,20.165-12.771,1.626-1.972-1.189-4.817-2.828-2.829Z"/><path class="c" d="M322.671,119.687a3.157,3.157,0,0,1,4.529.595,6.238,6.238,0,0,1,.614,3.168,18.153,18.153,0,0,1-.262,3.732c-.811,4.441-3.109,9.732-8.036,10.615a2.018,2.018,0,0,0-1.4,2.46,2.045,2.045,0,0,0,2.461,1.4c7.2-1.291,10.627-9.439,11.169-15.963.273-3.287.059-7.122-2.792-9.265a7.282,7.282,0,0,0-9.114.433,2.014,2.014,0,0,0,0,2.828,2.043,2.043,0,0,0,2.828,0Z"/><path class="c" d="M317.994,135.822a20.189,20.189,0,0,1-1.183,5.483c-.137.415-.274.829-.434,1.235.215-.544-.054.106-.1.207-.1.213-.2.425-.311.636a45.275,45.275,0,0,1-3.869,6.2c-3.421,4.685-8.061,9.645-13.917,11.014-2.506.586-1.445,4.444,1.063,3.857,6.817-1.594,12.118-7.181,16.129-12.609,3.476-4.7,6.388-10.044,6.625-16.028.1-2.574-3.9-2.57-4,0Z"/><path class="c" d="M252.3,116.859a7.283,7.283,0,0,0-9.114-.433c-2.853,2.139-3.065,5.981-2.792,9.265.541,6.524,3.97,14.672,11.169,15.963a2.055,2.055,0,0,0,2.46-1.4,2.017,2.017,0,0,0-1.4-2.46c-4.926-.883-7.225-6.174-8.036-10.615a18.051,18.051,0,0,1-.265-3.528,7.107,7.107,0,0,1,.532-3.232,3.141,3.141,0,0,1,4.615-.735,2.054,2.054,0,0,0,2.828,0,2.016,2.016,0,0,0,0-2.828Z"/><path class="c" d="M250.378,135.431a40.419,40.419,0,0,0,8.719,19.514c4.812,5.642,11.164,9.76,18.632,10.556a2.012,2.012,0,0,0,2-2,2.046,2.046,0,0,0-2-2c-6.522-.695-12-4.8-16.08-9.713-4.122-4.954-6.32-11.142-7.414-17.421a2.016,2.016,0,0,0-2.46-1.4,2.046,2.046,0,0,0-1.4,2.461Z"/><path class="c" d="M285.514,130.693a31.525,31.525,0,0,1,.748,3.422l-.071-.532a2.072,2.072,0,0,1,.013.472l.071-.531a1.112,1.112,0,0,1-.052.212l.2-.478a.865.865,0,0,1-.075.137l.313-.405a.727.727,0,0,1-.112.11l.4-.312a2.244,2.244,0,0,1-.27.143l.477-.2a1.966,1.966,0,0,1-.457.134l.532-.072a1.811,1.811,0,0,1-.429,0l.532.072c-.162-.023-.32-.062-.482-.084a1.515,1.515,0,0,0-.8-.035,1.486,1.486,0,0,0-.743.237,2,2,0,0,0-.718,2.736,1.912,1.912,0,0,0,1.2.919c.389.053.768.151,1.164.169a3.763,3.763,0,0,0,1.744-.419,2.567,2.567,0,0,0,1.409-1.688,4.131,4.131,0,0,0-.016-1.791c-.186-1.1-.441-2.195-.725-3.277a2.06,2.06,0,0,0-.919-1.195,2,2,0,0,0-2.938,2.259Z"/><path class="c" d="M268.168,126.641c1.417-.122,2.827-.378,4.237-.569l-.638.086a22.3,22.3,0,0,1,2.823-.287,2.4,2.4,0,1,0,0-4.8,20.555,20.555,0,0,0-2.583.255c-1.192.158-2.383.332-3.575.493l.638-.086c-.3.041-.6.082-.9.108a2.579,2.579,0,0,0-1.7.7,2.4,2.4,0,0,0,0,3.395,2.351,2.351,0,0,0,1.7.7Z"/><path class="c" d="M270.807,125.319q.178,1,.326,2.013c.03.2.059.409.088.613.044.319-.039-.3,0,.03.012.1.025.194.037.292q.109.877.194,1.758c.107,1.124.182,2.252.191,3.381,0,.519,0,1.038-.038,1.556-.009.14-.018.279-.034.418-.039.349.053-.25-.017.081-.061.287-.138.563-.219.844-.007.025-.125.3-.033.1s-.065.108-.092.156-.219.358-.073.147c.129-.186-.016.023-.047.052-.077.074-.149.15-.228.222.288-.26.108-.1.021-.04s-.312.095.044-.006c-.054.016-.5.117-.223.074s-.136,0-.192,0c-.106,0-.212,0-.319-.007-.411-.009-.152-.019-.054,0-.117-.023-.238-.065-.356-.083-.078-.013-.373-.138-.006.024-.1-.044-.19-.109-.289-.15-.03-.013-.27-.163-.059-.02.228.154-.106-.1-.15-.141-.072-.072-.139-.148-.2-.225.063.075.188.327.049.034-.044-.091-.261-.531-.174-.309s-.1-.352-.117-.431-.031-.157-.051-.234c-.123-.482,0,.392-.016-.11a27.43,27.43,0,0,1,.107-2.88q.065-.923.15-1.844c.032-.329.066-.659.1-.988.017-.145.034-.29.052-.435a1.847,1.847,0,0,1,.029-.217,16.1,16.1,0,0,1,.752-3.274,2.017,2.017,0,0,0-1.4-2.46,2.043,2.043,0,0,0-2.46,1.4,28.042,28.042,0,0,0-1.222,7.715c-.176,2.467-.32,5.012,1.465,6.979a5.432,5.432,0,0,0,7.518.3c1.961-2,1.871-5.162,1.73-7.763a63.265,63.265,0,0,0-.933-7.625,2.017,2.017,0,0,0-2.46-1.4,2.044,2.044,0,0,0-1.4,2.46Z"/><path class="c" d="M298.3,125.9a30.53,30.53,0,0,1,3.136.264c1.065.114,2.13.253,3.2.327a2.4,2.4,0,0,0,1.7-4.1,2.64,2.64,0,0,0-1.7-.7c-1.069-.074-2.134-.213-3.2-.327a30.507,30.507,0,0,0-3.136-.264,2.4,2.4,0,0,0,0,4.8Z"/><path class="c" d="M302.649,125.735c.73,2.581,1.384,5.185,1.91,7.816a50.56,50.56,0,0,1,.845,5.582,13.672,13.672,0,0,1-.216,5.231,2.9,2.9,0,0,1-.389.847c-.056.076-.468.4-.252.307a1.875,1.875,0,0,1-1.611-.21,2.641,2.641,0,0,1-.684-1.143,8.552,8.552,0,0,1-.267-1c-.046-.212-.077-.428-.122-.641-.1-.489,0,.075-.016-.069a79.3,79.3,0,0,1-.39-8.54c-.013-1.733,0-3.467.075-5.2.029-.689.067-1.379.131-2.066.013-.142.03-.284.043-.426.043-.464-.015.051.007-.062.041-.208.073-.413.127-.618.657-2.491-3.2-3.554-3.858-1.063-.761,2.886-.542,6.206-.527,9.159a64.814,64.814,0,0,0,.53,9.819,7.536,7.536,0,0,0,2.74,5.161,5.5,5.5,0,0,0,6.379-.077c3.5-2.85,2.468-8.893,1.891-12.771a89.18,89.18,0,0,0-2.489-11.1c-.7-2.473-4.56-1.422-3.857,1.063Z"/><path class="c" d="M295.712,142.834a5.972,5.972,0,0,0-5.674-1.512c-.987.286-1.869.842-2.822,1.209a3.28,3.28,0,0,1-2.193.023c-1.825-.441-3.631-.822-5.448-.116a5.417,5.417,0,0,0-3.472,3.978,6.373,6.373,0,0,0,1.247,5.191,4.162,4.162,0,0,0,.355.385c.134.126.713.592.364.312a5.129,5.129,0,0,0,.955.641,6.631,6.631,0,0,0,2.86.617c1.876.012,3.463-1.026,5.341-.864,2,.173,3.827.954,5.858.321a6.807,6.807,0,0,0,4.229-4.032,6.24,6.24,0,0,0-1.6-6.153c-1.8-1.845-4.629.985-2.828,2.828a2.576,2.576,0,0,1,.619,1.146,1.711,1.711,0,0,1,.073.6,1.16,1.16,0,0,1-.1.459c.077-.168-.335.488-.12.206a4.55,4.55,0,0,1-.582.6,2.056,2.056,0,0,1-1.125.586c-1.287.223-2.792-.392-4.113-.528a9.458,9.458,0,0,0-2.377.063,14.707,14.707,0,0,0-2.215.633,3.381,3.381,0,0,1-1.412.123c-.376-.027.2.047-.154-.016-.109-.019-.215-.047-.323-.072-.338-.08-.216-.058-.1-.007-.049-.022-.468-.283-.248-.137.111.075-.329-.285-.393-.374.17.239-.234-.482-.123-.22a3.342,3.342,0,0,1-.2-.735c-.006-.037-.011-.335,0-.636,0-.019.052-.336.012-.133-.044.223.048-.154.065-.2.077-.224-.03.034-.045.065a2.345,2.345,0,0,1,.244-.425,1.656,1.656,0,0,1,.8-.511,3.184,3.184,0,0,1,1.192-.121c.478.047,1.361.313,1.985.455a7.684,7.684,0,0,0,2.941.194,9.691,9.691,0,0,0,2.571-.913c1.206-.561,2.06-1.068,3.135-.1a2.044,2.044,0,0,0,2.828,0A2.02,2.02,0,0,0,295.712,142.834Z"/><path class="a" d="M236.417,190.632c6.122-4.57,14.757-8.442,20.238-10.861h61.467c8.3,3.665,23.947,10.622,26.923,18.372,2.007,5.225,4.076,13.293,5.931,21.757H327.963c-17.657-5.592-70.551-4.513-81.229.345H223.725c1.933-8.865,4.065-17.239,6.007-22.1C230.779,195.523,233.265,192.985,236.417,190.632Z"/><path class="c" d="M257.183,181.7c2.579-.931,5.057-2.262,7.545-3.407.435-.2.872-.394,1.305-.6.473-.223-.744.3.073-.024a11.383,11.383,0,0,0,1.94-.972,13.309,13.309,0,0,0,4.748-5.208,12.172,12.172,0,0,0,1.026-3.771,51.869,51.869,0,0,0,.512-5.479c.092-2.575-3.909-2.571-4,0-.05,1.379-.153,2.756-.331,4.125a13.58,13.58,0,0,1-.591,2.964,9.411,9.411,0,0,1-3.491,3.983,26.388,26.388,0,0,1-3.018,1.437q-1.949.9-3.9,1.793-1.067.488-2.136.97c-.245.11-.491.218-.736.327-.491.218.432-.158-.011,0a2.052,2.052,0,0,0-1.4,2.46,2.016,2.016,0,0,0,2.46,1.4Z"/><path class="c" d="M326.051,219.809c.009.059.091.629.03.172.026.19.047.38.068.571.045.414.081.829.113,1.244.072.955.114,1.911.142,2.868.067,2.318.045,4.638-.012,6.955-.131,5.371-.457,10.737-.865,16.094-.386,5.055-.848,10.106-1.419,15.144-.264,2.336-.879,4.812-.323,7.15.266,1.119.652,2.212.948,3.324.78,2.931,1.372,5.911,1.926,8.892.47,2.528,4.326,1.457,3.857-1.063-.742-3.988-1.669-7.883-2.758-11.784-.083-.3-.131-.6-.214-.9,0-.009.006.524.011-.009,0-.171-.009-.342,0-.513.03-1.34.278-2.686.434-4.014,1.217-10.4,2.077-20.89,2.382-31.362a75.023,75.023,0,0,0-.458-13.832,2.015,2.015,0,0,0-2.46-1.4,2.049,2.049,0,0,0-1.4,2.46Z"/><path class="c" d="M244.975,218.746a72.91,72.91,0,0,0-.575,12.244c.067,5.462.338,10.922.7,16.372.337,5.08.756,10.156,1.306,15.217.178,1.639.464,3.284.544,4.932a11.751,11.751,0,0,1-.025,1.187c.035-.72.041-.222-.014-.023s-.1.4-.161.6c-.377,1.253-.854,2.475-1.227,3.731-.889,3-1.55,6.059-2.16,9.123-.5,2.514,3.353,3.59,3.857,1.063a97.263,97.263,0,0,1,3.2-12.276,13.36,13.36,0,0,0,.232-6.2c-1.224-10.335-1.95-20.769-2.2-31.172-.066-2.7-.092-5.4-.018-8.1.03-1.071.074-2.143.151-3.212.07-.987.161-1.861.251-2.431a2.063,2.063,0,0,0-1.4-2.46,2.015,2.015,0,0,0-2.46,1.4Z"/><path class="c" d="M247.743,221.972c.472-.212-.241.084.054-.024.136-.05.271-.1.407-.154.343-.124.69-.236,1.04-.342.795-.24,1.6-.44,2.414-.62,1.913-.425,4.242-.8,5.929-1.025,5.525-.738,11.1-1.116,16.668-1.366a271.776,271.776,0,0,1,37.6.691,75.265,75.265,0,0,1,15.58,2.7c2.461.772,3.515-3.088,1.063-3.857a74.638,74.638,0,0,0-14.2-2.592c-6.155-.675-12.349-1-18.537-1.152a253.944,253.944,0,0,0-37,1.43c-4.357.534-8.982,1.046-13.029,2.86a2.013,2.013,0,0,0-.717,2.736,2.049,2.049,0,0,0,2.736.718Z"/><path class="c" d="M364.091,388.618c-4-17.015-8.285-33.971-13.091-50.778-3.92-13.708-8.13-27.379-13.319-40.667a156.47,156.47,0,0,0-7.366-16.491c-1.208-2.275-4.662-.256-3.454,2.019,5.408,10.189,9.278,21.2,12.9,32.126,4.989,15.04,9.267,30.314,13.256,45.645q3.789,14.559,7.216,29.21c.59,2.5,4.448,1.444,3.858-1.064Z"/><path class="c" d="M243.564,281.655c-5.081,9.347-8.276,19.834-11.388,29.958-4.741,15.423-8.76,31.069-12.54,46.752q-3.732,15.487-7.115,31.055c-.548,2.509,3.307,3.581,3.857,1.063,3.856-17.643,7.961-35.239,12.559-52.7,3.553-13.493,7.308-26.991,12.076-40.113a100.736,100.736,0,0,1,6-13.991c1.23-2.262-2.222-4.283-3.454-2.019Z"/><path class="a" d="M247.592,219.278c-1.249,6.661-3.324,24.17-3.287,27.144.054,4.371-1.209,3.108,2.675,6.053,4.4,3.34,9.6,7.2,13.112,9.087l13.216,7.888-8.4,21.707c-10.795-5.757-16.552-9.383-25.458-14.78-3.606-2.186-14.375-9.006-17.409-11.921-4.624-4.443-5.13-5.4-4.278-11.7,1.3-9.58,7.2-42.673,11.972-54.61"/><path class="c" d="M255.646,178.044a146.762,146.762,0,0,0-14.658,7.22c-4.5,2.622-9.426,5.788-12.207,10.338a25.448,25.448,0,0,0-2.2,5.446c-.68,2.1-1.28,4.221-1.846,6.352-1.359,5.117-2.521,10.286-3.61,15.466-1.941,9.23-3.71,18.519-5.079,27.852a31.67,31.67,0,0,0-.6,6.6,9.8,9.8,0,0,0,2.671,6c3.223,3.682,7.363,6.411,11.407,9.1,9.487,6.31,19.325,12.208,29.3,17.713q2.529,1.4,5.078,2.754c2.27,1.212,4.293-2.24,2.019-3.454-10.3-5.5-20.375-11.463-30.209-17.752a97.838,97.838,0,0,1-11.719-8.152c-1.509-1.315-3.354-2.888-4.2-4.735-.628-1.373-.327-3.772-.079-5.65,1.123-8.481,2.774-16.92,4.466-25.3,1.883-9.326,3.733-18.882,6.987-27.849,1.7-4.676,6.133-7.788,10.33-10.367a134.247,134.247,0,0,1,16.174-8.125,2.014,2.014,0,0,0,.717-2.736,2.05,2.05,0,0,0-2.736-.718Z"/><path class="a" d="M327.874,219.278c1.249,6.661,3.794,24.143,3.757,27.117-.054,4.372.05,3.135-3.833,6.08-1.683,1.276-3.79,2.943-6.051,4.757l-21.438,14.737-.142,26.834c3.014-.09,6.582-.243,9.9-2.317,1.566-.979,2.228-5.646,4.711-8.1,9.643-5.576,15.8-8.762,25.692-14.622a79.715,79.715,0,0,0,12.282-8.952c4.624-4.443,5.13-5.4,4.278-11.7-1.295-9.58-6.845-41.594-11.982-54.97"/><path class="c" d="M245.663,218.746c-1.29,6.942-2.085,14.008-2.824,21.028-.257,2.441-.488,4.872-.536,7.326a10.783,10.783,0,0,0,.009,3.513c.465,1.435,1.924,2.281,3.058,3.136,4.425,3.336,8.834,6.876,13.713,9.54,2.26,1.234,4.281-2.219,2.018-3.454a97.034,97.034,0,0,1-11.559-7.914Q248.269,250.964,247,250c-.243-.186-.422-.31-.654-.515-.084-.074-.167-.157-.254-.228-.208-.169-.066-.189-.111-.1.026-.051.155.35.152.348.132.072-.037.221.021-.09a2.5,2.5,0,0,0,.017-.285c.041-.679.119-1.351.133-2.032a157.156,157.156,0,0,1,1.68-17.011c.444-3.434.905-6.874,1.537-10.28.468-2.516-3.386-3.595-3.857-1.063Z"/><path class="c" d="M300.414,161.411q.047,2.311.318,4.61a20.2,20.2,0,0,0,.714,4.189,12.658,12.658,0,0,0,4.139,5.652,8.811,8.811,0,0,0,3.441,1.946c-.332-.057-.577-.254-.166-.063.22.1.44.2.66.3q2.1.965,4.195,1.932c1.275.585,2.553,1.245,3.876,1.721a2.019,2.019,0,0,0,2.46-1.4,2.04,2.04,0,0,0-1.4-2.46c-.472-.17.5.23-.088-.036-.314-.14-.629-.279-.942-.42q-1.294-.585-2.583-1.18c-1.42-.653-2.833-1.324-4.261-1.961a10.249,10.249,0,0,1-4.838-3.866,5.932,5.932,0,0,1-.673-1.33,12.75,12.75,0,0,1-.419-2.152,43.8,43.8,0,0,1-.436-5.487c-.053-2.571-4.053-2.579-4,0Z"/><path class="c" d="M317.113,181.5a149.31,149.31,0,0,1,14.694,7.205c4.063,2.355,8.9,5.237,11.117,9.568a36,36,0,0,1,1.941,5.584c.688,2.27,1.309,4.56,1.895,6.858,1.354,5.309,2.527,10.664,3.619,16.033,1.8,8.858,3.515,17.784,4.7,26.75.249,1.883.552,4.278-.078,5.655-.961,2.1-3.14,3.843-4.851,5.328-4.836,4.2-10.406,7.442-15.932,10.623-6.635,3.821-13.534,7.275-20.034,11.32-2.793,1.738-3.442,5.236-4.92,7.945.02-.037-.4.594-.195.337-.177.17-.182.188-.014.056q-.391.245-.8.461a11.988,11.988,0,0,1-2.77,1.022,25.241,25.241,0,0,1-5.317.56c-2.568.079-2.579,4.08,0,4,3.567-.11,7.129-.48,10.307-2.239,2.451-1.357,2.988-4.054,4.151-6.4a9.427,9.427,0,0,1,1.073-1.817,7.308,7.308,0,0,1,2.131-1.409q2.452-1.406,4.919-2.789c2.974-1.671,5.957-3.325,8.929-5a160.336,160.336,0,0,0,17.585-10.888,51.37,51.37,0,0,0,7.021-6.154,10.273,10.273,0,0,0,3.033-6.07,28.332,28.332,0,0,0-.554-6.836c-.264-1.824-.551-3.644-.847-5.462q-1.247-7.639-2.723-15.239c-2.034-10.52-4.1-21.252-7.663-31.381a17.664,17.664,0,0,0-3.334-5.978,32.5,32.5,0,0,0-6.23-5.3,99.233,99.233,0,0,0-15.45-8.3q-1.687-.763-3.383-1.508a2.064,2.064,0,0,0-2.737.718,2.015,2.015,0,0,0,.718,2.736Z"/><path class="c" d="M325.946,219.809c1.077,5.776,1.916,11.6,2.7,17.424.328,2.422.65,4.849.869,7.283a22.79,22.79,0,0,1,.106,2.394c-.008.588,0,1.186-.061,1.771-.006.054.083-.161-.053.186-.066.166.059-.212.1-.163s-.384.327-.259.237c-.235.169-.478.328-.717.492q-1.161.791-2.274,1.643c-2.031,1.553-4.031,3.144-6.025,4.742a2.011,2.011,0,0,0,0,2.828,2.047,2.047,0,0,0,2.828,0c1.776-1.423,3.551-2.849,5.362-4.227,1.183-.9,2.547-1.648,3.654-2.644,1.683-1.513,1.547-4.07,1.429-6.151-.329-5.795-1.365-11.607-2.234-17.339-.483-3.185-.979-6.371-1.569-9.539-.472-2.527-4.327-1.457-3.857,1.063Z"/><path class="c" d="M271.941,184.218a18.04,18.04,0,0,0,10.649,1.011,2.012,2.012,0,0,0,1.4-2.46,2.05,2.05,0,0,0-2.46-1.4c-.2.039-.393.076-.591.108-.1.016-.2.032-.3.046.255-.034.306-.041.154-.023-.385.035-.767.077-1.153.094a17.068,17.068,0,0,1-2.181-.037c-.181-.014-.362-.032-.542-.053-.541-.061.257.053-.157-.021-.351-.063-.7-.122-1.049-.2s-.676-.168-1.009-.271c-.185-.058-.37-.12-.553-.186-.1-.038-.712-.288-.186-.063a2.193,2.193,0,0,0-1.541-.2,2,2,0,0,0-.478,3.655Z"/><path class="c" d="M295.579,184.977a8.659,8.659,0,0,0,1.662-.151,14.631,14.631,0,0,0,1.451-.3,12.881,12.881,0,0,0,2.754-.972,2,2,0,0,0,.718-2.736,2.048,2.048,0,0,0-2.737-.718c-.093.048-.189.092-.285.133l.478-.2a14.466,14.466,0,0,1-3.564.952l.532-.072a5.676,5.676,0,0,1-1.009.062,2.015,2.015,0,0,0-2,2,2.043,2.043,0,0,0,2,2Z"/><path class="c" d="M251.771,326.655c-1.882,4.055-2.886,8.548-3.911,12.876-1.587,6.7-2.912,13.462-4.158,20.233-2.766,15.03-5.139,30.151-7,45.321a164.636,164.636,0,0,0-1.5,16.511c-.053,2.575,3.947,2.575,4,0,.1-4.72.671-9.443,1.219-14.127.8-6.873,1.763-13.727,2.794-20.568,2.217-14.717,4.669-29.444,7.96-43.963.671-2.964,1.382-5.922,2.215-8.845.312-1.1.641-2.189,1.009-3.268.156-.456.318-.91.492-1.36.078-.2.158-.4.239-.6-.257.63.027-.047.095-.2a2.059,2.059,0,0,0-.717-2.737,2.018,2.018,0,0,0-2.737.718Z"/><path class="c" d="M273.373,352.925c-1.428,16.964-2.77,33.956-3.589,50.961-.166,3.442-.363,6.906-.263,10.353.075,2.568,4.075,2.579,4,0-.213-7.32.465-14.718.93-22.016.6-9.485,1.3-18.963,2.046-28.437q.424-5.431.876-10.861c.216-2.565-3.785-2.55-4,0Z"/><path class="c" d="M300.138,349.768c.272,1.2.437,2.419.607,3.633.031.215.06.431.089.646.014.1.052.388-.01-.08.014.1.028.207.041.311.064.5.129.99.191,1.485q.212,1.686.406,3.373c.666,5.726,1.25,11.462,1.813,17.2q1.857,18.9,3.362,37.836c.327,4.181.7,8.372.837,12.565.082,2.567,4.082,2.579,4,0-.3-9.463-1.33-18.939-2.156-28.366-1.1-12.607-2.262-25.215-3.69-37.791A109.475,109.475,0,0,0,304,348.7c-.57-2.509-4.428-1.447-3.857,1.064Z"/><path class="c" d="M322.661,332.15c2.139,7.38,3.853,14.9,5.642,22.371,2.543,10.616,5.008,21.257,7.207,31.951.906,4.408,1.809,8.833,2.419,13.294a2.012,2.012,0,0,0,2.46,1.4,2.055,2.055,0,0,0,1.4-2.461c-1.239-9.055-3.368-18.023-5.369-26.932q-3.456-15.384-7.283-30.683c-.837-3.34-1.657-6.692-2.616-10-.716-2.468-4.577-1.418-3.857,1.063Z"/><path class="a" d="M286.944,281.774c1.791,6.37,19.59,13.627,21.545,12.138,1.531-1.166,1.481-6.686-.293-8.9,0,0-3.351-4.767-6.23-5.487"/><path class="a" d="M290.429,283.483c0,2.159-6.184,5.577-6.184,5.577-2.542,2.745-12.2,3.924-15.383,3.523-2.986-.377-3.59-.487-2.918-3.358.541-2.31,3.054-8.8,6.427-11.769l6.567-2.608"/><path class="d" d="M302.541,261.9c3.465,1.388,7.417,7.1,4.6,10.525,1.932,1.525,1.38,4.565.436,6.168-.05.086-.1.171-.153.253,3.91.619,7.319,1.169,7.319,1.169,5.577,1.861,9.535-1.934,7.736-5.892,4.678-.72,4.775-7.574,4.287-10.435-.717-4.2-3.674-6.931-9.875-7.886-2.019,2.278-5.395,3.88-10.379,3.838Z"/><path class="e" d="M310.425,259.3c11.851-2.4,10.731-16.328,2.762-18.024l-6.436-2.219A28.785,28.785,0,0,1,303.4,242.1l-1.852,1.465a12.705,12.705,0,0,1,2.758,5.3c.344,1.744.892,7.676-.438,10.754,1.589.011,2.636.02,2.636.02A18.939,18.939,0,0,0,310.425,259.3Z"/><path class="e" d="M279.142,275.827c-3.674.9-11.932,1.319-14.6-.44-3.345-2.207-3.821-8.391.893-8.883-8.114.03-3.772-12.706,1.645-12.271l3.729-4.829c1.6.846,3.758.906,6.428-.451-.71,4.812,2.8,9.888,7.024,10.261l.346.031c-.834,2.17-1.667,4.341-1.667,4.341-1.015,2.642.985,4.464.915,6.811-.056,1.839-2.3,3.093-3,4.846l-.663.262A8.382,8.382,0,0,1,279.142,275.827Z"/><path class="e" d="M284.964,232.421a10.618,10.618,0,0,0-7.7-2.292c-4.272.569-5.162,4.419-4.5,7.952-8.95-1.859-6.369,17.193,5.161,10.5,1.26-2.2,3.945-3.9,5.935-3.9-.305-3.457,2.236-5.795,5.388-6.2a13.814,13.814,0,0,1,2.128-.1,22.278,22.278,0,0,0-4.093-3.958A19.215,19.215,0,0,0,284.964,232.421Z"/><path class="d" d="M309.521,230.046c-1.456-2.57-6.124-3.235-7.915-3.235a13.026,13.026,0,0,0-11.266,6.927,7.573,7.573,0,0,0-.7,3.328l.023,1.374a13.179,13.179,0,0,1,8.629,2.069,16.776,16.776,0,0,1,3.259,3.06L303.4,242.1c2.686-2.125,7.557-6.477,6.466-11.163A3.336,3.336,0,0,0,309.521,230.046Z"/><path class="e" d="M287.464,280.535c-2.341.412-7.007-1.6-6.8-4.456.159-2.22,3.132-3.564,3.2-5.682.07-2.347-1.93-4.169-.915-6.811,1.871-4.872,6.631-5.418,11.031-3.206,2.189,1.1,2.761,1.059,5.188,1a8.858,8.858,0,0,1,3.378.528c3.465,1.388,7.418,7.1,4.6,10.525,1.932,1.525,1.38,4.565.437,6.168a5.584,5.584,0,0,1-5.317,3.083c-2.021.09-12.481.093-14.794-1.146"/><path class="d" d="M284.264,259.214c-3.456-.305-6.431-3.755-7.015-7.636-.511-3.4,3.762-6.9,6.609-6.9-.305-3.457,2.236-5.795,5.388-6.2a13.319,13.319,0,0,1,9.048,2.034c2.623,1.831,5.405,5.254,6.017,8.362.436,2.212,1.2,11.157-1.951,12.478Z"/><path class="c" d="M293.2,272.691c2.56.2,5.264.87,7.615-.573a2,2,0,1,0-2.019-3.453,4.3,4.3,0,0,1-.512.268l.478-.2a5.027,5.027,0,0,1-1.224.324l.532-.072a24.032,24.032,0,0,1-4.87-.292,2.01,2.01,0,0,0-2,2,2.05,2.05,0,0,0,2,2Z"/><path class="c" d="M284.264,257.214c-2.681-.313-4.789-3.427-5.047-5.936-.226-2.188,2.624-4.53,4.641-4.6a2.024,2.024,0,0,0,2-2c-.219-3.592,3.1-4.479,6.086-4.279a11.929,11.929,0,0,1,9.288,6.168,9,9,0,0,1,1.074,2.49c.061.249.1.5.147.749.018.109.034.217.049.325-.027-.2-.031-.222-.012-.068a32.556,32.556,0,0,1,.229,3.693,17.139,17.139,0,0,1-.312,3.857,7.736,7.736,0,0,1-.454,1.406c-.18.374-.109.242-.265.4-.195.2.086,0-.337.2-2.327,1.1-.3,4.547,2.018,3.454,2.5-1.18,3.047-4.482,3.262-6.931a29.4,29.4,0,0,0-.333-7.476c-.633-3.689-3.32-7.054-6.208-9.3a15,15,0,0,0-11.376-2.823,7.808,7.808,0,0,0-6.856,8.13l2-2c-4.177.147-8.9,4.19-8.641,8.6a10.725,10.725,0,0,0,9.047,9.936,2.011,2.011,0,0,0,2-2,2.048,2.048,0,0,0-2-2Z"/><path class="c" d="M289.457,252.466a9.14,9.14,0,0,0,6.236.813,2.089,2.089,0,0,0,1.195-.919,2,2,0,0,0-2.258-2.938,4.446,4.446,0,0,1-.654.147l.531-.072a5.762,5.762,0,0,1-1.467-.01l.531.071a9.725,9.725,0,0,1-2.433-.688l.477.2-.139-.06a1.486,1.486,0,0,0-.743-.237,1.515,1.515,0,0,0-.8.035,2,2,0,0,0-1.4,2.461,1.931,1.931,0,0,0,.919,1.2Z"/><path class="c" d="M276.342,247.169c-.249.126-.5.253-.756.362.271-.114-.262.09-.339.116a9.134,9.134,0,0,1-1.363.346c-.235.042.111-.015.13-.017-.1.008-.209.022-.314.026-.2.007-.4.014-.6.006-.084,0-.624-.066-.309-.018.292.045-.239-.057-.347-.085-.174-.045-.341-.108-.512-.162-.211-.066.172.076.172.077-.078-.039-.16-.071-.236-.113-.132-.074-.265-.144-.394-.224-.182-.114-.507-.415-.168-.1-.22-.2-.434-.407-.645-.621-.368-.374.079.168-.091-.1-.093-.145-.2-.283-.287-.43-.172-.278-.309-.57-.454-.863-.119-.239.132.37.051.116-.02-.062-.049-.122-.069-.184-.06-.188-.126-.372-.179-.562-.088-.316-.142-.636-.208-.957.074.359.021.237,0-.048-.013-.193-.026-.385-.029-.578,0-.3.028-.588.038-.883.012-.332-.111.444.018-.079.038-.157.066-.316.109-.472.036-.134.082-.265.123-.4.128-.422.053-.116.019-.061.147-.236.288-.49.429-.73-.288.489-.064.086.08-.06s.537-.369.052-.083c.125-.074.255-.157.374-.239.4-.275-.28.037.094-.053.151-.035.311-.079.458-.127.368-.121-.361-.013.155-.017.181,0,.361,0,.542,0,.569.016-.243-.068.348.048a2.032,2.032,0,0,0,2.461-2.46,8.657,8.657,0,0,1-.112-2.009,2.951,2.951,0,0,1,.132-.9c.07-.29.215-.713.224-.733a3.142,3.142,0,0,1,2.642-1.815,6.8,6.8,0,0,1,3.528.471,13.707,13.707,0,0,1,4.762,3.263c1.837,1.807,4.667-1.02,2.828-2.829-3.243-3.189-7.561-5.606-12.237-4.756a6.9,6.9,0,0,0-5.022,3.742,10.836,10.836,0,0,0-.6,6.629l2.46-2.46a6.381,6.381,0,0,0-5.757,1.344,7.373,7.373,0,0,0-2.119,4.9c-.306,3.778,1.738,7.817,5.383,9.176,2.522.94,5.254.222,7.56-.954a2,2,0,0,0-2.019-3.454Z"/><path class="c" d="M291.642,237.066c-.11-2.36,1.53-4.466,3.3-5.858a10.99,10.99,0,0,1,6.791-2.4,8.263,8.263,0,0,1,2.192.262,9.384,9.384,0,0,1,2.7.938,2.858,2.858,0,0,1,.952.731,1.363,1.363,0,0,1,.393.867,4.981,4.981,0,0,1-.482,2.951c-1.165,2.5-3.374,4.44-5.5,6.129a2.012,2.012,0,0,0,0,2.828,2.05,2.05,0,0,0,2.829,0,21.031,21.031,0,0,0,6.123-6.938c1.411-2.929,1.71-6.8-1-9.1a13.155,13.155,0,0,0-7.617-2.643,14.483,14.483,0,0,0-8.989,2.61c-3.1,2.146-5.886,5.643-5.7,9.616.121,2.563,4.121,2.578,4,0Z"/><path class="c" d="M312.655,243.2a11.664,11.664,0,0,1,1.131.338c.257.085-.341-.169-.1-.042.1.052.2.095.3.147q.265.138.519.3c.168.106.328.221.489.337-.354-.256-.049-.03.1.106a10.271,10.271,0,0,1,.81.859c-.287-.327-.036-.047.08.124q.149.218.283.446c.09.153.176.308.256.466s.3.732.13.253c.13.36.26.717.358,1.089q.069.264.122.531c.023.111.037.225.062.336.082.37-.023-.31-.006-.056.026.392.064.779.061,1.174,0,.185-.009.371-.021.557-.011.169-.129.874-.02.3-.071.373-.137.742-.239,1.107q-.077.276-.17.546c-.031.09-.07.18-.1.271-.127.419.164-.306-.02.056s-.366.744-.588,1.1c-.106.169-.22.331-.332.5-.038.055-.238.311-.071.1s-.146.167-.184.211a10.933,10.933,0,0,1-.948.941c-.08.071-.165.139-.248.207.056-.046.319-.232.015-.012-.228.164-.46.322-.7.469-.222.137-.45.266-.681.387-.106.055-.212.109-.319.16-.057.028-.531.24-.345.162.217-.091-.147.056-.195.073-.15.054-.3.11-.45.161q-.469.158-.95.281a14.877,14.877,0,0,1-4.179.462c-2.574-.007-2.578,3.993,0,4,5.19.015,10.8-1.79,13.372-6.655a11.508,11.508,0,0,0-.518-11.751,9.455,9.455,0,0,0-5.644-3.9c-2.508-.558-3.579,3.3-1.064,3.858Z"/><path class="c" d="M317.806,258a10.09,10.09,0,0,1,5.517,2.76,5.889,5.889,0,0,1,1.1,1.848,9.918,9.918,0,0,1,.362,1.334c-.009-.038.123.778.057.281.022.166.038.332.053.5a13.081,13.081,0,0,1-.331,4.706c-.419,1.491-1.091,2.491-2.618,2.769a2,2,0,0,0-1.4,2.461c.494,1.17.561,2.267-.494,3.1-1.354,1.074-3.261.8-4.782.327-2.462-.769-3.516,3.091-1.063,3.857,2.889.9,6.2.775,8.579-1.279A6.19,6.19,0,0,0,324.4,273.6l-1.4,2.46c5.08-.925,6.273-6.992,5.885-11.332a11.412,11.412,0,0,0-2.565-6.588,13.607,13.607,0,0,0-7.458-3.99c-2.506-.573-3.576,3.283-1.064,3.857Z"/><path class="c" d="M267.083,252.233c-4.1-.237-7.084,4.054-7.865,7.627a8.035,8.035,0,0,0,.621,5.786,6.308,6.308,0,0,0,5.6,2.858v-4c-2.5.322-4.637,1.693-5.266,4.268a7.892,7.892,0,0,0,1.31,6.351c2.774,3.83,8.288,3.669,12.54,3.4a23.25,23.25,0,0,0,6.707-1.092,2.057,2.057,0,0,0,1.4-2.46,2.016,2.016,0,0,0-2.461-1.4,18.318,18.318,0,0,1-5.643.949,26.381,26.381,0,0,1-6.744-.256,8.464,8.464,0,0,1-1.324-.376c.386.151-.609-.391-.516-.315a3.781,3.781,0,0,1-1.308-2.035,2.983,2.983,0,0,1,.041-2.177c-.132.322.2-.31.248-.376-.218.278.149-.131.209-.171-.369.244.522-.27.183-.118a5.944,5.944,0,0,1,.627-.2,2.065,2.065,0,0,0,2-2,2.028,2.028,0,0,0-2-2,3.237,3.237,0,0,1-1.561-.313c-.082-.041-.474-.345-.116-.046-.119-.1-.223-.208-.333-.317-.326-.322.175.322-.056-.072-.076-.131-.151-.261-.222-.4.22.419-.1-.372-.146-.548-.03-.118-.061-.592-.025-.107-.01-.138-.026-.276-.024-.414,0-.17,0-.339,0-.508,0-.059.046-.6.017-.339s.05-.284.062-.345q.053-.265.12-.526c.084-.324.192-.639.3-.956.152-.44-.1.186.079-.2q.114-.25.241-.5c.169-.323.362-.629.557-.936.02-.032.367-.5.108-.169.108-.137.223-.27.34-.4a6.925,6.925,0,0,1,.733-.7c-.331.271.4-.235.529-.31.355-.2-.333.082.087-.044.119-.035.247-.063.362-.107.409-.155-.067-.022.06-.024.177,0,.35-.009.527,0,2.572.148,2.564-3.852,0-4Z"/><path class="c" d="M270.957,276.042a22.83,22.83,0,0,0-5.215,7.888c-.969,2.207-2.451,5.237-1.96,7.721.532,2.694,3.863,2.939,6.092,3a35.486,35.486,0,0,0,7.79-.787c2.722-.538,6-1.318,8-3.39,1.787-1.855-1.038-4.687-2.828-2.829a5.236,5.236,0,0,1-.416.386c.344-.287-.117.063-.24.139-.2.121-.4.232-.605.337-.09.046-.685.321-.376.189a20.182,20.182,0,0,1-3.253,1.019,31.906,31.906,0,0,1-6.707.926,15.824,15.824,0,0,1-2.5-.076c-.362-.044-.716-.107-1.231-.211-.1-.02-.2-.063-.3-.085.058.013.382.214.111.045-.149-.093-.152-.175.128.11l.176.238c-.075-.137-.073-.125.006.039.048.1.025.143.052.146.35.044-.243.129.017-.015.007,0,.015-.288.018-.329-.025.362,0,.026.011-.05.1-.483.206-.96.346-1.433a28.185,28.185,0,0,1,1.038-2.874,20.593,20.593,0,0,1,4.676-7.277c1.917-1.726-.919-4.548-2.828-2.828Z"/><path class="c" d="M306.469,286.022a5.92,5.92,0,0,1,1.079,3.169,10.111,10.111,0,0,1-.009,1.945,4.385,4.385,0,0,1-.09.514c-.033.139-.07.277-.11.414-.177.6.018-.162-.047.152-.026.121-.046.305-.066.155-.014-.1-.123.075.082-.06.048-.031.443-.221.366-.2-.391.124.4.059.126-.011a2.455,2.455,0,0,0-.462,0c-.14,0-.279-.024-.417-.038.6.06.009,0-.146-.036-.423-.087-.843-.182-1.261-.294A39.387,39.387,0,0,1,292.8,285.6a17.771,17.771,0,0,1-2.676-2.358,4.045,4.045,0,0,1-.752-.965c-.134-.211-.248-.43-.367-.649-.175-.322-.016-.025.011.046-.053-.141-.1-.284-.144-.429-.737-2.459-4.6-1.412-3.857,1.064.735,2.451,2.662,4.349,4.627,5.884a41.039,41.039,0,0,0,7.774,4.7,39.857,39.857,0,0,0,7.531,2.828c2.012.486,4.333.825,5.626-1.186a8.7,8.7,0,0,0,.993-5.073A10.076,10.076,0,0,0,309.923,284a2.065,2.065,0,0,0-2.737-.717,2.014,2.014,0,0,0-.717,2.736Z"/><path class="c" d="M286.932,278.606a6.957,6.957,0,0,1-1.5-.249,5.9,5.9,0,0,1-1.936-.947c-.943-.728-1.023-1.255-.307-2.185,1.051-1.369,2.359-2.484,2.614-4.29.278-1.972-.807-3.492-1.1-5.351a4.205,4.205,0,0,1,2.054-3.811,5.266,5.266,0,0,1,3.938-.469c1.8.411,3.322,1.549,5.124,1.913,1.91.386,3.956-.191,5.807.477,2.636.95,5.842,5.044,3.792,7.727a1.993,1.993,0,0,0,.313,2.423c1.547,1.353.359,4.14-1.053,5.18-1.267.934-3.28.693-4.777.692-2.23,0-4.464-.057-6.689-.208-.913-.063-2.045-.157-2.813-.273-.426-.064-.854-.14-1.273-.243-.175-.043-.346-.094-.519-.143-.5-.143.168.106-.126-.041-2.3-1.149-4.324,2.3-2.019,3.454,2.191,1.1,4.937,1.14,7.334,1.283,2.5.149,5.018.2,7.525.161,2.977-.048,5.543-.705,7.392-3.2,2-2.706,2.626-7.056-.154-9.487l.313,2.424c2.961-3.876.135-9.3-3.171-11.926a10.814,10.814,0,0,0-7.362-2.117,6.088,6.088,0,0,1-2.434-.317,39.077,39.077,0,0,0-3.661-1.512c-4.63-1.277-9.245.573-11.081,5.137a6.623,6.623,0,0,0-.317,3.943c.237,1.1.862,2.137,1,3.255.093.757-.38,1.218-.856,1.768a10.98,10.98,0,0,0-1.854,2.571c-2.367,5.231,4.534,8.832,8.868,8.221a2.014,2.014,0,0,0,1.4-2.46,2.054,2.054,0,0,0-2.461-1.4Z"/><path class="c" d="M306.839,253.319c.875-.406,1.764-.782,2.625-1.219a9.23,9.23,0,0,0,2.552-1.745,2.086,2.086,0,0,0,.586-1.415,2.036,2.036,0,0,0-.586-1.414,2.014,2.014,0,0,0-1.414-.586,2.052,2.052,0,0,0-1.414.586,4.262,4.262,0,0,1-.476.425l.405-.313a22.38,22.38,0,0,1-4.3,2.227,2.01,2.01,0,0,0-.919,1.195,2.047,2.047,0,0,0,.2,1.541,2.021,2.021,0,0,0,1.2.919l.531.072a1.991,1.991,0,0,0,1.01-.273Z"/><path class="c" d="M277.3,263.219l.654-.091-.532.072c1.9-.255,3.989-.391,5.687-1.362a2,2,0,0,0-2.019-3.454,4.26,4.26,0,0,1-.45.221l.477-.2a15.639,15.639,0,0,1-3.839.815l.531-.071c-.524.07-1.049.138-1.572.214a1.993,1.993,0,0,0-1.195.919,2,2,0,0,0,.717,2.737l.478.2a2.018,2.018,0,0,0,1.063,0Z"/><path class="c" d="M307.432,267.664a12.264,12.264,0,0,0,3.7,1.74,5.249,5.249,0,0,0,4.075-.27,2,2,0,1,0-2.019-3.454,1.919,1.919,0,0,1-.247.127l.478-.2a2.318,2.318,0,0,1-.525.13l.532-.072a4.009,4.009,0,0,1-.979-.023l.531.071a8.206,8.206,0,0,1-1.934-.565l.478.2a11.577,11.577,0,0,1-2.067-1.137,2,2,0,0,0-2.938,2.259,2.233,2.233,0,0,0,.919,1.195Z"/><path class="c" d="M241.016,76.447a149.6,149.6,0,0,0-12.689,39.136,118.312,118.312,0,0,0-1.7,20.522,107.927,107.927,0,0,0,2.566,20.243c1.511,7.561,3.176,15.168,2.871,22.926-.1,2.574,3.9,2.57,4,0,.533-13.569-4.683-26.5-5.355-39.965-.665-13.344,1.595-26.828,5.473-39.564a155.86,155.86,0,0,1,8.284-21.279c1.095-2.314-2.352-4.346-3.454-2.019Z"/><path class="c" d="M331.492,74.422c-.122,8.362,2.757,16.247,5.577,23.991a114.761,114.761,0,0,1,3.835,11.938,81.512,81.512,0,0,1,2,12.943c1.312,16.58-.8,33.351,2.634,49.757a54.292,54.292,0,0,0,10.345,23.017,2.013,2.013,0,0,0,2.829,0,2.049,2.049,0,0,0,0-2.828c-9.3-11.645-11.05-27.364-11.293-41.756-.146-8.69.171-17.392-.366-26.073a90.65,90.65,0,0,0-4.915-24.7c-3-8.521-6.777-17.086-6.643-26.29.038-2.575-3.962-2.576-4,0Z"/><path class="c" d="M325.4,148.738c-1.035,7.436-1.026,15.11-1.031,22.6,0,2.574,4,2.578,4,0,0-3.826.09-7.653.234-11.476.072-1.923.16-3.846.283-5.767.055-.862.117-1.723.194-2.583.03-.335.061-.669.1-1,.018-.17.038-.339.057-.509.01-.1.086-.657.023-.2a2.069,2.069,0,0,0-1.4-2.461,2.015,2.015,0,0,0-2.46,1.4Z"/><path class="f" d="M274.125,58.1c-2.159.54-6.882-2.7-9.85-1.484-1.629.581-2.956,9.185-3.81,14.746a1.071,1.071,0,0,0,1.583,1.1c6.048-3.312,17.213-4.732,22.6-4.782,7.207-.066,18.47.672,25.8,3.3a1.013,1.013,0,0,0,1.326-1.225c-1.163-4.193-3.935-13.634-5.4-13.949-3.238-.539-6.342,3.239-8.231,3.1-2.294-.27-9.04-10.8-11.739-11.065C283.3,48.117,276.824,58.237,274.125,58.1Z"/><path class="c" d="M273.593,56.174c.391-.076-.251-.014-.3-.023.283.046-.567-.126-.465-.1-.58-.139-1.148-.329-1.714-.515a22.493,22.493,0,0,0-4.273-1.111,6,6,0,0,0-3.665.508,4.692,4.692,0,0,0-1.8,2.454,35.58,35.58,0,0,0-1.81,7.161c-.26,1.429-.493,2.862-.719,4.3-.255,1.622-.822,3.432.44,4.787,1.246,1.338,2.859,1.014,4.3.282a25.113,25.113,0,0,1,3.811-1.5,58.657,58.657,0,0,1,8.529-1.941,74.2,74.2,0,0,1,15.706-.623,92.9,92.9,0,0,1,9.68.982c1.519.245,3.032.533,4.529.89,1.476.352,2.927.971,4.408,1.253a3.006,3.006,0,0,0,3.492-2.35c.257-1.233-.4-2.686-.74-3.865-.724-2.48-1.483-4.957-2.4-7.374-.613-1.622-1.249-3.676-2.588-4.876-2.2-1.977-5.8.059-7.832,1.318a16.5,16.5,0,0,1-1.545.919c.056-.027-.455.224-.427.17.05-.1.566.191.271.026.615.343-.188-.153-.321-.249.384.279-.088-.089-.132-.13-.2-.186-.395-.366-.587-.555-1.483-1.465-2.794-3.1-4.153-4.68a23.21,23.21,0,0,0-4.9-4.8c-2.01-1.248-3.849-.331-5.508,1.011a53.9,53.9,0,0,0-5.237,5.319c-.812.869-1.64,1.719-2.524,2.516a6.127,6.127,0,0,1-.848.627c-.33.229-.129.2-.074.068a2.062,2.062,0,0,1-.254.077q.5-.045.18-.038c-2.574,0-2.578,4,0,4,1.72,0,3.152-1.263,4.336-2.371,1.525-1.427,2.889-3.021,4.318-4.542a27.489,27.489,0,0,1,3.805-3.36c-.4.3-.125-.025-.048.029l.137-.038q-1.088-.11-.579,0c.347-.008-.334-.209.011,0,.135.082.271.162.4.247.053.034.3.212.028.009.159.12.309.254.458.386.37.326.721.674,1.065,1.027,2.684,2.755,4.845,6.253,7.956,8.557,1.684,1.248,3.4.882,5.135-.12a31.075,31.075,0,0,1,3.079-1.8,4.334,4.334,0,0,1,1.178-.362c.344-.041,1.224.174.108-.171q-.4-.339-.164-.114.161.186.015,0c-.09-.284.083.135.109.183.124.227.257.447.375.677.177.347.339.7.49,1.062.5,1.19.919,2.419,1.326,3.643.432,1.3.838,2.607,1.228,3.92q.248.828.485,1.659.108.377.215.755c.044.156.088.312.131.468q.156.839.525-.737h1.063c-1.241-.234-2.459-.762-3.69-1.076-1.413-.36-2.842-.654-4.278-.9-2.914-.509-5.86-.857-8.808-1.093a82.546,82.546,0,0,0-14.68-.075,59.893,59.893,0,0,0-15.468,3.263c-.569.217-1.133.451-1.691.7-.287.127-.573.257-.856.395-.629.307-.711.13.028.765.789.678.564.537.672-.163q.078-.509.158-1.018.168-1.064.343-2.127a67.868,67.868,0,0,1,1.532-7.421c.268-.944.674-1.508.885-2.241-.033.112-.291.193-.268.269q-.319.15.139-.006a.306.306,0,0,1,.31-.034,5.177,5.177,0,0,1,1.6.19c2.431.572,4.854,1.993,7.416,1.495C277.181,59.54,276.112,55.684,273.593,56.174Z"/><path class="c" d="M214.254,216.373c-.193-.358.157.473-.036-.063-.045-.125-.088-.252-.129-.379-.133-.412-.246-.831-.348-1.251-.093-.385-.178-.772-.243-1.162-.043-.258-.006.206-.018-.15a4.084,4.084,0,0,1,0-.414l-.585,1.414a12.644,12.644,0,0,1,1.656-1.582,5.194,5.194,0,0,0,1.607-1.717c.665-1.653-.67-3.193-.971-4.758l-.515,1.946c.982-1.208,2.473-2.122,3.265-3.476.942-1.611-.553-3.594-.806-5.192v1.063c-.161.4.112.1-.106.249a2.722,2.722,0,0,0,.341-.369c.277-.285.572-.553.871-.814q.538-.468,1.1-.906a2.01,2.01,0,0,0,0-2.828,2.051,2.051,0,0,0-2.828,0,10.885,10.885,0,0,0-2.959,2.957,3.388,3.388,0,0,0,.072,2.922c.152.445.313.887.451,1.337.05.162.091.327.138.49.147.508.021-.124,0,.081l.585-1.414c-.855,1.089-1.986,1.936-2.884,2.987a2.661,2.661,0,0,0-.288,2.969c.165.428.351.848.507,1.28.066.181.131.363.183.549.118.422.037-.2.017.157l.585-1.415c-1.2,1.259-3.473,2.355-3.444,4.325a12.171,12.171,0,0,0,1.329,5.183c1.222,2.266,4.677.249,3.454-2.019Z"/><path class="c" d="M366.24,245.566a10,10,0,0,1,1.94,1.32c.375.3.745.611,1.1.938.138.128.265.268.4.394.363.33-.073-.146,0,0l-.2-1.541c-.048.213-.009.031.058-.056a4.141,4.141,0,0,0-.245.468c-.189.339-.4.667-.609.994-.4.632-.858,1.245-1.218,1.905-1.18,2.163,1.162,3.92,1.638,5.972l.2-1.541c-.936,1.575-3.45,2.654-3.016,4.746a14.834,14.834,0,0,0,.7,2.067c.154.416.31.833.437,1.259.043.144.087.29.12.437.132.571.025-.283,0,.12l.586-1.414a18.552,18.552,0,0,1-3.991,2.982c-2.232,1.282-.22,4.739,2.018,3.453a24.138,24.138,0,0,0,2.314-1.572,11.911,11.911,0,0,0,2.644-2.237c1.331-1.836-.645-4.353-.983-6.227l-.514,1.946a16.929,16.929,0,0,0,3.139-3.541c1.008-1.913-1.15-4.529-1.993-6.16V252.3c.86-1.714,3.565-4.2,2.283-6.243a9.2,9.2,0,0,0-2.137-2.077,13.962,13.962,0,0,0-2.649-1.863,2.058,2.058,0,0,0-2.737.717,2.017,2.017,0,0,0,.718,2.736Z"/><path class="c" d="M224.5,182.654a10.235,10.235,0,0,0-2.525.227,3.568,3.568,0,0,0-2.207,1.474,4.6,4.6,0,0,0-.412,1.99c-.029.474-.039.949-.043,1.424a6.945,6.945,0,0,0,.074,1.343,2.006,2.006,0,0,0,.919,1.195,2,2,0,0,0,2.736-.717l.2-.478a2.018,2.018,0,0,0,0-1.063h0l.071.532c-.016-.361,0-.726,0-1.087a15.215,15.215,0,0,1,.095-1.747l-.071.532a1.659,1.659,0,0,1,.083-.382l-.2.478a.285.285,0,0,1,.031-.06l-.313.405a.318.318,0,0,1,.054-.049l-.4.313a2.578,2.578,0,0,1,.541-.318l-.478.2a3.378,3.378,0,0,1,.82-.212l-.531.071a12.094,12.094,0,0,1,1.558-.072,2.061,2.061,0,0,0,1.414-.585,2,2,0,0,0,0-2.829,2.078,2.078,0,0,0-1.414-.586Z"/><path class="c" d="M313.94,51.6c.414-.077-.347,0,.094-.011.186,0,.371-.021.557-.024.442-.007.884.012,1.325.048.075.006.619.061.438.038s.322.053.384.065a4.806,4.806,0,0,1,.9.249l-1.4-1.4a3.839,3.839,0,0,1,.164.548c.019.083.115.78.064.329.058.512.095,1.026.139,1.539a6.748,6.748,0,0,0,.679,3.025,3.539,3.539,0,0,0,3.175,1.327c.465.012.931,0,1.4,0,.207,0,.413.023.619.026-.31-.049-.362-.055-.159-.017q.52.156-.562-.37l-.515-.883a4.008,4.008,0,0,1,.166.69c-.053-.3-.011-.078.007.1.015.159.031.319.046.479a14.885,14.885,0,0,0,.239,1.966c.362,1.557,1.877,2.152,3.29,2.445.54.113,1.091.184,1.624.327a1.676,1.676,0,0,0,.329.1c-.224.007-1.015-.72-.723-.533.074.047-.052-.289-.006.028.017.11.052.225.078.334.124.531-.01-.219.011.1.01.158.021.316.025.474.009.313,0,.626-.014.938-.013.252-.038.5-.061.753-.029.314-.024.166.011-.06-.015.1-.031.194-.05.291a2.054,2.054,0,0,0,1.4,2.46,2.018,2.018,0,0,0,2.461-1.4,13.837,13.837,0,0,0,.253-3.08c-.05-1.27-.26-2.839-1.345-3.663a7.561,7.561,0,0,0-3.108-.972c-.233-.052-.46-.126-.691-.182-.4-.095-.028.017.024.024.027,0-.262-.128-.254-.144l.647.861-.028-.109a.975.975,0,0,1-.049-.265c.088.439.019.152.011.045-.016-.185-.036-.37-.053-.554-.121-1.3-.093-3-1.357-3.764a6.259,6.259,0,0,0-3.223-.452c-.229,0-.457,0-.685-.013-.13-.006-.259-.016-.389-.028.046,0,.458.082.136,0-.18-.044-.188-.147.186.085.176.11.7.553.662.808a3.249,3.249,0,0,0-.155-.68c.083.461-.017-.216-.028-.342-.024-.256-.043-.513-.065-.769-.057-.677-.123-1.355-.236-2.026a2.646,2.646,0,0,0-1.384-2.17,5.715,5.715,0,0,0-1.6-.425,13.39,13.39,0,0,0-4.47-.04,2.019,2.019,0,0,0-1.4,2.461,2.042,2.042,0,0,0,2.46,1.4Z"/><path class="a" d="M36.124,389.183c-2-33.411-4.154-73.014-6.1-93.353L82.59,261.9,137.9,296.4c-1.944,20.333-3.515,59.385-5.476,92.757Z"/><path class="a" d="M71.083,172.314c-2.209-5.606-4.388-11.393-6.335-16.972-3.1-8.894-5.632-16.83-7.218-21.994a26.9,26.9,0,0,1,5.12-6.653A56.1,56.1,0,0,0,78.842,137.98c.335.152.709.338.817.689a1.3,1.3,0,0,1-.187.915,6.89,6.89,0,0,1-.571.832l7.028-.013a6.929,6.929,0,0,1-.559-.819,1.3,1.3,0,0,1-.187-.915c.108-.351.482-.537.817-.689A56.1,56.1,0,0,0,102.192,126.7a26.661,26.661,0,0,1,4.97,6.388c-.99,5.274-3.155,16.022-5.963,25.448a413.518,413.518,0,0,1-16.364,45.577l-1.228-2.316C80.567,195.229,75.757,184.176,71.083,172.314Z"/><path class="a" d="M110.262,138.665c-.63-.277-2.967-1.2-3.245-1.3-4.207-1.519-4.04-4.224-4.571-7.249a59.72,59.72,0,0,1-.93-9.5c8.2-4.96,14.541-15.691,15.738-18.942.2-.6.6-1.729.968-3.093l.75-.115a9.447,9.447,0,0,0,4.4-1.982,14.256,14.256,0,0,0,3.687-4.839,22.436,22.436,0,0,0,2.288-11.893,7.479,7.479,0,0,0-.784-3.012,5.3,5.3,0,0,0-3.807-2.532,5.61,5.61,0,0,0-4.488,1.313s-.247-35.04-40.459-35.04S45,75.523,45,75.523a5.61,5.61,0,0,0-4.488-1.313,5.291,5.291,0,0,0-3.807,2.532,7.479,7.479,0,0,0-.784,3.012,22.445,22.445,0,0,0,2.287,11.893A14.259,14.259,0,0,0,41.9,96.486a9.447,9.447,0,0,0,4.4,1.982s.536.083,1.433.219A38.168,38.168,0,0,0,55,112.883a34.617,34.617,0,0,0,8.887,7.749,59.369,59.369,0,0,1-.928,9.484c-.53,3.025-.364,5.73-4.57,7.249-.279.1-2.024.831-2.539,1.051,0,0,4.225,19.186,26.151,19.186S110.262,138.665,110.262,138.665Z"/><path class="g" d="M113.651,64.715a57.136,57.136,0,0,1,6.424,10.99,5.571,5.571,0,0,1,4.678-1.5,4.987,4.987,0,0,1,.976.247c2.789-7.164,3.2-17.542-.323-27.389-2.476-6.922-8.649-14.175-13.033-16.2l-6.329-4.552c-5.393-7.387-13.545-11.28-25.05-11.632C70.22,14.359,57.806,16.535,48.37,26.032L51.407,29.1c-5.561,3.57-9.915,10.259-11.935,16.193-2.423,7.114-3.146,17.236-.27,29.2l.021.086a5.323,5.323,0,0,1,1.289-.363,5.543,5.543,0,0,1,4.8,1.623C56.167,65.459,65.62,59.3,75.156,51.808c.055.635,2.088,5.715,2.563,5.908.647.263,7.747-4.2,12.7-7.248l7.793,2.051a29.073,29.073,0,0,1,9.137,5.351A43.234,43.234,0,0,1,113.651,64.715Z"/><path class="c" d="M121.679,76.937a3.517,3.517,0,0,1,5.063.665,6.826,6.826,0,0,1,.676,3.458,19.628,19.628,0,0,1-.285,4.029c-.876,4.8-3.376,10.5-8.692,11.451a2.016,2.016,0,0,0-1.4,2.46,2.045,2.045,0,0,0,2.46,1.4c7.636-1.369,11.27-10.02,11.844-16.94.287-3.458.085-7.529-2.917-9.789a7.649,7.649,0,0,0-9.58.441c-1.977,1.653.866,4.47,2.828,2.828Z"/><path class="c" d="M116.914,94.293a21.145,21.145,0,0,1-1.216,5.739c-.16.49-.321.979-.507,1.458.213-.548-.048.1-.1.2-.1.209-.2.418-.3.625a47.645,47.645,0,0,1-4.157,6.7c-3.685,5.064-8.691,10.439-15.019,11.914-2.5.585-1.445,4.442,1.064,3.857,5.671-1.322,10.419-5.375,14.164-9.663a48.4,48.4,0,0,0,7.8-11.632,25.2,25.2,0,0,0,2.268-9.2c.1-2.574-3.9-2.57-4,0Z"/><path class="c" d="M46.414,74.109a7.65,7.65,0,0,0-9.58-.441c-3,2.257-3.2,6.334-2.917,9.789.574,6.92,4.208,15.571,11.844,16.94a2.057,2.057,0,0,0,2.46-1.4,2.017,2.017,0,0,0-1.4-2.46c-5.317-.954-7.816-6.655-8.692-11.451a19.467,19.467,0,0,1-.288-3.811,7.7,7.7,0,0,1,.588-3.527,3.5,3.5,0,0,1,5.153-.814c1.962,1.641,4.806-1.174,2.829-2.828Z"/><path class="c" d="M44.59,93.837a43.077,43.077,0,0,0,9.269,20.787c5.121,6.013,11.89,10.43,19.851,11.274a2.014,2.014,0,0,0,2-2,2.046,2.046,0,0,0-2-2c-7.016-.744-12.9-5.149-17.3-10.43-4.426-5.314-6.792-11.956-7.965-18.694a2.017,2.017,0,0,0-2.46-1.4,2.045,2.045,0,0,0-1.4,2.46Z"/><path class="c" d="M82.17,88.77a33.909,33.909,0,0,1,.8,3.66L82.9,91.9a2.245,2.245,0,0,1,.014.505l.071-.531a1.2,1.2,0,0,1-.056.227l.2-.478a.9.9,0,0,1-.08.146l.313-.405a.787.787,0,0,1-.12.118l.405-.313a2.3,2.3,0,0,1-.29.154l.478-.2a2.094,2.094,0,0,1-.489.143l.532-.072a1.9,1.9,0,0,1-.459,0l.532.072c-.173-.024-.343-.066-.516-.09a1.512,1.512,0,0,0-.8-.035,1.492,1.492,0,0,0-.744.237,2,2,0,0,0-.717,2.736,1.915,1.915,0,0,0,1.2.92c.4.054.8.157,1.209.175a3.88,3.88,0,0,0,1.8-.429,2.616,2.616,0,0,0,1.443-1.723,4.267,4.267,0,0,0-.018-1.841c-.2-1.18-.471-2.348-.775-3.5a2.06,2.06,0,0,0-.919-1.2A2,2,0,0,0,82.17,88.77Z"/><path class="c" d="M63.483,84.307c1.5-.13,2.995-.4,4.487-.6l-.638.085a24.122,24.122,0,0,1,3.02-.307,2.4,2.4,0,0,0,0-4.8,22.093,22.093,0,0,0-2.763.273c-1.261.167-2.519.351-3.779.522l.638-.086c-.321.043-.642.088-.965.116a2.574,2.574,0,0,0-1.7.7,2.4,2.4,0,0,0,0,3.394,2.356,2.356,0,0,0,1.7.7Z"/><path class="c" d="M66.44,83.022q.19,1.074.349,2.153c.032.219.063.437.093.656.047.333-.035-.277.009.069.014.1.027.208.04.312q.117.938.208,1.88c.114,1.2.194,2.409.2,3.617a9.632,9.632,0,0,1-.334,3.137c0,.013-.127.306-.043.122.092-.2-.081.141-.1.183s-.228.37-.09.172c.122-.173-.038.047-.061.07-.082.079-.158.162-.244.236.352-.3,0-.034-.006-.021-.04.069-.377.129.014.009-.049.015-.51.12-.256.081s-.177,0-.225,0c-.114,0-.227-.006-.34-.009-.426-.012-.194-.022-.1,0-.127-.023-.253-.068-.381-.09-.063-.01-.376-.13-.039.013-.106-.046-.2-.116-.309-.161-.024-.01-.273-.167-.077-.032.212.146-.135-.122-.175-.162a3.13,3.13,0,0,1-.219-.241c.068.083.173.305.031.009-.046-.1-.268-.537-.192-.347s-.11-.388-.132-.478-.034-.168-.055-.25c-.127-.5,0,.369-.022-.155a28.548,28.548,0,0,1,.114-3.08,24.785,24.785,0,0,1,1.167-7.265,2.018,2.018,0,0,0-1.4-2.46,2.043,2.043,0,0,0-2.461,1.4,29.881,29.881,0,0,0-1.3,8.216c-.185,2.6-.355,5.293,1.526,7.365,1.925,2.122,5.8,2.406,7.844.32,2.068-2.114,1.958-5.464,1.81-8.2a67.377,67.377,0,0,0-.993-8.119,2.018,2.018,0,0,0-2.46-1.4,2.044,2.044,0,0,0-1.4,2.46Z"/><path class="c" d="M95.706,83.513a32.785,32.785,0,0,1,3.354.283c1.139.122,2.278.271,3.422.35a2.4,2.4,0,0,0,2.4-2.4,2.458,2.458,0,0,0-2.4-2.4c-1.144-.079-2.283-.228-3.422-.35a32.785,32.785,0,0,0-3.354-.283,2.4,2.4,0,0,0,0,4.8Z"/><path class="c" d="M100.5,83.467c.781,2.761,1.481,5.545,2.043,8.359a54.161,54.161,0,0,1,.908,6.008,14.752,14.752,0,0,1-.235,5.632c-.388,1.213-1.362,2.011-2.613,1.093a2.725,2.725,0,0,1-.8-1.306,8.892,8.892,0,0,1-.285-1.065c-.05-.227-.083-.458-.131-.685-.1-.484-.006.02-.022-.112a78.222,78.222,0,0,1-.418-9.133c-.013-1.854,0-3.709.081-5.561.031-.737.071-1.475.14-2.21.014-.152.031-.3.046-.456.046-.45-.005-.005.013-.1.04-.223.077-.442.135-.661.657-2.491-3.2-3.554-3.857-1.063-.811,3.075-.576,6.614-.559,9.759a69.051,69.051,0,0,0,.561,10.466,7.955,7.955,0,0,0,2.867,5.437,5.747,5.747,0,0,0,6.654-.061c3.7-3.007,2.6-9.432,1.987-13.525A95.371,95.371,0,0,0,104.354,82.4c-.7-2.473-4.56-1.422-3.857,1.063Z"/><path class="c" d="M92.845,101.891a6.244,6.244,0,0,0-5.934-1.581c-1.055.306-2,.9-3.018,1.293a3.69,3.69,0,0,1-2.42.024c-1.927-.465-3.833-.872-5.752-.124a5.653,5.653,0,0,0-3.617,4.158,6.673,6.673,0,0,0,1.3,5.416,4.538,4.538,0,0,0,1.763,1.41,6.939,6.939,0,0,0,2.988.64c2.006.014,3.7-1.1,5.713-.923,2.127.184,4.073,1.021,6.228.348a7.136,7.136,0,0,0,4.427-4.216,6.531,6.531,0,0,0-1.676-6.445c-1.8-1.845-4.629.985-2.828,2.828a2.645,2.645,0,0,1,.66,2.512,3.386,3.386,0,0,1-.78.9,2.451,2.451,0,0,1-1.265.663c-1.455.25-3-.411-4.435-.56a10.01,10.01,0,0,0-2.506.062,15.712,15.712,0,0,0-2.369.677,3.847,3.847,0,0,1-1.547.137,3.618,3.618,0,0,1-.547-.1,1.862,1.862,0,0,1-.422-.178,1.937,1.937,0,0,1-.6-.708,2.715,2.715,0,0,1-.219-1.5s.05-.346.016-.161c-.038.2.055-.194.072-.235.091-.222-.018,0-.034.036a2.3,2.3,0,0,1,.26-.455,1.875,1.875,0,0,1,.935-.611c1.1-.35,2.171.061,3.472.358a8.083,8.083,0,0,0,3.071.208A10.263,10.263,0,0,0,86.5,104.8c1.276-.593,2.339-1.151,3.522-.081C91.922,106.442,94.759,103.622,92.845,101.891Z"/><path class="c" d="M111.364,32.6a21.462,21.462,0,0,1,7.074,6.253,31.782,31.782,0,0,1,5.421,9.868,39.014,39.014,0,0,1,.437,23.823c-.791,2.456,3.07,3.508,3.857,1.064a42.824,42.824,0,0,0-.586-26.4,36.778,36.778,0,0,0-6.178-11.029c-2.167-2.732-4.817-5.508-8.006-7.033-2.311-1.105-4.343,2.342-2.019,3.453Z"/><path class="c" d="M54.315,25.422c-6.766,2.563-11.808,8.548-14.928,14.912A43.691,43.691,0,0,0,35.34,60.3a68.519,68.519,0,0,0,1.934,14.716c.593,2.5,4.451,1.443,3.857-1.064-3.053-12.887-2.9-27.708,6.024-38.344a20.72,20.72,0,0,1,8.223-6.332,2.055,2.055,0,0,0,1.4-2.46,2.015,2.015,0,0,0-2.46-1.4Z"/><path class="c" d="M107.77,25.311A30.772,30.772,0,0,0,87.064,13.24a52.823,52.823,0,0,0-26.45,2.548,39.54,39.54,0,0,0-13.659,8.83c-1.827,1.818,1,4.647,2.829,2.829a37.676,37.676,0,0,1,22.353-10.4c7.672-.911,16.216-.668,23.259,2.832a24.748,24.748,0,0,1,8.921,7.45,2.06,2.06,0,0,0,2.736.717,2.013,2.013,0,0,0,.717-2.736Z"/><path class="c" d="M90.373,48.148c-3.851,2.364-7.646,4.87-11.634,7-.3.162-.61.313-.915.47-.01.005-.482.254-.193.093.273-.15-.048.052-.108.032-.154.039-.121.04.1,0a1.591,1.591,0,0,1,1.406.466c.172.017.212.425.064.029-.115-.309-.32-.607-.461-.907a15.653,15.653,0,0,1-1.548-4.061c-.248-1.666-2.319-1.685-3.343-.882-9.693,7.6-19.789,14.6-28.8,23.038-1.883,1.763.95,4.587,2.828,2.828,9.013-8.436,19.11-15.438,28.8-23.038l-3.342-.882a19.724,19.724,0,0,0,2.05,5.225,2.7,2.7,0,0,0,4.264,1.648c4.5-2.03,8.653-5.035,12.85-7.611,2.19-1.345.183-4.806-2.019-3.454Z"/><path class="c" d="M97.679,54.448A31.3,31.3,0,0,1,109.95,63.3a53.481,53.481,0,0,1,8.134,12.817,2.017,2.017,0,0,0,2.737.717,2.047,2.047,0,0,0,.717-2.736,56.85,56.85,0,0,0-9.013-13.914A35.272,35.272,0,0,0,98.743,50.59a2.017,2.017,0,0,0-2.461,1.4,2.049,2.049,0,0,0,1.4,2.461Z"/><path class="c" d="M28.026,295.83c2.243,23.551,3.384,47.22,4.77,70.832q.662,11.261,1.328,22.521c.153,2.558,4.154,2.575,4,0-1.544-25.845-2.9-51.706-4.8-77.528-.388-5.279-.8-10.556-1.3-15.825a2.056,2.056,0,0,0-2-2,2.014,2.014,0,0,0-2,2Z"/><path class="c" d="M135.9,296.4c-2.214,23.271-3,46.7-4.223,70.033q-.6,11.364-1.253,22.724c-.151,2.571,3.85,2.562,4,0,1.5-25.586,2.539-51.2,4.232-76.774.353-5.332.738-10.663,1.244-15.983a2.015,2.015,0,0,0-2-2,2.043,2.043,0,0,0-2,2Z"/><path class="c" d="M82.453,355.072c-.448,4.923-.492,9.888-.537,14.828-.06,6.425-.013,12.851.049,19.276.024,2.572,4.024,2.579,4,0-.062-6.425-.109-12.851-.049-19.276.045-4.94.089-9.9.537-14.828a2.014,2.014,0,0,0-2-2,2.043,2.043,0,0,0-2,2Z"/><path class="a" d="M148.223,303.946a228.618,228.618,0,0,0-5.069,29.979,2.518,2.518,0,0,0,4.242,2.013c.792-.757,1.984-1.89,2.546-2.543a20.439,20.439,0,0,1,2.681-2.931,24.8,24.8,0,0,1,.561,6.734c-.286,7.791.124,7.346-1.683,15.251-.5,2.182-.13,3.955.436,4.365,3.617,2.619,7.931,0,10.056-2.774a17.142,17.142,0,0,0,2.293-4.207c3.029-7.737,1.994-15.174.124-23.27s-4.546-16.116-4.685-24.423Z"/><path class="c" d="M145.357,307.149a180.007,180.007,0,0,0-4.1,25.572c-.152,1.75-.07,3.327,1.261,4.633a4.615,4.615,0,0,0,4.158,1.167c1.567-.343,2.686-1.665,3.772-2.753,1.248-1.25,2.227-2.757,3.591-3.89L150.7,331a37.743,37.743,0,0,1,.432,7.954c-.064,2.17-.038,4.357-.282,6.516-.278,2.455-1.207,5.274-1.507,7.89a7.067,7.067,0,0,0,.542,4.025c.731,1.4,2.568,2.151,4.049,2.392,7.116,1.161,11.568-6.283,13.177-12.076,1.944-7,.922-14.243-.661-21.2-1.834-8.065-4.532-16.018-4.72-24.358-.057-2.57-4.057-2.58-4,0,.153,6.79,1.849,13.377,3.517,19.921,1.609,6.31,3.316,12.8,2.894,19.364-.32,4.973-2.239,13.088-8.026,14.365a3.941,3.941,0,0,1-1.484.064,3.424,3.424,0,0,1-.85-.265c-.208-.094-.7-.543-.341-.041-.5-.7-.012-2.53.2-3.5a58.8,58.8,0,0,0,1.23-6.817c.236-2.291.2-4.61.276-6.91a39.585,39.585,0,0,0-.594-8.394c-.289-1.619-2.3-1.746-3.343-.882a29.849,29.849,0,0,0-2.868,3.14c-.452.5-.94.968-1.424,1.437-.247.239-.7.861-1.042.972-.437.141-.646-.124-.724-.521a10.227,10.227,0,0,1,.213-2.561q.124-1.325.27-2.646a171.855,171.855,0,0,1,3.581-20.658c.588-2.5-3.268-3.572-3.858-1.064Z"/><path class="a" d="M20.077,303.441a236.073,236.073,0,0,1,4.969,30.484,2.518,2.518,0,0,1-4.242,2.013c-.792-.757-1.984-1.89-2.546-2.543a20.5,20.5,0,0,0-2.681-2.931,24.8,24.8,0,0,0-.561,6.734c.285,7.791-.124,7.346,1.683,15.251.5,2.182.13,3.955-.436,4.365-3.617,2.619-7.931,0-10.056-2.774a17.112,17.112,0,0,1-2.294-4.207c-3.028-7.737-1.994-15.174-.123-23.27s4.546-16.116,4.684-24.423Z"/><path class="c" d="M18.985,308.213a172.053,172.053,0,0,1,3.581,20.658q.146,1.323.27,2.646a10.881,10.881,0,0,1,.21,2.408c-.073.46-.159.832-.721.674-.321-.091-.665-.608-.9-.835-.532-.514-1.069-1.027-1.566-1.574a30.271,30.271,0,0,0-2.868-3.14c-1.039-.864-3.054-.737-3.343.882a59.225,59.225,0,0,0-.419,14.051,41.184,41.184,0,0,0,.858,5.9,25.75,25.75,0,0,1,.843,4.317,3.034,3.034,0,0,1-.174,1.422c.2-.364.2-.165-.033-.192-.243-.029-.862.38-1.149.427-2.31.371-4.606-1.441-5.9-3.175a20.6,20.6,0,0,1-3.392-9.139c-.96-6.354.521-12.821,2.041-18.963,1.83-7.393,3.979-14.768,4.151-22.437.058-2.575-3.942-2.575-4,0-.328,14.617-8.714,28.58-5.9,43.346,1.167,6.112,4.682,13.632,11.7,14.363,2.8.292,6.045-1.016,6.531-4.021.5-3.081-.8-6.275-1.3-9.3a49.426,49.426,0,0,1-.4-6.449,43.942,43.942,0,0,1,.4-9.085l-3.342.882c1.364,1.133,2.343,2.639,3.591,3.89,1.086,1.089,2.2,2.409,3.772,2.753a4.634,4.634,0,0,0,4.158-1.167c1.34-1.285,1.412-2.9,1.261-4.633a179.866,179.866,0,0,0-4.1-25.572c-.589-2.5-4.446-1.444-3.857,1.064Z"/><path class="a" d="M27.912,274.329c-.842,10.036-1.519,19.7-2.339,30.5-3.355-.359-13.744-1.495-19.117-2.344.209-4.157,1.094-17.564,1.8-28.317C8.259,274.167,21.85,274.046,27.912,274.329Z"/><path class="c" d="M5.122,291.644c-.239,3.612-.485,7.224-.67,10.84a2,2,0,0,0,1.468,1.928c6.877,1.077,13.819,1.806,20.742,2.532a2.014,2.014,0,0,0,2-2,2.045,2.045,0,0,0-2-2c-6.593-.692-13.278-1.387-19.679-2.389l1.469,1.929c.185-3.616.431-7.228.67-10.84a2,2,0,0,0-4,0Z"/><path class="a" d="M161.579,274.167c.708,10.753,1.594,24.16,1.8,28.317-6.336,1-19.645,2.4-20.185,2.458-.848-11.234-1.543-21.235-2.431-31.7C145.368,273.009,161.579,274.167,161.579,274.167Z"/><path class="c" d="M160.722,291.524c.23,3.652.473,7.305.66,10.96l1.468-1.929c-6.4,1-13.078,1.7-19.668,2.389a2.056,2.056,0,0,0-2,2,2.014,2.014,0,0,0,2,2c6.918-.727,13.857-1.455,20.731-2.532a2,2,0,0,0,1.469-1.928c-.187-3.655-.43-7.308-.66-10.96-.162-2.557-4.163-2.575-4,0Z"/><path class="c" d="M61.887,120.712a55.785,55.785,0,0,1-.538,6.868,51.12,51.12,0,0,1-.844,5.044c-.055.218-.22.754-.214.739.087-.218-.108.226-.13.267a5.053,5.053,0,0,1-.292.484c.157-.227-.037.046-.115.128-.118.125-.238.248-.368.361a4.79,4.79,0,0,1-.852.532c-1.173.612-2.48,1.036-3.7,1.555a2.011,2.011,0,0,0-.717,2.736,2.052,2.052,0,0,0,2.736.717c.173-.073.313-.132.055-.023l.541-.227q.529-.222,1.06-.439a17.558,17.558,0,0,0,2.373-1.048,7.408,7.408,0,0,0,3.378-4.355,38.14,38.14,0,0,0,.918-5.24,63.881,63.881,0,0,0,.706-8.1c.051-2.575-3.949-2.575-4,0Z"/><path class="c" d="M99.515,120.712a64.327,64.327,0,0,0,.774,8.551,27.854,27.854,0,0,0,1,5.23,7.467,7.467,0,0,0,3.921,4.272c.713.335,1.462.6,2.195.884q.587.233,1.172.467l.553.224c.49.2-.111-.051.126.052a2.067,2.067,0,0,0,2.737-.717,2.015,2.015,0,0,0-.718-2.737c-1.228-.532-2.478-1.009-3.723-1.5a4.869,4.869,0,0,1-1.831-1.12,1.515,1.515,0,0,1-.43-.6,4.6,4.6,0,0,1-.207-.416c.157.37-.048-.192-.057-.219a34.026,34.026,0,0,1-.876-4.878,56.194,56.194,0,0,1-.632-7.487c-.05-2.571-4.051-2.579-4,0Z"/><path class="f" d="M77.153,149.565c.073.314.149.627.228.941a8.254,8.254,0,0,1,.342,2.085c-.006.75-4.643,38.345-5.509,45.551,2.131,2.953,8.714,12.229,11.822,15.049,2.713-2.615,8.492-11.138,10.887-14.934-.666-5.855-6.618-44.268-6.6-45.433a12.64,12.64,0,0,1,.812-3.7c1.06-3.234,1.273-5.493,2.333-8.727-3.145,0-13.966.026-16.25.026C75.988,143.469,76.441,146.517,77.153,149.565Z"/><path class="c" d="M77.829,154.512c3.5,0,7-.077,10.493-.078a2,2,0,0,0,0-4c-3.5,0-7,.077-10.493.078a2,2,0,0,0,0,4Z"/><path class="c" d="M75.224,150.1a10.051,10.051,0,0,1,.353,3.877c-.169,1.486-.348,2.972-.526,4.457q-.861,7.189-1.743,14.378-.962,7.878-1.927,15.757-.38,3.1-.757,6.2c-.185,1.514-.769,3.4.112,4.734,1.731,2.62,3.7,5.126,5.6,7.624a56.285,56.285,0,0,0,6.29,7.483,2.038,2.038,0,0,0,2.828,0,54.064,54.064,0,0,0,5.876-7.429q1.574-2.215,3.083-4.475c.769-1.15,2.071-2.563,2.442-3.913a5.438,5.438,0,0,0-.119-2.04q-.181-1.368-.374-2.733-.449-3.195-.923-6.386c-1.52-10.345-3.119-20.679-4.612-31.029q-.181-1.262-.357-2.524c-.056-.4-.039-.3-.006-.041-.017-.132-.036-.263-.052-.394-.022-.189-.055-.38-.067-.57-.1-1.545.642-3.077,1.066-4.532.735-2.52,1.187-5.108,1.988-7.611a2.017,2.017,0,0,0-1.928-2.532c-5.417,0-10.833.025-16.25.026a2.023,2.023,0,0,0-1.929,2.531c.75,3.026,1.24,6.106,1.936,9.144.575,2.508,4.433,1.446,3.857-1.063-.7-3.038-1.186-6.118-1.935-9.144l-1.929,2.532c5.417,0,10.833-.025,16.25-.026l-1.929-2.532c-.563,1.76-.967,3.553-1.4,5.348-.455,1.906-1.2,3.752-1.588,5.67a8.968,8.968,0,0,0-.094,3.153c.392,2.985.844,5.963,1.285,8.942,1.3,8.765,2.632,17.525,3.918,26.292q.42,2.862.826,5.725c.056.4.112.793.166,1.191l.069.5c.066.477-.035-.267.008.062.067.5.133,1,.191,1.509l.273-1.01c-1.668,2.637-3.419,5.223-5.224,7.768a48.849,48.849,0,0,1-5.35,6.762H85.45a53.23,53.23,0,0,1-6.065-7.2c-1.853-2.453-3.646-4.949-5.444-7.442l.273,1.009c1.663-13.83,3.406-27.651,5.049-41.483.128-1.078.257-2.156.376-3.235a12.674,12.674,0,0,0-.558-4.39C78.485,146.53,74.627,147.59,75.224,150.1Z"/><path class="a" d="M95.389,152c5.2-5.167,8.605-11.426,12.446-17.678a27.7,27.7,0,0,0-5.643-7.624A56.1,56.1,0,0,1,86,137.98c-.335.152-.709.338-.817.689a1.3,1.3,0,0,0,.187.915,52.628,52.628,0,0,0,3.349,4.325C91,146.7,93.859,150.113,95.389,152Z"/><path class="a" d="M69.453,152c-5.2-5.167-8.605-11.426-12.446-17.678A27.685,27.685,0,0,1,62.65,126.7,56.1,56.1,0,0,0,78.842,137.98c.335.152.709.338.817.689a1.3,1.3,0,0,1-.187.915,52.628,52.628,0,0,1-3.349,4.325C73.844,146.7,70.983,150.113,69.453,152Z"/><path class="c" d="M96.8,153.412a71.839,71.839,0,0,0,10.1-13.695c.732-1.207,1.458-2.418,2.193-3.623a3.135,3.135,0,0,0,.705-2.041,6.026,6.026,0,0,0-.94-2.031,29.126,29.126,0,0,0-5.253-6.741,2.034,2.034,0,0,0-2.828,0,53.167,53.167,0,0,1-8.761,7.1c-1.555,1.008-3.157,1.944-4.8,2.793-1.338.688-3.269,1.175-3.857,2.722a3.736,3.736,0,0,0,.918,3.608c1.054,1.408,2.173,2.768,3.287,4.128,2.129,2.6,4.294,5.17,6.415,7.777a2.014,2.014,0,0,0,2.828,0,2.047,2.047,0,0,0,0-2.829c-1.77-2.175-3.572-4.324-5.356-6.489-1-1.218-2.008-2.438-2.991-3.674-.3-.377-.6-.753-.887-1.142a3.673,3.673,0,0,0-.35-.5c-.145-.132-.023-.28-.036-.112l-.273,1.01c-.2.379.229-.029.468-.142.372-.174.743-.35,1.11-.532q1.128-.557,2.228-1.169,2.362-1.312,4.591-2.848a58.165,58.165,0,0,0,8.3-6.879h-2.828a26.9,26.9,0,0,1,5.33,7.22V133.31c-3.685,6.011-7.121,12.235-12.133,17.273C92.157,152.41,94.984,155.24,96.8,153.412Z"/><path class="c" d="M70.867,150.583c-5.012-5.038-8.449-11.262-12.133-17.273v2.019a26.875,26.875,0,0,1,5.33-7.22H61.235a58.276,58.276,0,0,0,8.3,6.879q2.14,1.47,4.406,2.744,1.1.617,2.228,1.181.552.276,1.111.538.276.131.553.256.453.267.1-.028l-.273-1.01c-.01-.124.156-.066-.036.112a2.657,2.657,0,0,0-.282.4c-.3.424-.631.83-.955,1.237-.984,1.236-1.987,2.456-2.991,3.674-1.784,2.165-3.586,4.314-5.356,6.489a2.059,2.059,0,0,0,0,2.829,2.015,2.015,0,0,0,2.828,0c2.121-2.607,4.286-5.177,6.414-7.777,1.114-1.36,2.234-2.72,3.288-4.128.789-1.054,1.427-2.266.918-3.608-.589-1.55-2.516-2.032-3.857-2.722a55.263,55.263,0,0,1-4.8-2.793,53.364,53.364,0,0,1-8.761-7.1,2.037,2.037,0,0,0-2.829,0,29.022,29.022,0,0,0-5.146,6.558,8.973,8.973,0,0,0-1.011,1.948,2.865,2.865,0,0,0,.67,2.307c.735,1.205,1.46,2.416,2.193,3.623a71.839,71.839,0,0,0,10.1,13.695C69.857,155.239,72.686,152.411,70.867,150.583Z"/><path class="g" d="M4.184,259.8q-.435,8.189-.83,16.268c-.362,7.439-.374,9.645-.5,12.243a3.022,3.022,0,0,0,2.65,3.153l20.084,2.277,1.03.116c-.579,5.882-1.138,12.046-1.707,19.251,8.5,1.783,32.937,2.716,41.017-.9,9.2-4.118,16.027-29.739,17.727-39.484-2.44-18.7-5.1-47.331-5.107-49.825,0-6.715,1.968-9.6,3.68-13.212.8-1.6,1.652-3.427,2.553-5.46l-1.176-2.433c-4.476-9.664-12.791-29.065-18.859-46.45-3.132-8.973-5.677-16.972-7.263-22.135a328.749,328.749,0,0,0-32.63,15.97c-2.018,1.1-4.538,1.506-6.334,2.939-7.667,6.119-9.065,12.063-9.454,19.809C7.655,200.015,5.751,230.344,4.184,259.8Z"/><path class="g" d="M83.275,269.77c3.085,17.834,9.451,40.011,17.963,43.121,8.613,3.148,33.9,2.414,42.9.579-.577-7.372-1.144-13.653-1.733-19.641l.772-.087,20.084-2.277a3.022,3.022,0,0,0,2.65-3.153c-.124-2.6-.135-4.8-.5-12.243-1.674-34.406-4.039-70.848-5.712-104.144-.39-7.746-1.788-13.69-9.455-19.809-1.8-1.433-4.315-1.841-6.334-2.939a315.238,315.238,0,0,0-36.488-17.526c-1.315,6.765-1.585,11.295-6.228,26.88-5.945,19.953-12.973,39.13-18.969,51.154-1.712,3.611-3.68,6.5-3.68,13.212.011,2.366,2.4,28.249,4.725,46.873"/><path class="c" d="M108.484,134.218q11.106,4.515,21.78,9.985c3.414,1.741,6.8,3.54,10.17,5.361a42.008,42.008,0,0,0,5.275,2.542,13.331,13.331,0,0,1,4.452,2.535,21.256,21.256,0,0,1,5.714,7.54,26.11,26.11,0,0,1,1.745,8.355c.59,8.316.878,16.663,1.342,24.987.975,17.51,2.015,35.015,2.985,52.525q.723,13.07,1.377,26.142c.167,3.389.325,6.778.443,10.169.031.887.059,1.774.092,2.661.03.784.273,1.715-.377,2.286-.113.1-.63.247-.228.16-.029.006-.06,0-.089.01-.146.027-.3.034-.446.051l-1.8.2-5.73.65-11.322,1.283-.684.078a2.06,2.06,0,0,0-2,2,2.014,2.014,0,0,0,2,2c6.621-.751,13.247-1.465,19.864-2.252a5.159,5.159,0,0,0,4.862-5.351c-.057-2-.143-4.012-.221-6.017-.338-8.652-.827-17.3-1.293-25.945-.981-18.177-2.06-36.348-3.086-54.523q-.75-13.269-1.441-26.542c-.347-6.782-.756-13.515-5.015-19.138a21.162,21.162,0,0,0-8.785-7.24,105.775,105.775,0,0,1-10.452-5.213c-7.188-3.8-14.486-7.387-21.955-10.6q-3.042-1.311-6.111-2.556a2.012,2.012,0,0,0-2.46,1.4,2.049,2.049,0,0,0,1.4,2.46Z"/><path class="c" d="M90.377,223.857c0-.184.013-.366.027-.55.029-.372-.1.533-.021.168.019-.09.034-.18.056-.269.042-.18.1-.352.158-.526.115-.346-.229.465-.06.142.057-.108.11-.217.173-.322.047-.079.1-.154.15-.23.2-.3-.338.376-.084.115.131-.135.279-.257.407-.392-.361.381-.258.193-.089.084.056-.037.113-.071.171-.1a2.733,2.733,0,0,0,.275-.141q-.476.194-.182.079c.07-.025.139-.049.21-.071a4.964,4.964,0,0,0,.688-.157l-.282.039c.087-.009.174-.016.261-.022.136-.008.273-.015.41-.012s.259.016.389.024c.447.027-.467-.1-.045,0,.246.06.515.178.762.216-.434-.067-.306-.139-.092-.028.091.047.18.1.266.152.16.1.305.3-.08-.082.045.045.1.085.15.127.146.13.261.284.4.421-.388-.384-.191-.253-.087-.093a3.82,3.82,0,0,1,.194.334c.08.154.139.439-.039-.124.03.093.072.184.1.277a4.877,4.877,0,0,1,.155.581c.021.1.031.2.054.3-.142-.6-.039-.3-.024-.121a5.812,5.812,0,0,1,.018.673c-.01.236-.153.573.028-.073-.043.153-.057.317-.1.473a4.557,4.557,0,0,0-.156.476c.06-.43.175-.392.064-.164-.052.1-.107.207-.167.306-.046.076-.1.148-.145.223-.193.3.337-.386.094-.119-.126.137-.254.266-.388.395-.265.257.417-.28.105-.075-.083.054-.163.111-.248.162-.057.034-.116.067-.175.1-.465.246.333-.1,0,.012a6.038,6.038,0,0,1-.65.187l-.116.023c-.214.035-.159.029.167-.018a1.553,1.553,0,0,0-.386.03,3.443,3.443,0,0,0-.776-.018l.294.042c-.076-.012-.152-.025-.227-.04a4.1,4.1,0,0,1-.426-.112c-.2-.065-.34-.225.089.052-.109-.07-.239-.116-.352-.184-.08-.048-.157-.115-.241-.159.473.246.258.208.114.077-.069-.062-.135-.126-.2-.193-.138-.147-.289-.472.023.056-.107-.181-.232-.346-.329-.533-.041-.078-.074-.162-.115-.239.31.58.1.245.042.068a5.041,5.041,0,0,1-.16-.581c-.018-.082-.03-.166-.048-.247-.075-.328.052.6.017.126-.013-.18-.025-.359-.026-.54a2,2,0,0,0-4,0A6.391,6.391,0,0,0,89.5,229.6a6.593,6.593,0,0,0,7.75-1.335,6.677,6.677,0,0,0,1.111-6.6,5.959,5.959,0,0,0-2.5-3.117,6.892,6.892,0,0,0-4.541-.736,5.766,5.766,0,0,0-3.856,2.367,6.386,6.386,0,0,0-1.083,3.681,2,2,0,0,0,4,0Z"/><path class="c" d="M146.069,152.116c-1.041,13.61-4.441,26.907-6.209,40.424-1.034,7.91-1.518,15.9-2.071,23.857q-.852,12.239-1.563,24.486a92.82,92.82,0,0,0-.3,9.507c.3,7.073,1.389,14.159,2.145,21.2,1.5,13.974,2.978,27.946,4.076,41.959.2,2.55,4.2,2.571,4,0-.981-12.524-2.252-25.017-3.6-37.506-.731-6.785-1.5-13.566-2.208-20.353a79.119,79.119,0,0,1-.22-13.023c.938-15.827,1.665-31.733,3.42-47.495,1.607-14.437,5.42-28.549,6.529-43.053.2-2.567-3.8-2.555-4,0Z"/><path class="c" d="M18.963,152.116c1.042,13.678,4.152,27.077,5.9,40.664,1,7.795,1.552,15.655,2.157,23.488q.945,12.222,1.754,24.453a88.163,88.163,0,0,1,.337,9.669c-.3,7-1.374,14.014-2.121,20.98-1.508,14.047-3,28.09-4.1,42.176-.2,2.567,3.8,2.554,4,0,.987-12.593,2.267-25.155,3.62-37.714.723-6.715,1.48-13.428,2.185-20.145a76.131,76.131,0,0,0,.209-13C31.867,226.874,30.935,211,29.16,195.257c-1.628-14.442-5.092-28.636-6.2-43.141-.2-2.551-4.2-2.572-4,0Z"/><path class="c" d="M57.151,131.211q-11.612,4.824-22.77,10.621c-3.643,1.888-7.2,3.979-10.876,5.8-1.636.808-3.451,1.208-5.041,2.123a21.136,21.136,0,0,0-4.429,3.728,23.638,23.638,0,0,0-5.3,8.432,33.116,33.116,0,0,0-1.619,9.142c-.538,8.622-.9,17.257-1.386,25.883-1.006,18-2.077,35.988-3.065,53.985-.491,8.929-.973,17.858-1.39,26.79-.129,2.771-.233,5.541-.329,8.313-.092,2.656-.167,5.483,2.605,6.892a11.185,11.185,0,0,0,3.828.762l5.843.663,11.635,1.319.733.083a2.012,2.012,0,0,0,2-2,2.047,2.047,0,0,0-2-2l-19.4-2.2c-.164-.019-.332-.029-.494-.056-.384-.065.138.112-.147-.056-.855-.5-.685-1.249-.65-2.151.083-2.089.144-4.18.23-6.27.345-8.36.81-16.717,1.261-25.072.935-17.308,1.958-34.611,2.94-51.916q.721-12.736,1.4-25.474c.328-6.283-.005-13.146,3.391-18.722,1.63-2.677,4.181-5.621,7.05-6.977,1.6-.758,3.321-1.21,4.894-2.052,1.744-.933,3.479-1.886,5.225-2.818,6.931-3.7,13.95-7.236,21.134-10.423q2.881-1.28,5.793-2.488a2.066,2.066,0,0,0,1.4-2.46,2.012,2.012,0,0,0-2.46-1.4Z"/><path class="c" d="M143.628,311.538a93.772,93.772,0,0,1-14.808,1.388,144.871,144.871,0,0,1-18.212-.331,45.148,45.148,0,0,1-6.957-1.067,8.11,8.11,0,0,1-4.441-2.411c-4.028-4.07-6.19-10.118-7.995-15.423A162.252,162.252,0,0,1,85.2,269.239a2.017,2.017,0,0,0-2.461-1.4,2.046,2.046,0,0,0-1.4,2.46,168.5,168.5,0,0,0,5.415,22.648c1.982,6.169,4.357,12.618,8.479,17.712a12.946,12.946,0,0,0,5.637,4.219,32.591,32.591,0,0,0,6.786,1.4A123.557,123.557,0,0,0,126.37,317a105.88,105.88,0,0,0,18.321-1.605c2.522-.507,1.454-4.364-1.063-3.857Z"/><path class="c" d="M24.523,315.067a98.848,98.848,0,0,0,16.561,1.548,105.822,105.822,0,0,0,19.245-.889,23.732,23.732,0,0,0,6.782-1.872,15.665,15.665,0,0,0,5.349-4.843c3.7-4.868,6.028-10.8,8.021-16.523a128,128,0,0,0,4.973-18.5c.47-2.516-3.384-3.595-3.857-1.064a128.948,128.948,0,0,1-3.949,15.432,71.245,71.245,0,0,1-7.066,16.359,18.335,18.335,0,0,1-4.224,4.94,11.737,11.737,0,0,1-1.095.665c-.436.238-.121.075-.376.176s-.493.186-.743.269a25.3,25.3,0,0,1-3.211.818,85.385,85.385,0,0,1-17.542,1.087,99.323,99.323,0,0,1-17.8-1.456c-2.513-.506-3.589,3.349-1.063,3.857Z"/><path class="g" d="M83.607,201.792c-4.476-9.664-12.791-29.065-18.859-46.45-3.79-10.859-6.721-20.292-8.132-25-2.536,0-15.576,13.369-17.386,18.069-.118.307,7.166,6.592,9.621,8.8-1.312,1.177-6.437,7-6.517,7.532-.051.338,33.454,42.1,37.355,46.061"/><path class="c" d="M54.688,130.877A558.84,558.84,0,0,0,76.1,189.739c1.87,4.379,3.783,8.741,5.782,13.063a2.016,2.016,0,0,0,2.736.717,2.046,2.046,0,0,0,.718-2.736,528.933,528.933,0,0,1-22.622-57.712q-2.159-6.6-4.167-13.258c-.738-2.459-4.6-1.411-3.857,1.064Z"/><path class="c" d="M47.437,155.795a54.754,54.754,0,0,0-5.866,6.568c-.779.99-1.687,2.1-.957,3.407a5.222,5.222,0,0,0,.393.553c2.2,2.943,4.523,5.794,6.81,8.665Q59.061,189.1,70.509,203.059c2.529,3.072,4.979,6.309,7.766,9.157,1.8,1.843,4.631-.987,2.828-2.828-2.225-2.274-4.195-4.837-6.221-7.285q-5.439-6.573-10.8-13.216c-6.379-7.878-12.76-15.76-18.993-23.755-.368-.472.056.074-.06-.077l-.267-.348c-.138-.181-.278-.36-.411-.544-.063-.086-.149-.275-.238-.331-.021-.013-.029-.072-.05-.08.289.11-.3,1.985.067,1.834.057-.023.139-.238.185-.278a1.68,1.68,0,0,0,.176-.241c-.258.351.137-.171.153-.19.247-.3.495-.607.747-.907q.886-1.056,1.806-2.087a43.294,43.294,0,0,1,3.063-3.26c1.9-1.742-.931-4.565-2.828-2.828Z"/><path class="c" d="M56.616,128.345c-2.133.1-4.086,2-5.6,3.3a78.066,78.066,0,0,0-6.871,6.79,52.3,52.3,0,0,0-5.709,7.2c-.689,1.1-1.643,2.549-.917,3.836a9.652,9.652,0,0,0,1.962,2.065c2.607,2.412,5.313,4.714,7.958,7.082,1.913,1.713,4.751-1.107,2.829-2.828-2.095-1.875-4.222-3.713-6.314-5.59-.917-.821-1.846-1.637-2.716-2.509-.11-.112-.214-.239-.332-.341-.017-.015-.1-.135-.133-.149.388.155.288,1.961.293,1.96a7.628,7.628,0,0,0,.622-1.179c2.761-4.63,6.9-8.726,10.858-12.356a36.687,36.687,0,0,1,2.868-2.425c.368-.265.745-.512,1.135-.741.075-.044.154-.079.229-.122.341-.2-.026.076-.118.04.025.01.143-.055.182-.06.33-.041-.542.036-.224.022,2.564-.115,2.578-4.115,0-4Z"/><path class="g" d="M92.092,209.793c1.392-2.115,2.206-3.36,3.729-5.692,11.472-17.564,26.165-39.022,26.114-39.36-.08-.534-5.2-6.355-6.517-7.532,2.455-2.2,9.739-8.488,9.621-8.8-1.81-4.7-14.85-18.069-17.386-18.069a279.48,279.48,0,0,1-6.454,28.186c-6.15,20.643-13.818,40.825-18.969,51.154-1.712,3.611-3.68,6.5-3.68,13.212"/><path class="c" d="M85.275,269.77C84.009,259.6,82.934,249.4,81.944,239.2c-.379-3.905-.747-7.811-1.073-11.72a41.57,41.57,0,0,1-.207-7.237c.367-4.079,2.335-7.512,4.065-11.129,2-4.179,3.79-8.459,5.51-12.759,4.525-11.309,8.494-22.85,12.047-34.5a255.1,255.1,0,0,0,7.3-30.976,2.058,2.058,0,0,0-1.4-2.46,2.016,2.016,0,0,0-2.46,1.4c-3.684,21.311-10.216,42-18.027,62.136-1.735,4.475-3.547,8.924-5.552,13.287-1.641,3.571-3.781,7.049-4.79,10.87a28.223,28.223,0,0,0-.64,9.441c.262,3.393.577,6.783.9,10.171,1.071,11.365,2.254,22.724,3.664,34.052a2.063,2.063,0,0,0,2,2,2.012,2.012,0,0,0,2-2Z"/><path class="c" d="M114,158.623a44.868,44.868,0,0,1,3.252,3.473c.628.712,1.25,1.43,1.857,2.161.235.284.47.567.7.858s-.231-.338.056.078a2.325,2.325,0,0,0,.218.312c.726.732-.5-1.7.085-1.678a1.725,1.725,0,0,0-.143.249c-.194.278-.362.58-.546.865-.673,1.046-1.363,2.081-2.052,3.117-5.451,8.194-10.97,16.342-16.415,24.54-3.574,5.379-7.1,10.791-10.648,16.186-1.419,2.157,2.044,4.163,3.454,2.019q9.757-14.83,19.607-29.6,3.732-5.562,7.455-11.129c.712-1.07,1.426-2.139,2.12-3.221a2.885,2.885,0,0,0-.3-4.493c-.6-.765-1.232-1.507-1.869-2.243a50.806,50.806,0,0,0-4-4.325c-1.9-1.736-4.732,1.085-2.828,2.828Z"/><path class="c" d="M107.653,132.345c.209.009-.605-.053-.136,0,.221.028-.391-.245.031.021.339.213.689.4,1.019.63a23.181,23.181,0,0,1,2.314,1.87,81.317,81.317,0,0,1,6.221,6.179,50.844,50.844,0,0,1,5,6.182c.263.4.517.8.745,1.223a3.891,3.891,0,0,0,.293.576c.37.451-.927,2.408.128-1.532.034-.124.395-.383.129-.184-.773.58-1.451,1.413-2.169,2.066-2.385,2.166-4.829,4.265-7.229,6.414-1.921,1.72.915,4.541,2.829,2.828,2.334-2.09,4.71-4.133,7.032-6.236a27.359,27.359,0,0,0,2.462-2.352c1.023-1.191.667-2.335-.021-3.6a39.609,39.609,0,0,0-5.219-6.924,84.768,84.768,0,0,0-6.912-7.056c-1.712-1.544-4.043-4-6.521-4.112-2.574-.115-2.568,3.885,0,4Z"/><path class="c" d="M30.908,47.735A14.718,14.718,0,0,1,29.323,44L28.4,46.26c1.263-.834,2.775-1.109,3.95-2.116a1.974,1.974,0,0,0,.514-1.946C32.414,40.6,31.5,39.08,31.26,37.435l-.514,1.946a3,3,0,0,1,.294-.3q.247-.207.035-.03c.086-.061.173-.121.26-.18.379-.242.754-.487,1.136-.723.836-.515,1.956-1.04,2.238-2.064a5.044,5.044,0,0,0-.4-2.756c-.14-.428-.29-.853-.426-1.282-.069-.218-.119-.445-.2-.659-.174-.5-.023.167-.032-.085l-.586,1.414c-.408.377.166-.069.315-.14a2.218,2.218,0,0,1,.386-.163,7.573,7.573,0,0,1,1.336-.39,2.018,2.018,0,0,0,1.4-2.46,2.046,2.046,0,0,0-2.461-1.4c-1.669.294-4.444,1.259-4.375,3.306a8.634,8.634,0,0,0,.6,2.379c.128.385.261.77.374,1.159.051.176.083.372.142.544.138.395,0-.331-.013,0l.586-1.414c.494-.429.074-.064-.066.028-.187.123-.379.239-.57.357-.381.235-.764.466-1.139.711-1.082.706-2.365,1.53-2.224,3,.168,1.74,1.169,3.361,1.643,5.028l.515-1.946c.379-.325-.31.153-.482.24-.339.171-.687.325-1.034.478a10.933,10.933,0,0,0-1.624.773,2.046,2.046,0,0,0-.92,2.258,19.635,19.635,0,0,0,1.989,4.69,2.05,2.05,0,0,0,2.737.717,2.019,2.019,0,0,0,.717-2.736Z"/><path class="c" d="M81.267,5.662a27.683,27.683,0,0,1,2.445-1.407,2.871,2.871,0,0,1,.514-.206c.329-.113.389.032.121-.049q-1-.356-.512-.078c-.17-.14-.16-.129.033.032.224.193.436.4.646.61a10.017,10.017,0,0,0,2.215,1.95c1.114.576,2.3.1,3.389-.285.471-.166.942-.339,1.422-.477.119-.035.238-.067.358-.1.245-.048.218-.051-.08-.007q.75,0-.937-.444-.244-.349-.036-.047a23.8,23.8,0,0,0,1.424,2.471,3.034,3.034,0,0,0,3.146,1.216c.612-.071,1.221-.168,1.831-.254.256-.036.285-.041.089-.013.12-.016.241-.029.362-.04a3.654,3.654,0,0,1,.523-.01l-1.727-.991c.241.559.29.675.562,1.338.226.55.457,1.1.644,1.666.806,2.432,4.67,1.39,3.857-1.063-.447-1.348-1.048-2.657-1.609-3.96a2,2,0,0,0-1.727-.99A8.523,8.523,0,0,0,96.4,4.7c-.745.1-.968.124-1.542.2-.077.01-.234-.025-.3.008.255-.127,1.047.452,1.011.49.08.111.085.116.015.014-.034-.049-.067-.1-.1-.153-.084-.147-.173-.291-.255-.439-.309-.558-.575-1.147-.928-1.68a3.036,3.036,0,0,0-3.73-1.27c-.617.17-1.216.4-1.82.609-.274.095-.559.168-.83.271a2.751,2.751,0,0,1-.3.078c.426-.112.314-.014.12-.04l1.009.273c-.391-.177.057.1-.087-.029-.173-.154-.34-.314-.5-.477-.329-.324-.647-.659-.978-.981A4.268,4.268,0,0,0,84.347,0c-1.848.03-3.58,1.277-5.1,2.208-2.192,1.343-.185,4.8,2.019,3.454Z"/><path class="c" d="M134.342,44.693a13.369,13.369,0,0,1,3.19,1.139l-.92-2.258c-.127.338.234-.481,0,0-.082.172-.158.348-.238.521-.176.377-.357.752-.539,1.126-.3.607-.591,1.217-.913,1.811a2.015,2.015,0,0,0,0,2.019,12.688,12.688,0,0,0,1.38,1.691c.171.19.57.639.617.7.064.088.134.279.219.342l-.065-.167q.411-1.587.1-1.018c.035.03-.135.2-.3.385-.225.251-.461.491-.7.733a12.332,12.332,0,0,0-1.477,1.7c-1.057,1.6.024,2.818,1.174,3.881.513.474,1.039.935,1.554,1.407.208.19.417.379.616.578a1.85,1.85,0,0,0,.2.21c.307.225-.186-.29-.077-.106l-.2-1.541c-.021.058-.2.484-.039.113-.069.159-.143.316-.217.473-.182.387-.373.771-.567,1.153-.3.584-.595,1.174-.937,1.734-1.345,2.2,2.113,4.214,3.454,2.019.466-.762.863-1.572,1.256-2.372.554-1.13,1.4-2.461.646-3.69a10.074,10.074,0,0,0-1.959-1.987c-.378-.341-.759-.679-1.129-1.029-.152-.144-.3-.3-.453-.442-.4-.359,0,.063-.071-.05V55.8a2.584,2.584,0,0,1,.2-.351c-.229.356.1-.1.162-.169.3-.333.619-.649.929-.973a6.308,6.308,0,0,0,1.675-2.337,3.43,3.43,0,0,0-.989-3.122c-.28-.353-.579-.687-.88-1.022q-.239-.264-.475-.529c-.071-.08-.14-.161-.207-.244q.178.234.01-.016v2.019a35.609,35.609,0,0,0,2.092-4.415,2.008,2.008,0,0,0-.92-2.259,17.543,17.543,0,0,0-4.145-1.542c-2.5-.591-3.571,3.265-1.063,3.857Z"/><path class="c" d="M18.686,140.6a4.074,4.074,0,0,1,1.119-1.755l-1.414.586c.059-.006.59.007.327-.017s.3.066.373.081c.429.095.851.216,1.275.327,1.088.284,2.24.56,3.156-.323,1.13-1.089,1.418-2.724,2.3-3.976l-1.727.99c1.676-.147,3.917,1.038,5.334-.279a5.938,5.938,0,0,0,1.237-2.178c.167-.4.322-.812.495-1.213-.177.41.029-.054.058-.108a3.358,3.358,0,0,1,.227-.388l-.718.718q-.4.157-.169.1c.106-.021.094-.021-.035,0-.163.022-.141.025.068.009l.181,0c.311,0,.624.023.933.054.117.012.233.027.35.041-.467-.057-.127-.018-.023,0,.121.022.243.04.364.063a2.055,2.055,0,0,0,2.46-1.4,2.017,2.017,0,0,0-1.4-2.46c-1.5-.277-3.634-.707-4.953.293a5.5,5.5,0,0,0-1.377,2.437c-.084.205-.165.411-.25.616.128-.311-.039.09-.082.182-.064.138-.143.271-.2.409-.2.462.1-.076.007-.006l1.414-.586c-1.538.163-3.5-.87-4.929-.033a4.979,4.979,0,0,0-1.551,2.32c-.172.359-.342.718-.531,1.068-.082.151-.181.3-.259.449-.181.354.281-.231-.083.079l1.414-.586c-.346,0,.509.137.044.014-.107-.028-.217-.047-.325-.073-.349-.084-.7-.183-1.043-.273a8.461,8.461,0,0,0-2.229-.365c-1.918.036-3.22,2.5-3.689,4.118-.718,2.477,3.141,3.535,3.857,1.063Z"/><path class="c" d="M156.065,143.084c-.44.186.267-.047.436-.087.134-.031.269-.056.4-.084.052-.011.5-.085.2-.043a6.958,6.958,0,0,1,.776-.064,2.305,2.305,0,0,0,.4,0c.219-.05-.41-.09-.149,0l-1.2-.919c.014.019.176.234.155.259q-.171-.422-.045-.094.04.115.078.231c.117.356.214.72.31,1.082.195.74.352,1.5.588,2.223a2.521,2.521,0,0,0,1.039,1.535,5.781,5.781,0,0,0,1.666.488c.5.111,1.006.214,1.5.345a4.585,4.585,0,0,1,1.247.462l-.92-1.195a9.688,9.688,0,0,1,.426,2.442,8.278,8.278,0,0,0,.14,1.429,2.37,2.37,0,0,0,1.206,1.373c.62.363,1.278.664,1.914,1,.339.177.677.356,1.006.551a4.947,4.947,0,0,0,.469.3c.157.069-.3-.3-.014.02l-.585-1.414a12.1,12.1,0,0,1-.434,3.684,2.044,2.044,0,0,0,1.4,2.46,2.021,2.021,0,0,0,2.46-1.4,25.982,25.982,0,0,0,.53-3.244c.115-1.137.162-2.3-.768-3.132-1.232-1.1-2.884-1.557-4.243-2.455l.99,1.727c-.053-.711-.107-1.42-.2-2.127a6.117,6.117,0,0,0-.8-2.957,5.17,5.17,0,0,0-2.764-1.38c-.891-.235-1.8-.39-2.692-.631l1.4,1.4c-.614-1.569-.645-3.418-1.532-4.882-1.226-2.025-4.667-1.094-6.417-.351a2.012,2.012,0,0,0-.718,2.736,2.056,2.056,0,0,0,2.737.718Z"/><path class="c" d="M9.1,144.656a13.494,13.494,0,0,0-2.556.536,4.138,4.138,0,0,0-2.425,1.53,5.406,5.406,0,0,0-.214,3.22c.053.459.1.923.179,1.378a2.012,2.012,0,0,0,.919,1.2,2.046,2.046,0,0,0,1.542.2,2.02,2.02,0,0,0,1.2-.919l.2-.478a2,2,0,0,0,0-1.063c-.007-.046-.012-.092-.018-.137l.071.532c-.06-.449-.114-.9-.156-1.35a6.345,6.345,0,0,1-.045-1.4l-.072.531a.733.733,0,0,1,.029-.123l-.2.477a.176.176,0,0,1,.024-.042l-.313.4a.849.849,0,0,1,.1-.1l-.405.313a2.826,2.826,0,0,1,.6-.32l-.478.2a10.145,10.145,0,0,1,2.494-.653l-.532.072.059-.008a1.516,1.516,0,0,0,.771-.172,1.5,1.5,0,0,0,.643-.414,2,2,0,0,0,0-2.828,1.92,1.92,0,0,0-1.414-.586Z"/></svg>