<?xml version="1.0" encoding="utf-8"?>
<!-- Uploaded to: SVG Repo, www.svgrepo.com, Generator: SVG Repo Mixer Tools -->
<svg width="800px" height="800px" viewBox="0 -57.42 326.391 326.391" xmlns="http://www.w3.org/2000/svg"><defs><style>.a{fill:#e2e2e2;}.b{fill:#211715;}.c{fill:#7cc67a;}.d{fill:#b6dfb5;}.e{fill:#ffffff;}.f{fill:#a0a0a0;}</style></defs><path class="a" d="M125.965,2.655c-15.336,0-85.916-.129-112.591-.2A10.18,10.18,0,0,0,3.141,12.593c0,25.441-.742,163.134-.742,185.727a10.216,10.216,0,0,0,10.2,10.23c49.326.071,255.05.5,302.372.6a8.558,8.558,0,0,0,8.576-8.553c.036-27.671.287-162.674.456-187.058A10.217,10.217,0,0,0,313.813,3.252C274.739,3.12,137.053,2.655,125.965,2.655Z"/><path class="b" d="M125.965.255Q99.943.255,73.922.181,56.992.151,40.063.115C31.172.1,22.264-.087,13.374.052A12.737,12.737,0,0,0,.826,11.283a62.913,62.913,0,0,0-.092,6.95Q.713,27.8.672,37.366q-.105,27.8-.24,55.605Q.3,122.992.16,153.015.069,173.873,0,194.732C0,197.958-.1,201.09,1.388,204.079a12.665,12.665,0,0,0,6.79,6.057,16.655,16.655,0,0,0,6.092.817q8.39.012,16.778.027,24.548.043,49.1.092,30.811.06,61.623.123,32.383.065,64.768.132l58.569.121,42.581.088c2.329,0,4.658.028,6.987.015a11.153,11.153,0,0,0,11.273-11.085c.1-5.378.016-10.766.025-16.144q.045-26.595.1-53.191.063-30.964.139-61.929.06-23.742.148-47.485.015-3.4.035-6.8c.031-5.154-1.831-10.02-6.627-12.556-3.59-1.9-7.673-1.516-11.6-1.53L298.105.8,242.828.614q-30.929-.1-61.857-.2Q158.26.34,135.549.275q-4.792-.012-9.584-.02c-3.089,0-3.094,4.8,0,4.8,9.723,0,19.446.048,29.17.077q27.8.084,55.589.176,30.4.1,60.8.2l25.228.085,10.187.034,4.39.015a14.619,14.619,0,0,1,5.247.512,7.913,7.913,0,0,1,4.85,5.643,16.61,16.61,0,0,1,.166,3.811q-.021,3.452-.034,6.9-.045,10.341-.073,20.684-.087,28.448-.145,56.9-.067,29.885-.122,59.771-.038,20.028-.068,40.057a6.615,6.615,0,0,1-2.422,5.589c-1.587,1.216-3.394,1.244-5.285,1.24l-7.108-.015-18.916-.039-51.45-.107-61.91-.127-63.8-.129q-27.9-.055-55.791-.108-19.634-.036-39.268-.069a20.744,20.744,0,0,1-4.12-.15,7.937,7.937,0,0,1-5.637-4.538c-.981-2.262-.634-5.077-.629-7.5q.018-8.622.056-17.246.1-26.75.233-53.5.136-29.886.271-59.772.1-22.338.168-44.674c0-2.019-.023-4.039.008-6.058A7.866,7.866,0,0,1,8.791,6.3c2.021-1.443,4.231-1.452,6.6-1.446q13.6.036,27.2.063,32.193.067,64.385.116,9.493.014,18.988.019C129.053,5.056,129.058.256,125.965.255Z"/><path class="c" d="M115.776,35.4c-19.9-.024-59.716-.128-83.61-.194a11.994,11.994,0,0,0-12.029,11.91c-.171,23.7-.548,49.248-.548,59.416,0,15.639-.135,45-.179,73.215a11.992,11.992,0,0,0,11.976,12.016c31.277.047,105.539.222,175.188.374a12,12,0,0,0,10.293-18.21c-22.185-36.785-70.07-99.52-90.929-132.875A12,12,0,0,0,115.776,35.4Z"/><path class="d" d="M75.208,140.942A21,21,0,0,0,58.9,142.01a19.589,19.589,0,0,0-9.338,10.762c-3.221,8.61-.07,19.776,8.156,24.349a23.275,23.275,0,0,0,17.124,1.7c4.463-1.222,2.569-8.17-1.914-6.943a17.92,17.92,0,0,1-6.509.53c-.219-.019-.439-.041-.658-.067-.624-.072.832.183-.163-.035-.41-.089-.823-.159-1.231-.261s-.79-.211-1.178-.338c-.19-.062-.377-.137-.568-.2-.906-.286.61.323-.233-.088a17.041,17.041,0,0,1-2.013-1.118c-.157-.1-.309-.217-.465-.324.6.411.192.161.059.046-.354-.308-.706-.613-1.036-.947-.264-.268-.505-.553-.756-.832-.607-.672.278.41-.044-.052-.108-.156-.219-.31-.324-.468q-.316-.478-.6-.981c-.117-.211-.23-.426-.337-.643-.042-.086-.379-.832-.184-.375.185.431-.058-.158-.1-.263-.067-.19-.136-.38-.2-.571q-.217-.66-.381-1.336c-.1-.414-.172-.831-.258-1.246-.028-.135-.1-.7-.014-.013-.042-.331-.073-.665-.1-1a20.514,20.514,0,0,1-.035-2.716c.011-.188.168-1.427.044-.662.086-.53.19-1.055.324-1.574.105-.411.227-.819.364-1.22.068-.2.144-.4.216-.6.34-.945-.2.391.069-.155a19.143,19.143,0,0,1,1.409-2.44c.056-.083.453-.605.184-.263s.146-.167.212-.242c.313-.352.627-.7.965-1.026.3-.292.618-.564.936-.838.1-.089.545-.388.02-.017.259-.184.518-.366.786-.537.405-.259.823-.5,1.25-.719.191-.1.386-.191.581-.285.233-.1.2-.093-.113.038q.228-.093.46-.177a18.763,18.763,0,0,1,3.095-.81c-.621.1-.037,0,.083-.006.356-.03.71-.06,1.067-.074.7-.028,1.39,0,2.085.036a14.8,14.8,0,0,1,3.643.862,3.635,3.635,0,0,0,4.429-2.514,3.673,3.673,0,0,0-2.515-4.429Z"/><path class="d" d="M35.169,143.417c0,9.254.065,18.507.1,27.761q.009,2.434.014,4.869a3.6,3.6,0,0,0,7.2,0c0-9.349-.064-18.7-.1-28.048-.005-1.528-.013-3.055-.014-4.582a3.6,3.6,0,0,0-7.2,0Z"/><path class="e" d="M265.15,60.262c-9.855,0-16.426-6.441-16.426-16.631A16.107,16.107,0,0,1,265.15,27.305c3.743,0,15.327.077,17.987.077,11.665,0,18.134,6.939,18.134,16.249,0,10.382-5.965,16.622-17,16.622C281.876,60.253,268,60.262,265.15,60.262Z"/><path class="f" d="M25.065,22.966c2.035,1.3,4.683,2.96,6.869,4.315a2.088,2.088,0,0,0,3.188-1.78v-8.21a2.088,2.088,0,0,0-3.109-1.823c-2.191,1.228-4.758,2.7-6.87,3.939A2.086,2.086,0,0,0,25.065,22.966Z"/></svg>