<?xml version="1.0" encoding="utf-8"?>
<!-- Uploaded to: SVG Repo, www.svgrepo.com, Generator: SVG Repo Mixer Tools -->
<svg width="800px" height="800px" viewBox="0 -16.33 401.838 401.838" xmlns="http://www.w3.org/2000/svg"><defs><style>.a{fill:#ffffff;}.b{fill:#211715;}.c{fill:#b5886a;}.d{fill:#afddec;}.e{fill:#b3b3b3;}.f{fill:#d9d9d9;}.g{fill:#f4b467;}.h{fill:#5394cf;}</style></defs><path class="a" d="M210.318,51.992c-.147-5.113-1.776-26.786-33.922-26.786-36.444,0-31.225,27.858-31.225,27.858a4.859,4.859,0,0,0-3.884-1.137,4.586,4.586,0,0,0-3.3,2.191,6.481,6.481,0,0,0-.678,2.607,19.41,19.41,0,0,0,1.98,10.294,12.335,12.335,0,0,0,3.191,4.189,8.185,8.185,0,0,0,3.806,1.715l1.242.191A33,33,0,0,0,153.824,85.4a29.974,29.974,0,0,0,7.574,6.635c-.114,1.5-.305,2.857-.564,4.351-.386,2.171-.263,4.1-3.272,5.188-.115.041-3.338,1.545-6.157,2.836,0,0-.565,16.131,26.991,16.131s26.294-15.514,26.294-15.514c-2.574-1.217-7.177-3.4-7.325-3.453-3-1.085-2.886-3.017-3.264-5.188-.231-1.319-.412-2.655-.526-3.988,7.339-4.147,13.072-13.817,14.134-16.7.172-.523.523-1.507.835-2.675l.651-.1A8.185,8.185,0,0,0,213,71.208a12.335,12.335,0,0,0,3.191-4.189,19.41,19.41,0,0,0,1.98-10.294,6.481,6.481,0,0,0-.678-2.607,4.586,4.586,0,0,0-3.3-2.191,4.856,4.856,0,0,0-3.883,1.137S210.337,52.676,210.318,51.992Z"/><path class="a" d="M114.644,166.682c-.179,2.279-.364,4.557-.593,6.78-.622,6.028-.431,9.47,4.866,13.292,4.581,3.306,9.249,6.553,14.022,9.655,3.376,2.194,5.484,3.272,9.229,5.315,5.836-2.576,12.42-2.9,18.888-2.128v-3.268a16.751,16.751,0,0,1-2.841-1.42c-5.676-3.454-12.146-10.529-14.279-12.474-.973-.887-1.91-1.7-2.837-2.486-.847-4.95-1.948-10.476-2.9-16.031-5.4-1.023-16.081-3.407-22.921-4.931l-.013.161C115.031,161.611,114.842,164.147,114.644,166.682Z"/><path class="a" d="M217.809,163.576c7.38-1.49,21.71-4.959,25.64-5.8-.761-4.633-6.207-22.47-7.331-26.848-.493-1.3-.967-2.62-1.5-3.912l-1.052-1.739c-2.667-4.41-6.939-7.587-11.25-10.411a124.155,124.155,0,0,0-21.338-11.685,25.734,25.734,0,0,0-5.793-8.435,49.333,49.333,0,0,1-14.235,9.921c-.295.134-.623.3-.718.606h-4.857c-.095-.309-.609-.554-.9-.694a51.831,51.831,0,0,1-14.053-9.833,25.093,25.093,0,0,0-5.408,7.6,122.028,122.028,0,0,0-23.376,12.521c-4.311,2.824-8.583,6-11.25,10.411l-1.052,1.739c-.533,1.292-2.558,6.1-3.051,7.4-1.766,5.615-5.7,17.318-6.395,23.376,4.11.88,21.02,4.739,28.3,6.119Z"/><path class="b" d="M111.889,157.8a78.3,78.3,0,0,1,3.193-12.9c1.17-3.876,2.258-7.849,3.793-11.6.721-1.762,1.375-3.59,2.2-5.305a21.309,21.309,0,0,1,3.544-5c3.862-4.139,8.94-7.106,13.73-10.036a114.676,114.676,0,0,1,17.213-8.7,2.064,2.064,0,0,0,1.4-2.461,2.015,2.015,0,0,0-2.46-1.4,118.2,118.2,0,0,0-16.217,7.931c-5.144,3.038-10.494,6.207-14.908,10.267a28,28,0,0,0-5.014,6.155,39.767,39.767,0,0,0-2.5,5.422c-1.575,3.792-2.8,7.669-4.01,11.591-1.623,5.234-3.316,10.565-3.968,16.025a2.012,2.012,0,0,0,2,2,2.048,2.048,0,0,0,2-2Z"/><path class="b" d="M245.378,157.247a101.98,101.98,0,0,0-2.684-10.542c-1.194-4.245-2.439-8.474-3.651-12.714-.426-1.49-.779-3.012-1.323-4.463a26.41,26.41,0,0,0-1.974-4.511,31.405,31.405,0,0,0-2.143-3.154c-3.91-4.987-9.6-8.384-14.907-11.686a122.762,122.762,0,0,0-19.243-9.768,2.016,2.016,0,0,0-2.461,1.4,2.05,2.05,0,0,0,1.4,2.461,113.075,113.075,0,0,1,16.324,8.16c5.143,3.1,10.656,6.266,14.757,10.724a20.269,20.269,0,0,1,4.067,6.568c.595,1.578,1.031,3.165,1.492,4.785,1.146,4.03,2.33,8.049,3.473,12.08a111.785,111.785,0,0,1,3.019,11.726,2.015,2.015,0,0,0,2.46,1.4,2.046,2.046,0,0,0,1.4-2.46Z"/><path class="c" d="M153.2,93.009a14.639,14.639,0,0,0,5.182-3.079,32.261,32.261,0,0,1-10.855-16.816l-1.241-.191a8.185,8.185,0,0,1-3.806-1.715,10.707,10.707,0,0,1-2.01-2.183c-3.055.522-3.852,3.822-4.028,6.606a26.737,26.737,0,0,0,.763,9.093,14.352,14.352,0,0,0,4.921,7.549C144.474,94.039,148.983,94.476,153.2,93.009Z"/><path class="c" d="M214.421,27.626C209.926,12.659,194.1,1.18,177.535,2.07,160.052,1.131,143.38,13.978,140,30.163a45.872,45.872,0,0,0,.008,15.457l1.694,6.274a4.665,4.665,0,0,1,3.972,1.724c7.935-4.969,42.258-16.764,47.833-23.5,1.135,4.011,3.02,9.438,4.4,11.809,1.875,3.211,7.161,10.269,11.794,11.847a4.66,4.66,0,0,1,4.489-1.85,4.124,4.124,0,0,1,.6.136c2.736-6.2,1.356-16.675.264-21.9Q214.8,28.879,214.421,27.626Z"/><path class="b" d="M152.414,106.136q2.487-1.138,4.968-2.292c.384-.177.778-.34,1.155-.53-1.119.562.313-.118.41-.161.168-.074.337-.149.5-.236a5.917,5.917,0,0,0,3.132-4.825c.315-1.992.652-3.978.815-5.99a2.008,2.008,0,0,0-2-2,2.051,2.051,0,0,0-2,2c-.142,1.745-.383,3.065-.662,4.859-.022.144-.4,1.642-.382,1.658.124-.281.142-.323.052-.127-.036.076-.076.152-.118.226-.065.113-.142.216-.211.326.266-.418.063-.1-.041.005-.068.068-.139.132-.212.194.19-.14.224-.168.1-.082-.169.072-.33.214-.494.3-.065.034-.534.25-.206.109-.264.114-.536.213-.8.331-.423.189-.842.387-1.262.581q-2.382,1.1-4.766,2.2a2.008,2.008,0,0,0-.717,2.736,2.057,2.057,0,0,0,2.736.718Z"/><path class="b" d="M191.575,92.406a53.1,53.1,0,0,0,.916,6.449,5.957,5.957,0,0,0,3.393,4.256,6.244,6.244,0,0,0,.949.39c.145.039-.638-.287-.355-.148.17.084.344.159.516.239q.95.444,1.9.893,2.4,1.132,4.79,2.268a2.045,2.045,0,0,0,2.736-.718,2.024,2.024,0,0,0-.717-2.736c-2.5-1.185-4.983-2.465-7.535-3.542-.139-.059-.322-.125-.463-.186.312.135-.311-.169-.37-.2s-.533-.39-.33-.209-.189-.205-.227-.241c-.142-.166-.123-.138.056.086-.051-.072-.1-.146-.145-.222s-.086-.151-.126-.229c-.092-.2-.077-.155.044.121a7.292,7.292,0,0,1-.255-.882,42.781,42.781,0,0,1-.773-5.386,2.044,2.044,0,0,0-2-2,2.022,2.022,0,0,0-2,2Z"/><path class="a" d="M342.8,211.957l17.09,0c3.54,0,7.133,1.462,9.03,4.451a307.684,307.684,0,0,1,20.362,38.6c3.17,7.429,1.714,19.9,1.714,27.646,0,19.337-.147,59.2-.163,80.241a4.145,4.145,0,0,1-4.148,4.143c-66.6.011-330.473.141-380.425.112a4.136,4.136,0,0,1-4.139-4.151c.051-24.582.451-69.389.451-86.272,0-5.443-.518-13.049,2.593-20.5A294.768,294.768,0,0,1,25.241,218c2.028-3.26,5.951-4.829,9.791-4.832,37-.027,66.411-.241,89.05-.241Z"/><path class="d" d="M355.876,229.171c2.319,4.535,7.564,14.449,9.991,19.471,1.16,2.4.525,4.484-2.14,4.484l-335.056-.277c-2.358,0-2.5-1.072-1.444-3.181,2.284-4.561,8.969-17.289,11.315-21.949Z"/><path class="a" d="M304.915,130.91c-22.233-18.527-31.831-10.2-31.831-10.2a51.678,51.678,0,0,0-4.453,10.213,45.284,45.284,0,0,0-2.013,9.7c-1.079,6.015-2.559,14.367-8.533,16.536a5.673,5.673,0,0,0-2.947,2.194c-1.771,2.813.615,4.547,1.965,6.52a9.3,9.3,0,0,1,1.516,4.235c-.313,3.295-.469,10.777,1.027,15.018a11.669,11.669,0,0,0,5.48,6.8c4.326,2.354,10.5,3.888,14.713,3.4.605-.07,1.344-.1,2.219-.21l-.554.454c-1.222,1-4.666,5.111-6.705,5.515a229.781,229.781,0,0,0-33.887-3l-26.222-.74-25.926,1.333c-4.677.528-14.76,2.532-18.385,2.694-10.792-2.743-23.19-3.851-32.613,2.838-4.31,3.059-8.2,9.988-6.262,14.3a3.8,3.8,0,0,0,3.1,4.251c2.6.607,4.032-1.583,5.78-3a26.8,26.8,0,0,1,5.732-3.507c-.03.757-.052,1.31-.052,1.31a3.766,3.766,0,0,0,3.167,3.666,37.124,37.124,0,0,0,10.891.7c4.9-.73,7.4-3.529,11.715-5.441,1.608-.724,9.569-1.77,13.107-2.011l57.512,5.648c3.126.339,6.43.335,9.521.85,3.4.567,6.085,2.635,9.286,3.794a6.6,6.6,0,0,0,.727.135,37.86,37.86,0,0,0-1.519,7.772l-.075.676c5.8-.194,12.816-.165,12.816,3.768,0,3.778-3.815,2.3-3.815,5.889,0,5.291,54.135.8,75.424-1.088l-.014-.429c-.3-8.562-.41-18.149-6.277-24.462-4.445-4.783-13.05-11.454-18.522-13.763a17.894,17.894,0,0,1,4.765-10.461s9.726-10.246,5.034-23.087C324.174,154.317,315.581,139.8,304.915,130.91Z"/><path class="e" d="M322.041,104.06c-9.784-3.316-20.894-3.869-29.336-.091-8.039,3.6-14.9,8.351-19.923,17.268l.807,2.017c1.834,5.176,9.807,11.345,14.7,12.823l2.136.6c3.284,7.123,9.328,14.145,16.862,20.49a6.658,6.658,0,0,1,2.433-.834,6.2,6.2,0,0,1,4.663,1.2,6.587,6.587,0,0,1,2.073,6.406,16.278,16.278,0,0,1-4.38,8.426c.394,2.631.891,5.919.891,5.919.918,5.3,5.414,10.676,11.8,14.525a46.233,46.233,0,0,1,4.525-4.273c3.729-3.473,6.157-4.976,10.751-8.741,5.051-4.139,9.632-12.532,11.015-19.4,3.9-13.267,2.491-28.425-7-37.943C341.6,114.423,332.592,107.635,322.041,104.06Z"/><path class="b" d="M346.838,213.957h10.721c3.357,0,6.882-.463,9.1,2.619a112.328,112.328,0,0,1,5.967,9.89q3.381,5.905,6.514,11.947c2.1,4.038,4.123,8.116,6.031,12.247,1.655,3.584,3.231,7.049,3.756,11,1.026,7.716.077,15.625.073,23.378q-.014,22.926-.1,45.852-.029,11.578-.053,23.157,0,2.5-.008,5c0,1.753.173,3.478-1.179,4.827-1.581,1.579-4.054,1.174-6.1,1.174q-26.389.006-52.781.017l-73.1.028-81.609.031q-38.883.015-77.765.026-30.808.009-61.616.013-10.538,0-21.075,0c-3.5,0-9.206.949-9.481-4.008-.4-7.168.058-14.491.1-21.67q.138-23.661.294-47.322c.031-5.854.1-11.71.037-17.564A52.779,52.779,0,0,1,5.7,260.955c1.147-4.5,3.356-8.785,5.357-12.962,4.062-8.48,8.559-16.762,13.381-24.833,2.115-3.54,3.907-7.784,8.592-7.987,5.254-.227,10.567-.009,15.827-.02q25.344-.051,50.686-.18,9.942-.036,19.884-.042c2.574,0,2.578-4,0-4-15.226,0-30.452.087-45.679.146q-14.218.055-28.436.083l-7.71.01c-2.43,0-5.045-.269-7.412.39-4.382,1.22-6.4,4.92-8.587,8.551-4.95,8.205-9.551,16.638-13.715,25.269A94.1,94.1,0,0,0,2.236,258.5,48.537,48.537,0,0,0,.545,272.875C.6,286.6.477,300.324.388,314.049q-.083,12.716-.16,25.432-.035,5.976-.062,11.952c-.017,3.51-.394,7.258.048,10.742A8.011,8.011,0,0,0,7.352,369.1c1.419.14,2.882.055,4.308.056h9.445q28.224,0,56.45-.008,38.382-.009,76.765-.024l83.932-.031,77.952-.031q29.41-.01,58.822-.019c3.415,0,6.923.231,10.328-.025a8.053,8.053,0,0,0,7.4-6.951c.445-3.424.1-7.1.1-10.548q.05-25.052.121-50.1c.014-6.732-.081-13.474.04-20.2.146-8.175,1.29-16.9-1.126-24.859-1.216-4.01-3.3-7.875-5.119-11.64q-3.077-6.372-6.439-12.6-3.187-5.927-6.617-11.721c-1.876-3.152-3.669-7.136-6.94-9.061-2.879-1.695-6.183-1.373-9.387-1.374H346.838c-2.574,0-2.578,4,0,4Z"/><path class="b" d="M109.358,159.725c9.435,2.025,18.818,4.315,28.3,6.12,2.515.479,3.593-3.375,1.063-3.857-9.481-1.805-18.865-4.095-28.3-6.12-2.51-.539-3.583,3.316-1.063,3.857Z"/><path class="b" d="M206.55,220.934c-.077.039.44-.12-.09.015-.191.048-.379.115-.568.169-.574.164-1.153.31-1.732.453-1.081.267-2.166.524-3.259.738a77.52,77.52,0,0,1-10.608,1.057,38.471,38.471,0,0,1-5.2.114A13.294,13.294,0,0,1,180.416,222a90.551,90.551,0,0,1-8.569-5.34c-2.173-1.394-4.181,2.066-2.019,3.454,3.051,1.957,5.964,4.165,9.277,5.677a17.767,17.767,0,0,0,5.633,1.658,36.544,36.544,0,0,0,5.555-.082,85.647,85.647,0,0,0,11.672-1.2,25.555,25.555,0,0,0,6.6-1.779c2.291-1.176.27-4.629-2.019-3.454Z"/><path class="b" d="M195.345,215.783c-2.154-.242-4.326-.31-6.484-.521a2,2,0,0,0-1.414.586,2,2,0,0,0,0,2.828,2.266,2.266,0,0,0,1.414.586c2.158.211,4.33.279,6.484.521a2,2,0,0,0,1.415-.586,2,2,0,0,0,0-2.828,2.305,2.305,0,0,0-1.415-.586Z"/><path class="f" d="M25.5,275.142q8.254.006,16.508,0l26.952,0,34.757-.007,40.412-.012,43.454-.013,43.833-.015,42.142-.015,37.783-.012q15.477-.006,30.954-.009l21.581,0H367.5c2.574,0,2.579-4,0-4q-9.521,0-19.041,0l-28.937.008-36.188.012-41.3.014-43.8.015-43.627.014q-20.693.006-41.387.012l-36.48.009q-14.55,0-29.1,0-9.6,0-19.191,0l-2.952,0c-2.573,0-2.577,4,0,4Z"/><path class="b" d="M319.162,205.076c5.382,2.371,10.268,6.206,14.611,10.119a25.3,25.3,0,0,1,5.715,6.637,26.509,26.509,0,0,1,2.618,8.827,102.457,102.457,0,0,1,.7,10.839c.088,2.566,4.088,2.578,4,0-.237-6.866-.355-13.981-3.211-20.359-2.652-5.921-8.366-10.259-13.449-14.024a47.5,47.5,0,0,0-8.962-5.493,2.065,2.065,0,0,0-2.737.717,2.015,2.015,0,0,0,.718,2.737Z"/><path class="g" d="M217.137,179.5a30.305,30.305,0,0,1-7.79,10.1c-1.68,1.12-7.524,2.632-9.412,3.943-4.894-.1-9.5,1.034-10.535,6.241-3.088.234-13.424,1.343-19.07,1.59a75.464,75.464,0,0,0-7.595-1.556c-.928-1.929-1.679-3.494-1.679-3.494a16.751,16.751,0,0,1-2.841-1.42c-5.676-3.454-12.146-10.529-14.279-12.474-.973-.887-1.91-1.7-2.837-2.486-1.559-9.114-3.981-20.18-4.777-29.779-.356-4.284.373-8.259.373-11.589s-1.081-24.685-.511-28.965c2.558-2.274,9.883-6.676,12.475-7.277.6,2.411,2.024,20.617,2.869,25.3,2.759.864,46.905.342,52.484-.576.67-3.954,1.64-20.33,2.625-24.183a35.8,35.8,0,0,1,12.228,6.782c.456,4.373-.781,24.9-.781,28.244,0,3.379.8,9.957.608,14.93-.394,10.32-2.074,20-4.592,30.815"/><path class="b" d="M328.219,219.281c-9.195-.3-16.6,7.245-20,15.132a2.068,2.068,0,0,0,.717,2.737,2.015,2.015,0,0,0,2.737-.718,24.088,24.088,0,0,1,7.87-10.317,19.252,19.252,0,0,1,2.395-1.414,12.137,12.137,0,0,1,2.1-.832,10.394,10.394,0,0,1,4.175-.588c2.575.083,2.572-3.917,0-4Z"/><path class="b" d="M255.727,235.5c4.264-.014,8.758-.713,12.964.176a6.353,6.353,0,0,1,2.006.694c-.032-.018.521.439.339.25.036.038.32.549.1.137a2.584,2.584,0,0,1,.09.343c-.024-.2-.031-.219-.023-.067a1.624,1.624,0,0,1-.166.88,1.818,1.818,0,0,1-.488.352,6.71,6.71,0,0,0-2.321,1.878c-1.786,2.565-.632,5.081,2,6.049a23.962,23.962,0,0,0,6.432,1.056,189.1,189.1,0,0,0,22.168-.069c8.914-.379,17.819-.974,26.715-1.65,7.769-.591,15.531-1.259,23.291-1.955a2.054,2.054,0,0,0,2-2,2.015,2.015,0,0,0-2-2c-15.622,1.4-31.261,2.709-46.929,3.465-7.734.373-15.52.71-23.26.33-1.308-.064-2.616-.152-3.917-.3l-.443-.053c-.5-.06.453.069-.032,0-.262-.04-.525-.079-.787-.125-.456-.08-.911-.172-1.358-.292-.332-.09-.65-.206-.974-.319.728.254.132.094,0-.029-.435-.4.247.268,0,.024-.212-.209.3.579.195.351.305.687-.106.462.07.085.042-.09.125-.38.049-.2.159-.382-.094.026.193-.232-.234.211.206-.136.234-.153a7.05,7.05,0,0,0,2.613-2.192,5.423,5.423,0,0,0,.592-3.9c-.494-2.155-2.406-3.382-4.4-3.985-4.768-1.441-10.065-.568-14.955-.552-2.574.008-2.579,4.008,0,4Z"/><path class="b" d="M188.764,196.682c-3.3.38-6.584.971-9.864,1.514-1.656.274-3.314.546-4.975.788-.86.126-.952.142-1.812.241-.575.065-1.15.122-1.728.15a2.043,2.043,0,0,0-2,2,2.019,2.019,0,0,0,2,2,80.9,80.9,0,0,0,9.07-1.238c1.716-.283,3.43-.572,5.146-.848.8-.128,1.595-.254,2.394-.371q.512-.077,1.025-.147c-.4.055.195-.024.222-.027.174-.022.348-.042.522-.062a2.061,2.061,0,0,0,2-2,2.013,2.013,0,0,0-2-2Z"/><path class="b" d="M240.912,200.089c8.453.246,16.905.678,25.3,1.724q3.063.381,6.11.877a7.768,7.768,0,0,0,3.2.278,6.235,6.235,0,0,0,1.741-.848c2.146-1.438,3.708-3.482,5.658-5.135,1.966-1.667-.875-4.484-2.829-2.828-1,.848-1.872,1.852-2.817,2.761a8.593,8.593,0,0,1-3.005,2.239h1.063a246.639,246.639,0,0,0-34.419-3.068c-2.575-.075-2.573,3.925,0,4Z"/><path class="b" d="M242.452,222.131c3.273.342,6.724.163,9.928.977,2.944.747,5.5,2.579,8.347,3.595a2.019,2.019,0,0,0,2.46-1.4,2.04,2.04,0,0,0-1.4-2.461c-2.957-1.054-5.56-2.972-8.656-3.67-3.485-.786-7.143-.675-10.682-1.045a2.014,2.014,0,0,0-2,2,2.045,2.045,0,0,0,2,2Z"/><path class="b" d="M354.149,230.181c2.729,5.327,5.54,10.612,8.243,15.953.539,1.064,1.105,2.124,1.6,3.211.129.285.645,1.231.419,1.586-.145.227-.333.153-.685.195-.065.008-.133,0-.2,0-1.378.069-2.776,0-4.155,0l-22.279-.019-37.244-.031-47.122-.039-52.3-.043-52.68-.044-48.264-.04-39.155-.032-24.936-.021-5.778-.005a5.689,5.689,0,0,0-.923,0c-.244.042-1.7-.251-.13.559.246.127-.385.625.111-.068a5.3,5.3,0,0,0,.335-.772c.217-.465.463-.918.7-1.375,1.2-2.349,2.412-4.689,3.625-7.029,2.321-4.474,4.669-8.935,6.938-13.436,1.157-2.292-2.293-4.32-3.453-2.018-2.437,4.832-4.962,9.62-7.452,14.424-1.156,2.232-2.314,4.462-3.45,6.705-1.042,2.059-2.357,5.054.316,6.509,1.32.718,3.358.5,4.855.5l20.1.016,35.99.03,47.229.039,53.165.044,53.649.045,49.707.041,40.3.033,25.67.022,5.922,0c.3,0,.6.012.893,0,2.2-.085,4.188-1.171,4.616-3.479.51-2.751-1.5-5.582-2.687-7.93-2.641-5.205-5.38-10.36-8.041-15.555-1.173-2.292-4.626-.271-3.454,2.019Z"/><path class="a" d="M189.2,116.991c4.571-4.542,7.565-10.045,10.942-15.541a24.372,24.372,0,0,0-4.961-6.7,49.333,49.333,0,0,1-14.235,9.921c-.295.134-.623.3-.718.606a1.7,1.7,0,0,0,.307,1.04c.3.45,1.272,1.7,2.8,3.566C185.344,112.331,187.859,115.335,189.2,116.991Z"/><path class="a" d="M166.4,116.991c-4.571-4.542-7.565-10.045-10.942-15.541a24.372,24.372,0,0,1,4.961-6.7,51.831,51.831,0,0,0,14.053,9.833c.291.14.805.385.9.694.083.268-.277.954-.432,1.187-.371.559-1.147,1.548-2.676,3.419C170.263,112.331,167.748,115.335,166.4,116.991Z"/><path class="b" d="M190.618,118.406a63.386,63.386,0,0,0,8.915-12.088c.644-1.061,1.282-2.126,1.928-3.186a2.968,2.968,0,0,0,.649-1.948,5.459,5.459,0,0,0-.856-1.875,25.815,25.815,0,0,0-4.655-5.976,2.035,2.035,0,0,0-2.828,0,46.571,46.571,0,0,1-7.846,6.331,48.272,48.272,0,0,1-4.322,2.479c-1.348.682-3.047,1.152-3.336,2.866a4.046,4.046,0,0,0,1.108,3.081c.9,1.18,1.836,2.331,2.776,3.479,1.871,2.286,3.774,4.545,5.639,6.837a2.014,2.014,0,0,0,2.828,0,2.047,2.047,0,0,0,0-2.829c-1.595-1.96-3.22-3.9-4.827-5.848-.853-1.036-1.7-2.073-2.539-3.123-.179-.225-1.031-1.033-1.02-1.332l-.273,1.01q-.452.373,0,.111l.332-.152c.334-.157.667-.315,1-.479q1.013-.5,2-1.054c1.358-.757,2.679-1.581,3.961-2.461a51.482,51.482,0,0,0,7.348-6.087h-2.828a23.458,23.458,0,0,1,4.648,6.3v-2.018c-3.229,5.266-6.237,10.722-10.629,15.136C185.972,117.4,188.8,120.234,190.618,118.406Z"/><path class="h" d="M202.018,193.647c-5.807-.454-11.836.246-12.731,6.778-.917,6.692-.906,13.528,5.6,16.6,6.185,2.914,11.256,5.161,18.277,5.878,9.889,1.011,16.119,1.923,20.526-1.724,1.659-1.374,6.678-9.586,7.485-11.512,1.347-3.214-4.9-6.5-8.776-8.434Z"/><path class="b" d="M167.817,115.577c-4.392-4.414-7.4-9.87-10.629-15.136v2.018a23.458,23.458,0,0,1,4.648-6.3h-2.828a50.422,50.422,0,0,0,7.469,6.121q1.9,1.285,3.9,2.411.968.543,1.956,1.05c.322.164.647.322.97.484l.358.175q.451.289-.014-.119l-.273-1.01c-.015-.349-.169.191-.307.394-.209.306-.389.527-.521.695-.814,1.041-1.657,2.06-2.5,3.08-1.684,2.048-3.389,4.078-5.062,6.134a2.06,2.06,0,0,0,0,2.829,2.015,2.015,0,0,0,2.828,0c1.939-2.383,3.92-4.732,5.864-7.111.863-1.057,1.732-2.114,2.548-3.208a4.594,4.594,0,0,0,1.146-2.813c-.066-1.768-1.862-2.386-3.185-3.067q-2.172-1.119-4.24-2.427a46.26,46.26,0,0,1-8.114-6.447,2.036,2.036,0,0,0-2.828,0,25.752,25.752,0,0,0-4.562,5.814,8.1,8.1,0,0,0-.913,1.771,2.734,2.734,0,0,0,.613,2.214c.646,1.06,1.284,2.125,1.928,3.186a63.386,63.386,0,0,0,8.915,12.088C166.807,120.233,169.636,117.405,167.817,115.577Z"/><path class="a" d="M229,198.742a27.831,27.831,0,0,0-.737,5.45c-.295,4.245-7.695,14.949-12.879,11.132-1.368,2.2-6.915,2.052-6.705-1.558a3,3,0,0,1-4.635-3.533c-3.8,2.052-5.361-1.728-4.845-4.559a17.623,17.623,0,0,1,2.645-5.728l-.251.143c-3.909,2.232-4.437-4.471-1.758-6.473,1.776-1.326,7.8-2.873,9.508-4.012a29.49,29.49,0,0,0,4.624-4.89c.076-.636.129-1.063.129-1.063a189.326,189.326,0,0,0,3.709-20.075c5.524-1.115,14.94-3.339,20.976-4.74-.011.79-.019,1.37-.019,1.37,0,4.334-.111,12.805-.333,15.889-.317,4.4-6.6,16.465-8.49,20.613A7.959,7.959,0,0,0,229,198.742Z"/><path class="b" d="M175.944,106.216c0,4.687-.326,9.4-.126,14.084a2,2,0,0,0,4,0c-.2-4.684.122-9.4.126-14.084a2,2,0,1,0-4,0Z"/><path class="b" d="M142.769,177.934c-1.124-6.345-2.4-12.663-3.381-19.033-.469-3.05-.9-6.125-1.1-9.206a78.861,78.861,0,0,1,.355-9.4c.151-2.813-.056-5.65-.159-8.461-.148-4.054-.3-8.108-.39-12.163a68.5,68.5,0,0,1,.091-10.059l-.585,1.414a38.878,38.878,0,0,1,5.819-3.953,23.279,23.279,0,0,1,5.773-2.809l-2.46-1.4c.05.213.088.428.124.644.028.174.052.349.078.523.063.422-.05-.406.013.094.122.955.229,1.912.333,2.87.266,2.476.506,4.954.751,7.432.451,4.572.768,9.209,1.569,13.738a1.981,1.981,0,0,0,1.4,1.4c1.893.557,4.208.377,6.153.423,3.885.091,7.772.1,11.658.085,8.946-.025,17.9-.143,26.838-.478a73.72,73.72,0,0,0,8.9-.607,1.925,1.925,0,0,0,1.4-1.4c.672-4.074.875-8.244,1.238-12.353.354-4.011.471-8.132,1.386-11.829l-2.46,1.4a30.767,30.767,0,0,1,11.345,6.267l-.585-1.414a73.707,73.707,0,0,1-.032,9.551c-.141,4.253-.34,8.5-.53,12.756a86.3,86.3,0,0,0-.075,9.351c.185,2.926.429,5.851.483,8.784a86.019,86.019,0,0,1-.472,9.587,176.5,176.5,0,0,1-4.068,23.428c-.581,2.5,3.275,3.574,3.857,1.064a183.675,183.675,0,0,0,4.232-24.719,84.378,84.378,0,0,0,.385-11.407c-.144-3.3-.528-6.591-.559-9.892-.035-3.733.278-7.487.441-11.215.209-4.782.449-9.574.438-14.362,0-.838,0-1.681-.066-2.517a2.767,2.767,0,0,0-.865-2.04,22.215,22.215,0,0,0-2.21-1.737,36.278,36.278,0,0,0-10.655-5.343,2.025,2.025,0,0,0-2.461,1.4c-.98,3.96-1.114,8.229-1.475,12.278-.213,2.4-.415,4.8-.636,7.2-.089.961-.18,1.922-.283,2.882-.042.388-.088.775-.134,1.163-.013.113-.028.226-.043.338q.051-.366.019-.147a2.2,2.2,0,0,1-.072.466l1.4-1.4c-.517.083.461-.038.01,0-.225.02-.449.05-.674.071-.518.048-1.037.086-1.556.12-1.493.1-2.989.168-4.484.229-4.061.166-8.125.265-12.188.344-8.645.169-17.3.272-25.946.123-1.568-.027-3.137-.06-4.7-.14q-.739-.039-1.478-.1c-.091-.008-.184-.027-.276-.029-.342-.009.467.154.206.028a2.484,2.484,0,0,0-.333-.07l1.4,1.4c-.312-1.764-.468-3.379-.692-5.455-.28-2.6-.536-5.207-.793-7.812-.24-2.436-.476-4.872-.743-7.305a39.107,39.107,0,0,0-.64-4.729,2.032,2.032,0,0,0-2.46-1.4,26.767,26.767,0,0,0-6.729,3.213c-2.2,1.3-4.849,2.707-6.629,4.579-1.09,1.145-.744,3.987-.751,5.459-.01,2.337.039,4.673.1,7.009.123,4.836.319,9.67.487,14.5.193,5.588-.684,11.138-.124,16.714.915,9.119,2.835,18.1,4.432,27.11a2.016,2.016,0,0,0,2.46,1.4,2.044,2.044,0,0,0,1.4-2.46Z"/><path class="b" d="M161.587,194.4a26.182,26.182,0,0,1-7.024-4.656c-2.048-1.733-3.992-3.585-5.9-5.469a141.125,141.125,0,0,0-11.924-10.391,2.063,2.063,0,0,0-2.828,0,2.014,2.014,0,0,0,0,2.829,151.24,151.24,0,0,1,12.391,10.85c4.169,4.088,8.7,8.534,14.223,10.694a2.015,2.015,0,0,0,2.46-1.4,2.047,2.047,0,0,0-1.4-2.46Z"/><path class="b" d="M113.261,159.147c-.411,4.454-.682,8.92-1.116,13.373-.3,3.029-.719,6.247.273,9.2,1.063,3.169,3.439,5.286,6.079,7.185,3.75,2.7,7.541,5.341,11.394,7.892,3.662,2.425,7.439,4.567,11.294,6.667,2.261,1.232,4.282-2.221,2.018-3.454a200.7,200.7,0,0,1-19.924-12.587c-2.449-1.733-5.624-3.464-6.861-6.371-.976-2.291-.625-5.008-.386-7.408.481-4.827.784-9.668,1.229-14.5a2.014,2.014,0,0,0-2-2,2.043,2.043,0,0,0-2,2Z"/><path class="b" d="M215.208,178.971c-.143.352.214-.467.045-.107-.038.081-.074.163-.112.244q-.135.285-.282.566c-.2.38-.41.753-.63,1.121a31.488,31.488,0,0,1-1.793,2.655c-.08.107-.16.213-.241.319.166-.219.087-.113-.035.041q-.279.352-.566.7-.555.664-1.144,1.3a25.643,25.643,0,0,1-2.517,2.383,2.005,2.005,0,0,0,0,2.828,2.056,2.056,0,0,0,2.828,0,31.359,31.359,0,0,0,5.129-5.549,24.506,24.506,0,0,0,3.175-5.435,2.005,2.005,0,0,0-1.4-2.46,2.061,2.061,0,0,0-2.46,1.4Z"/><path class="b" d="M236.766,160.206q0,4.916-.111,9.83c-.034,1.545-.072,3.091-.142,4.636-.023.5-.047,1-.086,1.5s.049-.188-.029.2c-.05.246-.1.491-.158.735-1.246,5.14-3.906,10.021-6.191,14.754a42,42,0,0,0-2.537,5.536c-.767,2.464,3.093,3.517,3.857,1.064.065-.208.286-.72.064-.207.159-.368.327-.732.5-1.1.46-.982.935-1.958,1.407-2.935,1.244-2.576,2.484-5.156,3.642-7.774a57.061,57.061,0,0,0,2.96-7.679,29.487,29.487,0,0,0,.679-7.2q.15-5.679.148-11.362c0-2.573-4-2.578-4,0Z"/><path class="b" d="M201.807,196.345c-2.18,3.37-5.173,7.2-4.615,11.46a5.927,5.927,0,0,0,2.389,4.279c1.719,1.144,3.742.749,5.477-.124L202.12,209.7c-1.711,4.488,3.685,8.67,7.573,5.792l-3.01-1.727c-.106,5.485,7.681,6.58,10.431,2.567l-2.736.718c5.328,3.715,11.12-2.591,13.641-6.78a19.83,19.83,0,0,0,1.742-3.667,17.321,17.321,0,0,0,.647-4.154,19.339,19.339,0,0,1,.63-3.513c.155-.546-.067.076.062-.18.074-.147.148-.294.226-.439.157-.293.332-.575.491-.866,1.234-2.261-2.218-4.282-3.454-2.019a13.322,13.322,0,0,0-1.646,4.5c-.429,2.786-.208,4.572-1.375,6.908a18.435,18.435,0,0,1-4.392,5.779,6.679,6.679,0,0,1-2.532,1.43c-.013,0-.623.1-.333.071-.092.008-.809-.038-.532.008a2.239,2.239,0,0,1-1.156-.533,2.035,2.035,0,0,0-2.736.718c.093-.136-.034.034-.147.111a1.161,1.161,0,0,1-.528.23,2.586,2.586,0,0,1-1.311.1,1.942,1.942,0,0,1-.885-.368c-.055-.053-.114-.221-.107-.618.028-1.4-1.767-2.646-3.009-1.727-1.135.841-2.208.066-1.7-1.274.672-1.763-1.527-2.969-2.938-2.259a2.546,2.546,0,0,1-1.071.313c-.253-.035-.257-.072-.439-.343a3.536,3.536,0,0,1-.4-2.274c.382-2.843,2.612-5.493,4.129-7.839,1.4-2.167-2.059-4.175-3.454-2.018Z"/><path class="b" d="M219.587,204.741c-.976,1.752-1.973,3.493-3.027,5.2-.508.823-1.03,1.639-1.574,2.44q-.392.575-.8,1.137a2.7,2.7,0,0,0-.393.526c.037-.1.218-.276.055-.072q-.126.159-.255.318a2.05,2.05,0,0,0,0,2.828,2.023,2.023,0,0,0,2.829,0,70.714,70.714,0,0,0,6.619-10.358,2,2,0,1,0-3.454-2.019Z"/><path class="b" d="M214.041,201.777a104.42,104.42,0,0,1-6.819,10.41,2.006,2.006,0,0,0,.718,2.736,2.058,2.058,0,0,0,2.736-.717,104.588,104.588,0,0,0,6.818-10.41,2,2,0,1,0-3.453-2.019Z"/><path class="b" d="M208.628,198.168q-1.536,2.764-3.106,5.509c-1,1.734-1.949,3.533-3.107,5.167a2.009,2.009,0,0,0,.718,2.736,2.052,2.052,0,0,0,2.736-.717c1.157-1.634,2.112-3.433,3.106-5.167q1.573-2.744,3.107-5.509a2,2,0,0,0-3.454-2.019Z"/><path class="b" d="M229.83,202.043a37.9,37.9,0,0,1,7.686,4.644,9.271,9.271,0,0,1,1.377,1.36,4.808,4.808,0,0,1,.3.471,1.026,1.026,0,0,1,.143.309c.031.086.027-.1-.02.128.069-.34.036-.064-.055.117-.232.462-.476.917-.727,1.368a82.575,82.575,0,0,1-4.429,7.088,8.32,8.32,0,0,1-4.488,3.631c-2.862.9-5.981.692-8.931.469a77.318,77.318,0,0,1-12.539-1.611,60.947,60.947,0,0,1-11.249-4.258,10.6,10.6,0,0,1-4.136-2.838,9.038,9.038,0,0,1-1.633-3.836,20.219,20.219,0,0,1-.184-5.494,12.6,12.6,0,0,1,1-5.113c1.527-2.769,5.179-2.971,7.98-2.932,2.575.036,2.576-3.964,0-4-3.507-.049-7.4.452-10.015,3.039-2.821,2.8-3.032,7.337-3.056,11.083-.025,3.814.811,7.766,3.534,10.6a17.155,17.155,0,0,0,5.471,3.406c2.155,1,4.334,1.954,6.564,2.771a57.6,57.6,0,0,0,14.283,2.82c3.966.4,8.01.855,11.976.215a11.8,11.8,0,0,0,7.35-3.89,63.964,63.964,0,0,0,5.333-8.045,15.788,15.788,0,0,0,1.828-3.615c.479-1.8-.417-3.481-1.559-4.806-2.528-2.93-6.386-4.825-9.789-6.532-2.295-1.15-4.323,2.3-2.019,3.454Z"/><path class="b" d="M171.365,199.576c-11.557-2.992-25.554-4.334-35.539,3.618-4.1,3.262-7.8,9.332-6.611,14.748a20.574,20.574,0,0,0,.677,3.21,5.714,5.714,0,0,0,2.989,3.118c2.992,1.353,5.483.068,7.7-1.994a24.224,24.224,0,0,1,8.7-5.135c2.742-.934,5.563-1.632,8.283-2.628,2.4-.878,1.362-4.746-1.063-3.857-4.507,1.651-9.223,2.561-13.456,4.919a28.433,28.433,0,0,0-3.731,2.505c-.916.721-1.69,1.639-2.641,2.309a2,2,0,0,1-2.388.118c-.912-.582-.677-1.342-.812-2.258A13.046,13.046,0,0,1,133,215.6a9.584,9.584,0,0,1,.795-3.21,16.235,16.235,0,0,1,4.212-5.828c3.8-3.367,9.279-4.875,14.235-5.234a56.1,56.1,0,0,1,18.059,2.1c2.494.646,3.558-3.211,1.063-3.857Z"/><path class="b" d="M171,214.564c-4.032,1.835-7.585,5.221-12.079,5.486a35.163,35.163,0,0,1-6.77-.311c-1.453-.2-3.961-.246-4.088-2.168-.169-2.555-4.17-2.574-4,0a5.982,5.982,0,0,0,4.975,5.669,40.008,40.008,0,0,0,8.6.849,17.818,17.818,0,0,0,7.9-1.844c2.575-1.267,4.86-3.035,7.479-4.227a2.015,2.015,0,0,0,.717-2.736,2.047,2.047,0,0,0-2.736-.718Z"/><path class="b" d="M142.777,206.817a34.114,34.114,0,0,0-7.209,4.707,25.592,25.592,0,0,0-5.235,6.148,2,2,0,1,0,3.454,2.019,15.47,15.47,0,0,1,.909-1.374c.029-.039.305-.405.149-.2s.135-.17.166-.207q.31-.387.634-.761a28.814,28.814,0,0,1,2.751-2.8c.21-.184.424-.361.639-.539.412-.342-.326.231.09-.071.119-.086.238-.174.358-.26.544-.389,1.1-.761,1.664-1.121a41.279,41.279,0,0,1,3.649-2.09,2.013,2.013,0,0,0,.718-2.736,2.05,2.05,0,0,0-2.737-.718Z"/><path class="b" d="M262.471,220.815c-1.668,1.065-2.36,3.142-2.841,4.961a47.85,47.85,0,0,0-1.163,6.906,2.005,2.005,0,0,0,2,2,2.057,2.057,0,0,0,2-2c.03-.263.06-.526.092-.789.013-.107.027-.213.04-.32.007-.058.067-.513.028-.218s.03-.214.031-.22c.015-.109.031-.217.047-.325q.054-.366.114-.73c.161-.991.349-1.979.594-2.953.1-.418.22-.833.352-1.244.061-.189.125-.378.194-.565.037-.1.081-.2.114-.294.079-.239-.191.405-.036.09.143-.29.307-.561.464-.843s-.246.26-.117.144c.052-.047.095-.112.145-.162s.084-.072.119-.113c.2-.237-.407.288-.158.129a2,2,0,0,0-2.019-3.454Z"/><path class="b" d="M208.337,187.877a6.4,6.4,0,0,1-.727.4c-.153.072-.312.133-.464.209.621-.31-.106.04-.26.1-.86.338-1.733.645-2.6.956a29.358,29.358,0,0,0-5.038,2.077,6.255,6.255,0,0,0-2.862,4.111,6.9,6.9,0,0,0,.546,4.9,3.853,3.853,0,0,0,2.294,1.794,4.6,4.6,0,0,0,3.384-.6,2.02,2.02,0,0,0,.718-2.736,2.042,2.042,0,0,0-2.737-.718c-.084.047-.172.09-.256.136-.272.15-.113-.087.135-.053a1.271,1.271,0,0,0-.367.11c-.249.1.228-.04.273-.028a.708.708,0,0,0-.2.011c-.062.011-.136-.023-.195-.008.01,0,.608.055.277.024-.058,0-.114-.052-.171-.055-.028,0,.535.221.287.111-.373-.167.326.344.092.084a1.534,1.534,0,0,0-.127-.128c-.125-.112-.029-.259.175.232a3.482,3.482,0,0,0-.2-.327c-.226-.392.139.451.028.067-.036-.124-.076-.244-.106-.37a2.49,2.49,0,0,0-.068-.348c.167.41.046.447.033.214,0-.094-.014-.187-.017-.28-.01-.274.016-.542.026-.815.015-.369-.083.445-.027.192.014-.064.022-.129.034-.194q.051-.266.124-.525c.036-.126.08-.249.121-.373.161-.494-.189.351,0-.012.068-.126.129-.254.2-.377.033-.053.069-.105.1-.159.184-.305.032.016-.093.106a3.216,3.216,0,0,0,.276-.3c.046-.044.137-.1.167-.152,0,.008-.421.288-.2.156.244-.146.477-.3.731-.432.294-.152.6-.28.9-.42.233-.109-.389.155-.144.061.1-.038.192-.079.289-.118.2-.081.4-.159.6-.236.769-.295,1.545-.571,2.321-.848a22.561,22.561,0,0,0,4.749-1.974,2,2,0,1,0-2.019-3.454Z"/><path class="b" d="M172.842,218.22c-.8.347.077,0,.316-.059.336-.091.676-.167,1.017-.239.918-.194,1.844-.351,2.77-.5q.775-.123,1.551-.232l.418-.059.239-.033.239-.032.336-.043q1.6-.2,3.2-.368a2.046,2.046,0,0,0,2-2,2.022,2.022,0,0,0-2-2q-3.534.359-7.048.91a20.691,20.691,0,0,0-5.059,1.2,2.005,2.005,0,0,0-.717,2.736,2.061,2.061,0,0,0,2.736.717Z"/><path class="b" d="M218.341,165.505c8.59-1.742,17.073-3.959,25.64-5.8,2.515-.541,1.451-4.4-1.063-3.857-8.568,1.841-17.051,4.058-25.64,5.8-2.521.511-1.454,4.367,1.063,3.857Z"/><path class="b" d="M326.869,191.717a30.352,30.352,0,0,1-8.216-6.534,15.569,15.569,0,0,1-3.76-7.427,2.016,2.016,0,0,0-2.46-1.4,2.044,2.044,0,0,0-1.4,2.46c1.319,7.275,7.672,12.9,13.814,16.352,2.247,1.262,4.266-2.192,2.019-3.454Z"/><path class="b" d="M258.737,176.444a14.165,14.165,0,0,0,5.44.538,8.327,8.327,0,0,0,3.539-1.077,2,2,0,0,0-2.019-3.454,3.855,3.855,0,0,1-.387.216l-.125.058c-.239.116.493-.2.286-.12-.092.033-.182.07-.274.1a6.734,6.734,0,0,1-.722.2c-.125.029-.25.054-.376.076-.027.005-.2.057-.222.036.019.018.589-.066.2-.029a11.575,11.575,0,0,1-2.106.021c-.194-.016-.387-.047-.58-.061.536.039.187.023.058,0s-.233-.039-.349-.061q-.659-.123-1.3-.307a2,2,0,1,0-1.064,3.857Z"/><path class="b" d="M266.7,130.389c-1.953,5.989-1.959,12.386-4.044,18.343-.769,2.2-1.94,4.608-3.972,5.905-1.225.783-2.622,1.112-3.774,2.038a6.167,6.167,0,0,0-2.4,4.529c-.07,3.159,2.969,4.824,3.807,7.632a11.052,11.052,0,0,1,.137,3.786q-.083,2.136-.017,4.275c.2,6.075,1.38,12.609,6.8,16.23a27.857,27.857,0,0,0,10.314,3.824,27.266,27.266,0,0,0,11-.266c2.506-.585,1.445-4.442-1.064-3.858a24.877,24.877,0,0,1-17.356-2.622c-4.892-2.707-5.573-8.619-5.7-13.672q-.052-2.032.033-4.065a15.4,15.4,0,0,0-.043-3.7,10.724,10.724,0,0,0-1.868-4.283c-.607-.828-1.948-1.968-2.044-3.06-.093-1.053,1.064-1.865,1.889-2.243a14.453,14.453,0,0,0,3.658-2.1,15.6,15.6,0,0,0,4.06-6.212c2.492-6.231,2.375-13.069,4.444-19.414.8-2.453-3.061-3.5-3.857-1.063Z"/><path class="b" d="M270.56,131.452a42.5,42.5,0,0,1,9.328-16.527,42.5,42.5,0,0,1,13.129-8.912c9.99-4.6,22.346-2.9,32.151,1.375a37.27,37.27,0,0,1,13.064,8.987,19.4,19.4,0,0,1,3.445,5.333,14.089,14.089,0,0,0,.652,1.757,16.577,16.577,0,0,0,1.821,2.042,25.973,25.973,0,0,1,2.731,3.936,35.325,35.325,0,0,1,4.168,19.051,46.6,46.6,0,0,1-1.507,9.89,50.279,50.279,0,0,1-3.3,9.754,33.764,33.764,0,0,1-5.837,8.6,76.629,76.629,0,0,1-8.019,6.549c-2.472,1.943-4.869,4.027-7.152,6.188a23.773,23.773,0,0,0-5.633,7.6,19.709,19.709,0,0,0-1.468,5.18,2.07,2.07,0,0,0,1.4,2.461,2.016,2.016,0,0,0,2.461-1.4,16.623,16.623,0,0,1,3.4-8.161,50.933,50.933,0,0,1,6.228-6.04c4.7-4.216,10.252-7.419,14.108-12.507,4.057-5.353,6.28-11.46,7.866-17.915a48.683,48.683,0,0,0,.923-19.213,33.716,33.716,0,0,0-9.041-18.448l.515.883c-1.8-5.736-6.106-10.211-10.93-13.6a50.412,50.412,0,0,0-18.229-7.781,40.126,40.126,0,0,0-36.969,8.938c-6.472,5.449-10.566,12.956-13.154,20.911-.8,2.453,3.063,3.5,3.857,1.063Z"/><path class="b" d="M270.955,156.039a3.562,3.562,0,0,1,.905.021l-.532-.072a8.24,8.24,0,0,1,1.961.564l-.478-.2a7.571,7.571,0,0,1,1.623.906l-.405-.313a3.115,3.115,0,0,1,.546.524l-.312-.4a1.512,1.512,0,0,1,.168.278,2.008,2.008,0,0,0,1.2.919,2.043,2.043,0,0,0,1.541-.2,2.021,2.021,0,0,0,.919-1.2,2.287,2.287,0,0,0-.2-1.541,4.385,4.385,0,0,0-1.478-1.555,7.394,7.394,0,0,0-1.451-.817,11.44,11.44,0,0,0-2.078-.73,5.8,5.8,0,0,0-1.923-.181,2.181,2.181,0,0,0-1.414.586,2,2,0,0,0,0,2.828,1.924,1.924,0,0,0,1.414.586Z"/><path class="b" d="M273.33,172.484a5.892,5.892,0,0,1,.7,1.225l-.2-.477a8.124,8.124,0,0,1,.543,2.014l-.071-.532a6.6,6.6,0,0,1,.038,1.526,2,2,0,0,0,.586,1.414,2,2,0,0,0,2.829,0,2.28,2.28,0,0,0,.585-1.414,8.789,8.789,0,0,0-.276-2.932,7.908,7.908,0,0,0-1.277-2.843,2.188,2.188,0,0,0-1.195-.919,2.043,2.043,0,0,0-1.541.2,2.017,2.017,0,0,0-.919,1.2,1.939,1.939,0,0,0,.2,1.541Z"/><path class="b" d="M307.335,159.724a4.368,4.368,0,0,1,5.872-.572c1.918,1.57,1.454,4.4.767,6.446a15.921,15.921,0,0,1-10.143,9.675c-2.441.786-1.4,4.649,1.063,3.857a20.322,20.322,0,0,0,11.864-9.908,14,14,0,0,0,1.712-8.037,7.831,7.831,0,0,0-5.132-6.448,8.412,8.412,0,0,0-8.832,2.159c-1.774,1.865,1.05,4.7,2.829,2.828Z"/><path class="b" d="M211.729,54.478a2.77,2.77,0,0,1,3.959.521,5.655,5.655,0,0,1,.548,2.857A16.618,16.618,0,0,1,216,61.271c-.741,4.062-2.826,8.915-7.335,9.724a2.016,2.016,0,0,0-1.4,2.46,2.044,2.044,0,0,0,2.46,1.4c6.733-1.208,9.942-8.819,10.449-14.921.258-3.1.031-6.688-2.658-8.7a6.89,6.89,0,0,0-8.618.424,2.015,2.015,0,0,0,0,2.828,2.044,2.044,0,0,0,2.829,0Z"/><path class="b" d="M207.145,69.309a18.428,18.428,0,0,1-1.072,4.983q-.144.439-.293.876c-.041.12-.195.486.014-.01-.147.348-.313.689-.483,1.026a41.518,41.518,0,0,1-3.588,5.767c-3.149,4.319-7.42,8.89-12.814,10.155-2.5.588-1.445,4.446,1.063,3.857,6.356-1.491,11.29-6.691,15.029-11.753,3.233-4.377,5.919-9.336,6.144-14.9.1-2.574-3.9-2.569-4,0Z"/><path class="b" d="M146.585,51.65a6.891,6.891,0,0,0-8.617-.424c-2.691,2.012-2.916,5.6-2.659,8.7.507,6.1,3.716,13.714,10.449,14.921a2.057,2.057,0,0,0,2.46-1.4,2.017,2.017,0,0,0-1.4-2.46c-4.509-.809-6.594-5.662-7.335-9.724a16.518,16.518,0,0,1-.24-3.226,6.455,6.455,0,0,1,.472-2.917,2.756,2.756,0,0,1,4.038-.65,2.056,2.056,0,0,0,2.829,0,2.016,2.016,0,0,0,0-2.828Z"/><path class="b" d="M144.557,68.987a37.521,37.521,0,0,0,8.13,18.154c4.486,5.245,10.386,9.046,17.333,9.792a2.013,2.013,0,0,0,2-2,2.047,2.047,0,0,0-2-2c-6-.644-11.018-4.435-14.782-8.948-3.8-4.56-5.816-10.281-6.824-16.062a2.018,2.018,0,0,0-2.461-1.4,2.046,2.046,0,0,0-1.4,2.461Z"/><path class="b" d="M172.013,81.536a13.4,13.4,0,0,0,6.456,1.5,10.585,10.585,0,0,0,6.59-1.975,2,2,0,0,0,0-2.828,2.064,2.064,0,0,0-2.829,0c.679-.529-.108.042-.329.157-.174.092-.647.225-.054.045-.18.055-.354.137-.534.194a10.5,10.5,0,0,1-1.5.342c.284-.047.179-.023-.043,0q-.22.022-.441.036c-.354.023-.709.032-1.064.03q-.477,0-.952-.034c-.146-.01-.291-.022-.437-.036-.124-.013-.59.014-.111-.01a4.712,4.712,0,0,1-1.4-.31c-.2-.059-.387-.129-.58-.195-.475-.162.381.186-.048-.016-.24-.113-.476-.231-.711-.355a2,2,0,1,0-2.018,3.454Z"/><path class="b" d="M177.283,66.545a29.323,29.323,0,0,1,.693,3.168l-.072-.532a1.879,1.879,0,0,1,.012.437l.072-.531a1.1,1.1,0,0,1-.048.2l.2-.478a.781.781,0,0,1-.069.127l.313-.405a.668.668,0,0,1-.1.1l.405-.313a2.008,2.008,0,0,1-.251.133l.478-.2a1.883,1.883,0,0,1-.423.123l.532-.071a1.757,1.757,0,0,1-.4,0l.531.071c-.149-.021-.3-.057-.446-.077a1.523,1.523,0,0,0-.8-.036,1.486,1.486,0,0,0-.744.237,2,2,0,0,0-.718,2.737,1.918,1.918,0,0,0,1.2.919c.374.05.737.145,1.117.161a3.625,3.625,0,0,0,1.69-.408,2.523,2.523,0,0,0,1.373-1.651,3.992,3.992,0,0,0-.016-1.737c-.172-1.021-.408-2.032-.67-3.033a2.064,2.064,0,0,0-.92-1.2,2,2,0,0,0-2.938,2.259Z"/><path class="b" d="M160.9,57.474c-.529,1.719-.184,5.674,3.073,6.01,4.3-.025,4.533-4.807,3.084-7.055C165.867,54.589,162.379,53.823,160.9,57.474Z"/><path class="b" d="M195.367,57.474c.529,1.719.184,5.674-3.073,6.01-4.3-.026-4.533-4.807-3.085-7.055C190.4,54.589,193.884,53.823,195.367,57.474Z"/><path class="b" d="M286.073,129.466c1.85,11.257,10.174,20.692,18.457,27.968,1.927,1.693,4.767-1.126,2.828-2.829-7.817-6.866-15.68-15.566-17.428-26.2a2.015,2.015,0,0,0-2.46-1.4,2.047,2.047,0,0,0-1.4,2.46Z"/><path class="b" d="M271.661,123.786c1.269,3.475,3.921,6.338,6.716,8.68a27.953,27.953,0,0,0,9.378,5.54,2,2,0,0,0,1.064-3.858c-.325-.1-.642-.216-.961-.334l-.23-.092q.287.123.086.035-.24-.106-.479-.217c-.713-.336-1.406-.712-2.083-1.115a30.07,30.07,0,0,1-3.946-2.787,28.823,28.823,0,0,1-3.661-3.625c-.127-.154-.254-.308-.376-.465.211.271-.154-.212-.158-.218-.22-.3-.431-.615-.63-.934-.189-.3-.367-.613-.531-.93-.091-.177-.176-.357-.259-.538-.059-.134-.046-.1.041.1q-.06-.15-.114-.3a2.053,2.053,0,0,0-2.46-1.4,2.018,2.018,0,0,0-1.4,2.461Z"/><path class="b" d="M141.941,45.088a38.164,38.164,0,0,1-.305-12.563,28.863,28.863,0,0,1,4.219-11.6A36.225,36.225,0,0,1,166.074,5.474c4.395-1.324,8.741-1.456,13.292-1.453a34.2,34.2,0,0,1,12.85,2.586,35.892,35.892,0,0,1,18.666,17.37,38.686,38.686,0,0,1,3.219,12.9c.49,4.8.708,10.057-1.2,14.593a2.012,2.012,0,0,0,1.4,2.46,2.052,2.052,0,0,0,2.46-1.4c1.851-4.4,1.842-9.545,1.475-14.221a48.722,48.722,0,0,0-2.538-13.169A39.125,39.125,0,0,0,196.855,4.367,39.571,39.571,0,0,0,182.815.2,66.576,66.576,0,0,0,175.34.023a37.763,37.763,0,0,0-7.365.834A40.515,40.515,0,0,0,144.165,16.3a33.468,33.468,0,0,0-6.256,14.222,41.71,41.71,0,0,0,.174,15.627c.573,2.509,4.43,1.447,3.858-1.063Z"/><path class="b" d="M191.719,31.144c1.5,5.125,3.189,10.278,6.348,14.637,2.878,3.97,6.735,8.818,11.716,10.1,2.494.643,3.558-3.214,1.063-3.857a12.119,12.119,0,0,1-5.118-3.375,38.059,38.059,0,0,1-4.535-5.345c-2.8-3.962-4.263-8.605-5.617-13.223-.723-2.465-4.585-1.416-3.857,1.063Z"/><path class="b" d="M192.188,28.593c-1.565,1.95-3.647,3.022-6.081,4.376-3.4,1.891-6.932,3.538-10.477,5.134C167.892,41.586,160,44.71,152.242,48.149a49.785,49.785,0,0,0-8.081,4.077c-2.11,1.447-.111,4.915,2.019,3.454a44.622,44.622,0,0,1,7-3.6c3.585-1.615,7.213-3.13,10.836-4.657,7.839-3.3,15.793-6.507,23.287-10.555,2.663-1.438,5.78-3.045,7.711-5.45a2.063,2.063,0,0,0,0-2.829,2.015,2.015,0,0,0-2.829,0Z"/><path class="b" d="M138.486,67.589c-2.956,1.447-3.808,4.874-4.029,7.887a26.11,26.11,0,0,0,1.291,11.173c1.165,3.033,3.128,6.127,6.024,7.776a13.285,13.285,0,0,0,7.762,1.393,17.937,17.937,0,0,0,9.832-4.086,2.016,2.016,0,0,0,0-2.829,2.046,2.046,0,0,0-2.829,0,13.4,13.4,0,0,1-8.219,2.987,7.758,7.758,0,0,1-6.513-2.642c-2.378-2.672-3.268-6.373-3.414-9.861-.1-2.391-.523-7.053,2.114-8.344,2.311-1.132.286-4.583-2.019-3.454Z"/><path class="f" d="M71.222,163.47l-.143-.288c-.8-1.6-3.193-1.083-3.656.478a4.8,4.8,0,0,1-1.867,1.925,9.029,9.029,0,0,1-4.592,1.517,11.2,11.2,0,0,1-5.615-1.471,6.8,6.8,0,0,1-3.5-5.381,5.83,5.83,0,0,1,1.137-3.621,4.831,4.831,0,0,1,.817-.816,4.254,4.254,0,0,1,.545-.331c.095-.05-.14.025.242-.09a2.024,2.024,0,0,0,.478-3.656,6.386,6.386,0,0,1-3.287-5.216,6.669,6.669,0,0,1,2.59-5.447,6.6,6.6,0,0,1,1.093-.725,9.885,9.885,0,0,1,2.5-.741,6.51,6.51,0,0,1,6.479,2.912,2.017,2.017,0,0,0,3.726-1.009c.185-2.343,3.1-3.834,5.145-3.976a8.825,8.825,0,0,1,5.792,1.694,8,8,0,0,1,3,5.722,7.192,7.192,0,0,1-.858,3.677,4.518,4.518,0,0,1-1.288,1.476,2.025,2.025,0,0,0,.477,3.656c1.918.538,3.41,2.893,3.431,5.1a7.55,7.55,0,0,1-2.509,5.258c-.122.119-.247.233-.374.347a1.767,1.767,0,0,1-.556.412,6.8,6.8,0,0,1-7.448.242,5.266,5.266,0,0,1-1.756-1.643c-1.328-2.2-4.788-.193-3.454,2.019,2.975,4.931,10.186,5.886,14.771,2.772,3.715-2.522,6.209-7.239,5-11.737A9.109,9.109,0,0,0,81.5,149.9l.478,3.655c2.83-1.773,4.2-5.369,4.127-8.607a11.9,11.9,0,0,0-4.88-9.1,12.463,12.463,0,0,0-9.818-2.065c-3.663.789-6.935,3.9-7.237,7.725L67.9,140.5c-3.428-5.616-11.476-6.458-16.355-2.255a10.3,10.3,0,0,0,1.506,16.945l.478-3.655c-3.362,1.012-5.377,4.537-5.648,7.875a10.616,10.616,0,0,0,4.915,9.343,14.694,14.694,0,0,0,8.968,2.3c3.618-.337,8.4-2.535,9.522-6.33l-3.656.478.143.288C68.916,167.793,72.368,165.769,71.222,163.47Z"/><path class="f" d="M387.808,191.944l-.121-.241c-.8-1.607-3.184-1.076-3.655.477-.064.21-.093.241-.336.529a4.557,4.557,0,0,1-.979.826,7.325,7.325,0,0,1-3.587,1.3,8.978,8.978,0,0,1-4.777-1.186,5.4,5.4,0,0,1-2.782-4.259,4.565,4.565,0,0,1,.832-2.77,4.664,4.664,0,0,1,.714-.714,3.37,3.37,0,0,1,.36-.217c.513-.277-.3.081.16-.06a2.025,2.025,0,0,0,.478-3.656,5.1,5.1,0,0,1-2.57-5.157,5.672,5.672,0,0,1,2.771-3.8c2.253-1.247.237-4.7-2.019-3.454a9.513,9.513,0,0,0-4.719,6.919,9.091,9.091,0,0,0,4.518,8.941l.478-3.655c-2.842.871-4.6,3.723-4.933,6.558a9.164,9.164,0,0,0,4.145,8.43,12.546,12.546,0,0,0,7.967,2.019c3.154-.342,7.139-2.25,8.136-5.531l-3.656.477.121.242c1.148,2.3,4.6.281,3.454-2.019Z"/><path class="f" d="M385.285,173.651c.156-1.8,2.5-2.922,4.052-3.022a6.975,6.975,0,0,1,2.846.4,8.116,8.116,0,0,1,1.84,1.011,6.37,6.37,0,0,1,2.331,4.4,5.808,5.808,0,0,1-.579,2.85,3.571,3.571,0,0,1-.948,1.236c-.262.232.315-.2-.116.072a2.025,2.025,0,0,0,.478,3.655c1.641.468,2.914,2.749,2.6,4.694a6.488,6.488,0,0,1-2.284,3.765c-1.951,1.686.888,4.5,2.828,2.828a10.115,10.115,0,0,0,3.5-7.049,8.262,8.262,0,0,0-5.582-8.095l.478,3.656c5.426-3.435,4.225-11.695-.374-15.234a10.787,10.787,0,0,0-8.683-1.98,7.987,7.987,0,0,0-6.388,6.814c-.223,2.564,3.779,2.549,4,0Z"/></svg>