<?xml version="1.0" encoding="utf-8"?>
<!-- Uploaded to: SVG Repo, www.svgrepo.com, Generator: SVG Repo Mixer Tools -->
<svg width="800px" height="800px" viewBox="0 -90.13 391.334 391.334" xmlns="http://www.w3.org/2000/svg"><defs><style>.a{fill:#f9b963;}.b{fill:#211715;}.c{fill:#ef8561;}</style></defs><path class="a" d="M293.744,160.748c-4.461,4.337-17.534,8.3-23.809,8.539-4.854.182-9.482-.817-15.9-3.027.833-4.621,2.778-12.466,6.827-16.889-5.838-1.135-15.216-5.488-19.093-8.751-4.948-4.165-14.981-16.69-15.946-25.505a32.512,32.512,0,0,1,21.363-2.925,86.2,86.2,0,0,1,15.81,5.089l3.564,1.645-3.047-3.167c-5.9-6.129-10.553-20.56-10-28.858,1.112-16.579,8.039-27.822,10.422-29.841a84.6,84.6,0,0,1,18.448,10.858,58.139,58.139,0,0,1,10.588,11.4c1.724-.016,4.7-.245,5.892-.175A95.193,95.193,0,0,1,309.911,60.8C317.1,52.13,334.674,41.2,341.622,40.737c6.991,6.9,8.7,25.444,7.681,34.011-1.265,10.667-3.678,20.817-7.1,25.88l-.941,1.393,1.362-.968c4.848-3.444,12.649-4.754,19.214-4.925,6.169-.161,19.947.409,27.491,5.555-4.182,15.081-14.689,29.2-25.74,35.916a165.394,165.394,0,0,1-15.545,7.449c10.165.059,28.477,11.939,31.805,19.854-2.631,3.355-7.307,6.293-13.895,8.015a49.937,49.937,0,0,1-20.024.834c-5.334-.955-9.987-1.413-15.648-3.9l-1.715-.754.193.237c1.866,2.289.926,10.285.929,13.188a48.168,48.168,0,0,1-2,9.93c-5.733.222-17.883-7.082-21.876-10.72-5.141-4.683-11.321-12.986-12.945-19.371"/><path class="a" d="M293.178,160.182a24.39,24.39,0,0,1-7.764,4.453,61.533,61.533,0,0,1-9.873,3.04,30.787,30.787,0,0,1-9.147.734,50.592,50.592,0,0,1-12.149-2.921l.559.984c1.045-5.722,2.653-12.094,6.622-16.536a.808.808,0,0,0-.353-1.337,45.975,45.975,0,0,1-9.921-3.419,39.341,39.341,0,0,1-8.725-5.048c-4.782-3.935-8.733-9.371-11.817-14.69-1.834-3.162-3.55-6.653-3.989-10.327l-.4.691a32.189,32.189,0,0,1,21.1-2.767,94.2,94.2,0,0,1,18.834,6.576.8.8,0,0,0,.97-1.257,58.3,58.3,0,0,1-4.4-4.741,32.972,32.972,0,0,1-3.358-5.569A52.791,52.791,0,0,1,254.813,94a41.065,41.065,0,0,1,.543-15.124,59.221,59.221,0,0,1,4.432-13.86c1.18-2.512,2.568-5.532,4.714-7.394l-.969.125a74.957,74.957,0,0,1,19.65,11.879,57.144,57.144,0,0,1,7.908,8.442c.395.521.9,1.624,1.477,1.932a3.6,3.6,0,0,0,1.705.073c1.526-.059,3.063-.2,4.591-.138a.781.781,0,0,0,.691-.4,101.928,101.928,0,0,1,6.877-12.51,48.313,48.313,0,0,1,7.27-9.08,79.745,79.745,0,0,1,19.905-13.688,38.8,38.8,0,0,1,4.628-1.939c.6-.2,1.218-.387,1.84-.532.259-.061.52-.118.782-.161.141-.024.282-.043.424-.063.369-.052-.169-.2.037,0,2.447,2.347,3.81,6,4.794,9.156a62.053,62.053,0,0,1,2.558,22.167A89.039,89.039,0,0,1,345.9,89.177a39.1,39.1,0,0,1-5.32,12.44c-.436.647.445,1.557,1.1,1.095a27.01,27.01,0,0,1,8.974-4.291,48.833,48.833,0,0,1,11.008-1.488,69.981,69.981,0,0,1,17.384,1.528,29.134,29.134,0,0,1,9.893,3.913l-.367-.9c-4.24,15.078-14.315,29.9-28.5,37.127q-6,3.061-12.231,5.679a.8.8,0,0,0,.212,1.572c6.388.093,12.8,3.541,18.062,6.872a53.25,53.25,0,0,1,8.179,6.263,20.089,20.089,0,0,1,4.873,6.322l.125-.969c-4.06,5.077-10.739,7.463-16.947,8.543a50.367,50.367,0,0,1-11.132.656,82.472,82.472,0,0,1-10.564-1.5,51.645,51.645,0,0,1-11.67-3.632.8.8,0,0,0-.969,1.256c1.09,1.337,1.073,3.451,1.112,5.088.051,2.137-.093,4.27-.186,6.4a39.257,39.257,0,0,1-2,11.086l.771-.588a18.074,18.074,0,0,1-7.32-1.931,62.184,62.184,0,0,1-8.161-4.347,45.322,45.322,0,0,1-13.151-12.6,33.851,33.851,0,0,1-5.418-10.625.8.8,0,0,0-1.543.425,33.2,33.2,0,0,0,4.674,9.687,56.292,56.292,0,0,0,7.237,8.856,51.139,51.139,0,0,0,14.964,9.724c2.693,1.214,5.707,2.481,8.718,2.411a.826.826,0,0,0,.772-.587,42.954,42.954,0,0,0,2.085-12.013,63.735,63.735,0,0,0,.117-6.979,8.618,8.618,0,0,0-1.536-5.141l-.969,1.256a51.345,51.345,0,0,0,10.453,3.487,94.712,94.712,0,0,0,11.122,1.766,45.806,45.806,0,0,0,22.388-3.447,22.23,22.23,0,0,0,8.288-6.124.853.853,0,0,0,.125-.969c-1.844-4.259-5.879-7.582-9.49-10.3a57.492,57.492,0,0,0-15.095-8.312,24.769,24.769,0,0,0-7.91-1.634l.213,1.571q5.727-2.4,11.289-5.174a49.543,49.543,0,0,0,8.311-5.019A63.2,63.2,0,0,0,384.288,116a66.419,66.419,0,0,0,5.817-14.105.822.822,0,0,0-.368-.9c-5.484-3.669-12.485-4.81-18.933-5.375a62.737,62.737,0,0,0-19.23.93,29.1,29.1,0,0,0-10.712,4.783l1.095,1.095c5.39-7.984,7.006-18.044,8.118-27.441a62.052,62.052,0,0,0-1.879-22.8,30.383,30.383,0,0,0-4.386-10.09,9.945,9.945,0,0,0-1.534-1.83c-.54-.447-1.1-.3-1.75-.188a20.847,20.847,0,0,0-4.145,1.23A77.025,77.025,0,0,0,315.5,54.21c-7.78,6.522-13.129,15.37-17.329,24.523l.691-.4c-1.961-.082-3.931.145-5.892.175l.691.4c-7.2-10.363-17.846-17.6-29.323-22.541a.849.849,0,0,0-.969.125c-1.952,1.694-3.282,4.33-4.419,6.6a59.019,59.019,0,0,0-4.808,13.771,45.4,45.4,0,0,0-1.161,15.7,53.781,53.781,0,0,0,4.114,14.372,37.536,37.536,0,0,0,3.889,7,53.47,53.47,0,0,0,5.006,5.55l.97-1.257a92.089,92.089,0,0,0-19.9-6.887,33.942,33.942,0,0,0-21.641,3.079.77.77,0,0,0-.4.69c.829,6.937,5.2,13.359,9.4,18.73a52.647,52.647,0,0,0,6.227,6.857,35.251,35.251,0,0,0,8.187,5.146,49.736,49.736,0,0,0,11.814,4.294l-.353-1.337c-4.166,4.663-5.934,11.225-7.033,17.242a.825.825,0,0,0,.559.984,52.145,52.145,0,0,0,12.574,2.978,32.287,32.287,0,0,0,9.573-.792,61.348,61.348,0,0,0,10.5-3.3,25.353,25.353,0,0,0,7.838-4.605c.748-.71-.385-1.84-1.132-1.131Z"/><path class="b" d="M291.9,163.944c-1.973,2.455-5.469,16.959-5.836,20.7a123.925,123.925,0,0,0-.028,24.377,9.362,9.362,0,0,0,5.457-.9A65.117,65.117,0,0,1,289,193.656c-.41-5.606-.933-21.624,2.9-29.712"/><path class="b" d="M290.171,162.935c-1.27,1.651-1.856,4.016-2.469,5.972-.9,2.872-1.654,5.791-2.331,8.722a80.775,80.775,0,0,0-1.9,16.922,141.182,141.182,0,0,0,.565,14.469,2.042,2.042,0,0,0,1.468,1.929,11.888,11.888,0,0,0,6.521-.9,2.056,2.056,0,0,0,1.4-2.461,80.746,80.746,0,0,1-2.586-16.886,96.094,96.094,0,0,1,.564-17.052,30.582,30.582,0,0,1,2.227-8.7,2.059,2.059,0,0,0-.718-2.737,2.016,2.016,0,0,0-2.736.718c-2.6,5.606-3.14,12.075-3.372,18.174a110.082,110.082,0,0,0,.561,16.51,80.091,80.091,0,0,0,2.2,11.036l1.4-2.46a8.5,8.5,0,0,1-4.395.9l1.469,1.928a132.1,132.1,0,0,1-.122-22.772c.057-.647.111-1.3.188-1.942.026-.223-.019.142-.02.15.016-.113.032-.226.051-.338.042-.252.081-.5.126-.755.21-1.2.46-2.388.723-3.574.63-2.843,1.345-5.67,2.168-8.463.667-2.262,1.176-4.681,2.477-6.372a2.012,2.012,0,0,0-.718-2.737,2.051,2.051,0,0,0-2.736.718Z"/><path class="b" d="M349.214,147.1c6,.559,11.994,3.848,16.986,7.1a50.228,50.228,0,0,1,7.5,5.877,18.739,18.739,0,0,1,4.427,5.832l.312-2.424c-3.944,4.932-10.39,7.186-16.417,8.235a48.94,48.94,0,0,1-10.813.613,79.852,79.852,0,0,1-10.245-1.456,50.362,50.362,0,0,1-11.383-3.512,2.01,2.01,0,0,0-2.424,3.142c.4.494-.172-.384.092.133.022.043.221.448.165.313a8.751,8.751,0,0,1,.287,1.133,16.208,16.208,0,0,1,.217,2.66c.051,2.137-.093,4.27-.186,6.4a38.109,38.109,0,0,1-1.961,10.767l1.928-1.469a17.117,17.117,0,0,1-6.714-1.767,61.053,61.053,0,0,1-8.161-4.347,43.747,43.747,0,0,1-12.721-12.17,32.926,32.926,0,0,1-5.3-10.338c-.657-2.487-4.517-1.432-3.857,1.063a34.19,34.19,0,0,0,4.8,9.974,57.906,57.906,0,0,0,7.424,9.1,52.04,52.04,0,0,0,15.208,9.911c2.884,1.3,6.1,2.65,9.323,2.575a2.066,2.066,0,0,0,1.929-1.468,44.129,44.129,0,0,0,2.128-12.332c.2-4.116,1.028-9.537-1.77-12.969l-2.424,3.141a52.741,52.741,0,0,0,10.74,3.608,97.544,97.544,0,0,0,11.441,1.809,46.975,46.975,0,0,0,22.993-3.611,23,23,0,0,0,8.532-6.311,2.137,2.137,0,0,0,.312-2.424,21.644,21.644,0,0,0-5.051-6.641,55.8,55.8,0,0,0-8.309-6.5c-5.648-3.679-12.2-7.013-19-7.646a2.015,2.015,0,0,0-2,2,2.043,2.043,0,0,0,2,2Z"/><path class="b" d="M300.793,79.668a54.5,54.5,0,0,1,6.433-11.948,53.869,53.869,0,0,1,7.1-8.7,78.945,78.945,0,0,1,18.921-13.237,41.909,41.909,0,0,1,4.725-2.1c.695-.25,1.4-.478,2.117-.66.33-.084.662-.153,1-.22a1.592,1.592,0,0,1,.54-.066l-1.414-.586c2.392,2.41,3.752,5.7,4.746,8.893a58.222,58.222,0,0,1,2.279,11.693,74.992,74.992,0,0,1-2.342,25.516,38.981,38.981,0,0,1-5.352,12.759c-1.091,1.617,1.111,3.891,2.737,2.736a26.077,26.077,0,0,1,8.687-4.17,47.352,47.352,0,0,1,10.689-1.445,68.669,68.669,0,0,1,17.065,1.485,28.226,28.226,0,0,1,9.607,3.792l-.919-2.259c-4.059,14.435-13.448,28.208-26.581,35.756a101.358,101.358,0,0,1-12.089,6.046,2.065,2.065,0,0,0-1.4,2.46,2.012,2.012,0,0,0,2.46,1.4c6.835-2.793,13.752-6.24,19.568-10.847a64.4,64.4,0,0,0,16.159-19.725,67.815,67.815,0,0,0,5.737-14.024,2.054,2.054,0,0,0-.919-2.258C384.685,96.17,377.454,95,370.8,94.417a63.778,63.778,0,0,0-19.549.973,30.013,30.013,0,0,0-11,4.9l2.736,2.737c5.509-8.161,7.146-18.445,8.282-28.047a63,63,0,0,0-1.922-23.124,31.31,31.31,0,0,0-4.507-10.377,14.124,14.124,0,0,0-1.722-2.072c-.894-.831-1.82-.684-2.917-.5a21.207,21.207,0,0,0-4.145,1.231,78.773,78.773,0,0,0-21.409,13.218,55.474,55.474,0,0,0-9.291,10.074,61.588,61.588,0,0,0-8.426,15.169c-.871,2.427,2.992,3.472,3.857,1.063Z"/><path class="b" d="M292.33,159.333a22.942,22.942,0,0,1-7.235,4.145,61.866,61.866,0,0,1-9.873,3.039,29.606,29.606,0,0,1-8.828.692,49.38,49.38,0,0,1-11.83-2.878l1.4,2.46c1-5.493,2.5-11.734,6.313-16.006.931-1.041.684-3.028-.882-3.343a44.568,44.568,0,0,1-9.635-3.3,38.959,38.959,0,0,1-8.481-4.86c-4.716-3.848-8.6-9.223-11.63-14.447-1.715-2.958-3.414-6.278-3.825-9.722l-.991,1.727A30.858,30.858,0,0,1,247,114.2a92.837,92.837,0,0,1,18.548,6.455c1.987.917,4.083-1.416,2.423-3.141a60.651,60.651,0,0,1-4.21-4.5,31.649,31.649,0,0,1-3.358-5.569,51.67,51.67,0,0,1-4.434-13.759,39.462,39.462,0,0,1,.543-14.486,58.01,58.01,0,0,1,4.311-13.573,39.334,39.334,0,0,1,2.691-4.887q.255-.389.525-.769.147-.206.3-.408c.318-.429-.258.3.063-.078a8.889,8.889,0,0,1,.949-1.01l-2.424.313A84.95,84.95,0,0,1,278.9,67.761c4.731,3.4,9.313,7.544,12.35,12.56,1.332,2.2,4.792.191,3.454-2.019-3.274-5.407-8.089-9.794-13.136-13.522a83.671,83.671,0,0,0-16.617-9.449,2.123,2.123,0,0,0-2.424.313c-2.022,1.755-3.426,4.487-4.606,6.837a60.3,60.3,0,0,0-4.929,14.058c-1.155,5.238-1.908,10.677-1.2,16.024a55.55,55.55,0,0,0,4.277,14.978,37.651,37.651,0,0,0,3.889,7.005,55.357,55.357,0,0,0,5.195,5.792l2.423-3.141a93.5,93.5,0,0,0-20.19-7.009,35.3,35.3,0,0,0-22.566,3.2,1.931,1.931,0,0,0-.99,1.727c.872,7.3,5.328,13.921,9.75,19.579a52.639,52.639,0,0,0,6.227,6.856,36.294,36.294,0,0,0,8.43,5.334,51.019,51.019,0,0,0,12.1,4.415l-.882-3.343c-4.315,4.829-6.2,11.531-7.342,17.772a2.061,2.061,0,0,0,1.4,2.46,53.349,53.349,0,0,0,12.893,3.021,33.467,33.467,0,0,0,9.892-.834,61.439,61.439,0,0,0,10.5-3.3,26.944,26.944,0,0,0,8.367-4.913c1.871-1.776-.961-4.6-2.828-2.829Z"/><path class="b" d="M303.182,120.776c-3.82,7.7-6.324,16.086-8.763,24.306-.734,2.473,3.125,3.53,3.857,1.063,2.34-7.884,4.695-15.959,8.36-23.35,1.139-2.3-2.31-4.328-3.454-2.019Z"/><path class="b" d="M306.278,137.96c3.777-.975,7.58-1.854,11.413-2.579a2.011,2.011,0,0,0,1.4-2.46,2.052,2.052,0,0,0-2.46-1.4c-3.833.725-7.637,1.6-11.414,2.579a2,2,0,0,0,1.064,3.857Z"/><path class="b" d="M288.987,127.15c1.181,2.422,2.214,4.919,3.453,7.312a15.025,15.025,0,0,0,3.86,5.111,2.056,2.056,0,0,0,2.828,0,2.02,2.02,0,0,0,0-2.829,8.931,8.931,0,0,1-1-.9c-.168-.176-.326-.361-.484-.546-.067-.079-.279-.377-.012-.006-.059-.082-.121-.163-.18-.245a21.327,21.327,0,0,1-1.636-2.759c-1.2-2.347-2.217-4.785-3.373-7.154a2.01,2.01,0,0,0-2.736-.718,2.051,2.051,0,0,0-.717,2.736Z"/><path class="c" d="M119.576,149.617c5.488,5.335,21.568,10.214,29.286,10.5,5.971.224,11.663-1.006,19.56-3.724-1.025-5.683-3.417-15.333-8.4-20.774,7.181-1.4,18.716-6.75,23.485-10.763,6.087-5.123,18.427-20.529,19.614-31.371a39.985,39.985,0,0,0-26.277-3.6A106.118,106.118,0,0,0,157.4,96.15l-4.383,2.023,3.747-3.895c7.254-7.539,12.982-25.289,12.3-35.5-1.367-20.392-9.888-34.221-12.82-36.7a104.075,104.075,0,0,0-22.69,13.355c-7.309,5.886-11.27,11.094-14.109,16.306l-5.756-.856c-1.789-6.572-7.558-16.442-13.994-24.2C90.853,16.015,69.232,2.577,60.685,2c-8.6,8.489-10.7,31.3-9.447,41.835,1.556,13.12,4.524,25.605,8.728,31.832l1.157,1.714-1.675-1.19c-5.963-4.237-15.558-5.848-23.633-6.059-7.589-.2-24.535.5-33.815,6.833,5.144,18.55,18.068,35.921,31.661,44.178a203.335,203.335,0,0,0,19.12,9.162c-12.5.072-35.027,14.685-39.12,24.421,3.236,4.127,8.987,7.74,17.09,9.858a61.408,61.408,0,0,0,24.631,1.027c6.56-1.176,12.285-1.739,19.248-4.8l2.109-.927-.238.291c-2.3,2.816-1.139,12.651-1.142,16.221,0,2.561,1.59,9.79,2.453,12.215,7.052.273,22-8.712,26.908-13.186,6.324-5.76,13.925-15.973,15.923-23.826"/><path class="b" d="M121.847,153.549c2.427,3.02,6.727,20.86,7.179,25.461a152.42,152.42,0,0,1,.034,29.983,11.518,11.518,0,0,1-6.713-1.1,79.991,79.991,0,0,0,3.062-17.795c.5-6.9,1.148-26.6-3.562-36.546"/><path class="b" d="M120.433,154.963c-.406-.524-.007.025.061.151.108.2.221.4.324.6a10.069,10.069,0,0,1,.561,1.277c.567,1.446,1.048,2.925,1.5,4.409,1.04,3.4,1.929,6.843,2.726,10.3.357,1.551.7,3.108.991,4.672.108.568.211,1.137.3,1.708.017.1.133.933.062.376.037.29.067.58.095.87.4,4.071.645,8.158.7,12.248a174.216,174.216,0,0,1-.7,17.413l1.469-1.928a10.688,10.688,0,0,1-5.65-1.1l1.4,2.461a100.175,100.175,0,0,0,2.5-11.9c.448-3.4.7-6.818.845-10.239a121.747,121.747,0,0,0-.863-21.978,41.27,41.27,0,0,0-3.187-11.761,2.016,2.016,0,0,0-2.736-.718,2.045,2.045,0,0,0-.718,2.736c2.919,6.274,3.328,13.833,3.558,20.64A136.77,136.77,0,0,1,123,194.735a90.134,90.134,0,0,1-2.577,12.623,2.061,2.061,0,0,0,1.4,2.46,14.094,14.094,0,0,0,7.776,1.1,2.027,2.027,0,0,0,1.468-1.929,162.618,162.618,0,0,0,.059-29.014,99.525,99.525,0,0,0-4.258-19.236c-.874-2.9-1.718-6.18-3.6-8.608a2.01,2.01,0,0,0-2.828,0,2.052,2.052,0,0,0,0,2.828Z"/><path class="b" d="M52.69,128.307c-6.45.119-12.806,2.866-18.416,5.832a69.552,69.552,0,0,0-16.953,12.248,24.867,24.867,0,0,0-5.387,7.33,2.143,2.143,0,0,0,.313,2.424c5.224,6.556,13.97,9.826,21.976,11.244a65.519,65.519,0,0,0,14.45.955,105.747,105.747,0,0,0,13.87-1.935,66.984,66.984,0,0,0,15.206-4.794l-2.424-3.141c-1.685,2.066-2.048,4.569-2.2,7.172a82.166,82.166,0,0,0,.157,8.552,53.242,53.242,0,0,0,2.6,14.949,2.074,2.074,0,0,0,1.929,1.468c3.374.088,6.733-1.183,9.79-2.475a77.325,77.325,0,0,0,10.809-5.687,52.8,52.8,0,0,0,8.095-5.952,68.252,68.252,0,0,0,9.179-10.7,43.577,43.577,0,0,0,6.887-13.672c.654-2.492-3.2-3.555-3.857-1.063a38.22,38.22,0,0,1-5.461,11.221,65.309,65.309,0,0,1-8.45,10.3c-4.815,4.762-11.046,8.353-17.2,11.2-3.03,1.4-6.588,2.905-9.794,2.822l1.929,1.468a47.175,47.175,0,0,1-2.43-13.381c-.115-2.6-.288-5.2-.229-7.81a20.522,20.522,0,0,1,.306-3.553,7.7,7.7,0,0,1,.381-1.4c-.1.253.123-.236.145-.284.265-.577-.07.028.239-.352a2.01,2.01,0,0,0-2.423-3.141A59.891,59.891,0,0,1,63.307,162.2a109.312,109.312,0,0,1-12.743,2.021c-8.669.685-18.02-.238-26-3.889a25.3,25.3,0,0,1-9.49-7.021l.312,2.424c2.086-4.842,6.671-8.662,10.809-11.758a68.488,68.488,0,0,1,17.456-9.7,28.345,28.345,0,0,1,9.037-1.972c2.571-.048,2.579-4.048,0-4Z"/><path class="b" d="M115.613,50.351a88.38,88.38,0,0,0-7.894-15.712,67.016,67.016,0,0,0-10-13.012A99.036,99.036,0,0,0,71.7,3.59a53.125,53.125,0,0,0-6.059-2.518A15.635,15.635,0,0,0,60.685,0c-1.294.024-2.2,1.372-2.921,2.3A25.068,25.068,0,0,0,55.8,5.185a38.48,38.48,0,0,0-2.9,6.447,71.249,71.249,0,0,0-3.35,15.305,81.28,81.28,0,0,0-.568,13.834,110.366,110.366,0,0,0,3.331,20.678A51.877,51.877,0,0,0,59.4,78.392l2.737-2.736a35.624,35.624,0,0,0-11.8-5.593,63.64,63.64,0,0,0-14.321-1.924,89.185,89.185,0,0,0-22.241,2.01A37.963,37.963,0,0,0,.99,75.239,2.064,2.064,0,0,0,.071,77.5a85.024,85.024,0,0,0,16.176,30.723,71.172,71.172,0,0,0,11.715,11.423,97.036,97.036,0,0,0,8.79,5.8c4.447,2.7,9.23,5.42,14.331,6.625,2.5.591,3.572-3.265,1.064-3.858-4.3-1.016-8.293-3.221-12.076-5.445-2.823-1.659-5.669-3.394-8.342-5.287-8.553-6.054-15.4-14.591-20.528-23.661A78.437,78.437,0,0,1,3.928,76.435l-.919,2.258c6.312-4.238,14.413-5.564,21.846-6.21A74.855,74.855,0,0,1,47.5,73.492,36.6,36.6,0,0,1,54.5,75.7a33.167,33.167,0,0,1,5.614,3.411c1.625,1.155,3.828-1.119,2.736-2.736A37.969,37.969,0,0,1,59.4,70.4a56.616,56.616,0,0,1-2.649-7.8,119.268,119.268,0,0,1-3.586-19.424A74.37,74.37,0,0,1,55.7,16.053c1.267-4.5,3.035-9.261,6.4-12.638L60.685,4c.173.013.346.028.518.049-.469-.056.153.028.2.038.33.064.66.129.987.207.817.194,1.62.441,2.413.713a47.134,47.134,0,0,1,5.421,2.3,101.728,101.728,0,0,1,12.546,7.4,91.5,91.5,0,0,1,11.555,9.2,59.76,59.76,0,0,1,9.083,11.382,85.142,85.142,0,0,1,8.345,16.121c.88,2.4,4.748,1.361,3.857-1.063Z"/><path class="b" d="M118.162,151.031a27.5,27.5,0,0,0,7.366,4.727,72.2,72.2,0,0,0,10,3.788c6.277,1.885,12.739,3.119,19.3,2.313a70.1,70.1,0,0,0,14.122-3.533,2.063,2.063,0,0,0,1.4-2.46c-1.381-7.58-3.655-15.8-8.912-21.657l-.883,3.343a59.689,59.689,0,0,0,12.954-4.524,50.478,50.478,0,0,0,11.319-6.676,55.051,55.051,0,0,0,7.376-7.777,83.175,83.175,0,0,0,7.986-11.544,36.663,36.663,0,0,0,4.932-13.542,1.929,1.929,0,0,0-.99-1.727,43.727,43.727,0,0,0-22.106-4.619c-6.806.482-13.669,2.657-20.043,4.99-3.411,1.248-6.683,2.793-9.978,4.313l2.424,3.141a76.363,76.363,0,0,0,5.562-6.028,42.274,42.274,0,0,0,4.513-7.4,67.694,67.694,0,0,0,5.871-18.056,54.117,54.117,0,0,0-.595-19.415,76.247,76.247,0,0,0-5.725-18.038,48.58,48.58,0,0,0-3.506-6.392,17.2,17.2,0,0,0-2.9-3.6,2.117,2.117,0,0,0-2.424-.313c-14.738,6.33-29.5,16.066-37.517,30.378-1.259,2.249,2.194,4.268,3.454,2.019C128.861,39.011,143.13,29.869,157.25,23.8l-2.424-.313a8.91,8.91,0,0,1,.964,1c.092.107.18.217.269.326.294.359-.109-.156.113.145s.445.612.659.925a43.592,43.592,0,0,1,2.862,4.913,69.1,69.1,0,0,1,5.612,15.968c1.368,6.028,2.295,12.345,1.486,18.516a62.2,62.2,0,0,1-4.78,16.787,46.44,46.44,0,0,1-4.6,8.3,59.385,59.385,0,0,1-5.808,6.385c-1.648,1.713.419,4.066,2.423,3.141,3.493-1.612,6.952-3.208,10.593-4.469a116.288,116.288,0,0,1,12.242-3.5,38.437,38.437,0,0,1,25.254,3.28l-.991-1.726c-.445,3.785-2.155,7.444-3.959,10.753a75.287,75.287,0,0,1-7.158,10.722,63.345,63.345,0,0,1-7.277,7.93,41.1,41.1,0,0,1-9.547,5.883,57.6,57.6,0,0,1-13.689,4.918c-1.564.312-1.816,2.3-.883,3.342,4.76,5.3,6.639,13.058,7.884,19.892l1.4-2.46c-6.745,2.309-13.793,4.294-20.991,3.5a63.385,63.385,0,0,1-18-5.05,26.924,26.924,0,0,1-7.911-4.717c-1.863-1.776-4.7,1.048-2.829,2.828Z"/><path class="b" d="M104.817,102.7a141.677,141.677,0,0,1,6.031,14.255,84.5,84.5,0,0,1,4.3,14.577,2.018,2.018,0,0,0,2.461,1.4,2.047,2.047,0,0,0,1.4-2.46,85.6,85.6,0,0,0-4.429-14.932,150.774,150.774,0,0,0-6.3-14.856c-1.147-2.305-4.6-.281-3.454,2.019Z"/><path class="b" d="M107.029,117.73c-5.2-1.382-10.438-2.615-15.722-3.615a2.053,2.053,0,0,0-2.46,1.4,2.018,2.018,0,0,0,1.4,2.46c5.285,1,10.525,2.233,15.722,3.615,2.491.662,3.553-3.2,1.064-3.857Z"/><path class="b" d="M119.8,108.068c-1.032,2.613-1.917,5.284-2.988,7.881.081-.195.023-.05-.025.061-.064.145-.127.29-.192.435-.114.254-.231.506-.353.755-.232.474-.479.941-.75,1.393q-.215.358-.45.7c-.062.09-.127.178-.189.268-.214.311.12-.137-.031.042a10.96,10.96,0,0,1-1.027,1.084,2,2,0,1,0,2.828,2.829,16.212,16.212,0,0,0,3.769-5.848c1.189-2.807,2.146-5.706,3.265-8.541a2.014,2.014,0,0,0-1.4-2.46,2.047,2.047,0,0,0-2.46,1.4Z"/></svg>