<?xml version="1.0" encoding="utf-8"?>
<!-- Uploaded to: SVG Repo, www.svgrepo.com, Generator: SVG Repo Mixer Tools -->
<svg width="800px" height="800px" viewBox="0 -6.93 350.773 350.773" xmlns="http://www.w3.org/2000/svg"><defs><style>.a{fill:#ffffff;}.b{fill:#cfcfcf;}.c{fill:#211715;}.d{fill:#bce2ef;}.e{fill:#8acc89;}</style></defs><path class="a" d="M2.566,158.021c0,54.08,33.721,88.265,87.179,88.265,54.7,0,87.178-34.185,87.177-88.265-.171-51.7-.379-107.2-.459-138.108A17.556,17.556,0,0,0,158.893,2.4c-34.265.02-104.813.073-138.914.093A17.552,17.552,0,0,0,2.436,20.052C2.43,51.755,2.4,126.116,2.4,158.021Z"/><path class="b" d="M89.742,97.444c-36.184,0-61.2,28.026-61.2,60.82,0,37.962,23.671,61.96,61.2,61.96,38.4,0,61.2-24,61.2-61.96C150.941,125.246,125.8,97.444,89.742,97.444Zm0,107.4c-28.123,0-45.863-17.984-45.863-46.435,0-24.576,18.744-45.579,45.861-45.579,27.023,0,45.865,20.835,45.865,45.579C135.607,186.857,118.522,204.841,89.744,204.841Z"/><path class="c" d="M4.8,158.021q0-18.756.006-37.513.006-23.218.014-46.437.006-21.084.013-42.168,0-4.143,0-8.287c0-3.109-.093-6.1,1.02-9.067A15.076,15.076,0,0,1,12.1,7.108c3.006-1.826,6.151-2.211,9.6-2.213l41.186-.028L111.4,4.834l42.67-.029c3.082,0,6.229-.247,9.217.641a15.062,15.062,0,0,1,7.921,5.646,16.247,16.247,0,0,1,2.852,9.66q.014,5.069.029,10.139.075,25.575.168,51.151.1,30.4.21,60.806l.051,15.173c.01,3.088,4.81,3.094,4.8,0q-.1-31.338-.215-62.676-.1-27.578-.186-55.155-.018-5.686-.034-11.374c-.01-3.353.167-6.772-.07-10.118A20.2,20.2,0,0,0,165.2,1.02C161.845-.121,158.352,0,154.863.005l-9.339.006L123.767.025,74.617.059,29.69.09c-6.775,0-13.961-.8-20.012,2.874a19.935,19.935,0,0,0-7.7,8.518A24.186,24.186,0,0,0,.035,22.018q0,19.554-.011,39.109Q.017,84.851.01,108.575,0,129.435,0,150.295v7.726c0,3.089,4.8,3.094,4.8,0Z"/><path class="d" d="M34.038,30.023c0,12.229-.013,29.558-.014,42.677a2.443,2.443,0,0,0,2.448,2.446c15.468-.011,87.288-.073,106.387-.079a2.437,2.437,0,0,0,2.439-2.446c0-15.488-.036-31.626-.04-42.461a2.436,2.436,0,0,0-2.44-2.441c-19.28-.011-88.111-.125-106.33-.137A2.442,2.442,0,0,0,34.038,30.023Z"/><path class="c" d="M31.638,30.023q0,11.043-.007,22.087,0,5.894,0,11.787,0,2.754,0,5.507c0,1.766-.3,3.832.519,5.461,1.8,3.595,6.9,2.679,10.266,2.676l11.58-.009,31.063-.025,32.779-.025q11.955-.007,23.91-.014a6.62,6.62,0,0,0,3.562-.662,5.278,5.278,0,0,0,2.394-4.9q0-6.476-.009-12.95-.012-11.893-.028-23.787c0-3.315.8-7.859-2.966-9.448-1.636-.689-3.785-.4-5.541-.4q-5.82,0-11.638-.012L95.609,25.26l-33.588-.047q-12.172-.018-24.344-.03a7.614,7.614,0,0,0-3.067.4,4.946,4.946,0,0,0-2.972,4.443,2.4,2.4,0,0,0,4.8,0c.019-.281,18.979-.019,20.363-.018l31.182.044,31.891.045,13.064.016,5.4.006,2.272,0a7.376,7.376,0,0,1,2,0c.077.027.189-.041.249.024.2.214,0,1.59,0,1.91q0,2.422,0,4.844.006,5.475.013,10.949.007,6.029.014,12.057,0,3.115.005,6.229,0,1.564,0,3.128,0,.72,0,1.442a7.277,7.277,0,0,1,0,1.919c-.164.147-.778.047-1.011.047h-2.016l-4.8,0-12.139.008-30.6.023-31.118.024-22.241.018c-.5,0-2.187.261-2.554-.044a9.535,9.535,0,0,1,0-2.507q0-1.3,0-2.592,0-2.8,0-5.6,0-11.1.009-22.2,0-4.889,0-9.778C36.439,26.935,31.639,26.929,31.638,30.023Z"/><path class="b" d="M75.631,148.32q0,6.587,0,13.171,0,3.3,0,6.6c0,2.278.308,4.782,3.153,4.862,5.376.153,10.781-.02,16.159-.029l3.865-.006c1.13,0,2.544.2,3.551-.392a3.727,3.727,0,0,0,1.5-3.216c.069-1.343,0-2.708,0-4.053q0-3.739,0-7.477l0-6.7c0-2.074.463-5.342-2.079-6.149a11.469,11.469,0,0,0-3.273-.152l-4.067-.013-10.68-.034-4.039-.012a7.441,7.441,0,0,0-1.858.083c-1.632.426-2.134,2.031-2.226,3.516a2.4,2.4,0,1,0,4.8,0c.007-.121,0-.1-.01.07l-1.435,1.1c-.465.193-.446.014-.145.026.161.006.322,0,.483,0l1,0,2.686.008,6.654.022,6.691.021,2.639.008,1.05,0c.17,0,.341,0,.511,0,.354-.008.4.17-.06-.024l-1.434-1.1c-.015-.167-.019-.191-.012-.07v1.642q0,1.262,0,2.521,0,2.72,0,5.437l0,5.917q0,1.575,0,3.15v2.251c-.007.121,0,.1.012-.067l1.434-1.1c.457-.192.434-.016.08-.024-.163,0-.326,0-.489,0l-1.009,0-2.782,0-6.819.012-6.693.012-2.62,0-.912,0c-.123,0-.247,0-.371,0-.371.01-.371-.167.092.026l1.435,1.1c.17.228.01-.407.01-.646v-3.766q0-2.9,0-5.794,0-5.376,0-10.752C80.431,145.232,75.631,145.227,75.631,148.32Z"/><path class="c" d="M.166,158.021C.192,177.244,4.47,196.887,15.333,213a79.349,79.349,0,0,0,42.243,31.023,105.624,105.624,0,0,0,29.379,4.63,114.622,114.622,0,0,0,30.094-3.13c17.218-4.267,33.031-13.593,43.973-27.7,11.589-14.937,16.983-33.529,18.081-52.219.148-2.527.216-5.057.219-7.589,0-3.088-4.8-3.093-4.8,0-.023,18.144-3.782,36.526-13.7,51.858a72.584,72.584,0,0,1-38.556,29.154,101.14,101.14,0,0,1-27.956,4.772,108.852,108.852,0,0,1-28.9-2.6c-16.7-3.94-31.795-12.62-42.593-26.06C11.7,201.3,6.293,183.4,5.2,165.692c-.158-2.554-.23-5.112-.233-7.671,0-3.088-4.805-3.094-4.8,0Z"/><path class="a" d="M246.441,256.377c-.714,2.287-2.124,8.91-2.32,10.406-.748,5.718-2,15.288-1.37,18.444.778,3.9,2.513,7.92,6.1,9.625s8.552.493,10.309-3.074l.129-.261c.033.632.067,1.265.067,1.265.207,3.851,3.6,9.8,5.194,11.26a6.075,6.075,0,0,0,5.982,1.488c2.067-.759,3.314-2.824,4.334-4.775A29.922,29.922,0,0,0,277.4,292.3"/><path class="c" d="M275,292.3c-.049.446.052-.218-.036.257-.046.243-.087.486-.137.729-.116.564-.253,1.124-.4,1.681-.3,1.116-.653,2.22-1.063,3.3-.041.106-.252.638-.184.475.075-.178-.135.3-.176.388-.217.46-.461.909-.713,1.351a7.553,7.553,0,0,1-1.8,2.351c-.058.049-.651.4-.723.424-.127.044-.256.077-.386.112.012,0-.408.069-.205.045-.011,0-.54,0-.741-.016.29.029-.448-.111-.547-.14a2.8,2.8,0,0,1-.439-.15,4.911,4.911,0,0,1-1.2-.764c-.2-.189-.373-.4-.558-.6-.287-.318.222.326-.045-.059-.13-.187-.264-.37-.391-.558a25.956,25.956,0,0,1-1.462-2.469,20.179,20.179,0,0,1-1.345-3.038c-.187-.537-.353-1.081-.486-1.633-.063-.261-.111-.523-.165-.784-.007-.035-.055-.4-.02-.113.038.315-.019-.309-.019-.307a2.457,2.457,0,0,0-2.4-2.4,2.421,2.421,0,0,0-2.4,2.4,20.541,20.541,0,0,0,2.348,7.625,18.416,18.416,0,0,0,3.549,5.332,8.393,8.393,0,0,0,9.134,1.766c2.506-1.154,4.19-3.784,5.281-6.224a30.323,30.323,0,0,0,2.527-8.98,2.414,2.414,0,0,0-2.4-2.4,2.456,2.456,0,0,0-2.4,2.4Z"/><path class="c" d="M261.762,273.859a38.725,38.725,0,0,1-3.213,13.879,14.081,14.081,0,0,1-2.17,3.89,5.718,5.718,0,0,1-5.05,1.511,6.881,6.881,0,0,1-4.767-3.96,15.29,15.29,0,0,1-1.215-3.348q-.113-.441-.209-.887c.041.189-.162-.889-.087-.39.062.412-.022-.267-.023-.279-.015-.231-.029-.462-.037-.693-.167-4.791.612-9.67,1.22-14.409.076-.6.155-1.19.231-1.785.125-.981-.058.317.03-.222.028-.168.056-.336.086-.5.18-1.028.394-2.05.611-3.071.467-2.2.928-4.423,1.587-6.576.905-2.961-3.727-4.226-4.629-1.276a78.115,78.115,0,0,0-2.631,12.766c-.364,2.816-.713,5.634-.977,8.461a42.333,42.333,0,0,0-.291,7.309c.448,5.5,3.532,11.743,9.2,13.343a11.05,11.05,0,0,0,8.111-.9,11.221,11.221,0,0,0,4.543-5.191,42.219,42.219,0,0,0,4.484-17.664c.029-3.089-4.771-3.092-4.8,0Z"/><path class="a" d="M256.769,277.063a79.866,79.866,0,0,1,10.443,17.054c3.207,7.109,4.845,12.822,8.206,17.654,4.125,7.542,17.1,13.867,28.628,22.534,4.808,2.335,45.57-15.892,44.3-22.947,0,0-.122-1.166-.183-1.355-10.623-34.851-7.8-55.14-23.03-88.153a18.306,18.306,0,0,0-8.549-8.8c-11.727-5.723-21.832-7.248-33.539-13.071q-1.486-.739-2.957-1.509c-3.142-1.641-9.827-.682-14.79-.178v29.872a18.062,18.062,0,0,1,4.667.337,9.122,9.122,0,0,1,2.6.851,8.742,8.742,0,0,1,1.965,1.786,70.9,70.9,0,0,0,16.457,13.8q-1.781,3.213-3.5,6.463s-.993,1.591-2.113,3.383l-1.406-.246c-16.195-1.915-29.172-13.656-43.132-22.086-4.087-2.468-9.486-4.656-13.283-1.417a7.69,7.69,0,0,0-2.539,5.595c-.155,3.817,1.744,7.167,3.851,10.2,8.978,12.916,18.067,17.958,27.9,30.236"/><path class="c" d="M305.89,246.182c-3.989.477-7.521,2.134-11.137,3.793-3.182,1.461-6.363,2.74-9.862,2.279a2.411,2.411,0,0,0-2.4,2.4,2.461,2.461,0,0,0,2.4,2.4c3.89.512,7.615-.852,11.112-2.4,3.164-1.4,6.435-3.256,9.887-3.669a2.475,2.475,0,0,0,2.4-2.4,2.414,2.414,0,0,0-2.4-2.4Z"/><path class="c" d="M294.128,234.647q-4.545,7.662-8.709,15.541a2.4,2.4,0,1,0,4.145,2.423q4.161-7.878,8.709-15.542a2.4,2.4,0,0,0-4.145-2.422Z"/><path class="c" d="M291.642,242.522a66.7,66.7,0,0,1-10.319-7.875c-1.6-1.5-3.128-3.061-4.608-4.672a15.183,15.183,0,0,0-2.657-2.516,10.23,10.23,0,0,0-3.454-1.272,2.453,2.453,0,0,0-2.952,1.677,2.426,2.426,0,0,0,1.676,2.952,5.389,5.389,0,0,1,2.465.935,30.67,30.67,0,0,1,2.255,2.4c1.482,1.581,3.016,3.113,4.619,4.57a73.328,73.328,0,0,0,10.553,7.945c2.628,1.639,5.041-2.512,2.422-4.145Z"/><path class="c" d="M270.6,200.155c2.531-.211,5.545-.623,7.993.275,1.222.448,2.475,1.243,3.69,1.837q2.154,1.053,4.362,1.988c5.518,2.345,11.228,4.13,16.888,6.085,2.807.969,5.6,1.986,8.329,3.168a25.736,25.736,0,0,1,7.11,3.986,17.739,17.739,0,0,1,4.294,6q1.858,4.04,3.477,8.181a175.568,175.568,0,0,1,8.473,29.764c1.947,9.763,3.441,19.61,5.527,29.347,1.2,5.611,2.581,11.184,4.176,16.7q.325,1.124.662,2.246c.09.3.2.605.275.909.113.444-.044-.337.026.107.065.406.118.835.154,1.243-.085-.985-.051-.3-.071-.062.073-.871.053-.368-.032-.111-.166.5.317-.444.032-.065-.239.319-.417.7-.653,1.033.459-.639-.01-.008-.138.137q-.219.246-.449.481c-.4.407-.814.792-1.244,1.163-.2.175-.406.346-.612.514-.127.1-.747.591-.322.264-.587.452-1.189.885-1.8,1.307a85.119,85.119,0,0,1-8.121,4.892,131.074,131.074,0,0,1-18.228,8.193,52.81,52.81,0,0,1-7.218,2.141c-.266.053-1.7.212-.787.152-.389.026-.773.063-1.163.077a2.734,2.734,0,0,0-.412-.018c-.226.047.682.155.175.009-.621-.179.866.693-.1-.143-.631-.545-1.364-1-2.041-1.49-4.749-3.4-9.711-6.486-14.514-9.807-3.568-2.468-7.565-5.216-10.031-8.784a65.694,65.694,0,0,1-6.451-12.919,98.6,98.6,0,0,0-8.08-16.226,88.124,88.124,0,0,0-5.309-7.363,2.415,2.415,0,0,0-3.394,0,2.459,2.459,0,0,0,0,3.394,78.486,78.486,0,0,1,9.7,15.755c2.4,5.157,4.112,10.65,6.841,15.652a34.378,34.378,0,0,0,8.849,10.607c4.5,3.6,9.387,6.662,14.171,9.855,2.652,1.769,5.246,3.608,7.832,5.471a4.673,4.673,0,0,0,2.909.807,24.49,24.49,0,0,0,6.693-1.343,124.189,124.189,0,0,0,19.042-7.84c5.639-2.8,11.517-5.885,16.205-10.156,1.589-1.447,3.265-3.308,3.435-5.553a4.205,4.205,0,0,0,.023-.42c0-.055-.011-.108-.014-.162l-.086-.638q.105.825.048.324a21.451,21.451,0,0,0-.917-4.016q-1.266-4.309-2.362-8.666c-5.155-20.46-6.9-41.679-13.757-61.715a127.79,127.79,0,0,0-6.81-16.767,20.3,20.3,0,0,0-5.086-6.348,31.68,31.68,0,0,0-7.942-4.433c-5.662-2.427-11.526-4.262-17.341-6.271-2.948-1.019-5.884-2.093-8.737-3.355-1.472-.65-2.921-1.348-4.36-2.069a20.667,20.667,0,0,0-4.19-1.864,26.882,26.882,0,0,0-8.623-.262,2.462,2.462,0,0,0-2.4,2.4,2.418,2.418,0,0,0,2.4,2.4Z"/><path class="a" d="M161.318,139.662c-8.474,0-47.468-.072-62.215-.113a5.644,5.644,0,0,0-5.66,5.607c-.091,13.368-.31,38.422-.31,44.182,0,8.824-.078,42.558-.1,58.45a5.645,5.645,0,0,0,5.639,5.657c27.263.039,140.926.278,167.088.332a4.735,4.735,0,0,0,4.746-4.732c.02-15.295.1-50.643.1-59.707,0-5.687.213-30.182.307-43.657a5.648,5.648,0,0,0-5.629-5.69C243.694,139.918,167.446,139.662,161.318,139.662Z"/><path class="c" d="M161.318,137.262q-12.926,0-25.853-.036-16.334-.029-32.669-.067c-2.467-.006-5.037-.267-7.319.854-3.188,1.566-4.418,4.727-4.441,8.091q-.061,8.848-.134,17.7c-.072,9.295-.162,18.59-.17,27.884q-.013,15.81-.055,31.619-.017,8.8-.033,17.591c0,2.4-.147,4.844,0,7.239a8.155,8.155,0,0,0,6.05,7.464,20.957,20.957,0,0,0,4.882.252l4.248.007,10.624.019,27.332.053,32.217.064,33.107.068,29.532.061,21.968.045c3.608.008,7.918.643,10.528-2.425,2-2.354,1.776-5.2,1.781-8.084q.006-3.747.013-7.493.032-17.47.066-34.939c.014-7.8.014-15.6.067-23.395q.065-9.231.139-18.463.037-4.66.072-9.323.017-2.109.031-4.218a15.057,15.057,0,0,0-.307-4.45,8.2,8.2,0,0,0-7.706-5.785c-1.452-.041-2.91-.01-4.363-.015l-11.532-.038-29.99-.1-31.177-.1q-11.11-.034-22.222-.066-2.341-.006-4.684-.009c-3.088,0-3.094,4.8,0,4.8,4.659,0,9.317.022,13.976.035q13.542.04,27.085.085l31.207.1,25.943.087,4.576.015c1.958.007,4.027.433,4.377,2.749a23.632,23.632,0,0,1,.011,3.59q-.016,2.154-.032,4.306-.035,4.525-.07,9.05c-.074,9.514-.178,19.028-.183,28.542q-.009,14.544-.049,29.088-.016,8.7-.033,17.391-.007,3.7-.013,7.4,0,1.657,0,3.315a3.894,3.894,0,0,1-.568,2.762c-.942,1.082-2.594.792-3.9.79l-3.913-.008-9.839-.021-26.027-.054-31.071-.064-32.509-.066-29.891-.059-23.266-.042c-2.677,0-5.353,0-8.03-.013a3.419,3.419,0,0,1-3.665-3.733c-.005-2.385.008-4.77.012-7.155q.031-17.511.067-35.021c.013-7.684.006-15.369.055-23.053q.112-17.355.26-34.71c.016-2.2-.06-4.95,2.739-5.389a38.064,38.064,0,0,1,5.781-.022q7.62.018,15.239.033,16.143.033,32.286.056,4.723.007,9.446.01C164.407,142.062,164.412,137.262,161.318,137.262Z"/><path class="b" d="M254.406,154.434c-6.595,0-13.19.029-19.785.03a3.2,3.2,0,1,0,0,6.4c6.595,0,13.19-.03,19.785-.03a3.2,3.2,0,1,0,0-6.4Z"/><path class="e" d="M150.2,151.053c-9.958,0-25.6-.073-39.765-.112a5.637,5.637,0,0,0-5.657,5.6c-.091,13.367-.309,32.757-.309,38.517,0,8.826-.078,25.556-.1,41.449A5.637,5.637,0,0,0,110,242.16c17.8.025,54.4.136,95.8.225a1.994,1.994,0,0,0,1.769-2.931c-9.335-17.565-43.623-67.75-55.668-87.445A2,2,0,0,0,150.2,151.053Z"/><path class="a" d="M256.769,277.063c-9.832-12.278-18.921-17.32-27.9-30.236-2.107-3.031-4.006-6.381-3.851-10.2a7.69,7.69,0,0,1,2.539-5.595c3.8-3.239,9.2-1.051,13.283,1.417,13.96,8.43,26.937,20.171,43.132,22.086"/><path class="c" d="M258.466,275.366c-4.993-6.2-10.849-11.5-16.526-17.053a100.1,100.1,0,0,1-7.931-8.594c-2.4-2.969-5.152-6.327-6.215-10.061-.839-2.951-.314-6.872,3.158-7.724,3.213-.788,6.758,1.41,9.369,3.01,6.628,4.061,12.878,8.7,19.516,12.749,7.454,4.545,15.4,8.166,24.136,9.244a2.413,2.413,0,0,0,2.4-2.4,2.459,2.459,0,0,0-2.4-2.4c-16.371-2.021-28.838-14.254-42.577-22.145-3.441-1.977-7.524-3.609-11.548-2.729-4.313.944-6.955,4.955-7.218,9.178-.27,4.339,1.9,8.352,4.305,11.794a87.726,87.726,0,0,0,8.532,10.371c6.5,6.788,13.691,12.807,19.6,20.154a2.415,2.415,0,0,0,3.394,0,2.458,2.458,0,0,0,0-3.394Z"/></svg>