<?xml version="1.0" encoding="utf-8"?>
<!-- Uploaded to: SVG Repo, www.svgrepo.com, Generator: SVG Repo Mixer Tools -->
<svg width="800px" height="800px" viewBox="0 -15.94 401.838 401.838" xmlns="http://www.w3.org/2000/svg"><defs><style>.a{fill:#ffffff;}.b{fill:#211715;}.c{fill:#79c6e0;}.d{fill:#afddec;}.e{fill:#7a7473;}.f{fill:#d9d9d9;}.g{fill:#5394cf;}.h{fill:#b3b3b3;}</style></defs><path class="a" d="M216.835,165.024c5.628-.9,25.046-5.5,29.577-6.469-.759-4.63-6.207-22.472-7.331-26.85-.493-1.3-.967-2.62-1.5-3.912l-1.052-1.739c-2.667-4.41-6.939-7.587-11.25-10.411a122.042,122.042,0,0,0-23.4-12.529H153.552a122.05,122.05,0,0,0-23.4,12.529c-4.31,2.824-8.582,6-11.249,10.411l-1.052,1.739c-.533,1.292-2.558,6.1-3.051,7.4-1.767,5.616-5.707,17.323-6.4,23.379,4.531.967,24.564,5.546,30.193,6.448Z"/><path class="b" d="M110.408,158.576a78.3,78.3,0,0,1,3.192-12.9c1.171-3.876,2.258-7.849,3.793-11.6.721-1.762,1.376-3.59,2.2-5.305a21.309,21.309,0,0,1,3.544-5c3.861-4.139,8.94-7.106,13.729-10.036a114.771,114.771,0,0,1,17.213-8.7,2.062,2.062,0,0,0,1.4-2.461,2.014,2.014,0,0,0-2.46-1.4,118.256,118.256,0,0,0-16.217,7.931c-5.144,3.038-10.493,6.207-14.908,10.267a28,28,0,0,0-5.014,6.155,39.762,39.762,0,0,0-2.5,5.422c-1.576,3.792-2.8,7.669-4.011,11.591-1.622,5.234-3.315,10.565-3.967,16.025a2.011,2.011,0,0,0,2,2,2.049,2.049,0,0,0,2-2Z"/><path class="b" d="M248.341,158.023a102.236,102.236,0,0,0-2.684-10.542c-1.2-4.245-2.439-8.474-3.651-12.714-.426-1.49-.779-3.012-1.323-4.463a26.41,26.41,0,0,0-1.974-4.511,31.405,31.405,0,0,0-2.143-3.154c-3.91-4.987-9.6-8.384-14.907-11.686a122.762,122.762,0,0,0-19.243-9.768,2.015,2.015,0,0,0-2.461,1.4,2.05,2.05,0,0,0,1.4,2.461,113.127,113.127,0,0,1,16.324,8.16c5.143,3.1,10.656,6.266,14.757,10.724A20.269,20.269,0,0,1,236.5,130.5c.595,1.579,1.031,3.165,1.492,4.785,1.146,4.03,2.33,8.049,3.473,12.08a111.785,111.785,0,0,1,3.019,11.726,2.015,2.015,0,0,0,2.46,1.4,2.047,2.047,0,0,0,1.4-2.46Z"/><path class="c" d="M216.48,183.077c.36-13.095,1.6-34,1.6-44.4,0-3.34,1.237-23.871.781-28.244a35.8,35.8,0,0,0-12.228-6.782c-.985,3.853-1.955,20.229-2.625,24.183-5.579.918-49.725,1.44-52.484.576-.845-4.684-2.272-22.89-2.869-25.3-2.592.6-9.917,5-12.475,7.277-.57,4.28.511,25.624.511,28.965,0,10.65,2.549,28.066,2.968,40.177,1.4,1.143,2.8,2.331,4.273,3.677,2.133,1.945,8.6,9.02,14.279,12.474a16.751,16.751,0,0,0,2.841,1.42v6.286l55.562-.889Z"/><path class="a" d="M210.315,53.84A4.852,4.852,0,0,1,214.2,52.7a4.582,4.582,0,0,1,3.3,2.19,6.481,6.481,0,0,1,.678,2.607,19.41,19.41,0,0,1-1.98,10.294A12.335,12.335,0,0,1,213,71.984,8.185,8.185,0,0,1,209.2,73.7l-.651.1c-.312,1.169-.663,2.153-.835,2.676-.983,2.666-5.967,11.148-12.523,15.684,0,1.844,0,3.363,0,3.363a49.333,49.333,0,0,1-14.235,9.921c-.295.134-.623.3-.718.606h-4.857c-.095-.309-.609-.554-.9-.694a51.831,51.831,0,0,1-14.053-9.833V92.2a30.776,30.776,0,0,1-6.6-6.02,33.025,33.025,0,0,1-6.293-12.284L146.29,73.7a8.185,8.185,0,0,1-3.806-1.715,12.335,12.335,0,0,1-3.191-4.189,19.41,19.41,0,0,1-1.98-10.294,6.481,6.481,0,0,1,.678-2.607,4.582,4.582,0,0,1,3.3-2.19,4.855,4.855,0,0,1,3.884,1.136s-5-30.827,32.778-30.827S210.315,53.84,210.315,53.84Z"/><path class="a" d="M207.56,223.437a52.588,52.588,0,0,1-6.841,1.7,122.374,122.374,0,0,1-14.931,1.14c-5.213.011-11.016-4.616-14.95-7.12l-30.126-16.648c-3.761-2.052-5.871-3.13-9.254-5.329-4.773-3.1-9.442-6.349-14.023-9.655-5.3-3.822-5.488-7.264-4.866-13.292.484-4.7.773-9.636,1.211-14.315l.012-.16c6.514,1.45,16.516,3.681,22.116,4.771-.031.138-.046.213-.046.213-.641,3.095-1.232,5.617-1.765,7.768a3.474,3.474,0,0,0,1.227,3.56c3,2.363,5.643,4.428,8.612,7.135,2.133,1.945,8.6,9.02,14.279,12.474a16.751,16.751,0,0,0,2.841,1.42l.451,3.1,39,10.475s7.089,3.739,8.556,7.222C210.838,222.125,207.56,223.437,207.56,223.437Z"/><path class="a" d="M342.8,212.733l17.09,0c3.54,0,7.133,1.463,9.03,4.451a307.684,307.684,0,0,1,20.362,38.6c3.17,7.43,1.714,19.9,1.714,27.646,0,19.337-.147,59.2-.163,80.241a4.145,4.145,0,0,1-4.148,4.143c-66.6.011-330.473.141-380.425.112a4.136,4.136,0,0,1-4.139-4.151c.051-24.582.451-69.389.451-86.272,0-5.443-.518-13.049,2.593-20.5A294.768,294.768,0,0,1,25.241,218.78c2.028-3.26,5.951-4.829,9.791-4.832,37-.027,66.411-.241,89.05-.241Z"/><path class="d" d="M355.876,229.947c2.319,4.535,7.564,14.449,9.991,19.471,1.16,2.4.525,4.484-2.14,4.484l-335.056-.277c-2.358,0-2.5-1.072-1.444-3.181,2.284-4.561,8.969-17.289,11.315-21.949Z"/><path class="a" d="M295.2,134.192c-.51-.405-1.056-.821-1.647-1.266-5.734-4.317-14.754-9.786-20.469-11.442a51.678,51.678,0,0,0-4.453,10.213,45.284,45.284,0,0,0-2.013,9.7c-1.079,6.015-2.559,14.367-8.533,16.536a5.673,5.673,0,0,0-2.947,2.194c-1.771,2.813.615,4.547,1.965,6.52a9.3,9.3,0,0,1,1.516,4.235c-.313,3.3-.469,10.777,1.027,15.018a11.669,11.669,0,0,0,5.48,6.805c4.326,2.354,10.5,3.888,14.713,3.4.605-.07,1.344-.1,2.219-.21l-.554.454c-1.222,1-4.666,5.111-6.705,5.515a229.781,229.781,0,0,0-33.887-3l-26.222-.74-25.926,1.333c-4.677.528-14.76,2.532-18.385,2.694-10.792-2.743-23.19-3.851-32.613,2.838-4.31,3.059-8.2,9.988-6.262,14.3a3.8,3.8,0,0,0,3.1,4.251c2.6.607,4.032-1.583,5.78-3a26.8,26.8,0,0,1,5.732-3.507c-.03.757-.052,1.31-.052,1.31a3.766,3.766,0,0,0,3.167,3.666,37.124,37.124,0,0,0,10.891.7c4.9-.73,7.4-3.529,11.715-5.441,1.608-.724,9.569-1.77,13.107-2.011l57.512,5.648c3.126.339,6.43.335,9.521.85,3.4.567,6.085,2.635,9.286,3.794a6.6,6.6,0,0,0,.727.135,37.86,37.86,0,0,0-1.519,7.772l-.075.676c5.8-.194,12.816-.165,12.816,3.768,0,3.778-3.815,2.3-3.815,5.889,0,5.291,54.135.8,75.424-1.088l-.014-.429c-.3-8.562-.41-18.149-6.277-24.462-4.445-4.783-13.05-11.454-18.522-13.763a17.894,17.894,0,0,1,4.765-10.461c-6.39-3.848-10.886-9.226-11.8-14.525,0,0-.206-3.708-.36-6.5a16.1,16.1,0,0,0,3.849-7.846,6.587,6.587,0,0,0-2.073-6.406,6.2,6.2,0,0,0-4.663-1.2,6.119,6.119,0,0,0-3.135,1.339c-.441-.111-.858-.321-1.348-.487a2.905,2.905,0,0,1-1.958-3.088,27,27,0,0,0-3.346-15.442A17.433,17.433,0,0,0,295.2,134.192Z"/><path class="e" d="M203.5,36.736c.527.81,3.5,7.111,4.741,10.277a37.273,37.273,0,0,1,1.81,7.086,4.786,4.786,0,0,1,5.213-1.1c2.621-10.553,2.017-19.489-.12-25.736-2.34-6.84-4.855-11.081-11.17-16.789-5.659-5.115-14.084-8.442-25.09-8.442-9.962,0-16.807,2.923-22.288,7.856l-4.476,4.384c-3.794,1.75-9.21,8.538-11.353,14.53-3.107,8.686-2.68,17.85-.139,24.059a3.825,3.825,0,0,1,.655-.153,4.855,4.855,0,0,1,3.884,1.136l1.616,1.458c.816-3.5,3.359-9.29,4.5-12.173a67.827,67.827,0,0,1,3.667-8.112l6.037-1.742c7.791,3.11,15.647,5.692,24.185,6.8a3.055,3.055,0,0,0,2.889-1c.725-.851.031-3-.278-3.915,1.2,1.056,2.34,1.3,3.945,1.971a13.5,13.5,0,0,0,5.629.407Z"/><path class="b" d="M152.414,106.912q2.487-1.138,4.968-2.292c.384-.177.778-.34,1.155-.53-1.119.562.313-.118.41-.161.168-.074.337-.149.5-.236a5.917,5.917,0,0,0,3.132-4.825c.315-1.992.652-3.978.815-5.99a2.008,2.008,0,0,0-2-2,2.051,2.051,0,0,0-2,2c-.142,1.745-.383,3.065-.662,4.859-.022.144-.4,1.642-.382,1.658.124-.281.142-.323.052-.127-.036.076-.076.152-.118.226-.065.113-.142.216-.211.326.266-.418.063-.1-.041.005-.068.068-.139.132-.212.194.19-.14.224-.168.1-.082-.169.072-.33.214-.494.3-.065.034-.534.25-.206.109-.264.114-.536.213-.8.331-.423.189-.842.387-1.262.581q-2.382,1.1-4.766,2.2a2.008,2.008,0,0,0-.717,2.736,2.057,2.057,0,0,0,2.736.718Z"/><path class="b" d="M191.575,93.182a53.1,53.1,0,0,0,.916,6.449,5.957,5.957,0,0,0,3.393,4.256,6.244,6.244,0,0,0,.949.39c.145.039-.638-.287-.355-.148.17.084.344.159.516.239q.95.444,1.9.893,2.4,1.133,4.79,2.268a2.045,2.045,0,0,0,2.736-.718,2.024,2.024,0,0,0-.717-2.736c-2.5-1.185-4.983-2.465-7.535-3.542-.139-.059-.322-.125-.463-.186.312.135-.311-.169-.37-.2s-.533-.39-.33-.209-.189-.2-.227-.241c-.142-.166-.123-.138.056.086-.051-.072-.1-.146-.145-.222s-.086-.151-.126-.229q-.138-.294.044.122a7.366,7.366,0,0,1-.255-.883,42.781,42.781,0,0,1-.773-5.386,2.044,2.044,0,0,0-2-2,2.022,2.022,0,0,0-2,2Z"/><path class="b" d="M346.838,214.733h10.721c3.357,0,6.882-.463,9.1,2.619a112.328,112.328,0,0,1,5.967,9.89q3.381,5.906,6.514,11.947c2.1,4.038,4.123,8.116,6.031,12.247,1.655,3.584,3.231,7.049,3.756,11,1.026,7.716.077,15.625.073,23.378q-.014,22.926-.1,45.852-.029,11.579-.053,23.157,0,2.5-.008,5c0,1.753.173,3.478-1.179,4.828-1.581,1.578-4.054,1.173-6.1,1.173q-26.389.006-52.781.017l-73.1.028-81.609.031q-38.883.015-77.765.026-30.808.009-61.616.013-10.538,0-21.075,0c-3.5,0-9.206.949-9.481-4.008-.4-7.168.058-14.491.1-21.67q.138-23.661.294-47.322c.031-5.854.1-11.71.037-17.564A52.779,52.779,0,0,1,5.7,261.731c1.147-4.5,3.356-8.785,5.357-12.962,4.062-8.48,8.559-16.762,13.381-24.833,2.115-3.54,3.907-7.784,8.592-7.987,5.254-.227,10.567-.009,15.827-.02q25.344-.051,50.686-.18,9.942-.036,19.884-.042c2.574,0,2.578-4,0-4-15.226,0-30.452.087-45.679.146q-14.218.055-28.436.083l-7.71.01c-2.43,0-5.045-.269-7.412.39-4.382,1.22-6.4,4.92-8.587,8.551-4.95,8.205-9.551,16.638-13.715,25.269a94.1,94.1,0,0,0-5.655,13.116A48.537,48.537,0,0,0,.545,273.651C.6,287.375.477,301.1.388,314.825q-.083,12.716-.16,25.432-.035,5.976-.062,11.952c-.017,3.51-.394,7.258.048,10.742a8.011,8.011,0,0,0,7.138,6.928c1.419.14,2.882.055,4.308.056h9.445q28.224,0,56.45-.008,38.382-.009,76.765-.024l83.932-.031q38.976-.015,77.952-.03,29.41-.012,58.822-.02c3.415,0,6.923.231,10.328-.025a8.053,8.053,0,0,0,7.4-6.951c.445-3.424.1-7.1.1-10.548q.05-25.051.121-50.1c.014-6.732-.081-13.474.04-20.2.146-8.175,1.29-16.9-1.126-24.859-1.216-4.01-3.3-7.875-5.119-11.64q-3.077-6.372-6.439-12.6-3.187-5.926-6.617-11.721c-1.876-3.152-3.669-7.136-6.94-9.061-2.879-1.695-6.183-1.373-9.387-1.374H346.838c-2.574,0-2.578,4,0,4Z"/><path class="b" d="M139.133,163.1c-10.148-1.645-20.145-4.3-30.194-6.448-2.51-.536-3.583,3.319-1.063,3.858,10.048,2.149,20.046,4.8,30.193,6.448a2.062,2.062,0,0,0,2.46-1.4,2.015,2.015,0,0,0-1.4-2.461Z"/><path class="a" d="M171.833,217.27c1.608-.724,9.569-1.77,13.107-2.011l6.415-.636c-3.1-3.744-2.935-9.282-2.188-14.73.013-.1.028-.2.043-.292-3.716.494-7.727,1.022-7.727,1.022-4.7.531-7.506,1.375-11.149,1.531-10.75-2.745-23.146-3.852-32.568,2.836-4.31,3.059-7.985,8.96-6.715,14.059-.311,2.084.865,3.971,3.549,4.493,2.617.509,4.032-1.583,5.78-3a26.56,26.56,0,0,1,5.207-3.261c-1.031,6.55,9.923,6.114,14.531,5.428,4.9-.73,7.575-3.731,11.888-5.644"/><path class="b" d="M206.55,221.71c-.077.039.44-.12-.09.015-.191.048-.379.115-.568.169-.574.164-1.153.31-1.732.453-1.081.267-2.166.524-3.259.738a77.52,77.52,0,0,1-10.608,1.057,38.471,38.471,0,0,1-5.2.114,13.294,13.294,0,0,1-4.674-1.481,90.551,90.551,0,0,1-8.569-5.34c-2.173-1.394-4.181,2.066-2.019,3.454,3.051,1.957,5.964,4.165,9.277,5.677a17.767,17.767,0,0,0,5.633,1.658,36.544,36.544,0,0,0,5.555-.082,85.647,85.647,0,0,0,11.672-1.2,25.555,25.555,0,0,0,6.6-1.779c2.291-1.176.27-4.629-2.019-3.454Z"/><path class="b" d="M195.345,216.559c-2.154-.242-4.326-.31-6.484-.521a2,2,0,0,0-1.414.586,2,2,0,0,0,0,2.828,2.266,2.266,0,0,0,1.414.586c2.158.211,4.33.279,6.484.521a2,2,0,0,0,1.415-.586,2,2,0,0,0,0-2.828,2.305,2.305,0,0,0-1.415-.586Z"/><path class="f" d="M25.5,275.918q8.254.006,16.508,0l26.952,0,34.757-.007,40.412-.012,43.454-.013,43.833-.015,42.142-.015,37.783-.012q15.477-.006,30.954-.009l21.581,0H367.5c2.574,0,2.579-4,0-4q-9.521,0-19.041,0l-28.937.008-36.188.012-41.3.014-43.8.015-43.627.014q-20.693.006-41.387.012l-36.48.009q-14.55,0-29.1,0-9.6,0-19.191,0l-2.952,0c-2.573,0-2.577,4,0,4Z"/><path class="b" d="M319.162,205.852c5.382,2.371,10.268,6.206,14.611,10.119a25.3,25.3,0,0,1,5.715,6.637,26.509,26.509,0,0,1,2.618,8.827,102.457,102.457,0,0,1,.7,10.839c.088,2.566,4.088,2.578,4,0-.237-6.866-.355-13.981-3.211-20.359-2.652-5.921-8.366-10.259-13.449-14.024a47.5,47.5,0,0,0-8.962-5.493,2.065,2.065,0,0,0-2.737.717,2.015,2.015,0,0,0,.718,2.737Z"/><path class="b" d="M328.219,220.057c-9.195-.3-16.6,7.245-20,15.132a2.068,2.068,0,0,0,.717,2.737,2.015,2.015,0,0,0,2.737-.718,24.079,24.079,0,0,1,7.87-10.316,19.136,19.136,0,0,1,2.395-1.415,12.137,12.137,0,0,1,2.1-.832,10.394,10.394,0,0,1,4.175-.588c2.575.083,2.572-3.917,0-4Z"/><path class="b" d="M255.727,236.273c4.264-.014,8.758-.713,12.964.176a6.353,6.353,0,0,1,2.006.694c-.032-.018.521.439.339.25.036.038.32.549.1.137a2.584,2.584,0,0,1,.09.343c-.024-.2-.031-.219-.023-.067a1.624,1.624,0,0,1-.166.88,1.818,1.818,0,0,1-.488.352,6.71,6.71,0,0,0-2.321,1.878c-1.786,2.565-.632,5.081,2,6.049a23.962,23.962,0,0,0,6.432,1.056,189.1,189.1,0,0,0,22.168-.069c8.914-.379,17.819-.974,26.715-1.65,7.769-.591,15.531-1.259,23.291-1.955a2.054,2.054,0,0,0,2-2,2.015,2.015,0,0,0-2-2c-15.622,1.4-31.261,2.709-46.929,3.465-7.734.373-15.52.71-23.26.33-1.308-.064-2.616-.152-3.917-.3l-.443-.053c-.5-.06.453.069-.032-.005-.262-.04-.525-.079-.787-.125-.456-.08-.911-.172-1.358-.292-.332-.09-.65-.206-.974-.319.728.254.132.094,0-.029-.435-.4.247.268,0,.024-.212-.209.3.579.195.351.305.687-.106.462.07.085.042-.09.125-.38.049-.2.159-.382-.094.026.193-.232-.234.211.206-.136.234-.153a7.05,7.05,0,0,0,2.613-2.192,5.423,5.423,0,0,0,.592-3.9c-.494-2.155-2.406-3.382-4.4-3.985-4.768-1.441-10.065-.568-14.955-.552-2.574.008-2.579,4.008,0,4Z"/><path class="b" d="M188.764,197.458c-3.3.38-6.584.971-9.864,1.514-1.656.274-3.314.546-4.975.788-.86.126-.952.142-1.812.241-.575.065-1.15.122-1.728.15a2.043,2.043,0,0,0-2,2,2.019,2.019,0,0,0,2,2,80.9,80.9,0,0,0,9.07-1.238c1.716-.283,3.43-.572,5.146-.848.8-.128,1.595-.254,2.394-.371q.512-.076,1.025-.147c-.4.055.195-.024.222-.027.174-.022.348-.042.522-.062a2.061,2.061,0,0,0,2-2,2.013,2.013,0,0,0-2-2Z"/><path class="b" d="M240.912,200.865c8.453.246,16.905.678,25.3,1.724q3.063.381,6.11.877a7.768,7.768,0,0,0,3.2.278,6.235,6.235,0,0,0,1.741-.848c2.146-1.438,3.708-3.482,5.658-5.135,1.966-1.667-.875-4.484-2.829-2.828-1,.848-1.872,1.852-2.817,2.761a8.593,8.593,0,0,1-3.005,2.239h1.063a246.639,246.639,0,0,0-34.419-3.068c-2.575-.075-2.573,3.925,0,4Z"/><path class="b" d="M242.452,222.907c3.273.342,6.724.163,9.928.977,2.944.747,5.5,2.579,8.347,3.6a2.019,2.019,0,0,0,2.46-1.4,2.04,2.04,0,0,0-1.4-2.461c-2.957-1.054-5.56-2.972-8.656-3.67-3.485-.786-7.143-.675-10.682-1.045a2.014,2.014,0,0,0-2,2,2.045,2.045,0,0,0,2,2Z"/><path class="b" d="M354.149,230.957c2.729,5.327,5.54,10.612,8.243,15.953.539,1.064,1.105,2.124,1.6,3.211.129.285.645,1.231.419,1.586-.145.227-.333.153-.685.195-.065.008-.133,0-.2,0-1.378.069-2.776,0-4.155,0l-22.279-.019-37.244-.031-47.122-.039-52.3-.043-52.68-.044-48.264-.04-39.155-.032-24.936-.021-5.778,0a5.689,5.689,0,0,0-.923,0c-.244.042-1.7-.251-.13.559.246.127-.385.625.111-.068a5.3,5.3,0,0,0,.335-.772c.217-.465.463-.918.7-1.375,1.2-2.349,2.412-4.689,3.625-7.029,2.321-4.474,4.669-8.935,6.938-13.436,1.157-2.292-2.293-4.32-3.453-2.018-2.437,4.832-4.962,9.62-7.452,14.424-1.156,2.232-2.314,4.462-3.45,6.705-1.042,2.059-2.357,5.054.316,6.509,1.32.718,3.358.5,4.855.5l20.1.016,35.99.03,47.229.039,53.165.044,53.649.045,49.707.041,40.3.033,25.67.022,5.922,0c.3,0,.6.012.893,0,2.2-.085,4.188-1.171,4.616-3.479.51-2.751-1.5-5.582-2.687-7.93-2.641-5.2-5.38-10.36-8.041-15.555-1.173-2.292-4.626-.271-3.454,2.019Z"/><path class="a" d="M189.2,117.767c4.571-4.542,7.565-10.045,10.942-15.541a24.372,24.372,0,0,0-4.961-6.7,49.333,49.333,0,0,1-14.235,9.921c-.295.134-.623.3-.718.606a1.7,1.7,0,0,0,.307,1.04c.3.45,1.272,1.695,2.8,3.566C185.344,113.107,187.859,116.111,189.2,117.767Z"/><path class="a" d="M166.4,117.767c-4.571-4.542-7.565-10.045-10.942-15.541a24.372,24.372,0,0,1,4.961-6.7,51.831,51.831,0,0,0,14.053,9.833c.291.14.805.385.9.694.083.269-.277.954-.432,1.187-.371.559-1.147,1.548-2.676,3.419C170.263,113.107,167.748,116.111,166.4,117.767Z"/><path class="b" d="M190.618,119.182a63.386,63.386,0,0,0,8.915-12.088c.644-1.061,1.282-2.126,1.928-3.186a2.968,2.968,0,0,0,.649-1.948,5.459,5.459,0,0,0-.856-1.875,25.815,25.815,0,0,0-4.655-5.976,2.035,2.035,0,0,0-2.828,0,46.571,46.571,0,0,1-7.846,6.331,48.272,48.272,0,0,1-4.322,2.479c-1.348.682-3.047,1.152-3.336,2.866a4.046,4.046,0,0,0,1.108,3.081c.9,1.18,1.836,2.331,2.776,3.479,1.871,2.286,3.774,4.545,5.639,6.837a2.014,2.014,0,0,0,2.828,0,2.047,2.047,0,0,0,0-2.829c-1.595-1.96-3.22-3.9-4.827-5.848-.853-1.036-1.7-2.073-2.539-3.123-.179-.225-1.031-1.033-1.02-1.332l-.273,1.01q-.452.373,0,.111l.332-.152c.334-.157.667-.315,1-.479q1.013-.5,2-1.054c1.358-.757,2.679-1.581,3.961-2.461a51.482,51.482,0,0,0,7.348-6.087h-2.828a23.458,23.458,0,0,1,4.648,6.3v-2.018c-3.229,5.266-6.237,10.722-10.629,15.136C185.972,118.18,188.8,121.01,190.618,119.182Z"/><path class="b" d="M167.817,116.353c-4.392-4.414-7.4-9.87-10.629-15.136v2.018a23.458,23.458,0,0,1,4.648-6.3h-2.828a50.422,50.422,0,0,0,7.469,6.121q1.9,1.285,3.9,2.411.968.543,1.956,1.05c.322.164.647.322.97.484l.358.175q.451.29-.014-.119l-.273-1.01c-.015-.349-.169.191-.307.394-.209.306-.389.527-.521.695-.814,1.041-1.657,2.06-2.5,3.08-1.684,2.048-3.389,4.078-5.062,6.134a2.06,2.06,0,0,0,0,2.829,2.015,2.015,0,0,0,2.828,0c1.939-2.383,3.92-4.732,5.864-7.111.863-1.057,1.732-2.114,2.548-3.208a4.594,4.594,0,0,0,1.146-2.813c-.066-1.768-1.862-2.386-3.185-3.067q-2.172-1.119-4.24-2.427a46.26,46.26,0,0,1-8.114-6.447,2.036,2.036,0,0,0-2.828,0,25.752,25.752,0,0,0-4.562,5.814,8.1,8.1,0,0,0-.913,1.771,2.734,2.734,0,0,0,.613,2.214c.646,1.06,1.284,2.125,1.928,3.186a63.386,63.386,0,0,0,8.915,12.088C166.807,121.009,169.636,118.181,167.817,116.353Z"/><path class="b" d="M175.944,106.992c0,4.687-.326,9.4-.126,14.084a2,2,0,0,0,4,0c-.2-4.684.122-9.4.126-14.084a2,2,0,1,0-4,0Z"/><path class="b" d="M141.628,178.64c-.513-11.834-2.333-23.574-2.841-35.408-.314-7.3-.491-14.625-.674-21.93a73.445,73.445,0,0,1,.071-10.911l-.585,1.414a38.878,38.878,0,0,1,5.819-3.953,23.279,23.279,0,0,1,5.773-2.809l-2.46-1.4c.05.213.088.428.124.644.028.174.052.349.078.523.063.422-.05-.406.013.094.122.955.229,1.912.333,2.87.266,2.476.506,4.954.751,7.432.451,4.572.768,9.209,1.569,13.738a1.981,1.981,0,0,0,1.4,1.4c1.893.557,4.208.377,6.153.423,3.885.091,7.772.1,11.658.085,8.946-.024,17.9-.143,26.838-.478a73.72,73.72,0,0,0,8.9-.607,1.925,1.925,0,0,0,1.4-1.4c.672-4.074.875-8.244,1.238-12.353.354-4.011.471-8.132,1.386-11.829l-2.46,1.4a30.767,30.767,0,0,1,11.345,6.267l-.585-1.414a80.894,80.894,0,0,1-.072,10.7c-.159,4.5-.38,8.991-.573,13.487-.148,3.455-.144,6.911-.238,10.368-.164,6-.437,12-.7,18-.3,6.695-.613,13.391-.8,20.09-.072,2.575,3.928,2.573,4,0,.383-13.723,1.329-27.429,1.572-41.156.165-9.275.86-18.539.912-27.816,0-.949.006-1.9-.041-2.85a4.94,4.94,0,0,0-.231-1.587c-.365-.908-1.522-1.589-2.276-2.16a36.125,36.125,0,0,0-11.247-5.781,2.025,2.025,0,0,0-2.461,1.4c-.98,3.96-1.114,8.229-1.475,12.278-.213,2.4-.415,4.8-.636,7.2-.089.961-.18,1.922-.283,2.882-.042.388-.088.775-.134,1.163-.013.113-.028.226-.043.338q.051-.366.019-.147a2.2,2.2,0,0,1-.072.466l1.4-1.4c-.517.083.461-.038.01,0-.225.02-.449.05-.674.071-.518.048-1.037.086-1.556.12-1.493.1-2.989.168-4.484.229-4.061.166-8.125.265-12.188.344-8.645.169-17.3.272-25.946.123-1.568-.027-3.137-.06-4.7-.14q-.739-.039-1.478-.1c-.091-.008-.184-.027-.276-.029-.342-.008.467.154.206.028a2.484,2.484,0,0,0-.333-.07l1.4,1.4c-.312-1.764-.468-3.379-.692-5.455-.28-2.6-.536-5.207-.793-7.812-.24-2.436-.476-4.872-.743-7.3a39.107,39.107,0,0,0-.64-4.729,2.032,2.032,0,0,0-2.46-1.4,27.487,27.487,0,0,0-7.014,3.383c-1.324.789-2.626,1.618-3.884,2.507-1.1.775-2.724,1.652-3.01,3.05a25.363,25.363,0,0,0-.2,4.99c0,2.543.063,5.086.134,7.628.286,10.255.456,20.558,1.368,30.777.748,8.367,1.744,16.724,2.108,25.12.112,2.565,4.112,2.578,4,0Z"/><path class="g" d="M202.018,194.423c-5.807-.454-11.836.246-12.731,6.778-.917,6.692-.906,13.528,5.6,16.6,6.185,2.914,11.256,5.161,18.277,5.878,9.889,1.011,16.119,1.923,20.526-1.724,1.659-1.374,6.678-9.586,7.485-11.512,1.347-3.214-4.9-6.5-8.776-8.434Z"/><path class="b" d="M161.587,195.176a26.182,26.182,0,0,1-7.024-4.656c-2.048-1.733-3.992-3.585-5.9-5.469a141.125,141.125,0,0,0-11.924-10.391,2.063,2.063,0,0,0-2.828,0,2.014,2.014,0,0,0,0,2.829,151.24,151.24,0,0,1,12.391,10.85c4.169,4.088,8.7,8.534,14.223,10.694a2.015,2.015,0,0,0,2.46-1.4,2.047,2.047,0,0,0-1.4-2.46Z"/><path class="b" d="M111.78,159.923c-.411,4.454-.683,8.92-1.116,13.373-.3,3.029-.72,6.247.272,9.2,1.064,3.169,3.439,5.286,6.079,7.185,3.751,2.7,7.542,5.341,11.394,7.892,3.663,2.425,7.439,4.567,11.294,6.667,2.261,1.232,4.283-2.221,2.019-3.454A200.585,200.585,0,0,1,121.8,188.2c-2.45-1.733-5.624-3.464-6.862-6.371-.975-2.291-.625-5.008-.385-7.408.481-4.827.783-9.668,1.229-14.5a2.015,2.015,0,0,0-2-2,2.043,2.043,0,0,0-2,2Z"/><path class="a" d="M220.657,216.9a3.98,3.98,0,0,1-2.158-.8c-1.368,2.2-6.915,2.052-6.7-1.558a3,3,0,0,1-4.634-3.533c-3.8,2.052-5.362-1.728-4.846-4.559a17.658,17.658,0,0,1,2.645-5.729c-.162.094-.251.144-.251.144-3.909,2.232-4.437-4.471-1.758-6.473,1.776-1.326,7.8-2.872,9.508-4.012a30.292,30.292,0,0,0,7.79-10.1V164.452c5.425-1.071,15.233-3.386,21.467-4.831.008.8.014,1.361.014,1.361,0,4.334-.111,12.805-.333,15.889-.36,5-8.423,19.891-8.992,21.829-.422.987-.764,2.5-1.026,6.268C231.122,208.65,225.521,217.192,220.657,216.9Z"/><path class="b" d="M218.319,179.747c-.143.352.214-.467.045-.107-.038.081-.074.163-.112.244q-.135.285-.282.566c-.2.38-.41.753-.63,1.121a31.25,31.25,0,0,1-1.793,2.655c-.08.107-.16.213-.241.319.166-.219.087-.113-.035.041q-.277.352-.566.7-.555.665-1.144,1.3a25.643,25.643,0,0,1-2.517,2.383,2.005,2.005,0,0,0,0,2.828,2.056,2.056,0,0,0,2.828,0A31.359,31.359,0,0,0,219,186.245a24.506,24.506,0,0,0,3.175-5.435,2.006,2.006,0,0,0-1.4-2.46,2.062,2.062,0,0,0-2.461,1.4Z"/><path class="b" d="M239.729,160.982q0,4.915-.111,9.83c-.034,1.545-.073,3.091-.142,4.636-.023.5-.047,1-.086,1.5s.049-.188-.029.2c-.05.246-.1.492-.158.735-1.246,5.14-3.906,10.021-6.191,14.754a42,42,0,0,0-2.537,5.536c-.767,2.464,3.093,3.517,3.857,1.064.065-.208.286-.72.063-.207.16-.368.328-.732.5-1.1.46-.982.935-1.958,1.407-2.935,1.244-2.576,2.484-5.156,3.642-7.773a57.126,57.126,0,0,0,2.96-7.68,29.487,29.487,0,0,0,.679-7.2q.15-5.679.148-11.362c0-2.573-4-2.578-4,0Z"/><path class="b" d="M204.918,197.121c-2.18,3.37-5.173,7.2-4.615,11.46a5.927,5.927,0,0,0,2.389,4.279c1.719,1.144,3.742.749,5.477-.124l-2.938-2.259c-1.711,4.488,3.685,8.67,7.573,5.792l-3.01-1.727c-.106,5.485,7.681,6.58,10.432,2.567l-2.737.718c5.328,3.715,11.12-2.591,13.641-6.78a19.83,19.83,0,0,0,1.742-3.667,17.321,17.321,0,0,0,.647-4.154,19.426,19.426,0,0,1,.63-3.513c.156-.546-.067.076.062-.18.074-.147.148-.294.226-.439.157-.293.332-.575.491-.866,1.235-2.261-2.218-4.282-3.454-2.019a13.343,13.343,0,0,0-1.646,4.5c-.429,2.786-.208,4.572-1.375,6.908a18.447,18.447,0,0,1-4.391,5.779,6.69,6.69,0,0,1-2.533,1.43c-.013,0-.623.1-.333.071-.092.008-.809-.038-.532.008a2.239,2.239,0,0,1-1.156-.533,2.035,2.035,0,0,0-2.736.718c.093-.136-.034.034-.147.111a1.161,1.161,0,0,1-.528.23,2.586,2.586,0,0,1-1.311.1,1.942,1.942,0,0,1-.885-.368c-.055-.053-.114-.221-.107-.618.028-1.4-1.766-2.646-3.009-1.727-1.135.841-2.208.066-1.7-1.274.672-1.763-1.527-2.969-2.938-2.259a2.546,2.546,0,0,1-1.071.313c-.253-.035-.257-.072-.439-.343a3.536,3.536,0,0,1-.4-2.274c.382-2.843,2.612-5.493,4.129-7.839,1.4-2.167-2.059-4.175-3.454-2.018Z"/><path class="b" d="M222.7,205.517c-.976,1.752-1.973,3.493-3.027,5.2-.508.823-1.03,1.639-1.574,2.44q-.391.574-.8,1.137a2.655,2.655,0,0,0-.392.526c.036-.1.217-.276.054-.072l-.254.318a2.048,2.048,0,0,0,0,2.828,2.022,2.022,0,0,0,2.828,0,70.714,70.714,0,0,0,6.619-10.358,2,2,0,1,0-3.454-2.019Z"/><path class="b" d="M217.152,202.553a104.42,104.42,0,0,1-6.819,10.41,2.007,2.007,0,0,0,.718,2.736,2.058,2.058,0,0,0,2.736-.717,104.235,104.235,0,0,0,6.818-10.41,2,2,0,0,0-3.453-2.019Z"/><path class="b" d="M211.739,198.944q-1.536,2.765-3.106,5.509c-.994,1.735-1.949,3.533-3.107,5.167a2.009,2.009,0,0,0,.718,2.736,2.052,2.052,0,0,0,2.736-.717c1.158-1.634,2.112-3.433,3.107-5.167q1.572-2.744,3.106-5.509a2,2,0,0,0-3.454-2.019Z"/><path class="b" d="M202.018,192.423c-3.472-.258-7.383-.221-10.452,1.655-3.487,2.133-4.223,5.8-4.564,9.588-.34,3.772-.2,7.876,1.764,11.229,2.2,3.762,6.345,5.292,10.163,6.92a49.134,49.134,0,0,0,13.785,3.811,86.3,86.3,0,0,0,12.93.928,15.2,15.2,0,0,0,9.258-3.021c2.1-1.7,3.574-4.5,4.983-6.759,1.48-2.374,4.178-5.689,3.25-8.659-.623-2-2.419-3.441-4.055-4.6a42.8,42.8,0,0,0-5.667-3.234c-2.3-1.15-4.323,2.3-2.019,3.454,1.475.739,2.943,1.5,4.347,2.365a10.312,10.312,0,0,1,3.351,2.785,1.851,1.851,0,0,1,.256.52c.122.354.033.013.014.169-.024.194.107-.182-.067.206-.092.205-.2.4-.3.6-.556,1.059-1.167,2.092-1.785,3.116a49.146,49.146,0,0,1-4.31,6.41,8.694,8.694,0,0,1-5.6,2.532,46.588,46.588,0,0,1-10.169-.354,55.783,55.783,0,0,1-12.308-2.257c-1.835-.613-3.628-1.34-5.394-2.129a25.932,25.932,0,0,1-5.372-2.717c-2.322-1.794-3.083-4.713-3.184-7.52a32.471,32.471,0,0,1,.334-5.641,5.836,5.836,0,0,1,1.9-3.965c2.377-1.893,6.078-1.641,8.909-1.431,2.568.191,2.556-3.81,0-4Z"/><path class="b" d="M171.365,200.352c-11.557-2.991-25.554-4.334-35.539,3.618-4.1,3.262-7.8,9.332-6.611,14.748a20.574,20.574,0,0,0,.677,3.21,5.714,5.714,0,0,0,2.989,3.118c2.992,1.353,5.483.068,7.7-1.994a24.224,24.224,0,0,1,8.7-5.135c2.742-.934,5.563-1.632,8.283-2.628,2.4-.878,1.362-4.746-1.063-3.857-4.507,1.651-9.223,2.561-13.456,4.919a28.433,28.433,0,0,0-3.731,2.5c-.916.721-1.69,1.639-2.641,2.309a2,2,0,0,1-2.388.118c-.912-.582-.677-1.342-.812-2.258a13.046,13.046,0,0,1-.468-2.646,9.584,9.584,0,0,1,.795-3.21,16.235,16.235,0,0,1,4.212-5.828c3.8-3.367,9.279-4.875,14.235-5.234a56.1,56.1,0,0,1,18.059,2.1c2.494.646,3.558-3.211,1.063-3.857Z"/><path class="b" d="M171,215.34c-4.032,1.836-7.585,5.221-12.079,5.486a35.163,35.163,0,0,1-6.77-.311c-1.453-.2-3.961-.246-4.088-2.168-.169-2.555-4.17-2.574-4,0a5.982,5.982,0,0,0,4.975,5.669,39.945,39.945,0,0,0,8.6.849,17.818,17.818,0,0,0,7.9-1.844c2.575-1.267,4.86-3.035,7.479-4.227a2.015,2.015,0,0,0,.717-2.736A2.047,2.047,0,0,0,171,215.34Z"/><path class="b" d="M142.777,207.593a34.114,34.114,0,0,0-7.209,4.707,25.592,25.592,0,0,0-5.235,6.148,2,2,0,1,0,3.454,2.019,15.47,15.47,0,0,1,.909-1.374c.029-.039.305-.405.149-.2s.135-.17.166-.207q.31-.387.634-.761a28.814,28.814,0,0,1,2.751-2.8c.21-.184.424-.361.639-.539.412-.342-.326.231.09-.071.119-.086.238-.174.358-.26.544-.389,1.1-.761,1.664-1.121a41.279,41.279,0,0,1,3.649-2.09,2.013,2.013,0,0,0,.718-2.736,2.05,2.05,0,0,0-2.737-.718Z"/><path class="b" d="M262.471,221.591c-1.668,1.065-2.36,3.142-2.841,4.961a47.85,47.85,0,0,0-1.163,6.906,2.005,2.005,0,0,0,2,2,2.057,2.057,0,0,0,2-2c.03-.263.06-.526.092-.789.013-.107.027-.213.04-.32.007-.058.067-.513.028-.218s.03-.214.031-.22c.015-.109.031-.217.047-.325q.054-.366.114-.73c.161-.991.349-1.979.594-2.953.1-.418.22-.833.352-1.244.061-.189.125-.378.194-.565.037-.1.081-.195.114-.294.079-.239-.191.405-.036.09.143-.29.307-.561.464-.843s-.246.26-.117.144c.052-.047.095-.112.145-.162s.084-.072.119-.113c.2-.237-.407.288-.158.129a2,2,0,0,0-2.019-3.454Z"/><path class="b" d="M211.449,188.653a6.5,6.5,0,0,1-.728.4c-.153.072-.312.133-.463.209.62-.31-.107.04-.261.1-.86.338-1.733.645-2.6.956a29.358,29.358,0,0,0-5.038,2.077,6.254,6.254,0,0,0-2.862,4.112,6.9,6.9,0,0,0,.546,4.9,3.853,3.853,0,0,0,2.294,1.794,4.6,4.6,0,0,0,3.384-.6,2.02,2.02,0,0,0,.718-2.736,2.042,2.042,0,0,0-2.737-.718c-.084.047-.172.09-.256.136-.272.15-.113-.087.135-.053a1.271,1.271,0,0,0-.367.11c-.249.1.228-.04.273-.028a.708.708,0,0,0-.2.011c-.062.011-.136-.023-.195-.008.01,0,.608.055.277.024-.058-.005-.114-.052-.17-.055-.029,0,.534.221.286.111-.373-.167.326.344.092.084a1.692,1.692,0,0,0-.126-.128c-.126-.112-.03-.259.174.232a3.482,3.482,0,0,0-.2-.327c-.226-.392.139.451.028.067-.035-.124-.076-.244-.106-.37a2.353,2.353,0,0,0-.068-.348c.167.41.046.447.034.214-.005-.094-.014-.186-.018-.28-.01-.274.016-.542.027-.815.014-.369-.084.445-.028.192.014-.064.022-.129.034-.194.034-.177.075-.352.125-.525.035-.126.079-.249.12-.373.161-.494-.189.351,0-.012.068-.126.13-.254.2-.377.032-.053.068-.1.1-.159.184-.305.032.016-.093.106a3.216,3.216,0,0,0,.276-.3c.046-.044.137-.1.167-.152,0,.008-.421.288-.2.156.244-.146.477-.3.731-.432.294-.152.6-.28.9-.42.233-.109-.389.155-.144.061.1-.038.192-.079.289-.118.2-.081.4-.159.6-.236.769-.3,1.546-.571,2.321-.848a22.561,22.561,0,0,0,4.749-1.974,2,2,0,1,0-2.018-3.454Z"/><path class="b" d="M172.842,219c-.741.322-.2.093-.005.032.168-.052.338-.1.508-.14.435-.11.875-.2,1.316-.289,1.172-.23,2.352-.416,3.533-.587.318-.046.636-.089.953-.134.245-.035-.313.04.079-.011l.523-.068q.938-.12,1.877-.226c1.1-.124,2.207-.237,3.314-.314a2,2,0,0,0,0-4c-2.612.182-5.218.52-7.809.9a24.743,24.743,0,0,0-6.308,1.388,2.012,2.012,0,0,0-.717,2.736,2.05,2.05,0,0,0,2.736.717Z"/><path class="b" d="M218.483,166.8c9.585-1.558,18.973-4.283,28.461-6.317,2.516-.539,1.451-4.4-1.063-3.857-9.489,2.034-18.877,4.758-28.461,6.317a2.015,2.015,0,0,0-1.4,2.46,2.048,2.048,0,0,0,2.46,1.4Z"/><path class="h" d="M348.88,167.95a34.79,34.79,0,0,0,2.179-6.776c3.9-13.267,2.491-28.425-7-37.943-4.734-15.48-33.806-26.339-51.351-18.486-7.879,3.527-14.629,8.163-19.622,16.741,5.715,1.654,14.736,7.123,20.47,11.44,2.93,2.206,4.768,3.715,6.378,6.508a27,27,0,0,1,3.346,15.442,2.905,2.905,0,0,0,1.958,3.088c.49.166.907.376,1.348.487a6.119,6.119,0,0,1,3.135-1.339,6.2,6.2,0,0,1,4.663,1.2,6.587,6.587,0,0,1,2.073,6.406,16.1,16.1,0,0,1-3.849,7.846c.154,2.791.36,6.5.36,6.5.921,5.32,5.45,10.72,11.88,14.571a41.593,41.593,0,0,1,4.448-4.319c3.729-3.473,6.157-4.976,10.751-8.741C343.5,177.741,346.738,172.916,348.88,167.95Z"/><path class="b" d="M326.869,192.493a30.352,30.352,0,0,1-8.216-6.534,15.569,15.569,0,0,1-3.76-7.427,2.016,2.016,0,0,0-2.46-1.4,2.044,2.044,0,0,0-1.4,2.46c1.319,7.275,7.672,12.9,13.814,16.352,2.247,1.262,4.266-2.192,2.019-3.454Z"/><path class="b" d="M258.737,177.22a14.146,14.146,0,0,0,5.44.538,8.327,8.327,0,0,0,3.539-1.077,2,2,0,0,0-2.019-3.454,3.855,3.855,0,0,1-.387.216l-.125.058c-.239.116.493-.2.286-.12-.092.033-.182.07-.274.1a6.734,6.734,0,0,1-.722.2c-.125.029-.25.054-.376.076-.027,0-.2.057-.222.036.019.018.589-.066.2-.029a11.575,11.575,0,0,1-2.106.021c-.194-.016-.387-.047-.58-.061.536.039.187.023.058,0s-.233-.039-.349-.061q-.659-.123-1.3-.307a2,2,0,1,0-1.064,3.857Z"/><path class="b" d="M266.7,131.165c-1.953,5.989-1.959,12.386-4.044,18.343-.769,2.2-1.94,4.608-3.972,5.905-1.225.783-2.622,1.112-3.774,2.038a6.167,6.167,0,0,0-2.4,4.529c-.07,3.159,2.969,4.824,3.807,7.632a11.052,11.052,0,0,1,.137,3.786q-.083,2.136-.017,4.275c.2,6.075,1.38,12.609,6.8,16.23a27.857,27.857,0,0,0,10.314,3.824,27.266,27.266,0,0,0,11-.266c2.506-.585,1.445-4.442-1.064-3.858a24.877,24.877,0,0,1-17.356-2.622c-4.892-2.707-5.573-8.619-5.7-13.672q-.052-2.032.033-4.065a15.4,15.4,0,0,0-.043-3.7,10.724,10.724,0,0,0-1.868-4.283c-.607-.828-1.948-1.968-2.044-3.06-.093-1.053,1.064-1.865,1.889-2.243a14.453,14.453,0,0,0,3.658-2.1,15.6,15.6,0,0,0,4.06-6.212c2.492-6.231,2.375-13.069,4.444-19.414.8-2.453-3.061-3.5-3.857-1.063Z"/><path class="b" d="M270.56,132.228a42.5,42.5,0,0,1,9.328-16.527,42.5,42.5,0,0,1,13.129-8.912c9.99-4.6,22.346-2.9,32.151,1.375a37.27,37.27,0,0,1,13.064,8.987,19.4,19.4,0,0,1,3.445,5.333,14.089,14.089,0,0,0,.652,1.757,16.577,16.577,0,0,0,1.821,2.042,25.973,25.973,0,0,1,2.731,3.936,35.325,35.325,0,0,1,4.168,19.051,46.6,46.6,0,0,1-1.507,9.89,50.279,50.279,0,0,1-3.3,9.754,33.764,33.764,0,0,1-5.837,8.6,76.629,76.629,0,0,1-8.019,6.549c-2.472,1.943-4.869,4.027-7.152,6.188a23.773,23.773,0,0,0-5.633,7.6,19.709,19.709,0,0,0-1.468,5.18,2.07,2.07,0,0,0,1.4,2.461,2.016,2.016,0,0,0,2.461-1.4,16.623,16.623,0,0,1,3.4-8.161,50.933,50.933,0,0,1,6.228-6.04c4.7-4.216,10.252-7.419,14.108-12.507,4.057-5.353,6.28-11.46,7.866-17.915a48.683,48.683,0,0,0,.923-19.213,33.716,33.716,0,0,0-9.041-18.448l.515.883c-1.8-5.736-6.106-10.211-10.93-13.6a50.412,50.412,0,0,0-18.229-7.781,40.126,40.126,0,0,0-36.969,8.938c-6.472,5.449-10.566,12.956-13.154,20.911-.8,2.453,3.063,3.5,3.857,1.063Z"/><path class="b" d="M270.955,156.815a3.562,3.562,0,0,1,.905.021l-.532-.072a8.24,8.24,0,0,1,1.961.564l-.478-.2a7.571,7.571,0,0,1,1.623.906l-.405-.313a3.115,3.115,0,0,1,.546.524l-.312-.4a1.512,1.512,0,0,1,.168.278,2.008,2.008,0,0,0,1.2.919,2.043,2.043,0,0,0,1.541-.2,2.021,2.021,0,0,0,.919-1.2,2.287,2.287,0,0,0-.2-1.541,4.385,4.385,0,0,0-1.478-1.555,7.394,7.394,0,0,0-1.451-.817,11.44,11.44,0,0,0-2.078-.73,5.8,5.8,0,0,0-1.923-.181,2.186,2.186,0,0,0-1.414.586,2,2,0,0,0,0,2.828,1.924,1.924,0,0,0,1.414.586Z"/><path class="b" d="M273.33,173.26a5.892,5.892,0,0,1,.7,1.225l-.2-.477a8.124,8.124,0,0,1,.543,2.014l-.071-.532a6.6,6.6,0,0,1,.038,1.526,2,2,0,0,0,.586,1.414,2,2,0,0,0,2.829,0,2.28,2.28,0,0,0,.585-1.414,8.789,8.789,0,0,0-.276-2.932,7.908,7.908,0,0,0-1.277-2.843,2.188,2.188,0,0,0-1.195-.919,2.043,2.043,0,0,0-1.541.2,2.017,2.017,0,0,0-.919,1.195,1.939,1.939,0,0,0,.2,1.541Z"/><path class="b" d="M307.335,160.5a4.368,4.368,0,0,1,5.872-.572c1.918,1.57,1.454,4.4.767,6.446a15.921,15.921,0,0,1-10.143,9.675c-2.441.786-1.4,4.649,1.063,3.857A20.322,20.322,0,0,0,316.758,170a14,14,0,0,0,1.712-8.037,7.831,7.831,0,0,0-5.132-6.448,8.412,8.412,0,0,0-8.832,2.159c-1.774,1.865,1.05,4.7,2.829,2.828Z"/><path class="b" d="M292.544,134.653a19,19,0,0,1,5.072,4.834,23.275,23.275,0,0,1,2.988,7.007,24.205,24.205,0,0,1,.694,8.177,4.978,4.978,0,0,0,1.029,3.571,7.127,7.127,0,0,0,3.428,2.049c2.416.9,3.459-2.965,1.064-3.857-.95-.354-1.555-.465-1.542-1.558.017-1.4.171-2.758.062-4.169a30.029,30.029,0,0,0-1.717-7.973,23.9,23.9,0,0,0-3.378-6.412,25.585,25.585,0,0,0-5.682-5.123,2.016,2.016,0,0,0-2.736.718,2.042,2.042,0,0,0,.718,2.736Z"/><path class="b" d="M281.784,125.277a8.577,8.577,0,0,1,.543-1.025c.1-.157.2-.31.307-.46.184-.258.011-.01-.081.1.072-.083.138-.173.209-.257a9.14,9.14,0,0,1,.764-.8c.136-.126.278-.242.417-.363.309-.267-.387.277-.055.04.075-.053.149-.108.225-.161a9.074,9.074,0,0,1,.943-.577c.18-.095.362-.182.546-.267.314-.146-.352.136-.121.051l.258-.1a8.678,8.678,0,0,1,1.059-.311c.2-.044.4-.076.6-.112.234-.042-.547.052-.148.022.111-.008.221-.019.331-.027a2,2,0,0,0,0-4,11.034,11.034,0,0,0-9.248,6.229,2.172,2.172,0,0,0-.2,1.541,2,2,0,0,0,3.656.478Z"/><path class="b" d="M286.744,129.291a14.466,14.466,0,0,1,5.439-2.247c.272-.056.545-.1.818-.15.659-.109-.371.029.293-.039.551-.056,1.1-.094,1.659-.1a15.039,15.039,0,0,1,2.775.213,2,2,0,1,0,1.063-3.857,19.411,19.411,0,0,0-14.066,2.728,2,2,0,1,0,2.019,3.454Z"/><path class="b" d="M151.115,12.542c-2.745,1.322-4.974,3.775-6.82,6.137a34.982,34.982,0,0,0-5.453,9.587,37.273,37.273,0,0,0-.709,23.572c.785,2.441,4.648,1.4,3.857-1.064a33.62,33.62,0,0,1,.554-21,29.737,29.737,0,0,1,4.657-8.365A17.889,17.889,0,0,1,153.133,16c2.319-1.117.292-4.567-2.018-3.453Z"/><path class="b" d="M217.31,53.061c3.132-13.253,2.07-27.767-6.774-38.682a37.537,37.537,0,0,0-15.047-11.4A45.177,45.177,0,0,0,174.428.241,33.252,33.252,0,0,0,155.186,8.47c-1.926,1.716.911,4.537,2.828,2.828,9.176-8.177,23.072-8.993,34.372-5.217,10.708,3.579,18.64,13.042,21.469,23.822,1.891,7.208,1.3,14.914-.4,22.094-.592,2.5,3.264,3.572,3.857,1.064Z"/><path class="b" d="M211.729,55.254a2.77,2.77,0,0,1,3.959.521,5.655,5.655,0,0,1,.548,2.857A16.618,16.618,0,0,1,216,62.047c-.741,4.062-2.826,8.915-7.335,9.724a2.016,2.016,0,0,0-1.4,2.46,2.044,2.044,0,0,0,2.46,1.4c6.733-1.208,9.942-8.819,10.449-14.921.258-3.105.031-6.688-2.658-8.7a6.89,6.89,0,0,0-8.618.424,2.015,2.015,0,0,0,0,2.828,2.044,2.044,0,0,0,2.829,0Z"/><path class="b" d="M207.145,70.085a18.428,18.428,0,0,1-1.072,4.983q-.144.44-.293.876c-.041.12-.195.486.014-.01-.147.348-.313.689-.483,1.026a41.518,41.518,0,0,1-3.588,5.767c-3.149,4.319-7.42,8.89-12.814,10.155-2.5.588-1.445,4.446,1.063,3.857,6.356-1.491,11.29-6.691,15.029-11.753,3.233-4.377,5.919-9.336,6.144-14.9.1-2.574-3.9-2.569-4,0Z"/><path class="b" d="M146.585,52.426A6.891,6.891,0,0,0,137.968,52c-2.691,2.012-2.916,5.6-2.659,8.7.507,6.1,3.716,13.714,10.449,14.921a2.057,2.057,0,0,0,2.46-1.4,2.017,2.017,0,0,0-1.4-2.46c-4.509-.809-6.594-5.662-7.335-9.724a16.518,16.518,0,0,1-.24-3.226,6.455,6.455,0,0,1,.472-2.917,2.756,2.756,0,0,1,4.038-.65,2.056,2.056,0,0,0,2.829,0,2.016,2.016,0,0,0,0-2.828Z"/><path class="b" d="M144.557,69.763a37.521,37.521,0,0,0,8.13,18.154c4.486,5.245,10.386,9.046,17.333,9.792a2.013,2.013,0,0,0,2-2,2.047,2.047,0,0,0-2-2c-6-.644-11.018-4.435-14.782-8.948-3.8-4.56-5.816-10.281-6.824-16.062a2.018,2.018,0,0,0-2.461-1.4,2.046,2.046,0,0,0-1.4,2.461Z"/><path class="b" d="M172.013,82.312a13.4,13.4,0,0,0,6.456,1.5,10.585,10.585,0,0,0,6.59-1.975,2,2,0,0,0,0-2.828,2.064,2.064,0,0,0-2.829,0c.679-.529-.108.042-.329.157-.174.092-.647.225-.054.045-.18.055-.354.137-.534.194a10.5,10.5,0,0,1-1.5.342c.284-.047.179-.023-.043,0q-.22.022-.441.036c-.354.023-.709.032-1.064.03q-.477,0-.952-.034c-.146-.01-.291-.022-.437-.036-.124-.013-.59.014-.111-.01a4.712,4.712,0,0,1-1.4-.31c-.2-.059-.387-.129-.58-.2-.475-.162.381.186-.048-.016-.24-.113-.476-.231-.711-.355a2,2,0,0,0-2.018,3.454Z"/><path class="b" d="M177.283,67.321a29.323,29.323,0,0,1,.693,3.168l-.072-.532a1.879,1.879,0,0,1,.012.437l.072-.531a1.1,1.1,0,0,1-.048.2l.2-.477a.815.815,0,0,1-.069.126l.313-.405a.668.668,0,0,1-.1.1l.405-.313a2.008,2.008,0,0,1-.251.133l.478-.2a1.883,1.883,0,0,1-.423.123l.532-.071a1.757,1.757,0,0,1-.4,0l.531.071c-.149-.021-.3-.057-.446-.077a1.523,1.523,0,0,0-.8-.036,1.477,1.477,0,0,0-.744.238,2,2,0,0,0-.718,2.736,1.918,1.918,0,0,0,1.2.919c.374.05.737.145,1.117.161a3.625,3.625,0,0,0,1.69-.408,2.523,2.523,0,0,0,1.373-1.651,3.992,3.992,0,0,0-.016-1.737c-.172-1.021-.408-2.032-.67-3.033a2.064,2.064,0,0,0-.92-1.2,2,2,0,0,0-2.938,2.259Z"/><path class="b" d="M160.9,58.25c-.529,1.719-.184,5.674,3.073,6.01,4.3-.025,4.533-4.807,3.084-7.055C165.867,55.365,162.379,54.6,160.9,58.25Z"/><path class="b" d="M195.367,58.25c.529,1.719.184,5.674-3.073,6.01-4.3-.026-4.533-4.807-3.085-7.055C190.4,55.365,193.884,54.6,195.367,58.25Z"/><path class="b" d="M153.222,34a103.73,103.73,0,0,0-4.8,10.9c-1.412,3.446-3.08,7-3.731,10.694a2.057,2.057,0,0,0,1.4,2.46,2.016,2.016,0,0,0,2.46-1.4c.636-3.6,2.25-7.077,3.628-10.442a96.911,96.911,0,0,1,4.5-10.191c1.244-2.256-2.21-4.276-3.454-2.019Z"/><path class="b" d="M201.778,37.745a56.849,56.849,0,0,1,3.474,7.278,40.56,40.56,0,0,1,3.08,10.96,2.066,2.066,0,0,0,2,2,2.011,2.011,0,0,0,2-2,50.409,50.409,0,0,0-1.395-7.2,42.005,42.005,0,0,0-2.03-5.327,58.732,58.732,0,0,0-3.676-7.734c-1.365-2.175-4.827-.17-3.453,2.019Z"/><path class="b" d="M197.356,35.532c-2.71.3-5.958.028-8.16-1.792-1.407-1.163-4.031-.121-3.343,1.946a4.984,4.984,0,0,1,.523,2.243c-.113.441.034-.016-.013.019a.7.7,0,0,1-.381.146,13.136,13.136,0,0,1-1.439-.114,78.361,78.361,0,0,1-7.914-1.586,121.711,121.711,0,0,1-15.111-5.052,2.015,2.015,0,0,0-2.461,1.4,2.048,2.048,0,0,0,1.4,2.46,111.93,111.93,0,0,0,18.688,5.874q2.387.492,4.8.83a6.474,6.474,0,0,0,4.233-.39c2.715-1.508,2.38-4.35,1.534-6.89l-3.342,1.946a14.758,14.758,0,0,0,10.988,2.963,2.059,2.059,0,0,0,2-2,2.012,2.012,0,0,0-2-2Z"/><path class="f" d="M71.222,164.246l-.143-.288c-.8-1.6-3.193-1.083-3.656.478a4.8,4.8,0,0,1-1.867,1.925,9.029,9.029,0,0,1-4.592,1.517,11.2,11.2,0,0,1-5.615-1.471,6.8,6.8,0,0,1-3.5-5.381,5.83,5.83,0,0,1,1.137-3.621,4.831,4.831,0,0,1,.817-.816,4.254,4.254,0,0,1,.545-.331c.095-.05-.14.025.242-.09a2.024,2.024,0,0,0,.478-3.656,6.386,6.386,0,0,1-3.287-5.216,6.669,6.669,0,0,1,2.59-5.447,6.6,6.6,0,0,1,1.093-.725,9.885,9.885,0,0,1,2.5-.741,6.51,6.51,0,0,1,6.479,2.912,2.017,2.017,0,0,0,3.726-1.009c.185-2.343,3.1-3.834,5.145-3.976A8.825,8.825,0,0,1,79.105,140a8,8,0,0,1,3,5.722,7.192,7.192,0,0,1-.858,3.677,4.518,4.518,0,0,1-1.288,1.476,2.025,2.025,0,0,0,.477,3.656c1.918.538,3.41,2.893,3.431,5.095a7.55,7.55,0,0,1-2.509,5.258c-.122.119-.247.233-.374.347a1.767,1.767,0,0,1-.556.412,6.8,6.8,0,0,1-7.448.242,5.266,5.266,0,0,1-1.756-1.643c-1.328-2.2-4.788-.193-3.454,2.019,2.975,4.931,10.186,5.886,14.771,2.772,3.715-2.522,6.209-7.239,5-11.737a9.109,9.109,0,0,0-6.037-6.622l.478,3.655c2.83-1.773,4.2-5.369,4.127-8.607a11.9,11.9,0,0,0-4.88-9.1,12.463,12.463,0,0,0-9.818-2.065c-3.663.789-6.935,3.9-7.237,7.725l3.727-1.01c-3.428-5.616-11.476-6.458-16.355-2.255a10.3,10.3,0,0,0,1.506,16.945l.478-3.655c-3.362,1.012-5.377,4.538-5.648,7.875a10.616,10.616,0,0,0,4.915,9.343,14.694,14.694,0,0,0,8.968,2.3c3.618-.337,8.4-2.535,9.522-6.33l-3.656.478.143.288C68.916,168.569,72.368,166.546,71.222,164.246Z"/><path class="f" d="M387.808,192.72l-.121-.241c-.8-1.607-3.184-1.076-3.655.477-.064.21-.093.241-.336.529a4.557,4.557,0,0,1-.979.826,7.325,7.325,0,0,1-3.587,1.3,8.978,8.978,0,0,1-4.777-1.186,5.4,5.4,0,0,1-2.782-4.259,4.565,4.565,0,0,1,.832-2.77,4.664,4.664,0,0,1,.714-.714,3.37,3.37,0,0,1,.36-.217c.513-.277-.3.081.16-.06a2.025,2.025,0,0,0,.478-3.656,5.1,5.1,0,0,1-2.57-5.157,5.672,5.672,0,0,1,2.771-3.795c2.253-1.247.237-4.7-2.019-3.454a9.513,9.513,0,0,0-4.719,6.919A9.091,9.091,0,0,0,372.1,186.2l.478-3.655c-2.842.871-4.6,3.723-4.933,6.558a9.164,9.164,0,0,0,4.145,8.43,12.546,12.546,0,0,0,7.967,2.019c3.154-.342,7.139-2.25,8.136-5.531l-3.656.477.121.242c1.148,2.3,4.6.281,3.454-2.019Z"/><path class="f" d="M385.285,174.427c.156-1.8,2.5-2.922,4.052-3.022a6.975,6.975,0,0,1,2.846.4,8.116,8.116,0,0,1,1.84,1.011,6.37,6.37,0,0,1,2.331,4.4,5.808,5.808,0,0,1-.579,2.85,3.571,3.571,0,0,1-.948,1.236c-.262.232.315-.2-.116.072a2.025,2.025,0,0,0,.478,3.655c1.641.468,2.914,2.749,2.6,4.694a6.488,6.488,0,0,1-2.284,3.765c-1.951,1.686.888,4.5,2.828,2.828a10.115,10.115,0,0,0,3.5-7.049,8.262,8.262,0,0,0-5.582-8.095l.478,3.656c5.426-3.435,4.225-11.695-.374-15.234a10.787,10.787,0,0,0-8.683-1.98,7.987,7.987,0,0,0-6.388,6.814c-.223,2.564,3.779,2.549,4,0Z"/></svg>