<?xml version="1.0" encoding="utf-8"?>
<!-- Uploaded to: SVG Repo, www.svgrepo.com, Generator: SVG Repo Mixer Tools -->
<svg width="800px" height="800px" viewBox="-37.15 0 308.311 308.311" xmlns="http://www.w3.org/2000/svg"><defs><style>.a{fill:#b5886a;}.b{fill:#211715;}.c{fill:#ffffff;}.d{fill:#f4b467;}</style></defs><path class="a" d="M102.964,162.78a30.22,30.22,0,0,0,9.1-2.883,69.3,69.3,0,0,0,1.079-11.359,46.3,46.3,0,0,1-13.768-11.523,51.561,51.561,0,0,1-9.4-17.513q-.339-.238-.66-.495a15.5,15.5,0,0,1-1.907-1.856l-.032,0c-.1-.015-.2-.04-.305-.058a26.082,26.082,0,0,0-2.5,8.408,42.619,42.619,0,0,0-.289,5.756c.077,4.57,1.234,9.246,1.456,13.816.212,4.551-.974,9.035-5.313,10.5-.173.058-.212.617-.2.762a2.013,2.013,0,0,0,.347.974,6.656,6.656,0,0,0,2.227,1.947,29.629,29.629,0,0,0,15.336,3.908A33.69,33.69,0,0,0,102.964,162.78Z"/><path class="b" d="M85.1,115.665c-3.012,5.976-3.688,12.8-2.952,19.389.4,3.569,1.163,7.131,1.209,10.732.027,2.08-.211,4.478-1.613,6.125-.853,1-2.128,1.1-3.018,1.96-1.26,1.215-1.056,3.265-.231,4.644,1.458,2.436,4.615,3.775,7.136,4.785a34.56,34.56,0,0,0,19.243,1.574c6.216-1.207,12.677-4.258,16.342-9.608,1.75-2.555-2.408-4.959-4.145-2.423-3.472,5.069-10.772,7.384-16.637,7.822a30.668,30.668,0,0,1-10.806-1.059,23.249,23.249,0,0,1-4.28-1.671,14.7,14.7,0,0,1-1.965-1.155c-.163-.121-.469-.539-.663-.59-.282-.073.019-.241-.089.139l-.617,1.059.106-.123-1.059.617c7.4-2.686,7.5-10.713,6.626-17.332-1-7.559-2.016-15.372,1.558-22.462,1.387-2.752-2.753-5.185-4.145-2.423Z"/><path class="c" d="M181.733,174.055c-.5-.205-16.868-7.588-17.193-7.705-4.91-1.773-4.717-4.931-5.336-8.463a73.13,73.13,0,0,1-.949-7.726c13.752-4.65,25.035-23.44,26.933-28.592.273-.831.83-2.393,1.326-4.248.666-.117,1.042-.175,1.042-.175a13.021,13.021,0,0,0,6.06-2.731,19.672,19.672,0,0,0,5.083-6.671,30.921,30.921,0,0,0,3.153-16.394,10.306,10.306,0,0,0-1.08-4.152,7.3,7.3,0,0,0-5.248-3.489,7.731,7.731,0,0,0-6.186,1.809s4.433-42.882-53.015-42.882c-23.26,0-35.9,7.951-42.743,17.006a41.756,41.756,0,0,0-7.99,25.876,7.729,7.729,0,0,0-6.185-1.809A7.3,7.3,0,0,0,74.156,87.2a10.322,10.322,0,0,0-1.08,4.152,30.93,30.93,0,0,0,3.153,16.394,19.672,19.672,0,0,0,5.083,6.671,13.025,13.025,0,0,0,6.061,2.731s.745.115,1.975.3a52.576,52.576,0,0,0,10.024,19.568,46.341,46.341,0,0,0,13.717,11.5,71.193,71.193,0,0,1-1.038,9.376c-.619,3.532-.425,6.69-5.336,8.463-.325.117-14.443,6.816-16.962,7.705,0,0,10.694,22.812,47.583,22.812C173.336,196.867,181.733,174.055,181.733,174.055Z"/><path class="b" d="M155.717,146.908a86.791,86.791,0,0,0,1.614,14.379,9.6,9.6,0,0,0,2.056,4.527,8.8,8.8,0,0,0,2.216,1.816,12.23,12.23,0,0,0,1.547.735c.357.147,1.327.688.261.092,1.451.811,3.1,1.383,4.618,2.063q3.839,1.724,7.676,3.45c1.793.806,3.578,1.636,5.39,2.4a2.413,2.413,0,0,0,2.952-1.676,2.462,2.462,0,0,0-1.676-2.952c1.25.526-.424-.2-.717-.332l-2.7-1.213-7.085-3.184c-1.818-.817-3.635-1.638-5.458-2.446-.689-.306-1.417-.552-2.08-.911a3.826,3.826,0,0,1-2.137-2.612,48.814,48.814,0,0,1-.984-5.692,65.564,65.564,0,0,1-.692-8.443c-.062-3.084-4.862-3.095-4.8,0Z"/><path class="b" d="M110.738,146.908a90.34,90.34,0,0,1-1.306,12.3,7.476,7.476,0,0,1-1.013,3.269,7.621,7.621,0,0,1-2.955,1.818c-3.642,1.607-7.218,3.374-10.838,5.03-1.177.538-2.355,1.074-3.54,1.6-.271.12-.544.238-.816.356l-.249.108c-.422.183.3-.124.044-.018-.315.128-.629.259-.95.375a2.462,2.462,0,0,0-1.676,2.952,2.421,2.421,0,0,0,2.952,1.676c4.512-1.623,8.852-3.9,13.192-5.926l2.89-1.35a6.483,6.483,0,0,0,1.414-.654c-.1.085-1.117.465-.147.078.219-.087.436-.18.652-.273a10.618,10.618,0,0,0,1.4-.7,8.778,8.778,0,0,0,2.073-1.728,9.409,9.409,0,0,0,2.005-4.264,81.034,81.034,0,0,0,1.665-14.642c.062-3.09-4.738-3.09-4.8,0Z"/><path class="a" d="M197.5,51.4c-.2-1.141-.4-2.2-.59-3.145C191.529,21.894,164.978.969,137.134,2.5c-27.844-1.529-54.4,19.4-59.772,45.758-1.456,7.109-1.282,19.274.042,24.95L80.07,83.648a7.674,7.674,0,0,1,5.52,1.87c11-7.633,29.671-20.894,39.337-29.206-.8,4.934-3.62,13.326-.062,12.463,14.858-3.44,29.1-10.379,37.708-21.2,1.815,6.391,4.814,15.025,7.018,18.8,3.117,5.339,12.152,17.353,19.747,19.148a7.731,7.731,0,0,1,6.186-1.809,7.473,7.473,0,0,1,.963.21C200.357,74.958,199.053,60.486,197.5,51.4Z"/><path class="b" d="M79.689,72.794a47.7,47.7,0,0,1-.932-9.363A83.293,83.293,0,0,1,79.166,52.2a48.33,48.33,0,0,1,6.712-19.211A58.725,58.725,0,0,1,118.541,7.256a52.937,52.937,0,0,1,10.334-2.164,110.219,110.219,0,0,1,11.146-.273,53.831,53.831,0,0,1,20.918,4.333A58.6,58.6,0,0,1,191,37.918a62.039,62.039,0,0,1,4.867,18.726c.887,7.17,1.378,14.781-.2,21.889a27.6,27.6,0,0,1-1.457,4.66,2.414,2.414,0,0,0,1.677,2.952,2.462,2.462,0,0,0,2.952-1.676c2.929-7.023,2.9-15.254,2.336-22.718-.527-7.048-1.5-14.325-3.874-21.011A62.322,62.322,0,0,0,167.723,7.093,61.035,61.035,0,0,0,145.571.31a107.186,107.186,0,0,0-11.5-.291,57.6,57.6,0,0,0-11.815,1.3A63.613,63.613,0,0,0,84.62,26.177a56.117,56.117,0,0,0-9.352,20.416,70.863,70.863,0,0,0-.943,22.723,41.014,41.014,0,0,0,.736,4.754c.683,3.011,5.312,1.736,4.628-1.276Z"/><path class="b" d="M160.479,48.986c1.08,3.69,2.279,7.351,3.642,10.947a49.11,49.11,0,0,0,3.842,8.39A62.394,62.394,0,0,0,179.8,82.6c2.586,2.256,5.524,4.384,8.9,5.231,3,.751,4.275-3.877,1.276-4.629-5.121-1.283-9.533-6.311-12.883-10.369A48.22,48.22,0,0,1,169.1,59.567c-1.515-3.886-2.821-7.856-3.991-11.857-.866-2.959-5.5-1.7-4.629,1.276Z"/><path class="b" d="M161.026,45.686a53.315,53.315,0,0,1-18.185,14.231,77.7,77.7,0,0,1-11.478,4.6q-2.94.928-5.937,1.659c-.265.065-.534.122-.8.192l-.2.047q-.369.072-.063.033c.037-.083-.035-.03.147.009a1.53,1.53,0,0,1,.64.255c.125.093.687.8.413.5a1.353,1.353,0,0,1-.077-.354c.042.229.03.3.029.027-.01-3.2,1.169-6.586,1.725-9.929a2.422,2.422,0,0,0-4.011-2.336c-9.686,8.309-20.2,15.7-30.611,23.059q-4.107,2.905-8.24,5.772a2.463,2.463,0,0,0-.861,3.284,2.422,2.422,0,0,0,3.284.861c10.876-7.547,21.68-15.226,32.134-23.351,2.6-2.024,5.184-4.083,7.688-6.23l-4.012-2.336c-.587,3.529-1.786,7.033-1.9,10.629-.049,1.6.3,3.452,1.764,4.372,1.682,1.058,3.664.281,5.419-.172A79.114,79.114,0,0,0,153.408,59.24,51.711,51.711,0,0,0,164.42,49.08a2.476,2.476,0,0,0,0-3.394,2.417,2.417,0,0,0-3.394,0Z"/><path class="b" d="M191.035,87.216a5.218,5.218,0,0,1,7.486.894c.956,1.4.988,3.374,1.032,5.009a27.326,27.326,0,0,1-.378,5.539c-1.2,6.736-4.755,14.877-12.257,16.174a2.421,2.421,0,0,0-1.677,2.952,2.457,2.457,0,0,0,2.953,1.677c7.8-1.349,12.45-8.617,14.658-15.641a32.783,32.783,0,0,0,1.464-11.586c-.223-3.918-1.358-7.654-4.974-9.7a10.241,10.241,0,0,0-11.7,1.283,2.421,2.421,0,0,0,0,3.395,2.451,2.451,0,0,0,3.394,0Z"/><path class="b" d="M185.076,111.391a26,26,0,0,1-1.236,6.56c-.241.806-.5,1.6-.772,2.4-.077.23-.157.458-.235.687-.161.469-.093.235-.03.094a51.692,51.692,0,0,1-3.412,6.269A61.668,61.668,0,0,1,165.638,143.3a26.124,26.124,0,0,1-10.181,5.157c-3.01.693-1.736,5.322,1.276,4.629,7.74-1.782,14.224-7.351,19.331-13.19a66.252,66.252,0,0,0,10.734-16,34.034,34.034,0,0,0,3.078-12.5c.1-3.089-4.7-3.086-4.8,0Z"/><path class="b" d="M87.287,83.821a10.2,10.2,0,0,0-10.3-1.929c-3.784,1.491-5.725,4.671-6.213,8.6a31.8,31.8,0,0,0,5.553,22.047,16.68,16.68,0,0,0,10.412,6.918,2.471,2.471,0,0,0,2.952-1.677,2.42,2.42,0,0,0-1.676-2.952c-7.495-1.3-11.065-9.438-12.258-16.174a27.617,27.617,0,0,1-.378-5.539c.044-1.65.087-3.585,1.032-5.009a5.216,5.216,0,0,1,7.486-.894,2.464,2.464,0,0,0,3.394,0,2.421,2.421,0,0,0,0-3.395Z"/><path class="b" d="M85.37,110.668c2.811,16.219,11.593,32.107,26.6,39.965a36.324,36.324,0,0,0,13.193,3.966,2.416,2.416,0,0,0,2.4-2.4,2.454,2.454,0,0,0-2.4-2.4c-15.5-1.61-27.558-15.534-32.4-29.5A69.355,69.355,0,0,1,90,109.392a2.419,2.419,0,0,0-2.952-1.676,2.453,2.453,0,0,0-1.676,2.952Z"/><path class="b" d="M102.273,105.807c-4.666-7.96-8.52-16.664-14.474-23.788a2.419,2.419,0,0,0-3.394,0,2.452,2.452,0,0,0,0,3.394c.176.211.35.424.52.64-.261-.331.108.144.169.225q.473.639.926,1.291c.707,1.019,1.384,2.058,2.045,3.107,1.409,2.237,2.748,4.518,4.061,6.812,2.036,3.56,3.929,7.2,6,10.741,1.561,2.664,5.712.251,4.144-2.422Z"/><path class="b" d="M176.037,108.229c4.2-6.781,8.69-13.4,13.1-20.05q.582-.879,1.167-1.756c.222-.332.978-1.144.145-.28l-4.1-1.7v0l.328-1.212a.354.354,0,0,1-.019.033c-1.575,2.666,2.573,5.083,4.145,2.423a2.352,2.352,0,0,0,.346-1.246c-.192-1.955-2.543-3.31-4.1-1.7a16.222,16.222,0,0,0-1.611,2.326q-1.558,2.347-3.106,4.7-3.867,5.87-7.7,11.759c-.921,1.418-1.849,2.833-2.74,4.271-1.631,2.633,2.519,5.046,4.145,2.422Z"/><path class="c" d="M136.189,102.946c-8.123,0-21.674,1.257-30.462,1.946-1.625.127-5.605.6-6.656,1.8-1.956,2.247-1.214,7.042-1.467,9.766a70.919,70.919,0,0,0,.38,13.069c.586,5.744.871,11.865,4.734,16.345,7.142,8.282,23.694,12.692,34.568,12.692a64.661,64.661,0,0,0,21.276-3.926c5.93-2.166,11.474-5.8,14.577-11.025,2.927-4.927,2.812-9.866,3.44-15.478a59.277,59.277,0,0,0,.225-11.889c-.267-2.717.413-7.156-1.567-9.43-1.051-1.207-4.333-1.769-5.956-1.911C158.979,104.007,145.215,102.946,136.189,102.946Z"/><path class="b" d="M136.189,100.546c-7.914.015-15.832.754-23.713,1.4a94.408,94.408,0,0,0-10.61,1.066A8.34,8.34,0,0,0,97.374,105a8.974,8.974,0,0,0-2,5.388c-.177,1.7-.071,3.407-.119,5.112-.061,2.131-.254,4.237-.2,6.375a123.678,123.678,0,0,0,1.1,12.992c.565,4.335,1.6,8.59,4.365,12.086a27.573,27.573,0,0,0,8.023,6.558,59.053,59.053,0,0,0,21.158,6.866,60.969,60.969,0,0,0,25.377-2.073c8.1-2.348,16.447-6.494,20.575-14.253,2.166-4.071,2.647-8.568,3.054-13.087a81.635,81.635,0,0,0,.54-14.3c-.293-3.456.4-7.5-1.572-10.576-2.083-3.246-6.637-3.433-10.095-3.73-8.614-.74-17.245-1.421-25.888-1.712-1.832-.062-3.666-.1-5.5-.1-3.089-.005-3.094,4.795,0,4.8,7.7.011,15.394.554,23.065,1.138,3.57.272,7.615.37,10.937.942a16.793,16.793,0,0,1,2.134.494,2.989,2.989,0,0,1,1.2.594c.821,1.048.758,2.816.785,4.071.082,3.857.411,7.694.2,11.555-.121,2.21-.39,4.406-.59,6.609a55.232,55.232,0,0,1-.7,5.751,18.166,18.166,0,0,1-5.208,9.722,27.752,27.752,0,0,1-9.171,5.755,55.94,55.94,0,0,1-43.3-.343c-5.684-2.394-11.686-5.985-13.61-12.208-1.1-3.565-1.312-7.355-1.663-11.049a84.545,84.545,0,0,1-.229-12.449c.083-1.621-.031-3.247.077-4.868a7.885,7.885,0,0,1,.332-1.934,2.23,2.23,0,0,1,.211-.523c.095-.174.2-.335.107-.21.23-.3-.114.032.116-.088,2.167-1.138,5.469-1.06,8.074-1.273,7.481-.61,14.966-1.28,22.468-1.578,1.587-.063,3.175-.1,4.763-.108C139.277,105.34,139.283,100.54,136.189,100.546Z"/><path class="c" d="M55.966,116.452a20.915,20.915,0,0,1,5.421-3.511c6.06-2.586,10.462-5.895,16.027-9.569,5.634-3.719,10.551-8.454,17.652-8.962,4.409-.315,7.231,1.719,8.768,4.741,6.293-.429,8.589,2.151,8.8,5.631,2.223,2.276,7.118,2.2,7.421,6.17a4.763,4.763,0,0,1-.338,1.855c6.154-2.482,9.352,2.881,5.614,7.082-2.628,2.954-6.875,4.068-9.974,6.407a27.7,27.7,0,0,1-3.231,1.047c-2.161,3.563-4.9,5.859-9.752,4.244l-2.7,3.145c-2.972.263-4.789,2.815-7.46,3.871-2.8,1.109-5.12.606-8.109.295-4.889-.509-7.179-1.424-9.258-2.861a49.576,49.576,0,0,0-3.66,7.22l-4.518,6.5L43.336,132.645l7.134-9.783A30.107,30.107,0,0,1,55.966,116.452Z"/><path class="b" d="M52.542,124.074a26.2,26.2,0,0,1,6.418-6.968c2.621-1.909,5.752-2.949,8.572-4.523a187.15,187.15,0,0,0,16.175-10.708A30.957,30.957,0,0,1,91.1,97.687c2.349-.819,5.2-1.412,7.589-.415,3.57,1.491,4.639,6.64,4.122,10.333a7.18,7.18,0,0,1-.177.846c0-.018-.234.72-.11.423a3.4,3.4,0,0,1-.358.646c.3-.412-.521.476-.125.163a3.413,3.413,0,0,1-2.658.547c-.855-.162-1.018-.481-1.24-1.339a8.354,8.354,0,0,1,.038-3.362,2.466,2.466,0,0,0-1.676-2.952,2.42,2.42,0,0,0-2.952,1.676c-.548,2.99-.672,6.541,1.575,8.914,2.214,2.337,6.214,2.405,8.921.919,2.809-1.541,3.575-4.814,3.635-7.779a17.191,17.191,0,0,0-2-8.772c-3.7-6.523-11.523-6.394-17.678-3.755a48.821,48.821,0,0,0-8.931,5.525c-3.15,2.25-6.388,4.4-9.638,6.5-1.838,1.19-3.711,2.327-5.652,3.343s-4.022,1.758-5.89,2.9a30.6,30.6,0,0,0-9.5,9.6c-1.682,2.6,2.471,5.01,4.145,2.423Z"/><path class="b" d="M91.386,105.111c-2.058,3.4-3.332,7.193-5.314,10.63-.224.388-.457.769-.7,1.142-.114.171-.23.34-.35.508-.08.111-.161.222-.243.331.146-.186.165-.213.059-.08a16.456,16.456,0,0,1-1.906,1.956c-.083.07-.167.14-.252.207q.3-.224-.042.028c-.187.129-.371.262-.561.386a14.891,14.891,0,0,1-4.421,1.953c-2.961.858-1.7,5.491,1.276,4.628A18.407,18.407,0,0,0,89.9,118.7c2.183-3.558,3.467-7.585,5.63-11.163,1.6-2.65-2.546-5.066-4.144-2.423Z"/><path class="b" d="M106.377,101.55a9.247,9.247,0,0,1,1.775.384c.364.115-.031-.07.387.164.118.067.863.565.482.258a5.977,5.977,0,0,1,.568.546c.084.088.242.356-.019-.032a3,3,0,0,1,.2.321c.046.093.316.673.211.4-.115-.3.025.093.042.167.037.158.087.315.126.472.032.129.053.261.076.391-.017-.094-.037-.5-.012-.033.016.279.032.556.03.836,0,.253-.024.5-.037.757,0,.067-.052.526-.017.233s-.048.3-.059.352a20.1,20.1,0,0,1-1.079,3.658c-.018.044-.175.422-.041.107-.064.15-.131.3-.2.448-.118.26-.241.518-.367.773q-.451.915-.968,1.794-.433.736-.91,1.445c-.161.237-.329.468-.493.7-.315.449.117-.106-.3.389-1.778,2.123-4.441,5.234-7.394,5.5a3.672,3.672,0,0,1-2.233-.443.974.974,0,0,1-.5-1.048c.067-.4-.108.27.039-.1.08-.2-.084.1.126-.213a12.959,12.959,0,0,1,1-1.235,14.572,14.572,0,0,0,2.155-2.89c1.384-2.753-2.755-5.186-4.144-2.423-1.057,2.1-3.36,3.431-3.848,5.849a5.931,5.931,0,0,0,2.753,6.192c5.046,3.076,10.323-.53,13.859-4.085a26.626,26.626,0,0,0,5.267-7.557c1.457-3.124,2.576-6.6,2.03-10.08-.685-4.368-4.427-6.415-8.51-6.794a2.418,2.418,0,0,0-2.4,2.4,2.451,2.451,0,0,0,2.4,2.4Z"/><path class="b" d="M113.455,108.211c1.227.581,3.224,1.089,3.985,2.185a1.882,1.882,0,0,1,.211.968c.006-.482-.122.411-.164.544a6.455,6.455,0,0,1-.286.768c-1.22,2.794-3.1,5.253-4.394,8.015-1.2,2.566-2.415,5.564-4.276,7.5a4.237,4.237,0,0,1-2.6,1.493c.285-.052-.584.031-.7.03a4.659,4.659,0,0,1-.849-.074,10.448,10.448,0,0,1-2.519-.821,2.47,2.47,0,0,0-3.284.861,2.42,2.42,0,0,0,.861,3.283c3.094,1.421,6.446,2.194,9.663.691,2.546-1.189,4.3-3.62,5.621-6.012,1.353-2.443,2.339-5.069,3.767-7.47,1.514-2.546,3.49-5.265,3.893-8.268a6.122,6.122,0,0,0-1.853-5.209,16.581,16.581,0,0,0-4.654-2.627,2.467,2.467,0,0,0-3.284.861,2.419,2.419,0,0,0,.861,3.283Z"/><path class="b" d="M121.322,114.785c.2-.054.4-.106.6-.148.243-.05.55-.036.124-.03.378,0,.762,0,1.139-.007.277,0-.235,0-.233-.033,0,0,.216.042.232.047.149.039.3.079.444.122.032.009.184.086.211.075-.027.011-.435-.227-.241-.1.132.089.291.167.431.245.348.2-.319-.328-.05-.041.09.1.19.2.287.286.286.26-.229-.4-.047-.063a2.991,2.991,0,0,0,.232.405c.142.183-.138-.239-.106-.266-.006.005.064.175.068.191.035.131.071.263.107.395a1.5,1.5,0,0,0,.039.2c-.028-.009-.033-.533-.045-.291-.009.165.016.335.009.5,0,.072-.016.147-.014.219,0,.246.023-.255.039-.268-.056.045-.077.371-.1.45-.041.154-.094.3-.143.454-.025.08-.152.287,0,.018.171-.3-.024.035-.057.095-.1.179-.2.359-.308.531s-.32.426-.059.116a10.675,10.675,0,0,1-.893.949c-.148.138-.311.262-.458.4-.194.184.058-.036.088-.06-.08.062-.163.122-.245.182-.359.26-.731.5-1.11.732-.739.449-1.506.85-2.276,1.244a29.675,29.675,0,0,0-5.332,3.255,2.408,2.408,0,0,0,0,3.394,2.47,2.47,0,0,0,3.395,0c.076-.062.362-.263-.011,0,.082-.058.163-.119.245-.178q.29-.206.588-.4c.431-.277.875-.534,1.325-.781.881-.485,1.784-.927,2.676-1.39a17.551,17.551,0,0,0,5.151-3.664,8.276,8.276,0,0,0,2.3-5.593,6.333,6.333,0,0,0-2.648-5.016,7.8,7.8,0,0,0-6.632-.821,2.4,2.4,0,0,0,1.276,4.629Z"/><path class="b" d="M99.674,132.332c-2.879.35-4.729,1.9-7.1,3.378-2.457,1.537-5.066,1.17-7.814.861a25.681,25.681,0,0,1-6.526-1.364,17.019,17.019,0,0,1-4.108-2.732,2.471,2.471,0,0,0-3.394,0,2.418,2.418,0,0,0,0,3.394A23.989,23.989,0,0,0,75.7,139.3a25.152,25.152,0,0,0,7.733,1.924c3.148.371,6.373.878,9.419-.306a16.665,16.665,0,0,0,3.613-2.067,7.8,7.8,0,0,1,3.209-1.718,2.476,2.476,0,0,0,2.4-2.4,2.414,2.414,0,0,0-2.4-2.4Z"/><path class="b" d="M72.631,136.094c-.547.954-1.2,1.846-1.8,2.767a19.75,19.75,0,0,0-1.961,3.758,2.4,2.4,0,0,0,3.526,2.71,2.727,2.727,0,0,0,1.1-1.434c.041-.109.084-.218.129-.326l-.242.574c.863-2.034,2.3-3.723,3.388-5.626a2.5,2.5,0,0,0,.241-1.85,2.4,2.4,0,0,0-4.386-.573Z"/><path class="d" d="M80.8,305.9c.051-28.99.139-66.093.2-76.125-2.167.487-3.879.866-3.879.866-7.221,1.595-21.792,7.124-28.972,8.817-12.662,2.985-34.624,10.264-42.691-3.941C-1.57,223.163,5,208.744,10.2,197.159c5.088-11.348,29.679-63.185,34.074-67.681l.863-.883c4.245,1.707,26.069,13.333,30.2,16.124-3.192,5.191-10.495,27.915-15.66,43.947,3.19-2.223,6.355-4.718,9.358-6.425a115.662,115.662,0,0,1,19.323-9.147c9.475,6.8,29.124,13.893,47.424,13.939,16.222.04,38.3-6.491,45.957-12.981,5.752.677,22.854,10.572,32.456,21.193,10.584,11.709,10.415,27.632,11.384,37.221,2.243,22.2,4.219,50.055,6.034,73.445"/><path class="b" d="M193.5,228.035c.209,19.065.083,38.139.076,57.205q0,10.332-.008,20.664c0,3.089,4.8,3.094,4.8,0,.008-22.509.046-45.019-.014-67.528-.009-3.447-.016-6.894-.054-10.341-.034-3.087-4.834-3.095-4.8,0Z"/><path class="b" d="M181.14,176.369c3.07.417,5.491,1.761,8.188,3.172a95.331,95.331,0,0,1,11.766,7.358,74.791,74.791,0,0,1,10.921,9.518,35.219,35.219,0,0,1,7.385,12.421c2.8,8.027,3.062,16.452,3.9,24.823,1.112,11.154,2.043,22.326,2.932,33.5,1.027,12.914,1.98,25.834,2.982,38.75a2.46,2.46,0,0,0,2.4,2.4,2.42,2.42,0,0,0,2.4-2.4c-1.816-23.418-3.433-46.857-5.715-70.236-.855-8.754-1.084-17.717-3.644-26.194a42.118,42.118,0,0,0-6.947-13.751,61.96,61.96,0,0,0-10.936-10.517A101.186,101.186,0,0,0,192.876,176c-3.19-1.737-6.8-3.759-10.46-4.256a2.483,2.483,0,0,0-2.952,1.676,2.417,2.417,0,0,0,1.676,2.952Z"/><path class="b" d="M88.542,176.127a77.231,77.231,0,0,0,17.166,7.994,101.081,101.081,0,0,0,21.887,4.851c13.386,1.432,27.135-.847,39.824-5.173,5.6-1.909,11.421-4.212,16.011-8.047a2.419,2.419,0,0,0,0-3.394,2.452,2.452,0,0,0-3.394,0c-.17.142-.341.284-.516.42.376-.291-.25.176-.263.184-.411.286-.823.569-1.247.837-1.025.648-2.087,1.236-3.168,1.786a63.2,63.2,0,0,1-7.335,3.109,107.508,107.508,0,0,1-18.164,4.72,84.883,84.883,0,0,1-39.773-3.077,74.994,74.994,0,0,1-18.606-8.354c-2.6-1.688-5.006,2.466-2.422,4.144Z"/><path class="b" d="M78.614,227.2c-.26,5.862-.062,11.778-.08,17.644q-.057,19-.094,38-.024,11.527-.045,23.055c0,3.089,4.8,3.093,4.8,0q.036-20.379.085-40.757.038-15.786.093-31.573c.008-2.12-.053-4.256.041-6.374.138-3.088-4.663-3.082-4.8,0Z"/><path class="b" d="M62.947,189.272a98.841,98.841,0,0,1,27.741-14.419c2.934-.929,1.681-5.565-1.276-4.628a102.786,102.786,0,0,0-28.888,14.9,2.469,2.469,0,0,0-.861,3.283,2.419,2.419,0,0,0,3.284.861Z"/><path class="b" d="M165.213,89.446c.843,2.738.294,9.036-4.893,9.571-6.855-.041-7.22-7.655-4.913-11.235C157.3,84.85,162.852,83.632,165.213,89.446Z"/><path class="b" d="M121.261,90.987c-3.343.231-6.661.757-10,1.038a2.4,2.4,0,1,0,0,4.8c3.339-.281,6.657-.807,10-1.038a2.4,2.4,0,0,0,0-4.8Z"/><path class="b" d="M110.825,80.378a42.07,42.07,0,0,0,7.184-.595c2.16-.393,4.684-1.151,6.125-2.923a2.458,2.458,0,0,0,0-3.394,2.427,2.427,0,0,0-3.394,0,4.025,4.025,0,0,1-.387.418c-.057.053-.372.3-.029.041s.029-.027-.052.028a6.314,6.314,0,0,1-.548.325c-.118.063-.24.117-.359.177a1.546,1.546,0,1,0,.2-.078c-.455.076-.931.336-1.383.457-.528.142-1.063.255-1.6.349-.264.046-.53.085-.795.125-.32.049.625-.072.076-.012-.135.014-.269.031-.4.046-.534.057-1.069.1-1.6.135-1.007.065-2.016.092-3.024.1a2.4,2.4,0,1,0,0,4.8Z"/><path class="b" d="M56.908,204.616c2.637-6.9,4.671-14.054,6.94-21.076,3.077-9.523,6.137-19.068,9.621-28.453q.6-1.6,1.218-3.2.273-.694.554-1.387c.082-.2.166-.405.249-.608l.105-.253c.227-.545-.134.311,0,0a30.082,30.082,0,0,1,1.812-3.716,2.449,2.449,0,0,0-.861-3.283c-3.453-2.315-7.215-4.229-10.861-6.212-4.776-2.6-9.579-5.152-14.432-7.6-1.8-.907-3.594-1.807-5.449-2.584a2.343,2.343,0,0,0-2.335.617,36.144,36.144,0,0,0-5.456,8.066c-2.619,4.726-5.074,9.543-7.5,14.368-5.754,11.422-11.3,22.948-16.758,34.518-1.811,3.842-3.618,7.686-5.367,11.557C4.646,203.649.713,212.18.071,221.364c-.586,8.379,2.418,17.917,10.151,22.2,6.343,3.512,14.009,3.153,20.946,2.125a167.356,167.356,0,0,0,19.6-4.423c7.565-2.077,14.91-4.888,22.435-7.1,1.507-.443,3.02-.862,4.552-1.206,3.013-.675,1.738-5.3-1.276-4.628-7.241,1.623-14.245,4.342-21.305,6.592-6.2,1.978-12.564,3.557-18.925,4.949s-13.4,2.6-19.662,1.042a14.188,14.188,0,0,1-7.353-4.2,19.048,19.048,0,0,1-4.338-10.875c-.781-9.225,3.212-18.166,6.893-26.388,1.653-3.69,3.359-7.357,5.077-11.017q7.787-16.59,15.936-33.009c4.053-8.135,8-16.457,12.991-24.067.24-.365-.426.451-.135.174.065-.061.113-.143.175-.208.341-.359.688-.712,1.035-1.067l-2.335.618c-.738-.309-.02,0,.269.129.348.159.694.324,1.039.489.833.4,1.66.811,2.486,1.226,2.215,1.112,4.414,2.253,6.608,3.405,4.8,2.52,9.578,5.084,14.3,7.753,1.65.933,3.321,1.856,4.9,2.912l-.861-3.283a51.317,51.317,0,0,0-3.7,8.4c-1.669,4.362-3.195,8.779-4.693,13.2-3.226,9.527-6.263,19.117-9.366,28.685-1.035,3.191-2.022,6.414-3.22,9.548a2.418,2.418,0,0,0,1.676,2.952,2.453,2.453,0,0,0,2.952-1.676Z"/></svg>