<?xml version="1.0" encoding="utf-8"?>
<!-- Uploaded to: SVG Repo, www.svgrepo.com, Generator: SVG Repo Mixer Tools -->
<svg width="800px" height="800px" viewBox="0 -16.82 425.357 425.357" xmlns="http://www.w3.org/2000/svg"><defs><style>.a{fill:#211715;}.b{fill:#ffffff;}.c{fill:#bdbdbd;}.d{fill:#b5886a;}.e{fill:#d9d9d9;}.f{fill:#ffda71;}.g{fill:#f4b3b3;}.h{fill:#7a7473;}.i{fill:#b3b3b3;}.j{fill:#957f6e;}.k{fill:none;}</style></defs><path class="a" d="M116.852,235.555l31.7,0,41.5-.007,43.67-.007,38.593-.006q13.1,0,26.192,0h2c2.574,0,2.578-4,0-4l-24.112,0-37.6.006-43.45.007-42.032.007-33.326,0h-3.148c-2.574,0-2.578,4,0,4Z"/><path class="a" d="M341.53,185.64q-15.524,0-31.045.064-26.394.072-52.787.155-31.62.094-63.239.188-31.2.09-62.4.166-25.137.059-50.274.088l-4.7,0c-2.573,0-2.578,4,0,4q24.027-.007,48.053-.074,30.769-.069,61.538-.16,31.869-.09,63.736-.188,27.321-.083,54.643-.162,17.132-.048,34.261-.078h2.213c2.574,0,2.578-4,0-4Z"/><path class="b" d="M235.6,175.471c.256,2.689.411,4.744.5,6.6.157,3.179.443,6.481.72,9.673.647,7.446,2.574,11.648,10.356,13.129,2.247.428,3.544,1.339,4.2,2.758s.754,5.835-1.453,5.835c-4.1,0-74.327-.016-80.985-.016-2.156,0-2.352-4.4-1.7-5.819s1.953-2.33,4.2-2.758c7.782-1.481,9.71-5.683,10.356-13.129.277-3.192.563-6.494.72-9.673.092-1.861.247-3.916.5-6.6"/><path class="a" d="M233.6,175.471c.473,5.018.687,10.054,1.119,15.076.307,3.564.617,7.375,2.54,10.5a12.911,12.911,0,0,0,8.182,5.5c1.418.352,3.6.548,4.133,1.946a3.869,3.869,0,0,1,.215,1.551,5.434,5.434,0,0,1-.283,1.62c-.107-.07.6-.062.285-.189a1.428,1.428,0,0,0-.428,0H243.8l-13.629,0-35.733-.008q-12.352,0-24.7,0a3.249,3.249,0,0,0-.558,0c-.064.011-.148-.02-.21,0s.192.013.224.056c.129.171.085.057.094.041.039-.075-.349-1.234-.362-1.517a3.38,3.38,0,0,1,.16-1.631c.552-1.365,2.872-1.544,4.266-1.9a14.8,14.8,0,0,0,4.76-2.052,12.739,12.739,0,0,0,5.011-7.946c1.052-4.666,1.152-9.669,1.4-14.428.117-2.206.3-4.406.5-6.6a2.015,2.015,0,0,0-2-2,2.043,2.043,0,0,0-2,2c-.5,5.258-.723,10.536-1.182,15.8-.261,3-.623,6.572-2.732,8.814a8.615,8.615,0,0,1-3.581,2.195c-2.026.684-4.254.765-6.038,2.058a7.2,7.2,0,0,0-1.48,9.5c1.165,1.671,2.875,1.616,4.659,1.616h4.594l14.376,0,37.045.008c7.663,0,15.366.233,23.026,0,3.532-.106,4.357-3.792,3.978-6.712a6.239,6.239,0,0,0-2.68-4.512c-1.768-1.214-3.935-1.3-5.914-1.969A8.14,8.14,0,0,1,239.6,196.4a28.7,28.7,0,0,1-.843-5.374c-.251-2.9-.494-5.805-.646-8.715-.12-2.285-.3-4.564-.515-6.843a2.054,2.054,0,0,0-2-2,2.014,2.014,0,0,0-2,2Z"/><path class="a" d="M186.032,205.045h46.443c2.574,0,2.578-4,0-4H186.032c-2.573,0-2.578,4,0,4Z"/><path class="b" d="M81.687,15.821c.064,34.023.29,110.687.359,142.894A13.822,13.822,0,0,0,95.813,172.51c44.247.171,181.371-.106,226.651-.185a13.812,13.812,0,0,0,13.8-13.822c-.016-32.989-.069-111.491-.087-142.685A13.813,13.813,0,0,0,322.357,2.009C275.412,2,140.318,1.977,95.511,1.969A13.823,13.823,0,0,0,81.687,15.821Z"/><path class="b" d="M90.246,171.277a13.824,13.824,0,0,1-7.866-12.451c-.008-3.456-.017-7.424-.037-11.8,33.321-.055,248.687-.809,252.4-1.021l1.834-.1c.011,4.725.014,9.008.015,12.715a13.813,13.813,0,0,1-13.8,13.823c-45.281.078-182.4.355-226.652.184A13.774,13.774,0,0,1,90.246,171.277Z"/><path class="c" d="M213.954,159.7a4.654,4.654,0,0,1-9.294,0,4.455,4.455,0,0,1,4.516-4.517A4.7,4.7,0,0,1,213.954,159.7Z"/><path class="a" d="M80.021,15.932q.038,20.132.094,40.264.062,24.519.129,49.038.059,21.767.112,43.533.011,4.154.02,8.308c.008,3.794.513,7.4,2.729,10.6a15.96,15.96,0,0,0,9.569,6.553,36.887,36.887,0,0,0,7.841.413q15.909.045,31.82.039,20.7,0,41.4-.015,22.82-.02,45.639-.051,22.267-.032,44.534-.069,19.1-.031,38.206-.067L317,174.447c2.219,0,4.473.1,6.687-.041a15.943,15.943,0,0,0,10.633-4.969A16.157,16.157,0,0,0,338.6,158.4c.009-2.669,0-5.338,0-8.007q0-9.765-.011-19.53-.013-23.655-.029-47.308-.015-22.9-.029-45.794-.006-8.993-.011-17.984c0-3.2.148-6.406-1.034-9.445a15.9,15.9,0,0,0-7.787-8.578C324.68-.657,318.592.119,313.168.119l-16.325,0L256.782.109,211.194.1,165.478.093,125.034.085l-16.614,0-7.135,0c-2.266,0-4.6-.151-6.857.071a16.01,16.01,0,0,0-14.407,15.78c-.028,2.574,3.972,2.576,4,0a12,12,0,0,1,4.552-9.373C91.2,4.513,94.176,4.08,97.4,4.081l13.708,0,36.079.006,43.273.008,45.643.009,42.55.007,34.624.006h6.763c3,0,5.831.011,8.52,1.556a11.94,11.94,0,0,1,5.833,8.51,53.391,53.391,0,0,1,.121,7.9q.012,20.079.025,40.156l.03,47.615q.014,20.648.024,41.295c0,2.715.12,5.46-.013,8.172a11.83,11.83,0,0,1-4.8,8.828c-4.326,3.156-10.2,2.289-15.269,2.3l-33.321.06q-20.811.036-41.622.068-22.487.034-44.971.06-21.707.024-43.415.034-18.291.007-36.582-.01-7.042-.009-14.085-.027c-2.337-.007-4.831.216-7.111-.348a11.969,11.969,0,0,1-7.933-6.5c-1.343-2.843-1.093-5.959-1.1-9.013q-.01-4.21-.02-8.421-.025-10.227-.052-20.454-.063-23.833-.127-47.665Q84.112,55.615,84.057,33q-.02-8.532-.036-17.064C84.016,13.358,80.016,13.353,80.021,15.932Z"/><path class="b" d="M288.963,144.516c-.448-3.29-1.034-7.133-1.469-9.653-.048-.258-.092-.5-.131-.723-10.706-3.409-42.435-2.841-50.006.009-.2,1.13-.433,2.66-.665,4.343-.278,2.014-.554,4.237-.781,6.24Z"/><path class="b" d="M297.952,120.616c-1.843-4.81-11.565-9.134-16.719-11.4H243.061c-1.554.683-3.514,1.555-5.548,2.571-4.722,2.358-9.838,5.49-11.179,8.834-1.988,4.976-4.292,15.865-5.835,24.291l15.4-.061c.229-2.031.51-4.3.794-6.354.232-1.683.464-3.213.666-4.35,7.57-2.843,39.3-3.411,50.005,0,.039.22.083.465.131.723.44,2.546,1.034,6.445,1.483,9.757,5.27-.025,10.205-.048,14.734-.071C302.22,136.365,300.035,126.038,297.952,120.616Z"/><path class="b" d="M281.233,109.209c-.4-.135-5.182-2.367-5.319-2.417a6.669,6.669,0,0,1-3.98-4.374,29.126,29.126,0,0,1-.457-4.691c5.54-2.2,10.028-9.692,10.8-11.789.115-.348.348-1,.556-1.78l.434-.07a5.445,5.445,0,0,0,2.535-1.142,8.216,8.216,0,0,0,2.126-2.79,12.934,12.934,0,0,0,1.319-6.857,4.309,4.309,0,0,0-.452-1.737A3.056,3.056,0,0,0,286.6,70.1a3.232,3.232,0,0,0-2.587.757s.142-19.83-21.983-19.83-21.41,19.83-21.41,19.83a3.235,3.235,0,0,0-2.587-.757,3.059,3.059,0,0,0-2.2,1.459,4.342,4.342,0,0,0-.452,1.737,12.953,12.953,0,0,0,1.319,6.857,8.229,8.229,0,0,0,2.126,2.79,5.45,5.45,0,0,0,2.535,1.142l.827.128a22.005,22.005,0,0,0,4.192,8.183,18.837,18.837,0,0,0,6.43,5.151,28.836,28.836,0,0,1-.457,4.868,6.672,6.672,0,0,1-3.98,4.374c-.137.05-4.922,2.282-5.32,2.417,0,0,.543,11.064,19.65,11.064S281.233,109.209,281.233,109.209Z"/><path class="d" d="M247.426,101.661a11.076,11.076,0,0,0,5.432-4.091,18.8,18.8,0,0,1-6.474-5.171,22.005,22.005,0,0,1-4.192-8.183l-.827-.128a5.45,5.45,0,0,1-2.535-1.142q-.192-.156-.37-.324a10.876,10.876,0,0,0-1.221,3.876,17.806,17.806,0,0,0-.121,2.452c.031,1.945.521,3.937.619,5.883s-.717,4.17-2.564,4.8C234.332,100.984,241.367,103.813,247.426,101.661Z"/><path class="a" d="M236.734,81.612a14.161,14.161,0,0,0-1.577,5.75,34.049,34.049,0,0,0,.474,6.236,12.288,12.288,0,0,1,.095,2.072,4.689,4.689,0,0,1-.3,1.108c.01-.022-.328.537-.33.54-.374.5-1.194.5-1.678,1.345a2.482,2.482,0,0,0-.229,1.864c.492,1.843,2.778,2.715,4.4,3.2a17.5,17.5,0,0,0,7.144.577,13.906,13.906,0,0,0,8.931-4.543,2.051,2.051,0,0,0,0-2.829,2.018,2.018,0,0,0-2.828,0A9.625,9.625,0,0,1,248.8,98.77a11.36,11.36,0,0,1-1.263.7,6.244,6.244,0,0,1-1.025.39,13.429,13.429,0,0,1-1.342.351q-.384.078-.771.137c.4-.059-.154.015-.236.022a15.971,15.971,0,0,1-2.705.027c-.207-.015-.413-.038-.62-.057-.415-.037.282.058-.239-.033-.378-.065-.754-.133-1.127-.221q-.516-.122-1.022-.28c-.156-.05-.311-.1-.465-.158-.057-.021-.576-.23-.249-.091s-.147-.072-.2-.1c-.116-.058-.23-.117-.343-.181-.253-.145-.682-.472-.215-.109a1.116,1.116,0,0,1-.193-.183c-.194-.251.308.477.14.173a1.6,1.6,0,0,1-.023,1.48l-1.195.919c3.4-1.291,4.3-4.8,3.908-8.115-.394-3.3-1.05-6.745.576-9.812,1.205-2.273-2.247-4.3-3.454-2.019Z"/><path class="d" d="M287.031,54.731C284.482,44.1,273.59,35.77,262.178,36.392c-11.646-.635-22.751,8.052-25,19a30.892,30.892,0,0,0,.018,10.359l.934,4.364a3.343,3.343,0,0,1,2.2.519c4.2-3.327,12.68-8.555,16.744-11.933-.332,1.995-1.514,5.388-.025,5.039,6.217-1.392,12.175-4.2,15.766-8.588a41.444,41.444,0,0,0,2.94,7.616c1.341,2.219,5.243,7.362,8.65,7.81a3.327,3.327,0,0,1,2.2-.453,2.53,2.53,0,0,1,.4.087c1.829-4.189.909-11.283.181-14.82Q287.111,55.058,287.031,54.731Z"/><path class="a" d="M239.124,65.215a22.009,22.009,0,0,1,2.622-15.9,23.493,23.493,0,0,1,13.142-10.047,28.852,28.852,0,0,1,8.742-.907,21.651,21.651,0,0,1,8.193,1.742A23.545,23.545,0,0,1,283.78,51.46a25.562,25.562,0,0,1,2.091,8.508c.318,3.195.455,6.631-.781,9.658a2.014,2.014,0,0,0,1.4,2.46,2.05,2.05,0,0,0,2.461-1.4c1.244-3.049,1.256-6.589,1-9.824a33.951,33.951,0,0,0-1.7-9.021A27.128,27.128,0,0,0,265.79,34.489a32.768,32.768,0,0,0-10.058.438,27.632,27.632,0,0,0-16.259,10.627,25.912,25.912,0,0,0-4.206,20.724c.554,2.513,4.411,1.45,3.857-1.063Z"/><path class="a" d="M270.982,56.007a30.729,30.729,0,0,0,4.321,9.645c2.049,2.754,4.77,6.017,8.289,6.8a2.044,2.044,0,0,0,2.46-1.4,2.021,2.021,0,0,0-1.4-2.46c-.164-.037-.326-.077-.487-.128-.049-.015-.557-.227-.177-.053a8.155,8.155,0,0,1-.983-.54,8.459,8.459,0,0,1-1.514-1.2,22.563,22.563,0,0,1-1.751-1.829c-.244-.283-.48-.571-.713-.862l-.183-.231c.1.125.105.133.022.025-.11-.147-.22-.294-.327-.443a26.592,26.592,0,0,1-3.7-8.4,2,2,0,1,0-3.857,1.063Z"/><path class="a" d="M271.467,53.672a21.223,21.223,0,0,1-6.7,5.238,29.6,29.6,0,0,1-4.042,1.713q-1.084.372-2.188.677-.6.168-1.213.317c-.192.047-1.143.075-.611.129l1.009.273c.876.372.46,1.412.6.472.045-.294.1-.594.164-.89.165-.792.364-1.576.507-2.373a2.019,2.019,0,0,0-3.343-1.946c-5.269,4.343-11.306,7.674-16.68,11.884a2.012,2.012,0,0,0,0,2.829,2.051,2.051,0,0,0,2.828,0c5.376-4.212,11.4-7.536,16.68-11.884l-3.342-1.946c-.326,1.821-1.263,4.015-.654,5.853.944,2.85,4.53,1.354,6.513.723,4.991-1.587,9.9-4.158,13.292-8.241,1.634-1.966-1.181-4.811-2.828-2.828Z"/><path class="a" d="M285.427,72.274c-.191.16.124-.066.2-.1.25-.126-.291.034.219-.068.083-.016.32-.046.108-.029.057,0,.542.026.38,0a1.223,1.223,0,0,1,.455.194l.175.117c-.108-.073-.111-.064-.011.025.218.246-.107-.2.064.075a4.485,4.485,0,0,1,.211.632c-.017-.1.026.262.03.306.016.209.027.419.032.628a10.682,10.682,0,0,1-.134,2.1,10.913,10.913,0,0,1-1.527,4.013,4.168,4.168,0,0,1-2.892,2,2.017,2.017,0,0,0-1.4,2.46,2.044,2.044,0,0,0,2.46,1.4c4.793-.859,7.09-6.238,7.45-10.583.195-2.342-.091-4.88-2.1-6.375a5.261,5.261,0,0,0-6.549.387,2.014,2.014,0,0,0,0,2.828,2.043,2.043,0,0,0,2.828,0Z"/><path class="a" d="M281.234,81.681a11.7,11.7,0,0,1-.69,3.142c-.064.194-.14.387-.2.583-.1.339.1-.111.077-.166.037.094-.278.6-.322.684a27.667,27.667,0,0,1-2.39,3.841,24,24,0,0,1-1.56,1.922,23.435,23.435,0,0,1-2.128,2.112,10.737,10.737,0,0,1-4.448,2.424,2,2,0,0,0,1.063,3.857c4.41-1.035,7.817-4.625,10.41-8.136,2.227-3.015,4.029-6.436,4.184-10.263a2,2,0,1,0-4,0Z"/><path class="a" d="M242.034,69.446a5.262,5.262,0,0,0-6.549-.387c-2.014,1.487-2.3,4.039-2.1,6.375.361,4.345,2.658,9.724,7.45,10.583a2.057,2.057,0,0,0,2.461-1.4,2.017,2.017,0,0,0-1.4-2.46,4.14,4.14,0,0,1-2.828-1.9,10.889,10.889,0,0,1-1.592-4.111,10.34,10.34,0,0,1-.136-1.972,8.121,8.121,0,0,1,.067-1.1c-.036.233.058-.2.069-.245.015-.058.172-.457.087-.259.088-.2.1-.176.193-.245.064-.045.412-.234.183-.135a2.265,2.265,0,0,1,.412-.121c-.259.054.153,0,.22,0,.363.006-.413-.093.215.031.058.012.317.1.126.019.021.009.491.318.292.152a2.055,2.055,0,0,0,2.829,0,2.016,2.016,0,0,0,0-2.828Z"/><path class="a" d="M239.567,81.644a25.674,25.674,0,0,0,5.5,12.285,18.5,18.5,0,0,0,12.1,6.821,2.014,2.014,0,0,0,2-2,2.045,2.045,0,0,0-2-2c-3.807-.411-7.093-2.962-9.474-5.887a22.115,22.115,0,0,1-4.274-10.283,2.017,2.017,0,0,0-2.46-1.4,2.044,2.044,0,0,0-1.4,2.46Z"/><path class="e" d="M253.739,33.624c-1.341.335-4.274-1.676-6.117-.922-1.012.361-1.836,5.7-2.367,9.159a.665.665,0,0,0,.983.683c3.757-2.057,10.691-2.939,14.038-2.97,4.476-.041,11.472.417,16.025,2.049a.628.628,0,0,0,.823-.76c-.722-2.6-2.444-8.468-3.356-8.664-2.011-.335-3.938,2.012-5.112,1.928-1.424-.168-5.614-6.7-7.291-6.872C259.438,27.423,255.415,33.708,253.739,33.624Z"/><path class="a" d="M253.208,31.7c.425-.07-.186-.105-.335-.145-.393-.107-.778-.245-1.166-.372a12.074,12.074,0,0,0-2.691-.622,3.506,3.506,0,0,0-3.739,1.974,19.688,19.688,0,0,0-1.293,4.791c-.164.891-.311,1.786-.452,2.681-.163,1.035-.508,2.2.019,3.176a2.688,2.688,0,0,0,2.921,1.379,19.61,19.61,0,0,0,2.3-.978,32.021,32.021,0,0,1,5.523-1.416,44.4,44.4,0,0,1,9.914-.506,56.91,56.91,0,0,1,5.858.548c1.957.3,3.784.911,5.7,1.347a2.689,2.689,0,0,0,2.835-.945,3.173,3.173,0,0,0,.254-2.969c-.433-1.525-.888-3.045-1.412-4.541a12.473,12.473,0,0,0-1.785-3.859c-1.227-1.484-3.177-1.17-4.761-.442a9.326,9.326,0,0,0-2.182,1.258c-.357.321-.112.082.509.182.351.056-.025.063-.043-.05-.014-.094.181.164-.055-.05a32.018,32.018,0,0,1-2.7-2.966c-1.792-2.088-4.131-5.194-7.107-3.167a22.064,22.064,0,0,0-3.568,3.432c-.515.557-1.029,1.118-1.583,1.637-.079.074-.695.627-.5.449.025-.024-.3.186-.3.185-.008-.054.268-.079.37-.082-2.567.083-2.579,4.083,0,4,1.954-.063,3.42-1.828,4.65-3.152.7-.754,1.384-1.524,2.117-2.246.215-.212.841-.774.834-.769.149-.107.334-.181.474-.294-.2.159-.179.06.083.02h-1.063c.407.071.037.081,0-.028.06.182.275.183.242.156a10.785,10.785,0,0,1,.989.959c.787.829,1.516,1.712,2.262,2.579,1.2,1.394,2.706,3.488,4.786,3.236,1.352-.164,2.313-1.156,3.509-1.693.187-.084.605-.124.733-.242.27-.249-.867-.122-.9-.574.025.294.442.779.571,1.075a32.952,32.952,0,0,1,1.12,3.178,16.406,16.406,0,0,1,1,3.32l.273-1.009.015.02.882-.515c.435-.145-.235-.206-.44-.268-.338-.1-.679-.2-1.022-.286-.66-.171-1.327-.317-2-.447-1.518-.3-3.054-.5-4.59-.673a64.485,64.485,0,0,0-8.1-.395,44.866,44.866,0,0,0-7.28.794,35.065,35.065,0,0,0-3.865.918c-1.23.374-2.386,1.066-3.605,1.412h1.063l-.038-.011.717.718-.146-.247.273,1.009a18.047,18.047,0,0,1,.663-4.318,22.19,22.19,0,0,1,.892-3.532c0-.013.286-.24.089-.176a1.014,1.014,0,0,1-.511.4.348.348,0,0,1,.308-.011,12.382,12.382,0,0,0,1.618.4,8.121,8.121,0,0,0,3.934.619,2.016,2.016,0,0,0,1.4-2.461A2.049,2.049,0,0,0,253.208,31.7Z"/><path class="a" d="M250.814,97.806c-.012.59-.04,1.178-.088,1.766-.023.293-.052.586-.085.878-.016.146-.034.292-.052.438.023-.167.016-.125-.019.125a8.279,8.279,0,0,1-.26,1.336c-.174.525.125-.172-.056.138-.1.168-.183.342-.286.507-.051.081-.445.619-.135.227-.133.169-.275.332-.422.488q-.171.18-.351.349c-.066.061-.614.487-.237.218-.182.13-.366.254-.558.366-.075.044-.712.371-.266.163-.249.116-.512.206-.764.318-.886.4-1.764.813-2.646,1.218q-.8.369-1.6.733c-.194.088-.39.174-.584.261-.461.206.506-.191.126-.054a2,2,0,0,0,1.063,3.857c1.683-.605,3.3-1.473,4.923-2.221.259-.119.52-.232.777-.355.092-.045.269-.116-.153.063-.582.245.244-.1.317-.127a6.816,6.816,0,0,0,1.183-.624,8.9,8.9,0,0,0,3.188-3.618,10.07,10.07,0,0,0,.7-2.883,31.545,31.545,0,0,0,.29-3.567,2,2,0,0,0-4,0Z"/><path class="a" d="M237.886,136.079a29.756,29.756,0,0,1,6.443-1.339c3.4-.417,6.824-.642,10.246-.784a167.98,167.98,0,0,1,22.911.471,45.554,45.554,0,0,1,9.325,1.636c2.463.768,3.517-3.092,1.063-3.858a47.08,47.08,0,0,0-8.747-1.608c-3.74-.422-7.506-.629-11.268-.733a163.745,163.745,0,0,0-22.551.762,36.1,36.1,0,0,0-8.486,1.6c-2.394.884-1.359,4.752,1.064,3.857Z"/><path class="a" d="M224.349,135.073q.981-3.739,2.008-7.468c.369-1.342.742-2.683,1.133-4.019.155-.529.311-1.059.479-1.584.06-.187.121-.372.184-.558.148-.438-.08.127.054-.149,1.3-2.671,4.271-4.428,6.742-5.868a90.057,90.057,0,0,1,9.121-4.489,2.014,2.014,0,0,0,.718-2.737,2.051,2.051,0,0,0-2.737-.717c-5.048,2.223-10.346,4.563-14.492,8.288a11.7,11.7,0,0,0-3.473,5.25c-.655,2.064-1.215,4.16-1.786,6.247q-.921,3.366-1.808,6.741c-.654,2.492,3.2,3.555,3.857,1.063Z"/><path class="a" d="M237.906,144.85q.322-2.883.7-5.758c-.049.368.03-.219.039-.287q.058-.425.119-.847.1-.694.2-1.39c.117-.763.24-1.525.381-2.284a2,2,0,0,0-3.857-1.063c-.714,3.843-1.157,7.746-1.592,11.629a2.005,2.005,0,0,0,2,2,2.058,2.058,0,0,0,2-2Z"/><path class="a" d="M269.477,97.806c.02.957.084,1.912.2,2.863a13.549,13.549,0,0,0,.47,2.8,8.531,8.531,0,0,0,2.766,3.844,9.294,9.294,0,0,0,1.169.82c.179.1,1.294.606,1.3.584,0,.008-.7-.308-.285-.116.136.064.274.125.41.188q1.3.6,2.605,1.2c.852.39,1.706.828,2.589,1.145a2.011,2.011,0,0,0,2.46-1.4,2.051,2.051,0,0,0-1.4-2.46c-.38-.137.586.26.126.054-.195-.087-.39-.173-.585-.261q-.8-.363-1.6-.733c-.882-.4-1.76-.821-2.646-1.218-.252-.112-.515-.2-.764-.318.446.208-.191-.119-.266-.163-.193-.112-.377-.236-.558-.366.377.269-.172-.157-.237-.218-.121-.112-.238-.229-.351-.349q-.222-.234-.422-.488c.309.392-.085-.146-.135-.227-.1-.165-.188-.339-.286-.507-.181-.31.117.387-.056-.138a8.279,8.279,0,0,1-.26-1.336q-.054-.375-.019-.125c-.019-.146-.036-.292-.052-.438q-.049-.438-.086-.878c-.048-.588-.075-1.176-.087-1.766a2,2,0,1,0-4,0Z"/><path class="a" d="M280.226,110.937a91.331,91.331,0,0,1,9.3,4.576c2.379,1.393,5.455,3.264,6.549,5.773a66.077,66.077,0,0,1,3.186,11.023c1.01,4.232,1.885,8.5,2.678,12.773.469,2.527,4.325,1.457,3.857-1.064a186.069,186.069,0,0,0-4.676-20.268c-.775-2.546-1.54-5.007-3.369-7.008a27.688,27.688,0,0,0-6.969-5.119c-2.758-1.551-5.641-2.861-8.534-4.14a2.063,2.063,0,0,0-2.736.718,2.014,2.014,0,0,0,.717,2.736Z"/><path class="a" d="M285.368,134.284c.6,3.615,1.186,7.227,1.675,10.86a2.005,2.005,0,0,0,2.461,1.4,2.064,2.064,0,0,0,1.4-2.46c-.489-3.632-1.074-7.245-1.675-10.859a2.008,2.008,0,0,0-2.46-1.4,2.057,2.057,0,0,0-1.4,2.46Z"/><path class="a" d="M232.69,44.655a94,94,0,0,0-7.941,24.388,74.837,74.837,0,0,0-1.1,12.809,67.182,67.182,0,0,0,1.583,12.817c.937,4.7,1.97,9.407,1.795,14.232-.093,2.574,3.907,2.57,4,0,.3-8.341-2.838-16.275-3.31-24.539a71.213,71.213,0,0,1,3.309-24.5,96.021,96.021,0,0,1,5.116-13.191c1.093-2.315-2.354-4.348-3.454-2.019Z"/><path class="a" d="M288.779,43.779c-.055,5.214,1.674,10.112,3.434,14.946a57.99,57.99,0,0,1,3.649,15.368c.823,10.343-.474,20.789,1.641,31.028a34.751,34.751,0,0,0,6.645,14.746,2.011,2.011,0,0,0,2.828,0,2.048,2.048,0,0,0,0-2.828c-5.77-7.271-6.686-17.127-6.8-26.069-.069-5.315.111-10.638-.245-15.946A56.511,56.511,0,0,0,296.9,59.959c-1.844-5.252-4.177-10.512-4.117-16.18.027-2.574-3.973-2.576-4,0Z"/><path class="a" d="M285.024,89.734a104.335,104.335,0,0,0-.667,14.24,2,2,0,0,0,4,0c0-2.376.056-4.753.145-7.127.045-1.195.1-2.389.176-3.582.034-.535.073-1.07.12-1.6q.029-.312.061-.624c.017-.16.122-.956.022-.24a2.069,2.069,0,0,0-1.4-2.46,2.014,2.014,0,0,0-2.46,1.4Z"/><path class="f" d="M268.251,134.443c2.055.823,4.4,4.209,2.727,6.242,1.146.905.818,2.708.259,3.658-.03.052-.061.1-.091.15,2.319.368,4.341.694,4.341.694,3.308,1.1,5.655-1.147,4.588-3.5,2.775-.427,2.832-4.492,2.543-6.189-.425-2.491-2.179-4.111-5.857-4.677-1.2,1.351-3.2,2.3-6.156,2.276Z"/><path class="g" d="M272.928,132.894c7.029-1.422,6.364-9.684,1.638-10.69l-3.817-1.316a17.185,17.185,0,0,1-1.985,1.81l-1.1.869a7.535,7.535,0,0,1,1.635,3.145c.2,1.034.529,4.553-.259,6.378l1.563.012A11.259,11.259,0,0,0,272.928,132.894Z"/><path class="g" d="M254.373,142.7c-2.179.536-7.077.782-8.658-.261-1.984-1.309-2.266-4.977.53-5.269-4.812.018-2.237-7.536.976-7.278l2.212-2.864a4.03,4.03,0,0,0,3.812-.268c-.421,2.854,1.659,5.865,4.166,6.087l.206.018-.99,2.574c-.6,1.567.585,2.648.543,4.04-.033,1.091-1.365,1.835-1.778,2.874l-.393.156A5.153,5.153,0,0,1,254.373,142.7Z"/><path class="g" d="M257.826,116.955a6.3,6.3,0,0,0-4.567-1.359c-2.534.337-3.062,2.62-2.67,4.716-5.308-1.1-3.777,10.2,3.061,6.228a4.694,4.694,0,0,1,3.52-2.316,3.407,3.407,0,0,1,3.2-3.678,8.074,8.074,0,0,1,1.262-.062,13.235,13.235,0,0,0-2.427-2.348A11.339,11.339,0,0,0,257.826,116.955Z"/><path class="f" d="M272.391,115.546c-.863-1.524-3.632-1.918-4.694-1.918a7.725,7.725,0,0,0-6.682,4.108,4.51,4.51,0,0,0-.414,1.974l.013.815a7.819,7.819,0,0,1,5.118,1.227,10,10,0,0,1,1.934,1.815l1.1-.869c1.593-1.26,4.482-3.841,3.835-6.621A1.977,1.977,0,0,0,272.391,115.546Z"/><path class="g" d="M259.309,145.492c-1.389.245-4.156-.949-4.034-2.643.094-1.317,1.857-2.113,1.9-3.37.042-1.392-1.145-2.473-.543-4.04,1.11-2.889,3.934-3.213,6.543-1.9a4.786,4.786,0,0,0,3.077.592,5.234,5.234,0,0,1,2,.313c2.055.823,4.4,4.209,2.727,6.242,1.146.905.819,2.708.259,3.658a3.312,3.312,0,0,1-3.153,1.829c-1.2.053-7.4.055-8.775-.68"/><path class="f" d="M257.411,132.847c-2.05-.181-3.814-2.227-4.16-4.529-.3-2.019,2.231-4.094,3.919-4.094a3.407,3.407,0,0,1,3.2-3.678,7.9,7.9,0,0,1,5.366,1.206,9.079,9.079,0,0,1,3.569,4.96c.259,1.312.712,6.617-1.157,7.4Z"/><path class="a" d="M257.411,130.847c.328.039-.232-.082-.3-.106.261.095-.247-.131-.3-.163a3.327,3.327,0,0,1-.783-.7,6.113,6.113,0,0,1-.57-.969c.035.082-.124-.4-.129-.418s-.2-.631-.1-.368l0-.2c-.045.207-.04.19.012-.05.121-.374-.112.115.1-.27a2.145,2.145,0,0,1,.616-.753c.253-.232-.036-.013.27-.214.145-.1.3-.182.449-.264.128-.062.121-.064-.023-.006.089-.035.179-.065.271-.091a2.5,2.5,0,0,1,.267-.07q-.363.034-.021.015a2.024,2.024,0,0,0,2-2,3.545,3.545,0,0,1-.012-.461c.013-.258.018-.3.014-.113.013-.052.227-.544.089-.287a3.154,3.154,0,0,1,.213-.339c-.1.148-.076.133.08-.045.281-.251-.125.031.237-.172a2.491,2.491,0,0,1,.817-.288,6.018,6.018,0,0,1,6.268,3.412,4.137,4.137,0,0,1,.5,1.312c.017.083.021.179.045.26.1.335-.053-.525,0-.018.07.712.124,1.422.128,2.137,0,.42-.009.839-.041,1.257,0,.062-.079.691-.04.435s-.07.341-.083.4c-.035.155-.082.305-.123.458-.03.1-.063.189-.1.282q.166-.386.024-.1c-.035.178-.382.35.018.008-.26.222.418-.207-.064.023a2.017,2.017,0,0,0-.718,2.736,2.045,2.045,0,0,0,2.737.718c1.728-.822,2.158-2.988,2.326-4.695a17.949,17.949,0,0,0-.212-4.753,10.144,10.144,0,0,0-3.747-5.776,9.739,9.739,0,0,0-7.421-2.034,5.459,5.459,0,0,0-4.93,5.642l2-2c-2.914.113-6.075,2.827-5.94,5.9a7.184,7.184,0,0,0,6.181,6.725,2.012,2.012,0,0,0,2-2,2.048,2.048,0,0,0-2-2Z"/><path class="a" d="M252.3,125a2.615,2.615,0,0,0-.449.215s.4-.15.206-.09c-.072.022-.141.053-.212.077-.267.091-.537.138-.808.205-.062.016.519-.032.107-.024-.12,0-.239.009-.359,0-.1,0-.486-.049-.075,0s.008-.008-.1-.036-.2-.078-.3-.1c-.054-.009.481.248.157.061-.078-.045-.158-.086-.234-.133-.043-.027-.084-.058-.127-.084-.265-.16.159.108.192.152a4.309,4.309,0,0,0-.383-.368c-.3-.307.232.352.074.107-.055-.086-.117-.167-.171-.255-.1-.165-.178-.341-.269-.512-.055-.1.19.524.071.154-.035-.111-.074-.22-.106-.333-.051-.183-.062-.389-.123-.568.052.152.053.566.03.188-.007-.114-.016-.228-.017-.342,0-.176.013-.349.022-.524.015-.3-.121.588-.018.169.022-.093.039-.187.064-.28s.05-.157.073-.235c.119-.393-.089.186-.071.158a3.051,3.051,0,0,0,.255-.433c-.19.456-.282.334-.08.129s.29-.094-.133.078a1.355,1.355,0,0,0,.221-.141c.323-.221-.445.121-.138.05a2.784,2.784,0,0,0,.271-.075c.309-.1-.555.013-.124.019l.321,0c.477,0-.509-.1-.009,0a2.031,2.031,0,0,0,2.46-2.46c-.018-.1,0-.42-.028-.146-.031.309,0-.063,0-.148a5.73,5.73,0,0,1,0-.681q0-.1.015-.2c.015-.156,0-.089-.031.2a1.707,1.707,0,0,0,.065-.32c.025-.1.062-.2.087-.309.085-.341-.158.259-.036.069.055-.087.094-.186.148-.275l.067-.1q.147-.206-.006,0t.007.014l.089-.088c.249-.275-.233.112-.051.034a3.134,3.134,0,0,0,.288-.169c.365-.21-.383.091.051-.009.1-.023.2-.05.3-.076.5-.131-.361.01-.026,0a9.221,9.221,0,0,0,1.05.008c-.141.025-.463-.083-.12-.011.1.021.2.04.305.064a5.964,5.964,0,0,1,.641.19c.067.023.134.048.2.074.136.054.089.034-.139-.059a1.724,1.724,0,0,1,.277.133,8,8,0,0,1,.787.455c.125.081.247.167.369.253.282.2-.037-.053.122.095.281.262.575.505.849.775a2,2,0,1,0,2.829-2.829c-2.149-2.113-4.976-3.6-8.05-3.03a4.857,4.857,0,0,0-3.465,2.593,7.335,7.335,0,0,0-.439,4.559l2.46-2.46a4.628,4.628,0,0,0-4.206,1.007,5.225,5.225,0,0,0-1.5,3.484,6.139,6.139,0,0,0,3.791,6.226,6.466,6.466,0,0,0,5.111-.648,2.014,2.014,0,0,0,.717-2.736A2.048,2.048,0,0,0,252.3,125Z"/><path class="a" d="M262.6,119.71c-.008-.172.057-.689-.017-.262a2.678,2.678,0,0,1,.317-1.009q.147-.264.32-.513c.032-.047.254-.333.1-.146s.045-.047.063-.066a11.1,11.1,0,0,1,.937-.9c.172-.147-.033.03-.06.048.1-.064.19-.134.287-.2.169-.112.343-.217.52-.316.152-.084.306-.164.463-.238.053-.026.389-.163.156-.074-.217.084.125-.04.162-.054a7.7,7.7,0,0,1,1.147-.306c.082-.015.165-.029.247-.042-.426.066-.13.019-.037.016.19-.007.377-.021.567-.018s.407.022.61.038c.474.039-.381-.071-.02,0,.165.03.33.057.494.092a8.265,8.265,0,0,1,.9.244c.064.022.127.046.191.069.111.038.268.187.075.026-.173-.144-.076-.035,0,.011s.158.08.235.124.147.093.223.136c.164.093.03.1.006-.007-.032-.143-.095-.093.039.046.042.044.087.091.132.131.235.214-.17-.34.009.037.09.19-.072-.2-.074-.2s.078.3.089.319c.086.185-.009-.064-.01-.125,0,.108.014.215.014.323,0,.079-.013.162-.009.24.015.279.1-.322.011-.057-.05.149-.068.314-.115.466-.031.1-.072.2-.1.3-.083.264.152-.269.009-.029-.228.384-.443.762-.69,1.135-.163.247.2-.229.006-.007-.074.083-.142.172-.215.256q-.216.249-.446.487a18.1,18.1,0,0,1-1.789,1.6,2,2,0,0,0,0,2.828,2.058,2.058,0,0,0,2.828,0,12.984,12.984,0,0,0,3.76-4.28c.989-2.054,1.173-4.76-.718-6.381-2.947-2.525-7.77-2.27-10.835-.147-2.069,1.433-3.908,3.753-3.784,6.406a2,2,0,0,0,4,0Z"/><path class="a" d="M274.034,124.133c.229.051.445.144.671.2s-.451-.22-.256-.108c.057.033.121.057.179.087.105.055.208.114.308.177s.19.148.29.2c0,0-.413-.357-.222-.166.037.036.08.068.118.1.17.154.305.367.48.509.005,0-.318-.449-.17-.219.028.044.061.085.09.128.059.086.115.175.169.265s.1.183.151.276c.03.059.057.119.087.178.145.284-.081-.169-.092-.222.043.215.156.431.213.646q.041.156.072.315c.014.066.023.133.037.2.064.3-.037-.485-.033-.249s.038.462.036.7q0,.165-.012.33c-.017.264-.173.566.017-.036-.066.21-.082.443-.142.657-.03.109-.063.217-.1.324-.019.053-.042.106-.058.16-.1.328.218-.449.07-.161-.113.221-.217.441-.349.652-.063.1-.131.2-.2.295-.2.3.34-.4-.024.019a6.881,6.881,0,0,1-.562.558c-.343.312.242-.156.026-.011-.138.093-.272.191-.414.278s-.267.158-.4.23c-.085.044-.635.3-.3.15s-.193.066-.285.1c-.186.063-.374.118-.564.167s-.4.1-.6.134c-.083.016-.168.029-.251.044-.452.084.478-.042.009,0s-.943.069-1.418.068a2,2,0,0,0,0,4c3.356.01,6.973-1.212,8.634-4.35a7.645,7.645,0,0,0-.307-7.791,6.446,6.446,0,0,0-3.835-2.685,2,2,0,1,0-1.063,3.857Z"/><path class="a" d="M277.089,132.913c.358.082.714.172,1.063.286.191.063.386.13.571.209-.253-.109.025.021.128.077a8,8,0,0,1,.757.461c.188.13-.2-.211.051.053.108.113.229.234.343.341.155.146.089.1-.013-.037a4.44,4.44,0,0,1,.259.393c.067.113.122.231.185.346.109.2-.093-.325.011.036.077.264.154.522.215.791.142.627-.024-.424.036.245a9.919,9.919,0,0,1,.026,1.379c-.006.125-.015.25-.026.375s-.123.56,0,.074c-.061.248-.094.5-.163.747a3.485,3.485,0,0,0-.114.36c-.038.225.177-.317,0,0-.058.105-.117.212-.173.318-.121.227-.137.174.025,0-.1.1-.2.2-.292.3.152-.16.241-.165.006-.026-.177.1-.313.049.014.009-.149.018-.3.082-.453.11a2,2,0,0,0-1.4,2.46c.045.108.091.215.127.326.006.021.105.511.069.217s.013.093-.009.127c-.12.182.062-.3.018-.079-.047.236-.073.248.037.017-.043.091-.1.174-.141.263-.1.207-.072.062.039-.043-.04.038-.358.332-.142.158s-.494.249-.265.152-.728.146-.272.092a2.831,2.831,0,0,1-1.59-.2,2,2,0,0,0-1.063,3.857,6.073,6.073,0,0,0,5.88-.968A4.455,4.455,0,0,0,282,141.16l-1.4,2.461c3.377-.616,4.35-4.574,4.088-7.507a7.682,7.682,0,0,0-1.76-4.482,8.816,8.816,0,0,0-4.782-2.576,2.043,2.043,0,0,0-2.461,1.4,2.023,2.023,0,0,0,1.4,2.46Z"/><path class="a" d="M247.221,127.892c-2.789-.161-4.91,2.654-5.45,5.121a5.615,5.615,0,0,0,.451,4.059,4.563,4.563,0,0,0,4.023,2.1v-4a4.271,4.271,0,0,0-3.908,3.129,5.422,5.422,0,0,0,4.537,6.621,19.78,19.78,0,0,0,4.463.194,14.52,14.52,0,0,0,4.194-.677,2.046,2.046,0,0,0,1.4-2.46,2.022,2.022,0,0,0-2.46-1.4,7.633,7.633,0,0,1-1.445.358c-.1.017-.363.108-.457.071q.456-.06.116-.017l-.288.033q-.526.056-1.056.089c-.73.046-1.463.061-2.194.036-.35-.012-.7-.033-1.046-.068-.485-.049-.086.067-.026,0-.037.04-.456-.079-.518-.093s-.776-.147-.785-.223c0-.008.466.269.073.014a1.231,1.231,0,0,1-.116-.07q-.262-.184.095.078a2.862,2.862,0,0,1-.362-.368s.269.405.009-.015c-.045-.074-.088-.149-.128-.225q-.141-.292.039.125s-.12-.349-.124-.364c-.023-.082-.044-.165-.062-.248q-.059-.327.013.159c-.042-.061-.013-.3-.018-.37s0-.162.011-.242c-.051.332-.057.392-.018.178.02-.057.038-.3.1-.336q-.2.447-.058.165a2.025,2.025,0,0,1,.122-.193c-.2.249-.23.3-.088.142l.085-.079c-.253.186-.292.22-.114.1.187-.1.141-.086-.136.037,0-.058.826-.174.155-.088a2,2,0,0,0,0-4c-.067,0-.328-.054-.387-.016q.495.077.178.022l-.111-.024a2.5,2.5,0,0,1-.309-.091c.017-.083.474.264.114.035-.323-.206.078-.011.1.1a2.1,2.1,0,0,0-.2-.187c-.222-.172.207.378.1.121a.985.985,0,0,0-.132-.234c.1.039.166.534.067.139-.023-.09-.047-.181-.072-.27-.092-.334.154-.055.014.153.028-.04-.015-.2-.014-.246,0-.1,0-.2,0-.3s.06-.469,0-.093.066-.3.093-.408c.05-.193.126-.377.179-.567.1-.371-.2.4-.036.075.05-.1.093-.2.144-.293.1-.192.217-.372.33-.556.229-.373-.049.09-.063.064a2.319,2.319,0,0,1,.2-.236,5.258,5.258,0,0,0,.435-.415c.015.077-.468.3-.094.085a2.66,2.66,0,0,0,.243-.142c.263-.184-.471.127-.143.056a1.3,1.3,0,0,0,.215-.063c.345-.144-.31-.015-.181.015a2.044,2.044,0,0,0,.313,0,2.012,2.012,0,0,0,2-2,2.046,2.046,0,0,0-2-2Z"/><path class="a" d="M258.778,143.563c.557-.077-.205-.046.033-.029s-.323-.07-.424-.1c-.12-.034-.237-.073-.354-.113.034.011.253.118.04.02a4.762,4.762,0,0,1-.656-.371c-.265-.176.216.17-.022-.025a2.176,2.176,0,0,1-.186-.186c.26.275.067.053.016,0,.045.048.051.306.043.11-.01-.286-.049.352.005.061.046-.246-.024.1,0,.087-.118.065-.1.138.034-.025.073-.085.154-.229.029-.062.792-1.055,1.712-1.869,1.817-3.275a4.94,4.94,0,0,0-.221-1.757c-.072-.238-.162-.47-.244-.7-.065-.184-.216-.642-.22-.659a1.157,1.157,0,0,1,.236-.82c.054-.093.11-.189.173-.277-.146.205.051-.053.076-.078.068-.072.14-.139.213-.207.146-.136-.156.075.134-.09a3.554,3.554,0,0,1,.334-.177c-.041.017-.255.094-.039.032.106-.031.656-.137.309-.1a4.676,4.676,0,0,1,.69-.012c.047,0,.456.054.242.019-.169-.027.213.053.247.062,1.016.261,1.8.881,2.956,1.117s2.389-.066,3.449.282c-.2-.066.281.142.391.211.08.051.16.105.237.162.145.106-.1-.1.137.127a3.858,3.858,0,0,1,.878,1.057c.047.078.334.693.246.456.047.126.073.259.12.384.123.326.029-.047.041.14.006.095,0,.19.009.284.019.35.053-.06-.019.114-.088.211.025-.005.04-.039a2.519,2.519,0,0,1-.317.492,2,2,0,0,0,.313,2.423c.322.284.011-.169.19.2-.145-.3.007.205-.01-.016-.016-.2,0,.338-.006.411-.011.2.081-.194-.036.137-.013.037-.215.6-.04.212a3.544,3.544,0,0,1-.216.4c-.034.056-.307.421-.15.235-.024.029-.464.418-.17.206-.053.038-.531.263-.173.128a4.013,4.013,0,0,1-.457.126c-.138.026-.128.028.029.007l-.216.019c-.122.006-.242.014-.364.018-.425.016-.852.016-1.277.016-1.317,0-2.635-.034-3.948-.124-.3-.02-.607-.044-.911-.073-.171-.017-.342-.037-.514-.055-.4-.041.212.039-.024,0-.253-.045-.5-.082-.754-.143-.106-.026-.226-.076-.334-.092-.338-.051.423.2.136.062a2.051,2.051,0,0,0-2.737.718,2.019,2.019,0,0,0,.718,2.736,12.408,12.408,0,0,0,4.8.874c1.489.088,2.986.12,4.477.093a5.849,5.849,0,0,0,5.132-2.431c1.32-1.886,1.543-4.854-.313-6.484l.313,2.424c2.016-2.654.147-6.367-2.132-8.155a6.93,6.93,0,0,0-4.6-1.4,9.558,9.558,0,0,1-1.057-.012c.422.041-.192-.072-.341-.125.276.1-.222-.1-.272-.128-.178-.086-.356-.173-.537-.254a10.369,10.369,0,0,0-1.309-.5,6.1,6.1,0,0,0-7.667,3.571,4.709,4.709,0,0,0-.221,2.65c.13.7.507,1.337.612,2.037-.043-.287,0,.065-.011.107l.017-.184c.087-.176.095-.2.026-.072.013.048-.284.428-.064.132-.077.1-.171.2-.254.3a6.771,6.771,0,0,0-1.416,2.129c-1.307,3.708,3.318,6.061,6.362,5.639a2.014,2.014,0,0,0,1.4-2.461,2.054,2.054,0,0,0-2.46-1.4Z"/><path class="a" d="M258.029,89.107a9.643,9.643,0,0,0,4.638,1.092,9.2,9.2,0,0,0,2.856-.415,6.479,6.479,0,0,0,2-1.1,2,2,0,0,0,.586-1.414,2.037,2.037,0,0,0-.586-1.415,2.009,2.009,0,0,0-1.414-.585,2.345,2.345,0,0,0-1.414.585c.062-.048.514-.366.234-.188-.056.036-.112.073-.17.107s-.133.075-.2.109l-.113.055c-.249.127.471-.184.257-.106a6.984,6.984,0,0,1-1.425.358l.531-.071a9.873,9.873,0,0,1-2.53-.01l.532.071a6.9,6.9,0,0,1-1.388-.339c-.042-.016-.084-.035-.127-.049-.2-.064.485.216.3.129-.068-.032-.138-.061-.206-.094-.118-.057-.233-.117-.348-.178a2,2,0,0,0-2.019,3.454Z"/><path class="a" d="M261.233,78.722a19.544,19.544,0,0,1,.461,2.11l-.071-.531a1.287,1.287,0,0,1,.008.291l.071-.532a.716.716,0,0,1-.032.131l.2-.478a.63.63,0,0,1-.046.085l.312-.405a.444.444,0,0,1-.069.068l.4-.313a1.4,1.4,0,0,1-.167.089l.478-.2a1.25,1.25,0,0,1-.282.082l.532-.071a1.119,1.119,0,0,1-.265,0l.532.072c-.1-.014-.2-.038-.3-.052a1.526,1.526,0,0,0-.8-.036,1.487,1.487,0,0,0-.743.238,2.238,2.238,0,0,0-.919,1.2,2.022,2.022,0,0,0,.2,1.541l.313.405a2,2,0,0,0,.882.514c.309.042.608.118.922.131a3.093,3.093,0,0,0,1.463-.363,2.312,2.312,0,0,0,1.221-1.5,3.343,3.343,0,0,0-.01-1.512c-.115-.68-.272-1.353-.447-2.02a2.057,2.057,0,0,0-.919-1.2,1.477,1.477,0,0,0-.743-.238,1.526,1.526,0,0,0-.8.036,2.025,2.025,0,0,0-1.195.919,2.1,2.1,0,0,0-.2,1.541Z"/><path class="a" d="M250.961,72.5c-.352,1.146-.122,3.78,2.047,4,2.867-.017,3.02-3.2,2.055-4.7C254.272,70.581,251.949,70.071,250.961,72.5Z"/><path class="a" d="M273.922,72.5c.353,1.145.123,3.779-2.046,4-2.867-.017-3.02-3.2-2.055-4.7C270.611,70.581,272.935,70.071,273.922,72.5Z"/><path class="h" d="M212.043,114.765c-.242-4.811-1.11-8.5-5.872-12.3-1.115-.89-2.68-1.143-3.934-1.825a195.675,195.675,0,0,0-22.662-10.885,117.812,117.812,0,0,1-3.868,16.694,242.614,242.614,0,0,1-10.186,28.386l-.009-.006-.731-1.511c-2.779-6-7.944-18.052-11.712-28.849-1.946-5.573-3.526-10.541-4.511-13.748a204.149,204.149,0,0,0-20.266,9.919c-1.254.682-2.819.935-3.934,1.825-4.761,3.8-5.63,7.492-5.872,12.3-.494,9.843-1.086,20.13-1.683,30.511,26.861-.086,62.385-.211,96.9-.343C213.117,134.668,212.532,124.5,212.043,114.765Z"/><path class="b" d="M181.336,94.108c-.391-.172-1.842-.745-2.015-.807-2.613-.944-2.51-2.623-2.839-4.5a36.621,36.621,0,0,1-.581-6.528c4.882-3.184,8.623-9.533,9.346-11.494.123-.374.372-1.075.6-1.921l.466-.072a5.865,5.865,0,0,0,2.73-1.231,8.849,8.849,0,0,0,2.291-3.006,13.934,13.934,0,0,0,1.42-7.386,4.653,4.653,0,0,0-.486-1.871,3.291,3.291,0,0,0-2.365-1.572,3.483,3.483,0,0,0-2.787.815s-.154-21.762-25.129-21.762-21.617,21.762-21.617,21.762a3.483,3.483,0,0,0-2.787-.815,3.287,3.287,0,0,0-2.365,1.572,4.654,4.654,0,0,0-.487,1.871,13.944,13.944,0,0,0,1.421,7.386,8.858,8.858,0,0,0,2.29,3.006,5.873,5.873,0,0,0,2.731,1.231l.89.136a23.69,23.69,0,0,0,4.517,8.816,21.114,21.114,0,0,0,5.953,5.061,36.89,36.89,0,0,1-.578,6c-.33,1.879-.226,3.558-2.839,4.5-.173.062-1.257.516-1.577.653,0,0,2.46,10.489,15.645,10.489A20.2,20.2,0,0,0,181.336,94.108Z"/><path class="b" d="M153.069,104.466c3.768,10.8,8.933,22.847,11.712,28.849l.731,1.511.009.006a242.614,242.614,0,0,0,10.186-28.386,110.918,110.918,0,0,0,3.718-15.9c-.113-.159-.227-.318-.346-.462a16.017,16.017,0,0,0-2.755-3.41,34.855,34.855,0,0,1-10.056,7.009c-.209.094-.441.209-.508.428a.809.809,0,0,0,.116.568h-3.663a.8.8,0,0,0,.116-.568c-.067-.219-.3-.334-.507-.428a34.872,34.872,0,0,1-10.057-7.009,16.336,16.336,0,0,0-2.992,3.809l-.181.347C149.579,94.039,151.144,98.953,153.069,104.466Z"/><path class="a" d="M150.534,82.958c-.015.77-.052,1.538-.116,2.305-.029.348-.064.7-.1,1.043-.02.174-.043.347-.063.52q-.027.215,0-.012l-.03.208c-.154,1.036-.269,2.115-.524,3.133-.023.094-.049.188-.077.281s-.177.374-.017.087c.2-.351-.234.341-.224.376-.023-.081.332-.356.047-.074-.076.075-.152.15-.229.224-.3.289.352-.192-.041.021-.113.061-.22.132-.335.191-.148.078-.32.144-.067.046-.089.035-.18.067-.27.1-.155.061-.309.126-.464.19q-.749.309-1.494.628a2,2,0,0,0-.718,2.736,2.065,2.065,0,0,0,2.737.718c.293-.125-.036.016-.147.061.112-.045.224-.094.336-.141.219-.091.438-.183.658-.272a12.194,12.194,0,0,0,1.655-.727,5.381,5.381,0,0,0,2.446-3.158,23.528,23.528,0,0,0,.57-3.255,41.3,41.3,0,0,0,.466-5.231,2,2,0,0,0-4,0Z"/><path class="a" d="M173.9,82.958a41.4,41.4,0,0,0,.508,5.512,17.473,17.473,0,0,0,.618,3.248,5.38,5.38,0,0,0,2.784,3.106c.5.238,1.028.423,1.544.626l.728.29c.114.046.229.094.343.139.437.175-.361-.156-.1-.044a2.055,2.055,0,0,0,2.736-.717,2.023,2.023,0,0,0-.717-2.737c-.822-.356-1.655-.7-2.494-1.009-.544-.2.3.18-.169-.074-.115-.062-.229-.124-.342-.189-.286-.164-.163,0,0,.026-.065-.01-.244-.218-.289-.264s-.325-.283-.079-.079c.226.188-.013-.041-.069-.142a1.894,1.894,0,0,0-.129-.259c.233.291.119.3.041.045a21.19,21.19,0,0,1-.544-3.029c-.028-.18-.055-.359-.079-.539-.02-.141-.021-.143,0-.007l-.027-.216c-.045-.4-.09-.791-.125-1.188q-.111-1.248-.133-2.5a2,2,0,1,0-4,0Z"/><path class="e" d="M168.214,100.6c.264-.8.438-1.506.6-2.194-.293-.356-.583-.708-.858-1.044-.73-.894-1.357-1.676-1.731-2.177l-4.366.008c-.375.5-1,1.28-1.726,2.169l-.067.082c.229,1.143.44,2.287.707,3.431.045.195.092.389.142.584a5.17,5.17,0,0,1,.212,1.3c0,.289-1.111,9.386-2.082,17.319,2.2,5.361,4.292,10.12,5.736,13.239l.731,1.511.009.006c1.625-3.618,3.331-7.921,5.02-12.613-1.215-8.184-2.838-18.837-2.831-19.317A7.838,7.838,0,0,1,168.214,100.6Z"/><path class="a" d="M161.193,104.708c2.172,0,4.344-.048,6.517-.048a2,2,0,0,0,0-4c-2.173,0-4.345.048-6.517.048a2,2,0,0,0,0,4Z"/><path class="a" d="M166.22,93.186c-1.452,0-2.9.01-4.354.011a2.068,2.068,0,0,0-1.415.585,2,2,0,0,0,0,2.829,2.083,2.083,0,0,0,1.415.586c1.451,0,2.9-.01,4.354-.011a2.065,2.065,0,0,0,1.414-.585,2,2,0,0,0,0-2.829,2.078,2.078,0,0,0-1.414-.586Z"/><path class="a" d="M166.9,97.881c-.439,1.8-1.36,3.658-1.132,5.544.187,1.537.426,3.07.652,4.6q.5,3.389,1.006,6.775.3,1.987.593,3.975l.279,1.884.138.927c.015.1.089,1.066.089.571a2.029,2.029,0,0,0,2,2h.011c2.573,0,2.578-4,0-4h-.011l2,2a24.84,24.84,0,0,0-.509-3.5q-.281-1.9-.564-3.794-.524-3.5-1.043-7.009-.2-1.368-.4-2.737-.078-.537-.154-1.073c-.02-.143-.115-.839-.079-.565s-.034-.244-.042-.348a2.811,2.811,0,0,1-.016-.356,22.157,22.157,0,0,1,1.041-3.833c.61-2.5-3.247-3.567-3.858-1.064Z"/><path class="a" d="M158.138,97.973c.246,1.245.48,2.493.775,3.728a4.388,4.388,0,0,1,.179,1.437c-.095,1.242-.292,2.484-.441,3.72q-.369,3.067-.745,6.135-.225,1.856-.453,3.71a28.676,28.676,0,0,0-.411,3.367c0,2.574,4,2.578,4,0a28.676,28.676,0,0,1,.411-3.367q.227-1.854.453-3.71.392-3.208.779-6.417c.141-1.173.332-2.353.418-3.532a7.07,7.07,0,0,0-.26-2.112c-.313-1.335-.583-2.677-.848-4.023-.5-2.523-4.355-1.455-3.857,1.064Z"/><path class="b" d="M172.1,102.389c3.229-3.21,5.344-7.1,7.73-10.98a17.2,17.2,0,0,0-3.5-4.735,34.855,34.855,0,0,1-10.056,7.009c-.209.094-.441.209-.508.428a.809.809,0,0,0,.116.568,32.718,32.718,0,0,0,2.08,2.686C169.372,99.1,171.149,101.218,172.1,102.389Z"/><path class="b" d="M155.991,102.389c-3.23-3.21-5.345-7.1-7.73-10.98a17.181,17.181,0,0,1,3.5-4.735,34.872,34.872,0,0,0,10.057,7.009c.208.094.44.209.507.428a.8.8,0,0,1-.116.568,32.473,32.473,0,0,1-2.08,2.686C158.718,99.1,156.941,101.218,155.991,102.389Z"/><path class="a" d="M173.513,103.8a45.439,45.439,0,0,0,6.39-8.659c.455-.749.906-1.5,1.362-2.25a2.647,2.647,0,0,0,.528-1.751,4.322,4.322,0,0,0-.674-1.543,18.793,18.793,0,0,0-3.381-4.341,2.035,2.035,0,0,0-2.828,0,32.06,32.06,0,0,1-5.308,4.306q-1.425.924-2.934,1.707c-1.1.566-2.467.964-2.836,2.307a3.166,3.166,0,0,0,.763,2.749c.678.9,1.392,1.773,2.106,2.645,1.322,1.615,2.666,3.211,3.984,4.83a2.013,2.013,0,0,0,2.828,0,2.047,2.047,0,0,0,0-2.829c-1.1-1.351-2.219-2.686-3.326-4.03-.624-.757-1.247-1.514-1.858-2.282-.034-.042-.358-.453-.257-.323s-.152-.2-.175-.233a3.35,3.35,0,0,0-.218-.308c-.194-.206.131-.329.081.313l-.273,1.009q-.663.54-.21.289l.234-.107c.236-.111.472-.222.705-.338q.717-.355,1.414-.745c.96-.535,1.893-1.117,2.8-1.738a37.19,37.19,0,0,0,5.31-4.393H174.91a16.073,16.073,0,0,1,3.192,4.33V90.4c-2.255,3.678-4.35,7.492-7.417,10.574C168.867,102.8,171.694,105.631,173.513,103.8Z"/><path class="a" d="M157.405,100.974c-3.067-3.082-5.163-6.9-7.417-10.574v2.018a16.049,16.049,0,0,1,3.191-4.33h-2.828a37.357,37.357,0,0,0,5.31,4.393q1.358.933,2.8,1.738.64.357,1.3.686.35.175.705.342.175.083.351.162.454.25-.21-.289l-.273-1.009c-.047-.606.28-.527.081-.313a2.319,2.319,0,0,0-.174.25c-.081.112-.165.223-.25.332.2-.253-.239.3-.225.282-.611.768-1.234,1.525-1.858,2.282-1.108,1.344-2.227,2.679-3.327,4.03a2.061,2.061,0,0,0,0,2.829,2.015,2.015,0,0,0,2.829,0c1.29-1.586,2.607-3.151,3.9-4.732.722-.881,1.442-1.765,2.132-2.672a3.223,3.223,0,0,0,.818-2.82c-.36-1.306-1.648-1.7-2.719-2.247-1.006-.514-1.985-1.081-2.936-1.691a32.234,32.234,0,0,1-5.424-4.382,2.037,2.037,0,0,0-2.828,0,18.761,18.761,0,0,0-3.315,4.227,6.294,6.294,0,0,0-.7,1.391,2.49,2.49,0,0,0,.492,2.017c.457.748.908,1.5,1.363,2.25a45.434,45.434,0,0,0,6.389,8.659C156.4,105.63,159.223,102.8,157.405,100.974Z"/><path class="h" d="M183.009,47.821A35.472,35.472,0,0,1,187,54.647a3.458,3.458,0,0,1,2.906-.929,3.129,3.129,0,0,1,.606.153,25.325,25.325,0,0,0-.2-17.01c-1.537-4.3-5.371-8.8-8.094-10.06l-3.931-2.826c-3.349-4.588-8.412-7.006-15.557-7.225-6.692-.2-14.4,1.147-20.263,7.046l1.886,1.9c-3.453,2.217-6.157,6.372-7.412,10.057-1.5,4.418-1.954,10.705-.168,18.133l.013.053a3.333,3.333,0,0,1,.8-.225,3.445,3.445,0,0,1,2.982,1.008c6.741-6.443,12.612-10.268,18.535-14.921a15.352,15.352,0,0,0,1.591,3.669c.4.163,4.812-2.606,7.887-4.5l4.84,1.274a18.063,18.063,0,0,1,5.675,3.323A26.914,26.914,0,0,1,183.009,47.821Z"/><path class="a" d="M188.531,55.948a1.415,1.415,0,0,1,1.653-.03.727.727,0,0,1,.3.289,3.541,3.541,0,0,1,.316,1.765,11.216,11.216,0,0,1-.15,2.3c-.5,2.763-1.858,6.043-4.869,6.582a2.019,2.019,0,0,0-1.4,2.461,2.045,2.045,0,0,0,2.46,1.4c5.092-.913,7.53-6.636,7.913-11.252.2-2.46-.072-5.158-2.187-6.734a5.512,5.512,0,0,0-6.868.392,2.015,2.015,0,0,0,0,2.829,2.044,2.044,0,0,0,2.828,0Z"/><path class="a" d="M184.278,66.191a12.74,12.74,0,0,1-.749,3.425c-.065.2-.466,1.169-.144.487-.116.245-.224.493-.346.736a29.774,29.774,0,0,1-2.575,4.138c-2.137,2.932-5.272,6.186-8.857,7.028-2.506.587-1.445,4.445,1.063,3.857,4.71-1.1,8.352-4.943,11.122-8.694,2.381-3.225,4.32-6.882,4.486-10.977.1-2.574-3.9-2.569-4,0Z"/><path class="a" d="M141.785,53.119a5.515,5.515,0,0,0-6.868-.392c-2.119,1.568-2.391,4.279-2.187,6.734.383,4.616,2.821,10.339,7.912,11.252a2.058,2.058,0,0,0,2.461-1.4,2.018,2.018,0,0,0-1.4-2.461c-3.011-.539-4.365-3.819-4.869-6.582a11.052,11.052,0,0,1-.153-2.165,8.574,8.574,0,0,1,.073-1.188c0,.019.172-.586.189-.62a1.443,1.443,0,0,1,2.011-.352,2.055,2.055,0,0,0,2.828,0,2.016,2.016,0,0,0,0-2.829Z"/><path class="a" d="M139.386,66.109a27.521,27.521,0,0,0,5.886,13.167,19.776,19.776,0,0,0,12.93,7.3,2.013,2.013,0,0,0,2-2,2.045,2.045,0,0,0-2-2c-4.195-.453-7.728-3.21-10.315-6.386a23.972,23.972,0,0,1-4.644-11.146,2.017,2.017,0,0,0-2.46-1.4,2.045,2.045,0,0,0-1.4,2.46Z"/><path class="a" d="M181.206,28.528c3.6,1.758,6.3,6.053,7.473,9.748a23.564,23.564,0,0,1,.21,14.2c-.782,2.458,3.079,3.511,3.857,1.063a27.369,27.369,0,0,0-.355-16.773,23.642,23.642,0,0,0-3.9-7.032,16.072,16.072,0,0,0-5.265-4.665c-2.3-1.125-4.334,2.323-2.019,3.454Z"/><path class="a" d="M145.955,22.686c-5.5,2.128-9.353,7.484-11.089,12.978-1.909,6.041-1.452,12.673-.024,18.758.588,2.505,4.446,1.444,3.857-1.064-1.225-5.217-1.639-10.816-.157-16.028,1.207-4.244,4.175-9.123,8.476-10.787a2.058,2.058,0,0,0,1.4-2.46,2.015,2.015,0,0,0-2.46-1.4Z"/><path class="a" d="M180.011,22.965c-4.448-5.976-11.221-8.224-18.486-8.234-7.574-.01-15,2.241-20.475,7.651-1.834,1.812.995,4.64,2.828,2.828,4.641-4.586,10.89-6.43,17.3-6.478,5.8-.043,11.749,1.377,15.378,6.252a2.062,2.062,0,0,0,2.736.718,2.015,2.015,0,0,0,.718-2.737Z"/><path class="a" d="M168.169,36.877c-2.32,1.425-4.61,2.92-7,4.227-.2.107-.4.208-.595.315-.478.262-.112.059-.11.067q-.633.18.836.4,1.264.826.86.223a2.849,2.849,0,0,0-.277-.559,9.5,9.5,0,0,1-.854-2.274c-.288-1.651-2.294-1.7-3.343-.883C151.663,43.108,145.4,47.463,139.8,52.7c-1.885,1.761.948,4.585,2.829,2.828,5.6-5.234,11.866-9.591,17.888-14.308l-3.343-.883a13.584,13.584,0,0,0,1.355,3.436c.633,1.275,1.677,2.027,3.122,1.522a21.814,21.814,0,0,0,3.88-2.1c1.561-.941,3.106-1.908,4.659-2.862,2.19-1.345.183-4.806-2.019-3.454Z"/><path class="a" d="M172.888,42.175a18.383,18.383,0,0,1,3.872,2.078,20.514,20.514,0,0,1,3.414,3.224,32.858,32.858,0,0,1,4.934,7.806,2.015,2.015,0,0,0,2.736.718,2.047,2.047,0,0,0,.718-2.737,35.975,35.975,0,0,0-5.717-8.794,24.324,24.324,0,0,0-4.166-3.743,22.031,22.031,0,0,0-4.728-2.409,2.014,2.014,0,0,0-2.46,1.4,2.047,2.047,0,0,0,1.4,2.461Z"/><path class="a" d="M180.033,92.078q6.543,2.671,12.848,5.876c1.976,1,3.936,2.034,5.888,3.082.989.532,1.963,1.117,2.985,1.584a19.472,19.472,0,0,1,3.093,1.344,12.15,12.15,0,0,1,5.037,8.757c.549,4.844.545,9.8.8,14.669q.461,8.778.945,17.553c.14,2.56,4.141,2.576,4,0q-.457-8.3-.895-16.6c-.273-5.187-.288-10.456-.85-15.619a16.364,16.364,0,0,0-5.013-10.559,11.485,11.485,0,0,0-2.688-2.034c-1.086-.536-2.254-.853-3.324-1.426-2.1-1.124-4.192-2.263-6.308-3.357q-7.567-3.912-15.455-7.124a2.013,2.013,0,0,0-2.46,1.4,2.049,2.049,0,0,0,1.4,2.46Z"/><path class="a" d="M201.367,145c.5-6.982,1-13.992,2.109-20.909,1.151-7.2,2.775-14.334,3.341-21.619.2-2.567-3.8-2.554-4,0-.563,7.242-2.242,14.329-3.346,21.5-1.072,6.964-1.6,14.008-2.1,21.032-.185,2.568,3.816,2.556,4,0Z"/><path class="a" d="M123.875,102.467c.568,7.351,2.072,14.576,3.177,21.854,1.051,6.927,1.47,13.926,1.932,20.911.169,2.556,4.17,2.575,4,0-.464-7.028-.911-14.06-1.934-21.033-1.064-7.243-2.611-14.422-3.175-21.732-.2-2.55-4.2-2.571-4,0Z"/><path class="a" d="M118.639,145.284c.634-10.173,1.3-20.342,1.851-30.52.183-3.4.884-6.539,3.3-9.08a10.272,10.272,0,0,1,2.225-1.922c.974-.556,2.108-.814,3.116-1.31,1.991-.982,3.918-2.113,5.886-3.142,4.639-2.427,9.359-4.7,14.2-6.7a2.067,2.067,0,0,0,1.4-2.461,2.013,2.013,0,0,0-2.46-1.4q-6.859,2.849-13.468,6.234c-2.155,1.106-4.292,2.248-6.422,3.4-2.047,1.107-4.2,1.673-5.987,3.225a16.032,16.032,0,0,0-5.509,10.194c-.674,4.943-.648,10.037-.953,15.015-.378,6.157-.786,12.311-1.17,18.467-.16,2.571,3.841,2.561,4,0Z"/><path class="h" d="M164.781,133.315c-2.779-6-7.944-18.052-11.712-28.849-2.355-6.745-4.175-12.6-5.051-15.525-1.575,0-9.674,8.3-10.8,11.222-.073.191,4.45,4.094,5.975,5.462a39.851,39.851,0,0,0-4.047,4.678c-.032.21,20.777,26.147,23.2,28.608Z"/><path class="a" d="M146.09,89.472a339.867,339.867,0,0,0,16.964,44.852,2.016,2.016,0,0,0,2.737.718,2.047,2.047,0,0,0,.717-2.737,332.659,332.659,0,0,1-16.561-43.9c-.739-2.459-4.6-1.411-3.857,1.063Z"/><path class="a" d="M141.781,104.211a35.412,35.412,0,0,0-3.663,4.105c-.821,1.043-1.309,2.1-.486,3.3,1.283,1.881,2.827,3.629,4.245,5.409q7,8.792,14.128,17.482c1.606,1.952,3.162,4,4.929,5.816,1.8,1.846,4.628-.984,2.828-2.829-3.155-3.234-5.89-6.972-8.735-10.473q-5.869-7.22-11.657-14.5-1-1.26-1.987-2.527c-.12-.153.272.362-.039-.051-.085-.113-.167-.234-.259-.341-.261-.305-.156-.514-.009.173v1.063c-.258.733-.1.215.075.045-.264.257.161-.191.2-.236q.56-.674,1.138-1.331a30.426,30.426,0,0,1,2.123-2.274c1.893-1.752-.941-4.576-2.829-2.828Z"/><path class="a" d="M148.018,86.941c-1.577.076-2.917,1.324-4.047,2.3a48.749,48.749,0,0,0-4.267,4.225,33.142,33.142,0,0,0-3.643,4.609c-.583.932-1.172,2.049-.562,3.123a6.774,6.774,0,0,0,1.367,1.468c1.611,1.489,3.281,2.911,4.915,4.373a2.045,2.045,0,0,0,2.829,0,2.02,2.02,0,0,0,0-2.828c-1.141-1.021-2.3-2.024-3.441-3.042-.569-.507-1.138-1.014-1.7-1.536-.178-.167-.349-.343-.529-.508-.06-.056-.11-.135-.175-.184-.239-.176.289.475.178.227l.273,1.009c.043,1.047-.344,1.029-.116.639.066-.113.121-.233.185-.347.139-.246.29-.484.447-.719.166-.25.34-.5.518-.737q.144-.2.293-.39c-.275.36.078-.1.107-.133.986-1.235,2.045-2.412,3.142-3.549a43.325,43.325,0,0,1,3.239-3.074c.114-.1.229-.19.344-.285.1-.08.46-.347.028-.027.192-.143.384-.287.584-.419.155-.1.353-.18.5-.294.251-.2-.518.159-.175.073s-.569.039-.294.026a2.043,2.043,0,0,0,2-2,2.02,2.02,0,0,0-2-2Z"/><path class="h" d="M170.051,138.284c.865-1.313,1.37-2.087,2.316-3.535,7.125-10.909,16.251-24.236,16.219-24.446a39.872,39.872,0,0,0-4.048-4.678c1.526-1.368,6.049-5.271,5.976-5.462-1.125-2.919-9.223-11.222-10.8-11.222a173.786,173.786,0,0,1-4.009,17.5c-3.819,12.821-8.582,25.356-11.781,31.771-1.063,2.243-2.285,4.035-2.285,8.206Z"/><path class="a" d="M163.68,145.129c.269-3.235,2.085-6,3.386-8.9,1.586-3.532,3.017-7.134,4.374-10.759a209.639,209.639,0,0,0,8.206-26.188q1.125-4.876,2-9.808a2.057,2.057,0,0,0-1.4-2.46,2.017,2.017,0,0,0-2.46,1.4,169.153,169.153,0,0,1-5.205,21.431,223.533,223.533,0,0,1-8.906,24.224c-1.637,3.663-3.656,6.978-4,11.066-.215,2.565,3.787,2.551,4,0Z"/><path class="a" d="M183.124,107.039a30.622,30.622,0,0,1,2.123,2.274q.577.658,1.138,1.331c.037.045.461.493.2.236.175.17.334.688.076-.045v-1.063c.11-.609.236-.455.029-.167-.155.213-.285.449-.429.67-.458.706-.925,1.406-1.392,2.106q-2.315,3.472-4.647,6.934-6,8.946-11.895,17.96c-1.418,2.157,2.044,4.163,3.454,2.019q6.124-9.309,12.308-18.576c1.541-2.3,3.087-4.591,4.618-6.9.689-1.038,2-2.445,1.847-3.786-.133-1.153-1.292-2.183-2.011-3.018a33.873,33.873,0,0,0-2.587-2.808c-1.887-1.747-4.723,1.075-2.829,2.828Z"/><path class="a" d="M179.716,90.941c.271.013-.6-.1-.324-.036.354.081-.245-.171-.182-.081.076.109.418.238.531.312.2.132.392.276.585.419-.462-.342.238.2.371.312a43.339,43.339,0,0,1,3.24,3.074c1.1,1.137,2.156,2.314,3.141,3.549.059.074.373.482.108.133q.147.193.293.39c.177.242.352.487.518.737.145.218.287.44.417.667.066.115.122.238.19.351.263.43-.133.438-.091-.591l.273-1.009c-.108.242.377-.365.2-.251a1.865,1.865,0,0,0-.2.208c-.179.165-.35.341-.529.508-.556.521-1.125,1.029-1.694,1.536-1.144,1.018-2.3,2.021-3.441,3.042a2,2,0,0,0,2.828,2.828c1.469-1.314,2.963-2.6,4.423-3.922a18,18,0,0,0,1.461-1.4,2.537,2.537,0,0,0,.118-3.169,25.378,25.378,0,0,0-3.347-4.439,52.257,52.257,0,0,0-4.353-4.439c-1.236-1.111-2.771-2.648-4.538-2.733a2,2,0,0,0,0,4Z"/><path class="a" d="M159.2,74.057a10.225,10.225,0,0,0,4.919,1.155,9.776,9.776,0,0,0,3.035-.442,6.747,6.747,0,0,0,2.092-1.141,1.991,1.991,0,0,0,.586-1.414,2.036,2.036,0,0,0-.586-1.414,2.01,2.01,0,0,0-1.414-.586,2.349,2.349,0,0,0-1.414.586c.7-.547.094-.088-.122.025-.17.089-.572.216.1-.025-.129.046-.254.1-.384.139-.354.114-.714.161-1.074.245.156-.036.454-.054.119-.021-.1.011-.211.02-.316.027-.255.016-.509.022-.764.021-.228,0-.456-.009-.683-.025-.105-.007-.209-.015-.313-.026-.19-.019-.459-.136.07.014-.328-.093-.674-.125-1-.223-.141-.042-.278-.092-.417-.14-.406-.14.471.22.1.046-.172-.081-.341-.166-.51-.255a2,2,0,0,0-2.019,3.454Z"/><path class="a" d="M162.726,62.962a21.317,21.317,0,0,1,.5,2.273l-.071-.531a1.365,1.365,0,0,1,.008.313l.071-.531a.782.782,0,0,1-.034.141l.2-.478a.618.618,0,0,1-.05.091l.313-.4a.518.518,0,0,1-.075.073l.405-.313a1.476,1.476,0,0,1-.18.1l.478-.2a1.343,1.343,0,0,1-.3.089l.532-.072a1.235,1.235,0,0,1-.285,0l.532.071c-.108-.015-.213-.041-.32-.055a2.246,2.246,0,0,0-1.542.2,2,2,0,0,0-.717,2.737l.313.4a1.992,1.992,0,0,0,.882.515c.319.043.628.121.952.135a3.175,3.175,0,0,0,1.5-.369,2.348,2.348,0,0,0,1.244-1.523,3.453,3.453,0,0,0-.01-1.547c-.124-.732-.293-1.458-.482-2.176a2,2,0,0,0-2.46-1.4,2.017,2.017,0,0,0-1.195.919,2.1,2.1,0,0,0-.2,1.541Z"/><path class="a" d="M151.512,56.3c-.38,1.233-.132,4.071,2.205,4.313,3.088-.019,3.253-3.45,2.213-5.063C155.079,54.232,152.575,53.683,151.512,56.3Z"/><path class="a" d="M176.247,56.3c.379,1.234.132,4.071-2.205,4.313-3.089-.019-3.253-3.45-2.213-5.063C172.68,54.232,175.183,53.683,176.247,56.3Z"/><path class="a" d="M82.8,149.027q5.64,0,11.28-.021,10.413-.027,20.824-.06,13.971-.043,27.942-.091,16.317-.054,32.636-.113,17.453-.061,34.906-.128,17.376-.066,34.751-.135,16.086-.066,32.172-.135,13.585-.06,27.169-.127,9.841-.05,19.684-.11c3.31-.022,6.621-.026,9.93-.087.218,0,.437-.005.654-.017,2.56-.14,2.577-4.141,0-4-2.376.131-4.777.063-7.156.08q-8.8.065-17.592.106-12.8.068-25.6.123-15.6.07-31.19.134-17.177.071-34.352.136-17.546.068-35.091.13-16.7.061-33.4.118-14.648.049-29.293.1-11.343.035-22.687.067-6.918.02-13.836.032H82.8c-2.574,0-2.578,4,0,4Z"/><path class="i" d="M110.394,387.545c.642-5.244,1.491-10.5,1.324-15.776-.464-14.635-12.756-30.459-25.8-37.108-.3-4.8-1.182-10.771-1.479-15.566a2.743,2.743,0,0,0-2.463-3.07l-25.9-8.306-13.3-4.264a2.3,2.3,0,0,0-1.823-.064,2.244,2.244,0,0,0-.729.838,85.94,85.94,0,0,0-7.391,15.405c-13.75,9.444-25.552,25.959-30.586,42.754-7.759,10.211,47.747,26.32,75.33,28.947,9.333.889,31.111.444,32.821-3.79"/><path class="b" d="M104.031,238.612c-.47-1.4-.893-2.808-1.277-4.217a76.85,76.85,0,0,0-4.562-11.275l-.8-3.863h0c-3.955.908-14.912,2.554-17.245,4.3-5.663,4.245-5.89,13.288-8.395,20.306-.556,1.561-.53,3.606-3.465,4.835a32.14,32.14,0,0,0,.372,7.307c-1.719-1.193-3.545-2.609-5.673-2.767-2.822-.21-5.43,1.994-6.378,4.66a12.623,12.623,0,0,0,.42,8.314,23.219,23.219,0,0,0,2.309,4.746c-5,9.771-7.383,13.324-13.877,18.588l-7.707,4.124c1.455,1.913,3.175,3.718,3.739,6.673-.023.779-.1,1.663-.212,2.51a4.285,4.285,0,0,1,.965.22l13.3,4.265,24.372,7.815c-.015,1.03,3.23-4.025,4.049-6.488,11.955-2.411,26.117-6.622,29.984-17.324,1.194-3.3.917-6.987.484-10.657-.673-5.717-1.724-11.4,1.827-15.567,1.282-1.5,3.17-3.123,2.589-5.011a5.031,5.031,0,0,0-2.133-2.3C110.4,253.215,106.546,246.089,104.031,238.612Z"/><path class="i" d="M37.737,293.87c-9.035-6.139-15.374-16.691-19.48-26.827-5.144-12.7-1.546-35.737,8.67-41.363,1.054-2.314,2.083-4.613,2.083-4.613,3.072-6.866,8.855-11.361,14.449-13.971s10.347-3.313,16.475-4.057c9.173-4.465,34.655,2.975,37.442,16.415h0c-3.956.908-14.913,2.554-17.246,4.3-5.662,4.245-5.89,13.288-8.394,20.306-.557,1.561-.531,3.606-3.466,4.835a32.139,32.139,0,0,0,.373,7.307c-1.72-1.193-3.546-2.609-5.674-2.767-2.822-.21-5.43,1.994-6.377,4.66a12.617,12.617,0,0,0,.42,8.314,23.267,23.267,0,0,0,2.308,4.746c-5,9.771-7.383,13.324-13.876,18.588Z"/><path class="a" d="M82.563,308.514c-.081.24-.173.476-.271.71l.2-.478a25.477,25.477,0,0,1-1.483,2.884,22.421,22.421,0,0,1-1.585,2.416l.313-.4c-.091.116-.185.231-.284.341a2,2,0,0,0,2.829,2.828,19.342,19.342,0,0,0,2.226-3.239,22.15,22.15,0,0,0,1.91-3.994,2.014,2.014,0,0,0-1.4-2.46,2.046,2.046,0,0,0-2.46,1.4Z"/><path class="a" d="M69.038,254.048c-3.041-2.123-6.415-3.542-9.976-1.716a9.92,9.92,0,0,0-5,8.654c-.238,7.163,4.6,14.07,10.121,18.17a2.014,2.014,0,0,0,2.737-.717,2.047,2.047,0,0,0-.718-2.736c-4.072-3.025-7.427-7.917-8.073-13.026-.3-2.357.2-4.986,2.229-6.458,2.337-1.695,4.634-.13,6.657,1.283,2.116,1.477,4.117-1.989,2.019-3.454Z"/><path class="a" d="M57.6,270.146c-1.907,3.341-3.955,6.608-6.18,9.748a42.405,42.405,0,0,1-7.385,8.438,2.013,2.013,0,0,0,0,2.828,2.044,2.044,0,0,0,2.828,0,45.781,45.781,0,0,0,7.841-9.009,116.607,116.607,0,0,0,6.35-9.986c1.278-2.24-2.177-4.257-3.454-2.019Z"/><path class="a" d="M112.394,387.545c.617-5,1.415-10,1.34-15.056a35.092,35.092,0,0,0-2.212-11.582,53.041,53.041,0,0,0-13.716-20.2,49.187,49.187,0,0,0-10.88-7.77c-2.284-1.178-4.31,2.272-2.018,3.454a48.585,48.585,0,0,1,16.785,14.682c4.281,5.9,7.68,12.952,8.011,20.345.242,5.4-.65,10.786-1.31,16.13a2.01,2.01,0,0,0,2,2,2.049,2.049,0,0,0,2-2Z"/><path class="a" d="M87.917,334.661c-.337-5.2-1.059-10.372-1.479-15.566a5.412,5.412,0,0,0-1.177-3.467,7.091,7.091,0,0,0-3.226-1.682q-4.354-1.4-8.713-2.794l-17.195-5.514L47.578,302.9c-1.423-.457-2.84-.949-4.274-1.371a3.871,3.871,0,0,0-3.915.565,15.667,15.667,0,0,0-2.528,3.925q-1.126,2.019-2.145,4.1A93.282,93.282,0,0,0,30.9,319.1c-.885,2.422,2.98,3.466,3.858,1.063a83.261,83.261,0,0,1,3.412-8.033q.915-1.869,1.921-3.693c.622-1.129,1.258-2.833,2.272-3.634l-.883.515c.59-.228,1.591.329,2.185.52l3.087.99,6.175,1.98,11.8,3.782,12.01,3.852,2.826.906a8.582,8.582,0,0,1,2.585.864c.4.336.3.963.333,1.47.062.889.14,1.776.224,2.663.392,4.106.949,8.2,1.216,12.314.165,2.556,4.167,2.574,4,0Z"/><path class="a" d="M31.82,317.907c-11.884,8.218-21.3,20.125-27.371,33.182a81,81,0,0,0-4.36,11.537c-.719,2.477,3.14,3.535,3.857,1.064a81.538,81.538,0,0,1,21.215-35.123,66.678,66.678,0,0,1,8.677-7.206c2.1-1.455.106-4.923-2.018-3.454Z"/><path class="a" d="M73.89,330.048a221.076,221.076,0,0,0-40.529-12.343c-2.516-.477-3.594,3.377-1.064,3.857a221.029,221.029,0,0,1,40.529,12.343,2.014,2.014,0,0,0,2.461-1.4,2.049,2.049,0,0,0-1.4-2.46Z"/><path class="a" d="M96.2,354.943c-8.358-1.162-16.061,3.148-21.6,9.142a76.13,76.13,0,0,0-13.614,21.4,2.067,2.067,0,0,0,.717,2.737,2.015,2.015,0,0,0,2.736-.718,74.812,74.812,0,0,1,12.266-19.791c4.544-5.148,11.191-9.921,18.432-8.914a2.069,2.069,0,0,0,2.46-1.4,2.014,2.014,0,0,0-1.4-2.46Z"/><path class="a" d="M73.929,227.23A16.412,16.412,0,0,0,70.8,232.9a22.1,22.1,0,0,0-.692,5.136,29.157,29.157,0,0,1-.525,5.072c-.4,1.755-.748,3.179-2.318,4.066-2.242,1.265-.228,4.722,2.019,3.454,3.784-2.137,4.483-6.8,4.734-10.784a39.257,39.257,0,0,1,.369-4.759,11.457,11.457,0,0,1,2.375-5.023,2.063,2.063,0,0,0,0-2.829,2.016,2.016,0,0,0-2.829,0Z"/><path class="a" d="M25.018,224.5c-7.739,5.348-10.3,16.218-10.95,25.04a45.2,45.2,0,0,0,1.189,14.787c1.464,5.525,4.344,10.9,7.347,15.731A52.544,52.544,0,0,0,36.727,295.6l-.717-.718a34.222,34.222,0,0,1,2.488,3.409,5.349,5.349,0,0,1,.815,4.36,2.013,2.013,0,0,0,2,2,2.045,2.045,0,0,0,2-2,9.19,9.19,0,0,0-.691-5.047A19.041,19.041,0,0,0,40,293.546a7.818,7.818,0,0,0-1.569-1.624c-.488-.357-.975-.711-1.444-1.092a42.24,42.24,0,0,1-3.777-3.475A62.767,62.767,0,0,1,22.1,270.814a38.506,38.506,0,0,1-4.087-14.68,47.976,47.976,0,0,1,1.658-15.769c1.274-4.527,3.434-9.688,7.368-12.407,2.1-1.454.106-4.922-2.019-3.454Z"/><path class="a" d="M30.94,221.635a27.734,27.734,0,0,1,13.946-13,41.07,41.07,0,0,1,10.375-2.952q1.215-.2,2.435-.358a11.81,11.81,0,0,0,3.247-.554c.14-.064.273-.143.416-.2-.331.14-.036.012.122-.039.359-.116.715-.229,1.082-.317a9.3,9.3,0,0,1,2.194-.314,25.8,25.8,0,0,1,2.93,0,35.907,35.907,0,0,1,6.361.945,44.316,44.316,0,0,1,13.392,5.4c3.9,2.422,7.6,5.787,8.569,10.238.547,2.514,4.4,1.45,3.857-1.063-1.4-6.44-7.181-11.021-12.716-13.953a47.356,47.356,0,0,0-19.582-5.572,17.082,17.082,0,0,0-8.644,1.43l1.01-.273c-6.808.83-13.415,2.014-19.5,5.352a30.447,30.447,0,0,0-12.947,13.225c-1.112,2.309,2.336,4.34,3.454,2.019Z"/><path class="a" d="M95.836,222.475c3.44,5.485,4.926,11.7,7.028,17.727,2.64,7.573,6.676,14.743,13.212,19.6.4.3,1.268.749,1.388,1.281.139.612-.644,1.37-1,1.782a16.275,16.275,0,0,0-3.26,4.878c-1.481,3.83-.877,8.111-.393,12.071.5,4.084,1.145,8.5-.667,12.359a17.853,17.853,0,0,1-6,6.886c-6.479,4.565-14.532,6.509-22.184,8.061-2.521.511-1.454,4.367,1.063,3.857,13.685-2.774,32.889-8.525,32.288-25.8-.154-4.419-1.329-8.815-.977-13.251a9,9,0,0,1,1.982-5.148c1.228-1.458,2.735-2.82,3.081-4.786.42-2.383-1.088-4-2.856-5.321a28.636,28.636,0,0,1-4.443-4.087,37.446,37.446,0,0,1-6.183-10.3c-1.465-3.51-2.321-7.2-3.613-10.768a57.68,57.68,0,0,0-5.012-11.059c-1.365-2.176-4.828-.171-3.454,2.018Z"/><path class="a" d="M112.591,274.89a7.649,7.649,0,0,0-7.546,5.269,7.194,7.194,0,0,0,3.361,8.275,7.36,7.36,0,0,0,5.311.9,2.012,2.012,0,0,0,1.4-2.46,2.05,2.05,0,0,0-2.46-1.4c-.093.02-.185.038-.278.052.3-.038.337-.047.112-.026-.163,0-.325.011-.488,0-.07,0-.14-.006-.209-.012-.224-.023-.186-.017.116.019-.055.043-.406-.084-.478-.1-.158-.042-.311-.1-.467-.146q-.307-.119.087.043c-.086-.039-.171-.079-.254-.122a2.663,2.663,0,0,1-.839-.52l.181.139c-.073-.059-.144-.121-.214-.184-.14-.125-.274-.258-.4-.4a2.662,2.662,0,0,0-.274-.321q.253.33.064.065c-.053-.077-.1-.156-.152-.236-.072-.119-.131-.246-.2-.367q-.14-.3.03.1c-.035-.087-.068-.174-.1-.262-.045-.132-.085-.266-.118-.4-.022-.091-.041-.182-.058-.274q-.054-.333.015.113c-.061-.05-.017-.43-.015-.511s0-.147.01-.221q.033-.341-.019.095a2.332,2.332,0,0,1,.273-.985c-.11.251-.118.276-.026.074.043-.088.088-.175.136-.26.071-.129.148-.255.229-.378.054-.082.111-.163.169-.242q-.246.312-.036.057c.1-.11.2-.22.3-.326a1.878,1.878,0,0,1,.439-.4c-.386.163-.059.047.07-.04a5.889,5.889,0,0,1,.507-.3c.087-.046.175-.089.264-.13l-.208.085a3.1,3.1,0,0,1,.983-.284q.336-.054-.1.013c.1-.009.2-.015.293-.017a5.272,5.272,0,0,1,.59.022,2.007,2.007,0,0,0,2-2,2.052,2.052,0,0,0-2-2Z"/><path class="a" d="M89.3,217.33c-1.756-1-3.526-2.026-5.373-2.853a12.222,12.222,0,0,0-6.164-1.331,2.045,2.045,0,0,0-2,2,2.022,2.022,0,0,0,2,2,7.605,7.605,0,0,1,1.3-.025c.123.008.246.02.368.034q-.341-.047.017.011c.181.041.364.073.545.117a11.927,11.927,0,0,1,1.254.383c.065.024.757.3.4.15.2.086.406.179.607.274,1.719.805,3.379,1.754,5.027,2.694A2,2,0,0,0,89.3,217.33Z"/><path class="a" d="M81.357,219.741c-4.363-.26-9.038-.747-12.99,1.538a2,2,0,0,0,2.019,3.454c.231-.133.466-.251.7-.374.218-.1.239-.111.063-.037.091-.038.183-.073.275-.106a11.094,11.094,0,0,1,1.416-.416c.193-.043.387-.081.582-.116.13-.023.261-.044.392-.063-.2.026-.182.024.062,0,.469-.043.935-.081,1.405-.1,2.025-.072,4.054.1,6.074.223a2.012,2.012,0,0,0,2-2,2.045,2.045,0,0,0-2-2Z"/><path class="a" d="M95.647,280.246a9.118,9.118,0,0,0,1.225,7.723,2.163,2.163,0,0,0,1.195.919,2,2,0,0,0,2.259-2.938,7.293,7.293,0,0,1-.775-1.392l.2.478a7.573,7.573,0,0,1-.487-1.828l.071.532a7.526,7.526,0,0,1,0-1.891l-.071.531a7.414,7.414,0,0,1,.235-1.071,2,2,0,0,0-3.857-1.063Z"/><path class="a" d="M101.688,247.522a6.118,6.118,0,0,0-2.778-.707,6.741,6.741,0,0,0-2.76.636,5.763,5.763,0,0,0-3.178,3.489,2.02,2.02,0,0,0,1.4,2.46,2.042,2.042,0,0,0,2.46-1.4c.026-.085.055-.167.088-.25l-.2.478a3.4,3.4,0,0,1,.414-.712l-.313.4a4.362,4.362,0,0,1,.725-.725l-.405.313a4.881,4.881,0,0,1,1.069-.621l-.478.2a4.842,4.842,0,0,1,1.151-.311l-.531.071a4.4,4.4,0,0,1,1.051,0l-.532-.072a4.144,4.144,0,0,1,.967.256l-.478-.2c.107.046.211.094.314.147a2.121,2.121,0,0,0,1.541.2,2,2,0,0,0,.478-3.656Z"/><path class="a" d="M92.684,256.246a3.809,3.809,0,0,0-1.917,3.65,5.046,5.046,0,0,0,1.726,3.41,4.659,4.659,0,0,0,1.881.98,6.215,6.215,0,0,0,1.643.176,5.615,5.615,0,0,0,3.5-1.3,4,4,0,0,0,1.1-4.158,2.08,2.08,0,0,0-.919-1.195,2,2,0,0,0-2.938,2.258,3.274,3.274,0,0,1,.095.426l-.072-.532a2.325,2.325,0,0,1,0,.6l.072-.532a2.011,2.011,0,0,1-.116.43l.2-.478a2.054,2.054,0,0,1-.236.412l.312-.4a2.3,2.3,0,0,1-.408.4l.405-.313a2.973,2.973,0,0,1-.61.349l.478-.2a3.987,3.987,0,0,1-.971.262l.532-.071a4.505,4.505,0,0,1-1.183,0l.531.071a3.585,3.585,0,0,1-.8-.2l.478.2a2.517,2.517,0,0,1-.557-.328l.405.313a3.112,3.112,0,0,1-.51-.516l.313.405a3.428,3.428,0,0,1-.428-.733l.2.478a3.036,3.036,0,0,1-.2-.748l.071.532a2.5,2.5,0,0,1,0-.586l-.072.532a2.077,2.077,0,0,1,.119-.452l-.2.478a1.855,1.855,0,0,1,.237-.409l-.313.4a2,2,0,0,1,.318-.312l-.405.313a2.626,2.626,0,0,1,.254-.165,2,2,0,0,0,.717-2.736,2.038,2.038,0,0,0-2.736-.718Z"/><path class="i" d="M418.056,335.625q-.333-1.125-.686-2.244c-3.464-8.935-13.738-12.331-19.649-14.491a70.119,70.119,0,0,0-23.98-4.723,71.242,71.242,0,0,0-16.141,1.9c-16.418,3.76-35.369,11.439-43.969,25.134a76.792,76.792,0,0,0-4.934,9.837c-3.566,8.051-6.036,17.814-9.36,26.908-1.431,5.057,31.938,8.608,50.68,7.317,11.112-.766,33.408-4.3,45.037-7.408,7.032-1.881,28.741-9.629,28.3-12.75A136.34,136.34,0,0,0,418.056,335.625Z"/><path class="a" d="M321.333,224.005a8.254,8.254,0,0,0-1.54,1.13c-.514.438-1,.909-1.474,1.391a39.4,39.4,0,0,0-3.157,3.648,9.5,9.5,0,0,0-.965,1.437,2,2,0,0,0,3.454,2.019,8.3,8.3,0,0,1,.772-1.182c.042-.056.085-.112.127-.169.2-.268-.217.277-.133.173.1-.131.207-.263.312-.393q.338-.417.689-.823a32,32,0,0,1,2.964-3.064c.121-.108.243-.214.368-.318l.175-.143c.262-.215-.389.29-.19.146a4.958,4.958,0,0,1,.617-.4,2.015,2.015,0,0,0,.718-2.736,2.048,2.048,0,0,0-2.737-.717Z"/><path class="b" d="M335.234,302.884l-2.718,22.109a105.7,105.7,0,0,1,25.084-8.928,71.242,71.242,0,0,1,16.141-1.9l8.056.589c-1.452-4.064-2.373-8.676-2.315-10.835.019-.716.08-1.563.17-2.474l-.277-.057c-4.5-.9-11.826-3.456-14.575-6.429-4.307-4.656-8.173-16.606-4.113-15.01a13.989,13.989,0,0,0,2.571-4.434c2.209-6.508-1.094-10.807-6.047-11.112-9.4-6.215-17.079-15.988-21.736-24.7l-4.724,2.468c-4.426-2.009-8.186-7.46-9.247-12.851l-1.221,2.064a55.772,55.772,0,0,0-4.272,10.951c-1.728,7.318-4.752,14.745-10.676,19.376a4.084,4.084,0,0,0-1.667,1.922c-.418,1.547,1.158,2.809,2.238,3.993,4.917,5.385-.112,14.435,2.6,21.2,3.431,8.573,15.851,12.274,26.812,14.058"/><path class="j" d="M335.475,239.706c4.657,8.711,12.333,18.484,21.736,24.7,4.953.305,8.256,4.6,6.047,11.112a13.989,13.989,0,0,1-2.571,4.434c-4.06-1.6-.194,10.354,4.113,15.01,2.749,2.973,10.076,5.53,14.575,6.429l.277.057c-.09.911-.151,1.758-.17,2.474-.083,3.106,1.859,11.287,4.494,15.611,2.4,3.931,4.884,7.545,9,9.882,3.236,1.838,12.932,5.891,17.47,1.919-5.932-7.414.637-20,4.348-28.9,2.437-5.842,2.248-12.985-1.946-18.153-3.353-4.132-8.407-6.128-14.133-6.883,9.247-16.556,7-36.678.23-40.252l-2.926-7.213c-3.184-16.816-30.4-26.746-49.583-23.564-7.662,1.272-14.8,5.781-19.879,11.556-2.1,2.383-3.477,5.231-5.332,7.736-.346,6.37,4.088,14.039,9.528,16.509Z"/><path class="k" d="M345.59,254.169A76.094,76.094,0,0,1,335.7,240.13l-4.765,2.474c-5.665-2.57-10.237-10.777-9.462-17.287,1.73-2.418,3.078-5.115,5.078-7.388,5.082-5.775,12.217-10.284,19.879-11.556,21.613-3.586,53.43,9.477,49.57,30.28,8.9-1.378,13.193,21.977,2.709,40.749,5.726.755,10.78,2.751,14.133,6.883,4.194,5.168,4.383,12.311,1.946,18.153-3.711,8.9-10.28,21.481-4.348,28.9-4.538,3.972-14.234-.081-17.47-1.919-4.114-2.337-6.6-5.951-9-9.882-2.635-4.324-4.577-12.5-4.494-15.611.019-.716.08-1.562.172-2.475l-.279-.056c-4.5-.9-11.826-3.456-14.575-6.429-4.309-4.657-8.176-16.614-4.112-15.011a14,14,0,0,0,2.57-4.433c2.21-6.512-1.1-10.813-6.054-11.116A60.485,60.485,0,0,1,345.59,254.169Z"/><path class="a" d="M352.167,267.547c2.13-1.078,4.856-1.614,6.893-.721a4.937,4.937,0,0,1,2.895,4.961c-.059,3.406-2.023,6.194-4.308,8.543a36.756,36.756,0,0,1-3.781,3.527,32,32,0,0,1-3.915,2.461c-2.243,1.264-.229,4.721,2.019,3.454a34.651,34.651,0,0,0,7.485-5.59c2.485-2.453,4.77-5.077,5.84-8.467a11.606,11.606,0,0,0-.307-8.452,8.673,8.673,0,0,0-5.493-4.5,13.008,13.008,0,0,0-9.347,1.332c-2.3,1.162-.275,4.614,2.019,3.454Z"/><path class="a" d="M357.2,283.7A28.879,28.879,0,0,0,360,291.351a17.959,17.959,0,0,0,4.547,6.063,27.216,27.216,0,0,0,7.055,3.747,44.49,44.49,0,0,0,7.243,2.158,2.049,2.049,0,0,0,2.46-1.4,2.019,2.019,0,0,0-1.4-2.46c-4.328-.883-9.186-2.327-12.746-5.045a15.128,15.128,0,0,1-3.709-5.085,25.009,25.009,0,0,1-2.391-6.692,2.02,2.02,0,0,0-2.46-1.4,2.043,2.043,0,0,0-1.4,2.461Z"/><path class="a" d="M330.265,232.976a70.342,70.342,0,0,0,24.342,32.057,2.016,2.016,0,0,0,2.737-.717,2.046,2.046,0,0,0-.718-2.737,69.223,69.223,0,0,1-22.5-29.666c-.876-2.4-4.743-1.363-3.857,1.063Z"/><path class="a" d="M398.258,279.339c4.107.517,8.414,1.781,11.534,4.625a14.449,14.449,0,0,1,4.565,11.43c-.165,4.249-2.159,8.014-3.783,11.85a56.627,56.627,0,0,0-4.125,12.534c-.776,4.63-.365,9.165,2.581,12.969v-2.828c-2.248,1.872-6,1.084-8.541.393a25.013,25.013,0,0,1-8.014-3.588c-3.092-2.224-5.433-5.671-7.221-8.986a36.264,36.264,0,0,1-3.384-10.3c-.74-3.847-.093-7.691.539-11.517a2.06,2.06,0,0,0-1.4-2.46,2.016,2.016,0,0,0-2.46,1.4c-.682,4.125-1.4,8.282-.749,12.447a41.3,41.3,0,0,0,3.635,11.746,30.617,30.617,0,0,0,8.142,10.469,27.958,27.958,0,0,0,9.69,4.607c4.19,1.168,9.04,1.577,12.588-1.379a2.046,2.046,0,0,0,0-2.828c-2.363-3.052-2-7.334-1.195-10.863a73.3,73.3,0,0,1,4.542-12.536c1.825-4.219,3.427-8.337,3.129-13.032a18.155,18.155,0,0,0-5.713-12.352c-3.973-3.621-9.138-5.139-14.363-5.8a2.011,2.011,0,0,0-2,2,2.05,2.05,0,0,0,2,2Z"/><path class="a" d="M397.933,238.876a5.9,5.9,0,0,1,1.81,1.658,13.117,13.117,0,0,1,1.522,2.967,28.813,28.813,0,0,1,1.567,8.851A46.765,46.765,0,0,1,397.47,275.5c-1.194,2.278,2.257,4.3,3.453,2.019a52.023,52.023,0,0,0,5.82-20.485c.391-5.55-.055-11.518-2.458-16.613a10.852,10.852,0,0,0-4.333-5c-2.257-1.241-4.278,2.212-2.019,3.453Z"/><path class="a" d="M321.382,228.62c2.455-2.739,3.957-6.136,6.3-8.944a34.454,34.454,0,0,1,7.987-6.954,33.136,33.136,0,0,1,17.947-4.938c11.04-.071,23.049,3.11,31.867,9.953,4.156,3.226,7.568,7.48,8.6,12.732.5,2.523,4.353,1.455,3.857-1.063-2.237-11.344-13.469-18.383-23.562-22.018-11.858-4.271-26.38-5.628-37.912.268a38.753,38.753,0,0,0-10.111,7.539,33.243,33.243,0,0,0-4.094,5.24,40.665,40.665,0,0,1-3.713,5.357c-1.714,1.912,1.106,4.75,2.828,2.828Z"/><path class="a" d="M328.512,347.372a75.166,75.166,0,0,1,13.476,31.1c.466,2.528,4.322,1.457,3.857-1.064a77.819,77.819,0,0,0-13.879-32.058,2.062,2.062,0,0,0-2.737-.718,2.015,2.015,0,0,0-.717,2.737Z"/><path class="a" d="M318.556,230.377A46.637,46.637,0,0,0,314.934,239c-.87,2.606-1.416,5.3-2.289,7.9a32.7,32.7,0,0,1-4.763,9.4,21.894,21.894,0,0,1-3.508,3.64c-1.4,1.156-2.844,2.34-2.77,4.348.07,1.884,1.446,3.219,2.65,4.506a6.891,6.891,0,0,1,1.753,3.6c.565,3.1-.14,6.387-.31,9.5a17.124,17.124,0,0,0,1.725,9.325,19.029,19.029,0,0,0,6.159,6.437c6.182,4.208,13.933,5.975,21.2,7.171a2.061,2.061,0,0,0,2.46-1.4,2.017,2.017,0,0,0-1.4-2.461c-6.175-1.015-12.566-2.405-18.1-5.45a17.794,17.794,0,0,1-6.079-5.035,12.073,12.073,0,0,1-2.016-7.686c.091-3.095.679-6.184.479-9.285a13.365,13.365,0,0,0-.975-4.432,12.919,12.919,0,0,0-2.7-3.766,6.464,6.464,0,0,1-.6-.692c-.136-.194-.222-.584-.259-.45.141-.511,1.209-1.077,1.605-1.4a23.514,23.514,0,0,0,3.471-3.588,35.168,35.168,0,0,0,5.023-9c2.313-5.875,3.108-12.24,6.314-17.781,1.292-2.232-2.163-4.248-3.454-2.019Z"/><path class="a" d="M301.266,378.476c2.685-7.385,4.739-14.986,7.5-22.342,2.422-6.443,5.289-13.169,9.931-18.345,8.415-9.386,20.807-14.637,32.686-18.057a81.672,81.672,0,0,1,22.353-3.565c2.573-.01,2.578-4.01,0-4a82.722,82.722,0,0,0-20.912,3.016A105.885,105.885,0,0,0,333.7,322.16a60.165,60.165,0,0,0-16.133,11.02c-5.273,5.211-8.465,11.724-11.3,18.486-3.516,8.376-5.757,17.218-8.857,25.747-.882,2.423,2.983,3.467,3.857,1.063Z"/><path class="a" d="M333.234,302.884l-1.965,15.986a2.01,2.01,0,0,0,2,2,2.05,2.05,0,0,0,2-2l1.965-15.986a2.011,2.011,0,0,0-2-2,2.049,2.049,0,0,0-2,2Z"/><path class="a" d="M415.441,333.912a135.868,135.868,0,0,1,5.91,31.191c.177,2.554,4.178,2.573,4,0a140.586,140.586,0,0,0-6.052-32.254c-.767-2.448-4.63-1.4-3.858,1.063Z"/><path class="a" d="M319.2,226.047a20.446,20.446,0,0,0,3,10.527,18.085,18.085,0,0,0,7.546,7.326,2.056,2.056,0,0,0,2.736-.717,2.015,2.015,0,0,0-.717-2.736c-5.164-2.406-8.64-8.828-8.562-14.4.036-2.575-3.964-2.576-4,0Z"/><path class="a" d="M310.252,275.027c.228.021.2.013-.084-.024.1.015.2.032.294.053a5.329,5.329,0,0,1,.571.151c.094.03.186.062.278.1-.251-.11-.275-.12-.074-.029.13.069.262.13.389.2.17.1.328.207.491.314.177.129.157.114-.059-.048.075.062.148.125.219.191q.188.171.36.357c.091.1.481.417.1.1a2.394,2.394,0,0,1,.586.987c-.1-.237-.116-.287-.062-.148.027.067.051.134.074.2a5.067,5.067,0,0,1,.155.551c.021.094.039.188.055.282-.036-.294-.042-.329-.02-.1,0,.17.017.338.013.508,0,.073,0,.146-.011.219q-.033.339.02-.091a1.679,1.679,0,0,1-.128.575c-.05.179-.112.352-.172.527-.137.407.184-.33-.009.006-.085.147-.158.3-.249.442-.3.465.175-.157-.051.088-.143.156-.511.4-.6.587.248-.188.287-.221.116-.1-.066.045-.133.089-.2.131-.138.086-.281.165-.427.237-.425.209-.035-.046.021,0a3.038,3.038,0,0,0-.485.166c-.2.059-.86.325-1.049.232q.417-.052.184-.025c-.071.008-.142.016-.213.022q-.291.027-.583.038c-.41.017-.819.009-1.229-.01a2.014,2.014,0,0,0-2,2,2.043,2.043,0,0,0,2,2c3.014.141,6.129-.621,7.9-3.246a7.35,7.35,0,0,0-.959-9.056,7.878,7.878,0,0,0-5.164-2.384,2.008,2.008,0,0,0-2,2,2.051,2.051,0,0,0,2,2Z"/><path class="a" d="M322.645,278.614a14.869,14.869,0,0,1,.016,3.114l.072-.532a6.572,6.572,0,0,1-.422,1.578l.2-.478a6.43,6.43,0,0,1-.8,1.359,2,2,0,0,0-.2,1.541,2,2,0,0,0,2.46,1.4,2.354,2.354,0,0,0,1.195-.919c1.564-2.051,1.679-4.594,1.48-7.06a2.138,2.138,0,0,0-.586-1.415,2,2,0,0,0-3.414,1.415Z"/><path class="a" d="M319.939,254.272c.1-.052.207-.1.314-.146l-.478.2a4.094,4.094,0,0,1,.967-.255l-.532.071a4.452,4.452,0,0,1,1.051,0l-.532-.071a4.819,4.819,0,0,1,1.151.312l-.477-.2a4.955,4.955,0,0,1,1.068.621l-.405-.312a4.287,4.287,0,0,1,.725.725l-.312-.405a3.4,3.4,0,0,1,.413.712l-.2-.477q.048.123.087.249a2,2,0,1,0,3.857-1.063,5.759,5.759,0,0,0-3.177-3.488,6.779,6.779,0,0,0-2.72-.636,6.083,6.083,0,0,0-2.818.707,2.013,2.013,0,0,0-.718,2.736,2.048,2.048,0,0,0,2.737.717Z"/><path class="a" d="M326.962,262.272a2.571,2.571,0,0,1,.254.165l-.405-.313a2.046,2.046,0,0,1,.318.313l-.312-.405a1.909,1.909,0,0,1,.236.408l-.2-.477a2.066,2.066,0,0,1,.118.451l-.071-.531a2.489,2.489,0,0,1,0,.585l.072-.532a3.114,3.114,0,0,1-.2.748l.2-.478a3.431,3.431,0,0,1-.427.734l.312-.4a3.179,3.179,0,0,1-.509.515l.4-.312a2.569,2.569,0,0,1-.556.327l.477-.2a3.5,3.5,0,0,1-.8.2L326.4,263a4.505,4.505,0,0,1-1.183,0l.531.072a4.079,4.079,0,0,1-.971-.262l.478.2a2.962,2.962,0,0,1-.609-.348l.4.312a2.3,2.3,0,0,1-.408-.4l.313.4a1.913,1.913,0,0,1-.236-.412l.2.478a2.009,2.009,0,0,1-.115-.43l.071.532a2.325,2.325,0,0,1,0-.6l-.071.532a3.224,3.224,0,0,1,.1-.425,2,2,0,1,0-3.857-1.064,4.047,4.047,0,0,0,.923,4,5.352,5.352,0,0,0,3.355,1.434,5.244,5.244,0,0,0,3.22-.662,5.047,5.047,0,0,0,2.246-3.133,4.216,4.216,0,0,0-.063-2.267,3.873,3.873,0,0,0-1.746-2.129,2.081,2.081,0,0,0-1.541-.2,2,2,0,0,0-.478,3.655Z"/></svg>