<?xml version="1.0" encoding="utf-8"?>
<!-- Uploaded to: SVG Repo, www.svgrepo.com, Generator: SVG Repo Mixer Tools -->
<svg width="800px" height="800px" viewBox="-166.01 0 472.166 472.166" xmlns="http://www.w3.org/2000/svg"><defs><style>.a{fill:#ffffff;}.b{fill:#211715;}.c{fill:#7a7473;}.d{fill:#3f88c9;}</style></defs><path class="a" d="M100.865,52.114a4.617,4.617,0,0,1,3.693-1.08,4.358,4.358,0,0,1,3.132,2.083,6.152,6.152,0,0,1,.645,2.478,18.453,18.453,0,0,1-1.882,9.785,11.726,11.726,0,0,1-3.034,3.982A7.769,7.769,0,0,1,99.8,70.993l-.617.095c-.3,1.112-.632,2.048-.8,2.545-1,2.709-6.343,11.735-13.213,15.744a48.927,48.927,0,0,0,.77,8.155c.437,2.491.3,4.718,3.764,5.969.229.082,2.154.842,2.672,1.07,0,0,1.919,17.065-22.715,17.065s-22.094-17.269-22.094-17.269c.425-.182,1.862-.784,2.091-.866,3.464-1.251,3.327-3.478,3.764-5.969a48.287,48.287,0,0,0,.768-8.474,28.634,28.634,0,0,1-7.03-6.205,31.386,31.386,0,0,1-5.984-11.68L40,70.993a7.77,7.77,0,0,1-3.617-1.631,11.726,11.726,0,0,1-3.034-3.982A18.453,18.453,0,0,1,31.469,55.6a6.152,6.152,0,0,1,.645-2.478,4.356,4.356,0,0,1,3.132-2.083,4.613,4.613,0,0,1,3.692,1.08s-7.5-28.256,30.283-28.256S100.865,52.114,100.865,52.114Z"/><path class="a" d="M7.321,238.505C7.9,226.6,8.985,206.571,8.985,199.688c0-10.193.294-23.522.269-33.657v-.357c5.432.765,12.341,1.565,16.461,2.226l1.726.183c.484,7.469.914,14.614,1.034,19.486.148,5.984-3.385,39.631-6.025,74.551-.824,1.424-1.482,2.559-1.482,2.559a2.074,2.074,0,0,1-3.493,1.657c-.653-.624-1.634-1.556-2.1-2.094a16.924,16.924,0,0,0-2.208-2.414,20.442,20.442,0,0,0-.462,5.546c.235,6.415-.1,6.049,1.386,12.558.411,1.8.107,3.257-.36,3.594-2.978,2.157-6.53,0-8.28-2.284a14.1,14.1,0,0,1-1.889-3.464c-2.493-6.371-1.642-12.5-.1-19.162s3.743-13.27,3.857-20.111"/><path class="a" d="M44.6,435.307a4.1,4.1,0,0,0,1.122,1.023A8.357,8.357,0,0,0,50,437.3,23.911,23.911,0,0,0,65.032,432.1q-.012-1.365-.022-2.73a142.642,142.642,0,0,1-19.539.849,30.415,30.415,0,0,1-1.357,4.217A3.622,3.622,0,0,0,44.6,435.307Z"/><path class="a" d="M97.414,434.817a3.49,3.49,0,0,0,.174-.379,29.416,29.416,0,0,1-1.379-4.343,168.529,168.529,0,0,1-19.525-.721c0,.91,0,1.819-.009,2.728A23.888,23.888,0,0,0,91.7,437.3a8.355,8.355,0,0,0,4.278-.966A4.044,4.044,0,0,0,97.414,434.817Z"/><path class="b" d="M44.338,423.179a28.683,28.683,0,0,1-3.184,12.92,2.047,2.047,0,0,0,.718,2.737,2.021,2.021,0,0,0,2.736-.718,33.155,33.155,0,0,0,3.73-14.939,2,2,0,0,0-4,0Z"/><path class="b" d="M62.974,424.218l.085,12.46a2,2,0,0,0,4,0l-.085-12.46a2,2,0,1,0-4,0Z"/><path class="b" d="M93.364,423.179a33.155,33.155,0,0,0,3.73,14.939,2,2,0,1,0,3.454-2.019,28.706,28.706,0,0,1-3.184-12.92,2,2,0,0,0-4,0Z"/><path class="b" d="M74.729,424.218l-.086,12.46a2,2,0,0,0,4,0l.086-12.46a2,2,0,0,0-4,0Z"/><path class="a" d="M26.032,236.144c1.651,17.269,3.489,51.4,5.175,79.423,1.986,33,2.8,106.105,3.245,113.47,4.933,1.645,24.116,1.761,35.557-.426,0,0,.308-.059.626-.115,9.392,1.952,31.385,2.186,36.318.541.445-7.365,1.259-80.473,3.245-113.47,1.687-28.02,3.012-61.687,4.662-78.956Z"/><path class="b" d="M24.032,236.144c1.436,15.085,2.257,30.234,3.162,45.358.909,15.207,1.938,30.416,2.6,45.637.569,13.1.932,26.21,1.256,39.318q.477,19.255.83,38.512c.152,7.68.215,15.371.524,23.046.014.341.028.682.048,1.022a2.078,2.078,0,0,0,1.469,1.929,28.8,28.8,0,0,0,6.559,1.006c3.1.242,6.206.307,9.31.289a115.96,115.96,0,0,0,20.751-1.721c2.527-.476,1.457-4.332-1.063-3.857a110.015,110.015,0,0,1-19.688,1.578c-3.011.017-6.028-.045-9.031-.268a22.923,22.923,0,0,1-5.775-.884l1.468,1.928c-.4-6.678-.36-13.4-.493-20.086q-.374-18.783-.79-37.564c-.315-13.344-.669-26.688-1.2-40.026-.573-14.413-1.53-28.808-2.38-43.207-.942-15.95-1.824-31.914-3.181-47.835q-.178-2.09-.376-4.175a2.054,2.054,0,0,0-2-2,2.015,2.015,0,0,0-2,2Z"/><path class="b" d="M112.86,236.611c-1.441,15.164-2.061,30.414-2.85,45.622-.784,15.106-1.765,30.207-2.416,45.32-.563,13.072-.925,26.153-1.247,39.233q-.472,19.156-.824,38.316c-.151,7.636-.214,15.282-.521,22.913-.014.341-.029.682-.049,1.022l1.468-1.928a12.947,12.947,0,0,1-1.907.428c-.632.1-1.358.179-2.307.261-2.358.2-4.726.282-7.091.317a164.861,164.861,0,0,1-16.543-.562,64.7,64.7,0,0,1-7.407-.986c-2.512-.514-3.587,3.341-1.063,3.857a96.483,96.483,0,0,0,15.388,1.557,138.3,138.3,0,0,0,16.109-.134,25.731,25.731,0,0,0,5.885-.881,2.075,2.075,0,0,0,1.468-1.929c.394-6.636.359-13.317.491-19.962q.369-18.6.781-37.2c.313-13.315.664-26.631,1.188-39.94.565-14.341,1.5-28.664,2.249-43,.834-16.034,1.518-32.092,2.826-48.1q.172-2.118.372-4.233a2.014,2.014,0,0,0-2-2,2.044,2.044,0,0,0-2,2Z"/><path class="b" d="M68.851,279.257c0,13.184-.145,26.368-.216,39.551-.046,8.585-.043,17.171-.06,25.756q-.033,16.8-.064,33.607-.027,16.7-.02,33.4.007,5.727.038,11.454c.012,1.763-.058,3.56.084,5.319a2.31,2.31,0,0,0,1.012,1.878,2.012,2.012,0,0,0,2.737-.718,2.051,2.051,0,0,0-.718-2.736l0,0,.718.718c.128.238.251,1.373.241.641,0-.282-.018-.565-.024-.847-.022-1.012-.031-2.024-.039-3.036-.03-3.524-.037-7.049-.043-10.574q-.03-16.14.011-32.28.024-16.942.064-33.886c.016-8.135.009-16.27.044-24.4.058-13.467.189-26.933.231-40.4q0-1.721.006-3.441c0-2.574-4-2.578-4,0Z"/><path class="c" d="M23.734,465.7c-.116-.152-.226-.308-.329-.47a8.806,8.806,0,0,1-.583-7.38,24.14,24.14,0,0,1,3.788-6.607q5.481-7.488,11.587-14.491c1.587-1.819,3.38-3.716,5.753-4.164a3.566,3.566,0,0,0,1.773,3.742A8.357,8.357,0,0,0,50,437.3a23.746,23.746,0,0,0,16.62-6.614c-.028,5,.022,6.664,0,11.665a10.477,10.477,0,0,1-.438,3.606c-1.028,2.78-4.076,4.119-6.522,5.793-6.363,4.354-9.714,12.3-16.382,16.17a17.214,17.214,0,0,1-15.914.571A10.046,10.046,0,0,1,23.734,465.7Z"/><path class="c" d="M117.968,465.7c.116-.152.226-.308.329-.47a8.806,8.806,0,0,0,.583-7.38,24.163,24.163,0,0,0-3.787-6.607q-5.483-7.488-11.588-14.491c-1.587-1.819-3.38-3.716-5.753-4.164a3.566,3.566,0,0,1-1.773,3.742,8.355,8.355,0,0,1-4.278.966,23.741,23.741,0,0,1-16.619-6.614c.027,5-.023,6.664,0,11.665a10.477,10.477,0,0,0,.438,3.606c1.028,2.78,4.076,4.119,6.522,5.793,6.363,4.354,9.714,12.3,16.382,16.17a17.214,17.214,0,0,0,15.914.571A10.046,10.046,0,0,0,117.968,465.7Z"/><path class="b" d="M25.461,464.69c-1.764-2.411-1.3-5.449-.01-7.975a55.67,55.67,0,0,1,5.738-8.272q3.174-4.138,6.56-8.112c1.828-2.153,3.806-5.162,6.732-5.814l-2.46-2.46a5.828,5.828,0,0,0,3.883,6.567c2.633,1.032,5.781.761,8.511.324a25.449,25.449,0,0,0,13.62-6.852l-3.414-1.414c-.022,4.261.164,8.554-.021,12.811-.093,2.137-1.179,3.406-2.893,4.564a57.464,57.464,0,0,0-5.2,3.61c-6.048,5.129-9.634,13.856-17.855,16-4.468,1.166-10.438.41-13.5-3.383a2.014,2.014,0,0,0-2.828,0,2.048,2.048,0,0,0,0,2.829c3.11,3.849,8.921,5.341,13.677,5.006a20.359,20.359,0,0,0,12.98-6.144c3.2-3.157,5.677-6.96,8.876-10.119a31.033,31.033,0,0,1,5.264-3.946,11.806,11.806,0,0,0,4.659-4.621c1.259-2.721.856-6.043.849-8.965-.006-2.548-.017-5.095,0-7.643a2.023,2.023,0,0,0-3.415-1.414,21.427,21.427,0,0,1-9.4,5.293,20.46,20.46,0,0,1-6.214.724c-1.137-.045-4.06-.4-3.718-2.165a2.027,2.027,0,0,0-2.46-2.46c-3.578.8-5.931,3.833-8.189,6.48q-4.028,4.721-7.782,9.663c-4.04,5.3-10.39,13.142-5.44,19.906a2.059,2.059,0,0,0,2.736.718A2.016,2.016,0,0,0,25.461,464.69Z"/><path class="b" d="M119.7,466.709c4.95-6.764-1.4-14.61-5.439-19.906q-3.765-4.933-7.783-9.663c-2.258-2.647-4.61-5.682-8.189-6.48a2.027,2.027,0,0,0-2.46,2.46c.343,1.766-2.586,2.12-3.718,2.165a20.464,20.464,0,0,1-6.214-.724,21.422,21.422,0,0,1-9.4-5.293,2.022,2.022,0,0,0-3.414,1.414c.011,2.269.005,4.537,0,6.806a48.173,48.173,0,0,0,.189,7.675c.812,5.083,5.969,6.587,9.377,9.571,3.39,2.968,5.9,6.763,8.938,10.058,3.234,3.5,7.2,6.272,11.985,7.069,5.371.895,12.207-.283,15.813-4.747a2.06,2.06,0,0,0,0-2.829,2.015,2.015,0,0,0-2.828,0c-2.682,3.32-7.738,4.32-11.788,3.739-4.286-.614-7.624-3.079-10.478-6.195-2.743-3-5.056-6.375-8-9.183a30.281,30.281,0,0,0-4.907-3.7c-1.436-.9-3.228-1.881-3.928-3.522a11.018,11.018,0,0,1-.371-4.222q0-1.773,0-3.548c.008-2.323.014-4.646,0-6.97L73.667,432.1a25.449,25.449,0,0,0,13.62,6.852c2.665.427,5.737.7,8.324-.252a5.867,5.867,0,0,0,4.07-6.639l-2.46,2.46c2.862.638,4.786,3.526,6.578,5.633q3.457,4.062,6.714,8.293a57.644,57.644,0,0,1,5.642,8.083c1.343,2.572,1.9,5.682.086,8.164a2.015,2.015,0,0,0,.718,2.737A2.047,2.047,0,0,0,119.7,466.709Z"/><path class="a" d="M131.231,203.33c-.038-1.436-.06-2.67-.06-3.642,0-10.193-.294-23.522-.269-33.657,0,0,0-.126,0-.36-5.435.768-12.343,1.568-16.463,2.229l-1.593.277c-.38,7.646-.635,14.843-.457,19.392.456,5.4,4.344,37.006,7.567,69.855q-.48,3.616-.77,7.255a2.074,2.074,0,0,0,3.493,1.657c.652-.624,1.634-1.556,2.1-2.094a16.807,16.807,0,0,1,2.208-2.414,20.442,20.442,0,0,1,.462,5.546c-.235,6.415.1,6.049-1.386,12.558-.411,1.8-.107,3.257.359,3.594,2.978,2.157,6.531,0,8.281-2.284a14.1,14.1,0,0,0,1.888-3.464c2.494-6.371,1.642-12.5.1-19.162s-3.743-13.27-3.858-20.111C132.34,228.28,131.468,212.065,131.231,203.33Z"/><path class="a" d="M25.714,167.9c-5.93-.951-17.64-2.191-22.414-3.209.8-4.878,2.312-26.626,3.5-31.239.52-1.37,1.019-2.759,1.581-4.12L9.484,127.5c2.81-4.646,7.31-7.993,11.852-10.968,8.621-5.648,15.456-9.578,25.122-13.388a25.875,25.875,0,0,1,5.553-7.778,53.5,53.5,0,0,0,14.511,10.153c.3.145.832.4.93.718h5.015c.1-.32.437-.488.742-.626a50.934,50.934,0,0,0,14.7-10.245,25.742,25.742,0,0,1,5.5,7.666c9.822,3.843,16.708,7.8,25.415,13.5,4.541,2.975,9.042,6.322,11.851,10.968l1.109,1.833c.562,1.361,1.061,2.75,1.58,4.12,1.184,4.613,2.695,26.361,3.495,31.239-4.774,1.018-16.483,2.258-22.413,3.209Z"/><path class="b" d="M52.2,89.674a45.417,45.417,0,0,1-.431,5.562c-.2,1.373-.359,2.8-.7,4.153-.032.125-.065.25-.1.373-.018.056-.159.47-.055.193s-.061.124-.09.179c-.073.138-.158.265-.241.4.142-.23.109-.117-.039.034-.1.1-.2.2-.3.3-.333.315.25-.1-.187.129-.15.08-.292.175-.443.254-.337.176-.756.322-1.218.513q-.915.378-1.826.767a2.012,2.012,0,0,0-.718,2.736,2.054,2.054,0,0,0,2.737.718c.251-.107.161-.068-.039.016l.445-.187c.291-.121.582-.243.873-.361a14.993,14.993,0,0,0,2.038-.9,6.466,6.466,0,0,0,2.945-3.8,31.435,31.435,0,0,0,.755-4.315,53.57,53.57,0,0,0,.6-6.763,2,2,0,0,0-4,0Z"/><path class="b" d="M83.184,89.674a53.645,53.645,0,0,0,.651,7.135,22.97,22.97,0,0,0,.82,4.307,6.49,6.49,0,0,0,3.391,3.729c.614.289,1.259.514,1.891.764l.966.384.455.185c.486.194-.239-.105.019.007a2.067,2.067,0,0,0,2.737-.718,2.014,2.014,0,0,0-.718-2.736c-1.038-.45-2.091-.872-3.15-1.273a5.454,5.454,0,0,1-.834-.414c-.109-.064-.367-.246-.136-.067a3.619,3.619,0,0,1-.382-.35c-.04-.042-.319-.395-.157-.171s-.114-.2-.142-.255c-.061-.112-.118-.226-.17-.343.206.457.015-.012-.012-.1a28.062,28.062,0,0,1-.721-4.016,45.722,45.722,0,0,1-.508-6.072,2,2,0,0,0-4,0Z"/><path class="b" d="M120.663,242.536a130.507,130.507,0,0,0-3.454,21.9,4.125,4.125,0,0,0,5.262,4.29c2.574-.8,3.97-3.847,5.929-5.483l-3.343-.883a32.042,32.042,0,0,1,.336,6.71,53.415,53.415,0,0,1-.251,5.338c-.5,3.909-3.477,10.47,2.512,11.842s10.027-4.868,11.476-9.713c1.722-5.756.979-11.764-.3-17.526-1.509-6.8-3.831-13.484-4-20.506-.06-2.57-4.06-2.58-4,0,.132,5.566,1.5,10.965,2.867,16.331,1.3,5.111,2.7,10.35,2.431,15.672-.2,3.986-1.648,10.786-6.334,11.827a2.908,2.908,0,0,1-1.08.058,4.639,4.639,0,0,1-.591-.171c-.517-.147-.367-.283-.2.036-.317-.589.143-2.155.311-2.909a46.283,46.283,0,0,0,.673-18.052c-.288-1.617-2.306-1.749-3.343-.883-1.545,1.29-2.7,3.024-4.19,4.4-.2.183-.134.24.023.093-.033.031-.258.017-.259-.033,0-.267.077.412.041-.041a23.973,23.973,0,0,1,.392-4.271A141.217,141.217,0,0,1,124.52,243.6c.588-2.5-3.268-3.572-3.857-1.063Z"/><path class="a" d="M81.732,118.335c4.72-4.691,7.812-10.373,11.3-16.049a25.16,25.16,0,0,0-5.123-6.921,50.934,50.934,0,0,1-14.7,10.245c-.305.138-.644.306-.742.626a1.752,1.752,0,0,0,.318,1.073c.306.465,1.313,1.751,2.892,3.683C77.746,113.523,80.343,116.625,81.732,118.335Z"/><path class="a" d="M58.187,118.335c-4.72-4.691-7.812-10.373-11.3-16.049a25.16,25.16,0,0,1,5.123-6.921,53.5,53.5,0,0,0,14.511,10.153c.3.145.832.4.93.718.085.276-.286.984-.446,1.225-.384.577-1.185,1.6-2.764,3.531C62.173,113.523,59.576,116.625,58.187,118.335Z"/><path class="b" d="M83.146,119.749a65.381,65.381,0,0,0,9.2-12.469c.665-1.1,1.324-2.2,1.991-3.289a3.006,3.006,0,0,0,.662-1.97,5.612,5.612,0,0,0-.876-1.913,26.615,26.615,0,0,0-4.8-6.157,2.035,2.035,0,0,0-2.829,0,48.139,48.139,0,0,1-8.115,6.548,50.416,50.416,0,0,1-4.463,2.56c-1.369.692-3.119,1.17-3.413,2.911a4.124,4.124,0,0,0,1.136,3.14c.924,1.214,1.889,2.4,2.856,3.58,1.933,2.36,3.9,4.693,5.823,7.059a2.012,2.012,0,0,0,2.828,0,2.046,2.046,0,0,0,0-2.828c-1.647-2.025-3.325-4.024-4.984-6.039-.881-1.07-1.76-2.141-2.622-3.225-.2-.249-1.084-1.09-1.073-1.421l-.273,1.009q-.427.355.024.092l.342-.157c.345-.163.689-.326,1.031-.5q1.047-.519,2.067-1.089,2.1-1.173,4.09-2.541a53.052,53.052,0,0,0,7.575-6.276H86.494A24.235,24.235,0,0,1,91.3,103.3v-2.019c-3.337,5.443-6.447,11.082-10.986,15.644C78.5,118.748,81.327,121.577,83.146,119.749Z"/><path class="b" d="M59.6,116.921c-4.539-4.562-7.649-10.2-10.986-15.644V103.3a24.271,24.271,0,0,1,4.81-6.517H50.6a51.907,51.907,0,0,0,7.7,6.311q1.962,1.327,4.029,2.489,1,.563,2.019,1.085c.333.17.668.333,1,.5.313.156.668.583.379.081l-.273-1.009c-.013-.305-.2.258-.326.439-.207.3-.4.542-.548.731-.841,1.075-1.711,2.127-2.578,3.181-1.739,2.114-3.5,4.211-5.227,6.334a2.058,2.058,0,0,0,0,2.828,2.014,2.014,0,0,0,2.828,0c2-2.46,4.048-4.886,6.055-7.343.888-1.087,1.782-2.173,2.621-3.3a4.687,4.687,0,0,0,1.175-2.871c-.069-1.8-1.915-2.421-3.257-3.112q-2.242-1.155-4.378-2.5a47.867,47.867,0,0,1-8.392-6.668,2.036,2.036,0,0,0-2.828,0,26.5,26.5,0,0,0-4.7,5.991,8.246,8.246,0,0,0-.936,1.813,2.767,2.767,0,0,0,.626,2.236c.668,1.094,1.326,2.193,1.991,3.289a65.381,65.381,0,0,0,9.2,12.469C58.591,121.577,61.42,118.749,59.6,116.921Z"/><path class="b" d="M68.105,107.208c0,4.84-.337,9.706-.131,14.544a2.042,2.042,0,0,0,2,2,2.02,2.02,0,0,0,2-2c-.206-4.838.127-9.7.131-14.544a2,2,0,0,0-4,0Z"/><path class="b" d="M114.974,169.828c7.443-1.182,15.031-1.661,22.413-3.209a2.047,2.047,0,0,0,1.4-2.46c-.029-.18-.133-.912-.063-.39-.048-.362-.092-.724-.135-1.087-.1-.874-.194-1.748-.283-2.623-.229-2.242-.436-4.486-.644-6.729-.448-4.81-.871-9.625-1.446-14.421-.211-1.753-.413-3.518-.76-5.25a23.05,23.05,0,0,0-3.387-7.7c-3.9-6.035-10.219-9.939-16.17-13.687A131.125,131.125,0,0,0,94.7,101.4a2.013,2.013,0,0,0-2.46,1.4,2.048,2.048,0,0,0,1.4,2.46,121.178,121.178,0,0,1,18.245,9.229c5.6,3.433,11.868,6.963,15.9,12.294a20.976,20.976,0,0,1,3.757,7.67,36.622,36.622,0,0,1,.642,4.213c.557,4.581.965,9.18,1.393,13.775.4,4.255.671,8.559,1.351,12.781l1.4-2.46c-7.381,1.548-14.971,2.027-22.414,3.209a2.016,2.016,0,0,0-1.4,2.46,2.05,2.05,0,0,0,2.461,1.4Z"/><path class="b" d="M128.9,166.031c-.04,19.106.241,38.2,1.178,57.286q.374,7.594.754,15.188c.125,2.562,4.125,2.577,4,0-.446-9.207-.943-18.411-1.33-27.62-.368-8.761-.351-17.519-.456-26.286-.074-6.189-.159-12.378-.146-18.568.005-2.574-3.995-2.578-4,0Z"/><path class="b" d="M17.715,246.178c1.116,4.844.938,9.694,1.057,14.625a26.646,26.646,0,0,0,.2,3.876c.02.115.058.55.05.125,0,.02-.006.037-.006.056,0,.076.072.065-.126.045-.4-.04.233.171,0,.017-1.719-1.152-2.73-3.193-4.3-4.508-1.038-.866-3.056-.734-3.343.883a49.212,49.212,0,0,0-.358,11.647,33.526,33.526,0,0,0,.668,4.719,34.6,34.6,0,0,1,.714,3.392,3.84,3.84,0,0,1-.067,1.257c.018-.079.25-.323.181-.283a2.711,2.711,0,0,1-.762.318c-1.812.438-3.7-1.119-4.7-2.468a16.748,16.748,0,0,1-2.727-7.487c-.748-5.2.5-10.494,1.746-15.515,1.505-6.053,3.234-12.092,3.382-18.372.061-2.575-3.939-2.574-4,0C5.036,250.6-1.861,262.11.486,274.334c1,5.212,4.071,11.512,10.048,12.054,2.375.216,5.1-.926,5.613-3.43s-.536-5.121-.974-7.576a35.579,35.579,0,0,1-.383-5.247,37.975,37.975,0,0,1,.308-7.775l-3.343.883c1.974,1.648,3.35,4.648,5.93,5.483a4.127,4.127,0,0,0,5.264-4.288c-.342-6.468.088-12.962-1.377-19.323-.577-2.508-4.435-1.446-3.857,1.063Z"/><path class="b" d="M26.245,165.971c-7.442-1.182-15.032-1.661-22.413-3.209l1.4,2.46C6.561,156.95,6.854,148.493,7.8,140.17c.216-1.9.35-3.185.68-5a19.553,19.553,0,0,1,2.714-6.622c3.483-5.666,9.414-9.235,14.906-12.7A126.045,126.045,0,0,1,46.515,105.26a2.062,2.062,0,0,0,1.4-2.46,2.013,2.013,0,0,0-2.46-1.4,126.522,126.522,0,0,0-18.842,9.413C20.663,114.438,14.151,118.2,9.737,123.7a31.682,31.682,0,0,0-2.376,3.441,30.247,30.247,0,0,0-2.322,5.319,23.012,23.012,0,0,0-.906,4.93c-.61,4.651-1.02,9.33-1.456,14-.243,2.608-.481,5.217-.74,7.824-.1,1.03-.207,2.061-.324,3.09q-.07.615-.148,1.23c-.061.489.029-.192-.018.129-.024.164-.049.329-.075.493a2.038,2.038,0,0,0,1.4,2.46c7.381,1.548,14.969,2.027,22.413,3.209a2.062,2.062,0,0,0,2.46-1.4,2.015,2.015,0,0,0-1.4-2.46Z"/><path class="b" d="M7.254,166.031c.04,19.106-.241,38.2-1.178,57.286q-.373,7.594-.755,15.188c-.125,2.573,3.876,2.566,4,0,.447-9.207.944-18.411,1.331-27.62.367-8.761.351-17.519.456-26.286.074-6.189.159-12.378.146-18.568,0-2.574-4-2.578-4,0Z"/><path class="d" d="M39.66,128.142c2.427.76,56.572.3,61.48-.507.589-3.478,1.726-17.885,2.593-21.274a34.163,34.163,0,0,1,11.324,5.966c.4,3.847-.687,21.909-.687,24.847,0,9.142-2.439,38.627-1.978,50.395.849,10.051,13.58,110.831,11.8,141.537a1.05,1.05,0,0,1-.95.93c-7.635,1.371-41.2,1.816-51.253,1.816,0,0-45.835-.741-51.208-1.852a1.085,1.085,0,0,1-.965-1c-1.6-40.042,8.914-131.2,8.66-141.436-.313-12.656-2.713-40.66-2.713-49.8,0-2.939-.951-21.716-.449-25.481,2.25-2,9.261-5.874,11.542-6.4C37.378,108.005,38.917,124.022,39.66,128.142Z"/><path class="b" d="M39.129,130.071a11.325,11.325,0,0,0,2.55.256c1.495.072,2.992.1,4.488.126,4.626.08,9.253.084,13.88.074,10.626-.022,21.257-.119,31.88-.421a76.048,76.048,0,0,0,9.745-.542,1.926,1.926,0,0,0,1.4-1.4c.595-3.6.853-7.268,1.231-10.895a75.862,75.862,0,0,1,1.361-10.38l-2.46,1.4a28.353,28.353,0,0,1,10.442,5.453l-.586-1.415c.405,4.149-.016,8.465-.187,12.617-.165,4.03-.453,8.066-.5,12.1-.115,10.085-.966,20.165-1.477,30.235-.386,7.611-1.045,15.384-.233,22.984.623,5.83,1.31,11.652,1.971,17.477q1.548,13.626,3.02,27.259,1.7,15.9,3.2,31.812c.968,10.4,1.854,20.8,2.534,31.219.543,8.329,1.008,16.684.968,25.034-.008,1.573-.036,3.146-.1,4.717a3.255,3.255,0,0,0-.049,1.02c.068.161-.331.718.247-.27.648-1.108.325-.311.139-.4-.085-.042-.391.062-.5.08-.233.038-.35.048-.025.006q-.267.035-.534.066c-.395.047-.792.089-1.188.128-4.389.432-8.806.6-13.211.774-10.43.4-20.871.584-31.308.655-4.9.033-9.794-.089-14.692-.192-9.079-.192-18.16-.408-27.235-.767-3.444-.136-6.893-.271-10.328-.551-.543-.045-1.084-.1-1.625-.155-.113-.012-.226-.028-.34-.041.485.054.186.038.187.025,0,.03-.448-.111-.485-.084.223-.163.518,1.375.474.164q-.012-.335-.022-.669-.026-.8-.045-1.6-.039-1.6-.055-3.206c-.106-10.1.29-20.213.811-30.3.6-11.6,1.413-23.194,2.315-34.776.858-11.013,1.8-22.019,2.774-33.023.753-8.543,1.539-17.085,2.229-25.633a121.667,121.667,0,0,0,.558-15.039c-.5-11.664-1.451-23.305-2.129-34.959-.484-8.328-.667-16.682-.913-25.02-.114-3.85-.477-7.893,0-11.729l-.586,1.414a32.733,32.733,0,0,1,5.355-3.44,22.982,22.982,0,0,1,5.3-2.448l-2.46-1.4c.107.452.171.916.238,1.376.025.169.048.339.072.509-.059-.427.019.148.03.235q.086.657.166,1.315c.273,2.235.524,4.472.778,6.708.458,4.035.814,8.114,1.523,12.115a2.017,2.017,0,0,0,2.46,1.4,2.045,2.045,0,0,0,1.4-2.46c-.642-3.628-1-7.688-1.447-11.643a91.256,91.256,0,0,0-1.36-10.616,2.031,2.031,0,0,0-2.46-1.4,29.442,29.442,0,0,0-7.11,3.33c-1.219.7-2.425,1.432-3.575,2.242-1.213.854-2.208,1.5-2.362,3.09-.435,4.476-.045,9.116.1,13.6.294,8.969.531,17.932,1.091,26.889.4,6.418.845,12.833,1.245,19.251.32,5.146.732,10.321.765,15.48.035,5.373-.643,10.8-1.1,16.146-.839,9.852-1.739,19.7-2.592,29.549-1.039,12-2.03,24.011-2.886,36.028-.84,11.8-1.568,23.613-1.974,35.437-.177,5.179-.292,10.361-.279,15.543.006,2.268.037,4.536.107,6.8.045,1.463-.045,3,1.249,3.987a4.381,4.381,0,0,0,2.248.755c3.06.409,6.169.508,9.25.65,4.641.212,9.286.363,13.93.5q12.494.363,24.99.575c6.881.124,13.769-.028,20.648-.158,10.349-.2,20.844-.178,31.142-1.332A23.864,23.864,0,0,0,123.6,332a3.242,3.242,0,0,0,2.618-3.348c.1-1.577.122-3.164.138-4.745.04-3.993-.063-7.988-.219-11.978-.395-10.144-1.139-20.274-1.977-30.39-.938-11.315-2.025-22.618-3.182-33.912q-1.594-15.558-3.351-31.1c-.836-7.455-1.7-14.908-2.534-22.364-.221-1.975-.449-3.949-.638-5.927a95.107,95.107,0,0,1,.06-12.371c.424-11.675,1.36-23.326,1.778-35,.311-8.723.908-17.488.855-26.215,0-.717-.008-1.438-.073-2.152-.155-1.712-1.817-2.641-3.141-3.522a36.567,36.567,0,0,0-9.667-4.541,2.024,2.024,0,0,0-2.46,1.4,80,80,0,0,0-1.439,10.828c-.222,2.111-.433,4.223-.658,6.334-.093.88-.189,1.76-.294,2.639-.038.322-.077.643-.12.965.063-.471-.059.373-.081.508l1.4-1.4c-.439.07.635-.054.013-.006-.214.017-.428.041-.642.058-.562.045-1.125.077-1.689.107-1.668.089-3.338.147-5.007.2-4.809.151-9.619.236-14.429.306-10.352.149-20.711.24-31.064.106-1.814-.023-3.628-.051-5.44-.121-.585-.023-1.171-.046-1.755-.093-.188-.015-.38-.049-.568-.054.386.011.524.11.164,0C37.717,125.489,36.659,129.348,39.129,130.071Z"/><path class="b" d="M117.41,245.626c-7.549.017-15.144.16-22.685.49a3.487,3.487,0,0,0-3.079,1.609c-.608,1.056-.435,2.409-.442,3.582-.014,2.612-.02,5.227.137,7.836a24.817,24.817,0,0,0,1.211,7.375c.981,2.554,3.014,3.675,5.57,4.4a27.926,27.926,0,0,0,21.975-3.068c2.163-1.382.159-4.846-2.019-3.454a23.971,23.971,0,0,1-16.786,3.146,15.447,15.447,0,0,1-3.632-1,4.685,4.685,0,0,1-.94-.57c-.348-.318.169.322-.088-.122-.094-.162-.185-.324-.264-.494a19.829,19.829,0,0,1-1-5.741c-.164-2.419-.18-4.845-.171-7.268a14.481,14.481,0,0,0,.011-2.6v-.194q.06-.782-.739.571c.029.021.118-.012.151,0a1.937,1.937,0,0,0,.51-.009c3.541-.07,7.081-.167,10.621-.251,3.884-.091,7.771-.222,11.657-.231,2.573-.006,2.578-4.006,0-4Z"/><path class="a" d="M102.451,143.528c-1.592,0-15.55-.022-20.666-.022-.009,4.5-.018,7.588-.027,12.091,2.977,0,16.7-.045,20.693-.045Z"/><path class="b" d="M102.451,141.528c-6.888,0-13.777-.022-20.666-.022a2.03,2.03,0,0,0-2,2q-.012,6.045-.027,12.091a2.029,2.029,0,0,0,2,2c6.9,0,13.8-.044,20.693-.045a2.029,2.029,0,0,0,2-2V143.528c0-2.574-4-2.578-4,0v12.024l2-2c-6.9,0-13.795.044-20.693.045l2,2q.012-6.045.027-12.091l-2,2c6.889,0,13.778.021,20.666.022C105.025,145.528,105.029,141.528,102.451,141.528Z"/><path class="c" d="M57.23,3.04a30.95,30.95,0,0,0-15.519,8.354l3.556,1.889c-5.075,2.729-9.087,8.7-10.877,13.957-2,5.867-2.591,14.222-.2,24.094a4.33,4.33,0,0,1,1.06-.3,4.562,4.562,0,0,1,3.954,1.34c8.926-8.54,16.7-13.608,24.551-19.772.045.522,1.717,4.7,2.108,4.861.523.213,6.158-3.316,10.218-5.821.374.066,6.643,1.545,6.643,1.545a23.927,23.927,0,0,1,7.517,4.4,42.95,42.95,0,0,1,10.481,14.684,4.525,4.525,0,0,1,4.644-1.042c2.294-5.891,2.63-14.429-.267-22.53-2.037-5.695-7.116-11.663-10.723-13.326l-5.208-3.745C84.727,5.554,78.02,2.35,68.554,2.061A45.691,45.691,0,0,0,57.23,3.04Z"/><path class="b" d="M97.754,67.558a17.424,17.424,0,0,1-1.016,4.71c-.091.278-.2.553-.278.833-.037.125-.2.479.022-.033-.142.33-.3.654-.458.975a39.6,39.6,0,0,1-3.411,5.483c-2.979,4.084-7.021,8.411-12.122,9.607-2.5.588-1.445,4.446,1.063,3.858C87.622,91.567,92.33,86.605,95.9,81.772c3.084-4.176,5.639-8.907,5.854-14.214.1-2.574-3.9-2.57-4,0Z"/><path class="b" d="M38.26,67.277a35.83,35.83,0,0,0,7.631,17.156c4.293,5.083,9.975,8.76,16.669,9.483a2.012,2.012,0,0,0,2-2,2.045,2.045,0,0,0-2-2c-5.751-.621-10.555-4.3-14.123-8.65-3.518-4.29-5.377-9.651-6.32-15.052a2.017,2.017,0,0,0-2.461-1.4,2.045,2.045,0,0,0-1.4,2.46Z"/><path class="b" d="M102.28,53.529a2.533,2.533,0,0,1,3.608.475,5.272,5.272,0,0,1,.508,2.666,15.709,15.709,0,0,1-.222,3.22c-.7,3.829-2.651,8.412-6.9,9.174a2.018,2.018,0,0,0-1.4,2.461,2.044,2.044,0,0,0,2.46,1.4c6.446-1.155,9.52-8.436,10.006-14.279.248-2.992.013-6.42-2.576-8.36a6.649,6.649,0,0,0-8.312.418,2.016,2.016,0,0,0,0,2.829,2.045,2.045,0,0,0,2.829,0Z"/><path class="b" d="M40.353,50.7a6.652,6.652,0,0,0-8.312-.418c-2.591,1.935-2.824,5.372-2.576,8.36.485,5.842,3.56,13.124,10.006,14.279a2.056,2.056,0,0,0,2.46-1.4,2.018,2.018,0,0,0-1.4-2.461c-4.253-.762-6.2-5.345-6.9-9.174a15.557,15.557,0,0,1-.225-3.041,6.046,6.046,0,0,1,.436-2.723,2.519,2.519,0,0,1,3.683-.6,2.057,2.057,0,0,0,2.829,0,2.017,2.017,0,0,0,0-2.829Z"/><path class="b" d="M93.363,17.1a17.361,17.361,0,0,1,5.668,4.99,25.777,25.777,0,0,1,4.442,8.036,31.8,31.8,0,0,1,.367,19.438c-.788,2.457,3.073,3.509,3.857,1.064a35.578,35.578,0,0,0-.517-22.013,30.753,30.753,0,0,0-5.2-9.2,20.208,20.208,0,0,0-6.6-5.768c-2.308-1.112-4.339,2.336-2.018,3.454Z"/><path class="b" d="M76.092,29.284c-3.166,1.944-6.287,4.005-9.565,5.758-.247.132-.5.257-.746.383s-.07.093.042,0a1.426,1.426,0,0,1-.224.081c-.184-.281,1.995,1.506,1.785.717-.024-.093-.12-.176-.155-.268-.1-.254-.255-.5-.37-.748a12.674,12.674,0,0,1-1.18-3.131c-.261-1.662-2.31-1.692-3.342-.883C54.36,37.44,46.057,43.2,38.639,50.143c-1.884,1.763.949,4.587,2.828,2.829,7.417-6.939,15.722-12.7,23.7-18.956l-3.343-.882a16.83,16.83,0,0,0,1.681,4.3c.71,1.481,1.814,2.448,3.516,1.792a32.22,32.22,0,0,0,4.887-2.672c2.079-1.253,4.136-2.541,6.2-3.811,2.19-1.344.183-4.806-2.019-3.454Z"/><path class="b" d="M82.188,35.116c7.861,3.085,13.135,10.2,16.577,17.664a2.015,2.015,0,0,0,2.736.717,2.046,2.046,0,0,0,.718-2.736,47.06,47.06,0,0,0-7.472-11.519,31.533,31.533,0,0,0-5.387-4.857,28.5,28.5,0,0,0-6.109-3.127,2.016,2.016,0,0,0-2.46,1.4,2.048,2.048,0,0,0,1.4,2.461Z"/><path class="b" d="M46.509,10.551c-7.114,2.715-12.091,9.815-14.285,16.89-2.434,7.85-1.849,16.455.016,24.352.591,2.505,4.449,1.445,3.857-1.063-1.66-7.029-2.207-14.6-.2-21.622,1.669-5.829,5.756-12.443,11.67-14.7a2.057,2.057,0,0,0,1.4-2.461,2.014,2.014,0,0,0-2.46-1.4Z"/><path class="b" d="M90.891,10.622A25.669,25.669,0,0,0,73.654.529,43.859,43.859,0,0,0,51.71,2.616,33.037,33.037,0,0,0,40.3,9.98c-1.83,1.816,1,4.645,2.828,2.829a30.7,30.7,0,0,1,18.05-8.442c6.189-.769,13.154-.592,18.86,2.178a20.073,20.073,0,0,1,7.4,6.1,2.061,2.061,0,0,0,2.737.717,2.014,2.014,0,0,0,.717-2.736Z"/><path class="b" d="M64.035,77.417a12.853,12.853,0,0,0,6.188,1.442,10.166,10.166,0,0,0,6.334-1.906,2,2,0,0,0,0-2.829,2.064,2.064,0,0,0-2.829,0c.685-.533-.073.019-.293.134-.17.09-.637.23-.027.033-.171.055-.336.129-.508.185-.217.069-.436.128-.658.18a4.557,4.557,0,0,0-.765.144c.028-.069.422-.047-.015,0-.139.014-.279.025-.419.034-.337.022-.674.031-1.011.029-.3,0-.6-.012-.906-.033-.138-.009-.276-.02-.414-.034l-.236-.026q-.234-.029.156.02a3.852,3.852,0,0,1-1.329-.3c-.186-.056-.368-.122-.552-.185-.464-.159.4.193-.021,0q-.342-.162-.676-.337a2,2,0,0,0-2.019,3.453Z"/><path class="b" d="M69,63.108a28.145,28.145,0,0,1,.658,3.011l-.072-.532A1.809,1.809,0,0,1,69.6,66l.071-.532a1,1,0,0,1-.046.187l.2-.478a.71.71,0,0,1-.066.121l.313-.405a.7.7,0,0,1-.1.1l.405-.313a1.932,1.932,0,0,1-.238.126l.477-.2a1.749,1.749,0,0,1-.4.117l.532-.071a1.585,1.585,0,0,1-.377,0l.531.071c-.142-.02-.282-.054-.424-.073a2.244,2.244,0,0,0-1.541.2,2,2,0,0,0-.717,2.737,1.916,1.916,0,0,0,1.2.919c.364.049.718.14,1.089.157a3.565,3.565,0,0,0,1.656-.4,2.49,2.49,0,0,0,1.35-1.629,3.889,3.889,0,0,0-.015-1.7c-.164-.97-.388-1.931-.637-2.883a2,2,0,0,0-2.461-1.4,2.031,2.031,0,0,0-1.2.919,2.106,2.106,0,0,0-.2,1.542Z"/><path class="b" d="M53.518,54.458c-.5,1.635-.175,5.394,2.921,5.714,4.092-.025,4.309-4.57,2.932-6.707C58.243,51.716,54.927,50.988,53.518,54.458Z"/><path class="b" d="M86.286,54.459c.5,1.634.175,5.393-2.921,5.713-4.092-.025-4.31-4.57-2.932-6.707C81.561,51.716,84.877,50.988,86.286,54.459Z"/></svg>