<?xml version="1.0" encoding="utf-8"?>
<!-- Uploaded to: SVG Repo, www.svgrepo.com, Generator: SVG Repo Mixer Tools -->
<svg width="800px" height="800px" viewBox="-54.13 0 468.295 468.295" xmlns="http://www.w3.org/2000/svg"><defs><style>.a{fill:#d9d9d9;}.b{fill:#ffffff;}.c{fill:#211715;}.d{fill:#4d4544;}.e,.f{fill:none;stroke:#d9d9d9;stroke-linecap:round;stroke-linejoin:round;stroke-width:4px;}.f{stroke-dasharray:3.968 7.936;}.g{fill:#e2e2e2;}.h{fill:#6dbf6b;}.i{fill:#a0a0a0;}</style></defs><path class="a" d="M4.485,288.588a72.523,72.523,0,0,0,5.8-9.179,24.586,24.586,0,0,0,2.624-11.1c-.02-3.7-.471-7.407-.72-11.094q-.37-5.454-.65-10.912c-.349-6.9-.594-13.806-.568-20.714.01-2.9.069-5.8.231-8.7.068-1.211.155-2.421.272-3.628.123-1.268.181-1.775.356-2.821a24.1,24.1,0,0,1,1.333-4.734,66.812,66.812,0,0,0,2.283-7.384A176.3,176.3,0,0,0,18.9,180.261q1.3-8.821,2.144-17.7c.113-1.162.227-2.323.323-3.486.011-.129.016-.261.034-.388-.008.058-.057.343.007.043.06-.28.133-.555.215-.828a17.086,17.086,0,0,1,.662-1.809c1.288-3.006,3.256-5.653,4.659-8.607a96.98,96.98,0,0,0,6.664-21c.774-3.538,1.188-7.3,2.483-10.691.913-2.393,3.055-5.22,5.944-4.936a6.017,6.017,0,0,1,3.488,1.922c2.214,2.157,5.612-1.234,3.394-3.394-2.59-2.523-6.14-4.068-9.761-2.974-3.5,1.059-6,4.01-7.365,7.292-1.462,3.515-1.92,7.394-2.723,11.1-.788,3.635-1.662,7.254-2.736,10.817a65.525,65.525,0,0,1-3.9,10.2c-1.5,3.037-3.447,5.778-4.747,8.921a25.774,25.774,0,0,0-1.428,7.676q-.417,4.3-.928,8.582c-1.387,11.588-3.019,23.48-7.2,34.436-1.521,3.988-1.618,8.663-1.806,12.874-.29,6.508-.172,13.034.048,19.541.252,7.448.682,14.89,1.216,22.323.274,3.809.964,7.86.271,11.653a27.019,27.019,0,0,1-4.389,9.76c-1.012,1.55-2.083,3.062-3.136,4.584a2.424,2.424,0,0,0,.861,3.284,2.449,2.449,0,0,0,3.284-.861Z"/><path class="a" d="M82.142,330.03c.119-.1.24-.2.361-.3-.5.4,0,0,.089-.061.284-.2.566-.407.853-.605.762-.525,1.538-1.028,2.319-1.523,1.891-1.2,3.812-2.352,5.738-3.494,3.366-2,6.8-3.893,10.1-6a233.546,233.546,0,0,0,27.784-20.365,133.547,133.547,0,0,0,11.055-10.855c2.074-2.281-1.311-5.686-3.394-3.394-13.317,14.654-29.911,25.815-46.867,35.819-3.867,2.281-7.986,4.475-11.433,7.381a2.419,2.419,0,0,0,0,3.394,2.451,2.451,0,0,0,3.394,0Z"/><path class="a" d="M190,82.716a66.361,66.361,0,0,1,6.45-4.362,10.894,10.894,0,0,1,5.638-1.256,6.335,6.335,0,0,1,4.643,1.511,8.266,8.266,0,0,1,2.283,4.452c.8,4.312-1.628,8.753-3.876,12.242a143.487,143.487,0,0,1-8.638,12.009,58.523,58.523,0,0,1-9.408,9.884,2.412,2.412,0,0,0,0,3.394,2.462,2.462,0,0,0,3.394,0,58.446,58.446,0,0,0,9.408-9.884,136.671,136.671,0,0,0,9.963-13.891c2.752-4.491,4.9-9.865,3.749-15.2a11.284,11.284,0,0,0-9.439-9.166,17.2,17.2,0,0,0-8.233.87c-3,1.159-5.808,3.321-8.356,5.252a2.477,2.477,0,0,0-.861,3.284,2.416,2.416,0,0,0,3.283.861Z"/><path class="a" d="M190,127.216c1.778-1.324,3.636-2.563,5.52-3.73a9.677,9.677,0,0,1,5.177-1.312,6.02,6.02,0,0,1,4.093,1.121,7.168,7.168,0,0,1,2.243,4.039c.826,3.853-1.359,7.91-3.351,11.045a126.837,126.837,0,0,1-7.927,11.066,55.361,55.361,0,0,1-8.663,9.161,2.414,2.414,0,0,0,0,3.394,2.459,2.459,0,0,0,3.394,0,55.926,55.926,0,0,0,8.8-9.331,120.12,120.12,0,0,0,9.118-12.8c2.5-4.175,4.424-9.243,3.18-14.147a10.556,10.556,0,0,0-9.18-8.257,15.7,15.7,0,0,0-7.433.946,35.3,35.3,0,0,0-7.392,4.66,2.475,2.475,0,0,0-.861,3.284,2.417,2.417,0,0,0,3.283.861Z"/><path class="a" d="M190,169.376c1.631-1.216,3.338-2.354,5.07-3.42a9.093,9.093,0,0,1,4.942-1.2,5.106,5.106,0,0,1,3.689,1.14,6.746,6.746,0,0,1,1.948,3.777c.612,3.51-1.334,7.124-3.143,9.981a116.357,116.357,0,0,1-7.311,10.214,53.288,53.288,0,0,1-8.1,8.621,2.415,2.415,0,0,0,0,3.394,2.457,2.457,0,0,0,3.394,0,53.94,53.94,0,0,0,8.238-8.789,110.349,110.349,0,0,0,8.483-11.923c2.315-3.886,4.065-8.547,3-13.108a10.031,10.031,0,0,0-8.464-7.989,14.979,14.979,0,0,0-7.189.809,32.021,32.021,0,0,0-6.974,4.351,2.475,2.475,0,0,0-.861,3.284,2.416,2.416,0,0,0,3.283.861Z"/><path class="b" d="M70.9,2.428h94.352a23.529,23.529,0,0,1,23.529,23.529V261.6a23.527,23.527,0,0,1-23.527,23.527H70.9A23.527,23.527,0,0,1,47.378,261.6V25.955A23.527,23.527,0,0,1,70.9,2.428Z"/><path class="c" d="M162.155,2.428c0,.052-2.489.833-2.489,3.257V9.374a9.582,9.582,0,0,1-9.567,9.585c-9.117.013-22.786.032-32.017.05-9.231-.018-22.9-.037-32.016-.05A9.58,9.58,0,0,1,76.5,9.374V5.685a3.767,3.767,0,0,0-2.264-3.257"/><path class="c" d="M160.944.355a11.4,11.4,0,0,0-2.518,1.966c-1.2,1.552-1.16,3.316-1.16,5.184a11.017,11.017,0,0,1-.665,4.912,7.252,7.252,0,0,1-2.883,3.157,8.088,8.088,0,0,1-4.286.986l-5.623.008-12.356.018q-11.437.018-22.875.006L96.1,16.573l-5.82-.008A37.124,37.124,0,0,1,85,16.5a7.248,7.248,0,0,1-6.089-6.6c-.112-2.076.357-4.413-.458-6.381a5.783,5.783,0,0,0-1.562-2.173,7.513,7.513,0,0,0-.959-.712c-.245-.152-.829-.577,0,.1a2.469,2.469,0,0,0-3.394,0,2.418,2.418,0,0,0,0,3.394,8.367,8.367,0,0,0,1.049.7c.279.167-.289-.264,0-.014a3.044,3.044,0,0,1,.337.325.941.941,0,0,1,.2.521c.256,1.749-.13,3.632.12,5.42A11.963,11.963,0,0,0,80.6,20.032c3.485,1.736,7.4,1.33,11.178,1.335l12.724.019q11.945.018,23.887,0l12.873-.02,5.9-.008a26.2,26.2,0,0,0,5.626-.313,12.075,12.075,0,0,0,8.847-8.493c.6-2.171.331-4.364.429-6.577a1.63,1.63,0,0,1,.1-.664c.007-.015.473-.458.224-.275.3-.22.69-.32.979-.541a2.48,2.48,0,0,0,.861-3.284,2.416,2.416,0,0,0-3.283-.861Z"/><path class="c" d="M165.257,282.729h-93.5a23.8,23.8,0,0,1-7.785-1.164,21.4,21.4,0,0,1-12.209-11c-2.857-5.937-1.986-13.542-1.986-19.982V26.969a21.932,21.932,0,0,1,6.459-16.2A21.258,21.258,0,0,1,70.912,4.828c.842-.006,1.684,0,2.526,0H159.69c4.5,0,8.9-.222,13.209,1.418a21.379,21.379,0,0,1,13.488,19.945c0,1.886,0,3.772,0,5.658V247.236c0,4.918.083,9.844,0,14.762a21.351,21.351,0,0,1-21.126,20.731c-3.087.026-3.094,4.826,0,4.8a26.224,26.224,0,0,0,25.723-22.8,51.35,51.35,0,0,0,.207-6.458V43.02c0-5.655.032-11.31,0-16.964A26.3,26.3,0,0,0,174.175,1.617c-4.622-1.743-9.381-1.589-14.2-1.589H73.147c-1.009,0-2.022-.021-3.031.013A26.179,26.179,0,0,0,53.11,7.116,26.528,26.528,0,0,0,44.978,26.7V259.976a28.54,28.54,0,0,0,3.42,14.488,26.443,26.443,0,0,0,23.245,13.065h93.614C168.346,287.529,168.351,282.729,165.257,282.729Z"/><path class="d" d="M103.44,13.434q9.264,0,18.528-.01c3.089,0,3.094-4.8,0-4.8q-9.264,0-18.528.01c-3.088,0-3.094,4.8,0,4.8Z"/><path class="d" d="M132.724,13.834c3.6,0,3.609-5.6,0-5.6s-3.609,5.6,0,5.6Z"/><path class="e" d="M64.5,106.833l2,0"/><path class="f" d="M74.43,106.839c21.948,0,73.359,0,91.266,0"/><path class="e" d="M169.667,106.833h2"/><path class="e" d="M64.5,194.122c.315,0,1,0,2,0"/><path class="f" d="M74.43,194.128c21.948.005,73.359,0,91.266,0"/><path class="e" d="M169.667,194.123h2"/><path class="g" d="M61.811,33.891c.08,13.307.417,45.06.488,59.235a4.447,4.447,0,0,0,4.589,4.265c13.356.019,44.167.095,58.32.112a4.448,4.448,0,0,0,4.6-4.3c-.05-14.95-.3-46.47-.364-59.431a4.447,4.447,0,0,0-4.6-4.267c-13.291.013-44.854.062-58.443.074A4.447,4.447,0,0,0,61.811,33.891Z"/><path class="g" d="M61.764,120.558c.079,13.307.417,45.06.488,59.234a4.445,4.445,0,0,0,4.589,4.265c13.355.019,44.167.1,58.32.113a4.45,4.45,0,0,0,4.6-4.3c-.05-14.949-.3-46.469-.365-59.431a4.445,4.445,0,0,0-4.6-4.266c-13.291.012-44.855.062-58.443.074A4.446,4.446,0,0,0,61.764,120.558Z"/><path class="a" d="M138.731,126.858c10.315.033,20.629,0,30.943,0,3.089,0,3.094-4.8,0-4.8-10.314,0-20.628.033-30.943,0-3.089-.01-3.093,4.79,0,4.8Z"/><path class="a" d="M138.731,139.361c5.874,0,11.748-.13,17.622-.132,3.089,0,3.094-4.8,0-4.8-5.874,0-11.748.129-17.622.132-3.088,0-3.094,4.8,0,4.8Z"/><path class="h" d="M138.731,213.969c10.315.034,20.629,0,30.943,0,3.089,0,3.094-4.8,0-4.8-10.314,0-20.628.034-30.943,0-3.089-.01-3.093,4.79,0,4.8Z"/><path class="h" d="M138.731,226.472c5.874,0,11.748-.13,17.622-.132,3.089,0,3.094-4.8,0-4.8-5.874,0-11.748.129-17.622.132-3.088,0-3.094,4.8,0,4.8Z"/><path class="a" d="M138.731,39.285c10.315.033,20.629,0,30.943,0,3.089,0,3.094-4.8,0-4.8-10.314,0-20.628.033-30.943,0-3.089-.01-3.093,4.79,0,4.8Z"/><path class="a" d="M138.731,51.788c6.072,0,12.143-.13,18.215-.132,3.089,0,3.094-4.8,0-4.8-6.072,0-12.143.129-18.215.132-3.088,0-3.094,4.8,0,4.8Z"/><path class="g" d="M61.811,209.225c.08,13.307.417,45.06.488,59.234a4.447,4.447,0,0,0,4.589,4.265c13.356.019,44.167.1,58.32.113a4.449,4.449,0,0,0,4.6-4.3c-.05-14.95-.3-46.47-.364-59.431a4.446,4.446,0,0,0-4.6-4.266c-13.291.012-44.854.061-58.443.073A4.448,4.448,0,0,0,61.811,209.225Z"/><path class="a" d="M138.95,180.548c7.315.1,14.633,0,21.949,0a2.435,2.435,0,0,0,2.4-2.4V156.309a2.435,2.435,0,0,0-2.4-2.4c-7.316,0-14.634.1-21.949,0a2.433,2.433,0,0,0-2.4,2.4v21.839c0,3.089,4.8,3.094,4.8,0V156.309l-2.4,2.4c7.315.1,14.633,0,21.949,0l-2.4-2.4v21.839l2.4-2.4c-7.316,0-14.634.1-21.949,0C135.86,175.708,135.858,180.508,138.95,180.548Z"/><path class="a" d="M138.731,93.881c7.555.1,15.113,0,22.668,0a2.435,2.435,0,0,0,2.4-2.4V68.926a2.435,2.435,0,0,0-2.4-2.4c-7.555,0-15.113.1-22.668,0a2.433,2.433,0,0,0-2.4,2.4V91.481c0,3.088,4.8,3.093,4.8,0V68.926l-2.4,2.4c7.555.1,15.113,0,22.668,0l-2.4-2.4V91.481l2.4-2.4c-7.555,0-15.113.1-22.668,0C135.641,89.04,135.64,93.84,138.731,93.881Z"/><path class="h" d="M160.576,244.99c-9.249.009-17.967.014-21.626-.014v21.839c3.669.029,13.394.023,22.663.014C159.168,260.1,158.205,250.986,160.576,244.99Z"/><path class="h" d="M160.576,242.59c-7.209.007-14.418.04-21.626-.014a2.433,2.433,0,0,0-2.4,2.4v21.839a2.437,2.437,0,0,0,2.4,2.4c7.554.057,15.109.021,22.663.014a2.419,2.419,0,0,0,2.314-3.038c-2.268-6.342-3.515-14.1-1.037-20.563a2.418,2.418,0,0,0-1.676-2.952,2.455,2.455,0,0,0-2.953,1.676,26.942,26.942,0,0,0-1.372,11.282,43.571,43.571,0,0,0,2.409,11.833l2.315-3.038c-7.554.007-15.109.043-22.663-.014l2.4,2.4V244.976l-2.4,2.4c7.208.054,14.417.021,21.626.014C163.664,247.387,163.669,242.587,160.576,242.59Z"/><path class="b" d="M140.769,257.969c1.255,1.256,2.485,2.538,3.739,3.8a2.438,2.438,0,0,0,3.394,0q3.881-3.807,7.688-7.69a2.4,2.4,0,0,0-3.4-3.394q-3.8,3.888-7.687,7.69H147.9c-1.254-1.257-2.483-2.539-3.738-3.8a2.4,2.4,0,0,0-3.395,3.394Z"/><path class="i" d="M116.881,87.378c0-7.936-5.047-15.379-13.6-15.628,1.387-.37,7.628-6.522,7.628-14.012,0-5.312-4.413-14.1-15.464-14.109s-15.462,8.8-15.462,14.109c0,7.49,6.241,13.642,7.628,14.012-5.8-.13-12.866,7.692-12.866,15.628Z"/><path class="i" d="M74.694,174.044h0c0-7.935,7.065-15.757,12.865-15.627-1.387-.37-7.628-6.523-7.628-14.013,0-5.311,4.413-14.1,15.463-14.108s15.463,8.8,15.463,14.108c0,7.49-6.24,13.643-7.627,14.013,8.557.248,13.6,7.692,13.6,15.627Z"/><path class="i" d="M74.741,262.711c0-7.935,7.066-15.758,12.866-15.628-1.387-.369-7.628-6.522-7.628-14.012,0-5.312,4.412-14.1,15.462-14.108s15.464,8.8,15.464,14.108c0,7.49-6.241,13.643-7.628,14.012,8.557.249,13.6,7.693,13.6,15.628Z"/><path class="b" d="M288.056,465.814c-16.832-19.46-34.277-19.81-52.759-29.041-16.988-8.484-25.265-26.087-32.335-43.711-2.918-7.275-5.884-14.809-5.654-22.644s6.1-19.168,13.088-24.885l.522-.427c-12.67-23.5-21.191-42.781-34.029-70.485-2.291-4.942-6.08-13.749-6.49-19.129-.706-9.256,3.185-13.121,8.881-13.664,1.7-.162,9.623,1.02,14.955,9.9,12.943,21.544,23.894,40.743,33.5,56.831-1.635-12.959,10.174-12.4,15.886-10.858,4.919,1.33,8.244,4.534,11.182,8.7,2.587,3.665,5.044,7.249,7.523,10.9-.854-9,2.885-13.226,9.6-14.574,3.586-.72,8.867.145,11.671,3.415,1.643,1.915,3.2,3.751,4.7,5.552,4.3-4.656,11.77-5.052,17.593-2.6,5.767,2.424,10.258,7.085,14.426,11.75,11.211,12.544,21.645,26.576,25.417,42.971,4.929,21.423-.8,50.761,11.889,68.71Z"/><path class="c" d="M223.355,377.785a102.071,102.071,0,0,0-8.133-29.4c-1.886-4.242-4.267-8.267-6.413-12.382q-3.442-6.6-6.734-13.282c-4.436-8.988-8.683-18.067-12.89-27.163q-3.49-7.549-6.966-15.1c-2.045-4.433-4.191-8.831-6-13.367-1.57-3.931-3.272-8.3-3.469-12.424a16.263,16.263,0,0,1,.6-5.8,6.415,6.415,0,0,1,2.177-3.255c.337-.274-.444.288.17-.116.13-.085.261-.17.395-.249.192-.115.8-.421.764-.407a12.523,12.523,0,0,1,2.051-.56c.388-.069-.027-.037.452-.056.158-.006.315-.008.474,0s.33.03.5.036c.491.019-.472-.082-.128-.02.134.024.27.041.4.068a15.68,15.68,0,0,1,7.844,4.034A24.718,24.718,0,0,1,192.8,254q2.334,3.89,4.649,7.788,4.419,7.439,8.79,14.905c5.221,8.9,10.407,17.831,15.658,26.718,8.074,13.666,16.148,27.509,25.792,40.148q1.47,1.926,2.993,3.809a2.415,2.415,0,0,0,3.394,0,2.456,2.456,0,0,0,0-3.394c-9.523-11.711-17.71-25.617-25.585-38.853-5.3-8.9-10.5-17.854-15.729-26.791q-4.35-7.431-8.727-14.846-2.334-3.945-4.681-7.88a78.375,78.375,0,0,0-4.671-7.472c-3.868-5.079-10.6-9.761-17.307-8.44a11.06,11.06,0,0,0-7.918,6.03c-1.893,4.047-1.879,8.829-.961,13.13a71.807,71.807,0,0,0,4.675,13.316c2.112,4.886,4.429,9.688,6.657,14.522,4.474,9.707,8.93,19.422,13.54,29.065,4.431,9.269,9.023,18.46,13.851,27.529a98.827,98.827,0,0,1,5.617,11.889,109.362,109.362,0,0,1,4.41,14.991c.546,2.518,1,5.058,1.3,7.618a2.474,2.474,0,0,0,2.4,2.4,2.415,2.415,0,0,0,2.4-2.4Z"/><path class="c" d="M230.1,304.547a7.123,7.123,0,0,1,.814-2.353,5.624,5.624,0,0,1,1.228-1.4,6.594,6.594,0,0,1,1.8-.928c.325-.108.656-.2.99-.277.211-.049.423-.089.636-.13a2.29,2.29,0,0,1,.4-.062,16.642,16.642,0,0,1,9.622,1.576c4.28,2.162,6.867,6.186,9.521,10.006,3,4.323,5.95,8.684,8.9,13.043,3.668,5.421,7.349,10.832,11.1,16.195a2.463,2.463,0,0,0,3.283.861,2.42,2.42,0,0,0,.861-3.284c-6.925-9.9-13.561-20-20.468-29.911-3.111-4.463-6.318-9.055-11.439-11.372a22.473,22.473,0,0,0-11.771-1.868c-4.968.617-9.087,3.5-10.1,8.623a2.462,2.462,0,0,0,1.676,2.952,2.423,2.423,0,0,0,2.953-1.676Z"/><path class="c" d="M264.746,312.561c.543-3.1,2-5.436,4.914-6.685a12.042,12.042,0,0,1,9.4-.106,10.981,10.981,0,0,1,3.983,3.4q2.12,2.484,4.207,4.993c2.66,3.2,5.27,6.45,7.789,9.766,3.2,4.211,6.27,8.518,9.259,12.881,1.735,2.533,5.9.135,4.145-2.423q-8.424-12.3-17.93-23.775c-2.973-3.578-5.69-7.725-10.177-9.465a16.7,16.7,0,0,0-11.95.1,12.876,12.876,0,0,0-8.272,10.04,2.47,2.47,0,0,0,1.677,2.953,2.421,2.421,0,0,0,2.952-1.677Z"/><path class="c" d="M290.126,313.244c3.151-3.2,7.965-3.82,12.2-2.808,5.115,1.223,9.285,4.728,12.883,8.4A135.6,135.6,0,0,1,335.277,344.6a71.068,71.068,0,0,1,9.59,28.659c1.075,9.972.95,20.026,1.783,30.017.879,10.547,2.711,21.592,8.906,30.451a2.464,2.464,0,0,0,3.283.861,2.421,2.421,0,0,0,.861-3.284c-5.491-7.853-7.3-17.52-8.151-26.892-.938-10.3-.77-20.68-1.863-30.971a76.8,76.8,0,0,0-2.958-15.122,78.646,78.646,0,0,0-6.989-15.6,121.181,121.181,0,0,0-9.811-14.218,161.111,161.111,0,0,0-11.33-13.056c-4.278-4.368-9.416-8.471-15.537-9.758-5.753-1.209-12.087-.147-16.329,4.164-2.169,2.2,1.223,5.6,3.394,3.394Z"/><path class="c" d="M289.753,464.117a68.657,68.657,0,0,0-13.708-12.145,78.6,78.6,0,0,0-13.762-7.1c-9.284-3.818-19.214-6.344-27.977-11.351-9.128-5.214-15.64-13.619-20.62-22.709a149.3,149.3,0,0,1-6.873-14.616c-2.4-5.788-4.919-11.649-6.285-17.784a28.132,28.132,0,0,1-.693-9.658,29.32,29.32,0,0,1,2.09-7.279,37.078,37.078,0,0,1,10.168-14.246,2.418,2.418,0,0,0,0-3.394,2.452,2.452,0,0,0-3.394,0,39.976,39.976,0,0,0-9.972,13.157c-2.338,4.761-3.987,9.91-3.816,15.263.221,6.871,2.541,13.405,5.051,19.727,2.115,5.325,4.3,10.633,6.782,15.8,4.731,9.819,10.789,19.315,19.493,26.074,8.565,6.651,19.17,9.8,29.21,13.5a91.844,91.844,0,0,1,15.625,7.154,63.789,63.789,0,0,1,15.287,13.005c2.032,2.335,5.415-1.072,3.394-3.394Z"/></svg>