<?xml version="1.0" encoding="utf-8"?>
<!-- Uploaded to: SVG Repo, www.svgrepo.com, Generator: SVG Repo Mixer Tools -->
<svg width="800px" height="800px" viewBox="-26.95 0 425.161 425.161" xmlns="http://www.w3.org/2000/svg"><defs><style>.a{fill:#908b8a;}.b{fill:#ffffff;}.c{fill:#211715;}.d{fill:#a095c1;}.e{fill:#b3b3b3;}.f{fill:#89705d;}.g{fill:#645d5c;}</style></defs><path class="a" d="M306.586,422.238c-4.513-2.031-7.559-7.476-4.537-11.242,1.3-1.624,8.426-4.16,10.1-4.787,3.622-1.354,9.135-5.684,9-5.551,3.45-2.4,5.863-3.985,8.08-4.79,1.765-.641,4.205-.507,5.423,1.153s1.242,5.8,1.34,5.877a1.2,1.2,0,0,0,1.194.653,48.245,48.245,0,0,0,7.245-.026c3.968-.2,9.132-1.224,10.08-2.849l1.477-2.531a7.686,7.686,0,0,1,3.861,5.036c.366,1.67.658,3.017.886,4.659.465,3.335.973,6.885-.654,10.105-2.165,4.26-21.734,4.866-31,4.972-4.585.052-14.892.451-19.5.1A8.983,8.983,0,0,1,306.586,422.238Z"/><path class="b" d="M354.642,398.056a26.924,26.924,0,0,1-1.894-8.7s0-.077,0-.211c-5.019.261-12.964.34-18.324.364.044.175.068.281.068.281a18.35,18.35,0,0,1,.157,7.233c1.211,1.652,1.242,5.8,1.34,5.877a1.2,1.2,0,0,0,1.194.653,48.245,48.245,0,0,0,7.245-.026c4.439-.227,10.375-1.478,10.229-3.45C355.649,400.846,355.3,399.906,354.642,398.056Z"/><path class="b" d="M327.566,191.417c3.5.022,6.917.022,11.213.022,5.026,0,22.216-.388,27.1-.388h1.2c.972,7.188,1.95,17.127,1.564,24.512-.874,16.673-5.266,30.134-7.774,39.959-2.728,10.686-3.835,29.629-4.533,40.8-1.419,22.695-.218,38.686-1.351,56.1-.308,4.731.525,25.887.525,36.529-5.545.542-21.3.567-25.641.567-1.213-5.5-5-48.974-6.666-60.347-1.39-9.509-3.267-18.392-3.7-28-.722-16.068-5.874-55.018-6.64-85.609a206.222,206.222,0,0,1,.915-24.342C319.445,191.336,323.558,191.391,327.566,191.417Z"/><path class="c" d="M364.344,186.077a190.157,190.157,0,0,1,2.165,19.128,103.379,103.379,0,0,1-1.19,22.8,204.837,204.837,0,0,1-4.756,20.915,136.689,136.689,0,0,0-3.739,18.015c-.915,6.965-1.469,13.975-1.945,20.982-.508,7.471-.956,14.945-1.145,22.432-.189,7.47-.16,14.941-.192,22.412-.028,6.708-.27,13.385-.574,20.084-.211,4.635.024,9.313.13,13.948.14,6.107.313,12.214.39,18.322q.024,1.917.027,3.834c0,2.574,4,2.578,4,0-.007-11.281-.645-22.557-.592-33.838.028-5.738.509-11.474.579-17.216.09-7.312.025-14.624.124-21.936.2-14.764,1.036-29.61,2.633-44.293a121.7,121.7,0,0,1,3.274-18.4c1.758-6.567,3.566-13.117,4.861-19.8a111.232,111.232,0,0,0,2.316-23.566,178.207,178.207,0,0,0-1.919-21.033q-.276-1.933-.589-3.861a2.016,2.016,0,0,0-2.461-1.4,2.048,2.048,0,0,0-1.4,2.46Z"/><path class="c" d="M312.364,185.536a229.235,229.235,0,0,0-1.549,24.913c-.026,8.6.488,17.218,1.077,25.8,1.1,16.057,2.784,32.064,4.291,48.086.525,5.568,1.056,11.144,1.322,16.732.461,9.691,2.414,19.188,3.794,28.769.025.175.159,1.15.088.619.059.439.115.878.171,1.317q.188,1.49.359,2.981.426,3.672.808,7.348c.624,5.885,1.213,11.773,1.8,17.661.971,9.651,1.687,19.395,3.182,28.984.068.437.14.873.233,1.3.545,2.514,4.4,1.45,3.857-1.064-.1-.45-.171-.905-.241-1.36-.047-.306-.091-.612-.134-.918-.011-.077-.083-.6-.041-.29.039.286-.049-.373-.063-.486-.253-1.958-.476-3.919-.693-5.881-.6-5.424-1.148-10.853-1.7-16.283-1.083-10.725-2.042-21.475-3.4-32.17-1.015-8-2.675-15.908-3.526-23.931-.665-6.269-.853-12.6-1.416-18.879-1.384-15.432-3.054-30.836-4.245-46.285-1.333-17.3-2.161-34.567-.516-51.875q.242-2.549.531-5.091a2.012,2.012,0,0,0-2-2,2.047,2.047,0,0,0-2,2Z"/><path class="c" d="M355.515,386.95c-8.483.805-17.128.567-25.641.567-2.574,0-2.578,4,0,4,8.513,0,17.158.238,25.641-.567a2.055,2.055,0,0,0,2-2,2.014,2.014,0,0,0-2-2Z"/><path class="c" d="M350.748,389.354a27.461,27.461,0,0,0,1.845,8.891,2,2,0,1,0,3.857-1.063c-.432-1.229-.836-2.468-1.148-3.733-.176-.711-.313-1.427-.431-2.15-.032-.228-.03-.2.009.073-.013-.1-.025-.206-.036-.308-.017-.155-.032-.31-.044-.465-.034-.414-.05-.829-.052-1.245a2,2,0,0,0-4,0Z"/><path class="c" d="M332.566,390.32c.093.544.173,1.09.262,1.635-.121-.742.01.109.03.3q.043.426.067.854a15.733,15.733,0,0,1,0,1.71c-.019.333-.053.664-.087,1-.027.219-.021.172.02-.14-.012.089-.026.178-.04.267q-.043.276-.095.551a2.151,2.151,0,0,0,.2,1.541,2,2,0,0,0,3.655-.478,18.863,18.863,0,0,0,.345-4.447,33.732,33.732,0,0,0-.5-3.85,2,2,0,0,0-.919-1.195,2,2,0,0,0-2.938,2.259Z"/><path class="c" d="M307.6,420.511c-2.454-1.156-5.5-3.975-4.631-7.032a3,3,0,0,1,.825-1.4c-.277.254.194-.132.229-.154.269-.17.541-.334.819-.488a35.132,35.132,0,0,1,3.913-1.8,55.459,55.459,0,0,0,7.435-3.2c2.093-1.219,3.98-2.695,5.974-4.054l-2.938-2.259v0c-.341,1.563,1.408,3.323,2.938,2.259s3.057-2.126,4.652-3.084a11.849,11.849,0,0,1,3.72-1.723,2.387,2.387,0,0,1,2.672.89,9.733,9.733,0,0,1,.691,3.5,3.8,3.8,0,0,0,.857,2.6c1.278,1.31,3.572,1.108,5.258,1.11a45.932,45.932,0,0,0,10.952-1.073,10.67,10.67,0,0,0,4.443-1.952,13.206,13.206,0,0,0,2.31-3.5l-2.736.718c2.855,1.567,3.222,4.69,3.7,7.629.466,2.885,1.072,6.325-.16,9.1a5.794,5.794,0,0,1-.284.542c.231-.4.147-.182.033-.055-.077.086-.165.16-.248.239-.345.33.355-.213-.076.052-.242.15-.482.3-.736.426a4.329,4.329,0,0,1-.882.374,31.274,31.274,0,0,1-5.551,1.331c-8.635,1.425-17.47,1.293-26.193,1.5-2.933.069-5.867.139-8.8.152-2.565.011-5.767.374-8.182-.648a2.069,2.069,0,0,0-2.736.718,2.013,2.013,0,0,0,.717,2.736c2.753,1.164,5.572,1.177,8.511,1.193s5.87-.045,8.805-.112c4.643-.1,9.29-.135,13.931-.322a115.082,115.082,0,0,0,15.856-1.5c3.5-.634,8.01-1.5,9.523-5.151,1.584-3.821.942-8.1.26-12.054-.674-3.914-1.745-7.558-5.465-9.6a2.036,2.036,0,0,0-2.736.717l-1.186,2.033c-.084.144-.162.3-.253.434s.2-.139-.084.088a10.053,10.053,0,0,1-3.375,1.183,42.16,42.16,0,0,1-10.565.784c-.4-.015-.808-.077-1.206-.07-.441.007-.288-.172-.209.059.024.07.369.343.44.486s.139.837.118.389c-.011-.22-.036-.441-.056-.661a18.769,18.769,0,0,0-.683-4.048c-1.08-3.339-4.219-4.774-7.575-4.125-3.454.667-6.679,3.291-9.487,5.244l2.938,2.258v0c.344-1.575-1.4-3.305-2.938-2.258-1.625,1.107-3.168,2.318-4.838,3.365a34.38,34.38,0,0,1-6.155,2.912A36.914,36.914,0,0,0,302,408.474a7.232,7.232,0,0,0-3.021,7.392c.584,3.555,3.42,6.6,6.6,8.1C307.892,425.056,309.925,421.609,307.6,420.511Z"/><path class="b" d="M312.725,32.384c-3.944-1.29-8.569-3.975-10.343-6.821l-1.352-2.169a41.2,41.2,0,0,0-1.9,9.26,36.627,36.627,0,0,0,.083,8c.185,4.931.456,11.775-3.883,14.515a4.578,4.578,0,0,0-1.946,2.238c-.913,2.524,1.268,3.481,2.673,4.8a7.527,7.527,0,0,1,1.925,3.08c.32,2.653,1.486,8.582,3.4,11.67a9.423,9.423,0,0,0,5.494,4.424c3.819,1.112,8.949,1.259,12.192.144a1.635,1.635,0,0,1,2,.835,9.567,9.567,0,0,1,2.049,5.447l.942,6.223c6.034-2.6,9.569-3.5,16.218-5.815,3.646-1.272,9.457-1.987,13.047-1.256l-.391-1.74L352,81.1a16.092,16.092,0,0,1,2.14-9.274c-5.736-1.93-10.239-5.41-11.882-9.447,0,0-1.633-4.646-1.367-5.134a12.963,12.963,0,0,0,1.649-6.783,5.322,5.322,0,0,0-2.739-4.7,5.01,5.01,0,0,0-3.885-.143,6.038,6.038,0,0,0-1.336.711c-6.918-3.683-12.788-8.133-16.555-13.123-.915-.028-1.756-.051-1.756-.051A15.722,15.722,0,0,1,312.725,32.384Z"/><path class="d" d="M367.873,191.051c.544-4.975-4.585-23.478-5.45-28.477-.989-5.715-.143-10.967,1.038-16.605.412-1.968,1.34-6.135,1.719-8.416,1.771-11.316,3.156-17.11,2.547-27.026-.482-7.861-7.823-18.142-13.077-23.185-3.308-1.294-10.238-.567-14.378.877-7.17,2.5-10.719,3.35-17.686,6.457l-.085.037c-.819.66-.6,4.173-1.243,6.773-1.124,4.565-2.947,9.778-3.793,12.173-2.14,5.952-4,11.17-6.574,16.7-2.73,5.866-2.725,10.079-1.506,16.553,2.245,11.917,2.785,37.413,3.861,44.29,10.968.234,16.162.234,25.533.234,5.026,0,22.216-.388,27.1-.388"/><path class="e" d="M368.5,30.678a39.707,39.707,0,0,1,.731,11.03c.093,5.657-2.075,13.067-5.347,17.2-2.975,3.761-4.631,5.364-6.975,8.747a33.416,33.416,0,0,0-2.764,4.172c-5.736-1.93-10.239-5.41-11.882-9.447,0,0-1.633-4.646-1.367-5.134a12.963,12.963,0,0,0,1.649-6.783,5.322,5.322,0,0,0-2.739-4.7,5.01,5.01,0,0,0-3.885-.143,6.038,6.038,0,0,0-1.336.711c-6.918-3.683-12.788-8.133-16.555-13.123-.915-.028-1.756-.051-1.756-.051-4.136-.318-11.533-3.816-13.891-7.6l-1.352-2.169c2.491-7.374,6.951-12.088,12.45-16.147,12.487-9.217,37.291-5.658,43.691,5.738C363.274,16.911,366.963,23.448,368.5,30.678Z"/><path class="c" d="M355.576,70.188a23.663,23.663,0,0,1-3.876-1.506,24.693,24.693,0,0,1-3.549-2.151c-.286-.208.046.043-.117-.088-.121-.1-.242-.194-.361-.294-.233-.2-.463-.395-.686-.6a15.983,15.983,0,0,1-1.285-1.331c-.093-.109-.183-.219-.274-.329-.351-.429.212.322-.1-.131-.155-.228-.316-.45-.463-.684s-.28-.461-.407-.7q-.114-.21-.217-.426c-.047-.1-.239-.543-.053-.1a2.056,2.056,0,0,0-2.461-1.4,2.019,2.019,0,0,0-1.4,2.46c2.438,5.861,8.336,9.347,14.179,11.132a2.019,2.019,0,0,0,2.46-1.4,2.043,2.043,0,0,0-1.4-2.46Z"/><path class="c" d="M299.256,70.655a11.605,11.605,0,0,0,4.506-.556,7.185,7.185,0,0,0,2.716-1.577,2,2,0,0,0-2.828-2.828,3.239,3.239,0,0,1-.286.25l.405-.312a5.4,5.4,0,0,1-1.173.666l.477-.2a8.534,8.534,0,0,1-2.1.554l.532-.072a11.724,11.724,0,0,1-2.247.077,2.012,2.012,0,0,0-2,2,2.045,2.045,0,0,0,2,2Z"/><path class="c" d="M297.132,32.654c-.537,5.42.938,10.99-.247,16.355a8.951,8.951,0,0,1-1.159,3.011A10.709,10.709,0,0,1,293.3,54.2a5.213,5.213,0,0,0-.946,7.371,25.83,25.83,0,0,0,2.291,2.055,5.5,5.5,0,0,1,1.139,1.557,4.906,4.906,0,0,1,.4,1.58,42.819,42.819,0,0,0,1.683,7.148,15.9,15.9,0,0,0,4.173,6.992,13.535,13.535,0,0,0,7.363,3.06,27.44,27.44,0,0,0,5.387.3,24.085,24.085,0,0,0,2.442-.255,6.237,6.237,0,0,0,2.056-.453c.456-.273.345-.011.146-.151-.223-.156.042.18.056.215a5.441,5.441,0,0,0,.521.743,8.013,8.013,0,0,1,1.1,3.446,2.061,2.061,0,0,0,2,2,2.012,2.012,0,0,0,2-2,12.962,12.962,0,0,0-2.1-6.11,4.4,4.4,0,0,0-2.418-2.118c-1.393-.4-2.7.291-4.064.513a21.217,21.217,0,0,1-8.4-.442,8.188,8.188,0,0,1-5.469-4.484,27.807,27.807,0,0,1-2.2-7.11c-.185-.9-.384-2.054-.482-2.769a8.156,8.156,0,0,0-2.214-4.2c-.7-.749-1.856-1.287-2.414-2.148-.434-.668.108-1.377.67-1.839a14.367,14.367,0,0,0,2.81-2.574,11.181,11.181,0,0,0,1.573-3.216c1.945-6.042.112-12.5.723-18.664a2.014,2.014,0,0,0-2-2,2.044,2.044,0,0,0-2,2Z"/><path class="c" d="M312.871,28.081c3.541,8.9,11.738,15.051,19.872,19.533,2.256,1.244,4.276-2.21,2.018-3.454a55.7,55.7,0,0,1-11.316-7.955,26.533,26.533,0,0,1-6.717-9.187,2.062,2.062,0,0,0-2.461-1.4,2.014,2.014,0,0,0-1.4,2.46Z"/><path class="c" d="M301.132,32.654a33.375,33.375,0,0,1,5.147-15.438,32.482,32.482,0,0,1,9.629-9.2c7.884-4.9,18.566-4.994,27.242-2.4a23.416,23.416,0,0,1,10.585,6.039,13.829,13.829,0,0,1,1.529,2.028c.793,1.221,2.25,1.91,3.337,2.881a23.573,23.573,0,0,1,4.924,6.24,33.13,33.13,0,0,1,3.81,15.925c.008,5.845-.732,11.74-3.67,16.906-1.582,2.783-3.914,5.1-5.91,7.581a49.931,49.931,0,0,0-5.559,8.018,17.322,17.322,0,0,0-2.156,10.135c.213,1.472.634,2.934.96,4.386.563,2.511,4.42,1.448,3.857-1.063-.294-1.311-.7-2.64-.89-3.969a13.811,13.811,0,0,1,1.683-7.47c2.68-5.171,6.979-9.183,10.355-13.856,3.361-4.652,5.045-10.948,5.217-16.631.171-5.641-.044-11.161-1.874-16.563a28.464,28.464,0,0,0-11.167-14.945l.717.717C353.784,3.064,341.6.038,332.06,0a36.533,36.533,0,0,0-15.878,3.308A34.836,34.836,0,0,0,304.3,13.182c-4.42,5.649-6.457,12.407-7.169,19.472a2.014,2.014,0,0,0,2,2,2.045,2.045,0,0,0,2-2Z"/><path class="c" d="M300.655,26.573a17.913,17.913,0,0,0,7,5.816,23.185,23.185,0,0,0,8.622,2.773,2.017,2.017,0,0,0,2-2,2.04,2.04,0,0,0-2-2c-.142-.012-.283-.028-.424-.042.252.025.275.043.011,0-.289-.053-.577-.107-.864-.173-.6-.137-1.191-.307-1.775-.5-.633-.208-1.259-.439-1.872-.7.334.142-.237-.109-.244-.112-.151-.068-.3-.138-.451-.208q-.5-.236-.984-.489c-.617-.322-1.223-.667-1.813-1.037-.3-.19-.6-.386-.894-.59q-.2-.137-.39-.278c-.1-.072-.343-.258-.12-.085a14.052,14.052,0,0,1-1.464-1.3c-.193-.2-.371-.408-.555-.615-.343-.385.2.325-.073-.094-.083-.126-.17-.249-.252-.377a2,2,0,1,0-3.454,2.019Z"/><path class="c" d="M305.479,52.418a2.59,2.59,0,0,1,.507-.117l-.532.071a5.894,5.894,0,0,1,1.507.03l-.532-.072a6.712,6.712,0,0,1,1.654.433l-.478-.2a2.861,2.861,0,0,1,.612.346l-.4-.313a1.379,1.379,0,0,1,.2.2l-.313-.4.019.026a2.2,2.2,0,0,0,1.2.919,2.043,2.043,0,0,0,1.541-.2,2.017,2.017,0,0,0,.919-1.2,1.943,1.943,0,0,0-.2-1.541,3.812,3.812,0,0,0-1-.987,2.9,2.9,0,0,0-.461-.259,7.986,7.986,0,0,0-1.737-.592,10.04,10.04,0,0,0-1.885-.218,5.021,5.021,0,0,0-1.676.224,2.136,2.136,0,0,0-1.195.919,2,2,0,0,0,.717,2.737,2,2,0,0,0,1.542.2Z"/><path class="c" d="M309.771,64.951a4.558,4.558,0,0,1,.638.679l-.312-.405a6.352,6.352,0,0,1,.771,1.34l-.2-.478a5.717,5.717,0,0,1,.41,1.437l-.071-.532c0,.028.007.056.01.084a2.222,2.222,0,0,0,.586,1.414,2,2,0,0,0,2.828,0,1.932,1.932,0,0,0,.586-1.414,7.76,7.76,0,0,0-.264-1.428,9.858,9.858,0,0,0-.573-1.415,6.026,6.026,0,0,0-.565-.942,6.724,6.724,0,0,0-1.014-1.168,2.128,2.128,0,0,0-1.414-.586,2.037,2.037,0,0,0-1.415.586,2.009,2.009,0,0,0-.585,1.414,1.976,1.976,0,0,0,.585,1.414Z"/><path class="c" d="M334.991,48.846a2.856,2.856,0,0,1,1.461-1.292A3.074,3.074,0,0,1,338.8,47.5c1.677.7,1.852,2.743,1.727,4.4a12.491,12.491,0,0,1-6.242,9.386c-2.224,1.294-.213,4.752,2.019,3.454,4.921-2.865,8.63-8.564,8.236-14.4-.206-3.06-1.933-6.017-5.064-6.81a7.239,7.239,0,0,0-7.933,3.3c-1.339,2.206,2.118,4.219,3.453,2.019Z"/><path class="b" d="M167.313,67.549c6.393,5.19,10.8,8.213,20.072,19.468a65.9,65.9,0,0,1,6.981,10.9c2.4,4.845-.66,12.382-.66,12.382a16.223,16.223,0,0,0-.926,6.777c.063,5.221-26.9,14.406-28.381,11.666a33.845,33.845,0,0,0-3.37-6.4,1.7,1.7,0,0,0-2.137-.694c-3.26,1.429-8.583,1.714-12.629.888a9.788,9.788,0,0,1-6.064-4.111c-2.239-3.033-3.951-9.07-4.508-11.789a7.813,7.813,0,0,0-2.255-3.023c-1.567-1.251-3.905-2.055-3.175-4.745a4.755,4.755,0,0,1,1.824-2.482c4.257-3.2,3.395-10.265,2.783-15.352a37.947,37.947,0,0,1-.766-8.274,43.226,43.226,0,0,1,1.043-9.185s1.533-15.217,18.445-5.14A114.746,114.746,0,0,1,167.313,67.549Z"/><path class="e" d="M207.678,81.989A29.2,29.2,0,0,0,207.733,76c-.181-11.641-5.112-23.472-15.126-28.747-7.68-11.258-33.768-12.71-45.906-2.006-5.45,4.807-9.716,10.224-11.582,18.369,5.009-.1,13.628,2.037,19.318,4.072,2.907,1.04,4.763,1.792,6.756,3.635a22.726,22.726,0,0,1,6.555,11.575,2.447,2.447,0,0,0,2.347,1.993c.436.01.823.074,1.205.054a5.155,5.155,0,0,1,2.185-1.862,5.224,5.224,0,0,1,4.049-.2,5.549,5.549,0,0,1,3.27,4.632,13.555,13.555,0,0,1-1.13,7.269c.822,2.206,1.916,5.135,1.916,5.135,2.072,4.045,7.064,7.252,13.2,8.738a34.978,34.978,0,0,1,2.494-4.584c2.129-3.726,3.7-5.542,6.455-9.718A29.272,29.272,0,0,0,207.678,81.989Z"/><path class="c" d="M153.906,69.613a16.114,16.114,0,0,1,5.119,2.461,18.676,18.676,0,0,1,3.983,4.557,19.531,19.531,0,0,1,2.694,6.227,5.018,5.018,0,0,0,1.537,2.93,5.84,5.84,0,0,0,3.8,1.155,2,2,0,0,0,0-4c-.313-.017-.633-.024-.945-.056.281.029-.289-.122-.065,0-.276-.145-.09.006-.282-.22.159.187-.07-.3-.019-.078a24.764,24.764,0,0,0-.939-3.314,25.441,25.441,0,0,0-3.46-6.279,21.034,21.034,0,0,0-4.659-4.645,21.3,21.3,0,0,0-5.7-2.591,2,2,0,1,0-1.063,3.857Z"/><path class="c" d="M143.421,64.1l.011-.089-.071.532a7.46,7.46,0,0,1,.513-1.882l-.2.478a8.048,8.048,0,0,1,.985-1.687l-.313.405a8.033,8.033,0,0,1,1.376-1.388l-.405.313a7.544,7.544,0,0,1,1.6-.948l-.478.2c.082-.034.165-.068.248-.1a2.175,2.175,0,0,0,1.2-.919,2.044,2.044,0,0,0,.2-1.541,2.022,2.022,0,0,0-.92-1.2,1.947,1.947,0,0,0-1.541-.2,9.478,9.478,0,0,0-4.108,2.95,10.62,10.62,0,0,0-1.5,2.57,9.38,9.38,0,0,0-.6,2.5,2,2,0,0,0,.586,1.414,2,2,0,0,0,2.828,0,2.331,2.331,0,0,0,.586-1.414Z"/><path class="c" d="M148.224,66.745a14.416,14.416,0,0,1,1.828-1.853c.095-.08.191-.158.287-.236.236-.193-.044-.019-.051.039.014-.1.454-.328.545-.39q.555-.377,1.142-.7c.37-.2.749-.388,1.133-.565.346-.16-.231.085,0,0,.093-.035.185-.074.277-.109q.314-.118.632-.224.6-.2,1.219-.34c.217-.051.436-.1.656-.137.122-.022.245-.038.367-.061.283-.054-.5.061-.015,0a2.051,2.051,0,0,0,2-2c-.043-.975-.887-2.135-2-2a16.578,16.578,0,0,0-10.85,5.752,2.046,2.046,0,0,0,0,2.828,2.022,2.022,0,0,0,2.828,0Z"/><path class="c" d="M195.858,106.913a18.554,18.554,0,0,1-7-3.118c-.244-.169-.486-.344-.723-.524-.163-.124.127.111-.132-.108-.123-.1-.248-.2-.37-.306-.446-.38-.876-.779-1.283-1.2q-.3-.317-.591-.649c-.092-.107-.178-.219-.271-.326-.2-.232.261.37-.039-.053a11.277,11.277,0,0,1-.808-1.3,2.015,2.015,0,0,0-2.736-.718,2.046,2.046,0,0,0-.717,2.737,17.081,17.081,0,0,0,5.488,5.791,22.655,22.655,0,0,0,8.114,3.636,2,2,0,1,0,1.063-3.857Z"/><path class="c" d="M136.1,72.757a35.006,35.006,0,0,1,3.624-15.9,35.948,35.948,0,0,1,8.693-10.386c6.842-5.8,17.13-7.125,25.75-6.071a30.021,30.021,0,0,1,12.1,3.96,15.518,15.518,0,0,1,4.1,3.549,5.491,5.491,0,0,0,1.122,1.28c.5.332,1.054.589,1.56.911a21.418,21.418,0,0,1,3.241,2.537,29.2,29.2,0,0,1,7.8,13.712,38.582,38.582,0,0,1,1.295,8.319,44.377,44.377,0,0,1-.114,8.06,27.94,27.94,0,0,1-2.71,9.1c-1.485,2.842-3.6,5.352-5.39,8.006a50.857,50.857,0,0,0-4.715,8.225,19.447,19.447,0,0,0-1.434,10.873,2.015,2.015,0,0,0,2.461,1.4,2.049,2.049,0,0,0,1.4-2.46c-.876-5.628,2.233-10.606,5.157-15.126,1.435-2.218,3.03-4.327,4.511-6.514a26.671,26.671,0,0,0,3.386-7.1,41.756,41.756,0,0,0,1.357-15.957,40.775,40.775,0,0,0-4.158-15.216,28.506,28.506,0,0,0-11.62-12.22l.717.717c-6.009-8.732-18.577-10.964-28.447-10.237a38.2,38.2,0,0,0-16.1,4.555,36.611,36.611,0,0,0-11.807,11.4c-4.08,6.1-5.635,13.337-5.767,20.587-.047,2.575,3.953,2.575,4,0Z"/><path class="c" d="M172.446,86.575a3.374,3.374,0,0,1,4.1-1.876c1.74.669,2.107,2.756,2.1,4.413a12.975,12.975,0,0,1-5.55,10.255,2.055,2.055,0,0,0-.717,2.737,2.018,2.018,0,0,0,2.736.717c4.848-3.382,8.158-9.309,7.431-15.324-.378-3.134-2.262-6.132-5.546-6.794a7.4,7.4,0,0,0-8.008,3.854,2.05,2.05,0,0,0,.718,2.736,2.019,2.019,0,0,0,2.736-.718Z"/><path class="c" d="M137.293,112.007a12.939,12.939,0,0,0,5.026-1.089,6.417,6.417,0,0,0,2.268-1.593,2.13,2.13,0,0,0,.586-1.414,2,2,0,0,0-3.414-1.414,3.784,3.784,0,0,1-.563.525l.405-.313a6.614,6.614,0,0,1-1.4.8l.478-.2a10.083,10.083,0,0,1-2.515.664l.532-.071a12.931,12.931,0,0,1-1.4.109,2,2,0,0,0,0,4Z"/><path class="c" d="M142.647,92.449l.038-.017-.478.2a3.221,3.221,0,0,1,.79-.2l-.532.071a7.235,7.235,0,0,1,1.877.016l-.532-.071a5.689,5.689,0,0,1,1.39.348l-.478-.2a2.293,2.293,0,0,1,.486.272l-.405-.313a1.258,1.258,0,0,1,.155.146,2,2,0,0,0,3.414-1.415,2.193,2.193,0,0,0-.586-1.414,4.055,4.055,0,0,0-1.707-1,8.436,8.436,0,0,0-1.856-.364,7.3,7.3,0,0,0-1.485-.031,8.658,8.658,0,0,0-1.111.156,5.1,5.1,0,0,0-1,.367,2,2,0,0,0-.919,1.195,2,2,0,0,0,1.4,2.461l.532.071a1.987,1.987,0,0,0,1.009-.273Z"/><path class="c" d="M148.2,105.421c.041.03.082.06.122.091l-.405-.313a5.175,5.175,0,0,1,.882.9l-.313-.405a6.887,6.887,0,0,1,.875,1.5l-.2-.478a5.384,5.384,0,0,1,.318,1.015,2.017,2.017,0,0,0,.919,1.195,2,2,0,0,0,2.736-.717l.2-.478a2.018,2.018,0,0,0,0-1.063,5.194,5.194,0,0,0-.289-.946,10.108,10.108,0,0,0-.68-1.429,9.308,9.308,0,0,0-.941-1.274,6.872,6.872,0,0,0-1.205-1.053,1.477,1.477,0,0,0-.744-.238,1.523,1.523,0,0,0-.8.036,2,2,0,0,0-1.4,2.46l.2.478a2,2,0,0,0,.717.717Z"/><path class="c" d="M132.1,72.757c-.09,5.263,1.457,10.372,1.262,15.638a9.442,9.442,0,0,1-1.564,5.5c-.759.963-1.841,1.564-2.566,2.573a5.623,5.623,0,0,0-1.019,4.221c.424,2.3,2.372,3.141,3.994,4.478,1.661,1.369,1.815,3.326,2.377,5.264,1.385,4.769,3.355,10.128,7.881,12.768,2.5,1.461,5.563,1.766,8.41,1.79a21.8,21.8,0,0,0,8.547-1.418,2.067,2.067,0,0,0,1.4-2.46,2.012,2.012,0,0,0-2.46-1.4,18.136,18.136,0,0,1-6.684,1.27,15.311,15.311,0,0,1-6.575-.91c-4.079-1.883-5.624-7.05-6.75-11.024-.235-.831-.43-1.669-.638-2.507a8.419,8.419,0,0,0-1.772-3.263,11.135,11.135,0,0,0-2.4-2.051c-.467-.32-1.311-.745-1.416-1.329-.159-.884.8-1.625,1.377-2.105a9.565,9.565,0,0,0,2.146-2.476,14.141,14.141,0,0,0,1.683-6.246c.378-5.5-1.32-10.836-1.226-16.318.044-2.575-3.956-2.575-4,0Z"/><path class="b" d="M90.142,302.356a14.317,14.317,0,0,1,13.447-9.737c4.829-.039,10.145-.089,15.765-.146V251.161c-10.517,1.033-20.571.622-32.793,1.281-21.546-.993-25.833,10.638-29.4,27.178-1.282,6.584-2.245,13.365-3.308,19.741-1.887,11.327-9.687,50.685-10.3,56.708,3.993,1.27,19.189,6.71,24.161,7.713,3.111-9.683,7.839-26.428,9.329-30.736,4.566-13.2,6.858-20.988,10.249-31.89Z"/><path class="b" d="M59.915,371.976a70.081,70.081,0,0,1-7.674-.451,63.19,63.19,0,0,1-8.749-1.74l.049-.146c.893-2.606,3.415-9.622,4.134-11.862l.111-.288c4.579,1.562,11.232,3.848,15.921,5.237l-.148.417c-.585,1.565-1.055,5.674-1.522,8.758C61.408,371.95,60.686,371.973,59.915,371.976Z"/><path class="f" d="M161.762,146.375a23.138,23.138,0,0,1,1.146-3.006s.3-.6.662-1.342c9.435-6.695,25.2-10.517,32.911-13.771a46.336,46.336,0,0,1,8.728,9.644,84.981,84.981,0,0,1,6.713,13.068c3.092,7.667,3.687,12.171,3.8,20.576.106,8.338-.208,16.29-.59,24.541-.2,4.264.007,8.5.006,12.817,0,4.108.281,11,.584,15.031.569,7.588-.219,23.607-.357,30.9h-.273c-5.152,0-25.027.41-30.329.41-9.885,0-20.531,0-32.1-.247,0,0-.238-.006-.564-.011,0-2.378-.468-8.481-.812-10.811-.311-2.114-.66-11.816-.663-14.751a287.314,287.314,0,0,1,3.619-47.876C155.354,175,158.956,155.135,161.762,146.375Z"/><path class="c" d="M88.524,290.608c-3.347,10.444-6.456,20.964-9.867,31.388-1.475,4.51-3.1,8.972-4.5,13.506-1.256,4.072-2.447,8.164-3.657,12.249-1.535,5.177-3.066,10.357-4.715,15.5l2.461-1.4A110.157,110.157,0,0,1,55.8,358.1c-3.908-1.306-7.788-2.7-11.713-3.957l1.468,1.929c.018-.171.041-.341.059-.511.034-.314.011-.08-.018.125.019-.133.037-.265.057-.4q.126-.861.264-1.721c.252-1.563.523-3.124.8-4.684.769-4.353,1.578-8.7,2.391-13.044,1.77-9.463,3.59-18.917,5.333-28.385,2.014-10.939,3.166-22.1,5.958-32.871,2.067-7.982,5.385-15.969,13.711-18.774a28.023,28.023,0,0,1,7.277-1.345c1.6-.1,3.187-.069,4.785-.036,1.973.041,3.971-.156,5.945-.222,7.312-.244,14.635-.2,21.94-.63q2.655-.158,5.3-.412a2.055,2.055,0,0,0,2-2,2.015,2.015,0,0,0-2-2c-7.37.711-14.776.746-22.172.906-3.922.085-7.877.432-11.794.333a42.177,42.177,0,0,0-8.869.652,22.512,22.512,0,0,0-12.1,6.206,30.161,30.161,0,0,0-6.5,11.544C54.2,279.81,53.248,291.6,51.2,302.986c-1.681,9.337-3.485,18.651-5.238,27.974-1.465,7.79-3.085,15.586-4.194,23.437-.078.556-.156,1.113-.215,1.672A2.017,2.017,0,0,0,43.021,358c3.924,1.255,7.805,2.651,11.713,3.957a110.14,110.14,0,0,0,12.447,3.757,2.054,2.054,0,0,0,2.461-1.4c2.824-8.809,5.319-17.72,8.01-26.57,2.8-9.219,6.074-18.3,8.923-27.506,1.916-6.195,3.827-12.391,5.806-18.567.787-2.457-3.073-3.509-3.857-1.063Z"/><path class="c" d="M61.631,362.611a28.184,28.184,0,0,0-1.079,5.669,54.872,54.872,0,0,1-.971,5.943,2,2,0,0,0,3.857,1.064,54.93,54.93,0,0,0,.971-5.944,28.244,28.244,0,0,1,1.079-5.668,2.012,2.012,0,0,0-1.4-2.461,2.052,2.052,0,0,0-2.46,1.4Z"/><path class="c" d="M45.746,357.245c-1.283,3.985-2.775,7.9-4.133,11.862a2.014,2.014,0,0,0,1.4,2.461,2.049,2.049,0,0,0,2.46-1.4c1.359-3.96,2.851-7.878,4.134-11.863a2.018,2.018,0,0,0-1.4-2.46,2.046,2.046,0,0,0-2.461,1.4Z"/><path class="b" d="M195.943,125.949a36.06,36.06,0,0,0-2.244-8.73,60.545,60.545,0,0,0-15.741,4.3c-2.771,1.094-6.144,2.106-8.83,3.4-2.393,1.152-7.795,3.063-8.817,5.747-.714,1.874-.118,4.88.142,6.322.4,2.214.9,3.713,1.262,5.678"/><path class="c" d="M197.871,125.418a31.686,31.686,0,0,0-2.445-9.208,1.93,1.93,0,0,0-1.727-.991c-7.8.974-15.077,3.8-22.372,6.614A71.072,71.072,0,0,0,163.2,125.5c-2.678,1.446-4.863,3.295-5.177,6.483-.371,3.767,1.064,7.578,1.767,11.223.487,2.525,4.343,1.456,3.857-1.064-.4-2.073-.984-4.1-1.353-6.182-.238-1.341-.665-3.182-.16-4.492.441-1.144,1.935-1.884,2.941-2.437,1.357-.744,2.783-1.346,4.194-1.976,3.71-1.657,7.55-3,11.356-4.419a57.913,57.913,0,0,1,13.078-3.412l-1.727-.99a28.881,28.881,0,0,1,2.042,8.252,2.014,2.014,0,0,0,2.46,1.4,2.051,2.051,0,0,0,1.4-2.46Z"/><path class="c" d="M166.182,252.7c-2.793,0-5.578.279-8.371.246a2,2,0,1,0,0,4c2.793.033,5.578-.241,8.371-.246a2,2,0,0,0,0-4Z"/><path class="c" d="M154.094,254.992a85.7,85.7,0,0,0-.741-10.3c-.025-.2-.052-.395-.078-.593,0,.036-.1-.79-.044-.317.041.365-.035-.374-.045-.48-.056-.617-.1-1.237-.135-1.856-.1-1.706-.181-3.415-.248-5.124-.346-8.872-.156-17.76.348-26.624a320.822,320.822,0,0,1,6.916-48.114c.784-3.711,1.607-7.417,2.583-11.083.374-1.4.768-2.8,1.231-4.176.187-.556.384-1.109.608-1.651-.183.444.084-.167.146-.3.215-.45.441-.894.662-1.341l-.718.717c9.741-6.839,21.628-9.048,32.434-13.569l-1.946-.515c6.716,5.618,11.071,12.877,14.508,20.83a48.723,48.723,0,0,1,3.551,11.709,86.922,86.922,0,0,1,.61,13.717c-.02,5.354-.2,10.706-.426,16.055-.231,5.4-.205,10.768-.179,16.175.035,7.413.754,14.8.788,22.2.037,8.161-.4,16.312-.559,24.469-.05,2.575,3.95,2.575,4,0,.145-7.373.509-14.741.556-22.116.047-7.534-.694-15.034-.776-22.567-.056-5.172-.181-10.344.053-15.514.247-5.429.458-10.86.524-16.3a120.66,120.66,0,0,0-.4-14.7,48.406,48.406,0,0,0-3.13-12.356c-3.617-9.251-8.583-17.989-16.289-24.434a2,2,0,0,0-1.945-.515c-9.72,4.068-20.094,6.359-29.386,11.484-1.079.595-2.138,1.228-3.164,1.912a4.607,4.607,0,0,0-1.765,1.717c-.2.379-.387.77-.568,1.159a31.4,31.4,0,0,0-1.52,4.167c-1.209,4.012-2.124,8.117-3.007,12.211-1.808,8.374-3.449,16.812-4.759,25.28a290.159,290.159,0,0,0-3.157,42.813c-.026,4.836.131,9.679.435,14.5.275,4.37,1.011,8.746,1.035,13.417.013,2.573,4.013,2.578,4,0Z"/><path class="c" d="M152.658,256.992c17.626.371,35.24.229,52.865-.048,3.187-.05,6.376-.113,9.564-.115,2.574,0,2.578-4,0-4-14.191.009-28.374.447-42.567.394q-9.931-.038-19.862-.231c-2.575-.055-2.575,3.945,0,4Z"/><path class="b" d="M64.211,371.417c-1.185.889-8.193.557-11.97.108-2.66-.316-9.39-1.555-9.858-2.276s2.555-3.684,1.678-5.438-3.163-2.283-4.932-1.963c-2.222.4-4.754,1.507-8.4,3.218.151-.1-5.75,3.094-9.386,3.788-1.683.321-8.814,1.566-10.3,2.889-4.185,3.711-.383,11.172,5.167,12.559,4.29,1.073,14.081,2.357,18.416,3.047,8.767,1.4,26.484,3.863,29.214.192,2.055-2.776,2.792-7.38,3.1-10.179.171-1.577-.885-7.121-3.375-8.413Z"/><path class="c" d="M63.2,369.69c-.309.2.339-.088.075-.009-.136.041-.271.079-.409.111a3.548,3.548,0,0,1-.813.108c-1,.08-2.016.085-3.023.07-2.178-.032-4.357-.177-6.522-.414-.6-.065-1.349-.182-2.19-.323q-1.43-.24-2.85-.53c-.92-.188-1.84-.389-2.745-.639-.342-.1-.685-.193-1.018-.316-.065-.024,0,.129-.02-.007-.026-.213.219.223.11.094l.514.882c.168.4-.251,1.047.143.34.189-.34.39-.672.58-1.01a8.876,8.876,0,0,0,1.081-2.583c.463-2.412-1.19-4.39-3.36-5.231-4.245-1.645-9.3,1.356-13.032,3.106l2.938,2.259v0a2.029,2.029,0,0,0-2.938-2.259c-2.913,1.349-5.725,2.944-8.909,3.589-3.3.668-6.815,1.1-9.886,2.555-3.581,1.7-4.352,6.274-3,9.675a12.127,12.127,0,0,0,9.188,7.4c4.252.893,8.574,1.472,12.871,2.1,3.667.539,7.324,1.137,11,1.626a123.394,123.394,0,0,0,12.57,1.149c3.247.1,7.029.212,10.031-1.236,1.778-.859,2.688-2.581,3.421-4.34a29.218,29.218,0,0,0,1.824-7.638c.458-3.642-.873-9.055-4.264-11-2.237-1.283-4.254,2.172-2.019,3.454,1.044.6,1.595,2.255,1.933,3.47a8.817,8.817,0,0,1,.386,3.779,27.623,27.623,0,0,1-1.291,5.775,10.739,10.739,0,0,1-1.272,2.558c.059-.085-.2.208-.242.249.352-.335-.174.076-.347.168-.072.039-.34.143.014,0-.111.044-.227.088-.341.121-.25.074-.5.151-.75.213a11.924,11.924,0,0,1-1.713.293,40.381,40.381,0,0,1-4.907.144,111.993,111.993,0,0,1-11.436-.954c-7.051-.886-14.12-1.966-21.122-3.176-3.2-.552-6.573-.882-8.7-3.63a6.48,6.48,0,0,1-1.493-4.075,3.341,3.341,0,0,1,.5-1.667,3.279,3.279,0,0,1,.694-.789c-.372.3.259-.111.4-.178,2.635-1.261,6.371-1.584,9.432-2.283,3.35-.765,6.367-2.475,9.456-3.905L28.8,364.533h0a2.029,2.029,0,0,0,2.938,2.259A57.809,57.809,0,0,1,37.1,364.48c1.235-.433,2.674-.977,3.988-.6a1.994,1.994,0,0,1,1.125.667c-.011-.02-.015.136-.079.342a4.636,4.636,0,0,1-.354.772c-.582,1.091-1.47,2.2-1.439,3.492.066,2.724,4.57,3.11,6.516,3.5a67.869,67.869,0,0,0,8.762,1.176,52.207,52.207,0,0,0,5.608.12,8.079,8.079,0,0,0,3.991-.8c2.147-1.4.145-4.866-2.019-3.454Z"/><path class="e" d="M95.732,403.452c0-12.4,9.914-17.332,18.206-17.332s18.206,5.215,18.206,17.332-9.914,17.332-18.206,17.332-18.206-4.936-18.206-17.332"/><path class="b" d="M62.534,391.727c3.923-12.321,19.64-65.816,27.608-89.371a14.317,14.317,0,0,1,13.447-9.737c37.154-.3,103.172-1.239,114-1.239l.565,10.33c-28,0-71.058,1.019-112.253,1.155a7.1,7.1,0,0,0-6.73,4.909c-3.035,9.355-6.336,20.5-9.628,31.764,21.456.054,113.93-1.338,127.135-1.338l1.476,10.33c-29.855,0-88.74,1.158-131.576,1.171-2.262,7.516-10.43,35.082-12.964,43.3Z"/><path class="g" d="M127.9,246.051h89.98c.422,24.654.873,34.277,1.163,45.331-10.674.027-61.792.655-99.74,1.041v-39.1a7.272,7.272,0,0,1,7.272-7.273Z"/><path class="c" d="M75.545,393.536c3.673-11.927,7.175-23.907,10.741-35.866q1.109-3.72,2.223-7.438L86.58,351.7c18.248-.007,36.5-.192,54.743-.4,17.784-.2,35.568-.451,53.353-.626,7.826-.077,15.653-.143,23.48-.144,2.574,0,2.578-4,0-4-15.16,0-30.32.208-45.479.391-18.642.226-37.284.471-55.926.629q-15.085.129-30.171.151a2.044,2.044,0,0,0-1.928,1.468c-3.559,11.827-7.048,23.675-10.6,35.5-.782,2.6-1.564,5.2-2.363,7.8-.76,2.466,3.1,3.52,3.857,1.063Z"/><path class="c" d="M218.156,299.71c-18.8,0-37.594.339-56.388.6q-16.439.227-32.877.4-8.506.082-17.013.129c-2.571.013-5.363-.289-7.894.238a9.126,9.126,0,0,0-5.417,3.552c-1.526,2.066-2.057,4.878-2.817,7.292q-1.329,4.222-2.61,8.46c-1.879,6.2-3.706,12.409-5.523,18.624a2.02,2.02,0,0,0,1.928,2.532c6.535.015,13.07-.053,19.6-.113q14.5-.135,29-.316,15.983-.189,31.965-.394,13.978-.175,27.958-.344c5.834-.068,11.667-.147,17.5-.169l1.1,0c2.574,0,2.578-4,0-4-5.237,0-10.474.079-15.71.138q-13.5.153-27.009.329-15.924.2-31.847.4-14.861.178-29.721.332c-7.052.069-14.105.141-21.158.145h-1.69l1.929,2.531C94.48,329.785,97.5,319.5,100.78,309.3c.583-1.812,1.4-3.357,3.28-4.091a7.47,7.47,0,0,1,2.8-.348q2.153-.007,4.3-.019,8.148-.041,16.3-.118c20.727-.194,41.453-.538,62.179-.794,9.507-.118,19.015-.219,28.522-.221,2.574,0,2.578-4,0-4Z"/><path class="c" d="M64.463,392.258c3.754-11.8,7.212-23.7,10.8-35.557,4.7-15.55,9.4-31.107,14.414-46.562.993-3.064,1.742-6.547,3.357-9.348a12.384,12.384,0,0,1,10.2-6.164c7.966-.282,15.968-.15,23.939-.236q26.294-.284,52.588-.617c11.969-.144,23.938-.323,35.908-.387q.962-.006,1.925-.007c2.574,0,2.578-4,0-4-10.87,0-21.742.2-32.61.331q-26.5.318-53,.627-12.474.138-24.947.252c-4.385.039-8.531.2-12.313,2.728a16.769,16.769,0,0,0-4.781,4.859,23.892,23.892,0,0,0-2.349,5.5c-5,15-9.571,30.153-14.164,45.285-4.022,13.249-7.943,26.531-12.045,39.755q-.384,1.242-.777,2.481c-.782,2.459,3.078,3.511,3.857,1.063Z"/><path class="g" d="M76.765,393.95S12.631,386.282,3,385.75c-.233,1.918-1.075,9.314-.978,11.394,11.189,1.49,60.909,7.534,73.482,8.4C75.977,403.338,76.764,394.039,76.765,393.95Z"/><path class="c" d="M76.765,391.95q-11.133-1.33-22.272-2.626c-12.849-1.5-25.7-2.989-38.566-4.353-4.3-.455-8.613-.978-12.932-1.221a2.048,2.048,0,0,0-2,2,75.051,75.051,0,0,0-.978,11.394,2.068,2.068,0,0,0,2,2c8.728,1.161,17.474,2.2,26.217,3.248,11.47,1.374,22.945,2.722,34.434,3.937,4.271.451,8.546.915,12.831,1.212a2.007,2.007,0,0,0,1.928-1.469,85.315,85.315,0,0,0,1.338-12.122c.154-2.571-3.846-2.562-4,0-.1,1.623-.282,3.246-.44,4.863a60.653,60.653,0,0,1-.755,6.2l1.929-1.468c-9.089-.63-18.155-1.769-27.2-2.8q-17.089-1.948-34.158-4.062c-4.041-.5-8.083-1-12.12-1.535l2,2A75.051,75.051,0,0,1,5,385.75l-2,2c9.735.548,19.468,1.913,29.152,3.006Q50.47,392.823,68.779,395q3.993.473,7.986.948a2.01,2.01,0,0,0,2-2A2.048,2.048,0,0,0,76.765,391.95Z"/><path class="b" d="M109.123,373.865V250.828A14.221,14.221,0,0,1,123.277,236.6c28.429-.136,71.88.048,94.446.049-.423-24.463-.24-48.8-.24-48.8,0-2.166.009-5.064.009-7.522,0-6.317,6.663-10.709,12.273-10.709,5.7,0,16.224-.123,18.386-.123l.308,10.088c-2.161,0-9.791.077-15.494.123a5.8,5.8,0,0,0-5.754,5.793c-.005,2.458-.01,9.058-.01,11.224,0,16.816,1.957,93.773,1.957,138.92h-9.81c0-11.3-.775-48.818-1.473-89.59h-91.3a7.272,7.272,0,0,0-7.272,7.273V375.438Z"/><path class="c" d="M97.732,403.452a15.061,15.061,0,0,1,3.359-9.956,15.693,15.693,0,0,1,7.693-4.676c5.79-1.606,12.61-.457,17.037,3.788,5.233,5.018,5.829,14.2,1.517,20-3.648,4.9-10.417,6.9-16.3,5.973a16.739,16.739,0,0,1-9.066-4.244,14.872,14.872,0,0,1-4.243-10.881c-.021-2.573-4.021-2.579-4,0A18.259,18.259,0,0,0,107.589,421.9c7.281,2.069,15.813.443,21.268-4.982,6.3-6.263,7.122-17.441,1.935-24.641-4.634-6.433-12.9-9.015-20.548-7.853a20.351,20.351,0,0,0-11.3,5.513,19,19,0,0,0-5.213,13.511c-.021,2.574,3.979,2.577,4,0Z"/><path class="c" d="M121.3,375.438V254.179c0-2.391.791-4.7,3.2-5.719,1.7-.723,4.042-.409,5.846-.409h87.532l-2-2c.449,26.181,1.008,52.36,1.369,78.542.051,3.682.1,7.365.1,11.048,0,2.574,4,2.578,4,0-.006-21.115-.628-42.24-1.009-63.351q-.237-13.119-.464-26.239a2.032,2.032,0,0,0-2-2H134.436c-2.471,0-4.941-.006-7.412,0a9.454,9.454,0,0,0-9.726,9.273c-.054,2.823,0,5.652,0,8.475V375.438c0,2.574,4,2.578,4,0Z"/><path class="c" d="M248.459,177.581c-2.852,0-5.7.038-8.556.063l-5.6.049a10.132,10.132,0,0,0-5.155,1.037c-2.953,1.677-3.93,4.663-3.934,7.867q-.006,4.376-.007,8.752c0,7.2.139,14.4.266,21.592q.308,17.566.648,35.132.375,20.427.677,40.855c.18,12.84.328,25.682.36,38.524q0,2.094,0,4.189c0,2.574,4,2.578,4,0,0-12.258-.126-24.517-.285-36.774q-.261-20.16-.639-40.317-.323-17.91-.663-35.818c-.145-7.971-.31-15.943-.362-23.915-.028-4.34-.037-8.684,0-13.024a4.007,4.007,0,0,1,1.374-3.223c1.206-.984,2.637-.867,4.1-.88q5.243-.045,10.487-.091c1.094-.008,2.189-.017,3.284-.018,2.574,0,2.578-4,0-4Z"/><path class="c" d="M248.151,167.493c-5.453,0-10.906.1-16.359.119a19.051,19.051,0,0,0-8.809,1.7,13.777,13.777,0,0,0-6.606,6.764c-1.434,3.389-.891,7.43-.894,11.026,0,.966-.008,1.932-.013,2.9q-.042,8.385-.02,16.77.035,14.943.273,29.884l2-2q-17.519,0-35.037-.057-20.55-.042-41.1-.039c-6.211,0-12.449-.139-18.657.053a16.335,16.335,0,0,0-14.255,9.311c-1.7,3.725-1.549,7.473-1.549,11.417V363.71c0,3.24-.056,6.486,0,9.726,0,.143,0,.286,0,.429,0,2.574,4,2.578,4,0V259.17c0-2.737-.018-5.474,0-8.211a12.35,12.35,0,0,1,5.143-10.107A13.288,13.288,0,0,1,124.1,238.6q4.491-.019,8.982-.03,20.107-.046,40.213.008,18.625.032,37.251.07,3.59,0,7.179,0a2.025,2.025,0,0,0,2-2q-.38-22.168-.263-44.343.021-5.575.032-11.15a8.464,8.464,0,0,1,3.5-7.183,12.166,12.166,0,0,1,7.459-2.36c5.9-.009,11.8-.118,17.7-.123,2.573,0,2.578-4,0-4Z"/><path class="g" d="M250.716,181.345c-1.563.057-10.383.485-10.383-6.207s6.912-7.162,8.918-7.162c3.07-.079,25.869-.294,28.247-.152,3.607.215,7.023,2.575,7.023,6.75,0,4.115-2.584,6.8-5.764,6.8S252.59,181.276,250.716,181.345Z"/><path class="c" d="M250.716,179.345c-2.506.093-5.187.053-7.064-1.356a3.836,3.836,0,0,1-1.244-3.913,4.323,4.323,0,0,1,2.744-3.346,11.48,11.48,0,0,1,1.9-.558,7.467,7.467,0,0,1,1.578-.182c.865-.039,1.733-.037,2.6-.049q5.019-.072,10.036-.106c3.768-.031,7.536-.057,11.3-.058,2.29,0,5.121-.37,7.253.645a4.643,4.643,0,0,1,2.671,4.906c-.185,1.785-1.231,3.691-3.146,4.011a18.552,18.552,0,0,1-3.01.026l-4.587-.013c-7-.02-14.036-.241-21.033-.007-2.568.085-2.579,4.086,0,4,6.915-.231,13.868-.014,20.786.006q2.544.007,5.09.015a15.475,15.475,0,0,0,4.136-.259c5.666-1.554,7.48-9.3,4.046-13.72-2.494-3.208-6.271-3.59-10.01-3.607-3.943-.017-7.886.013-11.829.042q-5.772.043-11.543.117c-2.763.038-5.478.085-8.053,1.244-4.8,2.161-6.856,8.95-3.13,13.047,2.578,2.835,6.9,3.249,10.507,3.115C253.282,183.249,253.294,179.249,250.716,179.345Z"/><path class="b" d="M121.744,403.3c0-2.191.335-19.972.382-25.281a.975.975,0,0,0-.973-.987c-3.935-.033-9.76-.238-13.622-.271a.979.979,0,0,0-.991.978c-.036,6.786-.415,18.05-.415,25.558a7.254,7.254,0,0,0,7.444,7.141C118.633,410.434,121.744,408.825,121.744,403.3Z"/><path class="c" d="M123.744,403.3c.006-4.785.142-9.572.221-14.356q.072-4.355.135-8.708c.016-1.173.234-2.62-.362-3.673-1.137-2.008-3.779-1.54-5.732-1.581-2.124-.044-4.247-.1-6.371-.15-1.812-.041-4.646-.626-6.1.7-1.43,1.3-1,3.713-1.029,5.466q-.045,2.916-.111,5.831c-.09,4.188-.19,8.376-.241,12.565-.047,3.865-.243,7.8,2.948,10.585,2.993,2.615,7.41,3.075,11.125,1.852,3.865-1.274,5.47-4.643,5.519-8.53.032-2.575-3.968-2.577-4,0-.029,2.276-.635,4.1-2.835,4.751-2.377.7-5.322.663-7.217-1.116-2.227-2.092-1.568-5.545-1.53-8.3.048-3.537.129-7.074.2-10.611q.057-2.614.107-5.23.021-1.16.037-2.317c.007-.459.286-1.919.026-2.283-.273-.381-.55.729-.67.569a4.87,4.87,0,0,0,.7.009c.369,0,.737.011,1.106.018q1.389.026,2.779.06c1.852.044,3.7.093,5.556.131a11.477,11.477,0,0,0,2.455.042c.388-.084.576.287.007-.424-.756-.944-.244-.476-.345-.271a2.215,2.215,0,0,0-.008.7q-.016,1.485-.04,2.97-.056,3.779-.12,7.556c-.076,4.582-.2,9.166-.211,13.749C119.74,405.87,123.74,405.874,123.744,403.3Z"/><path class="g" d="M200.193,222.958c-8.595,0-17.133-.248-24.7-.248-12.9,0-20.161.4-31.473.4-8.9,0-22-.364-28.3,1.9-3.088,1.111-5.544,7.43-1.912,10.074,2.868,2.087,11.724,1.64,15.325,1.64,5.773,0,18.5.252,27.828.061,8.345-.172,19.636.071,29.01.071,9.155,0,25-.285,29.669-.515,4.1-.2,5.674-2.341,5.674-6.689,0-3.237-3.349-5.511-5.735-6.016C213.275,223.15,207.253,222.958,200.193,222.958Z"/><path class="c" d="M200.193,220.958c-10.46,0-20.916-.325-31.377-.212-8.607.093-17.211.383-25.819.362-8.185-.021-16.63-.434-24.707,1.151a12.569,12.569,0,0,0-4.407,1.45,8.753,8.753,0,0,0-3.195,4.139c-1.3,3.216-.78,7.307,2.442,9.181,2.843,1.652,6.687,1.655,9.874,1.719,3.046.061,6.095-.033,9.142-.01,8.394.066,16.787.2,25.18.039,9.407-.176,18.818.073,28.226.079,7.658.006,15.319-.115,22.975-.293,2.674-.063,5.423.015,8.082-.312a7.1,7.1,0,0,0,6.535-6.383,8.4,8.4,0,0,0-1-6.022,9.993,9.993,0,0,0-4.451-3.6c-3.02-1.285-6.763-1.1-9.981-1.194-2.5-.07-5.01-.089-7.516-.091-2.574,0-2.578,4,0,4,4.211,0,8.444,0,12.645.338a9.064,9.064,0,0,1,3.312.609,5.249,5.249,0,0,1,3.038,2.953,6.022,6.022,0,0,1-.434,3.98,3.039,3.039,0,0,1-2.458,1.452,61.865,61.865,0,0,1-7.309.262c-15.793.377-31.57.1-47.365.177-8.1.041-16.2.137-24.3.058-3.018-.029-6.039-.089-9.057-.057a79.945,79.945,0,0,1-9.339-.214c-2.287-.245-5.075-.619-4.925-3.489a5.669,5.669,0,0,1,1.361-3.343c.809-.921,1.825-1.086,3.112-1.382a55.93,55.93,0,0,1,10.417-1.092c3.991-.148,7.986-.128,11.979-.111,7.88.036,15.755-.159,23.634-.292,9.351-.159,18.694-.016,28.044.1q3.824.047,7.647.053C202.767,224.96,202.771,220.96,200.193,220.958Z"/><path class="e" d="M139.259,340.919c0-57.191,45.739-79.962,84-79.962s84,24.061,84,79.962-45.739,79.962-83.995,79.962-84-22.77-84-79.962"/><path class="c" d="M141.259,340.919c.033-18.272,5.115-36.543,17.2-50.572,10.223-11.863,24.232-19.814,39.237-23.944a94.986,94.986,0,0,1,44.439-1.5c15.43,3.22,30.218,10.279,41.554,21.356,12.8,12.5,19.9,29.391,21.272,47.129,1.453,18.765-2.463,37.989-13.635,53.39-9.347,12.885-23.167,22.067-38.141,27.139a94.255,94.255,0,0,1-44.665,3.838c-15.193-2.377-30.114-8.286-41.948-18.256-13.241-11.157-21.413-26.653-24.183-43.67a93.912,93.912,0,0,1-1.133-14.915c0-2.573-4-2.578-4,0,.035,19.189,5.459,38.162,18,52.962,10.609,12.519,25.407,20.967,41.111,25.338a99.452,99.452,0,0,0,46.831,1.569c16.128-3.366,31.607-10.894,43.423-22.487,13.424-13.169,20.792-30.875,22.311-49.49,1.59-19.484-2.547-39.776-14.152-55.774-9.941-13.7-24.335-23.437-40.266-28.887a98.536,98.536,0,0,0-46.923-3.95c-15.953,2.474-31.45,8.861-43.847,19.306-13.79,11.62-22.458,28.047-25.268,45.781a101.02,101.02,0,0,0-1.22,15.632c0,2.574,4,2.578,4,0Z"/><path class="b" d="M152.227,340.919c0-48.362,38.677-67.617,71.028-67.617s71.027,20.346,71.027,67.617-38.677,67.617-71.027,67.617-71.028-19.255-71.028-67.617"/><path class="c" d="M154.227,340.919c.033-15.325,4.261-30.665,14.378-42.454,8.609-10.033,20.417-16.756,33.082-20.249a79.974,79.974,0,0,1,37.485-1.269c12.979,2.715,25.418,8.644,34.958,17.961,10.762,10.509,16.744,24.7,17.908,39.615,1.236,15.845-2.069,32.063-11.512,45.061-7.885,10.851-19.566,18.572-32.19,22.82a79.394,79.394,0,0,1-37.426,3.2c-12.778-1.993-25.346-6.941-35.309-15.315-11.193-9.409-18.092-22.472-20.428-36.843a79.229,79.229,0,0,1-.946-12.527c-.006-2.573-4.006-2.578-4,0,.035,16.342,4.666,32.475,15.362,45.064,9.012,10.606,21.582,17.762,34.9,21.46a84.44,84.44,0,0,0,39.744,1.305c13.724-2.87,26.9-9.3,36.931-19.192,11.324-11.163,17.543-26.135,18.843-41.875,1.368-16.567-2.15-33.848-12.03-47.445-8.45-11.631-20.652-19.889-34.18-24.523a83.65,83.65,0,0,0-39.818-3.357c-13.585,2.1-26.772,7.552-37.317,16.457A63.559,63.559,0,0,0,151.288,327.5a85.993,85.993,0,0,0-1.061,13.417c-.006,2.574,3.994,2.578,4,0Z"/><path class="c" d="M232.024,325.116q8.809-18.285,18.34-36.211c1.208-2.272-2.244-4.295-3.454-2.019q-9.528,17.922-18.34,36.211c-1.112,2.309,2.336,4.34,3.454,2.019Z"/><path class="c" d="M230.419,359.022c5.731,8.527,11.006,17.394,16.352,26.164,1.355,2.222,2.706,4.447,4.03,6.687,1.309,2.214,4.768.2,3.454-2.019-5.545-9.379-11.322-18.632-17.15-27.837-1.063-1.68-2.123-3.364-3.232-5.014-1.428-2.126-4.895-.126-3.454,2.019Z"/><path class="c" d="M241.728,349.647c10.44,3.953,20.725,8.463,30.917,13.012a2.062,2.062,0,0,0,2.737-.718,2.015,2.015,0,0,0-.718-2.736c-10.507-4.689-21.11-9.34-31.873-13.415a2.015,2.015,0,0,0-2.46,1.4,2.044,2.044,0,0,0,1.4,2.46Z"/><path class="c" d="M215.779,340.919a8.234,8.234,0,0,1,.483-2.839,6.431,6.431,0,0,1,1.11-1.805,7.18,7.18,0,0,1,3.611-2.089,9.029,9.029,0,0,1,3.975-.122,7.655,7.655,0,0,1,3.81,1.895,6.862,6.862,0,0,1-2.693,11.513,9.424,9.424,0,0,1-2.015.437c-.334.026-.668.035-1,.03q-.3-.006-.6-.027c-.134-.01-.267-.022-.4-.036l-.072-.011a7.708,7.708,0,0,1-4.317-1.993,6.761,6.761,0,0,1-1.893-4.953c-.032-2.572-4.032-2.579-4,0a11.122,11.122,0,0,0,2.48,7.146,11.007,11.007,0,0,0,5.461,3.39,12.47,12.47,0,0,0,11.955-2.824,11.278,11.278,0,0,0,1.176-14.015,12.059,12.059,0,0,0-11.724-4.531,11.466,11.466,0,0,0-6.359,3.129,10.9,10.9,0,0,0-2.989,7.7c-.032,2.575,3.968,2.577,4,0Z"/><path class="b" d="M137.323,206.884c-5.992.309-8.564-1.96-13-1.856-4.349.1-10.807.365-14.879,2.022a20.962,20.962,0,0,0-8.355,10.6,49.1,49.1,0,0,0-2.16,9.6c-.256,3.579,3.058,5.294,5.16,2.553l.991-1.292-.174.819c-.537,2.531.947,4.715,3.828,3.957l3.227-.85.1.07c2.771,1.911,5.408-1.479,6.341-3.207,1.1-2.03,2.074-3.559,4.423-4.139s4.848-.792,7.219-1.352c2.284-.539,4.744-.813,6.981-1.537,2.719-.879,4.225-2.6,6.326-4.43Z"/><path class="c" d="M141.938,216.433a32.632,32.632,0,0,1-3.435,2.916,12.028,12.028,0,0,1-4.159,1.569c-3.478.769-6.994,1.323-10.491,1.987a9.028,9.028,0,0,0-6.747,4.619c-.712,1.229-2.23,4.383-4.035,3.262-2.193-1.362-4.2,2.1-2.019,3.454,2.926,1.816,5.976.255,7.908-2.2.862-1.094,1.39-2.379,2.22-3.486a4.758,4.758,0,0,1,3.287-1.707c3.782-.767,7.617-1.285,11.378-2.173a14.228,14.228,0,0,0,4.987-2.085,47.429,47.429,0,0,0,3.934-3.329c1.938-1.7-.9-4.521-2.828-2.829Z"/><path class="c" d="M119.776,215.578a6.748,6.748,0,0,0-4.966,2.592,14.425,14.425,0,0,0-2.247,4.788c-.463,1.534-.807,3.109-1.4,4.6-.082.207.008-.018.022-.05-.04.09-.08.18-.122.269-.1.219-.207.437-.319.652a13.57,13.57,0,0,1-.784,1.331,4.05,4.05,0,0,1-1.7,1.608c.3-.124-.3.054-.4.071-.255.042-.055,0-.01,0,.012,0-.563-.008-.328.016s-.616-.173-.355-.1-.08-.046-.06-.055c.193-.08.053.3.015.009,0-.008-.3-.366-.01.032-.066-.09-.115-.19-.177-.283-.019-.028-.127-.282-.042-.072.1.241-.065-.265-.063-.26-.009-.025-.058-.319-.027-.094s0-.161,0-.2c0-.131,0-.26.009-.391.019-.35-.1.454.026-.174a2.054,2.054,0,0,0-1.4-2.461,2.018,2.018,0,0,0-2.46,1.4c-.442,2.308.113,4.979,2.406,6.114a5.914,5.914,0,0,0,6.979-1.76,16,16,0,0,0,3.094-5.771c.548-1.749.925-3.552,1.616-5.254-.141.348.1-.2.156-.323.1-.2.208-.405.323-.6q.189-.321.409-.624c.133-.184-.048.069-.064.086.09-.1.175-.2.269-.3s.627-.5.253-.256c.178-.119.361-.222.544-.33.087-.052.339-.122-.03,0,.106-.037.211-.074.319-.106s.224-.052.335-.083c.413-.114-.3.014.19-.026a2.051,2.051,0,0,0,2-2,2.016,2.016,0,0,0-2-2Z"/><path class="c" d="M112.225,211.858a9.864,9.864,0,0,0-5.881,6.191c-1.018,2.641-1.366,5.5-2.462,8.113-.406.968-1.031,2.52-2.042,2.989a.372.372,0,0,1-.4-.083,1.573,1.573,0,0,0-.172-.153,1.8,1.8,0,0,1-.332-.839c-.275-1.7.414-3.781.825-5.417a41.269,41.269,0,0,1,1.582-5.441,18.6,18.6,0,0,1,7.1-8.441c2.173-1.37.168-4.832-2.018-3.454a22.973,22.973,0,0,0-8.164,9.06,32.055,32.055,0,0,0-2.04,5.988,33.111,33.111,0,0,0-1.3,6.885c-.188,3.679,3.17,7.362,6.931,5.349,3.06-1.638,4.212-5.95,5.035-9.045.758-2.853,1.331-6.717,4.395-7.845a2.053,2.053,0,0,0,1.4-2.46,2.016,2.016,0,0,0-2.46-1.4Z"/><path class="c" d="M109.975,208.978c4.429-1.74,9.484-1.871,14.186-1.946a20.948,20.948,0,0,1,5.7.969,25.26,25.26,0,0,0,7.465.883c2.565-.106,2.579-4.106,0-4a22.9,22.9,0,0,1-7-.9,22.7,22.7,0,0,0-6.49-.944c-4.934.121-10.275.253-14.924,2.08a2.062,2.062,0,0,0-1.4,2.46,2.015,2.015,0,0,0,2.461,1.4Z"/><path class="f" d="M202,206.627c-.083.625-.168,1.234-.254,1.822l-.1.652-.036.267c-.384,2.894-.323,10.184-7.55,12.116-7.148,1.912-13.476,2.51-21.52,3.126-6,.459-12.027.981-18.042,1.072-4.873.074-12.782.3-17.334.275-.889-4.042-2.569-20.59-2.861-23.8,3.876-.484,21.948-1.363,24.973-1.218,2.013.1,11.576-.193,13.523-.274a84.3,84.3,0,0,0-.752-14.928c-2.262-10.263-5.285-44.017,14.856-43.655,9.365.615,15.273,10.03,17.093,18.318,1.94,8.834-.48,23.123-1.182,33.844A79.98,79.98,0,0,1,202,206.627Z"/><path class="c" d="M174.824,199.809a91.645,91.645,0,0,0-.717-13.583c-.129-1.038-.356-2.051-.537-3.08q-.114-.641-.214-1.284-.049-.318-.1-.637c-.021-.145-.133-.94-.089-.614a81.656,81.656,0,0,1-.67-14.8c.235-4.84.981-10.117,3.079-14.375a13.845,13.845,0,0,1,3.891-5.085,11.41,11.41,0,0,1,5.346-2.174c7.052-.831,12.384,4.8,15.186,10.656,3.35,7.006,2.935,14.866,2.346,22.409-.339,4.334-.827,8.654-1.215,12.984-.4,4.488-.3,8.983-.784,13.47-.2,1.9-.5,3.779-.739,5.672-.114.923-.2,2.024-.3,2.639-.4,2.444-1.154,4.953-3.3,6.438-1.587,1.1-3.6,1.423-5.444,1.84-2.191.494-4.405.889-6.629,1.2-4.666.661-9.379.963-14.075,1.328-9.085.706-18.156.949-27.265,1.095-1.811.029-3.623.052-5.434.045l1.928,1.469a119.185,119.185,0,0,1-1.6-11.832c-.427-3.807-.84-7.618-1.189-11.433l-2,2c10.27-1.249,20.683-.956,31-1.419,3.081-.139,6.171-.361,9.255-.373,2.574-.009,2.579-4.009,0-4-5.108.02-10.216.661-15.324.572-5.544-.1-11.123.3-16.656.614-2.755.157-5.532.273-8.273.606-1,.121-2.108.821-2,2,.358,3.916.783,7.828,1.223,11.736.473,4.187.821,8.467,1.709,12.592a2.023,2.023,0,0,0,1.929,1.468c8.85.033,17.775-.1,26.605-.689,10.073-.676,20.367-1.153,30.181-3.687a11.411,11.411,0,0,0,7.986-6.317,26.206,26.206,0,0,0,1.647-7.678,117.377,117.377,0,0,0,1.247-13.192c.059-4.525.575-9.009,1.013-13.514.81-8.338,1.962-17.367-.587-25.518-2.255-7.211-7.194-14.483-14.793-16.677a15.192,15.192,0,0,0-15.448,4.406c-3.535,4-5.14,9.366-5.907,14.553a73.055,73.055,0,0,0-.393,16.733c.462,5.555,1.707,10.977,2.024,16.548.131,2.293.142,4.588.085,6.884-.065,2.575,3.935,2.574,4,0Z"/><path class="c" d="M369.873,191.051a28.719,28.719,0,0,0-.805-7.712c-.633-3.478-1.422-6.926-2.226-10.368-.706-3.022-1.458-6.036-2.117-9.069a33.986,33.986,0,0,1-.246-12.545c.675-4.321,1.805-8.552,2.558-12.858.829-4.735,1.614-9.5,2.22-14.268a71.853,71.853,0,0,0,.5-13.276,28.893,28.893,0,0,0-3.887-12.083,57.164,57.164,0,0,0-7.639-10.7c-.564-.628-1.144-1.242-1.743-1.836a4.941,4.941,0,0,0-2.736-1.323,22.747,22.747,0,0,0-6.16-.246c-4.611.371-8.759,1.861-13.114,3.3-2.021.669-4.043,1.336-6.041,2.072q-1.551.573-3.082,1.2a28.739,28.739,0,0,0-3.773,1.612c-1.654.979-1.655,3.271-1.817,4.961a35.569,35.569,0,0,1-1.439,6.741c-1.289,4.366-2.83,8.652-4.392,12.927-.935,2.557-1.894,5.105-2.936,7.621-.972,2.346-2.149,4.613-3.017,7-1.629,4.478-1.556,9.066-.791,13.709,2.324,14.112,2.387,28.377,3.741,42.586.1,1.084.227,2.166.392,3.242a2.011,2.011,0,0,0,1.928,1.468c14.573.309,29.126.208,43.7-.039,2.978-.05,5.958-.113,8.936-.115,2.574,0,2.579-4,0-4-12.57.009-25.132.442-37.7.369-4.977-.028-9.953-.109-14.929-.215l1.929,1.469a1.292,1.292,0,0,1-.052-.351c.047-.261.046.359.01.075q-.048-.379-.09-.759c-.07-.625-.129-1.251-.184-1.877-.134-1.52-.243-3.042-.345-4.565-.252-3.742-.463-7.487-.7-11.231-.493-7.923-.943-15.9-2.188-23.749-.675-4.256-1.567-8.435-.49-12.713a47.4,47.4,0,0,1,2.8-7.088c1.114-2.584,2.148-5.2,3.131-7.837,1.68-4.508,3.326-9.038,4.737-13.638a42.74,42.74,0,0,0,1.775-7.325c.121-.994.15-2.009.317-3,.039-.231.246-1.236-.089-.433l-.216.216q.435-.194.871-.384.5-.219,1-.432c4.927-2.084,10.056-3.621,15.108-5.361a28.605,28.605,0,0,1,7.01-1.458,15.4,15.4,0,0,1,6.531.5l-.883-.514a50.477,50.477,0,0,1,6.874,8.339,36.662,36.662,0,0,1,5.03,10.254c1.013,3.627.84,7.629.635,11.357A106.22,106.22,0,0,1,364.4,129.92c-.659,4.063-1.294,8.121-2.149,12.148a94.9,94.9,0,0,0-2.16,12.63c-.478,6.4,1.274,12.442,2.72,18.6.812,3.459,1.612,6.923,2.27,10.415a25.567,25.567,0,0,1,.791,7.341,2.014,2.014,0,0,0,2,2,2.043,2.043,0,0,0,2-2Z"/><path class="b" d="M259.726,163.272c-1.915,1.785-3.632,5.481-.1,5.715l1.462.183c-.123,2.4-1.626,10.507.242,12.586.966,1.075,2.8,1.322,4.134,1.372,2.184.082,1.6.168,3.41.966,2.715,1.2,4.564-.382,6.959-1.189,2.3-.774,5.072-.02,7.35-1.829a7.787,7.787,0,0,0,2.6-5.494c2.435-.784,5.071-.275,7.525-.619a140.779,140.779,0,0,1-3.536-16.2c-2.81.827-5.062,1.774-8.245,2.425-2.4.49-8.638-.291-11.457,0-4.424.556-5.134.4-8.825,1.156A3.516,3.516,0,0,0,259.726,163.272Z"/><path class="c" d="M283.92,172.483c-.013,2.493.026,6.163-2.626,7.429-1.39.663-3.075.529-4.568.751a27.523,27.523,0,0,0-4.615,1.6c-1.395.465-2.305.045-3.566-.551a11.372,11.372,0,0,0-3.808-.631,5.11,5.11,0,0,1-1.685-.472,1.184,1.184,0,0,1-.312-.271c.026.029.18.247.059.048-.191-.313-.063-.071-.144-.361a10.869,10.869,0,0,1-.25-3.213c.061-2.566.527-5.089.679-7.645a2.049,2.049,0,0,0-2-2c-.393-.049-.789-.088-1.18-.147a1.934,1.934,0,0,1-.578-.117,3.262,3.262,0,0,1,.259.507c-.059-.072.049-.568-.01-.237a3,3,0,0,1,.558-1.281,4.286,4.286,0,0,1,1.673-1.667c-.407.177.221-.006.362-.035.408-.085.818-.159,1.229-.23.57-.1,1.141-.182,1.716-.245a58.856,58.856,0,0,1,8.755-.545c2.844.11,5.79.465,8.6-.143,3.957-.856,7.682-2.493,11.666-3.264,2.525-.489,1.456-4.345-1.063-3.857-4.053.784-7.847,2.436-11.874,3.308a21.1,21.1,0,0,1-4.377.083c-1.73-.068-3.461-.185-5.193-.178-1.77.008-3.531.3-5.29.473-1.568.152-3.13.341-4.679.633a7.837,7.837,0,0,0-5.829,5.477,3.894,3.894,0,0,0,1.265,4.5c1.16.794,2.637.792,3.99.961l-2-2c-.288,4.829-2.893,13.382,3.3,15.479a10.673,10.673,0,0,0,2.6.452c.42.031.843.027,1.262.065a4.032,4.032,0,0,1,.447.073,9.211,9.211,0,0,0,5.166,1.19c1.908-.285,3.5-1.475,5.389-1.82,2.009-.368,4-.228,5.889-1.151,4.144-2.023,4.766-6.871,4.787-10.975.014-2.574-3.986-2.577-4,0Z"/><path class="c" d="M286.908,177.343c.2-.045.4-.081.6-.121.507-.1-.44.038.074-.013.356-.035.711-.064,1.069-.08.716-.03,1.433-.023,2.15-.027a14.918,14.918,0,0,0,4.56-.564,2,2,0,0,0-1.064-3.857,8.45,8.45,0,0,1-1.014.267c-.1.019-.2.037-.3.053q-.339.051.087-.009a2.121,2.121,0,0,1-.45.045c-.708.059-1.42.064-2.131.066a21.01,21.01,0,0,0-4.649.383,2.018,2.018,0,0,0-1.4,2.461,2.044,2.044,0,0,0,2.46,1.4Z"/><path class="d" d="M346.673,166.176c-5.469,5.041-14.094,6.159-21.078,7.592-3.888.8-25.7,3.954-31.482,3.8-1.629-4.643-4.77-18.259-4.661-22.548,6.366-1.539,12.618-2.325,19.136-3.624,5.18-1.032,13.92-2.983,19.63-4.1-.161-3.652.336-4.843-.24-8.13-1.723-9.83-2.976-34.092,12.323-33.813,7.563.5,12.335,8.157,13.806,14.9,1.662,7.618-.635,20.222-1.038,29.066-.622,6.566-1.247,10.907-4.963,15.359A15.951,15.951,0,0,1,346.673,166.176Z"/><path class="c" d="M330.2,147.084c-.05-1.669.084-3.33.06-5a29.5,29.5,0,0,0-.49-4.251c-.17-1.063-.211-1.373-.337-2.491q-.18-1.612-.289-3.232a50.5,50.5,0,0,1,.69-13.865A20.654,20.654,0,0,1,332,112.185a9.534,9.534,0,0,1,3.672-3.808,8.558,8.558,0,0,1,5.962-.821,12.17,12.17,0,0,1,6.955,4.988c3.78,5.306,4.329,11.445,4.038,17.768-.174,3.777-.572,7.54-.939,11.3-.342,3.512-.5,7.045-.909,10.549a22.773,22.773,0,0,1-2.462,8.734,16.354,16.354,0,0,1-6.748,6.4c-5.257,2.768-11.539,3.654-17.324,4.7-4.285.776-8.611,1.36-12.926,1.93-4.938.653-9.905,1.316-14.882,1.588-.772.042-1.545.072-2.319.055l1.929,1.468a96.76,96.76,0,0,1-2.948-11.245c-.763-3.517-1.7-7.183-1.642-10.771l-1.468,1.929c7.237-1.73,14.635-2.675,21.917-4.193,5.979-1.246,11.938-2.6,17.937-3.745,2.526-.482,1.457-4.338-1.063-3.857-6,1.145-11.958,2.5-17.937,3.745-7.282,1.517-14.681,2.463-21.917,4.193a2.033,2.033,0,0,0-1.469,1.928c-.062,3.828.918,7.793,1.715,11.512a98.1,98.1,0,0,0,3.018,11.568,2.069,2.069,0,0,0,1.928,1.468c4.718.1,9.527-.671,14.194-1.256,5.243-.656,10.485-1.368,15.7-2.236,5.694-.948,11.636-1.925,16.989-4.137a20.354,20.354,0,0,0,13.123-15.44,94.861,94.861,0,0,0,1.225-11.182c.327-3.871.774-7.732,1.069-11.606.542-7.127.561-14.243-2.856-20.721-3.131-5.933-9.04-10.582-16.04-9.419-4.947.823-8.3,4.59-10.139,9.04-1.929,4.677-2.393,9.949-2.386,14.965a70.16,70.16,0,0,0,.388,7.217c.247,2.369.827,4.752.883,7.133.04,1.719-.108,3.435-.057,5.157.077,2.568,4.077,2.579,4,0Z"/></svg>