<?xml version="1.0" encoding="utf-8"?>
<!-- Uploaded to: SVG Repo, www.svgrepo.com, Generator: SVG Repo Mixer Tools -->
<svg width="800px" height="800px" viewBox="0 -84.94 331.621 331.621" xmlns="http://www.w3.org/2000/svg"><defs><style>.a{fill:#ffffff;}.b{fill:#211715;}.c{fill:#cfcfcf;}</style></defs><path class="a" d="M166.192,2.8c-25.944.6-69.378,8.84-91.092,16.012-4.307,1.422-8.519,3.675-10.78,6.564-2.577,3.292-3.014,7.536-3.288,13.36-.378,8.045-.734,16.175-.875,24.218-.224,12.713-.442,24.973-.61,36.027a218.261,218.261,0,0,0,.651,25.2c.438,4.334,2.835,8.715,5.222,10.6a58.924,58.924,0,0,0,6.219,4.671c15.245,8.536,72.157,19.511,94.553,19.509s79.308-10.973,94.552-19.509a59.039,59.039,0,0,0,6.22-4.671c2.386-1.884,4.784-6.265,5.222-10.6a218.261,218.261,0,0,0,.651-25.2c-.168-11.054-.386-23.314-.61-36.027-.142-8.043-.5-16.173-.875-24.218-.274-5.824-.712-10.068-3.288-13.36-2.261-2.889-6.473-5.142-10.78-6.564C235.57,11.641,192.136,3.405,166.192,2.8Z"/><path class="b" d="M271.02,135.584c11.8-4.625,23.058-10.662,32.705-18.961a79.659,79.659,0,0,0,22.177-31.7,81.341,81.341,0,0,0,5.123-39.436c-.866-6.78-2.442-13.645-5.891-19.619a27.628,27.628,0,0,0-14.218-12.1c-14.615-5.591-29.623,1.9-41.57,10.063a2.871,2.871,0,0,0-1,3.831,2.827,2.827,0,0,0,3.831,1C281.92,22,293.73,15.25,305.9,18.088A21.888,21.888,0,0,1,318.755,26.3c3.655,5,5.358,11.186,6.37,17.218,4.019,23.959-4.937,49.973-22.534,66.6-9.437,8.918-21.028,15.353-33.06,20.068a2.883,2.883,0,0,0-1.955,3.444,2.819,2.819,0,0,0,3.444,1.956Z"/><path class="b" d="M62.073,130.184c-10.723-4.2-21.134-9.763-29.93-17.26A73.845,73.845,0,0,1,11.409,84.207,78.267,78.267,0,0,1,5.922,47.788c1.052-11.081,4.74-24.05,16.083-28.558,13.2-5.246,26.624,2.047,37.427,9.431a2.8,2.8,0,1,0,2.826-4.835C51.252,16.3,38.285,9.609,24.574,12.607a27.259,27.259,0,0,0-15.39,9.328c-4.245,5.286-6.533,11.835-7.8,18.428-5.05,26.158,4.012,54.85,23.238,73.3,10.249,9.833,22.82,16.771,35.967,21.923a2.821,2.821,0,0,0,3.445-1.956,2.866,2.866,0,0,0-1.956-3.444Z"/><path class="c" d="M246.7,37.116l.035,5.844a3.1,3.1,0,0,0,.879,2.121,3,3,0,0,0,4.243,0,3.106,3.106,0,0,0,.878-2.121l-.035-5.844a3.1,3.1,0,0,0-.879-2.121,3,3,0,0,0-4.243,0,3.1,3.1,0,0,0-.878,2.121Z"/><path class="c" d="M246.823,57.3l.036,5.844a3.1,3.1,0,0,0,.878,2.121,3,3,0,0,0,4.243,0,3.1,3.1,0,0,0,.879-2.121l-.036-5.844a3.1,3.1,0,0,0-.878-2.121,3,3,0,0,0-4.243,0,3.1,3.1,0,0,0-.879,2.121Z"/><path class="c" d="M246.946,77.492l.035,5.843a3.1,3.1,0,0,0,.879,2.122,3,3,0,0,0,4.242,0,3.1,3.1,0,0,0,.879-2.122l-.035-5.843a3.108,3.108,0,0,0-.879-2.122,3,3,0,0,0-4.243,0,3.1,3.1,0,0,0-.878,2.122Z"/><path class="c" d="M247.068,97.679l.036,5.844a3.1,3.1,0,0,0,.878,2.121,3,3,0,0,0,4.243,0,3.107,3.107,0,0,0,.879-2.121l-.036-5.844a3.1,3.1,0,0,0-.879-2.121,3,3,0,0,0-4.242,0,3.1,3.1,0,0,0-.879,2.121Z"/><path class="c" d="M247.191,117.867l.035,5.844a3.1,3.1,0,0,0,.879,2.121,3,3,0,0,0,4.242,0,3.1,3.1,0,0,0,.879-2.121l-.035-5.844a3.1,3.1,0,0,0-.879-2.121,3,3,0,0,0-4.243,0,3.1,3.1,0,0,0-.878,2.121Z"/><path class="b" d="M166.192,0a269,269,0,0,0-31.567,3Q117.662,5.431,100.9,9.117c-5.161,1.133-10.3,2.356-15.411,3.718a118.14,118.14,0,0,0-13.14,4c-5.675,2.249-10.83,5.673-12.77,11.735A35.57,35.57,0,0,0,58.3,37.421c-.2,3.565-.339,7.135-.485,10.7-.6,14.6-.72,29.212-.956,43.818-.111,6.823-.284,13.652-.136,20.476.081,3.761.256,7.526.627,11.27a21.707,21.707,0,0,0,3.121,9.551c1.6,2.538,3.836,4.264,6.166,6.086a29.219,29.219,0,0,0,5.235,3.4,78.932,78.932,0,0,0,9.3,3.683,250.626,250.626,0,0,0,25.284,6.787q14.648,3.271,29.5,5.555a252.3,252.3,0,0,0,25.6,2.885,129.852,129.852,0,0,0,21.441-1.061c9.606-1.11,19.166-2.643,28.666-4.441,9.553-1.809,19.069-3.88,28.459-6.411,6.98-1.882,14.119-3.9,20.626-7.109a31.539,31.539,0,0,0,5.635-3.781,22.369,22.369,0,0,0,5.748-5.932,23.274,23.274,0,0,0,3-10.195c.331-3.74.491-7.494.555-11.248.234-13.86-.289-27.756-.533-41.614-.13-7.407-.291-14.809-.6-22.211-.153-3.685-.278-7.375-.516-11.055a30.65,30.65,0,0,0-1.442-8.614c-2.207-5.992-7.6-9.3-13.357-11.426-4.219-1.557-8.618-2.716-12.963-3.864A409.68,409.68,0,0,0,180.325.888c-4.7-.443-9.413-.772-14.133-.887-3.605-.088-3.6,5.512,0,5.6a255.578,255.578,0,0,1,29.89,2.771q16.7,2.385,33.195,5.988a262.6,262.6,0,0,1,27.262,7.153,24.4,24.4,0,0,1,7.512,3.8,9.885,9.885,0,0,1,3.54,5.385,36.458,36.458,0,0,1,.961,8.04q.261,5.434.478,10.872c.557,14.1.667,28.223.9,42.333.108,6.663.275,13.33.146,19.994-.069,3.593-.23,7.186-.546,10.766a16.442,16.442,0,0,1-2.882,8.363c-1.385,1.918-3.648,3.438-5.548,4.813a24.525,24.525,0,0,1-4.124,2.347c-.336.155-.674.3-1.012.453a2.854,2.854,0,0,1-.409.174q-1.065.433-2.139.842c-1.605.606-3.228,1.166-4.859,1.7-8.267,2.7-16.741,4.775-25.229,6.647q-14.256,3.142-28.7,5.356a232.041,232.041,0,0,1-24.018,2.649,128.164,128.164,0,0,1-20.645-1.008c-8.864-1-17.972-2.47-27.09-4.182-9.292-1.746-18.547-3.743-27.69-6.155-3.891-1.026-7.764-2.129-11.588-3.384-1.62-.532-3.231-1.092-4.825-1.7-.711-.271-1.415-.557-2.12-.842-.612-.247.423.184.039.017l-.437-.19q-.5-.22-1-.453a24.421,24.421,0,0,1-4.274-2.5c-1.9-1.411-4.127-2.912-5.456-4.905a17.793,17.793,0,0,1-2.725-8.782c-.3-3.575-.439-7.161-.5-10.748-.217-13.619.288-27.27.528-40.887.127-7.239.273-14.474.566-21.708.146-3.589.294-7.179.483-10.766a30.418,30.418,0,0,1,1.1-7.789,9.958,9.958,0,0,1,3.7-5.015,26.653,26.653,0,0,1,7.657-3.7c4.129-1.347,8.314-2.519,12.517-3.609A402.285,402.285,0,0,1,152.4,6.456c4.586-.427,9.183-.743,13.788-.855C169.789,5.514,169.8-.087,166.192,0Z"/><path class="c" d="M79.683,37.116l-.035,5.844a3.083,3.083,0,0,0,.878,2.121,3,3,0,0,0,4.243,0,3.13,3.13,0,0,0,.879-2.121l.035-5.844a3.086,3.086,0,0,0-.879-2.121,3,3,0,0,0-4.242,0,3.132,3.132,0,0,0-.879,2.121Z"/><path class="c" d="M79.561,57.3l-.036,5.844a3.086,3.086,0,0,0,.879,2.121,3,3,0,0,0,4.242,0,3.132,3.132,0,0,0,.879-2.121l.036-5.844a3.091,3.091,0,0,0-.879-2.121,3,3,0,0,0-4.243,0,3.135,3.135,0,0,0-.878,2.121Z"/><path class="c" d="M79.438,77.492,79.4,83.335a3.09,3.09,0,0,0,.878,2.122,3,3,0,0,0,4.243,0,3.132,3.132,0,0,0,.879-2.122l.035-5.843a3.087,3.087,0,0,0-.879-2.122,3,3,0,0,0-4.242,0,3.132,3.132,0,0,0-.879,2.122Z"/><path class="c" d="M79.316,97.679l-.036,5.844a3.091,3.091,0,0,0,.879,2.121,3,3,0,0,0,4.243,0,3.135,3.135,0,0,0,.878-2.121l.036-5.844a3.091,3.091,0,0,0-.879-2.121,3,3,0,0,0-4.243,0,3.135,3.135,0,0,0-.878,2.121Z"/><path class="c" d="M79.193,117.867l-.035,5.844a3.09,3.09,0,0,0,.878,2.121,3,3,0,0,0,4.243,0,3.132,3.132,0,0,0,.879-2.121l.035-5.844a3.088,3.088,0,0,0-.878-2.121,3,3,0,0,0-4.243,0,3.13,3.13,0,0,0-.879,2.121Z"/></svg>