<?xml version="1.0" encoding="utf-8"?>
<!-- Uploaded to: SVG Repo, www.svgrepo.com, Generator: SVG Repo Mixer Tools -->
<svg width="800px" height="800px" viewBox="0 -92.76 426.64 426.64" xmlns="http://www.w3.org/2000/svg"><defs><style>.a{fill:#ffffff;}.b{fill:#b5886a;}.c{fill:#211715;}.d{fill:#cfcfcf;}.e{fill:#ececec;}.f{fill:#645d5c;}.g{fill:#ffde7f;}.h{fill:#d9d9d9;}.i{fill:#c6c6c6;}</style></defs><path class="a" d="M189.762,56.466A4.043,4.043,0,0,1,193,55.519a3.821,3.821,0,0,1,2.746,1.826,5.41,5.41,0,0,1,.566,2.172A16.194,16.194,0,0,1,194.66,68.1,10.272,10.272,0,0,1,192,71.587a6.81,6.81,0,0,1-3.171,1.43l-.536.082c-.267.976-.56,1.8-.7,2.232-.919,2.495-6.043,11.1-12.5,14.3a38.848,38.848,0,0,0,.609,6.359c.345,1.967.237,3.725,2.972,4.713.181.065,8.239,3.272,8.516,3.386,0,0,.809,14.831-25.307,14.831S138.7,103.675,138.7,103.675c.527-.179,7.9-2.911,8.077-2.976,2.735-.988,2.627-2.746,2.972-4.713a38.5,38.5,0,0,0,.605-6.305,23.854,23.854,0,0,1-7.671-6.267,27.609,27.609,0,0,1-5.25-10.239l-1.029-.158a6.814,6.814,0,0,1-3.171-1.43,10.272,10.272,0,0,1-2.66-3.491,16.184,16.184,0,0,1-1.65-8.579,5.393,5.393,0,0,1,.565-2.172,3.82,3.82,0,0,1,2.747-1.826,4.041,4.041,0,0,1,3.236.947S133.357,30.1,160.616,30.1,189.762,56.466,189.762,56.466Z"/><path class="b" d="M147.651,15.065c-18.917,5.352-19.887,30.137-20.36,33.107-.477,3-.421,6.052-.773,9.066-.692,5.935-2.944,11.587-4.273,17.421s-1.2,12.457,1.758,17.709c2.246,4,8.542,7.156,14.433,7.9l5.121,1.626,3.219-1.19c2.735-.988,2.627-2.746,2.972-4.713a38.686,38.686,0,0,0,.607-6.305,23.847,23.847,0,0,1-7.673-6.267,27.51,27.51,0,0,1-5.244-10.238l-1.035-.159a6.814,6.814,0,0,1-3.171-1.43,10.272,10.272,0,0,1-2.66-3.491,16.184,16.184,0,0,1-1.65-8.579,5.393,5.393,0,0,1,.565-2.172,3.82,3.82,0,0,1,2.747-1.826,4.07,4.07,0,0,1,2.828.635c2.4-1.86,21.036-19.71,22.771-21.773,6.174-1.593,11.379,2.113,15.563,5.412a34.8,34.8,0,0,1,9.609,12.48,46.43,46.43,0,0,1,4.678,22.362c.675.142-5.049,11.265-12.6,15a38.7,38.7,0,0,0,.608,6.354c.238,1.359.26,2.618,1.153,3.593,8.532-.1,10.778-.71,16.479-5.108,3.414-2.633,5.519-7.051,6.5-11.155A42.342,42.342,0,0,0,200.5,70.74c-.8-12.682-3.088-25.7-7.683-37.609a36.412,36.412,0,0,0-6.715-10.843c-4.25-4.743-9.124-7.3-15.333-9.168a45.547,45.547,0,0,0-8.523-1.046c-5.078-.351-9.809,1.332-14.6,2.991"/><path class="c" d="M153.1,28.882a17.261,17.261,0,0,1,1.466,3.032c.032.075.176.416.028.065s0-.008.027.067c.074.177.146.353.218.53q.212.519.413,1.044c.233.609.459,1.222.652,1.845a2,2,0,0,0,3.858-1.063,47.056,47.056,0,0,0-1.706-4.421,17.619,17.619,0,0,0-1.5-3.118,2.143,2.143,0,0,0-1.195-.919,2,2,0,0,0-2.259,2.938Z"/><path class="c" d="M156.419,32.967c-2.37,2.785-5.209,5.252-7.835,7.789-3.736,3.609-7.492,7.2-11.3,10.731-1.188,1.1-2.359,2.257-3.637,3.255a2.012,2.012,0,0,0,0,2.829,2.051,2.051,0,0,0,2.828,0c2.945-2.3,5.594-5.069,8.3-7.635q5.632-5.338,11.173-10.773c1.113-1.1,2.285-2.176,3.3-3.368a2.052,2.052,0,0,0,0-2.828,2.016,2.016,0,0,0-2.828,0Z"/><path class="c" d="M158.365,36.31c4.441-1.064,8.45,1.08,11.947,3.628a33.182,33.182,0,0,1,9.043,9.764,44.162,44.162,0,0,1,6.173,26.917,38.046,38.046,0,0,1-5.112,15.3c-1.3,2.227,2.153,4.242,3.454,2.019a43.528,43.528,0,0,0,4.907-30.787,49.6,49.6,0,0,0-5.555-14.763,37.624,37.624,0,0,0-10.133-11.338c-4.606-3.482-9.912-6-15.788-4.595-2.5.6-1.442,4.458,1.064,3.858Z"/><path class="c" d="M147.119,13.137c-12.235,3.546-18.447,15.174-20.7,26.935-.38,1.98-.658,3.979-.883,5.982-.063.553-.126,1.107-.182,1.661-.019.192-.1.625.027-.177-.06.368-.109.738-.158,1.108-.177,1.347-.281,2.7-.362,4.053a51.77,51.77,0,0,1-.918,7.852c-.532,2.478-1.246,4.91-1.95,7.343-1.383,4.771-2.69,9.576-2.539,14.59.147,4.894,1.48,10.374,5.186,13.821,3.739,3.476,8.817,5.289,13.8,5.958,1.073.144,2-1.023,2-2a2.051,2.051,0,0,0-2-2,20.521,20.521,0,0,1-10.97-4.787c-2.835-2.63-3.827-6.84-4-10.575-.215-4.66.969-9.065,2.251-13.5a68.875,68.875,0,0,0,2.994-14.309c.194-2.755.436-5.486.732-8.229.074-.683.151-1.366.236-2.047.013-.1.079-.6.046-.352s.055-.391.067-.472q.1-.709.222-1.418a45.545,45.545,0,0,1,4.3-13.662c2.982-5.674,7.622-10.108,13.865-11.917,2.468-.715,1.418-4.577-1.063-3.857Z"/><path class="c" d="M148.182,16.994c4.317-1.495,8.742-3.112,13.378-2.954a36.169,36.169,0,0,1,10.807,1.7,29.4,29.4,0,0,1,9.81,5.472,33.232,33.232,0,0,1,7.682,10.146,68.4,68.4,0,0,1,4.461,12.883,126.5,126.5,0,0,1,2.872,13.911c.686,4.557,1.142,9.159,1.379,13.762.234,4.541.1,9.1-1.422,13.43a18.218,18.218,0,0,1-3.042,5.589,20.3,20.3,0,0,1-4.653,3.882c-3.141,2.05-6.376,2.577-10.075,2.713-2.567.094-2.579,4.095,0,4,3.7-.136,7.315-.565,10.614-2.367a22.972,22.972,0,0,0,8.93-8.192c5.052-8.547,3.94-19.078,2.842-28.508a121.45,121.45,0,0,0-6.933-29.642c-3.261-8.472-9.446-15.835-17.838-19.528a34.928,34.928,0,0,0-6.79-2.369,50.213,50.213,0,0,0-6.986-.78c-5.661-.374-10.807,1.166-16.1,3-2.418.837-1.378,4.7,1.063,3.857Z"/><path class="c" d="M172.9,92.537a19.132,19.132,0,0,0,8.8-5.344,39.6,39.6,0,0,0,5.954-7.635,2,2,0,1,0-3.454-2.019,32.623,32.623,0,0,1-5.184,6.682c-.551.55-1.124,1.079-1.722,1.579a13.488,13.488,0,0,1-1.6,1.177,16.79,16.79,0,0,1-2.035,1.124c-.381.179.21-.062-.221.092-.176.063-.351.13-.53.189-.353.117-.711.214-1.073.3a2,2,0,0,0,1.063,3.857Z"/><path class="c" d="M136.885,55.052a6.081,6.081,0,0,0-7.586-.406c-2.354,1.751-2.606,4.823-2.38,7.543.434,5.225,3.188,11.723,8.952,12.756a2.056,2.056,0,0,0,2.461-1.4,2.017,2.017,0,0,0-1.4-2.46c-3.644-.653-5.283-4.6-5.881-7.871a13.317,13.317,0,0,1-.188-2.6,5.079,5.079,0,0,1,.348-2.263,1.96,1.96,0,0,1,2.842-.474,2.056,2.056,0,0,0,2.829,0,2.016,2.016,0,0,0,0-2.828Z"/><path class="c" d="M134.637,69.824a31.655,31.655,0,0,0,6.754,15.15c3.809,4.51,8.854,7.745,14.789,8.386a2.014,2.014,0,0,0,2-2,2.046,2.046,0,0,0-2-2c-4.977-.537-9.123-3.755-12.208-7.512A27.965,27.965,0,0,1,138.5,68.761a2.018,2.018,0,0,0-2.461-1.4,2.046,2.046,0,0,0-1.4,2.46Z"/><path class="c" d="M157.9,78.862a11.519,11.519,0,0,0,5.549,1.3,9.165,9.165,0,0,0,5.727-1.743A2,2,0,0,0,169.76,77a2.037,2.037,0,0,0-.586-1.415A2.015,2.015,0,0,0,167.76,75a2.345,2.345,0,0,0-1.414.585c.695-.541.01-.035-.207.08-.169.088-.608.227.035,0-.15.052-.3.114-.446.162-.409.132-.839.167-1.247.285.205-.059.36-.043.052-.013-.122.012-.245.022-.367.03-.3.019-.591.027-.887.025-.265,0-.529-.01-.794-.028-.121-.009-.242-.018-.363-.031-.069-.006-.138-.014-.207-.022l.2.026c-.094-.081-.467-.082-.6-.111q-.287-.063-.568-.147c-.163-.049-.322-.107-.483-.163-.437-.15.436.208.04.021-.2-.095-.4-.193-.592-.3a2,2,0,1,0-2.019,3.454Z"/><path class="c" d="M162.137,66.169a24.358,24.358,0,0,1,.577,2.64l-.071-.532a1.65,1.65,0,0,1,.01.365l.071-.532a.836.836,0,0,1-.04.164l.2-.478a.679.679,0,0,1-.058.106l.313-.405a.539.539,0,0,1-.087.085l.405-.313a1.672,1.672,0,0,1-.209.111l.478-.2a1.539,1.539,0,0,1-.353.1l.532-.071a1.41,1.41,0,0,1-.331,0l.532.071c-.125-.017-.247-.047-.372-.064a1.523,1.523,0,0,0-.8-.036,1.48,1.48,0,0,0-.744.238,2,2,0,0,0-.718,2.736l.313.405a2,2,0,0,0,.883.514c.341.046.672.131,1.02.146a3.365,3.365,0,0,0,1.576-.385,2.416,2.416,0,0,0,1.3-1.576,3.668,3.668,0,0,0-.013-1.625c-.143-.85-.34-1.693-.559-2.527a2,2,0,0,0-2.46-1.4,2.021,2.021,0,0,0-1.195.919,2.1,2.1,0,0,0-.2,1.541Z"/><path class="c" d="M148.8,58.521c-.44,1.433-.153,4.728,2.561,5.009,3.588-.022,3.778-4.006,2.571-5.88C152.944,56.116,150.037,55.478,148.8,58.521Z"/><path class="c" d="M177.529,58.521c.441,1.433.154,4.728-2.56,5.009-3.588-.022-3.779-4.006-2.571-5.88C173.386,56.116,176.294,55.478,177.529,58.521Z"/><path class="c" d="M148.354,89.871a49.541,49.541,0,0,1-.669,6.445c-.049.323-.1.648-.17.967-.038.166-.086.328-.133.492-.121.425.124-.147-.044.12-.036.058-.324.488-.163.289s-.223.2-.274.251c.254-.229-.052.025-.173.1-.085.05-.173.094-.26.14-.118.055-.12.061-.008.018l-.215.081c-1.827.692-3.665,1.356-5.5,2.032-.859.317-1.715.646-2.58.945a2.048,2.048,0,0,0-1.4,2.46,2.019,2.019,0,0,0,2.46,1.4c2.086-.72,4.147-1.523,6.216-2.288.761-.282,1.53-.547,2.281-.855a5.806,5.806,0,0,0,3.718-4.479,50.974,50.974,0,0,0,.909-8.111,2,2,0,0,0-4,0Z"/><path class="c" d="M173.088,89.871a57.2,57.2,0,0,0,.839,7.688,5.835,5.835,0,0,0,3.3,4.7c2.167.986,4.444,1.775,6.656,2.655.923.367,1.849.729,2.768,1.1a2.013,2.013,0,0,0,2.461-1.4,2.05,2.05,0,0,0-1.4-2.46c-1.911-.78-3.834-1.528-5.752-2.29-.864-.344-1.727-.691-2.593-1.029l-.172-.067a1.719,1.719,0,0,1-.419-.2c-.085-.047-.166-.1-.249-.149-.455-.273.111.126-.08-.065-.125-.125-.352-.464-.151-.131-.041-.068-.312-.535-.184-.283.119.235-.055-.166-.079-.245-.059-.193-.1-.388-.144-.585a40.465,40.465,0,0,1-.8-7.237,2,2,0,0,0-4,0Z"/><path class="c" d="M138.948,82.507c5.483,1.153,11.353,1.034,16.929,1.088,5.787.056,11.563-.211,17.342-.5a121.069,121.069,0,0,0,12.872-1.156,2.015,2.015,0,0,0,1.4-2.461,2.048,2.048,0,0,0-2.46-1.4c-7.325,1.16-14.872,1.168-22.268,1.468-4.834.2-9.71.065-14.541-.146a52.571,52.571,0,0,1-8.208-.752c-2.511-.529-3.584,3.326-1.063,3.857Z"/><path class="d" d="M150.539,70.566c0,3.076,0,8.151,0,11.242a2.626,2.626,0,0,0,2.636,2.631c4.96-.014,15.182-.047,20-.064a2.624,2.624,0,0,0,2.62-2.638c-.01-3.272-.032-8.186-.043-11.42a2.629,2.629,0,0,0-2.654-2.623c-5.23.047-15.059.185-19.962.238A2.631,2.631,0,0,0,150.539,70.566Z"/><path class="e" d="M168.675,72.6c.223.231.425.483.635.725a8.334,8.334,0,0,0,.7.757,2.06,2.06,0,0,0,2.829,0l.312-.4a1.987,1.987,0,0,0,.273-1.009l-.071-.532a2,2,0,0,0-.514-.883,8.2,8.2,0,0,1-.7-.756c-.21-.242-.412-.494-.635-.725a1.5,1.5,0,0,0-.643-.414,2.056,2.056,0,0,0-2.185.414l-.313.405a1.987,1.987,0,0,0-.273,1.009l.072.532a1.99,1.99,0,0,0,.514.882Z"/><path class="e" d="M162.759,74.57c.721.747,1.376,1.563,2.056,2.347a26.735,26.735,0,0,0,2.261,2.449,2.1,2.1,0,0,0,1.414.586,2.036,2.036,0,0,0,1.414-.586,2,2,0,0,0,0-2.828,26.877,26.877,0,0,1-2.261-2.449c-.68-.785-1.334-1.6-2.056-2.347a2,2,0,0,0-2.828,2.828Z"/><path class="a" d="M329.762,56.466A4.043,4.043,0,0,1,333,55.519a3.821,3.821,0,0,1,2.746,1.826,5.41,5.41,0,0,1,.566,2.172A16.194,16.194,0,0,1,334.66,68.1,10.272,10.272,0,0,1,332,71.587a6.81,6.81,0,0,1-3.171,1.43l-.536.082c-.267.976-.56,1.8-.7,2.232-.919,2.495-6.043,11.1-12.5,14.3a38.848,38.848,0,0,0,.609,6.359c.345,1.967.237,3.725,2.972,4.713.181.065,8.239,3.272,8.516,3.386,0,0,.809,14.831-25.307,14.831S278.7,103.675,278.7,103.675c.527-.179,7.9-2.911,8.077-2.976,2.735-.988,2.627-2.746,2.972-4.713a38.5,38.5,0,0,0,.605-6.305,23.854,23.854,0,0,1-7.671-6.267,27.609,27.609,0,0,1-5.25-10.239l-1.029-.158a6.814,6.814,0,0,1-3.171-1.43,10.272,10.272,0,0,1-2.66-3.491,16.184,16.184,0,0,1-1.65-8.579,5.393,5.393,0,0,1,.565-2.172,3.82,3.82,0,0,1,2.747-1.826,4.041,4.041,0,0,1,3.236.947S273.357,30.1,300.616,30.1,329.762,56.466,329.762,56.466Z"/><path class="b" d="M271.027,74.773a12.761,12.761,0,0,1,.947-4.456,8.252,8.252,0,0,0,1.258,1.27,6.814,6.814,0,0,0,3.171,1.43l1.034.159a27.529,27.529,0,0,0,5.245,10.238,25.523,25.523,0,0,0,5.743,5.178c.805,7.819-17.884,7.3-16.84,4.635,2.149-1.219,2.639-4.189,2.057-6.59s-1.665-4.777-2.168-7.2A19.543,19.543,0,0,1,271.027,74.773Z"/><path class="c" d="M269.932,70.072c-1.665,4.5-.762,9.292.738,13.7.634,1.864,1.539,3.92,1.076,5.925a3,3,0,0,1-.921,1.645c-.541.479-.983.659-1.191,1.416a2.5,2.5,0,0,0-.018,1.254c.521,2.219,3.352,2.641,5.231,2.855a23.31,23.31,0,0,0,8.281-.587c2.986-.761,5.922-2.317,7.037-5.354a2.017,2.017,0,0,0-1.4-2.46,2.042,2.042,0,0,0-2.46,1.4c-.158.431.147-.224-.069.136-.031.052-.353.543-.214.36s-.192.208-.236.252c-.126.124-.254.245-.388.36q-.161.133.049-.032c-.1.073-.2.143-.3.211-.162.1-.321.2-.487.3s-.345.184-.52.272c-.057.028-.566.248-.262.123a16.385,16.385,0,0,1-4.867,1.082,23.275,23.275,0,0,1-2.641.057c-.387-.014-.773-.044-1.159-.075-.1-.007-.639-.074-.182-.012-.167-.022-.333-.049-.5-.079-.3-.054-.595-.116-.887-.2-.126-.036-.252-.089-.38-.119-.4-.095.391.067.042.025a.689.689,0,0,1-.267-.146c-.2-.278.326.341.135.1a1.652,1.652,0,0,1,.34,1.279l-.919,1.195c4.015-2.481,3.559-7.359,2.271-11.246-1.373-4.144-2.657-8.3-1.076-12.573a2.018,2.018,0,0,0-1.4-2.46,2.042,2.042,0,0,0-2.46,1.4Z"/><path class="b" d="M334.245,40.776c-.194-1.448-.423-2.753-.638-3.808-2.813-13.8-16.708-24.749-31.278-23.949-14.571-.8-28.466,10.152-31.279,23.949a39.237,39.237,0,0,0,.022,13.059l1.049,5.515a.685.685,0,0,1,.113-.023,4.061,4.061,0,0,1,2.874.667c5.258-4.9,15.864-12.578,20.947-17.543-.416,2.933-1.894,7.922-.032,7.409,7.775-2.046,15.226-6.17,19.732-12.6a67.534,67.534,0,0,0,3.673,11.175c1.678,3.264,6.561,10.827,10.825,11.482A4.053,4.053,0,0,1,333,55.519a3.431,3.431,0,0,1,.4.084C335.126,51.57,334.868,45.433,334.245,40.776Z"/><path class="c" d="M273,49.5a32.978,32.978,0,0,1-.262-10.474,24.446,24.446,0,0,1,3.461-9.756,29.952,29.952,0,0,1,16.782-13.1,36.361,36.361,0,0,1,10.969-1.191,27.428,27.428,0,0,1,10.574,2.214,29.986,29.986,0,0,1,15.4,14.846,33.334,33.334,0,0,1,2.548,10.672c.4,4.067.587,8.491-.991,12.346a2.012,2.012,0,0,0,1.4,2.46,2.05,2.05,0,0,0,2.46-1.4c1.545-3.774,1.548-8.161,1.243-12.166a43.385,43.385,0,0,0-2.021-11.039,33.352,33.352,0,0,0-15.78-18.1,32.981,32.981,0,0,0-11.79-3.66,53.99,53.99,0,0,0-6.283-.178,31.13,31.13,0,0,0-6.206.674,34.042,34.042,0,0,0-20.206,13.263,29.183,29.183,0,0,0-5.283,12.113,36.109,36.109,0,0,0,.133,13.53c.556,2.512,4.414,1.449,3.857-1.063Z"/><path class="c" d="M313.942,34.439a64.754,64.754,0,0,0,3.467,10.584,35,35,0,0,0,6.193,9.038c1.752,1.894,4.575-.94,2.828-2.828A32.023,32.023,0,0,1,320.863,43a61.25,61.25,0,0,1-3.063-9.628c-.643-2.491-4.5-1.435-3.858,1.063Z"/><path class="c" d="M314.107,32.325a29.579,29.579,0,0,1-12.252,9.59,37.369,37.369,0,0,1-3.545,1.368q-1.024.342-2.063.634c-.648.183-1.23,0,.011.545-.2-.088,1.114.3.863.689a5.261,5.261,0,0,0,.032-1.226c.046-.438.126-.871.2-1.3.207-1.149.454-2.291.627-3.447.28-1.874-1.791-3.452-3.343-1.945-6.517,6.324-14.2,11.319-20.869,17.471-1.9,1.749.937,4.572,2.828,2.828,6.671-6.151,14.352-11.147,20.869-17.471l-3.342-1.946c-.2,1.369-.516,2.72-.738,4.086a9.285,9.285,0,0,0-.134,3.858c1,3.624,5.723,1.285,7.968.422,6.475-2.49,12.311-6.409,16.338-12.133,1.484-2.11-1.983-4.111-3.454-2.019Z"/><path class="c" d="M331.176,57.88a1.976,1.976,0,0,1,2.776.366,4.359,4.359,0,0,1,.412,2.214,13.391,13.391,0,0,1-.186,2.757c-.6,3.275-2.237,7.218-5.881,7.871a2.018,2.018,0,0,0-1.4,2.46,2.045,2.045,0,0,0,2.461,1.4c5.765-1.033,8.519-7.531,8.952-12.756.227-2.726-.028-5.786-2.38-7.543a6.077,6.077,0,0,0-7.586.406,2.016,2.016,0,0,0,0,2.828,2.044,2.044,0,0,0,2.829,0Z"/><path class="c" d="M326.787,70.005a15.07,15.07,0,0,1-.881,4.064c-.08.243-.174.484-.245.73-.038.134-.2.461.045-.088-.128.288-.26.574-.4.855a34.737,34.737,0,0,1-2.99,4.807c-2.58,3.537-6.113,7.285-10.48,8.31-2.5.587-1.445,4.445,1.063,3.857,5.385-1.264,9.557-5.66,12.724-9.949,2.731-3.7,4.976-7.889,5.166-12.586.105-2.574-3.9-2.569-4,0Z"/><path class="c" d="M276.885,55.052a6.081,6.081,0,0,0-7.586-.406c-2.354,1.751-2.606,4.823-2.38,7.543.434,5.225,3.188,11.723,8.952,12.756a2.056,2.056,0,0,0,2.461-1.4,2.017,2.017,0,0,0-1.4-2.46c-3.644-.653-5.283-4.6-5.881-7.871a13.317,13.317,0,0,1-.188-2.6,5.079,5.079,0,0,1,.348-2.263,1.96,1.96,0,0,1,2.842-.474,2.056,2.056,0,0,0,2.829,0,2.016,2.016,0,0,0,0-2.828Z"/><path class="c" d="M274.637,69.824a31.655,31.655,0,0,0,6.754,15.15c3.809,4.51,8.854,7.745,14.789,8.386a2.014,2.014,0,0,0,2-2,2.046,2.046,0,0,0-2-2c-4.977-.537-9.123-3.755-12.208-7.512A27.965,27.965,0,0,1,278.5,68.761a2.018,2.018,0,0,0-2.461-1.4,2.046,2.046,0,0,0-1.4,2.46Z"/><path class="c" d="M297.9,78.862a11.519,11.519,0,0,0,5.549,1.3,9.165,9.165,0,0,0,5.727-1.743A2,2,0,0,0,309.76,77a2.037,2.037,0,0,0-.586-1.415A2.015,2.015,0,0,0,307.76,75a2.345,2.345,0,0,0-1.414.585c.695-.541.01-.035-.207.08-.169.088-.608.227.035,0-.15.052-.295.114-.446.162-.409.132-.839.167-1.247.285.2-.059.36-.043.052-.013-.122.012-.245.022-.367.03-.3.019-.591.027-.887.025-.265,0-.529-.01-.794-.028-.121-.009-.242-.018-.363-.031-.069-.006-.138-.014-.207-.022l.2.026c-.094-.081-.467-.082-.6-.111q-.286-.063-.568-.147c-.163-.049-.322-.107-.483-.163-.437-.15.436.208.04.021-.2-.095-.4-.193-.592-.3a2,2,0,1,0-2.019,3.454Z"/><path class="c" d="M302.137,66.169a24.358,24.358,0,0,1,.577,2.64l-.071-.532a1.65,1.65,0,0,1,.01.365l.071-.532a.836.836,0,0,1-.04.164l.2-.478a.679.679,0,0,1-.058.106l.313-.405a.539.539,0,0,1-.087.085l.405-.313a1.672,1.672,0,0,1-.209.111l.478-.2a1.539,1.539,0,0,1-.353.1l.532-.071a1.41,1.41,0,0,1-.331,0l.532.071c-.125-.017-.247-.047-.372-.064a1.523,1.523,0,0,0-.8-.036,1.48,1.48,0,0,0-.744.238,2,2,0,0,0-.718,2.736l.313.405a2,2,0,0,0,.883.514c.341.046.672.131,1.02.146a3.365,3.365,0,0,0,1.576-.385,2.416,2.416,0,0,0,1.3-1.576,3.668,3.668,0,0,0-.013-1.625c-.143-.85-.34-1.693-.559-2.527a2,2,0,0,0-2.46-1.4,2.021,2.021,0,0,0-1.195.919,2.1,2.1,0,0,0-.2,1.541Z"/><path class="c" d="M288.8,58.521c-.44,1.433-.153,4.728,2.561,5.009,3.588-.022,3.778-4.006,2.571-5.88C292.944,56.116,290.037,55.478,288.8,58.521Z"/><path class="c" d="M317.529,58.521c.441,1.433.154,4.728-2.56,5.009-3.588-.022-3.779-4.006-2.571-5.88C313.386,56.116,316.294,55.478,317.529,58.521Z"/><path class="a" d="M202.081,190.147c2.384-1.76,7.342-2.1,11.882-2.1,3.782,0,12.759,1.059,12.759,5.7v4.01c0,4.936-.992,28.62-1.571,36.754a3.051,3.051,0,0,1-1.677,2.507c-5.644,2.863-16.254,2.9-21.17-.526a3.064,3.064,0,0,1-1.325-2.461c-.111-6.236-.677-31.266-.612-37.571"/><path class="f" d="M270.426,180.184a28.79,28.79,0,0,0-.059-4.892c-.487-3.882-.874-8.513-1.1-14.17l-1.041-18.355c-5.9-1.427-12.862-2.737-19.021-3.6-2.164-.476-1.571-2.321-.743-4.624.949-3.185.813-5.726,1.633-8.922a38.434,38.434,0,0,1,2.782-6.379c2.18-3.605,5.672-6.2,9.2-8.51a91.891,91.891,0,0,1,15.1-7.811c12.5,9.229,35.707,11.193,50.826.287a89.252,89.252,0,0,1,14.443,7.524c3.524,2.308,7.017,4.905,9.2,8.51a38.513,38.513,0,0,1,2.781,6.379c.82,3.2.684,5.737,1.633,8.922.829,2.3,1.421,4.148-.743,4.624-6.477.905-13.847,2.308-19.928,3.821.23,6.795-.321,15.16-.57,21.481v14.905"/><path class="a" d="M194.579,180.2a28.8,28.8,0,0,1,.057-4.908,243.289,243.289,0,0,0,1.221-32.306c.59-.138.923-.219.923-.219,5.21-1.261,11.253-2.43,16.837-3.279-.358,7.14.715,17.138.872,25.27.072,3.717.022,7.33.077,11.109.077,1.38.133,2.86.163,4.337"/><path class="a" d="M130.919,180.2a28.887,28.887,0,0,0-.058-4.908,243.289,243.289,0,0,1-1.221-32.306c-.589-.138-.923-.219-.923-.219-5.209-1.261-11.252-2.43-16.837-3.279.359,7.14-.715,17.138-.872,25.27-.072,3.717-.022,7.33-.077,11.109-.076,1.38-.133,2.859-.163,4.337"/><path class="f" d="M194.579,180.2a28.8,28.8,0,0,1,.057-4.908,243.289,243.289,0,0,0,1.221-32.306c.59-.138.923-.219.923-.219,5.9-1.427,12.863-2.737,19.021-3.6,2.164-.476,1.572-2.321.743-4.624-.949-3.185-.813-5.726-1.633-8.922a38.513,38.513,0,0,0-2.781-6.379c-2.18-3.605-5.673-6.2-9.2-8.51a89.252,89.252,0,0,0-14.443-7.524c-15.12,10.906-38.328,8.942-50.826-.287a91.891,91.891,0,0,0-15.1,7.811c-3.524,2.308-7.016,4.905-9.2,8.51a38.513,38.513,0,0,0-2.781,6.379c-.82,3.2-.684,5.737-1.633,8.922-.828,2.3-1.421,4.148.743,4.624,6.159.861,13.124,2.171,19.021,3.6l.921.223a243.582,243.582,0,0,0,1.223,32.3,28.887,28.887,0,0,1,.058,4.908"/><path class="c" d="M193.419,137.379c.028.176.055.352.079.529-.051-.379.026.245.036.344.057.515.1,1.031.143,1.547.092,1.177.15,2.355.193,3.534.1,2.871.116,5.744.086,8.616-.066,6.091-.307,12.189-.807,18.26a74.5,74.5,0,0,0-.57,9.991c.131,2.561,4.132,2.577,4,0a64.843,64.843,0,0,1,.494-9.092c.257-2.929.438-5.864.578-8.8.291-6.123.434-12.268.239-18.4a61.068,61.068,0,0,0-.614-7.594,2.014,2.014,0,0,0-2.46-1.4,2.049,2.049,0,0,0-1.4,2.46Z"/><path class="c" d="M211.577,140.382c-.187,6.311.388,12.624.707,18.921.353,6.957.289,13.938.445,20.9.058,2.57,4.058,2.579,4,0-.156-6.963-.092-13.944-.445-20.9-.319-6.3-.894-12.61-.707-18.921.076-2.575-3.924-2.572-4,0Z"/><path class="c" d="M129.249,140.839c-4.537-1.092-9.116-2.007-13.717-2.78q-1.671-.28-3.346-.534c-.509-.076-1.019-.142-1.527-.224a7.549,7.549,0,0,1-.75-.147c.1-.181.194.308.254.344.215.128-.156.391.032-.1.007-.018.047-.278.052-.308a8.135,8.135,0,0,1,.384-1.3,21.818,21.818,0,0,0,.846-3.314,44.413,44.413,0,0,1,1.114-6.522,27.191,27.191,0,0,1,2.718-6.044c2.262-3.549,5.958-6.012,9.454-8.211a99.087,99.087,0,0,1,13.911-7.047h-2.019a42.969,42.969,0,0,0,19.026,7.375,50.786,50.786,0,0,0,22.346-1.485,40.154,40.154,0,0,0,11.472-5.6h-2.018a98.615,98.615,0,0,1,12.242,6.136c3.527,2.139,7.236,4.512,9.773,7.834a22.35,22.35,0,0,1,2.951,5.821,29.569,29.569,0,0,1,1.386,6.506,28.573,28.573,0,0,0,.539,2.949c.242.973.722,1.918.879,2.91.007.045.034.294.044.32.115.282-.19.223.039.085.656-.4.106-.3-.28-.227-1.09.2-2.2.32-3.294.494-5.206.828-10.386,1.841-15.511,3.074-2.5.6-1.443,4.46,1.063,3.857,3.643-.877,7.313-1.638,11-2.306q2.694-.487,5.4-.907c1.62-.25,3.5-.238,4.684-1.543a4.278,4.278,0,0,0,.711-3.911c-.364-1.7-1.024-3.294-1.3-5.034-.263-1.668-.407-3.353-.76-5.007a28.389,28.389,0,0,0-2-5.432c-2.949-6.616-9.376-10.778-15.48-14.206a102,102,0,0,0-9.647-4.685,2.514,2.514,0,0,0-2.737.029c-.615.382-1.2.817-1.815,1.2a36.882,36.882,0,0,1-4.148,2.2c-10.6,4.8-23.54,4.633-34.33.546a35.027,35.027,0,0,1-6.968-3.567A6.758,6.758,0,0,0,138.2,101c-.971-.268-1.939.369-2.8.742-1.626.706-3.243,1.433-4.84,2.2a79.983,79.983,0,0,0-9.684,5.515,32.952,32.952,0,0,0-7.768,6.7,25.256,25.256,0,0,0-4.9,11.12c-.319,1.947-.463,3.919-.939,5.839-.395,1.591-1.188,3.106-1.028,4.788a3.688,3.688,0,0,0,3.355,3.25c2.071.358,4.158.629,6.229.99,4.145.724,8.27,1.564,12.361,2.548,2.5.6,3.569-3.254,1.064-3.857Z"/><path class="c" d="M128.221,136.316a92.114,92.114,0,0,0-.684,15.119c.053,6.211.294,12.43.8,18.622a76.11,76.11,0,0,1,.584,10.143c-.132,2.572,3.868,2.565,4,0a63.362,63.362,0,0,0-.482-8.945c-.259-2.919-.442-5.846-.582-8.774-.291-6.035-.433-12.09-.261-18.13.039-1.358.1-2.716.191-4.071.077-1.106.185-2.213.293-2.9a2.062,2.062,0,0,0-1.4-2.46,2.016,2.016,0,0,0-2.46,1.4Z"/><path class="c" d="M109.92,140.382c.187,6.311-.387,12.624-.707,18.921-.353,6.957-.289,13.938-.445,20.9-.058,2.575,3.942,2.574,4,0,.156-6.963.093-13.944.445-20.9.319-6.3.894-12.61.707-18.921-.076-2.568-4.076-2.579-4,0Z"/><path class="a" d="M257.224,163.775c2.915-.582,7.935-1.637,12.5-2.623.085,2.1.192,4.065.318,5.9-2.842,2.562-5.293,6.189-10.118,5.9-4.941-.293-4.711-3.469-5.408-6.971l-.33-1.661.792-.123C255.357,164.14,256.147,163.99,257.224,163.775Z"/><path class="c" d="M424.708,178.423q-8.2.013-16.4.011-14.737,0-29.475,0-19.687,0-39.374,0l-45.619-.007-48.652-.011-48.34-.013-44.683-.013-37.807-.011-27.289-.009-13.586,0h-.853c-2.573,0-2.578,4,0,4l9.76,0,24.274.007,35.6.011,43.293.013,47.76.013,48.884.011,46.662.009,41.235,0q16.071,0,32.143,0,9.936,0,19.873-.009l2.594,0c2.573,0,2.578-4,0-4Z"/><path class="a" d="M293.03,163c2.2-1.624,6.78-1.935,10.972-1.935,3.493,0,11.782.979,11.782,5.264v3.7c0,4.558-.916,26.428-1.45,33.94a2.818,2.818,0,0,1-1.55,2.315c-5.212,2.643-15.009,2.68-19.548-.485a2.829,2.829,0,0,1-1.224-2.274c-.1-5.758-.625-28.871-.566-34.694"/><path class="g" d="M292.056,199.615c-.27-13.328,0-22.225.017-25.413,2.05,3.752,14.351,6.317,23.182,2.727.32,4.155-.03,16.2-.8,27.04a2.817,2.817,0,0,1-1.549,2.315c-5.212,2.643-15.01,2.68-19.549-.485a2.831,2.831,0,0,1-1.223-2.274C292.116,202.612,292.09,201.263,292.056,199.615Z"/><path class="c" d="M294.081,164.724c2.078-1.44,4.985-1.522,7.423-1.617a33.864,33.864,0,0,1,5.871.177,13.445,13.445,0,0,1,5.412,1.65,2.265,2.265,0,0,1,.989,1.055,7.356,7.356,0,0,1,.05,1.369c0,6.659-.3,13.313-.586,19.964-.183,4.2-.378,8.405-.614,12.6q-.067,1.211-.143,2.42c-.036.573.071,1.464-.29,1.943-.434.575-1.774.857-2.428,1.05a20.594,20.594,0,0,1-3.431.71,24.138,24.138,0,0,1-7.318-.186c-1.254-.242-4.624-.8-4.962-2.339a20.239,20.239,0,0,1-.072-3.679l-.114-5.622c-.171-8.458-.459-16.932-.38-25.393.025-2.574-3.975-2.577-4,0-.077,8.27.2,16.553.368,24.82q.062,2.986.122,5.973a39.353,39.353,0,0,0,.138,4.506c.4,2.921,3.263,4.286,5.785,5.08a27.54,27.54,0,0,0,15.968-.356,7.589,7.589,0,0,0,3.36-1.979,5.849,5.849,0,0,0,1.2-3.628c.28-4.192.474-8.391.666-12.588.345-7.527.735-15.066.735-22.6,0-2.041-.049-3.913-1.6-5.468-1.737-1.741-4.315-2.528-6.67-2.975a34.889,34.889,0,0,0-7.629-.522c-3.226.1-7.114.27-9.866,2.179-2.1,1.457-.1,4.925,2.019,3.453Z"/><path class="c" d="M296.541,170.594a23.078,23.078,0,0,0,7.124,1.225,23.607,23.607,0,0,0,7.1-.653,2,2,0,1,0-1.063-3.857c-.461.126-.927.227-1.4.307-.113.019-.226.036-.339.053-.2.031-.179.018.009,0-.272.027-.544.061-.817.083a28.116,28.116,0,0,1-3.5.068q-.843-.033-1.683-.114c-.162-.016-.325-.034-.487-.052-.036,0-.422-.052-.216-.025s-.174-.026-.209-.031c-.156-.024-.312-.049-.467-.076a16.573,16.573,0,0,1-3-.784,2.01,2.01,0,0,0-2.46,1.4,2.054,2.054,0,0,0,1.4,2.46Z"/><path class="c" d="M292.361,178.376c2.915,1.942,6.9,2.347,10.3,2.467a33.325,33.325,0,0,0,12.587-1.8,2.056,2.056,0,0,0,1.4-2.461,2.018,2.018,0,0,0-2.461-1.4,30.036,30.036,0,0,1-11.212,1.672,26.312,26.312,0,0,1-4.944-.549,9.893,9.893,0,0,1-3.649-1.381c-2.149-1.431-4.154,2.032-2.019,3.454Z"/><path class="a" d="M303.12,185.949c-1.256.345-1.014,2.09-.105,2.756l1.445,1.852a37.955,37.955,0,0,0,4.464-.293l1.832,3.824a31.99,31.99,0,0,0,9.285-.219c2.514-.4,4.436-3.118,6.244-4.988,1.693-1.75,3.473-4.082,5.837-4.931a52.143,52.143,0,0,1,7.374-2.495,24.045,24.045,0,0,0,7.879-3.952c3.711-2.828,6.5-5.617,7.233-10.245.627-3.948.511-7.849.889-13.392.393-5.768-.189-10.216-.135-14.639-5.39.773-13.323,2.287-19.09,3.585.44,6.832,1.113,16.223,1.113,20.906-2.179,1.37-7.37,6.37-10.366,7.206,0,0-1.064.849-4.281.362-2.636-.4-3.651-3.626-5.574-4.561l-.378-.183-.111,5.106c-.1,4.481-11.956,2.744-12.445,5.63l-1.239,3.468c-3.05.367-3.309,2.07-1.457,3.552Z"/><path class="g" d="M200.9,229.8c-.292-14.434,0-24.068.019-27.521,2.219,4.063,15.541,6.841,25.1,2.953.347,4.5-.032,17.544-.867,29.282a3.051,3.051,0,0,1-1.677,2.507c-5.644,2.863-16.254,2.9-21.17-.526a3.064,3.064,0,0,1-1.325-2.461C200.962,233.046,200.933,231.585,200.9,229.8Z"/><path class="c" d="M288.354,89.871a49.541,49.541,0,0,1-.669,6.445c-.049.323-.1.648-.17.967-.038.166-.086.328-.133.492-.121.425.124-.147-.044.12-.036.058-.324.488-.163.289s-.223.2-.274.251c.254-.229-.052.025-.173.1-.085.05-.173.094-.26.14-.118.055-.12.061-.008.018l-.215.081c-1.827.692-3.665,1.356-5.5,2.032-.859.317-1.715.646-2.58.945a2.048,2.048,0,0,0-1.4,2.46,2.019,2.019,0,0,0,2.46,1.4c2.086-.72,4.147-1.523,6.216-2.288.761-.282,1.53-.547,2.281-.855a5.806,5.806,0,0,0,3.718-4.479,50.974,50.974,0,0,0,.909-8.111,2,2,0,1,0-4,0Z"/><path class="c" d="M313.088,89.871a57.2,57.2,0,0,0,.839,7.688,5.835,5.835,0,0,0,3.3,4.7c2.167.986,4.444,1.775,6.656,2.655.923.367,1.849.729,2.768,1.1a2.013,2.013,0,0,0,2.461-1.4,2.05,2.05,0,0,0-1.4-2.46c-1.911-.78-3.834-1.528-5.752-2.29-.864-.344-1.727-.691-2.593-1.029l-.172-.067a1.719,1.719,0,0,1-.419-.2c-.085-.047-.166-.1-.249-.149-.455-.273.111.126-.08-.065-.125-.125-.352-.464-.151-.131-.041-.068-.312-.535-.184-.283.119.235-.055-.166-.079-.245-.059-.193-.1-.388-.144-.585a40.465,40.465,0,0,1-.8-7.237,2,2,0,1,0-4,0Z"/><path class="c" d="M333.387,137.379a72.911,72.911,0,0,1,.46,13c-.113,4.7-.388,9.4-.576,14.1-.1,2.574,3.9,2.57,4,0,.373-9.307,1.427-18.9-.027-28.155a2.014,2.014,0,0,0-2.46-1.4,2.05,2.05,0,0,0-1.4,2.46Z"/><path class="c" d="M269.217,140.839c-4.537-1.092-9.116-2.007-13.717-2.78q-1.671-.28-3.346-.534c-.508-.076-1.019-.142-1.527-.224a7.6,7.6,0,0,1-.75-.147c.1-.181.195.308.255.344.215.128-.157.391.032-.1.007-.018.046-.278.051-.308a8.238,8.238,0,0,1,.384-1.3,21.7,21.7,0,0,0,.846-3.314,44.283,44.283,0,0,1,1.115-6.522,27.1,27.1,0,0,1,2.718-6.044c2.261-3.549,5.957-6.012,9.454-8.211a99.075,99.075,0,0,1,13.91-7.047h-2.019a42.969,42.969,0,0,0,19.027,7.375A50.782,50.782,0,0,0,318,110.54a40.16,40.16,0,0,0,11.473-5.6h-2.019a98.7,98.7,0,0,1,12.243,6.136c3.526,2.139,7.236,4.512,9.772,7.834a22.384,22.384,0,0,1,2.952,5.821,29.567,29.567,0,0,1,1.385,6.506,28.311,28.311,0,0,0,.54,2.949c.241.973.721,1.918.878,2.91.007.045.034.294.044.32.116.282-.19.223.039.085.656-.4.106-.3-.28-.227-1.089.2-2.2.32-3.293.494-5.207.828-10.386,1.841-15.512,3.074-2.5.6-1.443,4.46,1.063,3.857,3.643-.877,7.314-1.638,11-2.306q2.694-.487,5.4-.907c1.621-.25,3.5-.238,4.684-1.543a4.272,4.272,0,0,0,.711-3.911c-.364-1.7-1.024-3.294-1.3-5.034-.263-1.668-.406-3.353-.76-5.007a28.322,28.322,0,0,0-2-5.432c-2.949-6.616-9.376-10.778-15.48-14.206a101.882,101.882,0,0,0-9.647-4.685,2.514,2.514,0,0,0-2.737.029c-.615.382-1.2.817-1.814,1.2a36.983,36.983,0,0,1-4.149,2.2c-10.6,4.8-23.54,4.633-34.33.546a35.027,35.027,0,0,1-6.968-3.567A6.724,6.724,0,0,0,278.164,101c-.971-.268-1.938.369-2.8.742-1.626.706-3.243,1.433-4.839,2.2a79.983,79.983,0,0,0-9.684,5.515,32.932,32.932,0,0,0-7.768,6.7,25.257,25.257,0,0,0-4.9,11.12c-.319,1.947-.462,3.919-.939,5.839-.395,1.591-1.188,3.106-1.027,4.788a3.687,3.687,0,0,0,3.355,3.25c2.071.358,4.157.629,6.229.99,4.145.724,8.27,1.564,12.361,2.548,2.5.6,3.569-3.254,1.063-3.857Z"/><path class="c" d="M267.726,161.122c.141,3.4.345,6.79.666,10.174a60.033,60.033,0,0,1,.5,8.888c-.134,2.573,3.866,2.565,4,0a59.9,59.9,0,0,0-.5-8.888c-.321-3.384-.525-6.778-.666-10.174-.105-2.565-4.106-2.578-4,0Z"/><path class="h" d="M101.62,84.4c-4.181.029-8.363.015-12.545.014q-11.883,0-23.767-.01l-27.2-.024q-11.635-.011-23.272-.024c-3.842,0-7.713-.147-11.553-.013-.079,0-.158,0-.237,0-2.574,0-2.578,4,0,4q4.789,0,9.579.011l22.241.023q13.557.014,27.115.024,12.31.011,24.62.013c4.78,0,9.561.009,14.342-.01l.68,0c2.573-.018,2.579-4.018,0-4Z"/><path class="h" d="M109.014.114c-4.466.031-8.933.014-13.4.014q-12.843,0-25.686-.01L40.131.094Q27.434.083,14.738.07C10.564.066,6.364-.076,2.192.057c-.086,0-.173,0-.26,0-2.574,0-2.578,4,0,4q5.215,0,10.432.01l24.164.024q14.853.013,29.708.024,13.371.009,26.744.013c5.107,0,10.215.01,15.322-.011l.712,0c2.573-.018,2.578-4.018,0-4Z"/><path class="h" d="M93.658,94.666c-11.932.011-23.864.075-35.8.071Q36.33,94.73,14.8,94.686q-5.878-.011-11.756-.02c-2.574,0-2.578,4,0,4q15.067,0,30.135.047c12.2.016,24.4.07,36.591.014q11.944-.056,23.889-.061c2.574,0,2.579-4,0-4Z"/><path class="h" d="M13.578,17.46c-.171,3.427-.3,6.856-.451,10.284-.05,1.158-.1,2.315-.172,3.472a13.2,13.2,0,0,1-.714,4.66c-.421.915-1.414,1.432-2.134,2.091a6.349,6.349,0,0,0-2.034,3.605c-.666,3.922-.461,8.042-.45,12,.022,8.049-.047,16.1-.06,24.147,0,2.356.3,4.528,2.185,6.167,1.98,1.725,4.513,1.574,7.017,1.6a49.781,49.781,0,0,0,8.78-.267,6.177,6.177,0,0,0,4.607-5.167,35.967,35.967,0,0,0,.084-5.108q-.007-3.418-.018-6.837-.018-6.251-.035-12.5c0-2.807.047-5.615-.035-8.42-.094-3.219.143-7.045-2.513-9.338-.713-.615-1.681-1.121-2.07-1.972a13.252,13.252,0,0,1-.714-4.66c-.168-2.8-.26-5.6-.379-8.392q-.114-2.682-.245-5.364c-.128-2.562-4.129-2.577-4,0,.166,3.31.295,6.621.437,9.932a53.341,53.341,0,0,0,.632,8.05,7.446,7.446,0,0,0,1.827,3.844c.712.725,1.755,1.2,2.347,2.04.679.963.516,2.574.584,3.7.124,2.057.141,4.118.137,6.177-.012,8.18.029,16.36.047,24.54,0,1.265.368,3.428-.3,4.548a4.542,4.542,0,0,1-.881.909c.173-.163-.066.063-.14.1-.194.1.485-.1-.083-.007a27.58,27.58,0,0,1-3.943.189c-2.56.013-5.359-.013-7.751-.163a1.668,1.668,0,0,1-.392-.087c.415.155.056.03-.06-.083.242.237-.321-.285-.286-.251a4.333,4.333,0,0,1-.373-.369,3.534,3.534,0,0,1-.462-2.331c.009-7.73.052-15.46.061-23.19,0-3.488-.078-6.981.158-10.465.117-1.713.118-2.888,1.463-4.021a8.4,8.4,0,0,0,2.51-2.767c1.33-2.834,1.207-6.27,1.343-9.343.162-3.652.3-7.305.48-10.957.129-2.573-3.871-2.566-4,0Z"/><path class="h" d="M10.043,77.7H27.88c2.574,0,2.578-4,0-4H10.043c-2.573,0-2.578,4,0,4Z"/><path class="h" d="M27.88,45.7H10.043c-2.573,0-2.578,4,0,4H27.88c2.574,0,2.578-4,0-4Z"/><path class="h" d="M74.541,32.089c0,4.7-.113,9.4-.118,14.093l2-2q-2.275,0-4.552.013a15.645,15.645,0,0,0-4.035.2A6.287,6.287,0,0,0,63.463,50a81.312,81.312,0,0,0-.042,8.218V76.105a12.54,12.54,0,0,0,.953,5.79,6.271,6.271,0,0,0,2.209,2.538,6.719,6.719,0,0,0,3.792.77c2.924-.006,5.849-.029,8.774-.011,3.27.02,6.541,0,9.812.008,2.616.008,5.389.155,7.323-1.943,2.553-2.769,1.8-7.27,1.768-10.74q-.062-6.349-.151-12.7c-.04-3.171.039-6.368-.109-9.536a6.446,6.446,0,0,0-3.523-5.418,10.545,10.545,0,0,0-4.68-.615c-1.6-.01-3.2-.024-4.8-.025l2,2c0-4.713-.113-9.424-.118-14.137,0-2.573-4-2.578-4,0,0,4.713.113,9.424.118,14.137a2.03,2.03,0,0,0,2,2c1.228,0,2.456.008,3.684.017a17.491,17.491,0,0,1,3.613.05,2.293,2.293,0,0,1,1.405,1.132,1.421,1.421,0,0,1,.3,1.032c.014,2.453.052,4.905.084,7.358.086,6.739.257,13.485.213,20.225-.01,1.468-.437,2.872-2.061,3.129a24.463,24.463,0,0,1-3.81.028c-1.563-.006-3.125-.013-4.688-.01-2.7,0-5.393,0-8.089,0q-1.932,0-3.862.013c-.858,0-2.238.308-2.977-.221-1.14-.816-1.181-2.606-1.181-3.852V51.788c0-1.184-.11-2.739,1.115-3.393.8-.429,2.042-.2,2.925-.2q2.481-.009,4.962-.014a2.03,2.03,0,0,0,2-2c0-4.7.113-9.4.118-14.093,0-2.574-4-2.578-4,0Z"/><path class="h" d="M74.245,30.7a3.128,3.128,0,0,0,2.182,3.229,6.382,6.382,0,0,0,1.609.16q1.058.006,2.113.036c1.3.039,2.6.1,3.906.083a2.855,2.855,0,0,0,1.83-.443,2.42,2.42,0,0,0,.714-.876,4.629,4.629,0,0,0,.4-2.075c-.008-.6-.063-1.2-.08-1.8a4.216,4.216,0,0,0-.4-2,3.922,3.922,0,0,0-3.111-1.739,27.485,27.485,0,0,0-3.383-.141,18.124,18.124,0,0,0-3.333.189,2.723,2.723,0,0,0-2.439,2.613c-.021.921-.008,1.844-.008,2.765a2,2,0,1,0,4,0c0-.909.072-1.845.008-2.752a.523.523,0,0,0,0-.1c.077.075-.11.557-.145.638a1.72,1.72,0,0,1-.342.527c.107-.113-.508.3-.185.154.038-.018-.494.166-.326.137.057-.009.12-.04.176-.055.093-.026.189-.042.284-.063.4-.088-.445.039-.113.012.269-.022.537-.044.806-.055,1.171-.045,2.354-.019,3.525.009.307.008.614.022.92.052.5.049-.348-.072-.021,0,.133.028.266.051.4.086.059.016.118.037.178.052.172.045.157.164-.237-.109a1.257,1.257,0,0,0,.209.109c.232.094-.224-.181-.23-.186a.742.742,0,0,1,.1.1c.047.06-.326-.436-.213-.273.094.137.108.355-.1-.269.127.377,0-.467-.019-.181-.014.211.005.429.012.64.014.384.039.766.058,1.149.015.329-.018.667,0,.993.014.193.047-.3.044-.29a.814.814,0,0,0-.047.214c0,.159.134-.294.132-.289-.071.171-.274.3.145-.162l1.414-.585c-1.776.052-3.55-.053-5.325-.091-.457-.01-.914-.011-1.37-.015-.143,0-.286,0-.428-.01-.063,0-.126-.01-.189-.012-.32-.014.384.1.24.03a.529.529,0,0,0-.146-.036c-.143,0,.4.188.288.126-.26-.139.207.17.224.186-.173-.156.2.267.193.256-.14-.212.142.3.111.288s-.038-.13-.043-.153c-.063-.307-.009.411.027.21a1.67,1.67,0,0,0-.01-.274,2,2,0,0,0-4,0Z"/><path class="h" d="M12.834,17.01a3.074,3.074,0,0,0,2.148,3.169,6.192,6.192,0,0,0,1.561.157q1.008,0,2.016.034c1.242.038,2.484.095,3.727.08a2.814,2.814,0,0,0,1.8-.443,2.4,2.4,0,0,0,.7-.862,4.512,4.512,0,0,0,.393-2.026c-.008-.575-.06-1.148-.077-1.722a4.118,4.118,0,0,0-.392-1.951,3.828,3.828,0,0,0-3.036-1.7,26.537,26.537,0,0,0-3.24-.136,17.448,17.448,0,0,0-3.205.184,2.687,2.687,0,0,0-2.394,2.581c-.02.879-.007,1.759-.007,2.638a2,2,0,0,0,4,0c0-.868.066-1.759.007-2.625a.429.429,0,0,0,0-.1c.076.1-.1.548-.146.645a1.724,1.724,0,0,1-.346.532c.108-.112-.51.311-.194.161.04-.019-.5.171-.333.141.054-.01.114-.038.167-.053.09-.024.181-.04.271-.06.392-.086-.457.042-.131.015.256-.021.511-.043.769-.053,1.117-.043,2.246-.018,3.363.009.293.007.586.021.878.049.486.048-.366-.074-.045-.007.127.026.254.048.38.081.253.068.368.235-.078-.063a1.344,1.344,0,0,0,.2.1c.227.092-.236-.19-.237-.192a.889.889,0,0,1,.093.091c.049.063-.329-.44-.218-.278.094.137.1.351-.107-.279.123.371,0-.481-.021-.2-.013.2,0,.409.011.611.013.366.037.731.055,1.1.015.314-.015.636,0,.948.012.177.025-.3.045-.3a1.635,1.635,0,0,0-.045.2c0,.157.139-.307.136-.3-.074.171-.268.289.152-.173l1.415-.585c-1.7.05-3.388-.051-5.082-.087-.436-.01-.871-.011-1.307-.014-.136,0-.272,0-.408-.01-.06,0-.12-.009-.18-.012-.314-.013.4.1.253.033a.525.525,0,0,0-.139-.035c-.142,0,.41.191.3.13-.256-.138.221.181.232.191-.17-.154.209.279.2.263-.135-.207.151.31.116.3-.017-.007-.037-.127-.041-.146-.064-.3-.006.42.029.225a1.636,1.636,0,0,0-.009-.262,2,2,0,1,0-4,0Z"/><path class="h" d="M41.075,17.46c-.172,3.427-.3,6.856-.452,10.284-.05,1.158-.1,2.315-.172,3.472a13.2,13.2,0,0,1-.714,4.66c-.421.915-1.414,1.432-2.134,2.091a6.349,6.349,0,0,0-2.034,3.605c-.666,3.922-.461,8.042-.45,12,.022,8.049-.047,16.1-.059,24.147,0,2.356.3,4.528,2.184,6.167,1.98,1.725,4.513,1.574,7.017,1.6a49.781,49.781,0,0,0,8.78-.267,6.177,6.177,0,0,0,4.607-5.167,36.116,36.116,0,0,0,.085-5.108q-.009-3.418-.019-6.837-.018-6.251-.035-12.5c-.005-2.807.048-5.615-.035-8.42-.094-3.219.143-7.045-2.513-9.338-.713-.615-1.681-1.121-2.07-1.972a13.252,13.252,0,0,1-.714-4.66c-.168-2.8-.26-5.6-.379-8.392q-.114-2.682-.245-5.364c-.128-2.562-4.129-2.577-4,0,.166,3.31.3,6.621.437,9.932a53.341,53.341,0,0,0,.632,8.05,7.446,7.446,0,0,0,1.827,3.844c.712.725,1.755,1.2,2.347,2.04.68.963.516,2.574.584,3.7.124,2.057.141,4.118.137,6.177-.012,8.18.029,16.36.047,24.54,0,1.265.368,3.428-.3,4.548a4.542,4.542,0,0,1-.881.909c.173-.163-.066.063-.14.1-.194.1.485-.1-.083-.007a27.58,27.58,0,0,1-3.943.189c-2.56.013-5.359-.013-7.751-.163a1.668,1.668,0,0,1-.392-.087c.415.155.056.03-.06-.083.242.237-.321-.285-.286-.251a4.333,4.333,0,0,1-.373-.369,3.534,3.534,0,0,1-.462-2.331c.009-7.73.052-15.46.061-23.19,0-3.488-.078-6.981.158-10.465.117-1.713.118-2.888,1.463-4.021a8.4,8.4,0,0,0,2.51-2.767c1.33-2.834,1.207-6.27,1.343-9.343.162-3.652.3-7.305.481-10.957.128-2.573-3.872-2.566-4,0Z"/><path class="h" d="M37.539,77.7H55.376c2.574,0,2.578-4,0-4H37.539c-2.573,0-2.578,4,0,4Z"/><path class="h" d="M55.376,45.7H37.539c-2.573,0-2.578,4,0,4H55.376c2.574,0,2.578-4,0-4Z"/><path class="h" d="M40.33,17.01a3.074,3.074,0,0,0,2.148,3.169,6.192,6.192,0,0,0,1.561.157q1.008,0,2.016.034c1.242.038,2.484.095,3.727.08a2.814,2.814,0,0,0,1.8-.443,2.385,2.385,0,0,0,.7-.862,4.512,4.512,0,0,0,.393-2.026c-.008-.575-.06-1.148-.076-1.722a4.131,4.131,0,0,0-.393-1.951,3.828,3.828,0,0,0-3.036-1.7,26.537,26.537,0,0,0-3.24-.136,17.448,17.448,0,0,0-3.2.184,2.687,2.687,0,0,0-2.394,2.581c-.02.879-.007,1.759-.007,2.638a2,2,0,1,0,4,0c0-.868.067-1.759.007-2.625a.429.429,0,0,0,0-.1c.076.1-.1.548-.146.645a1.74,1.74,0,0,1-.345.532c.107-.112-.511.311-.2.161.04-.019-.5.171-.333.141.054-.01.114-.038.167-.053.09-.024.181-.04.271-.06.392-.086-.456.042-.131.015.256-.021.512-.043.769-.053,1.117-.043,2.246-.018,3.363.009.293.007.586.021.878.049.486.048-.366-.074-.045-.007.127.026.254.048.38.081.253.068.368.235-.078-.063a1.344,1.344,0,0,0,.2.1c.227.092-.236-.19-.237-.192a.8.8,0,0,1,.093.091c.049.063-.329-.44-.218-.278.094.137.1.351-.107-.279.123.371,0-.481-.021-.2-.013.2,0,.409.011.611.013.366.037.731.055,1.1.015.314-.015.636,0,.948.012.177.025-.3.046-.3a1.473,1.473,0,0,0-.046.2c0,.157.14-.307.136-.3-.074.171-.268.289.153-.173l1.414-.585c-1.7.05-3.388-.051-5.082-.087-.436-.01-.871-.011-1.307-.014-.136,0-.272,0-.408-.01-.06,0-.12-.009-.18-.012-.314-.013.4.1.253.033a.525.525,0,0,0-.139-.035c-.142,0,.41.191.3.13-.256-.138.221.181.232.191-.17-.154.209.279.2.263-.135-.207.151.31.117.3-.018-.007-.038-.127-.042-.146-.064-.3-.006.42.029.225a1.636,1.636,0,0,0-.009-.262,2,2,0,1,0-4,0Z"/><path class="h" d="M74.991,55.664c2.29,0,4.578-.126,6.867-.117a31.305,31.305,0,0,0,5.426-.071,2.009,2.009,0,0,0,1.4-2.46,2.056,2.056,0,0,0-2.46-1.4q-.318.053.136-.017c-.1.01-.2.018-.294.023-.189.012-.377.017-.565.019-.448.005-.9-.007-1.342-.023-.843-.031-1.685-.075-2.528-.073-2.213,0-4.424.112-6.637.116a2,2,0,0,0,0,4Z"/><path class="h" d="M65.979,70.017H96c2.574,0,2.578-4,0-4H65.979c-2.574,0-2.578,4,0,4Z"/><path class="c" d="M203.091,191.874c2.306-1.606,5.59-1.684,8.294-1.781a35.587,35.587,0,0,1,6.387.228,14.818,14.818,0,0,1,5.756,1.787,3.133,3.133,0,0,1,1.093,1.1,4.114,4.114,0,0,1,.1,1.508c0,7.221-.317,14.435-.63,21.649-.2,4.556-.408,9.112-.663,13.665q-.075,1.332-.157,2.664c-.042.666.1,1.748-.367,2.282a6.305,6.305,0,0,1-2.787,1.205,22.337,22.337,0,0,1-3.781.761,26.52,26.52,0,0,1-7.86-.218,16.8,16.8,0,0,1-3.378-.965c-.8-.339-1.961-.774-2.12-1.728a29.039,29.039,0,0,1-.078-4.025q-.063-3.064-.125-6.129c-.184-9.133-.5-18.282-.409-27.417.024-2.574-3.976-2.577-4,0-.083,8.8.212,17.613.389,26.411.074,3.71.011,7.455.223,11.16.193,3.362,3.05,4.942,5.922,5.9a26.317,26.317,0,0,0,8.783,1.178,27.325,27.325,0,0,0,8.547-1.412,8.246,8.246,0,0,0,3.727-2.158,6.205,6.205,0,0,0,1.249-3.844c.3-4.5.509-9.013.716-13.521.373-8.133.8-16.28.8-24.424,0-1.847.094-3.617-1.065-5.19-1.422-1.931-3.793-2.922-6.041-3.53a35.738,35.738,0,0,0-16.637-.213,11.2,11.2,0,0,0-3.907,1.6c-2.1,1.46-.1,4.929,2.019,3.454Z"/><path class="i" d="M376.155,126.328c-.377,7.465-.674,16.294-.887,19.67-.169,2.679-.282,6.3-1.591,8.746-1.389,2.6-5.016,3.172-5.6,7.282a154.911,154.911,0,0,0-.547,17.994c0,4.06-.09,29.726-.09,35.441,0,3.494,2.056,4.857,3.285,5.8.991.764,4.761,1.057,7.472,1.057h5.548c2.71,0,6.481-.293,7.471-1.057,1.229-.948,3.285-2.311,3.285-5.8,0-5.715-.09-31.381-.09-35.441a154.911,154.911,0,0,0-.547-17.994c-.426-4.2-4.21-4.679-5.6-7.282-1.309-2.451-1.422-6.067-1.591-8.746-.212-3.376-.509-12.2-.887-19.67"/><path class="c" d="M205.883,198.214a24.846,24.846,0,0,0,7.669,1.32,25.424,25.424,0,0,0,7.649-.7c2.48-.677,1.428-4.537-1.063-3.857q-.749.2-1.514.332c-.117.019-.757.1-.4.062-.294.034-.589.066-.884.091a30.464,30.464,0,0,1-3.786.073q-.912-.036-1.821-.124a13.671,13.671,0,0,1-1.538-.2,17.935,17.935,0,0,1-3.247-.849,2.017,2.017,0,0,0-2.46,1.4,2.045,2.045,0,0,0,1.4,2.461Z"/><path class="c" d="M201.4,206.657c3.133,2.087,7.414,2.52,11.072,2.649a35.954,35.954,0,0,0,13.586-1.949,2.055,2.055,0,0,0,1.4-2.46,2.017,2.017,0,0,0-2.461-1.4,32.673,32.673,0,0,1-12.186,1.816c-3.134-.083-6.838-.414-9.389-2.113-2.148-1.431-4.153,2.032-2.019,3.454Z"/><path class="a" d="M391.715,169.442a94.567,94.567,0,0,0-11.307-.332c-2.8.038-9.351-.024-11.747.235l-1.085.118c-.1,3.536-.046,7.014-.046,10.557,0,3.308-.06,20.959-.082,30.476l.689.195c1.638.471,9.089,1.009,12.646,1.009a124.978,124.978,0,0,0,13.192-.833s.187-.024.519-.058c-.022-9.437-.083-27.444-.083-30.789,0-3.438.052-6.814-.037-10.244C393.466,169.642,392.586,169.532,391.715,169.442Z"/><path class="c" d="M383.84,127.258c.225,4.82.408,9.641.619,14.461.164,3.748.113,7.7,1.052,11.35a8.972,8.972,0,0,0,2.836,4.821c1.069.9,2.5,1.681,3.148,2.976a7.344,7.344,0,0,1,.517,2.626c.135,1.435.229,2.875.293,4.315.117,2.66.126,5.323.118,7.985-.034,11.695.043,23.39.07,35.085l.006,3.238a7.793,7.793,0,0,1-.389,3.362,4.565,4.565,0,0,1-1.141,1.444,4.643,4.643,0,0,1-.99.76c-1.639.689-3.8.6-5.54.631-2.192.037-4.39.026-6.583,0a20.658,20.658,0,0,1-5.649-.562,3.147,3.147,0,0,1-.965-.607,5.173,5.173,0,0,1-1.34-1.543,7.2,7.2,0,0,1-.461-3.413c.014-11.085.071-22.171.088-33.256.006-4.3-.082-8.6.1-12.892.057-1.357.139-2.714.258-4.068a8.074,8.074,0,0,1,.582-3c.7-1.382,2.182-2.2,3.3-3.2,3.139-2.837,3.247-7.51,3.486-11.437.233-3.846.358-7.7.521-11.547q.159-3.747.34-7.493c.127-2.573-3.874-2.566-4,0-.243,4.923-.43,9.849-.646,14.774-.073,1.657-.155,3.314-.258,4.971a18.227,18.227,0,0,1-1.1,6.382c-.632,1.4-2.051,2.18-3.156,3.164a8.345,8.345,0,0,0-2.8,4.907c-.893,5.611-.641,11.449-.624,17.109.035,11.436-.063,22.873-.084,34.309-.006,3.072,0,6.021,2.27,8.411a7.946,7.946,0,0,0,3.689,2.356,27.413,27.413,0,0,0,6.454.636c2.252.021,4.513.039,6.764-.009a23.719,23.719,0,0,0,6.185-.7c3.516-1.052,5.638-4.707,5.695-8.21.184-11.3-.068-22.626-.088-33.931-.008-4,.067-8.007-.048-12.009-.13-4.509.268-9.933-3.526-13.088-1.11-.923-2.455-1.67-3.046-3.039a18.881,18.881,0,0,1-1.058-6.292c-.25-4.018-.39-8.041-.557-12.063q-.161-3.861-.337-7.722c-.12-2.563-4.12-2.578-4,0Z"/><path class="a" d="M375.647,125.915c0,1.561.642,1.668,2.22,1.668,2.889,0,5.279-.146,7.895-.231.657-.657.284-2.914.284-5.024,0-1.32-1.582-1.3-4.192-1.3-2.486,0-6.335-.247-6.2.9C375.657,121.955,375.647,124.784,375.647,125.915Z"/><path class="c" d="M373.647,125.915a3.34,3.34,0,0,0,2.412,3.511,8.539,8.539,0,0,0,2.013.156c.88,0,1.759-.018,2.638-.043,1.65-.048,3.312-.076,4.959-.183,2.346-.154,2.533-2.644,2.469-4.469-.029-.822-.07-1.643-.091-2.465a3.236,3.236,0,0,0-.836-2.228c-.955-1.034-2.55-1.122-3.858-1.154-1.323-.031-2.651-.032-3.975-.031a11.393,11.393,0,0,0-3.692.369,2.847,2.847,0,0,0-1.94,1.829,4.366,4.366,0,0,0-.091,1.219c0,1.163-.008,2.326-.008,3.489a2,2,0,1,0,4,0c0-1.19,0-2.381.008-3.571,0-.129.01-.262,0-.39-.013-.2.093-.213-.062.341a1.854,1.854,0,0,1-.285.536.929.929,0,0,1-.386.349c.337-.213-.386.1-.134.041.1-.024.206-.062.311-.087.074-.017.586-.095.207-.047s.232-.02.336-.027c1.459-.11,2.929-.03,4.391-.029.414,0,.829,0,1.242.008a6.667,6.667,0,0,0,1.157.066c.01,0-.446-.08-.246-.032.069.017.14.025.21.04a1.438,1.438,0,0,0,.326.092c-.126.063-.455-.22-.24-.1a.82.82,0,0,0,.135.083s-.417-.348-.236-.167l-.224-.29c.066.117.055.08-.033-.109-.13-.329-.069-.174-.048-.1.078.282.007-.52-.031-.2a5.338,5.338,0,0,0,.013.748c.018.547.051,1.093.072,1.639.019.475.017.945,0,1.42,0,.113-.077.222.009,0,.116-.3,0,.008-.023.094a1.16,1.16,0,0,0-.06.206l.125-.3c-.106.174-.052.11.162-.195l1.414-.586c-2.13.07-4.26.182-6.391.218-.548.009-1.1.016-1.645.012-.171,0-.342,0-.513-.011-.075,0-.151-.012-.227-.016-.351-.015.332.1.182.023a.568.568,0,0,0-.175-.043c-.154.014.374.174.25.11-.275-.141.145.12.187.16-.178-.172.166.222.169.227-.132-.219.107.232.094.25.018-.024-.06-.148-.052-.183.078-.347-.019.388.018.146a2.416,2.416,0,0,0-.012-.33,2,2,0,0,0-4,0Z"/><path class="c" d="M368.661,171.345c3.658-.368,7.385-.2,11.057-.228a93.288,93.288,0,0,1,14.161.593,2.066,2.066,0,0,0,2.46-1.4,2.014,2.014,0,0,0-1.4-2.46,97.387,97.387,0,0,0-14.981-.738c-3.752.036-7.561-.146-11.3.23a2.056,2.056,0,0,0-2,2,2.015,2.015,0,0,0,2,2Z"/><path class="c" d="M367.605,212.62a30.615,30.615,0,0,0,5.308.685c2.227.188,4.461.326,6.695.379a96.531,96.531,0,0,0,14.367-.817,2.064,2.064,0,0,0,2-2,2.012,2.012,0,0,0-2-2,97.9,97.9,0,0,1-14.089.823c-2.162-.041-4.324-.172-6.479-.344a26.192,26.192,0,0,1-4.738-.584c-2.49-.666-3.552,3.192-1.064,3.858Z"/><path class="i" d="M272.941,136.553c2.464-.368,6.407-1.185,9.445-1.482,2.226-.217,2.555,1.29,3.333,3.611.573,1.71.972,3.76,1.483,5.558.549,1.932,3.206,9.775,1.239,10.5-6.315,2.321-14.088,4.285-16.378,5.047-1.426.474-14.418,3.431-20.191,4.635a19.715,19.715,0,0,1-4.986.517c-1.8-2.775-4.352-11.412-3.5-14.16a76.281,76.281,0,0,1,1.21-7.948C246.655,142.829,272.941,136.553,272.941,136.553Z"/><path class="a" d="M263.015,133.6c1.884,1.464,8.585,5.711,8.52.9-.044-3.337-5.069-7.008-7.766-8.031-8.22-3.117-18.8,2.507-19.938,10.606-.467,2.408,4.015,9.121,5.685,10.32,1.694,1.217,8.235,2.508,6.458-1.433,1.274,2.733,8.217,1.42,7.088-1.213a2.982,2.982,0,0,0,4.874-3.072c-.772-3.15-2.217-5-4.266-7.387"/><path class="c" d="M262.006,135.324a17.049,17.049,0,0,0,6.14,3.2c2.885.683,5.46-.873,5.389-4.03-.075-3.337-2.83-5.955-5.329-7.8a15.608,15.608,0,0,0-8.743-3.094c-6.282-.251-13.051,3.136-16.107,8.733-1.37,2.508-2,5.195-.925,7.908a26.987,26.987,0,0,0,4.514,7.4,8.985,8.985,0,0,0,6.447,2.938,5.056,5.056,0,0,0,3.865-1.054,3.616,3.616,0,0,0,.645-4.1l-3.655,1.541c1.27,2.4,4.409,2.806,6.82,2.3,2.288-.478,4.9-2.4,3.924-5.056l-3.343,1.946a4.921,4.921,0,0,0,8.321-2.944c.534-3.839-2.574-7.642-4.885-10.344-1.676-1.959-4.494.881-2.829,2.828a16.312,16.312,0,0,1,3.476,5.523c.2.628.532,1.421.054,1.993a.89.89,0,0,1-1.309.115,2.084,2.084,0,0,0-2.423-.313,2.013,2.013,0,0,0-.919,2.259c.167.456.082-.5.053-.087.015-.218.2-.237.106-.267-.068-.023.076-.02-.034.034a3.923,3.923,0,0,1-1.489.5,6.846,6.846,0,0,1-1.3-.051,1.288,1.288,0,0,1-.624-.235c-.11-.059-.044-.021-.149-.22-1.037-1.958-4.541-.578-3.656,1.541a7.425,7.425,0,0,0,.245.706c-.077-.138-.136.136,0-.16.073-.165.208-.3.279-.446l.081-.065q-.292.155.022,0c.017.025-.661.12-.209.066a4.118,4.118,0,0,1-.521.019,4.275,4.275,0,0,1-1.144-.115c-.368-.078-.732-.168-1.09-.28-.2-.063-.4-.128-.593-.208.307.127-.045-.023-.12-.064-.118-.063-.233-.129-.349-.2-.405-.236.313.314-.049-.047-.285-.284-.56-.57-.82-.878a23.6,23.6,0,0,1-3.3-5.235,9.7,9.7,0,0,1-.448-1.116c-.048-.148-.31-1.023-.215-.726-.02-.062-.018-.705-.052-.139a5.75,5.75,0,0,1,.167-.9,9.4,9.4,0,0,1,.478-1.531c1.753-4.154,6.275-6.872,10.617-7.468a12.417,12.417,0,0,1,11.674,4.892,4.147,4.147,0,0,1,.812,1.636h.007q.139-.011.021.264-.06.426.013.239-.12.371.011.114c.156.1-.309.079.15-.092.343-.127-.184-.088.189-.034-.552-.08-.434.039-.909-.11a16.527,16.527,0,0,1-4.964-2.74,2.013,2.013,0,0,0-2.737.717,2.051,2.051,0,0,0,.718,2.737Z"/><path class="c" d="M249.955,140.532c.518.981,1.088,1.935,1.668,2.879a28.321,28.321,0,0,0,1.946,2.859,2,2,0,0,0,1.414.586,2.037,2.037,0,0,0,1.415-.586,2.013,2.013,0,0,0,.585-1.414l-.071-.532a2.005,2.005,0,0,0-.514-.882l-.071-.09.313.405a28.526,28.526,0,0,1-1.64-2.491c-.553-.9-1.1-1.816-1.591-2.753a2.016,2.016,0,0,0-2.736-.717,2.044,2.044,0,0,0-.718,2.736Z"/><path class="c" d="M255.7,137.31c1.512,2.686,3.5,5.078,5.222,7.63a2,2,0,0,0,3.454-2.019c-1.718-2.552-3.71-4.944-5.222-7.63a2,2,0,0,0-3.454,2.019Z"/><path class="c" d="M242.169,144.606c-.73,2.556-.222,5.65.058,8.233a61.23,61.23,0,0,0,1.808,10.286c.366,1.272.858,3.339,2.319,3.74a9.658,9.658,0,0,0,3.283-.049,33.757,33.757,0,0,0,3.446-.61c3.742-.791,7.474-1.631,11.2-2.484,6.368-1.459,12.637-3.176,18.88-5.111q1.724-.534,3.436-1.11c1.078-.364,2.531-.616,3.383-1.42a4.152,4.152,0,0,0,.984-3.178,39.485,39.485,0,0,0-1.671-9.049c-.722-2.757-1.365-5.985-2.718-8.517-1.342-2.511-3.789-2.352-6.242-2.016-2.654.363-5.279.9-7.926,1.3a2.014,2.014,0,0,0-1.4,2.46,2.05,2.05,0,0,0,2.46,1.4c1.507-.23,3-.51,4.507-.767.875-.15,1.749-.3,2.627-.424a8.434,8.434,0,0,1,2.245-.236c.167.025.088-.077.21.192a15.889,15.889,0,0,1,.615,1.626q.265.8.511,1.609.839,2.769,1.543,5.579c.266,1.067.516,2.138.734,3.215.2.972.373,1.958.443,2.69.034.368.062.737.061,1.107,0,.156-.01.311-.015.467,0,.051.119-.333-.013.045-.11.317.241-.328.057-.108a6.476,6.476,0,0,1,.523-.525c-.006-.013-2.373.824-2.589.9-3.187,1.059-6.415,1.99-9.645,2.908-3.508,1-6.991,1.938-10.547,2.76q-4.455,1.031-8.921,2.012a41.768,41.768,0,0,1-8.933,1.41l1.727.99c-.084-.135-.338-.645-.272-.5.072.166-.19-.531-.237-.677-.247-.751-.442-1.519-.621-2.288-.445-1.92-.777-3.871-1.039-5.824-.243-1.809-.426-3.633-.516-5.457-.038-.769-.062-1.542-.037-2.312.009-.288.029-.573.051-.86.04-.511-.077.423,0-.019.021-.109.048-.217.079-.324.709-2.48-3.15-3.538-3.857-1.064Z"/><path class="c" d="M316.154,168.452c1.445.78,2.248,2.549,3.547,3.568a8.311,8.311,0,0,0,6.465,1.278,7.579,7.579,0,0,0,1.726-.563c.258-.107-.007,0-.134.054.5-.211,1-.389,1.487-.633a29.965,29.965,0,0,0,4.942-3.429c1.3-1.024,2.547-2.113,3.892-3.073a2.683,2.683,0,0,0,1.3-2.592c-.009-.8-.032-1.605-.06-2.407-.141-3.972-.4-7.94-.66-11.906s-.57-7.96-.731-11.945c-.1-2.565-4.1-2.578-4,0,.362,8.972,1.436,17.929,1.455,26.914l.991-1.727c-3.356,2.167-6.216,5.58-9.889,7-.215.083-.409.19-.614.286-.29.136.511-.125.034-.018-.155.035-.3.088-.46.118a5.723,5.723,0,0,1-2.81-.188,6.678,6.678,0,0,1-2.1-2.077A8.28,8.28,0,0,0,318.173,165c-2.265-1.223-4.287,2.229-2.019,3.454Z"/><path class="c" d="M314.675,171.648c-.015.4.052-.195.033-.152a1.172,1.172,0,0,0-.07.274c-.027.26.158-.538.045-.117-.077.285-.36.135.093-.078a2.067,2.067,0,0,0-.4.405c.1-.18.389-.265.091-.083-.1.063-.2.128-.31.187s-.2.1-.294.15c-.431.22.29-.1.024-.006-.249.085-.492.179-.744.255-.525.159-1.061.282-1.6.389-2.125.425-4.413.484-6.456,1.246a3.925,3.925,0,0,0-2.783,2.628,2,2,0,1,0,3.857,1.064c.088-.446-.286.421-.035.061.124-.176-.378.466-.122.179s-.389.224-.155.111c.147-.071.3-.165.443-.248.2-.116-.524.188-.1.047.111-.036.221-.077.332-.111a21.488,21.488,0,0,1,3.133-.631c2.256-.347,4.826-.571,6.794-1.843a4.56,4.56,0,0,0,2.23-3.727,2.015,2.015,0,0,0-2-2,2.042,2.042,0,0,0-2,2Z"/><path class="c" d="M313.46,177.742c-3.3.2-6.591.55-9.872.933-1.784.208-3.845.506-4.817,2.244-.959,1.716-.041,3.648,1.349,4.793a2.047,2.047,0,0,0,2.828,0,2.023,2.023,0,0,0,0-2.828c-.095-.079-.655-.484-.638-.615q.262.352.085.1l-.062-.1c-.228-.309.106.4.025.073-.091-.369-.006.483.01.14.016-.367-.115.511-.015.161-.146.311-.18.4-.1.259s.021-.064-.168.2c.258-.3.053.06-.07.014,0,0,.323-.188.335-.2-.337.234-.11.042.083-.017.168-.051.338-.088.509-.128.577-.134-.277.022.2-.039.645-.083,1.293-.15,1.94-.221,2.788-.307,5.583-.6,8.384-.765a2,2,0,0,0,0-4Z"/><path class="c" d="M313.945,182.587c-2.872.249-5.745.471-8.6.894-1.395.207-3.2.333-4.222,1.409a3.722,3.722,0,0,0,.476,5.229,2.053,2.053,0,0,0,2.829,0,2.021,2.021,0,0,0,0-2.828c-.081-.064-.339-.393-.168-.118.187.3-.02-.09-.063-.141-.067-.138-.038-.068.089.207a1.9,1.9,0,0,1-.062-.224l.037.305a1.692,1.692,0,0,1-.007-.225c.085.107-.155.508.005.106a.756.756,0,0,1-.211.4c-.122.142-.129.154-.023.039q-.4.284-.129.122l-.246.115c.036.024.264-.07.324-.085.544-.134,1.1-.238,1.647-.331q.429-.072.86-.135c.148-.021.3-.049.447-.063-.549.053.037,0,.152-.019,2.281-.288,4.573-.46,6.863-.658a2,2,0,0,0,0-4Z"/><path class="c" d="M304.46,192.557c3.188-.01,6.316-.608,9.485-.868a2,2,0,0,0,0-4c-3.169.26-6.3.858-9.485.868a2,2,0,0,0,0,4Z"/><path class="c" d="M310.224,196.017a28.8,28.8,0,0,0,8.261.061,11.185,11.185,0,0,0,3.826-.884,11.953,11.953,0,0,0,3.185-2.5c1.893-1.96,3.575-4.32,5.751-5.979a12.652,12.652,0,0,1,3.237-1.523c1.068-.417,2.13-.841,3.227-1.179a38.884,38.884,0,0,0,8.108-3.069,28.7,28.7,0,0,0,6.814-5.416,15.228,15.228,0,0,0,3.762-6.981,46.986,46.986,0,0,0,.776-7.961c.153-3.642.465-7.293.463-10.938,0-3.361-.282-6.714-.285-10.075,0-2.574-4-2.578-4,0,0,2.78.2,5.554.264,8.333.068,3.076-.156,6.124-.3,9.193-.22,4.765.315,10.472-2.63,14.537-3.008,4.153-7.932,6.872-12.788,8.163a61.447,61.447,0,0,0-6.307,2.226c-2.644,1.023-4.44,3.02-6.336,5.041-1.647,1.754-3.361,4.463-5.886,4.9a24.473,24.473,0,0,1-8.08.2,2.057,2.057,0,0,0-2.46,1.4,2.016,2.016,0,0,0,1.4,2.46Z"/><path class="c" d="M294.437,151.405a4.634,4.634,0,0,1,1,.3l-.478-.2a7.188,7.188,0,0,1,1.493.886l-.4-.313a7.063,7.063,0,0,1,1.275,1.258l-.313-.405a5.043,5.043,0,0,1,.41.634,2,2,0,1,0,3.454-2.018,8.4,8.4,0,0,0-2.481-2.67,7.137,7.137,0,0,0-1.216-.737,6.753,6.753,0,0,0-1.673-.593,2.166,2.166,0,0,0-1.541.2,2,2,0,0,0-.718,2.736,1.955,1.955,0,0,0,1.195.92Z"/><path class="c" d="M295.47,144.36c.15,0,.3.013.448.02.376.019-.476-.093-.073-.011.279.056.553.112.826.192.245.072.487.155.725.246.081.032.163.064.243.1-.253-.108-.31-.132-.172-.07s.288.132.429.2a15.759,15.759,0,0,1,1.581.907q.423.274.829.571a1.858,1.858,0,0,0,.347.258q-.321-.249-.064-.047l.168.135a19.556,19.556,0,0,1,2.579,2.495c.078.093.156.186.232.28.348.43-.154-.224.04.052.123.175.249.347.364.527a6.487,6.487,0,0,1,.333.577,1.967,1.967,0,0,0,.111.231c-.306-.424-.143-.358-.063-.116a2,2,0,1,0,3.857-1.063,9.807,9.807,0,0,0-1.889-3.129,19.241,19.241,0,0,0-2.847-2.773c-2.267-1.814-5-3.546-8-3.581a2,2,0,0,0,0,4Z"/><path class="c" d="M268.7,165.574c-1.394,1.259-2.626,2.7-4.1,3.866.249-.2-.219.157-.241.173-.193.135-.39.265-.591.387s-.407.24-.617.347c-.026.013-.562.259-.266.136a5.63,5.63,0,0,1-2.7.481,4.288,4.288,0,0,1-1.264-.162c-.186-.046-.364-.106-.546-.163-.364-.113.169.146-.222-.114-.1-.068-.532-.411-.168-.081-.106-.1-.206-.216-.318-.3q-.214-.249.039.072c-.056-.078-.109-.157-.159-.238-.066-.122-.135-.261-.209-.379q-.138-.3.025.075c-.037-.093-.071-.187-.1-.281-.043-.147-.093-.292-.134-.44-.1-.361-.176-.728-.245-1.1-.151-.8-.266-1.605-.421-2.4a2.02,2.02,0,0,0-2.461-1.4,2.042,2.042,0,0,0-1.4,2.46c.353,1.808.477,3.726,1.418,5.358,1.193,2.07,3.4,2.877,5.673,3.064a10.3,10.3,0,0,0,6.852-1.986,63.326,63.326,0,0,0,4.991-4.546,2,2,0,0,0-2.828-2.829Z"/><path class="c" d="M278.944,82.5a52.947,52.947,0,0,0,8.2.846c3.281.167,6.567.236,9.852.254,6.3.036,12.6-.279,18.887-.657a73.673,73.673,0,0,0,12.455-1.458c2.5-.592,1.444-4.45-1.064-3.858a62.182,62.182,0,0,1-10.218,1.242c-4.068.268-8.143.413-12.216.584-5.333.224-10.673.184-16.007-.03a55.676,55.676,0,0,1-8.829-.78c-2.511-.527-3.585,3.328-1.063,3.857Z"/><path class="d" d="M290.539,70.566c0,3.076,0,8.151,0,11.242a2.626,2.626,0,0,0,2.636,2.631c4.96-.014,15.182-.047,20-.064a2.624,2.624,0,0,0,2.62-2.638c-.01-3.272-.032-8.186-.043-11.42a2.629,2.629,0,0,0-2.654-2.623c-5.23.047-15.059.185-19.962.238A2.631,2.631,0,0,0,290.539,70.566Z"/><path class="e" d="M308.675,72.6c.223.231.425.483.635.725a8.334,8.334,0,0,0,.7.757,2.06,2.06,0,0,0,2.829,0l.312-.4a1.987,1.987,0,0,0,.273-1.009l-.071-.532a2,2,0,0,0-.514-.883,8.2,8.2,0,0,1-.7-.756c-.21-.242-.412-.494-.635-.725a1.5,1.5,0,0,0-.643-.414,2.056,2.056,0,0,0-2.185.414l-.313.405a1.987,1.987,0,0,0-.273,1.009l.072.532a1.99,1.99,0,0,0,.514.882Z"/><path class="e" d="M302.759,74.57c.721.747,1.376,1.563,2.056,2.347a26.735,26.735,0,0,0,2.261,2.449,2.1,2.1,0,0,0,1.414.586,2.036,2.036,0,0,0,1.414-.586,2,2,0,0,0,0-2.828,26.877,26.877,0,0,1-2.261-2.449c-.68-.785-1.334-1.6-2.056-2.347a2,2,0,0,0-2.828,2.828Z"/></svg>