<?xml version="1.0" encoding="utf-8"?>
<!-- Uploaded to: SVG Repo, www.svgrepo.com, Generator: SVG Repo Mixer Tools -->
<svg width="800px" height="800px" viewBox="-13.13 0 351.418 351.418" xmlns="http://www.w3.org/2000/svg"><defs><style>.a{fill:#ffffff;}.b{fill:#7a7473;}.c{fill:#bdbdbd;}.d{fill:#c6c6c6;}.e{fill:#211715;}.f{fill:#66bd6f;}.g{fill:#d9d9d9;}.h{fill:#a0a0a0;}</style></defs><path class="a" d="M160.823,148.313c-2.656,0-5.55.01-7.905.01a8.091,8.091,0,0,0,.644-.948,1.5,1.5,0,0,0,.215-1.05c-.124-.4-.554-.618-.938-.792-6.491-2.944-13.452-6.919-18.771-12.311a28.787,28.787,0,0,0-5.7,7c1.824,5.933,4.725,15.043,8.288,25.249,6.968,19.965,16.518,42.246,21.657,53.345l1.279,2.761c5.669-12.764,12.91-32.484,18.9-52.584,3.206-10.761,5.682-23.024,6.826-29.119a29.97,29.97,0,0,0-5.562-6.441c-5.319,5.391-12.2,9.155-18.693,12.1-.385.174-.814.388-.938.792a1.486,1.486,0,0,0,.215,1.05,7.671,7.671,0,0,0,.639.938Z"/><path class="a" d="M134.068,113.587v19.635c5.319,5.392,12.28,9.367,18.771,12.311.384.174.814.388.938.792a1.5,1.5,0,0,1-.215,1.05s-.192.4-.463.948c2.313,0,5.117-.009,7.692-.01-.265-.544-.455-.938-.455-.938a1.486,1.486,0,0,1-.215-1.05c.124-.4.553-.618.938-.792,6.491-2.944,13.374-6.708,18.693-12.1v-19.4Z"/><path class="a" d="M157.564,137.2a78.206,78.206,0,0,1-9.486-.769,52.541,52.541,0,0,1-13.881-3.941c-8.138-4.048-17.542-7.5-20.392-16.818a123.072,123.072,0,0,1-3.445-18c-.587-4.675-1.222-14.8-2.111-21.889-.937-7.466-.29-13.694-.211-23.985,6.108-2.978,14.576-4.8,20.791-5.591a219.17,219.17,0,0,1,57.184,0c6.5.83,15.465,2.782,21.625,6.008.044,4.957.217,8.968.27,12.645a76.38,76.38,0,0,1-.486,10.923c-.89,7.086-1.524,17.214-2.112,21.889a122.938,122.938,0,0,1-3.444,18c-2.85,9.315-12.254,12.77-20.392,16.818a52.562,52.562,0,0,1-13.881,3.941,78.222,78.222,0,0,1-9.486.769"/><path class="a" d="M173.3,126.733c12.26-2.725,22.576-19.813,24.239-24.328.231-.7.7-2.024,1.119-3.592a10.661,10.661,0,0,0,5.905-2.37,10.826,10.826,0,0,0,.931-.851c.535-5.173,1.134-14.121,1.934-20.57.156-1.254.268-2.473.346-3.681a5.787,5.787,0,0,0-1.621-.478,6.383,6.383,0,0,0-5.378,1.718,63.954,63.954,0,0,0-9.963-15.813c-1.46-.258-2.863-.47-4.168-.637a216.346,216.346,0,0,0-28.593-1.873,202.261,202.261,0,0,0-22.018,1.125c-4.73,3.77-9.57,7.86-15.95,13.85l-5.52,3.14a6.346,6.346,0,0,0-6.656-1.087c.08,1.227.193,2.463.351,3.736.808,6.509,1.4,15.564,1.946,20.717.249.245.519.485.789.7a10.932,10.932,0,0,0,5.05,2.28l1.65.259a43.816,43.816,0,0,0,8.348,16.292c6.109,7.311,13.373,11.856,21.49,12.651,0,0,9.463.312,11.9.18C162.17,127.957,173.3,126.733,173.3,126.733Z"/><path class="b" d="M146,2.885c-9.63,1.1-19.539,4.564-27.572,12.647l3.845,3.282c-6.553,4.049-11.7,11.893-14.063,18.836-2.782,8.169-3.613,19.794-.31,33.529l.025.1a6,6,0,0,1,1.48-.418,6.44,6.44,0,0,1,5.153,1.507l5.523-3.289.454-.27c11.678-10.929,18.189-15.453,28.656-23.676.064.729,2.4,6.563,2.943,6.785.673.274,7.42-3.9,12.91-7.29l9.268,1.127a27.513,27.513,0,0,1,11.849,6.34c6.377,5.486,11.5,13.432,14.631,20.5a6.306,6.306,0,0,1,5.357-1.734,5.951,5.951,0,0,1,1.123.279c3.2-8.227,3.671-20.144-.373-31.45-2.843-7.95-9.622-16.263-14.967-18.6l-6.31-4.5C179.425,8.11,169.1,2.908,155.892,2.5A68.976,68.976,0,0,0,146,2.885Z"/><path class="c" d="M131.345,59.205c-3.229,2.7-6.7,5.756-10.814,9.605l-.454.27-5.523,3.289a6.44,6.44,0,0,0-5.153-1.507,6.09,6.09,0,0,0-1.493.421c-.19-2.889-.18-5.729-.12-8.839,6.15-3.284,15.149-5.48,21.668-6.313,2.059-.263,4.265-.521,6.588-.758C134.505,56.6,132.955,57.858,131.345,59.205Z"/><path class="c" d="M193.384,57.261c-.867-.179-1.724-.343-2.563-.491A64.282,64.282,0,0,1,200.788,72.6a6.306,6.306,0,0,1,5.357-1.734,6.006,6.006,0,0,1,1.623.481c.16-2.44.18-4.83.15-7.38-.01-.66-.03-1.33-.035-2.02A60.757,60.757,0,0,0,193.384,57.261Z"/><path class="d" d="M169.291,294.918c-36.042-.2-72.078-.411-102.69-.592,1.876-36.622,4.313-74.811,6.079-109.95.447-8.9,2.053-15.722,10.857-22.749,2.063-1.646,4.956-2.114,7.275-3.374a373.489,373.489,0,0,1,37.478-18.327c1.819,5.925,4.741,15.107,8.336,25.406,6.968,19.965,16.518,42.246,21.658,53.345l1.324,2.859c5.666-12.766,12.9-32.464,18.88-52.542a225.791,225.791,0,0,0,7.154-30.87c16.419,6.553,28.162,12.656,41.9,20.129,2.318,1.26,5.212,1.728,7.274,3.374,8.8,7.027,10.411,13.854,10.858,22.749,1.782,35.465,4.248,74.038,6.131,110.971C226.061,295.224,197.674,295.075,169.291,294.918Z"/><path class="e" d="M254.208,295.343c-1.361-26.692-2.975-53.37-4.473-80.054q-.543-9.673-1.06-19.347c-.3-5.734-.32-11.556-1.131-17.247a27.14,27.14,0,0,0-5.086-12.733,33.531,33.531,0,0,0-5.6-5.758c-2.357-1.913-5.1-2.511-7.749-3.84-5.95-2.982-11.723-6.319-17.679-9.3q-9.534-4.767-19.365-8.888l1.059.617-.01-.01c-2.187-2.187-5.582,1.206-3.394,3.394.941.942,2.784,1.355,4,1.881q2.317,1.006,4.618,2.053,4.012,1.823,7.971,3.761c5.3,2.59,10.519,5.325,15.711,8.115a63.167,63.167,0,0,0,7.857,3.836,13.637,13.637,0,0,1,3.418,1.632,26.367,26.367,0,0,1,2.947,2.632,22.557,22.557,0,0,1,6.233,11.354c1.092,5.035.977,10.349,1.245,15.471q.5,9.524,1.032,19.043,1.094,19.609,2.238,39.216,1.265,22.081,2.422,44.169c.156,3.074,4.957,3.093,4.8,0Z"/><path class="e" d="M69,294.323c1.248-24.288,2.7-48.566,4.076-72.848q1-17.629,1.911-35.265c.211-4.159.453-8.3,1.9-12.243a24.452,24.452,0,0,1,7.669-10.092c2.149-1.79,5.021-2.278,7.464-3.549,2.939-1.53,5.829-3.158,8.76-4.7,5.893-3.112,11.849-6.1,17.9-8.9a2.42,2.42,0,0,0,.861-3.284,2.456,2.456,0,0,0-3.284-.861c-5.49,2.535-10.9,5.229-16.262,8.034q-3.943,2.064-7.855,4.187c-1.191.644-2.367,1.373-3.617,1.9s-2.543.93-3.785,1.474a20.847,20.847,0,0,0-6.284,4.8,28.423,28.423,0,0,0-4.337,5.667,30.774,30.774,0,0,0-3.587,12.326c-.555,5.425-.632,10.923-.922,16.368q-.49,9.207-1.01,18.411-1.035,18.422-2.107,36.841Q65.3,273.453,64.2,294.323c-.159,3.088,4.641,3.079,4.8,0Z"/><path class="e" d="M166.162,244.017c0-.212.015-.421.032-.631.033-.436-.117.648-.028.22.021-.1.039-.207.063-.31.049-.2.115-.4.182-.6.135-.406-.277.566-.079.187.065-.124.126-.249.2-.37.055-.09.115-.176.173-.264.233-.356-.41.46-.112.153.15-.155.317-.3.467-.45-.456.467-.322.24-.123.112.064-.041.13-.081.2-.119.1-.056.221-.1.315-.162-.389.159-.467.192-.233.1.079-.03.159-.057.24-.082.253-.078.547-.088.791-.18l-.351.048c.1-.01.2-.019.3-.025.157-.01.315-.017.472-.014s.3.019.447.028c.522.032-.572-.126-.08-.006.29.071.586.192.875.249-.562-.11-.368-.166-.13-.043.1.055.207.113.306.175.189.119.368.361-.113-.11.053.052.117.1.172.145.168.15.3.325.459.483-.474-.48-.239-.316-.117-.127q.121.186.223.383c.1.185.17.523-.054-.166.034.107.081.211.117.318a5.967,5.967,0,0,1,.179.667c.024.114.036.232.061.346-.166-.735-.048-.377-.031-.166a6.629,6.629,0,0,1,.02.772c-.01.276-.176.687.037-.111-.048.177-.065.364-.113.543s-.146.366-.179.547c.1-.564.208-.468.083-.213-.058.12-.122.237-.191.352-.053.087-.111.17-.166.256-.227.353.408-.471.124-.158-.145.158-.292.306-.446.454-.311.3.507-.343.141-.1-.095.063-.186.128-.284.186-.066.039-.133.077-.2.114-.547.29.422-.127.025,0a6.917,6.917,0,0,1-.747.214l-.134.027c-.255.042-.181.034.22-.025a2.49,2.49,0,0,0-.444.035,5.68,5.68,0,0,0-.891-.021l.365.052c-.087-.013-.174-.029-.261-.046a4.563,4.563,0,0,1-.489-.128c-.234-.076-.417-.267.127.07-.128-.079-.274-.134-.4-.212-.093-.056-.181-.13-.276-.182.582.315.32.258.151.1-.079-.071-.155-.145-.227-.222-.165-.174-.346-.557.042.085-.124-.206-.266-.4-.378-.611-.047-.09-.085-.186-.132-.275.373.709.131.315.059.1a5.673,5.673,0,0,1-.184-.667c-.021-.094-.034-.19-.055-.284-.088-.388.064.731.023.172-.015-.207-.029-.413-.03-.62a2.4,2.4,0,0,0-4.8,0c.018,2.613,1.2,5.446,3.633,6.678,2.851,1.443,6.9.984,9.025-1.548a7.771,7.771,0,0,0,1.3-7.678,6.956,6.956,0,0,0-2.917-3.642,8.03,8.03,0,0,0-5.294-.856,6.723,6.723,0,0,0-4.491,2.767,7.435,7.435,0,0,0-1.258,4.279,2.4,2.4,0,0,0,4.8,0Z"/><path class="e" d="M229.915,161.627c-.9,11.77-3.413,23.323-5.39,34.939-1.373,8.064-2.351,16.137-3.024,24.285-1.2,14.543-2.082,29.115-2.948,43.682-.184,3.086-.416,6.168-.316,9.263.227,7,1.312,14,2.053,20.952a2.47,2.47,0,0,0,2.4,2.4,2.416,2.416,0,0,0,2.4-2.4c-.665-6.247-1.55-12.5-1.947-18.773a80.963,80.963,0,0,1,.121-9.938q.552-9.336,1.146-18.67c.992-15.442,1.743-31,4.207-46.289,2.116-13.136,5.085-26.159,6.1-39.451a2.421,2.421,0,0,0-2.4-2.4,2.447,2.447,0,0,0-2.4,2.4Z"/><path class="e" d="M83.941,161.627c.905,11.905,3.18,23.638,5.095,35.406,1.3,8.006,2.28,16.014,2.993,24.09,1.276,14.453,2.3,28.932,3.253,43.41.2,3.087.438,6.166.337,9.263-.224,6.914-1.294,13.828-2.026,20.7a2.416,2.416,0,0,0,2.4,2.4,2.454,2.454,0,0,0,2.4-2.4c.648-6.085,1.5-12.176,1.905-18.282a76.882,76.882,0,0,0-.112-10.1q-.609-9.376-1.294-18.747c-1.115-15.431-2.078-30.928-4.383-46.237-1.981-13.158-4.758-26.216-5.768-39.5a2.459,2.459,0,0,0-2.4-2.4,2.421,2.421,0,0,0-2.4,2.4Z"/><path class="f" d="M164.659,158.33c.485-1.482.815-2.784,1.114-4.051-.544-.66-1.082-1.314-1.591-1.938-1.35-1.652-2.51-3.1-3.2-4.025l-8.072.015c-.694.928-1.849,2.368-3.191,4.01l-.125.152c.423,2.115.814,4.23,1.308,6.345q.126.54.262,1.08a9.554,9.554,0,0,1,.393,2.395c0,.533-2.051,17.313-3.844,31.97,4.06,9.881,7.91,18.641,10.574,24.394,0,0,.5,1.083,1.324,2.859,2.83-6.378,6.052-14.486,9.313-23.507-2.242-15.095-5.208-34.567-5.195-35.449A14.479,14.479,0,0,1,164.659,158.33Z"/><path class="e" d="M151.676,164.622c4.016,0,8.033-.088,12.05-.09a2.4,2.4,0,0,0,0-4.8c-4.017,0-8.034.089-12.05.09a2.4,2.4,0,1,0,0,4.8Z"/><path class="e" d="M171.328,198.023a36.555,36.555,0,0,0-.761-5.154q-.407-2.718-.815-5.436-.792-5.277-1.58-10.554-.643-4.312-1.275-8.626-.235-1.617-.465-3.234l-.165-1.192c-.027-.194.067.524,0,.036-.021-.165-.043-.33-.064-.5a5.793,5.793,0,0,1,.089-2.088c.486-2.148,1.288-4.216,1.785-6.368.694-3.006-3.933-4.289-4.629-1.276-.432,1.873-1.041,3.676-1.565,5.522a10.989,10.989,0,0,0-.534,3.749c.124,1.612.425,3.227.655,4.827.888,6.191,1.825,12.375,2.752,18.56q.454,3.024.908,6.049.238,1.6.478,3.193.1.689.206,1.375l.116.778c.02.135.059.944.059.335,0,3.089,4.8,3.094,4.8,0Z"/><path class="e" d="M150.1,194.323q1.551-12.642,3.081-25.289c.252-2.1.567-4.2.74-6.3a12.08,12.08,0,0,0-.535-3.815c-.277-1.139-.528-2.284-.762-3.432-.123-.6-.241-1.206-.36-1.809-.059-.3-.119-.6-.178-.9q-.1-.77-.1-.277c0-3.088-4.8-3.093-4.8,0a18.374,18.374,0,0,0,.624,3.361c.24,1.21.489,2.417.771,3.617a10.536,10.536,0,0,1,.536,3.259c-.173,2.105-.488,4.208-.74,6.3q-1.518,12.648-3.081,25.289a2.412,2.412,0,0,0,2.4,2.4,2.459,2.459,0,0,0,2.4-2.4Z"/><path class="e" d="M152.908,150.723c2.686,0,5.373-.009,8.06-.01a2.4,2.4,0,1,0,0-4.8c-2.687,0-5.374.01-8.06.01a2.4,2.4,0,1,0,0,4.8Z"/><path class="a" d="M171.842,161.631c5.971-5.934,9.882-13.123,14.293-20.3a27.859,27.859,0,0,0-6.383-7.9c-5.319,5.391-12.2,9.155-18.693,12.1-.385.174-.814.388-.938.792a1.486,1.486,0,0,0,.215,1.05,59.941,59.941,0,0,0,3.846,4.966C166.8,155.543,170.084,159.467,171.842,161.631Z"/><path class="a" d="M142.056,161.631c-5.972-5.934-9.883-13.123-14.294-20.3a28.42,28.42,0,0,1,6.306-8.107c5.319,5.392,12.28,9.367,18.771,12.311.384.174.814.388.938.792a1.5,1.5,0,0,1-.215,1.05,60.184,60.184,0,0,1-3.846,4.966C147.1,155.543,143.813,159.467,142.056,161.631Z"/><path class="e" d="M173.539,163.328c4.568-4.584,8.123-10.009,11.471-15.515.838-1.378,1.667-2.762,2.5-4.14a4.737,4.737,0,0,0,1.02-2.344,5.581,5.581,0,0,0-1.133-2.639,33.346,33.346,0,0,0-5.953-6.953,2.443,2.443,0,0,0-3.394,0,47.906,47.906,0,0,1-9.7,7.362c-1.808,1.066-3.666,2.047-5.552,2.97-1.6.782-3.879,1.351-4.759,3.044-.85,1.637-.006,3.273.989,4.59,1.276,1.689,2.62,3.327,3.962,4.964,2.373,2.894,4.784,5.758,7.146,8.661a2.417,2.417,0,0,0,3.394,0,2.457,2.457,0,0,0,0-3.394c-2.01-2.47-4.056-4.91-6.081-7.367-1.116-1.353-2.23-2.708-3.324-4.077-.378-.474-.76-.945-1.12-1.432-.15-.2-.3-.406-.44-.618-.177-.272-.038-.312-.053-.115l-.328,1.211c-.31.258-.284.282.077.069l.737-.337q.555-.256,1.109-.519,1.309-.621,2.6-1.279c1.754-.9,3.48-1.851,5.158-2.885a51.943,51.943,0,0,0,9.574-7.454h-3.394a27.985,27.985,0,0,1,6.008,7.409v-2.423c-4.227,6.894-8.164,14.043-13.918,19.817C167.961,162.125,171.354,165.52,173.539,163.328Z"/><path class="e" d="M143.753,159.934c-5.754-5.774-9.691-12.923-13.918-19.817v2.423a28.353,28.353,0,0,1,5.93-7.621h-3.394a54.372,54.372,0,0,0,9.614,7.564q2.529,1.589,5.186,2.959,1.293.673,2.608,1.3.555.266,1.112.523c.245.114.49.226.736.338.362.213.387.189.077-.069l-.327-1.211c-.019-.244.169-.138-.008.045a5.685,5.685,0,0,0-.411.586c-.342.468-.705.92-1.067,1.373-1.135,1.425-2.292,2.832-3.451,4.238-2.026,2.457-4.072,4.9-6.081,7.367a2.471,2.471,0,0,0,0,3.394,2.418,2.418,0,0,0,3.394,0c2.362-2.9,4.772-5.767,7.145-8.661,1.342-1.637,2.687-3.275,3.962-4.964,1-1.318,1.844-2.945.989-4.59-.882-1.7-3.157-2.262-4.763-3.057-1.9-.941-3.764-1.949-5.579-3.042a50.124,50.124,0,0,1-9.742-7.489,2.446,2.446,0,0,0-3.394,0,32.456,32.456,0,0,0-5.881,7.15,6.766,6.766,0,0,0-1.085,2.335,4.052,4.052,0,0,0,.978,2.663c.838,1.378,1.667,2.762,2.505,4.14,3.347,5.506,6.9,10.931,11.471,15.515C142.542,165.519,145.937,162.126,143.753,159.934Z"/><path class="e" d="M116.7,165.919a62.607,62.607,0,0,0-6.677,7.467c-.941,1.192-2.073,2.525-1.171,4.121a6.548,6.548,0,0,0,.484.676c2.559,3.413,5.255,6.729,7.913,10.065q12.9,16.186,26.023,32.189c2.879,3.5,5.669,7.183,8.843,10.424,2.166,2.21,5.559-1.185,3.394-3.394-2.586-2.641-4.874-5.622-7.227-8.466q-6.228-7.527-12.359-15.133c-7.338-9.063-14.679-18.129-21.846-27.327-.409-.525.311.408-.021-.026-.1-.137-.209-.273-.313-.409-.148-.194-.3-.387-.44-.583a3.479,3.479,0,0,0-.269-.377c-.019-.02-.024-.054-.043-.072,1.055.989-.51,3.115.3,1.883.07-.106.152-.2.227-.306q.15-.2-.1.129l.255-.32c.248-.3.493-.6.743-.9q1.059-1.264,2.157-2.5a48.928,48.928,0,0,1,3.522-3.748c2.286-2.088-1.116-5.475-3.394-3.394Z"/><path class="e" d="M127.314,134.365c-2.51.1-4.815,2.359-6.592,3.895a90.642,90.642,0,0,0-7.906,7.836,58.61,58.61,0,0,0-6.545,8.3c-.8,1.291-1.829,2.925-.965,4.42a12.382,12.382,0,0,0,2.463,2.557c2.931,2.7,5.963,5.284,8.93,7.941,2.3,2.055,5.7-1.328,3.394-3.394-2.412-2.161-4.863-4.278-7.274-6.44-1.05-.942-2.113-1.879-3.11-2.876-.126-.126-.241-.268-.374-.384-.016-.014-.1-.136-.133-.149.455.175.276,1.078.286,1.36.058,1.613.007,1.061.3.482.133-.261.277-.516.426-.767a43.029,43.029,0,0,1,5.314-6.9,98.945,98.945,0,0,1,7.28-7.432c.6-.551,1.214-1.093,1.84-1.618.28-.236.564-.467.85-.7.361-.29.071-.057,0,0,.152-.116.3-.231.46-.343.436-.316.885-.6,1.345-.879.369-.223.6-.2.119-.086.59-.143-.155-.026-.108-.028,3.079-.122,3.094-4.922,0-4.8Z"/><path class="e" d="M193.146,169.313a52.369,52.369,0,0,1,3.9,4.175c.655.745,1.3,1.5,1.939,2.26.283.341.564.683.838,1.032-.373-.475.208.354.321.466.435.428-.335-1.724.062-2.073a1.565,1.565,0,0,0-.158.274c-.218.322-.412.662-.623.988-.769,1.195-1.556,2.377-2.343,3.56-6.264,9.416-12.606,18.78-18.863,28.2-4.107,6.181-8.157,12.4-12.236,18.6-1.7,2.588,2.452,5,4.145,2.423q11.165-16.97,22.435-33.867,4.3-6.417,8.6-12.838c.82-1.231,1.64-2.462,2.44-3.706a5,5,0,0,0,1.125-2.54,4.7,4.7,0,0,0-1.394-2.731c-.692-.885-1.419-1.741-2.153-2.59a58.239,58.239,0,0,0-4.641-5.026c-2.277-2.08-5.681,1.3-3.394,3.394Z"/><path class="e" d="M185.926,139.165c.259.01-.762-.165-.2,0,.427.124-.531-.322-.018,0,.4.25.818.472,1.21.743.227.156.448.32.669.484.075.056.351.273-.011-.01.11.086.221.173.329.261.567.465,1.128.935,1.677,1.42a93.565,93.565,0,0,1,7.253,7.219,54.989,54.989,0,0,1,5.721,7.121c.289.446.568.9.817,1.37a6.5,6.5,0,0,0,.312.638c.478.7.42-2.7.073-1.963.047-.1.475-.482.183-.259-.926.706-1.739,1.69-2.606,2.476-2.7,2.451-5.47,4.829-8.188,7.263-2.306,2.065,1.1,5.45,3.394,3.394,2.652-2.375,5.351-4.7,7.992-7.085a34.884,34.884,0,0,0,2.838-2.693c1.25-1.418.909-2.8.065-4.344a45.936,45.936,0,0,0-6.046-8.013,97.2,97.2,0,0,0-7.946-8.1,42.151,42.151,0,0,0-4.032-3.273,6.7,6.7,0,0,0-3.485-1.439c-3.089-.122-3.084,4.678,0,4.8Z"/><path class="e" d="M158.985,285.607q-1.926-17.088-3.462-34.218c-.244-2.75-.571-5.522-.642-8.284a25.082,25.082,0,0,1,2.8-11.919c4.3-8.7,8.008-17.65,11.424-26.733,4.533-12.055,8.7-24.294,12.242-36.678a291.324,291.324,0,0,0,6.869-30.512,2.468,2.468,0,0,0-1.676-2.952,2.42,2.42,0,0,0-2.952,1.676c-3.747,21.678-10.12,42.684-17.675,63.319a298.088,298.088,0,0,1-11.522,27.728c-1.97,4.06-3.665,7.886-4.141,12.432a46.766,46.766,0,0,0,.21,8.852c1.043,12.447,2.329,24.878,3.728,37.289a2.472,2.472,0,0,0,2.4,2.4,2.415,2.415,0,0,0,2.4-2.4Z"/><path class="e" d="M125,137.4a641.888,641.888,0,0,0,24.687,67.83c2.119,4.959,4.287,9.9,6.551,14.795a2.419,2.419,0,0,0,3.284.861,2.456,2.456,0,0,0,.861-3.284,606.4,606.4,0,0,1-25.922-66.11q-2.505-7.656-4.833-15.368c-.885-2.952-5.519-1.694-4.628,1.276Z"/><path class="c" d="M197.041,93.925a21.487,21.487,0,0,1-1.024,5.386c-.187.625-.391,1.244-.6,1.861-.072.216-.151.432-.22.649-.163.518.011,0,0,.028a43.482,43.482,0,0,1-2.8,5.157,50.99,50.99,0,0,1-11.37,13.169,21.457,21.457,0,0,1-8.367,4.243c-3.008.7-1.735,5.326,1.276,4.629,6.481-1.5,11.923-6.127,16.215-11.014a55.946,55.946,0,0,0,9.043-13.421,28.981,28.981,0,0,0,2.65-10.687c.11-3.089-4.69-3.085-4.8,0Z"/><path class="c" d="M113.984,93.429c2.372,13.653,9.814,27.048,22.483,33.607a30.845,30.845,0,0,0,11.059,3.289,2.417,2.417,0,0,0,2.4-2.4,2.454,2.454,0,0,0-2.4-2.4c-8.03-.844-14.763-5.911-19.793-11.948-5.071-6.086-7.779-13.7-9.12-21.424a2.42,2.42,0,0,0-2.953-1.676,2.455,2.455,0,0,0-1.676,2.952Z"/><path class="e" d="M190.717,23.162c5.439,2.463,9.484,8.216,12.163,13.34a43.948,43.948,0,0,1,4.5,21.407,39.588,39.588,0,0,1-1.856,11.01c-.952,2.946,3.681,4.208,4.628,1.276a47.689,47.689,0,0,0-8.736-44.37,24.958,24.958,0,0,0-8.274-6.807,2.472,2.472,0,0,0-3.284.861,2.418,2.418,0,0,0,.861,3.283Z"/><path class="e" d="M125.225,14.732c-7.776,2.933-13.58,9.809-17.176,17.113a50.274,50.274,0,0,0-4.691,23.121,78.891,78.891,0,0,0,2.224,16.851c.713,3.005,5.343,1.733,4.629-1.276-3.511-14.791-3.325-31.832,6.958-44.015a23.585,23.585,0,0,1,9.332-7.165,2.467,2.467,0,0,0,1.676-2.952,2.418,2.418,0,0,0-2.952-1.677Z"/><path class="e" d="M187.691,15.382A37.866,37.866,0,0,0,162.954.8,59.642,59.642,0,0,0,132.376,3.7a45.469,45.469,0,0,0-15.649,10.135c-2.191,2.184,1.2,5.578,3.395,3.395A43.152,43.152,0,0,1,145.8,5.308c9.093-1.067,18.879-.57,27.159,3.672A30.21,30.21,0,0,1,183.546,17.8a2.473,2.473,0,0,0,3.284.861,2.417,2.417,0,0,0,.861-3.283Z"/><path class="c" d="M200.146,101.038a12.52,12.52,0,0,0,3.808-1.335A13.186,13.186,0,0,0,207.2,97.28a2.4,2.4,0,0,0-3.394-3.394,10.785,10.785,0,0,1-1.1.984l.486-.376a11.8,11.8,0,0,1-2.534,1.48l.573-.242a10.513,10.513,0,0,1-2.358.677,2.406,2.406,0,0,0-1.435,1.1,2.4,2.4,0,0,0,.861,3.284,2.766,2.766,0,0,0,1.85.242Z"/><path class="c" d="M202.685,74.07c.1-.092.21-.181.32-.268l-.486.376a6.49,6.49,0,0,1,1.365-.8l-.574.242a6.932,6.932,0,0,1,1.649-.454l-.638.085a6.782,6.782,0,0,1,1.72-.008l-.638-.086a6.388,6.388,0,0,1,1.506.4l-.574-.242c.075.031.148.063.221.1a2.6,2.6,0,0,0,1.85.242,2.452,2.452,0,0,0,1.434-1.1,2.425,2.425,0,0,0,.242-1.85,2.341,2.341,0,0,0-1.1-1.434A9.822,9.822,0,0,0,207.5,68.7a10.3,10.3,0,0,0-1.511-.254,8.713,8.713,0,0,0-2.464.125,8.6,8.6,0,0,0-4.232,2.109,2.414,2.414,0,0,0,0,3.394,2.456,2.456,0,0,0,3.394,0Z"/><path class="c" d="M108.5,97.43a13.159,13.159,0,0,0,3.2,2.329,12.57,12.57,0,0,0,3.7,1.279,2.616,2.616,0,0,0,1.849-.242,2.4,2.4,0,0,0,.861-3.284,2.333,2.333,0,0,0-1.434-1.1,10.512,10.512,0,0,1-2.371-.682l.574.242a11.8,11.8,0,0,1-2.528-1.479l.485.375a10.565,10.565,0,0,1-.941-.829,2.484,2.484,0,0,0-1.7-.7,2.4,2.4,0,0,0-1.7,4.1Z"/><path class="c" d="M108.546,73.6a4.171,4.171,0,0,1,4.315.472,2.493,2.493,0,0,0,2.908.376l3.495-1.988c.619-.353,1.258-.684,1.863-1.06a21.287,21.287,0,0,0,2.928-2.588q6.628-6.105,13.67-11.73a2.415,2.415,0,0,0,0-3.394,2.459,2.459,0,0,0-3.394,0Q127.467,59.163,121,65.1c-.635.583-1.293,1.153-1.9,1.762-.7.7-.008.12-.435.412-.57.389-1.22.694-1.82,1.035L113.346,70.3l2.909.375a8.92,8.92,0,0,0-8.985-1.707,2.47,2.47,0,0,0-1.677,2.952,2.42,2.42,0,0,0,2.953,1.677Z"/><path class="c" d="M189.121,58.47a55.532,55.532,0,0,1,5.165,7.031,66.64,66.64,0,0,1,4.109,7.6,2.41,2.41,0,0,0,3.284.861,2.469,2.469,0,0,0,.861-3.284,65.953,65.953,0,0,0-10.025-15.606,2.413,2.413,0,0,0-3.394,0,2.459,2.459,0,0,0,0,3.394Z"/><path class="e" d="M193.7,68.06c.389.442.754.905,1.115,1.37l-.376-.485q1.116,1.446,2.162,2.946a19.575,19.575,0,0,1,1.39,2.128,2.419,2.419,0,0,0,3.284.861,2.456,2.456,0,0,0,.861-3.284,25.886,25.886,0,0,0-2.051-3.057c-.951-1.32-1.914-2.653-2.991-3.873a2.4,2.4,0,0,0-3.394,0,2.457,2.457,0,0,0,0,3.394Z"/><path class="e" d="M181.986,66.463c2.291,3.089,4.751,6.054,6.938,9.219a61.618,61.618,0,0,1,6.233,10.145,2.415,2.415,0,0,0,3.284.861,2.46,2.46,0,0,0,.861-3.283,61.627,61.627,0,0,0-6.233-10.146c-2.188-3.165-4.648-6.13-6.938-9.218a2.474,2.474,0,0,0-3.284-.861,2.417,2.417,0,0,0-.861,3.283Z"/><path class="e" d="M206.556,73.416a4.115,4.115,0,0,1,2.462,3.807,22.254,22.254,0,0,1-.209,5.934c-.678,3.873-2.2,7.9-5.008,10.729-2.176,2.2,1.216,5.594,3.394,3.394,3.708-3.745,5.76-9.06,6.449-14.217.664-4.974.55-11.327-4.665-13.792a2.468,2.468,0,0,0-3.284.861,2.422,2.422,0,0,0,.861,3.284Z"/><path class="e" d="M106.7,69.211c-5.277,2.369-5.46,8.726-4.814,13.7.684,5.268,2.77,10.736,6.619,14.515,2.2,2.167,5.6-1.225,3.394-3.394-2.905-2.852-4.471-6.942-5.162-10.891a20.684,20.684,0,0,1-.165-6.316,4,4,0,0,1,2.551-3.473,2.418,2.418,0,0,0,.861-3.284,2.459,2.459,0,0,0-3.284-.861Z"/><path class="e" d="M205.473,61.942a96.656,96.656,0,0,1-.341,12.141c-.375,3.451-.756,6.9-1.058,10.354-.547,6.251-1.012,12.486-2.02,18.683-1,6.173-1.794,13.279-6.22,18.059-4.035,4.357-9.716,6.868-15.151,9a64.7,64.7,0,0,1-19.994,4.542,57.708,57.708,0,0,1-20.3-2.569,70.332,70.332,0,0,1-8.734-3.477,55.015,55.015,0,0,1-8.04-4.374,19.827,19.827,0,0,1-5.96-6.068c-1.641-2.747-2.283-5.974-2.932-9.072a155.505,155.505,0,0,1-2.615-18.716c-.3-3.528-.585-7.059-.929-10.583-.361-3.689-.882-7.355-.995-11.065-.065-2.117-.044-4.236,0-6.353.06-3.09-4.74-3.09-4.8,0a93.038,93.038,0,0,0,.513,12.929c.434,3.611.75,7.235,1.058,10.858.57,6.7,1.184,13.357,2.338,19.987a67.932,67.932,0,0,0,2.423,10.521,21.542,21.542,0,0,0,5.437,8.471c4.717,4.556,11.035,7.313,17.012,9.8a62.988,62.988,0,0,0,43.11,1.456c6.181-1.991,12.64-4.491,17.9-8.365a25.511,25.511,0,0,0,6.889-7.274,31.592,31.592,0,0,0,3.379-9.806,160.657,160.657,0,0,0,2.885-20.214c.313-3.65.606-7.3.964-10.947.383-3.908.922-7.785,1.009-11.717.046-2.068,0-4.134-.031-6.2-.053-3.086-4.853-3.095-4.8,0Z"/><path class="e" d="M322.837,294.422q-10.465.021-20.931-.023-15.058-.042-30.117-.116-18.409-.084-36.821-.187-20.578-.112-41.157-.237-21.3-.127-42.592-.263-20.823-.132-41.645-.269l-38.3-.254-32.082-.215q-11.781-.079-23.563-.156-6.144-.04-12.289-.074c-.34,0-.679,0-1.019,0-3.088,0-3.093,4.8,0,4.8s6.159.031,9.238.051q10.5.066,20.993.137l30.214.2,37.053.247,41.026.267q21.3.137,42.6.266,20.894.127,41.788.246,19.036.108,38.074.2,16.056.078,32.112.136,11.661.039,23.323.047,2.05,0,4.1,0c3.088-.006,3.094-4.806,0-4.8Z"/><path class="g" d="M108.829,305.772a25.929,25.929,0,0,0-10.113,15.816c-.542,2.936-.368,6.059-.865,8.9a20.6,20.6,0,0,1-3.19,7.813,39.976,39.976,0,0,1-8.836,9.045,2.414,2.414,0,0,0,0,3.4,2.46,2.46,0,0,0,3.394,0c5.491-4.338,10.6-9.713,12.681-16.555.9-2.945.858-5.927,1.128-8.957a22.107,22.107,0,0,1,2.067-7.891,24.113,24.113,0,0,1,7.128-8.168,2.413,2.413,0,0,0,0-3.394,2.462,2.462,0,0,0-3.394,0Z"/><path class="g" d="M51.83,306.257c-3.76,6.84-9.054,13.17-10.113,21.146-.06.449-.1.9-.153,1.348.055-.446-.049.262-.075.388a12.217,12.217,0,0,1-.479,1.689,6.538,6.538,0,0,1-.562,1.194,14.784,14.784,0,0,1-1.024,1.617,22.221,22.221,0,0,1-5.953,5.188,48.722,48.722,0,0,1-11.888,5.1c-2.953.881-1.695,5.515,1.276,4.628,6.916-2.065,14.337-5.112,19.237-10.643a16.813,16.813,0,0,0,3.948-7.158c.368-1.565.4-3.175.8-4.74a25.745,25.745,0,0,1,2.068-5.357c2.1-4.137,4.834-7.914,7.068-11.978,1.489-2.709-2.654-5.133-4.145-2.423Z"/><path class="g" d="M205.555,309.166c4.875,3.767,8.325,8.429,9.117,14.651.39,3.061.113,6.128.814,9.158a24.123,24.123,0,0,0,3.836,8.338,45.717,45.717,0,0,0,9.238,9.424,2.478,2.478,0,0,0,3.394,0,2.418,2.418,0,0,0,0-3.4c-5.134-4.054-10.311-9.037-11.839-15.643-.656-2.836-.364-5.9-.77-8.855a24.5,24.5,0,0,0-2.754-8.555,28.27,28.27,0,0,0-7.641-8.517,2.481,2.481,0,0,0-3.395,0,2.416,2.416,0,0,0,0,3.394Z"/><path class="g" d="M261.941,308.68c1.976,3.592,4.33,6.959,6.31,10.549a30.768,30.768,0,0,1,2.384,5.264,34.213,34.213,0,0,1,1.063,5.353c.947,5.892,5.754,10.348,10.619,13.307a54.4,54.4,0,0,0,12.741,5.4c2.966.886,4.233-3.745,1.276-4.628-6.312-1.885-13-4.595-17.389-9.721a11.425,11.425,0,0,1-2.606-5.546c.036.26-.007-.117-.009-.139-.027-.267-.054-.533-.087-.8-.067-.543-.143-1.086-.242-1.624a21.85,21.85,0,0,0-.738-2.881,35.753,35.753,0,0,0-2.293-5.34c-2.079-4-4.714-7.673-6.884-11.62-1.489-2.707-5.635-.288-4.145,2.423Z"/><path class="g" d="M64.306,310.162c.288,4.517,0,9.059,0,13.581a2.4,2.4,0,1,0,4.8,0c0-4.522.288-9.064,0-13.581a2.4,2.4,0,1,0-4.8,0Z"/><path class="g" d="M121.138,310.162c.287,4.517,0,9.059,0,13.581a2.4,2.4,0,0,0,4.8,0c0-4.522.287-9.064,0-13.581a2.4,2.4,0,0,0-4.8,0Z"/><path class="g" d="M191.723,310.162c-.288,4.517,0,9.059,0,13.581a2.4,2.4,0,0,0,4.8,0c0-4.522-.288-9.064,0-13.581a2.413,2.413,0,0,0-2.4-2.4,2.455,2.455,0,0,0-2.4,2.4Z"/><path class="g" d="M246.346,310.162c-.287,4.517,0,9.059,0,13.581a2.4,2.4,0,1,0,4.8,0c0-4.522-.287-9.064,0-13.581a2.413,2.413,0,0,0-2.4-2.4,2.457,2.457,0,0,0-2.4,2.4Z"/><path class="e" d="M230.256,271.439c4.026,6.216,22.921,33.4,25.352,35.743a6.972,6.972,0,0,0,8.287,1.2c2.242-1.038,2.57-4.314,1.662-6.579-2.449-6.824-19.912-35.87-22.33-38.716a8.031,8.031,0,0,0-10.55-1.291C229.063,264.538,228.838,269.249,230.256,271.439Z"/><path class="e" d="M176.028,271.439c4.025,6.216,22.921,33.4,25.352,35.743a6.972,6.972,0,0,0,8.287,1.2c2.242-1.038,2.57-4.314,1.662-6.579-2.449-6.824-19.912-35.87-22.33-38.716a8.032,8.032,0,0,0-10.55-1.291C174.835,264.538,174.61,269.249,176.028,271.439Z"/><path class="e" d="M86.143,271.439c-4.025,6.216-22.921,33.4-25.351,35.743a6.974,6.974,0,0,1-8.288,1.2c-2.242-1.038-2.57-4.314-1.661-6.579,2.448-6.824,19.912-35.87,22.33-38.716a8.031,8.031,0,0,1,10.55-1.291C87.337,264.538,87.562,269.249,86.143,271.439Z"/><path class="e" d="M141.789,271.439c-4.026,6.216-22.921,33.4-25.352,35.743a6.972,6.972,0,0,1-8.287,1.2c-2.242-1.038-2.57-4.314-1.662-6.579,2.449-6.824,19.912-35.87,22.33-38.716a8.031,8.031,0,0,1,10.55-1.291C142.982,264.538,143.207,269.249,141.789,271.439Z"/><path class="c" d="M150.033,107.349a17.52,17.52,0,0,0,8.439,1.959,13.78,13.78,0,0,0,8.563-2.546,2.4,2.4,0,0,0,0-3.394,2.474,2.474,0,0,0-3.394,0c.741-.577.217-.172.027-.05q-.25.16-.515.3c-.091.048-.184.091-.275.137-.193.1-.393.063.144-.052-.237.051-.478.183-.71.258a13.086,13.086,0,0,1-1.985.453c.362-.057.078-.012-.126.008s-.39.036-.585.048c-.47.031-.941.042-1.411.04-.422,0-.843-.017-1.264-.046-.193-.013-.386-.028-.579-.048-.07-.007-.775-.126-.216-.022a17.849,17.849,0,0,1-1.855-.411c-.259-.078-.513-.171-.769-.259-.593-.2.411.206-.124-.047q-.477-.225-.943-.47a2.4,2.4,0,1,0-2.422,4.144Z"/><path class="c" d="M157.143,87.61a38.964,38.964,0,0,1,.919,4.2l-.086-.638a2.558,2.558,0,0,1,.016.58l.085-.638a1.379,1.379,0,0,1-.063.261l.242-.573a1.042,1.042,0,0,1-.092.167l.375-.485a.84.84,0,0,1-.138.135l.486-.375a2.711,2.711,0,0,1-.333.176l.574-.242a2.5,2.5,0,0,1-.562.164l.639-.086a2.212,2.212,0,0,1-.527,0l.638.086c-.2-.028-.394-.076-.592-.1a1.823,1.823,0,0,0-.957-.043,1.8,1.8,0,0,0-.893.285,2.4,2.4,0,0,0-.861,3.284,2.3,2.3,0,0,0,1.435,1.1c.473.063.933.183,1.415.2a4.569,4.569,0,0,0,2.114-.506,3.105,3.105,0,0,0,1.7-2.04,5.043,5.043,0,0,0-.02-2.17c-.229-1.354-.542-2.7-.89-4.024a2.4,2.4,0,0,0-2.953-1.677,2.447,2.447,0,0,0-1.676,2.953Z"/><path class="c" d="M135.155,75.641c-.7,2.281-.245,7.528,4.076,7.975,5.712-.034,6.016-6.378,4.093-9.361C141.75,71.813,137.121,70.8,135.155,75.641Z"/><path class="c" d="M180.892,75.641c.7,2.281.245,7.529-4.076,7.975-5.712-.034-6.016-6.378-4.093-9.361C174.3,71.813,178.925,70.8,180.892,75.641Z"/><path class="h" d="M158.046,54.258a229.687,229.687,0,0,0-29.466,1.873c-7.373.914-17.822,3.469-24.108,7.3a75.562,75.562,0,0,1,.118-11.922c.156-1.468.1-3.7,1.222-4.687a15.411,15.411,0,0,1,4.109-2.131,78.945,78.945,0,0,1,18.659-4.406,232.739,232.739,0,0,1,58.935,0,78.945,78.945,0,0,1,18.659,4.406c1.226.474,3.124.973,4.11,1.847,1.117.991,1.065,3.22,1.221,4.687a75.576,75.576,0,0,1,.118,11.923c-6.286-3.834-16.735-6.106-24.108-7.02A229.712,229.712,0,0,0,158.046,54.258Z"/><path class="e" d="M158.046,51.858a220.445,220.445,0,0,0-24.193,1.27,103.134,103.134,0,0,0-20.1,3.762,47.977,47.977,0,0,0-10.488,4.472l3.611,2.072a79.242,79.242,0,0,1,.256-13.569,2.757,2.757,0,0,1,.395-1.354,7.062,7.062,0,0,1,2.333-1.226,53.58,53.58,0,0,1,6.022-2.053c8.414-2.41,17.249-3.226,25.95-3.856a224.006,224.006,0,0,1,28.77-.237c8.668.488,17.51,1.187,25.983,3.153a68.551,68.551,0,0,1,7.644,2.228c1.037.373,2.076.747,3.108,1.131.537.2,1.182.393,1.415.858a7.034,7.034,0,0,1,.328,2.416c.115,1.292.231,2.578.279,3.875.1,2.784.01,5.569-.132,8.351l3.611-2.073c-5.766-3.461-12.6-5.195-19.159-6.406a181.52,181.52,0,0,0-21.228-2.378c-4.794-.309-9.6-.463-14.4-.436-3.088.018-3.094,4.818,0,4.8a219.784,219.784,0,0,1,23.58,1.206,107.65,107.65,0,0,1,19.061,3.372,40.628,40.628,0,0,1,9.725,3.987,2.425,2.425,0,0,0,3.611-2.072,75.674,75.674,0,0,0-.383-14.59,5.952,5.952,0,0,0-3.6-4.954,62.108,62.108,0,0,0-6.31-2.319c-9.115-2.967-18.831-3.894-28.346-4.628a224.654,224.654,0,0,0-30.819-.267c-9.546.578-19.341,1.379-28.609,3.837a60.448,60.448,0,0,0-7.613,2.524c-2.269.939-4.617,1.99-5.519,4.452-.81,2.209-.762,5.076-.867,7.4-.134,2.943-.038,5.888.112,8.828a2.425,2.425,0,0,0,3.611,2.072c5.488-3.3,11.967-4.992,18.2-6.2a157.843,157.843,0,0,1,20.222-2.237q6.96-.435,13.939-.407C161.135,56.676,161.139,51.876,158.046,51.858Z"/></svg>