<?xml version="1.0" encoding="utf-8"?>
<!-- Uploaded to: SVG Repo, www.svgrepo.com, Generator: SVG Repo Mixer Tools -->
<svg width="800px" height="800px" viewBox="0 -37.86 329.399 329.399" xmlns="http://www.w3.org/2000/svg"><defs><style>.a{fill:#ffffff;}.b{fill:#211715;}.c{fill:#c6c6c6;}.d{fill:#645d5c;}.e{fill:#ffda71;}</style></defs><path class="a" d="M63.894,105.143a109.447,109.447,0,0,0,11.893-5q1.669-.831,3.322-1.7c1.773-.925,4.548-1.115,7.579-1l.266.01c-.033,17.538-.077,38.489-.095,51.107a7.625,7.625,0,0,0,5.538,7.348c10.683-5.247,20.5-13.07,30.8-19.289,4.591-2.773,10.657-5.231,14.923-1.592a8.642,8.642,0,0,1,2.852,6.286c.174,4.288-1.959,8.051-4.326,11.456-5.8,8.35-11.649,13.77-17.671,19.5.268,1.319.469,2.4.537,2.923.841,6.424,2.248,17.175,1.54,20.721-.875,4.379-2.824,8.9-6.858,10.812s-9.607.554-11.581-3.453l-.145-.294L102.4,204.4c-.232,4.326-4.042,11.013-5.835,12.649a6.82,6.82,0,0,1-6.719,1.672,5.728,5.728,0,0,1-1.34-.711,44.222,44.222,0,0,1-4.145,7.722C79.723,234.2,65.144,241.307,52.2,251.045c-5.4,2.622-51.195-17.854-49.769-25.78,0,0,.137-1.31.206-1.522C14.567,184.591,11.4,161.8,28.505,124.711a20.559,20.559,0,0,1,9.6-9.885C47.173,110.4,55.375,108.211,63.894,105.143Z"/><path class="a" d="M116.91,163.5c.8,2.569,2.387,10.01,2.606,11.69.841,6.424,2.248,17.175,1.54,20.721-.875,4.379-2.824,8.9-6.858,10.812s-9.607.554-11.581-3.453l-.145-.294L102.4,204.4c-.232,4.326-4.042,11.013-5.835,12.649a6.82,6.82,0,0,1-6.719,1.672c-2.322-.853-3.723-3.172-4.87-5.364a33.625,33.625,0,0,1-2.841-9.5"/><path class="b" d="M87.289,220.073c3.474,2.443,8.557,1.366,11.322-1.685a27.783,27.783,0,0,0,4.843-8.42A18.269,18.269,0,0,0,104.8,204.4a2.412,2.412,0,0,0-2.4-2.4,2.457,2.457,0,0,0-2.4,2.4c-.01.164.02.884,0,.187a2.633,2.633,0,0,1-.086.517c-.08.422-.18.84-.3,1.254a24.649,24.649,0,0,1-.909,2.615c.214-.531-.119.268-.16.359q-.125.278-.255.553-.3.633-.624,1.252c-.416.793-.862,1.571-1.345,2.325-.2.315-.411.627-.63.932a3.527,3.527,0,0,1-.3.407c.5-.512.124-.163.01-.028a6.614,6.614,0,0,1-.511.548c-.047.045-.621.493-.235.214q-.315.228-.653.424a7.42,7.42,0,0,1-.691.36c.432-.2-.265.083-.36.112-.247.075-.5.129-.748.185l-.012,0c-.108.01-.217.015-.326.017a5.5,5.5,0,0,1-.759-.025c.535.057-.208-.07-.321-.1s-.211-.063-.314-.1q.347.156-.03-.023c-.252-.146-.5-.288-.736-.456a2.413,2.413,0,0,0-3.284.861,2.464,2.464,0,0,0,.861,3.284Z"/><path class="b" d="M96.926,195.959c1.291,4.075,2.867,9.1,6.433,11.785a11.836,11.836,0,0,0,12.375.889c4.224-2.208,6.476-6.92,7.488-11.373.813-3.577.357-7.383.012-10.992-.242-2.524-.542-5.043-.859-7.56q-.2-1.611-.416-3.222c-.072-.545-.142-1.089-.235-1.631-.048-.274-.1-.547-.151-.82-.025-.134-.193-1.341-.193-.784,0-3.089-4.8-3.094-4.8,0a17.905,17.905,0,0,0,.515,2.88c.095.553.172,1.179.287,2.072.249,1.928.49,3.857.708,5.789a82.248,82.248,0,0,1,.755,10.723c0,.316-.016.632-.037.947-.007.107-.1.908-.048.583.046-.29-.129.575-.166.739-.136.595-.291,1.187-.469,1.771a13.651,13.651,0,0,1-2.323,4.681,7.116,7.116,0,0,1-8.435,2.152,6.907,6.907,0,0,1-3.158-3.291,33.478,33.478,0,0,1-2.654-6.614c-.93-2.934-5.565-1.681-4.629,1.276Z"/><path class="b" d="M58.937,141.659q6.105,10.289,11.694,20.869c1.444,2.733,5.588.31,4.145-2.422q-5.587-10.578-11.695-20.87c-1.575-2.655-5.726-.243-4.144,2.423Z"/><path class="b" d="M68.7,152.334a82.176,82.176,0,0,0,10.679-7.883c1.589-1.39,3.12-2.847,4.6-4.353q1.155-1.173,2.271-2.383c.385-.417.759-.848,1.159-1.252.172-.174.359-.332.531-.5.373-.371-.2.123.1-.082a2.463,2.463,0,0,0,.861-3.284,2.421,2.421,0,0,0-3.284-.861,32.147,32.147,0,0,0-4.464,4.39c-1.511,1.562-3.074,3.076-4.7,4.521A74.768,74.768,0,0,1,66.28,148.19c-2.617,1.63-.21,5.784,2.422,4.144Z"/><path class="b" d="M86.688,95.044c-2.852-.092-5.887-.039-8.517,1.2-2.816,1.322-5.532,2.822-8.4,4.051-5.6,2.4-11.421,4.211-17.179,6.172-2.892.984-5.77,2.01-8.6,3.154a61.216,61.216,0,0,0-8.606,3.956,22.541,22.541,0,0,0-6,5.233,33.685,33.685,0,0,0-4.31,7.693,185.475,185.475,0,0,0-10.751,31.874c-2.319,9.718-3.918,19.583-5.71,29.406A319.359,319.359,0,0,1,1,220.838,22.734,22.734,0,0,0,.1,224.584c-.019.156-.042.316-.055.473l-.016.151q.144-1.071-.019.136a4.283,4.283,0,0,0-.011.494,6.253,6.253,0,0,0,.923,2.853,18.351,18.351,0,0,0,4.6,4.8,94.746,94.746,0,0,0,16.941,10.167,148.121,148.121,0,0,0,19.18,8.006,42.849,42.849,0,0,0,6.854,1.778,12.7,12.7,0,0,0,2.772.213c1.8-.122,2.9-1.126,4.342-2.17,4.884-3.526,9.975-6.748,14.964-10.12a74.082,74.082,0,0,0,12.087-9.494,24.27,24.27,0,0,0,3.759-4.934c1.509-2.7-2.636-5.122-4.145-2.422-2,3.57-5.335,6.359-8.611,8.815-4.328,3.244-8.91,6.137-13.407,9.136-2.508,1.673-5,3.371-7.44,5.143-.12.087-1.868,1.306-1.842,1.36,0,0,.77-.3.237-.121-.436.146-.037-.033.225-.01-.168-.015-.366.03-.536.033-.322.007-.642-.019-.962-.044-.208-.016-.916-.154-.1,0-.247-.046-.5-.078-.744-.123-1.041-.19-2.069-.445-3.088-.727a111.132,111.132,0,0,1-16.825-6.418,125.83,125.83,0,0,1-17.436-9.452q-.88-.588-1.742-1.2c-.272-.2-.54-.4-.809-.594-.1-.077-.208-.156-.311-.235.453.345-.055-.043-.115-.092a27.038,27.038,0,0,1-2.525-2.246c-.3-.306-.571-.628-.848-.951-.317-.371.323.473.062.077-.045-.068-.1-.131-.142-.2-.121-.2-.245-.389-.363-.587-.067-.112-.286-.638-.107-.185s0-.058-.04-.169c-.071-.2-.145-.853-.011.117-.018-.128-.045-.726-.03-.174.02.755.075-.616.1-.825a4.3,4.3,0,0,1,.211-.914c.439-1.5.89-2.985,1.314-4.484q1.207-4.264,2.269-8.568c1.281-5.185,2.4-10.409,3.42-15.652,1.849-9.516,3.344-19.1,5.316-28.592A193.028,193.028,0,0,1,25.827,137.2q1.509-3.968,3.21-7.857a33.907,33.907,0,0,1,3.746-7.145c3.348-4.385,8.572-6.424,13.551-8.378,5.4-2.121,10.956-3.826,16.435-5.739A129.693,129.693,0,0,0,79.7,100.841c2.161-1.12,4.6-1.074,6.988-1,3.09.1,3.086-4.7,0-4.8Z"/><path class="b" d="M86.429,226.94c3.608-5.254,5.606-11.4,8.078-17.227a93.278,93.278,0,0,1,10.412-18.542c7.805-10.71,18.377-18.722,27.078-28.607a95.512,95.512,0,0,0,6.45-8.189,26.355,26.355,0,0,0,4.53-9.1,13.122,13.122,0,0,0-1.126-9.456,10.147,10.147,0,0,0-8-4.977c-6.231-.537-12.063,3.725-17,6.948-5.473,3.57-10.8,7.358-16.353,10.811-5.919,3.684-12.115,7.031-18.843,8.973a34.655,34.655,0,0,1-10.1,1.6c-3.785-.057-7.388-.464-11.164.154a2.42,2.42,0,0,0-1.677,2.953,2.459,2.459,0,0,0,2.953,1.676c3.031-.5,6.05-.116,9.092,0a36.6,36.6,0,0,0,9.492-1.053A65.973,65.973,0,0,0,97,156.22c5.475-2.993,10.65-6.493,15.817-9.979,2.6-1.75,5.189-3.5,7.822-5.192a49.154,49.154,0,0,1,7.608-4.355c2.166-.892,4.856-1.639,7.113-.625,2.526,1.136,3.373,3.948,3.2,6.515-.2,3.041-1.855,5.823-3.514,8.289a80.6,80.6,0,0,1-6.028,7.821c-8.267,9.519-18.318,17.256-26.106,27.231a93.124,93.124,0,0,0-11.9,19.859c-2.76,6.28-4.816,13.035-8.73,18.734-1.753,2.552,2.4,4.956,4.145,2.422Z"/><path class="c" d="M179.039,2.6c-11.439,0-64.078-.1-83.985-.151a7.62,7.62,0,0,0-7.642,7.568C87.29,28.061,87,61.882,87,69.657c0,11.912-.105,57.451-.136,78.9a7.622,7.622,0,0,0,7.612,7.636c36.8.053,190.24.376,225.557.448a6.391,6.391,0,0,0,6.407-6.387c.027-20.648.137-68.364.137-80.6,0-7.676.288-40.742.414-58.933a7.622,7.622,0,0,0-7.6-7.681C290.24,2.945,187.312,2.6,179.039,2.6Z"/><path class="d" d="M323.521,30.912c-31.28-.008-133.134-.047-143.085-.047-15.484,0-89.456-.165-93.189-.238-.029,4.735-.064,9.569-.1,14.174,1.823.068,77.6.238,93.288.238,11.223,0,88.18.048,100.119.048,8.214,0,37.575.028,46.18.029.025-4.607.064-9.451.1-14.2Z"/><path class="b" d="M179.039.2Q161.566.2,144.091.15,122.224.111,100.357.06C97.1.052,93.593-.362,90.582,1.1a9.916,9.916,0,0,0-4.49,4.455A13.427,13.427,0,0,0,85,11.656q-.084,12.065-.183,24.13c-.1,12.392-.214,24.784-.225,37.177q-.02,21.441-.075,42.883-.023,11.79-.044,23.581c-.006,3.244-.252,6.595.015,9.829a10.1,10.1,0,0,0,8.309,9.185,39.745,39.745,0,0,0,6.068.163l5.742.009,14.344.026,36.94.071q21.716.042,43.432.087l44.371.09,39.755.083,29.587.061c4.678.01,10.424.916,13.741-3.146,2.473-3.029,2.058-6.787,2.064-10.443q.007-5.1.017-10.2.043-23.572.09-47.146c.018-10.5.019-21,.092-31.5q.084-12.348.185-24.694.05-6.2.1-12.407.022-2.889.043-5.778a20.243,20.243,0,0,0-.371-5.832A10.209,10.209,0,0,0,319.1.642c-1.962-.017-3.926-.013-5.889-.02L297.517.57Q277.263.5,257.008.435,236.11.366,215.211.3,200.23.254,185.249.211,182.144.2,179.039.2c-3.088,0-3.093,4.8,0,4.8,6.322,0,12.643.03,18.965.049q18.395.055,36.788.116,21.126.067,42.253.138l34.867.117,6.156.021a7.968,7.968,0,0,1,3.53.5,5.276,5.276,0,0,1,2.927,3.882,30.486,30.486,0,0,1,.031,5.1q-.019,2.781-.041,5.564-.048,6.244-.1,12.49c-.1,12.8-.239,25.6-.246,38.4q-.012,19.736-.066,39.471-.022,11.742-.045,23.485-.009,5.109-.018,10.217,0,2.19-.007,4.381c0,1.449.03,2.755-.96,3.925-1.475,1.744-3.8,1.391-5.844,1.387l-5.223-.011-13.336-.028-35.072-.072-42.092-.087-43.84-.089-40.445-.08q-15.783-.03-31.568-.058c-3.566-.006-7.133,0-10.7-.017a5.4,5.4,0,0,1-5.7-5.71c-.01-3.23.01-6.459.016-9.688q.04-23.625.089-47.248c.019-10.452.009-20.9.076-31.355q.153-23.575.353-47.149c.011-1.545-.185-3.222.443-4.676A5.269,5.269,0,0,1,94,4.946a19.738,19.738,0,0,1,3.891-.092l4.146.01q10.26.026,20.519.045,21.936.045,43.871.077Q172.731,5,179.039,5C182.128,5,182.133.2,179.039.2Z"/><path class="b" d="M326.463,28.514q-6.493,0-12.987,0L289.231,28.5l-30.316-.011-31.2-.011-26.9-.01-17.416,0q-7.461,0-14.922-.013-14.691-.024-29.381-.059-15.2-.036-30.407-.082c-5.938-.018-11.877-.02-17.815-.075-.5,0-1.471-.248-.3.071l1.059,4.011h0l-1.059.617q-.951.1-.623.084a2.455,2.455,0,0,0,2.4-2.4,2.422,2.422,0,0,0-2.4-2.4,2.512,2.512,0,0,0-1.712.705A2.421,2.421,0,0,0,89.3,32.936a16.278,16.278,0,0,0,3.971.117q4.527.026,9.052.038,14.3.051,28.6.083,15.465.039,30.93.067,9.627.018,19.253.024l14.264,0,25.016.009L251,33.289l31.151.011,26.217.009,16.233.005h1.867c3.088,0,3.093-4.8,0-4.8Z"/><path class="b" d="M326.821,42.716q-14.387,0-28.773-.019-10.635-.008-21.269-.01l-21.606-.011-29.682-.016-28.078-.015q-8.433,0-16.865-.006-9.528,0-19.057-.025-14.112-.025-28.223-.061-13.567-.033-27.135-.076c-5.136-.016-10.273-.017-15.41-.068-.5,0-1.267-.231-.15.072l1.059,4.011h0l-1.059.617q-.951.106-.623.085a2.457,2.457,0,0,0,2.4-2.4,2.421,2.421,0,0,0-2.4-2.4,2.506,2.506,0,0,0-1.712.7A2.421,2.421,0,0,0,89.3,47.11a14.32,14.32,0,0,0,3.487.114q3.865.021,7.733.034,12.535.047,25.071.076,14.588.037,29.173.067,11.223.022,22.444.036,7.246.006,14.491.006l26.145.013,30.185.017q12.349.006,24.7.012,8.807,0,17.614.007,15.771.011,31.543.022l4.937,0c3.088,0,3.093-4.8,0-4.8Z"/><path class="b" d="M279.717,141.689q8.516,0,17.032,0h2.745c3.089,0,3.094-4.8,0-4.8H279.717c-3.089,0-3.094,4.8,0,4.8Z"/><path class="b" d="M312.791,138.652a42.894,42.894,0,0,0-4.313-3.441,1.058,1.058,0,0,0-1.662.858c-.025,1.973-.073,4.4-.1,6.24a1.055,1.055,0,0,0,1.625.906c1.348-.864,3.117-2.061,4.34-2.916A1.058,1.058,0,0,0,312.791,138.652Z"/><path class="e" d="M285.788,92.937c7.747.009,19.531.025,22.555.025,0-5.3-.019-21.542-.019-26.262-1.676,0-25.407.016-28.845.016,0,3.94-.085,23-.085,26.216Z"/><path class="b" d="M285.788,95.337q11.277.014,22.555.025a2.435,2.435,0,0,0,2.4-2.4q0-13.131-.019-26.262a2.435,2.435,0,0,0-2.4-2.4q-12.036,0-24.071.014l-4.774,0a2.435,2.435,0,0,0-2.4,2.4c0,8.739-.083,17.477-.085,26.216a2.435,2.435,0,0,0,2.4,2.4q3.2,0,6.394.005c3.089,0,3.094-4.8,0-4.8q-3.2,0-6.394-.005l2.4,2.4c0-8.739.083-17.477.085-26.216l-2.4,2.4q12.489,0,24.979-.014l3.866,0-2.4-2.4q0,13.131.019,26.262l2.4-2.4q-11.277,0-22.555-.025C282.7,90.534,282.694,95.334,285.788,95.337Z"/><path class="b" d="M276.994,105.568v6a2.4,2.4,0,1,0,4.8,0v-6a2.4,2.4,0,1,0-4.8,0Z"/><path class="b" d="M286.651,105.568v6a2.4,2.4,0,1,0,4.8,0v-6a2.4,2.4,0,0,0-4.8,0Z"/><path class="b" d="M296.309,105.568v6a2.4,2.4,0,0,0,4.8,0v-6a2.4,2.4,0,1,0-4.8,0Z"/><path class="b" d="M305.966,105.568v6a2.4,2.4,0,1,0,4.8,0v-6a2.4,2.4,0,0,0-4.8,0Z"/><path class="b" d="M109.364,107.534c-2.536,3.1-4.984,6.292-7.66,9.274A2.4,2.4,0,0,0,105.1,120.2c2.676-2.982,5.125-6.173,7.66-9.274a2.586,2.586,0,0,0,.7-1.7,2.4,2.4,0,0,0-4.1-1.7Z"/><path class="b" d="M126.729,107.214c-5.748,8.186-12.169,15.9-18.529,23.753-1.081,1.335-2.155,2.678-3.271,3.984a2.462,2.462,0,0,0,0,3.394,2.421,2.421,0,0,0,3.394,0c6.372-7.455,12.375-15.278,18.342-23.056,1.429-1.864,2.859-3.73,4.209-5.653a2.42,2.42,0,0,0-.861-3.283,2.45,2.45,0,0,0-3.284.861Z"/><path class="b" d="M115.717,72.756c-1.151-3.02-5.277-3.222-7.218-1.756-1.848,1.4-3.164,5.28-1.853,8.561a4.716,4.716,0,0,0,7.878,2C116.12,80.016,116.776,75.535,115.717,72.756Z"/><path class="b" d="M128.089,72.756c-1.151-3.02-5.277-3.222-7.218-1.756-1.848,1.4-3.164,5.28-1.853,8.561a4.716,4.716,0,0,0,7.878,2C128.492,80.016,129.148,75.535,128.089,72.756Z"/><path class="b" d="M140.108,72.756c-1.151-3.02-5.277-3.222-7.218-1.756-1.848,1.4-3.164,5.28-1.853,8.561a4.716,4.716,0,0,0,7.878,2C140.511,80.016,141.167,75.535,140.108,72.756Z"/><path class="b" d="M152.592,72.756c-1.151-3.02-5.277-3.222-7.218-1.756-1.849,1.4-3.164,5.28-1.853,8.561a4.715,4.715,0,0,0,7.877,2C153,80.016,153.65,75.535,152.592,72.756Z"/><path class="b" d="M169.575,72.756c-1.151-3.02-5.277-3.222-7.218-1.756-1.848,1.4-3.163,5.28-1.853,8.561a4.716,4.716,0,0,0,7.878,2C169.978,80.016,170.634,75.535,169.575,72.756Z"/><path class="b" d="M181.947,72.756c-1.15-3.02-5.276-3.222-7.217-1.756-1.849,1.4-3.164,5.28-1.854,8.561a4.716,4.716,0,0,0,7.878,2C182.35,80.016,183.006,75.535,181.947,72.756Z"/><path class="b" d="M193.966,72.756c-1.151-3.02-5.277-3.222-7.218-1.756-1.848,1.4-3.164,5.28-1.853,8.561a4.716,4.716,0,0,0,7.878,2C194.369,80.016,195.025,75.535,193.966,72.756Z"/><path class="b" d="M206.45,72.756c-1.151-3.02-5.277-3.222-7.218-1.756-1.848,1.4-3.164,5.28-1.853,8.561a4.716,4.716,0,0,0,7.878,2C206.853,80.016,207.509,75.535,206.45,72.756Z"/><path class="b" d="M223.434,72.756c-1.151-3.02-5.277-3.222-7.218-1.756-1.849,1.4-3.164,5.28-1.854,8.561a4.716,4.716,0,0,0,7.878,2C223.836,80.016,224.492,75.535,223.434,72.756Z"/><path class="b" d="M235.806,72.756c-1.151-3.02-5.277-3.222-7.218-1.756-1.849,1.4-3.164,5.28-1.854,8.561a4.716,4.716,0,0,0,7.878,2C236.209,80.016,236.864,75.535,235.806,72.756Z"/><path class="b" d="M247.824,72.756c-1.15-3.02-5.277-3.222-7.217-1.756-1.849,1.4-3.164,5.28-1.854,8.561a4.716,4.716,0,0,0,7.878,2C248.227,80.016,248.883,75.535,247.824,72.756Z"/><path class="b" d="M260.308,72.756c-1.151-3.02-5.277-3.222-7.218-1.756-1.848,1.4-3.163,5.28-1.853,8.561a4.716,4.716,0,0,0,7.878,2C260.711,80.016,261.367,75.535,260.308,72.756Z"/><path class="a" d="M105.308,186.738c11.044-13.794,21.256-19.458,31.342-33.968,2.367-3.405,4.5-7.168,4.326-11.456a8.642,8.642,0,0,0-2.852-6.286c-4.266-3.639-10.332-1.181-14.923,1.592-15.683,9.47-30.261,22.66-48.456,24.812Z"/><path class="b" d="M86.429,226.94c3.608-5.254,5.606-11.4,8.078-17.227a93.278,93.278,0,0,1,10.412-18.542c7.805-10.71,18.377-18.722,27.078-28.607a95.512,95.512,0,0,0,6.45-8.189,26.355,26.355,0,0,0,4.53-9.1,13.122,13.122,0,0,0-1.126-9.456,10.147,10.147,0,0,0-8-4.977c-6.231-.537-12.063,3.725-17,6.948-5.473,3.57-10.8,7.358-16.353,10.811-5.919,3.684-12.115,7.031-18.843,8.973a34.655,34.655,0,0,1-10.1,1.6c-3.785-.057-7.388-.464-11.164.154a2.42,2.42,0,0,0-1.677,2.953,2.459,2.459,0,0,0,2.953,1.676c3.031-.5,6.05-.116,9.092,0a36.6,36.6,0,0,0,9.492-1.053A65.973,65.973,0,0,0,97,156.22c5.475-2.993,10.65-6.493,15.817-9.979,2.6-1.75,5.189-3.5,7.822-5.192a49.154,49.154,0,0,1,7.608-4.355c2.166-.892,4.856-1.639,7.113-.625,2.526,1.136,3.373,3.948,3.2,6.515-.2,3.041-1.855,5.823-3.514,8.289a80.6,80.6,0,0,1-6.028,7.821c-8.267,9.519-18.318,17.256-26.106,27.231a93.124,93.124,0,0,0-11.9,19.859c-2.76,6.28-4.816,13.035-8.73,18.734-1.753,2.552,2.4,4.956,4.145,2.422Z"/></svg>