<?xml version="1.0" encoding="utf-8"?>
<!-- Uploaded to: SVG Repo, www.svgrepo.com, Generator: SVG Repo Mixer Tools -->
<svg width="800px" height="800px" viewBox="0 -80.84 329.026 329.026" xmlns="http://www.w3.org/2000/svg"><defs><style>.a{fill:#ffffff;}.b{fill:#211715;}.c{fill:#cfcfcf;}.d,.e,.f{fill:none;stroke:#cfcfcf;stroke-linecap:round;stroke-linejoin:round;stroke-width:5.6px;}.e{stroke-dasharray:5.031 15.092;}.f{stroke-dasharray:5.608 16.825;}</style></defs><path class="a" d="M164.67,2.8c-25.84.6-69.1,8.805-90.728,15.948-4.289,1.416-9.8,3.549-11.237,5.787-2.252,3.5-2.251,8.977-2.774,14.058-1.2,11.692-1.413,74.8-1.056,87.828-.089,5.908,1.128,7.44,4.915,10.041,17.473,12,68.688,27.563,100.881,28.167,32.192-.6,83.407-16.166,100.88-28.167,3.787-2.6,5-4.133,4.915-10.041.357-13.025.148-76.136-1.056-87.828-.523-5.081-.522-10.555-2.774-14.058-1.439-2.238-6.948-4.371-11.237-5.787C233.771,11.606,190.511,3.4,164.67,2.8Z"/><path class="b" d="M164.67,0a286.63,286.63,0,0,0-37.615,3.916C114.038,5.974,101.077,8.525,88.3,11.746c-5.2,1.309-10.376,2.721-15.458,4.422a40.328,40.328,0,0,0-9.652,4.212c-2.92,1.951-4.279,4.868-4.949,8.253a98.633,98.633,0,0,0-1.378,13.73c-.189,3.489-.294,6.984-.387,10.477-.261,9.82-.376,19.644-.457,29.467q-.123,14.886-.087,29.773c.011,3.532.029,7.065.077,10.6.052,3.858-.427,8.292,1.624,11.716,1.294,2.159,3.437,3.637,5.5,4.993,1.71,1.124,3.488,2.142,5.3,3.1a145.025,145.025,0,0,0,14.1,6.407,277.534,277.534,0,0,0,36.036,11.473A238.34,238.34,0,0,0,156.528,167a98.8,98.8,0,0,0,16.774-.041c6.308-.544,12.59-1.447,18.821-2.566a296.434,296.434,0,0,0,38.121-9.569c10.613-3.405,21.274-7.275,31.109-12.571,1.746-.94,3.464-1.937,5.114-3.037,2.051-1.368,4.228-2.888,5.412-5.122,1.85-3.489,1.41-7.809,1.461-11.657.108-8.279.1-16.559.071-24.838q-.045-15.694-.271-31.387c-.124-8.025-.224-16.063-.671-24.078a87.222,87.222,0,0,0-1.487-14.08,11.67,11.67,0,0,0-5.241-7.941,45.708,45.708,0,0,0-9.844-4.146A296.31,296.31,0,0,0,221.75,7.411c-13.334-2.678-26.8-4.858-40.327-6.261C175.855.572,170.268.137,164.67,0c-3.6-.088-3.6,5.512,0,5.6a274.4,274.4,0,0,1,35.937,3.686c12.806,2.018,25.555,4.519,38.135,7.655,5.1,1.27,10.172,2.644,15.169,4.264a43.029,43.029,0,0,1,8.712,3.568,7.078,7.078,0,0,1,1.311.909c.09.088.533.592.365.363-.222-.3.09.177.1.2.106.21.233.408.336.619a15.615,15.615,0,0,1,1.175,4.448c1.094,7.268,1.184,14.781,1.373,22.116.25,9.674.364,19.351.443,29.028s.115,19.353.088,29.03c-.01,3.569-.027,7.139-.072,10.708-.016,1.21-.034,2.42-.062,3.629-.026,1.108,0,2.213-.095,3.319a5.311,5.311,0,0,1-.257,1.352c-.067.237-.142.472-.231.7.191-.5-.066.1-.165.272-.051.09-.4.631-.219.376s-.289.33-.378.422c-.167.176-.344.344-.524.507-.127.116-.609.519-.523.45-.5.4-1.642,1.164-2.426,1.666-1.725,1.1-3.512,2.107-5.326,3.055-2.08,1.087-4.2,2.1-6.34,3.061-2.472,1.111-4.339,1.888-6.9,2.9a281.1,281.1,0,0,1-35.367,11.153,228.038,228.038,0,0,1-36.277,6.356,98.1,98.1,0,0,1-16.449-.04c-5.965-.508-11.579-1.318-17.5-2.38a296.494,296.494,0,0,1-37.439-9.351C90.835,146.324,80.9,142.761,71.36,137.71c-1.753-.928-3.48-1.911-5.146-2.991q-.51-.33-1.011-.674-.441-.3-.874-.617c-.115-.084-.232-.168-.345-.256.227.177.049.036-.069-.065a12.812,12.812,0,0,1-1.071-1.013c-.1-.111-.206-.231-.3-.351.023.029.265.373.1.109-.139-.227-.273-.452-.4-.684-.249-.446.07.307-.084-.2-.087-.284-.175-.564-.243-.853-.032-.138-.143-.724-.123-.591.04.271-.025-.228-.025-.225q-.032-.322-.051-.646c-.063-1-.039-2-.062-3-.028-1.234-.046-2.468-.061-3.7-.1-8.21-.09-16.422-.065-24.633q.048-15.341.265-30.68c.121-7.987.229-15.985.648-23.963a100.925,100.925,0,0,1,1.085-11.959A13.37,13.37,0,0,1,64.854,26.4c.086-.152.176-.3.269-.449-.022.035-.3.348-.079.1a6.031,6.031,0,0,1,.675-.643c-.238.192.344-.228.427-.282.335-.217.681-.419,1.03-.613a47.783,47.783,0,0,1,8.631-3.429A307.022,307.022,0,0,1,109.636,12.7c12.781-2.551,25.67-4.657,38.634-5.986,5.451-.559,10.921-.979,16.4-1.112C168.268,5.514,168.281-.087,164.67,0Z"/><path class="b" d="M269.432,136.692a99.7,99.7,0,0,0,31.615-19.265,88,88,0,0,0,22.114-32.563,83.422,83.422,0,0,0,5.269-40.342c-.864-6.864-2.457-13.8-5.886-19.878a28.288,28.288,0,0,0-14.376-12.511c-15.008-5.952-30.54,1.779-42.837,10.185a2.87,2.87,0,0,0-1,3.831,2.825,2.825,0,0,0,3.831,1c10.029-6.855,22.156-13.76,34.663-10.827a22.4,22.4,0,0,1,13.366,8.723c3.654,5.21,5.375,11.509,6.383,17.719,3.99,24.6-5.393,50.465-22.727,68.031a91.367,91.367,0,0,1-31.9,20.493,2.885,2.885,0,0,0-1.956,3.445,2.82,2.82,0,0,0,3.444,1.955Z"/><path class="b" d="M61.063,131.292A92.5,92.5,0,0,1,32.2,113.725,81.785,81.785,0,0,1,11.552,84.15,80.287,80.287,0,0,1,5.9,47.03c1.05-11.43,4.791-24.752,16.424-29.5,13.531-5.52,27.439,2.044,38.522,9.62a2.8,2.8,0,1,0,2.827-4.835C52.4,14.611,39.1,7.74,25.056,10.845a27.841,27.841,0,0,0-15.787,9.67C4.918,26.014,2.6,32.8,1.327,39.622c-5.015,26.821,4.488,55.127,23.338,74.585,9.779,10.1,21.885,17.377,34.909,22.485a2.821,2.821,0,0,0,3.445-1.955,2.867,2.867,0,0,0-1.956-3.445Z"/><path class="c" d="M76.576,63.085c10.825-3.075,22.009-5.047,33.068-7.06q10.212-1.858,20.462-3.5,4.864-.779,9.739-1.5,2.279-.337,4.561-.661,1.059-.148,2.117-.295l1.031-.141.383-.051.262-.035c4.4-.583,8.811-1.156,13.239-1.442a79.032,79.032,0,0,1,10.954.294c13,.968,25.83,2.662,38.494,4.523,12.483,1.836,25.062,3.748,37.313,6.819q1.507.378,3,.8c3.473.985,4.955-4.416,1.489-5.4-11.552-3.278-23.6-5.066-35.447-6.886-13.578-2.087-27.221-3.919-40.907-5.133a119.516,119.516,0,0,0-12.868-.71,112.623,112.623,0,0,0-11.448,1.046c-12.921,1.587-25.786,3.675-38.6,5.933-11.86,2.089-23.775,4.225-35.446,7.224-.965.248-1.927.505-2.885.778-3.461.983-1.99,6.388,1.489,5.4Z"/><path class="c" d="M75.535,113.126c11.206,1.641,22.4,3.337,33.618,4.923,13.347,1.887,26.714,3.722,40.129,5.056,4.84.482,9.7.929,14.565,1.041a121.152,121.152,0,0,0,13.574-.652c13.115-1.179,26.172-3.066,39.189-5.026,11.253-1.694,22.484-3.524,33.707-5.408l2.582-.434a2.821,2.821,0,0,0,1.955-3.444,2.865,2.865,0,0,0-3.444-1.956c-10.317,1.733-20.638,3.438-30.977,5.033-13.129,2.025-25.72,3.879-38.874,5.234-4.992.515-10.009.981-15.03,1.062a126.818,126.818,0,0,1-13.07-.657c-12.771-1.121-25.565-2.847-38.044-4.58-11.8-1.639-23.579-3.4-35.362-5.145q-1.515-.225-3.029-.447a2.892,2.892,0,0,0-3.444,1.956c-.363,1.318.45,3.224,1.955,3.444Z"/><path class="c" d="M75.993,88.372c12.538,0,25.075-.253,37.61-.521,12.375-.265,24.749-.587,37.125-.808,8.792-.157,17.584-.145,26.377-.229,11.817-.112,23.633-.274,35.449-.415,11.725-.14,23.451-.281,35.176-.314q1.827,0,3.653,0c3.6,0,3.609-5.6,0-5.6-11.343,0-22.686.131-34.028.262-12.145.141-24.289.307-36.434.434-8.825.093-17.652.071-26.477.2-11.934.183-23.866.5-35.8.76-12.79.284-25.582.557-38.375.62q-2.139.011-4.277.011c-3.6,0-3.61,5.6,0,5.6Z"/><path class="d" d="M85.75,31.469l2.56-.763"/><path class="e" d="M102.875,26.766A273.781,273.781,0,0,1,164.8,19.147c31.183-.251,55.549,5.453,70.061,8.84"/><path class="d" d="M242.226,29.647c.964.2,1.84.362,2.626.488"/><path class="d" d="M87.751,133.489q1.126.336,2.558.775"/><path class="f" d="M106.506,138.8A251.471,251.471,0,0,0,164.8,146c30.33.244,52.591-5.729,66.436-9.425"/><path class="d" d="M239.394,134.5q1.426-.318,2.623-.512"/><path class="b" d="M78.567,130.007c-.59-11.827-.357-23.733-.342-35.569.02-15.858.109-31.72.484-47.574.119-5.031.119-10.125.65-15.134a2.818,2.818,0,0,0-2.8-2.8,2.863,2.863,0,0,0-2.8,2.8c-.456,4.3-.483,8.665-.6,12.984-.19,7.226-.293,14.454-.372,21.682q-.261,23.913-.114,47.829c.039,5.257.028,10.53.29,15.782a2.86,2.86,0,0,0,2.8,2.8,2.827,2.827,0,0,0,2.8-2.8Z"/><path class="b" d="M256.641,130.007c.59-11.827.357-23.733.342-35.569-.02-15.858-.109-31.72-.484-47.574-.119-5.031-.119-10.125-.65-15.134a2.882,2.882,0,0,0-2.8-2.8,2.818,2.818,0,0,0-2.8,2.8c.456,4.3.483,8.665.6,12.984.19,7.226.293,14.454.372,21.682q.261,23.913.114,47.829c-.039,5.257-.028,10.53-.29,15.782a2.8,2.8,0,1,0,5.6,0Z"/></svg>