<?xml version="1.0" encoding="utf-8"?>
<!-- Uploaded to: SVG Repo, www.svgrepo.com, Generator: SVG Repo Mixer Tools -->
<svg width="800px" height="800px" viewBox="0 -121.07 451.167 451.167" xmlns="http://www.w3.org/2000/svg"><defs><style>.a{fill:#ffffff;}.b{fill:#957f6e;}.c{fill:#7a7473;}.d{fill:#211715;}.e{fill:#bdbdbd;}.f{fill:#87cce3;}.g{fill:#5394cf;}.h{fill:#d9d9d9;}.i{fill:#a0a0a0;}</style></defs><path class="a" d="M93.986,67.068a4,4,0,0,1,3.2-.936,3.774,3.774,0,0,1,2.714,1.8,5.356,5.356,0,0,1,.559,2.147,16,16,0,0,1-1.631,8.478,10.171,10.171,0,0,1-2.629,3.45,6.729,6.729,0,0,1-3.134,1.412l-.535.082c-.258.964-.547,1.775-.689,2.2C90.926,88.191,85.8,96.789,79.358,99.9c.231,1.559.456,2.93,2.693,3.738.171.062,3.08,1.2,3.342,1.3,0,0-.407,20.736-18.407,20.736s-16.7-21.413-16.7-21.413c.5-.17,1.7-.565,1.872-.627,2.124-.767,2.434-2.307,2.656-3.859A23.738,23.738,0,0,1,47.462,93.7a27.189,27.189,0,0,1-5.183-10.117l-1.022-.158a6.729,6.729,0,0,1-3.134-1.412,10.171,10.171,0,0,1-2.629-3.45,16,16,0,0,1-1.63-8.478,5.338,5.338,0,0,1,.558-2.147,3.774,3.774,0,0,1,2.715-1.8,4,4,0,0,1,3.2.936s5.614-23.17,26.5-23.17S93.986,67.068,93.986,67.068Z"/><path class="b" d="M80.259,49.936a49.775,49.775,0,0,0,3.515,9.011c1.49,2.467,5.541,7.856,9.405,9.32a3.682,3.682,0,0,1,4.006-2.135,3.4,3.4,0,0,1,.5.112c2.251-5.181,1.115-13.938.215-18.3-2.78-13.532-16.51-24.273-30.909-23.488-14.4-.785-28.13,9.956-30.91,23.488A38.188,38.188,0,0,0,36.1,60.746l1.078,5.383a3.789,3.789,0,0,1,3.808,1.764c5.436-4.114,14.971-10.052,19.689-13.975-.411,2.467-1.872,6.662-.032,6.231,7.728-1.73,15.133-5.23,19.578-10.695"/><path class="a" d="M367.891,63.8a4.015,4.015,0,0,1,3.213-.94,3.792,3.792,0,0,1,2.726,1.812,5.368,5.368,0,0,1,.561,2.157,16.064,16.064,0,0,1-1.638,8.514,10.2,10.2,0,0,1-2.64,3.465,6.776,6.776,0,0,1-3.147,1.419l-.539.083c-.259.967-.549,1.781-.691,2.214-.869,2.358-5.525,10.22-11.508,13.706a42.884,42.884,0,0,0,.679,7.468c.385,2.2.265,4.159,3.318,5.262.2.073,1.9.743,2.356.944,0,0-1.311,14.978-21.032,14.978-19.982,0-18.47-15.158-18.47-15.158.374-.16,1.641-.691,1.843-.764,3.054-1.1,2.933-3.066,3.318-5.262a42.189,42.189,0,0,0,.673-7.981,25.249,25.249,0,0,1-5.748-5.171,27.309,27.309,0,0,1-5.207-10.163l-1.025-.156a6.775,6.775,0,0,1-3.148-1.419,10.2,10.2,0,0,1-2.64-3.465,16.064,16.064,0,0,1-1.638-8.514,5.368,5.368,0,0,1,.561-2.157,3.792,3.792,0,0,1,2.726-1.812,4.014,4.014,0,0,1,3.213.94s1.275-22.713,26.387-22.713C367.82,41.083,367.891,63.8,367.891,63.8Z"/><path class="c" d="M362.247,57.787a33.587,33.587,0,0,0-10.028-7.809l-5.52-1.31c-3.422,1.567-9.613,4.95-10.152,4.718-.372-.16-1.046-1.716-1.528-3.2a11.82,11.82,0,0,1-.551-2.281A254.02,254.02,0,0,0,314.977,65.62c-.229-1.911-2.312-3.044-4.183-2.764a3.835,3.835,0,0,0-.923.259c-2.076-8.589-1.56-15.858.178-20.963,1.577-4.629,5.137-9.9,9.632-12.235-1.523-.721-3.261-1.553-3.261-1.553,6.756-6.8,15.643-8.357,23.356-8.121,8.237.252,14.671,3.494,18.532,8.782l4.439,3.677a19.519,19.519,0,0,1,8.825,10.723c2.521,7.05,2.228,14.481.232,19.6a3.954,3.954,0,0,0-.7-.172,3.7,3.7,0,0,0-4.022,2.138A33.47,33.47,0,0,0,362.247,57.787Z"/><path class="a" d="M433.519,167c-4.431-.046-9.866-.017-14.392.308a2.185,2.185,0,0,0-2.027,2.29c.3,6.018,1.632,16.469,2.036,18.288.435,1.958.967,9.722,7.407,9.722,3.1,0,8.769-.007,13.934-.007,4.5,0,5.484-3.545,6.241-7.989.5-2.943,1.66-11.525,2.386-20.187a1.859,1.859,0,0,0-1.767-2.011C442.206,167.186,437.478,167.043,433.519,167Z"/><path class="a" d="M183.468,198.124c0-2.695,0-28.516,0-31.875.651.012,6.222.109,7.654.109,0,2.431.15,37.407.115,40.613a.346.346,0,0,0,0,.044c-7,0-43.771-.044-46.847-.044-.035-3.206.114-38.182.114-40.613,1.432,0,7.089-.089,7.089-.089h.094c0-.031.009,26.435.009,31.806C158.559,198.074,183.468,198.124,183.468,198.124Z"/><path class="a" d="M181.109,146.272l0-.206a.143.143,0,0,1-.031,0H168.03c0,6.463-.093,45.961-.093,50.967,4.383,0,8.373.064,13.138.064h.282C181.345,187.833,181.239,156.271,181.109,146.272Z"/><path class="d" d="M53.041,98.232a13.618,13.618,0,0,1-.592,2.869l.2-.478a3.693,3.693,0,0,1-.464.806l.313-.405a3.5,3.5,0,0,1-.566.563l.405-.312a4.433,4.433,0,0,1-.941.538l.478-.2c-.69.282-1.415.484-2.12.723a2.122,2.122,0,0,0-1.2.92,2,2,0,0,0,2.258,2.938,13.27,13.27,0,0,0,3.394-1.357,5.445,5.445,0,0,0,1.734-1.859,6.827,6.827,0,0,0,.669-1.88c.118-.6.179-1.2.282-1.8a2.161,2.161,0,0,0-.2-1.541,2,2,0,0,0-2.736-.718,1.953,1.953,0,0,0-.919,1.195Z"/><path class="d" d="M77.313,99.688a18.839,18.839,0,0,0,.381,2.1,5.178,5.178,0,0,0,1.544,2.5,14.047,14.047,0,0,0,4.131,1.991c.5.2,1,.384,1.492.587a2,2,0,0,0,1.541-.2,2,2,0,0,0,.718-2.736,2.343,2.343,0,0,0-1.2-.919c-1.2-.492-2.426-.927-3.629-1.416l.478.2a4.741,4.741,0,0,1-1.054-.6l.405.313a3.332,3.332,0,0,1-.549-.558l.312.405a3.389,3.389,0,0,1-.388-.683l.2.478a11.988,11.988,0,0,1-.532-2.527,2.005,2.005,0,0,0-.919-1.2,2.039,2.039,0,0,0-1.541-.2,2.017,2.017,0,0,0-1.195.919,2.272,2.272,0,0,0-.2,1.541Z"/><path class="b" d="M48.75,105.149a13.7,13.7,0,0,0,6.716-5.057,23.244,23.244,0,0,1-8-6.394,27.189,27.189,0,0,1-5.183-10.117l-1.022-.158a6.729,6.729,0,0,1-3.134-1.412c-.159-.129-.311-.262-.458-.4A13.421,13.421,0,0,0,36.156,86.4a21.973,21.973,0,0,0-.15,3.03c.038,2.406.644,4.868.765,7.274s-.886,5.157-3.171,5.931C32.561,104.313,41.259,107.811,48.75,105.149Z"/><path class="d" d="M35.939,80.6a16.97,16.97,0,0,0-1.885,6.871,41.965,41.965,0,0,0,.586,7.71c.188,1.654.337,3.555-.8,4.934-.569.693-1.532.75-2,1.567a2.6,2.6,0,0,0-.236,1.94c.558,2.1,3.284,3.08,5.114,3.628a21.279,21.279,0,0,0,8.706.7,16.7,16.7,0,0,0,10.708-5.479c1.674-1.941-1.143-4.782-2.828-2.828-3.073,3.563-7.45,4.751-11.936,4.422a14.174,14.174,0,0,1-2.582-.4c-.425-.1-.847-.215-1.263-.347q-.289-.092-.575-.2c-.052-.019-.627-.248-.364-.136s-.26-.123-.308-.147c-.143-.071-.285-.144-.423-.224s-.246-.155-.372-.227c-.376-.215.032-.017.01.019,0-.005-.223-.2-.239-.227-.175-.3.3.451.1.119a1.494,1.494,0,0,1-.028,1.352l-1.2.92c4-1.52,4.946-5.716,4.485-9.577-.5-4.174-1.293-8.468.776-12.371,1.2-2.273-2.246-4.3-3.454-2.019Z"/><path class="d" d="M38.031,60.214a31.64,31.64,0,0,1-.245-10.376,24.11,24.11,0,0,1,3.485-9.567,29.536,29.536,0,0,1,16.5-12.7,36.16,36.16,0,0,1,10.666-1.164A27.346,27.346,0,0,1,79.058,28.59,29.5,29.5,0,0,1,94.12,42.873a32.074,32.074,0,0,1,2.621,10.583c.412,4.021.6,8.4-.967,12.212a2.013,2.013,0,0,0,1.4,2.46,2.052,2.052,0,0,0,2.461-1.4c1.556-3.779,1.535-8.188,1.209-12.2a41.421,41.421,0,0,0-2.057-10.8A33.08,33.08,0,0,0,71.315,22.556a55.547,55.547,0,0,0-5.955-.144,31.074,31.074,0,0,0-6.231.687A33.7,33.7,0,0,0,39.282,36.077,28.557,28.557,0,0,0,34.04,48a35.27,35.27,0,0,0,.133,13.273c.561,2.512,4.418,1.449,3.858-1.063Z"/><path class="d" d="M78.331,50.467c1.259,4.152,2.685,8.305,5.3,11.812,2.459,3.305,5.741,7.25,9.966,8.194,2.507.56,3.578-3.3,1.063-3.857a5.708,5.708,0,0,1-2.15-.939,13.545,13.545,0,0,1-1.968-1.555A29.339,29.339,0,0,1,86.814,59.9c-2.279-3.145-3.507-6.8-4.626-10.494-.745-2.457-4.607-1.41-3.857,1.063Z"/><path class="d" d="M78.808,48.039A28.428,28.428,0,0,1,67.064,56.12q-1.737.676-3.524,1.207-.9.269-1.8.5-.505.131-1.012.25-.3.072-.609.14l1.631.952c.042-.016-.117.312-.006-.042a3.875,3.875,0,0,0,.03-.606c.038-.355.12-.709.193-1.06.209-1.006.465-2,.644-3.014A2.019,2.019,0,0,0,59.263,52.5C52.752,57.879,45.281,61.987,38.64,67.2a2.01,2.01,0,0,0,0,2.828,2.05,2.05,0,0,0,2.828,0c6.643-5.211,14.1-9.312,20.623-14.693l-3.342-1.946c-.385,2.171-1.532,4.807-.8,7,1.08,3.246,5.692,1.135,7.847.429,5.953-1.949,11.8-5.054,15.844-9.944,1.63-1.969-1.185-4.814-2.829-2.829Z"/><path class="d" d="M95.4,68.482a1.931,1.931,0,0,1,2.707.357,4.3,4.3,0,0,1,.4,2.176,13.231,13.231,0,0,1-.182,2.718c-.59,3.228-2.2,7.118-5.8,7.762a2.016,2.016,0,0,0-1.4,2.46,2.044,2.044,0,0,0,2.46,1.4c5.708-1.024,8.435-7.455,8.865-12.629.224-2.7-.033-5.732-2.365-7.474a6.03,6.03,0,0,0-7.524.4,2.016,2.016,0,0,0,0,2.829,2.043,2.043,0,0,0,2.828,0Z"/><path class="d" d="M91.023,80.447a14.87,14.87,0,0,1-.87,4.01c-.079.24-.172.478-.242.721-.038.135-.2.459.047-.092-.127.285-.257.566-.4.845a34.322,34.322,0,0,1-2.955,4.75c-2.538,3.48-6.045,7.192-10.343,8.2-2.505.587-1.444,4.445,1.064,3.857,5.327-1.25,9.454-5.6,12.588-9.842,2.7-3.658,4.92-7.8,5.108-12.45.105-2.574-3.9-2.569-4,0Z"/><path class="d" d="M41.749,65.653a6.031,6.031,0,0,0-7.524-.4c-2.335,1.735-2.588,4.776-2.364,7.474.429,5.174,3.157,11.605,8.864,12.629a2.057,2.057,0,0,0,2.46-1.4,2.016,2.016,0,0,0-1.4-2.46c-3.593-.644-5.206-4.534-5.8-7.762a13.089,13.089,0,0,1-.185-2.563,5.018,5.018,0,0,1,.34-2.224,1.913,1.913,0,0,1,2.772-.464,2.055,2.055,0,0,0,2.828,0,2.016,2.016,0,0,0,0-2.829Z"/><path class="d" d="M39.489,80.275a31.3,31.3,0,0,0,6.68,14.981c3.769,4.462,8.76,7.66,14.631,8.294a2.012,2.012,0,0,0,2-2,2.046,2.046,0,0,0-2-2c-4.911-.53-9-3.71-12.047-7.416a27.618,27.618,0,0,1-5.407-12.922,2.016,2.016,0,0,0-2.46-1.4,2.046,2.046,0,0,0-1.4,2.46Z"/><path class="d" d="M88.02,80.749a67.2,67.2,0,0,1,3.42-5.936c.718-1.12,1.465-2.221,2.255-3.292.117-.16.236-.318.355-.476.064-.086.175-.231.045-.062.216-.28.437-.555.661-.828q.612-.745,1.269-1.451A2,2,0,1,0,93.2,65.876,55.684,55.684,0,0,0,84.566,78.73a2,2,0,0,0,3.454,2.019Z"/><path class="d" d="M38.066,69.264q.637.69,1.232,1.419.285.349.563.7a1.331,1.331,0,0,1,.137.18c.093.124.187.248.279.372.8,1.082,1.572,2.192,2.316,3.316,1.213,1.835,2.361,3.711,3.478,5.606a2,2,0,0,0,3.454-2.019,71.5,71.5,0,0,0-8.631-12.406,2.014,2.014,0,0,0-2.828,0,2.043,2.043,0,0,0,0,2.828Z"/><path class="a" d="M66.842,78.789A145.661,145.661,0,0,0,50.92,80.166c-.837.111-2.907.277-3.453.838-1.015,1.043-.63,3.269-.761,4.533a29.537,29.537,0,0,0,.2,6.067c.3,2.666.452,5.508,2.456,7.587,3.7,3.845,12.29,5.892,17.931,5.892a37.092,37.092,0,0,0,11.036-1.822c3.076-1.006,5.952-2.693,7.561-5.118,1.518-2.287,1.459-4.58,1.784-7.185a24.561,24.561,0,0,0,.117-5.519c-.138-1.261.215-3.322-.813-4.378-.545-.56-2.251-.784-3.089-.887A163.731,163.731,0,0,0,66.842,78.789Z"/><path class="d" d="M66.842,76.789a112.482,112.482,0,0,0-12.594.962c-1.841.216-3.709.392-5.536.709A4.2,4.2,0,0,0,44.9,81.992a15.5,15.5,0,0,0-.157,2.688c-.011,1.187-.142,2.361-.1,3.551a52.122,52.122,0,0,0,.668,6.595,10.574,10.574,0,0,0,2.744,5.88,15.92,15.92,0,0,0,4.405,3.019,35.525,35.525,0,0,0,24.394,2.056c4.212-1.11,8.683-3.079,11-6.99A14.838,14.838,0,0,0,89.5,92.564a41.725,41.725,0,0,0,.278-7.266c-.146-2.1.135-4.518-1.766-5.952-1.693-1.278-4.4-1.212-6.426-1.445a133.5,133.5,0,0,0-14.743-1.112c-2.574-.009-2.578,3.991,0,4,3.689.013,7.376.34,11.043.711,1.879.19,3.757.395,5.63.629a4.93,4.93,0,0,1,1.971.373c.192.146.226.624.248,1.017a40.229,40.229,0,0,1-.55,11.177c-.825,3.567-4.121,5.559-7.39,6.636a32.444,32.444,0,0,1-20.872-.069c-2.6-.892-6.007-2.3-7.146-5.028a17.987,17.987,0,0,1-.915-5.01,37.694,37.694,0,0,1-.135-5.953c.038-.768-.05-1.551.045-2.316,0,.032.2-.825-.037-.445-.153.24-.122.026.121.006s.517-.125.762-.171c1.652-.308,3.355-.448,5.024-.641a110.716,110.716,0,0,1,12.2-.916C69.415,80.778,69.42,76.778,66.842,76.789Z"/><path class="d" d="M53.122,70.987c-.436,1.416-.152,4.673,2.53,4.95,3.545-.021,3.734-3.959,2.54-5.81C57.215,68.611,54.342,67.981,53.122,70.987Z"/><path class="d" d="M81.511,70.987c.435,1.416.151,4.673-2.531,4.95-3.545-.021-3.734-3.959-2.54-5.81C77.417,68.611,80.29,67.981,81.511,70.987Z"/><path class="a" d="M71.108,119.072c-1.162.093-2.418.149-3.763.149a37.913,37.913,0,0,1-12.83-1.99q.411,1.148.855,2.308c4.321,11.268,10.414,23.916,13.465,30.506l.186.4c3.438-8.368,7.756-20.5,10.839-30.781.262-.874.511-1.742.747-2.6A33.788,33.788,0,0,1,71.108,119.072Z"/><path class="e" d="M26.105,198.18c-6.313-4.29-11.365-8.485-17.677-12.775-2.2-1.492-4.508-3.126-5.5-5.589a15.228,15.228,0,0,1-.54-8.713c3.364-13.467,9.413-27.7,13.836-40.852,1.436-4.272,3.028-8.689,6.25-11.84a25.231,25.231,0,0,1,6.161-4.139c7.279-4.3,17-8.54,19.754-11.342l1.56-1.588.107.508a130.618,130.618,0,0,0,5.309,17.689c4.321,11.268,10.414,23.916,13.465,30.506l.186.4c3.438-8.368,7.756-20.5,10.839-30.781,2.369-7.9,3.692-15.354,4.144-17.549l.089-.434,1.226,1.248c2.754,2.8,13.216,7.047,20.494,11.342a25.231,25.231,0,0,1,6.161,4.139c3.222,3.151,4.814,7.568,6.25,11.84,4.424,13.157,10.472,27.385,13.837,40.852a15.237,15.237,0,0,1-.541,8.713c-.987,2.463-3.3,4.1-5.494,5.589-6.313,4.29-11.365,8.485-17.677,12.775"/><path class="f" d="M421.512,195.09c-1.791-2.449-2.1-5.971-2.376-7.2-.263-1.186-.92-6.04-1.429-10.943,4.1,0,28.15.125,30.659.125-.626,5.672-1.3,10.486-1.648,12.544-.757,4.444-1.743,7.989-6.241,7.989-5.165,0-10.835.007-13.934.007A5.907,5.907,0,0,1,421.512,195.09Z"/><path class="d" d="M433.519,165c-2.612-.026-5.225-.026-7.837.028q-1.785.036-3.57.111a19.149,19.149,0,0,0-3.833.286c-2.406.62-3.27,2.777-3.13,5.047.116,1.893.287,3.782.476,5.668.363,3.621.778,7.245,1.333,10.842a35.1,35.1,0,0,0,1.233,5.834c1.021,3.031,3.052,5.86,6.353,6.571a27.6,27.6,0,0,0,5.778.219l7.47,0c2.188,0,4.472.2,6.46-.9a7.734,7.734,0,0,0,3.3-4.146c1.264-3.23,1.506-6.972,1.955-10.387q.555-4.227,1-8.468.24-2.28.446-4.564c.125-1.384.331-2.749-.478-3.977a4.259,4.259,0,0,0-3.634-1.769c-1.6-.1-3.2-.134-4.8-.19-2.841-.1-5.683-.171-8.525-.2-2.575-.029-2.577,3.971,0,4q3.123.035,6.246.129,1.725.051,3.45.116.837.03,1.672.065a8.363,8.363,0,0,1,2.107.081c.4.16-.091-.252.11.034.183.261-.117,1.351-.15,1.713q-.174,1.929-.373,3.857-.354,3.44-.779,6.871c-.369,2.975-.711,5.98-1.331,8.916a9.145,9.145,0,0,1-1.349,3.717c-.926,1.2-2.381,1.1-3.758,1.1q-6.058,0-12.117.007a5.2,5.2,0,0,1-3.243-.772,6.084,6.084,0,0,1-1.717-2.428,26.566,26.566,0,0,1-1.263-5.249c-.463-2.426-.721-4.9-1-7.351-.227-1.975-.435-3.952-.611-5.932-.082-.93-.158-1.861-.221-2.792-.026-.384-.309-1.487.015-1.763.186-.159.983-.083,1.179-.094q.864-.051,1.729-.088c1.264-.055,2.53-.091,3.8-.116,2.537-.049,5.074-.048,7.611-.023C436.094,169.028,436.1,165.028,433.519,165Z"/><path class="d" d="M449.235,198.61H417.612c-2.573,0-2.578,4,0,4h31.623c2.573,0,2.578-4,0-4Z"/><path class="d" d="M417.707,178.956c8.664,0,17.327.074,25.99.111,1.557.007,3.113.015,4.669.016,2.574,0,2.578-4,0-4-8.522,0-17.045-.076-25.567-.111-1.7-.007-3.394-.016-5.092-.016-2.573,0-2.578,4,0,4Z"/><path class="d" d="M183.109,146.272l0-.206a2.034,2.034,0,0,0-2.531-1.928c.338-.052-.213-.062-.266-.067-.318-.031-.664,0-.985,0H168.03a2.029,2.029,0,0,0-2,2c0,14.468-.054,28.936-.082,43.4q-.007,3.782-.011,7.563a2.028,2.028,0,0,0,2,2c4.473,0,8.946.064,13.42.064a2.03,2.03,0,0,0,2-2q-.027-20.756-.166-41.512c-.021-3.106-.042-6.212-.082-9.318-.033-2.572-4.033-2.579-4,0,.18,13.962.186,27.927.227,41.889q.013,4.47.021,8.941l2-2c-4.474,0-8.947-.062-13.42-.064l2,2c0-14.218.056-28.437.081-42.655q.007-4.157.012-8.312l-2,2h6.223a49.98,49.98,0,0,0,7.385-.076l-2.532-1.929,0,.206C179.143,148.844,183.143,148.851,183.109,146.272Z"/><path class="d" d="M183.109,146.272l0-.206a2.034,2.034,0,0,0-2.531-1.928c.338-.052-.213-.062-.266-.067-.318-.031-.664,0-.985,0H168.03a2.029,2.029,0,0,0-2,2c0,14.468-.054,28.936-.082,43.4q-.007,3.782-.011,7.563a2.028,2.028,0,0,0,2,2c4.473,0,8.946.064,13.42.064a2.03,2.03,0,0,0,2-2q-.027-20.756-.166-41.512c-.021-3.106-.042-6.212-.082-9.318-.033-2.572-4.033-2.579-4,0,.18,13.962.186,27.927.227,41.889q.013,4.47.021,8.941l2-2c-4.474,0-8.947-.062-13.42-.064l2,2c0-14.218.056-28.437.081-42.655q.007-4.157.012-8.312l-2,2h6.223a49.98,49.98,0,0,0,7.385-.076l-2.532-1.929,0,.206C179.143,148.844,183.143,148.851,183.109,146.272Z"/><path class="g" d="M167.219,146.272l0-.206a.152.152,0,0,1-.031,0H154.14c0,6.463-.093,45.961-.093,50.967,4.383,0,8.373.064,13.139.064h.281C167.456,187.833,167.35,156.271,167.219,146.272Z"/><path class="d" d="M169.219,146.272l0-.206a2.035,2.035,0,0,0-2.532-1.928c.338-.052-.212-.062-.266-.067-.318-.031-.664,0-.985,0H154.14a2.029,2.029,0,0,0-2,2c0,14.468-.054,28.936-.081,43.4q-.007,3.782-.012,7.563a2.028,2.028,0,0,0,2,2c4.474,0,8.947.064,13.42.064a2.029,2.029,0,0,0,2-2q-.027-20.756-.166-41.512c-.02-3.106-.042-6.212-.082-9.318-.033-2.572-4.033-2.579-4,0,.18,13.962.186,27.927.227,41.889q.014,4.47.021,8.941l2-2c-4.473,0-8.946-.062-13.42-.064l2,2c0-14.218.056-28.437.082-42.655q.007-4.157.011-8.312l-2,2h6.223a49.978,49.978,0,0,0,7.385-.076l-2.531-1.929,0,.206C165.253,148.844,169.253,148.851,169.219,146.272Z"/><path class="d" d="M185.468,198.124q0-13.452,0-26.9v-4.972l-2,2c2.551.045,5.1.105,7.654.109l-2-2c0,11.57.091,23.139.115,34.709,0,1.956-.167,4,0,5.948l2-2q-20.262,0-40.523-.039-3.162,0-6.324,0l2,2c-.12-11.666.054-23.341.1-35.007.007-1.868.018-3.737.018-5.606l-2,2c2.4,0,4.789-.056,7.183-.09l-2-2c-.086,8.565,0,17.135.008,25.7q0,3.052,0,6.106a2.029,2.029,0,0,0,2,2q14.3,0,28.607.043l3.159.007c2.574,0,2.578-4,0-4q-12.538-.025-25.077-.044-3.345,0-6.689-.006l2,2q0-14.241-.008-28.482c0-1.108-.012-2.216,0-3.324a2.025,2.025,0,0,0-2-2c-2.394.034-4.788.086-7.183.09a2.03,2.03,0,0,0-2,2c0,11.536-.09,23.073-.114,34.609,0,2-.021,4,0,6a2.03,2.03,0,0,0,2,2q19.245,0,38.491.039,4.178,0,8.356,0a2.014,2.014,0,0,0,2-2c-.141-1.6,0-3.282,0-4.89q-.008-4.742-.025-9.483-.033-10.29-.073-20.58c-.007-1.9-.018-3.8-.019-5.7a2.03,2.03,0,0,0-2-2c-2.551,0-5.1-.064-7.654-.109a2.028,2.028,0,0,0-2,2q0,13.623,0,27.244v4.631C181.468,200.7,185.468,200.7,185.468,198.124Z"/><path class="e" d="M300.37,197.039l-18.938-12.87c-2.195-1.492-4.508-3.126-5.494-5.589a15.228,15.228,0,0,1-.541-8.713c3.364-13.467,6.364-25.306,10.787-38.463,1.436-4.272,3.028-8.688,6.25-11.84,2.135-2.089,6.563-4.4,9.225-5.758q11.138-5.661,22.272-11.332c1.044,3.862,2.647,10.314,4.893,16.747,4.275,12.249,10.134,25.92,13.288,32.73l.341.736c3.714-8.948,8.645-22.843,12.055-34.289a159.9,159.9,0,0,0,3.9-16.515q11.713,5.973,23.433,11.923c2.663,1.353,7.091,3.669,9.226,5.758,3.221,3.152,4.813,7.568,6.25,11.84,4.423,13.157,7.422,25,10.787,38.463a15.237,15.237,0,0,1-.541,8.713c-.987,2.463-3.3,4.1-5.494,5.589l-18.938,12.87"/><path class="d" d="M329.531,97.4l-27.1,13.775a60.913,60.913,0,0,0-10.167,5.916c-3.272,2.559-5.211,6.289-6.69,10.089a249.551,249.551,0,0,0-8.055,26.323c-1.195,4.488-2.334,8.992-3.463,13.5-1.068,4.265-1.649,8.6.233,12.761a13.245,13.245,0,0,0,4.415,4.919c2.088,1.561,4.3,2.966,6.457,4.431l14.2,9.652c2.135,1.451,4.139-2.013,2.019-3.453L289.44,187.2l-5.763-3.917a27.24,27.24,0,0,1-4.57-3.487c-2.652-2.777-2.349-7.127-1.489-10.566,1.076-4.3,2.159-8.605,3.287-12.9,2.244-8.531,4.675-17.022,7.538-25.369,1.238-3.61,2.68-7.41,5.516-10.09,2.445-2.31,5.74-3.827,8.71-5.34q14.433-7.353,28.881-14.679c2.3-1.166.273-4.618-2.019-3.453Z"/><path class="a" d="M343.523,104.176a.587.587,0,0,0-.254.309.875.875,0,0,0,.127.619H339a.874.874,0,0,0,.126-.619c-.073-.238-.326-.364-.553-.467a38.013,38.013,0,0,1-10.97-7.645,18.886,18.886,0,0,0-3.893,5.3c1.037,3.723,2.706,10.645,5.115,17.546,4.275,12.249,10.134,25.92,13.288,32.73l.341.736c3.714-8.948,8.645-22.843,12.055-34.289a161.2,161.2,0,0,0,4-17.059,18.594,18.594,0,0,0-3.718-4.966,38.013,38.013,0,0,1-10.97,7.645A1.991,1.991,0,0,0,343.523,104.176Z"/><path class="d" d="M351.953,100.854,377.5,113.839a91.1,91.1,0,0,1,10.283,5.649c3.035,2.074,4.888,5.194,6.216,8.564a234.188,234.188,0,0,1,7.718,24.975c1.161,4.31,2.266,8.635,3.355,12.965.974,3.871,2.209,7.775.7,11.7a9.67,9.67,0,0,1-3.767,4.1c-2.142,1.51-4.334,2.954-6.5,4.427l-13.38,9.093c-2.117,1.438-.118,4.906,2.019,3.453l12.557-8.533,6.175-4.2a23.425,23.425,0,0,0,4.73-3.83c2.731-3.171,3.306-7.71,2.657-11.734-.363-2.251-1.061-4.477-1.619-6.687q-.879-3.486-1.782-6.965c-2.34-8.989-4.874-17.934-7.876-26.726-1.345-3.938-2.893-7.88-5.662-11.055-2.506-2.873-6.134-4.722-9.471-6.448-9.923-5.134-19.92-10.129-29.88-15.19-2.289-1.164-4.316,2.286-2.018,3.453Z"/><path class="d" d="M327.356,98.625c-.031.713-.079,1.424-.151,2.133q-.03.291-.063.58c-.006.045-.067.55-.037.313s-.038.266-.044.312c-.029.192-.058.385-.089.577a21.567,21.567,0,0,1-.478,2.666c-.024.084-.06.167-.081.251-.06.228.219-.433.06-.139-.05.093-.1.188-.151.279-.168.273-.168.065.059-.053a3.151,3.151,0,0,0-.415.408q.337-.254.15-.123c-.055.038-.111.074-.169.109-.122.074-.252.136-.378.2-.326.179.2-.065-.037.018-.057.019-.112.042-.168.064-.16.063-.319.129-.478.2q-.74.307-1.477.621a2.005,2.005,0,0,0-.718,2.737,2.064,2.064,0,0,0,2.736.717c.295-.126-.08.035-.171.072l.311-.13c.21-.088.421-.176.632-.262a14.307,14.307,0,0,0,1.647-.713,5.361,5.361,0,0,0,2.441-2.991,16.951,16.951,0,0,0,.542-2.868,42.625,42.625,0,0,0,.527-4.978,2.016,2.016,0,0,0-2-2,2.043,2.043,0,0,0-2,2Z"/><path class="d" d="M350.607,98.574a42.715,42.715,0,0,0,.56,5.218,13.992,13.992,0,0,0,.6,2.923,5.359,5.359,0,0,0,2.883,3.008c.475.207.959.386,1.44.576l.667.266.357.145c.41.166-.4-.173-.145-.062a2.054,2.054,0,0,0,2.736-.717,2.022,2.022,0,0,0-.718-2.736c-.807-.351-1.625-.685-2.45-.993-.093-.035-.379-.18-.016,0-.135-.068-.272-.13-.4-.2-.1-.057-.192-.134-.293-.184-.158-.078.308.305.01,0-.068-.07-.136-.142-.206-.21-.275-.27.211.357.044.048-.051-.093-.107-.19-.161-.282-.193-.327.143.448.034.084a21.648,21.648,0,0,1-.526-2.724c-.027-.162-.053-.323-.078-.486-.011-.069-.089-.6-.063-.415.033.233-.034-.273-.04-.318-.023-.2-.046-.39-.066-.585q-.123-1.172-.17-2.35a2,2,0,0,0-4,0Z"/><path class="g" d="M337.564,111.269c.052.221.1.442.161.663a5.843,5.843,0,0,1,.241,1.469c0,.528-3.272,27.019-3.882,32.1,1.5,2.081,6.14,8.617,8.331,10.6,1.911-1.843,5.983-7.849,7.671-10.523-.469-4.126-4.663-31.193-4.651-32.014a8.9,8.9,0,0,1,.572-2.608c.747-2.279.9-3.87,1.644-6.149-2.216,0-9.841.018-11.451.018C336.744,106.973,337.063,109.121,337.564,111.269Z"/><path class="d" d="M338.041,115.345c2.465,0,4.929-.054,7.394-.055a2,2,0,0,0,0-4c-2.465,0-4.929.055-7.394.055a2,2,0,0,0,0,4Z"/><path class="d" d="M335.636,111.8a6.509,6.509,0,0,1,.233,2.531c-.12,1.054-.247,2.107-.373,3.16q-.606,5.06-1.227,10.116-.692,5.67-1.386,11.34-.262,2.14-.524,4.282c-.148,1.221-.511,2.463.2,3.555,1.221,1.882,2.648,3.671,4.007,5.454A40.648,40.648,0,0,0,341,157.516a2.037,2.037,0,0,0,2.828,0,39.65,39.65,0,0,0,4.232-5.354q1.077-1.515,2.11-3.06a15.665,15.665,0,0,0,1.743-2.753c.421-1.081-.065-2.615-.22-3.726-.215-1.536-.44-3.071-.665-4.6-1.073-7.3-2.2-14.6-3.256-21.9-.088-.609-.173-1.219-.259-1.828-.074-.527.047.456-.018-.144-.014-.128-.039-.257-.046-.386a9.88,9.88,0,0,1,.755-3.145c.5-1.747.824-3.537,1.374-5.271a2.018,2.018,0,0,0-1.928-2.532c-3.817,0-7.634.017-11.451.018a2.023,2.023,0,0,0-1.928,2.532c.524,2.132.876,4.3,1.364,6.442.571,2.509,4.429,1.448,3.857-1.063-.488-2.141-.84-4.31-1.364-6.443l-1.929,2.532c3.817,0,7.634-.017,11.451-.018l-1.929-2.532c-.382,1.2-.665,2.428-.957,3.657-.321,1.345-.835,2.648-1.119,4a6.909,6.909,0,0,0-.122,2.426c.272,2.12.6,4.233.909,6.347.919,6.2,1.862,12.4,2.773,18.608q.3,2.019.584,4.041c.037.268.075.537.112.8.027.191.116.863.043.3.049.372.1.744.141,1.117l.273-1.01c-2.183,3.448-4.44,7.235-7.358,10.119h2.828c-3.135-2.91-5.529-6.747-8.018-10.2l.273,1.009c1.179-9.8,2.416-19.6,3.578-29.4.086-.72.174-1.441.252-2.162a9.428,9.428,0,0,0-.421-3.2C338.9,108.234,335.039,109.294,335.636,111.8Z"/><path class="a" d="M332.211,113.514c-3.522-3.5-5.829-7.741-8.431-11.976a18.778,18.778,0,0,1,3.822-5.165,38.013,38.013,0,0,0,10.97,7.645c.227.1.48.229.553.467a.874.874,0,0,1-.126.619C338.67,105.785,334.039,111.263,332.211,113.514Z"/><path class="a" d="M350.183,113.514c3.522-3.5,5.829-7.741,8.432-11.976a18.782,18.782,0,0,0-3.823-5.165,38.013,38.013,0,0,1-10.97,7.645c-.227.1-.48.229-.553.467a.875.875,0,0,0,.127.619C343.724,105.785,348.355,111.263,350.183,113.514Z"/><path class="d" d="M333.626,112.1c-3.357-3.374-5.652-7.546-8.119-11.572v2.019a17.652,17.652,0,0,1,3.51-4.76h-2.829a40.4,40.4,0,0,0,5.756,4.763q1.48,1.019,3.052,1.9.7.39,1.414.748.382.192.769.373c.127.061.255.12.384.178q.452.252-.164-.251l-.274-1.009c-.044-.572.26-.451.071-.261a2.213,2.213,0,0,0-.183.264c-.087.122-.179.24-.269.359.357-.478-.055.069-.126.158-.612.775-1.238,1.539-1.865,2.3-1.316,1.6-2.649,3.187-3.956,4.794a2.058,2.058,0,0,0,0,2.828,2.015,2.015,0,0,0,2.829,0c1.239-1.523,2.5-3.028,3.75-4.544a37.474,37.474,0,0,0,3.256-4.113,2.7,2.7,0,0,0-.8-3.847c-1.188-.722-2.516-1.235-3.718-1.949a35.787,35.787,0,0,1-7.1-5.516,2.037,2.037,0,0,0-2.829,0,20.305,20.305,0,0,0-3.587,4.573,6.691,6.691,0,0,0-.75,1.474,2.537,2.537,0,0,0,.519,2.06c.5.817.989,1.637,1.486,2.454a49.306,49.306,0,0,0,6.941,9.408C332.615,116.756,335.444,113.928,333.626,112.1Z"/><path class="d" d="M351.6,114.928a49.311,49.311,0,0,0,6.942-9.408c.5-.817.987-1.637,1.485-2.454a2.711,2.711,0,0,0,.555-1.794,4.582,4.582,0,0,0-.714-1.616,20.367,20.367,0,0,0-3.659-4.7,2.034,2.034,0,0,0-2.828,0,35.8,35.8,0,0,1-6.972,5.44c-1.221.732-2.534,1.275-3.765,1.975a2.7,2.7,0,0,0-.878,3.9,36.781,36.781,0,0,0,3.186,4.03c1.271,1.544,2.558,3.076,3.82,4.627a2.012,2.012,0,0,0,2.828,0,2.046,2.046,0,0,0,0-2.828c-1.307-1.607-2.64-3.193-3.956-4.794-.627-.762-1.253-1.526-1.865-2.3-.07-.089-.483-.636-.126-.158-.089-.119-.182-.237-.268-.359a2.344,2.344,0,0,0-.184-.264c-.189-.19.115-.311.071.261L345,105.494q-.616.5-.164.251l.255-.117c.257-.122.514-.243.769-.369q.782-.389,1.543-.813,1.569-.876,3.052-1.9a40.388,40.388,0,0,0,5.755-4.763h-2.828a17.7,17.7,0,0,1,3.51,4.76v-2.019c-2.468,4.026-4.763,8.2-8.119,11.572C346.951,113.927,349.778,116.756,351.6,114.928Z"/><path class="e" d="M342.112,151.951c-3.154-6.81-9.013-20.481-13.288-32.73-2.655-7.606-4.412-15.239-5.409-18.586-1.827.088-9.645,10.414-10.916,13.712-.083.217,3.74,3.666,5.47,5.218a37.149,37.149,0,0,0-4.161,4.937c-.045.3,20.419,25.363,26.277,32.814"/><path class="e" d="M338.549,164.041a32.932,32.932,0,0,1,1.206-5.318c3.63-7.278,10.419-25.779,14.753-40.325a160.72,160.72,0,0,0,4.123-17.764c1.886.212,9.619,10.434,10.881,13.713.084.217-3.739,3.667-5.47,5.219A36.99,36.99,0,0,1,368.2,124.5c.044.3-15.189,23.99-23.282,36.183"/><path class="d" d="M316.557,118.15a34.8,34.8,0,0,0-3.866,4.444c-.745.975-1.189,2.025-.46,3.152a66.271,66.271,0,0,0,4.1,5.214c5.1,6.373,10.253,12.71,15.377,19.067,2.331,2.893,4.667,5.783,6.965,8.7a2.01,2.01,0,0,0,2.828,0,2.05,2.05,0,0,0,0-2.828c-7.735-9.832-15.724-19.462-23.52-29.245q-.977-1.225-1.941-2.457c-.262-.336.286.39-.071-.094-.07-.095-.138-.2-.216-.288-.278-.324-.1-.471-.015.152v1.064c-.292.894.271-.24.235-.194.38-.493.788-.967,1.192-1.44a28.316,28.316,0,0,1,2.222-2.422c1.893-1.753-.94-4.576-2.828-2.828Z"/><path class="d" d="M323.441,98.636c-1.565.085-2.784,1.321-3.816,2.383a53.637,53.637,0,0,0-4.115,4.923,59.218,59.218,0,0,0-3.548,5.13,18.653,18.653,0,0,0-1.063,1.962,2.538,2.538,0,0,0,.455,3.095,65.92,65.92,0,0,0,5.2,4.851c1.912,1.715,4.75-1.105,2.829-2.829-1.088-.976-2.173-1.955-3.244-2.95-.487-.453-.973-.907-1.446-1.376-.173-.171-.336-.355-.511-.524-.351-.339.151.3.044.058l.273,1.009c0,.08-.249.855-.1.576.072-.133.131-.274.2-.409.135-.267.28-.529.428-.789.375-.657.779-1.3,1.194-1.929.892-1.359,2.045-2.961,2.9-4.066a46.83,46.83,0,0,1,3.21-3.78c.419-.437.872-.829,1.309-1.246.3-.281-.343.194-.036.027a2.579,2.579,0,0,0,.25-.166c.2-.141.3-.031.054-.049q-.291.114-.109.053c.2-.045.078-.029-.362.046,2.561-.138,2.577-4.138,0-4Z"/><path class="d" d="M321.468,101.106c2.072,6.986,3.759,14.035,6.228,20.906,2.644,7.36,5.571,14.617,8.643,21.808,1.309,3.064,2.648,6.116,4.046,9.14a2.015,2.015,0,0,0,2.736.718,2.047,2.047,0,0,0,.718-2.737c-2.709-5.86-5.227-11.812-7.632-17.8a232.123,232.123,0,0,1-8.1-22.891c-.964-3.391-1.78-6.825-2.783-10.2-.73-2.462-4.591-1.413-3.857,1.064Z"/><path class="d" d="M356.712,100.042a184.4,184.4,0,0,1-6.5,25.422c-2.844,8.787-5.92,17.526-9.433,26.07-.676,1.644-1.376,3.279-2.129,4.888a25.133,25.133,0,0,0-2.1,7.619,2.01,2.01,0,0,0,2,2,2.049,2.049,0,0,0,2-2,20.1,20.1,0,0,1,1.707-5.924c.709-1.535,1.372-3.092,2.023-4.653,1.628-3.9,3.133-7.86,4.585-11.832a290.6,290.6,0,0,0,9.091-28.229q1.545-6.094,2.614-12.3a2.057,2.057,0,0,0-1.4-2.46,2.017,2.017,0,0,0-2.461,1.4Z"/><path class="d" d="M362.628,120.98a33.714,33.714,0,0,1,3.105,3.478c.239.293.227.411.48.615.053.042.1.212.159.231.206.069-.142-1.075-.1-1.314.116-.685.183-.395-.042-.035-1.077,1.726-2.141,3.46-3.232,5.179Q356.736,139,350.344,148.78q-3.555,5.46-7.149,10.9c-1.427,2.151,2.035,4.157,3.454,2.019q7-10.552,13.833-21.218,3.06-4.75,6.094-9.52c1.078-1.7,2.253-3.382,3.209-5.157a2.668,2.668,0,0,0-.464-3.205,34.774,34.774,0,0,0-3.865-4.443c-1.887-1.747-4.722,1.075-2.828,2.829Z"/><path class="d" d="M358.571,102.636c-.65-.035-.5-.08-.3-.026-.641-.174-.319-.176-.156-.047a1.914,1.914,0,0,0,.246.159c.371.205-.2-.174-.041-.036.469.414.924.833,1.357,1.285a47,47,0,0,1,3.21,3.78c.345.445,1.017,1.35,1.475,1.99q.733,1.023,1.427,2.076c.4.609.79,1.227,1.153,1.859.151.263.3.528.438.8.07.137.131.279.2.414.211.393-.077-.372-.071-.52l.273-1.009c-.089.2.39-.4.044-.058-.173.171-.338.352-.511.524-.473.469-.959.923-1.447,1.376-1.07,1-2.155,1.974-3.243,2.95-1.92,1.723.916,4.544,2.828,2.829,1.623-1.456,3.271-2.9,4.81-4.445.733-.737,1.489-1.583,1.175-2.72a9.972,9.972,0,0,0-1.045-2.158,57.135,57.135,0,0,0-7.525-10.126c-1.129-1.221-2.523-2.8-4.3-2.9-2.573-.138-2.565,3.862,0,4Z"/><path class="a" d="M341.872,135.742c-18.986.137-37.88.247-44.589.27a1.929,1.929,0,0,0-1.923,1.938c.039,10.9.565,48.621.965,62.486a1.933,1.933,0,0,0,1.965,1.875c6.063-.094,24.841-.036,43.582.028,18.741-.064,37.519-.122,43.582-.028a1.931,1.931,0,0,0,1.964-1.875c.4-13.865.926-51.587.965-62.486a1.928,1.928,0,0,0-1.923-1.938C379.752,135.989,360.858,135.879,341.872,135.742Z"/><path class="d" d="M341.872,133.742q-20.137.145-40.275.252c-1.848.009-4.555-.42-6.21.51-2.069,1.161-2.03,3.326-2.017,5.391q.037,5.692.112,11.383.177,15.033.439,30.065.118,6.857.268,13.711c.038,1.669.049,3.342.126,5.01a4.208,4.208,0,0,0,1.992,3.73,6.119,6.119,0,0,0,3.253.5c12.282-.123,24.568-.015,36.849.025,13.922.046,27.844-.082,41.766-.055,2.069,0,4.138.01,6.207.032a5.718,5.718,0,0,0,3.054-.5,4.3,4.3,0,0,0,2-3.921c.107-3.842.186-7.686.26-11.53q.3-15.156.483-30.314.088-6.655.156-13.311.024-2.456.041-4.912c.014-2.162-.027-4.367-2.294-5.42-1.714-.8-4.354-.385-6.21-.394q-3.777-.018-7.553-.04-10.532-.06-21.064-.131l-11.381-.079c-2.575-.019-2.577,3.981,0,4q19.422.14,38.844.245l2.992.014a11.905,11.905,0,0,0,2.573.011c.179-.045.1-.062.1-.062a5.426,5.426,0,0,1,0,.919q0,.98-.012,1.959-.042,5.511-.112,11.023-.173,14.428-.421,28.857-.113,6.549-.252,13.1-.058,2.642-.126,5.281c-.009.325-.034.653-.027.978.009.478,0,.223-.057.245a7.975,7.975,0,0,1-2.265-.023c-11.923-.088-23.849,0-35.773.034-13.488.045-26.977-.074-40.465-.057q-3.23,0-6.459.024a10.935,10.935,0,0,1-1.956.021c-.2-.038-.149.272-.139-.244.007-.392-.022-.789-.032-1.181-.1-3.805-.178-7.61-.251-11.415q-.277-14.484-.46-28.968-.084-6.406-.152-12.815-.024-2.477-.044-4.953l-.012-1.863a5.532,5.532,0,0,1,0-.919c.034-.193.008.008-.026.046.112-.058.095-.053-.051.016h.364c11.1.157,22.228-.118,33.33-.193l10.9-.076C344.445,137.723,344.45,133.723,341.872,133.742Z"/><path class="d" d="M304.518,194.936c20.421-.125,40.845.016,61.267-.014,4.48-.007,8.96-.013,13.44.014,2.575.016,2.578-3.984,0-4-20.42-.125-40.845.016-61.266-.014-4.48-.007-8.961-.013-13.441.014-2.573.016-2.579,4.016,0,4Z"/><path class="d" d="M341.872,160.824c-1.387.014-2.774.032-4.16.033a2.03,2.03,0,0,0-2,2q-.009,2.183-.006,4.364c0,.855,0,1.709.01,2.564,0,.307,0,.615.012.922a2.072,2.072,0,0,0,2.148,2.116c2.493,0,4.986-.017,7.478,0a3.253,3.253,0,0,0,1.667-.262,2.3,2.3,0,0,0,1-2.23c.011-.8.013-1.6.015-2.4q.006-2.535,0-5.069a2.03,2.03,0,0,0-2-2c-1.387,0-2.774-.019-4.16-.033a2,2,0,0,0,0,4c1.386.014,2.773.032,4.16.033l-2-2c.01,2.656.046,5.317-.02,7.972l.273-1.01h0l1.727-.991c-.457-.042-.929-.013-1.387-.013-.918,0-1.836.01-2.753.01-.9,0-1.792-.009-2.688-.009-.48,0-.974-.032-1.452.012l1.727.991h0l.273,1.01c-.066-2.655-.03-5.316-.019-7.972l-2,2c1.386,0,2.773-.019,4.16-.033a2,2,0,0,0,0-4Z"/><path class="d" d="M83.905,104.344a27.591,27.591,0,0,0,6.808,4.328c3.316,1.722,6.691,3.328,10,5.065,1.705.9,3.371,1.86,5.063,2.778a20.456,20.456,0,0,1,5.073,3.6c2.675,2.762,4.036,6.512,5.25,10.084,2.836,8.35,6.022,16.572,8.937,24.894,1.459,4.167,2.847,8.362,4.048,12.612,1.05,3.717,2.128,7.565.6,11.336a10.062,10.062,0,0,1-3.882,4.1c-2.037,1.422-4.08,2.827-6.082,4.3-4.117,3.022-8.162,6.139-12.382,9.018-2.114,1.442-.115,4.909,2.019,3.454,3.9-2.66,7.649-5.52,11.442-8.325,1.92-1.42,3.855-2.82,5.825-4.17a26.65,26.65,0,0,0,4.684-3.69c2.847-3.088,3.531-7.573,2.962-11.62-.617-4.381-2.259-8.774-3.639-12.964-2.9-8.817-6.316-17.454-9.379-26.216-1.4-3.99-2.562-8.155-4.716-11.824-2.286-3.9-5.626-6.322-9.52-8.451s-7.825-4.166-11.8-6.16c-1.78-.894-3.56-1.793-5.289-2.781a15.891,15.891,0,0,1-3.2-2.191c-1.836-1.808-4.666,1.019-2.828,2.829Z"/><path class="d" d="M46.98,101.515c-1.91,1.885-4.812,3.223-7.262,4.527-3.566,1.9-7.182,3.7-10.7,5.7-3.766,2.138-7.376,4.091-9.994,7.66-2.432,3.313-3.707,7.321-5.015,11.169-2.955,8.686-6.335,17.221-9.3,25.9-1.489,4.363-2.88,8.763-4.03,13.228-.994,3.858-1.082,8.39.93,11.968a14.986,14.986,0,0,0,4.546,4.589c2.044,1.471,4.141,2.866,6.174,4.353,4.249,3.107,8.411,6.328,12.76,9.3,2.132,1.454,4.135-2.011,2.019-3.454-3.642-2.485-7.157-5.143-10.695-7.771-1.837-1.365-3.684-2.717-5.562-4.026A33.486,33.486,0,0,1,6.368,181.3c-2.535-2.489-2.8-6.583-1.992-9.881,1.044-4.237,2.357-8.411,3.745-12.547,2.78-8.285,5.971-16.423,8.862-24.669,1.288-3.675,2.332-7.513,4.284-10.909a15.419,15.419,0,0,1,3.742-4.457,41.28,41.28,0,0,1,5.157-3.138c3.729-2.167,7.593-4.089,11.4-6.111,2.811-1.493,5.948-2.979,8.241-5.242,1.835-1.811-.994-4.639-2.828-2.829Z"/><path class="d" d="M52.482,118.543c4.5,2.152,9.959,2.678,14.863,2.678s10.364-.526,14.863-2.678c2.322-1.109.3-4.559-2.018-3.453-.077.036-.154.07-.232.1.746-.321-.154.052-.341.12a26.608,26.608,0,0,1-2.547.777,39.219,39.219,0,0,1-9.725,1.131,39.219,39.219,0,0,1-9.725-1.131,26.608,26.608,0,0,1-2.547-.777c-.175-.064-1.1-.443-.341-.12-.078-.033-.155-.067-.232-.1-2.311-1.105-4.342,2.342-2.018,3.453Z"/><path class="e" d="M65.965,156.786c-9.323-11.215-24.99-33.117-24.948-33.392a26.38,26.38,0,0,1,3.4-4.07A31.342,31.342,0,0,1,40,114.241c1.191-3.092,8.4-12.391,10.065-12.391a130.618,130.618,0,0,0,5.309,17.689c4.321,11.268,10.414,23.916,13.465,30.506"/><path class="e" d="M64.8,162.488a32.014,32.014,0,0,1,1.169-5.156c3.493-7,9.788-23.967,13.895-37.667,2.369-7.9,3.692-15.354,4.144-17.549,1.781,0,8.8,9.843,10.076,13.143a33.47,33.47,0,0,1-4.722,5.425,28.264,28.264,0,0,1,3.632,4.345c.044.294-14.522,24.774-22.587,36.924"/><path class="d" d="M87.943,122.1c1.1,1.021,2.12,2.443,3.009,3.423.058.064.119.23.186.27.256.154-.119-1.056-.081-1.275.122-.706.256-.5.119-.3s-.225.415-.336.615c-1.065,1.906-2.189,3.781-3.3,5.658q-5.918,9.97-12.053,19.811c-2.229,3.573-4.48,7.134-6.807,10.643-1.426,2.152,2.037,4.157,3.454,2.019,4.565-6.885,8.886-13.936,13.175-20.995,3.092-5.089,6.3-10.153,9.141-15.39a2.6,2.6,0,0,0,.1-2.866,21.8,21.8,0,0,0-3.778-4.441c-1.886-1.748-4.721,1.074-2.829,2.829Z"/><path class="d" d="M84,104.116c-.274-.015-.45.027-.626-.166a1.218,1.218,0,0,0,.314.183c.058.04.116.08.172.123-.252-.2-.3-.229-.127-.093.126.126.27.236.4.358A22.676,22.676,0,0,1,86,106.55a55.879,55.879,0,0,1,3.881,5.319c.561.86,1.105,1.734,1.6,2.633.2.358.393.72.569,1.091.118.246.09.567.054.095-.139-1.791.481-1.624.072-1.114-.059.074-.4.539-.1.152-.151.2-.31.389-.468.581q-.575.7-1.176,1.375a32.949,32.949,0,0,1-2.5,2.588c-1.908,1.736.927,4.559,2.829,2.829a37.338,37.338,0,0,0,4.188-4.609,3.341,3.341,0,0,0,1.084-2.5,7.551,7.551,0,0,0-1.021-2.364,53.533,53.533,0,0,0-6.871-9.7c-1.082-1.218-2.407-2.72-4.148-2.815a2,2,0,0,0,0,4Z"/><path class="d" d="M82.075,101.584a221.323,221.323,0,0,1-6.206,24.147c-2.682,8.275-5.6,16.5-8.922,24.537-.669,1.618-1.362,3.226-2.107,4.81a24.376,24.376,0,0,0-2.044,7.41,2.01,2.01,0,0,0,2,2,2.049,2.049,0,0,0,2-2c.472-3.7,2.216-6.874,3.636-10.264,1.556-3.712,3-7.471,4.387-11.248a262.809,262.809,0,0,0,8.608-26.768c.958-3.829,1.716-7.695,2.5-11.56.513-2.513-3.341-3.588-3.857-1.064Z"/><path class="d" d="M43.006,117.909a27.087,27.087,0,0,0-3.284,3.8,2.481,2.481,0,0,0-.312,2.912c.9,1.574,2.088,3.034,3.139,4.508q6.721,9.422,13.749,18.622c2.7,3.526,5.418,7.034,8.253,10.45,1.646,1.982,4.462-.861,2.829-2.829-7.957-9.586-15.341-19.7-22.524-29.877-.509-.721-1.018-1.443-1.514-2.173-.145-.213-.277-.442-.432-.647-.234-.312-.046-.412.035.187v1.063c-.25.753.114-.043.216-.177.211-.28.572-.7.854-1.037a22.939,22.939,0,0,1,1.819-1.973c1.891-1.755-.943-4.579-2.828-2.829Z"/><path class="d" d="M50.061,99.85c-1.47.078-2.62,1.183-3.607,2.17A44.206,44.206,0,0,0,42.86,106.2a55.743,55.743,0,0,0-3.447,4.871c-.843,1.369-1.984,3.022-.924,4.566a30.2,30.2,0,0,0,4.517,5.1,2.044,2.044,0,0,0,2.828,0,2.021,2.021,0,0,0,0-2.829,35.088,35.088,0,0,1-3.614-3.927c-.049-.061-.355-.456-.2-.245s-.066-.115-.111-.158-.08-.179-.14-.217.2,1.25.189,1.317-.2.418-.069.176c.3-.541.566-1.091.888-1.62a45.688,45.688,0,0,1,5.809-7.663,18.805,18.805,0,0,1,1.532-1.509c.215-.185.414-.276.054-.057.1-.059.192-.13.287-.194a2.161,2.161,0,0,1,.255-.14c.005.009-.439.178-.318.14.179-.055.332,0-.338.038a2.043,2.043,0,0,0,2-2,2.02,2.02,0,0,0-2-2Z"/><path class="d" d="M48.132,102.382c2.961,13.881,8.89,26.939,14.82,39.758,1.377,2.975,2.778,5.94,4.156,8.914a2.018,2.018,0,0,0,2.737.718,2.047,2.047,0,0,0,.717-2.737c-5.876-12.679-12.186-25.313-16.217-38.734-.889-2.962-1.71-5.956-2.355-8.982-.537-2.517-4.394-1.452-3.858,1.063Z"/><path class="a" d="M67.1,135.742c-18.985.137-37.879.247-44.588.27a1.928,1.928,0,0,0-1.923,1.938c.039,10.9.565,48.621.965,62.486a1.933,1.933,0,0,0,1.965,1.875c6.062-.094,24.84-.036,43.582.028,18.741-.064,37.519-.122,43.581-.028a1.933,1.933,0,0,0,1.965-1.875c.4-13.865.926-51.587.965-62.486a1.928,1.928,0,0,0-1.923-1.938C104.976,135.989,86.082,135.879,67.1,135.742Z"/><path class="d" d="M67.1,133.742q-20.136.145-40.274.252c-1.848.009-4.555-.42-6.21.51-2.069,1.161-2.03,3.326-2.017,5.391q.038,5.692.112,11.383.177,15.033.438,30.065.12,6.857.269,13.711c.038,1.669.048,3.342.126,5.01a4.208,4.208,0,0,0,1.992,3.73,6.117,6.117,0,0,0,3.253.5c12.281-.123,24.567-.015,36.849.025,13.922.046,27.844-.082,41.766-.055,2.069,0,4.138.01,6.207.032a5.719,5.719,0,0,0,3.054-.5,4.3,4.3,0,0,0,2-3.921c.107-3.842.185-7.686.26-11.53q.3-15.156.483-30.314.087-6.655.156-13.311.022-2.456.04-4.912c.014-2.162-.027-4.367-2.293-5.42-1.715-.8-4.354-.385-6.211-.394q-3.775-.018-7.552-.04-10.533-.06-21.065-.131L67.1,133.742c-2.574-.019-2.577,3.981,0,4q19.422.14,38.845.245l2.992.014a11.905,11.905,0,0,0,2.573.011c.179-.045.1-.062.1-.062a5.532,5.532,0,0,1,0,.919q-.006.98-.013,1.959-.04,5.511-.111,11.023-.173,14.428-.421,28.857-.114,6.549-.252,13.1-.058,2.642-.127,5.281c-.008.325-.033.653-.027.978.01.478,0,.223-.057.245a7.969,7.969,0,0,1-2.264-.023c-11.924-.088-23.85,0-35.773.034-13.489.045-26.977-.074-40.466-.057q-3.23,0-6.458.024a10.936,10.936,0,0,1-1.956.021c-.2-.038-.15.272-.139-.244.007-.392-.022-.789-.033-1.181q-.15-5.708-.25-11.415-.278-14.484-.46-28.968-.084-6.406-.152-12.815-.025-2.477-.044-4.953-.008-.931-.012-1.863a5.532,5.532,0,0,1,0-.919c.034-.193.008.008-.026.046.112-.058.095-.053-.051.016h.364c11.1.157,22.228-.118,33.33-.193l10.894-.076C69.669,137.723,69.675,133.723,67.1,133.742Z"/><path class="d" d="M29.743,195.787c20.421-.125,40.845.015,61.266-.015,4.481-.006,8.961-.013,13.441.015,2.575.015,2.577-3.985,0-4-20.421-.125-40.845.015-61.266-.015-4.481-.006-8.961-.013-13.441.015-2.573.015-2.579,4.015,0,4Z"/><path class="d" d="M67.1,161.675c-1.387.013-2.774.031-4.161.033a2.03,2.03,0,0,0-2,2q-.008,2.181-.006,4.364c0,.854,0,1.709.011,2.563,0,.307,0,.615.012.922a2.071,2.071,0,0,0,2.148,2.116c2.492,0,4.986-.017,7.478,0a3.244,3.244,0,0,0,1.667-.261,2.307,2.307,0,0,0,1-2.231c.011-.8.014-1.6.015-2.4q.006-2.534,0-5.068a2.03,2.03,0,0,0-2-2c-1.387,0-2.774-.02-4.16-.033a2,2,0,1,0,0,4c1.386.013,2.773.031,4.16.033l-2-2c.01,2.656.046,5.316-.02,7.971l.273-1.009h0l1.727-.99c-.457-.042-.929-.013-1.388-.013-.917,0-1.835.009-2.752.009-.9,0-1.793-.008-2.689-.009-.479,0-.973-.031-1.452.013l1.727.99h0l.273,1.009c-.066-2.655-.03-5.315-.02-7.971l-2,2c1.387,0,2.774-.02,4.161-.033a2,2,0,0,0,0-4Z"/><path class="d" d="M414.03,159.655c2.2-.126,4.379-.5,6.575-.658l-1.929-1.468c.66,3.75,1.207,7.522,1.787,11.286q.448,2.913.9,5.826a12.366,12.366,0,0,0,.6,2.99,2.008,2.008,0,0,0,2.258.919,2.069,2.069,0,0,0,1.469-1.929v0a2,2,0,0,0-4,0v0l3.727-1.009c.416.977.12,0,.068-.334q-.146-.925-.287-1.851-.454-2.944-.906-5.89c-.569-3.692-1.106-7.392-1.754-11.072A2,2,0,0,0,420.605,155c-2.2.161-4.377.532-6.575.658-2.559.148-2.576,4.149,0,4Z"/><path class="h" d="M229.518,206.732V2c1.839,0,3.643,0,4.468.009.76,0,2.351-.007,4.036-.009V207.015"/><path class="d" d="M231.518,206.732V2l-2,2q4.253,0,8.5,0l-2-2V207.015c0,2.574,4,2.578,4,0V2a2.03,2.03,0,0,0-2-2q-4.252,0-8.5,0a2.029,2.029,0,0,0-2,2V206.732c0,2.574,4,2.578,4,0Z"/><path class="i" d="M237.949,198h8.344c.006,1.37.012,7.814-.02,9.02-.164-.02-24.84-.02-25,0-.036-1.418-.025-7.439-.02-8.848.641,0,7.732,0,8.2,0"/><path class="d" d="M232.977,200h13.316l-2-2c.012,3,.049,6.016-.02,9.02l2-2c-2.793-.173-5.646-.013-8.442-.014q-6.69,0-13.379,0c-1.055,0-2.129-.054-3.184.01l2,2c-.069-3-.03-6.015-.02-9.02l-2,2c3.909.027,7.819,0,11.729,0,2.574,0,2.578-4,0-4-3.91,0-7.82.027-11.729,0a2.028,2.028,0,0,0-2,2c-.01,3-.049,6.015.02,9.02a2.021,2.021,0,0,0,2,2c2.795-.169,5.646-.013,8.443-.014q6.69,0,13.379,0c1.055,0,2.13-.055,3.183.01a2.025,2.025,0,0,0,2-2c.069-3,.032-6.015.02-9.02a2.03,2.03,0,0,0-2-2H232.977c-2.574,0-2.578,4,0,4Z"/><path class="d" d="M220.394,180.212q-8.189.014-16.377-.013c-2.574-.007-2.578,3.993,0,4q8.189.021,16.377.013c2.573,0,2.578-4,0-4Z"/><path class="d" d="M264.543,180.212q-8.408.014-16.816-.013c-2.574-.007-2.578,3.993,0,4q8.407.021,16.816.013c2.574,0,2.578-4,0-4Z"/><path class="d" d="M369.306,65.21a1.947,1.947,0,0,1,2.732.361,4.315,4.315,0,0,1,.406,2.189,13.3,13.3,0,0,1-.184,2.733c-.592,3.245-2.215,7.154-5.826,7.8a2.018,2.018,0,0,0-1.4,2.46,2.043,2.043,0,0,0,2.46,1.4c5.729-1.027,8.466-7.482,8.9-12.675.225-2.711-.031-5.752-2.37-7.5a6.047,6.047,0,0,0-7.547.405,2.015,2.015,0,0,0,0,2.828,2.044,2.044,0,0,0,2.829,0Z"/><path class="d" d="M364.924,77.234a14.941,14.941,0,0,1-.874,4.03c-.079.241-.173.48-.243.724-.038.135-.2.46.046-.091-.127.286-.258.569-.4.849a34.365,34.365,0,0,1-2.968,4.77c-2.553,3.5-6.069,7.227-10.392,8.241-2.5.588-1.445,4.445,1.063,3.857,5.348-1.255,9.492-5.621,12.638-9.881,2.712-3.672,4.94-7.834,5.129-12.5.105-2.574-3.9-2.57-4,0Z"/><path class="d" d="M315.421,62.382a6.049,6.049,0,0,0-7.547-.405c-2.342,1.741-2.6,4.793-2.37,7.5.431,5.192,3.168,11.648,8.9,12.675a2.055,2.055,0,0,0,2.46-1.4,2.017,2.017,0,0,0-1.4-2.46c-3.611-.647-5.234-4.557-5.826-7.8a13.154,13.154,0,0,1-.186-2.577,5.04,5.04,0,0,1,.343-2.238,1.931,1.931,0,0,1,2.8-.468,2.053,2.053,0,0,0,2.828,0,2.015,2.015,0,0,0,0-2.828Z"/><path class="d" d="M313.166,77.058A31.429,31.429,0,0,0,319.872,92.1c3.784,4.479,8.795,7.691,14.689,8.328a2.013,2.013,0,0,0,2-2,2.045,2.045,0,0,0-2-2c-4.935-.533-9.046-3.727-12.106-7.451A27.755,27.755,0,0,1,317.023,76a2.017,2.017,0,0,0-2.46-1.4,2.045,2.045,0,0,0-1.4,2.46Z"/><path class="d" d="M361.738,34.429c9.118,4.867,11.414,17.939,8.491,27.082-.785,2.457,3.075,3.51,3.857,1.063,3.454-10.8.332-25.909-10.329-31.6-2.271-1.211-4.293,2.24-2.019,3.454Z"/><path class="d" d="M320.525,27.38c-6.263,2.405-10.645,8.585-12.595,14.826-2.153,6.889-1.635,14.446,0,21.38.59,2.5,4.448,1.444,3.857-1.064-1.428-6.065-1.907-12.589-.178-18.649,1.424-4.993,4.918-10.692,9.981-12.636a2.058,2.058,0,0,0,1.4-2.46,2.014,2.014,0,0,0-2.46-1.4Z"/><path class="d" d="M360.035,28.016a24.138,24.138,0,0,0-15.7-9.321,37.631,37.631,0,0,0-19.425,1.836,29.121,29.121,0,0,0-9.907,6.419c-1.831,1.814,1,4.643,2.829,2.829,5.415-5.364,12.738-7.513,20.223-7.558,6.952-.041,14.2,2,18.524,7.814a2.061,2.061,0,0,0,2.736.717,2.014,2.014,0,0,0,.718-2.736Z"/><path class="d" d="M345.69,46.941c-2.491,1.15-4.912,2.445-7.383,3.634-.459.22-.918.446-1.387.643.269-.113-.685.2-.713.237.369-.524,2.153,1.486,1.419-.024a10.237,10.237,0,0,1-.4-.97,12.157,12.157,0,0,1-.759-2.558,2.032,2.032,0,0,0-3.415-1.414c-6.846,5.691-13.39,11.659-19.71,17.931-1.83,1.815,1,4.644,2.828,2.828,6.321-6.271,12.864-12.239,19.711-17.931L332.468,47.9a14.719,14.719,0,0,0,2.122,6.275c.954,1.378,2.282,1.355,3.676.78,3.23-1.333,6.271-3.1,9.442-4.563a2.015,2.015,0,0,0,.718-2.736,2.046,2.046,0,0,0-2.736-.718Z"/><path class="d" d="M351.21,51.705a32.171,32.171,0,0,1,14.629,15.32,2.016,2.016,0,0,0,2.737.717,2.046,2.046,0,0,0,.717-2.736,35.692,35.692,0,0,0-16.064-16.755,2.047,2.047,0,0,0-2.736.717,2.021,2.021,0,0,0,.717,2.737Z"/><path class="d" d="M326.849,68.354c-.438,1.422-.152,4.693,2.541,4.972,3.561-.022,3.75-3.977,2.552-5.836C330.961,65.968,328.075,65.334,326.849,68.354Z"/><path class="d" d="M355.361,68.354c.438,1.422.153,4.693-2.541,4.972-3.56-.022-3.75-3.977-2.552-5.836C351.25,65.968,354.135,65.334,355.361,68.354Z"/><path class="a" d="M340.546,75.21a140.718,140.718,0,0,0-15.609,1.371c-.82.111-2.85.276-3.385.834-.994,1.038-.617,3.253-.746,4.512A29.77,29.77,0,0,0,321,87.965c.3,2.653.442,5.481,2.407,7.551,3.632,3.826,12.049,5.863,17.578,5.863A35.854,35.854,0,0,0,351.8,99.566c3.016-1,5.835-2.68,7.413-5.094,1.488-2.276,1.43-4.558,1.749-7.151a24.913,24.913,0,0,0,.115-5.492c-.136-1.256.21-3.306-.8-4.357-.535-.558-2.208-.781-3.029-.883A158.14,158.14,0,0,0,340.546,75.21Z"/><path class="d" d="M340.546,73.21a108.476,108.476,0,0,0-12.262.948c-1.884.223-3.813.389-5.677.745a4.125,4.125,0,0,0-3.614,3.493,15.478,15.478,0,0,0-.155,2.678c-.01,1.105-.135,2.2-.108,3.308a53.5,53.5,0,0,0,.633,6.6,10.84,10.84,0,0,0,2.63,5.948,15.027,15.027,0,0,0,4.206,3,34.311,34.311,0,0,0,24.082,2.177c4.089-1.084,8.271-2.958,10.663-6.623a14.453,14.453,0,0,0,1.864-6.682,41.745,41.745,0,0,0,.261-7.112c-.141-2.091.139-4.5-1.746-5.93-1.637-1.244-4.226-1.195-6.181-1.424a130.133,130.133,0,0,0-14.6-1.124c-2.574-.009-2.578,3.991,0,4,3.638.014,7.274.342,10.89.715,1.879.193,3.76.394,5.633.641a4.371,4.371,0,0,1,1.744.349c.153.122.194.639.214,1a40.433,40.433,0,0,1-.547,11.152c-.806,3.5-3.993,5.49-7.207,6.567a31.317,31.317,0,0,1-20.632-.136c-2.525-.9-5.743-2.312-6.8-4.983a18.672,18.672,0,0,1-.881-4.931,38.053,38.053,0,0,1-.132-5.924c.038-.765-.045-1.542.044-2.3-.009.079.183-.859-.057-.436-.134.236-.153.032.111.007.246-.023.5-.124.746-.17,1.582-.3,3.213-.437,4.812-.625a107.542,107.542,0,0,1,12.064-.925C343.119,77.2,343.125,73.2,340.546,73.21Z"/><path class="d" d="M361.4,78.107c1.018-1.982,2.15-3.908,3.355-5.781.7-1.095,1.437-2.172,2.21-3.218.1-.13.194-.258.29-.387.208-.279-.031.035.1-.127.193-.248.389-.492.588-.735q.6-.728,1.239-1.417a2,2,0,0,0-2.828-2.829,55.428,55.428,0,0,0-8.4,12.475,2,2,0,1,0,3.454,2.019Z"/><path class="d" d="M312.3,66.992q.624.674,1.207,1.385c.187.227.37.458.552.688.227.287-.063-.088.072.093.091.122.184.242.274.363.79,1.055,1.542,2.138,2.271,3.237,1.189,1.793,2.315,3.627,3.411,5.479a2,2,0,1,0,3.454-2.019,69.491,69.491,0,0,0-8.413-12.055,2.016,2.016,0,0,0-2.828,0,2.043,2.043,0,0,0,0,2.829Z"/></svg>