<?xml version="1.0" encoding="utf-8"?>
<!-- Uploaded to: SVG Repo, www.svgrepo.com, Generator: SVG Repo Mixer Tools -->
<svg width="800px" height="800px" viewBox="0 -57.83 349.436 349.436" xmlns="http://www.w3.org/2000/svg">

<defs>

<style>.a{fill:#211715;}.b{fill:#ffffff;}.c{fill:#f4b467;}.d{fill:#ffda71;}.e{fill:#3f88c9;}.f{opacity:0.96;}.g{fill:#83d1fb;}.h{fill:#4d4544;}.i{fill:#7a7473;}</style>

</defs>

<path class="a" d="M2.025,4.277c0-1,0-1.764,0-2.277,14.487,0,285.484.038,345.319.045,0,21.794.081,177.169.091,199.7-44.564.008-286.063.064-345.436.08C2,173.864,2.024,27.285,2.025,4.277Z"/>

<path class="b" d="M218.35,202.621c.173,3.494.488,3.31.792,6.818.71,8.182,4.362,11.354,8.545,12.9,2.469.47,3.894,1.471,4.615,3.03s.829,6.412-1.6,6.412c-4.5,0-104.544-.017-111.859-.017-2.37,0-2.585-4.835-1.864-6.395s2.184-2.39,4.615-3.03c5.462-1.437,7.834-4.72,8.544-12.9.305-3.508.62-3.324.792-6.818"/>

<path class="a" d="M216.35,202.621c.116,2.145.541,4.23.751,6.362a24.8,24.8,0,0,0,1.831,7.915,13.65,13.65,0,0,0,8.223,7.372,6.193,6.193,0,0,1,2.765,1.141,2.854,2.854,0,0,1,.655.97c-.186-.449.132.7.116.589a6.813,6.813,0,0,1-.048,2.283c-.012.055-.205.83-.32.781.024.01.278-.317.334-.251-.19-.224-2.026,0-2.316,0l-29.2,0-42.846-.007-32.736,0h-3.815a5.505,5.505,0,0,0-.56,0c-.532.052-.078-.126-.013.155a7.993,7.993,0,0,1-.511-1.416,5.3,5.3,0,0,1,.1-2.193c.485-1.5,2.934-1.857,4.416-2.355a12.269,12.269,0,0,0,4.831-2.84c3.241-3.238,3.757-8.021,4.193-12.342.208-2.062.618-4.078.729-6.154.139-2.572-3.862-2.565-4,0-.123,2.294-.571,4.509-.792,6.818a21.357,21.357,0,0,1-1.356,6.412,7.191,7.191,0,0,1-2.861,3.417c-1.855,1.119-4.118,1.269-6.024,2.36a6.337,6.337,0,0,0-3.239,5.1,7.84,7.84,0,0,0,1.41,5.715c1.264,1.464,2.978,1.323,4.7,1.323l29.967,0,43.994.007,32.272.006c1.077,0,2.154.006,3.23,0,3.491-.018,4.688-3.238,4.5-6.313a6.971,6.971,0,0,0-2.427-5.263c-1.754-1.421-3.955-1.549-5.788-2.6-3.835-2.193-5-6.436-5.419-10.627-.214-2.158-.635-4.216-.751-6.362-.137-2.56-4.138-2.577-4,0Z"/>

<path class="a" d="M137.63,222.327h73.9c2.574,0,2.578-4,0-4h-73.9c-2.573,0-2.578,4,0,4Z"/>

<path class="b" d="M11.385,201.819c71.938-.018,293.551-.07,336.051-.077,0-2.8,0-7.648-.007-14.036-44.581,0-286.056.053-345.428.068,0,6.015,0,10.821,0,14.048Z"/>

<path class="a" d="M4.025,4.277q0-1.139,0-2.277l-2,2H13.182L36.414,4l32.69,0,39.347,0,43.741.006,45.358.006,44.172.006,40.762.006,34.54,0,25.7,0h4.623l-2-2q0,13.061.008,26.119.009,22.311.02,44.624.012,25.679.025,51.359.01,23.213.023,46.425.007,14.674.014,29.348v1.822l2-2-18.35,0-27.511.006-34.366.007-39.446.009-42.25.01-42.933.01-41.5.01-37.76.009-32.284.007L6.55,199.82l-4.55,0,2,2q0-14.089,0-28.179,0-22.258,0-44.517,0-24.9.007-49.808,0-22.267.007-44.535l0-28.61v-1.9c0-2.573-4-2.578-4,0q0,12.922,0,25.844L.016,73.437q0,24.87-.007,49.741L0,168.77l0,30.8v2.249a2.029,2.029,0,0,0,2,2l22.268-.006,30.578-.007,36.578-.009,40.821-.01,42.778-.01,42.613-.01,40.325-.009,35.756-.008,29.422-.006,20.781,0h3.516a2.028,2.028,0,0,0,2-2q-.006-13.232-.013-26.465-.01-22.4-.022-44.8-.014-25.684-.025-51.369-.01-23.134-.021-46.268-.006-14.511-.01-29.021V2.045a2.03,2.03,0,0,0-2-2l-23.15,0-32.628,0-39.488,0L208.543.027,163.187.021,118.811.015,78.2.009l-34.6,0L17.826,0,3.489,0H2.026a2.028,2.028,0,0,0-2,2q0,1.138,0,2.277C.025,6.851,4.025,6.855,4.025,4.277Z"/>

<path class="a" d="M347.436,185.7l-18.35,0-27.511.006-34.366.008-39.446.009-42.25.01-42.933.01-41.5.009-37.76.009-32.284.008-24.491.006H2c-2.574,0-2.578,4,0,4l22.268,0,30.578-.008,36.578-.008,40.821-.01,42.778-.01,42.613-.01,40.325-.009,35.756-.008,29.422-.006,20.781,0h3.516c2.574,0,2.578-4,0-4Z"/>

<path class="c" d="M209.155,48.3c3.583-5.911,9.072-10.636,14.514-14.783,4.681-3.568,9.384-6.787,15.108-8.441,2.469-.714,1.419-4.575-1.063-3.857-6.163,1.781-11.228,5.166-16.27,9-5.937,4.515-11.835,9.615-15.743,16.061-1.337,2.207,2.12,4.22,3.454,2.019Z"/>

<path class="c" d="M166.993,26.911A17.19,17.19,0,0,1,179.8,32.258a37.878,37.878,0,0,1,4.126,5.491c.567.89,1.11,1.8,1.619,2.72.227.412.448.828.658,1.25.092.185.183.371.27.559.039.084.3.694.124.264a2.066,2.066,0,0,0,2.461,1.4,2.014,2.014,0,0,0,1.4-2.46,40.9,40.9,0,0,0-8.013-12.247,21.055,21.055,0,0,0-15.447-6.321c-2.57.061-2.579,4.061,0,4Z"/>

<path class="b" d="M162.282,46.345a21.069,21.069,0,0,1,17.988,6.333c1.733,1.911,4.555-.924,2.828-2.828a24.777,24.777,0,0,0-20.816-7.505,2.062,2.062,0,0,0-2,2,2.012,2.012,0,0,0,2,2Z"/>

<path class="b" d="M153.449,46.345c2.574,0,2.578-4,0-4s-2.578,4,0,4Z"/>

<path class="d" d="M180.283,57.727c-8.568-2.276-17.789-3.01-26.5-1.091a34.58,34.58,0,0,0-10.3,4.138c-3.378,2.012-6.616,4.551-8.535,8.054-1.238,2.258,2.215,4.279,3.454,2.019,1.722-3.143,4.711-5.26,7.759-7a30.726,30.726,0,0,1,9.07-3.434c7.893-1.654,16.253-.882,23.992,1.174,2.49.662,3.553-3.195,1.063-3.857Z"/>

<path class="b" d="M180.537,66.685a19.89,19.89,0,0,0-6.544,1.869,38.616,38.616,0,0,0-6.013,3.274,29.042,29.042,0,0,0-5.461,4.827q-.9,1.008-1.731,2.076-.369.47-.73.946c-.314.416.313-.264.024-.04a2.013,2.013,0,0,0,0,2.829,2.053,2.053,0,0,0,2.829,0,2.952,2.952,0,0,0,.435-.554c.093-.12.492-.637.174-.228.507-.651,1.029-1.291,1.573-1.913a25.511,25.511,0,0,1,4.721-4.364,38.183,38.183,0,0,1,5.42-3.048,24.266,24.266,0,0,1,2.863-1.127,12.455,12.455,0,0,1,2.44-.547,2.049,2.049,0,0,0,2-2,2.018,2.018,0,0,0-2-2Z"/>

<path class="c" d="M185.22,73.24c-5.892,4.286-11.962,9.067-16.211,15.059-3.761,5.3-6.786,11.39-7.692,17.885a29.894,29.894,0,0,0-.25,5.881c.148,2.559,4.149,2.576,4,0-.594-10.294,5.044-20.342,12.5-27.378a98.861,98.861,0,0,1,9.669-7.994,2.058,2.058,0,0,0,.717-2.736,2.015,2.015,0,0,0-2.736-.717Z"/>

<path class="b" d="M191.569,78.668a18.517,18.517,0,0,0-2.679,6.864c-.5,2.175-.795,4.386-1.253,6.569a2,2,0,0,0,3.858,1.063c.444-2.122.737-4.273,1.211-6.39a30.157,30.157,0,0,1,.976-3.494c.049-.136.1-.272.15-.407.018-.048.192-.487.089-.235s.078-.173.1-.22c.057-.123.115-.245.176-.366a9.477,9.477,0,0,1,.826-1.365,2.007,2.007,0,0,0-.717-2.737,2.057,2.057,0,0,0-2.736.718Z"/>

<path class="b" d="M188.425,104.9c2.574,0,2.578-4,0-4s-2.578,4,0,4Z"/>

<path class="b" d="M150.319,77.21c2.574,0,2.578-4,0-4s-2.578,4,0,4Z"/>

<path class="b" d="M198.683,25.342c2.574,0,2.579-4,0-4s-2.578,4,0,4Z"/>

<path class="b" d="M196.857,32.633c0,3.118,0,6.241.131,9.357a2,2,0,1,0,4,0c-.13-3.116-.13-6.239-.131-9.357a2,2,0,0,0-4,0Z"/>

<path class="b" d="M215.565,66.582a24.7,24.7,0,0,1,18.245,5.659,2.06,2.06,0,0,0,2.829,0,2.015,2.015,0,0,0,0-2.828,29.737,29.737,0,0,0-9.742-5.507A29.016,29.016,0,0,0,214.5,62.724a2.013,2.013,0,0,0-1.4,2.461,2.056,2.056,0,0,0,2.46,1.4Z"/>

<path class="b" d="M243.693,78.408c2.573,0,2.578-4,0-4s-2.579,4,0,4Z"/>

<path class="d" d="M213.682,56.14a74.731,74.731,0,0,1,25.481-4.072,37.174,37.174,0,0,1,19.715,5.746A23.866,23.866,0,0,1,264.4,62.7a2.014,2.014,0,0,0,2.829,0,2.049,2.049,0,0,0,0-2.829c-3.571-4.426-8.9-7.467-14.173-9.372-7.734-2.793-16.182-2.872-24.258-1.87a82,82,0,0,0-16.176,3.654c-2.426.82-1.385,4.685,1.063,3.857Z"/>

<path class="d" d="M209.134,76.709c-.388-.035.005,0,.171.038.212.052.424.105.635.167a17.075,17.075,0,0,1,1.643.587,39,39,0,0,1,3.691,1.793,42.379,42.379,0,0,1,7.068,4.608c2.178,1.819,4.238,3.793,6.225,5.816a34.722,34.722,0,0,1,4.958,5.983c1.957,3.162,3.65,6.48,5.583,9.657,1.336,2.2,4.8.189,3.454-2.018-1.812-2.979-3.421-6.075-5.22-9.062A38.363,38.363,0,0,0,231.9,87.41a60.473,60.473,0,0,0-14.115-11.3c-2.629-1.453-5.606-3.127-8.654-3.4a2.016,2.016,0,0,0-2,2,2.042,2.042,0,0,0,2,2Z"/>

<path class="b" d="M203.155,84.183a28.418,28.418,0,0,1,3.121,6.953A26.909,26.909,0,0,1,207.3,99.76c-.006,2.574,3.994,2.578,4,0a30.612,30.612,0,0,0-1.165-9.687,33.579,33.579,0,0,0-3.525-7.909,2.044,2.044,0,0,0-2.736-.718,2.022,2.022,0,0,0-.717,2.737Z"/>

<path class="e" d="M75.3,60.348c2.573-4.229,6.5-7.625,10.4-10.6,3.383-2.578,6.773-4.912,10.908-6.113,2.467-.717,1.417-4.578-1.064-3.857C90.98,41.108,87.232,43.6,83.5,46.439c-4.4,3.346-8.745,7.117-11.648,11.89-1.341,2.2,2.117,4.217,3.454,2.019Z"/>

<path class="e" d="M44.052,45a11.3,11.3,0,0,1,5.922,1.449c.469.263.925.548,1.37.85.207.139.41.282.612.428.09.065.6.48.252.185a14.549,14.549,0,0,1,1.729,1.781,24.51,24.51,0,0,1,1.5,2.045q.813,1.213,1.544,2.48c.466.8.91,1.62,1.324,2.452.163.328.32.66.473.993.079.172.192.444.055.111q.107.258.2.519a2.055,2.055,0,0,0,2.46,1.4,2.016,2.016,0,0,0,1.4-2.46A36.555,36.555,0,0,0,56.63,46.7,16.324,16.324,0,0,0,44.052,41c-2.569.068-2.579,4.068,0,4Z"/>

<g class="f">

<path class="b" d="M40.612,59.188a14.842,14.842,0,0,1,7.052.749,9.784,9.784,0,0,1,1.4.561,16.147,16.147,0,0,1,1.671.92q.4.254.785.531a3.59,3.59,0,0,1,.424.33,14.436,14.436,0,0,1,1.423,1.375,2,2,0,0,0,2.829-2.828,18.6,18.6,0,0,0-15.581-5.638,2.063,2.063,0,0,0-2,2,2.012,2.012,0,0,0,2,2Z"/>

</g>

<g class="f">

<path class="b" d="M34.163,59.188c2.574,0,2.578-4,0-4s-2.578,4,0,4Z"/>

</g>

<path class="g" d="M53.9,66.439a42.01,42.01,0,0,0-19.721-.779c-5.266,1.174-11.287,4.261-13.991,9.131-1.251,2.253,2.2,4.273,3.454,2.019,2.279-4.1,7.577-6.454,11.979-7.374a37.8,37.8,0,0,1,17.216.86c2.491.658,3.554-3.2,1.063-3.857Z"/>

<g class="f">

<path class="b" d="M53.941,72.96a15.227,15.227,0,0,0-5.05,1.438A28.228,28.228,0,0,0,44.5,76.789,21.716,21.716,0,0,0,40.4,80.4c-.438.491-.858,1-1.264,1.515-.208.266-.414.532-.617.8-.267.352.35-.332.1-.139a2.011,2.011,0,0,0,0,2.829,2.052,2.052,0,0,0,2.828,0,2.746,2.746,0,0,0,.4-.513c.1-.136.4-.587.042-.058a14.736,14.736,0,0,1,1.149-1.4,19.064,19.064,0,0,1,3.337-3.1,27.9,27.9,0,0,1,3.957-2.226A14.893,14.893,0,0,1,52.3,77.34c.32-.1.644-.194.971-.269.162-.038.343-.049.5-.1q.23-.038-.135.015c.1-.011.2-.02.3-.025a2.049,2.049,0,0,0,2-2,2.017,2.017,0,0,0-2-2Z"/>

</g>

<path class="e" d="M57.088,77.819c-5.859,4.269-11.309,9.023-14.708,15.534a25.627,25.627,0,0,0-3.194,13.28c.146,2.559,4.147,2.576,4,0a21.19,21.19,0,0,1,2.647-11.261c3.085-5.891,7.958-10.226,13.273-14.1a2.06,2.06,0,0,0,.718-2.737,2.015,2.015,0,0,0-2.736-.717Z"/>

<path class="e" d="M61.529,81.976a13.913,13.913,0,0,0-2.01,5.14c-.362,1.588-.58,3.2-.914,4.8a2,2,0,1,0,3.857,1.063c.325-1.55.538-3.12.885-4.665a21.887,21.887,0,0,1,.712-2.552c.036-.1.072-.2.11-.3.027-.072.187-.4.038-.107s.013-.028.044-.1c.042-.09.084-.179.129-.267a6.866,6.866,0,0,1,.6-1,2.008,2.008,0,0,0-.717-2.737,2.058,2.058,0,0,0-2.737.718Z"/>

<g class="f">

<path class="b" d="M59.7,101.942c2.574,0,2.578-4,0-4s-2.578,4,0,4Z"/>

</g>

<g class="f">

<path class="b" d="M31.878,81.724c2.574,0,2.578-4,0-4s-2.578,4,0,4Z"/>

</g>

<g class="f">

<path class="b" d="M67.19,43.854c2.574,0,2.578-4,0-4s-2.578,4,0,4Z"/>

</g>

<g class="f">

<path class="b" d="M65.317,48.637c0,2.277,0,4.557.1,6.832a2,2,0,1,0,4,0c-.095-2.275-.1-4.555-.1-6.832a2,2,0,0,0-4,0Z"/>

</g>

<g class="f">

<path class="b" d="M79.66,73.944c-.4.055.363-.021.5-.029.306-.017.612-.024.918-.023A19.56,19.56,0,0,1,83.057,74a21.262,21.262,0,0,1,3.813.807,11.36,11.36,0,0,1,2.807,1.261c.535.321,1.059.658,1.575,1.006q.384.26.76.529l.309.227c.482.352-.28-.229.135.108a2.06,2.06,0,0,0,2.828,0,2.015,2.015,0,0,0,0-2.829,22.4,22.4,0,0,0-7.35-4.159,21.8,21.8,0,0,0-9.338-.863,2.013,2.013,0,0,0-1.4,2.46,2.055,2.055,0,0,0,2.461,1.4Z"/>

</g>

<g class="f">

<path class="b" d="M100.053,82.6c2.574,0,2.578-4,0-4s-2.578,4,0,4Z"/>

</g>

<path class="g" d="M78.285,66.321c7.139-2.4,15.356-3.87,22.876-2.569,5.066.877,10.32,3.137,13.627,7.219a2.014,2.014,0,0,0,2.829,0,2.047,2.047,0,0,0,0-2.828c-3.686-4.55-9.744-7.271-15.393-8.248-8.254-1.428-17.133-.08-25,2.569-2.427.817-1.386,4.681,1.064,3.857Z"/>

<path class="g" d="M74.821,81.358c-.544-.052.11.039.235.071.215.057.427.126.638.2a14.624,14.624,0,0,1,1.456.6,38.165,38.165,0,0,1,3.595,1.927,34.08,34.08,0,0,1,5.83,4.538,35.222,35.222,0,0,1,5.1,5.511c1.674,2.5,3,5.236,4.56,7.809,1.335,2.2,4.8.19,3.454-2.019-1.632-2.687-2.986-5.574-4.792-8.151a41.916,41.916,0,0,0-5.971-6.421,37.787,37.787,0,0,0-6.622-4.991c-2.257-1.321-4.836-2.812-7.487-3.068a2.014,2.014,0,0,0-2,2,2.043,2.043,0,0,0,2,2Z"/>

<g class="f">

<path class="b" d="M69.989,86.547A13.332,13.332,0,0,1,70.75,87.9c.118.237.231.476.341.717.061.133.121.268.18.4.016.037.161.376.069.159-.1-.244.074.18.092.226.05.122.1.245.148.368q.119.3.233.6c.14.372.277.745.4,1.123a15.719,15.719,0,0,1,.494,1.92c.032.167.06.334.088.5.025.147.037.268.01.049.037.3.067.608.088.914.066.922.049,1.845.047,2.769a2,2,0,0,0,4,0,22.8,22.8,0,0,0-.87-7.216,25.08,25.08,0,0,0-2.627-5.9,2,2,0,0,0-3.454,2.019Z"/>

</g>

<path class="h" d="M306.379,17.591c-8.28.869-19.347,4.707-21.439,13.9a10.449,10.449,0,0,0,.653,7,26.969,26.969,0,0,0,3.742,5.035c1.16,1.428,2.2,3.124,1.944,5.045a4.373,4.373,0,0,1-.616,1.415,11.338,11.338,0,0,1-1.655,1.884c-2.616,2.556-5.887,5.168-5.593,9.236a8.819,8.819,0,0,0,5.317,7.3,28.948,28.948,0,0,0,10.107,2.3A88.853,88.853,0,0,0,311,70.732c7.623-.422,15.161-1.708,22.77-2.193,2.557-.163,2.575-4.164,0-4-6.182.394-12.326,1.4-18.5,1.9-7.127.574-14.9,1.167-21.763-.564a12.63,12.63,0,0,1-3.551-1.336c-.25-.143-.489-.3-.728-.46-.445-.3.192.167-.058-.037-.1-.085-.211-.17-.308-.263-.191-.183-.371-.368-.551-.562-.338-.365.156.234-.021-.017-.1-.145-.2-.293-.29-.445a3.9,3.9,0,0,1-.282-3.511,12.767,12.767,0,0,1,3.06-3.533c2.792-2.616,5.085-5.328,4.366-9.41a12.257,12.257,0,0,0-2.884-5.492c-1.146-1.409-2.561-2.746-3.263-4.457-1.651-4.022,1.567-8.273,4.73-10.409a28.084,28.084,0,0,1,12.66-4.352,2.059,2.059,0,0,0,2-2,2.013,2.013,0,0,0-2-2Z"/>

<path class="b" d="M198.728,110.7a55.172,55.172,0,0,0,.454,6.184,36.952,36.952,0,0,0,.951,5.863,2,2,0,0,0,3.857-1.063,19.414,19.414,0,0,1-.447-2.175c-.084-.513-.172-1.028-.23-1.544.028.253.035.263,0,0-.017-.127-.033-.255-.049-.383q-.052-.429-.1-.859a54.745,54.745,0,0,1-.436-6.027,2,2,0,0,0-4,0Z"/>

<path class="i" d="M110.942,22.814c-1.293,1.68-.511,3.251,1.26,4.034,2.427.77,3.538-1.6,3.134-3.129C115,22.465,112.428,20.747,110.942,22.814Z"/>

<path class="h" d="M127.534,15.111c-1.292,1.68-.511,3.25,1.26,4.033,2.427.77,3.539-1.6,3.134-3.129C131.6,14.762,129.02,13.043,127.534,15.111Z"/>

<path class="i" d="M306.474,82.57c-1.293,1.68-.511,3.251,1.26,4.034,2.427.769,3.538-1.6,3.134-3.13C310.536,82.221,307.96,80.5,306.474,82.57Z"/>

<path class="h" d="M325.465,118.188c-1.293,1.68-.512,3.251,1.26,4.034,2.427.769,3.538-1.6,3.134-3.13C329.527,117.839,326.951,116.12,325.465,118.188Z"/>

<g class="f">

<path class="b" d="M65.573,108.4c-.021,4.3.23,8.618.457,12.913.315,5.952.709,11.9,1.291,17.834a2.056,2.056,0,0,0,2,2,2.014,2.014,0,0,0,2-2c-.582-5.932-.976-11.882-1.291-17.834-.227-4.3-.478-8.609-.457-12.913.013-2.574-3.987-2.577-4,0Z"/>

</g>

<path class="b" d="M283.691,140.479c-.8-8.654-.247-17.59.629-26.222a2.014,2.014,0,0,0-2-2,2.044,2.044,0,0,0-2,2c-.876,8.632-1.432,17.568-.629,26.222a2.054,2.054,0,0,0,2,2,2.014,2.014,0,0,0,2-2Z"/>

<g class="f">

<path class="b" d="M30.692,120.2c.2,5.57.73,11.152,1.258,16.7a2.055,2.055,0,0,0,2,2,2.014,2.014,0,0,0,2-2c-.528-5.547-1.061-11.129-1.258-16.7-.091-2.567-4.091-2.579-4,0Z"/>

</g>

<path class="b" d="M277.222,106.676c-1.994-.782-4.308-.2-6.169.659a9.934,9.934,0,0,0-4.683,4.409,2,2,0,0,0,3.454,2.018c.1-.2.2-.392.319-.58.059-.094.12-.187.183-.278.045-.065.258-.328.042-.068s.043-.049.089-.1c.061-.071.123-.142.187-.211.153-.167.314-.327.48-.481s.365-.283.521-.443c-.1.107-.347.251-.086.073.094-.064.186-.131.282-.194a9.235,9.235,0,0,1,1.13-.639c.1-.048.209-.084.3-.139-.119.068-.425.164-.12.057.188-.067.374-.136.565-.194s.408-.115.615-.159c.1-.022.2-.038.3-.059.352-.07-.508.047-.13.016a8.5,8.5,0,0,1,1.059-.015c.366.015-.521-.1-.169-.024.088.018.176.033.263.054a3.921,3.921,0,0,1,.5.159,2.007,2.007,0,0,0,2.46-1.4,2.058,2.058,0,0,0-1.4-2.461Z"/>

<path class="b" d="M282.752,101.914a8.244,8.244,0,0,0-3.635-3.4A15.252,15.252,0,0,0,273.58,97a2.007,2.007,0,0,0-2,2,2.054,2.054,0,0,0,2,2c.165.016.834.133.2.014.179.034.361.055.54.088.374.069.746.152,1.113.252s.711.211,1.058.341c.09.033.179.069.268.1.255.1-.108-.032-.164-.069a5.331,5.331,0,0,0,.506.239,8.951,8.951,0,0,1,.844.486,3.049,3.049,0,0,1,.428.3c-.034-.033-.366-.3-.163-.122.064.054.128.108.191.164q.186.166.357.345c.081.085.255.216.289.328-.021-.069-.3-.422-.11-.138.043.066.089.13.132.2.084.132.159.268.231.407a2.014,2.014,0,0,0,2.736.718,2.048,2.048,0,0,0,.718-2.737Z"/>

<path class="b" d="M288.593,111.334a1.545,1.545,0,0,0,.359-.083q-.57.069-.257.034c.047,0,.093-.008.14-.01.11-.006.22-.007.33,0,.086,0,.515.06.117,0s.044.012.122.029c.132.028.262.061.391.1.1.03.2.062.295.1.5.18-.3-.158.014,0,.231.115.461.229.682.363s.436.343.669.452c-.444-.208-.175-.136-.033-.016q.186.156.363.323c.212.2.415.407.608.624.1.111.193.226.289.339.326.384-.183-.275.041.056.173.255.349.5.507.769s.309.546.445.828q.058.123.114.246.132.3-.041-.1a2.782,2.782,0,0,0,.147.386c.109.306.2.618.283.933a3.243,3.243,0,0,1,.194.974q-.058-.442-.019-.1c.01.1.019.192.026.288q.015.219.021.438a10.039,10.039,0,0,1-.042,1.189,2.007,2.007,0,0,0,2,2,2.052,2.052,0,0,0,2-2,12.178,12.178,0,0,0-3.221-9.164c-1.867-2.044-4.786-3.618-7.607-2.838a2,2,0,0,0,1.063,3.857Z"/>

<path class="b" d="M289.367,103.614a6.179,6.179,0,0,1,.639-.427c.11-.063.221-.123.334-.18.168-.083.65-.245-.007-.011a8.458,8.458,0,0,1,1.609-.439l-.531.072a5.578,5.578,0,0,1,1.466-.011l-.532-.072a4.428,4.428,0,0,1,.655.146c.079.024.156.059.235.082-.612-.177-.283-.127-.1-.03a3.16,3.16,0,0,1,.285.171c.158.1.253.3-.137-.112.16.169.332.314.478.5a2,2,0,0,0,1.414.586,2.036,2.036,0,0,0,1.414-.586,2.01,2.01,0,0,0,.586-1.414,2.318,2.318,0,0,0-.586-1.414c-2.173-2.739-6.71-2.241-9.238-.313a2.2,2.2,0,0,0-.92,1.2,2.047,2.047,0,0,0,.2,1.541,2.017,2.017,0,0,0,1.2.919,1.934,1.934,0,0,0,1.541-.2Z"/>

<path class="b" d="M263.247,104.146c2.574,0,2.578-4,0-4s-2.578,4,0,4Z"/>

<path class="d" d="M280.226,174.57c3.183-.2,6.38-.142,9.567-.211a2,2,0,0,0,0-4c-3.187.069-6.384.012-9.567.211a2,2,0,0,0,0,4Z"/>

<path class="g" d="M34.037,178.552c2.775-.363,5.573-.634,8.37-.741a2,2,0,1,0,0-4c-2.8.107-5.595.378-8.37.741a2.194,2.194,0,0,0-1.414.586,2.033,2.033,0,0,0-.586,1.414c.043.967.889,2.145,2,2Z"/>

<path class="e" d="M61.4,181.565q3.729-.254,7.456-.514a2,2,0,0,0,0-4q-3.727.26-7.456.514a2,2,0,0,0,0,4Z"/>

<path class="h" d="M15.658,164.8c12.17-.741,24.381-1,36.566-1.391,13.852-.441,27.707-.866,41.563-1.17,1.89-.042,3.782-.1,5.673-.1a3.413,3.413,0,0,1,3.3,1.973,3.085,3.085,0,0,1-.731,3.947,2.056,2.056,0,0,0-.717,2.736,2.016,2.016,0,0,0,2.736.718,7.362,7.362,0,0,0,.818-11.254c-2.055-2.066-4.631-2.14-7.322-2.095-5.449.091-10.9.243-16.344.39q-23.814.642-47.623,1.483c-5.974.216-11.953.4-17.92.763-2.558.156-2.575,4.157,0,4Z"/>

<path class="h" d="M94.6,172.66c14.086-.328,28.143-1.63,42.236-1.843a11.365,11.365,0,0,1,5.794,1,6.716,6.716,0,0,1,3.366,5.986c.089,2.567,4.089,2.579,4,0a10.885,10.885,0,0,0-9.628-10.821c-3.3-.467-6.8-.095-10.118.032-8.984.343-17.963.809-26.943,1.249-2.9.142-5.8.327-8.707.4-2.57.06-2.579,4.06,0,4Z"/>

<path class="h" d="M75.6,162.13c7.037-3.964,14.373-7.437,21.671-10.887,8.742-4.132,17.558-8.17,26.575-11.673a73.843,73.843,0,0,1,9.575-3.215,52.266,52.266,0,0,1,20.109-.749c13.053,2.059,24.708,8.45,35.973,15.024,4.413,2.575,9.083,4.744,13.7,6.923,4.752,2.242,9.529,4.466,14.4,6.439a2.013,2.013,0,0,0,2.461-1.4,2.049,2.049,0,0,0-1.4-2.46,252.689,252.689,0,0,1-25.543-12.056c-5.351-2.918-10.518-6.117-16.01-8.781a85.917,85.917,0,0,0-18.889-6.861,57.716,57.716,0,0,0-32.453,2.147c-9.115,3.327-17.989,7.364-26.783,11.453-8.561,3.981-17.176,8-25.408,12.639-2.243,1.263-.229,4.72,2.019,3.454Z"/>

<path class="h" d="M185.278,145.568c4.333-2.91,9.493-4.83,14.368-6.607a84.447,84.447,0,0,1,8.437-2.655,15.885,15.885,0,0,1,5.509-.7c.095.006.769.089.295.024.177.024.354.053.53.082.515.086,1.027.19,1.537.3,1.072.24,2.134.528,3.187.838,2.559.754,5.077,1.643,7.574,2.579,5.718,2.142,11.336,4.547,16.917,7.021,5.189,2.3,10.335,4.7,15.5,7.045a2.059,2.059,0,0,0,2.736-.717,2.016,2.016,0,0,0-.718-2.736c-10.483-4.769-20.913-9.675-31.665-13.821-4.626-1.783-9.435-3.681-14.363-4.427-4.836-.731-9.723.959-14.251,2.5-3.46,1.179-6.867,2.522-10.211,4a47.714,47.714,0,0,0-7.4,3.821c-2.126,1.428-.126,4.895,2.019,3.454Z"/>

<path class="h" d="M335.327,151.433c-8.928,0-17.857-.17-26.784-.269q-20.668-.229-41.338-.38c-5.824-.033-11.649-.057-17.473-.033-4.151.016-8.461-.2-12.581.392-3.723.537-8.029,2.28-9.191,6.228-1.2,4.082,1.405,7.7,5.218,8.938a22.917,22.917,0,0,0,6.929.649c2.878.026,5.755.073,8.633.091a7.143,7.143,0,0,1,2.876.365,1.716,1.716,0,0,1,.955.93,2.226,2.226,0,0,1-.633,2.826c-1.29,1.031-3.054.99-4.612.991q-2.139,0-4.278.007-5.727.015-11.455.037-12.1.043-24.193.079-2.237,0-4.472,0c-2.574,0-2.578,4,0,4,14.833,0,29.666-.118,44.5-.128,3.692,0,8.264-1.082,9.206-5.274a6.3,6.3,0,0,0-5.538-7.693,67.947,67.947,0,0,0-8.637-.209c-2.387-.031-4.961.239-7.305-.286-1.25-.281-2.7-.848-3.221-2.02a3.2,3.2,0,0,1,.968-3.768c2.172-1.795,5.306-1.979,8-2.053,1.809-.05,3.619-.071,5.428-.086,5.419-.048,10.839-.033,16.258-.011,13.742.057,27.484.2,41.226.351,9.986.109,19.973.259,29.96.316q.779,0,1.555,0c2.574,0,2.578-4,0-4Z"/>

<path class="d" d="M256.7,30.825a6.4,6.4,0,0,0-3.755-2.106.84.84,0,0,1-.209-1.576,8.311,8.311,0,0,0,3.555-3,9.526,9.526,0,0,0,1.312-3.129.816.816,0,0,1,1.528-.156A7.725,7.725,0,0,0,261.9,24.19a12.566,12.566,0,0,0,2.881,1.257.833.833,0,0,1,.17,1.526,9.048,9.048,0,0,0-3.751,3.492,7.258,7.258,0,0,0-.887,2.958.818.818,0,0,1-1.541.292A13.282,13.282,0,0,0,256.7,30.825Z"/>

<path class="d" d="M322.145,99.744a6.4,6.4,0,0,0-3.755-2.106.84.84,0,0,1-.209-1.576,8.311,8.311,0,0,0,3.555-3,9.526,9.526,0,0,0,1.312-3.129.816.816,0,0,1,1.528-.156,7.725,7.725,0,0,0,2.775,3.328,12.566,12.566,0,0,0,2.881,1.257.833.833,0,0,1,.17,1.526,9.048,9.048,0,0,0-3.751,3.492,7.258,7.258,0,0,0-.887,2.958.818.818,0,0,1-1.541.292A13.282,13.282,0,0,0,322.145,99.744Z"/>

<path class="d" d="M122.322,103.121a6.394,6.394,0,0,0-3.755-2.107.84.84,0,0,1-.21-1.575,8.309,8.309,0,0,0,3.556-3,9.526,9.526,0,0,0,1.312-3.129.817.817,0,0,1,1.528-.156,7.726,7.726,0,0,0,2.775,3.329,12.625,12.625,0,0,0,2.881,1.256.833.833,0,0,1,.17,1.526,9.054,9.054,0,0,0-3.751,3.492,7.242,7.242,0,0,0-.887,2.958.818.818,0,0,1-1.541.292A13.285,13.285,0,0,0,122.322,103.121Z"/>

<path class="d" d="M22.767,26.232a6.4,6.4,0,0,0-3.755-2.107.839.839,0,0,1-.21-1.575,8.306,8.306,0,0,0,3.555-3,9.527,9.527,0,0,0,1.313-3.129.816.816,0,0,1,1.527-.156A7.733,7.733,0,0,0,27.972,19.6a12.6,12.6,0,0,0,2.881,1.256.833.833,0,0,1,.171,1.526,9.049,9.049,0,0,0-3.751,3.492,7.242,7.242,0,0,0-.887,2.958.818.818,0,0,1-1.542.292A13.281,13.281,0,0,0,22.767,26.232Z"/>

</svg>