<?xml version="1.0" encoding="utf-8"?>
<!-- Uploaded to: SVG Repo, www.svgrepo.com, Generator: SVG Repo Mixer Tools -->
<svg width="800px" height="800px" viewBox="0 -127.52 484.277 484.277" xmlns="http://www.w3.org/2000/svg"><defs><style>.a{fill:#ffffff;}.b{fill:#211715;}.c{fill:#7a7473;}.d{fill:#f2635f;}.e{fill:#5394cf;}.f{fill:#bdbdbd;}.g{fill:#3f88c9;}</style></defs><path class="a" d="M12.226,189.7V3.965a1.9,1.9,0,0,1,1.89-1.9c38.57,0,287.27-.02,331.14-.03a1.891,1.891,0,0,1,1.89,1.9c-.01,18.2-.1,148.26-.13,185.75Z"/><path class="b" d="M14.226,189.7V5.047c0-.229-.02-.467,0-.695.046-.519-.216-.2.153-.287a16.412,16.412,0,0,1,3.3,0h8.934L52,4.063l33.695,0,39.417,0,42.449,0,43.377,0,41.442,0,37.395,0,30.539,0,21.472,0h2.746c.344,0,.686.059.617-.053.167.269,0,1.192,0,1.516V7.309q0,5.424-.007,10.848-.011,16.967-.023,33.934l-.03,43.6q-.015,22.279-.031,44.558l-.027,36.8q0,6.319-.01,12.638c0,2.574,4,2.578,4,0q.012-15.288.023-30.575l.03-42.443q.016-22.751.032-45.5l.027-39.739q.009-12.585.017-25.168c0-1.939.22-4.02-1.492-5.379-1.445-1.147-3.555-.847-5.3-.846h-9.37l-26.4,0-34.568,0-40.173,0-43.213,0-43.5,0-41.792,0-36.8,0L36.77.064h-20c-1.6,0-3.466-.244-4.844.69-1.911,1.3-1.7,3.512-1.7,5.52V189.7c0,2.574,4,2.578,4,0Z"/><path class="a" d="M357.167,199.617c0-4.908-.057-2.95-.057-9.936L2.081,189.7c0,5.39-.081.911-.081,9.945H12.154c-.021,1.464-.044,4.362-.044,9.165,15.309,0,325.137-.024,334.947-.024,0-3.48-.028-6.084-.045-9.163Z"/><path class="b" d="M359.167,199.617c0-3.312-.056-6.623-.057-9.936a2.029,2.029,0,0,0-2-2H278.554l-45.482,0-49.276,0-49.38,0-46.191,0-39.661,0H2.081a2.029,2.029,0,0,0-2,2c0,3.316-.08,6.629-.081,9.945a2.03,2.03,0,0,0,2,2H12.154l-2-2c-.043,3.055-.044,6.11-.044,9.165a2.029,2.029,0,0,0,2,2H24.493l25.822,0,36.137,0,42.864,0,46.6,0,46.849,0,43.6,0,37.238,0,27.664,0h15.789a2.03,2.03,0,0,0,2-2c0-3.054-.028-6.109-.045-9.163l-2,2h10.155c2.573,0,2.578-4,0-4H347.012a2.028,2.028,0,0,0-2,2c.017,3.054.043,6.109.045,9.163l2-2H311.443l-35.312,0-42.355,0-46.407,0-46.968,0-44.031,0-37.983,0-28.728,0H12.11l2,2c0-3.055,0-6.11.044-9.165a2.028,2.028,0,0,0-2-2H2l2,2c0-3.316.079-6.629.081-9.945l-2,2H40.41l37.366,0,45.055,0,49.112,0,49.48,0,46.553,0,40.289,0H357.11l-2-2c0,3.313.055,6.624.057,9.936C355.168,202.191,359.168,202.2,359.167,199.617Z"/><path class="b" d="M326.363,197.829q-13.875,0-27.749.05-19.371.041-38.742.08-7.166.013-14.332.018c-2.573,0-2.578,4,0,4q15.218,0,30.435-.05,19-.039,37.991-.08,6.2-.012,12.4-.018c2.573,0,2.578-4,0-4Z"/><path class="b" d="M232.361,197.829q-3.843,0-7.688,0l-15.854.01-22.193.017-26.369.019-28.811.021-29.161.022-27.413.02-23.94.017q-9.178.006-18.356.012-5.382,0-10.764.006H20.539c-2.574,0-2.578,4,0,4q4.343,0,8.684,0l16.633-.01,22.758-.016,26.717-.02,28.946-.021,29.079-.022,27.117-.02,23.427-.017,17.628-.012q4.912,0,9.824-.006h1.009c2.574,0,2.578-4,0-4Z"/><path class="c" d="M114.918,187.557c0-4.224-.038-6.4-.038-8.918-5.638,0-24.744-.007-32.563-.007,0,3.267-.027,6.619-.027,8.914C86.936,187.546,107.669,187.557,114.918,187.557Z"/><path class="a" d="M82.315,180c0-.418,0-.868,0-1.359H92.4v8.915l-10.1,0C82.29,185.6,82.309,182.355,82.315,180Z"/><path class="b" d="M116.918,187.557c0-2.972-.036-5.945-.038-8.918a2.029,2.029,0,0,0-2-2q-16.281,0-32.563-.007a2.029,2.029,0,0,0-2,2c0,2.972-.025,5.943-.027,8.914a2.03,2.03,0,0,0,2,2q16.314,0,32.628.011c2.574,0,2.578-4,0-4q-16.314,0-32.628-.011l2,2c0-2.971.026-5.942.027-8.914l-2,2q16.281,0,32.563.007l-2-2c0,2.973.037,5.946.038,8.918C112.919,190.131,116.919,190.135,116.918,187.557Z"/><path class="b" d="M90.4,178.77v8.779a2,2,0,0,0,4,0V178.77a2,2,0,0,0-4,0Z"/><path class="d" d="M156.2,187.557c0-4.224-.038-6.4-.038-8.918-5.639,0-24.744-.007-32.564-.007,0,3.267-.026,6.619-.026,8.914C128.219,187.546,148.953,187.557,156.2,187.557Z"/><path class="a" d="M123.6,180c0-.418,0-.868,0-1.359h10.078v8.915l-10.1,0C123.574,185.6,123.593,182.355,123.6,180Z"/><path class="b" d="M158.2,187.557c0-2.972-.036-5.945-.038-8.918a2.03,2.03,0,0,0-2-2q-16.282,0-32.564-.007a2.03,2.03,0,0,0-2,2c0,2.972-.025,5.943-.026,8.914a2.029,2.029,0,0,0,2,2q16.314,0,32.628.011c2.574,0,2.578-4,0-4q-16.314,0-32.628-.011l2,2c0-2.971.025-5.942.026-8.914l-2,2q16.283,0,32.564.007l-2-2c0,2.973.037,5.946.038,8.918C154.2,190.131,158.2,190.135,158.2,187.557Z"/><path class="b" d="M131.678,178.77v8.779a2,2,0,0,0,4,0V178.77a2,2,0,1,0-4,0Z"/><path class="a" d="M36.246,187.557c0-6.186.056-5.151.056-8.843,8.246,0,21.819-.01,33.254-.01,0,4.784.039,5.475.039,8.837C62.8,187.541,46.847,187.557,36.246,187.557Z"/><path class="e" d="M33.791,179.194c0-6.291.064-5.239.064-8.992,9.46,0,25.032-.01,38.15-.01,0,4.864.045,5.567.045,8.985C64.256,179.177,45.953,179.194,33.791,179.194Z"/><path class="b" d="M38.246,187.557c0-2.948.055-5.895.056-8.843l-2,2q16.628,0,33.254-.01l-2-2c0,2.946.037,5.891.039,8.837l2-2q-16.674,0-33.349.016c-2.573,0-2.578,4,0,4q16.675,0,33.349-.016a2.029,2.029,0,0,0,2-2c0-2.946-.038-5.891-.039-8.837a2.03,2.03,0,0,0-2-2q-16.627,0-33.254.01a2.03,2.03,0,0,0-2,2c0,2.948-.055,5.9-.056,8.843C34.246,190.131,38.246,190.135,38.246,187.557Z"/><path class="b" d="M35.791,179.194c0-3,.063-5.995.064-8.992l-2,2q19.076,0,38.15-.01l-2-2c0,3,.044,5.99.045,8.985l2-2q-19.129,0-38.259.017c-2.574,0-2.578,4,0,4q19.13,0,38.259-.017a2.029,2.029,0,0,0,2-2c0-3-.044-5.99-.045-8.985a2.028,2.028,0,0,0-2-2q-19.074,0-38.15.01a2.03,2.03,0,0,0-2,2c0,3-.063,5.994-.064,8.992C31.79,181.767,35.79,181.772,35.791,179.194Z"/><path class="a" d="M48.34,178.828c0-7.043.015-5.865.015-10.067,2.265,0,5.994-.012,9.136-.012,0,5.447.011,6.234.011,10.061C55.635,178.81,51.252,178.828,48.34,178.828Z"/><path class="b" d="M50.34,178.828c0-3.356.015-6.711.015-10.067l-2,2c3.045,0,6.091-.011,9.136-.012l-2-2c0,3.354.01,6.707.011,10.061l2-2c-3.054,0-6.108.018-9.162.018a2,2,0,0,0,0,4c3.054,0,6.108-.018,9.162-.018a2.03,2.03,0,0,0,2-2c0-3.354-.011-6.707-.011-10.061a2.029,2.029,0,0,0-2-2c-3.045,0-6.091.012-9.136.012a2.029,2.029,0,0,0-2,2c0,3.356-.015,6.711-.015,10.067a2,2,0,0,0,4,0Z"/><path class="b" d="M429.513,120.572c.041,2.234.187,4.728,1.428,6.665a15.344,15.344,0,0,0,3.274,3.484,42.323,42.323,0,0,0,3.957,2.867,17.534,17.534,0,0,0,2.135,1.267,2.05,2.05,0,0,0,2.737-.718,2.024,2.024,0,0,0-.718-2.736,16.411,16.411,0,0,1-1.927-1.135q-.795-.5-1.569-1.041c-.327-.227-.652-.46-.972-.7l-.368-.277c.413.31-.132-.105-.206-.163a22.592,22.592,0,0,1-1.717-1.511c-.238-.235-.469-.476-.69-.727-.119-.136-.233-.277-.348-.417.179.217.16.215,0-.009-.078-.112-.533-.686-.479-.816l.114.277c-.052-.128-.1-.259-.144-.39-.091-.27-.165-.546-.229-.824a7.342,7.342,0,0,1-.195-1.242c-.055-.618-.076-1.237-.087-1.857a2,2,0,0,0-4,0Z"/><path class="b" d="M396.9,134.855a15.015,15.015,0,0,0,2.056-1.257,31.763,31.763,0,0,0,3.668-2.838,12,12,0,0,0,2.836-3.517,15.506,15.506,0,0,0,1.108-6.655,2,2,0,1,0-4,0,25.638,25.638,0,0,1-.137,2.887c-.03.218-.157.849-.259,1.212-.057.2-.128.393-.191.59-.169.52.194-.359-.093.182a6.841,6.841,0,0,1-.435.707c-.055.079-.111.157-.169.235.148-.19.177-.227.085-.113-.122.127-.227.275-.344.407a16.661,16.661,0,0,1-1.471,1.452c-.261.232-.529.456-.8.676-.077.062-.544.426-.156.128-.122.095-.246.188-.37.28q-.739.551-1.508,1.058a13.917,13.917,0,0,1-1.839,1.112,2.008,2.008,0,0,0-.717,2.736,2.056,2.056,0,0,0,2.736.718Z"/><path class="a" d="M319.516,133.251a3.125,3.125,0,0,1,.612-1.023c-.839-1.681-1.114-2.628-.925-3.693.148-2.144,4.678-3.062,8.824-2.3a7.615,7.615,0,0,1,1.729.514c.247-.868.406-1.406.406-1.406a2.169,2.169,0,0,1,2.286-1.828c2.392.14,3.588,3.095,4.08,5.345a8.412,8.412,0,0,0,2.171,3.884,29.745,29.745,0,0,1,3.069,3.678c1.553,2.4,1.817,11.131,2.508,19.859-4.558,2.219-13.227,5.736-15.262,6.519l-.208-.332-.481-.771a15.176,15.176,0,0,0-3.009-3.492c-.712-.608-1.479-1.148-2.216-1.726a27.257,27.257,0,0,1-6.512-7.368s-.367-.609-.966-1.6a4.767,4.767,0,0,1-1.828-2.932c-.123-1.36,1.646-2.679,3.241-2.625l-.442-.827c-1.027-.733-.378-2.744.472-3.676a2.788,2.788,0,0,1,2.846-.805c-.273-.615-.491-1.113-.491-1.113C319.036,135.225,319.163,134.142,319.516,133.251Z"/><path class="a" d="M329.348,162.669c2.713-1.063,11.82-4.78,15.833-6.841.457.919,1.8,3.75,2.438,5.08l.237.55c-5.109,2.441-11.857,5.633-17.065,7.242l-.22-.595c-.644-1.6-1.65-4.735-1.857-5.192C328.844,162.865,329.06,162.782,329.348,162.669Z"/><path class="a" d="M445.72,86.794a4.129,4.129,0,0,1,3.3-.966,3.9,3.9,0,0,1,2.8,1.863,5.508,5.508,0,0,1,.577,2.217,16.514,16.514,0,0,1-1.684,8.753A10.482,10.482,0,0,1,448,102.223a3.285,3.285,0,0,1-4.063.375,24.8,24.8,0,0,1-1.075,3.883c-.871,2.327-5.431,9.944-11.358,13.571a15.037,15.037,0,0,0,.732,5.365c1.34,3.318,8.578,7.493,9.077,7.711,0,0-2.809,18.031-23.734,18.031s-21.692-18.031-21.692-18.031c.5-.218,6.6-3.811,7.945-7.13a14.941,14.941,0,0,0,.73-5.383,23.322,23.322,0,0,1-7.432-6.03,27.96,27.96,0,0,1-5.638-11.367c-1.707.682-2.98-.2-3.978-1a10.5,10.5,0,0,1-2.714-3.562,16.5,16.5,0,0,1-1.683-8.753,5.507,5.507,0,0,1,.576-2.217,3.9,3.9,0,0,1,2.8-1.863,4.13,4.13,0,0,1,3.3.966s-.8-23.219,28.28-23.219C447.047,63.575,445.72,86.794,445.72,86.794Z"/><path class="c" d="M389.754,86.625c.894.92,1.393-.966,1.731-1.7.539-1.174,1.327-2.885,1.9-4.039.318-.635.776-1.566,1.057-2.215q.445-1.031.947-2.03a41.227,41.227,0,0,1,2.229-3.909,5.178,5.178,0,0,1,1.427-1.617c1.75-1.149,4.151-.222,6.286-.383,2.371-.178,4.336-1.709,6.523-2.58,3.04-1.212,7.7-1.531,10.649-.133,1.49.077,2.88.012,4.231,0a26.94,26.94,0,0,1,4.529.2,14.408,14.408,0,0,1,9.549,7.03,34.168,34.168,0,0,1,3.443,7.618,26.709,26.709,0,0,1,.643,2.891c.052.328.089.663.119.992.021.224.245.3.771-.054l-.072.1A4.129,4.129,0,0,1,449,85.825c2.063-6.777,1.5-15.37-.5-20.493-1.38-3.525-3.493-7.592-7.774-9.942l-3.93-3.477c-1.764-3.583-5.451-6.651-10.3-8.382-5.079-1.814-19.885-2.122-24.862,2.182l-5.111,3.495c-5.7,2.6-9.721,8.828-11.434,15.245-1.765,6.612-1.78,16.2.7,21.557a4.085,4.085,0,0,1,4,.784"/><path class="f" d="M399.448,127.387a31.979,31.979,0,0,0-6.116,5.095l-1.251.521c-5.924,2.472-13.47,5.58-19.25,8.372-1.778.859-3.866,1.262-5.213,2.706a15.06,15.06,0,0,0-3.135,5.116c-4.027,10.513-4.713,16.516-8.783,27.086-2.22-5.187-4.125-9.912-6.407-15.51-6.056,2.889-15.234,7.349-21.056,8.611,2.9,9.292,5.709,18.648,9.8,27.953,2.841,6.465,5.887,13.093,12.86,14.214,4.465.719,9.779-1.1,13.183-4.08s8.744-9.282,11.3-12.511l1.779.2c1.085,6,.924,11.232.924,17.235,0,5.166-.306,8.983-.312,14.846l104.5-.154c-2.539-35.08-6.512-66.307-9.722-77.006a11.8,11.8,0,0,0-3.846-6.155c-1.542-1.233-4.1-2.048-5.875-2.907-5.78-2.792-13.327-5.9-19.251-8.372,0,0-.417-.174-1.133-.476a31.688,31.688,0,0,0-5.821-4.785c-2.587,11.092-7.184,23.065-10.827,33.856q-3.667,10.86-7.336,21.72c-3.26-8.084-5.417-13.526-8.184-21.72-3.644-10.791-8.24-22.764-10.828-33.856"/><path class="b" d="M320.613,146.5c.056.077.228.416.071.073-.185-.407.009.311-.04-.139-.043-.4-.007.046-.009.139,0,.052-.01.107-.008.159.01.237.105-.491.022-.158-.027.107-.047.214-.077.32-.021.073-.187.506-.046.169s-.045.068-.085.135a.81.81,0,0,0-.079.127c-.052.16.261-.279.141-.179a.677.677,0,0,0-.123.128c-.082.121.2-.161.219-.165a1.555,1.555,0,0,0-.346.205c-.168.109.2-.078.2-.079a1.658,1.658,0,0,0-.174.064,3.867,3.867,0,0,1-.486.13c-.457.093.309,0-.037.005-.127,0-.252.01-.379,0a2.367,2.367,0,0,0-.248-.017s.426.089.231.024c-.161-.053-.334-.1-.5-.147-.229-.067.143.046.133.06a1.98,1.98,0,0,1-.2-.095c-.156-.078-.31-.161-.46-.25a10.142,10.142,0,0,1-.878-.585,1.611,1.611,0,0,1-.242-.182c.007.009.282.225.106.081-.125-.1-.252-.2-.374-.31-.248-.218-.468-.456-.695-.7-.256-.27.172.269-.035-.036-.09-.134-.18-.267-.26-.408-.033-.059-.064-.12-.1-.18-.173-.311.046.059.04.11a2.112,2.112,0,0,0-.143-.506c.013.018.008.378.032.228a.647.647,0,0,0,0-.139c-.024-.318-.052.558,0,.122,0-.046.04-.088.044-.134,0,.013-.209.388-.1.259.044-.053.314-.47.089-.172-.211.281.088-.065.161-.142.031-.032.1-.068.12-.107-.053.1-.392.265-.1.084.11-.069.218-.139.332-.2a1.075,1.075,0,0,0,.2-.1c-.047.049-.429.152-.166.075.143-.043.283-.092.43-.124.053-.012.111-.017.163-.032.2-.055-.516.013-.148.029.124.006.256.01.38.009.244,0-.427-.129-.212-.023a2.055,2.055,0,0,0,.258.073,2.018,2.018,0,0,0,2.46-1.4,2.044,2.044,0,0,0-1.4-2.46,5.392,5.392,0,0,0-5.189,1.381,4.238,4.238,0,0,0-1.305,2.676,4.789,4.789,0,0,0,.805,2.866,8.463,8.463,0,0,0,1.943,2.13,12.038,12.038,0,0,0,2.5,1.639,5.782,5.782,0,0,0,3.23.531,5.274,5.274,0,0,0,2.865-1.216c1.41-1.258,2.09-4.064.923-5.677a2.164,2.164,0,0,0-1.195-.919,2,2,0,0,0-2.259,2.938Z"/><path class="b" d="M322.048,135.361a5.932,5.932,0,0,0-4.131-.668,4.935,4.935,0,0,0-2.876,2.131,5.616,5.616,0,0,0-.966,3.291,3.535,3.535,0,0,0,.551,1.792,3.468,3.468,0,0,0,.958.947c.105.079.212.154.317.233-.286-.215.2.166.26.21,1.428,1.157,2.939,2.2,4.418,3.292a11.481,11.481,0,0,0,1.893,1.216,5.034,5.034,0,0,0,3.55.22,4.657,4.657,0,0,0,3.156-2.837,4.818,4.818,0,0,0-.609-4.5,2.045,2.045,0,0,0-2.736-.718,2.024,2.024,0,0,0-.718,2.737,3.567,3.567,0,0,1,.388.647c-.04-.093-.1-.325-.03,0s0-.066.009-.067.009.715.021.32c.01-.366-.042.394-.132.4-.045,0,.258-.449.037-.129a.718.718,0,0,0-.1.158c-.064.23.271-.3.1-.119s-.018.1-.03.061l.1-.074c-.054.039-.109.076-.167.11s-.12.066-.178.1c-.323.194.054-.058.093-.033a2.69,2.69,0,0,0-.341.107c-.092.024-.188.038-.28.064-.269.074.385-.018.109-.013-.158,0-.32,0-.479.01-.418.013.405,0,.024,0-.046,0-.094-.046-.138-.049.081,0,.5.245.206.077a17.307,17.307,0,0,1-1.479-.953q-1.435-1.04-2.877-2.066c-.044-.032-.34-.251-.148-.106s-.1-.08-.143-.114c-.162-.13-.322-.263-.483-.394-.19-.155-.381-.31-.574-.462s-.369-.288-.554-.429c-.05-.038-.44-.38-.232-.17.241.243-.186-.27.087.1.179.243.068.082.035.022.212.389.135.323.086.166-.1-.321.051.154.021.184a1.981,1.981,0,0,0,0-.245c-.011-.3.092.124-.027.15a4.975,4.975,0,0,0,.131-.517,1.118,1.118,0,0,1,.092-.256c-.107.248-.129.3-.064.169q.029-.061.06-.12a4.616,4.616,0,0,0,.3-.5c.019.042-.332.354-.086.126a2.418,2.418,0,0,0,.222-.219c.15-.184-.333.163-.11.084a1.9,1.9,0,0,0,.268-.16c.262-.161-.094.125-.128.052,0,0,.23-.067.249-.073.323-.108-.071.035-.136.007a1.621,1.621,0,0,0,.352-.009c.078,0,.379.056.1,0-.31-.064.14.043.2.06.11.03.216.067.325.1-.338-.114.107.054.2.1a2,2,0,1,0,2.018-3.454Z"/><path class="b" d="M326.885,139.191c-1.617-1.311-3.187-2.675-4.776-4.018-.3-.252-.6-.5-.9-.75a2.908,2.908,0,0,0-.267-.217c-.176-.115-.152-.266.109.209.274.5.139.4.106.245.122.593.029.311.029.119a1.3,1.3,0,0,0,.012-.238c.11.174-.1.428,0,.082.053-.2.1-.4.163-.6a1,1,0,0,1,.1-.26c-.182.192-.138.28-.035.109a1.377,1.377,0,0,0,.158-.275q.127-.194-.143.168a1.344,1.344,0,0,1,.125-.137c.056-.051.309-.223.086-.09-.269.162.167-.076.181-.084-.065.039-.4.122-.056.03.1-.027.2-.052.3-.078.412-.108-.067,0-.074.008.055-.047.312-.007.388,0l.078,0c.229.022.207.019-.068-.009.084-.04.374.1.451.124-.086-.025-.4-.207-.012,0,.114.061.23.119.344.181.248.133.493.273.734.418a16.474,16.474,0,0,1,1.388.939c-.323-.243.162.138.255.217.214.181.422.368.626.56.373.351.734.717,1.076,1.1.093.1.186.211.276.319.072.086.281.389.033.035.119.17.238.337.346.514.122.2.233.407.335.619.027.055.163.369.067.137s.091.263.109.311c.15.4.008-.063.019-.059a1.464,1.464,0,0,1-.008.423c-.008.01.139-.5-.007-.105l-.04.141c-.075.208-.061.187.04-.063-.015.188-.51.7-.167.349-.068.071-.128.148-.2.217-.052.052-.105.1-.161.148q-.168.144.121-.1c0,.026-.2.119-.242.14q.376-.146.043-.045l.221-.037c-.435.077.084.014.067.022-.107.053-.491-.187-.124-.01a5.427,5.427,0,0,1-.761-.455c-.054-.038-.326-.239-.1-.072s-.189-.155-.23-.188a2.049,2.049,0,0,0-2.829,0,2.022,2.022,0,0,0,0,2.828c1.191.965,2.509,1.966,4.136,1.865a4.608,4.608,0,0,0,3.742-2.784,4.964,4.964,0,0,0,.5-2.278,6.335,6.335,0,0,0-.776-2.48,11.991,11.991,0,0,0-2.535-3.207c-2.1-2.014-5.049-4.238-8.123-3.585a4.711,4.711,0,0,0-3.352,3.024,4.488,4.488,0,0,0-.053,3.859,6.238,6.238,0,0,0,1.472,1.389c.476.4.948.805,1.42,1.21,1.178,1.009,2.363,2.01,3.568,2.987a2.049,2.049,0,0,0,2.829,0A2.023,2.023,0,0,0,326.885,139.191Z"/><path class="b" d="M332.091,125.873c.049-.154.008-.372.271-.369.385,0,.745.4.96.67a8.394,8.394,0,0,1,1.278,3.216c.86,3.353,3.532,5.1,5.324,7.863.991,1.528,1.187,4.365,1.4,6.5.379,3.82.585,7.657.872,11.486.191,2.551,4.193,2.572,4,0-.338-4.511-.533-9.047-1.1-13.537a25.026,25.026,0,0,0-.855-4.576,11.87,11.87,0,0,0-2.656-4.179c-1.149-1.3-2.547-2.512-3.031-4.238a14.157,14.157,0,0,0-1.894-4.713c-2.345-3.224-7.1-3.377-8.423.817-.776,2.461,3.085,3.514,3.857,1.063Z"/><path class="b" d="M327.2,132.2a32.156,32.156,0,0,0,1.664,6.262,8.654,8.654,0,0,1,.1,5.587,2.019,2.019,0,0,0,1.4,2.46,2.041,2.041,0,0,0,2.46-1.4,12.544,12.544,0,0,0,.11-7.047c-.3-1.037-.692-2.047-1.024-3.075-.164-.509-.32-1.021-.45-1.54-.055-.221-.107-.443-.152-.665-.031-.148-.059-.3-.084-.446q-.06-.377-.022-.139a2.049,2.049,0,0,0-2-2c-.978.043-2.132.887-2,2Z"/><path class="b" d="M327.958,134.5c1.943-.483,4.253-1.224,5.3-3.092a4.513,4.513,0,0,0-.766-5.188c-1.744-1.852-4.718-2.212-7.12-2.252-2.091-.034-4.591.227-6.343,1.484a4.53,4.53,0,0,0-1.334,1.381,3.686,3.686,0,0,0-.366.86c-.018.067-.028.134-.042.2q-.115.867-.053.392t-.053.393a7.71,7.71,0,0,0,.969,4.032,2.009,2.009,0,0,0,2.737.717,2.057,2.057,0,0,0,.717-2.736,4.724,4.724,0,0,1-.379-1.022c-.042-.157-.076-.316-.1-.477.073.441.032-.036.031-.218,0-.048,0-.309,0-.031-.017.512-.019-.86.034-.252.032.356.1-.2-.025.107s-.031.081.019.006c.112-.167-.151.2-.153.185-.006-.047.3-.326.332-.323.048,0-.38.2-.154.128a1.061,1.061,0,0,0,.165-.1c.139-.083.29-.144.429-.224.186-.108-.124.053-.14.058.1-.03.192-.072.289-.1.205-.069.413-.129.622-.181q.251-.063.5-.112c.116-.023.233-.042.35-.063.026,0,.323-.045.1-.016s.078-.007.1-.009c.126-.011.252-.024.378-.033.226-.017.453-.028.68-.035q.7-.02,1.407.023.308.018.614.048c.044,0,.467.05.248.024-.168-.021.212.032.247.038a9.377,9.377,0,0,1,1.431.335c.091.03.181.063.271.095-.03-.011-.266-.124-.063-.028s.385.2.576.314c.066.038.124.087.188.127-.352-.22-.153-.131-.073-.042.02.023.278.283.272.287.226-.163-.357-.277-.1-.1.042.028.053.117.085.155.131.152-.126-.189-.09-.216,0,0,.063.232.071.261.012.046.015.094.027.14.062.219-.148.032-.034-.258a.977.977,0,0,0,.012.268.961.961,0,0,0-.007.174c-.011-.022.108-.451.044-.318-.038.077-.178.492-.007.132s-.026,0-.058.079c-.1.244.091-.152.147-.175-.045.019-.1.115-.133.149s-.106.1-.152.147c-.183.2.115-.059.14-.1-.071.114-.317.212-.428.275-.169.1-.347.173-.518.264.355-.189-.071.027-.22.081a17.039,17.039,0,0,1-1.676.494,2.019,2.019,0,0,0-1.4,2.46,2.04,2.04,0,0,0,2.46,1.4Z"/><path class="b" d="M314.861,150.118a29.422,29.422,0,0,0,5.587,6.741c1.119.991,2.413,1.87,3.453,2.758a13.11,13.11,0,0,1,2.7,3.088,2,2,0,0,0,3.454-2.019,17.516,17.516,0,0,0-2.991-3.606c-1.145-1.036-2.36-1.823-3.46-2.767a24.936,24.936,0,0,1-5.286-6.213,2,2,0,1,0-3.454,2.018Z"/><path class="b" d="M307.868,77.617c4.448,12.084,8.787,24.207,13.328,36.257q1.993,5.289,4.052,10.553a2.06,2.06,0,0,0,2.46,1.4,2.013,2.013,0,0,0,1.4-2.46c-5-12.721-9.639-25.583-14.316-38.424q-1.527-4.2-3.064-8.386c-.882-2.4-4.749-1.36-3.857,1.063Z"/><path class="a" d="M304.142,72.562c.1.25.627,1.545,1.494,3.674a2.208,2.208,0,0,0,2.863,1.221l2.486-1a2.205,2.205,0,0,0,1.227-2.858c-.843-2.133-1.118-2.818-1.461-3.671a3.95,3.95,0,0,0-4.664-2.261A3.8,3.8,0,0,0,304.142,72.562Z"/><path class="b" d="M302.213,73.094l.8,1.962c.595,1.463,1.019,2.986,2.412,3.9a4.276,4.276,0,0,0,2.186.661,5.593,5.593,0,0,0,2.309-.584c1.484-.595,3.106-1.047,3.916-2.566a4.27,4.27,0,0,0,.527-2.225,7.147,7.147,0,0,0-.652-2.259q-.443-1.116-.889-2.229a7.674,7.674,0,0,0-.713-1.521,6.358,6.358,0,0,0-1.6-1.628,5.836,5.836,0,0,0-3.638-1.08,5.139,5.139,0,0,0-4.034,2.379,5.813,5.813,0,0,0-.624,5.193,2.046,2.046,0,0,0,2.461,1.4,2.023,2.023,0,0,0,1.4-2.46c-.064-.168-.287-.612-.229-.807l.032.213c-.007-.078-.01-.157-.011-.235s-.035-.314.013-.387c-.01.016-.108.477,0,.082.032-.121.057-.242.094-.361.105-.34.129-.06-.021,0a3.066,3.066,0,0,0,.2-.38c.059-.1.128-.194.19-.292.146-.233-.333.328-.016.035.063-.059.12-.127.183-.187l.1-.086c.131-.109.128-.109-.007,0l-.1.082c.066-.045.133-.087.2-.127.249-.179-.1.055-.17.055a1.8,1.8,0,0,0,.321-.1l.111-.025c.213-.038.149-.032-.191.02a2.58,2.58,0,0,0,.526-.011c.269,0,.187.143-.117-.028a1.276,1.276,0,0,0,.237.046c.1.022.5.211.585.178-.141.051-.372-.184-.137-.052.127.072.257.136.381.214a1.689,1.689,0,0,0,.259.177c-.116.043-.309-.278-.112-.073.086.09.179.183.269.269.227.215-.132-.079-.069-.108a3.289,3.289,0,0,1,.338.555c.074.131.1.359-.065-.164.023.071.056.14.084.209q.338.84.671,1.681.256.644.51,1.287c.089.223.161.454.251.676.155.38.037-.423,0-.021v.127c-.016.221-.008.168.026-.157-.022.009-.04.261-.066.242-.082-.063.246-.415.023-.079s.051-.053.06-.047c.029.019-.189.167-.178.181s.376-.281-.015-.014c-.071.049-.314.136.061-.017-.324.133-.651.261-.977.391-.526.212-1.05.431-1.585.619-.351.123.117-.053.149,0l-.381,0c.021-.021.513.091.161.005-.387-.095.324.219.013.018-.393-.253,0,.017-.009.029l-.094-.086q-.214-.234.063.114a2.167,2.167,0,0,1-.14-.22c-.195-.3.107.293-.054-.109-.216-.542-.44-1.082-.66-1.623q-.346-.852-.692-1.7a2.053,2.053,0,0,0-2.461-1.4A2.021,2.021,0,0,0,302.213,73.094Z"/><path class="b" d="M447.083,88.216a2.088,2.088,0,0,1,2.943.388,4.524,4.524,0,0,1,.43,2.3,13.8,13.8,0,0,1-.193,2.85c-.617,3.385-2.319,7.456-6.085,8.131a2.017,2.017,0,0,0-1.4,2.46,2.044,2.044,0,0,0,2.46,1.4c5.9-1.058,8.719-7.712,9.163-13.061.23-2.778-.02-5.911-2.42-7.7a6.19,6.19,0,0,0-7.73.408,2.015,2.015,0,0,0,0,2.828,2.043,2.043,0,0,0,2.828,0Z"/><path class="b" d="M391.268,85.388a6.194,6.194,0,0,0-7.731-.408c-2.4,1.787-2.649,4.932-2.419,7.7.444,5.349,3.262,12,9.163,13.061a2.056,2.056,0,0,0,2.46-1.4,2.017,2.017,0,0,0-1.4-2.46c-3.765-.675-5.467-4.746-6.085-8.131a13.746,13.746,0,0,1-.195-2.688,5.255,5.255,0,0,1,.365-2.355,2.072,2.072,0,0,1,3.01-.5,2.055,2.055,0,0,0,2.829,0,2.016,2.016,0,0,0,0-2.828Z"/><path class="b" d="M412.939,109.778a11.786,11.786,0,0,0,5.677,1.326,9.364,9.364,0,0,0,5.848-1.775,2,2,0,0,0,.585-1.415,2.035,2.035,0,0,0-.585-1.414,2.064,2.064,0,0,0-2.829,0c.693-.54-.006-.024-.224.09-.169.089-.614.229.023.01-.154.053-.3.116-.458.166-.419.135-.869.162-1.283.293.211-.067.341-.041.039-.011-.126.012-.252.023-.378.031-.3.02-.607.027-.911.025-.272,0-.544-.01-.816-.029-.125-.008-.249-.018-.374-.031q-.106-.01-.213-.024c-.157-.019-.093-.01.194.026-.017-.056-1.066-.226-1.2-.266-.168-.05-.332-.11-.5-.167-.443-.151.429.2.027.015q-.307-.144-.608-.3a2,2,0,1,0-2.019,3.453Z"/><path class="b" d="M417.323,96.763a25.442,25.442,0,0,1,.594,2.714l-.072-.532a1.624,1.624,0,0,1,.01.375l.072-.532a.889.889,0,0,1-.042.169l.2-.478a.628.628,0,0,1-.059.108l.312-.4a.658.658,0,0,1-.088.087l.4-.313a1.756,1.756,0,0,1-.214.114l.477-.2a1.52,1.52,0,0,1-.362.106l.532-.071a1.487,1.487,0,0,1-.34,0l.531.071c-.128-.017-.254-.049-.382-.066a1.526,1.526,0,0,0-.8-.036,1.487,1.487,0,0,0-.743.238,2,2,0,0,0-.718,2.736l.313.405a2,2,0,0,0,.882.514c.346.047.682.133,1.034.149a3.418,3.418,0,0,0,1.592-.389,2.429,2.429,0,0,0,1.308-1.586,3.725,3.725,0,0,0-.013-1.641c-.148-.874-.35-1.741-.575-2.6a2.06,2.06,0,0,0-.919-1.195,2.038,2.038,0,0,0-1.541-.2,2.017,2.017,0,0,0-1.2.919,2.1,2.1,0,0,0-.2,1.541Z"/><path class="b" d="M403.559,88.915c-.453,1.473-.158,4.861,2.632,5.149,3.689-.022,3.885-4.118,2.643-6.044C407.818,86.443,404.829,85.787,403.559,88.915Z"/><path class="b" d="M433.093,88.915c.453,1.473.158,4.861-2.632,5.149-3.688-.022-3.885-4.118-2.643-6.044C428.834,86.443,431.823,85.787,433.093,88.915Z"/><path class="b" d="M332.5,167.573c-.742-1.869-1.27-3.821-2.06-5.67l-1.195,2.938c2.423-.9,4.807-1.92,7.188-2.921,3.281-1.378,6.587-2.745,9.758-4.365l-2.736-.717c.832,1.683,1.629,3.384,2.437,5.079a2.018,2.018,0,0,0,2.736.718,2.044,2.044,0,0,0,.718-2.737c-.808-1.695-1.605-3.4-2.438-5.079a2.035,2.035,0,0,0-2.736-.718c-2.923,1.493-6.1,2.828-9.023,4.055-2.309.968-4.619,1.958-6.967,2.828a2.046,2.046,0,0,0-1.195,2.938c-.336-.786.069.253.131.435.159.456.315.914.472,1.371.336.975.672,1.95,1.052,2.909a2.062,2.062,0,0,0,2.461,1.4,2.015,2.015,0,0,0,1.4-2.46Z"/><path class="b" d="M438.525,50.9C432.991,40.026,418.469,39,407.89,41.038a16.648,16.648,0,0,0-7.666,3.261c-1.976,1.654.867,4.471,2.829,2.829,1.736-1.454,4.834-2.11,7.255-2.464a44.727,44.727,0,0,1,9.346-.286c6.1.4,12.464,2.74,15.417,8.544,1.168,2.3,4.62.273,3.454-2.018Z"/><path class="b" d="M442.085,101.141a14.9,14.9,0,0,1-.9,4.076c-.065.2-.133.388-.2.583-.015.043-.213.563-.067.2a5.558,5.558,0,0,0-.286.592,33.759,33.759,0,0,1-2.913,4.683c-2.553,3.508-6,7.191-10.272,8.429-2.467.715-1.418,4.576,1.064,3.857,5.277-1.531,9.347-5.768,12.515-10.067,2.678-3.633,4.866-7.742,5.056-12.353.106-2.574-3.894-2.57-4,0Z"/><path class="b" d="M389.052,101.376a31.65,31.65,0,0,0,6.184,14.035c3.335,4.177,7.981,7.72,13.37,8.563a2.063,2.063,0,0,0,2.46-1.4,2.016,2.016,0,0,0-1.4-2.461c-4.768-.745-8.687-3.807-11.606-7.534a28.075,28.075,0,0,1-5.155-12.269,2.019,2.019,0,0,0-2.461-1.4,2.042,2.042,0,0,0-1.4,2.46Z"/><path class="b" d="M395.519,47.481c-6.537,3.081-10.713,9.981-12.442,16.783-1.7,6.7-2.019,14.757.394,21.325.88,2.4,4.748,1.361,3.857-1.063-2.144-5.835-1.928-12.877-.48-18.851,1.457-6.014,4.913-12.018,10.69-14.74,2.327-1.1.3-4.546-2.019-3.454Z"/><path class="b" d="M439.719,57.117c4.167,2.366,6.574,6.916,7.7,11.448a32.662,32.662,0,0,1-.211,16.273c-.684,2.485,3.174,3.545,3.858,1.063a36.764,36.764,0,0,0,.123-18.741c-1.417-5.4-4.5-10.686-9.45-13.5-2.242-1.273-4.26,2.182-2.019,3.454Z"/><path class="b" d="M422.469,66.722a14.423,14.423,0,0,0-11.527-.34c-1.752.726-3.422,1.985-5.317,2.3-1.792.3-3.612-.325-5.422-.059A6.118,6.118,0,0,0,395.9,71.72a40.3,40.3,0,0,0-3,5.529c-.668,1.481-1.366,2.941-2.007,4.433-.359.835-.822,1.6-1.232,2.411-.114.225-.2.463-.3.692q-.1.243-.226.476-.315.494.162-.131l1.01-.273.181,0,.882.514-.2-.164c-1.97-1.627-4.815,1.187-2.828,2.829a2.632,2.632,0,0,0,4.245-.759,41.4,41.4,0,0,0,2.105-4.389c1.336-3.191,2.785-6.8,4.915-9.541,1.062-1.368,3-.708,4.507-.623a11.412,11.412,0,0,0,5.75-1.392,16.117,16.117,0,0,1,5.181-1.957,10.334,10.334,0,0,1,5.407.8,2.061,2.061,0,0,0,2.737-.717,2.017,2.017,0,0,0-.718-2.737Z"/><path class="b" d="M411.158,62.026a12.6,12.6,0,0,1,9.1,1.5,9.62,9.62,0,0,1,2.84,2.364c.057.068.284.362.128.155.1.137.2.278.3.419.179.26.348.526.512.8.391.645.742,1.312,1.083,1.984a2,2,0,0,0,3.454-2.019,16.246,16.246,0,0,0-6.511-7.274,16.723,16.723,0,0,0-11.969-1.78,2,2,0,0,0,1.063,3.857Z"/><path class="b" d="M431.08,69.716c4.148,1,6.685,4.1,8.669,7.69a28.1,28.1,0,0,1,2.708,6.469c.152.584.291,1.172.4,1.765.107.563.1,1.195.26,1.74.5,1.679,2.374,1.829,3.681,1.043,2.2-1.326.194-4.786-2.019-3.454.095.031.062.045-.1.043h1.064l-.1-.026.883.515-.065-.066.515.882c.089.316-.122-.915-.1-.761-.047-.327-.1-.654-.16-.979-.1-.539-.227-1.075-.363-1.607a24.138,24.138,0,0,0-1.063-3.2,38.568,38.568,0,0,0-3.269-6.367c-2.363-3.647-5.575-6.511-9.88-7.548-2.5-.6-3.569,3.254-1.063,3.857Z"/><path class="a" d="M419.405,132.186a.389.389,0,0,0-.1.108h-2.408a3.1,3.1,0,0,0-1.067-.6c-5.486-2.207-10.063-5.573-12.068-8.268-1.977,1.818-2.606,3.225-3.892,5.688,2.641,10.6,6.954,21.9,10.41,32.132,2.767,8.195,4.924,13.636,8.184,21.721q3.669-10.86,7.336-21.721c3.473-10.285,7.811-21.644,10.449-32.29-1.232-2.366-1.875-3.751-3.81-5.53-2,2.695-6.582,6.061-12.068,8.268A4.782,4.782,0,0,0,419.405,132.186Z"/><path class="a" d="M427.6,141.466a53.736,53.736,0,0,0,8.309-13.155,15.024,15.024,0,0,0-3.477-4.888c-2,2.695-6.582,6.061-12.068,8.268a3.094,3.094,0,0,0-1.066.6c-.132.244.124.459.244.652.189.3,1.115,1.077,2.692,2.808C424.027,137.717,426.122,139.7,427.6,141.466Z"/><path class="a" d="M408.59,141.466a53.732,53.732,0,0,1-8.308-13.155,15.006,15.006,0,0,1,3.476-4.888c2,2.695,6.582,6.061,12.068,8.268a3.1,3.1,0,0,1,1.067.6c.131.244-.124.459-.245.652-.188.3-1.115,1.077-2.692,2.808C412.167,137.717,410.071,139.7,408.59,141.466Z"/><path class="g" d="M419.628,133.849c-1.354.005-2.481.007-3.849.008-.449.445-1.06,1.059-1.823,1.9-.409.448-.833.9-1.263,1.345.3,1.568.514,2.558.847,3.985.054.251.117.492.179.743a6.861,6.861,0,0,1,.269,1.649c0,.32-1.568,11.764-2.665,20.819,2.3,6.594,4.3,11.63,7.137,18.669q3.364-9.961,6.728-19.923c-1.38-9.23-2.841-18.875-2.832-19.386a10.08,10.08,0,0,1,.645-2.921c.387-1.186.624-2.224.877-3.244-.558-.576-1.113-1.157-1.641-1.736-.769-.845-1.384-1.462-1.833-1.907Z"/><path class="b" d="M414.369,145.4c2.58,0,5.161-.057,7.741-.058a2,2,0,0,0,0-4c-2.58,0-5.161.057-7.741.058a2,2,0,0,0,0,4Z"/><path class="b" d="M410.886,138.256c.274,1.374.586,2.738.9,4.1a4.444,4.444,0,0,1,.15,1.55c-.144,1.442-.372,2.879-.56,4.315-.68,5.169-1.358,10.338-1.991,15.512a2.012,2.012,0,0,0,2,2,2.048,2.048,0,0,0,2-2c.645-5.275,1.337-10.545,2.03-15.815.18-1.365.424-2.74.533-4.113.171-2.146-.793-4.519-1.21-6.616-.5-2.522-4.358-1.455-3.857,1.064Z"/><path class="b" d="M420.256,131.85q-2.295,0-4.591.009a2.068,2.068,0,0,0-1.414.586,2,2,0,0,0,1.414,3.414q2.3,0,4.591-.009a2.069,2.069,0,0,0,1.415-.586,2,2,0,0,0-1.415-3.414Z"/><path class="b" d="M427.116,162.5c-.732-4.892-1.472-9.783-2.189-14.676q-.177-1.2-.348-2.408c-.046-.323-.092-.647-.136-.97.053.385-.017-.126-.032-.258-.2-1.707.714-3.454,1.128-5.084.634-2.5-3.223-3.561-3.857-1.064-.49,1.932-1.463,3.948-1.292,5.977.119,1.416.383,2.835.588,4.241.743,5.1,1.518,10.2,2.281,15.305a2.014,2.014,0,0,0,2.46,1.4,2.051,2.051,0,0,0,1.4-2.46Z"/><path class="b" d="M415.789,184.633a26.583,26.583,0,0,0-1.411,9.9c.195,2.879.4,5.758.538,8.641q.585,12.048,1.638,24.065a2.053,2.053,0,0,0,2,2,2.015,2.015,0,0,0,2-2c-.693-7.9-1.253-15.817-1.622-23.74-.136-2.9-.331-5.806-.535-8.706a23.794,23.794,0,0,1,1.25-9.1c.794-2.455-3.067-3.507-3.858-1.064Z"/><path class="b" d="M391.55,131.075c-3.938,1.642-7.88,3.275-11.8,4.973-1.985.861-3.963,1.737-5.925,2.65-1.69.785-3.428,1.451-5.116,2.233-3.931,1.823-5.616,6.159-6.991,9.97-1.352,3.746-2.478,7.562-3.573,11.389-1.28,4.474-2.644,8.911-4.3,13.262a2.015,2.015,0,0,0,1.4,2.46,2.045,2.045,0,0,0,2.461-1.4c2.709-7.115,4.461-14.508,6.858-21.723,1.068-3.214,2.132-8.016,5.195-10a41.423,41.423,0,0,1,4.8-2.138c1.783-.849,3.584-1.663,5.392-2.46,4.195-1.85,8.432-3.6,12.664-5.367a2.067,2.067,0,0,0,1.4-2.46,2.012,2.012,0,0,0-2.46-1.4Z"/><path class="b" d="M434.7,126.856c-2.269,9.637-5.661,18.963-8.915,28.3-3.416,9.8-6.672,19.65-9.991,29.479-.826,2.445,3.036,3.494,3.857,1.064,3.319-9.83,6.576-19.683,9.991-29.479,3.255-9.336,6.646-18.662,8.915-28.3.589-2.5-3.267-3.572-3.857-1.063Z"/><path class="b" d="M435.614,129.114a28.069,28.069,0,0,1,5.014,4.067,29.139,29.139,0,0,1,2.283,2.52q.433.548.82,1.13c.118.179.234.36.345.543.13.218.3.82.272.251l.273-1.009-.152.226.718-.717c-1.493.977-3.15,1.762-4.712,2.623a2.017,2.017,0,0,0-.405,3.142c.905.82,1.808,1.643,2.692,2.485.443.423.883.849,1.316,1.283q.323.323.641.652.58.37.208.326v-1.063c-.208,1.348-1.409,2.894-2.065,4.1q-1.158,2.135-2.339,4.257-2.4,4.324-4.871,8.61-4.893,8.508-9.949,16.918c-1.324,2.215,2.133,4.229,3.454,2.019,4.326-7.238,8.612-14.5,12.758-21.846q3.07-5.437,6.017-10.943a5.65,5.65,0,0,0,.924-2.584,3.89,3.89,0,0,0-1.308-2.624c-1.461-1.557-3.069-2.987-4.65-4.42l-.4,3.141,3.251-1.793c.993-.548,2.2-1.047,2.532-2.252.471-1.71-1.243-3.631-2.2-4.862a32.662,32.662,0,0,0-8.44-7.634c-2.2-1.356-4.208,2.1-2.019,3.453Z"/><path class="b" d="M397.52,127.919a224.758,224.758,0,0,0,6.771,22.157c2.476,7.129,4.844,14.306,7.5,21.371,1.436,3.822,2.954,7.612,4.48,11.4a2.062,2.062,0,0,0,2.46,1.4,2.013,2.013,0,0,0,1.4-2.46c-5.6-13.9-10.632-28.079-15.2-42.354-1.328-4.149-2.551-8.332-3.549-12.573-.59-2.5-4.447-1.445-3.857,1.063Z"/><path class="b" d="M398.439,125.661A32.667,32.667,0,0,0,390,133.295c-.958,1.227-2.672,3.159-2.2,4.862.332,1.2,1.538,1.7,2.531,2.252l3.252,1.793-.4-3.141a66.072,66.072,0,0,0-4.807,4.584,3.44,3.44,0,0,0-1.079,2.991,9.7,9.7,0,0,0,1.225,2.747c1.96,3.642,4,7.241,6.08,10.815,4.354,7.48,8.891,14.851,13.456,22.2,1.355,2.183,4.817.177,3.454-2.019-3.6-5.79-7.172-11.593-10.657-17.45q-2.57-4.315-5.058-8.677-1.2-2.115-2.379-4.245-.626-1.132-1.24-2.271a7.478,7.478,0,0,1-1.024-2.166v1.063q-.372.045.208-.326c.213-.219.426-.437.642-.652.433-.434.872-.86,1.316-1.283.884-.842,1.787-1.665,2.692-2.485a2.017,2.017,0,0,0-.405-3.142c-1.563-.862-3.219-1.646-4.712-2.623l.717.717-.152-.226.273,1.009c-.02.466.019.138.194-.117.12-.174.22-.363.335-.54.249-.385.513-.764.8-1.126a28.364,28.364,0,0,1,2.4-2.661,28.034,28.034,0,0,1,5.014-4.067c2.187-1.349.18-4.81-2.019-3.453Z"/><path class="b" d="M429.017,142.88a57.968,57.968,0,0,0,6.938-10.134q.708-1.34,1.35-2.711a3.477,3.477,0,0,0,.571-1.99,5.2,5.2,0,0,0-.689-1.6,16.883,16.883,0,0,0-3.338-4.431,2.038,2.038,0,0,0-3.141.405c.217-.287-.263.307-.309.359-.141.161-.286.318-.433.472-.375.392-.769.766-1.176,1.126a24.915,24.915,0,0,1-2.8,2.124,36.626,36.626,0,0,1-3.687,2.135,41.679,41.679,0,0,0-3.824,1.775c-1.6,1.033-1.378,2.775-.268,4.06.541.626,1.174,1.178,1.747,1.775,2.094,2.182,4.278,4.331,6.233,6.64a2.017,2.017,0,0,0,2.828,0,2.042,2.042,0,0,0,0-2.829c-1.581-1.867-3.363-3.551-5.026-5.343-.7-.757-1.4-1.511-2.136-2.239-.206-.2-.41-.412-.617-.615a1.519,1.519,0,0,1-.2-.217l.234.3a1.98,1.98,0,0,1-.266-.417l.273,1.01.022-.235-.586,1.414c-.264.276.347-.15.488-.213.456-.2.921-.384,1.377-.586q1.024-.454,2.022-.969a35.9,35.9,0,0,0,3.881-2.312,23.972,23.972,0,0,0,5.679-5.195l-3.141.4a15.611,15.611,0,0,1,3.164,4.482V127.3a56.605,56.605,0,0,1-8,12.75,2.056,2.056,0,0,0,0,2.829A2.017,2.017,0,0,0,429.017,142.88Z"/><path class="b" d="M410,140.051a56.566,56.566,0,0,1-8-12.75v2.019a15.6,15.6,0,0,1,3.163-4.482l-3.141-.4a23.993,23.993,0,0,0,5.679,5.195,36.093,36.093,0,0,0,3.881,2.312q1,.514,2.022.969c.457.2.922.384,1.378.586.14.063.751.489.488.213l-.586-1.414.021.235.274-1.01a1.489,1.489,0,0,1-.194.317c-.148.2-.1.135.162-.2a1.579,1.579,0,0,1-.2.217c-.186.178-.365.364-.547.545-.757.751-1.482,1.528-2.206,2.309-1.664,1.792-3.446,3.476-5.027,5.343a2.054,2.054,0,0,0,0,2.829,2.016,2.016,0,0,0,2.828,0c1.956-2.309,4.139-4.458,6.234-6.64,1.448-1.509,4.36-3.978,1.478-5.835a41.556,41.556,0,0,0-3.824-1.775,36.421,36.421,0,0,1-3.686-2.135,24.836,24.836,0,0,1-2.8-2.124c-.406-.36-.8-.734-1.176-1.126-.147-.154-.292-.311-.433-.472-.046-.052-.526-.646-.309-.359a2.038,2.038,0,0,0-3.141-.405,16.674,16.674,0,0,0-3.275,4.313,7.517,7.517,0,0,0-.716,1.457,3,3,0,0,0,.468,2.115q.676,1.441,1.417,2.852a58.078,58.078,0,0,0,6.938,10.134,2.016,2.016,0,0,0,2.828,0A2.044,2.044,0,0,0,410,140.051Z"/><path class="b" d="M459.666,227.242c-.025-10.687-1.247-21.595.655-32.183,1.921-10.695,3.524-21.449,4.915-32.226q1.078-8.362,1.928-16.753a2.014,2.014,0,0,0-2-2,2.043,2.043,0,0,0-2,2c-1.023,10.3-2.356,20.57-3.893,30.8q-1.208,8.042-2.617,16.049a93.761,93.761,0,0,0-1.306,16.831c.016,5.829.3,11.649.318,17.477.006,2.573,4.006,2.578,4,0Z"/><path class="b" d="M368.366,147.061c1.029,10.327,2.376,20.624,3.927,30.886q1.226,8.108,2.656,16.184a90.756,90.756,0,0,1,1.137,16.343c-.017,5.592-.3,11.177-.316,16.768,0,2.574,4,2.577,4,0,.024-10.359,1.118-20.871-.444-31.167-.82-5.414-1.875-10.795-2.718-16.207q-1.247-8.01-2.3-16.049-1.091-8.365-1.941-16.758a2.056,2.056,0,0,0-2-2,2.014,2.014,0,0,0-2,2Z"/><path class="b" d="M443.045,134.577c7.378,3.077,14.686,6.284,21.974,9.562A9.8,9.8,0,0,1,470.734,151c.534,1.833.95,3.7,1.337,5.571,2.715,13.107,4.152,26.515,5.523,39.816q1.581,15.327,2.677,30.7c.185,2.552,4.186,2.572,4,0-1.277-17.591-2.905-35.172-5.265-52.652-.818-6.055-1.707-12.111-2.91-18.1-1.034-5.152-2.069-11.094-6.65-14.335a34.027,34.027,0,0,0-5.457-2.633c-2.081-.973-4.159-1.948-6.261-2.875-4.512-1.989-9.069-3.873-13.619-5.77a2.011,2.011,0,0,0-2.46,1.4,2.051,2.051,0,0,0,1.4,2.46Z"/><path class="b" d="M426.372,190.521a3.581,3.581,0,0,1,.426.453l-.313-.405a3.04,3.04,0,0,1,.345.584l-.2-.478a2.876,2.876,0,0,1,.195.7l-.071-.531a3.125,3.125,0,0,1,0,.785l.071-.531a3.4,3.4,0,0,1-.227.828l.2-.477a2.825,2.825,0,0,1-.332.586l.313-.405a2.516,2.516,0,0,1-.437.432l.4-.312a2.95,2.95,0,0,1-.62.354l.477-.2a3.464,3.464,0,0,1-.807.217l.532-.071a3.72,3.72,0,0,1-.943,0l.531.071a3.234,3.234,0,0,1-.773-.206l.478.2a2.526,2.526,0,0,1-.527-.3l.4.313a3.145,3.145,0,0,1-.513-.512l.313.405a2.676,2.676,0,0,1-.343-.587l.2.478a2.529,2.529,0,0,1-.149-.555l.071.532a2.707,2.707,0,0,1,0-.673l-.072.532a3.337,3.337,0,0,1,.231-.82l-.2.477a4.271,4.271,0,0,1,.533-.893l-.313.405a2.589,2.589,0,0,1,.413-.424l-.405.313a2.759,2.759,0,0,1,.568-.332l-.478.2a3.32,3.32,0,0,1,.831-.225l-.532.072a3.3,3.3,0,0,1,.819,0l-.531-.072a2.97,2.97,0,0,1,.674.18l-.478-.2a2.551,2.551,0,0,1,.551.321l-.405-.313c.03.025.061.05.09.076a2.131,2.131,0,0,0,1.414.585,2,2,0,0,0,2-2,1.979,1.979,0,0,0-.586-1.414,4.863,4.863,0,0,0-1.631-.953,4.6,4.6,0,0,0-1.449-.236,4.94,4.94,0,0,0-2.722.744,5.245,5.245,0,0,0-2.22,5.346,4.641,4.641,0,0,0,1.935,2.711,5.1,5.1,0,0,0,7.046-1.636,5.32,5.32,0,0,0,.476-1.257,4.851,4.851,0,0,0,.129-1.456,5.25,5.25,0,0,0-.53-1.928,4.51,4.51,0,0,0-1.034-1.335,2.1,2.1,0,0,0-1.414-.586,2.036,2.036,0,0,0-1.414.586,2,2,0,0,0,0,2.829Z"/><path class="b" d="M361.057,183.52c-3.468-7.681-6.656-15.476-9.836-23.279a2.044,2.044,0,0,0-2.938-1.2c-6.609,3.154-13.381,6.8-20.578,8.409a2.021,2.021,0,0,0-1.4,2.461c1.979,6.339,3.917,12.695,6.195,18.936,2.014,5.515,4.132,11.25,7.149,16.312,2.612,4.381,6.382,7.817,11.607,8.44,5.394.643,10.951-1.665,14.867-5.29a105.305,105.305,0,0,0,10.667-11.94,2.062,2.062,0,0,0,0-2.828,2.012,2.012,0,0,0-2.828,0,132.094,132.094,0,0,1-8.823,10.13c-3.271,3.355-7.154,5.961-12.019,6.03-4.521.065-7.7-2.72-9.926-6.411a86.1,86.1,0,0,1-6.5-14.6c-2.425-6.529-4.453-13.193-6.527-19.839l-1.4,2.46a61.252,61.252,0,0,0,10.735-3.818c3.643-1.569,7.219-3.286,10.8-4.994l-2.938-1.2c3.31,8.124,6.629,16.239,10.239,24.235a2.015,2.015,0,0,0,2.736.718,2.049,2.049,0,0,0,.718-2.737Z"/></svg>