<?xml version="1.0" encoding="utf-8"?>
<!-- Uploaded to: SVG Repo, www.svgrepo.com, Generator: SVG Repo Mixer Tools -->
<svg width="800px" height="800px" viewBox="-57.53 0 307.781 307.781" xmlns="http://www.w3.org/2000/svg"><defs><style>.a{fill:#b5886a;}.b{fill:#211715;}.c{fill:#ffffff;}.d{fill:#f4b467;}.e{fill:#f6928f;}</style></defs><path class="a" d="M62.751,162.78a30.22,30.22,0,0,0,9.1-2.883,69.188,69.188,0,0,0,1.079-11.359,46.3,46.3,0,0,1-13.768-11.523,51.6,51.6,0,0,1-9.4-17.513q-.338-.238-.659-.495a15.511,15.511,0,0,1-1.908-1.856l-.032,0c-.1-.015-.2-.04-.3-.058a26.082,26.082,0,0,0-2.5,8.408,42.619,42.619,0,0,0-.289,5.756c.077,4.57,1.234,9.246,1.456,13.816.212,4.551-.974,9.035-5.312,10.5-.174.058-.213.617-.2.762a2.023,2.023,0,0,0,.347.974,6.656,6.656,0,0,0,2.227,1.947,29.63,29.63,0,0,0,15.337,3.908A33.676,33.676,0,0,0,62.751,162.78Z"/><path class="b" d="M44.886,115.665c-3.012,5.976-3.688,12.8-2.952,19.389.4,3.569,1.163,7.131,1.21,10.732.026,2.08-.212,4.478-1.614,6.125-.852,1-2.128,1.1-3.018,1.96-1.26,1.215-1.056,3.265-.23,4.644,1.457,2.436,4.614,3.775,7.136,4.785a34.556,34.556,0,0,0,19.242,1.574c6.217-1.207,12.678-4.258,16.342-9.608,1.75-2.555-2.408-4.959-4.144-2.423-3.472,5.069-10.772,7.384-16.637,7.822a30.672,30.672,0,0,1-10.807-1.059,23.249,23.249,0,0,1-4.28-1.671,14.763,14.763,0,0,1-1.965-1.155c-.163-.121-.468-.539-.663-.59-.281-.073.019-.241-.088.139l-.618,1.059.107-.123-1.059.617c7.4-2.686,7.5-10.713,6.626-17.332-1-7.559-2.017-15.372,1.557-22.462,1.387-2.752-2.753-5.185-4.145-2.423Z"/><path class="c" d="M141.52,174.055c-.5-.205-16.867-7.588-17.192-7.705-4.911-1.773-4.717-4.931-5.336-8.463a72.868,72.868,0,0,1-.949-7.726c13.751-4.65,25.034-23.44,26.932-28.592.274-.831.83-2.393,1.327-4.248.666-.117,1.041-.175,1.041-.175a13.021,13.021,0,0,0,6.06-2.731,19.659,19.659,0,0,0,5.083-6.671A30.931,30.931,0,0,0,161.64,91.35a10.323,10.323,0,0,0-1.081-4.152,7.3,7.3,0,0,0-5.248-3.489,7.732,7.732,0,0,0-6.186,1.809s4.433-42.882-53.015-42.882c-23.26,0-35.895,7.951-42.743,17.006a41.759,41.759,0,0,0-7.989,25.876,7.732,7.732,0,0,0-6.186-1.809A7.3,7.3,0,0,0,33.944,87.2a10.323,10.323,0,0,0-1.081,4.152,30.931,30.931,0,0,0,3.154,16.394,19.659,19.659,0,0,0,5.083,6.671,13.021,13.021,0,0,0,6.06,2.731s.745.115,1.975.3a52.591,52.591,0,0,0,10.024,19.568,46.341,46.341,0,0,0,13.717,11.5,71.193,71.193,0,0,1-1.038,9.376c-.619,3.532-.425,6.69-5.336,8.463-.325.117-14.443,6.816-16.961,7.705,0,0,10.693,22.812,47.582,22.812C133.123,196.867,141.52,174.055,141.52,174.055Z"/><path class="b" d="M115.645,150.163c.184,2.65.515,5.288.958,7.906a34.685,34.685,0,0,0,.836,4.545,8.464,8.464,0,0,0,2.761,4.176,11.106,11.106,0,0,0,2.771,1.593c.237.1.518.179.749.3-.9-.46-.534-.229-.306-.127,4.1,1.852,8.216,3.681,12.322,5.527,1.71.769,3.411,1.564,5.141,2.288a2.414,2.414,0,0,0,2.952-1.677,2.462,2.462,0,0,0-1.676-2.952c1.239.518-.32-.154-.617-.287l-2.507-1.126-6.836-3.073q-2.82-1.267-5.642-2.529c-1.708-.758-3.5-1.36-4.269-2.826,0,0-.168-.362-.081-.158s-.117-.35-.133-.4a11.513,11.513,0,0,1-.3-1.212c-.143-.731-.236-1.47-.351-2.205-.405-2.585-.794-5.145-.975-7.758a2.457,2.457,0,0,0-2.4-2.4,2.421,2.421,0,0,0-2.4,2.4Z"/><path class="b" d="M70.525,146.908a90.339,90.339,0,0,1-1.305,12.3,7.49,7.49,0,0,1-1.014,3.269,7.617,7.617,0,0,1-2.954,1.818c-3.643,1.607-7.218,3.374-10.839,5.03-1.177.538-2.355,1.074-3.539,1.6-.272.12-.544.238-.817.356l-.249.108c-.421.183.3-.124.044-.018-.315.128-.629.259-.95.375a2.462,2.462,0,0,0-1.676,2.952,2.421,2.421,0,0,0,2.953,1.676c4.511-1.623,8.851-3.9,13.191-5.926q1.446-.675,2.891-1.35a6.5,6.5,0,0,0,1.413-.654c-.1.085-1.117.465-.147.078.219-.087.436-.18.652-.273a10.618,10.618,0,0,0,1.4-.7,8.758,8.758,0,0,0,2.073-1.728,9.409,9.409,0,0,0,2-4.264,80.944,80.944,0,0,0,1.665-14.642c.063-3.09-4.737-3.09-4.8,0Z"/><path class="a" d="M157.282,51.4c-.2-1.141-.4-2.2-.589-3.145C151.317,21.894,124.765.969,96.921,2.5,69.077.969,42.526,21.894,37.15,48.256c-1.457,7.109-1.283,19.274.042,24.95l2.665,10.442a7.678,7.678,0,0,1,5.521,1.87c11-7.633,29.671-20.894,39.336-29.206-.8,4.934-3.62,13.326-.062,12.463,14.858-3.44,29.1-10.379,37.709-21.2,1.814,6.391,4.813,15.025,7.017,18.8,3.118,5.339,12.153,17.353,19.747,19.148a7.732,7.732,0,0,1,6.186-1.809,7.488,7.488,0,0,1,.964.21C160.144,74.958,158.841,60.486,157.282,51.4Z"/><path class="b" d="M39.476,72.794a47.776,47.776,0,0,1-.932-9.363A83.293,83.293,0,0,1,38.953,52.2a48.345,48.345,0,0,1,6.712-19.211A58.728,58.728,0,0,1,78.328,7.256,52.937,52.937,0,0,1,88.662,5.092a110.239,110.239,0,0,1,11.147-.273,53.839,53.839,0,0,1,20.918,4.333,58.6,58.6,0,0,1,30.06,28.766,62.012,62.012,0,0,1,4.868,18.726c.886,7.17,1.378,14.781-.2,21.889A27.6,27.6,0,0,1,154,83.193a2.412,2.412,0,0,0,1.676,2.952,2.462,2.462,0,0,0,2.952-1.676c2.93-7.023,2.895-15.254,2.337-22.718-.528-7.048-1.5-14.325-3.875-21.011A62.324,62.324,0,0,0,127.511,7.093,61.04,61.04,0,0,0,105.358.31a107.167,107.167,0,0,0-11.5-.291,57.609,57.609,0,0,0-11.816,1.3A63.616,63.616,0,0,0,44.407,26.177a56.117,56.117,0,0,0-9.352,20.416,70.92,70.92,0,0,0-.943,22.723,41.23,41.23,0,0,0,.736,4.754c.683,3.011,5.312,1.736,4.628-1.276Z"/><path class="b" d="M120.267,48.986c1.079,3.69,2.278,7.351,3.641,10.947a49.186,49.186,0,0,0,3.842,8.39A62.373,62.373,0,0,0,139.584,82.6c2.586,2.256,5.524,4.384,8.9,5.231,3,.751,4.276-3.877,1.276-4.629-5.12-1.283-9.533-6.311-12.883-10.369a48.22,48.22,0,0,1-7.994-13.268c-1.515-3.886-2.82-7.856-3.991-11.857-.865-2.959-5.5-1.7-4.628,1.276Z"/><path class="b" d="M120.813,45.686a53.315,53.315,0,0,1-18.185,14.231,77.653,77.653,0,0,1-11.478,4.6q-2.94.928-5.936,1.659c-.266.065-.535.122-.8.192l-.2.047q-.369.072-.062.033c.036-.083-.035-.03.147.009a1.526,1.526,0,0,1,.639.255c.126.093.687.8.413.5a1.35,1.35,0,0,1-.076-.354c.042.229.029.3.028.027-.01-3.2,1.169-6.586,1.725-9.929a2.422,2.422,0,0,0-4.011-2.336c-9.686,8.309-20.2,15.7-30.611,23.059q-4.107,2.905-8.24,5.772a2.464,2.464,0,0,0-.861,3.284,2.422,2.422,0,0,0,3.284.861C57.465,80.044,68.27,72.365,78.724,64.24c2.6-2.024,5.183-4.083,7.687-6.23L82.4,55.674c-.587,3.529-1.786,7.033-1.9,10.629-.049,1.6.3,3.452,1.764,4.372,1.682,1.058,3.663.281,5.418-.172A79.119,79.119,0,0,0,113.2,59.24a51.73,51.73,0,0,0,11.011-10.16,2.475,2.475,0,0,0,0-3.394,2.417,2.417,0,0,0-3.394,0Z"/><path class="b" d="M150.822,87.216a5.219,5.219,0,0,1,7.487.894c.956,1.4.987,3.374,1.031,5.009a27.326,27.326,0,0,1-.377,5.539c-1.2,6.736-4.756,14.877-12.258,16.174a2.419,2.419,0,0,0-1.676,2.952,2.455,2.455,0,0,0,2.952,1.677c7.8-1.349,12.45-8.617,14.658-15.641A32.783,32.783,0,0,0,164.1,92.234c-.222-3.918-1.358-7.654-4.973-9.7a10.243,10.243,0,0,0-11.7,1.283,2.422,2.422,0,0,0,0,3.395,2.451,2.451,0,0,0,3.394,0Z"/><path class="b" d="M144.863,111.391a25.953,25.953,0,0,1-1.236,6.56c-.24.806-.5,1.6-.772,2.4-.077.23-.156.458-.235.687-.16.469-.093.235-.03.094a51.554,51.554,0,0,1-3.412,6.269A61.629,61.629,0,0,1,125.425,143.3a26.117,26.117,0,0,1-10.181,5.157c-3.009.693-1.736,5.322,1.276,4.629,7.741-1.782,14.224-7.351,19.332-13.19a66.248,66.248,0,0,0,10.733-16,34.034,34.034,0,0,0,3.078-12.5c.1-3.089-4.7-3.086-4.8,0Z"/><path class="b" d="M47.075,83.821a10.2,10.2,0,0,0-10.3-1.929c-3.783,1.491-5.725,4.671-6.212,8.6a31.8,31.8,0,0,0,5.552,22.047,16.683,16.683,0,0,0,10.412,6.918,2.47,2.47,0,0,0,2.952-1.677,2.42,2.42,0,0,0-1.676-2.952c-7.5-1.3-11.065-9.438-12.258-16.174a27.617,27.617,0,0,1-.377-5.539c.043-1.65.086-3.585,1.031-5.009a5.217,5.217,0,0,1,7.487-.894,2.464,2.464,0,0,0,3.394,0,2.422,2.422,0,0,0,0-3.395Z"/><path class="b" d="M45.157,110.668c2.812,16.219,11.593,32.107,26.6,39.965A36.319,36.319,0,0,0,84.952,154.6a2.416,2.416,0,0,0,2.4-2.4,2.454,2.454,0,0,0-2.4-2.4c-15.5-1.61-27.557-15.534-32.4-29.5a69.355,69.355,0,0,1-2.762-10.91,2.419,2.419,0,0,0-2.952-1.676,2.455,2.455,0,0,0-1.676,2.952Z"/><path class="d" d="M39.885,305.369c.169-9.315.372-19.45.579-29.22,15.2-11.893,23.784-43.551,27.488-54.313,2.228-6.473,7.422-23.665,11.567-36.791A84.017,84.017,0,0,0,94.5,186.5c16.222.04,38.3-6.491,45.956-12.981,5.752.677,22.855,10.572,32.456,21.193,10.584,11.709,10.416,27.632,11.385,37.221,2.242,22.2,4.219,50.055,6.033,73.445"/><path class="b" d="M151.644,227.505c.066,1.647-.046,3.318-.075,4.965q-.108,6.123-.2,12.246-.267,18.729-.244,37.46.032,11.6.261,23.2c.067,3.084,4.867,3.1,4.8,0-.513-23.921-.256-47.858.16-71.779.035-2.021.176-4.073.095-6.094-.125-3.078-4.926-3.094-4.8,0Z"/><path class="b" d="M139.855,175.839c3.07.418,5.491,1.762,8.187,3.172a95.23,95.23,0,0,1,11.767,7.359,74.717,74.717,0,0,1,10.92,9.517,35.222,35.222,0,0,1,7.386,12.421c2.8,8.027,3.062,16.452,3.9,24.823,1.112,11.154,2.044,22.326,2.933,33.5,1.026,12.914,1.98,25.834,2.981,38.75a2.46,2.46,0,0,0,2.4,2.4,2.419,2.419,0,0,0,2.4-2.4c-1.815-23.418-3.433-46.857-5.715-70.236-.855-8.754-1.084-17.717-3.643-26.194a42.152,42.152,0,0,0-6.947-13.75,61.9,61.9,0,0,0-10.937-10.518,101.186,101.186,0,0,0-13.893-9.216c-3.189-1.737-6.8-3.759-10.459-4.256a2.482,2.482,0,0,0-2.952,1.676,2.416,2.416,0,0,0,1.676,2.952Z"/><path class="b" d="M47.256,175.6a77.252,77.252,0,0,0,17.166,7.994,101.1,101.1,0,0,0,21.887,4.851c13.386,1.432,27.136-.847,39.825-5.172,5.6-1.91,11.421-4.212,16.01-8.048a2.418,2.418,0,0,0,0-3.394,2.452,2.452,0,0,0-3.394,0c-.17.142-.34.284-.516.42.376-.291-.25.176-.263.184-.411.286-.823.569-1.246.837-1.025.648-2.088,1.237-3.168,1.786a63.286,63.286,0,0,1-7.336,3.109,107.484,107.484,0,0,1-18.164,4.72,84.879,84.879,0,0,1-39.772-3.077,74.994,74.994,0,0,1-18.606-8.354c-2.6-1.688-5.007,2.466-2.423,4.144Z"/><path class="b" d="M38.015,278.409q-.28,13.479-.53,26.96c-.055,3.09,4.745,3.09,4.8,0q.245-13.481.53-26.96c.065-3.09-4.735-3.09-4.8,0Z"/><path class="e" d="M98.973,117.707c-11.326,0-16.037,1.185-18.815-4.889-1.747-3.821-.993-13.689,5.613-12.07,3.857.946,6.814-3.138,12.007-3.138,5.03,0,6.85,2.751,11.028,2,5.778-1.037,8.362,6.232,7.648,10.54C115.343,116.855,110.647,117.707,98.973,117.707Z"/><path class="b" d="M99.227,88.2c0,1.129.132,2.254.135,3.382a2.479,2.479,0,0,0,.7,1.7,2.669,2.669,0,0,0,1.7.7,2.424,2.424,0,0,0,1.7-.7,2.5,2.5,0,0,0,.7-1.7c0-1.128-.132-2.253-.135-3.382a2.473,2.473,0,0,0-.7-1.7,1.794,1.794,0,0,0-.772-.5,1.815,1.815,0,0,0-.925-.207,2.429,2.429,0,0,0-1.7.7,2.5,2.5,0,0,0-.7,1.7Z"/><path class="b" d="M91.334,88.123c0,1.12.045,2.24.046,3.36a2.48,2.48,0,0,0,.7,1.7,2.663,2.663,0,0,0,1.7.7,2.421,2.421,0,0,0,1.7-.7,2.489,2.489,0,0,0,.7-1.7c0-1.12-.045-2.24-.046-3.36a2.473,2.473,0,0,0-.7-1.7,2.672,2.672,0,0,0-1.7-.7,2.427,2.427,0,0,0-1.7.7,2.494,2.494,0,0,0-.7,1.7Z"/><path class="b" d="M96.658,103.683a47.055,47.055,0,0,1,1.1,5.045l-.086-.638a3,3,0,0,1,.019.7l.086-.638a1.665,1.665,0,0,1-.077.313l.242-.573a1.318,1.318,0,0,1-.11.2l.375-.486a1.053,1.053,0,0,1-.165.162l.486-.375a3.179,3.179,0,0,1-.4.211l.574-.241a2.927,2.927,0,0,1-.674.2l.638-.086a2.62,2.62,0,0,1-.632,0l.638.086c-.238-.033-.472-.091-.711-.123a2.644,2.644,0,0,0-1.849.242,2.4,2.4,0,0,0-.861,3.283,2.3,2.3,0,0,0,1.434,1.1c.526.071,1.037.2,1.571.229a4.989,4.989,0,0,0,2.3-.543,3.267,3.267,0,0,0,1.825-2.161,5.49,5.49,0,0,0-.024-2.349c-.275-1.625-.65-3.236-1.068-4.83a2.4,2.4,0,0,0-4.629,1.276Z"/><path class="b" d="M80.826,90.987c-3.343.231-6.661.757-10,1.038a2.4,2.4,0,1,0,0,4.8c3.339-.281,6.657-.807,10-1.038a2.4,2.4,0,0,0,0-4.8Z"/><path class="b" d="M114.086,95.787c3.343.231,6.661.757,10,1.038a2.41,2.41,0,0,0,2.4-2.4,2.462,2.462,0,0,0-2.4-2.4c-3.339-.281-6.657-.807-10-1.038a2.412,2.412,0,0,0-2.4,2.4,2.457,2.457,0,0,0,2.4,2.4Z"/><path class="c" d="M54.014,165.348c.774-2.257.52-6.38,2.073-8.455.789-1.055,1.884-1.619,2.712-2.613.78-.937,4.987-12.358,6.025-14.987,2.483-6.287,4.981-14.97,6.061-18.182,1.787-3.922,4.879-4.953,9.474-6.65,2.305-.852,7.629-1.347,12.1-1.824,2.249-.24,8.321-.416,11.01.352l.512-2.167a17.954,17.954,0,0,0,6.233-1.477c2.613-.847,7.181-2.051,9.831-2.694,2.872-.7,5.4.659,5.676,3.354.307,3.053-1.3,4.352-3.771,5.252-1.481.539-2.871.71-5.295,1.518l-5.04,1.817c2.411,2.058,4.621,4.2,6.545,5.886,3.68,3.233,3.592,9.007-2.227,8.363a11.6,11.6,0,0,1-6.885-3.414l-.762-.722.8,1.812c.59,1.331,1.864,4.842.24,6.42-1.341,1.3-4.817,1.04-6.023-.174-.5-.5-1.292-1.255-2.23-2.095l-2.752,6.955c-1.292,3.065-1.631,6.849-3.331,9.713a22.308,22.308,0,0,1-11.615,9.415c-2.928,2.039-5.131,5.556-4.816,8.171"/><path class="b" d="M96.01,140.985c-1.156,2.848-1.42,6.079-2.892,8.792a18.388,18.388,0,0,1-5.922,6.362,21.442,21.442,0,0,1-3.73,2.022,10.564,10.564,0,0,0-3.946,2.8c-1.917,2.115-3.61,5-3.358,7.957a2.462,2.462,0,0,0,2.4,2.4,2.419,2.419,0,0,0,2.4-2.4c-.183-2.148,1.533-4.617,3.316-5.875,1.1-.778,2.638-1.161,3.845-1.843a26.487,26.487,0,0,0,3.86-2.7,21.106,21.106,0,0,0,5.64-7.027c1.379-2.953,1.8-6.212,3.016-9.219a2.417,2.417,0,0,0-1.677-2.952,2.459,2.459,0,0,0-2.952,1.676Z"/><path class="b" d="M107.349,131.124c3.337,3.1,9.762,6.256,13.862,2.642,3.258-2.872,1.715-7.9-.933-10.586-1.71-1.733-3.621-3.33-5.44-4.95a62.447,62.447,0,0,0-6.653-5.284,25.028,25.028,0,0,0-3.507-2.03,10.745,10.745,0,0,0-3.357-.7,44.841,44.841,0,0,0-6.648-.128c-2.283.1-4.558.387-6.827.646a46.961,46.961,0,0,0-7.424,1.191c-4.2,1.187-8.874,3.133-11.149,7.078a26.757,26.757,0,0,0-1.97,5.47c-.742,2.384-1.488,4.765-2.274,7.135-1.226,3.7-2.633,7.328-4.018,10.971-.734,1.931-1.47,3.862-2.227,5.785q-.534,1.357-1.089,2.707c-.046.112-.242.565-.048.117-.076.174-.151.349-.228.523-.123.278-.245.559-.385.829a3.477,3.477,0,0,1-.237.432c-.1.142.519-.409-.22.165-.291.227-.564.492-.846.732a8.5,8.5,0,0,0-2.538,3.432c-.935,2.377-.727,5-1.493,7.411-.936,2.952,3.7,4.215,4.628,1.276.6-1.891.587-3.913,1.018-5.842a4.325,4.325,0,0,1,.944-2.135,24.152,24.152,0,0,0,2.581-2.517c1.353-2.014,2.076-4.653,2.951-6.9,2.706-6.951,5.315-13.917,7.546-21.038.98-3.127,1.413-6.572,4.161-8.371A25.705,25.705,0,0,1,86.4,115.705a79.212,79.212,0,0,1,12.609-.844A9.354,9.354,0,0,1,104.027,116a40.468,40.468,0,0,1,5.87,4.27c1.978,1.687,3.862,3.479,5.794,5.218a10.27,10.27,0,0,1,1.863,1.91c.1.15.187.3.272.462,0,0,.294.677.179.371.066.174.277,1.176.234.771.016.152.014.3.021.454.026.595.044-.3-.008.227a1.92,1.92,0,0,1-.116.4c.174-.476-.048.057-.13.16.343-.429-.223.036.047-.068s-.25.153-.3.177c.4-.176-.737.142-.531.12-2.437.258-4.767-1.162-6.475-2.747-2.262-2.1-5.665,1.288-3.394,3.394Z"/><path class="b" d="M99.875,124.717c.147.1.291.214.438.319.3.218-.162-.129-.179-.14.117.078.226.177.335.265.433.345.858.7,1.278,1.06.922.79,1.823,1.607,2.693,2.456.421.411.835.83,1.235,1.262.173.187.344.376.511.57.087.1.17.2.257.3.394.453-.214-.338.03.031.192.291.359.592.543.885s-.083-.206-.091-.219a2.383,2.383,0,0,1,.166.423q.153.41.281.827c.093.307.176.617.244.93.028.129.05.259.077.388.122.583.047-.3,0,.048a7.891,7.891,0,0,0,.015.868c0,.512.145-.209,0,0-.045.063-.293.558-.079.3.309-.375-.464.4.125-.185l-.236.231c.394-.383.2-.161.022-.071-.3.149.566-.137.025-.016-.144.032-.869.157-.57.142.4-.019-.226,0-.248,0-.192,0-.385,0-.577-.01-.128-.008-.256-.019-.383-.034.623.072.009-.018-.1-.046A6.289,6.289,0,0,1,105,135.1c.59.215.11.014-.017-.047-.354-.168.207.088.123.112-.059.017-.445-.434-.484-.473-.792-.77-1.61-1.514-2.44-2.242q-1.847-1.621-3.809-3.1a15.812,15.812,0,0,0-3.112-1.957,2.463,2.463,0,0,0-3.283.861c-.548,1.036-.369,2.749.861,3.283a15.892,15.892,0,0,1,3.112,1.958c.058.043.583.455.154.116.108.085.216.169.323.255q.486.387.965.785.856.714,1.689,1.453c.864.766,1.685,1.572,2.527,2.36a7.168,7.168,0,0,0,4.658,1.733,6.464,6.464,0,0,0,4.759-1.559c1.474-1.426,1.634-3.532,1.355-5.441a13.444,13.444,0,0,0-1.261-3.974,12.565,12.565,0,0,0-2.233-2.869,44.279,44.279,0,0,0-6.59-5.778,2.411,2.411,0,0,0-3.283.861,2.463,2.463,0,0,0,.861,3.284Z"/><path class="b" d="M86.128,135.082c.133-.8.22-1.6.3-2.407.014-.134.028-.269.044-.4.076-.669-.073.4,0-.025.044-.259.087-.517.148-.773.041-.167.087-.333.14-.5.079-.24.253-.394-.058.095a5.945,5.945,0,0,0,.45-.784q-.364.46-.121.173l.094-.1c.065-.068.132-.133.2-.2q.285-.243-.145.1a3.668,3.668,0,0,0,.39-.26c.082-.05.166-.1.251-.141q-.555.219-.292.121c.136-.027.28-.08.414-.118.425-.121-.589.018-.14.02.151,0,.3-.009.453,0,.252.011.606.173-.037-.026.614.19,1.246.281,1.857.5.16.058.318.119.477.182.143.057.592.288-.04-.021.291.142.6.26.892.393.662.3,1.324.6,2,.865a2.407,2.407,0,0,0,2.952-1.676,2.47,2.47,0,0,0-1.676-2.952c-.55-.218.459.206.068.032-.148-.067-.3-.132-.445-.2-.284-.128-.566-.257-.85-.383-.8-.357-1.613-.712-2.446-.991a7.349,7.349,0,0,0-5.212-.066,6.688,6.688,0,0,0-3.686,4.221,13.2,13.2,0,0,0-.434,2.442c-.039.338-.071.676-.107,1.014-.02.181-.053.364-.062.546.042-.788.018-.149-.014.042a2.608,2.608,0,0,0,.242,1.85,2.4,2.4,0,0,0,4.386-.574Z"/><path class="b" d="M103.979,113.222a18.851,18.851,0,0,0,4.7-.791c1.166-.386,2.307-.825,3.485-1.178,1.569-.471,3.15-.9,4.734-1.322a39.037,39.037,0,0,1,4.059-1.034,2.546,2.546,0,0,1,1.565.154c-.391-.153.6.418.255.138a3.665,3.665,0,0,1,.352.353q-.187-.228.056.133.21.379.062.149c.048.291.073.351.077.181a6.756,6.756,0,0,1,.034.922,1.341,1.341,0,0,1-.129.659c.117-.348-.2.361-.281.461.273-.345-.174.126-.242.185.287-.249-.413.256-.5.306a6.654,6.654,0,0,1-1.625.648c-1.512.456-3.054.784-4.557,1.275-2.923.955-1.672,5.592,1.276,4.628,2.589-.845,5.551-1.171,7.851-2.728a6.92,6.92,0,0,0,2.686-7.939,6.593,6.593,0,0,0-7.175-4.289,55.069,55.069,0,0,0-8.737,2.188c-2.651.765-5.16,1.916-7.937,2.1a2.457,2.457,0,0,0-2.4,2.4,2.42,2.42,0,0,0,2.4,2.4Z"/><path class="b" d="M102.3,120.572a25.688,25.688,0,0,0-3.236-1.709,9.51,9.51,0,0,0-1.017-.4,8.047,8.047,0,0,0-1.533-.248,18.532,18.532,0,0,0-2.134.019,2.4,2.4,0,0,0,0,4.8,16.026,16.026,0,0,1,2.36.006l-.638-.086a5.617,5.617,0,0,1,1.4.412l-.574-.242a24.35,24.35,0,0,1,2.95,1.589,2.4,2.4,0,0,0,2.422-4.145Z"/><path class="b" d="M107.269,140.978a15.058,15.058,0,0,0-3.964,3.62,20.379,20.379,0,0,1-1.605,1.744c-.151.14-.308.271-.463.406-.317.275.5-.364.161-.122-.085.06-.168.121-.254.179a6.894,6.894,0,0,1-1.111.611l.573-.241a7.541,7.541,0,0,1-.845.295,2.4,2.4,0,0,0,1.276,4.628,10.966,10.966,0,0,0,5.225-3.6c.577-.665,1.128-1.354,1.733-1.994a11.536,11.536,0,0,1,.975-.927c.146-.122.471-.319-.161.117.086-.06.168-.125.254-.185.2-.141.413-.27.629-.392a2.4,2.4,0,1,0-2.423-4.144Z"/><path class="d" d="M61.345,241.4c3-8.081,5.171-15.391,6.607-19.562,3.42-9.937,13.83-45.135,16.7-52.107-2.172-1.04-30.228-12.429-31.769-13.141-6.12,8.941-13.937,23.55-18.713,32.475-2.028-.8-3.814-1.5-3.814-1.5-6.793,4.262-12.367,11.318-17.216,20.092-3.4,6.157-6.586,15.013-8.987,26.461a95.4,95.4,0,0,0-1.793,18.715c.328,16.132,8.177,28.554,26.224,27.9C44.208,280.465,54.774,259.084,61.345,241.4Z"/><path class="b" d="M19.2,219.969c5.084-8.423,10.124-16.892,14.816-25.541,4.167-7.683,8.227-15.421,12.571-23.006,2.648-4.624,5.368-9.219,8.372-13.623l-3.283.861c3.647,1.667,7.427,3.085,11.137,4.606q8.2,3.362,16.4,6.739l1.706.71.741.31.273.115c.421.177-.5-.211-.068-.028.53.226,1.064.443,1.584.69l-1.1-2.711c-2.216,5.41-3.817,11.116-5.57,16.686-2.473,7.862-4.886,15.742-7.342,23.609-3.594,11.511-7.16,23.13-11.538,34.368a111.185,111.185,0,0,1-10.053,20.353,44.664,44.664,0,0,1-6.452,8.043,26.369,26.369,0,0,1-3.447,2.892c-.625.431-1.269.834-1.933,1.2-.326.181-.656.355-.991.519-.133.065-.268.127-.4.191s-.269.123-.4.182c.2-.083.222-.093.064-.028a18.826,18.826,0,0,1-1.971.672q-.528.147-1.063.261c-.214.046-.43.084-.645.125-.11.021-.751.107-.233.043a28.9,28.9,0,0,1-6.019.024,20.883,20.883,0,0,1-10.741-3.9A20.329,20.329,0,0,1,7.3,266a34.671,34.671,0,0,1-2.47-11.52c-.615-11.528,1.86-23.319,5.513-34.193,3.234-9.629,8.338-19.1,15.677-26.224a34.523,34.523,0,0,1,5.558-4.422c2.6-1.652.2-5.808-2.423-4.145-9.188,5.836-15.932,15.645-20.307,25.456A103.834,103.834,0,0,0,.278,244.9c-.73,9.442-.362,19.846,5.317,27.883,5.357,7.581,14.047,10.658,23.106,10.348,7.068-.242,13.086-4.178,17.722-9.292,5.32-5.869,9.2-12.958,12.454-20.131,5.383-11.85,9.25-24.373,13.2-36.758,4.66-14.605,8.785-29.414,13.882-43.876.32-.908.646-1.815,1.011-2.706a2.392,2.392,0,0,0-1.1-2.71c-3.771-1.788-7.727-3.253-11.585-4.839q-8.138-3.344-16.278-6.678-1.484-.61-2.967-1.226c-.287-.119-1.279-.558-.417-.172-.173-.078-.349-.148-.522-.226a2.481,2.481,0,0,0-3.283.861C40.431,170.6,32.667,187.485,23.433,203.4q-4.126,7.112-8.376,14.149c-1.6,2.651,2.548,5.067,4.144,2.423Z"/></svg>