<?xml version="1.0" encoding="utf-8"?>
<!-- Uploaded to: SVG Repo, www.svgrepo.com, Generator: SVG Repo Mixer Tools -->
<svg width="800px" height="800px" viewBox="0 -58.51 432.735 432.735" xmlns="http://www.w3.org/2000/svg"><defs><style>.a{fill:#211715;}.b{fill:#d9d9d9;}.c{fill:#ffffff;}.d{fill:#b5886a;}.e{fill:#6dbf6b;}.f{fill:#7a7473;}</style></defs><path class="a" d="M1.932,293.286l30.561,0,44.686,0,48.844-.006,42.914,0,26.991,0H197.6c2.574,0,2.578-4,0-4H173.251l-41.51,0-48.662.006-45.727.006-32.843,0H1.932c-2.574,0-2.578,4,0,4Z"/><path class="a" d="M250.076,201.316q-12.66,0-25.322.052-21.6.059-43.2.126-25.8.078-51.609.154-25.539.073-51.079.136-20.515.048-41.029.071l-3.86,0c-2.574,0-2.578,4,0,4q19.6-.007,39.206-.061,25.185-.056,50.369-.131,26.008-.074,52.017-.154,22.365-.067,44.729-.132,13.982-.039,27.961-.063h1.818c2.574,0,2.578-4,0-4Z"/><path class="a" d="M186.9,268.4c-4.914,0-9.829-.019-14.743-.029l-30.875-.068q-16.969-.036-33.938-.071-12.182-.024-24.362-.043c-1.014,0-2.034.03-3.047,0-1.783-.055-1.817-1.3-1.651-2.841a7.567,7.567,0,0,1,1.3-2.618q4.742-8.189,9.491-16.373,1.052-1.812,2.1-3.624c.317-.546.968-2.181,1.432-2.427a2.2,2.2,0,0,1,.86-.029h105.82c2.574,0,2.578-4,0-4H94.734c-2.384,0-4.415.017-5.865,2.453-3.132,5.261-6.145,10.6-9.216,15.894q-2.1,3.613-4.188,7.229c-.237.409-.487.813-.7,1.237a7.045,7.045,0,0,0-.5,3.292c.02,2.056.617,3.887,2.468,5,1.6.96,3.5.809,5.283.81l4.248.006,12.054.02q16.587.031,33.175.068l33.522.073q10.209.023,20.418.043l1.456,0c2.574,0,2.578-4,0-4Z"/><path class="a" d="M92.182,259.763c3.112-5.389,6.249-10.763,9.361-16.152,1.29-2.233-2.165-4.25-3.454-2.019-3.112,5.389-6.249,10.764-9.361,16.153-1.289,2.233,2.166,4.249,3.454,2.018Z"/><path class="a" d="M102.261,259.365c2.853-4.941,5.729-9.868,8.583-14.809,1.289-2.233-2.166-4.25-3.454-2.019-2.854,4.941-5.73,9.868-8.583,14.81-1.29,2.233,2.165,4.249,3.454,2.018Z"/><path class="a" d="M111.452,259.365c1.323-2.292,2.658-4.579,3.982-6.871a2,2,0,0,0-3.454-2.019c-1.324,2.293-2.658,4.579-3.982,6.872a2,2,0,1,0,3.454,2.018Z"/><path class="a" d="M120.575,259.365c1.324-2.292,2.658-4.579,3.982-6.871a2,2,0,0,0-3.454-2.019c-1.324,2.293-2.658,4.579-3.982,6.872a2,2,0,1,0,3.454,2.018Z"/><path class="a" d="M129.563,259.365c1.324-2.292,2.658-4.579,3.982-6.871a2,2,0,0,0-3.453-2.019c-1.324,2.293-2.659,4.579-3.983,6.872a2,2,0,1,0,3.454,2.018Z"/><path class="a" d="M143.587,243.855H94.274c-2.574,0-2.578,4,0,4h49.313c2.574,0,2.578-4,0-4Z"/><path class="a" d="M157.409,252q-27.684-.051-55.367-.144-6.047-.017-12.093-.029c-2.574,0-2.578,4,0,4q27.6.051,55.208.144,6.126.016,12.252.029c2.574,0,2.578-4,0-4Z"/><path class="a" d="M166.412,265.4h.011v-4c-8.244.032-16.489,0-24.732,0H83.523c-2.574,0-2.578,4,0,4H157.44c2.994,0,5.989.012,8.983,0,2.573-.01,2.578-3.992,0-4h-.011c-2.574,0-2.578,4,0,4Z"/><path class="b" d="M361.517,3.356c0,6.986.262,13.97.265,20.956,0,3.308-.065,6.615-.244,9.918q-.137,2.5-.358,5c-.085.947-.217,1.894-.282,2.841-.03.446.081-.42-.041.27-1.4,7.9-3.612,15.655-5.31,23.494-.8,3.716-1.836,7.641-1.863,11.467-.018,2.574,3.982,2.577,4,0a19.961,19.961,0,0,1,.42-3.813c.323-1.929.714-3.846,1.122-5.759.95-4.458,2.01-8.892,3.058-13.328.819-3.464,1.7-6.93,2.333-10.436a104.944,104.944,0,0,0,1.157-17.529c.067-7.694-.253-15.386-.257-23.08,0-2.574-4-2.579-4,0Z"/><path class="b" d="M335.083,89.106c-1.073-.7-.825-2.695-.817-3.767a20.1,20.1,0,0,1,.322-4.833,3.311,3.311,0,0,1,.481-1.192c.123-.195-.006-.018-.034.018a2.566,2.566,0,0,1,.245-.267c.056-.054.289-.237,0-.023a2.389,2.389,0,0,1,.292-.184c.285-.151-.188.025.242-.108.2-.063.41-.113.619-.156.387-.079.126-.021.039-.011.131-.015.268-.027.4-.033.282-.011.562-.022.845-.023,3.159,0,6.315.24,9.479.224,2.169-.011,4.337-.047,6.5-.073.232,0,.972-.123,1.147.01.035.027-.074-.033-.077-.037a6.827,6.827,0,0,1-.006,1.731c.054,3.415.1,6.831.1,10.247l2-2c-3.479.019-6.971.367-10.444.547-1.926.1-3.853.2-5.781.224-.925.012-1.852.033-2.777.024a7.052,7.052,0,0,1-2.777-.318c-2.315-1.093-4.348,2.355-2.019,3.454,2.121,1,4.5.866,6.794.846,1.974-.018,3.946-.1,5.918-.2,3.688-.185,7.393-.56,11.086-.58a2.03,2.03,0,0,0,2-2c0-3.678-.049-7.356-.113-11.033-.036-2.05-.516-4.026-2.707-4.713a10.222,10.222,0,0,0-3.186-.194c-1.378.017-2.755.037-4.132.05-2.417.023-4.837.037-7.253-.054-1.462-.054-2.933-.213-4.4-.145-3.065.141-5.389,1.619-6.276,4.654a24.147,24.147,0,0,0-.531,7.068c.039,2.493.587,4.863,2.8,6.3C335.23,93.966,337.237,90.5,335.083,89.106Z"/><path class="b" d="M331.534,120.091c2.29-9.279,4.694-18.545,6.682-27.895.534-2.511-3.321-3.584-3.857-1.064-1.988,9.35-4.392,18.616-6.682,27.9-.617,2.5,3.24,3.565,3.857,1.063Z"/><path class="b" d="M354.086,91.017a92.171,92.171,0,0,0,.968,10.911q.8,6.456,1.8,12.886c.723,4.7,1.654,9.354,2.465,14.035a115.837,115.837,0,0,1,1.521,19.824,87.675,87.675,0,0,1-.184,9.849,6.218,6.218,0,0,1-.637,2.37.878.878,0,0,1-.36.352,1.338,1.338,0,0,1-.61.162c-2.547.213-2.57,4.215,0,4,5.142-.429,5.666-5.464,5.756-9.668a152.769,152.769,0,0,0-.594-20.962c-.722-6.16-2.079-12.215-3.074-18.331q-.981-6.031-1.772-12.092a106.762,106.762,0,0,1-1.278-13.336c-.011-2.573-4.011-2.579-4,0Z"/><path class="b" d="M343.993,92.052v24.327c0,2.574,4,2.578,4,0V92.052c0-2.574-4-2.578-4,0Z"/><path class="b" d="M336.474,30.725c.311,5.351.536,10.706,1.139,16.034.621,5.482.917,11.018,1.922,16.452.468,2.527,4.324,1.457,3.857-1.064-.959-5.184-1.21-10.473-1.815-15.7s-.8-10.476-1.1-15.719c-.148-2.558-4.149-2.576-4,0Z"/><path class="b" d="M350.111,47.246c-1.06,5.32-1.148,10.788-1.811,16.162a2.011,2.011,0,0,0,2,2,2.049,2.049,0,0,0,2-2c.623-5.043.706-10.268,1.668-15.1a2.051,2.051,0,0,0-1.4-2.46,2.018,2.018,0,0,0-2.46,1.4Z"/><path class="b" d="M324.3,4.3a45.4,45.4,0,0,0,.31,6.088c.253,2.847.566,5.689.9,8.528.716,6.155,1.19,12.35,1.975,18.493,1.141,8.926,3.113,17.734,4.794,26.567a79.686,79.686,0,0,1,1.753,11.769c.1,2.566,4.1,2.579,4,0a74.743,74.743,0,0,0-1.465-10.523c-.731-4-1.552-7.986-2.336-11.977-.9-4.574-1.74-9.172-2.449-13.779-.923-5.993-1.272-12.087-1.985-18.111-.382-3.229-.756-6.458-1.065-9.695A52.234,52.234,0,0,1,328.3,4.3c.12-2.573-3.88-2.567-4,0Z"/><path class="b" d="M326.3,6.3c1.767-.015,3.526-.17,5.283-.352,1.878-.194,3.816-.293,5.669-.661,1.5-.3,2.9-.988,4.4-1.258,1.2-.216,2.447.743,3.581,1.073a17.519,17.519,0,0,0,4.5.377q2.442.053,4.883.063c2.964.012,5.934,0,8.893-.189,2.557-.16,2.575-4.161,0-4-2.959.184-5.929.2-8.893.189q-2.343-.009-4.685-.059A12.643,12.643,0,0,1,345.565,1a8.579,8.579,0,0,0-3.814-.985,25.74,25.74,0,0,0-4.735,1.223,34.581,34.581,0,0,1-5.432.716c-1.757.182-3.516.337-5.283.352-2.573.022-2.579,4.022,0,4Z"/><path class="b" d="M364.27,152.008q27.6-.051,55.193-.1,5.636-.006,11.27-.008c2.574,0,2.578-4,0-4q-25.175,0-50.349.079l-16.114.031c-2.574,0-2.579,4,0,4Z"/><path class="b" d="M410.865,71.149h-4.486a2.029,2.029,0,0,0-2,2c0,6.219.01,12.439-.008,18.659a2.03,2.03,0,0,0,2,2c1.548,0,3.1.07,4.643.074,2.574.008,2.578-3.992,0-4-1.548,0-3.1-.069-4.643-.074l2,2c.018-6.22.008-12.44.008-18.659l-2,2h4.486c2.573,0,2.578-4,0-4Z"/><path class="b" d="M430.733,12.981q-24.215,0-48.429-.057L364.787,12.9c-2.574,0-2.578,4,0,4q28.866.038,57.734.075,4.105,0,8.212.006c2.574,0,2.578-4,0-4Z"/><path class="b" d="M415.061,22.861q-21.992-.029-43.983-.094-3.4-.007-6.809-.011c-2.574,0-2.578,4,0,4,12.639,0,25.277.057,37.916.083q6.438.014,12.876.022c2.574,0,2.578-4,0-4Z"/><path class="b" d="M430.733,22.866q-3.441,0-6.882,0a2,2,0,0,0,0,4q3.441,0,6.882,0a2,2,0,0,0,0-4Z"/><path class="b" d="M417.376,139.966c0-4.3-.021-8.595-.034-12.893q-.037-13.522-.079-27.046-.046-16.1-.094-32.2-.04-13.965-.078-27.929c-.013-4.882.07-9.774-.031-14.655,0-.147,0-.295,0-.442.015-2.575-3.985-2.578-4,0-.023,4.124.013,8.249.023,12.373q.035,13.389.074,26.779.047,16.091.094,32.181.042,14.082.083,28.165.021,7.572.04,15.144c0,.173,0,.347,0,.52,0,2.574,4,2.578,4,0Z"/><path class="b" d="M425.643,149.328c0-4.964-.021-9.927-.033-14.891q-.039-15.777-.079-31.554-.048-18.873-.1-37.745-.039-16.311-.077-32.623c-.013-5.678.07-11.365-.031-17.043,0-.155,0-.31,0-.464.014-2.575-3.986-2.578-4,0-.028,4.789.012,9.58.023,14.37q.033,15.644.073,31.288.046,18.864.094,37.729.042,16.43.083,32.858.021,8.768.041,17.534v.541c0,2.574,4,2.578,4,0Z"/><path class="b" d="M424.006,141.945c2.242,0,4.485-.012,6.727-.012a2,2,0,0,0,0-4c-2.242,0-4.485.008-6.727.012a2,2,0,0,0,0,4Z"/><path class="b" d="M363.707,142.086q25.835-.059,51.669-.141c2.573,0,2.578-4,0-4q-25.834.051-51.669.141c-2.574.006-2.579,4.006,0,4Z"/><path class="b" d="M387.322,30.262c-.162,5.59.815,11.007,4.316,15.533a21.468,21.468,0,0,0,17.431,8.432c2.572-.033,2.579-4.034,0-4a17.46,17.46,0,0,1-14.457-7.086c-2.826-3.82-3.423-8.269-3.29-12.879.075-2.575-3.926-2.573-4,0Z"/><path class="b" d="M395.314,61.563c-.958,2.649-2.068,5.246-3.123,7.857a2,2,0,0,0,.2,1.541,2,2,0,0,0,2.736.718,2.335,2.335,0,0,0,.919-1.2c1.055-2.611,2.166-5.209,3.123-7.858a2.011,2.011,0,0,0-1.4-2.46,2.051,2.051,0,0,0-2.46,1.4Z"/><path class="b" d="M387.726,53.6c-1.5,1.657-3.061,3.268-4.54,4.947a2.118,2.118,0,0,0-.586,1.415,2.036,2.036,0,0,0,.586,1.414,2.014,2.014,0,0,0,1.414.586,1.993,1.993,0,0,0,1.414-.586c1.48-1.68,3.036-3.29,4.541-4.947a2.105,2.105,0,0,0,.585-1.414,2.04,2.04,0,0,0-.585-1.415,2,2,0,0,0-2.829,0Z"/><path class="b" d="M382.35,44.229c-1.321.495-2.613,1.062-3.911,1.611l.477-.2c-.487.206-.975.408-1.469.6a2.167,2.167,0,0,0-1.195.919,2,2,0,0,0,.718,2.737,1.959,1.959,0,0,0,1.541.2c1.091-.415,2.159-.89,3.235-1.344l-.478.2c.71-.3,1.423-.592,2.145-.863a2.156,2.156,0,0,0,1.195-.919,2,2,0,0,0-.717-2.737,1.964,1.964,0,0,0-1.541-.2Z"/><path class="b" d="M380.666,34.352c-1.5-.08-3,.06-4.508-.013a2.014,2.014,0,0,0-2,2,2.044,2.044,0,0,0,2,2c1.5.073,3-.067,4.508.013a2,2,0,0,0,2-2,2.045,2.045,0,0,0-2-2Z"/><path class="b" d="M362.9,102.165c2.143-.133,5.024,1.314,3.143,3.708a2.032,2.032,0,0,0,.882,3.343,3.719,3.719,0,0,1,2.691,2.325,3.608,3.608,0,0,1-1.212,3.321,2.018,2.018,0,0,0,.882,3.342c2.138.477,5.555,2.748,3.423,5.13a2.022,2.022,0,0,0,0,2.829c1.162.934,2.812,1.668,3.451,3.088.562,1.248,1.028,3.3-.306,4.213-2.112,1.445-.114,4.912,2.018,3.454,2.686-1.837,3.28-4.819,2.441-7.851a8.071,8.071,0,0,0-2.011-3.645c-.827-.814-1.866-1.365-2.764-2.088v2.829a6.192,6.192,0,0,0,1.032-7.411,9.568,9.568,0,0,0-6.22-4.405l.882,3.343a7.655,7.655,0,0,0,2.241-7.212,7.816,7.816,0,0,0-5.485-5.119l.883,3.343c1.7-2.165,2.506-4.93.893-7.413a7.569,7.569,0,0,0-6.864-3.124c-2.557.159-2.575,4.16,0,4Z"/><path class="c" d="M261.179,182.9c-4.106-1.546-6.728-5.676-2.594-9.315a38.635,38.635,0,0,0,5.734-6.25c2.756-3.515,2.759-6.443,3.482-10.661a29.051,29.051,0,0,1,3.861-10.61,15.77,15.77,0,0,1,1.877-2.35,10.821,10.821,0,0,1,5.571.179c2.778.963,4.154,4.436,4.154,4.436,3.1,8.57,10.866,20.46,21.114,27.818l.188,1c5.128-.426,8.873,3.606,6.7,10.007a12.606,12.606,0,0,1-2.318,4c.051,2.483-.174,9.333,3.708,13.53,2.478,2.68,9.083,4.984,13.138,5.8l.25.05c-.081.823-.137,1.586-.154,2.232-.074,2.8,1.676,10.173,4.051,14.072v3.183a15.279,15.279,0,0,0-2.12-.885c-9.191-2.432-24.366-1.757-33.287-1.622a41.594,41.594,0,0,0-9.7,1.2l-.159-2.763c-.134-2.336-.21-8.032-1.737-9.77,0,0-.2-.225-.449-.516-3.512.1-13.965-2.558-16.723-4.561a17.191,17.191,0,0,1-4.373-5.087c-1.839-3.266-2.87-13.545-.368-22.661"/><path class="d" d="M312.242,204.211a25.747,25.747,0,0,1-4.695-10.154s-.088-.462-.215-1.133a15.279,15.279,0,0,0,3.934-5.767c1.994-5.873-.994-9.751-5.463-10.024-7.031-4.651-12.989-11.507-17.211-18.191a31.463,31.463,0,0,1-6.458-1.452c-5.106-2.317-9.228-9.714-8.529-15.583,1.559-2.18,2.774-4.611,4.577-6.66A31.486,31.486,0,0,1,296.1,124.831c17.29-2.869,41.824,6.083,44.694,21.241l2.637,6.5c6.1,3.222,8.128,21.36-.207,36.283,5.162.681,9.717,2.48,12.74,6.2,3.78,4.659,3.951,11.1,1.754,16.364-3.345,8.021-9.267,19.363-3.92,26.046-4.09,3.58-12.83-.073-15.747-1.73-3.708-2.107-5.951-5.364-8.111-8.907-2.375-3.9-4.125-11.273-4.051-14.072.017-.646.073-1.41.154-2.231l-.25-.051c-4.055-.811-10.66-3.115-13.138-5.8Q312.448,204.461,312.242,204.211Z"/><path class="a" d="M233.935,264.534c-4.811.006-9.826.131-14.362,1.916-4.867,1.916-8.293,5.471-11.655,9.348-1.771,2.043-3.575,4.278-4.344,6.92a8.26,8.26,0,0,0,.978,6.671c2.278,3.9,5.837,7.075,9.048,10.2,7.959,7.735,17.937,14.81,29.266,16a26.367,26.367,0,0,0,16.521-3.8c2.535-1.563,4.353-4.2,6.1-6.54,2.655-3.56,5.107-7.276,7.487-11.025,1.65-2.6,3.367-5.209,4.775-7.951,1.174-2.287-2.277-4.313-3.454-2.019a139.21,139.21,0,0,1-9.608,15.268,61.857,61.857,0,0,1-5.679,7.4c-.348.37-.714.711-1.088,1.054-.185.17.325-.168-.132.095-.648.374-1.273.779-1.935,1.129a21.886,21.886,0,0,1-7.42,2.368c-10.223,1.3-20.112-4.536-27.642-10.857a102.375,102.375,0,0,1-9.63-9.266,18.531,18.531,0,0,1-3.625-4.951c-.771-1.829.127-3.653,1.14-5.2a44.943,44.943,0,0,1,5.279-6.252,20.531,20.531,0,0,1,5.869-4.364c4.341-2.1,9.393-2.131,14.109-2.137,2.574,0,2.578-4,0-4Z"/><path class="a" d="M231.962,259.956a5.258,5.258,0,0,1-.713-2.325c-.1-1.156-.091-2.318-.1-3.477-.011-2.118.005-4.537-1.256-6.348-1.579-2.269-4.784-2.563-7.228-1.653a5.3,5.3,0,0,0-1.932,1.264c-.195.2-.365.417-.544.628-.107.126-.555.586-.445.527.283-.152-.1-.052-.12-.035.181-.137.329.531.141,0a18.293,18.293,0,0,0-1.047-1.931c-1.2-2.349-3.921-4.969-6.607-5.458-2.988-.545-6.358.88-9.088,1.968-5.753,2.295-13,6.231-14.141,12.975a17.417,17.417,0,0,0,12.034,19.135c2.47.743,3.526-3.116,1.063-3.857a13.423,13.423,0,0,1-9.285-13.844c.611-5.591,7.045-8.857,11.693-10.67,1.305-.509,2.636-.95,3.982-1.335a14.36,14.36,0,0,1,1.836-.45,5.472,5.472,0,0,1,.714-.045,1.466,1.466,0,0,1,.445.044,6.476,6.476,0,0,1,2.539,1.786,4.5,4.5,0,0,1,1.1,1.275c.33.6.6,1.225.934,1.819a4.464,4.464,0,0,0,3.165,2.531,3.959,3.959,0,0,0,3.691-1.349c.762-.839,1.059-1.32,2.253-1.423a2.45,2.45,0,0,1,1.121.057c.371.107-.138-.091.185.071.268.134-.1-.162.182.142.2.217-.171-.268,0-.023a2.528,2.528,0,0,1,.173.286c.2.389.009-.071.1.249.071.242.131.484.183.731a1.58,1.58,0,0,1,.057.37c.116,1.12.094,2.252.1,3.376.011,2.357.047,4.948,1.354,7,1.377,2.166,4.841.162,3.454-2.019Z"/><path class="a" d="M239.362,275.561c3.433-5.468,8.8-9.432,12.646-14.594,4.189-5.621,7.4-11.983,11.755-17.482,6.943-8.766,19.046-13.756,30.064-13.969,5.553-.107,11.11-.259,16.663-.169,3.08.05,6.162.172,9.23.459A36.883,36.883,0,0,1,327.4,231.1c3.877,1.234,7.236,4.621,9.865,7.7a69.587,69.587,0,0,1,8.457,12.9,85.33,85.33,0,0,1,6.265,15.058c1.688,5.614,2.207,11.509,2.812,17.317a2.058,2.058,0,0,0,2,2,2.014,2.014,0,0,0,2-2c-.6-5.71-1.059-11.574-2.593-17.128a85.345,85.345,0,0,0-5.373-13.959,81.682,81.682,0,0,0-8.426-14.12c-2.951-3.9-6.359-7.7-10.657-10.149-4.668-2.656-10.571-2.9-15.814-3.189-6.1-.331-12.219-.205-18.326-.079-5.943.122-11.654.574-17.331,2.489a45.23,45.23,0,0,0-15.961,9.135,44.242,44.242,0,0,0-6.822,8.439c-2.339,3.484-4.627,7-6.943,10.5A62.522,62.522,0,0,1,243.118,265a53.762,53.762,0,0,0-7.21,8.539c-1.372,2.187,2.087,4.2,3.454,2.019Z"/><path class="a" d="M269.54,166.176c-1.052,1.5-1.961,5.442,1.085,6.788,4.173,1.323,5.9-3.239,5.2-5.872C275.257,164.936,272.122,163.1,269.54,166.176Z"/><path class="a" d="M261.711,180.974a5.416,5.416,0,0,1-3.006-2.539c-.56-1.286.2-2.405,1.13-3.281a46.913,46.913,0,0,0,6.824-7.646c1.952-2.873,2.405-6.153,2.939-9.5a28.107,28.107,0,0,1,3.791-10.933c2.148-3.329,5.727-5.428,7.85-8.817,1.37-2.188-2.089-4.2-3.454-2.019-2.037,3.252-5.474,5.328-7.642,8.5a30.043,30.043,0,0,0-4.4,12.2,42.921,42.921,0,0,1-.98,5.284,13.671,13.671,0,0,1-2.632,4.681,39.615,39.615,0,0,1-3.487,3.915c-1.486,1.431-3.092,2.674-3.8,4.695-1.513,4.335,2.113,7.842,5.8,9.31a2.012,2.012,0,0,0,2.46-1.4,2.047,2.047,0,0,0-1.4-2.46Z"/><path class="a" d="M259.093,182.823a46.929,46.929,0,0,0-1.536,13.471,27.048,27.048,0,0,0,1.771,10.038,15.231,15.231,0,0,0,6.7,7.226,43.09,43.09,0,0,0,8.634,2.886c2.828.689,5.979,1.519,8.9,1.1a2.012,2.012,0,0,0,1.4-2.46,2.052,2.052,0,0,0-2.46-1.4c.434-.062.149-.019-.093-.023-.2,0-.406,0-.61-.011-.364-.017-1.049-.083-1.207-.1-1.286-.165-2.563-.432-3.827-.718a48.463,48.463,0,0,1-8.028-2.414,12.17,12.17,0,0,1-5.659-5.49,12.65,12.65,0,0,1-.941-3.08,30.969,30.969,0,0,1-.537-4.584,43.2,43.2,0,0,1,1.354-13.377c.667-2.489-3.19-3.551-3.857-1.063Z"/><path class="a" d="M260.008,194.253a9.2,9.2,0,0,0,3.182,1.351,12.814,12.814,0,0,0,3.53.314,2,2,0,0,0,0-4,11.3,11.3,0,0,1-2.088-.078l.532.071a9.554,9.554,0,0,1-2.385-.636l.478.2a7.011,7.011,0,0,1-1.23-.678,2,2,0,0,0-2.938,2.259,2.245,2.245,0,0,0,.919,1.195Z"/><path class="a" d="M272.477,140.9a7.5,7.5,0,0,0-1.385,1.018c-.444.379-.863.786-1.272,1.2a34.467,34.467,0,0,0-2.769,3.2,8.218,8.218,0,0,0-.833,1.24,2.12,2.12,0,0,0-.2,1.541,2,2,0,0,0,3.655.477,8.489,8.489,0,0,1,.872-1.29l-.313.405c.627-.808,1.3-1.58,2-2.323a18.785,18.785,0,0,1,2.051-1.928l-.4.313a4.028,4.028,0,0,1,.614-.406,2.015,2.015,0,0,0,.718-2.736,2.047,2.047,0,0,0-2.737-.718Z"/><path class="a" d="M281.521,217.593c.2.241-.279-.443-.12-.153.034.061.077.118.112.179.084.141.137.311.227.447-.269-.409-.13-.318-.055-.111.03.081.058.163.085.245q.095.286.169.577c.111.422.2.85.271,1.279.039.227.069.455.106.682.041.254-.056-.46-.013-.089.014.127.03.255.044.382.182,1.635.232,3.277.325,4.918a2,2,0,0,0,4,0c-.1-1.769-.152-3.54-.369-5.3-.255-2.057-.568-4.25-1.954-5.884a2.008,2.008,0,0,0-2.828,0,2.051,2.051,0,0,0,0,2.828Z"/><path class="a" d="M301.368,180.143a9.462,9.462,0,0,1,3.312-1.006,6.253,6.253,0,0,1,2.7.356,3.793,3.793,0,0,1,1.861,1.582,4.91,4.91,0,0,1,.65,2.72c-.052,3.016-1.8,5.482-3.825,7.561a33.306,33.306,0,0,1-3.368,3.149,28.533,28.533,0,0,1-3.53,2.218c-2.242,1.264-.228,4.721,2.019,3.454a31.486,31.486,0,0,0,6.788-5.07c2.265-2.236,4.339-4.629,5.314-7.719a10.655,10.655,0,0,0-.3-7.771,8.014,8.014,0,0,0-5.07-4.148,11.934,11.934,0,0,0-8.577,1.22c-2.3,1.162-.275,4.614,2.019,3.454Z"/><path class="a" d="M305.619,194.589a26.224,26.224,0,0,0,2.538,6.941,16.348,16.348,0,0,0,4.13,5.5,24.767,24.767,0,0,0,6.446,3.429,40.051,40.051,0,0,0,6.529,1.945,2.049,2.049,0,0,0,2.46-1.4,2.019,2.019,0,0,0-1.4-2.46c-3.9-.8-8.225-2.1-11.441-4.527.195.147-.262-.221-.255-.214-.148-.13-.292-.264-.43-.4a9.47,9.47,0,0,1-.74-.859,20.515,20.515,0,0,1-1.848-3.036,22.36,22.36,0,0,1-2.135-5.985,2.019,2.019,0,0,0-2.461-1.4,2.041,2.041,0,0,0-1.4,2.46Z"/><path class="a" d="M281.336,148.863a63.679,63.679,0,0,0,22.033,29.014,2.014,2.014,0,0,0,2.736-.717,2.046,2.046,0,0,0-.717-2.737A62.212,62.212,0,0,1,285.193,147.8c-.877-2.4-4.744-1.362-3.857,1.063Z"/><path class="a" d="M271.523,142.954a18.635,18.635,0,0,0,2.729,9.588,16.483,16.483,0,0,0,6.872,6.675,2.059,2.059,0,0,0,2.737-.718,2.016,2.016,0,0,0-.718-2.736,11.057,11.057,0,0,1-1.654-.948s-.493-.363-.23-.158c-.106-.083-.208-.168-.311-.254-.259-.219-.51-.448-.754-.684a13.653,13.653,0,0,1-2.488-3.2,14.736,14.736,0,0,1-1.623-3.69,16.592,16.592,0,0,1-.468-2.066c-.021-.143-.021-.137,0,.017l-.023-.206c-.014-.17-.032-.341-.043-.511-.025-.371-.031-.742-.026-1.113a2,2,0,0,0-4,0Z"/><path class="a" d="M342.815,190.8c3.637.46,7.463,1.579,10.234,4.088a12.8,12.8,0,0,1,4.085,10.034c-.112,3.833-1.9,7.218-3.362,10.675a52.506,52.506,0,0,0-3.723,11.168c-.71,4.014-.565,8.359,2.023,11.714l.313-2.424c-1.962,1.625-5.279.909-7.486.31a21.96,21.96,0,0,1-7.363-3.34,23.981,23.981,0,0,1-6.387-8.128,33.17,33.17,0,0,1-2.943-9.161c-.635-3.376-.041-6.781.513-10.134a2.062,2.062,0,0,0-1.4-2.461,2.017,2.017,0,0,0-2.46,1.4c-.605,3.664-1.265,7.382-.712,11.085a37.853,37.853,0,0,0,3.258,10.72,27.66,27.66,0,0,0,7.434,9.621,25.382,25.382,0,0,0,8.836,4.214c3.862,1.074,8.267,1.413,11.536-1.294a2,2,0,0,0,.312-2.424c-2.23-2.892-2.136-6.474-1.364-9.891a66.221,66.221,0,0,1,4.173-11.537c1.653-3.821,3.077-7.577,2.763-11.828a16.536,16.536,0,0,0-5.356-11.264c-3.617-3.2-8.226-4.546-12.927-5.14a2.01,2.01,0,0,0-2,2,2.051,2.051,0,0,0,2,2Z"/><path class="a" d="M342.423,154.3a5.137,5.137,0,0,1,1.522,1.368,11.383,11.383,0,0,1,1.407,2.729,25.905,25.905,0,0,1,1.39,7.911,41.971,41.971,0,0,1-4.808,20.738c-1.193,2.278,2.258,4.3,3.454,2.019a45.911,45.911,0,0,0,5.324-23.442c-.263-5-1.387-12.082-6.27-14.777-2.256-1.245-4.276,2.208-2.019,3.454Z"/><path class="a" d="M273.659,145.024c2.2-2.462,3.565-5.5,5.659-8.037a30.611,30.611,0,0,1,7.263-6.316,29.713,29.713,0,0,1,16.046-4.372c9.865-.052,20.543,2.785,28.452,8.851,3.764,2.886,6.85,6.72,7.788,11.453.5,2.523,4.355,1.455,3.857-1.063-2.04-10.3-12.218-16.688-21.387-19.988-10.728-3.862-23.857-5.07-34.29.252a35.1,35.1,0,0,0-9.19,6.849,30.584,30.584,0,0,0-3.772,4.85,35.1,35.1,0,0,1-3.255,4.692c-1.713,1.912,1.107,4.751,2.829,2.829Z"/><path class="a" d="M367.114,312.48l3.177-13.848c.5-2.183,1.041-4.36,1.5-6.551.4-1.928.529-3.854-.563-5.588-2.25-3.573-6.414-3.732-10.182-3.961q-7.053-.43-14.111-.735-14.238-.615-28.492-.721-7.187-.053-14.373.023a111.094,111.094,0,0,0-13.11.413,12.258,12.258,0,0,0-5.96,2.206,11.372,11.372,0,0,0-3.647,5.27,36.239,36.239,0,0,0-1.488,6.33c-.472,2.642-.868,5.3-1.219,7.957a2.009,2.009,0,0,0,2,2,2.052,2.052,0,0,0,2-2,89.047,89.047,0,0,1,2.051-11.61,9.5,9.5,0,0,1,2.051-4.178,7.3,7.3,0,0,1,4.163-1.952,34.094,34.094,0,0,1,5.23-.312q3.22-.066,6.442-.107,6.567-.081,13.134-.055,13.011.053,26.017.529,6.441.236,12.877.576,3.217.17,6.435.366c1.658.1,3.53-.02,5.074.693a2.827,2.827,0,0,1,1.923,3.236c-.339,2.225-1,4.436-1.5,6.63l-3.287,14.325c-.574,2.506,3.281,3.576,3.857,1.064Z"/><path class="c" d="M39.88,60.162c.052,27.8.236,90.453.293,116.773a11.293,11.293,0,0,0,11.25,11.272c36.158.14,148.214-.086,185.217-.15a11.288,11.288,0,0,0,11.275-11.3c-.013-26.958-.056-91.109-.071-116.6a11.288,11.288,0,0,0-11.292-11.285c-38.362,0-148.76-.027-185.376-.033A11.3,11.3,0,0,0,39.88,60.162Z"/><path class="c" d="M40.94,181.013a11.288,11.288,0,0,1-.767-4.078c-.008-3.394-.017-7.393-.028-11.843,44.448-.059,166.163-.271,207.77-.392,0,4.527,0,8.6,0,12.061a11.288,11.288,0,0,1-11.275,11.3c-37,.064-149.059.29-185.217.15A11.3,11.3,0,0,1,40.94,181.013Z"/><path class="c" d="M165.38,190.537c.209,2.2.335,3.877.411,5.4.128,2.6.362,5.3.588,7.905.528,6.084,2.1,9.519,8.463,10.729,1.836.349,2.9,1.094,3.432,2.253s.617,4.768-1.187,4.768c-3.348,0-60.74-.013-66.18-.013-1.762,0-1.922-3.595-1.386-4.755s1.6-1.9,3.432-2.253c6.36-1.21,7.934-4.645,8.462-10.729.227-2.609.461-5.307.589-7.905.076-1.52.2-3.2.411-5.4"/><path class="b" d="M148.672,176.481a4.862,4.862,0,0,1-5.135,4.946c-3.476.015-5.279-2.352-5.289-4.9a5,5,0,0,1,5.044-5.089A5.273,5.273,0,0,1,148.672,176.481Z"/><path class="c" d="M124.877,213.07h37.952"/><path class="a" d="M37.88,60.162q.03,16.458.076,32.916.052,20.117.106,40.232.048,17.823.092,35.646c.013,5.206-.789,11.11,2.43,15.58a13.385,13.385,0,0,0,8.082,5.371,32.24,32.24,0,0,0,6.359.312q13.05.039,26.1.033,16.9,0,33.8-.013,18.7-.015,37.4-.042,18.236-.025,36.47-.056l31.135-.054,12.193-.022c1.841,0,3.734.113,5.568-.058a13.4,13.4,0,0,0,8.792-4.326,13.661,13.661,0,0,0,3.436-9.13c.01-2.2,0-4.405,0-6.608l-.009-16.124-.024-38.723-.024-37.364-.009-14.641c0-2.748.052-5.429-1.031-8.019a13.24,13.24,0,0,0-6.63-6.937c-4.134-1.878-9.1-1.26-13.542-1.26l-13.353,0-32.866-.006L145.05,46.86l-37.434-.007L74.57,46.847l-13.487,0H55.341A43.8,43.8,0,0,0,49.277,47a13.421,13.421,0,0,0-11.4,13.165c-.034,2.575,3.966,2.577,4,0a9.447,9.447,0,0,1,3.673-7.446c2.093-1.589,4.444-1.873,6.98-1.872H63.6l29.311.006,35.466.006,37.127.007,34.774.006,28.261.005h5.583c2.352,0,4.644-.079,6.785,1.08a9.424,9.424,0,0,1,4.849,6.839,43.153,43.153,0,0,1,.092,6.333l.021,32.839.024,38.793q.011,16.9.02,33.808c0,2.178.07,4.369,0,6.546a9.312,9.312,0,0,1-3.937,7.259c-3.458,2.4-8.184,1.69-12.192,1.7q-13.557.024-27.116.048l-34.135.057q-18.357.027-36.715.049-17.656.019-35.315.027-14.9.006-29.8-.008-5.793-.007-11.587-.022a26.784,26.784,0,0,1-5.552-.2,9.441,9.441,0,0,1-6.536-5.185c-1.069-2.274-.857-4.774-.863-7.215q-.008-3.515-.016-7.03-.021-8.349-.043-16.7-.051-19.415-.1-38.829-.048-18.486-.094-36.973-.015-6.962-.029-13.925C41.875,57.589,37.875,57.584,37.88,60.162Z"/><path class="a" d="M40.515,167.293q4.605,0,9.21-.018,8.5-.023,17-.049,11.407-.034,22.814-.074,13.324-.045,26.648-.092,14.253-.051,28.506-.1,14.193-.054,28.386-.11,13.143-.054,26.287-.111,11.106-.048,22.212-.1,8.077-.04,16.157-.09c2.709-.018,5.419-.019,8.127-.071.18,0,.361,0,.541-.014,2.561-.14,2.577-4.14,0-4-1.94.105-3.9.051-5.842.065q-7.18.053-14.361.086-10.45.056-20.9.1-12.734.057-25.466.109-14.026.058-28.052.111-14.329.055-28.66.107l-27.29.1q-11.972.04-23.943.079-9.309.03-18.618.056-5.658.015-11.315.026h-1.44c-2.574,0-2.578,4,0,4Z"/><path class="a" d="M163.38,190.537c.38,4.042.552,8.1.9,12.145.255,2.972.5,6.089,2.019,8.733a10.652,10.652,0,0,0,6.652,4.769c1.1.3,2.831.282,3.473,1.405-.015-.028.162.674.17.774a8.746,8.746,0,0,1-.154,1.574c-.16-.1,1.127-.3.222-.348-.354-.019-.714,0-1.069,0h-3.416l-11.1,0-29.339-.006-20.225,0a1.807,1.807,0,0,0-.447,0c-.017,0-.149-.012-.154,0,.026-.064.514.208.542.2.148-.024-.076.109-.044-.119.025-.184-.151-.833-.155-1.175a2.716,2.716,0,0,1,.121-.9c.657-1.162,2.5-1.125,3.631-1.45a12.154,12.154,0,0,0,3.829-1.786,10.841,10.841,0,0,0,4.046-6.676A74.6,74.6,0,0,0,124,195.934c.1-1.8.242-3.6.411-5.4a2.015,2.015,0,0,0-2-2,2.043,2.043,0,0,0-2,2c-.4,4.2-.577,8.409-.94,12.609-.212,2.459-.444,5.5-2.223,7.32-2.178,2.227-5.573,1.674-7.945,3.521a6.3,6.3,0,0,0-1.25,7.886c1.441,2.417,5.358,1.7,7.775,1.7l11.847,0,30.514.007,12.468,0c2.1,0,4.226.092,6.326,0,3.187-.137,3.9-3.511,3.5-6.125a5.375,5.375,0,0,0-2.2-3.634c-1.417-1.024-3.123-1.136-4.741-1.64a6.353,6.353,0,0,1-4.531-4.608,23.4,23.4,0,0,1-.7-4.436c-.2-2.325-.393-4.652-.517-6.983-.1-1.879-.246-3.753-.422-5.626a2.054,2.054,0,0,0-2-2,2.014,2.014,0,0,0-2,2Z"/><path class="a" d="M124.877,215.07h37.952c2.574,0,2.578-4,0-4H124.877c-2.574,0-2.578,4,0,4Z"/><path class="c" d="M163.113,144.921l3.553.012c1.594-.735,7.581-3.471,8.038-4.624a7.2,7.2,0,0,0,.25-4.078c-1.558-6.3-2.948-11.844-5-18a13.521,13.521,0,0,0-2.895-5.542,20.3,20.3,0,0,0-4.273-2.7c-1.213-.623-3.442-1.762-5.129-2.5l-1.081-.947a55.077,55.077,0,0,1-4.144-4.219,69.725,69.725,0,0,1-8.213,3.391l-.5.119-.336-.08a70.651,70.651,0,0,1-8.307-3.43c-1.225,1.312-2.966,3.164-4.077,4.423l-.7,1.082c-1.617.674-3.77,1.711-4.651,2.163a20.32,20.32,0,0,0-4.273,2.7,13.533,13.533,0,0,0-2.895,5.542c-2.049,6.157-3.438,11.7-5,18a7.193,7.193,0,0,0,.25,4.078c.457,1.153,7.375,4.124,8.785,4.476Z"/><path class="e" d="M148.376,110.472c-1.808-2.029-4.061-4.586-4.154-4.756l-.835.039c-.111.206-3.12,3.876-4.847,5.938.722,1,1.675,2.672,2.278,3.555-.052.8-.727,4.407-1.223,7.389l-.039.236,4.833-.034,4.452.031-.079-.4c-.62-3.137-1.257-6.606-1.333-7.333a28.4,28.4,0,0,1,1.889-3.611C149.03,111.205,148.711,110.848,148.376,110.472Z"/><path class="c" d="M122.935,123.472a.906.906,0,0,0-.09.4c.016,4.636-.155,18.957-.046,25.914a1.874,1.874,0,0,0,1.87,1.849c7.23.015,32.2-.017,39.685,0a1.869,1.869,0,0,0,1.875-1.888c-.05-6.437-.3-22.475-.3-25.871a.9.9,0,0,0-.891-.907c-3.107-.01-11.859-.062-20.654-.126-8.794.064-17.546.116-20.653.126A.893.893,0,0,0,122.935,123.472Z"/><path class="a" d="M185.792,139.729h-12.83a2,2,0,0,0,0,4h12.83a2,2,0,0,0,0-4Z"/><path class="a" d="M115.612,139.739h-12.63a2,2,0,0,0,0,4h12.63a2,2,0,0,0,0-4Z"/><path class="a" d="M131.171,105.375a43.294,43.294,0,0,0-8.591,4.01,11.216,11.216,0,0,0-4.329,4.168,33.723,33.723,0,0,0-2.439,6.428c-1.439,4.567-2.639,9.2-3.8,13.849-.553,2.223-1.053,4.413-.333,6.673a4.842,4.842,0,0,0,2.408,2.669,31.462,31.462,0,0,0,7.894,3.542c2.489.666,3.552-3.192,1.063-3.857a28.62,28.62,0,0,1-5.638-2.414c-.473-.247-.943-.5-1.4-.783-.2-.123-.4-.246-.584-.388s.052.047.079.057c-.044-.016-.156-.193-.194-.187.248-.039.26.624.084-.242a5.409,5.409,0,0,1-.1-1.192,12.912,12.912,0,0,1,.574-2.815c1.024-4.113,2.079-8.22,3.309-12.277,1.012-3.337,1.747-7.5,4.909-9.473a37.261,37.261,0,0,1,8.143-3.911c2.444-.775,1.4-4.638-1.064-3.857Z"/><path class="a" d="M156.071,108.983a55.153,55.153,0,0,1,7.6,3.756,7.513,7.513,0,0,1,3.25,3.179,31.91,31.91,0,0,1,1.85,5.126c1.179,3.744,2.2,7.534,3.165,11.338.444,1.753,1.217,3.7,1.2,5.52a5.14,5.14,0,0,1-.1,1c-.06.295-.273.753.061.279-.275.39-.305.3-.729.573a51.611,51.611,0,0,1-6.713,3.454,2.017,2.017,0,0,0-.717,2.737,2.047,2.047,0,0,0,2.736.717,51.8,51.8,0,0,0,6.713-3.454,5.024,5.024,0,0,0,2.364-2.7,11.137,11.137,0,0,0-.217-6.21c-1.079-4.344-2.187-8.681-3.492-12.963-1.175-3.856-2.2-8.364-5.595-10.9a33.021,33.021,0,0,0-4.936-2.82c-1.761-.891-3.535-1.773-5.377-2.484a2.015,2.015,0,0,0-2.46,1.4,2.044,2.044,0,0,0,1.4,2.46Z"/><path class="a" d="M143.919,103.826a28.261,28.261,0,0,1-3.941-1.472l-.293-.123c.151.063.243.1.038.016l-.581-.249q-.589-.255-1.176-.517c-.631-.283-1.26-.57-1.877-.883a2.051,2.051,0,0,0-2.423.313c-1.369,1.465-2.748,2.921-4.077,4.423a2.052,2.052,0,0,0,0,2.828c1.057,1.159,2.195,2.249,3.317,3.344,1,.971,1.973,2,3.053,2.879a2.055,2.055,0,0,0,2.828,0,45.12,45.12,0,0,0,3.244-3.793q.952-1.149,1.893-2.307a13.848,13.848,0,0,0,1.19-1.521,2,2,0,0,0-3.453-2.019c-.025.042-.076.083-.091.127-.058.167.407-.515.091-.119-.219.273-.438.547-.659.819q-.935,1.152-1.883,2.293a44.14,44.14,0,0,1-3.16,3.691h2.828c-1.08-.878-2.058-1.908-3.052-2.879-1.122-1.1-2.261-2.184-3.318-3.343v2.828c1.329-1.5,2.709-2.958,4.077-4.423l-2.424.313c1.528.776,3.118,1.437,4.7,2.1a29,29,0,0,0,4.088,1.533,2,2,0,0,0,1.063-3.857Z"/><path class="a" d="M136.813,112.7c.818,1.147,1.49,2.389,2.278,3.556l-.273-1.01a1.4,1.4,0,0,0-.016.17c.024.411.056-.371.026-.177-.032.212-.062.425-.1.637-.095.6-.2,1.2-.3,1.8-.255,1.477-.517,2.953-.763,4.431a2.051,2.051,0,0,0,1.4,2.461,2.025,2.025,0,0,0,2.46-1.4c.365-2.19.786-4.372,1.118-6.568.064-.422.147-.848.169-1.274a3.165,3.165,0,0,0-.755-1.843c-.587-.939-1.146-1.9-1.789-2.8a2.045,2.045,0,0,0-2.737-.717,2.023,2.023,0,0,0-.717,2.736Z"/><path class="a" d="M150.691,121.939c-.414-2.093-.821-4.189-1.175-6.292-.027-.16-.054-.32-.079-.48-.017-.109-.083-.581-.023-.129.047.357.066-.034-.073.52-.181.721-.07.315.012.135q.138-.3.285-.6a26.237,26.237,0,0,1,1.407-2.557,2.018,2.018,0,0,0-.718-2.736,2.043,2.043,0,0,0-2.736.717,26.426,26.426,0,0,0-1.508,2.766,4.463,4.463,0,0,0-.652,1.879,9.063,9.063,0,0,0,.173,1.218c.358,2.216.795,4.421,1.23,6.623a2.013,2.013,0,0,0,2.46,1.4,2.052,2.052,0,0,0,1.4-2.46Z"/><path class="a" d="M144.754,107.644a28.886,28.886,0,0,0,4.042-1.516c1.563-.654,3.137-1.308,4.648-2.076l-2.423-.313a50.626,50.626,0,0,0,4.144,4.22V105.13c-1.957,2.132-3.905,4.3-5.984,6.315h2.829c-1.19-1.143-2.255-2.441-3.352-3.671q-1.012-1.136-2.014-2.28-.335-.382-.664-.769c-.071-.084-.14-.17-.213-.254-.254-.292.286.406.182.235a2,2,0,0,0-3.454,2.019,11.64,11.64,0,0,0,1.223,1.485q1,1.154,2.023,2.293c1.126,1.263,2.218,2.6,3.44,3.77a2.037,2.037,0,0,0,2.829,0c2.079-2.013,4.027-4.183,5.983-6.314a2.026,2.026,0,0,0,0-2.829,50.617,50.617,0,0,1-4.144-4.219,2.038,2.038,0,0,0-2.423-.313c-.578.293-1.167.563-1.758.829q-.584.263-1.171.516l-.581.25-.293.125c.249-.106.157-.067-.037.014a28.218,28.218,0,0,1-3.9,1.455,2,2,0,0,0,1.064,3.857Z"/><path class="a" d="M121.007,122.94a29.41,29.41,0,0,0-.179,6.106q-.023,3.984-.046,7.969-.021,4.116-.018,8.233c.006,2.284-.572,5.678,1.294,7.367,1.522,1.377,3.8,1.023,5.7,1.023h5.811l15.029-.008q6.615,0,13.231,0c2.141,0,4.634.272,5.875-1.922.988-1.747.5-4.455.479-6.4q-.087-7.518-.189-15.035c-.023-1.826-.046-3.652-.058-5.479a4.468,4.468,0,0,0-.447-2.468c-.855-1.357-2.292-1.362-3.711-1.368-7.455-.034-14.912-.152-22.367-.1q-6.024.042-12.048.077-2.058.012-4.115.022c-1.669.008-2.957.024-4.041,1.5a2.015,2.015,0,0,0,.718,2.736,2.046,2.046,0,0,0,2.736-.718l.194-.264-.718.718c-.294.189-.125.02.179.028.187.005.376,0,.564,0l1.469-.007,3.772-.021q4.909-.029,9.818-.063c6.615-.045,13.229.032,19.843.069l3.216.017,1.355.007a1.724,1.724,0,0,0,.507,0c-1.62.687-.779-1.712-.926-.676a29.769,29.769,0,0,0,.04,4.347q.078,6.756.171,13.51.037,3.032.069,6.062c0,.368-.027.758.011,1.125.008.077-.076.462.026.355.014-.015.2-.124.026-.057a7.322,7.322,0,0,1-2.038,0q-5.718,0-11.435,0-12.371.006-24.742.007a4.783,4.783,0,0,0-1.1,0,1.4,1.4,0,0,1-.3,0c.176.087.135.305.127-.095-.022-1.118-.024-2.237-.029-3.355-.011-2.7,0-5.407.01-8.11s.03-5.416.046-8.124q.011-1.686.018-3.372a12.944,12.944,0,0,1,.023-2.575C125.43,121.5,121.574,120.426,121.007,122.94Z"/><path class="c" d="M159.462,84.53c.042,0,1.293.461,1.575.961a2.827,2.827,0,0,1,.3,1.14,8.5,8.5,0,0,1-.844,4.515,5.4,5.4,0,0,1-1.388,1.843,3.191,3.191,0,0,1-1.81.578l-.256.013a16.582,16.582,0,0,1-3.016,5.609,12.023,12.023,0,0,1-6.819,4.352,18.322,18.322,0,0,1-3.459.369,20.678,20.678,0,0,1-3.19-.325,12.163,12.163,0,0,1-7.136-4.288,16.593,16.593,0,0,1-3.084-5.605,2.2,2.2,0,0,1-2.129-.54,5.418,5.418,0,0,1-1.408-1.828,8.5,8.5,0,0,1-.891-4.506,2.835,2.835,0,0,1,.291-1.144,2.009,2.009,0,0,1,1.439-.968,1.985,1.985,0,0,1,.218-.021s.6-12.372,15.781-12.372C159.047,72.313,159.462,84.53,159.462,84.53Z"/><path class="f" d="M136.267,65.456a14.152,14.152,0,0,0-5.914,3.92c-3.389,3.931-4.181,10.078-3.246,15.042l2.315-.63c3.585-2.693,8.287-6.034,11.088-7.7.172.269,1.305,2.368,1.782,3.257.818-.411,5.408-2.938,7.153-3.69,3.177,1.64,6.642,4.34,8.254,7.856l2.223.611a18.477,18.477,0,0,0-.445-9.925c-1.228-3.366-3.126-4.665-5.489-6.094-2.809-4.121-8.693-4.422-13.137-3.781A22.581,22.581,0,0,0,136.267,65.456Z"/><path class="a" d="M136.262,86.584c-.328,1.066-.114,3.518,1.9,3.727,2.664-.016,2.806-2.98,1.909-4.374A2.108,2.108,0,0,0,136.262,86.584Z"/><path class="a" d="M147.14,86.584c-.327,1.066-.114,3.518,1.9,3.727,2.665-.016,2.807-2.98,1.91-4.374A2.109,2.109,0,0,0,147.14,86.584Z"/><path class="a" d="M129.807,91.763c-.37.107.2.048-.007.026-.063-.006-.394.012-.086.009.383,0-.127,0-.125-.066,0-.029.394.223.127.035-.083-.059-.175-.117-.262-.167-.212-.121.319.284.112.09-.161-.151-.32-.3-.474-.458-.322-.331.141.225-.006.008-.054-.08-.111-.158-.164-.239-.119-.181-.228-.368-.329-.559-.06-.114-.116-.23-.171-.346-.023-.049-.046-.1-.067-.147q-.09-.2.045.105a2.134,2.134,0,0,1-.235-.684q-.1-.347-.177-.7c-.021-.1-.039-.209-.059-.314-.074-.387.009.228,0-.023A11.659,11.659,0,0,1,127.9,86.9c0-.055.021-.4.005-.107-.017.31.036-.1.051-.171.051-.23.028-.073-.032.064.142-.321-.2.166-.056.056.046-.037.269-.239.034-.054-.3.239.111-.072.122-.052l-.238.1.124-.04c.177-.039.17-.044-.019-.016s-.2.022-.037.009a2,2,0,0,0,0-4,4.042,4.042,0,0,0-3.792,3.015,9.507,9.507,0,0,0,.2,4.579c.782,2.822,3.216,6.32,6.606,5.342a2,2,0,0,0-1.063-3.858Z"/><path class="a" d="M155.113,93.048a14.337,14.337,0,0,1-4.184,6.467,10.67,10.67,0,0,1-6.973,2.387,11.352,11.352,0,0,1-7.262-2.2,13.788,13.788,0,0,1-4.427-6.547c-.81-2.43-4.675-1.388-3.857,1.064a17.938,17.938,0,0,0,5.655,8.474,15.328,15.328,0,0,0,9.891,3.2,14.945,14.945,0,0,0,9.361-3.193,18.128,18.128,0,0,0,5.653-8.6c.795-2.455-3.066-3.507-3.857-1.064Z"/><path class="a" d="M159.462,86.53c-.187-.012-.4-.034-.086.011.212.029-.288-.177-.117-.052a1.119,1.119,0,0,1,.112.064c.127.081.078.039-.145-.125a.882.882,0,0,0,.18.176c-.1-.027-.2-.357-.1-.1-.177-.432-.038-.1-.009.006.024.088.024.354.037.1.016-.312.01.116.015.187a9.417,9.417,0,0,1-.02,1.435c-.02.249.019.093.01-.056a1.669,1.669,0,0,1-.073.394c-.048.236-.107.469-.175.7-.061.206-.133.408-.206.61-.172.48.119-.218-.016.043-.048.093-.089.19-.136.284-.1.193-.2.383-.315.566-.064.1-.137.2-.2.3-.141.225.232-.25.046-.06-.019.018-.453.482-.461.471.018.025.334-.3,0-.022-.178.145.309-.085.079-.025-.119.031-.241.07-.36.1-.335.095.076-.028.08,0,0,.009-.514.037-.561.039a2,2,0,0,0,0,4,5.352,5.352,0,0,0,4.006-1.688,10.069,10.069,0,0,0,2.129-8.378,4.011,4.011,0,0,0-3.715-2.984,2.011,2.011,0,0,0-2,2,2.047,2.047,0,0,0,2,2Z"/><path class="a" d="M148.134,74.061c-2.336,1.083-4.558,2.39-6.852,3.556l2.737.717c-.584-1.087-1.139-2.2-1.782-3.256a2.032,2.032,0,0,0-2.737-.717,130.994,130.994,0,0,0-11.088,7.7A2.063,2.063,0,0,0,127.7,84.8a2.014,2.014,0,0,0,2.736.717,131.237,131.237,0,0,1,11.088-7.7l-2.736-.717c.643,1.054,1.2,2.169,1.782,3.256a2.039,2.039,0,0,0,2.736.718c2.294-1.166,4.516-2.473,6.852-3.556a2.016,2.016,0,0,0,.718-2.736,2.046,2.046,0,0,0-2.737-.718Z"/><path class="a" d="M149.408,77.911a23.807,23.807,0,0,1,2.129,1.386l.237.176c.246.185.047.048-.076-.06.163.143.341.272.508.412q.5.421.978.876c.3.29.593.59.872.9q.219.243.428.5c.063.076.125.154.187.23.271.334-.273-.377-.024-.028a13.91,13.91,0,0,1,1.325,2.22,2.012,2.012,0,0,0,1.2.919,2,2,0,0,0,2.258-2.938c-1.614-3.474-4.74-6.154-8-8.044a2,2,0,1,0-2.019,3.454Z"/><path class="a" d="M155,66.152c-4.979-5.848-15.27-4.752-21.448-1.69-7.6,3.768-9.774,12.685-8.376,20.487a2.017,2.017,0,0,0,2.46,1.4,2.044,2.044,0,0,0,1.4-2.46c-1.1-6.126.62-13.037,6.538-15.97a20.021,20.021,0,0,1,8.994-1.853c2.84.034,5.7.675,7.607,2.917,1.671,1.963,4.489-.878,2.828-2.828Z"/><path class="a" d="M161.85,84.653a20.715,20.715,0,0,0-.286-10.529,12.918,12.918,0,0,0-5.3-6.952,2,2,0,0,0-2.019,3.454c.214.144.424.291.632.441.1.074.212.17.049.037.1.08.2.161.293.245a9.015,9.015,0,0,1,1.152,1.184c.207.259-.136-.2.057.084.08.116.16.232.236.351.16.249.307.506.444.769a9.3,9.3,0,0,1,.672,1.685,16.566,16.566,0,0,1,.213,8.168,2.047,2.047,0,0,0,1.4,2.46,2.02,2.02,0,0,0,2.46-1.4Z"/></svg>