<?xml version="1.0" encoding="utf-8"?>
<!-- Uploaded to: SVG Repo, www.svgrepo.com, Generator: SVG Repo Mixer Tools -->
<svg width="800px" height="800px" viewBox="-146.19 0 469.938 469.938" xmlns="http://www.w3.org/2000/svg"><defs><style>.a{fill:#ffffff;}.b{fill:#211715;}.c{fill:#7a7473;}.d{fill:#bdbdbd;}.e{fill:#3f88c9;}.f{fill:#79c6e0;}</style></defs><path class="a" d="M81.509,103.389a.6.6,0,0,0-.043.1H77.2c-.089-.29-.4-.443-.672-.568a46.2,46.2,0,0,1-13.334-9.292,23.434,23.434,0,0,0-5.034,7.052c1.385,3.973,3.641,9.715,6.177,16.982,5,14.315,11.844,30.291,15.53,38.249l.949,2.05a339.788,339.788,0,0,0,13.537-37.674c2.54-8.525,4.442-17.918,5.122-21.553a21.8,21.8,0,0,0-4-5.106,46.2,46.2,0,0,1-13.334,9.292A1.288,1.288,0,0,0,81.509,103.389Z"/><path class="a" d="M103.654,104.805c-.514-.226-4.329-1.989-4.557-2.071-3.439-1.242-3.3-3.453-3.737-5.927a57.048,57.048,0,0,1-.761-8.3l0-.223c7.166-3.818,12.8-13.3,13.827-16.091.164-.5.5-1.434.8-2.546l.62-.095a7.792,7.792,0,0,0,3.62-1.632,11.749,11.749,0,0,0,3.037-3.986,18.471,18.471,0,0,0,1.883-9.793,6.162,6.162,0,0,0-.645-2.48,4.362,4.362,0,0,0-3.135-2.085,4.619,4.619,0,0,0-3.7,1.081S114.716,21.5,81.531,21.5,48.923,50.662,48.923,50.662a4.617,4.617,0,0,0-3.695-1.081,4.362,4.362,0,0,0-3.135,2.085,6.179,6.179,0,0,0-.646,2.48,18.481,18.481,0,0,0,1.884,9.793,11.749,11.749,0,0,0,3.037,3.986,7.792,7.792,0,0,0,3.62,1.632l1.181.181a31.411,31.411,0,0,0,5.987,11.688,28.784,28.784,0,0,0,6.7,5.993l-.018.422a66.728,66.728,0,0,1-.762,8.966c-.433,2.474-.3,4.685-3.737,5.927-.227.082-1.921.68-2.343.86,0,0,.242,16.089,21.871,16.089S103.654,104.805,103.654,104.805Z"/><path class="a" d="M101.244,435.069a8.365,8.365,0,0,0,4.278-.966,4.074,4.074,0,0,0,1.62-1.909,30.814,30.814,0,0,1-1.392-4.328,168.547,168.547,0,0,1-19.513-.719l-.019,2.727A23.9,23.9,0,0,0,101.244,435.069Z"/><path class="a" d="M55.267,434.1a8.365,8.365,0,0,0,4.278.966,23.9,23.9,0,0,0,15.026-5.195q-.009-1.365-.019-2.73a142.679,142.679,0,0,1-19.54.847,30.8,30.8,0,0,1-1.364,4.206A4.069,4.069,0,0,0,55.267,434.1Z"/><path class="b" d="M53.882,420.951A28.71,28.71,0,0,1,50.7,433.872a2.044,2.044,0,0,0,.717,2.736,2.02,2.02,0,0,0,2.736-.717,33.17,33.17,0,0,0,3.731-14.94,2,2,0,0,0-4,0Z"/><path class="b" d="M72.517,421.991l.085,12.46a2,2,0,0,0,4,0l-.085-12.46a2,2,0,0,0-4,0Z"/><path class="b" d="M102.907,420.951a33.17,33.17,0,0,0,3.731,14.94,2,2,0,1,0,3.453-2.019,28.71,28.71,0,0,1-3.184-12.921,2,2,0,0,0-4,0Z"/><path class="c" d="M33.277,463.472c-.115-.151-.225-.308-.328-.47a8.8,8.8,0,0,1-.583-7.379,24.183,24.183,0,0,1,3.787-6.608q5.483-7.486,11.587-14.49c1.587-1.82,3.381-3.716,5.753-4.164a3.568,3.568,0,0,0,1.774,3.742,8.365,8.365,0,0,0,4.278.966,23.745,23.745,0,0,0,16.619-6.614c-.028,5,.022,6.663,0,11.664a10.48,10.48,0,0,1-.439,3.607c-1.027,2.78-4.075,4.119-6.521,5.792-6.363,4.355-9.714,12.3-16.382,16.171a17.212,17.212,0,0,1-15.914.57A10.027,10.027,0,0,1,33.277,463.472Z"/><path class="b" d="M84.272,421.991l-.085,12.46a2,2,0,0,0,4,0l.085-12.46a2,2,0,0,0-4,0Z"/><path class="d" d="M85.4,234.429A125.775,125.775,0,0,1,80,214.138l-.2.787q-.072.384-.154.8a108.992,108.992,0,0,1-5.512,18.605c-15.372-.137-30.053-.275-38.558-.414,1.651,17.269,3.488,51.4,5.175,79.424,1.986,33,2.8,106.105,3.245,113.47,4.933,1.645,24.116,1.761,35.557-.426,0,0,.308-.059.625-.116,9.392,1.953,31.386,2.187,36.318.542.446-7.365,1.259-80.473,3.246-113.47,1.672-27.78,2.988-61.11,4.619-78.508C115.768,234.7,100.91,234.566,85.4,234.429Z"/><path class="b" d="M35,462.463c-1.764-2.411-1.3-5.449-.01-7.976a55.593,55.593,0,0,1,5.739-8.271q3.174-4.14,6.559-8.112c1.829-2.153,3.807-5.162,6.733-5.814l-2.46-2.461a5.828,5.828,0,0,0,3.883,6.568c2.632,1.032,5.78.761,8.51.323a25.444,25.444,0,0,0,13.62-6.851l-3.414-1.414c-.022,4.261.165,8.554-.021,12.81-.093,2.138-1.178,3.407-2.892,4.565a57.672,57.672,0,0,0-5.2,3.609c-6.047,5.129-9.633,13.857-17.855,16-4.468,1.166-10.438.41-13.5-3.383a2.014,2.014,0,0,0-2.829,0,2.048,2.048,0,0,0,0,2.829c3.11,3.849,8.921,5.341,13.677,5.006a20.359,20.359,0,0,0,12.98-6.144c3.2-3.157,5.678-6.96,8.876-10.119a31.092,31.092,0,0,1,5.264-3.947,11.793,11.793,0,0,0,4.659-4.621c1.26-2.721.856-6.042.849-8.965-.006-2.547-.017-5.094,0-7.642a2.022,2.022,0,0,0-3.414-1.414,21.423,21.423,0,0,1-9.4,5.292,20.454,20.454,0,0,1-6.213.725c-1.137-.045-4.061-.4-3.718-2.165a2.028,2.028,0,0,0-2.461-2.461c-3.578.8-5.93,3.834-8.189,6.481q-4.026,4.721-7.782,9.662c-4.04,5.3-10.39,13.142-5.439,19.907a2.059,2.059,0,0,0,2.736.717A2.014,2.014,0,0,0,35,462.463Z"/><path class="b" d="M33.576,235.05c1.451,15.238,2.307,30.537,3.235,45.813.914,15.046,1.935,30.094,2.574,45.156.552,13.006.91,26.02,1.229,39.034q.467,19.041.817,38.085c.15,7.548.213,15.106.516,22.65.014.341.029.681.049,1.022a2.075,2.075,0,0,0,1.468,1.928,28.762,28.762,0,0,0,6.56,1.007c3.095.241,6.206.306,9.31.289a115.948,115.948,0,0,0,20.75-1.721c2.527-.476,1.457-4.332-1.063-3.857a110,110,0,0,1-19.687,1.578c-3.012.017-6.028-.045-9.032-.268a22.916,22.916,0,0,1-5.774-.885L46,426.81c-.389-6.554-.356-13.152-.486-19.715q-.367-18.477-.774-36.953c-.31-13.237-.658-26.474-1.172-39.7-.554-14.276-1.49-28.533-2.345-42.793-.964-16.1-1.878-32.211-3.254-48.282q-.185-2.157-.389-4.312a2.055,2.055,0,0,0-2-2,2.014,2.014,0,0,0-2,2Z"/><path class="c" d="M127.512,463.472c.115-.151.225-.308.328-.47a8.8,8.8,0,0,0,.583-7.379,24.183,24.183,0,0,0-3.787-6.608q-5.483-7.486-11.587-14.49c-1.587-1.82-3.381-3.716-5.753-4.164a3.568,3.568,0,0,1-1.774,3.742,8.365,8.365,0,0,1-4.278.966,23.745,23.745,0,0,1-16.619-6.614c.028,5-.022,6.663,0,11.664a10.48,10.48,0,0,0,.439,3.607c1.027,2.78,4.075,4.119,6.521,5.792,6.363,4.355,9.714,12.3,16.382,16.171a17.212,17.212,0,0,0,15.914.57A10.027,10.027,0,0,0,127.512,463.472Z"/><path class="b" d="M122.4,234.951c-1.45,15.25-2.084,30.586-2.884,45.88-.788,15.062-1.773,30.119-2.413,45.188-.551,13.006-.909,26.02-1.229,39.034q-.467,19.041-.817,38.085c-.149,7.548-.213,15.106-.516,22.65-.014.341-.028.681-.049,1.022l1.469-1.929a12.836,12.836,0,0,1-1.908.429c-.632.1-1.358.179-2.307.261-2.357.2-4.725.282-7.09.316a164.85,164.85,0,0,1-16.543-.561,64.668,64.668,0,0,1-7.407-.986c-2.513-.514-3.588,3.341-1.064,3.857a96.5,96.5,0,0,0,15.389,1.557,138.3,138.3,0,0,0,16.109-.134,25.661,25.661,0,0,0,5.884-.882,2.071,2.071,0,0,0,1.468-1.928c.389-6.554.356-13.152.486-19.715q.368-18.477.774-36.953c.311-13.237.658-26.474,1.172-39.7.555-14.281,1.487-28.543,2.236-42.814.847-16.122,1.543-32.267,2.86-48.358q.175-2.159.38-4.314a2.015,2.015,0,0,0-2-2,2.043,2.043,0,0,0-2,2Z"/><path class="b" d="M129.238,464.482c4.95-6.764-1.4-14.611-5.439-19.907q-3.763-4.932-7.782-9.662c-2.258-2.648-4.611-5.682-8.189-6.481a2.028,2.028,0,0,0-2.461,2.461c.343,1.766-2.586,2.12-3.718,2.165a20.454,20.454,0,0,1-6.213-.725,21.439,21.439,0,0,1-9.4-5.292,2.022,2.022,0,0,0-3.414,1.414c.012,2.269.006,4.537,0,6.805a48.183,48.183,0,0,0,.189,7.676c.812,5.082,5.969,6.587,9.377,9.571,3.39,2.967,5.9,6.763,8.938,10.057,3.234,3.5,7.2,6.272,11.985,7.07,5.372.894,12.207-.283,15.814-4.747a2.062,2.062,0,0,0,0-2.829,2.016,2.016,0,0,0-2.829,0c-2.682,3.32-7.738,4.32-11.787,3.739-4.286-.615-7.624-3.079-10.479-6.2-2.743-3-5.056-6.374-8-9.182a30.229,30.229,0,0,0-4.906-3.7c-1.437-.9-3.229-1.881-3.929-3.523a11.05,11.05,0,0,1-.371-4.221q0-1.774,0-3.548c.007-2.324.014-4.647,0-6.97l-3.414,1.414a25.448,25.448,0,0,0,13.62,6.851c2.665.427,5.737.7,8.323-.252a5.865,5.865,0,0,0,4.07-6.639l-2.46,2.461c2.863.638,4.786,3.526,6.578,5.632q3.459,4.063,6.714,8.294A57.561,57.561,0,0,1,125.7,454.3c1.343,2.571,1.9,5.682.087,8.164a2.014,2.014,0,0,0,.717,2.736A2.045,2.045,0,0,0,129.238,464.482Z"/><path class="b" d="M78.4,265.691c-.444,4.852-.392,9.769-.432,14.636-.06,7.289-.032,14.579.009,21.868.06,10.325.178,20.65.163,30.976q-.024,16.989-.066,33.979-.034,19.2-.038,38.407,0,6.946.033,13.892c.012,2.194-.077,4.426.089,6.616A2.305,2.305,0,0,0,79.169,428a2.011,2.011,0,0,0,2.736-.717,2.051,2.051,0,0,0-.717-2.737h0l.717.717c.179.333.252,1.4.238.562-.005-.351-.02-.7-.026-1.052-.024-1.233-.032-2.467-.041-3.7-.03-4.269-.036-8.538-.041-12.807q-.02-18.747.03-37.493.03-17.519.068-35.038c.016-9.555-.061-19.108-.127-28.662-.09-12.965-.415-26,.229-38.956.04-.807.088-1.614.162-2.419a2.016,2.016,0,0,0-2-2,2.042,2.042,0,0,0-2,2Z"/><path class="d" d="M158.361,134.6c-.869-7.6-15.491-8.616-27.593-6.5.825-5.391,1.61-10.389,2.109-13.532-1.4-.835-3.132-1.192-4.561-1.969a267.519,267.519,0,0,0-27.032-13.207s-.816-.367-1.876-.849c-.726,3.971-2.59,13.483-5.055,21.757a341.989,341.989,0,0,1-13.395,37.355c-.636-1.008-1.091-1.731-1.091-1.731-3.686-7.958-10.533-23.934-15.53-38.249-2.752-7.886-5.175-14.418-6.505-18.508a267.455,267.455,0,0,0-27.557,13.432c-2.11,1.147-4.885,1.378-6.26,3.593a25.46,25.46,0,0,0-6.123,9.272c-3.677,8.99-9.821,26.719-12.321,35.8C3.2,169.877.087,175.626,3.316,182.246S13.6,192.7,18.7,196.164c5.531,3.754,11.262,7.514,16.831,11.062-1.59,15.087-2.762,24.762-3.987,40.355,6.994,1.468,27.116,2.236,33.769-.744,7.39-3.31,12.925-23.484,14.489-31.912l.247-.532c2.679,14.181,7.722,30.59,14.339,33.008,7.092,2.592,27.911,1.988,35.326.477-1.27-16.241-2.48-26.047-4.152-42.035-.483-4.62-1.226-9.244-.946-13.88.142-2.351.683-11.745,1.337-21.413.141.3.224.48.224.48,4.238,6.78,12.8,16.421,21.287,15.176,9.5-1.393,11.185-13.564,11.691-21.164A166.931,166.931,0,0,0,158.361,134.6Z"/><path class="b" d="M156.433,135.128a93.418,93.418,0,0,1,1.256,20.23,115.108,115.108,0,0,1-1.206,15.686c-.675,3.867-1.79,8.162-4.723,10.969-3.276,3.136-7.927,2.654-11.639.591-5.116-2.843-9.139-7.694-12.219-12.583-1.369-2.173-4.831-.168-3.454,2.018,5.292,8.4,16.486,20.832,27.566,14.72,4.222-2.329,6.459-7,7.64-11.481,1.355-5.141,1.557-10.542,1.847-15.822a106.965,106.965,0,0,0-1.211-25.391c-.466-2.528-4.322-1.457-3.857,1.063Z"/><path class="b" d="M61.835,87.841a66.193,66.193,0,0,1-.952,10.1c-.052.3-.11.608-.189.907-.042.159-.1.313-.142.471-.1.359.095-.151-.016.049-.08.142-.165.285-.242.429-.1.181.208-.19-.047.069-.127.129-.249.26-.386.379.261-.227-.219.14-.241.154a23.073,23.073,0,0,1-3.158,1.263,2.066,2.066,0,0,0-1.4,2.461,2.012,2.012,0,0,0,2.46,1.4,28.511,28.511,0,0,0,4.114-1.666,6.563,6.563,0,0,0,3.007-4.348,62,62,0,0,0,1.189-11.667c.047-2.575-3.953-2.575-4,0Z"/><path class="b" d="M92.6,88.512a60.247,60.247,0,0,0,.7,8.046c.279,1.8.406,3.786,1.439,5.346a6.487,6.487,0,0,0,2.524,2.209c.341.169.694.315,1.048.455.783.309-.276-.156-.082-.046.215.121.461.206.686.308,1.244.565,2.479,1.148,3.727,1.7a2.063,2.063,0,0,0,2.736-.717,2.016,2.016,0,0,0-.717-2.737c-1.135-.5-2.259-1.033-3.389-1.548-.538-.245-1.079-.481-1.622-.715a5.978,5.978,0,0,1-1.046-.545c-.473-.325.168.2-.208-.18-.087-.084-.171-.172-.25-.264q.167.231.047.059c-.111-.165-.2-.337-.3-.51.163.3.006.021-.048-.142a8.25,8.25,0,0,1-.263-1.077c-.156-.838-.274-1.687-.407-2.529a51.992,51.992,0,0,1-.582-7.115c-.049-2.571-4.049-2.579-4,0Z"/><path class="e" d="M74.507,113.73a7.3,7.3,0,0,1,.3,1.837c0,.387-1.4,11.881-2.716,22.629,2.9,7.056,5.649,13.313,7.552,17.424l1.092,1.73c2.106-4.775,4.5-10.862,6.918-17.6-1.634-10.953-3.514-23.357-3.5-23.973a11.119,11.119,0,0,1,.716-3.261c.345-1.054.588-1.989.8-2.894-.467-.567-.93-1.128-1.366-1.662-1.092-1.336-2.018-2.494-2.475-3.128l-5.145.009c-.459.637-1.382,1.79-2.469,3.119-.241.3-.49.6-.744.908.264,1.346.521,2.692.835,4.038Q74.4,113.315,74.507,113.73Z"/><path class="b" d="M75.308,117.337c2.88,0,5.76-.064,8.64-.065a2,2,0,0,0,0-4c-2.88,0-5.76.064-8.64.065a2,2,0,0,0,0,4Z"/><path class="b" d="M71.615,109.254c.312,1.555.615,3.111.988,4.653a5.884,5.884,0,0,1,.239,1.958c-.127,1.5-.348,3.005-.528,4.5q-1.047,8.733-2.121,17.464a2.012,2.012,0,0,0,2,2,2.049,2.049,0,0,0,2-2q1.083-8.889,2.159-17.777c.172-1.439.409-2.89.5-4.338a9,9,0,0,0-.345-2.667c-.382-1.613-.714-3.235-1.04-4.86-.507-2.522-4.363-1.454-3.857,1.063Z"/><path class="b" d="M89.672,139.191c-.9-6.054-1.815-12.105-2.7-18.16q-.228-1.553-.451-3.107-.084-.591-.166-1.181c-.062-.452.036.288-.02-.145-.014-.113-.03-.226-.043-.339-.247-2.094.9-4.249,1.393-6.255.616-2.5-3.24-3.565-3.857-1.063-.567,2.3-1.789,4.737-1.558,7.145.173,1.8.491,3.592.752,5.377.916,6.266,1.865,12.527,2.8,18.791a2.013,2.013,0,0,0,2.46,1.4,2.052,2.052,0,0,0,1.4-2.46Z"/><path class="b" d="M81.913,102.683h-5.16a2,2,0,0,0,0,4h5.16a2,2,0,0,0,0-4Z"/><path class="a" d="M89.87,114.468c4.281-4.255,7.086-9.409,10.249-14.557a22.8,22.8,0,0,0-4.647-6.278,46.2,46.2,0,0,1-13.334,9.292c-.276.125-.583.278-.672.568a1.061,1.061,0,0,0,.154.753,42.733,42.733,0,0,0,2.757,3.561C86.254,110.1,88.61,112.917,89.87,114.468Z"/><path class="a" d="M68.8,114.468c-4.282-4.255-7.086-9.409-10.249-14.557a22.782,22.782,0,0,1,4.647-6.278,46.2,46.2,0,0,0,13.334,9.292c.276.125.583.278.672.568a1.071,1.071,0,0,1-.154.753,42.845,42.845,0,0,1-2.758,3.561C72.412,110.1,70.056,112.917,68.8,114.468Z"/><path class="b" d="M91.284,115.882a59.485,59.485,0,0,0,8.37-11.348c.6-.994,1.2-1.991,1.806-2.983a2.9,2.9,0,0,0,.623-1.906,5.227,5.227,0,0,0-.817-1.8,24.312,24.312,0,0,0-4.38-5.623,2.035,2.035,0,0,0-2.828,0,43.438,43.438,0,0,1-7.17,5.811c-1.259.816-2.556,1.574-3.889,2.262-1.266.654-3.034,1.117-3.462,2.67a3.629,3.629,0,0,0,.946,3.142c.866,1.149,1.779,2.263,2.691,3.376,1.753,2.141,3.535,4.257,5.282,6.4a2.012,2.012,0,0,0,2.828,0,2.046,2.046,0,0,0,0-2.828c-1.458-1.791-2.942-3.561-4.411-5.343-.827-1-1.653-2.008-2.463-3.026-.228-.287-.458-.573-.674-.869-.095-.13-.185-.287-.289-.409-.178-.208.044-.247.019.086l-.274,1.01q-.5.408-.044.149l.31-.142c.313-.148.625-.3.935-.449q.95-.471,1.875-.987,1.908-1.065,3.71-2.3a48.471,48.471,0,0,0,6.908-5.722H94.058a21.827,21.827,0,0,1,4.334,5.873V98.9c-3.019,4.925-5.83,10.026-9.936,14.153C86.638,114.881,89.465,117.711,91.284,115.882Z"/><path class="b" d="M70.21,113.054c-4.106-4.127-6.917-9.228-9.936-14.153v2.019a21.827,21.827,0,0,1,4.334-5.873H61.78a48.471,48.471,0,0,0,6.908,5.722q1.8,1.237,3.71,2.3.849.474,1.719.909.465.233.935.454.232.11.466.215.453.26-.045-.149l-.273-1.01c-.022-.285.216-.317.019-.086-.086.1-.155.223-.232.331-.233.324-.483.635-.732.947-.809,1.018-1.636,2.022-2.463,3.026-1.468,1.782-2.952,3.552-4.41,5.343a2.058,2.058,0,0,0,0,2.828,2.014,2.014,0,0,0,2.828,0c1.711-2.1,3.457-4.176,5.175-6.273.923-1.125,1.844-2.253,2.725-3.411a3.717,3.717,0,0,0,1.019-3.237c-.416-1.508-2.074-1.96-3.306-2.59-1.333-.681-2.632-1.432-3.892-2.242a43.5,43.5,0,0,1-7.323-5.911,2.037,2.037,0,0,0-2.828,0,24.274,24.274,0,0,0-4.294,5.472,7.71,7.71,0,0,0-.867,1.689,2.681,2.681,0,0,0,.587,2.172c.6.992,1.2,1.989,1.806,2.983a59.485,59.485,0,0,0,8.37,11.348C69.2,117.71,72.029,114.882,70.21,113.054Z"/><path class="b" d="M32.643,164.377c.746,9.34,1.575,18.7,2,28.065a61.621,61.621,0,0,1-.567,9.815c-.367,3.2-.7,6.4-1.041,9.6-.582,5.437-1.179,10.872-1.735,16.311q-1.01,9.876-1.786,19.773c-.2,2.566,3.8,2.553,4,0,.887-11.323,2.073-22.613,3.287-33.9.336-3.129.65-6.261,1-9.388.365-3.262.809-6.523.87-9.809.069-3.727-.35-7.494-.606-11.208Q37.4,174,36.643,164.377c-.2-2.548-4.2-2.57-4,0Z"/><path class="b" d="M26.017,115.63c1.7,11.827,4.133,23.569,5.428,35.45.483,4.424.842,8.862,1.2,13.3.2,2.549,4.206,2.571,4,0-.555-6.913-1.163-13.81-2.171-20.674-.974-6.631-2.084-13.243-3.154-19.86-.5-3.089-1-6.178-1.444-9.276a2.013,2.013,0,0,0-2.46-1.4,2.052,2.052,0,0,0-1.4,2.46Z"/><path class="b" d="M100.752,101.312c5.609,2.332,11.111,4.911,16.517,7.678,2.589,1.325,5.157,2.689,7.717,4.07a40.01,40.01,0,0,0,3.837,1.945,15.889,15.889,0,0,1,3.7,1.732,2.015,2.015,0,0,0,2.737-.717,2.049,2.049,0,0,0-.718-2.737,15.656,15.656,0,0,0-3.931-1.854A30.233,30.233,0,0,1,127,109.606c-2.682-1.447-5.375-2.876-8.09-4.261q-8.394-4.281-17.1-7.89a2.012,2.012,0,0,0-2.46,1.4,2.051,2.051,0,0,0,1.4,2.46Z"/><path class="b" d="M84.672,175.881a4.534,4.534,0,0,1,.037-.558l-.071.532a3.683,3.683,0,0,1,.236-.874l-.2.478a3.161,3.161,0,0,1,.225-.432c.038-.059.081-.114.12-.173-.362.547-.237.3-.108.162.059-.061.121-.116.183-.173.219-.2-.442.3-.171.133a3.851,3.851,0,0,1,.476-.261l-.478.2a3.8,3.8,0,0,1,.931-.247l-.532.071a4.4,4.4,0,0,1,1.094,0l-.532-.072a3.761,3.761,0,0,1,.839.227l-.478-.2a4.441,4.441,0,0,1,.486.26c.272.159-.393-.343-.164-.131.064.059.129.115.19.177a1.759,1.759,0,0,0,.171.192c-.072-.052-.33-.459-.141-.167a3.266,3.266,0,0,1,.243.456l-.2-.478a4.139,4.139,0,0,1,.277,1.031l-.071-.532a4.3,4.3,0,0,1,.014,1.039l.071-.532a3.514,3.514,0,0,1-.226.843l.2-.477a3.312,3.312,0,0,1-.244.469c-.036.058-.077.111-.114.169.362-.566.227-.283.093-.139-.065.07-.135.132-.2.2-.216.205.442-.308.176-.132a3.754,3.754,0,0,1-.536.3l.478-.2a3.789,3.789,0,0,1-.919.249l.532-.071a4.576,4.576,0,0,1-1.072.01l.531.072a3.407,3.407,0,0,1-.812-.211l.478.2a3.841,3.841,0,0,1-.464-.251c-.264-.162.446.383.123.091-.061-.055-.119-.113-.174-.173-.128-.139-.239-.385.115.164-.043-.067-.092-.131-.134-.2a3.484,3.484,0,0,1-.231-.451l.2.477a4.282,4.282,0,0,1-.273-1.006l.072.531a4.568,4.568,0,0,1-.042-.6,2,2,0,0,0-4,0,5.345,5.345,0,0,0,2.613,4.785,5.507,5.507,0,0,0,6.485-1.091,5.1,5.1,0,0,0,1.2-2.5,5.956,5.956,0,0,0-.236-2.993,5.058,5.058,0,0,0-2.123-2.661,5.77,5.77,0,0,0-3.828-.609,4.849,4.849,0,0,0-3.224,2.023,5.311,5.311,0,0,0-.891,3.046,2,2,0,0,0,4,0Z"/><path class="b" d="M58.482,96.756q-9.192,3.738-18.053,8.206c-2.729,1.382-5.435,2.81-8.129,4.259a42.484,42.484,0,0,1-3.955,2.07,18.708,18.708,0,0,0-4.295,1.992,2.063,2.063,0,0,0-.718,2.737,2.014,2.014,0,0,0,2.737.717,15.952,15.952,0,0,1,3.7-1.732,43.933,43.933,0,0,0,4.176-2.128c2.7-1.453,5.4-2.886,8.135-4.274q8.566-4.353,17.466-7.99a2.064,2.064,0,0,0,1.4-2.46,2.013,2.013,0,0,0-2.46-1.4Z"/><path class="b" d="M130.906,114.284c-2.458,15.53-5.069,31.06-6.273,46.748-.608,7.934-1.112,15.876-1.594,23.819q-.209,3.432-.41,6.863c-.346,5.968.7,11.973,1.328,17.9,1.356,12.769,2.756,25.529,3.76,38.332.2,2.549,4.2,2.571,4,0-.882-11.251-2.058-22.471-3.264-33.691-.666-6.2-1.655-12.458-1.873-18.692-.1-2.784.15-5.576.317-8.353.861-14.38,1.5-28.845,3.509-43.12,1.348-9.595,2.843-19.169,4.357-28.738a2.061,2.061,0,0,0-1.4-2.46,2.014,2.014,0,0,0-2.46,1.4Z"/><path class="b" d="M129.2,245.947a77.689,77.689,0,0,1-12.154,1.132,119.919,119.919,0,0,1-14.818-.264,36.574,36.574,0,0,1-5.81-.889,6.264,6.264,0,0,1-3.532-1.966c-3.2-3.292-4.935-8.136-6.387-12.393a133.45,133.45,0,0,1-4.974-20.205,2.016,2.016,0,0,0-2.46-1.4,2.045,2.045,0,0,0-1.4,2.46,138.49,138.49,0,0,0,4.495,18.764c1.653,5.123,3.638,10.465,7.081,14.682a10.93,10.93,0,0,0,4.783,3.52,27.535,27.535,0,0,0,5.674,1.153,102.182,102.182,0,0,0,15.388.593,87.967,87.967,0,0,0,15.175-1.333c2.522-.506,1.454-4.363-1.064-3.857Z"/><path class="d" d="M75.7,173.3c0-5.529,1.62-7.906,3.03-10.879,4.241-8.506,10.556-25.125,15.62-42.124,2.749-9.227,4.75-19.47,5.26-22.333.557.329.956.56.956.56,2.943,1.7,13.876,10.822,13.086,11.92-1.088,1.513-4.508,5.386-6.332,7.333,2.246,1.93,4.558,4.226,4.755,5.348.262,1.5-18.962,33.265-22.8,38.127Z"/><path class="b" d="M31.12,249.534a82.265,82.265,0,0,0,13.739,1.287,87.544,87.544,0,0,0,15.946-.746,19.488,19.488,0,0,0,5.687-1.591,13.308,13.308,0,0,0,4.464-4.052c3.073-4.032,5.008-8.949,6.664-13.7a105.5,105.5,0,0,0,4.108-15.276c.471-2.516-3.383-3.595-3.857-1.064a106.318,106.318,0,0,1-3.286,12.813,58.145,58.145,0,0,1-5.729,13.25,15.253,15.253,0,0,1-3.368,3.971A10.972,10.972,0,0,1,61.028,246a69.975,69.975,0,0,1-14.191.869,81.782,81.782,0,0,1-14.654-1.188c-2.513-.5-3.589,3.351-1.063,3.858Z"/><path class="b" d="M81.594,211.893c-1.029-8.265-1.9-16.549-2.711-24.839-.31-3.19-.611-6.382-.881-9.576a40.208,40.208,0,0,1-.264-5.538c.184-3.472,1.654-6.3,3.137-9.359,1.627-3.357,3.079-6.8,4.475-10.259,3.707-9.175,6.951-18.544,9.87-28A211.431,211.431,0,0,0,101.6,98.181a2.057,2.057,0,0,0-1.4-2.46,2.018,2.018,0,0,0-2.46,1.4c-3.056,17.6-8.656,34.783-15.151,51.387-1.42,3.629-2.9,7.236-4.554,10.767-1.363,2.917-3.088,5.761-3.8,8.93-1.154,5.141-.127,10.7.361,15.861.878,9.289,1.846,18.572,3,27.83a2.063,2.063,0,0,0,2,2,2.012,2.012,0,0,0,2-2Z"/><path class="b" d="M99.56,100.246a56.285,56.285,0,0,1,10.151,8.269,24.928,24.928,0,0,1,1.881,1.992c.244.3-.278-.21.105.159.067.064.09.239.163.28-.309-.174-.07-.748-.048-1.083.049-.747.051-.307-.081-.169-2.024,2.13-3.812,4.51-5.822,6.663a2.024,2.024,0,0,0,0,2.829,34.377,34.377,0,0,1,3.523,3.4c.169.2.683.886.672.89-.041.011.006-1.17.006-.634a1.122,1.122,0,0,1-.107.307c-.137.391.245-.5-.027.056-.194.4-.381.8-.582,1.194-1.377,2.7-2.906,5.328-4.428,7.949q-6.06,10.439-12.539,20.633c-.942,1.479-1.891,2.953-2.867,4.41-.365.546-.734,1.09-1.112,1.628-.141.2-.282.4-.425.595-.063.086-.129.17-.19.257-.3.422.222-.28.032-.037a2.063,2.063,0,0,0,0,2.828,2.012,2.012,0,0,0,2.828,0c4.16-5.307,7.539-11.334,11.041-17.079,3.866-6.344,7.856-12.7,11.2-19.343A11.433,11.433,0,0,0,114,123.761a4.089,4.089,0,0,0-1.2-3.341,30.246,30.246,0,0,0-4.065-4.063v2.829a63.662,63.662,0,0,0,6.414-7.427c1.361-2.018-.425-3.844-1.806-5.269a71.923,71.923,0,0,0-6.1-5.464,46.443,46.443,0,0,0-5.671-4.234c-2.223-1.309-4.238,2.147-2.019,3.454Z"/><path class="d" d="M72.785,160.889c-5.064-4.844-27.194-35.967-26.923-37.51.188-1.077,2.275-3.208,4.431-5.1a82.981,82.981,0,0,1-6.052-7.637c-.825-1.119,9.858-10.5,12.882-12.247l.393-.227c1.232,3.966,3.832,10.933,6.821,19.5,5,14.315,11.844,30.291,15.53,38.249l3.331,7.749Z"/><path class="b" d="M55.429,98.748c.928,3.064,2.1,6.055,3.212,9.055,1.612,4.343,3.149,8.711,4.716,13.071,3.085,8.581,6.5,17.045,10.079,25.429,1.522,3.561,3.078,7.108,4.7,10.623a2.016,2.016,0,0,0,2.736.717,2.046,2.046,0,0,0,.718-2.736c-3.169-6.853-6.113-13.813-8.927-20.819-3.457-8.608-6.472-17.366-9.692-26.062-1.269-3.427-2.628-6.84-3.689-10.341-.744-2.457-4.606-1.41-3.857,1.063Z"/><path class="b" d="M56.113,96.669a41.167,41.167,0,0,0-5.551,4.254,69.613,69.613,0,0,0-6.008,5.626c-1.28,1.383-3.144,3.29-1.922,5.264.79,1.276,1.809,2.468,2.722,3.657a46.042,46.042,0,0,0,3.525,4.224v-2.828a30.166,30.166,0,0,0-3.542,3.544,5.1,5.1,0,0,0-1.475,3.044,5.622,5.622,0,0,0,.983,2.511c1.494,2.629,3.233,5.131,4.935,7.627,4.886,7.166,9.962,14.218,15.257,21.087a68.207,68.207,0,0,0,6.334,7.624c1.853,1.789,4.685-1.036,2.828-2.828a56.463,56.463,0,0,1-5.041-5.959c-2.314-2.956-4.739-6.224-7.037-9.375-4.459-6.114-8.937-12.274-12.93-18.707-.513-.827-.943-1.7-1.441-2.53-.03-.049.143.544.054.085-.048-.243.088.619.055.424.088.517-.212.367.084.167.053-.036.416-.576.444-.611.325-.405.694-.781,1.057-1.152.724-.74,1.488-1.437,2.263-2.123a2.024,2.024,0,0,0,0-2.828,39.173,39.173,0,0,1-2.9-3.415,38.445,38.445,0,0,0-2.593-3.482c-.429-.437-.037-.724-.018.527a1.114,1.114,0,0,1-.153.6,6.389,6.389,0,0,0,.442-.7c-.293.408.163-.192.221-.261.127-.151.258-.3.39-.445.351-.391.715-.771,1.083-1.146,1.72-1.747,3.551-3.389,5.421-4.972a32.339,32.339,0,0,1,4.532-3.45c2.215-1.307.205-4.766-2.019-3.454Z"/><path class="a" d="M93.608,152.258C71.281,161.6,42.573,173.5,19.683,183.071c6.637,15.871,19.525,46.64,23.953,57.228l0,0C72.6,228.25,93.209,219.417,117.5,209.26c-4.785-11.441-19.152-45.68-23.886-57Z"/><path class="b" d="M93.077,150.329q-29.064,12.154-58.159,24.233-7.885,3.286-15.766,6.581c-.9.374-1.856,1.364-1.4,2.46q9.872,23.607,19.759,47.208,1.851,4.421,3.7,8.842a6.455,6.455,0,0,0,1.007,2.061c1.232,1.232,2.942.1,4.232-.434q4.294-1.788,8.586-3.584,15.372-6.431,30.719-12.924,16.127-6.808,32.27-13.584c.9-.374,1.855-1.364,1.4-2.46q-9.983-23.87-20-47.723-1.2-2.856-2.392-5.712c-.642-1.533-1.287-4.318-2.892-4.964a2.014,2.014,0,0,0-2.46,1.4,2.048,2.048,0,0,0,1.4,2.46h0l-1.4-1.4q9.756,23.329,19.548,46.643,2.171,5.178,4.338,10.359l1.4-2.461C98.4,215.1,79.871,222.976,61.31,230.766q-9.095,3.816-18.2,7.607h1.063l-.005,0,1.4,1.4q-9.417-22.52-18.849-45.032-2.553-6.1-5.1-12.2l-1.4,2.46q29.208-12.214,58.447-24.353,7.741-3.226,15.478-6.461a2.067,2.067,0,0,0,1.4-2.46A2.012,2.012,0,0,0,93.077,150.329Z"/><path class="a" d="M65.945,199.447c2.946.392,7.64-.532,10.675-.836,1.69-.168,4.083-.594,5.744-.179,1.76.44,3.161,2.075,4.759,2.906,3.227,1.678,6.576,2.984,9.8,4.583,1.4.693,3.085,1.033,3.915,2.446a4.151,4.151,0,0,1-.511,4.985c-1.8,1.718-3.69,1-5.689.264-2.146-.8-4.721-.813-6.589-2.137,1.567,2.158,3.694,4.576,5.019,6.381,1.176,1.6,3.563,4.138,3.561,6.173,0,2.379-2.674,4.028-4.79,4a4.765,4.765,0,0,1-3.64-1.487c.409,1.33-.1,2.248-1.544,3.259-1.313.918-2.569.493-4.445-.253-.972,2.152-5.476,3.028-7.892,3.665-.322.085-4.674.083-6.627-1.571-2.282-1.931-3.8-4.757-5.6-7.179a41.794,41.794,0,0,0-8.225-7.7"/><path class="b" d="M65.945,201.447c3.1.359,6.267-.29,9.334-.68,1.534-.195,3.085-.41,4.63-.489a5.515,5.515,0,0,1,4.039,1.3c3.055,2.259,6.633,3.573,10.063,5.16,1.431.662,3.013,1.221,4.373,2.017a2.1,2.1,0,0,1,.872,2.724c-.8,1.576-2.661.719-3.894.277-1.837-.659-3.9-.753-5.659-1.613-2.3-1.127-4.333,2.321-2.018,3.454,1.994.977,4.155,1.173,6.233,1.88,1.881.639,3.78,1.331,5.75.6a6.045,6.045,0,0,0,1.949-9.9c-1.4-1.284-3.465-1.9-5.162-2.695-2.2-1.031-4.44-1.973-6.629-3.027a19.593,19.593,0,0,1-2.633-1.424c-.835-.572-1.6-1.254-2.478-1.758a9.507,9.507,0,0,0-5.821-.918c-4.243.408-8.681,1.585-12.949,1.091a2.012,2.012,0,0,0-2,2,2.048,2.048,0,0,0,2,2Z"/><path class="b" d="M86.617,212.881c1.563,2.085,3.3,4.089,4.839,6.136.736.977,1.389,1.73,2.044,2.678a12.483,12.483,0,0,1,.851,1.4c.182.357.025-.016.14.32.034.1.161.827.137.433a2.878,2.878,0,0,1,0,.394c.026-.16.025-.17,0-.03a2.442,2.442,0,0,1-.08.29c.082-.168.07-.145-.038.068a3.481,3.481,0,0,1-.209.34c.11-.137.088-.115-.068.066a4.033,4.033,0,0,1-.448.419c.2-.159-.384.225-.454.262-.121.066-.245.127-.371.184.128-.058.128-.063,0-.014-.225.075-.451.132-.681.187s-.26.047-.05.01c-.126.01-.252.014-.378.013a3.225,3.225,0,0,1-1.32-.233c.3.111-.252-.143-.318-.177s-.159-.1-.235-.152q.237.2-.027-.024a9.235,9.235,0,0,1-.86-.909c-.076-.093-.15-.186-.223-.281.13.169.125.161-.015-.022-.211-.279-.426-.555-.641-.832a2.01,2.01,0,0,0-2.828,0,2.052,2.052,0,0,0,0,2.829c-.2-.261.057.077.124.165.194.254.388.509.587.759a9.1,9.1,0,0,0,.829.937,6.878,6.878,0,0,0,2.742,1.63,7.355,7.355,0,0,0,6.382-1.063,5.625,5.625,0,0,0,2.4-6.019c-.562-2.1-2.258-4-3.444-5.535-1.486-1.925-3.358-4.159-4.923-6.247a2.063,2.063,0,0,0-2.736-.718,2.014,2.014,0,0,0-.718,2.737Z"/><path class="b" d="M86.247,226.993c.171.594-.283,1.063-.9,1.276-.794.276-1.883-.36-2.6-.643a2,2,0,0,0-2.259.919c-1.038,2.016-4.78,1.99-6.7,2.746.206-.081.6-.012.166-.045-.173-.013-.357,0-.531,0a12.882,12.882,0,0,1-1.57-.13,5.768,5.768,0,0,1-3.35-1.426c-2.415-2.339-3.877-5.468-6.1-7.974a42.576,42.576,0,0,0-7.523-6.669c-2.121-1.469-4.123,2-2.018,3.454a34.5,34.5,0,0,1,7.507,6.982c2.248,2.9,4.028,7.044,7.557,8.633a12.2,12.2,0,0,0,7.71.836c2.858-.719,6.819-1.5,8.306-4.385l-2.258.919c2.167.853,4.305,1.292,6.308-.185,1.788-1.319,2.751-3.142,2.112-5.369-.708-2.47-4.569-1.42-3.857,1.064Z"/><path class="d" d="M26.954,169.951C36.735,176.09,64.309,195,67.39,197.283c-4.487,7.085-9.34,13.934-14.164,20.828-10.083-5.947-22.761-13.959-34.528-21.947-5.1-3.464-12.154-7.3-15.383-13.918Z"/><path class="b" d="M25.944,171.678c12.008,7.546,23.678,15.678,35.336,23.75,1.707,1.182,3.431,2.347,5.1,3.582l-.718-2.737c-4.5,7.091-9.349,13.95-14.164,20.828l2.736-.717c-8.8-5.194-17.447-10.64-25.986-16.246-4.061-2.667-8.081-5.4-12.137-8.07-3.312-2.184-6.666-4.53-9.127-7.693A13.349,13.349,0,0,1,4.2,173.39c.821-4.4,2.452-8.689,3.688-12.99,2.2-7.654,4.8-15.2,7.493-22.7,1.382-3.847,2.783-7.7,4.339-11.476,1.414-3.433,3.775-7.722,6.914-9.491,2.242-1.264.228-4.72-2.019-3.454-3.171,1.787-5.5,5.224-7.151,8.365a94.747,94.747,0,0,0-4.6,11.3c-2.928,7.93-5.7,15.937-8.14,24.03-1.284,4.253-2.648,8.509-3.795,12.8-1.187,4.437-1.46,8.857.489,13.121,1.863,4.076,5.211,7.224,8.735,9.878,3.618,2.726,7.519,5.122,11.284,7.639,10.083,6.741,20.33,13.252,30.775,19.419a2.05,2.05,0,0,0,2.737-.718c4.815-6.878,9.664-13.737,14.164-20.828a2.049,2.049,0,0,0-.717-2.736c-4.009-2.964-8.186-5.718-12.3-8.533q-9.76-6.678-19.6-13.24c-2.829-1.878-5.663-3.752-8.538-5.559-2.186-1.374-4.195,2.086-2.019,3.454Z"/><path class="c" d="M101.2,11.426c-5.563-9.071-16.449-9.808-25.189-9.2-10.094.7-17.78,3.46-24.526,11.262-9.855,11.4-9.96,25.679-6.222,36.09a4.64,4.64,0,0,1,3.451.9c5.21-5.912,18.7-13.81,36.94-21.041a18.533,18.533,0,0,1,2.843-1.018A33.089,33.089,0,0,1,95,28.065c4.956,0,11.275,1.793,13.484,12.645.925,3.66-.667,9.505,3.944,9.071a4.677,4.677,0,0,1,2.166-.2,3.806,3.806,0,0,1,.676.163c2.529-7.62,1.939-17.547-.351-23.4-1.532-3.914-3.879-8.431-8.632-11.039Z"/><path class="b" d="M46.985,48.466C43.1,36.9,44.968,23.884,53.159,14.6a29.022,29.022,0,0,1,14.6-9.1A49.193,49.193,0,0,1,84.317,4.237c6.033.545,11.833,2.9,15.154,8.2,1.364,2.176,4.826.171,3.453-2.019C95.914-.768,80.962-1.134,69.305,1.064A33,33,0,0,0,52.338,9.673,36.929,36.929,0,0,0,41.91,28.109a40.282,40.282,0,0,0,1.217,21.42c.816,2.428,4.68,1.387,3.858-1.063Z"/><path class="b" d="M105.281,17.034c4.645,2.628,7.348,7.689,8.624,12.732a36.414,36.414,0,0,1-.208,18.3c-.686,2.485,3.172,3.545,3.858,1.063a40.5,40.5,0,0,0,.118-20.769c-1.573-5.9-4.943-11.705-10.374-14.778-2.243-1.27-4.261,2.184-2.018,3.454Z"/><path class="b" d="M87.962,26.5a77.519,77.519,0,0,0-9.945,3.963q-5.028,2.177-9.933,4.627a102.059,102.059,0,0,0-15.136,9.024,38.545,38.545,0,0,0-5.421,4.7c-1.743,1.89,1.079,4.726,2.828,2.828,4.059-4.4,9.5-7.567,14.685-10.435,3.737-2.066,7.571-3.955,11.457-5.723q3.243-1.476,6.536-2.838a52.329,52.329,0,0,1,5.993-2.292c2.479-.682,1.426-4.542-1.064-3.858Z"/><path class="b" d="M95.642,29.98a11.678,11.678,0,0,1,2.5.21,8.473,8.473,0,0,1,2.522.872,10.425,10.425,0,0,1,4.332,5.035,23.4,23.4,0,0,1,1.91,8.784c.152,2.775.7,6.186,3.967,6.813a2.053,2.053,0,0,0,2.46-1.4,2.018,2.018,0,0,0-1.4-2.46c-.078-.016-.581-.156-.338-.058-.265-.107-.029.057-.2-.157.184.224-.085-.157-.123-.246.093.218-.1-.335-.12-.431a14.206,14.206,0,0,1-.284-2.869,26.953,26.953,0,0,0-1.469-7.675c-1.476-4.2-4.07-7.863-8.324-9.519a15.178,15.178,0,0,0-5.427-.9c-2.574-.012-2.577,3.988,0,4Z"/><path class="b" d="M112.76,52.077a2.538,2.538,0,0,1,3.614.475,5.268,5.268,0,0,1,.508,2.67,15.6,15.6,0,0,1-.222,3.223c-.7,3.832-2.653,8.42-6.911,9.183a2.016,2.016,0,0,0-1.4,2.46,2.044,2.044,0,0,0,2.46,1.4c6.451-1.156,9.527-8.443,10.012-14.29.249-2.994.014-6.424-2.577-8.366a6.653,6.653,0,0,0-8.316.419,2.015,2.015,0,0,0,0,2.829,2.044,2.044,0,0,0,2.828,0Z"/><path class="b" d="M107.789,66.118a17.407,17.407,0,0,1-1.017,4.715c-.091.278-.2.553-.278.834-.037.124-.2.479.022-.033-.142.33-.3.655-.459.976a39.563,39.563,0,0,1-3.414,5.487c-2.981,4.088-7.027,8.419-12.133,9.617-2.505.587-1.444,4.445,1.064,3.857,6.072-1.425,10.784-6.391,14.356-11.227,3.086-4.179,5.644-8.914,5.859-14.226.1-2.574-3.9-2.569-4,0Z"/><path class="b" d="M50.338,49.248a6.657,6.657,0,0,0-8.317-.419c-2.593,1.937-2.825,5.377-2.577,8.366.486,5.847,3.562,13.134,10.013,14.29a2.055,2.055,0,0,0,2.46-1.4,2.017,2.017,0,0,0-1.4-2.46c-4.257-.763-6.212-5.351-6.911-9.183a15.516,15.516,0,0,1-.225-3.044,6.056,6.056,0,0,1,.436-2.726,2.522,2.522,0,0,1,3.689-.6,2.057,2.057,0,0,0,2.829,0,2.017,2.017,0,0,0,0-2.829Z"/><path class="b" d="M48.246,65.837a35.864,35.864,0,0,0,7.636,17.169c4.3,5.087,9.984,8.768,16.683,9.491a2.014,2.014,0,0,0,2-2,2.046,2.046,0,0,0-2-2c-5.756-.622-10.566-4.3-14.137-8.658-3.521-4.294-5.381-9.659-6.325-15.065a2.017,2.017,0,0,0-2.461-1.4,2.045,2.045,0,0,0-1.4,2.46Z"/><path class="b" d="M92.054,64.075c4.817.14,10.178-.1,13.106-4.537,2.208-3.345,2.55-9-.609-11.894-.9-.825-2.581-1.081-3.742-1.353a31.663,31.663,0,0,0-4.038-.658,27.6,27.6,0,0,0-7.84.36c-2.255.422-4.8.925-6.1,3a9.049,9.049,0,0,0-1.186,5.444,10.921,10.921,0,0,0,3.3,7.062,11.331,11.331,0,0,0,7.109,2.572c2.574.111,2.569-3.889,0-4a6.286,6.286,0,0,1-5.891-8.847c.434-.755,1.755-.916,2.722-1.144a22.382,22.382,0,0,1,4.7-.581,25.891,25.891,0,0,1,9.023,1.484l-.882-.515c1.784,1.87,1.318,5.336-.172,7.273-2.141,2.783-6.4,2.42-9.5,2.33C89.479,60,89.481,64,92.054,64.075Z"/><path class="b" d="M57.436,50.987a25.31,25.31,0,0,1,11.651-1.3,22.529,22.529,0,0,1,2.8.578c.628.169,1.544.3,1.888.754a5.133,5.133,0,0,1,.653,2.788,7.251,7.251,0,0,1-1.547,4.234A6.126,6.126,0,0,1,68.969,60a23.393,23.393,0,0,1-5.388.048,7.559,7.559,0,0,1-4.489-1.658c-1.991-1.839-2.761-5.83-.773-7.913,1.777-1.862-1.047-4.695-2.829-2.828-2.982,3.124-2.933,8.372-.609,11.894,2.838,4.3,8.038,4.7,12.743,4.547A12.065,12.065,0,0,0,74.1,62.271a10.242,10.242,0,0,0,3.921-5.723,10.07,10.07,0,0,0-.028-5.776A7.007,7.007,0,0,0,76.607,48.2a5.973,5.973,0,0,0-2.923-1.574,28.287,28.287,0,0,0-17.311.508c-2.418.836-1.379,4.7,1.063,3.858Z"/><path class="b" d="M78.193,55.026c.05-.025.1-.048.15-.071l-.478.2a5.139,5.139,0,0,1,1.281-.325l-.532.072a10.642,10.642,0,0,1,2.745,0l-.532-.072a6.108,6.108,0,0,1,1.5.368l-.478-.2.051.022a2.189,2.189,0,0,0,1.541.2,2.038,2.038,0,0,0,1.2-.919,2.017,2.017,0,0,0,.2-1.541,1.925,1.925,0,0,0-.919-1.2,9.866,9.866,0,0,0-3.9-.753,8.44,8.44,0,0,0-3.844.753,2.013,2.013,0,0,0-.717,2.736,2.049,2.049,0,0,0,2.736.718Z"/><path class="b" d="M107.356,53.526l.144-.063-.478.2a13.205,13.205,0,0,1,2.637-.833,2.231,2.231,0,0,0,1.2-.92,1.486,1.486,0,0,0,.237-.743,1.516,1.516,0,0,0-.036-.8,2.02,2.02,0,0,0-.919-1.2l-.478-.2a2,2,0,0,0-1.063,0,14.959,14.959,0,0,0-3.259,1.1,1.928,1.928,0,0,0-.955,1.993,1.477,1.477,0,0,0,.238.743,2.022,2.022,0,0,0,1.195.92l.531.071a1.991,1.991,0,0,0,1.01-.273Z"/><path class="b" d="M54.379,50.072a14.959,14.959,0,0,0-3.259-1.1,2.244,2.244,0,0,0-1.541.2,2.238,2.238,0,0,0-.919,1.2,2.027,2.027,0,0,0,.2,1.541,1.972,1.972,0,0,0,1.2.92,13.205,13.205,0,0,1,2.637.833l-.478-.2.145.063a1.486,1.486,0,0,0,.743.237,2.05,2.05,0,0,0,1.993-.955,2.022,2.022,0,0,0,.2-1.541l-.2-.477a2.008,2.008,0,0,0-.718-.718Z"/><path class="b" d="M74.042,75.985a12.869,12.869,0,0,0,6.192,1.442,10.174,10.174,0,0,0,6.338-1.907,2,2,0,0,0,0-2.828,2.062,2.062,0,0,0-2.829,0c.685-.534-.074.019-.293.134-.171.09-.638.229-.028.033-.171.055-.337.129-.509.185-.216.069-.436.129-.658.18a4.97,4.97,0,0,0-.765.145c.023-.066.425-.048-.016,0-.14.014-.28.026-.42.035-.337.022-.674.03-1.012.028-.3,0-.6-.012-.906-.032-.138-.01-.277-.021-.415-.035-.079-.008-.157-.016-.236-.026q-.233-.029.156.02a3.835,3.835,0,0,1-1.33-.3c-.187-.056-.368-.122-.552-.185-.465-.159.4.193-.022-.006q-.342-.16-.676-.337a2,2,0,1,0-2.019,3.454Z"/><path class="b" d="M79.012,61.664a28.012,28.012,0,0,1,.659,3.014l-.072-.532a1.811,1.811,0,0,1,.012.416l.071-.531a1.021,1.021,0,0,1-.046.187l.2-.478a.733.733,0,0,1-.066.12l.313-.4a.7.7,0,0,1-.1.1l.405-.313a1.944,1.944,0,0,1-.239.126l.478-.2a1.764,1.764,0,0,1-.4.117l.531-.071a1.585,1.585,0,0,1-.377,0l.531.071c-.142-.02-.282-.054-.424-.073a1.506,1.506,0,0,0-.8-.036,1.486,1.486,0,0,0-.743.237,2,2,0,0,0-.718,2.737,1.919,1.919,0,0,0,1.195.919c.365.049.718.14,1.09.157a3.562,3.562,0,0,0,1.656-.4,2.491,2.491,0,0,0,1.351-1.629,3.893,3.893,0,0,0-.015-1.705c-.164-.971-.388-1.933-.638-2.885a2.061,2.061,0,0,0-.919-1.2,2,2,0,0,0-2.736.717,2.1,2.1,0,0,0-.2,1.541Z"/><path class="b" d="M63.515,53.008c-.5,1.636-.175,5.4,2.923,5.719,4.095-.025,4.313-4.574,2.935-6.713C68.244,50.263,64.925,49.535,63.515,53.008Z"/><path class="b" d="M96.31,53.009c.5,1.635.175,5.4-2.923,5.718-4.095-.025-4.314-4.574-2.935-6.713C91.581,50.263,94.9,49.535,96.31,53.009Z"/><path class="a" d="M119.12,103.931a3.062,3.062,0,0,1,2.344,1.477l45.072,11.772c1.216-1.667,2.685-3.454,4.734-3.7a3.846,3.846,0,0,1,4.265,4.388,7.145,7.145,0,0,1-1.523,3.064q-.963,1.3-2.015,2.534a3.4,3.4,0,0,1,2.674,1.427,4.628,4.628,0,0,1,.721,3.045,6.466,6.466,0,0,1-.289,1.431,15.254,15.254,0,0,1-2.286,4.039l-2.192,3.088a6.858,6.858,0,0,1-2.152,2.222,2.787,2.787,0,0,1,1.395,1.239,4.3,4.3,0,0,1,.378,2.211,4.046,4.046,0,0,1-1.285,2.394,40.546,40.546,0,0,1-4.256,3.329,3.741,3.741,0,0,1-3.113.4,3.034,3.034,0,0,1-1.025-.732l-41.481-25.485c-1.078-2.637-3.048-6.671-4.782-10.087-1.164-2.293-1.139-5.769.956-7.2A5.427,5.427,0,0,1,119.12,103.931Z"/><path class="a" d="M116.009,148.086c1.144-8.29,6.4-46.924,7.559-55.336a1.194,1.194,0,0,1,1.352-1.019l42.452,5.96a1.2,1.2,0,0,1,1.02,1.35c-2.217,15.979-5.65,40.713-7.674,55.186a1.2,1.2,0,0,1-1.35,1.023c-7.347-1.019-35.323-4.844-42.336-5.816A1.194,1.194,0,0,1,116.009,148.086Z"/><path class="b" d="M127.489,120.133c.077-.576.161-1.2.248-1.817A2.254,2.254,0,0,1,130.3,116.4c.93.14,1.988.3,2.916.443a2.251,2.251,0,0,1,1.9,2.541l-.248,1.764a2.253,2.253,0,0,1-2.542,1.918c-.934-.129-1.99-.271-2.912-.4A2.254,2.254,0,0,1,127.489,120.133Z"/><path class="b" d="M168.265,118.191c.879-1.2,2.206-3.021,3.823-2.7a1.822,1.822,0,0,1,1.442,1.428,3.222,3.222,0,0,1-.826,2.412,41.036,41.036,0,0,1-9.736,9.8,2.059,2.059,0,0,0-.717,2.737,2.015,2.015,0,0,0,2.736.717,49.229,49.229,0,0,0,7.17-6.294c1.074-1.157,2.077-2.373,3.036-3.626a10.444,10.444,0,0,0,2.246-4.118,5.912,5.912,0,0,0-5.355-7.071c-3.265-.23-5.522,2.31-7.272,4.7a2.013,2.013,0,0,0,.717,2.736,2.045,2.045,0,0,0,2.736-.718Z"/><path class="b" d="M167.465,140.447c.107.049.467.169.516.282-.179-.15-.213-.177-.1-.084a2.005,2.005,0,0,1,.166.153q.224.248-.035-.07a1.692,1.692,0,0,1,.133.239l-.083-.185c.037.1.071.2.1.308a1.329,1.329,0,0,1,.115.48c-.028-.26-.032-.275-.01-.043.007.107.009.215.006.322.021.456.115-.34-.007.08-.027.092-.216.749-.043.254a2.423,2.423,0,0,1-.214.418c-.053.09-.109.178-.168.263.144-.175.17-.208.077-.1-.154.162-.305.323-.473.471-.283.249-.572.49-.86.732q-.585.492-1.18.971c-.2.159-.4.311-.6.473.486-.4.072-.058-.038.025l-.251.185a8.442,8.442,0,0,1-1.136.692c.373-.189-.1.029-.168.05-.108.034-.217.064-.328.09q-.346.065.036.008a1.055,1.055,0,0,1-.5.006c.255.043.266.04.033-.006q-.387-.123.1.08a2.056,2.056,0,0,0-2.737.718A2.022,2.022,0,0,0,160.54,150a5.8,5.8,0,0,0,5.285-.446,19.76,19.76,0,0,0,2.453-1.82q.99-.8,1.952-1.629a6,6,0,0,0,2.038-4.174,5.11,5.11,0,0,0-2.785-4.936,2.048,2.048,0,0,0-2.736.717,2.024,2.024,0,0,0,.718,2.737Z"/><path class="b" d="M172.2,125.47c-.263-.032.334.124.339.126-.24-.105.349.245.323.224-.159-.125.189.241.1.11-.025-.034.2.309.238.393a3.175,3.175,0,0,1,.13,1.951c-.415,1.856-1.747,3.427-2.828,4.954-.6.852-1.2,1.711-1.814,2.556a5.844,5.844,0,0,1-.7.819,2.324,2.324,0,0,1-.346.287l-.21.121c.116-.041.11-.04-.02,0a1.439,1.439,0,0,1-1.361-.175c-.112-.075-.027.023-.192-.176-.344-.416.023.117-.266-.349a2.369,2.369,0,0,1-.381-1,2,2,0,1,0-3.857,1.063,5.769,5.769,0,0,0,6.065,4.692c3.153-.333,4.708-3.238,6.367-5.58,1.681-2.373,3.5-4.765,3.624-7.8a6.4,6.4,0,0,0-1.145-3.983,5.6,5.6,0,0,0-4.062-2.234,2.011,2.011,0,0,0-2,2,2.048,2.048,0,0,0,2,2Z"/><path class="b" d="M165.425,134.821c.051-.129.1-.257.157-.385l-.2.478a36.654,36.654,0,0,1,3.078-5.2,2.018,2.018,0,0,0-.718-2.737,2.043,2.043,0,0,0-2.736.718c-.586.916-1.192,1.821-1.768,2.744a20.139,20.139,0,0,0-1.668,3.324,2.009,2.009,0,0,0,.2,1.541,2,2,0,0,0,2.736.717,2.3,2.3,0,0,0,.919-1.195Z"/><path class="b" d="M123.191,104.4c-1.3-2.383-4.489-2.943-6.92-2.258a6.351,6.351,0,0,0-4.687,5.7c-.3,2.726.908,4.961,2.08,7.317,1.2,2.419,2.534,5.118,3.494,7.446a2.065,2.065,0,0,0,2.46,1.4,2.012,2.012,0,0,0,1.4-2.46c-.864-2.095-1.82-4.149-2.809-6.187q-.8-1.66-1.635-3.309a7.939,7.939,0,0,1-.974-2.482,4.779,4.779,0,0,1,.09-2.047,1.721,1.721,0,0,1,.421-.851c-.187.243.221-.2.236-.209-.245.207.348-.2.346-.2a3.291,3.291,0,0,1,2.068-.365c.144.011.148.014.01.007a2.982,2.982,0,0,1,.31.076,2.919,2.919,0,0,1,.3.094c-.136-.061-.143-.06-.021,0a2.233,2.233,0,0,1,.25.146q-.191-.165-.038-.026a1.934,1.934,0,0,1,.19.194q-.2-.251-.019.039c1.236,2.259,4.692.243,3.454-2.019Z"/><path class="b" d="M117.937,148.618q2.43-17.61,4.81-35.226,1.176-8.622,2.356-17.244a11.716,11.716,0,0,0,.355-2.586c-.084-.727-.432.426-.89.123a2.016,2.016,0,0,0,.594.083l1.428.2,8.259,1.159,21,2.948,8.419,1.182,1.458.2.592.083a1.159,1.159,0,0,0,.272.038l.255.036-.421-.79c-.264.129-.362,2.612-.414,2.986q-.219,1.575-.437,3.148-1.919,13.829-3.841,27.656-.921,6.623-1.844,13.245l-.822,5.893q-.095.677-.19,1.353a5.586,5.586,0,0,0-.081.585c-.149-.1,1.283-.107.841-.412a4.57,4.57,0,0,0-1.406-.194q-19.03-2.626-38.065-5.226l-1.472-.2-.595-.082a1.11,1.11,0,0,0-.339-.047c-.521.181.261-1.025.255.554.01-2.574-3.99-2.578-4,0-.015,3.767,4.557,3.562,7.252,3.933l10.152,1.393q10.975,1.506,21.952,3.012l3.883.535c1.632.225,3.366.653,4.639-.74a5.015,5.015,0,0,0,.967-2.941q.22-1.575.44-3.15.457-3.285.916-6.571,2.067-14.845,4.127-29.694l1.872-13.484c.172-1.244.34-2.367-.477-3.436a3.421,3.421,0,0,0-2.427-1.264l-3.261-.458-21.178-2.974c-5.88-.825-11.774-1.865-17.68-2.48-3.734-.389-3.72,3.7-4.074,6.291q-.59,4.3-1.176,8.606-2.751,20.151-5.5,40.3-.179,1.294-.356,2.587a2.07,2.07,0,0,0,1.4,2.461A2.014,2.014,0,0,0,117.937,148.618Z"/><path class="b" d="M150.237,123.387c.077-.577.161-1.2.248-1.818a2.254,2.254,0,0,1,2.567-1.919c.93.14,1.988.3,2.916.443a2.252,2.252,0,0,1,1.9,2.541l-.248,1.764a2.254,2.254,0,0,1-2.542,1.918c-.934-.129-1.99-.271-2.912-.4A2.253,2.253,0,0,1,150.237,123.387Z"/><path class="f" d="M158.819,112.083c-.059.453-.112.854-.153,1.169a.988.988,0,0,1-1.12.855c-5.575-.77-22.24-3.009-27.138-3.681a.993.993,0,0,1-.854-1.12c.331-2.41.982-7.314,1.146-8.275l7.241.955c7.233,1.015,17.059,2.371,20.821,2.9a.993.993,0,0,1,.851,1.114C159.444,107.29,159.07,110.161,158.819,112.083Z"/><path class="b" d="M157.613,106c-.128,1.213-.274,2.424-.429,3.634-.076.595-.155,1.189-.242,1.782q-.051.353-.106.7c-.019.126-.039.251-.06.376-.032.272-.046.3-.04.087l.882-.514c.35.089.389.11.115.063l-.275-.038c-.231-.021-.462-.063-.692-.095l-1.344-.184-3.32-.451-8.01-1.084-7.7-1.04-3.247-.44a6.458,6.458,0,0,1-2.287-.369l.717.718q-.136,1.011,0-.035c.015-.111.03-.222.044-.334.035-.265.069-.531.1-.8q.135-1.066.267-2.133a20.165,20.165,0,0,1,.562-3.986l-.514.883,0,0-1.009.273a26.51,26.51,0,0,1,4.687.59q2.951.4,5.9.787c3.586.476,7.172.949,10.754,1.454a2.067,2.067,0,0,0,2.46-1.4,2.014,2.014,0,0,0-1.4-2.46c-6.049-.852-12.108-1.624-18.16-2.444-1.3-.176-2.664-.5-3.977-.546-2.015-.066-2.644,1.618-2.861,3.269-.172,1.307-.333,2.616-.5,3.924q-.1.819-.2,1.636a7.865,7.865,0,0,0-.184,1.788c.151,2.715,2.925,2.814,4.97,3.092l6.5.879q7.168.969,14.336,1.94c2.2.3,5.583,1.428,6.928-.969.659-1.175.63-2.941.8-4.245.189-1.439.365-2.88.518-4.323a2.014,2.014,0,0,0-2-2,2.045,2.045,0,0,0-2,2Z"/><path class="b" d="M138.97,121.8c.077-.577.161-1.2.247-1.818a2.255,2.255,0,0,1,2.568-1.918c.93.139,1.988.3,2.915.442a2.254,2.254,0,0,1,1.9,2.542l-.248,1.764a2.253,2.253,0,0,1-2.542,1.917c-.935-.128-1.991-.27-2.912-.4A2.252,2.252,0,0,1,138.97,121.8Z"/><path class="b" d="M125.847,130.362c.076-.577.16-1.2.247-1.818a2.255,2.255,0,0,1,2.568-1.919c.93.14,1.988.3,2.915.443a2.253,2.253,0,0,1,1.9,2.542l-.247,1.763a2.254,2.254,0,0,1-2.543,1.918c-.934-.129-1.99-.271-2.911-.4A2.252,2.252,0,0,1,125.847,130.362Z"/><path class="b" d="M148.594,133.615c.077-.577.161-1.2.248-1.818a2.254,2.254,0,0,1,2.568-1.918c.93.139,1.987.3,2.915.442a2.253,2.253,0,0,1,1.9,2.542l-.248,1.763a2.253,2.253,0,0,1-2.542,1.918c-.934-.128-1.99-.27-2.911-.4A2.253,2.253,0,0,1,148.594,133.615Z"/><path class="b" d="M137.327,132.031c.077-.576.161-1.2.248-1.817a2.255,2.255,0,0,1,2.568-1.919c.93.14,1.987.3,2.915.443a2.251,2.251,0,0,1,1.9,2.541l-.248,1.764a2.253,2.253,0,0,1-2.542,1.918c-.934-.129-1.99-.271-2.912-.4A2.254,2.254,0,0,1,137.327,132.031Z"/><path class="b" d="M124.5,140.515c.077-.576.16-1.2.247-1.817a2.255,2.255,0,0,1,2.568-1.919c.93.14,1.988.3,2.915.443a2.251,2.251,0,0,1,1.9,2.541l-.247,1.764a2.255,2.255,0,0,1-2.542,1.918c-.935-.129-1.991-.271-2.912-.4A2.253,2.253,0,0,1,124.5,140.515Z"/><path class="b" d="M147.251,143.769c.077-.577.16-1.2.247-1.818a2.255,2.255,0,0,1,2.568-1.919c.93.14,1.988.3,2.915.443a2.252,2.252,0,0,1,1.9,2.542l-.247,1.763a2.254,2.254,0,0,1-2.542,1.918c-.935-.129-1.991-.271-2.912-.4A2.252,2.252,0,0,1,147.251,143.769Z"/><path class="b" d="M135.983,142.185c.077-.577.161-1.2.248-1.818a2.255,2.255,0,0,1,2.568-1.918c.93.139,1.987.3,2.915.443a2.251,2.251,0,0,1,1.9,2.541l-.248,1.764a2.252,2.252,0,0,1-2.542,1.917c-.934-.128-1.99-.27-2.911-.4A2.253,2.253,0,0,1,135.983,142.185Z"/></svg>