<?xml version="1.0" encoding="utf-8"?>
<!-- Uploaded to: SVG Repo, www.svgrepo.com, Generator: SVG Repo Mixer Tools -->
<svg width="800px" height="800px" viewBox="-75.88 0 422.164 422.164" xmlns="http://www.w3.org/2000/svg"><defs><style>.a{fill:#ffffff;}.b{fill:#7a7473;}.c{fill:#211715;}.d{fill:#d9d9d9;}</style></defs><path class="a" d="M185.381,85.685a7.763,7.763,0,0,1,6.214-1.818,7.333,7.333,0,0,1,5.272,3.5,10.35,10.35,0,0,1,1.085,4.171,31.068,31.068,0,0,1-3.167,16.469,19.752,19.752,0,0,1-5.107,6.7,13.091,13.091,0,0,1-6.088,2.744l-1.042.161c-.5,1.87-1.061,3.445-1.337,4.281-1.632,4.431-10.173,18.9-21.265,25.907a96.631,96.631,0,0,0,1.286,13.808c.734,4.191.5,7.937,6.33,10.041.386.139,6.849,3.125,7.721,3.509,0,0-8.63,25.148-42.408,25.148-31.111,0-36.644-27.2-36.644-27.2.713-.305,3.583-1.317,3.969-1.456,5.826-2.1,5.6-5.85,6.331-10.041a107.811,107.811,0,0,0,1.219-12.765s.006-.161.012-.443A47.379,47.379,0,0,1,95,137.418a52.822,52.822,0,0,1-10.069-19.654l-1.985-.306a13.09,13.09,0,0,1-6.089-2.744,19.761,19.761,0,0,1-5.106-6.7,31.069,31.069,0,0,1-3.168-16.469,10.368,10.368,0,0,1,1.086-4.171,7.333,7.333,0,0,1,5.272-3.5,7.764,7.764,0,0,1,6.214,1.818S79.1,39.869,133.319,39.869,185.381,85.685,185.381,85.685Z"/><path class="b" d="M114.171,4.171c-11.332,2.361-20.146,7.3-28.989,16.964C78.4,28.544,74.652,37.4,72.555,46.127c-1.281,4.3-2.244,16-2.959,18.414-.7,2.367-3.927,4.842-3.491,7.166a7.391,7.391,0,0,0,3.5,5.363L73.917,84.1a6.366,6.366,0,0,1,1.026-.237,7.764,7.764,0,0,1,6.214,1.818L85.8,78.559C86.95,74.28,90.968,68.4,97.12,62.952c6.459-5.722,16.4-10.159,24.741-10.744,5.476-1.61,8.9-2.534,13.347-3.423,5.357-1.071,11.111-1.333,14.611-.166,13.331,6.094,28.637,23.772,34.457,38.394a7.445,7.445,0,0,1,7.319-3.146,6.927,6.927,0,0,1,.732.149c4.124-12.769,3.115-29.255-.7-39.007-2.575-6.582-6.522-14.178-14.515-18.565l-7.845-6.439C162.37,4.06,140.653,1.6,125.955,2.624A87.9,87.9,0,0,0,114.171,4.171Z"/><path class="c" d="M171.338,18.794c-4.244-9.633-13.967-14.906-23.832-17.125-10.222-2.3-21.012-2.046-31.3-.314a57.7,57.7,0,0,0-15.514,4.813A54.2,54.2,0,0,0,87,15.85,59.56,59.56,0,0,0,69.568,48.492c-.905,4.994-1.131,10.033-2.132,14.769-.549,2.6-3.14,4.271-3.655,6.965-.656,3.434,1.761,7.232,4.616,8.917,2.666,1.573,5.084-2.575,2.423-4.145a4.57,4.57,0,0,1-1.968-2.324,2.159,2.159,0,0,1,.164-2.6c1.163-1.879,2.634-3.461,3.081-5.695.83-4.149,1.115-8.412,1.764-12.592,1.752-11.3,6.384-22.107,14.366-30.392a53.714,53.714,0,0,1,12.248-9.7,49.084,49.084,0,0,1,13.511-5.027A77.887,77.887,0,0,1,142.8,5.635c9.966,1.622,20.1,5.829,24.392,15.582a2.417,2.417,0,0,0,3.284.861,2.462,2.462,0,0,0,.861-3.284Z"/><path class="c" d="M175.9,28.517c6.405,3.581,10.428,9.718,13.118,16.389,2.878,7.138,3.753,14.994,3.545,22.643A58.754,58.754,0,0,1,190.5,81.786c-.832,2.98,3.8,4.252,4.629,1.276a68.018,68.018,0,0,0,1.582-27.3,50.487,50.487,0,0,0-7.929-21.631,31.074,31.074,0,0,0-10.456-9.761c-2.7-1.509-5.122,2.636-2.422,4.145Z"/><path class="c" d="M187.078,87.382a5.254,5.254,0,0,1,7.538.9c.961,1.412.993,3.393,1.038,5.038a27.53,27.53,0,0,1-.38,5.567c-1.209,6.77-4.782,14.952-12.322,16.256a2.419,2.419,0,0,0-1.676,2.952,2.454,2.454,0,0,0,2.952,1.676c7.831-1.354,12.5-8.651,14.717-15.7a32.906,32.906,0,0,0,1.471-11.637c-.223-3.932-1.362-7.682-4.991-9.73a10.274,10.274,0,0,0-11.741,1.287,2.42,2.42,0,0,0,0,3.394,2.449,2.449,0,0,0,3.394,0Z"/><path class="c" d="M181.11,111.676a26.116,26.116,0,0,1-1.242,6.593c-.242.809-.507,1.611-.776,2.412-.077.231-.155.461-.236.69-.027.077-.061.152-.089.229-.161.454.245-.544.032-.072a52.686,52.686,0,0,1-3.434,6.29,61.559,61.559,0,0,1-13.854,15.972,26.252,26.252,0,0,1-10.164,5.13c-3.009.692-1.736,5.321,1.276,4.629,7.777-1.79,14.292-7.388,19.422-13.255a66.975,66.975,0,0,0,10.746-16,34.109,34.109,0,0,0,3.119-12.618c.1-3.089-4.7-3.086-4.8,0Z"/><path class="c" d="M82.854,83.988a10.235,10.235,0,0,0-10.341-1.935c-3.8,1.5-5.744,4.686-6.233,8.632a31.933,31.933,0,0,0,5.577,22.143,16.743,16.743,0,0,0,10.452,6.944,2.471,2.471,0,0,0,2.953-1.676,2.42,2.42,0,0,0-1.676-2.952c-7.534-1.3-11.123-9.486-12.322-16.256a27.754,27.754,0,0,1-.38-5.567c.044-1.661.088-3.606,1.038-5.038a5.252,5.252,0,0,1,7.538-.9,2.463,2.463,0,0,0,3.394,0,2.421,2.421,0,0,0,0-3.394Z"/><path class="c" d="M80.946,110.947c2.832,16.339,11.7,32.357,26.862,40.216a36.436,36.436,0,0,0,13.1,3.909,2.416,2.416,0,0,0,2.4-2.4,2.453,2.453,0,0,0-2.4-2.4c-15.563-1.616-27.681-15.595-32.556-29.617a69.56,69.56,0,0,1-2.783-10.984A2.419,2.419,0,0,0,82.622,108a2.454,2.454,0,0,0-1.676,2.952Z"/><path class="c" d="M105.35,148.85a90.781,90.781,0,0,1-1.778,16,5.108,5.108,0,0,1-2.856,3.974,53.7,53.7,0,0,1-5.123,1.975,2.479,2.479,0,0,0-1.677,2.952,2.417,2.417,0,0,0,2.953,1.677,66.53,66.53,0,0,0,6.27-2.46,9.907,9.907,0,0,0,4.873-6.1,52.359,52.359,0,0,0,1.275-7.6c.454-3.458.715-6.94.863-10.423.131-3.089-4.67-3.082-4.8,0Z"/><path class="c" d="M157.629,150.257a115.4,115.4,0,0,0,1.383,12.564c.46,2.868.827,5.681,2.816,7.959a11.3,11.3,0,0,0,4.339,2.893c.232.095,1.373.671.349.124.1.054.215.092.32.141.437.2.877.4,1.315.595,1.975.9,3.938,1.824,5.921,2.7a2.475,2.475,0,0,0,3.283-.861,2.418,2.418,0,0,0-.861-3.284c-1.8-.8-3.578-1.635-5.367-2.452s-4.118-1.439-5.526-2.845-1.574-3.81-1.938-6.109a106.843,106.843,0,0,1-1.234-11.429c-.153-3.074-4.954-3.092-4.8,0Z"/><path class="c" d="M149.5,49.884c5.726,2.655,10.605,6.83,14.944,11.354a91.434,91.434,0,0,1,12.55,16.568,71.777,71.777,0,0,1,4.9,9.666,2.477,2.477,0,0,0,2.953,1.676,2.416,2.416,0,0,0,1.676-2.952,86.1,86.1,0,0,0-10.387-18.381,83.99,83.99,0,0,0-14.994-16.149,45.336,45.336,0,0,0-9.217-5.926,2.468,2.468,0,0,0-3.283.861,2.418,2.418,0,0,0,.861,3.283Z"/><path class="c" d="M144.406,46.642a25.6,25.6,0,0,0-9.978-12.332,33.874,33.874,0,0,0-18.2-5.406c-3.09-.037-3.092,4.763,0,4.8a29.226,29.226,0,0,1,15.414,4.512,21.688,21.688,0,0,1,5.338,4.941,22.754,22.754,0,0,1,1.733,2.566,13.775,13.775,0,0,1,1.069,2.2,2.459,2.459,0,0,0,2.952,1.676,2.422,2.422,0,0,0,1.677-2.952Z"/><path class="c" d="M132.955,46.671a14.4,14.4,0,0,0-5.8-3.644,29.072,29.072,0,0,0-7.645-1.8,30.779,30.779,0,0,0-15.471,2.24,2.415,2.415,0,0,0-.861,3.284,2.464,2.464,0,0,0,3.284.861,26.039,26.039,0,0,1,12.665-1.624c3.427.333,8.088,1.31,10.433,4.074a2.42,2.42,0,0,0,3.394,0,2.45,2.45,0,0,0,0-3.394Z"/><path class="c" d="M121.861,49.808a46.1,46.1,0,0,0-23.573,9.137,50.123,50.123,0,0,0-9.472,9.3,28.658,28.658,0,0,0-5.329,9.673c-.832,2.98,3.8,4.252,4.629,1.276a23.7,23.7,0,0,1,4.34-7.87,44.274,44.274,0,0,1,8.569-8.471c5.98-4.388,13.381-7.677,20.836-8.248a2.46,2.46,0,0,0,2.4-2.4,2.42,2.42,0,0,0-2.4-2.4Z"/><path class="b" d="M265.085,295.028c-2.6-11.239-11.688-38.3-15.423-51.37-4.336-15.178-12.178-43.731-20.567-51.033a22.973,22.973,0,0,0-2.159-1.432c-2.746-1.654-6.066-2.073-8.882-3.6a444.9,444.9,0,0,0-48.688-23.305l-1.1-.417a384.461,384.461,0,0,1-8.687,37.536c-7.186,24.12-15.858,47.789-22.7,63.3l-1.838-2.95c-6.243-13.482-17.844-40.548-26.309-64.8-4.687-13.428-8.809-24.537-11.054-31.454a452.857,452.857,0,0,0-45.721,22.088c-2.7,1.469-6.043,1.8-8.523,3.6A7.209,7.209,0,0,0,41.78,192.5c-8.564,6.648-16.611,35.96-21.026,51.411-3.734,13.071-12.827,40.132-15.423,51.37-3.044,13.184-5.921,22.1,3.462,32.529,4.467,4.962,10.651,8.813,16,11.753,6.126,3.369,21.558,11.635,34.2,17.9-2.234,20.829-3.993,36.32-5.82,59.589,11.861,2.486,45.941,3.786,57.211-1.262,12.521-5.607,21.9-39.786,24.547-54.065l.385-1.071q.246,1.307.508,2.628c4.648,23.429,12.988,49.507,23.818,53.464,12.015,4.391,47.286,3.368,59.85.808-1.879-24.027-3.681-39.74-5.994-61.374,12.211-6.114,26.338-13.686,32.134-16.874,5.345-2.939,11.529-6.79,16-11.752C271.006,317.133,268.13,308.212,265.085,295.028Zm-217.337,6.4c.047-.278.068-.432.068-.432.54-3.88,3.549-11.285,7.334-19.369,1.017-2.172,2.09-4.393,3.186-6.607.953,11.828,1.89,24.889,2.551,34.51C55.648,306.44,50.872,303.472,47.748,301.426Zm163.993,6.539c.533-8.695,1.24-19.811,1.99-30.258q.676,1.4,1.332,2.78c4.035,8.523,7.306,16.446,7.87,20.507C220.254,302.76,216.245,305.269,211.741,307.965Z"/><path class="b" d="M170.9,163.352q-.252-.162-.472-.289s-.722-.418-1.775-1.034c-1.061,5.936-4.66,24.551-9.071,39.373-8.58,28.8-19.28,56.96-26.47,71.37-2.38,5.03-5.13,9.06-5.13,18.43.006.866.241,4,.642,8.627l22.359-29.042c6.5-8.237,39.071-62.048,38.626-64.594-.333-1.9-4.251-5.791-8.055-9.061,3.089-3.3,8.884-9.86,10.728-12.422C193.582,182.9,176.467,166.926,170.9,163.352Z"/><path class="b" d="M80.65,202.057c-1.757,1.842-3.036,3.511-3.222,4.574-.457,2.616,37.034,55.344,45.614,63.55l7.374,8.231c.838-1.967,1.8-3.732,2.7-5.64,1.151-2.307,2.392-4.966,3.7-7.924-1.048-1.828-1.774-3.092-1.774-3.092-6.243-13.482-17.844-40.548-26.309-64.8-5.062-14.5-9.464-26.3-11.556-33.034l-.668.386c-5.122,2.962-23.22,18.852-21.824,20.747,1.974,2.679,6.946,9.614,10.254,12.939C83.412,199.33,81.908,200.738,80.65,202.057Z"/><path class="a" d="M157.444,159.43A78.721,78.721,0,0,1,138.888,171.4c-.468.212-.989.471-1.14.962a1.813,1.813,0,0,0,.261,1.276,11.157,11.157,0,0,0,.907,1.313l-9.576.018a11.218,11.218,0,0,0,.921-1.331,1.813,1.813,0,0,0,.261-1.276c-.151-.491-.672-.75-1.14-.962a78.282,78.282,0,0,1-22.59-15.743,39.6,39.6,0,0,0-8.464,11.817c2.341,6.968,6.138,17.266,10.4,29.482,8.465,24.253,20.066,51.319,26.309,64.8l1.6,3.487c6.887-15.5,15.677-39.443,22.946-63.841,3.951-13.273,7.249-29.59,8.657-37.117a36.743,36.743,0,0,0-6.763-8.629C160.2,156.953,158.847,158.214,157.444,159.43Z"/><path class="d" d="M126.084,190.033a12.405,12.405,0,0,1,.511,3.113c0,.657-2.386,20.21-4.616,38.451,4.646,11.33,9.079,21.476,12.318,28.546l4.527.038c3.041-7.206,6.352-15.744,9.688-25.047-2.8-18.8-6.108-40.579-6.093-41.64a18.887,18.887,0,0,1,1.213-5.526c.643-1.96,1.075-3.679,1.47-5.353-.829-1-1.649-2-2.421-2.945-1.556-1.9-2.911-3.59-3.764-4.721l-9.577.018c-.854,1.13-2.2,2.81-3.751,4.7-.438.536-.893,1.09-1.355,1.652.479,2.435.94,4.871,1.509,7.307Q125.907,189.331,126.084,190.033Z"/><path class="c" d="M127.315,195.407c4.88,0,9.759-.108,14.638-.11a2.4,2.4,0,1,0,0-4.8c-4.879,0-9.758.108-14.638.11a2.4,2.4,0,1,0,0,4.8Z"/><path class="c" d="M121.919,181.96c.419,2.135.826,4.272,1.3,6.395.348,1.555,1.032,3.248.97,4.856-.049,1.292-.28,2.6-.43,3.883-.763,6.519-1.561,13.034-2.355,19.55q-.883,7.239-1.771,14.478a2.413,2.413,0,0,0,2.4,2.4,2.46,2.46,0,0,0,2.4-2.4q1.507-12.3,3-24.6c.528-4.369,1.3-8.8,1.547-13.193a19.308,19.308,0,0,0-.923-5.333c-.568-2.423-1.031-4.869-1.51-7.31a2.423,2.423,0,0,0-2.952-1.676,2.45,2.45,0,0,0-1.677,2.952Z"/><path class="c" d="M150.708,233.694q-1.866-12.487-3.734-24.976-.724-4.876-1.432-9.758-.237-1.649-.466-3.3c-.038-.277-.088-.658-.021-.155-.024-.177-.047-.355-.07-.532-.04-.31-.082-.621-.115-.932a9.526,9.526,0,0,1,.506-3.622c.691-2.395,1.473-4.741,2.042-7.171.7-3-3.923-4.287-4.629-1.276-.5,2.119-1.107,4.189-1.763,6.263a15.815,15.815,0,0,0-.993,5.438c.091,1.691.43,3.391.667,5.065,1,7.066,2.07,14.123,3.127,21.182q1.125,7.524,2.252,15.048a2.417,2.417,0,0,0,2.953,1.676,2.461,2.461,0,0,0,1.676-2.952Z"/><path class="c" d="M138.924,172.552c-3.194,0-6.387.01-9.58.01a2.4,2.4,0,1,0,0,4.8c3.193,0,6.386-.01,9.58-.01a2.4,2.4,0,1,0,0-4.8Z"/><path class="c" d="M153.683,192.652c5.518-5.527,9.8-12.079,13.843-18.723.993-1.634,1.977-3.274,2.97-4.909.621-1.021,1.519-2.088,1.168-3.366a11.114,11.114,0,0,0-1.236-2.394,39.877,39.877,0,0,0-7.253-9.3,2.442,2.442,0,0,0-3.394,0A75.5,75.5,0,0,1,140.832,167.8c-1.5.774-3.489,1.334-4.649,2.6-1.352,1.475-.9,3.563.142,5.06,1.978,2.834,4.286,5.467,6.482,8.131,2.492,3.024,5.01,6.026,7.482,9.065a2.417,2.417,0,0,0,3.394,0,2.455,2.455,0,0,0,0-3.394c-2.472-3.04-4.99-6.041-7.482-9.065-1.358-1.648-2.715-3.3-4.047-4.969-.477-.6-2.064-2.115-2.006-2.863l-.328,1.212c-.109.224-.447.226,0,.033.219-.1.436-.2.653-.3q.84-.388,1.67-.8,1.6-.792,3.164-1.662,3.219-1.791,6.263-3.879a80.218,80.218,0,0,0,11.609-9.611h-3.394a37.384,37.384,0,0,1,7.5,10.151v-2.423c-5.158,8.408-9.963,17.138-16.989,24.177C148.1,191.447,151.5,194.842,153.683,192.652Z"/><path class="c" d="M117.981,189.258c-7.026-7.039-11.831-15.769-16.989-24.177V167.5a37.369,37.369,0,0,1,7.5-10.151H105.1a80.218,80.218,0,0,0,11.609,9.611q2.952,2.022,6.077,3.775,1.563.874,3.165,1.674.829.412,1.67.8c.232.108.463.218.7.323.426.191.317.4.137.034l-.328-1.212c.058.748-1.529,2.266-2.006,2.863-1.332,1.67-2.689,3.321-4.047,4.969-2.492,3.024-5.01,6.025-7.482,9.065a2.47,2.47,0,0,0,0,3.394,2.418,2.418,0,0,0,3.394,0c4.479-5.508,9.2-10.846,13.468-16.52a5.607,5.607,0,0,0,1.473-3.771c-.158-2.332-2.407-3.039-4.182-3.909a77.355,77.355,0,0,1-9.975-5.882,73.294,73.294,0,0,1-10.276-8.611,2.444,2.444,0,0,0-3.394,0,39.9,39.9,0,0,0-7.253,9.3,11.2,11.2,0,0,0-1.236,2.394c-.353,1.28.548,2.346,1.168,3.366.994,1.634,1.977,3.275,2.97,4.909,4.04,6.644,8.325,13.195,13.843,18.723C116.772,194.841,120.167,191.448,117.981,189.258Z"/><path class="c" d="M55.524,417.662c1.224-15.679,2.761-31.326,4.437-46.962q.709-6.62,1.423-13.238a2.415,2.415,0,0,0-2.4-2.4,2.454,2.454,0,0,0-2.4,2.4c-1.629,15.2-3.3,30.4-4.649,45.623q-.645,7.286-1.211,14.577a2.42,2.42,0,0,0,2.4,2.4,2.448,2.448,0,0,0,2.4-2.4Z"/><path class="c" d="M56.024,276.092q1.329,16.707,2.46,33.43a2.457,2.457,0,0,0,2.4,2.4,2.421,2.421,0,0,0,2.4-2.4q-1.149-16.72-2.46-33.43a2.461,2.461,0,0,0-2.4-2.4,2.419,2.419,0,0,0-2.4,2.4Z"/><path class="c" d="M44.761,193.242c2.872,20.082,7.048,40.335,9.224,60.251.822,7.518,1.432,15.06,2.037,22.6a2.461,2.461,0,0,0,2.4,2.4,2.419,2.419,0,0,0,2.4-2.4c-.944-11.769-1.982-23.507-3.705-35.189-1.643-11.139-3.507-22.244-5.3-33.358-.839-5.188-1.68-10.376-2.424-15.578a2.416,2.416,0,0,0-2.953-1.677,2.464,2.464,0,0,0-1.676,2.953Z"/><path class="c" d="M142.191,295.581c0-.238.018-.473.036-.71.035-.466-.117.624-.021.168.025-.116.045-.233.072-.348.055-.232.13-.454.2-.679.143-.434-.271.543-.058.139.073-.14.141-.28.223-.416.061-.1.129-.2.194-.3.249-.38-.4.438-.08.111.167-.17.371-.328.526-.506-.383.438-.3.22-.078.08.072-.047.147-.092.221-.134a2.236,2.236,0,0,0,.355-.182q-.549.222-.191.083c.09-.033.18-.063.271-.091s.888-.194.889-.2l-.315.044c.112-.012.224-.022.336-.029.176-.011.354-.019.53-.016s.335.022.5.032c.563.034-.539-.127-.01,0a5.554,5.554,0,0,0,.984.28l-.318-.135q.123.055.243.117c.118.061.233.127.344.2.2.128.35.369-.066-.077.055.058.135.111.194.163.187.168.333.375.515.544-.448-.415-.215-.285-.083-.083a4.98,4.98,0,0,1,.25.431c.1.189.158.532-.031-.116.035.121.092.239.132.359a6.462,6.462,0,0,1,.2.749c.026.128.036.265.069.39-.179-.67-.042-.327-.025-.108a7.207,7.207,0,0,1,.024.869c0,.081-.012.162-.016.244-.011.245-.146.313.046-.29-.062.194-.074.413-.127.612a3.319,3.319,0,0,0-.2.615c.006-.389.224-.5.063-.168-.066.134-.138.267-.215.4-.059.1-.125.192-.187.288-.241.378.4-.45.092-.117-.162.178-.329.344-.5.511-.331.322.49-.325.1-.068-.106.069-.21.143-.319.208-.074.045-.15.088-.227.128-.572.3.36-.1-.044.035a8.139,8.139,0,0,1-.84.242l-.15.029c-.261.043-.205.037.167-.016a3.059,3.059,0,0,1-.5.038,9.78,9.78,0,0,0-1-.024l.331.048c-.1-.014-.2-.032-.294-.052a5.163,5.163,0,0,1-.55-.143c-.268-.087-.371-.275.071.048-.131-.1-.312-.153-.454-.238-.1-.061-.2-.155-.311-.2.535.248.293.237.109.071-.088-.08-.174-.163-.255-.25-.171-.181-.343-.579,0,.035-.131-.235-.3-.447-.425-.688-.052-.1-.093-.21-.148-.309.37.668.108.258.036.044a6.659,6.659,0,0,1-.208-.75c-.023-.106-.037-.214-.061-.32-.093-.4.058.708.016.114-.017-.233-.033-.464-.035-.7a2.4,2.4,0,1,0-4.8,0c.02,2.838,1.291,5.914,3.938,7.253,3.094,1.566,7.492,1.048,9.789-1.695a8.446,8.446,0,0,0,1.387-8.345,7.5,7.5,0,0,0-3.143-3.917,8.705,8.705,0,0,0-5.724-.932,7.27,7.27,0,0,0-4.872,2.974,8.086,8.086,0,0,0-1.375,4.662,2.4,2.4,0,0,0,4.8,0Z"/><path class="c" d="M211.094,356.182c1.652,15.486,3.367,30.965,4.748,46.478q.667,7.5,1.252,15a2.46,2.46,0,0,0,2.4,2.4,2.42,2.42,0,0,0,2.4-2.4c-1.247-15.939-2.821-31.844-4.526-47.739q-.736-6.872-1.474-13.741a2.471,2.471,0,0,0-2.4-2.4,2.415,2.415,0,0,0-2.4,2.4Z"/><path class="c" d="M214.144,307.962c1.016-16.634,2.016-33.285,3.557-49.881,1.312-14.137,3.63-28.067,5.8-42.256q1.764-11.536,3.588-23.065a2.475,2.475,0,0,0-1.676-2.952,2.419,2.419,0,0,0-2.953,1.676c-2.353,14.892-4.669,29.791-6.814,44.714-.918,6.39-1.846,12.785-2.487,19.209-.783,7.841-1.358,15.7-1.917,23.562q-1.031,14.492-1.9,28.993c-.189,3.085,4.612,3.074,4.8,0Z"/><path class="c" d="M139.239,387c2.548,8.2,5.525,16.721,10.426,23.857a24.394,24.394,0,0,0,6.631,6.892,19.728,19.728,0,0,0,6.645,2.409,104.662,104.662,0,0,0,18.185,1.872c6.844.239,13.7.15,20.542-.2a126.358,126.358,0,0,0,18.484-1.963,2.4,2.4,0,0,0-1.276-4.628c-.981.2-1.968.366-2.957.514-.3.045-.593.087-.89.129-.392.055.148-.016-.41.054-.616.077-1.232.152-1.848.221-2.865.321-5.74.552-8.618.732q-9.779.609-19.59.433a129.485,129.485,0,0,1-17.738-1.305,39.454,39.454,0,0,1-6.383-1.517c-.129-.044-.26-.092-.386-.143.047.019.29.129.037.011s-.5-.245-.743-.381a12.7,12.7,0,0,1-1.388-.915,20,20,0,0,1-3-3.064A47.834,47.834,0,0,1,149,399.651a120.217,120.217,0,0,1-5.128-13.927c-.913-2.941-5.548-1.686-4.629,1.276Z"/><path class="c" d="M52.716,419.406a111.842,111.842,0,0,0,14.462,1.73q9.219.637,18.474.479a119.892,119.892,0,0,0,17.611-1.418c5-.836,9.619-2.258,13.273-5.969,6.146-6.243,9.695-15.02,12.7-23.088a2.42,2.42,0,0,0-1.676-2.952,2.453,2.453,0,0,0-2.953,1.676c-2.532,6.793-5.483,14.04-10.236,19.62a20.8,20.8,0,0,1-2.818,2.806,11.693,11.693,0,0,1-1.66,1.072c-.237.128-.48.242-.723.358-.1.049-.419.171.067-.026-.118.048-.235.1-.354.14a36.855,36.855,0,0,1-5.874,1.555,103.8,103.8,0,0,1-16.043,1.4c-5.934.149-11.877.028-17.8-.324-2.924-.173-5.846-.4-8.757-.726q-.943-.105-1.886-.223l-.361-.046c-.761-.1.242.034-.185-.025q-.4-.055-.792-.114c-1.069-.158-2.134-.337-3.193-.551a2.46,2.46,0,0,0-2.953,1.676,2.423,2.423,0,0,0,1.677,2.952Z"/><path class="a" d="M207.474,237.481H178.885c0,1.894.046,7.4.046,9.686,4.771,0,24.952.042,28.543.042C207.474,244.052,207.439,237.858,207.474,237.481Z"/><path class="a" d="M202.587,227.5c-.057-.432-.1-.834-.133-1.192a15.358,15.358,0,0,0-4.446,1.362l.115-1.27a17.682,17.682,0,0,0-1.231-6.246,54.45,54.45,0,0,0-7.978,5.672c-1.859,1.609-5.982,6.1-6.206,8.681l-.258,2.973h20.585c.136-1.228.222-2,.222-2C203.518,233.13,202.9,229.852,202.587,227.5Z"/><path class="c" d="M185.108,234.508c-.092.832.088-.1.142-.336.1-.448-.227.431.009-.035.066-.131.127-.265.2-.4a15.718,15.718,0,0,1,1.191-1.9c.1-.14.2-.278.307-.417s.084-.111-.057.072l.195-.246q.359-.446.732-.879.731-.844,1.514-1.641a40.892,40.892,0,0,1,8.767-6.506l-3.283-.861c.046.082.085.168.131.25.116.21-.2-.6-.063-.128.068.236.151.467.217.7.159.579.283,1.168.389,1.758.052.284.083.573.14.856.071.349-.064-.586,0-.006.012.113.026.225.038.338a7.5,7.5,0,0,1,.052,1.262,2.413,2.413,0,0,0,2.4,2.4,2.457,2.457,0,0,0,2.4-2.4,15.548,15.548,0,0,0-.4-3.726,11.668,11.668,0,0,0-1.159-3.731,2.435,2.435,0,0,0-3.283-.861,45.878,45.878,0,0,0-9.993,7.517c-2.338,2.426-4.995,5.428-5.38,8.908a2.407,2.407,0,0,0,2.4,2.4,2.469,2.469,0,0,0,2.4-2.4Z"/><path class="c" d="M196.238,232.26a11.174,11.174,0,0,1,1.664-1.718c.063-.051.326-.261.024-.023s-.039.035.028-.012q.216-.155.441-.3a10.326,10.326,0,0,1,.969-.542c.155-.077.317-.14.471-.218-.062.031-.518.208-.213.093l.242-.094q.49-.182.994-.326a21.838,21.838,0,0,1,2.234-.5l-3.038-2.314c.07.833.192,1.662.309,2.49.054.379.111.758.166,1.138.03.21.061.42.09.63.014.095.027.189.04.284.06.434-.057-.443-.018-.136a21.019,21.019,0,0,1,.216,4.766,2.4,2.4,0,0,0,.7,1.7,2.438,2.438,0,0,0,1.7.7,2.468,2.468,0,0,0,2.4-2.4,20.566,20.566,0,0,0-.216-4.766c-.125-.957-.264-1.911-.4-2.866-.025-.173-.05-.345-.074-.518-.057-.407,0,.066.026.2-.013-.079-.021-.16-.031-.239-.042-.328-.078-.657-.106-.986A2.447,2.447,0,0,0,201.816,224a14.165,14.165,0,0,0-8.972,4.871,2.615,2.615,0,0,0-.7,1.7,2.4,2.4,0,0,0,4.1,1.7Z"/><path class="c" d="M207.474,235.081H178.885a2.435,2.435,0,0,0-2.4,2.4c0,3.229.044,6.457.046,9.686a2.435,2.435,0,0,0,2.4,2.4c9.514,0,19.029.041,28.543.042a2.435,2.435,0,0,0,2.4-2.4c0-3.226-.2-6.508,0-9.728.193-3.085-4.608-3.073-4.8,0-.2,3.22,0,6.5,0,9.728l2.4-2.4c-9.514,0-19.029-.041-28.543-.042l2.4,2.4c0-3.229-.044-6.457-.046-9.686l-2.4,2.4h28.589C210.563,239.881,210.568,235.081,207.474,235.081Z"/><path class="c" d="M54.861,276.672c-2.2,4.551-4.32,9.146-6.218,13.832a43.9,43.9,0,0,0-3.141,9.852,2.479,2.479,0,0,0,1.676,2.952,2.418,2.418,0,0,0,2.953-1.676,42.775,42.775,0,0,1,3-9.5c1.776-4.422,3.8-8.746,5.875-13.035a2.464,2.464,0,0,0-.861-3.284,2.421,2.421,0,0,0-3.283.861Z"/><path class="c" d="M211.744,279.1c2.074,4.289,4.1,8.613,5.876,13.035a42.827,42.827,0,0,1,3,9.5,2.416,2.416,0,0,0,2.952,1.676,2.461,2.461,0,0,0,1.676-2.952,43.892,43.892,0,0,0-3.14-9.852c-1.9-4.686-4.018-9.281-6.218-13.832a2.422,2.422,0,0,0-3.284-.861,2.451,2.451,0,0,0-.861,3.284Z"/><path class="c" d="M97.114,163.155c-8.388,3.482-16.682,7.181-24.84,11.172q-5.708,2.793-11.334,5.744-2.868,1.5-5.72,3.028a52.622,52.622,0,0,1-5.74,3c-2.142.824-4.414,1.331-6.421,2.485a19.037,19.037,0,0,0-4.62,3.675c-2.054,2.3,1.33,5.7,3.394,3.394a15.2,15.2,0,0,1,3.476-2.826,29.923,29.923,0,0,1,5.257-2.03c3.992-1.472,7.709-3.907,11.47-5.885,7.363-3.874,14.814-7.579,22.38-11.039q6.932-3.171,13.974-6.088a2.479,2.479,0,0,0,1.676-2.953,2.414,2.414,0,0,0-2.952-1.676Z"/><path class="c" d="M168.728,166.6q13.051,5.3,25.734,11.448,5.964,2.9,11.841,5.986,2.994,1.563,5.968,3.16c2.009,1.076,3.984,2.282,6.081,3.179,2.232.954,4.683,1.438,6.827,2.586a14.06,14.06,0,0,1,4.56,3.766,2.416,2.416,0,0,0,3.394,0,2.461,2.461,0,0,0,0-3.395c-2.714-3.417-6.517-5.149-10.571-6.5-4.281-1.421-8.186-3.974-12.168-6.071-8.094-4.262-16.3-8.319-24.638-12.073q-7.809-3.513-15.752-6.72a2.415,2.415,0,0,0-2.952,1.676,2.46,2.46,0,0,0,1.676,2.953Z"/><path class="c" d="M135.034,339.992c-1.5-13.574-2.891-27.166-4.061-40.773a77.663,77.663,0,0,1-.552-9.851,28.737,28.737,0,0,1,1.5-8.227A54.49,54.49,0,0,1,134.7,275c5.048-10.3,9.353-20.934,13.368-31.672,5.317-14.218,10.216-28.643,14.4-43.236a376.557,376.557,0,0,0,8.5-37.42l-3.525,1.435c1.089.636,2.182,1.245,3.209,1.98.243.174.482.354.723.532.1.076.2.155.307.233-.449-.342.1.079.158.124q.885.7,1.753,1.419c2.767,2.294,5.437,4.709,8.035,7.192a92.655,92.655,0,0,1,6.744,6.987c.206.243.406.489.608.735.449.549-.131-.221.244.32.257.37.492.749.736,1.127.338.526-.029-.135,0-.044.162.513-.006-.377-.007-.233a3.909,3.909,0,0,1,.281-1.015.938.938,0,0,1-.191.267c-.074.056-.335.446-.079.112-.151.2-.306.39-.46.583-3.045,3.807-6.318,7.454-9.646,11.014a2.427,2.427,0,0,0,0,3.394,56.864,56.864,0,0,1,6.078,5.883,11.092,11.092,0,0,1,.819,1.054c.1.151.2.305.291.46.037.061.4.489.193.339l-.039-.09q.132.492.012-.261c0,.016,0,.033,0,.049-.034.285.255-.757.048-.4a2.585,2.585,0,0,0-.142.452c-.036.109-.088.212-.124.32-.14.419.3-.65.017-.046-.3.645-.6,1.29-.924,1.927-2.271,4.5-4.816,8.877-7.343,13.239q-10.407,17.962-21.555,35.494c-1.595,2.5-3.2,5-4.854,7.47-.62.926-1.246,1.849-1.887,2.762q-.4.569-.81,1.131c-.113.154-.228.306-.341.46-.386.526.291-.367-.012.018a2.478,2.478,0,0,0,0,3.394,2.416,2.416,0,0,0,3.394,0c2.765-3.517,5.151-7.344,7.564-11.106,3.7-5.772,7.313-11.6,10.883-17.459,6.541-10.728,13.251-21.482,18.957-32.687a19.1,19.1,0,0,0,1.823-4.172c.427-1.867-.833-3.56-1.925-4.945a49.988,49.988,0,0,0-6.731-6.68v3.394c3.207-3.43,6.347-6.948,9.307-10.594,1.083-1.333,2.507-2.649,2.1-4.519a6.96,6.96,0,0,0-1.291-2.515,61.4,61.4,0,0,0-6.76-7.476q-4.1-4.037-8.489-7.777a57.432,57.432,0,0,0-8.255-5.991,2.419,2.419,0,0,0-3.525,1.434c-1.986,11.085-4.377,22.13-7.282,33.011-3.894,14.585-8.79,28.962-13.958,43.139a339.617,339.617,0,0,1-13.588,33.066c-2.174,4.441-4.526,8.81-5.362,13.742a46.58,46.58,0,0,0-.239,11.747c1.183,14.653,2.7,29.286,4.322,43.9a2.471,2.471,0,0,0,2.4,2.4,2.416,2.416,0,0,0,2.4-2.4Z"/><path class="c" d="M124.739,268.484a94.175,94.175,0,0,1-8.517-10.063c-1.816-2.32-3.676-4.762-5.649-7.39q-3.309-4.409-6.554-8.866c-7.547-10.352-15.132-20.78-21.881-31.678-.529-.853-1.05-1.712-1.543-2.586-.219-.389-.886-1.233-.873-1.693-.028,1.02.3.187.032-.025-.171-.139.115.806.071.469l-.042.435c.083-.245.082-.256,0-.035.157-.2.258-.478.395-.693,1.631-2.567,4.2-4.678,6.46-6.669a2.429,2.429,0,0,0,0-3.394,89.028,89.028,0,0,1-7.909-9.769q-.734-.994-1.463-1.994c-.075-.1-.413-.7-.507-.69.322-.027.2,1.331.192,1.377.068-.372.269-.264-.08.129a3.988,3.988,0,0,0,.239-.437c.111-.164.217-.332.327-.5.054-.082.116-.159.172-.24.283-.409-.288.353.017-.025,4-4.95,9.062-9.2,13.961-13.225q1.023-.84,2.063-1.661c.55-.432.777-.61,1.546-1.175a34.435,34.435,0,0,1,3.195-2.1l-3.526-1.434c1.679,5.388,3.625,10.7,5.522,16.011,2.638,7.394,5.206,14.813,7.871,22.2,5.189,14.379,10.91,28.568,16.924,42.62,2.522,5.893,5.1,11.763,7.79,17.58a2.421,2.421,0,0,0,3.284.861,2.456,2.456,0,0,0,.861-3.284C131.82,249.108,126.9,237.491,122.2,225.8c-5.873-14.583-11.074-29.389-16.358-44.19-2.173-6.087-4.426-12.158-6.35-18.329a2.43,2.43,0,0,0-3.525-1.435,55.316,55.316,0,0,0-6.971,5.027q-4.358,3.525-8.458,7.359a61.514,61.514,0,0,0-6.411,6.654,8.626,8.626,0,0,0-1.777,2.945c-.406,1.557.342,2.537,1.212,3.726a107.5,107.5,0,0,0,9.681,12.131V196.3a47.328,47.328,0,0,0-6.467,6.605c-.966,1.266-2.063,2.883-1.646,4.558a13.691,13.691,0,0,0,1.608,3.359c2.569,4.435,5.5,8.676,8.382,12.905,8.244,12.073,16.8,23.961,25.728,35.536,3.311,4.291,6.58,8.849,10.5,12.62,2.227,2.141,5.626-1.249,3.394-3.4Z"/><path class="a" d="M123.711,339.936c-3.89-2.489-13.35-2.289-17.923-3.864-.139-.048-.267-.106-.4-.158-2.4,7-9.249,21.973-13.546,30.014,2.495,1.788,5.071,3.417,7.476,5.276,0,0,9.157,6.2,16.042,7.133,4.792.65,17.156-3.734,20.307-17.506S123.711,339.936,123.711,339.936Z"/><path class="c" d="M104.182,337.984c3.346,1.5,7.336,1.59,10.917,2.132a51.415,51.415,0,0,1,5.937,1.176c.421.116.84.241,1.254.381.215.073.428.15.641.229.67.25-.4-.2.225.09a10.447,10.447,0,0,1,1.063.559c.132.081.26.17.389.256q.216.154-.13-.105c.089.073.175.148.259.227,2.28,2.075,5.685-1.31,3.394-3.394-2.9-2.639-7.216-3.328-10.95-3.922-2.04-.325-4.09-.579-6.132-.887-.9-.135-1.793-.279-2.682-.462-.349-.073-.7-.151-1.044-.24-.171-.045-.34-.1-.511-.142-.1-.028-.657-.244-.207-.042a2.473,2.473,0,0,0-3.284.861,2.418,2.418,0,0,0,.861,3.283Z"/><path class="c" d="M118.444,350.282q-2.316-.892-4.685-1.642a2.4,2.4,0,0,0-2.71,3.526,2.584,2.584,0,0,0,1.434,1.1q2.368.747,4.685,1.643a2.414,2.414,0,0,0,1.849-.242,2.4,2.4,0,0,0,.861-3.284l-.375-.486a2.407,2.407,0,0,0-1.059-.617Z"/><path class="c" d="M90.192,368.814a86.882,86.882,0,0,0,14.044,7.392,2.406,2.406,0,0,0,2.952-1.676,2.473,2.473,0,0,0-1.676-2.952c-.118-.048-.235-.1-.353-.145-.3-.118.429.194.129.054-.233-.109-.472-.206-.707-.311q-.774-.348-1.539-.716c-1.153-.553-2.293-1.133-3.424-1.731-2.384-1.263-4.73-2.6-7-4.059a2.42,2.42,0,0,0-3.284.861,2.452,2.452,0,0,0,.861,3.283Z"/><path class="a" d="M164.224,336.306c-6.659.954-12.09.055-18.955-.309-3.584-.19-9.821,2.45-12.976,4.178-2.692,1.474-5.446,4.046-5.913,7.7,0,0-.187,4.014-.331,7.109-6.462,3.075-12.781,6.183-14.822,7.3a10.823,10.823,0,0,0-3.966,3.406c-1.4,2.079-1.73,5.425,1.554,6.344l.725.2-1.036.466c-2.046.92-3.342,3.308-1.82,5.448,1.373,1.933,3.78,2.213,5.931,1.854l2.193-.366-.229.4a7.082,7.082,0,0,0-1,3.829c.162,1.926,2.706,2.925,4.575,2.885a25.955,25.955,0,0,0,6.418-1.964l.544-.215-1.149,1.21c-1.884,1.985.871,5.161,4.473,4.768a33.509,33.509,0,0,0,7.586-1.867c3.55-1.361,13.175-5.6,21.912-10.231a145,145,0,0,0,13.58-8.608q3.094-2.058,5.96-4.393A287.792,287.792,0,0,1,164.224,336.306Z"/><path class="c" d="M128.7,348.51c.467-3.114,2.608-5.111,5.289-6.525a36.171,36.171,0,0,1,8.405-3.252c3.276-.781,6.884-.051,10.251.188a58.956,58.956,0,0,0,12.229-.275,2.414,2.414,0,0,0,1.676-2.952,2.465,2.465,0,0,0-2.952-1.676,59.888,59.888,0,0,1-12.726-.031c-2.032-.157-4.1-.438-6.14-.4a19.029,19.029,0,0,0-4.992.89c-6.33,1.875-14.561,5.37-15.669,12.76a2.478,2.478,0,0,0,1.677,2.952,2.417,2.417,0,0,0,2.952-1.676Z"/><path class="c" d="M140.291,345.875c-6.063,2.48-11.974,5.361-17.878,8.193-2.951,1.416-5.9,2.844-8.824,4.307-2.485,1.242-5.176,2.422-7.108,4.476a8.719,8.719,0,0,0-2.62,6.193,5.757,5.757,0,0,0,4.316,5.305c2.952.935,4.215-3.7,1.276-4.629-.138-.044-.557-.248-.537-.232-.169-.133-.227-.328-.187-.218a2.013,2.013,0,0,1,.056-1.267,6.936,6.936,0,0,1,3.08-3.32c1.7-1.017,3.526-1.858,5.3-2.738q8.468-4.2,17.05-8.158,2.2-1.017,4.405-2.007.873-.388,1.749-.77.408-.177.816-.351c-.574.244.258-.106.381-.156a2.476,2.476,0,0,0,1.676-2.952,2.415,2.415,0,0,0-2.952-1.676Z"/><path class="c" d="M132.716,358.487c-8.076,4.117-16.323,7.965-24.559,11.75-3.038,1.4-5.5,4.343-4.177,7.87,1.45,3.866,5.793,4.93,9.486,4.172a28.984,28.984,0,0,0,5.14-1.821c2.554-1.059,5.078-2.187,7.588-3.346,4.571-2.11,9.1-4.318,13.612-6.544a2.423,2.423,0,0,0,.861-3.284,2.449,2.449,0,0,0-3.283-.861c-3.413,1.682-6.83,3.354-10.269,4.981-4.343,2.054-8.465,4.055-12.781,5.6-1.5.535-3.324,1.177-4.869.447-.979-.462-1.391-1.381-.561-2.167a7.542,7.542,0,0,1,2.045-1.068c4.171-1.928,8.315-3.915,12.46-5.9,3.917-1.875,7.86-3.71,11.729-5.682,2.753-1.4.327-5.546-2.422-4.145Z"/><path class="c" d="M112.507,378.828a8.649,8.649,0,0,0-1.22,5.819,5.761,5.761,0,0,0,3.86,3.977c2.313.883,4.54.435,6.793-.315a141.669,141.669,0,0,0,16.484-7.064c2.431-1.17,4.864-2.355,7.218-3.675,2.694-1.512.277-5.659-2.423-4.145-4.021,2.256-8.232,4.207-12.428,6.11-3.993,1.811-8.006,3.755-12.342,4.776-.414.1-.435-.006.013.02-.192-.012-.4.028-.591.02a3.661,3.661,0,0,1-1.561-.452c-.385-.211-.409-.217-.327-.848a5.183,5.183,0,0,1,.668-1.8c1.5-2.7-2.642-5.127-4.144-2.423Z"/><path class="c" d="M122.277,384.085c-3.494,4.094.841,8.645,5.258,8.889a22.052,22.052,0,0,0,7.248-1.333,49.931,49.931,0,0,0,4.682-1.785c9.134-3.846,18.323-8.051,26.643-13.463a153.4,153.4,0,0,0,13.073-9.234,2.417,2.417,0,0,0,0-3.394,2.456,2.456,0,0,0-3.394,0c-3.107,2.52-6.479,4.705-9.789,6.946a111.726,111.726,0,0,1-11.5,6.836q-5.968,3.073-12.1,5.826a85.937,85.937,0,0,1-8.113,3.389c-2,.671-4.441,1.524-6.577,1.421a2.663,2.663,0,0,1-1.769-.719c-.137-.143-.315-.344-.185-.268l.006.167v-.236c.066.076-.047.3-.093.352a2.464,2.464,0,0,0,0-3.394,2.421,2.421,0,0,0-3.394,0Z"/><path class="c" d="M224.435,297.061c-.5.413.456-.312-.052.041-.226.157-.447.323-.672.481-.678.474-1.367.932-2.058,1.387-1.929,1.268-3.883,2.5-5.846,3.711q-7.618,4.712-15.442,9.081c-8.643,4.811-17.652,8.8-26.607,12.98a106.277,106.277,0,0,0-11.852,5.918,2.484,2.484,0,0,0-1.1,2.71,49.115,49.115,0,0,0,2.945,8.291c1.718,4.181,3.552,8.314,5.455,12.413,1.788,3.853,3.63,7.684,5.6,11.448.721,1.376,1.455,2.748,2.251,4.082.264.441.527.887.825,1.306.857,1.2,1.968,1.289,3.29,1.024a61.943,61.943,0,0,0,9.415-3.168q6.641-2.51,13.168-5.309c9.665-4.151,18.974-9.226,28.273-14.128q6.354-3.348,12.668-6.774a90.82,90.82,0,0,0,14.015-8.968c4.669-3.785,8.809-8.59,10.653-14.4,1.559-4.915,1.127-10.106.2-15.095a250.049,250.049,0,0,0-7.249-27.612c-3.018-9.835-6.2-19.619-9.164-29.472-2.745-9.144-5.2-18.369-8.208-27.433-1.667-5.018-3.476-9.99-5.582-14.842a52.137,52.137,0,0,0-6.107-11.071A18.21,18.21,0,0,0,229.622,190a2.416,2.416,0,0,0-3.283.861,2.456,2.456,0,0,0,.861,3.284c-.522-.388.182.158.279.244.215.191.423.39.625.594a18.262,18.262,0,0,1,1.241,1.41c-.259-.324.312.422.377.513q.315.44.613.889c.425.641.827,1.3,1.214,1.961a74.675,74.675,0,0,1,4.556,9.53c3.151,7.775,5.658,15.806,8.03,23.848,1.983,6.721,3.849,13.473,5.917,20.169,2.469,7.992,5.021,15.958,7.479,23.953,2.116,6.882,4.148,13.773,5.794,20.783,1.773,7.554,4,15.754.065,22.985-4.36,8.012-12.866,12.885-20.609,17.1q-10.641,5.8-21.417,11.354c-6.867,3.548-14.046,7.3-20.992,10.236a190.477,190.477,0,0,1-18.8,7.138c-.441.133-.884.264-1.333.369-.147.035-.3.055-.445.1-.534.155.623-.044.161-.026l2.072,1.188c-2.768-4.077-4.827-8.734-6.946-13.165-2.7-5.656-5.31-11.365-7.541-17.02a39.556,39.556,0,0,1-2.1-6.208l-1.1,2.71a93.313,93.313,0,0,1,10.174-5.131c4.66-2.192,9.347-4.324,14.017-6.5a283.254,283.254,0,0,0,28.594-15.664,92.486,92.486,0,0,0,10.715-7.058,2.417,2.417,0,0,0,0-3.394,2.453,2.453,0,0,0-3.394,0Z"/><path class="c" d="M42.587,300.71a79.483,79.483,0,0,0,8.79,5.869q7.525,4.681,15.255,9.026c8.681,4.872,17.7,9.093,26.589,13.557,3.932,1.974,8,3.854,11.722,6.209l-1.1-2.711A35.428,35.428,0,0,1,102.074,338c-1.067,2.766-2.06,5.094-3.234,7.766-2.559,5.826-5.255,11.6-8.18,17.255a58.631,58.631,0,0,1-3.411,6.032l2.072-1.189c-.457-.019.641.181.193.029-.16-.055-.342-.077-.507-.12-.46-.119-.913-.267-1.363-.417-1.3-.433-2.573-.923-3.845-1.423-3.272-1.284-6.489-2.657-9.708-4.066-6.87-3.009-13.6-6.286-20.284-9.689q-11.582-5.9-23.013-12.08c-7.471-4.03-15.253-8.074-20.863-14.62a20.527,20.527,0,0,1-4.963-10.391,33.4,33.4,0,0,1,.862-11.222c1.5-7.2,3.414-14.293,5.529-21.338,4.415-14.7,9.2-29.282,13.439-44.038,2.271-7.909,4.628-15.8,7.442-23.54,1.3-3.561,2.684-7.093,4.315-10.516.734-1.541,1.516-3.062,2.379-4.536.366-.625.747-1.242,1.147-1.846q.267-.4.545-.793c.073-.1.692-.918.445-.609a18.262,18.262,0,0,1,1.241-1.41c.18-.182.365-.36.555-.532.123-.11.869-.692.35-.306a2.476,2.476,0,0,0,.861-3.284,2.418,2.418,0,0,0-3.284-.861c-3.02,2.246-5.106,5.49-6.872,8.764a105.914,105.914,0,0,0-5.832,13.352c-3.547,9.528-6.349,19.313-9.132,29.084-2.595,9.11-5.506,18.125-8.335,27.164-2.779,8.876-5.68,17.761-7.792,26.826-1.236,5.307-2.71,10.7-2.825,16.18A24.172,24.172,0,0,0,4.662,326.5c6.492,8.895,16.6,13.941,26.081,19.022,17.532,9.4,35.263,18.98,53.97,25.88a23.367,23.367,0,0,0,3.574,1.133,2.773,2.773,0,0,0,3.173-1.154c.334-.481.632-.99.928-1.494,1.8-3.069,3.38-6.276,4.938-9.474a225.594,225.594,0,0,0,10.183-23.3,25.211,25.211,0,0,0,.96-3.17,2.491,2.491,0,0,0-1.1-2.71c-3.2-2.023-6.676-3.661-10.049-5.366-4.44-2.243-8.9-4.44-13.365-6.641Q69.617,312.148,56.011,303.8c-2.239-1.371-4.467-2.76-6.667-4.193-.8-.519-1.591-1.043-2.374-1.584-.281-.194-.558-.394-.838-.591-.64-.45.336.289-.151-.114a2.468,2.468,0,0,0-3.394,0,2.419,2.419,0,0,0,0,3.394Z"/><path class="c" d="M133.92,108.254a48.156,48.156,0,0,1,1.128,5.162l-.086-.638a3.141,3.141,0,0,1,.02.712l.085-.638a1.768,1.768,0,0,1-.078.321l.242-.573a1.375,1.375,0,0,1-.113.206l.375-.486a1.062,1.062,0,0,1-.169.166l.486-.375a3.255,3.255,0,0,1-.409.216l.574-.242a2.981,2.981,0,0,1-.69.2l.638-.085a2.737,2.737,0,0,1-.646,0l.638.086c-.244-.034-.484-.093-.728-.126a2.655,2.655,0,0,0-1.849.242,2.4,2.4,0,0,0-.861,3.284,2.3,2.3,0,0,0,1.434,1.1c.533.071,1.051.208,1.593.232a5.055,5.055,0,0,0,2.32-.548,3.293,3.293,0,0,0,1.842-2.178,5.558,5.558,0,0,0-.025-2.374c-.281-1.663-.665-3.311-1.093-4.942a2.4,2.4,0,1,0-4.628,1.276Z"/><path class="c" d="M159.565,96.948a5.494,5.494,0,0,1-.5.3c-.124.065-.251.122-.377.183-.239.116.624-.246.29-.124-.09.033-.18.068-.271.1a8.044,8.044,0,0,1-1.224.312c-.095.017-.5.075-.08.017.448-.062-.088,0-.18.01-.288.023-.577.033-.866.033-.263,0-.527-.008-.79-.027a3.061,3.061,0,0,0-.436-.041c.544-.044.372.055.1.008A8.069,8.069,0,0,1,154,97.41c-.077-.026-.152-.055-.229-.082-.38-.136.261.127.284.124-.09.011-.3-.142-.385-.184a5.294,5.294,0,0,1-.538-.32,2.416,2.416,0,0,0-3.284.861,2.457,2.457,0,0,0,.861,3.283,11.416,11.416,0,0,0,11.278,0,2.4,2.4,0,1,0-2.423-4.144Z"/><path class="c" d="M107.593,101.093a10.087,10.087,0,0,0,5.591,1.49,10.367,10.367,0,0,0,5.687-1.49,2.4,2.4,0,0,0-2.423-4.145,5.281,5.281,0,0,1-.513.3c-.115.06-.6.272-.138.079s-.109.036-.239.08a8.438,8.438,0,0,1-1.241.311c-.1.017-.506.075-.084.017.447-.062-.091,0-.183.01q-.432.035-.866.034-.4,0-.79-.028a3.336,3.336,0,0,0-.434-.041c.563-.038.367.054.105.008a7.744,7.744,0,0,1-1.209-.311l-.224-.083c-.385-.141.283.127.29.124-.048.023-.325-.156-.377-.184a5.965,5.965,0,0,1-.53-.32,2.415,2.415,0,0,0-3.283.861,2.458,2.458,0,0,0,.861,3.284Z"/><path class="c" d="M125.681,132.961a26.577,26.577,0,0,0,18.987-.575,2.418,2.418,0,0,0,.861-3.284,2.458,2.458,0,0,0-3.283-.861c-.138.062-.3.124-.066.031-.147.058-.294.115-.442.168-.3.11-.61.21-.918.3a19.772,19.772,0,0,1-2.077.494,22.829,22.829,0,0,1-3.958.329q-1.066,0-2.133-.069c-.351-.024-.7-.054-1.051-.092-.173-.018-.346-.037-.519-.06.259.034-.035-.006-.129-.022a23.177,23.177,0,0,1-4-.99,2.4,2.4,0,0,0-1.276,4.629Z"/></svg>