<?xml version="1.0" encoding="utf-8"?>
<!-- Uploaded to: SVG Repo, www.svgrepo.com, Generator: SVG Repo Mixer Tools -->
<svg width="800px" height="800px" viewBox="-155 0 442.455 442.455" xmlns="http://www.w3.org/2000/svg"><defs><style>.a{fill:#ffffff;}.b{fill:#957f6e;}.c{fill:#211715;}.d{fill:#645d5c;}.e{fill:#79c6e0;}</style></defs><path class="a" d="M79.972,95.67c-.276-.114-3.354-1.314-3.535-1.379-2.735-.988-2.627-2.746-2.972-4.714a38.5,38.5,0,0,1-.607-6.407C80.216,80.357,86.2,70.377,87.219,67.6c.15-.457.457-1.316.73-2.337.367-.065.573-.1.573-.1a7.179,7.179,0,0,0,3.336-1.5,10.809,10.809,0,0,0,2.8-3.672,17.018,17.018,0,0,0,1.736-9.023,5.672,5.672,0,0,0-.595-2.285,4.018,4.018,0,0,0-2.888-1.92,4.258,4.258,0,0,0-3.405,1s2.44-23.6-29.179-23.6c-29.731,0-27.922,23.6-27.922,23.6a4.258,4.258,0,0,0-3.405-1,4.016,4.016,0,0,0-2.888,1.92,5.672,5.672,0,0,0-.6,2.285,17.026,17.026,0,0,0,1.735,9.023,10.824,10.824,0,0,0,2.8,3.672,7.179,7.179,0,0,0,3.336,1.5l1.087.165A28.94,28.94,0,0,0,39.987,76.1a25.031,25.031,0,0,0,8.139,6.626,38.1,38.1,0,0,1-.607,6.85c-.344,1.968-.237,3.726-2.971,4.714-.182.065-1.455.483-1.981.663,0,0-1.219,12.647,16.916,12.647S79.972,95.67,79.972,95.67Z"/><path class="b" d="M39.987,76.1a28.94,28.94,0,0,1-5.517-10.77l-1.087-.165a7.179,7.179,0,0,1-3.336-1.5,8.9,8.9,0,0,1-1.273-1.3c-.059.053-.12.1-.178.157a14.21,14.21,0,0,0-1.434,4.74,23.128,23.128,0,0,0-.16,3.16q.006.323.024.646c.125,2.3.663,4.651.777,6.947.116,2.5-.535,4.963-2.921,5.773-.094.032-.113.337-.11.415a1.075,1.075,0,0,0,.191.534,3.691,3.691,0,0,0,1.223,1.073,16.972,16.972,0,0,0,11.086,1.938c3.993-.607,7.383-2.539,8.888-4.8l.523-.839c.008-.055.009-.108.015-.163A26.183,26.183,0,0,1,39.987,76.1Z"/><path class="b" d="M93.992,28.98c-.107-.628-.217-1.209-.324-1.731C90.709,12.74,76.1,1.223,60.77,2.064c-15.325-.841-29.938,10.676-32.9,25.185A41.233,41.233,0,0,0,27.9,40.981l1.467,5.747a4.229,4.229,0,0,1,3.039,1.03c6.056-4.2,16.33-11.5,21.65-16.075-.438,2.716-1.993,7.334-.034,6.86,8.178-1.894,16.015-5.713,20.754-11.67a57.515,57.515,0,0,0,3.862,10.346C80.35,40.158,85.323,46.77,89.5,47.758a4.258,4.258,0,0,1,3.405-1,4.136,4.136,0,0,1,.53.116C95.568,41.946,94.85,33.981,93.992,28.98Z"/><path class="c" d="M29.808,40.574a35.011,35.011,0,0,1-.3-10.818,25.875,25.875,0,0,1,3.542-10.407A31.618,31.618,0,0,1,50.705,5.342,38.254,38.254,0,0,1,62.216,4.021,29,29,0,0,1,73.511,6.306,31.61,31.61,0,0,1,89.719,21.663,34.887,34.887,0,0,1,92.57,33.224c.433,4.3.633,9-1.039,13.074a2.012,2.012,0,0,0,1.4,2.46,2.052,2.052,0,0,0,2.461-1.4c1.637-3.992,1.627-8.643,1.3-12.877a44.672,44.672,0,0,0-2.228-11.791A35.048,35.048,0,0,0,77.632,3.842,34.392,34.392,0,0,0,65.264.167a57.646,57.646,0,0,0-6.48-.143A32.723,32.723,0,0,0,52.222.8a35.719,35.719,0,0,0-21,14.035A30.43,30.43,0,0,0,25.786,27.6a38.585,38.585,0,0,0,.165,14.039c.558,2.512,4.416,1.449,3.857-1.063Z"/><path class="c" d="M72.965,27.831c1.322,4.511,2.809,9.052,5.59,12.889,2.561,3.533,5.984,7.825,10.416,8.967,2.495.642,3.559-3.215,1.064-3.858a10.7,10.7,0,0,1-4.378-2.894A33.035,33.035,0,0,1,81.721,38.3c-2.44-3.458-3.718-7.5-4.9-11.532-.723-2.465-4.584-1.416-3.857,1.063Z"/><path class="c" d="M73.44,25.355a30.57,30.57,0,0,1-12.758,9.028q-1.89.75-3.84,1.337-1.075.325-2.165.6a3.726,3.726,0,0,0-.992.243q-.689.1.543.384a.755.755,0,0,1,.825.53c-.016.006-.06.233,0-.158.031-.2.012-.409.034-.609.043-.4.131-.8.211-1.2.222-1.1.493-2.19.681-3.3a2.018,2.018,0,0,0-3.342-1.946A261.581,261.581,0,0,1,31.392,46.031c-2.1,1.458-.1,4.927,2.019,3.454A272,272,0,0,0,55.466,33.1l-3.343-1.946c-.394,2.319-1.63,5.2-.876,7.545a2.722,2.722,0,0,0,3.3,1.774,36.923,36.923,0,0,0,4.909-1.391c6.362-2.154,12.561-5.581,16.81-10.9a2.062,2.062,0,0,0,0-2.828,2.014,2.014,0,0,0-2.829,0Z"/><path class="c" d="M26.865,61.514a19.749,19.749,0,0,0-1.71,11.04,54.029,54.029,0,0,1,.659,6c0,1.113-.143,2.494-1.164,3.151-.714.46-1.358.631-1.688,1.506a2.926,2.926,0,0,0,.274,2.542c.917,1.494,2.749,2.312,4.315,2.937a19.689,19.689,0,0,0,10.888.881,14.789,14.789,0,0,0,9.45-5.6c1.479-2.113-1.987-4.114-3.454-2.018-1.757,2.509-5.412,3.683-8.317,3.941a16.339,16.339,0,0,1-5.478-.4,13.324,13.324,0,0,1-2.22-.748c-.318-.145-.63-.309-.934-.484-.215-.123-.426-.254-.632-.391q-.429-.487-.064.113l-.273,1.01.093-.192-1.2.919c4-1.534,4.686-5.506,4.245-9.354-.5-4.322-1.369-8.738.659-12.828,1.14-2.3-2.309-4.327-3.454-2.019Z"/><path class="c" d="M90.917,49.172A2.181,2.181,0,0,1,94,49.579a4.675,4.675,0,0,1,.447,2.38,14.282,14.282,0,0,1-.2,2.928c-.635,3.478-2.39,7.656-6.258,8.35a2.017,2.017,0,0,0-1.4,2.46,2.044,2.044,0,0,0,2.46,1.4c6.016-1.078,8.887-7.864,9.34-13.317.234-2.824-.013-6.019-2.452-7.844a6.289,6.289,0,0,0-7.853.411,2.015,2.015,0,0,0,0,2.828,2.043,2.043,0,0,0,2.828,0Z"/><path class="c" d="M86.478,62a15.918,15.918,0,0,1-.931,4.3c-.062.191-.49,1.313-.22.7-.134.3-.274.6-.423.9a36.615,36.615,0,0,1-3.145,5.056c-2.723,3.734-6.422,7.693-11.084,8.787-2.5.588-1.445,4.446,1.063,3.857,5.636-1.322,10.006-5.927,13.321-10.416C87.92,71.31,90.279,66.92,90.478,62c.105-2.574-3.9-2.569-4,0Z"/><path class="c" d="M33.816,46.344a6.292,6.292,0,0,0-7.853-.411c-2.442,1.819-2.686,5.025-2.452,7.844.452,5.452,3.324,12.239,9.34,13.317a2.055,2.055,0,0,0,2.46-1.4,2.017,2.017,0,0,0-1.4-2.46c-3.868-.694-5.622-4.873-6.257-8.35a14.126,14.126,0,0,1-.2-2.763,5.47,5.47,0,0,1,.381-2.432,2.164,2.164,0,0,1,3.151-.52,2.055,2.055,0,0,0,2.829,0,2.016,2.016,0,0,0,0-2.828Z"/><path class="c" d="M31.625,61.781A33.184,33.184,0,0,0,38.7,77.668c3.987,4.721,9.267,8.119,15.481,8.79a2.013,2.013,0,0,0,2-2,2.046,2.046,0,0,0-2-2c-5.261-.568-9.65-3.955-12.913-7.931-3.227-3.931-4.923-8.859-5.788-13.81a2.016,2.016,0,0,0-2.46-1.4,2.047,2.047,0,0,0-1.4,2.461Z"/><path class="a" d="M116.6,115.655l-12.778-11.5L102.2,115.19c-1.309,10.314-3.145,22.622-5.224,36.59,3.728,5,9.556,10.426,15.346,9.577,7.661-1.123,9.025-10.943,9.433-17.076.56-8.407.987-15.9-.639-24.565Z"/><path class="a" d="M84.823,315.059c2.428,19.3-1.573,38.742-3.973,58.047-1.636,13.157-1.915,28.213,7.389,37.658,1.994,1.988,2.734,6.528,1.307,8.789-2.164,3.427-7.036,1.589-10.542-.009-4.229-1.928-8.277-4.262-12.519-6.158-2.677-1.2-4.323-2.607-7.383-2.105-2.487.408-4.095,1.935-6.173,3.444-4.2,3.048-8.676,5.928-14.05,5.717-3.914-.154-9.309-4.466-6.4-8.7,1.11-1.613,3.007-2.487,4.2-4.209a27.634,27.634,0,0,0,3.2-6.23c3.294-8.928,2.661-18.929,1.508-28.2C39,353.8,35,334.361,37.426,315.059"/><path class="c" d="M35.426,315.059c-1.74,14.143-.1,28.354,1.834,42.385.907,6.581,1.968,13.156,2.591,19.772a66.932,66.932,0,0,1-.107,16.5c-.9,5.8-3.007,11.364-7.149,15.633-1.794,1.849,1.032,4.68,2.828,2.829,8.1-8.345,9.381-20.458,8.7-31.544-.407-6.585-1.444-13.129-2.361-19.657-.993-7.067-1.98-14.139-2.562-21.254a121.012,121.012,0,0,1,.229-24.664,2.012,2.012,0,0,0-2-2,2.049,2.049,0,0,0-2,2Z"/><path class="c" d="M58.978,314.679c-.005,25.282.083,50.568-.337,75.848q-.183,11.063-.52,22.121c-.08,2.575,3.92,2.572,4,0,.81-26.1.848-52.207.853-78.313q0-9.828,0-19.656c0-2.574-4-2.578-4,0Z"/><path class="c" d="M82.823,315.059c1.786,14.517.017,29.1-1.994,43.5-1.7,12.142-4.183,24.7-2.061,36.953a31.31,31.31,0,0,0,8.057,16.667c1.8,1.851,4.623-.979,2.829-2.829C82,401.456,81.44,389.661,82.221,379.3c1.022-13.578,3.867-26.961,4.907-40.547a119.352,119.352,0,0,0-.305-23.695,2.063,2.063,0,0,0-2-2,2.012,2.012,0,0,0-2,2Z"/><path class="d" d="M19.766,436.216q-.165-.215-.312-.446a8.356,8.356,0,0,1-.553-7,22.939,22.939,0,0,1,3.595-6.273q5.2-7.109,11-13.756c1.507-1.728,3.209-3.529,5.461-3.953-.363,1.357-.908,4.71.288,5.446s3.021.735,4.426.759c6.152.107,12.726-4.3,16.14-7.381.233-.209.667.085.67.418.031,3.964.364,5.677.344,10.056a10.088,10.088,0,0,1-.762,3.39c-.975,2.638-3.869,3.91-6.191,5.5-6.041,4.134-9.222,11.676-15.552,15.352a16.341,16.341,0,0,1-15.108.541A9.523,9.523,0,0,1,19.766,436.216Z"/><path class="d" d="M102.99,436.216q.165-.215.312-.446a8.36,8.36,0,0,0,.553-7,22.939,22.939,0,0,0-3.595-6.273q-5.2-7.109-11-13.756c-1.506-1.728-3.208-3.529-5.461-3.953.364,1.357.979,4.969-.218,5.7s-3.168.71-4.573.734c-6.1.106-12.553-4.492-15.975-7.536-.265-.235-.755-.057-.759.247-.046,3.985-.517,5.4-.5,9.815a12.279,12.279,0,0,0,.916,3.723c.976,2.638,3.87,3.91,6.191,5.5,6.041,4.134,9.223,11.676,15.553,15.352a16.339,16.339,0,0,0,15.107.541A9.518,9.518,0,0,0,102.99,436.216Z"/><path class="c" d="M21.493,435.207c-1.631-2.229-1.232-5.047-.048-7.4a52.076,52.076,0,0,1,5.49-7.93q3.032-3.954,6.267-7.746c1.712-2.014,3.554-4.809,6.287-5.424l-2.46-2.46c-.52,2.026-1.029,4.857.2,6.725,1.579,2.392,5.88,2.2,8.369,1.9,5.866-.7,11.282-3.987,15.623-7.859l-.883.514.2-.07H59.482l.219.075-.883-.514.176.177-.515-.883a11.69,11.69,0,0,1,.084,2.591c.042.882.1,1.763.146,2.645.107,1.994.392,4.2-.158,6.138a6.712,6.712,0,0,1-3.268,4,40.119,40.119,0,0,0-4.695,3.313c-5.59,4.87-9.015,12.974-16.7,14.98-4.212,1.1-9.813.374-12.7-3.188a2.013,2.013,0,0,0-2.828,0,2.047,2.047,0,0,0,0,2.829c2.178,2.683,5.788,4.12,9.133,4.6A18.717,18.717,0,0,0,38.077,440.7c5.881-2.72,9.185-8.572,13.5-13.088a21.323,21.323,0,0,1,3.453-3.011c1.239-.836,2.544-1.564,3.734-2.472,3.06-2.333,4.107-5.653,4.057-9.413-.019-1.491-.1-2.979-.185-4.468-.087-1.532.152-3.4-.261-4.869a2.522,2.522,0,0,0-1.718-1.73,2.663,2.663,0,0,0-2.588.84,34.092,34.092,0,0,1-3.283,2.491c-3.042,2.016-6.622,3.852-10.342,4a18.447,18.447,0,0,1-2.67-.063,9.194,9.194,0,0,1-1.1-.217c-.777-.179.005-.208-.066.145.1-.512-.1-1.28-.039-1.86a11.856,11.856,0,0,1,.32-1.67,2.023,2.023,0,0,0-2.46-2.46c-3.455.777-5.719,3.712-7.9,6.271q-3.795,4.455-7.336,9.115c-3.858,5.058-9.873,12.536-5.153,18.986a2.059,2.059,0,0,0,2.736.717A2.015,2.015,0,0,0,21.493,435.207Z"/><path class="c" d="M104.717,437.226c4.721-6.451-1.3-13.928-5.153-18.986q-3.549-4.653-7.336-9.115c-2.179-2.558-4.443-5.494-7.9-6.271a2.023,2.023,0,0,0-2.46,2.46,10.135,10.135,0,0,1,.406,3.3,2.313,2.313,0,0,1-.08.511c-.143-.064.852-.387.083-.218a11.542,11.542,0,0,1-2.225.3,17.718,17.718,0,0,1-9.378-2.486,35.228,35.228,0,0,1-4.132-2.71c-1.061-.805-2.313-2.415-3.742-2.424-2.4-.017-2.493,2.176-2.574,3.97-.064,1.418-.215,2.828-.319,4.242-.243,3.335-.277,7,1.693,9.9,1.822,2.677,4.905,3.8,7.321,5.791,4.955,4.094,7.962,10.052,13.277,13.779a18.06,18.06,0,0,0,11.336,3.159c3.912-.239,8.318-1.65,10.868-4.791a2.061,2.061,0,0,0,0-2.829,2.014,2.014,0,0,0-2.828,0c-2.551,3.142-7.352,4.091-11.193,3.509-4-.607-7.119-2.91-9.79-5.828-2.609-2.851-4.811-6.066-7.618-8.736a29.305,29.305,0,0,0-4.739-3.567c-1.341-.84-2.928-1.734-3.615-3.241-1-2.192-.892-4.467-.735-6.811.06-.9.149-1.8.221-2.7.04-.5.076-1.006.1-1.51a6.37,6.37,0,0,1,.075-1.653l-.919,1.195.2-.126-1.009.273.247-.024-1.009-.273a7.228,7.228,0,0,1,1.244.992q.873.7,1.775,1.373a35.939,35.939,0,0,0,3.673,2.4,23.119,23.119,0,0,0,8.992,3.081c2.4.243,6.606.412,8.1-1.91,1.253-1.945.686-4.9.148-6.993l-2.46,2.46c2.669.6,4.457,3.275,6.133,5.242q3.306,3.884,6.421,7.928a54.244,54.244,0,0,1,5.392,7.741c1.242,2.395,1.735,5.282.05,7.585a2.015,2.015,0,0,0,.717,2.736A2.046,2.046,0,0,0,104.717,437.226Z"/><path class="d" d="M28.886,187.108c-1.39,4.88-3.686,17.8-4.809,24.162-5.485,31.082,2.767,95.246,2.851,103.033,12.027,1.213,57.583,1.324,67.427-.072.712-7.937,8.152-71.879,2.667-102.961-1.123-6.361-3.412-19.059-4.8-23.94"/><path class="c" d="M26.958,186.577c-1.274,4.526-2.075,9.2-2.94,13.82-.844,4.507-1.745,9.022-2.374,13.565a190.761,190.761,0,0,0-1.441,27.3c.113,18.927,1.622,37.826,3.347,56.663.5,5.426,1.306,10.928,1.378,16.383a2.056,2.056,0,0,0,2,2c8.382.834,16.893.8,25.306.893,10.453.11,20.917.1,31.365-.264a108.912,108.912,0,0,0,11.288-.773,2.023,2.023,0,0,0,1.468-1.928c1.176-13.04,2.565-26.046,3.424-39.114.659-10.019,1.128-20.055,1.227-30.1a222.955,222.955,0,0,0-1.139-27.88c-.572-4.935-1.509-9.817-2.416-14.7-.971-5.224-1.861-10.524-3.3-15.643-.7-2.474-4.557-1.423-3.857,1.063,1.281,4.55,2.1,9.248,2.974,13.888.833,4.416,1.719,8.84,2.338,13.292a193.647,193.647,0,0,1,1.422,26.681c-.019,18.759-1.339,37.516-3.065,56.188-.5,5.443-1.114,10.876-1.6,16.32l1.469-1.929c-.353.05.451-.053.078-.011-.145.016-.29.035-.434.051-.322.036-.644.068-.966.1-.706.065-1.413.119-2.12.166-1.824.123-3.651.208-5.478.278-4.813.186-9.629.27-14.445.319-10.51.106-21.028.054-31.533-.266-4-.122-8.015-.238-12-.634l2,2c-.059-4.522-.7-9.078-1.119-13.575-.782-8.452-1.526-16.907-2.13-25.373-.713-9.983-1.255-19.983-1.428-29.991a219.978,219.978,0,0,1,.948-27.85c.518-4.7,1.453-9.43,2.318-14.124.969-5.258,1.848-10.6,3.3-15.75.7-2.482-3.16-3.541-3.857-1.063Z"/><path class="c" d="M29.189,189.108h62.8c2.573,0,2.578-4,0-4h-62.8c-2.574,0-2.578,4,0,4Z"/><path class="c" d="M46.125,83.463c-.016.806-.055,1.61-.122,2.414q-.045.546-.107,1.091c-.02.182-.042.363-.065.545-.018.141-.018.145,0,.012l-.031.218c-.161,1.084-.282,2.214-.548,3.279-.025.1-.052.2-.082.295s-.192.361-.022.1c.219-.334-.256.382-.239.405-.031-.042.34-.362.034-.058-.079.078-.158.156-.239.234-.309.3.343-.185-.062.036-.118.064-.231.138-.35.2s-.348.156-.093.056c-.094.037-.186.07-.28.1-.166.058-.334.112-.5.168-.461.153-.922.305-1.382.461A2,2,0,0,0,43.1,96.883a20.7,20.7,0,0,0,3.286-1.231,5.528,5.528,0,0,0,2.624-3.214,21.518,21.518,0,0,0,.616-3.415,43.165,43.165,0,0,0,.5-5.56,2,2,0,0,0-4,0Z"/><path class="c" d="M70.86,83.463a50.014,50.014,0,0,0,.723,6.926,7.632,7.632,0,0,0,1.53,4.092,8.382,8.382,0,0,0,3.553,2.032c.925.359,1.855.711,2.775,1.086a2.007,2.007,0,0,0,2.46-1.4,2.061,2.061,0,0,0-1.4-2.46c-.813-.331-1.635-.643-2.453-.961-.345-.135-.69-.27-1.036-.4-.079-.03-.159-.057-.237-.089.338.14-.2-.116-.266-.153-.113-.065-.537-.421-.176-.09-.1-.095-.2-.195-.3-.293-.3-.285.181.337-.01-.014-.06-.111-.124-.223-.186-.333-.185-.33.109.422-.007-.052-.036-.145-.084-.287-.118-.433-.134-.571-.2-1.157-.292-1.736a39.31,39.31,0,0,1-.558-5.723,2,2,0,0,0-4,0Z"/><path class="a" d="M121.117,119.716c1.626,8.669,1.2,16.158.639,24.565-.408,6.133-1.772,15.953-9.433,17.076-5.792.849-11.623-4.579-15.345-9.588q-.708,4.756-1.45,9.766c-.364,2.46,1.367,15.5,2.933,27.035l2.491,17.045.053.364c-8.878,1.2-17.838,1.839-26.046,1.1a7.887,7.887,0,0,1-3.174-.762,7.92,7.92,0,0,1-2.4-2.549c-2.241-3.183-6.39-11.627-8.682-16.609l-.255-.4c-2.315,5.909-6.209,13.526-8,17.01a6.11,6.11,0,0,1-2.4,2.549,7.879,7.879,0,0,1-3.174.762c-8.095.724-19.011.111-27.656-1.054l.084-.472,3.021-17.036c.2-1.228,1.7-10.849,2.538-16.208-5.193.91-12.937.827-16.051-1.678-4.336-3.487-6.584-7.144-6.74-12.871a61.735,61.735,0,0,1,.343-8.085,156.957,156.957,0,0,1,8.973-34.961l1.922-4.217a19.428,19.428,0,0,1,4.549-6.5c5.794-4.245,17.04-8.238,24.777-11.07.207.421.349.706.349.706.841,2.419,9.257,13.324,12.763,17.532,1.1,1.19,2.9,3.5,4.257,5.366.33-.35.525-.553.525-.553,2.63-2.735,15.557-20.393,16.959-22.777l.906-1.539.485.2A219.054,219.054,0,0,1,101.037,102.7a25.033,25.033,0,0,1,3.939,2.195Z"/><path class="d" d="M77.484,93.21c-1.4,2.384-14.329,20.042-16.959,22.777,0,0-.2.2-.525.553-1.361-1.861-3.159-4.176-4.257-5.366-3.506-4.208-11.922-15.113-12.763-17.532,0,0-.134-.268-.351-.7l-.674.246c-7.045,2.574-16.655,6.044-22.55,9.772.822,3.5,4.848,30.756,6.454,41.765l1.06,14.833L24.86,172.3c-.839,5.355-2.344,15-2.54,16.225L19.3,205.558l-.084.472c8.645,1.165,19.561,1.778,27.656,1.054a7.879,7.879,0,0,0,3.174-.762,6.11,6.11,0,0,0,2.4-2.549c1.791-3.491,5.7-11.129,8.009-17.052.154.283.243.443.243.443,2.292,4.982,6.441,13.426,8.682,16.609a7.92,7.92,0,0,0,2.4,2.549,7.887,7.887,0,0,0,3.174.762c8.208.734,17.168.094,26.046-1.1l-.053-.365L98.461,188.57c-1.566-11.54-3.3-24.575-2.933-27.035C98.2,143.5,100.6,127.843,102.2,115.19l1.624-11.03.006-.036c-.9-.516-1.846-.909-2.794-1.424A219.054,219.054,0,0,0,78.875,91.872"/><path class="c" d="M60.254,180.59c-.039.377-.006.058.006-.015-.02.124-.039.251-.066.374-.059.272-.115.543-.183.813-.157.626-.346,1.245-.548,1.858-.492,1.487-1.066,2.949-1.673,4.393-1.345,3.2-2.852,6.339-4.391,9.452q-.966,1.953-1.958,3.893c-.692,1.356-1.307,2.894-2.869,3.426-1.882.64-4.22.5-6.187.561-2.265.071-4.532.063-6.8,0a156.909,156.909,0,0,1-15.721-1.231,2.01,2.01,0,0,0-2,2,2.052,2.052,0,0,0,2,2q7.387.948,14.845,1.2c2.488.082,4.98.1,7.469.03a37.94,37.94,0,0,0,6.86-.556c4.029-.873,5.5-4.689,7.152-7.987,1.66-3.317,3.276-6.66,4.747-10.065,1.4-3.229,2.947-6.616,3.314-10.153a2.013,2.013,0,0,0-2-2,2.045,2.045,0,0,0-2,2Z"/><path class="c" d="M58.973,188.174A144.074,144.074,0,0,0,66.819,203.5a20.763,20.763,0,0,0,2.35,3.253A7.65,7.65,0,0,0,74.137,209a76.136,76.136,0,0,0,11.638.338c4.753-.156,9.489-.615,14.2-1.221a2.066,2.066,0,0,0,2-2,2.011,2.011,0,0,0-2-2,146.955,146.955,0,0,1-15.167,1.249c-2.365.057-4.732.038-7.095-.087-1.828-.1-4.378.111-5.72-1.352-2.05-2.237-3.406-5.309-4.788-7.974q-2.51-4.839-4.782-9.8a2.017,2.017,0,0,0-2.737-.718,2.048,2.048,0,0,0-.717,2.737Z"/><path class="c" d="M101.9,103.628c-1.985,13.477-3.783,26.978-5.783,40.453-.825,5.559-1.68,11.114-2.478,16.677-.419,2.916.088,5.963.406,8.867.8,7.306,1.777,14.6,2.84,21.87l2.141,14.652a2.013,2.013,0,0,0,2.46,1.4,2.051,2.051,0,0,0,1.4-2.46c-1.58-10.814-3.2-21.619-4.5-32.472a82.194,82.194,0,0,1-.905-10.182,41.539,41.539,0,0,1,.769-5.7q.609-4.1,1.219-8.191c1.424-9.572,2.85-19.144,4.132-28.736q.238-1.784.469-3.569c.03-.232.058-.464.089-.7-.045.338-.028.193-.018.121.017-.123.037-.246.055-.37q.265-1.808.532-3.615l1.028-6.98a2.066,2.066,0,0,0-1.4-2.46,2.014,2.014,0,0,0-2.46,1.4Z"/><path class="c" d="M15.032,111.511c1.015-2.167,2.334-4.712,4.326-6.131a44.464,44.464,0,0,1,6.953-3.853c5.254-2.464,10.73-4.426,16.176-6.416,2.4-.876,1.363-4.743-1.063-3.857-5.892,2.153-11.811,4.293-17.483,6.985a41.79,41.79,0,0,0-7.1,4.04c-2.369,1.765-4.033,4.581-5.265,7.213a2.058,2.058,0,0,0,.717,2.737,2.016,2.016,0,0,0,2.736-.718Z"/><path class="c" d="M22.932,171.765c-1.495,9.537-3.041,19.047-4.727,28.551l-.835,4.711a2.057,2.057,0,0,0,1.4,2.46,2.016,2.016,0,0,0,2.46-1.4c1.274-7.18,2.6-14.352,3.731-21.557q.915-5.851,1.831-11.7a2.062,2.062,0,0,0-1.4-2.46,2.014,2.014,0,0,0-2.46,1.4Z"/><path class="c" d="M17.479,103.447c.948,4.086,1.429,8.32,2.068,12.461q1.546,10.01,3.015,20.031.689,4.656,1.368,9.313a2.013,2.013,0,0,0,2.46,1.4,2.051,2.051,0,0,0,1.4-2.46c-1.775-12.167-3.534-24.34-5.507-36.477-.289-1.776-.537-3.575-.944-5.329-.581-2.506-4.439-1.445-3.857,1.064Z"/><path class="c" d="M51.8,126.643a1.366,1.366,0,0,1,1.492-1.457,1.5,1.5,0,1,1-1.492,1.457Z"/><path class="c" d="M53.8,126.643a2.186,2.186,0,0,1,.018-.255l-.072.531a1.679,1.679,0,0,1,.108-.4l-.2.477a1.431,1.431,0,0,1,.177-.3l-.313.405a1.376,1.376,0,0,1,.21-.208l-.4.313a1.435,1.435,0,0,1,.273-.16l-.478.2a1.762,1.762,0,0,1,.427-.114l-.532.072a2.008,2.008,0,0,1,.5,0l-.532-.071a1.662,1.662,0,0,1,.385.1l-.478-.2a1.426,1.426,0,0,1,.279.159l-.405-.312a1.352,1.352,0,0,1,.24.238l-.313-.4a1.486,1.486,0,0,1,.17.291l-.2-.478a1.893,1.893,0,0,1,.128.473l-.072-.532a1.944,1.944,0,0,1,.007.476l.071-.532a1.617,1.617,0,0,1-.1.387l.2-.478a1.5,1.5,0,0,1-.183.318l.313-.405a1.489,1.489,0,0,1-.226.23l.4-.313a1.462,1.462,0,0,1-.3.179l.478-.2a1.759,1.759,0,0,1-.422.115l.532-.072a2.068,2.068,0,0,1-.491,0l.531.071a1.543,1.543,0,0,1-.372-.1l.478.2a1.362,1.362,0,0,1-.267-.154l.405.312a1.354,1.354,0,0,1-.227-.227l.313.4a1.505,1.505,0,0,1-.186-.323l.2.477a1.93,1.93,0,0,1-.125-.461l.071.532a2.279,2.279,0,0,1-.019-.274,2.062,2.062,0,0,0-.586-1.414,2,2,0,0,0-2.828,0,2.066,2.066,0,0,0-.586,1.414,5,5,0,0,0,.108.906,3.93,3.93,0,0,0,.322.867,3.161,3.161,0,0,0,.548.773,1.346,1.346,0,0,0,.166.154,3.524,3.524,0,0,0,.591.429,3.72,3.72,0,0,0,1.462.407,3.846,3.846,0,0,0,1.127-.093,3.077,3.077,0,0,0,.954-.381,4.293,4.293,0,0,0,.571-.431,1.39,1.39,0,0,0,.171-.172,3.361,3.361,0,0,0,.83-1.623,3.743,3.743,0,0,0,.072-.954,3.877,3.877,0,0,0-.18-.994,3.807,3.807,0,0,0-.72-1.251,1.327,1.327,0,0,0-.163-.172,4.184,4.184,0,0,0-.588-.445,4.31,4.31,0,0,0-.675-.3,1.766,1.766,0,0,0-.287-.079,5.559,5.559,0,0,0-.794-.1,4.748,4.748,0,0,0-.833.088,1.777,1.777,0,0,0-.339.079,4.224,4.224,0,0,0-.711.309,3.405,3.405,0,0,0-1.075,1.038,1.346,1.346,0,0,0-.132.218,4.955,4.955,0,0,0-.282.687,3.437,3.437,0,0,0-.09.516,4.358,4.358,0,0,0-.053.521,2.058,2.058,0,0,0,.586,1.415,2,2,0,0,0,2.828,0A2.09,2.09,0,0,0,53.8,126.643Z"/><path class="c" d="M51.8,165.051a1.366,1.366,0,0,1,1.492-1.457,1.5,1.5,0,1,1-1.492,1.457Z"/><path class="c" d="M53.8,165.051a2.187,2.187,0,0,1,.018-.256l-.072.532a1.7,1.7,0,0,1,.108-.4l-.2.478a1.406,1.406,0,0,1,.177-.3l-.313.4a1.37,1.37,0,0,1,.21-.207l-.4.312a1.431,1.431,0,0,1,.273-.159l-.478.2a1.76,1.76,0,0,1,.427-.113l-.532.071a2.008,2.008,0,0,1,.5,0l-.532-.071a1.711,1.711,0,0,1,.385.1l-.478-.2a1.426,1.426,0,0,1,.279.159l-.405-.313a1.325,1.325,0,0,1,.24.239l-.313-.405a1.494,1.494,0,0,1,.17.292l-.2-.478a1.886,1.886,0,0,1,.128.472l-.072-.531a1.944,1.944,0,0,1,.007.476l.071-.532a1.629,1.629,0,0,1-.1.387l.2-.478a1.493,1.493,0,0,1-.183.317l.313-.4a1.489,1.489,0,0,1-.226.23l.4-.313a1.509,1.509,0,0,1-.3.179l.478-.2a1.712,1.712,0,0,1-.422.114l.532-.071a2.122,2.122,0,0,1-.491,0l.531.071a1.543,1.543,0,0,1-.372-.1l.478.2a1.314,1.314,0,0,1-.267-.154l.405.313a1.354,1.354,0,0,1-.227-.227l.313.405a1.512,1.512,0,0,1-.186-.324l.2.478a1.93,1.93,0,0,1-.125-.461l.071.531a2.249,2.249,0,0,1-.019-.273,2.062,2.062,0,0,0-.586-1.414,2,2,0,0,0-2.828,0,2.066,2.066,0,0,0-.586,1.414,4.994,4.994,0,0,0,.108.905,3.938,3.938,0,0,0,.322.868,3.2,3.2,0,0,0,.548.773,1.428,1.428,0,0,0,.166.154,3.524,3.524,0,0,0,.591.429,3.72,3.72,0,0,0,1.462.407,3.813,3.813,0,0,0,1.127-.094,3.05,3.05,0,0,0,.954-.38,4.381,4.381,0,0,0,.571-.431,1.543,1.543,0,0,0,.171-.172,3.369,3.369,0,0,0,.83-1.624,3.74,3.74,0,0,0,.072-.954,3.893,3.893,0,0,0-.18-.994,3.817,3.817,0,0,0-.72-1.251,1.386,1.386,0,0,0-.163-.171,4.109,4.109,0,0,0-.588-.445,4.218,4.218,0,0,0-.675-.3,1.585,1.585,0,0,0-.287-.079,5.42,5.42,0,0,0-.794-.1,4.748,4.748,0,0,0-.833.088,1.777,1.777,0,0,0-.339.079,4.144,4.144,0,0,0-.711.309,3.413,3.413,0,0,0-1.075,1.037,1.4,1.4,0,0,0-.132.219,4.994,4.994,0,0,0-.282.686,3.46,3.46,0,0,0-.09.516,4.375,4.375,0,0,0-.053.522,2.056,2.056,0,0,0,.586,1.414,2,2,0,0,0,2.828,0A2.087,2.087,0,0,0,53.8,165.051Z"/><path class="c" d="M51.8,178.745a1.366,1.366,0,0,1,1.492-1.457,1.5,1.5,0,1,1-1.492,1.457Z"/><path class="c" d="M53.8,178.745a2.186,2.186,0,0,1,.018-.255l-.072.531a1.679,1.679,0,0,1,.108-.4l-.2.477a1.431,1.431,0,0,1,.177-.3l-.313.405a1.376,1.376,0,0,1,.21-.208l-.4.313a1.435,1.435,0,0,1,.273-.16l-.478.2a1.762,1.762,0,0,1,.427-.114l-.532.072a2.008,2.008,0,0,1,.5,0l-.532-.071a1.662,1.662,0,0,1,.385.1l-.478-.2a1.426,1.426,0,0,1,.279.159l-.405-.312a1.352,1.352,0,0,1,.24.238l-.313-.4a1.486,1.486,0,0,1,.17.291l-.2-.478a1.893,1.893,0,0,1,.128.473l-.072-.532a1.944,1.944,0,0,1,.007.476l.071-.532a1.617,1.617,0,0,1-.1.387l.2-.478a1.5,1.5,0,0,1-.183.318l.313-.405a1.489,1.489,0,0,1-.226.23l.4-.313a1.462,1.462,0,0,1-.3.179l.478-.2a1.759,1.759,0,0,1-.422.115l.532-.072a2.068,2.068,0,0,1-.491,0l.531.071a1.543,1.543,0,0,1-.372-.1l.478.2a1.362,1.362,0,0,1-.267-.154l.405.312a1.354,1.354,0,0,1-.227-.227l.313.405a1.505,1.505,0,0,1-.186-.323l.2.477a1.93,1.93,0,0,1-.125-.461l.071.532a2.279,2.279,0,0,1-.019-.274,2.062,2.062,0,0,0-.586-1.414,2,2,0,0,0-2.828,0,2.066,2.066,0,0,0-.586,1.414,5,5,0,0,0,.108.906,3.93,3.93,0,0,0,.322.867,3.161,3.161,0,0,0,.548.773,1.346,1.346,0,0,0,.166.154,3.524,3.524,0,0,0,.591.429,3.72,3.72,0,0,0,1.462.407,3.846,3.846,0,0,0,1.127-.093,3.077,3.077,0,0,0,.954-.381,4.293,4.293,0,0,0,.571-.431,1.39,1.39,0,0,0,.171-.172,3.361,3.361,0,0,0,.83-1.623,3.743,3.743,0,0,0,.072-.954,3.877,3.877,0,0,0-.18-.994,3.807,3.807,0,0,0-.72-1.251,1.327,1.327,0,0,0-.163-.172,4.184,4.184,0,0,0-.588-.445,4.31,4.31,0,0,0-.675-.3,1.766,1.766,0,0,0-.287-.079,5.559,5.559,0,0,0-.794-.1,4.748,4.748,0,0,0-.833.088,1.777,1.777,0,0,0-.339.079,4.224,4.224,0,0,0-.711.309,3.405,3.405,0,0,0-1.075,1.038,1.346,1.346,0,0,0-.132.218,4.955,4.955,0,0,0-.282.687,3.437,3.437,0,0,0-.09.516,4.358,4.358,0,0,0-.053.521,2.058,2.058,0,0,0,.586,1.415,2,2,0,0,0,2.828,0A2.09,2.09,0,0,0,53.8,178.745Z"/><path class="c" d="M75.757,92.2c-1.629,2.738-3.652,5.287-5.524,7.858-2.631,3.611-5.526,7.528-8.111,10.848-.968,1.243-1.923,2.524-3.011,3.667-1.775,1.864,1.049,4.7,2.828,2.828a93.923,93.923,0,0,0,6.711-8.511q4.131-5.5,8.127-11.105c.829-1.17,1.7-2.332,2.434-3.566,1.32-2.217-2.137-4.231-3.454-2.019Z"/><path class="c" d="M41.051,94.174a17.836,17.836,0,0,0,2.093,3.7c1.207,1.79,2.486,3.532,3.779,5.261,2.486,3.323,4.99,6.675,7.719,9.8,1.438,1.65,2.764,3.4,4.041,5.178.276.385.552.771.817,1.164a2.075,2.075,0,0,0,.226.338c.3.251-.168-.353-.081-.642a1.923,1.923,0,0,0,.042.53c.106,1.667.116,3.344.148,5.014.269,13.817.3,27.64.366,41.46.023,4.87.053,9.741.053,14.612,0,2.574,4,2.578,4,0,0-11.4-.085-22.8-.171-34.2-.051-6.749-.1-13.5-.218-20.247-.034-1.987-.062-3.976-.146-5.962-.017-.412-.033-.824-.077-1.234-.2-1.82-2.066-3.642-3.131-5.041-2.837-3.726-5.926-7.251-8.767-10.978-1.5-1.97-2.983-3.956-4.4-5.986-.557-.8-1.107-1.6-1.624-2.43-.2-.313-.39-.629-.569-.953-.072-.131-.137-.267-.212-.4-.282-.487.06.195-.03-.049-.885-2.393-4.753-1.358-3.857,1.064Z"/><path class="c" d="M78.344,93.8c4.5,1.873,8.924,3.943,13.269,6.162,2.038,1.041,4.061,2.112,6.076,3.2a47.738,47.738,0,0,1,6.277,3.462,2.013,2.013,0,0,0,2.737-.718,2.049,2.049,0,0,0-.718-2.736,47.79,47.79,0,0,0-6.277-3.462c-2.14-1.152-4.289-2.288-6.455-3.389q-6.8-3.457-13.846-6.374a2.012,2.012,0,0,0-2.46,1.4,2.051,2.051,0,0,0,1.4,2.461Z"/><path class="c" d="M119.189,120.248a72.524,72.524,0,0,1,1.041,14.8,119.938,119.938,0,0,1-.782,12.554c-.662,5.114-2.894,13.024-9.662,11.728-4.611-.884-8.39-4.977-11.088-8.56a2.064,2.064,0,0,0-2.737-.717,2.014,2.014,0,0,0-.717,2.736c3,3.988,6.632,7.829,11.347,9.736a10.935,10.935,0,0,0,11.648-1.889c2.663-2.466,3.973-6.166,4.676-9.638a84.341,84.341,0,0,0,1.2-12.763,83.423,83.423,0,0,0-1.07-19.045c-.464-2.529-4.32-1.458-3.857,1.063Z"/><path class="a" d="M66.151,149.853a16.193,16.193,0,0,1,12.03-4.1l.132,0c6.517,1.244,9.093-1.016,12.826-2.189,2.426-.762,5.8-2.286,8.078-3.247,3.3-1.395,9.56-6.195,4.937-8.687-1.339-.487-3.838-.938-5.191-.48a13.289,13.289,0,0,0-1.863-.414c-2.688.06-5.656,1.052-8.246,1.622a21.225,21.225,0,0,1-3.835.845c-.507.023-1.786.04-3.34.058.553-.309.88-.49.88-.49a2.865,2.865,0,0,0,.825-3.613c-.786-1.077-4.1-1.34-5.529-1.438-2.723-.187-8.4-.564-11.778.989-1.643.755-2.988,2.538-3.955,3.776s-2.191,2.174-3.326,3.466l-3.662,3.452,4.985,14.133Z"/><path class="c" d="M60.211,137.367c1.075-1.188,2.315-2.219,3.325-3.466a18.217,18.217,0,0,1,2.508-2.818c1.809-1.469,4.676-1.5,6.891-1.537a53.052,53.052,0,0,1,6.135.276c.873.088,1.85.514,2.652.554.277.014.145.257.028-.117-.164-.532-.072.132-.041.057-.079.186.06.584-.159.73-2.131,1.422-.13,4.888,2.019,3.454,2.619-1.748,3.067-6.193-.051-7.683-2.439-1.164-5.52-1.136-8.177-1.238-3.308-.127-6.909-.081-9.986,1.28a11.161,11.161,0,0,0-4.022,3.418c-1.228,1.525-2.641,2.814-3.951,4.262-1.724,1.9,1.1,4.742,2.829,2.828Z"/><path class="c" d="M67.565,151.267a14.609,14.609,0,0,1,10.645-3.509,24.545,24.545,0,0,0,6.648.076,22.326,22.326,0,0,0,4.522-1.481c3.71-1.521,7.513-2.766,11.166-4.449,2.778-1.28,6.322-3.752,7.106-6.9,1.242-4.994-5.534-6.822-9.221-5.778H99.5c-.6-.09-1.158-.343-1.767-.426a8.324,8.324,0,0,0-2.138.061,37.987,37.987,0,0,0-4.722.949,30.915,30.915,0,0,1-6.849,1.423c-3.6.067-7.213.016-10.814.162-2.565.1-2.578,4.1,0,4,3.864-.157,7.738-.012,11.6-.18a23.711,23.711,0,0,0,4.579-.924c1.729-.419,3.45-.9,5.195-1.244a12.837,12.837,0,0,1,2.094-.29,8.072,8.072,0,0,1,1.757.326,11.829,11.829,0,0,0,2.066-.119,8.889,8.889,0,0,1,1.94.254,2.708,2.708,0,0,1,1.24.5c.242.207.18.229.093.057.163.323.024.2.028.073-.008.241,0,.258-.258.682a6.246,6.246,0,0,1-1.07,1.275,17.726,17.726,0,0,1-5.539,3.336c-2.595,1.115-5.246,2.021-7.868,3.056a21.916,21.916,0,0,1-6.011,1.877,29.571,29.571,0,0,1-4.871-.32,19.528,19.528,0,0,0-5.225.43,18.732,18.732,0,0,0-8.219,4.258c-1.975,1.657.867,4.474,2.828,2.829Z"/><path class="c" d="M83.19,139.963a117.2,117.2,0,0,0,16.362-3.653,2.047,2.047,0,0,0,1.4-2.461,2.021,2.021,0,0,0-2.46-1.4,117.1,117.1,0,0,1-16.362,3.654,2.017,2.017,0,0,0-1.4,2.46,2.045,2.045,0,0,0,2.46,1.4Z"/><path class="a" d="M2.41,149.68a61.735,61.735,0,0,0-.343,8.085c.156,5.727,2.4,9.384,6.74,12.871,3.868,3.112,14.881,2.486,19.278.863,12.253-4.52,31.483-14.067,40.257-19.683-1.6-2.011-9.861-18.185-11.2-19.74-6.584,2.411-23.454,10.16-31.877,12.968"/><path class="c" d="M12.086,108.356c-4.28,8.392-6.918,17.655-9.04,26.8-.881,3.8-1.665,7.629-2.237,11.487a48.29,48.29,0,0,0-.49,13.888A18.014,18.014,0,0,0,7.1,171.812c3.13,2.568,7.389,3.018,11.312,3.032a31.336,31.336,0,0,0,11.217-1.795c4.357-1.653,8.638-3.511,12.876-5.448a219.165,219.165,0,0,0,26.846-14.058,2.041,2.041,0,0,0,.405-3.141c.495.639-.036-.091-.142-.255-.19-.3-.37-.6-.549-.9-.452-.762-.886-1.533-1.318-2.306-1.19-2.13-2.348-4.277-3.511-6.422-1.111-2.051-2.219-4.1-3.361-6.139a24.068,24.068,0,0,0-2.324-3.718,1.94,1.94,0,0,0-1.946-.514c-10.763,3.964-20.992,9.314-31.877,12.967-2.428.815-1.387,4.679,1.063,3.857,10.886-3.653,21.114-9,31.877-12.967l-1.946-.514c-.294-.353-.114-.166.09.162.172.276.344.551.51.83.434.728.849,1.467,1.263,2.207,1.174,2.1,2.317,4.224,3.465,6.342,1.841,3.395,3.5,7.133,5.877,10.2l.405-3.142A206.133,206.133,0,0,1,45.2,161.943c-4.114,1.965-8.266,3.86-12.481,5.6-3.3,1.361-6.525,2.7-10.1,3.084-3.611.386-7.741.544-11.191-.793a11.463,11.463,0,0,1-3.954-3.163,12.616,12.616,0,0,1-2.793-4.853,21.151,21.151,0,0,1-.623-6.457,59.568,59.568,0,0,1,.492-6.857c.382-2.908,1.126-6.736,1.826-9.945,2.089-9.583,4.688-19.408,9.163-28.183,1.167-2.289-2.282-4.315-3.454-2.019Z"/><path class="a" d="M116.755,112.485c.508-3.607,5.2-13.765,5.2-13.765.769-1.49,1.726-3.106,3.34-3.559a3.123,3.123,0,0,1,3.967,2.993,5.805,5.805,0,0,1-.842,2.648q-.767,1.461-1.66,2.85a2.591,2.591,0,0,1,2.777.638,3.617,3.617,0,0,1,.922,2.27,5.008,5.008,0,0,1-.052,1.142,11.963,11.963,0,0,1-1.286,3.4l-1.327,2.652a5.285,5.285,0,0,1-1.426,2s-.024.018-.068.048a2.208,2.208,0,0,1,1.154.788,3.487,3.487,0,0,1,.577,1.727,3.283,3.283,0,0,1-.734,2.081,32.949,32.949,0,0,1-3,3.2,3.035,3.035,0,0,1-2.448.706,2.465,2.465,0,0,1-.914-.46S115.533,121.164,116.755,112.485Z"/><path class="c" d="M123.681,99.729a10.636,10.636,0,0,1,1.184-1.928q.18-.2.378-.385c.287-.268-.023.006.276-.193a1.092,1.092,0,0,1,.722-.172c-.209-.019.236.051.291.07a2.816,2.816,0,0,1,.263.126c-.024-.019.236.229.291.3-.166-.2.133.3.044.064a1.057,1.057,0,0,1,.121.769,3.578,3.578,0,0,1-.384,1.074,34.863,34.863,0,0,1-6.885,9.346c-1.843,1.8.986,4.631,2.828,2.828a40.523,40.523,0,0,0,5.036-6,36.992,36.992,0,0,0,2.053-3.348,9.113,9.113,0,0,0,1.358-3.993,5.164,5.164,0,0,0-5.375-5.221c-2.779.164-4.469,2.373-5.655,4.65a2.045,2.045,0,0,0,.717,2.737,2.022,2.022,0,0,0,2.737-.718Z"/><path class="c" d="M125.491,117.653c.076.015.151.034.226.056.2.07.156.046-.129-.07a2.093,2.093,0,0,0,.336.181c.176.122.14.093-.11-.086.113.121.113.112,0-.027-.185-.327.09.2.122.252.217.386-.091-.378.018.055q.045.137.078.276c.043.224.041.185-.006-.115.032.005-.017.39,0,.4q.075-.471.017-.139l-.03.13c-.021.087-.046.173-.074.258-.075.2-.057.17.053-.1a2.139,2.139,0,0,0-.191.35c-.208.373.209-.227.046-.043-.039.044-.076.09-.114.135q-.36.423-.73.84a23.8,23.8,0,0,1-1.847,1.95c-.06.053-.127.1-.183.158.486-.489.283-.212.08-.077-.059.039-.426.313-.486.282l.225-.09c-.084.034-.17.064-.257.09-.5.148,0,.022,0,.03a2.489,2.489,0,0,1-.273.008q-.333-.024.115.021a1.089,1.089,0,0,1-.148-.043q-.209-.072.2.09c-.075-.036-.148-.075-.22-.117q-.276-.178.136.124a2.154,2.154,0,0,0-1.414-.586,2,2,0,0,0-1.414,3.414,4.547,4.547,0,0,0,2.537,1.08,4.729,4.729,0,0,0,2.466-.538,8.253,8.253,0,0,0,2.386-1.949c1.484-1.587,3.323-3.372,3.111-5.74a4.619,4.619,0,0,0-3.463-4.31,2,2,0,0,0-1.063,3.857Z"/><path class="c" d="M132.458,106.56a5.566,5.566,0,0,0-2.273-4.309,4.492,4.492,0,0,0-4.18-.438c-2.407,1.016-3.2,3.814-4.169,6-1.084,2.445-2.863,5.465-1.171,8.038a4.99,4.99,0,0,0,4.026,2.391,4.866,4.866,0,0,0,4.118-2.237,31.679,31.679,0,0,0,2.182-4.188,10.816,10.816,0,0,0,1.467-5.262,2,2,0,0,0-4,0,5.864,5.864,0,0,1-.592,2.564c-.472,1.014-.993,2.007-1.494,3.008-.216.432-.423.871-.661,1.293-.041.074-.419.641-.215.388-.059.073-.124.142-.19.21-.116.118-.215.322-.1.1-.026.048-.377.174,0,.032-.079.03-.181.041-.255.078-.24.121.274.022,0,.01a1.829,1.829,0,0,0-.267,0c.566-.066-.064.072,0,0-.016.018-.431-.151-.025.026-.079-.034-.155-.1-.234-.128-.18-.065.157.194-.074-.053-.076-.082-.161-.174-.241-.249.025.024.163.256.048.066-.1-.168-.2-.33-.292-.5.234.458-.017-.489.043.16-.016-.174.055-.08-.009-.034q-.03.251.035-.114l.048-.206a11.92,11.92,0,0,1,.412-1.332c.028-.074.3-.726.156-.4.1-.234.2-.465.309-.7.694-1.542,1.365-3.093,2.076-4.626.018-.041.2-.3.027-.075a3.468,3.468,0,0,1,.271-.3c.091-.094.19-.18.282-.273.281-.284-.115.074.053-.035s-.1.041-.126.046c.075-.012.443-.037.188-.055-.283-.02.055.016.124.023.287.029-.476-.111.015.017.036.009.3.078.063,0-.26-.081.134.081.191.111.147.075.157.21-.024-.024.071.091.169.162.241.255-.195-.253-.008.02.011.066.139.332,0-.075.066.134.029.092.058.184.082.277.011.046.085.62.049.235a2.043,2.043,0,0,0,2,2A2.022,2.022,0,0,0,132.458,106.56Z"/><path class="a" d="M93.611,117.9c2.2-10.578,6.122-29.72,8.356-40.435a3.483,3.483,0,0,1,4.132-2.7c6.052,1.277,14.233,3.006,19.451,4.108A3.485,3.485,0,0,1,128.243,83c-2.531,12.116-6.158,29.486-8.434,40.318a3.484,3.484,0,0,1-4.119,2.7c-5.43-1.124-13.951-2.867-19.373-3.99A3.484,3.484,0,0,1,93.611,117.9Z"/><path class="c" d="M95.54,118.436q2.629-12.624,5.215-25.255,1.3-6.3,2.6-12.589c.248-1.195.227-3.59,1.753-3.887a8.483,8.483,0,0,1,2.865.5l3.76.794L119,79.536l3.184.673a19.868,19.868,0,0,1,3.178.689c1.775.709.561,3.444.291,4.736q-.712,3.413-1.426,6.824-2.92,13.983-5.85,27.962a9.241,9.241,0,0,1-.752,3.018c-.579.866-1.494.633-2.355.455q-3.678-.761-7.359-1.515l-7.705-1.585c-1.27-.262-4.995-.3-4.667-2.357a2.063,2.063,0,0,0-1.4-2.461,2.016,2.016,0,0,0-2.46,1.4,5.6,5.6,0,0,0,3.466,6.389,48.12,48.12,0,0,0,6.991,1.506l7.994,1.643,3.411.7a9.509,9.509,0,0,0,4.059.342c2.809-.639,3.889-2.936,4.427-5.5q.747-3.557,1.492-7.112,1.7-8.113,3.394-16.227c1.073-5.133,2.233-10.257,3.219-15.408a5.6,5.6,0,0,0-3.382-6.542,48.32,48.32,0,0,0-7.081-1.567l-8.483-1.792c-2.335-.493-5.188-1.612-7.546-.825-2.65.885-3.443,3.175-3.959,5.655q-.668,3.216-1.332,6.431-3.337,16.152-6.67,32.306C91.159,119.884,95.014,120.958,95.54,118.436Z"/><path class="a" d="M112.255,82.219c1.3.2,4.043.791,5.08.939"/><path class="c" d="M111.724,84.147c1.7.262,3.375.692,5.079.939a2.2,2.2,0,0,0,1.542-.2,2,2,0,0,0,.717-2.737,1.926,1.926,0,0,0-1.195-.919c-1.7-.247-3.378-.677-5.08-.939a2.182,2.182,0,0,0-1.541.2,2,2,0,0,0-.718,2.736,1.935,1.935,0,0,0,1.2.919Z"/><path class="a" d="M101.308,117.078c1.333.222,9.62,1.893,11.064,2.2"/><path class="c" d="M100.776,119.007c3.7.624,7.392,1.419,11.064,2.2a2,2,0,1,0,1.064-3.857c-3.673-.781-7.362-1.577-11.064-2.2a2.05,2.05,0,0,0-2.461,1.4,2.025,2.025,0,0,0,1.4,2.46Z"/><path class="e" d="M56.852,97.4a10.336,10.336,0,0,0-.779,4.846c-3.578,1.019-9.277,4.217-10.267,6.055-.665,2.659.386,11.589,1.053,13.1,2.551-.588,12.925-5.9,13.571-8.053l.311-1.036.487,1.169c.633,1.522,1.831,5.24,2.783,6.454.862,1.1,7.526,2.667,9.151,2.918,1.287.2,3.3.834,3.694-.728.283-1.114-2.016-11.609-3.121-12.959a16.964,16.964,0,0,0-7.443-4.667,13.655,13.655,0,0,0,.032-6.938s.107-2.56-4.812-2.56S56.852,97.4,56.852,97.4Z"/><path class="c" d="M54.879,100.524a31.372,31.372,0,0,0-7.708,3.844,11.115,11.115,0,0,0-2.865,2.58,5.319,5.319,0,0,0-.688,2.876,40.752,40.752,0,0,0,.346,6.7,20.656,20.656,0,0,0,.967,5.41,2.062,2.062,0,0,0,2.46,1.4,24.559,24.559,0,0,0,4.8-1.981,55.8,55.8,0,0,0,5.927-3.305c1.418-.921,3.122-1.98,3.966-3.506a9.021,9.021,0,0,0,.746-2.984,9.234,9.234,0,0,0,.114-3.733c-.687-2.478-4.547-1.426-3.858,1.063.048.19.046.135-.007-.167.008.11.011.22.01.331-.008.2-.012.395-.026.593a11.2,11.2,0,0,1-.165,1.32c-.081.481-.17.963-.286,1.437-.074.305-.32.6.037.084-.05.072-.08.158-.131.23-.167.236.364-.357-.025.017-.092.088-.177.183-.269.272a10.378,10.378,0,0,1-.8.682c.369-.288-.227.16-.292.207q-.229.162-.461.32-.624.425-1.267.819a58.908,58.908,0,0,1-5.325,2.911q-.622.3-1.252.589c-.194.088-.389.174-.584.26l-.317.137q.3-.124.1-.044a12.434,12.434,0,0,1-1.7.59l2.46,1.4a8.172,8.172,0,0,1-.417-1.624c-.182-.952-.281-1.674-.367-2.39a47.429,47.429,0,0,1-.408-6.3c.005-.414.035-.824.056-1.237.024-.494-.133.161.008-.125.219-.446-.087.069-.024-.056s.047-.079-.092.109c.072-.086.147-.169.224-.249.161-.152.314-.31.48-.457a8.912,8.912,0,0,1,1.045-.794,27.67,27.67,0,0,1,6.65-3.37c2.423-.824,1.383-4.689-1.064-3.857Z"/><path class="c" d="M55.912,110.445a15.4,15.4,0,0,0,3.719-3.892,2.244,2.244,0,0,0,.2-1.541,2,2,0,0,0-2.46-1.4l-.478.2a2.011,2.011,0,0,0-.717.717c-.124.182-.254.358-.388.531l.312-.4A13.961,13.961,0,0,1,53.7,107.15l.405-.313c-.068.053-.137.1-.208.154a2.238,2.238,0,0,0-.919,1.2,2.043,2.043,0,0,0,.2,1.541,2.017,2.017,0,0,0,1.2.919,1.966,1.966,0,0,0,1.541-.2Z"/><path class="c" d="M66.446,106.674a15.92,15.92,0,0,1,4.73,2.746c.268.235.527.48.77.74.1.109.413.588.1.07a1.356,1.356,0,0,1,.1.152c.061.141.141.283.21.421.119.234-.177-.5-.045-.1.042.126.095.249.14.374a52.936,52.936,0,0,1,1.958,7.607c.118.595.229,1.191.326,1.79.019.116.125.839.082.518s.035.313.044.435a4.223,4.223,0,0,0,.02.465c.038.193.047-.331.152-.461a2.772,2.772,0,0,1,.333-.27c.166-.157.159.011-.12-.007a3.7,3.7,0,0,1-.791-.088,49.433,49.433,0,0,1-7.608-1.9c-.149-.052-.3-.106-.445-.16s-.5-.2-.165-.055c-.262-.114-.507-.254-.762-.38-.2-.1-.284-.32.064.07-.205-.229.233.49.025.04-.159-.343-.384-.665-.548-1.01-.682-1.428-1.212-3.142-1.858-4.718a2.064,2.064,0,0,0-2.46-1.4,2.012,2.012,0,0,0-1.4,2.46c.745,1.817,1.343,3.689,2.168,5.475a5.386,5.386,0,0,0,2.9,2.978,40.574,40.574,0,0,0,8.823,2.415c2.119.386,4.7.48,5.53-2.025a7.414,7.414,0,0,0-.118-3.375,59.547,59.547,0,0,0-2.056-8.762,8.354,8.354,0,0,0-2.059-3.686,20.112,20.112,0,0,0-6.979-4.222,2.016,2.016,0,0,0-2.46,1.4,2.045,2.045,0,0,0,1.4,2.46Z"/><path class="c" d="M61.675,109.251a20.713,20.713,0,0,1,2.033,2.061c.776.849,1.541,1.711,2.354,2.526a2.062,2.062,0,0,0,1.414.586,2,2,0,0,0,1.414-3.415c-.813-.815-1.578-1.676-2.354-2.526a20.7,20.7,0,0,0-2.033-2.06,2.149,2.149,0,0,0-1.414-.586,2.032,2.032,0,0,0-1.414.586,2.01,2.01,0,0,0-.586,1.414,1.954,1.954,0,0,0,.586,1.414Z"/><path class="c" d="M55.125,96.391a7.63,7.63,0,0,0-.8,2.4,14.836,14.836,0,0,0-.263,3.182,8.9,8.9,0,0,0,.735,3.377,4.012,4.012,0,0,0,2.419,2.145,11.551,11.551,0,0,0,2.848.556,16.423,16.423,0,0,0,3.1.028,10.983,10.983,0,0,0,3.036-.6,2.532,2.532,0,0,0,1.451-1.032,5.772,5.772,0,0,0,.364-.815,7.652,7.652,0,0,0,.355-1.215,18.222,18.222,0,0,0,.388-3.763,10.683,10.683,0,0,0-.506-3.625A2,2,0,1,0,64.4,98.1a5.88,5.88,0,0,1,.236.842c.02.1.093.59.05.242-.045-.37,0,.039.008.089.009.082.016.163.023.244a15.062,15.062,0,0,1,.014,2.187,5.714,5.714,0,0,0-.093,1.019c-.02-.147.067-.441.013-.106-.012.079-.024.158-.037.237-.026.151-.054.3-.085.453a8.61,8.61,0,0,1-.217.854c-.032.1-.209.546-.048.175s-.015.016-.061.1l.717-.717c-.273.127.22-.089.221-.089-.06.016-.124.048-.182.068-.112.041-.225.076-.34.11-.263.077-.53.138-.8.189-.15.028-.313.035-.46.076.031-.009.516-.058.175-.026l-.182.02c-.33.033-.661.054-.992.065a17,17,0,0,1-1.875-.038c-.14-.011-.28-.023-.42-.038l-.235-.026c-.338-.035.162.02.188.026-.278-.068-.57-.091-.85-.154-.218-.049-.434-.105-.645-.174-.1-.034-.212-.088-.318-.115-.018,0,.427.219.3.125a1.483,1.483,0,0,0-.159-.081c-.082-.045-.339-.212-.019.006.272.186.139.091.061.011-.123-.125.181.244.177.231a1.639,1.639,0,0,0-.19-.312,1.419,1.419,0,0,0-.084-.17c.028.011.178.476.088.209a7.087,7.087,0,0,1-.215-.743c-.027-.124-.048-.248-.071-.373-.029-.159.029-.289.026.2,0-.092-.02-.189-.028-.281a11.128,11.128,0,0,1-.007-1.732c.012-.17.027-.341.046-.511.006-.056.014-.111.019-.167.021-.254-.078.494-.019.15.049-.29.1-.578.166-.864.058-.248.125-.494.207-.736.018-.05.038-.1.054-.15.076-.243-.118.271-.119.273.055-.09.092-.2.144-.287a2,2,0,0,0-3.454-2.019Z"/><path class="a" d="M52.055,103.04C48.03,99.2,45.391,96.6,42.479,91.865a21.009,21.009,0,0,1,4.277-5.779A42.551,42.551,0,0,0,59.031,94.64c.254.115.537.256.619.523a.985.985,0,0,1-.142.693C59.349,96.185,53.731,101.447,52.055,103.04Z"/><path class="a" d="M70.328,103.808a76.9,76.9,0,0,0,8.695-11.943,20.989,20.989,0,0,0-4.277-5.779A42.537,42.537,0,0,1,62.471,94.64c-.254.115-.537.256-.619.523a.985.985,0,0,0,.142.693C62.153,96.185,68.357,102.138,70.328,103.808Z"/><path class="c" d="M53.469,101.626a55.175,55.175,0,0,1-9.263-10.77v2.019A19.854,19.854,0,0,1,48.171,87.5H45.342a44.686,44.686,0,0,0,6.378,5.282q1.617,1.111,3.328,2.075.831.467,1.683.894c.257.129.516.255.775.378.171.08.343.16.515.238q.453.256-.1-.2l-.273-1.009c-.015-.193.353-.608.361-.614a2.244,2.244,0,0,0-.215.231c-.227.239-.463.469-.7.7-.714.7-1.438,1.391-2.162,2.081-1.428,1.36-2.866,2.708-4.3,4.066-1.87,1.777.961,4.6,2.828,2.828,2.154-2.046,4.337-4.064,6.457-6.146,1.144-1.123,2.382-2.53,1.4-4.244-.627-1.1-2.035-1.479-3.1-2.03-1.147-.6-2.266-1.248-3.353-1.946a39.772,39.772,0,0,1-6.709-5.417,2.038,2.038,0,0,0-2.829,0,22.4,22.4,0,0,0-3.983,5.081,7.22,7.22,0,0,0-.809,1.581,2.5,2.5,0,0,0,.518,2.05c.547.865,1.119,1.713,1.725,2.538a65.773,65.773,0,0,0,7.848,8.533C52.5,106.232,55.336,103.407,53.469,101.626Z"/><path class="c" d="M71.742,105.222a78.577,78.577,0,0,0,7.152-9.4c.57-.878,1.157-1.756,1.682-2.663.752-1.3.224-2.284-.46-3.451a22.411,22.411,0,0,0-3.956-5.035,2.035,2.035,0,0,0-2.828,0,39.488,39.488,0,0,1-6.216,5.094q-1.659,1.1-3.413,2.04c-1.079.577-2.56.975-3.326,1.968-1.323,1.715-.037,3.315,1.168,4.517,1.15,1.149,2.327,2.273,3.507,3.391,1.267,1.2,2.533,2.409,3.862,3.541a2.052,2.052,0,0,0,2.828,0,2.016,2.016,0,0,0,0-2.828c-1.673-1.425-3.259-2.96-4.846-4.479-.8-.761-1.588-1.525-2.369-2.3-.26-.258-.52-.515-.772-.78-.077-.081-.149-.175-.232-.25-.2-.173.342.415.329.578l-.273,1.009q-.55.452-.1.2c.132-.06.263-.12.394-.182q.463-.218.922-.447.8-.4,1.585-.84,1.747-.976,3.4-2.114A44.839,44.839,0,0,0,76.16,87.5H73.332A19.887,19.887,0,0,1,77.3,92.875V90.856a81.421,81.421,0,0,1-8.382,11.538,2.046,2.046,0,0,0,0,2.828A2.018,2.018,0,0,0,71.742,105.222Z"/><path class="c" d="M55.63,71.224a12.01,12.01,0,0,0,5.784,1.35,9.536,9.536,0,0,0,5.95-1.8,2,2,0,0,0,0-2.828,2.06,2.06,0,0,0-2.828,0c.691-.539-.02-.016-.239.1-.169.089-.62.229.012.014-.157.054-.31.12-.468.171-.424.136-.9.153-1.312.3.211-.075.327-.039.027-.01-.128.013-.257.024-.386.032-.311.02-.622.028-.933.026q-.417,0-.834-.03c-.128-.008-.255-.019-.383-.032-.072-.007-.145-.015-.217-.024-.157-.019-.1-.01.185.025a4.747,4.747,0,0,1-1.225-.272c-.172-.051-.339-.113-.509-.171-.447-.153.423.2.017.011-.21-.1-.417-.2-.622-.311a2,2,0,1,0-2.019,3.454Z"/><path class="c" d="M60.136,57.936a25.645,25.645,0,0,1,.607,2.777l-.071-.532a1.693,1.693,0,0,1,.01.383l.072-.531a.938.938,0,0,1-.042.172l.2-.478a.665.665,0,0,1-.061.111l.313-.405a.553.553,0,0,1-.091.09l.405-.313a1.773,1.773,0,0,1-.22.116l.478-.2a1.645,1.645,0,0,1-.371.108l.532-.072a1.5,1.5,0,0,1-.348,0l.532.071c-.131-.018-.26-.05-.391-.068a1.515,1.515,0,0,0-.8-.035,1.492,1.492,0,0,0-.744.237,2,2,0,0,0-.717,2.736l.313.405a1.992,1.992,0,0,0,.882.515c.35.047.689.134,1.046.15a3.436,3.436,0,0,0,1.6-.392A2.442,2.442,0,0,0,64.6,61.185a3.754,3.754,0,0,0-.014-1.654c-.151-.894-.357-1.781-.587-2.658a2.064,2.064,0,0,0-.92-1.2,2.043,2.043,0,0,0-1.541-.2,2.017,2.017,0,0,0-1.2.919,2.1,2.1,0,0,0-.2,1.541Z"/><path class="c" d="M46.01,49.919c-.463,1.507-.161,4.974,2.694,5.269,3.773-.023,3.973-4.214,2.7-6.184C50.367,47.39,47.31,46.719,46.01,49.919Z"/><path class="c" d="M76.225,49.92c.464,1.506.162,4.973-2.693,5.268-3.773-.023-3.974-4.214-2.7-6.184C71.868,47.39,74.926,46.719,76.225,49.92Z"/></svg>