<?xml version="1.0" encoding="utf-8"?>
<!-- Uploaded to: SVG Repo, www.svgrepo.com, Generator: SVG Repo Mixer Tools -->
<svg width="800px" height="800px" viewBox="-54.49 0 394.408 394.408" xmlns="http://www.w3.org/2000/svg"><defs><style>.a{fill:#ffffff;}.b{fill:#7a7473;}.c{fill:#211715;}.d{fill:#79c6e0;}.e{fill:#645d5c;}</style></defs><path class="a" d="M177.436,191.9c-.57-.25-3.37-1.54-5.61-2.56-1.52-.7-2.76-1.26-2.94-1.32-6.46-2.34-6.2-6.48-7.01-11.13-.27-1.55-.51-3.23-.71-4.96-.3-2.525-.511-5.15-.615-7.614,12.95-7.325,23.066-24.386,24.938-29.47.3-.922.923-2.658,1.474-4.719.733-.119,1.151-.183,1.151-.183a14.43,14.43,0,0,0,6.718-3.029,21.774,21.774,0,0,0,5.635-7.395,34.293,34.293,0,0,0,3.5-18.173,11.448,11.448,0,0,0-1.2-4.6,8.093,8.093,0,0,0-5.818-3.868,8.572,8.572,0,0,0-6.857,2.006s4.572-48.043-57.381-48.043c-59.026,0-57.626,48.043-57.626,48.043a8.572,8.572,0,0,0-6.857-2.006,8.093,8.093,0,0,0-5.818,3.868,11.448,11.448,0,0,0-1.2,4.6,34.293,34.293,0,0,0,3.5,18.173,21.774,21.774,0,0,0,5.635,7.395,14.43,14.43,0,0,0,6.718,3.029l2.19.336A58.281,58.281,0,0,0,90.36,151.967a53.926,53.926,0,0,0,12.255,11.026c-.119,2.778-.339,5.926-.649,8.835-.19,1.83-.43,3.57-.69,5.06-.81,4.63-.55,8.76-6.93,11.1-.03.01-.05.02-.08.03-.4.14-3.18,1.12-4.2,1.53a.843.843,0,0,0-.14.06.142.142,0,0,0-.06.02s8.991,20.247,43.658,20.247S177.436,191.9,177.436,191.9Z"/><path class="b" d="M65,47.975c-5.466,17.765-1.878,36.7,2.76,45a3.081,3.081,0,0,1,.465-.1,8.572,8.572,0,0,1,6.857,2.006l2.732-6.809c14.437-1.82,28.787-5.006,41.969-10.8A89.311,89.311,0,0,0,146.1,59.994a13.32,13.32,0,0,1,13.869-3.01h0c9.662,3.779,17.6,12.662,22.991,21.771a84.605,84.605,0,0,1,7.408,15.894,8.588,8.588,0,0,1,6.58-1.774,8.357,8.357,0,0,1,1.133.252l.208-.659c3.921-13.617,2.46-31.373-1.579-41.544-2.842-7.158-9.333-15.259-14.667-19.421l-5.926-6.815C167.449,8.739,145.885,1.947,128.869,2.4c-19.592.518-38.188,7.531-51.431,22.439a26.261,26.261,0,0,0-3.511,6.018A51.533,51.533,0,0,0,65,47.975Z"/><path class="c" d="M77.4,95.519l2.363-5.888.341-.85a2.4,2.4,0,0,0-.242-1.849,2.4,2.4,0,0,0-3.284-.861,2.792,2.792,0,0,0-1.1,1.434L73.11,93.393l-.341.85a2.407,2.407,0,0,0,.242,1.85,2.4,2.4,0,0,0,3.283.861,2.8,2.8,0,0,0,1.1-1.435Z"/><path class="c" d="M178.189,23.477C172.144,12.5,160.629,5.783,148.852,2.506a75.286,75.286,0,0,0-38.282-.063,71.922,71.922,0,0,0-19.09,7.762A59.806,59.806,0,0,0,75.36,23.6a24.67,24.67,0,0,0-2.894,4.771,36.486,36.486,0,0,1-2.89,4.37,51.47,51.47,0,0,0-4.633,8.519A63.512,63.512,0,0,0,60.191,60.05c-1.049,10.394,0,21.626,4.13,31.3.347.814.718,1.616,1.131,2.4,1.439,2.735,5.583.312,4.144-2.422-.183-.349-.361-.7-.53-1.055-.088-.186-.175-.374-.26-.562-.053-.118-.289-.662-.219-.5,0-.008-.305-.766-.417-1.065-.2-.517-.378-1.039-.553-1.563a55.324,55.324,0,0,1-1.686-6.381,66.458,66.458,0,0,1-1.252-15.393,61.274,61.274,0,0,1,2.922-17.1,50.046,50.046,0,0,1,3.579-8.364q1.122-2.07,2.435-4.029a34.33,34.33,0,0,0,2.729-3.975,23.935,23.935,0,0,1,2.534-4.51,38.581,38.581,0,0,1,3.44-3.634,59.61,59.61,0,0,1,7.358-6.126,65.077,65.077,0,0,1,17.151-8.558,71.742,71.742,0,0,1,36.187-2.477c10.794,2.194,22.129,7.15,28.786,16.311a33.465,33.465,0,0,1,2.244,3.55c1.49,2.706,5.637.287,4.145-2.423Z"/><path class="c" d="M180.345,33.2a47,47,0,0,1,8.516,8.927,41.771,41.771,0,0,1,6.068,10.867,66.9,66.9,0,0,1,3.211,24.363,60.845,60.845,0,0,1-2.166,14.473c-.845,2.977,3.785,4.248,4.628,1.276a72.261,72.261,0,0,0,1.85-27.867,65.441,65.441,0,0,0-2.54-12.465,44.2,44.2,0,0,0-5.938-11.724,52.279,52.279,0,0,0-10.235-11.244,2.477,2.477,0,0,0-3.394,0,2.417,2.417,0,0,0,0,3.394Z"/><path class="c" d="M191.787,96.578a6.086,6.086,0,0,1,8.536.788c1.206,1.585,1.283,3.85,1.346,5.754a30.791,30.791,0,0,1-.393,6.223c-1.31,7.59-5.34,16.84-13.8,18.284a2.421,2.421,0,0,0-1.676,2.953,2.455,2.455,0,0,0,2.952,1.676c8.53-1.457,13.618-9.419,16.046-17.089a36.036,36.036,0,0,0,1.629-12.935c-.253-4.208-1.462-8.182-5.325-10.4a11.07,11.07,0,0,0-12.709,1.352,2.421,2.421,0,0,0,0,3.394,2.448,2.448,0,0,0,3.394,0Z"/><path class="c" d="M185.626,123.562a28.754,28.754,0,0,1-1.344,7.223c-.272.917-.571,1.826-.876,2.733-.089.266-.174.534-.272.8-.028.076-.061.152-.088.228-.191.542.079-.17.006-.009a58.771,58.771,0,0,1-3.789,6.949,68.424,68.424,0,0,1-15.341,17.695A29.136,29.136,0,0,1,152.6,164.9c-3.01.691-1.736,5.32,1.276,4.629,8.541-1.959,15.688-8.121,21.32-14.56A73.343,73.343,0,0,0,187.046,137.3a37.276,37.276,0,0,0,3.38-13.736c.1-3.09-4.7-3.086-4.8,0Z"/><path class="c" d="M76.78,93.184a11.02,11.02,0,0,0-11.149-2.077c-4.128,1.632-6.2,5.09-6.727,9.378a35,35,0,0,0,6.131,24.222c2.8,3.785,6.655,6.741,11.386,7.549a2.471,2.471,0,0,0,2.952-1.676,2.421,2.421,0,0,0-1.676-2.953c-8.459-1.444-12.49-10.694-13.8-18.284a30.791,30.791,0,0,1-.393-6.223c.063-1.9.142-4.171,1.346-5.754a6.086,6.086,0,0,1,8.536-.788,2.461,2.461,0,0,0,3.394,0,2.421,2.421,0,0,0,0-3.394Z"/><path class="c" d="M75.089,122.691a68.888,68.888,0,0,0,8.634,24.094c4.968,8.172,12.183,15.557,20.7,20.031a39.844,39.844,0,0,0,14.534,4.383,2.417,2.417,0,0,0,2.4-2.4,2.453,2.453,0,0,0-2.4-2.4C101.67,164.614,88.215,149.13,82.8,133.556a76.771,76.771,0,0,1-3.077-12.141,2.419,2.419,0,0,0-2.952-1.676,2.455,2.455,0,0,0-1.677,2.952Z"/><path class="a" d="M228.451,214.735l-3.6,24.459c-2.809,22.126-6.709,48.388-11.132,78.123l.217.3c8.23,11.533,21.817,24.853,35.311,22.874,17.061-2.5,20.1-24.372,21.008-38.03,1.247-18.722,2.2-35.4-1.423-54.708Z"/><path class="a" d="M129.016,192.236h-.124a2.157,2.157,0,0,0,.311-1.517c-.18-.584-.8-.892-1.356-1.145a93.115,93.115,0,0,1-26.875-18.729A45.97,45.97,0,0,0,91.607,183.5l-2.356,4.935c5.907,10.406,33.742,49.157,42.9,60.53.047-.065.072-.1.072-.1,5.25-6.51,35.037-52.175,41.243-62.194L171.62,183.5a45.974,45.974,0,0,0-9.366-12.654,93.111,93.111,0,0,1-26.874,18.729c-.556.253-1.177.561-1.356,1.145a2.156,2.156,0,0,0,.31,1.517Z"/><path class="c" d="M90.5,191.942a2.581,2.581,0,0,0,1.129-.647l-1.059.617a60.517,60.517,0,0,0,6.77-2.64,10.659,10.659,0,0,0,5.233-6.312,47.974,47.974,0,0,0,1.385-7.836c.555-4.025.873-8.078,1.054-12.136.138-3.088-4.662-3.081-4.8,0-.165,3.694-.411,7.4-.911,11.069a54.078,54.078,0,0,1-1.245,7.25,5.79,5.79,0,0,1-1.049,2.2,7.317,7.317,0,0,1-2.834,1.984c-.833.356-1.711.622-2.563.929-1.025.37-2.6.709-3.385,1.491l1.059-.617-.06.02c-2.916.972-1.666,5.609,1.276,4.628Z"/><path class="c" d="M178.647,189.826c-2.589-1.148-5.144-2.373-7.73-3.527q-.579-.258-1.164-.5l-.144-.06q.988.42-.105-.043a12.186,12.186,0,0,1-1.841-.889,5.314,5.314,0,0,1-2.105-2.227,10.826,10.826,0,0,1-.815-2.822c-.213-1.164-.358-2.339-.553-3.506a101.14,101.14,0,0,1-1.244-11.932c-.144-3.075-4.945-3.093-4.8,0a111.924,111.924,0,0,0,1.416,13.208c.426,2.551.636,5.14,1.851,7.474a9.783,9.783,0,0,0,2.776,3.213,19.155,19.155,0,0,0,4.144,2.152c-.632-.274.542.25.638.294q.593.267,1.182.539,1.148.526,2.3,1.05c1.258.576,2.511,1.162,3.776,1.723a2.477,2.477,0,0,0,3.283-.861,2.418,2.418,0,0,0-.861-3.284Z"/><path class="d" d="M121.505,203.98c-.652-3.294-1.256-6.589-2.089-9.883,3.7,0,21.22-.041,26.312-.041-1.716,5.237-2.06,8.893-3.777,14.13a20.463,20.463,0,0,0-1.315,5.993c-.01.671,1.205,8.985,2.822,19.842-5.1,7.61-9.265,13.661-10.938,15.736a1.15,1.15,0,0,0-.069.1c-2.611-3.242-6.743-8.713-11.451-15.12,1.4-11.562,2.471-20.478,2.474-20.935a13.423,13.423,0,0,0-.554-3.376q-.192-.762-.37-1.523C122.167,207.262,121.83,205.621,121.505,203.98Z"/><path class="c" d="M123.35,215.186c5.663,0,11.326-.125,16.989-.128a2.4,2.4,0,1,0,0-4.8c-5.663,0-11.326.126-16.989.128a2.4,2.4,0,1,0,0,4.8Z"/><path class="c" d="M145.445,232.283q-.889-5.965-1.76-11.932c-.346-2.387-.665-4.461-.877-6.318-.338-2.969,1.183-5.936,1.957-8.74,1.053-3.818,1.762-7.714,2.981-11.488a2.421,2.421,0,0,0-2.314-3.038c-8.771,0-17.542.04-26.312.041a2.428,2.428,0,0,0-2.315,3.038c1.1,4.422,1.836,8.922,2.811,13.373.511,2.331,1.3,4.534,1.039,6.929-.722,6.533-1.545,13.055-2.337,19.579a2.413,2.413,0,0,0,2.4,2.4,2.459,2.459,0,0,0,2.4-2.4c.8-6.573,1.634-13.145,2.353-19.728.284-2.6-.559-5.067-1.121-7.579-1.03-4.6-1.772-9.269-2.916-13.85l-2.314,3.038c8.77,0,17.541-.04,26.312-.041l-2.315-3.038c-1.264,3.914-1.979,7.961-3.1,11.912-.875,3.085-2.384,6.314-2.01,9.592.744,6.528,1.841,13.029,2.808,19.526a2.416,2.416,0,0,0,2.952,1.676,2.462,2.462,0,0,0,1.677-2.952Z"/><path class="a" d="M109.642,211.63c-7.6-10.364-11.66-17.755-18.035-28.131a45.97,45.97,0,0,1,9.365-12.654,93.115,93.115,0,0,0,26.875,18.729c.556.253,1.176.561,1.356,1.145a2.157,2.157,0,0,1-.311,1.517C128.544,192.958,112.181,208.5,109.642,211.63Z"/><path class="a" d="M153.585,211.63c7.6-10.364,11.66-17.755,18.035-28.131a45.974,45.974,0,0,0-9.366-12.654,93.111,93.111,0,0,1-26.874,18.729c-.556.253-1.177.561-1.356,1.145a2.156,2.156,0,0,0,.31,1.517C134.683,192.958,151.045,208.5,153.585,211.63Z"/><path class="c" d="M111.714,210.419c-6.595-9.014-12.2-18.625-18.035-28.132v2.423a44.619,44.619,0,0,1,8.99-12.168H99.275a94.61,94.61,0,0,0,13.832,11.44q3.587,2.448,7.385,4.564,1.84,1.022,3.729,1.956c.64.316,2.712,1,2.909,1.428l-.327-1.211c.074.575.083.125.273-.021a3.552,3.552,0,0,0-.36.395c-.394.421-.8.828-1.209,1.236-1.375,1.38-2.768,2.742-4.158,4.106-3.328,3.263-6.671,6.512-9.946,9.828-1.178,1.191-2.394,2.373-3.458,3.67a2.469,2.469,0,0,0,0,3.394,2.418,2.418,0,0,0,3.394,0,85.484,85.484,0,0,1,5.98-6.2c2.787-2.768,5.6-5.51,8.4-8.263a44.9,44.9,0,0,0,5.009-5.108,4.459,4.459,0,0,0,.786-3.679c-.479-1.74-2.1-2.4-3.572-3.094a88.542,88.542,0,0,1-8.192-4.425,89.663,89.663,0,0,1-17.084-13.414,2.445,2.445,0,0,0-3.394,0,46.443,46.443,0,0,0-8.126,10.237c-.563.945-1.147,1.906-1.614,2.9-.653,1.394-.01,2.4.725,3.607q1.706,2.791,3.39,5.6c4.394,7.285,8.892,14.48,13.919,21.351a2.471,2.471,0,0,0,3.284.861A2.417,2.417,0,0,0,111.714,210.419Z"/><path class="c" d="M155.657,212.841c5.027-6.87,9.525-14.066,13.92-21.351q1.689-2.8,3.389-5.6c.747-1.221,1.395-2.179.726-3.607-.467-1-1.051-1.957-1.614-2.9a46.448,46.448,0,0,0-8.127-10.237,2.441,2.441,0,0,0-3.394,0A88.984,88.984,0,0,1,145.32,181.41a91.475,91.475,0,0,1-8.178,4.669c-2.664,1.341-6.633,2.57-5.289,6.428.754,2.166,3.156,3.9,4.729,5.454,2.791,2.749,5.6,5.481,8.383,8.236a96.43,96.43,0,0,1,6.923,7.13,2.417,2.417,0,0,0,3.394,0,2.454,2.454,0,0,0,0-3.394,104.674,104.674,0,0,0-7.6-7.8c-3.151-3.11-6.334-6.187-9.469-9.312-.525-.523-1.051-1.045-1.562-1.581-.148-.156-.287-.332-.444-.478s-.34-.548.223.3c-.1-.149-.027-.2-.008-.347l-.328,1.211c.177-.384,2.137-1.047,2.724-1.336q1.887-.927,3.729-1.945,3.893-2.151,7.57-4.667a94.505,94.505,0,0,0,13.832-11.44h-3.394a44.6,44.6,0,0,1,8.99,12.168v-2.423c-5.835,9.507-11.44,19.118-18.034,28.132a2.416,2.416,0,0,0,.861,3.283A2.453,2.453,0,0,0,155.657,212.841Z"/><path class="e" d="M50.892,392.008H215.216c-3.039-22.68-5.87-45.28-5.166-50.037,5.918-40,11.237-74.716,14.8-102.777l3.6-24.459.372-2.526c-1.539-.788-3.126-1.5-4.713-2.359-16.416-8.927-30.654-16.362-49.358-24.114l-.539-.224c-4.066,6.752-36.49,56.537-41.99,63.356,0,0-.024.031-.07.1C122.552,237.044,92.4,195,88.537,187.119c-15.532,6.689-28.072,13.267-42.318,21.014-1.67.908-3.5,1.755-5.246,2.7.173.717.272,1.138.272,1.138,2.127,9,14.884,96.521,15.732,102.558l1.845,19.285-4.839,27.908c-1.034,6.574-3.184,20.331-4.689,29.952Z"/><path class="a" d="M8.846,357.822A24.646,24.646,0,0,1,3.4,345.986a128.272,128.272,0,0,1-.19-30.307C5.138,297.773,15.354,249.927,30,223.455a48.736,48.736,0,0,1,4.647-7.254,13.912,13.912,0,0,1,3.276-3.053l3.2-1.737.132.562c1.83,7.746,11.527,73.6,14.741,95.692,20.249-7.013,49.8-17.853,59.662-21.219,2.586,2.788,19.8,35.339,20.3,40.406-16.889,10.068-61.4,29.1-84.988,37.208a28.552,28.552,0,0,1-5.2,1.127C38.78,365.432,19,369.412,8.846,357.822Z"/><path class="c" d="M50.892,394.408H214.8c3.089,0,3.094-4.8,0-4.8H50.892c-3.089,0-3.094,4.8,0,4.8Z"/><path class="c" d="M91.613,183.227c-15.084,6.329-29.661,13.657-44.04,21.442-4.026,2.179-8.338,4-11.967,6.824a2.414,2.414,0,0,0,0,3.4,2.463,2.463,0,0,0,3.394,0c2.979-2.317,6.711-3.751,10.013-5.542q5.2-2.818,10.422-5.579c6.816-3.584,13.7-7.039,20.69-10.276q6.33-2.933,12.764-5.635a2.481,2.481,0,0,0,1.676-2.953,2.415,2.415,0,0,0-2.952-1.676Z"/><path class="c" d="M226.137,214.1l-2.8,19.009c-1.306,8.874-2.4,17.777-3.637,26.661-2.013,14.471-4.144,28.925-6.289,43.377q-1.77,11.928-3.549,23.856-.937,6.3-1.871,12.607a31.915,31.915,0,0,0-.425,5.819c.176,5.561.84,11.119,1.464,16.643.889,7.857,1.9,15.7,2.934,23.539q.422,3.2.851,6.391a2.48,2.48,0,0,0,2.4,2.4c1.163,0,2.573-1.106,2.4-2.4-1.924-14.367-4.074-28.787-5.073-43.257a52.422,52.422,0,0,1-.186-5.618c.011-.27.057-.549.053-.818,0-.375-.043.289-.045.3q.054-.37.11-.741l.255-1.722q.469-3.17.94-6.339,1.8-12.1,3.6-24.192c2.165-14.565,4.324-29.132,6.38-43.713q1.4-9.906,2.71-19.824.292-2.221.579-4.442.079-.612.157-1.225c.021-.161.133-1.04.091-.726s-.009.061,0-.01c.14-.97.285-1.94.428-2.911l3.073-20.865.077-.526a2.48,2.48,0,0,0-1.676-2.953,2.417,2.417,0,0,0-2.952,1.677Z"/><path class="c" d="M51.668,361.086q-2.354,14.975-4.688,29.952a2.477,2.477,0,0,0,1.676,2.953,2.417,2.417,0,0,0,2.952-1.677q2.345-14.976,4.689-29.952a2.475,2.475,0,0,0-1.676-2.952,2.419,2.419,0,0,0-2.953,1.676Z"/><path class="c" d="M38.931,212.611c1.005,4.283,1.588,8.691,2.289,13.029,1.28,7.932,2.5,15.874,3.709,23.817q2.1,13.809,4.15,27.627,1.785,12.017,3.544,24.035.986,6.729,1.956,13.462l.084.588a2.414,2.414,0,0,0,2.952,1.676,2.463,2.463,0,0,0,1.676-2.952c-.545-3.88-1.12-7.756-1.686-11.633q-1.687-11.55-3.4-23.1-2.046-13.8-4.132-27.585-1.87-12.341-3.817-24.669c-.787-4.928-1.508-9.887-2.522-14.775-.056-.267-.113-.534-.175-.8-.705-3.006-5.335-1.733-4.629,1.276Z"/><path class="c" d="M174.114,188.05A489.116,489.116,0,0,1,218.8,209.7c2.081,1.124,4.142,2.289,6.267,3.328a34.33,34.33,0,0,1,6.113,3.406,2.48,2.48,0,0,0,3.394,0,2.415,2.415,0,0,0,0-3.394c-3.408-2.649-7.441-4.282-11.217-6.329q-5.619-3.047-11.274-6.025c-7.415-3.887-14.911-7.621-22.525-11.1q-7.028-3.215-14.172-6.163a2.413,2.413,0,0,0-2.952,1.676,2.46,2.46,0,0,0,1.676,2.952Z"/><path class="c" d="M266.516,248.387a165.307,165.307,0,0,1,2.35,35.1c-.172,5.855-.533,11.7-.918,17.548-.231,3.5-.528,7.245-1.013,10.487-1.056,7.061-2.777,14.5-7.209,20.186a17.149,17.149,0,0,1-7.384,5.544,18.189,18.189,0,0,1-11.735.062c-5.07-1.593-9.572-4.805-13.482-8.33A78.253,78.253,0,0,1,216.007,316.4a2.469,2.469,0,0,0-3.284-.861,2.42,2.42,0,0,0-.861,3.284c6.111,8.527,13.784,17.066,23.469,21.542a25.489,25.489,0,0,0,14.705,2.412,20.828,20.828,0,0,0,10.615-5.075c5.909-5.243,8.688-13.342,10.208-20.872,1.844-9.135,2.162-18.6,2.6-27.877.656-14.024.259-28.01-2.31-41.843a2.422,2.422,0,0,0-2.953-1.676,2.452,2.452,0,0,0-1.676,2.952Z"/><path class="c" d="M116.033,260.126a3.12,3.12,0,0,1,3.409-3.33c2.344.073,3.3,1.74,3.3,3.6a3.23,3.23,0,0,1-3.47,3.267C116.744,263.665,116.033,261.546,116.033,260.126Z"/><path class="c" d="M118.433,260.126a4.776,4.776,0,0,1,.039-.585l-.085.638a3.872,3.872,0,0,1,.247-.915l-.242.573a3.277,3.277,0,0,1,.405-.691l-.375.486a3.037,3.037,0,0,1,.48-.475l-.485.375a3.22,3.22,0,0,1,.624-.364l-.573.241a4.012,4.012,0,0,1,.975-.259l-.638.086a4.531,4.531,0,0,1,1.146,0l-.638-.086a3.918,3.918,0,0,1,.878.237l-.573-.242a3.247,3.247,0,0,1,.638.364l-.485-.375a3.112,3.112,0,0,1,.548.546l-.376-.486a3.489,3.489,0,0,1,.388.666l-.242-.573a4.329,4.329,0,0,1,.291,1.079l-.086-.638a4.451,4.451,0,0,1,.015,1.088l.086-.638a3.743,3.743,0,0,1-.237.883l.242-.573a3.485,3.485,0,0,1-.418.725l.375-.485a3.25,3.25,0,0,1-.517.525l.486-.375a3.388,3.388,0,0,1-.685.408l.573-.242a3.951,3.951,0,0,1-.962.262l.638-.086a4.848,4.848,0,0,1-1.123.011l.638.086a3.52,3.52,0,0,1-.851-.221l.573.242a3.081,3.081,0,0,1-.609-.352l.486.376a3.1,3.1,0,0,1-.518-.519l.375.486a3.647,3.647,0,0,1-.426-.739l.242.573a4.539,4.539,0,0,1-.286-1.055l.086.638a4.823,4.823,0,0,1-.044-.624,2.4,2.4,0,0,0-4.8,0,5.9,5.9,0,0,0,2.888,5.276,6.078,6.078,0,0,0,7.163-1.192,5.628,5.628,0,0,0,1.339-2.752,6.539,6.539,0,0,0-.246-3.3,5.632,5.632,0,0,0-2.364-2.97,6.389,6.389,0,0,0-4.246-.669,5.38,5.38,0,0,0-3.559,2.261,5.856,5.856,0,0,0-.975,3.344,2.4,2.4,0,1,0,4.8,0Z"/><path class="c" d="M116.033,368.406a3.12,3.12,0,0,1,3.409-3.33c2.344.073,3.3,1.739,3.3,3.6a3.229,3.229,0,0,1-3.47,3.266C116.744,371.944,116.033,369.826,116.033,368.406Z"/><path class="c" d="M118.433,368.406a4.776,4.776,0,0,1,.039-.585l-.085.638a3.872,3.872,0,0,1,.247-.915l-.242.573a3.277,3.277,0,0,1,.405-.691l-.375.485a3.074,3.074,0,0,1,.48-.474l-.485.375a3.276,3.276,0,0,1,.624-.365l-.573.242a4.012,4.012,0,0,1,.975-.259l-.638.086a4.578,4.578,0,0,1,1.146,0l-.638-.085a3.918,3.918,0,0,1,.878.237l-.573-.242a3.247,3.247,0,0,1,.638.364l-.485-.375a3.141,3.141,0,0,1,.548.545l-.376-.485a3.489,3.489,0,0,1,.388.666l-.242-.574a4.348,4.348,0,0,1,.291,1.08l-.086-.638a4.45,4.45,0,0,1,.015,1.088l.086-.638a3.756,3.756,0,0,1-.237.883l.242-.573a3.485,3.485,0,0,1-.418.725l.375-.486a3.216,3.216,0,0,1-.517.526l.486-.375a3.388,3.388,0,0,1-.685.408l.573-.242a3.951,3.951,0,0,1-.962.262l.638-.086a4.848,4.848,0,0,1-1.123.011l.638.085a3.518,3.518,0,0,1-.851-.22l.573.242a3.131,3.131,0,0,1-.609-.352l.486.375a3.059,3.059,0,0,1-.518-.518l.375.485a3.594,3.594,0,0,1-.426-.739l.242.574a4.539,4.539,0,0,1-.286-1.055l.086.638a4.823,4.823,0,0,1-.044-.624,2.4,2.4,0,0,0-4.8,0,5.9,5.9,0,0,0,2.888,5.276,6.078,6.078,0,0,0,7.163-1.192,5.633,5.633,0,0,0,1.339-2.752,6.543,6.543,0,0,0-.246-3.3,5.634,5.634,0,0,0-2.364-2.969,6.389,6.389,0,0,0-4.246-.669,5.375,5.375,0,0,0-3.559,2.26,5.861,5.861,0,0,0-.975,3.345,2.4,2.4,0,0,0,4.8,0Z"/><path class="c" d="M116.033,335.349a3.12,3.12,0,0,1,3.409-3.33c2.344.073,3.3,1.739,3.3,3.6a3.23,3.23,0,0,1-3.47,3.267C116.744,338.888,116.033,336.769,116.033,335.349Z"/><path class="c" d="M118.433,335.349a4.776,4.776,0,0,1,.039-.585l-.085.638a3.872,3.872,0,0,1,.247-.915l-.242.573a3.277,3.277,0,0,1,.405-.691l-.375.485a3.074,3.074,0,0,1,.48-.474l-.485.375a3.276,3.276,0,0,1,.624-.365l-.573.242a4.012,4.012,0,0,1,.975-.259l-.638.086a4.531,4.531,0,0,1,1.146,0l-.638-.086a3.918,3.918,0,0,1,.878.237l-.573-.242a3.247,3.247,0,0,1,.638.364l-.485-.375a3.112,3.112,0,0,1,.548.546l-.376-.486a3.489,3.489,0,0,1,.388.666l-.242-.573a4.329,4.329,0,0,1,.291,1.079l-.086-.638a4.451,4.451,0,0,1,.015,1.088l.086-.638a3.756,3.756,0,0,1-.237.883l.242-.573a3.485,3.485,0,0,1-.418.725l.375-.485a3.25,3.25,0,0,1-.517.525l.486-.375a3.388,3.388,0,0,1-.685.408l.573-.242a3.951,3.951,0,0,1-.962.262l.638-.086a4.848,4.848,0,0,1-1.123.011l.638.086a3.52,3.52,0,0,1-.851-.221l.573.242a3.081,3.081,0,0,1-.609-.352l.486.376a3.1,3.1,0,0,1-.518-.519l.375.486a3.628,3.628,0,0,1-.426-.74l.242.574a4.539,4.539,0,0,1-.286-1.055l.086.638a4.823,4.823,0,0,1-.044-.624,2.4,2.4,0,0,0-4.8,0,5.9,5.9,0,0,0,2.888,5.276,6.078,6.078,0,0,0,7.163-1.192,5.633,5.633,0,0,0,1.339-2.752,6.539,6.539,0,0,0-.246-3.3,5.632,5.632,0,0,0-2.364-2.97,6.389,6.389,0,0,0-4.246-.669,5.378,5.378,0,0,0-3.559,2.26,5.861,5.861,0,0,0-.975,3.345,2.4,2.4,0,0,0,4.8,0Z"/><path class="c" d="M116.033,289.127a3.12,3.12,0,0,1,3.409-3.33c2.344.073,3.3,1.739,3.3,3.6a3.23,3.23,0,0,1-3.47,3.267C116.744,292.665,116.033,290.546,116.033,289.127Z"/><path class="c" d="M118.433,289.127a4.763,4.763,0,0,1,.039-.585l-.085.638a3.872,3.872,0,0,1,.247-.915l-.242.573a3.309,3.309,0,0,1,.405-.692l-.375.486a3.074,3.074,0,0,1,.48-.474l-.485.375a3.276,3.276,0,0,1,.624-.365l-.573.242a4.012,4.012,0,0,1,.975-.259l-.638.085a4.626,4.626,0,0,1,1.146,0l-.638-.085a3.97,3.97,0,0,1,.878.236l-.573-.241a3.247,3.247,0,0,1,.638.364l-.485-.375a3.141,3.141,0,0,1,.548.545l-.376-.485a3.489,3.489,0,0,1,.388.666l-.242-.574a4.353,4.353,0,0,1,.291,1.079l-.086-.638a4.451,4.451,0,0,1,.015,1.088l.086-.638a3.751,3.751,0,0,1-.237.884l.242-.573a3.485,3.485,0,0,1-.418.725l.375-.486a3.256,3.256,0,0,1-.517.526l.486-.375a3.388,3.388,0,0,1-.685.408l.573-.242a3.951,3.951,0,0,1-.962.262l.638-.086a4.848,4.848,0,0,1-1.123.011l.638.085a3.564,3.564,0,0,1-.851-.22l.573.242a3.131,3.131,0,0,1-.609-.352l.486.375a3.1,3.1,0,0,1-.518-.518l.375.485a3.594,3.594,0,0,1-.426-.739l.242.574a4.539,4.539,0,0,1-.286-1.055l.086.638a4.823,4.823,0,0,1-.044-.624,2.4,2.4,0,0,0-4.8,0,5.9,5.9,0,0,0,2.888,5.275,6.076,6.076,0,0,0,7.163-1.191,5.632,5.632,0,0,0,1.339-2.753,6.54,6.54,0,0,0-.246-3.3,5.634,5.634,0,0,0-2.364-2.969,6.389,6.389,0,0,0-4.246-.669,5.375,5.375,0,0,0-3.559,2.26,5.861,5.861,0,0,0-.975,3.345,2.4,2.4,0,0,0,4.8,0Z"/><path class="c" d="M172.236,184.087c-4.447,7.543-9.413,14.814-14.193,22.147-6.832,10.479-13.7,20.941-20.73,31.287-1.426,2.1-2.859,4.192-4.32,6.266-.534.756-1.07,1.51-1.617,2.257-.2.278-.412.554-.618.831-.29.39-.169.175.039-.046-.1.1-.181.23-.271.342a2.474,2.474,0,0,0,0,3.394,2.417,2.417,0,0,0,3.394,0c2.252-2.8,4.253-5.815,6.282-8.778q4.9-7.164,9.679-14.411,10.368-15.626,20.518-31.4c2.018-3.138,4.087-6.257,5.982-9.471,1.572-2.667-2.575-5.085-4.145-2.423Z"/><path class="c" d="M85.905,186.731c1.13,3.175,3.332,6.092,5.154,8.887,3.353,5.144,6.836,10.2,10.345,15.241,7.762,11.144,15.665,22.2,23.841,33.048,1.628,2.158,3.266,4.309,4.951,6.423a31.9,31.9,0,0,0,2.732,3.2l-.618-1.059c.06.384-.075-.846-.044-.316.009.145.029.291.042.437.03.353.052.707.073,1.061.064,1.08.107,2.162.147,3.244.126,3.408.205,6.819.278,10.229.224,10.373.361,20.747.487,31.121q.226,18.567.377,37.135.144,16.654.249,33.309c.042,6.548.087,13.095.1,19.643q0,.49,0,.981c0,3.088,4.8,3.093,4.8,0,0-4.006-.028-8.012-.051-12.017q-.061-11.247-.146-22.493-.1-14.1-.232-28.2-.133-14.563-.308-29.126-.156-12.642-.376-25.284c-.1-5.555-.2-11.114-.434-16.666a22.693,22.693,0,0,0-.317-4.216,6.249,6.249,0,0,0-1.659-2.3c-.705-.822-1.382-1.669-2.055-2.519q-.669-.846-1.329-1.7c-.276-.356.245.318-.036-.047-.123-.161-.247-.321-.371-.482q-.386-.5-.77-1.009-1.7-2.227-3.37-4.476-4.008-5.379-7.937-10.817-8.6-11.877-16.938-23.946c-3.876-5.631-7.918-11.261-11.262-17.235-.2-.356-.4-.714-.576-1.08a2.805,2.805,0,0,0-.2-.414c-.019-.025.256.671.075.162a2.46,2.46,0,0,0-2.952-1.676,2.42,2.42,0,0,0-1.676,2.952Z"/><path class="a" d="M111.805,298.374c2.237-2.548,10.655-8.285,12.56-10.721s4.559-5.956,7.8-7.446c6.661-3.063,17.855-2.32,23.225-1.951,2.819.194,9.028,1.1,11.133,3.877,1.224,1.614.111,5-2.667,6.111l-4.258,1.7c7.457-.808,15.143-2.575,21.807-3.921,6.232-1.258,13.662-4.831,18.278-.4,2.912-.812,7.49-.581,9.618.616,2.37,1.037,3.773,5.461,1.333,8.666-1.5,1.977-17.227,8.6-23.064,10.65-6.348,2.233-6.864,1.906-12.183,4.034-6.726,2.74-11.994,2.481-20.444,2.213-9.753-.31-21.062,7.152-29.51,11.456Z"/><path class="c" d="M113.5,300.071c2.61-2.9,6.094-5.1,9.11-7.551a23.187,23.187,0,0,0,3.65-3.426,31.213,31.213,0,0,1,5.18-5.658c3.745-2.861,9.414-3.035,13.923-3.121a72,72,0,0,1,12.395.613c2.081.345,4.809.892,6.341,2.142a5.488,5.488,0,0,1,.477.463q.175.195,0,0-.1-.354.024.062c-.034.116.038.36.014.083-.021.292-.013.337.026.137a4.57,4.57,0,0,1-.126.529,3.133,3.133,0,0,1-1.87,1.83,2.416,2.416,0,0,0-.861,3.284,2.46,2.46,0,0,0,3.284.861,7.407,7.407,0,0,0,4.347-6.641c-.041-2.753-2.2-4.6-4.539-5.664-4.448-2.023-9.47-2.237-14.28-2.43-5.6-.224-11.549-.194-16.945,1.5a17.5,17.5,0,0,0-7.448,4.651c-1.682,1.734-2.969,3.829-4.739,5.471-3.592,3.331-8.074,5.819-11.358,9.471-2.06,2.291,1.324,5.7,3.395,3.394Z"/><path class="c" d="M148.2,292.648c6.538.508,13.12-.349,19.554-1.467,6.14-1.066,12.348-2.227,18.366-3.852,2.635-.712,5.339-1.548,8.1-1.449a6.039,6.039,0,0,1,2.847.754c.687.4,1.195,1.093,1.979,1.308a6.3,6.3,0,0,0,2.566-.276,12.226,12.226,0,0,1,6.478.65,2.347,2.347,0,0,1,1.252,1.619,4.165,4.165,0,0,1-.354,3.13c-.265.563-.169-.01-.288.4-.025.086-.628.441.127-.086-.094.066-.185.139-.282.2-.592.372-1.183.736-1.8,1.072-1.769.968-3.6,1.829-5.429,2.669q-5.8,2.658-11.753,4.949c-3.908,1.5-7.948,2.543-11.9,3.912a71.421,71.421,0,0,1-7.939,2.678,36.036,36.036,0,0,1-7.609.706c-3.342.018-6.746-.4-10.074-.036a36.981,36.981,0,0,0-9.609,2.5c-6.342,2.517-12.161,6.059-18.217,9.159-2.751,1.408-.325,5.551,2.422,4.145,7.855-4.02,15.549-9.277,24.384-10.852,4.355-.776,8.932.019,13.339-.17a38.08,38.08,0,0,0,12.4-2.7c3.064-1.192,6.24-2,9.356-3.027,3.034-1,6.009-2.169,8.964-3.384,3.357-1.38,6.7-2.81,9.981-4.355a31.309,31.309,0,0,0,6.764-3.775c3.31-2.745,3.156-8.529.409-11.576-1.482-1.644-3.761-2.266-5.878-2.55a19.026,19.026,0,0,0-7.321.368l2.335.617c-5.486-5.029-12.883-2.066-19.155-.546-3.408.826-6.879,1.461-10.317,2.147-3.7.738-7.419,1.434-11.165,1.889a63.377,63.377,0,0,1-12.542.427,2.42,2.42,0,0,0-2.4,2.4,2.448,2.448,0,0,0,2.4,2.4Z"/><path class="c" d="M166.512,302.147c8.232-2.543,16.572-4.824,24.92-6.952,1.752-.447,3.509-.9,5.287-1.237a2.421,2.421,0,0,0,1.676-2.952,2.451,2.451,0,0,0-2.952-1.676c-3.723.7-7.393,1.768-11.046,2.754q-7.086,1.914-14.138,3.952c-1.677.484-3.355.967-5.023,1.483-2.943.908-1.687,5.543,1.276,4.628Z"/><path class="a" d="M3.206,315.679a128.272,128.272,0,0,0,.19,30.307c4.978,25.637,33.646,19.506,42.372,19.2a28.552,28.552,0,0,0,5.2-1.127c23.583-8.105,68.1-27.14,84.988-37.208-.507-5.067-17.718-37.618-20.3-40.406-12.671,4.323-57.8,20.972-74.013,26.006Z"/><path class="c" d="M36.706,211.075c-2.83,1.67-4.84,4.668-6.574,7.367a81.571,81.571,0,0,0-4.082,7.347c-2.355,4.664-4.415,9.478-6.312,14.344A296.779,296.779,0,0,0,9.474,272.316c-2.585,9.8-4.825,19.7-6.62,29.68A157.694,157.694,0,0,0,0,329.369c-.012,3.356.124,6.711.374,10.058a49.77,49.77,0,0,0,1.308,9.748A25.658,25.658,0,0,0,8.165,360.6c5.592,5.515,13.506,7.446,21.132,7.788a79.609,79.609,0,0,0,10-.279c2.817-.228,5.709-.34,8.494-.815,4.707-.8,9.272-2.824,13.726-4.5q7.161-2.69,14.251-5.56,15.681-6.318,31.108-13.254c8.707-3.923,17.395-7.955,25.793-12.509,1.515-.822,3.017-1.665,4.5-2.546a2.356,2.356,0,0,0,1.189-2.072,24.379,24.379,0,0,0-2.212-6.685c-1.36-3.19-2.859-6.322-4.39-9.433-3.338-6.781-6.837-13.5-10.6-20.057a33.268,33.268,0,0,0-3.809-5.928,2.358,2.358,0,0,0-2.335-.617c-8.733,2.982-17.4,6.172-26.082,9.293-11.22,4.032-22.44,8.067-33.707,11.966-4.723,1.635-9.452,3.263-14.224,4.747-2.941.915-1.686,5.55,1.276,4.629,9.623-2.994,19.116-6.429,28.611-9.8,11.011-3.91,22-7.885,33-11.824,4.128-1.478,8.254-2.964,12.4-4.38l-2.335-.618c.472.52-.33-.515.143.184.235.347.468.694.693,1.048.634,1,1.233,2.014,1.825,3.035,1.652,2.851,3.23,5.744,4.781,8.65,3.5,6.565,6.924,13.2,9.94,20.007q.255.576.5,1.153s.26.609.113.263c-.125-.3.15.36.175.42.258.627.51,1.258.744,1.895.184.5.363,1.009.511,1.524.091.315.292,1.614.171.53l1.189-2.072c-7.222,4.294-14.858,7.917-22.464,11.467q-14.613,6.82-29.526,12.975c-9.2,3.822-18.452,7.517-27.82,10.9a60.986,60.986,0,0,1-6.348,2.123,29.726,29.726,0,0,1-4.9.678c-2.731.224-5.456.5-8.195.633a58.406,58.406,0,0,1-10.113-.3c.513.065-.251-.037-.288-.043-.232-.035-.463-.071-.694-.11q-.579-.1-1.153-.212c-.921-.185-1.834-.4-2.736-.667a20.473,20.473,0,0,1-4.637-1.869,18.22,18.22,0,0,1-7.355-7.116c-2.642-4.579-3.082-9.832-3.429-15.138a125.1,125.1,0,0,1,.132-18.294q.259-3.21.662-6.408.039-.306.08-.612c-.077.582.018-.129.028-.2q.077-.546.154-1.092.2-1.4.424-2.794c1.439-9.074,3.341-18.08,5.5-27.009,2.57-10.642,5.539-21.2,9.11-31.552,3.37-9.765,7.185-19.685,12.629-28.51,1.388-2.25,3.156-5.121,5.331-6.4,2.659-1.568.247-5.719-2.423-4.145Z"/><path class="c" d="M159.33,59.3c6.947,2.768,12.709,8.239,17.172,14.117a78.815,78.815,0,0,1,11.55,21.869c1,2.9,5.639,1.656,4.628-1.276a83.4,83.4,0,0,0-12.594-23.747c-5.159-6.686-11.561-12.436-19.48-15.592a2.417,2.417,0,0,0-2.952,1.676A2.458,2.458,0,0,0,159.33,59.3Z"/><path class="c" d="M151.229,50.613c-12.9,17.183-33.538,26.693-53.947,31.564a183.164,183.164,0,0,1-19.467,3.495,2.478,2.478,0,0,0-2.4,2.4,2.413,2.413,0,0,0,2.4,2.4c23.168-2.945,46.568-9.352,64.987-24.345a74.6,74.6,0,0,0,12.572-13.091,2.415,2.415,0,0,0-.861-3.284,2.458,2.458,0,0,0-3.284.861Z"/><path class="a" d="M253.789,242.552c.425-8.076,8.838-31.457,8.838-31.457,1.413-3.444,3.218-7.2,6.7-8.519a6.934,6.934,0,0,1,9.354,5.854,12.856,12.856,0,0,1-1.351,6.019q-1.412,3.381-3.12,6.627a5.756,5.756,0,0,1,6.267.873,8.049,8.049,0,0,1,2.48,4.844,11.233,11.233,0,0,1,.106,2.536,26.519,26.519,0,0,1-2.189,7.768l-2.421,6.125a11.767,11.767,0,0,1-2.769,4.691s-.05.045-.141.118a4.921,4.921,0,0,1,2.706,1.521,7.761,7.761,0,0,1,1.611,3.71,7.3,7.3,0,0,1-1.222,4.745c-.744,1.068-4.513,6.318-6.024,7.659a6.741,6.741,0,0,1-5.279,2.037,5.466,5.466,0,0,1-2.11-.841S252.766,261.989,253.789,242.552Z"/><path class="c" d="M264.941,211.733c1.155-2.8,2.866-6.794,6.326-7.176a4.559,4.559,0,0,1,4.429,2.252c1,1.683.581,3.585-.028,5.332a65.232,65.232,0,0,1-5.933,11.982,80.239,80.239,0,0,1-7.816,10.8,2.462,2.462,0,0,0,0,3.394,2.421,2.421,0,0,0,3.394,0,85.469,85.469,0,0,0,13.75-21.854c1.764-4.1,3.224-8.7.368-12.706a9.414,9.414,0,0,0-11.36-3.24c-4.143,1.777-6.136,6.012-7.759,9.939a2.415,2.415,0,0,0,1.677,2.952,2.46,2.46,0,0,0,2.952-1.676Z"/><path class="c" d="M274.918,250.325c-.323-.043.57.179.67.218-.252-.1.5.263.449.231a2.443,2.443,0,0,1,.832,1.03,4.182,4.182,0,0,1,.55,2.989c-.336,1.7-1.643,3.13-2.653,4.5a37.2,37.2,0,0,1-3.445,4.287,6.515,6.515,0,0,1-2.22,1.551,2.5,2.5,0,0,1-2.664-.338,2.4,2.4,0,1,0-2.423,4.145,7.739,7.739,0,0,0,8.437-.152,17.427,17.427,0,0,0,4.346-4.292c2.83-3.62,6.374-7.491,5.278-12.472a9.343,9.343,0,0,0-2.475-4.536,8.232,8.232,0,0,0-4.682-1.957,2.412,2.412,0,0,0-2.4,2.4,2.461,2.461,0,0,0,2.4,2.4Z"/><path class="c" d="M285.272,226.155a9.792,9.792,0,0,0-4.7-7.04,8.058,8.058,0,0,0-7.871.052c-2.447,1.516-3.733,4.22-4.651,6.821-.82,2.322-1.583,4.665-2.385,6.993a48.921,48.921,0,0,0-2.383,8.174,9.143,9.143,0,0,0-.065,3.957,9.33,9.33,0,0,0,2.133,3.663,8.618,8.618,0,0,0,7.756,2.846,8.779,8.779,0,0,0,6.48-5.007c1.557-3.1,2.676-6.489,3.934-9.718,1.367-3.509,2.275-6.959,1.752-10.741a2.415,2.415,0,0,0-2.952-1.676,2.463,2.463,0,0,0-1.676,2.952,14.136,14.136,0,0,1-1.116,6.5c-.852,2.4-1.846,4.756-2.783,7.125-.675,1.707-1.268,4.024-2.8,5.193a3.63,3.63,0,0,1-4.329-.033,3.713,3.713,0,0,1-1.745-3.564,33.244,33.244,0,0,1,1.717-6.374q1.053-3.032,2.078-6.072a29.273,29.273,0,0,1,1.74-4.8c.843-1.524,2.028-2.8,3.878-2.43,2.137.43,3.009,2.513,3.356,4.454a2.421,2.421,0,0,0,2.952,1.677A2.454,2.454,0,0,0,285.272,226.155Z"/><path class="a" d="M203.64,259.02c2.83-23.828,7.79-66.931,10.659-91.067a7.734,7.734,0,0,1,8.618-6.769c13.636,1.654,32.069,3.9,43.825,5.322a7.742,7.742,0,0,1,6.756,8.6c-3.255,27.293-7.916,66.42-10.856,90.825a7.735,7.735,0,0,1-8.588,6.761c-12.23-1.436-31.419-3.644-43.629-5.077A7.735,7.735,0,0,1,203.64,259.02Z"/><path class="c" d="M206.04,259.02q3.5-29.5,6.9-59.017,1.658-14.229,3.334-28.456c.221-1.87.183-3.888,1.184-5.519a5.366,5.366,0,0,1,4.774-2.5c2.586.091,5.215.6,7.784.914l8.407,1.021,17.267,2.1,7.407.9c1.99.242,4.286.2,5.958,1.463a5.726,5.726,0,0,1,2,5.531c-.272,2.391-.57,4.78-.855,7.17q-.969,8.128-1.939,16.259-3.828,32.1-7.678,64.207c-.243,2.018-.288,4.106-1.8,5.643-1.553,1.581-3.447,1.711-5.533,1.467q-7.678-.9-15.359-1.789l-16.451-1.909-7.714-.9c-1.979-.232-4.172-.207-5.787-1.53a5.569,5.569,0,0,1-1.9-5.057,2.417,2.417,0,0,0-2.4-2.4,2.452,2.452,0,0,0-2.4,2.4,10.218,10.218,0,0,0,2.411,7.529,10.54,10.54,0,0,0,7.091,3.508c5.406.657,10.82,1.262,16.23,1.89q8.7,1.01,17.4,2.019,3.867.45,7.734.9c2.744.321,5.243.384,7.756-.979a10.18,10.18,0,0,0,4.9-6.282,57.27,57.27,0,0,0,.98-7.475q.954-7.949,1.906-15.9,2.106-17.593,4.2-35.187c1.343-11.254,2.769-22.5,4.026-33.765a10.188,10.188,0,0,0-2.28-7.57,10.527,10.527,0,0,0-7.172-3.647c-5.445-.678-10.9-1.323-16.343-1.985l-18.257-2.217-8.173-.992a10.375,10.375,0,0,0-7.534,1.735,10.161,10.161,0,0,0-4.134,6.707c-.334,2.26-.549,4.543-.816,6.812q-.873,7.4-1.736,14.8-3.732,31.917-7.452,63.836-.369,3.131-.74,6.26a2.413,2.413,0,0,0,2.4,2.4A2.459,2.459,0,0,0,206.04,259.02Z"/><path class="c" d="M240.505,175.908q3.9.432,7.809.86a2.4,2.4,0,0,0,1.7-.7,2.4,2.4,0,0,0,0-3.394,2.761,2.761,0,0,0-1.7-.7q-3.9-.432-7.809-.86a2.4,2.4,0,0,0-1.7.7,2.4,2.4,0,0,0,0,3.394,2.763,2.763,0,0,0,1.7.7Z"/><path class="c" d="M223.851,260.766q9.887,1.094,19.775,2.178a2.415,2.415,0,0,0,2.4-2.4,2.456,2.456,0,0,0-2.4-2.4q-9.887-1.093-19.775-2.178a2.416,2.416,0,0,0-2.4,2.4,2.456,2.456,0,0,0,2.4,2.4Z"/><path class="c" d="M122.355,140.738a22.479,22.479,0,0,0,10.828,2.5c3.833-.025,7.757-.758,10.833-3.155a2.413,2.413,0,0,0,0-3.394,2.462,2.462,0,0,0-3.394,0c.7-.544.053-.056-.125.059-.223.142-.451.273-.685.4-.143.075-.92.416-.365.193q-.465.188-.944.343a16.981,16.981,0,0,1-5.676.758,17.719,17.719,0,0,1-5.417-.729c-.346-.1-.683-.227-1.024-.344-.112-.039-.219-.088-.33-.129.6.22.092.041-.024-.014-.424-.2-.841-.407-1.255-.626a2.452,2.452,0,0,0-3.283.861,2.427,2.427,0,0,0,.861,3.284Z"/><path class="c" d="M132.18,114.948a51.9,51.9,0,0,1,1.222,5.593l-.085-.639a3.382,3.382,0,0,1,.02.772l.086-.638a1.8,1.8,0,0,1-.085.348l.242-.574a1.472,1.472,0,0,1-.122.224l.375-.486a1.2,1.2,0,0,1-.183.18l.486-.375a3.67,3.67,0,0,1-.443.234l.573-.242a3.226,3.226,0,0,1-.746.218l.638-.086a2.988,2.988,0,0,1-.7,0l.638.086c-.264-.037-.523-.1-.788-.137a2.655,2.655,0,0,0-1.849.242,2.4,2.4,0,0,0-.861,3.284,2.292,2.292,0,0,0,1.434,1.1c.56.076,1.1.22,1.673.245a5.265,5.265,0,0,0,2.412-.566,3.382,3.382,0,0,0,1.9-2.24,5.81,5.81,0,0,0-.026-2.466c-.305-1.8-.721-3.587-1.185-5.354a2.4,2.4,0,0,0-4.628,1.276Z"/><path class="c" d="M102.159,99.235c-.934,3.035-.325,10.016,5.424,10.61,7.6-.045,8-8.486,5.446-12.455C110.934,94.141,104.776,92.79,102.159,99.235Z"/><path class="c" d="M163.014,99.235c.934,3.035.326,10.016-5.424,10.61-7.6-.045-8-8.486-5.446-12.455C154.238,94.141,160.4,92.79,163.014,99.235Z"/></svg>