<?xml version="1.0" encoding="utf-8"?>
<!-- Uploaded to: SVG Repo, www.svgrepo.com, Generator: SVG Repo Mixer Tools -->
<svg width="800px" height="800px" viewBox="-132.96 0 442.036 442.036" xmlns="http://www.w3.org/2000/svg"><defs><style>.a{fill:#ffffff;}.b{fill:#957f6e;}.c{fill:#9fc3e4;}.d{fill:#211715;}.e{fill:#645d5c;}.f{fill:#3f88c9;}.g{fill:#bdbdbd;}</style></defs><path class="a" d="M90.114,35.2c-3.531-5.638-10.862-11.044-26-11.044-29.731,0-27.922,23.6-27.922,23.6a4.258,4.258,0,0,0-3.405-1,4.016,4.016,0,0,0-2.888,1.92,5.672,5.672,0,0,0-.595,2.285,17.026,17.026,0,0,0,1.735,9.023,10.824,10.824,0,0,0,2.8,3.672,7.174,7.174,0,0,0,3.336,1.5l1.087.165A28.925,28.925,0,0,0,43.782,76.1a24.72,24.72,0,0,0,8.531,6.811,37.521,37.521,0,0,1-.394,4.921c-1.282,1.527-6,7.463-3.768,9.125,2.7,2.007,7.681,4.844,17.438,4.844,10.1,0,14.74-3.668,17.093-5.259,2.723-1.843-4.56-9.406-4.56-9.406s-.365-.379-.88-.909c-.11-1.057-.177-2.119-.194-3.187.313-.16.626-.31.626-.31,6.885-3.29,12.364-12.483,13.34-15.132.15-.457.457-1.316.73-2.337.366-.065.573-.1.573-.1a7.183,7.183,0,0,0,3.336-1.5,10.809,10.809,0,0,0,2.8-3.672,17.018,17.018,0,0,0,1.736-9.023,5.672,5.672,0,0,0-.6-2.285,4.017,4.017,0,0,0-2.889-1.92,4.256,4.256,0,0,0-3.4,1A21.755,21.755,0,0,0,90.114,35.2Z"/><path class="b" d="M50.322,82.953l.492-.789a25.907,25.907,0,0,1-7.07-6.063,28.925,28.925,0,0,1-5.517-10.77l-1.087-.165a7.174,7.174,0,0,1-3.336-1.5,8.768,8.768,0,0,1-1.08-1.065,14.2,14.2,0,0,0-1.4,4.666,23.128,23.128,0,0,0-.16,3.16q.006.323.023.646c.126,2.3.664,4.651.778,6.947.116,2.5-.535,4.963-2.921,5.773-.094.032-.113.337-.111.415a1.086,1.086,0,0,0,.192.534,3.691,3.691,0,0,0,1.223,1.073,16.972,16.972,0,0,0,11.086,1.938C45.427,87.142,48.817,85.21,50.322,82.953Z"/><path class="b" d="M97.787,28.98c-.107-.628-.217-1.209-.324-1.731C94.5,12.74,79.89,1.223,64.565,2.064,49.24,1.223,34.627,12.74,31.668,27.249a41.233,41.233,0,0,0,.023,13.732l1.467,5.747a4.229,4.229,0,0,1,3.039,1.03c6.056-4.2,16.33-11.5,21.65-16.075-.438,2.716-1.993,7.334-.034,6.86,8.177-1.894,16.015-5.713,20.754-11.67a57.515,57.515,0,0,0,3.862,10.346c1.716,2.939,6.689,9.551,10.869,10.539a4.256,4.256,0,0,1,3.4-1,4.151,4.151,0,0,1,.531.116C99.363,41.946,98.645,33.981,97.787,28.98Z"/><path class="c" d="M87.729,93.935c-1.275-.564-2.59-1.128-3.96-1.7l-.3-.125-.157.624a133.731,133.731,0,0,1-4.88,12.507c-1.185-1.458-12.349-8.095-12.512-8.431a1,1,0,0,1-.144-.708H63.631a1.006,1.006,0,0,1-.145.708c-.162.336-11.327,6.973-12.512,8.431-.889-1.906-4.145-9.791-4.839-12.353a218.933,218.933,0,0,0-20,9.88c.633,13.175,6.5,40.013,9.045,57.234.26,1.759-.209,7.16-1.473,15.348-.192,1.241-1.879,14.012-2.288,15.9l-.054.251h68.63c-.312-1.957-2.4-15.131-2.679-16.99-1.068-7.037-1.827-12.948-1.6-14.509,2.6-17.548,8.356-43.914,9.611-57.234C99.36,99.527,94.051,96.733,87.729,93.935Z"/><path class="d" d="M33.6,40.574a35.011,35.011,0,0,1-.3-10.818,25.875,25.875,0,0,1,3.542-10.407A31.618,31.618,0,0,1,54.5,5.342,38.254,38.254,0,0,1,66.011,4.021a29,29,0,0,1,11.3,2.285A31.61,31.61,0,0,1,93.514,21.663a34.887,34.887,0,0,1,2.851,11.561c.433,4.3.633,9-1.04,13.074a2.013,2.013,0,0,0,1.4,2.46,2.052,2.052,0,0,0,2.461-1.4c1.636-3.992,1.627-8.643,1.295-12.877A44.712,44.712,0,0,0,98.25,22.693,35.048,35.048,0,0,0,81.427,3.842,34.392,34.392,0,0,0,69.059.167a57.646,57.646,0,0,0-6.48-.143A32.741,32.741,0,0,0,56.016.8a35.719,35.719,0,0,0-21,14.035A30.43,30.43,0,0,0,29.581,27.6a38.585,38.585,0,0,0,.165,14.039c.558,2.512,4.416,1.449,3.857-1.063Z"/><path class="d" d="M76.76,27.831c1.322,4.511,2.808,9.052,5.59,12.889,2.561,3.533,5.984,7.825,10.416,8.967,2.495.642,3.559-3.215,1.064-3.858a10.7,10.7,0,0,1-4.378-2.894A33.035,33.035,0,0,1,85.516,38.3c-2.44-3.458-3.718-7.5-4.9-11.532-.723-2.465-4.584-1.416-3.857,1.063Z"/><path class="d" d="M77.235,25.355a30.57,30.57,0,0,1-12.758,9.028q-1.89.75-3.84,1.337-1.075.325-2.165.6a3.726,3.726,0,0,0-.992.243q-.688.1.543.384a.753.753,0,0,1,.824.53c-.015.006-.059.233,0-.158.031-.2.012-.409.034-.609.043-.4.131-.8.211-1.2.222-1.1.493-2.19.681-3.3a2.018,2.018,0,0,0-3.342-1.946A261.581,261.581,0,0,1,35.187,46.031c-2.1,1.458-.1,4.927,2.019,3.454A272,272,0,0,0,59.261,33.1l-3.343-1.946c-.394,2.319-1.63,5.2-.876,7.545a2.722,2.722,0,0,0,3.3,1.774,36.923,36.923,0,0,0,4.909-1.391c6.362-2.154,12.561-5.581,16.809-10.9a2.06,2.06,0,0,0,0-2.828,2.012,2.012,0,0,0-2.828,0Z"/><path class="d" d="M31.027,61.514a19.74,19.74,0,0,0-1.71,11.04,54.029,54.029,0,0,1,.659,6c0,1.113-.143,2.494-1.164,3.151-.715.46-1.358.631-1.688,1.506A2.926,2.926,0,0,0,27.4,85.75c.917,1.494,2.749,2.312,4.315,2.937a19.689,19.689,0,0,0,10.888.881,14.789,14.789,0,0,0,9.45-5.6c1.479-2.113-1.987-4.114-3.454-2.018-1.757,2.509-5.412,3.683-8.317,3.941a16.339,16.339,0,0,1-5.478-.4,13.324,13.324,0,0,1-2.22-.748c-.319-.145-.63-.309-.934-.484-.215-.123-.426-.254-.633-.391q-.429-.487-.063.113l-.273,1.01.093-.192-1.195.919c4-1.534,4.686-5.506,4.245-9.354-.5-4.322-1.369-8.738.659-12.828,1.14-2.3-2.309-4.327-3.454-2.019Z"/><path class="d" d="M94.712,49.172a2.181,2.181,0,0,1,3.083.407,4.675,4.675,0,0,1,.447,2.38,14.282,14.282,0,0,1-.2,2.928c-.635,3.478-2.39,7.656-6.258,8.35a2.018,2.018,0,0,0-1.4,2.46,2.045,2.045,0,0,0,2.461,1.4c6.015-1.078,8.887-7.864,9.34-13.317.234-2.824-.013-6.019-2.453-7.844a6.288,6.288,0,0,0-7.852.411,2.015,2.015,0,0,0,0,2.828,2.043,2.043,0,0,0,2.828,0Z"/><path class="d" d="M90.273,62a15.956,15.956,0,0,1-.931,4.3c-.062.191-.49,1.313-.22.7-.134.3-.274.6-.423.9a36.615,36.615,0,0,1-3.145,5.056c-2.723,3.734-6.423,7.693-11.084,8.787-2.506.588-1.445,4.446,1.063,3.857,5.636-1.322,10-5.927,13.321-10.416,2.86-3.873,5.22-8.263,5.419-13.185.105-2.574-3.9-2.569-4,0Z"/><path class="d" d="M37.611,46.344a6.292,6.292,0,0,0-7.853-.411c-2.442,1.819-2.686,5.025-2.452,7.844.452,5.452,3.324,12.239,9.34,13.317a2.055,2.055,0,0,0,2.46-1.4,2.017,2.017,0,0,0-1.4-2.46c-3.868-.694-5.622-4.873-6.257-8.35a14.126,14.126,0,0,1-.2-2.763,5.484,5.484,0,0,1,.38-2.432,2.165,2.165,0,0,1,3.152-.52,2.055,2.055,0,0,0,2.829,0,2.016,2.016,0,0,0,0-2.828Z"/><path class="d" d="M35.42,61.781A33.184,33.184,0,0,0,42.5,77.668c3.987,4.721,9.267,8.119,15.481,8.79a2.013,2.013,0,0,0,2-2,2.047,2.047,0,0,0-2-2c-5.261-.568-9.65-3.955-12.913-7.931-3.227-3.931-4.923-8.859-5.788-13.81a2.017,2.017,0,0,0-2.46-1.4,2.047,2.047,0,0,0-1.4,2.461Z"/><path class="a" d="M88.773,395.428a29.01,29.01,0,0,0,3.282,13.225L71,408.244l.081-11.829Z"/><path class="a" d="M42.187,395.428a29,29,0,0,1-3.282,13.225l21.054-.409-.081-11.829Z"/><path class="e" d="M20.772,435.8c-.11-.144-.214-.292-.312-.446a8.362,8.362,0,0,1-.553-7.006A22.954,22.954,0,0,1,23.5,422.07q5.205-7.107,11-13.756c1.506-1.727,3.209-3.528,5.461-3.953a3.388,3.388,0,0,0,1.683,3.553,7.956,7.956,0,0,0,4.062.917,22.54,22.54,0,0,0,15.777-6.279c-.026,4.746.021,6.325,0,11.073a9.945,9.945,0,0,1-.416,3.424c-.976,2.639-3.869,3.91-6.191,5.5-6.041,4.134-9.223,11.676-15.553,15.352a16.345,16.345,0,0,1-15.107.541A9.537,9.537,0,0,1,20.772,435.8Z"/><path class="e" d="M110.232,435.8c.11-.144.215-.292.313-.446a8.362,8.362,0,0,0,.553-7.006,22.954,22.954,0,0,0-3.595-6.273q-5.2-7.107-11-13.756c-1.506-1.727-3.209-3.528-5.461-3.953a3.388,3.388,0,0,1-1.684,3.553,7.95,7.95,0,0,1-4.061.917,22.54,22.54,0,0,1-15.777-6.279c.026,4.746-.022,6.325,0,11.073a9.945,9.945,0,0,0,.416,3.424c.976,2.639,3.869,3.91,6.191,5.5,6.041,4.134,9.222,11.676,15.552,15.352a16.347,16.347,0,0,0,15.108.541A9.525,9.525,0,0,0,110.232,435.8Z"/><path class="f" d="M19.451,107.363a24.9,24.9,0,0,0-2.954,6.991c-.988,3.788-3.923,16.924-5.039,21.481-.719,2.935-3.511,15.9-4.854,20.817-.4,1.48-.822,3.456-.075,3.68,1.643.784,18.494,2.091,21.57,2.091l7.123-.165a13.253,13.253,0,0,0-.046-2.252c-2.528-17.085-8.32-43.637-9.026-56.911L22.1,105.051a13.9,13.9,0,0,0-1.9,1.3A10.954,10.954,0,0,0,19.451,107.363Z"/><path class="f" d="M111.447,169.347a26.655,26.655,0,0,1-4.759-5.46c-1.088-1.926-3.6-7.225-4.236-10.422l-4.361-7.675c2.693-15.021,6.07-31.88,7.14-42.052,2.506.759,4.356,1.313,4.356,1.313a13.975,13.975,0,0,1,1.9,1.3,22.384,22.384,0,0,1,3.707,8c.987,3.788,2.549,10.409,4.158,17.25a53.792,53.792,0,0,1,2.217,6.377l5.338,1.744-8.444,28.444Z"/><path class="a" d="M141.684,127.16c1-2.94,2.761-4.007,4.3-5.078a66.159,66.159,0,0,1,9.094-3.021,28.963,28.963,0,0,0,7.306-3.468c2.1-1.276,4.928-3.6,6.85-5.082,2.788-2.157,7.641-8.781,2.863-10.988-1.338-.364-3.744-.5-4.908.247-.408.055-1.133-.329-1.809-.2-2.481.49-5.038,2.122-7.327,3.2a16.371,16.371,0,0,1-3.389,1.593c-1.306.3-8.238,1.494-10.636,2l.145-.374c.984-2.542,4.076-5,5.338-7.959.678-1.592,1.253-3.018-.3-4.079-1.4-.954-2.526-.238-3.645.822a82.229,82.229,0,0,0-7.011,7.334,18.785,18.785,0,0,0-4.17,7.643c-.416,1.436-.021,3.771-.608,5.156-.454,1.071-1.588,2.782-2.388,4.476-2.765,6.174-11.165,29.553-14.131,35.666a46.916,46.916,0,0,0-3.378,10.475,10.173,10.173,0,0,0,5.253,11.162c3.289,1.741,6.042.9,9.064-.991,5.551-3.48,6.2-8.106,7.981-14.116,1.806-6.1,3.552-24.5,5.4-34.084C141.612,127.378,141.647,127.268,141.684,127.16Z"/><path class="a" d="M26.508,163.088c-.126,6.616-5.533,40.71-6.867,46.266l-1.526,6.358c.816,6.662-.185,14.463-.385,21.17-.052,1.736-1.356,2.654-2.472,1.322-.534-.636-2.8-3.882-3.483-4.558-.3,2.751-.442,3.244-.577,5.087-.432,5.893-.377,7.623-.4,11.568-.012,1.7-.231,2.99-.691,3.252-1.635.929-3.542,1.066-4.875-.424a11.547,11.547,0,0,1-2.695-5.32,64.067,64.067,0,0,1-.574-9.435,33.758,33.758,0,0,1,1.818-8.844c2.082-5.943,3.886-8.662,4.681-14.908l.145.108c-.143-3.143,2.573-50.626,2.811-53.39"/><path class="f" d="M78.43,105.245a133.731,133.731,0,0,0,4.88-12.507,21.424,21.424,0,0,0-4.369-5.9,43.431,43.431,0,0,1-12.535,8.736c-.259.118-.549.262-.632.534a1,1,0,0,0,.144.708C66.081,97.15,77.245,103.787,78.43,105.245Z"/><path class="f" d="M50.974,105.245A134.007,134.007,0,0,1,46.1,92.738a21.42,21.42,0,0,1,4.368-5.9A43.445,43.445,0,0,0,63,95.572c.26.118.549.262.633.534a1.006,1.006,0,0,1-.145.708C63.324,97.15,52.159,103.787,50.974,105.245Z"/><path class="g" d="M33.286,191.7c-1.391,4.88-3.111,12.983-4.234,19.344-5.435,30.8-.173,62.933,2.2,93.228,2.469,31.55,3.977,63.1,6.445,94.648a143.181,143.181,0,0,0,27.823.2,143.243,143.243,0,0,0,27.837-.2c2.469-31.549,3.977-63.1,6.445-94.648,2.38-30.419,7.683-62.146,2.2-93.228-1.122-6.361-2.842-14.464-4.233-19.344Z"/><path class="d" d="M50.313,83.041A38.434,38.434,0,0,1,49.98,87.4l.071-.531c-.046.343-.1.687-.15,1.029a2.181,2.181,0,0,0,.2,1.541,2,2,0,0,0,2.737.718,1.936,1.936,0,0,0,.919-1.2,43.138,43.138,0,0,0,.555-5.916,2,2,0,0,0-4,0Z"/><path class="d" d="M75.048,83.041a42.958,42.958,0,0,0,.565,5.979,2,2,0,0,0,.919,1.2,2,2,0,0,0,2.736-.717l.2-.478a2.018,2.018,0,0,0,0-1.063q-.082-.52-.154-1.042l.072.532a38.436,38.436,0,0,1-.34-4.406,2,2,0,0,0-4,0Z"/><path class="d" d="M33.344,191.786c.891-4.248,1.289-8.641,1.876-12.939.745-5.453,1.756-10.9,2-16.412a36.12,36.12,0,0,0-.8-7.369c-.556-3.414-1.153-6.822-1.762-10.228-1.3-7.3-2.668-14.591-3.9-21.9a173.762,173.762,0,0,1-2.621-20.162c-.128-2.562-4.129-2.577-4,0a162.435,162.435,0,0,0,2.19,17.757c1.167,7.214,2.5,14.4,3.8,21.59.634,3.512,1.264,7.024,1.863,10.542q.409,2.4.8,4.81a30.044,30.044,0,0,1,.462,3.324c.191,5.222-.989,10.532-1.7,15.68-.649,4.733-1.075,9.57-2.056,14.248-.526,2.511,3.329,3.585,3.858,1.063Z"/><path class="d" d="M103.327,102.772c-.559,5.843-1.578,11.643-2.592,17.421-1.263,7.19-2.626,14.362-3.936,21.543-.639,3.5-1.267,7.007-1.859,10.517q-.414,2.447-.8,4.9a23.417,23.417,0,0,0-.466,3.753A73.106,73.106,0,0,0,94.7,170.36c.344,2.455.718,4.906,1.1,7.355q1.124,7.162,2.263,14.322a2.015,2.015,0,0,0,2.46,1.4,2.049,2.049,0,0,0,1.4-2.461q-1-6.285-1.988-12.572c-.843-5.355-1.81-10.731-2.193-16.142a31.6,31.6,0,0,1,.818-7.512c.576-3.474,1.191-6.941,1.819-10.4,1.294-7.144,2.651-14.276,3.922-21.424,1.188-6.679,2.382-13.388,3.029-20.146a2.014,2.014,0,0,0-2-2,2.044,2.044,0,0,0-2,2Z"/><path class="d" d="M45.249,91.113q-6.4,2.724-12.58,5.918c-2.014,1.036-4.012,2.1-6,3.177a42.318,42.318,0,0,0-5.594,3.135,2.066,2.066,0,0,0-.718,2.736,2.013,2.013,0,0,0,2.737.718,42.307,42.307,0,0,1,5.593-3.135c1.993-1.076,3.991-2.141,6.005-3.177q6.185-3.183,12.58-5.918a2.013,2.013,0,0,0,.717-2.737,2.053,2.053,0,0,0-2.736-.717Z"/><path class="d" d="M83.237,94.168c4.327,1.8,8.573,3.786,12.748,5.914,2.019,1.029,4.021,2.089,6.017,3.163a47.431,47.431,0,0,1,6.147,3.39,2.014,2.014,0,0,0,2.737-.718,2.049,2.049,0,0,0-.718-2.736,48.765,48.765,0,0,0-6.338-3.492c-2.056-1.106-4.12-2.195-6.2-3.251Q91.083,93.116,84.3,90.311a2.013,2.013,0,0,0-2.461,1.4,2.052,2.052,0,0,0,1.4,2.46Z"/><path class="d" d="M108.578,106.778a4.823,4.823,0,0,1,2.146,1.927,20.115,20.115,0,0,1,1.963,4.261c.9,2.659,1.472,5.448,2.129,8.175q.648,2.686,1.282,5.376c.436,1.845.718,3.824,1.324,5.619.643,1.905,1.673,4.18,2.218,6.376.62,2.5,4.478,1.44,3.857-1.063-.583-2.348-1.677-4.562-2.33-6.853-1.093-3.841-1.836-7.813-2.778-11.7a61.2,61.2,0,0,0-2.438-8.595,20.3,20.3,0,0,0-2.4-4.541,9.138,9.138,0,0,0-2.95-2.441c-2.238-1.281-4.255,2.174-2.019,3.454Z"/><path class="d" d="M21.092,103.324a10.687,10.687,0,0,0-4.43,4.89,31.616,31.616,0,0,0-2.3,6.412c-.972,3.9-1.846,7.817-2.746,11.73Q9.092,137.329,6.576,148.3c-.507,2.2-1.016,4.4-1.576,6.582-.534,2.088-2,5.821.519,7.173,2.268,1.218,4.29-2.234,2.019-3.454l.139.093.514.883c-.276-.654.195-1.846.392-2.586s.391-1.5.576-2.249c.455-1.841.885-3.688,1.31-5.536.859-3.734,1.68-7.475,2.535-11.21,1.576-6.885,3.164-13.773,4.811-20.642a44.406,44.406,0,0,1,1.5-5.271,18.218,18.218,0,0,1,1.854-3.7,4.747,4.747,0,0,1,1.941-1.609c2.234-1.279.221-4.737-2.019-3.454Z"/><path class="d" d="M100.524,154a39.385,39.385,0,0,0,3.533,9.166,24.856,24.856,0,0,0,5.976,7.6,2.047,2.047,0,0,0,2.828,0,2.018,2.018,0,0,0,0-2.828,21.255,21.255,0,0,1-5.35-6.789,34.019,34.019,0,0,1-3.13-8.21A2,2,0,0,0,100.524,154Z"/><path class="d" d="M111.391,156.559q.429-.579.858-1.158l.409-.546.206-.271c.06-.079.364-.449.019-.027.585-.716,1.148-1.445,1.767-2.133a22.392,22.392,0,0,1,1.963-1.946c.171-.149.345-.294.521-.437.02-.015.371-.295.121-.1s.074-.053.127-.091c.413-.3.84-.584,1.279-.849a2,2,0,0,0-2.019-3.454c-3.669,2.215-6.2,5.6-8.7,8.99a2.014,2.014,0,0,0-.2,1.541,2,2,0,0,0,3.656.478Z"/><path class="d" d="M139.649,126.959c-1.6,8.374-2.425,16.883-3.7,25.308a76.688,76.688,0,0,1-1.954,9.667c-1.08,3.766-1.912,7.8-4.9,10.584-1.624,1.513-4.013,3.078-6.3,3.115a7.287,7.287,0,0,1-5.7-3.31c-2.66-3.938-.893-8.863.537-12.927,1-2.853,2.383-5.574,3.527-8.375,1.357-3.322,2.645-6.671,3.93-10.021,1.544-4.027,3.069-8.06,4.618-12.085.666-1.73,1.335-3.459,2.021-5.181q.405-1.015.822-2.029l.141-.34a1.482,1.482,0,0,1,.065-.155q.177-.412.358-.822a2.062,2.062,0,0,0-.717-2.736,2.016,2.016,0,0,0-2.737.718c-2.883,6.468-5.227,13.2-7.755,19.808-1.388,3.632-2.779,7.265-4.234,10.871-1.161,2.875-2.554,5.6-3.692,8.713-1.781,4.873-3.386,10.281-1.083,15.244,2.317,4.994,8.27,7.98,13.506,5.853a17.086,17.086,0,0,0,9.723-10.189,64.522,64.522,0,0,0,2.951-10.935c1.792-9.854,2.548-19.873,4.428-29.713.481-2.515-3.374-3.593-3.857-1.063Z"/><path class="d" d="M133.116,120.388c.84-1.727,2.137-3.391,2.694-5.242.479-1.59.14-3.274.5-4.868.811-3.552,3.257-6.429,5.648-9.047,1.414-1.549,2.9-3.027,4.418-4.476.319-.3,1.238-1.349,1.561-1.241.507.169.177.606.046.983-1.182,3.407-4.35,5.64-5.74,8.957a2.012,2.012,0,0,0,1.4,2.46,2.051,2.051,0,0,0,2.46-1.4,17.352,17.352,0,0,1,2.659-3.7,18.573,18.573,0,0,0,2.722-4.363c.64-1.534,1.095-3.252.179-4.79a4.442,4.442,0,0,0-4.912-1.987c-1.718.492-3.021,2.059-4.258,3.265-1.424,1.389-2.812,2.817-4.128,4.31a26.219,26.219,0,0,0-5.48,8.611c-.664,1.89-.541,3.639-.8,5.58-.227,1.717-1.679,3.387-2.425,4.922-1.121,2.3,2.328,4.335,3.454,2.018Z"/><path class="d" d="M144.281,108.361c3.546-.787,7.165-1.223,10.707-2.022a15.491,15.491,0,0,0,3.692-1.649c1.38-.717,2.77-1.434,4.172-2.1a12.992,12.992,0,0,1,2.277-.892,4.99,4.99,0,0,1,1.783.064,3.989,3.989,0,0,0,1.582-.392,4.979,4.979,0,0,1,1.772-.123c1.952.114,2.148,1.1,1.524,2.733a12.576,12.576,0,0,1-3.446,4.686c-4.071,3.6-8.894,7.035-14.148,8.574-3.074.9-6.687,1.542-9.428,3.264a11.684,11.684,0,0,0-5.119,6.459c-.8,2.453,3.06,3.5,3.857,1.063,1.192-3.652,4.526-4.778,7.9-5.809,2.09-.637,4.239-1.13,6.273-1.937a36.544,36.544,0,0,0,5.715-2.956,58.123,58.123,0,0,0,5.2-3.784,28.481,28.481,0,0,0,3.695-3.158c2.1-2.319,4.328-5.63,3.719-8.926-.783-4.234-6.512-5.27-9.826-3.409l1.01-.273a15.276,15.276,0,0,0-1.809-.2,8.206,8.206,0,0,0-2.106.517,32.555,32.555,0,0,0-3.992,1.822c-1.92.991-3.833,2.274-5.967,2.69-3.361.655-6.756,1.159-10.1,1.9-2.512.557-1.449,4.414,1.063,3.857Z"/><path class="d" d="M150.517,109.827c-.23.037-.46.07-.69.105-.293.045.361-.045.066-.008l-.389.049c-.444.055-.889.106-1.333.159-1.062.127-2.128.257-3.177.472a11.881,11.881,0,0,0-5.542,2.652,2.013,2.013,0,0,0,0,2.829,2.049,2.049,0,0,0,2.829,0c.08-.071.161-.14.243-.209.17-.144.106-.064-.03.023.2-.125.384-.265.584-.385q.266-.157.54-.3c.091-.045.186-.085.276-.132.251-.132-.321.119-.056.02a15.149,15.149,0,0,1,2.526-.706c.412-.077.827-.139,1.241-.2.3-.044-.357.044-.062.008.1-.012.21-.026.314-.039l.707-.085c1.007-.119,2.015-.238,3.017-.4a2.009,2.009,0,0,0,1.4-2.46,2.059,2.059,0,0,0-2.461-1.4Z"/><path class="d" d="M164.574,100.229q-.458.467-.957.889c-.044.038-.492.422-.5.41.007.007.347-.261-.006,0-.08.059-.16.118-.241.176a26.189,26.189,0,0,1-2.467,1.558q-1.23.69-2.517,1.272c-.2.09-.4.177-.6.265-.233.1.368-.15.02-.009l-.258.1c-.406.163-.816.315-1.229.459a2,2,0,0,0,1.063,3.857,27.375,27.375,0,0,0,10.524-6.152,2,2,0,0,0-2.829-2.829Z"/><path class="d" d="M167.771,102.59a6.885,6.885,0,0,1-.887.879c-.108.092-.22.179-.329.27-.313.263.388-.286.048-.036-.226.167-.453.334-.684.495-1.031.719-2.108,1.374-3.2,2q-1.575.9-3.2,1.72c-.426.214-.854.424-1.287.624-.158.074-.319.144-.478.216-.347.159.482-.191.2-.083-.069.026-.137.055-.206.082a2.046,2.046,0,0,0-1.4,2.46,2.022,2.022,0,0,0,2.46,1.4,43.176,43.176,0,0,0,5.922-2.962c1.127-.646,2.239-1.323,3.3-2.072a12.6,12.6,0,0,0,2.56-2.162,2.047,2.047,0,0,0,0-2.828,2.022,2.022,0,0,0-2.829,0Z"/><path class="d" d="M9.414,161.34c-.516,6.1-.748,12.235-1.092,18.346-.517,9.153-1.027,18.307-1.455,27.465-.117,2.507-.366,5.068-.264,7.579.1,2.565,4.1,2.579,4,0-.084-2.081.111-4.2.205-6.277.185-4.114.4-8.227.615-12.34q.722-13.7,1.53-27.389c.145-2.46.253-4.928.461-7.384.217-2.565-3.785-2.55-4,0Z"/><path class="d" d="M24.508,163.088c-.125,5.591-1.171,11.178-1.967,16.673q-1.581,10.917-3.447,21.794c-.421,2.425-.812,4.87-1.381,7.267-.6,2.5,3.261,3.571,3.857,1.063,1.283-5.4,2.028-10.967,2.9-16.444,1.2-7.5,2.336-15,3.277-22.538a77.309,77.309,0,0,0,.758-7.815c.057-2.575-3.943-2.575-4,0Z"/><path class="d" d="M16.112,215.686c.666,5.681.145,11.412-.189,17.1q-.059.982-.107,1.967a7.4,7.4,0,0,0-.086,2.132c.011.032-.064.228-.045.245a3.948,3.948,0,0,1,1.027-.275c-.055.042-.134-.342,0-.008a2.366,2.366,0,0,0-.326-.437,41.637,41.637,0,0,0-3.195-4.175c-1.312-1.365-3.233-.2-3.414,1.414-.439,3.912-.836,7.8-.934,11.739-.041,1.639-.02,3.277-.047,4.916-.009.55-.049,1.084-.107,1.628-.008.069-.214.543-.084.373.243-.318.138-.178-.039-.222-.265-.066-.669.218-.983.181a1.9,1.9,0,0,1-1.2-.844c-2.341-2.827-2.225-6.114-2.374-9.575a31.679,31.679,0,0,1,1.852-12.22c.867-2.435,1.915-4.8,2.788-7.232a37.419,37.419,0,0,0,1.809-7.768,2.01,2.01,0,0,0-2-2,2.051,2.051,0,0,0-2,2c-.7,5.235-3.1,9.855-4.757,14.806A36.376,36.376,0,0,0,.086,243.355c.245,4.2.823,9.121,4.492,11.856,1.95,1.454,5.567,1.456,7.215-.543,1.42-1.724,1-4.653,1.013-6.739a135.047,135.047,0,0,1,.969-14.283l-3.414,1.414c1.326,1.38,2.2,3.144,3.482,4.559a3.254,3.254,0,0,0,3.954.849,4.252,4.252,0,0,0,1.94-3.8c.351-6.954,1.189-14.038.375-20.985a2.061,2.061,0,0,0-2-2,2.014,2.014,0,0,0-2,2Z"/><path class="d" d="M5.519,162.059a15.487,15.487,0,0,0,4.361.9c2.211.284,4.432.5,6.653.7,3.832.342,7.714.76,11.566.773,2.574.009,2.578-3.991,0-4-3.689-.013-7.406-.408-11.078-.73-2.194-.192-4.388-.4-6.574-.668l-.567-.071c-.35-.044.206.033-.34-.046-.349-.051-.7-.1-1.045-.161-.269-.047-.54-.094-.806-.156-.239-.056-.94-.337-.151.014a2.063,2.063,0,0,0-2.736.717,2.015,2.015,0,0,0,.717,2.737Z"/><path class="d" d="M7.8,154.564c5.6.553,11.213,1.307,16.835,1.494,2.575.086,2.572-3.914,0-4-5.622-.187-11.24-.941-16.835-1.494a2.015,2.015,0,0,0-2,2,2.044,2.044,0,0,0,2,2Z"/><path class="d" d="M40,398.911a29.646,29.646,0,0,1-1.67,6.327,2.009,2.009,0,0,0,.2,1.541,2,2,0,0,0,2.737.717,2.3,2.3,0,0,0,.919-1.195,29.638,29.638,0,0,0,1.67-6.326,2.2,2.2,0,0,0-.2-1.542,2,2,0,0,0-2.736-.717A1.923,1.923,0,0,0,40,398.911Z"/><path class="d" d="M57.946,399.872l.035,5.085a2,2,0,0,0,4,0l-.035-5.085a2,2,0,0,0-4,0Z"/><path class="d" d="M22.5,434.786c-1.631-2.229-1.231-5.047-.048-7.4a52.206,52.206,0,0,1,5.49-7.931q3.032-3.952,6.267-7.745c1.712-2.015,3.554-4.809,6.288-5.424l-2.461-2.46a5.563,5.563,0,0,0,3.35,6.187c2.6,1.168,5.747.917,8.492.486A24.228,24.228,0,0,0,62.9,403.966l-3.414-1.414c-.02,4.045.156,8.12-.02,12.161-.087,2.008-1.119,3.183-2.726,4.266a57.042,57.042,0,0,0-4.73,3.255c-5.788,4.806-9.176,13.167-16.924,15.284-4.26,1.164-9.96.484-12.9-3.137a2.014,2.014,0,0,0-2.829,0,2.046,2.046,0,0,0,0,2.828c2.981,3.673,8.532,5.114,13.085,4.78A19.4,19.4,0,0,0,44.734,436.2c3.069-3.008,5.432-6.647,8.488-9.667a30.318,30.318,0,0,1,5.086-3.805,11.187,11.187,0,0,0,4.357-4.348c1.2-2.574.831-5.686.825-8.451-.005-2.46-.016-4.919,0-7.379a2.022,2.022,0,0,0-3.414-1.414,20.233,20.233,0,0,1-8.822,4.982,19.433,19.433,0,0,1-5.753.7c-.946-.028-3.925-.28-3.6-1.932a2.027,2.027,0,0,0-2.46-2.46c-3.455.777-5.718,3.712-7.9,6.271q-3.795,4.454-7.336,9.115c-3.857,5.058-9.873,12.535-5.153,18.986a2.06,2.06,0,0,0,2.737.717A2.014,2.014,0,0,0,22.5,434.786Z"/><path class="d" d="M87.129,399.842a29.557,29.557,0,0,0,1.881,6.939,2.191,2.191,0,0,0,.919,1.195,2.043,2.043,0,0,0,1.541.2,2.022,2.022,0,0,0,1.2-.92,1.936,1.936,0,0,0,.2-1.541,29.536,29.536,0,0,1-1.881-6.938,2,2,0,0,0-.919-1.2,2,2,0,0,0-2.737.718,2.345,2.345,0,0,0-.2,1.541Z"/><path class="d" d="M69.063,399.482q-.018,2.738-.039,5.475a2,2,0,0,0,4,0q.02-2.737.039-5.475a2,2,0,0,0-4,0Z"/><path class="d" d="M111.959,436.805c4.721-6.452-1.3-13.928-5.153-18.986q-3.547-4.653-7.335-9.115c-2.179-2.558-4.443-5.494-7.9-6.271a2.028,2.028,0,0,0-2.461,2.46c.306,1.573-2.456,1.886-3.393,1.926a19.316,19.316,0,0,1-5.965-.7,20.229,20.229,0,0,1-8.821-4.982,2.022,2.022,0,0,0-3.414,1.414c.011,2.231,0,4.461,0,6.692a44.039,44.039,0,0,0,.184,7.082c.772,4.787,5.507,6.193,8.744,8.971,3.27,2.806,5.668,6.434,8.563,9.593,3.076,3.357,6.852,6.048,11.422,6.834,5.17.89,11.735-.224,15.218-4.515a2.059,2.059,0,0,0,0-2.828,2.015,2.015,0,0,0-2.829,0c-2.55,3.142-7.352,4.091-11.193,3.508-4-.607-7.118-2.91-9.79-5.828-2.609-2.85-4.81-6.066-7.617-8.736a29.4,29.4,0,0,0-4.739-3.566c-1.32-.827-2.967-1.735-3.615-3.241a9.964,9.964,0,0,1-.349-3.832q0-1.72,0-3.442c.007-2.231.014-4.461,0-6.692L68.1,403.966A24.234,24.234,0,0,0,81.128,410.5c2.665.419,5.7.667,8.253-.386a5.6,5.6,0,0,0,3.589-6.287l-2.461,2.46c2.67.6,4.458,3.275,6.133,5.242q3.308,3.883,6.421,7.927a54.31,54.31,0,0,1,5.392,7.742c1.242,2.395,1.736,5.282.05,7.585a2.014,2.014,0,0,0,.718,2.736A2.045,2.045,0,0,0,111.959,436.805Z"/><path class="d" d="M64.353,237.638c-.388,4.245-.339,8.551-.383,12.809-.071,6.847-.066,13.695-.047,20.543.032,11.809.177,23.619.188,35.429.01,9.888-.032,19.777-.052,29.666q-.041,19.9-.052,39.8,0,7.6.025,15.207c.011,2.465-.086,4.971.088,7.433a2.213,2.213,0,0,0,.613,1.664,2.062,2.062,0,0,0,2.829,0,2.014,2.014,0,0,0,0-2.828c-.222-.177.885,1.16.571,1.349a.728.728,0,0,0-.008-.1,3.313,3.313,0,0,0-.016-.344c-.006-.382-.02-.763-.027-1.145-.023-1.375-.031-2.75-.04-4.124q-.042-7.006-.034-14.012-.01-19.485.043-38.97.032-15.9.06-31.809c.007-10.76-.127-21.52-.171-32.28-.05-12.068-.316-24.2.278-36.259.034-.678.073-1.356.135-2.032a2.016,2.016,0,0,0-2-2,2.043,2.043,0,0,0-2,2Z"/><path class="d" d="M31.357,191.166A177.9,177.9,0,0,0,25.1,227.412c-.916,13.652-.243,27.354.877,40.972,1.108,13.466,2.6,26.9,3.614,40.37,1.065,14.106,1.957,28.224,2.846,42.342,1.005,15.946,2.011,31.892,3.254,47.822a2.069,2.069,0,0,0,2,2,154.428,154.428,0,0,0,26.485.307c2.551-.191,2.572-4.192,0-4a154.428,154.428,0,0,1-26.485-.307l2,2c-2.2-28.208-3.649-56.466-5.695-84.685-.983-13.553-2.354-27.062-3.566-40.594-1.206-13.457-2.11-26.977-1.624-40.494a174.1,174.1,0,0,1,6.4-40.915c.7-2.482-3.157-3.541-3.857-1.064Z"/><path class="d" d="M95.835,192.23a173.6,173.6,0,0,1,6.188,36.169c.844,13.533.147,27.1-.986,40.6-1.133,13.509-2.624,26.983-3.638,40.5-1.053,14.023-1.937,28.058-2.822,42.093-1,15.78-1.992,31.56-3.223,47.324l2-2a154.416,154.416,0,0,1-26.484.307c-2.568-.192-2.555,3.809,0,4a154.416,154.416,0,0,0,26.484-.307,2.066,2.066,0,0,0,2-2c2.2-28.208,3.65-56.466,5.7-84.685.99-13.657,2.382-27.269,3.61-40.906,1.221-13.564,2.121-27.195,1.574-40.818a179.386,179.386,0,0,0-6.542-41.343c-.7-2.473-4.56-1.422-3.857,1.064Z"/><path class="a" d="M91.993,122.178H76.911c0,1.2.024,5.321.024,6.768,2.517,0,13.163.027,15.058.027C91.993,126.971,91.974,122.417,91.993,122.178Z"/><path class="d" d="M91.993,120.178H76.911a2.028,2.028,0,0,0-2,2c0,2.256.023,4.512.024,6.768a2.029,2.029,0,0,0,2,2c5.019,0,10.039.026,15.058.027a2.03,2.03,0,0,0,2-2c0-2.256-.119-4.541,0-6.8a2,2,0,0,0-4,0c-.119,2.254,0,4.539,0,6.8l2-2c-5.019,0-10.039-.026-15.058-.027l2,2c0-2.256-.023-4.512-.024-6.768l-2,2H91.993C94.567,124.178,94.571,120.178,91.993,120.178Z"/><path class="d" d="M31.944,193.505H99.425c2.573,0,2.578-4,0-4H31.944c-2.574,0-2.578,4,0,4Z"/><path class="d" d="M80.157,106.255c1.4-3.029,2.634-6.158,3.815-9.279.285-.754.565-1.51.824-2.272a5.2,5.2,0,0,0,.478-2.232c-.171-1.265-1.314-2.69-2.043-3.711a22.275,22.275,0,0,0-2.875-3.34,2.037,2.037,0,0,0-2.829,0,41.107,41.107,0,0,1-8.144,6.332q-1.081.645-2.2,1.225c-.706.365-1.5.645-2.168,1.076a2.763,2.763,0,0,0-.446,4.238,20.564,20.564,0,0,0,3.418,2.276c1.765,1.114,3.533,2.224,5.28,3.368.862.565,1.721,1.135,2.559,1.735.186.133.367.272.553.4.254.18-.326-.289.093.076a4.686,4.686,0,0,1,.545.509,2.017,2.017,0,0,0,2.828,0,2.042,2.042,0,0,0,0-2.829,13.724,13.724,0,0,0-2.768-2.151c-1.349-.927-2.728-1.812-4.108-2.691-1.329-.847-2.665-1.683-4-2.528-.46-.292-.921-.584-1.375-.885-.151-.1-.3-.218-.454-.31s-.3-.332.253.2c-.155-.149.387.51.377.642L67.5,97.115q-.539.441-.085.184c.137-.062.274-.125.41-.19q.416-.193.824-.4.907-.451,1.791-.947,1.749-.983,3.4-2.122a45.623,45.623,0,0,0,6.511-5.392H77.527a20.383,20.383,0,0,1,4.056,5.5l-.2-1.542A53.39,53.39,0,0,1,79.1,98.521q-.7,1.771-1.442,3.53c-.05.12-.171.405-.057.135-.046.11-.093.219-.14.329-.1.224-.191.448-.289.671-.152.352-.307.7-.468,1.05a2.058,2.058,0,0,0,.718,2.736A2.016,2.016,0,0,0,80.157,106.255Z"/><path class="d" d="M52.7,104.236c-.15-.325-.3-.653-.438-.981q-.144-.33-.285-.662l-.138-.324c-.081-.189.087.209-.054-.128q-.758-1.8-1.481-3.62a53.568,53.568,0,0,1-2.282-6.315l-.2,1.542a20.426,20.426,0,0,1,4.056-5.5H49.049a45.67,45.67,0,0,0,6.51,5.392q1.653,1.137,3.405,2.122.816.458,1.653.879.41.206.824.4.273.129.548.254.453.258-.085-.184l-.273-1.009c-.01-.132.531-.791.377-.642.022-.022.528-.36.253-.2-.143.084-.277.191-.415.284-.467.31-.941.61-1.414.911-1.331.845-2.666,1.681-4,2.528-1.381.879-2.759,1.764-4.109,2.691a13.716,13.716,0,0,0-2.768,2.151,2.054,2.054,0,0,0,0,2.829,2.018,2.018,0,0,0,2.829,0,3.729,3.729,0,0,1,.429-.414c.107-.091.218-.176.326-.264-.384.314-.029.026.149-.1.7-.512,1.42-1,2.142-1.478,1.75-1.162,3.528-2.283,5.3-3.4,1.191-.751,2.42-1.469,3.564-2.293A2.826,2.826,0,0,0,65.358,95.1c-.732-1.385-2.8-1.916-4.1-2.633a41.431,41.431,0,0,1-9.381-7.042,2.038,2.038,0,0,0-2.828,0,22.34,22.34,0,0,0-2.876,3.34,12.357,12.357,0,0,0-2.007,3.445,4.557,4.557,0,0,0,.442,2.5c.26.762.54,1.518.825,2.272,1.181,3.121,2.41,6.25,3.815,9.279a2.015,2.015,0,0,0,2.736.717A2.045,2.045,0,0,0,52.7,104.236Z"/><path class="d" d="M62.726,96.994q0,16.857.01,33.716.008,23.9.016,47.8,0,6.387,0,12.773c0,2.574,4,2.578,4,0q0-16.047-.01-32.094l-.015-48.251q0-6.971,0-13.941c0-2.574-4-2.579-4,0Z"/><path class="d" d="M59.425,71.224a12.007,12.007,0,0,0,5.784,1.35,9.536,9.536,0,0,0,5.95-1.8,2,2,0,0,0,0-2.828,2.06,2.06,0,0,0-2.828,0c.691-.539-.02-.016-.239.1-.169.089-.62.229.012.014-.157.054-.31.12-.468.171-.424.136-.9.153-1.312.3.211-.075.327-.039.027-.01-.128.013-.257.024-.386.032-.311.02-.622.028-.933.026-.278,0-.557-.011-.834-.03-.128-.008-.255-.019-.383-.032-.072-.007-.145-.015-.217-.024-.158-.019-.1-.01.185.025a4.762,4.762,0,0,1-1.226-.272c-.171-.051-.339-.113-.508-.171-.447-.153.423.2.017.011-.21-.1-.417-.2-.623-.311a2,2,0,1,0-2.018,3.454Z"/><path class="d" d="M63.931,57.936a25.645,25.645,0,0,1,.607,2.777l-.071-.532a1.693,1.693,0,0,1,.01.383l.072-.531a.866.866,0,0,1-.043.172l.2-.478a.665.665,0,0,1-.061.111l.313-.405a.6.6,0,0,1-.091.09l.405-.313a1.773,1.773,0,0,1-.22.116l.478-.2a1.645,1.645,0,0,1-.371.108l.532-.072a1.5,1.5,0,0,1-.348,0l.532.071c-.132-.018-.26-.05-.392-.068a1.511,1.511,0,0,0-.8-.035,1.492,1.492,0,0,0-.744.237,2,2,0,0,0-.717,2.736l.313.405a1.992,1.992,0,0,0,.882.515c.35.047.689.134,1.045.15a3.437,3.437,0,0,0,1.606-.392,2.442,2.442,0,0,0,1.317-1.595,3.769,3.769,0,0,0-.014-1.654c-.151-.894-.357-1.781-.588-2.658a2,2,0,0,0-2.46-1.4,2.017,2.017,0,0,0-1.2.919,2.1,2.1,0,0,0-.2,1.541Z"/><path class="d" d="M49.805,49.919c-.463,1.507-.161,4.974,2.694,5.269,3.773-.023,3.973-4.214,2.7-6.184C54.162,47.39,51.105,46.719,49.805,49.919Z"/><path class="d" d="M80.02,49.92c.464,1.506.162,4.973-2.693,5.268-3.773-.023-3.974-4.214-2.7-6.184C75.663,47.39,78.721,46.719,80.02,49.92Z"/></svg>