<?xml version="1.0" encoding="utf-8"?>
<!-- Uploaded to: SVG Repo, www.svgrepo.com, Generator: SVG Repo Mixer Tools -->
<svg width="800px" height="800px" viewBox="-132.6 0 469.724 469.724" xmlns="http://www.w3.org/2000/svg"><defs><style>.a{fill:#ffffff;}.b{fill:#211715;}.c{fill:#645d5c;}.d{fill:#7a7473;}.e{fill:#9fc3e4;}.f{fill:#bdbdbd;}.g{fill:#3f88c9;}</style></defs><path class="a" d="M49.164,430.889q-.2.561-.425,1.115a4.012,4.012,0,0,0,1.612,1.884,8.365,8.365,0,0,0,4.278.966A23.913,23.913,0,0,0,69.66,429.66c-.011-.91-.017-1.82-.024-2.73a142.377,142.377,0,0,1-19.542.847A29.894,29.894,0,0,1,49.164,430.889Z"/><path class="a" d="M81.309,428.573l.012-1.64a168.42,168.42,0,0,0,19.518.719,29.192,29.192,0,0,0,1.379,4.35,4.006,4.006,0,0,1-1.612,1.886,8.365,8.365,0,0,1-4.278.966A23.888,23.888,0,0,1,81.3,429.66Z"/><path class="b" d="M50.359,433.271a30.3,30.3,0,0,0,1.662-4.967,2.1,2.1,0,0,0-.2-1.541,2,2,0,0,0-3.655.477,31.785,31.785,0,0,1-1.432,4.424l.2-.477-.029.066a1.486,1.486,0,0,0-.237.743,1.506,1.506,0,0,0,.036.8,2,2,0,0,0,2.46,1.4,1.927,1.927,0,0,0,1.2-.92Z"/><path class="b" d="M67.639,427.346l.022,3.259a2.071,2.071,0,0,0,.586,1.414,2,2,0,0,0,2.829,0,2.07,2.07,0,0,0,.585-1.414l-.022-3.259a2.066,2.066,0,0,0-.586-1.414,2,2,0,0,0-2.828,0,2.065,2.065,0,0,0-.586,1.414Z"/><path class="b" d="M98.922,428.278a31.087,31.087,0,0,0,1.523,4.634,2.238,2.238,0,0,0,.919,1.2,2,2,0,0,0,2.736-.717,1.925,1.925,0,0,0,.2-1.541,31.062,31.062,0,0,1-1.523-4.635,2.02,2.02,0,0,0-2.461-1.4,2.042,2.042,0,0,0-1.4,2.461Z"/><path class="b" d="M79.319,427.123,79.3,430.6a2.064,2.064,0,0,0,.586,1.415,2,2,0,0,0,2.829,0A2.089,2.089,0,0,0,83.3,430.6l.024-3.48a2.059,2.059,0,0,0-.585-1.415,2,2,0,0,0-2.829,0,2.09,2.09,0,0,0-.586,1.415Z"/><path class="c" d="M28.361,463.258c-.115-.152-.225-.309-.328-.47a8.807,8.807,0,0,1-.583-7.38,24.183,24.183,0,0,1,3.787-6.608q5.483-7.486,11.587-14.49c1.587-1.82,3.381-3.716,5.753-4.164a3.567,3.567,0,0,0,1.774,3.742,8.365,8.365,0,0,0,4.278.966,23.745,23.745,0,0,0,16.619-6.614c-.028,5,.022,6.663,0,11.665a10.478,10.478,0,0,1-.439,3.606c-1.028,2.78-4.075,4.119-6.521,5.793-6.363,4.354-9.715,12.3-16.382,16.17a17.212,17.212,0,0,1-15.914.57A10.036,10.036,0,0,1,28.361,463.258Z"/><path class="c" d="M122.6,463.258q.174-.228.329-.47a8.807,8.807,0,0,0,.583-7.38,24.183,24.183,0,0,0-3.787-6.608q-5.483-7.486-11.588-14.49c-1.586-1.82-3.38-3.716-5.752-4.164a3.567,3.567,0,0,1-1.774,3.742,8.365,8.365,0,0,1-4.278.966,23.743,23.743,0,0,1-16.619-6.614c.027,5-.022,6.663,0,11.665a10.478,10.478,0,0,0,.439,3.606c1.027,2.78,4.075,4.119,6.521,5.793,6.363,4.354,9.714,12.3,16.382,16.17a17.212,17.212,0,0,0,15.914.57A10.024,10.024,0,0,0,122.6,463.258Z"/><path class="b" d="M30.088,462.248c-1.764-2.411-1.3-5.449-.01-7.975A55.55,55.55,0,0,1,35.817,446q3.174-4.14,6.559-8.112c1.829-2.153,3.807-5.162,6.733-5.814l-2.461-2.461a5.83,5.83,0,0,0,3.884,6.568c2.632,1.032,5.78.761,8.51.323a25.448,25.448,0,0,0,13.62-6.851l-3.414-1.414c-.022,4.261.165,8.554-.021,12.81-.093,2.138-1.178,3.407-2.892,4.565a57.479,57.479,0,0,0-5.2,3.61c-6.047,5.128-9.633,13.856-17.855,16-4.468,1.166-10.438.41-13.5-3.383a2.014,2.014,0,0,0-2.829,0,2.048,2.048,0,0,0,0,2.829c3.11,3.849,8.921,5.341,13.677,5.006a20.359,20.359,0,0,0,12.98-6.144c3.2-3.157,5.678-6.96,8.876-10.119a31.092,31.092,0,0,1,5.264-3.947,11.793,11.793,0,0,0,4.659-4.621c1.26-2.721.856-6.042.849-8.965-.006-2.547-.017-5.094,0-7.642a2.022,2.022,0,0,0-3.414-1.414,21.435,21.435,0,0,1-9.4,5.293,20.485,20.485,0,0,1-6.213.724c-1.138-.045-4.061-.4-3.718-2.165a2.027,2.027,0,0,0-2.461-2.46c-3.578.8-5.93,3.833-8.189,6.48q-4.026,4.721-7.782,9.662c-4.04,5.3-10.39,13.142-5.44,19.907a2.06,2.06,0,0,0,2.737.717A2.014,2.014,0,0,0,30.088,462.248Z"/><path class="b" d="M124.322,464.267c4.95-6.764-1.4-14.61-5.439-19.907q-3.764-4.932-7.782-9.662c-2.259-2.648-4.611-5.682-8.189-6.48a2.027,2.027,0,0,0-2.461,2.46c.343,1.766-2.586,2.12-3.718,2.165a20.485,20.485,0,0,1-6.213-.724,21.441,21.441,0,0,1-9.4-5.293,2.022,2.022,0,0,0-3.414,1.414c.012,2.269.006,4.537,0,6.806a48.173,48.173,0,0,0,.189,7.675c.812,5.082,5.969,6.587,9.377,9.571,3.39,2.968,5.9,6.763,8.938,10.058,3.234,3.5,7.2,6.272,11.985,7.069,5.372.9,12.207-.283,15.814-4.747a2.062,2.062,0,0,0,0-2.829,2.016,2.016,0,0,0-2.829,0c-2.682,3.32-7.738,4.32-11.787,3.739-4.287-.615-7.624-3.079-10.479-6.2-2.743-3-5.056-6.374-8-9.182a30.229,30.229,0,0,0-4.906-3.7c-1.437-.9-3.229-1.881-3.929-3.522a11.037,11.037,0,0,1-.371-4.222q0-1.773,0-3.548c.007-2.323.014-4.647,0-6.97L78.3,429.654a25.442,25.442,0,0,0,13.619,6.851c2.666.427,5.738.7,8.324-.251a5.866,5.866,0,0,0,4.07-6.64l-2.46,2.461c2.863.638,4.786,3.526,6.578,5.633q3.457,4.062,6.714,8.293a57.561,57.561,0,0,1,5.642,8.083c1.343,2.572,1.9,5.682.087,8.164a2.013,2.013,0,0,0,.717,2.736A2.045,2.045,0,0,0,124.322,464.267Z"/><path class="a" d="M45.227,44.12c.037-.111.076-.223.116-.336,2.607-7.36,10.09-17.322,29.793-17.322,31.111,0,30.069,25,30.069,25a4.555,4.555,0,0,1,3.644-1.066,4.3,4.3,0,0,1,3.092,2.055,6.085,6.085,0,0,1,.637,2.446,18.223,18.223,0,0,1-1.858,9.659,11.584,11.584,0,0,1-3,3.93,7.663,7.663,0,0,1-3.57,1.609l-.611.095c-.293,1.1-.623,2.02-.784,2.511C101.8,75.323,96.71,83.93,90.126,88a57.151,57.151,0,0,0,.389,5.973,80.467,80.467,0,0,0,3.99,7.133c2,3.11-2.126,13.385-20.314,13.385s-24.481-9.823-20.078-13.464a15.485,15.485,0,0,0,4.311-5.562l.491-1.1c.243-2.092.4-4.475.436-6.325A27.712,27.712,0,0,1,52.2,81.8,30.963,30.963,0,0,1,46.3,70.275L45.132,70.1a7.672,7.672,0,0,1-3.57-1.609,11.584,11.584,0,0,1-2.995-3.93A18.233,18.233,0,0,1,36.709,54.9a6.085,6.085,0,0,1,.637-2.446A4.3,4.3,0,0,1,40.438,50.4a4.555,4.555,0,0,1,3.644,1.066,16.873,16.873,0,0,1,.015-1.812A21.361,21.361,0,0,1,45.227,44.12Z"/><path class="d" d="M99.833,42.686a46.417,46.417,0,0,1,5.217,8.926,4.524,4.524,0,0,1,3.8-1.214,3.972,3.972,0,0,1,.793.2c2.265-5.818,2.6-14.246-.262-22.242C107.369,22.734,102.356,16.844,98.8,15.2l-5.14-3.7c-4.38-6-11-9.161-20.342-9.447-8.75-.267-18.831,1.5-26.495,9.213l2.467,2.489c-4.516,2.9-8.052,8.332-9.693,13.151-1.967,5.776-2.554,14-.219,23.709l.017.07a4.321,4.321,0,0,1,1.047-.294,4.5,4.5,0,0,1,3.9,1.317c8.814-8.424,16.491-13.426,24.235-19.51.045.516,1.695,4.641,2.082,4.8.525.214,6.291-3.407,10.312-5.886L87.3,32.782a23.631,23.631,0,0,1,7.42,4.346A35.148,35.148,0,0,1,99.833,42.686Z"/><path class="b" d="M106.619,52.878a2.475,2.475,0,0,1,3.521.464,5.186,5.186,0,0,1,.5,2.618,15.523,15.523,0,0,1-.218,3.172c-.689,3.77-2.608,8.286-6.8,9.037a2.017,2.017,0,0,0-1.4,2.46,2.045,2.045,0,0,0,2.461,1.4c6.374-1.143,9.414-8.342,9.894-14.119.246-2.965.009-6.353-2.555-8.275a6.59,6.59,0,0,0-8.235.418,2.015,2.015,0,0,0,0,2.828,2.043,2.043,0,0,0,2.828,0Z"/><path class="b" d="M102.108,66.707a17.2,17.2,0,0,1-1,4.642c-.09.274-.193.545-.275.822-.037.126-.2.477.026-.039-.141.326-.294.646-.453.963a39.123,39.123,0,0,1-3.367,5.411C94.1,82.532,90.116,86.8,85.088,87.977c-2.5.588-1.445,4.446,1.063,3.857,6-1.406,10.648-6.309,14.175-11.085,3.047-4.125,5.57-8.8,5.782-14.042.1-2.574-3.9-2.57-4,0Z"/><path class="b" d="M45.5,50.05a6.591,6.591,0,0,0-8.235-.418c-2.567,1.916-2.8,5.315-2.556,8.275.48,5.777,3.52,12.976,9.895,14.119a2.057,2.057,0,0,0,2.46-1.4,2.017,2.017,0,0,0-1.4-2.46c-4.189-.751-6.108-5.267-6.8-9.037a15.325,15.325,0,0,1-.221-2.995,5.955,5.955,0,0,1,.426-2.674,2.46,2.46,0,0,1,3.595-.585,2.056,2.056,0,0,0,2.829,0,2.017,2.017,0,0,0,0-2.828Z"/><path class="b" d="M43.387,66.436a35.39,35.39,0,0,0,7.539,16.945c4.242,5.022,9.857,8.654,16.471,9.368a2.013,2.013,0,0,0,2-2,2.045,2.045,0,0,0-2-2c-5.669-.612-10.405-4.243-13.922-8.531-3.469-4.23-5.3-9.518-6.231-14.845a2.017,2.017,0,0,0-2.46-1.4,2.046,2.046,0,0,0-1.4,2.46Z"/><path class="b" d="M97.786,16.93a17.164,17.164,0,0,1,5.593,4.923,25.34,25.34,0,0,1,4.38,7.936,31.362,31.362,0,0,1,.357,19.154c-.788,2.457,3.073,3.509,3.857,1.063a35.143,35.143,0,0,0-.507-21.732,30.28,30.28,0,0,0-5.012-8.94,20.225,20.225,0,0,0-6.649-5.858c-2.308-1.113-4.339,2.335-2.019,3.454Z"/><path class="b" d="M51.547,10.415c-6.988,2.667-11.883,9.61-14.074,16.552-2.458,7.785-1.878,16.346-.027,24.187.591,2.5,4.449,1.444,3.857-1.063-1.647-6.977-2.184-14.5-.156-21.459,1.66-5.7,5.681-12.153,11.464-14.36a2.058,2.058,0,0,0,1.4-2.46,2.016,2.016,0,0,0-2.461-1.4Z"/><path class="b" d="M95.383,10.5A25.415,25.415,0,0,0,78.229.505,43.249,43.249,0,0,0,56.65,2.6,32.619,32.619,0,0,0,45.405,9.859c-1.83,1.815,1,4.644,2.828,2.828a30.283,30.283,0,0,1,17.88-8.334c6.087-.739,12.912-.564,18.523,2.159a19.769,19.769,0,0,1,7.293,6,2.061,2.061,0,0,0,2.736.718,2.016,2.016,0,0,0,.718-2.737Z"/><path class="b" d="M80.74,28.908c-3.092,1.9-6.142,3.9-9.336,5.626-.25.136-.5.263-.757.394-.074.038-.324.231-.138.074.242-.205-.039.092-.068.022a.82.82,0,0,1-.1.03q-.56.141.909.381c2.062.8.925.568.841.182a4.929,4.929,0,0,0-.416-.823A12.52,12.52,0,0,1,70.5,31.673c-.265-1.659-2.309-1.693-3.343-.882C59.285,36.961,51.09,42.65,43.768,49.5c-1.884,1.762.949,4.586,2.829,2.828,7.321-6.848,15.517-12.539,23.39-18.709l-3.343-.882a16.7,16.7,0,0,0,1.681,4.288c.779,1.6,1.987,2.377,3.719,1.637,3.77-1.611,7.232-4.162,10.715-6.3,2.19-1.345.183-4.806-2.019-3.454Z"/><path class="b" d="M86.763,34.711c7.753,3.043,12.952,10.066,16.346,17.423a2.016,2.016,0,0,0,2.737.717,2.046,2.046,0,0,0,.717-2.736A46.494,46.494,0,0,0,99.185,38.74a31.175,31.175,0,0,0-5.323-4.8,28.177,28.177,0,0,0-6.035-3.088,2.015,2.015,0,0,0-2.461,1.4,2.048,2.048,0,0,0,1.4,2.46Z"/><path class="e" d="M42.368,106.253c3.5-1.711,7.135-3.375,11.172-5.065,1.128,3.481,4.375,11.324,5.314,13.336,1.353-1.666,14.108-9.248,14.293-9.632a1.152,1.152,0,0,0,.166-.809H75.76a1.152,1.152,0,0,0,.166.809c.185.384,12.94,7.966,14.293,9.632,1-2.149,4.637-10.947,5.5-13.99l.851.353a250.3,250.3,0,0,1,25.284,12.352c.755.411,1.51.753,2.245,1.123l0,.052c-.445,4-2.377,25.469-3.9,37.7-1.185,9.54-3.078,22.589-3.342,26.963-.28,4.637.463,22.5.946,27.116,1.361,13.014,2.291,22.261,2.8,28.392l-2.3.033c-13.676,0-69.33-.065-87.651-.065,0,0-.527.021-1.31.061.5-5.5,2.472-23.4,3-28.421.483-4.62,1.226-21.887.946-26.523-.264-4.375-1.979-18.9-3.163-28.445-1.519-12.23-3.954-32.412-4.4-36.116l-.021-.163c1.066-.616,2.225-1.138,3.268-1.706C33.59,110.732,37.865,108.454,42.368,106.253Z"/><path class="f" d="M75.359,234.584c-17.658-.016-35.724-.032-44.727-.032,1.658,17.179,3.506,50.394,5.2,78.573,1.986,33,2.8,106.105,3.245,113.47,4.933,1.645,24.116,1.761,35.557-.426,0,0,.308-.059.625-.115,9.392,1.952,31.386,2.186,36.318.541.446-7.365,1.259-80.473,3.246-113.47,1.672-27.785,2.989-61.123,4.614-78.508h-1.129C111.363,234.617,93.578,234.6,75.359,234.584Z"/><path class="g" d="M129.035,191.317a31.325,31.325,0,0,1-5.582-6.4c-1.276-2.259-4.217-8.474-4.967-12.223l-.587-2.93c.7-5.5,1.623-12.153,2.3-17.648,1.518-12.23,1.809-20.977,2.254-24.977l1.641-12.722,2.755,1.5a16.4,16.4,0,0,1,2.226,1.527c2.135,2.529,3.642,6.679,4.347,9.384,1.159,4.442,2.99,12.207,4.877,20.23a63.161,63.161,0,0,1,2.6,7.478l5.387,2.215-12,35.556Z"/><path class="g" d="M5.989,180.744c1.927.92,21.69,2.453,25.3,2.453h2.065c.009-1.482-.008-2.7-.058-3.528-.264-4.375-1.979-18.9-3.163-28.445-1.519-12.23-2.043-21.647-2.487-25.35l-1.912-10.766-1.478.8a16.279,16.279,0,0,0-2.226,1.527c-2.135,2.529-3.643,6.679-4.348,9.384-1.158,4.442-4.6,19.848-5.909,25.191-.843,3.443-4.118,18.648-5.693,24.415-.474,1.735-.964,4.052-.088,4.315"/><path class="a" d="M26.841,183.266c-.376,12.94-3.012,44.057-4.547,50.545l-1.766,7.463a143.111,143.111,0,0,1,.985,21.105,2.074,2.074,0,0,1-3.651,1.274c-.582-.69-1.458-1.722-1.86-2.307a16.837,16.837,0,0,0-1.937-2.635,20.459,20.459,0,0,0-1.053,5.464c-.452,6.4-.747,6,.036,12.634.216,1.831-.242,3.249-.742,3.535-3.192,1.826-6.493-.7-7.989-3.156a14.133,14.133,0,0,1-1.507-3.647c-1.8-6.6-.3-12.6,1.948-19.062,2.352-6.771,5.419-13.4,6.086-20.557-.263-3.273.248-39.733.476-51.992"/><path class="a" d="M152.585,132.379c.924-1.874,2.135-3.728,2.637-4.912.689-1.625.226-4.364.714-6.048a22.03,22.03,0,0,1,4.891-8.963,96.246,96.246,0,0,1,8.221-8.6c1.313-1.243,2.634-2.082,4.275-.964,1.825,1.244,1.151,2.917.356,4.784-1.48,3.476-5.106,6.353-6.261,9.334l-.165.426c2.8-.575,10.937-1.979,12.469-2.328a19.321,19.321,0,0,0,3.975-1.868c2.685-1.262,5.683-3.175,8.592-3.75.793-.156,1.643.3,2.122.23,1.365-.88,4.187-.717,5.756-.29,5.6,2.589-.088,10.357-3.358,12.886-2.254,1.743-5.571,4.464-8.033,5.96a33.921,33.921,0,0,1-8.569,4.068,77.859,77.859,0,0,0-10.665,3.542c-1.874,1.3-4.026,2.6-5.171,6.344-2.167,11.241-4.214,32.821-6.332,39.973-2.087,7.049-2.85,12.474-9.36,16.555-3.545,2.222-6.773,3.2-10.63,1.162a11.93,11.93,0,0,1-6.161-13.091,54.961,54.961,0,0,1,3.962-12.284c3.478-7.169,13.329-34.587,16.573-41.828C152.476,132.6,152.53,132.491,152.585,132.379Z"/><path class="g" d="M90.219,114.524a152.975,152.975,0,0,0,5.575-14.288A24.5,24.5,0,0,0,90.8,93.493a49.6,49.6,0,0,1-14.32,9.98c-.3.135-.627.3-.723.61a1.152,1.152,0,0,0,.166.809C76.111,105.276,88.866,112.858,90.219,114.524Z"/><path class="g" d="M58.854,114.524a152.975,152.975,0,0,1-5.575-14.288,24.5,24.5,0,0,1,4.991-6.743,49.6,49.6,0,0,0,14.32,9.98c.3.135.627.3.723.61a1.152,1.152,0,0,1-.166.809C72.962,105.276,60.207,112.858,58.854,114.524Z"/><path class="a" d="M110.5,140.772h-18c0,1.433.029,6.348.029,8.075,3,0,15.706.032,17.966.032C110.5,146.491,110.479,141.057,110.5,140.772Z"/><path class="b" d="M57.352,88.042c-.048,2.211-.208,4.424-.47,6.62a1.993,1.993,0,0,0,.586,1.414,2,2,0,0,0,2.828,0,2.322,2.322,0,0,0,.586-1.414c.262-2.2.422-4.409.47-6.62a2.018,2.018,0,0,0-2-2,2.039,2.039,0,0,0-2,2Z"/><path class="b" d="M88.127,88.3a58.375,58.375,0,0,0,.428,6.026,2.188,2.188,0,0,0,.585,1.415,2,2,0,0,0,2.829,0,1.93,1.93,0,0,0,.586-1.415,58.375,58.375,0,0,1-.428-6.026,2,2,0,0,0-4,0Z"/><path class="b" d="M9.32,181.93c-.283,15.235-.524,30.477-.549,45.715,0,2.094-.1,4.232.076,6.322.219,2.545,4.221,2.569,4,0-.145-1.7-.076-3.436-.077-5.14,0-3.414.025-6.828.055-10.241q.111-12.749.312-25.494.084-5.582.183-11.162c.048-2.575-3.952-2.575-4,0Z"/><path class="b" d="M24.841,183.266c-.427,14.335-1.667,28.751-3.391,42.986a62.807,62.807,0,0,1-1.085,7.027c-.583,2.5,3.273,3.573,3.857,1.063,1.266-5.438,1.616-11.181,2.161-16.723q1.15-11.7,1.905-23.436c.234-3.636.445-7.275.553-10.917.077-2.575-3.923-2.573-4,0Z"/><path class="b" d="M18.441,240.528a145.51,145.51,0,0,1,1.124,17.715q0,1.1-.013,2.189a6.046,6.046,0,0,1-.048,1.96c-.015.023.066.058-.127-.049a7.683,7.683,0,0,1-1.771-2.188,21.611,21.611,0,0,0-2.127-2.859,2.019,2.019,0,0,0-3.343.883,49.866,49.866,0,0,0-1.54,11.438,31.274,31.274,0,0,0,.174,4.69c.112,1.119.325,2.255.332,3.38a11.986,11.986,0,0,0-.167,1.231c-.118-.688.681-.251.217-.223-.234.014-.5.221-.759.258-2.128.3-3.93-1.865-4.776-3.543a17.461,17.461,0,0,1-1.6-7.4c-.1-5.384,1.762-10.59,3.6-15.575,2.117-5.754,4.328-11.419,5.132-17.536a2.01,2.01,0,0,0-2-2,2.051,2.051,0,0,0-2,2c-1.562,11.89-9.851,22.618-8.621,34.932.512,5.119,2.731,11.953,8.615,13.006,2.545.456,5.459-.4,6.135-3.145.59-2.393-.129-4.955-.268-7.374a39.8,39.8,0,0,1,.207-5.554,36.706,36.706,0,0,1,1.181-7.518l-3.343.883c1.733,1.8,2.712,4.774,5.093,5.876a4.1,4.1,0,0,0,5.755-3.478,85.358,85.358,0,0,0-.094-10.847q-.264-5.592-.964-11.148a2.063,2.063,0,0,0-2-2,2.012,2.012,0,0,0-2,2Z"/><path class="b" d="M28.66,234.835c1.45,15.238,2.307,30.537,3.235,45.813.914,15.047,1.935,30.094,2.574,45.156.552,13.006.91,26.02,1.229,39.034q.467,19.041.817,38.085c.15,7.548.213,15.106.516,22.65.014.341.029.682.049,1.022a2.074,2.074,0,0,0,1.468,1.928,28.762,28.762,0,0,0,6.56,1.007c3.1.241,6.206.307,9.31.289a115.956,115.956,0,0,0,20.75-1.721c2.527-.476,1.457-4.332-1.063-3.857a110,110,0,0,1-19.687,1.578c-3.012.017-6.028-.045-9.032-.268a22.916,22.916,0,0,1-5.774-.885L41.08,426.6c-.389-6.554-.356-13.152-.486-19.715q-.368-18.477-.774-36.953c-.31-13.237-.658-26.474-1.172-39.705-.554-14.276-1.49-28.533-2.345-42.793-.964-16.1-1.878-32.211-3.254-48.282q-.184-2.157-.389-4.312a2.056,2.056,0,0,0-2-2,2.015,2.015,0,0,0-2,2Z"/><path class="b" d="M117.488,234.169c-1.442,15.164-2.062,30.414-2.851,45.622-.783,15.106-1.765,30.207-2.416,45.319-.563,13.073-.924,26.154-1.247,39.234q-.471,19.156-.824,38.316c-.151,7.635-.214,15.281-.521,22.913-.014.341-.028.682-.049,1.022l1.469-1.929a12.836,12.836,0,0,1-1.908.429c-.632.1-1.358.179-2.307.261-2.357.2-4.725.282-7.09.316a164.85,164.85,0,0,1-16.543-.561,64.638,64.638,0,0,1-7.407-.986c-2.513-.514-3.588,3.341-1.064,3.857a96.5,96.5,0,0,0,15.389,1.557,138.3,138.3,0,0,0,16.109-.134,25.661,25.661,0,0,0,5.884-.882,2.073,2.073,0,0,0,1.468-1.928c.394-6.637.359-13.317.491-19.962q.37-18.6.781-37.2c.313-13.315.665-26.631,1.189-39.94.564-14.341,1.5-28.665,2.248-43,.834-16.034,1.518-32.092,2.826-48.1q.173-2.118.373-4.233a2.015,2.015,0,0,0-2-2,2.043,2.043,0,0,0-2,2Z"/><path class="b" d="M73.478,265.476c-.443,4.852-.392,9.769-.431,14.636-.06,7.289-.032,14.579.009,21.868.06,10.325.178,20.65.163,30.976q-.024,16.989-.066,33.979-.035,19.2-.038,38.407,0,6.947.033,13.892c.012,2.194-.077,4.426.089,6.616a2.305,2.305,0,0,0,1.016,1.93,2.01,2.01,0,0,0,2.736-.717,2.051,2.051,0,0,0-.717-2.736l0,0,.717.718c.179.332.251,1.395.238.561,0-.35-.02-.7-.027-1.052-.023-1.233-.031-2.467-.04-3.7-.03-4.27-.036-8.539-.041-12.808q-.02-18.747.03-37.493.03-17.518.068-35.038c.016-9.555-.061-19.108-.128-28.662-.089-12.965-.414-26,.23-38.956.04-.807.088-1.614.161-2.419a2.014,2.014,0,0,0-2-2,2.043,2.043,0,0,0-2,2Z"/><path class="b" d="M30.66,236.552q16.922,0,33.842.022l39.527.035q7.142,0,14.282.008c2.574,0,2.579-4,0-4q-15.263,0-30.525-.022-20.226-.018-40.452-.035-8.337-.006-16.674-.008c-2.574,0-2.578,4,0,4Z"/><path class="b" d="M53,99.261q-7.848,3.3-15.431,7.158-3.552,1.815-7.057,3.715c-2.416,1.3-5.109,2.408-7.3,4.074a2.065,2.065,0,0,0-.718,2.736,2.013,2.013,0,0,0,2.737.717,51.629,51.629,0,0,1,6.909-3.864c2.343-1.265,4.7-2.514,7.065-3.729,4.866-2.5,9.813-4.832,14.855-6.95a2.067,2.067,0,0,0,1.4-2.46,2.012,2.012,0,0,0-2.46-1.4Z"/><path class="b" d="M96.043,102.816c5.115,2.126,10.135,4.473,15.07,6.99,2.352,1.2,4.687,2.435,7.012,3.686,2.377,1.28,5.064,2.346,7.217,3.979a2.011,2.011,0,0,0,2.736-.717,2.05,2.05,0,0,0-.718-2.737c-2.154-1.635-4.838-2.7-7.216-3.979-2.45-1.318-4.91-2.618-7.39-3.878q-7.684-3.9-15.648-7.2a2.013,2.013,0,0,0-2.46,1.4,2.052,2.052,0,0,0,1.4,2.461Z"/><path class="b" d="M125.844,117.639a6.222,6.222,0,0,1,2.752,2.56,24.029,24.029,0,0,1,2.14,4.651c1.086,3.128,1.757,6.418,2.533,9.633q.727,3.015,1.44,6.033c.548,2.314.9,4.821,1.666,7.069.809,2.369,1.963,4.893,2.6,7.478.617,2.5,4.475,1.44,3.857-1.063-.346-1.4-.83-2.776-1.307-4.137a31.259,31.259,0,0,1-1.52-4.3c-.841-4.468-2.093-8.9-3.166-13.322a73.226,73.226,0,0,0-2.759-9.83,24.393,24.393,0,0,0-2.632-5.145,10.5,10.5,0,0,0-3.586-3.078c-2.239-1.277-4.257,2.177-2.019,3.454Z"/><path class="b" d="M23.243,114.185a12.284,12.284,0,0,0-2.631,1.84,15.221,15.221,0,0,0-2.628,4.159,38.032,38.032,0,0,0-2.5,7.167c-1.149,4.623-2.187,9.275-3.256,13.918Q9.309,153.945,6.4,166.624c-.585,2.541-1.174,5.082-1.817,7.608-.574,2.257-2.438,6.814.394,8.239,2.294,1.154,4.322-2.3,2.019-3.454.89.448.342.942.517.285.069-.26.079-.612.134-.879.116-.555.261-1.1.407-1.65.24-.9.468-1.792.69-2.691.55-2.231,1.071-4.47,1.585-6.71.993-4.322,1.944-8.654,2.934-12.977,1.849-8.072,3.709-16.146,5.641-24.2a50.539,50.539,0,0,1,1.841-6.376,21.114,21.114,0,0,1,2.159-4.241,6.008,6.008,0,0,1,2.356-1.94c2.236-1.275.223-4.733-2.019-3.454Z"/><path class="b" d="M116.557,173.223a45.862,45.862,0,0,0,4.109,10.667,28.9,28.9,0,0,0,6.955,8.841,2.047,2.047,0,0,0,2.828,0,2.018,2.018,0,0,0,0-2.828,25.975,25.975,0,0,1-6.329-8.032,41.514,41.514,0,0,1-3.7-9.711,2,2,0,0,0-3.858,1.063Z"/><path class="b" d="M128.671,176.145q.5-.679,1-1.358.24-.321.481-.64c.08-.107.16-.213.241-.319.039-.05.371-.479.076-.1.665-.855,1.348-1.7,2.072-2.5a26.8,26.8,0,0,1,2.3-2.281c.2-.175.4-.346.611-.512,0,0,.4-.309.176-.141s.142-.1.184-.135c.485-.355.986-.685,1.5-1a2,2,0,1,0-2.019-3.454c-4.249,2.566-7.182,6.494-10.084,10.419a2.006,2.006,0,0,0,.717,2.737,2.059,2.059,0,0,0,2.737-.718Z"/><path class="b" d="M162.442,141.7c-1.865,9.747-2.829,19.653-4.31,29.461a91.485,91.485,0,0,1-2.336,11.593c-1.289,4.5-2.3,9.293-5.889,12.594-1.926,1.773-4.707,3.575-7.393,3.685-2.739.112-5.5-1.7-7.041-3.885-3.222-4.571-1.348-10.227.29-15.031,1.189-3.487,2.861-6.79,4.256-10.2,1.592-3.891,3.1-7.816,4.609-11.741,1.848-4.817,3.672-9.643,5.525-14.458.777-2.017,1.557-4.032,2.358-6.04.638-1.6,1.081-2.7,1.638-3.953a2.062,2.062,0,0,0-.717-2.736,2.015,2.015,0,0,0-2.736.717c-3.357,7.526-6.082,15.356-9.023,23.05-1.641,4.293-3.284,8.586-5,12.848-1.388,3.441-3.017,6.615-4.359,10.3-2.027,5.57-3.923,11.822-1.289,17.5,2.661,5.743,9.45,9.195,15.48,6.727a19.777,19.777,0,0,0,11.277-12.064,79.521,79.521,0,0,0,3.4-12.834c2.042-11.439,2.941-23.06,5.125-34.474.482-2.516-3.373-3.593-3.857-1.064Z"/><path class="b" d="M154.149,133.725c.78-1.608,1.754-3.11,2.548-4.708a11.325,11.325,0,0,0,.968-4.939,15.469,15.469,0,0,1,3.143-8.358,63.947,63.947,0,0,1,7.779-8.652c.62-.6,1.24-1.211,1.875-1.8.371-.342.924-.984,1.478-.876,1.2.233.1,2.15-.3,2.937-1.685,3.31-4.715,5.68-6.15,9.146a2.012,2.012,0,0,0,1.4,2.46,2.05,2.05,0,0,0,2.46-1.4,18.755,18.755,0,0,1,2.973-4.193,21.589,21.589,0,0,0,3.159-4.837c.773-1.788,1.491-3.752.508-5.619a4.872,4.872,0,0,0-5.294-2.379c-2.057.535-3.631,2.454-5.091,3.882-1.7,1.66-3.353,3.368-4.919,5.156a29.91,29.91,0,0,0-6.183,9.786,13.537,13.537,0,0,0-.778,3.419c-.084,1.039,0,2.1-.148,3.136a6.955,6.955,0,0,1-1.024,2.384c-.638,1.135-1.287,2.259-1.854,3.431-1.118,2.307,2.33,4.338,3.453,2.019Z"/><path class="b" d="M167.45,119.461c4.151-.924,8.383-1.456,12.536-2.368a16.742,16.742,0,0,0,4.17-1.85c1.571-.826,3.166-1.632,4.762-2.41a19.36,19.36,0,0,1,2.509-1.046,3.877,3.877,0,0,1,2.184-.145,3.743,3.743,0,0,0,2.123-.351,5.834,5.834,0,0,1,2.193-.195c2.376.114,2.992,1.27,2.317,3.334a14.449,14.449,0,0,1-4.051,5.792,62.942,62.942,0,0,1-7.237,5.557,34.2,34.2,0,0,1-9.28,4.636c-3.641,1.088-7.592,1.876-10.975,3.665a13.073,13.073,0,0,0-6.259,7.617c-.8,2.455,3.066,3.506,3.857,1.064a8.54,8.54,0,0,1,3.261-4.46,20.631,20.631,0,0,1,6.181-2.574c2.37-.725,4.81-1.282,7.125-2.175a42.136,42.136,0,0,0,6.746-3.445,63.972,63.972,0,0,0,5.968-4.307,37.471,37.471,0,0,0,4.289-3.587c2.375-2.511,4.956-6.153,4.631-9.8-.459-5.134-7.131-6.686-11.1-4.424l1.01-.273a19.725,19.725,0,0,0-2.122-.23,9.827,9.827,0,0,0-2.524.648,40,40,0,0,0-4.626,2.137c-2.218,1.151-4.429,2.618-6.9,3.1-3.945.768-7.93,1.359-11.853,2.232-2.512.558-1.449,4.416,1.063,3.857Z"/><path class="b" d="M174.947,121.846c-.269.044-.54.082-.81.124-.317.05.307-.037-.013,0l-.457.057c-.521.065-1.042.124-1.563.186-1.215.146-2.434.3-3.634.542a13.581,13.581,0,0,0-6.347,3.022,2.011,2.011,0,0,0,0,2.828,2.048,2.048,0,0,0,2.828,0c.095-.083.189-.165.285-.245.112-.094.2-.145.035-.027.225-.157.451-.31.686-.451.206-.123.418-.238.633-.346.106-.054.218-.1.324-.156.27-.144-.269.1.017-.01a17.177,17.177,0,0,1,2.962-.828c.483-.091.969-.163,1.455-.235.321-.048-.3.036.02,0l.368-.047q.414-.051.829-.1c1.15-.136,2.3-.272,3.446-.459a2.007,2.007,0,0,0,1.4-2.46,2.058,2.058,0,0,0-2.46-1.4Z"/><path class="b" d="M191.586,110.5q-.538.548-1.123,1.043c-.194.164-.391.323-.591.48.224-.176.054-.043-.077.054-.094.069-.188.138-.283.206a30.611,30.611,0,0,1-2.893,1.828q-1.443.809-2.952,1.491c-.233.106-.469.207-.7.311s.3-.119-.059.024l-.3.122q-.714.286-1.442.538a2,2,0,1,0,1.064,3.857c4.37-1.517,8.916-3.791,12.189-7.126a2,2,0,0,0-2.828-2.828Z"/><path class="b" d="M195.335,113.27a8.177,8.177,0,0,1-1.041,1.031c-.126.108-.258.21-.385.317-.348.3.364-.268-.014.012-.266.2-.531.391-.8.58-1.21.844-2.473,1.612-3.752,2.346q-1.845,1.059-3.748,2.017c-.5.251-1,.5-1.509.732-.186.086-.374.168-.561.253-.378.173.451-.176.152-.063-.081.031-.161.065-.241.1a2.047,2.047,0,0,0-1.4,2.461,2.021,2.021,0,0,0,2.46,1.4,49.98,49.98,0,0,0,6.863-3.438c1.321-.758,2.626-1.552,3.871-2.43a14.435,14.435,0,0,0,2.932-2.482,2.046,2.046,0,0,0,0-2.828,2.023,2.023,0,0,0-2.828,0Z"/><path class="b" d="M4.979,182.471a17.428,17.428,0,0,0,4.89,1c2.611.337,5.233.589,7.855.823,4.493.4,9.046.891,13.562.907,2.575.009,2.578-3.991,0-4-4.327-.015-8.688-.479-12.994-.857-2.555-.223-5.108-.466-7.654-.776-.637-.078-.842-.1-1.247-.162s-.807-.118-1.209-.187c-.311-.054-.625-.109-.933-.181-.237-.056-1.031-.364-.251-.017a2.062,2.062,0,0,0-2.736.718,2.015,2.015,0,0,0,.717,2.736Z"/><path class="b" d="M7.478,173.635c6.594.651,13.216,1.532,19.842,1.752,2.574.085,2.571-3.915,0-4-6.626-.22-13.248-1.1-19.842-1.752a2.014,2.014,0,0,0-2,2,2.044,2.044,0,0,0,2,2Z"/><path class="b" d="M91.946,115.534c1.594-3.438,2.989-6.99,4.329-10.532.326-.861.645-1.725.942-2.6a5.788,5.788,0,0,0,.541-2.436,6.879,6.879,0,0,0-1.1-2.3q-.561-.942-1.2-1.836a25.122,25.122,0,0,0-3.241-3.757,2.034,2.034,0,0,0-2.828,0,47.337,47.337,0,0,1-9.361,7.278q-1.236.737-2.515,1.4c-.806.417-1.717.734-2.476,1.229a2.867,2.867,0,0,0-.452,4.395,23.339,23.339,0,0,0,3.847,2.555c2.016,1.273,4.036,2.541,6.031,3.848.985.645,1.966,1.3,2.924,1.981.212.152.421.308.631.462.248.181-.263-.238.165.131a5.514,5.514,0,0,1,.622.581,2.015,2.015,0,0,0,2.828,0,2.041,2.041,0,0,0,0-2.828,15.372,15.372,0,0,0-3.1-2.413c-1.541-1.059-3.116-2.07-4.693-3.075-1.518-.967-3.044-1.922-4.564-2.887-.525-.334-1.051-.667-1.57-1.011-.172-.115-.34-.25-.519-.355-.158-.092-.284-.325.231.182-.237-.233.355.43.347.532l-.273,1.01q-.447.371.005.107.235-.106.47-.216.472-.222.941-.455,1.036-.516,2.045-1.082,2-1.124,3.89-2.425a51.676,51.676,0,0,0,7.379-6.115H89.389a23.57,23.57,0,0,1,4.678,6.338l-.2-1.541a60.983,60.983,0,0,1-2.607,7.214c-.956,2.4-1.73,4.363-2.766,6.6a2.058,2.058,0,0,0,.717,2.736A2.017,2.017,0,0,0,91.946,115.534Z"/><path class="b" d="M60.581,113.515c-1.033-2.229-1.811-4.2-2.766-6.6A60.983,60.983,0,0,1,55.208,99.7l-.2,1.541a23.549,23.549,0,0,1,4.678-6.338H56.856a51.676,51.676,0,0,0,7.379,6.115q1.889,1.3,3.89,2.425.933.522,1.888,1,.468.236.942.459c.208.1.416.2.626.29q.451.263,0-.107l-.273-1.01c-.008-.1.581-.77.347-.532.04-.04.52-.35.231-.182-.164.1-.316.219-.474.325-.533.355-1.075.7-1.616,1.041-1.519.965-3.045,1.92-4.563,2.887-1.577,1-3.152,2.016-4.694,3.075a15.366,15.366,0,0,0-3.1,2.413,2.053,2.053,0,0,0,0,2.828,2.015,2.015,0,0,0,2.828,0,4.381,4.381,0,0,1,.491-.472c.121-.1.248-.2.372-.3-.392.314.09-.062.228-.163.8-.585,1.622-1.14,2.447-1.688,2-1.328,4.03-2.608,6.059-3.889,1.361-.858,2.766-1.677,4.071-2.62a2.939,2.939,0,0,0,1.1-3.73,3.651,3.651,0,0,0-1.91-1.544q-1.358-.636-2.672-1.362a47.626,47.626,0,0,1-10.774-8.089,2.037,2.037,0,0,0-2.828,0,25.122,25.122,0,0,0-3.241,3.757A13.928,13.928,0,0,0,51.351,99.7a5.026,5.026,0,0,0,.505,2.7c.3.871.616,1.735.942,2.6,1.34,3.542,2.735,7.094,4.329,10.532a2.016,2.016,0,0,0,2.737.717A2.046,2.046,0,0,0,60.581,113.515Z"/><path class="b" d="M122.1,114.414c-.784,7.111-1.383,14.244-2.1,21.362-.971,9.587-2.138,19.138-3.4,28.69-.58,4.379-1.206,8.761-1.615,13.16a75.852,75.852,0,0,0-.122,8.649c.167,7.618.467,15.243,1.256,22.822,1.013,9.732,2.12,19.471,2.791,29.234.175,2.554,4.177,2.573,4,0-.566-8.241-1.472-16.462-2.319-24.677-.839-8.143-1.4-16.236-1.65-24.422-.1-3.261-.239-6.549-.089-9.812.172-3.724.766-7.45,1.246-11.143,1.255-9.642,2.537-19.272,3.541-28.944.861-8.3,1.553-16.624,2.468-24.919a2.012,2.012,0,0,0-2-2,2.046,2.046,0,0,0-2,2Z"/><path class="b" d="M23.731,115.108c2.2,18.319,4.6,36.618,6.626,54.957.392,3.548.892,7.13.979,10.7.094,3.842-.063,7.7-.206,11.536-.256,6.877-.756,13.684-1.494,20.522-.83,7.69-1.941,15.415-2.395,23.138-.151,2.572,3.849,2.563,4,0,.4-6.762,1.358-13.525,2.084-20.257C34.048,209,34.7,202.347,35,195.607c.188-4.251.348-8.507.358-12.762a87.284,87.284,0,0,0-.624-9.322c-1.064-10.16-2.36-20.293-3.6-30.431q-1.715-13.991-3.4-27.984a2.062,2.062,0,0,0-2-2,2.012,2.012,0,0,0-2,2Z"/><path class="b" d="M110.5,138.772h-18a2.03,2.03,0,0,0-2,2c0,2.692.028,5.383.029,8.075a2.03,2.03,0,0,0,2,2c5.989,0,11.977.031,17.966.032a2.03,2.03,0,0,0,2-2c0-2.692-.142-5.419,0-8.107a2,2,0,0,0-4,0c-.142,2.688,0,5.415,0,8.107l2-2c-5.989,0-11.977-.032-17.966-.032l2,2c0-2.692-.027-5.383-.029-8.075l-2,2h18C113.075,142.772,113.079,138.772,110.5,138.772Z"/><path class="b" d="M72.562,105.007v15.227q0,15.221,0,30.442,0,17.8,0,35.6,0,15.563,0,31.124v17.147c0,2.573,4,2.578,4,0V220.441q0-14.933,0-29.865,0-17.784,0-35.568,0-15.816,0-31.633V105.007c0-2.574-4-2.578-4,0Z"/><path class="b" d="M69.017,76.461a12.712,12.712,0,0,0,6.121,1.426A10.06,10.06,0,0,0,81.407,76a2,2,0,0,0,0-2.829,2.062,2.062,0,0,0-2.828,0c.686-.534-.064.014-.284.129-.17.089-.635.23-.021.029-.168.055-.332.128-.5.183-.214.068-.431.127-.649.178-.151.035-.653.043-.755.142.108-.106.363-.042-.008,0-.138.014-.276.025-.414.034q-.5.032-1,.028c-.3,0-.6-.012-.894-.032-.136-.01-.273-.021-.409-.034-.078-.008-.156-.016-.233-.026q-.234-.029.161.021a2.172,2.172,0,0,1-.672-.125c-.215-.048-.429-.1-.64-.166-.184-.055-.363-.121-.544-.183-.462-.158.4.2-.015,0q-.338-.159-.667-.333a2,2,0,0,0-2.019,3.454Z"/><path class="b" d="M73.906,62.321a27.715,27.715,0,0,1,.65,2.972l-.072-.531a1.757,1.757,0,0,1,.011.41l.072-.532a1.062,1.062,0,0,1-.045.185l.2-.478a.762.762,0,0,1-.065.119l.313-.4a.677.677,0,0,1-.1.1l.405-.313a2.129,2.129,0,0,1-.236.125l.478-.2a1.722,1.722,0,0,1-.4.116l.532-.072a1.6,1.6,0,0,1-.373,0l.532.071c-.14-.02-.278-.054-.419-.073a1.511,1.511,0,0,0-.8-.035,1.492,1.492,0,0,0-.744.237,2,2,0,0,0-.717,2.736,1.91,1.91,0,0,0,1.195.919c.362.049.713.14,1.082.156a3.524,3.524,0,0,0,1.647-.4A2.482,2.482,0,0,0,78.407,65.8a3.878,3.878,0,0,0-.015-1.7c-.161-.958-.383-1.907-.629-2.846a2.061,2.061,0,0,0-.919-1.2,2,2,0,0,0-2.736.717,2.1,2.1,0,0,0-.2,1.541Z"/><path class="b" d="M58.649,53.777c-.5,1.613-.172,5.324,2.883,5.64,4.039-.024,4.254-4.51,2.894-6.62C63.313,51.07,60.04,50.352,58.649,53.777Z"/><path class="b" d="M90.992,53.778c.5,1.613.173,5.323-2.883,5.639-4.039-.025-4.254-4.511-2.894-6.62C86.328,51.07,89.6,50.352,90.992,53.778Z"/></svg>