<?xml version="1.0" encoding="utf-8"?>
<!-- Uploaded to: SVG Repo, www.svgrepo.com, Generator: SVG Repo Mixer Tools -->
<svg width="800px" height="800px" viewBox="-135.95 0 443.914 443.914" xmlns="http://www.w3.org/2000/svg"><defs><style>.a{fill:#ffffff;}.b{fill:#211715;}.c{fill:#645d5c;}.d{fill:#f2635f;}.e{fill:#cfcfcf;}</style></defs><path class="a" d="M85.771,316.519c2.428,19.3-1.573,38.742-3.973,58.047-1.636,13.157-1.915,28.212,7.389,37.657,1.994,1.989,2.734,6.529,1.307,8.789-2.164,3.428-7.036,1.59-10.542-.008-4.229-1.928-8.277-4.262-12.519-6.158-2.677-1.2-4.323-2.607-7.384-2.105-2.486.407-4.094,1.934-6.172,3.443-4.2,3.049-8.676,5.929-14.05,5.717-3.914-.154-9.309-4.466-6.4-8.7,1.11-1.614,3.007-2.487,4.2-4.209a27.634,27.634,0,0,0,3.2-6.23c3.294-8.928,2.661-18.929,1.508-28.2-2.4-19.3-6.4-38.746-3.973-58.047"/><path class="b" d="M36.373,316.519c-1.739,14.142-.1,28.354,1.835,42.385.907,6.581,1.967,13.156,2.591,19.772a66.924,66.924,0,0,1-.107,16.5c-.9,5.8-3.007,11.365-7.149,15.634-1.794,1.849,1.032,4.68,2.828,2.829,8.1-8.345,9.381-20.459,8.7-31.545-.407-6.585-1.444-13.128-2.361-19.656-.993-7.067-1.98-14.139-2.562-21.254a121.084,121.084,0,0,1,.228-24.664,2.01,2.01,0,0,0-2-2,2.05,2.05,0,0,0-2,2Z"/><path class="b" d="M59.926,316.139c-.005,25.282.083,50.568-.337,75.847q-.183,11.063-.52,22.122c-.08,2.575,3.92,2.572,4,0,.81-26.1.847-52.207.853-78.313q0-9.828,0-19.656c0-2.574-4-2.578-4,0Z"/><path class="b" d="M83.771,316.519c1.786,14.517.017,29.105-1.994,43.5-1.7,12.141-4.183,24.7-2.062,36.953a31.322,31.322,0,0,0,8.058,16.667c1.8,1.85,4.623-.98,2.828-2.829-7.659-7.893-8.213-19.688-7.433-30.049,1.023-13.577,3.868-26.96,4.908-40.546a119.352,119.352,0,0,0-.3-23.695,2.063,2.063,0,0,0-2-2,2.012,2.012,0,0,0-2,2Z"/><path class="c" d="M20.714,437.676c-.11-.144-.214-.292-.312-.446a8.358,8.358,0,0,1-.554-7.006,22.957,22.957,0,0,1,3.6-6.273q5.2-7.107,11-13.756c1.506-1.727,3.209-3.528,5.461-3.953-.363,1.357-.909,4.71.288,5.447s3.021.735,4.426.759c6.152.107,12.726-4.3,16.14-7.381.233-.21.667.084.67.418.031,3.963.364,5.677.344,10.056a10.1,10.1,0,0,1-.762,3.389c-.976,2.639-3.869,3.91-6.191,5.5-6.041,4.134-9.222,11.676-15.552,15.352a16.347,16.347,0,0,1-15.108.541A9.523,9.523,0,0,1,20.714,437.676Z"/><path class="c" d="M103.938,437.676c.11-.144.214-.292.312-.446a8.362,8.362,0,0,0,.553-7.006,22.954,22.954,0,0,0-3.595-6.273q-5.2-7.107-11-13.756c-1.506-1.727-3.208-3.528-5.461-3.953.364,1.357.978,4.97-.218,5.706s-3.168.709-4.573.734c-6.1.106-12.553-4.492-15.975-7.536-.265-.236-.755-.058-.759.247-.046,3.985-.517,5.4-.5,9.814a12.272,12.272,0,0,0,.916,3.723c.976,2.639,3.869,3.91,6.191,5.5,6.041,4.134,9.223,11.676,15.553,15.352a16.345,16.345,0,0,0,15.107.541A9.526,9.526,0,0,0,103.938,437.676Z"/><path class="b" d="M22.441,436.667c-1.631-2.229-1.232-5.047-.048-7.4a52.135,52.135,0,0,1,5.49-7.931q3.032-3.952,6.267-7.745c1.712-2.015,3.554-4.809,6.287-5.424l-2.46-2.46c-.52,2.025-1.029,4.857.2,6.725,1.58,2.392,5.881,2.2,8.37,1.905,5.866-.7,11.281-3.987,15.623-7.86l-.883.515.2-.071H60.43l.219.076-.883-.515.176.178-.515-.883a11.683,11.683,0,0,1,.084,2.59c.042.883.1,1.764.146,2.646.106,1.993.392,4.2-.159,6.137a6.715,6.715,0,0,1-3.267,4,40.119,40.119,0,0,0-4.695,3.313c-5.59,4.87-9.015,12.973-16.7,14.98-4.211,1.1-9.812.374-12.7-3.188a2.013,2.013,0,0,0-2.828,0,2.046,2.046,0,0,0,0,2.828c2.178,2.684,5.788,4.121,9.133,4.6a18.708,18.708,0,0,0,10.592-1.535c5.881-2.72,9.185-8.573,13.5-13.088a21.323,21.323,0,0,1,3.453-3.011c1.239-.836,2.544-1.564,3.734-2.472,3.06-2.334,4.107-5.654,4.057-9.413-.019-1.492-.1-2.98-.185-4.469-.087-1.531.152-3.4-.261-4.868a2.52,2.52,0,0,0-1.718-1.73,2.663,2.663,0,0,0-2.588.839,34.226,34.226,0,0,1-3.283,2.492c-3.042,2.016-6.623,3.851-10.342,4a18.447,18.447,0,0,1-2.67-.062,9.355,9.355,0,0,1-1.1-.217c-.777-.18.005-.208-.066.145.1-.512-.1-1.28-.039-1.861a11.87,11.87,0,0,1,.32-1.669,2.023,2.023,0,0,0-2.46-2.46c-3.455.777-5.719,3.712-7.9,6.271q-3.795,4.454-7.336,9.115c-3.858,5.058-9.873,12.535-5.153,18.986a2.059,2.059,0,0,0,2.736.717A2.015,2.015,0,0,0,22.441,436.667Z"/><path class="b" d="M105.665,438.686c4.721-6.452-1.3-13.928-5.153-18.986q-3.549-4.653-7.336-9.115c-2.179-2.558-4.443-5.494-7.9-6.271a2.022,2.022,0,0,0-2.46,2.46,10.132,10.132,0,0,1,.406,3.3,2.313,2.313,0,0,1-.08.511c-.143-.064.851-.387.083-.218a11.7,11.7,0,0,1-2.225.3,17.727,17.727,0,0,1-9.378-2.486,35.484,35.484,0,0,1-4.132-2.71c-1.061-.805-2.314-2.415-3.742-2.425-2.405-.016-2.493,2.177-2.574,3.971-.065,1.417-.215,2.828-.319,4.242-.243,3.335-.278,7,1.692,9.9,1.823,2.677,4.906,3.794,7.322,5.791,4.955,4.094,7.962,10.052,13.277,13.779a18.072,18.072,0,0,0,11.336,3.159c3.912-.239,8.318-1.65,10.868-4.792a2.059,2.059,0,0,0,0-2.828,2.015,2.015,0,0,0-2.829,0c-2.55,3.142-7.351,4.091-11.192,3.508-4-.606-7.119-2.909-9.79-5.828-2.61-2.85-4.811-6.066-7.618-8.736a29.358,29.358,0,0,0-4.739-3.566c-1.342-.841-2.928-1.735-3.615-3.241-1-2.192-.893-4.468-.735-6.811.06-.9.149-1.8.22-2.7.041-.5.077-1,.1-1.509a6.378,6.378,0,0,1,.075-1.654l-.92,1.2.2-.126-1.009.273.247-.025-1.009-.273a7.235,7.235,0,0,1,1.244.993q.872.705,1.775,1.373a36.108,36.108,0,0,0,3.673,2.4,23.13,23.13,0,0,0,8.992,3.081c2.4.243,6.606.412,8.1-1.911,1.253-1.944.686-4.9.148-6.992l-2.46,2.46c2.669.6,4.457,3.275,6.133,5.242q3.306,3.884,6.421,7.927a54.31,54.31,0,0,1,5.392,7.742c1.242,2.395,1.735,5.282.05,7.585a2.014,2.014,0,0,0,.717,2.736A2.046,2.046,0,0,0,105.665,438.686Z"/><path class="d" d="M27.3,184.2c-.123,2.3-1.071,12.116-.851,15.259-5.485,31.082-3.617,113.7-3.407,116.589,15.529,2.67,70.048,2.078,79.234-.072.152-2.049,0-85.287-5.482-116.369-.444-4.222-.592-12.444-.986-15.15Z"/><path class="a" d="M17.455,163.971c-5.913-.44-13.893-1.222-15.017-1.758-.747-.224-.329-2.2.075-3.68,1.343-4.917,4.135-17.882,4.854-20.817,1.117-4.557,4.051-17.693,5.039-21.481a22.367,22.367,0,0,1,3.707-8,13.962,13.962,0,0,1,1.9-1.3,28.213,28.213,0,0,1,4.03-2.279c6.172-3.357,11.639-6.23,18.253-9.124a22.559,22.559,0,0,1,5.059-7.337,43.4,43.4,0,0,0,12.523,8.727c.259.118.548.262.632.534a1.007,1.007,0,0,1-.145.707h4.562a1,1,0,0,1-.145-.707c.084-.272.373-.416.632-.534a43.4,43.4,0,0,0,12.523-8.727,21.7,21.7,0,0,1,4.552,6.265,216.29,216.29,0,0,1,20.75,10.2,37.647,37.647,0,0,1,3.362,1.789l.9.49a13.9,13.9,0,0,1,1.9,1.3,22.367,22.367,0,0,1,3.707,8c.988,3.788,2.55,10.409,4.158,17.25a53.985,53.985,0,0,1,2.218,6.377l6.066,2.06-10.37,31.407-5.817-2.1a26.624,26.624,0,0,1-4.759-5.46c-1.089-1.926-3.6-7.225-4.236-10.422L23.442,164.3C22.471,164.3,20.183,164.174,17.455,163.971Z"/><path class="a" d="M80.07,97.13c-.277-.114-3.355-1.314-3.536-1.38C73.8,94.763,73.907,93,73.563,91.037a38.374,38.374,0,0,1-.608-6.6c7.22-2.951,13.054-12.7,14.064-15.441.15-.457.457-1.318.73-2.34l.571-.091a7.156,7.156,0,0,0,3.331-1.5A10.8,10.8,0,0,0,94.445,61.4a17.006,17.006,0,0,0,1.734-9.011,5.673,5.673,0,0,0-.594-2.282A4.014,4.014,0,0,0,92.7,48.185a4.247,4.247,0,0,0-3.4.995S86.326,27.022,59.911,27.022,32.273,49.18,32.273,49.18a4.247,4.247,0,0,0-3.4-.995A4.014,4.014,0,0,0,25.988,50.1a5.673,5.673,0,0,0-.594,2.282A17.006,17.006,0,0,0,27.128,61.4a10.8,10.8,0,0,0,2.794,3.667,7.156,7.156,0,0,0,3.331,1.5l1.086.167a28.911,28.911,0,0,0,5.509,10.755,24.822,24.822,0,0,0,8.377,6.735,38.356,38.356,0,0,1-.608,6.816c-.345,1.967-.237,3.726-2.972,4.713-.181.066-1.454.484-1.981.664,0,0,4.1,9.656,18.917,9.656S80.07,97.13,80.07,97.13Z"/><path class="b" d="M46.222,84.922q-.023,1.209-.122,2.414c-.03.365-.066.728-.107,1.092q-.03.273-.065.544c-.018.142-.018.146,0,.013L45.9,89.2c-.161,1.085-.283,2.214-.549,3.28-.025.1-.051.2-.081.294s-.192.362-.022.1a4.7,4.7,0,0,0-.24.4c-.031-.041.34-.361.035-.058-.079.079-.159.157-.24.235-.309.3.344-.185-.062.036-.118.064-.23.138-.35.2s-.347.157-.093.057c-.094.037-.185.07-.28.1-.166.058-.333.112-.5.167-.461.154-.922.306-1.382.462A2,2,0,0,0,43.2,98.342a20.641,20.641,0,0,0,3.286-1.231A5.523,5.523,0,0,0,49.105,93.9a21.508,21.508,0,0,0,.617-3.414,43.179,43.179,0,0,0,.5-5.561,2,2,0,0,0-4,0Z"/><path class="b" d="M79.3,94.683q-.9-.347-1.793-.693c-.14-.054-.28-.109-.421-.161-.265-.1-.216-.093-.06-.018-.152-.073-.3-.148-.448-.233-.088-.052-.171-.122-.262-.167.348.17.1.085-.036-.044-.079-.076-.146-.166-.225-.24-.167-.153.207.356.053.052-.046-.09-.1-.177-.15-.265-.19-.344.07.013.034.091.037-.079-.164-.541-.187-.644-.232-1.008-.35-2.061-.5-3.084-.063-.42-.055-.373-.1-.8-.042-.368-.079-.738-.11-1.107-.069-.817-.11-1.635-.13-2.454a2,2,0,0,0-4,0,43.533,43.533,0,0,0,.486,5.419,25.4,25.4,0,0,0,.6,3.44,5.552,5.552,0,0,0,2.452,3.21,22.922,22.922,0,0,0,3.745,1.55,2.009,2.009,0,0,0,2.46-1.4,2.055,2.055,0,0,0-1.4-2.46Z"/><path class="c" d="M27.1,70.5q.042-.864.139-1.642a14.862,14.862,0,0,1,1.5-4.962,8.387,8.387,0,0,0,1.179,1.166,7.156,7.156,0,0,0,3.331,1.5l1.086.167a28.9,28.9,0,0,0,5.509,10.755,25.263,25.263,0,0,0,7.809,6.458c-.986,2.863-5,5.5-9.892,6.249a17.675,17.675,0,0,1-11.542-2.019,3.816,3.816,0,0,1-1.274-1.114,1.159,1.159,0,0,1-.2-.558c0-.082.017-.4.116-.436,2.483-.838,3.161-3.4,3.04-6.008s-.789-5.291-.833-7.906C27.065,71.576,27.075,71.026,27.1,70.5Z"/><path class="b" d="M27,62.917A20.371,20.371,0,0,0,25.217,74.24c.224,2.053.67,4.1.7,6.173.017,1.159-.076,2.693-1.092,3.456-.622.467-1.343.554-1.762,1.3a2.873,2.873,0,0,0,.021,2.635c.789,1.546,2.5,2.4,4.029,3.057a20.483,20.483,0,0,0,11.611,1.193c3.857-.681,7.741-2.573,10.025-5.841,1.478-2.115-1.988-4.116-3.454-2.019-1.884,2.695-5.8,3.916-8.92,4.162a16.985,16.985,0,0,1-5.892-.528,12.717,12.717,0,0,1-2.345-.874c-.308-.156-.614-.32-.906-.5a3.093,3.093,0,0,1-.427-.287q-.516-.526-.213.916L25.4,88c4.291-1.637,4.817-5.971,4.316-10.024-.543-4.385-1.316-8.9.741-13.035,1.143-2.3-2.306-4.327-3.454-2.019Z"/><path class="b" d="M90.714,50.594A2.175,2.175,0,0,1,93.789,51a4.661,4.661,0,0,1,.445,2.376,14.233,14.233,0,0,1-.2,2.923c-.634,3.473-2.386,7.645-6.248,8.338a2.017,2.017,0,0,0-1.4,2.46,2.044,2.044,0,0,0,2.46,1.4c6.009-1.077,8.877-7.856,9.33-13.3.234-2.821-.014-6.013-2.451-7.836a6.283,6.283,0,0,0-7.845.41,2.015,2.015,0,0,0,0,2.829,2.043,2.043,0,0,0,2.828,0Z"/><path class="b" d="M86.276,63.4a15.911,15.911,0,0,1-.929,4.3c-.063.191-.49,1.311-.22.7q-.2.454-.422.9a36.457,36.457,0,0,1-3.141,5.049c-2.719,3.729-6.414,7.683-11.069,8.775-2.505.587-1.444,4.445,1.064,3.857,5.629-1.321,9.993-5.92,13.305-10.4,2.857-3.868,5.213-8.253,5.412-13.169.105-2.574-3.9-2.569-4,0Z"/><path class="b" d="M33.687,47.765a6.285,6.285,0,0,0-7.845-.41c-2.44,1.817-2.685,5.02-2.451,7.836.453,5.446,3.321,12.225,9.33,13.3a2.057,2.057,0,0,0,2.46-1.4,2.017,2.017,0,0,0-1.4-2.46c-3.863-.693-5.614-4.865-6.248-8.338a14.075,14.075,0,0,1-.2-2.758,5.466,5.466,0,0,1,.379-2.428,2.159,2.159,0,0,1,3.144-.518,2.055,2.055,0,0,0,2.828,0,2.016,2.016,0,0,0,0-2.829Z"/><path class="b" d="M31.5,63.184a33.155,33.155,0,0,0,7.068,15.869c3.983,4.715,9.256,8.109,15.463,8.779a2.014,2.014,0,0,0,2-2,2.045,2.045,0,0,0-2-2c-5.254-.567-9.636-3.95-12.894-7.92-3.223-3.926-4.916-8.847-5.78-13.791a2.016,2.016,0,0,0-2.46-1.4,2.046,2.046,0,0,0-1.4,2.46Z"/><path class="b" d="M25.3,184.2c-.267,4.742-.915,9.48-.883,14.236,0,.2,0,.4.011.595.038.5.062-.109.027.274-.041.453-.154.911-.225,1.361q-.221,1.391-.41,2.787-.441,3.222-.775,6.456C22,220.022,21.514,230.2,21.166,240.356c-.378,11.052-.539,22.111-.583,33.17q-.057,13.961.141,27.921c.067,4.722.037,9.472.3,14.189.008.137.011.273.021.41a2.041,2.041,0,0,0,1.468,1.928,116.578,116.578,0,0,0,13.324,1.268c6.057.325,12.125.47,18.19.541,12.214.141,24.458.037,36.655-.643A72.49,72.49,0,0,0,102.81,317.9a2.044,2.044,0,0,0,1.469-1.929c.257-3.738.032-7.566.006-11.308q-.088-12.9-.377-25.789c-.238-10.794-.57-21.586-1.059-32.372-.473-10.4-1.066-20.811-2.051-31.181-.407-4.28-.887-8.555-1.517-12.808-.326-2.2-.592-3.829-.73-6.013-.191-3.042-.291-6.09-.482-9.132-.073-1.155-.171-2.3-.329-3.447a2.012,2.012,0,0,0-2.46-1.4,2.054,2.054,0,0,0-1.4,2.46c-.053-.38.006.083.018.219.025.269.051.538.073.808.052.651.093,1.3.131,1.956.088,1.516.157,3.033.231,4.549a69.582,69.582,0,0,0,.647,8.277c.677,3.977,1.1,7.52,1.525,11.618,1.046,10.059,1.663,20.162,2.16,30.261.534,10.869.895,21.747,1.157,32.625q.325,13.479.441,26.96.037,4.428.046,8.855c0,1.5-.105,3.026-.022,4.519a2.971,2.971,0,0,1-.011.34l1.468-1.928c-.548.126-1.1.215-1.658.3-.145.023-.7.1-.11.018-.161.022-.322.043-.483.062q-.639.077-1.281.145c-2.022.211-4.052.356-6.082.481-5.43.334-10.87.507-16.308.623-12.553.267-25.134.253-37.678-.321-2.829-.13-5.657-.292-8.479-.53-1.185-.1-2.368-.212-3.548-.35-.236-.027-.472-.057-.708-.085-.589-.071.075.016-.39-.051-.482-.069-.964-.142-1.445-.224l1.468,1.929c-.277-3.957-.217-7.963-.281-11.927q-.213-13.335-.192-26.673c.015-10.985.142-21.971.463-32.951.3-10.427.75-20.863,1.69-31.255.375-4.14.8-8.01,1.429-11.908a61.628,61.628,0,0,0,.385-6.568c.147-2.681.367-5.358.578-8.035.067-.843.138-1.687.186-2.531.144-2.572-3.856-2.564-4,0Z"/><path class="b" d="M24.335,198.377q13.09,0,26.18.012l36.56.019,12.047.005c2.574,0,2.578-4,0-4q-13.533,0-27.068-.013l-36.312-.019q-5.7,0-11.407,0c-2.574,0-2.578,4,0,4Z"/><path class="b" d="M33.014,161.355c-1.142-7.665-2.672-15.256-4.115-22.868a145.151,145.151,0,0,1-2.682-19.7c-.128-2.562-4.129-2.577-4,0,.74,14.718,4.775,29.095,6.94,43.628a2.012,2.012,0,0,0,2.46,1.4,2.052,2.052,0,0,0,1.4-2.46Z"/><path class="b" d="M43.068,92.192q-6.874,2.859-13.516,6.222c-2.082,1.059-4.147,2.151-6.2,3.258a48.413,48.413,0,0,0-6.368,3.552,2.064,2.064,0,0,0-.717,2.736,2.013,2.013,0,0,0,2.736.718,45.845,45.845,0,0,1,5.985-3.346c2.06-1.111,4.128-2.208,6.212-3.273,4.235-2.164,8.543-4.183,12.935-6.01a2.067,2.067,0,0,0,1.4-2.46,2.012,2.012,0,0,0-2.46-1.4Z"/><path class="b" d="M79.147,96.049c4.326,1.8,8.573,3.786,12.747,5.914,2.019,1.029,4.022,2.089,6.017,3.163a47.443,47.443,0,0,1,6.148,3.39,2.013,2.013,0,0,0,2.736-.718,2.048,2.048,0,0,0-.717-2.736,48.777,48.777,0,0,0-6.339-3.492c-2.055-1.1-4.12-2.195-6.2-3.251Q86.992,95,80.21,92.192a2.011,2.011,0,0,0-2.46,1.4,2.05,2.05,0,0,0,1.4,2.46Z"/><path class="b" d="M104.487,108.659a4.821,4.821,0,0,1,2.147,1.927,20.165,20.165,0,0,1,1.963,4.261c.9,2.659,1.471,5.448,2.128,8.175q.648,2.686,1.282,5.376c.437,1.845.719,3.824,1.325,5.619.643,1.905,1.672,4.18,2.217,6.376.62,2.5,4.479,1.44,3.857-1.063-.583-2.348-1.677-4.562-2.329-6.853-1.094-3.841-1.836-7.813-2.779-11.7a60.885,60.885,0,0,0-2.438-8.594,20.24,20.24,0,0,0-2.4-4.542,9.128,9.128,0,0,0-2.95-2.441c-2.237-1.281-4.255,2.174-2.019,3.454Z"/><path class="b" d="M96.44,119.012c-1.058,11.047-3.373,21.926-5.231,32.855a2.059,2.059,0,0,0,1.4,2.46,2.016,2.016,0,0,0,2.46-1.4c1.919-11.283,4.282-22.512,5.374-33.918a2.015,2.015,0,0,0-2-2,2.043,2.043,0,0,0-2,2Z"/><path class="b" d="M17,105.205a10.687,10.687,0,0,0-4.43,4.89,31.619,31.619,0,0,0-2.3,6.412c-.972,3.9-1.845,7.817-2.746,11.73Q5,139.21,2.485,150.185c-.506,2.2-1.015,4.4-1.575,6.582-.535,2.088-2,5.821.519,7.173,2.267,1.218,4.289-2.234,2.018-3.454l.139.093.514.883c-.275-.654.2-1.846.393-2.585s.39-1.5.576-2.25c.454-1.841.884-3.688,1.309-5.536.859-3.734,1.681-7.475,2.535-11.21,1.577-6.885,3.165-13.773,4.811-20.642a44.6,44.6,0,0,1,1.5-5.271,18.218,18.218,0,0,1,1.854-3.7,4.743,4.743,0,0,1,1.942-1.609c2.233-1.279.221-4.737-2.019-3.454Z"/><path class="b" d="M96.433,155.878a39.474,39.474,0,0,0,3.533,9.166,24.871,24.871,0,0,0,5.976,7.6,2.048,2.048,0,0,0,2.829,0,2.019,2.019,0,0,0,0-2.828,21.244,21.244,0,0,1-5.351-6.789,34.1,34.1,0,0,1-3.13-8.21,2,2,0,1,0-3.857,1.063Z"/><path class="b" d="M107.3,158.44q.429-.579.858-1.158l.41-.546c.068-.091.137-.181.206-.271s.363-.449.018-.027c.585-.716,1.148-1.445,1.767-2.133a22.542,22.542,0,0,1,1.964-1.946c.171-.148.344-.294.521-.437.02-.015.37-.295.12-.1s.075-.053.127-.091c.414-.3.841-.584,1.279-.849a2,2,0,1,0-2.019-3.454c-3.669,2.216-6.2,5.6-8.7,8.99a2.011,2.011,0,0,0-.2,1.541,2,2,0,0,0,3.655.478Z"/><path class="a" d="M139.659,108.313c2.111-.476,9.559-1.759,10.918-2.068a16.4,16.4,0,0,0,3.389-1.593c2.289-1.075,4.845-2.707,7.326-3.2.676-.133,1.4.251,1.809.2,1.164-.75,3.571-.611,4.908-.247,4.779,2.207-.075,8.831-2.863,10.988-1.922,1.486-4.75,3.806-6.85,5.082a28.948,28.948,0,0,1-7.306,3.469,66.245,66.245,0,0,0-9.094,3.02c-1.6,1.111-3.432,2.216-4.409,5.409-1.848,9.585-3.594,27.986-5.4,34.084-1.78,6.01-2.431,10.636-7.981,14.116-3.023,1.9-5.776,2.732-9.064.991a10.174,10.174,0,0,1-5.254-11.162,46.862,46.862,0,0,1,3.379-10.475c2.966-6.113,11.365-29.492,14.131-35.666.8-1.694,1.933-3.405,2.387-4.476.588-1.385.193-3.72.608-5.156a18.787,18.787,0,0,1,4.171-7.643,82.22,82.22,0,0,1,7.01-7.334c1.119-1.06,2.246-1.776,3.645-.822,1.557,1.061.981,2.487.3,4.079-1.263,2.964-4.354,5.417-5.339,7.959"/><path class="b" d="M135.558,128.84c-1.6,8.374-2.425,16.883-3.7,25.308a76.514,76.514,0,0,1-1.955,9.667c-1.079,3.767-1.912,7.8-4.9,10.584-1.623,1.513-4.013,3.078-6.3,3.115a7.289,7.289,0,0,1-5.7-3.31c-2.659-3.938-.892-8.863.537-12.927,1-2.853,2.384-5.574,3.528-8.375,1.356-3.322,2.645-6.671,3.93-10.021,1.544-4.027,3.069-8.06,4.618-12.085q1-2.595,2.021-5.181c.27-.677.542-1.354.821-2.029l.141-.34a1.4,1.4,0,0,1,.066-.155q.175-.412.358-.822a2.063,2.063,0,0,0-.718-2.736,2.015,2.015,0,0,0-2.736.718c-2.883,6.468-5.228,13.2-7.755,19.808-1.389,3.632-2.779,7.265-4.235,10.871-1.16,2.875-2.553,5.6-3.692,8.713-1.78,4.873-3.385,10.281-1.082,15.244,2.317,4.994,8.27,7.98,13.506,5.854a17.093,17.093,0,0,0,9.723-10.19,64.522,64.522,0,0,0,2.951-10.935c1.792-9.854,2.547-19.873,4.427-29.712.481-2.516-3.373-3.593-3.857-1.064Z"/><path class="b" d="M129.026,122.269c.84-1.727,2.136-3.391,2.694-5.242.478-1.59.139-3.274.5-4.868.811-3.552,3.257-6.429,5.648-9.047,1.414-1.549,2.9-3.027,4.419-4.476.319-.3,1.237-1.349,1.561-1.241.507.169.177.606.046.983-1.183,3.407-4.35,5.64-5.74,8.957a2.011,2.011,0,0,0,1.4,2.46,2.051,2.051,0,0,0,2.46-1.4,17.317,17.317,0,0,1,2.659-3.7,18.6,18.6,0,0,0,2.721-4.363c.641-1.534,1.1-3.252.18-4.79a4.443,4.443,0,0,0-4.912-1.987c-1.719.492-3.022,2.059-4.258,3.265-1.424,1.389-2.812,2.817-4.128,4.31a26.222,26.222,0,0,0-5.481,8.611c-.664,1.89-.541,3.639-.8,5.58-.228,1.717-1.679,3.387-2.425,4.922-1.121,2.3,2.327,4.336,3.454,2.018Z"/><path class="b" d="M140.191,110.242c3.545-.787,7.165-1.223,10.706-2.022a15.5,15.5,0,0,0,3.693-1.649c1.379-.717,2.77-1.434,4.172-2.1a12.952,12.952,0,0,1,2.276-.892,4.99,4.99,0,0,1,1.783.064,4,4,0,0,0,1.583-.392,4.975,4.975,0,0,1,1.771-.123c1.952.114,2.149,1.1,1.524,2.733a12.576,12.576,0,0,1-3.446,4.686c-4.071,3.6-8.893,7.036-14.148,8.574-3.074.9-6.687,1.542-9.428,3.264a11.688,11.688,0,0,0-5.119,6.459c-.8,2.453,3.061,3.5,3.857,1.064,1.193-3.653,4.526-4.779,7.9-5.81,2.09-.637,4.239-1.13,6.273-1.937a36.554,36.554,0,0,0,5.716-2.956,58.108,58.108,0,0,0,5.2-3.784,28.415,28.415,0,0,0,3.7-3.158c2.1-2.319,4.329-5.63,3.719-8.926-.783-4.234-6.512-5.27-9.825-3.409l1.009-.273a15.276,15.276,0,0,0-1.809-.2,8.189,8.189,0,0,0-2.1.517,32.5,32.5,0,0,0-3.993,1.822c-1.919.991-3.833,2.274-5.966,2.69-3.361.655-6.757,1.159-10.1,1.9-2.512.557-1.449,4.414,1.064,3.857Z"/><path class="b" d="M146.427,111.708c-.23.037-.461.07-.691.106-.292.044.361-.045.067-.009l-.39.049c-.444.055-.888.106-1.332.159-1.062.127-2.128.257-3.177.472a11.871,11.871,0,0,0-5.542,2.652,2.012,2.012,0,0,0,0,2.829,2.048,2.048,0,0,0,2.828,0c.081-.071.162-.14.243-.209.17-.144.107-.063-.03.023.2-.125.384-.265.585-.384.176-.106.356-.2.539-.3.092-.045.187-.085.277-.132.25-.132-.321.119-.056.02a15.149,15.149,0,0,1,2.526-.706c.412-.077.826-.139,1.241-.2.294-.044-.358.044-.062.009l.314-.04.706-.085c1.008-.119,2.016-.238,3.017-.4a2.007,2.007,0,0,0,1.4-2.46,2.058,2.058,0,0,0-2.46-1.4Z"/><path class="b" d="M160.484,102.11q-.459.467-.958.89c-.044.037-.492.421-.5.409.007.007.346-.261-.006,0l-.241.176a26.449,26.449,0,0,1-2.467,1.558q-1.23.69-2.517,1.272c-.2.09-.4.177-.6.265-.233.1.369-.15.02-.009l-.257.1c-.406.163-.816.315-1.23.459a2,2,0,1,0,1.064,3.857,27.371,27.371,0,0,0,10.523-6.152,2,2,0,1,0-2.828-2.829Z"/><path class="b" d="M163.681,104.471a7.015,7.015,0,0,1-.887.879c-.108.092-.22.179-.329.27-.314.263.387-.286.048-.036-.227.167-.453.334-.684.495-1.032.719-2.109,1.374-3.2,2q-1.574.9-3.2,1.72c-.426.214-.854.424-1.287.624-.159.074-.319.144-.478.216-.348.159.481-.191.2-.083-.069.026-.137.055-.206.082a2.046,2.046,0,0,0-1.4,2.46,2.023,2.023,0,0,0,2.46,1.4,43.187,43.187,0,0,0,5.923-2.962c1.126-.646,2.239-1.323,3.3-2.072a12.6,12.6,0,0,0,2.56-2.162,2.047,2.047,0,0,0,0-2.828,2.021,2.021,0,0,0-2.828,0Z"/><path class="b" d="M3.708,156.445c5.781.569,11.593,1.3,17.4,1.494,2.574.085,2.571-3.915,0-4-5.809-.192-11.621-.925-17.4-1.494a2.014,2.014,0,0,0-2,2,2.043,2.043,0,0,0,2,2Z"/><path class="b" d="M58.843,97.4c0,9.342-.1,18.685-.162,28.027q-.129,19.8-.259,39.6c-.023,3.527-.058,7.054-.059,10.581,0,2.574,4,2.578,4,0,0-8.859.1-17.72.162-26.579q.132-20,.259-40.008c.024-3.873.058-7.747.059-11.62,0-2.574-4-2.578-4,0Z"/><path class="a" d="M88.915,125.947H75.2c0,1.166.022,5.57.022,6.975,2.289,0,11.969.025,13.691.025C88.915,131.005,88.9,126.18,88.915,125.947Z"/><path class="b" d="M88.915,123.947H75.2a2.029,2.029,0,0,0-2,2c0,2.325.021,4.65.022,6.975a2.03,2.03,0,0,0,2,2c4.564,0,9.128.025,13.691.025a2.028,2.028,0,0,0,2-2c0-2.325-.117-4.677,0-7a2,2,0,0,0-4,0c-.117,2.323,0,4.675,0,7l2-2c-4.563,0-9.127-.025-13.691-.025l2,2c0-2.325-.021-4.65-.022-6.975l-2,2H88.915a2,2,0,1,0,0-4Z"/><path class="a" d="M70.673,107.761c4.022-4,6.656-8.838,9.626-13.673a21.414,21.414,0,0,0-4.364-5.9,43.4,43.4,0,0,1-12.523,8.727c-.259.118-.548.262-.632.534a1,1,0,0,0,.145.707,40.4,40.4,0,0,0,2.59,3.345C67.277,103.661,69.49,106.3,70.673,107.761Z"/><path class="a" d="M50.615,107.761c-4.022-4-6.656-8.838-9.626-13.673a21.414,21.414,0,0,1,4.364-5.9,43.4,43.4,0,0,0,12.523,8.727c.259.118.548.262.632.534a1.007,1.007,0,0,1-.145.707,40.4,40.4,0,0,1-2.59,3.345C54.011,103.661,51.8,106.3,50.615,107.761Z"/><path class="b" d="M72.088,109.175a56.047,56.047,0,0,0,7.88-10.683c.567-.933,1.128-1.87,1.7-2.8a2.837,2.837,0,0,0,.6-1.868,5.014,5.014,0,0,0-.782-1.739,22.937,22.937,0,0,0-4.133-5.306,2.035,2.035,0,0,0-2.828,0,40.636,40.636,0,0,1-6.709,5.439c-1.183.766-2.4,1.478-3.653,2.125-1.225.632-2.894,1.078-3.307,2.58a3.513,3.513,0,0,0,.9,3.045c.819,1.087,1.683,2.141,2.545,3.194,1.647,2.011,3.321,4,4.961,6.015a2.014,2.014,0,0,0,2.829,0,2.047,2.047,0,0,0,0-2.829c-1.369-1.682-2.763-3.344-4.143-5.018-.777-.943-1.553-1.886-2.313-2.842-.212-.266-.416-.519-.615-.791a4.5,4.5,0,0,0-.271-.384c-.186-.205.066-.266.034.142l-.273,1.009q-.539.443-.086.184l.292-.134c.294-.138.587-.277.878-.421q.891-.441,1.761-.927,1.791-1,3.484-2.165a45.579,45.579,0,0,0,6.513-5.393H74.521A20.4,20.4,0,0,1,78.572,95.1V93.079c-2.829,4.616-5.463,9.4-9.313,13.267C67.441,108.173,70.269,111,72.088,109.175Z"/><path class="b" d="M52.029,106.346c-3.85-3.868-6.484-8.651-9.314-13.267V95.1a20.42,20.42,0,0,1,4.052-5.492H43.939A45.713,45.713,0,0,0,50.452,95q1.691,1.163,3.484,2.165.8.444,1.614.854.437.219.879.426.217.1.438.2.452.258-.086-.184l-.273-1.009c-.029-.367.234-.363.034-.142a3.263,3.263,0,0,0-.218.311c-.217.3-.435.572-.668.864-.761.956-1.537,1.9-2.313,2.842-1.38,1.674-2.774,3.336-4.143,5.018a2.061,2.061,0,0,0,0,2.829,2.015,2.015,0,0,0,2.829,0c1.607-1.975,3.246-3.923,4.86-5.892.873-1.065,1.744-2.132,2.578-3.228a3.593,3.593,0,0,0,.969-3.134c-.4-1.46-1.967-1.9-3.16-2.505q-1.88-.961-3.655-2.106a40.759,40.759,0,0,1-6.854-5.533,2.037,2.037,0,0,0-2.828,0,22.886,22.886,0,0,0-4.052,5.164,7.386,7.386,0,0,0-.827,1.616,2.629,2.629,0,0,0,.564,2.133c.568.932,1.129,1.869,1.7,2.8a56,56,0,0,0,7.88,10.683C51.018,111,53.847,108.174,52.029,106.346Z"/><path class="b" d="M60.167,197.781c1.071,2.054,1.851,4.255,2.825,6.355a2.01,2.01,0,0,0,1.2.919,2.043,2.043,0,0,0,1.541-.2,2.017,2.017,0,0,0,.919-1.2,2.273,2.273,0,0,0-.2-1.541c-.974-2.1-1.754-4.3-2.825-6.355a2.015,2.015,0,0,0-2.736-.717,2.045,2.045,0,0,0-.718,2.736Z"/><path class="b" d="M54.292,195.959c-.71,3.967-1.425,7.939-2.278,11.878a2,2,0,1,0,3.857,1.063c.853-3.939,1.568-7.91,2.278-11.877a2.048,2.048,0,0,0-1.4-2.461,2.026,2.026,0,0,0-2.46,1.4Z"/><path class="b" d="M27.264,186.2H95.811c2.574,0,2.579-4,0-4H27.264c-2.573,0-2.578,4,0,4Z"/><path class="e" d="M58.76,127.357c-20.813,0-35.2,16.12-35.2,34.983,0,21.836,13.616,35.639,35.2,35.639,22.088,0,35.2-13.8,35.2-35.639C93.962,143.348,79.5,127.357,58.76,127.357Z"/><path class="b" d="M58.76,125.357a37.822,37.822,0,0,0-23.151,7.737,36.517,36.517,0,0,0-12.617,18.848c-4.071,14.4.106,31.828,12.357,41.006,5.939,4.449,13.32,6.538,20.657,6.954,7.728.438,15.769-.814,22.624-4.538,13.3-7.224,18.861-23.188,17.039-37.675a37.264,37.264,0,0,0-9.788-21.035A36.308,36.308,0,0,0,65.352,125.9a43.073,43.073,0,0,0-6.592-.544c-2.574-.012-2.577,3.988,0,4a33.84,33.84,0,0,1,20.7,6.84,32.539,32.539,0,0,1,11.255,16.917c3.465,12.445.281,28.2-10.306,36.352-5.287,4.072-11.926,6.006-18.518,6.417-6.956.434-14.185-.506-20.411-3.79-12.229-6.452-17.192-20.659-15.683-33.888A32.334,32.334,0,0,1,53.042,129.79a36.128,36.128,0,0,1,5.718-.433C61.333,129.345,61.339,125.345,58.76,125.357Z"/><path class="b" d="M86.226,158.7a28.591,28.591,0,0,0-21.387-23.13c-10.361-2.317-20.718,1.876-27.555,9.777A26.423,26.423,0,0,0,30.45,162.5c-.01,2.575,3.99,2.578,4,0,.038-9.468,7.134-18.358,15.745-21.859a23.015,23.015,0,0,1,23.7,3.9,25.112,25.112,0,0,1,8.471,15.23,2.014,2.014,0,0,0,2.46,1.4,2.05,2.05,0,0,0,1.4-2.46Z"/><path class="a" d="M20.587,165.931c3.173,1.442,26.071,5.754,32.307,7.212,5.361,1.253,15.014.774,16.443.577h0c1.121-.31,2.219-.228,3.163-.875a10.808,10.808,0,0,0,2.437-2.577,11.611,11.611,0,0,1,5.387-4.222c1.906-.658,4.326-.611,6.352-.731,1.573-.092,5.344.07,5.769,2.158.64,3.139-3.337,3.242-5.188,3.908l-3.009,1.34c3.12,1.237,10.554,3.89,12.081,4.356,4.218,1.287,5.046,7.076-.266,6.9.05,1.165-.014,2.695-.935,3.42a11.989,11.989,0,0,0-2.664,2.466c-.387.562-.554,1.6-.954,2.2-.993,1.479-3.212,1.673-3.373,1.911-.655.969-2.084,3.7-3.7,3.832a12.392,12.392,0,0,1-3.884-.275c-2.8-.753-4.691-1.389-6.837-3.34a36.889,36.889,0,0,0-3.924-3.581,13.111,13.111,0,0,0-4.622-1.549c-1.19-.216-38.906-4.327-47.127-6.058-3.921-.825-6.815-1.069-11.024-2.778-3.382-1.372-5.193-6.6-4.069-11.579.37-1.641.809-3.354,1.256-5.062Z"/><path class="b" d="M69.869,175.648c1.775-.43,3.23-.612,4.662-1.873,1.246-1.1,2.061-2.575,3.234-3.743a8.294,8.294,0,0,1,3.783-2.262,22.974,22.974,0,0,1,4.582-.426,13.7,13.7,0,0,1,2.811.053,6.651,6.651,0,0,1,1.336.388c.164.067.345.338.2.09-.089-.148.164-.108.039.136-.154.3,0,.255.055.074-.079.272.024.061-.185.234a5.06,5.06,0,0,1-.891.388c-.911.29-1.861.438-2.766.745-2.424.823-1.383,4.688,1.064,3.857,2.47-.839,5.759-1.051,6.581-4.074a4.269,4.269,0,0,0-1.595-4.582,8.3,8.3,0,0,0-4.213-1.3,30.538,30.538,0,0,0-4.526.09,12.668,12.668,0,0,0-10.609,5.533,8.725,8.725,0,0,1-1.937,2.146,8.637,8.637,0,0,1-2.685.673c-2.5.606-1.442,4.464,1.064,3.857Z"/><path class="b" d="M82.3,174.057c3.825,1.662,7.814,3.005,11.754,4.365,1.341.462,2.845.787,3.484,1.967a2.641,2.641,0,0,1,.25.753.614.614,0,0,1-.037.317c-.176.287-.084.221-.305.325a3.485,3.485,0,0,1-1.379.194,2.022,2.022,0,0,0-2,2,3.131,3.131,0,0,1-.3,1.974c-.487.654-1.478,1.1-2.063,1.711a6.989,6.989,0,0,0-1.582,2.583,1.809,1.809,0,0,1-1.084,1.282c-1.208.547-2.057.576-2.848,1.776-.525.795-1.146,2.2-2.046,2.535a6.374,6.374,0,0,1-2.333-.08,16.838,16.838,0,0,1-2.588-.694,11.022,11.022,0,0,1-4.1-2.288,42.631,42.631,0,0,0-4.05-3.7,13.514,13.514,0,0,0-5.378-1.94,2.058,2.058,0,0,0-2.46,1.4,2.016,2.016,0,0,0,1.4,2.46,9.644,9.644,0,0,1,5.172,2.188,33.927,33.927,0,0,0,4.7,4.125,18.768,18.768,0,0,0,5.51,2.157c1.829.446,4.412.813,6.139-.146a9.683,9.683,0,0,0,3.361-3.789c.079-.128.16-.255.241-.382q-1.362.829-.636.57a3.546,3.546,0,0,0,.919-.3,6.834,6.834,0,0,0,2.458-1.438,7.949,7.949,0,0,0,1.48-2.664,5.757,5.757,0,0,1,1.842-1.94,5.927,5.927,0,0,0,2.24-5.392l-2,2c2.846.029,5.68-1.559,5.709-4.705.027-2.9-2.191-5.168-4.781-6.082-2.065-.728-4.144-1.415-6.2-2.159q-1.978-.714-3.95-1.452-.793-.3-1.584-.6c-.244-.095-.487-.193-.731-.289-.535-.21.018.014-.206-.084a2.066,2.066,0,0,0-2.737.718,2.014,2.014,0,0,0,.718,2.736Z"/><path class="b" d="M2.275,163.053c-1.1,4.207-2.36,8.439-1.073,12.762A10.885,10.885,0,0,0,3.8,180.407a12.193,12.193,0,0,0,5.238,2.664,95.978,95.978,0,0,0,14.846,2.911c10.6,1.532,21.25,2.74,31.889,3.973q3.217.374,6.437.745c.662.077,1.325.154,1.987.235.2.024.409.055.614.075.323.033-.631-.1-.17-.021a2.058,2.058,0,0,0,2.461-1.4,2.018,2.018,0,0,0-1.4-2.461c-2.421-.418-4.9-.595-7.343-.877q-7.269-.84-14.535-1.7c-9.2-1.105-18.176-2.158-27.265-3.874a57.943,57.943,0,0,1-6.261-1.4c-1.759-.537-3.416-1.015-4.417-2.655-2.378-3.9-.8-8.461.254-12.5.651-2.493-3.207-3.556-3.858-1.063Z"/><path class="b" d="M69.337,171.72a58.4,58.4,0,0,1-9.825.186,57.1,57.1,0,0,1-9.455-1.429c-7.031-1.483-14.088-2.846-21.1-4.413-1.617-.361-3.233-.73-4.837-1.144-.593-.152-1.186-.309-1.772-.487-.2-.062-.407-.124-.608-.193-.173-.06-.868-.356-.142-.036a2.063,2.063,0,0,0-2.736.718,2.015,2.015,0,0,0,.717,2.736,37.045,37.045,0,0,0,6.694,1.9c3.66.843,7.337,1.608,11.015,2.368,3.566.737,7.135,1.457,10.7,2.2A74.349,74.349,0,0,0,57.61,175.8a58.917,58.917,0,0,0,11.727-.076,2.066,2.066,0,0,0,2-2,2.011,2.011,0,0,0-2-2Z"/><path class="b" d="M1.429,163.94a15.447,15.447,0,0,0,4.323.9c2.131.279,4.271.493,6.412.69,3.736.343,7.522.76,11.278.773,2.574.009,2.577-3.991,0-4-3.6-.012-7.222-.407-10.8-.73-2.114-.191-4.227-.4-6.332-.662-.065-.008-.706-.091-.47-.059s-.357-.051-.415-.059c-.345-.051-.688-.1-1.031-.163-.267-.047-.534-.095-.8-.157-.238-.057-.937-.34-.149.012a2.062,2.062,0,0,0-2.736.717,2.016,2.016,0,0,0,.718,2.737Z"/><path class="c" d="M29.894,20.223A36.222,36.222,0,0,1,50.361,4.072C64.241.07,82.11.961,91.05,15.062c4.684,7.389,5.708,16.386,2.726,27.007a3.716,3.716,0,0,1-1,4.49c-1.735,1.3-5.32.249-7.11-.26-9.458-2.687-16.883-2.493-26.623-2.038a65.621,65.621,0,0,0-15.08,2.049c-2.184.624-12.93,4.335-13.127-.547l-.755-1.406c-8.485-.558-3.693-17.567-1.446-21.891Q29.227,21.322,29.894,20.223Z"/><path class="b" d="M30.079,42.357a2.644,2.644,0,0,1-1.847-1.008,6.858,6.858,0,0,1-.929-2.995,27.145,27.145,0,0,1,1.007-8.947c.34-1.333.738-2.653,1.208-3.946a16.818,16.818,0,0,1,1.5-3.192,36.715,36.715,0,0,1,8.964-10.562C46.593,6.4,55.179,4.2,63.548,4.016c7.743-.167,15.822,1.723,21.642,7.1A25.768,25.768,0,0,1,92.554,23.45a33.961,33.961,0,0,1-.392,16.916c-.626,2.5,3.23,3.563,3.857,1.064a39.614,39.614,0,0,0,.814-17.2,30.136,30.136,0,0,0-6.464-13.466C84.424,3.621,75.278.375,66.194.036,56.942-.309,47,1.8,39.363,7.2A37.416,37.416,0,0,0,24.642,27.626C23.019,33.57,21.049,45.6,30.079,46.357c2.565.214,2.551-3.787,0-4Z"/><path class="b" d="M31.635,45.536a53.2,53.2,0,0,1,9.839-5.38A48.954,48.954,0,0,1,55.671,37a121.654,121.654,0,0,1,15.709-.283A43.427,43.427,0,0,1,80.5,38.007c.651.175,1.3.371,1.933.593.292.1.58.212.869.321.126.048.251.1.376.151-.454-.185.037.017.1.046a29.523,29.523,0,0,1,2.8,1.457c2.219,1.315,4.234-2.141,2.018-3.454-4.748-2.814-10.078-3.882-15.532-4.3a114.868,114.868,0,0,0-15.243.037A57.141,57.141,0,0,0,41.66,35.829a56.045,56.045,0,0,0-12.044,6.253c-2.134,1.419-.133,4.885,2.019,3.454Z"/><path class="b" d="M28.834,45.763c.333,4.605,5.185,4.751,8.73,4.213,3.646-.553,7.091-1.94,10.709-2.628A106.714,106.714,0,0,1,67.814,45.99a67.357,67.357,0,0,1,18.1,2.458c2.6.709,6,1.436,8.272-.475,2.253-1.892,2.718-5.667.588-7.808-1.818-1.828-4.647,1-2.829,2.828a1.282,1.282,0,0,1,.022,1.436c-.382.766-1.076.777-1.863.75-2.246-.077-4.478-1.009-6.646-1.52A67.722,67.722,0,0,0,67.6,41.991a133.359,133.359,0,0,0-17.359,1.015A95.825,95.825,0,0,0,39.62,45.473a20.016,20.016,0,0,1-4.919.774c-.19,0-.379-.006-.569-.013-.07,0-.661-.077-.317-.02-.175-.029-.925-.265-.614-.124a1.675,1.675,0,0,1-.306-.164c-.19-.128-.187-.125.011.007l-.113-.118.116.144c-.092-.173-.108-.194-.05-.063.039.346-.062-.64-.025-.133-.185-2.552-4.186-2.572-4,0Z"/><path class="b" d="M71.88,19.9a25.276,25.276,0,0,1,3.256-.077c.6.025,1.2.078,1.792.141.377.039-.094-.018.135.017.127.019.254.038.38.059q.477.079.949.181c.564.122,1.123.269,1.673.446.273.088.541.188.81.285.563.2-.179-.086.135.051.143.063.286.129.427.2a11.349,11.349,0,0,1,1.447.833c-.011-.007.42.3.243.167s.232.195.224.188c.23.2.448.41.658.629a2,2,0,0,0,2.829-2.828C83.114,16.318,77,15.452,71.88,15.9a2.053,2.053,0,0,0-2,2,2.016,2.016,0,0,0,2,2Z"/><path class="b" d="M55.469,72.617a12,12,0,0,0,5.779,1.349,9.524,9.524,0,0,0,5.944-1.8,2,2,0,0,0,0-2.828,2.062,2.062,0,0,0-2.829,0c.692-.539-.019-.016-.237.1-.169.088-.62.229.012.014-.157.053-.309.119-.468.17-.423.136-.9.154-1.31.3.212-.074.328-.04.028-.01-.128.013-.257.024-.386.032-.31.02-.62.028-.931.026-.278,0-.556-.011-.833-.03-.128-.009-.255-.019-.382-.032-.073-.007-.145-.015-.218-.024q-.235-.028.186.025a5.054,5.054,0,0,1-1.224-.272c-.171-.051-.338-.113-.507-.171-.448-.153.423.2.017.012-.21-.1-.416-.2-.622-.311a2,2,0,0,0-2.019,3.454Z"/><path class="b" d="M59.969,59.345a25.757,25.757,0,0,1,.606,2.773l-.071-.532a1.693,1.693,0,0,1,.01.383l.072-.532a.859.859,0,0,1-.043.173l.2-.478a.707.707,0,0,1-.061.111L61,60.838a.59.59,0,0,1-.091.089l.405-.313a1.841,1.841,0,0,1-.219.117l.477-.2a1.637,1.637,0,0,1-.37.108l.532-.071a1.558,1.558,0,0,1-.348,0l.532.071c-.131-.018-.26-.05-.391-.067a2.244,2.244,0,0,0-1.541.2,2,2,0,0,0-.717,2.737l.313.4a1.992,1.992,0,0,0,.882.515c.35.047.689.134,1.045.15a3.436,3.436,0,0,0,1.6-.392,2.444,2.444,0,0,0,1.316-1.594,3.764,3.764,0,0,0-.014-1.653c-.151-.894-.357-1.779-.587-2.655a2,2,0,0,0-2.46-1.4,2.017,2.017,0,0,0-1.2.919,2.1,2.1,0,0,0-.2,1.541Z"/><path class="b" d="M45.864,51.338c-.463,1.505-.161,4.967,2.69,5.262,3.768-.023,3.968-4.208,2.7-6.176C50.215,48.812,47.162,48.142,45.864,51.338Z"/><path class="b" d="M76.039,51.338c.463,1.505.162,4.967-2.689,5.262-3.768-.023-3.969-4.209-2.7-6.176C71.688,48.812,74.742,48.142,76.039,51.338Z"/></svg>