<?xml version="1.0" encoding="utf-8"?>
<!-- Uploaded to: SVG Repo, www.svgrepo.com, Generator: SVG Repo Mixer Tools -->
<svg width="800px" height="800px" viewBox="0 -62.29 411.215 411.215" xmlns="http://www.w3.org/2000/svg"><defs><style>.a{fill:#ffffff;}.b{fill:#79c6e0;}.c{fill:#3f88c9;}.d{fill:#211715;}.e{fill:#7a7473;}.f{fill:#bdbdbd;}.g{fill:none;}.h{fill:#ad7b59;}.i{fill:#f4b467;}.j{fill:#645d5c;}</style></defs><path class="a" d="M69.557,284.624c0-2.335.121-10.335.121-12.363,0,0,0-.349-.006-.882,9.814.812,24.022.716,29.6-1.782,8.105-3.63,14.176-25.755,15.89-35l.163-1.17c2.908,15.685,8.485,34.1,15.833,36.787,6.253,2.284,22.234,2.3,32.482,1.364l0,.6c.031,3.574.076,8.27.108,12.438Z"/><path class="b" d="M199.976,73.7c-.048-3.047-2.858-5.608-5.63-6.38-4.552-1.266-10.4.87-12.344,5.026a.366.366,0,0,0,.233.5,32.514,32.514,0,0,1,9.5,4.761c3.155,2.182,7.954,1.727,8.232-3.458C199.975,74,199.978,73.85,199.976,73.7Z"/><path class="b" d="M199.739,40.694c-2.65-3.657-8.239-4.374-12.26-2.951-6.6,2.337-11.872,9.9-10.7,16.6a.544.544,0,0,0,.706.4,48.156,48.156,0,0,1,15.578-2.306c5.686-.037,11.121-4.672,7.046-11.2C199.988,41.051,199.866,40.869,199.739,40.694Z"/><path class="a" d="M117.3,114.4l.034.046-6.344.013a6.462,6.462,0,0,0,.514-.753,1.171,1.171,0,0,0,.168-.826c-.1-.317-.435-.485-.737-.622a50.66,50.66,0,0,1-14.623-10.192,24.265,24.265,0,0,0-4.623,6.008c1.432,4.664,3.715,11.832,6.518,19.863,5.479,15.7,12.989,33.22,17.031,41.948l1.04,2.246a372.138,372.138,0,0,0,14.847-41.314c2.536-8.512,4.491-18.218,5.381-22.983a24,24,0,0,0-4.484-5.768A50.674,50.674,0,0,1,117.4,112.258c-.3.137-.64.305-.738.622a1.172,1.172,0,0,0,.169.826A5.762,5.762,0,0,0,117.3,114.4Z"/><path class="a" d="M82.332,49.943c.041-.124.084-.248.128-.372,2.882-8.135,11.153-19.146,32.929-19.146,34.386,0,33.234,27.634,33.234,27.634a5.033,5.033,0,0,1,4.028-1.178,4.754,4.754,0,0,1,3.418,2.272,6.72,6.72,0,0,1,.7,2.7,20.14,20.14,0,0,1-2.053,10.675,12.782,12.782,0,0,1-3.31,4.344,8.485,8.485,0,0,1-3.946,1.779s-.245.037-.676.105c-.324,1.211-.687,2.232-.866,2.774-1.067,2.9-6.687,12.409-13.964,16.906a63.005,63.005,0,0,0,.431,6.6,88.7,88.7,0,0,0,4.409,7.884c2.21,3.438-2.35,14.794-22.452,14.794s-27.058-10.857-22.191-14.881a17.119,17.119,0,0,0,4.764-6.147l.543-1.216c.268-2.313.441-4.946.482-6.991a30.636,30.636,0,0,1-7.9-6.891A34.25,34.25,0,0,1,83.514,78.85l-1.287-.2a8.489,8.489,0,0,1-3.946-1.779,12.8,12.8,0,0,1-3.31-4.344,20.14,20.14,0,0,1-2.053-10.675,6.705,6.705,0,0,1,.7-2.7,4.75,4.75,0,0,1,3.417-2.272,5.032,5.032,0,0,1,4.028,1.178,18.636,18.636,0,0,1,.016-2A23.625,23.625,0,0,1,82.332,49.943Z"/><path class="c" d="M109.406,122.72q.1.424.207.85a7.517,7.517,0,0,1,.309,1.883c-.006.677-4.194,34.627-4.976,41.136,1.924,2.666,7.869,11.043,10.677,13.59,2.449-2.362,7.668-10.059,9.831-13.487-.6-5.287-5.977-39.977-5.961-41.029a11.412,11.412,0,0,1,.734-3.343c.957-2.92,1.149-4.96,2.106-7.88-2.84,0-12.612.023-14.675.023C108.355,117.215,108.763,119.968,109.406,122.72Z"/><path class="d" d="M110.017,127.382c3.159,0,6.317-.07,9.476-.071a2,2,0,0,0,0-4c-3.159,0-6.317.069-9.476.071a2,2,0,0,0,0,4Z"/><path class="d" d="M125.44,152.555c-1.085-7.3-2.195-14.587-3.262-21.886q-.249-1.7-.49-3.4-.05-.357-.1-.712c.071.525,0,0-.014-.11-.026-.221-.068-.445-.077-.668-.061-1.56.774-3.179,1.173-4.668.549-2.044.945-4.118,1.589-6.137a2.017,2.017,0,0,0-1.928-2.531c-4.892,0-9.783.022-14.675.023a2.022,2.022,0,0,0-1.928,2.531c.488,1.974.854,3.972,1.255,5.964.291,1.447.981,3.118.93,4.593-.054,1.537-.352,3.1-.534,4.624q-1.226,10.257-2.493,20.509a2.011,2.011,0,0,0,2,2,2.049,2.049,0,0,0,2-2q1.272-10.4,2.526-20.793c.173-1.443.46-2.928.5-4.384.052-1.706-.641-3.494-.983-5.154-.441-2.143-.823-4.3-1.348-6.422l-1.929,2.532c4.892,0,9.783-.023,14.675-.023l-1.929-2.532c-.644,2.019-1.041,4.093-1.589,6.137-.5,1.844-1.384,3.735-1.32,5.684a50.1,50.1,0,0,0,.743,5.44c1.091,7.486,2.232,14.966,3.345,22.449a2.012,2.012,0,0,0,2.46,1.4,2.051,2.051,0,0,0,1.4-2.46Z"/><path class="e" d="M142.686,48.358a51.21,51.21,0,0,1,5.766,9.865,5,5,0,0,1,4.2-1.342,4.359,4.359,0,0,1,.876.221c2.5-6.43,2.871-15.745-.29-24.583-2.222-6.214-7.762-12.724-11.7-14.538L135.858,13.9c-4.84-6.63-12.157-10.125-22.483-10.441-9.671-.3-20.813,1.658-29.283,10.182l2.726,2.752c-4.992,3.2-8.9,9.208-10.713,14.534-2.174,6.385-2.823,15.471-.242,26.206l.019.077a4.725,4.725,0,0,1,1.157-.325,4.973,4.973,0,0,1,4.309,1.456c9.742-9.312,18.227-14.84,26.787-21.564.049.57,1.873,5.129,2.3,5.3.581.236,6.954-3.766,11.4-6.506l7,1.841a26.082,26.082,0,0,1,8.2,4.8A38.781,38.781,0,0,1,142.686,48.358Z"/><path class="d" d="M150.038,59.473a2.95,2.95,0,0,1,4.222.555,5.894,5.894,0,0,1,.578,3,17.266,17.266,0,0,1-.248,3.561c-.773,4.237-2.957,9.292-7.659,10.135a2.018,2.018,0,0,0-1.4,2.46,2.045,2.045,0,0,0,2.461,1.4c6.948-1.245,10.258-9.1,10.781-15.4.265-3.189.044-6.888-2.72-8.963a7.071,7.071,0,0,0-8.847.428,2.015,2.015,0,0,0,0,2.828,2.044,2.044,0,0,0,2.829,0Z"/><path class="d" d="M145.411,74.906a19.229,19.229,0,0,1-1.114,5.188q-.15.455-.3.908c-.088.257-.092.243.011,0-.147.353-.316.7-.487,1.037a42.929,42.929,0,0,1-3.776,6.069c-3.271,4.474-7.7,9.2-13.3,10.515-2.5.587-1.445,4.445,1.063,3.857,6.554-1.536,11.647-6.894,15.508-12.11,3.36-4.539,6.161-9.683,6.4-15.46.1-2.574-3.9-2.569-4,0Z"/><path class="d" d="M82.481,56.645a7.073,7.073,0,0,0-8.847-.428C70.869,58.288,70.65,62,70.914,65.18c.523,6.3,3.834,14.157,10.782,15.4a2.056,2.056,0,0,0,2.46-1.4,2.018,2.018,0,0,0-1.4-2.461c-4.7-.843-6.885-5.9-7.659-10.135a17.159,17.159,0,0,1-.251-3.365,6.772,6.772,0,0,1,.5-3.063,2.934,2.934,0,0,1,4.305-.689,2.053,2.053,0,0,0,2.828,0,2.015,2.015,0,0,0,0-2.828Z"/><path class="d" d="M80.5,74.552a38.87,38.87,0,0,0,8.4,18.781c4.633,5.429,10.747,9.377,17.933,10.146a2.013,2.013,0,0,0,2-2,2.045,2.045,0,0,0-2-2c-6.24-.668-11.473-4.6-15.381-9.3-3.948-4.747-6.048-10.676-7.1-16.69a2.019,2.019,0,0,0-2.461-1.4,2.046,2.046,0,0,0-1.4,2.461Z"/><path class="d" d="M140.53,19.708a19.166,19.166,0,0,1,6.334,5.612,28.405,28.405,0,0,1,4.823,8.842,34.829,34.829,0,0,1,.357,21.167c-.79,2.456,3.071,3.508,3.857,1.063a38.634,38.634,0,0,0-.5-23.738,33.26,33.26,0,0,0-5.582-10.007,22.016,22.016,0,0,0-7.266-6.393c-2.309-1.109-4.341,2.339-2.019,3.454Z"/><path class="d" d="M89.374,12.892c-6.152,2.34-10.73,7.754-13.558,13.554a39.451,39.451,0,0,0-3.624,17.96,61.865,61.865,0,0,0,1.743,13.255c.592,2.5,4.45,1.444,3.857-1.064-1.82-7.692-2.415-15.983-.219-23.668,1.837-6.426,6.344-13.7,12.864-16.18a2.057,2.057,0,0,0,1.4-2.46,2.015,2.015,0,0,0-2.46-1.4Z"/><path class="d" d="M137.585,12.886A27.891,27.891,0,0,0,118.7,1.931,47.543,47.543,0,0,0,94.917,4.288a35.749,35.749,0,0,0-12.24,7.935c-1.828,1.817,1,4.646,2.829,2.828A33.622,33.622,0,0,1,105.283,5.8c6.85-.85,14.529-.643,20.831,2.456a22.012,22.012,0,0,1,8.017,6.654,2.062,2.062,0,0,0,2.737.718,2.015,2.015,0,0,0,.717-2.737Z"/><path class="d" d="M121.69,33.311c-3.447,2.115-6.844,4.355-10.41,6.267-.275.148-.554.286-.832.429-.1.05-.2.1-.3.14.625-.257.075-.025.062-.039a1.245,1.245,0,0,1-.133.036l1.92.747c.006-.06-.13-.177-.148-.238a7.348,7.348,0,0,0-.46-.912,13.84,13.84,0,0,1-1.324-3.5c-.255-1.663-2.314-1.689-3.342-.882C98.02,42.18,88.96,48.465,80.868,56.037c-1.883,1.763.95,4.587,2.829,2.829,8.09-7.572,17.152-13.858,25.852-20.679l-3.343-.882a18.08,18.08,0,0,0,1.826,4.666,3.919,3.919,0,0,0,1.394,1.832,2.839,2.839,0,0,0,2.672-.173c4.07-1.814,7.823-4.54,11.611-6.866,2.19-1.344.183-4.805-2.019-3.453Z"/><path class="d" d="M128.3,39.34c8.623,3.384,14.416,11.166,18.193,19.353a2.016,2.016,0,0,0,2.736.718,2.047,2.047,0,0,0,.718-2.737,51.191,51.191,0,0,0-8.122-12.529,31.878,31.878,0,0,0-12.461-8.663,2.015,2.015,0,0,0-2.46,1.4,2.047,2.047,0,0,0,1.4,2.461Z"/><path class="a" d="M125.875,124.917c4.695-4.667,7.771-10.319,11.24-15.965a25.034,25.034,0,0,0-5.1-6.886A50.674,50.674,0,0,1,117.4,112.258c-.3.137-.64.305-.738.622a1.172,1.172,0,0,0,.169.826,47.109,47.109,0,0,0,3.024,3.906C121.909,120.13,124.493,123.215,125.875,124.917Z"/><path class="a" d="M102.453,124.917c-4.7-4.667-7.771-10.319-11.24-15.965a25.014,25.014,0,0,1,5.1-6.886,50.66,50.66,0,0,0,14.623,10.192c.3.137.64.305.737.622a1.171,1.171,0,0,1-.168.826,47.222,47.222,0,0,1-3.025,3.906C106.418,120.13,103.834,123.215,102.453,124.917Z"/><path class="d" d="M127.289,126.331a65.09,65.09,0,0,0,9.149-12.406c.662-1.09,1.317-2.184,1.981-3.273a3,3,0,0,0,.66-1.966,5.582,5.582,0,0,0-.873-1.906,26.482,26.482,0,0,0-4.773-6.128,2.036,2.036,0,0,0-2.829,0,47.863,47.863,0,0,1-7.9,6.4c-1.381.895-2.8,1.726-4.266,2.481-1.328.686-3.258,1.18-3.708,2.813a3.815,3.815,0,0,0,1.019,3.3c.94,1.247,1.931,2.455,2.92,3.663,1.922,2.348,3.877,4.669,5.793,7.023a2.013,2.013,0,0,0,2.828,0,2.047,2.047,0,0,0,0-2.829c-1.6-1.964-3.226-3.905-4.837-5.86-.907-1.1-1.813-2.2-2.7-3.318-.261-.327-.523-.654-.771-.992a3.612,3.612,0,0,0-.316-.448c-.175-.169.016-.287-.006,0l-.273,1.01q-.432.357.02.095l.341-.157c.343-.161.685-.323,1.025-.492q1.041-.516,2.056-1.083,2.093-1.167,4.069-2.527a52.779,52.779,0,0,0,7.537-6.245H130.6a24.1,24.1,0,0,1,4.784,6.48v-2.019c-3.319,5.415-6.412,11.022-10.927,15.56C122.643,125.329,125.47,128.159,127.289,126.331Z"/><path class="d" d="M103.867,123.5c-4.515-4.538-7.608-10.145-10.927-15.56v2.019a24.109,24.109,0,0,1,4.783-6.48H94.9a52.969,52.969,0,0,0,7.537,6.245q1.974,1.358,4.068,2.527.931.52,1.885,1,.51.255,1.026.5.255.12.511.237.452.263.02-.095l-.273-1.01c-.018-.239.2-.195-.006,0a2.74,2.74,0,0,0-.254.363c-.265.368-.55.722-.832,1.077-.889,1.116-1.8,2.218-2.7,3.318-1.61,1.955-3.238,3.9-4.837,5.86a2.061,2.061,0,0,0,0,2.829,2.016,2.016,0,0,0,2.829,0c1.876-2.306,3.791-4.581,5.675-6.88,1-1.221,2-2.445,2.958-3.7a3.921,3.921,0,0,0,1.1-3.4c-.437-1.586-2.244-2.065-3.536-2.725q-2.194-1.122-4.268-2.46a47.883,47.883,0,0,1-8.071-6.512,2.037,2.037,0,0,0-2.828,0,26.427,26.427,0,0,0-4.679,5.962,8.291,8.291,0,0,0-.932,1.806,2.761,2.761,0,0,0,.625,2.232c.663,1.089,1.319,2.183,1.98,3.273a65.09,65.09,0,0,0,9.149,12.406C102.857,128.158,105.685,125.33,103.867,123.5Z"/><path class="d" d="M54.551,55.931a28.533,28.533,0,0,0-1.666-23.9A27.283,27.283,0,0,0,37.712,20.015c-2.444-.826-3.493,3.036-1.063,3.857A23.058,23.058,0,0,1,49.431,34.046a24.684,24.684,0,0,1,1.263,20.822,2.015,2.015,0,0,0,1.4,2.46,2.045,2.045,0,0,0,2.46-1.4Z"/><path class="d" d="M19.941,19.429a25.375,25.375,0,0,0-18,15.777C-1.419,44.172-.516,54.914,5.432,62.563a28.966,28.966,0,0,0,12.055,8.881,2.012,2.012,0,0,0,2.46-1.4,2.05,2.05,0,0,0-1.4-2.46A22.984,22.984,0,0,1,4.305,50.262C3.065,42.72,5.21,34,10.829,28.646a22.449,22.449,0,0,1,10.176-5.36c2.5-.624,1.438-4.483-1.064-3.857Z"/><path class="d" d="M17.774,55.875c-6.426-6.319-4.994-18.233,3.145-22.383,2.294-1.17.272-4.622-2.019-3.454a16.653,16.653,0,0,0-8.725,11.956c-1.126,6.131.251,12.265,4.77,16.71,1.837,1.806,4.668-1.02,2.829-2.829Z"/><path class="d" d="M35.812,33.916A13.169,13.169,0,0,1,41.4,39.79a14.881,14.881,0,0,1,.728,10.138c-.684,2.486,3.174,3.546,3.857,1.063a19.1,19.1,0,0,0-1.025-13,17,17,0,0,0-7.124-7.533c-2.243-1.269-4.261,2.185-2.019,3.454Z"/><path class="d" d="M18.58,1.932c0,10.414-.064,20.829-.065,31.243a2.029,2.029,0,0,0,2,2c5.414,0,10.827-.149,16.241-.153a2.03,2.03,0,0,0,2-2c0-8.732-.158-17.465-.231-26.2-.013-1.558-.032-3.115-.028-4.673.007-2.574-3.993-2.578-4,0-.022,8.586.152,17.174.225,25.759.015,1.7.033,3.406.034,5.11l2-2c-5.414,0-10.827.149-16.241.153l2,2c0-10.414.064-20.829.065-31.243,0-2.574-4-2.578-4,0Z"/><path class="a" d="M16.924,100.221a22.647,22.647,0,0,1,1.361-4.628c1.392-3.305,1.175-5.214.313-8.614-.776-3.061-3.5-12.025-1.7-15.11l2.261-4.827a16.927,16.927,0,0,1-1.834-4.6c-.447-1.842-1.268-5.3-.4-7.071a8.309,8.309,0,0,1,3.412-3.7c3.659-1.9,8.886-3.025,11.4-2.863,1.86-.707,3.521-1.587,5.569-1.235.922.158,3.579,1.863,4.444,1.835a16.66,16.66,0,0,1,2.3,2.108c3.141-.459,6.646,2.374,9.159,4.981a14.327,14.327,0,0,1,3.367,4.578c.808,2.522.19,3.915-.09,6.153a21.4,21.4,0,0,1-2.88,8.467c-1.572,2.953-2.561,4.47-5.322,6.473A24.237,24.237,0,0,0,44.257,85.3,9.482,9.482,0,0,0,42.512,89.9c-.754,3.879-.648,7.793-1.461,11.67"/><path class="d" d="M18.852,100.753c.423-2.184,1.326-4.129,1.947-6.241a12.478,12.478,0,0,0,.253-5.657c-.466-2.83-1.42-5.576-2.026-8.378a30.947,30.947,0,0,1-.686-4.3,12.525,12.525,0,0,1-.008-2.208,1.622,1.622,0,0,1,.068-.415c.018-.082.258-.8.134-.511.647-1.529,1.47-3.006,2.2-4.5,1.12-2.306-2.328-4.336-3.454-2.019-.729,1.5-1.487,2.992-2.2,4.5-1.3,2.762-.758,6.05-.228,8.938.508,2.769,1.322,5.457,1.976,8.191a9.918,9.918,0,0,1,.166,5.1c-.606,2.182-1.564,4.182-2,6.428-.487,2.515,3.367,3.592,3.857,1.064Z"/><path class="d" d="M41.752,47.413c.485.041-.136-.079-.235-.126-.365-.176-.733-.348-1.1-.527a15.758,15.758,0,0,0-2.236-1.014c-2.042-.63-4.3,0-6.191.829a6.571,6.571,0,0,1-2.114.3c-.958.095-1.914.241-2.858.431a31.183,31.183,0,0,0-6.1,1.907c-3.777,1.615-6.669,4.834-6.339,9.136.259,3.358,1.145,7.309,3.115,10.1a5.415,5.415,0,0,0,4.658,2.527,4.574,4.574,0,0,0,4.554-3.084c.806-2.451-3.055-3.5-3.857-1.064.02-.061-.149.078-.349.122a1.979,1.979,0,0,1-1.124-.094c.243.111-.16-.113-.042-.024a2.619,2.619,0,0,1-.48-.533,8.589,8.589,0,0,1-1-1.861,21,21,0,0,1-1-3.357,11.924,11.924,0,0,1-.482-4.275c.437-2.875,4.023-4.1,6.385-4.84a27.67,27.67,0,0,1,4.5-1.043,12.956,12.956,0,0,1,1.682-.121,5.958,5.958,0,0,0,2.3-.522c1.39-.547,2.859-1.075,4.135-.468a12.534,12.534,0,0,0,4.172,1.6c2.565.217,2.551-3.784,0-4Z"/><path class="d" d="M21.948,59.477a50.663,50.663,0,0,0,1.274,5.8,11.975,11.975,0,0,0,2.432,5.259,5.56,5.56,0,0,0,6.725.571,5.617,5.617,0,0,0,2.3-2.863,7.464,7.464,0,0,0,.238-3.2A57.225,57.225,0,0,0,33.4,57.225a2.018,2.018,0,0,0-2.46-1.4,2.044,2.044,0,0,0-1.4,2.461c.444,1.9.937,3.791,1.25,5.719.017.108.1.68.051.31.031.242.059.484.08.726A12.6,12.6,0,0,1,30.98,66.4c0,.1-.011.21-.011.315,0,.3.051-.044.018-.094.059.091-.12.382-.136.491-.033.244.186-.267.028-.079a1.736,1.736,0,0,0-.145.252c-.036.064-.082.12-.122.181.258-.394.018-.047-.071.039a1.948,1.948,0,0,0-.164.149c-.153.193.278-.13.046-.042a4.228,4.228,0,0,0-.466.261c.4-.217-.12.006-.268.054-.1.033-.371.036.045.009-.143.01-.284.021-.427.02s-.618-.088-.274,0a2.809,2.809,0,0,0-.373-.084c-.341-.031.181.012.162.085,0,.005-.213-.121-.2-.107-.134-.141-.22.049.123.109-.113-.02-.272-.264-.347-.34-.264-.27.095.1.075.1a2.221,2.221,0,0,1-.15-.219c-.087-.135-.167-.275-.244-.416-.09-.168-.162-.347-.253-.513-.107-.194.051.128.056.141-.055-.139-.11-.276-.162-.416-.261-.7-.465-1.424-.658-2.147a50.418,50.418,0,0,1-1.257-5.738,2.005,2.005,0,0,0-2.46-1.4,2.062,2.062,0,0,0-1.4,2.46Z"/><path class="d" d="M38.484,55.05a48.451,48.451,0,0,0-.245,7.992c-.01,1.386-.048,2.768-.178,4.148-.044.459.068-.344,0,0-.021.107-.035.215-.055.321-.044.23-.118.45-.17.677-.08.355.187-.37.075-.166a1.26,1.26,0,0,1-.095.163c.182-.243.335-.374.055-.134-.151.13.176-.148.177-.138,0,.038-.238.149-.267.166-.182.1-.442.192-.08.064-.187.066-.37.136-.562.19s-.4.086-.6.134c.424-.1-.053,0-.252,0-.149,0-.739-.078-.248.02a3.846,3.846,0,0,0-.523-.124c-.247-.01.26.174.055.034a1.231,1.231,0,0,0-.265-.147c-.174-.054.053.042.1.088-.055-.057-.388-.424-.11-.059a2.066,2.066,0,0,0-2.737-.717,2.012,2.012,0,0,0-.717,2.736,5.662,5.662,0,0,0,5.992,1.981,4.882,4.882,0,0,0,3.851-2.991,14.715,14.715,0,0,0,.515-4.1c.063-1.689.044-3.38.041-5.07,0-.852,0-1.7.022-2.556.009-.356.023-.713.048-1.069.01-.134.024-.268.035-.4.043-.511-.082.482,0,.028a2.058,2.058,0,0,0-1.4-2.46,2.016,2.016,0,0,0-2.46,1.4Z"/><path class="d" d="M32.131,83.319c2.876-1.476,3.06-4.538,4.471-7.068a7.451,7.451,0,0,1,1.571-1.87,15.584,15.584,0,0,1,3.663-2.607,19.912,19.912,0,0,0,2.21-1.121A8.256,8.256,0,0,0,46.1,68.5a6.818,6.818,0,0,0,1.262-4.8,7.173,7.173,0,0,0-2.31-4.391c-.421-.366-1.126-.706-1.334-.958a3.288,3.288,0,0,1-.533-1.441,4.541,4.541,0,0,1,.29-2.871c.168-.3.231-.38.5-.46a3.44,3.44,0,0,1,2.045.118,12.217,12.217,0,0,1,4.33,2.808,25.545,25.545,0,0,1,3.336,3.491,5.961,5.961,0,0,1,1.213,4.619,39.412,39.412,0,0,1-.994,5.43,24.19,24.19,0,0,1-2.02,4.648,18.717,18.717,0,0,1-2.4,3.774c-2.64,2.951-6.71,4.145-8.189,8.094-1.713,4.572-1.224,9.742-2.171,14.479-.5,2.514,3.352,3.589,3.857,1.063.906-4.535.629-9.3,1.932-13.758.537-1.838,1.938-2.757,3.448-3.793a20.987,20.987,0,0,0,4.053-3.372A28,28,0,0,0,57.6,71.629a39.764,39.764,0,0,0,1.093-5.595,10.645,10.645,0,0,0-.341-5.861c-1.339-3.357-4.641-6.322-7.512-8.392-2.729-1.968-7.245-3.653-10.025-.825-2.036,2.071-2.124,5.716-1.1,8.276a6.582,6.582,0,0,0,1.129,1.923c.5.575,1.221.772,1.731,1.323a2.867,2.867,0,0,1,.269,3.7C41.773,67.865,39.6,68.319,38,69.412a17.937,17.937,0,0,0-3.744,3.318,9.9,9.9,0,0,0-1.7,2.845c-.572,1.447-.946,3.52-2.446,4.29-2.291,1.177-.27,4.629,2.019,3.454Z"/><path class="f" d="M63.084,155.4c.365,2.363.709,4.764,1.014,7.218,1.3,10.462,3.416,42,3.7,46.8.307,5.084-.507,10.155-1.037,15.221-1.822,17.427-3.145,28.156-4.528,45.772,7.663,1.612,29.736,2.455,37.033-.813,8.105-3.63,14.176-25.755,15.89-35l-.226-3.325c2.786,16.1,8.535,36.132,16.222,38.942,7.778,2.842,30.611,2.179,38.743.522-1.393-17.812-2.721-28.565-4.554-46.1-.425-4.061-1.033-8.124-1.1-12.2a17.323,17.323,0,0,0,17.149.89c14.969-7.041,16.192-25.732,12.859-39.667-2.467-10.314-5.678-19.477-9.5-32.016-2.325-6.428-5.007-12.372-9.259-15.693a45.3,45.3,0,0,0-5.8-3.586,286.774,286.774,0,0,0-32.947-15.84,170.623,170.623,0,0,1-5.628,24.287,372.048,372.048,0,0,1-14.848,41.312l-1.039-2.244c-4.042-8.728-11.552-26.248-17.031-41.948-2.89-8.279-5.227-15.64-6.647-20.272l-.533.221c-11.066,4.587-19.529,8.213-29.2,13.445-7.489,4.7-15.613,15.164-21.388,17.638.017-9.1.845-24.629,2.005-36.562-5.9-.481-23.278-1.977-26.712-1.961-1.59,9.36-7.116,41.048-3.809,62,.9,5.718,4.489,10.475,7.947,11.391,6.271,1.659,16.154.083,22.075-2.031,7.417-2.649,17.141-7.477,21.114-8.713l3.007-1.027"/><path class="d" d="M40.42,102.41c-1.156,12.132-1.955,24.368-1.989,36.559A2.027,2.027,0,0,0,41.44,140.7c4.092-1.813,7.447-5.431,10.635-8.467,3.643-3.471,7.269-7.185,11.662-9.714,2.23-1.284.218-4.742-2.019-3.454-4.467,2.572-8.222,6.288-11.927,9.82-3.128,2.982-6.347,6.579-10.369,8.361l3.009,1.727c.034-12.191.833-24.427,1.989-36.559a2.014,2.014,0,0,0-2-2,2.043,2.043,0,0,0-2,2Z"/><path class="d" d="M42.113,100.38c-4.749-.389-9.5-.791-14.247-1.163-4.026-.314-8.1-.773-12.142-.771A2.019,2.019,0,0,0,13.8,99.914c-2.5,14.733-4.63,29.606-4.892,44.571a120.028,120.028,0,0,0,.413,13.1c.421,4.575,1.034,9.175,3.679,13.069a13.452,13.452,0,0,0,4.466,4.342,15.1,15.1,0,0,0,6.1,1.442,46.779,46.779,0,0,0,13.933-1.279,81.362,81.362,0,0,0,14.07-5.1c3.965-1.713,7.894-3.724,12.018-5.035,2.444-.776,1.4-4.639-1.063-3.857a104.05,104.05,0,0,0-10.1,4.183c-3.917,1.719-7.849,3.507-11.92,4.838A47.686,47.686,0,0,1,27.7,172.5c-3.509.144-7.547.245-10.134-2.48-2.987-3.145-3.743-7.422-4.167-11.573a112.974,112.974,0,0,1-.518-12.271,223.688,223.688,0,0,1,1.8-25.417c.8-6.621,1.849-13.2,2.966-19.778l-1.928,1.468c4.042,0,8.116.457,12.142.771,4.75.372,9.5.774,14.247,1.163,2.566.211,2.552-3.791,0-4Z"/><path class="d" d="M162.268,213.29c.163,4.2.765,8.376,1.2,12.556q.6,5.661,1.209,11.319c.737,6.838,1.466,13.678,2.1,20.526q.611,6.554,1.12,13.116c.2,2.549,4.2,2.571,4,0-1.134-14.464-2.732-28.877-4.258-43.3-.5-4.728-1.195-9.459-1.379-14.214-.1-2.565-4.1-2.578-4,0Z"/><path class="d" d="M170.107,136.027c-1.052,6.535-2.364,13.026-3.407,19.563a2.062,2.062,0,0,0,1.4,2.46,2.015,2.015,0,0,0,2.46-1.4c1.043-6.537,2.355-13.027,3.407-19.563a2.061,2.061,0,0,0-1.4-2.46,2.016,2.016,0,0,0-2.461,1.4Z"/><path class="d" d="M61.155,155.933c2.019,13.128,2.778,26.445,3.717,39.684.32,4.516.647,9.033.916,13.553.3,5.024-.432,10-.97,14.978q-.8,7.435-1.587,14.872c-1.138,10.584-2.193,21.174-3.025,31.787-.2,2.567,3.8,2.554,4,0,.748-9.532,1.665-19.046,2.678-28.552q.762-7.143,1.531-14.285c.583-5.5,1.5-11.047,1.454-16.586-.039-4.6-.539-9.23-.86-13.816q-.71-10.124-1.519-20.238c-.614-7.519-1.331-15-2.477-22.46a2.014,2.014,0,0,0-2.461-1.4,2.05,2.05,0,0,0-1.4,2.46Z"/><path class="d" d="M90.492,105.958a318.684,318.684,0,0,0-30.123,13.886c-2.263,1.228-.246,4.683,2.019,3.454a308.576,308.576,0,0,1,29.168-13.483,2.067,2.067,0,0,0,1.4-2.46,2.012,2.012,0,0,0-2.461-1.4Z"/><path class="d" d="M169.386,268.806a84.03,84.03,0,0,1-13.207,1.242,131.391,131.391,0,0,1-16.459-.285,41.265,41.265,0,0,1-6.233-.941c-.428-.105-.854-.221-1.273-.356-.176-.056-.353-.113-.525-.179-.275-.106.039.044-.32-.155a7.068,7.068,0,0,1-1.9-1.455c-3.64-3.671-5.581-9.144-7.206-13.933a146.9,146.9,0,0,1-5.4-22,2.018,2.018,0,0,0-2.461-1.4,2.047,2.047,0,0,0-1.4,2.461,151.714,151.714,0,0,0,4.922,20.553c1.8,5.595,3.968,11.448,7.731,16.051a11.814,11.814,0,0,0,5.051,3.764,29.261,29.261,0,0,0,6.335,1.3,111.847,111.847,0,0,0,16.682.645,96.273,96.273,0,0,0,16.722-1.459c2.522-.506,1.454-4.362-1.064-3.857Z"/><path class="d" d="M61.826,272.367a89.877,89.877,0,0,0,15.062,1.407,96.006,96.006,0,0,0,17.332-.805,21.45,21.45,0,0,0,6.232-1.725,14.354,14.354,0,0,0,4.856-4.4c3.33-4.377,5.436-9.7,7.238-14.852a115.519,115.519,0,0,0,4.544-16.862c.47-2.517-3.384-3.595-3.858-1.064a116.362,116.362,0,0,1-3.57,13.949,63.86,63.86,0,0,1-6.383,14.756,20.713,20.713,0,0,1-1.81,2.508,14.366,14.366,0,0,1-1.857,1.806,9.5,9.5,0,0,1-1.094.662c-.311.164-.118.064-.2.1-.212.086-.428.163-.644.237a22.927,22.927,0,0,1-2.975.762,77.123,77.123,0,0,1-15.835.972,89.454,89.454,0,0,1-15.972-1.308c-2.513-.5-3.589,3.35-1.063,3.857Z"/><path class="g" d="M144.547,129.623c1.185,1.063,8.325,7.882,8.4,8.365.034.224-20.028,30.341-23.878,35.216"/><path class="g" d="M137.534,105.363c2.291,0,14.067,12.073,15.7,16.317.107.278-6.471,5.954-8.688,7.943"/><path class="d" d="M122.407,189.107c0-.171.012-.339.026-.508.027-.357-.1.545-.025.2.017-.083.031-.166.051-.249.039-.165.092-.324.146-.485.111-.332-.232.477-.07.167.052-.1.1-.2.159-.3.044-.073.092-.142.139-.213.191-.29-.344.389-.1.137.121-.125.253-.239.376-.362-.447.45-.15.116.045.006.081-.046.177-.08.254-.131q-.493.2-.2.089c.064-.024.128-.046.194-.066.206-.064.433-.078.636-.145-.493.163-.273.035-.061.021.126-.008.253-.014.38-.011s.239.015.36.022c.425.027-.485-.1-.083-.007.236.057.47.149.7.2-.489-.107-.312-.14-.121-.041q.126.066.246.141c.427.269-.331-.308.034.018.135.12.244.259.369.388-.4-.411-.2-.272-.1-.116.065.1.124.2.179.308.08.154.142.432-.051-.15.029.086.066.17.095.256a4.722,4.722,0,0,1,.144.537c.019.092.029.186.049.278-.137-.624-.042-.327-.028-.152a5.163,5.163,0,0,1,.017.622c-.009.226-.142.569.031-.108-.036.143-.052.293-.09.437s-.114.293-.144.44c.1-.5.174-.391.074-.188-.048.1-.1.191-.154.283-.043.071-.089.137-.134.206-.186.289.343-.4.11-.141-.116.128-.234.247-.358.366-.255.245.426-.29.127-.093-.076.05-.15.1-.228.149-.054.032-.108.062-.163.091-.449.239.364-.111.036,0a5.7,5.7,0,0,1-.6.173l-.108.021c-.211.035-.146.027.195-.022a2.535,2.535,0,0,0-.357.027,6.91,6.91,0,0,0-.717-.017l.312.045c-.071-.011-.141-.023-.211-.037-.132-.028-.264-.062-.393-.1-.192-.062-.351-.22.119.063-.1-.063-.22-.107-.325-.17-.076-.045-.146-.1-.223-.147.493.274.275.221.135.095-.063-.057-.124-.117-.182-.179-.136-.144-.287-.458.045.082-.1-.165-.215-.319-.3-.492-.038-.072-.069-.149-.107-.221.312.6.114.276.054.1a5.268,5.268,0,0,1-.148-.537c-.016-.076-.027-.154-.044-.229-.072-.32.055.614.021.157-.012-.167-.023-.332-.024-.5a2,2,0,0,0-4,0,6.058,6.058,0,0,0,2.957,5.433,6.243,6.243,0,0,0,7.346-1.257,6.318,6.318,0,0,0,1.066-6.245,5.678,5.678,0,0,0-2.379-2.972,6.538,6.538,0,0,0-4.313-.695,5.471,5.471,0,0,0-3.655,2.258,6.045,6.045,0,0,0-1.022,3.478,2,2,0,0,0,4,0Z"/><path class="d" d="M67.678,272.261c0,4.121-.119,8.242-.121,12.363a2,2,0,0,0,4,0c0-4.121.118-8.242.121-12.363a2,2,0,0,0-4,0Z"/><path class="d" d="M161.644,272.184q.054,6.219.108,12.438a2,2,0,0,0,4,0q-.048-6.219-.108-12.438a2,2,0,0,0-4,0Z"/><path class="f" d="M90.7,105.363c-2.291,0-14.066,12.073-15.7,16.317-.107.278,6.471,5.954,8.688,7.943-1.184,1.063-8.325,7.882-8.4,8.365-.034.226,19.469,23.138,30.22,34.891l6.916,7.014c.453-.976.939-1.9,1.4-2.88.752-1.506,1.562-3.245,2.416-5.182l-1.172-1.946c-4.041-8.728-11.551-26.248-17.031-41.948-3.423-9.807-6.07-18.325-7.343-22.574"/><path class="d" d="M88.932,105.9a505.614,505.614,0,0,0,19.406,53.324c1.673,3.913,3.383,7.812,5.17,11.675a2.015,2.015,0,0,0,2.736.718,2.046,2.046,0,0,0,.717-2.737,477.619,477.619,0,0,1-20.37-51.952q-1.969-6.024-3.8-12.092c-.738-2.459-4.6-1.411-3.857,1.064Z"/><path class="d" d="M82.434,128.209c-1.578,1.423-3.1,2.915-4.616,4.4-1.322,1.291-3.156,2.68-4.075,4.32-.775,1.385.158,2.344.962,3.333.876,1.079,1.77,2.145,2.661,3.211q10.588,12.657,21.418,25.112c3.848,4.437,7.706,8.87,11.669,13.206,1.741,1.905,4.563-.93,2.829-2.828-11.338-12.4-22.185-25.292-32.969-38.177q-1.237-1.479-2.466-2.969c-.233-.284-.46-.574-.695-.856-.3-.359.25.405.107.14-.164-.3.074.133.12.355v1.063c-.057.177-.38.653-.294.56.1-.109.2-.225.3-.336.307-.343.63-.673.952-1,.824-.844,1.665-1.671,2.509-2.494,1.456-1.42,2.911-2.847,4.421-4.21,1.915-1.728-.921-4.55-2.828-2.828Z"/><path class="d" d="M90.86,103.363c-2.01.1-3.811,1.843-5.242,3.078a71.093,71.093,0,0,0-6.2,6.143,47.1,47.1,0,0,0-5.155,6.518c-.657,1.052-1.506,2.4-.818,3.625a9.041,9.041,0,0,0,1.847,1.951c2.342,2.165,4.771,4.232,7.147,6.359,1.913,1.712,4.751-1.107,2.828-2.828-1.658-1.485-3.34-2.943-5-4.423-.827-.737-1.655-1.476-2.464-2.234-.259-.243-.508-.5-.769-.739-.089-.083-.162-.189-.256-.267-.275-.23.247.437.117.146l.273,1.009c.042,1.01-.3.878-.044.471.1-.161.176-.34.269-.5.2-.357.422-.7.65-1.045.473-.712.978-1.391,1.478-2.016,1.432-1.8,2.972-3.507,4.567-5.16a63.145,63.145,0,0,1,4.711-4.471,12.034,12.034,0,0,1,1.574-1.2c.234-.154.482-.281.719-.428.3-.188-.436.043-.038.014.427-.031-.5.021-.186.006,2.563-.123,2.578-4.124,0-4Z"/><path class="d" d="M116.935,231.274c-1.14-9.163-2.109-18.347-3-27.537-.343-3.531-.676-7.064-.971-10.6a37.469,37.469,0,0,1-.188-6.621c.335-3.649,2.111-6.722,3.657-9.959,1.8-3.778,3.424-7.647,4.979-11.533,4.081-10.2,7.661-20.61,10.867-31.117a230.6,230.6,0,0,0,6.6-28.013,2.059,2.059,0,0,0-1.4-2.461,2.017,2.017,0,0,0-2.46,1.4c-3.32,19.2-9.2,37.827-16.224,55.969-1.584,4.092-3.239,8.16-5.073,12.147-1.5,3.269-3.468,6.456-4.361,9.965-1.437,5.645-.282,11.821.254,17.515.97,10.3,2.041,20.585,3.318,30.847a2.063,2.063,0,0,0,2,2,2.012,2.012,0,0,0,2-2Z"/><path class="d" d="M201.976,73.7c-.176-4.225-3.752-7.667-7.79-8.473a13.661,13.661,0,0,0-10.622,2.306c-1.435,1.062-3.451,2.9-3.562,4.813-.089,1.517,1.045,2.2,2.319,2.622a26.222,26.222,0,0,1,2.893,1.124,39.3,39.3,0,0,1,5.385,3.151,9.176,9.176,0,0,0,4.49,1.578,6.4,6.4,0,0,0,4.823-1.654,7.462,7.462,0,0,0,2.064-5.467c0-2.574-4-2.578-4,0a4.366,4.366,0,0,1-.1,1.131c-.041.181-.093.358-.149.534-.05.133-.045.136.014.01-.04.091-.084.181-.132.268-.077.141-.156.28-.246.413.206-.3-.116.123-.15.159-.066.072-.467.375-.13.139-.119.083-.245.15-.367.226-.151.094-.336.143-.07.047-.164.059-.33.1-.5.149-.075.022-.608.08-.16.04a5.336,5.336,0,0,1-.536.021c-.151,0-.3-.012-.453-.024-.23-.018.269.063-.107-.02a7.614,7.614,0,0,1-1.087-.311c.263.1-.029-.01-.139-.066-.172-.089-.344-.178-.511-.277-.4-.239-.777-.517-1.164-.776-.886-.593-1.79-1.161-2.721-1.682a31.179,31.179,0,0,0-2.834-1.4c-.617-.267-1.239-.523-1.869-.758a8.006,8.006,0,0,1-1.5-.521l.718.717-.087-.181.273,1.01.027-.2-.273,1.009a8.588,8.588,0,0,1,7.407-4.388,7.254,7.254,0,0,1,4.41,1.079,4.9,4.9,0,0,1,2.43,3.654C198.082,76.269,202.083,76.282,201.976,73.7Z"/><path class="d" d="M201.466,39.685c-3.176-4.193-8.842-5.486-13.8-4.1a18.762,18.762,0,0,0-11.4,9.978,15.974,15.974,0,0,0-1.649,7.218c.041,1.329.129,2.9,1.407,3.645,1.477.864,3.488-.239,4.967-.616a44.193,44.193,0,0,1,8.712-1.282c2.714-.138,5.4.047,7.96-1.009a9.321,9.321,0,0,0,5.431-5.347c1.033-2.888.063-6.067-1.63-8.491-1.463-2.1-4.932-.1-3.454,2.018,1.14,1.632,2.083,3.739,1.1,5.667a6.359,6.359,0,0,1-4.624,2.948,24.95,24.95,0,0,1-3.75.17c-1.485.052-2.967.151-4.443.323-1.517.176-3.027.4-4.522.719q-1.134.239-2.255.535c-.423.112-.845.231-1.265.354-.17.05-1.2.189-.682.355l.883.515q.338.819.206.123l-.023-.313q-.027-.471-.016-.942a9.542,9.542,0,0,1,.178-1.67,13.269,13.269,0,0,1,1.219-3.494,15.694,15.694,0,0,1,5.125-5.825c3.588-2.4,9.857-3.446,12.873.535a2.064,2.064,0,0,0,2.736.718A2.013,2.013,0,0,0,201.466,39.685Z"/><path class="d" d="M143.37,111.465c6.956,3.043,13.748,6.427,20.446,10a100.211,100.211,0,0,1,9.585,5.426,18.955,18.955,0,0,1,5.673,6.662,68.337,68.337,0,0,1,4.547,10.855c.841,2.416,4.707,1.377,3.857-1.063-2.221-6.381-4.667-13.661-9.907-18.257-2.75-2.412-6.122-4.055-9.319-5.78-3.431-1.851-6.878-3.673-10.361-5.424q-6.172-3.1-12.5-5.874a2.064,2.064,0,0,0-2.736.717,2.015,2.015,0,0,0,.717,2.737Z"/><path class="a" d="M114.434,71.351c-4.991,0-13.317.75-18.716,1.161-1,.076-3.444.356-4.09,1.077-1.2,1.341-.746,4.2-.9,5.828a41.113,41.113,0,0,0,.233,7.8c.36,3.427.535,7.08,2.909,9.754,4.388,4.942,14.558,7.573,21.239,7.573A40.755,40.755,0,0,0,128.18,102.2c3.644-1.293,7.05-3.462,8.957-6.58,1.8-2.94,1.727-5.887,2.113-9.236a34.41,34.41,0,0,0,.139-7.095c-.165-1.621.253-4.27-.963-5.627-.646-.721-2.663-1.056-3.66-1.141C128.436,71.984,119.979,71.351,114.434,71.351Z"/><path class="d" d="M138.786,73.987a38.97,38.97,0,0,1,4.288-6.865c2.058-2.886,4.212-5.7,6.38-8.505a2.067,2.067,0,0,0,0-2.829,2.013,2.013,0,0,0-2.828,0c-2.326,3.006-4.646,6.019-6.859,9.11a39.8,39.8,0,0,0-4.434,7.07,2.066,2.066,0,0,0,.717,2.737,2.014,2.014,0,0,0,2.736-.718Z"/><path class="d" d="M94.049,71.435a78.717,78.717,0,0,0-4.72-7.212q-3.16-4.5-6.535-8.84a2.011,2.011,0,0,0-2.829,0,2.052,2.052,0,0,0,0,2.828c.411.527.8,1.04,1.323,1.728q.806,1.066,1.6,2.143,1.587,2.158,3.125,4.351A77.517,77.517,0,0,1,90.6,73.454c1.241,2.256,4.7.241,3.454-2.019Z"/><path class="d" d="M114.434,69.351c-4.9.014-9.8.456-14.689.844a62.534,62.534,0,0,0-6.428.625c-2.4.444-3.989,1.7-4.384,4.2a20.875,20.875,0,0,0-.168,3.23c-.006,1.362-.158,2.713-.137,4.078a71,71,0,0,0,.665,7.961,15.042,15.042,0,0,0,2.594,7.388,16.613,16.613,0,0,0,5.056,4.2c8.776,5.021,19.681,5.759,29.286,3.037,5.014-1.421,10.218-3.929,12.859-8.671,1.406-2.524,1.725-5.324,1.99-8.149a50.412,50.412,0,0,0,.329-8.605c-.184-2.423.3-5.462-1.653-7.324-1.863-1.778-5.114-1.662-7.5-1.856-5.923-.48-11.872-.949-17.818-.962-2.574-.006-2.578,3.994,0,4,4.639.01,9.277.32,13.9.659,2.218.163,4.472.248,6.677.536.5.066,1.663.154,2.007.534.376.416.3,1.649.313,2.16.086,4.667.295,9.361-.648,13.978-.933,4.57-4.639,7.449-8.848,8.986a35.768,35.768,0,0,1-26.055-.389c-3.4-1.4-6.939-3.492-8-7.234a35.741,35.741,0,0,1-.934-6.535,56.238,56.238,0,0,1-.086-7.181,23.659,23.659,0,0,1,.084-3.106c.153-.9.159-.78,1.079-.988a42.563,42.563,0,0,1,6.012-.591c4.821-.383,9.661-.815,14.5-.829C117.007,73.343,117.012,69.343,114.434,69.351Z"/><path class="d" d="M103.736,61.669a48.717,48.717,0,0,1-5.321-.236A1.993,1.993,0,0,0,97,62.019a2,2,0,0,0,0,2.828l.405.313a1.985,1.985,0,0,0,1.009.273,48.717,48.717,0,0,0,5.321.236,2,2,0,0,0,0-4Z"/><path class="d" d="M126.757,65.715a21.222,21.222,0,0,0,2.432-.04,31.821,31.821,0,0,0,3.416-.36,2.01,2.01,0,0,0,1.2-.919,2,2,0,0,0-.718-2.737,2.284,2.284,0,0,0-1.541-.2c-.155.025-.311.049-.468.07l.532-.071c-.9.121-1.813.19-2.723.234a19.823,19.823,0,0,1-2.125.024,2.013,2.013,0,0,0-2,2,2.045,2.045,0,0,0,2,2Z"/><path class="a" d="M147.17,133.744a88.051,88.051,0,0,0-1.592-9.439c-1.056-4.477-.742-9.06-1.1-13.564-.387-4.9-1.7-9.65-5.252-13.167-3.821-3.783-8.443-3.886-13.717-4.3-3.033-.238-8.574,1.974-9.765,4.181a25.835,25.835,0,0,0-1.687,4.4s-.121.464-.281,1.08a3.034,3.034,0,0,0-2.121-.123c-2.566.816-3.064,5.043-3.964,7.223-1.557,3.775.53,7.329,1.683,8.886,1.517,2.179,4.868,3.977,6.349,6.14a74.374,74.374,0,0,0,5.128,7.016c1.6,1.843,4.338,4.551,7.36,4.711.484.762,1.931,3.909,2.629,5.351A100.807,100.807,0,0,1,147.17,133.744Z"/><path class="d" d="M148.964,131.734a66.382,66.382,0,0,0-1.458-7.96,42.347,42.347,0,0,1-.806-8.118c-.154-5.01-.409-10.027-2.6-14.628a15.95,15.95,0,0,0-10.3-8.707,37.7,37.7,0,0,0-6.684-.926,15.861,15.861,0,0,0-6.078.535,14.908,14.908,0,0,0-5.973,3.2c-1.615,1.553-2.333,4.1-2.931,6.192-.71,2.479,3.148,3.537,3.857,1.063.394-1.374.908-3.406,1.812-4.336a9.852,9.852,0,0,1,3.97-2.154,12,12,0,0,1,4.946-.526,35.716,35.716,0,0,1,5.666.725,12.2,12.2,0,0,1,8.343,7.132c1.771,3.889,1.845,8.244,1.974,12.434a50.826,50.826,0,0,0,.75,8.253c.514,2.615,1.241,5.165,1.514,7.825a2.058,2.058,0,0,0,2,2,2.013,2.013,0,0,0,2-2Z"/><path class="d" d="M128.265,99.791c-4.172,1.539-9.159,3.181-10.785,7.79a2.014,2.014,0,0,0,1.4,2.461,2.051,2.051,0,0,0,2.46-1.4c.086-.242.207-.262-.029.035a2.221,2.221,0,0,0,.153-.318,5.835,5.835,0,0,1,.329-.553,1.258,1.258,0,0,0,.168-.239c-.195.248-.227.291-.095.127l.076-.09c.155-.181.319-.353.491-.518s.329-.3.5-.441c.267-.229.056.029-.067.047.086-.013.222-.164.3-.219a13.653,13.653,0,0,1,1.236-.765c.415-.228.84-.439,1.27-.637.034-.016.65-.3.652-.29q-.418.175-.119.051l.119-.049.358-.145c.877-.349,1.766-.666,2.651-.993a2,2,0,1,0-1.063-3.857Z"/><path class="d" d="M131.069,106.526a17.448,17.448,0,0,0-6.127,1.911,16.11,16.11,0,0,0-4.953,3.158,9.662,9.662,0,0,0-1.947,8.948c1.137,3.281,5.322,5.438,8.177,2.671a9.59,9.59,0,0,0,1.6-2.741c.452-.874.873-1.395,2.081-1.274l-1.009-.273c-.075-.342-.1-.4-.067-.169a2.367,2.367,0,0,1,.011.5,6.18,6.18,0,0,1-.139.9,19.121,19.121,0,0,0-.336,2.129,8.659,8.659,0,0,0,.9,4.379,39.321,39.321,0,0,0,3.9,6.966,2.061,2.061,0,0,0,2.736.717,2.013,2.013,0,0,0,.717-2.736,30.879,30.879,0,0,1-2.552-4.354c-.7-1.36-1.733-2.774-1.727-4.358.008-1.877.853-3.6.281-5.492-.637-2.1-2.892-2.556-4.776-1.966-2.25.7-3.651,2.823-4.429,4.95.047-.126.071-.071.059-.069-.242.045-.374.2-.645.14-.4-.088-.714-.569-.874-.905a5.274,5.274,0,0,1-.014-3.312c.413-1.684,1.539-2.514,3.016-3.3,1.905-1.019,3.928-2.21,6.123-2.417a2.054,2.054,0,0,0,2-2,2.015,2.015,0,0,0-2-2Z"/><path class="d" d="M117.893,109.3c1.17-3.805-1.044-8.807-5.558-8.623-4.137.169-5.2,4.656-6.225,7.849a12.021,12.021,0,0,0-.711,6.57,13.118,13.118,0,0,0,2.351,4.961,28.673,28.673,0,0,0,4.595,4.34c1.768,1.537,2.886,3.531,4.238,5.42,2.83,3.954,6.413,8.511,11.631,8.962,2.564.222,2.549-3.78,0-4-2.967-.256-5.439-3.384-7.122-5.552-1.2-1.548-2.272-3.193-3.381-4.807a17.464,17.464,0,0,0-3.429-3.6c-2.27-1.871-4.4-3.775-5.026-6.79-.347-1.668.263-3.024.753-4.576a22.252,22.252,0,0,1,1.2-3.508c.382-.746.9-1.565,1.834-1.165,1.347.579,1.354,2.281.993,3.454-.758,2.466,3.1,3.52,3.858,1.063Z"/><path class="d" d="M183.374,143.959c2.025,6.576,4.171,13.115,6.118,19.715a105.456,105.456,0,0,1,3.864,16.029c1.182,9.095.329,19.809-6.134,26.907-3.179,3.491-7.788,6.223-12.575,6.54-4.614.3-8.913-1.652-12.4-4.567-8.31-6.949-13.007-17.384-16.933-27.216-5.114-12.81-9.691-25.768-13.6-38.994l-.919,2.259A58.232,58.232,0,0,1,140.2,139.1a64.22,64.22,0,0,1,9.5-4.151c.245-.077.491-.146.739-.213.171-.046.59-.251.308-.08-.183.113-.193.013,0,.013.262,0-.339-.054-.338-.053.31.274.785.436,1.118.707,2.028,1.649,3.332,4.19,4.88,6.253,3.427,4.569,6.7,9.225,9.762,14.049,3.42,5.388,6.643,10.907,9.587,16.57,1.188,2.285,4.641.265,3.454-2.019A213.943,213.943,0,0,0,160,139.749c-1.761-2.326-3.234-5.027-5.392-7.022-1.375-1.271-2.955-2.3-4.867-1.926-3.276.641-6.509,2.4-9.489,3.831a64.349,64.349,0,0,0-11.477,6.546,2.083,2.083,0,0,0-.919,2.258c3.644,12.318,7.9,24.357,12.555,36.329,4.21,10.835,8.939,22.248,17.583,30.378,3.8,3.569,8.385,6.322,13.63,6.925,5.472.63,10.978-1.464,15.277-4.765,8.5-6.524,11.234-17.6,10.847-27.869-.241-6.406-1.774-12.583-3.5-18.725-2.157-7.658-4.671-15.211-7.012-22.813-.755-2.453-4.617-1.407-3.857,1.063Z"/><path class="a" d="M302.3,237.889h62.85a173.179,173.179,0,0,0,.268,21.168,77.748,77.748,0,0,0,1.732,12.913c.761,2.986,1.3,6.389,2.947,8.731H295.431a170.143,170.143,0,0,1,2.347-21.946c1.2-6.794,3.036-15.447,4.522-20.659"/><path class="h" d="M357.545,121.753c-1.111-.784-2.364-1.715-3.63-2.747A38.783,38.783,0,0,0,364.8,105c.159-.484.484-1.4.774-2.477l.6-.094a7.567,7.567,0,0,0,3.523-1.588,11.417,11.417,0,0,0,2.955-3.878q.281-.562.52-1.141l.663,1.112c1.693,3.187,3.472,7.247,1.34,12.275a54.143,54.143,0,0,0-2.531,8.411c-.675,2.81,1.265,5.1,3.779,6.521.737,1.888-8.169,4.548-14.991.168C361.432,124.307,359.779,123.329,357.545,121.753Z"/><path class="a" d="M367.21,84.039a4.492,4.492,0,0,1,3.6-1.052,4.246,4.246,0,0,1,3.052,2.029,6,6,0,0,1,.628,2.413,17.979,17.979,0,0,1-1.834,9.532,11.417,11.417,0,0,1-2.955,3.878,7.567,7.567,0,0,1-3.523,1.588l-.6.094c-.289,1.082-.614,1.993-.773,2.477-1.063,2.886-7.188,13.127-14.784,16.29l0,.163c.036,2.2-.081,6.686,1.082,8.548,2.045,3.272,11.216,7.027,11.511,7.149,0,0-2.621,19.949-26.621,19.949s-26.2-19.5-26.2-19.5c.562-.192,10.841-3.809,12.686-9.371a23.754,23.754,0,0,0,1.128-6.776l.007-.421a26.388,26.388,0,0,1-8.7-7.051,30.588,30.588,0,0,1-5.828-11.375l-1.148-.177a7.571,7.571,0,0,1-3.524-1.588,11.429,11.429,0,0,1-2.955-3.878,17.987,17.987,0,0,1-1.833-9.532,5.987,5.987,0,0,1,.628-2.413,4.246,4.246,0,0,1,3.051-2.029,4.494,4.494,0,0,1,3.6,1.052S305.543,59.1,337.543,59.1,367.21,84.039,367.21,84.039Z"/><path class="h" d="M367.21,84.039a4.492,4.492,0,0,1,3.6-1.052,3.536,3.536,0,0,1,.559.127c2.534-5.868,1.256-15.791.245-20.739-3.126-15.327-18.563-27.493-34.751-26.6-16.189-.889-31.626,11.277-34.751,26.6a44.378,44.378,0,0,0,.007,14.637l1.525,5.938a4.572,4.572,0,0,1,2.629.63,94.538,94.538,0,0,0,14.1-11.271l7.511.133a37.914,37.914,0,0,0,20.842-11.919c.284.9.472,1.5.472,1.5,1.956,6.168,11.317,13.431,15.093,15.449Z"/><path class="i" d="M383.892,216.575a40.519,40.519,0,0,0,5.575,5.669c3.878,3.376,11.981,8.013,16.285,2.547,3.7-4.7,3.982-6.737,2.927-12.24a210.241,210.241,0,0,0-6.1-23.048c-1.658-4.884-2.38-7.578-4.276-12.339-1.862-5.322-6.332-20.957-12.628-27.921-6.591-7.292-20.627-13.228-21.382-11.846-4.33,3.925-17.747,7.945-27.562,7.92-10.374-.025-21.476-3.859-27.377-7.719l-.1-.063c-10.195-.095-26,2.27-31.986,1.96-6.42-.331-7.793-.055-14.179-.232l-.723-.02c1.945-10.46,6.437-28.709,8.136-35.4-5.854.238-18.32-1.135-23.023-.41-1.064,3.547-9.606,24.779-12.194,33.083-1.871,6-5.9,18.9.487,23.972,3.329,2.643,11.091,3.982,14.9,4.258,4.848.35,50,5.164,44.937,5.938,1.847,12.847,5.183,32.411,7.264,42.717.44,3.5-1,13.938-2.82,24.489h70.679Z"/><path class="j" d="M367.5,273.392c-.113-.481-.226-.956-.345-1.422a77.748,77.748,0,0,1-1.732-12.913,176.028,176.028,0,0,1-.109-24.155c.412-6.677,1.654-22.033,7.184-22.883,1.821-.781,4.826.064,6.884-.04l1.765-.09.082.19a20.7,20.7,0,0,0,2.668,4.5,40.519,40.519,0,0,0,5.575,5.669c.539.469,1.16.963,1.841,1.451,1.78,1.144,8.488,30.279,9.154,34.239a62.481,62.481,0,0,1,1.253,14.272c-.149,2.815.279,4.879-2.388,6.3-2.356,1.254-19.186,5.676-24.56,4.974C369.573,282.8,368.552,277.9,367.5,273.392Z"/><path class="d" d="M304.044,76.48a37.039,37.039,0,0,1-.307-11.588,27.464,27.464,0,0,1,3.829-11.065,33.507,33.507,0,0,1,18.683-14.718,40.492,40.492,0,0,1,12.238-1.383,30.691,30.691,0,0,1,12.007,2.479,33.527,33.527,0,0,1,17.2,16.561,37.229,37.229,0,0,1,2.869,11.975c.452,4.536.659,9.487-1.108,13.785a2.013,2.013,0,0,0,1.4,2.461,2.05,2.05,0,0,0,2.46-1.4c1.711-4.162,1.71-9.006,1.376-13.424a47.555,47.555,0,0,0-2.283-12.357,36.871,36.871,0,0,0-17.492-19.9,36.293,36.293,0,0,0-13.023-4,60.827,60.827,0,0,0-6.845-.183,34.256,34.256,0,0,0-6.934.763,37.591,37.591,0,0,0-22.37,14.825,32.09,32.09,0,0,0-5.727,13.415,40.518,40.518,0,0,0,.167,14.815c.56,2.511,4.417,1.448,3.858-1.064Z"/><path class="d" d="M368.624,85.453a2.417,2.417,0,0,1,3.434.452,5.093,5.093,0,0,1,.487,2.572,15.251,15.251,0,0,1-.214,3.122c-.678,3.712-2.564,8.16-6.689,8.9a2.018,2.018,0,0,0-1.4,2.46,2.044,2.044,0,0,0,2.46,1.4c6.3-1.13,9.31-8.246,9.784-13.959.244-2.936.005-6.286-2.535-8.188a6.528,6.528,0,0,0-8.158.416,2.015,2.015,0,0,0,0,2.828,2.043,2.043,0,0,0,2.828,0Z"/><path class="d" d="M364.127,99.081a16.938,16.938,0,0,1-.987,4.575c-.089.27-.191.538-.271.811-.038.127-.2.476.027-.045-.139.322-.29.637-.447.95a38.535,38.535,0,0,1-3.322,5.34c-2.893,3.968-6.821,8.172-11.776,9.335-2.5.587-1.445,4.445,1.063,3.857,5.924-1.39,10.519-6.233,14-10.951,3.01-4.075,5.5-8.693,5.709-13.872.105-2.574-3.895-2.569-4,0Z"/><path class="d" d="M308.306,82.625a6.531,6.531,0,0,0-8.159-.416c-2.541,1.9-2.778,5.257-2.535,8.188.475,5.713,3.482,12.829,9.784,13.959a2.056,2.056,0,0,0,2.46-1.4,2.017,2.017,0,0,0-1.4-2.46c-4.124-.74-6.011-5.188-6.688-8.9a15.077,15.077,0,0,1-.217-2.948,5.858,5.858,0,0,1,.417-2.626,2.4,2.4,0,0,1,3.506-.572,2.055,2.055,0,0,0,2.829,0,2.016,2.016,0,0,0,0-2.828Z"/><path class="d" d="M306.18,98.822a34.957,34.957,0,0,0,7.446,16.733c4.191,4.962,9.74,8.547,16.274,9.252a2.013,2.013,0,0,0,2-2,2.045,2.045,0,0,0-2-2c-5.588-.6-10.254-4.185-13.72-8.411-3.421-4.17-5.226-9.386-6.143-14.638a2.016,2.016,0,0,0-2.46-1.4,2.046,2.046,0,0,0-1.4,2.46Z"/><path class="d" d="M283.669,65.652c7.047-11.736,4.719-27.688-6.306-36.079a29.039,29.039,0,0,0-8.336-4.328c-2.444-.826-3.492,3.036-1.063,3.857a22.966,22.966,0,0,1,13.623,11.785,24.62,24.62,0,0,1-1.372,22.746c-1.328,2.213,2.129,4.226,3.454,2.019Z"/><path class="d" d="M251.257,24.659A25.376,25.376,0,0,0,233.37,40.134c-3.44,8.838-2.7,19.7,3.134,27.346a29.11,29.11,0,0,0,12.2,9.155,2.012,2.012,0,0,0,2.46-1.4,2.051,2.051,0,0,0-1.4-2.46A22.937,22.937,0,0,1,235.6,55.341c-1.155-7.525.95-16.119,6.549-21.465a22.435,22.435,0,0,1,10.175-5.36c2.5-.623,1.438-4.482-1.063-3.857Z"/><path class="d" d="M249.334,61.336a14.023,14.023,0,0,1-3.952-13.228,12.86,12.86,0,0,1,6.852-9.385c2.294-1.17.273-4.622-2.018-3.454a16.666,16.666,0,0,0-8.757,12.139c-1.071,6.2.383,12.36,5.046,16.757,1.872,1.765,4.706-1.059,2.829-2.829Z"/><path class="d" d="M267.128,39.147a13.038,13.038,0,0,1,5.994,6.867,14.93,14.93,0,0,1-.759,11.822c-1.184,2.282,2.267,4.307,3.454,2.019a18.945,18.945,0,0,0,1.162-14.9,17.242,17.242,0,0,0-7.832-9.258c-2.243-1.273-4.261,2.182-2.019,3.454Z"/><path class="d" d="M249.9,7.163c0,10.414-.064,20.828-.065,31.243a2.029,2.029,0,0,0,2,2c5.413,0,10.826-.15,16.24-.154a2.028,2.028,0,0,0,2-2c0-8.731-.158-17.464-.231-26.2-.013-1.557-.032-3.115-.028-4.672.007-2.574-3.993-2.578-4,0-.021,8.585.152,17.174.226,25.759.014,1.7.032,3.406.033,5.109l2-2c-5.414,0-10.827.149-16.24.154l2,2c0-10.415.064-20.829.065-31.243,0-2.574-4-2.578-4,0Z"/><path class="a" d="M248.226,102.883a20.479,20.479,0,0,1,1.224-4.165c1.254-2.975,1.058-4.693.282-7.753-.7-2.755-3.154-10.822-1.529-13.6l2.035-4.344a15.225,15.225,0,0,1-1.651-4.138c-.4-1.657-1.141-4.771-.356-6.363a7.472,7.472,0,0,1,3.07-3.329,24.106,24.106,0,0,1,10.259-2.576c1.673-.637,3.169-1.429,5.012-1.112.83.143,3.221,1.677,4,1.651a15.12,15.12,0,0,1,2.067,1.9c2.827-.413,5.981,2.137,8.244,4.483a12.916,12.916,0,0,1,3.03,4.12c.727,2.27.171,3.523-.082,5.538a19.25,19.25,0,0,1-2.591,7.62,14.094,14.094,0,0,1-4.79,5.825,21.882,21.882,0,0,0-3.624,2.81,8.541,8.541,0,0,0-1.571,4.145c-.678,3.491-.583,7.014-1.315,10.5Z"/><path class="d" d="M250.154,103.415c.4-2.034,1.272-3.842,1.81-5.82a11.591,11.591,0,0,0,.157-5.078c-.439-2.567-1.3-5.058-1.843-7.606a25.626,25.626,0,0,1-.6-3.992,10.292,10.292,0,0,1,.012-1.647,4.031,4.031,0,0,1,.238-.9c.6-1.314,1.263-2.6,1.894-3.9,1.121-2.306-2.328-4.336-3.454-2.019-.631,1.3-1.274,2.594-1.894,3.9-1.2,2.533-.833,5.35-.365,8.03.433,2.482,1.141,4.893,1.749,7.334a9.3,9.3,0,0,1,.247,4.81c-.538,1.979-1.414,3.786-1.81,5.82-.49,2.515,3.365,3.592,3.857,1.064Z"/><path class="d" d="M270.572,55.155c.589.05-.14-.1-.111-.086-.327-.162-.66-.312-.987-.474a14.32,14.32,0,0,0-2.06-.932c-1.97-.6-3.839.094-5.678.746-1.328.47-3.031.364-4.475.655a28.2,28.2,0,0,0-5.516,1.727c-3.468,1.481-6.131,4.453-5.827,8.4.235,3.058,1.039,6.648,2.83,9.191a5.082,5.082,0,0,0,4.365,2.374,4.319,4.319,0,0,0,4.291-2.923c.807-2.451-3.055-3.5-3.857-1.063.026-.081.1-.113.16-.16-.2.153-.087.076-.334.13a2.022,2.022,0,0,1-.905-.085c.293.107-.118-.113.05.03a2.875,2.875,0,0,1-.4-.439,7.424,7.424,0,0,1-.886-1.652,18.7,18.7,0,0,1-.894-3,10.482,10.482,0,0,1-.427-3.794c.378-2.432,3.554-3.527,5.6-4.164a24.678,24.678,0,0,1,4.05-.938,11.533,11.533,0,0,1,1.461-.1,5.51,5.51,0,0,0,2.127-.477,8.424,8.424,0,0,1,2.282-.685,1.84,1.84,0,0,1,1.286.244,11.481,11.481,0,0,0,3.856,1.47,2.016,2.016,0,0,0,2-2,2.042,2.042,0,0,0-2-2Z"/><path class="d" d="M252.555,66.267a45.646,45.646,0,0,0,1.146,5.222,11,11,0,0,0,2.24,4.822,5.2,5.2,0,0,0,6.295.545,5.279,5.279,0,0,0,2.167-2.7,6.88,6.88,0,0,0,.222-2.936,52.189,52.189,0,0,0-1.379-7.09,2.017,2.017,0,0,0-2.461-1.4,2.043,2.043,0,0,0-1.4,2.46c.4,1.71.843,3.412,1.124,5.147.025.152.089.633.039.226.027.218.053.435.073.654a11.611,11.611,0,0,1,.051,1.223c0,.094-.01.189-.01.283,0,.318-.055-.134.024-.137,0,0-.115.39-.122.442-.033.241.2-.31.045-.119a1.742,1.742,0,0,0-.131.227.841.841,0,0,1-.109.163q.252-.318.1-.15c-.043.05-.089.1-.137.144a1.454,1.454,0,0,0-.148.134c-.148.192.308-.161.082-.069-.079.032-.322.257-.419.235.064.014.367-.111.085-.048-.087.02-.192.048-.278.077-.16.052-.212.15.093,0a1.052,1.052,0,0,1-.384.019c-.106,0-.212-.013-.317-.014-.227,0,.1.01.123.017a2.071,2.071,0,0,0-.335-.075c-.281-.019.157.025.193.1a1.057,1.057,0,0,0-.18-.1c-.21-.166.056.167.151.13-.045.018-.281-.276-.312-.307-.225-.227.1.092.1.134a1.168,1.168,0,0,0-.134-.2c-.079-.122-.151-.247-.22-.374-.081-.152-.146-.312-.228-.463-.108-.2.083.185.071.175a1.557,1.557,0,0,1-.146-.374c-.235-.632-.419-1.281-.592-1.933a45.3,45.3,0,0,1-1.131-5.163,2.006,2.006,0,0,0-2.461-1.4,2.061,2.061,0,0,0-1.4,2.46Z"/><path class="d" d="M267.437,62.176a43.92,43.92,0,0,0-.228,7.246c-.008,1.247-.042,2.491-.16,3.733-.042.441.073-.389.009-.056-.019.095-.031.192-.049.288-.04.207-.108.405-.153.609-.076.343.188-.4.088-.2a1.027,1.027,0,0,1-.086.147s.331-.531.188-.259a.527.527,0,0,1-.107.1c-.136.12.2-.157.2-.155a1.923,1.923,0,0,0-.24.149c-.052.029-.108.053-.158.084-.268.168.117-.083.134-.047,0,.006-.461.159-.506.171-.073.021-.477.172-.543.121-.018-.014.425-.023.181-.026-.117,0-.236.019-.354.021-.071,0-.142,0-.212,0-.349.008-.04.081.042.027-.083.055-.376-.106-.471-.112-.245-.015.3.19.1.05a1.181,1.181,0,0,0-.238-.132c-.174-.056.1.074.129.111-.066-.074-.375-.416-.069-.012a2.053,2.053,0,0,0-2.736-.718,2.02,2.02,0,0,0-.717,2.737,4.741,4.741,0,0,0,2.669,1.878,6.612,6.612,0,0,0,2.949,0A4.585,4.585,0,0,0,270.7,75.1a13.5,13.5,0,0,0,.471-3.748c.056-1.52.039-3.041.037-4.562,0-.767,0-1.534.019-2.3.009-.321.021-.642.044-.962.009-.121.021-.241.031-.362.04-.485-.084.509-.009.078a2.047,2.047,0,0,0-1.4-2.46,2.023,2.023,0,0,0-2.46,1.4Z"/><path class="d" d="M262.013,87.844c2.62-1.361,2.8-4.094,4.084-6.413a5.541,5.541,0,0,1,1.2-1.473,13.8,13.8,0,0,1,3.335-2.444,9.732,9.732,0,0,0,3.713-2.67,6.59,6.59,0,0,0,1.522-4.42,6.828,6.828,0,0,0-1.855-4.187c-.953-.988-1.6-.884-1.919-2.192a4.285,4.285,0,0,1,.089-2.422c.1-.235.428-.554.286-.483a2.768,2.768,0,0,1,2.043.112c2.542.9,4.9,3.318,6.538,5.415a5.228,5.228,0,0,1,1.172,4.023,33.259,33.259,0,0,1-.837,4.714,20.42,20.42,0,0,1-3.955,7.71c-2.429,2.778-6.195,3.817-7.514,7.55-1.452,4.107-1.062,8.668-1.9,12.9-.5,2.514,3.354,3.59,3.857,1.063.809-4.063.576-8.326,1.722-12.321.5-1.742,1.854-2.542,3.272-3.522a17.682,17.682,0,0,0,3.6-3.081,25.508,25.508,0,0,0,4.681-8.888,39.88,39.88,0,0,0,.911-4.917,9.342,9.342,0,0,0-.464-5.374c-1.3-2.963-4.19-5.583-6.775-7.435-2.5-1.794-6.6-3.274-9.163-.756-1.931,1.9-2.061,5.258-1.129,7.655a6.242,6.242,0,0,0,.9,1.635c.475.608,1.106.824,1.641,1.326a2.4,2.4,0,0,1,.246,3.3c-.952,1.417-2.927,1.839-4.3,2.791a16.5,16.5,0,0,0-3.265,2.886,9.136,9.136,0,0,0-1.6,2.627c-.506,1.265-.839,3.16-2.15,3.841-2.285,1.187-.265,4.64,2.019,3.454Z"/><path class="d" d="M321.6,121.451a24.443,24.443,0,0,1-1.109,6.4c-.1.355.125-.207-.051.123-.078.146-.149.295-.23.439s-.171.29-.263.431c-.046.071-.1.14-.143.211-.021.032-.231.323-.1.145.113-.151-.175.211-.228.272q-.174.2-.357.4c-.27.286-.554.56-.847.823-.276.248-.562.487-.854.716.246-.193-.116.084-.193.14-.177.13-.357.256-.538.38-.664.456-1.35.878-2.051,1.274a39.292,39.292,0,0,1-3.629,1.793c-.426.186.242-.1-.054.023l-.373.152q-.313.128-.63.247c-.231.089-.464.175-.7.255a2.049,2.049,0,0,0-1.4,2.461,2.02,2.02,0,0,0,2.46,1.4,38.27,38.27,0,0,0,6.1-2.741c2.908-1.614,6.116-3.82,7.542-6.945a21.734,21.734,0,0,0,1.637-8.39c.059-2.575-3.941-2.574-4,0Z"/><path class="d" d="M348.016,121.451c.053,3.621-.321,8.03,2.377,10.849,2.325,2.43,5.633,4.029,8.638,5.438q1.507.707,3.047,1.338a2.012,2.012,0,0,0,2.46-1.4,2.052,2.052,0,0,0-1.4-2.461c-.06-.024-.12-.051-.181-.075-.281-.109.411.177.257.109-.085-.038-.171-.073-.256-.109q-.725-.315-1.442-.642c-1.352-.622-2.686-1.284-3.986-2.009-.711-.4-1.412-.811-2.093-1.257-.326-.213-.649-.434-.964-.664-.107-.078-.412-.32-.143-.1-.17-.137-.339-.275-.5-.419-.229-.2-.451-.409-.659-.631-.053-.056-.406-.455-.2-.216.185.22-.1-.138-.141-.213-.08-.131-.149-.267-.216-.406.155.323.009-.01-.038-.158a11.97,11.97,0,0,1-.3-1.311s-.054-.334-.025-.144c.026.173-.044-.377-.043-.365-.026-.252-.048-.5-.067-.755-.04-.54-.064-1.08-.08-1.621-.027-.926-.025-1.853-.038-2.779-.037-2.571-4.038-2.579-4,0Z"/><path class="g" d="M372.51,172.341c1.236,7.615-.6,30.139-1.971,41.059-.81,6.452,4.769,36.467,7.323,47.327"/><path class="d" d="M300.371,237.563a191.947,191.947,0,0,0-6.94,43.137c-.119,2.574,3.881,2.568,4,0a187.064,187.064,0,0,1,6.8-42.073c.7-2.482-3.156-3.541-3.857-1.064Z"/><path class="d" d="M302.3,239.889h60.947c2.574,0,2.578-4,0-4H302.3c-2.574,0-2.578,4,0,4Z"/><path class="d" d="M308.344,139.325c6.913,4.466,15.413,6.855,23.534,7.72a56.257,56.257,0,0,0,23.973-3.15,30.3,30.3,0,0,0,9.626-4.883c1.984-1.643-.86-4.459-2.829-2.828a25.233,25.233,0,0,1-7.182,3.615,63.876,63.876,0,0,1-10.7,2.793,49.884,49.884,0,0,1-23.475-1.811,44.243,44.243,0,0,1-10.926-4.91c-2.169-1.4-4.177,2.06-2.019,3.454Z"/><path class="d" d="M300.876,213.4c.364,3.189-.191,6.569-.579,9.73-.617,5.029-1.441,10.033-2.307,15.025a2.057,2.057,0,0,0,1.4,2.46,2.017,2.017,0,0,0,2.461-1.4c.9-5.211,1.743-10.435,2.4-15.683.412-3.289,1.008-6.814.629-10.135a2.059,2.059,0,0,0-2-2,2.012,2.012,0,0,0-2,2Z"/><path class="d" d="M312.9,135.692c-6.479-.59-13.109.175-19.562.753-5.967.534-11.9,1.2-17.9.966-4.116-.163-8.235-.039-12.352-.148-2.575-.068-2.573,3.932,0,4,3.533.094,7.066,0,10.6.091,2.864.072,5.667.207,8.529.029,6.737-.42,13.443-1.245,20.183-1.646a70.235,70.235,0,0,1,10.5-.045,2.014,2.014,0,0,0,2-2,2.043,2.043,0,0,0-2-2Z"/><path class="d" d="M292.973,166.048c1.689,12.9,3.872,25.749,6.2,38.548.567,3.116,1.149,6.23,1.775,9.335.508,2.522,4.364,1.454,3.857-1.063-2.507-12.444-4.582-24.99-6.5-37.537-.471-3.091-.93-6.184-1.336-9.283a2.066,2.066,0,0,0-2-2,2.012,2.012,0,0,0-2,2Z"/><path class="d" d="M295.505,168.2c-2.612-.607-5.305-.926-7.959-1.289-4.223-.576-8.454-1.095-12.687-1.592-7.379-.866-14.765-1.7-22.162-2.4a59.716,59.716,0,0,1-9.8-1.52c-2.085-.554-4.491-1.213-6.133-2.691a8.077,8.077,0,0,1-2.341-5.063c-.6-4.594.65-9.387,1.928-13.763,1.073-3.674,2.342-7.281,3.661-10.872,1.86-5.067,3.8-10.1,5.728-15.144,1.253-3.276,2.648-6.547,3.67-9.906l-1.4,1.4c-.318.046.576-.052.72-.063.368-.026.736-.043,1.1-.055.851-.029,1.7-.028,2.554-.016,2.116.028,4.231.13,6.344.237,3.911.2,7.849.522,11.768.379l-1.929-2.531c-2.679,10.56-5.262,21.164-7.444,31.84-.52,2.541-1.023,5.091-1.388,7.66a2.068,2.068,0,0,0,1.4,2.46,2.013,2.013,0,0,0,2.46-1.4c.721-5.075,1.87-10.1,2.989-15.1,1.3-5.8,2.674-11.582,4.088-17.354q.865-3.526,1.755-7.048a2.02,2.02,0,0,0-1.928-2.532c-4.035.147-8.091-.2-12.118-.4a59.364,59.364,0,0,0-11.436.057,1.969,1.969,0,0,0-1.4,1.4c-.911,2.994-2.144,5.911-3.26,8.832-1.737,4.547-3.486,9.089-5.188,13.65-1.416,3.8-2.821,7.6-4.017,11.472-1.434,4.641-2.743,9.468-2.785,14.359-.042,4.863,1.553,9.674,6.1,12.035,4.363,2.267,9.552,3.113,14.405,3.506,6.595.535,13.177,1.32,19.75,2.067,4.887.556,9.773,1.132,14.649,1.775,2.909.384,6.217.759,9.237,1.46,2.5.582,3.573-3.274,1.063-3.857Z"/><path class="i" d="M365.274,137.222c3.45.431,14.7,5.72,20.4,12.021,6.3,6.964,10.766,22.6,12.628,27.921,1.9,4.761,2.618,7.455,4.276,12.339a210.241,210.241,0,0,1,6.1,23.048c1.055,5.5.771,7.544-2.927,12.24-4.3,5.466-12.407.829-16.285-2.547-5.319-4.631-8.591-8.5-9.79-15.546l-4.3-23.592Z"/><path class="i" d="M378.094,170.379a99.058,99.058,0,0,0-2-18.892c-1.541-7.254-3.592-11.707-5.588-13.569-1.506-.72-4.188-1.327-5.188-.533,2.3,2.894,3.47,11.563,3.991,15.965.509,4.309,1.056,22.351,1.05,22.04l.313,22.837a130.719,130.719,0,0,1-.262,14.317l7.808.044a65.246,65.246,0,0,0,.262-12.96Z"/><path class="d" d="M364.742,139.15c3.1.432,6.177,2.13,8.88,3.608a39.468,39.468,0,0,1,10.73,8c2.65,2.98,4.45,6.76,6.042,10.381,1.662,3.778,3.028,7.684,4.331,11.6,2.7,8.118,5.748,16.114,8.1,24.351,1.331,4.664,2.548,9.37,3.549,14.116a25.4,25.4,0,0,1,.834,6.112,9.1,9.1,0,0,1-1.95,4.814c-1.3,1.874-2.621,3.241-5.03,3.172a13.124,13.124,0,0,1-6.1-2.155,31.382,31.382,0,0,1-5.662-4.525,24.05,24.05,0,0,1-5.509-7.556,2.015,2.015,0,0,0-2.737-.717,2.049,2.049,0,0,0-.717,2.736c2.243,5.054,6.517,9.327,11,12.476,3.5,2.456,8.417,4.772,12.755,3.332,2.584-.857,4.2-2.86,5.666-5.05a12.592,12.592,0,0,0,2.26-6.1,25.557,25.557,0,0,0-.817-6.955c-.5-2.446-1.076-4.877-1.684-7.3-1.245-4.96-2.614-9.9-4.249-14.745-1.562-4.628-3.253-9.22-4.787-13.854-2.7-8.171-5.312-16.808-10.183-24-3-4.43-7.27-7.723-11.825-10.448a56.522,56.522,0,0,0-6.738-3.456,20.445,20.445,0,0,0-5.091-1.7,2.068,2.068,0,0,0-2.46,1.4,2.014,2.014,0,0,0,1.4,2.46Z"/><path class="d" d="M379.377,209.979c-3.037.082-6.09-.871-8.938.668-2,1.079-3.123,3.252-3.945,5.268-2.042,5.011-2.552,10.709-2.98,16.056a176.71,176.71,0,0,0-.306,23.891c.414,7.426,1.083,15.028,3.426,22.136.885,2.684,2.349,5.326,4.994,6.607a12.681,12.681,0,0,0,6.905.814,95.27,95.27,0,0,0,15.873-3.19,42.4,42.4,0,0,0,5.259-1.7c2.757-1.162,3.872-3.479,3.989-6.355a76.108,76.108,0,0,0-1.663-18.808,287.23,287.23,0,0,0-7.067-28.227c-.251-.791-.515-1.578-.813-2.352a2.059,2.059,0,0,0-2.46-1.4,2.016,2.016,0,0,0-1.4,2.461,106.988,106.988,0,0,1,3.455,11.812q1.857,7.217,3.488,14.49a113.632,113.632,0,0,1,2.253,12.429,48.4,48.4,0,0,1,.321,5.709,33.118,33.118,0,0,1-.174,4.767,2.237,2.237,0,0,1-1.43,1.792c-.246.138-.121.05.087-.032-.122.048-.244.1-.367.142-.332.12-.664.238-1,.349a103.2,103.2,0,0,1-13.546,3.381,44.59,44.59,0,0,1-6.539.848c-1.884.069-3.694-.178-4.949-1.807-1.465-1.9-1.882-4.543-2.418-6.82a75.46,75.46,0,0,1-1.772-10.785,181.811,181.811,0,0,1-.479-25.006,94.356,94.356,0,0,1,1.662-15.024,22,22,0,0,1,2.087-6.277c.11-.193.227-.381.347-.568a2.222,2.222,0,0,1,.181-.269c.124-.153.258-.295.4-.435.066-.068.135-.132.2-.2.429-.387-.163.112.1-.075.066-.047.48-.273.293-.189s.243-.07.323-.093a6.14,6.14,0,0,1,1.731-.313c1.631-.014,3.24.338,4.872.294,2.569-.069,2.579-4.07,0-4Z"/><path class="d" d="M377.018,198.83a58.731,58.731,0,0,1,.194,6.265c-.012,1.181-.048,2.362-.121,3.541-.033.546-.075,1.091-.131,1.634-.023.222-.053.442-.076.663-.027.266.069-.427,0-.054-.021.126-.04.253-.062.379a2.047,2.047,0,0,0,1.4,2.46,2.024,2.024,0,0,0,2.46-1.4,44.728,44.728,0,0,0,.526-7.042,59.325,59.325,0,0,0-.192-6.45,2.045,2.045,0,0,0-2-2,2.022,2.022,0,0,0-2,2Z"/><path class="d" d="M369.209,197.429c.184,2.369.111,4.772.066,7.145s-.072,4.8-.328,7.172a2.012,2.012,0,0,0,2,2,2.045,2.045,0,0,0,2-2c.256-2.375.282-4.786.328-7.172s.118-4.776-.066-7.145a2.049,2.049,0,0,0-2-2,2.016,2.016,0,0,0-2,2Z"/><path class="d" d="M380.167,175.833a152.783,152.783,0,0,0-.7-15.646,92.016,92.016,0,0,0-1.963-11.5,33.917,33.917,0,0,0-3.772-9.894,6.693,6.693,0,0,0-3.427-3.111c-1.8-.661-4.278-1.144-6-.025a2.015,2.015,0,0,0-.717,2.736c1.862,2.455,2.335,6.058,2.858,9.006a78.482,78.482,0,0,1,1.057,8.226c.425,6.073.6,12.167.8,18.251.085,2.567,4.085,2.579,4,0-.323-9.71-.378-19.533-2.3-29.093-.562-2.8-1.2-6.084-2.968-8.409l-.718,2.736a1.871,1.871,0,0,1,1.213-.04,8.433,8.433,0,0,1,1.213.3c.164.051.325.11.488.167.462.161-.175-.2.046-.018a8.171,8.171,0,0,1,1.635,2.419,37.844,37.844,0,0,1,3.091,9.377,88.432,88.432,0,0,1,2.077,19.117c0,1.8.048,3.6.072,5.4.035,2.572,4.035,2.579,4,0Z"/><path class="a" d="M370.07,174.348a5.98,5.98,0,0,0-5.191,1.252c-2.711,2.487-2.233,6.084,1.494,6.659-3.395-.99-4.951,3.3-2.752,5.942-2.581.912-2.482,3.818-1.633,5.657.789,1.709,5.987,2.5,7.216,2.634-2.695.307-4.5,1.443-4.812,3.165-.2,1.119-.126,2.3,1.956,3.426,3.494,1.891,8.148,1.775,12.173,2.218,7.09,1.509,8.946,2.746,15.575.014,5.8-2.391,4.559-9.436,1.539-13.538-3.219-4.373-3.822-4.5-7.591-8.277-4.613-4.62-8.109-7.352-14.751-8.559C372.23,174.748,371.141,174.49,370.07,174.348Z"/><path class="d" d="M370.07,172.348c-3.7-.44-7.615,1.274-8.687,5.121a5.326,5.326,0,0,0,4.458,6.719c2.494.459,3.595-3.226,1.063-3.857a4.8,4.8,0,0,0-5.782,2.652,6.4,6.4,0,0,0,1.084,6.632l.883-3.343a5.269,5.269,0,0,0-3.538,4.148,6.555,6.555,0,0,0,1.213,5.152c1.939,2.162,5.714,2.6,8.44,2.92v-4c-3.209.422-6.568,1.844-6.861,5.5-.3,3.745,3.713,5.5,6.766,6.219,3.63.852,7.394.655,11.019,1.494,2.888.667,5.821,1.475,8.809,1.122,3.076-.363,6.94-1.428,9.07-3.821a9.5,9.5,0,0,0,1.967-8.058c-.923-5.66-5.424-9.882-9.339-13.7-2.7-2.632-5.34-5.364-8.618-7.289a31.234,31.234,0,0,0-11.415-3.541,2.067,2.067,0,0,0-2.46,1.4,2.015,2.015,0,0,0,1.4,2.461,32.147,32.147,0,0,1,8.7,2.213,24.163,24.163,0,0,1,6.2,4.311c1.962,1.8,3.854,3.7,5.745,5.579a28.89,28.89,0,0,1,4.351,5.345,10.057,10.057,0,0,1,1.62,5.881c-.17,2.149-1.5,3.371-3.431,4.114a13.989,13.989,0,0,1-6.815,1.126c-2.764-.335-5.4-1.362-8.177-1.624-3.308-.312-6.977-.2-10.035-1.689-.459-.224-1.2-.525-1.4-1.06.038.1.03-.461.063-.541.417-.992,1.894-1.315,2.846-1.44a2,2,0,0,0,0-4c-.077-.01-.523-.076-.076-.008-.21-.032-.42-.064-.63-.1-.473-.08-.945-.17-1.413-.274a12.9,12.9,0,0,1-2.856-.9c-.049-.024-.556-.333-.361-.19-.248-.182-.063.014-.111-.1a4.038,4.038,0,0,1-.306-1.13c-.062-.614.049-1.4.7-1.666a2.04,2.04,0,0,0,.883-3.343,2.28,2.28,0,0,1-.3-2.147c.22-.505.481-.606,1.1-.451l1.063-3.857c-1.266-.234-2.084-.74-1.623-1.951.782-2.054,2.9-2.257,4.789-2.032a2.011,2.011,0,0,0,2-2A2.048,2.048,0,0,0,370.07,172.348Z"/><path class="d" d="M374.182,181.857a67.3,67.3,0,0,0-7.809-1.6,2,2,0,0,0-1.415.586,2,2,0,0,0,0,2.828,2.308,2.308,0,0,0,1.415.586l.216.026c.4.046-.387-.057-.144-.021.15.023.3.044.452.068.347.055.694.117,1.039.183.674.128,1.344.274,2.013.428,1.059.245,2.111.522,3.17.772a2,2,0,0,0,1.063-3.858Z"/><path class="d" d="M372.7,188.534a29.675,29.675,0,0,0-3.764-.858c-1.234-.232-2.474-.433-3.7-.682a2,2,0,0,0-1.064,3.857c1.231.25,2.472.45,3.706.682a29.453,29.453,0,0,1,3.763.859,2.015,2.015,0,0,0,2.46-1.4,2.047,2.047,0,0,0-1.4-2.461Z"/><path class="d" d="M372.845,195.26a19.229,19.229,0,0,0-3.48-.542l.531.072a4.474,4.474,0,0,1-.726-.149,2,2,0,0,0-2.259,2.938,2.146,2.146,0,0,0,1.195.919,8.3,8.3,0,0,0,1.551.256c.442.05.885.087,1.326.146l-.532-.071a7.665,7.665,0,0,1,1.331.288,2,2,0,0,0,2.258-2.938,2.179,2.179,0,0,0-1.195-.919Z"/><path class="d" d="M342,71.843a8.993,8.993,0,0,0,0,3.255,4.965,4.965,0,0,0,1.342,2.533,4.975,4.975,0,0,0,6.138.462,4.6,4.6,0,0,0,2.064-3.718,2,2,0,0,0-4,0c0,.1-.008.206-.02.31l.071-.532a2.6,2.6,0,0,1-.156.577l.2-.478a2.709,2.709,0,0,1-.335.569l.313-.405a3.034,3.034,0,0,1-.472.469l.405-.313a3.268,3.268,0,0,1-.715.413l.478-.2a3.41,3.41,0,0,1-.734.2l.531-.071a3.333,3.333,0,0,1-.835,0l.532.072a3.176,3.176,0,0,1-.784-.209l.478.2a2.687,2.687,0,0,1-.532-.314l.4.313a2.718,2.718,0,0,1-.425-.426l.312.4a3.114,3.114,0,0,1-.374-.641l.2.477a4.225,4.225,0,0,1-.276-1.037l.071.532a6.589,6.589,0,0,1,.014-1.672l-.071.532q.017-.121.036-.243a2.182,2.182,0,0,0-.2-1.541,2,2,0,0,0-2.736-.718,1.933,1.933,0,0,0-.919,1.2Z"/><path class="d" d="M347.262,62.55c1.3,3.974,4.3,7.289,7.3,10.09a43.284,43.284,0,0,0,8.713,6.555c2.265,1.222,4.287-2.231,2.018-3.454a30.87,30.87,0,0,1-3.527-2.289,49.1,49.1,0,0,1-4.218-3.493,37.059,37.059,0,0,1-4.1-4.377c-.085-.108-.086-.109,0,0q-.123-.162-.243-.327c-.138-.19-.274-.381-.406-.575q-.384-.562-.729-1.15c-.218-.375-.411-.759-.606-1.145-.221-.44.013.09-.114-.252-.08-.213-.158-.426-.229-.642a2.044,2.044,0,0,0-2.46-1.4,2.021,2.021,0,0,0-1.4,2.46Z"/><path class="d" d="M327.841,61.566A115.008,115.008,0,0,1,317.7,72.072a90.128,90.128,0,0,1-11.5,9.187c-2.143,1.406-.142,4.871,2.019,3.454A105.763,105.763,0,0,0,330.67,64.394a2.054,2.054,0,0,0,0-2.828,2.016,2.016,0,0,0-2.829,0Z"/><path class="d" d="M349.776,56.152a40.094,40.094,0,0,1-9.726,9.2,37.94,37.94,0,0,1-12.7,5.157c-2.514.548-1.45,4.405,1.063,3.858a41.534,41.534,0,0,0,24.2-15.391,2.066,2.066,0,0,0,0-2.828,2.013,2.013,0,0,0-2.829,0Z"/><path class="d" d="M360.422,126.034a17.89,17.89,0,0,0,10.1,2.637c2.322-.093,5.382-.5,7.082-2.291a2.706,2.706,0,0,0,.391-3.453c-.507-.678-1.474-1.025-2.1-1.61a4.469,4.469,0,0,1-1.213-1.662,3.5,3.5,0,0,1,.056-2.173c.274-1.127.555-2.253.871-3.369.591-2.089,1.57-4.066,2.109-6.16,1.093-4.253-.169-8.269-2.152-12.031-1.2-2.278-4.655-.259-3.454,2.019a14.8,14.8,0,0,1,2.034,6.16c.123,2.937-1.384,5.53-2.2,8.277-.737,2.481-1.883,5.419-1.216,8.02a9.464,9.464,0,0,0,4.687,5.468l-.919-1.195c.11.36.123-.933.115-.911.021-.059.077-.136.1-.124.084.039-.685.368-.647.352a9.925,9.925,0,0,1-3.067.656,14.164,14.164,0,0,1-8.555-2.063c-2.192-1.364-4.2,2.095-2.019,3.453Z"/><path class="d" d="M317.134,95.524c-2.741-4.676-5.012-9.767-8.51-13.952a2.015,2.015,0,0,0-2.828,0,2.043,2.043,0,0,0,0,2.828c.1.123.2.249.3.372-.185-.225-.163-.217,0,.009q.275.372.538.751c.411.592.805,1.2,1.189,1.806.819,1.3,1.6,2.626,2.361,3.96,1.184,2.07,2.284,4.189,3.49,6.245,1.3,2.22,4.76.209,3.454-2.019Z"/><path class="d" d="M360.02,97.543c2.443-3.943,5.052-7.79,7.613-11.657.226-.341.451-.681.678-1.021.18-.269.639-.713-.01-.04l-3.414-1.414h0l.273-1.009-.01.019A2,2,0,0,0,368.6,84.44a1.95,1.95,0,0,0,.284-1.029,2.033,2.033,0,0,0-1.229-1.828,2.006,2.006,0,0,0-2.185.413,10.283,10.283,0,0,0-1.031,1.475q-.906,1.365-1.806,2.734-2.247,3.413-4.477,6.836c-.536.825-1.075,1.647-1.593,2.483a2,2,0,1,0,3.454,2.019Z"/><path class="a" d="M336.33,94.166c-4.723,0-12.6.731-17.71,1.132-.945.074-3.259.346-3.87,1.049-1.137,1.306-.706,4.094-.853,5.677a41.239,41.239,0,0,0,.221,7.6c.341,3.339.506,6.9,2.753,9.5,4.152,4.815,13.775,7.379,20.1,7.379a37.589,37.589,0,0,0,12.37-2.283c3.448-1.259,6.671-3.372,8.475-6.41,1.7-2.864,1.635-5.736,2-9a34.463,34.463,0,0,0,.131-6.912c-.156-1.58.24-4.16-.911-5.482-.612-.7-2.519-1.029-3.463-1.112C349.58,94.783,341.578,94.166,336.33,94.166Z"/><path class="d" d="M336.33,92.166c-4.743.015-9.486.461-14.21.848a42.7,42.7,0,0,0-6.246.678c-2.413.566-3.567,2.159-3.85,4.567a29.048,29.048,0,0,0-.092,2.936c-.019,1.3-.152,2.586-.125,3.888a71.8,71.8,0,0,0,.642,7.65,14.66,14.66,0,0,0,2.445,7.1,16.273,16.273,0,0,0,4.9,4.164c8.392,4.905,18.872,5.593,28.061,2.827,4.8-1.445,9.782-4.048,12.093-8.747a20.5,20.5,0,0,0,1.687-7.388,50.358,50.358,0,0,0,.331-8.574c-.191-2.4.3-5.439-1.679-7.263-1.769-1.628-4.757-1.55-7-1.737-5.636-.471-11.3-.933-16.958-.946-2.574-.006-2.578,3.994,0,4,4.372.01,8.744.31,13.1.639,2.114.159,4.271.235,6.372.526a5.023,5.023,0,0,1,1.853.517c-.243-.146-.1-.379-.006.095.027.143.09.314.121.443a6.671,6.671,0,0,1,.117,1.39c.105,4.578.287,9.2-.607,13.733-.847,4.289-4.16,7.111-8.107,8.646a32.757,32.757,0,0,1-24.485-.181c-3.334-1.381-6.765-3.437-7.8-7.11a34.482,34.482,0,0,1-.868-6.185,47.923,47.923,0,0,1-.111-6.914c.051-1-.046-2.015.059-3.016.033-.322.143-.617.192-.934.08-.507.2-.113-.08,0a2.63,2.63,0,0,1,.4-.149,48.617,48.617,0,0,1,5.629-.652c4.724-.387,9.467-.833,14.21-.848C338.9,96.158,338.909,92.158,336.33,92.166Z"/><path class="d" d="M320.6,86.322c-.49,1.592-.17,5.254,2.845,5.565,3.986-.023,4.2-4.45,2.856-6.532C325.2,83.651,321.973,82.942,320.6,86.322Z"/><path class="d" d="M352.517,86.322c.49,1.592.171,5.254-2.844,5.565-3.986-.024-4.2-4.451-2.857-6.532C347.915,83.651,351.145,82.942,352.517,86.322Z"/><path class="d" d="M320.633,81.77a9.973,9.973,0,0,1,1.892.074l-.532-.071a15.17,15.17,0,0,1,3.8,1.073l-.478-.2.089.038a2.2,2.2,0,0,0,1.541.2,2.043,2.043,0,0,0,1.2-.92,2.017,2.017,0,0,0,.2-1.541,1.919,1.919,0,0,0-.919-1.2,15.138,15.138,0,0,0-6.787-1.458,2,2,0,0,0,0,4Z"/></svg>