<?xml version="1.0" encoding="utf-8"?>
<!-- Uploaded to: SVG Repo, www.svgrepo.com, Generator: SVG Repo Mixer Tools -->
<svg width="800px" height="800px" viewBox="0 -27.38 441.203 441.203" xmlns="http://www.w3.org/2000/svg"><defs><style>.a{fill:#ffffff;}.b{fill:#957f6e;}.c{fill:#211715;}.d{fill:#6dbf6b;}.e{fill:#7a7473;}.f{fill:#f4b467;}.g{fill:#645d5c;}.h{fill:#bdbdbd;}.i{fill:none;}.j{fill:#3f88c9;}</style></defs><path class="a" d="M407.786,43.462a3.751,3.751,0,0,1,3-.878,3.539,3.539,0,0,1,2.546,1.693,5.017,5.017,0,0,1,.525,2.014,15.01,15.01,0,0,1-1.53,7.953,9.532,9.532,0,0,1-2.466,3.236,6.316,6.316,0,0,1-2.94,1.325l-.5.077c-.246.912-.515,1.667-.647,2.068-.816,2.215-5.207,9.625-10.838,12.854l.006.348a46.6,46.6,0,0,0,.622,6.785c.355,2.023.244,3.831,3.056,4.847.187.067,3.307,1.509,3.727,1.694,0,0-5.17,12.776-19.392,12.776s-18.769-13.767-18.769-13.767c.344-.147,1.73-.636,1.916-.7,2.812-1.016,2.7-2.824,3.056-4.847.365-2.083.293-5.244.623-7.333,0-.017,0-.073,0-.16a23.427,23.427,0,0,1-5.64-5,25.516,25.516,0,0,1-4.862-9.492l-.958-.147a6.311,6.311,0,0,1-2.94-1.325,9.532,9.532,0,0,1-2.466-3.236,15.01,15.01,0,0,1-1.53-7.953,5.015,5.015,0,0,1,.524-2.014,3.541,3.541,0,0,1,2.546-1.693,3.754,3.754,0,0,1,3,.878s-3.614-23.43,23.274-23.43S407.786,43.462,407.786,43.462Z"/><path class="b" d="M403.363,36.235a38.227,38.227,0,0,1,4.3,7.349,3.728,3.728,0,0,1,3.128-1,3.36,3.36,0,0,1,.653.165c1.866-4.79,2.139-11.73-.216-18.314-1.655-4.629-5.783-9.479-8.714-10.83l-4.233-3.044c-3.606-4.939-9.057-7.543-16.75-7.778-7.2-.22-15.5,1.235-21.816,7.586l2.031,2.05c-3.718,2.387-6.629,6.86-7.98,10.828-1.62,4.756-2.1,11.525-.181,19.522l.014.058a3.586,3.586,0,0,1,.862-.243,3.707,3.707,0,0,1,3.21,1.085c7.258-6.937,13.579-11.055,19.956-16.064a16.529,16.529,0,0,0,1.714,3.95c.433.176,5.18-2.806,8.491-4.847l5.211,1.372a19.426,19.426,0,0,1,6.11,3.578A28.936,28.936,0,0,1,403.363,36.235Z"/><path class="c" d="M409.2,44.877a1.705,1.705,0,0,1,2.345.31,3.936,3.936,0,0,1,.361,1.978,12.259,12.259,0,0,1-.167,2.517c-.545,2.988-2.023,6.6-5.35,7.2a2.017,2.017,0,0,0-1.4,2.46,2.044,2.044,0,0,0,2.46,1.4c5.411-.97,8-7.061,8.406-11.967.215-2.586-.051-5.455-2.279-7.118a5.78,5.78,0,0,0-7.208.4,2.015,2.015,0,0,0,0,2.829,2.044,2.044,0,0,0,2.828,0Z"/><path class="c" d="M404.883,56.013a13.83,13.83,0,0,1-.813,3.729c-.063.2-.477,1.221-.17.561-.123.265-.241.531-.373.792a32.1,32.1,0,0,1-2.772,4.456c-2.338,3.207-5.677,6.709-9.628,7.636-2.5.588-1.444,4.446,1.064,3.857,5.03-1.18,8.924-5.283,11.883-9.289,2.547-3.45,4.631-7.361,4.809-11.742.1-2.574-3.9-2.569-4,0Z"/><path class="c" d="M358.871,42.048a5.784,5.784,0,0,0-7.209-.4c-2.231,1.655-2.493,4.538-2.279,7.118.408,4.906,3,11,8.407,11.967a2.057,2.057,0,0,0,2.46-1.4,2.017,2.017,0,0,0-1.4-2.46c-3.326-.6-4.8-4.208-5.349-7.195a12.145,12.145,0,0,1-.17-2.371,4.671,4.671,0,0,1,.3-2.024,1.684,1.684,0,0,1,2.406-.41,2.055,2.055,0,0,0,2.828,0,2.016,2.016,0,0,0,0-2.829Z"/><path class="c" d="M356.544,55.885a29.481,29.481,0,0,0,6.3,14.108,21.144,21.144,0,0,0,13.813,7.817,2.014,2.014,0,0,0,2-2,2.046,2.046,0,0,0-2-2c-4.56-.493-8.4-3.467-11.214-6.921a25.936,25.936,0,0,1-5.04-12.068,2.016,2.016,0,0,0-2.46-1.4,2.044,2.044,0,0,0-1.4,2.46Z"/><path class="c" d="M401.5,15.331c3.887,1.891,6.816,6.536,8.095,10.519a25.517,25.517,0,0,1,.248,15.443c-.784,2.458,3.077,3.51,3.857,1.063a29.318,29.318,0,0,0-.394-18.011,25.319,25.319,0,0,0-4.179-7.509,17.057,17.057,0,0,0-5.608-4.958c-2.306-1.122-4.336,2.327-2.019,3.453Z"/><path class="c" d="M363.51,9.322C357.6,11.6,353.475,17.4,351.643,23.3c-2,6.45-1.517,13.517.009,20.006.589,2.5,4.447,1.445,3.857-1.063-1.322-5.621-1.771-11.661-.186-17.28,1.309-4.642,4.545-9.967,9.25-11.779a2.057,2.057,0,0,0,1.4-2.46,2.015,2.015,0,0,0-2.46-1.4Z"/><path class="c" d="M400,9.552a20.141,20.141,0,0,0-8.019-6.578A28.924,28.924,0,0,0,380.316.763c-8.142-.027-16.135,2.37-22.02,8.191-1.833,1.814,1,4.642,2.829,2.829,5.049-4.995,11.866-6.986,18.841-7.02,6.267-.031,12.67,1.543,16.583,6.808a2.062,2.062,0,0,0,2.736.717A2.014,2.014,0,0,0,400,9.552Z"/><path class="c" d="M387.463,24.585c-2.492,1.53-4.952,3.134-7.518,4.54-.2.109-.4.218-.6.32-.13.065-.538.38-.367.182s2.059,1.476,1.822.562a3.786,3.786,0,0,0-.281-.558,10.413,10.413,0,0,1-.968-2.558c-.284-1.653-2.3-1.7-3.343-.883-6.484,5.08-13.228,9.767-19.26,15.4-1.884,1.762.949,4.586,2.829,2.829,6.03-5.637,12.776-10.326,19.259-15.4l-3.342-.883a14.428,14.428,0,0,0,1.47,3.72,2.508,2.508,0,0,0,3.586,1.332,76.269,76.269,0,0,0,8.732-5.149c2.19-1.345.183-4.806-2.019-3.454Z"/><path class="c" d="M392.507,30.008a20.569,20.569,0,0,1,7.913,5.748,35.213,35.213,0,0,1,5.335,8.436,2.017,2.017,0,0,0,2.737.718,2.048,2.048,0,0,0,.717-2.737,38.579,38.579,0,0,0-6.13-9.437,26,26,0,0,0-4.455-4.006,23.562,23.562,0,0,0-5.054-2.579,2.015,2.015,0,0,0-2.46,1.4,2.046,2.046,0,0,0,1.4,2.46Z"/><path class="c" d="M377.81,64.35a10.843,10.843,0,0,0,5.218,1.222,8.655,8.655,0,0,0,5.413-1.658,2,2,0,0,0,.585-1.415,2.039,2.039,0,0,0-.585-1.414,2.019,2.019,0,0,0-1.415-.586,2.349,2.349,0,0,0-1.414.586c.7-.544.054-.063-.162.051-.17.089-.59.222.067-.012-.138.05-.273.106-.413.15-.381.123-.771.168-1.156.264.181-.045.41-.049.087-.017-.113.012-.227.021-.341.028-.273.018-.547.025-.821.023-.246,0-.491-.009-.736-.026-.113-.008-.225-.017-.337-.028q-.1-.009-.192-.021c-.16-.02-.084-.01.226.03-.332-.124-.734-.137-1.08-.24-.151-.045-.3-.1-.448-.151-.421-.144.455.214.072.034q-.277-.131-.549-.274a2,2,0,0,0-2.019,3.454Z"/><path class="c" d="M381.673,52.5a22.481,22.481,0,0,1,.535,2.448l-.071-.532a1.47,1.47,0,0,1,.009.338l.072-.532a.787.787,0,0,1-.038.152l.2-.478a.582.582,0,0,1-.054.1l.313-.405a.5.5,0,0,1-.08.079l.405-.313a1.564,1.564,0,0,1-.194.1l.478-.2a1.443,1.443,0,0,1-.327.1l.532-.072a1.37,1.37,0,0,1-.307,0l.532.071c-.116-.016-.229-.044-.345-.06a1.523,1.523,0,0,0-.8-.036,1.487,1.487,0,0,0-.744.238,2,2,0,0,0-.718,2.736l.313.405a2,2,0,0,0,.883.514c.329.045.649.126.984.141a3.267,3.267,0,0,0,1.535-.377,2.379,2.379,0,0,0,1.269-1.548,3.545,3.545,0,0,0-.011-1.584c-.133-.788-.316-1.57-.518-2.343a2.062,2.062,0,0,0-.92-1.2,2,2,0,0,0-2.736.717,2.1,2.1,0,0,0-.2,1.541Z"/><path class="c" d="M369.452,45.367c-.409,1.329-.143,4.384,2.373,4.644,3.326-.02,3.5-3.714,2.383-5.451C373.292,43.138,370.6,42.547,369.452,45.367Z"/><path class="c" d="M396.083,45.367c.408,1.329.142,4.384-2.374,4.644-3.326-.02-3.5-3.714-2.383-5.451C392.242,43.138,394.937,42.547,396.083,45.367Z"/><path class="c" d="M311.857,19.008a18.8,18.8,0,0,0-14.078,14.5,22.007,22.007,0,0,0,.666,12.343,19.7,19.7,0,0,0,6.793,8.772A21.883,21.883,0,0,0,326.8,56.97a20.328,20.328,0,0,0,11.825-17.78A20.079,20.079,0,0,0,334.789,26.4a20.6,20.6,0,0,0-9.93-6.968c-2.442-.831-3.491,3.031-1.063,3.857a15.548,15.548,0,0,1,10.751,13.287,16.577,16.577,0,0,1-7.57,15.8,17.623,17.623,0,0,1-17.483.233,16.184,16.184,0,0,1-6.342-6.088A16.376,16.376,0,0,1,301.3,36.9a16.166,16.166,0,0,1,3.605-9.3,15.363,15.363,0,0,1,8.014-4.725c2.5-.629,1.438-4.488-1.063-3.858Z"/><path class="c" d="M323.061,30.4a9.151,9.151,0,0,1,4.614,8.6,9.484,9.484,0,0,1-4.73,7.768c-5.7,3.263-14.385-.232-14.757-7.234-.209-3.914,1.213-7.592,4.807-9.438,2.291-1.176.27-4.629-2.018-3.454-4.294,2.205-6.52,6.549-6.783,11.258a13.057,13.057,0,0,0,6.195,11.948,14.467,14.467,0,0,0,12.987,1.133,13.48,13.48,0,0,0,1.7-24.036c-2.237-1.282-4.254,2.173-2.019,3.454Z"/><path class="c" d="M310.465,7.056c0,7.442-.045,14.884-.046,22.326a2.029,2.029,0,0,0,2,2c3.868,0,7.736-.106,11.605-.11a2.03,2.03,0,0,0,2-2c0-7.353-.2-14.7-.185-22.058.006-2.574-3.994-2.577-4,0-.018,7.353.181,14.705.185,22.058l2-2c-3.869,0-7.737.106-11.605.11l2,2c0-7.442.045-14.884.046-22.326,0-2.573-4-2.578-4,0Z"/><path class="a" d="M309.831,77.179a16.748,16.748,0,0,1,1-3.4c1.023-2.427.864-3.828.23-6.325-.569-2.247-2.573-8.829-1.248-11.094l1.661-3.544a12.443,12.443,0,0,1-1.347-3.376c-.329-1.352-.931-3.893-.29-5.191a6.089,6.089,0,0,1,2.5-2.716,19.669,19.669,0,0,1,8.37-2.1c1.365-.519,2.585-1.166,4.089-.907.677.116,2.627,1.368,3.263,1.347a12.4,12.4,0,0,1,1.687,1.548c2.306-.337,4.879,1.744,6.725,3.658a10.517,10.517,0,0,1,2.472,3.361c.593,1.852.139,2.874-.066,4.518a15.711,15.711,0,0,1-2.115,6.217,11.5,11.5,0,0,1-3.907,4.752A17.813,17.813,0,0,0,329.9,66.22a6.973,6.973,0,0,0-1.282,3.381c-.553,2.848-.476,5.722-1.072,8.569"/><path class="c" d="M308.086,55.352a8.127,8.127,0,0,0-.633,4.731,39.239,39.239,0,0,0,1.057,5.541,24.248,24.248,0,0,1,1.045,4.584,6.666,6.666,0,0,1-.581,2.863,20.168,20.168,0,0,0-1.071,3.577,2.051,2.051,0,0,0,1.4,2.46,2.02,2.02,0,0,0,2.46-1.4c.45-2.309,1.671-4.408,1.8-6.776a17.344,17.344,0,0,0-.905-5.286c-.421-1.584-.823-3.177-1.09-4.8a13.551,13.551,0,0,1-.194-2.235c0-.221.042-.828.038-.806-.038.219.066-.254.078-.3.121-.411-.148.234.055-.145,1.216-2.269-2.236-4.291-3.453-2.019Z"/><path class="c" d="M328.062,37.873c.793.067-.239-.156.095-.02-.274-.112-.539-.255-.805-.387a12.1,12.1,0,0,0-1.769-.8,6.8,6.8,0,0,0-4.828.609,4.176,4.176,0,0,1-1.411.2c-.75.075-1.5.187-2.239.336a23.318,23.318,0,0,0-4.544,1.427c-2.957,1.259-5.24,3.825-4.981,7.193a16.035,16.035,0,0,0,2.359,7.684,4.528,4.528,0,0,0,3.88,2.12,3.9,3.9,0,0,0,3.856-2.655c.806-2.451-3.055-3.5-3.858-1.064.059-.178.2-.218.3-.35-.025.035-.277.12-.08.054.213-.071-.086.012-.1.014.346-.04-.08,0-.206,0-.031,0-.331-.029-.1,0,.266.036-.249-.073-.24-.072.031,0,.3.166.129.051s.067.058.075.068a2.82,2.82,0,0,0-.27-.284,6.127,6.127,0,0,1-.7-1.3,13.7,13.7,0,0,1-1.045-5.4c-.006.232.1-.322-.012-.04a4.147,4.147,0,0,1,.346-.621,4.037,4.037,0,0,1,.919-1.056,9.72,9.72,0,0,1,3.045-1.325,20.224,20.224,0,0,1,3.3-.766c.105-.014.777-.068,1.094-.069a4.775,4.775,0,0,0,1.833-.4,6.884,6.884,0,0,1,1.764-.546,2.417,2.417,0,0,1,.458,0c.5.049-.137-.023.127.028.185.035-.059-.036-.09-.051.122.058.246.112.368.17a9.856,9.856,0,0,0,3.332,1.25,2.015,2.015,0,0,0,2-2,2.041,2.041,0,0,0-2-2Z"/><path class="c" d="M313.008,47.405a37.147,37.147,0,0,0,.935,4.26,9.318,9.318,0,0,0,1.922,4.1,4.614,4.614,0,0,0,5.582.5,4.7,4.7,0,0,0,1.937-2.42,5.846,5.846,0,0,0,.194-2.493,43,43,0,0,0-1.138-5.883,2.018,2.018,0,0,0-2.46-1.4,2.044,2.044,0,0,0-1.4,2.461c.326,1.4.688,2.784.917,4.2.015.092.028.185.043.277.04.228-.024-.192-.023-.191.01.178.042.356.058.534a9.224,9.224,0,0,1,.042,1c0,.077-.007.155-.007.231,0,.225-.119.054.032-.209a1.369,1.369,0,0,0-.1.36c-.039.233.212-.377.074-.185a2.108,2.108,0,0,0-.106.185,1.036,1.036,0,0,0-.09.133c.12-.325.23-.274.031-.079a1.579,1.579,0,0,0-.121.11c-.148.182.357-.214.142-.115a1.494,1.494,0,0,0-.342.192c.19-.212.374-.126.157-.076-.072.017-.156.039-.227.062-.232.076-.052-.114.174-.012-.069-.031-.238.015-.313.015s-.173-.011-.259-.011c-.214,0,.188.018.2.027a1.728,1.728,0,0,0-.274-.062c-.237-.01.2.074.246.117a1.048,1.048,0,0,0-.147-.079c-.2-.134.153.04.2.163-.027-.073-.2-.193-.255-.25-.2-.2.13.165.138.184a1.233,1.233,0,0,0-.11-.161c-.064-.1-.123-.2-.179-.306-.066-.123-.119-.254-.186-.377-.1-.182.1.251.095.231-.03-.1-.082-.2-.119-.3-.192-.516-.342-1.046-.483-1.577a36.96,36.96,0,0,1-.923-4.213,1.993,1.993,0,0,0-.919-1.2,2,2,0,0,0-2.938,2.259Z"/><path class="c" d="M325.149,43.871a36.534,36.534,0,0,0-.2,6.01c-.006,1.017-.033,2.032-.131,3.045-.038.4.081-.457.021-.144-.015.079-.025.158-.04.236-.032.168-.088.33-.125.5-.068.309.2-.434.109-.249a.8.8,0,0,1-.07.12c-.027.034.4-.526.211-.286a.5.5,0,0,1-.087.079c-.141.113.269-.189.237-.184-.062.012-.142.091-.2.122s-.089.043-.129.069c-.213.141.133-.064.2-.075-.136.024-.277.1-.412.139a2.283,2.283,0,0,0-.443.1s.448-.03.245-.035c-.095,0-.193.015-.289.017-.057,0-.115,0-.173,0-.23.005-.236-.13.132.034a1.718,1.718,0,0,0-.384-.09c-.237-.029.366.211.167.078a1.054,1.054,0,0,0-.194-.108c-.167-.063.173.114.18.148a1.529,1.529,0,0,1-.124-.117q-.155-.164.126.181a2.2,2.2,0,0,0-1.2-.919,2.043,2.043,0,0,0-1.541.2,2.019,2.019,0,0,0-.717,2.736,4.265,4.265,0,0,0,2.4,1.7,5.816,5.816,0,0,0,2.6,0,4.089,4.089,0,0,0,3.2-2.567,11.463,11.463,0,0,0,.4-3.155c.046-1.241.032-2.482.03-3.723,0-.625,0-1.251.016-1.876.007-.262.017-.524.036-.785.007-.1.017-.2.025-.295.035-.436-.089.55-.021.161a2.046,2.046,0,0,0-1.4-2.46,2.025,2.025,0,0,0-2.46,1.4Z"/><path class="c" d="M321.265,65.228c2.178-1.167,2.4-3.348,3.443-5.326a9.1,9.1,0,0,1,3.348-2.969,9.563,9.563,0,0,0,3.181-2.153,6.069,6.069,0,0,0,1.524-3.8,5.737,5.737,0,0,0-1.138-3.346,7.743,7.743,0,0,0-1.421-1.375c-.336-.283-.23-.047-.413-.421a3.01,3.01,0,0,1-.118-2c.033-.11.265-.484.1-.362a2.007,2.007,0,0,1,1.111.009c2.11.528,4.257,2.778,5.514,4.486a3.843,3.843,0,0,1,.791,2.967,25.332,25.332,0,0,1-.746,4.019,15.615,15.615,0,0,1-3.344,6.154c-2.047,2.109-4.843,2.995-5.917,5.969-1.21,3.351-.885,7.1-1.566,10.56-.5,2.514,3.36,3.591,3.857,1.063.655-3.325.365-6.946,1.44-10.177.439-1.319,1.584-1.9,2.666-2.667a14.25,14.25,0,0,0,2.972-2.63,21.3,21.3,0,0,0,3.8-7.382,34.976,34.976,0,0,0,.7-3.846,8.03,8.03,0,0,0-.453-4.752,16.949,16.949,0,0,0-5.572-6.078c-2.181-1.562-5.569-2.743-7.854-.7-1.676,1.5-1.921,4.272-1.281,6.311a4.83,4.83,0,0,0,1.759,2.648c.857.559,1.432,1.265.867,2.3-.675,1.24-2.3,1.575-3.425,2.332a14.072,14.072,0,0,0-2.785,2.408,7.5,7.5,0,0,0-1.247,1.85c-.459,1.035-.729,2.875-1.812,3.455-2.27,1.217-.252,4.671,2.019,3.454Z"/><path class="c" d="M367.78,73.6c-.029,1.545-.123,3.091-.272,4.629-.037.376-.077.752-.123,1.127-.016.133-.058.446-.017.148-.025.184-.052.367-.082.551-.091.57-.174,1.142-.271,1.711-.043.248-.091.5-.155.741-.034.13-.08.256-.116.386-.1.337.161-.216.023-.048a1.292,1.292,0,0,0-.2.352c-.042.176.26-.255.019-.018-.1.1-.216.2-.316.31.281-.3,0,0-.123.069a5.038,5.038,0,0,1-.486.26c.188-.089.055-.021-.115.041l-.482.172c-.473.169-.949.332-1.413.524a2.054,2.054,0,0,0-1.4,2.46,2.02,2.02,0,0,0,2.46,1.4,23.982,23.982,0,0,0,3.452-1.4,5.728,5.728,0,0,0,2.627-3.774,51.283,51.283,0,0,0,.985-9.638,2,2,0,1,0-4,0Z"/><path class="c" d="M392.941,74.152a49.642,49.642,0,0,0,.589,6.678,10.906,10.906,0,0,0,1.213,4.459,5.643,5.643,0,0,0,2.195,1.937c.307.152.626.283.944.409.677.268-.364-.181-.154-.074.182.092.375.168.561.252,1.017.462,2.027.939,3.048,1.392a2.062,2.062,0,0,0,2.736-.718,2.014,2.014,0,0,0-.717-2.736c-.928-.412-1.848-.845-2.772-1.266-.468-.214-.936-.428-1.413-.622-.546-.221.133.12-.3-.134-.156-.091-.311-.182-.466-.275-.388-.233.171.23-.1-.09-.072-.069-.14-.141-.2-.216.147.2.179.241.1.122a2.866,2.866,0,0,0-.243-.417c.151.242.087.241,0-.029a6.82,6.82,0,0,1-.216-.881c-.128-.685-.223-1.38-.332-2.069-.083-.524-.088-.557-.157-1.152q-.087-.756-.149-1.517-.128-1.524-.157-3.053a2,2,0,1,0-4,0Z"/><path class="d" d="M345.8,119.272c.243,8.7.386,60.826.514,74.179l.656,0h71.373c.011,1.116,0,2.053-.028,2.751,1.461-.074,2.924-.146,2.924-.146l14.418-.709a1.619,1.619,0,0,0,1.544-1.67c-.337-10.138-1.737-63.008-2.485-76.128a31.23,31.23,0,0,0-2.045-10.436c-2.426-5.6-7.814-9.256-13.311-12.384-5.249-2.988-13.626-6.891-18.541-9.177.037-.6-2.544-5.354-3.381-7.514-.056-.144-.13-.306-.278-.35s-.321.07-.449.18c-1.432,1.229-9.288,7.629-10.131,8.661-.2.688-.582,2.289-1.052,3.718-.971,2.339-2.195,5.246-3.134,7.215-.939-1.969-2.163-4.876-3.134-7.215-.47-1.429-.847-3.03-1.052-3.718-.842-1.032-8.7-7.432-10.13-8.661-.128-.11-.288-.228-.45-.18s-.222.206-.278.35c-.837,2.16-3.417,6.916-3.381,7.514a1.2,1.2,0,0,0,.113.3c5.248-2.332-8.346,3.435-15.18,6.931-5.816,3.293-14.845,11.971-22.131,13.179.012-6.841.636-18.522,1.51-27.5-4.431-.361-17.508-1.487-20.091-1.475-1.195,7.039-5.351,30.87-2.864,46.627.678,4.3,3.376,7.878,5.976,8.566,4.716,1.248,12.149.063,16.6-1.527,5.578-1.992,14.393-5.923,17.381-6.853"/><path class="a" d="M425.919,197.275a161.728,161.728,0,0,0-2.233,20.794,1.685,1.685,0,0,0,2.884,1.243c.511-.526,1.28-1.311,1.639-1.762a13.77,13.77,0,0,1,1.721-2.023,16.589,16.589,0,0,1,.538,4.487c0,5.213.259,4.906-.757,10.232-.281,1.47.008,2.646.4,2.906,2.48,1.663,5.3-.194,6.653-2.1a11.479,11.479,0,0,0,1.431-2.867c1.837-5.243.966-10.188-.479-15.553s-3.43-10.721-3.724-16.269"/><path class="c" d="M423.247,201.211a157.907,157.907,0,0,0-1.545,16.5,3.746,3.746,0,0,0,4.423,4.02c2.407-.52,3.546-3.267,5.22-4.793L428,216.059a32.973,32.973,0,0,1,.409,9.833c-.177,1.853-.853,3.717-.812,5.581a4.028,4.028,0,0,0,3.684,4.234c4.773.758,7.959-3.9,9.126-7.882,1.434-4.892.721-9.959-.526-14.8-1.419-5.513-3.543-10.923-3.894-16.653-.156-2.557-4.157-2.575-4,0a59.216,59.216,0,0,0,2.711,13c1.2,4.1,2.548,8.313,2.533,12.627-.011,3.127-.755,8.169-4.078,9.586a2.387,2.387,0,0,1-1.062.212c-.382-.024-.669-.332-.476.09a5.447,5.447,0,0,1,.231-2.219,37.075,37.075,0,0,0,.608-4.349,38.158,38.158,0,0,0-.6-10.318,2.02,2.02,0,0,0-3.343-.883,20.882,20.882,0,0,0-1.809,2.129c-.257.305-.531.595-.805.883-.17.179-.342.356-.514.533q-.448.374-.067.165c0-.007.313.067.26.079.074.227.109.282.1.167q.017-.358.034-.715.066-1.35.156-2.7c.273-4.137.653-8.274,1.228-12.381a2.069,2.069,0,0,0-1.4-2.46,2.013,2.013,0,0,0-2.46,1.4Z"/><path class="a" d="M402.976,345.47a24.8,24.8,0,0,0,2.808,11.311l-18.009-.349.069-10.118"/><path class="a" d="M363.166,345.47a24.8,24.8,0,0,1-2.808,11.311l18.01-.349-.07-10.118"/><path class="c" d="M361.166,345.47a26.812,26.812,0,0,1-.179,2.832c-.031.245-.034.268-.01.072-.019.133-.04.267-.062.4q-.048.3-.105.6-.132.7-.3,1.387a24.842,24.842,0,0,1-.839,2.711c-.071.191-.146.379-.22.568q-.138.333-.033.084c-.053.124-.108.248-.163.371-.195.432-.4.856-.621,1.277a2,2,0,0,0,3.454,2.019,27.359,27.359,0,0,0,3.081-12.321,2,2,0,0,0-4,0Z"/><path class="c" d="M376.3,346.314l.07,10.118a2,2,0,0,0,4,0l-.07-10.118a2,2,0,0,0-4,0Z"/><path class="e" d="M344.81,380c-.094-.123-.183-.251-.267-.382a7.151,7.151,0,0,1-.473-5.993,19.6,19.6,0,0,1,3.075-5.365q4.452-6.081,9.41-11.767c1.288-1.478,2.744-3.018,4.671-3.381a2.9,2.9,0,0,0,1.44,3.038,6.8,6.8,0,0,0,3.474.785,19.284,19.284,0,0,0,13.5-5.371c-.023,4.059.018,5.411,0,9.472a8.5,8.5,0,0,1-.356,2.929c-.834,2.257-3.309,3.344-5.3,4.7-5.167,3.536-7.889,9.988-13.3,13.132a13.98,13.98,0,0,1-12.923.463A8.163,8.163,0,0,1,344.81,380Z"/><path class="c" d="M400.976,345.47a27.359,27.359,0,0,0,3.081,12.321,2.014,2.014,0,0,0,2.736.717,2.046,2.046,0,0,0,.718-2.736,18.327,18.327,0,0,1-1.037-2.3,24.842,24.842,0,0,1-.839-2.711q-.171-.689-.3-1.387-.055-.3-.105-.6c-.022-.134-.043-.268-.062-.4.024.2.021.173-.01-.072a26.548,26.548,0,0,1-.179-2.832,2,2,0,0,0-4,0Z"/><path class="c" d="M385.844,346.314l-.069,10.118a2,2,0,0,0,4,0l.069-10.118a2,2,0,0,0-4,0Z"/><path class="e" d="M421.332,380c.094-.123.184-.251.267-.382a7.155,7.155,0,0,0,.474-5.993A19.626,19.626,0,0,0,419,368.259q-4.452-6.081-9.409-11.767c-1.289-1.478-2.745-3.018-4.672-3.381a2.9,2.9,0,0,1-1.44,3.038,6.793,6.793,0,0,1-3.474.785,19.284,19.284,0,0,1-13.5-5.371c.023,4.059-.018,5.411,0,9.472a8.5,8.5,0,0,0,.356,2.929c.834,2.257,3.309,3.344,5.3,4.7,5.168,3.536,7.889,9.988,13.3,13.132a13.98,13.98,0,0,0,12.923.463A8.154,8.154,0,0,0,421.332,380Z"/><path class="c" d="M346.537,378.989c-1.345-1.922-1-4.187.037-6.184a46.676,46.676,0,0,1,4.7-6.74q2.5-3.25,5.16-6.374c1.449-1.707,3.015-4.116,5.325-4.652l-2.461-2.46a5.05,5.05,0,0,0,2.891,5.569c2.235,1.054,4.925.889,7.308.537a21.107,21.107,0,0,0,11.554-5.708l-3.414-1.414c-.017,3.367.081,6.743-.008,10.11a4.014,4.014,0,0,1-2,3.556c-1.362.948-2.794,1.747-4.091,2.792-4.929,3.974-7.781,11.108-14.187,13.062-3.656,1.116-8.561.622-11.128-2.5-1.636-1.989-4.452.855-2.828,2.829,2.639,3.209,7.481,4.482,11.491,4.166a17,17,0,0,0,10.779-5.183c2.625-2.615,4.659-5.759,7.329-8.332,2.585-2.491,6.666-3.713,8.083-7.254.845-2.112.566-4.611.561-6.843,0-2.135-.014-4.27,0-6.4a2.023,2.023,0,0,0-3.415-1.414,17.026,17.026,0,0,1-7.316,4.159,16.436,16.436,0,0,1-4.765.626c-.7-.013-3.192-.145-2.986-1.292a2.028,2.028,0,0,0-2.46-2.46c-2.963.688-4.9,3.118-6.784,5.322q-3.3,3.869-6.377,7.916c-3.446,4.515-8.467,10.847-4.45,16.588C344.548,383.1,348.017,381.105,346.537,378.989Z"/><path class="c" d="M423.059,381.008c4.017-5.741-1-12.072-4.45-16.588q-3.013-3.947-6.224-7.736c-1.922-2.259-3.9-4.8-6.937-5.5a2.028,2.028,0,0,0-2.46,2.46c.2,1.145-2.3,1.279-2.986,1.292a16.436,16.436,0,0,1-4.765-.626,17.031,17.031,0,0,1-7.316-4.159,2.023,2.023,0,0,0-3.415,1.414c.01,1.851.005,3.7,0,5.552a40.186,40.186,0,0,0,.146,6.15c.642,4.206,4.525,5.424,7.407,7.817,2.857,2.373,4.923,5.521,7.406,8.251,2.7,2.965,6.019,5.347,10.046,6.026,4.523.764,10.176-.225,13.236-3.946,1.623-1.973-1.191-4.819-2.828-2.829-2.194,2.668-6.271,3.445-9.545,2.882-3.457-.6-6.053-2.685-8.327-5.235-2.176-2.44-4.054-5.155-6.471-7.373a27.517,27.517,0,0,0-4.03-2.956c-1.078-.679-2.352-1.419-2.818-2.671a9.279,9.279,0,0,1-.224-3.122q0-1.413,0-2.826c0-1.907.011-3.814,0-5.72l-3.414,1.414a21.1,21.1,0,0,0,11.555,5.708c2.315.342,4.935.516,7.126-.458a5.073,5.073,0,0,0,3.072-5.648l-2.46,2.46c2.248.522,3.757,2.811,5.172,4.473q2.733,3.212,5.312,6.553a48.834,48.834,0,0,1,4.6,6.544c1.092,2.046,1.537,4.382.139,6.38C418.126,381.1,421.593,383.1,423.059,381.008Z"/><path class="a" d="M418.809,193.836c-1.341,14.023-2.417,41.362-3.786,64.115-1.613,26.8-2.274,86.163-2.636,92.143-4,1.336-19.563,1.146-27.19-.439l-.508.094c-9.29,1.775-27.17,1.681-31.175.345-.362-5.98-1.023-65.347-2.636-92.143-1.369-22.753-2.861-50.472-4.2-64.5"/><path class="c" d="M344.873,197.991c.962,12.55,1.792,25.11,2.6,37.67.722,11.166,1.486,22.333,1.951,33.513.437,10.527.725,21.059.981,31.592q.37,15.229.652,30.461c.12,6.058.169,12.124.415,18.179.011.274.023.547.039.821a2.073,2.073,0,0,0,1.468,1.928,23.432,23.432,0,0,0,5.223.815c2.581.211,5.175.265,7.764.251a95.02,95.02,0,0,0,16.95-1.411c2.527-.474,1.457-4.33-1.063-3.857a89.075,89.075,0,0,1-15.887,1.268c-2.452.014-4.908-.036-7.353-.219a17.924,17.924,0,0,1-4.571-.7l1.469,1.929c-.311-5.262-.286-10.558-.391-15.826q-.294-14.771-.617-29.541c-.249-10.7-.529-21.4-.936-32.094-.407-10.655-1.084-21.293-1.762-31.934-.829-13.018-1.685-26.035-2.649-39.044q-.141-1.9-.286-3.8c-.2-2.55-4.2-2.571-4,0Z"/><path class="c" d="M416.809,196.04c-1.211,12.752-1.771,25.572-2.461,38.36-.644,11.92-1.431,23.836-1.914,35.764-.829,20.432-1.193,40.882-1.6,61.325-.123,6.237-.08,12.509-.449,18.738l1.469-1.929a18,18,0,0,1-4.958.663c-2.629.152-5.266.177-7.9.142a84.048,84.048,0,0,1-15.572-1.244c-2.513-.512-3.588,3.343-1.063,3.857A89.735,89.735,0,0,0,399,353.1c2.721.036,5.447.01,8.163-.158a23.949,23.949,0,0,0,5.757-.79,2.07,2.07,0,0,0,1.468-1.928c.309-5.221.285-10.476.389-15.7q.291-14.588.608-29.175c.245-10.568.519-21.136.914-31.7.422-11.276,1.144-22.535,1.755-33.8.792-14.6,1.373-29.247,2.756-43.809a2.015,2.015,0,0,0-2-2,2.043,2.043,0,0,0-2,2Z"/><path class="c" d="M381.071,233.2c-.438,4.828-.381,9.713-.376,14.555,0,5.712.089,11.422.142,17.134.061,6.529.018,13.06,0,19.589q-.027,13.4-.05,26.795-.019,12.8-.011,25.591c.006,4.233-.246,8.579.1,12.8a2.177,2.177,0,0,0,.6,1.531c1.913,1.713,4.751-1.106,2.829-2.828a2.284,2.284,0,0,1,.569,1.309.835.835,0,0,0-.01-.179c0-.225-.015-.453-.02-.678-.018-.776-.024-1.553-.031-2.33-.024-2.7-.03-5.393-.035-8.089q-.025-12.309,0-24.619c.021-15.217.142-30.437.074-45.654-.028-6.146-.138-12.291-.162-18.437-.021-5.484-.124-11.026.372-16.494a2.015,2.015,0,0,0-2-2,2.043,2.043,0,0,0-2,2Z"/><path class="c" d="M399.893,87.208c5.8,2.694,11.627,5.379,17.248,8.438,5.476,2.98,11.822,6.64,14.172,12.78,1.678,4.386,1.687,9.2,1.887,13.833.171,3.985.314,7.972.451,11.959q.53,15.324.959,30.65.372,12.6.734,25.2.03.951.058,1.9a4.9,4.9,0,0,0,.049,1.515c.178.37.264-.372.426-.132a1.683,1.683,0,0,0-.395.02c-.623.026-1.245.061-1.868.091l-11.25.553-.869.043c-2.563.126-2.578,4.127,0,4l9.769-.48c1.482-.073,2.973-.108,4.453-.219,2.546-.191,3.794-1.976,3.716-4.411-.247-7.71-.453-15.421-.678-23.132q-.466-16.032-.984-32.063-.22-6.611-.477-13.218a102.532,102.532,0,0,0-.9-12.412,21.773,21.773,0,0,0-4.268-10.133,31.815,31.815,0,0,0-7.939-6.843c-5.768-3.72-12.075-6.618-18.276-9.53q-2-.939-4-1.865a2.056,2.056,0,0,0-2.736.717,2.016,2.016,0,0,0,.717,2.736Z"/><path class="c" d="M347.226,195.456H418.4c2.574,0,2.578-4,0-4H347.226c-2.574,0-2.578,4,0,4Z"/><path class="c" d="M416.593,118.421c-.346,9.5-.149,19.03-.126,28.529.031,12.5.1,25,.139,37.5.01,3.685.06,7.374-.013,11.059-.051,2.575,3.949,2.575,4,0,.172-8.684-.009-17.385-.045-26.07-.053-12.728-.119-25.456-.091-38.183.01-4.275-.02-8.559.136-12.832.094-2.574-3.906-2.57-4,0Z"/><path class="c" d="M344.056,119.272c.258,9.379.208,18.773.261,28.155q.106,18.719.193,37.437c.021,3.7.018,7.4.093,11.1.051,2.571,4.052,2.58,4,0-.176-8.727-.129-17.463-.171-26.192q-.093-18.993-.218-37.985c-.034-4.172-.043-8.346-.158-12.517-.07-2.569-4.07-2.579-4,0Z"/><path class="c" d="M384.377,98.477c.913-1.927,1.742-3.891,2.569-5.856a48.977,48.977,0,0,0,1.819-5.555l-.514.882a38.74,38.74,0,0,1,4.844-4.257q1.585-1.328,3.18-2.646.627-.521,1.253-1.041l.5-.415c.088-.074.492-.368.164-.138l-1.009.273.237-.031L396,79.107q-.289-.647-.105-.207l.073.175c.116.284.239.567.363.848.184.416.377.828.572,1.239.423.892.861,1.777,1.29,2.665.191.395.381.791.564,1.189q.117.253.229.507c-.1-.217-.064-.193,0,.013.24.741-.043.271.145-.46-.072.278.265-.34.1-.232-.059.04-.1.219-.138.285-.779,1.449-1.614,2.863-2.489,4.256-.58.923-1.175,1.838-1.792,2.737a11.458,11.458,0,0,1-1.638,2.173l.882-.515.111-.016,1.01.273c.416.192.131-.034-.018-.326l-.306-.6q-.366-.712-.733-1.424-.744-1.44-1.5-2.872c-1.2-2.275-4.659-.257-3.454,2.019q.981,1.854,1.941,3.719c.713,1.388,1.318,3.2,3.171,3.215,1.518.012,2.288-1.252,3.083-2.341.659-.9,1.286-1.83,1.9-2.766,1.079-1.657,2.132-3.344,3.069-5.087A7.324,7.324,0,0,0,403,86.1a3.845,3.845,0,0,0-.526-2.522c-.764-1.753-1.666-3.443-2.463-5.18-.241-.525-.236-.519-.389-.89a2.53,2.53,0,0,0-1.941-1.782,3.413,3.413,0,0,0-2.669,1.185c-2.608,2.184-5.253,4.325-7.819,6.56-.514.447-1.047.89-1.523,1.38a6.036,6.036,0,0,0-1.232,2.885,53.471,53.471,0,0,1-3.516,8.719,2.055,2.055,0,0,0,.718,2.736,2.017,2.017,0,0,0,2.736-.717Z"/><path class="c" d="M380.65,98.274q0,19.686.069,39.372.051,22.484.109,44.967c.009,3.533.025,7.066.025,10.6,0,2.574,4,2.578,4,0,0-9.383-.045-18.766-.069-28.149q-.058-24.051-.109-48.1-.017-9.342-.025-18.685c0-2.574-4-2.578-4,0Z"/><path class="c" d="M384.377,96.458a54.342,54.342,0,0,1-3.192-7.573c-.349-1.176-.485-2.815-1.307-3.765a10.234,10.234,0,0,0-.908-.883c-2.57-2.325-5.284-4.5-7.949-6.712-.405-.337-.805-.682-1.214-1.016-1.4-1.144-3.257-1.03-4.029.763-.015.037-.319.763-.182.443-.084.2-.172.39-.26.584-.214.468-.436.934-.659,1.4-.439.911-.888,1.817-1.322,2.73-.705,1.485-1.5,2.826-.747,4.436a40.343,40.343,0,0,0,2.416,4.2c.694,1.115,1.409,2.217,2.156,3.3.69,1,1.452,2.451,2.516,3.073a2.661,2.661,0,0,0,2.631-.033,5.058,5.058,0,0,0,1.568-2.271q1.1-2.154,2.236-4.3c1.2-2.273-2.247-4.3-3.453-2.019q-.759,1.433-1.5,2.872-.33.639-.658,1.278l-.3.591c-.142.278-.543.685-.1.479l1.009-.273.111.016.883.515a11.2,11.2,0,0,1-1.638-2.173c-.617-.9-1.213-1.814-1.793-2.737-.874-1.392-1.72-2.8-2.488-4.256-.042-.079-.071-.17-.12-.244-.193-.293.159.464.09.211.132.486-.133,1.266.115.5.024-.074.213-.5.026-.074.074-.17.152-.338.229-.507.184-.4.374-.794.565-1.189.429-.888.866-1.773,1.289-2.665.18-.379.358-.759.529-1.142.105-.234.205-.47.305-.707.059-.137.117-.275.175-.413q.184-.44-.106.207l-1.414.586.238.031-1.01-.273c-.3-.209.066.055.164.138l.442.37q.615.513,1.233,1.024,1.629,1.351,3.254,2.708a38.75,38.75,0,0,1,4.845,4.257l-.514-.882a48.977,48.977,0,0,0,1.819,5.555c.826,1.965,1.656,3.929,2.568,5.856a2.018,2.018,0,0,0,2.737.717,2.044,2.044,0,0,0,.717-2.736Z"/><path class="c" d="M326.523,78.476c-.868,9.124-1.468,18.324-1.5,27.493a2.029,2.029,0,0,0,2.531,1.928,26.506,26.506,0,0,0,9.305-4.133c3.144-2,6.089-4.3,9.113-6.472,5.567-4.009,12.048-6.581,18.314-9.3a2.013,2.013,0,0,0,.718-2.736,2.052,2.052,0,0,0-2.737-.717c-6.151,2.67-12.563,5.184-18.04,9.1-2.92,2.09-5.757,4.3-8.764,6.267-2.756,1.8-5.687,3.546-8.972,4.132l2.532,1.929c.028-9.169.628-18.369,1.5-27.493a2.015,2.015,0,0,0-2-2,2.043,2.043,0,0,0-2,2Z"/><path class="c" d="M328.292,76.453c-3.572-.293-7.142-.595-10.715-.875-3.028-.236-6.09-.577-9.131-.58a2.02,2.02,0,0,0-1.929,1.469c-1.972,11.609-3.658,23.352-3.713,35.15a81.1,81.1,0,0,0,.5,10.026c.441,3.679,1.341,7.172,3.895,9.99,2.324,2.564,5.563,3.058,8.876,3.079a38.922,38.922,0,0,0,10.9-1.57c6.567-1.893,12.593-5.336,19.1-7.4,2.444-.777,1.4-4.64-1.063-3.858-5.411,1.719-10.563,4.3-15.873,6.3a38.154,38.154,0,0,1-9.179,2.312,30.675,30.675,0,0,1-5,.189,7.658,7.658,0,0,1-3.774-.846c-2.546-1.669-3.473-5.023-3.837-7.856a76.411,76.411,0,0,1-.546-9.431A162.2,162.2,0,0,1,308.1,92.8c.609-5.112,1.414-10.2,2.277-15.271L308.446,79c3.041,0,6.1.344,9.131.58,3.573.28,7.143.582,10.715.875,2.565.21,2.552-3.791,0-4Z"/><path class="a" d="M264.413,65.425a3.414,3.414,0,0,0-1.9-.952,3.487,3.487,0,0,0-2.793.817,17.85,17.85,0,0,0-2.612-10.3c-2.9-4.626-8.912-9.061-21.327-9.061-24.392,0-22.909,19.364-22.909,19.364a3.487,3.487,0,0,0-2.793-.817,3.3,3.3,0,0,0-2.37,1.575,4.658,4.658,0,0,0-.488,1.875,13.969,13.969,0,0,0,1.424,7.4,8.892,8.892,0,0,0,2.3,3.012,5.889,5.889,0,0,0,2.737,1.234l.892.136a23.756,23.756,0,0,0,4.526,8.836,20.137,20.137,0,0,0,7.2,5.677,29.146,29.146,0,0,1-.507,4.588c-.28,1.6-1.06,2.77-2.84,4.17-.12.09-6.72,3.24-7.15,3.38l-.209.068c4.5,2.913,12.87,5.783,20.7,5.8,7.274.018,17.151-2.886,20.692-5.794l-1.02-.417c-.22-.09-5.87-2.58-6.01-2.65a6.664,6.664,0,0,1-3.05-4.56,30.021,30.021,0,0,1-.509-4.571c.257-.133.513-.255.513-.255,5.648-2.7,10.144-10.242,10.944-12.414.124-.375.375-1.081.6-1.918.3-.053.47-.079.47-.079a5.885,5.885,0,0,0,2.737-1.234,8.879,8.879,0,0,0,2.3-3.012,13.969,13.969,0,0,0,1.424-7.4,4.658,4.658,0,0,0-.488-1.875A2.915,2.915,0,0,0,264.413,65.425Z"/><path class="b" d="M224.463,94.165l.4-.647a21.253,21.253,0,0,1-5.8-4.974,23.741,23.741,0,0,1-4.526-8.836l-.892-.136a5.885,5.885,0,0,1-2.737-1.234,7.168,7.168,0,0,1-.886-.873,11.631,11.631,0,0,0-1.148,3.828,18.944,18.944,0,0,0-.132,2.592c0,.176.01.353.02.53.1,1.89.544,3.816.637,5.7.1,2.053-.439,4.072-2.4,4.737-.077.026-.093.277-.091.34a.9.9,0,0,0,.157.439,3.025,3.025,0,0,0,1,.88,13.917,13.917,0,0,0,9.095,1.59C220.447,97.6,223.228,96.017,224.463,94.165Z"/><path class="b" d="M263.4,49.884c-.088-.515-.178-.992-.266-1.42-2.427-11.9-14.417-21.353-26.99-20.663-12.573-.69-24.563,8.759-26.99,20.663a33.83,33.83,0,0,0,.019,11.266l1.2,4.715a3.465,3.465,0,0,1,2.493.845c4.969-3.447,13.4-9.435,17.763-13.188-.359,2.228-1.635,6.017-.028,5.627,6.709-1.553,13.139-4.686,17.027-9.574a47.16,47.16,0,0,0,3.169,8.489c1.408,2.41,5.488,7.835,8.917,8.646a3.487,3.487,0,0,1,2.793-.817,3.334,3.334,0,0,1,.435.095C264.7,60.521,264.109,53.987,263.4,49.884Z"/><path class="c" d="M211.093,59.3a28.423,28.423,0,0,1-.216-8.944,20.914,20.914,0,0,1,2.925-8.337A25.57,25.57,0,0,1,228.009,30.83a31.013,31.013,0,0,1,9.407-1.063,23.367,23.367,0,0,1,9.14,1.883,25.632,25.632,0,0,1,13.089,12.531,28.331,28.331,0,0,1,2.247,9.313c.339,3.469.485,7.214-.853,10.5a2.015,2.015,0,0,0,1.4,2.461,2.05,2.05,0,0,0,2.46-1.4c1.348-3.312,1.35-7.161,1.075-10.673a37.224,37.224,0,0,0-1.8-9.649,29.1,29.1,0,0,0-13.743-15.651,28.785,28.785,0,0,0-10.318-3.173,34.894,34.894,0,0,0-10.92.472A29.673,29.673,0,0,0,211.7,37.95a28.332,28.332,0,0,0-4.468,22.414c.552,2.513,4.409,1.449,3.857-1.064Z"/><path class="c" d="M245.807,49.037c1.093,3.727,2.324,7.489,4.622,10.66,2.158,2.976,5.029,6.56,8.761,7.522,2.5.642,3.559-3.215,1.064-3.858-.173-.044-.342-.093-.511-.152-.535-.185.312.174-.213-.1a9.731,9.731,0,0,1-.96-.565,12.836,12.836,0,0,1-1.749-1.469,26.155,26.155,0,0,1-3.173-3.73c-2.009-2.847-3-6.012-3.984-9.375-.723-2.465-4.584-1.416-3.857,1.063Z"/><path class="c" d="M246.29,46.656a23.12,23.12,0,0,1-7.242,5.876,31.781,31.781,0,0,1-4.284,1.9q-1.149.411-2.321.753-.684.2-1.376.376c-.2.051-.4.1-.593.148q-1.077.188.579.185l.717.717c-.183-.245.031.043.012.059.033.164.045.167.037.008a2.2,2.2,0,0,1,.011-.244c.08-.336.1-.71.168-1.053.183-.917.409-1.824.567-2.745a2.018,2.018,0,0,0-3.343-1.946,214.989,214.989,0,0,1-17.357,12.875c-2.1,1.458-.1,4.927,2.019,3.454a224.967,224.967,0,0,0,18.167-13.5l-3.343-1.946c-.345,2.005-1.44,4.574-.638,6.568,1.144,2.843,4.949,1.1,6.99.415,5.319-1.781,10.5-4.636,14.058-9.069a2.061,2.061,0,0,0,0-2.828,2.013,2.013,0,0,0-2.828,0Z"/><path class="c" d="M208.323,76.4a16.523,16.523,0,0,0-1.452,9.239,44,44,0,0,1,.54,4.92,2.645,2.645,0,0,1-.776,2.275c-.642.437-1.236.605-1.533,1.407a2.772,2.772,0,0,0,.243,2.405,7.392,7.392,0,0,0,3.755,2.575,16.519,16.519,0,0,0,9.124.723,12.48,12.48,0,0,0,7.968-4.763,2.019,2.019,0,0,0-.718-2.736,2.041,2.041,0,0,0-2.736.717c-1.333,1.9-4.26,2.86-6.514,3.056a13.178,13.178,0,0,1-4.4-.314,10.8,10.8,0,0,1-1.735-.578,8.542,8.542,0,0,1-.766-.4q-.266-.152-.519-.321-.345-.409.125.4l-.273,1.01.077-.157-1.2.919c3.442-1.32,4.13-4.681,3.747-8.021-.4-3.467-1.137-7.059.492-10.343,1.14-2.3-2.309-4.328-3.454-2.019Z"/><path class="c" d="M261.136,66.7a1.6,1.6,0,0,1,1.112-.259,1.576,1.576,0,0,1,.55.229.737.737,0,0,1,.3.291,3.56,3.56,0,0,1,.318,1.771,11.274,11.274,0,0,1-.15,2.307c-.506,2.767-1.862,6.058-4.883,6.6a2.017,2.017,0,0,0-1.4,2.46,2.043,2.043,0,0,0,2.46,1.4c5.1-.914,7.543-6.647,7.927-11.272.2-2.464-.071-5.167-2.19-6.745a5.521,5.521,0,0,0-6.878.393,2.015,2.015,0,0,0,0,2.828,2.043,2.043,0,0,0,2.828,0Z"/><path class="c" d="M256.881,76.973a12.693,12.693,0,0,1-.751,3.434c-.065.2-.465,1.171-.144.489-.116.246-.225.494-.347.737a29.976,29.976,0,0,1-2.581,4.148c-2.143,2.939-5.283,6.2-8.879,7.044-2.5.588-1.445,4.446,1.063,3.858,4.719-1.108,8.369-4.953,11.144-8.711,2.386-3.231,4.329-6.9,4.495-11,.105-2.574-3.9-2.569-4,0Z"/><path class="c" d="M214.288,63.876a5.521,5.521,0,0,0-6.877-.393c-2.123,1.571-2.394,4.287-2.19,6.745.384,4.624,2.826,10.358,7.926,11.272a2.057,2.057,0,0,0,2.461-1.4,2.018,2.018,0,0,0-1.4-2.46c-3.022-.542-4.378-3.833-4.883-6.6a11.036,11.036,0,0,1-.153-2.171,8.46,8.46,0,0,1,.073-1.19c0,.013.17-.584.19-.624a1.451,1.451,0,0,1,2.022-.354,2.053,2.053,0,0,0,2.828,0,2.015,2.015,0,0,0,0-2.828Z"/><path class="c" d="M211.891,76.89a27.568,27.568,0,0,0,5.9,13.193A19.815,19.815,0,0,0,230.744,97.4a2.012,2.012,0,0,0,2-2,2.045,2.045,0,0,0-2-2c-4.205-.454-7.747-3.217-10.34-6.4a24.012,24.012,0,0,1-4.656-11.172,2.016,2.016,0,0,0-2.46-1.4,2.044,2.044,0,0,0-1.4,2.46Z"/><path class="c" d="M231.75,84.852a10.232,10.232,0,0,0,4.927,1.157,9.788,9.788,0,0,0,3.041-.442,6.8,6.8,0,0,0,2.095-1.142,2,2,0,0,0,.585-1.415,2.039,2.039,0,0,0-.585-1.414,2.019,2.019,0,0,0-1.415-.586,2.351,2.351,0,0,0-1.414.586c.7-.547.093-.087-.123.026-.17.089-.573.217.1-.025-.129.046-.255.1-.385.14-.354.114-.716.161-1.076.245.157-.036.452-.053.118-.02-.106.01-.211.019-.317.026q-.382.024-.765.021-.344,0-.685-.024c-.105-.008-.209-.016-.314-.026-.19-.02-.458-.138.069.013-.328-.094-.675-.125-1-.223-.141-.043-.278-.093-.417-.141-.407-.14.47.22.1.046-.173-.082-.343-.166-.511-.255a2,2,0,1,0-2.019,3.453Z"/><path class="c" d="M235.282,73.736a20.877,20.877,0,0,1,.5,2.278l-.071-.532a1.383,1.383,0,0,1,.008.315l.072-.532a.746.746,0,0,1-.035.141l.2-.477a.618.618,0,0,1-.05.091l.313-.405a.518.518,0,0,1-.075.073l.405-.312a1.715,1.715,0,0,1-.18.095l.477-.2a1.279,1.279,0,0,1-.3.089l.532-.071a1.243,1.243,0,0,1-.286,0l.532.072c-.107-.015-.213-.042-.321-.056a1.522,1.522,0,0,0-.8-.036,1.484,1.484,0,0,0-.744.238,2,2,0,0,0-.717,2.736l.312.405a2,2,0,0,0,.883.514c.319.043.628.122.953.136a3.179,3.179,0,0,0,1.5-.37,2.348,2.348,0,0,0,1.246-1.524,3.453,3.453,0,0,0-.011-1.547c-.124-.734-.294-1.462-.483-2.181a2,2,0,0,0-2.46-1.4,2.017,2.017,0,0,0-1.195.919,2.1,2.1,0,0,0-.2,1.541Z"/><path class="c" d="M224.039,67.063c-.38,1.237-.132,4.08,2.21,4.323,3.095-.019,3.26-3.457,2.218-5.074C227.614,64.988,225.105,64.438,224.039,67.063Z"/><path class="c" d="M248.828,67.063c.381,1.237.133,4.081-2.209,4.323-3.1-.019-3.261-3.457-2.219-5.074C245.254,64.988,247.762,64.438,248.828,67.063Z"/><path class="c" d="M175.021,21.45a18.8,18.8,0,0,0-14.077,14.5A22,22,0,0,0,161.61,48.3a19.694,19.694,0,0,0,6.792,8.772,21.884,21.884,0,0,0,21.561,2.344,20.325,20.325,0,0,0,11.824-17.78,20.073,20.073,0,0,0-3.833-12.795,20.6,20.6,0,0,0-9.931-6.968c-2.442-.831-3.49,3.031-1.063,3.857a15.546,15.546,0,0,1,10.751,13.287,16.578,16.578,0,0,1-7.569,15.8,17.621,17.621,0,0,1-17.483.233,16.186,16.186,0,0,1-6.343-6.088,16.367,16.367,0,0,1-1.85-9.62,16.166,16.166,0,0,1,3.6-9.3,15.363,15.363,0,0,1,8.014-4.725c2.494-.629,1.437-4.488-1.064-3.858Z"/><path class="c" d="M186.226,32.846a9.149,9.149,0,0,1,4.613,8.6,9.481,9.481,0,0,1-4.729,7.768c-5.7,3.263-14.385-.232-14.758-7.234-.208-3.914,1.214-7.592,4.808-9.438,2.29-1.176.269-4.629-2.019-3.454-4.294,2.205-6.52,6.549-6.783,11.258a13.056,13.056,0,0,0,6.2,11.948,14.465,14.465,0,0,0,12.986,1.133,13.48,13.48,0,0,0,1.705-24.036c-2.237-1.282-4.254,2.173-2.019,3.454Z"/><path class="c" d="M173.63,9.5c0,7.442-.046,14.884-.047,22.326a2.03,2.03,0,0,0,2,2c3.869,0,7.737-.106,11.6-.11a2.028,2.028,0,0,0,2-2c0-7.352-.2-14.7-.185-22.058.006-2.574-3.994-2.577-4,0-.017,7.353.181,14.706.185,22.058l2-2c-3.868,0-7.736.106-11.6.11l2,2c0-7.442.046-14.884.047-22.326,0-2.573-4-2.578-4,0Z"/><path class="a" d="M169.484,78.729a15.257,15.257,0,0,1,1.136-3.017c1.093-2.133,1.042-3.416.636-5.725-.365-2.078-1.739-8.186-.383-10.153l1.746-3.1a11.322,11.322,0,0,1-.994-3.155c-.207-1.25-.582-3.6.087-4.732a5.554,5.554,0,0,1,2.456-2.3,17.9,17.9,0,0,1,7.738-1.343c1.275-.379,2.425-.883,3.773-.547.607.152,2.292,1.419,2.871,1.443a11.341,11.341,0,0,1,1.426,1.519c2.116-.15,4.311,1.912,5.857,3.774a9.6,9.6,0,0,1,2.017,3.218c.412,1.72-.068,2.618-.366,4.1a14.286,14.286,0,0,1-2.339,5.5,10.471,10.471,0,0,1-3.867,4.05,16.214,16.214,0,0,0-2.839,1.88,6.35,6.35,0,0,0-1.391,2.983c-.695,2.548-.819,5.161-1.552,7.7"/><path class="c" d="M171.413,79.26c.559-2.049,1.791-3.84,2.044-5.97a16.338,16.338,0,0,0-.475-4.922,39.686,39.686,0,0,1-.621-4.107,17.357,17.357,0,0,1-.051-2.3c.006-.12.046-.472,0-.176a4.5,4.5,0,0,1,.091-.457,3.481,3.481,0,0,1,.123-.412c-.115.3-.033.1.073-.07,1.385-2.179-2.076-4.188-3.454-2.019a7.855,7.855,0,0,0-.846,4.48,37.451,37.451,0,0,0,.642,5.135,20.429,20.429,0,0,1,.578,4.1,5.712,5.712,0,0,1-.694,2.3,19.386,19.386,0,0,0-1.271,3.358c-.679,2.487,3.179,3.548,3.858,1.063Z"/><path class="c" d="M189.081,44.173c-.439-.07.147.146-.168-.04-.226-.133-.462-.252-.688-.385-.433-.253-.857-.523-1.312-.735a6.537,6.537,0,0,0-4.958.083,4.522,4.522,0,0,1-1.23.056,19.054,19.054,0,0,0-2.262.209,20.286,20.286,0,0,0-3.989.934c-2.877,1.016-5.1,3.207-5.142,6.392a14.75,14.75,0,0,0,1.66,7.236,4.342,4.342,0,0,0,3.645,2.252,3.7,3.7,0,0,0,3.773-2.415,2.013,2.013,0,0,0-1.4-2.461,2.053,2.053,0,0,0-2.461,1.4.744.744,0,0,1,.406-.533q-.3.165.018,0-.344.075.014.012a2.788,2.788,0,0,1-.354,0q.361.057.019-.012c-.222-.072-.212-.059.029.041-.195-.114-.174-.084.065.093-.15-.169-.175-.182-.074-.037a8.446,8.446,0,0,1-1.068-2.915,9.683,9.683,0,0,1-.257-3.124c-.023.217.091-.416.132-.508-.161.364.262-.338.311-.4a4,4,0,0,1,1.026-.861,12.906,12.906,0,0,1,3.687-1.073,15,15,0,0,1,3.243-.192,10.553,10.553,0,0,0,2.405-.562c.312-.062.608-.02.915-.065.06.023.12.043.182.06-.271-.116-.3-.121-.076-.013a8.633,8.633,0,0,0,2.842,1.424,2.062,2.062,0,0,0,2.46-1.4,2.015,2.015,0,0,0-1.4-2.46Z"/><path class="c" d="M174.164,51.568a38.735,38.735,0,0,0,.63,4.446,8.183,8.183,0,0,0,1.588,3.922,4.417,4.417,0,0,0,5.269.685,4.145,4.145,0,0,0,1.767-1.86,6.062,6.062,0,0,0,.472-2.657,39.258,39.258,0,0,0-.678-5.483,2,2,0,0,0-.919-1.2,2,2,0,0,0-2.737.718,2.308,2.308,0,0,0-.2,1.541c.095.613.2,1.224.293,1.838.026.166.05.333.074.5.018.12.045.387-.019-.152.008.064.017.127.025.191.045.357.084.714.114,1.073a12.274,12.274,0,0,1,.018,1.859c-.023.332.133-.506,0-.09a1.193,1.193,0,0,0-.053.183c-.029.215.1-.315.114-.257.019.081-.16.255-.188.328.139-.358.271-.313.135-.181-.056.054-.118.11-.169.169-.151.177.382-.248.179-.132-.057.032-.109.073-.165.106s-.087.046-.129.071c-.281.169.212-.1.2-.083a.98.98,0,0,1-.4.107c-.012,0,.562-.027.215-.033-.092,0-.184.005-.276,0-.469-.019.353.1.016,0-.076-.021-.16-.046-.237-.062-.392-.083.244.061.222.106,0,0-.14-.079-.129-.073-.168-.1.015-.125.224.178a1.711,1.711,0,0,0-.217-.226c.409.392.195.264.075.06-.061-.1-.112-.209-.166-.316-.142-.279.191.5.024.046-.045-.122-.085-.244-.123-.367a14.136,14.136,0,0,1-.353-1.493c-.1-.537-.21-1.074-.3-1.613-.025-.146-.049-.293-.07-.439-.012-.076-.02-.152-.033-.228.1.584.035.253.019.115-.051-.434-.088-.869-.119-1.3a2,2,0,1,0-4,0Z"/><path class="c" d="M185.422,49.614a15.923,15.923,0,0,0-.338,2.576c-.082.99-.142,1.981-.223,2.971-.04.481-.083.963-.138,1.443-.013.113-.03.225-.041.337-.021.219.049-.348.041-.3s-.017.12-.026.18c-.029.2-.061.392-.1.587-.033.169-.07.338-.115.5-.02.073-.044.144-.065.216-.1.343.1-.215.1-.215a.829.829,0,0,0-.077.148c-.122.268.271-.326.205-.262-.2.2.329-.2.2-.148a1.917,1.917,0,0,0-.278.157c-.193.121.46-.164.235-.1-.059.017-.117.041-.176.059-.124.039-.25.065-.377.095-.422.1.462-.017.029-.006-.138,0-.273,0-.411,0-.428-.005.423.124.025,0-.1-.03-.529-.175-.189-.041.446.176-.361-.277.018,0,.248.183.106.079.052.026-.265-.26.268.4.06.081a2,2,0,0,0-3.454,2.019,4.484,4.484,0,0,0,4.686,1.813A3.774,3.774,0,0,0,188,59.86a10.87,10.87,0,0,0,.731-3.354c.124-1.12.195-2.245.277-3.369.041-.557.082-1.114.139-1.67.012-.123.026-.245.04-.367.051-.461-.079.477-.018.129.033-.185.061-.369.107-.552a2,2,0,1,0-3.857-1.063Z"/><path class="c" d="M180.878,68.746c1.964-.882,2.54-2.963,3.49-4.7.055-.1.232-.306-.062.069a2.83,2.83,0,0,1,.225-.261c.243-.242.473-.492.733-.717a9.475,9.475,0,0,1,2.545-1.558,6.9,6.9,0,0,0,2.967-1.848,5.188,5.188,0,0,0,.633-6.469A5.016,5.016,0,0,0,190.272,52c-.219-.175-.5-.635-.258-.131a1.706,1.706,0,0,1-.172-.462,2.614,2.614,0,0,1,.11-1.656c.186-.376.166-.177.027-.118.373-.158.882.113,1.206.269a9.321,9.321,0,0,1,2.709,2.3,10.537,10.537,0,0,1,1.858,2.514,4.2,4.2,0,0,1-.067,2.89,17.066,17.066,0,0,1-.949,3.278,14.028,14.028,0,0,1-3.432,4.936c-.971.793-2.145,1.291-3.165,2.012a6.84,6.84,0,0,0-2.578,3.324c-1.106,2.928-1.169,6.136-1.994,9.139-.682,2.486,3.175,3.547,3.857,1.064.8-2.924.793-6.14,1.932-8.965.424-1.054,1.368-1.487,2.3-2.035a14.538,14.538,0,0,0,3.037-2.233,19.587,19.587,0,0,0,3.975-6.335,23.29,23.29,0,0,0,.916-3.306,8.567,8.567,0,0,0,.191-4.4c-.67-2.348-2.713-4.611-4.53-6.173-1.892-1.627-4.782-3.194-7.239-1.76-1.957,1.142-2.453,3.71-2.123,5.782a4.875,4.875,0,0,0,1.261,2.729c.529.506,1.3.817,1.093,1.735-.311,1.365-2.461,1.678-3.477,2.249a12.863,12.863,0,0,0-2.774,2.086,7.078,7.078,0,0,0-1.279,1.684c-.506.964-.785,2.4-1.85,2.88a2.014,2.014,0,0,0-.718,2.736,2.048,2.048,0,0,0,2.736.718Z"/><path class="c" d="M216.332,108.287a53.354,53.354,0,0,0,5.333-2.465c.728-.348,1.485-.667,2.19-1.061a8.583,8.583,0,0,0,3.229-3.532,10.564,10.564,0,0,0,.832-3.1,30.839,30.839,0,0,0,.384-3.906,2.018,2.018,0,0,0-2-2,2.038,2.038,0,0,0-2,2c-.011.482-.035.963-.076,1.444-.018.215-.04.43-.064.644-.012.107-.025.214-.038.321.035-.281-.023.17-.031.218-.12.82-.335,1.611-.487,2.417-.051.267.164-.289.027-.052-.039.065-.067.14-.1.207-.072.139-.151.275-.235.407-.042.066-.1.131-.135.2-.127.25.205-.225.011-.007-.138.154-.27.313-.414.462-.3.313-.638.585-.961.875-.213.191.345-.166.025-.04-.669.264-1.314.641-1.963.951q-1.461.7-2.926,1.389-.686.321-1.373.639l-.471.213c-.4.183.521-.2.182-.078a2,2,0,1,0,1.063,3.857Z"/><path class="c" d="M244.39,94.209c.106,3.573.529,7.8,3.553,10.183a22.564,22.564,0,0,0,5.007,2.477c.825.363,1.647.731,2.479,1.078a2,2,0,0,0,2.46-1.4,2.063,2.063,0,0,0-1.4-2.46c.8.332.263.109-.057-.031l-1.057-.464q-1.341-.59-2.68-1.182c-.567-.25-1.155-.476-1.708-.757-.038-.019-.068-.038-.107-.06-.072-.04-.456-.3-.312-.191s-.2-.181-.265-.239c-.148-.14-.283-.288-.419-.439-.25-.277.1.17-.107-.139-.094-.141-.188-.282-.274-.428s-.164-.292-.239-.441c-.037-.074-.069-.151-.106-.224-.131-.257.1.3.014.029a18.244,18.244,0,0,1-.785-5.315,2,2,0,0,0-4,0Z"/><path class="f" d="M272.148,166.411a30.744,30.744,0,0,0,4.238,4.31c2.949,2.567,9.11,6.092,12.383,1.937,2.811-3.571,3.027-5.123,2.225-9.307a159.8,159.8,0,0,0-4.639-17.525c-1.261-3.714-1.809-5.762-3.251-9.382-1.416-4.046-4.815-15.934-9.6-21.23-5.012-5.544-15.684-10.057-16.259-9.007-3.292,2.985-13.494,6.041-20.956,6.023-7.888-.02-16.33-2.935-20.817-5.87l-.073-.048c-7.751-.072-19.765,1.726-24.32,1.491-4.882-.252-5.926-.042-10.781-.177l-.55-.015c1.479-7.953,4.894-21.829,6.186-26.917-4.451.181-13.93-.863-17.5-.312-.81,2.7-7.305,18.841-9.272,25.155-1.423,4.563-4.489,14.369.37,18.227,2.531,2.01,8.433,3.028,11.329,3.237,3.687.267,38.019,3.927,34.168,4.515,1.4,9.769,3.942,24.644,5.524,32.48.334,2.662-.762,10.6-2.144,18.621h53.741Z"/><path class="a" d="M255.857,348.212a23.553,23.553,0,0,0,2.665,10.738l-17.1-.332.066-9.605"/><path class="a" d="M218.063,348.212A23.528,23.528,0,0,1,215.4,358.95l17.1-.332-.066-9.605"/><path class="c" d="M216.063,348.212a25.44,25.44,0,0,1-.17,2.689q-.045.361,0,.041c-.018.127-.038.254-.059.38q-.047.285-.1.569-.125.663-.287,1.317a23.566,23.566,0,0,1-.8,2.574c-.068.181-.139.359-.209.539-.09.219-.1.238-.02.055-.051.118-.1.236-.156.353-.184.41-.382.813-.589,1.212a2,2,0,0,0,3.454,2.019,26.061,26.061,0,0,0,2.938-11.748,2,2,0,0,0-4,0Z"/><path class="c" d="M230.429,349.013l.066,9.605a2,2,0,1,0,4,0l-.066-9.605a2,2,0,0,0-4,0Z"/><path class="c" d="M253.857,348.212A26.075,26.075,0,0,0,256.8,359.96a2.014,2.014,0,0,0,2.736.717,2.044,2.044,0,0,0,.717-2.736c-.206-.4-.4-.8-.589-1.212-.053-.117-.1-.235-.155-.353.077.183.07.164-.02-.055-.07-.18-.142-.358-.209-.539a23.416,23.416,0,0,1-.8-2.574q-.163-.654-.288-1.317c-.035-.189-.069-.379-.1-.569-.02-.126-.04-.253-.059-.38q.041.321,0-.041a25.176,25.176,0,0,1-.17-2.689,2,2,0,0,0-4,0Z"/><path class="c" d="M239.491,349.013l-.066,9.605a2,2,0,0,0,4,0l.066-9.605a2,2,0,0,0-4,0Z"/><path class="e" d="M200.637,380.992c-.089-.117-.174-.238-.253-.363a6.785,6.785,0,0,1-.449-5.689,18.633,18.633,0,0,1,2.919-5.094q4.227-5.772,8.933-11.17c1.223-1.4,2.606-2.865,4.435-3.21a2.749,2.749,0,0,0,1.367,2.885,6.452,6.452,0,0,0,3.3.744A18.3,18.3,0,0,0,233.7,354c-.021,3.854.017,5.137,0,8.993a8.113,8.113,0,0,1-.338,2.78c-.793,2.143-3.142,3.175-5.028,4.465-4.905,3.357-7.489,9.481-12.629,12.466a13.271,13.271,0,0,1-12.268.44A7.75,7.75,0,0,1,200.637,380.992Z"/><path class="e" d="M273.283,380.992q.134-.175.254-.363a6.792,6.792,0,0,0,.449-5.689,18.61,18.61,0,0,0-2.92-5.094q-4.225-5.772-8.933-11.17c-1.223-1.4-2.6-2.865-4.434-3.21a2.752,2.752,0,0,1-1.367,2.885,6.454,6.454,0,0,1-3.3.744,18.3,18.3,0,0,1-12.812-5.1c.021,3.854-.018,5.137,0,8.993a8.064,8.064,0,0,0,.338,2.78c.792,2.143,3.142,3.175,5.027,4.465,4.906,3.357,7.489,9.481,12.629,12.466a13.271,13.271,0,0,0,12.268.44A7.742,7.742,0,0,0,273.283,380.992Z"/><path class="a" d="M262.467,182.773c1.129,3.963,2.526,10.543,3.438,15.708,4.454,25.24.148,51-1.785,75.706-2,25.62-3.229,51.239-5.233,76.858a116.164,116.164,0,0,1-22.593.164,116.3,116.3,0,0,1-22.606-.164c-2-25.619-3.229-51.238-5.233-76.858-1.933-24.7-6.239-50.466-1.784-75.706.911-5.165,2.308-11.745,3.437-15.708"/><path class="c" d="M202.364,379.982c-2.83-4.045,2.175-9.148,4.506-12.179q2.388-3.1,4.931-6.086c1.345-1.582,2.81-3.825,4.952-4.323l-2.46-2.46a4.88,4.88,0,0,0,2.66,5.346c2.163,1.064,4.759.921,7.08.586a20.146,20.146,0,0,0,11.08-5.455L231.7,354c-.016,3.2.077,6.4-.008,9.6a3.662,3.662,0,0,1-1.724,3.2c-1.291.936-2.691,1.682-3.942,2.683-4.778,3.822-7.525,10.766-13.785,12.525-3.378.949-7.843.423-10.188-2.429-1.637-1.989-4.452.855-2.829,2.829,2.488,3.024,7.018,4.241,10.8,4a16.111,16.111,0,0,0,10.285-4.765c2.592-2.517,4.556-5.6,7.158-8.109,2.465-2.377,6.343-3.534,7.693-6.916.8-2,.548-4.352.544-6.47,0-2.049-.014-4.1,0-6.148a2.022,2.022,0,0,0-3.414-1.414,16.07,16.07,0,0,1-6.837,3.905,15.431,15.431,0,0,1-4.561.608c-.679-.013-2.9-.212-2.737-1.1a2.028,2.028,0,0,0-2.46-2.46c-2.793.649-4.631,2.909-6.408,4.988q-3.187,3.731-6.156,7.638c-3.3,4.316-8.053,10.353-4.216,15.838C200.375,384.1,203.845,382.1,202.364,379.982Z"/><path class="c" d="M234.96,229.286c-.343,3.781-.305,7.612-.335,11.4-.044,5.588-.021,11.177.013,16.765.047,7.855.133,15.709.121,23.563q-.019,13.074-.05,26.147-.027,14.666-.029,29.332,0,5.295.026,10.59c.009,1.682-.062,3.4.068,5.074a2.223,2.223,0,0,0,.6,1.564c1.883,1.752,4.718-1.07,2.829-2.829a2.553,2.553,0,0,1,.568,1.292,1.739,1.739,0,0,0-.011-.238c0-.264-.015-.53-.021-.794-.018-.958-.024-1.916-.031-2.873-.023-3.255-.027-6.509-.031-9.763q-.015-14.283.022-28.567.022-13.425.052-26.849c.013-7.277-.04-14.552-.093-21.829-.072-10.009-.326-20.071.169-30.072.032-.64.07-1.279.128-1.917a2.015,2.015,0,0,0-2-2,2.043,2.043,0,0,0-2,2Z"/><path class="c" d="M275.01,382c3.838-5.485-.922-11.521-4.216-15.838q-2.9-3.806-6-7.456c-1.819-2.135-3.693-4.5-6.563-5.17a2.028,2.028,0,0,0-2.46,2.46c.159.885-2.051,1.085-2.736,1.1a15.564,15.564,0,0,1-4.561-.608,16.021,16.021,0,0,1-6.837-3.905A2.022,2.022,0,0,0,238.222,354c.008,1.769,0,3.537,0,5.305a37.81,37.81,0,0,0,.143,5.831c.612,3.978,4.239,5.166,6.991,7.41,2.8,2.287,4.8,5.39,7.229,8.035a16.87,16.87,0,0,0,9.593,5.625c4.285.695,9.629-.279,12.521-3.8,1.623-1.973-1.191-4.819-2.828-2.829-2.035,2.474-5.78,3.209-8.826,2.734-3.255-.508-5.734-2.453-7.881-4.837-2.124-2.358-3.934-5-6.284-7.152a25.874,25.874,0,0,0-3.751-2.755c-1.068-.673-2.388-1.415-2.76-2.712-.469-1.636-.152-3.7-.147-5.39,0-1.823.011-3.646,0-5.469l-3.415,1.415a20.146,20.146,0,0,0,11.081,5.455c2.32.335,4.917.478,7.079-.586a4.879,4.879,0,0,0,2.66-5.346l-2.46,2.46c2.081.483,3.489,2.605,4.8,4.141q2.618,3.072,5.086,6.268c2.33,3.03,7.335,8.134,4.5,12.179C270.077,382.1,273.544,384.1,275.01,382Z"/><path class="c" d="M208.18,182.242a145.949,145.949,0,0,0-5.087,29.3,220.239,220.239,0,0,0,.687,33.465c.917,11.056,2.146,22.083,2.979,33.147.858,11.4,1.578,22.807,2.3,34.214.813,12.9,1.627,25.794,2.632,38.677a2.068,2.068,0,0,0,2,2,125.8,125.8,0,0,0,21.507.25c2.551-.19,2.572-4.192,0-4a125.8,125.8,0,0,1-21.507-.25l2,2c-1.772-22.71-2.943-45.461-4.582-68.18-.8-11.029-1.9-22.022-2.9-33.032a262.948,262.948,0,0,1-1.375-33.2,141.845,141.845,0,0,1,5.21-33.33c.7-2.482-3.158-3.541-3.857-1.063Z"/><path class="c" d="M260.538,183.305a140.852,140.852,0,0,1,5.008,29.207,226.065,226.065,0,0,1-.812,33.219c-.926,10.98-2.132,21.93-2.955,32.919-.848,11.316-1.562,22.641-2.275,33.966-.808,12.814-1.618,25.629-2.617,38.429l2-2a125.8,125.8,0,0,1-21.507.25c-2.568-.191-2.555,3.81,0,4a125.8,125.8,0,0,0,21.507-.25,2.066,2.066,0,0,0,2-2c1.779-22.792,2.951-45.626,4.6-68.428.8-11.107,1.927-22.177,2.93-33.266a256.581,256.581,0,0,0,1.3-33.444,146.374,146.374,0,0,0-5.326-33.665c-.7-2.474-4.558-1.423-3.857,1.063Z"/><path class="c" d="M210.108,184.617h52.036c2.573,0,2.578-4,0-4H210.108c-2.574,0-2.578,4,0,4Z"/><path class="c" d="M214.462,108.087a41.149,41.149,0,0,0,23.617,6.092,48.447,48.447,0,0,0,11.489-2.117,25.834,25.834,0,0,0,8.916-4.288c1.989-1.636-.855-4.452-2.828-2.828-1.942,1.6-4.99,2.612-7.512,3.368a43.388,43.388,0,0,1-10.43,1.884,37.467,37.467,0,0,1-21.233-5.565c-2.171-1.4-4.179,2.064-2.019,3.454Z"/><path class="c" d="M208.547,164a32.145,32.145,0,0,1-.44,7.4c-.465,3.782-1.087,7.545-1.738,11.3a2.059,2.059,0,0,0,1.4,2.461,2.018,2.018,0,0,0,2.46-1.4c.695-4,1.337-8.017,1.842-12.049a33.246,33.246,0,0,0,.479-7.71,2.061,2.061,0,0,0-2-2,2.013,2.013,0,0,0-2,2Z"/><path class="c" d="M218.17,104.432c-6.422-.577-13.006.421-19.4.98a163.35,163.35,0,0,1-18.475.214c-2.575-.067-2.574,3.933,0,4a163.353,163.353,0,0,0,18.475-.214c6.392-.559,12.976-1.557,19.4-.98a2.015,2.015,0,0,0,2-2,2.043,2.043,0,0,0-2-2Z"/><path class="c" d="M202.538,127.992c1.6,12.227,3.646,24.447,6.08,36.536.508,2.521,4.364,1.454,3.857-1.063-2.362-11.737-4.381-23.6-5.937-35.473a2.066,2.066,0,0,0-2-2,2.011,2.011,0,0,0-2,2Z"/><path class="c" d="M205.069,129.166c-5.075-1.174-10.4-1.57-15.567-2.178-5.659-.666-11.324-1.3-17-1.841a45.813,45.813,0,0,1-7.26-1.1,11.812,11.812,0,0,1-4.521-1.872,5.577,5.577,0,0,1-1.755-3.684c-.449-3.48.529-7.108,1.5-10.418.81-2.751,1.762-5.454,2.751-8.146,1.412-3.845,2.885-7.669,4.349-11.5.95-2.486,2-4.967,2.783-7.515l-1.4,1.4c-.39.056.443-.032.518-.037.246-.017.492-.027.738-.036.661-.022,1.322-.021,1.982-.012,1.611.023,3.221.1,4.83.183,2.96.149,5.94.39,8.906.286L184,80.162q-1.857,7.322-3.56,14.681c-1.177,5.078-2.419,10.188-3.155,15.354a2.067,2.067,0,0,0,1.4,2.46,2.014,2.014,0,0,0,2.46-1.4c.736-5.166,1.979-10.276,3.155-15.354q1.706-7.358,3.561-14.68a2.021,2.021,0,0,0-1.929-2.532c-5.987.211-12.079-1.09-18.037-.241a1.971,1.971,0,0,0-1.4,1.4c-.681,2.23-1.594,4.4-2.426,6.578-1.327,3.476-2.665,6.948-3.966,10.434-2.338,6.265-5.145,13.012-5.219,19.791-.041,3.789,1.175,7.581,4.66,9.51,3.381,1.872,7.535,2.528,11.339,2.841,4.97.408,9.93.991,14.884,1.553,3.7.42,7.4.856,11.1,1.341,2.218.291,4.8.584,7.138,1.125,2.5.579,3.574-3.277,1.063-3.857Z"/><path class="g" d="M263.48,162.947c-4.205.646-5.149,12.322-5.462,17.4a133.845,133.845,0,0,0,.082,18.367,58.973,58.973,0,0,0,1.318,9.818c.936,3.676,1.421,8.182,5.791,8.752,4.086.534,16.883-2.828,18.674-3.782,2.028-1.08,1.7-2.649,1.816-4.79a47.539,47.539,0,0,0-.952-10.852c-.568-3.372-1.685-9.166-2.654-12.522,0,0-6.946-21.175-11.532-21.985Z"/><path class="c" d="M262.948,161.018c-3.569.679-4.877,5.279-5.555,8.29a73.022,73.022,0,0,0-1.433,12.032,137.637,137.637,0,0,0,.355,20.019,60.6,60.6,0,0,0,1.39,8.587,18.454,18.454,0,0,0,2.151,6.124c2.459,3.673,6.541,3.452,10.411,2.89a81.138,81.138,0,0,0,11.273-2.529,14.744,14.744,0,0,0,3.669-1.389c2.221-1.391,2.393-3.6,2.475-5.981a56.411,56.411,0,0,0-1.387-13.633c-.845-3.98-1.789-7.941-2.776-11.887a95.088,95.088,0,0,0-3.141-11.011,2.058,2.058,0,0,0-2.461-1.4,2.015,2.015,0,0,0-1.4,2.46,79.02,79.02,0,0,1,2.51,8.525q1.38,5.326,2.593,10.695c.6,2.613,1.158,5.219,1.568,7.867a44.181,44.181,0,0,1,.491,8.38,5.35,5.35,0,0,1-.181,2.183c-.153.28-.366.357-.629.529-.477.311.255-.068-.167.075a79.36,79.36,0,0,1-9.018,2.434c-1.657.354-3.329.687-5.012.888a9.527,9.527,0,0,1-3.9-.023c-1.533-.53-2.122-2.135-2.541-3.568a53.626,53.626,0,0,1-1.471-6.437,103.873,103.873,0,0,1-1.009-17.836,99.735,99.735,0,0,1,.99-14.259,28.648,28.648,0,0,1,1.4-5.777,7.238,7.238,0,0,1,1.029-1.914c-.22.271.549-.581.219-.228.01-.01.477-.261.212-.153-.215.087.335-.086.4-.1,2.526-.481,1.456-4.337-1.064-3.857Z"/><path class="f" d="M257.991,106.074c2.623.328,11.181,4.349,15.512,9.14,4.786,5.3,8.185,17.184,9.6,21.23,1.442,3.62,1.99,5.668,3.251,9.382a159.8,159.8,0,0,1,4.639,17.525c.8,4.184.586,5.736-2.225,9.307-3.273,4.155-9.434.63-12.383-1.937-4.044-3.521-6.532-6.464-7.444-11.821l-3.269-17.938Z"/><path class="c" d="M273.875,165.4a16.071,16.071,0,0,1-2.029-3.419,2.245,2.245,0,0,0-1.2-.919,2.048,2.048,0,0,0-1.541.2,2.017,2.017,0,0,0-.919,1.2l-.071.532a1.987,1.987,0,0,0,.273,1.009,16.071,16.071,0,0,0,2.029,3.419,2.238,2.238,0,0,0,1.195.919,2.043,2.043,0,0,0,1.541-.2,2.017,2.017,0,0,0,.919-1.195l.072-.531a2.008,2.008,0,0,0-.273-1.01Z"/><path class="f" d="M267.739,131.285a75.374,75.374,0,0,0-1.517-14.364c-1.171-5.516-2.732-8.9-4.249-10.318-1.145-.547-3.184-1.009-3.945-.4,1.746,2.2,2.639,8.791,3.035,12.138.387,3.277.8,16.995.8,16.758l.237,17.365a99.5,99.5,0,0,1-.2,10.886l5.937.033a49.624,49.624,0,0,0,.2-9.854Z"/><path class="c" d="M257.459,108a20.436,20.436,0,0,1,6.485,2.611,30.886,30.886,0,0,1,7.92,5.772,26.91,26.91,0,0,1,4.482,7.377,90.3,90.3,0,0,1,3.288,8.585c1.991,5.9,4.181,11.729,5.957,17.7q1.509,5.073,2.7,10.236c.579,2.5,1.8,5.825.734,8.334-.53,1.254-1.59,3.043-2.852,3.657-1.286.626-2.859.194-4.113-.308-3.367-1.351-6.3-4.171-8.5-6.97a2.014,2.014,0,0,0-2.829,0,2.051,2.051,0,0,0,0,2.829c3.7,4.7,12.544,12.294,18.636,7.079a11.34,11.34,0,0,0,3.995-9.067,64.347,64.347,0,0,0-2.261-10.89c-1.851-7.136-4.419-13.987-6.721-20.976-2.038-6.187-4.068-12.808-7.882-18.169a28.751,28.751,0,0,0-9-7.768c-2.667-1.583-5.856-3.44-8.98-3.889a2.067,2.067,0,0,0-2.46,1.4,2.016,2.016,0,0,0,1.4,2.461Z"/><path class="c" d="M268.714,160.916a22.2,22.2,0,0,1-2.725-.181,9.753,9.753,0,0,0-1.346-.031,5.3,5.3,0,0,0-1.695.314,2.2,2.2,0,0,0-1.195.919,2,2,0,0,0,.718,2.737,1.932,1.932,0,0,0,1.541.2,3.35,3.35,0,0,1,.8-.208l-.531.072c1.482-.188,2.956.242,4.438.177a2.1,2.1,0,0,0,1.414-.586,2,2,0,0,0-1.414-3.414Z"/><path class="c" d="M266.441,152.918a44.549,44.549,0,0,1,.148,4.764c-.01.9-.036,1.8-.092,2.692-.025.415-.057.83-.1,1.243-.017.168-.04.336-.057.5-.027.255.077-.5.021-.169-.017.1-.031.193-.048.289a2.048,2.048,0,0,0,1.4,2.46,2.025,2.025,0,0,0,2.46-1.4,34.677,34.677,0,0,0,.418-5.481,45.1,45.1,0,0,0-.147-4.905,2.045,2.045,0,0,0-2-2,2.022,2.022,0,0,0-2,2Z"/><path class="c" d="M260.5,151.853c.14,1.8.084,3.628.05,5.432s-.055,3.648-.249,5.454a2,2,0,0,0,2,2,2.058,2.058,0,0,0,2-2c.194-1.806.214-3.639.249-5.454s.09-3.631-.05-5.432a2,2,0,0,0-4,0Z"/><path class="a" d="M269.474,158.154c4.275.981,5.862,1.579,10.432-.305,4.41-1.818,3.466-7.175,1.17-10.294-2.447-3.325-2.906-3.422-5.772-6.293-3.507-3.513-6.166-5.59-11.216-6.508-2.213-.4-4.574-1.172-6.4.5-2.061,1.892-1.7,4.626,1.136,5.063-2.581-.752-3.764,2.511-2.092,4.518-1.962.694-1.887,2.9-1.242,4.3.6,1.3,4.553,1.9,5.487,2-2.049.234-3.422,1.1-3.658,2.407-.154.851-.1,1.748,1.487,2.6,2.874,1.556,6.782,1.325,10,1.779"/><path class="c" d="M268.942,160.082c2.235.517,4.545,1.182,6.86.942a12.839,12.839,0,0,0,6.982-2.645c3.276-2.9,2.5-8.057.338-11.373a28.423,28.423,0,0,0-3.894-4.715c-1.632-1.6-3.232-3.265-4.965-4.756a22.2,22.2,0,0,0-13.336-5.3,6.206,6.206,0,0,0-6.383,4.412,4.525,4.525,0,0,0,3.751,5.6c2.5.486,3.592-3.261,1.063-3.857-4.391-1.035-6.9,4.091-4.351,7.456l1.195-2.938a4.54,4.54,0,0,0-3.067,3.815,5.365,5.365,0,0,0,1.031,3.981c1.584,1.8,4.558,2.168,6.813,2.436l-.532-3.928a5.951,5.951,0,0,0-4.7,2.826,4.174,4.174,0,0,0,.8,4.939c3.132,2.944,8.323,2.433,12.264,2.954a2.01,2.01,0,0,0,2-2,2.052,2.052,0,0,0-2-2c-2.623-.347-5.347-.237-7.89-1.049-.508-.162-1.115-.678-1.586-.772-.176-.035-.162-.506-.062.142-.024-.158-.048-.24.011-.3a3.5,3.5,0,0,1,2.231-.882,1.977,1.977,0,0,0,1.432-2.195,2.039,2.039,0,0,0-1.964-1.734c-.194-.023-.168-.02.076.012-.139-.02-.278-.042-.416-.064-.339-.062-.677-.119-1.014-.191a12.933,12.933,0,0,1-1.971-.555,1.089,1.089,0,0,1-.542-.32c.269.37-.015-.4-.021-.443-.023-.188-.082-.707.175-.814,1.041-.437,2.068-1.788,1.195-2.938a1.632,1.632,0,0,1-.471-1.389c.069-.284-.06-.277.305-.191l1.063-3.857c-1.077-.21-1.3-.595-.5-1.48,1.155-1.274,3.265-.508,4.7-.227a17.45,17.45,0,0,1,8.95,4.647,53.578,53.578,0,0,1,6.578,6.878c1.27,1.711,2.905,4.8,1.372,6.843-.983,1.31-3.426,1.861-4.966,2a17.626,17.626,0,0,1-5.486-.828c-2.5-.579-3.574,3.277-1.063,3.857Z"/><path class="c" d="M264.892,139.551a52.23,52.23,0,0,0-6.066-1.233,2,2,0,0,0-1.414.586,2,2,0,0,0,0,2.829l.405.312a1.987,1.987,0,0,0,1.009.273l.333.041-.532-.071c1.762.239,3.474.712,5.2,1.12a2.1,2.1,0,0,0,1.542-.2,2,2,0,0,0-.478-3.655Z"/><path class="c" d="M263.768,144.628a22.41,22.41,0,0,0-2.862-.653c-.938-.176-1.881-.329-2.817-.519a2.135,2.135,0,0,0-1.541.2,2,2,0,0,0,.477,3.655c.936.19,1.879.343,2.818.519a22.356,22.356,0,0,1,2.861.653,2.015,2.015,0,0,0,2.46-1.4,2.044,2.044,0,0,0-1.4-2.46Z"/><path class="c" d="M263.875,149.742a15.3,15.3,0,0,0-2.774-.429l.532.071a3.442,3.442,0,0,1-.552-.113,1.516,1.516,0,0,0-.8-.036,1.492,1.492,0,0,0-.744.237,2.245,2.245,0,0,0-.919,1.2,2.027,2.027,0,0,0,.2,1.541,2.146,2.146,0,0,0,1.195.919,7.041,7.041,0,0,0,1.307.212c.336.037.673.066,1.008.111l-.532-.071a5.742,5.742,0,0,1,1.012.219,1.522,1.522,0,0,0,.8.036,2.057,2.057,0,0,0,1.663-1.433,2.022,2.022,0,0,0-.2-1.541,2.17,2.17,0,0,0-1.195-.919Z"/><path class="c" d="M269.794,135.432a105.651,105.651,0,0,0-1.323-17.391,33.451,33.451,0,0,0-3.341-10.523,6.125,6.125,0,0,0-2.9-2.968c-1.593-.631-3.663-1.025-5.207-.078a2.014,2.014,0,0,0-.718,2.736c1.38,1.845,1.729,4.508,2.122,6.714a58.766,58.766,0,0,1,.8,6.228c.318,4.591.453,9.2.606,13.8.085,2.567,4.085,2.579,4,0-.158-4.75-.282-9.513-.638-14.253a68.292,68.292,0,0,0-.938-7.007c-.448-2.478-.946-5.429-2.493-7.5l-.717,2.737c.269-.166,1.11.2,1.5.253.318.04.333.126.5.336a12.183,12.183,0,0,1,1.579,3.007,45.4,45.4,0,0,1,2.367,9.792,105.594,105.594,0,0,1,.82,14.118c.035,2.572,4.035,2.58,4,0Z"/><path class="g" d="M137.978,308.277c.272-8.344-.049-59.986-.086-67.347a1.056,1.056,0,0,0-1-1.053c-4.363-.2-12.661-.411-17.273-.422a1.047,1.047,0,0,0-1.055,1.013c-.436,11.779-.678,58.425-.606,67.549a1.042,1.042,0,0,0,1,1.036c5.1.206,13.634.216,17.966.245A1.048,1.048,0,0,0,137.978,308.277Z"/><path class="a" d="M103.469,345.47a24.787,24.787,0,0,0,2.808,11.311l-18.01-.349.069-10.118"/><path class="a" d="M63.658,345.47a24.8,24.8,0,0,1-2.807,11.311l18.009-.349-.069-10.118"/><path class="c" d="M61.658,345.47a26.289,26.289,0,0,1-.179,2.832c-.03.245-.033.268-.009.072-.02.133-.04.267-.062.4q-.05.3-.105.6-.132.7-.3,1.387a24.63,24.63,0,0,1-.84,2.711c-.071.191-.146.379-.22.568q-.136.333-.032.084c-.053.124-.108.248-.163.371-.2.432-.4.856-.621,1.277a2,2,0,0,0,3.454,2.019,27.345,27.345,0,0,0,3.08-12.321,2,2,0,0,0-4,0Z"/><path class="c" d="M76.791,346.314l.069,10.118a2,2,0,0,0,4,0l-.069-10.118a2,2,0,0,0-4,0Z"/><path class="e" d="M45.3,380c-.094-.123-.183-.251-.267-.382a7.155,7.155,0,0,1-.473-5.993,19.6,19.6,0,0,1,3.076-5.365q4.45-6.081,9.409-11.767c1.289-1.478,2.745-3.018,4.672-3.381a2.894,2.894,0,0,0,1.44,3.038,6.793,6.793,0,0,0,3.474.785,19.28,19.28,0,0,0,13.5-5.371c-.022,4.059.019,5.411,0,9.472a8.5,8.5,0,0,1-.356,2.929c-.835,2.257-3.31,3.344-5.3,4.7-5.167,3.536-7.888,9.988-13.3,13.132a13.98,13.98,0,0,1-12.923.463A8.171,8.171,0,0,1,45.3,380Z"/><path class="c" d="M101.469,345.47a27.333,27.333,0,0,0,3.081,12.321,2.014,2.014,0,0,0,2.736.717,2.046,2.046,0,0,0,.718-2.736,18.327,18.327,0,0,1-1.037-2.3,24.847,24.847,0,0,1-.84-2.711q-.171-.689-.3-1.387-.057-.3-.106-.6c-.021-.134-.042-.268-.062-.4.025.2.022.173-.009-.072a26.548,26.548,0,0,1-.179-2.832,2,2,0,0,0-4,0Z"/><path class="c" d="M86.336,346.314l-.069,10.118a2,2,0,0,0,4,0l.069-10.118a2,2,0,0,0-4,0Z"/><path class="e" d="M121.825,380c.094-.123.183-.251.267-.382a7.151,7.151,0,0,0,.473-5.993,19.623,19.623,0,0,0-3.075-5.365q-4.452-6.081-9.41-11.767c-1.288-1.478-2.745-3.018-4.671-3.381a2.9,2.9,0,0,1-1.44,3.038,6.8,6.8,0,0,1-3.474.785A19.284,19.284,0,0,1,87,351.563c.022,4.059-.018,5.411,0,9.472a8.527,8.527,0,0,0,.356,2.929c.835,2.257,3.31,3.344,5.3,4.7,5.167,3.536,7.889,9.988,13.3,13.132a13.98,13.98,0,0,0,12.923.463A8.163,8.163,0,0,0,121.825,380Z"/><path class="c" d="M47.029,378.989c-1.344-1.922-1-4.187.038-6.184a46.519,46.519,0,0,1,4.7-6.74q2.5-3.25,5.16-6.374c1.449-1.707,3.014-4.116,5.324-4.652l-2.46-2.46a5.051,5.051,0,0,0,2.89,5.569c2.236,1.054,4.926.889,7.308.537a21.107,21.107,0,0,0,11.555-5.708l-3.415-1.414c-.017,3.367.082,6.743-.008,10.11a4.014,4.014,0,0,1-2,3.556c-1.361.948-2.794,1.747-4.09,2.792C67.1,372,64.251,379.129,57.845,381.083c-3.657,1.116-8.562.622-11.128-2.5-1.637-1.989-4.452.855-2.829,2.829,2.64,3.209,7.482,4.482,11.491,4.166a17,17,0,0,0,10.78-5.183c2.624-2.615,4.658-5.759,7.328-8.332,2.586-2.491,6.667-3.713,8.084-7.254.844-2.112.566-4.611.561-6.843,0-2.135-.014-4.27,0-6.4a2.022,2.022,0,0,0-3.414-1.414,17.037,17.037,0,0,1-7.316,4.159,16.436,16.436,0,0,1-4.765.626c-.7-.013-3.192-.145-2.986-1.292a2.028,2.028,0,0,0-2.46-2.46c-2.964.688-4.9,3.118-6.785,5.322q-3.3,3.869-6.376,7.916c-3.446,4.515-8.467,10.847-4.45,16.588C45.04,383.1,48.51,381.105,47.029,378.989Z"/><path class="c" d="M123.552,381.008c4.016-5.741-1-12.072-4.45-16.588q-3.013-3.947-6.224-7.736c-1.923-2.259-3.9-4.8-6.937-5.5a2.028,2.028,0,0,0-2.461,2.46c.206,1.145-2.3,1.279-2.985,1.292a16.442,16.442,0,0,1-4.766-.626,17.037,17.037,0,0,1-7.316-4.159A2.022,2.022,0,0,0,85,351.563c.009,1.851.005,3.7,0,5.552a40.186,40.186,0,0,0,.146,6.15c.642,4.206,4.525,5.424,7.406,7.817,2.858,2.373,4.924,5.521,7.407,8.251,2.7,2.965,6.019,5.347,10.046,6.026,4.522.764,10.176-.225,13.236-3.946,1.623-1.973-1.191-4.819-2.828-2.829-2.194,2.668-6.271,3.445-9.546,2.882-3.456-.6-6.052-2.685-8.327-5.235-2.175-2.44-4.053-5.155-6.47-7.373a27.625,27.625,0,0,0-4.03-2.956c-1.078-.679-2.352-1.419-2.818-2.671A9.279,9.279,0,0,1,89,360.109q0-1.413,0-2.826c.006-1.907.012-3.814,0-5.72l-3.414,1.414a21.1,21.1,0,0,0,11.554,5.708c2.316.342,4.936.516,7.126-.458a5.071,5.071,0,0,0,3.072-5.648l-2.46,2.46c2.249.522,3.757,2.811,5.172,4.473q2.734,3.212,5.313,6.553a49.017,49.017,0,0,1,4.6,6.544c1.091,2.046,1.537,4.382.139,6.38C118.619,381.1,122.085,383.1,123.552,381.008Z"/><path class="a" d="M119.3,193.836c-1.34,14.023-2.416,41.362-3.786,64.115-1.612,26.8-2.273,86.163-2.635,92.143-4.006,1.336-19.563,1.146-27.19-.439l-.508.094c-9.291,1.775-27.17,1.681-31.176.345-.361-5.98-1.022-65.347-2.635-92.143-1.37-22.753-2.862-50.472-4.2-64.5l36.22-18.6Z"/><path class="a" d="M84.725,87.494l.025.032-4.774.01a4.533,4.533,0,0,0,.389-.566.881.881,0,0,0,.127-.621c-.073-.239-.327-.365-.555-.468a38.127,38.127,0,0,1-11-7.664,18.255,18.255,0,0,0-3.476,4.518c1.076,3.507,2.793,8.9,4.9,14.938,4.12,11.806,9.768,24.982,12.807,31.546l.783,1.69A280.246,280.246,0,0,0,95.121,99.838c1.907-6.4,3.377-13.7,4.049-17.283A18.08,18.08,0,0,0,95.8,78.217a38.1,38.1,0,0,1-11,7.664c-.227.1-.481.229-.554.468a.876.876,0,0,0,.127.621A4.328,4.328,0,0,0,84.725,87.494Z"/><path class="a" d="M102.839,87.478c-.421-.185-3.541-1.627-3.727-1.694-2.813-1.016-2.7-2.824-3.056-4.847a46.284,46.284,0,0,1-.627-7.465c5.482-3.306,9.727-10.484,10.528-12.657.133-.4.4-1.165.645-2.068l.5-.078a6.316,6.316,0,0,0,2.94-1.325,9.532,9.532,0,0,0,2.466-3.236,15.01,15.01,0,0,0,1.53-7.953,5.015,5.015,0,0,0-.524-2.014,3.541,3.541,0,0,0-2.546-1.693,3.754,3.754,0,0,0-3,.878S112.826,18.9,82.847,18.9c-29.619,0-25.206,24.428-25.206,24.428a3.753,3.753,0,0,0-3-.878,3.541,3.541,0,0,0-2.546,1.693,5.015,5.015,0,0,0-.524,2.014,15.01,15.01,0,0,0,1.53,7.953,9.532,9.532,0,0,0,2.466,3.236,6.316,6.316,0,0,0,2.94,1.325l.958.147a25.52,25.52,0,0,0,4.863,9.492A22.884,22.884,0,0,0,70.27,73.48a53.92,53.92,0,0,1-.621,7.457c-.354,2.023-.243,3.831-3.056,4.847-.186.067-1.571.556-1.916.7,0,0-2.534,14.212,16.277,14.212S102.839,87.478,102.839,87.478Z"/><path class="h" d="M57.641,43.326a3.7,3.7,0,0,0-3.46-.778c-2.4-10.574-1.241-19.8,3.505-27.845,3.089-5.236,8.623-9.649,13.876-10.257a26.541,26.541,0,0,0,4.121-.957c6.231-2.9,16.5-1.5,21.565,3.607l-.034-.047a10.354,10.354,0,0,0,2.4,1.685c.319.144,1.367.637,1.706.723,5.071,2.078,8.2,6.882,9.794,13.254,1.611,6.452,1.443,14.51.022,19.252,0,0-.075.194-.188.482a3.752,3.752,0,0,0-2.978.881l-3.233-3.589c-2.171-1.953-.8-8.835-2.415-11.711-1.928-3.433-3.5-4-7.613-5.035a86.071,86.071,0,0,0-15.515-1.38,36.866,36.866,0,0,0-11.472,2.678c-5.564,2.1-7.471,11.143-7.513,15.287Z"/><path class="c" d="M109.384,44.741a1.706,1.706,0,0,1,2.345.31,3.936,3.936,0,0,1,.361,1.978,12.259,12.259,0,0,1-.167,2.517c-.545,2.988-2.023,6.6-5.349,7.2a2.016,2.016,0,0,0-1.4,2.46,2.044,2.044,0,0,0,2.46,1.4c5.412-.97,8-7.061,8.407-11.967.214-2.586-.051-5.455-2.28-7.118a5.78,5.78,0,0,0-7.208.4,2.016,2.016,0,0,0,0,2.829,2.044,2.044,0,0,0,2.828,0Z"/><path class="c" d="M105.067,55.877a13.867,13.867,0,0,1-.812,3.729c-.064.2-.478,1.221-.171.561-.123.265-.241.531-.372.792a32.053,32.053,0,0,1-2.773,4.456c-2.338,3.207-5.676,6.709-9.627,7.636-2.506.588-1.445,4.446,1.063,3.857,5.03-1.18,8.924-5.283,11.883-9.289,2.547-3.45,4.631-7.361,4.809-11.742.1-2.574-3.9-2.569-4,0Z"/><path class="c" d="M59.055,41.912a5.783,5.783,0,0,0-7.208-.4c-2.232,1.655-2.494,4.538-2.28,7.118.408,4.906,3,11,8.407,11.967a2.057,2.057,0,0,0,2.46-1.4,2.017,2.017,0,0,0-1.4-2.46c-3.326-.6-4.8-4.208-5.349-7.195a12.067,12.067,0,0,1-.169-2.371,4.671,4.671,0,0,1,.3-2.024,1.684,1.684,0,0,1,2.406-.41,2.055,2.055,0,0,0,2.828,0,2.016,2.016,0,0,0,0-2.829Z"/><path class="c" d="M56.728,55.749a29.49,29.49,0,0,0,6.3,14.108,21.142,21.142,0,0,0,13.813,7.817,2.014,2.014,0,0,0,2-2,2.045,2.045,0,0,0-2-2c-4.56-.493-8.4-3.467-11.214-6.921a25.936,25.936,0,0,1-5.04-12.068,2.016,2.016,0,0,0-2.46-1.4,2.045,2.045,0,0,0-1.4,2.46Z"/><path class="c" d="M95.8,8.464a14.112,14.112,0,0,0,1.516,1.219,8.637,8.637,0,0,0,1.141.707c.294.147.6.272.9.4a10.911,10.911,0,0,0,1.395.548,2.076,2.076,0,0,0,1.541-.2,2,2,0,0,0,.718-2.737,2.076,2.076,0,0,0-1.195-.919,7.006,7.006,0,0,1-.918-.347l.478.2c-.357-.151-.721-.3-1.062-.483a10.361,10.361,0,0,1-1.358-.9l.4.312c-.254-.2-.5-.4-.734-.627a2.084,2.084,0,0,0-1.415-.586A2,2,0,0,0,95.8,8.464Z"/><path class="c" d="M62.076,39.664c.008-.563.048-1.124.11-1.684.017-.147.035-.295.054-.442-.067.524,0,.037.016-.082q.082-.527.186-1.05A26.984,26.984,0,0,1,63.7,31.981q.1-.261.206-.521c-.148.361.06-.135.093-.208q.247-.549.529-1.082a15.451,15.451,0,0,1,1.194-1.91c-.243.331.064-.076.121-.144.129-.153.262-.3.4-.448.251-.266.52-.507.794-.748.391-.343-.318.187.119-.087.138-.086.27-.181.41-.265s.281-.162.425-.235c.1-.048.194-.094.292-.138-.229.1-.238.1-.027.022a2.053,2.053,0,0,0,1.4-2.46,2.017,2.017,0,0,0-2.46-1.4c-3.622,1.334-5.746,4.6-7.144,8.036a26.039,26.039,0,0,0-1.97,9.268c-.038,2.575,3.962,2.576,4,0Z"/><path class="c" d="M75.19,22.338a19.433,19.433,0,0,1,.747-2.306l-.2.477a6.135,6.135,0,0,1,.774-1.374l-.313.4a5.029,5.029,0,0,1,.862-.832l-.405.313a9.766,9.766,0,0,1,2.076-1.277l-.478.2.055-.022a2.191,2.191,0,0,0,1.2-.919,2,2,0,0,0-.718-2.737,1.94,1.94,0,0,0-1.541-.2,10.6,10.6,0,0,0-2.119,1.144,8.094,8.094,0,0,0-1.714,1.448,12.107,12.107,0,0,0-2.076,4.616,2,2,0,0,0,3.857,1.063Z"/><path class="c" d="M80.921,22.621c.373-.5-.236.275.141-.183.093-.112.185-.224.279-.334q.267-.311.553-.6c.2-.2.4-.393.61-.577.092-.08.192-.154.282-.237.178-.165-.308.215,0,0a23.043,23.043,0,0,1,2.732-1.561c.278-.142-.405.144-.166.071.087-.027.173-.066.26-.1.2-.072.4-.137.6-.2.493-.152.992-.283,1.5-.4q.414-.1.832-.173c.125-.024.25-.045.375-.066.276-.045.211-.066-.02,0a4.7,4.7,0,0,1,1.4-.07,2.012,2.012,0,0,0,2-2,2.044,2.044,0,0,0-2-2,13.359,13.359,0,0,0-3.572.437,16.021,16.021,0,0,0-3.22,1.044,15.847,15.847,0,0,0-2.964,1.735A15.731,15.731,0,0,0,77.467,20.6a2.006,2.006,0,0,0,.718,2.736,2.059,2.059,0,0,0,2.736-.717Z"/><path class="c" d="M94.177,24.919a17.548,17.548,0,0,1,3.076.907c-.287-.123.261.134.276.142q.316.16.62.346c.2.123.4.251.586.393-.249-.189.229.209.226.207a9.109,9.109,0,0,1,1.668,2.184c.258.4-.026-.236.064.138.038.157.1.312.143.468a11.069,11.069,0,0,1,.245,1.236c-.06-.4.017.164.026.245.029.271.053.542.075.813.035.419.062.838.089,1.258.063.969.116,1.939.227,2.9.2,1.75.488,3.708,1.825,4.992,1.857,1.783,4.69-1.042,2.828-2.829-.373-.358.032.2-.095-.093-.055-.126-.136-.25-.2-.374.242.471-.03-.135-.065-.253-.048-.163-.089-.328-.126-.494a13.384,13.384,0,0,1-.3-2.375,35.9,35.9,0,0,0-.634-5.928,9.892,9.892,0,0,0-3.415-5.117,14.612,14.612,0,0,0-6.079-2.627,2.045,2.045,0,0,0-2.46,1.4,2.02,2.02,0,0,0,1.4,2.46Z"/><path class="c" d="M98.662,5.682C95.2,2.282,90.434.631,85.689.129a23.65,23.65,0,0,0-6.969.3C76.583.847,75.014,1.7,72.985,2.149a29.293,29.293,0,0,0-6.212,1.618,22.489,22.489,0,0,0-6.5,4.482A31.036,31.036,0,0,0,52.216,22.58a42.571,42.571,0,0,0-.19,19.454c.509,2.522,4.366,1.455,3.857-1.063-1.941-9.614-.915-20.763,5.815-28.428a20.96,20.96,0,0,1,5.4-4.48,17.184,17.184,0,0,1,5.672-1.8A33.589,33.589,0,0,0,77.63,4.854,17.383,17.383,0,0,1,83.262,4c4.462.011,9.32,1.317,12.571,4.513,1.838,1.807,4.668-1.02,2.829-2.828Z"/><path class="c" d="M100.311,11.184c5.182,2.2,7.726,7.206,8.969,12.448a36.077,36.077,0,0,1-.072,17.8c-.719,2.477,3.139,3.535,3.857,1.064a40.3,40.3,0,0,0-.022-20.315c-1.5-5.994-4.784-11.936-10.713-14.45a2.069,2.069,0,0,0-2.737.717,2.015,2.015,0,0,0,.718,2.737Z"/><path class="c" d="M77.994,64.006a10.832,10.832,0,0,0,5.218,1.223,8.656,8.656,0,0,0,5.413-1.659,1.994,1.994,0,0,0,.585-1.414,2.036,2.036,0,0,0-.585-1.415,2.013,2.013,0,0,0-1.415-.585,2.35,2.35,0,0,0-1.414.585c.7-.544.055-.063-.162.051-.169.089-.59.222.067-.011-.138.049-.273.105-.413.15-.381.122-.771.167-1.156.264.181-.046.411-.049.087-.017-.113.011-.227.02-.34.028-.274.017-.548.024-.822.023-.246,0-.491-.01-.736-.027-.112-.008-.225-.017-.337-.028q-.1-.009-.192-.021-.239-.029.226.03c-.332-.124-.734-.136-1.08-.24-.151-.045-.3-.1-.448-.15-.421-.145.455.214.072.033q-.278-.131-.549-.274a2,2,0,0,0-2.019,3.454Z"/><path class="c" d="M81.858,52.152a22.82,22.82,0,0,1,.534,2.448l-.071-.532a1.47,1.47,0,0,1,.009.338l.072-.532a.865.865,0,0,1-.037.152l.2-.478a.658.658,0,0,1-.053.1l.312-.405a.5.5,0,0,1-.08.079l.405-.313a1.564,1.564,0,0,1-.194.1l.478-.2a1.394,1.394,0,0,1-.327.1l.532-.072a1.314,1.314,0,0,1-.307,0l.532.071c-.116-.016-.229-.044-.345-.06a1.512,1.512,0,0,0-.8-.035,1.492,1.492,0,0,0-.744.237,2,2,0,0,0-.717,2.736l.312.405a2,2,0,0,0,.883.514c.329.045.649.127.984.141a3.267,3.267,0,0,0,1.535-.377,2.38,2.38,0,0,0,1.27-1.548,3.559,3.559,0,0,0-.012-1.584c-.133-.788-.316-1.57-.518-2.343a2,2,0,0,0-2.461-1.4,2.031,2.031,0,0,0-1.2.919,2.1,2.1,0,0,0-.2,1.541Z"/><path class="c" d="M69.636,45.024c-.409,1.328-.143,4.383,2.374,4.643,3.325-.02,3.5-3.714,2.383-5.451C73.476,42.794,70.781,42.2,69.636,45.024Z"/><path class="c" d="M96.267,45.024c.409,1.328.142,4.383-2.374,4.643-3.325-.02-3.5-3.714-2.383-5.451C92.426,42.794,95.122,42.2,96.267,45.024Z"/><path class="c" d="M90.421,60.178a5.274,5.274,0,0,1,.9.9l-.313-.4a5.315,5.315,0,0,1,.687,1.177l-.2-.478a5.364,5.364,0,0,1,.253.779,2.05,2.05,0,0,0,.919,1.2,1.484,1.484,0,0,0,.744.238,1.526,1.526,0,0,0,.8-.036,2.024,2.024,0,0,0,1.2-.919,2.133,2.133,0,0,0,.2-1.541,8,8,0,0,0-.463-1.278,5.292,5.292,0,0,0-.415-.784,6.754,6.754,0,0,0-1.474-1.678,1.489,1.489,0,0,0-.643-.413,1.506,1.506,0,0,0-.771-.172,2.033,2.033,0,0,0-1.414.585,2.012,2.012,0,0,0-.586,1.415l.071.531a2,2,0,0,0,.515.883Z"/><path class="c" d="M14.647,19.093A18.8,18.8,0,0,0,.569,33.6a22.007,22.007,0,0,0,.666,12.343A19.7,19.7,0,0,0,8.028,54.71a21.883,21.883,0,0,0,21.56,2.344,20.327,20.327,0,0,0,11.825-17.78,20.081,20.081,0,0,0-3.834-12.8,20.588,20.588,0,0,0-9.93-6.967c-2.442-.832-3.491,3.031-1.063,3.857A15.546,15.546,0,0,1,37.337,36.655a16.576,16.576,0,0,1-7.57,15.8,17.621,17.621,0,0,1-17.483.234A16.191,16.191,0,0,1,5.942,46.6a16.379,16.379,0,0,1-1.851-9.621,16.169,16.169,0,0,1,3.6-9.3A15.37,15.37,0,0,1,15.71,22.95c2.495-.629,1.438-4.488-1.063-3.857Z"/><path class="c" d="M25.851,30.488a9.153,9.153,0,0,1,4.614,8.6,9.487,9.487,0,0,1-4.73,7.769c-5.7,3.262-14.385-.233-14.757-7.235-.209-3.913,1.213-7.591,4.807-9.438,2.291-1.176.27-4.629-2.018-3.453C9.473,28.937,7.247,33.28,6.984,37.99a13.057,13.057,0,0,0,6.2,11.947A14.464,14.464,0,0,0,26.166,51.07a13.479,13.479,0,0,0,1.7-24.035c-2.237-1.283-4.254,2.172-2.019,3.453Z"/><path class="c" d="M13.255,7.141c0,7.442-.045,14.883-.046,22.325a2.028,2.028,0,0,0,2,2c3.868,0,7.736-.106,11.605-.109a2.03,2.03,0,0,0,2-2c0-7.353-.2-14.706-.185-22.058.006-2.574-3.994-2.578-4,0-.018,7.352.181,14.705.185,22.058l2-2c-3.869,0-7.737.105-11.6.109l2,2c0-7.442.045-14.883.046-22.325,0-2.574-4-2.578-4,0Z"/><path class="a" d="M9.723,77.179a16.748,16.748,0,0,1,1-3.4c1.023-2.427.863-3.828.23-6.325-.57-2.247-2.573-8.829-1.248-11.094l1.66-3.544a12.436,12.436,0,0,1-1.346-3.376c-.329-1.352-.931-3.893-.291-5.191a6.1,6.1,0,0,1,2.5-2.716,19.669,19.669,0,0,1,8.369-2.1c1.366-.519,2.586-1.166,4.089-.907.677.116,2.628,1.368,3.264,1.347a12.354,12.354,0,0,1,1.686,1.548c2.307-.337,4.88,1.744,6.726,3.658a10.532,10.532,0,0,1,2.472,3.361c.593,1.852.139,2.874-.067,4.518a15.693,15.693,0,0,1-2.114,6.217,11.5,11.5,0,0,1-3.908,4.752,17.764,17.764,0,0,0-2.956,2.293A6.964,6.964,0,0,0,28.511,69.6c-.553,2.848-.476,5.722-1.072,8.569"/><path class="c" d="M7.977,55.352a8.134,8.134,0,0,0-.632,4.731A39.239,39.239,0,0,0,8.4,65.624a24.248,24.248,0,0,1,1.045,4.584,6.681,6.681,0,0,1-.581,2.863,20.171,20.171,0,0,0-1.072,3.577,2.053,2.053,0,0,0,1.4,2.46,2.02,2.02,0,0,0,2.461-1.4c.449-2.309,1.671-4.408,1.8-6.776a17.345,17.345,0,0,0-.906-5.286c-.421-1.584-.823-3.177-1.09-4.8a13.66,13.66,0,0,1-.194-2.235c0-.221.043-.828.039-.806-.038.219.065-.254.078-.3.121-.411-.148.234.055-.145C12.646,55.1,9.2,53.08,7.977,55.352Z"/><path class="c" d="M27.954,37.873c.792.067-.239-.156.095-.02-.275-.112-.539-.255-.8-.387a12.143,12.143,0,0,0-1.769-.8,6.8,6.8,0,0,0-4.828.609,4.176,4.176,0,0,1-1.411.2c-.75.075-1.5.187-2.239.336a23.349,23.349,0,0,0-4.545,1.427C9.5,40.5,7.213,43.064,7.472,46.432a16.024,16.024,0,0,0,2.359,7.684,4.527,4.527,0,0,0,3.879,2.12,3.9,3.9,0,0,0,3.856-2.655c.807-2.451-3.055-3.5-3.857-1.064.059-.178.2-.218.3-.35-.026.035-.277.12-.08.054s-.086.012-.105.014c.346-.04-.08,0-.206,0-.032,0-.332-.029-.1,0,.265.036-.249-.073-.24-.072.031,0,.295.166.129.051s.067.058.075.068a2.947,2.947,0,0,0-.27-.284,6.083,6.083,0,0,1-.7-1.3,13.7,13.7,0,0,1-1.046-5.4c-.006.232.1-.322-.011-.04a4.147,4.147,0,0,1,.346-.621,4,4,0,0,1,.919-1.056,9.724,9.724,0,0,1,3.044-1.325,20.259,20.259,0,0,1,3.305-.766c.1-.014.777-.068,1.094-.069A4.784,4.784,0,0,0,22,41.02a6.889,6.889,0,0,1,1.763-.546,2.427,2.427,0,0,1,.459,0c.5.049-.137-.023.127.028.184.035-.059-.036-.09-.051.122.058.246.112.368.17a9.848,9.848,0,0,0,3.332,1.25,2.016,2.016,0,0,0,2-2,2.042,2.042,0,0,0-2-2Z"/><path class="c" d="M12.9,47.405a37.364,37.364,0,0,0,.936,4.26,9.318,9.318,0,0,0,1.922,4.1,4.614,4.614,0,0,0,5.582.5,4.7,4.7,0,0,0,1.937-2.42,5.846,5.846,0,0,0,.194-2.493,43.147,43.147,0,0,0-1.138-5.883,2.018,2.018,0,0,0-2.46-1.4,2.044,2.044,0,0,0-1.4,2.461c.325,1.4.688,2.784.917,4.2.015.092.027.185.043.277.04.228-.024-.192-.024-.191.01.178.043.356.059.534a9.224,9.224,0,0,1,.042,1c0,.077-.008.155-.008.231,0,.225-.118.054.032-.209a1.367,1.367,0,0,0-.1.36c-.039.233.212-.377.074-.185a2.117,2.117,0,0,0-.107.185,1.142,1.142,0,0,0-.089.133c.12-.325.23-.274.031-.079a1.411,1.411,0,0,0-.121.11c-.148.182.357-.214.142-.115a1.494,1.494,0,0,0-.342.192c.189-.212.373-.126.157-.076-.072.017-.156.039-.227.062-.232.076-.053-.114.174-.012-.069-.031-.238.015-.313.015s-.173-.011-.259-.011c-.214,0,.188.018.2.027a1.739,1.739,0,0,0-.273-.062c-.238-.01.2.074.245.117a.985.985,0,0,0-.146-.079c-.2-.134.153.04.2.163-.027-.073-.2-.193-.255-.25-.2-.2.129.165.138.184a1.34,1.34,0,0,0-.11-.161c-.064-.1-.123-.2-.179-.306-.067-.123-.119-.254-.186-.377-.1-.182.1.251.095.231-.031-.1-.082-.2-.119-.3-.192-.516-.342-1.046-.484-1.577a37.172,37.172,0,0,1-.922-4.213,2,2,0,0,0-.92-1.2A2,2,0,0,0,12.9,47.405Z"/><path class="c" d="M25.041,43.871a36.424,36.424,0,0,0-.2,6.01c-.007,1.017-.034,2.032-.131,3.045-.038.4.08-.457.021-.144-.015.079-.025.158-.04.236-.033.168-.088.33-.125.5-.068.309.2-.434.109-.249a.8.8,0,0,1-.07.12c-.028.034.395-.526.211-.286a.507.507,0,0,1-.088.079c-.14.113.27-.189.237-.184-.061.012-.142.091-.2.122s-.088.043-.128.069c-.213.141.133-.064.2-.075-.136.024-.277.1-.413.139a2.3,2.3,0,0,0-.443.1s.449-.03.246-.035c-.095,0-.193.015-.289.017-.058,0-.116,0-.173,0-.23.005-.236-.13.132.034a1.718,1.718,0,0,0-.384-.09c-.237-.029.366.211.167.078a1.087,1.087,0,0,0-.194-.108c-.167-.063.172.114.179.148q-.065-.056-.123-.117-.155-.164.125.181a2.2,2.2,0,0,0-1.2-.919,2.043,2.043,0,0,0-1.541.2,2.021,2.021,0,0,0-.718,2.736,4.267,4.267,0,0,0,2.4,1.7,5.812,5.812,0,0,0,2.6,0,4.092,4.092,0,0,0,3.2-2.567,11.424,11.424,0,0,0,.4-3.155c.046-1.241.032-2.482.03-3.723,0-.625,0-1.251.016-1.876.008-.262.018-.524.036-.785.007-.1.017-.2.026-.295.035-.436-.089.55-.021.161a2.048,2.048,0,0,0-1.4-2.46,2.024,2.024,0,0,0-2.46,1.4Z"/><path class="c" d="M21.157,65.228c2.177-1.167,2.4-3.348,3.442-5.326a9.1,9.1,0,0,1,3.348-2.969,9.557,9.557,0,0,0,3.182-2.153,6.062,6.062,0,0,0,1.523-3.8,5.736,5.736,0,0,0-1.137-3.346,7.743,7.743,0,0,0-1.421-1.375c-.336-.283-.23-.047-.414-.421a3.023,3.023,0,0,1-.118-2c.033-.11.265-.484.1-.362a2.007,2.007,0,0,1,1.111.009c2.11.528,4.257,2.778,5.515,4.486a3.843,3.843,0,0,1,.791,2.967,25.446,25.446,0,0,1-.746,4.019,15.615,15.615,0,0,1-3.344,6.154c-2.048,2.109-4.843,2.995-5.917,5.969-1.21,3.351-.885,7.1-1.566,10.56-.5,2.514,3.36,3.591,3.857,1.063.655-3.325.365-6.946,1.44-10.177.438-1.319,1.584-1.9,2.666-2.667a14.276,14.276,0,0,0,2.972-2.63,21.313,21.313,0,0,0,3.8-7.382A34.973,34.973,0,0,0,40.94,52a8.03,8.03,0,0,0-.453-4.752,16.94,16.94,0,0,0-5.572-6.078c-2.18-1.562-5.568-2.743-7.854-.7-1.675,1.5-1.92,4.272-1.28,6.311a4.83,4.83,0,0,0,1.759,2.648c.857.559,1.432,1.265.866,2.3-.674,1.24-2.3,1.575-3.424,2.332A14.072,14.072,0,0,0,22.2,56.469a7.475,7.475,0,0,0-1.247,1.85c-.459,1.035-.73,2.875-1.812,3.455-2.27,1.217-.252,4.671,2.019,3.454Z"/><path class="c" d="M45.366,197.991c.962,12.55,1.791,25.11,2.6,37.67.721,11.166,1.486,22.333,1.95,33.513.438,10.527.726,21.059.982,31.592q.37,15.229.651,30.461c.12,6.058.17,12.124.415,18.179.011.274.023.547.039.821a2.074,2.074,0,0,0,1.469,1.928,23.424,23.424,0,0,0,5.222.815c2.581.211,5.176.265,7.765.251a95.02,95.02,0,0,0,16.95-1.411c2.527-.474,1.457-4.33-1.064-3.857a89.057,89.057,0,0,1-15.886,1.268c-2.452.014-4.908-.036-7.353-.219a17.924,17.924,0,0,1-4.571-.7l1.468,1.929c-.311-5.262-.286-10.558-.391-15.826Q55.321,319.631,55,304.86c-.249-10.7-.528-21.4-.936-32.094-.406-10.655-1.084-21.293-1.761-31.934-.829-13.018-1.685-26.035-2.649-39.044q-.141-1.9-.286-3.8c-.2-2.55-4.2-2.571-4,0Z"/><path class="c" d="M117.3,196.04c-1.211,12.752-1.77,25.572-2.461,38.36-.643,11.92-1.43,23.836-1.914,35.764-.828,20.432-1.193,40.882-1.6,61.325-.123,6.237-.081,12.509-.449,18.738l1.468-1.929a17.986,17.986,0,0,1-4.957.663c-2.629.152-5.266.177-7.9.142a84.048,84.048,0,0,1-15.572-1.244c-2.513-.512-3.588,3.343-1.064,3.857A89.746,89.746,0,0,0,99.492,353.1c2.721.036,5.446.01,8.163-.158a23.949,23.949,0,0,0,5.757-.79,2.073,2.073,0,0,0,1.468-1.928c.309-5.221.285-10.476.389-15.7q.29-14.588.608-29.175c.244-10.568.519-21.136.914-31.7.421-11.276,1.144-22.535,1.755-33.8.792-14.6,1.372-29.247,2.755-43.809a2.014,2.014,0,0,0-2-2,2.044,2.044,0,0,0-2,2Z"/><path class="c" d="M81.564,233.2c-.438,4.828-.381,9.713-.377,14.555.006,5.712.09,11.422.143,17.134.06,6.529.017,13.06,0,19.589q-.027,13.4-.05,26.795-.02,12.8-.011,25.591c.006,4.233-.246,8.579.1,12.8a2.172,2.172,0,0,0,.6,1.531c1.913,1.713,4.751-1.106,2.828-2.828a2.28,2.28,0,0,1,.57,1.309.836.836,0,0,0-.011-.179c0-.225-.015-.453-.02-.678-.017-.776-.023-1.553-.03-2.33-.024-2.7-.03-5.393-.036-8.089q-.024-12.309,0-24.619c.021-15.217.141-30.437.074-45.654-.028-6.146-.139-12.291-.162-18.437-.021-5.484-.125-11.026.372-16.494a2.016,2.016,0,0,0-2-2,2.043,2.043,0,0,0-2,2Z"/><path class="i" d="M47.719,193.456H118.9"/><path class="c" d="M127.292,229.194c2.973,1.943,6.952.5,9.523-1.46,2.274-1.73,4.4-4.741,4.509-7.691a13.05,13.05,0,0,0-.613-3.76c-.5-1.862-.931-3.737-1.4-5.6-1.108-4.385-2.325-8.76-2.439-13.309-.065-2.57-4.065-2.58-4,0,.181,7.21,2.661,14.129,4.27,21.1a3.974,3.974,0,0,1,.074,2.153,9.451,9.451,0,0,1-1.707,2.9c-1.233,1.5-4.283,3.468-6.195,2.218-2.161-1.412-4.167,2.05-2.019,3.454Z"/><path class="c" d="M124.492,200.6c-.685,2.869-1.5,5.7-2.185,8.573-.326,1.37-.615,2.748-.84,4.137a21.068,21.068,0,0,0-.494,4.431,6.3,6.3,0,0,0,3.933,5.091c2.291.758,3.856-1.292,5.2-2.826a2.049,2.049,0,0,0,0-2.828,2.018,2.018,0,0,0-2.829,0c-.489.557-1.009,1.088-1.531,1.615-.146.148-.333.3-.464.462-.3.379.223-.171.5-.209.021,0,.553-.011.5.056-.013.016-.46-.289-.29-.165a3.789,3.789,0,0,1-.977-1.242c.069.169-.079-.265-.085-.312.073.519.062-.337.062-.342q.069-.816.174-1.629c.612-4.67,2.091-9.18,3.181-13.748.6-2.5-3.259-3.571-3.857-1.064Z"/><path class="c" d="M127.933,241.779c.1-3.541.22-7.081.32-10.621.05-1.783.1-3.565.128-5.348a23.382,23.382,0,0,0-.015-2.9l-2,2c1.231,0,2.46.1,3.69.079l-2-2c.127,6.2-.424,12.4-.314,18.6l2-2-3.809.19c-2.562.127-2.577,4.128,0,4l3.809-.19a2.032,2.032,0,0,0,2-2c-.11-6.2.441-12.4.314-18.6a2.027,2.027,0,0,0-2-2c-1.23.025-2.459-.082-3.69-.079a2.012,2.012,0,0,0-2,2,22.6,22.6,0,0,1,.016,2.815c-.029,1.811-.078,3.622-.129,5.433-.1,3.54-.224,7.08-.32,10.621C123.863,244.354,127.863,244.352,127.933,241.779Z"/><path class="c" d="M139.978,308.277c.326-10.232.114-20.5.083-30.734q-.051-17.139-.157-34.279c0-.647.009-1.3-.01-1.943-.066-2.207-1.374-3.373-3.548-3.468-4.29-.188-8.585-.291-12.879-.359-1.88-.029-4.693-.58-6.105.957-.946,1.028-.822,2.5-.859,3.8-.068,2.367-.112,4.735-.152,7.1-.231,13.729-.315,27.461-.376,41.192-.023,5.161-.044,10.323-.031,15.484a11.715,11.715,0,0,0,.107,2.682c.656,2.648,3.5,2.377,5.651,2.43,4.317.106,8.635.124,12.952.146,2.1.011,4.748.185,5.253-2.476.477-2.516-3.377-3.594-3.857-1.064.189-1,.977-.3.356-.45a2.832,2.832,0,0,0-.553,0l-1.2-.007q-1.529-.008-3.059-.017-3.211-.019-6.422-.062-1.473-.023-2.945-.054-.69-.016-1.379-.035a5.073,5.073,0,0,0-1.44-.047c-.493.183.438.98.544.8.029-.05-.013-.15,0-.209a2.742,2.742,0,0,0,0-.453c0-.392,0-.785,0-1.177-.012-4.755.006-9.509.026-14.264.055-13.043.141-26.086.33-39.128q.056-3.781.133-7.562.033-1.491.074-2.982a7.831,7.831,0,0,0,.037-1.165c-.011-.08.038-.191.009-.265-.121-.3-.97.6-.512.8a4.824,4.824,0,0,0,1.38.011q6.22.063,12.438.288a12.747,12.747,0,0,0,2.487.1l.138.006q.745.084-.592-.856c-.016.023.006.134,0,.153a1.777,1.777,0,0,0,0,.431q.006.938.01,1.875.088,15.963.15,31.925c.034,10.4.136,20.805-.038,31.2-.01.562-.021,1.125-.039,1.687C135.9,310.852,139.9,310.849,139.978,308.277Z"/><path class="a" d="M123.024,190.886c.265,2.668.524,5.405.781,8.369-1.631.169,8.818-.905,13.547-1.653-.068-1.348-.241-4.127-.455-7.459"/><path class="h" d="M28.184,78.453C23.535,78.072,10.875,76.986,8.338,77c-1.2,7.039-5.352,30.87-2.865,46.627.679,4.3,3.377,7.878,5.977,8.566,4.716,1.248,12.148.063,16.6-1.527,8.029-2.868,19.654-9.131,16.8-5.844.975,8.751,2.446,30.671,2.654,34.128.231,3.824-.381,7.637-.78,11.447-1.37,13.106-2.365,21.175-3.406,34.424,5.758,1.21,22.362,1.845,27.851-.614,8.511-3.811,14.038-34.739,11.831-28.551,2.109,12.067,6.411,26.92,12.149,29.017,5.849,2.137,23.02,1.639,29.136.393-.392-5.009-.777-9.275-1.17-13.34l.518-.059,13.639-1.546a2.053,2.053,0,0,0,1.8-2.141c-.085-1.764-.093-3.263-.338-8.315-1.138-23.367-2.744-48.116-3.88-70.729-.265-5.26-1.215-9.3-6.421-13.453-1.22-.973-2.931-1.25-4.3-1.995a216.511,216.511,0,0,0-23.7-11.469s-.471-.087-1.123-.21c-.587,3.22-2.134,11.145-4.185,18.031a279.886,279.886,0,0,1-11.168,31.076c-.484-1.057-.78-1.695-.78-1.695-3.039-6.564-8.687-19.74-12.807-31.546-2.175-6.229-3.932-11.767-5.006-15.243l-.394.164A221.852,221.852,0,0,0,43.005,92.7c-5.633,3.532-11.744,11.405-16.087,13.265.013-6.84.636-18.518,1.5-27.493"/><path class="c" d="M68.272,73.6c-.028,1.545-.122,3.091-.272,4.629q-.054.564-.122,1.127c-.016.133-.059.446-.017.148-.026.184-.053.367-.082.551-.091.57-.174,1.142-.272,1.711-.043.248-.09.5-.154.741-.035.13-.08.256-.117.386-.095.337.161-.216.024-.048a1.292,1.292,0,0,0-.2.352c-.042.176.26-.255.019-.018-.1.1-.216.2-.316.31.281-.3,0,0-.123.069a5.038,5.038,0,0,1-.486.26c.188-.089.055-.021-.115.041l-.482.172c-.473.169-.95.332-1.414.524a2.053,2.053,0,0,0-1.4,2.46,2.02,2.02,0,0,0,2.46,1.4,23.923,23.923,0,0,0,3.451-1.4,5.725,5.725,0,0,0,2.627-3.774,51.2,51.2,0,0,0,.985-9.638,2,2,0,0,0-4,0Z"/><path class="c" d="M93.433,74.152a49.971,49.971,0,0,0,.589,6.678,10.907,10.907,0,0,0,1.214,4.459,5.64,5.64,0,0,0,2.194,1.937c.308.152.626.283.945.409.677.268-.364-.181-.154-.074.182.092.375.168.561.252,1.017.462,2.027.939,3.048,1.392a2.063,2.063,0,0,0,2.736-.718,2.015,2.015,0,0,0-.717-2.736c-.929-.412-1.848-.845-2.772-1.266-.468-.214-.936-.428-1.413-.622-.547-.221.133.12-.3-.134-.156-.091-.312-.182-.467-.275-.387-.233.172.23-.1-.09-.072-.069-.14-.141-.205-.216.147.2.179.241.1.122a2.96,2.96,0,0,0-.243-.417c.151.242.087.241,0-.029a6.656,6.656,0,0,1-.215-.881c-.128-.685-.224-1.38-.333-2.069-.083-.524-.088-.557-.156-1.152q-.087-.756-.15-1.517-.126-1.524-.157-3.053a2,2,0,0,0-4,0Z"/><path class="c" d="M26.415,78.476c-.868,9.124-1.469,18.324-1.5,27.493a2.028,2.028,0,0,0,3.01,1.727c3.085-1.382,5.62-4.086,8.03-6.382,2.735-2.6,5.446-5.385,8.738-7.291,2.227-1.289.215-4.747-2.019-3.454-3.366,1.949-6.2,4.733-9,7.4-2.351,2.24-4.749,4.924-7.765,6.274l3.009,1.727c.028-9.169.629-18.369,1.5-27.493a2.015,2.015,0,0,0-2-2,2.043,2.043,0,0,0-2,2Z"/><path class="c" d="M28.184,76.453c-3.572-.293-7.142-.595-10.715-.875-3.028-.236-6.09-.577-9.131-.58a2.02,2.02,0,0,0-1.929,1.469c-1.89,11.123-3.5,22.354-3.7,33.652a89.777,89.777,0,0,0,.325,9.99c.33,3.508.819,7.044,2.873,10.015a10.715,10.715,0,0,0,3.4,3.316,11.2,11.2,0,0,0,4.463,1.159,34.334,34.334,0,0,0,10.635-.841c7.077-1.528,13.22-5.531,20.055-7.718,2.443-.781,1.4-4.645-1.063-3.857-5.7,1.825-10.926,4.958-16.631,6.808A35.49,35.49,0,0,1,17.5,130.68c-2.664.123-5.657.233-7.581-1.875-2.079-2.279-2.559-5.4-2.853-8.352a86.182,86.182,0,0,1-.37-9.4A169.965,169.965,0,0,1,8.072,92.117c.6-4.882,1.37-9.738,2.194-14.587L8.338,79c3.041,0,6.1.344,9.131.58,3.573.28,7.143.582,10.715.875,2.565.21,2.551-3.791,0-4Z"/><path class="c" d="M134.9,190.143c.16,2.486.328,4.972.455,7.459l1.468-1.928q-.81.127-1.624.239l-.407.057c-.2.027-.34.045-.058.008l-.963.126q-1.962.252-3.928.479-2.9.339-5.811.648a2.047,2.047,0,0,0-2,2,2.02,2.02,0,0,0,2,2c4.624-.492,9.26-.979,13.854-1.7a2,2,0,0,0,1.469-1.929c-.127-2.487-.3-4.973-.455-7.459a2,2,0,1,0-4,0Z"/><path class="j" d="M78.79,93.749c.05.213.1.426.155.639a5.657,5.657,0,0,1,.233,1.416c0,.509-3.154,26.041-3.742,30.936,1.447,2.005,5.918,8.3,8.029,10.22,1.842-1.776,5.767-7.565,7.393-10.143-.452-3.976-4.494-30.064-4.482-30.855a8.558,8.558,0,0,1,.551-2.513c.72-2.2.864-3.73,1.584-5.927-2.135,0-9.484.017-11.036.017C78,89.609,78.307,91.679,78.79,93.749Z"/><path class="c" d="M79.25,97.751c2.375,0,4.75-.053,7.126-.054a2,2,0,0,0,0-4c-2.376,0-4.751.053-7.126.054a2,2,0,0,0,0,4Z"/><path class="c" d="M91.326,116.054c-.809-5.44-1.636-10.878-2.433-16.32q-.189-1.291-.372-2.582-.039-.275-.076-.549c.03.223.033.263,0,.014-.021-.173-.058-.352-.063-.528a12.612,12.612,0,0,1,.867-3.442c.411-1.53.71-3.081,1.189-4.593a2.018,2.018,0,0,0-1.929-2.532c-3.678,0-7.357.016-11.036.017a2.024,2.024,0,0,0-1.928,2.532c.388,1.581.675,3.182,1,4.777a15.357,15.357,0,0,1,.621,3.045,33.509,33.509,0,0,1-.406,3.509q-.918,7.691-1.869,15.377a2.011,2.011,0,0,0,2,2,2.049,2.049,0,0,0,2-2q.959-7.83,1.9-15.661c.128-1.074.353-2.188.376-3.271a17.629,17.629,0,0,0-.718-3.824c-.349-1.673-.646-3.355-1.053-5.015l-1.929,2.531c3.679,0,7.358-.016,11.036-.017L86.583,86.99c-.5,1.583-.807,3.21-1.249,4.808a14.512,14.512,0,0,0-.955,4.236,38.526,38.526,0,0,0,.575,4.2c.82,5.631,1.678,11.256,2.515,16.884a2.012,2.012,0,0,0,2.46,1.4,2.05,2.05,0,0,0,1.4-2.46Z"/><path class="a" d="M91.175,95.4c3.531-3.509,5.844-7.76,8.453-12.006A18.807,18.807,0,0,0,95.8,78.217a38.1,38.1,0,0,1-11,7.664c-.227.1-.481.229-.554.468a.876.876,0,0,0,.127.621,35.357,35.357,0,0,0,2.274,2.937C88.193,91.8,90.136,94.121,91.175,95.4Z"/><path class="a" d="M73.561,95.4c-3.531-3.509-5.844-7.76-8.453-12.006a18.823,18.823,0,0,1,3.832-5.178,38.127,38.127,0,0,0,11,7.664c.228.1.482.229.555.468a.881.881,0,0,1-.127.621,35.228,35.228,0,0,1-2.275,2.937C76.543,91.8,74.6,94.121,73.561,95.4Z"/><path class="c" d="M92.589,96.815a49.455,49.455,0,0,0,6.958-9.43c.5-.82.991-1.642,1.49-2.461a2.719,2.719,0,0,0,.555-1.8,4.593,4.593,0,0,0-.715-1.618A20.389,20.389,0,0,0,97.21,76.8a2.035,2.035,0,0,0-2.829,0,35.321,35.321,0,0,1-5.842,4.737c-1.038.673-2.108,1.3-3.208,1.866-1.147.592-2.629,1.007-3.016,2.412a3.294,3.294,0,0,0,.816,2.861c.732.971,1.5,1.914,2.274,2.855,1.445,1.765,2.915,3.511,4.356,5.281a2.012,2.012,0,0,0,2.828,0,2.046,2.046,0,0,0,0-2.828c-1.2-1.478-2.426-2.937-3.637-4.407-.682-.828-1.364-1.656-2.032-2.5-.246-.31-.294-.362-.5-.646a3.6,3.6,0,0,0-.237-.338c-.193-.2.106-.3.063.248l-.273,1.01q-.617.5-.163.249l.256-.118c.258-.121.516-.243.771-.369q.783-.389,1.546-.815,1.574-.877,3.06-1.9a40.391,40.391,0,0,0,5.769-4.774H94.381A17.713,17.713,0,0,1,97.9,84.4V82.385c-2.474,4.036-4.775,8.219-8.14,11.6C87.943,95.814,90.77,98.643,92.589,96.815Z"/><path class="c" d="M74.975,93.987c-3.365-3.383-5.666-7.566-8.14-11.6V84.4a17.713,17.713,0,0,1,3.52-4.773H67.526A40.457,40.457,0,0,0,73.3,84.405q1.484,1.022,3.059,1.9.7.391,1.418.75.384.192.771.374c.128.061.256.12.385.178q.453.254-.163-.249l-.273-1.01c-.04-.517.263-.46.063-.248a2.788,2.788,0,0,0-.191.274c-.265.369-.254.339-.549.71-.667.839-1.349,1.667-2.031,2.5-1.211,1.47-2.435,2.929-3.637,4.407a2.057,2.057,0,0,0,0,2.828,2.014,2.014,0,0,0,2.828,0c1.411-1.734,2.851-3.445,4.268-5.174.78-.951,1.557-1.905,2.3-2.884a3.362,3.362,0,0,0,.876-2.939c-.376-1.366-1.769-1.775-2.888-2.346-1.1-.562-2.17-1.182-3.209-1.849a35.433,35.433,0,0,1-5.969-4.82,2.037,2.037,0,0,0-2.829,0,20.315,20.315,0,0,0-3.595,4.583,6.677,6.677,0,0,0-.752,1.477,2.543,2.543,0,0,0,.52,2.061c.5.819.992,1.641,1.489,2.461a49.46,49.46,0,0,0,6.959,9.43C73.965,98.643,76.794,95.814,74.975,93.987Z"/><path class="c" d="M99.9,83.945q7.472,3.042,14.655,6.725c2.364,1.206,4.708,2.453,7.043,3.715a29.192,29.192,0,0,0,3.457,1.662A8.749,8.749,0,0,1,128,97.726a14.423,14.423,0,0,1,4.81,10.514c.372,5.719.6,11.451.919,17.173.659,11.814,1.361,23.626,2.015,35.44q.488,8.815.928,17.632c.11,2.228.213,4.456.291,6.686.021.595.04,1.19.062,1.785.008.227.026.455.027.683,0,.18.013.6.036.463-.011.065.309,0,.037.033l-.4.046-1.448.164-4.7.533-6.943.787a2.061,2.061,0,0,0-2,2,2.012,2.012,0,0,0,2,2c4.515-.512,9.037-.986,13.547-1.536a4.147,4.147,0,0,0,3.884-3.834,40.351,40.351,0,0,0-.133-4.141c-.218-5.772-.545-11.541-.855-17.309-.67-12.472-1.411-24.94-2.116-37.41q-.521-9.222-1-18.446c-.239-4.67-.558-9.316-3.473-13.192a15.5,15.5,0,0,0-6.992-5.468,77.889,77.889,0,0,1-8.081-4.164q-8.538-4.445-17.451-8.077a2.013,2.013,0,0,0-2.46,1.4,2.049,2.049,0,0,0,1.4,2.46Z"/><path class="c" d="M123.961,103.624c-1.219,7.547-2.851,15.026-3.605,22.642-.534,5.395-.894,10.809-1.255,16.219q-.486,7.27-.909,14.547c-.419,7.058.735,14.089,1.489,21.1.967,8.987,1.9,17.975,2.606,26.986.2,2.55,4.2,2.571,4,0-.625-7.964-1.415-15.911-2.269-23.853-.457-4.257-.883-8.519-1.372-12.772a59.208,59.208,0,0,1-.521-10.33c.59-9.931,1.151-19.87,2.034-29.78.71-7.979,2.384-15.794,3.659-23.692a2.063,2.063,0,0,0-1.4-2.461,2.016,2.016,0,0,0-2.46,1.4Z"/><path class="c" d="M42.026,118.858c1.5,9.8,2.069,19.741,2.77,29.622.243,3.419.493,6.838.7,10.26a64.87,64.87,0,0,1-.691,10.941c-.417,3.79-.807,7.584-1.215,11.376-.861,8.011-1.66,16.026-2.291,24.058-.2,2.567,3.8,2.554,4,0,.567-7.218,1.262-14.423,2.03-21.623.389-3.647.787-7.294,1.173-10.942a105.7,105.7,0,0,0,1.055-12.169c-.036-3.453-.406-6.925-.648-10.367q-.539-7.7-1.157-15.393c-.461-5.633-1.006-11.237-1.864-16.826a2.014,2.014,0,0,0-2.46-1.4,2.049,2.049,0,0,0-1.4,2.46Z"/><path class="c" d="M64.434,80.665A241.6,241.6,0,0,0,41.662,91.158c-2.263,1.227-.246,4.682,2.019,3.454A231.494,231.494,0,0,1,65.5,84.522a2.066,2.066,0,0,0,1.4-2.46,2.014,2.014,0,0,0-2.461-1.4Z"/><path class="c" d="M123.765,203.133a63.333,63.333,0,0,1-9.831.917,98.86,98.86,0,0,1-12.328-.214,30.118,30.118,0,0,1-4.6-.7,4.89,4.89,0,0,1-2.856-1.559c-2.642-2.716-4.055-6.751-5.243-10.265a110.922,110.922,0,0,1-4.032-16.461,2.017,2.017,0,0,0-2.461-1.4,2.046,2.046,0,0,0-1.4,2.46,114.156,114.156,0,0,0,3.734,15.556c1.381,4.265,3.045,8.695,5.918,12.2,2.262,2.76,5.295,3.474,8.683,3.917a83.482,83.482,0,0,0,12.608.518,74.155,74.155,0,0,0,12.867-1.118c2.522-.5,1.454-4.36-1.064-3.857Z"/><path class="h" d="M64.719,80.7C63,80.7,54.141,89.775,52.912,92.967c-.081.209,4.866,4.477,6.534,5.973-.891.8-6.261,5.928-6.315,6.291-.026.17,14.641,17.4,22.726,26.239l5.2,5.275c.34-.734.706-1.427,1.056-2.166.565-1.133,1.175-2.44,1.817-3.9l-.882-1.463c-3.039-6.564-8.686-19.74-12.807-31.546C67.668,90.3,65.677,83.891,64.719,80.7"/><path class="c" d="M42.876,206.767a69.157,69.157,0,0,0,11.59,1.079,72.32,72.32,0,0,0,13.081-.633,16.28,16.28,0,0,0,4.8-1.361,11.4,11.4,0,0,0,3.793-3.472A40.6,40.6,0,0,0,81.6,191.185a86.985,86.985,0,0,0,3.447-12.768c.472-2.516-3.382-3.594-3.857-1.063a87.933,87.933,0,0,1-2.63,10.319,48.173,48.173,0,0,1-4.751,11.062,15.567,15.567,0,0,1-1.272,1.8,14.387,14.387,0,0,1-1.366,1.361,4.15,4.15,0,0,1-1.336.7,18.913,18.913,0,0,1-2.2.566,56.984,56.984,0,0,1-11.853.721,67.5,67.5,0,0,1-11.842-.965c-2.514-.5-3.59,3.352-1.064,3.857Z"/><path class="c" d="M62.914,81.228a381.716,381.716,0,0,0,14.627,40.179c1.263,2.957,2.556,5.9,3.905,8.821a2.017,2.017,0,0,0,2.737.717,2.045,2.045,0,0,0,.717-2.736A358.054,358.054,0,0,1,69.685,89.422q-1.511-4.611-2.913-9.258c-.739-2.459-4.6-1.411-3.858,1.064Z"/><path class="h" d="M100.325,80.79c2.372.97,10.27,9.176,11.426,12.177.08.209-4.866,4.477-6.534,5.973.891.8,6.26,5.928,6.315,6.291.025.169-15.062,22.818-17.957,26.483l-13.54,15.864c-.186-2.156-.294-3.615-.3-4.026,0-4.561,1.336-6.521,2.5-8.973,3.5-7.015,8.706-20.721,12.883-34.741A189.951,189.951,0,0,0,99.5,80.7h.439A1.049,1.049,0,0,1,100.325,80.79Z"/><path class="c" d="M58.155,97.526c-1.219,1.1-2.394,2.255-3.568,3.4a16.572,16.572,0,0,0-3.048,3.26c-1.047,1.871,1.618,4.1,2.7,5.389Q62.2,119.1,70.343,128.467c2.93,3.379,5.867,6.755,8.884,10.056,1.74,1.905,4.563-.93,2.828-2.828C73.544,126.381,65.4,116.706,57.3,107.032c-.613-.732-1.226-1.465-1.832-2.2-.187-.228-.368-.46-.558-.687-.232-.276.05.013.141.185-.15-.283.08.191.13.372v1.064c-.172.469-.575.862-.088.344.237-.251.473-.5.715-.75.623-.638,1.259-1.262,1.9-1.884,1.079-1.052,2.158-2.108,3.276-3.119,1.913-1.73-.922-4.551-2.829-2.828Z"/><path class="c" d="M64.843,78.7c-1.666.08-3.1,1.431-4.294,2.46a53.677,53.677,0,0,0-4.666,4.62,36.088,36.088,0,0,0-3.954,5c-.6.959-1.242,2.119-.615,3.226a7.253,7.253,0,0,0,1.467,1.569c1.761,1.627,3.588,3.182,5.374,4.781,1.913,1.713,4.751-1.107,2.829-2.828-1.248-1.116-2.513-2.213-3.763-3.326-.622-.555-1.245-1.11-1.853-1.68-.2-.182-.382-.375-.578-.556a2.273,2.273,0,0,0-.192-.2c-.251-.176.279.465.165.21l.273,1.009c.043,1.038-.335,1-.1.6.073-.123.132-.255.2-.379.152-.269.318-.53.489-.787.182-.273.372-.541.567-.806q.158-.215.32-.426c-.242.315.134-.167.147-.183,1.077-1.351,2.235-2.638,3.435-3.881a47.254,47.254,0,0,1,3.542-3.362c.133-.112.836-.663.444-.37.21-.157.42-.314.639-.458a6.02,6.02,0,0,0,.541-.321c.255-.212-.5.148-.146.06s-.555.036-.272.022a2.043,2.043,0,0,0,2-2,2.02,2.02,0,0,0-2-2Z"/><path class="c" d="M103.8,100.354c1.118,1.011,2.2,2.067,3.276,3.119.638.622,1.274,1.246,1.9,1.884.224.229.448.457.664.694.511.56.179.3-.037-.288V104.7c.151-.69.267-.514.074-.254-.117.16-.214.341-.321.507-.363.568-.734,1.132-1.1,1.7q-1.836,2.8-3.7,5.577c-3.035,4.546-6.086,9.082-9.2,13.576q-1.018,1.471-2.053,2.93-.375.525-.756,1.047c-.11.151-.223.3-.334.45-.3.416-.017.028-.052.072a2.065,2.065,0,0,0,0,2.829,2.013,2.013,0,0,0,2.828,0c3.8-4.834,7.112-10.087,10.538-15.183q2.791-4.153,5.553-8.329c.781-1.184,2.806-3.338,2.381-4.918-.369-1.366-2.111-2.64-3.068-3.58-1.237-1.214-2.476-2.431-3.762-3.593-1.905-1.723-4.743,1.1-2.828,2.828Z"/><path class="c" d="M99.943,82.7c.281.013-.592-.1-.3-.033.358.079-.191-.139-.154-.069.053.1.483.277.581.341.219.144.429.3.639.458-.414-.31.31.257.444.37a47.668,47.668,0,0,1,3.543,3.362c1.2,1.243,2.357,2.53,3.434,3.881.049.061.384.491.147.183.109.141.215.283.32.426.195.265.385.533.567.806.159.239.314.481.457.73.072.126.132.261.208.384.27.438-.117.47-.075-.552l.273-1.009c-.111.247.371-.338.189-.237-.078.044-.149.166-.216.227-.2.181-.383.374-.578.556-.608.57-1.231,1.125-1.853,1.68-1.25,1.113-2.515,2.21-3.762,3.326-1.922,1.72.914,4.542,2.828,2.828,1.605-1.437,3.239-2.841,4.836-4.289a19.518,19.518,0,0,0,1.6-1.526,2.586,2.586,0,0,0,.1-3.238,27.519,27.519,0,0,0-3.632-4.817,57.072,57.072,0,0,0-4.759-4.854c-1.308-1.176-2.958-2.844-4.831-2.934a2,2,0,0,0,0,4Z"/><path class="c" d="M84.948,175.385c-.859-6.9-1.589-13.825-2.261-20.75-.255-2.628-.5-5.256-.723-7.886a28.567,28.567,0,0,1-.152-4.944c.238-2.68,1.555-4.942,2.69-7.319,1.369-2.864,2.6-5.8,3.776-8.745,3.084-7.7,5.788-15.568,8.209-23.5a173.424,173.424,0,0,0,4.945-21.009,2.059,2.059,0,0,0-1.4-2.461,2.017,2.017,0,0,0-2.46,1.4A221.781,221.781,0,0,1,85.3,122.446c-1.172,3.019-2.4,6.021-3.754,8.962-1.119,2.421-2.559,4.782-3.241,7.376-1.133,4.314-.265,9.014.145,13.371.73,7.754,1.537,15.5,2.5,23.23a2.063,2.063,0,0,0,2,2,2.012,2.012,0,0,0,2-2Z"/><path class="c" d="M89.063,143.674a4.336,4.336,0,0,1,.034-.509l-.071.532a3.429,3.429,0,0,1,.215-.8l-.2.478a2.862,2.862,0,0,1,.353-.6l-.312.405a2.67,2.67,0,0,1,.417-.413l-.4.313a2.812,2.812,0,0,1,.543-.317l-.477.2a3.507,3.507,0,0,1,.848-.226l-.531.072a3.952,3.952,0,0,1,1,0l-.531-.071a3.426,3.426,0,0,1,.764.206l-.477-.2a2.906,2.906,0,0,1,.555.317l-.405-.312a2.709,2.709,0,0,1,.477.474l-.313-.4a3.022,3.022,0,0,1,.338.579l-.2-.477a3.76,3.76,0,0,1,.253.939l-.071-.532a3.9,3.9,0,0,1,.012.947l.072-.532a3.25,3.25,0,0,1-.206.769l.2-.478a3.029,3.029,0,0,1-.363.632l.312-.405a2.855,2.855,0,0,1-.449.457l.4-.313a2.94,2.94,0,0,1-.595.356l.477-.2a3.472,3.472,0,0,1-.837.228l.532-.072a4.209,4.209,0,0,1-.978.01l.532.071a3.109,3.109,0,0,1-.741-.192l.478.2a2.714,2.714,0,0,1-.53-.306l.405.312a2.673,2.673,0,0,1-.451-.451l.313.405a3.142,3.142,0,0,1-.371-.643l.2.477a3.879,3.879,0,0,1-.249-.917l.071.531a4.283,4.283,0,0,1-.038-.543,2,2,0,0,0-4,0,5.05,5.05,0,0,0,2.47,4.515,5.2,5.2,0,0,0,6.125-1.023,4.808,4.808,0,0,0,1.143-2.357,5.605,5.605,0,0,0-.214-2.823,4.806,4.806,0,0,0-2.017-2.531,5.461,5.461,0,0,0-3.626-.573,4.6,4.6,0,0,0-3.045,1.926,5.023,5.023,0,0,0-.836,2.866,2,2,0,0,0,4,0Z"/></svg>