<?xml version="1.0" encoding="utf-8"?>
<!-- Uploaded to: SVG Repo, www.svgrepo.com, Generator: SVG Repo Mixer Tools -->
<svg width="800px" height="800px" viewBox="-56.64 0 361.346 361.346" xmlns="http://www.w3.org/2000/svg"><defs><style>.a{fill:#ffffff;}.b{fill:#957f6e;}.c{fill:#211715;}.d{fill:#645d5c;}.e{fill:#79c6e0;}</style></defs><path class="a" d="M160.857,179.722c-.52-.22-15.26-7.23-15.6-7.35-5.2-1.88-5-5.22-5.65-8.96a73.652,73.652,0,0,1-.986-8.027c13.661-5.558,24.7-24.013,26.613-29.193.284-.863.862-2.485,1.377-4.412.692-.122,1.082-.182,1.082-.182a13.522,13.522,0,0,0,6.295-2.838,20.4,20.4,0,0,0,5.28-6.929A32.12,32.12,0,0,0,182.544,94.8a10.714,10.714,0,0,0-1.122-4.313,7.585,7.585,0,0,0-5.452-3.625,8.029,8.029,0,0,0-6.425,1.88s4.6-44.545-55.07-44.545c-56.112,0-52.7,44.545-52.7,44.545a8.032,8.032,0,0,0-6.426-1.88A7.581,7.581,0,0,0,49.9,90.489,10.716,10.716,0,0,0,48.776,94.8a32.13,32.13,0,0,0,3.276,17.029,20.412,20.412,0,0,0,5.28,6.929,13.527,13.527,0,0,0,6.3,2.838l2.052.313a54.634,54.634,0,0,0,10.412,20.326A47.3,47.3,0,0,0,91.364,154.7a70.967,70.967,0,0,1-1.056,8.716c-.655,3.738-.45,7.079-5.646,8.955-.344.125-16.78,7.812-17.781,8.154,0,0,.688,25.515,41.044,25.515C154.148,206.039,160.857,179.722,160.857,179.722Z"/><path class="b" d="M71.518,164.221c7.536-1.146,13.934-4.792,16.775-9.052,0,0,.4-.64.987-1.584a48.969,48.969,0,0,1-13.189-11.348,54.634,54.634,0,0,1-10.412-20.326l-2.052-.313a13.527,13.527,0,0,1-6.3-2.838,16.524,16.524,0,0,1-2.187-2.149,26.73,26.73,0,0,0-2.707,8.946,43.768,43.768,0,0,0-.3,5.964q.012.607.045,1.218c.237,4.349,1.252,8.78,1.467,13.112.219,4.72-1.01,9.367-5.512,10.9-.178.06-.214.636-.209.783a2.06,2.06,0,0,0,.361,1.009,6.968,6.968,0,0,0,2.309,2.023C55.617,163.64,63.342,165.465,71.518,164.221Z"/><path class="b" d="M178.017,53.3c-.2-1.184-.41-2.281-.612-3.267C171.821,22.654,144.24.917,115.317,2.506,86.393.917,58.813,22.654,53.229,50.037c-1.513,7.386-1.332,20.022.043,25.918L56.041,86.8a7.973,7.973,0,0,1,5.735,1.943c11.431-7.929,30.821-21.7,40.86-30.338-.825,5.125-3.76,13.842-.063,12.946,15.433-3.574,30.225-10.781,39.169-22.025,1.885,6.639,5,15.608,7.29,19.527,3.238,5.546,12.624,18.025,20.513,19.89a8.029,8.029,0,0,1,6.425-1.88,7.692,7.692,0,0,1,1,.219C180.99,77.774,179.636,62.742,178.017,53.3Z"/><path class="c" d="M55.556,75.551a49.4,49.4,0,0,1-.969-9.647,86.377,86.377,0,0,1,.422-11.775,50.281,50.281,0,0,1,6.937-19.921A61.1,61.1,0,0,1,95.94,7.371a55.027,55.027,0,0,1,10.9-2.274c3.775-.375,7.585-.268,11.372-.273a56.041,56.041,0,0,1,21.756,4.462,60.959,60.959,0,0,1,31.411,30.033,64.624,64.624,0,0,1,5.034,19.406c.919,7.419,1.425,15.283-.176,22.644a28.754,28.754,0,0,1-1.545,4.984,2.415,2.415,0,0,0,1.677,2.953,2.461,2.461,0,0,0,2.952-1.677c3.047-7.3,3-15.861,2.42-23.618-.546-7.275-1.552-14.783-3.993-21.687-5.3-14.992-16.687-27.556-30.7-34.958A63.254,63.254,0,0,0,123.969.315,111.138,111.138,0,0,0,112.056.024a59.809,59.809,0,0,0-12.04,1.32A65.977,65.977,0,0,0,60.789,27.231a58.172,58.172,0,0,0-9.654,21.14,73.618,73.618,0,0,0-.965,23.574,42.331,42.331,0,0,0,.757,4.882c.684,3.011,5.313,1.737,4.629-1.276Z"/><path class="c" d="M139.657,50.771c1.118,3.822,2.359,7.612,3.769,11.336a51.08,51.08,0,0,0,3.98,8.7A64.688,64.688,0,0,0,159.7,85.65c2.673,2.332,5.712,4.534,9.207,5.409,3,.749,4.275-3.878,1.276-4.629-5.359-1.341-9.965-6.6-13.458-10.836A50.275,50.275,0,0,1,148.4,61.742c-1.562-4.014-2.91-8.114-4.119-12.247-.865-2.959-5.5-1.7-4.628,1.276Z"/><path class="c" d="M140.2,47.434a55.514,55.514,0,0,1-19.012,14.848,81,81,0,0,1-11.7,4.692q-3.144,1-6.349,1.777c-.263.064-.542.116-.8.193-.393.116-.451-.081-.128.067-.145-.067-.326-.195.177.049a2.211,2.211,0,0,1,.595.352.613.613,0,0,1,.23.335c.005-.069-.044-.458-.046-.133,0,.365-.01-.229-.011-.3-.023-3.308,1.225-6.827,1.8-10.271a2.422,2.422,0,0,0-4.012-2.335C90.863,65.354,79.921,73.039,69.092,80.7q-4.249,3.006-8.528,5.974a2.464,2.464,0,0,0-.861,3.284,2.422,2.422,0,0,0,3.284.861c11.3-7.843,22.532-15.823,33.4-24.268,2.693-2.094,5.361-4.224,7.951-6.446l-4.012-2.335c-.61,3.673-1.89,7.34-1.969,11.085a4.971,4.971,0,0,0,1.577,4.229c1.751,1.337,3.979.439,5.883-.055A82.014,82.014,0,0,0,132.129,61.4,53.7,53.7,0,0,0,143.6,50.828a2.477,2.477,0,0,0,0-3.394,2.417,2.417,0,0,0-3.394,0Z"/><path class="c" d="M53.064,115.4c-3.1,6.137-3.808,13.16-3.064,19.933.4,3.622,1.15,7.222,1.26,10.872.068,2.245-.121,4.884-1.594,6.71-.775.96-1.73,1.163-2.741,1.754-1.643.961-1.66,3.249-.886,4.764,1.362,2.668,4.739,4.112,7.375,5.181a35.74,35.74,0,0,0,19.605,1.778c6.577-1.182,13.479-4.356,17.35-10.009,1.749-2.556-2.408-4.959-4.145-2.423-3.661,5.347-11.313,7.731-17.462,8.167a31.82,31.82,0,0,1-11.188-1.136,24.212,24.212,0,0,1-4.275-1.665,15.626,15.626,0,0,1-2.137-1.251c-.232-.17-.47-.492-.706-.625-.3-.17-.023-.268-.115.057l-.617,1.059.11-.128-1.059.618c7.672-2.774,7.7-11.145,6.8-17.973-1.04-7.83-2.065-15.921,1.638-23.26,1.388-2.751-2.752-5.184-4.145-2.423Z"/><path class="c" d="M171.242,90.441a5.516,5.516,0,0,1,7.922.949,9.224,9.224,0,0,1,1.067,4.754,28.7,28.7,0,0,1-.342,6.065c-1.211,7.083-4.944,15.719-12.834,17.075a2.419,2.419,0,0,0-1.676,2.952,2.455,2.455,0,0,0,2.952,1.676c8.171-1.4,13.02-9.12,15.256-16.488a33.937,33.937,0,0,0,1.407-11.951c-.257-3.959-1.454-7.683-5.1-9.744a10.539,10.539,0,0,0-12.043,1.318,2.421,2.421,0,0,0,0,3.394,2.449,2.449,0,0,0,3.395,0Z"/><path class="c" d="M165.21,115.62a26.93,26.93,0,0,1-1.275,6.8c-.256.858-.537,1.707-.822,2.555-.077.229-.15.46-.234.687-.067.179-.365.846-.056.156a53.842,53.842,0,0,1-3.584,6.565,63.959,63.959,0,0,1-14.278,16.468,27.2,27.2,0,0,1-10.586,5.358c-3.01.692-1.736,5.321,1.276,4.629,8.045-1.85,14.78-7.653,20.081-13.725a69.283,69.283,0,0,0,11.053-16.461,35.122,35.122,0,0,0,3.225-13.032c.1-3.09-4.7-3.086-4.8,0Z"/><path class="c" d="M63.473,87.047a10.5,10.5,0,0,0-10.613-1.98c-3.932,1.551-5.9,4.858-6.4,8.928a32.936,32.936,0,0,0,5.765,22.774,17.222,17.222,0,0,0,10.76,7.143,2.469,2.469,0,0,0,2.952-1.676,2.418,2.418,0,0,0-1.676-2.952c-7.889-1.355-11.623-9.993-12.834-17.075a28.624,28.624,0,0,1-.35-5.841c.059-1.651.133-3.553,1.075-4.978a5.514,5.514,0,0,1,7.923-.949,2.461,2.461,0,0,0,3.394,0,2.421,2.421,0,0,0,0-3.394Z"/><path class="c" d="M61.636,114.844c2.923,16.865,12.063,33.37,27.689,41.509a37.5,37.5,0,0,0,13.559,4.056,2.415,2.415,0,0,0,2.4-2.4,2.454,2.454,0,0,0-2.4-2.4c-16.111-1.67-28.665-16.118-33.725-30.634a71.785,71.785,0,0,1-2.894-11.407,2.42,2.42,0,0,0-2.953-1.676,2.455,2.455,0,0,0-1.676,2.952Z"/><path class="a" d="M114.425,178.684h-2.254c-.158-.515-.705-.787-1.2-1.009a82.084,82.084,0,0,1-23.685-16.506,40.545,40.545,0,0,0-8.254,11.152l-.553,1.066.336.965c1.778,5.111,19.555,28.148,26.963,37.037,2.348,2.545,6.209,7.524,9.1,11.479l1-1.312c5.191-5.4,29.376-38.324,34.943-46.728-.69-1.353-1.275-2.507-1.275-2.507a40.5,40.5,0,0,0-8.254-11.152,82.093,82.093,0,0,1-23.684,16.506c-.491.222-1.037.494-1.195,1.009Z"/><path class="a" d="M225.926,219.971l-26.595-23.926L196.2,217.327c-2.527,19.908-6.071,43.664-10.084,70.625l.564.727c7.214,9.436,18.167,19.327,29.051,17.731,14.782-2.168,17.414-21.116,18.2-32.949,1.08-16.221,1.9-30.674-1.233-47.4Z"/><path class="c" d="M88.928,155.305a70.011,70.011,0,0,1-.854,7.011c-.25,1.466-.388,2.972-.776,4.411a3.878,3.878,0,0,1-1.81,2.6,19.518,19.518,0,0,1-2.514,1.18c-4.109,1.867-8.189,3.8-12.29,5.685q-1.623.747-3.251,1.485c-.373.169-.748.334-1.122.5-.611.274.495-.175-.068.026a2.463,2.463,0,0,0-1.676,2.953,2.422,2.422,0,0,0,2.952,1.676c1.622-.58,3.188-1.395,4.75-2.112q3.814-1.749,7.62-3.52,2.753-1.276,5.508-2.55c.025-.011.444-.186.441-.2,0,.016-1.237.507-.149.081.315-.124.636-.259.942-.4a9.919,9.919,0,0,0,1.417-.756,8.978,8.978,0,0,0,3.506-4.277,24.2,24.2,0,0,0,1.068-5.057c.489-2.9.906-5.809,1.106-8.748a2.4,2.4,0,1,0-4.8,0Z"/><path class="c" d="M136.217,155.382a76.742,76.742,0,0,0,1.684,12.277,9.541,9.541,0,0,0,2.176,4.252,9.261,9.261,0,0,0,1.972,1.593,10.494,10.494,0,0,0,1.256.648c.249.11.5.214.753.316q.278.119.561.219l-.537-.227a6.268,6.268,0,0,0,1.355.628q1.329.622,2.655,1.251,3.438,1.625,6.873,3.252c1.557.737,3.1,1.517,4.68,2.2a2.48,2.48,0,0,0,3.284-.861,2.418,2.418,0,0,0-.861-3.284c-3.37-1.465-6.66-3.142-9.982-4.713-1.676-.792-3.349-1.591-5.032-2.37-.657-.305-1.349-.539-1.99-.874a5.3,5.3,0,0,1-1.5-1.075,2.019,2.019,0,0,1-.418-.564c-.065-.109-.124-.222-.183-.334-.1-.195.02.112-.11-.236a23.086,23.086,0,0,1-.884-4.43c-.419-2.551-.77-5.091-.951-7.672a2.458,2.458,0,0,0-2.4-2.4,2.419,2.419,0,0,0-2.4,2.4Z"/><path class="d" d="M114.165,358.938c-27.243-.008-54.9-.022-72.115-.049l.01-.062c.429-2.683,4.086-26.121,5.464-34.885l4.423-28.127-1.818-12.937c-.736-5.238-11.776-80.978-13.679-89.166,11.546-7.26,30.32-15.234,42.375-19.376,1.738,5.082,19.543,28.155,26.958,37.053,2.319,2.512,6.112,7.4,8.988,11.328.7-.732,1.114-1.161,1.114-1.161,5.556-5.778,32.864-43.08,35.827-48.117l.237-.307a440.538,440.538,0,0,1,42,20.094c1.829,1,3.658,1.752,5.39,2.749l-.01.07L196.2,217.327c-3.1,24.416-7.728,54.62-12.877,89.427-.7,4.748,2.641,29.918,5.663,52.193C174.781,358.946,144.733,358.946,114.165,358.938Z"/><path class="a" d="M8.9,321.494a20.827,20.827,0,0,1-5.635-11.246,111.557,111.557,0,0,1-.166-26.37c1.422-13.182,8-45.01,17.713-68.445l3-6.58c2.569-5.636,6.47-10.844,8.776-12.533,1.167-.855,2.466-1.729,3.87-2.618,1.61,6.939,9.849,62.849,12.723,82.59,17.767-6.154,43.969-15.769,52.68-18.74,2.269,2.445,17.366,31,17.811,35.443-14.815,8.832-53.864,25.53-74.552,32.639-6.983,2.4-26.847,2.174-34.166-2.4A18,18,0,0,1,8.9,321.494Z"/><path class="c" d="M197.016,195.407c-2.2,14.971-4.212,29.962-6.331,44.945-1.955,13.829-4.012,27.645-6.068,41.46q-1.734,11.659-3.466,23.32a44.553,44.553,0,0,0,.087,10.513c1.294,14.686,3.446,29.309,5.427,43.913a2.414,2.414,0,0,0,2.952,1.677,2.466,2.466,0,0,0,1.676-2.953c-1.786-13.172-3.643-26.351-4.966-39.581a72.75,72.75,0,0,1-.679-11.17c.011-.194.032-.386.046-.58-.09,1.215.065-.4.086-.543q.108-.735.218-1.471.466-3.154.936-6.31.845-5.686,1.691-11.371c2.067-13.882,4.14-27.764,6.125-41.658q1.332-9.326,2.59-18.663.575-4.282,1.124-8.568c.01-.074.162-1.222.048-.405l.008-.056c.011-.077.023-.155.034-.233q.1-.665.2-1.33l2.9-19.66a2.481,2.481,0,0,0-1.676-2.953,2.418,2.418,0,0,0-2.953,1.677Z"/><path class="c" d="M41.831,361.346H188.789c3.089,0,3.094-4.8,0-4.8H41.831c-3.089,0-3.094,4.8,0,4.8Z"/><path class="c" d="M149.416,174.648c8.806,3.655,17.515,7.545,26.08,11.735q6.115,2.992,12.134,6.176c2.1,1.11,4.17,2.287,6.292,3.355a35.381,35.381,0,0,1,5.932,3.246,2.481,2.481,0,0,0,3.394,0,2.416,2.416,0,0,0,0-3.394c-3-2.325-6.532-3.78-9.86-5.572q-4.86-2.617-9.783-5.12-9.985-5.072-20.227-9.616-6.306-2.805-12.686-5.438a2.415,2.415,0,0,0-2.953,1.676,2.461,2.461,0,0,0,1.677,2.952Z"/><path class="c" d="M230.383,226.7a141.158,141.158,0,0,1,2.051,29.327,236.586,236.586,0,0,1-1.529,24.066c-.719,5.611-2.129,11.978-5.257,16.936a15.685,15.685,0,0,1-5.562,5.45,14.293,14.293,0,0,1-9.028,1.533c-4.447-.715-8.548-3.1-12.021-5.884a61.979,61.979,0,0,1-10.287-10.66,2.481,2.481,0,0,0-3.284-.861,2.414,2.414,0,0,0-.861,3.283c5.682,7.394,12.736,14.7,21.74,17.854a19.355,19.355,0,0,0,20.756-4.76c4.577-4.96,6.725-11.744,7.907-18.258,1.427-7.872,1.714-15.982,2.061-23.956a155.89,155.89,0,0,0-2.058-35.346,2.422,2.422,0,0,0-2.952-1.677,2.452,2.452,0,0,0-1.676,2.953Z"/><path class="c" d="M78.608,171.877A264.479,264.479,0,0,0,53.544,182c-4.287,1.974-8.528,4.058-12.664,6.333a69.34,69.34,0,0,0-10.159,6.412,25.452,25.452,0,0,0-4.5,5.146,47.842,47.842,0,0,0-4.487,7.747,2.471,2.471,0,0,0,.861,3.284,2.42,2.42,0,0,0,3.284-.861c1.862-4.027,4.238-8.239,7.515-11.3.149-.139.3-.275.457-.408.311-.264-.314.233.056-.046.34-.257.693-.5,1.042-.741q1.119-.775,2.267-1.5c1.687-1.075,3.412-2.09,5.157-3.067a220.1,220.1,0,0,1,24.51-11.588c4.288-1.75,8.616-3.406,13-4.9,2.907-.993,1.659-5.631-1.276-4.629Z"/><path class="c" d="M45.21,323.3q-2.4,15.233-4.77,30.469-.345,2.208-.694,4.416a2.474,2.474,0,0,0,1.676,2.952,2.419,2.419,0,0,0,2.952-1.676c1.454-9.108,2.854-18.224,4.28-27.336q.591-3.774,1.184-7.549a2.475,2.475,0,0,0-1.676-2.952A2.417,2.417,0,0,0,45.21,323.3Z"/><path class="c" d="M34.127,194.28c.88,3.754,1.391,7.618,2,11.422,1.115,6.908,2.177,13.824,3.23,20.741q3.417,22.449,6.688,44.918c.593,4.051,1.2,8.1,1.765,12.155a2.416,2.416,0,0,0,2.952,1.677,2.464,2.464,0,0,0,1.677-2.953C51.021,272.126,49.5,262.024,48,251.92c-2.246-15.154-4.5-30.309-6.913-45.438-.716-4.485-1.3-9.051-2.335-13.478-.7-3.006-5.333-1.734-4.628,1.276Z"/><path class="c" d="M98.581,230.211a3.12,3.12,0,0,1,3.409-3.33c2.345.073,3.3,1.739,3.3,3.6a3.23,3.23,0,0,1-3.47,3.267C99.293,233.749,98.581,231.63,98.581,230.211Z"/><path class="c" d="M100.981,230.211a4.955,4.955,0,0,1,.04-.585l-.086.638a3.956,3.956,0,0,1,.247-.915l-.242.573a3.27,3.27,0,0,1,.406-.692l-.375.486a3.074,3.074,0,0,1,.48-.474l-.486.375a3.232,3.232,0,0,1,.625-.365l-.573.242a3.955,3.955,0,0,1,.975-.259l-.638.085a4.618,4.618,0,0,1,1.145,0l-.638-.086a4.051,4.051,0,0,1,.879.237l-.573-.242a3.333,3.333,0,0,1,.638.365l-.486-.376a3.146,3.146,0,0,1,.548.546l-.375-.486a3.528,3.528,0,0,1,.388.667l-.242-.574a4.3,4.3,0,0,1,.29,1.079l-.085-.638a4.5,4.5,0,0,1,.014,1.088l.086-.638a3.716,3.716,0,0,1-.237.884l.242-.574a3.492,3.492,0,0,1-.418.726l.376-.486a3.384,3.384,0,0,1-.517.526l.485-.375a3.38,3.38,0,0,1-.684.408l.573-.242a3.976,3.976,0,0,1-.962.262l.638-.086a4.849,4.849,0,0,1-1.123.011l.638.085a3.564,3.564,0,0,1-.851-.22l.573.242a3.1,3.1,0,0,1-.609-.352l.486.375a3.065,3.065,0,0,1-.518-.519l.375.486a3.549,3.549,0,0,1-.426-.739l.242.573a4.422,4.422,0,0,1-.286-1.054l.086.638a5.008,5.008,0,0,1-.045-.624,2.4,2.4,0,1,0-4.8,0,5.9,5.9,0,0,0,2.889,5.275,6.074,6.074,0,0,0,7.162-1.191,5.633,5.633,0,0,0,1.34-2.753,6.551,6.551,0,0,0-.247-3.3,5.629,5.629,0,0,0-2.364-2.969,6.379,6.379,0,0,0-4.245-.669,5.373,5.373,0,0,0-3.559,2.26,5.862,5.862,0,0,0-.976,3.345,2.4,2.4,0,1,0,4.8,0Z"/><path class="c" d="M98.581,338.49a3.12,3.12,0,0,1,3.409-3.329c2.345.073,3.3,1.739,3.3,3.6a3.23,3.23,0,0,1-3.47,3.267C99.293,342.029,98.581,339.91,98.581,338.49Z"/><path class="c" d="M100.981,338.49a4.953,4.953,0,0,1,.04-.584l-.086.638a3.978,3.978,0,0,1,.247-.916l-.242.574a3.27,3.27,0,0,1,.406-.692l-.375.486a3.08,3.08,0,0,1,.48-.475l-.486.376a3.232,3.232,0,0,1,.625-.365l-.573.242a3.957,3.957,0,0,1,.975-.26l-.638.086a4.57,4.57,0,0,1,1.145,0l-.638-.086a4,4,0,0,1,.879.237l-.573-.242a3.328,3.328,0,0,1,.638.364l-.486-.375a3.146,3.146,0,0,1,.548.546l-.375-.486a3.489,3.489,0,0,1,.388.666l-.242-.573a4.285,4.285,0,0,1,.29,1.079l-.085-.638a4.5,4.5,0,0,1,.014,1.088l.086-.638a3.716,3.716,0,0,1-.237.884l.242-.574a3.518,3.518,0,0,1-.418.726l.376-.486a3.384,3.384,0,0,1-.517.526l.485-.376a3.335,3.335,0,0,1-.684.408l.573-.241a4.02,4.02,0,0,1-.962.261l.638-.085a4.794,4.794,0,0,1-1.123.01l.638.086a3.52,3.52,0,0,1-.851-.221l.573.242a3.049,3.049,0,0,1-.609-.351l.486.375a3.065,3.065,0,0,1-.518-.519l.375.486a3.6,3.6,0,0,1-.426-.739l.242.573a4.422,4.422,0,0,1-.286-1.054l.086.638a5.024,5.024,0,0,1-.045-.625,2.4,2.4,0,1,0-4.8,0,5.906,5.906,0,0,0,2.889,5.276,6.076,6.076,0,0,0,7.162-1.191,5.633,5.633,0,0,0,1.34-2.753,6.55,6.55,0,0,0-.247-3.3,5.629,5.629,0,0,0-2.364-2.969,6.373,6.373,0,0,0-4.245-.669,5.373,5.373,0,0,0-3.559,2.26,5.857,5.857,0,0,0-.976,3.344,2.4,2.4,0,1,0,4.8,0Z"/><path class="c" d="M98.581,305.433a3.12,3.12,0,0,1,3.409-3.329c2.345.073,3.3,1.739,3.3,3.6a3.23,3.23,0,0,1-3.47,3.267C99.293,308.972,98.581,306.853,98.581,305.433Z"/><path class="c" d="M100.981,305.433a4.953,4.953,0,0,1,.04-.584l-.086.638a3.956,3.956,0,0,1,.247-.915l-.242.573a3.27,3.27,0,0,1,.406-.692l-.375.486a3.031,3.031,0,0,1,.48-.474l-.486.375a3.232,3.232,0,0,1,.625-.365l-.573.242a3.955,3.955,0,0,1,.975-.259l-.638.085a4.618,4.618,0,0,1,1.145,0l-.638-.086a4.051,4.051,0,0,1,.879.237l-.573-.242a3.28,3.28,0,0,1,.638.365l-.486-.376a3.146,3.146,0,0,1,.548.546l-.375-.486a3.551,3.551,0,0,1,.388.666l-.242-.573a4.3,4.3,0,0,1,.29,1.079l-.085-.638a4.5,4.5,0,0,1,.014,1.088l.086-.638a3.716,3.716,0,0,1-.237.884l.242-.574a3.518,3.518,0,0,1-.418.726l.376-.486a3.384,3.384,0,0,1-.517.526l.485-.375a3.38,3.38,0,0,1-.684.408l.573-.242a4.02,4.02,0,0,1-.962.261l.638-.085a4.794,4.794,0,0,1-1.123.01l.638.086a3.52,3.52,0,0,1-.851-.221l.573.242a3.049,3.049,0,0,1-.609-.351l.486.375a3.065,3.065,0,0,1-.518-.519l.375.486a3.6,3.6,0,0,1-.426-.739l.242.573a4.422,4.422,0,0,1-.286-1.054l.086.638a5.024,5.024,0,0,1-.045-.625,2.4,2.4,0,1,0-4.8,0,5.905,5.905,0,0,0,2.889,5.276,6.074,6.074,0,0,0,7.162-1.191,5.633,5.633,0,0,0,1.34-2.753,6.551,6.551,0,0,0-.247-3.3,5.629,5.629,0,0,0-2.364-2.969,6.379,6.379,0,0,0-4.245-.669,5.373,5.373,0,0,0-3.559,2.26,5.861,5.861,0,0,0-.976,3.344,2.4,2.4,0,0,0,4.8,0Z"/><path class="c" d="M98.581,259.211a3.121,3.121,0,0,1,3.409-3.33c2.345.074,3.3,1.74,3.3,3.6a3.23,3.23,0,0,1-3.47,3.267C99.293,262.75,98.581,260.631,98.581,259.211Z"/><path class="c" d="M100.981,259.211a4.953,4.953,0,0,1,.04-.584l-.086.638a3.978,3.978,0,0,1,.247-.916l-.242.574a3.245,3.245,0,0,1,.406-.692l-.375.486a3.037,3.037,0,0,1,.48-.475l-.486.376a3.232,3.232,0,0,1,.625-.365l-.573.242a3.957,3.957,0,0,1,.975-.26l-.638.086a4.523,4.523,0,0,1,1.145,0l-.638-.086a4,4,0,0,1,.879.237l-.573-.242a3.328,3.328,0,0,1,.638.364l-.486-.375a3.112,3.112,0,0,1,.548.546l-.375-.486a3.489,3.489,0,0,1,.388.666l-.242-.573a4.285,4.285,0,0,1,.29,1.079l-.085-.638a4.5,4.5,0,0,1,.014,1.088l.086-.638a3.7,3.7,0,0,1-.237.883l.242-.573a3.518,3.518,0,0,1-.418.726l.376-.486a3.384,3.384,0,0,1-.517.526l.485-.376a3.38,3.38,0,0,1-.684.408l.573-.242a3.976,3.976,0,0,1-.962.262l.638-.086a4.741,4.741,0,0,1-1.123.011l.638.086a3.52,3.52,0,0,1-.851-.221l.573.242a3.049,3.049,0,0,1-.609-.351l.486.375a3.065,3.065,0,0,1-.518-.519l.375.486a3.6,3.6,0,0,1-.426-.739l.242.573a4.422,4.422,0,0,1-.286-1.054l.086.638a5.024,5.024,0,0,1-.045-.625,2.4,2.4,0,1,0-4.8,0,5.906,5.906,0,0,0,2.889,5.276,6.076,6.076,0,0,0,7.162-1.191,5.633,5.633,0,0,0,1.34-2.753,6.55,6.55,0,0,0-.247-3.3,5.625,5.625,0,0,0-2.364-2.969,6.373,6.373,0,0,0-4.245-.669,5.373,5.373,0,0,0-3.559,2.26,5.857,5.857,0,0,0-.976,3.344,2.4,2.4,0,1,0,4.8,0Z"/><path class="c" d="M149.639,172.228c-1.252,2.115-2.73,4.112-4.144,6.12q-3.765,5.344-7.629,10.619-4.506,6.184-9.086,12.313-2.217,2.967-4.456,5.916-1.044,1.374-2.095,2.744c-.719.936-.962,1.251-1.729,2.236a98.65,98.65,0,0,1-6.312,7.683c-2.135,2.233,1.254,5.632,3.394,3.394,1.956-2.045,3.683-4.329,5.428-6.552,2.9-3.7,5.746-7.442,8.568-11.2q8.727-11.622,17.164-23.46c1.718-2.423,3.527-4.831,5.042-7.389,1.577-2.665-2.57-5.082-4.145-2.423Z"/><path class="c" d="M76.506,174.99a35.228,35.228,0,0,0,4.338,7.527c2.543,3.758,5.23,7.419,7.948,11.051,5.236,7,10.539,14,16.264,20.607,3.143,3.625,6.038,7.486,8.825,11.388.535.749,1.066,1.5,1.579,2.267a4.924,4.924,0,0,0,.525.8c.311.3-.048-.155-.064-.252-.2-1.158-.073-.69-.067-.486.012.374.065.752.087,1.126.2,3.5.243,7.009.311,10.511.265,13.58.372,27.163.481,40.745q.19,23.526.293,47.054.07,14.74.11,29.482,0,.612,0,1.225c0,3.088,4.8,3.094,4.8,0,0-8.66-.051-17.321-.09-25.981q-.1-23.125-.272-46.25c-.107-14.228-.219-28.456-.459-42.682-.071-4.194-.133-8.391-.3-12.583-.037-.909-.067-1.823-.168-2.727-.181-1.6-1.388-2.933-2.3-4.212-1.415-2-2.877-3.964-4.365-5.909-5.284-6.911-11.029-13.455-16.343-20.35-5.294-6.869-10.771-13.792-15.232-21.246-.313-.523-.619-1.052-.9-1.593-.114-.218-.216-.442-.328-.661-.284-.55.191.54-.047-.124a2.461,2.461,0,0,0-2.952-1.676,2.42,2.42,0,0,0-1.676,2.952Z"/><path class="a" d="M104.991,262.778c2.032-2.313,9.675-7.521,11.4-9.733s4.14-5.408,7.083-6.761c6.048-2.78,16.211-2.1,21.087-1.77,2.558.176,8.2,1,10.107,3.519,1.111,1.465.1,4.54-2.421,5.548l-3.867,1.547c6.771-.734,13.748-2.338,19.8-3.56,5.658-1.142,12.4-4.387,16.6-.362,2.644-.737,6.8-.527,8.732.56,2.152.941,3.425,4.958,1.21,7.868-1.366,1.795-15.64,7.8-20.94,9.669-5.763,2.027-6.232,1.73-11.061,3.662-6.106,2.488-10.889,2.253-18.561,2.009-8.854-.281-19.122,6.494-26.792,10.4Z"/><path class="c" d="M106.688,264.475c2.412-2.676,5.623-4.692,8.4-6.961a20.671,20.671,0,0,0,3.3-3.151,25.938,25.938,0,0,1,4.665-5.045c3.392-2.5,8.458-2.644,12.5-2.716,2.125-.038,4.251.027,6.373.144,1.522.084,3.3.178,4.534.375,1.954.31,4.226.71,5.841,1.914-.094-.071.708.791.4.327-.108-.162-.029.388.015.014-.054.462.1-.1-.031.423a2.582,2.582,0,0,1-1.647,1.71,2.418,2.418,0,0,0-.861,3.284,2.461,2.461,0,0,0,3.284.861,6.938,6.938,0,0,0,4.055-6.278c-.062-2.541-2.046-4.275-4.2-5.265-4.028-1.847-8.565-2.058-12.926-2.24-5.1-.213-10.5-.19-15.426,1.306a16.047,16.047,0,0,0-6.908,4.193c-1.529,1.55-2.685,3.438-4.257,4.936-3.288,3.135-7.453,5.394-10.5,8.775-2.063,2.29,1.321,5.695,3.394,3.394Z"/><path class="c" d="M138.036,257.8a71.961,71.961,0,0,0,17.79-1.336c5.433-.944,10.94-1.953,16.268-3.385a27.95,27.95,0,0,1,7.43-1.431,5.683,5.683,0,0,1,2.5.52,5.919,5.919,0,0,1,1.051.734,3.066,3.066,0,0,0,2.97.464,11.456,11.456,0,0,1,6.015.349,1.763,1.763,0,0,1,1.207,1.263,3.4,3.4,0,0,1-.117,2.64c-.18.378-.3.387-.305.5,0,.065-.667.486.139-.089-.073.052-.144.111-.221.159-.567.353-1.127.706-1.715,1.027-1.542.843-3.134,1.6-4.73,2.33q-5.346,2.459-10.845,4.571c-3.541,1.361-7.2,2.3-10.779,3.542a67.312,67.312,0,0,1-6.929,2.364,32.565,32.565,0,0,1-7.259.69c-2.953.008-5.959-.354-8.9-.042a33.651,33.651,0,0,0-8.91,2.307c-5.759,2.291-11.045,5.5-16.546,8.32-2.75,1.408-.324,5.551,2.423,4.144,7.13-3.651,14.15-8.478,22.189-9.849,3.918-.667,8.032.048,12-.129a35.115,35.115,0,0,0,11.342-2.484c2.822-1.1,5.751-1.829,8.618-2.786,2.723-.909,5.393-1.958,8.046-3.05,3.041-1.251,6.068-2.547,9.044-3.949A27.5,27.5,0,0,0,196,261.729c3.086-2.62,2.913-8.055.264-10.886-2.8-2.991-8.485-2.894-12.121-1.951l2.335.617c-3.164-2.889-7.184-2.976-11.184-2.177-3.808.762-7.545,1.874-11.353,2.665-8.486,1.763-17.18,3.678-25.9,3a2.421,2.421,0,0,0-2.4,2.4,2.449,2.449,0,0,0,2.4,2.4Z"/><path class="c" d="M154.719,266.417c4.484-1.384,9.015-2.63,13.539-3.879,4.587-1.268,9.2-2.677,13.885-3.555a2.424,2.424,0,0,0,1.677-2.953,2.452,2.452,0,0,0-2.953-1.676c-4.682.878-9.3,2.288-13.886,3.555-4.523,1.25-9.054,2.5-13.539,3.88-2.942.908-1.687,5.543,1.277,4.628Z"/><path class="a" d="M45.117,325.634c20.688-7.109,59.737-23.807,74.552-32.639-.445-4.444-15.542-33-17.811-35.443-11.115,3.791-50.7,18.4-64.925,22.812Z"/><path class="c" d="M23.027,204.877C15.048,220.464,10.117,237.693,6.1,254.67,2.6,269.455-.488,284.686.065,299.954c.19,5.248.3,10.837,2.3,15.761,1.545,3.822,4.114,7.672,7.747,9.807a28.047,28.047,0,0,0,9.525,3.019,74.506,74.506,0,0,0,11.968,1,61.7,61.7,0,0,0,10.952-.815,51.057,51.057,0,0,0,8.664-2.72c7.546-2.761,15.013-5.739,22.434-8.816,14.793-6.134,29.681-12.45,43.746-20.141,1.172-.642,2.336-1.3,3.484-1.982A2.357,2.357,0,0,0,122.069,293a21.781,21.781,0,0,0-1.952-5.946c-1.2-2.817-2.522-5.581-3.873-8.328-2.919-5.931-5.979-11.806-9.264-17.542a29.987,29.987,0,0,0-3.425-5.324,2.355,2.355,0,0,0-2.335-.618c-17.541,5.99-34.879,12.569-52.4,18.631-4.16,1.44-8.325,2.874-12.529,4.182-2.94.915-1.685,5.55,1.276,4.628,8.41-2.616,16.705-5.617,25-8.563,9.675-3.436,19.33-6.928,29-10.39,3.637-1.3,7.272-2.611,10.927-3.859l-2.335-.617c.409.451-.369-.572.074.093.212.318.427.632.631.955.545.858,1.062,1.735,1.572,2.614,1.453,2.508,2.841,5.053,4.206,7.61,3.069,5.751,6.066,11.566,8.71,17.527.142.32.281.642.421.963.054.123.106.247.159.37-.217-.508.01.024.057.139.237.578.472,1.158.687,1.745.155.422.306.847.433,1.279.094.321.278,1.506.158.451l1.189-2.072c-5.511,3.276-11.3,6.085-17.092,8.83-7.429,3.523-14.948,6.859-22.511,10.085s-15.174,6.328-22.85,9.267c-3.245,1.242-6.5,2.455-9.781,3.608a31.429,31.429,0,0,1-3.909,1.187,29.042,29.042,0,0,1-3.952.571,61.3,61.3,0,0,1-21.788-1.507,16.757,16.757,0,0,1-3.757-1.427,12.154,12.154,0,0,1-3.574-3.23c-2.856-3.637-3.648-8.04-4.025-12.524a111.153,111.153,0,0,1-.308-14.542c.1-2.2.278-4.388.5-6.576q.108-1.062.237-2.123c.033-.272.068-.543.1-.815.018-.14.037-.28.055-.42-.073.55.025-.177.033-.229.945-6.682,2.236-13.314,3.69-19.9,3.647-16.524,8.161-33.211,15.139-48.67q1.188-2.632,2.5-5.2c1.405-2.745-2.735-5.176-4.144-2.423Z"/><path class="a" d="M220.217,218.739c.369-7.018,7.679-27.334,7.679-27.334,1.228-2.992,2.8-6.26,5.822-7.4a6.025,6.025,0,0,1,8.129,5.086,11.2,11.2,0,0,1-1.174,5.231q-1.227,2.937-2.711,5.758a5,5,0,0,1,5.445.759,6.991,6.991,0,0,1,2.155,4.209,9.811,9.811,0,0,1,.092,2.2,23.026,23.026,0,0,1-1.9,6.749l-2.1,5.322a10.213,10.213,0,0,1-2.406,4.077s-.043.038-.122.1a4.269,4.269,0,0,1,2.351,1.322,6.737,6.737,0,0,1,1.4,3.223,6.344,6.344,0,0,1-1.062,4.123,63.277,63.277,0,0,1-5.234,6.655,5.86,5.86,0,0,1-4.588,1.77,4.734,4.734,0,0,1-1.833-.731S219.328,235.628,220.217,218.739Z"/><path class="c" d="M230.21,192.043c.977-2.362,2.457-5.858,5.441-6.016a3.6,3.6,0,0,1,3.34,1.831c.83,1.463.407,3.065-.133,4.557a64.3,64.3,0,0,1-11.8,19.473,2.464,2.464,0,0,0,0,3.395,2.422,2.422,0,0,0,3.394,0,74.789,74.789,0,0,0,12.123-19.348c1.539-3.61,2.658-7.629.155-11.116a8.5,8.5,0,0,0-10.267-2.874c-3.672,1.593-5.439,5.333-6.882,8.822a2.415,2.415,0,0,0,1.677,2.952,2.461,2.461,0,0,0,2.952-1.676Z"/><path class="c" d="M238.479,225.817c.161.039.693.206.676.2-.249-.115.723.4.295.163q.257.283.137.116-.126-.184.121.173c.15.233.288.47.421.713a3.082,3.082,0,0,1,.253,2.378,13.1,13.1,0,0,1-2.328,3.725q-.4.543-.811,1.08c-.028.036-.456.587-.141.184-.148.19-.3.38-.447.568a21.907,21.907,0,0,1-1.472,1.717,4.718,4.718,0,0,1-1.87,1.256c-.1.033-.824.149-.517.129-.112.007-.843-.057-.36.03a3.483,3.483,0,0,1-.654-.194c.349.139-.335-.209-.414-.264a2.424,2.424,0,0,0-3.284.861,2.449,2.449,0,0,0,.861,3.284,7,7,0,0,0,7.418.006,13.916,13.916,0,0,0,3.876-3.671c2.306-2.921,5.4-6.221,5.028-10.228a7.548,7.548,0,0,0-5.512-6.854,2.4,2.4,0,1,0-1.276,4.629Z"/><path class="c" d="M247.876,204.408a8.8,8.8,0,0,0-4.274-6.329,7.388,7.388,0,0,0-6.822-.1c-3.975,2.119-4.941,7.658-6.275,11.563a55.378,55.378,0,0,0-2.214,7.161,10.533,10.533,0,0,0-.279,3.9,7.99,7.99,0,0,0,14.645,2.283,65.923,65.923,0,0,0,3.562-8.64c1.15-2.933,2.171-6.014,1.743-9.206a2.481,2.481,0,0,0-2.4-2.4c-1.163,0-2.574,1.106-2.4,2.4.558,4.158-1.694,8.239-3.181,12-.591,1.494-1.107,3.612-2.436,4.655a2.823,2.823,0,0,1-3.326,0,4.268,4.268,0,0,1-1.33-1.543c-.269-.546-.2-.782-.079-1.571a32.678,32.678,0,0,1,1.589-5.645c.578-1.655,1.138-3.316,1.7-4.977a27.247,27.247,0,0,1,1.391-3.887c.732-1.4,1.722-2.33,3.106-2.041,1.709.357,2.371,2.082,2.653,3.643a2.421,2.421,0,0,0,2.952,1.676A2.452,2.452,0,0,0,247.876,204.408Z"/><path class="a" d="M176.641,233.048c2.459-20.7,6.769-58.158,9.262-79.13a6.719,6.719,0,0,1,7.488-5.881c11.849,1.437,27.866,3.384,38.08,4.624a6.727,6.727,0,0,1,5.871,7.477c-2.828,23.716-6.878,57.714-9.433,78.92a6.72,6.72,0,0,1-7.462,5.874c-10.627-1.248-27.3-3.166-37.911-4.411A6.721,6.721,0,0,1,176.641,233.048Z"/><path class="c" d="M179.041,233.048q3.024-25.47,5.956-50.95,1.44-12.362,2.9-24.72c.186-1.58.137-3.4.917-4.791a4.345,4.345,0,0,1,3.892-2.2c2.269.049,4.595.523,6.848.8l7.407.9,14.851,1.8,6.678.811c1.648.2,3.52.174,4.881,1.25a4.709,4.709,0,0,1,1.534,4.536c-.236,2.094-.5,4.184-.749,6.276q-.829,6.966-1.661,13.933-3.33,27.92-6.677,55.837c-.2,1.651-.22,3.37-1.4,4.661-1.252,1.366-2.872,1.469-4.6,1.266q-6.538-.767-13.079-1.523l-14.422-1.673-6.626-.772c-1.66-.194-3.648-.136-5.027-1.222a4.566,4.566,0,0,1-1.613-4.219,2.419,2.419,0,0,0-2.4-2.4,2.451,2.451,0,0,0-2.4,2.4c-.487,5.219,3.478,9.273,8.454,9.891,4.711.585,9.431,1.1,14.147,1.648q7.584.881,15.167,1.76,3.408.4,6.816.795a10.992,10.992,0,0,0,6.7-.835,9.2,9.2,0,0,0,4.405-5.284,33.6,33.6,0,0,0,.923-6.459q.831-6.915,1.659-13.83,1.85-15.448,3.691-30.9c1.168-9.784,2.4-19.562,3.5-29.353a9.191,9.191,0,0,0-7.911-10.18c-4.722-.634-9.462-1.153-14.191-1.728l-16.028-1.947-7.442-.9a9.393,9.393,0,0,0-6.656,1.431,9.177,9.177,0,0,0-3.835,5.78c-.361,1.956-.491,3.982-.724,5.956q-.76,6.44-1.512,12.878-3.258,27.872-6.507,55.745-.326,2.766-.654,5.532a2.413,2.413,0,0,0,2.4,2.4A2.459,2.459,0,0,0,179.041,233.048Z"/><path class="c" d="M208.674,161.145q3.393.375,6.785.747a2.389,2.389,0,0,0,1.7-.7,2.4,2.4,0,0,0,0-3.394,2.767,2.767,0,0,0-1.7-.7q-3.392-.375-6.785-.747a2.4,2.4,0,0,0-1.7.7,2.4,2.4,0,0,0,0,3.394,2.761,2.761,0,0,0,1.7.7Z"/><path class="c" d="M193.71,234.634q8.592.95,17.183,1.892a2.415,2.415,0,0,0,2.4-2.4,2.456,2.456,0,0,0-2.4-2.4q-8.59-.95-17.183-1.892a2.415,2.415,0,0,0-2.4,2.4,2.456,2.456,0,0,0,2.4,2.4Z"/><path class="e" d="M114.283,179.068l-6.116.3-1.185,3.1c-.853,1.457-1.588,5.178-1.372,8.522l-1.169.388c-6.319,2.1-15.3,7.27-16.942,10.318-1.172,4.69.682,20.439,1.859,23.114,4.5-1.038,22.8-10.4,23.935-14.2a15.965,15.965,0,0,0,.4-2.159l.848,2.034c1.153,2.77,3.331,9.534,5.064,11.743,1.568,2,16.463,4.494,19.419,4.95,2.341.361,6,1.516,6.721-1.325.515-2.026-3.668-21.123-5.678-23.58-2.136-2.61-6.49-5.876-12.3-8.053l-2.33-.874a30.033,30.033,0,0,0-1.756-10.581l-1-3.538Z"/><path class="c" d="M103.8,189.057a56.414,56.414,0,0,0-10.643,4.954c-2.646,1.57-6,3.5-7.6,6.245a8.6,8.6,0,0,0-.771,3.775c-.086,1.373-.073,2.753-.028,4.128.1,3.187.394,6.371.8,9.533.324,2.508.487,5.388,1.482,7.749A2.475,2.475,0,0,0,90,227.117a33.562,33.562,0,0,0,5.937-2.313c2.675-1.22,5.3-2.563,7.864-4a67.706,67.706,0,0,0,7.12-4.461c1.68-1.235,3.663-2.647,4.5-4.636a17.318,17.318,0,0,0,.866-4.817c.185-1.7.32-3.4.439-5.107a2.4,2.4,0,0,0-4.8,0,63.358,63.358,0,0,1-.873,7.908c-.092.459-.192.257.058-.023a1.192,1.192,0,0,0-.2.357c-.027.378.212-.213.005,0-.144.152-.278.315-.425.466-.3.306-.617.594-.942.871-.21.18-.424.354-.64.526-.015.012-.3.23-.105.082s-.319.235-.3.223a86.077,86.077,0,0,1-14.054,8.026,26.374,26.374,0,0,1-5.72,2.259l2.952,1.676a23.2,23.2,0,0,1-1.188-5.6c-.364-2.494-.669-5.579-.831-8.354-.082-1.411-.135-2.824-.127-4.237,0-.572.017-1.144.048-1.715.014-.257.031-.514.053-.77.012-.136.027-.273.04-.409.045-.479-.049.261,0-.02.035-.194.062-.389.109-.581-.133.549.113-.056.01.06-.166.187.289-.32.368-.4.226-.238.465-.464.708-.684a25.22,25.22,0,0,1,3.507-2.552,50.506,50.506,0,0,1,10.708-5.211c2.911-.985,1.662-5.622-1.276-4.629Z"/><path class="c" d="M104.756,204.494a22.245,22.245,0,0,0,3.489-3.136,29.851,29.851,0,0,0,2.665-3.323,2.4,2.4,0,0,0-2.71-3.526,2.668,2.668,0,0,0-1.435,1.1c-.217.32-.448.631-.684.937l.375-.486a24.6,24.6,0,0,1-4.242,4.391l.486-.375q-.182.138-.367.27a2.6,2.6,0,0,0-1.1,1.435,2.457,2.457,0,0,0,.242,1.849,2.426,2.426,0,0,0,1.435,1.1,2.361,2.361,0,0,0,1.849-.242Z"/><path class="c" d="M127.137,196.524a29.654,29.654,0,0,1,9.695,5.8c.486.456.927.945,1.377,1.434.427.464-.154-.381-.026-.026a3.854,3.854,0,0,0,.223.4c.074.141.136.288.206.431.177.36-.16-.441.034.087.174.475.354.948.516,1.428a107.078,107.078,0,0,1,3.649,14.852c.1.556.2,1.112.288,1.67.033.2.065.407.1.61.019.128.037.257.056.385.071.474-.035-.3,0-.009.074.63.059,1.281.14,1.905.059.459.06-.455.045-.291-.038.406-.212.21.026.065.358-.219-.109.016-.3.047.214-.034-.548-.014-.73-.024-.972-.055-2.124-.335-3.22-.511a129.584,129.584,0,0,1-14.465-2.966c-.638-.179-1.274-.369-1.9-.584-.255-.088-.506-.184-.759-.276-.538-.2.257.182-.3-.137a2.749,2.749,0,0,0-.49-.272c-.32-.09.451.343.066.04.454.357-.008-.034-.175-.308-.208-.341-.395-.695-.575-1.051-1.522-3.013-2.473-6.276-3.754-9.391a2.477,2.477,0,0,0-2.952-1.676,2.415,2.415,0,0,0-1.677,2.952c1.347,3.274,2.407,6.66,3.914,9.87a9.727,9.727,0,0,0,2.05,3.2,9.367,9.367,0,0,0,3.174,1.61c5.158,1.825,10.755,2.676,16.14,3.551,2.885.469,6.639,1.721,9.112-.479,1.978-1.759,1.6-4.135,1.273-6.446a107.938,107.938,0,0,0-3.666-16.246c-.753-2.462-1.537-4.737-3.363-6.611a34.267,34.267,0,0,0-12.451-7.664,2.419,2.419,0,0,0-2.952,1.676,2.454,2.454,0,0,0,1.676,2.953Z"/><path class="c" d="M116.286,202.565a45.632,45.632,0,0,1,3.794,3.683c1.363,1.419,2.727,2.858,3.944,4.407a2.394,2.394,0,0,0,1.7.7,2.4,2.4,0,0,0,2.4-2.4,2.808,2.808,0,0,0-.7-1.7c-1.217-1.549-2.581-2.989-3.944-4.408a45.62,45.62,0,0,0-3.794-3.682,2.581,2.581,0,0,0-1.7-.7,2.4,2.4,0,0,0-1.7,4.1Z"/><path class="c" d="M104.91,181.25a12.978,12.978,0,0,0-1.351,4.255,23.955,23.955,0,0,0-.347,5.543,12.846,12.846,0,0,0,1.37,5.392,5.641,5.641,0,0,0,3.658,2.794,29.174,29.174,0,0,0,10.209.573,29.477,29.477,0,0,0,5.333-.856,9.1,9.1,0,0,0,2.254-.845,4.092,4.092,0,0,0,1.562-2.777,20.49,20.49,0,0,0-.064-6.855,29.985,29.985,0,0,0-1.53-6.358,2.467,2.467,0,0,0-2.953-1.676,2.419,2.419,0,0,0-1.676,2.952,25.708,25.708,0,0,1,.941,3.168q.2.844.353,1.7c.06.33.111.662.165.994.042.3.049.332.019.108q.024.186.045.372a21.6,21.6,0,0,1,.157,3.392c-.011.274-.036.547-.06.82.035-.4.024-.139-.026.109-.043.218-.138.442-.167.66-.054.409.247-.443-.05.109l.861-.861c-.3.137.482-.161-.129.051-.184.064-.368.129-.554.187-.5.155-1.013.281-1.527.389-.468.1-.94.173-1.412.252s-.095.016,0,0c-.145.019-.289.037-.434.053-.331.039-.664.072-1,.1a37.052,37.052,0,0,1-6.93,0c-.1-.01-.784-.091-.448-.046s-.308-.05-.4-.066a12.161,12.161,0,0,1-1.333-.3c-.154-.045-.306-.11-.46-.149-.323-.082.5.269.02,0-.157-.089-.613-.3.028.046-.064-.034-.11-.135-.162-.184-.178-.164.2.392.03.015-.095-.2-.228-.415-.337-.612-.194-.351.091.331-.068-.195-.164-.542-.291-1.076-.4-1.631-.084-.418.017.311-.038-.3-.023-.249-.044-.5-.058-.748-.035-.615-.036-1.233-.013-1.849s.078-1.215.142-1.821c.05-.472.011-.072,0,.02.026-.167.051-.334.08-.5.049-.287.1-.574.165-.859a14.174,14.174,0,0,1,.4-1.5c.062-.186.141-.367.2-.554-.227.692-.029.1.079-.095,1.522-2.693-2.623-5.115-4.144-2.422Z"/><path class="a" d="M97.515,193.884c-7.766-7.408-12.859-12.419-18.478-21.563a40.545,40.545,0,0,1,8.254-11.152,82.084,82.084,0,0,0,23.685,16.506c.49.222,1.037.494,1.2,1.009a1.9,1.9,0,0,1-.274,1.337C111.59,180.657,100.749,190.81,97.515,193.884Z"/><path class="a" d="M132.774,195.365a148.479,148.479,0,0,0,16.779-23.044,40.5,40.5,0,0,0-8.254-11.152,82.093,82.093,0,0,1-23.684,16.506c-.491.222-1.037.494-1.195,1.009a1.9,1.9,0,0,0,.273,1.337C117,180.657,128.971,192.143,132.774,195.365Z"/><path class="c" d="M99.212,192.187c-3.4-3.24-6.8-6.486-9.921-9.992a78.832,78.832,0,0,1-8.181-11.086v2.423a39.2,39.2,0,0,1,7.878-10.666H85.594a83.853,83.853,0,0,0,12.131,10.047q3.135,2.148,6.456,4.007,1.565.874,3.169,1.677.831.414,1.673.809l.89.412a2.456,2.456,0,0,1,.293.151q.345.2-.108-.074l-.327-1.211c.047.37.266-.158.283-.169a2.641,2.641,0,0,0-.364.4c-.434.459-.888.9-1.339,1.344-1.366,1.343-2.752,2.666-4.14,3.987-2.789,2.657-5.6,5.292-8.393,7.946-2.244,2.132,1.154,5.522,3.394,3.394,4.132-3.926,8.316-7.8,12.386-11.788,1.817-1.781,4.289-4.123,2.319-6.845a6.246,6.246,0,0,0-2.657-1.774q-1.6-.755-3.165-1.586-3.236-1.717-6.306-3.723a78.139,78.139,0,0,1-12.8-10.393,2.443,2.443,0,0,0-3.394,0,41.692,41.692,0,0,0-7.62,9.788A8.355,8.355,0,0,0,76.68,172c-.157,1.162.625,2.092,1.217,3.017q1.537,2.4,3.233,4.7a126.586,126.586,0,0,0,14.688,15.864C98.053,197.713,101.453,194.324,99.212,192.187Z"/><path class="c" d="M134.471,197.062A147.88,147.88,0,0,0,147.8,179.588q1.575-2.41,3.088-4.861c.738-1.19,1.408-2.188.737-3.618-.357-.761-.8-1.493-1.222-2.218A41.447,41.447,0,0,0,143,159.472a2.441,2.441,0,0,0-3.394,0,77.618,77.618,0,0,1-11.887,9.789q-3.146,2.107-6.474,3.926-1.654.9-3.354,1.722a9.179,9.179,0,0,0-3.026,1.8c-2.42,2.652.343,5.337,2.17,7.154,2.244,2.232,4.532,4.419,6.831,6.593,2.368,2.239,4.732,4.5,7.215,6.61a2.462,2.462,0,0,0,3.394,0,2.42,2.42,0,0,0,0-3.394c-3.266-2.779-6.359-5.778-9.456-8.742q-2.313-2.212-4.59-4.461c-.489-.487-.98-.975-1.455-1.476a5.075,5.075,0,0,0-.4-.437c-.184-.156.2.536.253.132l-.328,1.211c-.106.217-.381.185.037-.007l.853-.4q.841-.39,1.672-.8,1.6-.8,3.169-1.666,3.417-1.9,6.642-4.111A83.853,83.853,0,0,0,143,162.866H139.6a39.224,39.224,0,0,1,7.879,10.666v-2.423a158.525,158.525,0,0,1-16.4,22.559C129.03,195.969,132.413,199.376,134.471,197.062Z"/><path class="c" d="M106.308,131.845a21.228,21.228,0,0,0,10.223,2.361c3.638-.024,7.341-.728,10.258-3a2.412,2.412,0,0,0,0-3.394,2.462,2.462,0,0,0-3.394,0c.71-.553.095-.085-.087.031-.208.134-.422.257-.641.372-.152.079-.905.393-.306.165-.293.112-.585.226-.884.322a15.23,15.23,0,0,1-5.279.705,15.856,15.856,0,0,1-5.036-.678c-.324-.1-.64-.213-.96-.323-.1-.035-.2-.089-.309-.12.59.173.17.076.013,0-.4-.186-.787-.382-1.175-.586a2.453,2.453,0,0,0-3.284.861,2.426,2.426,0,0,0,.861,3.283Z"/><path class="c" d="M115.446,107.588a48.658,48.658,0,0,1,1.145,5.241l-.086-.638a3.18,3.18,0,0,1,.02.723l.086-.638a1.715,1.715,0,0,1-.08.325l.242-.573a1.216,1.216,0,0,1-.115.209l.376-.486a1.1,1.1,0,0,1-.172.169l.486-.375a3.356,3.356,0,0,1-.415.22l.573-.242a3.046,3.046,0,0,1-.7.2l.638-.086a2.831,2.831,0,0,1-.657,0l.638.086c-.247-.035-.49-.095-.738-.128a2.652,2.652,0,0,0-1.85.241,2.4,2.4,0,0,0-.861,3.284,2.3,2.3,0,0,0,1.435,1.1c.538.073,1.06.21,1.607.234a5.089,5.089,0,0,0,2.337-.551,3.308,3.308,0,0,0,1.853-2.189,5.616,5.616,0,0,0-.025-2.39c-.285-1.689-.676-3.362-1.11-5.018a2.4,2.4,0,0,0-4.628,1.276Z"/><path class="c" d="M87.46,92.824c-.876,2.844-.3,9.386,5.083,9.942,7.121-.042,7.5-7.952,5.1-11.671C95.683,88.05,89.912,86.784,87.46,92.824Z"/><path class="c" d="M144.485,92.824c.875,2.844.3,9.386-5.083,9.942-7.121-.042-7.5-7.952-5.1-11.671C136.261,88.05,142.032,86.784,144.485,92.824Z"/></svg>