<?xml version="1.0" encoding="utf-8"?>
<!-- Uploaded to: SVG Repo, www.svgrepo.com, Generator: SVG Repo Mixer Tools -->
<svg width="800px" height="800px" viewBox="-120.34 0 469.54 469.54" xmlns="http://www.w3.org/2000/svg"><defs><style>.a{fill:#ffffff;}.b{fill:#211715;}.c{fill:#645d5c;}.d{fill:#bdbdbd;}.e{fill:#ad7b59;}.f{fill:#cfcfcf;}</style></defs><path class="a" d="M99.354,104.407c-.514-.227-4.329-1.989-4.557-2.072-3.439-1.241-3.3-3.453-3.736-5.926a56.937,56.937,0,0,1-.762-8.3v-.032c6.932-3.918,12.346-13.05,13.348-15.771.163-.494.494-1.424.789-2.528l.615-.095a7.734,7.734,0,0,0,3.595-1.62,11.647,11.647,0,0,0,3.015-3.957,18.343,18.343,0,0,0,1.87-9.724,6.09,6.09,0,0,0-.641-2.462,4.325,4.325,0,0,0-3.113-2.07,4.585,4.585,0,0,0-3.668,1.073S104.036,28.47,75,28.47c-28.74,0-30.428,22.457-30.428,22.457A4.586,4.586,0,0,0,40.9,49.854a4.329,4.329,0,0,0-3.113,2.07,6.123,6.123,0,0,0-.641,2.462,18.335,18.335,0,0,0,1.871,9.724,11.647,11.647,0,0,0,3.015,3.957,7.726,7.726,0,0,0,3.594,1.62l1.172.18a31.19,31.19,0,0,0,5.945,11.606,28.651,28.651,0,0,0,6.784,6.041,65.7,65.7,0,0,1-.756,8.9c-.433,2.473-.3,4.685-3.736,5.926-.228.083-1.922.68-2.343.86,0,0,2.824,21.275,22.083,21.275S99.354,104.407,99.354,104.407Z"/><path class="a" d="M100.163,420.553a30.543,30.543,0,0,0,3.457,13.93l-22.178-.431.086-12.459"/><path class="a" d="M51.138,420.553a30.544,30.544,0,0,1-3.458,13.93l22.178-.431-.085-12.459"/><path class="b" d="M49.138,420.553a28.7,28.7,0,0,1-3.185,12.92,2.047,2.047,0,0,0,.718,2.737,2.021,2.021,0,0,0,2.736-.718,33.163,33.163,0,0,0,3.731-14.939,2,2,0,0,0-4,0Z"/><path class="b" d="M67.773,421.593l.085,12.459a2,2,0,0,0,4,0l-.085-12.459a2,2,0,0,0-4,0Z"/><path class="b" d="M98.163,420.553a33.149,33.149,0,0,0,3.73,14.939,2,2,0,1,0,3.454-2.019,28.706,28.706,0,0,1-3.184-12.92,2,2,0,0,0-4,0Z"/><path class="b" d="M79.528,421.593l-.086,12.459a2,2,0,0,0,4,0l.086-12.459a2,2,0,0,0-4,0Z"/><path class="c" d="M28.533,463.074c-.116-.152-.225-.308-.329-.47a8.81,8.81,0,0,1-.582-7.38,24.152,24.152,0,0,1,3.787-6.607Q36.89,441.129,43,434.127c1.587-1.82,3.38-3.717,5.753-4.164a3.569,3.569,0,0,0,1.773,3.742,8.369,8.369,0,0,0,4.278.965,23.741,23.741,0,0,0,16.62-6.614c-.028,5,.022,6.664,0,11.665a10.483,10.483,0,0,1-.438,3.607c-1.028,2.779-4.076,4.118-6.521,5.792-6.364,4.354-9.715,12.3-16.383,16.171a17.215,17.215,0,0,1-15.913.57A10.041,10.041,0,0,1,28.533,463.074Z"/><path class="c" d="M122.767,463.074c.116-.152.226-.308.329-.47a8.806,8.806,0,0,0,.583-7.38,24.178,24.178,0,0,0-3.787-6.607q-5.483-7.488-11.588-14.49c-1.586-1.82-3.38-3.717-5.752-4.164a3.568,3.568,0,0,1-1.774,3.742,8.364,8.364,0,0,1-4.278.965,23.737,23.737,0,0,1-16.619-6.614c.027,5-.023,6.664,0,11.665a10.483,10.483,0,0,0,.438,3.607c1.028,2.779,4.076,4.118,6.522,5.792,6.363,4.354,9.714,12.3,16.382,16.171a17.217,17.217,0,0,0,15.914.57A10.037,10.037,0,0,0,122.767,463.074Z"/><path class="b" d="M124.494,464.083c4.95-6.763-1.4-14.61-5.439-19.906q-3.763-4.934-7.783-9.663c-2.258-2.647-4.61-5.682-8.189-6.48a2.027,2.027,0,0,0-2.46,2.46c.343,1.767-2.586,2.12-3.718,2.166a20.486,20.486,0,0,1-6.213-.725,21.425,21.425,0,0,1-9.4-5.293,2.022,2.022,0,0,0-3.414,1.414c.011,2.269.006,4.537,0,6.806a48.17,48.17,0,0,0,.189,7.675c.812,5.083,5.969,6.587,9.377,9.571,3.39,2.968,5.9,6.763,8.938,10.058,3.234,3.5,7.2,6.272,11.985,7.069,5.371.895,12.207-.283,15.813-4.747a2.058,2.058,0,0,0,0-2.828,2.013,2.013,0,0,0-2.828,0c-2.682,3.32-7.738,4.319-11.787,3.738-4.287-.614-7.624-3.079-10.479-6.2-2.743-2.995-5.056-6.374-8-9.183a30.331,30.331,0,0,0-4.906-3.7c-1.437-.9-3.229-1.881-3.929-3.522a11.014,11.014,0,0,1-.371-4.221q0-1.774,0-3.549c.007-2.323.014-4.646,0-6.97l-3.414,1.415a25.442,25.442,0,0,0,13.619,6.851c2.665.427,5.737.7,8.324-.252a5.866,5.866,0,0,0,4.07-6.639l-2.46,2.46c2.863.639,4.786,3.527,6.578,5.633q3.458,4.063,6.714,8.294a57.635,57.635,0,0,1,5.642,8.082c1.343,2.572,1.9,5.682.086,8.164a2.015,2.015,0,0,0,.718,2.737A2.045,2.045,0,0,0,124.494,464.083Z"/><path class="b" d="M30.26,462.064c-1.764-2.411-1.3-5.448-.01-7.975a55.541,55.541,0,0,1,5.739-8.271q3.173-4.14,6.559-8.113c1.828-2.153,3.807-5.161,6.732-5.814l-2.46-2.46A5.829,5.829,0,0,0,50.7,436c2.632,1.031,5.78.76,8.51.323a25.448,25.448,0,0,0,13.62-6.851l-3.414-1.415c-.022,4.261.164,8.554-.021,12.811-.093,2.138-1.179,3.407-2.893,4.565a57.252,57.252,0,0,0-5.2,3.609c-6.048,5.129-9.633,13.856-17.855,16-4.468,1.165-10.438.409-13.5-3.383a2.012,2.012,0,0,0-2.828,0,2.047,2.047,0,0,0,0,2.828c3.11,3.849,8.921,5.341,13.677,5.006a20.359,20.359,0,0,0,12.98-6.144c3.2-3.157,5.678-6.959,8.876-10.119a31.033,31.033,0,0,1,5.264-3.946,11.8,11.8,0,0,0,4.659-4.621c1.26-2.721.856-6.042.849-8.965-.006-2.548-.017-5.1,0-7.643a2.023,2.023,0,0,0-3.415-1.414,21.422,21.422,0,0,1-9.4,5.293,20.489,20.489,0,0,1-6.213.725c-1.138-.046-4.061-.4-3.719-2.166a2.027,2.027,0,0,0-2.46-2.46c-3.578.8-5.931,3.833-8.189,6.48q-4.026,4.721-7.782,9.663c-4.04,5.3-10.39,13.142-5.44,19.906a2.06,2.06,0,0,0,2.737.718A2.015,2.015,0,0,0,30.26,462.064Z"/><path class="d" d="M75.434,425.87c9.392,1.952,31.385,2.186,36.318.541.445-7.365,1.259-80.473,3.245-113.47,1.673-27.78,2.989-61.11,4.62-78.508-19.2-.292-69.636-.6-88.785-.915,1.65,17.269,3.488,51.4,5.174,79.423,1.987,33,2.8,106.105,3.246,113.47,4.932,1.645,24.115,1.761,35.556-.425"/><path class="b" d="M28.832,234.652c1.45,15.237,2.306,30.536,3.234,45.812.914,15.047,1.935,30.1,2.575,45.156.552,13.006.91,26.021,1.229,39.034q.467,19.043.817,38.086c.149,7.548.213,15.106.516,22.65.014.34.028.681.049,1.021a2.075,2.075,0,0,0,1.468,1.929,28.76,28.76,0,0,0,6.56,1.006c3.095.242,6.2.307,9.309.289a115.867,115.867,0,0,0,20.751-1.721c2.527-.476,1.457-4.332-1.063-3.857a110.015,110.015,0,0,1-19.688,1.578c-3.011.017-6.027-.045-9.031-.268a22.93,22.93,0,0,1-5.775-.884l1.469,1.928c-.389-6.554-.356-13.152-.486-19.714q-.367-18.477-.774-36.954c-.31-13.237-.658-26.474-1.172-39.7-.555-14.276-1.49-28.533-2.345-42.793-.964-16.1-1.878-32.211-3.254-48.281q-.186-2.157-.389-4.312a2.055,2.055,0,0,0-2-2,2.014,2.014,0,0,0-2,2Z"/><path class="b" d="M117.659,233.985c-1.441,15.164-2.061,30.414-2.85,45.622-.783,15.106-1.765,30.207-2.416,45.32-.563,13.072-.924,26.153-1.247,39.233q-.471,19.156-.824,38.316c-.151,7.636-.214,15.282-.521,22.914-.014.34-.029.681-.049,1.021l1.468-1.928a12.792,12.792,0,0,1-1.907.428c-.632.1-1.358.18-2.307.261-2.358.2-4.726.282-7.091.317a164.831,164.831,0,0,1-16.542-.562,64.417,64.417,0,0,1-7.407-.986c-2.513-.514-3.588,3.341-1.064,3.857a96.6,96.6,0,0,0,15.388,1.558,138.536,138.536,0,0,0,16.11-.135,25.715,25.715,0,0,0,5.884-.881,2.075,2.075,0,0,0,1.468-1.929c.394-6.636.359-13.317.491-19.962q.37-18.6.781-37.2c.313-13.315.664-26.631,1.188-39.94.565-14.34,1.5-28.664,2.249-43,.834-16.035,1.518-32.093,2.826-48.1q.172-2.117.372-4.233a2.014,2.014,0,0,0-2-2,2.045,2.045,0,0,0-2,2Z"/><path class="b" d="M73.65,265.293c-.443,4.851-.392,9.769-.431,14.635-.06,7.289-.033,14.579.009,21.868.06,10.326.178,20.65.163,30.976q-.026,16.989-.066,33.979-.036,19.2-.038,38.407,0,6.946.033,13.892c.011,2.194-.077,4.427.089,6.616a2.31,2.31,0,0,0,1.015,1.931,2.012,2.012,0,0,0,2.737-.718,2.051,2.051,0,0,0-.718-2.736l0,0,.718.718c.179.332.251,1.4.238.561-.006-.35-.02-.7-.027-1.051-.023-1.234-.032-2.467-.04-3.7-.031-4.269-.036-8.539-.041-12.808q-.02-18.745.03-37.492.03-17.52.068-35.039c.016-9.554-.062-19.107-.128-28.661-.09-12.965-.415-26,.229-38.957.04-.807.089-1.614.162-2.418a2.014,2.014,0,0,0-2-2,2.043,2.043,0,0,0-2,2Z"/><path class="b" d="M57.535,87.443a66.168,66.168,0,0,1-.952,10.1c-.052.3-.11.608-.188.907-.042.16-.1.313-.143.472-.1.358.095-.152-.016.048-.08.143-.165.286-.242.43-.1.181.208-.19-.046.068-.128.129-.25.261-.387.38.261-.227-.219.14-.241.153a22.973,22.973,0,0,1-3.158,1.264,2.066,2.066,0,0,0-1.4,2.46,2.013,2.013,0,0,0,2.46,1.4,28.469,28.469,0,0,0,4.114-1.667,6.561,6.561,0,0,0,3.007-4.347,62.006,62.006,0,0,0,1.189-11.667c.047-2.575-3.953-2.575-4,0Z"/><path class="b" d="M88.3,88.113a60.232,60.232,0,0,0,.7,8.046c.279,1.8.406,3.787,1.44,5.346a6.469,6.469,0,0,0,2.523,2.209c.341.169.7.315,1.048.455.783.31-.276-.155-.082-.046.215.122.462.207.686.309,1.244.564,2.479,1.148,3.727,1.7a2.063,2.063,0,0,0,2.736-.718,2.014,2.014,0,0,0-.717-2.736c-1.135-.5-2.259-1.033-3.389-1.548-.538-.246-1.078-.482-1.622-.716a5.911,5.911,0,0,1-1.046-.545c-.473-.324.168.2-.208-.179-.087-.085-.171-.173-.25-.264q.166.23.048.059c-.112-.165-.2-.337-.3-.511.164.3.006.022-.048-.141a8.33,8.33,0,0,1-.263-1.077c-.156-.838-.274-1.688-.407-2.53a52.137,52.137,0,0,1-.582-7.115c-.049-2.57-4.049-2.579-4,0Z"/><path class="a" d="M11.324,182.559c-.227,12.068-.744,48.888-.48,52.179C10.177,241.9,7.11,248.524,4.758,255.3c-2.244,6.463-3.746,12.461-1.948,19.063A14.127,14.127,0,0,0,4.317,278c1.5,2.455,4.8,4.982,7.989,3.157.5-.286.958-1.7.742-3.535-.783-6.631-.488-6.231-.036-12.635a20.459,20.459,0,0,1,1.053-5.464A16.885,16.885,0,0,1,16,262.162c.4.585,1.278,1.617,1.86,2.307a2.074,2.074,0,0,0,3.651-1.274,143.1,143.1,0,0,0-.985-21.1l1.766-7.464c1.55-6.553,4.224-38.226,4.558-50.925,0,0,.768-7.145-7.234-7.388C9.84,176.018,11.324,182.559,11.324,182.559Z"/><path class="b" d="M9.324,182.559c-.287,15.31-.529,30.628-.553,45.942,0,2.08-.1,4.206.076,6.282.219,2.546,4.221,2.569,4,0-.15-1.752-.076-3.541-.077-5.3,0-3.423.026-6.846.056-10.268q.112-12.837.317-25.673.082-5.493.181-10.986c.048-2.575-3.952-2.576-4,0Z"/><path class="b" d="M24.852,183.7c-.187,6.921-.7,13.839-1.241,20.74-.586,7.491-1.241,14.983-2.139,22.443a63.419,63.419,0,0,1-1.107,7.21c-.583,2.5,3.273,3.574,3.857,1.064,1.279-5.494,1.629-11.3,2.178-16.9q1.17-11.931,1.929-23.9c.224-3.551.427-7.1.523-10.661.07-2.575-3.93-2.573-4,0Z"/><path class="b" d="M18.441,241.344a145.51,145.51,0,0,1,1.124,17.715q0,1.095-.013,2.19a6.047,6.047,0,0,1-.048,1.96c-.015.023.066.057-.127-.049a7.7,7.7,0,0,1-1.771-2.189,21.6,21.6,0,0,0-2.127-2.858,2.019,2.019,0,0,0-3.343.882,49.867,49.867,0,0,0-1.54,11.439,31.261,31.261,0,0,0,.174,4.689c.112,1.12.325,2.255.332,3.38a12.024,12.024,0,0,0-.167,1.231c-.118-.687.681-.25.217-.223-.234.014-.5.222-.759.258-2.128.3-3.93-1.865-4.776-3.542a17.469,17.469,0,0,1-1.6-7.4c-.1-5.384,1.762-10.59,3.6-15.575,2.117-5.754,4.328-11.418,5.132-17.536a2.01,2.01,0,0,0-2-2,2.051,2.051,0,0,0-2,2C7.183,247.6-1.106,258.33.124,270.644c.512,5.119,2.731,11.952,8.615,13.006,2.545.455,5.459-.4,6.135-3.146.59-2.393-.129-4.955-.268-7.373a39.786,39.786,0,0,1,.207-5.554,36.7,36.7,0,0,1,1.181-7.518l-3.343.882c1.733,1.8,2.712,4.774,5.093,5.876a4.1,4.1,0,0,0,5.755-3.478,85.36,85.36,0,0,0-.094-10.847q-.264-5.59-.964-11.148a2.063,2.063,0,0,0-2-2,2.012,2.012,0,0,0-2,2Z"/><path class="a" d="M6.134,180.524c1.927.919,21.69,2.452,25.3,2.452h2.092c-.033,6.833-.607,19.226-1.005,23.032-.075.714.182,1.688.2,2.848,15.829,0,69.614.063,85.1.065a16.608,16.608,0,0,0,.156-2.913c-.484-4.62-1.226-22.479-.946-27.115.112-1.856.517-5.272,1.037-9.319.333,1.663.587,2.934.587,2.934.75,3.748,3.691,9.964,4.967,12.222a31.267,31.267,0,0,0,5.582,6.4c1.633.737,4.071,1.526,5.633.07s5.759-11.912,6.889-14.555c3.271-7.654,1.348-14.967-.652-22.3a63.279,63.279,0,0,0-2.6-7.478c-1.887-8.024-3.718-15.789-4.877-20.231-.7-2.7-2.212-6.855-4.347-9.384a16.4,16.4,0,0,0-2.226-1.527l-1.051-.572a43.353,43.353,0,0,0-3.946-2.1,248.327,248.327,0,0,0-25.851-12.587,24.837,24.837,0,0,0-5.2-7.159,49.641,49.641,0,0,1-14.32,9.98c-.3.134-.627.3-.723.61H73.363c-.1-.311-.426-.476-.723-.61a49.641,49.641,0,0,1-14.32-9.98,25.615,25.615,0,0,0-5.673,8.144,256.237,256.237,0,0,0-23.5,11.6,34.254,34.254,0,0,0-4.642,2.61,26.659,26.659,0,0,0-2.336,1.552c-2.135,2.529-3.643,6.679-4.348,9.384-1.158,4.442-4.6,19.848-5.909,25.192-.843,3.442-4.118,18.647-5.693,24.414-.474,1.736-.964,4.053-.088,4.316"/><path class="b" d="M23.388,113.964a12.253,12.253,0,0,0-2.63,1.84,15.23,15.23,0,0,0-2.629,4.16,38.022,38.022,0,0,0-2.5,7.166c-1.149,4.624-2.187,9.276-3.256,13.918Q9.454,153.724,6.547,166.4c-.585,2.541-1.174,5.082-1.817,7.609-.574,2.257-2.438,6.814.395,8.239,2.293,1.153,4.321-2.3,2.018-3.454.89.447.342.941.517.284.069-.26.079-.612.134-.879.116-.555.261-1.1.408-1.65q.359-1.341.689-2.691c.55-2.231,1.071-4.47,1.585-6.709.993-4.323,1.944-8.654,2.934-12.977,1.849-8.072,3.709-16.147,5.641-24.2a50.588,50.588,0,0,1,1.841-6.376,21.118,21.118,0,0,1,2.16-4.241,6.005,6.005,0,0,1,2.355-1.94c2.236-1.275.223-4.732-2.019-3.454Z"/><path class="b" d="M5.125,182.251a17.5,17.5,0,0,0,4.889,1c2.611.336,5.233.588,7.855.822,4.494.4,9.046.892,13.563.907,2.574.009,2.577-3.991,0-4-4.328-.015-8.689-.479-12.995-.856-2.554-.224-5.108-.467-7.654-.777-.637-.078-.842-.1-1.247-.161s-.807-.118-1.208-.188c-.312-.054-.625-.108-.934-.181-.236-.055-1.031-.364-.251-.016a2.061,2.061,0,0,0-2.736.717,2.016,2.016,0,0,0,.718,2.737Z"/><path class="b" d="M7.623,173.414c6.78.667,13.6,1.526,20.409,1.752,2.574.085,2.571-3.915,0-4-6.813-.226-13.629-1.085-20.409-1.752a2.014,2.014,0,0,0-2,2,2.043,2.043,0,0,0,2,2Z"/><path class="b" d="M53.9,98.775q-8.056,3.349-15.837,7.3c-2.417,1.23-4.813,2.5-7.2,3.783-2.474,1.331-5.235,2.464-7.474,4.169a2.065,2.065,0,0,0-.718,2.736,2.014,2.014,0,0,0,2.737.718,52.818,52.818,0,0,1,7.089-3.962c2.39-1.289,4.789-2.562,7.208-3.8,5-2.553,10.078-4.933,15.259-7.087a2.066,2.066,0,0,0,1.4-2.46,2.012,2.012,0,0,0-2.46-1.4Z"/><path class="b" d="M96.214,102.632c5.116,2.127,10.136,4.473,15.071,6.99,2.352,1.2,4.686,2.435,7.011,3.686,2.377,1.28,5.065,2.346,7.217,3.979a2.013,2.013,0,0,0,2.737-.717,2.05,2.05,0,0,0-.718-2.736c-2.154-1.635-4.838-2.7-7.217-3.979-2.449-1.319-4.909-2.619-7.389-3.879q-7.684-3.9-15.648-7.2a2.011,2.011,0,0,0-2.46,1.4,2.051,2.051,0,0,0,1.4,2.46Z"/><path class="b" d="M126.016,117.455a6.232,6.232,0,0,1,2.752,2.56,24.01,24.01,0,0,1,2.14,4.652c1.085,3.128,1.757,6.418,2.533,9.632q.727,3.015,1.44,6.034c.548,2.314.9,4.82,1.666,7.068.809,2.37,1.963,4.893,2.6,7.478.616,2.5,4.475,1.44,3.857-1.063-.346-1.4-.83-2.776-1.307-4.137a31.115,31.115,0,0,1-1.52-4.3c-.841-4.469-2.093-8.9-3.166-13.323a73.458,73.458,0,0,0-2.759-9.83,24.465,24.465,0,0,0-2.632-5.145A10.521,10.521,0,0,0,128.035,114c-2.24-1.277-4.257,2.177-2.019,3.454Z"/><path class="b" d="M116.729,173.039a45.887,45.887,0,0,0,4.109,10.668,28.923,28.923,0,0,0,6.954,8.84,2.048,2.048,0,0,0,2.829,0,2.019,2.019,0,0,0,0-2.828,25.977,25.977,0,0,1-6.33-8.031,41.627,41.627,0,0,1-3.7-9.712,2,2,0,0,0-3.857,1.063Z"/><path class="b" d="M128.842,175.962c.335-.453.67-.907,1.006-1.358q.24-.321.481-.641l.241-.318c.038-.051.371-.48.076-.1.665-.855,1.348-1.7,2.072-2.5a26.522,26.522,0,0,1,2.3-2.282q.3-.261.611-.512s.4-.308.176-.141.141-.1.184-.135c.485-.354.986-.684,1.5-1a2,2,0,1,0-2.019-3.454c-4.249,2.566-7.182,6.5-10.085,10.42a2.006,2.006,0,0,0,.718,2.736,2.057,2.057,0,0,0,2.736-.717Z"/><path class="a" d="M62.94,115.043c-4.05-5.523-6.213-9.462-9.61-14.991a24.494,24.494,0,0,1,4.99-6.742,49.641,49.641,0,0,0,14.32,9.98c.3.134.627.3.723.61a1.15,1.15,0,0,1-.165.808C73.012,105.093,64.293,113.376,62.94,115.043Z"/><path class="a" d="M86.355,115.043c4.05-5.523,6.213-9.462,9.61-14.991a24.494,24.494,0,0,0-4.99-6.742,49.641,49.641,0,0,1-14.32,9.98c-.3.134-.627.3-.723.61a1.145,1.145,0,0,0,.166.808C76.283,105.093,85,113.376,86.355,115.043Z"/><path class="b" d="M64.667,114.033c-3.511-4.805-6.5-9.923-9.61-14.99v2.019a23.53,23.53,0,0,1,4.677-6.338H56.906a51.612,51.612,0,0,0,7.383,6.117q1.853,1.273,3.813,2.381.951.535,1.928,1.028.556.28,1.122.545c.159.076.319.149.479.222q.452.262,0-.108l-.273-1.009c-.011-.136.6-.711.278-.432-.107.091-.2.212-.3.313-.344.358-.7.706-1.051,1.056-1.063,1.052-2.133,2.1-3.2,3.144a76.422,76.422,0,0,0-5.566,5.647,2.057,2.057,0,0,0,0,2.829,2.015,2.015,0,0,0,2.828,0,107.669,107.669,0,0,1,7.817-7.855,16.285,16.285,0,0,0,2.743-2.867,2.885,2.885,0,0,0-1.264-4.172c-1.51-.772-3.03-1.485-4.491-2.352A47.313,47.313,0,0,1,59.734,91.9a2.037,2.037,0,0,0-2.828,0,25.75,25.75,0,0,0-4.438,5.593c-.722,1.21-1.521,2.356-.76,3.746.579,1.058,1.262,2.072,1.885,3.105,2.41,4,4.866,7.944,7.62,11.713a2.058,2.058,0,0,0,2.736.717A2.015,2.015,0,0,0,64.667,114.033Z"/><path class="b" d="M88.082,116.052c2.754-3.769,5.21-7.719,7.62-11.713.59-.978,1.21-1.943,1.78-2.934.821-1.428.193-2.476-.564-3.762A25.8,25.8,0,0,0,92.389,91.9a2.036,2.036,0,0,0-2.828,0,46.993,46.993,0,0,1-8.149,6.533,47.969,47.969,0,0,1-4.487,2.528c-1.566.774-3.426,1.594-2.943,3.748.314,1.4,1.607,2.384,2.579,3.344,1.5,1.479,3.008,2.946,4.506,4.426a55.149,55.149,0,0,1,3.874,3.983,2.016,2.016,0,0,0,2.829,0,2.047,2.047,0,0,0,0-2.829,76.436,76.436,0,0,0-5.567-5.647q-1.57-1.541-3.138-3.082c-.361-.358-.723-.715-1.077-1.08-.1-.107-.2-.226-.312-.327-.313-.287.267.267.256.408l-.273,1.009q-.447.371,0,.108l.319-.147c.376-.177.75-.354,1.122-.54q.977-.486,1.928-1.019,2.043-1.14,3.973-2.47a51.857,51.857,0,0,0,7.383-6.117H89.561a23.53,23.53,0,0,1,4.677,6.338V99.043c-3.108,5.067-6.1,10.185-9.61,14.99a2.015,2.015,0,0,0,.718,2.736A2.044,2.044,0,0,0,88.082,116.052Z"/><path class="b" d="M72.657,104.547c0,5.044-.035,10.088-.057,15.132q-.063,15.031-.134,30.061Q72.385,167.37,72.3,185q-.07,15.353-.14,30.705-.037,8.2-.069,16.406c0,.187,0,.374,0,.561,0,2.574,4,2.578,4,0,0-4.669.036-9.339.057-14.009q.064-14.744.134-29.486.081-17.612.163-35.224.07-15.607.14-31.215.039-8.73.069-17.458c0-.244,0-.487,0-.731,0-2.574-4-2.578-4,0Z"/><path class="a" d="M111.824,136.16H95.74c0,1.439.026,5.235.026,6.968,2.685,0,14.037.032,16.058.032C111.824,140.763,111.8,136.447,111.824,136.16Z"/><path class="b" d="M111.824,134.16H95.74a2.03,2.03,0,0,0-2,2c0,2.323.025,4.646.026,6.968a2.029,2.029,0,0,0,2,2c5.353,0,10.7.032,16.058.032a2.029,2.029,0,0,0,2-2c0-2.326-.113-4.676,0-7a2,2,0,0,0-4,0c-.113,2.324,0,4.675,0,7l2-2c-5.353,0-10.7-.031-16.058-.032l2,2c0-2.322-.025-4.645-.026-6.968l-2,2h16.084C114.4,138.16,114.4,134.16,111.824,134.16Z"/><path class="b" d="M120.629,126.952c-.558,5.128-.754,10.3-1.226,15.436-.667,7.257-1.656,14.476-2.613,21.7-.678,5.11-1.6,10.293-1.786,15.453-.166,4.66.074,9.353.259,14.009.112,2.82.242,5.64.415,8.457.061,1.01.127,2.021.212,3.029.14,1.675-.158,3.313-.06,4.977.151,2.559,4.152,2.576,4,0-.09-1.532.235-3.032.095-4.57-.079-.869-.139-1.74-.195-2.61-.158-2.423-.277-4.848-.383-7.273-.215-4.915-.424-9.846-.369-14.767a118.146,118.146,0,0,1,1.456-14.009c.945-7.2,1.974-14.4,2.7-21.631.61-6.056.834-12.151,1.492-18.2a2.013,2.013,0,0,0-2-2,2.047,2.047,0,0,0-2,2Z"/><path class="b" d="M25.814,127.391c.581,4.892.934,9.813,1.456,14.713.754,7.064,1.682,14.109,2.5,21.166.626,5.362,1.362,10.747,1.685,16.139.271,4.53-.016,9.131-.194,13.66-.117,2.976-.256,5.953-.441,8.926-.066,1.06-.136,2.119-.227,3.177-.135,1.549.2,3.055.086,4.6-.188,2.568,3.813,2.556,4,0,.106-1.438-.248-2.841-.115-4.275.081-.885.144-1.773.2-2.66.167-2.522.293-5.046.4-7.571.215-4.912.46-9.854.331-14.771-.129-4.867-.871-9.759-1.425-14.59-.8-6.97-1.71-13.926-2.493-20.9-.658-5.865-1.079-11.759-1.774-17.619a2.061,2.061,0,0,0-2-2,2.012,2.012,0,0,0-2,2Z"/><path class="b" d="M30.832,236.368q16.92,0,33.842.022,19.764.018,39.527.035,7.142.006,14.282.008c2.574,0,2.578-4,0-4q-15.262,0-30.525-.022-20.226-.018-40.452-.035-8.337-.006-16.674-.008c-2.574,0-2.578,4,0,4Z"/><path class="e" d="M32.119,208.48c-.153,2.3-1.339,12.116-1.063,15.259-4.427,31.894-4.522,113.7-4.26,116.589,19.414,2.671,88.992,2.078,100.475-.072.191-2.049-2.246-84.919-6.853-116.369-.555-4.222-.741-12.444-1.232-15.149"/><path class="b" d="M30.119,208.48c-.331,4.707-1.123,9.4-1.1,14.13a5.64,5.64,0,0,0,.01.61c.013.115.014.242.018.357,0-.024.049-.337.044-.076a16.747,16.747,0,0,1-.23,1.731q-.184,1.427-.345,2.854-.356,3.142-.632,6.294c-.908,10.141-1.429,20.318-1.849,30.49-.455,11.037-.756,22.08-.968,33.124q-.267,13.9-.337,27.8c-.021,4.693-.185,9.432.049,14.121.007.138.009.276.021.414.067.784.567,1.806,1.468,1.929,5.526.753,11.113,1.033,16.682,1.268,7.671.325,15.349.469,23.026.54,15.548.142,31.121.039,46.656-.644a110.677,110.677,0,0,0,15.175-1.236,2.033,2.033,0,0,0,1.468-1.929,31.776,31.776,0,0,0-.029-3.295c-.054-2.636-.128-5.271-.207-7.907q-.387-12.933-.943-25.861-.683-16.194-1.613-32.377c-.61-10.381-1.3-20.761-2.26-31.116-.389-4.215-.822-8.428-1.363-12.626-.653-5.059-.934-10.144-1.348-15.421-.091-1.152-.2-2.307-.394-3.447a2.016,2.016,0,0,0-2.46-1.4,2.047,2.047,0,0,0-1.4,2.461c.329,1.9.431,4.994.575,7.355.172,2.831.355,5.656.755,8.465.227,1.6.445,3.333.666,5.236q.373,3.215.686,6.433c.994,10.1,1.7,20.23,2.318,30.359q.994,16.233,1.681,32.483.588,13.47,1.02,26.946c.14,4.44.04,8.935.323,13.367a2.3,2.3,0,0,1-.01.342l1.469-1.928c-.307.057-.615.1-.923.152-.6.095.117-.011-.114.016l-.65.08c-.963.111-1.928.2-2.893.28-2.509.207-5.023.35-7.537.473-7,.342-14.007.517-21.013.633-15.948.265-31.918.252-47.859-.327-3.555-.129-7.109-.29-10.657-.527-1.494-.1-2.987-.214-4.478-.352q-.934-.087-1.866-.188c-.313-.035-.625-.07-.937-.108-.176-.022-1.079-.141-.485-.06l1.468,1.928c-.338-3.938-.09-8-.079-11.948q.036-13.222.274-26.444.284-16.446.875-32.885c.395-10.472.892-20.946,1.736-31.393.335-4.149.723-8.3,1.255-12.426a18.908,18.908,0,0,0,.158-2.622c-.005-1.188.069-2.378.15-3.564.183-2.683.457-5.358.722-8.034.084-.843.173-1.687.232-2.532.181-2.569-3.82-2.558-4,0Z"/><path class="b" d="M34.742,210.856q16.313,0,32.625.022,18.778.018,37.557.035,6.892.006,13.784.008c2.574,0,2.578-4,0-4q-14.654,0-29.307-.022-19.243-.018-38.487-.035-8.087-.006-16.172-.008c-2.574,0-2.578,4,0,4Z"/><path class="b" d="M29.071,224.358c11.788-.328,23.591-.311,35.382-.341,14.479-.036,28.96-.021,43.438.124,5.108.051,10.221.085,15.326.282,2.574.1,2.57-3.9,0-4-11.039-.425-22.108-.357-33.152-.4q-22.03-.075-44.062.082c-5.644.047-11.29.091-16.932.248-2.568.071-2.579,4.071,0,4Z"/><path class="b" d="M77.15,223.3c1.071,2.054,1.851,4.255,2.825,6.355a2.013,2.013,0,0,0,1.2.919,2,2,0,0,0,2.461-1.4,2.279,2.279,0,0,0-.2-1.541c-.974-2.1-1.754-4.3-2.825-6.355a2.015,2.015,0,0,0-2.736-.717,2.045,2.045,0,0,0-.718,2.736Z"/><path class="b" d="M71.275,221.478c-.709,3.967-1.425,7.939-2.278,11.878a2,2,0,1,0,3.857,1.063c.853-3.939,1.569-7.911,2.278-11.878a2,2,0,0,0-3.857-1.063Z"/><path class="b" d="M107.523,52.342a2.5,2.5,0,0,1,3.566.469,5.229,5.229,0,0,1,.5,2.643,15.56,15.56,0,0,1-.22,3.2c-.694,3.8-2.63,8.351-6.852,9.108a2.016,2.016,0,0,0-1.4,2.46,2.044,2.044,0,0,0,2.46,1.4c6.412-1.15,9.469-8.391,9.952-14.2.247-2.979.011-6.388-2.566-8.319a6.623,6.623,0,0,0-8.275.418,2.016,2.016,0,0,0,0,2.829,2.045,2.045,0,0,0,2.829,0Z"/><path class="b" d="M103,66.274A17.3,17.3,0,0,1,102,70.951c-.09.276-.194.549-.277.828-.037.125-.2.478.024-.036-.141.328-.3.65-.456.969A39.4,39.4,0,0,1,97.9,78.16c-2.958,4.056-6.972,8.353-12.038,9.542-2.5.587-1.445,4.445,1.063,3.857,6.033-1.416,10.714-6.349,14.263-11.154,3.066-4.151,5.605-8.855,5.819-14.131.1-2.574-3.9-2.57-4,0Z"/><path class="b" d="M45.985,49.513a6.621,6.621,0,0,0-8.274-.418c-2.58,1.926-2.813,5.345-2.566,8.319.482,5.811,3.54,13.052,9.952,14.2a2.057,2.057,0,0,0,2.46-1.4,2.017,2.017,0,0,0-1.4-2.46C41.938,67,40,62.451,39.308,58.651a15.411,15.411,0,0,1-.223-3.018,6.01,6.01,0,0,1,.431-2.7,2.491,2.491,0,0,1,3.641-.591,2.055,2.055,0,0,0,2.828,0,2.016,2.016,0,0,0,0-2.829Z"/><path class="b" d="M43.884,66a35.627,35.627,0,0,0,7.587,17.054c4.268,5.053,9.918,8.708,16.573,9.427a2.013,2.013,0,0,0,2-2,2.045,2.045,0,0,0-2-2c-5.711-.617-10.482-4.272-14.026-8.593-3.494-4.26-5.34-9.586-6.277-14.951a2.016,2.016,0,0,0-2.46-1.4,2.046,2.046,0,0,0-1.4,2.46Z"/><path class="a" d="M168.585,117.373c2.5-.45,11.29-1.57,12.9-1.862a19.309,19.309,0,0,0,4.052-1.693c2.738-1.143,5.817-2.923,8.749-3.37.8-.121,1.628.366,2.109.323,1.4-.82,4.215-.534,5.763-.039,5.486,2.832-.541,10.344-3.918,12.728-2.328,1.642-5.761,4.215-8.286,5.6a33.965,33.965,0,0,1-8.738,3.689,77.555,77.555,0,0,0-10.81,3.072c-1.93,1.219-4.136,2.42-5.444,6.111-2.657,11.136-5.647,32.6-8.075,39.658-2.394,6.951-3.393,12.337-10.075,16.13-3.639,2.064-6.907,2.9-10.671.7a11.932,11.932,0,0,1-5.583-13.348,55.041,55.041,0,0,1,4.5-12.1c3.789-7.01,14.83-33.971,18.387-41.063,1.024-1.944,2.44-3.89,3.027-5.121.759-1.594.416-4.35.977-6.011a22.034,22.034,0,0,1,5.279-8.741,96.5,96.5,0,0,1,8.59-8.232c1.365-1.185,2.722-1.966,4.312-.777,1.77,1.323,1.023,2.965.147,4.8-1.631,3.408-5.379,6.124-6.663,9.051"/><path class="b" d="M163.031,141.4c-2.289,9.656-3.686,19.51-5.595,29.244a91.443,91.443,0,0,1-2.841,11.479c-1.487,4.448-2.727,9.167-6.473,12.3-2.015,1.686-4.878,3.318-7.571,3.3-2.737-.023-5.4-2.013-6.82-4.264-2.969-4.717-.828-10.289,1.016-15.011,1.3-3.342,3.1-6.482,4.6-9.74,1.768-3.842,3.458-7.72,5.144-11.6,3.5-8.068,6.746-16.318,10.679-24.191,1.147-2.3-2.3-4.325-3.454-2.019-3.652,7.31-6.678,14.961-9.926,22.455-1.819,4.2-3.64,8.393-5.539,12.555-1.584,3.471-3.446,6.822-4.9,10.347-2.23,5.392-4.429,11.545-2.058,17.254,2.447,5.892,9.048,9.773,15.285,7.468a19.862,19.862,0,0,0,11.734-11.621,80.441,80.441,0,0,0,3.954-12.673c2.54-11.339,3.948-22.909,6.629-34.217.594-2.5-3.262-3.571-3.857-1.063Z"/><path class="b" d="M155.166,132.918c.849-1.573,1.887-3.03,2.751-4.593a10.621,10.621,0,0,0,1.112-4.518,15.532,15.532,0,0,1,3.257-8.165,58.82,58.82,0,0,1,7.831-8.121q1.053-.951,2.123-1.882c.434-.378,1.274-1.335,1.922-1.173,1.253.313-.064,2.272-.371,2.835-1.716,3.152-4.884,5.288-6.41,8.562a2.056,2.056,0,0,0,.717,2.736,2.017,2.017,0,0,0,2.737-.717c1.595-3.421,4.977-5.648,6.663-9.051.806-1.627,1.6-3.468.947-5.286a4.818,4.818,0,0,0-5.415-2.985c-2.131.494-3.841,2.425-5.413,3.837-1.773,1.593-3.5,3.237-5.142,4.965a29.327,29.327,0,0,0-6.543,9.719c-.759,1.982-.669,3.916-1.03,5.964a7.122,7.122,0,0,1-1.187,2.507c-.687,1.105-1.384,2.2-2,3.347-1.223,2.265,2.23,4.287,3.454,2.019Z"/><path class="b" d="M169.117,119.3c4.188-.741,8.439-1.088,12.628-1.817a16.852,16.852,0,0,0,4.238-1.686c1.6-.757,3.232-1.5,4.863-2.2a20.21,20.21,0,0,1,2.561-.914,3.884,3.884,0,0,1,2.187,0,4.187,4.187,0,0,0,2.137-.305,6.108,6.108,0,0,1,2.2-.075c2.381.247,2.833,1.53,2.056,3.514a14.816,14.816,0,0,1-4.339,5.586,66.86,66.86,0,0,1-7.486,5.217,34.086,34.086,0,0,1-9.483,4.2c-3.668.924-7.606,1.541-11.049,3.173a13.075,13.075,0,0,0-6.6,7.408c-.9,2.414,2.964,3.457,3.857,1.063a8.51,8.51,0,0,1,3.5-4.271,20.947,20.947,0,0,1,6.3-2.281c2.4-.62,4.861-1.07,7.212-1.861a42.254,42.254,0,0,0,6.883-3.167,62.346,62.346,0,0,0,6.059-3.981,38.419,38.419,0,0,0,4.52-3.476c2.464-2.386,5.221-5.974,4.993-9.611-.323-5.165-6.925-6.854-10.972-4.775l1.009-.273a15.624,15.624,0,0,0-2.109-.323,10.882,10.882,0,0,0-2.548.56,40.166,40.166,0,0,0-4.707,1.954c-2.274,1.056-4.538,2.4-7.036,2.772-3.974.595-7.982,1.01-11.939,1.711a2.016,2.016,0,0,0-1.4,2.46,2.044,2.044,0,0,0,2.46,1.4Z"/><path class="f" d="M146.264,98.86c8.773-2.855,21.628-4.15,34.686-4.053,23.284-.173,45.925,4.081,45.925,13.708,0,11.6-24.781,15.224-45.925,15.223s-45.925-3.624-45.925-15.223c0-4.228,4.368-7.42,11.239-9.655"/><path class="b" d="M146.795,100.788c7.535-2.421,15.533-3.307,23.4-3.736a187.172,187.172,0,0,1,26.465.351c6.98.613,14.171,1.627,20.732,4.2a17.13,17.13,0,0,1,5.9,3.544,4.543,4.543,0,0,1,.729.851c.107.162.211.325.307.493.044.078.338.7.2.372a3.785,3.785,0,0,1,.307,2.376,6.5,6.5,0,0,1-.735,2.137,7.605,7.605,0,0,1-1.719,2.068,19.935,19.935,0,0,1-6.12,3.509c-6.136,2.377-12.8,3.408-19.318,4.044a169.019,169.019,0,0,1-22.423.625,116.206,116.206,0,0,1-21.462-2.47c-4.912-1.109-10.78-2.666-14.263-6.413a6.008,6.008,0,0,1-1.77-4.485c.147-2.443,2.627-4.216,4.689-5.346a30.154,30.154,0,0,1,5.075-2.123c2.433-.8,1.391-4.668-1.063-3.857-6.039,2-13.971,5.893-12.5,13.549,1.026,5.355,6.437,8.389,11.065,10.225,6.771,2.685,14.219,3.706,21.429,4.369a170.3,170.3,0,0,0,24.4.431,105.89,105.89,0,0,0,22.888-3.274c5.229-1.457,11.373-3.719,14.391-8.57a9.484,9.484,0,0,0,1.278-6.883,10.053,10.053,0,0,0-3.926-5.641c-5.207-4.039-12.35-5.523-18.7-6.568A163.284,163.284,0,0,0,178.776,92.8a130.188,130.188,0,0,0-27.586,2.659c-1.841.409-3.663.891-5.458,1.468-2.441.785-1.4,4.648,1.063,3.857Z"/><path class="a" d="M198.8,109.773a23.987,23.987,0,0,1-.679-3.294,2.589,2.589,0,0,1,1.343-3.04,11.75,11.75,0,0,1,5.569-.4,5.8,5.8,0,0,1,2.164.722,2.3,2.3,0,0,1,.887,1.993,13.975,13.975,0,0,1-.887,4.2c-.765,1.63-2.337,1.861-4.242,1.861S199.565,111.6,198.8,109.773Z"/><path class="b" d="M200.729,109.241a12.109,12.109,0,0,1-.542-2.512c-.029-.178-.057-.356-.09-.533-.015-.083-.03-.166-.047-.248-.062-.307-.027.087.012.109-.034-.02-.008-.3-.006-.353.013-.422-.049.028-.021.046a2.262,2.262,0,0,1,.062-.267c.136-.488-.01-.022-.009-.021l.062-.116c.095-.144.09-.148-.013-.012l-.08.1a2.163,2.163,0,0,1,.173-.185c.054.072-.378.223-.1.082.387-.2-.388.1-.041.008.262-.068.517-.165.78-.232.139-.034.278-.066.418-.095.1-.021.71-.149.2-.048a11.419,11.419,0,0,1,3.176.036c.039,0,.622.105.236.018-.361-.081.1.029.142.038a6.4,6.4,0,0,1,.653.187c.134.046.445.079.013-.01a1.3,1.3,0,0,1,.255.122c.058.03.387.268.117.043-.14-.116-.148-.116-.026,0s.111.125,0,0l-.08-.1a2.538,2.538,0,0,1,.132.233c-.031.036-.122-.415-.047-.1.022.094.038.437.052.116.015-.354-.011.043-.015.1-.014.245-.062.492-.091.736-.018.149-.035.3-.054.446-.006.05-.1.634-.022.179a12.182,12.182,0,0,1-.336,1.57c-.053.172-.11.345-.179.51.028-.066.146-.281-.006-.017-.043.075-.095.157-.134.235-.162.33.308-.263-.035.045-.034.031-.217.175-.219.208,0-.05.412-.259.118-.1a1.472,1.472,0,0,0-.257.146c-.184.16.472-.149.091-.034-.18.054-.356.112-.54.153a2.324,2.324,0,0,0-.318.06c.017-.061.5-.051,0-.007a14.8,14.8,0,0,1-1.576.037c-.223,0-.446-.013-.669-.031-.052-.005-.478-.057-.113-.006s-.149-.033-.215-.048c-.18-.041-.375-.148-.555-.17.407.049.308.161.121.033-.061-.042-.4-.28-.126-.062s-.018-.03-.058-.07c-.313-.312.04-.007,0,.034-.007.006-.374-.68-.392-.719a2,2,0,0,0-2.736-.718,2.061,2.061,0,0,0-.718,2.736,4.946,4.946,0,0,0,2.953,2.664,9.652,9.652,0,0,0,3.519.352,6.994,6.994,0,0,0,3.71-.962,6.086,6.086,0,0,0,2.375-3.895c.178-.815.264-1.65.364-2.478a4.66,4.66,0,0,0-.078-2.1,4.339,4.339,0,0,0-1.212-1.953,5.855,5.855,0,0,0-2.167-1.093,13.3,13.3,0,0,0-4.247-.415,8.411,8.411,0,0,0-4.388,1.124,4.858,4.858,0,0,0-1.709,4.988,16.917,16.917,0,0,0,.679,3.294,2.049,2.049,0,0,0,2.46,1.4A2.023,2.023,0,0,0,200.729,109.241Z"/><path class="a" d="M158.553,103.2c-3.679.441-5.525,3.017-5.525,5.22,0,3.919,6.66,7.121,19.324,7.121s19.325-3.2,19.325-7.121c0-2.2-1.847-4.779-5.526-5.22"/><path class="a" d="M160.158,102.648c-.962-2.3-1.535-7.459-2.041-9.9-.781-3.774.694-7.982,4.037-9.141,5.938-2.058,10.492-1.84,16.745-1.214a17.478,17.478,0,0,1,6.508,2.169,6.916,6.916,0,0,1,2.665,5.993c-.583,4.288-.786,8.614-2.665,12.618-2.3,4.9-7.028,5.6-12.755,5.6S162.458,108.155,160.158,102.648Z"/><path class="a" d="M157.316,90.024a3.083,3.083,0,0,0-3.9,0,5.827,5.827,0,0,0-.981,3.951c.59,4.689,2.893,7.818,7.618,7.892"/><path class="b" d="M158.731,88.61a5.152,5.152,0,0,0-5.687-.768c-1.906.893-2.585,3.414-2.645,5.344a12.774,12.774,0,0,0,1.231,5.364,9.182,9.182,0,0,0,2.96,3.664,9.495,9.495,0,0,0,5.459,1.653,2.017,2.017,0,0,0,2-2,2.039,2.039,0,0,0-2-2c-.217-.005-.434-.013-.651-.03-.1-.009-.209-.019-.313-.03.276.039.3.042.076.007a9.537,9.537,0,0,1-1.13-.274c-.089-.029-.176-.06-.264-.092-.2-.08-.172-.065.1.047-.128,0-.369-.176-.482-.237-.154-.085-.306-.175-.453-.272-.072-.048-.144-.1-.215-.148q-.258-.192.095.074c-.086.043-.677-.642-.749-.723-.37-.42.1.175-.1-.11-.1-.148-.205-.293-.3-.445-.195-.314-.357-.642-.52-.974q-.132-.3.033.085c-.036-.09-.07-.18-.1-.27-.06-.162-.115-.325-.168-.489q-.174-.546-.3-1.108-.069-.31-.124-.624c-.017-.1-.1-.8-.051-.279a6.633,6.633,0,0,1,0-1.3c-.052.485.06-.244.082-.334.056-.227.128-.447.2-.667-.151.437.114-.183.153-.267q.189-.282-.049.03a1.361,1.361,0,0,1,.165-.166c-.25.185-.284.22-.1.107.191-.094.151-.078-.119.046.086-.029.173-.054.262-.075q.328-.064-.115,0c.133-.076.429-.011.578-.018.227.018.193.009-.1-.029.094.015.186.033.278.056a2.68,2.68,0,0,1,.265.077c-.268-.124-.305-.14-.113-.047.47.3-.149-.181.078.05a2,2,0,0,0,2.829-2.828Z"/><path class="b" d="M158.021,101.268c-4.44.638-8.812,5.315-6.273,9.865,1.9,3.411,6.421,4.762,9.979,5.47a57.508,57.508,0,0,0,19.155.354c3.861-.554,8.676-1.583,11.313-4.749a5.9,5.9,0,0,0,1.22-5.57,8.036,8.036,0,0,0-6.732-5.37,2.067,2.067,0,0,0-2.46,1.4,2.014,2.014,0,0,0,1.4,2.46c1.671.24,3.612.968,4.007,2.827a2.278,2.278,0,0,1,.042.684c-.016.307.1-.5,0-.026-.02.1-.045.192-.074.285-.07.225.137-.195-.094.219-.064.116-.135.226-.206.338-.055.089.18-.176-.095.123a7.869,7.869,0,0,1-2.972,1.947,25.034,25.034,0,0,1-5.337,1.411,55.448,55.448,0,0,1-15.412.239,29.677,29.677,0,0,1-5.985-1.282,12.947,12.947,0,0,1-1.9-.784c-.3-.154-.591-.319-.874-.5-.147-.093-.293-.189-.434-.29-.327-.235.1.109-.21-.172a7.014,7.014,0,0,1-.632-.635c-.251-.289-.035-.053.007.009-.089-.132-.17-.268-.251-.405a.959.959,0,0,1-.171-.821c.229-1.97,2.169-2.9,4.054-3.168a2.013,2.013,0,0,0,1.4-2.46,2.053,2.053,0,0,0-2.461-1.4Z"/><path class="b" d="M162.087,102.117a36.491,36.491,0,0,1-1.645-7.649c-.386-2.377-.976-4.741.222-7,1.333-2.512,4.931-2.943,7.478-3.286a43.284,43.284,0,0,1,9.832.116c2.315.22,5.815.788,7.219,2.854,1.617,2.38.658,5.555.276,8.184-.424,2.929-.975,6.592-3.095,8.839a9.358,9.358,0,0,1-6.143,2.456,29.346,29.346,0,0,1-8.91-.278,7.414,7.414,0,0,1-5.436-4.714,2.013,2.013,0,0,0-2.736-.718,2.053,2.053,0,0,0-.718,2.737,10.983,10.983,0,0,0,6.561,6.191c2.976,1.038,6.379,1,9.49.887,3.052-.108,6.368-.506,8.959-2.265,3.122-2.12,4.575-5.658,5.373-9.229a63.01,63.01,0,0,0,.953-6.25c.226-1.882.552-3.643-.038-5.5a8.82,8.82,0,0,0-2.669-4.187,13.987,13.987,0,0,0-4.82-2.258,36.755,36.755,0,0,0-11.632-1.068,31.471,31.471,0,0,0-5.979.812,13.664,13.664,0,0,0-5.121,2c-3.227,2.424-4.015,6.714-3.32,10.486.6,3.267.807,6.8,2.042,9.9a2.062,2.062,0,0,0,2.46,1.4A2.014,2.014,0,0,0,162.087,102.117Z"/><path class="b" d="M163.7,92.539a14.662,14.662,0,0,0,4.6,1.119,38.974,38.974,0,0,0,5.169.24,36.416,36.416,0,0,0,5.245-.434,7.461,7.461,0,0,0,3.716-1.438,2.015,2.015,0,0,0,0-2.829,2.044,2.044,0,0,0-2.828,0c.612-.509.006-.1-.127.011-.1.08.489-.149.09-.048-.133.033-.262.086-.394.124-.551.158-1.114.245-1.677.348-.462.083.319-.032-.122.018-.171.019-.343.04-.514.058-.391.041-.783.073-1.175.1-.8.055-1.607.084-2.411.092a39.189,39.189,0,0,1-4.8-.222c-.1-.012-.628-.081-.16-.015-.165-.024-.33-.048-.494-.075-.307-.05-.613-.106-.916-.173-.27-.06-.539-.126-.8-.206-.137-.041-.27-.1-.408-.135-.464-.135.347.163.025.011a2.058,2.058,0,0,0-2.737.717,2.018,2.018,0,0,0,.718,2.737Z"/><path class="e" d="M41.583,23.41C46.4,14.045,54.658,6.9,64.035,4.163,78.426-.041,96.962.918,106.249,15.8a33.284,33.284,0,0,1,3.185,28.07,3.9,3.9,0,0,1-.94,4.867c-1.8,1.369-5.518.256-7.375-.282C91.305,45.608,83.605,45.8,73.5,46.273a66.967,66.967,0,0,0-15.639,2.144c-2.426.7-15.037,5.129-13.481-1.832-10.615,1.16-5.3-18.277-2.865-23.05Z"/><path class="b" d="M88.761,21.051A24.849,24.849,0,0,1,92.3,20.96q.5.023.992.066c.167.014.334.031.5.049.06.006.5.061.172.016.642.087,1.28.209,1.909.359a11.071,11.071,0,0,1,6.166,3.437,2.018,2.018,0,0,0,2.828,0,2.039,2.039,0,0,0,0-2.829c-3.864-4.421-10.524-5.543-16.1-5.007a2.056,2.056,0,0,0-2,2,2.014,2.014,0,0,0,2,2Z"/><path class="b" d="M43.043,44.62a3.212,3.212,0,0,1-.687-.144,2.934,2.934,0,0,1-.363-.126c.313.134.026,0-.027-.035a2.3,2.3,0,0,1-.857-.742A7.277,7.277,0,0,1,40.1,40.486,27.5,27.5,0,0,1,41,31.32c.338-1.419.739-2.824,1.212-4.2q.285-.832.61-1.649c.208-.524-.1.232.027-.068.052-.119.1-.238.158-.355.136-.287.275-.57.422-.852A38.775,38.775,0,0,1,52.463,12.76C59.05,7.079,67.556,4.531,76.134,4.069c7.887-.423,16.237,1.1,22.541,6.144,8.53,6.822,12.04,18.725,9.911,29.264-.508,2.513,3.347,3.588,3.857,1.063,2.193-10.854-.676-22.829-8.461-30.888C97.428,2.868,88.015.015,78.764,0,69.278-.015,59.444,2.391,51.81,8.182A39.1,39.1,0,0,0,37.353,29.4c-1.576,6.1-3.516,18.435,5.69,19.22,2.565.219,2.55-3.783,0-4Z"/><path class="b" d="M45.048,47.608a55.343,55.343,0,0,1,10.076-5.543A50.837,50.837,0,0,1,70.28,38.7c9.228-.676,19.012-.692,27.992,1.846a16.765,16.765,0,0,1,6.25,2.736,2.015,2.015,0,0,0,2.737-.718,2.047,2.047,0,0,0-.718-2.736,20.721,20.721,0,0,0-6.17-2.832A57.467,57.467,0,0,0,89,34.845a107.639,107.639,0,0,0-16.564-.278,58.95,58.95,0,0,0-16.812,3.051,57.893,57.893,0,0,0-12.592,6.536c-2.131,1.422-.131,4.888,2.019,3.454Z"/><path class="b" d="M42.255,47.914c.33,4.654,5.217,4.855,8.817,4.324,3.8-.559,7.375-2.006,11.136-2.732,6.63-1.28,13.6-1.418,20.34-1.437a67.4,67.4,0,0,1,18.541,2.472c2.592.725,6,1.58,8.415-.073,2.639-1.806,3.32-6,1.014-8.32-1.816-1.83-4.645,1-2.829,2.829.466.469.238,1.365-.122,1.862-.468.648-1.323.575-2.048.536-2.234-.12-4.456-1.038-6.616-1.552a70.393,70.393,0,0,0-16.786-1.751,138.326,138.326,0,0,0-17.923,1.079,102.28,102.28,0,0,0-10.947,2.573,19.86,19.86,0,0,1-5.135.772c-.2,0-.978-.068-.763-.034-.221-.035-.892-.23-.853-.217-.031-.011-.318-.217-.089.007a1.033,1.033,0,0,1-.17-.283c.142.582-.019-.572.018-.055-.181-2.554-4.182-2.574-4,0Z"/><path class="b" d="M69.682,76.082a12.778,12.778,0,0,0,6.155,1.434,10.113,10.113,0,0,0,6.3-1.9,2,2,0,0,0,0-2.828,2.061,2.061,0,0,0-2.828,0c.685-.534-.069.016-.289.131-.17.09-.636.23-.024.031-.17.056-.335.129-.5.184-.215.069-.434.128-.654.179-.118.028-.7.06-.76.144.068-.095.392-.045-.012-.005-.138.014-.277.025-.416.034-.335.022-.67.03-1,.028-.3,0-.6-.012-.9-.032-.137-.01-.275-.021-.412-.034l-.234-.026q-.234-.029.158.021a3.75,3.75,0,0,1-1.32-.294c-.185-.055-.366-.121-.548-.184-.463-.158.4.194-.019,0q-.339-.159-.671-.335a2,2,0,0,0-2.019,3.454Z"/><path class="b" d="M74.61,61.855a27.791,27.791,0,0,1,.654,2.992l-.071-.531a1.84,1.84,0,0,1,.011.413l.072-.532a1.011,1.011,0,0,1-.046.186l.2-.478a.692.692,0,0,1-.066.119l.313-.4a.636.636,0,0,1-.1.1l.405-.313a1.994,1.994,0,0,1-.237.126l.478-.2a1.8,1.8,0,0,1-.4.117l.532-.072a1.568,1.568,0,0,1-.375,0l.532.072c-.142-.02-.281-.054-.422-.073a1.512,1.512,0,0,0-.8-.036,1.486,1.486,0,0,0-.744.237,2,2,0,0,0-.718,2.737,1.918,1.918,0,0,0,1.2.919c.363.049.715.14,1.085.156a3.547,3.547,0,0,0,1.652-.4,2.487,2.487,0,0,0,1.347-1.627,3.881,3.881,0,0,0-.014-1.7c-.163-.965-.386-1.92-.634-2.866a2.06,2.06,0,0,0-.919-1.2,2.038,2.038,0,0,0-1.541-.2,2.017,2.017,0,0,0-1.2.919,2.1,2.1,0,0,0-.2,1.541Z"/><path class="b" d="M59.237,53.257c-.5,1.624-.174,5.359,2.9,5.677,4.067-.024,4.283-4.541,2.914-6.664C63.933,50.531,60.637,49.808,59.237,53.257Z"/><path class="b" d="M91.8,53.257c.5,1.624.174,5.359-2.9,5.677-4.066-.024-4.283-4.541-2.914-6.664C87.1,50.531,90.4,49.808,91.8,53.257Z"/></svg>