<?xml version="1.0" encoding="utf-8"?>
<!-- Uploaded to: SVG Repo, www.svgrepo.com, Generator: SVG Repo Mixer Tools -->
<svg width="800px" height="800px" viewBox="0 -17.21 370.339 370.339" xmlns="http://www.w3.org/2000/svg"><defs><style>.a{fill:#bce2ef;}.b{fill:#6dbf6b;}.c{fill:#f4b467;}.d{fill:#231815;}.e{fill:#211715;}.f{fill:#ffffff;}.g{fill:#d3d1d0;}.h{fill:#79c6e0;}.i{fill:#957f6e;}</style></defs><path class="a" d="M27.347,45.822c-.221,12.627.948,87.438,1.407,94.423C34.283,136.463,93.324,93.51,99.4,88.3c0-8.459-1.485-80.052-1.537-86.293C95.924,2.539,29.688,44.166,27.347,45.822Z"/><path class="b" d="M28.64,127.049c-.19-8.406-.405-20.379-.594-32.73l6.977-3.975c1.289-1.492,3.788-1.287,5.376-.118s2.5,3.014,3.415,4.762,1.969,3.552,3.694,4.507c2.762,1.529,6.185.388,9.332.645a10.482,10.482,0,0,1,7.682,4.457l4.68,4.5c-17.769,13.035-37.167,27.087-40.222,29.177C28.889,136.89,28.77,132.806,28.64,127.049Z"/><path class="c" d="M72.129,35.336c-7.558,2.659-11.337,9.553-11.337,18.335,0,13.234,10.217,14.7,15.256,13.156,6.3-2.519,11.337-4.96,11.337-18.195C87.385,39.851,78.928,33.347,72.129,35.336Z"/><path class="d" d="M71.6,33.407a18.489,18.489,0,0,0-9.191,7A22.86,22.86,0,0,0,58.85,51.819c-.445,6.927,1.874,14.177,8.9,16.7,4.9,1.762,10.03.358,14.283-2.348C88.154,62.282,89.8,54.6,89.355,47.75,88.8,39.23,80.507,30.959,71.6,33.407c-2.479.681-1.426,4.542,1.064,3.857,5.928-1.629,11.476,3.83,12.544,9.307a20.732,20.732,0,0,1,.042,5.6,21.935,21.935,0,0,1-.881,4.7,10.47,10.47,0,0,1-3.509,5.268,19.413,19.413,0,0,1-5.416,2.775,10.265,10.265,0,0,1-4.922.219A8.805,8.805,0,0,1,65.4,62.318c-1.762-1.948-2.459-4.866-2.584-7.5-.35-7.326,2.5-14.893,9.842-17.555C75.062,36.394,74.026,32.527,71.6,33.407Z"/><path class="d" d="M36.437,91.758c1.854-1.914,4.159,1.485,4.907,2.835,1.421,2.566,2.707,5.481,5.518,6.813,2.953,1.4,6.035.642,9.152.7a8.529,8.529,0,0,1,6.781,3.5,2.056,2.056,0,0,0,2.736.718,2.016,2.016,0,0,0,.717-2.737,12.632,12.632,0,0,0-8.306-5.311,25.174,25.174,0,0,0-5.286-.013c-1.583.089-3.37.19-4.693-.85a11.71,11.71,0,0,1-2.7-3.961,15.162,15.162,0,0,0-2.852-4.139c-2.394-2.238-6.351-2.918-8.8-.384-1.792,1.851,1.034,4.683,2.828,2.829Z"/><path class="e" d="M25.347,45.822c-.2,11.795.1,23.612.251,35.406q.3,23,.774,46c.095,4.333.1,8.689.382,13.017.09,1.4,1.671,2.644,3.009,1.727,8.313-5.7,16.383-11.772,24.526-17.7q17.716-12.9,35.319-25.965c3.514-2.623,7.058-5.222,10.47-7.978a2.805,2.805,0,0,0,1.325-2.311c.02-.636-.008-1.277-.015-1.913q-.031-3.021-.084-6.043-.332-21.158-.775-42.313c-.22-11.457-.473-22.914-.644-34.371-.007-.456-.014-.912-.018-1.367A2.02,2.02,0,0,0,97.336.078a13.125,13.125,0,0,0-2.692,1.414c-1.75,1.024-3.483,2.076-5.215,3.13Q81.14,9.665,72.913,14.806q-18.632,11.58-37.18,23.3c-3.131,1.978-6.365,3.863-9.4,5.994-2.09,1.47-.093,4.94,2.019,3.454,2.5-1.761,5.172-3.323,7.758-4.959q8.223-5.2,16.47-10.37C64.869,24.513,77.159,16.811,89.531,9.245c2.133-1.3,4.268-2.607,6.419-3.88.657-.388,1.313-.777,1.98-1.148.2-.112.407-.214.6-.329.477-.275-.238.078-.136.047L95.867,2.007c.086,9.86.354,19.721.544,29.579q.418,21.729.811,43.457c.075,4.418.181,8.838.182,13.257l.586-1.414c-.425.363-.862.711-1.3,1.058q-.416.328-.833.653-.234.183-.47.364l-.31.239q-2.838,2.18-5.709,4.319-8.02,6.009-16.106,11.933-17.611,12.957-35.327,25.77c-3.384,2.446-6.745,4.936-10.19,7.3l3.009,1.727c-.235-3.639-.252-7.3-.336-10.944q-.234-10.218-.4-20.436Q29.612,85.3,29.38,61.738c-.045-5.3-.124-10.612-.033-15.916C29.39,43.247,25.39,43.247,25.347,45.822Z"/><path class="e" d="M69.449,75.985c-.07,1.222-.056,2.448-.135,3.67a2,2,0,0,0,3.414,1.414,2.2,2.2,0,0,0,.586-1.414c.079-1.222.065-2.448.135-3.67a2,2,0,0,0-3.414-1.415,2.183,2.183,0,0,0-.586,1.415Z"/><path class="e" d="M83.841,73.845c.4,1.043.888,2.052,1.322,3.08l-.2-.477c.11.261.217.524.315.79a2.231,2.231,0,0,0,.92,1.2,2.038,2.038,0,0,0,1.541.2,2.017,2.017,0,0,0,1.2-.919,1.972,1.972,0,0,0,.2-1.541c-.434-1.179-.988-2.311-1.476-3.468l.2.478c-.056-.134-.111-.268-.163-.4a2.235,2.235,0,0,0-.919-1.2,2,2,0,0,0-2.737.718,1.955,1.955,0,0,0-.2,1.541Z"/><path class="e" d="M56.17,69.757c-.908.965-1.9,1.852-2.807,2.815a2.09,2.09,0,0,0-.585,1.415,2.228,2.228,0,0,0,.585,1.414,2.019,2.019,0,0,0,1.415.586,2.047,2.047,0,0,0,1.414-.586c.91-.963,1.9-1.85,2.807-2.815a2.091,2.091,0,0,0,.586-1.415,1.511,1.511,0,0,0-.173-.77A1.492,1.492,0,0,0,59,69.757a2.016,2.016,0,0,0-1.414-.586,2.042,2.042,0,0,0-1.415.586Z"/><path class="e" d="M48.671,61.738c1.114-.435,2.249-.813,3.379-1.2a2.132,2.132,0,0,0,1.2-.92,2.038,2.038,0,0,0,.2-1.541,2,2,0,0,0-2.46-1.4c-1.13.389-2.266.767-3.379,1.2a2.238,2.238,0,0,0-1.2.919,2,2,0,0,0,.717,2.736,1.949,1.949,0,0,0,1.541.2Z"/><path class="f" d="M368.266,270.264c-17.91,18.76-38.87,40.21-50.9,52.74,0,0-.27.28-.75.79.09-.76.17-1.57.23-2.45.57-8.61-2.25-30.45-2.8-33.64-.15-.87-.31-1.71-.47-2.53a62.281,62.281,0,0,0-3.02-10.74c-.04-.09-.07-.18-.11-.27-2.62-6.97-6.27-13.06-11.21-20.43-9.71-14.51-24.23-30.93-41.33-42.67-4.19-2.88-9.71-6.59-16.03-10.43-15.31-9.29-35.35-19.35-52.86-20.24a114.086,114.086,0,0,1-14.6-1.87c-17.5-3.22-38.21-9.62-56.44-12.59h-.02a76.327,76.327,0,0,0-9.23-1.38,72.716,72.716,0,0,0-8.26-.23c22.74-17.79,54.33-43.23,64.98-50.87,6.21,2.55,31.99,14.15,59.36,26.92l40.98,23.08c18.31,8.75,34.76,16.8,44.78,22.06,9.33,4.88,48.42,23.33,57.44,28.89,0,12.96.04,40.39.25,55.05C368.256,269.454,368.256,269.734,368.266,270.264Z"/><path class="g" d="M170.345,48.614a4.331,4.331,0,0,0-4.9,4.353c0,13.223,0,46.614,0,60.484,6.21,2.55,32,14.151,59.369,26.921l40.98,23.08c18.307,8.749,34.758,16.806,44.781,22.06,9.33,4.892,48.491,23.369,57.466,28.908,0-17.168.1-58.595.1-75.356a8.271,8.271,0,0,0-4.568-7.48C334.551,118.146,208.7,63.49,171.2,48.847A4.079,4.079,0,0,0,170.345,48.614Z"/><path class="e" d="M255.561,159.9c17.924,8.572,35.59,17.7,53.191,26.916,12.914,6.761,26.182,12.859,39.232,19.351,6.383,3.175,12.932,6.232,19.016,9.965l-.99-1.727c0,15.769.022,31.539.16,47.307q.024,2.715.056,5.428a6.429,6.429,0,0,1-.065,2.208c-.321.819-1.426,1.617-2.028,2.253q-4.818,5.082-9.67,10.132-9.881,10.3-19.825,20.538-9.351,9.653-18.685,19.322c-1.783,1.858,1.041,4.69,2.828,2.829,13.647-14.215,27.44-28.289,41.065-42.526q2.763-2.887,5.516-5.783c1.571-1.652,3.964-3.462,4.656-5.7.587-1.9.2-4.32.175-6.291q-.031-3.151-.054-6.3-.1-14.339-.115-28.676-.012-6.108-.014-12.216c0-.8.042-1.607,0-2.4a2.57,2.57,0,0,0-1.6-2.216c-.912-.542-1.84-1.058-2.771-1.568-5.839-3.192-11.815-6.139-17.778-9.092-12.036-5.962-24.259-11.591-36.168-17.8-15.878-8.286-31.787-16.519-47.879-24.384q-3.109-1.52-6.231-3.013c-2.311-1.1-4.342,2.342-2.018,3.454Z"/><path class="e" d="M102.707,165.087c18.192-14.245,36.165-28.773,54.448-42.9,3.07-2.373,6.146-4.742,9.3-7.008l-1.542.2.5.2a1.723,1.723,0,0,1,.224.094q.684.291,1.366.585,1.7.731,3.39,1.477,4.679,2.056,9.339,4.155,13.256,5.95,26.45,12.036Q215,137.993,223.8,142.1a2.057,2.057,0,0,0,2.736-.717,2.017,2.017,0,0,0-.717-2.737c-19-8.864-38.016-17.779-57.29-26.044-1.289-.553-2.88-1.615-4.231-.781-1.141.7-2.2,1.609-3.269,2.413-3,2.254-5.971,4.551-8.935,6.855-7.879,6.124-15.7,12.322-23.524,18.517q-14.331,11.346-28.692,22.654a2.01,2.01,0,0,0,0,2.828,2.049,2.049,0,0,0,2.828,0Z"/><path class="e" d="M316.132,265.828c12.093-11.073,23.846-22.515,35.8-33.734,2.563-2.4,5.13-4.8,7.741-7.155,1.918-1.726-.918-4.547-2.828-2.828-11.668,10.5-22.872,21.528-34.3,32.285q-4.6,4.328-9.242,8.6c-1.9,1.742.932,4.565,2.829,2.828Z"/><path class="e" d="M185.622,56.8c16.415,6.738,32.751,13.668,49.071,20.631q28.66,12.228,57.235,24.658,24.923,10.833,49.773,21.83,8.418,3.738,16.81,7.538c2.751,1.252,6.093,2.221,7.222,5.333.659,1.814.4,3.921.4,5.823q0,3.012-.006,6.022-.036,29.947-.095,59.894,0,2.685,0,5.37c0,2.573,4,2.578,4,0q0-29.652.089-59.3.009-6.345.014-12.69c0-2.2.124-4.42-.67-6.512a10.178,10.178,0,0,0-5.3-5.723c-4.959-2.317-9.968-4.533-14.967-6.764q-23.857-10.648-47.83-21.039-28.908-12.594-57.9-25c-17.178-7.348-34.373-14.658-51.638-21.8Q189.264,54,186.686,52.94a2.013,2.013,0,0,0-2.461,1.4,2.051,2.051,0,0,0,1.4,2.46Z"/><path class="e" d="M167.441,113.451q0-15.243,0-30.485,0-8.5,0-17c0-4.31-.241-8.7,0-13a2.421,2.421,0,0,1,2.094-2.405,4.513,4.513,0,0,1,1.936.531q1.2.472,2.407.951,5.885,2.339,11.74,4.753a2.012,2.012,0,0,0,2.46-1.4,2.049,2.049,0,0,0-1.4-2.46q-5.5-2.256-11.017-4.465c-2.953-1.177-6.092-2.911-9.152-1.006a6.54,6.54,0,0,0-2.845,3.8,13.28,13.28,0,0,0-.227,3.478V61.5l0,35.367q0,8.292,0,16.584c0,2.574,4,2.578,4,0Z"/><path class="e" d="M144.964,170.737a65.4,65.4,0,0,1,10.26-15.076c2.724-2.95,5.533-5.829,8.48-8.557,3.432-3.179,7.173-6.676,11.891-7.662,5.248-1.1,10.353.629,14.878,3.179,5.036,2.839,10.2,5.435,15.37,8.017,2.3,1.147,4.324-2.3,2.019-3.454-4.872-2.433-9.741-4.874-14.5-7.527-5.1-2.843-10.4-5.02-16.381-4.435a18.571,18.571,0,0,0-8.082,2.629,46.736,46.736,0,0,0-5.885,4.5,134.085,134.085,0,0,0-9.905,9.713,71.126,71.126,0,0,0-11.6,16.655c-1.155,2.293,2.3,4.321,3.454,2.019Z"/><path class="e" d="M252.6,170.866c6.239,3.225,12.317,6.776,18.386,10.308,7.064,4.112,14.1,8.285,21.044,12.592a92.279,92.279,0,0,1,16.324,12.2c4.9,4.817,6.245,12.92,4.254,19.762a28.843,28.843,0,0,1-3.6,7.647c-.664,1.02-1.38,2.009-2.121,2.973.347-.451-.269.309-.366.422-.252.292-.51.579-.77.865a92.8,92.8,0,0,1-10.968,10.288,2.013,2.013,0,0,0,0,2.829,2.051,2.051,0,0,0,2.829,0,95.168,95.168,0,0,0,10.317-9.586,37.638,37.638,0,0,0,7.037-10.362c3.529-7.952,3.551-17.318-1.328-24.737-1.97-2.995-4.976-5.3-7.754-7.5a102.638,102.638,0,0,0-8.664-6.274c-6.714-4.26-13.556-8.325-20.412-12.353-7.318-4.3-14.648-8.635-22.191-12.534-2.283-1.18-4.309,2.271-2.019,3.454Z"/><path class="e" d="M291.025,115.017C309.375,123,327.759,130.924,346,139.155c1.99.9,3.992,1.783,5.947,2.755,2.3,1.143,4.327-2.306,2.019-3.454-4.611-2.293-9.379-4.3-14.086-6.388Q326.2,126,312.471,120.031q-9.711-4.241-19.427-8.468a2.064,2.064,0,0,0-2.736.718,2.015,2.015,0,0,0,.717,2.736Z"/><path class="f" d="M290.264,70.81c2.028-3.28,4.987-5.854,7.772-8.521,2.15-2.059,4.314-4.371,4.915-7.287a32.157,32.157,0,0,0,.149-5.591A16.063,16.063,0,0,1,314.564,34.79c2.656-.731,6.335-.324,8.468,1.417a3.165,3.165,0,0,1,1.252,3.032,4.469,4.469,0,0,1,6.1,4.579,4.131,4.131,0,0,1,3.616.565,2.559,2.559,0,0,1,.611,3.377,3.791,3.791,0,0,1,3.137,3.4,4.806,4.806,0,0,1-2.154,4.261,5.714,5.714,0,0,1-1.514.723c-.091.741-.144,1.189-.144,1.189a6.738,6.738,0,0,1-3.029,4.387,14.045,14.045,0,0,1-6.173,2.508,5.647,5.647,0,0,0-2.6.734A9.564,9.564,0,0,0,320,66.837c-1.951,2.436-7.111,9.556-8.666,12.3l-2.763,4.15Z"/><path class="d" d="M317.794,51.118a6.57,6.57,0,0,0-.926.3,7.859,7.859,0,0,0-2.488,1.457,6.449,6.449,0,0,0-.729.683,2.1,2.1,0,0,0-.586,1.414,2.032,2.032,0,0,0,.586,1.414,2,2,0,0,0,2.828,0,6.767,6.767,0,0,1,.812-.748l-.4.313a6.713,6.713,0,0,1,1.45-.848l-.477.2a6.708,6.708,0,0,1,1-.328,2,2,0,0,0,1.4-2.46,2.022,2.022,0,0,0-.92-1.2,2.138,2.138,0,0,0-1.541-.2Z"/><path class="d" d="M324.761,41.188a2.559,2.559,0,0,1,3.624,2.63,2.02,2.02,0,0,0,2.532,1.929,2.112,2.112,0,0,1,1.849.2.54.54,0,0,1,.119.8,2.012,2.012,0,0,0,1.2,2.938c2.5.409,1.833,3.412-.031,4.329-1.885.928-5.848.418-5.517-2.349A2.008,2.008,0,0,0,326,49.741c-.736.277-2.02.092-1.87-1a2.037,2.037,0,0,0-2.46-2.46,1.631,1.631,0,0,1-1.59-1.132,2.015,2.015,0,0,0-2.737-.717,2.048,2.048,0,0,0-.717,2.736,5.544,5.544,0,0,0,6.108,2.97l-2.461-2.46a5.341,5.341,0,0,0,1.64,4.977,5.2,5.2,0,0,0,5.15.941l-2.531-1.929c-.336,2.808,1.721,5.172,4.193,6.156a8.866,8.866,0,0,0,7.615-.505,6.816,6.816,0,0,0,3.375-6.417,5.774,5.774,0,0,0-4.572-5.072l1.195,2.938a4.559,4.559,0,0,0-.648-5.539,6.037,6.037,0,0,0-5.838-1.34l2.532,1.928a6.544,6.544,0,0,0-8.687-6.487,2.051,2.051,0,0,0-1.4,2.461,2.017,2.017,0,0,0,2.46,1.4Z"/><path class="d" d="M291.991,71.819c2.4-3.793,6.024-6.465,9.049-9.714a15.832,15.832,0,0,0,3.511-5.412c.841-2.375.473-4.826.549-7.282.2-6.666,6.585-14.071,13.725-12.849,1.221.209,3.935.916,3.418,2.641-.578,1.934-3.155,2.743-4.932,2.435a2.058,2.058,0,0,0-2.46,1.4,2.016,2.016,0,0,0,1.4,2.46,8.927,8.927,0,0,0,7.458-1.8,6.208,6.208,0,0,0,2.423-6.348c-1.364-4.824-8.424-5.591-12.438-4.388A18.055,18.055,0,0,0,301.17,48.35c-.268,2.636.487,5.434-.754,7.9-1.288,2.559-3.624,4.458-5.665,6.4a38.469,38.469,0,0,0-6.213,7.154c-1.382,2.181,2.078,4.19,3.453,2.018Z"/><path class="d" d="M332.009,56.805c-.476,3.016-4.034,4.676-6.7,5.291-1.729.4-3.245.44-4.724,1.54a13.6,13.6,0,0,0-2.717,2.7A106.05,106.05,0,0,0,309.6,78.124c-1.284,2.236,2.171,4.253,3.454,2.019,1.173-2.043,2.56-3.972,3.921-5.892q1.2-1.686,2.422-3.349.5-.682,1.015-1.36c.321-.427.552-.731.73-.956a5.7,5.7,0,0,1,2.761-2.211,31.058,31.058,0,0,0,4.944-1.243c3.1-1.29,6.457-3.715,7.017-7.263a2.064,2.064,0,0,0-1.4-2.461,2.015,2.015,0,0,0-2.46,1.4Z"/><path class="h" d="M202.4,112.642c-2.58,2.7-4.691,1.994-4.457,5.16.152,2.045,1.558,3.567,2.7,5.278,1.95,2.929,5.428,4.441,8.885,5.051,9.712,1.716,23.4-2.789,25.049-10.122,3.92-1.47,7.46-3.085,9.235-4.524,20.664-16.532,30.583-27.277,47.941-48.768,5.27,5.269,14.348,12.531,19.838,18.185-8.136,12.2-34.968,46.843-51.483,64.745-3.617,3.921-5.045,9.2-6.6,17.875-2.6,12.593-5.273,25.753-7.395,37.742q-2.049-1.3-4.244-2.635c-15.31-9.29-35.35-19.35-52.86-20.24a114.086,114.086,0,0,1-14.6-1.87,107.747,107.747,0,0,0,1.525-18.05c.063-5.624.685-21.782,1.53-32.3l-.916-1.407c-8.3-12.741-20.466-38.312-29.437-61.191a1.686,1.686,0,0,1-.216-.829c.064-.435.489-.71.873-.926,7.331-4.138,12.645-6.815,19.977-10.953,2.547,5.95,9.8,21.536,13.408,27.8,3.579,6.21,9.465,15.969,14.14,22.324,0,0,1.093-.923,2.582-2.178a26.723,26.723,0,0,0,7.678,6.676,20.381,20.381,0,0,1-2.676,5.136"/><path class="f" d="M203.778,59.914c-5.187,3.077-9.544,5.736-10.6,6.393l-1.54.962c-4.517,23.962,6.588,36.8,15.354,40.978,7.716,3.675,22.371,2.955,31.392-3.723a31.515,31.515,0,0,0,5.648-5.415,26.1,26.1,0,0,0,1.593-2.335c.3.063.474.093.474.093a7.95,7.95,0,0,0,3.583-.216,9.5,9.5,0,0,0,3.606-2.122,12.357,12.357,0,0,0,3.917-6.744,3.611,3.611,0,0,0-2.3-4.422c-1.727-.78-3.976-.552-4.832.78A32.6,32.6,0,0,0,239.158,61.63c-.994-.877-2.119-1.829-2.276-3.146-.167-1.408.834-2.647,1.436-3.931s.543-3.237-.814-3.651c-1.789-.546-4.222,1.466-6.006,1.984-3.825,1.485-11.4,5.075-11.894,4.712-.341-.25-.865-5.745-.789-6.3C214.5,53.62,208.756,56.96,203.778,59.914Z"/><path class="i" d="M218.827,52.006a5.469,5.469,0,0,1-.012-.712C210,56.045,195.243,65.019,193.182,66.307l-.495.309c-.523-3.7-.689-6.937-.689-6.937a31.224,31.224,0,0,1,5.665-17.059,29.945,29.945,0,0,1,15.179-10.772,31.293,31.293,0,0,0-5.427-3.605c4.516-1.861,13.478-3.1,18.951-1.787,5.493,1.319,13.515,3.527,17.257,11.19,5.465.509,11.942,6.207,13.81,9.123a26.119,26.119,0,0,1,2.991,6.868,28.954,28.954,0,0,1,.852,8.188,36.114,36.114,0,0,1-1.235,9.79,59.175,59.175,0,0,1-2.921,8.4c-.44,1-.93,1.308-1.98,3.458-.076-.04-.154-.078-.233-.114a4.883,4.883,0,0,0-3.523-.212l-1.295.177-.4-2.749A32.754,32.754,0,0,0,239.158,61.63c-.994-.877-2.119-1.829-2.276-3.146-.167-1.408.834-2.647,1.436-3.931s.543-3.237-.814-3.651c-1.789-.546-4.222,1.466-6.006,1.984-3.825,1.485-11.4,5.075-11.894,4.712C219.324,57.393,218.92,53.646,218.827,52.006Z"/><path class="f" d="M164.94,54.857,162.6,49.268a2.878,2.878,0,0,1-.33-1.532,3.64,3.64,0,0,1,.685-1.336c1.239-1.908,1.441-4.287,1.564-6.559a24.16,24.16,0,0,0-.238-6.251c-.787-3.784-3.436-8.177-6.88-9.932-1.6-.813-3.97-1.3-5.116.154a3.86,3.86,0,0,0-.659,3.284l-1.539-.232a4.562,4.562,0,0,0-8.4,1.313,4.2,4.2,0,0,0-3.676-.57,2.6,2.6,0,0,0-1.634,3.082,3.853,3.853,0,0,0-4.089,2.327,4.888,4.888,0,0,0,.771,4.792q.151.193.32.372c-.431,1.139-.713,1.879-.713,1.879-.889,2.334,1.923,6.36,3.111,7.778a16.137,16.137,0,0,0,5.972,4,5.71,5.71,0,0,1,2.368,1.362,9.606,9.606,0,0,1,1.637,2.364,52.2,52.2,0,0,1,3.262,8.268Z"/><path class="d" d="M151.812,25.855a6.573,6.573,0,0,0-12.058,1.79l2.938-1.2a6.03,6.03,0,0,0-6.066-.388,4.62,4.62,0,0,0-2.182,5.158l2.46-2.46a5.9,5.9,0,0,0-6.347,3.247,6.942,6.942,0,0,0,1.4,7.574c3.433,3.673,11.817,3.906,12.966-2.081l-3.343.882a5.393,5.393,0,0,0,5.181,1.091,5.254,5.254,0,0,0,3.422-3.984l-2.938,1.2a5.433,5.433,0,0,0,6.723-8.372,2.011,2.011,0,0,0-2.828,0,2.049,2.049,0,0,0,0,2.829c.979,1.238-.676,2.709-1.876,2.089a2.021,2.021,0,0,0-2.938,1.2c-.147.849-.992,1.861-1.918,1.129-1.063-.841-3.029-.753-3.342.883-.51,2.659-4.356,1.982-5.9.693a3.129,3.129,0,0,1-1.146-2.982c.17-.747.979-1.654,1.827-1.531a2.029,2.029,0,0,0,2.46-2.46c-.331-1.219,1.884-.546,2.372-.253a2.019,2.019,0,0,0,2.938-1.2,2.593,2.593,0,0,1,4.747-.835c1.365,2.175,4.828.17,3.454-2.019Z"/><path class="d" d="M130.734,39.528c-.757,2.34.4,4.9,1.591,6.882a16.32,16.32,0,0,0,5.02,5.372,22.533,22.533,0,0,0,3.868,1.98,4.692,4.692,0,0,1,2.46,2.134,36.516,36.516,0,0,1,3.411,8.462c.7,2.473,4.56,1.422,3.857-1.063a57.133,57.133,0,0,0-3.2-8.166,12.261,12.261,0,0,0-2.215-3.349,9.755,9.755,0,0,0-3.444-1.965,13.388,13.388,0,0,1-5.417-4.073c-.928-1.3-2.58-3.589-2.075-5.151.793-2.455-3.068-3.507-3.857-1.063Z"/><path class="d" d="M166.868,54.326c-.75-1.792-1.509-3.58-2.251-5.375-.4-.976-.355-.846.167-1.712a10.53,10.53,0,0,0,1.116-2.671,24.731,24.731,0,0,0,.643-5.209,25.7,25.7,0,0,0-.29-6.064c-1.035-5.467-5.956-13.056-12.386-12.369a4.765,4.765,0,0,0-4.083,3.414c-.642,2,0,4.04.857,5.861a2.018,2.018,0,0,0,2.737.718,2.046,2.046,0,0,0,.717-2.737c-.365-.778-1.152-2.733,0-3.263,1-.461,2.729.634,3.476,1.19a13.561,13.561,0,0,1,4.707,7.677,21.547,21.547,0,0,1,.24,6.055,12.841,12.841,0,0,1-.895,4.858,19.971,19.971,0,0,0-1.181,2.146,4.239,4.239,0,0,0,.228,2.955c.731,1.88,1.563,3.728,2.342,5.589a2.069,2.069,0,0,0,2.461,1.4,2.011,2.011,0,0,0,1.4-2.46Z"/><path class="f" d="M198.379,119.516a5.356,5.356,0,0,1-.432-1.714c-.228-3.079,1.762-2.5,4.25-4.94a17.952,17.952,0,0,0,3.359-5.373c.484.281.965.532,1.44.758,5.34,2.543,14,2.982,21.823.8-.352,5.709-.294,9.328,1.39,14.758-5.21,3.7-13.91,5.525-20.679,4.329-3.457-.61-6.935-2.122-8.885-5.051A23.515,23.515,0,0,1,198.379,119.516Z"/><path class="d" d="M255.444,166.054a64.887,64.887,0,0,1,2.792-11.47,21.592,21.592,0,0,1,4.628-6.987c4.591-5.055,9.017-10.259,13.379-15.511q14-16.857,27.154-34.4c3.394-4.525,6.781-9.07,9.923-13.775a2.024,2.024,0,0,0-.312-2.424c-6.272-6.425-13.477-11.854-19.838-18.184a2.013,2.013,0,0,0-2.829,0c-6.8,8.415-13.694,16.775-21.161,24.612a250.582,250.582,0,0,1-22.441,20.639,39.831,39.831,0,0,1-6.872,5.02,69.418,69.418,0,0,1-9.737,3.89c-2.428.815-1.386,4.679,1.064,3.857a90.871,90.871,0,0,0,9.116-3.53,30.136,30.136,0,0,0,6.456-4.128c4.369-3.525,8.672-7.134,12.846-10.888A241.23,241.23,0,0,0,280.46,81.421c4.343-5.007,8.544-10.135,12.71-15.29h-2.829c6.361,6.331,13.566,11.759,19.838,18.185l-.313-2.424c-6.52,9.764-13.821,19.047-21.064,28.277-8.984,11.449-18.145,22.8-27.883,33.623-2.327,2.586-4.543,5.011-5.938,8.248a58.647,58.647,0,0,0-3.395,12.95,2.057,2.057,0,0,0,1.4,2.46,2.017,2.017,0,0,0,2.461-1.4Z"/><path class="d" d="M200.99,111.228c-1.136,1.138-2.7,1.691-3.809,2.829a5.344,5.344,0,0,0-1.038,5.069c.5,2.063,1.959,3.908,3.216,5.57a12.71,12.71,0,0,0,4.658,3.759c6.737,3.232,15.412,2.442,22.186-.3,3.542-1.431,6.937-3.463,9.075-6.719,1.417-2.158-2.045-4.164-3.454-2.018-2.892,4.4-9.354,6.254-14.274,6.854a24.412,24.412,0,0,1-8.967-.393,12.652,12.652,0,0,1-4.42-1.977,14.114,14.114,0,0,1-3.076-3.677,6.082,6.082,0,0,1-1.113-2.3,3.153,3.153,0,0,1-.038-.851c.035-.333-.047-.087.15-.273.182-.173.927-.571,1.312-.815a13.99,13.99,0,0,0,2.42-1.938c1.821-1.824-1.006-4.654-2.828-2.828Z"/><path class="d" d="M203.622,106.972q-.185.5-.391.992l.2-.478a17.817,17.817,0,0,1-2.118,3.929l.313-.405c-.051.065-.1.128-.157.191a2.126,2.126,0,0,0-.586,1.414,2.036,2.036,0,0,0,.586,1.414,2.012,2.012,0,0,0,1.414.586,1.981,1.981,0,0,0,1.414-.586,13.2,13.2,0,0,0,1.676-2.579,29.92,29.92,0,0,0,1.506-3.415,2,2,0,0,0-2.938-2.258,2.258,2.258,0,0,0-.92,1.195Z"/><path class="d" d="M226.741,110.378a40.009,40.009,0,0,0,1.215,12.88,2,2,0,1,0,3.857-1.064,29.509,29.509,0,0,1-1.064-5.681,47.935,47.935,0,0,1-.008-6.135,2.014,2.014,0,0,0-2-2,2.045,2.045,0,0,0-2,2Z"/><path class="e" d="M214.583,76.592c-.46.723-.9,1.462-1.294,2.224a3.792,3.792,0,0,0-.484,1.578,2.428,2.428,0,0,0,.8,1.893,3.639,3.639,0,0,0,1.43.832,6.491,6.491,0,0,0,1.023.153l-.532-.071.067.01a2.244,2.244,0,0,0,1.541-.2,2,2,0,0,0,.717-2.737,1.954,1.954,0,0,0-1.195-.919c-.281-.049-.566-.075-.85-.113l.532.072a1.662,1.662,0,0,1-.368-.1l.477.2a1.625,1.625,0,0,1-.321-.19l.405.313a1.829,1.829,0,0,1-.231-.218l.313.405a.393.393,0,0,1-.049-.084l.2.478a.6.6,0,0,1-.035-.137l.071.531a1.027,1.027,0,0,1,0-.147l-.071.531a1.4,1.4,0,0,1,.09-.3l-.2.478a12.971,12.971,0,0,1,.7-1.291q.346-.592.713-1.172a2,2,0,0,0-.717-2.736,2.013,2.013,0,0,0-1.541-.2,2.158,2.158,0,0,0-1.2.919Z"/><path class="e" d="M251.916,85.08a2.693,2.693,0,0,1,2.027.041,2.893,2.893,0,0,1,1.239.984c.222.373.012-.182.1.2a1.266,1.266,0,0,1,.053.489,5.485,5.485,0,0,1-.195,1.1c-.109.421-.246.831-.395,1.239a1.049,1.049,0,0,1-.138.322c-.111.229-.222.457-.344.681a9.531,9.531,0,0,1-1.343,1.94,12.262,12.262,0,0,1-1.722,1.605,6.594,6.594,0,0,1-2.15,1.078,5.829,5.829,0,0,1-2.409.186,2.062,2.062,0,0,0-2.46,1.4,2.015,2.015,0,0,0,1.4,2.46,10.29,10.29,0,0,0,7.731-1.73,14.623,14.623,0,0,0,4.8-5.7c1.116-2.447,1.944-5.466.163-7.807a6.861,6.861,0,0,0-7.413-2.339,2.043,2.043,0,0,0-1.4,2.46,2.02,2.02,0,0,0,2.46,1.4Z"/><path class="e" d="M243.8,39.665c3.632.676,6.891,2.939,9.535,5.438a19.324,19.324,0,0,1,5.225,9.285,26.234,26.234,0,0,1,.721,6.984,37.286,37.286,0,0,1-.489,6.675,47.2,47.2,0,0,1-1.707,6.5,24.2,24.2,0,0,1-2.427,5.726c-1.421,2.156,2.041,4.162,3.454,2.019a24.07,24.07,0,0,0,2.273-5.084,55,55,0,0,0,1.647-5.292A44.065,44.065,0,0,0,263.263,60,28.847,28.847,0,0,0,260.6,48.405a20.855,20.855,0,0,0-5.72-7.267c-2.88-2.419-6.269-4.632-10.023-5.33-2.516-.469-3.595,3.386-1.063,3.857Z"/><path class="e" d="M212.311,29.919a32.149,32.149,0,0,0-16.263,11.538A33.133,33.133,0,0,0,190,59.679c-.1,2.575,3.9,2.571,4,0a29.426,29.426,0,0,1,5.308-15.931,27.609,27.609,0,0,1,14.068-9.972c2.445-.776,1.4-4.639-1.063-3.857Z"/><path class="e" d="M230.967,50.958c-3.533,1.382-6.937,3.114-10.51,4.39-.244.087-.5.152-.74.244a2,2,0,0,0-.305.076c.764-.464,2.038,2.048,2.01,1.163a14.771,14.771,0,0,0-.278-1.5,19.636,19.636,0,0,1-.329-4.038c.133-1.586-1.776-2.393-3.009-1.727-8.7,4.7-17.242,9.779-25.633,15.013-2.18,1.36-.174,4.822,2.019,3.454,8.391-5.235,16.93-10.314,25.633-15.013l-3.01-1.727a23.6,23.6,0,0,0,.465,5.059c.261,1.838.929,3.647,3.2,3.172a29.283,29.283,0,0,0,5.269-2.048c2.091-.9,4.166-1.833,6.285-2.662a2.061,2.061,0,0,0,1.4-2.461,2.015,2.015,0,0,0-2.46-1.4Z"/><path class="e" d="M232.03,54.815c1.449-.473,2.709-1.426,4.159-1.864.226-.068.59-.06.784-.12-.45.141-.105-.714-.281-.037a6.589,6.589,0,0,1-.274,1.1c-.757,1.717-1.833,3.128-1.464,5.123.331,1.794,1.644,3,2.94,4.162a31.236,31.236,0,0,1,9.864,17.933,2.018,2.018,0,0,0,2.46,1.4,2.046,2.046,0,0,0,1.4-2.461,35.453,35.453,0,0,0-11.454-20.2c-.488-.44-1.29-1.017-1.3-1.747-.006-.752.691-1.558,1.008-2.192a5.721,5.721,0,0,0,.407-4.935,3.876,3.876,0,0,0-4.51-2.046c-1.738.324-3.15,1.487-4.8,2.027-2.437.8-1.394,4.659,1.063,3.857Z"/><path class="e" d="M245.31,36.555c-3.338-6.566-9.911-9.84-16.754-11.616a32.063,32.063,0,0,0-10.689-.905,37.382,37.382,0,0,0-10.984,2.28c-1.479.595-2.132,2.763-.477,3.656a27.826,27.826,0,0,1,5.022,3.292c1.94,1.675,4.781-1.142,2.829-2.828a32.443,32.443,0,0,0-5.832-3.918l-.478,3.655a32.187,32.187,0,0,1,19.282-1.442c5.977,1.527,11.7,4.082,14.627,9.845,1.167,2.3,4.62.273,3.454-2.019Z"/><path class="e" d="M229.561,79.025a3.966,3.966,0,0,1,.783-.2l-.532.072a4.341,4.341,0,0,1,1.15,0l-.531-.071a4.722,4.722,0,0,1,1.118.309l-.478-.2a4.556,4.556,0,0,1,.943.543l-.4-.312a4.189,4.189,0,0,1,.719.708l-.313-.405a4.119,4.119,0,0,1,.264.391,2.079,2.079,0,0,0,1.195.919,2,2,0,0,0,2.259-2.938,6.262,6.262,0,0,0-3.345-2.649,5.9,5.9,0,0,0-3.892-.023,2.156,2.156,0,0,0-1.2.919,2,2,0,0,0,.717,2.737,1.97,1.97,0,0,0,1.542.2Z"/><path class="e" d="M211.628,69.721a5.935,5.935,0,0,0-1.56-1.548,5.431,5.431,0,0,0-1.648-.737,5.492,5.492,0,0,0-1.781-.2,5.912,5.912,0,0,0-2.181.574,2.01,2.01,0,0,0-.919,1.2,2.042,2.042,0,0,0,.2,1.541,2.021,2.021,0,0,0,1.2.919l.531.072a1.991,1.991,0,0,0,1.01-.273c.035-.017.071-.034.108-.049l-.478.2a3.476,3.476,0,0,1,.856-.231l-.532.072a3.92,3.92,0,0,1,.956,0l-.532-.071a4.07,4.07,0,0,1,.987.265l-.478-.2a3.908,3.908,0,0,1,.83.476l-.405-.313a3.511,3.511,0,0,1,.592.583l-.313-.405c.036.047.072.095.106.143a2.15,2.15,0,0,0,1.195.919,2.042,2.042,0,0,0,1.541-.2,2.017,2.017,0,0,0,.919-1.195,1.973,1.973,0,0,0-.2-1.542Z"/><path class="d" d="M189.871,65.927c-2.589,13.1-1.429,27.7,8.006,37.937a25.6,25.6,0,0,0,11.6,7.43,37.439,37.439,0,0,0,20.7-.563c7.832-2.395,15.043-7.8,18.4-15.414a2.064,2.064,0,0,0-.717-2.737,2.017,2.017,0,0,0-2.737.718c-5.322,12.063-20.333,17.093-32.665,14.6-9-1.818-15.37-9.42-18.09-17.991-2.352-7.412-2.135-15.357-.641-22.918.5-2.515-3.357-3.591-3.857-1.064Z"/><path class="d" d="M208.111,98.54a5.47,5.47,0,0,0,9.1-.3c2.118-3.517.664-6.113-.483-7.727-1.446-1.368-4.5-2.065-5.924-1.367C208.451,90.3,205.938,95.423,208.111,98.54Z"/><path class="d" d="M176.235,120.975c-.985,6.99-1.28,14.1-1.631,21.14-.337,6.74-.553,13.479-.694,20.226a123.177,123.177,0,0,1-1.423,15.647,2.066,2.066,0,0,0,1.4,2.46,2.015,2.015,0,0,0,2.46-1.4,128.673,128.673,0,0,0,1.48-13.817c.135-3.368.139-6.74.245-10.109.238-7.588.587-15.178,1.1-22.753.136-2.01.284-4.019.464-6.025.073-.81.15-1.62.237-2.429.039-.359.079-.718.122-1.077.02-.167.04-.334.061-.5.063-.5-.009.051.041-.3a2.068,2.068,0,0,0-1.4-2.46,2.013,2.013,0,0,0-2.46,1.4Z"/><path class="d" d="M251.586,164.99c-2.483,12.027-4.937,24.061-7.111,36.148a2.057,2.057,0,0,0,1.4,2.461,2.018,2.018,0,0,0,2.46-1.4c2.174-12.087,4.628-24.122,7.112-36.148.518-2.513-3.336-3.587-3.858-1.064Z"/><path class="d" d="M197.027,101.972c-9.264-12.646-16.677-26.49-23.279-40.666-1.46-3.135-2.906-6.278-4.27-9.456a2.02,2.02,0,0,0-2.736-.718c-5.917,3.335-11.94,6.474-17.875,9.775-1.341.746-3.236,1.437-3.784,3-.536,1.532.507,3.215,1.068,4.622q1.888,4.738,3.874,9.435c5.044,11.961,10.451,23.792,16.481,35.291,2.589,4.936,5.285,9.834,8.322,14.511,1.4,2.152,4.861.149,3.454-2.018a205.773,205.773,0,0,1-11-19.733c-4.307-8.567-8.316-17.285-12.108-26.091q-1.62-3.762-3.178-7.55-.756-1.841-1.5-3.686-.408-1.015-.812-2.034a14.845,14.845,0,0,1-.745-1.683l-.514.882a9.186,9.186,0,0,1,2.46-1.493q1.2-.666,2.4-1.325,2.55-1.4,5.114-2.773c3.466-1.869,6.929-3.743,10.36-5.677l-2.736-.718a285.467,285.467,0,0,0,19.31,37.687c2.613,4.228,5.3,8.424,8.238,12.436a2.059,2.059,0,0,0,2.736.717,2.014,2.014,0,0,0,.718-2.736Z"/><path class="e" d="M314.11,335.309c3.5-3.709,4.416-9.053,4.736-13.965a98.629,98.629,0,0,0-.617-15.044c-.938-10.521-1.858-21.378-5.385-31.4A92.838,92.838,0,0,0,302.471,255a183.641,183.641,0,0,0-12.828-17.315,163.65,163.65,0,0,0-34.111-30.651c-12.938-8.723-26.478-16.8-41.034-22.53a88.146,88.146,0,0,0-21.765-5.789c-3.776-.45-7.576-.539-11.348-1.063-3.881-.539-7.735-1.266-11.57-2.066-15.76-3.289-31.224-7.889-47.059-10.836-7.837-1.459-15.874-2.62-23.866-2.346a63.983,63.983,0,0,0-22.953,5.517,177.41,177.41,0,0,0-21.022,11.264c-5.771,3.45-11.492,6.99-17.062,10.759A251.342,251.342,0,0,0,8.742,213.3q-4.1,3.773-8.13,7.629c-1.867,1.78.964,4.6,2.828,2.829,9.325-8.889,18.839-17.627,29.223-25.277a316.222,316.222,0,0,1,33.663-21.319c6.888-3.838,14.06-7.28,21.737-9.213,7.442-1.875,15.035-1.838,22.624-1.011,15.681,1.708,31,6.154,46.3,9.831,7.342,1.764,14.721,3.456,22.193,4.572,7.329,1.095,14.684,1.153,21.9,2.98C215.626,188,229.193,195.2,241.912,203c12.9,7.917,25.122,16.6,35.761,27.435a164.338,164.338,0,0,1,26.44,34.9,70.091,70.091,0,0,1,7.582,20.613c.734,3.724,1.134,7.256,1.572,11.032.632,5.448,1.184,10.913,1.486,16.39.287,5.211.475,10.728-1.392,15.694a9.749,9.749,0,0,1-2.079,3.411c-1.766,1.872,1.057,4.706,2.828,2.829Z"/></svg>