<?xml version="1.0" encoding="utf-8"?>
<!-- Uploaded to: SVG Repo, www.svgrepo.com, Generator: SVG Repo Mixer Tools -->
<svg width="800px" height="800px" viewBox="-149.14 0 435.43 435.43" xmlns="http://www.w3.org/2000/svg"><defs><style>.a{fill:#957f6e;}.b{fill:#ffffff;}.c{fill:#211715;}.d{fill:#bdbdbd;}.e{fill:#7a7473;}.f{fill:none;}</style></defs><path class="a" d="M104.351,48.826a98.988,98.988,0,0,0-.191-13.346c-.61-8.564-4.439-18.127-9.948-23.442-2.382-2.3-3.074-3.37-5.667-4.778L82.323,4.223c-3.83-1.475-7.391-2.185-14.111-2.185a39.181,39.181,0,0,0-25.177,9.843c-7.22,6.911-11.8,19.537-11.222,36.945l0,0c0,12.68-.97,21.84-2.32,27.04a64.75,64.75,0,0,0-1.74,13.1,10.091,10.091,0,0,0,1.43,5.12s9.49,9.632,37.934,9.632,40.506-9.042,40.506-9.042a10.8,10.8,0,0,0,2.73-6.94,30.885,30.885,0,0,0-1.7-9.9c-1.4-4.36-4.11-13.21-4.31-29.01Z"/><path class="b" d="M87.088,86.758c-2.36-1.62-4.53-3.35-5.01-4.54-.04-.1-.07-.19-.11-.289,6.51-3.482,11.628-12.1,12.563-14.635.149-.452.452-1.3.722-2.314.36-.059.565-.09.565-.09a7.093,7.093,0,0,0,3.3-1.485,10.675,10.675,0,0,0,2.763-3.627,16.806,16.806,0,0,0,1.714-8.912A5.583,5.583,0,0,0,103,48.609a4.05,4.05,0,0,0-6.975.1,24.686,24.686,0,0,1-8.188-6.721c-4.107-4.907-5.281-8.325-6.04-11.775-3.605,3.713-11.635,7.877-18.784,9.827-1.106.3-1.676.408-2.781.618a33.721,33.721,0,0,1-3.744.576,69.86,69.86,0,0,1-7.1,4.024A60.506,60.506,0,0,1,40.959,48.4a4.058,4.058,0,0,0-6.79.209,5.615,5.615,0,0,0-.587,2.257A16.816,16.816,0,0,0,35.3,59.778a10.69,10.69,0,0,0,2.764,3.627,7.084,7.084,0,0,0,3.294,1.485l1.074.165a28.6,28.6,0,0,0,5.449,10.637,24.458,24.458,0,0,0,8.39,6.71c-.019.047-.029.1-.049.136-.43,1.08-2.43,2.61-4.74,4.1,0,0-11.708,25.5,15.625,25.5S87.088,86.758,87.088,86.758Z"/><path class="b" d="M68.549,101.229a41.408,41.408,0,0,1-12.411-2.283l-.289-.086C59.223,110,63.707,124.8,64.97,128.852c1.285,4.124,2.483,8.255,3.937,12.338,4.237-10.166,8.072-20.242,13.349-35.042.841-2.359,1.625-4.7,2.333-6.918l-.45.117a58.872,58.872,0,0,1-13.435,1.93C70.026,101.279,69.3,101.263,68.549,101.229Z"/><path class="c" d="M98.2,49.11a2.13,2.13,0,0,1,3.007.4,4.605,4.605,0,0,1,.438,2.339,14.089,14.089,0,0,1-.2,2.886c-.626,3.427-2.352,7.547-6.164,8.23a2.018,2.018,0,0,0-1.4,2.461,2.045,2.045,0,0,0,2.46,1.4c5.953-1.068,8.8-7.782,9.244-13.178.232-2.8-.017-5.961-2.435-7.769a6.235,6.235,0,0,0-7.786.41,2.015,2.015,0,0,0,0,2.828,2.043,2.043,0,0,0,2.828,0Z"/><path class="c" d="M93.775,61.761A15.72,15.72,0,0,1,92.856,66c-.062.191-.488,1.3-.215.686q-.2.449-.418.888a36.053,36.053,0,0,1-3.106,4.993c-2.687,3.684-6.338,7.591-10.934,8.669-2.505.588-1.445,4.445,1.063,3.857,5.573-1.308,9.894-5.86,13.172-10.3,2.829-3.829,5.16-8.17,5.357-13.036.1-2.574-3.9-2.569-4,0Z"/><path class="c" d="M41.8,46.282a6.239,6.239,0,0,0-7.786-.41c-2.42,1.8-2.666,4.975-2.434,7.769.448,5.4,3.29,12.11,9.244,13.178a2.057,2.057,0,0,0,2.46-1.4,2.018,2.018,0,0,0-1.4-2.461c-3.812-.683-5.538-4.8-6.164-8.23a13.949,13.949,0,0,1-.2-2.723,5.385,5.385,0,0,1,.372-2.39,2.114,2.114,0,0,1,3.075-.508,2.054,2.054,0,0,0,2.828,0,2.015,2.015,0,0,0,0-2.828Z"/><path class="c" d="M39.6,61.553a32.8,32.8,0,0,0,7,15.7c3.943,4.668,9.164,8.026,15.309,8.689a2.013,2.013,0,0,0,2-2,2.047,2.047,0,0,0-2-2c-5.191-.56-9.519-3.905-12.738-7.826a29.144,29.144,0,0,1-5.71-13.63,2.016,2.016,0,0,0-2.46-1.4,2.044,2.044,0,0,0-1.4,2.46Z"/><path class="c" d="M82.855,2.3A40.1,40.1,0,0,0,66.026.112,41.533,41.533,0,0,0,48.038,5.75a31.834,31.834,0,0,0-10.273,9.282,42.371,42.371,0,0,0-6.142,14.235,65.763,65.763,0,0,0-1.586,10.022c-.156,1.831-.241,3.667-.266,5.5q-.02,1.562.016,3.122c.023.994.012,2.092,1.02,2.64l-.99-1.727a158.319,158.319,0,0,1-1.066,20.129c-.668,5.168-2.139,10.157-2.691,15.354-.4,3.791-.53,7.35,1.4,10.787,1.26,2.245,4.716.231,3.454-2.019-1.871-3.333-1.087-7.5-.563-11.118.45-3.1,1.3-6.1,1.838-9.179a141.259,141.259,0,0,0,1.628-23.954,2,2,0,0,0-.991-1.727h0l.99,1.726c-.32-10.445.926-21.7,6.685-30.7,5.134-8.02,14.926-12.923,24.234-13.906A37.271,37.271,0,0,1,81.791,6.152a2.016,2.016,0,0,0,2.461-1.4,2.045,2.045,0,0,0-1.4-2.46Z"/><path class="c" d="M87.536,8.987A26.183,26.183,0,0,1,94,14.711a30.64,30.64,0,0,1,4.9,7.923c2.493,5.6,3.282,11.488,3.524,17.549.134,3.353-.086,6.7.011,10.042.1,3.377.321,6.752.707,10.109a87.683,87.683,0,0,0,2.721,14.16c1.609,5.617,4.676,12.7.386,17.844-1.638,1.963,1.177,4.807,2.829,2.828a13.788,13.788,0,0,0,3.253-10.176,40.417,40.417,0,0,0-2.011-9.561,82.03,82.03,0,0,1-2.882-12.788c-.483-3.347-.758-6.728-.916-10.106-.171-3.681.055-7.346-.052-11.028-.19-6.495-.853-12.856-3.291-18.941A37.64,37.64,0,0,0,97.525,12.7a29.249,29.249,0,0,0-7.97-7.168c-2.252-1.252-4.272,2.2-2.019,3.454Z"/><path class="c" d="M63.961,31.951C58.032,39.561,48.744,43.758,39.868,46.9c-2.41.852-1.372,4.718,1.064,3.857C50.409,47.4,60.454,42.911,66.79,34.779a2.065,2.065,0,0,0,0-2.828,2.014,2.014,0,0,0-2.829,0Z"/><path class="c" d="M56.542,43.227A48.952,48.952,0,0,0,71.206,39.2c4.252-1.856,8.584-4.185,11.909-7.477,1.832-1.814-1-4.642-2.829-2.828-2.98,2.951-6.909,4.988-10.706,6.678a43.138,43.138,0,0,1-13.038,3.65,2.058,2.058,0,0,0-2,2,2.014,2.014,0,0,0,2,2Z"/><path class="c" d="M97.8,47.318a24.145,24.145,0,0,1-9.322-7.7,23.7,23.7,0,0,1-4.631-9.4c-.6-2.5-4.457-1.443-3.857,1.063a28.263,28.263,0,0,0,5.45,10.9c2.782,3.561,6.134,6.8,10.341,8.6a2.068,2.068,0,0,0,2.736-.718,2.014,2.014,0,0,0-.717-2.736Z"/><path class="c" d="M52.487,88.365a33.925,33.925,0,0,0,3.566-2.589A6.607,6.607,0,0,0,58.2,82.93a2,2,0,1,0-3.857-1.063c-.02.06-.041.119-.065.177l.2-.478a2.825,2.825,0,0,1-.341.559l.313-.405a10.373,10.373,0,0,1-1.893,1.768l.4-.313c-.8.617-1.64,1.187-2.491,1.736a2.114,2.114,0,0,0-.919,1.2,2.043,2.043,0,0,0,.2,1.541,2,2,0,0,0,2.736.717Z"/><path class="c" d="M80.039,82.46a7.383,7.383,0,0,0,.462,1.069,7.5,7.5,0,0,0,.634.868,10.081,10.081,0,0,0,1.175,1.208,37.335,37.335,0,0,0,3.768,2.88,2,2,0,0,0,2.938-2.258,2.23,2.23,0,0,0-.919-1.2c-.694-.477-1.379-.967-2.047-1.481l.405.313a13.988,13.988,0,0,1-2.529-2.343l.313.405a3.394,3.394,0,0,1-.417-.674l.2.477c-.046-.109-.085-.221-.128-.331a2.169,2.169,0,0,0-.919-1.2,2.043,2.043,0,0,0-1.541-.2,2.017,2.017,0,0,0-1.2.919,1.952,1.952,0,0,0-.2,1.541Z"/><path class="c" d="M67.529,61.659A16.423,16.423,0,0,1,68.134,64l-.072-.532a1.137,1.137,0,0,1,.008.267l.072-.531a.674.674,0,0,1-.035.139l.2-.477a.623.623,0,0,1-.051.091l.312-.405a.467.467,0,0,1-.077.077l.405-.313a1.151,1.151,0,0,1-.175.089l.477-.2a1.816,1.816,0,0,1-.423.116l.532-.071a1.766,1.766,0,0,1-.411-.005l.532.072c-.289-.04-.577-.089-.867-.122a2.216,2.216,0,0,0-1.414.586,2,2,0,0,0,0,2.828l.405.313a1.987,1.987,0,0,0,1.009.273l.057.007-.531-.071a9.072,9.072,0,0,0,.984.129,3.05,3.05,0,0,0,1.139-.177,2.87,2.87,0,0,0,1.138-.647,2.463,2.463,0,0,0,.614-1.027,3.038,3.038,0,0,0,.014-1.547,19.789,19.789,0,0,0-.591-2.259,2.1,2.1,0,0,0-.92-1.195,2,2,0,0,0-2.938,2.258Z"/><path class="c" d="M76.442,57.107a5.573,5.573,0,0,0,7.621,0,2,2,0,1,0-2.828-2.829,3.2,3.2,0,0,1-.291.255l.4-.312a3.358,3.358,0,0,1-.7.4l.477-.2a3.75,3.75,0,0,1-.845.23l.532-.072a4.26,4.26,0,0,1-1.128,0l.531.072a3.756,3.756,0,0,1-.844-.23l.478.2a3.351,3.351,0,0,1-.7-.4l.405.312a3.057,3.057,0,0,1-.29-.255,2.066,2.066,0,0,0-1.414-.586,2,2,0,0,0-1.415,3.415Z"/><path class="c" d="M57.9,54.278a3.138,3.138,0,0,1-.286.255l.405-.312a3.24,3.24,0,0,1-.684.4l.477-.2a3.676,3.676,0,0,1-.836.23l.532-.072a4.268,4.268,0,0,1-1.129,0l.532.072a3.816,3.816,0,0,1-.853-.23l.478.2A3.351,3.351,0,0,1,55.8,54.2l.4.313a2.739,2.739,0,0,1-.262-.231,2.069,2.069,0,0,0-1.415-.586,2,2,0,0,0-1.414,3.415,5.573,5.573,0,0,0,7.621,0A2,2,0,1,0,57.9,54.278Z"/><path class="c" d="M64.077,74.3a13.774,13.774,0,0,0,8.743,0,2,2,0,0,0-1.063-3.858,12.754,12.754,0,0,1-2.006.515q-.33.048.15-.02c-.085.01-.17.02-.254.028-.128.012-.255.023-.383.031-.336.023-.674.037-1.012.033s-.7-.032-1.047-.067c-.47-.046.461.085.008,0-.165-.031-.331-.058-.5-.092a15.353,15.353,0,0,1-1.577-.426,2.017,2.017,0,0,0-2.46,1.4,2.044,2.044,0,0,0,1.4,2.461Z"/><path class="b" d="M93.57,308.035C96,327.336,92,346.777,89.6,366.082c-1.3,10.478-1.745,22.16,2.828,31.253.08.275.12.423.12.423.364,1.357.978,4.969-.218,5.706s-3.168.709-4.573.734c-6.1.106-12.553-4.492-15.975-7.536a.459.459,0,0,0-.369-.1c-.591-23.987-.6-47.987-.6-71.983,0-5.262,0-11.658,0-16.92"/><path class="b" d="M46.059,308.035c-2.428,19.3,1.573,38.742,3.973,58.047,1.3,10.478,1.745,22.16-2.829,31.253-.08.275-.12.423-.12.423-.363,1.357-.978,4.969.219,5.706s3.168.709,4.573.734c6.1.106,12.553-3.642,15.974-6.686a.466.466,0,0,1,.369-.1c.592-23.987.6-48.837.6-72.833,0-5.262,0-11.658,0-16.92"/><path class="d" d="M37.058,184.9c-1.391,4.88-3.111,12.983-4.234,19.344-5.3,30.013,2.294,92.325,2.823,102.183a.984.984,0,0,0,.9.933c15.684,1.452,52.619,1.507,65.7-.047a.99.99,0,0,0,.884-.933c.508-9.733,7.939-72.1,2.639-102.136-1.122-6.361-2.842-14.464-4.233-19.344Z"/><path class="d" d="M74.888,195.211c1.634,3.275,3.527,5.878,5.6,6.808,5.267,2.359,22.272,1.767,27.926.612-.5-4.564-1.814-13.92-3.005-22.974l-.044-.363c5.3-3.077,10.968-6.557,15.52-9.723,4.369-3.039,10.29-6.713,13.078-12.365s.127-10.5-2.436-17.831c-2.7-7.722-8.214-23.826-11.305-31.709-2.018-5.145-3.157-6.079-5.576-8.3a28.813,28.813,0,0,0-6.077-3.631c-4.7-2.333-14.7-6.842-19.44-9.36l-.793-.421a200.594,200.594,0,0,1-6.084,20.2c-5.277,14.8-9.113,24.878-13.348,35.045-1.455-4.084-2.653-8.216-3.938-12.341C63,122.529,53.21,90.124,51.988,86.124l-.311-1.017-2.693,1.276c-5.629,2.666-14.9,7.3-19.594,9.63-.862.429-4.235,2.439-5.033,2.846a12.229,12.229,0,0,0-1.911,1.069c-2.238,1.659-3.558,3.16-5.576,8.305-3.091,7.882-8.607,23.987-11.3,31.709C3,147.276.34,152.121,3.128,157.773s8.709,9.326,13.079,12.365c4.438,3.087,9.94,6.473,15.125,9.492l-.021.166c-1.188,9.027-2.492,18.329-2.99,22.86,4,.862,22.51,1.975,28.989-.332a15.753,15.753,0,0,0,6.221-3.938Z"/><path class="b" d="M79.553,192.756c.407-.23.813-.462,1.214-.695a76.784,76.784,0,0,0,7.026-4.842c.564-.407,1.116-.826,1.651-1.254-3.331-5.228-6.381-10.61-9.341-16.032-2.248.1-4.407-.09-6.925-.13-1.9-.02-5.15,1.5-6.79,2.48a5.7,5.7,0,0,0-2.98,4.21l.476,3.447c-1.929,1-3.645,1.931-4.524,2.458a28.464,28.464,0,0,0-4.424,3.254c-1.711,2.14-1.679,4.572-.984,5.474s1.917,2.032,3.342,1.684A3.494,3.494,0,0,0,58.46,196.1a3.825,3.825,0,0,0,4.292.279c-.554.748.718,2.983,2.62,2.7a17.865,17.865,0,0,0,3.985-1.145C71.048,197.21,75.365,195.116,79.553,192.756Z"/><path class="b" d="M60.047,170.489c-.97-.129-1.952-.241-2.838-.382-2.872,5.267-5.823,10.5-9.03,15.593,1.21.851,2.447,1.646,3.609,2.543l1.721,1.032a6.258,6.258,0,0,1,1.427-3.623A28.464,28.464,0,0,1,59.36,182.4c.879-.527,2.595-1.455,4.524-2.458l-.476-3.447a5.292,5.292,0,0,1,2.169-3.652C65.257,171.319,62.693,170.841,60.047,170.489Z"/><path class="e" d="M28.513,429.192q-.165-.216-.312-.446a8.358,8.358,0,0,1-.554-7.006,22.942,22.942,0,0,1,3.6-6.273q5.2-7.107,11-13.756c1.506-1.727,3.209-3.528,5.461-3.953-.363,1.357-.909,4.71.288,5.447s3.021.735,4.426.759c6.152.107,12.726-4.3,16.14-7.381.233-.21.667.084.67.418.031,3.963.364,5.677.344,10.055a10.106,10.106,0,0,1-.762,3.39c-.976,2.639-3.869,3.91-6.191,5.5-6.041,4.134-9.222,11.676-15.552,15.352a16.347,16.347,0,0,1-15.108.541A9.534,9.534,0,0,1,28.513,429.192Z"/><path class="e" d="M111.737,429.192q.165-.216.312-.446a8.362,8.362,0,0,0,.553-7.006,22.939,22.939,0,0,0-3.595-6.273q-5.2-7.107-11-13.756c-1.506-1.727-3.209-3.528-5.461-3.953.364,1.357.978,4.969-.218,5.706s-3.168.709-4.573.734c-6.1.106-12.553-4.492-15.975-7.536-.265-.236-.755-.058-.759.246-.046,3.986-.517,5.4-.5,9.815a12.272,12.272,0,0,0,.916,3.723c.976,2.639,3.869,3.91,6.191,5.5,6.041,4.134,9.223,11.676,15.553,15.352a16.345,16.345,0,0,0,15.107.541A9.537,9.537,0,0,0,111.737,429.192Z"/><path class="c" d="M44.172,308.035c-1.526,12.41-.457,24.91,1.146,37.254,1.5,11.547,3.962,23.233,3.7,34.923-.134,5.845-1.074,11.781-3.878,16.979-1.222,2.266,2.231,4.288,3.454,2.019,5.258-9.75,4.938-21.41,3.681-32.1-1.483-12.607-3.781-25.119-4.571-37.8a115.428,115.428,0,0,1,.473-21.274,2.01,2.01,0,0,0-2-2,2.05,2.05,0,0,0-2,2Z"/><path class="c" d="M67.725,308.789c0,22.911.061,45.824-.247,68.733q-.13,9.739-.368,19.476c-.064,2.575,3.936,2.574,4,0,.57-22.971.605-45.95.611-68.926q0-9.642,0-19.283c0-2.574-4-2.579-4,0Z"/><path class="c" d="M91.57,308.035c1.557,12.654.414,25.4-1.241,37.981-.827,6.291-1.777,12.565-2.58,18.859a97.337,97.337,0,0,0-.969,16.806,40.631,40.631,0,0,0,4.364,17.512c1.22,2.267,4.675.25,3.454-2.019-5.051-9.382-4.264-20.875-3-31.092,1.525-12.333,3.706-24.6,4.461-37.015a114.92,114.92,0,0,0-.488-21.032,2.063,2.063,0,0,0-2-2,2.012,2.012,0,0,0-2,2Z"/><path class="c" d="M31.034,202.94a164.752,164.752,0,0,0-2.078,28.792c-.018,10.886.48,21.771,1.19,32.632.613,9.39,1.408,18.766,2.273,28.136.3,3.2.6,6.393.887,9.591.1,1.079.191,2.159.269,3.24.027.365.037.733.072,1.1a3.148,3.148,0,0,0,3.111,2.953c9.744,1.011,19.663,1.008,29.448,1.07,10.253.066,20.543.011,30.777-.673,1.756-.117,3.515-.246,5.262-.464a3.1,3.1,0,0,0,2.884-2.933c.038-.395.048-.8.077-1.191.181-2.5.421-5,.648-7.5.778-8.543,1.538-17.088,2.161-25.644.783-10.773,1.385-21.564,1.585-32.365a222,222,0,0,0-1.061-30.127q-.4-3.375-1-6.718a2.018,2.018,0,0,0-2.461-1.4,2.044,2.044,0,0,0-1.4,2.46c1.638,9.126,1.951,18.55,1.981,27.854.034,10.563-.415,21.126-1.067,31.667-.572,9.234-1.32,18.456-2.145,27.671-.294,3.29-.6,6.58-.893,9.871-.1,1.147-.2,2.294-.293,3.443q-.048.6-.089,1.194a1.741,1.741,0,0,0-.034.544c.1.25-.59.765.457-.32.69-.715.459-.481-.085-.422a270.932,270.932,0,0,1-27.345,1.057c-10.345.06-20.709-.058-31.041-.625q-1.44-.079-2.879-.176a25.2,25.2,0,0,0-3.058-.234,2,2,0,0,0-.434-.038c2.449-1.3.714,1.637.875.8a2.427,2.427,0,0,0-.036-.549c-.03-.442-.065-.884-.1-1.326-.217-2.683-.477-5.363-.727-8.044-.792-8.5-1.554-16.992-2.179-25.5-.768-10.465-1.359-20.948-1.563-31.44a220.4,220.4,0,0,1,1-29.509c.224-1.948.514-3.848.866-5.809a2.057,2.057,0,0,0-1.4-2.46,2.017,2.017,0,0,0-2.46,1.4Z"/><path class="c" d="M30.24,428.183c-1.631-2.229-1.232-5.047-.048-7.4a52.135,52.135,0,0,1,5.49-7.931q3.032-3.952,6.267-7.746c1.712-2.014,3.553-4.808,6.287-5.423l-2.46-2.461c-.52,2.026-1.029,4.858.2,6.726,1.58,2.392,5.881,2.2,8.37,1.905,5.866-.7,11.281-3.987,15.623-7.86l-.883.515.2-.071H68.229l.219.076L67.565,398l.176.178-.515-.883a11.681,11.681,0,0,1,.084,2.59c.042.882.1,1.764.146,2.646.106,1.993.392,4.2-.159,6.137a6.715,6.715,0,0,1-3.267,4,40,40,0,0,0-4.695,3.313c-5.59,4.87-9.015,12.973-16.7,14.98-4.211,1.1-9.812.374-12.7-3.188a2.013,2.013,0,0,0-2.828,0,2.046,2.046,0,0,0,0,2.828c2.178,2.684,5.788,4.12,9.133,4.6a18.708,18.708,0,0,0,10.592-1.535c5.881-2.721,9.185-8.573,13.5-13.088a21.378,21.378,0,0,1,3.453-3.012c1.239-.835,2.544-1.563,3.734-2.471,3.06-2.334,4.107-5.654,4.057-9.413-.019-1.492-.1-2.98-.185-4.469-.087-1.531.152-3.4-.261-4.869a2.52,2.52,0,0,0-1.718-1.729,2.663,2.663,0,0,0-2.588.839,34.391,34.391,0,0,1-3.283,2.492c-3.042,2.015-6.623,3.851-10.342,4a18.447,18.447,0,0,1-2.67-.062,9.159,9.159,0,0,1-1.1-.218c-.777-.179.005-.207-.066.146.1-.512-.1-1.28-.039-1.861a11.842,11.842,0,0,1,.32-1.669,2.022,2.022,0,0,0-2.46-2.46c-3.455.777-5.719,3.712-7.9,6.271q-3.8,4.453-7.336,9.115c-3.858,5.058-9.873,12.535-5.153,18.986a2.059,2.059,0,0,0,2.736.717A2.015,2.015,0,0,0,30.24,428.183Z"/><path class="c" d="M113.464,430.2c4.721-6.452-1.3-13.928-5.153-18.986q-3.549-4.653-7.336-9.115c-2.179-2.558-4.443-5.494-7.9-6.271a2.022,2.022,0,0,0-2.46,2.46,10.132,10.132,0,0,1,.406,3.3,2.313,2.313,0,0,1-.08.511c-.143-.064.851-.388.083-.218a11.7,11.7,0,0,1-2.225.3,17.719,17.719,0,0,1-9.378-2.487,35.348,35.348,0,0,1-4.132-2.709c-1.061-.805-2.314-2.415-3.742-2.425-2.405-.016-2.493,2.176-2.574,3.971-.065,1.417-.215,2.827-.319,4.242-.243,3.335-.278,7,1.692,9.9,1.823,2.677,4.906,3.794,7.322,5.791,4.955,4.094,7.962,10.052,13.277,13.779a18.072,18.072,0,0,0,11.336,3.159c3.912-.24,8.318-1.65,10.868-4.792a2.059,2.059,0,0,0,0-2.828,2.015,2.015,0,0,0-2.829,0c-2.55,3.142-7.351,4.091-11.192,3.508-4-.607-7.119-2.91-9.79-5.828-2.61-2.85-4.811-6.066-7.618-8.736a29.422,29.422,0,0,0-4.739-3.567c-1.342-.84-2.928-1.734-3.615-3.241-1-2.191-.893-4.467-.735-6.81.06-.9.149-1.8.22-2.7.041-.5.077-1.006.1-1.509a6.378,6.378,0,0,1,.075-1.654l-.92,1.195.2-.125-1.009.273.247-.025-1.009-.273a7.235,7.235,0,0,1,1.244.993q.871.7,1.775,1.373a36.108,36.108,0,0,0,3.673,2.4,23.13,23.13,0,0,0,8.992,3.081c2.4.243,6.606.412,8.1-1.911,1.253-1.944.686-4.9.148-6.993l-2.46,2.461c2.669.6,4.457,3.275,6.133,5.242q3.306,3.884,6.421,7.927a54.253,54.253,0,0,1,5.392,7.742c1.242,2.395,1.735,5.282.05,7.585a2.014,2.014,0,0,0,.717,2.736A2.046,2.046,0,0,0,113.464,430.2Z"/><path class="f" d="M36.837,184.9h64.079"/><path class="c" d="M88.123,88.1c4.056,2.144,8.242,4.048,12.393,6,1.967.925,3.937,1.846,5.893,2.8a33.3,33.3,0,0,1,6.827,3.884c1.97,1.627,4.816-1.188,2.828-2.828-3.837-3.168-8.73-5.049-13.2-7.152-4.26-2-8.557-3.951-12.719-6.152-2.274-1.2-4.3,2.249-2.019,3.454Z"/><path class="c" d="M66.553,152.08a5.261,5.261,0,0,0-.721-2.708,4.77,4.77,0,0,0-2.636-2.025,5.625,5.625,0,0,0-3.453.024,4.813,4.813,0,0,0-2.621,2.093,5.464,5.464,0,0,0-.021,5.405,5.321,5.321,0,0,0,5.989,2.18,5.052,5.052,0,0,0,3.463-4.969,2,2,0,0,0-4,0,4.243,4.243,0,0,1-.039.552l.071-.532a3.981,3.981,0,0,1-.254.933l.2-.478a3.245,3.245,0,0,1-.379.656l.313-.405a2.856,2.856,0,0,1-.461.465l.4-.313a2.819,2.819,0,0,1-.542.32l.478-.2a3.253,3.253,0,0,1-.756.21l.532-.071a4.474,4.474,0,0,1-1.1,0l.532.071a3.771,3.771,0,0,1-.875-.228l.478.2a3.118,3.118,0,0,1-.625-.357l.4.313a2.959,2.959,0,0,1-.514-.511l.313.405a3.105,3.105,0,0,1-.373-.643l.2.477a3.252,3.252,0,0,1-.211-.78l.071.532a3.961,3.961,0,0,1,.013-.961l-.071.531a3.817,3.817,0,0,1,.259-.955l-.2.478a3.133,3.133,0,0,1,.345-.592l-.313.405a2.853,2.853,0,0,1,.488-.488l-.405.312a3.061,3.061,0,0,1,.567-.33l-.477.2a3.625,3.625,0,0,1,.868-.237l-.532.072a4.334,4.334,0,0,1,1.037,0l-.531-.071a3.7,3.7,0,0,1,.885.226l-.478-.2a2.949,2.949,0,0,1,.626.36l-.405-.312a2.761,2.761,0,0,1,.427.424l-.313-.405a2.869,2.869,0,0,1,.361.614l-.2-.478a3.43,3.43,0,0,1,.219.81l-.071-.532a4.246,4.246,0,0,1,.035.516,2,2,0,0,0,4,0Z"/><path class="c" d="M86.458,85.191a164.582,164.582,0,0,1-6.13,20.425c-2.707,7.613-5.48,15.2-8.4,22.738q-2.081,5.362-4.272,10.682a2.013,2.013,0,0,0,1.4,2.461,2.053,2.053,0,0,0,2.461-1.4q3.992-9.685,7.621-19.513c3.04-8.178,6.085-16.371,8.594-24.731.951-3.17,1.894-6.363,2.588-9.6.538-2.51-3.317-3.583-3.857-1.063Z"/><path class="c" d="M73.161,196.221c1.432,2.825,3.332,6.109,6.321,7.525a20,20,0,0,0,6.248,1.464,87.145,87.145,0,0,0,15.957.195,55.882,55.882,0,0,0,7.263-.846,2,2,0,0,0,1.468-1.928c-.853-7.675-2-15.319-3.005-22.974a2.066,2.066,0,0,0-2-2,2.012,2.012,0,0,0-2,2c1.008,7.655,2.152,15.3,3.005,22.974l1.468-1.929a52.127,52.127,0,0,1-7.239.766c-3.231.18-6.474.231-9.71.117a39.091,39.091,0,0,1-8.089-.893,4.757,4.757,0,0,1-2.71-1.3,17.356,17.356,0,0,1-3.524-5.187c-1.164-2.3-4.616-.274-3.453,2.019Z"/><path class="c" d="M47.975,84.656c-4.728,2.243-9.415,4.573-14.1,6.9-1.919.953-3.866,1.864-5.758,2.869-1.614.857-3.149,1.86-4.768,2.707-2.282,1.193-.262,4.646,2.019,3.454,1.619-.847,3.153-1.852,4.768-2.707,1.893-1,3.839-1.916,5.757-2.869,4.687-2.327,9.374-4.658,14.1-6.9,2.324-1.1.3-4.553-2.019-3.454Z"/><path class="c" d="M50.059,86.655c2.506,8.206,4.976,16.423,7.467,24.634q2.133,7.035,4.277,14.066c1.819,5.951,3.528,11.956,5.7,17.792a39.915,39.915,0,0,1,2.746,13.826,101.621,101.621,0,0,1-1.062,12.761,2.012,2.012,0,0,0,2,2,2.048,2.048,0,0,0,2-2c.961-7.989,1.791-15.9-.5-23.761-1.3-4.473-3.07-8.818-4.44-13.278q-1.065-3.468-2.134-6.935-4.455-14.532-8.835-29.088-1.677-5.541-3.359-11.08c-.75-2.455-4.612-1.408-3.857,1.063Z"/><path class="c" d="M50.036,83.83A37.384,37.384,0,0,0,42.7,88.862a35.789,35.789,0,0,0-5.824,5.994,2.025,2.025,0,0,0,.313,2.424q1.843,2.137,3.658,4.3.73.872,1.453,1.75.314.382.621.766c.3.372-.137-.2.163.213l.717-2.736a16.738,16.738,0,0,0-3.19,2.435c-1.446,1.569-.865,3.346.141,4.988.986,1.609,1.971,3.217,2.938,4.837,3.438,5.76,6.853,11.534,10.349,17.259,1.627,2.664,3.251,5.336,5,7.923,1.434,2.121,4.9.122,3.454-2.019-6.222-9.207-11.567-19.01-17.339-28.5-.177-.29-.353-.58-.533-.867-.2-.319-.722-1.583-.942-1.633.39.088-.779,1.263.078.528.234-.2.463-.391.71-.575.439-.326.9-.624,1.354-.924a2.02,2.02,0,0,0,.718-2.736c-1.991-2.74-4.312-5.276-6.52-7.839l.312,2.424a31.949,31.949,0,0,1,5.2-5.185,33.076,33.076,0,0,1,6.524-4.406c2.308-1.14.284-4.591-2.019-3.454Z"/><path class="c" d="M86.913,87.284a33.018,33.018,0,0,1,6.524,4.406,31.869,31.869,0,0,1,5.2,5.185l.313-2.424c-2.209,2.563-4.53,5.1-6.52,7.839a2.028,2.028,0,0,0,.718,2.736c.355.234,2.384,1.712,2.336,1.75-.255.2.091-.967-.257-.618a8.118,8.118,0,0,0-.733,1.241c-.139.222-.278.443-.415.666-1.077,1.751-2.12,3.521-3.172,5.287-3.274,5.495-6.538,11-9.88,16.452-1.481,2.418-2.963,4.842-4.552,7.192-1.445,2.138,2.019,4.142,3.454,2.019,6.417-9.5,11.794-19.659,17.873-29.366.943-1.507,2.144-3.361.993-5.09a12.207,12.207,0,0,0-3.629-2.986l.718,2.736c.3-.413-.136.159.162-.213q.309-.384.621-.766.721-.879,1.453-1.75,1.814-2.163,3.658-4.3a2.041,2.041,0,0,0,.313-2.424,35.744,35.744,0,0,0-5.823-5.994,37.361,37.361,0,0,0-7.334-5.032c-2.3-1.136-4.329,2.313-2.019,3.454Z"/><path class="c" d="M109.534,98.235c-1.082,13.214-3.393,26.364-5.379,39.463q-1.062,7-2.117,14a2.065,2.065,0,0,0,1.4,2.46,2.014,2.014,0,0,0,2.46-1.4c2.288-15.245,4.771-30.472,6.692-45.77.365-2.911.708-5.827.947-8.752.21-2.566-3.791-2.552-4,0Z"/><path class="c" d="M29.311,179.8c-1,7.617-2.143,15.224-2.99,22.86a2,2,0,0,0,1.468,1.929,71.586,71.586,0,0,0,12.518,1.058c5.174.146,10.553.2,15.642-.875a18.014,18.014,0,0,0,9-4.968c1.815-1.829-1.012-4.659-2.828-2.828-4.685,4.724-11.461,4.7-17.676,4.723q-4.743.019-9.482-.305a45.917,45.917,0,0,1-6.106-.662l1.468,1.928c.847-7.636,1.986-15.243,2.99-22.86a2.01,2.01,0,0,0-2-2,2.051,2.051,0,0,0-2,2Z"/><path class="c" d="M23.3,98.827c1.078,13.188,3.288,26.313,5.245,39.391q1.054,7.043,2.113,14.084a2.015,2.015,0,0,0,2.461,1.4,2.051,2.051,0,0,0,1.4-2.46c-2.192-14.644-4.544-29.277-6.329-43.978-.341-2.806-.656-5.616-.886-8.434-.209-2.547-4.211-2.57-4,0Z"/><path class="c" d="M56.676,172.031c.791.125,1.585.226,2.379.328l.539.07c.1.012.617.081.274.035s.015,0,.093.014l.237.034q.265.039.529.081a17.311,17.311,0,0,1,1.858.388c.272.075.536.166.8.262s-.222-.1-.224-.095c.018-.009.14.066.161.076a3.986,3.986,0,0,1,.366.206,2.02,2.02,0,0,0,2.737-.718,2.041,2.041,0,0,0-.718-2.736,10.337,10.337,0,0,0-3.8-1.221c-.827-.137-1.66-.242-2.492-.35l-1.01-.13c-.256-.034.481.067.124.016l-.229-.032q-.28-.04-.559-.085a2.181,2.181,0,0,0-1.542.2,2,2,0,0,0,.478,3.655Z"/><path class="c" d="M62.1,176.469q-1.226-.472-2.479-.869a1.523,1.523,0,0,0-.8-.036,1.48,1.48,0,0,0-.744.238,2.238,2.238,0,0,0-.919,1.2,2.022,2.022,0,0,0,.2,1.541,2.157,2.157,0,0,0,1.2.919q1.253.394,2.478.869a1.526,1.526,0,0,0,.8.036,1.484,1.484,0,0,0,.744-.238,2.238,2.238,0,0,0,.919-1.195,2.027,2.027,0,0,0-.2-1.541l-.313-.405a1.99,1.99,0,0,0-.882-.514Z"/><path class="c" d="M52.8,186.516c-1.2-.921-2.466-1.737-3.7-2.606a2,2,0,0,0-2.938,2.259l.2.478a2.014,2.014,0,0,0,.718.717c1.233.869,2.5,1.685,3.7,2.606a1.492,1.492,0,0,0,.744.237,1.511,1.511,0,0,0,.8-.035,2.046,2.046,0,0,0,1.2-.919,2.018,2.018,0,0,0,.2-1.541l-.2-.478a2.008,2.008,0,0,0-.718-.718Z"/><path class="c" d="M65.408,176.493c.254-2.168,3.524-3.441,5.38-4.114a14.914,14.914,0,0,1,1.872-.538c.231-.051-.2,0,.158-.025.12-.008.24-.012.36-.013.479-.006.962.021,1.441.037,1.83.062,3.658.164,5.489.093a2,2,0,0,0,0-4c-2.095.082-4.187-.064-6.281-.117a12.124,12.124,0,0,0-5.014,1.063,18.872,18.872,0,0,0-4.394,2.349,7.531,7.531,0,0,0-3.011,5.265,2.012,2.012,0,0,0,2,2,2.048,2.048,0,0,0,2-2Z"/><path class="c" d="M70.12,174.632a90,90,0,0,0-13.476,7.152c-2.6,1.778-4.769,3.717-5.1,7.069a5.466,5.466,0,0,0,6.284,5.885l-2.461-2.46c-.605,1.933.481,4.227,1.943,5.455a5.831,5.831,0,0,0,6.453.372l-2.736-2.737c-1.452,2.648,1.334,5.741,4.036,5.735,2.779-.006,5.585-1.521,8.03-2.708A96.6,96.6,0,0,0,90.066,188a2.067,2.067,0,0,0,.718-2.736,2.014,2.014,0,0,0-2.737-.717A90.027,90.027,0,0,1,74.5,193.214c-1.906.991-3.828,2-5.806,2.841a9.042,9.042,0,0,1-3.471,1.031,1.66,1.66,0,0,1-.4-.092c-.586-.148.248-.692-.347.393a2.016,2.016,0,0,0-2.737-2.736,1.873,1.873,0,0,1-1.867.034,1.937,1.937,0,0,1-.631-1.032,2.168,2.168,0,0,1-.013-.428c.008.1-.087.367-.009.116a2.026,2.026,0,0,0-2.46-2.46c-.636.1-1.213-.931-1.25-1.247a3.828,3.828,0,0,1,1.079-2.825,18.316,18.316,0,0,1,4.081-2.863,128.426,128.426,0,0,1,11.467-5.86,2.015,2.015,0,0,0,.717-2.736,2.048,2.048,0,0,0-2.736-.718Z"/><path class="c" d="M71.086,180.43c-1.75.986-3.451,2.062-5.184,3.078-1.158.679-2.32,1.349-3.5,1.993-.5.276-1.008.546-1.519.805q-.327.166-.659.324c-.113.053-.226.1-.339.156-.443.207.387-.157.1-.039a2.053,2.053,0,0,0-1.4,2.461,2.018,2.018,0,0,0,2.46,1.4c4.258-1.747,8.061-4.468,12.055-6.721a2,2,0,1,0-2.019-3.453Z"/><path class="c" d="M74.613,184.863a43.6,43.6,0,0,1-4.695,2.862c-1.119.642-2.246,1.269-3.386,1.871-.513.27-1.028.534-1.548.788-.228.111-.456.22-.687.325-.105.048-.211.093-.315.141-.32.149.518-.212.065-.027a2.052,2.052,0,0,0-1.4,2.46,2.02,2.02,0,0,0,2.46,1.4,56.777,56.777,0,0,0,6.707-3.432,44.5,44.5,0,0,0,4.815-2.931,2.054,2.054,0,0,0,.717-2.737,2.019,2.019,0,0,0-2.736-.717Z"/><path class="c" d="M26.687,150.83a122.685,122.685,0,0,1,10.624,6.895c4.919,3.3,9.815,6.628,14.746,9.908,1.568,1.043,3.125,2.128,4.755,3.073L56.1,167.97c-3.5,6.441-7.1,12.83-11.089,18.981l2.736-.718c-6.051-2.816-11.869-6.23-17.606-9.627-3.679-2.179-7.322-4.424-10.877-6.8a87.649,87.649,0,0,1-9.336-6.77c-2.865-2.525-5.855-5.885-5.976-9.912-.128-4.269,2.079-8.489,3.466-12.421,2.47-7,4.862-14.034,7.359-21.028,1.3-3.65,2.606-7.3,4.027-10.908a19.847,19.847,0,0,1,2.806-5.377,12,12,0,0,1,3.762-2.8c2.231-1.283.219-4.74-2.019-3.454a17.411,17.411,0,0,0-4.012,2.819,15.7,15.7,0,0,0-2.863,4.2,109.065,109.065,0,0,0-4.252,10.828C9.5,122.489,6.9,130.047,4.269,137.6,2.854,141.66.905,145.743.205,150.011c-.762,4.642.64,8.692,3.52,12.341,2.689,3.407,6.3,5.952,9.84,8.389,3.466,2.382,6.96,4.7,10.544,6.9a216.574,216.574,0,0,0,21.614,12.043,2.059,2.059,0,0,0,2.736-.717c3.992-6.152,7.592-12.54,11.09-18.981a2.035,2.035,0,0,0-.718-2.736c-3.694-2.143-7.187-4.694-10.727-7.078-4.9-3.3-9.781-6.617-14.717-9.857-1.533-1.006-3.058-2.083-4.682-2.941-2.274-1.2-4.3,2.248-2.018,3.453Z"/><path class="c" d="M108.909,147.08c-3.751,1.98-7.271,4.516-10.825,6.82-5.017,3.251-10.015,6.531-15.039,9.772-1.581,1.019-3.152,2.07-4.781,3.014a2.037,2.037,0,0,0-.717,2.736c3.5,6.441,7.1,12.83,11.089,18.981a2.063,2.063,0,0,0,2.737.717A206.388,206.388,0,0,0,109.647,179.1c3.708-2.208,7.379-4.484,10.952-6.906a86.118,86.118,0,0,0,9.82-7.27c3.232-2.94,6.086-6.725,6.631-11.171.54-4.4-1.308-8.658-2.792-12.691-2.683-7.289-5.11-14.675-7.712-21.993-1.364-3.834-2.735-7.669-4.209-11.462a28.244,28.244,0,0,0-2.878-5.991,22.589,22.589,0,0,0-3.4-3.665c-1.892-1.74-4.728,1.081-2.828,2.828a21.928,21.928,0,0,1,2.625,2.654A20.481,20.481,0,0,1,118.3,108.2c1.225,3.107,2.357,6.252,3.486,9.4,2.522,7.025,4.952,14.082,7.407,21.131,1.353,3.884,3.307,7.839,3.871,11.944.544,3.959-1.455,7.359-4.124,10.12a59.084,59.084,0,0,1-9.2,7.154c-3.346,2.314-6.788,4.488-10.269,6.594a212.581,212.581,0,0,1-20.114,11.129l2.736.718C88.1,180.233,84.5,173.844,81,167.4l-.718,2.736c3.737-2.163,7.31-4.648,10.927-7,5-3.252,9.981-6.521,15.011-9.721,1.546-.983,3.084-2.025,4.707-2.882,2.277-1.2.258-4.656-2.019-3.454Z"/><path class="c" d="M83.6,97.045c-8.682,2.589-18.317,3.3-26.93-.027a2.015,2.015,0,0,0-2.46,1.4,2.045,2.045,0,0,0,1.4,2.46,42,42,0,0,0,14.406,2.4,49.626,49.626,0,0,0,14.65-2.371c2.461-.733,1.413-4.595-1.063-3.857Z"/></svg>