<?xml version="1.0" encoding="utf-8"?>
<!-- Uploaded to: SVG Repo, www.svgrepo.com, Generator: SVG Repo Mixer Tools -->
<svg width="800px" height="800px" viewBox="-13.59 0 365.191 365.191" xmlns="http://www.w3.org/2000/svg"><defs><style>.a{fill:#ffffff;}.b{fill:#645d5c;}.c{fill:#211715;}.d{fill:#f2635f;}</style></defs><path class="a" d="M166.077,183.568c-.526-.217-15.264-7.228-15.608-7.352-5.2-1.877-4.991-5.218-5.646-8.955a75.774,75.774,0,0,1-1.089-9.671c13.027-6.179,23.4-23.585,25.248-28.592.285-.864.864-2.491,1.381-4.421.687-.113,1.079-.173,1.079-.173a13.54,13.54,0,0,0,6.295-2.837,20.425,20.425,0,0,0,5.28-6.93,32.128,32.128,0,0,0,3.276-17.029A10.72,10.72,0,0,0,185.17,93.3a7.58,7.58,0,0,0-5.452-3.624,8.03,8.03,0,0,0-6.425,1.88s-5.619-41.873-55.539-41.873-52.23,41.873-52.23,41.873a8.029,8.029,0,0,0-6.425-1.88A7.583,7.583,0,0,0,53.647,93.3a10.719,10.719,0,0,0-1.122,4.313A32.127,32.127,0,0,0,55.8,114.637a20.425,20.425,0,0,0,5.28,6.93,13.539,13.539,0,0,0,6.3,2.837l2.052.315A54.638,54.638,0,0,0,79.84,145.044c5,5.985,10.623,10.483,16.76,13.147a70.337,70.337,0,0,1-1.074,9.07c-.655,3.737-.45,7.078-5.647,8.955-.343.124-16.779,7.812-17.78,8.153,0,0-2.4,32.2,44.785,32.2S166.077,183.568,166.077,183.568Z"/><path class="b" d="M56.1,132.178q.075-1.818.277-3.438a28.289,28.289,0,0,1,2.7-9.1,16.546,16.546,0,0,0,2,1.928,13.539,13.539,0,0,0,6.3,2.837l2.056.316A54.554,54.554,0,0,0,79.84,145.044,47.459,47.459,0,0,0,94.908,157.4c-1.953,5.35-9.491,10.259-18.637,11.654-8.518,1.293-16.578-.6-21.812-3.816a7.2,7.2,0,0,1-2.408-2.106,2.189,2.189,0,0,1-.376-1.053c-.01-.156.032-.761.219-.824,4.692-1.584,5.975-6.433,5.745-11.354-.24-4.942-1.491-10-1.574-14.941Q56.046,133.514,56.1,132.178Z"/><path class="c" d="M57.12,118.207c-3.257,6.452-3.962,13.837-3.156,20.949.419,3.7,1.175,7.38,1.289,11.109.071,2.312-.123,4.984-1.561,6.907-.83,1.111-1.883,1.357-3.009,2.015-1.664.974-1.666,3.3-.888,4.827,1.429,2.811,5.051,4.327,7.831,5.437a37.179,37.179,0,0,0,20.558,1.7c6.7-1.28,13.71-4.55,17.655-10.32,1.747-2.557-2.41-4.96-4.145-2.423-3.755,5.492-11.612,8.032-17.962,8.541a33.418,33.418,0,0,1-11.727-1.078,25.632,25.632,0,0,1-4.681-1.782,18.867,18.867,0,0,1-2.159-1.243c-.33-.226-.6-.57-.925-.779-.309-.2-.06-.344-.146-.039l-.618,1.059.115-.133-1.059.617a10.813,10.813,0,0,0,6.887-7.492c1.047-3.689.6-7.57.1-11.305-1.086-8.129-2.1-16.533,1.743-24.147,1.389-2.751-2.751-5.184-4.145-2.423Z"/><path class="c" d="M174.99,93.248a5.517,5.517,0,0,1,7.923.948,9.236,9.236,0,0,1,1.067,4.755,28.761,28.761,0,0,1-.342,6.064c-1.211,7.083-4.944,15.72-12.834,17.075a2.42,2.42,0,0,0-1.677,2.952,2.457,2.457,0,0,0,2.953,1.677c8.17-1.4,13.02-9.121,15.255-16.489a33.938,33.938,0,0,0,1.408-11.951c-.257-3.959-1.454-7.683-5.1-9.744A10.535,10.535,0,0,0,171.6,89.854a2.421,2.421,0,0,0,0,3.394,2.45,2.45,0,0,0,3.394,0Z"/><path class="c" d="M168.959,118.426a26.99,26.99,0,0,1-1.275,6.8c-.256.857-.537,1.706-.822,2.554-.077.23-.151.461-.235.688-.066.178-.365.845-.056.155a53.7,53.7,0,0,1-3.583,6.565,63.963,63.963,0,0,1-14.278,16.469,27.208,27.208,0,0,1-10.587,5.357c-3.009.692-1.735,5.321,1.276,4.629,8.046-1.849,14.781-7.653,20.082-13.725a69.269,69.269,0,0,0,11.052-16.461,35.1,35.1,0,0,0,3.226-13.032c.1-3.09-4.7-3.086-4.8,0Z"/><path class="c" d="M67.221,89.854a10.5,10.5,0,0,0-10.613-1.981c-3.931,1.551-5.9,4.859-6.4,8.928a32.941,32.941,0,0,0,5.766,22.774,17.223,17.223,0,0,0,10.76,7.144,2.47,2.47,0,0,0,2.952-1.677,2.42,2.42,0,0,0-1.676-2.952c-7.89-1.355-11.623-9.992-12.834-17.075a28.614,28.614,0,0,1-.35-5.84c.059-1.652.132-3.553,1.075-4.979a5.512,5.512,0,0,1,7.922-.948,2.463,2.463,0,0,0,3.394,0,2.421,2.421,0,0,0,0-3.394Z"/><path class="c" d="M65.385,117.65c2.922,16.866,12.063,33.37,27.688,41.509a37.527,37.527,0,0,0,13.56,4.057,2.416,2.416,0,0,0,2.4-2.4,2.454,2.454,0,0,0-2.4-2.4c-16.112-1.67-28.665-16.119-33.726-30.634a72.04,72.04,0,0,1-2.894-11.408,2.419,2.419,0,0,0-2.952-1.676,2.454,2.454,0,0,0-1.676,2.952Z"/><path class="b" d="M61.029,36.829c8.993-14.811,22.977-26,38.678-30.523,26.229-7.562,60-5.879,76.893,20.77,8.852,13.963,10.789,30.966,5.153,51.037,1.581,2.55.468,6.716-1.894,8.486-3.279,2.457-10.054.469-13.436-.491-17.875-5.079-31.906-4.713-50.313-3.853-10.31.481-19.638,1.339-28.5,3.872-4.128,1.18-24.435,8.194-24.807-1.032l-1.427-2.659c-16.036-1.053-6.979-33.2-2.734-41.368Q59.769,38.9,61.029,36.829Z"/><path class="c" d="M61.378,80.036c-.147-.011-.293-.023-.439-.037-.687-.066.3.063-.1-.017-.3-.06-.6-.119-.892-.2-.251-.069-.5-.153-.741-.24-.421-.151-.028-.012.049.024-.169-.08-.335-.16-.5-.249-.214-.117-.417-.25-.624-.379-.557-.345.075.143-.3-.229-.192-.191-.4-.364-.582-.562-.116-.124-.65-.827-.318-.355a11.5,11.5,0,0,1-.784-1.27c-.068-.129-.389-.816-.29-.588.069.162-.21-.564-.268-.738a17.11,17.11,0,0,1-.471-1.707c-.063-.282-.119-.566-.17-.85-.025-.145-.048-.29-.073-.435-.1-.571.026.28-.037-.251-.718-6.025.259-11.608,1.672-17.366a79.947,79.947,0,0,1,2.375-7.946q.284-.792.588-1.575c.089-.229.182-.456.272-.684A2.094,2.094,0,0,1,59.9,44c.527-1.183,1.116-2.325,1.744-3.458a70.735,70.735,0,0,1,17.4-20.736c12.744-10.292,29.243-14.6,45.41-14.983,15.1-.357,30.8,3.387,42.12,13.894A49.742,49.742,0,0,1,179.95,39.752a59.423,59.423,0,0,1,1.716,27.712c-.423,2.624-.981,5.222-1.633,7.8-.759,3,3.869,4.274,4.628,1.276,2.616-10.329,3.575-21.11,1.563-31.633a55.459,55.459,0,0,0-12.019-25.127c-11-13.1-27.729-19.066-44.457-19.714a96.3,96.3,0,0,0-24.637,2.383A70.3,70.3,0,0,0,80.391,12.87,74.545,74.545,0,0,0,60.127,33.753a60.21,60.21,0,0,0-7.482,16.673C50.9,56.6,49.605,63.184,49.86,69.63c.21,5.338,1.724,11.671,7.058,14.117a12.727,12.727,0,0,0,4.46,1.089,2.42,2.42,0,0,0,2.4-2.4,2.448,2.448,0,0,0-2.4-2.4Z"/><path class="c" d="M63.622,83.474A101.943,101.943,0,0,1,82.374,73.237a93.866,93.866,0,0,1,27.717-6.113,208.544,208.544,0,0,1,30.562-.161,99.161,99.161,0,0,1,19.692,3.167c1.309.366,2.607.77,3.887,1.227q.831.3,1.651.623c.192.077.92.388.343.138.265.115.529.229.792.349a24.774,24.774,0,0,1,4.562,2.617,2.418,2.418,0,0,0,3.284-.861A2.458,2.458,0,0,0,174,70.939a35,35,0,0,0-10.495-4.879,95.858,95.858,0,0,0-19.522-3.616,200.756,200.756,0,0,0-30.045-.36c-10.257.557-20.467,2.049-30.172,5.517A104.084,104.084,0,0,0,61.2,79.329c-2.559,1.7-.158,5.863,2.423,4.145Z"/><path class="c" d="M60.405,85.1c.456,7.974,9.827,7.467,15.556,6.5,6.753-1.137,13.153-3.681,19.887-4.924a139.907,139.907,0,0,1,17.864-1.9c5.922-.32,11.857-.577,17.789-.625a121.426,121.426,0,0,1,34.284,4.272c4.508,1.274,10.111,2.969,14.568.691,4.666-2.384,6.219-9.93,2.313-13.623-2.244-2.122-5.644,1.267-3.394,3.394,1.056,1,1.013,2.575.43,4.014a3.551,3.551,0,0,1-3.178,2.437c-3.883.5-8.046-1.194-11.774-2.174a124.006,124.006,0,0,0-31.53-3.818c-5.547,0-11.091.232-16.631.489-5.763.268-11.517.661-17.235,1.449a86.59,86.59,0,0,0-13.219,2.781c-2.382.719-4.763,1.433-7.182,2.019a33.043,33.043,0,0,1-9.734,1.291c-.185-.007-.369-.018-.553-.032-.074-.006-.736-.075-.427-.035.154.02-.678-.127-.88-.177a8.984,8.984,0,0,1-.9-.279c.54.195-.2-.124-.383-.215-.561-.285.106.225-.312-.228-.072-.078-.151-.162-.228-.236-.351-.34.2.364-.017-.04-.064-.123-.134-.244-.2-.367-.125-.233.111.44.02.01-.03-.146-.073-.3-.112-.441-.033-.177-.029-.121.012.165q-.022-.2-.03-.4c-.176-3.071-4.977-3.091-4.8,0Z"/><path class="c" d="M140.374,34.836c8.029-.7,17.986.151,23.9,6.3,2.145,2.231,5.537-1.166,3.394-3.394-6.787-7.056-17.985-8.515-27.291-7.7a2.463,2.463,0,0,0-2.4,2.4,2.418,2.418,0,0,0,2.4,2.4Z"/><path class="c" d="M94.146,159.15a69.687,69.687,0,0,1-.855,7.011c-.249,1.466-.388,2.972-.776,4.411a3.88,3.88,0,0,1-1.809,2.6,19.581,19.581,0,0,1-2.514,1.18c-4.11,1.867-8.19,3.8-12.29,5.685q-1.624.747-3.251,1.485c-.374.169-.749.334-1.123.5-.61.274.495-.175-.067.026a2.462,2.462,0,0,0-1.676,2.953,2.42,2.42,0,0,0,2.952,1.676c1.621-.58,3.187-1.395,4.75-2.111q3.815-1.75,7.619-3.521,2.754-1.276,5.508-2.549c.025-.012.445-.187.442-.2,0,.016-1.237.507-.149.081.314-.124.635-.258.941-.4a9.984,9.984,0,0,0,1.418-.756,8.977,8.977,0,0,0,3.5-4.277A24.27,24.27,0,0,0,97.84,167.9c.489-2.9.906-5.81,1.106-8.749a2.4,2.4,0,1,0-4.8,0Z"/><path class="c" d="M141.341,157.773a97.288,97.288,0,0,0,1.632,13.037,9.762,9.762,0,0,0,6.469,7.573c.978.387-.577-.3.1.032.281.136.566.263.848.4q1.306.612,2.611,1.23,3.53,1.668,7.059,3.34c1.6.756,3.18,1.568,4.806,2.26a2.482,2.482,0,0,0,3.284-.861,2.416,2.416,0,0,0-.861-3.283c-3.476-1.481-6.857-3.232-10.272-4.847-1.645-.778-3.284-1.571-4.939-2.326a19.157,19.157,0,0,1-2.434-1.146,3.87,3.87,0,0,1-1.776-2.479,45.413,45.413,0,0,1-.89-5.02,72,72,0,0,1-.836-7.905c-.159-3.073-4.96-3.092-4.8,0Z"/><path class="a" d="M211.307,329.129a52.929,52.929,0,0,1-9.44-10.83c-2.158-3.82-7.133-14.333-8.4-20.673l-2.345-4.444q-1.262,8.5-2.584,17.417c-.7,4.748,2.641,29.918,5.663,52.192H47.043c2.41-17.757,5.023-37.355,5.628-46.979-3.7-.223-6.692-.417-6.692-.417-6.1,0-39.528-2.593-42.787-4.148-1.481-.445-.653-4.364.149-7.3,2.665-9.754,8.2-35.471,9.629-41.293,2.214-9.038,8.035-35.095,9.994-42.609,1.193-4.575,3.743-11.593,7.354-15.871a27.859,27.859,0,0,1,3.838-2.622c2.312-1.826,5.328-3.071,7.92-4.48A434.016,434.016,0,0,1,81.82,177.446a43.28,43.28,0,0,1,9.593-13.772,83.931,83.931,0,0,0,24.221,16.88c.5.227,1.06.5,1.222,1.031H121.2c.162-.526.721-.8,1.222-1.031a83.931,83.931,0,0,0,24.221-16.88,42.006,42.006,0,0,1,8.8,12.112c16.682,6.857,29.222,13.4,43.723,21.286a73.544,73.544,0,0,1,6.674,3.552l1.776.967a27.725,27.725,0,0,1,3.766,2.583c3.611,4.278,6.16,11.3,7.353,15.871,1.959,7.514,5.057,20.648,8.248,34.218a106.89,106.89,0,0,1,4.4,12.648l10.389,1.656-20.889,62.666Z"/><path class="a" d="M50.131,315.58l-4.152-.185c-4.109,0-20.614-1.176-31.948-2.419l-.024.271c-.472,5.479-3.393,43.29-3.111,49.544H47.043c2.421-17.838,5.047-37.533,5.636-47.1Z"/><path class="c" d="M10.9,365.191H194.007c3.088,0,3.094-4.8,0-4.8H10.9c-3.089,0-3.094,4.8,0,4.8Z"/><path class="c" d="M49.363,363.39c1.391-10.252,2.783-20.5,4.014-30.776.8-6.718,1.874-13.594,1.824-20.378a30.616,30.616,0,0,0-.471-4.243q-.633-4.27-1.27-8.542-1.262-8.463-2.529-16.926-2.353-15.732-4.665-31.471c-1.477-10.149-2.921-20.3-4.229-30.474a2.479,2.479,0,0,0-2.4-2.4,2.413,2.413,0,0,0-2.4,2.4c2.485,19.328,5.386,38.6,8.266,57.874q1.231,8.244,2.465,16.487.632,4.228,1.261,8.459.309,2.076.617,4.152.165,1.1.328,2.209c.048.328.1.656.146.984l.072.492q-.09-.716-.049-.335c-.1,2.214-.023,4.427-.194,6.651-.29,3.754-.7,7.5-1.124,11.24-1.271,11.126-2.785,22.224-4.291,33.321a2.484,2.484,0,0,0,1.676,2.952,2.418,2.418,0,0,0,2.953-1.676Z"/><path class="c" d="M84.2,173.865a442.039,442.039,0,0,0-40.788,19.752c-3.725,2.015-7.711,3.71-11.07,6.316a2.412,2.412,0,0,0,0,3.394,2.462,2.462,0,0,0,3.394,0,34.4,34.4,0,0,1,5.7-3.225c2.072-1.046,4.1-2.182,6.14-3.283,4.032-2.172,8.08-4.316,12.161-6.4,8.426-4.3,17-8.3,25.736-11.928a2.479,2.479,0,0,0,1.676-2.952,2.415,2.415,0,0,0-2.952-1.676Z"/><path class="c" d="M155.767,178.493c8.605,3.574,17.054,7.51,25.357,11.736,3.949,2.009,7.867,4.078,11.769,6.175,2.08,1.119,4.136,2.294,6.246,3.355a35.342,35.342,0,0,1,5.932,3.246,2.481,2.481,0,0,0,3.394,0,2.415,2.415,0,0,0,0-3.394c-3-2.325-6.53-3.771-9.854-5.572q-4.774-2.589-9.581-5.12c-6.416-3.366-12.9-6.6-19.489-9.616q-6.2-2.838-12.5-5.438a2.413,2.413,0,0,0-2.952,1.676,2.46,2.46,0,0,0,1.676,2.952Z"/><path class="c" d="M206.407,203.664c.688.385,1.349.82,2,1.26.351.236.707.472,1.044.729-.281-.215.415.435.489.527a28.491,28.491,0,0,1,3.555,6.138,70.04,70.04,0,0,1,3.912,12.239c1.239,4.946,2.426,9.906,3.607,14.867q1.068,4.494,2.127,8.99.508,2.156,1.015,4.311a26.068,26.068,0,0,0,1.054,3.417,79.552,79.552,0,0,1,3.857,11.407c.727,3,5.357,1.73,4.628-1.276a83.109,83.109,0,0,0-3.6-10.755,23.688,23.688,0,0,1-.967-2.3c-.4-1.465-.667-3.126-1.026-4.651q-1.07-4.541-2.145-9.078c-1.258-5.3-2.523-10.6-3.843-15.88a81.284,81.284,0,0,0-4.082-12.822,34.421,34.421,0,0,0-4.137-7.276,16.1,16.1,0,0,0-5.072-3.992c-2.7-1.512-5.121,2.633-2.423,4.145Z"/><path class="c" d="M32.872,199.519a16.547,16.547,0,0,0-4.475,3.229,29.5,29.5,0,0,0-4.091,6.614,63.8,63.8,0,0,0-4.155,12.02c-1.91,7.719-3.648,15.481-5.432,23.23q-4.888,21.24-9.76,42.484c-1.008,4.392-2.026,8.783-3.131,13.152-.513,2.028-1.137,4.041-1.514,6.1-.5,2.722-.791,5.96,2.24,7.213a2.414,2.414,0,0,0,2.952-1.676,2.461,2.461,0,0,0-1.676-2.953l.906.668c.1.274.114.267.031-.019,0,0,.031.659.008-.136a8.172,8.172,0,0,1,.076-1.289,28.178,28.178,0,0,1,.8-3.571q.572-2.132,1.1-4.274c.948-3.811,1.838-7.636,2.719-11.463,1.713-7.448,3.352-14.913,5.058-22.363,3.146-13.746,6.312-27.5,9.6-41.208a82.328,82.328,0,0,1,3.243-11.032,35.573,35.573,0,0,1,3.807-7.288,10.456,10.456,0,0,1,.91-1.174,3.388,3.388,0,0,1,.266-.227c-.32.277.352-.24.436-.3.806-.562,1.632-1.112,2.49-1.593,2.7-1.511.278-5.658-2.422-4.145Z"/><path class="c" d="M191.151,298.264c1.278,6.192,4.082,12.2,6.867,17.842a48.007,48.007,0,0,0,11.592,14.72c2.313,2.031,5.721-1.351,3.394-3.394a55.1,55.1,0,0,1-7.318-7.781,35.12,35.12,0,0,1-3.524-5.968c-2.61-5.287-5.184-10.891-6.382-16.695-.624-3.023-5.252-1.744-4.629,1.276Z"/><path class="c" d="M209.843,302.972a108.344,108.344,0,0,1,6.709-8.52,36.17,36.17,0,0,1,8.273-7.028,2.4,2.4,0,0,0-2.422-4.145c-7.034,4.247-11.9,10.773-16.7,17.27a2.417,2.417,0,0,0,.861,3.284,2.457,2.457,0,0,0,3.284-.861Z"/><path class="a" d="M251.174,229.372c1.558-3.145,3.583-6.248,4.426-8.237,1.166-2.749.382-7.38,1.207-10.229,1.881-6.5,4.123-10.15,8.272-15.16A162.94,162.94,0,0,1,278.985,181.2c2.22-2.1,4.454-3.523,7.23-1.631,3.087,2.1,1.946,4.933.6,8.09-2.5,5.88-8.636,10.746-10.589,15.788,0,0-.117.3-.307.767,4.785-1.023,18.528-3.4,21.117-3.984s4.373-2.056,6.723-3.16c4.541-2.133,9.611-5.369,14.533-6.341,1.34-.265,2.779.5,3.588.388,2.309-1.489,7.082-1.213,9.736-.491,9.478,4.379-.15,17.518-5.68,21.8-3.812,2.948-9.423,7.55-13.587,10.081-4.5,2.736-8.635,5.16-14.492,6.88-5.54,1.627-12.8,3.5-18.039,5.991-3.17,2.2-6.809,4.4-8.747,10.729-3.664,19.013-7.127,55.513-10.709,67.609-3.53,11.923-4.821,21.1-15.831,28-5.995,3.758-11.456,5.419-17.98,1.966-8.758-4.637-11.986-13.579-10.42-22.142a93.023,93.023,0,0,1,6.7-20.778c5.883-12.125,22.545-58.5,28.031-70.746C250.965,229.8,251.069,229.586,251.174,229.372Z"/><path class="c" d="M268.759,245.465c-3.21,16.731-4.835,33.741-7.4,50.575a160.9,160.9,0,0,1-4.083,19.723c-2.248,7.937-4.248,16.053-10.808,21.614-3.5,2.966-8.308,5.855-13.034,5.787-4.518-.065-8.975-3.009-11.68-6.5-5.946-7.685-3.1-17.4-.346-25.744,2.019-6.121,4.917-11.875,7.362-17.829,2.712-6.6,5.278-13.269,7.836-19.934,5.066-13.2,9.877-26.522,15.318-39.574.051-.124.436-1.032.165-.4.086-.2.171-.4.258-.6q.291-.681.593-1.356a2.475,2.475,0,0,0-.861-3.283,2.418,2.418,0,0,0-3.284.861c-2.361,5.286-4.418,10.714-6.5,16.113-2.882,7.456-5.712,14.932-8.565,22.4-2.751,7.2-5.506,14.4-8.384,21.546q-.894,2.221-1.811,4.433-.189.454-.38.908c-.162.385.217-.51-.046.109l-.161.38q-.4.936-.808,1.868c-1.358,3.088-2.831,6.108-4.015,9.272-3.444,9.2-6.927,19.789-2.784,29.307A22.213,22.213,0,0,0,225,345.566a17.738,17.738,0,0,0,16.134.679,32.236,32.236,0,0,0,12.133-8.943,36.427,36.427,0,0,0,6.047-11.515,144.048,144.048,0,0,0,5.493-21.233c3.069-17.435,4.719-35.089,7.641-52.548q.441-2.637.941-5.265a2.464,2.464,0,0,0-1.677-2.952,2.423,2.423,0,0,0-2.952,1.676Z"/><path class="c" d="M252.937,231.224c1.368-2.851,3.145-5.488,4.5-8.344,1.283-2.718,1.232-5.6,1.349-8.541.206-5.161,2.959-10.247,5.966-14.328a120.016,120.016,0,0,1,13.44-14.728c1.124-1.088,2.22-2.267,3.449-3.238.943-.746,1.861-1.263,2.974-.652,2.137,1.172.826,3.54-.017,5.4-2.681,5.917-8.237,9.965-10.68,16.016a2.416,2.416,0,0,0,1.677,2.952,2.459,2.459,0,0,0,2.952-1.676c1.05-2.6,3.1-4.823,4.84-6.977a37.551,37.551,0,0,0,5.507-8.237c1.232-2.8,2.569-6.09.874-9.008a7.128,7.128,0,0,0-9.417-2.7,18.652,18.652,0,0,0-3.991,3.223q-2.061,1.965-4.082,3.972c-2.638,2.634-5.2,5.349-7.621,8.181a61.875,61.875,0,0,0-6.025,7.974,38.867,38.867,0,0,0-3.77,8.541,20,20,0,0,0-.876,5.282,27.911,27.911,0,0,1-.315,4.923,15.576,15.576,0,0,1-1.938,4.092c-1.018,1.795-2.042,3.585-2.936,5.448a2.465,2.465,0,0,0,.861,3.283,2.421,2.421,0,0,0,3.284-.861Z"/><path class="c" d="M276.02,206.646c7.1-1.589,14.355-2.474,21.459-4.058,2.857-.637,5.263-2.366,7.862-3.621,2.869-1.386,5.636-2.98,8.55-4.273a25.939,25.939,0,0,1,3.841-1.372,4.026,4.026,0,0,1,1.533-.225,18.146,18.146,0,0,0,2.487.424c1.21-.026,2.167-.815,3.388-.989a15.292,15.292,0,0,1,3.641,0,5.814,5.814,0,0,1,2.692.745,3.9,3.9,0,0,1,1.4,1.538,4.186,4.186,0,0,1,.271.868c.026.1.085.606.041.189a7.524,7.524,0,0,1-.4,3.186c-1.142,3.754-3.874,7.327-6.752,10.1a66.712,66.712,0,0,1-5.251,4.273c-2.276,1.787-4.562,3.565-6.937,5.219a59.9,59.9,0,0,1-15.092,7.94c-6.439,2.133-13.073,3.544-19.3,6.32a21.2,21.2,0,0,0-5.963,4.367,19.924,19.924,0,0,0-4.74,8.189c-.934,2.952,3.7,4.216,4.629,1.276a15.353,15.353,0,0,1,5.323-7.662,17.407,17.407,0,0,1,3.773-2.286c1.917-.805,3.894-1.475,5.874-2.108,3.938-1.259,7.972-2.22,11.889-3.539a59.845,59.845,0,0,0,11.427-5.433,96.943,96.943,0,0,0,9.629-6.649,95.512,95.512,0,0,0,8.128-6.513c4.139-3.987,8.468-9.833,8.583-15.822a8.738,8.738,0,0,0-5.043-8.107,14.639,14.639,0,0,0-6.169-.98,12.027,12.027,0,0,0-6.131,1.4l1.211-.328c-.773.025-1.732-.361-2.576-.42a9.571,9.571,0,0,0-3.251.508,39.5,39.5,0,0,0-6.382,2.587c-1.958.956-3.871,2-5.821,2.973-1.9.946-3.729,2.086-5.658,2.958a27.794,27.794,0,0,1-6.35,1.475c-2.964.547-5.93,1.081-8.894,1.627-2.739.5-5.488.985-8.206,1.593-3.013.674-1.738,5.3,1.276,4.628Z"/><path class="c" d="M289.223,212.577c-3.576.583-7.333.8-10.955,1.542a22.014,22.014,0,0,0-10.3,4.857,2.4,2.4,0,0,0,3.395,3.4c5.115-4.5,12.786-4.129,19.138-5.166a2.417,2.417,0,0,0,1.676-2.952,2.456,2.456,0,0,0-2.952-1.676Z"/><path class="c" d="M317.8,193.136a37.279,37.279,0,0,1-8.6,6.262,57.843,57.843,0,0,1-9.465,4.3,2.46,2.46,0,0,0-1.677,2.952,2.423,2.423,0,0,0,2.953,1.676,66.02,66.02,0,0,0,10.612-4.788,42.272,42.272,0,0,0,9.571-7.012c2.165-2.207-1.226-5.6-3.395-3.394Z"/><path class="c" d="M324.14,197.818a13.883,13.883,0,0,1-1.76,1.745c-.214.182-.433.359-.652.536-.564.452.374-.277-.223.172q-.669.5-1.356.982c-2.046,1.427-4.182,2.726-6.345,3.968q-3.123,1.791-6.34,3.412c-.845.424-1.695.84-2.553,1.238-.314.146-.633.283-.948.428-.538.247.426-.159.022-.007-.137.051-.272.109-.408.162a2.47,2.47,0,0,0-1.677,2.952,2.418,2.418,0,0,0,2.953,1.676,83.081,83.081,0,0,0,11.374-5.717c2.234-1.282,4.44-2.625,6.547-4.109a23.512,23.512,0,0,0,4.76-4.044,2.47,2.47,0,0,0,0-3.394,2.418,2.418,0,0,0-3.394,0Z"/><path class="c" d="M1.981,313.319A19.556,19.556,0,0,0,7.4,314.552c3.24.462,6.494.823,9.75,1.151q10.638,1.074,21.317,1.746c2.5.158,5.006.341,7.51.346,3.089.006,3.094-4.794,0-4.8-5.324-.011-10.677-.535-15.98-.951-6.865-.538-13.737-1.128-20.566-2.016-.472-.062-.066-.009.025,0l-.589-.082q-.552-.078-1.1-.161c-.58-.089-1.158-.183-1.734-.29-.423-.079-.846-.162-1.263-.267-.391-.1-1.19-.435-.366-.058a2.471,2.471,0,0,0-3.283.861,2.42,2.42,0,0,0,.861,3.284Z"/><path class="c" d="M11.607,313.247c-1.188,13.832-2.2,27.7-2.895,41.568-.132,2.65-.329,5.333-.216,7.987.13,3.078,4.931,3.094,4.8,0-.253-5.946.416-12.016.8-17.944q.771-12.011,1.71-24.011c.2-2.534.387-5.068.605-7.6a2.419,2.419,0,0,0-2.4-2.4,2.449,2.449,0,0,0-2.4,2.4Z"/><path class="c" d="M5.711,298.239c9.155.9,18.31,1.818,27.482,2.525,2.342.181,4.688.362,7.036.438,3.09.1,3.086-4.7,0-4.8-9.981-.325-19.975-1.533-29.908-2.507q-2.305-.226-4.61-.456a2.417,2.417,0,0,0-2.4,2.4,2.452,2.452,0,0,0,2.4,2.4Z"/><path class="d" d="M99.226,200.432c-6.85-9.341-10.508-16-16.254-25.354a41.427,41.427,0,0,1,8.441-11.4,83.931,83.931,0,0,0,24.221,16.88c.5.227,1.06.5,1.222,1.031a1.947,1.947,0,0,1-.28,1.368C116.262,183.6,101.515,197.614,99.226,200.432Z"/><path class="d" d="M138.831,200.432c6.849-9.341,10.508-16,16.254-25.354a41.448,41.448,0,0,0-8.441-11.4,83.931,83.931,0,0,1-24.221,16.88c-.5.227-1.06.5-1.222,1.031a1.942,1.942,0,0,0,.28,1.368C121.8,183.6,136.542,197.614,138.831,200.432Z"/><path class="c" d="M101.3,199.22c-5.943-8.124-11-16.785-16.254-25.353v2.422a40.123,40.123,0,0,1,8.065-10.918H89.716a85.68,85.68,0,0,0,12.389,10.262q3.159,2.166,6.5,4.044,1.668.935,3.38,1.79.838.418,1.686.815c.249.116.5.225.747.344a3.743,3.743,0,0,1,.452.227q.344.193-.091-.056l-.327-1.212c.064.5.559-.4.234-.093-.184.171-.347.373-.521.553-.56.58-1.133,1.147-1.7,1.715-1.8,1.784-3.613,3.552-5.422,5.326a127.538,127.538,0,0,0-9.513,9.649,2.47,2.47,0,0,0,0,3.394,2.419,2.419,0,0,0,3.394,0,75.657,75.657,0,0,1,5.261-5.456c2.554-2.539,5.134-5.053,7.7-7.576a40.6,40.6,0,0,0,4.525-4.619,4.375,4.375,0,0,0,.844-2.893c-.126-1.778-1.5-2.681-2.971-3.361a79.145,79.145,0,0,1-7.688-4.111A80.618,80.618,0,0,1,93.11,161.976a2.446,2.446,0,0,0-3.394,0,42.3,42.3,0,0,0-7.391,9.325c-.5.833-1.013,1.686-1.425,2.566-.614,1.31-.095,2.264.607,3.414q1.545,2.526,3.069,5.063c3.971,6.585,8.035,13.088,12.578,19.3a2.471,2.471,0,0,0,3.284.861A2.42,2.42,0,0,0,101.3,199.22Z"/><path class="c" d="M140.9,201.643c4.543-6.211,8.607-12.714,12.578-19.3q1.47-2.436,2.948-4.867c.747-1.222,1.4-2.181.728-3.61-.413-.881-.93-1.732-1.426-2.566a42.212,42.212,0,0,0-7.39-9.325,2.443,2.443,0,0,0-3.394,0,80.015,80.015,0,0,1-13.627,10.977,82.169,82.169,0,0,1-7.675,4.37,23.822,23.822,0,0,0-3.3,1.665,3.666,3.666,0,0,0-1.208,4.559c.763,1.859,2.8,3.356,4.2,4.728,2.531,2.492,5.076,4.97,7.6,7.469a87.044,87.044,0,0,1,6.2,6.385,2.418,2.418,0,0,0,3.394,0,2.455,2.455,0,0,0,0-3.394,127.362,127.362,0,0,0-9.514-9.649c-1.808-1.774-3.622-3.542-5.421-5.326-.572-.568-1.145-1.135-1.7-1.715-.175-.18-.338-.382-.521-.553-.325-.3.17.593.234.093l-.328,1.212-.239.139a3.7,3.7,0,0,1,.448-.238c.234-.116.475-.219.712-.329q.849-.393,1.686-.808,1.712-.847,3.38-1.779,3.441-1.917,6.692-4.149a85.68,85.68,0,0,0,12.389-10.262h-3.394a40.123,40.123,0,0,1,8.065,10.918v-2.422c-5.258,8.568-10.311,17.229-16.254,25.353a2.418,2.418,0,0,0,.861,3.284A2.456,2.456,0,0,0,140.9,201.643Z"/><path class="c" d="M116.644,182.68c0,7.322-.058,14.645-.1,21.968q-.108,21.032-.227,42.062-.136,24.5-.275,48.99-.12,21.354-.238,42.707c-.042,7.74-.094,15.479-.115,23.219q0,.434,0,.867c0,3.089,4.8,3.094,4.8,0,0-6.689.06-13.378.095-20.066q.111-20.546.228-41.092.138-24.466.275-48.935.121-21.785.238-43.57c.043-8.333.1-16.666.115-25q0-.576,0-1.151c0-3.089-4.8-3.094-4.8,0Z"/><path class="c" d="M199.014,221.173c-2.409,18.954-5.224,37.856-8.03,56.755q-1.213,8.177-2.433,16.354c-.817,5.487-1.873,11-2.439,16.514a38.174,38.174,0,0,0,.183,6.759c.3,3.818.71,7.626,1.146,11.43,1.317,11.493,2.887,22.956,4.441,34.418a2.416,2.416,0,0,0,2.953,1.677,2.465,2.465,0,0,0,1.676-2.953c-1.369-10.088-2.736-20.178-3.937-30.288-.483-4.062-.943-8.129-1.305-12.2a67.748,67.748,0,0,1-.419-7.85c.006-.2.019-.4.027-.6,0-.1.055-.7,0-.173-.076.8.122-.811.115-.763l.145-.982.363-2.443q.624-4.214,1.251-8.426,1.227-8.247,2.455-16.493,2.262-15.224,4.468-30.454c1.447-10.085,2.851-20.177,4.135-30.283a2.412,2.412,0,0,0-2.4-2.4,2.461,2.461,0,0,0-2.4,2.4Z"/><path class="c" d="M180.35,241.306h-27.2a2.435,2.435,0,0,0-2.4,2.4c0,3.183.042,6.366.044,9.549a2.435,2.435,0,0,0,2.4,2.4c9.053,0,18.106.043,27.158.044a2.434,2.434,0,0,0,2.4-2.4c0-3.183-.182-6.414,0-9.593.178-3.086-4.623-3.076-4.8,0-.182,3.179,0,6.41,0,9.593l2.4-2.4c-9.052,0-18.1-.043-27.158-.044l2.4,2.4c0-3.183-.042-6.366-.044-9.549l-2.4,2.4h27.2C183.439,246.106,183.444,241.306,180.35,241.306Z"/><path class="c" d="M110.057,134.652a21.215,21.215,0,0,0,10.223,2.36c3.638-.023,7.341-.728,10.258-3a2.413,2.413,0,0,0,0-3.394,2.46,2.46,0,0,0-3.394,0c.71-.554.095-.086-.087.031-.208.133-.423.256-.641.371-.152.08-.905.394-.306.166-.294.111-.585.225-.885.321a15.228,15.228,0,0,1-5.278.7,15.806,15.806,0,0,1-5.037-.678c-.324-.1-.64-.213-.959-.322-.1-.036-.2-.09-.309-.121.59.173.169.076.013,0q-.6-.28-1.175-.587a2.453,2.453,0,0,0-3.284.861,2.427,2.427,0,0,0,.861,3.284Z"/><path class="c" d="M119.194,110.4a48.886,48.886,0,0,1,1.146,5.24l-.086-.638a3.18,3.18,0,0,1,.02.723l.085-.638a1.741,1.741,0,0,1-.079.326l.242-.574a1.379,1.379,0,0,1-.115.21l.375-.486a1.139,1.139,0,0,1-.171.169l.486-.376a3.506,3.506,0,0,1-.415.22l.573-.242a3.039,3.039,0,0,1-.7.2l.638-.086a2.716,2.716,0,0,1-.656,0l.638.086c-.248-.035-.491-.095-.739-.128a2.655,2.655,0,0,0-1.849.242,2.4,2.4,0,0,0-.861,3.283,2.292,2.292,0,0,0,1.434,1.1c.539.073,1.061.211,1.608.235a5.085,5.085,0,0,0,2.336-.551,3.313,3.313,0,0,0,1.854-2.19,5.617,5.617,0,0,0-.026-2.39c-.285-1.688-.675-3.362-1.109-5.017a2.4,2.4,0,1,0-4.629,1.276Z"/><path class="c" d="M91.208,95.63c-.875,2.844-.3,9.386,5.083,9.943,7.121-.043,7.5-7.952,5.1-11.671C99.432,90.857,93.66,89.59,91.208,95.63Z"/><path class="c" d="M148.233,95.63c.876,2.844.306,9.386-5.082,9.943-7.121-.043-7.5-7.953-5.1-11.672C140.01,90.857,145.781,89.591,148.233,95.63Z"/></svg>