<?xml version="1.0" encoding="utf-8"?>
<!-- Uploaded to: SVG Repo, www.svgrepo.com, Generator: SVG Repo Mixer Tools -->
<svg width="800px" height="800px" viewBox="-93.79 0 469.796 469.796" xmlns="http://www.w3.org/2000/svg"><defs><style>.a{fill:#ffffff;}.b{fill:#211715;}.c{fill:#7a7473;}.d{fill:#bdbdbd;}.e{fill:#6dbf6b;}.f{fill:#d9d9d9;}</style></defs><path class="a" d="M269.239,283.437A4.915,4.915,0,0,1,268.5,283c-.46-.34-.77-1.8-.36-3.6,1.49-6.51,1.15-6.14,1.39-12.56a20.512,20.512,0,0,0-.46-5.54,16.2,16.2,0,0,0-2.21,2.41c-.46.54-1.45,1.47-2.1,2.1a2.074,2.074,0,0,1-3.49-1.66,143.324,143.324,0,0,1,3.4-21.61l.4-2.8c2.836-.316,6.707-.762,9.858-1.185.23,6.641,2.34,13.052,3.84,19.532,1.54,6.66,2.39,12.79-.1,19.16a13.681,13.681,0,0,1-1.89,3.46C275.174,282.8,272.048,284.793,269.239,283.437Z"/><path class="a" d="M261.2,237.828c-.178-1.958-.358-3.847-.54-5.7l.636-.072,16.01-1.815c.23,3.528.409,6.416.479,7.905-4.848.76-14.655,1.81-16.378,1.99Q261.3,238.964,261.2,237.828Z"/><path class="a" d="M209.371,105.8l-1.008,0a5.677,5.677,0,0,0,.468-.685,1.072,1.072,0,0,0,.154-.753c-.089-.29-.4-.443-.673-.568A46.19,46.19,0,0,1,194.979,94.5a22.229,22.229,0,0,0-4.218,5.477c1.308,4.254,3.389,10.79,5.946,18.113,5,14.315,11.843,30.291,15.529,38.249l1.025,1.877a340.674,340.674,0,0,0,13.461-37.5c2.313-7.762,4.1-16.612,4.91-20.956a21.962,21.962,0,0,0-4.092-5.26,46.208,46.208,0,0,1-13.334,9.293c-.276.125-.583.278-.672.568a1.072,1.072,0,0,0,.154.753,5.63,5.63,0,0,0,.46.674Z"/><path class="a" d="M237.445,420.809a30.541,30.541,0,0,0,3.458,13.93l-22.178-.43.085-12.46Z"/><path class="a" d="M188.666,420.809a30.528,30.528,0,0,1-3.458,13.93l22.178-.43-.085-12.46Z"/><path class="b" d="M186.42,420.809a28.713,28.713,0,0,1-3.184,12.921,2.046,2.046,0,0,0,.717,2.736,2.021,2.021,0,0,0,2.737-.717,33.156,33.156,0,0,0,3.73-14.94,2,2,0,0,0-4,0Z"/><path class="b" d="M205.055,421.849l.086,12.46a2,2,0,0,0,4,0l-.086-12.46a2,2,0,0,0-4,0Z"/><path class="c" d="M165.816,463.33q-.174-.227-.329-.47a8.8,8.8,0,0,1-.583-7.379,24.183,24.183,0,0,1,3.787-6.608q5.482-7.486,11.588-14.49c1.586-1.82,3.38-3.716,5.752-4.164a3.568,3.568,0,0,0,1.774,3.742,8.365,8.365,0,0,0,4.278.966,23.741,23.741,0,0,0,16.619-6.614c-.027,5,.023,6.663,0,11.664a10.48,10.48,0,0,1-.438,3.607c-1.028,2.78-4.076,4.119-6.522,5.792-6.363,4.355-9.714,12.3-16.382,16.171a17.211,17.211,0,0,1-15.914.57A10.026,10.026,0,0,1,165.816,463.33Z"/><path class="b" d="M235.445,420.809a33.17,33.17,0,0,0,3.731,14.94,2,2,0,0,0,3.454-2.019,28.7,28.7,0,0,1-3.185-12.921,2,2,0,0,0-4,0Z"/><path class="b" d="M216.81,421.849l-.085,12.46a2,2,0,0,0,4,0l.085-12.46a2,2,0,0,0-4,0Z"/><path class="c" d="M260.05,463.33q.174-.227.329-.47a8.808,8.808,0,0,0,.582-7.379,24.157,24.157,0,0,0-3.787-6.608q-5.481-7.486-11.587-14.49c-1.587-1.82-3.38-3.716-5.753-4.164a3.568,3.568,0,0,1-1.773,3.742,8.37,8.37,0,0,1-4.278.966,23.746,23.746,0,0,1-16.62-6.614c.028,5-.022,6.663,0,11.664a10.48,10.48,0,0,0,.438,3.607c1.028,2.78,4.076,4.119,6.521,5.792,6.364,4.355,9.715,12.3,16.383,16.171a17.21,17.21,0,0,0,15.913.57A10.03,10.03,0,0,0,260.05,463.33Z"/><path class="b" d="M167.543,462.321c-1.765-2.411-1.3-5.449-.01-7.976a55.587,55.587,0,0,1,5.738-8.271q3.174-4.14,6.56-8.112c1.828-2.153,3.806-5.162,6.732-5.814l-2.46-2.461a5.828,5.828,0,0,0,3.883,6.568c2.632,1.032,5.781.761,8.511.323a25.442,25.442,0,0,0,13.619-6.851l-3.414-1.414c-.022,4.261.165,8.554-.021,12.81-.093,2.138-1.178,3.407-2.892,4.565a57.814,57.814,0,0,0-5.2,3.609c-6.047,5.129-9.633,13.857-17.854,16-4.468,1.166-10.438.409-13.5-3.383a2.012,2.012,0,0,0-2.828,0,2.047,2.047,0,0,0,0,2.829c3.109,3.849,8.92,5.341,13.676,5.006a20.353,20.353,0,0,0,12.98-6.145c3.2-3.156,5.678-6.959,8.877-10.118a31.092,31.092,0,0,1,5.264-3.947,11.806,11.806,0,0,0,4.659-4.621c1.259-2.721.855-6.042.848-8.965-.006-2.547-.017-5.095,0-7.642a2.022,2.022,0,0,0-3.414-1.414,21.433,21.433,0,0,1-9.4,5.292,20.486,20.486,0,0,1-6.213.725c-1.137-.045-4.061-.4-3.718-2.165a2.028,2.028,0,0,0-2.46-2.461c-3.578.8-5.931,3.834-8.189,6.481q-4.028,4.72-7.783,9.662c-4.039,5.3-10.39,13.142-5.439,19.907a2.059,2.059,0,0,0,2.736.717A2.015,2.015,0,0,0,167.543,462.321Z"/><path class="b" d="M261.777,464.34c4.95-6.764-1.4-14.611-5.44-19.907q-3.763-4.932-7.782-9.662c-2.258-2.648-4.611-5.682-8.189-6.481a2.028,2.028,0,0,0-2.46,2.461c.342,1.766-2.586,2.12-3.719,2.165a20.458,20.458,0,0,1-6.213-.725,21.43,21.43,0,0,1-9.4-5.292,2.023,2.023,0,0,0-3.415,1.414c.012,2.268.006,4.537,0,6.805a47.949,47.949,0,0,0,.189,7.676c.812,5.082,5.968,6.587,9.376,9.571,3.39,2.967,5.9,6.763,8.939,10.057,3.234,3.5,7.2,6.272,11.985,7.07,5.371.894,12.207-.283,15.813-4.747a2.061,2.061,0,0,0,0-2.829,2.015,2.015,0,0,0-2.828,0c-2.682,3.32-7.739,4.32-11.788,3.739-4.286-.615-7.624-3.079-10.478-6.2-2.743-3-5.056-6.374-8-9.183a30.345,30.345,0,0,0-4.906-3.7c-1.437-.9-3.228-1.88-3.929-3.522a11.05,11.05,0,0,1-.371-4.221q0-1.774,0-3.548c.008-2.324.014-4.647,0-6.97l-3.414,1.414a25.448,25.448,0,0,0,13.62,6.851c2.665.427,5.737.7,8.324-.252a5.867,5.867,0,0,0,4.07-6.639l-2.46,2.461c2.862.638,4.785,3.526,6.578,5.632q3.458,4.063,6.713,8.294a57.651,57.651,0,0,1,5.643,8.083c1.343,2.571,1.9,5.682.086,8.164a2.015,2.015,0,0,0,.717,2.736A2.046,2.046,0,0,0,261.777,464.34Z"/><path class="d" d="M256.9,234.69c-1.631,17.4-2.948,50.728-4.62,78.508-1.986,33-2.8,106.105-3.245,113.47-4.933,1.645-26.926,1.411-36.319-.542l-.625.116c-11.441,2.187-30.624,2.071-35.557.426-.445-7.365-1.259-80.473-3.245-113.47-1.687-28.02-3.524-62.155-5.175-79.424l44.452-25.34Z"/><path class="b" d="M211.559,424.313a109.9,109.9,0,0,1-19.687,1.579c-3.011.017-6.028-.045-9.032-.268a22.969,22.969,0,0,1-5.774-.885l1.468,1.929c-.4-6.678-.36-13.4-.493-20.086q-.373-18.783-.79-37.565c-.315-13.344-.669-26.688-1.2-40.025-.574-14.413-1.53-28.809-2.38-43.207-.942-15.95-1.824-31.914-3.181-47.836q-.178-2.088-.376-4.175a2.055,2.055,0,0,0-2-2,2.015,2.015,0,0,0-2,2c1.436,15.085,2.257,30.235,3.161,45.358.91,15.208,1.939,30.417,2.6,45.638.569,13.1.932,26.209,1.256,39.318q.476,19.254.83,38.512c.152,7.68.215,15.37.524,23.046.013.341.028.681.048,1.022A2.076,2.076,0,0,0,176,428.6a28.745,28.745,0,0,0,6.559,1.007c3.1.241,6.206.306,9.31.289a115.967,115.967,0,0,0,20.751-1.721c2.526-.476,1.456-4.332-1.064-3.858Z"/><path class="b" d="M254.942,234.242c-1.441,15.164-2.061,30.414-2.85,45.621-.784,15.107-1.766,30.208-2.417,45.32-.563,13.073-.924,26.154-1.246,39.234q-.472,19.156-.825,38.315c-.151,7.636-.214,15.282-.521,22.914-.013.341-.028.681-.048,1.022l1.468-1.929a12.934,12.934,0,0,1-1.908.429c-.631.1-1.357.179-2.307.261-2.357.2-4.725.282-7.09.316a164.564,164.564,0,0,1-16.543-.562,64.473,64.473,0,0,1-7.407-.985c-2.513-.514-3.587,3.341-1.063,3.857a96.587,96.587,0,0,0,15.388,1.557,138.3,138.3,0,0,0,16.109-.134,25.661,25.661,0,0,0,5.884-.882,2.074,2.074,0,0,0,1.469-1.928c.394-6.637.359-13.318.491-19.962q.369-18.6.78-37.2c.314-13.316.665-26.631,1.189-39.94.564-14.341,1.5-28.665,2.249-43,.834-16.034,1.518-32.092,2.825-48.1q.174-2.118.373-4.233a2.014,2.014,0,0,0-2-2,2.043,2.043,0,0,0-2,2Z"/><path class="b" d="M210.933,282.557c-.538,5.888-.468,11.849-.464,17.755,0,7.1.111,14.209.176,21.314.075,8.029.021,16.06,0,24.09q-.033,16.512-.062,33.024-.024,15.762-.013,31.524.008,5.4.038,10.792c.012,1.634-.053,3.3.082,4.931a2.29,2.29,0,0,0,1.012,1.866,2.011,2.011,0,0,0,2.736-.717,2.051,2.051,0,0,0-.717-2.737h0l.717.717c.119.22.245,1.377.243.66,0-.266-.018-.533-.024-.8-.021-.935-.029-1.87-.038-2.805-.03-3.287-.037-6.575-.044-9.863q-.032-15.25,0-30.5.024-16.612.061-33.227c.016-7.719.066-15.439.029-23.158-.062-13.175-.6-26.4.037-39.565.054-1.1.123-2.2.223-3.3a2.016,2.016,0,0,0-2-2,2.042,2.042,0,0,0-2,2Z"/><path class="a" d="M279.6,217.5c-1.378-28.332-3.326-58.34-4.7-85.758-.32-6.378-1.472-11.273-7.785-16.312-1.479-1.18-3.554-1.515-5.216-2.419A259.588,259.588,0,0,0,231.851,98.58a156.405,156.405,0,0,1-5.129,22.135,322.466,322.466,0,0,1-13.463,37.538.482.482,0,0,1,.02-.079l-1.043-1.836c-3.686-7.958-10.533-23.934-15.529-38.249-2.58-7.389-4.675-13.976-5.981-18.227a270.4,270.4,0,0,0-26.869,13.151c-1.663.9-3.738,1.239-5.216,2.419-6.313,5.039-7.252,8.1-8.882,12.4-2.556,6.529-10.5,27.952-16.3,35.05l-6.222,29.185c4.12,2.017,14.033,4.044,18.518,1.629a27.263,27.263,0,0,0,11.852-12.74c4.3-8.889,5.481-13.482,8.79-21.736l-.01-.443.15.279c1.074,12.366,2.251,29.985,2.453,33.332.28,4.636-.462,9.26-.946,13.88-1.661,15.89-2.867,25.673-4.129,41.737,6.993,1.469,27.116,2.237,33.769-.743,7.572-3.391,13.2-24.488,14.593-32.509.033-.056.066-.113.1-.169,2.669,14.237,7.728,30.811,14.382,33.243,7.092,2.591,27.911,1.987,35.328.476-.475-6.071-.942-11.242-1.427-16.173l.636-.072,16.538-1.875a2.49,2.49,0,0,0,2.183-2.6C279.91,225.445,279.9,223.627,279.6,217.5Z"/><path class="a" d="M234.185,104.356c-.518-.228-2.443-.988-2.672-1.071-3.464-1.251-3.327-3.477-3.764-5.969a49,49,0,0,1-.769-8.1c6.974-3.95,12.418-13.134,13.427-15.872.163-.494.494-1.424.8-2.547l.617-.095a7.779,7.779,0,0,0,3.621-1.631,11.743,11.743,0,0,0,3.036-3.986,18.472,18.472,0,0,0,1.884-9.793,6.162,6.162,0,0,0-.645-2.48,4.361,4.361,0,0,0-3.136-2.085,4.617,4.617,0,0,0-3.695,1.081s1.681-27.6-31.431-27.6-30.547,27.6-30.547,27.6a4.617,4.617,0,0,0-3.695-1.081,4.359,4.359,0,0,0-3.135,2.085,6.163,6.163,0,0,0-.646,2.48,18.481,18.481,0,0,0,1.884,9.793,11.759,11.759,0,0,0,3.037,3.986,7.78,7.78,0,0,0,3.62,1.631l1.18.181a31.425,31.425,0,0,0,5.988,11.689,28.8,28.8,0,0,0,6.946,6.157c0,.107,0,.176,0,.2l-.083.528,0,.114a49.544,49.544,0,0,1-.767,7.744c-.436,2.492-.3,4.718-3.763,5.969-.23.083-1.667.685-2.091.866,0,0,1.115,14.876,20.67,14.876S234.185,104.356,234.185,104.356Z"/><path class="c" d="M177.5,39.525a34.779,34.779,0,0,1,14.141-26.28,34.985,34.985,0,0,1,40.93,0c6.66,4.8,13.61,13.36,14.19,27.21a62.41,62.41,0,0,1-.629,10.235,4.6,4.6,0,0,0-3.246,1.122l-1.816,1.639-.208-1.832c-.741-6.518-2.667-14.666-5.629-19.259-5.73-.521-15.26,2.815-23.408,3.852-8.444-1.185-15.654-3.924-21.185-3.407-3.778,3.889-6.519,13.407-7.963,19.407l-.237.983-1.532-1.383a4.5,4.5,0,0,0-2.619-1.1c.178,2.015-1.03-5.7-.838-10.254C177.464,40.142,177.481,39.832,177.5,39.525Z"/><path class="b" d="M244.3,53.226a2.54,2.54,0,0,1,3.615.476,5.29,5.29,0,0,1,.508,2.67A15.738,15.738,0,0,1,248.2,59.6c-.7,3.832-2.654,8.42-6.911,9.183a2.017,2.017,0,0,0-1.4,2.46,2.044,2.044,0,0,0,2.46,1.4c6.451-1.157,9.527-8.443,10.013-14.29.248-2.994.013-6.424-2.578-8.366a6.653,6.653,0,0,0-8.316.419,2.015,2.015,0,0,0,0,2.828,2.042,2.042,0,0,0,2.828,0Z"/><path class="b" d="M180.11,49.914c-1.18-7.6-.9-15.648,2.529-22.754a33.505,33.505,0,0,1,13.806-14.651c14.2-7.875,33.179-3.405,42.44,9.881a32.554,32.554,0,0,1,5.074,11.717c1.2,5.5.843,11.041.172,16.588a2.012,2.012,0,0,0,2,2,2.048,2.048,0,0,0,2-2,54.13,54.13,0,0,0-.039-16.273,36.228,36.228,0,0,0-4.5-12.119,36.649,36.649,0,0,0-67.851,14.73,50.383,50.383,0,0,0,.516,13.944,2.014,2.014,0,0,0,2.46,1.4,2.05,2.05,0,0,0,1.4-2.46Z"/><path class="b" d="M184.606,52.744A95.049,95.049,0,0,1,187.583,42.6c1.06-2.915,2.309-6.092,4.471-8.38l-1.414.586c3.434-.282,6.835.517,10.165,1.257,1.974.439,3.944.894,5.927,1.291a19.431,19.431,0,0,0,6.633.649c3.977-.585,7.881-1.564,11.8-2.416,3.282-.712,6.682-1.493,10.063-1.226l-1.727-.99c3.347,5.3,4.641,12.112,5.356,18.249a2.061,2.061,0,0,0,2,2,2.012,2.012,0,0,0,2-2c-.713-6.12-1.96-12.37-4.632-17.963-.645-1.351-1.323-3.125-3-3.3a18.263,18.263,0,0,0-3.783.094,81.091,81.091,0,0,0-8.974,1.635c-3.313.739-6.619,1.482-9.971,2.026-1.509.244-3.223-.322-4.71-.619-1.711-.342-3.412-.728-5.114-1.109a62.149,62.149,0,0,0-9.138-1.592c-1.137-.08-2.894-.313-3.913.283a9.091,9.091,0,0,0-2.463,3c-3.3,5.248-4.974,11.631-6.419,17.6-.6,2.5,3.251,3.569,3.858,1.064Z"/><path class="b" d="M239.774,67.268a17.444,17.444,0,0,1-1.017,4.715c-.091.278-.2.553-.279.834-.037.124-.2.479.023-.033-.142.33-.3.655-.459.976a39.658,39.658,0,0,1-3.414,5.487c-2.981,4.088-7.027,8.419-12.133,9.616-2.5.588-1.444,4.446,1.064,3.858,6.072-1.425,10.784-6.391,14.356-11.227,3.086-4.179,5.644-8.914,5.859-14.226.1-2.574-3.9-2.569-4,0Z"/><path class="b" d="M182.323,50.4a6.657,6.657,0,0,0-8.317-.419c-2.593,1.937-2.825,5.376-2.577,8.366.485,5.847,3.562,13.133,10.012,14.29a2.057,2.057,0,0,0,2.461-1.4,2.017,2.017,0,0,0-1.4-2.46c-4.258-.763-6.212-5.351-6.911-9.183a15.516,15.516,0,0,1-.225-3.044,6.056,6.056,0,0,1,.436-2.726,2.523,2.523,0,0,1,3.689-.6,2.055,2.055,0,0,0,2.829,0,2.017,2.017,0,0,0,0-2.828Z"/><path class="b" d="M180.23,66.987a35.875,35.875,0,0,0,7.637,17.169c4.3,5.087,9.984,8.767,16.683,9.491a2.014,2.014,0,0,0,2-2,2.046,2.046,0,0,0-2-2c-5.756-.622-10.566-4.3-14.137-8.658-3.521-4.294-5.382-9.659-6.325-15.065a2.017,2.017,0,0,0-2.461-1.4,2.046,2.046,0,0,0-1.4,2.46Z"/><path class="b" d="M272.931,238.555c.231,5.581,1.638,10.978,3.006,16.365,1.3,5.125,2.639,10.383,2.233,15.714a19.067,19.067,0,0,1-1.945,7.209c-.921,1.78-2.543,3.793-4.7,4.03a2.661,2.661,0,0,1-1.086-.105c-.4-.127-.607-.5-.4.011-.381-.947.125-2.259.328-3.176a44.445,44.445,0,0,0,.916-5.3A46.438,46.438,0,0,0,271,260.764c-.289-1.621-2.3-1.744-3.343-.883-1.549,1.284-2.714,3.022-4.2,4.4-.2.187-.127.236.026.091-.033.031-.258.018-.258-.034,0-.266.077.413.041-.04a24.074,24.074,0,0,1,.39-4.272,140.968,140.968,0,0,1,2.94-16.959c.588-2.5-3.268-3.572-3.857-1.063a130.272,130.272,0,0,0-3.452,21.9,4.127,4.127,0,0,0,5.261,4.29c2.577-.8,3.966-3.853,5.934-5.483l-3.343-.883a31.868,31.868,0,0,1,.332,6.706c-.048,1.7-.032,3.416-.225,5.11-.441,3.864-3.571,10.544,2.306,12.028,5.769,1.456,9.878-4.3,11.444-9,1.923-5.782,1.278-11.884.011-17.728-1.467-6.771-3.791-13.411-4.08-20.385-.106-2.564-4.106-2.578-4,0Z"/><path class="b" d="M275.3,230.235c.172,2.636.354,5.272.48,7.91l1.469-1.928c-2.926.455-5.744.783-8.94,1.153q-3.453.4-6.909.765a2.059,2.059,0,0,0-2,2,2.013,2.013,0,0,0,2,2c5.645-.591,11.3-1.188,16.912-2.061a2,2,0,0,0,1.468-1.929c-.126-2.638-.308-5.274-.48-7.91a2.047,2.047,0,0,0-2-2,2.018,2.018,0,0,0-2,2Z"/><path class="b" d="M194,89.572a45,45,0,0,1-.431,5.562c-.2,1.373-.358,2.806-.695,4.154-.031.125-.065.249-.1.373-.018.056-.159.47-.055.193s-.061.123-.09.178c-.073.138-.158.265-.24.4.141-.229.108-.117-.04.034-.1.1-.2.2-.3.3-.333.315.25-.1-.186.129-.151.08-.293.175-.444.254-.337.176-.756.322-1.218.513q-.915.379-1.826.767a2.012,2.012,0,0,0-.717,2.737,2.053,2.053,0,0,0,2.736.717c.251-.107.162-.068-.039.016l.446-.186q.435-.183.873-.362a15.224,15.224,0,0,0,2.038-.9,6.466,6.466,0,0,0,2.944-3.8,31.411,31.411,0,0,0,.756-4.315A53.569,53.569,0,0,0,198,89.572a2,2,0,0,0-4,0Z"/><path class="b" d="M224.983,89.572a53.643,53.643,0,0,0,.65,7.135,22.939,22.939,0,0,0,.82,4.307,6.493,6.493,0,0,0,3.391,3.729c.614.29,1.26.515,1.891.764.323.127.644.255.966.385l.455.184c.487.2-.238-.1.02.007a2.066,2.066,0,0,0,2.736-.717,2.016,2.016,0,0,0-.717-2.737c-1.039-.45-2.092-.872-3.15-1.272a5.381,5.381,0,0,1-.834-.415c-.11-.064-.367-.246-.137-.067a3.711,3.711,0,0,1-.382-.35c-.039-.041-.318-.4-.156-.17s-.115-.206-.142-.256c-.062-.112-.118-.226-.171-.342.207.456.015-.012-.011-.1a28.053,28.053,0,0,1-.722-4.017,45.553,45.553,0,0,1-.507-6.072,2,2,0,0,0-4,0Z"/><path class="c" d="M206.921,113.332c.061.258.123.516.188.774a6.81,6.81,0,0,1,.282,1.717c0,.618-3.824,31.575-4.537,37.51,1.755,2.431,7.176,10.07,9.736,12.392,2.233-2.154,6.992-9.172,8.964-12.3-.548-4.821-5.449-36.453-5.435-37.412a10.373,10.373,0,0,1,.669-3.048c.872-2.663,1.047-4.522,1.92-7.185-2.589,0-11.5.02-13.381.02C205.962,108.312,206.335,110.822,206.921,113.332Z"/><path class="b" d="M207.478,117.759c2.881,0,5.76-.064,8.641-.065a2,2,0,0,0,0-4c-2.881,0-5.76.064-8.641.065a2,2,0,0,0,0,4Z"/><path class="b" d="M204.993,113.864a8.019,8.019,0,0,1,.275,3.12c-.142,1.247-.292,2.493-.441,3.739q-.711,5.931-1.439,11.861-.789,6.474-1.583,12.946-.314,2.562-.626,5.126c-.16,1.313-.609,2.791.146,3.961,1.417,2.2,3.086,4.28,4.668,6.357a46.871,46.871,0,0,0,5.182,6.165,2.039,2.039,0,0,0,2.829,0,45.555,45.555,0,0,0,4.893-6.189q1.281-1.8,2.509-3.642a17.64,17.64,0,0,0,1.976-3.11c.467-1.2-.115-3-.288-4.234q-.373-2.667-.77-5.33c-1.251-8.515-2.567-17.021-3.8-25.539q-.153-1.058-.3-2.116a1.524,1.524,0,0,1-.033-.252c-.019-.162-.049-.326-.059-.489A11.073,11.073,0,0,1,219,112.59c.607-2.078.981-4.212,1.639-6.277a2.017,2.017,0,0,0-1.929-2.531c-4.46,0-8.92.02-13.381.02a2.024,2.024,0,0,0-1.928,2.532c.615,2.492,1.022,5.028,1.594,7.53s4.43,1.446,3.857-1.064-.979-5.037-1.594-7.529l-1.929,2.531c4.461,0,8.921-.02,13.381-.02l-1.928-2.532c-.461,1.447-.8,2.918-1.148,4.394-.38,1.588-1.009,3.133-1.317,4.733a7.679,7.679,0,0,0-.08,2.66c.322,2.453.693,4.9,1.055,7.346,1.07,7.221,2.168,14.438,3.228,21.66q.352,2.407.695,4.818c.045.316.089.633.133.949.013.1.026.193.04.29.082.592-.026-.2.018.131.052.4.1.8.15,1.2l.273-1.009c-1.368,2.162-2.8,4.283-4.283,6.371a40.3,40.3,0,0,1-4.369,5.522H214c-3.688-3.413-6.5-7.933-9.423-11.987l.273,1.009c1.372-11.4,2.809-22.8,4.163-34.206.1-.868.208-1.736.3-2.6a10.816,10.816,0,0,0-.471-3.723C208.254,110.3,204.4,111.357,204.993,113.864Z"/><path class="a" d="M221.938,115.335c4.282-4.255,7.086-9.41,10.249-14.558A22.812,22.812,0,0,0,227.54,94.5a46.208,46.208,0,0,1-13.334,9.293c-.276.125-.583.278-.672.568a1.072,1.072,0,0,0,.154.753,43.207,43.207,0,0,0,2.758,3.561C218.322,110.97,220.678,113.783,221.938,115.335Z"/><path class="a" d="M200.581,115.335c-4.282-4.255-7.086-9.41-10.249-14.558a22.812,22.812,0,0,1,4.647-6.278,46.19,46.19,0,0,0,13.333,9.293c.276.125.584.278.673.568a1.072,1.072,0,0,1-.154.753,43.453,43.453,0,0,1-2.758,3.561C204.2,110.97,201.841,113.783,200.581,115.335Z"/><path class="b" d="M223.352,116.749a59.516,59.516,0,0,0,8.37-11.348c.6-.994,1.2-1.991,1.806-2.984a2.9,2.9,0,0,0,.623-1.905,5.219,5.219,0,0,0-.817-1.8,24.269,24.269,0,0,0-4.38-5.623,2.035,2.035,0,0,0-2.828,0,43.438,43.438,0,0,1-7.17,5.811c-1.259.816-2.556,1.574-3.889,2.262-1.266.653-3.034,1.117-3.462,2.67a3.63,3.63,0,0,0,.947,3.142c.865,1.149,1.779,2.262,2.69,3.375,1.753,2.141,3.535,4.258,5.282,6.4a2.013,2.013,0,0,0,2.828,0,2.047,2.047,0,0,0,0-2.829c-1.458-1.791-2.942-3.561-4.41-5.343-.827-1-1.654-2.008-2.463-3.025-.229-.287-.459-.573-.675-.87-.095-.129-.185-.286-.289-.408-.177-.209.045-.247.019.086l-.273,1.009q-.5.409-.045.15l.31-.143c.313-.147.625-.3.935-.448q.949-.471,1.875-.988,1.908-1.064,3.71-2.3a48.282,48.282,0,0,0,6.908-5.722h-2.828a21.847,21.847,0,0,1,4.334,5.874V99.768c-3.019,4.924-5.83,10.025-9.936,14.152C218.706,115.747,221.533,118.577,223.352,116.749Z"/><path class="b" d="M202,113.92c-4.106-4.127-6.918-9.228-9.936-14.152v2.019a21.847,21.847,0,0,1,4.334-5.874h-2.829a48.535,48.535,0,0,0,6.909,5.722q1.8,1.237,3.71,2.3.849.474,1.718.91.465.233.936.453c.154.073.31.145.466.216q.452.259-.045-.15l-.273-1.009c-.022-.285.216-.318.018-.086-.086.1-.154.223-.231.331-.233.324-.484.635-.732.947-.81,1.017-1.636,2.022-2.463,3.025-1.469,1.782-2.953,3.552-4.41,5.343a2.059,2.059,0,0,0,0,2.829,2.014,2.014,0,0,0,2.828,0c1.711-2.1,3.457-4.177,5.175-6.273.922-1.126,1.843-2.253,2.725-3.411a3.723,3.723,0,0,0,1.019-3.237c-.416-1.509-2.074-1.961-3.306-2.59q-2-1.023-3.892-2.243a43.547,43.547,0,0,1-7.323-5.91,2.037,2.037,0,0,0-2.829,0,24.248,24.248,0,0,0-4.293,5.472,7.735,7.735,0,0,0-.868,1.689,2.676,2.676,0,0,0,.588,2.171c.6.993,1.2,1.99,1.8,2.984a59.521,59.521,0,0,0,8.371,11.348C200.985,118.576,203.814,115.748,202,113.92Z"/><path class="b" d="M232.627,101.035q9.093,3.7,17.835,8.178c2.86,1.459,5.695,2.967,8.52,4.493a34.456,34.456,0,0,0,4.146,2,11.208,11.208,0,0,1,3.733,2.117,17,17,0,0,1,4.584,6.088,21.8,21.8,0,0,1,1.4,6.955c.447,6.847.718,13.711,1.1,20.563.8,14.42,1.661,28.836,2.459,43.256q.591,10.7,1.126,21.405c.133,2.687.258,5.376.352,8.065.036,1.029.509,3.262-.168,4.007-.155.171.256-.028-.007.03-.14.03-.295.033-.437.049l-1.844.209-5.62.637-8.517.966a2.06,2.06,0,0,0-2,2,2.013,2.013,0,0,0,2,2c5.472-.621,10.95-1.2,16.418-1.861a4.61,4.61,0,0,0,4.3-4.61c.013-1.667-.122-3.355-.187-5.02-.274-7.062-.673-14.121-1.053-21.177-.813-15.081-1.709-30.157-2.56-45.235q-.624-11.064-1.2-22.13c-.286-5.586-.72-11.069-4.229-15.681a23.908,23.908,0,0,0-3.577-3.764,14.89,14.89,0,0,0-4.651-2.591c-3.422-1.281-6.628-3.4-9.869-5.089q-10.275-5.346-21-9.719a2.014,2.014,0,0,0-2.461,1.4,2.051,2.051,0,0,0,1.4,2.46Z"/><path class="b" d="M218.164,174.508a5.046,5.046,0,0,1,.04-.6l-.071.532a5.353,5.353,0,0,1,.226-.875c-.217.67-.086.2.031.006.039-.064.082-.126.123-.189.176-.269-.375.412-.1.138.075-.075.5-.438.17-.187-.306.237-.046.042.029-.005s.146-.081.218-.123c.339-.2-.36.117-.161.06.087-.025.172-.062.259-.088a4.432,4.432,0,0,1,.624-.13l-.532.071a4.715,4.715,0,0,1,1.181,0l-.532-.071a4.21,4.21,0,0,1,.567.123c.086.026.17.065.257.088-.557-.145-.328-.146-.16-.059q.112.059.219.126c.322.2-.109-.037-.137-.123.029.089.307.289.375.36.263.272-.218-.33-.117-.156.04.068.089.132.13.2s.076.14.115.209c.189.335-.136-.383-.071-.184a5.76,5.76,0,0,1,.254,1l-.072-.532a4.629,4.629,0,0,1,.016,1.122l.071-.532a7.6,7.6,0,0,1-.218.846c.154-.6.159-.354.056-.156q-.049.1-.1.189c-.038.063-.079.122-.119.183-.174.268.374-.422.107-.141-.114.121-.237.231-.354.348.39-.391.316-.233.151-.122-.079.053-.161.1-.245.149-.168.091-.462.146.129-.037-.085.026-.167.063-.253.09a4.225,4.225,0,0,1-.658.146l.531-.072a4.976,4.976,0,0,1-1.157.012l.531.071a3.652,3.652,0,0,1-.635-.138c-.188-.061-.332-.2.158.078-.071-.04-.148-.071-.22-.111s-.206-.169-.268-.171c.075,0,.441.368.165.119-.056-.051-.111-.1-.163-.16s-.285-.347-.037-.026-.069-.127-.125-.23c-.035-.064-.066-.13-.1-.2-.145-.288.2.541.076.177a5.3,5.3,0,0,1-.228-.919l.071.531a5.12,5.12,0,0,1-.045-.643,2,2,0,0,0-4,0,5.612,5.612,0,0,0,2.743,5.029,5.784,5.784,0,0,0,6.809-1.154,5.348,5.348,0,0,0,1.259-2.628,6.275,6.275,0,0,0-.254-3.149,5.285,5.285,0,0,0-2.219-2.777,6.06,6.06,0,0,0-4.011-.642A5.088,5.088,0,0,0,215.1,171.3a5.6,5.6,0,0,0-.94,3.209,2,2,0,1,0,4,0Z"/><path class="b" d="M263.318,115.432c-.863,11.218-3.665,22.177-5.117,33.319-.839,6.434-1.236,12.934-1.687,19.4q-.711,10.183-1.3,20.375a75.483,75.483,0,0,0-.243,7.929c.257,5.718,1.127,11.445,1.737,17.135,1.243,11.58,2.47,23.157,3.38,34.769.2,2.549,4.2,2.571,4,0-.81-10.336-1.859-20.645-2.969-30.952-.6-5.549-1.222-11.095-1.805-16.645a64.5,64.5,0,0,1-.194-10.647c.773-13.049,1.375-26.16,2.814-39.156,1.32-11.916,4.465-23.561,5.386-35.531.2-2.567-3.8-2.554-4,0Z"/><path class="b" d="M160.118,127.622c1.348,8.7,3.06,17.338,3.927,26.1.649,6.565,1.144,13.146,1.631,19.725q.63,8.487,1.187,16.98a60.06,60.06,0,0,1-.18,10.1c-.538,5.213-1.135,10.421-1.7,15.631-1.154,10.725-2.261,21.45-3.1,32.205-.2,2.567,3.8,2.553,4,0,.751-9.581,1.7-19.142,2.727-28.7.548-5.1,1.059-10.213,1.642-15.313a72.34,72.34,0,0,0,.68-12.843c-.763-12.037-1.6-24.082-2.725-36.092-.91-9.7-2.742-19.244-4.232-28.86a2.013,2.013,0,0,0-2.46-1.4,2.049,2.049,0,0,0-1.4,2.46Z"/><path class="b" d="M190.357,97.877c-7.233,3.007-14.29,6.372-21.215,10.028q-2.476,1.306-4.936,2.643c-1.613.874-3.268,1.457-4.935,2.206a17.688,17.688,0,0,0-4.586,3.45,26.687,26.687,0,0,0-3.136,3.5,30.018,30.018,0,0,0-3.718,7.6,2.016,2.016,0,0,0,1.4,2.46,2.045,2.045,0,0,0,2.461-1.4,27.811,27.811,0,0,1,2.715-5.8,19.369,19.369,0,0,1,2.543-2.986,16,16,0,0,1,4-3.209c1.482-.711,3.055-1.156,4.51-1.946q2.474-1.344,4.958-2.666c3.11-1.649,6.24-3.259,9.407-4.8q5.726-2.779,11.6-5.227a2.065,2.065,0,0,0,1.4-2.46,2.013,2.013,0,0,0-2.46-1.4Z"/><path class="b" d="M261.567,246.369a77.713,77.713,0,0,1-12.155,1.132,119.919,119.919,0,0,1-14.818-.264,36.574,36.574,0,0,1-5.81-.889,6.264,6.264,0,0,1-3.532-1.966c-3.2-3.292-4.935-8.136-6.387-12.393a133.45,133.45,0,0,1-4.974-20.205,2.016,2.016,0,0,0-2.46-1.4,2.045,2.045,0,0,0-1.4,2.46,138.64,138.64,0,0,0,4.5,18.764c1.653,5.123,3.638,10.465,7.081,14.682a10.93,10.93,0,0,0,4.783,3.52,27.537,27.537,0,0,0,5.674,1.154,102.313,102.313,0,0,0,15.388.592,87.959,87.959,0,0,0,15.175-1.333c2.522-.506,1.454-4.362-1.063-3.857Z"/><path class="b" d="M163.489,249.956a82.381,82.381,0,0,0,13.739,1.288,87.545,87.545,0,0,0,15.946-.747,19.488,19.488,0,0,0,5.687-1.591,13.32,13.32,0,0,0,4.465-4.052c3.072-4.032,5.007-8.949,6.663-13.7a105.432,105.432,0,0,0,4.108-15.276c.471-2.516-3.383-3.595-3.857-1.064a106.318,106.318,0,0,1-3.286,12.813,58.145,58.145,0,0,1-5.729,13.25,15.253,15.253,0,0,1-3.368,3.971,10.972,10.972,0,0,1-4.46,1.568,69.975,69.975,0,0,1-14.191.869,81.79,81.79,0,0,1-14.654-1.188c-2.513-.5-3.589,3.351-1.063,3.858Z"/><path class="a" d="M212.236,156.338c-3.686-7.958-10.533-23.934-15.529-38.249-3.122-8.942-5.535-16.71-6.7-20.584-2.088,0-12.826,11.008-14.316,14.879-.1.253,5.9,5.428,7.922,7.242a52.888,52.888,0,0,0-5.367,6.2c-.042.279,27.549,34.667,30.761,37.929Z"/><path class="b" d="M188.082,98.037a461.46,461.46,0,0,0,17.723,48.688c1.522,3.561,3.078,7.108,4.7,10.623a2.016,2.016,0,0,0,2.736.717,2.046,2.046,0,0,0,.718-2.736,434.529,434.529,0,0,1-18.528-47.243q-1.812-5.535-3.5-11.113c-.738-2.459-4.6-1.411-3.857,1.064Z"/><path class="b" d="M182.2,118.212a45.761,45.761,0,0,0-4.806,5.377c-.917,1.164-1.542,2.36-.572,3.682,1.775,2.42,3.7,4.742,5.566,7.089q9.314,11.694,18.8,23.254c2.087,2.536,4.11,5.206,6.41,7.558,1.8,1.843,4.63-.986,2.828-2.829-1.516-1.551-2.868-3.284-4.253-4.95q-3.733-4.489-7.406-9.031-7.8-9.591-15.484-19.27-1.3-1.638-2.581-3.284c-.2-.258.287.375.041.053l-.185-.241c-.1-.131-.194-.265-.3-.392-.333-.416-.168-.5-.081.069v1.063c-.146.468-.19.341.055.053.092-.108.2-.269.05-.07.086-.111.175-.22.264-.328q.791-.956,1.6-1.887a39.456,39.456,0,0,1,2.878-3.088c1.9-1.745-.934-4.568-2.828-2.828Z"/><path class="b" d="M190.01,95.505c-1.888.091-3.558,1.7-4.905,2.858a64.874,64.874,0,0,0-5.657,5.6,43.223,43.223,0,0,0-4.729,5.979c-.636,1.02-1.412,2.3-.745,3.483a8.4,8.4,0,0,0,1.712,1.815c2.135,1.974,4.35,3.859,6.516,5.8,1.913,1.713,4.751-1.107,2.829-2.828-1.513-1.354-3.046-2.683-4.562-4.033-.755-.672-1.51-1.345-2.247-2.037-.237-.221-.463-.454-.7-.674a2,2,0,0,0-.234-.243c-.276-.174.255.438.134.169l.274,1.009c.042,1.019-.311.922-.065.518.09-.147.161-.309.246-.46.183-.326.384-.642.592-.954.449-.675.915-1.294,1.32-1.8,1.306-1.637,2.711-3.2,4.165-4.7a57.2,57.2,0,0,1,4.295-4.076c.151-.128.3-.252.455-.378.065-.053.5-.387.169-.138.253-.193.51-.381.775-.555.214-.14.442-.254.656-.39.317-.2-.477.123-.076.03s-.518.026-.217.012c2.563-.123,2.578-4.124,0-4Z"/><path class="a" d="M219.223,162.927c1.146-1.742,1.816-2.767,3.071-4.687,9.446-14.463,21.546-32.133,21.5-32.412a52.888,52.888,0,0,0-5.367-6.2c2.022-1.814,8.02-6.989,7.922-7.242-1.49-3.871-12.228-14.879-14.316-14.879a230.191,230.191,0,0,1-5.315,23.21c-5.064,17-11.378,33.617-15.62,42.123-1.41,2.973-3.03,5.35-3.03,10.879Z"/><path class="b" d="M213.963,212.315c-1.043-8.379-1.928-16.778-2.744-25.182-.306-3.15-.6-6.3-.867-9.454a36.008,36.008,0,0,1-.2-5.945c.272-3.348,1.855-6.143,3.276-9.107,1.636-3.413,3.1-6.909,4.511-10.421,3.764-9.381,7.06-18.958,10.01-28.624a210.321,210.321,0,0,0,6.019-25.545,2.059,2.059,0,0,0-1.4-2.461,2.017,2.017,0,0,0-2.46,1.4c-3.038,17.559-8.418,34.6-14.855,51.2-1.454,3.747-2.973,7.472-4.661,11.121-1.366,2.951-3.128,5.829-3.911,9.009-1.274,5.174-.222,10.816.269,16.029.882,9.341,1.854,18.677,3.013,27.988a2.063,2.063,0,0,0,2,2,2.012,2.012,0,0,0,2-2Z"/><path class="b" d="M237.017,121.04a38.121,38.121,0,0,1,2.692,2.876c.5.573,1,1.151,1.494,1.738.189.228.38.455.561.689-.229-.3.136.231.192.275.625.5.536-2.2.066-1.69-.049.053-.071.138-.115.2-.181.239-.325.519-.488.771-.558.866-1.129,1.723-1.7,2.58-4.474,6.722-9,13.409-13.469,20.135-2.938,4.423-5.836,8.872-8.754,13.308-1.419,2.156,2.044,4.162,3.454,2.018q8.1-12.314,16.282-24.573c2.044-3.049,4.1-6.093,6.128-9.15.8-1.2,2.791-3.316,2.366-4.916-.345-1.3-1.694-2.486-2.543-3.47a42.924,42.924,0,0,0-3.338-3.615c-1.893-1.74-4.729,1.082-2.828,2.828Z"/><path class="b" d="M232.037,99.505c.3.014-.569-.086-.257-.025.414.082-.2-.12-.085-.041.223.151.478.265.705.414.265.174.522.362.775.555-.336-.256.146.12.169.138.152.126.3.25.455.378A57.613,57.613,0,0,1,238.1,105c1.453,1.507,2.858,3.068,4.164,4.7.386.483.882,1.144,1.32,1.8.193.29.381.584.554.885.086.152.158.318.252.465.287.454-.074.554-.033-.454l.274-1.009c-.121.269.345-.339.162-.2-.1.072-.172.192-.262.275-.237.22-.464.453-.7.674-.738.691-1.492,1.365-2.247,2.037-1.515,1.35-3.049,2.679-4.561,4.033-1.923,1.72.914,4.541,2.828,2.828,1.946-1.742,3.928-3.446,5.863-5.2a22.738,22.738,0,0,0,1.938-1.851c.961-1.105.7-2.216.055-3.411a32.963,32.963,0,0,0-4.337-5.754,69.391,69.391,0,0,0-5.771-5.886c-1.486-1.335-3.421-3.329-5.556-3.432-2.574-.124-2.567,3.877,0,4Z"/><path class="b" d="M147.831,127.3c-3.688,9.428-7.2,18.988-11.951,27.951-.63,1.188-1.286,2.364-1.99,3.51a29.757,29.757,0,0,1-1.849,2.705,2.06,2.06,0,0,0,0,2.829,2.014,2.014,0,0,0,2.828,0c3.23-3.994,5.463-8.775,7.591-13.416,2.438-5.319,4.644-10.745,6.775-16.193.824-2.1,1.629-4.217,2.453-6.323a2.015,2.015,0,0,0-1.4-2.46,2.047,2.047,0,0,0-2.46,1.4Z"/><path class="b" d="M164.464,158.685c-3.011,7.537-5.412,15.376-9.248,22.559a25.841,25.841,0,0,1-7.231,8.674,13.706,13.706,0,0,1-4.612,2.535,15.7,15.7,0,0,1-4.619.306,28.485,28.485,0,0,1-10.512-2.422c-2.311-1.106-4.342,2.342-2.019,3.454a33.324,33.324,0,0,0,10.648,2.812c3.822.432,7.609.211,10.969-1.8a28.964,28.964,0,0,0,9.35-9.043,70.1,70.1,0,0,0,5.934-12.376c1.816-4.514,3.392-9.121,5.2-13.64a2.013,2.013,0,0,0-1.4-2.46,2.047,2.047,0,0,0-2.46,1.4Z"/><path class="e" d="M245.587,146.446c6.349-.494,9.053,2.062,9.053,2.062,2.074,1.037,6.774,7.781,6.179,8.858-.691,1.25-10.235,2.248-13.985-.036-.246.661-.41,1.1-.41,1.1-.821,2.2-6.145,5.179-8.087,5.7-1.822.492-2.2.572-2.491-1.254-.236-1.469-.753-5.252.5-7.777,0,0-.56-6.458,4.333-7.778A26.975,26.975,0,0,1,245.587,146.446Z"/><path class="a" d="M251.3,149.841a4.657,4.657,0,0,0,1.2-1.058c2.062-2.761,1.045-5.99-.766-8.511,3.473-2.5-1.775-6.211-3.972-6.8a8.021,8.021,0,0,0-5.23.115c-1.222.593-3.148,1.778-3.236,3.231-6.949,3.066-4.316,10.054-2.944,11.419a8.921,8.921,0,0,0,3.83,2.555c1.062.272,3.4.547,4.032-.557C245.679,151.947,249.232,151.178,251.3,149.841Z"/><path class="b" d="M252.307,151.568a7.394,7.394,0,0,0,3.332-6.092,10.785,10.785,0,0,0-2.181-6.214L252.741,142a4.909,4.909,0,0,0,2.045-2.777,4.507,4.507,0,0,0-.559-3.206,10.776,10.776,0,0,0-11.632-4.595c-2.49.782-4.976,2.682-5.3,5.392l.99-1.727a8.982,8.982,0,0,0-5.515,9.252,9.679,9.679,0,0,0,6.107,8.11c2.258.906,5.557,1.015,7.062-1.208l-3.141.405c2.426,2.616,6.851,1.59,9.511-.077,2.177-1.363.171-4.826-2.019-3.454a6.806,6.806,0,0,1-2.946,1.093c.162-.02-.5.015-.6.013-.071,0-.651-.071-.316-.011-.09-.016-.771-.255-.462-.116q-.294-.194-.07-.006a2.312,2.312,0,0,1-.271-.271,2.025,2.025,0,0,0-3.141.405c.221-.327.612-.347.04-.21.307-.074.011,0-.066.008-.173.013-.348.012-.521.008s-.346-.019-.519-.03c-.066-.005-.4-.063-.053,0a5.5,5.5,0,0,1-1.045-.255,5.94,5.94,0,0,1-1.769-1.171c-.269-.241-.512-.517-.788-.749-.4-.332.155.309-.015,0s-.346-.577-.5-.882c-.231-.461.07.27-.067-.167-.076-.242-.166-.478-.234-.724-.052-.187-.1-.377-.138-.568-.031-.147-.054-.3-.081-.444.013.069.029.443.012.073a12.654,12.654,0,0,1,0-1.594c-.039.489.05-.229.083-.365a7.162,7.162,0,0,1,.223-.731c.183-.515-.116.215.039-.083.068-.132.134-.265.209-.394.061-.1.125-.209.192-.31.016-.024.369-.469.14-.2a7.211,7.211,0,0,1,.7-.717c.012-.011.276-.237.095-.094.116-.092.243-.176.367-.259.884-.59,2.115-.865,2.431-2.017l.072-.531a.191.191,0,0,1-.02.167c-.084.193.191-.29.04-.1a4.45,4.45,0,0,1,.671-.657,5.242,5.242,0,0,1,5.688-.676c.28.1-.43-.235.021.011.15.082.308.15.458.231.271.146.536.305.794.473.135.088.267.181.4.274.111.081.106.075-.013-.02q.153.121.3.249a8.289,8.289,0,0,1,.7.667c.084.091.168.185.246.281-.246-.305.107.189.152.252.066.092.208.445.056.047a3.606,3.606,0,0,1,.133.456c-.013-.053-.084-.451-.031-.076-.056-.4.094-.135-.037.07.293-.458-.195.04.033-.095.275-.163-.424.382-.161.182a2.034,2.034,0,0,0-.718,2.736c1.35,1.921,2.755,5.157.284,6.833a2.05,2.05,0,0,0-.717,2.737A2.018,2.018,0,0,0,252.307,151.568Z"/><path class="b" d="M244.778,140.655a6.078,6.078,0,0,0-1.137.41,4.883,4.883,0,0,0-.616.324c-.408.252-.787.547-1.181.819a2.238,2.238,0,0,0-.919,1.195,1.523,1.523,0,0,0-.036.8,1.48,1.48,0,0,0,.238.744,2.017,2.017,0,0,0,1.195.919,1.985,1.985,0,0,0,1.541-.2,10.833,10.833,0,0,1,1.8-1.143l-.478.2a3.793,3.793,0,0,1,.659-.208,1.929,1.929,0,0,0,1.433-1.662,1.526,1.526,0,0,0-.036-.8,2.025,2.025,0,0,0-.919-1.195l-.478-.2a2.018,2.018,0,0,0-1.063,0Z"/><path class="b" d="M234.617,154.091a12.891,12.891,0,0,0-1.044,6.4c.054.893.17,1.783.3,2.668a4.309,4.309,0,0,0,1,2.468c1.284,1.311,3.337.741,4.832.141a23.841,23.841,0,0,0,4.506-2.4,10.248,10.248,0,0,0,4.141-4.408,2.007,2.007,0,0,0-1.4-2.46,2.058,2.058,0,0,0-2.46,1.4c.278-.7-.064.03-.189.226-.166.26.324-.383-.01,0-.111.127-.227.25-.346.369-.23.231-.473.448-.722.657-.09.076-.242.265-.351.286.174-.033.286-.215.089-.071-.109.08-.216.161-.326.239a23.575,23.575,0,0,1-3.691,2.166c-.135.063-.27.124-.406.184-.431.194.424-.16.009,0-.225.085-.448.17-.679.237-.316.092-.636.17-.957.244-.05.012-.1.015-.154.03-.239.073.487-.042.254-.032-.5.02.335.117.124.049-.252-.08.335.149.3.13.445.26.378.32.258.193.388.411.269.377.19.233-.129-.236.1.243.1.247a1.9,1.9,0,0,0-.116-.405c-.044-.187-.075-.377-.106-.567-.019-.116-.037-.233-.054-.35-.01-.066-.018-.132-.028-.2-.039-.248.057.469.028.209-.04-.354-.083-.706-.111-1.061a16.9,16.9,0,0,1-.024-2.681c.008-.1.019-.208.027-.312.041-.526-.081.428.009-.091.039-.231.08-.46.133-.688s.114-.447.186-.666c.031-.1.066-.191.1-.287.14-.394-.158.335.037-.071a2,2,0,0,0-3.454-2.019Z"/><path class="b" d="M253.63,150.235c.14.073.264.175.4.247.23.121-.312-.289.044.044s.678.637,1,.981.609.686.9,1.042c.072.087.515.658.269.334q.262.345.515.7a24.313,24.313,0,0,1,1.651,2.591c.086.159.171.32.25.483.037.075.07.153.108.227.191.368-.108-.355-.042-.106.037.138.095.288.145.422.02.053.021.114.041.165.122.3-.038-.535-.036-.25a2.342,2.342,0,0,1,.328-.889.94.94,0,0,1,.322-.314,1.1,1.1,0,0,0-.276.145c-.17.133.534-.177.213-.092-.087.023-.173.062-.26.09a14.555,14.555,0,0,1-2.1.452c-.355.06.058-.008.11-.014l-.364.043q-.339.037-.679.066-.753.063-1.511.085a25.534,25.534,0,0,1-3.055-.082q-.405-.036-.808-.087c.467.06.1.012-.02-.009-.154-.027-.308-.051-.461-.081a11.967,11.967,0,0,1-1.5-.38c-.173-.057-.776-.356-.283-.088-.185-.1-.382-.179-.565-.285-.209-.12-.549-.427-.18-.083a5.6,5.6,0,0,1-.467-.458,2.017,2.017,0,0,0-2.828,0,2.042,2.042,0,0,0,0,2.829c1.483,1.733,4,2.252,6.15,2.534a26.271,26.271,0,0,0,6.718-.022c1.674-.215,4.2-.44,5.172-2.062,1.119-1.869-.674-4.412-1.685-5.935a32.146,32.146,0,0,0-2.625-3.446,9.6,9.6,0,0,0-2.566-2.248,2.044,2.044,0,0,0-2.736.718,2.022,2.022,0,0,0,.717,2.736Z"/><path class="b" d="M206.206,77.135a12.869,12.869,0,0,0,6.192,1.442,10.172,10.172,0,0,0,6.338-1.907,2,2,0,0,0,0-2.829,2.062,2.062,0,0,0-2.828,0c.684-.533-.074.02-.294.135-.171.09-.638.229-.028.033-.171.055-.337.129-.508.185-.217.069-.437.129-.658.18a4.961,4.961,0,0,0-.766.145c.023-.066.425-.048-.016-.005-.139.014-.279.026-.419.035-.337.022-.675.03-1.012.028-.3,0-.6-.012-.906-.033-.139-.009-.277-.02-.415-.034-.079-.008-.158-.016-.237-.026q-.233-.028.156.02a3.868,3.868,0,0,1-1.33-.3c-.186-.056-.368-.122-.552-.185-.464-.159.4.193-.022-.006q-.342-.16-.676-.337a2,2,0,0,0-2.019,3.454Z"/><path class="b" d="M211.176,62.814a28.012,28.012,0,0,1,.659,3.014l-.071-.532a1.867,1.867,0,0,1,.011.416l.071-.531a1.018,1.018,0,0,1-.045.187l.2-.478a.666.666,0,0,1-.066.12l.313-.405a.612.612,0,0,1-.1.1l.405-.313a1.932,1.932,0,0,1-.238.126l.477-.2a1.752,1.752,0,0,1-.4.118l.532-.072a1.648,1.648,0,0,1-.378,0l.532.071c-.143-.02-.282-.054-.425-.073a2.244,2.244,0,0,0-1.541.2,2,2,0,0,0-.718,2.737,1.921,1.921,0,0,0,1.2.919c.364.049.718.14,1.089.156a3.546,3.546,0,0,0,1.656-.4,2.489,2.489,0,0,0,1.351-1.629,3.908,3.908,0,0,0-.014-1.7c-.164-.971-.389-1.933-.639-2.885a2,2,0,0,0-2.46-1.4,2.021,2.021,0,0,0-1.2.919,2.1,2.1,0,0,0-.2,1.541Z"/><path class="b" d="M195.679,54.158c-.5,1.636-.175,5.4,2.923,5.718,4.1-.024,4.314-4.573,2.935-6.712C200.408,51.413,197.089,50.685,195.679,54.158Z"/><path class="b" d="M228.474,54.158c.5,1.636.176,5.4-2.923,5.718-4.095-.024-4.313-4.573-2.935-6.712C223.745,51.413,227.064,50.685,228.474,54.158Z"/><path class="a" d="M5.615,237.717c.088-1.585.207-3.779.435-7.405l15.371,1.743.848.107c-.25,2.546-.495,5.162-.74,7.933-2.253-.24-9.479-1.03-14.248-1.7-.61-.09-1.18-.17-1.69-.25Z"/><path class="a" d="M12.564,282.7c-2.689.971-5.578-.924-7.1-2.91a13.916,13.916,0,0,1-1.89-3.47c-2.49-6.37-1.64-12.49-.1-19.16,1.44-6.23,3.45-12.4,3.81-18.76,2.97.417,6.893.881,9.974,1.23l.316,1.98a143.724,143.724,0,0,1,3.4,21.61,2.072,2.072,0,0,1-3.49,1.66c-.65-.62-1.64-1.56-2.1-2.09a16.32,16.32,0,0,0-2.21-2.42,20.581,20.581,0,0,0-.46,5.55c.24,6.41-.1,6.05,1.39,12.56.41,1.79.1,3.25-.36,3.59A4.731,4.731,0,0,1,12.564,282.7Z"/><path class="a" d="M52.957,89.572a49.544,49.544,0,0,1-.767,7.744c-.437,2.492-.3,4.718-3.764,5.969-.229.083-1.666.685-2.09.866,0,0,3.267,14.876,20.156,14.876s24.652-14.671,24.652-14.671c-.518-.228-2.443-.988-2.672-1.071-3.464-1.251-3.327-3.477-3.764-5.969a49.489,49.489,0,0,1-.768-7.835c6.905-3.993,12.282-13.07,13.284-15.789.163-.495.494-1.425.8-2.547l.617-.095a7.8,7.8,0,0,0,3.621-1.632,11.752,11.752,0,0,0,3.036-3.985,18.477,18.477,0,0,0,1.884-9.794,6.147,6.147,0,0,0-.646-2.48,4.356,4.356,0,0,0-3.135-2.084A4.617,4.617,0,0,0,99.7,52.156S99.5,23.3,66.387,23.3,37.725,52.156,37.725,52.156a4.617,4.617,0,0,0-3.695-1.081A4.358,4.358,0,0,0,30.9,53.159a6.147,6.147,0,0,0-.646,2.48,18.477,18.477,0,0,0,1.884,9.794,11.743,11.743,0,0,0,3.036,3.985A7.786,7.786,0,0,0,38.79,71.05l1.18.18a31.41,31.41,0,0,0,5.988,11.689A28.817,28.817,0,0,0,52.9,89.077c0,.106,0,.175,0,.2"/><path class="b" d="M50.957,89.572a45,45,0,0,1-.431,5.562c-.2,1.373-.359,2.806-.7,4.154-.032.125-.065.249-.1.373-.018.056-.159.47-.055.193s-.061.123-.09.178c-.073.138-.158.265-.24.4.141-.229.108-.117-.04.034-.1.1-.2.2-.3.3-.333.315.25-.1-.186.129-.151.08-.293.175-.444.254-.337.176-.756.322-1.218.513q-.915.379-1.826.767a2.012,2.012,0,0,0-.717,2.737,2.053,2.053,0,0,0,2.736.717c.251-.107.161-.068-.039.016l.446-.186q.435-.183.873-.362a15.224,15.224,0,0,0,2.038-.9,6.466,6.466,0,0,0,2.944-3.8,31.258,31.258,0,0,0,.755-4.315,53.385,53.385,0,0,0,.595-6.763,2,2,0,0,0-4,0Z"/><path class="b" d="M81.941,89.572a53.645,53.645,0,0,0,.651,7.135,22.939,22.939,0,0,0,.82,4.307,6.49,6.49,0,0,0,3.391,3.729c.614.29,1.26.515,1.891.764q.483.19.966.385l.455.184c.486.2-.238-.1.02.007a2.066,2.066,0,0,0,2.736-.717,2.015,2.015,0,0,0-.718-2.737c-1.038-.45-2.091-.872-3.15-1.272a5.421,5.421,0,0,1-.833-.415c-.11-.064-.367-.246-.137-.067a3.515,3.515,0,0,1-.382-.35c-.04-.041-.318-.4-.156-.17s-.115-.206-.143-.256c-.061-.112-.117-.226-.17-.342.207.456.015-.012-.011-.1a28.053,28.053,0,0,1-.722-4.017,45.722,45.722,0,0,1-.508-6.072,2,2,0,0,0-4,0Z"/><path class="a" d="M66.329,105.8l-1.007,0a5.8,5.8,0,0,0,.468-.685,1.072,1.072,0,0,0,.154-.753c-.089-.29-.4-.443-.673-.568A46.208,46.208,0,0,1,51.937,94.5a22.249,22.249,0,0,0-4.217,5.477c1.308,4.254,3.389,10.79,5.945,18.113,5,14.315,11.844,30.291,15.53,38.249l1.025,1.877a340.674,340.674,0,0,0,13.461-37.5c2.313-7.762,4.095-16.612,4.91-20.956A21.962,21.962,0,0,0,84.5,94.5a46.208,46.208,0,0,1-13.334,9.293c-.276.125-.583.278-.672.568a1.062,1.062,0,0,0,.154.753,5.506,5.506,0,0,0,.46.674Z"/><path class="f" d="M63.88,113.332q.09.387.188.774a6.81,6.81,0,0,1,.282,1.717c0,.618-3.824,31.575-4.537,37.51,1.755,2.431,7.176,10.07,9.735,12.392,2.234-2.154,6.993-9.172,8.965-12.3-.548-4.821-5.45-36.453-5.436-37.412a10.407,10.407,0,0,1,.67-3.048c.872-2.663,1.047-4.522,1.92-7.185-2.59,0-11.5.02-13.381.02C62.921,108.312,63.294,110.822,63.88,113.332Z"/><path class="b" d="M64.437,117.759c2.88,0,5.76-.064,8.64-.065a2,2,0,0,0,0-4c-2.88,0-5.76.064-8.64.065a2,2,0,0,0,0,4Z"/><path class="b" d="M61.952,113.864a8.038,8.038,0,0,1,.275,3.12c-.142,1.247-.292,2.493-.441,3.739q-.711,5.931-1.439,11.861-.789,6.474-1.583,12.946-.314,2.562-.626,5.126c-.16,1.313-.609,2.791.146,3.961,1.417,2.2,3.086,4.28,4.668,6.357a46.871,46.871,0,0,0,5.182,6.165,2.039,2.039,0,0,0,2.829,0,45.634,45.634,0,0,0,4.893-6.189q1.281-1.8,2.509-3.642a17.64,17.64,0,0,0,1.976-3.11c.467-1.2-.115-3-.288-4.234q-.375-2.667-.77-5.33c-1.251-8.515-2.567-17.021-3.8-25.539q-.153-1.058-.3-2.116a1.524,1.524,0,0,1-.033-.252c-.019-.162-.049-.326-.059-.489a11.1,11.1,0,0,1,.861-3.648c.607-2.078.982-4.212,1.64-6.277a2.017,2.017,0,0,0-1.929-2.531c-4.46,0-8.92.02-13.381.02a2.023,2.023,0,0,0-1.928,2.532c.615,2.492,1.022,5.028,1.594,7.53s4.43,1.446,3.857-1.064-.979-5.037-1.594-7.529L62.286,107.8c4.461,0,8.921-.02,13.381-.02l-1.928-2.532c-.461,1.447-.8,2.918-1.148,4.394-.38,1.588-1.009,3.133-1.317,4.733a7.679,7.679,0,0,0-.08,2.66c.322,2.453.693,4.9,1.055,7.346,1.07,7.221,2.168,14.438,3.228,21.66q.352,2.407.695,4.818c.045.316.089.633.133.949.013.1.026.193.04.29.082.592-.026-.2.017.131.052.4.105.8.151,1.2l.273-1.009c-1.369,2.162-2.8,4.283-4.283,6.371a40.3,40.3,0,0,1-4.369,5.522h2.829c-3.688-3.413-6.5-7.933-9.423-11.987l.273,1.009c1.372-11.4,2.809-22.8,4.163-34.206.1-.868.208-1.736.3-2.6a10.816,10.816,0,0,0-.471-3.723C65.213,110.3,61.355,111.357,61.952,113.864Z"/><path class="a" d="M78.9,115.335c4.281-4.255,7.086-9.41,10.249-14.558A22.832,22.832,0,0,0,84.5,94.5a46.208,46.208,0,0,1-13.334,9.293c-.276.125-.583.278-.672.568a1.062,1.062,0,0,0,.154.753,42.964,42.964,0,0,0,2.758,3.561C75.281,110.97,77.637,113.783,78.9,115.335Z"/><path class="a" d="M57.54,115.335c-4.282-4.255-7.086-9.41-10.249-14.558A22.828,22.828,0,0,1,51.937,94.5a46.208,46.208,0,0,0,13.334,9.293c.276.125.584.278.673.568a1.072,1.072,0,0,1-.154.753,43.453,43.453,0,0,1-2.758,3.561C61.156,110.97,58.8,113.783,57.54,115.335Z"/><path class="b" d="M80.311,116.749a59.516,59.516,0,0,0,8.37-11.348c.6-.994,1.2-1.991,1.806-2.984a2.9,2.9,0,0,0,.623-1.905,5.219,5.219,0,0,0-.817-1.8,24.269,24.269,0,0,0-4.38-5.623,2.035,2.035,0,0,0-2.828,0,43.438,43.438,0,0,1-7.17,5.811c-1.259.816-2.556,1.574-3.889,2.262-1.266.653-3.034,1.117-3.462,2.67a3.629,3.629,0,0,0,.946,3.142c.866,1.149,1.779,2.262,2.691,3.375,1.753,2.141,3.535,4.258,5.282,6.4a2.013,2.013,0,0,0,2.828,0,2.047,2.047,0,0,0,0-2.829c-1.458-1.791-2.942-3.561-4.411-5.343-.827-1-1.653-2.008-2.463-3.025-.228-.287-.458-.573-.674-.87-.095-.129-.185-.286-.289-.408-.177-.209.044-.247.019.086l-.273,1.009q-.5.409-.045.15l.31-.143c.313-.147.625-.3.935-.448q.949-.471,1.875-.988,1.908-1.064,3.71-2.3a48.337,48.337,0,0,0,6.908-5.722H83.085a21.847,21.847,0,0,1,4.334,5.874V99.768c-3.019,4.924-5.83,10.025-9.936,14.152C75.665,115.747,78.492,118.577,80.311,116.749Z"/><path class="b" d="M58.954,113.92c-4.106-4.127-6.918-9.228-9.936-14.152v2.019a21.847,21.847,0,0,1,4.334-5.874H50.523a48.535,48.535,0,0,0,6.909,5.722q1.8,1.237,3.71,2.3.849.474,1.718.91.465.233.936.453c.154.073.31.145.466.216q.452.259-.045-.15l-.273-1.009c-.022-.285.216-.318.018-.086-.086.1-.154.223-.231.331-.233.324-.484.635-.732.947-.81,1.017-1.636,2.022-2.463,3.025-1.469,1.782-2.953,3.552-4.411,5.343a2.061,2.061,0,0,0,0,2.829,2.015,2.015,0,0,0,2.829,0c1.711-2.1,3.456-4.177,5.175-6.273.922-1.126,1.843-2.253,2.725-3.411a3.72,3.72,0,0,0,1.018-3.237c-.415-1.509-2.073-1.961-3.305-2.59q-2-1.023-3.892-2.243a43.507,43.507,0,0,1-7.323-5.91,2.037,2.037,0,0,0-2.829,0,24.248,24.248,0,0,0-4.293,5.472,7.692,7.692,0,0,0-.868,1.689,2.679,2.679,0,0,0,.587,2.171c.606.993,1.2,1.99,1.806,2.984a59.559,59.559,0,0,0,8.37,11.348C57.944,118.576,60.772,115.748,58.954,113.92Z"/><path class="a" d="M94.4,420.809a30.528,30.528,0,0,0,3.458,13.93l-22.178-.43.085-12.46Z"/><path class="a" d="M45.379,420.809a30.54,30.54,0,0,1-3.457,13.93l22.178-.43-.086-12.46Z"/><path class="b" d="M43.379,420.809A28.713,28.713,0,0,1,40.2,433.73a2.046,2.046,0,0,0,.717,2.736,2.021,2.021,0,0,0,2.737-.717,33.169,33.169,0,0,0,3.73-14.94,2,2,0,0,0-4,0Z"/><path class="b" d="M62.014,421.849l.086,12.46a2,2,0,0,0,4,0l-.086-12.46a2,2,0,0,0-4,0Z"/><path class="b" d="M92.4,420.809a33.17,33.17,0,0,0,3.731,14.94,2,2,0,0,0,3.454-2.019A28.7,28.7,0,0,1,96.4,420.809a2,2,0,1,0-4,0Z"/><path class="b" d="M73.769,421.849l-.085,12.46a2,2,0,0,0,4,0l.085-12.46a2,2,0,0,0-4,0Z"/><path class="c" d="M22.775,463.33q-.174-.227-.329-.47a8.8,8.8,0,0,1-.583-7.379,24.183,24.183,0,0,1,3.787-6.608q5.483-7.486,11.588-14.49c1.586-1.82,3.38-3.716,5.752-4.164a3.568,3.568,0,0,0,1.774,3.742,8.365,8.365,0,0,0,4.278.966,23.743,23.743,0,0,0,16.619-6.614c-.027,5,.023,6.663,0,11.664a10.5,10.5,0,0,1-.438,3.607c-1.028,2.78-4.076,4.119-6.522,5.792-6.363,4.355-9.714,12.3-16.382,16.171a17.212,17.212,0,0,1-15.914.57A10.026,10.026,0,0,1,22.775,463.33Z"/><path class="c" d="M117.009,463.33c.116-.151.225-.308.329-.47a8.808,8.808,0,0,0,.582-7.379,24.157,24.157,0,0,0-3.787-6.608q-5.483-7.486-11.587-14.49c-1.587-1.82-3.38-3.716-5.753-4.164a3.568,3.568,0,0,1-1.773,3.742,8.37,8.37,0,0,1-4.278.966,23.746,23.746,0,0,1-16.62-6.614c.028,5-.022,6.663,0,11.664a10.5,10.5,0,0,0,.439,3.607c1.028,2.78,4.076,4.119,6.521,5.792,6.364,4.355,9.715,12.3,16.382,16.171a17.212,17.212,0,0,0,15.914.57A10.038,10.038,0,0,0,117.009,463.33Z"/><path class="a" d="M69.05,426.242c-11.441,2.187-30.624,2.071-35.557.426-.445-7.365-1.259-80.473-3.245-113.47-1.687-28.02-3.524-62.155-5.175-79.424L68.121,211.99l45.738,22.7c-1.631,17.4-2.948,50.728-4.62,78.508-1.986,33-2.8,106.105-3.245,113.47-4.933,1.645-26.926,1.411-36.319-.542"/><path class="b" d="M23.073,233.774c1.436,15.085,2.257,30.235,3.161,45.358.91,15.208,1.939,30.417,2.6,45.638.57,13.1.933,26.209,1.257,39.318q.476,19.254.83,38.512c.152,7.68.215,15.37.524,23.046.013.341.028.681.048,1.022a2.077,2.077,0,0,0,1.468,1.928,28.762,28.762,0,0,0,6.56,1.007c3.1.241,6.206.306,9.31.289a115.967,115.967,0,0,0,20.751-1.721c2.526-.476,1.456-4.332-1.064-3.858a109.9,109.9,0,0,1-19.687,1.579c-3.011.017-6.028-.045-9.032-.268a22.969,22.969,0,0,1-5.774-.885l1.468,1.929c-.4-6.678-.36-13.4-.493-20.086q-.374-18.783-.79-37.565c-.315-13.344-.669-26.688-1.2-40.025-.574-14.413-1.53-28.809-2.38-43.207-.943-15.95-1.825-31.914-3.181-47.836q-.179-2.088-.376-4.175a2.055,2.055,0,0,0-2-2,2.015,2.015,0,0,0-2,2Z"/><path class="b" d="M111.9,234.242c-1.441,15.164-2.061,30.414-2.85,45.621-.784,15.107-1.766,30.208-2.417,45.32-.563,13.073-.924,26.154-1.246,39.234q-.473,19.156-.825,38.315c-.151,7.636-.214,15.282-.521,22.914-.014.341-.028.681-.048,1.022l1.468-1.929a12.963,12.963,0,0,1-1.908.429c-.631.1-1.357.179-2.307.261-2.357.2-4.725.282-7.09.316a164.564,164.564,0,0,1-16.543-.562,64.444,64.444,0,0,1-7.407-.985c-2.513-.514-3.588,3.341-1.063,3.857a96.587,96.587,0,0,0,15.388,1.557,138.3,138.3,0,0,0,16.109-.134,25.661,25.661,0,0,0,5.884-.882,2.074,2.074,0,0,0,1.469-1.928c.393-6.637.358-13.318.491-19.962q.369-18.6.78-37.2c.313-13.316.665-26.631,1.189-39.94.564-14.341,1.5-28.665,2.249-43,.834-16.034,1.517-32.092,2.825-48.1q.174-2.118.373-4.233a2.015,2.015,0,0,0-2-2,2.043,2.043,0,0,0-2,2Z"/><path class="b" d="M67.892,282.557c-.538,5.888-.468,11.849-.464,17.755.005,7.1.111,14.209.176,21.314.074,8.029.021,16.06,0,24.09q-.033,16.512-.062,33.024-.024,15.762-.014,31.524.009,5.4.039,10.792c.012,1.634-.053,3.3.082,4.931a2.29,2.29,0,0,0,1.012,1.866,2.011,2.011,0,0,0,2.736-.717,2.051,2.051,0,0,0-.717-2.737h0l.717.717c.118.22.245,1.377.243.66,0-.266-.018-.533-.024-.8-.021-.935-.03-1.87-.038-2.805-.03-3.287-.037-6.575-.044-9.863q-.031-15.25,0-30.5.023-16.612.061-33.227c.016-7.719.066-15.439.029-23.158-.062-13.175-.6-26.4.037-39.565.054-1.1.122-2.2.223-3.3a2.016,2.016,0,0,0-2-2,2.042,2.042,0,0,0-2,2Z"/><path class="b" d="M24.5,462.321c-1.765-2.411-1.3-5.449-.01-7.976a55.512,55.512,0,0,1,5.738-8.271q3.174-4.14,6.56-8.112c1.828-2.153,3.806-5.162,6.732-5.814l-2.46-2.461a5.828,5.828,0,0,0,3.883,6.568c2.632,1.032,5.78.761,8.511.323a25.442,25.442,0,0,0,13.619-6.851l-3.414-1.414c-.022,4.261.165,8.554-.021,12.81-.093,2.138-1.178,3.407-2.892,4.565a57.672,57.672,0,0,0-5.2,3.609c-6.047,5.129-9.633,13.857-17.855,16-4.467,1.166-10.438.409-13.5-3.383a2.014,2.014,0,0,0-2.829,0,2.048,2.048,0,0,0,0,2.829c3.11,3.849,8.921,5.341,13.677,5.006a20.353,20.353,0,0,0,12.98-6.145c3.2-3.156,5.678-6.959,8.877-10.118a31.084,31.084,0,0,1,5.263-3.947,11.8,11.8,0,0,0,4.66-4.621c1.259-2.721.855-6.042.848-8.965-.006-2.547-.017-5.095,0-7.642a2.022,2.022,0,0,0-3.414-1.414,21.433,21.433,0,0,1-9.4,5.292,20.486,20.486,0,0,1-6.213.725c-1.137-.045-4.061-.4-3.718-2.165a2.028,2.028,0,0,0-2.46-2.461c-3.579.8-5.931,3.834-8.189,6.481q-4.028,4.72-7.783,9.662c-4.039,5.3-10.39,13.142-5.439,19.907a2.059,2.059,0,0,0,2.736.717A2.015,2.015,0,0,0,24.5,462.321Z"/><path class="c" d="M15.089,231.337,4.883,230.18a2.489,2.489,0,0,1-2.183-2.6c.1-2.139.112-3.957.41-10.082,1.379-28.332,3.326-58.34,4.7-85.758.321-6.378,1.472-11.273,7.785-16.312,1.479-1.18,3.554-1.515,5.216-2.419A268.067,268.067,0,0,1,47.688,99.872c1.3,4.244,3.4,10.829,5.977,18.217,5,14.315,11.844,30.291,15.53,38.249l.948,2.049a339.513,339.513,0,0,0,13.538-37.672,155.518,155.518,0,0,0,5.13-22.133c11.524,4.562,23.233,10.715,33.088,16.074a10.544,10.544,0,0,1,6.63,5.445c9.37,19,15.148,35,18.481,50.778.506,2.4,3.465,12.654-7.333,16.889a257.808,257.808,0,0,1-25.757,8.4c.122,3.377.612,6.734.971,10.1,1.668,15.989,2.877,25.794,4.145,42.036-7.418,1.511-28.232,2.114-35.322-.477-6.673-2.439-11.744-19.1-14.407-33.368-.11.551-.179.891-.179.891-1.564,8.428-7.1,28.6-14.489,31.912-6.653,2.98-26.773,2.212-33.769.745.466-5.934.924-11.011,1.4-15.855l-.85-.094Z"/><path class="b" d="M118.736,464.34c4.949-6.764-1.4-14.611-5.44-19.907q-3.764-4.932-7.782-9.662c-2.258-2.648-4.611-5.682-8.189-6.481a2.028,2.028,0,0,0-2.46,2.461c.342,1.766-2.586,2.12-3.719,2.165a20.458,20.458,0,0,1-6.213-.725,21.439,21.439,0,0,1-9.4-5.292,2.022,2.022,0,0,0-3.414,1.414c.012,2.268.006,4.537,0,6.805a48.066,48.066,0,0,0,.188,7.676c.812,5.082,5.969,6.587,9.377,9.571,3.39,2.967,5.9,6.763,8.939,10.057,3.234,3.5,7.2,6.272,11.984,7.07,5.372.894,12.207-.283,15.814-4.747a2.061,2.061,0,0,0,0-2.829,2.015,2.015,0,0,0-2.828,0c-2.682,3.32-7.739,4.32-11.788,3.739-4.286-.615-7.624-3.079-10.478-6.2-2.744-3-5.056-6.374-8-9.183a30.345,30.345,0,0,0-4.906-3.7c-1.437-.9-3.228-1.88-3.929-3.522a11.05,11.05,0,0,1-.371-4.221q0-1.774,0-3.548c.007-2.324.014-4.647,0-6.97l-3.414,1.414a25.448,25.448,0,0,0,13.62,6.851c2.665.427,5.737.7,8.324-.252a5.867,5.867,0,0,0,4.07-6.639l-2.461,2.461c2.863.638,4.786,3.526,6.579,5.632q3.457,4.063,6.713,8.294a57.651,57.651,0,0,1,5.643,8.083c1.343,2.571,1.9,5.682.086,8.164a2.014,2.014,0,0,0,.717,2.736A2.046,2.046,0,0,0,118.736,464.34Z"/><path class="c" d="M94.256,43.255a47.061,47.061,0,0,1,5.29,9.051,4.588,4.588,0,0,1,3.852-1.231,4.153,4.153,0,0,1,.8.2c2.3-5.9,2.634-14.444-.266-22.553-2.039-5.7-7.122-11.673-10.732-13.337l-5.212-3.748C83.552,5.557,76.838,2.35,67.365,2.061,58.493,1.789,48.271,3.581,40.5,11.4L43,13.927c-4.579,2.939-8.164,8.448-9.828,13.334-1.994,5.858-2.59,14.193-.222,24.041l.017.071a4.341,4.341,0,0,1,1.062-.3,4.561,4.561,0,0,1,3.953,1.336C46.921,43.868,54.705,38.8,62.558,32.627c.045.523,1.719,4.706,2.11,4.865.533.217,6.38-3.455,10.457-5.968l6.417,1.689a23.937,23.937,0,0,1,7.524,4.406A35.591,35.591,0,0,1,94.256,43.255Z"/><path class="b" d="M101.117,53.57a2.537,2.537,0,0,1,3.614.476,5.274,5.274,0,0,1,.509,2.669,15.738,15.738,0,0,1-.222,3.223c-.7,3.833-2.654,8.42-6.911,9.183a2.017,2.017,0,0,0-1.4,2.46,2.043,2.043,0,0,0,2.46,1.4c6.451-1.156,9.527-8.443,10.012-14.289.249-2.995.014-6.425-2.577-8.366a6.653,6.653,0,0,0-8.316.418,2.016,2.016,0,0,0,0,2.829,2.043,2.043,0,0,0,2.828,0Z"/><path class="b" d="M96.591,67.612a17.5,17.5,0,0,1-1.017,4.715c-.091.277-.2.553-.279.833-.037.125-.2.479.023-.033-.143.331-.3.655-.459.976a39.6,39.6,0,0,1-3.414,5.487c-2.981,4.089-7.027,8.419-12.133,9.617-2.5.587-1.445,4.445,1.063,3.857,6.072-1.425,10.785-6.391,14.357-11.227,3.086-4.179,5.644-8.914,5.859-14.225.1-2.574-3.9-2.57-4,0Z"/><path class="b" d="M39.139,50.741a6.655,6.655,0,0,0-8.316-.418C28.23,52.259,28,55.7,28.246,58.689c.485,5.846,3.562,13.133,10.012,14.289a2.055,2.055,0,0,0,2.46-1.4,2.017,2.017,0,0,0-1.4-2.46c-4.258-.763-6.212-5.351-6.912-9.183a15.505,15.505,0,0,1-.224-3.043,6.061,6.061,0,0,1,.436-2.727,2.523,2.523,0,0,1,3.689-.6,2.055,2.055,0,0,0,2.828,0,2.016,2.016,0,0,0,0-2.829Z"/><path class="b" d="M37.047,67.33A35.86,35.86,0,0,0,44.684,84.5c4.3,5.086,9.983,8.767,16.682,9.49a2.012,2.012,0,0,0,2-2,2.045,2.045,0,0,0-2-2c-5.756-.621-10.565-4.3-14.136-8.658-3.521-4.293-5.382-9.659-6.326-15.065a2.017,2.017,0,0,0-2.46-1.4,2.046,2.046,0,0,0-1.4,2.46Z"/><path class="b" d="M92.2,17.114a17.371,17.371,0,0,1,5.673,5,25.79,25.79,0,0,1,4.446,8.043,31.831,31.831,0,0,1,.368,19.455c-.788,2.457,3.072,3.509,3.857,1.063a35.6,35.6,0,0,0-.518-22.03,30.8,30.8,0,0,0-5.2-9.208,20.237,20.237,0,0,0-6.606-5.772C91.905,12.548,89.874,16,92.2,17.114Z"/><path class="b" d="M45.3,10.559c-7.119,2.717-12.1,9.823-14.295,16.9-2.436,7.857-1.851,16.469.016,24.372.591,2.5,4.449,1.444,3.857-1.063-1.662-7.036-2.209-14.614-.2-21.642,1.671-5.833,5.762-12.453,11.681-14.713a2.057,2.057,0,0,0,1.4-2.46,2.015,2.015,0,0,0-2.46-1.4Z"/><path class="b" d="M89.719,10.63A25.682,25.682,0,0,0,72.468.53a43.889,43.889,0,0,0-21.96,2.088,33.051,33.051,0,0,0-11.422,7.37c-1.83,1.816,1,4.645,2.828,2.828A30.721,30.721,0,0,1,59.98,4.368c6.194-.77,13.165-.593,18.876,2.18a20.09,20.09,0,0,1,7.409,6.1A2.061,2.061,0,0,0,89,13.366a2.014,2.014,0,0,0,.717-2.736Z"/><path class="b" d="M74.91,29.308c-3.154,1.937-6.264,3.985-9.526,5.737-.245.132-.494.258-.742.384-.074.038-.324.228-.13.069.238-.2-.047.087-.112.035-.286-.23,1.8.947,1.829.77.008-.059-.133-.185-.15-.247a5.834,5.834,0,0,0-.412-.826A12.628,12.628,0,0,1,64.486,32.1c-.261-1.661-2.31-1.692-3.342-.883C53.161,37.47,44.851,43.238,37.426,50.184c-1.884,1.762.949,4.587,2.829,2.828C47.678,46.068,55.99,40.3,63.972,34.042l-3.343-.883a16.857,16.857,0,0,0,1.731,4.4c.775,1.58,1.983,2.323,3.687,1.6,3.83-1.628,7.347-4.225,10.882-6.4,2.19-1.344.183-4.806-2.019-3.454Z"/><path class="b" d="M81.011,35.141C88.879,38.23,94.157,45.353,97.6,52.821a2.016,2.016,0,0,0,2.737.717,2.046,2.046,0,0,0,.717-2.736,47.088,47.088,0,0,0-7.477-11.529,31.587,31.587,0,0,0-5.392-4.86,28.494,28.494,0,0,0-6.113-3.129,2.014,2.014,0,0,0-2.46,1.4,2.046,2.046,0,0,0,1.4,2.46Z"/><path class="b" d="M63.023,77.478a12.846,12.846,0,0,0,6.192,1.442,10.168,10.168,0,0,0,6.338-1.907,2,2,0,0,0,0-2.828,2.062,2.062,0,0,0-2.829,0c.685-.534-.073.019-.293.134-.171.09-.638.23-.028.033-.171.055-.337.13-.509.185-.216.07-.436.129-.658.18a4.97,4.97,0,0,0-.765.145c.023-.065.425-.048-.016,0-.14.013-.28.025-.42.034-.336.022-.674.03-1.012.028q-.453,0-.906-.032c-.138-.01-.276-.021-.415-.035-.078-.007-.157-.016-.236-.026q-.232-.028.156.021a3.859,3.859,0,0,1-1.33-.3c-.187-.055-.368-.122-.552-.185-.464-.159.4.193-.022-.005-.228-.108-.453-.22-.676-.338a2,2,0,0,0-2.019,3.454Z"/><path class="b" d="M67.993,63.157a28.012,28.012,0,0,1,.659,3.014l-.072-.531a1.809,1.809,0,0,1,.012.416l.071-.532a1,1,0,0,1-.046.187l.2-.478a.71.71,0,0,1-.066.121l.313-.405a.7.7,0,0,1-.1.1l.405-.313a1.817,1.817,0,0,1-.239.126l.478-.2a1.715,1.715,0,0,1-.4.117l.531-.071a1.585,1.585,0,0,1-.377,0l.531.072c-.142-.02-.282-.055-.424-.074a1.526,1.526,0,0,0-.8-.036,1.486,1.486,0,0,0-.743.237,2,2,0,0,0-.718,2.737,1.915,1.915,0,0,0,1.2.919c.364.049.718.141,1.089.157a3.55,3.55,0,0,0,1.656-.4A2.489,2.489,0,0,0,72.5,66.684a3.889,3.889,0,0,0-.015-1.7c-.164-.971-.388-1.934-.638-2.886a2,2,0,0,0-2.46-1.4,2.025,2.025,0,0,0-1.2.919,2.1,2.1,0,0,0-.2,1.541Z"/><path class="b" d="M52.5,54.5c-.5,1.635-.175,5.4,2.923,5.718,4.1-.025,4.313-4.574,2.935-6.712C57.225,51.757,53.906,51.028,52.5,54.5Z"/><path class="b" d="M85.291,54.5c.5,1.635.176,5.4-2.923,5.718-4.095-.025-4.313-4.574-2.935-6.712C80.562,51.757,83.881,51.028,85.291,54.5Z"/><path class="b" d="M15.643,242.137a141.61,141.61,0,0,1,2.94,16.964c.147,1.354.145,2.777.388,4.114.022.116.061.548.05.126,0,.02-.006.038-.006.058,0,.077.072.065-.125.046-.4-.036.234.17.006.016-1.721-1.162-2.728-3.2-4.31-4.51-1.04-.862-3.055-.737-3.343.883a49.337,49.337,0,0,0-.36,11.535,32.489,32.489,0,0,0,.609,4.511c.222,1.117.539,2.224.725,3.347a10.569,10.569,0,0,1,.057,1.306c.005.1-.145.452-.045.263.225-.423.035-.124-.31.006-1.8.676-3.774-.853-4.834-2.169a15.649,15.649,0,0,1-2.734-6.824c-.985-5.158.157-10.474,1.373-15.489,1.439-5.931,3.172-11.8,3.557-17.925.162-2.57-3.838-2.561-4,0-.744,11.842-7.392,23.345-4.6,35.358,1.153,4.961,4.384,11.041,10.217,11.2,2.522.069,4.963-1.256,5.314-3.875.332-2.48-.667-5-1.08-7.429a39.865,39.865,0,0,1-.345-5.314,36.068,36.068,0,0,1,.313-7.44l-3.343.883c1.982,1.644,3.348,4.649,5.934,5.486a4.126,4.126,0,0,0,5.261-4.293,130.578,130.578,0,0,0-3.452-21.9c-.588-2.505-4.445-1.445-3.857,1.063Z"/><path class="b" d="M21.531,238.1c-5.182-.553-10.509-1.123-15.408-1.878l1.468,1.928q.219-3.93.46-7.86a2,2,0,0,0-4,0q-.246,3.93-.46,7.86a2,2,0,0,0,1.469,1.929c5.465.842,10.974,1.434,16.471,2.021a2.012,2.012,0,0,0,2-2,2.047,2.047,0,0,0-2-2Z"/><path class="b" d="M89.586,101.035a314.035,314.035,0,0,1,31.3,15.348c2.262,1.23,4.283-2.222,2.019-3.453a322.692,322.692,0,0,0-32.26-15.752,2.012,2.012,0,0,0-2.46,1.4,2.051,2.051,0,0,0,1.4,2.46Z"/><path class="b" d="M75.122,174.508a5.047,5.047,0,0,1,.041-.6l-.071.532a5.353,5.353,0,0,1,.226-.875c-.217.67-.086.2.031.006.039-.064.082-.126.123-.189.176-.269-.376.412-.1.138.075-.075.5-.438.17-.187-.307.237-.046.042.029-.005s.146-.081.218-.123c.339-.2-.36.117-.161.06.087-.025.172-.062.259-.088a4.4,4.4,0,0,1,.624-.13l-.532.071a4.715,4.715,0,0,1,1.181,0l-.532-.071a4.163,4.163,0,0,1,.566.123c.087.026.171.065.258.088-.557-.145-.328-.146-.16-.059q.112.059.219.126c.322.2-.109-.037-.137-.123.029.089.307.289.375.36.263.272-.218-.33-.117-.156.04.068.089.132.13.2s.075.14.115.209c.189.335-.136-.383-.071-.184a5.76,5.76,0,0,1,.254,1l-.072-.532a4.629,4.629,0,0,1,.016,1.122l.071-.532a7.6,7.6,0,0,1-.218.846c.154-.6.158-.354.056-.156q-.05.1-.105.189c-.038.063-.08.122-.119.183-.174.268.373-.422.107-.141-.114.121-.237.231-.354.348.39-.391.316-.233.151-.122-.08.053-.161.1-.246.149-.167.091-.461.146.13-.037-.085.026-.167.063-.253.09a4.225,4.225,0,0,1-.658.146l.531-.072a4.984,4.984,0,0,1-1.158.012l.532.071a3.652,3.652,0,0,1-.635-.138c-.188-.061-.332-.2.158.078-.071-.04-.148-.071-.22-.111s-.206-.169-.268-.171c.075,0,.441.368.165.119-.056-.051-.111-.1-.163-.16s-.285-.347-.037-.026-.069-.127-.125-.23c-.035-.064-.066-.13-.1-.2-.145-.288.2.541.076.177a5.394,5.394,0,0,1-.229-.919l.072.531a5.122,5.122,0,0,1-.046-.643,2,2,0,0,0-4,0,5.615,5.615,0,0,0,2.744,5.029,5.784,5.784,0,0,0,6.809-1.154,5.348,5.348,0,0,0,1.259-2.628,6.275,6.275,0,0,0-.254-3.149,5.285,5.285,0,0,0-2.219-2.777,6.062,6.062,0,0,0-4.012-.642,5.086,5.086,0,0,0-3.386,2.112,5.6,5.6,0,0,0-.941,3.209,2,2,0,0,0,4,0Z"/><path class="b" d="M111.921,196.155c.195,4.79.909,9.568,1.415,14.333.445,4.2.9,8.39,1.347,12.586.893,8.421,1.7,16.849,2.358,25.291.2,2.55,4.2,2.571,4,0-.66-8.442-1.465-16.87-2.358-25.291-.445-4.2-.9-8.39-1.347-12.586-.506-4.765-1.22-9.543-1.415-14.333-.1-2.565-4.1-2.578-4,0Z"/><path class="b" d="M120.277,115.432c-.6,7.818-2.2,15.5-3.549,23.211-1.324,7.544-2.171,15.09-2.76,22.723-.2,2.567,3.8,2.554,4,0,.586-7.59,1.446-15.072,2.778-22.57,1.377-7.756,2.926-15.5,3.531-23.364.2-2.567-3.8-2.554-4,0Z"/><path class="b" d="M115.971,145.633c.657,4.878.919,9.8,1.666,14.666a2.015,2.015,0,0,0,2.461,1.4,2.049,2.049,0,0,0,1.4-2.46c-.747-4.865-1.009-9.79-1.666-14.667a2.013,2.013,0,0,0-2.46-1.4,2.055,2.055,0,0,0-1.4,2.461Z"/><path class="a" d="M130.963,167.538l.02-.03c.661-.981,1.2-2.352.462-3.274a29.442,29.442,0,0,0,3.906-3.656,5.045,5.045,0,0,0,1.059-1.587,3.853,3.853,0,0,0-1-3.735,8.147,8.147,0,0,0-6.068-2.377,24.168,24.168,0,0,0-6.577,1.217l-6.788,1.92a47.191,47.191,0,0,0-1.394,16.13,3.862,3.862,0,0,0,.554,1.97c.744,1.021,2.225,1.1,3.48.955A17.66,17.66,0,0,0,130.963,167.538Z"/><path class="b" d="M132.69,168.547c1.054-1.562,1.578-3.647.482-5.322l-.313,2.423c1.985-1.565,4.651-3.645,5.479-6.125.851-2.544-.651-5.177-2.65-6.679-4.633-3.48-10.587-1.49-15.581-.077-1.413.4-2.841.764-4.243,1.2a2.353,2.353,0,0,0-1.821,1.517,18.853,18.853,0,0,0-.533,2.231,50.425,50.425,0,0,0-1.074,8.595q-.077,2.085.028,4.171a11.151,11.151,0,0,0,.63,4.038c1.163,2.542,3.932,2.8,6.386,2.437a19.746,19.746,0,0,0,13.21-8.409,2.018,2.018,0,0,0-.717-2.736,2.041,2.041,0,0,0-2.737.717,15.708,15.708,0,0,1-5.534,4.877,15.144,15.144,0,0,1-3.3,1.289,7.846,7.846,0,0,1-3.194.408c-.967-.175-.695-1.649-.738-2.413a47.359,47.359,0,0,1-.021-4.8,45.32,45.32,0,0,1,1.446-9.346l-1.4,1.4c2.532-.716,5.061-1.446,7.6-2.147,2.2-.61,4.6-1.261,6.885-.751,1.3.289,3.757,1.31,3.589,3.029-.084.865-1.244,1.765-1.82,2.34a30.917,30.917,0,0,1-2.723,2.405,2,2,0,0,0-.313,2.424c.226.345-.276.979-.482,1.284C127.792,168.668,131.256,170.672,132.69,168.547Z"/><path class="b" d="M15.61,115.432c.858,11.208,3.391,22.187,4.834,33.319.836,6.439,1.29,12.933,1.791,19.4q.788,10.183,1.461,20.375a71.14,71.14,0,0,1,.264,7.929c-.258,5.718-1.128,11.445-1.738,17.135-1.243,11.58-2.47,23.157-3.38,34.769-.2,2.567,3.8,2.553,4,0,.81-10.336,1.859-20.645,2.969-30.952.6-5.549,1.222-11.095,1.8-16.645a62.283,62.283,0,0,0,.185-10.647c-.852-13.053-1.622-26.156-3.087-39.156-1.341-11.895-4.189-23.585-5.1-35.531-.2-2.55-4.2-2.571-4,0Z"/><path class="b" d="M47.316,97.877q-9.578,3.981-18.782,8.755c-2.928,1.516-5.8,3.147-8.728,4.654-1.375.706-2.9,1.061-4.265,1.8a16.867,16.867,0,0,0-3.836,3.166c-3.937,4.065-5.478,9.075-5.84,14.615-.463,7.083-.744,14.182-1.14,21.269C3.888,167.12,3,182.1,2.174,197.083c-.4,7.274-.793,14.549-1.131,21.826-.107,2.306-.192,4.612-.273,6.919-.08,2.273-.049,4.5,2.206,5.79a9.973,9.973,0,0,0,3.788.775l5.644.64,9.013,1.022a2.012,2.012,0,0,0,2-2,2.047,2.047,0,0,0-2-2L5.392,228.238c-.127-.015-.264-.017-.389-.044-.249-.055.1,0,.095,0-.567-.419-.381-.946-.354-1.643.068-1.759.12-3.517.194-5.275.291-6.95.677-13.9,1.053-20.843C6.76,186.222,7.6,172.017,8.4,157.81q.584-10.288,1.128-20.58c.271-5.2-.016-10.87,2.858-15.452a14.274,14.274,0,0,1,6.828-5.935,84.13,84.13,0,0,0,9.463-4.781c6.434-3.382,12.983-6.537,19.7-9.328a2.065,2.065,0,0,0,1.4-2.46,2.013,2.013,0,0,0-2.46-1.4Z"/><path class="b" d="M118.525,246.369a77.689,77.689,0,0,1-12.154,1.132,119.919,119.919,0,0,1-14.818-.264,36.574,36.574,0,0,1-5.81-.889,6.264,6.264,0,0,1-3.532-1.966c-3.2-3.292-4.935-8.136-6.387-12.393a133.45,133.45,0,0,1-4.974-20.205,2.016,2.016,0,0,0-2.46-1.4,2.045,2.045,0,0,0-1.4,2.46,138.49,138.49,0,0,0,4.5,18.764c1.653,5.123,3.638,10.465,7.081,14.682a10.93,10.93,0,0,0,4.783,3.52,27.537,27.537,0,0,0,5.674,1.154,102.313,102.313,0,0,0,15.388.592,87.967,87.967,0,0,0,15.175-1.333c2.522-.506,1.454-4.362-1.064-3.857Z"/><path class="c" d="M46.969,97.505c-2.089,0-12.826,11.008-14.316,14.879-.1.253,5.9,5.428,7.922,7.242a52.888,52.888,0,0,0-5.367,6.2c-.042.279,27.549,34.667,30.761,37.929l1.094,1.112c.329-.676.669-1.337,1-2.031.681-1.367,1.416-2.943,2.19-4.7l-1.056-1.8c-3.686-7.958-10.533-23.934-15.53-38.249-3.121-8.942-5.534-16.71-6.7-20.584"/><path class="a" d="M86.3,181.018c-.586.187-1.239.4-2,.653,1.582,5.32,3.463,12.6,5.042,17.208,1.826-.5,4.754-1.426,7.134-2.113l.446-.129c-1.635-5.148-3.74-12.3-5.258-17.428C89.6,180,88.376,180.353,86.3,181.018Z"/><path class="c" d="M88.685,99.235c-.759,4.122-2.594,13.392-5,21.48-5.064,17-11.379,33.617-15.62,42.123-1.41,2.973-3.03,5.35-3.03,10.879,0,.486.126,2.172.34,4.668l10.811-15.458c1.146-1.742,1.816-2.767,3.07-4.687,9.447-14.463,21.546-32.133,21.505-32.412a52.984,52.984,0,0,0-5.367-6.2c2.022-1.814,8.02-6.989,7.922-7.242C101.822,108.513,91.084,97.505,89,97.505,88.932,97.874,88.827,98.465,88.685,99.235Z"/><path class="b" d="M20.448,249.956a82.381,82.381,0,0,0,13.739,1.288,87.545,87.545,0,0,0,15.946-.747,19.488,19.488,0,0,0,5.687-1.591,13.308,13.308,0,0,0,4.464-4.052c3.073-4.032,5.008-8.949,6.664-13.7a105.432,105.432,0,0,0,4.108-15.276c.471-2.516-3.383-3.595-3.857-1.064a106.318,106.318,0,0,1-3.286,12.813,58.145,58.145,0,0,1-5.729,13.25,15.253,15.253,0,0,1-3.368,3.971,10.972,10.972,0,0,1-4.46,1.568,69.975,69.975,0,0,1-14.191.869A81.782,81.782,0,0,1,21.511,246.1c-2.513-.5-3.589,3.351-1.063,3.858Z"/><path class="b" d="M45.041,98.037a461.46,461.46,0,0,0,17.723,48.688c1.522,3.561,3.078,7.108,4.7,10.623a2.016,2.016,0,0,0,2.736.717,2.046,2.046,0,0,0,.718-2.736,434.529,434.529,0,0,1-18.528-47.243q-1.812-5.535-3.5-11.113c-.738-2.459-4.6-1.411-3.857,1.064Z"/><path class="b" d="M46.969,95.505c-1.855.1-3.471,1.63-4.8,2.77A64.03,64.03,0,0,0,36.379,104a42.336,42.336,0,0,0-4.725,5.988c-.625,1.009-1.384,2.259-.727,3.431a8.307,8.307,0,0,0,1.7,1.81c2.141,1.98,4.363,3.871,6.536,5.815v-2.828a45.761,45.761,0,0,0-4.806,5.377c-.917,1.164-1.543,2.36-.572,3.682,1.774,2.42,3.7,4.742,5.566,7.089q9.314,11.694,18.8,23.254c2.087,2.536,4.11,5.206,6.409,7.558,1.8,1.843,4.63-.986,2.829-2.829-1.516-1.551-2.868-3.284-4.253-4.95q-3.734-4.489-7.406-9.031-7.8-9.591-15.484-19.27-1.3-1.638-2.581-3.284c-.2-.258.287.375.041.053l-.185-.241c-.1-.131-.194-.265-.3-.392-.333-.416-.168-.5-.081.069v1.063c-.146.468-.19.341.055.053.092-.108.2-.269.05-.07.086-.111.175-.22.264-.328.527-.637,1.06-1.266,1.6-1.887a39.456,39.456,0,0,1,2.878-3.088,2.013,2.013,0,0,0,0-2.828c-1.5-1.346-3.029-2.669-4.537-4.012-.727-.647-1.453-1.3-2.165-1.958-.273-.255-.539-.515-.808-.774-.3-.293-.318-.517-.1-.071l.273,1.009c.07.886-.313.889-.032.45.075-.118.132-.251.2-.373.173-.309.363-.61.558-.905.435-.66.9-1.291,1.381-1.891,1.3-1.626,2.694-3.177,4.139-4.675a57.863,57.863,0,0,1,4.272-4.059,10.951,10.951,0,0,1,1.405-1.08c.222-.147.456-.269.682-.408.318-.2-.38.073-.074.028.192-.028.451-.024-.216.012,2.561-.138,2.577-4.139,0-4Z"/><path class="b" d="M70.922,212.315c-1.043-8.379-1.929-16.778-2.744-25.182-.306-3.15-.6-6.3-.867-9.454a36.008,36.008,0,0,1-.2-5.945c.272-3.348,1.855-6.143,3.276-9.107,1.636-3.413,3.1-6.909,4.511-10.421,3.764-9.381,7.06-18.958,10.01-28.624a210.321,210.321,0,0,0,6.019-25.545,2.059,2.059,0,0,0-1.4-2.461,2.017,2.017,0,0,0-2.46,1.4c-3.038,17.559-8.418,34.6-14.855,51.2-1.454,3.747-2.973,7.472-4.661,11.121-1.366,2.951-3.129,5.829-3.911,9.009-1.274,5.174-.222,10.816.269,16.029.881,9.341,1.854,18.677,3.013,27.988a2.063,2.063,0,0,0,2,2,2.012,2.012,0,0,0,2-2Z"/><path class="b" d="M89,99.505c-.605-.033-.427-.043-.215-.012.308.045-.343-.172-.129-.055s.451.248.669.39a10.908,10.908,0,0,1,1.473,1.125,58.063,58.063,0,0,1,4.272,4.059c1.444,1.5,2.84,3.049,4.139,4.675.458.573.9,1.175,1.322,1.8.2.3.4.6.573.917.083.145.153.31.244.45.27.416-.11.526-.033-.45l.273-1.009c-.066.133.4-.407.158-.2-.091.077-.17.184-.256.268-.241.235-.482.47-.728.7-.737.689-1.491,1.361-2.244,2.032-1.508,1.343-3.033,2.666-4.538,4.012a2.016,2.016,0,0,0,0,2.828,37.716,37.716,0,0,1,2.692,2.876q.759.86,1.5,1.738c.189.228.38.455.561.689-.229-.3.136.231.192.275.625.5.536-2.2.066-1.69-.049.053-.071.138-.115.2-.181.239-.325.519-.488.771-.558.866-1.13,1.723-1.7,2.58-4.474,6.722-9,13.409-13.469,20.135-2.938,4.423-5.836,8.872-8.754,13.308-1.419,2.156,2.043,4.162,3.454,2.018q8.1-12.314,16.281-24.573,3.067-4.574,6.128-9.15c.8-1.2,2.792-3.316,2.367-4.916-.345-1.3-1.694-2.486-2.543-3.47a43.092,43.092,0,0,0-3.338-3.615v2.828c1.925-1.722,3.883-3.407,5.8-5.141a22.661,22.661,0,0,0,2.028-1.94c.934-1.089.681-2.17.051-3.343a32.333,32.333,0,0,0-4.329-5.759,68.993,68.993,0,0,0-5.822-5.939c-1.49-1.337-3.4-3.3-5.535-3.413-2.572-.139-2.564,3.862,0,4Z"/><path class="e" d="M101.587,146.446c6.349-.494,9.053,2.062,9.053,2.062,2.074,1.037,6.774,7.781,6.179,8.858-.691,1.25-10.235,2.248-13.985-.036-.246.661-.41,1.1-.41,1.1-.821,2.2-6.145,5.179-8.087,5.7-1.822.492-2.2.572-2.491-1.254-.236-1.469-.753-5.252.5-7.777,0,0-.56-6.458,4.333-7.778A26.975,26.975,0,0,1,101.587,146.446Z"/><path class="a" d="M107.3,149.841a4.657,4.657,0,0,0,1.2-1.058c2.062-2.761,1.045-5.99-.766-8.511,3.473-2.5-1.775-6.211-3.972-6.8a8.021,8.021,0,0,0-5.23.115c-1.222.593-3.148,1.778-3.236,3.231-6.949,3.066-4.316,10.054-2.944,11.419a8.921,8.921,0,0,0,3.83,2.555c1.062.272,3.4.547,4.032-.557C101.679,151.947,105.232,151.178,107.3,149.841Z"/><path class="b" d="M108.307,151.568a7.394,7.394,0,0,0,3.332-6.092,10.785,10.785,0,0,0-2.181-6.214L108.741,142a4.909,4.909,0,0,0,2.045-2.777,4.507,4.507,0,0,0-.559-3.206A10.776,10.776,0,0,0,98.6,131.421c-2.49.782-4.976,2.682-5.3,5.392l.99-1.727a8.982,8.982,0,0,0-5.515,9.252,9.679,9.679,0,0,0,6.107,8.11c2.258.906,5.557,1.015,7.062-1.208l-3.141.405c2.426,2.616,6.851,1.59,9.511-.077,2.177-1.363.171-4.826-2.019-3.454a6.806,6.806,0,0,1-2.946,1.093c.162-.02-.5.015-.6.013-.071,0-.651-.071-.316-.011-.09-.016-.771-.255-.462-.116q-.294-.194-.07-.006a2.312,2.312,0,0,1-.271-.271,2.025,2.025,0,0,0-3.141.405c.221-.327.612-.347.04-.21.307-.074.011,0-.066.008-.173.013-.348.012-.521.008s-.346-.019-.519-.03c-.066-.005-.4-.063-.053,0a5.5,5.5,0,0,1-1.045-.255,5.94,5.94,0,0,1-1.769-1.171c-.269-.241-.512-.517-.788-.749-.4-.332.155.309-.015,0s-.346-.577-.5-.882c-.231-.461.07.27-.067-.167-.076-.242-.166-.478-.234-.724-.052-.187-.1-.377-.138-.568-.031-.147-.054-.3-.081-.444.013.069.029.443.012.073a12.654,12.654,0,0,1,0-1.594c-.039.489.05-.229.083-.365a7.162,7.162,0,0,1,.223-.731c.183-.515-.116.215.039-.083.068-.132.134-.265.209-.394.061-.1.125-.209.192-.31.016-.024.369-.469.14-.2a7.211,7.211,0,0,1,.7-.717c.012-.011.276-.237.095-.094.116-.092.243-.176.367-.259.884-.59,2.115-.865,2.431-2.017l.072-.531a.191.191,0,0,1-.02.167c-.084.193.191-.29.04-.1a4.45,4.45,0,0,1,.671-.657,5.242,5.242,0,0,1,5.688-.676c.28.1-.43-.235.021.011.15.082.308.15.458.231.271.146.536.305.794.473.135.088.267.181.4.274.111.081.106.075-.013-.02q.153.121.3.249a8.289,8.289,0,0,1,.7.667c.084.091.168.185.246.281-.246-.305.107.189.152.252.066.092.208.445.056.047a3.606,3.606,0,0,1,.133.456c-.013-.053-.084-.451-.031-.076-.056-.4.094-.135-.037.07.293-.458-.195.04.033-.095.275-.163-.424.382-.161.182a2.034,2.034,0,0,0-.718,2.736c1.35,1.921,2.755,5.157.284,6.833a2.05,2.05,0,0,0-.717,2.737A2.018,2.018,0,0,0,108.307,151.568Z"/><path class="b" d="M100.778,140.655a6.078,6.078,0,0,0-1.137.41,4.883,4.883,0,0,0-.616.324c-.408.252-.787.547-1.181.819a2.238,2.238,0,0,0-.919,1.195,1.523,1.523,0,0,0-.036.8,1.48,1.48,0,0,0,.238.744,2.017,2.017,0,0,0,1.2.919,1.985,1.985,0,0,0,1.541-.2,10.833,10.833,0,0,1,1.8-1.143l-.478.2a3.793,3.793,0,0,1,.659-.208,1.929,1.929,0,0,0,1.433-1.662,1.526,1.526,0,0,0-.036-.8,2.025,2.025,0,0,0-.919-1.195l-.478-.2a2.018,2.018,0,0,0-1.063,0Z"/><path class="b" d="M90.617,154.091a12.891,12.891,0,0,0-1.044,6.4c.054.893.17,1.783.305,2.668a4.309,4.309,0,0,0,1,2.468c1.284,1.311,3.337.741,4.832.141a23.841,23.841,0,0,0,4.506-2.4,10.248,10.248,0,0,0,4.141-4.408,2.007,2.007,0,0,0-1.4-2.46,2.058,2.058,0,0,0-2.46,1.4c.278-.7-.064.03-.189.226-.166.26.324-.383-.01,0-.111.127-.227.25-.346.369-.23.231-.473.448-.722.657-.09.076-.242.265-.351.286.174-.033.286-.215.089-.071-.109.08-.216.161-.326.239a23.575,23.575,0,0,1-3.691,2.166c-.135.063-.27.124-.406.184-.431.194.424-.16.009,0-.225.085-.448.17-.679.237-.316.092-.636.17-.957.244-.05.012-.105.015-.154.03-.239.073.487-.042.254-.032-.5.02.335.117.124.049-.252-.08.335.149.3.13.445.26.378.32.258.193.388.411.269.377.19.233-.129-.236.1.243.1.247a1.9,1.9,0,0,0-.116-.405c-.044-.187-.075-.377-.106-.567-.019-.116-.037-.233-.054-.35-.01-.066-.018-.132-.028-.2-.039-.248.057.469.028.209-.04-.354-.083-.706-.111-1.061a16.9,16.9,0,0,1-.024-2.681c.008-.1.019-.208.027-.312.041-.526-.081.428.009-.091.039-.231.08-.46.133-.688s.114-.447.186-.666c.031-.1.066-.191.1-.287.14-.394-.158.335.037-.071a2,2,0,0,0-3.454-2.019Z"/><path class="b" d="M109.63,150.235c.14.073.264.175.4.247.23.121-.312-.289.044.044s.678.637,1,.981.609.686.9,1.042c.072.087.515.658.269.334q.262.345.515.7a24.313,24.313,0,0,1,1.651,2.591c.086.159.171.32.25.483.037.075.07.153.108.227.191.368-.108-.355-.042-.106.037.138.095.288.145.422.02.053.021.114.041.165.122.3-.038-.535-.036-.25a2.342,2.342,0,0,1,.328-.889.94.94,0,0,1,.322-.314,1.1,1.1,0,0,0-.276.145c-.17.133.534-.177.213-.092-.087.023-.173.062-.26.09a14.555,14.555,0,0,1-2.1.452c-.355.06.058-.008.11-.014l-.364.043q-.339.037-.679.066-.753.063-1.511.085a25.534,25.534,0,0,1-3.055-.082q-.405-.036-.808-.087c.467.06.1.012-.02-.009-.154-.027-.308-.051-.461-.081a11.967,11.967,0,0,1-1.5-.38c-.173-.057-.776-.356-.283-.088-.185-.1-.382-.179-.565-.285-.209-.12-.549-.427-.18-.083a5.6,5.6,0,0,1-.467-.458,2.017,2.017,0,0,0-2.828,0,2.042,2.042,0,0,0,0,2.829c1.483,1.733,4,2.252,6.15,2.534a26.271,26.271,0,0,0,6.718-.022c1.674-.215,4.2-.44,5.172-2.062,1.119-1.869-.674-4.412-1.685-5.935a32.146,32.146,0,0,0-2.625-3.446,9.6,9.6,0,0,0-2.566-2.248,2.044,2.044,0,0,0-2.736.718,2.022,2.022,0,0,0,.717,2.736Z"/><path class="a" d="M84.649,184.931l-12.5-4.744a4.117,4.117,0,0,0-2.241-.4,4.129,4.129,0,0,0-2.021,1.419l-5.537,5.895A29.24,29.24,0,0,0,58.031,193a8.038,8.038,0,0,0-.849,6.385,5.564,5.564,0,0,0,5.307,3.873,11.67,11.67,0,0,0,5.758-.954c2.673-.988,5.925.435,8.643-.416A115.781,115.781,0,0,0,87.935,197.9Z"/><path class="b" d="M85.18,183l-8.564-3.251c-2.5-.95-5.737-2.921-8.376-1.44a12.432,12.432,0,0,0-2.744,2.524L62.4,184.13a43.772,43.772,0,0,0-5.22,6.377,11.974,11.974,0,0,0-2.289,7.183,7.726,7.726,0,0,0,3.254,6.183,10.085,10.085,0,0,0,6.629,1.361c2.272-.225,4.263-1.384,6.564-1.281a32.671,32.671,0,0,0,4.217.181,18.888,18.888,0,0,0,4.277-1.093q4.629-1.517,9.112-3.413a2.011,2.011,0,0,0,.717-2.736,2.053,2.053,0,0,0-2.736-.718c-2.2.932-4.448,1.759-6.711,2.528-1.964.667-3.944,1.532-6.046,1.454s-4.2-.488-6.269.155a12.871,12.871,0,0,1-5.411.943,3.688,3.688,0,0,1-3.33-2.24c-.709-2.046-.023-3.983,1.025-5.754,2.368-4,5.919-7.3,9.117-10.635.259-.271.579-.749.957-.859.446-.13,1.2.292,1.591.437,1.313.494,2.623,1,3.935,1.494l8.333,3.163a2.016,2.016,0,0,0,2.46-1.4,2.044,2.044,0,0,0-1.4-2.46Z"/><path class="b" d="M95.946,194.838c-2.381.69-4.743,1.451-7.134,2.112l2.46,1.4c-1.925-5.658-3.343-11.48-5.041-17.207l-1.4,2.46c2.047-.681,4.119-1.293,6.152-2.015a2.05,2.05,0,0,0,1.4-2.46,2.017,2.017,0,0,0-2.46-1.4c-2.034.722-4.105,1.334-6.153,2.015a2.034,2.034,0,0,0-1.4,2.46c1.7,5.728,3.117,11.549,5.042,17.207a2.04,2.04,0,0,0,2.46,1.4c2.391-.661,4.753-1.422,7.135-2.112,2.467-.716,1.418-4.577-1.064-3.857Z"/><path class="b" d="M121.368,116.585a9.375,9.375,0,0,1,4.554,3.041,34.019,34.019,0,0,1,3.011,5.884c2.186,4.6,4.268,9.25,6.186,13.968a194.456,194.456,0,0,1,8.5,25.628c.687,2.728,1.368,5.48,1.871,8.249q.06.332.112.665c.012.076.053.386,0,0,.016.124.032.249.044.373.056.569.1,1.137.107,1.709a10.414,10.414,0,0,1-.4,3.361A9.822,9.822,0,0,1,139.7,185.6a123.093,123.093,0,0,1-13.971,4.987c-9.273,2.971-18.7,5.474-28.215,7.55l2.46,1.4c-2.565-7.523-4.7-15.2-6.963-22.815l-1.4,2.461c7.413-2.1,14.738-4.525,22.222-6.371,2.5-.616,1.44-4.474-1.063-3.857-7.484,1.846-14.81,4.266-22.222,6.37a2.029,2.029,0,0,0-1.4,2.461c2.264,7.617,4.4,15.291,6.963,22.815a2.053,2.053,0,0,0,2.46,1.4c8.852-1.932,17.631-4.237,26.28-6.938,5.1-1.592,10.166-3.315,15.136-5.274,3.511-1.385,6.727-3.561,8.386-7.068,2.407-5.09,1.027-10.5-.182-15.7a188.934,188.934,0,0,0-8.5-26.789c-2.186-5.511-4.574-10.943-7.111-16.3-1.187-2.506-2.222-5.244-4.045-7.372a13.794,13.794,0,0,0-6.117-3.825c-2.438-.844-3.485,3.018-1.063,3.857Z"/></svg>