<?xml version="1.0" encoding="utf-8"?>
<!-- Uploaded to: SVG Repo, www.svgrepo.com, Generator: SVG Repo Mixer Tools -->
<svg width="800px" height="800px" viewBox="-146.29 0 442.564 442.564" xmlns="http://www.w3.org/2000/svg"><defs><style>.a{fill:#ffffff;}.b{fill:#b5886a;}.c{fill:#211715;}.d{fill:#f4b467;}.e{fill:#645d5c;}.f{fill:#f4b3b3;}.g{fill:#ad7b59;}</style></defs><path class="a" d="M112.762,47.758a4.283,4.283,0,0,1,3.43-1,4.051,4.051,0,0,1,2.911,1.935,5.723,5.723,0,0,1,.6,2.3,17.143,17.143,0,0,1-1.749,9.091,10.894,10.894,0,0,1-2.819,3.7,7.231,7.231,0,0,1-3.36,1.515l-.576.09c-.276,1.032-.585,1.9-.737,2.362-1.034,2.805-7.084,12.9-14.521,15.708a38.78,38.78,0,0,0,.606,6.23c.345,1.967.237,3.725,2.972,4.713.181.065,3.259,1.266,3.535,1.379,0,0,1.164,29.05-18.613,29.05S65.648,95.063,65.648,95.063c.526-.179,1.8-.6,1.98-.663,2.735-.988,2.627-2.746,2.972-4.713a38.585,38.585,0,0,0,.61-6.631,25.1,25.1,0,0,1-8.338-6.741,29.168,29.168,0,0,1-5.559-10.85L56.218,65.3a7.231,7.231,0,0,1-3.361-1.515,10.907,10.907,0,0,1-2.819-3.7,17.153,17.153,0,0,1-1.749-9.091,5.724,5.724,0,0,1,.6-2.3,4.047,4.047,0,0,1,2.91-1.935,4.282,4.282,0,0,1,3.43,1s-.123-24.929,27.655-24.929S112.762,47.758,112.762,47.758Z"/><path class="b" d="M49.879,72.691c.07,2.776.759,5.617.9,8.39.13,2.81-1.04,6.04-3.72,6.95-1.57,2.53,12.02,7.88,20.09,1.21l3.449.476a38.725,38.725,0,0,0,.615-6.66,25.117,25.117,0,0,1-8.338-6.742,29.168,29.168,0,0,1-5.559-10.85L56.218,65.3a7.231,7.231,0,0,1-3.361-1.515,8.7,8.7,0,0,1-.832-.77A15.665,15.665,0,0,0,50.056,69a26.059,26.059,0,0,0-.18,3.55Z"/><path class="c" d="M50.3,62c-2.393,4.228-2.757,9.124-2.138,13.863.294,2.25.942,4.726.5,6.992a5.5,5.5,0,0,1-.9,2.241,4.567,4.567,0,0,1-1.717,1.207c-1.3.759-1.344,2.578-.658,3.751a6.369,6.369,0,0,0,2.456,2.167,19.757,19.757,0,0,0,8.87,2.23,17.708,17.708,0,0,0,11.846-3.8,2.014,2.014,0,0,0,0-2.829,2.048,2.048,0,0,0-2.828,0c-3.094,2.488-7.471,3.07-11.294,2.408a15.292,15.292,0,0,1-4.4-1.369c-.283-.151-.556-.314-.822-.492-.16-.107-.275-.23-.061-.039-.093-.083-.184-.165-.272-.253-.3-.3.046-.026.019.054-.008.024-.172-.493-.058-.056a1.457,1.457,0,0,1-.064.961l-1.2.919c4.591-1.747,5.528-6.619,5-11-.617-5.083-1.483-10.246,1.17-14.934C55.022,61.777,51.568,59.759,50.3,62Z"/><path class="c" d="M69.206,83.572c-.016.806-.055,1.61-.122,2.414q-.047.546-.107,1.091-.031.273-.065.545c-.018.141-.019.145,0,.012l-.031.218c-.161,1.084-.282,2.214-.549,3.279-.024.1-.051.2-.081.3s-.192.361-.022.1c.219-.333-.257.382-.24.405-.031-.041.341-.362.035-.058-.079.079-.159.157-.239.234-.31.3.343-.185-.062.036-.118.065-.231.139-.351.2s-.347.157-.092.057c-.094.037-.186.069-.281.1-.166.058-.333.112-.5.168-.461.153-.922.3-1.382.462a2,2,0,0,0,1.063,3.857,20.7,20.7,0,0,0,3.286-1.231,5.528,5.528,0,0,0,2.624-3.214,21.506,21.506,0,0,0,.616-3.414,43.2,43.2,0,0,0,.5-5.561,2,2,0,0,0-4,0Z"/><path class="c" d="M93.94,83.572a50.016,50.016,0,0,0,.724,6.926,7.621,7.621,0,0,0,1.53,4.092,8.384,8.384,0,0,0,3.552,2.032c.926.359,1.856.712,2.776,1.086a2.006,2.006,0,0,0,2.46-1.4,2.061,2.061,0,0,0-1.4-2.46c-.813-.331-1.635-.643-2.453-.961-.345-.134-.69-.27-1.036-.4-.079-.03-.159-.057-.237-.09.338.14-.2-.116-.267-.153-.113-.065-.536-.421-.175-.089-.1-.1-.2-.2-.305-.293-.3-.286.181.337-.01-.015-.06-.111-.124-.222-.186-.333-.185-.33.108.423-.008-.052-.035-.145-.084-.287-.118-.432-.133-.572-.2-1.158-.292-1.737a39.435,39.435,0,0,1-.558-5.723,2,2,0,0,0-4,0Z"/><path class="a" d="M72.217,176.014c2.815-.592,15.408-2.814,21.774-3.779,6.191-.938,28.118-5.577,32.066-7.11a66.663,66.663,0,0,0,18.559,15.625.554.554,0,0,0,.937-.277,23.961,23.961,0,0,0-.062-21.155,6.378,6.378,0,0,0-1.11-1.663l-.008-.03c-1.344-4.917-4.135-17.882-4.854-20.817-1.117-4.556-4.051-17.693-5.039-21.481a22.392,22.392,0,0,0-3.707-8,14.053,14.053,0,0,0-1.9-1.3l-.28-.152-.544-.434a24.28,24.28,0,0,0-3.831-2.135c-4.591-2.5-8.792-4.726-13.365-6.894-3.252-3.212-7.252-7.9-10.14-8.13-2.876,3.883-4.026,8.915-7.333,14.091-2.481,3.883-4.531,7.226-6.52,10.982,0,0-1.483,2.234-2.945,4.439L78.98,110.9c-3.128-5.931-10.353-17.038-12.294-22.215-2.919,2.168-5.878,3.448-8.566,8.011-4.343,2.081-8.375,4.223-12.763,6.61a27.371,27.371,0,0,0-4.051,2.3l-.844.423a14.053,14.053,0,0,0-1.9,1.3,22.375,22.375,0,0,0-3.707,8C38.736,120.9,72.217,176.014,72.217,176.014Z"/><path class="a" d="M108.471,315.169c2.428,19.3-1.573,38.741-3.973,58.046-1.636,13.157-1.915,28.213,7.389,37.658,1.994,1.988,2.734,6.528,1.307,8.789-2.164,3.427-7.037,1.59-10.543-.009-4.228-1.927-8.276-4.262-12.518-6.158-2.677-1.2-4.323-2.607-7.384-2.105-2.486.408-4.095,1.935-6.173,3.444-4.2,3.048-8.675,5.928-14.049,5.717-3.914-.154-9.309-4.466-6.4-8.7,1.11-1.613,3.007-2.487,4.205-4.209a27.648,27.648,0,0,0,3.2-6.229c3.294-8.929,2.661-18.929,1.508-28.2-2.4-19.3-6.4-38.745-3.973-58.046"/><path class="c" d="M59.073,315.169c-1.74,14.142-.1,28.353,1.835,42.384.907,6.581,1.967,13.156,2.591,19.772a66.932,66.932,0,0,1-.107,16.5c-.9,5.8-3.007,11.365-7.149,15.634-1.794,1.848,1.032,4.68,2.828,2.828,8.1-8.345,9.381-20.458,8.7-31.544-.406-6.585-1.443-13.129-2.36-19.656-.993-7.067-1.98-14.14-2.562-21.255a121.074,121.074,0,0,1,.228-24.663,2.01,2.01,0,0,0-2-2,2.05,2.05,0,0,0-2,2Z"/><path class="c" d="M82.626,314.788c-.005,25.282.083,50.568-.337,75.848q-.183,11.063-.52,22.121c-.08,2.575,3.92,2.573,4,0,.81-26.1.847-52.207.853-78.313q0-9.828,0-19.656c0-2.574-4-2.578-4,0Z"/><path class="c" d="M106.471,315.169c1.786,14.516.017,29.1-2,43.5-1.7,12.141-4.182,24.7-2.061,36.952a31.315,31.315,0,0,0,8.058,16.667c1.8,1.851,4.623-.979,2.828-2.828-7.659-7.894-8.213-19.689-7.433-30.049,1.023-13.578,3.868-26.961,4.908-40.546a119.426,119.426,0,0,0-.3-23.695,2.063,2.063,0,0,0-2-2,2.011,2.011,0,0,0-2,2Z"/><path class="d" d="M52.534,187.217c-1.391,4.881-3.686,17.8-4.809,24.162-5.485,31.082,2.641,100.143,2.851,103.033,18.657.829,51.546,1.422,67.427-.072.153-2.049,8.151-71.879,2.666-102.961-1.122-6.36-3.411-19.059-4.8-23.939"/><path class="c" d="M50.605,186.686c-1.37,4.868-2.214,9.909-3.136,14.877-.865,4.662-1.779,9.329-2.378,14.035a206.831,206.831,0,0,0-1.251,27.89c.162,19.036,1.542,38.066,3.339,57.011.439,4.636,1.049,9.269,1.4,13.913a2.053,2.053,0,0,0,2,2c18.191.8,36.46,1.182,54.663.635,4.259-.128,8.521-.313,12.764-.707a2.065,2.065,0,0,0,2-2c.286-3.691.758-7.374,1.109-11.06q1.188-12.478,2.044-24.986c.688-10.185,1.2-20.385,1.373-30.591a248.013,248.013,0,0,0-.861-28.889c-.5-5.006-1.405-9.939-2.314-14.884-1.045-5.682-1.99-11.454-3.558-17.022-.7-2.474-4.557-1.423-3.857,1.063,1.377,4.893,2.239,9.953,3.172,14.945.827,4.422,1.759,9.075,2.28,13.378a216.892,216.892,0,0,1,1.183,27.919c-.165,18.967-1.5,37.928-3.25,56.809-.412,4.439-.976,8.874-1.321,13.318l2-2c-8.1.753-16.274.855-24.407.905-9.606.059-19.214-.077-28.816-.336q-7.1-.192-14.2-.5l2,2c-.285-3.8-.786-7.6-1.156-11.4q-1.214-12.471-2.1-24.971c-.713-10.231-1.245-20.479-1.429-30.733a243.847,243.847,0,0,1,.83-28.428c.468-4.727,1.349-9.393,2.222-14.172,1.034-5.658,1.959-11.415,3.52-16.958.7-2.482-3.16-3.541-3.858-1.063Z"/><path class="e" d="M43.414,436.326c-.11-.144-.215-.293-.312-.446a8.359,8.359,0,0,1-.554-7.006,22.917,22.917,0,0,1,3.6-6.273q5.2-7.108,11-13.756c1.506-1.728,3.209-3.528,5.461-3.953-.364,1.357-.909,4.71.288,5.446s3.021.735,4.426.759c6.152.107,12.725-4.3,16.14-7.38.233-.21.667.084.67.418.031,3.963.363,5.676.344,10.055a10.112,10.112,0,0,1-.762,3.39c-.976,2.639-3.869,3.91-6.191,5.5-6.041,4.133-9.222,11.675-15.552,15.351a16.341,16.341,0,0,1-15.108.541A9.523,9.523,0,0,1,43.414,436.326Z"/><path class="e" d="M126.638,436.326q.165-.216.312-.446a8.362,8.362,0,0,0,.553-7.006,22.939,22.939,0,0,0-3.595-6.273q-5.2-7.108-11-13.756c-1.506-1.728-3.209-3.528-5.461-3.953.364,1.357.978,4.969-.218,5.7s-3.168.71-4.573.734c-6.1.106-12.553-4.492-15.975-7.536-.265-.235-.755-.057-.759.247-.046,3.985-.517,5.4-.5,9.815a12.279,12.279,0,0,0,.916,3.723c.976,2.639,3.869,3.91,6.191,5.5,6.041,4.133,9.222,11.675,15.552,15.351a16.341,16.341,0,0,0,15.108.541A9.535,9.535,0,0,0,126.638,436.326Z"/><path class="c" d="M45.141,435.316c-1.632-2.229-1.232-5.047-.048-7.4a52,52,0,0,1,5.49-7.93q3.03-3.954,6.267-7.746c1.712-2.014,3.553-4.809,6.287-5.424l-2.46-2.46c-.52,2.026-1.029,4.857.2,6.725,1.58,2.392,5.881,2.2,8.37,1.905,5.866-.7,11.281-3.987,15.622-7.859l-.882.514.2-.07H83.13l.219.075-.883-.514.175.177-.514-.882a11.679,11.679,0,0,1,.084,2.59c.042.882.1,1.763.146,2.645.106,1.994.392,4.2-.159,6.138a6.71,6.71,0,0,1-3.267,4,40.119,40.119,0,0,0-4.695,3.313c-5.591,4.87-9.016,12.974-16.7,14.98-4.212,1.1-9.812.375-12.7-3.188a2.014,2.014,0,0,0-2.829,0,2.048,2.048,0,0,0,0,2.829c2.179,2.683,5.788,4.12,9.133,4.6a18.71,18.71,0,0,0,10.593-1.535c5.881-2.721,9.185-8.573,13.5-13.089a21.372,21.372,0,0,1,3.453-3.011c1.239-.836,2.544-1.564,3.734-2.472,3.06-2.333,4.107-5.653,4.057-9.413-.02-1.491-.1-2.979-.185-4.468-.087-1.532.152-3.4-.261-4.869a2.524,2.524,0,0,0-1.718-1.73,2.663,2.663,0,0,0-2.588.84,34.391,34.391,0,0,1-3.283,2.492c-3.042,2.015-6.623,3.851-10.342,4a18.447,18.447,0,0,1-2.67-.063,9.156,9.156,0,0,1-1.1-.217c-.777-.179,0-.207-.066.145.1-.512-.1-1.28-.039-1.86a11.856,11.856,0,0,1,.32-1.67,2.023,2.023,0,0,0-2.461-2.46c-3.455.777-5.718,3.713-7.9,6.271q-3.793,4.455-7.335,9.115c-3.858,5.059-9.874,12.536-5.153,18.986a2.06,2.06,0,0,0,2.736.718A2.016,2.016,0,0,0,45.141,435.316Z"/><path class="c" d="M128.364,437.335c4.721-6.451-1.3-13.928-5.152-18.986q-3.549-4.651-7.336-9.115c-2.179-2.558-4.443-5.494-7.9-6.271a2.023,2.023,0,0,0-2.46,2.46,10.139,10.139,0,0,1,.406,3.3,2.373,2.373,0,0,1-.08.511c-.144-.064.851-.387.083-.218a11.622,11.622,0,0,1-2.225.3,17.726,17.726,0,0,1-9.378-2.487,35.348,35.348,0,0,1-4.132-2.709c-1.061-.805-2.314-2.416-3.742-2.425-2.405-.017-2.493,2.176-2.574,3.97-.065,1.418-.215,2.828-.319,4.243-.244,3.335-.278,7,1.692,9.9,1.823,2.677,4.906,3.795,7.322,5.791,4.955,4.094,7.962,10.053,13.277,13.779a18.06,18.06,0,0,0,11.336,3.159c3.912-.239,8.318-1.65,10.868-4.791a2.061,2.061,0,0,0,0-2.829,2.016,2.016,0,0,0-2.829,0c-2.55,3.142-7.352,4.091-11.192,3.509-4-.607-7.119-2.91-9.79-5.828-2.61-2.85-4.811-6.066-7.618-8.736a29.305,29.305,0,0,0-4.739-3.567c-1.342-.84-2.928-1.734-3.615-3.241-1-2.192-.893-4.467-.735-6.811.06-.9.149-1.8.22-2.7.04-.5.077-1.006.1-1.51a6.371,6.371,0,0,1,.074-1.653l-.919,1.195.2-.126-1.009.273.247-.024-1.009-.273a7.144,7.144,0,0,1,1.243.993q.873.705,1.776,1.373a35.93,35.93,0,0,0,3.673,2.4,23.1,23.1,0,0,0,8.992,3.081c2.4.243,6.606.412,8.1-1.91,1.253-1.945.686-4.9.148-6.993l-2.461,2.46c2.67.6,4.458,3.275,6.133,5.243q3.308,3.882,6.421,7.927a54.244,54.244,0,0,1,5.392,7.741c1.243,2.4,1.736,5.283.051,7.585a2.015,2.015,0,0,0,.717,2.737A2.046,2.046,0,0,0,128.364,437.335Z"/><path class="c" d="M52.212,188.848h63.755c2.574,0,2.578-4,0-4H52.212c-2.574,0-2.578,4,0,4Z"/><path class="c" d="M118.662,117.5c-.118,8.217.051,16.46-.742,24.65a74.485,74.485,0,0,1-2.063,11.815c-.509,1.931-1.32,3.8-1.8,5.728a18.3,18.3,0,0,0-.323,3.075,59.779,59.779,0,0,0,.542,12.813,2.012,2.012,0,0,0,2.46,1.4,2.053,2.053,0,0,0,1.4-2.461,55.1,55.1,0,0,1-.445-11c.033-.594.074-1.188.128-1.781.023-.247.048-.493.074-.74.025-.23.145-.6.016-.176.559-1.862,1.244-3.684,1.749-5.568,2.062-7.7,2.659-15.715,2.846-23.66.111-4.695.093-9.392.16-14.087.037-2.575-3.963-2.576-4,0Z"/><path class="a" d="M77.549,172.812c1.428.2,11.082.676,16.442-.577,6.237-1.458,29.135-5.769,32.308-7.211l16.383-2.347c.447,1.707.886,3.42,1.256,5.061,1.124,4.983-.687,10.207-4.069,11.58-4.209,1.708-7.1,1.952-11.024,2.778-8.221,1.73-45.937,5.841-47.127,6.057"/><path class="c" d="M102.13,94.7c4.327,1.8,8.573,3.787,12.748,5.915,2.018,1.029,4.021,2.089,6.016,3.163a47.371,47.371,0,0,1,6.148,3.389,2.012,2.012,0,0,0,2.736-.717,2.049,2.049,0,0,0-.717-2.737,48.95,48.95,0,0,0-6.338-3.492c-2.056-1.1-4.12-2.195-6.2-3.251q-6.546-3.321-13.328-6.127a2.013,2.013,0,0,0-2.46,1.4,2.051,2.051,0,0,0,1.4,2.46Z"/><path class="c" d="M127.865,107.751a6.61,6.61,0,0,1,1.625,1.151,14.047,14.047,0,0,1,1.867,3.378,32.892,32.892,0,0,1,1.54,4.958c.921,3.761,1.773,7.54,2.641,11.314q2.307,10.022,4.606,20.044c.492,2.159.989,4.318,1.513,6.47.212.871.427,1.74.657,2.606.218.822.779,2.154.472,2.882l.514-.883.138-.093c-2.268,1.219-.25,4.674,2.019,3.454,2.322-1.247,1.2-4.57.687-6.525-.483-1.832-.917-3.678-1.348-5.524-.959-4.108-1.866-8.227-2.8-12.341-1.661-7.321-3.348-14.644-5.113-21.94a38.343,38.343,0,0,0-2.073-6.441,16.639,16.639,0,0,0-2.4-4.073,9.332,9.332,0,0,0-2.528-1.891c-2.238-1.281-4.255,2.174-2.019,3.454Z"/><path class="c" d="M58.313,100.763A19.5,19.5,0,0,1,62.9,93.918a58.583,58.583,0,0,1,4.8-3.509l-2.938-1.2a76.687,76.687,0,0,0,5.821,11.162c2.242,3.831,4.6,7.607,6.674,11.531,1.2,2.275,4.659.256,3.454-2.019-2.028-3.828-4.32-7.515-6.51-11.25a78.723,78.723,0,0,1-5.582-10.487c-.412-1.079-1.8-2.032-2.938-1.2a67.19,67.19,0,0,0-5.611,4.135,22.156,22.156,0,0,0-5.207,7.654,2.065,2.065,0,0,0,.718,2.737,2.015,2.015,0,0,0,2.736-.718Z"/><path class="a" d="M86.862,113.352c1.989-3.756,4.039-7.1,6.52-10.982,3.307-5.176,4.457-10.208,7.333-14.091,3.595.288,8.912,7.477,12.366,10.137-2.589.216-8.2.223-9.059,1.079-1.294,1.563-3.863,4.561-5.2,6.116"/><path class="c" d="M88.589,114.362c2.348-4.413,5.219-8.5,7.637-12.863,2.212-3.991,3.526-8.49,6.216-12.21l-1.727.99c-.337-.038.318.108.4.139a3.649,3.649,0,0,1,.4.194,10.511,10.511,0,0,1,1.5.987,32.1,32.1,0,0,1,2.882,2.637,69.584,69.584,0,0,0,5.761,5.594l1.415-3.414c-2.909.229-6.139-.041-8.954.832-1.451.45-2.206,1.659-3.145,2.767q-1.778,2.1-3.57,4.182c-1.667,1.945,1.149,4.787,2.828,2.829q1.551-1.81,3.1-3.624.783-.921,1.56-1.845l.372-.446q.314-.339.062-.115c-.035.22-.553.187.046.057a57.588,57.588,0,0,1,7.7-.637c1.514-.119,2.908-2.239,1.414-3.414-2.373-1.866-4.329-4.229-6.5-6.316-2.049-1.97-4.348-4.072-7.282-4.407a2.009,2.009,0,0,0-1.727.991c-2.69,3.72-4,8.219-6.216,12.21-2.418,4.363-5.289,8.45-7.637,12.863-1.208,2.271,2.243,4.294,3.454,2.019Z"/><path class="c" d="M140.753,163.208c.975,3.733,2.353,7.692.791,11.47a5.055,5.055,0,0,1-2.652,2.889,30.705,30.705,0,0,1-5.733,1.66q-6.354,1.309-12.767,2.211c-9.944,1.392-20.191,2.559-30.28,3.726-2.964.343-5.984.552-8.926,1.061a2.016,2.016,0,0,0-1.4,2.46,2.046,2.046,0,0,0,2.461,1.4c.353-.061-.083.017-.25.031.162-.014.324-.041.485-.061q.822-.1,1.644-.195,2.667-.312,5.335-.618,7.784-.9,15.564-1.834c10-1.211,20.089-2.295,29.939-4.48a22.959,22.959,0,0,0,6.557-2.2,9.169,9.169,0,0,0,3.646-4.423c2-4.715.673-9.436-.559-14.155-.65-2.488-4.51-1.433-3.858,1.063Z"/><path class="c" d="M94.523,174.164c9.264-2.155,18.662-3.707,27.909-5.946a28.775,28.775,0,0,0,4.877-1.467,2.015,2.015,0,0,0,.717-2.737,2.049,2.049,0,0,0-2.736-.717c.611-.27.06-.034-.2.054-.3.1-.6.191-.906.278-.8.229-1.6.432-2.4.63-2.22.546-4.453,1.036-6.687,1.517-5.139,1.108-10.294,2.142-15.443,3.2-2.069.427-4.14.848-6.2,1.327-2.506.582-1.446,4.44,1.063,3.857Z"/><path class="a" d="M124.132,154.022a142.386,142.386,0,0,1,17.48,2.434,5.957,5.957,0,0,1,2.379.86,5.389,5.389,0,0,1,1.5,2,23.961,23.961,0,0,1,.062,21.155.554.554,0,0,1-.937.277,66.993,66.993,0,0,1-19.888-17.267"/><path class="c" d="M124.132,156.022c3.9.305,7.782.757,11.641,1.389,1.844.3,3.69.622,5.516,1.018a2.987,2.987,0,0,1,1.878.868,8.3,8.3,0,0,1,1.042,1.965,21.778,21.778,0,0,1,1.768,9.247,19.243,19.243,0,0,1-2.3,9.205l.718-.717-.224.165,1.01-.273-.288-.01,1.009.273a48.527,48.527,0,0,1-10.671-7.463,67.847,67.847,0,0,1-9.086-9.62,2.011,2.011,0,0,0-2.829,0,2.052,2.052,0,0,0,0,2.828,67.785,67.785,0,0,0,10.534,10.842,71.67,71.67,0,0,0,6.168,4.545c1.759,1.153,4.806,3.848,6.8,1.854a9.363,9.363,0,0,0,1.574-3.217,23.419,23.419,0,0,0,1.072-3.773,26.249,26.249,0,0,0,.427-7.325,25.588,25.588,0,0,0-1.7-7.342c-.953-2.365-2.044-4.663-4.6-5.575a28.96,28.96,0,0,0-4.575-.978q-2.413-.433-4.842-.785-5-.723-10.038-1.121c-2.567-.2-2.554,3.8,0,4Z"/><path class="b" d="M116.764,26.373c-3.379-14.1-17.821-25.14-32.952-24.315-15.44-.842-30.164,10.676-33.146,25.187a40.948,40.948,0,0,0,.024,13.733l1.239,5.787a4.424,4.424,0,0,1,2.914.688c5.567-4.411,16.812-11.342,22.2-15.822-.441,2.645-2.007,7.144-.034,6.682,8.243-1.846,16.143-5.568,20.9-11.387a54.95,54.95,0,0,0,3.9,10.1c1.778,2.943,6.951,9.761,11.469,10.355a4.416,4.416,0,0,1,2.912-.6,3.461,3.461,0,0,1,.527.116c2.425-5.553,1.205-14.96.239-19.648C116.9,26.953,116.834,26.662,116.764,26.373Z"/><path class="c" d="M52.618,40.447a34.1,34.1,0,0,1-.268-11.156A25.9,25.9,0,0,1,56.01,19.11a31.811,31.811,0,0,1,17.737-13.8,38.844,38.844,0,0,1,11.691-1.3A29.476,29.476,0,0,1,96.644,6.3a31.734,31.734,0,0,1,16.372,15.412,34.454,34.454,0,0,1,2.833,11.336c.454,4.357.676,9.123-1.03,13.252a2.013,2.013,0,0,0,1.4,2.46,2.051,2.051,0,0,0,2.461-1.4c1.648-3.989,1.639-8.642,1.3-12.878a44.412,44.412,0,0,0-2.233-11.761A35.333,35.333,0,0,0,88.483.174,59.034,59.034,0,0,0,82.007.015a33.193,33.193,0,0,0-6.568.728A35.976,35.976,0,0,0,54.2,14.628a30.56,30.56,0,0,0-5.576,12.677,37.521,37.521,0,0,0,.135,14.2c.562,2.511,4.42,1.448,3.857-1.063Z"/><path class="c" d="M96.113,27.892c1.347,4.441,2.873,8.88,5.664,12.632,2.615,3.514,6.109,7.717,10.6,8.72,2.508.561,3.579-3.3,1.064-3.857-3.454-.771-6.442-4.437-8.5-7.27-2.451-3.382-3.772-7.32-4.975-11.288-.746-2.457-4.608-1.41-3.858,1.063Z"/><path class="c" d="M96.588,25.429a30.666,30.666,0,0,1-12.746,8.737q-1.935.75-3.928,1.331-1,.294-2.014.549c-.331.083-.7.134-1.016.245l-.407.093a1.386,1.386,0,0,1,1.5.747c.2-.061-.149.671.054.025a3.562,3.562,0,0,0,.035-.614c.046-.407.141-.813.224-1.213.222-1.057.489-2.1.677-3.166a2.019,2.019,0,0,0-3.343-1.946c-6.981,5.765-15,10.168-22.116,15.756a2.013,2.013,0,0,0,0,2.829,2.052,2.052,0,0,0,2.829,0c7.122-5.59,15.127-9.985,22.115-15.757L75.114,31.1c-.4,2.244-1.639,5.077-.9,7.345a2.735,2.735,0,0,0,3.323,1.8,39.684,39.684,0,0,0,5.026-1.382c6.332-2.084,12.545-5.4,16.85-10.6,1.628-1.97-1.186-4.815-2.829-2.829Z"/><path class="c" d="M114.176,49.172a2.213,2.213,0,0,1,3.13.412,4.724,4.724,0,0,1,.452,2.406,14.32,14.32,0,0,1-.2,2.954c-.64,3.51-2.413,7.725-6.315,8.424a2.018,2.018,0,0,0-1.4,2.46,2.043,2.043,0,0,0,2.46,1.4c6.055-1.085,8.944-7.915,9.4-13.4.236-2.839-.01-6.054-2.463-7.89a6.322,6.322,0,0,0-7.894.411,2.016,2.016,0,0,0,0,2.829,2.043,2.043,0,0,0,2.828,0Z"/><path class="c" d="M109.73,62.105a16.107,16.107,0,0,1-.939,4.339c-.063.191-.491,1.317-.223.709-.135.306-.276.607-.427.906a36.743,36.743,0,0,1-3.168,5.093C102.227,76.918,98.5,80.91,93.8,82.013c-2.5.588-1.444,4.446,1.064,3.857,5.674-1.331,10.074-5.968,13.412-10.487,2.881-3.9,5.258-8.321,5.459-13.278.1-2.574-3.9-2.569-4,0Z"/><path class="c" d="M56.643,46.343a6.323,6.323,0,0,0-7.893-.411c-2.455,1.829-2.7,5.056-2.464,7.89.456,5.487,3.346,12.318,9.4,13.4a2.055,2.055,0,0,0,2.46-1.4,2.017,2.017,0,0,0-1.4-2.46c-3.9-.7-5.674-4.915-6.315-8.424a14.294,14.294,0,0,1-.2-2.787,5.514,5.514,0,0,1,.386-2.458,2.2,2.2,0,0,1,3.2-.527,2.055,2.055,0,0,0,2.828,0,2.016,2.016,0,0,0,0-2.829Z"/><path class="c" d="M54.462,61.882a33.418,33.418,0,0,0,7.126,16c4.014,4.753,9.33,8.177,15.587,8.852a2.012,2.012,0,0,0,2-2,2.046,2.046,0,0,0-2-2c-5.3-.573-9.731-3.986-13.021-8-3.253-3.964-4.964-8.93-5.835-13.921a2.016,2.016,0,0,0-2.46-1.4,2.044,2.044,0,0,0-1.4,2.46Z"/><path class="f" d="M111.257,150.2c2.222,9.081,9.887,35.44,15.053,39.745a3.435,3.435,0,0,1,1.393,1.721c.156.737-.458,1.43-1.2,1.831-8.565,3.66-17.484,7.688-24.956,13.349-5.368,4.066-6.886,8-13.617,7.777-2.489-.084-8.814-1.535-11.287-1.83-9.782-1.169-29.93,14.037-35.308,14.8-4.3-14.207-9.826-41.375-11.607-51.4l-1.36-.472c-5.263-1.83-17.693-1.438-24.329-1.193a2.109,2.109,0,0,1-1.566-.891,3.364,3.364,0,0,1-.4-2.553,209.553,209.553,0,0,1,8-37.989c1.137-3.672,2.556-7.564,5.705-9.77a85.841,85.841,0,0,1,16.55-11.239c2.793,2.527,6.461,5.842,6.461,5.842a26.033,26.033,0,0,0,32.444-5.741l5.26-6.918c4.673,1.008,13.219,3.659,16.859,4.888a11,11,0,0,1,3.987,1.986,10.687,10.687,0,0,1,2.387,3.891c4.321,10.173,8.776,21.783,11.158,32.576C110.982,149.051,111.107,149.586,111.257,150.2Z"/><path class="g" d="M34.041,114.15c-.417-.434-.827-.881-1.2-1.321l1.086-1.056a7.319,7.319,0,0,0,2.025-2.418,11.125,11.125,0,0,0,.382-2.451c.55-3.981,6.4-6.482,12.179-7.506,5.649-1.606,12-1.911,14.234,1.429a11.121,11.121,0,0,0,1.415,2.038,7.319,7.319,0,0,0,2.878,1.29c2.409.8,5.048,1.529,7.778,2.265a29.982,29.982,0,0,1-2.692,4.853,26.092,26.092,0,0,1-3.551,3.325c-2.269-.68-4.592-1.292-6.732-1.79-2.056-.479-4.6-.617-10.105.637-5.493,1.278-7.715,2.511-9.356,3.84-.629.51-1.274,1.044-1.922,1.6a24.653,24.653,0,0,1-2.727-1.278S35.811,115.989,34.041,114.15Z"/><path class="c" d="M34,109.213a66.757,66.757,0,0,0-15.638,9.41c-2.38,1.819-4.987,3.7-6.756,6.139-2.141,2.95-3.132,6.649-4.156,10.095a210.1,210.1,0,0,0-5.828,25.237q-.552,3.315-1,6.645c-.265,1.963-.833,4.169-.539,6.146a4.253,4.253,0,0,0,3.955,3.64c1.325.05,2.686-.095,4.012-.131,3.607-.1,7.219-.135,10.824.017a32.44,32.44,0,0,1,8.961,1.236c2.445.822,3.494-3.04,1.063-3.857a30.181,30.181,0,0,0-7.253-1.216c-3.026-.236-6.067-.278-9.1-.258-2.7.017-5.4.192-8.1.195-.318,0-.309.048-.38-.06-.15-.229-.04-.735-.021-.988.074-1,.23-2.006.358-3q.376-2.948.851-5.881a209.411,209.411,0,0,1,5.194-23.661A56.543,56.543,0,0,1,13.729,129c1.3-2.62,3.407-4.326,5.642-6.129,4.682-3.777,10.264-7.657,15.69-9.8a2.06,2.06,0,0,0,1.4-2.46,2.014,2.014,0,0,0-2.46-1.4Z"/><path class="c" d="M37.779,119.652A28.052,28.052,0,0,0,72.647,113.6c1.714-1.913-1.106-4.751-2.828-2.829a25.107,25.107,0,0,1-14.12,8.106A24.367,24.367,0,0,1,39.8,116.2c-2.267-1.218-4.29,2.234-2.019,3.454Z"/><path class="c" d="M21.033,157.433c1.208,3.174,2.339,6.376,3.479,9.575.531,1.491,1.064,2.981,1.615,4.465a36.181,36.181,0,0,1,1.4,3.7c.753,3.04,1.128,6.229,1.732,9.3,1.886,9.611,3.927,19.2,6.206,28.722,1.2,5,2.45,10,3.937,14.92a2.062,2.062,0,0,0,2.46,1.4,19.257,19.257,0,0,0,5.6-2.316c2.627-1.372,5.192-2.86,7.779-4.3,5.467-3.051,11.178-6.408,17.344-7.808,2.618-.595,4.567-.24,7.315.276,3.456.65,7.053,1.592,10.586,1.116,3.74-.5,6.36-2.777,9.021-5.262a58.457,58.457,0,0,1,11.186-7.96,142.954,142.954,0,0,1,13.182-6.47c1.939-.851,4.508-1.45,5.509-3.5,1.055-2.164-.569-3.668-1.98-5.047-.128-.125-.248-.256-.366-.389-.047-.054-.414-.511-.264-.315s-.164-.232-.223-.318c-.166-.243-.327-.487-.483-.736a33.006,33.006,0,0,1-1.59-2.9,83.517,83.517,0,0,1-3.269-7.761c-2.235-5.982-4.146-12.088-5.9-18.226-1.564-5.474-2.72-11.051-4.288-16.52-1.392-4.856-3.047-9.635-4.839-14.356q-1.352-3.561-2.8-7.082c-.871-2.124-1.663-4.339-2.739-6.37-1.994-3.766-5.872-4.786-9.647-5.987-3.529-1.122-7.078-2.193-10.659-3.137-1.425-.376-2.857-.735-4.3-1.008-2.516-.475-3.594,3.379-1.064,3.857a97.992,97.992,0,0,1,9.593,2.5c3.088.913,6.2,1.82,9.226,2.927a6.557,6.557,0,0,1,3.981,4.091c.948,2.154,1.827,4.341,2.7,6.524,1.824,4.545,3.541,9.136,5.061,13.792,1.986,6.083,3.305,12.313,4.984,18.477,1.569,5.759,3.3,11.479,5.243,17.123,1.817,5.284,3.7,10.769,6.565,15.6a18.706,18.706,0,0,0,1.7,2.441,7.856,7.856,0,0,0,.687.738,3.25,3.25,0,0,0,.762.654l.136.134q.327.427.188-.43a3.729,3.729,0,0,1-.512.3c-4.186,2.038-8.537,3.708-12.687,5.838a81.283,81.283,0,0,0-12.069,7.425,59.6,59.6,0,0,0-4.586,3.964,15.168,15.168,0,0,1-3.7,2.8c-2.854,1.355-6.146.582-9.1.036-2.781-.513-5.717-1.372-8.566-1.155-6.066.461-11.886,3.581-17.159,6.386-4.913,2.614-9.65,5.772-14.777,7.959.363-.155-.2.077-.308.118-.19.068-.378.139-.57.2a6.445,6.445,0,0,1-.968.236l2.46,1.4c-2.77-9.174-4.86-18.564-6.892-27.924-1.739-8.01-3.421-16.045-4.828-24.121-.464-2.661-1.81-5.266-2.722-7.811-1.3-3.616-2.563-7.243-3.929-10.834a2.057,2.057,0,0,0-2.46-1.4,2.015,2.015,0,0,0-1.4,2.46Z"/><path class="a" d="M45.21,99.817c-.557-2.421-2.234-6.51-.956-9.7.732-2.571,5.292-3.768,4.5-7.312-.66-2.938-2.734-3.117-4.933-2.4-3.66,1.2-1.668,4.347-3.392,6.034a2.816,2.816,0,0,1-4.084-.485,7.185,7.185,0,0,1-1.217-4.824c.708-4.033,4.429-6.822,8.423-7.725s8.382.395,10.594,3.84,2.37,6.321,1.128,9.451c-1.848,4.659-3.952,3.852-4.577,5.614-.7,1.367.161,4.241.59,6.1"/><path class="c" d="M47.138,99.286c-.635-2.642-2.241-6.342-.89-8.791a10.442,10.442,0,0,1,2.144-2.162,7.519,7.519,0,0,0,2.233-3.24c.838-2.814-.821-6.367-3.829-6.932-2.9-.544-6.4.986-7.211,3.967a11.927,11.927,0,0,0-.264,1.714,3.446,3.446,0,0,1-.2,1.027c-.567.781-1.359-.309-1.625-.933-1.216-2.855.594-5.619,3.008-7.137a9.9,9.9,0,0,1,8.474-1.17,8.022,8.022,0,0,1,5.062,7.2,8.826,8.826,0,0,1-1.681,5.141,8.571,8.571,0,0,1-2.132,1.783c-2.83,2.19-1.605,6.094-.876,9.2.588,2.5,4.446,1.444,3.857-1.063-.319-1.357-1.045-3.141-.78-4.549.027-.141.314-.706.158-.409-.109.207.034-.033.051-.052-.33.374.237-.128.016.02a3.912,3.912,0,0,0,.335-.214c.21-.137.419-.275.622-.422a11.857,11.857,0,0,0,4.433-9.247A12.379,12.379,0,0,0,52.7,73.043a12.738,12.738,0,0,0-10.365-1.387,13.05,13.05,0,0,0-8.247,6.357c-1.534,3.146-1.418,8.049,1.781,10.226a4.889,4.889,0,0,0,5.074.3A4.821,4.821,0,0,0,43.2,84.82c.138-.991-.031-1.948.947-2.407.774-.364,1.889-.608,2.334-.014.813,1.084.167,2.047-.63,2.831a15.822,15.822,0,0,0-3.058,3.247c-2.112,3.742-.428,8.064.487,11.872.6,2.5,4.46,1.443,3.857-1.063Z"/><path class="c" d="M35.341,113.187a11.645,11.645,0,0,0,2.019-2.2,7.425,7.425,0,0,0,.89-3.254,4.458,4.458,0,0,1,2.175-3.323,17.843,17.843,0,0,1,5.42-2.357c2.064-.579,4.213-1.071,6.321-1.458,2.741-.5,7.26-1.108,9.077,1.593a8.908,8.908,0,0,0,2.213,2.657,11.252,11.252,0,0,0,3.052,1.239c2.347.748,4.707,1.432,7.083,2.078,2.488.676,3.549-3.181,1.064-3.857-1.949-.53-3.9-1.069-5.824-1.673-.857-.268-1.768-.492-2.6-.834-.862-.356-1.158-1.058-1.647-1.8-1.725-2.63-4.656-3.568-7.675-3.735-3.523-.195-6.935.744-10.339,1.492a21.951,21.951,0,0,0-9.37,4.114,8.068,8.068,0,0,0-2.645,3.829c-.263.89-.143,1.86-.41,2.737a5.121,5.121,0,0,1-1.634,1.929c-1.867,1.779.965,4.605,2.829,2.828Z"/><path class="c" d="M69.217,112.7a51.722,51.722,0,0,0-8.727-2.137,23.933,23.933,0,0,0-7.038.485,39.482,39.482,0,0,0-8.846,2.569,23.22,23.22,0,0,0-5.488,3.785c-1.97,1.662.871,4.479,2.829,2.828a16.613,16.613,0,0,1,4.678-3.159,38,38,0,0,1,7.891-2.166,19.454,19.454,0,0,1,5.869-.355c.224.028-.173-.032.177.031.19.035.378.072.567.112.656.14,1.307.307,1.958.47q2.55.639,5.067,1.394c2.472.738,3.528-3.121,1.063-3.857Z"/><path class="c" d="M94.7,135.724c1.5,7.122,2.918,14.264,4.729,21.316,1.819,7.082,3.9,14.35,7.491,20.766,1.257,2.247,4.714.232,3.454-2.019-3.485-6.227-5.43-13.307-7.182-20.181-1.768-6.932-3.159-13.948-4.635-20.945-.531-2.518-4.388-1.452-3.857,1.063Z"/><path class="a" d="M13.254,117.5c-1.971-5.235.443-12.179,4.627-16.26,2.224-2.17,10.089-4.769,14.464-1.091a13.975,13.975,0,0,1,4.65,5.7c1.017,2.376.8,6.906-3.708,8.124a4.127,4.127,0,0,1-.672,2.771,5.045,5.045,0,0,1-5.178,1.1l-1.953-.651c.665,1.456.684,3.184-.575,4.173-1.8,1.415-4.556.143-5.655-1.348,0,0-1.2-.3-1.926-.574C16,118.885,13.254,117.5,13.254,117.5Z"/><path class="c" d="M26.957,109.73a29.894,29.894,0,0,1,3.061,2.817c.229.253.447.516.663.781q.2.258-.034-.044c.063.083.125.166.186.25.094.13.187.261.276.394.03.044.338.565.187.267-.172-.341.112.27.056.277q-.054-.468-.029-.135c0,.066,0,.132,0,.2s0,.131-.009.2q-.034.333.021-.148a4.058,4.058,0,0,0-.223.8c-.12.368.211-.4.045-.107-.052.092-.1.188-.15.281-.115.224-.194.026.193-.233-.043.029-.334.389-.376.364.219-.164.268-.2.147-.116q-.08.056-.162.108a3.782,3.782,0,0,1-.458.247q.389-.158.176-.076c-.061.024-.122.046-.185.066a4.935,4.935,0,0,1-.507.139l-.13.026c-.219.037-.173.033.14-.011a2.769,2.769,0,0,0-.526.037c-.131,0-.262,0-.393,0-.067,0-.612-.065-.249-.011s-.171-.038-.234-.053c-.161-.036-.318-.082-.475-.132a2.016,2.016,0,0,0-2.46,1.4,2.044,2.044,0,0,0,1.4,2.46c2.521.8,6.036.233,7.539-2.162a5.874,5.874,0,0,0,.856-3.535,7.776,7.776,0,0,0-2.311-4.192,28.778,28.778,0,0,0-3.205-2.979,2.046,2.046,0,0,0-2.828,0,2.024,2.024,0,0,0,0,2.829Z"/><path class="c" d="M20.428,114.672c.567.446,1.133.893,1.665,1.381.264.242.52.493.76.759.078.085.33.293.347.406q-.262-.347-.07-.087c.052.072.1.145.152.219.1.148.191.3.277.456a2.853,2.853,0,0,0,.219.439c-.114-.278-.144-.346-.088-.2.021.055.041.111.06.167q.076.222.132.45c.018.075.034.151.048.227.037.214.03.151-.02-.192-.015.142.024.305.023.45,0,.074,0,.148-.008.222q-.03.323.033-.206a3.219,3.219,0,0,0-.1.42c-.071.2-.043.137.084-.177-.03.065-.063.129-.1.191s-.074.125-.115.185q.309-.384.107-.144-.077.084-.159.162-.235.2.133-.09a1.935,1.935,0,0,0-.392.236c-.191.09-.134.066.17-.07q-.1.038-.21.066c-.1.029-.223.033-.322.069q.525-.063.2-.036c-.073,0-.147.006-.221.006s-.148,0-.222-.009c-.215-.02-.148-.008.2.035-.285-.09-.588-.137-.877-.227-.331-.1.445.219-.047-.022q-.2-.1-.4-.216c-.129-.076-.25-.162-.375-.244-.291-.192.377.327-.022-.025-.105-.092-.206-.189-.3-.29s-.413-.51-.007.026a2.188,2.188,0,0,0-1.2-.919,2.047,2.047,0,0,0-1.541.2,2.022,2.022,0,0,0-.718,2.737c1.8,2.375,5.07,3.785,7.906,2.372a4.764,4.764,0,0,0,2.492-4.031,6.77,6.77,0,0,0-1.227-4.089,15.629,15.629,0,0,0-3.442-3.432,2.176,2.176,0,0,0-1.414-.586,2,2,0,0,0-1.414,3.414Z"/><path class="c" d="M15.183,116.964a12.406,12.406,0,0,1,.464-8.826,16.549,16.549,0,0,1,2.274-3.968,7.877,7.877,0,0,1,2.372-2.219,12.669,12.669,0,0,1,7.418-1.6c2.91.318,5.349,2.6,6.8,5.024,1.278,2.141,1.586,5.023-.989,6.4-2.27,1.216-.252,4.67,2.019,3.454a7.9,7.9,0,0,0,3.639-9.182A14.747,14.747,0,0,0,31.055,97.1c-3.357-1.358-7.385-.894-10.685.418a14.5,14.5,0,0,0-7.5,7.152c-2.12,4.022-3.116,8.971-1.545,13.355.862,2.405,4.728,1.368,3.857-1.064Z"/><path class="c" d="M78.64,71.388a12.089,12.089,0,0,0,5.821,1.358,9.592,9.592,0,0,0,5.984-1.812,2,2,0,0,0,0-2.829,2.062,2.062,0,0,0-2.828,0c.691-.538-.025-.012-.243.1-.17.089-.622.23.008.016-.159.054-.312.12-.472.172-.425.136-.912.149-1.322.3.211-.078.323-.039.024-.009-.13.013-.26.024-.39.032-.312.02-.626.028-.939.026q-.422,0-.841-.03c-.129-.009-.257-.019-.385-.032-.074-.007-.147-.015-.22-.024q-.235-.028.183.024c-.05.051-.552-.1-.633-.118q-.3-.067-.6-.156c-.173-.052-.341-.114-.512-.172-.449-.154.421.2.014.009q-.318-.15-.628-.313a2,2,0,0,0-2.019,3.454Z"/><path class="c" d="M83.188,58.009a25.965,25.965,0,0,1,.612,2.8l-.072-.531a1.662,1.662,0,0,1,.011.386l.071-.532a.959.959,0,0,1-.042.174l.2-.478a.674.674,0,0,1-.061.112l.313-.405a.56.56,0,0,1-.092.09l.405-.313a1.811,1.811,0,0,1-.222.118l.478-.2a1.628,1.628,0,0,1-.373.109l.531-.072a1.517,1.517,0,0,1-.35,0l.532.071c-.133-.018-.262-.05-.395-.068a1.522,1.522,0,0,0-.8-.036,1.492,1.492,0,0,0-.744.237,2,2,0,0,0-.717,2.737,1.913,1.913,0,0,0,1.195.919c.351.047.692.135,1.049.151a3.442,3.442,0,0,0,1.61-.393,2.444,2.444,0,0,0,1.32-1.6,3.772,3.772,0,0,0-.013-1.658c-.153-.9-.361-1.8-.593-2.679a2,2,0,0,0-2.46-1.4,2.022,2.022,0,0,0-1.195.92,2.1,2.1,0,0,0-.2,1.541Z"/><path class="c" d="M68.941,49.935c-.467,1.519-.163,5.011,2.713,5.308,3.8-.022,4-4.245,2.725-6.23C73.331,47.387,70.25,46.711,68.941,49.935Z"/><path class="c" d="M99.384,49.936c.467,1.518.163,5.01-2.714,5.307-3.8-.022-4-4.245-2.724-6.23C94.994,47.387,98.075,46.711,99.384,49.936Z"/></svg>