<?xml version="1.0" encoding="utf-8"?>
<!-- Uploaded to: SVG Repo, www.svgrepo.com, Generator: SVG Repo Mixer Tools -->
<svg width="800px" height="800px" viewBox="0 -17.21 370.339 370.339" xmlns="http://www.w3.org/2000/svg"><defs><style>.a{fill:#bce2ef;}.b{fill:#6dbf6b;}.c{fill:#f4b467;}.d{fill:#211715;}.e{fill:#ffffff;}.f{fill:#d3d1d0;}.g{fill:#ad7b59;}.h{fill:#f4b3b3;}</style></defs><path class="a" d="M27.347,45.822c-.221,12.627.948,87.438,1.407,94.423C34.283,136.463,93.324,93.51,99.4,88.3c0-8.459-1.485-80.052-1.537-86.293C95.924,2.539,29.688,44.166,27.347,45.822Z"/><path class="b" d="M28.64,127.049c-.19-8.406-.405-20.379-.594-32.73l6.977-3.975c1.289-1.492,3.788-1.287,5.376-.118s2.5,3.014,3.415,4.762,1.969,3.552,3.694,4.507c2.762,1.529,6.185.388,9.332.645a10.482,10.482,0,0,1,7.682,4.457l4.68,4.5c-17.769,13.035-37.167,27.087-40.222,29.177C28.889,136.89,28.77,132.806,28.64,127.049Z"/><path class="c" d="M72.129,35.336c-7.558,2.659-11.337,9.553-11.337,18.335,0,13.234,10.217,14.7,15.256,13.156,6.3-2.519,11.337-4.96,11.337-18.195C87.385,39.851,78.928,33.347,72.129,35.336Z"/><path class="d" d="M71.6,33.407a18.489,18.489,0,0,0-9.191,7A22.86,22.86,0,0,0,58.85,51.819c-.445,6.927,1.874,14.177,8.9,16.7,4.9,1.762,10.03.358,14.283-2.348C88.154,62.282,89.8,54.6,89.355,47.75,88.8,39.23,80.507,30.959,71.6,33.407c-2.479.681-1.426,4.542,1.064,3.857,5.928-1.629,11.476,3.83,12.544,9.307a20.732,20.732,0,0,1,.042,5.6,21.935,21.935,0,0,1-.881,4.7,10.47,10.47,0,0,1-3.509,5.268,19.413,19.413,0,0,1-5.416,2.775,10.265,10.265,0,0,1-4.922.219A8.805,8.805,0,0,1,65.4,62.318c-1.762-1.948-2.459-4.866-2.584-7.5-.35-7.326,2.5-14.893,9.842-17.555C75.062,36.394,74.026,32.527,71.6,33.407Z"/><path class="d" d="M36.437,91.758c1.854-1.914,4.159,1.485,4.907,2.835,1.421,2.566,2.707,5.481,5.518,6.813,2.953,1.4,6.035.642,9.152.7a8.529,8.529,0,0,1,6.781,3.5,2.056,2.056,0,0,0,2.736.718,2.016,2.016,0,0,0,.717-2.737,12.632,12.632,0,0,0-8.306-5.311,25.174,25.174,0,0,0-5.286-.013c-1.583.089-3.37.19-4.693-.85a11.71,11.71,0,0,1-2.7-3.961,15.162,15.162,0,0,0-2.852-4.139c-2.394-2.238-6.351-2.918-8.8-.384-1.792,1.851,1.034,4.683,2.828,2.829Z"/><path class="d" d="M25.347,45.822c-.2,11.795.1,23.612.251,35.406q.3,23,.774,46c.095,4.333.1,8.689.382,13.017.09,1.4,1.671,2.644,3.009,1.727,8.313-5.7,16.383-11.772,24.526-17.7q17.716-12.9,35.319-25.965c3.514-2.623,7.058-5.222,10.47-7.978a2.805,2.805,0,0,0,1.325-2.311c.02-.636-.008-1.277-.015-1.913q-.031-3.021-.084-6.043-.332-21.158-.775-42.313c-.22-11.457-.473-22.914-.644-34.371-.007-.456-.014-.912-.018-1.367A2.02,2.02,0,0,0,97.336.078a13.125,13.125,0,0,0-2.692,1.414c-1.75,1.024-3.483,2.076-5.215,3.13Q81.14,9.665,72.913,14.806q-18.632,11.58-37.18,23.3c-3.131,1.978-6.365,3.863-9.4,5.994-2.09,1.47-.093,4.94,2.019,3.454,2.5-1.761,5.172-3.323,7.758-4.959q8.223-5.2,16.47-10.37C64.869,24.513,77.159,16.811,89.531,9.245c2.133-1.3,4.268-2.607,6.419-3.88.657-.388,1.313-.777,1.98-1.148.2-.112.407-.214.6-.329.477-.275-.238.078-.136.047L95.867,2.007c.086,9.86.354,19.721.544,29.579q.418,21.729.811,43.457c.075,4.418.181,8.838.182,13.257l.586-1.414c-.425.363-.862.711-1.3,1.058q-.416.328-.833.653-.234.183-.47.364l-.31.239q-2.838,2.18-5.709,4.319-8.02,6.009-16.106,11.933-17.611,12.957-35.327,25.77c-3.384,2.446-6.745,4.936-10.19,7.3l3.009,1.727c-.235-3.639-.252-7.3-.336-10.944q-.234-10.218-.4-20.436Q29.612,85.3,29.38,61.738c-.045-5.3-.124-10.612-.033-15.916C29.39,43.247,25.39,43.247,25.347,45.822Z"/><path class="d" d="M69.449,75.985c-.07,1.222-.056,2.448-.135,3.67a2,2,0,0,0,3.414,1.414,2.2,2.2,0,0,0,.586-1.414c.079-1.222.065-2.448.135-3.67a2,2,0,0,0-3.414-1.415,2.183,2.183,0,0,0-.586,1.415Z"/><path class="d" d="M83.841,73.845c.4,1.043.888,2.052,1.322,3.08l-.2-.477c.11.261.217.524.315.79a2.231,2.231,0,0,0,.92,1.2,2.038,2.038,0,0,0,1.541.2,2.017,2.017,0,0,0,1.2-.919,1.972,1.972,0,0,0,.2-1.541c-.434-1.179-.988-2.311-1.476-3.468l.2.478c-.056-.134-.111-.268-.163-.4a2.235,2.235,0,0,0-.919-1.2,2,2,0,0,0-2.737.718,1.955,1.955,0,0,0-.2,1.541Z"/><path class="d" d="M56.17,69.757c-.908.965-1.9,1.852-2.807,2.815a2.09,2.09,0,0,0-.585,1.415,2.228,2.228,0,0,0,.585,1.414,2.019,2.019,0,0,0,1.415.586,2.047,2.047,0,0,0,1.414-.586c.91-.963,1.9-1.85,2.807-2.815a2.091,2.091,0,0,0,.586-1.415,1.511,1.511,0,0,0-.173-.77A1.492,1.492,0,0,0,59,69.757a2.016,2.016,0,0,0-1.414-.586,2.042,2.042,0,0,0-1.415.586Z"/><path class="d" d="M48.671,61.738c1.114-.435,2.249-.813,3.379-1.2a2.132,2.132,0,0,0,1.2-.92,2.038,2.038,0,0,0,.2-1.541,2,2,0,0,0-2.46-1.4c-1.13.389-2.266.767-3.379,1.2a2.238,2.238,0,0,0-1.2.919,2,2,0,0,0,.717,2.736,1.949,1.949,0,0,0,1.541.2Z"/><path class="e" d="M368.266,270.264c-7.25,7.59-15,15.63-22.45,23.33-.61.63-1.21,1.25-1.8,1.87q-1.665,1.71-3.31,3.41c-6.19,6.4-12.11,12.5-17.13,17.69-.87.89-1.71,1.77-2.52,2.61l-.12.12c-.84.87-1.64,1.7-2.42,2.51-.39.41-.78.81-1.15,1.2,0,0-.27.28-.75.79.09-.76.17-1.57.23-2.45.57-8.61-2.25-30.45-2.8-33.64-.15-.87-.31-1.71-.47-2.53a62.281,62.281,0,0,0-3.02-10.74c-.04-.09-.07-.18-.11-.27-2.62-6.97-6.27-13.06-11.21-20.43q-1.455-2.175-3.04-4.39c-9.59-13.34-22.89-27.71-38.29-38.28-4.19-2.88-9.71-6.59-16.03-10.43-15.31-9.29-35.35-19.35-52.86-20.24-.56-.03-1.13-.06-1.7-.11-1.15-.09-2.32-.2-3.52-.33-2.99-.34-6.13-.83-9.38-1.43-17.5-3.22-38.21-9.62-56.44-12.59h-.02a76.327,76.327,0,0,0-9.23-1.38,72.716,72.716,0,0,0-8.26-.23l.83-.65c6.17-4.83,12.96-10.2,19.79-15.61.8-.62,1.59-1.25,2.38-1.88,6.87-5.44,13.7-10.85,19.91-15.75.35-.28.7-.55,1.05-.83s.7-.54,1.05-.82c.69-.54,1.37-1.07,2.04-1.6q2.025-1.575,3.91-3.06.84-.645,1.65-1.29c.31-.23.62-.47.92-.71s.6-.46.89-.69c.64-.49,1.26-.97,1.86-1.43.51-.4,1.01-.78,1.5-1.16,1.35-1.03,2.59-1.98,3.73-2.83.42-.32.84-.63,1.23-.93.82-.6,1.57-1.15,2.24-1.63,1,.41,2.5,1.06,4.44,1.9,10.1,4.41,31.95,14.3,54.92,25.02l30.41,17.13,10.57,5.95c16.79,8.03,32.02,15.46,42.16,20.69.38.2.75.39,1.11.58s.69.36,1.03.54c.16.08.32.17.48.25,1.02.53,2.4,1.23,4.06,2.06.47.23.96.48,1.48.73.26.13.52.26.79.39.53.26,1.09.54,1.66.82,1.16.57,2.38,1.17,3.67,1.8.63.31,1.29.63,1.95.95.33.16.67.33,1.02.5,1.01.5,2.05,1.01,3.11,1.52.01,0,.02,0,.02.01,1.06.52,2.13,1.04,3.23,1.57.01.01.02.01.03.02q2.19,1.065,4.43,2.16c1.88.92,3.79,1.86,5.68,2.79.75.37,1.49.73,2.22,1.09.75.37,1.51.74,2.26,1.12.72.36,1.44.71,2.15,1.06.38.19.76.38,1.13.57.7.34,1.39.69,2.07,1.03,3.64,1.82,7.01,3.53,9.83,5.02.69.36,1.35.71,1.97,1.04,1.96,1.05,3.55,1.95,4.68,2.64,0,9.98.02,28.56.13,43.26.01.81.01,1.6.02,2.38,0,.36,0,.72.01,1.07.01.78.01,1.55.02,2.3,0,.33,0,.65.01.96.01.75.02,1.48.02,2.19.01.78.02,1.54.03,2.27v.04c0,.2.01.39.01.58C368.256,269.454,368.256,269.734,368.266,270.264Z"/><path class="f" d="M170.345,48.614a4.331,4.331,0,0,0-4.9,4.353c0,13.223,0,46.614,0,60.484,6.21,2.55,32,14.151,59.369,26.921l40.98,23.08c18.307,8.749,34.758,16.806,44.781,22.06,9.33,4.892,48.491,23.369,57.466,28.908,0-17.168.1-58.595.1-75.356a8.271,8.271,0,0,0-4.568-7.48C334.551,118.146,208.7,63.49,171.2,48.847A4.079,4.079,0,0,0,170.345,48.614Z"/><path class="d" d="M255.561,159.9c17.924,8.572,35.59,17.7,53.191,26.916,12.914,6.761,26.182,12.859,39.232,19.351,6.383,3.175,12.932,6.232,19.016,9.965l-.99-1.727c0,15.769.022,31.539.16,47.307q.024,2.715.056,5.428a6.429,6.429,0,0,1-.065,2.208c-.321.819-1.426,1.617-2.028,2.253q-4.818,5.082-9.67,10.132-9.881,10.3-19.825,20.538-9.351,9.653-18.685,19.322c-1.783,1.858,1.041,4.69,2.828,2.829,13.647-14.215,27.44-28.289,41.065-42.526q2.763-2.887,5.516-5.783c1.571-1.652,3.964-3.462,4.656-5.7.587-1.9.2-4.32.175-6.291q-.031-3.151-.054-6.3-.1-14.339-.115-28.676-.012-6.108-.014-12.216c0-.8.042-1.607,0-2.4a2.57,2.57,0,0,0-1.6-2.216c-.912-.542-1.84-1.058-2.771-1.568-5.839-3.192-11.815-6.139-17.778-9.092-12.036-5.962-24.259-11.591-36.168-17.8-15.878-8.286-31.787-16.519-47.879-24.384q-3.109-1.52-6.231-3.013c-2.311-1.1-4.342,2.342-2.018,3.454Z"/><path class="d" d="M102.707,165.087c18.192-14.245,36.165-28.773,54.448-42.9,3.07-2.373,6.146-4.742,9.3-7.008l-1.542.2.5.2a1.723,1.723,0,0,1,.224.094q.684.291,1.366.585,1.7.731,3.39,1.477,4.679,2.056,9.339,4.155,13.256,5.95,26.45,12.036Q215,137.993,223.8,142.1a2.057,2.057,0,0,0,2.736-.717,2.017,2.017,0,0,0-.717-2.737c-19-8.864-38.016-17.779-57.29-26.044-1.289-.553-2.88-1.615-4.231-.781-1.141.7-2.2,1.609-3.269,2.413-3,2.254-5.971,4.551-8.935,6.855-7.879,6.124-15.7,12.322-23.524,18.517q-14.331,11.346-28.692,22.654a2.01,2.01,0,0,0,0,2.828,2.049,2.049,0,0,0,2.828,0Z"/><path class="d" d="M316.132,265.828c12.093-11.073,23.846-22.515,35.8-33.734,2.563-2.4,5.13-4.8,7.741-7.155,1.918-1.726-.918-4.547-2.828-2.828-11.668,10.5-22.872,21.528-34.3,32.285q-4.6,4.328-9.242,8.6c-1.9,1.742.932,4.565,2.829,2.828Z"/><path class="d" d="M167.441,113.451q0-20,0-40,0-9.3,0-18.592c0-1.148-.221-2.495.547-3.452.888-1.109,2.065-.872,3.224-.418q2.431.953,4.853,1.926c8.709,3.49,17.372,7.093,26.026,10.716q16.6,6.95,33.143,14.027,18.406,7.856,36.776,15.8,17.958,7.76,35.886,15.589,15.378,6.717,30.725,13.506c7.232,3.2,14.462,6.415,21.654,9.709,1.992.912,3.965,1.662,5.083,3.7,1.277,2.333.776,5.541.774,8.118q-.009,9.667-.027,19.333-.037,21.411-.071,42.821,0,3.829,0,7.659c0,2.573,4,2.578,4,0q0-20.29.057-40.579.019-10.814.036-21.629.006-4.419.01-8.838c0-3.237.211-6.493-1.592-9.362-2.238-3.564-6.751-4.919-10.423-6.581s-7.355-3.308-11.039-4.949q-14.706-6.55-29.459-13-17.814-7.8-35.664-15.53-18.805-8.144-37.647-16.21Q226.736,69.7,209.118,62.277c-9.388-3.948-18.785-7.874-28.223-11.7q-2.717-1.1-5.438-2.187c-1.91-.761-4.092-1.984-6.187-1.8a6.38,6.38,0,0,0-4.805,2.9,8.429,8.429,0,0,0-1.02,4.83q0,4.17,0,8.34,0,21.425,0,42.85v7.949c0,2.574,4,2.578,4,0Z"/><path class="d" d="M144.964,170.737a65.4,65.4,0,0,1,10.26-15.076c2.724-2.95,5.533-5.829,8.48-8.557,3.432-3.179,7.173-6.676,11.891-7.662,5.248-1.1,10.353.629,14.878,3.179,5.036,2.839,10.2,5.435,15.37,8.017,2.3,1.147,4.324-2.3,2.019-3.454-4.872-2.433-9.741-4.874-14.5-7.527-5.1-2.843-10.4-5.02-16.381-4.435a18.571,18.571,0,0,0-8.082,2.629,46.736,46.736,0,0,0-5.885,4.5,134.085,134.085,0,0,0-9.905,9.713,71.126,71.126,0,0,0-11.6,16.655c-1.155,2.293,2.3,4.321,3.454,2.019Z"/><path class="d" d="M252.6,170.866c6.239,3.225,12.317,6.776,18.386,10.308,7.064,4.112,14.1,8.285,21.044,12.592a92.279,92.279,0,0,1,16.324,12.2c4.9,4.817,6.245,12.92,4.254,19.762a28.843,28.843,0,0,1-3.6,7.647c-.664,1.02-1.38,2.009-2.121,2.973.347-.451-.269.309-.366.422-.252.292-.51.579-.77.865a92.8,92.8,0,0,1-10.968,10.288,2.013,2.013,0,0,0,0,2.829,2.051,2.051,0,0,0,2.829,0,95.168,95.168,0,0,0,10.317-9.586,37.638,37.638,0,0,0,7.037-10.362c3.529-7.952,3.551-17.318-1.328-24.737-1.97-2.995-4.976-5.3-7.754-7.5a102.638,102.638,0,0,0-8.664-6.274c-6.714-4.26-13.556-8.325-20.412-12.353-7.318-4.3-14.648-8.635-22.191-12.534-2.283-1.18-4.309,2.271-2.019,3.454Z"/><path class="d" d="M179.912,66.75c7.591,3.4,15.237,6.687,22.867,10q19.932,8.664,39.874,17.3,22.9,9.932,45.8,19.878,19.907,8.654,39.789,17.362c7.581,3.329,15.211,6.583,22.7,10.126.338.16.676.322,1.01.488,2.3,1.145,4.326-2.305,2.019-3.454-6.478-3.226-13.211-6-19.832-8.911Q315,121.121,295.814,112.8q-22.849-9.939-45.711-19.846Q229.519,84.031,208.937,75.1c-8.524-3.7-17.058-7.387-25.553-11.155q-.727-.323-1.454-.648a2.061,2.061,0,0,0-2.736.718,2.015,2.015,0,0,0,.718,2.736Z"/><path class="e" d="M164.94,54.857,162.6,49.268a2.878,2.878,0,0,1-.33-1.532,3.64,3.64,0,0,1,.685-1.336c1.239-1.908,1.441-4.287,1.564-6.559a24.16,24.16,0,0,0-.238-6.251c-.787-3.784-3.436-8.177-6.88-9.932-1.6-.813-3.97-1.3-5.116.154a3.86,3.86,0,0,0-.659,3.284l-1.539-.232a4.562,4.562,0,0,0-8.4,1.313,4.2,4.2,0,0,0-3.676-.57,2.6,2.6,0,0,0-1.634,3.082,3.853,3.853,0,0,0-4.089,2.327,4.888,4.888,0,0,0,.771,4.792q.151.193.32.372c-.431,1.139-.713,1.879-.713,1.879-.889,2.334,1.923,6.36,3.111,7.778a16.137,16.137,0,0,0,5.972,4,5.71,5.71,0,0,1,2.368,1.362,9.606,9.606,0,0,1,1.637,2.364,52.2,52.2,0,0,1,3.262,8.268Z"/><path class="d" d="M151.812,25.855a6.573,6.573,0,0,0-12.058,1.79l2.938-1.2a6.03,6.03,0,0,0-6.066-.388,4.62,4.62,0,0,0-2.182,5.158l2.46-2.46a5.9,5.9,0,0,0-6.347,3.247,6.942,6.942,0,0,0,1.4,7.574c3.433,3.673,11.817,3.906,12.966-2.081l-3.343.882a5.393,5.393,0,0,0,5.181,1.091,5.254,5.254,0,0,0,3.422-3.984l-2.938,1.2a5.433,5.433,0,0,0,6.723-8.372,2.011,2.011,0,0,0-2.828,0,2.049,2.049,0,0,0,0,2.829c.979,1.238-.676,2.709-1.876,2.089a2.021,2.021,0,0,0-2.938,1.2c-.147.849-.992,1.861-1.918,1.129-1.063-.841-3.029-.753-3.342.883-.51,2.659-4.356,1.982-5.9.693a3.129,3.129,0,0,1-1.146-2.982c.17-.747.979-1.654,1.827-1.531a2.029,2.029,0,0,0,2.46-2.46c-.331-1.219,1.884-.546,2.372-.253a2.019,2.019,0,0,0,2.938-1.2,2.593,2.593,0,0,1,4.747-.835c1.365,2.175,4.828.17,3.454-2.019Z"/><path class="d" d="M130.734,39.528c-.757,2.34.4,4.9,1.591,6.882a16.32,16.32,0,0,0,5.02,5.372,22.533,22.533,0,0,0,3.868,1.98,4.692,4.692,0,0,1,2.46,2.134,36.516,36.516,0,0,1,3.411,8.462c.7,2.473,4.56,1.422,3.857-1.063a57.133,57.133,0,0,0-3.2-8.166,12.261,12.261,0,0,0-2.215-3.349,9.755,9.755,0,0,0-3.444-1.965,13.388,13.388,0,0,1-5.417-4.073c-.928-1.3-2.58-3.589-2.075-5.151.793-2.455-3.068-3.507-3.857-1.063Z"/><path class="d" d="M166.868,54.326c-.75-1.792-1.509-3.58-2.251-5.375-.4-.976-.355-.846.167-1.712a10.53,10.53,0,0,0,1.116-2.671,24.731,24.731,0,0,0,.643-5.209,25.7,25.7,0,0,0-.29-6.064c-1.035-5.467-5.956-13.056-12.386-12.369a4.765,4.765,0,0,0-4.083,3.414c-.642,2,0,4.04.857,5.861a2.018,2.018,0,0,0,2.737.718,2.046,2.046,0,0,0,.717-2.737c-.365-.778-1.152-2.733,0-3.263,1-.461,2.729.634,3.476,1.19a13.561,13.561,0,0,1,4.707,7.677,21.547,21.547,0,0,1,.24,6.055,12.841,12.841,0,0,1-.895,4.858,19.971,19.971,0,0,0-1.181,2.146,4.239,4.239,0,0,0,.228,2.955c.731,1.88,1.563,3.728,2.342,5.589a2.069,2.069,0,0,0,2.461,1.4,2.011,2.011,0,0,0,1.4-2.46Z"/><path class="e" d="M290.264,70.81c2.028-3.28,4.987-5.854,7.772-8.521,2.15-2.059,4.314-4.371,4.915-7.287a32.157,32.157,0,0,0,.149-5.591A16.063,16.063,0,0,1,314.564,34.79c2.656-.731,6.335-.324,8.468,1.417a3.165,3.165,0,0,1,1.252,3.032,4.469,4.469,0,0,1,6.1,4.579,4.131,4.131,0,0,1,3.616.565,2.559,2.559,0,0,1,.611,3.377,3.791,3.791,0,0,1,3.137,3.4,4.806,4.806,0,0,1-2.154,4.261,5.714,5.714,0,0,1-1.514.723c-.091.741-.144,1.189-.144,1.189a6.738,6.738,0,0,1-3.029,4.387,14.045,14.045,0,0,1-6.173,2.508,5.647,5.647,0,0,0-2.6.734A9.564,9.564,0,0,0,320,66.837c-1.951,2.436-7.111,9.556-8.666,12.3l-2.763,4.15Z"/><path class="d" d="M317.794,51.118a6.57,6.57,0,0,0-.926.3,7.859,7.859,0,0,0-2.488,1.457,6.449,6.449,0,0,0-.729.683,2.1,2.1,0,0,0-.586,1.414,2.032,2.032,0,0,0,.586,1.414,2,2,0,0,0,2.828,0,6.767,6.767,0,0,1,.812-.748l-.4.313a6.713,6.713,0,0,1,1.45-.848l-.477.2a6.708,6.708,0,0,1,1-.328,2,2,0,0,0,1.4-2.46,2.022,2.022,0,0,0-.92-1.2,2.138,2.138,0,0,0-1.541-.2Z"/><path class="d" d="M324.761,41.188a2.559,2.559,0,0,1,3.624,2.63,2.02,2.02,0,0,0,2.532,1.929,2.112,2.112,0,0,1,1.849.2.54.54,0,0,1,.119.8,2.012,2.012,0,0,0,1.2,2.938c2.5.409,1.833,3.412-.031,4.329-1.885.928-5.848.418-5.517-2.349A2.008,2.008,0,0,0,326,49.741c-.736.277-2.02.092-1.87-1a2.037,2.037,0,0,0-2.46-2.46,1.631,1.631,0,0,1-1.59-1.132,2.015,2.015,0,0,0-2.737-.717,2.048,2.048,0,0,0-.717,2.736,5.544,5.544,0,0,0,6.108,2.97l-2.461-2.46a5.341,5.341,0,0,0,1.64,4.977,5.2,5.2,0,0,0,5.15.941l-2.531-1.929c-.336,2.808,1.721,5.172,4.193,6.156a8.866,8.866,0,0,0,7.615-.505,6.816,6.816,0,0,0,3.375-6.417,5.774,5.774,0,0,0-4.572-5.072l1.195,2.938a4.559,4.559,0,0,0-.648-5.539,6.037,6.037,0,0,0-5.838-1.34l2.532,1.928a6.544,6.544,0,0,0-8.687-6.487,2.051,2.051,0,0,0-1.4,2.461,2.017,2.017,0,0,0,2.46,1.4Z"/><path class="d" d="M291.991,71.819c2.4-3.793,6.024-6.465,9.049-9.714a15.832,15.832,0,0,0,3.511-5.412c.841-2.375.473-4.826.549-7.282.2-6.666,6.585-14.071,13.725-12.849,1.221.209,3.935.916,3.418,2.641-.578,1.934-3.155,2.743-4.932,2.435a2.058,2.058,0,0,0-2.46,1.4,2.016,2.016,0,0,0,1.4,2.46,8.927,8.927,0,0,0,7.458-1.8,6.208,6.208,0,0,0,2.423-6.348c-1.364-4.824-8.424-5.591-12.438-4.388A18.055,18.055,0,0,0,301.17,48.35c-.268,2.636.487,5.434-.754,7.9-1.288,2.559-3.624,4.458-5.665,6.4a38.469,38.469,0,0,0-6.213,7.154c-1.382,2.181,2.078,4.19,3.453,2.018Z"/><path class="d" d="M332.009,56.805c-.476,3.016-4.034,4.676-6.7,5.291-1.729.4-3.245.44-4.724,1.54a13.6,13.6,0,0,0-2.717,2.7A106.05,106.05,0,0,0,309.6,78.124c-1.284,2.236,2.171,4.253,3.454,2.019,1.173-2.043,2.56-3.972,3.921-5.892q1.2-1.686,2.422-3.349.5-.682,1.015-1.36c.321-.427.552-.731.73-.956a5.7,5.7,0,0,1,2.761-2.211,31.058,31.058,0,0,0,4.944-1.243c3.1-1.29,6.457-3.715,7.017-7.263a2.064,2.064,0,0,0-1.4-2.461,2.015,2.015,0,0,0-2.46,1.4Z"/><path class="g" d="M263.563,64.165c-.23-5.162-1.038-10.173-3.4-14.762-3.475-6.76-7.007-10.479-12.644-13.861a45.455,45.455,0,0,0-15.268-5.613c-18.873-3.021-37.311,7.418-40.3,34.225,6.737-3.1,19.469-8.3,26.051-11.535-1.187,2.639-4.781,7.893-2.708,7.938a38.887,38.887,0,0,0,23.425-6.9c1.021-.686,3.253-.181,3.25,1.255-.008,3.679-.113,8.492.4,10.958.782,3.74,2.49,12.671,7.193,15.551l2.536,1.553a5.041,5.041,0,0,1,2.805.389,3.611,3.611,0,0,1,2.3,4.422,12.357,12.357,0,0,1-3.917,6.744,9.5,9.5,0,0,1-3.606,2.122,7.882,7.882,0,0,1-4.053.118,26.116,26.116,0,0,1-1.6,2.34,31.515,31.515,0,0,1-5.648,5.415,29.392,29.392,0,0,1-9.571,4.52,40.715,40.715,0,0,0,.385,10.824c5.767-1.844,12.041-4.3,14.612-6.383,8.357-6.686,14.957-12.425,21-18.312-.414-4.414-1.135-8.843-1.284-13.268-.187-5.847.293-11.889.027-17.74Z"/><path class="d" d="M195.188,57.289a37.144,37.144,0,0,1,8.558-16.581,29.184,29.184,0,0,1,13.589-8.15,34.708,34.708,0,0,1,16.777-.233c6.7,1.538,13.539,4.626,18.431,9.565a33.431,33.431,0,0,1,6.285,9.314,34.068,34.068,0,0,1,2.735,12.961c.123,2.563,4.124,2.578,4,0a40.772,40.772,0,0,0-2.31-12.694A38.452,38.452,0,0,0,257.3,41.218c-4.722-5.868-11.775-9.644-18.862-11.864-12.206-3.823-26.069-1.978-35.732,6.776-5.834,5.286-9.463,12.54-11.37,20.1-.63,2.5,3.226,3.562,3.857,1.064Z"/><path class="d" d="M262.806,115.934c5.185-7.416,4.563-16.338,3.56-24.889a106.668,106.668,0,0,1-.872-13.436c.04-4.482.254-8.962.065-13.444-.108-2.564-4.108-2.578-4,0,.182,4.322-.009,8.642-.06,12.964a100.343,100.343,0,0,0,.754,12.954c.954,8.142,2.073,16.719-2.9,23.832-1.479,2.114,1.988,4.116,3.454,2.019Z"/><path class="e" d="M198.379,119.516a5.356,5.356,0,0,1-.432-1.714c-.228-3.079,1.762-2.5,4.25-4.94a17.952,17.952,0,0,0,3.359-5.373c.484.281.965.532,1.44.758,5.34,2.543,14,2.982,21.823.8-.352,5.709-.294,9.328,1.39,14.758-5.21,3.7-13.91,5.525-20.679,4.329-3.457-.61-6.935-2.122-8.885-5.051A23.515,23.515,0,0,1,198.379,119.516Z"/><path class="e" d="M246.1,96.867a7.95,7.95,0,0,0,3.583-.216,9.5,9.5,0,0,0,3.606-2.122,12.357,12.357,0,0,0,3.917-6.744,3.611,3.611,0,0,0-2.3-4.422,5.057,5.057,0,0,0-2.808-.391l-2.533-1.551c-4.7-2.88-6.411-11.811-7.193-15.551-.522-2.5-.407-7.412-.4-11.106,0-1.376-1.92-2.018-2.862-1.37A38.972,38.972,0,0,1,215.3,60.557c-2.073-.045,1.521-5.3,2.708-7.938-6.457,3.171-18.831,8.236-25.66,11.358-6.22,26.083,5.492,39.909,14.652,44.27,7.716,3.675,22.371,2.955,31.392-3.723a31.515,31.515,0,0,0,5.648-5.415,25.08,25.08,0,0,0,1.617-2.38c.326-.625.837-1.569,1.2-2.422Z"/><path class="h" d="M311.6,82.9c-2.8,4.2-7.81,11.04-13.84,18.95-.11.15-.23.3-.34.45h-.01c-2.37,3.1-4.9,6.36-7.5,9.68-.08.1-.16.2-.24.31h-.01c-2.05,2.61-4.15,5.25-6.25,7.88-1.89,2.34-3.79,4.68-5.68,6.98v.01q-1.89,2.295-3.75,4.53c-.93,1.12-1.86,2.22-2.77,3.31s-1.82,2.14-2.71,3.17v.01q-.9,1.035-1.77,2.04c-2.33,2.68-4.55,5.18-6.62,7.42-2.33,2.53-3.76,5.64-4.89,9.86-.62,2.31-1.15,4.95-1.7,8.02-2.49,12.04-5.04,24.59-7.11,36.15l-4.53-1.04c-15.31-9.29-35.35-19.35-52.86-20.24-.56-.03-1.13-.06-1.7-.11-1.15-.09-2.32-.2-3.52-.33-2.99-.34-6.13-.83-9.38-1.43,1.61-7.64.88-11.93.98-19.63.06-5.72-.43-14.35.25-21.48,0-.02.01-.04.01-.06a38.324,38.324,0,0,1,.78-5.07c.04-.19.09-.39.14-.59q.15-.585.33-1.23c.01-.02.01-.05.02-.08.12-.4.24-.82.37-1.24.07-.22.14-.45.21-.67a1.543,1.543,0,0,0,.05-.17c-.62-.96-1-1.54-1-1.54v-.01c-2.03-3.11-4.28-6.99-6.67-11.4-1.44-2.66-2.92-5.52-4.44-8.53v-.01c-6.23-12.42-12.87-27.33-18.33-41.25a1.653,1.653,0,0,1-.21-.83c.06-.43.49-.71.87-.92.36-.2.71-.4,1.06-.6.73-.41,1.44-.8,2.12-1.18s1.35-.74,2-1.1c2.68-1.46,5.2-2.81,7.82-4.22,1.3-.7,2.63-1.42,4.02-2.19.21-.12.43-.24.65-.36.75-.43,1.52-.85,2.31-1.3,2.55,5.96,9.8,21.53,13.4,27.79,2.24,3.88,5.38,9.16,8.55,14.12.32.49.64.98.96,1.46v.01c.31.49.63.97.95,1.44v.01c.31.47.63.94.94,1.4.95,1.39,1.86,2.7,2.74,3.89l1.13-4.18c.01.02.02.03.02.04.04.05.07.1.11.15a31.159,31.159,0,0,0,2.01,2.65c.19.2.36.41.54.61a.927.927,0,0,0,.14.14c.22.24.45.49.68.72s.46.47.7.68c.11.12.23.23.34.33s.24.21.36.32c.47.41.94.8,1.42,1.17.26.21.52.4.78.59.22.16.43.31.65.44.23.17.47.31.7.45h.01c.03.02.05.04.08.06.2.12.38.24.58.35h.01c-.16.44-.35.91-.56,1.37a15.56,15.56,0,0,1-2.71,3.88.265.265,0,0,0-.05.06c-.02.02-.03.03-.04.03-.04.04-.07.08-.11.12-.1.1-.21.19-.31.28a.031.031,0,0,1-.02.01c-.03.02-.06.06-.1.09a.653.653,0,0,1-.16.13c-.05.04-.1.08-.16.12a1.558,1.558,0,0,1-.2.16,1.063,1.063,0,0,1-.11.09,15.741,15.741,0,0,1-1.34.85.746.746,0,0,1-.12.07c-.17.11-.34.21-.49.31-.04.03-.08.05-.12.08v.01c-.09.07-.18.14-.26.21-.04.04-.08.07-.12.11a1,1,0,0,0-.1.11,2.223,2.223,0,0,0-.19.27,1.428,1.428,0,0,0-.15.27c0,.01,0,.01-.01.02l-.06.18-.03.09a2,2,0,0,0-.05.26,1.934,1.934,0,0,0-.04.27c-.01.11-.01.23-.02.36,0,.15.01.31.02.49a4.167,4.167,0,0,0,.15.87.193.193,0,0,0,.03.1.48.48,0,0,0,.05.17,1.76,1.76,0,0,0,.1.3c0,.02.01.03.01.04a.37.37,0,0,0,.05.11.758.758,0,0,0,.06.16c.03.07.06.13.09.2s.08.16.11.23a1.093,1.093,0,0,1,.08.15c.09.17.19.34.29.5.06.11.13.21.2.32.28.42.57.83.86,1.24.06.08.12.17.18.25.15.21.3.43.44.64a8.584,8.584,0,0,0,1.25,1.5,8.839,8.839,0,0,0,.98.84,15.48,15.48,0,0,0,6.65,2.71c.35.06.7.11,1.06.16s.72.09,1.08.11c.37.04.74.06,1.11.07.62.02,1.24.03,1.87.02h.12c.06,0,.12-.01.19-.01l1.16-.06a.974.974,0,0,1,.24-.02c.04,0,.08-.01.12-.01l.31-.03a.148.148,0,0,1,.07-.01,1.942,1.942,0,0,1,.24-.02.57.57,0,0,1,.13-.01c.12-.02.25-.03.37-.05.17-.02.34-.05.51-.07l.22-.03c.1-.01.2-.03.3-.05a.761.761,0,0,0,.21-.03,2.3,2.3,0,0,0,.26-.03l.34-.06c.28-.05.55-.1.83-.16a.936.936,0,0,1,.16-.04.44.44,0,0,0,.1-.02c.13-.03.26-.05.4-.09.12-.02.24-.05.36-.08.16-.03.32-.06.47-.1.08-.03.17-.05.25-.08a1.209,1.209,0,0,0,.18-.05.737.737,0,0,0,.14-.04,1.17,1.17,0,0,0,.2-.05c.41-.11.81-.23,1.21-.36.13-.04.26-.09.4-.12.21-.08.42-.16.63-.23a.433.433,0,0,1,.05-.01c.17-.07.34-.14.51-.2a.471.471,0,0,1,.15-.06c.1-.04.2-.08.29-.12.22-.1.45-.18.66-.28.1-.05.2-.09.3-.14a.076.076,0,0,0,.05-.02c.05-.02.1-.04.14-.06a1.417,1.417,0,0,0,.18-.08c.09-.04.18-.09.26-.13.02-.01.03-.02.05-.03a2.256,2.256,0,0,0,.22-.11c.02,0,.03,0,.04-.01a.161.161,0,0,1,.07-.04c.02-.02.04-.02.07-.03l.21-.12c.18-.09.36-.19.54-.29.02-.01.03-.02.05-.03.32-.19.64-.38.94-.57q.345-.225.66-.45a15.023,15.023,0,0,0,1.81-1.5c.32-.31.62-.65.89-.97,0-.01.01-.01.01-.02.14-.17.27-.35.39-.52a7.849,7.849,0,0,0,1.27-2.78c.02-.01.03-.01.05-.02.33-.12.66-.25.97-.37s.64-.25.95-.38c.3-.11.59-.23.88-.36.02-.01.05-.02.07-.03s.04-.02.06-.02a1.009,1.009,0,0,0,.15-.07c.34-.14.66-.28.98-.43a2.749,2.749,0,0,0,.36-.15.8.8,0,0,0,.16-.08c.13-.06.26-.12.38-.17.13-.07.27-.13.41-.2.01,0,.02-.01.03-.01v-.01l.21-.09c.01-.01.02-.02.03-.02a1.417,1.417,0,0,1,.18-.08c.08-.04.15-.08.23-.12.31-.16.61-.32.9-.47l.06-.03a.01.01,0,0,0,.01-.01c.19-.11.37-.21.54-.31a.3.3,0,0,0,.08-.04l.09-.06c.36-.22.69-.43.98-.64a1.3,1.3,0,0,0,.15-.1c.02-.02.04-.03.06-.05a.176.176,0,0,0,.05-.04.209.209,0,0,0,.06-.04c.06-.04.11-.08.16-.12.55-.44,1.1-.88,1.64-1.32.09-.08.18-.15.27-.22.78-.63,1.55-1.25,2.29-1.87a2.692,2.692,0,0,0,.32-.27c.34-.27.68-.55,1.02-.83.14-.12.28-.23.42-.36q2.415-2.01,4.65-3.94c.54-.46,1.07-.93,1.6-1.39.5-.44.99-.87,1.48-1.31a.6.6,0,0,1,.08-.08c.05-.03.09-.08.14-.11q.615-.57,1.23-1.11c.41-.37.81-.74,1.21-1.11a.17.17,0,0,1,.06-.06h.01c.12-.11.24-.22.36-.34.65-.6,1.29-1.2,1.93-1.8l.64-.61c.17-.17.34-.33.51-.49.38-.37.76-.73,1.14-1.1.88-.86,1.75-1.73,2.61-2.6.75-.75,1.5-1.51,2.24-2.29h.01q1.815-1.89,3.63-3.85c.81-.88,1.63-1.78,2.45-2.7,3.14-3.51,6.35-7.26,9.8-11.44q.66-.78,1.32-1.59c1.57-1.9,3.19-3.9,4.88-5.99.33.33.67.67,1.03,1.01.28.28.57.55.86.83.23.21.46.43.7.65.63.57,1.28,1.17,1.96,1.78.21.19.42.39.64.57.53.47,1.07.95,1.62,1.45.33.29.66.59,1,.88a.121.121,0,0,1,.05.05c.71.62,1.42,1.25,2.14,1.88.4.34.79.69,1.19,1.04.32.29.64.57.96.86.13.11.26.22.39.34,1.34,1.2,2.65,2.38,3.88,3.52.6.56,1.19,1.12,1.75,1.66l.04.04C310.536,81.834,311.076,82.374,311.6,82.9Z"/><path class="d" d="M255.444,166.054a64.887,64.887,0,0,1,2.792-11.47,21.592,21.592,0,0,1,4.628-6.987c4.591-5.055,9.017-10.259,13.379-15.511q14-16.857,27.154-34.4c3.394-4.525,6.781-9.07,9.923-13.775a2.024,2.024,0,0,0-.312-2.424c-6.272-6.425-13.477-11.854-19.838-18.184a2.013,2.013,0,0,0-2.829,0c-6.8,8.415-13.694,16.775-21.161,24.612a250.582,250.582,0,0,1-22.441,20.639,39.831,39.831,0,0,1-6.872,5.02,69.418,69.418,0,0,1-9.737,3.89c-2.428.815-1.386,4.679,1.064,3.857a90.871,90.871,0,0,0,9.116-3.53,30.136,30.136,0,0,0,6.456-4.128c4.369-3.525,8.672-7.134,12.846-10.888A241.23,241.23,0,0,0,280.46,81.421c4.343-5.007,8.544-10.135,12.71-15.29h-2.829c6.361,6.331,13.566,11.759,19.838,18.185l-.313-2.424c-6.52,9.764-13.821,19.047-21.064,28.277-8.984,11.449-18.145,22.8-27.883,33.623-2.327,2.586-4.543,5.011-5.938,8.248a58.647,58.647,0,0,0-3.395,12.95,2.057,2.057,0,0,0,1.4,2.46,2.017,2.017,0,0,0,2.461-1.4Z"/><path class="d" d="M200.99,111.228c-1.136,1.138-2.7,1.691-3.809,2.829a5.344,5.344,0,0,0-1.038,5.069c.5,2.063,1.959,3.908,3.216,5.57a12.71,12.71,0,0,0,4.658,3.759c6.737,3.232,15.412,2.442,22.186-.3,3.542-1.431,6.937-3.463,9.075-6.719,1.417-2.158-2.045-4.164-3.454-2.018-2.892,4.4-9.354,6.254-14.274,6.854a24.412,24.412,0,0,1-8.967-.393,12.652,12.652,0,0,1-4.42-1.977,14.114,14.114,0,0,1-3.076-3.677,6.082,6.082,0,0,1-1.113-2.3,3.153,3.153,0,0,1-.038-.851c.035-.333-.047-.087.15-.273.182-.173.927-.571,1.312-.815a13.99,13.99,0,0,0,2.42-1.938c1.821-1.824-1.006-4.654-2.828-2.828Z"/><path class="d" d="M203.622,106.972q-.185.5-.391.992l.2-.478a17.817,17.817,0,0,1-2.118,3.929l.313-.405c-.051.065-.1.128-.157.191a2.126,2.126,0,0,0-.586,1.414,2.036,2.036,0,0,0,.586,1.414,2.012,2.012,0,0,0,1.414.586,1.981,1.981,0,0,0,1.414-.586,13.2,13.2,0,0,0,1.676-2.579,29.92,29.92,0,0,0,1.506-3.415,2,2,0,0,0-2.938-2.258,2.258,2.258,0,0,0-.92,1.195Z"/><path class="d" d="M226.741,110.378a40.009,40.009,0,0,0,1.215,12.88,2,2,0,1,0,3.857-1.064,29.509,29.509,0,0,1-1.064-5.681,47.935,47.935,0,0,1-.008-6.135,2.014,2.014,0,0,0-2-2,2.045,2.045,0,0,0-2,2Z"/><path class="d" d="M214.583,76.592c-.46.723-.9,1.462-1.294,2.224a3.792,3.792,0,0,0-.484,1.578,2.428,2.428,0,0,0,.8,1.893,3.639,3.639,0,0,0,1.43.832,6.491,6.491,0,0,0,1.023.153l-.532-.071.067.01a2.244,2.244,0,0,0,1.541-.2,2,2,0,0,0,.717-2.737,1.954,1.954,0,0,0-1.195-.919c-.281-.049-.566-.075-.85-.113l.532.072a1.662,1.662,0,0,1-.368-.1l.477.2a1.625,1.625,0,0,1-.321-.19l.405.313a1.829,1.829,0,0,1-.231-.218l.313.405a.393.393,0,0,1-.049-.084l.2.478a.6.6,0,0,1-.035-.137l.071.531a1.027,1.027,0,0,1,0-.147l-.071.531a1.4,1.4,0,0,1,.09-.3l-.2.478a12.971,12.971,0,0,1,.7-1.291q.346-.592.713-1.172a2,2,0,0,0-.717-2.736,2.013,2.013,0,0,0-1.541-.2,2.158,2.158,0,0,0-1.2.919Z"/><path class="d" d="M239.969,54.592c0,3.07-.107,6.159.136,9.223a39.811,39.811,0,0,0,1.184,6.4c1.169,4.717,2.958,10.177,7.267,12.935,2.175,1.391,4.183-2.069,2.019-3.454-3.464-2.217-4.676-7.369-5.563-11.1a31.824,31.824,0,0,1-.954-5.474c-.169-2.839-.091-5.69-.089-8.532,0-2.574-4-2.578-4,0Z"/><path class="d" d="M237.843,51.841a38.121,38.121,0,0,1-16.815,6.488,39.49,39.49,0,0,1-4.651.248c-.191,0-.925-.144-1.081-.02q1.15.145,1.281,1.057.108.566.09.176c.03,0-.1.29.075-.193.065-.18.119-.363.191-.54.756-1.88,1.948-3.585,2.8-5.429A2.018,2.018,0,0,0,217,50.892c-8.492,4.155-17.339,7.543-25.931,11.482a2.015,2.015,0,0,0-.717,2.736,2.046,2.046,0,0,0,2.736.718c8.592-3.939,17.439-7.327,25.931-11.482l-2.736-2.737c-1.066,2.312-2.681,4.461-3.393,6.925a3.181,3.181,0,0,0,.616,3.338c1.2,1.125,3.527.731,5.011.66a41.94,41.94,0,0,0,21.35-7.237c2.127-1.426.127-4.893-2.019-3.454Z"/><path class="d" d="M251.916,85.08a2.693,2.693,0,0,1,2.027.041,2.893,2.893,0,0,1,1.239.984c.222.373.012-.182.1.2a1.266,1.266,0,0,1,.053.489,5.485,5.485,0,0,1-.195,1.1c-.109.421-.246.831-.395,1.239a1.049,1.049,0,0,1-.138.322c-.111.229-.222.457-.344.681a9.531,9.531,0,0,1-1.343,1.94,12.262,12.262,0,0,1-1.722,1.605,6.594,6.594,0,0,1-2.15,1.078,5.829,5.829,0,0,1-2.409.186,2.062,2.062,0,0,0-2.46,1.4,2.015,2.015,0,0,0,1.4,2.46,10.29,10.29,0,0,0,7.731-1.73,14.623,14.623,0,0,0,4.8-5.7c1.116-2.447,1.944-5.466.163-7.807a6.861,6.861,0,0,0-7.413-2.339,2.043,2.043,0,0,0-1.4,2.46,2.02,2.02,0,0,0,2.46,1.4Z"/><path class="d" d="M239.4,106.251a27.75,27.75,0,0,0,9.181-10.934,2.056,2.056,0,0,0-.717-2.737,2.024,2.024,0,0,0-2.737.718,20.422,20.422,0,0,1-1.612,3.1c-.311.474-.643.934-.977,1.391-.2.268-.125.133.041-.039-.054.056-.1.127-.151.187-.108.134-.219.266-.331.4-.615.72-1.269,1.408-1.949,2.067q-.674.651-1.383,1.265c-.234.2-.471.4-.71.6-.149.122-.3.242-.451.362a2.563,2.563,0,0,1-.223.169,2.054,2.054,0,0,0-.717,2.737,2.02,2.02,0,0,0,2.736.717Z"/><path class="d" d="M229.561,79.025a3.966,3.966,0,0,1,.783-.2l-.532.072a4.341,4.341,0,0,1,1.15,0l-.531-.071a4.722,4.722,0,0,1,1.118.309l-.478-.2a4.556,4.556,0,0,1,.943.543l-.4-.312a4.189,4.189,0,0,1,.719.708l-.313-.405a4.119,4.119,0,0,1,.264.391,2.079,2.079,0,0,0,1.195.919,2,2,0,0,0,2.259-2.938,6.262,6.262,0,0,0-3.345-2.649,5.9,5.9,0,0,0-3.892-.023,2.156,2.156,0,0,0-1.2.919,2,2,0,0,0,.717,2.737,1.97,1.97,0,0,0,1.542.2Z"/><path class="d" d="M211.628,69.721a5.935,5.935,0,0,0-1.56-1.548,5.431,5.431,0,0,0-1.648-.737,5.492,5.492,0,0,0-1.781-.2,5.912,5.912,0,0,0-2.181.574,2.01,2.01,0,0,0-.919,1.2,2.042,2.042,0,0,0,.2,1.541,2.021,2.021,0,0,0,1.2.919l.531.072a1.991,1.991,0,0,0,1.01-.273c.035-.017.071-.034.108-.049l-.478.2a3.476,3.476,0,0,1,.856-.231l-.532.072a3.92,3.92,0,0,1,.956,0l-.532-.071a4.07,4.07,0,0,1,.987.265l-.478-.2a3.908,3.908,0,0,1,.83.476l-.405-.313a3.511,3.511,0,0,1,.592.583l-.313-.405c.036.047.072.095.106.143a2.15,2.15,0,0,0,1.195.919,2.042,2.042,0,0,0,1.541-.2,2.017,2.017,0,0,0,.919-1.195,1.973,1.973,0,0,0-.2-1.542Z"/><path class="d" d="M189.871,65.927c-2.315,11.716-1.776,24.746,5.433,34.759a29.83,29.83,0,0,0,9.018,8.4c4.467,2.616,9.759,3.448,14.878,3.351,7.055-.135,14.436-1.992,20.2-6.191a2.059,2.059,0,0,0,.718-2.736,2.017,2.017,0,0,0-2.737-.718,31.158,31.158,0,0,1-16.064,5.546c-4.716.348-9.882.017-14.136-2.239-6.9-3.656-11.542-10.78-13.447-18.457a47.675,47.675,0,0,1,0-20.656c.5-2.515-3.357-3.591-3.857-1.064Z"/><path class="d" d="M208.111,98.54a5.47,5.47,0,0,0,9.1-.3c2.118-3.517.664-6.113-.483-7.727-1.446-1.368-4.5-2.065-5.924-1.367C208.451,90.3,205.938,95.423,208.111,98.54Z"/><path class="d" d="M178.379,121.3c-3.785,6.4-4.835,14.162-5.043,21.457-.211,7.369-.027,14.8.1,22.167a58.666,58.666,0,0,1-.954,13.064c-.518,2.512,3.337,3.587,3.857,1.063,1.542-7.477,1.118-15.129,1.05-22.716-.063-7.079-.567-14.336.554-21.359a33.833,33.833,0,0,1,3.884-11.657c1.314-2.221-2.142-4.235-3.453-2.019Z"/><path class="d" d="M251.586,164.99c-2.483,12.027-4.937,24.061-7.111,36.148a2.057,2.057,0,0,0,1.4,2.461,2.018,2.018,0,0,0,2.46-1.4c2.174-12.087,4.628-24.122,7.112-36.148.518-2.513-3.336-3.587-3.858-1.064Z"/><path class="d" d="M197.027,101.972c-9.264-12.646-16.677-26.49-23.279-40.666-1.46-3.135-2.906-6.278-4.27-9.456a2.02,2.02,0,0,0-2.736-.718c-5.917,3.335-11.94,6.474-17.875,9.775-1.341.746-3.236,1.437-3.784,3-.536,1.532.507,3.215,1.068,4.622q1.888,4.738,3.874,9.435c5.044,11.961,10.451,23.792,16.481,35.291,2.589,4.936,5.285,9.834,8.322,14.511,1.4,2.152,4.861.149,3.454-2.018a205.773,205.773,0,0,1-11-19.733c-4.307-8.567-8.316-17.285-12.108-26.091q-1.62-3.762-3.178-7.55-.756-1.841-1.5-3.686-.408-1.015-.812-2.034a14.845,14.845,0,0,1-.745-1.683l-.514.882a9.186,9.186,0,0,1,2.46-1.493q1.2-.666,2.4-1.325,2.55-1.4,5.114-2.773c3.466-1.869,6.929-3.743,10.36-5.677l-2.736-.718a285.467,285.467,0,0,0,19.31,37.687c2.613,4.228,5.3,8.424,8.238,12.436a2.059,2.059,0,0,0,2.736.717,2.014,2.014,0,0,0,.718-2.736Z"/><path class="d" d="M314.11,335.309c3.5-3.707,4.421-9.054,4.736-13.965a99.144,99.144,0,0,0-.617-15.044c-.922-10.343-1.822-21.02-5.21-30.9A90.674,90.674,0,0,0,302.8,255.494,184.258,184.258,0,0,0,289.154,237.1a164.4,164.4,0,0,0-34.027-30.343c-12.963-8.717-26.543-16.786-41.143-22.458a87.029,87.029,0,0,0-21.5-5.618c-4.053-.465-8.119-.586-12.163-1.187-3.873-.576-7.72-1.318-11.55-2.133-15.575-3.314-30.879-7.837-46.55-10.714-7.832-1.438-15.874-2.572-23.857-2.226a64.571,64.571,0,0,0-22.685,5.607,178.988,178.988,0,0,0-20.992,11.29C48.87,182.8,43.1,186.374,37.5,190.185A251.707,251.707,0,0,0,8.742,213.3q-4.1,3.773-8.13,7.629c-1.867,1.78.964,4.6,2.828,2.829,9.225-8.794,18.633-17.443,28.891-25.031a317.5,317.5,0,0,1,33.5-21.289c6.877-3.86,14.03-7.346,21.689-9.35,7.424-1.943,14.98-2,22.575-1.213,15.511,1.6,30.674,5.974,45.793,9.63,7.442,1.8,14.918,3.537,22.487,4.714,7.406,1.151,14.885,1.175,22.189,2.974,14.543,3.581,28.116,10.726,40.825,18.487,12.909,7.883,25.18,16.529,35.848,27.313A163.248,163.248,0,0,1,304.368,265.8a69.9,69.9,0,0,1,7.375,20.4c.73,3.75,1.126,7.329,1.565,11.143.613,5.329,1.149,10.674,1.445,16.031.289,5.25.5,10.885-1.456,15.866a12.444,12.444,0,0,1-1.161,2.213,5.56,5.56,0,0,1-.854,1.026c-1.766,1.872,1.057,4.706,2.828,2.829Z"/></svg>