<?xml version="1.0" encoding="utf-8"?>
<!-- Uploaded to: SVG Repo, www.svgrepo.com, Generator: SVG Repo Mixer Tools -->
<svg width="800px" height="800px" viewBox="0 -4.38 372.871 372.871" xmlns="http://www.w3.org/2000/svg"><defs><style>.a{fill:#ffffff;}.b{fill:#957f6e;}.c{fill:#211715;}.d{fill:#bdbdbd;}</style></defs><path class="a" d="M332.319,182.455l-19.662-.945c-3.376-6.943-9.773-3.553-12.149,1.846-2.217,5.037-3.782,10.271-5.651,15.473-3.921,10.912-2.5,17.9-.22,28.775,1.227,5.844,1.442,10.68-1,16.106,0,0-.332,1.052-.723,2.279,7.961,2.189,19.823,5.538,26.874,7.805.2-4.418.868-9.228.867-11.669a41.175,41.175,0,0,0,14.884-7.04c5.773-4.161,9.386-10.132,13.212-15.82a23.723,23.723,0,0,0,5.279-4.567c1.006-1.093,5.316-8.669.985-7.324l-.389-2.193a20.026,20.026,0,0,0,1.83-1.3c2.154-1.778,6.241-7.226,3.035-9.527a4.806,4.806,0,0,0-4.633-.317l-.363-1.911a20.938,20.938,0,0,0,5.7-3.541c3.674-2.288,2.225-8.761-2.509-8.335-2.094.189-4.328,1.56-6.33,3.122Z"/><path class="a" d="M29.228,254.611c-.657-7.19-7.3-12.03-12.473-17.07-7.926-7.726-13.528-19.59-14.3-22.53l.677-.905c-.517-1.432-1.078-5.214-.292-6.517a4.954,4.954,0,0,1,3.019-2.529,8.815,8.815,0,0,1,4.873.612l1.146.625c-.046-.165-.084-.332-.12-.5a6.435,6.435,0,0,1,2.052-6.453c1.089-.814,4.411-1.464,6.439.387l.764.7-.037-.073c-.733-1.467-1.209-2.478-1.251-2.646-.353-1.405-.914-5.338.68-7.167,1.38-1.584,4.2-2.8,5.7-2.451a7.1,7.1,0,0,1,3.742,2.1c-3.549-8.514-7.715-18.681-8.818-22-.971-2.92-2.475-8.3.494-10.036,3.465-2.023,5.677-.348,7.611,1.57,2.684,2.66,12.689,26.637,16.365,36.1,2.97.1,5.811.818,7.555,2.873,2.843,3.352,4.149,8.16,4.82,11.549a19.574,19.574,0,0,1-.745,8.94,80.087,80.087,0,0,0-2.69,10.832c-.787,3.742-1.167,7.656-.2,11.223C52.015,242.423,29.228,254.611,29.228,254.611Z"/><path class="a" d="M224.037,179.722c-.52-.22-15.26-7.23-15.6-7.35-5.2-1.88-5-5.22-5.65-8.96a73.9,73.9,0,0,1-.986-8.027c13.662-5.558,24.7-24.013,26.613-29.193.284-.863.862-2.485,1.378-4.412.692-.122,1.082-.182,1.082-.182a13.531,13.531,0,0,0,6.3-2.838,20.412,20.412,0,0,0,5.28-6.929A32.13,32.13,0,0,0,245.725,94.8a10.716,10.716,0,0,0-1.123-4.313,7.585,7.585,0,0,0-5.452-3.625,8.03,8.03,0,0,0-6.425,1.88S237.33,44.2,177.655,44.2c-56.112,0-52.7,44.545-52.7,44.545a8.03,8.03,0,0,0-6.425-1.88,7.585,7.585,0,0,0-5.452,3.625,10.714,10.714,0,0,0-1.122,4.313,32.129,32.129,0,0,0,3.275,17.029,20.412,20.412,0,0,0,5.28,6.929,13.53,13.53,0,0,0,6.3,2.838l2.051.313a54.622,54.622,0,0,0,10.413,20.326A47.3,47.3,0,0,0,154.545,154.7a71.162,71.162,0,0,1-1.056,8.716c-.655,3.738-.45,7.079-5.646,8.955-.344.125-16.78,7.812-17.781,8.154,0,0,.687,25.515,41.044,25.515C217.328,206.039,224.037,179.722,224.037,179.722Z"/><path class="a" d="M183.761,244.819c-2.552,5.931-4.858,11.093-6.68,15.027,0,0-.148.319-.4.877a644.89,644.89,0,0,1-22.715-63.444q-.956-3.206-1.736-6.121c.182.046.29.071.29.071a95.97,95.97,0,0,0,24.158,3.406A105.161,105.161,0,0,0,204.7,190.27c-.835,2.644-1.772,5.49-2.838,8.543C196.357,214.579,189.448,231.607,183.761,244.819Z"/><path class="b" d="M134.7,164.221c7.536-1.146,13.934-4.792,16.774-9.052l.987-1.584a48.965,48.965,0,0,1-13.188-11.348,54.622,54.622,0,0,1-10.413-20.326l-2.051-.313a13.53,13.53,0,0,1-6.3-2.838,16.647,16.647,0,0,1-2.187-2.149,26.776,26.776,0,0,0-2.707,8.946,43.777,43.777,0,0,0-.3,5.964q.01.607.045,1.218c.236,4.349,1.252,8.78,1.467,13.112.218,4.72-1.01,9.367-5.513,10.9-.178.06-.214.636-.208.783a2.05,2.05,0,0,0,.361,1.009,6.974,6.974,0,0,0,2.308,2.023C118.8,163.64,126.522,165.465,134.7,164.221Z"/><path class="b" d="M241.2,53.3c-.2-1.184-.411-2.281-.612-3.267C235,22.654,207.421.917,178.5,2.506c-28.923-1.589-56.5,20.148-62.088,47.531-1.513,7.386-1.332,20.022.044,25.918L119.222,86.8a7.969,7.969,0,0,1,5.734,1.943c11.431-7.929,30.821-21.7,40.861-30.338-.826,5.125-3.76,13.842-.064,12.946,15.434-3.574,30.226-10.781,39.17-22.025,1.885,6.639,5,15.608,7.289,19.527,3.239,5.546,12.624,18.025,20.513,19.89a8.03,8.03,0,0,1,6.425-1.88,7.707,7.707,0,0,1,1,.219C244.171,77.774,242.817,62.742,241.2,53.3Z"/><path class="c" d="M118.736,75.551a49.555,49.555,0,0,1-.969-9.647,86.7,86.7,0,0,1,.422-11.775,50.282,50.282,0,0,1,6.938-19.921A61.1,61.1,0,0,1,159.121,7.371a55.018,55.018,0,0,1,10.9-2.274c3.776-.375,7.586-.268,11.373-.273a56.045,56.045,0,0,1,21.756,4.462,60.957,60.957,0,0,1,31.41,30.033A64.565,64.565,0,0,1,239.6,58.725c.919,7.419,1.426,15.283-.175,22.644a28.84,28.84,0,0,1-1.545,4.984,2.415,2.415,0,0,0,1.676,2.953,2.463,2.463,0,0,0,2.953-1.677c3.047-7.3,3-15.861,2.42-23.618-.547-7.275-1.552-14.783-3.994-21.687-5.3-14.992-16.686-27.556-30.694-34.958A63.253,63.253,0,0,0,187.149.315,111.126,111.126,0,0,0,175.237.024a59.8,59.8,0,0,0-12.04,1.32,65.982,65.982,0,0,0-39.228,25.887,58.186,58.186,0,0,0-9.653,21.14,73.589,73.589,0,0,0-.965,23.574,42.331,42.331,0,0,0,.757,4.882c.684,3.011,5.313,1.737,4.628-1.276Z"/><path class="c" d="M202.837,50.771c1.118,3.822,2.359,7.612,3.77,11.336a51,51,0,0,0,3.979,8.7,64.718,64.718,0,0,0,12.295,14.84c2.673,2.332,5.712,4.534,9.206,5.409,3,.749,4.276-3.878,1.276-4.629-5.358-1.341-9.964-6.6-13.457-10.836a50.25,50.25,0,0,1-8.321-13.852c-1.562-4.014-2.91-8.114-4.119-12.247-.865-2.959-5.5-1.7-4.629,1.276Z"/><path class="c" d="M203.381,47.434A55.5,55.5,0,0,1,184.37,62.282a80.964,80.964,0,0,1-11.7,4.692q-3.143,1-6.349,1.777c-.263.064-.541.116-.8.193-.392.116-.45-.081-.128.067-.145-.067-.325-.195.178.049a2.242,2.242,0,0,1,.595.352.613.613,0,0,1,.23.335c0-.069-.045-.458-.047-.133,0,.365-.01-.229-.01-.3-.024-3.308,1.225-6.827,1.8-10.271a2.422,2.422,0,0,0-4.011-2.335C154.044,65.354,143.1,73.039,132.273,80.7q-4.251,3.006-8.528,5.974a2.462,2.462,0,0,0-.861,3.284,2.422,2.422,0,0,0,3.284.861c11.3-7.843,22.532-15.823,33.395-24.268,2.694-2.094,5.362-4.224,7.951-6.446L163.5,57.768c-.611,3.673-1.891,7.34-1.969,11.085a4.971,4.971,0,0,0,1.576,4.229c1.752,1.337,3.98.439,5.884-.055A82.024,82.024,0,0,0,195.31,61.4a53.671,53.671,0,0,0,11.465-10.571,2.475,2.475,0,0,0,0-3.394,2.417,2.417,0,0,0-3.394,0Z"/><path class="c" d="M116.245,115.4c-3.1,6.137-3.809,13.16-3.065,19.933.4,3.622,1.151,7.222,1.261,10.872.068,2.245-.121,4.884-1.595,6.71-.774.96-1.729,1.163-2.74,1.754-1.643.961-1.66,3.249-.887,4.764,1.363,2.668,4.74,4.112,7.376,5.181a35.74,35.74,0,0,0,19.6,1.778c6.577-1.182,13.479-4.356,17.35-10.009,1.749-2.556-2.409-4.959-4.145-2.423-3.661,5.347-11.313,7.731-17.462,8.167a31.828,31.828,0,0,1-11.189-1.136,24.2,24.2,0,0,1-4.274-1.665,15.637,15.637,0,0,1-2.138-1.251c-.231-.17-.47-.492-.706-.625-.3-.17-.023-.268-.115.057l-.617,1.059.11-.128-1.059.618c7.673-2.774,7.7-11.145,6.8-17.973-1.04-7.83-2.064-15.921,1.639-23.26,1.387-2.751-2.752-5.184-4.145-2.423Z"/><path class="c" d="M234.422,90.441a5.518,5.518,0,0,1,7.923.949,9.234,9.234,0,0,1,1.067,4.754,28.767,28.767,0,0,1-.342,6.065c-1.211,7.083-4.944,15.719-12.834,17.075a2.419,2.419,0,0,0-1.677,2.952,2.456,2.456,0,0,0,2.953,1.676c8.17-1.4,13.019-9.12,15.255-16.488a33.938,33.938,0,0,0,1.408-11.951c-.257-3.959-1.454-7.683-5.105-9.744a10.537,10.537,0,0,0-12.042,1.318,2.421,2.421,0,0,0,0,3.394,2.448,2.448,0,0,0,3.394,0Z"/><path class="c" d="M228.391,115.62a26.931,26.931,0,0,1-1.276,6.8c-.255.858-.536,1.707-.821,2.555-.077.229-.151.46-.235.687-.066.179-.365.846-.056.156a53.835,53.835,0,0,1-3.583,6.565,63.959,63.959,0,0,1-14.278,16.468,27.2,27.2,0,0,1-10.587,5.358c-3.009.692-1.735,5.321,1.276,4.629,8.046-1.85,14.78-7.653,20.082-13.725a69.309,69.309,0,0,0,11.052-16.461,35.1,35.1,0,0,0,3.226-13.032c.1-3.09-4.7-3.086-4.8,0Z"/><path class="c" d="M126.653,87.047a10.5,10.5,0,0,0-10.613-1.98c-3.931,1.551-5.9,4.858-6.4,8.928a32.942,32.942,0,0,0,5.766,22.774,17.222,17.222,0,0,0,10.76,7.143,2.469,2.469,0,0,0,2.952-1.676,2.42,2.42,0,0,0-1.676-2.952c-7.89-1.355-11.624-9.993-12.835-17.075a28.694,28.694,0,0,1-.349-5.841c.059-1.651.132-3.553,1.075-4.978a5.513,5.513,0,0,1,7.922-.949,2.461,2.461,0,0,0,3.394,0,2.421,2.421,0,0,0,0-3.394Z"/><path class="c" d="M124.817,114.844c2.922,16.865,12.063,33.37,27.688,41.509a37.507,37.507,0,0,0,13.559,4.056,2.415,2.415,0,0,0,2.4-2.4,2.454,2.454,0,0,0-2.4-2.4c-16.111-1.67-28.664-16.118-33.725-30.634a71.893,71.893,0,0,1-2.894-11.407,2.419,2.419,0,0,0-2.952-1.676,2.453,2.453,0,0,0-1.676,2.952Z"/><path class="c" d="M152.117,154.727a73.654,73.654,0,0,1-.86,7.392c-.248,1.469-.389,2.979-.778,4.419a3.876,3.876,0,0,1-1.809,2.606,19.518,19.518,0,0,1-2.514,1.18c-4.109,1.867-8.19,3.8-12.29,5.685-1.082.5-2.165,1-3.251,1.485-.373.168-.748.334-1.122.5-.611.273.494-.175-.068.026a2.461,2.461,0,0,0-1.676,2.952,2.422,2.422,0,0,0,2.952,1.677c1.621-.58,3.187-1.4,4.75-2.112q3.815-1.75,7.62-3.521,2.753-1.276,5.507-2.549c.025-.011.445-.187.442-.2,0,.015-1.237.507-.149.08.315-.123.635-.258.942-.395a10.022,10.022,0,0,0,1.417-.755,8.976,8.976,0,0,0,3.505-4.277,24.2,24.2,0,0,0,1.069-5.057,92,92,0,0,0,1.113-9.138,2.4,2.4,0,1,0-4.8,0Z"/><path class="c" d="M225.254,177.462c-5.175-2.273-10.207-4.881-15.35-7.23l1.189,2.072v-.01a2.494,2.494,0,0,0-1.762-2.314c.931.384-.6-.241-.768-.315a8.145,8.145,0,0,1-.915-.494,6.227,6.227,0,0,1-1.041-.873,3.886,3.886,0,0,1-.575-1,10.625,10.625,0,0,1-.457-1.737,87.148,87.148,0,0,1-1.362-10.185,2.458,2.458,0,0,0-2.4-2.4,2.419,2.419,0,0,0-2.4,2.4c.183,2.535.495,5.059.9,7.567.25,1.546.419,3.135.8,4.656a9.4,9.4,0,0,0,2.236,4.227,13.3,13.3,0,0,0,4.708,2.784l-1.762-2.314v.01a2.359,2.359,0,0,0,1.189,2.072c5.142,2.349,10.174,4.957,15.35,7.23a2.476,2.476,0,0,0,3.283-.861,2.417,2.417,0,0,0-.861-3.283Z"/><path class="d" d="M89.579,319.372q-1.014.791-2.065,1.555c-6.21,4.515-11.675,7.13-18.771,6.373-12.244-1.308-21.988-21.088-29.009-34.019-3.621-6.669-14.163-32.34-17.278-41.166,3.188-2.438,31.448-16.433,34.914-18.127,4.119,9.718,8.023,18.546,12.886,28.142.025-.088.037-.133.037-.133.77-2.69,3.7-9.943,4.13-11.8,3.11-13.23,6.13-26.03,8.04-33.36,1.17-4.46,3.65-11.3,7.17-15.47a27.091,27.091,0,0,1,3.67-2.52l.368-.2.6-.481c2.34-1.87,5.4-3.13,8.03-4.56,11.043-6,20.945-11.222,32.4-16.394,5.015-4.824,10.629-9.121,12.586-9.346a221.057,221.057,0,0,0,6.678,29.415,644.89,644.89,0,0,0,22.715,63.444c.253-.558.4-.877.4-.877,5.88-12.7,16.806-38.191,24.779-61.033,4.95-14.181,7.128-23.9,8.983-30.144,1.2.058,3.911,1.915,7.029,4.565,15.6,6.53,27.671,12.84,41.531,20.37,2.575,1.4,5.15,2.33,7.452,4.124-2.787-2.012,2.415,1.232,3.06,1.958,3.521,4.17,6.007,11.014,7.17,15.474,1.91,7.326,4.93,20.131,8.041,33.362a54.921,54.921,0,0,0,1.954,6.269l.36.84a77.141,77.141,0,0,0,2.494-10.457c9.311,2.534,28.257,7.84,34.035,10.062-1.555,8.09-11.968,46.455-15.7,58.37-3.3,10.536-10.125,21.168-22.53,20.032-10.393-.951-20.332-6.593-25.459-15.986-3.075-5.634-8.16-14.268-9.789-20.342,0,0-.508-1.894-1.259-4.691-.879,5.7-1.743,11.392-2.571,16.991-.7,4.739,2.639,29.879,5.655,52.107l-146.758-.092c3.014-22.2,6.344-47.283,5.644-52.015-.655-4.428-1.329-8.9-2.011-13.367A75.742,75.742,0,0,1,89.579,319.372Z"/><path class="c" d="M314.729,180.3a8.917,8.917,0,0,0-5.314-4.851,7.835,7.835,0,0,0-5.975.961c-4.691,2.755-6.277,8.518-7.969,13.319-2.036,5.775-4.388,11.568-5.172,17.675-.707,5.5.052,10.985,1.111,16.393,1.238,6.316,2.871,12.514.15,18.7a2.478,2.478,0,0,0,.861,3.284,2.418,2.418,0,0,0,3.284-.861,27.115,27.115,0,0,0,1.59-16.187c-.89-5.039-2.238-9.983-2.46-15.121-.234-5.428,1.028-10.4,2.811-15.484.986-2.814,1.912-5.649,2.927-8.452a31.671,31.671,0,0,1,2.968-6.865,9.076,9.076,0,0,1,1.634-1.8,4.208,4.208,0,0,1,2.16-1,1.97,1.97,0,0,1,1.413.34,5.973,5.973,0,0,1,1.836,2.376c1.4,2.756,5.54.329,4.145-2.423Z"/><path class="c" d="M322.183,253.794c.163-3.516.636-7.007.83-10.52a2.415,2.415,0,0,0-2.4-2.4,2.454,2.454,0,0,0-2.4,2.4c-.194,3.513-.667,7-.83,10.52a2.417,2.417,0,0,0,2.4,2.4,2.451,2.451,0,0,0,2.4-2.4Z"/><path class="c" d="M308.97,244.744c8.828,1.487,17.47-1,24.967-5.695a39.158,39.158,0,0,0,9.325-7.981,103.076,103.076,0,0,0,6.7-9.315,59.581,59.581,0,0,1,7.787-9.99c2.219-2.157-1.177-5.549-3.394-3.394-5.241,5.1-8.66,11.633-13,17.439a37.588,37.588,0,0,1-17.932,13.044,27.025,27.025,0,0,1-13.172,1.263,2.471,2.471,0,0,0-2.952,1.676,2.42,2.42,0,0,0,1.676,2.953Z"/><path class="c" d="M347.076,183.851a10.066,10.066,0,0,0-3.39,4.873,5.135,5.135,0,0,0,1.386,5.075,7.471,7.471,0,0,0,5.8,1.539,17.083,17.083,0,0,0,6.282-1.787A19.113,19.113,0,0,0,359.5,192.1c.372-.264.737-.537,1.1-.815.3-.228.592-.456.886-.687.1-.077.432-.216.138-.106-.246.092.017,0,.115-.07a6.82,6.82,0,0,0,2.765-4.215c.624-3.425-1.075-7.169-4.609-8.148-2.335-.646-4.783.154-6.834,1.273a33.023,33.023,0,0,0-5.981,4.516,2.415,2.415,0,0,0,0,3.394,2.456,2.456,0,0,0,3.394,0c.635-.566,1.275-1.126,1.934-1.664.165-.135.333-.265.5-.4.211-.172-.031.023-.063.047l.257-.193c.371-.276.748-.544,1.134-.8s.764-.487,1.16-.706c.178-.1.359-.195.541-.286.155-.077.683-.3.24-.127a9.338,9.338,0,0,1,1.081-.364c.178-.047.357-.083.537-.119.428-.087-.4,0,.115,0h.428a.867.867,0,0,0,.208.014s-.538-.1-.306-.041c.126.034.256.051.382.086.061.017.121.04.182.055.313.076-.172-.051-.223-.108a3.312,3.312,0,0,0,.633.358c.325.192-.363-.357-.112-.079.091.1.2.2.294.294.345.339-.238-.4-.044-.067.06.1.132.2.192.3s.108.214.167.317c.177.308-.174-.543-.036-.073.068.233.131.463.187.7a1.058,1.058,0,0,0,.031.18s-.033-.559-.048-.336c-.01.138.021.287.022.426,0,.123-.006.244-.009.367-.013.421-.079.034.031-.152a3.912,3.912,0,0,0-.193.772c-.011.04-.068.133-.062.173,0,0,.238-.479.121-.29-.064.1-.109.222-.17.329s-.147.206-.2.315c-.093.193.167-.228.187-.234-.046.013-.129.155-.165.193-.1.109-.212.212-.321.315a1.234,1.234,0,0,0-.15.128c.012-.016.422-.266.219-.177a7.206,7.206,0,0,0-1.3,1c.324-.252-.012.007-.147.108q-.234.174-.469.344-.5.359-1.01.692a16.536,16.536,0,0,1-1.976,1.105c-.081.038-.164.073-.246.111-.256.122.16-.069.159-.066-.018.062-.44.169-.509.194q-.569.2-1.154.352c-.409.1-.823.185-1.239.258-.467.082.309-.023-.176.024-.246.024-.492.048-.74.063a8.325,8.325,0,0,1-1.128-.005,1.418,1.418,0,0,0-.258-.025c.023,0,.471.1.235.025-.167-.055-.35-.074-.519-.125-.067-.02-.136-.053-.205-.067-.267-.057.415.222.2.085-.122-.077-.262-.154-.39-.22-.3-.152.362.383.068.038a1.545,1.545,0,0,0-.119-.124c-.234-.21.168.158.168.22,0-.033-.291-.6-.087-.1.173.417.021-.031-.018-.133-.113-.3,0,.6.021.129a1.515,1.515,0,0,0,.012-.418c0,.012-.114.542-.04.331.034-.1.044-.212.072-.315s.237-.565.059-.229c-.189.357.079-.147.128-.238.087-.159.182-.314.282-.465.045-.067.092-.133.137-.2.212-.313-.022.095-.068.086a3.758,3.758,0,0,0,.412-.464c.372-.391.772-.757,1.173-1.118a2.416,2.416,0,0,0,0-3.394A2.454,2.454,0,0,0,347.076,183.851Z"/><path class="c" d="M353.41,203.109c-.649.413-1.312.806-1.992,1.167-.359.19-.722.372-1.09.543-.073.033-.695.3-.165.081q-.32.132-.643.249c-.326.117-.655.223-.99.31-.173.044-.348.075-.521.118-.563.141.533-.011-.025.008-.157,0-.312.02-.469.016-.564-.011.014.078.059.028a1.458,1.458,0,0,1-.393-.109q.549.247.22.072c-.157-.105-.145-.094.033.035l.143.1q-.253-.268.114.182a2.686,2.686,0,0,0-.219-.368c.178.074.175.522.037.053a3.123,3.123,0,0,0-.092-.409c.206.429.042.414.039.071a1.781,1.781,0,0,0,.018-.439c.122.212-.093.511.006.037a6.222,6.222,0,0,1,.16-.614c.032-.1.067-.207.1-.31.064-.179.1-.608.01-.051a3.488,3.488,0,0,1,.472-.938c.177-.316.367-.624.567-.926q.153-.23.312-.453c.068-.095.569-.735.177-.25a19.886,19.886,0,0,1,2.817-2.9c.521-.428-.394.284.2-.15.278-.2.558-.4.844-.6a18.033,18.033,0,0,1,2.189-1.255c.568-.277-.3.083.071-.028.158-.048.311-.114.469-.164.187-.059.377-.111.568-.155.122-.028.736-.086.124-.043.19-.013.378-.029.569-.026.154,0,.693.122.112-.016.186.044.367.092.551.142.253.093.241.087-.036-.016.119.061.236.129.348.2.548.295-.266-.335.04.037a2.38,2.38,0,0,0,.2.212c-.209-.032-.293-.439-.066-.026.242.439-.218-.538-.04-.073.12.312-.082.391.016-.1a2.819,2.819,0,0,0,.017.419c0,.34-.171.352.035-.059a3.45,3.45,0,0,0-.126.595c-.041.153-.088.3-.139.453s-.135.629,0,.035a4.5,4.5,0,0,1-.533,1.057c-.2.349-.415.688-.643,1.019-.1.14-.2.277-.3.416q-.237.314.069-.086c-.068.086-.137.171-.206.256a14.078,14.078,0,0,1-1.314,1.405c-.091.083-.185.162-.276.245-.462.416.286-.186-.133.11s-.858.6-1.3.892a2.4,2.4,0,1,0,2.422,4.144,16.253,16.253,0,0,0,6.861-8.293,5.865,5.865,0,0,0-.913-5.744,6.636,6.636,0,0,0-6.431-1.822A14.144,14.144,0,0,0,350,194.022a20.827,20.827,0,0,0-3.711,3.406c-2.356,2.793-4.958,7-2.9,10.665,2.638,4.689,9.23,1.205,12.438-.84a2.4,2.4,0,1,0-2.422-4.144Z"/><path class="c" d="M345.554,217.823c-.183-.028-.358-.07-.537-.114-.048-.012-.159-.077-.206-.07-.014,0,.487.2.268.1-.441-.213.281.311.037.042s.353.458.052.063c-.055-.073-.185-.357-.007.018.24.506.022.055.039.059-.022-.006-.034-.161-.046-.18-.1-.164.037.283.033.324a4.662,4.662,0,0,0,.008-.952c.069.406-.078.447-.019.205.017-.073.029-.147.046-.22.039-.175.085-.348.136-.52.046-.15.1-.3.149-.448.027-.075.061-.149.085-.224.086-.281-.218.452-.023.054a15.765,15.765,0,0,1,1.008-1.775c.161-.244.332-.48.5-.717.246-.342-.32.384-.048.064.114-.135.226-.272.343-.405a13.942,13.942,0,0,1,1.3-1.245c.188-.165-.229.171-.216.166a1.516,1.516,0,0,0,.224-.163c.115-.081.231-.159.349-.235q.428-.276.88-.51c.157-.082.318-.157.478-.234.5-.242-.324.113.079-.038.368-.138.735-.272,1.112-.387a19.785,19.785,0,0,1,2.51-.575l.311-.05c.033-.005.385-.057.109-.018-.312.045.243-.029.31-.038.317-.041.635-.078.946-.146a2.148,2.148,0,0,0,.233-.059c.3-.1-.265.047-.323.034a1.175,1.175,0,0,0,.315-.009c.11-.038-.661-.132-.34-.033a1.659,1.659,0,0,1-.754-.444c.187.193-.383-.587-.208-.266.041.075-.243-.688-.142-.292.069.271,0-.635-.049-.342a1.567,1.567,0,0,0-.006.291c.012.427.12-.55.035-.229a14.569,14.569,0,0,1-.428,1.454,3.354,3.354,0,0,0-.132.331c.083-.305.2-.453.024-.073-.117.26-.241.516-.369.77a21.668,21.668,0,0,1-1.407,2.365c-.219.323.435-.494.187-.24-.065.067-.126.141-.189.21-.314.343-.636.681-.962,1.014a27.376,27.376,0,0,1-2.14,1.989c-.077.063-.156.124-.233.188-.217.183.3-.213-.065.048-.187.132-.372.266-.563.392-.424.281-.869.5-1.313.748-.255.141.159-.08.159-.061a1.958,1.958,0,0,1-.333.124c-.218.074-.441.123-.663.184-.088.025-.334.02-.011.013.395-.009-.137.005-.212.008a5.993,5.993,0,0,1-.966-.029,2.406,2.406,0,0,0-2.4,2.4,2.471,2.471,0,0,0,2.4,2.4,9.369,9.369,0,0,0,6.483-2.153,26.981,26.981,0,0,0,4.4-4.081,15.489,15.489,0,0,0,1.888-2.935,13.836,13.836,0,0,0,1.487-3.884c.328-1.908-.2-3.88-2.244-4.529a3.459,3.459,0,0,0-1.155-.138,6.558,6.558,0,0,0-.939.124,2.128,2.128,0,0,0-.224.049c-.365.119.428-.044.142.016-1.122.236-2.273.293-3.395.56a14.349,14.349,0,0,0-8.7,5.857,12.039,12.039,0,0,0-2.279,5.828,4.744,4.744,0,0,0,3.9,5.2,2.462,2.462,0,0,0,2.952-1.676A2.427,2.427,0,0,0,345.554,217.823Z"/><path class="c" d="M17.413,219.944a5.218,5.218,0,0,1-.346,1.937,3.978,3.978,0,0,1-.277.554c-.019.031-.329.514-.2.309.08-.126-.279.154-.075.066.044-.019-.158.055-.2.07a1.5,1.5,0,0,1-.608.12,3.952,3.952,0,0,1-.856-.025c.335.056-.674-.273-.308-.1-2.19-1.018-3.689-3.139-5.263-4.889-.757-.842-1.515-1.685-2.252-2.546q-.5-.587-.986-1.189c-.176-.22.025.035.05.068-.079-.1-.158-.207-.233-.313-.116-.163-.232-.325-.338-.494-.021-.033-.249-.414-.241-.418.047-.022.21.672.054.059-.125-.49-.247-.976-.333-1.475a7.776,7.776,0,0,1-.134-1.261c-.014-.251-.022-.5-.02-.753,0-.159.008-.318.014-.477,0-.055.064-.518.013-.232-.041.235.094-.328.134-.436-.213.577.092-.055.227-.225a4.6,4.6,0,0,1,.6-.631,1.226,1.226,0,0,1,.525-.251,6.766,6.766,0,0,1,1.908.007c.021,0,.586.127.763.175.121.033.24.071.36.109.394.122-.417-.224.121.046a2.457,2.457,0,0,0,3.283-.861,2.422,2.422,0,0,0-.861-3.283,10.473,10.473,0,0,0-5.345-1.027,6.9,6.9,0,0,0-5.312,3.044c-1.8,2.435-1.416,6.138-.545,8.89a10.123,10.123,0,0,0,1.986,3.219c.9,1.122,1.862,2.193,2.822,3.262,2.222,2.476,4.514,5.591,7.864,6.546a7.026,7.026,0,0,0,6.286-1.145c1.79-1.526,2.5-4.184,2.523-6.447.024-3.089-4.776-3.092-4.8,0Z"/><path class="c" d="M.139,215.652a35.1,35.1,0,0,0,2.843,6.619A74.688,74.688,0,0,0,8.645,231.6a61.283,61.283,0,0,0,8.187,9.323c3.113,2.9,6.459,5.723,8.579,9.469,1.521,2.689,5.669.273,4.144-2.422-2.118-3.744-5.293-6.705-8.418-9.6a60.3,60.3,0,0,1-8.122-8.882,74.281,74.281,0,0,1-5.75-9.377c-.616-1.19-1.2-2.4-1.735-3.626a2.724,2.724,0,0,1-.165-.4c-.087-.224-.177-.448-.259-.674-.126-.344-.243-.689-.339-1.042-.808-2.978-5.44-1.714-4.628,1.276Z"/><path class="c" d="M21.942,198.036c-2.856-2.4-7.568-2.679-10.345.054-3.308,3.256-2.622,8.1-.94,11.955a43.613,43.613,0,0,0,3.714,6.2,54.481,54.481,0,0,0,3.887,5.557c2.653,3.138,7.658,6.356,11.7,3.726,3.087-2.009,3.774-5.739,3.272-9.144a2.415,2.415,0,0,0-2.952-1.676,2.46,2.46,0,0,0-1.676,2.952c-.147-1,.016.457.017.742,0,.259-.012.517-.032.774-.017.169-.012.156.015-.041-.027.166-.058.33-.1.494-.189.822-.651,2.09-1.884,2.048-3.534-.118-5.931-4.52-7.585-7.057-1.212-1.859-2.55-3.683-3.588-5.647a9.793,9.793,0,0,1-1.438-5.228,4.025,4.025,0,0,1,.54-1.7,2.675,2.675,0,0,1,.689-.8c-.288.208.645-.246.145-.062a3.264,3.264,0,0,1,3.164.236,2.467,2.467,0,0,0,3.395,0,2.421,2.421,0,0,0,0-3.394Z"/><path class="c" d="M36.475,195.9c-2.681-5.056-7.075-12.384-13.906-9.626-3.189,1.288-5.257,3.572-5.588,7.048a12.108,12.108,0,0,0,.8,5.934c1.408,3.159,3.09,6.222,4.753,9.251,1.035,1.885,2.093,3.762,3.252,5.574a14.17,14.17,0,0,0,3.342,3.972c3.253,2.408,7.849,2.741,10.859-.245a8.577,8.577,0,0,0,2.391-4.717,11.607,11.607,0,0,0-.795-5.6c-.983-2.911-5.621-1.662-4.628,1.276.675,2,1.424,4.276-.61,5.878-1.461,1.149-3.647.348-4.848-.827-.157-.153-.292-.328-.435-.494-.258-.3.053.069.086.113-.105-.141-.209-.282-.31-.425-.4-.566-.78-1.15-1.15-1.738-.964-1.539-1.864-3.119-2.743-4.707-1.55-2.8-3.044-5.641-4.445-8.521-.183-.376-.35-.763-.539-1.137s.04.428.091.219a3.334,3.334,0,0,0-.19-.87,12.93,12.93,0,0,1-.13-2.3,2.738,2.738,0,0,1,.819-2.189,5.58,5.58,0,0,1,2.852-1.357c-.289.036.548.067.048-.012a5.072,5.072,0,0,1,1.05.306,4.8,4.8,0,0,1,1.354.878,8.318,8.318,0,0,1,1.186,1.383c.54.748.478.589.865,1.161a45.162,45.162,0,0,1,2.421,4.189c1.447,2.731,5.592.308,4.144-2.422Z"/><path class="c" d="M32.147,189.526c-2.669-6.4-5.362-12.8-7.832-19.283a35.054,35.054,0,0,1-2.011-6.572,9.674,9.674,0,0,1-.137-1.715,4.334,4.334,0,0,1,.18-1.257c.144-.349.182-.406.788-.7a3.008,3.008,0,0,1,1.672-.35,5.494,5.494,0,0,1,2.7,1.852c.447.44-.132-.26.048.051.152.263.342.51.5.77.928,1.508,1.715,3.107,2.492,4.7,2.312,4.727,4.411,9.56,6.474,14.4,2.123,4.982,4.19,9.991,6.147,15.041a2.469,2.469,0,0,0,2.952,1.676,2.417,2.417,0,0,0,1.676-2.952c-4.013-10.361-8.268-20.717-13.158-30.7-1.838-3.751-3.864-8.109-8.254-9.387-3.555-1.035-7.935,1.044-8.779,4.768-.684,3.017.186,6.258,1.155,9.118,2.507,7.4,5.751,14.606,8.758,21.815a2.478,2.478,0,0,0,2.952,1.676,2.414,2.414,0,0,0,1.676-2.952Z"/><path class="c" d="M44.427,214.656a53.045,53.045,0,0,0-1.674-5.041,7.069,7.069,0,0,0-3.024-4.155,10.662,10.662,0,0,0-4.9-1.127c-.462-.027-1.385-.039-1.6-.071-.009,0-.784-.231-.4-.045q-.365-.215-.1-.047a1.176,1.176,0,0,1-.289-.4,3.13,3.13,0,0,1-.052-3.124c.257-.685-.072-.181.263-.44-.268.207.566-.258.49-.225a12.605,12.605,0,0,1,2.307-.648,45.812,45.812,0,0,1,8.008-1.1c2.34-.1,5.123-.066,7.056,1.35,2.007,1.47,3.19,4.587,3.939,6.948a20.022,20.022,0,0,1,1.191,7.717,25.968,25.968,0,0,1-1.4,6.029,66.841,66.841,0,0,0-2.98,15.536c-.14,3.088,4.66,3.081,4.8,0a27.4,27.4,0,0,1,.28-3c.056-.356.745-2.658.489-2.9-.081-.077-.1.528-.039.258.038-.166.059-.339.09-.506.088-.465.188-.927.291-1.388.514-2.326,1.084-4.648,1.759-6.933.249-.843.6-1.653.839-2.5a21.132,21.132,0,0,0,.687-4.955,25.812,25.812,0,0,0-1.555-9.175c-1.128-3.344-2.8-6.976-5.728-9.107-2.512-1.824-5.864-2.242-8.887-2.2a52.73,52.73,0,0,0-9.28,1.123,14.03,14.03,0,0,0-4.943,1.666,6.918,6.918,0,0,0-2.726,4.432,7.4,7.4,0,0,0,1.319,6.08,5.843,5.843,0,0,0,4.8,2.354c1.256.087,3.553-.231,4.366,1.016a12.928,12.928,0,0,1,.883,2.439,27.614,27.614,0,0,1,1.088,3.412c.691,3.009,5.32,1.736,4.628-1.276Z"/><path class="c" d="M217.235,175.548c8.377,3.513,16.6,7.379,24.69,11.508,3.868,1.974,7.707,4,11.532,6.06,1.971,1.06,3.919,2.17,5.917,3.176a35.285,35.285,0,0,1,5.932,3.249,2.48,2.48,0,0,0,3.394,0,2.416,2.416,0,0,0,0-3.394,34.254,34.254,0,0,0-6.118-3.612c-2.139-1.048-4.214-2.224-6.312-3.353-3.954-2.128-7.923-4.23-11.922-6.271q-12.695-6.478-25.837-11.991a2.413,2.413,0,0,0-2.952,1.676,2.462,2.462,0,0,0,1.676,2.952Z"/><path class="c" d="M265.033,199.24c.58.326,1.14.689,1.695,1.056.336.223.67.449,1,.683.109.077.221.153.325.236.278.221-.2-.216.078.076a20.062,20.062,0,0,1,2.939,4.595,50.74,50.74,0,0,1,3.881,10.6c2.167,8.385,4.129,16.824,6.117,25.253,1.077,4.566,1.9,9.337,3.7,13.692a2.48,2.48,0,0,0,2.952,1.677,2.417,2.417,0,0,0,1.677-2.953c-1.621-3.914-2.4-8.169-3.367-12.272q-1.764-7.488-3.557-14.97c-1.852-7.688-3.4-15.607-6.91-22.753a25.08,25.08,0,0,0-3.949-6.169,17.759,17.759,0,0,0-4.156-2.894c-2.7-1.513-5.12,2.631-2.423,4.145Z"/><path class="c" d="M248.173,297.948c1.65,5.984,4.86,11.561,7.844,16.958a63.7,63.7,0,0,0,4.41,7.413,33.309,33.309,0,0,0,6.531,6.594c8.829,6.748,22.874,10.5,32.427,3.194,7.727-5.907,10.551-15.457,13.15-24.391,2.663-9.155,5.182-18.353,7.647-27.563,2.151-8.036,4.518-16.105,6.1-24.279a2.485,2.485,0,0,0-1.677-2.953c-5.111-1.951-10.443-3.391-15.693-4.913q-9.149-2.654-18.342-5.148a2.416,2.416,0,0,0-2.953,1.676c-1.089,7.794-4.1,15.258-6.14,22.828-.8,2.986,3.825,4.26,4.629,1.276,2.039-7.57,5.05-15.034,6.14-22.827l-2.952,1.676q9.19,2.5,18.342,5.147c5.25,1.523,10.582,2.963,15.693,4.914l-1.676-2.952c-1.295,6.682-3.186,13.278-4.924,19.854q-3.582,13.554-7.4,27.043c-2.216,7.8-4,16.369-9,22.935-2.755,3.617-6.706,6.466-11.348,6.835-5.324.424-11.02-1.305-15.633-3.88a29.119,29.119,0,0,1-7.264-5.7,38.005,38.005,0,0,1-5.037-7.6c-3.083-5.56-6.544-11.237-8.246-17.41-.82-2.974-5.452-1.711-4.629,1.276Z"/><path class="c" d="M258.967,212.437c-2.557,20.1-5.88,40.1-9.024,60.117-1.789,11.385-3.567,22.771-5.265,34.169a37.513,37.513,0,0,0-.377,8.2c.243,3.81.65,7.61,1.074,11.4,1.344,12.031,3,24.028,4.624,36.024a2.415,2.415,0,0,0,2.952,1.676,2.465,2.465,0,0,0,1.677-2.952c-1.437-10.586-2.875-21.173-4.114-31.784-.479-4.106-.937-8.216-1.266-12.336a51.943,51.943,0,0,1-.215-7.153c-.056.964-.028.21.006-.007.058-.374.111-.749.167-1.124q.15-1.016.3-2.029.339-2.267.682-4.531.638-4.218,1.288-8.436,1.318-8.566,2.666-17.127c1.717-10.948,3.454-21.892,5.135-32.845,1.6-10.408,3.159-20.824,4.488-31.27a2.412,2.412,0,0,0-2.4-2.4,2.46,2.46,0,0,0-2.4,2.4Z"/><path class="c" d="M95.97,199.861c2.741-2.129,6.2-3.455,9.234-5.1q5.027-2.722,10.086-5.383c6.781-3.547,13.642-6.935,20.614-10.09a2.417,2.417,0,0,0,.861-3.283,2.457,2.457,0,0,0-3.283-.861c-7.112,3.217-14.108,6.679-21.021,10.3q-5.178,2.714-10.311,5.512c-3.25,1.763-6.639,3.23-9.574,5.51a2.412,2.412,0,0,0,0,3.394,2.462,2.462,0,0,0,3.394,0Z"/><path class="c" d="M106.621,295.9a73.132,73.132,0,0,1-22.84,24.7c-4.518,2.958-9.351,4.872-14.83,4.318a13.008,13.008,0,0,1-4.583-1.579,22.773,22.773,0,0,1-4.725-3.659c-6.979-6.824-11.559-15.946-16.131-24.449-3.409-6.339-6.3-12.881-9.1-19.512-3.375-8.006-6.745-16.052-9.643-24.244l-1.1,2.71a35.065,35.065,0,0,1,4.346-2.563c2.594-1.415,5.216-2.78,7.842-4.135q8.628-4.453,17.331-8.76c1.8-.893,3.592-1.787,5.4-2.668L55.3,235.2a420.867,420.867,0,0,0,21.478,44.083c1.527,2.684,5.676.268,4.144-2.423a420.961,420.961,0,0,1-21.477-44.083c-.532-1.253-2.244-1.369-3.284-.861-9.959,4.869-19.906,9.811-29.663,15.073a40.969,40.969,0,0,0-5.251,3.053,2.478,2.478,0,0,0-1.1,2.711c2.682,7.579,5.787,15.025,8.887,22.441,2.964,7.09,5.9,14.225,9.551,21,4.85,9.008,9.63,18.5,16.762,25.967,3.053,3.195,6.819,6.153,11.2,7.188,5.463,1.29,11.227.009,16.13-2.52a64.039,64.039,0,0,0,16-12.378,82.523,82.523,0,0,0,12.093-16.127c1.556-2.675-2.591-5.1-4.145-2.423Z"/><path class="c" d="M72.607,262.635c1-3.427,2.443-6.72,3.6-10.095.676-1.969,1.072-4.018,1.549-6.042q1.017-4.322,2.04-8.641c1.2-5.06,2.407-10.118,3.658-15.166a89.488,89.488,0,0,1,3.507-11.816,33.643,33.643,0,0,1,3.656-6.884,10.575,10.575,0,0,1,3.9-3.075c2.7-1.507.279-5.655-2.422-4.144a16.969,16.969,0,0,0-4.268,3.03,26.547,26.547,0,0,0-3.92,6.208A66.337,66.337,0,0,0,79.481,218.8c-1.214,4.8-2.37,9.622-3.518,14.441-1.331,5.583-2.39,11.306-3.991,16.817-1.114,3.836-2.871,7.465-3.993,11.3-.87,2.97,3.761,4.239,4.628,1.276Z"/><path class="c" d="M180.584,263.668c-5.476-12.131-10.123-24.656-14.551-37.2-5.138-14.556-10.15-29.3-13.582-44.36-1.123-4.931-1.993-9.9-2.85-14.881-.238-1.389-1.777-1.842-2.952-1.676-2.216.313-4.431,2.207-6.143,3.512a86.438,86.438,0,0,0-8.418,7.347,53.06,53.06,0,0,0-6.79,7.892c-.793,1.177-2.021,2.916-1.627,4.387a7.776,7.776,0,0,0,2.144,2.889c2.763,2.931,5.681,5.747,8.675,8.442l-.375-2.908c-1.23,1.78-2.342,3.091-3.759,4.9a43.063,43.063,0,0,0-3.851,5.123c-1.245,2.212.91,4.711,2.011,6.578,5.72,9.7,11.607,19.307,17.457,28.931q6.169,10.149,12.349,20.292c1.6,2.635,5.757.226,4.144-2.422q-10.4-17.08-20.772-34.177-3.939-6.51-7.844-13.04c-.789-1.325-1.577-2.651-2.347-3.987-.23-.4-.46-.795-.68-1.2-.263-.483-.225-.783-.074-.049.051.25.081,1.508-.169,1.617.07-.03.191-.319.232-.376.233-.332.463-.665.7-.992.772-1.047,1.262-1.663,2.056-2.677,1.578-2.015,3.232-3.992,4.688-6.1a2.409,2.409,0,0,0-.376-2.908c-2.511-2.26-4.939-4.622-7.309-7.03-.876-.889-1.711-1.806-2.549-2.729-.11-.121.282.519.079.084.574,1.231-.278,2.667.3,1.511a15.126,15.126,0,0,1,.914-1.554,25.706,25.706,0,0,1,2.367-3.065c1.076-1.247,2.206-2.446,3.367-3.612a86.112,86.112,0,0,1,7.433-6.675,39.631,39.631,0,0,1,3.317-2.374c.486-.305.993-.559,1.492-.838.136-.076.425-.146-.2.074a1.322,1.322,0,0,0,.342-.126,1.218,1.218,0,0,1,.483-.113l-2.952-1.676c.724,4.215,1.44,8.425,2.345,12.607,1.6,7.4,3.646,14.675,5.88,21.9q6.8,22.013,15.146,43.523c2.547,6.579,5.193,13.126,8.1,19.556a2.416,2.416,0,0,0,3.283.861,2.458,2.458,0,0,0,.861-3.284Z"/><path class="c" d="M151.881,193.543A94.83,94.83,0,0,0,178.936,197a107.958,107.958,0,0,0,25.826-4.253c2.969-.838,1.707-5.471-1.276-4.629a102.437,102.437,0,0,1-24.55,4.082,90.061,90.061,0,0,1-25.779-3.288c-2.988-.792-4.263,3.837-1.276,4.629Z"/><path class="c" d="M186.024,260.07l0,0,3.394,3.394c5.879-7.547,11.952-14.95,17.916-22.429,7.8-9.781,15.67-19.516,23.308-29.424,1.081-1.4,2.2-2.572,1.191-4.494a30.176,30.176,0,0,0-3.8-4.981c-1.39-1.667-2.811-3.306-4.229-4.948v3.394c2.788-2.492,5.69-4.854,8.464-7.362.856-.774,2.042-1.668,2.355-2.834.389-1.451-.791-3.139-1.555-4.313-3.827-5.878-9.213-11.084-14.631-15.487-2.119-1.722-4.721-4.094-7.587-4.321a2.424,2.424,0,0,0-2.315,1.762c-1.334,4.51-2.468,9.078-3.756,13.6-1.943,6.828-4.146,13.572-6.54,20.256-4.841,13.517-10.185,26.861-15.832,40.061-2.392,5.593-4.837,11.164-7.391,16.684a2.47,2.47,0,0,0,.861,3.284,2.419,2.419,0,0,0,3.283-.861c5.152-11.136,9.933-22.451,14.516-33.831,5.535-13.743,10.85-27.628,15.02-41.854,1.564-5.334,2.891-10.735,4.468-16.065l-2.314,1.762c-.842-.067-.445-.06-.191,0,.5.112.136.043.034-.011.414.216.825.422,1.224.667.471.29.929.6,1.379.924.55.392.986.726,1.259.946a88.423,88.423,0,0,1,7.21,6.526q1.767,1.778,3.436,3.649c.975,1.1,2.058,2.4,2.741,3.324a26.572,26.572,0,0,1,1.962,3.1,1.977,1.977,0,0,0,.146.307c-.381-.44.256-2.06.149-1.873-.093.162.487-.483.064-.113s-.8.783-1.212,1.159c-2.823,2.572-5.794,4.976-8.641,7.522a2.446,2.446,0,0,0,0,3.394c1.224,1.418,2.452,2.834,3.658,4.267.622.739,1.239,1.481,1.846,2.233a19.658,19.658,0,0,1,1.421,1.874,3.193,3.193,0,0,0,.358.583c-.439-.358.157-2.124.082-2.054s-.119.19-.186.269c-.305.364-.575.766-.864,1.144l-.166.215c-.245.323.4-.506.137-.177l-.324.419q-.426.549-.855,1.1-1.03,1.319-2.066,2.632-2.628,3.338-5.268,6.663-12.846,16.2-25.769,32.337c-2.128,2.662-4.292,5.3-6.386,7.987a2.479,2.479,0,0,0,0,3.394,2.418,2.418,0,0,0,3.394,0l0,0a2.473,2.473,0,0,0,0-3.394,2.418,2.418,0,0,0-3.394,0Z"/><path class="c" d="M176.44,266.091a36.438,36.438,0,0,1,2.186,5.771,14.55,14.55,0,0,1,.561,4.014,45.384,45.384,0,0,1-.146,4.766c-.327,3.944-.76,7.88-1.178,11.814q-2.29,21.591-4.967,43.142c-1.038,8.395-2.115,16.787-3.3,25.163a2.48,2.48,0,0,0,1.676,2.952,2.416,2.416,0,0,0,2.952-1.676c2.224-15.665,4.127-31.376,5.943-47.093,1.3-11.226,2.64-22.461,3.628-33.72a50.5,50.5,0,0,0,.2-5.087c-.061-4.456-1.572-8.461-3.408-12.469a2.419,2.419,0,0,0-3.283-.861,2.456,2.456,0,0,0-.861,3.284Z"/><path class="c" d="M174.289,282.825A7.168,7.168,0,0,0,169.4,275.8c-3.245-1.053-7.191.08-8.913,3.131a8.3,8.3,0,0,0-.009,8.117,7.765,7.765,0,0,0,8.743,3.191c3.276-.957,5.042-4.147,5.064-7.417a2.4,2.4,0,0,0-4.8,0c0,.184-.007.368-.023.552-.008.095-.027.193-.03.288.026-.779.073-.466.025-.246-.044.2-.083.4-.139.6-.073.257-.447.973-.042.215-.1.188-.184.383-.294.567-.056.092-.117.18-.176.271-.233.363.405-.461.111-.143-.125.135-.246.271-.382.395-.189.17-.4.185.136-.093-.135.07-.257.174-.39.249-.1.058-.223.1-.32.162.516-.333.349-.14.108-.063s-.533.1-.783.182c.583-.194.311-.041.056-.029-.157.007-.315.009-.473,0s-.314-.018-.472-.025c-.266-.029-.2-.018.193.031-.095-.015-.189-.033-.282-.052a7.22,7.22,0,0,1-.779-.224c-.455-.149.516.272.109.041-.071-.04-.145-.074-.216-.114-.1-.059-.2-.121-.3-.188-.214-.144-.282-.351.116.1-.169-.191-.377-.357-.551-.548-.292-.32.345.5.113.144-.058-.089-.119-.176-.173-.267-.108-.18-.191-.369-.287-.554.393.758.071.15,0-.091-.062-.218-.082-.447-.143-.663.217.776.045.371.034.089a6.468,6.468,0,0,1,.013-.682c.007-.123.031-.249.033-.372-.012.715-.054.369-.013.152a6.168,6.168,0,0,1,.21-.815c.037-.112.087-.221.123-.333-.214.676-.143.334-.047.149.107-.205.256-.388.363-.591-.285.542-.252.313-.086.127.078-.086.159-.17.243-.249.057-.054.117-.1.175-.156.29-.268-.529.353-.006.024.1-.065.211-.126.319-.183.256-.132.412-.047-.111.034.256-.039.518-.175.775-.231l.139-.028c.256-.044.188-.038-.206.018a2.659,2.659,0,0,0,.459-.039c.163-.007.325-.007.489,0,.106,0,.212.011.318.02.268.028.206.017-.184-.032a8.483,8.483,0,0,0,.952.229c.269.091.35.275-.094-.051a3.179,3.179,0,0,0,.329.169c.1.059.2.127.3.19.344.211-.48-.425-.033-.018.083.076.163.156.24.238.407.439-.242-.385-.026-.056.141.217.267.433.386.662.2.388-.209-.586-.071-.17.046.139.095.275.135.417.072.259.137,1.12.083.224.016.257.043.51.045.768a2.4,2.4,0,0,0,4.8,0Z"/><path class="c" d="M105.806,364.059H252.169c3.089,0,3.094-4.8,0-4.8H105.806c-3.088,0-3.093,4.8,0,4.8Z"/><path class="c" d="M107.869,362.263c1.431-10.545,2.866-21.091,4.12-31.658.5-4.2.974-8.405,1.335-12.62a52.971,52.971,0,0,0,.343-7.657c-.131-2.149-.592-4.307-.911-6.435q-.627-4.177-1.266-8.355-1.294-8.472-2.621-16.94c-1.692-10.835-3.406-21.666-5.072-32.5-1.582-10.293-3.145-20.592-4.474-30.921a2.479,2.479,0,0,0-2.4-2.4,2.413,2.413,0,0,0-2.4,2.4c2.556,19.86,5.793,39.632,8.891,59.413,1.74,11.114,3.471,22.23,5.128,33.357.115.768.231,1.536.342,2.305-.056-.389-.048-.526-.029-.106.02.454.039.9.038,1.358,0,1.278-.078,2.557-.164,3.832-.251,3.717-.647,7.426-1.062,11.128-1.291,11.531-2.866,23.03-4.426,34.527a2.485,2.485,0,0,0,1.676,2.953,2.417,2.417,0,0,0,2.952-1.677Z"/><path class="a" d="M300.771,221.692c.457-20.7,1.146-58.123,1.61-79.087a6.672,6.672,0,0,1,6.839-6.527c11.848.291,27.863.688,38.076.94a6.68,6.68,0,0,1,6.515,6.83c-.534,23.707-1.295,57.694-1.8,78.895a6.675,6.675,0,0,1-6.816,6.518c-10.621-.221-27.282-.527-37.887-.746A6.675,6.675,0,0,1,300.771,221.692Z"/><path class="c" d="M303.171,221.692q.565-25.606,1.035-51.213.245-12.344.5-24.685c.034-1.561-.205-3.417.466-4.863a4.3,4.3,0,0,1,3.529-2.444,66.074,66.074,0,0,1,6.672.143l7.407.183,14.849.367,6.5.16c1.659.041,3.618-.224,5.108.632a4.347,4.347,0,0,1,2.166,3.876c0,2.165-.1,4.335-.146,6.5l-.312,13.857q-.631,27.993-1.28,55.986c-.04,1.715.18,3.612-.956,5.041a4.645,4.645,0,0,1-4,1.619c-4.392-.075-8.784-.176-13.175-.261l-14.554-.282-6.5-.128c-1.714-.035-3.757.254-5.273-.693a4.343,4.343,0,0,1-2.042-3.795c-.01-3.089-4.81-3.094-4.8,0a9.219,9.219,0,0,0,8.939,9.223c4.674.21,9.371.188,14.049.278q7.658.148,15.315.3,3.442.067,6.886.137c2.332.047,4.571-.045,6.6-1.352a9.159,9.159,0,0,0,4-5.553,33.435,33.435,0,0,0,.36-6.517q.162-6.893.32-13.785.356-15.493.705-30.988c.222-9.85.695-19.731.666-29.584a9.225,9.225,0,0,0-8.915-9.23c-4.682-.23-9.388-.232-14.075-.348l-15.821-.39-7.255-.179a9.922,9.922,0,0,0-6.67,1.916,9.013,9.013,0,0,0-3.4,5.986,55.428,55.428,0,0,0-.2,5.867q-.137,6.4-.265,12.795-.564,27.923-1.118,55.846-.06,2.79-.121,5.581C298.3,224.782,303.1,224.781,303.171,221.692Z"/><path class="c" d="M329.006,151.694c-.385-.008-.77-.016-1.155-.022a2.437,2.437,0,0,0-2.4,2.4l-.2,10.309a2.437,2.437,0,0,0,2.4,2.4l1.155.022a2.437,2.437,0,0,0,2.4-2.4q.1-5.154.2-10.309a2.4,2.4,0,0,0-4.8,0q-.1,5.154-.2,10.309l2.4-2.4-1.155-.022,2.4,2.4.2-10.309-2.4,2.4c.385.006.77.014,1.155.022a2.4,2.4,0,1,0,0-4.8Z"/><path class="c" d="M320.943,151.54c-.384-.008-.769-.016-1.154-.022a2.435,2.435,0,0,0-2.4,2.4l-.2,10.309a2.436,2.436,0,0,0,2.4,2.4l1.154.022a2.436,2.436,0,0,0,2.4-2.4q.1-5.155.2-10.309a2.4,2.4,0,0,0-4.8,0q-.1,5.154-.2,10.309l2.4-2.4-1.154-.022,2.4,2.4.2-10.309-2.4,2.4c.385.006.77.014,1.154.022a2.4,2.4,0,1,0,0-4.8Z"/><path class="c" d="M333.593,154.227l-.2,10.309a2.4,2.4,0,0,0,4.8,0l.2-10.309a2.4,2.4,0,1,0-4.8,0Z"/><path class="c" d="M340.8,154.365l-.2,10.309a2.4,2.4,0,1,0,4.8,0l.2-10.309a2.4,2.4,0,1,0-4.8,0Z"/><path class="c" d="M310.63,153.788l-.2,10.31a2.4,2.4,0,1,0,4.8,0l.2-10.31a2.4,2.4,0,0,0-4.8,0Z"/><path class="c" d="M321.417,175.644l-7.537-.144a2.436,2.436,0,0,0-2.4,2.4l-.144,7.537a2.436,2.436,0,0,0,2.4,2.4l7.537.144a2.436,2.436,0,0,0,2.4-2.4l.144-7.537a2.4,2.4,0,0,0-4.8,0l-.144,7.537,2.4-2.4-7.537-.144,2.4,2.4.144-7.537-2.4,2.4,7.537.144a2.4,2.4,0,1,0,0-4.8Z"/><path class="c" d="M325.052,177.9c-.05,2.652-.063,5.3-.113,7.957a2.423,2.423,0,0,0,2.4,2.4,2.448,2.448,0,0,0,2.4-2.4c.05-2.652.063-5.305.113-7.957a2.4,2.4,0,1,0-4.8,0Z"/><path class="c" d="M321.459,188.963c-2.7-.051-5.395-.089-8.092-.14a2.4,2.4,0,0,0,0,4.8c2.7.051,5.395.089,8.092.14a2.4,2.4,0,0,0,0-4.8Z"/><path class="c" d="M332.222,202.605l-3.644-.07a2.4,2.4,0,0,0-2.4,2.4,2.426,2.426,0,0,0,.7,1.7,2.53,2.53,0,0,0,1.7.7l3.644.07a2.462,2.462,0,0,0,1.7-.7,2.4,2.4,0,0,0,0-3.394,2.526,2.526,0,0,0-1.7-.7Z"/><path class="c" d="M341,194.965c3.089,0,3.094-4.8,0-4.8s-3.093,4.8,0,4.8Z"/><path class="c" d="M328.355,194.261c1.862.039,3.722.166,5.583.207l-2.4-2.4-.124,6.526a2.429,2.429,0,0,0,2.4,2.4c2.363-.016,4.726-.008,7.089.036l-2.4-2.4-.125,6.538a2.4,2.4,0,1,0,4.8,0l.125-6.538a2.436,2.436,0,0,0-2.4-2.4c-2.363-.044-4.726-.052-7.089-.036l2.4,2.4.124-6.526a2.437,2.437,0,0,0-2.4-2.4c-1.861-.041-3.721-.168-5.583-.207a2.4,2.4,0,0,0,0,4.8Z"/><path class="c" d="M341.572,176l-7.825-.149a2.436,2.436,0,0,0-2.4,2.4l-.15,7.825a2.437,2.437,0,0,0,2.4,2.4l7.825.149a2.436,2.436,0,0,0,2.4-2.4l.15-7.825a2.4,2.4,0,1,0-4.8,0l-.15,7.825,2.4-2.4-7.825-.149,2.4,2.4.15-7.825-2.4,2.4,7.825.149a2.4,2.4,0,0,0,0-4.8Z"/><path class="c" d="M321.045,194.856l-7.532-.144a2.436,2.436,0,0,0-2.4,2.4l-.144,7.532a2.435,2.435,0,0,0,2.4,2.4l7.532.144a2.436,2.436,0,0,0,2.4-2.4l.144-7.532a2.4,2.4,0,1,0-4.8,0l-.144,7.532,2.4-2.4-7.532-.144,2.4,2.4.144-7.532-2.4,2.4,7.532.144a2.4,2.4,0,0,0,0-4.8Z"/><path class="c" d="M327.392,200.653c3.089,0,3.094-4.8,0-4.8s-3.093,4.8,0,4.8Z"/><path class="c" d="M359.948,128.343c.578-.875,1.053-1.83,1.553-2.75.522-.963,1.077-1.924,1.523-2.925a2.609,2.609,0,0,0,.242-1.85,2.4,2.4,0,0,0-2.952-1.676,2.33,2.33,0,0,0-1.434,1.1c-.447,1-1,1.963-1.524,2.925-.5.92-.975,1.876-1.552,2.75a2.4,2.4,0,1,0,4.144,2.423Z"/><path class="c" d="M364.943,136.546c1.024-.224,2.032-.576,3.031-.886,1.047-.325,2.115-.626,3.134-1.031a2.627,2.627,0,0,0,1.434-1.1,2.456,2.456,0,0,0,.242-1.85,2.429,2.429,0,0,0-1.1-1.434,2.33,2.33,0,0,0-1.85-.242c-1.018.405-2.086.707-3.133,1.031-1,.31-2.007.662-3.031.886a2.418,2.418,0,0,0-1.676,2.952,2.456,2.456,0,0,0,2.952,1.677Z"/><path class="c" d="M169.489,131.845a21.228,21.228,0,0,0,10.223,2.361c3.638-.024,7.341-.728,10.258-3a2.413,2.413,0,0,0,0-3.394,2.462,2.462,0,0,0-3.394,0c.71-.553.095-.085-.087.031-.208.134-.423.257-.642.372-.151.079-.9.393-.305.165-.294.112-.585.226-.885.322a15.228,15.228,0,0,1-5.278.705,15.863,15.863,0,0,1-5.037-.678c-.324-.1-.64-.213-.959-.323-.1-.035-.2-.089-.31-.12.591.173.17.076.014,0-.4-.186-.788-.382-1.176-.586a2.452,2.452,0,0,0-3.283.861,2.426,2.426,0,0,0,.861,3.283Z"/><path class="c" d="M178.626,107.588a48.9,48.9,0,0,1,1.146,5.241l-.086-.638a3.18,3.18,0,0,1,.02.723l.085-.638a1.713,1.713,0,0,1-.079.325l.242-.573a1.368,1.368,0,0,1-.115.209l.375-.486a1.093,1.093,0,0,1-.171.169l.486-.375a3.506,3.506,0,0,1-.415.22l.573-.242a3.054,3.054,0,0,1-.7.2l.638-.086a2.822,2.822,0,0,1-.656,0l.638.086c-.248-.035-.491-.095-.739-.128a2.649,2.649,0,0,0-1.849.241,2.4,2.4,0,0,0-.861,3.284,2.3,2.3,0,0,0,1.434,1.1c.538.073,1.061.21,1.608.234a5.085,5.085,0,0,0,2.336-.551,3.305,3.305,0,0,0,1.853-2.189,5.6,5.6,0,0,0-.025-2.39c-.285-1.689-.675-3.362-1.109-5.018a2.4,2.4,0,0,0-4.629,1.276Z"/><path class="c" d="M150.64,92.824c-.875,2.844-.3,9.386,5.083,9.942,7.121-.042,7.5-7.952,5.1-11.671C158.863,88.05,153.092,86.784,150.64,92.824Z"/><path class="c" d="M207.665,92.824c.876,2.844.305,9.386-5.082,9.942-7.121-.042-7.5-7.952-5.1-11.671C199.442,88.05,205.213,86.784,207.665,92.824Z"/></svg>