<?xml version="1.0" encoding="utf-8"?>
<!-- Uploaded to: SVG Repo, www.svgrepo.com, Generator: SVG Repo Mixer Tools -->
<svg width="800px" height="800px" viewBox="-134.99 0 471.06 471.06" xmlns="http://www.w3.org/2000/svg"><defs><style>.a{fill:#ffffff;}.b{fill:#211715;}.c{fill:#bdbdbd;}.d{fill:#645d5c;}.e{fill:#f2635f;}.f{fill:#cfcfcf;}</style></defs><path class="a" d="M65.152,431.789a23.871,23.871,0,0,1-13.975,4.4,8.357,8.357,0,0,1-4.278-.966,4.1,4.1,0,0,1-1.628-1.9,27.892,27.892,0,0,0,1.377-4.208,142.852,142.852,0,0,0,19.538-.848q.007,1.363.018,2.729Q65.7,431.4,65.152,431.789Z"/><path class="a" d="M78.865,431.766a23.893,23.893,0,0,0,14.012,4.424,8.355,8.355,0,0,0,4.278-.966,4.092,4.092,0,0,0,1.629-1.9,27.88,27.88,0,0,1-1.407-4.33,169.243,169.243,0,0,1-19.508-.723c-.006.909-.012,1.818-.023,2.727Q78.335,431.388,78.865,431.766Z"/><path class="b" d="M45.515,422.073a28.7,28.7,0,0,1-3.185,12.92,2.047,2.047,0,0,0,.718,2.737,2.021,2.021,0,0,0,2.736-.718,33.169,33.169,0,0,0,3.731-14.939,2,2,0,0,0-4,0Z"/><path class="b" d="M64.15,423.112l.085,12.46a2,2,0,0,0,4,0l-.085-12.46a2,2,0,0,0-4,0Z"/><path class="b" d="M94.54,422.073a33.155,33.155,0,0,0,3.73,14.939,2,2,0,1,0,3.454-2.019,28.706,28.706,0,0,1-3.184-12.92,2,2,0,0,0-4,0Z"/><path class="b" d="M75.905,423.112l-.086,12.46a2,2,0,0,0,4,0l.086-12.46a2,2,0,0,0-4,0Z"/><path class="c" d="M71.811,427.39c9.392,1.952,31.385,2.186,36.318.541.445-7.365,1.259-80.473,3.245-113.47,1.673-27.78,2.989-61.11,4.62-78.508-19.195-.292-69.636-.6-88.785-.915,1.65,17.269,3.488,51.4,5.174,79.423,1.987,33,2.8,106.1,3.246,113.47,4.932,1.645,24.115,1.761,35.556-.426Z"/><path class="b" d="M25.209,236.171c1.45,15.238,2.306,30.537,3.234,45.813.914,15.047,1.935,30.1,2.574,45.156.552,13.006.91,26.02,1.23,39.034q.466,19.041.817,38.086c.149,7.548.213,15.105.516,22.649.014.341.028.682.049,1.022A2.075,2.075,0,0,0,35.1,429.86a28.815,28.815,0,0,0,6.559,1.006c3.1.242,6.206.307,9.31.289a115.867,115.867,0,0,0,20.751-1.721c2.527-.476,1.457-4.332-1.063-3.857a110.015,110.015,0,0,1-19.688,1.578c-3.011.017-6.027-.045-9.031-.268A22.93,22.93,0,0,1,36.16,426l1.469,1.928c-.389-6.554-.356-13.152-.486-19.715q-.369-18.477-.774-36.953c-.311-13.237-.659-26.474-1.172-39.7-.555-14.276-1.491-28.533-2.345-42.793-.964-16.1-1.878-32.211-3.255-48.282q-.184-2.156-.388-4.312a2.056,2.056,0,0,0-2-2,2.014,2.014,0,0,0-2,2Z"/><path class="b" d="M114.036,235.505c-1.441,15.164-2.061,30.414-2.85,45.622-.784,15.106-1.765,30.207-2.416,45.32-.563,13.072-.925,26.153-1.247,39.233q-.472,19.156-.824,38.316c-.151,7.636-.214,15.282-.521,22.913-.014.341-.029.682-.049,1.022L107.6,426a12.947,12.947,0,0,1-1.907.428c-.632.1-1.358.179-2.307.261-2.358.2-4.726.282-7.091.317a164.861,164.861,0,0,1-16.543-.562,64.476,64.476,0,0,1-7.407-.986c-2.512-.514-3.587,3.341-1.063,3.857a96.483,96.483,0,0,0,15.388,1.557,138.3,138.3,0,0,0,16.109-.134,25.731,25.731,0,0,0,5.885-.881,2.075,2.075,0,0,0,1.468-1.929c.394-6.636.359-13.317.491-19.962q.369-18.6.781-37.2c.313-13.315.664-26.631,1.188-39.94.565-14.341,1.5-28.664,2.249-43,.834-16.034,1.518-32.092,2.826-48.1q.172-2.118.372-4.233a2.014,2.014,0,0,0-2-2,2.044,2.044,0,0,0-2,2Z"/><path class="b" d="M70.027,266.813c-.443,4.851-.392,9.769-.432,14.635-.059,7.289-.032,14.579.01,21.868.059,10.326.178,20.65.163,30.976q-.025,16.989-.066,33.979-.036,19.2-.038,38.407,0,6.947.032,13.892c.012,2.194-.076,4.427.09,6.616a2.31,2.31,0,0,0,1.015,1.931,2.012,2.012,0,0,0,2.737-.718,2.051,2.051,0,0,0-.718-2.736l0,0,.718.718c.179.332.251,1.395.238.561-.006-.35-.02-.7-.027-1.052-.023-1.233-.032-2.467-.041-3.7-.03-4.269-.035-8.539-.04-12.808q-.019-18.747.029-37.493.031-17.518.069-35.038c.016-9.555-.062-19.107-.128-28.662-.09-12.965-.415-26,.229-38.956.04-.807.089-1.614.162-2.418a2.014,2.014,0,0,0-2-2,2.042,2.042,0,0,0-2,2Z"/><path class="d" d="M24.91,464.594c-.116-.152-.226-.308-.329-.47a8.81,8.81,0,0,1-.582-7.38,24.137,24.137,0,0,1,3.787-6.607q5.481-7.488,11.587-14.491c1.587-1.819,3.38-3.716,5.753-4.164a3.568,3.568,0,0,0,1.773,3.742,8.357,8.357,0,0,0,4.278.966,23.746,23.746,0,0,0,16.62-6.614c-.028,5,.022,6.664,0,11.665a10.477,10.477,0,0,1-.438,3.606c-1.028,2.78-4.076,4.119-6.522,5.793-6.363,4.354-9.714,12.3-16.382,16.17a17.214,17.214,0,0,1-15.914.571A10.046,10.046,0,0,1,24.91,464.594Z"/><path class="d" d="M119.144,464.594c.116-.152.226-.308.329-.47a8.806,8.806,0,0,0,.583-7.38,24.163,24.163,0,0,0-3.787-6.607q-5.483-7.488-11.588-14.491c-1.587-1.819-3.38-3.716-5.752-4.164a3.568,3.568,0,0,1-1.774,3.742,8.355,8.355,0,0,1-4.278.966,23.741,23.741,0,0,1-16.619-6.614c.027,5-.023,6.664,0,11.665a10.477,10.477,0,0,0,.438,3.606c1.028,2.78,4.076,4.119,6.522,5.793,6.363,4.354,9.714,12.3,16.382,16.17a17.214,17.214,0,0,0,15.914.571A10.037,10.037,0,0,0,119.144,464.594Z"/><path class="b" d="M26.637,463.584c-1.764-2.411-1.3-5.449-.01-7.975a55.6,55.6,0,0,1,5.739-8.272q3.172-4.139,6.559-8.112c1.828-2.153,3.807-5.162,6.732-5.814l-2.46-2.46a5.827,5.827,0,0,0,3.884,6.567c2.632,1.032,5.78.761,8.51.324a25.449,25.449,0,0,0,13.62-6.852L65.8,429.576c-.022,4.261.164,8.554-.021,12.811-.093,2.137-1.179,3.406-2.893,4.564a57.464,57.464,0,0,0-5.2,3.61c-6.048,5.129-9.634,13.856-17.855,16-4.468,1.166-10.438.41-13.5-3.383a2.014,2.014,0,0,0-2.828,0,2.048,2.048,0,0,0,0,2.829c3.11,3.849,8.921,5.341,13.677,5.006a20.359,20.359,0,0,0,12.98-6.144c3.2-3.157,5.677-6.96,8.876-10.119a31.033,31.033,0,0,1,5.264-3.946,11.806,11.806,0,0,0,4.659-4.621c1.259-2.721.856-6.043.849-8.965-.006-2.548-.017-5.095,0-7.643a2.023,2.023,0,0,0-3.415-1.414,21.422,21.422,0,0,1-9.4,5.293,20.492,20.492,0,0,1-6.214.725c-1.137-.046-4.06-.4-3.718-2.166a2.027,2.027,0,0,0-2.46-2.46c-3.578.8-5.931,3.833-8.189,6.48q-4.028,4.721-7.782,9.663c-4.04,5.3-10.39,13.142-5.44,19.906a2.06,2.06,0,0,0,2.737.718A2.017,2.017,0,0,0,26.637,463.584Z"/><path class="b" d="M120.871,465.6c4.95-6.764-1.4-14.61-5.439-19.906q-3.764-4.933-7.783-9.663c-2.258-2.647-4.61-5.682-8.189-6.48a2.027,2.027,0,0,0-2.46,2.46c.343,1.766-2.586,2.12-3.718,2.166a20.5,20.5,0,0,1-6.214-.725,21.427,21.427,0,0,1-9.4-5.293,2.022,2.022,0,0,0-3.414,1.414c.011,2.269.006,4.537,0,6.806a48.17,48.17,0,0,0,.189,7.675c.812,5.083,5.969,6.587,9.377,9.571,3.39,2.968,5.9,6.763,8.938,10.058,3.234,3.5,7.2,6.272,11.985,7.069,5.371.895,12.207-.283,15.813-4.747a2.06,2.06,0,0,0,0-2.829,2.015,2.015,0,0,0-2.828,0c-2.682,3.32-7.738,4.32-11.787,3.739-4.287-.614-7.625-3.079-10.479-6.195-2.743-3-5.056-6.375-8-9.183a30.281,30.281,0,0,0-4.907-3.7c-1.436-.9-3.228-1.881-3.928-3.522a11.018,11.018,0,0,1-.371-4.222q0-1.773,0-3.548c.008-2.323.015-4.646,0-6.97l-3.415,1.414a25.449,25.449,0,0,0,13.62,6.852c2.665.427,5.737.7,8.324-.252a5.866,5.866,0,0,0,4.07-6.639l-2.46,2.46c2.862.638,4.786,3.526,6.578,5.633q3.458,4.062,6.714,8.293a57.644,57.644,0,0,1,5.642,8.083c1.343,2.572,1.9,5.682.086,8.164a2.015,2.015,0,0,0,.718,2.737A2.047,2.047,0,0,0,120.871,465.6Z"/><path class="a" d="M70.233,118.212c-17.481,0-21.166-13.492-21.166-13.492.42-.18,2.12-.78,2.35-.86,3.44-1.25,3.3-3.46,3.73-5.93a64.066,64.066,0,0,0,.75-8.709,28.132,28.132,0,0,1-7.269-6.331,31.2,31.2,0,0,1-5.945-11.606l-1.172-.179a7.722,7.722,0,0,1-3.594-1.621A11.638,11.638,0,0,1,34.9,65.527,18.331,18.331,0,0,1,33.031,55.8a6.132,6.132,0,0,1,.641-2.463,4.335,4.335,0,0,1,3.113-2.07,4.586,4.586,0,0,1,3.669,1.074,17.117,17.117,0,0,1,.015-1.825c.31-5.845,5.046-23.347,31.249-23.347,31.323,0,30.274,25.172,30.274,25.172a4.586,4.586,0,0,1,3.669-1.074,4.335,4.335,0,0,1,3.113,2.07,6.114,6.114,0,0,1,.64,2.463,18.34,18.34,0,0,1-1.87,9.723,11.638,11.638,0,0,1-3.015,3.957,7.726,7.726,0,0,1-3.595,1.621l-.615.095c-.3,1.1-.626,2.034-.789,2.528-.978,2.655-6.16,11.419-12.853,15.48a56.172,56.172,0,0,0,.761,8.721c.433,2.473.3,4.684,3.736,5.926.228.082,4.043,1.845,4.557,2.071C95.731,105.926,88.9,118.212,70.233,118.212Z"/><path class="b" d="M103.406,53.759a2.506,2.506,0,0,1,3.566.469,5.233,5.233,0,0,1,.5,2.644,15.545,15.545,0,0,1-.22,3.2c-.694,3.8-2.63,8.351-6.852,9.108a2.017,2.017,0,0,0-1.4,2.46,2.044,2.044,0,0,0,2.46,1.4c6.412-1.149,9.469-8.391,9.952-14.2.247-2.979.011-6.387-2.566-8.318a6.62,6.62,0,0,0-8.275.418,2.015,2.015,0,0,0,0,2.828,2.044,2.044,0,0,0,2.829,0Z"/><path class="b" d="M98.887,67.691a17.31,17.31,0,0,1-1.009,4.678c-.09.275-.194.549-.277.827-.037.125-.2.478.024-.036-.141.328-.3.65-.456.969a39.282,39.282,0,0,1-3.389,5.448c-2.958,4.057-6.972,8.353-12.038,9.542-2.505.588-1.445,4.445,1.063,3.857,6.033-1.415,10.714-6.349,14.263-11.154,3.066-4.151,5.605-8.855,5.819-14.131.1-2.574-3.9-2.569-4,0Z"/><path class="b" d="M41.868,50.931a6.621,6.621,0,0,0-8.274-.418c-2.58,1.925-2.813,5.344-2.566,8.318.482,5.811,3.54,13.053,9.952,14.2a2.055,2.055,0,0,0,2.46-1.4,2.017,2.017,0,0,0-1.4-2.46c-4.222-.757-6.158-5.308-6.852-9.108a15.405,15.405,0,0,1-.223-3.018,6.013,6.013,0,0,1,.431-2.7,2.492,2.492,0,0,1,3.641-.591,2.055,2.055,0,0,0,2.828,0,2.015,2.015,0,0,0,0-2.828Z"/><path class="b" d="M39.767,67.415a35.623,35.623,0,0,0,7.587,17.054c4.268,5.053,9.918,8.709,16.573,9.427a2.012,2.012,0,0,0,2-2,2.045,2.045,0,0,0-2-2C58.216,89.279,53.445,85.624,49.9,81.3c-3.494-4.261-5.34-9.587-6.277-14.952a2.017,2.017,0,0,0-2.46-1.4,2.046,2.046,0,0,0-1.4,2.46Z"/><path class="b" d="M49.6,106.648a28.728,28.728,0,0,0,4.121-1.67,6.522,6.522,0,0,0,2.987-4.268A60.067,60.067,0,0,0,57.9,89.22c.055-2.575-3.945-2.575-4,0a64.833,64.833,0,0,1-.952,9.929c-.053.3-.113.6-.2.9-.036.132-.083.26-.12.392-.127.453.191-.282-.051.122-.085.141-.164.285-.251.426.146-.237.067-.067-.061.064-.047.048-.4.381-.275.279.158-.128-.25.166-.291.191a23.268,23.268,0,0,1-3.166,1.267,2.066,2.066,0,0,0-1.4,2.46,2.012,2.012,0,0,0,2.46,1.4Z"/><path class="b" d="M84.676,89.633a60.232,60.232,0,0,0,.7,8.046c.279,1.8.406,3.786,1.44,5.346a6.469,6.469,0,0,0,2.523,2.209c.341.169.694.315,1.048.455.783.31-.276-.155-.082-.046.215.122.461.207.686.309,1.244.564,2.479,1.148,3.727,1.7a2.062,2.062,0,0,0,2.736-.717,2.014,2.014,0,0,0-.717-2.736c-1.135-.5-2.259-1.034-3.389-1.548-.538-.246-1.078-.482-1.622-.716a5.911,5.911,0,0,1-1.046-.545c-.473-.324.168.2-.208-.18-.087-.084-.171-.172-.25-.264q.167.231.047.059c-.111-.165-.2-.336-.3-.51.163.3.006.022-.048-.142a8.275,8.275,0,0,1-.263-1.076c-.156-.839-.274-1.688-.407-2.53a52.137,52.137,0,0,1-.582-7.115c-.049-2.57-4.049-2.579-4,0Z"/><path class="a" d="M29.061,211.294c.169-1.568-.259-2.871-.165-3.766.427-4.086,1.058-18.066,1-24.45-3.178.067-6,.121-6,.121-6.6.081-19.767-.358-21.361-1.119-.876-.262-.386-2.579.088-4.315C4.2,172,7.475,156.793,8.319,153.351c1.309-5.344,4.75-20.75,5.909-25.192.705-2.7,2.212-6.855,4.347-9.384a16.4,16.4,0,0,1,2.266-1.548,32.7,32.7,0,0,1,4.686-2.651,256.237,256.237,0,0,1,23.5-11.6A25.629,25.629,0,0,1,54.7,94.829a49.625,49.625,0,0,0,14.32,9.981c.3.134.627.3.723.609h2.569c.1-.311.426-.475.723-.609a49.625,49.625,0,0,0,14.32-9.981,24.855,24.855,0,0,1,5.2,7.16,248.327,248.327,0,0,1,25.851,12.587,43.221,43.221,0,0,1,3.946,2.1l1.05.572a16.279,16.279,0,0,1,2.226,1.527c2.136,2.529,3.643,6.679,4.348,9.384,1.159,4.442,2.99,12.207,4.877,20.231a63.086,63.086,0,0,1,2.6,7.478l5.518,9.123-11.259,29.333-6.129-1.671a31.257,31.257,0,0,1-5.581-6.4c-1.276-2.259-4.218-8.474-4.967-12.223l-.753-1.63c-.439,3.472-.772,6.363-.871,8.015-.28,4.637.462,22.5.945,27.116.144,1.377-.283,2.711-.149,4"/><path class="b" d="M50.279,100.3q-8.057,3.35-15.837,7.3c-2.417,1.23-4.814,2.5-7.2,3.782-2.474,1.332-5.235,2.464-7.474,4.17a2.065,2.065,0,0,0-.718,2.736,2.014,2.014,0,0,0,2.737.718,52.708,52.708,0,0,1,7.089-3.962c2.39-1.289,4.789-2.562,7.208-3.8,5-2.552,10.078-4.932,15.259-7.086a2.067,2.067,0,0,0,1.4-2.461,2.012,2.012,0,0,0-2.46-1.4Z"/><path class="b" d="M92.591,104.152c5.116,2.127,10.136,4.473,15.071,6.99,2.352,1.2,4.686,2.435,7.011,3.686,2.377,1.28,5.065,2.346,7.217,3.979a2.013,2.013,0,0,0,2.737-.717,2.051,2.051,0,0,0-.718-2.737c-2.154-1.634-4.838-2.7-7.217-3.979-2.449-1.318-4.909-2.618-7.389-3.878q-7.684-3.9-15.648-7.2a2.013,2.013,0,0,0-2.461,1.4,2.053,2.053,0,0,0,1.4,2.461Z"/><path class="b" d="M122.393,118.975a6.232,6.232,0,0,1,2.752,2.56,23.965,23.965,0,0,1,2.139,4.651c1.086,3.129,1.758,6.418,2.534,9.633q.727,3.015,1.44,6.034c.548,2.313.9,4.82,1.666,7.068.809,2.369,1.963,4.893,2.6,7.478.616,2.5,4.475,1.44,3.857-1.063-.346-1.4-.83-2.776-1.307-4.137a31.081,31.081,0,0,1-1.52-4.3c-.841-4.468-2.093-8.9-3.166-13.322a73.458,73.458,0,0,0-2.759-9.83A24.488,24.488,0,0,0,128,118.6a10.51,10.51,0,0,0-3.586-3.078c-2.24-1.277-4.257,2.177-2.019,3.454Z"/><path class="b" d="M19.792,115.521a12.259,12.259,0,0,0-2.631,1.84,15.221,15.221,0,0,0-2.628,4.159,37.961,37.961,0,0,0-2.5,7.167c-1.149,4.624-2.187,9.276-3.256,13.918Q5.858,155.282,2.95,167.96c-.584,2.541-1.174,5.082-1.816,7.609-.574,2.256-2.438,6.814.394,8.238,2.294,1.154,4.321-2.295,2.019-3.454.89.448.342.942.516.285.069-.26.079-.612.135-.879.115-.555.261-1.1.407-1.65q.358-1.341.689-2.691c.551-2.231,1.071-4.47,1.586-6.709.993-4.323,1.944-8.655,2.934-12.977,1.849-8.073,3.709-16.147,5.64-24.2a50.425,50.425,0,0,1,1.842-6.376,21.062,21.062,0,0,1,2.159-4.241,6,6,0,0,1,2.356-1.94c2.236-1.275.223-4.733-2.019-3.454Z"/><path class="b" d="M113.106,174.559a45.9,45.9,0,0,0,4.108,10.667,28.9,28.9,0,0,0,6.955,8.841,2.048,2.048,0,0,0,2.829,0,2.019,2.019,0,0,0,0-2.828,25.977,25.977,0,0,1-6.33-8.031,41.627,41.627,0,0,1-3.705-9.712,2,2,0,1,0-3.857,1.063Z"/><path class="b" d="M125.219,177.481c.335-.453.669-.906,1.006-1.357q.24-.321.481-.641c.08-.106.16-.213.241-.318.038-.051.37-.48.076-.1.665-.855,1.347-1.7,2.072-2.5a26.522,26.522,0,0,1,2.3-2.282q.3-.261.611-.512s.4-.308.176-.141.141-.1.184-.135q.728-.531,1.5-.995a2,2,0,0,0-2.019-3.454c-4.249,2.566-7.182,6.494-10.085,10.419a2.008,2.008,0,0,0,.718,2.737,2.057,2.057,0,0,0,2.736-.718Z"/><path class="b" d="M4.027,174.971c2.85.273,5.72.408,8.578.564,3.577.195,7.192.446,10.776.311,2.566-.1,2.578-4.1,0-4-3.584.135-7.2-.116-10.776-.311-2.858-.156-5.728-.291-8.578-.564a2.014,2.014,0,0,0-2,2,2.043,2.043,0,0,0,2,2Z"/><path class="a" d="M59.317,116.562c-4.05-5.522-6.213-9.461-9.61-14.99a24.513,24.513,0,0,1,4.99-6.743,49.625,49.625,0,0,0,14.32,9.981c.3.134.627.3.723.609a1.147,1.147,0,0,1-.166.809C69.389,106.613,60.67,114.9,59.317,116.562Z"/><path class="a" d="M82.732,116.562c4.05-5.522,6.213-9.461,9.61-14.99a24.513,24.513,0,0,0-4.99-6.743,49.625,49.625,0,0,1-14.32,9.981c-.3.134-.627.3-.723.609a1.151,1.151,0,0,0,.165.809C72.66,106.613,81.379,114.9,82.732,116.562Z"/><path class="b" d="M61.044,115.553c-3.511-4.806-6.5-9.924-9.61-14.99v2.019a23.53,23.53,0,0,1,4.677-6.338H53.283a51.612,51.612,0,0,0,7.383,6.117q1.853,1.273,3.813,2.38.951.537,1.928,1.029.557.281,1.122.545.239.113.479.222.451.262.005-.108l-.273-1.01c-.011-.135.6-.71.278-.431-.107.091-.2.212-.3.313-.345.357-.7.706-1.052,1.056-1.062,1.052-2.132,2.1-3.2,3.143a76.45,76.45,0,0,0-5.567,5.648,2.059,2.059,0,0,0,0,2.829,2.016,2.016,0,0,0,2.829,0,107.856,107.856,0,0,1,7.816-7.855,16.325,16.325,0,0,0,2.744-2.867,2.885,2.885,0,0,0-1.264-4.172c-1.51-.772-3.03-1.485-4.491-2.352a47.313,47.313,0,0,1-9.425-7.316,2.037,2.037,0,0,0-2.828,0,25.75,25.75,0,0,0-4.438,5.593c-.722,1.21-1.521,2.355-.76,3.745.579,1.058,1.262,2.073,1.885,3.106,2.41,3.994,4.866,7.943,7.62,11.713a2.058,2.058,0,0,0,2.736.717A2.015,2.015,0,0,0,61.044,115.553Z"/><path class="b" d="M84.459,117.572c2.754-3.77,5.21-7.719,7.62-11.713.59-.978,1.21-1.943,1.78-2.934.821-1.428.193-2.476-.564-3.762a25.827,25.827,0,0,0-4.529-5.748,2.035,2.035,0,0,0-2.828,0,46.993,46.993,0,0,1-8.149,6.533,48.2,48.2,0,0,1-4.487,2.528c-1.566.774-3.426,1.594-2.943,3.748.314,1.4,1.606,2.384,2.579,3.344,1.5,1.478,3.008,2.946,4.506,4.426a55.149,55.149,0,0,1,3.874,3.983,2.016,2.016,0,0,0,2.829,0,2.047,2.047,0,0,0,0-2.829A76.648,76.648,0,0,0,78.58,109.5q-1.57-1.539-3.138-3.081c-.361-.358-.723-.715-1.077-1.08-.1-.107-.2-.226-.312-.327-.313-.287.267.267.256.407l-.273,1.01q-.447.37,0,.108l.319-.147c.376-.177.75-.355,1.122-.54q.975-.486,1.928-1.019,2.043-1.142,3.973-2.47a51.857,51.857,0,0,0,7.383-6.117H85.938a23.515,23.515,0,0,1,4.677,6.338v-2.019c-3.108,5.066-6.1,10.184-9.61,14.99a2.015,2.015,0,0,0,.718,2.736A2.044,2.044,0,0,0,84.459,117.572Z"/><path class="b" d="M69.034,106.067c0,5.044-.035,10.088-.057,15.132q-.065,15.03-.134,30.061-.081,17.63-.163,35.258-.071,15.352-.14,30.705-.038,8.2-.069,16.406c0,.187,0,.374,0,.561,0,2.574,4,2.578,4,0,0-4.67.036-9.34.056-14.009q.066-14.744.135-29.486.081-17.613.163-35.225.07-15.607.14-31.215.039-8.728.069-17.457c0-.244,0-.488,0-.731,0-2.574-4-2.578-4,0Z"/><path class="b" d="M108.2,135.68H92.117a2.03,2.03,0,0,0-2,2c0,2.323.025,4.645.026,6.968a2.03,2.03,0,0,0,2,2c5.353,0,10.7.031,16.057.032a2.028,2.028,0,0,0,2-2c0-2.326-.112-4.676,0-7a2,2,0,0,0-4,0c-.112,2.324,0,4.674,0,7l2-2c-5.352,0-10.7-.031-16.057-.032l2,2c0-2.323-.025-4.645-.026-6.968l-2,2H108.2C110.774,139.68,110.778,135.68,108.2,135.68Z"/><path class="b" d="M117.006,128.472c-.558,5.128-.754,10.3-1.226,15.436-.667,7.257-1.656,14.476-2.614,21.7-.677,5.111-1.6,10.294-1.785,15.454-.166,4.66.074,9.353.259,14.009.112,2.82.242,5.64.415,8.457.061,1.01.127,2.02.212,3.029.14,1.674-.158,3.312-.06,4.977.151,2.559,4.152,2.576,4,0-.09-1.532.234-3.032.1-4.57-.079-.869-.139-1.74-.2-2.611-.158-2.422-.278-4.847-.384-7.272-.215-4.916-.423-9.846-.369-14.767a118.4,118.4,0,0,1,1.457-14.01c.945-7.2,1.974-14.4,2.7-21.631.61-6.055.834-12.151,1.492-18.2a2.012,2.012,0,0,0-2-2,2.047,2.047,0,0,0-2,2Z"/><path class="b" d="M22.191,128.911c.58,4.892.934,9.813,1.456,14.713.754,7.064,1.681,14.109,2.505,21.165.626,5.362,1.362,10.748,1.685,16.14.271,4.53-.017,9.131-.194,13.66-.117,2.976-.256,5.953-.441,8.926-.066,1.06-.136,2.119-.227,3.177-.135,1.548.2,3.055.086,4.6-.188,2.568,3.813,2.556,4,0,.105-1.438-.248-2.841-.115-4.275.081-.886.143-1.773.2-2.66.167-2.522.293-5.047.4-7.572.216-4.911.461-9.853.332-14.77-.129-4.868-.871-9.759-1.425-14.591-.8-6.969-1.71-13.925-2.493-20.9-.659-5.865-1.079-11.759-1.774-17.619a2.061,2.061,0,0,0-2-2,2.012,2.012,0,0,0-2,2Z"/><path class="e" d="M28.5,210c-.153,2.3-1.339,12.116-1.063,15.259-4.427,31.894-4.523,113.7-4.26,116.589,19.414,2.67,88.992,2.078,100.475-.072.191-2.049-2.246-84.919-6.853-116.369-.555-4.222-.741-12.444-1.232-15.149Z"/><path class="b" d="M26.5,210c-.331,4.706-1.123,9.4-1.105,14.13a5.889,5.889,0,0,0,.011.609c.013.116.014.242.018.357,0-.023.049-.336.044-.075a16.482,16.482,0,0,1-.231,1.731q-.183,1.425-.344,2.854-.355,3.142-.632,6.293c-.908,10.142-1.429,20.319-1.849,30.491-.455,11.037-.756,22.08-.968,33.124q-.267,13.9-.337,27.8c-.021,4.692-.185,9.431.049,14.121.007.138.009.276.021.414.067.784.567,1.806,1.468,1.929,5.526.753,11.113,1.033,16.681,1.268,7.671.324,15.35.469,23.027.54,15.548.142,31.121.039,46.656-.644a110.677,110.677,0,0,0,15.175-1.236,2.034,2.034,0,0,0,1.468-1.929,31.773,31.773,0,0,0-.029-3.3c-.054-2.636-.128-5.272-.207-7.907q-.387-12.933-.943-25.861-.683-16.194-1.614-32.377c-.609-10.381-1.3-20.761-2.259-31.116-.389-4.216-.822-8.428-1.364-12.627-.652-5.058-.933-10.143-1.347-15.42-.091-1.152-.2-2.307-.394-3.447a2.016,2.016,0,0,0-2.46-1.4,2.046,2.046,0,0,0-1.4,2.46c.328,1.9.43,5,.574,7.356.173,2.83.356,5.656.755,8.465.228,1.6.446,3.333.667,5.236q.374,3.213.686,6.433c.993,10.1,1.7,20.23,2.318,30.359q.995,16.233,1.681,32.483.588,13.47,1.02,26.946c.14,4.44.04,8.935.323,13.367a2.3,2.3,0,0,1-.01.342l1.468-1.928c-.306.056-.614.1-.922.151-.6.1.117-.01-.114.017s-.433.054-.65.079c-.963.112-1.928.2-2.893.28-2.509.207-5.023.351-7.537.474-7,.342-14.007.516-21.013.633-15.948.265-31.918.252-47.859-.327-3.555-.129-7.109-.29-10.658-.528-1.493-.1-2.987-.213-4.477-.351q-.934-.087-1.866-.188-.469-.053-.937-.109c-.176-.021-1.079-.141-.485-.06l1.468,1.929c-.338-3.938-.09-8-.079-11.948q.036-13.222.274-26.444.284-16.446.875-32.885c.4-10.472.892-20.946,1.735-31.393.335-4.149.724-8.3,1.255-12.426a18.6,18.6,0,0,0,.158-2.622c0-1.189.069-2.378.151-3.564.183-2.683.457-5.359.722-8.034.084-.843.173-1.687.232-2.532.181-2.569-3.82-2.558-4,0Z"/><path class="b" d="M31.119,212.376q16.313,0,32.625.022,18.779.018,37.557.035,6.892.006,13.784.008c2.574,0,2.578-4,0-4q-14.653,0-29.307-.022-19.244-.018-38.487-.035-8.087-.006-16.172-.008c-2.574,0-2.578,4,0,4Z"/><path class="b" d="M25.448,225.877c11.788-.327,23.591-.31,35.382-.34,14.479-.036,28.959-.022,43.438.123,5.108.052,10.221.086,15.326.282,2.574.1,2.57-3.9,0-4-11.039-.424-22.108-.356-33.152-.394q-22.031-.076-44.062.082c-5.644.046-11.29.091-16.932.247-2.568.072-2.579,4.072,0,4Z"/><path class="a" d="M163.467,118.868c2.475-.559,11.211-2.062,12.8-2.425a19.313,19.313,0,0,0,3.974-1.868c2.685-1.262,5.683-3.175,8.593-3.75.793-.156,1.643.3,2.122.23,1.365-.88,4.187-.717,5.756-.29,5.6,2.589-.089,10.357-3.358,12.886-2.254,1.743-5.572,4.464-8.034,5.96a33.933,33.933,0,0,1-8.568,4.069,77.588,77.588,0,0,0-10.665,3.542c-1.875,1.3-4.026,2.6-5.172,6.343-2.166,11.241-4.214,32.821-6.331,39.973-2.088,7.049-2.851,12.474-9.36,16.555-3.545,2.222-6.774,3.2-10.631,1.162a11.932,11.932,0,0,1-6.161-13.091A55.01,55.01,0,0,1,132.4,175.88c3.478-7.169,13.329-34.587,16.572-41.828.938-1.987,2.268-3.994,2.8-5.249.689-1.625.226-4.364.713-6.048a22.041,22.041,0,0,1,4.891-8.963,96.51,96.51,0,0,1,8.222-8.6c1.313-1.244,2.633-2.083,4.275-.965,1.825,1.244,1.151,2.917.356,4.784-1.481,3.476-5.106,6.353-6.261,9.334"/><path class="b" d="M158.991,143.034c-1.865,9.747-2.829,19.652-4.31,29.46a91.661,91.661,0,0,1-2.336,11.593c-1.289,4.5-2.3,9.293-5.89,12.594-1.926,1.773-4.706,3.575-7.393,3.685-2.738.112-5.5-1.7-7.041-3.885-3.222-4.571-1.347-10.227.291-15.031,1.189-3.487,2.861-6.789,4.255-10.2,1.593-3.891,3.1-7.816,4.61-11.741,1.848-4.817,3.672-9.643,5.525-14.457.776-2.017,1.557-4.033,2.357-6.04.639-1.6,1.081-2.7,1.639-3.954a2.062,2.062,0,0,0-.717-2.736,2.016,2.016,0,0,0-2.737.717c-3.356,7.526-6.082,15.357-9.022,23.05-1.641,4.293-3.284,8.586-5,12.848-1.389,3.441-3.018,6.615-4.359,10.3-2.028,5.569-3.924,11.821-1.29,17.5,2.662,5.743,9.45,9.194,15.481,6.726a19.777,19.777,0,0,0,11.277-12.064,79.518,79.518,0,0,0,3.4-12.834c2.042-11.439,2.942-23.06,5.126-34.474.481-2.515-3.373-3.593-3.857-1.063Z"/><path class="b" d="M150.7,135.061c.779-1.608,1.753-3.109,2.547-4.708a11.326,11.326,0,0,0,.969-4.939,15.461,15.461,0,0,1,3.143-8.358,63.88,63.88,0,0,1,7.779-8.652c.62-.6,1.239-1.211,1.875-1.8.37-.342.923-.984,1.478-.876,1.2.233.1,2.151-.3,2.937-1.686,3.311-4.715,5.68-6.151,9.146a2.012,2.012,0,0,0,1.4,2.46,2.05,2.05,0,0,0,2.46-1.4,18.782,18.782,0,0,1,2.974-4.193,21.6,21.6,0,0,0,3.159-4.837c.772-1.788,1.491-3.751.508-5.618a4.871,4.871,0,0,0-5.294-2.38c-2.057.535-3.631,2.454-5.092,3.882-1.7,1.66-3.353,3.368-4.918,5.156a29.929,29.929,0,0,0-6.184,9.786,13.536,13.536,0,0,0-.777,3.419c-.084,1.039,0,2.1-.149,3.136a6.934,6.934,0,0,1-1.023,2.384c-.638,1.135-1.287,2.259-1.855,3.431-1.117,2.307,2.331,4.338,3.454,2.019Z"/><path class="b" d="M164,120.8c4.151-.924,8.383-1.456,12.536-2.368a16.769,16.769,0,0,0,4.169-1.849c1.571-.827,3.167-1.632,4.763-2.41a19.307,19.307,0,0,1,2.509-1.047,3.876,3.876,0,0,1,2.184-.145,3.743,3.743,0,0,0,2.123-.351,5.83,5.83,0,0,1,2.193-.195c2.376.115,2.992,1.27,2.317,3.334a14.469,14.469,0,0,1-4.051,5.792,63.116,63.116,0,0,1-7.237,5.557,34.2,34.2,0,0,1-9.281,4.636c-3.64,1.088-7.592,1.876-10.974,3.665a13.075,13.075,0,0,0-6.259,7.618c-.8,2.454,3.065,3.5,3.857,1.063a8.528,8.528,0,0,1,3.261-4.459,20.6,20.6,0,0,1,6.181-2.575c2.37-.725,4.81-1.282,7.124-2.175a42.023,42.023,0,0,0,6.747-3.445,63.921,63.921,0,0,0,5.968-4.307,37.471,37.471,0,0,0,4.289-3.587c2.374-2.51,4.956-6.153,4.63-9.8-.458-5.134-7.131-6.686-11.1-4.424l1.01-.273a19.725,19.725,0,0,0-2.122-.23,9.834,9.834,0,0,0-2.525.648,39.991,39.991,0,0,0-4.625,2.137c-2.219,1.151-4.43,2.618-6.9,3.1-3.945.767-7.93,1.358-11.854,2.231-2.511.558-1.448,4.416,1.064,3.857Z"/><path class="b" d="M171.5,123.183c-.27.044-.54.082-.81.123-.318.05.307-.037-.014,0l-.456.058c-.521.064-1.042.123-1.563.186-1.215.145-2.435.3-3.634.541a13.581,13.581,0,0,0-6.347,3.022,2.011,2.011,0,0,0,0,2.828,2.048,2.048,0,0,0,2.828,0c.094-.083.189-.164.285-.245.112-.093.2-.145.035-.027.224-.157.45-.31.685-.451q.31-.184.633-.346c.107-.054.219-.1.324-.155.27-.145-.269.1.017-.011a17.278,17.278,0,0,1,2.963-.828c.483-.091.969-.163,1.455-.235.32-.047-.3.036.019,0l.368-.047.829-.1c1.151-.136,2.3-.272,3.446-.458a2.008,2.008,0,0,0,1.4-2.461,2.057,2.057,0,0,0-2.46-1.4Z"/><path class="b" d="M188.134,111.838q-.537.548-1.123,1.043c-.193.164-.391.323-.59.48.224-.176.053-.043-.077.054-.094.069-.188.138-.283.206a30.611,30.611,0,0,1-2.893,1.828q-1.443.81-2.952,1.492c-.234.105-.469.206-.7.31s.295-.119-.059.024l-.3.122q-.715.286-1.442.538a2,2,0,0,0,1.063,3.858c4.371-1.518,8.916-3.792,12.19-7.127a2,2,0,0,0-2.829-2.828Z"/><path class="b" d="M191.884,114.606a8.252,8.252,0,0,1-1.041,1.032c-.127.107-.259.209-.386.316-.347.3.364-.268-.013.012-.266.2-.532.391-.8.58-1.21.844-2.473,1.612-3.752,2.346q-1.846,1.059-3.748,2.017c-.5.251-1,.5-1.51.732-.186.087-.374.168-.56.253-.378.174.451-.176.152-.062-.081.03-.161.064-.242.1a2.049,2.049,0,0,0-1.4,2.461,2.024,2.024,0,0,0,2.461,1.4,50.1,50.1,0,0,0,6.863-3.439c1.321-.758,2.625-1.552,3.871-2.43a14.43,14.43,0,0,0,2.932-2.482,2.047,2.047,0,0,0,0-2.828,2.023,2.023,0,0,0-2.828,0Z"/><path class="f" d="M65.509,142.62c-23.118,0-39.1,17.906-39.1,38.859,0,24.255,15.124,39.588,39.1,39.588,24.534,0,39.1-15.333,39.1-39.588C104.611,160.383,88.547,142.62,65.509,142.62Z"/><path class="b" d="M65.509,140.62a41.8,41.8,0,0,0-25.62,8.576A40.336,40.336,0,0,0,26,169.966a47.371,47.371,0,0,0,.422,26.071,37.151,37.151,0,0,0,13.157,19.22c6.657,5,14.935,7.322,23.168,7.74,8.459.429,17.232-.953,24.733-5.031,14.742-8.015,20.861-25.742,18.79-41.792A41.132,41.132,0,0,0,95.55,153.18a40.138,40.138,0,0,0-22.919-11.986,47.579,47.579,0,0,0-7.122-.574c-2.574-.01-2.577,3.99,0,4a37.823,37.823,0,0,1,23.01,7.557A36.337,36.337,0,0,1,101.2,171.133a44.07,44.07,0,0,1-.348,23.657,32.64,32.64,0,0,1-11.137,16.971c-5.868,4.536-13.243,6.712-20.569,7.189-7.772.506-15.855-.522-22.825-4.164a32.064,32.064,0,0,1-14.211-14.935,43.453,43.453,0,0,1-3.441-23A36.129,36.129,0,0,1,59.088,145.11a40.475,40.475,0,0,1,6.421-.49C68.083,144.61,68.088,140.61,65.509,140.62Z"/><path class="b" d="M95.805,177.5c-1.822-12.146-11.516-22.792-23.53-25.521-11.415-2.593-22.841,2.028-30.4,10.71a29.113,29.113,0,0,0-7.593,18.97c-.008,2.575,3.992,2.578,4,0,.034-10.618,8.03-20.655,17.722-24.523A25.807,25.807,0,0,1,82.543,161.6a28.067,28.067,0,0,1,9.4,16.962,2.014,2.014,0,0,0,2.46,1.4,2.05,2.05,0,0,0,1.4-2.46Z"/><path class="a" d="M24.715,185.657c3.546,1.612,27.037,6.028,34.007,7.657,5.99,1.4,16.777.865,18.373.645h0c1.253-.346,2.479-.255,3.534-.978a12.077,12.077,0,0,0,2.724-2.879,12.969,12.969,0,0,1,6.019-4.717c2.13-.736,4.834-.684,7.1-.817,1.758-.1,5.971.077,6.447,2.411.715,3.507-3.729,3.622-5.8,4.366l-3.362,1.5c3.486,1.382,11.794,4.347,13.5,4.867,4.713,1.438,5.638,7.907-.3,7.712.056,1.3-.015,3.011-1.045,3.822A13.417,13.417,0,0,0,102.937,212c-.431.628-.619,1.792-1.066,2.458-1.109,1.652-3.588,1.869-3.769,2.135-.732,1.082-2.328,4.136-4.136,4.282a13.839,13.839,0,0,1-4.34-.308c-3.123-.841-5.243-1.552-7.64-3.732a41.236,41.236,0,0,0-4.385-4,14.652,14.652,0,0,0-5.165-1.73c-1.329-.242-43.475-4.835-52.661-6.769-4.381-.923-7.615-1.195-12.319-3.1-3.778-1.534-5.8-7.372-4.547-12.94.414-1.834.905-3.748,1.4-5.656Z"/><path class="b" d="M77.626,195.887a25.562,25.562,0,0,0,2.807-.6,7.38,7.38,0,0,0,2.528-1.638c1.244-1.171,2.1-2.674,3.3-3.888a9.659,9.659,0,0,1,4.025-2.568,23.227,23.227,0,0,1,5.575-.592,14.456,14.456,0,0,1,3.365.1,4.708,4.708,0,0,1,1.345.4c.344.183.381.129.421.464a.594.594,0,0,1-.065.446c.121-.31-.169.1-.04,0a3.415,3.415,0,0,1-1.061.525c-1.062.354-2.177.519-3.237.88-2.424.824-1.384,4.689,1.063,3.857,2.073-.705,4.463-.833,6.086-2.485a4.574,4.574,0,0,0-.928-7.016c-2.154-1.35-4.926-1.261-7.364-1.155-3.644.157-7.138.455-10.156,2.715a20.706,20.706,0,0,0-3.9,4.077,7.159,7.159,0,0,1-1.948,1.95,11.772,11.772,0,0,1-2.878.67c-2.5.606-1.442,4.464,1.063,3.857Z"/><path class="b" d="M91.694,194.133c4.279,1.861,8.745,3.36,13.154,4.88,1.563.539,3.237.9,4,2.356a1.294,1.294,0,0,1,.172.428c.01.032.107.627.076.281.009.1-.063.828,0,.447-.016.093-.229.558-.07.239-.168.337.1-.03-.157.219a.838.838,0,0,1-.474.292,5.726,5.726,0,0,1-1.436.147,2.022,2.022,0,0,0-2,2,4.159,4.159,0,0,1-.221,2.187c-.519.8-1.74,1.338-2.421,2.03a7.427,7.427,0,0,0-1.717,2.706c-.286.761-.419,1.225-1.168,1.613-1.291.67-2.4.641-3.277,1.965-.62.932-1.358,2.628-2.474,3a7.358,7.358,0,0,1-2.525-.084,17.513,17.513,0,0,1-2.906-.748,12.716,12.716,0,0,1-4.85-2.671,46.32,46.32,0,0,0-4.517-4.131,14.894,14.894,0,0,0-5.915-2.116,2.057,2.057,0,0,0-2.46,1.4,2.017,2.017,0,0,0,1.4,2.46,11.838,11.838,0,0,1,4.959,1.713,41.727,41.727,0,0,1,3.585,3.392,18.76,18.76,0,0,0,9.383,4.522,10.646,10.646,0,0,0,5.392-.064,7.964,7.964,0,0,0,3.407-3.135,5.406,5.406,0,0,0,.978-1.516c.031-.188.619-.562-.3.131s-.44.261-.257.261a3.238,3.238,0,0,0,.86-.27,6.613,6.613,0,0,0,3.84-2.869,17.645,17.645,0,0,1,1.009-2.308,11.823,11.823,0,0,1,2.249-1.983c1.691-1.349,2.013-3.426,1.946-5.482l-2,2c2.465.03,5.039-.948,5.883-3.466a6.223,6.223,0,0,0-1.588-6.045c-1.392-1.513-3.27-2.044-5.142-2.686-2.146-.737-4.281-1.5-6.413-2.28q-1.85-.675-3.693-1.369-.748-.283-1.493-.575c-.2-.08-.405-.162-.608-.243l-.226-.092c-.278-.114.426.184.034.013a2.066,2.066,0,0,0-2.737.718,2.014,2.014,0,0,0,.718,2.736Z"/><path class="b" d="M2.385,182.1c-1.237,4.733-2.669,9.515-1.131,14.363a11.436,11.436,0,0,0,3.052,5.073,14.775,14.775,0,0,0,5.811,2.749,94.89,94.89,0,0,0,10.424,2.226c2,.364,4.011.661,6.022.951,11.814,1.7,23.68,3.048,35.535,4.421q3.564.414,7.128.825c.712.083,1.424.166,2.136.253.227.027.454.057.68.084.449.051-.6-.1-.137-.017a2.057,2.057,0,0,0,2.46-1.4,2.017,2.017,0,0,0-1.4-2.46c-2.663-.463-5.4-.655-8.079-.965q-8.2-.948-16.395-1.923c-10.26-1.232-20.286-2.411-30.425-4.323a64.712,64.712,0,0,1-7.089-1.593c-1.944-.6-3.8-1.148-4.934-2.949-2.78-4.429-1.011-9.634.2-14.255.651-2.492-3.206-3.556-3.857-1.063Z"/><path class="b" d="M77.1,191.959a63.937,63.937,0,0,1-10.262.236,58.883,58.883,0,0,1-10.465-1.448c-7.508-1.606-15.05-3.056-22.543-4.738-1.776-.4-3.55-.808-5.312-1.267-.617-.161-1.234-.327-1.845-.512-.257-.078-.513-.158-.767-.247-.184-.065-.874-.362-.176-.053a2.064,2.064,0,0,0-2.737.718,2.015,2.015,0,0,0,.718,2.736,40.938,40.938,0,0,0,7.392,2.1c3.924.907,7.868,1.73,11.812,2.548,3.763.78,7.53,1.541,11.29,2.335A72.928,72.928,0,0,0,64.754,196.1a65.653,65.653,0,0,0,12.341-.137,2.066,2.066,0,0,0,2-2,2.012,2.012,0,0,0-2-2Z"/><path class="b" d="M1.528,183.807a12.42,12.42,0,0,0,3.844.757c1.892.188,3.794.291,5.693.379,4.273.2,8.557.3,12.834.256,2.572-.029,2.579-4.029,0-4-4.092.047-8.189-.052-12.277-.231-1.882-.083-3.765-.182-5.642-.348q-.54-.047-1.08-.105c-.174-.019-.348-.04-.521-.061-.275-.033.369.062-.012,0-.25-.042-.5-.076-.749-.134-.221-.051-.791-.282-.071.035a2.064,2.064,0,0,0-2.736.718,2.014,2.014,0,0,0,.717,2.736Z"/><path class="b" d="M72.49,224.82c1.071,2.054,1.851,4.254,2.825,6.354a2.011,2.011,0,0,0,1.2.92,2.047,2.047,0,0,0,1.541-.2,2.017,2.017,0,0,0,.919-1.195,2.272,2.272,0,0,0-.2-1.541c-.974-2.1-1.754-4.3-2.825-6.355a2.016,2.016,0,0,0-2.736-.718,2.046,2.046,0,0,0-.718,2.737Z"/><path class="b" d="M66.615,223c-.71,3.967-1.425,7.938-2.278,11.877a2,2,0,1,0,3.857,1.064c.853-3.939,1.569-7.911,2.278-11.878a2.046,2.046,0,0,0-1.4-2.46,2.026,2.026,0,0,0-2.46,1.4Z"/><path class="d" d="M37.981,21.639A39.032,39.032,0,0,1,60.037,4.233C75-.08,94.253.88,103.887,16.077c5.048,7.963,6.152,17.659,2.939,29.105a4,4,0,0,1-1.08,4.839c-1.87,1.4-5.734.268-7.663-.28-10.193-2.9-18.194-2.688-28.691-2.2A70.74,70.74,0,0,0,53.14,49.752c-2.353.673-13.934,4.673-14.146-.589l-.814-1.516c-9.145-.6-3.98-18.931-1.559-23.591Q37.263,22.822,37.981,21.639Z"/><path class="b" d="M38.18,45.647A2.872,2.872,0,0,1,36.062,44.5a7.7,7.7,0,0,1-1.03-3.318,29.383,29.383,0,0,1,1.114-9.771,44.734,44.734,0,0,1,1.322-4.28c.1-.272.206-.542.311-.813a2.341,2.341,0,0,1,.2-.471c.342-.735.72-1.449,1.121-2.154a39.46,39.46,0,0,1,9.879-11.527c7.117-5.589,16.239-7.93,25.177-8.141,8.49-.2,17.337,1.889,23.677,7.837a27.944,27.944,0,0,1,7.856,13.322c1.56,5.993,1.045,12.26-.45,18.209-.627,2.5,3.229,3.563,3.857,1.064a42.407,42.407,0,0,0,.87-18.483A32.287,32.287,0,0,0,103,11.507C96.615,3.877,86.849.407,77.122.04,67.213-.335,56.56,1.911,48.367,7.665a40.142,40.142,0,0,0-15.821,21.72c-1.759,6.3-4.07,19.463,5.634,20.262,2.565.212,2.551-3.789,0-4Z"/><path class="b" d="M39.778,48.784a57.479,57.479,0,0,1,10.653-5.818,52.994,52.994,0,0,1,15.4-3.41c9.371-.716,19.4-.873,28.541,1.66.769.213,1.532.449,2.284.717.3.109.608.225.91.343.1.039.457.188.06.019.145.062.29.124.434.191A14.961,14.961,0,0,1,100.706,44a2.012,2.012,0,0,0,2.736-.717,2.046,2.046,0,0,0-.717-2.736,20.559,20.559,0,0,0-6.1-2.835,55.157,55.157,0,0,0-11.213-2.084,113.987,113.987,0,0,0-17.186-.221A61.614,61.614,0,0,0,50.94,38.522,59.945,59.945,0,0,0,37.759,45.33c-2.133,1.419-.132,4.885,2.019,3.454Z"/><path class="b" d="M36.994,49.163c.337,4.834,5.482,4.952,9.179,4.4,3.97-.6,7.719-2.111,11.66-2.854,6.775-1.276,13.879-1.42,20.758-1.451A70.282,70.282,0,0,1,98.05,51.811c2.669.745,6.215,1.645,8.7-.063,2.688-1.844,3.412-6.138,1.038-8.508-1.824-1.821-4.653,1.006-2.829,2.828a1.553,1.553,0,0,1,.01,1.808c-.462.845-1.292.846-2.178.81-2.339-.1-4.653-1.047-6.91-1.589a73.014,73.014,0,0,0-17.509-1.843,144.047,144.047,0,0,0-18.606,1.112,107.4,107.4,0,0,0-11.429,2.675,20.543,20.543,0,0,1-5.371.8c-.15,0-.3-.009-.449-.014-.036,0-.654-.072-.312-.019-.2-.031-1.089-.324-.787-.177-.126-.061-.243-.156-.37-.212q-.18-.122.082.057-.228-.247,0,.034c.023,0-.183-.278-.164-.287.063-.03.049.282.026-.058-.179-2.553-4.18-2.573-4,0Z"/><path class="b" d="M83.229,21.134a27.2,27.2,0,0,1,3.508-.083c.646.027,1.288.083,1.931.152l.2.025c-.155-.022-.161-.022-.018,0s.274.041.41.064q.513.085,1.022.2c.609.132,1.211.29,1.8.481.294.094.582.2.872.307.607.22-.154-.076.183.07.154.068.308.139.46.213a12.3,12.3,0,0,1,1.559.9c-.01-.007.418.3.278.192s.265.222.257.215c.248.214.483.442.71.678a2,2,0,0,0,2.828-2.828c-3.985-4.142-10.535-5.055-16.009-4.577a2.053,2.053,0,0,0-2,2,2.015,2.015,0,0,0,2,2Z"/><path class="b" d="M65.565,77.5a12.777,12.777,0,0,0,6.155,1.433,10.112,10.112,0,0,0,6.3-1.9,2,2,0,0,0,0-2.829,2.062,2.062,0,0,0-2.828,0c.685-.534-.069.017-.289.132-.17.089-.636.229-.024.031-.17.055-.335.128-.505.183-.215.069-.433.128-.654.179-.118.028-.7.061-.76.144.068-.095.392-.045-.012-.005-.138.014-.277.025-.416.034-.335.022-.67.031-1,.029q-.45,0-.9-.033c-.137-.009-.274-.02-.412-.034-.078-.008-.156-.016-.234-.026q-.234-.028.158.021a3.771,3.771,0,0,1-1.32-.293c-.185-.056-.366-.122-.548-.184-.463-.159.4.193-.019,0-.226-.107-.45-.218-.671-.335A2,2,0,0,0,65.565,77.5Z"/><path class="b" d="M70.493,63.272a27.862,27.862,0,0,1,.654,2.993l-.071-.532a1.84,1.84,0,0,1,.011.413l.072-.532a.973.973,0,0,1-.046.186l.2-.478a.7.7,0,0,1-.066.12l.313-.4a.636.636,0,0,1-.1.1l.405-.312a2.143,2.143,0,0,1-.237.125l.478-.2a1.7,1.7,0,0,1-.4.117l.532-.072a1.622,1.622,0,0,1-.375,0l.532.071c-.142-.019-.281-.054-.422-.073a1.523,1.523,0,0,0-.8-.036,1.49,1.49,0,0,0-.744.238,2,2,0,0,0-.718,2.736,1.914,1.914,0,0,0,1.2.919c.363.049.715.14,1.085.156a3.547,3.547,0,0,0,1.652-.4A2.485,2.485,0,0,0,75,66.774a3.886,3.886,0,0,0-.014-1.7c-.163-.964-.386-1.92-.634-2.865a2,2,0,0,0-2.46-1.4,2.021,2.021,0,0,0-1.2.919,2.1,2.1,0,0,0-.2,1.541Z"/><path class="b" d="M55.12,54.674c-.5,1.624-.174,5.36,2.9,5.678,4.066-.025,4.282-4.541,2.913-6.665C59.816,51.949,56.52,51.225,55.12,54.674Z"/><path class="b" d="M87.682,54.674c.5,1.624.174,5.36-2.9,5.678-4.066-.025-4.283-4.541-2.914-6.665C82.986,51.948,86.282,51.225,87.682,54.674Z"/></svg>