<?xml version="1.0" encoding="utf-8"?>
<!-- Uploaded to: SVG Repo, www.svgrepo.com, Generator: SVG Repo Mixer Tools -->
<svg width="800px" height="800px" viewBox="-133.24 0 442.616 442.616" xmlns="http://www.w3.org/2000/svg"><defs><style>.a{fill:#ffffff;}.b{fill:#211715;}.c{fill:none;}.d{fill:#f4b467;}</style></defs><path class="a" d="M61.951,96.269c.569-.194,9.92-4.568,10.116-4.639,2.956-1.067,2.839-2.968,3.212-5.095a40.246,40.246,0,0,0,.607-5.07,22.846,22.846,0,0,1-8.93-6.1c-2.83-10.671-4.4-21.934-3.337-33.268,0,0,0-.03.006-.087,3.015-.526,7.339-2.017,9.888-2.588a63.965,63.965,0,0,1,13.856-1.811,63.96,63.96,0,0,1,13.848,1.811c2.363.529,6.951,1.916,10.385,2.57l.009.105c1.1,11.659-.6,23.243-3.58,34.186a22.542,22.542,0,0,1-7.62,5.027,42.678,42.678,0,0,0,.639,6.013c.373,2.127.256,4.027,3.212,5.095.2.071,8.581,4.06,8.88,4.183,0,0-6.5,20.316-26.351,20.316S61.951,96.269,61.951,96.269Z"/><path class="b" d="M57.323,59.45A30.526,30.526,0,0,0,70.187,80.775a22.5,22.5,0,0,0,8.405,3.495c2.515.483,3.593-3.372,1.063-3.857a21.717,21.717,0,0,1-13.508-9.208,33.957,33.957,0,0,1-3.1-5.388c-.081-.176-.158-.354-.237-.532-.2-.434.164.412,0,0-.1-.257-.209-.512-.3-.772a21.867,21.867,0,0,1-1.186-5.064,2.059,2.059,0,0,0-2-2,2.014,2.014,0,0,0-2,2Z"/><path class="b" d="M114.552,59.45a21.92,21.92,0,0,1-1.187,5.064c-.093.26-.2.515-.3.772-.144.359.182-.407,0,0-.079.178-.156.356-.237.532a33.8,33.8,0,0,1-3.1,5.388,21.715,21.715,0,0,1-13.508,9.208c-2.526.484-1.456,4.34,1.063,3.857,8.982-1.722,15.807-9,19.313-17.151a26.246,26.246,0,0,0,1.957-7.669,2.014,2.014,0,0,0-2-2,2.045,2.045,0,0,0-2,2Z"/><path class="a" d="M122.628,42.693c-.843,3.785-.773,12.31-2.737,18.905-2.122,7.122-10.355,15.84-12.068,15.436,3.11-11.164,4.911-23.013,3.788-34.941l-.009-.105c-3.434-.654-8.022-2.041-10.385-2.57a63.96,63.96,0,0,0-13.848-1.811,63.965,63.965,0,0,0-13.856,1.811c-2.549.571-6.873,2.062-9.887,2.588,0,.058-.007.087-.007.087C62.5,54.021,64.3,65.87,67.408,77.034c-1.713.4-9.947-8.314-12.068-15.436C53.375,55,54.007,47.425,52.6,42.693h0C51.954,38.725,51,32.212,51.336,28.9,53.068,11.729,73.756,1.924,87.214,1.924c15.165,0,34.745,9.8,36.476,26.978.334,3.31.432,9.262-1.079,13.791Z"/><path class="a" d="M85.548,401.062c-.026,4.708.021,8.648,0,13.358a9.865,9.865,0,0,1-.413,3.4c-.968,2.617-4.082,4.987-6.386,6.563-5.993,4.1-8.9,10.474-15.184,14.121a16.212,16.212,0,0,1-14.987.537,9.436,9.436,0,0,1-3.419-2.625c-.11-.142-.213-.29-.31-.442a8.294,8.294,0,0,1-.549-6.95,22.736,22.736,0,0,1,3.567-6.223q5.163-7.052,10.913-13.647c1.494-1.714,2.707-5.5,3.23-9.052"/><path class="a" d="M92.269,401.062c.026,4.708-.021,8.648,0,13.358a9.889,9.889,0,0,0,.412,3.4c.968,2.617,4.083,4.987,6.387,6.563,5.992,4.1,8.9,10.474,15.184,14.121a16.212,16.212,0,0,0,14.987.537,9.444,9.444,0,0,0,3.419-2.625c.109-.142.213-.29.31-.442a8.294,8.294,0,0,0,.549-6.95,22.736,22.736,0,0,0-3.567-6.223q-5.163-7.052-10.913-13.647c-1.494-1.714-2.652-5.42-3.175-8.978"/><path class="b" d="M83.548,401.062c-.019,3.816.01,7.632,0,11.449,0,1.574.25,3.445-.417,4.919a10.548,10.548,0,0,1-2.986,3.425c-2.411,2.033-5.029,3.653-7.234,5.947s-4.146,4.8-6.448,6.986a16.8,16.8,0,0,1-7.89,4.511,13.945,13.945,0,0,1-9.344-1.167,6.454,6.454,0,0,1-2.861-2.514,6.347,6.347,0,0,1-.261-4.682c.967-3.417,3.633-6.385,5.742-9.157,2.568-3.375,5.27-6.639,8.03-9.857,2.456-2.864,3.489-6.624,4.055-10.292a2.064,2.064,0,0,0-1.4-2.46,2.015,2.015,0,0,0-2.46,1.4,29.052,29.052,0,0,1-1.388,5.6,12.717,12.717,0,0,1-2.564,4q-4.16,4.86-8.015,9.969c-2.363,3.12-5.137,6.407-6.007,10.323a9.524,9.524,0,0,0,3.231,9.908c5.92,4.595,14.784,4.094,20.738-.105a44.576,44.576,0,0,0,7.482-7.234c1.14-1.291,2.3-2.573,3.551-3.753a45.625,45.625,0,0,1,4.1-3.2c3.37-2.515,6.173-5.364,6.323-9.788.161-4.732-.012-9.487.011-14.221.013-2.575-3.987-2.578-4,0Z"/><path class="b" d="M90.269,401.062c.021,4.131-.014,8.262,0,12.394A10.577,10.577,0,0,0,94.4,423.3c1.306,1.16,2.748,2.127,4.156,3.155a28.218,28.218,0,0,1,3.787,3.453c2.35,2.486,4.45,5.217,7.028,7.482a19.738,19.738,0,0,0,9.595,4.92,18.541,18.541,0,0,0,10.927-1.374c3.467-1.591,5.891-4.448,6.118-8.343.228-3.916-1.866-7.415-4.078-10.462q-4.158-5.73-8.715-11.161c-1.326-1.585-2.89-3.044-3.741-4.955a25.144,25.144,0,0,1-1.681-6.374,2.015,2.015,0,0,0-2.46-1.4,2.05,2.05,0,0,0-1.4,2.46c.511,3.311,1.361,6.97,3.5,9.637,2.33,2.9,4.811,5.668,7.105,8.6,2.264,2.891,4.779,5.846,6.436,9.143,1.315,2.618,1.669,6.01-.82,8.05-5.032,4.123-12.7,2.784-17.382-1.074a60.022,60.022,0,0,1-6.322-6.571,43.608,43.608,0,0,0-7.237-6.435,18.809,18.809,0,0,1-3.631-3.232c-1.232-1.5-1.313-3.006-1.32-4.886-.018-4.291.023-8.582,0-12.873-.013-2.574-4.013-2.579-4,0Z"/><path class="a" d="M54.119,191.958c-9.664,32.807-3.01,82.71-.64,113.01,2.47,31.55,3.987,62.988,6.457,94.538,1.46.14,3.863.372,5.243.472a1.927,1.927,0,0,0,.24.01,134.907,134.907,0,0,0,17.76.2,1.77,1.77,0,0,0,.23-.01c1.7-.091,3.457-.2,5.285-.371a155.04,155.04,0,0,0,29.02-.195c2.468-31.549,3.85-63.1,6.319-94.648,2.379-30.419,8.126-81.976-.808-112.765"/><path class="b" d="M87.586,238.332c-.392,4.285-.34,8.633-.384,12.931-.069,6.806-.065,13.614-.046,20.421.032,11.829.179,23.658.188,35.487.009,9.924-.032,19.849-.052,29.773q-.041,20.005-.052,40.01,0,7.534.025,15.069c.011,2.482-.087,5,.088,7.481a2.216,2.216,0,0,0,.613,1.663,2.063,2.063,0,0,0,2.829,0,2.014,2.014,0,0,0,0-2.829c-.2-.162.876,1.153.571,1.35a.572.572,0,0,0-.008-.1,3.281,3.281,0,0,0-.016-.343c-.006-.393-.02-.787-.027-1.18-.022-1.355-.031-2.71-.039-4.065q-.043-6.98-.035-13.958-.011-19.586.043-39.172.032-15.923.06-31.846c.007-10.752-.126-21.5-.171-32.256-.05-12.117-.318-24.3.279-36.408.033-.678.072-1.356.134-2.032a2.016,2.016,0,0,0-2-2,2.043,2.043,0,0,0-2,2Z"/><path class="b" d="M87.409,397.918a157.857,157.857,0,0,1-27.473-.412l2,2c-2.483-31.791-3.988-63.651-6.529-95.437-1.917-24-4.715-47.948-4.337-72.062.208-13.267,1.237-26.729,4.977-39.517.724-2.476-3.135-3.533-3.857-1.063-3.355,11.474-4.562,23.537-4.989,35.446a369.162,369.162,0,0,0,.954,38.6c.8,11.643,1.954,23.256,2.945,34.884,1.276,14.954,2.213,29.938,3.166,44.915,1.151,18.082,2.259,36.167,3.67,54.231a2.068,2.068,0,0,0,2,2,157.857,157.857,0,0,0,27.473.412c2.549-.2,2.571-4.2,0-4Z"/><path class="b" d="M121.3,192.731c3.16,10.97,4.177,22.483,4.58,33.85.452,12.709.019,25.44-.737,38.128-.693,11.623-1.707,23.221-2.667,34.824-1.248,15.079-2.213,30.181-3.142,45.283-1.122,18.271-2.191,36.546-3.616,54.8l2-2a161.55,161.55,0,0,1-27.611.307c-2.568-.191-2.555,3.809,0,4a161.55,161.55,0,0,0,27.611-.307,2.066,2.066,0,0,0,2-2c2.515-32.214,3.892-64.5,6.483-96.713,1.94-24.12,4.309-48.269,3.788-72.5-.279-12.962-1.227-26.22-4.832-38.734-.711-2.469-4.572-1.419-3.857,1.064Z"/><path class="b" d="M73.859,81.921a38.99,38.99,0,0,1-.484,3.944,23.73,23.73,0,0,1-.44,2.458c-.047.167-.288.625-.05.215-.087.148-.169.3-.254.453-.134.239.234-.238.034-.039-.057.057-.108.119-.164.176-.079.077-.163.154-.249.223.231-.185.008-.019-.119.052-.431.245-.809.377-1.351.624-2.343,1.065-4.67,2.166-7.008,3.242q-.906.417-1.814.829l-.649.289c-.447.2.51-.19.108-.047a2.053,2.053,0,0,0-1.4,2.461,2.017,2.017,0,0,0,2.461,1.4c.965-.345,1.9-.827,2.83-1.254q2.156-.99,4.308-1.99,1.589-.738,3.18-1.472c.083-.039.174-.071.255-.115.014-.008-.734.3-.347.151.189-.07.374-.15.559-.23a6.846,6.846,0,0,0,.967-.479A5.8,5.8,0,0,0,76.6,89.944a13.045,13.045,0,0,0,.58-2.714c.291-1.763.558-3.525.679-5.309a2,2,0,0,0-4,0Z"/><path class="b" d="M98.435,81.921a55.317,55.317,0,0,0,.959,7.628,6.194,6.194,0,0,0,4.11,4.707c.652.26-.545-.263-.081-.039.156.076.314.146.471.22.494.231.988.465,1.482.7l4.011,1.9c.912.431,1.817.895,2.746,1.291a2.068,2.068,0,0,0,2.736-.718,2.013,2.013,0,0,0-.718-2.736c-1.969-.84-3.885-1.831-5.82-2.746-.94-.445-1.875-.9-2.821-1.329-.577-.263-.922-.393-1.423-.674-.016-.009-.27-.19-.1-.059s-.092-.09-.131-.126c-.062-.056-.114-.12-.173-.178.054.053.2.336.023.03-.078-.131-.151-.265-.228-.4.232.4-.022-.071-.068-.228a23.793,23.793,0,0,1-.5-2.8,39.6,39.6,0,0,1-.471-4.442,2.043,2.043,0,0,0-2-2,2.018,2.018,0,0,0-2,2Z"/><path class="b" d="M81.226,69.857c1.718,1.682,4.4,2.206,6.71,2.2s4.993-.522,6.713-2.2a2,2,0,0,0-2.829-2.828c-.077.075-.4.337-.082.09s-.095.057-.194.118c-.137.084-.279.162-.423.234a2.544,2.544,0,0,0-.294.138c.131-.09.405-.154.095-.047a9.805,9.805,0,0,1-1.408.385c-.075.015-.6.083-.111.028-.144.016-.288.032-.433.044-.343.029-.689.042-1.034.043-.315,0-.631-.011-.946-.035-.175-.014-.348-.032-.522-.052.269.031.181.025-.034-.014a8.667,8.667,0,0,1-1.427-.377c-.188-.068-.375-.24.038.025-.075-.047-.168-.076-.247-.115-.16-.079-.317-.164-.469-.258-.115-.07-.222-.165-.339-.229.549.3.241.195.064.022a2,2,0,0,0-2.828,2.828Z"/><path class="b" d="M87.074,54.785a25.509,25.509,0,0,1,.6,2.728l-.071-.531a1.631,1.631,0,0,1,.01.376l.071-.532a.9.9,0,0,1-.041.17l.2-.478a.771.771,0,0,1-.06.109l.313-.405a.624.624,0,0,1-.09.088L88.409,56a1.941,1.941,0,0,1-.216.115l.478-.2a1.549,1.549,0,0,1-.364.106l.531-.071a1.5,1.5,0,0,1-.341,0l.531.072c-.129-.018-.255-.05-.384-.067a1.512,1.512,0,0,0-.8-.036,1.486,1.486,0,0,0-.744.237,2,2,0,0,0-.718,2.737l.313.405a2.009,2.009,0,0,0,.883.514c.346.047.683.133,1.036.149a3.407,3.407,0,0,0,1.595-.39,2.433,2.433,0,0,0,1.31-1.588,3.734,3.734,0,0,0-.013-1.643c-.149-.879-.352-1.75-.578-2.612a2,2,0,0,0-2.46-1.4,2.025,2.025,0,0,0-1.2.919,2.1,2.1,0,0,0-.2,1.541Z"/><path class="b" d="M72.216,46.816c-.481,1.565-.167,5.165,2.8,5.471,3.919-.023,4.127-4.375,2.808-6.422C76.741,44.19,73.566,43.493,72.216,46.816Z"/><path class="b" d="M103.658,46.816c.481,1.565.168,5.165-2.8,5.471-3.918-.023-4.127-4.376-2.808-6.422C99.133,44.19,102.308,43.493,103.658,46.816Z"/><path class="b" d="M109.611,42.093c1.057,11.628-.616,23.2-3.717,34.41a2.013,2.013,0,0,0,1.4,2.46c1.956.3,3.529-1.069,4.889-2.309a38.652,38.652,0,0,0,5.343-6.211,29.968,29.968,0,0,0,4.155-7.866,49.094,49.094,0,0,0,1.862-10.11,90.983,90.983,0,0,1,1.017-9.242c.535-2.511-3.32-3.583-3.857-1.063-1.452,6.806-.559,14.177-3.384,20.692a33.106,33.106,0,0,1-5.449,8.364,31.308,31.308,0,0,1-2.972,3.013,7.111,7.111,0,0,1-.885.661c-.09.056-.181.109-.273.16q-.31.153.111-.029a1.811,1.811,0,0,1-.213.067,1.3,1.3,0,0,1,.719.016l1.4,2.46c3.187-11.516,4.946-23.523,3.86-35.473a2.053,2.053,0,0,0-2-2,2.015,2.015,0,0,0-2,2Z"/><path class="b" d="M61.619,42.093c-1.085,11.95.673,23.957,3.861,35.473l1.4-2.46a1.306,1.306,0,0,1,.72-.016,1.811,1.811,0,0,1-.213-.067c.143-.111.317.192-.023-.047-.374-.262-.658-.438-.848-.6a26.719,26.719,0,0,1-2.729-2.686,35.5,35.5,0,0,1-5.437-7.921c-3.335-6.755-1.807-14.545-3.815-21.611-.7-2.472-4.563-1.422-3.857,1.063,1.09,3.836.977,7.946,1.428,11.883a31.2,31.2,0,0,0,3.434,11.909,40.626,40.626,0,0,0,6.345,8.5c1.546,1.593,3.625,3.822,6.059,3.448a2.019,2.019,0,0,0,1.4-2.46c-3.1-11.206-4.774-22.782-3.718-34.41a2.014,2.014,0,0,0-2-2,2.042,2.042,0,0,0-2,2Z"/><path class="b" d="M54.706,42.162c-.687-4.193-1.681-8.6-1.4-12.873a21.08,21.08,0,0,1,3.768-10.215C61.209,12.956,67.984,8.705,74.846,6.269A36.85,36.85,0,0,1,95.7,4.909C103.2,6.618,110.5,10.246,115.7,16a23.557,23.557,0,0,1,5.724,11.185,31.129,31.129,0,0,1-.743,14.981c-.79,2.456,3.071,3.508,3.857,1.063a35.543,35.543,0,0,0,1.076-14.976,26.463,26.463,0,0,0-4.63-12.008c-5.041-7.127-12.9-11.875-21.158-14.377a40.935,40.935,0,0,0-23.472-.282C68.442,3.876,60.63,8.233,55.383,14.7a26.454,26.454,0,0,0-5.86,12.727c-.771,5.219.483,10.657,1.326,15.8a2.015,2.015,0,0,0,2.46,1.4,2.048,2.048,0,0,0,1.4-2.46Z"/><path class="b" d="M113.978,32.4c-5.819-5.212-13.5-7.753-21.2-8.2a63.977,63.977,0,0,0-21.312,2.211,27.588,27.588,0,0,0-10.275,5.572c-1.967,1.666.874,4.483,2.829,2.829,4.913-4.16,11.18-5.543,17.44-6.273,6.41-.747,13.536-.957,19.72,1.132a29.07,29.07,0,0,1,9.968,5.562c1.912,1.713,4.751-1.107,2.828-2.829Z"/><path class="b" d="M60.27,43.97a8.71,8.71,0,0,0,4.362-.124c1.825-.359,3.616-.891,5.4-1.407a76.848,76.848,0,0,1,11.438-2.456c8.3-1.076,16.289.573,24.28,2.675,1.878.493,3.764.983,5.676,1.325,1.441.258,3.206.64,4.644.14,2.417-.839,1.378-4.7-1.063-3.857-.485.168.2.045-.176.064a7.585,7.585,0,0,1-.769,0,12.877,12.877,0,0,1-1.853-.253c-1.71-.321-3.4-.752-5.082-1.191-3.378-.883-6.73-1.755-10.174-2.351a58.637,58.637,0,0,0-25.826,1.432c-1.913.53-3.809,1.121-5.733,1.607a22.85,22.85,0,0,1-2.661.565c-.233.03-.615.044-.9.057a3.237,3.237,0,0,1-.394-.016c.321.024.068-.005-.1-.064-2.439-.841-3.487,3.021-1.063,3.857Z"/><path class="a" d="M86.825,53.784C82.492,54.117,74.9,54.952,70.7,55.3c-.776.065-3.969.508-4.434,1.149-1.167,1.612.444,9.167.889,11.5a18.481,18.481,0,0,0,3.686,8.035c3.41,4.2,11.312,6.44,16.5,6.44a29.264,29.264,0,0,0,10.159-1.992,20.243,20.243,0,0,0,7.873-5.482,15.425,15.425,0,0,0,3.389-8.167c.389-2.556,1-9.222,0-11.111-.371-.7-2.987-.772-3.762-.844C100.089,54.372,91.659,54.062,86.825,53.784Z"/><path class="b" d="M86.825,51.784c-4.615.36-9.217.879-13.826,1.312-2.931.275-8.22.023-8.977,3.707a16.107,16.107,0,0,0,.108,5.279c.242,1.842.568,3.668.923,5.492.911,4.674,2.927,9.164,6.829,12.074A26.744,26.744,0,0,0,84.561,84.24a28.361,28.361,0,0,0,15.208-2.62c4.843-2.284,8.887-6.27,10.356-11.51a37.455,37.455,0,0,0,1.155-11.774c-.113-2.015-.372-4.247-2.56-4.99-1.909-.648-4.26-.58-6.259-.722-5.207-.369-10.425-.544-15.636-.84-2.571-.146-2.563,3.854,0,4,4.118.234,8.239.4,12.357.632q2.842.163,5.679.4c.589.049,1.186.064,1.772.147a6.326,6.326,0,0,0,.912.2c.5-.024-.645-.515-.535-.569a1.539,1.539,0,0,1,.08.287c.574,2.777.156,6.548-.22,9.173a14.3,14.3,0,0,1-6.1,10.374,24.348,24.348,0,0,1-24.121,1.442,13.773,13.773,0,0,1-7.285-9.224,45.628,45.628,0,0,1-1.486-9.066c-.021-.389-.034-.779-.024-1.169,0-.154.009-.309.02-.463.053-.7-.042.345.039-.267a3.075,3.075,0,0,0,.092-.325c.116.228-.478.524-.433.587a6.851,6.851,0,0,1,.765-.231,29.814,29.814,0,0,1,4.826-.636c4.553-.429,9.1-.94,13.659-1.3C89.375,55.585,89.4,51.583,86.825,51.784Z"/><path class="a" d="M35.747,137.146a52.894,52.894,0,0,0,3.376-14.224c.428-5.619,3.628-14.642,6.57-17.387a20.9,20.9,0,0,1,4.012-3.185c6.206-3.374,11.767-6.308,18.221-9.218a67.935,67.935,0,0,1,2.122-7.459c4.287,1.345,14.827,9.581,15.168,9.934a29.489,29.489,0,0,1,2.493,6.244,30.032,30.032,0,0,1,2.5-6.244c.342-.353,10.881-8.589,15.168-9.934q.986,2.836,1.714,5.756A242.586,242.586,0,0,1,129.2,102.35a20.909,20.909,0,0,1,4.013,3.185c2.942,2.745,6.142,11.768,6.569,17.387.611,8.024,3.634,15.028,6.6,22.454h-21.3c-.865,5.5-1.7,10.749-2.373,15.324-.192,1.3,2.231,29.419,2.627,31.249l.055.254c-1.364,0-2.728,0-2.728,0H55.177s-.827,0-1.655,0l.055-.254c.4-1.83,2.819-29.952,2.627-31.249-.677-4.575-1.508-9.828-2.375-15.323h-21.3C33.635,142.6,34.752,139.881,35.747,137.146Z"/><path class="b" d="M127.26,191.417c-.022-.107-.035-.216-.055-.323-.061-.337.049.392.03.226-.012-.109-.028-.219-.041-.329q-.1-.885-.2-1.77c-.179-1.718-.341-3.437-.5-5.156q-.623-6.723-1.158-13.451c-.249-3.1-.584-6.227-.644-9.34a3.721,3.721,0,0,1,.1-1.118q.367-2.459.749-4.914.849-5.48,1.721-10.955c1.338-8.491,2.665-16.984,3.793-25.505a2.01,2.01,0,0,0-2-2,2.052,2.052,0,0,0-2,2c-1,7.517-2.167,15.011-3.345,22.5q-.873,5.555-1.748,11.109a75.355,75.355,0,0,0-1.269,8.489,73.166,73.166,0,0,0,.542,8.4q.529,6.743,1.144,13.478a88.279,88.279,0,0,0,1.022,9.717c.519,2.52,4.375,1.453,3.858-1.063Z"/><path class="b" d="M148.309,144.844a121.7,121.7,0,0,1-5.31-14.86c-1.141-4.462-1.18-9.076-2.395-13.519-1.023-3.744-2.412-7.748-4.744-10.9-2.876-3.883-7.4-5.929-11.563-8.118-5.3-2.789-10.685-5.4-16.194-7.748l.919,1.2q-.735-2.915-1.713-5.756a2.031,2.031,0,0,0-2.46-1.4,27.554,27.554,0,0,0-6.24,3.3c-2.213,1.434-4.36,2.97-6.469,4.551a24.643,24.643,0,0,0-3.394,2.664,10.892,10.892,0,0,0-1.654,3.293,27.8,27.8,0,0,0-1.285,3.652c-.635,2.5,3.222,3.56,3.857,1.063a26.421,26.421,0,0,1,1.17-3.369c.208-.512.423-1.023.668-1.519.081-.162.186-.322.254-.489.14-.342-.129.133-.113.118.31-.287.658-.537.989-.8.081-.063.405-.314.147-.115q.28-.216.563-.43.6-.459,1.21-.911c1.984-1.476,4-2.912,6.076-4.257,1-.65,2.017-1.281,3.063-1.857.415-.228.837-.443,1.261-.652a4.891,4.891,0,0,1,.96-.385l-2.46-1.4c.45,1.312.87,2.633,1.242,3.969a13.569,13.569,0,0,0,.572,2.026c.426.927,1.276,1.15,2.145,1.527q3.768,1.635,7.465,3.427c2.49,1.2,4.954,2.463,7.4,3.751a59.886,59.886,0,0,1,6.989,3.847c3.394,2.422,5.131,5.736,6.5,9.619a42.617,42.617,0,0,1,1.736,6.424c.436,2.379.512,4.8.96,7.186,1.171,6.222,3.657,12.078,5.994,17.928a2.063,2.063,0,0,0,2.461,1.4,2.014,2.014,0,0,0,1.4-2.461Z"/><path class="c" d="M122.224,134.949a62.41,62.41,0,0,1-.711,23.407c-1.4,5.926-2.035,24.531-1.072,31.054"/><path class="c" d="M55.023,134.949a62.431,62.431,0,0,0,.712,23.407c1.4,5.926,2.035,24.531,1.072,31.054"/><path class="b" d="M55.177,194.2h67.481c2.574,0,2.578-4,0-4H55.177c-2.574,0-2.578,4,0,4Z"/><path class="c" d="M52.49,179c15.288,0,59.363.054,70.776.054"/><path class="b" d="M85.583,101.617c0,10.621.056,21.242.088,31.862q.07,22.9.14,45.8c.012,3.979.032,7.959.032,11.938,0,2.574,4,2.579,4,0,0-10.148-.057-20.3-.088-30.444q-.07-23.1-.14-46.2c-.012-4.318-.031-8.636-.032-12.955,0-2.574-4-2.578-4,0Z"/><path class="b" d="M135.51,133.06a8.356,8.356,0,0,1,.888-.444l-.478.2a8.118,8.118,0,0,1,2-.541l-.531.072a8.021,8.021,0,0,1,2.071.005l-.532-.071c.119.017.238.036.356.058a2.153,2.153,0,0,0,1.542-.2,2,2,0,0,0,.717-2.737,1.964,1.964,0,0,0-1.195-.919,10.6,10.6,0,0,0-3.759-.024,9.371,9.371,0,0,0-3.1,1.147,2,2,0,0,0,2.019,3.453Z"/><path class="b" d="M55.505,192.48a74.457,74.457,0,0,0,.871-8.07Q57,177.7,57.537,170.984c.257-3.2.588-6.417.67-9.627a35.974,35.974,0,0,0-.834-6.205q-.837-5.431-1.7-10.858c-1.34-8.493-2.69-16.988-3.819-25.512a2.066,2.066,0,0,0-2-2c-.971,0-2.143.921-2,2,.994,7.51,2.143,15,3.317,22.483q.877,5.592,1.761,11.185.4,2.553.792,5.108.184,1.208.366,2.416c.074.493.122.764.126.885a77.441,77.441,0,0,1-.524,8.191q-.522,6.678-1.129,13.349c-.189,2.084-.382,4.167-.593,6.248-.073.71-.146,1.421-.229,2.13-.033.28-.137.912-.022.212-.023.143-.04.286-.069.428-.516,2.512,3.338,3.587,3.857,1.063Z"/><path class="b" d="M45.417,129.607a9.379,9.379,0,0,0-3.1-1.147,10.6,10.6,0,0,0-3.759.024,2.014,2.014,0,0,0-1.2.919,2,2,0,0,0,.717,2.737,2.25,2.25,0,0,0,1.541.2c.119-.022.238-.041.357-.058l-.532.071a8.021,8.021,0,0,1,2.071-.005l-.532-.072a8.114,8.114,0,0,1,2,.541l-.478-.2a8.452,8.452,0,0,1,.888.444,2,2,0,1,0,2.019-3.453Z"/><path class="b" d="M89.621,101.2a27.8,27.8,0,0,0-1.285-3.652,10.88,10.88,0,0,0-1.654-3.293,24.634,24.634,0,0,0-3.393-2.664c-2.11-1.581-4.257-3.117-6.47-4.551a27.568,27.568,0,0,0-6.239-3.3,2.037,2.037,0,0,0-2.46,1.4A72.52,72.52,0,0,0,66,92.6l.919-1.195c-4.632,2.1-9.174,4.376-13.663,6.764-3.889,2.068-7.938,4.1-10.511,7.826a34.585,34.585,0,0,0-4.439,10.47c-1.136,4.159-1.185,8.465-2.179,12.649a113.637,113.637,0,0,1-5.526,15.73,2.015,2.015,0,0,0,1.4,2.461,2.048,2.048,0,0,0,2.46-1.4,119.761,119.761,0,0,0,5.366-15.078c1.135-4.512,1.175-9.172,2.437-13.654.936-3.32,2.2-7.489,4.62-10a22.99,22.99,0,0,1,5.93-4.233c2.429-1.31,4.869-2.6,7.329-3.856,2.754-1.4,5.63-2.592,8.359-4.03,1.562-.823,1.573-2.407,1.992-3.984.436-1.642.937-3.263,1.489-4.869l-2.461,1.4A26.651,26.651,0,0,1,74.8,90.5c2.075,1.345,4.092,2.781,6.075,4.257q.565.42,1.125.846c.5.381.539.409.8.61.332.26.677.512.989.8-.435-.4,0,.089.141.371.245.5.461,1.007.668,1.519a26.475,26.475,0,0,1,1.17,3.369c.635,2.493,4.494,1.436,3.857-1.063Z"/><path class="a" d="M18.785,165.718c-6.074,9.91-12.647,21.017-16.507,26.869H2.25c-.3,0-.256,8.805.059,8.184,15.432-.007,76.632.45,85.781.45,9.05,0,84.175-.419,85.784-.419.286,0,.314-8.214.028-8.215-7.471-11.329-25.112-42.352-29.621-46.253-14.471,0-34.724-.235-52.327-.239-17.724,0-45.585.239-60.055.239C29.719,148.22,24.471,156.444,18.785,165.718Z"/><path class="d" d="M141.617,170.238a7.059,7.059,0,0,0-2.956-5.821,13.86,13.86,0,0,0-5.764-2.16,14.543,14.543,0,0,0-5.366.127c-.093.02-.181.055-.273.078-.2.038-.445.086-.715.139-.828-2.712-1.851-5.125-1.851-5.125a7.375,7.375,0,0,0-2.095-2.905,11.686,11.686,0,0,0-5.738-2.251,12.894,12.894,0,0,0-5.454.433,8.6,8.6,0,0,0-4.639,3.458,6.029,6.029,0,0,0-1.08,2.9s-.29,1.378-.518,3.142a14.537,14.537,0,0,0-5.333.129c-1.782-2.9-3.353-5.569-3.353-5.569a7.126,7.126,0,0,0-1.751-2.228A11.433,11.433,0,0,0,89,152.324a12.708,12.708,0,0,0-5.465.473,8.765,8.765,0,0,0-4.668,3.556A8.459,8.459,0,0,0,77.739,159s-.382,1.418-.892,3.289c-.062-.012-.125-.025-.188-.036a14.537,14.537,0,0,0-5.365.127c-.209.044-.416.1-.621.157-1.132-2.5-2.13-4.871-2.13-4.871a7.824,7.824,0,0,0-1.96-2.73,12.522,12.522,0,0,0-6.166-2.419,13.828,13.828,0,0,0-5.862.469,9.259,9.259,0,0,0-4.989,3.728c-.83,1.228-.978,1.819-1.372,5.683-.384-.066-.6-.066-.631.021-.268-.056-.535-.118-.8-.165a14.543,14.543,0,0,0-5.366.127c-.266.056-.528.13-.787.212a7.428,7.428,0,0,0-3.8,2.572,8.225,8.225,0,0,0-1.547,6.4c.5,1.574,2.2,2.4,3.775,2.892a18.809,18.809,0,0,0,5.864.717l11.585,1.943.434.073c4.13,1.182,11.842,4.161,15.524,4.423,5.945.424,7.263-2.714,13.212-3.08,4.63-.285,10.935-1.395,15.564-1.68,6.162-.379,10.153,3.088,16.228,1.947,4.016-.754,8.451-2.86,12.616-3.628a35.4,35.4,0,0,0,4.682-.252,15.43,15.43,0,0,0,3.446-.74C140.076,173.534,141.617,172.376,141.617,170.238Z"/><path class="a" d="M16.432,165.926c-1.982.517-4.6-1.946-4.973-7.478a20.268,20.268,0,0,1,1.842-9.325,20.8,20.8,0,0,1,4-5.115c3.66-3.018,5.845-2.751,11.105-2.638a17.32,17.32,0,0,1,6.985,1.868,8.985,8.985,0,0,1,4.719,8.573,2.656,2.656,0,0,1-1.568,2.389,3.127,3.127,0,0,1-1.6-.125q-5.52-1.438-10.92-3.3"/><path class="a" d="M159.471,165.863c1.982.517,4.6-1.946,4.974-7.478a20.271,20.271,0,0,0-1.843-9.325,20.791,20.791,0,0,0-4-5.115c-3.661-3.018-5.845-2.751-11.1-2.638a17.315,17.315,0,0,0-6.985,1.868,8.983,8.983,0,0,0-4.719,8.573,2.654,2.654,0,0,0,1.567,2.389,3.115,3.115,0,0,0,1.6-.125q5.521-1.439,10.92-3.3"/><path class="d" d="M107.742,176.052a7.488,7.488,0,0,1,4.429-2.729,14.516,14.516,0,0,1,5.365-.128,13.851,13.851,0,0,1,5.764,2.161,7.051,7.051,0,0,1,2.956,5.82c0,3.331-3.734,4.291-6.714,4.629a24.033,24.033,0,0,1-9.572-.462c-1.575-.495-3.277-1.319-3.775-2.892A8.226,8.226,0,0,1,107.742,176.052Z"/><path class="d" d="M79.21,176.722a7.491,7.491,0,0,1,4.429-2.729,14.521,14.521,0,0,1,5.366-.128,13.856,13.856,0,0,1,5.764,2.161,7.053,7.053,0,0,1,2.956,5.82c0,3.331-3.735,4.291-6.715,4.629a24.033,24.033,0,0,1-9.572-.462c-1.574-.5-3.276-1.319-3.774-2.892A8.22,8.22,0,0,1,79.21,176.722Z"/><path class="d" d="M49.98,176.722a7.494,7.494,0,0,1,4.429-2.729,14.521,14.521,0,0,1,5.366-.128,13.851,13.851,0,0,1,5.764,2.161,7.053,7.053,0,0,1,2.956,5.82c0,3.331-3.735,4.291-6.715,4.629a24.033,24.033,0,0,1-9.572-.462c-1.574-.5-3.276-1.319-3.774-2.892A8.22,8.22,0,0,1,49.98,176.722Z"/><path class="b" d="M17.086,164.6C11.6,173.558,6.354,182.691.578,191.469l1.727-.991c-2.918.01-2.244,4.824-2.225,6.685a31.614,31.614,0,0,0,.132,3.2,2.649,2.649,0,0,0,.675,1.746,2.055,2.055,0,0,0,3.176-.436l-1.727.99c13.882,0,27.764.116,41.645.2,13.861.085,27.721.193,41.582.244,9.209.034,18.419-.053,27.629-.1q21.842-.108,43.685-.227l14.284-.075c.888,0,1.793.04,2.68-.013,1.853-.109,2.127-1.61,2.216-3.1.1-1.631.093-3.275.057-4.907-.029-1.312.143-3.162-1.175-3.931l.717.717c-5.889-8.945-11.223-18.261-16.825-27.386-2.725-4.439-5.462-8.88-8.389-13.189-1.057-1.556-2.142-3.1-3.324-4.56a13.307,13.307,0,0,0-1.13-1.277c-1.162-1.107-2.729-.831-4.226-.833-16.305-.028-32.608-.226-48.913-.237-14.163-.009-28.326.1-42.489.176q-4.932.025-9.865.044c-2.8.01-5.643-.131-8.439.019-1.284.069-2.047,1.022-2.807,1.947-.855,1.04-1.652,2.13-2.427,3.231-2.175,3.089-4.2,6.286-6.2,9.487q-1.782,2.846-3.533,5.71c-1.35,2.2,2.108,4.212,3.453,2.018,2.536-4.133,5.085-8.263,7.767-12.3,1.512-2.278,2.987-4.852,5.034-6.675l-1.414.586c13.405,0,26.809-.113,40.214-.177q22.92-.111,45.838.05c8.776.057,17.553.126,26.33.127l-1.414-.586a16.132,16.132,0,0,1,1.616,1.8c.541.693,1.549,2.116,2.228,3.108,2.1,3.076,4.095,6.23,6.066,9.393,4.6,7.381,9.049,14.855,13.584,22.277q1.665,2.724,3.356,5.432.729,1.162,1.468,2.317a6.753,6.753,0,0,0,1.725,2.25l-.718-.717c-.22-.4-.252-.5-.142-.258-.07-.156-.029-.494-.029-.128,0,.311.038.627.049.939.03.845.036,1.691.033,2.536s-.015,1.691-.05,2.536c-.013.289-.043.58-.05.869-.007.325-.155.29.021-.059-.092.181-.2.344.14-.258l.718-.717-.017.009,1.009-.273c-7.826,0-15.653.081-23.479.122q-20.794.111-41.588.214c-8.073.039-16.147.107-24.22.073q-19.791-.081-39.581-.233c-13.53-.084-27.059-.185-40.588-.206-1.379,0-2.957-.278-3.853,1.014l1.195-.919-.017.006,1.946.514q.576,1.254.46.759c-.009-.037-.016-.074-.022-.112.162.193.031.475.022.068-.006-.281-.036-.563-.048-.844-.037-.862-.049-1.724-.052-2.587,0-.826,0-1.653.032-2.479.011-.311.04-.622.047-.933.009-.447-.056.15-.168.346l-.717.718.016-.01-1.009.273c1.377,0,1.967-1.3,2.611-2.305q.928-1.44,1.834-2.894,2.116-3.384,4.182-6.8c3.217-5.284,6.4-10.587,9.635-15.862C21.888,164.419,18.43,162.407,17.086,164.6Z"/><path class="a" d="M147.5,141.307a17.315,17.315,0,0,0-6.985,1.868,8.983,8.983,0,0,0-4.719,8.573,2.654,2.654,0,0,0,1.567,2.389,3.115,3.115,0,0,0,1.6-.125q5.521-1.439,10.92-3.3"/><path class="b" d="M158.94,167.792c5.464,1.193,7.452-6.079,7.534-10.1a19.693,19.693,0,0,0-6.46-15.163,12.727,12.727,0,0,0-6.775-3.144,28.833,28.833,0,0,0-7.981.149,15.306,15.306,0,0,0-7.965,3.536,10.806,10.806,0,0,0-3.556,7.941,5.473,5.473,0,0,0,2.036,4.556c1.72,1.151,3.747.376,5.556-.12q2.981-.816,5.924-1.757a26.825,26.825,0,0,0,2.709-.893l.45-.154c-.369.026-.424.037-.166.03-.452-.272.513.574.315.386,1.867,1.771,4.7-1.052,2.828-2.829a4.881,4.881,0,0,0-2.964-1.536,9.2,9.2,0,0,0-3.33.847c-2.786.909-5.6,1.749-8.437,2.48-.179.046-.619.265-.768.185.122.065.027-.126.012-.149a2.605,2.605,0,0,1-.164-1.229,6.143,6.143,0,0,1,.845-3.013,8.438,8.438,0,0,1,5.1-3.8,22.622,22.622,0,0,1,6.841-.773,10.145,10.145,0,0,1,4.6.756c3.8,1.86,6.118,5.911,6.979,9.9a14.308,14.308,0,0,1-.261,7.609,5.069,5.069,0,0,1-1.244,2.095c-.038.035-.536.4-.3.248.007,0-.556.179-.249.088q.228-.024-.072-.009.381.078.038,0c-2.509-.548-3.581,3.307-1.063,3.857Z"/><path class="a" d="M28.409,141.37a17.32,17.32,0,0,1,6.985,1.868,8.985,8.985,0,0,1,4.719,8.573,2.656,2.656,0,0,1-1.568,2.389,3.127,3.127,0,0,1-1.6-.125q-5.52-1.438-10.92-3.3"/><path class="b" d="M15.9,164c-.221.048.131.059-.11-.028-.065-.023-.333-.143-.039-.006a1.715,1.715,0,0,1-.341-.205,6.015,6.015,0,0,1-1.126-1.622,12.711,12.711,0,0,1-.762-6.452c.444-4.147,2.414-8.4,5.933-10.818a8.469,8.469,0,0,1,4.651-1.538,26.26,26.26,0,0,1,6.222.264,10.847,10.847,0,0,1,5.984,2.9,6.988,6.988,0,0,1,1.55,2.6c.244.761.643,2.3.139,3.035-.159.234-.477.038-.986-.095-.766-.2-1.53-.411-2.293-.625q-2.4-.677-4.782-1.431c-1.288-.409-2.767-1.194-4.131-1.231a4.725,4.725,0,0,0-3.3,1.556c-1.871,1.776.961,4.6,2.828,2.829-.371.352.513-.518.463-.388l-.148,0q.387.009-.165-.03a8.146,8.146,0,0,0,2.253.755q2.712.885,5.456,1.666c1.532.436,3.333,1.2,4.947,1.132a4.089,4.089,0,0,0,3.648-2.913c1-2.762.025-6.124-1.629-8.421a13.053,13.053,0,0,0-7.255-4.814,27.7,27.7,0,0,0-8.5-.794,12.581,12.581,0,0,0-6.7,1.91c-4.867,3.18-7.552,8.587-8.167,14.258a15.237,15.237,0,0,0,1.7,9.433c1.236,2.005,3.29,3.466,5.723,2.935,2.514-.549,1.45-4.406-1.064-3.857Z"/><path class="b" d="M173.615,191.442q-11.184,0-22.367.016l-40.008.04-45.833.047-39.979.041q-10.865.01-21.73.02H2.849c-2.574,0-2.578,4,0,4q9.441,0,18.88-.016l38.227-.039,45.73-.048,41.569-.041q12.5-.012,24.994-.02h1.366c2.573,0,2.578-4,0-4Z"/><path class="b" d="M109.156,177.466c2.115-2.644,5.765-2.827,8.867-2.143,2.844.628,6.175,2.176,6.241,5.548a1.825,1.825,0,0,1-1.155,1.958,9.9,9.9,0,0,1-3.381.955c-3.029.416-6.974.644-10.018-.647a3.39,3.39,0,0,1-1.44-.962,1.394,1.394,0,0,1-.21-.509c-.03-.089-.028-.357,0,.042-.01-.129-.021-.261-.019-.39a7.165,7.165,0,0,1,1.423-4.256,2.016,2.016,0,0,0-.718-2.737,2.045,2.045,0,0,0-2.736.718c-2.122,2.912-3.143,7.944.027,10.512,3.6,2.919,9.16,2.754,13.5,2.25,3.358-.389,7.785-1.455,8.575-5.351a8.473,8.473,0,0,0-1.377-6.353,11.109,11.109,0,0,0-5.656-4.074c-4.764-1.681-11.333-1.669-14.757,2.611a2.061,2.061,0,0,0,0,2.828A2.014,2.014,0,0,0,109.156,177.466Z"/><path class="b" d="M80.624,178.136c2.116-2.644,5.766-2.827,8.867-2.143,2.844.628,6.175,2.176,6.241,5.548a1.825,1.825,0,0,1-1.155,1.958,9.9,9.9,0,0,1-3.381.955c-3.028.416-6.973.644-10.018-.647a3.4,3.4,0,0,1-1.44-.962,1.375,1.375,0,0,1-.209-.509c-.031-.089-.029-.357.005.042-.011-.129-.021-.261-.02-.39a7.178,7.178,0,0,1,1.423-4.256A2.016,2.016,0,0,0,80.219,175a2.045,2.045,0,0,0-2.736.718c-2.122,2.912-3.143,7.944.027,10.512,3.6,2.919,9.16,2.754,13.5,2.25,3.359-.389,7.785-1.455,8.576-5.352a8.477,8.477,0,0,0-1.378-6.352,11.1,11.1,0,0,0-5.656-4.074c-4.763-1.681-11.332-1.669-14.756,2.611a2.061,2.061,0,0,0,0,2.828A2.013,2.013,0,0,0,80.624,178.136Z"/><path class="b" d="M51.394,178.136c2.116-2.644,5.766-2.827,8.867-2.143,2.844.628,6.175,2.176,6.241,5.548a1.825,1.825,0,0,1-1.155,1.958,9.9,9.9,0,0,1-3.381.955c-3.028.416-6.973.644-10.018-.647a3.387,3.387,0,0,1-1.439-.962,1.377,1.377,0,0,1-.21-.509c-.031-.089-.028-.357.005.042-.011-.129-.021-.261-.02-.39a7.178,7.178,0,0,1,1.423-4.256A2.015,2.015,0,0,0,50.99,175a2.046,2.046,0,0,0-2.737.718c-2.122,2.912-3.143,7.944.027,10.512,3.6,2.919,9.16,2.754,13.5,2.25,3.359-.389,7.785-1.455,8.576-5.352a8.472,8.472,0,0,0-1.378-6.352,11.1,11.1,0,0,0-5.655-4.074c-4.764-1.681-11.333-1.669-14.757,2.611a2.061,2.061,0,0,0,0,2.828A2.013,2.013,0,0,0,51.394,178.136Z"/><path class="b" d="M107.686,159.112a5.433,5.433,0,0,1,2.178-3.356,8.244,8.244,0,0,1,4.794-1.546,11.49,11.49,0,0,1,5.028.912,6.091,6.091,0,0,1,3.279,3.363,2.014,2.014,0,0,0,2.737.718,2.052,2.052,0,0,0,.717-2.737c-2.023-4.65-7.652-6.671-12.45-6.208a12.259,12.259,0,0,0-6.879,2.631,9.052,9.052,0,0,0-3.4,6.223c-.136,2.572,3.865,2.565,4,0Z"/><path class="b" d="M79.667,159.535c.645-3.111,3.445-4.9,6.435-5.258,3.164-.381,7.052.575,8.653,3.546,1.222,2.267,4.677.25,3.454-2.019-4.55-8.442-20.35-7.217-22.4,2.668a2.048,2.048,0,0,0,1.4,2.46,2.019,2.019,0,0,0,2.46-1.4Z"/><path class="b" d="M50.494,159.86a5.77,5.77,0,0,1,2.257-3.7,8.73,8.73,0,0,1,4.93-1.735,12.6,12.6,0,0,1,5.764.94,6.2,6.2,0,0,1,3.371,3.315,2.016,2.016,0,0,0,2.736.717,2.044,2.044,0,0,0,.718-2.736c-2.215-4.725-8.012-6.686-12.959-6.2-4.791.466-9.759,3.227-10.675,8.341a2.057,2.057,0,0,0,1.4,2.46,2.018,2.018,0,0,0,2.461-1.4Z"/><path class="b" d="M95.753,169.314a6.069,6.069,0,0,1,2.137-3.91,7.881,7.881,0,0,1,4.8-1.337c3.218-.048,7.684,1.017,8.946,4.381a2.057,2.057,0,0,0,2.46,1.4,2.016,2.016,0,0,0,1.4-2.461,9.893,9.893,0,0,0-5.156-5.639,17.662,17.662,0,0,0-8.009-1.668,11.575,11.575,0,0,0-7.262,2.5,10.322,10.322,0,0,0-3.308,6.739,2.01,2.01,0,0,0,2,2,2.051,2.051,0,0,0,2-2Z"/><path class="b" d="M123.751,168.137c1.057-3.131,3.937-4.1,7-4.071,2.686.028,6.259.835,7.915,3.15a4.9,4.9,0,0,1,.952,3.236,1.366,1.366,0,0,1-.394.873,3.032,3.032,0,0,1-1.068.73c-2.261,1.085-5.335,1.1-7.938,1.064-2.574-.035-2.576,3.965,0,4,4.919.066,13.457-.461,13.4-7.173-.059-7.467-8.774-10.526-15.035-9.743a9.957,9.957,0,0,0-8.695,6.87c-.826,2.444,3.036,3.493,3.857,1.064Z"/><path class="b" d="M67.171,169.675a6.357,6.357,0,0,1,2.232-4.3,8.257,8.257,0,0,1,5.113-1.305c3.343.034,7.66,1.262,8.722,4.828.734,2.462,4.595,1.414,3.858-1.063-1.6-5.378-7.357-7.706-12.58-7.765a12.091,12.091,0,0,0-7.338,2,9.911,9.911,0,0,0-3.865,6.543,2.067,2.067,0,0,0,1.4,2.461,2.016,2.016,0,0,0,2.461-1.4Z"/><path class="b" d="M56.447,165.964a11.406,11.406,0,0,0-7.552-5.3,15.631,15.631,0,0,0-9.683.326,9.645,9.645,0,0,0-5.619,6.671c-.585,2.4-.505,5.058,1.483,6.8,2.633,2.307,6.637,2.686,9.981,2.657,2.573-.023,2.579-4.023,0-4a17.93,17.93,0,0,1-4.688-.461c-.932-.242-2.352-.6-2.917-1.468-.085-.13-.2-.825-.16-.39a6.691,6.691,0,0,1,.027-1.47,6.9,6.9,0,0,1,1.214-2.992c1.693-2.214,4.948-2.544,7.52-2.185,2.7.376,5.563,1.317,6.94,3.828,1.238,2.258,4.693.241,3.454-2.019Z"/></svg>