<?xml version="1.0" encoding="utf-8"?>
<!-- Uploaded to: SVG Repo, www.svgrepo.com, Generator: SVG Repo Mixer Tools -->
<svg width="800px" height="800px" viewBox="-115.97 0 442.801 442.801" xmlns="http://www.w3.org/2000/svg"><defs><style>.a{fill:#ffffff;}.b{fill:#ad7b59;}.c{fill:#211715;}.d{fill:#645d5c;}.e{fill:#cfcfcf;}</style></defs><path class="a" d="M93.436,47.71a4.281,4.281,0,0,1,3.428-1,4.043,4.043,0,0,1,2.908,1.933,5.73,5.73,0,0,1,.6,2.3,17.148,17.148,0,0,1-1.748,9.084,10.887,10.887,0,0,1-2.816,3.7,7.226,7.226,0,0,1-3.359,1.514l-.575.09c-.275,1.031-.585,1.9-.737,2.36C90.125,70.432,84.3,80.168,77.08,83.2a38.351,38.351,0,0,0,.609,6.722c.344,1.967.236,3.725,2.971,4.713.181.065,3.259,1.266,3.536,1.38,0,0-5.566,9.606-20.011,9.606S46.79,95.3,46.79,95.3c.527-.179,1.8-.6,1.981-.663,2.735-.988,2.627-2.746,2.972-4.713a38.213,38.213,0,0,0,.607-6.74,24.761,24.761,0,0,1-8.768-6.938A29.145,29.145,0,0,1,38.028,65.4l-1.095-.168a7.218,7.218,0,0,1-3.358-1.514,10.878,10.878,0,0,1-2.817-3.7,17.138,17.138,0,0,1-1.747-9.084,5.713,5.713,0,0,1,.6-2.3,4.045,4.045,0,0,1,2.909-1.933,4.28,4.28,0,0,1,3.427,1S35.519,27.4,63.741,27.4,93.436,47.71,93.436,47.71Z"/><path class="b" d="M30.584,72.625c.07,2.773.759,5.612.9,8.384.13,2.808-1.039,6.035-3.717,6.945-1.569,2.528,12.011,7.874,20.075,1.209l3.447.475a38.567,38.567,0,0,0,.614-6.655,25.113,25.113,0,0,1-8.332-6.737A29.145,29.145,0,0,1,38.013,65.4l-1.095-.168a7.227,7.227,0,0,1-3.358-1.514,8.677,8.677,0,0,1-.831-.769,15.65,15.65,0,0,0-1.968,5.985,26.013,26.013,0,0,0-.18,3.547Z"/><path class="c" d="M31,61.943c-2.391,4.225-2.755,9.117-2.137,13.853.294,2.249.942,4.723.5,6.987a5.507,5.507,0,0,1-.9,2.239,4.582,4.582,0,0,1-1.715,1.2,2.765,2.765,0,0,0-.659,3.75,6.355,6.355,0,0,0,2.455,2.166,19.734,19.734,0,0,0,8.864,2.229,17.693,17.693,0,0,0,11.839-3.8,2.013,2.013,0,0,0,0-2.828,2.047,2.047,0,0,0-2.829,0c-3.091,2.486-7.464,3.067-11.284,2.405a15.234,15.234,0,0,1-4.393-1.368,9.175,9.175,0,0,1-.821-.491c-.161-.108-.275-.23-.061-.039-.093-.083-.184-.165-.272-.253-.3-.3.046-.027.019.054-.007.024-.171-.492-.057-.055a1.458,1.458,0,0,1-.065.961l-1.195.919c4.587-1.746,5.524-6.615,4.992-11-.616-5.079-1.481-10.238,1.169-14.922,1.27-2.244-2.184-4.262-3.453-2.019Z"/><path class="c" d="M94.85,49.124a2.209,2.209,0,0,1,3.125.412,4.723,4.723,0,0,1,.452,2.4,14.36,14.36,0,0,1-.2,2.951c-.64,3.507-2.41,7.718-6.309,8.417a2.017,2.017,0,0,0-1.4,2.46,2.043,2.043,0,0,0,2.46,1.4c6.05-1.085,8.938-7.91,9.394-13.394.235-2.838-.011-6.052-2.463-7.886a6.318,6.318,0,0,0-7.889.411,2.016,2.016,0,0,0,0,2.829,2.043,2.043,0,0,0,2.828,0Z"/><path class="c" d="M90.4,62.047a16.047,16.047,0,0,1-.938,4.335c-.062.191-.491,1.317-.223.708q-.2.457-.426.905a36.7,36.7,0,0,1-3.166,5.09c-2.743,3.762-6.471,7.751-11.168,8.854-2.505.587-1.445,4.445,1.063,3.857,5.671-1.331,10.068-5.964,13.4-10.481C91.828,71.417,94.2,67,94.4,62.047c.1-2.575-3.9-2.57-4,0Z"/><path class="c" d="M37.36,46.3a6.32,6.32,0,0,0-7.89-.411c-2.454,1.828-2.7,5.053-2.463,7.886.456,5.483,3.344,12.31,9.394,13.394a2.057,2.057,0,0,0,2.461-1.4,2.018,2.018,0,0,0-1.4-2.46c-3.9-.7-5.67-4.91-6.31-8.417a14.268,14.268,0,0,1-.2-2.785,5.5,5.5,0,0,1,.384-2.455,2.193,2.193,0,0,1,3.2-.526,2.057,2.057,0,0,0,2.829,0,2.018,2.018,0,0,0,0-2.829Z"/><path class="c" d="M35.177,61.824A33.4,33.4,0,0,0,42.3,77.814c4.012,4.75,9.324,8.171,15.577,8.846a2.012,2.012,0,0,0,2-2,2.045,2.045,0,0,0-2-2c-5.3-.572-9.723-3.983-13.011-7.989-3.25-3.96-4.959-8.923-5.83-13.91a2.016,2.016,0,0,0-2.46-1.4,2.044,2.044,0,0,0-1.4,2.46Z"/><path class="c" d="M50.348,83.809c-.016.806-.055,1.611-.122,2.414q-.045.546-.107,1.092c-.02.181-.042.363-.065.544-.018.141-.018.145,0,.013l-.031.217c-.161,1.085-.283,2.214-.549,3.28-.025.1-.051.2-.081.294s-.192.361-.022.1c.218-.333-.257.383-.24.405-.031-.041.34-.362.035-.058-.08.079-.159.157-.24.234-.309.3.343-.185-.062.036-.118.065-.23.139-.35.2s-.347.157-.093.057c-.094.037-.185.069-.28.1-.166.059-.333.113-.5.168-.461.154-.922.306-1.382.462a2,2,0,0,0,1.063,3.857A20.691,20.691,0,0,0,50.607,96a5.521,5.521,0,0,0,2.624-3.214,21.621,21.621,0,0,0,.617-3.414,43.179,43.179,0,0,0,.5-5.561,2,2,0,0,0-4,0Z"/><path class="c" d="M75.083,83.809a49.863,49.863,0,0,0,.724,6.926,7.61,7.61,0,0,0,1.53,4.092,8.378,8.378,0,0,0,3.552,2.032c.926.36,1.855.712,2.775,1.086a2,2,0,0,0,2.46-1.4,2.06,2.06,0,0,0-1.4-2.46c-.814-.331-1.635-.642-2.453-.961-.345-.134-.69-.27-1.037-.4-.078-.03-.159-.057-.237-.089.338.139-.2-.117-.266-.154-.113-.065-.537-.421-.175-.089-.1-.1-.2-.2-.306-.293-.3-.286.181.337-.009-.014-.061-.112-.125-.223-.187-.334-.185-.329.109.423-.007-.052-.035-.144-.084-.286-.118-.432-.133-.572-.2-1.158-.292-1.737a39.435,39.435,0,0,1-.558-5.723,2,2,0,0,0-4,0Z"/><path class="a" d="M98.247,181.038c-.313-1.958-.617-3.9-.9-5.756-1.068-7.037-1.828-12.947-1.6-14.509.686-4.632,1.4-8.879,2.093-12.863,2.094,2.757,4.283,5.681,4.644,6.323,1.6,2.841,3.147,8.5,4.235,10.422a26.718,26.718,0,0,0,4.76,5.46l6.284-1.163,8.3-26.667-4.46-3.537a53.972,53.972,0,0,0-2.218-6.376c-1.608-6.841-3.17-13.462-4.158-17.25a22.371,22.371,0,0,0-3.707-8,13.99,13.99,0,0,0-1.9-1.3l-.9-.487a37.054,37.054,0,0,0-3.364-1.791,216.175,216.175,0,0,0-20.75-10.2,21.718,21.718,0,0,0-4.552-6.266,43.383,43.383,0,0,1-12.523,8.728c-.259.118-.548.261-.632.533H62.634c-.084-.272-.373-.415-.632-.533a43.383,43.383,0,0,1-12.523-8.728,22.588,22.588,0,0,0-5.06,7.337c-6.613,2.895-12.08,5.768-18.252,9.125a28.331,28.331,0,0,0-4,2.258,14.388,14.388,0,0,0-1.927,1.322,22.371,22.371,0,0,0-3.707,8c-.988,3.788-3.923,16.924-5.039,21.48-.719,2.935-3.511,15.9-4.854,20.818-.4,1.48-.822,3.456-.075,3.68,1.643.784,17.928,2.091,21,2.091,0,0,3.892.035,7.622.061-.206,2.7-.843,7.092-1.736,12.869-.191,1.242-.518,3.556-.927,5.445"/><path class="a" d="M89.9,315.406c2.428,19.3-1.573,38.742-3.973,58.046-1.636,13.157-1.915,28.213,7.389,37.658,1.994,1.989,2.734,6.528,1.307,8.789-2.164,3.428-7.037,1.59-10.543-.009-4.228-1.927-8.276-4.261-12.518-6.157-2.677-1.2-4.323-2.607-7.384-2.106-2.486.408-4.095,1.935-6.172,3.444-4.2,3.049-8.676,5.929-14.05,5.717-3.914-.154-9.309-4.466-6.4-8.7,1.11-1.614,3.007-2.488,4.2-4.21a27.606,27.606,0,0,0,3.2-6.229c3.294-8.928,2.661-18.929,1.508-28.2-2.4-19.3-6.4-38.745-3.973-58.046"/><path class="c" d="M40.5,315.406c-1.739,14.142-.1,28.353,1.835,42.385.907,6.58,1.967,13.156,2.591,19.771a66.932,66.932,0,0,1-.107,16.5c-.9,5.8-3.007,11.365-7.149,15.634-1.794,1.848,1.032,4.68,2.828,2.828,8.1-8.345,9.381-20.458,8.7-31.544-.407-6.585-1.444-13.128-2.361-19.656-.993-7.067-1.98-14.14-2.562-21.255a121.075,121.075,0,0,1,.228-24.663,2.01,2.01,0,0,0-2-2,2.05,2.05,0,0,0-2,2Z"/><path class="c" d="M64.052,315.025c-.005,25.283.083,50.568-.337,75.848Q63.532,401.936,63.2,413c-.08,2.574,3.92,2.572,4,0,.81-26.1.847-52.207.853-78.314q0-9.828,0-19.656c0-2.573-4-2.578-4,0Z"/><path class="c" d="M87.9,315.406c1.786,14.517.017,29.1-1.994,43.5-1.7,12.141-4.183,24.7-2.062,36.952A31.315,31.315,0,0,0,91.9,412.524c1.8,1.851,4.623-.979,2.828-2.828-7.659-7.894-8.213-19.688-7.433-30.049,1.023-13.578,3.868-26.961,4.908-40.546a119.352,119.352,0,0,0-.3-23.695,2.063,2.063,0,0,0-2-2,2.011,2.011,0,0,0-2,2Z"/><path class="b" d="M31.429,183.084c-.123,2.3-1.071,12.117-.851,15.26-5.485,31.082-3.617,113.7-3.407,116.588,15.529,2.671,70.048,2.078,79.234-.071.152-2.05,0-85.287-5.482-116.369-.444-4.223-.593-12.445-.986-15.15"/><path class="c" d="M29.429,183.084c-.267,4.743-.915,9.481-.883,14.237,0,.2,0,.4.011.595.038.5.062-.109.027.274-.041.453-.154.91-.225,1.36q-.221,1.392-.41,2.788-.441,3.222-.775,6.455c-1.049,10.115-1.534,20.289-1.882,30.449-.378,11.053-.539,22.112-.583,33.171q-.057,13.961.141,27.92c.067,4.722.037,9.473.3,14.19.008.136.011.273.021.409a2.042,2.042,0,0,0,1.468,1.929,116.808,116.808,0,0,0,13.323,1.268c6.058.324,12.126.47,18.191.54,12.214.142,24.458.038,36.655-.642a72.491,72.491,0,0,0,12.128-1.238,2.042,2.042,0,0,0,1.469-1.928c.257-3.738.031-7.566.006-11.308q-.088-12.9-.378-25.789c-.237-10.794-.569-21.587-1.058-32.372-.473-10.4-1.066-20.811-2.052-31.181-.406-4.28-.886-8.555-1.516-12.808-.326-2.2-.592-3.83-.73-6.013-.191-3.042-.291-6.09-.482-9.132-.073-1.155-.171-2.3-.329-3.448a2.011,2.011,0,0,0-2.46-1.4,2.053,2.053,0,0,0-1.4,2.46c-.053-.381.006.083.018.218.025.27.051.539.073.809.052.651.093,1.3.131,1.955.088,1.516.157,3.033.231,4.55a69.614,69.614,0,0,0,.647,8.277c.677,3.977,1.1,7.519,1.525,11.618,1.046,10.059,1.663,20.162,2.16,30.261.534,10.869.895,21.746,1.157,32.625q.326,13.478.441,26.96.038,4.428.046,8.854c0,1.5-.105,3.026-.022,4.52a2.979,2.979,0,0,1-.011.34l1.468-1.929c-.548.126-1.1.216-1.658.3-.145.023-.7.1-.11.019l-.483.062q-.639.077-1.281.145c-2.022.211-4.052.356-6.082.481-5.43.334-10.87.507-16.308.623-12.553.266-25.134.252-37.678-.322-2.829-.129-5.657-.291-8.479-.529-1.185-.1-2.368-.213-3.548-.35l-.708-.086c-.589-.071.075.016-.39-.05-.483-.069-.965-.142-1.445-.224l1.468,1.928c-.277-3.957-.217-7.962-.281-11.926q-.213-13.335-.192-26.673c.015-10.985.142-21.971.463-32.951.3-10.427.75-20.864,1.69-31.255.375-4.141.8-8.011,1.429-11.908a61.658,61.658,0,0,0,.385-6.568c.147-2.682.366-5.358.578-8.035.067-.843.138-1.687.186-2.532.144-2.572-3.856-2.563-4,0Z"/><path class="d" d="M24.84,436.563q-.165-.216-.312-.446a8.358,8.358,0,0,1-.554-7.006,22.942,22.942,0,0,1,3.6-6.273q5.2-7.107,11-13.756c1.506-1.727,3.209-3.528,5.461-3.953-.364,1.357-.909,4.71.288,5.446s3.021.735,4.426.76c6.152.106,12.726-4.3,16.14-7.381.233-.21.667.084.67.418.031,3.963.364,5.676.344,10.055a10.106,10.106,0,0,1-.762,3.39c-.976,2.639-3.869,3.91-6.191,5.5-6.041,4.134-9.222,11.675-15.552,15.351a16.344,16.344,0,0,1-15.108.542A9.545,9.545,0,0,1,24.84,436.563Z"/><path class="d" d="M108.064,436.563q.165-.216.312-.446a8.362,8.362,0,0,0,.553-7.006,22.939,22.939,0,0,0-3.595-6.273q-5.2-7.107-11-13.756c-1.506-1.727-3.209-3.528-5.461-3.953.364,1.357.978,4.969-.218,5.706s-3.168.709-4.573.734c-6.1.1-12.553-4.492-15.975-7.536-.265-.236-.755-.058-.759.246-.046,3.985-.517,5.4-.5,9.815a12.272,12.272,0,0,0,.916,3.723c.976,2.639,3.869,3.91,6.191,5.5C80,427.45,83.18,434.991,89.509,438.667a16.344,16.344,0,0,0,15.108.542A9.548,9.548,0,0,0,108.064,436.563Z"/><path class="c" d="M26.567,435.553c-1.632-2.229-1.232-5.047-.048-7.4a52.076,52.076,0,0,1,5.49-7.93q3.032-3.954,6.267-7.746c1.712-2.014,3.553-4.809,6.287-5.423L42.1,404.6c-.52,2.026-1.029,4.857.2,6.726,1.58,2.392,5.881,2.2,8.37,1.905,5.866-.7,11.281-3.988,15.623-7.86l-.883.514.2-.07H64.556l.219.075-.883-.514.176.177-.515-.882a11.679,11.679,0,0,1,.084,2.59c.042.882.1,1.764.146,2.645.106,1.994.392,4.2-.159,6.138a6.715,6.715,0,0,1-3.267,4,39.993,39.993,0,0,0-4.695,3.312c-5.59,4.871-9.015,12.974-16.7,14.981-4.211,1.1-9.812.374-12.7-3.188a2.012,2.012,0,0,0-2.828,0,2.046,2.046,0,0,0,0,2.828c2.178,2.683,5.787,4.12,9.133,4.6a18.708,18.708,0,0,0,10.592-1.535c5.881-2.721,9.185-8.573,13.5-13.088a21.378,21.378,0,0,1,3.453-3.012c1.239-.836,2.544-1.563,3.734-2.471,3.06-2.334,4.107-5.654,4.057-9.413-.02-1.492-.1-2.98-.185-4.469-.087-1.532.152-3.4-.261-4.869a2.52,2.52,0,0,0-1.718-1.729,2.663,2.663,0,0,0-2.588.839,34.391,34.391,0,0,1-3.283,2.492c-3.042,2.015-6.623,3.851-10.342,4a18.447,18.447,0,0,1-2.67-.063,9.156,9.156,0,0,1-1.1-.217c-.777-.179.005-.207-.066.145.1-.512-.1-1.28-.039-1.86a11.842,11.842,0,0,1,.32-1.669A2.023,2.023,0,0,0,43.5,403.2c-3.455.778-5.719,3.713-7.9,6.271q-3.795,4.455-7.336,9.116c-3.858,5.058-9.873,12.535-5.153,18.985a2.059,2.059,0,0,0,2.736.718A2.016,2.016,0,0,0,26.567,435.553Z"/><path class="c" d="M109.791,437.572c4.721-6.451-1.3-13.928-5.153-18.985q-3.549-4.653-7.336-9.116c-2.179-2.558-4.443-5.493-7.9-6.271a2.023,2.023,0,0,0-2.46,2.461,10.132,10.132,0,0,1,.406,3.3,2.313,2.313,0,0,1-.08.511c-.144-.065.851-.388.083-.219a11.622,11.622,0,0,1-2.225.3,17.717,17.717,0,0,1-9.378-2.487,35.348,35.348,0,0,1-4.132-2.709c-1.061-.805-2.314-2.415-3.742-2.425-2.405-.016-2.493,2.176-2.574,3.971-.065,1.417-.215,2.827-.319,4.242-.243,3.335-.278,7,1.692,9.9,1.823,2.676,4.906,3.794,7.322,5.79,4.955,4.1,7.962,10.053,13.277,13.78a18.065,18.065,0,0,0,11.336,3.158c3.912-.239,8.318-1.65,10.868-4.791a2.059,2.059,0,0,0,0-2.828,2.015,2.015,0,0,0-2.829,0c-2.55,3.141-7.351,4.09-11.192,3.508-4-.607-7.119-2.91-9.79-5.828-2.61-2.85-4.811-6.066-7.618-8.736a29.422,29.422,0,0,0-4.739-3.567c-1.342-.84-2.928-1.734-3.615-3.241-1-2.191-.893-4.467-.735-6.81.06-.9.149-1.8.22-2.7.041-.5.077-1.006.1-1.509a6.42,6.42,0,0,1,.074-1.654l-.919,1.195.2-.126-1.009.274.247-.025-1.009-.273a7.144,7.144,0,0,1,1.243.993q.873.705,1.776,1.373a35.93,35.93,0,0,0,3.673,2.4,23.115,23.115,0,0,0,8.992,3.082c2.4.242,6.606.412,8.1-1.911,1.253-1.944.686-4.9.148-6.993l-2.461,2.461c2.67.6,4.458,3.275,6.133,5.242q3.307,3.883,6.422,7.927a54.253,54.253,0,0,1,5.392,7.742c1.242,2.395,1.735,5.282.05,7.584a2.015,2.015,0,0,0,.717,2.737A2.046,2.046,0,0,0,109.791,437.572Z"/><path class="c" d="M28.461,197.263q13.091,0,26.18.012l36.56.02q6.024,0,12.047,0c2.574,0,2.578-4,0-4q-13.533,0-27.068-.012l-36.312-.019q-5.7,0-11.407,0c-2.574,0-2.578,4,0,4Z"/><path class="c" d="M34.456,182.1c.925-4.394,1.489-8.9,2.095-13.344.376-2.765.983-5.717.589-8.511-1.35-9.563-3.51-18.985-5.138-28.5a118.758,118.758,0,0,1-1.659-14.067c-.128-2.562-4.129-2.577-4,0,.43,8.559,2.089,16.99,3.715,25.385.943,4.875,1.875,9.752,2.668,14.654a23.082,23.082,0,0,1,.524,4.543c-.054,1.423-.228,2.843-.4,4.254-.6,4.84-1.242,9.747-2.248,14.521-.528,2.511,3.327,3.585,3.858,1.063Z"/><path class="c" d="M100.566,117.9c-.759,7.939-2.2,15.784-3.606,23.626-.807,4.486-1.6,8.973-2.327,13.473a51.734,51.734,0,0,0-.921,6.321A29.15,29.15,0,0,0,94,165.45c.595,5.394,1.46,10.762,2.315,16.119a2.014,2.014,0,0,0,2.46,1.4,2.048,2.048,0,0,0,1.4-2.46c-.752-4.713-1.51-9.43-2.07-14.17-.175-1.481-.357-2.975-.391-4.468a30.3,30.3,0,0,1,.7-5.343c1.354-8.483,3.024-16.911,4.4-25.39.713-4.393,1.325-8.8,1.749-13.236a2.015,2.015,0,0,0-2-2,2.043,2.043,0,0,0-2,2Z"/><path class="c" d="M47.193,91.079Q40.32,93.938,33.678,97.3c-2.082,1.059-4.148,2.151-6.2,3.258a48.413,48.413,0,0,0-6.368,3.552,2.064,2.064,0,0,0-.717,2.736,2.013,2.013,0,0,0,2.736.718,45.613,45.613,0,0,1,5.985-3.346c2.06-1.111,4.128-2.208,6.212-3.273,4.235-2.164,8.543-4.184,12.935-6.01a2.068,2.068,0,0,0,1.4-2.461,2.012,2.012,0,0,0-2.461-1.4Z"/><path class="c" d="M83.273,94.936c4.326,1.8,8.572,3.786,12.747,5.914,2.019,1.029,4.022,2.089,6.017,3.163a47.557,47.557,0,0,1,6.148,3.389,2.012,2.012,0,0,0,2.736-.717,2.05,2.05,0,0,0-.717-2.737,48.77,48.77,0,0,0-6.339-3.491c-2.055-1.106-4.12-2.2-6.2-3.252q-6.546-3.321-13.328-6.126a2.011,2.011,0,0,0-2.46,1.4,2.051,2.051,0,0,0,1.4,2.461Z"/><path class="c" d="M108.613,107.545a4.823,4.823,0,0,1,2.147,1.928,20.23,20.23,0,0,1,1.963,4.26c.9,2.66,1.471,5.449,2.128,8.175q.648,2.686,1.282,5.376c.437,1.846.719,3.825,1.325,5.62.643,1.905,1.672,4.18,2.217,6.376.62,2.5,4.479,1.439,3.857-1.063-.583-2.349-1.677-4.562-2.329-6.854-1.094-3.84-1.837-7.812-2.779-11.694a61.07,61.07,0,0,0-2.438-8.595,20.262,20.262,0,0,0-2.4-4.542,9.153,9.153,0,0,0-2.95-2.441c-2.237-1.281-4.255,2.174-2.019,3.454Z"/><path class="c" d="M100.559,154.765a39.492,39.492,0,0,0,3.533,9.166,24.871,24.871,0,0,0,5.976,7.6,2.049,2.049,0,0,0,2.829,0,2.02,2.02,0,0,0,0-2.829,21.229,21.229,0,0,1-5.351-6.788,34.026,34.026,0,0,1-3.13-8.211,2,2,0,1,0-3.857,1.064Z"/><path class="c" d="M111.426,157.327q.429-.579.858-1.158.2-.275.41-.546l.2-.272c.06-.078.364-.449.019-.026.585-.716,1.148-1.445,1.767-2.134a22.673,22.673,0,0,1,1.964-1.945c.171-.149.344-.3.521-.437.02-.016.37-.295.12-.1s.075-.053.127-.092c.413-.3.841-.584,1.279-.848a2,2,0,1,0-2.019-3.454c-3.669,2.215-6.2,5.6-8.705,8.99a2.014,2.014,0,0,0-.2,1.541,2.037,2.037,0,0,0,.919,1.2,2.057,2.057,0,0,0,2.736-.717Z"/><path class="c" d="M7.834,155.332c5.781.569,11.593,1.3,17.4,1.494,2.574.085,2.571-3.915,0-4-5.809-.193-11.621-.925-17.4-1.494a2.014,2.014,0,0,0-2,2,2.043,2.043,0,0,0,2,2Z"/><path class="c" d="M62.969,96.284c0,10.215-.1,20.431-.163,30.646q-.127,21.879-.258,43.758c-.022,3.838-.058,7.677-.059,11.515,0,2.574,4,2.578,4,0,0-9.732.1-19.466.162-29.2q.132-22.083.259-44.167c.023-4.185.058-8.369.059-12.554,0-2.574-4-2.578-4,0Z"/><path class="a" d="M93.041,124.834H79.328c0,1.165.022,5.57.022,6.974,2.289,0,11.969.026,13.691.026C93.041,129.892,93.025,125.066,93.041,124.834Z"/><path class="a" d="M74.8,106.647c4.022-4,6.656-8.837,9.626-13.672a21.418,21.418,0,0,0-4.364-5.9,43.383,43.383,0,0,1-12.523,8.728c-.259.118-.548.261-.632.533a1.006,1.006,0,0,0,.145.708,40.465,40.465,0,0,0,2.59,3.344C71.4,102.548,73.616,105.19,74.8,106.647Z"/><path class="a" d="M54.74,106.647c-4.021-4-6.655-8.837-9.626-13.672a21.442,21.442,0,0,1,4.365-5.9A43.383,43.383,0,0,0,62,95.806c.259.118.548.261.632.533a1.011,1.011,0,0,1-.145.708,40.465,40.465,0,0,1-2.59,3.344C58.137,102.548,55.924,105.19,54.74,106.647Z"/><path class="c" d="M93.041,122.834H79.328a2.028,2.028,0,0,0-2,2c0,2.325.021,4.649.022,6.974a2.029,2.029,0,0,0,2,2c4.564,0,9.127.025,13.691.026a2.028,2.028,0,0,0,2-2c0-2.325-.117-4.677,0-7a2,2,0,0,0-4,0c-.117,2.323,0,4.675,0,7l2-2c-4.564,0-9.127-.025-13.691-.026l2,2c0-2.325-.022-4.649-.022-6.974l-2,2H93.041a2,2,0,0,0,0-4Z"/><path class="c" d="M76.214,108.062a56.079,56.079,0,0,0,7.88-10.683c.567-.934,1.128-1.87,1.7-2.8a2.833,2.833,0,0,0,.6-1.867,5.006,5.006,0,0,0-.782-1.739,22.937,22.937,0,0,0-4.133-5.306,2.035,2.035,0,0,0-2.828,0A40.687,40.687,0,0,1,71.938,91.1c-1.183.766-2.4,1.478-3.653,2.124-1.226.633-2.894,1.079-3.308,2.581a3.515,3.515,0,0,0,.9,3.044c.819,1.088,1.683,2.142,2.545,3.195,1.647,2.011,3.321,4,4.961,6.015a2.015,2.015,0,0,0,2.829,0,2.047,2.047,0,0,0,0-2.829c-1.37-1.682-2.763-3.345-4.143-5.018-.777-.943-1.553-1.886-2.313-2.842-.212-.266-.416-.519-.615-.792a4.66,4.66,0,0,0-.271-.384c-.186-.2.066-.265.034.142l-.273,1.01q-.538.441-.086.184l.292-.134c.294-.138.587-.277.878-.421q.891-.442,1.761-.928,1.791-1,3.484-2.164a45.653,45.653,0,0,0,6.513-5.394H78.647A20.426,20.426,0,0,1,82.7,93.984V91.965c-2.829,4.617-5.464,9.4-9.313,13.268C71.567,107.06,74.4,109.89,76.214,108.062Z"/><path class="c" d="M56.155,105.233c-3.85-3.869-6.484-8.652-9.314-13.268v2.019a20.451,20.451,0,0,1,4.052-5.492H48.064a45.717,45.717,0,0,0,6.514,5.394q1.69,1.163,3.484,2.164.8.445,1.614.855.436.218.879.426c.145.068.291.136.437.2q.453.258-.085-.184l-.273-1.01c-.029-.366.233-.362.034-.142a3.538,3.538,0,0,0-.218.311c-.217.3-.435.573-.668.865-.761.956-1.537,1.9-2.313,2.842-1.38,1.673-2.774,3.336-4.143,5.018a2.061,2.061,0,0,0,0,2.829,2.016,2.016,0,0,0,2.829,0c1.607-1.975,3.246-3.923,4.86-5.892.873-1.065,1.744-2.133,2.578-3.228a3.593,3.593,0,0,0,.969-3.134c-.4-1.46-1.967-1.9-3.16-2.506q-1.88-.96-3.655-2.106a40.7,40.7,0,0,1-6.854-5.532,2.038,2.038,0,0,0-2.829,0,22.91,22.91,0,0,0-4.051,5.164,7.4,7.4,0,0,0-.827,1.615,2.628,2.628,0,0,0,.564,2.133c.568.933,1.129,1.869,1.7,2.8a56.036,56.036,0,0,0,7.88,10.683C55.144,109.889,57.973,107.061,56.155,105.233Z"/><path class="c" d="M64.293,196.668c1.071,2.054,1.851,4.255,2.825,6.355a2.013,2.013,0,0,0,1.2.919,2.047,2.047,0,0,0,1.541-.2,2.017,2.017,0,0,0,.919-1.2,2.272,2.272,0,0,0-.2-1.541c-.974-2.1-1.754-4.3-2.825-6.355a2.015,2.015,0,0,0-2.736-.717,2.045,2.045,0,0,0-.718,2.736Z"/><path class="c" d="M58.418,194.846c-.71,3.967-1.426,7.938-2.279,11.878A2,2,0,0,0,60,207.787c.853-3.939,1.568-7.911,2.278-11.878a2.047,2.047,0,0,0-1.4-2.46,2.026,2.026,0,0,0-2.46,1.4Z"/><path class="c" d="M31.39,185.084H99.937c2.574,0,2.578-4,0-4H31.39c-2.574,0-2.578,4,0,4Z"/><path class="c" d="M21.092,104.091a10.694,10.694,0,0,0-4.43,4.891,31.616,31.616,0,0,0-2.3,6.412c-.972,3.9-1.846,7.817-2.746,11.73Q9.092,138.1,6.576,149.072c-.507,2.2-1.016,4.4-1.576,6.581-.534,2.088-2,5.822.519,7.174,2.268,1.218,4.29-2.234,2.019-3.454l.139.093.514.882c-.276-.653.195-1.846.392-2.585s.391-1.5.576-2.25c.455-1.841.885-3.688,1.31-5.535.859-3.734,1.68-7.476,2.535-11.21,1.576-6.886,3.164-13.773,4.811-20.643a44.39,44.39,0,0,1,1.5-5.27,18.192,18.192,0,0,1,1.854-3.7,4.749,4.749,0,0,1,1.941-1.61c2.234-1.278.221-4.736-2.019-3.454Z"/><path class="a" d="M26.508,163.855c-.126,6.617-5.533,40.711-6.867,46.266l-1.526,6.359c.816,6.662-.185,14.463-.385,21.169-.052,1.737-1.356,2.655-2.472,1.323-.534-.637-2.8-3.882-3.483-4.558-.3,2.751-.442,3.243-.577,5.087-.432,5.893-.377,7.623-.4,11.568-.012,1.7-.231,2.989-.691,3.251-1.635.93-3.542,1.067-4.875-.423a11.55,11.55,0,0,1-2.695-5.321,64.051,64.051,0,0,1-.574-9.435A33.759,33.759,0,0,1,3.777,230.3c2.082-5.943,3.886-8.662,4.681-14.909l.145.109c-.143-3.143,2.573-50.627,2.811-53.39"/><path class="c" d="M9.414,162.108c-.516,6.1-.748,12.235-1.092,18.346-.517,9.153-1.027,18.307-1.455,27.464-.117,2.507-.366,5.068-.264,7.58.1,2.565,4.1,2.578,4,0-.084-2.081.111-4.2.205-6.278.185-4.114.4-8.226.615-12.339q.722-13.7,1.53-27.389c.145-2.46.253-4.928.461-7.384.217-2.565-3.785-2.551-4,0Z"/><path class="c" d="M24.508,163.855c-.125,5.591-1.171,11.179-1.967,16.673q-1.581,10.918-3.447,21.794c-.421,2.426-.812,4.871-1.381,7.268-.6,2.5,3.261,3.57,3.857,1.063,1.283-5.4,2.028-10.968,2.9-16.444,1.2-7.5,2.336-15.006,3.277-22.538a77.3,77.3,0,0,0,.758-7.816c.057-2.575-3.943-2.574-4,0Z"/><path class="c" d="M16.112,216.454c.666,5.68.145,11.412-.189,17.1q-.059.984-.107,1.968a7.4,7.4,0,0,0-.086,2.131c.011.032-.064.228-.045.246a3.909,3.909,0,0,1,1.027-.275c-.055.042-.134-.342,0-.008a2.34,2.34,0,0,0-.326-.438A41.738,41.738,0,0,0,13.189,233c-1.312-1.366-3.233-.2-3.414,1.414-.439,3.912-.836,7.8-.934,11.739-.041,1.638-.02,3.277-.047,4.916-.009.55-.049,1.083-.107,1.627-.008.07-.214.543-.084.374.243-.318.138-.178-.039-.222-.265-.066-.669.218-.983.181a1.9,1.9,0,0,1-1.2-.844c-2.341-2.828-2.225-6.114-2.374-9.575a31.676,31.676,0,0,1,1.852-12.22c.867-2.435,1.915-4.8,2.788-7.232a37.413,37.413,0,0,0,1.809-7.769,2.011,2.011,0,0,0-2-2,2.052,2.052,0,0,0-2,2c-.7,5.236-3.1,9.856-4.757,14.807A36.376,36.376,0,0,0,.086,244.123c.245,4.2.823,9.121,4.492,11.856,1.95,1.454,5.567,1.456,7.215-.543,1.42-1.724,1-4.654,1.013-6.739a135.047,135.047,0,0,1,.969-14.283l-3.414,1.414c1.326,1.38,2.2,3.144,3.482,4.558a3.253,3.253,0,0,0,3.954.85,4.253,4.253,0,0,0,1.94-3.8c.351-6.954,1.189-14.039.375-20.985a2.061,2.061,0,0,0-2-2,2.013,2.013,0,0,0-2,2Z"/><path class="c" d="M5.555,162.827a15.411,15.411,0,0,0,4.323.9c2.131.279,4.271.493,6.412.69,3.736.344,7.522.761,11.278.774,2.574.009,2.577-3.991,0-4-3.6-.013-7.222-.407-10.8-.73-2.114-.191-4.227-.4-6.332-.662-.065-.008-.706-.092-.47-.06s-.357-.05-.415-.059c-.345-.05-.688-.1-1.031-.163-.267-.046-.534-.094-.8-.157-.238-.056-.937-.339-.149.013a2.062,2.062,0,0,0-2.736.717,2.016,2.016,0,0,0,.718,2.737Z"/><path class="a" d="M136.92,118.051c1.03-1.44,2.29-2.821,2.87-3.742.8-1.274.788-3.642,1.429-4.992a18.787,18.787,0,0,1,5.344-6.874,82.108,82.108,0,0,1,8.1-6.112c1.275-.867,2.5-1.393,3.73-.227,1.366,1.3.569,2.613-.356,4.075-1.722,2.723-5.167,4.648-6.547,7l-.208.355c2.458-.119,9.487-.187,10.823-.27a16.431,16.431,0,0,0,3.6-1.028c2.432-.694,5.218-1.894,7.745-1.979.689-.023,1.343.473,1.754.484,1.27-.554,3.622-.03,4.884.544,4.362,2.947-1.493,8.7-4.591,10.386-2.135,1.158-5.3,2.993-7.577,3.915a28.963,28.963,0,0,1-7.768,2.251,66.109,66.109,0,0,0-9.461,1.52c-1.756.84-3.744,1.636-5.221,4.631-3.363,9.164-8.042,27.045-10.8,32.774-2.722,5.647-4.107,10.108-10.144,12.651-3.288,1.385-6.14,1.769-9.106-.478a10.172,10.172,0,0,1-3.392-11.861,46.877,46.877,0,0,1,5.017-9.8c3.909-5.557,15.955-27.283,19.676-32.933C136.782,118.245,136.851,118.148,136.92,118.051Z"/><path class="c" d="M138.442,119.352a44.974,44.974,0,0,0,3.209-4.269c.8-1.5.725-3.2,1.295-4.757,1.247-3.4,4.286-5.939,7.015-8.128,1.636-1.313,3.35-2.525,5.08-3.711a12.454,12.454,0,0,1,1.262-.828c.049-.025.66-.223.463-.276.257.069.415.595.376.165.029.315-.312.762-.452,1-1.761,3.02-5.092,4.648-6.93,7.616-1.36,2.194,2.1,4.2,3.454,2.019a15.763,15.763,0,0,1,3.083-3.179,19.839,19.839,0,0,0,3.375-3.685c1.014-1.519,1.9-3.33,1.146-5.151a4.38,4.38,0,0,0-4.807-2.645c-1.815.359-3.428,1.79-4.9,2.837-1.7,1.212-3.368,2.476-4.97,3.816a23.974,23.974,0,0,0-6.408,7.628,10.376,10.376,0,0,0-.91,2.537,13.314,13.314,0,0,1-.607,2.667,7.584,7.584,0,0,1-1.1,1.552c-.729.907-1.457,1.816-2.127,2.769a2.018,2.018,0,0,0,.718,2.737,2.041,2.041,0,0,0,2.736-.718Z"/><path class="c" d="M150.994,109.549c3.626-.207,7.269-.055,10.893-.276a15.287,15.287,0,0,0,3.937-.983c1.476-.486,2.964-.97,4.456-1.407,1.216-.357,2.533-.827,3.762-.41s2.348-.107,3.614.14c.761.148,1.658.3,1.97,1.063a2.9,2.9,0,0,1-.47,1.778,12.156,12.156,0,0,1-4.085,4.143c-4.52,2.847-9.793,5.558-15.144,6.265-3.2.424-6.7.479-9.77,1.564a11.49,11.49,0,0,0-6.416,5.55c-1.182,2.283,2.269,4.308,3.454,2.019,1.83-3.535,5.217-4.163,8.874-4.663,2.184-.3,4.4-.438,6.563-.9a34.008,34.008,0,0,0,5.818-1.922,57.292,57.292,0,0,0,5.765-2.857,31.177,31.177,0,0,0,4.138-2.509c2.419-1.866,5.11-4.64,5.279-7.879a5.22,5.22,0,0,0-2.536-4.712,8.513,8.513,0,0,0-6.425-.745h1.063c-.491-.091-.924-.353-1.414-.457a6.265,6.265,0,0,0-2.21.035,24.4,24.4,0,0,0-4.137,1.025c-1.333.43-2.682.824-4,1.3a8.263,8.263,0,0,1-2.617.58c-3.452.111-6.914.059-10.363.256-2.559.147-2.576,4.148,0,4Z"/><path class="c" d="M157.344,111.976c-3.919,0-8.009-.684-11.528,1.515a2,2,0,1,0,2.019,3.454c.2-.126.4-.246.613-.354.1-.054.208-.1.313-.153-.214.085-.215.085,0,0a10.309,10.309,0,0,1,1.142-.35c.222-.052.445-.089.669-.134s.225-.036-.024,0c.114-.014.227-.026.341-.038.4-.039.806-.06,1.21-.07,1.75-.042,3.5.131,5.246.131a2,2,0,0,0,0-4Z"/><path class="c" d="M143.539,127.454c-2.924,8.008-5.1,16.274-7.72,24.384a78.508,78.508,0,0,1-3.512,9.244c-1.651,3.532-3.2,7.383-6.666,9.514-1.849,1.137-4.343,2.258-6.562,1.875a7.4,7.4,0,0,1-4.967-4.147c-2.07-4.252.557-8.981,2.605-12.7,1.467-2.662,3.271-5.132,4.855-7.726,1.881-3.083,3.7-6.2,5.52-9.325,3.737-6.418,7.274-13.011,11.35-19.224,1.416-2.158-2.046-4.165-3.454-2.019-3.847,5.864-7.2,12.079-10.719,18.139-1.943,3.343-3.889,6.686-5.9,9.991-1.733,2.853-3.718,5.567-5.305,8.5-2.4,4.436-4.824,9.53-3.133,14.636,1.748,5.277,6.967,8.9,12.531,7.608a17.028,17.028,0,0,0,11.073-8.557,70.32,70.32,0,0,0,4.715-10.52c3.351-9.438,5.706-19.206,9.142-28.616.885-2.421-2.979-3.466-3.857-1.063Z"/><path class="e" d="M128.265,89.415c8.773-2.854,21.629-4.15,34.686-4.053,23.284-.172,45.925,4.081,45.925,13.708,0,11.6-24.781,15.224-45.925,15.224s-45.924-3.625-45.924-15.224c0-4.228,4.367-7.42,11.238-9.655"/><path class="c" d="M128.8,91.344c7.535-2.421,15.533-3.307,23.4-3.736a186.871,186.871,0,0,1,26.465.351c6.981.613,14.172,1.626,20.732,4.2a17.119,17.119,0,0,1,5.9,3.543,4.543,4.543,0,0,1,.729.851c.107.162.212.325.307.494.044.077.338.7.2.372a3.768,3.768,0,0,1,.307,2.375,6.51,6.51,0,0,1-.735,2.138A7.584,7.584,0,0,1,204.388,104a19.923,19.923,0,0,1-6.12,3.509c-6.136,2.377-12.8,3.408-19.317,4.045a169.039,169.039,0,0,1-22.424.625,116.217,116.217,0,0,1-21.462-2.471c-4.912-1.109-10.78-2.665-14.263-6.412a6.01,6.01,0,0,1-1.77-4.486c.148-2.443,2.627-4.215,4.69-5.346a30.105,30.105,0,0,1,5.074-2.122c2.433-.8,1.391-4.669-1.063-3.858-6.039,2-13.97,5.893-12.5,13.549,1.026,5.355,6.437,8.39,11.065,10.225,6.771,2.685,14.219,3.706,21.429,4.369a170.456,170.456,0,0,0,24.4.432,105.829,105.829,0,0,0,22.887-3.275c5.229-1.457,11.373-3.718,14.391-8.569a9.488,9.488,0,0,0,1.278-6.884,10.056,10.056,0,0,0-3.926-5.641c-5.207-4.039-12.35-5.523-18.7-6.567a163.379,163.379,0,0,0-27.273-1.766,130.269,130.269,0,0,0-27.587,2.659c-1.84.409-3.663.892-5.458,1.468-2.441.785-1.4,4.648,1.063,3.858Z"/><path class="a" d="M180.8,100.328a23.823,23.823,0,0,1-.678-3.293,2.589,2.589,0,0,1,1.342-3.041,11.751,11.751,0,0,1,5.569-.4,5.824,5.824,0,0,1,2.165.722,2.3,2.3,0,0,1,.886,1.993,14,14,0,0,1-.886,4.2c-.766,1.631-2.338,1.862-4.242,1.862S181.566,102.16,180.8,100.328Z"/><path class="c" d="M182.73,99.8a12.137,12.137,0,0,1-.542-2.512c-.029-.178-.057-.356-.089-.534-.016-.083-.031-.166-.048-.248-.062-.307-.026.087.013.109-.035-.019-.009-.3-.007-.353.013-.422-.049.028-.02.047a1.89,1.89,0,0,1,.062-.267c.135-.489-.011-.023-.01-.022l.062-.116q.142-.215-.012-.012l-.081.1a2.026,2.026,0,0,1,.174-.185c.053.072-.378.223-.1.083.387-.2-.388.1-.041.007.262-.067.517-.165.78-.231.139-.035.278-.067.418-.1.1-.021.71-.149.2-.049a11.418,11.418,0,0,1,3.176.036c.039,0,.623.105.236.018-.361-.08.1.029.142.038a6.248,6.248,0,0,1,.654.188c.133.046.444.079.012-.011a1.261,1.261,0,0,1,.256.123c.057.03.386.268.116.042-.14-.116-.148-.116-.025,0s.11.125,0,0l-.08-.1a2.678,2.678,0,0,1,.132.233c-.031.036-.122-.415-.047-.1.022.093.038.436.052.115.015-.354-.011.044-.014.1-.015.245-.062.492-.092.736-.018.149-.035.3-.053.446-.007.051-.1.634-.023.179a12.2,12.2,0,0,1-.336,1.571c-.053.171-.109.344-.179.51.028-.067.146-.281-.006-.017-.042.075-.095.156-.134.235-.162.329.309-.264-.035.044-.034.031-.217.176-.219.208,0-.05.412-.259.118-.1a1.553,1.553,0,0,0-.257.147c-.183.16.472-.149.091-.035-.18.054-.356.112-.54.153a2.354,2.354,0,0,0-.318.06c.018-.061.5-.05,0-.007a14.8,14.8,0,0,1-1.576.038c-.223,0-.446-.014-.668-.032-.053,0-.479-.057-.113-.006s-.15-.033-.216-.048a5.78,5.78,0,0,0-.555-.169c.407.048.308.16.121.032-.061-.042-.4-.279-.126-.062s-.018-.029-.058-.07c-.313-.311.04-.006,0,.034-.006.006-.374-.679-.392-.719a2.006,2.006,0,0,0-2.736-.718,2.062,2.062,0,0,0-.717,2.737A4.943,4.943,0,0,0,182.027,104a9.66,9.66,0,0,0,3.52.353,7.009,7.009,0,0,0,3.71-.963,6.089,6.089,0,0,0,2.374-3.9c.178-.815.264-1.65.364-2.477a4.65,4.65,0,0,0-.078-2.1,4.327,4.327,0,0,0-1.212-1.953,5.874,5.874,0,0,0-2.166-1.093,13.365,13.365,0,0,0-4.248-.415,8.421,8.421,0,0,0-4.388,1.125,4.86,4.86,0,0,0-1.709,4.987,16.9,16.9,0,0,0,.679,3.294,2.049,2.049,0,0,0,2.46,1.4A2.022,2.022,0,0,0,182.73,99.8Z"/><path class="a" d="M139.318,80.579a3.085,3.085,0,0,0-3.905,0,5.829,5.829,0,0,0-.98,3.951c.589,4.689,2.892,7.819,7.618,7.893"/><path class="a" d="M140.554,93.752c-3.679.44-5.525,3.016-5.525,5.22,0,3.919,6.661,7.12,19.324,7.12s19.325-3.2,19.325-7.12c0-2.2-1.847-4.78-5.526-5.22"/><path class="a" d="M142.159,93.2c-.962-2.3-1.535-7.46-2.041-9.9-.781-3.775.694-7.983,4.037-9.141,5.938-2.059,10.492-1.841,16.746-1.215a17.485,17.485,0,0,1,6.507,2.169,6.916,6.916,0,0,1,2.665,5.993c-.583,4.289-.786,8.614-2.665,12.618-2.3,4.9-7.028,5.6-12.754,5.6S144.459,98.71,142.159,93.2Z"/><path class="c" d="M140.732,79.165a5.153,5.153,0,0,0-5.627-.794c-1.912.85-2.586,3.293-2.7,5.2a11.782,11.782,0,0,0,.983,4.965,9.381,9.381,0,0,0,2.765,3.9,9.609,9.609,0,0,0,5.587,1.98,2.013,2.013,0,0,0,2-2,2.045,2.045,0,0,0-2-2c-.216-.011-.43-.031-.645-.05.547.048-.118-.025-.229-.048A10.025,10.025,0,0,1,139.755,90c-.2-.08-.174-.066.093.044-.084-.037-.166-.076-.248-.116-.161-.08-.319-.167-.472-.26-.114-.069-.222-.147-.335-.218-.289-.182.306.273-.116-.093a8.5,8.5,0,0,1-.739-.755q-.2-.25.064.089c-.054-.072-.106-.146-.157-.22q-.155-.226-.293-.462c-.167-.285-.307-.58-.448-.878.238.5-.031-.093-.07-.2-.068-.189-.13-.38-.188-.572-.12-.4-.219-.808-.3-1.218-.037-.186-.071-.374-.1-.562-.013-.082-.026-.164-.038-.246.031.249.035.265.011.05-.008-.214-.024-.425-.017-.64,0-.1.1-.8.013-.325.042-.232.088-.462.151-.689.024-.088.282-.76.087-.332.086-.19.235-.372.309-.564-.106.277-.148.136.032,0-.25.184-.284.22-.1.106q.286-.141-.119.047a2.619,2.619,0,0,1,.262-.076q.329-.065-.115,0c.133-.077.429-.012.578-.019.227.018.194.009-.1-.029.094.015.186.034.278.056s.178.047.265.077c-.267-.124-.3-.139-.113-.047.471.3-.148-.18.078.05a2,2,0,1,0,2.829-2.828Z"/><path class="c" d="M140.023,91.823c-4.44.638-8.813,5.315-6.274,9.865,1.9,3.411,6.421,4.762,9.979,5.47a57.455,57.455,0,0,0,19.155.354c3.862-.554,8.676-1.582,11.313-4.749a5.9,5.9,0,0,0,1.221-5.569,8.04,8.04,0,0,0-6.733-5.371,2.067,2.067,0,0,0-2.46,1.4,2.014,2.014,0,0,0,1.4,2.46c1.671.24,3.612.968,4.007,2.828a2.271,2.271,0,0,1,.042.683c-.015.308.1-.5,0-.025-.02.095-.045.192-.074.285-.07.224.137-.2-.093.218-.065.116-.136.226-.206.338-.056.089.179-.176-.095.123a7.861,7.861,0,0,1-2.973,1.947,25.1,25.1,0,0,1-5.336,1.412,55.455,55.455,0,0,1-15.413.239,29.762,29.762,0,0,1-5.985-1.283,13.053,13.053,0,0,1-1.9-.783c-.3-.155-.59-.32-.874-.5-.147-.094-.292-.189-.434-.291-.327-.235.1.109-.21-.171a7.3,7.3,0,0,1-.632-.636c-.251-.289-.035-.053.007.01-.089-.133-.17-.268-.251-.406a.957.957,0,0,1-.17-.82c.228-1.971,2.169-2.9,4.053-3.169a2.013,2.013,0,0,0,1.4-2.46,2.053,2.053,0,0,0-2.46-1.4Z"/><path class="c" d="M144.088,92.672a36.475,36.475,0,0,1-1.644-7.649c-.387-2.376-.977-4.741.222-7,1.333-2.512,4.93-2.943,7.478-3.286a43.276,43.276,0,0,1,9.831.116c2.315.22,5.815.788,7.219,2.855,1.617,2.38.658,5.554.277,8.184-.425,2.928-.976,6.591-3.1,8.838a9.355,9.355,0,0,1-6.143,2.456,29.314,29.314,0,0,1-8.91-.278,7.411,7.411,0,0,1-5.436-4.714,2.012,2.012,0,0,0-2.736-.717,2.051,2.051,0,0,0-.718,2.736,10.98,10.98,0,0,0,6.561,6.191c2.976,1.038,6.379,1,9.491.887,3.052-.108,6.367-.5,8.958-2.265,3.122-2.12,4.575-5.658,5.373-9.229a62.948,62.948,0,0,0,.954-6.249c.225-1.883.551-3.644-.039-5.5a8.823,8.823,0,0,0-2.669-4.188,14,14,0,0,0-4.82-2.258,36.755,36.755,0,0,0-11.632-1.068,31.551,31.551,0,0,0-5.979.812,13.67,13.67,0,0,0-5.12,2c-3.227,2.424-4.016,6.714-3.321,10.486.6,3.267.807,6.8,2.042,9.9a2.061,2.061,0,0,0,2.46,1.4A2.014,2.014,0,0,0,144.088,92.672Z"/><path class="c" d="M145.705,83.094a14.607,14.607,0,0,0,4.6,1.119,38.974,38.974,0,0,0,5.169.24,36.415,36.415,0,0,0,5.245-.433,7.479,7.479,0,0,0,3.717-1.439,2.016,2.016,0,0,0,0-2.828,2.043,2.043,0,0,0-2.829,0c.612-.51.006-.1-.127.01-.1.081.489-.148.09-.048-.132.033-.262.086-.393.124-.552.158-1.115.246-1.678.348-.462.084.319-.032-.122.018-.171.019-.342.04-.514.058q-.587.061-1.175.1c-.8.054-1.607.083-2.411.092a39.189,39.189,0,0,1-4.8-.223c-.1-.011-.628-.081-.159-.015-.166-.023-.33-.048-.5-.075-.307-.05-.612-.106-.916-.173-.27-.059-.539-.126-.8-.206-.137-.041-.271-.095-.408-.135-.464-.134.346.163.024.011a2.056,2.056,0,0,0-2.736.718,2.016,2.016,0,0,0,.717,2.736Z"/><path class="b" d="M33.153,22c4.5-8.75,12.216-15.423,20.976-17.982C67.574.093,84.891.989,93.567,14.89a31.093,31.093,0,0,1,2.976,26.223,3.643,3.643,0,0,1-.879,4.547c-1.68,1.28-5.155.24-6.889-.263-9.169-2.657-16.363-2.474-25.8-2.036a62.591,62.591,0,0,0-14.611,2c-2.266.656-14.048,4.792-12.595-1.711-9.916,1.083-4.95-17.076-2.676-21.534Z"/><path class="c" d="M77.229,19.93a23.215,23.215,0,0,1,3.3-.086q.463.021.927.062c.156.013.312.029.467.046.074.008.5.063.126.01q.9.125,1.784.335a16.763,16.763,0,0,1,1.744.515c.12.043.239.089.358.133.565.207-.178-.086.138.054.288.128.573.266.851.414a10.246,10.246,0,0,1,1.507.959c-.22-.172.014.022.106.1.118.1.235.208.348.316.228.218.443.448.65.686a2,2,0,1,0,2.828-2.829c-3.631-4.155-9.892-5.22-15.138-4.716a2.055,2.055,0,0,0-2,2,2.014,2.014,0,0,0,2,2Z"/><path class="c" d="M34.518,41.685a2.406,2.406,0,0,1-1.748-1,7.341,7.341,0,0,1-.868-2.72,25.634,25.634,0,0,1,.861-8.667c.323-1.333.7-2.654,1.154-3.951q.253-.731.542-1.448c.208-.518-.107.236.025-.061.042-.093.081-.187.126-.279.158-.323.316-.643.484-.961a36.093,36.093,0,0,1,8.317-10.457c6.158-5.311,14.131-7.68,22.15-8.088,7.323-.373,15.08,1.063,20.915,5.771,7.878,6.356,11.118,17.375,9.148,27.148-.507,2.513,3.348,3.589,3.857,1.063,2.054-10.191-.63-21.443-7.956-29C85.4,2.723,76.65.04,68.019,0,59.088-.041,49.782,2.218,42.6,7.69A36.7,36.7,0,0,0,29.09,27.506c-1.509,5.812-3.308,17.423,5.428,18.179,2.564.222,2.549-3.779,0-4Z"/><path class="c" d="M36.457,44.722A51.233,51.233,0,0,1,45.971,39.5a47.8,47.8,0,0,1,14.176-3.1c8.563-.606,17.62-.62,25.95,1.737.665.188,1.324.394,1.976.624.291.1.578.214.867.322-.009,0,.525.213.241.095-.235-.1.239.1.289.127a13.523,13.523,0,0,1,2.418,1.37,2.013,2.013,0,0,0,2.736-.717,2.048,2.048,0,0,0-.717-2.737,19.394,19.394,0,0,0-5.718-2.633,53.23,53.23,0,0,0-10.478-2.011,99.545,99.545,0,0,0-15.645-.292,55.5,55.5,0,0,0-15.741,2.827,54.156,54.156,0,0,0-11.887,6.152c-2.131,1.421-.131,4.887,2.019,3.454Z"/><path class="c" d="M33.65,44.894c.326,4.459,4.956,4.677,8.421,4.164,3.614-.534,7.021-1.919,10.605-2.592a104.056,104.056,0,0,1,18.864-1.3A65,65,0,0,1,89,47.557c2.545.7,5.855,1.4,8.075-.476a5.388,5.388,0,0,0,.569-7.666c-1.809-1.837-4.637.992-2.828,2.828a1.316,1.316,0,0,1-.1,1.525c-.439.585-1.118.528-1.807.491-2.068-.109-4.121-.954-6.119-1.432a65.744,65.744,0,0,0-15.682-1.654,129.575,129.575,0,0,0-16.64.983,92.79,92.79,0,0,0-10.349,2.407,19.317,19.317,0,0,1-4.662.743,3.337,3.337,0,0,1-1.728-.247c.35.148.014-.022-.071-.07-.012-.006.02-.011.014.019-.031.163-.087-.154,0,.014.133.248-.061-.568-.029-.128-.187-2.552-4.188-2.573-4,0Z"/><path class="c" d="M59.339,71.324a12.069,12.069,0,0,0,5.816,1.357,9.587,9.587,0,0,0,5.982-1.811,2.005,2.005,0,0,0,0-2.829,2.064,2.064,0,0,0-2.829,0c.691-.538-.024-.012-.243.1-.169.088-.621.229.009.015-.158.054-.312.12-.472.172-.424.136-.91.15-1.32.3.21-.078.323-.039.024-.009-.13.013-.26.024-.39.032-.312.02-.625.028-.938.026q-.421,0-.841-.03c-.128-.009-.257-.019-.385-.032q-.11-.011-.219-.024-.236-.029.183.024c-.047.05-.553-.1-.632-.118-.2-.045-.4-.1-.6-.156-.173-.052-.341-.113-.512-.172-.448-.154.421.2.014.01q-.316-.15-.627-.313a2,2,0,1,0-2.018,3.454Z"/><path class="c" d="M63.882,57.953a25.943,25.943,0,0,1,.611,2.8l-.071-.532a1.718,1.718,0,0,1,.01.386l.072-.532a.922.922,0,0,1-.043.174l.2-.478a.756.756,0,0,1-.061.112l.312-.405a.553.553,0,0,1-.091.09l.405-.313a1.811,1.811,0,0,1-.222.118l.478-.2a1.628,1.628,0,0,1-.373.109l.532-.072a1.526,1.526,0,0,1-.351,0l.532.071c-.132-.018-.262-.05-.394-.068a1.522,1.522,0,0,0-.8-.036,1.492,1.492,0,0,0-.744.237,2,2,0,0,0-.717,2.737,1.913,1.913,0,0,0,1.2.919c.351.047.691.135,1.049.151a3.441,3.441,0,0,0,1.609-.393,2.444,2.444,0,0,0,1.32-1.6,3.767,3.767,0,0,0-.014-1.657c-.152-.9-.36-1.794-.592-2.677a2,2,0,0,0-2.46-1.4,2.025,2.025,0,0,0-1.195.919,2.1,2.1,0,0,0-.2,1.541Z"/><path class="c" d="M49.647,49.886c-.467,1.517-.163,5.007,2.711,5.3,3.8-.023,4-4.242,2.723-6.226C54.034,47.339,50.955,46.664,49.647,49.886Z"/><path class="c" d="M80.067,49.886c.467,1.517.163,5.007-2.711,5.3-3.8-.023-4-4.243-2.722-6.226C75.681,47.339,78.759,46.664,80.067,49.886Z"/></svg>