<?xml version="1.0" encoding="utf-8"?>
<!-- Uploaded to: SVG Repo, www.svgrepo.com, Generator: SVG Repo Mixer Tools -->
<svg width="800px" height="800px" viewBox="-133.21 0 470.957 470.957" xmlns="http://www.w3.org/2000/svg"><defs><style>.a{fill:#ffffff;}.b{fill:#211715;}.c{fill:#f2635f;}.d{fill:#645d5c;}.e{fill:#908b8a;}</style></defs><path class="a" d="M99.183,105.824c-.515-.227-4.33-1.989-4.557-2.072-3.439-1.241-3.3-3.452-3.737-5.926a56.494,56.494,0,0,1-.764-8.873c6.494-4.163,11.485-12.624,12.444-15.225.162-.494.494-1.424.789-2.528l.615-.095a7.726,7.726,0,0,0,3.595-1.621,11.663,11.663,0,0,0,3.015-3.957,18.34,18.34,0,0,0,1.87-9.723,6.115,6.115,0,0,0-.641-2.463,4.331,4.331,0,0,0-3.113-2.07,4.588,4.588,0,0,0-3.669,1.074s1.049-25.172-30.273-25.172c-26.2,0-30.939,17.5-31.249,23.347a16.786,16.786,0,0,0-.015,1.825,4.587,4.587,0,0,0-3.669-1.074,4.333,4.333,0,0,0-3.113,2.07A6.115,6.115,0,0,0,36.07,55.8a18.34,18.34,0,0,0,1.87,9.723,11.663,11.663,0,0,0,3.015,3.957,7.726,7.726,0,0,0,3.595,1.621l1.172.179A31.2,31.2,0,0,0,51.667,82.89a27.764,27.764,0,0,0,7.682,6.567,63.981,63.981,0,0,1-.747,8.369c-.43,2.47-.3,4.68-3.74,5.93-.23.08-1.92.68-2.34.86,0,0,2.972,14.892,22.084,14.892S99.183,105.824,99.183,105.824Z"/><path class="b" d="M106.445,53.759a2.506,2.506,0,0,1,3.566.469,5.232,5.232,0,0,1,.5,2.644,15.545,15.545,0,0,1-.22,3.2c-.693,3.8-2.63,8.351-6.852,9.108a2.017,2.017,0,0,0-1.4,2.46,2.044,2.044,0,0,0,2.46,1.4c6.411-1.149,9.469-8.391,9.952-14.2.247-2.979.011-6.387-2.566-8.318a6.62,6.62,0,0,0-8.275.418,2.015,2.015,0,0,0,0,2.828,2.044,2.044,0,0,0,2.829,0Z"/><path class="b" d="M101.926,67.691a17.348,17.348,0,0,1-1.009,4.678c-.091.275-.2.549-.277.827-.037.125-.2.478.024-.036-.142.328-.3.65-.456.969a39.282,39.282,0,0,1-3.389,5.448c-2.958,4.057-6.973,8.353-12.039,9.542-2.5.588-1.444,4.445,1.064,3.857,6.032-1.415,10.714-6.349,14.263-11.154,3.066-4.151,5.605-8.855,5.819-14.131.1-2.574-3.9-2.569-4,0Z"/><path class="b" d="M44.907,50.931a6.622,6.622,0,0,0-8.274-.418c-2.58,1.925-2.813,5.344-2.566,8.318.482,5.811,3.54,13.053,9.951,14.2a2.057,2.057,0,0,0,2.461-1.4,2.017,2.017,0,0,0-1.4-2.46c-4.223-.757-6.159-5.308-6.852-9.108a15.405,15.405,0,0,1-.223-3.018,6.013,6.013,0,0,1,.431-2.7,2.492,2.492,0,0,1,3.641-.591,2.055,2.055,0,0,0,2.828,0,2.016,2.016,0,0,0,0-2.828Z"/><path class="b" d="M42.806,67.415a35.621,35.621,0,0,0,7.586,17.054c4.269,5.053,9.919,8.709,16.574,9.427a2.012,2.012,0,0,0,2-2,2.045,2.045,0,0,0-2-2c-5.711-.617-10.483-4.272-14.026-8.592-3.494-4.261-5.34-9.587-6.277-14.952a2.017,2.017,0,0,0-2.46-1.4,2.046,2.046,0,0,0-1.4,2.46Z"/><path class="b" d="M53.054,106.545a29.662,29.662,0,0,0,4.085-1.655,6.509,6.509,0,0,0,2.995-4.175,57.254,57.254,0,0,0,1.218-11.269,2,2,0,0,0-4,0c-.054,1.843-.171,3.685-.362,5.519-.146,1.39-.335,2.7-.613,4.2a8.694,8.694,0,0,1-.2.873c-.037.128-.083.253-.123.38.138-.431-.007.01-.058.1-.076.143-.163.278-.253.413.157-.235.069-.079-.062.05-.047.045-.41.373-.273.266.169-.132-.246.158-.285.182a24.592,24.592,0,0,1-3.13,1.25,2.067,2.067,0,0,0-1.4,2.461,2.012,2.012,0,0,0,2.46,1.4Z"/><path class="b" d="M88.127,89.531a60.068,60.068,0,0,0,.7,8.045c.278,1.8.405,3.787,1.439,5.346a6.476,6.476,0,0,0,2.523,2.209c.341.169.7.315,1.049.455.782.31-.276-.155-.082-.045.214.121.461.206.685.308,1.244.564,2.479,1.148,3.727,1.7a2.064,2.064,0,0,0,2.737-.718,2.015,2.015,0,0,0-.718-2.736c-1.135-.5-2.259-1.033-3.389-1.548-.538-.246-1.078-.482-1.621-.715a5.915,5.915,0,0,1-1.046-.546c-.474-.324.167.2-.209-.179-.087-.085-.17-.173-.25-.264.112.153.127.173.048.059-.111-.165-.2-.337-.3-.511.164.3.007.022-.047-.141a8.173,8.173,0,0,1-.264-1.077c-.156-.838-.273-1.688-.406-2.53a52.137,52.137,0,0,1-.583-7.114c-.049-2.571-4.049-2.58-4,0Z"/><path class="b" d="M91.75,107.543a46.813,46.813,0,0,0,4.7-1.539,11.89,11.89,0,0,1,1.218-.3c.22-.04.548.019-.091,0,.083,0,.171-.019.254-.025.186-.013.369-.009.555-.005.222,0,.3.16-.241-.038.063.023.139.027.2.045.286.078.184.2-.168-.088a1.132,1.132,0,0,0,.166.095c.265.129-.436-.38-.185-.133s-.25-.448-.132-.176a1.055,1.055,0,0,0,.1.182c-.3-.379-.155-.408-.083-.12a2.019,2.019,0,0,0,2.46,1.4,2.041,2.041,0,0,0,1.4-2.46,3.494,3.494,0,0,0-2.555-2.571,7.135,7.135,0,0,0-3.387.178,30.257,30.257,0,0,0-2.888.947,14.9,14.9,0,0,1-2.389.75,2.009,2.009,0,0,0-1.4,2.46,2.054,2.054,0,0,0,2.46,1.4Z"/><path class="a" d="M26.852,184.119c-.334,12.7-3.008,44.373-4.558,50.925l-1.766,7.464a143.1,143.1,0,0,1,.985,21.1,2.074,2.074,0,0,1-3.651,1.274c-.582-.69-1.458-1.722-1.86-2.306a16.85,16.85,0,0,0-1.937-2.636,20.459,20.459,0,0,0-1.053,5.464c-.452,6.4-.747,6,.036,12.635.216,1.83-.242,3.249-.742,3.535-3.192,1.825-6.493-.7-7.989-3.157a14.127,14.127,0,0,1-1.507-3.646c-1.8-6.6-.3-12.6,1.948-19.063,2.352-6.771,5.419-13.4,6.086-20.557-.264-3.289.253-40.11.48-52.179"/><path class="b" d="M9.324,182.976c-.287,15.31-.529,30.628-.553,45.942,0,2.081-.1,4.206.076,6.282.219,2.546,4.221,2.569,4,0-.15-1.752-.076-3.541-.077-5.3,0-3.423.026-6.846.056-10.268q.112-12.837.317-25.673.082-5.493.181-10.986c.048-2.575-3.952-2.576-4,0Z"/><path class="b" d="M24.852,184.119c-.187,6.921-.7,13.839-1.241,20.74-.586,7.491-1.241,14.983-2.139,22.443a63.419,63.419,0,0,1-1.107,7.21c-.583,2.5,3.273,3.574,3.857,1.064,1.279-5.494,1.629-11.3,2.178-16.9q1.17-11.931,1.929-23.9c.224-3.551.427-7.1.523-10.661.07-2.575-3.93-2.573-4,0Z"/><path class="b" d="M18.441,241.761a145.51,145.51,0,0,1,1.124,17.715q0,1.1-.013,2.19a6.047,6.047,0,0,1-.048,1.96c-.015.023.066.057-.127-.049a7.7,7.7,0,0,1-1.771-2.189,21.6,21.6,0,0,0-2.127-2.858,2.019,2.019,0,0,0-3.343.882,49.867,49.867,0,0,0-1.54,11.439,31.256,31.256,0,0,0,.174,4.689c.112,1.12.325,2.255.332,3.38a12.024,12.024,0,0,0-.167,1.231c-.118-.687.681-.25.217-.223-.234.014-.5.222-.759.258-2.128.3-3.93-1.865-4.776-3.542a17.469,17.469,0,0,1-1.6-7.405c-.1-5.384,1.762-10.589,3.6-15.575,2.117-5.754,4.328-11.418,5.132-17.536a2.01,2.01,0,0,0-2-2,2.051,2.051,0,0,0-2,2c-1.562,11.89-9.851,22.619-8.621,34.933.512,5.119,2.731,11.952,8.615,13.006,2.545.455,5.459-.4,6.135-3.146.59-2.393-.129-4.955-.268-7.373a39.786,39.786,0,0,1,.207-5.554,36.7,36.7,0,0,1,1.181-7.518l-3.343.882c1.733,1.8,2.712,4.774,5.093,5.876a4.1,4.1,0,0,0,5.755-3.478,85.36,85.36,0,0,0-.094-10.847q-.264-5.591-.964-11.148a2.063,2.063,0,0,0-2-2,2.012,2.012,0,0,0-2,2Z"/><path class="a" d="M129.035,192.55a31.3,31.3,0,0,1-5.582-6.4c-1.276-2.258-4.217-8.474-4.967-12.222l-.588-2.94-.177,1.4c-.433,3.431-.76,6.285-.859,7.923-.28,4.636.463,22.5.946,27.115a16.513,16.513,0,0,1-.156,2.913c-12.569,0-66.428-.064-85.1-.069-.022-1.159-.278-2.131-.2-2.844.4-3.8.971-16.155,1-23H31.286c-3.607,0-23.37-1.533-25.3-2.452-.876-.263-.386-2.58.088-4.316,1.575-5.767,4.85-20.972,5.693-24.414,1.309-5.344,4.751-20.75,5.909-25.192.705-2.705,2.213-6.855,4.348-9.384a16.943,16.943,0,0,1,2.26-1.551,33.247,33.247,0,0,1,4.691-2.648,256.364,256.364,0,0,1,23.5-11.6,25.615,25.615,0,0,1,5.673-8.144,49.645,49.645,0,0,0,14.321,9.98c.3.134.627.3.722.61H75.76c.1-.311.426-.476.723-.61a49.641,49.641,0,0,0,14.32-9.98,24.832,24.832,0,0,1,5.2,7.159,248.345,248.345,0,0,1,25.852,12.587,43.737,43.737,0,0,1,3.946,2.1c.5.274,1.05.572,1.05.572a16.4,16.4,0,0,1,2.226,1.527c2.135,2.529,3.642,6.679,4.347,9.384,1.159,4.442,2.99,12.207,4.877,20.231a63.1,63.1,0,0,1,2.6,7.478l5.7,14.363Z"/><path class="a" d="M152.608,133.565c.921-1.858,2.116-3.69,2.614-4.865.689-1.625.226-4.363.714-6.048a22.03,22.03,0,0,1,4.891-8.963,96.364,96.364,0,0,1,8.221-8.6c1.313-1.244,2.634-2.083,4.275-.965,1.825,1.244,1.151,2.917.356,4.784-1.48,3.476-5.106,6.353-6.261,9.334,0,0-.07.182-.179.453,2.831-.6,10.953-2.006,12.483-2.355a19.269,19.269,0,0,0,3.975-1.868c2.685-1.261,5.683-3.175,8.592-3.749.793-.157,1.643.294,2.122.229,1.365-.88,4.187-.717,5.756-.29,5.6,2.589-.088,10.358-3.358,12.886-2.254,1.744-5.571,4.464-8.033,5.961a33.989,33.989,0,0,1-8.569,4.068,77.588,77.588,0,0,0-10.665,3.542c-1.874,1.3-4.026,2.6-5.171,6.343-2.167,11.242-4.214,32.821-6.332,39.973-2.087,7.049-2.85,12.475-9.36,16.555-3.545,2.223-6.773,3.2-10.63,1.163a11.931,11.931,0,0,1-6.161-13.091,54.97,54.97,0,0,1,3.962-12.285c3.478-7.169,13.329-34.587,16.573-41.828C152.483,133.821,152.545,133.693,152.608,133.565Z"/><path class="b" d="M53.73,100.192q-8.056,3.35-15.837,7.3c-2.416,1.23-4.813,2.5-7.2,3.783-2.473,1.331-5.234,2.464-7.474,4.169a2.065,2.065,0,0,0-.718,2.736,2.015,2.015,0,0,0,2.737.718,52.818,52.818,0,0,1,7.089-3.962c2.39-1.289,4.79-2.562,7.208-3.8,5-2.553,10.078-4.933,15.259-7.087a2.065,2.065,0,0,0,1.4-2.46,2.012,2.012,0,0,0-2.46-1.4Z"/><path class="b" d="M96.043,104.049c5.115,2.127,10.135,4.473,15.07,6.99,2.352,1.2,4.687,2.435,7.012,3.687,2.377,1.279,5.064,2.345,7.217,3.978a2.011,2.011,0,0,0,2.736-.717,2.049,2.049,0,0,0-.718-2.736c-2.154-1.635-4.838-2.7-7.216-3.979-2.45-1.319-4.91-2.619-7.39-3.879q-7.684-3.9-15.648-7.2a2.012,2.012,0,0,0-2.46,1.4,2.051,2.051,0,0,0,1.4,2.46Z"/><path class="b" d="M125.844,118.872a6.227,6.227,0,0,1,2.752,2.56,24.01,24.01,0,0,1,2.14,4.652c1.086,3.128,1.757,6.418,2.533,9.632q.727,3.015,1.44,6.034c.548,2.314.9,4.82,1.666,7.068.809,2.37,1.963,4.893,2.6,7.479.617,2.5,4.475,1.439,3.857-1.064-.346-1.4-.83-2.776-1.307-4.137a31.247,31.247,0,0,1-1.52-4.3c-.841-4.469-2.093-8.9-3.166-13.323a73.309,73.309,0,0,0-2.759-9.83,24.417,24.417,0,0,0-2.632-5.145,10.512,10.512,0,0,0-3.586-3.078c-2.239-1.277-4.257,2.178-2.019,3.454Z"/><path class="b" d="M23.243,115.418a12.32,12.32,0,0,0-2.631,1.84,15.226,15.226,0,0,0-2.628,4.16,38.022,38.022,0,0,0-2.5,7.166c-1.149,4.624-2.187,9.276-3.256,13.918Q9.309,155.179,6.4,167.857c-.585,2.541-1.174,5.082-1.817,7.609-.574,2.257-2.438,6.814.394,8.239,2.294,1.153,4.322-2.3,2.019-3.454.89.447.342.941.517.284.069-.26.079-.612.134-.879.116-.555.261-1.1.407-1.65.24-.894.468-1.791.69-2.691.55-2.231,1.071-4.469,1.585-6.709.993-4.323,1.944-8.654,2.934-12.977,1.849-8.072,3.709-16.147,5.641-24.2a50.588,50.588,0,0,1,1.841-6.376,21.08,21.08,0,0,1,2.159-4.24,6,6,0,0,1,2.356-1.941c2.236-1.275.223-4.732-2.019-3.454Z"/><path class="b" d="M116.557,174.456a45.887,45.887,0,0,0,4.109,10.668,28.911,28.911,0,0,0,6.955,8.84,2.047,2.047,0,0,0,2.828,0,2.018,2.018,0,0,0,0-2.828,25.959,25.959,0,0,1-6.329-8.031,41.538,41.538,0,0,1-3.7-9.712,2,2,0,0,0-3.858,1.063Z"/><path class="b" d="M162.442,142.931c-1.865,9.747-2.829,19.653-4.31,29.461a91.47,91.47,0,0,1-2.336,11.592c-1.289,4.5-2.3,9.293-5.889,12.594-1.926,1.773-4.707,3.576-7.393,3.685-2.739.112-5.5-1.7-7.041-3.885-3.222-4.57-1.348-10.227.29-15.031,1.189-3.486,2.861-6.789,4.256-10.2,1.592-3.891,3.1-7.816,4.609-11.741,1.848-4.817,3.672-9.643,5.525-14.457.777-2.017,1.557-4.033,2.358-6.04.638-1.6,1.081-2.7,1.638-3.954a2.062,2.062,0,0,0-.717-2.736,2.015,2.015,0,0,0-2.736.718c-3.357,7.526-6.082,15.356-9.023,23.049-1.641,4.293-3.284,8.586-5,12.848-1.388,3.441-3.017,6.615-4.359,10.3-2.027,5.569-3.923,11.821-1.289,17.5,2.661,5.743,9.45,9.2,15.48,6.726A19.778,19.778,0,0,0,157.778,191.3a79.56,79.56,0,0,0,3.4-12.835c2.042-11.438,2.941-23.059,5.125-34.474.482-2.515-3.373-3.593-3.857-1.063Z"/><path class="b" d="M128.671,177.379c.334-.453.669-.907,1-1.358q.24-.321.481-.641l.241-.318c.039-.051.371-.48.076-.1.665-.855,1.348-1.7,2.072-2.5a26.664,26.664,0,0,1,2.3-2.282c.2-.174.4-.345.611-.512,0,0,.4-.308.176-.141s.142-.1.184-.134c.485-.355.986-.685,1.5-1a2,2,0,1,0-2.019-3.454c-4.249,2.566-7.182,6.5-10.084,10.42a2.005,2.005,0,0,0,.717,2.736,2.059,2.059,0,0,0,2.737-.717Z"/><path class="b" d="M154.149,134.958c.78-1.608,1.754-3.109,2.548-4.708a11.322,11.322,0,0,0,.968-4.939,15.472,15.472,0,0,1,3.143-8.358,63.879,63.879,0,0,1,7.779-8.651c.62-.6,1.24-1.212,1.875-1.8.371-.342.924-.983,1.478-.876,1.2.234.1,2.151-.3,2.937-1.685,3.311-4.715,5.68-6.15,9.146a2.012,2.012,0,0,0,1.4,2.461,2.051,2.051,0,0,0,2.46-1.4,18.732,18.732,0,0,1,2.973-4.193,21.612,21.612,0,0,0,3.159-4.837c.773-1.788,1.491-3.752.508-5.619a4.872,4.872,0,0,0-5.294-2.38c-2.057.536-3.631,2.454-5.091,3.882-1.7,1.66-3.353,3.368-4.919,5.156a29.915,29.915,0,0,0-6.183,9.787,13.52,13.52,0,0,0-.778,3.418c-.084,1.039,0,2.1-.148,3.136a6.968,6.968,0,0,1-1.024,2.385c-.638,1.134-1.287,2.259-1.854,3.431-1.118,2.306,2.33,4.337,3.453,2.018Z"/><path class="b" d="M167.45,120.694c4.151-.924,8.383-1.456,12.536-2.367a16.815,16.815,0,0,0,4.17-1.85c1.571-.827,3.166-1.632,4.762-2.41a19.221,19.221,0,0,1,2.509-1.046,3.868,3.868,0,0,1,2.184-.146,3.743,3.743,0,0,0,2.123-.351,5.833,5.833,0,0,1,2.193-.194c2.376.114,2.992,1.27,2.317,3.333a14.449,14.449,0,0,1-4.051,5.792,62.829,62.829,0,0,1-7.237,5.557,34.2,34.2,0,0,1-9.28,4.636c-3.641,1.088-7.592,1.877-10.975,3.666a13.073,13.073,0,0,0-6.259,7.617c-.8,2.454,3.066,3.506,3.857,1.063a8.533,8.533,0,0,1,3.261-4.459,20.633,20.633,0,0,1,6.181-2.575c2.37-.725,4.81-1.282,7.125-2.175a42.131,42.131,0,0,0,6.746-3.444,63.8,63.8,0,0,0,5.968-4.308,37.368,37.368,0,0,0,4.289-3.587c2.375-2.51,4.956-6.153,4.631-9.8-.459-5.134-7.131-6.686-11.1-4.424l1.01-.273a19.474,19.474,0,0,0-2.122-.229,9.866,9.866,0,0,0-2.524.647,39.845,39.845,0,0,0-4.626,2.138c-2.218,1.15-4.429,2.617-6.9,3.1-3.945.768-7.93,1.358-11.853,2.231-2.512.559-1.449,4.416,1.063,3.857Z"/><path class="b" d="M174.947,123.08c-.269.044-.54.082-.81.124-.317.049.307-.038-.013,0l-.457.058c-.521.064-1.042.123-1.563.186-1.215.146-2.434.3-3.634.542a13.579,13.579,0,0,0-6.347,3.021,2.011,2.011,0,0,0,0,2.828,2.048,2.048,0,0,0,2.828,0c.095-.082.189-.164.285-.245.112-.093.2-.145.035-.027.225-.157.451-.31.686-.45.206-.124.418-.239.633-.347.106-.053.218-.1.324-.155.27-.145-.269.1.017-.011a17.267,17.267,0,0,1,2.962-.828c.483-.091.969-.163,1.455-.235.321-.047-.3.036.02,0l.368-.046c.276-.035.552-.067.829-.1,1.15-.136,2.3-.271,3.446-.458a2.007,2.007,0,0,0,1.4-2.46,2.057,2.057,0,0,0-2.46-1.4Z"/><path class="b" d="M191.586,111.735q-.538.547-1.123,1.043-.291.246-.591.48c.224-.175.054-.043-.077.054-.094.069-.188.138-.283.206a30.611,30.611,0,0,1-2.893,1.828q-1.443.81-2.952,1.492c-.233.106-.469.207-.7.31s.3-.119-.059.024l-.3.123q-.714.285-1.442.538a2,2,0,1,0,1.064,3.857c4.37-1.518,8.916-3.792,12.189-7.127a2,2,0,0,0-2.828-2.828Z"/><path class="b" d="M195.335,114.5a8.185,8.185,0,0,1-1.041,1.032c-.126.108-.258.209-.385.317-.348.294.364-.268-.014.011-.266.2-.531.392-.8.58-1.21.844-2.473,1.612-3.752,2.346q-1.845,1.059-3.748,2.017c-.5.252-1,.5-1.509.733-.186.086-.374.167-.561.253-.378.173.451-.177.152-.063-.081.031-.161.065-.241.1a2.045,2.045,0,0,0-1.4,2.46,2.023,2.023,0,0,0,2.46,1.4,50.1,50.1,0,0,0,6.863-3.439c1.321-.758,2.626-1.552,3.871-2.429a14.467,14.467,0,0,0,2.932-2.482,2.047,2.047,0,0,0,0-2.829,2.023,2.023,0,0,0-2.828,0Z"/><path class="b" d="M4.979,183.705a17.5,17.5,0,0,0,4.89,1c2.611.336,5.233.589,7.855.823,4.493.4,9.046.891,13.562.906,2.575.009,2.578-3.991,0-4-4.327-.015-8.688-.479-12.994-.856-2.555-.224-5.108-.467-7.654-.777-.637-.078-.842-.1-1.247-.161s-.807-.118-1.209-.188c-.311-.054-.625-.108-.933-.181-.237-.055-1.031-.364-.251-.016a2.061,2.061,0,0,0-2.736.717,2.016,2.016,0,0,0,.717,2.737Z"/><path class="b" d="M7.478,174.868c6.78.667,13.6,1.526,20.409,1.752,2.574.085,2.571-3.915,0-4-6.813-.226-13.629-1.085-20.409-1.752a2.014,2.014,0,0,0-2,2,2.043,2.043,0,0,0,2,2Z"/><path class="c" d="M62.768,116.46c-4.05-5.523-6.213-9.462-9.61-14.991a24.494,24.494,0,0,1,4.99-6.742,49.645,49.645,0,0,0,14.321,9.98c.3.134.627.3.722.61a1.15,1.15,0,0,1-.165.808C72.84,106.51,64.121,114.793,62.768,116.46Z"/><path class="c" d="M86.184,116.46c4.049-5.523,6.213-9.462,9.61-14.991A24.5,24.5,0,0,0,90.8,94.727a49.641,49.641,0,0,1-14.32,9.98c-.3.134-.627.3-.723.61a1.15,1.15,0,0,0,.166.808C76.111,106.51,84.83,114.793,86.184,116.46Z"/><path class="b" d="M64.5,115.45c-3.511-4.805-6.5-9.923-9.61-14.99v2.019a23.534,23.534,0,0,1,4.678-6.338H56.734a51.723,51.723,0,0,0,7.383,6.117q1.853,1.273,3.813,2.381.952.535,1.928,1.028.556.28,1.122.545c.159.076.319.149.479.222q.453.262,0-.108l-.273-1.009c-.01-.136.6-.711.278-.432-.106.091-.2.212-.3.313-.344.358-.7.706-1.051,1.056-1.062,1.052-2.133,2.1-3.2,3.144a76.239,76.239,0,0,0-5.567,5.647,2.058,2.058,0,0,0,0,2.829,2.015,2.015,0,0,0,2.828,0A107.669,107.669,0,0,1,72,110.019a16.327,16.327,0,0,0,2.744-2.867,2.886,2.886,0,0,0-1.265-4.172c-1.509-.772-3.03-1.485-4.491-2.352a47.307,47.307,0,0,1-9.424-7.316,2.038,2.038,0,0,0-2.829,0A25.78,25.78,0,0,0,52.3,98.905c-.722,1.21-1.52,2.356-.76,3.746.579,1.058,1.262,2.072,1.886,3.105,2.409,4,4.865,7.944,7.619,11.713a2.06,2.06,0,0,0,2.736.718A2.015,2.015,0,0,0,64.5,115.45Z"/><path class="b" d="M87.911,117.469c2.753-3.769,5.209-7.718,7.619-11.713.59-.978,1.21-1.943,1.78-2.934.821-1.428.193-2.475-.563-3.762a25.831,25.831,0,0,0-4.53-5.748,2.036,2.036,0,0,0-2.828,0,46.993,46.993,0,0,1-8.149,6.533,48.08,48.08,0,0,1-4.486,2.528c-1.567.774-3.426,1.594-2.943,3.748.313,1.4,1.606,2.384,2.579,3.344,1.5,1.479,3.007,2.947,4.5,4.426a55.143,55.143,0,0,1,3.874,3.983,2.016,2.016,0,0,0,2.829,0,2.046,2.046,0,0,0,0-2.829,76.436,76.436,0,0,0-5.567-5.647c-1.046-1.027-2.1-2.051-3.138-3.082-.361-.358-.723-.715-1.077-1.08-.1-.107-.2-.226-.311-.327-.313-.287.266.267.255.408l-.273,1.009q-.447.37.005.108l.32-.147c.375-.176.75-.354,1.121-.54q.977-.486,1.928-1.019,2.043-1.14,3.974-2.47a51.9,51.9,0,0,0,7.382-6.117H89.389a23.555,23.555,0,0,1,4.678,6.338V100.46c-3.108,5.067-6.1,10.185-9.61,14.99a2.015,2.015,0,0,0,.717,2.737A2.047,2.047,0,0,0,87.911,117.469Z"/><path class="b" d="M72.485,105.964c0,5.044-.035,10.088-.056,15.132q-.065,15.031-.135,30.061l-.162,35.258q-.072,15.353-.141,30.705-.038,8.2-.068,16.406c0,.187,0,.374,0,.561,0,2.574,4,2.578,4,0,0-4.669.035-9.339.056-14.009q.065-14.744.134-29.486.083-17.612.163-35.224.072-15.608.141-31.215.038-8.729.068-17.458c0-.244,0-.487,0-.731,0-2.574-4-2.578-4,0Z"/><path class="b" d="M110.732,140.045H94.649a2.028,2.028,0,0,0-2,2c0,1.882.024,3.764.026,5.646a2.028,2.028,0,0,0,2,2c5.352,0,10.7.025,16.057.026a2.03,2.03,0,0,0,2-2c0-1.883-.105-3.792,0-5.672a2,2,0,0,0-4,0c-.105,1.88,0,3.789,0,5.672l2-2c-5.353,0-10.7-.026-16.057-.026l2,2c0-1.882-.025-3.764-.026-5.646l-2,2h16.083C113.306,144.045,113.31,140.045,110.732,140.045Z"/><path class="b" d="M120.458,128.369c-.559,5.129-.754,10.3-1.227,15.436-.667,7.257-1.656,14.476-2.613,21.7-.677,5.11-1.6,10.293-1.786,15.453-.166,4.66.074,9.353.259,14.009.112,2.82.243,5.64.415,8.457.062,1.01.127,2.021.212,3.029.14,1.675-.158,3.313-.06,4.978.151,2.558,4.152,2.575,4,0-.09-1.533.235-3.033.095-4.571-.079-.869-.138-1.74-.195-2.61-.158-2.423-.277-4.848-.383-7.273-.215-4.915-.424-9.846-.369-14.767a118.566,118.566,0,0,1,1.456-14.009c.946-7.2,1.974-14.4,2.7-21.631.611-6.056.834-12.151,1.493-18.2a2.014,2.014,0,0,0-2-2,2.046,2.046,0,0,0-2,2Z"/><path class="b" d="M25.643,127.107c.63,5.351.92,10.746,1.455,16.108.716,7.17,1.67,14.315,2.506,21.472.626,5.362,1.361,10.747,1.684,16.139.272,4.53-.016,9.131-.194,13.66-.117,2.977-.256,5.953-.441,8.926-.065,1.06-.135,2.119-.227,3.177-.134,1.549.2,3.055.086,4.6-.188,2.568,3.813,2.556,4,0,.106-1.438-.248-2.841-.115-4.275.082-.885.144-1.773.2-2.66.167-2.522.293-5.046.4-7.571.215-4.912.461-9.854.331-14.771-.129-4.867-.871-9.759-1.425-14.59-.8-7.015-1.739-14.016-2.492-21.036-.686-6.382-1.023-12.807-1.774-19.181a2.062,2.062,0,0,0-2-2,2.012,2.012,0,0,0-2,2Z"/><path class="a" d="M99.991,421.97a30.543,30.543,0,0,0,3.457,13.93l-22.177-.431.085-12.459Z"/><path class="a" d="M50.966,421.97a30.531,30.531,0,0,1-3.458,13.93l22.178-.431L69.6,423.01Z"/><path class="b" d="M48.966,421.97a28.709,28.709,0,0,1-3.184,12.92,2.045,2.045,0,0,0,.717,2.737,2.021,2.021,0,0,0,2.736-.718,33.163,33.163,0,0,0,3.731-14.939,2,2,0,0,0-4,0Z"/><path class="b" d="M67.6,423.01l.085,12.459a2,2,0,0,0,4,0L71.6,423.01a2,2,0,0,0-4,0Z"/><path class="d" d="M28.361,464.491c-.115-.152-.225-.308-.328-.47a8.806,8.806,0,0,1-.583-7.38,24.178,24.178,0,0,1,3.787-6.607q5.483-7.488,11.587-14.49c1.587-1.82,3.381-3.717,5.753-4.164a3.568,3.568,0,0,0,1.774,3.742,8.375,8.375,0,0,0,4.278.966,23.745,23.745,0,0,0,16.619-6.615c-.028,5,.022,6.664,0,11.665a10.48,10.48,0,0,1-.439,3.607c-1.028,2.779-4.075,4.118-6.521,5.792-6.363,4.354-9.715,12.3-16.382,16.171a17.217,17.217,0,0,1-15.914.57A10.049,10.049,0,0,1,28.361,464.491Z"/><path class="b" d="M97.991,421.97a33.162,33.162,0,0,0,3.73,14.939,2,2,0,1,0,3.454-2.019,28.706,28.706,0,0,1-3.184-12.92,2,2,0,0,0-4,0Z"/><path class="b" d="M79.356,423.01l-.085,12.459a2,2,0,0,0,4,0l.085-12.459a2,2,0,0,0-4,0Z"/><path class="d" d="M122.6,464.491c.116-.152.226-.308.329-.47a8.806,8.806,0,0,0,.583-7.38,24.178,24.178,0,0,0-3.787-6.607q-5.483-7.488-11.588-14.49c-1.586-1.82-3.38-3.717-5.752-4.164a3.568,3.568,0,0,1-1.774,3.742,8.375,8.375,0,0,1-4.278.966,23.744,23.744,0,0,1-16.619-6.615c.027,5-.022,6.664,0,11.665a10.48,10.48,0,0,0,.439,3.607c1.027,2.779,4.075,4.118,6.521,5.792,6.363,4.354,9.714,12.3,16.382,16.171a17.217,17.217,0,0,0,15.914.57A10.037,10.037,0,0,0,122.6,464.491Z"/><path class="b" d="M30.088,463.481c-1.764-2.411-1.3-5.448-.01-7.975a55.541,55.541,0,0,1,5.739-8.271q3.174-4.14,6.559-8.113c1.829-2.153,3.807-5.161,6.733-5.814l-2.461-2.46a5.83,5.83,0,0,0,3.884,6.568c2.632,1.031,5.78.76,8.51.323a25.448,25.448,0,0,0,13.62-6.851l-3.414-1.415c-.022,4.261.165,8.554-.021,12.811-.093,2.138-1.178,3.407-2.892,4.565a57.267,57.267,0,0,0-5.2,3.609c-6.047,5.129-9.633,13.856-17.855,16-4.468,1.166-10.438.409-13.5-3.383a2.014,2.014,0,0,0-2.829,0,2.047,2.047,0,0,0,0,2.828c3.11,3.85,8.921,5.341,13.677,5.006a20.359,20.359,0,0,0,12.98-6.144c3.2-3.157,5.678-6.959,8.876-10.119a31.033,31.033,0,0,1,5.264-3.946,11.8,11.8,0,0,0,4.659-4.621c1.26-2.721.856-6.042.849-8.965-.006-2.548-.017-5.095,0-7.643a2.022,2.022,0,0,0-3.414-1.414,21.425,21.425,0,0,1-9.4,5.293,20.486,20.486,0,0,1-6.213.725c-1.138-.046-4.061-.4-3.718-2.166a2.028,2.028,0,0,0-2.461-2.46c-3.578.8-5.93,3.833-8.189,6.48q-4.026,4.72-7.782,9.663c-4.04,5.3-10.39,13.142-5.44,19.906a2.06,2.06,0,0,0,2.737.718A2.015,2.015,0,0,0,30.088,463.481Z"/><path class="b" d="M124.322,465.5c4.95-6.763-1.4-14.61-5.439-19.906q-3.764-4.933-7.782-9.663c-2.259-2.647-4.611-5.682-8.189-6.48a2.028,2.028,0,0,0-2.461,2.46c.343,1.767-2.586,2.121-3.718,2.166a20.486,20.486,0,0,1-6.213-.725,21.431,21.431,0,0,1-9.4-5.293,2.022,2.022,0,0,0-3.414,1.414c.012,2.269.006,4.537,0,6.806a48.17,48.17,0,0,0,.189,7.675c.812,5.083,5.969,6.587,9.377,9.571,3.39,2.968,5.9,6.763,8.938,10.058,3.234,3.5,7.2,6.272,11.985,7.069,5.372.9,12.207-.282,15.814-4.747a2.06,2.06,0,0,0,0-2.828,2.014,2.014,0,0,0-2.829,0c-2.682,3.32-7.738,4.319-11.787,3.738-4.287-.614-7.624-3.079-10.479-6.195-2.743-3-5.056-6.374-8-9.183a30.287,30.287,0,0,0-4.906-3.7c-1.437-.9-3.229-1.881-3.929-3.522a11.034,11.034,0,0,1-.371-4.221q0-1.774,0-3.549c.007-2.323.014-4.646,0-6.97L78.3,430.888a25.442,25.442,0,0,0,13.619,6.851c2.666.427,5.738.7,8.324-.252a5.865,5.865,0,0,0,4.07-6.639l-2.46,2.46c2.863.639,4.786,3.527,6.578,5.633q3.457,4.064,6.714,8.294a57.551,57.551,0,0,1,5.642,8.082c1.343,2.572,1.9,5.682.087,8.164a2.014,2.014,0,0,0,.717,2.737A2.044,2.044,0,0,0,124.322,465.5Z"/><path class="e" d="M75.262,427.287c9.392,1.952,31.386,2.186,36.318.541.446-7.365,1.259-80.473,3.246-113.47,1.672-27.779,2.988-61.11,4.619-78.508-19.195-.292-69.635-.6-88.785-.915,1.65,17.269,3.488,51.4,5.175,79.423,1.986,33,2.8,106.105,3.245,113.47,4.933,1.645,24.116,1.761,35.557-.425Z"/><path class="b" d="M28.943,236.069c1.449,15.232,2.184,30.539,3.041,45.812.845,15.05,1.846,30.1,2.485,45.156.552,13.006.91,26.021,1.229,39.034q.467,19.043.817,38.086c.15,7.548.213,15.106.516,22.65.014.34.029.681.049,1.021a2.076,2.076,0,0,0,1.468,1.929,28.76,28.76,0,0,0,6.56,1.006c3.1.242,6.206.307,9.31.289a115.864,115.864,0,0,0,20.75-1.721c2.527-.476,1.457-4.332-1.063-3.857a110,110,0,0,1-19.687,1.578c-3.012.017-6.028-.045-9.032-.268a22.915,22.915,0,0,1-5.774-.884l1.468,1.928c-.389-6.554-.356-13.152-.486-19.714q-.368-18.477-.774-36.954c-.31-13.237-.658-26.474-1.172-39.705-.554-14.274-1.488-28.53-2.285-42.793-.9-16.1-1.693-32.213-3.036-48.281q-.18-2.157-.384-4.312a2.054,2.054,0,0,0-2-2,2.014,2.014,0,0,0-2,2Z"/><path class="b" d="M117.488,235.4c-1.442,15.164-2.062,30.414-2.851,45.622-.783,15.107-1.765,30.207-2.416,45.32-.563,13.072-.924,26.153-1.247,39.234q-.471,19.155-.824,38.315c-.151,7.636-.214,15.282-.521,22.914-.014.34-.028.681-.049,1.021l1.469-1.928a12.833,12.833,0,0,1-1.908.428c-.632.1-1.358.18-2.307.261-2.357.2-4.725.282-7.09.317a164.851,164.851,0,0,1-16.543-.562,64.417,64.417,0,0,1-7.407-.986c-2.513-.513-3.588,3.341-1.064,3.857a96.613,96.613,0,0,0,15.389,1.558,138.519,138.519,0,0,0,16.109-.135,25.715,25.715,0,0,0,5.884-.881,2.075,2.075,0,0,0,1.468-1.929c.394-6.636.359-13.317.491-19.962q.37-18.6.781-37.2c.313-13.315.665-26.631,1.189-39.94.564-14.34,1.5-28.664,2.248-43,.834-16.035,1.518-32.093,2.826-48.1q.173-2.117.373-4.233a2.016,2.016,0,0,0-2-2,2.043,2.043,0,0,0-2,2Z"/><path class="b" d="M73.478,266.71c-.443,4.851-.392,9.769-.431,14.635-.06,7.289-.032,14.579.009,21.868.06,10.326.178,20.65.163,30.976q-.024,16.989-.066,33.979-.035,19.2-.038,38.407,0,6.947.033,13.892c.012,2.194-.077,4.427.089,6.616a2.308,2.308,0,0,0,1.016,1.931,2.011,2.011,0,0,0,2.736-.718,2.052,2.052,0,0,0-.717-2.736l0,0,.717.718c.179.332.251,1.395.238.561,0-.35-.02-.7-.027-1.051-.023-1.234-.031-2.467-.04-3.7-.03-4.269-.036-8.539-.041-12.808q-.02-18.746.03-37.492.03-17.52.068-35.039c.016-9.554-.061-19.107-.128-28.661-.089-12.965-.414-26,.23-38.957.04-.807.088-1.614.161-2.418a2.014,2.014,0,0,0-2-2,2.043,2.043,0,0,0-2,2Z"/><path class="d" d="M32.358,210.384c-.334,7.424-6.19,95.539-6.577,111.535,7.054,2.384,82.922,3.824,98.628.486-1.778-21.806-5.026-103.033-5.693-112.067Z"/><path class="b" d="M30.358,210.384c-.189,4.15-.486,8.3-.746,12.443q-.753,12.039-1.517,24.078-.91,14.442-1.8,28.885-.819,13.374-1.584,26.75c-.337,6.022-.692,12.046-.893,18.074q-.021.652-.038,1.305a2.044,2.044,0,0,0,1.468,1.929,22,22,0,0,0,4.38.732c2.389.271,4.789.444,7.187.6,6.995.451,14,.691,21.011.872,16.336.422,32.716.551,49.047-.1,5.989-.24,12.18-.377,18.067-1.613a2.006,2.006,0,0,0,1.468-1.929c-1.216-14.976-1.8-30.015-2.52-45.021-.832-17.358-1.594-34.719-2.405-52.078-.232-4.988-.4-9.987-.768-14.968-.187-2.552-4.188-2.572-4,0,.874,11.939,1.182,23.938,1.727,35.894.829,18.218,1.651,36.436,2.627,54.647.385,7.177.757,14.361,1.339,21.526l1.468-1.928c-.411.086-.825.163-1.239.233q-.315.053-.63.1l-.4.058c-.058.009-.626.086-.287.041.276-.037-.473.059-.607.075-.257.031-.513.06-.77.089q-1,.109-1.994.2c-2.955.269-5.918.442-8.882.58-7.621.354-15.254.471-22.883.5-15.661.07-31.355-.145-46.993-1.035-2.884-.165-5.77-.351-8.644-.645-.511-.052-1.02-.11-1.53-.17l-.345-.044c-.4-.048.52.077.042.006-.215-.032-.43-.062-.645-.1a11.323,11.323,0,0,1-1.759-.383l1.468,1.928c.136-5.5.469-10.993.771-16.484q.717-13.082,1.531-26.158.882-14.5,1.8-29,.783-12.46,1.571-24.921c.3-4.759.619-9.518.869-14.28.013-.229.024-.459.035-.689.117-2.574-3.884-2.568-4,0Z"/><path class="b" d="M32.482,212.273q16.4,0,32.8.022,18.926.018,37.851.035,6.942.006,13.885.008c2.574,0,2.579-4,0-4q-14.739,0-29.479-.022-19.389-.018-38.778-.035-8.138-.006-16.276-.008c-2.574,0-2.578,4,0,4Z"/><path class="b" d="M41.44,225.775c18.629-.518,37.3-.479,55.928-.218,4.063.056,8.127.126,12.188.283,2.574.1,2.57-3.9,0-4-18.08-.7-36.228-.516-54.316-.313-4.6.051-9.2.12-13.8.248-2.568.071-2.579,4.071,0,4Z"/><path class="b" d="M95.309,223.5c.14,2.913.366,5.831.7,8.728a2.181,2.181,0,0,0,.586,1.414,2.033,2.033,0,0,0,1.414.586c.98-.044,2.13-.887,2-2-.338-2.9-.564-5.815-.7-8.728a2,2,0,0,0-4,0Z"/><path class="d" d="M41.02,21.639A39.029,39.029,0,0,1,63.076,4.233C78.034-.08,97.292.88,106.926,16.077c5.048,7.963,6.152,17.659,2.938,29.105a4,4,0,0,1-1.08,4.839c-1.87,1.4-5.733.268-7.662-.28-10.193-2.9-18.194-2.688-28.691-2.2a70.74,70.74,0,0,0-16.252,2.208c-2.354.673-13.934,4.673-14.147-.589l-.813-1.516c-9.145-.6-3.98-18.931-1.559-23.591Q40.3,22.822,41.02,21.639Z"/><path class="b" d="M41.219,45.647A2.876,2.876,0,0,1,39.1,44.5a7.694,7.694,0,0,1-1.029-3.318,29.357,29.357,0,0,1,1.114-9.771,44.734,44.734,0,0,1,1.322-4.28c.1-.272.206-.542.31-.813a2.4,2.4,0,0,1,.2-.471c.341-.735.72-1.449,1.121-2.154a39.445,39.445,0,0,1,9.879-11.527c7.117-5.589,16.239-7.93,25.176-8.141,8.491-.2,17.338,1.889,23.678,7.837a27.95,27.95,0,0,1,7.855,13.322c1.56,5.993,1.045,12.26-.449,18.209-.628,2.5,3.229,3.563,3.857,1.064A42.437,42.437,0,0,0,113,25.969a32.3,32.3,0,0,0-6.964-14.462C99.653,3.877,89.887.407,80.161.04,70.252-.335,59.6,1.911,51.406,7.665a40.142,40.142,0,0,0-15.821,21.72c-1.759,6.3-4.07,19.463,5.634,20.262,2.565.212,2.551-3.789,0-4Z"/><path class="b" d="M42.817,48.784a57.5,57.5,0,0,1,10.652-5.818,53.007,53.007,0,0,1,15.4-3.41c9.371-.716,19.4-.873,28.541,1.66.769.213,1.531.449,2.283.717.306.109.609.225.911.343.1.039.457.188.059.019.146.062.291.124.434.191A14.97,14.97,0,0,1,103.745,44a2.012,2.012,0,0,0,2.736-.717,2.047,2.047,0,0,0-.718-2.736,20.547,20.547,0,0,0-6.1-2.835,55.148,55.148,0,0,0-11.212-2.084,114,114,0,0,0-17.187-.221,61.627,61.627,0,0,0-17.287,3.116A59.96,59.96,0,0,0,40.8,45.33c-2.133,1.419-.133,4.885,2.019,3.454Z"/><path class="b" d="M40.032,49.163c.338,4.834,5.483,4.952,9.179,4.4,3.971-.6,7.72-2.111,11.661-2.854,6.775-1.276,13.879-1.42,20.758-1.451a70.282,70.282,0,0,1,19.459,2.558c2.669.745,6.215,1.645,8.7-.063,2.688-1.844,3.411-6.138,1.038-8.508-1.824-1.821-4.654,1.006-2.829,2.828a1.554,1.554,0,0,1,.009,1.808c-.461.845-1.292.846-2.177.81-2.339-.1-4.653-1.047-6.91-1.589a73.019,73.019,0,0,0-17.509-1.843,144.073,144.073,0,0,0-18.607,1.112,107.436,107.436,0,0,0-11.428,2.675,20.549,20.549,0,0,1-5.371.8c-.15,0-.3-.009-.449-.014-.036,0-.654-.072-.313-.019-.2-.031-1.088-.324-.786-.177-.126-.061-.244-.156-.37-.212q-.18-.122.082.057-.228-.247,0,.034c.023,0-.184-.278-.165-.287.063-.03.05.282.026-.058-.178-2.553-4.179-2.573-4,0Z"/><path class="b" d="M86.267,21.134a27.22,27.22,0,0,1,3.509-.083c.646.027,1.288.083,1.931.152l.205.025c-.155-.022-.161-.022-.018,0s.273.041.41.064q.513.085,1.022.2c.608.132,1.211.29,1.8.481.3.094.583.2.873.307.607.22-.154-.076.182.07q.233.1.461.213a12.366,12.366,0,0,1,1.559.9c-.01-.007.418.3.277.192s.266.222.258.215c.248.214.482.442.71.678a2,2,0,0,0,2.828-2.828c-3.986-4.142-10.535-5.055-16.01-4.577a2.053,2.053,0,0,0-2,2,2.016,2.016,0,0,0,2,2Z"/><path class="b" d="M68.6,77.5a12.777,12.777,0,0,0,6.155,1.433,10.112,10.112,0,0,0,6.3-1.9,2,2,0,0,0,0-2.829,2.064,2.064,0,0,0-2.829,0c.685-.534-.069.017-.288.132-.171.089-.637.229-.024.031-.17.055-.335.128-.505.183-.216.069-.434.128-.654.179-.118.028-.7.061-.76.144.068-.095.392-.045-.012-.005-.139.014-.277.025-.416.034-.335.022-.67.031-1,.029q-.45,0-.9-.033c-.137-.009-.275-.02-.412-.034-.078-.008-.156-.016-.235-.026q-.233-.028.159.021a3.771,3.771,0,0,1-1.321-.293c-.185-.056-.365-.122-.548-.184-.463-.159.4.193-.018,0-.227-.107-.45-.218-.671-.335A2,2,0,1,0,68.6,77.5Z"/><path class="b" d="M73.532,63.272a27.862,27.862,0,0,1,.654,2.993l-.071-.532a1.84,1.84,0,0,1,.011.413l.071-.532a.971.971,0,0,1-.045.186l.2-.478a.772.772,0,0,1-.065.12l.313-.4a.636.636,0,0,1-.1.1l.405-.312a2.143,2.143,0,0,1-.237.125l.477-.2a1.678,1.678,0,0,1-.4.117l.532-.072a1.622,1.622,0,0,1-.375,0l.531.071c-.141-.019-.28-.054-.421-.073a1.526,1.526,0,0,0-.8-.036,1.487,1.487,0,0,0-.743.238,2,2,0,0,0-.718,2.736,1.912,1.912,0,0,0,1.195.919c.364.049.716.14,1.086.156a3.547,3.547,0,0,0,1.652-.4,2.485,2.485,0,0,0,1.347-1.626,3.886,3.886,0,0,0-.014-1.7c-.163-.964-.386-1.92-.634-2.865a2.061,2.061,0,0,0-.919-1.2,2,2,0,0,0-2.736.717,2.1,2.1,0,0,0-.2,1.541Z"/><path class="b" d="M58.159,54.674c-.5,1.624-.174,5.36,2.9,5.678,4.066-.025,4.283-4.541,2.914-6.665C62.854,51.949,59.559,51.225,58.159,54.674Z"/><path class="b" d="M90.721,54.674c.5,1.624.174,5.36-2.9,5.678-4.067-.025-4.283-4.541-2.914-6.665C86.025,51.948,89.321,51.225,90.721,54.674Z"/></svg>