<?xml version="1.0" encoding="utf-8"?>
<!-- Uploaded to: SVG Repo, www.svgrepo.com, Generator: SVG Repo Mixer Tools -->
<svg width="800px" height="800px" viewBox="-12.26 0 399.064 399.064" xmlns="http://www.w3.org/2000/svg"><defs><style>.a{fill:#ffffff;}.b{fill:#211715;}.c{fill:#645d5c;}.d{fill:#f2635f;}</style></defs><path class="a" d="M177.656,196.557c-.965-.425-8.125-3.733-8.552-3.887-6.454-2.33-6.2-6.48-7.013-11.122a106.527,106.527,0,0,1-1.433-16.189c12.5-7.6,22.17-23.958,24-28.918.3-.923.924-2.661,1.475-4.724l1.15-.178A14.438,14.438,0,0,0,194,128.511a21.784,21.784,0,0,0,5.635-7.395,34.293,34.293,0,0,0,3.5-18.173,11.448,11.448,0,0,0-1.2-4.6,8.093,8.093,0,0,0-5.818-3.868,8.568,8.568,0,0,0-6.857,2.006s1.96-47.043-56.578-47.043c-48.971,0-57.822,32.71-58.4,43.633a31.678,31.678,0,0,0-.028,3.41,8.568,8.568,0,0,0-6.857-2.006,8.093,8.093,0,0,0-5.818,3.868,11.448,11.448,0,0,0-1.2,4.6,34.293,34.293,0,0,0,3.5,18.173,21.784,21.784,0,0,0,5.635,7.395,14.438,14.438,0,0,0,6.718,3.028l2.189.335a58.321,58.321,0,0,0,11.112,21.691,52.909,52.909,0,0,0,13.39,11.724,124.417,124.417,0,0,1-1.413,16.26c-.82,4.64-.56,8.79-7.02,11.12-.42.16-3.6,1.28-4.39,1.62,0,0,7.429,22.136,41.207,22.136S177.656,196.557,177.656,196.557Z"/><path class="b" d="M190.953,98.176a6.086,6.086,0,0,1,8.536.787c1.206,1.586,1.283,3.851,1.346,5.754a30.805,30.805,0,0,1-.393,6.224c-1.31,7.59-5.34,16.839-13.8,18.284a2.419,2.419,0,0,0-1.676,2.952,2.455,2.455,0,0,0,2.952,1.676c8.53-1.456,13.618-9.419,16.046-17.088a36.039,36.039,0,0,0,1.629-12.935c-.253-4.208-1.462-8.182-5.325-10.4a11.07,11.07,0,0,0-12.709,1.352,2.421,2.421,0,0,0,0,3.394,2.449,2.449,0,0,0,3.394,0Z"/><path class="b" d="M184.792,125.159a28.746,28.746,0,0,1-1.344,7.223c-.272.918-.571,1.827-.876,2.734-.09.265-.174.533-.272.8-.028.077-.061.152-.088.229-.191.541.079-.17.006-.009a58.85,58.85,0,0,1-3.789,6.949,68.42,68.42,0,0,1-15.341,17.694,29.138,29.138,0,0,1-11.321,5.721c-3.01.69-1.736,5.319,1.276,4.629,8.541-1.96,15.688-8.121,21.32-14.561A73.337,73.337,0,0,0,186.212,138.9a37.276,37.276,0,0,0,3.38-13.737c.1-3.089-4.7-3.086-4.8,0Z"/><path class="b" d="M75.946,94.782A11.02,11.02,0,0,0,64.8,92.7c-4.128,1.632-6.2,5.09-6.727,9.378A35.005,35.005,0,0,0,64.2,126.305c2.8,3.784,6.655,6.741,11.386,7.548a2.47,2.47,0,0,0,2.952-1.676,2.42,2.42,0,0,0-1.676-2.952c-8.459-1.445-12.49-10.695-13.8-18.284a30.8,30.8,0,0,1-.393-6.223c.063-1.9.142-4.172,1.346-5.755a6.086,6.086,0,0,1,8.536-.787,2.462,2.462,0,0,0,3.394,0,2.421,2.421,0,0,0,0-3.394Z"/><path class="b" d="M74.255,124.289a68.9,68.9,0,0,0,8.634,24.094c4.968,8.172,12.183,15.556,20.7,20.03a39.844,39.844,0,0,0,14.534,4.383,2.415,2.415,0,0,0,2.4-2.4,2.454,2.454,0,0,0-2.4-2.4c-17.283-1.785-30.737-17.268-36.157-32.842a76.8,76.8,0,0,1-3.077-12.141,2.421,2.421,0,0,0-2.952-1.677,2.456,2.456,0,0,0-1.677,2.953Z"/><path class="c" d="M69.627,39.093c9.584-15.785,24.488-27.706,41.221-32.531C138.8-1.5,174.794.3,192.8,28.7c9.433,14.881,11.5,33,5.492,54.394,1.685,2.717.5,7.156-2.019,9.043-3.5,2.619-10.715.5-14.32-.523-19.05-5.413-34-5.023-53.621-4.107-10.988.514-20.93,1.428-30.373,4.128-4.4,1.257-26.041,8.732-26.439-1.1L70,87.7c-17.09-1.122-7.438-35.38-2.913-44.089Q68.283,41.3,69.627,39.093Z"/><path class="b" d="M70,85.3c-.183-.014-.366-.029-.548-.049-.415-.044.557.116-.1-.02-.266-.055-.533-.1-.8-.175-.316-.083-.623-.186-.931-.3-.42-.152-.028-.012.049.024-.169-.079-.337-.16-.5-.248-.27-.144-.522-.309-.78-.474-.1-.065-.2-.14-.293-.212.419.317.149.114.065.037-.223-.2-.444-.4-.651-.621-.125-.133-.67-.817-.324-.35a11,11,0,0,1-.891-1.422q-.224-.426-.415-.871c.217.506-.132-.382-.186-.543a17.6,17.6,0,0,1-.5-1.8c-.08-.352-.15-.707-.213-1.063-.025-.145-.048-.291-.072-.437-.117-.726.052.487-.036-.252-.764-6.448.285-12.449,1.808-18.632A85.46,85.46,0,0,1,67.195,49.5q.3-.839.623-1.668c.1-.257.2-.513.306-.769a3,3,0,0,1,.191-.454c.556-1.263,1.194-2.48,1.865-3.687a75.454,75.454,0,0,1,18.448-22A66.513,66.513,0,0,1,113.013,8.449a101.307,101.307,0,0,1,24.032-3.617c16.187-.414,33.037,3.576,45.174,14.841A53.174,53.174,0,0,1,196.55,42.255a63.452,63.452,0,0,1,1.828,29.36c-.455,2.854-1.059,5.68-1.769,8.481-.759,2.995,3.869,4.273,4.629,1.276,2.793-11.023,3.813-22.541,1.638-33.767a58.965,58.965,0,0,0-12.791-26.632C178.387,7.074,160.6.748,142.831.066a102.515,102.515,0,0,0-26.112,2.521A74.832,74.832,0,0,0,90.257,13.753,79.267,79.267,0,0,0,68.964,35.647a64.247,64.247,0,0,0-8.149,18.081c-1.835,6.514-3.19,13.442-2.937,20.238.21,5.662,1.788,12.41,7.459,15A13.364,13.364,0,0,0,70,90.1a2.421,2.421,0,0,0,2.4-2.4A2.448,2.448,0,0,0,70,85.3Z"/><path class="b" d="M72.311,88.669A108.881,108.881,0,0,1,92.364,77.731a100.341,100.341,0,0,1,29.644-6.516,222.611,222.611,0,0,1,32.615-.154,105.794,105.794,0,0,1,20.892,3.371c1.4.392,2.8.826,4.169,1.317q.912.326,1.811.686c.216.087.911.384.341.137.288.125.576.251.862.381a26.358,26.358,0,0,1,4.83,2.774,2.416,2.416,0,0,0,3.284-.861,2.457,2.457,0,0,0-.861-3.283,37.168,37.168,0,0,0-11.173-5.192,102.233,102.233,0,0,0-20.823-3.849,214.1,214.1,0,0,0-31.854-.379c-10.884.588-21.716,2.157-32.023,5.816a110.6,110.6,0,0,0-24.19,12.545c-2.559,1.7-.158,5.864,2.423,4.145Z"/><path class="b" d="M69.119,90.533c.471,8.381,10.417,7.786,16.405,6.774,7.17-1.211,13.967-3.907,21.116-5.234a147.392,147.392,0,0,1,18.806-2.021c6.44-.354,12.9-.634,19.346-.684A129.062,129.062,0,0,1,180.85,93.8c4.874,1.365,10.79,3.278,15.665.982,5.036-2.373,6.793-10.456,2.637-14.37-2.248-2.117-5.648,1.271-3.394,3.395,1.181,1.112,1.127,2.931.477,4.5a3.932,3.932,0,0,1-3.257,2.61c-4.161.679-8.705-1.19-12.691-2.242a132.064,132.064,0,0,0-33.782-4.106c-5.9,0-11.8.249-17.7.523-6.089.283-12.168.7-18.21,1.525a92.009,92.009,0,0,0-14.171,2.976c-2.582.779-5.164,1.552-7.788,2.183a34.632,34.632,0,0,1-10.445,1.343c-.182-.01-1.283-.12-.757-.046a10.634,10.634,0,0,1-1.09-.209,9.817,9.817,0,0,1-.993-.306c.573.208-.293-.168-.458-.257a3.247,3.247,0,0,1-.352-.233c.507.357.067.057-.019-.049-.065-.08-.153-.162-.225-.237-.233-.242.044.364-.059-.111a2.018,2.018,0,0,0-.2-.368c.272.535.03.073,0-.077-.025-.117-.059-.238-.088-.354-.093-.36.006.356-.033-.331-.172-3.071-4.973-3.091-4.8,0Z"/><path class="b" d="M154.19,36.811c8.6-.752,19.257.175,25.58,6.757,2.145,2.232,5.536-1.165,3.394-3.394-7.2-7.493-19.1-9.027-28.974-8.163a2.463,2.463,0,0,0-2.4,2.4,2.417,2.417,0,0,0,2.4,2.4Z"/><path class="b" d="M90.731,196.6c2.434-1.017,5.117-1.612,7.385-2.994a10.934,10.934,0,0,0,5.011-7.257,113.1,113.1,0,0,0,2.2-21.063c.075-3.09-4.725-3.089-4.8,0a125.068,125.068,0,0,1-1.869,18.989c-.407,2.269-.924,3.946-2.961,5.187-1.911,1.163-4.186,1.652-6.238,2.509a2.481,2.481,0,0,0-1.677,2.953,2.417,2.417,0,0,0,2.953,1.676Z"/><path class="b" d="M158.262,165.98a109.187,109.187,0,0,0,.837,11.584,88.9,88.9,0,0,0,1.424,9.051,10.86,10.86,0,0,0,4.531,6.725,12.672,12.672,0,0,0,2.066,1.1,6.82,6.82,0,0,0,1.346.542c.015-.014-.628-.281-.285-.119.778.367,1.569.706,2.351,1.063,1.971.9,3.932,1.824,5.913,2.7a2.476,2.476,0,0,0,3.284-.861,2.418,2.418,0,0,0-.861-3.283c-2.131-.944-4.24-1.939-6.36-2.905-2.062-.94-4.893-1.763-6.172-3.44a7.607,7.607,0,0,1-1.35-3.593c-.3-1.608-.527-3.238-.783-4.854a100.108,100.108,0,0,1-1.141-13.713c-.057-3.085-4.857-3.095-4.8,0Z"/><path class="a" d="M51.111,393.927v2.736H11.843c-.306-6.756,2.765-47.584,3.406-55.288,12.578,1.389,30.952,2.7,35.521,2.7H51.1C51.107,354.612,51.111,371.4,51.111,393.927Z"/><path class="a" d="M234.21,359.314c-4.406-3.833-8.955-9.328-10.474-12.017a119.1,119.1,0,0,1-8.386-19.338q-.369,5.472-.687,10.957c0,10.077-.005,29.642-.005,57.744-5.678,0-82.355,0-163.547,0,0-23.905,0-41.632,0-52.6-.22.009-.336.009-.336.009-6.771,0-43.859-2.877-47.475-4.6-1.644-.493-.724-4.841.165-8.1,2.957-10.822,9.1-39.357,10.684-45.817,2.456-10.028,8.916-38.94,11.089-47.277,1.324-5.076,4.153-12.863,8.159-17.61a30.86,30.86,0,0,1,4.254-2.906c2.57-2.029,5.916-3.41,8.792-4.974,14.786-8.041,27.735-14.823,44.1-21.776a48.005,48.005,0,0,1,10.644-15.281,93.13,93.13,0,0,0,26.874,18.729c.556.252,1.177.561,1.356,1.145h4.821c.18-.584.8-.893,1.356-1.145a93.134,93.134,0,0,0,26.875-18.729,46.635,46.635,0,0,1,9.766,13.441c18.509,7.607,32.423,14.865,48.512,23.616a80.98,80.98,0,0,1,7.4,3.943l1.971,1.072a30.691,30.691,0,0,1,4.178,2.865c4.007,4.747,6.835,12.534,8.159,17.61,2.174,8.337,5.611,22.91,9.152,37.967a118.539,118.539,0,0,1,4.88,14.034l9.068,4.086-22.223,63.556Z"/><path class="b" d="M11.843,399.064H215.015c3.088,0,3.093-4.8,0-4.8H11.843c-3.089,0-3.094,4.8,0,4.8Z"/><path class="b" d="M93.249,187.293a488.614,488.614,0,0,0-45.086,21.831c-4.144,2.241-8.6,4.122-12.338,7.025a2.413,2.413,0,0,0,0,3.394,2.462,2.462,0,0,0,3.395,0c3.03-2.357,6.835-3.819,10.2-5.641q5.345-2.9,10.721-5.733c6.972-3.658,14.016-7.177,21.17-10.467q6.554-3.013,13.218-5.78a2.48,2.48,0,0,0,1.676-2.953,2.415,2.415,0,0,0-2.952-1.676Z"/><path class="b" d="M172.655,191.922a470.481,470.481,0,0,1,42.97,20.822c1.957,1.057,3.894,2.153,5.891,3.133a33.7,33.7,0,0,1,5.961,3.309,2.48,2.48,0,0,0,3.394,0,2.416,2.416,0,0,0,0-3.394c-3.308-2.567-7.217-4.155-10.88-6.141q-5.34-2.9-10.715-5.725c-7.106-3.727-14.29-7.306-21.586-10.646q-6.822-3.124-13.759-5.987a2.415,2.415,0,0,0-2.952,1.676,2.463,2.463,0,0,0,1.676,2.953Z"/><path class="b" d="M228.906,219.876a13.572,13.572,0,0,1,4.14,3.04,34.354,34.354,0,0,1,3.865,6.749,78.555,78.555,0,0,1,4.333,13.585c1.392,5.557,2.724,11.127,4.05,16.7q1.182,4.973,2.353,9.948.6,2.523,1.188,5.046a14.326,14.326,0,0,0,.7,2.513c.2.453.294.646.351.786a88.9,88.9,0,0,1,4.288,12.675c.726,3,5.356,1.73,4.629-1.276a92.494,92.494,0,0,0-3.9-11.706c-.351-.9-.891-1.814-1.145-2.738-.424-1.542-.706-3.295-1.085-4.9q-1.21-5.139-2.428-10.276c-1.39-5.856-2.787-11.711-4.245-17.55a91.422,91.422,0,0,0-4.544-14.33,37.96,37.96,0,0,0-4.792-8.333,17.376,17.376,0,0,0-5.332-4.075c-2.7-1.509-5.122,2.636-2.423,4.145Z"/><path class="b" d="M36.359,215.731a18.159,18.159,0,0,0-4.889,3.513,32.945,32.945,0,0,0-4.674,7.641,71.983,71.983,0,0,0-4.465,13.086c-2.117,8.575-4.05,17.2-6.031,25.8q-5.384,23.388-10.746,46.78c-1.119,4.87-2.246,9.74-3.469,14.585-.549,2.177-1.21,4.337-1.648,6.54-.579,2.911-1.135,6.75,2.22,8.108a2.416,2.416,0,0,0,2.952-1.677,2.459,2.459,0,0,0-1.676-2.952l.879.67c.089.279.091.276,0-.009.106-.373-.024.06-.029-.413a9.671,9.671,0,0,1,.082-1.35,31.171,31.171,0,0,1,.906-4.045q.645-2.4,1.243-4.811c1.038-4.183,2.016-8.381,2.983-12.581,1.9-8.276,3.726-16.571,5.62-24.85,3.494-15.27,7.012-30.544,10.671-45.775a90.168,90.168,0,0,1,3.659-12.388,39.463,39.463,0,0,1,4.2-8,12.156,12.156,0,0,1,4.631-3.725c2.7-1.508.28-5.655-2.422-4.145Z"/><path class="b" d="M212.811,327.848a106.862,106.862,0,0,0,7.695,18.5,51.412,51.412,0,0,0,12.007,14.664c2.314,2.03,5.722-1.352,3.395-3.4a47.794,47.794,0,0,1-11.258-13.691,100.119,100.119,0,0,1-7.21-17.353c-.871-2.957-5.5-1.7-4.629,1.276Z"/><path class="b" d="M232.358,330.158c4.792-6.48,9.7-13.108,16.718-17.346,2.642-1.594.232-5.747-2.422-4.144-7.764,4.687-13.137,11.9-18.44,19.068a2.416,2.416,0,0,0,.861,3.283,2.455,2.455,0,0,0,3.283-.861Z"/><path class="a" d="M278.433,248.654c1.729-3.5,3.985-6.954,4.923-9.165,1.293-3.05.424-8.19,1.338-11.35,2.088-7.212,4.575-11.262,9.179-16.821a181.045,181.045,0,0,1,15.429-16.14c2.464-2.334,4.942-3.909,8.022-1.81,3.426,2.335,2.16,5.474.669,8.977-2.778,6.524-9.583,11.924-11.75,17.517l-.327.846c5.3-1.13,20.545-3.761,23.417-4.415s4.852-2.281,7.459-3.506c5.039-2.367,10.665-5.958,16.126-7.036,1.487-.294,3.083.552,3.981.431,2.562-1.652,7.858-1.346,10.8-.545,10.517,4.859-.165,19.438-6.3,24.184-4.23,3.271-10.456,8.377-15.076,11.185-5,3.036-9.581,5.726-16.08,7.634-6.146,1.805-14.2,3.88-20.015,6.647-3.518,2.445-7.555,4.877-9.7,11.905-4.066,21.1-7.908,61.594-11.882,75.015-3.917,13.23-5.349,23.411-17.566,31.069-6.652,4.17-12.711,6.013-19.949,2.181-9.718-5.145-13.3-15.066-11.562-24.567A103.188,103.188,0,0,1,247,327.836c6.528-13.454,25.015-64.908,31.1-78.5C278.209,249.111,278.32,248.882,278.433,248.654Z"/><path class="b" d="M298.21,266.554c-3.573,18.609-5.374,37.531-8.236,56.254a180.3,180.3,0,0,1-4.574,21.976c-2.494,8.825-4.773,17.8-12.088,23.947-3.906,3.285-9.239,6.474-14.5,6.419-5.138-.053-10.226-3.388-13.278-7.386a20.3,20.3,0,0,1-3.994-12.622c.078-5.434,1.929-10.99,3.616-16.105,2.244-6.8,5.465-13.2,8.182-19.815,3.011-7.334,5.86-14.735,8.7-22.136,5.619-14.643,10.955-29.42,16.993-43.9.076-.183.408-.968.164-.395.107-.252.214-.5.323-.756q.319-.746.651-1.487a2.475,2.475,0,0,0-.861-3.283,2.417,2.417,0,0,0-3.284.861c-2.6,5.827-4.871,11.813-7.172,17.765-3.206,8.3-6.354,16.612-9.529,24.919-3.044,7.966-6.093,15.932-9.277,23.843q-.963,2.393-1.949,4.775c-.542,1.3-.881,2.113-1.564,3.673-1.474,3.365-3.089,6.651-4.392,10.093a96.477,96.477,0,0,0-4.9,17.056,26.859,26.859,0,0,0,1.595,15.458A24.431,24.431,0,0,0,249.4,377.249a20.054,20.054,0,0,0,9.027,2.692,20.5,20.5,0,0,0,8.859-1.913,35.322,35.322,0,0,0,13.4-9.962,40.349,40.349,0,0,0,6.517-12.474,159.445,159.445,0,0,0,6.124-23.677c3.4-19.331,5.23-38.9,8.471-58.262q.487-2.916,1.04-5.823a2.462,2.462,0,0,0-1.676-2.952,2.422,2.422,0,0,0-2.952,1.676Z"/><path class="b" d="M280.174,250.55c1.5-3.14,3.451-6.046,4.951-9.185,1.432-3,1.37-6.18,1.5-9.431.232-5.9,3.421-11.7,6.889-16.332a139.142,139.142,0,0,1,15.159-16.5,32.333,32.333,0,0,1,3.859-3.517c1.061-.731,2.028-1.07,3.2-.384,2.395,1.4,1.055,3.964.114,6.108-2.92,6.656-9.2,11.157-11.916,17.919a2.415,2.415,0,0,0,1.676,2.952,2.456,2.456,0,0,0,2.952-1.676c1.146-2.85,3.366-5.293,5.273-7.653a42.528,42.528,0,0,0,6.085-8.948c1.385-3.07,2.963-6.739,1.17-9.982a7.64,7.64,0,0,0-10.025-3.043,18.851,18.851,0,0,0-4.384,3.489q-2.208,2.1-4.377,4.252c-3.013,3-5.934,6.089-8.7,9.317a68.779,68.779,0,0,0-6.635,8.774,42.6,42.6,0,0,0-4.156,9.381,21.92,21.92,0,0,0-.985,5.847,32.246,32.246,0,0,1-.354,5.516,16.8,16.8,0,0,1-2.119,4.519c-1.15,2.031-2.312,4.053-3.321,6.159a2.464,2.464,0,0,0,.861,3.283,2.422,2.422,0,0,0,3.284-.861Z"/><path class="b" d="M305.943,223.159c7.89-1.767,15.946-2.74,23.833-4.508,3.239-.726,6.021-2.713,8.969-4.146,3.136-1.525,6.163-3.276,9.361-4.672a30.4,30.4,0,0,1,4.65-1.593c1.426-.364,2.706.406,4.143.342a6.033,6.033,0,0,0,1.93-.692,7.961,7.961,0,0,1,1.581-.39,17.138,17.138,0,0,1,4.553.032c2.094.265,3.531,1.024,4.37,2.64.333.641-.1-.391.122.293.074.225.131.451.189.681.009.037.109.788.06.3.025.242.033.487.035.73a8.236,8.236,0,0,1-.508,2.958c-1.272,4.11-4.238,8.024-7.371,11.087a70.132,70.132,0,0,1-5.878,4.812c-2.482,1.949-4.974,3.889-7.556,5.7a67.549,67.549,0,0,1-16.675,8.9c-7.221,2.465-14.7,3.986-21.7,7.1a23.485,23.485,0,0,0-6.562,4.758,21.759,21.759,0,0,0-5.274,9.053c-.932,2.953,3.7,4.217,4.628,1.276a17.229,17.229,0,0,1,5.96-8.609,19.654,19.654,0,0,1,4.165-2.55c2.078-.884,4.226-1.615,6.374-2.307,4.463-1.438,9.039-2.524,13.481-4.019a65.2,65.2,0,0,0,12.355-5.846,107.62,107.62,0,0,0,10.86-7.464,110.335,110.335,0,0,0,8.941-7.146c4.59-4.376,9.424-10.85,9.562-17.461a9.451,9.451,0,0,0-5.623-8.863,16.279,16.279,0,0,0-6.578-.976,13.017,13.017,0,0,0-6.647,1.52l1.211-.327a26.17,26.17,0,0,1-2.756-.46,10.548,10.548,0,0,0-3.867.614,45.362,45.362,0,0,0-6.989,2.875c-2.152,1.057-4.256,2.207-6.4,3.273-2.08,1.032-4.081,2.293-6.2,3.239-2.178.972-4.774,1.216-7.1,1.645-3.3.61-6.609,1.205-9.912,1.813-3.006.554-6.022,1.081-9.005,1.749-3.013.675-1.738,5.3,1.276,4.629Z"/><path class="b" d="M320.732,230.246c-8.205,1.339-16.861,1.226-23.469,7.033a2.4,2.4,0,0,0,3.394,3.394c5.722-5.028,14.268-4.642,21.351-5.8a2.418,2.418,0,0,0,1.677-2.952,2.458,2.458,0,0,0-2.953-1.676Z"/><path class="b" d="M352.554,208.607a42.065,42.065,0,0,1-9.594,6.99,65.825,65.825,0,0,1-10.566,4.8,2.458,2.458,0,0,0-1.676,2.952,2.421,2.421,0,0,0,2.952,1.676,72.822,72.822,0,0,0,11.712-5.286A46.643,46.643,0,0,0,355.948,212c2.166-2.207-1.225-5.6-3.394-3.4Z"/><path class="b" d="M359.59,213.8a20.222,20.222,0,0,1-4.481,3.852c-2.27,1.584-4.64,3.025-7.04,4.4q-3.465,1.988-7.035,3.785c-.937.472-1.88.933-2.832,1.374-.349.162-.7.315-1.052.475-.562.257.373-.145-.038.019-.152.06-.3.121-.454.18a2.469,2.469,0,0,0-1.676,2.952,2.418,2.418,0,0,0,2.952,1.676,91.665,91.665,0,0,0,12.557-6.317c2.479-1.422,4.927-2.912,7.265-4.559a25.822,25.822,0,0,0,5.229-4.446,2.47,2.47,0,0,0,0-3.394,2.418,2.418,0,0,0-3.4,0Z"/><path class="b" d="M2.084,341.545a21.245,21.245,0,0,0,5.9,1.334c3.543.508,7.1.9,10.663,1.262q11.859,1.2,23.762,1.949c2.779.175,5.57.38,8.356.385,3.089.006,3.093-4.794,0-4.8-5.954-.011-11.942-.6-17.872-1.066-7.57-.595-15.149-1.247-22.681-2.226-.692-.09.5.069-.176-.024l-.586-.081q-.552-.078-1.1-.162c-.637-.1-1.273-.2-1.907-.317-.488-.09-.976-.185-1.457-.3-.394-.1-1.343-.49-.482-.094a2.47,2.47,0,0,0-3.283.861,2.419,2.419,0,0,0,.861,3.284Z"/><path class="b" d="M12.894,341.691C11.579,357,10.458,372.352,9.688,387.7c-.15,2.978-.373,6-.245,8.978.131,3.077,4.932,3.094,4.8,0-.109-2.547.062-5.119.181-7.662.193-4.107.443-8.212.707-12.315q.849-13.238,1.884-26.462c.219-2.849.435-5.7.679-8.546a2.418,2.418,0,0,0-2.4-2.4,2.451,2.451,0,0,0-2.4,2.4Z"/><path class="b" d="M6.089,324.777c10.184,1,20.367,2.022,30.57,2.808,2.573.2,5.15.4,7.731.48,3.089.1,3.086-4.7,0-4.8-11.095-.36-22.2-1.706-33.246-2.788l-5.055-.5a2.417,2.417,0,0,0-2.4,2.4,2.453,2.453,0,0,0,2.4,2.4Z"/><path class="d" d="M109.85,216.517c-7.6-10.364-11.66-17.755-18.035-28.131a45.974,45.974,0,0,1,9.366-12.654,93.13,93.13,0,0,0,26.874,18.729c.556.252,1.177.561,1.356,1.145a2.156,2.156,0,0,1-.31,1.517C128.752,197.845,112.39,213.39,109.85,216.517Z"/><path class="d" d="M153.793,216.517c7.6-10.364,11.66-17.755,18.035-28.131a45.97,45.97,0,0,0-9.365-12.654,93.134,93.134,0,0,1-26.875,18.729c-.556.252-1.176.561-1.356,1.145a2.157,2.157,0,0,0,.311,1.517C134.891,197.845,151.254,213.39,153.793,216.517Z"/><path class="b" d="M111.922,215.306c-6.594-9.014-12.2-18.625-18.034-28.132V189.6a44.6,44.6,0,0,1,8.99-12.168H99.484a94.505,94.505,0,0,0,13.832,11.44q3.585,2.448,7.384,4.564,1.841,1.022,3.729,1.956c.64.316,2.712,1,2.91,1.428l-.328-1.211c.074.575.083.125.273-.021a3.652,3.652,0,0,0-.36.395c-.394.421-.8.828-1.209,1.236-1.375,1.38-2.767,2.742-4.158,4.106-3.327,3.263-6.671,6.512-9.946,9.828-1.177,1.191-2.394,2.373-3.458,3.67a2.469,2.469,0,0,0,0,3.394,2.418,2.418,0,0,0,3.394,0,85.484,85.484,0,0,1,5.98-6.2c2.788-2.768,5.6-5.51,8.4-8.263a44.9,44.9,0,0,0,5.009-5.108,4.455,4.455,0,0,0,.786-3.679c-.479-1.74-2.1-2.4-3.571-3.094a88.285,88.285,0,0,1-8.192-4.425,89.6,89.6,0,0,1-17.084-13.414,2.444,2.444,0,0,0-3.394,0,46.448,46.448,0,0,0-8.127,10.237c-.563.945-1.147,1.906-1.614,2.9-.653,1.394-.01,2.4.726,3.607q1.706,2.791,3.39,5.6c4.394,7.285,8.892,14.48,13.919,21.351a2.47,2.47,0,0,0,3.283.861A2.417,2.417,0,0,0,111.922,215.306Z"/><path class="b" d="M155.866,217.728c5.027-6.871,9.525-14.066,13.919-21.351q1.689-2.8,3.39-5.6c.746-1.221,1.394-2.179.725-3.607-.467-1-1.051-1.957-1.614-2.9a46.443,46.443,0,0,0-8.126-10.237,2.441,2.441,0,0,0-3.394,0A89.03,89.03,0,0,1,145.528,186.3a91.335,91.335,0,0,1-8.178,4.669c-2.664,1.341-6.633,2.57-5.289,6.428.754,2.166,3.156,3.9,4.73,5.454,2.79,2.748,5.6,5.481,8.382,8.235a96.641,96.641,0,0,1,6.923,7.131,2.417,2.417,0,0,0,3.394,0,2.454,2.454,0,0,0,0-3.394,104.279,104.279,0,0,0-7.6-7.8c-3.151-3.11-6.334-6.187-9.469-9.312-.525-.523-1.05-1.045-1.561-1.581-.149-.156-.287-.332-.445-.478s-.34-.548.224.3c-.1-.149-.028-.2-.009-.347l-.327,1.211c.176-.384,2.136-1.047,2.723-1.336q1.887-.927,3.729-1.945,3.894-2.151,7.571-4.667a94.61,94.61,0,0,0,13.832-11.44h-3.394a44.619,44.619,0,0,1,8.99,12.168v-2.423c-5.835,9.507-11.44,19.118-18.035,28.132a2.416,2.416,0,0,0,.861,3.283A2.454,2.454,0,0,0,155.866,217.728Z"/><path class="b" d="M129.439,196.82c0,2.8-.016,5.6-.028,8.4q-.036,7.935-.077,15.869-.055,10.689-.114,21.378-.067,12.63-.139,25.258-.075,13.6-.152,27.2l-.153,27.165q-.072,12.777-.143,25.555-.061,10.983-.121,21.967-.045,8.268-.088,16.534-.023,4.614-.041,9.229c0,.32,0,.641,0,.961,0,3.089,4.8,3.094,4.8,0,0-2.406.016-4.812.028-7.218q.036-7.473.077-14.944.056-10.356.113-20.712.069-12.421.139-24.843l.153-27.04q.076-13.631.152-27.26.074-12.954.144-25.907.061-11.288.121-22.575.045-8.7.087-17.4.024-5.172.041-10.342,0-.638,0-1.276c0-3.088-4.8-3.094-4.8,0Z"/><path class="b" d="M220.55,241.8c-.475,7.173-1.255,14.331-1.957,21.484-1.095,11.136-2.183,22.272-3.17,33.417-1.146,12.928-2.17,25.869-2.959,38.824-.458,7.524-.2,15.115-.2,22.651q0,19.23,0,38.461c0,3.089,4.8,3.094,4.8,0q0-28.586,0-57.173c0-2.921.317-5.872.507-8.786q.332-5.07.706-10.136.712-9.654,1.549-19.3c.991-11.49,2.095-22.969,3.222-34.446.818-8.324,1.75-16.651,2.3-25a2.4,2.4,0,0,0-4.8,0Z"/><path class="b" d="M40.419,241.8c.476,7.173,1.255,14.331,1.958,21.484,1.094,11.136,2.182,22.272,3.17,33.417,1.145,12.928,2.169,25.869,2.958,38.824.458,7.524.2,15.115.2,22.651q0,19.23,0,38.461c0,3.089,4.8,3.094,4.8,0q0-28.586-.005-57.173c0-2.921-.317-5.872-.507-8.786q-.332-5.07-.706-10.136-.711-9.654-1.549-19.3c-.991-11.49-2.095-22.969-3.222-34.446-.818-8.324-1.75-16.651-2.3-25a2.456,2.456,0,0,0-2.4-2.4,2.421,2.421,0,0,0-2.4,2.4Z"/><path class="b" d="M199.862,260.849H166.04a2.435,2.435,0,0,0-2.4,2.4c0,3.958.053,7.915.055,11.873a2.435,2.435,0,0,0,2.4,2.4q14.221,0,28.443.047,2.662,0,5.324.007a2.435,2.435,0,0,0,2.4-2.4c0-3.955-.243-7.978,0-11.927.19-3.085-4.611-3.074-4.8,0-.243,3.949,0,7.972,0,11.927l2.4-2.4c-9.24,0-18.479-.033-27.719-.047q-3.024-.006-6.048-.007l2.4,2.4c0-3.958-.052-7.915-.055-11.873l-2.4,2.4h33.822C202.951,265.649,202.956,260.849,199.862,260.849Z"/><path class="b" d="M121.854,142.336a22.491,22.491,0,0,0,10.828,2.5c3.833-.025,7.757-.758,10.833-3.155a2.412,2.412,0,0,0,0-3.394,2.46,2.46,0,0,0-3.394,0c.7-.544.053-.057-.125.058-.222.142-.451.274-.685.4-.143.075-.919.417-.364.193-.311.125-.625.241-.944.343a16.988,16.988,0,0,1-5.676.759,17.722,17.722,0,0,1-5.418-.73c-.346-.1-.683-.226-1.024-.344-.111-.038-.219-.088-.33-.128.6.22.093.041-.024-.014q-.636-.3-1.254-.626a2.453,2.453,0,0,0-3.284.861,2.427,2.427,0,0,0,.861,3.284Z"/><path class="b" d="M131.679,116.546a51.7,51.7,0,0,1,1.222,5.592l-.085-.638a3.438,3.438,0,0,1,.021.772l.085-.638a1.813,1.813,0,0,1-.085.347l.242-.573a1.38,1.38,0,0,1-.122.223l.375-.486a1.113,1.113,0,0,1-.183.18l.486-.375a3.6,3.6,0,0,1-.443.235l.574-.242a3.246,3.246,0,0,1-.747.217l.638-.085a2.936,2.936,0,0,1-.7,0l.638.086c-.264-.037-.523-.1-.788-.137a2.655,2.655,0,0,0-1.849.242,2.4,2.4,0,0,0-.861,3.284,2.3,2.3,0,0,0,1.434,1.1c.56.075,1.1.219,1.673.244a5.265,5.265,0,0,0,2.412-.566,3.378,3.378,0,0,0,1.9-2.24,5.821,5.821,0,0,0-.027-2.465c-.3-1.8-.721-3.587-1.184-5.354a2.4,2.4,0,1,0-4.629,1.276Z"/><path class="b" d="M101.658,100.832c-.934,3.035-.325,10.017,5.424,10.611,7.6-.046,8-8.486,5.446-12.455C110.434,95.738,104.275,94.387,101.658,100.832Z"/><path class="b" d="M162.513,100.832c.934,3.035.326,10.017-5.424,10.611-7.6-.046-8-8.487-5.446-12.455C153.737,95.738,159.9,94.387,162.513,100.832Z"/></svg>