<?xml version="1.0" encoding="utf-8"?>
<!-- Uploaded to: SVG Repo, www.svgrepo.com, Generator: SVG Repo Mixer Tools -->
<svg width="800px" height="800px" viewBox="-133.4 0 443.225 443.225" xmlns="http://www.w3.org/2000/svg"><defs><style>.a{fill:#ffffff;}.b{fill:#7a7473;}.c{fill:#211715;}.d{fill:#89705d;}.e{fill:#bdbdbd;}</style></defs><path class="a" d="M142.688,48.674a4.285,4.285,0,0,1,3.428-1,4.043,4.043,0,0,1,2.908,1.933,5.714,5.714,0,0,1,.6,2.3,17.129,17.129,0,0,1-1.748,9.084,10.887,10.887,0,0,1-2.816,3.7A7.227,7.227,0,0,1,141.7,66.2s-.231.035-.631.1c-.274,1.021-.581,1.881-.731,2.339-.973,2.64-6.4,11.748-13.238,15.127a38.99,38.99,0,0,0,.606,6.126c.344,1.967.237,3.725,2.971,4.713.182.065,3.259,1.266,3.536,1.38,0,0-1.332,16-19.337,16s-18.064-16.72-18.064-16.72c.06-.02.13-.05.21-.07.59-.2,1.6-.54,1.77-.59a3.624,3.624,0,0,0,2.66-2.87c.13-.58.2-1.2.31-1.84a38.6,38.6,0,0,0,.57-5.461,24.167,24.167,0,0,1-9.51-7.245,29.118,29.118,0,0,1-5.55-10.832l-1.094-.169a7.213,7.213,0,0,1-3.356-1.512,10.9,10.9,0,0,1-2.814-3.694,17.124,17.124,0,0,1-1.746-9.077,5.7,5.7,0,0,1,.6-2.3,4.04,4.04,0,0,1,2.906-1.932,4.278,4.278,0,0,1,3.425,1S85.84,23.1,112.507,23.1C141.247,23.1,142.688,48.674,142.688,48.674Z"/><path class="b" d="M80.137,70.018a14.985,14.985,0,0,1,1.656-6.325,8.828,8.828,0,0,0,1.03.986,7.213,7.213,0,0,0,3.356,1.512l1.094.168a29.1,29.1,0,0,0,5.55,10.833,24.2,24.2,0,0,0,9.509,7.247,38.454,38.454,0,0,1-.569,5.459c-.1.572-.164,1.127-.27,1.653-4.071.564-8.6,1.2-8.6,1.2-5.8,1.31-12.82.36-12.12-1.43,2.47-1.4,3.03-4.82,2.37-7.59s-1.92-5.5-2.5-8.28A22.281,22.281,0,0,1,80.137,70.018Z"/><path class="a" d="M97.484,92.067c-.35.449-.68.91-.991,1.379l.145.472c1.222,4,11.014,36.406,12.982,42.728,1.246,4,2.411,8.008,3.807,11.971.483-.75.806-1.255.806-1.255,3.973-9.629,7.677-19.407,12.673-33.42,2.789-7.821,4.942-15.426,5.844-19.17a20.551,20.551,0,0,0-3.814-4.89,43.383,43.383,0,0,1-12.523,8.728c-.259.117-.548.261-.632.533a1.007,1.007,0,0,0,.145.707H112.5a1.007,1.007,0,0,0,.145-.707c-.084-.272-.373-.416-.632-.533a43.383,43.383,0,0,1-12.523-8.728A18.173,18.173,0,0,0,97.484,92.067Z"/><path class="c" d="M97.345,97.2a27.953,27.953,0,0,0,3.108-1.137,5.42,5.42,0,0,0,2.591-2.774,15.71,15.71,0,0,0,.8-3.8,42.447,42.447,0,0,0,.49-5.057,2.016,2.016,0,0,0-2-2,2.04,2.04,0,0,0-2,2q-.031,1.058-.125,2.112c-.031.35-.068.7-.109,1.05-.017.14-.034.28-.052.42.042-.334-.045.311-.045.307a26.282,26.282,0,0,1-.616,3.4c-.061.214-.182.192.058-.1a1.236,1.236,0,0,0-.1.207c-.046.087-.1.167-.148.251-.2.355.007-.085.062-.069,0,0-.194.2-.217.228-.21.225-.033.125.044-.013-.089.16-.492.3-.651.39-.32.173.148-.027-.085.041-.064.019-.134.046-.2.068-.182.062-.366.12-.549.181-.44.147-.884.287-1.321.444A2,2,0,1,0,97.345,97.2Z"/><path class="c" d="M125.1,83.778a50.016,50.016,0,0,0,.724,6.926,7.616,7.616,0,0,0,1.53,4.093,8.392,8.392,0,0,0,3.552,2.031c.926.36,1.856.712,2.775,1.086a2.006,2.006,0,0,0,2.461-1.4,2.062,2.062,0,0,0-1.4-2.46c-.813-.331-1.635-.642-2.453-.961-.345-.134-.69-.269-1.036-.4-.079-.03-.159-.057-.237-.089.337.139-.2-.117-.267-.154-.113-.065-.536-.421-.175-.089-.1-.1-.2-.2-.306-.293-.3-.286.182.337-.009-.014-.06-.112-.124-.223-.187-.334-.184-.329.109.423-.007-.051-.035-.145-.084-.287-.118-.433-.133-.572-.2-1.158-.292-1.737a39.435,39.435,0,0,1-.558-5.723,2,2,0,0,0-4,0Z"/><path class="a" d="M123.675,109.451c4.021-4,6.655-8.837,9.626-13.672a21.427,21.427,0,0,0-4.365-5.9,43.383,43.383,0,0,1-12.523,8.728c-.259.117-.548.261-.632.533a1.007,1.007,0,0,0,.145.707,40.4,40.4,0,0,0,2.59,3.345C120.278,105.351,122.491,107.994,123.675,109.451Z"/><path class="a" d="M104.749,109.451c-4.021-4-6.655-8.837-9.625-13.672a21.4,21.4,0,0,1,4.364-5.9,43.383,43.383,0,0,0,12.523,8.728c.259.117.548.261.632.533a1.007,1.007,0,0,1-.145.707,40.4,40.4,0,0,1-2.59,3.345C108.146,105.351,105.933,107.994,104.749,109.451Z"/><path class="c" d="M125.089,110.865a56,56,0,0,0,7.88-10.683c.567-.933,1.128-1.87,1.7-2.8a2.833,2.833,0,0,0,.6-1.867,5.006,5.006,0,0,0-.782-1.739,22.933,22.933,0,0,0-4.132-5.306,2.035,2.035,0,0,0-2.829,0,40.63,40.63,0,0,1-6.709,5.438c-1.183.767-2.4,1.479-3.653,2.125-1.225.632-2.894,1.078-3.307,2.58a3.512,3.512,0,0,0,.9,3.045c.819,1.087,1.683,2.142,2.546,3.195,1.646,2.011,3.32,4,4.96,6.014a2.014,2.014,0,0,0,2.829,0,2.046,2.046,0,0,0,0-2.828c-1.369-1.683-2.763-3.345-4.143-5.019-.776-.942-1.552-1.886-2.313-2.841-.212-.267-.415-.519-.615-.792a4.66,4.66,0,0,0-.271-.384c-.186-.2.066-.265.034.142l-.273,1.01q-.538.441-.085.184l.291-.134c.294-.138.587-.277.878-.421q.891-.443,1.761-.928,1.793-1,3.484-2.165a45.643,45.643,0,0,0,6.514-5.393h-2.829a20.42,20.42,0,0,1,4.052,5.492V94.769c-2.83,4.616-5.464,9.4-9.314,13.268C120.443,109.864,123.27,112.693,125.089,110.865Z"/><path class="c" d="M106.164,108.037c-3.85-3.869-6.484-8.652-9.314-13.268v2.019A20.42,20.42,0,0,1,100.9,91.3H98.074a45.646,45.646,0,0,0,6.513,5.393q1.691,1.163,3.484,2.165.8.445,1.614.854.436.219.879.426.218.1.438.2.451.256-.086-.184l-.273-1.01c-.029-.366.234-.363.034-.142a3.4,3.4,0,0,0-.218.311c-.217.3-.435.572-.668.865-.761.955-1.537,1.9-2.313,2.841-1.38,1.674-2.774,3.336-4.143,5.019a2.059,2.059,0,0,0,0,2.828,2.015,2.015,0,0,0,2.829,0c1.607-1.974,3.246-3.923,4.86-5.892.873-1.065,1.744-2.132,2.578-3.228a3.592,3.592,0,0,0,.969-3.134c-.4-1.459-1.967-1.9-3.16-2.505q-1.88-.96-3.655-2.106a40.7,40.7,0,0,1-6.854-5.532,2.036,2.036,0,0,0-2.828,0,22.864,22.864,0,0,0-4.052,5.164,7.379,7.379,0,0,0-.827,1.615,2.629,2.629,0,0,0,.564,2.133c.568.932,1.129,1.869,1.7,2.8a56,56,0,0,0,7.88,10.683C105.153,112.693,107.982,109.865,106.164,108.037Z"/><path class="a" d="M161.332,246.453c3.026,2,8.507-.871,10.364-3.74,2.934-4.533,2.837-6.574,1.036-13.076s-3.533-10.344-3.937-17.079l-10.472-.459-.6,2.99c-1.354,7.07-3.027,12.436-3.292,19.629-.068,1.861,3.2,5.191,4.489,3.848.616-.643,1.986-2.186,2.419-2.736Z"/><path class="c" d="M160.322,248.18c2.622,1.588,5.826.905,8.411-.4a13.349,13.349,0,0,0,5.888-6.1c2.884-5.7.27-11.953-1.458-17.623a50.615,50.615,0,0,1-2.368-11.5c-.166-2.556-4.167-2.575-4,0a52.439,52.439,0,0,0,2.277,11.789c1.068,3.541,2.5,7.209,2.88,10.907a9.274,9.274,0,0,1-2.37,6.946c-1.49,1.705-4.978,3.9-7.241,2.526-2.207-1.337-4.22,2.121-2.019,3.454Z"/><path class="d" d="M173.959,324.794c1.142-16.388-.459-51.828-1.944-63.963a1.278,1.278,0,0,0-1.225-1.12c-5.181-.2-12.193-.372-17.677-.345a1.356,1.356,0,0,0-1.335,1.2c-1.406,11.492-4.286,46.709-3.864,63.895a6.949,6.949,0,0,0,6.871,6.793c3.942.044,8.472.042,12.222.035A6.976,6.976,0,0,0,173.959,324.794Z"/><path class="c" d="M175.959,324.794c.843-12.305.383-24.748-.12-37.058-.251-6.146-.573-12.291-1.034-18.425-.171-2.276-.36-4.551-.6-6.82-.138-1.293-.122-2.756-1.083-3.748-1.352-1.394-3.611-1.083-5.391-1.14-4.079-.131-8.16-.22-12.241-.237-2.019-.009-4.277-.239-5.358,1.864a10.151,10.151,0,0,0-.593,3.4c-.568,5.1-1.02,10.205-1.441,15.315-1.076,13.035-1.984,26.117-2.194,39.2a65.921,65.921,0,0,0,.062,8.014,9.065,9.065,0,0,0,6.269,7.707c1.921.6,4.056.409,6.042.419q3.22.017,6.441.011a14.7,14.7,0,0,0,5.418-.578,9.153,9.153,0,0,0,4.049-3.047,9.327,9.327,0,0,0,1.775-4.871,2.015,2.015,0,0,0-2-2,2.043,2.043,0,0,0-2,2c-.266,2.827-2.685,4.476-5.357,4.493-3.866.026-7.739.039-11.6-.033a5.034,5.034,0,0,1-5.086-4.917c-.088-2.395-.046-4.8-.008-7.2.194-12.111,1-24.22,1.959-36.292.4-5.112.846-10.222,1.367-15.324q.144-1.4.3-2.8.068-.612.139-1.224c.018-.16.124-.464.072-.607-.065-.179.368-.58-.3.153-.475.519-.205.318.258.317,3.787-.009,7.574.059,11.36.16q1.338.036,2.677.079l1.183.039c.275.01,1.312.2,1.512.055.11-.08-.254-.864-.368-.518a1.78,1.78,0,0,0,.063.545q.076.685.147,1.373c.219,2.158.4,4.32.558,6.484.415,5.585.716,11.18.956,16.776.5,11.677.868,23.418.363,35.1q-.074,1.668-.185,3.335C171.783,327.363,175.783,327.352,175.959,324.794Z"/><path class="c" d="M159.456,261.809c.1-5.281.546-20.764.347-22.262,1.136-.022,3.24.106,4.408.06.13,4.344-.289,19.254-.205,22.215Z"/><path class="c" d="M161.456,261.809c.082-4.184.2-8.366.286-12.549.044-2.1.086-4.2.1-6.295a27.256,27.256,0,0,0-.043-3.418l-2,2c1.47-.015,2.938.1,4.408.06l-2-2c.208,7.4-.4,14.813-.205,22.215l2-2-4.55-.013c-2.574-.008-2.578,3.992,0,4l4.55.013a2.025,2.025,0,0,0,2-2c-.19-7.4.413-14.812.205-22.215a2.028,2.028,0,0,0-2-2c-1.47.041-2.938-.075-4.408-.06a2.011,2.011,0,0,0-2,2,26.424,26.424,0,0,1,.044,3.318c-.017,2.132-.06,4.263-.105,6.395-.087,4.183-.2,8.365-.286,12.549C157.405,264.384,161.405,264.384,161.456,261.809Z"/><path class="c" d="M155.8,214.557c-.669,3.463-1.5,6.892-2.168,10.355q-.489,2.539-.812,5.106a24.87,24.87,0,0,0-.354,5.09,7.136,7.136,0,0,0,4.576,5.581c2.624.8,4.276-1.653,5.718-3.445a2.061,2.061,0,0,0,0-2.828,2.014,2.014,0,0,0-2.829,0c-.556.691-1.15,1.352-1.746,2.008-.317.35-1.167,1-.138.467.263-.135.189.033-.167-.223a5.13,5.13,0,0,1-1.343-1.605c-.072-.12-.049-.085-.1-.28.078.319.015-.507.016-.512.029-.725.081-1.449.143-2.172.483-5.576,2-11,3.058-16.478.487-2.515-3.368-3.592-3.857-1.064Z"/><path class="a" d="M138.22,315.83c2.428,19.3-1.573,38.741-3.973,58.046-1.3,10.478-1.745,22.16,2.828,31.254.081.274.12.423.12.423.364,1.357.978,4.969-.218,5.7s-3.168.71-4.573.734c-6.1.106-12.553-4.492-15.975-7.536a.466.466,0,0,0-.369-.1c-.591-23.987-.6-47.986-.6-71.982,0-5.262,0-11.659,0-16.921Z"/><path class="a" d="M90.709,315.83c-2.428,19.3,1.573,38.741,3.973,58.046,1.3,10.478,1.745,22.16-2.829,31.254-.08.274-.12.423-.12.423-.363,1.357-.978,4.969.219,5.7s3.168.71,4.573.734c6.1.106,12.553-4.492,15.975-7.536a.464.464,0,0,1,.369-.1c.591-23.987.6-47.986.6-71.982,0-5.262,0-11.659,0-16.921Z"/><path class="c" d="M88.822,315.83c-1.739,14.142-.1,28.353,1.835,42.384.907,6.581,1.967,13.156,2.591,19.772a66.932,66.932,0,0,1-.107,16.5c-.9,5.8-3.007,11.365-7.149,15.634-1.794,1.848,1.032,4.68,2.828,2.828,8.1-8.345,9.381-20.458,8.7-31.544-.407-6.585-1.444-13.129-2.361-19.656-.993-7.067-1.98-14.14-2.562-21.255a121.074,121.074,0,0,1,.228-24.663,2.01,2.01,0,0,0-2-2,2.049,2.049,0,0,0-2,2Z"/><path class="c" d="M112.375,315.449c0,25.282.083,50.568-.337,75.848q-.183,11.063-.52,22.121c-.08,2.575,3.92,2.573,4,0,.81-26.1.847-52.207.853-78.313q0-9.828,0-19.656c0-2.574-4-2.578-4,0Z"/><path class="c" d="M136.22,315.83c1.786,14.516.017,29.1-1.994,43.5-1.7,12.141-4.183,24.7-2.061,36.952a31.306,31.306,0,0,0,8.057,16.667c1.8,1.851,4.623-.979,2.829-2.828-7.66-7.894-8.214-19.689-7.434-30.049,1.023-13.578,3.868-26.961,4.908-40.546a119.35,119.35,0,0,0-.305-23.695,2.063,2.063,0,0,0-2-2,2.011,2.011,0,0,0-2,2Z"/><path class="e" d="M81.708,192.7c-1.391,4.88-3.111,12.982-4.234,19.343-5.3,30.014,2.294,92.326,2.823,102.183a.987.987,0,0,0,.9.934c15.684,1.451,52.619,1.506,65.7-.047a.992.992,0,0,0,.884-.933c.508-9.733,7.939-72.105,2.639-102.137-1.122-6.361-2.842-14.463-4.233-19.343Z"/><path class="c" d="M79.779,192.165a159.249,159.249,0,0,0-5.885,35.26,350.015,350.015,0,0,0,.342,35.143c.557,10.944,1.407,21.871,2.384,32.784.358,4.008.738,8.014,1.107,12.021.128,1.385.255,2.77.372,4.156a20.862,20.862,0,0,0,.3,3.367c.731,2.832,4.576,2.427,6.882,2.578,2.464.161,4.929.281,7.4.38,5.942.236,11.889.349,17.835.39,10.98.076,22.029.065,32.982-.806,2.239-.178,5.618.048,6.217-2.729a26,26,0,0,0,.269-3.269c.265-3.217.571-6.431.863-9.646.924-10.184,1.775-20.376,2.407-30.583.735-11.88,1.227-23.794,1.028-35.7-.09-5.342-.318-10.688-.851-16.006a160.192,160.192,0,0,0-2.96-17.6c-.7-3.264-1.442-6.523-2.35-9.736-.7-2.473-4.56-1.422-3.857,1.063a154.675,154.675,0,0,1,5.737,33.907c.6,11.416.323,22.876-.212,34.289-.507,10.8-1.3,21.593-2.232,32.369-.567,6.578-1.3,13.152-1.732,19.741-.005.079-.082.528-.035.564-.336-.258,1.349-.656.843-.957-.049-.029-.215.036-.274.031a3.674,3.674,0,0,0-.666.07c-.919.093-1.839.171-2.76.24-2.275.171-4.554.291-6.833.388-5.526.236-11.057.337-16.586.375-11.278.078-22.588-.028-33.846-.746q-1.575-.1-3.149-.228a4.719,4.719,0,0,0-.67-.056c-.072.005-.264-.063-.326-.029-.518.29,1.1.732.776.958a2.7,2.7,0,0,0-.038-.618c-.072-1.064-.165-2.126-.258-3.188-.3-3.388-.625-6.774-.937-10.161-.931-10.091-1.781-20.191-2.409-30.306-.721-11.6-1.2-23.23-1-34.853.088-5.179.311-10.361.825-15.517a151.817,151.817,0,0,1,2.9-16.95c.676-3.125,1.393-6.245,2.262-9.323.7-2.481-3.157-3.54-3.857-1.063Z"/><path class="b" d="M73.163,436.987q-.165-.216-.312-.447a8.356,8.356,0,0,1-.554-7,22.942,22.942,0,0,1,3.6-6.273q5.2-7.108,11-13.756c1.506-1.728,3.209-3.528,5.461-3.953-.363,1.357-.909,4.71.288,5.446s3.021.735,4.426.759c6.152.107,12.726-4.3,16.14-7.38.233-.21.667.084.67.417.031,3.964.364,5.677.344,10.056a10.088,10.088,0,0,1-.762,3.39c-.975,2.639-3.869,3.91-6.191,5.5-6.041,4.133-9.222,11.675-15.552,15.351a16.341,16.341,0,0,1-15.108.541A9.531,9.531,0,0,1,73.163,436.987Z"/><path class="b" d="M156.387,436.987q.165-.216.312-.447a8.36,8.36,0,0,0,.553-7,22.939,22.939,0,0,0-3.595-6.273q-5.205-7.108-11-13.756c-1.506-1.728-3.208-3.528-5.461-3.953.364,1.357.978,4.969-.218,5.7s-3.168.71-4.573.734c-6.1.106-12.553-4.492-15.975-7.536-.265-.235-.755-.057-.759.247-.046,3.985-.517,5.4-.5,9.815a12.279,12.279,0,0,0,.916,3.723c.976,2.639,3.869,3.91,6.191,5.5,6.041,4.133,9.223,11.675,15.553,15.351a16.339,16.339,0,0,0,15.107.541A9.535,9.535,0,0,0,156.387,436.987Z"/><path class="c" d="M74.89,435.977c-1.631-2.229-1.232-5.047-.048-7.4a52.076,52.076,0,0,1,5.49-7.93q3.031-3.954,6.267-7.746c1.712-2.014,3.554-4.809,6.287-5.424l-2.46-2.46c-.52,2.026-1.029,4.857.2,6.725,1.58,2.392,5.881,2.2,8.37,1.905,5.866-.7,11.281-3.987,15.623-7.859l-.883.514.2-.07h-1.064l.219.075-.883-.514.176.177-.515-.882a11.679,11.679,0,0,1,.084,2.59c.042.882.1,1.763.146,2.645.106,1.994.392,4.2-.159,6.138a6.71,6.71,0,0,1-3.267,4,40.119,40.119,0,0,0-4.7,3.313c-5.59,4.87-9.015,12.974-16.7,14.98-4.211,1.1-9.812.375-12.7-3.188a2.013,2.013,0,0,0-2.828,0,2.047,2.047,0,0,0,0,2.829c2.178,2.683,5.788,4.12,9.133,4.6a18.725,18.725,0,0,0,10.592-1.535c5.881-2.721,9.185-8.573,13.5-13.089a21.372,21.372,0,0,1,3.453-3.011c1.239-.836,2.544-1.564,3.734-2.472,3.06-2.333,4.107-5.653,4.057-9.413-.019-1.491-.1-2.979-.185-4.468-.087-1.532.152-3.4-.261-4.869a2.522,2.522,0,0,0-1.718-1.73,2.663,2.663,0,0,0-2.588.84,34.391,34.391,0,0,1-3.283,2.492c-3.042,2.015-6.623,3.851-10.342,4a18.447,18.447,0,0,1-2.67-.063,9.194,9.194,0,0,1-1.1-.217c-.777-.179,0-.207-.066.145.1-.512-.1-1.28-.039-1.86a11.856,11.856,0,0,1,.32-1.67,2.023,2.023,0,0,0-2.46-2.46c-3.455.777-5.719,3.713-7.9,6.271q-3.8,4.455-7.336,9.115c-3.858,5.059-9.873,12.536-5.153,18.986a2.06,2.06,0,0,0,2.736.718A2.016,2.016,0,0,0,74.89,435.977Z"/><path class="c" d="M158.114,438c4.721-6.451-1.3-13.928-5.153-18.986q-3.549-4.651-7.336-9.115c-2.179-2.558-4.443-5.494-7.9-6.271a2.023,2.023,0,0,0-2.46,2.46,10.139,10.139,0,0,1,.406,3.3,2.313,2.313,0,0,1-.08.511c-.143-.064.851-.387.083-.218a11.622,11.622,0,0,1-2.225.3,17.728,17.728,0,0,1-9.378-2.487,35.348,35.348,0,0,1-4.132-2.709c-1.061-.805-2.313-2.416-3.742-2.425-2.4-.017-2.493,2.176-2.574,3.97-.065,1.418-.215,2.828-.319,4.243-.243,3.335-.278,7,1.693,9.9,1.822,2.677,4.905,3.795,7.321,5.791,4.955,4.094,7.962,10.052,13.277,13.779a18.06,18.06,0,0,0,11.336,3.159c3.912-.239,8.318-1.65,10.868-4.791a2.061,2.061,0,0,0,0-2.829,2.015,2.015,0,0,0-2.828,0c-2.551,3.142-7.352,4.091-11.193,3.509-4-.607-7.119-2.91-9.79-5.828-2.609-2.85-4.811-6.066-7.618-8.736a29.305,29.305,0,0,0-4.739-3.567c-1.341-.84-2.928-1.734-3.615-3.241-1-2.192-.893-4.467-.735-6.811.06-.9.149-1.8.221-2.7.04-.5.076-1.006.1-1.51a6.37,6.37,0,0,1,.075-1.653l-.92,1.195.2-.126-1.009.273.247-.024-1.009-.273a7.187,7.187,0,0,1,1.244.993q.873.705,1.775,1.372a35.772,35.772,0,0,0,3.673,2.4,23.1,23.1,0,0,0,8.992,3.081c2.4.243,6.606.412,8.1-1.91,1.253-1.945.686-4.9.148-6.993l-2.46,2.46c2.669.6,4.457,3.275,6.133,5.243q3.306,3.882,6.421,7.927a54.244,54.244,0,0,1,5.392,7.741c1.242,2.4,1.735,5.283.05,7.585a2.015,2.015,0,0,0,.717,2.737A2.048,2.048,0,0,0,158.114,438Z"/><path class="a" d="M33.6,106.228c-1.039-2.682-4.3-5.272-5.635-8.4-.715-1.68-1.322-3.186.321-4.306,1.477-1.006,2.665-.251,3.847.868a86.733,86.733,0,0,1,7.4,7.741,19.82,19.82,0,0,1,4.4,8.067c.439,1.515.022,3.98.642,5.443.479,1.13,1.676,2.935,2.52,4.724l2.042,2.623-11.333,6.667-2.387-2.878a11.021,11.021,0,0,0-3.73-3.56,70.058,70.058,0,0,0-9.6-3.188,30.553,30.553,0,0,1-7.712-3.661c-2.216-1.346-5.2-3.8-7.23-5.364-2.942-2.276-8.066-9.268-3.022-11.6,1.412-.384,3.952-.531,5.18.261.431.059,1.2-.347,1.91-.206,2.619.517,5.317,2.239,7.733,3.374a17.344,17.344,0,0,0,3.577,1.682c1.434.326,9.3,1.679,11.524,2.182Z"/><path class="e" d="M69.315,106.242a14.053,14.053,0,0,0-1.9,1.3,22.392,22.392,0,0,0-3.707,8c-.987,3.788-3.116,10.409-4.725,17.251-.381.8-1.522,3.534-2.418,5.813-2.333-7.034-4.838-14.861-5.453-16.135-1.571.045-15.694,5-18.226,6,.725,5.293,4.032,22.168,7.66,32.555,1.843,5.276,2.972,10.908,8.382,14.386,5.529,3.555,11.263,2.094,15.765-1.436a29.5,29.5,0,0,0,5.327-5.294,43.281,43.281,0,0,0,5.52-7.8l1.524-3.265.23,1.534q.46,3.064.91,6.1c.586,3.959-4.17,35.5-5.235,45.192,4.006.863,22.51,1.975,28.989-.331,4.5-1.6,8.673-4.911,11.124-12.887l2-6.5.074.269c2.047,7.445,5.608,16.848,9.988,18.81,5.267,2.359,22.272,1.767,27.926.611l.85,4.721,15.148-1.623c2.133-.313,3.721-1.278,3.46-3.819-.636-12.641-5.86-81.457-7.837-92.014a29.414,29.414,0,0,0-2.556-7.4c-1.631-2.7-3.277-4.53-5.819-4.967-.8-.406-1.914-1.084-2.776-1.512-4.7-2.333-13.964-6.964-19.594-9.631,0,0-.4-.19-.952-.455a199.539,199.539,0,0,1-6.086,20.22c-5.276,14.8-9.111,24.875-13.35,35.04-1.454-4.082-2.652-8.212-3.936-12.336-1.968-6.322-11.76-38.728-12.982-42.728l-.333-1.087L93.8,94.164c-4.741,2.519-14.742,7.028-19.441,9.361-3.449,1.712-6.42,3.165-8.595,6.762Z"/><path class="c" d="M48.825,119.355c-.758-1.558-2.094-3.151-2.506-4.838-.385-1.574-.054-3.256-.454-4.851a23.591,23.591,0,0,0-5.226-9.32c-1.373-1.633-2.831-3.192-4.338-4.7a24.179,24.179,0,0,0-4.351-3.928,4.476,4.476,0,0,0-5.376.62,4.405,4.405,0,0,0-1.044,4.72,16.969,16.969,0,0,0,3,5.359c1.06,1.362,2.469,2.727,3.143,4.344a2.068,2.068,0,0,0,2.461,1.4,2.012,2.012,0,0,0,1.4-2.46c-1.452-3.485-4.76-5.822-6.033-9.386-.094-.263-.4-.824-.2-1.062.519-.6,1.392.527,1.727.843,1.584,1.5,3.134,3.031,4.616,4.628,2.647,2.855,5.121,5.809,6.246,9.6.507,1.707.161,3.526.576,5.26.493,2.058,1.993,3.909,2.909,5.793,1.125,2.315,4.576.289,3.454-2.019Z"/><path class="c" d="M34.583,104.771c-3.573-.794-7.2-1.326-10.793-2.033-2.224-.438-4.262-1.827-6.262-2.861a33.046,33.046,0,0,0-4.2-1.9,8.485,8.485,0,0,0-2.109-.512,17.839,17.839,0,0,0-1.91.206l1.01.274c-3-1.684-8.137-1.137-9.769,2.21-1.454,2.983.242,6.464,2.042,8.89,2.1,2.826,4.941,4.844,7.734,6.94a36.514,36.514,0,0,0,11.235,5.977c2.352.708,4.733,1.317,7.047,2.147a9.312,9.312,0,0,1,5.086,3.682c1.357,2.181,4.819.175,3.454-2.019-3.445-5.537-10.182-6.086-15.806-8.082a31.993,31.993,0,0,1-7.421-4.012A59.085,59.085,0,0,1,7.866,109a13.67,13.67,0,0,1-3.456-4.7c-.641-1.559-.734-2.921,1.222-3.156a7.226,7.226,0,0,1,1.87-.008,10.388,10.388,0,0,1,1.275.461,5.509,5.509,0,0,0,1.912-.134,5.9,5.9,0,0,1,2.366.67c2.787,1.173,5.321,3.054,8.163,4.075a37.542,37.542,0,0,0,5.94,1.208c2.123.387,4.256.745,6.362,1.213,2.508.557,3.579-3.3,1.063-3.857Z"/><path class="c" d="M25.816,114.246c1.019.167,2.046.29,3.071.41l.746.089c.147.018.733.1.3.036.466.066.93.136,1.393.223a15.1,15.1,0,0,1,2.59.714c.206.079.119.062-.03-.013.1.048.2.089.292.137.2.095.385.2.572.306.213.124.409.274.62.4.246.146-.228-.2-.007-.012.107.091.216.18.322.273a2,2,0,0,0,2.828-2.828,12.416,12.416,0,0,0-5.8-2.771c-1.07-.219-2.157-.354-3.24-.485-.469-.056-.939-.11-1.407-.167-.132-.016-.839-.116-.372-.046-.27-.04-.54-.079-.81-.123a2.05,2.05,0,0,0-2.46,1.4,2.022,2.022,0,0,0,1.4,2.46Z"/><path class="c" d="M9.164,103.059a28.77,28.77,0,0,0,11.059,6.465,2.012,2.012,0,0,0,2.46-1.4,2.048,2.048,0,0,0-1.4-2.46q-.62-.216-1.23-.458c-.159-.063-.709-.273-.275-.108-.214-.082-.423-.183-.631-.277q-1.393-.628-2.728-1.375a27.27,27.27,0,0,1-2.539-1.6c-.086-.061-.172-.123-.256-.185-.005,0-.4-.3-.172-.125s-.117-.094-.16-.13q-.119-.095-.234-.192-.558-.468-1.068-.988a2,2,0,1,0-2.829,2.829Z"/><path class="c" d="M5.79,105.55a13.183,13.183,0,0,0,2.679,2.265c1.121.79,2.3,1.5,3.484,2.187a45.438,45.438,0,0,0,6.225,3.115,2.008,2.008,0,0,0,2.46-1.4,2.056,2.056,0,0,0-1.4-2.46c-.073-.028-.144-.059-.217-.087-.285-.108.5.219.22.093-.18-.082-.361-.161-.54-.244-.457-.211-.909-.432-1.359-.658q-1.71-.861-3.373-1.816c-1.151-.661-2.288-1.352-3.376-2.111-.244-.17-.483-.346-.722-.523-.307-.226.333.28.028.021-.114-.1-.233-.188-.347-.285a7.4,7.4,0,0,1-.937-.928,2.006,2.006,0,0,0-2.828,0,2.055,2.055,0,0,0,0,2.828Z"/><path class="c" d="M68.306,104.515a9.029,9.029,0,0,0-2.84,2.3,19.947,19.947,0,0,0-2.441,4.507,85.085,85.085,0,0,0-2.679,8.775c-1.1,3.8-2.223,7.6-3.119,11.456-.559,2.4-1.811,4.7-2.416,7.129-.622,2.5,3.234,3.564,3.857,1.063.549-2.205,1.594-4.5,2.246-6.414.615-1.806.931-3.773,1.432-5.619.488-1.8,1-3.587,1.516-5.376.786-2.716,1.447-5.5,2.354-8.175a20.355,20.355,0,0,1,1.862-4.1,4.975,4.975,0,0,1,2.247-2.089c2.234-1.279.221-4.736-2.019-3.454Z"/><path class="c" d="M92.786,92.438c-4.883,2.582-9.941,4.837-14.934,7.195-5.146,2.43-10.677,4.612-13.819,9.644-1.367,2.19,2.092,4.2,3.454,2.019,2.79-4.469,8.437-6.349,13-8.5,4.789-2.257,9.634-4.428,14.316-6.9,2.277-1.2.258-4.657-2.019-3.453Z"/><path class="c" d="M62.321,148.859c-.064-.131-.313-.692-.2-.429.128.3-.047-.117-.076-.19-.074-.189-.149-.377-.222-.566-.3-.767-.575-1.541-.85-2.315-.759-2.137-1.48-4.286-2.2-6.437-1.466-4.4-2.883-8.821-4.369-13.216a40.144,40.144,0,0,0-1.567-4.242,1.947,1.947,0,0,0-1.727-.99,15.665,15.665,0,0,0-3.581.855c-1.867.57-3.72,1.187-5.569,1.812-3.215,1.088-6.448,2.163-9.608,3.405a2.09,2.09,0,0,0-1.4,2.461c.62,4.466,1.549,8.9,2.508,13.3,1.274,5.85,2.684,11.693,4.528,17.392,1.76,5.436,3.253,11.712,7.647,15.695a15.2,15.2,0,0,0,9.368,4.05,16.034,16.034,0,0,0,9.687-3,35.8,35.8,0,0,0,6.74-6.346,38.985,38.985,0,0,0,5.832-8.2c1.116-2.308-2.332-4.338-3.454-2.019a33.151,33.151,0,0,1-4.508,6.576,39.819,39.819,0,0,1-5.018,5.3,14.55,14.55,0,0,1-7.683,3.665,10.787,10.787,0,0,1-8.411-3.107,17.151,17.151,0,0,1-4.01-6.736c-.867-2.4-1.66-4.832-2.436-7.258-1.717-5.369-3.057-10.862-4.27-16.364-1.022-4.636-2.009-9.307-2.663-14.012l-1.4,2.461c3.072-1.208,6.215-2.255,9.339-3.314,1.833-.622,3.67-1.234,5.519-1.806.681-.21,1.363-.418,2.052-.6.244-.066.489-.122.734-.184.418-.106.433-.047.051-.024l-1.727-.991c.207.439-.163-.464.022.054.094.261.2.519.291.78.249.688.486,1.379.721,2.072.7,2.043,1.367,4.093,2.041,6.143,1.479,4.5,2.934,9.01,4.508,13.477a44.323,44.323,0,0,0,1.9,4.869c1.134,2.31,4.585.285,3.453-2.019Z"/><path class="c" d="M111.129,160.912a5.276,5.276,0,0,0-.721-2.709,4.775,4.775,0,0,0-2.636-2.025,5.625,5.625,0,0,0-3.453.024A4.819,4.819,0,0,0,101.7,158.3a5.464,5.464,0,0,0-.021,5.405,5.32,5.32,0,0,0,5.989,2.179,5.05,5.05,0,0,0,3.463-4.968,2,2,0,0,0-4,0,4.228,4.228,0,0,1-.039.551l.071-.531a3.96,3.96,0,0,1-.254.932l.2-.478a3.252,3.252,0,0,1-.379.657l.313-.405a2.85,2.85,0,0,1-.461.464l.405-.312a2.866,2.866,0,0,1-.542.319l.478-.2a3.253,3.253,0,0,1-.756.21l.532-.072a4.378,4.378,0,0,1-1.1,0l.532.072a3.724,3.724,0,0,1-.875-.229l.478.2a3.118,3.118,0,0,1-.625-.357l.405.313a2.959,2.959,0,0,1-.514-.511l.312.4a3.12,3.12,0,0,1-.372-.643l.2.478a3.247,3.247,0,0,1-.211-.781l.071.532a3.962,3.962,0,0,1,.013-.961l-.071.532a3.806,3.806,0,0,1,.259-.955l-.2.478a3.072,3.072,0,0,1,.345-.592l-.313.405a2.858,2.858,0,0,1,.488-.489l-.405.313a3.006,3.006,0,0,1,.567-.33l-.477.2a3.623,3.623,0,0,1,.868-.236l-.532.071a4.283,4.283,0,0,1,1.037,0l-.532-.072a3.793,3.793,0,0,1,.886.226l-.478-.2a2.974,2.974,0,0,1,.626.36l-.405-.313a2.853,2.853,0,0,1,.427.424l-.313-.4a2.9,2.9,0,0,1,.361.613l-.2-.477a3.39,3.39,0,0,1,.22.809l-.071-.532a4.262,4.262,0,0,1,.035.517,2,2,0,0,0,4,0Z"/><path class="c" d="M131.108,92.985a164.48,164.48,0,0,1-6.13,20.425c-2.707,7.613-5.48,15.205-8.4,22.738q-2.081,5.364-4.272,10.683a2.011,2.011,0,0,0,1.4,2.46,2.05,2.05,0,0,0,2.46-1.4q3.991-9.684,7.621-19.513c3.04-8.177,6.085-16.371,8.594-24.73.951-3.17,1.894-6.364,2.588-9.6.538-2.511-3.317-3.583-3.857-1.064Z"/><path class="c" d="M152.536,208.5c-5.343,1.066-11.708,1.1-17.421.865a35.306,35.306,0,0,1-8.028-.984c-.254-.07-.5-.153-.755-.233-.114-.037-.231-.081-.342-.127.045.018.31.145.057.02a5.616,5.616,0,0,1-1.512-1.1,16.392,16.392,0,0,1-2.707-3.863,59.42,59.42,0,0,1-4.746-12.6c-.686-2.478-4.547-1.426-3.857,1.063a69.471,69.471,0,0,0,4.565,12.438c1.492,3,3.517,6.374,6.737,7.735a26.506,26.506,0,0,0,8.437,1.535,96.535,96.535,0,0,0,10.8.093,64.116,64.116,0,0,0,9.837-.983c2.522-.5,1.454-4.36-1.064-3.857Z"/><path class="c" d="M132.934,95.9c6.5,3.083,12.937,6.3,19.367,9.518.8.4,1.571.848,2.354,1.278.844.463,1.778.585,2.609,1.042a9.375,9.375,0,0,1,3.283,3.8,23.687,23.687,0,0,1,2.37,7.594c.092.576.173,1.153.251,1.731-.083-.609.049.383.077.6q.075.59.145,1.179c.221,1.832.42,3.667.611,5.5.5,4.8.948,9.6,1.378,14.4q1.571,17.5,2.89,35.025c.721,9.365,1.431,18.732,2.022,28.107.081,1.278.152,2.557.225,3.837.081,1.388-.172,1.656-1.513,1.993-.256.064.261-.018-.187.038-.275.035-.552.059-.827.089l-12.925,1.385-1.146.123a2.059,2.059,0,0,0-2,2,2.013,2.013,0,0,0,2,2l11.792-1.264a30.267,30.267,0,0,0,4.806-.619,5.246,5.246,0,0,0,3.759-3.272,8.527,8.527,0,0,0,.2-3.242c-.477-8.611-1.148-17.214-1.8-25.813q-1.368-18.123-2.931-36.232c-.791-9.055-1.512-18.145-2.755-27.152-.741-5.362-2.468-11.707-7.174-14.928a9.333,9.333,0,0,0-2.329-1.087,20.471,20.471,0,0,1-2.775-1.37c-1.437-.741-2.9-1.442-4.342-2.162q-5.274-2.62-10.56-5.213-2.424-1.182-4.859-2.342c-2.313-1.1-4.346,2.35-2.019,3.454Z"/><path class="c" d="M111.155,196.7a19.141,19.141,0,0,1-5.455,9.074,14.11,14.11,0,0,1-6.518,3c-5.891,1.147-12.3.831-18.289.487-1.482-.085-2.962-.193-4.439-.339a23.176,23.176,0,0,1-2.808-.373c-2.515-.488-3.592,3.367-1.064,3.857a87.31,87.31,0,0,0,17.7,1.069c6.135-.092,12.556-.408,17.58-4.338,3.643-2.85,5.785-7.039,7.149-11.377.774-2.461-3.086-3.514-3.857-1.063Z"/><path class="c" d="M94.709,94.45c3.683,12.059,7.3,24.136,10.981,36.2q1,3.267,2,6.53c.951,3.067,1.864,6.147,2.866,9.2,1.019,3.1,2.306,6.13,3.152,9.289,2.047,7.648.915,15.489-.041,23.205-.523,4.221-1.094,8.437-1.757,12.638-.388,2.464-.562,5.329-1.536,7.655a2.011,2.011,0,0,0,1.4,2.46,2.051,2.051,0,0,0,2.46-1.4,29.561,29.561,0,0,0,1.36-6.553c.623-3.826,1.153-7.667,1.656-11.509.967-7.387,2.274-15.048,1.3-22.5-.815-6.251-3.449-12.045-5.3-18.029q-1.494-4.82-2.967-9.646-3.144-10.29-6.254-20.589Q101.3,102.4,98.566,93.386c-.75-2.455-4.612-1.408-3.857,1.064Z"/><path class="c" d="M94.686,91.624a37.427,37.427,0,0,0-7.333,5.032,35.833,35.833,0,0,0-5.824,5.995,2.023,2.023,0,0,0,.313,2.423q1.843,2.139,3.658,4.3.73.871,1.454,1.75.312.381.62.766c.3.372-.137-.2.163.212l.717-2.736a16.784,16.784,0,0,0-3.19,2.436c-1.446,1.568-.865,3.345.141,4.988.986,1.608,1.971,3.216,2.938,4.837,3.438,5.76,6.853,11.534,10.35,17.259,1.626,2.664,3.25,5.336,5,7.922,1.434,2.122,4.9.122,3.454-2.019-6.222-9.207-11.567-19.009-17.339-28.5-.177-.289-.353-.579-.533-.867-.2-.319-.722-1.583-.942-1.633.39.089-.779,1.263.078.529.234-.2.463-.392.71-.575.439-.326.9-.624,1.354-.924a2.02,2.02,0,0,0,.718-2.736c-1.991-2.741-4.312-5.276-6.52-7.839l.312,2.424a31.869,31.869,0,0,1,5.2-5.185,33.038,33.038,0,0,1,6.524-4.407c2.309-1.14.284-4.591-2.019-3.454Z"/><path class="c" d="M131.563,95.078a33.023,33.023,0,0,1,6.524,4.407,31.869,31.869,0,0,1,5.2,5.185l.313-2.424c-2.209,2.563-4.53,5.1-6.52,7.839a2.028,2.028,0,0,0,.718,2.736c.355.233,2.384,1.711,2.336,1.75-.255.2.091-.967-.257-.619a8.3,8.3,0,0,0-.733,1.241c-.139.222-.278.444-.415.667-1.077,1.75-2.12,3.521-3.172,5.286-3.274,5.5-6.538,11-9.88,16.453-1.481,2.418-2.963,4.841-4.551,7.191-1.446,2.139,2.018,4.143,3.453,2.019,6.417-9.5,11.794-19.659,17.873-29.366.943-1.506,2.144-3.361.993-5.089a12.2,12.2,0,0,0-3.629-2.987l.718,2.736c.3-.413-.136.16.162-.212q.309-.386.621-.766.721-.881,1.453-1.75,1.815-2.163,3.658-4.3a2.038,2.038,0,0,0,.313-2.423,35.788,35.788,0,0,0-5.823-5.995,37.4,37.4,0,0,0-7.334-5.032c-2.3-1.136-4.329,2.313-2.019,3.454Z"/><path class="c" d="M154.184,106.029c-.589,7.2-1.662,14.356-2.7,21.5-1.412,9.746-2.918,19.477-4.386,29.215q-.568,3.772-1.129,7.546a13.97,13.97,0,0,0-.18,2.379c.045,2.026.266,4.052.476,6.065.66,6.339,1.515,12.658,2.359,18.974.834,6.235,1.748,12.467,2.441,18.72a2.059,2.059,0,0,0,2,2,2.012,2.012,0,0,0,2-2c-1.319-11.909-3.246-23.746-4.579-35.655-.26-2.324-.517-4.654-.649-6.99-.039-.677-.051-1.35-.045-2.027,0-.121.018-.241.024-.362-.049,1,.106-.687.141-.921q.28-1.884.562-3.767c1.474-9.831,3-19.655,4.44-29.491,1.228-8.363,2.532-16.754,3.222-25.183.21-2.566-3.791-2.552-4,0Z"/><path class="c" d="M67.948,106.622c.6,7.37,1.7,14.707,2.76,22.022,1.408,9.74,2.915,19.466,4.381,29.2.377,2.5.744,5,1.122,7.5.2,1.311.052-.311.025.2-.006.114.012.236.016.351.011.343,0,.687-.01,1.03-.067,2.057-.288,4.112-.5,6.157-.668,6.322-1.521,12.625-2.363,18.926-.821,6.136-1.719,12.267-2.4,18.42a2.012,2.012,0,0,0,2,2,2.047,2.047,0,0,0,2-2c1.3-11.784,3.2-23.5,4.537-35.278.265-2.346.524-4.7.672-7.052a30.247,30.247,0,0,0-.519-6.536c-1.487-9.961-3.031-19.914-4.5-29.878-1.227-8.322-2.53-16.67-3.216-25.059-.209-2.548-4.211-2.57-4,0Z"/><path class="b" d="M124.618,27.878c-4.915,4.159-7.994,6.3-16.088,10.645-9.874,5.3-22.095,9.184-23.611,9.331l-.925.09a4.327,4.327,0,0,0-2.227-.267c-.081.012-.161.026-.241.043-.6-2.3-1.228-4.739-1.228-4.739-1.361-3.087-1.076-10.522-.055-15.57C83.2,12.794,97.3,2.043,113.717,2.043c17.527,0,29.225,9.682,33.16,25.1,1.085,4.253,2.124,14.138.071,20.774a4.019,4.019,0,0,0-.887-.237,4.335,4.335,0,0,0-2.742.514,42.213,42.213,0,0,1-10.194-8.466,69.435,69.435,0,0,1-8.066-11.658Z"/><path class="c" d="M80.069,62.68a18.089,18.089,0,0,0-1.937,8.657c.124,3.937,1.445,7.473,2.6,11.183a9.9,9.9,0,0,1,.627,4.275,4.2,4.2,0,0,1-1.792,2.954,2.544,2.544,0,0,0-.081,3.667,5.661,5.661,0,0,0,2.892,1.449,25.387,25.387,0,0,0,11.053-.187c2.515-.543,1.45-4.4-1.064-3.857a24.457,24.457,0,0,1-6.944.476,11.78,11.78,0,0,1-2.367-.389c-.313-.09-.549-.252-.654-.242-.283.03.011-.19.079.122.075.341.341.678.227,1.063l-.92,1.2a7.79,7.79,0,0,0,3.542-5.985c.312-2.7-.607-5.261-1.462-7.779-1.623-4.779-2.679-9.855-.342-14.584,1.137-2.3-2.312-4.329-3.454-2.019Z"/><path class="c" d="M82.226,42.449a14.055,14.055,0,0,1-.836-5.044,44.894,44.894,0,0,1,.345-6.807,28.821,28.821,0,0,1,3.62-11.035A31.669,31.669,0,0,1,103.688,5.506,36.49,36.49,0,0,1,127.832,6.68a28.962,28.962,0,0,1,14.781,14.4,35.558,35.558,0,0,1,3.177,11.45c.53,4.835.645,9.953-.714,14.665-.715,2.478,3.143,3.536,3.857,1.064a40.138,40.138,0,0,0,.978-14.5,42.175,42.175,0,0,0-2.623-11.869A33.375,33.375,0,0,0,131.78,4.139C115.672-4.17,94.067.293,83.435,15.173a31.3,31.3,0,0,0-5.4,13.251,49.907,49.907,0,0,0-.661,8.251,18.49,18.49,0,0,0,.993,6.837,2.066,2.066,0,0,0,2.46,1.4,2.012,2.012,0,0,0,1.4-2.46Z"/><path class="c" d="M144.1,50.089a2.209,2.209,0,0,1,3.125.411,4.716,4.716,0,0,1,.452,2.4,14.3,14.3,0,0,1-.2,2.951c-.64,3.507-2.41,7.718-6.309,8.417a2.018,2.018,0,0,0-1.4,2.46,2.044,2.044,0,0,0,2.46,1.4c6.051-1.085,8.939-7.91,9.394-13.4.236-2.837-.011-6.051-2.462-7.885a6.319,6.319,0,0,0-7.89.411,2.016,2.016,0,0,0,0,2.829,2.044,2.044,0,0,0,2.828,0Z"/><path class="c" d="M139.606,63a16.092,16.092,0,0,1-.937,4.332c-.063.191-.491,1.316-.223.707q-.2.457-.426.9a36.645,36.645,0,0,1-3.164,5.086c-2.74,3.759-6.464,7.745-11.158,8.846-2.5.588-1.444,4.445,1.064,3.857,5.666-1.329,10.06-5.96,13.393-10.473,2.877-3.9,5.25-8.309,5.451-13.259.1-2.574-3.9-2.569-4,0Z"/><path class="c" d="M86.606,47.265a6.316,6.316,0,0,0-7.885-.411c-2.453,1.827-2.7,5.049-2.461,7.88.455,5.48,3.341,12.3,9.387,13.386a2.057,2.057,0,0,0,2.46-1.4,2.018,2.018,0,0,0-1.4-2.461c-3.9-.7-5.664-4.906-6.3-8.408a14.253,14.253,0,0,1-.2-2.783,5.521,5.521,0,0,1,.384-2.453,2.191,2.191,0,0,1,3.19-.525,2.053,2.053,0,0,0,2.828,0,2.015,2.015,0,0,0,0-2.828Z"/><path class="c" d="M84.423,62.783A33.366,33.366,0,0,0,91.539,78.76c4.009,4.747,9.317,8.165,15.565,8.84a2.013,2.013,0,0,0,2-2,2.045,2.045,0,0,0-2-2c-5.3-.572-9.715-3.98-13-7.982-3.248-3.957-4.955-8.916-5.825-13.9a2.018,2.018,0,0,0-2.461-1.4,2.046,2.046,0,0,0-1.4,2.461Z"/><path class="c" d="M143.9,46.211c-7.547-4.575-12.812-11.593-17.115-19.153-1.274-2.237-4.731-.224-3.454,2.019,4.641,8.153,10.421,15.66,18.55,20.588,2.207,1.338,4.22-2.12,2.019-3.454Z"/><path class="c" d="M84.919,49.854a25.78,25.78,0,0,0,4.954-1.32c3-.986,5.966-2.094,8.891-3.29A115.81,115.81,0,0,0,118.256,35.2a79.879,79.879,0,0,0,7.776-5.909c1.969-1.663-.872-4.481-2.829-2.829-9.626,8.129-21.27,13.736-33.136,17.791-1.189.407-2.384.8-3.59,1.152-.4.116-.791.23-1.19.33-.238.06-1.251.221-.368.117a2.061,2.061,0,0,0-2,2,2.012,2.012,0,0,0,2,2Z"/><path class="c" d="M108.426,72.276a12.068,12.068,0,0,0,5.813,1.356,9.581,9.581,0,0,0,5.978-1.81,2,2,0,0,0,0-2.829,2.064,2.064,0,0,0-2.829,0c.692-.538-.024-.012-.242.1-.169.089-.621.23.009.016-.158.053-.312.12-.471.171-.425.136-.909.151-1.32.3.211-.077.324-.039.024-.009-.129.013-.259.024-.388.032-.313.02-.626.028-.938.026q-.421,0-.84-.03c-.129-.009-.257-.019-.385-.032q-.11-.01-.219-.024-.236-.029.183.024c-.1.108-1.076-.227-1.232-.274-.173-.051-.341-.113-.512-.171-.448-.154.421.2.015.009-.212-.1-.42-.2-.627-.312a2,2,0,0,0-2.019,3.454Z"/><path class="c" d="M112.966,58.915a25.886,25.886,0,0,1,.61,2.793l-.071-.531a1.711,1.711,0,0,1,.01.385l.072-.532a1.029,1.029,0,0,1-.043.174l.2-.478a.756.756,0,0,1-.061.112l.312-.405a.553.553,0,0,1-.091.09l.405-.313a1.867,1.867,0,0,1-.221.117l.477-.2a1.6,1.6,0,0,1-.373.108l.532-.071a1.464,1.464,0,0,1-.35,0l.532.072c-.132-.019-.262-.051-.394-.069a1.512,1.512,0,0,0-.8-.035,1.492,1.492,0,0,0-.744.237,2,2,0,0,0-.717,2.736,1.915,1.915,0,0,0,1.195.92c.351.047.691.135,1.048.15a3.444,3.444,0,0,0,1.61-.392,2.448,2.448,0,0,0,1.319-1.6,3.767,3.767,0,0,0-.014-1.657c-.152-.9-.36-1.792-.591-2.674a2.067,2.067,0,0,0-.919-1.2,2,2,0,0,0-2.737.718,2.1,2.1,0,0,0-.2,1.541Z"/><path class="c" d="M98.743,50.853c-.466,1.516-.162,5,2.709,5.3,3.8-.023,4-4.239,2.72-6.221C103.126,48.309,100.05,47.634,98.743,50.853Z"/><path class="c" d="M129.139,50.853c.467,1.516.163,5-2.709,5.3-3.8-.023-4-4.239-2.72-6.221C124.756,48.309,127.832,47.634,129.139,50.853Z"/></svg>