<?xml version="1.0" encoding="utf-8"?>
<!-- Uploaded to: SVG Repo, www.svgrepo.com, Generator: SVG Repo Mixer Tools -->
<svg width="800px" height="800px" viewBox="-128.38 0 444.376 444.376" xmlns="http://www.w3.org/2000/svg"><defs><style>.a{fill:#7a7473;}.b{fill:#ffffff;}.c{fill:#211715;}.d{fill:#b3b3b3;}.e{fill:#d9d9d9;}</style></defs><path class="a" d="M94.458,83.752c1.229-4.87-1.375-11.539-5.715-16-3.512-3.827-9.115-5.13-10.617-2.856a12.828,12.828,0,0,0-2.139,5.774c-.067.546-.114,1.126-.137,1.742q-.023.585-.013,1.215c.041,2.349.633,4.756.749,7.105s-.5,4.644-2.733,5.4c-.088.03-.106.316-.1.389a1.009,1.009,0,0,0,.179.5,3.46,3.46,0,0,0,1.144,1,15.876,15.876,0,0,0,10.374,1.814C90.106,89.135,93.882,86.5,94.458,83.752Z"/><path class="b" d="M136.683,48.568a4.283,4.283,0,0,1,3.427-1,4.044,4.044,0,0,1,2.909,1.934,5.73,5.73,0,0,1,.6,2.3,17.15,17.15,0,0,1-1.748,9.085,10.887,10.887,0,0,1-2.817,3.7,7.217,7.217,0,0,1-3.358,1.513s-.209.032-.576.092c-.275,1.03-.584,1.9-.736,2.359-1,2.7-6.662,12.194-13.736,15.376a38.576,38.576,0,0,0,.608,6.441c.344,1.967.236,3.726,2.971,4.713.181.066,3.259,1.266,3.536,1.38,0,0,.5,14.446-18.468,14.446S90.356,95.739,90.356,95.739c.527-.18,1.8-.6,1.981-.664,2.735-.987,2.627-2.746,2.972-4.713a38.688,38.688,0,0,0,.6-6.182,24.538,24.538,0,0,1-9.084-7.075,29.145,29.145,0,0,1-5.554-10.842l-1.095-.169a7.217,7.217,0,0,1-3.358-1.513,10.887,10.887,0,0,1-2.817-3.7A17.15,17.15,0,0,1,72.257,51.8a5.73,5.73,0,0,1,.6-2.3,4.044,4.044,0,0,1,2.909-1.934,4.283,4.283,0,0,1,3.427,1s-.416-23.3,28.028-23.3S136.683,48.568,136.683,48.568Z"/><path class="c" d="M93.914,84.247c-.016.806-.055,1.611-.122,2.414-.03.365-.066.728-.107,1.092-.02.181-.042.363-.065.544-.018.141-.018.146,0,.013l-.031.217c-.162,1.085-.283,2.214-.549,3.28-.025.1-.051.2-.081.294s-.192.361-.022.1a4.7,4.7,0,0,0-.24.4c-.031-.041.34-.361.035-.058-.08.079-.159.157-.24.235-.309.3.343-.186-.062.036-.118.064-.23.138-.35.2s-.347.157-.093.057c-.094.037-.185.07-.28.1-.166.058-.333.112-.5.167-.461.154-.922.306-1.382.462a2,2,0,1,0,1.063,3.857,20.594,20.594,0,0,0,3.285-1.231A5.521,5.521,0,0,0,96.8,93.222a21.621,21.621,0,0,0,.617-3.414,43.179,43.179,0,0,0,.5-5.561,2,2,0,0,0-4,0Z"/><path class="c" d="M118.649,84.247a49.863,49.863,0,0,0,.724,6.926,7.616,7.616,0,0,0,1.53,4.093,8.386,8.386,0,0,0,3.552,2.031c.926.36,1.855.712,2.775,1.086a2,2,0,0,0,2.46-1.4,2.061,2.061,0,0,0-1.4-2.461c-.814-.331-1.635-.642-2.453-.961-.345-.134-.69-.269-1.037-.4-.078-.03-.159-.057-.237-.089.338.139-.2-.117-.266-.153-.113-.066-.537-.421-.175-.09-.1-.1-.2-.2-.306-.293-.3-.285.181.337-.009-.014-.061-.112-.125-.223-.187-.334-.185-.329.109.423-.007-.051-.035-.145-.084-.287-.118-.433-.134-.572-.2-1.158-.292-1.737a39.435,39.435,0,0,1-.558-5.723,2,2,0,0,0-4,0Z"/><path class="b" d="M132.374,397.768a28.991,28.991,0,0,0,3.283,13.224l-21.055-.409.081-11.828Z"/><path class="b" d="M85.833,397.768a28.99,28.99,0,0,1-3.282,13.224l21.054-.409-.081-11.828Z"/><path class="c" d="M83.833,397.768a27.211,27.211,0,0,1-3.009,12.215,2.046,2.046,0,0,0,.717,2.736A2.021,2.021,0,0,0,84.278,412a31.594,31.594,0,0,0,3.555-14.234,2,2,0,0,0-4,0Z"/><path class="c" d="M101.524,398.755l.081,11.828a2,2,0,0,0,4,0l-.081-11.828a2,2,0,0,0-4,0Z"/><path class="c" d="M130.374,397.768A31.608,31.608,0,0,0,133.93,412a2,2,0,0,0,3.454-2.019,27.193,27.193,0,0,1-3.01-12.215,2,2,0,0,0-4,0Z"/><path class="c" d="M112.683,398.755l-.081,11.828a2,2,0,0,0,4,0l.081-11.828a2,2,0,0,0-4,0Z"/><path class="a" d="M64.374,438.135c-.11-.144-.215-.293-.312-.446a8.358,8.358,0,0,1-.554-7.006,22.917,22.917,0,0,1,3.6-6.273q5.2-7.107,11-13.756c1.506-1.727,3.209-3.528,5.461-3.953a3.388,3.388,0,0,0,1.684,3.553,7.939,7.939,0,0,0,4.061.916,22.538,22.538,0,0,0,15.778-6.278c-.027,4.745.021,6.325,0,11.073a9.945,9.945,0,0,1-.416,3.424c-.976,2.639-3.869,3.91-6.191,5.5-6.041,4.134-9.222,11.676-15.552,15.351a16.344,16.344,0,0,1-15.108.542A9.536,9.536,0,0,1,64.374,438.135Z"/><path class="d" d="M74.485,193.605c-5.435,30.8-2,82.71.366,113.005,2.468,31.549,3.976,63.1,6.445,94.648a143.17,143.17,0,0,0,27.822.2,143.253,143.253,0,0,0,27.838-.2c2.468-31.55,3.977-63.1,6.445-94.648,2.38-30.419,5.677-81.683.192-112.765"/><path class="c" d="M66.1,437.126c-1.632-2.23-1.232-5.047-.048-7.4a52.085,52.085,0,0,1,5.49-7.931q3.03-3.954,6.267-7.746c1.712-2.014,3.553-4.809,6.287-5.423l-2.46-2.461a5.56,5.56,0,0,0,3.349,6.187c2.6,1.169,5.748.918,8.492.487a24.241,24.241,0,0,0,13.024-6.537l-3.414-1.414c-.021,4.044.156,8.12-.02,12.161-.088,2.008-1.12,3.183-2.726,4.266a56.634,56.634,0,0,0-4.73,3.255c-5.789,4.806-9.177,13.167-16.925,15.284-4.26,1.164-9.959.484-12.9-3.137a2.013,2.013,0,0,0-2.828,0,2.045,2.045,0,0,0,0,2.828c2.981,3.672,8.532,5.113,13.085,4.78a19.4,19.4,0,0,0,12.29-5.788c3.069-3.008,5.432-6.646,8.488-9.666a30.386,30.386,0,0,1,5.087-3.806,11.178,11.178,0,0,0,4.356-4.348c1.2-2.573.832-5.685.826-8.45-.006-2.46-.017-4.92,0-7.379a2.023,2.023,0,0,0-3.415-1.415,20.231,20.231,0,0,1-8.821,4.983,19.441,19.441,0,0,1-5.753.705c-.946-.028-3.926-.28-3.605-1.932a2.028,2.028,0,0,0-2.46-2.461c-3.456.778-5.719,3.713-7.9,6.271q-3.794,4.455-7.335,9.116c-3.858,5.058-9.874,12.535-5.153,18.985a2.059,2.059,0,0,0,2.736.718A2.015,2.015,0,0,0,66.1,437.126Z"/><path class="a" d="M153.834,438.135q.165-.216.312-.446a8.362,8.362,0,0,0,.553-7.006,22.939,22.939,0,0,0-3.595-6.273q-5.205-7.107-11-13.756c-1.506-1.727-3.208-3.528-5.461-3.953a3.388,3.388,0,0,1-1.683,3.553,7.945,7.945,0,0,1-4.062.916,22.535,22.535,0,0,1-15.777-6.278c.026,4.745-.021,6.325,0,11.073a9.945,9.945,0,0,0,.416,3.424c.976,2.639,3.87,3.91,6.191,5.5,6.041,4.134,9.223,11.676,15.553,15.351a16.342,16.342,0,0,0,15.107.542A9.54,9.54,0,0,0,153.834,438.135Z"/><path class="c" d="M107.954,239.978c-.391,4.285-.34,8.632-.384,12.931-.069,6.806-.065,13.614-.046,20.42.032,11.829.179,23.658.189,35.488.008,9.924-.032,19.848-.053,29.773q-.041,20-.052,40.009,0,7.536.025,15.07c.012,2.482-.086,5,.088,7.48a2.218,2.218,0,0,0,.614,1.664,2.062,2.062,0,0,0,2.828,0,2.014,2.014,0,0,0,0-2.829c-.2-.162.876,1.153.572,1.35a.728.728,0,0,0-.008-.1c.009-.11-.014-.231-.016-.342-.007-.393-.021-.787-.028-1.18-.022-1.355-.031-2.71-.039-4.065-.029-4.653-.032-9.3-.035-13.958q-.01-19.586.044-39.173.03-15.923.059-31.845c.008-10.752-.126-21.5-.17-32.256-.051-12.118-.319-24.3.278-36.408.033-.678.072-1.356.134-2.032a2.015,2.015,0,0,0-2-2,2.043,2.043,0,0,0-2,2Z"/><path class="c" d="M155.561,439.144c4.721-6.451-1.3-13.928-5.153-18.985q-3.549-4.653-7.336-9.116c-2.179-2.558-4.443-5.493-7.9-6.271a2.028,2.028,0,0,0-2.46,2.461c.305,1.572-2.457,1.886-3.394,1.926a19.34,19.34,0,0,1-5.964-.7,20.235,20.235,0,0,1-8.822-4.983,2.022,2.022,0,0,0-3.414,1.415c.011,2.23,0,4.461,0,6.692a43.924,43.924,0,0,0,.183,7.082c.773,4.787,5.508,6.193,8.745,8.971,3.269,2.806,5.668,6.434,8.562,9.593,3.077,3.357,6.853,6.047,11.422,6.834,5.17.89,11.735-.225,15.218-4.515a2.059,2.059,0,0,0,0-2.828,2.014,2.014,0,0,0-2.828,0c-2.551,3.141-7.352,4.09-11.193,3.508-4-.607-7.119-2.91-9.79-5.828-2.609-2.85-4.811-6.066-7.618-8.736a29.458,29.458,0,0,0-4.738-3.567c-1.321-.826-2.968-1.735-3.616-3.241a9.937,9.937,0,0,1-.348-3.831q-.006-1.72,0-3.442c.007-2.231.013-4.462,0-6.692l-3.414,1.414a24.235,24.235,0,0,0,13.023,6.537c2.665.418,5.7.667,8.253-.386a5.6,5.6,0,0,0,3.589-6.288l-2.46,2.461c2.669.6,4.457,3.275,6.133,5.242q3.308,3.883,6.421,7.927a54.253,54.253,0,0,1,5.392,7.742c1.242,2.395,1.735,5.282.05,7.585a2.015,2.015,0,0,0,.717,2.736A2.046,2.046,0,0,0,155.561,439.144Z"/><path class="c" d="M72.556,193.074a227.289,227.289,0,0,0-2.871,34.239c-.278,12.751.016,25.512.571,38.252,1.17,26.833,3.613,53.6,5.314,80.4,1.17,18.436,2.288,36.876,3.726,55.294a2.068,2.068,0,0,0,2,2,154.416,154.416,0,0,0,26.484.307c2.551-.191,2.572-4.192,0-4a154.416,154.416,0,0,1-26.484-.307l2,2c-2.515-32.214-4.117-64.49-6.605-96.706-1.856-24.03-3.328-48.145-3.085-72.257.129-12.729.607-25.6,2.808-38.158a2.058,2.058,0,0,0-1.4-2.46,2.018,2.018,0,0,0-2.461,1.4Z"/><path class="c" d="M141.664,194.377c1.968,11.232,2.565,22.7,2.813,34.085.276,12.725-.01,25.459-.561,38.172-1.162,26.808-3.6,53.55-5.3,80.326-1.147,18.1-2.251,36.212-3.663,54.3l2-2a154.426,154.426,0,0,1-26.485.307c-2.567-.192-2.555,3.809,0,4a154.426,154.426,0,0,0,26.485-.307,2.067,2.067,0,0,0,2-2c2.508-32.124,4.1-64.311,6.584-96.437,1.863-24.106,3.309-48.3,3-72.488-.165-13.031-.769-26.162-3.022-39.02a2.018,2.018,0,0,0-2.46-1.4,2.046,2.046,0,0,0-1.4,2.461Z"/><path class="d" d="M65.97,105.222c.841-.671,15.515-8.08,23.6-11.971.525-1.21,3.012-3.4,5.317-4.873.951,2.233,4,7.5,4.934,9.155,1.914,3.375,5.547,9.405,7.9,12.619l.114.157.73-1.022c1.236-1.731,4.71-6.7,5.482-7.792,1.669-2.361,6.384-10.378,8.087-13.3,2.5,1.548,5.323,4.034,5.661,5.241,7.114,3.291,17.2,8.269,21.441,10.519l.81.4c7.764,3.842,17.035,16.233,26.425,29.415,3.078,4.321,10.038,12.527,9.154,18.168-.944,6.019-6.033,14.528-9.677,19.256-4.991,6.474-10.124,13.833-15.487,18.909-3.987-3.015-9.774-8.977-13.658-12.189,2.634-5.446,11.966-21.44,13.309-25.042,0,0,.056-.136.152-.353-1.643-2.179-10.043-10.529-13.5-13.9-1.305,8.458-2.669,16.86-3.686,23.73-.192,1.3,2.231,29.42,2.627,31.249l.054.251h-2.727s-34.452,0-68.542.006c.026-2.153-.405-29.127-.673-30.939-.43-2.9-.921-6.1-1.446-9.466l-.906,2.4a40.627,40.627,0,0,1-3.321,6.623,30.3,30.3,0,0,1-4.5,6.255c-3.96,4.333-9.515,6.778-15.71,4.114-6.061-2.607-8.153-8.115-10.909-13.143a232.106,232.106,0,0,1-13.493-31.119c2.394-1.441,15.849-8.837,17.431-9.148,1.922,2.721,20.177,37.752,13.407,21.915-.136,1.985,1.139-6.4,1.981-9.219,1.646-7,3.245-13.777,4.256-17.653a22.88,22.88,0,0,1,3.793-8.189,14.281,14.281,0,0,1,1.943-1.332"/><path class="c" d="M76.485,193.605c-.007-9.156-.213-18.328-.514-27.479-.166-5.03-1.174-9.993-1.949-14.958-1.234-7.915-2.484-15.827-3.62-23.756-1.058-7.393-2.131-14.834-2.5-22.3-.127-2.562-4.128-2.577-4,0,.329,6.641,1.241,13.258,2.149,19.84,1.085,7.874,2.312,15.728,3.538,23.581q.876,5.607,1.739,11.216.186,1.221.369,2.44c.062.413.095.848.187,1.255-.03-.133-.048-.647-.046-.287,0,.559.066,1.124.088,1.683.193,4.854.265,9.714.354,14.571.088,4.73.2,9.463.206,14.194,0,2.574,4,2.579,4,0Z"/><path class="c" d="M147.628,193.063c-.029-.142-.043-.286-.069-.428.138.752-.01-.106-.042-.384-.091-.8-.173-1.6-.253-2.4-.239-2.39-.458-4.781-.671-7.173-.471-5.28-.923-10.563-1.3-15.851-.1-1.4-.227-2.815-.235-4.222,0-.466-.054.166.033-.367.151-.927.279-1.858.42-2.786q.441-2.883.894-5.763c1.293-8.254,2.624-16.5,3.831-24.768,1.153-7.892,2.347-15.84,2.743-23.814.128-2.573-3.873-2.566-4,0-.344,6.925-1.32,13.825-2.3,20.682-1.195,8.351-2.533,16.681-3.844,25.014-.59,3.746-1.3,7.5-1.73,11.272a19.83,19.83,0,0,0,.1,3.495c.34,5.156.784,10.306,1.236,15.453.245,2.791.5,5.582.772,8.371a46.218,46.218,0,0,0,.552,4.727c.518,2.52,4.374,1.453,3.857-1.063Z"/><path class="c" d="M75.545,195.845h67.481c2.574,0,2.578-4,0-4H75.545c-2.574,0-2.578,4,0,4Z"/><path class="c" d="M83.715,185.268c13.687,0,27.373.037,41.06.037,2.574,0,2.578-4,0-4-13.687,0-27.373-.036-41.06-.037-2.574,0-2.578,4,0,4Z"/><path class="c" d="M89.275,91.18c-4.962,2.377-9.886,4.834-14.8,7.317-2.161,1.093-4.32,2.191-6.465,3.314a21.721,21.721,0,0,0-3.053,1.684,2.066,2.066,0,0,0-.718,2.737,2.015,2.015,0,0,0,2.737.717,21.665,21.665,0,0,1,3.053-1.684c2.145-1.123,4.3-2.221,6.465-3.314,4.91-2.483,9.834-4.94,14.8-7.317,2.32-1.111.294-4.562-2.019-3.454Z"/><path class="c" d="M123.58,93.707c5.409,2.406,10.736,5,16.043,7.62,2.386,1.178,4.768,2.366,7.132,3.587a23.181,23.181,0,0,1,3.423,1.876,2.011,2.011,0,0,0,2.736-.717,2.051,2.051,0,0,0-.717-2.737,23.222,23.222,0,0,0-3.423-1.876c-2.364-1.221-4.746-2.409-7.132-3.587-5.307-2.62-10.634-5.214-16.043-7.62a2.062,2.062,0,0,0-2.736.718,2.014,2.014,0,0,0,.717,2.736Z"/><path class="c" d="M65.329,103.219a9.472,9.472,0,0,0-3.306,2.9,22.791,22.791,0,0,0-2.548,5.249,91.572,91.572,0,0,0-2.591,9.807c-.944,3.933-1.913,7.865-2.823,11.8-.6,2.622-.96,5.294-1.556,7.916-.569,2.507,3.287,3.577,3.857,1.064.554-2.436.9-4.918,1.432-7.359.813-3.714,1.763-7.407,2.646-11.106.773-3.237,1.452-6.536,2.44-9.716a22.428,22.428,0,0,1,2-4.7,5.406,5.406,0,0,1,2.469-2.411c2.234-1.279.221-4.736-2.019-3.454Z"/><path class="c" d="M105.952,110.152c0,9.845.055,19.69.088,29.534q.069,21,.139,41.991c.012,3.728.032,7.456.032,11.183,0,2.574,4,2.578,4,0,0-9.372-.056-18.744-.088-28.116q-.071-21.195-.139-42.389c-.013-4.067-.032-8.135-.032-12.2,0-2.573-4-2.578-4,0Z"/><path class="b" d="M26.174,126.569c-1.473-2.305-4.433-4.342-5.973-6.809a45.92,45.92,0,0,1-4.208-10.832c-1.345-3.255.682-7.445,3.479-9.515A19.728,19.728,0,0,1,28.49,95.55c1.928-.322,4.7-.44,5.4,1.34.962,2.446.772,3.023-.772,4.075a3.26,3.26,0,0,1,3.977,1.726c.61,1.329-.219,3.2-2,4.215,2.478-.8,3.095.978,3.466,1.987a2.923,2.923,0,0,1-1.439,3.8c3.75.5,1.752,5.96-.531,6.9l.763,1.222Z"/><path class="b" d="M33.685,96.482c-.008-.113-.01-.181-.01-.181-.092-2.757-.164-8.342-3.641-8.609-4.259-.327-2.57,3.848-3.859,8.362a22.263,22.263,0,0,1,2.315-.5C30.263,95.254,32.753,95.13,33.685,96.482Z"/><path class="e" d="M18.88,99.563c-.485-.993-2.492-6.662-3.157-8.171-1.151-2.61-2.154-5.691-4.85-7.294-3.09-1.837-5.743-3.225-7.749-6.414-1.583-2.514-1.248-5.558-.462-8.34.991-3.5,4.322-7.159,6.216-7.755.291,1.046,1.466,8.106,1.778,9.721a16.017,16.017,0,0,0,4.465,1.548,22.838,22.838,0,0,0,4.345-2.719c-.056-1.569-.563-8.12-.715-9.619C23.508,61.6,29.268,68.3,28.366,73.635a36.572,36.572,0,0,1-2.757,7.973c-1.139,2.788-.206,5.012.8,7.644.536,1.4,1.21,3.819,2.176,5.82Z"/><path class="c" d="M20.482,101.14a19.468,19.468,0,0,1,8.82-3.706c.678-.083,2.259-.339,2.751.224.339.387.308,1.218.428,1.5-.05-.12.088-.318.168-.385-.2.165-.328.316-.536.462-1.8,1.255-.757,4.261,1.541,3.656.572-.151,1.509-.052,1.641.693.108.612-.708,1.286-1.2,1.592a2.009,2.009,0,0,0,1.541,3.656c.2-.058.92-.037.578-.2.112.053.292.431.337.532.248.561.426,1.366-.428,1.8-1.453.746-1.221,3.366.478,3.656.325.055.432.145.626.172-.039-.006-.017.151-.09-.147a1.818,1.818,0,0,1-.017,1.131,3.089,3.089,0,0,1-1.529,2.089,2.016,2.016,0,0,0-.717,2.736,2.046,2.046,0,0,0,2.736.718c3.972-1.827,5.446-9.636.054-10.556l.478,3.655c2.593-1.332,3.125-4.278,2.068-6.8a4.411,4.411,0,0,0-5.637-2.65l1.541,3.655c2.127-1.309,3.8-3.781,2.965-6.354a5.307,5.307,0,0,0-6.484-3.243l1.542,3.656c1.8-1.259,2.714-2.778,2.143-5.016a5.137,5.137,0,0,0-4.77-4.264c-4.616-.5-9.362,1.708-13.042,4.274-2.1,1.463-.1,4.932,2.019,3.454Z"/><path class="c" d="M24.489,106.92c1.772-.722,3.52-1.506,5.273-2.273l2.776-1.216,1.033-.449.372-.16c.393-.169-.561.232-.189.08a2.2,2.2,0,0,0,1.2-.919,2.044,2.044,0,0,0,.2-1.541,2.021,2.021,0,0,0-2.461-1.4c-1.6.653-3.168,1.369-4.747,2.061q-1.449.633-2.9,1.264-.6.258-1.19.513c-.185.079-.836.344-.053.024-.126.051-.252.105-.378.156a2.2,2.2,0,0,0-1.2.919,2.046,2.046,0,0,0-.2,1.542,2.021,2.021,0,0,0,2.461,1.4Z"/><path class="c" d="M27.186,112.6a48.727,48.727,0,0,1,4.925-2.282c.1-.044.207-.087.31-.132-.581.249-.152.065-.021.01l.635-.266,1.138-.473c.635-.264,1.275-.517,1.9-.8a2.007,2.007,0,0,0,.717-2.736,2.057,2.057,0,0,0-2.736-.718c-.08.037-.16.071-.24.106l-.138.059c-.265.115.563-.236.233-.1l-.959.4q-1.429.594-2.857,1.2a48.946,48.946,0,0,0-4.925,2.282,2,2,0,1,0,2.019,3.454Z"/><path class="c" d="M30.563,117.936c2.627-1.159,5.191-2.455,7.775-3.7a2.012,2.012,0,0,0,.718-2.737,2.053,2.053,0,0,0-2.737-.717c-2.584,1.249-5.148,2.545-7.775,3.7a2.006,2.006,0,0,0-.919,1.2,2.043,2.043,0,0,0,.2,1.541,2.017,2.017,0,0,0,1.195.919,2.317,2.317,0,0,0,1.541-.2Z"/><path class="c" d="M18.633,97.661a12.474,12.474,0,0,0-4.863,7.39c-.495,2.635.43,5.192,1.246,7.673A37.446,37.446,0,0,0,18.4,120.64c1.632,2.656,4.339,4.375,6.052,6.939,1.423,2.13,4.889.129,3.454-2.019-1.519-2.274-3.725-3.89-5.411-6.013a22.693,22.693,0,0,1-3.165-6.564c-.379-1.069-.732-2.148-1.045-3.238a14.164,14.164,0,0,1-.682-2.623c-.182-2.245,1.328-4.678,3.054-6.007a2.068,2.068,0,0,0,.718-2.737,2.014,2.014,0,0,0-2.737-.717Z"/><path class="c" d="M28.9,90.747c.008-.069.021-.142.025-.211,0,.01-.084.539-.029.224.019-.113.036-.227.059-.34a6.068,6.068,0,0,1,.188-.7c.125-.385-.206.369-.055.132.016-.025.131-.276.162-.273.046.005-.388.409-.171.221a1.046,1.046,0,0,0,.079-.084c.035-.036.082-.066.113-.1.082-.1-.43.257-.184.151.086-.037.407-.2.055-.048s.006.012.1-.012a1.147,1.147,0,0,0,.188-.04c-.022.01-.547.044-.226.031.152-.006.3-.017.456-.015a1.388,1.388,0,0,1,.47.025c.026.015-.568-.126-.271-.032.04.012.084.017.125.027.094.022.186.061.28.082.3.065-.293-.095-.252-.11.022-.008.151.075.178.091.081.044.155.1.236.146.259.14-.255-.166-.215-.169a.764.764,0,0,1,.12.1c.066.067.135.13.2.2.34.371-.179-.288-.03-.055.115.18.231.355.33.545.048.091.091.184.135.277.063.13.09.32-.095-.231.024.072.055.142.082.213a9.808,9.808,0,0,1,.392,1.419q.069.336.121.675c.025.162.062.655,0-.044.012.13.031.26.045.389.109,1.022.141,2.048.175,3.074a2,2,0,0,0,4,0,19.918,19.918,0,0,0-.99-6.872,5.8,5.8,0,0,0-2.624-3.2,5.469,5.469,0,0,0-4.928.033c-1.64.933-2.042,2.759-2.237,4.483a2,2,0,0,0,2,2,2.058,2.058,0,0,0,2-2Z"/><path class="c" d="M20.607,98.553c-.09-.192-.108-.24,0,0-.074-.175-.143-.353-.213-.531-.215-.548-.422-1.1-.63-1.651-.444-1.184-.882-2.371-1.331-3.553A36.3,36.3,0,0,0,15.14,85.6c-1.881-2.835-4.878-3.887-7.478-5.882a10.559,10.559,0,0,1-3.119-3.588,7.636,7.636,0,0,1-.3-4.842,12.534,12.534,0,0,1,2.217-5,13.242,13.242,0,0,1,1.6-1.781,7.563,7.563,0,0,1,1.351-.983l-2.46-1.4c.5,1.9.748,3.884,1.085,5.816.189,1.077.373,2.154.568,3.23a2.985,2.985,0,0,0,2.1,2.384,17.929,17.929,0,0,0,3.388,1.168,4.62,4.62,0,0,0,3.537-.908c1.1-.661,2.9-1.531,3.563-2.663.5-.85.214-2.156.15-3.094-.17-2.512-.344-5.028-.592-7.534l-2.532,1.929a11.429,11.429,0,0,1,6.15,4.6A8.782,8.782,0,0,1,25.981,75.1c-1.052,3.707-3.417,6.913-2.7,10.917a33.254,33.254,0,0,0,1.576,4.816,51.11,51.11,0,0,0,2,5.245A2.019,2.019,0,0,0,29.6,96.8a2.046,2.046,0,0,0,.717-2.737c-.766-1.636-1.256-3.374-1.873-5.067-.606-1.665-1.535-3.461-1.336-5.285.212-1.943,1.442-3.854,2.116-5.671a16.8,16.8,0,0,0,1.238-5.457c.088-6.038-5.4-12.563-11.175-13.991a2.018,2.018,0,0,0-2.532,1.929c.316,3.193.587,6.413.715,9.619l.586-1.414a22.608,22.608,0,0,1-1.884,1.288c-.354.224-.712.444-1.078.649a3.968,3.968,0,0,0-.46.246c-.552.412.909.145.623-.028a12.88,12.88,0,0,0-2.064-.621,7.01,7.01,0,0,1-1.523-.676l.919,1.2c-.616-3.221-.945-6.547-1.778-9.721a2.016,2.016,0,0,0-2.46-1.4c-3.052,1.1-5.5,4.245-6.819,7.1C-.1,70.28-.739,74.8,1.183,78.331c1.842,3.384,5.144,5.379,8.339,7.292a7.92,7.92,0,0,1,3.046,3.545c.371.745.692,1.512,1.017,2.277.091.214.181.428.273.641,0,.009.226.528.1.217-.086-.2.162.4.216.542,1.007,2.561,1.811,5.235,2.982,7.727,1.094,2.328,4.543.3,3.454-2.019Z"/><path class="c" d="M57.15,144.005a93.717,93.717,0,0,1-5.514-9.5c-2.284-4.138-4.527-8.3-6.825-12.429-.681-1.225-1.325-2.5-2.125-3.658a2.084,2.084,0,0,0-2.259-.919,16.073,16.073,0,0,0-3.386,1.487c-1.81.9-3.6,1.844-5.378,2.8-3.069,1.642-6.158,3.275-9.144,5.064A2.035,2.035,0,0,0,21.6,129.1c1.4,4.467,3.226,8.821,5.037,13.133,2.373,5.649,4.866,11.263,7.71,16.693,2.606,4.975,4.995,10.549,9.659,13.961a15.053,15.053,0,0,0,17.845.081,26.191,26.191,0,0,0,6.757-7.442,54.963,54.963,0,0,0,4.779-9.157,2.015,2.015,0,0,0-1.4-2.46,2.045,2.045,0,0,0-2.46,1.4,46.569,46.569,0,0,1-3.894,7.411,26.1,26.1,0,0,1-4.757,5.927,12.186,12.186,0,0,1-6.757,3.247,11.619,11.619,0,0,1-8.1-2.458c-3.935-3.024-5.984-8.249-8.224-12.526-2.65-5.059-5-10.279-7.223-15.538-1.846-4.374-3.7-8.8-5.121-13.332l-.919,2.258c2.905-1.741,5.91-3.331,8.9-4.931,1.767-.948,3.54-1.887,5.333-2.785q.947-.474,1.906-.922c.133-.062.268-.121.4-.18-.566.248-.1.062-.033.017a1.4,1.4,0,0,1,.449-.145l-2.259-.919a94.966,94.966,0,0,1,4.892,8.687c2.314,4.229,4.608,8.47,7,12.656a47.568,47.568,0,0,0,2.574,4.246,2.056,2.056,0,0,0,2.736.718,2.016,2.016,0,0,0,.718-2.736Z"/><path class="c" d="M145.565,140.245q3.769,3.687,7.468,7.447c1.226,1.248,2.445,2.5,3.64,3.779.461.492.919.988,1.364,1.494.17.193.338.386.5.584a1.953,1.953,0,0,0,.2.244c-.418-.358-.255-.336-.12-.149a2.057,2.057,0,0,0,2.736.717,2.015,2.015,0,0,0,.718-2.736,45.684,45.684,0,0,0-4.3-4.805c-2.1-2.173-4.226-4.312-6.368-6.439q-1.5-1.488-3.006-2.964a2,2,0,0,0-2.828,2.828Z"/><path class="c" d="M166.108,151.189c.707-.217,1.435-.368,2.148-.564a20.526,20.526,0,0,0,3.238-1.172,2.01,2.01,0,0,0,.919-1.195,2.043,2.043,0,0,0-.2-1.541,2.017,2.017,0,0,0-1.2-.919,2.267,2.267,0,0,0-1.541.2q-.219.1-.442.2l.478-.2a20.492,20.492,0,0,1-2.571.843c-.63.168-1.271.3-1.9.495a2.1,2.1,0,0,0-1.2.92,2,2,0,0,0,2.259,2.938Z"/><path class="c" d="M33.294,135.158c4.047-2.21,8.018-4.569,12.132-6.655a2.014,2.014,0,0,0,.718-2.736,2.049,2.049,0,0,0-2.737-.718c-4.113,2.087-8.085,4.445-12.132,6.656a2.018,2.018,0,0,0-.718,2.736,2.042,2.042,0,0,0,2.737.717Z"/><path class="c" d="M151.08,172.906c.583.416,1.167.831,1.746,1.252q.579.42,1.154.849c.207.155.414.31.62.467l.318.243c.375.286-.351-.275.025.019a40.171,40.171,0,0,1,4.882,4.322,2.016,2.016,0,0,0,2.829,0,2.045,2.045,0,0,0,0-2.829,60.439,60.439,0,0,0-9.555-7.777,2.009,2.009,0,0,0-2.736.718,2.054,2.054,0,0,0,.717,2.736Z"/><path class="d" d="M125.146,90.4a26.084,26.084,0,0,0-3.021-2.2c-1.639,2.816-6.058,10.328-7.878,13,.525.329.837.527.837.527,1.506.956,11.233,3.866,12.392,3.606.068-3.4.068-10.322-.055-12.609A13.775,13.775,0,0,0,125.146,90.4Z"/><path class="d" d="M90.877,91.562a24.979,24.979,0,0,1,4.007-3.183c.956,2.241,4,7.5,4.935,9.154.654,1.153,1.508,2.615,2.443,4.169l-.05.023c-1.506.956-11.233,3.866-12.392,3.606-.068-3.4-.068-10.322.055-12.609A9.3,9.3,0,0,1,90.877,91.562Z"/><path class="b" d="M120.578,186.691a60.048,60.048,0,0,1,7.354-5.713l1.406-.7c-2.528.011-5.837,0-7.466-.04-1.514-.04-3.93-.036-3.97-2.311a2.9,2.9,0,0,1,2.708-3.053c1.454-.047,4.9-.1,6.4-.1,1.869,0,5.214,0,6.945-.049,7.153-.194,11.657,1.655,17.094,6.548l8.044,7.239v1.739c0,1.919-3.314,5.247-6.642,5.494-3.291.243-5.454-1.013-7.94-2.123a5.114,5.114,0,0,0-3.516-.193c-1.348.394-2.759,1.854-3.872,2.589a35.318,35.318,0,0,1-6.4,3.747,5.371,5.371,0,0,1-3.19-.464,2.3,2.3,0,0,1-.448-3.494,2.777,2.777,0,0,1-4.017-.446,2.892,2.892,0,0,1,1.084-4.278,2.51,2.51,0,0,1-3.634-.608c-.75-.982-.738-3.173.055-3.782"/><path class="c" d="M147.493,176.039a23.252,23.252,0,0,0-11.375-3.309c-3.47-.129-6.982.017-10.456.05-3.385.033-7.964-.647-9.432,3.285a4.395,4.395,0,0,0,1.235,5.081,7.373,7.373,0,0,0,4.407,1.089c3.352.086,6.713.069,10.066.021,2.572-.038,2.579-4.038,0-4-2.523.036-5.048.033-7.572.014-1.074-.008-2.152,0-3.225-.058-.719-.036-1.505.091-1.168-.775.346-.887,1.7-.595,2.445-.609,1.413-.028,2.828-.049,4.242-.055,2.869-.011,5.745-.091,8.613-.062a19.549,19.549,0,0,1,10.2,2.781c2.205,1.341,4.218-2.117,2.019-3.453Z"/><path class="c" d="M126.923,179.251a11.08,11.08,0,0,0-1.357.895c-.713.509-1.414,1.036-2.109,1.57a44.34,44.34,0,0,0-4.294,3.561,2,2,0,0,0,2.829,2.828c.527-.524,1.1-1,1.669-1.479q.553-.461,1.119-.908l.512-.4.3-.229c.268-.209-.437.335-.038.029.69-.53,1.386-1.052,2.094-1.556a10.8,10.8,0,0,1,1.3-.853,2.014,2.014,0,0,0,.717-2.737,2.047,2.047,0,0,0-2.736-.717Z"/><path class="c" d="M133.359,181.746c-3.619,2.53-7.126,5.218-10.617,7.921a2,2,0,0,0,0,2.828,2.063,2.063,0,0,0,2.829,0l.262-.2c.209-.163-.393.3-.024.018l.513-.4q.579-.444,1.159-.888,1.3-.991,2.6-1.972c1.747-1.31,3.5-2.6,5.294-3.855a2,2,0,1,0-2.018-3.454Z"/><path class="c" d="M136.577,186.4c-3.6,2.409-6.993,5.132-10.5,7.679a2.048,2.048,0,0,0-.717,2.736,2.023,2.023,0,0,0,2.736.718c3.5-2.547,6.9-5.27,10.5-7.679a2,2,0,0,0-2.019-3.454Z"/><path class="c" d="M119.163,185.277c-1.538,1.5-1.523,4.336-.442,6.092a4.582,4.582,0,0,0,6.445,1.439c2.1-1.435.239-4.759-2.019-3.454a4.979,4.979,0,0,0-1.99,6.726,4.821,4.821,0,0,0,6.942,1.452l-2.423-3.142a4.37,4.37,0,0,0,2.581,7.254c3.325.714,6.069-1.343,8.7-3.114,1.2-.805,2.3-1.721,3.483-2.55,1.542-1.086,2.784-.758,4.392-.023,2.993,1.368,6.408,2.493,9.684,1.392,3-1.008,6.38-3.709,6.575-7.1.147-2.572-3.853-2.564-4,0a5.542,5.542,0,0,1-1.761,2.2,5.984,5.984,0,0,1-3.96,1.323c-3.377-.085-6.068-2.859-9.469-2.526a8.661,8.661,0,0,0-4.648,2.173c-1.08.851-2.217,1.611-3.368,2.361a14.154,14.154,0,0,1-3.658,2.076c-.268.059-2.16-.112-1.728-.633,1.354-1.631-.381-4.466-2.424-3.141-.475.308-1.124.655-1.469-.017-.274-.533.108-.994.555-1.253l-2.019-3.454c-.425.29-.728.406-1.059-.15a2.865,2.865,0,0,1-.1-1.1c1.847-1.8-.983-4.626-2.829-2.828Z"/><path class="c" d="M92.876,88.724a92.174,92.174,0,0,0,5.459,10.245,133.121,133.121,0,0,0,7.653,12.193,2.058,2.058,0,0,0,2.737.717,2.016,2.016,0,0,0,.717-2.736,133.134,133.134,0,0,1-7.526-11.971q-1.332-2.319-2.637-4.656c-.507-.912-1.008-1.826-1.493-2.75-.234-.445-.465-.892-.686-1.343-.095-.193-.187-.389-.28-.584-.042-.088-.265-.608-.087-.179a2.066,2.066,0,0,0-2.46-1.4,2.013,2.013,0,0,0-1.4,2.461Z"/><path class="c" d="M120.4,87.182c-2.277,3.909-4.559,7.825-6.989,11.641-2.059,3.234-4.355,6.335-6.581,9.455a2.015,2.015,0,0,0,.718,2.736,2.043,2.043,0,0,0,2.736-.717c2.225-3.12,4.522-6.221,6.581-9.455,2.43-3.817,4.711-7.732,6.989-11.641,1.3-2.228-2.157-4.244-3.454-2.019Z"/><path class="c" d="M93.814,86.691a22.5,22.5,0,0,0-4.99,4.149,3.35,3.35,0,0,0-.913,1.616,7.4,7.4,0,0,0-.063.905c-.024.673-.036,1.346-.046,2.019q-.074,4.974.018,9.951a2.027,2.027,0,0,0,1.468,1.929,7.868,7.868,0,0,0,3.1-.28c1.325-.3,2.637-.659,3.939-1.041,1.333-.391,2.661-.807,3.971-1.269a15.435,15.435,0,0,0,2.925-1.218c2.191-1.342.184-4.8-2.019-3.454-.117.071-.238.133-.361.194a1.911,1.911,0,0,0-.264.121c-.181.127.445-.174.116-.048-.486.185-.969.375-1.46.548-1.251.441-2.517.839-3.789,1.215-1.244.368-2.5.717-3.76,1.013-.455.106-.911.2-1.369.284-.6.117.358.011-.084.012-.26,0-.655-.074.12.066l1.468,1.928c-.081-4.192-.16-8.42.055-12.609L91.6,93.731c-.215.3.187-.221.192-.227.156-.176.318-.347.483-.514.342-.345.7-.674,1.069-.991a22.937,22.937,0,0,1,2.487-1.854,2.045,2.045,0,0,0,.717-2.737,2.021,2.021,0,0,0-2.736-.717Z"/><path class="c" d="M121.463,90.145A22.807,22.807,0,0,1,123.95,92c.368.318.726.646,1.068.991.166.167.328.338.484.514.047.054.406.523.192.227l-.273-1.009c.215,4.189.136,8.417.055,12.609l1.468-1.928c.827-.149.388-.026.158-.063-.525-.085.457.091-.067-.005-.477-.088-.951-.184-1.424-.294-1.264-.3-2.516-.645-3.76-1.013-1.272-.376-2.538-.774-3.789-1.215-.471-.166-.936-.347-1.4-.525-.305-.117-.038-.024.106.046-.089-.044-.183-.078-.271-.123-.136-.069-.271-.134-.4-.213-2.2-1.348-4.213,2.11-2.019,3.454a15.041,15.041,0,0,0,2.85,1.191c1.335.473,2.687.9,4.046,1.3,1.279.376,2.567.733,3.869,1.026a8.049,8.049,0,0,0,3.168.3,2.018,2.018,0,0,0,1.469-1.929q.1-4.974.018-9.951c-.01-.649-.022-1.3-.044-1.945-.008-.237-.01-.477-.029-.713a3.193,3.193,0,0,0-.949-1.882,22.5,22.5,0,0,0-4.99-4.149,2,2,0,0,0-2.019,3.454Z"/><path class="c" d="M149.03,106.081c5.478,2.766,9.734,7.88,13.57,12.527,4.858,5.884,9.149,12.18,13.7,18.295a73.944,73.944,0,0,1,5.132,7.534c1.188,2.089,2.521,4.662,2.233,7.12-.358,3.046-1.849,6.1-3.235,8.787a66.951,66.951,0,0,1-5.181,8.448c-2.455,3.411-5.05,6.744-7.623,10.066a87.618,87.618,0,0,1-8.585,9.83l2.423-.313c-4.714-3.6-8.7-8.083-13.253-11.877l.313,2.424c2.21-4.544,4.775-8.926,7.214-13.349,2.183-3.957,4.682-7.934,6.3-12.17a2.016,2.016,0,0,0-1.4-2.461,2.045,2.045,0,0,0-2.46,1.4c-.045.118-.26.617-.025.077-.058.133-.116.267-.178.4-.176.369-.349.739-.53,1.106-.471.952-.963,1.894-1.461,2.833-1.257,2.372-2.554,4.724-3.851,7.075-2.39,4.331-4.9,8.624-7.063,13.074a2.048,2.048,0,0,0,.313,2.424c4.821,4.016,9.068,8.687,14.062,12.5a2.01,2.01,0,0,0,2.424-.313c5.969-5.7,10.66-12.617,15.663-19.137,4.077-5.311,7.879-11.517,9.613-18.036a12.913,12.913,0,0,0-.668-8.686,43.031,43.031,0,0,0-5.084-8.551c-4.558-6.3-9.061-12.652-13.885-18.75a101.619,101.619,0,0,0-8.409-9.578,33.214,33.214,0,0,0-8.05-6.151c-2.292-1.158-4.319,2.292-2.019,3.454Z"/><path class="c" d="M136.554,118.866c-4.328.021-8.657.066-12.985.1l-2.744.021a6.017,6.017,0,0,0-3.4.588,3.6,3.6,0,0,0-1.486,3.4c.029,1.364-.227,3.106.436,4.352,1.038,1.951,3.2,1.8,5.083,1.791q2.765-.01,5.531-.027,2.993-.015,5.986-.03c1.455-.006,3.3.273,4.7-.182a3.383,3.383,0,0,0,2.356-3.211c.026-.7,0-1.4,0-2.1,0-.554.025-1.113-.024-1.666a3.44,3.44,0,0,0-3.456-3.037,2.018,2.018,0,0,0-2,2,2.038,2.038,0,0,0,2,2c-.538-.039-.52-1.273-.52-.233v1.713c0,.229-.149,1.185,0,1.352s.405-.878.543-.649a3.24,3.24,0,0,0-.775,0c-2.894.006-5.787.024-8.681.039l-4.557.023-1.81.007a4.785,4.785,0,0,0-1.232,0c.008-.007,1,.377.484.759a4.892,4.892,0,0,0-.014-.713c-.012-.61-.027-1.221-.041-1.831a6.421,6.421,0,0,0-.016-.709l-.007-.341a.612.612,0,0,1-.387.659c.031.254-.474-.136.037.056a2.032,2.032,0,0,0,.6,0q2.39-.016,4.779-.038c3.866-.033,7.732-.071,11.6-.09C139.127,122.853,139.133,118.853,136.554,118.866Z"/><path class="c" d="M116.805,132.429c.006,2.367.074,4.734.095,7.1.012,1.377-.251,3.1.337,4.374.836,1.813,2.544,2.036,4.325,2.037l9.132.011,4.2,0c1.832,0,3.628-.327,4.336-2.28a7.569,7.569,0,0,0,.182-2.848c-.031-.97-.068-1.94-.1-2.91-.065-1.716-.147-3.434-.152-5.152-.007-2.573-4.007-2.578-4,0,.008,2.735.175,5.47.26,8.2.011.365.022.729.031,1.094.015.613-.078.278.174.039s.479-.113.02-.145c-.279-.019-.567,0-.847,0l-3.588,0-8.137-.009-1.61,0c-.247,0-.5-.017-.746,0-.041,0-.337-.008-.338,0,.025-.171.456.3.447.3.208.159-.006.249.081.121a.916.916,0,0,0,0-.277q0-.408,0-.815c0-.62-.005-1.24-.01-1.859-.021-2.326-.088-4.653-.094-6.979-.007-2.573-4.007-2.578-4,0Z"/><path class="c" d="M97.79,119.07c-4.25.064-8.5.155-12.751.235q-1.479.028-2.959.055a6.647,6.647,0,0,0-3.036.424,3.825,3.825,0,0,0-1.844,3.824q.229,8.6.465,17.2c.022.819.02,1.641.065,2.459.131,2.386,1.848,3.631,4.137,3.561q6.256-.19,12.511-.36c1.945-.05,4.594.368,6.095-1.117a3.986,3.986,0,0,0,1-3.035l-.065-6.91-.092-9.914c-.009-.892,0-1.787-.025-2.679a3.617,3.617,0,0,0-3.5-3.746c-2.564-.221-2.549,3.78,0,4-.547-.047-.394-.759-.5-.364a2.781,2.781,0,0,0,.006.688l.024,2.546.073,7.839.066,7.12a6.792,6.792,0,0,0,.017,1.825c.1.292-.095.069.173-.2.347-.347.526-.078.147-.134a3.969,3.969,0,0,0-.635.013l-1.251.028c-3.862.092-7.724.207-11.586.324l-2.228.068c-.133,0-.76-.06-.843.025.438-.452.33.949.481.42a8.232,8.232,0,0,0-.056-2.112q-.213-7.974-.431-15.948c-.009-.309.173-2.014-.06-2.23-.017-.016.013-.07,0-.085.467.476-1.032.265-.331.486a4.535,4.535,0,0,0,1.23-.021q1.479-.025,2.959-.055c4.25-.08,8.5-.171,12.751-.235C100.362,123.031,100.369,119.031,97.79,119.07Z"/><path class="c" d="M79.451,132.113a53.427,53.427,0,0,0,9.426,4.855A47.61,47.61,0,0,0,98.4,139.9a2.055,2.055,0,0,0,2.46-1.4,2.018,2.018,0,0,0-1.4-2.46,48.927,48.927,0,0,1-17.993-7.388,2,2,0,1,0-2.019,3.454Z"/><path class="c" d="M75.9,64.674a17.655,17.655,0,0,0-2.007,10.061c.151,1.935.566,3.841.679,5.779.062,1.064.111,2.5-.7,3.321-.472.478-1.154.543-1.59,1.091a2.668,2.668,0,0,0-.406,2.393c.481,1.625,2.257,2.582,3.7,3.215a18.7,18.7,0,0,0,10.607,1.2,14.087,14.087,0,0,0,9.306-5.373c1.481-2.113-1.985-4.114-3.454-2.019-1.626,2.319-5.026,3.4-7.709,3.629A15.151,15.151,0,0,1,79.24,87.6a12.68,12.68,0,0,1-1.966-.659,9.746,9.746,0,0,1-.909-.468c-.206-.116-.406-.241-.6-.373q-.4-.459,0,.22l-.273,1.009.086-.178-1.195.919c4-1.543,4.489-5.529,4.013-9.324-.515-4.1-1.173-8.27.957-12.049,1.265-2.245-2.189-4.264-3.454-2.019Z"/><path class="c" d="M138.1,49.982a2.209,2.209,0,0,1,3.125.412,4.723,4.723,0,0,1,.452,2.4,14.375,14.375,0,0,1-.2,2.952c-.64,3.506-2.411,7.718-6.31,8.417a2.017,2.017,0,0,0-1.4,2.46,2.044,2.044,0,0,0,2.46,1.4c6.05-1.085,8.938-7.911,9.394-13.395.235-2.837-.011-6.051-2.463-7.885a6.316,6.316,0,0,0-7.889.411,2.014,2.014,0,0,0,0,2.828,2.043,2.043,0,0,0,2.828,0Z"/><path class="c" d="M133.651,62.905a16.039,16.039,0,0,1-.938,4.335c-.063.191-.491,1.317-.223.708-.134.306-.276.607-.426.906a36.784,36.784,0,0,1-3.166,5.089c-2.744,3.763-6.471,7.752-11.168,8.854-2.505.588-1.445,4.446,1.063,3.857,5.671-1.33,10.068-5.964,13.4-10.481,2.878-3.9,5.253-8.315,5.454-13.268.1-2.574-3.9-2.569-4,0Z"/><path class="c" d="M80.606,47.154a6.319,6.319,0,0,0-7.889-.411c-2.454,1.828-2.7,5.053-2.463,7.885.456,5.484,3.344,12.31,9.394,13.395a2.057,2.057,0,0,0,2.46-1.4,2.017,2.017,0,0,0-1.4-2.46c-3.9-.7-5.67-4.911-6.31-8.417a14.2,14.2,0,0,1-.2-2.785,5.506,5.506,0,0,1,.384-2.456,2.194,2.194,0,0,1,3.2-.526,2.053,2.053,0,0,0,2.828,0,2.015,2.015,0,0,0,0-2.828Z"/><path class="c" d="M78.424,62.683a33.4,33.4,0,0,0,7.121,15.99c4.012,4.75,9.324,8.17,15.577,8.845a2.012,2.012,0,0,0,2-2,2.047,2.047,0,0,0-2-2c-5.3-.572-9.723-3.983-13.011-7.988-3.25-3.961-4.959-8.923-5.83-13.911a2.017,2.017,0,0,0-2.46-1.4,2.045,2.045,0,0,0-1.4,2.461Z"/><path class="d" d="M137.383,17.093c-6.65-9.846-18.769-15.161-29.447-15.161C94.7,1.932,75.3,12.3,73.592,30.907c-.308,3.366-.569,10.831.473,14.538l1.053.45c2.493,1.071,11.273-2.413,15.7-3.479,4.646-1.117,11.546-2.519,17.119-2.4,5.57-.116,12.466,1.285,17.11,2.4,4.432,1.066,13.212,4.55,15.7,3.479l1.053-.45c1.042-3.707.781-11.172.473-14.538A29.183,29.183,0,0,0,137.383,17.093Z"/><path class="c" d="M76.216,45.592a18.336,18.336,0,0,1-.838-5.46c-.1-2.214-.071-4.436.039-6.65a28.3,28.3,0,0,1,2.657-11.326c3.531-7.14,10.074-12.475,17.351-15.508a32.422,32.422,0,0,1,21.411-1.48c7.764,2.13,15.025,6.867,19.353,13.753a28.172,28.172,0,0,1,4.187,13.166c.165,2.391.223,4.795.153,7.191a20.214,20.214,0,0,1-.87,6.314c-.881,2.423,2.983,3.467,3.858,1.063a21.831,21.831,0,0,0,.972-6.353c.113-2.32.081-4.648-.038-6.967a34.848,34.848,0,0,0-3.235-13.6C137.228,11.49,129.6,5.505,121.128,2.352a36.18,36.18,0,0,0-24.159-.53c-8.333,2.771-16.029,8.1-20.8,15.567a30.778,30.778,0,0,0-4.656,14.444,71.955,71.955,0,0,0-.166,7.617,23.587,23.587,0,0,0,1.007,7.2c.874,2.4,4.741,1.364,3.858-1.063Z"/><path class="c" d="M107.938,25.573c-7.052-.289-14.4,2.5-20.622,5.569a36.246,36.246,0,0,0-8.4,5.571c-2.67,2.414-5.348,5.483-5.8,9.182a2.026,2.026,0,0,0,1.468,1.929c1.534.584,3.426.187,4.971-.129,2.082-.426,4.12-1.06,6.148-1.687A100.327,100.327,0,0,1,98.94,42.783c10-1.659,20.008-.247,29.632,2.73,2.324.719,4.645,1.476,7.018,2.023,1.743.4,3.95.954,5.7.288a2.044,2.044,0,0,0,1.468-1.929c-.444-3.631-3.031-6.643-5.637-9.035a36.066,36.066,0,0,0-8.561-5.718c-6.224-3.069-13.569-5.857-20.621-5.569-2.565.105-2.579,4.106,0,4,6.133-.251,12.53,2.115,17.982,4.722a34.341,34.341,0,0,1,7.2,4.372A25.04,25.04,0,0,1,137,42.561a8.336,8.336,0,0,1,1.762,3.334l1.468-1.928a1,1,0,0,1-.365.114c-.313-.031.5-.016-.087.009a7.628,7.628,0,0,1-.968-.024,17.53,17.53,0,0,1-2.451-.458c-2.108-.5-4.177-1.164-6.246-1.8a90.58,90.58,0,0,0-12.941-3.011,67.065,67.065,0,0,0-29.851,2.533c-2.339.711-4.663,1.48-7.031,2.092a25.209,25.209,0,0,1-2.856.614c-.375.048-.75.055-1.128.066.007,0-.605-.066-.3-.009.244.045-.3-.1-.353-.121L77.118,45.9a8.387,8.387,0,0,1,1.762-3.334,24.813,24.813,0,0,1,3.7-3.75A34.272,34.272,0,0,1,89.955,34.3c5.452-2.607,11.849-4.973,17.983-4.722C110.512,29.679,110.507,25.678,107.938,25.573Z"/><path class="c" d="M102.585,72.182A12.085,12.085,0,0,0,108.4,73.54a9.583,9.583,0,0,0,5.981-1.812,2,2,0,0,0,0-2.828,2.06,2.06,0,0,0-2.828,0c.691-.539-.024-.012-.243.1-.169.089-.621.23.009.016-.158.054-.312.12-.472.171-.424.137-.91.15-1.32.3.21-.078.323-.039.023-.009-.129.012-.259.023-.389.032-.312.02-.625.028-.939.026-.28,0-.56-.011-.84-.03-.128-.009-.257-.019-.385-.032-.073-.007-.146-.016-.219-.025q-.236-.029.183.025c-.047.05-.554-.1-.632-.118-.2-.045-.4-.1-.6-.156-.173-.052-.341-.114-.512-.172-.449-.154.421.2.014.009q-.316-.149-.627-.313a2,2,0,0,0-2.019,3.454Z"/><path class="c" d="M107.129,58.812a25.978,25.978,0,0,1,.611,2.8l-.071-.531a1.718,1.718,0,0,1,.01.386l.072-.532a.962.962,0,0,1-.043.174l.2-.478a.746.746,0,0,1-.061.111l.312-.4a.6.6,0,0,1-.091.09l.405-.313a1.88,1.88,0,0,1-.222.117l.478-.2a1.579,1.579,0,0,1-.373.109l.532-.071a1.472,1.472,0,0,1-.351,0l.532.072c-.132-.019-.262-.051-.394-.069a1.512,1.512,0,0,0-.8-.035,1.489,1.489,0,0,0-.744.237A2,2,0,0,0,106.418,63a1.919,1.919,0,0,0,1.2.92c.351.047.691.135,1.049.15a3.44,3.44,0,0,0,1.609-.392,2.447,2.447,0,0,0,1.32-1.6,3.772,3.772,0,0,0-.014-1.658c-.152-.9-.36-1.793-.592-2.676a2,2,0,0,0-2.46-1.4,2.017,2.017,0,0,0-1.195.919,2.1,2.1,0,0,0-.2,1.541Z"/><path class="c" d="M92.894,50.744c-.467,1.517-.163,5.007,2.711,5.3,3.8-.022,4-4.242,2.722-6.226C97.28,48.2,94.2,47.522,92.894,50.744Z"/><path class="c" d="M123.314,50.744c.467,1.518.163,5.007-2.711,5.3-3.8-.022-4-4.242-2.722-6.226C118.927,48.2,122.006,47.522,123.314,50.744Z"/></svg>