<?xml version="1.0" encoding="utf-8"?>
<!-- Uploaded to: SVG Repo, www.svgrepo.com, Generator: SVG Repo Mixer Tools -->
<svg width="800px" height="800px" viewBox="0 -29.13 352.743 352.743" xmlns="http://www.w3.org/2000/svg"><defs><style>.a{fill:#ffffff;}.b{fill:#211715;}.c{fill:#d9d9d9;}.d{fill:#7a7473;}.e{fill:#9fc3e4;}.f{fill:#3f88c9;}</style></defs><path class="a" d="M341.723,292.544c0-2.759,0-52.673.011-57.382,0,0,0-.985.01-2.534h3.942c-.007-2.74,0-5.748.009-10.4,1.784,0-338.736,0-343.675-.017-.01,4.659-.015,7.668-.02,10.408.243,0,1.614,0,3.979,0-.008,5-.013,57.005-.008,59.755Z"/><path class="a" d="M31.227,214.271c0-3.335.033-14.341.033-15.2,9.157,0,87.1.109,99.967.109v14.8Z"/><path class="a" d="M92.569,188.171c0,.823,0,8.1.006,10.969l-22.987-.028c.006-3.549.006-10.3.006-10.81"/><path class="a" d="M37.143,124.079c0,5.614-.046,53.242.01,63.756.737-.022,72.171,0,87.868,0,0-8.522-.333-54.189-.333-63.53C124.168,124.305,42.925,124.079,37.143,124.079Z"/><path class="b" d="M35.143,124.079q0,10.517-.013,21.035-.008,15.607,0,31.216c0,3.835,0,7.67.024,11.5a2.026,2.026,0,0,0,2,2c8.59-.2,17.207-.01,25.8-.01q22.527,0,45.054.007l17.016,0a2.03,2.03,0,0,0,2-2c0-7.5-.067-14.994-.112-22.49q-.092-15.192-.18-30.383c-.018-3.552-.04-7.1-.041-10.657a2.028,2.028,0,0,0-2-2c-9.448-.007-18.9-.052-28.344-.077q-23.08-.063-46.161-.121c-4.347-.011-8.693-.028-13.04-.028-2.574,0-2.578,4,0,4,10.7,0,21.4.048,32.1.077q22.551.058,45.1.121c3.446.009,6.892.025,10.338.028l-2-2c0,7.691.066,15.382.112,23.074q.09,15.109.18,30.22c.018,3.412.04,6.824.041,10.236l2-2q-18.246,0-36.491-.006-21.021,0-42.04,0c-3.109,0-6.228-.065-9.337.009l2,2c-.043-8.177-.028-16.354-.028-24.531q0-15.123.013-30.245,0-4.489.005-8.98C39.143,121.505,35.143,121.5,35.143,124.079Z"/><path class="c" d="M46.526,135.111c.02,7.705.108,32.726.148,41.482a1.988,1.988,0,0,0,2,1.984c9.836-.048,52.991-.181,65.5-.2a1.988,1.988,0,0,0,1.99-2c-.025-8.7-.172-33.212-.2-41.15a1.988,1.988,0,0,0-1.989-1.985c-10.027-.021-55.032-.118-65.453-.135A1.992,1.992,0,0,0,46.526,135.111Z"/><path class="b" d="M343.723,292.544q-.017-9.633,0-19.266,0-14.714.006-29.428,0-4.344.007-8.688c.007-2.574-3.993-2.578-4,0q-.026,10.329-.01,20.658,0,14.52,0,29.04,0,3.841,0,7.684c0,2.574,4,2.579,4,0Z"/><path class="b" d="M.02,222.207q-.011,5.2-.02,10.408a2.029,2.029,0,0,0,2,2c3.391.01,6.781,0,10.172,0l25.333,0,37.114,0,44.677,0,48.957,0H345.686a2.029,2.029,0,0,0,2-2c-.008-3.467,0-6.935.009-10.4l-2,2h.007c2.574-.009,2.579-3.993,0-4-3.033-.007-6.066,0-9.1,0H230.8l-49.07,0H132.061l-46.338,0-39.451,0q-14.454,0-28.909,0-7.222,0-14.445,0h-.9c-2.574-.006-2.578,3.994,0,4,3.463.008,6.926,0,10.389,0q12.882,0,25.763,0l37.222,0,45.012,0,49.243,0h49.559l45.954,0h66.757c4.377,0,8.851.269,13.223,0,.185-.011.375,0,.56,0v-4H345.7a2.03,2.03,0,0,0-2,2c-.008,3.468-.017,6.936-.009,10.4l2-2q-4.916.007-9.83,0H180.4l-49.4,0H84.825l-39.228,0-28.562,0q-7.091,0-14.18,0H2l2,2q.01-5.2.02-10.408C4.026,219.633.026,219.629.02,222.207Z"/><path class="b" d="M33.227,214.271c0-5.067.03-10.134.033-15.2l-2,2q17.145,0,34.29.037,24.576.03,49.151.059,8.263.007,16.526.013l-2-2v14.8c0,2.574,4,2.578,4,0v-14.8a2.029,2.029,0,0,0-2-2q-18.471,0-36.943-.037-24.2-.029-48.41-.058-7.308-.009-14.614-.014a2.029,2.029,0,0,0-2,2c0,5.067-.032,10.134-.033,15.2,0,2.574,4,2.578,4,0Z"/><path class="b" d="M67.594,188.3v10.162a2,2,0,0,0,4,0V188.3a2,2,0,1,0-4,0Z"/><path class="b" d="M90.569,188.171v10.293a2,2,0,0,0,4,0V188.171a2,2,0,0,0-4,0Z"/><path class="b" d="M7.971,292.372q-.017-10.062,0-20.125,0-15.378.006-30.757,0-4.466.007-8.93c.006-2.574-3.994-2.578-4,0-.018,7.172-.009,14.345-.011,21.517q0,15.183,0,30.366,0,3.965,0,7.929c0,2.574,4,2.578,4,0Z"/><path class="a" d="M192.2,44.334c2.642-7.457,10.223-17.551,30.185-17.551,31.52,0,30.465,25.331,30.465,25.331a4.613,4.613,0,0,1,3.692-1.08,4.36,4.36,0,0,1,3.133,2.083,6.169,6.169,0,0,1,.645,2.478,18.463,18.463,0,0,1-1.883,9.785,11.726,11.726,0,0,1-3.034,3.982,7.77,7.77,0,0,1-3.617,1.631l-.619.1c-.3,1.111-.631,2.047-.794,2.544-1,2.724-6.4,11.835-13.328,15.81.01,1.314.084,2.8.213,4.284l.709,1.453a81.354,81.354,0,0,0,4.042,7.227c2.025,3.151-2.154,13.562-20.581,13.562s-24.8-9.953-20.342-13.641a15.7,15.7,0,0,0,4.367-5.636,72.735,72.735,0,0,0,.554-7.753,28.453,28.453,0,0,1-6.858-6.086,31.4,31.4,0,0,1-5.983-11.68l-1.179-.18a7.773,7.773,0,0,1-3.618-1.631,11.726,11.726,0,0,1-3.034-3.982,18.463,18.463,0,0,1-1.882-9.785,6.152,6.152,0,0,1,.645-2.478,4.358,4.358,0,0,1,3.133-2.083,4.613,4.613,0,0,1,3.692,1.08,16.982,16.982,0,0,1,.015-1.836A21.875,21.875,0,0,1,192.2,44.334Z"/><path class="d" d="M247.41,43.221a47.058,47.058,0,0,1,5.285,9.043,4.583,4.583,0,0,1,3.849-1.23,4.074,4.074,0,0,1,.8.2c2.3-5.894,2.632-14.433-.266-22.535-2.037-5.695-7.116-11.663-10.723-13.326l-5.208-3.745c-4.436-6.077-11.144-9.281-20.609-9.57-8.865-.271-19.079,1.519-26.843,9.333l2.5,2.523c-4.576,2.937-8.158,8.441-9.82,13.323-1.993,5.853-2.588,14.182-.222,24.022l.017.071a4.38,4.38,0,0,1,1.061-.3,4.562,4.562,0,0,1,3.95,1.335c8.93-8.535,16.708-13.6,24.554-19.767.046.522,1.718,4.7,2.109,4.861.532.217,6.374-3.452,10.448-5.963l6.412,1.687a23.931,23.931,0,0,1,7.518,4.4A35.669,35.669,0,0,1,247.41,43.221Z"/><path class="b" d="M254.266,53.529a2.534,2.534,0,0,1,3.609.475,5.272,5.272,0,0,1,.507,2.666,15.639,15.639,0,0,1-.222,3.22c-.7,3.829-2.651,8.412-6.9,9.174a2.018,2.018,0,0,0-1.4,2.461,2.045,2.045,0,0,0,2.461,1.4c6.446-1.155,9.52-8.436,10-14.279.249-2.992.014-6.42-2.576-8.36a6.648,6.648,0,0,0-8.311.418,2.015,2.015,0,0,0,0,2.829,2.044,2.044,0,0,0,2.828,0Z"/><path class="b" d="M249.74,67.558a17.46,17.46,0,0,1-1.015,4.71c-.091.278-.2.553-.279.833-.037.125-.2.479.023-.033-.143.33-.3.654-.459.975a39.6,39.6,0,0,1-3.411,5.483c-2.978,4.084-7.021,8.411-12.122,9.607-2.5.588-1.445,4.446,1.063,3.858,6.068-1.424,10.777-6.386,14.346-11.219,3.084-4.176,5.639-8.907,5.854-14.214.1-2.574-3.9-2.57-4,0Z"/><path class="b" d="M192.339,50.7a6.65,6.65,0,0,0-8.311-.418c-2.592,1.935-2.825,5.372-2.576,8.36.485,5.842,3.559,13.124,10,14.279a2.055,2.055,0,0,0,2.46-1.4,2.018,2.018,0,0,0-1.4-2.461c-4.253-.762-6.205-5.345-6.9-9.174a15.479,15.479,0,0,1-.224-3.041,6.059,6.059,0,0,1,.435-2.723,2.52,2.52,0,0,1,3.684-.6,2.055,2.055,0,0,0,2.828,0,2.016,2.016,0,0,0,0-2.829Z"/><path class="b" d="M190.246,67.277a35.83,35.83,0,0,0,7.631,17.156c4.293,5.083,9.976,8.76,16.67,9.483a2.013,2.013,0,0,0,2-2,2.046,2.046,0,0,0-2-2c-5.751-.621-10.556-4.3-14.124-8.65-3.518-4.29-5.377-9.651-6.32-15.052a2.016,2.016,0,0,0-2.46-1.4,2.044,2.044,0,0,0-1.4,2.46Z"/><path class="b" d="M245.349,17.1a17.361,17.361,0,0,1,5.668,4.99,25.777,25.777,0,0,1,4.442,8.036,31.8,31.8,0,0,1,.367,19.438c-.788,2.457,3.073,3.509,3.858,1.064a35.571,35.571,0,0,0-.518-22.013,30.772,30.772,0,0,0-5.2-9.2,20.218,20.218,0,0,0-6.6-5.768c-2.309-1.112-4.34,2.336-2.019,3.454Z"/><path class="b" d="M198.5,10.551c-7.113,2.715-12.091,9.815-14.284,16.89-2.435,7.85-1.85,16.455.015,24.352.592,2.505,4.45,1.445,3.858-1.063-1.661-7.029-2.207-14.6-.2-21.622,1.669-5.829,5.757-12.443,11.671-14.7a2.058,2.058,0,0,0,1.4-2.461,2.014,2.014,0,0,0-2.46-1.4Z"/><path class="b" d="M242.877,10.622A25.666,25.666,0,0,0,225.64.529,43.855,43.855,0,0,0,203.7,2.616,33.041,33.041,0,0,0,192.283,9.98c-1.829,1.816,1,4.645,2.829,2.829a30.694,30.694,0,0,1,18.049-8.442c6.189-.769,13.154-.592,18.86,2.178a20.076,20.076,0,0,1,7.4,6.1,2.059,2.059,0,0,0,2.736.717,2.013,2.013,0,0,0,.717-2.736Z"/><path class="b" d="M228.078,29.284c-3.166,1.944-6.286,4.005-9.565,5.758-.246.132-.5.257-.746.383s-.07.093.042,0a1.39,1.39,0,0,1-.224.081c-.184-.281,2,1.506,1.786.717-.025-.093-.121-.176-.156-.268-.1-.254-.254-.5-.37-.748a12.631,12.631,0,0,1-1.179-3.131c-.262-1.662-2.311-1.692-3.343-.883-7.976,6.252-16.28,12.015-23.7,18.955-1.884,1.763.949,4.587,2.829,2.829,7.417-6.939,15.722-12.7,23.7-18.956l-3.342-.882a16.864,16.864,0,0,0,1.68,4.3c.711,1.481,1.815,2.448,3.516,1.792a32.23,32.23,0,0,0,4.888-2.672c2.078-1.253,4.136-2.541,6.2-3.811,2.19-1.344.183-4.806-2.019-3.454Z"/><path class="b" d="M234.174,35.116c7.861,3.085,13.135,10.2,16.577,17.664a2.016,2.016,0,0,0,2.737.717,2.046,2.046,0,0,0,.717-2.736,47.086,47.086,0,0,0-7.471-11.519,31.539,31.539,0,0,0-5.388-4.857,28.518,28.518,0,0,0-6.108-3.127,2.017,2.017,0,0,0-2.461,1.4,2.049,2.049,0,0,0,1.4,2.461Z"/><path class="e" d="M152.441,183.021c-.884-.265-.389-2.6.089-4.354,1.589-5.819,4.893-21.16,5.744-24.633,1.321-5.391,4.793-20.935,5.962-25.418.712-2.729,2.232-6.916,4.387-9.468a17.174,17.174,0,0,1,2.28-1.565,33.539,33.539,0,0,1,4.734-2.671A258.274,258.274,0,0,1,199.5,103.14a25.769,25.769,0,0,1,5.694-8.152,50.052,50.052,0,0,0,14.448,10.07c.3.136.633.3.729.615a1.155,1.155,0,0,1-.167.816h2.8a1.155,1.155,0,0,1-.167-.816c.1-.314.43-.479.729-.615a50.07,50.07,0,0,0,14.449-10.07,25.055,25.055,0,0,1,5.25,7.227,250.1,250.1,0,0,1,26.083,12.7,43.876,43.876,0,0,1,3.981,2.119l1.059.577a16.508,16.508,0,0,1,2.246,1.54c2.155,2.552,3.675,6.739,4.387,9.468,1.169,4.483,3.017,12.317,4.92,20.413a63.569,63.569,0,0,1,2.624,7.545l3.926,2.222-9.239,32.816-6.663,2.077a31.57,31.57,0,0,1-5.631-6.46,62.756,62.756,0,0,1-4.63-10.8l-.248-.856v7.15c0,5.418,0,15.937,0,31.047H178.149c0-12.851,0-22.381,0-28.277-.118,0-.181,0-.181,0-3.64,0-23.58-1.547-25.524-2.475"/><path class="e" d="M276.59,193.689a31.57,31.57,0,0,1-5.631-6.46,64.012,64.012,0,0,1-4.509-10.4q-.2,2.943-.369,5.892c0,5.417,0,15.936,0,31.045-3.053,0-44.277,0-87.929,0,0-12.853,0-22.383,0-28.279-.118,0-.181,0-.181,0-3.64,0-23.58-1.547-25.524-2.475-.884-.265-.389-2.6.089-4.354,1.589-5.819,4.893-21.16,5.744-24.633,1.321-5.391,4.793-20.935,5.962-25.418.712-2.729,2.232-6.916,4.387-9.468a16.523,16.523,0,0,1,2.287-1.562,32.806,32.806,0,0,1,4.727-2.674A258.692,258.692,0,0,1,199.346,103.2a25.824,25.824,0,0,1,5.722-8.216,50.07,50.07,0,0,0,14.449,10.07c.3.136.632.3.729.615h2.592c.1-.314.43-.479.729-.615a50.07,50.07,0,0,0,14.449-10.07,25.074,25.074,0,0,1,5.25,7.227,250.1,250.1,0,0,1,26.083,12.7,43.724,43.724,0,0,1,3.98,2.119l1.06.577a16.508,16.508,0,0,1,2.246,1.54c2.155,2.552,3.675,6.739,4.387,9.468,1.169,4.483,3.017,12.317,4.92,20.413a63.569,63.569,0,0,1,2.624,7.545l4.875,2.2L281.494,192.94Z"/><path class="f" d="M276.59,193.689a31.57,31.57,0,0,1-5.631-6.46,64.107,64.107,0,0,1-4.509-10.4c1.365-20.147,3.641-39.548,4.086-46.325l1.2-14.325.006-.074a14.116,14.116,0,0,1,1.586.922l1.06.577a16.508,16.508,0,0,1,2.246,1.54c2.155,2.552,3.675,6.739,4.387,9.468,1.169,4.483,3.017,12.317,4.92,20.413a63.569,63.569,0,0,1,2.624,7.545l5,2.032-11.948,34.569Z"/><path class="f" d="M165.5,184.688c-6-.516-12.034-1.177-13.059-1.667-.884-.265-.389-2.6.089-4.354,1.589-5.819,4.893-21.16,5.744-24.633,1.321-5.391,4.793-20.935,5.962-25.418.712-2.729,2.232-6.916,4.387-9.468a16.508,16.508,0,0,1,2.246-1.54l1.471-.8c.1,1.03,1.351,13.7,1.351,13.7.488,7.436,3.181,30.072,4.455,52.215v2.61C180.319,185.742,172.929,185.326,165.5,184.688Z"/><path class="a" d="M178.149,212.3v1.472H157.037c-.165-3.632,1.486-25.583,1.831-29.725,6.762.747,16.641,1.451,19.1,1.451h.18C178.147,191.161,178.149,200.189,178.149,212.3Z"/><path class="a" d="M300.365,134.194c.93-1.881,2.143-3.738,2.647-4.928.7-1.639.228-4.4.72-6.1a22.226,22.226,0,0,1,4.935-9.043,97.3,97.3,0,0,1,8.3-8.678c1.325-1.255,2.657-2.1,4.313-.973,1.842,1.256,1.161,2.943.359,4.827-1.493,3.507-5.151,6.41-6.317,9.417l-.176.455c2.848-.607,11.046-2.022,12.591-2.373s2.608-1.227,4.01-1.885c2.709-1.273,5.734-3.2,8.67-3.783.8-.158,1.657.3,2.14.231,1.378-.888,4.225-.723,5.808-.293,5.654,2.613-.089,10.451-3.388,13-2.274,1.759-5.621,4.5-8.106,6.014a34.254,34.254,0,0,1-8.645,4.105,78.4,78.4,0,0,0-10.761,3.574c-1.891,1.314-4.061,2.621-5.217,6.4-2.186,11.342-4.252,33.115-6.389,40.331-2.106,7.112-2.876,12.586-9.444,16.7-3.576,2.242-6.834,3.233-10.725,1.172a12.038,12.038,0,0,1-6.217-13.208,55.546,55.546,0,0,1,4-12.4c3.51-7.233,13.449-34.9,16.721-42.2C300.245,134.44,300.305,134.317,300.365,134.194Z"/><path class="a" d="M258.123,140.517H239.939c0,1.317.029,6.319.029,7.907,3.035,0,15.871.029,18.155.029C258.123,146.257,258.1,140.779,258.123,140.517Z"/><path class="f" d="M237.426,116.208a154.448,154.448,0,0,0,5.625-14.416,24.737,24.737,0,0,0-5.035-6.8,50.07,50.07,0,0,1-14.449,10.07c-.3.136-.633.3-.729.615a1.155,1.155,0,0,0,.167.816C223.192,106.877,236.061,114.527,237.426,116.208Z"/><path class="f" d="M205.78,116.208a154.448,154.448,0,0,1-5.625-14.416,24.721,24.721,0,0,1,5.036-6.8,50.052,50.052,0,0,0,14.448,10.07c.3.136.633.3.729.615a1.155,1.155,0,0,1-.167.816C220.014,106.877,207.145,114.527,205.78,116.208Z"/><path class="b" d="M204.007,89.069c-.037,2.169-.181,4.339-.416,6.5a2,2,0,0,0,.586,1.414,2,2,0,0,0,2.828,0,2.3,2.3,0,0,0,.586-1.414c.235-2.157.379-4.327.416-6.5a2,2,0,0,0-4,0Z"/><path class="b" d="M235.048,89.746a58.736,58.736,0,0,0,.409,5.9,2.187,2.187,0,0,0,.585,1.414,2,2,0,0,0,2.829,0,1.928,1.928,0,0,0,.586-1.414,58.736,58.736,0,0,1-.409-5.9,2,2,0,1,0-4,0Z"/><path class="b" d="M199.741,100.884q-7.868,3.31-15.473,7.186c-2.377,1.215-4.735,2.465-7.085,3.731-2.434,1.311-5.145,2.425-7.349,4.1a2.065,2.065,0,0,0-.718,2.736,2.013,2.013,0,0,0,2.736.718,52,52,0,0,1,6.96-3.894c2.353-1.269,4.714-2.524,7.094-3.745,4.881-2.5,9.842-4.85,14.9-6.978a2.068,2.068,0,0,0,1.4-2.46,2.013,2.013,0,0,0-2.461-1.4Z"/><path class="b" d="M243.307,104.377c5.149,2.141,10.2,4.5,15.172,7.035,2.336,1.191,4.654,2.417,6.963,3.659,2.446,1.316,5.216,2.414,7.431,4.095a2.013,2.013,0,0,0,2.736-.718,2.049,2.049,0,0,0-.717-2.736c-2.217-1.682-4.983-2.778-7.431-4.095s-4.876-2.6-7.339-3.85q-7.736-3.928-15.752-7.247a2.012,2.012,0,0,0-2.46,1.4,2.051,2.051,0,0,0,1.4,2.46Z"/><path class="b" d="M273.38,119.335a6.311,6.311,0,0,1,2.783,2.589,24.273,24.273,0,0,1,2.16,4.7c1.119,3.22,1.808,6.612,2.605,9.922q.765,3.171,1.514,6.345a58.266,58.266,0,0,0,1.672,6.91,67.976,67.976,0,0,1,2.524,7.306c.615,2.5,4.474,1.44,3.857-1.063-.679-2.755-1.991-5.338-2.738-8.031-1.255-4.521-2.155-9.169-3.262-13.73a75.12,75.12,0,0,0-2.831-10.114,24.485,24.485,0,0,0-2.654-5.187,10.6,10.6,0,0,0-3.611-3.1c-2.24-1.277-4.257,2.177-2.019,3.454Z"/><path class="b" d="M169.859,115.881a12.37,12.37,0,0,0-2.651,1.853,15.371,15.371,0,0,0-2.649,4.194,38.546,38.546,0,0,0-2.542,7.305c-1.135,4.578-2.165,9.181-3.222,13.777q-2.943,12.784-5.875,25.572c-.606,2.636-1.216,5.272-1.883,7.894-.576,2.264-2.448,6.843.394,8.272,2.294,1.154,4.322-2.295,2.019-3.453.891.448.334.932.512.271.071-.263.081-.622.137-.891.13-.625.3-1.24.462-1.856.243-.913.473-1.828.7-2.745.55-2.243,1.073-4.493,1.589-6.744.988-4.3,1.935-8.618,2.922-12.923,1.867-8.149,3.743-16.3,5.694-24.429a50.747,50.747,0,0,1,1.849-6.4,21.767,21.767,0,0,1,2.08-4.129,6.1,6.1,0,0,1,2.484-2.118c2.236-1.275.223-4.733-2.019-3.454Z"/><path class="b" d="M264.545,177.439a61.1,61.1,0,0,0,4.221,9.939,28.036,28.036,0,0,0,6.41,7.725,2.048,2.048,0,0,0,2.828,0,2.018,2.018,0,0,0,0-2.828,24.666,24.666,0,0,1-5.784-6.916,55.162,55.162,0,0,1-3.818-8.983c-.771-2.447-4.634-1.4-3.857,1.063Z"/><path class="b" d="M276.207,178.372c.338-.457.675-.914,1.015-1.37.161-.216.322-.431.485-.646l.243-.321c.037-.049.371-.481.079-.106.672-.863,1.36-1.712,2.091-2.524a26.713,26.713,0,0,1,2.324-2.3c.2-.176.408-.349.617-.517,0,0,.4-.309.179-.144s.145-.106.187-.137c.489-.358,1-.691,1.514-1a2,2,0,0,0-2.019-3.454c-4.285,2.587-7.243,6.549-10.169,10.506a2.008,2.008,0,0,0,.718,2.737,2.058,2.058,0,0,0,2.736-.718Z"/><path class="b" d="M310.314,143.629c-1.888,9.868-2.861,19.9-4.364,29.827a91.418,91.418,0,0,1-2.336,11.577c-1.31,4.57-2.338,9.427-5.992,12.769-2.04,1.865-4.974,3.725-7.826,3.691a9.052,9.052,0,0,1-6.726-3.933c-3.286-4.658-1.331-10.467.351-15.353,1.193-3.467,2.86-6.757,4.249-10.15,1.607-3.929,3.132-7.893,4.653-11.856,1.844-4.808,3.665-9.625,5.515-14.431.778-2.022,1.56-4.043,2.362-6.056q.5-1.266,1.021-2.524.105-.255.211-.508c.168-.4-.116.267.064-.15q.206-.482.418-.96a2.063,2.063,0,0,0-.717-2.737,2.016,2.016,0,0,0-2.737.718c-3.383,7.586-6.13,15.479-9.094,23.233-1.67,4.369-3.342,8.739-5.093,13.075-1.358,3.363-2.99,6.558-4.312,10.165-2.068,5.643-4.024,12.014-1.352,17.78,2.681,5.786,9.525,9.265,15.6,6.778a19.967,19.967,0,0,0,11.406-12.273,81.055,81.055,0,0,0,3.376-12.784c2.069-11.557,2.974-23.3,5.181-34.834.482-2.516-3.373-3.593-3.857-1.064Z"/><path class="b" d="M301.914,135.572c.809-1.669,1.839-3.221,2.639-4.892a11.068,11.068,0,0,0,.9-4.627,15.8,15.8,0,0,1,3.18-8.648,63.52,63.52,0,0,1,7.616-8.5c.653-.639,1.311-1.275,1.976-1.9.388-.364,1.033-1.135,1.634-1.043,1.249.191.189,2.07-.185,2.834-1.674,3.423-4.815,5.84-6.285,9.391a2.012,2.012,0,0,0,1.4,2.46,2.051,2.051,0,0,0,2.46-1.4,18.955,18.955,0,0,1,3-4.238,22.011,22.011,0,0,0,3.26-5.053c.763-1.789,1.428-3.787.358-5.61a4.852,4.852,0,0,0-5.568-2.153c-2,.694-3.559,2.585-5.032,4.032-1.651,1.621-3.257,3.289-4.781,5.032a29.861,29.861,0,0,0-6.314,10.186c-.7,2.1-.5,4.1-.805,6.245a7.042,7.042,0,0,1-1.036,2.4c-.644,1.145-1.3,2.279-1.872,3.462-1.117,2.307,2.331,4.337,3.454,2.019Z"/><path class="b" d="M315.345,121.171c4.209-.936,8.5-1.464,12.711-2.4a18.37,18.37,0,0,0,4.321-1.948c1.665-.854,3.332-1.727,5.023-2.528a17.134,17.134,0,0,1,2.539-.989,6.237,6.237,0,0,1,2.342.049,8.619,8.619,0,0,0,2.071-.545,7.728,7.728,0,0,1,2.105-.055c2.392.2,2.638,1.667,1.9,3.643a15.111,15.111,0,0,1-4.1,5.669,65.265,65.265,0,0,1-7.51,5.721,34.442,34.442,0,0,1-9.058,4.471c-1.948.584-3.913,1.1-5.851,1.72a26.091,26.091,0,0,0-5.494,2.129,13.4,13.4,0,0,0-6.031,7.522c-.794,2.455,3.067,3.507,3.857,1.064a8.525,8.525,0,0,1,3.228-4.46,20.493,20.493,0,0,1,6.109-2.587c2.428-.749,4.93-1.318,7.306-2.225a41.145,41.145,0,0,0,6.561-3.308,62.719,62.719,0,0,0,6.021-4.29,40.186,40.186,0,0,0,4.621-3.84c2.4-2.527,4.988-6.176,4.7-9.848-.4-5.209-7.183-6.781-11.178-4.5l1.009-.273a19.557,19.557,0,0,0-2.14-.231,9.962,9.962,0,0,0-2.543.652,40.315,40.315,0,0,0-4.663,2.155c-2.239,1.162-4.472,2.643-6.965,3.128-3.98.775-8,1.37-11.96,2.251-2.511.559-1.448,4.416,1.064,3.857Z"/><path class="b" d="M322.919,123.613c-.272.044-.545.083-.817.125-.32.049.3-.037-.019,0l-.461.058c-.525.065-1.051.125-1.577.188-1.224.147-2.453.3-3.661.546a13.688,13.688,0,0,0-6.4,3.044,2.012,2.012,0,0,0,0,2.828,2.049,2.049,0,0,0,2.829,0c.1-.083.19-.166.287-.247s.209-.149.039-.03c.227-.159.455-.313.692-.455.208-.124.421-.241.638-.349.108-.054.221-.1.327-.157.272-.145-.266.1.022-.013a17.4,17.4,0,0,1,2.989-.835c.487-.092.977-.165,1.468-.237.322-.048-.3.035.024,0l.372-.047.836-.1c1.159-.137,2.32-.274,3.472-.462a2.007,2.007,0,0,0,1.4-2.46,2.058,2.058,0,0,0-2.46-1.4Z"/><path class="b" d="M339.714,112.162q-.541.552-1.133,1.052c-.195.166-.394.327-.6.485.225-.176.046-.037-.081.057l-.285.208a30.842,30.842,0,0,1-2.92,1.844q-1.455.817-2.978,1.5c-.235.107-.473.209-.709.313s.29-.117-.064.026l-.305.124q-.72.288-1.454.543a2,2,0,0,0,1.063,3.857c4.407-1.53,8.99-3.824,12.291-7.186a2,2,0,1,0-2.829-2.828Z"/><path class="b" d="M343.5,114.955a8.262,8.262,0,0,1-1.05,1.041c-.128.108-.261.211-.389.319-.35.3.363-.267-.017.015-.268.2-.536.395-.81.585-1.22.852-2.494,1.627-3.785,2.367q-1.862,1.07-3.782,2.035c-.5.254-1.011.5-1.523.739-.187.087-.377.169-.565.255-.38.174.449-.175.149-.061-.082.031-.162.065-.244.1a2.047,2.047,0,0,0-1.4,2.46,2.023,2.023,0,0,0,2.46,1.4,50.489,50.489,0,0,0,6.921-3.468c1.333-.765,2.649-1.566,3.906-2.451a14.6,14.6,0,0,0,2.955-2.5,2.058,2.058,0,0,0,0-2.828,2.015,2.015,0,0,0-2.829,0Z"/><path class="b" d="M151.431,184.748a18.1,18.1,0,0,0,5.089,1.024c2.58.329,5.172.578,7.763.809,4.534.405,9.126.9,13.682.915,2.574.009,2.578-3.991,0-4-4.367-.015-8.767-.483-13.113-.864-2.559-.225-5.117-.468-7.667-.777-1.007-.123-1.436-.169-2.556-.363-.311-.054-.623-.108-.93-.181-.236-.056-1.029-.364-.249-.016a2.061,2.061,0,0,0-2.736.717,2.015,2.015,0,0,0,.717,2.736Z"/><path class="b" d="M156.892,184.215c-.706,8.238-1.312,16.5-1.725,24.758-.079,1.594-.195,3.206-.13,4.8.1,2.566,4.1,2.579,4,0a103.254,103.254,0,0,1,.473-10.679q.459-7.16,1.019-14.31c.117-1.525.233-3.049.363-4.572.22-2.565-3.781-2.55-4,0Z"/><path class="b" d="M153.943,175.83c6.841.674,13.719,1.54,20.592,1.768,2.575.085,2.572-3.915,0-4-6.873-.228-13.751-1.094-20.592-1.768a2.014,2.014,0,0,0-2,2,2.044,2.044,0,0,0,2,2Z"/><path class="b" d="M219.551,106.326c0,4.336-.034,8.671-.056,13.007q-.065,12.534-.136,25.069-.081,14.621-.164,29.24-.072,12.757-.142,25.517c-.025,4.634-.057,9.268-.069,13.9,0,.177,0,.354,0,.531,0,2.574,4,2.578,4,0,0-3.959.035-7.918.056-11.876q.066-12.245.136-24.487.081-14.6.164-29.205.072-13.015.142-26.031c.026-4.987.058-9.975.069-14.963q0-.351,0-.7c0-2.574-4-2.578-4,0Z"/><path class="b" d="M268.078,213.755q0-12.089,0-24.175c0-2.44-.1-4.906.029-7.342.264-4.975.649-9.947,1.051-14.912,1.035-12.814,2.435-25.594,3.509-38.4l1.068-12.739c.215-2.565-3.787-2.551-4,0-.644,7.684-1.23,15.376-1.977,23.051-.8,8.194-1.615,16.386-2.31,24.589-.67,7.894-1.369,15.79-1.37,23.714q0,13.109,0,26.218c0,2.573,4,2.578,4,0Z"/><path class="b" d="M180.149,213.755q0-12.017,0-24.032c0-2.409.082-4.836-.015-7.243-.2-4.9-.635-9.8-1.027-14.683-1.031-12.849-2.271-25.695-3.536-38.523l-1.236-12.533a2.056,2.056,0,0,0-2-2,2.014,2.014,0,0,0-2,2c.76,7.707,1.443,15.42,2.195,23.128.8,8.136,1.6,16.271,2.288,24.417.656,7.785,1.33,15.567,1.331,23.382q0,13.042,0,26.087c0,2.573,4,2.578,4,0Z"/><path class="b" d="M258.123,138.517H239.939a2.029,2.029,0,0,0-2,2c0,2.636.028,5.271.029,7.907a2.03,2.03,0,0,0,2,2c6.052,0,12.1.029,18.155.029a2.028,2.028,0,0,0,2-2c0-2.634-.149-5.306,0-7.936a2,2,0,0,0-4,0c-.149,2.63,0,5.3,0,7.936l2-2c-6.052,0-12.1-.028-18.155-.029l2,2c0-2.636-.028-5.271-.029-7.907l-2,2h18.184C260.7,142.517,260.7,138.517,258.123,138.517Z"/><path class="b" d="M239.153,117.217c1.608-3.467,3.015-7.049,4.366-10.622.329-.868.651-1.74.951-2.619a5.825,5.825,0,0,0,.545-2.45,6.93,6.93,0,0,0-1.11-2.313q-.567-.95-1.208-1.852a25.365,25.365,0,0,0-3.267-3.787,2.035,2.035,0,0,0-2.829,0,47.78,47.78,0,0,1-9.448,7.346q-1.248.743-2.538,1.411c-.812.421-1.733.741-2.5,1.241a2.874,2.874,0,0,0-.452,4.406,23.534,23.534,0,0,0,3.877,2.575c2.035,1.284,4.073,2.564,6.085,3.882.994.651,1.985,1.308,2.951,2,.214.153.424.31.636.465.248.181-.258-.234.17.135a5.538,5.538,0,0,1,.628.587,2.016,2.016,0,0,0,2.828,0,2.041,2.041,0,0,0,0-2.828,15.448,15.448,0,0,0-3.129-2.432c-1.555-1.069-3.144-2.088-4.735-3.1-1.532-.977-3.071-1.94-4.6-2.914-.53-.337-1.061-.673-1.584-1.02-.174-.116-.343-.252-.524-.357-.158-.093-.284-.326.23.18-.241-.237.353.423.345.524l-.273,1.01q-.441.364.011.1.239-.108.474-.219.477-.224.95-.459,1.044-.519,2.063-1.092,2.017-1.132,3.925-2.446A52.249,52.249,0,0,0,239.43,96.4H236.6a23.774,23.774,0,0,1,4.723,6.4l-.2-1.541a61.788,61.788,0,0,1-2.63,7.279c-.962,2.412-1.749,4.408-2.793,6.659a2.059,2.059,0,0,0,.718,2.737A2.016,2.016,0,0,0,239.153,117.217Z"/><path class="b" d="M207.507,115.2c-1.042-2.246-1.832-4.248-2.792-6.659a61.614,61.614,0,0,1-2.631-7.279l-.2,1.541a23.774,23.774,0,0,1,4.723-6.4h-2.829a52.257,52.257,0,0,0,7.443,6.166q1.905,1.311,3.924,2.446.941.528,1.905,1.014.472.237.95.463c.21.1.421.2.632.293q.452.262.011-.1l-.273-1.01c-.007-.1.583-.766.345-.524.041-.042.519-.349.23-.18-.165.1-.319.22-.479.327-.537.358-1.084.7-1.629,1.05-1.534.974-3.073,1.937-4.605,2.914-1.591,1.014-3.18,2.033-4.735,3.1a15.483,15.483,0,0,0-3.129,2.432,2.053,2.053,0,0,0,0,2.828,2.016,2.016,0,0,0,2.828,0,4.386,4.386,0,0,1,.5-.477c.122-.1.249-.2.375-.3-.392.313.1-.069.233-.168.807-.59,1.637-1.15,2.47-1.7,2.017-1.34,4.065-2.631,6.113-3.923,1.373-.867,2.791-1.692,4.107-2.644a2.946,2.946,0,0,0,1.107-3.739,3.672,3.672,0,0,0-1.92-1.552q-1.37-.64-2.7-1.374a48.085,48.085,0,0,1-10.874-8.164,2.038,2.038,0,0,0-2.829,0,25.351,25.351,0,0,0-3.266,3.787,14.025,14.025,0,0,0-2.283,3.9,5.062,5.062,0,0,0,.51,2.716c.3.879.622,1.751.95,2.619,1.352,3.573,2.759,7.155,4.366,10.622a2.017,2.017,0,0,0,2.737.718A2.047,2.047,0,0,0,207.507,115.2Z"/><path class="b" d="M216.2,77.417a12.853,12.853,0,0,0,6.188,1.442,10.17,10.17,0,0,0,6.334-1.906,2.005,2.005,0,0,0,0-2.829,2.064,2.064,0,0,0-2.829,0c.685-.533-.073.019-.293.134-.17.09-.638.23-.027.033-.171.055-.337.129-.508.185-.217.069-.436.128-.658.18a4.538,4.538,0,0,0-.765.144c.028-.069.422-.047-.015,0-.14.014-.279.025-.419.034-.337.022-.674.031-1.012.029-.3,0-.6-.012-.905-.033-.138-.009-.276-.02-.414-.034l-.237-.026q-.232-.029.156.02a3.862,3.862,0,0,1-1.329-.3c-.186-.056-.367-.122-.551-.185-.464-.159.4.193-.022,0q-.34-.162-.675-.337a2,2,0,1,0-2.019,3.453Z"/><path class="b" d="M221.166,63.108a27.907,27.907,0,0,1,.659,3.011l-.072-.532a1.809,1.809,0,0,1,.011.416l.072-.532a1,1,0,0,1-.046.187l.2-.478a.883.883,0,0,1-.066.121l.312-.405a.642.642,0,0,1-.1.1l.405-.313a1.944,1.944,0,0,1-.239.126l.478-.2a1.749,1.749,0,0,1-.4.117l.532-.071a1.593,1.593,0,0,1-.378,0l.532.071c-.142-.02-.282-.054-.424-.073a1.506,1.506,0,0,0-.8-.036,1.486,1.486,0,0,0-.743.237,2,2,0,0,0-.718,2.737,1.918,1.918,0,0,0,1.2.919c.364.049.717.14,1.088.157a3.559,3.559,0,0,0,1.656-.4,2.489,2.489,0,0,0,1.351-1.629,3.9,3.9,0,0,0-.015-1.7c-.164-.97-.388-1.931-.638-2.883a2,2,0,0,0-2.46-1.4,2.025,2.025,0,0,0-1.195.919,2.107,2.107,0,0,0-.2,1.542Z"/><path class="b" d="M205.684,54.458c-.5,1.635-.175,5.394,2.92,5.714,4.092-.025,4.31-4.57,2.933-6.707C210.409,51.716,207.093,50.988,205.684,54.458Z"/><path class="b" d="M238.452,54.459c.5,1.634.175,5.393-2.921,5.713-4.092-.025-4.31-4.57-2.932-6.707C233.726,51.716,237.043,50.988,238.452,54.459Z"/></svg>