<?xml version="1.0" encoding="utf-8"?>
<!-- Uploaded to: SVG Repo, www.svgrepo.com, Generator: SVG Repo Mixer Tools -->
<svg width="800px" height="800px" viewBox="-162.58 0 441.466 441.466" xmlns="http://www.w3.org/2000/svg"><defs><style>.a{fill:#ffffff;}.b{fill:#b5886a;}.c{fill:#211715;}.d{fill:#f4b867;}.e{fill:#5394cf;}.f{fill:#645d5c;}</style></defs><path class="a" d="M87.909,47.758a4.283,4.283,0,0,1,3.43-1,4.051,4.051,0,0,1,2.911,1.935,5.723,5.723,0,0,1,.6,2.3A17.143,17.143,0,0,1,93.1,60.082a10.9,10.9,0,0,1-2.818,3.7A7.24,7.24,0,0,1,86.921,65.3s-.209.032-.576.092c-.276,1.03-.585,1.9-.737,2.36-1.017,2.761-6.894,12.583-14.17,15.57a38.9,38.9,0,0,0,.607,6.23c.344,1.967.237,3.726,2.971,4.713.182.066,3.259,1.266,3.536,1.38,0,0-1.121,19.454-22.158,19.454s-19.852-18.37-19.852-18.37c.526-.18,6.4-2.4,6.585-2.464,2.735-.987,2.627-2.746,2.972-4.713a38.49,38.49,0,0,0,.605-6.331,24.847,24.847,0,0,1-8.685-6.9,29.146,29.146,0,0,1-5.558-10.849l-1.1-.169A7.231,7.231,0,0,1,28,63.782a10.907,10.907,0,0,1-2.819-3.7,17.143,17.143,0,0,1-1.748-9.091,5.706,5.706,0,0,1,.6-2.3,4.047,4.047,0,0,1,2.91-1.935,4.282,4.282,0,0,1,3.43,1s-.945-26.291,28.388-26.291S87.909,47.758,87.909,47.758Z"/><path class="b" d="M39.4,88.6a14.69,14.69,0,0,0,7.2-5.423,24.924,24.924,0,0,1-8.583-6.857,29.146,29.146,0,0,1-5.558-10.849l-1.1-.169A7.231,7.231,0,0,1,28,63.782q-.255-.207-.491-.43a14.425,14.425,0,0,0-1.619,5.14,23.481,23.481,0,0,0-.16,3.25c.04,2.58.69,5.22.82,7.8s-.95,5.53-3.4,6.36C22.039,87.7,31.367,91.449,39.4,88.6Z"/><path class="c" d="M25.787,62.342a18,18,0,0,0-2,7.3,44.942,44.942,0,0,0,.628,8.268c.2,1.809.356,3.893-.9,5.393-.608.729-1.635.8-2.123,1.651a2.633,2.633,0,0,0-.238,1.969c.582,2.191,3.475,3.218,5.382,3.79a22.705,22.705,0,0,0,9.3.741,17.765,17.765,0,0,0,11.38-5.833c1.674-1.941-1.143-4.782-2.828-2.828-3.278,3.8-8.051,5.141-12.9,4.785A19.175,19.175,0,0,1,26.3,86.4c.234.1-.3-.14-.347-.165-.154-.076-.306-.155-.454-.24-.253-.144-.81-.56-.417-.246-.057-.045-.243-.171-.257-.243-.061-.305.281.421.084.1a1.463,1.463,0,0,1-.03,1.3l-1.2.919c4.227-1.605,5.188-6.062,4.7-10.13-.538-4.506-1.381-9.126.852-13.339,1.205-2.273-2.246-4.3-3.454-2.019Z"/><path class="b" d="M91.911,26.373C88.532,12.276,74.09,1.233,58.96,2.058,43.519,1.216,28.8,12.734,25.813,27.245a40.948,40.948,0,0,0,.024,13.733l1.239,5.787a4.424,4.424,0,0,1,2.914.688c5.567-4.411,16.812-11.342,22.2-15.822-.441,2.645-2.007,7.144-.034,6.682C60.4,36.467,68.3,32.745,73.06,26.926a54.95,54.95,0,0,0,3.9,10.1c1.778,2.943,6.951,9.761,11.469,10.355a4.416,4.416,0,0,1,2.912-.6,3.461,3.461,0,0,1,.527.116c2.425-5.553,1.2-14.96.24-19.648Q92.016,26.807,91.911,26.373Z"/><path class="c" d="M27.765,40.447A34.1,34.1,0,0,1,27.5,29.291a25.9,25.9,0,0,1,3.66-10.181,31.811,31.811,0,0,1,17.737-13.8,38.844,38.844,0,0,1,11.691-1.3A29.476,29.476,0,0,1,71.791,6.3,31.734,31.734,0,0,1,88.163,21.707,34.454,34.454,0,0,1,91,33.043c.454,4.357.677,9.123-1.03,13.252a2.013,2.013,0,0,0,1.4,2.46,2.051,2.051,0,0,0,2.461-1.4c1.648-3.989,1.639-8.642,1.3-12.878A44.412,44.412,0,0,0,92.9,22.719,35.333,35.333,0,0,0,63.63.174,59.034,59.034,0,0,0,57.154.015a33.193,33.193,0,0,0-6.568.728A35.976,35.976,0,0,0,29.349,14.628a30.56,30.56,0,0,0-5.576,12.677,37.521,37.521,0,0,0,.135,14.2c.562,2.511,4.42,1.448,3.857-1.063Z"/><path class="c" d="M71.26,27.892c1.348,4.441,2.873,8.88,5.664,12.632,2.615,3.514,6.109,7.717,10.6,8.72,2.507.561,3.578-3.3,1.063-3.857-3.454-.771-6.442-4.437-8.495-7.27-2.451-3.382-3.772-7.32-4.975-11.288-.746-2.457-4.608-1.41-3.858,1.063Z"/><path class="c" d="M71.736,25.429A30.673,30.673,0,0,1,58.99,34.166q-1.935.75-3.929,1.331-1,.294-2.014.549c-.331.083-.7.134-1.015.245l-.408.093a1.386,1.386,0,0,1,1.5.747c.2-.061-.149.671.054.025a3.562,3.562,0,0,0,.035-.614c.046-.407.141-.813.224-1.213.222-1.057.489-2.1.677-3.166a2.019,2.019,0,0,0-3.343-1.946c-6.981,5.765-15,10.168-22.115,15.756a2.011,2.011,0,0,0,0,2.829,2.051,2.051,0,0,0,2.828,0c7.122-5.59,15.127-9.985,22.115-15.757L50.262,31.1c-.4,2.244-1.639,5.077-.9,7.345a2.735,2.735,0,0,0,3.323,1.8,39.684,39.684,0,0,0,5.026-1.382c6.332-2.084,12.545-5.4,16.85-10.6,1.629-1.97-1.186-4.815-2.828-2.829Z"/><path class="c" d="M89.323,49.172a2.213,2.213,0,0,1,3.13.412,4.724,4.724,0,0,1,.452,2.406,14.32,14.32,0,0,1-.2,2.954c-.64,3.51-2.413,7.725-6.315,8.424a2.018,2.018,0,0,0-1.4,2.46,2.044,2.044,0,0,0,2.46,1.4c6.055-1.085,8.945-7.915,9.4-13.4.236-2.839-.01-6.054-2.463-7.89a6.322,6.322,0,0,0-7.894.411,2.016,2.016,0,0,0,0,2.829,2.043,2.043,0,0,0,2.828,0Z"/><path class="c" d="M84.877,62.105a16.107,16.107,0,0,1-.939,4.339c-.063.191-.491,1.317-.223.709-.135.306-.276.607-.427.906a36.743,36.743,0,0,1-3.168,5.093c-2.746,3.766-6.476,7.758-11.178,8.861-2.5.588-1.444,4.446,1.064,3.857C75.68,84.539,80.08,79.9,83.418,75.383c2.881-3.9,5.258-8.321,5.459-13.278.1-2.574-3.9-2.569-4,0Z"/><path class="c" d="M31.791,46.343a6.325,6.325,0,0,0-7.894-.411c-2.455,1.829-2.7,5.056-2.464,7.89.456,5.487,3.346,12.318,9.4,13.4a2.055,2.055,0,0,0,2.46-1.4,2.017,2.017,0,0,0-1.4-2.46c-3.9-.7-5.674-4.915-6.315-8.424a14.216,14.216,0,0,1-.2-2.787,5.5,5.5,0,0,1,.385-2.458,2.2,2.2,0,0,1,3.2-.527,2.057,2.057,0,0,0,2.829,0,2.017,2.017,0,0,0,0-2.829Z"/><path class="c" d="M29.609,61.882a33.418,33.418,0,0,0,7.126,16c4.014,4.753,9.33,8.177,15.587,8.852a2.012,2.012,0,0,0,2-2,2.046,2.046,0,0,0-2-2c-5.3-.573-9.731-3.986-13.021-8-3.253-3.964-4.964-8.93-5.835-13.921a2.016,2.016,0,0,0-2.46-1.4,2.044,2.044,0,0,0-1.4,2.46Z"/><path class="d" d="M22.8,125.155c1.789,14.358.612,34.27,1.85,44.143,1.085,7.414,14.638,28.985,20.935,38.318-3.852,4-12.3,11.111-17.63,16C17.064,210.505,6.23,190.925,3.064,174.061c-2.359-12.568-.371-28,2.46-46.547.81-5.3,1.689-10.8,4.639-15.281,2.754-4.186,7.059-7.089,11.442-9.518a92.844,92.844,0,0,1,13.656-6.186c12.242,8.116,33.178,9.808,47.766.6a92.458,92.458,0,0,1,12.048,5.589c4.383,2.429,8.688,5.332,11.442,9.518,2.949,4.484,3.828,9.976,4.638,15.281,2.831,18.542,4.268,36.868,1.909,49.436C109.9,193.814,94.916,213.542,88.4,223.32c-5.868-4.328-14.371-11-19.26-14.222,6.371-9.037,21.809-32.386,22.894-39.8,1.238-9.873-.4-29.785,1.389-44.143Z"/><path class="a" d="M83.114,394.858A29,29,0,0,0,86.4,408.083l-21.054-.409.081-11.828"/><path class="a" d="M36.806,394.858a29.01,29.01,0,0,1-3.282,13.225l21.054-.409L54.5,395.846"/><path class="c" d="M34.573,394.858a27.2,27.2,0,0,1-3.01,12.215,2.047,2.047,0,0,0,.718,2.737,2.021,2.021,0,0,0,2.736-.718,31.6,31.6,0,0,0,3.556-14.234,2,2,0,0,0-4,0Z"/><path class="c" d="M52.264,395.846l.081,11.828a2,2,0,0,0,4,0l-.081-11.828a2,2,0,0,0-4,0Z"/><path class="c" d="M81.114,394.858a31.588,31.588,0,0,0,3.555,14.234,2,2,0,1,0,3.454-2.019,27.2,27.2,0,0,1-3.009-12.215,2,2,0,0,0-4,0Z"/><path class="c" d="M63.423,395.846l-.081,11.828a2,2,0,0,0,4,0l.081-11.828a2,2,0,0,0-4,0Z"/><path class="a" d="M26.776,191.128c-1.39,4.88-3.111,12.983-4.233,19.344-5.485,31.082-.183,62.809,2.2,93.229,2.468,31.549,3.977,63.1,6.445,94.647a143.091,143.091,0,0,0,27.822.2,143.252,143.252,0,0,0,27.838-.2c2.468-31.549,3.977-63.1,6.445-94.647,2.38-30.42,7.682-62.147,2.2-93.229-1.122-6.361-2.843-14.464-4.233-19.344"/><path class="c" d="M82.015,95.4C71.15,102.18,57.037,102.95,45.023,99a37.1,37.1,0,0,1-8.753-4.185c-2.16-1.414-4.166,2.048-2.019,3.454,11.125,7.285,26.183,8.857,38.866,5.348a41.607,41.607,0,0,0,10.916-4.758c2.18-1.359.174-4.821-2.018-3.454Z"/><path class="c" d="M44.7,83.434a42.005,42.005,0,0,1-.584,5.884A16.963,16.963,0,0,1,43.8,91.1c-.035.13-.094.261-.122.392-.045.2.062-.146.072-.163-.035.059-.057.125-.092.183s-.273.427-.11.206-.174.164-.24.232c-.235.239.2-.091-.122.081-.164.088-.322.185-.49.267.216-.105-.109.041-.205.077l-.907.341q-1.535.577-3.072,1.154c-.833.313-1.664.64-2.506.931a2.05,2.05,0,0,0-1.4,2.461,2.019,2.019,0,0,0,2.46,1.4c1.892-.654,3.755-1.4,5.628-2.1a11.12,11.12,0,0,0,3.193-1.574,6.037,6.037,0,0,0,2-4,58,58,0,0,0,.815-7.538,2.019,2.019,0,0,0-2-2,2.04,2.04,0,0,0-2,2Z"/><path class="c" d="M69.439,83.434a50.016,50.016,0,0,0,.724,6.926,7.616,7.616,0,0,0,1.53,4.093,8.392,8.392,0,0,0,3.552,2.031c.926.36,1.856.712,2.775,1.086a2.006,2.006,0,0,0,2.461-1.4,2.063,2.063,0,0,0-1.4-2.461c-.813-.331-1.635-.642-2.453-.961-.345-.134-.69-.269-1.036-.4-.079-.03-.159-.057-.237-.089.337.139-.2-.117-.267-.153-.113-.066-.536-.421-.175-.09-.1-.1-.2-.2-.306-.293-.3-.285.182.337-.009-.014-.06-.112-.124-.223-.187-.334-.184-.329.109.423-.007-.051-.035-.145-.084-.287-.118-.433-.133-.572-.2-1.158-.292-1.737a39.435,39.435,0,0,1-.558-5.723,2,2,0,0,0-4,0Z"/><path class="c" d="M26.776,192.935h64.08c2.573,0,2.578-4,0-4H26.776c-2.574,0-2.578,4,0,4Z"/><path class="c" d="M57.843,248.407c-.419,4.59-.373,9.241-.411,13.844-.054,6.7-.029,13.393.01,20.089.056,9.692.169,19.382.155,29.074q-.023,15.8-.062,31.6-.034,17.805-.037,35.61,0,6.448.031,12.895c.011,2.051-.068,4.137.084,6.184a2.161,2.161,0,0,0,.611,1.619,2.06,2.06,0,0,0,2.828,0,2.013,2.013,0,0,0,0-2.828,2.2,2.2,0,0,1,.565,1.277,1.683,1.683,0,0,0-.014-.283c-.005-.322-.019-.644-.025-.966-.023-1.149-.031-2.3-.039-3.447-.029-3.951-.034-7.9-.038-11.853q-.02-17.358.027-34.715.03-16.294.065-32.59c.015-8.989-.058-17.976-.121-26.964-.085-12.077-.391-24.221.219-36.288.038-.753.084-1.505.152-2.256a2.014,2.014,0,0,0-2-2,2.043,2.043,0,0,0-2,2Z"/><path class="c" d="M24.848,190.6a178.961,178.961,0,0,0-6.269,36.267c-.933,13.689-.253,27.429.883,41.084,1.13,13.587,2.638,27.138,3.66,40.735,1.054,14.023,1.94,28.058,2.825,42.093,1,15.863,2,31.727,3.238,47.573a2.066,2.066,0,0,0,2,2,154.518,154.518,0,0,0,26.484.308c2.552-.191,2.572-4.193,0-4a154.518,154.518,0,0,1-26.484-.308l2,2c-2.189-28.041-3.633-56.134-5.659-84.186-.982-13.584-2.349-27.123-3.582-40.684s-2.163-27.189-1.666-40.813a174.818,174.818,0,0,1,6.427-41c.7-2.482-3.157-3.541-3.857-1.064Z"/><path class="c" d="M89.325,191.66a173.533,173.533,0,0,1,6.189,36.169c.844,13.533.147,27.1-.986,40.6s-2.624,26.983-3.639,40.5c-1.052,14.023-1.937,28.059-2.822,42.093-.994,15.78-1.991,31.56-3.222,47.324l2-2a154.528,154.528,0,0,1-26.485.308c-2.567-.193-2.555,3.808,0,4a154.528,154.528,0,0,0,26.485-.308,2.067,2.067,0,0,0,2-2c2.2-28.207,3.649-56.466,5.7-84.685.99-13.657,2.383-27.269,3.611-40.906,1.221-13.564,2.121-27.194,1.573-40.818A179.332,179.332,0,0,0,93.182,190.6c-.7-2.473-4.559-1.422-3.857,1.064Z"/><path class="e" d="M97.888,211.866c-.411,19.165,8.624,97.184,8.606,116.143-12.319.5-80.319.5-94.247-.614,0-18.663,8.306-94.857,7.9-114.022L22.8,125.155c-.585-8.565-.541-15.669-.372-22.865a2.806,2.806,0,0,1,.291-1.425,2.838,2.838,0,0,1,1.371-.963c4.416-1.924,6.761-3.418,11.305-5.111.2,5.494,3.142,18.728,3.6,19.392.712,1.026,27,.969,38.226,0,.461-.664,3.3-14.614,3.5-20.108,4.543,1.693,6.989,3.9,11.4,5.827a2.118,2.118,0,0,1,1.662,2.388c.169,7.2.213,14.3-.371,22.865Z"/><path class="a" d="M83.392,129.578c-1.1,0-19.214.193-20.89.193,0,1.86.211,9.227.211,10.952,6.6.035,18,.142,20.68.127C83.483,138.325,83.406,130.641,83.392,129.578Z"/><path class="c" d="M83.392,127.578c-5.908.007-11.816.115-17.723.169-1.056.01-2.111.023-3.167.024a2.03,2.03,0,0,0-2,2c.008,3.652.2,7.3.211,10.952a2.03,2.03,0,0,0,2,2c6.893.038,13.787.16,20.68.127a2.037,2.037,0,0,0,2-2c.125-3.752.046-7.519,0-11.272-.032-2.572-4.033-2.579-4,0,.047,3.753.126,7.52,0,11.272l2-2c-6.893.033-13.787-.089-20.68-.127l2,2c-.007-3.651-.2-7.3-.211-10.952l-2,2c6.007,0,12.014-.112,18.02-.169.956-.009,1.913-.023,2.87-.024C85.966,131.575,85.97,127.575,83.392,127.578Z"/><path class="c" d="M95.888,211.866c.092,5.712.552,11.424.978,17.118.629,8.4,1.347,16.8,2.072,25.192,1.552,17.989,3.219,35.972,4.53,53.981.481,6.6,1.026,13.232,1.026,19.852l2-2c-11.032.439-22.1.378-33.136.413-14.927.048-29.86.026-44.784-.313-5.438-.124-10.909-.2-16.327-.714l2,2c.582-13.939,1.644-27.867,2.608-41.783q1.821-26.247,3.79-52.482.736-9.879,1.5-19.757c.2-2.567-3.8-2.554-4,0q-1.62,20.841-3.112,41.692c-1.273,17.5-2.525,35-3.649,52.507-.424,6.6-.858,13.211-1.134,19.823a2.044,2.044,0,0,0,2,2c4.665.441,9.37.537,14.051.658,7.044.183,14.09.267,21.135.32q22.1.168,44.208-.077c4.95-.056,9.906-.09,14.853-.287a2.036,2.036,0,0,0,2-2c0-5.725-.436-11.458-.834-17.165-.587-8.411-1.285-16.814-2-25.215-1.526-17.987-3.2-35.962-4.591-53.961-.509-6.585-1.077-13.195-1.183-19.8-.041-2.571-4.041-2.579-4,0Z"/><path class="d" d="M111.155,127.514c2.831,18.542,4.268,36.868,1.909,49.436C109.9,193.814,94.916,213.542,88.4,223.32c-5.868-4.328-14.371-11-19.26-14.222,6.371-9.037,21.809-32.386,22.894-39.8,1.238-9.873-.4-29.785,1.389-44.143"/><path class="d" d="M5.524,127.514c-2.831,18.542-4.819,33.979-2.46,46.547,3.166,16.864,14.3,35.407,25.185,48.518,5.334-4.889,13.482-10.963,17.334-14.963-6.3-9.333-19.85-30.9-20.935-38.318-1.238-9.873-.061-29.785-1.85-44.143"/><path class="a" d="M84.19,223.894q-1.05,1.657-2.257,3.218a81.564,81.564,0,0,1-5.683,7.066c-3.821,4.063-8.189,8.075-9.837,9.448A18.918,18.918,0,0,1,62.7,246c-1.851.865-4.531-1.011-4.194-1.942-.784.873-4.134,1.4-5.778.555-2.083-1.069-1.016-3.7-1-3.777-1.345.787-2.9-.063-3.889-.778s-1.759-2.19-.667-4.889c.432-1.067,3.767-3.707,4.337-4.331.777-.849,2.369-2.437,4.144-4.151l-1.817-3.1a6.05,6.05,0,0,1,1.756-5.185c1.37-1.5,4.219-4.041,6.167-4.591a69.569,69.569,0,0,0,8.811-2.63l1.306-.757,14,10.889Z"/><path class="a" d="M44.472,210.579a18.994,18.994,0,0,0,6.227,2.329c2.724.7,4.983,1.1,6.217,3.449,0,0,2.23,3.386-.3,10.222-5.037,13.63-13.356,8.46-13.356,8.46-2.465-1.541-4.2-3.868-5.883-6.139a55.6,55.6,0,0,1-4.972-7.545"/><path class="c" d="M70.041,209.259a46.441,46.441,0,0,1-6.549,2.026,15.053,15.053,0,0,0-5.553,2.373c-3.4,2.524-6.83,5.849-6.029,10.468a2.017,2.017,0,0,0,2.46,1.4,2.046,2.046,0,0,0,1.4-2.461c-.239-1.379.67-2.651,1.558-3.575a20.517,20.517,0,0,1,3.416-2.927,10.957,10.957,0,0,1,.961-.572c.042-.021.509-.234.309-.155s.241-.074.283-.087c.981-.3,1.99-.534,2.985-.789a41.435,41.435,0,0,0,5.826-1.841,2.069,2.069,0,0,0,1.4-2.46,2.013,2.013,0,0,0-2.461-1.4Z"/><path class="c" d="M60.249,219.7c-4.03,3.516-7.611,7.508-11.607,11.042-2.323,2.054-4.394,4.215-3.926,7.61.5,3.6,4.826,5.723,8.024,4.211L49.8,240.307c-.7,2.24-.324,4.825,1.92,6.036,2.3,1.241,6.264.967,8.2-.868l-3.343-1.946c-.653,3.375,3.929,5.416,6.655,4.4,2.914-1.084,5.316-3.459,7.557-5.538A91.812,91.812,0,0,0,85.917,224.9c1.394-2.173-2.066-4.181-3.454-2.019a80.866,80.866,0,0,1-11.827,14.139c-1.781,1.733-3.58,3.478-5.493,5.067a10.4,10.4,0,0,1-3.183,2.057,1.322,1.322,0,0,1-.9-.034c-.176-.063-.366-.257-.548-.3l-.182-.173a1.064,1.064,0,0,1,.106.952,2.016,2.016,0,0,0-3.342-1.945c.217-.207-.215.087-.319.125a4.869,4.869,0,0,1-1,.228,4.42,4.42,0,0,1-2.039-.111c-.63-.241-.264-.935-.081-1.519.566-1.8-1.46-2.957-2.937-2.258-.622.293-1.87-.69-2-1.033a2.2,2.2,0,0,1-.017-1.125,2.967,2.967,0,0,1,.414-1.132c1.165-1.408,2.723-2.441,3.982-3.755,3.176-3.317,6.515-6.517,9.975-9.537,1.943-1.695-.895-4.515-2.828-2.828Z"/><path class="c" d="M62.994,225.312c-2.611,2.706-5.051,5.57-7.719,8.224a27.1,27.1,0,0,1-2.09,1.933,2.006,2.006,0,0,0,0,2.829,2.058,2.058,0,0,0,2.828,0,43.425,43.425,0,0,0,4.066-3.96c1.472-1.546,2.914-3.12,4.355-4.695.46-.5.915-1.012,1.389-1.5a2,2,0,1,0-2.829-2.829Z"/><path class="c" d="M67.621,229.16c-.122.166.411-.509.151-.2-.076.091-.15.182-.226.272-.2.241-.411.477-.62.712-.588.665-1.188,1.319-1.793,1.969-1.442,1.549-2.911,3.077-4.436,4.546-.69.665-1.391,1.324-2.139,1.924a2,2,0,0,0,0,2.828,2.059,2.059,0,0,0,2.829,0,47.529,47.529,0,0,0,4.145-3.921c1.4-1.434,2.779-2.9,4.113-4.393.5-.558.989-1.119,1.429-1.721a2.008,2.008,0,0,0-.717-2.737,2.056,2.056,0,0,0-2.736.718Z"/><path class="c" d="M43.462,212.306a26.052,26.052,0,0,0,6.982,2.6c.558.141,1.117.277,1.67.433.273.077.545.158.814.249.129.044.258.092.387.138.1.037.42.214.042.013.231.123.468.227.693.364.088.053.172.112.259.167.408.26-.266-.271.084.068.171.165.327.347.5.512.145.139-.139-.253.034.061.084.154.182.3.266.455a2.02,2.02,0,0,0,2.737.717,2.042,2.042,0,0,0,.717-2.736c-1.349-2.477-3.819-3.456-6.414-4.116-1.238-.315-2.49-.6-3.711-.979-.253-.078-.5-.161-.752-.252-.123-.045-.245-.1-.37-.142-.222-.072.3.14-.049-.023-.639-.3-1.257-.627-1.866-.984a2,2,0,0,0-2.019,3.454Z"/><path class="c" d="M30.682,222.365a59.034,59.034,0,0,0,5.238,7.9,24.784,24.784,0,0,0,6.335,6.5,2,2,0,0,0,2.019-3.454,21.153,21.153,0,0,1-5.166-5.422,56.83,56.83,0,0,1-4.972-7.544,2,2,0,1,0-3.454,2.019Z"/><path class="c" d="M48.675,222.122a16.3,16.3,0,0,0,1.967.91c.528.2,1.066.374,1.594.573a2.246,2.246,0,0,0,1.542-.2,2,2,0,0,0,.717-2.737l-.313-.4a1.992,1.992,0,0,0-.882-.515c-.623-.235-1.264-.429-1.878-.686l.478.2c-.413-.175-.812-.383-1.206-.6a2.1,2.1,0,0,0-1.541-.2,2.043,2.043,0,0,0-1.2.92,2,2,0,0,0,.718,2.736Z"/><path class="c" d="M91.424,125.152c-.137,13.821.15,27.763-1.111,41.541q-.079.871-.176,1.74a5.12,5.12,0,0,1-.166,1.04,18.045,18.045,0,0,1-.752,2.379,57.024,57.024,0,0,1-2.814,5.99c-2.789,5.312-5.934,10.439-9.152,15.5q-4.758,7.482-9.846,14.75a2.032,2.032,0,0,0,.718,2.737c6.652,4.4,12.852,9.478,19.26,14.22a2.029,2.029,0,0,0,2.736-.718c4.525-6.774,9.29-13.376,13.492-20.364,4.771-7.934,9.292-16.5,11.21-25.632,2.058-9.8,1.628-20.138.825-30.055-.483-5.974-1.206-11.926-2.056-17.858-.767-5.355-1.417-10.848-3.577-15.857-2.3-5.329-6.6-9.157-11.463-12.144A90.512,90.512,0,0,0,81.1,94.293c-2.435-.852-3.481,3.011-1.063,3.857a89.208,89.208,0,0,1,15.1,6.89c4.037,2.329,7.976,5.151,10.32,9.283,2.484,4.378,3.151,9.558,3.89,14.459.858,5.7,1.585,11.414,2.108,17.152.885,9.707,1.5,19.807-.13,29.473-1.475,8.769-5.534,16.914-9.968,24.532-4.5,7.724-9.723,14.95-14.681,22.373L89.4,221.6c-6.409-4.741-12.609-9.818-19.26-14.22l.717,2.736A292.925,292.925,0,0,0,89.11,181.263c2.066-3.812,4.441-7.955,4.969-12.328.76-6.3.887-12.686,1.036-19.021.2-8.253.227-16.508.309-24.762.026-2.575-3.974-2.577-4,0Z"/><path class="f" d="M104.573,435.225c.11-.144.215-.292.313-.446a8.36,8.36,0,0,0,.553-7,22.917,22.917,0,0,0-3.6-6.273q-5.2-7.108-11-13.756c-1.506-1.728-3.209-3.529-5.461-3.954a3.386,3.386,0,0,1-1.684,3.553,7.93,7.93,0,0,1-4.061.917,22.54,22.54,0,0,1-15.777-6.279c.026,4.746-.022,6.326,0,11.073a9.945,9.945,0,0,0,.416,3.424c.976,2.639,3.869,3.91,6.191,5.5,6.041,4.134,9.222,11.676,15.552,15.352a16.344,16.344,0,0,0,15.108.541A9.514,9.514,0,0,0,104.573,435.225Z"/><path class="f" d="M15.113,435.225c-.11-.144-.214-.292-.312-.446a8.36,8.36,0,0,1-.553-7,22.939,22.939,0,0,1,3.6-6.273q5.2-7.108,11-13.756c1.506-1.728,3.208-3.529,5.461-3.954a3.387,3.387,0,0,0,1.683,3.553,7.936,7.936,0,0,0,4.062.917,22.54,22.54,0,0,0,15.777-6.279c-.026,4.746.021,6.326,0,11.073a9.945,9.945,0,0,1-.416,3.424c-.976,2.639-3.87,3.91-6.191,5.5C43.179,426.112,40,433.654,33.667,437.33a16.342,16.342,0,0,1-15.107.541A9.526,9.526,0,0,1,15.113,435.225Z"/><path class="c" d="M106.3,436.235c4.721-6.451-1.3-13.928-5.153-18.986q-3.548-4.653-7.335-9.115c-2.179-2.558-4.443-5.494-7.9-6.271a2.028,2.028,0,0,0-2.461,2.46c.3,1.573-2.456,1.886-3.393,1.926a19.285,19.285,0,0,1-5.965-.7,20.229,20.229,0,0,1-8.821-4.982,2.022,2.022,0,0,0-3.414,1.414c.011,2.231,0,4.462,0,6.693a44.03,44.03,0,0,0,.184,7.081c.772,4.787,5.507,6.193,8.744,8.972,3.27,2.806,5.668,6.433,8.563,9.592,3.076,3.357,6.852,6.048,11.422,6.834,5.17.89,11.735-.224,15.218-4.514a2.061,2.061,0,0,0,0-2.829,2.015,2.015,0,0,0-2.829,0c-2.55,3.142-7.352,4.091-11.193,3.509-4-.607-7.118-2.91-9.79-5.828-2.609-2.851-4.81-6.066-7.617-8.736a29.349,29.349,0,0,0-4.739-3.567c-1.32-.827-2.967-1.735-3.616-3.241a9.961,9.961,0,0,1-.348-3.832q0-1.721,0-3.441c.007-2.231.014-4.462,0-6.693L62.445,403.4a24.234,24.234,0,0,0,13.024,6.537c2.665.419,5.7.667,8.253-.385a5.6,5.6,0,0,0,3.588-6.288l-2.46,2.46c2.67.6,4.458,3.275,6.133,5.242q3.308,3.884,6.421,7.928a54.244,54.244,0,0,1,5.392,7.741c1.242,2.4,1.735,5.282.05,7.585a2.014,2.014,0,0,0,.718,2.736A2.045,2.045,0,0,0,106.3,436.235Z"/><path class="c" d="M16.84,434.216c-1.631-2.229-1.232-5.047-.048-7.4a52.148,52.148,0,0,1,5.49-7.93q3.032-3.954,6.267-7.746c1.712-2.015,3.554-4.809,6.287-5.424l-2.46-2.46a5.563,5.563,0,0,0,3.35,6.187c2.6,1.169,5.747.917,8.492.486A24.228,24.228,0,0,0,57.241,403.4l-3.414-1.414c-.02,4.045.156,8.12-.02,12.161-.087,2.008-1.119,3.184-2.726,4.266a57.118,57.118,0,0,0-4.73,3.255c-5.789,4.806-9.176,13.167-16.924,15.284-4.26,1.164-9.96.484-12.9-3.137a2.013,2.013,0,0,0-2.828,0,2.047,2.047,0,0,0,0,2.829c2.981,3.672,8.532,5.113,13.085,4.78a19.41,19.41,0,0,0,12.291-5.788c3.069-3.008,5.432-6.647,8.488-9.667a30.373,30.373,0,0,1,5.086-3.8,11.18,11.18,0,0,0,4.357-4.348c1.2-2.574.831-5.686.825-8.451-.005-2.46-.016-4.919,0-7.379a2.022,2.022,0,0,0-3.414-1.414,20.233,20.233,0,0,1-8.822,4.982,19.433,19.433,0,0,1-5.753.7c-.946-.027-3.925-.28-3.605-1.932a2.027,2.027,0,0,0-2.46-2.46c-3.455.777-5.718,3.712-7.9,6.271q-3.8,4.453-7.336,9.115c-3.858,5.058-9.873,12.536-5.153,18.986a2.06,2.06,0,0,0,2.737.717A2.014,2.014,0,0,0,16.84,434.216Z"/><path class="c" d="M20.794,125.152c.167,13,.337,26.053,1.351,39.021a40.237,40.237,0,0,0,.819,6.85,37.317,37.317,0,0,0,2.366,6.158,161.961,161.961,0,0,0,8.433,15.532Q38.6,200.8,43.857,208.621l.313-2.423c-5.316,5.471-11.7,9.831-17.33,14.97h2.828a138.44,138.44,0,0,1-15.8-23.613c-4.3-8.14-7.857-16.9-9.216-26.051-1.267-8.538-.565-17.364.386-25.894.563-5.057,1.286-10.093,2.043-15.124.713-4.732,1.242-9.7,3.139-14.139,2.036-4.767,5.927-8.062,10.274-10.685A86.667,86.667,0,0,1,36.036,98.37c2.406-.862,1.368-4.728-1.063-3.857a96.515,96.515,0,0,0-14.733,6.67c-4.187,2.353-8.207,5.157-11.1,9.047-2.986,4.01-4.25,8.958-5.073,13.809-.915,5.389-1.669,10.815-2.376,16.235C.47,149.608-.532,159.136.313,168.549c.853,9.5,4,18.559,8.124,27.109A140.017,140.017,0,0,0,26.84,224a2.027,2.027,0,0,0,2.828,0c5.626-5.138,12.015-9.5,17.33-14.97a2.031,2.031,0,0,0,.313-2.424,251.726,251.726,0,0,1-17.506-29.293,47.44,47.44,0,0,1-2.6-6.073,15.719,15.719,0,0,1-.606-2.319c.063.378-.036-.321-.049-.432-.032-.288-.063-.577-.093-.865q-.1-.932-.178-1.865c-.552-6.263-.794-12.555-1-18.837-.241-7.254-.386-14.51-.479-21.766-.033-2.572-4.033-2.579-4,0Z"/><path class="e" d="M93.421,125.155c.584-8.565.54-15.669.371-22.865A2.118,2.118,0,0,0,92.13,99.9c-4.415-1.924-6.861-4.134-11.4-5.827-.2,5.494-3.043,19.444-3.5,20.108-11.23.969-37.514,1.026-38.226,0-.461-.664-3.4-13.9-3.6-19.392-4.544,1.693-6.889,3.187-11.3,5.111a2.838,2.838,0,0,0-1.371.963,2.806,2.806,0,0,0-.291,1.425c-.169,7.2-.213,14.3.372,22.865"/><path class="c" d="M95.421,125.155c.1-7.071.478-14.138.4-21.21-.018-1.641.129-3.485-1.112-4.758-1.108-1.136-2.93-1.61-4.3-2.35a79.051,79.051,0,0,0-9.145-4.69,2.017,2.017,0,0,0-2.532,1.928,80.593,80.593,0,0,1-1.584,11.334c-.335,1.8-.69,3.595-1.088,5.381-.139.624-.279,1.248-.442,1.866-.051.194-.115.386-.161.581-.087.366-.2.347.044-.064l1.727-.99c-8.88.755-17.859.818-26.766.733-3.3-.032-6.624-.065-9.916-.381-.122-.012-.244-.028-.365-.043.6.074.335.052.212.025a3.686,3.686,0,0,0-.5-.1c-.41-.025.174.088.182.094.083.054.655.645.612.59.349.447.137.412.071.116-.318-1.411-.735-2.8-1.049-4.22a82.473,82.473,0,0,1-2.314-14.208,2.018,2.018,0,0,0-2.532-1.928c-3.08,1.161-6.009,2.613-8.975,4.028-1.409.672-3.263,1.156-4.376,2.3-1.242,1.274-1.092,3.121-1.114,4.763-.091,7.07.251,14.138.4,21.205.054,2.57,4.054,2.579,4,0-.136-6.375-.421-12.75-.415-19.127q0-1.04.013-2.078a12.128,12.128,0,0,1-.006-1.983,9.936,9.936,0,0,1,1.564-.717q.981-.441,1.951-.905c2.653-1.267,5.265-2.586,8.019-3.625l-2.531-1.929a90.484,90.484,0,0,0,3.115,18.071c.4,1.6.752,3.019,2.543,3.464a28.034,28.034,0,0,0,5.612.466c6.425.238,12.869.171,19.3.017,3.233-.078,6.465-.188,9.694-.375a20.776,20.776,0,0,0,4.1-.323c1.185-.325,1.486-1.5,1.751-2.533.767-2.985,1.317-6.036,1.85-9.069a79.925,79.925,0,0,0,1.371-10.434L80.194,96a63.971,63.971,0,0,1,7.832,4.092c.678.373,1.365.73,2.064,1.062.413.2,1.516.463,1.79.858-.22-.317-.087.351-.084.478.011.414.016.828.021,1.242q.015,1.17.012,2.341c-.01,6.362-.321,12.717-.408,19.078-.036,2.574,3.964,2.576,4,0Z"/><path class="c" d="M53.788,71.388a12.083,12.083,0,0,0,5.82,1.358,9.592,9.592,0,0,0,5.984-1.812,2,2,0,0,0,0-2.829,2.062,2.062,0,0,0-2.828,0c.691-.538-.025-.012-.243.1-.169.089-.622.23.008.016-.158.054-.312.12-.472.172-.425.136-.911.149-1.322.3.211-.078.323-.039.024-.009-.13.013-.26.024-.39.032-.312.02-.626.028-.939.026q-.422,0-.841-.03c-.129-.009-.257-.019-.385-.032-.074-.007-.147-.015-.22-.024q-.236-.028.183.024c-.049.051-.552-.1-.633-.118q-.3-.067-.6-.156c-.173-.052-.341-.114-.512-.172-.449-.154.421.2.014.009q-.318-.15-.628-.313a2,2,0,1,0-2.018,3.454Z"/><path class="c" d="M58.335,58.009a25.965,25.965,0,0,1,.612,2.8l-.072-.531a1.662,1.662,0,0,1,.011.386l.071-.532a.959.959,0,0,1-.042.174l.2-.478a.674.674,0,0,1-.061.112l.313-.405a.56.56,0,0,1-.092.09l.4-.313a1.874,1.874,0,0,1-.221.118l.477-.2a1.628,1.628,0,0,1-.373.109l.532-.072a1.526,1.526,0,0,1-.351,0l.532.071c-.133-.018-.262-.05-.394-.068a1.526,1.526,0,0,0-.8-.036,1.492,1.492,0,0,0-.744.237,2,2,0,0,0-.717,2.737,1.913,1.913,0,0,0,1.2.919c.351.047.692.135,1.049.151a3.442,3.442,0,0,0,1.61-.393,2.442,2.442,0,0,0,1.32-1.6,3.772,3.772,0,0,0-.013-1.658c-.153-.9-.361-1.8-.593-2.679a2,2,0,0,0-2.46-1.4,2.022,2.022,0,0,0-1.2.92,2.1,2.1,0,0,0-.2,1.541Z"/><path class="c" d="M44.088,49.935c-.467,1.519-.163,5.011,2.713,5.308,3.8-.022,4-4.245,2.725-6.23C48.478,47.387,45.4,46.711,44.088,49.935Z"/><path class="c" d="M74.531,49.936c.467,1.518.163,5.01-2.713,5.307-3.8-.022-4-4.245-2.725-6.23C70.141,47.387,73.222,46.711,74.531,49.936Z"/></svg>