<?xml version="1.0" encoding="utf-8"?>
<!-- Uploaded to: SVG Repo, www.svgrepo.com, Generator: SVG Repo Mixer Tools -->
<svg width="800px" height="800px" viewBox="-23.17 0 384.347 384.347" xmlns="http://www.w3.org/2000/svg"><defs><style>.a{fill:#ffffff;}.b{fill:#645d5c;}.c{fill:#211715;}.d{fill:#cfcfcf;}</style></defs><path class="a" d="M173.133,91.551a8.03,8.03,0,0,1,6.425-1.88A7.583,7.583,0,0,1,185.01,93.3a10.719,10.719,0,0,1,1.122,4.313,32.127,32.127,0,0,1-3.275,17.029,20.425,20.425,0,0,1-5.28,6.93,13.54,13.54,0,0,1-6.295,2.837s-.392.06-1.08.173c-.516,1.93-1.1,3.557-1.38,4.421-1.837,4.985-12.132,22.262-25.079,28.511a75.82,75.82,0,0,0,1.08,9.5c.655,3.737.45,7.078,5.646,8.955.344.124,15.082,7.135,15.608,7.352,0,0-1.48,33.476-51.446,33.476S72.1,184.114,72.1,184.114c1-.342,17.437-8.029,17.78-8.153,5.2-1.877,4.992-5.218,5.647-8.955a70.862,70.862,0,0,0,1.057-8.753c-6.192-2.656-11.863-7.177-16.9-13.209a54.638,54.638,0,0,1-10.412-20.325l-2.053-.315a13.54,13.54,0,0,1-6.3-2.837,20.425,20.425,0,0,1-5.28-6.93,32.127,32.127,0,0,1-3.275-17.029A10.719,10.719,0,0,1,53.487,93.3a7.583,7.583,0,0,1,5.452-3.624,8.03,8.03,0,0,1,6.425,1.88s2.311-41.873,52.23-41.873S173.133,91.551,173.133,91.551Z"/><path class="b" d="M55.941,132.178q.075-1.818.276-3.438a28.314,28.314,0,0,1,2.7-9.1,16.546,16.546,0,0,0,2,1.928,13.54,13.54,0,0,0,6.3,2.837l2.056.316A54.572,54.572,0,0,0,79.68,145.044,47.448,47.448,0,0,0,94.748,157.4c-1.953,5.35-9.491,10.259-18.637,11.654-8.519,1.293-16.578-.6-21.812-3.816a7.2,7.2,0,0,1-2.409-2.106,2.187,2.187,0,0,1-.375-1.053c-.01-.156.031-.761.219-.824,4.692-1.584,5.974-6.433,5.745-11.354-.24-4.942-1.491-10-1.574-14.941Q55.884,133.514,55.941,132.178Z"/><path class="c" d="M56.96,118.207C53.7,124.659,53,132.044,53.8,139.156c.419,3.7,1.175,7.38,1.289,11.109.071,2.312-.123,4.984-1.561,6.907-.83,1.111-1.883,1.357-3.009,2.015-1.665.974-1.666,3.3-.888,4.827,1.429,2.811,5.051,4.327,7.831,5.437a37.179,37.179,0,0,0,20.558,1.7c6.695-1.28,13.71-4.55,17.654-10.32,1.748-2.557-2.41-4.96-4.144-2.423-3.755,5.492-11.612,8.032-17.962,8.541a33.418,33.418,0,0,1-11.727-1.078,25.642,25.642,0,0,1-4.682-1.782,18.854,18.854,0,0,1-2.158-1.243c-.33-.226-.6-.57-.925-.779-.309-.2-.06-.344-.147-.039l-.617,1.059.115-.133-1.059.617a10.81,10.81,0,0,0,6.886-7.492c1.048-3.689.6-7.57.1-11.305-1.086-8.129-2.1-16.533,1.743-24.147,1.389-2.751-2.751-5.184-4.145-2.423Z"/><path class="c" d="M174.83,93.248a5.517,5.517,0,0,1,7.923.948,9.236,9.236,0,0,1,1.067,4.755,28.761,28.761,0,0,1-.342,6.064c-1.211,7.083-4.944,15.72-12.835,17.075a2.42,2.42,0,0,0-1.676,2.952,2.457,2.457,0,0,0,2.953,1.677c8.17-1.4,13.019-9.121,15.255-16.489a33.914,33.914,0,0,0,1.407-11.951c-.256-3.959-1.454-7.683-5.1-9.744a10.535,10.535,0,0,0-12.042,1.319,2.421,2.421,0,0,0,0,3.394,2.45,2.45,0,0,0,3.394,0Z"/><path class="c" d="M168.8,118.426a26.991,26.991,0,0,1-1.276,6.8c-.255.857-.537,1.706-.821,2.554-.077.23-.151.461-.235.688-.066.178-.365.845-.056.155a53.835,53.835,0,0,1-3.583,6.565,63.963,63.963,0,0,1-14.278,16.469,27.215,27.215,0,0,1-10.587,5.357c-3.009.692-1.736,5.321,1.276,4.629,8.046-1.849,14.78-7.653,20.082-13.725a69.269,69.269,0,0,0,11.052-16.461,35.134,35.134,0,0,0,3.226-13.032c.1-3.09-4.7-3.086-4.8,0Z"/><path class="c" d="M67.061,89.854a10.5,10.5,0,0,0-10.613-1.981c-3.931,1.551-5.9,4.859-6.4,8.928a32.941,32.941,0,0,0,5.766,22.774,17.221,17.221,0,0,0,10.759,7.144,2.472,2.472,0,0,0,2.953-1.677,2.42,2.42,0,0,0-1.677-2.952c-7.889-1.355-11.623-9.992-12.834-17.075a28.614,28.614,0,0,1-.35-5.84c.06-1.652.133-3.553,1.075-4.979a5.513,5.513,0,0,1,7.923-.948,2.463,2.463,0,0,0,3.394,0,2.421,2.421,0,0,0,0-3.394Z"/><path class="c" d="M65.224,117.65c2.923,16.866,12.063,33.37,27.689,41.509a37.522,37.522,0,0,0,13.559,4.057,2.415,2.415,0,0,0,2.4-2.4,2.454,2.454,0,0,0-2.4-2.4c-16.111-1.67-28.665-16.119-33.725-30.634a71.932,71.932,0,0,1-2.894-11.408A2.42,2.42,0,0,0,66.9,114.7a2.455,2.455,0,0,0-1.677,2.952Z"/><path class="c" d="M141.341,157.518a97.288,97.288,0,0,0,1.632,13.037,9.762,9.762,0,0,0,6.469,7.573c.978.387-.577-.3.1.032.281.136.566.263.848.4q1.306.612,2.611,1.23,3.53,1.668,7.059,3.34c1.6.756,3.18,1.568,4.806,2.26a2.482,2.482,0,0,0,3.284-.861,2.417,2.417,0,0,0-.861-3.284c-3.476-1.48-6.857-3.231-10.272-4.846-1.645-.778-3.284-1.571-4.939-2.326a19.3,19.3,0,0,1-2.434-1.146,3.872,3.872,0,0,1-1.776-2.479,45.413,45.413,0,0,1-.89-5.02,72,72,0,0,1-.836-7.905c-.159-3.073-4.96-3.092-4.8,0Z"/><path class="c" d="M94.146,158.9a69.687,69.687,0,0,1-.855,7.011c-.249,1.466-.388,2.972-.776,4.411a3.88,3.88,0,0,1-1.809,2.6,19.581,19.581,0,0,1-2.514,1.18c-4.11,1.867-8.19,3.8-12.29,5.685q-1.624.747-3.251,1.485c-.374.169-.749.334-1.123.5-.61.274.495-.175-.067.026a2.462,2.462,0,0,0-1.676,2.953,2.421,2.421,0,0,0,2.952,1.676c1.621-.58,3.187-1.4,4.75-2.112q3.815-1.749,7.619-3.52,2.754-1.276,5.508-2.549c.025-.012.445-.187.442-.2,0,.016-1.237.507-.149.081.314-.124.635-.259.941-.395a9.984,9.984,0,0,0,1.418-.756,8.977,8.977,0,0,0,3.5-4.277,24.27,24.27,0,0,0,1.069-5.056c.489-2.9.906-5.81,1.106-8.749a2.4,2.4,0,1,0-4.8,0Z"/><path class="a" d="M211.246,328.973a52.9,52.9,0,0,1-9.44-10.829c-2.158-3.821-7.134-14.333-8.4-20.673l-2.659-2.292q-1.116,7.472-2.269,15.265a22.744,22.744,0,0,1-3.574.068c-1.556,6.778-9,42.334-10.889,52.125l-106.667,0h0c-3.555-12.123-12.444-36.123-14.725-47.157l-6.7-.239c-6.1,0-39.528-2.592-42.787-4.148-1.482-.444-.653-4.363.149-7.3,2.664-9.754,8.2-35.471,9.629-41.293,2.214-9.038,8.035-35.1,9.994-42.609,1.193-4.575,3.743-11.594,7.354-15.871a27.709,27.709,0,0,1,3.782-2.592c2.344-1.847,5.374-3.1,7.975-4.511A434.441,434.441,0,0,1,81.76,177.29a43.272,43.272,0,0,1,9.592-13.772,83.9,83.9,0,0,0,24.22,16.88c.5.228,1.061.506,1.222,1.032h4.346c.161-.526.72-.8,1.222-1.032a83.892,83.892,0,0,0,24.221-16.88,42.048,42.048,0,0,1,8.8,12.113c16.681,6.857,29.222,13.4,43.723,21.285a73.55,73.55,0,0,1,6.674,3.553l1.776.967a27.713,27.713,0,0,1,3.765,2.583c3.611,4.277,6.161,11.3,7.354,15.871,1.959,7.514,5.057,20.647,8.248,34.218a106.89,106.89,0,0,1,4.4,12.648l8.126,2.548-19.333,60.667Z"/><path class="a" d="M180.35,241.305h-27.2c0,2.311.044,11.048.044,13.834,4.54,0,23.742.051,27.158.051C180.35,251.338,180.317,241.765,180.35,241.305Z"/><path class="c" d="M180.35,238.905h-27.2a2.435,2.435,0,0,0-2.4,2.4c0,4.611.043,9.222.044,13.834a2.435,2.435,0,0,0,2.4,2.4c9.053,0,18.106.05,27.158.051a2.434,2.434,0,0,0,2.4-2.4c0-4.611-.238-9.28,0-13.885.161-3.087-4.64-3.079-4.8,0-.238,4.6,0,9.274,0,13.885l2.4-2.4c-9.052,0-18.1-.051-27.158-.051l2.4,2.4c0-4.612-.042-9.223-.044-13.834l-2.4,2.4h27.2C183.439,243.705,183.444,238.905,180.35,238.905Z"/><path class="c" d="M55.021,309.706c-3.58-24.19-7.311-48.36-10.713-72.576q-1.179-8.4-2.271-16.805a2.479,2.479,0,0,0-2.4-2.4,2.413,2.413,0,0,0-2.4,2.4c2.938,22.847,6.433,45.621,9.84,68.4q1.665,11.127,3.315,22.255a2.417,2.417,0,0,0,2.953,1.677,2.462,2.462,0,0,0,1.676-2.953Z"/><path class="c" d="M84.2,173.61a442.287,442.287,0,0,0-40.788,19.751c-3.725,2.016-7.711,3.711-11.07,6.317a2.412,2.412,0,0,0,0,3.394,2.463,2.463,0,0,0,3.394,0,34.4,34.4,0,0,1,5.7-3.225c2.072-1.046,4.1-2.182,6.14-3.283,4.032-2.172,8.08-4.316,12.161-6.4,8.426-4.3,17-8.3,25.736-11.928a2.479,2.479,0,0,0,1.676-2.952A2.415,2.415,0,0,0,84.2,173.61Z"/><path class="c" d="M155.767,178.238c8.605,3.574,17.054,7.51,25.357,11.735,3.949,2.01,7.867,4.079,11.769,6.176,2.08,1.119,4.136,2.294,6.246,3.355a35.342,35.342,0,0,1,5.932,3.246,2.481,2.481,0,0,0,3.394,0,2.415,2.415,0,0,0,0-3.394c-3-2.325-6.53-3.771-9.854-5.572q-4.774-2.589-9.581-5.12c-6.416-3.366-12.9-6.6-19.489-9.616q-6.2-2.838-12.5-5.438a2.413,2.413,0,0,0-2.952,1.676,2.46,2.46,0,0,0,1.676,2.952Z"/><path class="c" d="M206.407,203.409c.688.385,1.349.82,2,1.26.351.236.707.472,1.044.729-.281-.215.415.435.489.527a28.508,28.508,0,0,1,3.555,6.137A70.094,70.094,0,0,1,217.41,224.3c1.239,4.947,2.426,9.907,3.607,14.868q1.068,4.494,2.127,8.99.508,2.156,1.015,4.311a26,26,0,0,0,1.054,3.416,79.608,79.608,0,0,1,3.857,11.408c.727,3,5.357,1.73,4.628-1.276a83.058,83.058,0,0,0-3.6-10.755,23.688,23.688,0,0,1-.967-2.3c-.4-1.465-.667-3.126-1.026-4.651q-1.07-4.541-2.145-9.078c-1.258-5.3-2.523-10.6-3.843-15.88a81.284,81.284,0,0,0-4.082-12.822,34.421,34.421,0,0,0-4.137-7.276,16.1,16.1,0,0,0-5.072-3.992c-2.7-1.512-5.121,2.633-2.423,4.145Z"/><path class="c" d="M191.151,298.009c1.278,6.191,4.082,12.2,6.867,17.842a48.007,48.007,0,0,0,11.592,14.72c2.313,2.031,5.721-1.351,3.394-3.394a55.1,55.1,0,0,1-7.318-7.781,35.12,35.12,0,0,1-3.524-5.968c-2.61-5.287-5.184-10.892-6.382-16.695-.624-3.023-5.252-1.744-4.629,1.276Z"/><path class="c" d="M209.843,302.717a108.344,108.344,0,0,1,6.709-8.52,36.17,36.17,0,0,1,8.273-7.028,2.4,2.4,0,0,0-2.422-4.145c-7.034,4.247-11.9,10.773-16.7,17.27a2.417,2.417,0,0,0,.861,3.284,2.457,2.457,0,0,0,3.284-.861Z"/><path class="a" d="M99.226,200.177c-6.85-9.341-10.508-16-16.254-25.354a41.447,41.447,0,0,1,8.441-11.4A83.915,83.915,0,0,0,115.634,180.3c.5.227,1.06.5,1.222,1.031a1.947,1.947,0,0,1-.28,1.368C116.262,183.348,101.515,197.359,99.226,200.177Z"/><path class="c" d="M101.3,198.965c-5.943-8.124-11-16.785-16.254-25.353v2.422a40.123,40.123,0,0,1,8.065-10.918H89.716a85.68,85.68,0,0,0,12.389,10.262q3.159,2.166,6.5,4.044,1.668.934,3.38,1.79.838.419,1.686.815c.249.116.5.225.747.344a3.6,3.6,0,0,1,.452.227q.344.193-.091-.057l-.327-1.211c.064.5.559-.4.234-.093-.184.171-.347.373-.521.553-.56.58-1.133,1.147-1.7,1.715-1.8,1.784-3.613,3.552-5.422,5.326a127.538,127.538,0,0,0-9.513,9.649,2.47,2.47,0,0,0,0,3.394,2.419,2.419,0,0,0,3.394,0,75.451,75.451,0,0,1,5.261-5.456c2.554-2.539,5.134-5.053,7.7-7.576a40.6,40.6,0,0,0,4.525-4.619,4.375,4.375,0,0,0,.844-2.893c-.126-1.778-1.5-2.681-2.971-3.361a79.145,79.145,0,0,1-7.688-4.111A80.618,80.618,0,0,1,93.11,161.721a2.445,2.445,0,0,0-3.394,0,42.275,42.275,0,0,0-7.391,9.325c-.5.833-1.013,1.686-1.425,2.566-.614,1.31-.095,2.264.607,3.414q1.545,2.526,3.069,5.063c3.971,6.585,8.035,13.088,12.578,19.3a2.471,2.471,0,0,0,3.284.861A2.42,2.42,0,0,0,101.3,198.965Z"/><path class="a" d="M138.831,200.177c6.849-9.341,10.508-16,16.254-25.354a41.467,41.467,0,0,0-8.441-11.4A83.915,83.915,0,0,1,122.423,180.3c-.5.227-1.06.5-1.222,1.031a1.942,1.942,0,0,0,.28,1.368C121.8,183.348,136.542,197.359,138.831,200.177Z"/><path class="c" d="M140.9,201.388c4.543-6.211,8.607-12.714,12.578-19.3q1.47-2.436,2.948-4.867c.747-1.222,1.4-2.181.728-3.61-.413-.881-.93-1.732-1.426-2.566a42.212,42.212,0,0,0-7.39-9.325,2.443,2.443,0,0,0-3.394,0A80.015,80.015,0,0,1,131.32,172.7a82.169,82.169,0,0,1-7.675,4.37,23.822,23.822,0,0,0-3.3,1.665,3.666,3.666,0,0,0-1.208,4.559c.763,1.858,2.8,3.356,4.2,4.728,2.531,2.492,5.076,4.97,7.6,7.469a87.044,87.044,0,0,1,6.2,6.385,2.418,2.418,0,0,0,3.394,0,2.455,2.455,0,0,0,0-3.394,127.362,127.362,0,0,0-9.514-9.649c-1.808-1.774-3.622-3.542-5.421-5.326-.572-.568-1.145-1.135-1.7-1.715-.175-.18-.338-.382-.521-.553-.325-.3.17.593.234.093l-.328,1.211-.239.14a3.7,3.7,0,0,1,.448-.238c.234-.116.475-.219.712-.329q.849-.393,1.686-.808,1.712-.847,3.38-1.779,3.441-1.917,6.692-4.149a85.68,85.68,0,0,0,12.389-10.262h-3.394a40.123,40.123,0,0,1,8.065,10.918v-2.422c-5.258,8.568-10.311,17.229-16.254,25.353a2.418,2.418,0,0,0,.861,3.284A2.456,2.456,0,0,0,140.9,201.388Z"/><path class="c" d="M116.645,182.423c0,13.482-.12,26.965-.194,40.446q-.052,9.518-.106,19.034c-.018,3.09,4.782,3.093,4.8,0q.151-26.773.281-53.548c.008-1.977.018-3.954.019-5.932,0-3.088-4.8-3.093-4.8,0Z"/><path class="c" d="M199.014,220.917c-2.825,22.233-6.189,44.4-9.488,66.563q-1.655,11.112-3.3,22.226a2.48,2.48,0,0,0,1.676,2.953,2.42,2.42,0,0,0,2.953-1.677c3.586-24.237,7.3-48.457,10.653-72.728q1.2-8.662,2.309-17.337a2.412,2.412,0,0,0-2.4-2.4,2.461,2.461,0,0,0-2.4,2.4Z"/><path class="c" d="M32.872,199.264a16.547,16.547,0,0,0-4.475,3.229,29.5,29.5,0,0,0-4.091,6.614,63.8,63.8,0,0,0-4.155,12.02c-1.91,7.719-3.648,15.481-5.432,23.23q-4.888,21.24-9.76,42.484c-1.008,4.392-2.026,8.783-3.131,13.152-.513,2.028-1.137,4.041-1.514,6.1-.5,2.722-.791,5.96,2.24,7.213a2.414,2.414,0,0,0,2.952-1.676,2.461,2.461,0,0,0-1.676-2.953l.906.668c.1.274.114.267.031-.019,0,0,.031.659.008-.136a8.191,8.191,0,0,1,.076-1.29,28.2,28.2,0,0,1,.8-3.57q.572-2.132,1.1-4.274c.948-3.811,1.838-7.636,2.719-11.463,1.713-7.448,3.352-14.913,5.058-22.363,3.146-13.746,6.312-27.5,9.6-41.208a82.328,82.328,0,0,1,3.243-11.032,35.573,35.573,0,0,1,3.807-7.288,10.366,10.366,0,0,1,.91-1.174,3.388,3.388,0,0,1,.266-.227c-.32.276.352-.241.436-.3.806-.562,1.632-1.112,2.49-1.593,2.7-1.511.278-5.659-2.422-4.145Z"/><path class="c" d="M5.711,297.984c8.772.863,17.544,1.742,26.333,2.419,2.227.172,4.456.343,6.689.416,3.089.1,3.086-4.7,0-4.8-9.56-.312-19.132-1.469-28.646-2.4q-2.188-.215-4.376-.433a2.417,2.417,0,0,0-2.4,2.4,2.452,2.452,0,0,0,2.4,2.4Z"/><path class="a" d="M251.174,229.117c1.558-3.146,3.583-6.248,4.426-8.237,1.166-2.749.382-7.38,1.207-10.229,1.881-6.5,4.123-10.15,8.272-15.16a162.94,162.94,0,0,1,13.906-14.546c2.22-2.1,4.454-3.523,7.23-1.632,3.087,2.105,1.946,4.934.6,8.091-2.5,5.88-8.636,10.746-10.589,15.788,0,0-.117.3-.307.767,4.785-1.023,18.528-3.4,21.117-3.984s4.373-2.056,6.723-3.16c4.541-2.133,9.611-5.37,14.533-6.342,1.34-.264,2.779.5,3.588.389,2.309-1.489,7.082-1.213,9.736-.491,9.478,4.379-.15,17.518-5.68,21.8-3.812,2.948-9.423,7.55-13.587,10.08-4.5,2.737-8.635,5.161-14.492,6.881-5.54,1.627-12.8,3.5-18.039,5.991-3.17,2.2-6.809,4.4-8.747,10.729-3.664,19.013-7.127,55.513-10.709,67.609-3.53,11.923-4.821,21.1-15.831,28-5.995,3.758-11.456,5.419-17.98,1.966-8.758-4.637-11.986-13.579-10.42-22.142a93.023,93.023,0,0,1,6.7-20.778c5.883-12.125,22.545-58.5,28.031-70.746C250.965,229.544,251.069,229.331,251.174,229.117Z"/><path class="c" d="M268.759,245.21c-3.21,16.731-4.835,33.741-7.4,50.575a160.942,160.942,0,0,1-4.083,19.723c-2.248,7.937-4.248,16.053-10.808,21.614-3.5,2.966-8.308,5.855-13.034,5.787-4.518-.065-8.975-3.009-11.68-6.5-5.946-7.685-3.1-17.4-.346-25.744,2.019-6.121,4.917-11.875,7.362-17.829,2.712-6.6,5.278-13.269,7.836-19.934,5.066-13.2,9.877-26.522,15.318-39.574.051-.124.436-1.032.165-.4.086-.2.171-.4.258-.6q.291-.681.593-1.356a2.476,2.476,0,0,0-.861-3.284,2.419,2.419,0,0,0-3.284.861c-2.361,5.287-4.418,10.715-6.5,16.114-2.882,7.456-5.712,14.932-8.565,22.4-2.751,7.2-5.506,14.4-8.384,21.546q-.894,2.22-1.811,4.433-.189.454-.38.908c-.162.385.217-.51-.046.109l-.161.38q-.4.936-.808,1.868c-1.358,3.088-2.831,6.108-4.015,9.272-3.444,9.2-6.927,19.789-2.784,29.307A22.213,22.213,0,0,0,225,345.311a17.738,17.738,0,0,0,16.134.679,32.236,32.236,0,0,0,12.133-8.943,36.427,36.427,0,0,0,6.047-11.515,144.028,144.028,0,0,0,5.493-21.234c3.069-17.434,4.719-35.088,7.641-52.547q.441-2.637.941-5.265a2.464,2.464,0,0,0-1.677-2.952,2.422,2.422,0,0,0-2.952,1.676Z"/><path class="c" d="M252.937,230.969c1.368-2.851,3.145-5.488,4.5-8.344,1.283-2.718,1.232-5.6,1.349-8.541.206-5.161,2.959-10.247,5.966-14.328a120.016,120.016,0,0,1,13.44-14.728c1.124-1.088,2.22-2.267,3.449-3.238.943-.746,1.861-1.263,2.974-.652,2.137,1.172.826,3.54-.017,5.4-2.681,5.917-8.237,9.965-10.68,16.015a2.417,2.417,0,0,0,1.677,2.953,2.459,2.459,0,0,0,2.952-1.676c1.05-2.6,3.1-4.823,4.84-6.977a37.551,37.551,0,0,0,5.507-8.237c1.232-2.8,2.569-6.09.874-9.008a7.128,7.128,0,0,0-9.417-2.7,18.652,18.652,0,0,0-3.991,3.223q-2.061,1.965-4.082,3.972c-2.638,2.634-5.2,5.349-7.621,8.181a61.806,61.806,0,0,0-6.025,7.974,38.867,38.867,0,0,0-3.77,8.541,20,20,0,0,0-.876,5.282,27.911,27.911,0,0,1-.315,4.923,15.576,15.576,0,0,1-1.938,4.092c-1.018,1.8-2.042,3.585-2.936,5.447a2.466,2.466,0,0,0,.861,3.284,2.421,2.421,0,0,0,3.284-.861Z"/><path class="c" d="M276.02,206.391c7.1-1.589,14.355-2.474,21.459-4.058,2.857-.637,5.263-2.366,7.862-3.621,2.869-1.386,5.636-2.98,8.55-4.273a25.939,25.939,0,0,1,3.841-1.372,4.026,4.026,0,0,1,1.533-.225,18.146,18.146,0,0,0,2.487.424c1.21-.026,2.167-.815,3.388-.989a15.292,15.292,0,0,1,3.641,0,5.814,5.814,0,0,1,2.692.745,3.9,3.9,0,0,1,1.4,1.538,4.186,4.186,0,0,1,.271.868c.026.1.085.606.041.189a7.524,7.524,0,0,1-.4,3.186c-1.142,3.754-3.874,7.327-6.752,10.1a66.712,66.712,0,0,1-5.251,4.273c-2.276,1.787-4.562,3.565-6.937,5.219a59.937,59.937,0,0,1-15.092,7.94c-6.439,2.132-13.073,3.544-19.3,6.32a21.2,21.2,0,0,0-5.963,4.367,19.924,19.924,0,0,0-4.74,8.189c-.934,2.952,3.7,4.215,4.629,1.276a15.353,15.353,0,0,1,5.323-7.662,17.407,17.407,0,0,1,3.773-2.286c1.917-.805,3.894-1.475,5.874-2.108,3.938-1.259,7.972-2.22,11.889-3.539a59.845,59.845,0,0,0,11.427-5.433,96.943,96.943,0,0,0,9.629-6.649,95.512,95.512,0,0,0,8.128-6.513c4.139-3.987,8.468-9.833,8.583-15.822a8.738,8.738,0,0,0-5.043-8.107,14.639,14.639,0,0,0-6.169-.98,12.027,12.027,0,0,0-6.131,1.4l1.211-.328c-.773.025-1.732-.361-2.576-.42a9.571,9.571,0,0,0-3.251.508,39.5,39.5,0,0,0-6.382,2.587c-1.958.956-3.871,2-5.821,2.973-1.9.946-3.729,2.086-5.658,2.958a27.794,27.794,0,0,1-6.35,1.475c-2.964.547-5.93,1.081-8.894,1.627-2.739.5-5.488.984-8.206,1.593-3.013.674-1.738,5.3,1.276,4.628Z"/><path class="c" d="M289.223,212.321c-3.576.584-7.333.8-10.955,1.543a22.014,22.014,0,0,0-10.3,4.857,2.4,2.4,0,0,0,3.395,3.394c5.115-4.494,12.786-4.128,19.138-5.165A2.417,2.417,0,0,0,292.175,214a2.457,2.457,0,0,0-2.952-1.677Z"/><path class="c" d="M317.8,192.881a37.246,37.246,0,0,1-8.6,6.261,57.848,57.848,0,0,1-9.465,4.305,2.46,2.46,0,0,0-1.677,2.952,2.423,2.423,0,0,0,2.953,1.676,66.02,66.02,0,0,0,10.612-4.788,42.272,42.272,0,0,0,9.571-7.012c2.165-2.207-1.226-5.6-3.395-3.394Z"/><path class="c" d="M324.14,197.563a13.809,13.809,0,0,1-1.76,1.744c-.214.183-.433.36-.652.536-.564.453.374-.276-.223.173q-.669.5-1.356.982c-2.046,1.427-4.182,2.726-6.345,3.968q-3.123,1.791-6.34,3.411c-.845.425-1.695.841-2.553,1.239-.314.146-.633.283-.948.428-.538.247.426-.159.022-.008-.137.052-.272.11-.408.163a2.47,2.47,0,0,0-1.677,2.952,2.418,2.418,0,0,0,2.953,1.676,83.081,83.081,0,0,0,11.374-5.717c2.234-1.282,4.44-2.625,6.547-4.109a23.512,23.512,0,0,0,4.76-4.044,2.47,2.47,0,0,0,0-3.394,2.418,2.418,0,0,0-3.394,0Z"/><path class="d" d="M116.046,241.852c-41.284,0-69.82,31.975-69.82,69.391,0,43.314,27.007,70.693,69.822,70.693,43.812,0,69.823-27.379,69.823-70.693C185.871,273.572,157.185,241.852,116.046,241.852Z"/><path class="c" d="M116.046,239.452a73.3,73.3,0,0,0-44.871,14.931,70.912,70.912,0,0,0-24.564,36.639c-4.189,14.8-3.641,31.281.782,45.974a65.122,65.122,0,0,0,22.968,33.58c11.633,8.748,26.107,12.853,40.5,13.623,15,.8,30.586-1.6,43.885-8.847a61.468,61.468,0,0,0,26.512-28.792,77.724,77.724,0,0,0,5.977-20.883,88.868,88.868,0,0,0,.441-23.74,72.165,72.165,0,0,0-18.941-40.53,70.673,70.673,0,0,0-40.276-20.971,81.833,81.833,0,0,0-12.417-.984c-3.089-.008-3.094,4.792,0,4.8,15.043.034,29.939,4.567,41.9,13.825a66.059,66.059,0,0,1,22.942,34.284c3.906,13.9,3.363,29.285-.638,43.112-3.5,12.1-10.4,23.2-20.329,30.817-10.737,8.237-24.017,12.176-37.437,13.042-14.149.913-28.878-1.067-41.462-7.69A58.081,58.081,0,0,1,55.375,344.59c-5.962-12.733-7.906-27.962-6.241-41.948a65.657,65.657,0,0,1,55.39-57.516,73.578,73.578,0,0,1,11.522-.874C119.134,244.244,119.14,239.444,116.046,239.452Z"/><path class="c" d="M169.016,304.444c-3.137-21.371-20.256-40.1-41.4-44.8a51.815,51.815,0,0,0-28.009,1.579,58.9,58.9,0,0,0-25.248,17.648c-7.855,9.162-12.907,20.5-12.906,32.689,0,3.089,4.8,3.094,4.8,0,0-9.782,3.611-18.977,9.441-26.749A55.355,55.355,0,0,1,98.215,266.86a47.131,47.131,0,0,1,25.007-3.174A47.609,47.609,0,0,1,147.1,274.749a51.013,51.013,0,0,1,17.285,30.971,2.416,2.416,0,0,0,2.952,1.676,2.462,2.462,0,0,0,1.676-2.952Z"/><path class="a" d="M6.7,313.712C5.809,317.1,4.937,320.5,4.2,323.752,1.975,333.635,5.567,344,12.274,346.721c8.35,3.389,14.091,3.873,21.867,5.51,16.308,3.433,91.121,11.587,93.482,12.016a26.027,26.027,0,0,1,9.168,3.072c2.551,1.634,5.513,5.039,7.783,7.1,4.256,3.87,8.019,5.132,13.562,6.625a24.592,24.592,0,0,0,7.705.546c3.209-.258,6.043-5.68,7.342-7.6.32-.473,4.721-.858,6.691-3.79.793-1.181,1.126-3.249,1.892-4.363a23.772,23.772,0,0,1,5.285-4.891c1.828-1.439,1.953-4.474,1.854-6.784,10.537.347,8.9-11.137.529-13.689-3.029-.924-17.776-6.187-23.965-8.64l5.969-2.659c3.672-1.321,11.56-1.526,10.292-7.752-.844-4.142-8.324-4.463-11.445-4.279-4.018.237-8.818.143-12.6,1.45A23.038,23.038,0,0,0,147,326.969a21.458,21.458,0,0,1-4.834,5.112c-1.873,1.283-4.05,1.121-6.274,1.735h0c-2.833.391-21.982,1.341-32.615-1.144-12.371-2.892-57.791-11.444-64.085-14.305l.773-5.8L7.742,309.345Z"/><path class="c" d="M136.53,336.13c1.272-.325,2.58-.443,3.857-.739a10.194,10.194,0,0,0,4.137-2.1c2.061-1.653,3.469-3.83,5.126-5.848,3.254-3.964,7.364-6.738,12.517-7.4,2.686-.347,5.416-.358,8.118-.492.652-.032,1.3-.047,1.955-.033.792.016,1.928.094,2.457.169a14.584,14.584,0,0,1,2.593.6,6.946,6.946,0,0,1,1.6.85,2.574,2.574,0,0,1,.324.337c-.247-.31.037.085.083.176.179.356-.106-.5.064.183a4.112,4.112,0,0,1,.111.536c-.019-.176-.072,1.031,0,.577a2.521,2.521,0,0,1-.112.453c-.261.687.207-.4-.114.241-.291.576.173-.157-.068.132a4.849,4.849,0,0,1-.462.467c-.3.275.452-.28-.138.1-.195.128-.393.248-.6.36a9.765,9.765,0,0,1-2.19.834c-1.652.481-3.364.762-4.991,1.328a2.46,2.46,0,0,0-1.676,2.953,2.422,2.422,0,0,0,2.952,1.676c3.448-1.2,7.564-1.33,10.275-4.088a6.961,6.961,0,0,0-1.981-11c-3.972-1.989-8.492-1.707-12.789-1.529a43.953,43.953,0,0,0-9.37,1.059,21.843,21.843,0,0,0-8.067,4.246c-2.54,2.042-4.31,4.592-6.372,7.071a10.887,10.887,0,0,1-3.534,3.179c-1.535.676-3.372.663-4.984,1.076-2.991.765-1.723,5.4,1.276,4.628Z"/><path class="c" d="M162.388,333.132c6.188,2.7,12.645,4.87,19.007,7.122,2.443.866,4.89,1.722,7.356,2.522a7.776,7.776,0,0,1,3.526,2.213c.134.145.265.294.388.449.272.341-.289-.441.113.167a10.173,10.173,0,0,1,.523.876c.086.163.169.329.242.5-.168-.393-.027-.045,0,.033a8.449,8.449,0,0,1,.317,1.223c-.091-.533,0,.373,0,.571,0,.015-.044.659,0,.269.038-.341-.082.369-.1.443a2,2,0,0,1-.556,1.033,4.3,4.3,0,0,1-1.366.857,8.2,8.2,0,0,1-2.932.356,2.423,2.423,0,0,0-2.4,2.4,12.355,12.355,0,0,1-.192,3.413c-.327,1.329-1.161,1.828-2.211,2.644-2.425,1.884-4.415,3.853-5.467,6.793A5.279,5.279,0,0,1,177.1,369.7a7.64,7.64,0,0,1-2.459,1.225,16.4,16.4,0,0,0-2.37.814,5.3,5.3,0,0,0-1.886,2.177c-1.047,1.672-2.227,3.722-3.789,4.833-.328.233-.931.474-.755.441a11.232,11.232,0,0,1-2,.083,19.833,19.833,0,0,1-4.7-.451c-5.286-1.252-9.951-3.235-13.881-7.058-2.319-2.256-4.512-4.762-7.257-6.521a26.283,26.283,0,0,0-9.741-3.314,2.472,2.472,0,0,0-2.953,1.676,2.419,2.419,0,0,0,1.677,2.952,23.019,23.019,0,0,1,8.6,2.831c2.478,1.588,4.437,4,6.545,6.022,4.436,4.261,9.807,6.623,15.739,8.041a24.8,24.8,0,0,0,5.137.614,12.536,12.536,0,0,0,4.478-.4c2.632-.966,4.443-3.36,5.951-5.607a14.789,14.789,0,0,0,1.608-2.522c.281-.724-.847.707-.451.4-.444.348-.355.13-.038.049.5-.128,1-.3,1.49-.465,2.487-.851,4.981-2.229,6.222-4.658.719-1.409.917-3.059,1.951-4.29a24.587,24.587,0,0,1,3.913-3.438c2.831-2.194,3.308-5.566,3.18-8.966l-2.4,2.4c4.018.085,8.33-1.539,9.483-5.77.975-3.576-.724-7.5-3.41-9.878-2.465-2.187-5.586-2.949-8.621-4q-5.662-1.959-11.289-4.027-3.135-1.146-6.258-2.327c-.867-.33-1.733-.662-2.595-1-.334-.132-.667-.268-1-.4a2.88,2.88,0,0,1-.405-.17,2.477,2.477,0,0,0-3.283.861,2.417,2.417,0,0,0,.861,3.283Z"/><path class="c" d="M4.381,313.074c-2.137,8.172-4.664,16.431-2.031,24.811a19.01,19.01,0,0,0,5.372,8.77c2.948,2.541,6.975,3.66,10.653,4.7,5.775,1.633,11.791,2.624,17.7,3.685,3.607.649,7.236,1.183,10.863,1.7,10.418,1.492,20.864,2.8,31.31,4.071s20.906,2.5,31.363,3.713q8.751,1.014,17.5,2.046c.066.008-.738-.121-.121-.012a2.468,2.468,0,0,0,2.952-1.676,2.42,2.42,0,0,0-1.676-2.952c-4.793-.849-9.727-1.174-14.558-1.732Q99,358.5,84.293,356.747q-8.19-.986-16.375-2.013-3.893-.49-7.782-1c-2.558-.334-4.583-.6-6.884-.918-8.217-1.124-16.326-2.543-24.475-4.067a92.277,92.277,0,0,1-11.131-2.628c-3.093-.987-6.1-1.916-8.142-4.52A18.151,18.151,0,0,1,6.1,332.557c-.452-3.98.275-7.691,1.214-11.54.544-2.228,1.118-4.448,1.7-6.667.782-2.991-3.846-4.267-4.628-1.276Z"/><path class="c" d="M135.892,331.416a71.3,71.3,0,0,1-7.306.428c-4.211.124-8.431.116-12.64-.078a68.194,68.194,0,0,1-12.031-1.408q-3.365-.768-6.741-1.475c-14.046-2.96-28.143-5.682-42.151-8.82-3.193-.715-6.383-1.447-9.55-2.269-1.111-.288-2.22-.587-3.318-.921-.435-.132-.869-.268-1.3-.419-.161-.056-.319-.119-.479-.174-.657-.229.47.214.024.015a2.474,2.474,0,0,0-3.284.861,2.419,2.419,0,0,0,.861,3.283c4.117,1.844,8.785,2.657,13.154,3.661,7.188,1.65,14.409,3.153,21.63,4.645,7.037,1.455,14.081,2.876,21.115,4.344,6.183,1.29,12.261,2.783,18.581,3.265,4.828.369,9.681.43,14.521.33a80.359,80.359,0,0,0,8.911-.468,2.48,2.48,0,0,0,2.4-2.4c0-1.164-1.106-2.572-2.4-2.4Z"/><path class="c" d="M1.981,313.064a19.347,19.347,0,0,0,5.283,1.229c3.134.461,6.284.819,9.434,1.147q10.368,1.082,20.775,1.753c2.455.159,4.921.341,7.382.347,3.089.006,3.093-4.794,0-4.8-5.172-.011-10.374-.529-15.525-.944q-5.367-.433-10.727-.962-2.513-.251-5.021-.532-1.088-.125-2.174-.257-.456-.056-.912-.114l-.55-.071-.212-.027c-1.237-.17-2.474-.348-3.7-.581-.43-.082-.861-.168-1.285-.277-.392-.1-1.154-.426-.346-.056a2.471,2.471,0,0,0-3.283.861,2.42,2.42,0,0,0,.861,3.284Z"/><path class="b" d="M60.869,36.829c8.992-14.811,22.976-26,38.677-30.523,26.23-7.562,60-5.879,76.894,20.77,8.851,13.963,10.788,30.966,5.153,51.037,1.581,2.55.468,6.716-1.894,8.486-3.279,2.457-10.054.469-13.436-.491-17.875-5.079-31.906-4.713-50.313-3.853-10.31.481-19.638,1.339-28.5,3.872-4.128,1.18-24.435,8.194-24.808-1.032l-1.427-2.659c-16.035-1.053-6.979-33.2-2.733-41.368Q59.609,38.9,60.869,36.829Z"/><path class="c" d="M61.217,80.036c-.146-.011-.292-.023-.439-.037-.687-.066.3.063-.1-.017-.3-.06-.6-.119-.892-.2-.251-.069-.5-.153-.742-.24-.42-.151-.027-.012.049.024-.168-.08-.335-.16-.5-.249-.214-.117-.417-.25-.624-.379-.557-.345.075.143-.3-.229-.192-.191-.4-.364-.582-.562-.116-.124-.65-.827-.318-.355a11.5,11.5,0,0,1-.784-1.27c-.068-.129-.389-.816-.291-.588.07.162-.209-.564-.267-.738a17.11,17.11,0,0,1-.471-1.707c-.063-.282-.119-.566-.17-.85-.026-.145-.048-.29-.073-.435-.1-.571.026.28-.037-.251-.718-6.025.259-11.608,1.671-17.366a80.22,80.22,0,0,1,2.376-7.946q.283-.792.588-1.575c.089-.229.181-.456.272-.684A2.094,2.094,0,0,1,59.744,44c.527-1.183,1.115-2.325,1.743-3.458a70.738,70.738,0,0,1,17.4-20.736C91.632,9.517,108.13,5.208,124.3,4.826c15.1-.357,30.8,3.387,42.119,13.894A49.734,49.734,0,0,1,179.79,39.752a59.436,59.436,0,0,1,1.716,27.712c-.424,2.624-.981,5.222-1.633,7.8-.759,3,3.869,4.274,4.628,1.276,2.615-10.329,3.574-21.11,1.562-31.633a55.438,55.438,0,0,0-12.019-25.127c-11-13.1-27.729-19.066-44.456-19.714a96.3,96.3,0,0,0-24.637,2.383A70.291,70.291,0,0,0,80.231,12.87,74.545,74.545,0,0,0,59.967,33.753a60.21,60.21,0,0,0-7.482,16.673c-1.748,6.177-3.04,12.758-2.786,19.2.211,5.338,1.725,11.671,7.059,14.117a12.727,12.727,0,0,0,4.459,1.089,2.419,2.419,0,0,0,2.4-2.4,2.448,2.448,0,0,0-2.4-2.4Z"/><path class="c" d="M63.462,83.474A101.9,101.9,0,0,1,82.213,73.237a93.872,93.872,0,0,1,27.718-6.113,208.543,208.543,0,0,1,30.562-.161,99.184,99.184,0,0,1,19.692,3.167c1.308.366,2.607.77,3.887,1.227q.831.3,1.651.623c.191.077.92.388.343.138.264.115.529.229.791.349a24.75,24.75,0,0,1,4.563,2.617,2.418,2.418,0,0,0,3.284-.861,2.459,2.459,0,0,0-.861-3.284,35,35,0,0,0-10.5-4.879,95.836,95.836,0,0,0-19.521-3.616,200.768,200.768,0,0,0-30.046-.36c-10.256.557-20.466,2.049-30.171,5.517a104.061,104.061,0,0,0-22.57,11.728c-2.559,1.7-.159,5.863,2.423,4.145Z"/><path class="c" d="M60.244,85.1c.457,7.974,9.828,7.467,15.557,6.5,6.753-1.137,13.153-3.681,19.887-4.924a139.91,139.91,0,0,1,17.863-1.9c5.923-.32,11.858-.577,17.79-.625a121.43,121.43,0,0,1,34.284,4.272c4.508,1.274,10.11,2.969,14.568.691,4.666-2.384,6.218-9.93,2.313-13.623-2.244-2.122-5.644,1.267-3.394,3.394,1.055,1,1.013,2.575.43,4.014a3.552,3.552,0,0,1-3.178,2.437c-3.884.5-8.047-1.194-11.774-2.174a124.006,124.006,0,0,0-31.53-3.818c-5.547,0-11.091.232-16.631.489-5.763.268-11.517.661-17.235,1.449a86.6,86.6,0,0,0-13.22,2.781c-2.381.719-4.763,1.433-7.181,2.019a33.043,33.043,0,0,1-9.734,1.291c-.185-.007-.369-.018-.553-.032-.074-.006-.736-.075-.428-.035.155.02-.677-.127-.879-.177a8.9,8.9,0,0,1-.9-.279c.54.195-.2-.124-.384-.215-.56-.285.107.225-.312-.228-.071-.078-.15-.162-.227-.236-.351-.34.2.364-.017-.04-.065-.123-.135-.244-.2-.367-.125-.233.11.44.02.01-.031-.146-.074-.3-.112-.441-.033-.177-.03-.121.011.165q-.021-.2-.03-.4c-.175-3.071-4.976-3.091-4.8,0Z"/><path class="c" d="M140.214,34.836c8.029-.7,17.986.151,23.9,6.3,2.145,2.231,5.537-1.166,3.394-3.394-6.787-7.056-17.985-8.515-27.291-7.7a2.463,2.463,0,0,0-2.4,2.4,2.418,2.418,0,0,0,2.4,2.4Z"/><path class="c" d="M109.9,134.652a21.215,21.215,0,0,0,10.223,2.36c3.637-.023,7.341-.728,10.258-3a2.413,2.413,0,0,0,0-3.394,2.46,2.46,0,0,0-3.394,0c.71-.554.095-.086-.087.031-.208.133-.423.256-.642.371-.151.08-.9.394-.3.166-.294.111-.586.225-.885.321a15.23,15.23,0,0,1-5.279.7,15.8,15.8,0,0,1-5.036-.678c-.324-.1-.64-.213-.959-.322-.1-.036-.2-.09-.31-.121.591.173.17.076.014,0-.4-.187-.788-.382-1.176-.587a2.452,2.452,0,0,0-3.283.861,2.426,2.426,0,0,0,.861,3.284Z"/><path class="c" d="M119.034,110.4a48.64,48.64,0,0,1,1.145,5.24l-.085-.638a3.18,3.18,0,0,1,.019.723l.086-.638a1.823,1.823,0,0,1-.079.326l.241-.574a1.292,1.292,0,0,1-.114.21l.375-.486a1.139,1.139,0,0,1-.171.169l.485-.376a3.356,3.356,0,0,1-.415.22l.574-.242a3.054,3.054,0,0,1-.7.2l.638-.086a2.725,2.725,0,0,1-.657,0l.639.086c-.248-.035-.491-.095-.739-.128a2.655,2.655,0,0,0-1.849.242,2.4,2.4,0,0,0-.861,3.283,2.29,2.29,0,0,0,1.434,1.1c.538.073,1.061.211,1.608.235a5.085,5.085,0,0,0,2.336-.551,3.309,3.309,0,0,0,1.853-2.19,5.6,5.6,0,0,0-.025-2.39c-.285-1.688-.675-3.362-1.109-5.017a2.4,2.4,0,1,0-4.629,1.276Z"/><path class="c" d="M91.048,95.63c-.875,2.844-.305,9.386,5.083,9.943,7.121-.043,7.5-7.952,5.1-11.671C99.271,90.857,93.5,89.59,91.048,95.63Z"/><path class="c" d="M148.073,95.63c.875,2.844.3,9.386-5.082,9.943-7.122-.043-7.5-7.953-5.1-11.672C139.85,90.857,145.621,89.591,148.073,95.63Z"/></svg>