<?xml version="1.0" encoding="utf-8"?>
<!-- Uploaded to: SVG Repo, www.svgrepo.com, Generator: SVG Repo Mixer Tools -->
<svg width="800px" height="800px" viewBox="-143.86 0 443.318 443.318" xmlns="http://www.w3.org/2000/svg"><defs><style>.a{fill:#7a7473;}.b{fill:#ffffff;}.c{fill:#211715;}.d{fill:#bdbdbd;}.e{fill:#79c6e0;}</style></defs><path class="a" d="M84.52,82.579c9.927.46,19.561-2.96,25.132-9.516,4.186-4.928,1.554-5.285-.917-10.1-1.516-2.954-2.018-7.469-2.2-10.841-.41-7.57-.42-14.987-1.837-22.51A32.13,32.13,0,0,0,94.72,11.751L90.259,8.28A38.521,38.521,0,0,0,68.572,2.068C51.791,1.794,35.687,12.413,32.447,29.612c-1.417,7.523-1.427,14.94-1.837,22.51-.182,3.372-.684,7.887-2.2,10.841-2.471,4.815-5.1,5.172-.917,10.1,4.653,5.476,10.433,10.536,20.4,10.056L56.259,81.6Z"/><path class="b" d="M60.978,27.2C58,31.438,45.152,44.873,40.708,46.651l-.574,1.6a4.282,4.282,0,0,0-3.428-1A4.043,4.043,0,0,0,33.8,49.184a5.714,5.714,0,0,0-.6,2.3,17.138,17.138,0,0,0,1.747,9.084,10.9,10.9,0,0,0,2.817,3.7,7.227,7.227,0,0,0,3.358,1.514l1.1.169A29.119,29.119,0,0,0,47.771,76.79a24.135,24.135,0,0,0,9.647,7.3,37.322,37.322,0,0,1-.6,5.891c-.34,1.97-.23,3.73-2.97,4.71-.18.07-1.45.49-1.98.67,0,0-.874,15.677,16.608,15.677s20.8-14.963,20.8-14.963c-.277-.114-3.354-1.314-3.535-1.38-2.735-.987-2.627-2.746-2.972-4.713a38.359,38.359,0,0,1-.608-6.653c6.805-3.419,12.192-12.471,13.162-15.1.152-.461.461-1.33.737-2.362l.575-.088A7.227,7.227,0,0,0,100,64.266a10.9,10.9,0,0,0,2.817-3.7,17.138,17.138,0,0,0,1.747-9.084,5.714,5.714,0,0,0-.6-2.3,4.043,4.043,0,0,0-2.908-1.933,4.3,4.3,0,0,0-2.518.4l-.172-1.2c-4.083-.481-13.923-4.764-19.486-7.408-6.065-2.882-14.651-9.667-17.453-11.96"/><path class="c" d="M94.593,62.591a16.123,16.123,0,0,1-.938,4.335c-.063.191-.491,1.317-.223.708-.135.3-.276.607-.426.905a36.706,36.706,0,0,1-3.167,5.09c-2.743,3.762-6.47,7.751-11.168,8.854-2.505.587-1.444,4.445,1.064,3.857,5.67-1.331,10.067-5.964,13.4-10.481,2.879-3.9,5.254-8.315,5.455-13.268.1-2.574-3.9-2.57-4,0Z"/><path class="c" d="M41.548,46.839a6.322,6.322,0,0,0-7.89-.411c-2.454,1.828-2.7,5.053-2.462,7.886.455,5.484,3.344,12.31,9.394,13.394a2.055,2.055,0,0,0,2.46-1.4,2.017,2.017,0,0,0-1.4-2.46c-3.9-.7-5.669-4.91-6.309-8.417a14.187,14.187,0,0,1-.2-2.784,5.519,5.519,0,0,1,.385-2.456,2.193,2.193,0,0,1,3.2-.526,2.055,2.055,0,0,0,2.828,0,2.017,2.017,0,0,0,0-2.829Z"/><path class="c" d="M39.365,62.368a33.4,33.4,0,0,0,7.122,15.99c4.012,4.75,9.324,8.171,15.576,8.846a2.012,2.012,0,0,0,2-2,2.045,2.045,0,0,0-2-2c-5.3-.572-9.723-3.983-13.01-7.989-3.251-3.96-4.96-8.923-5.831-13.91a2.015,2.015,0,0,0-2.46-1.4,2.046,2.046,0,0,0-1.4,2.46Z"/><path class="c" d="M93.876,13.7a30.648,30.648,0,0,1,8.547,14.828c1.642,6.814,1.666,13.975,1.982,20.94.27,5.982.685,11.86,4.084,16.981a13.379,13.379,0,0,1,1.3,2.152,1.749,1.749,0,0,1,.06.415,3.689,3.689,0,0,1-.641,1.347,19.785,19.785,0,0,1-6.073,5.692,32.33,32.33,0,0,1-18.62,4.522c-2.574-.106-2.57,3.894,0,4a37.038,37.038,0,0,0,18.86-4.037,26.666,26.666,0,0,0,7.212-5.526c1.757-1.935,3.815-4.469,3.114-7.274-.58-2.32-2.534-4.107-3.482-6.275a26.667,26.667,0,0,1-1.669-8.993c-.463-7.657-.466-15.341-1.84-22.914a34.676,34.676,0,0,0-10.01-18.687c-1.847-1.795-4.678,1.03-2.829,2.829Z"/><path class="c" d="M60.009,28.5a129.962,129.962,0,0,0,13.429,9.8,97.209,97.209,0,0,0,16.546,7.714,36.74,36.74,0,0,0,8.378,2.438,2.011,2.011,0,0,0,2-2,2.051,2.051,0,0,0-2-2c.383.049-.436-.09-.509-.1-.322-.067-.642-.145-.96-.228-.743-.193-1.476-.417-2.2-.656-1.74-.569-3.453-1.22-5.152-1.9-3.354-1.342-6.683-2.792-9.928-4.38-6.056-2.962-11.569-7.263-16.771-11.513-1.977-1.616-4.824,1.2-2.828,2.828Z"/><path class="c" d="M59.251,26.188c-.157.223-.32.441-.485.659-.054.071.2-.251-.046.055-.117.144-.232.29-.349.434-.527.648-1.07,1.284-1.62,1.913-1.31,1.5-2.662,2.96-4.038,4.4a107.637,107.637,0,0,1-9.2,8.733,20.5,20.5,0,0,1-1.959,1.489c-.288.2-.582.389-.884.565-.15.088-.3.168-.456.253s-.637.284-.038.036a2.067,2.067,0,0,0-1.4,2.461,2.011,2.011,0,0,0,2.46,1.4c3.316-1.37,6.1-4.127,8.686-6.539C53.178,39,56.292,35.8,59.237,32.467a51.274,51.274,0,0,0,3.468-4.26,2.017,2.017,0,0,0-.717-2.736,2.044,2.044,0,0,0-2.737.717Z"/><path class="c" d="M52.4,97.293a21.28,21.28,0,0,0,3.27-1.226,5.507,5.507,0,0,0,2.62-3.155,19.742,19.742,0,0,0,.6-3.263,42.052,42.052,0,0,0,.526-5.554,2,2,0,0,0-4,0c-.019.805-.061,1.608-.132,2.41q-.048.546-.112,1.091c-.006.05-.07.546-.048.387s-.049.335-.057.386a30.729,30.729,0,0,1-.535,3.138c-.026.1-.053.192-.083.286-.024.072-.15.408-.024.092.153-.384-.242.391-.243.386-.028-.083.329-.348.034-.068-.029.028-.192.236-.238.227.207-.152.25-.185.127-.1-.06.044-.121.085-.185.124-.112.07-.227.134-.345.195-.138.07-.338.146-.083.049q-.136.052-.276.1c-.165.059-.332.114-.5.17-.461.155-.922.308-1.383.464A2,2,0,0,0,52.4,97.293Z"/><path class="c" d="M80.165,83.872a49.985,49.985,0,0,0,.724,6.925,7.624,7.624,0,0,0,1.53,4.093,8.382,8.382,0,0,0,3.552,2.031c.926.36,1.856.712,2.776,1.087a2.007,2.007,0,0,0,2.46-1.4,2.061,2.061,0,0,0-1.4-2.46c-.813-.331-1.635-.643-2.453-.961-.345-.135-.69-.27-1.036-.4-.079-.03-.159-.057-.237-.089.338.14-.2-.116-.267-.153-.113-.066-.536-.421-.175-.09-.1-.095-.2-.2-.3-.293-.3-.285.181.337-.01-.014-.06-.111-.124-.223-.186-.334-.185-.329.108.423-.008-.051-.035-.145-.084-.287-.118-.433-.133-.572-.2-1.158-.292-1.736a39.463,39.463,0,0,1-.558-5.723,2,2,0,0,0-4,0Z"/><path class="b" d="M61.528,125.483c-3.631-11.948-8.687-28.671-9.543-31.472,0,0-.224-.733-.536-1.714a19.958,19.958,0,0,1,3.386-4.174,43.387,43.387,0,0,0,12.524,8.728c.259.118.548.261.631.534h3.139c.083-.273.372-.416.632-.534a43.383,43.383,0,0,0,12.523-8.728A21.032,21.032,0,0,1,88.4,93.552a196.176,196.176,0,0,1-6.145,20.483c-5.277,14.8-9.112,24.877-13.349,35.043-1.455-4.083-2.653-8.214-3.937-12.338C64.377,134.844,63.083,130.6,61.528,125.483Z"/><path class="c" d="M99.039,49.668a2.209,2.209,0,0,1,3.125.412,4.722,4.722,0,0,1,.451,2.4,14.36,14.36,0,0,1-.2,2.951c-.64,3.507-2.411,7.718-6.31,8.417a2.018,2.018,0,0,0-1.4,2.46,2.043,2.043,0,0,0,2.46,1.4c6.051-1.084,8.939-7.91,9.394-13.394.236-2.838-.011-6.051-2.462-7.886a6.319,6.319,0,0,0-7.89.411,2.016,2.016,0,0,0,0,2.829,2.044,2.044,0,0,0,2.829,0Z"/><path class="b" d="M93.568,315.923C96,335.224,92,354.665,89.6,373.97c-1.3,10.477-1.745,22.16,2.828,31.253.08.275.12.423.12.423.364,1.357.978,4.969-.218,5.706s-3.168.709-4.573.734c-6.1.1-12.554-4.492-15.975-7.536a.463.463,0,0,0-.369-.105c-.592-23.986-.6-47.986-.6-71.982,0-5.262,0-11.658,0-16.92"/><path class="b" d="M46.056,315.923c-2.428,19.3,1.573,38.742,3.973,58.047,1.3,10.477,1.745,22.16-2.828,31.253-.08.275-.12.423-.12.423-.364,1.357-.978,4.969.218,5.706s3.168.709,4.573.734c6.1.1,12.554-4.492,15.975-7.536a.463.463,0,0,1,.369-.105c.592-23.986.6-47.986.6-71.982,0-5.262,0-11.658,0-16.92"/><path class="c" d="M44.17,315.923c-1.74,14.142-.1,28.353,1.835,42.385.907,6.58,1.967,13.156,2.59,19.771a66.932,66.932,0,0,1-.106,16.5c-.9,5.8-3.007,11.365-7.15,15.634-1.793,1.848,1.032,4.68,2.829,2.828,8.1-8.345,9.381-20.458,8.7-31.544-.407-6.585-1.443-13.128-2.36-19.656-.993-7.067-1.98-14.14-2.562-21.255a121,121,0,0,1,.228-24.663,2.011,2.011,0,0,0-2-2,2.049,2.049,0,0,0-2,2Z"/><path class="c" d="M67.723,315.543c0,25.282.083,50.567-.337,75.847q-.183,11.063-.521,22.122c-.08,2.575,3.921,2.572,4,0,.811-26.1.848-52.207.854-78.314q0-9.828,0-19.655c0-2.574-4-2.579-4,0Z"/><path class="c" d="M91.568,315.923c1.785,14.517.016,29.1-2,43.5-1.7,12.141-4.183,24.7-2.061,36.952a31.315,31.315,0,0,0,8.058,16.667c1.8,1.851,4.622-.979,2.828-2.828-7.659-7.894-8.213-19.688-7.433-30.049,1.022-13.578,3.868-26.961,4.908-40.546a119.427,119.427,0,0,0-.305-23.695,2.063,2.063,0,0,0-2-2,2.011,2.011,0,0,0-2,2Z"/><path class="d" d="M37.055,192.79c-1.39,4.88-3.111,12.983-4.233,19.344-5.3,30.013,2.294,92.325,2.822,102.182a.987.987,0,0,0,.9.934c15.684,1.452,52.619,1.506,65.7-.047a.993.993,0,0,0,.884-.933c.508-9.733,7.939-72.1,2.639-102.136-1.122-6.361-2.843-14.464-4.233-19.344"/><path class="c" d="M35.127,192.258a159.132,159.132,0,0,0-5.885,35.261,349.721,349.721,0,0,0,.342,35.143c.556,10.943,1.406,21.87,2.383,32.783.359,4.008.738,8.014,1.108,12.021.128,1.385.255,2.77.371,4.156a20.976,20.976,0,0,0,.3,3.367c.73,2.832,4.576,2.427,6.882,2.578,2.463.162,4.929.282,7.4.38,5.942.237,11.889.35,17.835.391,10.98.076,22.028.065,32.981-.806,2.239-.178,5.619.048,6.217-2.73a25.794,25.794,0,0,0,.269-3.269c.266-3.217.572-6.431.864-9.646.923-10.184,1.775-20.375,2.406-30.583.735-11.88,1.227-23.794,1.028-35.7-.089-5.342-.317-10.688-.85-16.006a160.272,160.272,0,0,0-2.96-17.6c-.7-3.263-1.443-6.523-2.351-9.736-.7-2.473-4.559-1.422-3.857,1.064a154.607,154.607,0,0,1,5.738,33.907c.6,11.416.322,22.876-.213,34.288-.507,10.805-1.3,21.594-2.232,32.369-.566,6.578-1.3,13.152-1.732,19.741-.005.079-.081.528-.034.565-.336-.258,1.348-.657.843-.958-.05-.029-.215.037-.275.031a3.775,3.775,0,0,0-.666.07c-.918.093-1.839.171-2.759.24-2.275.172-4.554.291-6.834.388-5.525.236-11.056.337-16.586.375-11.277.078-22.588-.028-33.846-.746q-1.575-.1-3.148-.227a4.59,4.59,0,0,0-.67-.057c-.072,0-.265-.063-.326-.029-.518.29,1.1.733.776.958a2.767,2.767,0,0,0-.039-.618c-.071-1.064-.164-2.126-.257-3.187-.3-3.389-.625-6.774-.938-10.161-.931-10.092-1.78-20.192-2.409-30.307-.72-11.6-1.2-23.23-1-34.853.088-5.178.311-10.361.824-15.516a151.569,151.569,0,0,1,2.9-16.951c.675-3.125,1.392-6.245,2.262-9.322.7-2.482-3.157-3.541-3.857-1.064Z"/><path class="a" d="M28.51,437.08q-.165-.216-.312-.446a8.362,8.362,0,0,1-.553-7.006,22.939,22.939,0,0,1,3.595-6.273q5.205-7.107,11-13.756c1.506-1.727,3.209-3.528,5.461-3.953-.364,1.357-.909,4.71.288,5.446s3.021.735,4.426.76c6.151.107,12.725-4.3,16.14-7.381.233-.21.667.084.669.418.032,3.963.364,5.676.344,10.055a10.081,10.081,0,0,1-.761,3.39c-.976,2.639-3.869,3.91-6.191,5.5-6.041,4.134-9.222,11.676-15.552,15.351a16.344,16.344,0,0,1-15.108.542A9.548,9.548,0,0,1,28.51,437.08Z"/><path class="a" d="M111.734,437.08c.11-.144.215-.293.312-.446a8.358,8.358,0,0,0,.554-7.006,22.917,22.917,0,0,0-3.6-6.273q-5.2-7.107-11-13.756c-1.506-1.727-3.209-3.528-5.461-3.953.364,1.357.978,4.969-.218,5.706s-3.168.709-4.573.734c-6.1.1-12.554-4.492-15.975-7.536-.265-.236-.756-.058-.759.246-.046,3.986-.517,5.4-.5,9.815a12.272,12.272,0,0,0,.916,3.723c.976,2.639,3.869,3.91,6.191,5.5,6.041,4.134,9.222,11.676,15.552,15.351a16.344,16.344,0,0,0,15.108.542A9.536,9.536,0,0,0,111.734,437.08Z"/><path class="c" d="M30.237,436.07c-1.631-2.229-1.231-5.046-.048-7.395a52.042,52.042,0,0,1,5.491-7.931q3.03-3.954,6.266-7.746c1.712-2.014,3.554-4.809,6.288-5.423l-2.461-2.461c-.519,2.026-1.029,4.857.2,6.726,1.58,2.392,5.881,2.2,8.37,1.905,5.866-.7,11.281-3.988,15.622-7.86l-.882.514.2-.07H68.227l.218.076-.882-.515.175.177-.514-.882a11.68,11.68,0,0,1,.083,2.59c.042.882.1,1.764.146,2.646.107,1.993.392,4.2-.158,6.137a6.718,6.718,0,0,1-3.267,4,39.993,39.993,0,0,0-4.7,3.312c-5.591,4.871-9.016,12.974-16.7,14.981-4.212,1.1-9.812.374-12.7-3.188a2.014,2.014,0,0,0-2.829,0,2.047,2.047,0,0,0,0,2.828c2.179,2.683,5.788,4.12,9.133,4.6a18.71,18.71,0,0,0,10.593-1.535c5.881-2.721,9.185-8.573,13.5-13.088a21.378,21.378,0,0,1,3.453-3.012c1.239-.836,2.543-1.563,3.734-2.471,3.06-2.334,4.106-5.654,4.057-9.413-.02-1.492-.1-2.98-.185-4.469-.087-1.532.152-3.4-.262-4.869A2.519,2.519,0,0,0,69.4,402.51a2.662,2.662,0,0,0-2.587.839,34.391,34.391,0,0,1-3.283,2.492c-3.042,2.015-6.623,3.851-10.342,4a18.59,18.59,0,0,1-2.67-.062,9.415,9.415,0,0,1-1.1-.218c-.776-.179.005-.207-.065.145.1-.512-.1-1.28-.039-1.86a11.84,11.84,0,0,1,.319-1.669,2.023,2.023,0,0,0-2.46-2.461c-3.455.778-5.718,3.713-7.9,6.271q-3.8,4.455-7.336,9.116c-3.857,5.058-9.873,12.535-5.152,18.985a2.059,2.059,0,0,0,2.736.718A2.015,2.015,0,0,0,30.237,436.07Z"/><path class="c" d="M113.461,438.089c4.721-6.451-1.3-13.928-5.153-18.985q-3.548-4.653-7.335-9.116c-2.18-2.558-4.443-5.493-7.9-6.271a2.024,2.024,0,0,0-2.461,2.461,10.133,10.133,0,0,1,.407,3.3,2.437,2.437,0,0,1-.08.511c-.144-.065.851-.388.083-.219a11.622,11.622,0,0,1-2.226.3,17.716,17.716,0,0,1-9.377-2.487,35.348,35.348,0,0,1-4.132-2.709c-1.061-.805-2.314-2.415-3.742-2.425-2.405-.016-2.493,2.176-2.575,3.971-.064,1.417-.215,2.827-.318,4.242-.244,3.335-.278,7,1.692,9.9,1.822,2.676,4.906,3.794,7.322,5.79,4.955,4.1,7.961,10.053,13.277,13.78a18.062,18.062,0,0,0,11.335,3.158c3.913-.239,8.318-1.65,10.869-4.791a2.059,2.059,0,0,0,0-2.828,2.015,2.015,0,0,0-2.829,0c-2.55,3.141-7.352,4.09-11.193,3.508-4-.607-7.118-2.91-9.79-5.828-2.609-2.85-4.81-6.066-7.617-8.736a29.466,29.466,0,0,0-4.739-3.567c-1.342-.84-2.929-1.734-3.616-3.241-1-2.191-.892-4.467-.735-6.81.061-.9.149-1.8.221-2.7.04-.5.077-1.006.1-1.509a6.42,6.42,0,0,1,.075-1.654l-.919,1.195.2-.125-1.01.273.248-.025-1.009-.273a7.181,7.181,0,0,1,1.243.993q.873.705,1.776,1.373a35.712,35.712,0,0,0,3.673,2.4,23.11,23.11,0,0,0,8.992,3.082c2.4.243,6.606.412,8.1-1.911,1.253-1.944.686-4.9.147-6.993l-2.46,2.461c2.67.6,4.458,3.275,6.133,5.242q3.308,3.884,6.421,7.927a54.253,54.253,0,0,1,5.392,7.742c1.242,2.395,1.735,5.282.05,7.584a2.015,2.015,0,0,0,.718,2.737A2.045,2.045,0,0,0,113.461,438.089Z"/><path class="c" d="M36.835,194.79h64.079c2.574,0,2.578-4,0-4H36.835c-2.574,0-2.579,4,0,4Z"/><path class="d" d="M67.914,198.96l-.262.829A6.173,6.173,0,0,0,67.914,198.96Z"/><path class="d" d="M68.431,197.325c-.139.453-.285.886-.435,1.309-.028.116-.055.224-.082.326Z"/><path class="d" d="M131.743,129.159s-11.45-3.339-22.832-2.027c1.247-8.659,2.224-16.093,2.621-21.01l.074-.926c-.959-.549-1.975-1.052-3.036-1.578-4.7-2.333-14.7-6.842-19.44-9.36,0,0-.33-.176-.793-.431a199.555,199.555,0,0,1-6.083,20.208c-5.278,14.8-9.113,24.878-13.348,35.045-1.455-4.083-2.653-8.215-3.938-12.34C63,130.417,53.207,98.011,51.985,94.011L51.675,93l-2.693,1.276c-5.63,2.666-14.895,7.3-19.594,9.63-.862.428-1.978,1.106-2.776,1.513l-.88.449-1.377.884a12.183,12.183,0,0,0-1.911,1.069c-3,3.251-3.558,3.159-5.576,8.3C13.776,124,8.261,140.108,5.562,147.83,3,155.164.338,160.009,3.126,165.661s8.709,9.326,13.079,12.365c4.438,3.087,9.94,6.473,15.126,9.489-1.194,9.081-2.511,18.47-3.012,23.029,4,.861,22.508,1.975,28.989-.332,4.244-1.511,8.2-4.545,10.688-11.578.479-1.978,1.12-5.851,1.758-10.252L70.5,191.1c2.047,7.445,5.609,16.848,9.989,18.809,5.267,2.359,22.271,1.767,27.926.611-1.071-9.725-5.818-41.211-5.232-45.167q.426-2.883.867-5.815c3.462,5.771,10.977,14.557,18.433,13.464,8.066-1.183,9.5-11.522,9.932-17.978C133.005,146.171,133.454,138.285,131.743,129.159Z"/><path class="c" d="M129.812,129.686a80.145,80.145,0,0,1,1.044,17.483,90.712,90.712,0,0,1-1.079,13.336c-.6,3.212-1.607,6.934-4.263,9.089-2.98,2.417-6.844,1.52-9.849-.339-4.131-2.554-7.4-6.606-9.887-10.72-1.332-2.2-4.792-.191-3.454,2.019,4.477,7.4,13.689,17.869,23.42,13.548,3.9-1.732,6.07-5.738,7.212-9.66,1.3-4.476,1.482-9.224,1.739-13.849a92.61,92.61,0,0,0-1.026-21.97c-.464-2.528-4.32-1.457-3.857,1.063Z"/><path class="c" d="M80.436,109.107a56.052,56.052,0,0,0,7.881-10.683c.566-.934,1.128-1.87,1.7-2.8a2.831,2.831,0,0,0,.6-1.868,4.994,4.994,0,0,0-.781-1.739A22.964,22.964,0,0,0,85.7,86.709a2.035,2.035,0,0,0-2.828,0,40.636,40.636,0,0,1-6.709,5.439c-1.183.766-2.4,1.478-3.654,2.124-1.225.633-2.893,1.079-3.307,2.581a3.513,3.513,0,0,0,.9,3.044c.82,1.088,1.684,2.142,2.546,3.195,1.647,2.011,3.321,4,4.961,6.015a2.013,2.013,0,0,0,2.828,0,2.047,2.047,0,0,0,0-2.829c-1.369-1.682-2.763-3.344-4.142-5.018-.777-.943-1.553-1.886-2.313-2.842-.212-.266-.416-.519-.615-.792a4.66,4.66,0,0,0-.271-.384c-.186-.2.065-.265.034.143l-.273,1.009q-.538.441-.086.184l.292-.134c.293-.138.587-.277.878-.421q.891-.442,1.761-.927,1.791-1,3.484-2.165A45.646,45.646,0,0,0,85.7,89.538H82.87a20.416,20.416,0,0,1,4.051,5.492V93.011c-2.83,4.616-5.464,9.4-9.313,13.267C75.79,108.105,78.617,110.935,80.436,109.107Z"/><path class="c" d="M61.511,106.278c-3.849-3.868-6.483-8.651-9.313-13.267V95.03a20.4,20.4,0,0,1,4.052-5.492H53.421a45.824,45.824,0,0,0,6.513,5.393q1.691,1.163,3.485,2.165.8.444,1.614.854c.291.145.584.288.878.426q.219.1.438.2.453.258-.086-.184l-.273-1.009c-.028-.367.234-.363.034-.143a3.754,3.754,0,0,0-.217.311c-.218.3-.436.573-.668.865-.761.956-1.537,1.9-2.314,2.842-1.379,1.674-2.773,3.336-4.142,5.018a2.06,2.06,0,0,0,0,2.829,2.015,2.015,0,0,0,2.828,0c1.607-1.975,3.247-3.923,4.861-5.892.873-1.065,1.744-2.132,2.578-3.228a3.6,3.6,0,0,0,.969-3.134c-.4-1.46-1.967-1.9-3.16-2.506q-1.879-.96-3.656-2.106a40.657,40.657,0,0,1-6.853-5.532,2.038,2.038,0,0,0-2.829,0,22.91,22.91,0,0,0-4.051,5.164,7.314,7.314,0,0,0-.827,1.615,2.63,2.63,0,0,0,.563,2.134c.569.932,1.13,1.868,1.7,2.8a56.052,56.052,0,0,0,7.881,10.683C60.5,110.934,63.33,108.106,61.511,106.278Z"/><path class="c" d="M88.121,95.985c4.682,2.475,9.527,4.647,14.316,6.9,4.565,2.151,10.212,4.032,13,8.5,1.36,2.179,4.822.173,3.454-2.019-3.142-5.031-8.673-7.214-13.819-9.644-4.993-2.357-10.051-4.613-14.934-7.195-2.275-1.2-4.3,2.249-2.019,3.454Z"/><path class="d" d="M69.581,147.456c3.973-9.63,7.677-19.408,12.673-33.421a197.277,197.277,0,0,0,6.118-20.369,42.348,42.348,0,0,1,11.988,10.088c-2.366,2.742-5.627,6.613-6.207,7.433.145.1,2.991,1.9,3.114,2.647.083.51-.232,1.194-1.032,2.434-1.693,2.622-13.712,23.246-18.037,29.625Z"/><path class="c" d="M86.455,93.079a164.242,164.242,0,0,1-6.13,20.425c-2.706,7.613-5.479,15.2-8.4,22.737q-2.081,5.364-4.273,10.683a2.012,2.012,0,0,0,1.4,2.46,2.049,2.049,0,0,0,2.46-1.4q3.993-9.684,7.622-19.512c3.04-8.178,6.085-16.372,8.593-24.731.952-3.17,1.895-6.363,2.588-9.6.538-2.51-3.317-3.583-3.857-1.063Z"/><path class="c" d="M107.884,208.59c-5.343,1.067-11.708,1.1-17.422.865a35.346,35.346,0,0,1-8.027-.983c-.255-.071-.5-.154-.755-.234-.115-.036-.232-.081-.342-.126.044.018.31.144.057.019a5.616,5.616,0,0,1-1.512-1.1,16.357,16.357,0,0,1-2.707-3.862,59.428,59.428,0,0,1-4.746-12.606c-.687-2.477-4.547-1.425-3.857,1.063a69.471,69.471,0,0,0,4.565,12.438c1.491,3,3.517,6.374,6.736,7.735a26.508,26.508,0,0,0,8.437,1.536,96.792,96.792,0,0,0,10.8.092,63.978,63.978,0,0,0,9.836-.983c2.523-.5,1.455-4.36-1.063-3.857Z"/><path class="c" d="M47.973,92.544Q36.683,97.9,25.6,103.687c-2.282,1.194-.262,4.647,2.019,3.454Q38.689,101.35,49.991,96a2.018,2.018,0,0,0,.718-2.737,2.043,2.043,0,0,0-2.736-.717Z"/><path class="c" d="M66.5,196.793a19.145,19.145,0,0,1-5.456,9.074,14.113,14.113,0,0,1-6.517,3c-5.891,1.146-12.3.83-18.289.486-1.482-.085-2.963-.192-4.44-.339a23.23,23.23,0,0,1-2.808-.373c-2.515-.487-3.592,3.367-1.063,3.858a87.372,87.372,0,0,0,17.7,1.068c6.134-.092,12.556-.408,17.58-4.338,3.643-2.85,5.785-7.039,7.149-11.376.774-2.462-3.086-3.515-3.857-1.064Z"/><path class="d" d="M60.766,145.893c-4.325-6.379-16.344-27-18.037-29.625-.8-1.24-1.115-1.924-1.032-2.434.123-.75,2.968-2.548,3.114-2.647-.58-.82-3.841-4.691-6.207-7.433a41.749,41.749,0,0,1,12.44-10.31l.669-.323.272.89c1.222,4,11.014,36.406,12.983,42.729,1.482,4.758,2.848,9.526,4.628,14.217Z"/><path class="c" d="M50.057,94.543c3.683,12.059,7.305,24.137,10.98,36.2q1,3.267,2,6.53c.952,3.068,1.865,6.147,2.866,9.2,1.019,3.1,2.307,6.13,3.153,9.289,2.047,7.648.915,15.49-.041,23.205-.523,4.221-1.095,8.437-1.757,12.639-.388,2.464-.562,5.328-1.537,7.654a2.013,2.013,0,0,0,1.4,2.461,2.052,2.052,0,0,0,2.46-1.4,29.527,29.527,0,0,0,1.361-6.554c.623-3.826,1.153-7.666,1.656-11.509.967-7.387,2.274-15.048,1.3-22.5-.815-6.252-3.45-12.046-5.3-18.03q-1.493-4.82-2.966-9.646Q62.486,121.8,59.375,111.5q-2.73-9.009-5.461-18.018c-.75-2.455-4.612-1.409-3.857,1.063Z"/><path class="c" d="M50.034,91.717A37.409,37.409,0,0,0,42.7,96.75a35.783,35.783,0,0,0-5.823,5.994,2.024,2.024,0,0,0,.313,2.424q1.842,2.137,3.658,4.3.731.872,1.453,1.75.312.381.621.766c.3.372-.138-.2.162.213l.718-2.737a16.784,16.784,0,0,0-3.19,2.436c-1.446,1.568-.866,3.346.141,4.988.986,1.609,1.971,3.216,2.938,4.837,3.437,5.76,6.853,11.534,10.349,17.259,1.627,2.664,3.251,5.336,5,7.923,1.433,2.121,4.9.121,3.454-2.019-6.222-9.207-11.567-19.01-17.34-28.5-.176-.29-.353-.58-.533-.867-.2-.319-.721-1.583-.942-1.633.391.088-.778,1.263.079.528.234-.2.463-.391.71-.575.438-.326.9-.624,1.354-.924a2.02,2.02,0,0,0,.717-2.736c-1.99-2.74-4.311-5.276-6.52-7.839l.313,2.424a31.909,31.909,0,0,1,5.2-5.185,33.1,33.1,0,0,1,6.524-4.407c2.308-1.139.284-4.59-2.019-3.454Z"/><path class="c" d="M86.911,95.171a33.052,33.052,0,0,1,6.524,4.407,31.869,31.869,0,0,1,5.2,5.185l.313-2.424c-2.209,2.563-4.53,5.1-6.52,7.839a2.028,2.028,0,0,0,.717,2.736c.355.234,2.385,1.712,2.336,1.75-.254.2.092-.967-.257-.618a8.2,8.2,0,0,0-.732,1.241c-.139.222-.279.443-.416.666-1.076,1.75-2.12,3.521-3.171,5.286-3.275,5.5-6.538,11-9.88,16.453-1.482,2.418-2.964,4.842-4.552,7.192-1.445,2.138,2.019,4.142,3.454,2.019,6.417-9.5,11.794-19.659,17.873-29.367.943-1.506,2.144-3.36.992-5.089a12.209,12.209,0,0,0-3.628-2.987l.718,2.737c.3-.413-.136.159.162-.213.206-.256.412-.512.621-.766q.72-.879,1.453-1.75,1.814-2.163,3.658-4.3a2.042,2.042,0,0,0,.313-2.424,35.822,35.822,0,0,0-5.823-5.994,37.439,37.439,0,0,0-7.334-5.033c-2.3-1.135-4.33,2.314-2.019,3.454Z"/><path class="c" d="M109.532,106.122c-.589,7.195-1.662,14.356-2.7,21.5-1.413,9.745-2.919,19.477-4.386,29.214q-.569,3.772-1.129,7.546a13.97,13.97,0,0,0-.18,2.379c.045,2.026.266,4.052.476,6.066.66,6.338,1.515,12.657,2.359,18.973.833,6.236,1.748,12.467,2.441,18.72a2.059,2.059,0,0,0,2,2,2.013,2.013,0,0,0,2-2c-1.32-11.909-3.247-23.745-4.58-35.654-.26-2.325-.516-4.655-.649-6.991-.038-.676-.05-1.349-.045-2.027,0-.121.019-.241.025-.362-.049,1,.106-.686.141-.921q.279-1.884.562-3.766c1.474-9.832,3-19.656,4.439-29.492,1.228-8.363,2.533-16.753,3.223-25.183.21-2.565-3.792-2.551-4,0Z"/><path class="c" d="M23.3,106.715c.6,7.37,1.7,14.707,2.76,22.023,1.409,9.74,2.915,19.465,4.382,29.2.377,2.5.744,5,1.121,7.5.2,1.311.052-.311.025.2-.006.115.013.237.017.352.011.343,0,.687-.01,1.029-.067,2.057-.289,4.112-.5,6.157-.668,6.322-1.52,12.625-2.363,18.926-.82,6.136-1.719,12.267-2.4,18.42a2.011,2.011,0,0,0,2,2,2.047,2.047,0,0,0,2-2c1.3-11.783,3.2-23.5,4.536-35.278.266-2.345.525-4.7.673-7.052a30.3,30.3,0,0,0-.519-6.535c-1.487-9.962-3.031-19.914-4.5-29.878-1.228-8.323-2.53-16.671-3.217-25.06-.208-2.548-4.21-2.57-4,0Z"/><path class="b" d="M82.787,136.567c-20.041,8.382-45.808,19.066-66.354,27.658,5.958,14.245,17.525,41.863,21.5,51.367l.005,0c25.992-10.817,44.491-18.746,66.291-27.863-4.3-10.268-17.19-41-21.44-51.163Z"/><path class="c" d="M82.255,134.639q-26.053,10.9-52.136,21.723-7.11,2.964-14.217,5.935c-.9.374-1.856,1.364-1.4,2.46q8.873,21.214,17.757,42.425,1.66,3.966,3.32,7.932a5.828,5.828,0,0,0,.937,1.892c1.13,1.13,2.579.255,3.784-.247q3.873-1.614,7.745-3.233,13.851-5.794,27.68-11.645,14.51-6.126,29.033-12.221c.9-.375,1.855-1.364,1.4-2.46q-8.979-21.469-17.99-42.926-1.053-2.513-2.1-5.024c-.62-1.479-1.184-3.983-2.744-4.611a2.014,2.014,0,0,0-2.461,1.4,2.049,2.049,0,0,0,1.4,2.46h0l-1.4-1.4q8.754,20.933,17.54,41.851,1.95,4.656,3.9,9.312l1.4-2.46c-16.744,7-33.447,14.107-50.183,21.13q-8.049,3.378-16.108,6.732h1.063l0,0,1.4,1.4q-8.413-20.12-16.841-40.234-2.329-5.566-4.658-11.132l-1.4,2.46q26.184-10.95,52.4-21.832,6.981-2.91,13.958-5.826a2.067,2.067,0,0,0,1.4-2.46A2.013,2.013,0,0,0,82.255,134.639Z"/><path class="b" d="M57.878,179.087c2.494.332,6.468-.451,9.038-.708a16.063,16.063,0,0,1,4.863-.151c1.489.372,2.675,1.756,4.029,2.46,2.731,1.42,5.567,2.526,8.3,3.88,1.184.586,2.612.874,3.315,2.07a3.516,3.516,0,0,1-.433,4.221c-1.526,1.454-3.123.851-4.816.224-1.817-.674-4-.689-5.579-1.81,1.327,1.828,3.128,3.874,4.25,5.4,1,1.357,3.016,3.5,3.015,5.226,0,2.015-2.264,3.41-4.056,3.389a4.031,4.031,0,0,1-3.081-1.258c.346,1.126-.085,1.9-1.308,2.758-1.111.778-2.175.418-3.762-.214-.823,1.823-4.636,2.564-6.682,3.1-.273.072-3.957.071-5.611-1.329-1.931-1.636-3.216-4.028-4.741-6.078a35.393,35.393,0,0,0-6.963-6.519"/><path class="c" d="M57.878,181.087c3.215.363,6.548-.421,9.736-.786,1.669-.19,3.3-.54,4.766.436a34.765,34.765,0,0,0,4.691,2.789c1.867.87,3.76,1.679,5.617,2.568,1,.48,3,.849,3.215,2.132.3,1.742-1.383,1.56-2.477,1.189-1.7-.576-3.666-.756-5.279-1.537-2.307-1.116-4.338,2.332-2.019,3.454,1.713.829,3.543,1.015,5.326,1.614,1.609.541,3.211,1.117,4.909.572a5.422,5.422,0,0,0,1.946-8.931c-1.158-1.082-2.808-1.575-4.221-2.243-1.862-.88-3.762-1.678-5.621-2.564a17.919,17.919,0,0,1-2.415-1.29c-.714-.488-1.367-1.066-2.118-1.5a8.172,8.172,0,0,0-4.975-.839c-3.638.333-7.421,1.348-11.081.935a2.012,2.012,0,0,0-2,2,2.047,2.047,0,0,0,2,2Z"/><path class="c" d="M75.114,190.615c.778,1.037,1.589,2.048,2.406,3.054.342.421.685.842,1.023,1.267.275.347.335.432.668.874.315.418.639.828.962,1.238l.239.3c-.11-.144-.093-.122.052.069.162.217.324.434.478.657.264.383.488.783.72,1.185s-.022-.186.088.2c.041.144.107.777.1.285a2.327,2.327,0,0,1,0,.334q.054-.326.007-.107a2.276,2.276,0,0,1-.068.245q.151-.322,0-.015a3.056,3.056,0,0,1-.178.288q.215-.267-.009-.007c-.129.118-.243.244-.379.355.332-.271-.247.133-.322.174-.1.055-.208.107-.315.155q.275-.115.073-.042c-.192.059-.383.107-.577.158q-.349.061.04,0c-.107.008-.214.011-.321.01,0,0-.679-.055-.318,0a4.559,4.559,0,0,1-.718-.185c.415.134-.1-.073-.2-.119-.069-.04-.135-.083-.2-.128.2.159.209.169.04.028a8.849,8.849,0,0,1-.729-.771c-.063-.078-.126-.157-.188-.237q.237.307.035.043c-.194-.257-.393-.511-.59-.766a2.011,2.011,0,0,0-2.829,0,2.052,2.052,0,0,0,0,2.828c-.212-.273-.052-.065.057.078.181.236.36.473.545.7a7.676,7.676,0,0,0,.7.793,6.145,6.145,0,0,0,2.456,1.459,6.526,6.526,0,0,0,5.64-.931,5.08,5.08,0,0,0,2.17-5.442,8.58,8.58,0,0,0-1.287-2.586c-.279-.4-.579-.79-.878-1.177-.151-.2-.3-.392-.457-.586-.077-.1-.155-.2-.233-.295-.023-.03-.256-.327-.116-.146s-.03-.039-.047-.063c-.069-.094-.139-.188-.209-.281-.224-.3-.453-.595-.683-.891-.344-.443-.7-.88-1.05-1.317-.731-.9-1.518-1.856-2.155-2.706a2.063,2.063,0,0,0-2.736-.718,2.015,2.015,0,0,0-.718,2.737Z"/><path class="c" d="M74.77,202.489c.174.625.091.153.069.181a1.864,1.864,0,0,1-.735.578c.2-.058-.264-.035-.368-.06a12.39,12.39,0,0,1-1.552-.54,2,2,0,0,0-2.258.919c-.838,1.6-3.845,1.467-5.365,2.152-.376.17.516.058.158-.019a2.959,2.959,0,0,0-.507,0,10.294,10.294,0,0,1-1.29-.107,4.612,4.612,0,0,1-2.737-1.2c-2-1.96-3.22-4.569-5.076-6.659a36.578,36.578,0,0,0-6.444-5.71c-2.118-1.472-4.12,1.994-2.018,3.454a28.5,28.5,0,0,1,6.364,5.964c1.985,2.621,3.568,6.114,6.788,7.424a10.668,10.668,0,0,0,6.475.544c2.489-.627,5.8-1.339,7.106-3.826l-2.259.919c1.952.766,3.834,1.095,5.624-.225a4.33,4.33,0,0,0,1.882-4.855c-.688-2.476-4.548-1.425-3.857,1.064Z"/><path class="d" d="M23.177,155.292c3.25,1.7,31.25,19.623,34.642,21.575-3.49,6.431-7.08,12.822-11.089,18.981A275.4,275.4,0,0,1,16.2,178.026c-4.37-3.039-10.291-6.713-13.079-12.365Z"/><path class="c" d="M22.168,157.019c4.193,2.21,8.159,4.961,12.168,7.48,5.733,3.6,11.451,7.231,17.187,10.83,1.753,1.1,3.495,2.229,5.287,3.265l-.717-2.736C52.594,182.3,49,188.687,45,194.839l2.737-.718c-6.109-2.843-11.984-6.293-17.773-9.726-3.674-2.179-7.312-4.424-10.86-6.8a83.487,83.487,0,0,1-9.466-6.918c-2.807-2.524-5.645-5.861-5.7-9.833-.062-4.358,2.222-8.682,3.63-12.706,2.46-7.027,4.874-14.07,7.381-21.081,1.341-3.751,2.658-7.524,4.169-11.211a14.844,14.844,0,0,1,2.261-3.994c.5-.566,1.04-1.1,1.563-1.646a7.744,7.744,0,0,1,.954-.985c.433-.311,1-.477,1.466-.743,2.232-1.283.219-4.74-2.019-3.454a10.734,10.734,0,0,0-2.438,1.513c-.649.64-1.27,1.323-1.895,1.988a15.085,15.085,0,0,0-2.443,3.331,85.256,85.256,0,0,0-4.119,10.376c-2.764,7.593-5.394,15.234-8.048,22.865-1.422,4.09-3.351,8.182-4.138,12.456A15.021,15.021,0,0,0,3.41,169.835c2.685,3.5,6.267,6.119,9.872,8.6,3.5,2.413,7.034,4.767,10.659,7a216.892,216.892,0,0,0,21.78,12.145,2.06,2.06,0,0,0,2.736-.717c3.991-6.152,7.591-12.54,11.089-18.981a2.036,2.036,0,0,0-.717-2.737c-4.17-2.41-8.2-5.093-12.27-7.663-5.713-3.6-11.417-7.221-17.159-10.778-1.718-1.064-3.424-2.191-5.213-3.133-2.276-1.2-4.3,2.252-2.019,3.453Z"/><path class="b" d="M97.6,100.948a3.039,3.039,0,0,1,2.326,1.466l44.718,11.68c1.207-1.655,2.664-3.428,4.7-3.674a3.816,3.816,0,0,1,4.231,4.354,7.082,7.082,0,0,1-1.512,3.04q-.954,1.292-2,2.514a3.375,3.375,0,0,1,2.652,1.416,4.589,4.589,0,0,1,.716,3.021,6.492,6.492,0,0,1-.286,1.42,15.16,15.16,0,0,1-2.269,4.007l-2.174,3.064a6.813,6.813,0,0,1-2.136,2.2,2.774,2.774,0,0,1,1.385,1.23,4.264,4.264,0,0,1,.374,2.193,4.011,4.011,0,0,1-1.275,2.375,40.051,40.051,0,0,1-4.222,3.3,3.707,3.707,0,0,1-3.088.4,3,3,0,0,1-1.017-.726L97.567,118.946c-1.071-2.617-3.025-6.619-4.745-10.008-1.154-2.275-1.13-5.723.948-7.145A5.388,5.388,0,0,1,97.6,100.948Z"/><path class="b" d="M94.513,144.757c1.136-8.225,6.348-46.556,7.5-54.9a1.184,1.184,0,0,1,1.341-1.011c6.687.939,35.018,4.916,42.118,5.914a1.187,1.187,0,0,1,1.013,1.339c-2.2,15.854-5.606,40.393-7.614,54.753a1.187,1.187,0,0,1-1.34,1.015c-7.289-1.011-35.046-4.807-42-5.77A1.186,1.186,0,0,1,94.513,144.757Z"/><path class="c" d="M105.9,117.024c.076-.573.159-1.189.245-1.8a2.237,2.237,0,0,1,2.548-1.9c.923.138,1.972.3,2.892.439a2.235,2.235,0,0,1,1.882,2.521l-.246,1.75a2.235,2.235,0,0,1-2.522,1.9c-.927-.128-1.975-.269-2.889-.4A2.234,2.234,0,0,1,105.9,117.024Z"/><path class="c" d="M146.374,115.105c.878-1.2,2.19-2.987,3.775-2.675a1.791,1.791,0,0,1,1.419,1.4,3.187,3.187,0,0,1-.817,2.382,40.732,40.732,0,0,1-9.654,9.713,2.059,2.059,0,0,0-.718,2.737,2.016,2.016,0,0,0,2.737.717,49,49,0,0,0,7.117-6.247c1.066-1.149,2.062-2.356,3.014-3.6a10.37,10.37,0,0,0,2.23-4.091,5.88,5.88,0,0,0-5.328-7.034c-3.246-.229-5.489,2.294-7.229,4.674a2.015,2.015,0,0,0,.717,2.736,2.046,2.046,0,0,0,2.737-.717Z"/><path class="c" d="M145.558,137.191c.1.048.466.17.512.28q-.271-.227-.1-.085c.057.047.112.1.165.151.148.165.136.141-.038-.072a1.524,1.524,0,0,1,.132.237l-.084-.187c.037.1.071.2.1.305a1.329,1.329,0,0,1,.115.476c-.029-.262-.032-.278-.011-.047.007.107.009.213.006.32.022.453.116-.342-.006.075-.027.093-.212.749-.041.249a2.418,2.418,0,0,1-.213.414c-.052.089-.108.176-.166.261q.217-.266.079-.1c-.154.162-.3.321-.47.468-.28.246-.567.486-.853.726q-.581.487-1.171.963c-.2.158-.4.31-.594.469.489-.4.076-.06-.035.023q-.123.093-.249.183a8.312,8.312,0,0,1-1.127.687c.376-.191-.092.026-.163.049-.107.033-.215.063-.325.088q-.346.066.04.008a1.051,1.051,0,0,1-.495.006c.256.043.269.041.037,0q-.387-.123.107.081a2.056,2.056,0,0,0-2.736.717,2.023,2.023,0,0,0,.717,2.737,5.771,5.771,0,0,0,5.26-.443,19.778,19.778,0,0,0,2.437-1.808q.982-.791,1.937-1.617a5.967,5.967,0,0,0,2.026-4.152,5.086,5.086,0,0,0-2.77-4.911,2.05,2.05,0,0,0-2.737.718,2.024,2.024,0,0,0,.718,2.736Z"/><path class="c" d="M150.265,122.334c-.272-.033.325.122.332.124-.245-.106.339.239.317.222-.166-.13.185.238.09.1-.032-.045.2.309.235.388a3.146,3.146,0,0,1,.128,1.924c-.41,1.834-1.731,3.4-2.8,4.911-.6.846-1.19,1.7-1.8,2.537a5.791,5.791,0,0,1-.692.809,2.159,2.159,0,0,1-.341.282l-.208.12c.12-.042.114-.042-.016,0a1.415,1.415,0,0,1-1.338-.172c-.112-.074-.12-.077-.021-.011l-.166-.162c-.357-.433.038.142-.261-.342a2.3,2.3,0,0,1-.377-.993,2,2,0,0,0-3.857,1.063,5.74,5.74,0,0,0,6.033,4.667c3.135-.331,4.68-3.215,6.33-5.544,1.67-2.358,3.476-4.733,3.6-7.744a6.365,6.365,0,0,0-1.139-3.96,5.572,5.572,0,0,0-4.043-2.224,2.01,2.01,0,0,0-2,2,2.048,2.048,0,0,0,2,2Z"/><path class="c" d="M143.558,131.6c.05-.128.1-.255.155-.381l-.2.477a36.38,36.38,0,0,1,3.054-5.164,2.018,2.018,0,0,0-.718-2.737,2.043,2.043,0,0,0-2.736.718c-.582.909-1.183,1.807-1.755,2.722a20.02,20.02,0,0,0-1.655,3.3,2,2,0,0,0,.2,1.541,2,2,0,0,0,2.737.718,2.314,2.314,0,0,0,.919-1.2Z"/><path class="c" d="M101.653,101.4c-1.3-2.371-4.465-2.929-6.883-2.248a6.319,6.319,0,0,0-4.662,5.67c-.3,2.707.9,4.928,2.066,7.268,1.192,2.4,2.519,5.089,3.464,7.383a2.066,2.066,0,0,0,2.461,1.4,2.012,2.012,0,0,0,1.4-2.46c-.857-2.08-1.807-4.119-2.788-6.142-.929-1.917-2.231-3.839-2.587-5.742a4.736,4.736,0,0,1,.09-2.023,1.671,1.671,0,0,1,.415-.84c-.188.245.213-.189.232-.2-.248.21.337-.2.34-.2a3.252,3.252,0,0,1,2.044-.359q.217.017.006.006c.1.02.206.045.307.075a3.057,3.057,0,0,1,.3.093c-.139-.061-.147-.061-.025,0a2.367,2.367,0,0,1,.249.144q-.193-.166-.041-.028a1.9,1.9,0,0,1,.188.193q-.2-.254-.021.036c1.236,2.259,4.691.243,3.454-2.019Z"/><path class="c" d="M96.442,145.289q2.4-17.415,4.757-34.836,1.167-8.562,2.338-17.123a13.449,13.449,0,0,0,.359-2.606c0-.065.052-.17.031-.228l.008-.055q.106-.6-.993.348c.094.071.4.057.518.073l1.491.209,8.138,1.143,20.916,2.936,8.439,1.185,1.374.193a5.005,5.005,0,0,0,.664.094c.075,0,.2.067.269.037l.191.027-.429-.8c-.275.142-.364,2.623-.414,2.984q-.219,1.572-.437,3.146-1.9,13.716-3.81,27.432-.919,6.609-1.84,13.219l-.8,5.716-.189,1.353a2.875,2.875,0,0,0-.081.584c-1.2-2.133,1.564-.127.852-.42a6.278,6.278,0,0,0-1.4-.194q-18.867-2.6-37.737-5.181l-1.472-.2-.6-.082a1.1,1.1,0,0,0-.337-.046c-.526.179.269-1.042.262.564.01-2.574-3.99-2.578-4,0-.015,3.759,4.556,3.553,7.243,3.922l9.853,1.352q10.961,1.5,21.922,3.008l3.8.523c1.657.229,3.416.674,4.715-.725a4.974,4.974,0,0,0,.965-2.934q.219-1.575.439-3.148l.891-6.388q2.051-14.728,4.095-29.457.924-6.657,1.847-13.314c.164-1.182.4-2.314-.3-3.388a3.369,3.369,0,0,0-2.508-1.453l-3.356-.471-21-2.949-10.463-1.469c-2.4-.336-4.886-.918-7.3-1.022-3.564-.153-3.48,4-3.822,6.5q-.574,4.2-1.148,8.4-2.73,19.992-5.457,39.985-.171,1.249-.343,2.5a2.069,2.069,0,0,0,1.4,2.461A2.015,2.015,0,0,0,96.442,145.289Z"/><path class="c" d="M128.473,120.251c.076-.572.16-1.189.246-1.8a2.237,2.237,0,0,1,2.548-1.9c.922.139,1.972.3,2.892.439a2.235,2.235,0,0,1,1.881,2.522l-.246,1.75a2.236,2.236,0,0,1-2.522,1.9c-.927-.128-1.974-.269-2.889-.395A2.236,2.236,0,0,1,128.473,120.251Z"/><path class="e" d="M136.988,109.037l-.152,1.159a.979.979,0,0,1-1.111.848c-5.531-.764-22.065-2.985-26.925-3.651a.987.987,0,0,1-.848-1.112c.329-2.391.975-7.256,1.137-8.21l7.184.947c7.177,1.007,16.926,2.353,20.658,2.877a.984.984,0,0,1,.844,1.105C137.608,104.281,137.237,107.129,136.988,109.037Z"/><path class="c" d="M135.775,103c-.127,1.2-.271,2.405-.425,3.606q-.108.851-.23,1.7c-.042.291-.08.583-.131.873l-.042.254c-.035.282-.048.311-.037.089l.882-.514q.534.132.123.063l-.273-.038c-.229-.021-.459-.063-.687-.094l-1.333-.182-3.3-.448-7.946-1.075-7.639-1.033-3.222-.436a6.428,6.428,0,0,1-2.265-.364l.717.717q-.133,1.025.006-.026c.015-.11.03-.221.044-.332l.1-.79q.133-1.057.265-2.116a19.95,19.95,0,0,1,.557-3.95l-.514.882v.007l-1.009.273a26.35,26.35,0,0,1,4.646.585q2.93.393,5.861.781c3.556.472,7.113.942,10.665,1.442a2.068,2.068,0,0,0,2.461-1.4,2.016,2.016,0,0,0-1.4-2.461c-6-.845-12.012-1.611-18.017-2.424-1.289-.175-2.651-.5-3.951-.542-1.937-.064-2.623,1.507-2.835,3.112-.162,1.23-.314,2.461-.468,3.691-.148,1.184-.4,2.6-.437,3.429-.125,2.943,2.827,3.111,4.95,3.4q3.145.427,6.292.852,7.062.954,14.122,1.911c2.114.287,5.548,1.429,6.972-.683.811-1.2.785-3.046.97-4.442.189-1.437.365-2.876.517-4.318a2.012,2.012,0,0,0-2-2,2.046,2.046,0,0,0-2,2Z"/><path class="c" d="M117.294,118.68c.077-.572.16-1.189.246-1.8a2.237,2.237,0,0,1,2.548-1.9l2.892.439a2.235,2.235,0,0,1,1.881,2.522l-.246,1.75a2.236,2.236,0,0,1-2.522,1.9c-.927-.128-1.974-.269-2.889-.4A2.236,2.236,0,0,1,117.294,118.68Z"/><path class="c" d="M104.274,127.172c.076-.573.159-1.189.246-1.8a2.236,2.236,0,0,1,2.547-1.9c.923.138,1.972.3,2.893.439a2.234,2.234,0,0,1,1.881,2.522l-.246,1.749a2.235,2.235,0,0,1-2.522,1.9c-.927-.127-1.975-.268-2.889-.4A2.235,2.235,0,0,1,104.274,127.172Z"/><path class="c" d="M126.844,130.4c.076-.572.159-1.189.245-1.8a2.239,2.239,0,0,1,2.548-1.9c.923.139,1.972.3,2.892.44a2.235,2.235,0,0,1,1.882,2.521l-.246,1.75a2.237,2.237,0,0,1-2.522,1.9c-.927-.128-1.975-.269-2.889-.4A2.235,2.235,0,0,1,126.844,130.4Z"/><path class="c" d="M115.665,128.828c.076-.572.159-1.189.245-1.8a2.238,2.238,0,0,1,2.548-1.9c.923.139,1.972.3,2.892.44a2.234,2.234,0,0,1,1.882,2.521l-.246,1.75a2.236,2.236,0,0,1-2.522,1.9c-.927-.128-1.975-.269-2.889-.4A2.235,2.235,0,0,1,115.665,128.828Z"/><path class="c" d="M102.941,137.246c.076-.572.159-1.189.245-1.8a2.237,2.237,0,0,1,2.548-1.9c.923.138,1.972.3,2.892.439a2.235,2.235,0,0,1,1.882,2.522l-.246,1.749a2.235,2.235,0,0,1-2.522,1.9c-.927-.127-1.975-.268-2.889-.395A2.234,2.234,0,0,1,102.941,137.246Z"/><path class="c" d="M125.51,140.473c.077-.572.16-1.189.246-1.8a2.238,2.238,0,0,1,2.548-1.9c.922.139,1.972.3,2.892.44a2.234,2.234,0,0,1,1.881,2.521l-.246,1.75a2.236,2.236,0,0,1-2.522,1.9c-.927-.128-1.974-.269-2.889-.395A2.236,2.236,0,0,1,125.51,140.473Z"/><path class="c" d="M114.331,138.9c.077-.572.16-1.189.246-1.8a2.238,2.238,0,0,1,2.548-1.9c.922.139,1.972.3,2.892.44a2.234,2.234,0,0,1,1.881,2.521l-.245,1.75a2.237,2.237,0,0,1-2.523,1.9c-.927-.128-1.974-.269-2.889-.4A2.236,2.236,0,0,1,114.331,138.9Z"/><path class="c" d="M80.142,60.84c4.526.131,9.534-.116,12.282-4.28,2.087-3.164,2.381-8.47-.588-11.209-.851-.786-2.432-1.033-3.534-1.292a29.7,29.7,0,0,0-3.785-.615,25.716,25.716,0,0,0-7.31.339c-2.134.4-4.518.887-5.743,2.853a8.532,8.532,0,0,0-1.12,5.122,10.285,10.285,0,0,0,3.1,6.654,10.665,10.665,0,0,0,6.7,2.428c2.574.111,2.568-3.889,0-4A5.627,5.627,0,0,1,75.019,53.9a5.765,5.765,0,0,1-.217-5.044c.168-.289.1-.254.409-.414a9.365,9.365,0,0,1,2.03-.581,20.514,20.514,0,0,1,4.318-.534,23.906,23.906,0,0,1,8.331,1.371l-.882-.514c1.615,1.691,1.184,4.812-.182,6.571-1.959,2.52-5.864,2.171-8.684,2.089C77.567,56.765,77.569,60.765,80.142,60.84Z"/><path class="c" d="M48.069,48.694a23.32,23.32,0,0,1,10.768-1.2,20.743,20.743,0,0,1,2.563.532c.583.157,1.456.316,1.687.662-.143-.215.26.535.152.293a4.755,4.755,0,0,1,.223.671,5.051,5.051,0,0,1,.189,1.519A6.586,6.586,0,0,1,62.258,55a5.536,5.536,0,0,1-3.568,1.772,21.879,21.879,0,0,1-4.96.04,6.863,6.863,0,0,1-4.061-1.5c-1.827-1.684-2.5-5.267-.718-7.135s-1.046-4.695-2.828-2.829c-2.81,2.944-2.78,7.886-.588,11.209C48.2,60.6,53.059,60.988,57.48,60.85a11.352,11.352,0,0,0,6.08-1.7,9.665,9.665,0,0,0,3.7-5.395,9.5,9.5,0,0,0-.026-5.435,6.683,6.683,0,0,0-1.322-2.455,5.7,5.7,0,0,0-2.776-1.5,26.366,26.366,0,0,0-16.135.472,2.049,2.049,0,0,0-1.4,2.46,2.02,2.02,0,0,0,2.461,1.4Z"/><path class="c" d="M67.358,52.426c.045-.023.091-.044.138-.065l-.478.2a4.816,4.816,0,0,1,1.189-.3l-.532.072a9.855,9.855,0,0,1,2.545,0l-.531-.071a5.617,5.617,0,0,1,1.394.341l-.478-.2.048.02a2.188,2.188,0,0,0,1.541.2,2,2,0,0,0,1.4-2.461,1.934,1.934,0,0,0-.919-1.2,6.964,6.964,0,0,0-1.678-.528,13.114,13.114,0,0,0-2.017-.19,7.987,7.987,0,0,0-3.638.718,2.022,2.022,0,0,0-.919,1.2,2,2,0,0,0,2.938,2.259Z"/><path class="c" d="M94.409,51.035l.133-.058-.477.2a12.352,12.352,0,0,1,2.446-.773,1.5,1.5,0,0,0,.68-.358,1.511,1.511,0,0,0,.515-.561,1.486,1.486,0,0,0,.237-.743,1.515,1.515,0,0,0-.035-.8,2.025,2.025,0,0,0-.919-1.2l-.478-.2a2.022,2.022,0,0,0-1.064,0,14.118,14.118,0,0,0-3.057,1.033,1.928,1.928,0,0,0-.955,1.993,1.486,1.486,0,0,0,.237.743,2.027,2.027,0,0,0,1.2.92l.531.071a1.991,1.991,0,0,0,1.01-.273Z"/><path class="c" d="M45.268,47.581a14.144,14.144,0,0,0-3.058-1.033,1.512,1.512,0,0,0-.8-.035,1.492,1.492,0,0,0-.744.237,2.238,2.238,0,0,0-.919,1.2,2.022,2.022,0,0,0,.2,1.541,1.967,1.967,0,0,0,1.2.919,12.352,12.352,0,0,1,2.446.773l-.478-.2.134.058a1.486,1.486,0,0,0,.744.237,2.05,2.05,0,0,0,1.992-.955,2.017,2.017,0,0,0,.2-1.541l-.2-.477a2.014,2.014,0,0,0-.717-.718Z"/><path class="c" d="M63.36,71.868a12.073,12.073,0,0,0,5.817,1.357,9.587,9.587,0,0,0,5.982-1.811,2.005,2.005,0,0,0,0-2.829,2.064,2.064,0,0,0-2.829,0c.691-.538-.024-.012-.243.1-.169.088-.621.229.009.015-.158.054-.312.121-.472.172-.424.136-.91.15-1.32.3.21-.077.323-.039.023-.009-.129.013-.259.024-.389.032-.312.02-.625.028-.938.026q-.422,0-.841-.03c-.128-.009-.257-.019-.385-.032q-.11-.01-.219-.024-.236-.028.183.024c-.047.05-.554-.1-.632-.118-.2-.045-.4-.1-.6-.156-.173-.051-.341-.113-.512-.172-.449-.153.421.2.014.01q-.316-.15-.627-.313a2,2,0,0,0-2.019,3.454Z"/><path class="c" d="M67.9,58.5a25.943,25.943,0,0,1,.611,2.8l-.071-.532a1.72,1.72,0,0,1,.01.386l.072-.531a.931.931,0,0,1-.043.173l.2-.478a.756.756,0,0,1-.061.112l.312-.405a.553.553,0,0,1-.091.09l.405-.313a1.811,1.811,0,0,1-.222.118l.478-.2a1.628,1.628,0,0,1-.373.109l.532-.072a1.526,1.526,0,0,1-.351,0l.532.071c-.132-.018-.262-.05-.394-.068a1.523,1.523,0,0,0-.8-.036,1.48,1.48,0,0,0-.744.238,2,2,0,0,0-.717,2.736,1.913,1.913,0,0,0,1.195.919c.351.047.691.135,1.049.151a3.452,3.452,0,0,0,1.609-.392,2.449,2.449,0,0,0,1.32-1.6,3.772,3.772,0,0,0-.014-1.658c-.152-.9-.36-1.794-.592-2.677a2,2,0,0,0-2.46-1.4,2.025,2.025,0,0,0-1.2.919,2.1,2.1,0,0,0-.2,1.541Z"/><path class="c" d="M53.669,50.43c-.467,1.517-.163,5.007,2.711,5.3,3.8-.023,4-4.242,2.722-6.226C58.055,47.883,54.977,47.208,53.669,50.43Z"/><path class="c" d="M84.089,50.43c.467,1.517.163,5.007-2.711,5.3-3.8-.023-4-4.242-2.722-6.226C79.7,47.883,82.781,47.208,84.089,50.43Z"/><path class="c" d="M45.667,81.134a19.884,19.884,0,0,1-11.529-4.266,34.57,34.57,0,0,1-4.358-4.214c-.875-.985-2.718-2.778-2.479-3.971-.047.238.155-.336.143-.309a7.6,7.6,0,0,1,.5-.849c.537-.843,1.119-1.653,1.625-2.516a19.544,19.544,0,0,0,2.261-6.184c.987-5.038.926-10.24,1.178-15.348.459-9.277,1.271-18.7,7.126-26.308A34.3,34.3,0,0,1,59.214,5.105a38.1,38.1,0,0,1,29.552,4.7c2.165,1.406,4.172-2.055,2.019-3.454-15.8-10.263-39.01-7.986-51.865,6.08a34.786,34.786,0,0,0-6.876,11.2c-1.891,5-2.42,10.485-2.8,15.784-.4,5.562-.219,11.229-1,16.755a18.364,18.364,0,0,1-2.129,6.818c-.9,1.54-2.233,2.983-2.674,4.752-.606,2.431.871,4.575,2.331,6.365a38.435,38.435,0,0,0,5.014,5.158,24.457,24.457,0,0,0,14.883,5.869c2.574.116,2.568-3.884,0-4Z"/></svg>