<?xml version="1.0" encoding="utf-8"?>
<!-- Uploaded to: SVG Repo, www.svgrepo.com, Generator: SVG Repo Mixer Tools -->
<svg width="800px" height="800px" viewBox="-168.28 0 471.477 471.477" xmlns="http://www.w3.org/2000/svg"><defs><style>.a{fill:#ffffff;}.b{fill:#211715;}.c{fill:#645d5c;}.d{fill:#6dbf6b;}.e{fill:#5394cf;}.f{fill:#957f6e;}</style></defs><path class="a" d="M41.621,434.611a4.156,4.156,0,0,0,1.13,1.031,8.367,8.367,0,0,0,4.278.966,23.915,23.915,0,0,0,15.02-5.186c-.006-.922-.011-1.845-.016-2.743a141.758,141.758,0,0,1-19.538.853,29.851,29.851,0,0,1-1.372,4.209A3.81,3.81,0,0,0,41.621,434.611Z"/><path class="a" d="M74.357,431.922c-.222-.164-.437-.331-.647-.5.009-.922.013-1.843.017-2.735a168.78,168.78,0,0,0,19.512.718,29.155,29.155,0,0,0,1.4,4.335,4.093,4.093,0,0,1-1.628,1.9,8.365,8.365,0,0,1-4.278.966A23.918,23.918,0,0,1,74.357,431.922Z"/><path class="a" d="M97.707,51.472a4.556,4.556,0,0,1,3.644-1.066,4.3,4.3,0,0,1,3.093,2.056,6.076,6.076,0,0,1,.636,2.446,18.218,18.218,0,0,1-1.858,9.658,11.581,11.581,0,0,1-2.994,3.93,7.683,7.683,0,0,1-3.571,1.61l-.611.094c-.293,1.1-.622,2.02-.784,2.511C94.276,75.386,89,84.3,82.208,88.258a48.715,48.715,0,0,0,.771,8.472c.437,2.491.3,4.718,3.764,5.968.229.083,2.154.843,2.672,1.071,0,0-1.487,16.99-23.857,16.99-22.667,0-20.952-17.194-20.952-17.194.425-.182,1.862-.784,2.091-.867,3.464-1.25,3.327-3.477,3.764-5.968a47.946,47.946,0,0,0,.764-9.054A28.625,28.625,0,0,1,44.7,81.811,30.993,30.993,0,0,1,38.8,70.283l-1.163-.177a7.683,7.683,0,0,1-3.571-1.61,11.581,11.581,0,0,1-2.994-3.93,18.218,18.218,0,0,1-1.858-9.658,6.076,6.076,0,0,1,.636-2.446,4.3,4.3,0,0,1,3.092-2.056,4.557,4.557,0,0,1,3.645,1.066S34.891,26.092,66,26.092,97.707,51.472,97.707,51.472Z"/><path class="b" d="M41.367,422.49a28.7,28.7,0,0,1-3.185,12.921,2.045,2.045,0,0,0,.718,2.736,2.02,2.02,0,0,0,2.736-.717,33.17,33.17,0,0,0,3.731-14.94,2,2,0,0,0-4,0Z"/><path class="b" d="M60,423.53l.085,12.46a2,2,0,0,0,4,0L64,423.53a2,2,0,1,0-4,0Z"/><path class="b" d="M90.392,422.49a33.156,33.156,0,0,0,3.73,14.94,2,2,0,0,0,3.454-2.019,28.71,28.71,0,0,1-3.184-12.921,2,2,0,0,0-4,0Z"/><path class="b" d="M71.757,423.53l-.086,12.46a2,2,0,0,0,4,0l.086-12.46a2,2,0,0,0-4,0Z"/><path class="a" d="M67.663,427.807c9.392,1.953,31.385,2.187,36.318.542.445-7.365,1.259-80.473,3.245-113.471,1.673-27.779,2.989-61.109,4.62-78.507-19.2-.293-69.636-.6-88.785-.916,1.65,17.269,3.488,51.4,5.174,79.423,1.987,33,2.8,106.106,3.246,113.471,4.932,1.645,24.115,1.761,35.556-.426"/><path class="b" d="M21.061,235.455c1.435,15.085,2.256,30.235,3.161,45.358.909,15.208,1.938,30.417,2.6,45.638.569,13.1.932,26.209,1.256,39.318q.477,19.254.83,38.512c.152,7.68.215,15.37.524,23.046.014.341.028.681.049,1.022a2.074,2.074,0,0,0,1.468,1.928,28.761,28.761,0,0,0,6.559,1.007c3.1.241,6.206.306,9.31.289a115.96,115.96,0,0,0,20.751-1.721c2.527-.476,1.457-4.332-1.063-3.858a110.015,110.015,0,0,1-19.688,1.579c-3.011.017-6.027-.045-9.031-.268a22.976,22.976,0,0,1-5.775-.885l1.469,1.929c-.4-6.678-.361-13.4-.494-20.087q-.373-18.781-.79-37.564c-.315-13.344-.669-26.688-1.2-40.025-.573-14.413-1.53-28.809-2.38-43.207-.942-15.95-1.824-31.914-3.181-47.836q-.177-2.088-.375-4.175a2.056,2.056,0,0,0-2-2,2.014,2.014,0,0,0-2,2Z"/><path class="b" d="M109.888,235.923c-1.441,15.163-2.061,30.414-2.85,45.621-.784,15.107-1.765,30.207-2.416,45.32-.563,13.073-.925,26.154-1.247,39.234q-.472,19.156-.824,38.315c-.151,7.636-.214,15.282-.521,22.914-.014.341-.029.681-.049,1.022l1.468-1.929a12.95,12.95,0,0,1-1.907.429c-.632.1-1.358.179-2.307.26-2.358.2-4.726.283-7.091.317a164.564,164.564,0,0,1-16.543-.562,64.473,64.473,0,0,1-7.407-.985c-2.512-.514-3.587,3.341-1.063,3.857a96.6,96.6,0,0,0,15.388,1.557,138.076,138.076,0,0,0,16.109-.135,25.622,25.622,0,0,0,5.885-.881,2.073,2.073,0,0,0,1.468-1.928c.394-6.637.359-13.318.491-19.963q.369-18.6.781-37.2c.313-13.316.664-26.631,1.188-39.94.565-14.341,1.5-28.665,2.249-43,.834-16.034,1.518-32.093,2.826-48.1q.172-2.118.372-4.233a2.014,2.014,0,0,0-2-2,2.044,2.044,0,0,0-2,2Z"/><path class="b" d="M65.879,284.238c-.537,5.888-.468,11.849-.464,17.755,0,7.105.111,14.209.177,21.314.074,8.029.021,16.06,0,24.09q-.033,16.512-.062,33.024-.024,15.762-.013,31.524.007,5.4.038,10.792c.012,1.634-.053,3.3.083,4.931a2.289,2.289,0,0,0,1.011,1.866,2.012,2.012,0,0,0,2.737-.717,2.052,2.052,0,0,0-.718-2.737h0l.718.717c.118.22.245,1.377.242.66,0-.266-.018-.533-.024-.8-.021-.935-.029-1.87-.038-2.805-.029-3.287-.037-6.575-.044-9.863q-.03-15.25.006-30.5.023-16.613.061-33.227c.015-7.719.065-15.439.029-23.158-.063-13.175-.6-26.4.037-39.565.053-1.1.122-2.2.222-3.3a2.015,2.015,0,0,0-2-2,2.043,2.043,0,0,0-2,2Z"/><path class="c" d="M20.762,465.011q-.174-.227-.329-.47a8.808,8.808,0,0,1-.582-7.379,24.157,24.157,0,0,1,3.787-6.608q5.481-7.486,11.587-14.49c1.587-1.82,3.38-3.717,5.753-4.164a3.569,3.569,0,0,0,1.773,3.742,8.367,8.367,0,0,0,4.278.966,23.746,23.746,0,0,0,16.62-6.614c-.028,5,.022,6.663,0,11.664a10.48,10.48,0,0,1-.438,3.607c-1.028,2.78-4.076,4.119-6.521,5.792-6.364,4.355-9.715,12.3-16.383,16.171a17.217,17.217,0,0,1-15.914.57A10.035,10.035,0,0,1,20.762,465.011Z"/><path class="c" d="M115,465.011q.174-.227.329-.47a8.8,8.8,0,0,0,.583-7.379,24.183,24.183,0,0,0-3.787-6.608q-5.483-7.486-11.588-14.49c-1.587-1.82-3.38-3.717-5.752-4.164a3.57,3.57,0,0,1-1.774,3.742,8.365,8.365,0,0,1-4.278.966,23.741,23.741,0,0,1-16.619-6.614c.027,5-.023,6.663,0,11.664a10.48,10.48,0,0,0,.438,3.607c1.028,2.78,4.076,4.119,6.522,5.792,6.363,4.355,9.714,12.3,16.382,16.171a17.217,17.217,0,0,0,15.914.57A10.026,10.026,0,0,0,115,465.011Z"/><path class="b" d="M22.489,464c-1.764-2.411-1.3-5.449-.01-7.976a55.593,55.593,0,0,1,5.739-8.271q3.172-4.14,6.559-8.113c1.828-2.152,3.807-5.161,6.732-5.814l-2.46-2.46a5.829,5.829,0,0,0,3.884,6.568c2.632,1.032,5.78.761,8.51.323a25.448,25.448,0,0,0,13.62-6.851l-3.414-1.414c-.022,4.261.164,8.553-.021,12.81-.093,2.138-1.179,3.407-2.893,4.565a57.657,57.657,0,0,0-5.2,3.609c-6.048,5.129-9.634,13.857-17.855,16-4.468,1.166-10.438.409-13.5-3.383a2.012,2.012,0,0,0-2.828,0,2.048,2.048,0,0,0,0,2.829c3.11,3.849,8.921,5.341,13.677,5.006a20.356,20.356,0,0,0,12.98-6.145c3.2-3.156,5.677-6.959,8.876-10.118a31.092,31.092,0,0,1,5.264-3.947A11.8,11.8,0,0,0,64.8,446.6c1.259-2.721.856-6.042.849-8.965-.006-2.547-.017-5.1,0-7.642a2.023,2.023,0,0,0-3.415-1.414,21.43,21.43,0,0,1-9.4,5.292,20.492,20.492,0,0,1-6.214.725c-1.137-.045-4.06-.4-3.718-2.165a2.028,2.028,0,0,0-2.46-2.461c-3.578.8-5.931,3.834-8.189,6.481q-4.027,4.721-7.782,9.662c-4.04,5.3-10.39,13.142-5.44,19.907a2.06,2.06,0,0,0,2.737.717A2.016,2.016,0,0,0,22.489,464Z"/><path class="b" d="M116.723,466.021c4.95-6.764-1.4-14.611-5.439-19.907q-3.764-4.932-7.783-9.662c-2.258-2.648-4.61-5.683-8.189-6.481a2.028,2.028,0,0,0-2.46,2.461c.343,1.766-2.586,2.12-3.718,2.165a20.465,20.465,0,0,1-6.214-.725,21.435,21.435,0,0,1-9.4-5.292,2.022,2.022,0,0,0-3.414,1.414c.011,2.268.006,4.537,0,6.8a48.186,48.186,0,0,0,.189,7.676c.812,5.082,5.969,6.587,9.377,9.57,3.39,2.968,5.9,6.764,8.938,10.058,3.234,3.5,7.2,6.272,11.985,7.07,5.371.894,12.207-.283,15.813-4.747a2.06,2.06,0,0,0,0-2.829,2.015,2.015,0,0,0-2.828,0c-2.682,3.32-7.738,4.32-11.787,3.739-4.287-.615-7.625-3.079-10.479-6.2-2.743-3-5.056-6.374-8-9.183a30.4,30.4,0,0,0-4.907-3.7c-1.436-.9-3.228-1.88-3.928-3.522a11.011,11.011,0,0,1-.371-4.221q0-1.774,0-3.548c.008-2.324.015-4.647,0-6.97l-3.415,1.414a25.448,25.448,0,0,0,13.62,6.851c2.665.427,5.737.7,8.324-.252a5.866,5.866,0,0,0,4.07-6.639l-2.46,2.46c2.862.639,4.786,3.527,6.578,5.633q3.458,4.063,6.714,8.294a57.644,57.644,0,0,1,5.642,8.083c1.343,2.571,1.9,5.682.086,8.164a2.014,2.014,0,0,0,.718,2.736A2.046,2.046,0,0,0,116.723,466.021Z"/><path class="b" d="M49.228,88.986a45.417,45.417,0,0,1-.431,5.562c-.2,1.372-.359,2.8-.7,4.153-.032.125-.065.25-.1.373-.018.056-.159.47-.055.193s-.061.123-.09.178c-.073.139-.158.265-.24.4.141-.229.108-.117-.04.035-.1.1-.2.2-.3.3-.333.316.25-.1-.187.129-.15.08-.292.176-.443.255-.337.175-.756.321-1.218.513q-.915.378-1.826.767a2.011,2.011,0,0,0-.717,2.736,2.053,2.053,0,0,0,2.736.718c.251-.107.161-.068-.039.015l.446-.186q.435-.183.873-.362a14.973,14.973,0,0,0,2.038-.9,6.467,6.467,0,0,0,2.944-3.8,31.27,31.27,0,0,0,.755-4.314,53.6,53.6,0,0,0,.595-6.763,2,2,0,0,0-4,0Z"/><path class="b" d="M80.212,88.986a53.675,53.675,0,0,0,.651,7.135,22.97,22.97,0,0,0,.82,4.307,6.485,6.485,0,0,0,3.391,3.728c.614.29,1.259.515,1.891.764q.483.191.966.385c.151.061.3.124.455.184.486.195-.238-.105.02.007a2.066,2.066,0,0,0,2.736-.717,2.015,2.015,0,0,0-.718-2.737c-1.038-.45-2.091-.872-3.15-1.272a5.33,5.33,0,0,1-.833-.415c-.11-.064-.368-.246-.137-.066a3.628,3.628,0,0,1-.382-.351c-.04-.041-.318-.395-.156-.17s-.115-.206-.143-.255c-.061-.112-.118-.227-.17-.343.206.456.015-.012-.012-.1a28.19,28.19,0,0,1-.721-4.017,45.721,45.721,0,0,1-.508-6.071,2,2,0,0,0-4,0Z"/><path class="d" d="M4.926,141.053c.841-5.894,1.754-11.994,4.816-16.975C12.6,119.427,17.07,116.2,21.62,113.5a93.062,93.062,0,0,1,20.249-8.962l2.544-.778-.09-1.465c-.045-.736,3.133-6.592,4.164-9.253.069-.177.16-.376.342-.43.2-.059.4.085.554.221,1.762,1.513,11.437,9.395,12.475,10.666.357,1.2.974,2.79,2.011,6.049.837,1.984,2.339,5.681,3.144,7.415,1.157-2.425,2.664-6,3.86-8.885.578-1.76,1.043-3.731,1.3-4.579,1.038-1.271,10.713-9.153,12.475-10.666.158-.136.355-.28.554-.221.182.054.273.253.342.43,1.031,2.661,4.208,8.517,4.163,9.253l-.076,1.253,3.235.99A93.04,93.04,0,0,1,113.11,113.5c4.55,2.7,9.019,5.923,11.878,10.574,3.062,4.981,3.975,11.081,4.816,16.975"/><path class="b" d="M68.74,115.957a75.172,75.172,0,0,1-3.28-7.982c-.414-1.273-.855-2.536-1.284-3.8A5.829,5.829,0,0,0,63,101.8c-2.888-3.014-6.407-5.552-9.614-8.213-1.34-1.112-3.446-3.592-5.331-2.8-1.335.561-1.664,2.158-2.2,3.318-.555,1.189-1.137,2.366-1.709,3.547-.708,1.461-2.217,3.623-1.707,5.329a24.461,24.461,0,0,0,2.932,5.323q1.307,2.127,2.71,4.194a19.794,19.794,0,0,0,2.81,3.717,2.691,2.691,0,0,0,3.059.326,5.3,5.3,0,0,0,1.79-2.5q1.406-2.745,2.847-5.471c1.2-2.273-2.248-4.3-3.454-2.019q-.934,1.765-1.852,3.537-.407.786-.81,1.573-.187.364-.373.729c-.009.016-.516.862-.285.756l1.01-.273.013,0,.883.514a13.338,13.338,0,0,1-2.09-2.769q-1.14-1.662-2.207-3.371c-1.077-1.714-2.12-3.45-3.064-5.241-.053-.1-.095-.2-.148-.3-.187-.346.106.425.064.15.106.691-.124,1.133.141.37.008-.023.213-.514.08-.2.089-.21.186-.418.282-.625.226-.49.46-.977.695-1.464.528-1.094,1.067-2.184,1.588-3.282.221-.466.44-.935.651-1.406.121-.271.237-.543.353-.815.064-.151.128-.3.191-.454q.174-.436-.011.051l-1.414.586.293.037-1.01-.273c-.182-.128.234.191.3.243q.271.228.544.455.758.633,1.518,1.262Q52.477,98,54.478,99.675a47.8,47.8,0,0,1,5.966,5.242l-.515-.882a109.181,109.181,0,0,0,5.357,13.941,2.015,2.015,0,0,0,2.736.718,2.047,2.047,0,0,0,.718-2.737Z"/><path class="e" d="M113.549,230.57c-.44,20.519,7.746,106.152,7.727,126.451-13.237,1.442-91.9,1.442-106.484-.657,0-19.984,6.561-104.275,6.12-124.794l2.518-91.315c-.729-10.682-.618-19.084-.406-28.061a3.494,3.494,0,0,1,.362-1.776,3.528,3.528,0,0,1,1.71-1.2c5.508-2.4,7.828-3.855,13.494-5.966,1.434,6.082,4.47,22.491,5.045,23.319.888,1.28,33.672,1.208,47.679,0,.575-.828,4.7-16.529,5.65-23.093,5.667,2.111,7.379,3.422,12.887,5.822a2.64,2.64,0,0,1,2.072,2.977c.211,8.977.325,17.3-.4,27.979Z"/><path class="b" d="M75.44,108.567q1.541,2.909,3.035,5.839a4.341,4.341,0,0,0,1.72,2.191,2.729,2.729,0,0,0,3.242-.671,30.432,30.432,0,0,0,3.082-4.278q1.452-2.178,2.795-4.427c.99-1.652,2.85-3.916,2.193-5.953-.905-2.806-2.569-5.411-3.764-8.1a5.3,5.3,0,0,0-1.025-1.882,2.442,2.442,0,0,0-3.287-.02c-.71.55-1.385,1.151-2.077,1.725-2.164,1.8-4.333,3.59-6.479,5.408-.972.824-1.942,1.649-2.889,2.5a5.407,5.407,0,0,0-1.778,2.18c-.613,1.86-.967,3.763-1.726,5.58-.814,1.951-1.64,3.9-2.512,5.824a7.633,7.633,0,0,0-.957,3.309v9.687c0,2.574,4,2.578,4,0V116.967l-.273,1.009c1.106-2.336,2.114-4.718,3.116-7.1a60.346,60.346,0,0,0,2.241-6.841l-.515.882a47.8,47.8,0,0,1,5.966-5.242q1.953-1.635,3.915-3.259.755-.624,1.506-1.251l.635-.53c.081-.067.482-.376.31-.255l-1.01.273.293-.037-1.414-.586c-.108-.282-.123-.328-.047-.138s.162.391.246.586c.1.237.2.474.307.709.22.5.45.985.682,1.475.524,1.1,1.065,2.2,1.6,3.3.226.469.451.937.669,1.409.185.4.308.67.358.811.262.739.053.459.157-.322-.036.268.2-.416.079-.184-.062.124-.118.251-.183.373-.96,1.784-1.991,3.524-3.069,5.239q-1.02,1.623-2.1,3.208a13.847,13.847,0,0,1-2.173,2.891l.882-.514.014,0,1.01.273c.308.142-.135-.464-.188-.568l-.377-.736q-.45-.877-.9-1.754-.916-1.773-1.852-3.537c-1.205-2.275-4.659-.256-3.454,2.019Z"/><path class="b" d="M111.549,230.57c.39,15.731,1.749,31.462,2.86,47.154,1.371,19.365,2.835,38.727,3.981,58.107.417,7.05.888,14.124.886,21.19l2-2c-4.7.506-9.473.553-14.2.673-7.775.2-15.553.278-23.33.316-17.061.085-34.136.007-51.19-.552-3.546-.116-7.092-.255-10.634-.467-1.346-.081-2.691-.172-4.034-.288-.547-.048-1.093-.1-1.639-.159-.222-.024-.444-.05-.666-.076-.1-.012-.207-.026-.31-.039-.365-.043.565.08.048.006l1.468,1.929c.007-14.924,1.017-29.881,1.782-44.779.995-19.361,2.095-38.717,3.17-58.075.406-7.312.825-14.625,1.168-21.94.121-2.574-3.879-2.568-4,0-.721,15.356-1.66,30.7-2.511,46.053-1.065,19.236-2.136,38.472-2.966,57.72-.3,7-.64,14.012-.643,21.021a2.013,2.013,0,0,0,1.468,1.928,148.774,148.774,0,0,0,15.36,1.063c7.882.3,15.77.445,23.657.544,17.049.215,34.109.227,51.155-.143,5.6-.122,11.268-.135,16.844-.735a2.048,2.048,0,0,0,2-2c0-6.08-.371-12.166-.715-18.234-.506-8.951-1.11-17.9-1.729-26.84-1.352-19.563-2.836-39.118-4.1-58.687-.486-7.555-1-15.12-1.186-22.69-.063-2.57-4.064-2.58-4,0Z"/><path class="a" d="M98.5,143.816c-1.1,0-19.214.194-20.89.194,0,1.859.211,9.226.211,10.952,6.6.035,18,.141,20.68.126C98.587,152.563,98.51,144.879,98.5,143.816Z"/><path class="b" d="M98.5,141.816c-5.908.007-11.816.116-17.724.169-1.055.01-2.11.024-3.166.025a2.028,2.028,0,0,0-2,2c.008,3.651.2,7.3.211,10.952a2.032,2.032,0,0,0,2,2c6.893.037,13.787.159,20.68.126a2.038,2.038,0,0,0,2-2c.125-3.752.046-7.519,0-11.272-.033-2.572-4.033-2.579-4,0,.047,3.753.126,7.52,0,11.272l2-2c-6.893.033-13.787-.089-20.68-.126l2,2c-.008-3.652-.2-7.3-.211-10.952l-2,2c6.006,0,12.014-.112,18.02-.17.956-.009,1.913-.023,2.87-.024C101.07,145.813,101.074,141.813,98.5,141.816Z"/><path class="a" d="M92.613,248.151q-1.05,1.657-2.257,3.218a81.871,81.871,0,0,1-5.683,7.066c-3.821,4.063-8.189,8.075-9.837,9.447a18.826,18.826,0,0,1-3.71,2.377c-1.851.865-4.531-1.011-4.194-1.942-.784.873-4.134,1.4-5.778.556-2.083-1.07-1.016-3.7-1-3.778-1.345.788-2.9-.063-3.889-.778s-1.759-2.189-.667-4.889c.432-1.066,3.767-3.706,4.337-4.33.777-.849,2.369-2.438,4.144-4.151l-1.817-3.1a6.048,6.048,0,0,1,1.756-5.185c1.37-1.5,4.219-4.041,6.167-4.592A69.243,69.243,0,0,0,79,235.444l1.306-.756,14,10.889Z"/><path class="a" d="M52.9,234.836a19.017,19.017,0,0,0,6.227,2.329c2.724.7,4.983,1.1,6.217,3.449,0,0,2.23,3.386-.3,10.222-5.037,13.629-13.356,8.459-13.356,8.459-2.465-1.541-4.2-3.867-5.883-6.139a55.586,55.586,0,0,1-4.972-7.544"/><path class="b" d="M78.464,233.516a46.7,46.7,0,0,1-6.549,2.026,15.051,15.051,0,0,0-5.553,2.372c-3.4,2.524-6.83,5.85-6.029,10.468a2.017,2.017,0,0,0,2.46,1.4,2.044,2.044,0,0,0,1.4-2.46c-.239-1.38.67-2.651,1.558-3.575a20.517,20.517,0,0,1,3.416-2.927,10.957,10.957,0,0,1,.961-.572c.042-.022.509-.235.309-.155s.241-.074.283-.087c.981-.3,1.99-.534,2.985-.79a41.3,41.3,0,0,0,5.826-1.84,2.07,2.07,0,0,0,1.4-2.461,2.012,2.012,0,0,0-2.461-1.4Z"/><path class="b" d="M68.672,243.958c-4.03,3.516-7.611,7.509-11.607,11.043-2.323,2.054-4.394,4.215-3.926,7.61.5,3.6,4.826,5.723,8.024,4.211l-2.938-2.259c-.7,2.241-.324,4.825,1.92,6.037,2.3,1.241,6.264.967,8.2-.868L65,267.786c-.653,3.375,3.929,5.416,6.655,4.4,2.914-1.084,5.316-3.459,7.557-5.538A91.818,91.818,0,0,0,94.34,249.16c1.394-2.173-2.066-4.181-3.454-2.019A80.83,80.83,0,0,1,79.059,261.28c-1.781,1.734-3.58,3.478-5.493,5.068a10.393,10.393,0,0,1-3.183,2.056,1.316,1.316,0,0,1-.9-.033c-.176-.063-.366-.258-.548-.3l-.182-.173a1.063,1.063,0,0,1,.106.952,2.016,2.016,0,0,0-3.342-1.946c.217-.206-.215.088-.319.125a4.806,4.806,0,0,1-1,.229,4.433,4.433,0,0,1-2.039-.111c-.63-.242-.264-.935-.08-1.519.565-1.8-1.461-2.957-2.938-2.259-.622.294-1.87-.689-2-1.033a2.2,2.2,0,0,1-.017-1.125,2.967,2.967,0,0,1,.414-1.132c1.165-1.407,2.723-2.44,3.982-3.755,3.176-3.316,6.515-6.517,9.975-9.536,1.943-1.7-.895-4.515-2.828-2.829Z"/><path class="b" d="M71.417,249.569c-2.611,2.705-5.051,5.569-7.719,8.224a27.3,27.3,0,0,1-2.09,1.933,2.005,2.005,0,0,0,0,2.828,2.056,2.056,0,0,0,2.828,0,43.425,43.425,0,0,0,4.066-3.96c1.472-1.546,2.914-3.12,4.355-4.694.46-.5.915-1.012,1.389-1.5a2,2,0,0,0-2.829-2.828Z"/><path class="b" d="M76.044,253.416c-.122.167.411-.508.151-.2-.076.091-.15.183-.226.273-.2.24-.411.477-.619.712q-.883,1-1.794,1.968c-1.442,1.55-2.911,3.078-4.436,4.546-.69.665-1.391,1.325-2.139,1.925a2,2,0,0,0,0,2.828,2.06,2.06,0,0,0,2.829,0,47.39,47.39,0,0,0,4.145-3.922c1.4-1.434,2.779-2.895,4.113-4.393.5-.557.989-1.118,1.429-1.721a2.006,2.006,0,0,0-.717-2.736,2.056,2.056,0,0,0-2.736.717Z"/><path class="b" d="M51.885,236.563a26.052,26.052,0,0,0,6.982,2.6c.558.141,1.117.277,1.67.433.273.077.545.158.814.248.129.044.258.092.387.139.1.037.42.214.042.013.231.122.468.227.693.363.088.054.172.112.259.168.408.26-.266-.271.084.068.171.165.327.347.5.511.145.14-.139-.253.034.062.084.153.182.3.266.454a2.019,2.019,0,0,0,2.737.718,2.044,2.044,0,0,0,.717-2.737c-1.349-2.476-3.819-3.456-6.414-4.115-1.238-.315-2.49-.6-3.711-.979-.253-.078-.5-.162-.752-.253-.123-.045-.245-.1-.37-.142-.222-.071.3.141-.049-.022-.639-.3-1.257-.628-1.866-.984a2,2,0,0,0-2.019,3.454Z"/><path class="b" d="M39.1,246.621a59.045,59.045,0,0,0,5.238,7.9,24.78,24.78,0,0,0,6.335,6.5,2,2,0,0,0,2.019-3.454,21.149,21.149,0,0,1-5.166-5.421,56.841,56.841,0,0,1-4.972-7.545,2,2,0,0,0-3.454,2.019Z"/><path class="b" d="M57.1,246.379a16.3,16.3,0,0,0,1.967.91c.528.2,1.066.373,1.594.573a1.526,1.526,0,0,0,.8.036,1.5,1.5,0,0,0,.744-.238,2,2,0,0,0,.717-2.736l-.313-.405a1.99,1.99,0,0,0-.882-.514c-.623-.236-1.264-.429-1.878-.686l.478.2c-.413-.174-.812-.382-1.206-.595a2.1,2.1,0,0,0-1.541-.2,2.046,2.046,0,0,0-1.2.919,2,2,0,0,0,.718,2.737Z"/><path class="d" d="M129.8,141.053c2.939,20.6,4.24,39.726,1.791,53.687-3.286,18.733-21.778,37.555-34.222,52.888-6.092-4.807-13.333-10.555-18.445-15.666,7.395-8.87,29.9-36.258,31.023-44.494,1.285-10.967-.29-31.263,1.568-47.213"/><path class="d" d="M4.926,141.053c-2.939,20.6-4,40.17-1.553,54.131,3.286,18.734,17.778,36.444,32.444,53.111,6.092-4.808,13-11.889,18.111-16.555-5.111-6.889-28.022-36.036-29.149-44.272-1.285-10.967.509-31.263-1.349-47.213"/><path class="b" d="M110.927,114.549c4.086,2.343,8.16,4.995,11.1,8.748,3.085,3.944,4.326,8.9,5.159,13.743a264.855,264.855,0,0,1,3.512,32.691c.406,8.875.581,18.261-1.547,26.954-2.214,9.046-7.386,17.165-12.832,24.6-6.348,8.662-13.588,16.61-20.353,24.938h2.829a210.645,210.645,0,0,1-18.45-15.67v2.829c8.707-10.44,17.377-21.051,24.91-32.381,2.81-4.226,6.209-8.984,6.768-14.165.8-7.392.9-14.877,1.065-22.3.18-8.09.2-16.185.433-24.275.073-2.574-3.927-2.572-4,0-.42,14.647-.09,29.349-1.257,43.965-.052.648-.108,1.295-.172,1.941-.033.333-.065.666-.1,1-.046.381.077-.386,0,.023-.02.1-.037.208-.062.31-.1.393-.2.781-.337,1.165-.078.23-.167.456-.253.684-.035.092-.181.444-.029.083-.059.139-.12.278-.183.416a58.843,58.843,0,0,1-4.046,7.188c-3.857,6.038-8.176,11.789-12.571,17.442q-6.344,8.161-12.988,16.082a2.048,2.048,0,0,0,0,2.829,211.112,211.112,0,0,0,18.45,15.67,2.032,2.032,0,0,0,2.829,0c6.274-7.725,12.918-15.14,18.961-23.054,5.938-7.776,11.55-16.183,14.51-25.595,2.781-8.847,2.824-18.659,2.54-27.842a291.6,291.6,0,0,0-3.349-33.981c-.865-5.795-2.069-11.819-5.527-16.69-3.318-4.675-8.065-7.972-12.98-10.79-2.237-1.282-4.254,2.173-2.019,3.454Z"/><path class="b" d="M97.078,103.984c-1.758-.637-3.531-1.235-5.32-1.78a2.02,2.02,0,0,0-2.46,1.4,2.042,2.042,0,0,0,1.4,2.46c1.789.545,3.562,1.143,5.32,1.78a2,2,0,0,0,2.259-2.938,2.241,2.241,0,0,0-1.2-.919Z"/><path class="b" d="M21.427,140.252c.09,7.4.1,14.8.222,22.2.129,7.848.22,15.743.974,23.561.5,5.2,3.338,9.693,6.057,14.038,3.841,6.14,8.078,12.033,12.37,17.862,3.669,4.982,7.462,9.869,11.15,14.836l.312-2.424c-6.033,5.518-11.7,11.457-18.11,16.55h2.829c-6.844-7.776-13.614-15.67-19.433-24.257C12.5,214.8,7.865,206.294,5.776,197c-1.93-8.586-1.955-17.646-1.645-26.4a273.393,273.393,0,0,1,3.1-31.618c.815-5.328,1.914-10.8,5.141-15.25,2.923-4.031,7.337-6.953,11.65-9.31,2.26-1.234.243-4.689-2.019-3.454a41.809,41.809,0,0,0-11.257,8.458,29.384,29.384,0,0,0-6.475,13.534c-1.168,5.312-1.767,10.784-2.41,16.179-.656,5.492-1.176,11-1.5,16.523-.56,9.547-.615,19.216.86,28.688,1.5,9.616,5.666,18.564,10.811,26.749,6.448,10.26,14.38,19.525,22.367,28.6a2.049,2.049,0,0,0,2.829,0c6.412-5.093,12.076-11.033,18.11-16.55a2.01,2.01,0,0,0,.313-2.424c-7.435-10.014-15.161-19.813-21.973-30.275-1.674-2.572-3.3-5.182-4.747-7.892-.276-.52-.546-1.044-.8-1.574q-.209-.43-.407-.866c-.05-.11-.1-.222-.148-.333-.176-.4.1.262-.07-.164a13.63,13.63,0,0,1-.765-2.462c-.057-.292,0,.048.011.091-.025-.183-.041-.368-.06-.551q-.055-.523-.1-1.047c-.075-.808-.139-1.616-.2-2.425-.129-1.805-.227-3.613-.31-5.421-.188-4.117-.3-8.238-.378-12.359-.167-8.4-.175-16.8-.277-25.2-.032-2.572-4.032-2.579-4,0Z"/><path class="b" d="M41.335,102.614q-1.4.423-2.79.9a2.124,2.124,0,0,0-1.2.919,1.49,1.49,0,0,0-.238.744,1.523,1.523,0,0,0,.036.8,2.025,2.025,0,0,0,.919,1.195,1.992,1.992,0,0,0,1.541.2q1.388-.477,2.79-.9a2.088,2.088,0,0,0,1.2-.919,1.492,1.492,0,0,0,.237-.744,1.512,1.512,0,0,0-.036-.8,2.022,2.022,0,0,0-.919-1.2,2.048,2.048,0,0,0-1.541-.2Z"/><path class="b" d="M113.519,140.255c-.1-8.456.476-16.9.44-25.35-.008-1.874.262-4.087-.882-5.693-1.159-1.626-3.6-2.238-5.335-3.063-3.391-1.617-6.723-3.277-10.246-4.6a2,2,0,0,0-2.461,1.4,138.232,138.232,0,0,1-2.926,13.549c-.53,2.106-1.079,4.209-1.671,6.3-.2.708-.405,1.417-.63,2.118-.074.229-.161.455-.231.685-.161.53.207-.351.01-.036l1.727-.99c-11.115.948-22.355,1.023-33.5.912-4.113-.04-8.242-.088-12.338-.483-.606-.058.3.081-.3-.041-.194-.039-.4-.1-.6-.124-.4-.044.194.108.313.2.206.166.652.553.6.83.014-.074-.083-.234-.1-.307-.456-1.757-.842-3.526-1.214-5.3-1.224-5.843-2.287-11.726-3.649-17.539a2.012,2.012,0,0,0-2.46-1.4c-3.686,1.384-7.216,3.067-10.781,4.727-1.76.82-4.236,1.436-5.408,3.081-1.143,1.6-.872,3.825-.888,5.7-.075,8.477.369,16.95.448,25.426.024,2.572,4.024,2.579,4,0-.073-7.807-.448-15.609-.456-23.417q0-1.306.014-2.614a8.783,8.783,0,0,1,.064-2.6c.247-.567,1.378-.821,1.92-1.062q1.257-.558,2.5-1.142c3.19-1.49,6.347-3,9.647-4.24l-2.46-1.4c1.625,6.937,2.789,13.976,4.382,20.921.405,1.767.681,3.577,2.713,4.047a35.262,35.262,0,0,0,6.425.558c7.643.308,15.309.237,22.955.078,3.923-.082,7.847-.2,11.766-.4,1.695-.085,3.389-.183,5.08-.311,1.04-.079,2.186,0,2.9-.9a4.239,4.239,0,0,0,.6-1.266,103.089,103.089,0,0,0,2.742-10.009c1.022-4.126,2.046-8.288,2.665-12.5l-2.461,1.4c3.08,1.157,5.992,2.611,8.952,4.034q1.29.621,2.6,1.206c.513.229,1.677.515,1.915,1.06a8.26,8.26,0,0,1,.06,2.6q.012,1.3,0,2.6c-.063,7.787-.531,15.56-.436,23.35.031,2.572,4.031,2.579,4,0Z"/><path class="f" d="M73.668,31.456c-3.881,1.777-10.9,5.614-11.516,5.351-.421-.181-1.186-1.946-1.732-3.632a13.425,13.425,0,0,1-.626-2.588A293.417,293.417,0,0,0,36.739,51.62a4.523,4.523,0,0,0-3.8-1.214,4.273,4.273,0,0,0-1.046.3c-2.356-9.744-1.77-17.99.2-23.781s6.657-12.436,12.485-14.569l-5.26-1.071c7.664-7.713,17.745-9.48,26.5-9.212,9.342.285,16.641,3.963,21.02,9.962L91.872,16.2c4.127,2.137,8,6.541,10.01,12.162,2.86,8,2.528,16.424.264,22.238a4.462,4.462,0,0,0-.8-.2,4.524,4.524,0,0,0-3.806,1.221A38.175,38.175,0,0,0,79.93,32.941Z"/><path class="b" d="M99.121,52.886a2.476,2.476,0,0,1,3.521.464,5.167,5.167,0,0,1,.5,2.619,15.447,15.447,0,0,1-.218,3.171c-.688,3.77-2.608,8.286-6.8,9.037a2.017,2.017,0,0,0-1.4,2.46,2.044,2.044,0,0,0,2.46,1.4c6.374-1.143,9.415-8.341,9.894-14.119.247-2.964.01-6.353-2.555-8.274a6.589,6.589,0,0,0-8.235.417,2.015,2.015,0,0,0,0,2.828,2.043,2.043,0,0,0,2.828,0Z"/><path class="b" d="M94.61,66.715a17.2,17.2,0,0,1-1,4.643c-.09.273-.194.545-.275.821-.037.126-.2.478.025-.038-.141.325-.294.645-.453.962a38.969,38.969,0,0,1-3.367,5.411c-2.935,4.026-6.92,8.292-11.949,9.471-2.505.588-1.444,4.446,1.064,3.858,6-1.407,10.647-6.31,14.174-11.085,3.047-4.125,5.57-8.8,5.782-14.043.105-2.574-3.9-2.569-4,0Z"/><path class="b" d="M38,50.058a6.591,6.591,0,0,0-8.235-.417c-2.567,1.915-2.8,5.314-2.556,8.274.48,5.777,3.521,12.976,9.9,14.119a2.055,2.055,0,0,0,2.46-1.4,2.017,2.017,0,0,0-1.4-2.46c-4.189-.751-6.108-5.267-6.8-9.037a15.32,15.32,0,0,1-.221-2.994,5.957,5.957,0,0,1,.426-2.675,2.461,2.461,0,0,1,3.6-.585,2.055,2.055,0,0,0,2.829,0,2.016,2.016,0,0,0,0-2.828Z"/><path class="b" d="M35.889,66.445a35.39,35.39,0,0,0,7.539,16.944c4.242,5.023,9.858,8.654,16.472,9.368a2.013,2.013,0,0,0,2-2,2.046,2.046,0,0,0-2-2c-5.67-.612-10.4-4.243-13.922-8.531-3.47-4.23-5.3-9.518-6.231-14.845a2.017,2.017,0,0,0-2.461-1.4,2.046,2.046,0,0,0-1.4,2.46Z"/><path class="b" d="M90.863,17.929c10.45,5.557,13.111,20.555,9.755,31.022-.787,2.457,3.073,3.509,3.857,1.064,3.888-12.126.4-29.162-11.593-35.54-2.272-1.208-4.3,2.243-2.019,3.454Z"/><path class="b" d="M44.05,10.423c-6.988,2.667-11.884,9.61-14.075,16.552-2.457,7.785-1.878,16.347-.027,24.187.591,2.505,4.449,1.444,3.857-1.063-1.647-6.976-2.184-14.5-.155-21.459,1.66-5.7,5.68-12.152,11.463-14.36a2.057,2.057,0,0,0,1.4-2.46,2.015,2.015,0,0,0-2.46-1.4Z"/><path class="b" d="M88.563,11.022A27.128,27.128,0,0,0,70.78.55,42.531,42.531,0,0,0,49.152,2.605,32.616,32.616,0,0,0,37.907,9.867c-1.83,1.816,1,4.644,2.829,2.828A30.273,30.273,0,0,1,58.615,4.362c6.293-.765,13.118-.446,18.878,2.427a21.207,21.207,0,0,1,7.616,6.251,2.062,2.062,0,0,0,2.737.718,2.014,2.014,0,0,0,.717-2.736Z"/><path class="b" d="M72.659,29.729c-2.858,1.317-5.633,2.806-8.47,4.167-.523.251-1.047.507-1.584.73.308-.128-.3.107-.358.132-.463.2-.3-.107.011.061,1.835,1,1.31.736.956.047a11.835,11.835,0,0,1-.577-1.381,13.563,13.563,0,0,1-.843-2.9,2.031,2.031,0,0,0-3.414-1.414C50.613,35.629,43.19,42.4,36.022,49.513c-1.83,1.816,1,4.644,2.828,2.828C46.019,45.227,53.442,38.457,61.208,32l-3.414-1.414A16.094,16.094,0,0,0,60.188,37.6c1.161,1.644,2.686,1.229,4.247.56,3.488-1.5,6.8-3.389,10.243-4.978a2.016,2.016,0,0,0,.717-2.737,2.046,2.046,0,0,0-2.736-.717Z"/><path class="b" d="M78.921,34.668A36.784,36.784,0,0,1,95.612,52.142a2.015,2.015,0,0,0,2.736.718,2.048,2.048,0,0,0,.717-2.737A40.25,40.25,0,0,0,80.94,31.214a2.048,2.048,0,0,0-2.737.717,2.022,2.022,0,0,0,.718,2.737Z"/><path class="b" d="M61.52,76.469A12.706,12.706,0,0,0,67.64,77.9a10.058,10.058,0,0,0,6.27-1.889,2,2,0,0,0,0-2.828,2.062,2.062,0,0,0-2.829,0c.686-.535-.064.013-.283.128-.171.089-.636.23-.021.03-.169.055-.332.128-.5.182-.214.069-.43.127-.649.178-.151.035-.653.043-.755.142.109-.1.363-.042-.008,0-.138.014-.276.025-.414.034-.332.022-.665.03-1,.028-.3,0-.6-.012-.893-.032-.137-.009-.274-.02-.41-.034-.078-.008-.155-.016-.233-.026-.155-.019-.1-.011.161.022A2.179,2.179,0,0,1,65.4,73.7c-.215-.047-.428-.1-.64-.166-.183-.055-.362-.121-.544-.183-.461-.157.4.2-.015,0q-.338-.159-.667-.333a2,2,0,1,0-2.018,3.454Z"/><path class="b" d="M66.408,62.33a27.423,27.423,0,0,1,.65,2.972l-.071-.532a1.814,1.814,0,0,1,.011.41l.071-.531a1.051,1.051,0,0,1-.045.184l.2-.478a.692.692,0,0,1-.066.119l.313-.405a.588.588,0,0,1-.1.1l.405-.313a2.115,2.115,0,0,1-.235.125l.477-.2a1.707,1.707,0,0,1-.4.116l.532-.071a1.653,1.653,0,0,1-.372,0l.531.071c-.14-.019-.278-.053-.418-.072a1.506,1.506,0,0,0-.8-.036,1.486,1.486,0,0,0-.743.237,2,2,0,0,0-.718,2.737,1.919,1.919,0,0,0,1.195.919c.362.049.713.139,1.082.155a3.535,3.535,0,0,0,1.647-.4,2.479,2.479,0,0,0,1.345-1.624,3.863,3.863,0,0,0-.014-1.7c-.162-.958-.383-1.907-.63-2.846a2,2,0,0,0-2.46-1.4,2.025,2.025,0,0,0-1.2.919,2.107,2.107,0,0,0-.2,1.542Z"/><path class="b" d="M51.152,53.786c-.5,1.613-.173,5.323,2.883,5.639,4.038-.024,4.253-4.51,2.894-6.619C55.816,51.079,52.542,50.36,51.152,53.786Z"/><path class="b" d="M83.494,53.786c.5,1.613.173,5.323-2.882,5.639-4.039-.024-4.254-4.51-2.895-6.62C78.83,51.079,82.1,50.36,83.494,53.786Z"/></svg>