<?xml version="1.0" encoding="utf-8"?>
<!-- Uploaded to: SVG Repo, www.svgrepo.com, Generator: SVG Repo Mixer Tools -->
<svg width="800px" height="800px" viewBox="-4.63 0 393.055 393.055" xmlns="http://www.w3.org/2000/svg"><defs><style>.a{fill:#7a7473;}.b{fill:#ffffff;}.c{fill:#211715;}.d{fill:#f2635f;}.e{fill:#645d5c;}.f{fill:#d9d9d9;}.g{fill:#ffde7f;}</style></defs><path class="a" d="M220.722,195.988c1.318-5.226-1.476-12.382-6.133-17.166-3.768-4.107-9.78-5.5-11.392-3.065a13.762,13.762,0,0,0-2.3,6.2c-.071.585-.122,1.207-.147,1.869q-.024.628-.014,1.3c.045,2.521.679,5.1.8,7.624s-.538,4.984-2.933,5.8c-.095.032-.114.339-.111.417a1.091,1.091,0,0,0,.192.537,3.707,3.707,0,0,0,1.228,1.076,17.035,17.035,0,0,0,11.131,1.947C216.051,201.763,220.1,198.935,220.722,195.988Z"/><path class="b" d="M263.03,211.047c-.3-.123-8.653-4.1-8.848-4.168-2.946-1.064-2.83-2.958-3.2-5.077a42.215,42.215,0,0,1-.639-6.115c7.129-3.8,12.736-13.24,13.759-16.017.163-.495.5-1.426.791-2.531l.617-.1a7.748,7.748,0,0,0,3.6-1.624,11.682,11.682,0,0,0,3.022-3.967,18.381,18.381,0,0,0,1.875-9.747,6.124,6.124,0,0,0-.642-2.469,4.341,4.341,0,0,0-3.121-2.075,4.6,4.6,0,0,0-3.678,1.076s-1.092-25-31.614-25-30.075,25-30.075,25a4.6,4.6,0,0,0-3.678-1.076,4.341,4.341,0,0,0-3.121,2.075,6.124,6.124,0,0,0-.642,2.469,18.381,18.381,0,0,0,1.875,9.747,11.682,11.682,0,0,0,3.022,3.967,7.748,7.748,0,0,0,3.6,1.624l1.175.182a31.27,31.27,0,0,0,5.96,11.633,25.758,25.758,0,0,0,10.567,7.919,37.065,37.065,0,0,1-.607,5.028c-.371,2.119-.255,4.013-3.2,5.077-.195.07-9.512,4.428-10.079,4.622a39.6,39.6,0,0,0,26.469,10.1A40.166,40.166,0,0,0,263.03,211.047Z"/><path class="c" d="M200.935,175.59a18.644,18.644,0,0,0-2.166,10.247c.117,2.081.556,4.127.727,6.2.1,1.251.236,2.988-.649,4.027-.5.593-1.322.646-1.806,1.268a2.731,2.731,0,0,0-.409,2.441c.527,1.767,2.517,2.765,4.08,3.437a19.852,19.852,0,0,0,11.3,1.169,14.908,14.908,0,0,0,9.693-5.665c1.479-2.113-1.987-4.114-3.454-2.019-1.767,2.524-5.435,3.7-8.356,3.963a16.389,16.389,0,0,1-5.5-.4,13.268,13.268,0,0,1-2.23-.753c-.32-.145-.633-.309-.938-.485-.217-.123-.428-.255-.635-.394q-.43-.49-.067.109l-.273,1.01.092-.191-1.2.919c4.454-1.716,4.679-6.247,4.133-10.369-.563-4.251-1.09-8.6,1.113-12.5,1.267-2.244-2.187-4.262-3.454-2.019Z"/><path class="c" d="M267.983,159.648a2.517,2.517,0,0,1,3.583.472,5.252,5.252,0,0,1,.505,2.652,15.573,15.573,0,0,1-.221,3.206c-.7,3.811-2.638,8.375-6.872,9.134a2.017,2.017,0,0,0-1.4,2.46,2.044,2.044,0,0,0,2.46,1.4c6.425-1.152,9.489-8.409,9.973-14.232.248-2.984.012-6.4-2.57-8.335a6.632,6.632,0,0,0-8.289.418,2.015,2.015,0,0,0,0,2.828,2.042,2.042,0,0,0,2.828,0Z"/><path class="c" d="M263.462,173.618a17.4,17.4,0,0,1-1.011,4.691c-.091.276-.2.55-.278.829-.037.125-.2.479.023-.035-.141.329-.3.652-.457.972a39.374,39.374,0,0,1-3.4,5.461c-2.966,4.068-6.992,8.376-12.071,9.568-2.5.587-1.445,4.445,1.063,3.857,6.046-1.419,10.738-6.363,14.3-11.179,3.073-4.161,5.619-8.875,5.833-14.164.1-2.574-3.9-2.569-4,0Z"/><path class="c" d="M206.294,156.82a6.635,6.635,0,0,0-8.289-.418c-2.584,1.929-2.817,5.355-2.57,8.335.484,5.823,3.548,13.08,9.973,14.232a2.057,2.057,0,0,0,2.46-1.4,2.017,2.017,0,0,0-1.4-2.46c-4.234-.759-6.176-5.323-6.872-9.134a15.419,15.419,0,0,1-.223-3.027,6.022,6.022,0,0,1,.432-2.709,2.5,2.5,0,0,1,3.658-.594,2.053,2.053,0,0,0,2.828,0,2.015,2.015,0,0,0,0-2.828Z"/><path class="c" d="M204.2,173.341a35.708,35.708,0,0,0,7.6,17.093c4.278,5.065,9.941,8.729,16.611,9.449a2.012,2.012,0,0,0,2-2,2.045,2.045,0,0,0-2-2c-5.727-.618-10.511-4.283-14.064-8.615-3.5-4.272-5.354-9.611-6.294-14.991a2.018,2.018,0,0,0-2.46-1.4,2.047,2.047,0,0,0-1.4,2.461Z"/><path class="b" d="M311.269,237.016c.883-1.784,2.032-3.545,2.511-4.673.66-1.558.216-4.184.684-5.8a21.117,21.117,0,0,1,4.689-8.594,92.384,92.384,0,0,1,7.883-8.247c1.259-1.192,2.525-2,4.1-.924,1.75,1.193,1.1,2.8.341,4.586-1.419,3.333-4.9,6.092-6,8.95l-.167.433c2.705-.578,10.5-1.923,11.964-2.256a18.507,18.507,0,0,0,3.811-1.792c2.575-1.209,5.449-3.044,8.239-3.595.76-.15,1.575.283,2.034.22,1.309-.843,4.015-.687,5.519-.278,5.374,2.483-.084,9.931-3.219,12.356-2.162,1.671-5.342,4.28-7.7,5.715a32.557,32.557,0,0,1-8.215,3.9,74.451,74.451,0,0,0-10.226,3.4c-1.8,1.249-3.86,2.492-4.959,6.083-2.077,10.778-4.04,31.469-6.071,38.326-2,6.759-2.733,11.961-8.974,15.874-3.4,2.13-6.495,3.072-10.193,1.114a11.44,11.44,0,0,1-5.907-12.552,52.707,52.707,0,0,1,3.8-11.779c3.335-6.873,12.781-33.162,15.89-40.1Q311.18,237.2,311.269,237.016Z"/><path class="b" d="M195.554,312.624c1.378-10.158,2.873-21.373,3.2-26.766-2.124-.042-3.8-.08-3.8-.08-2.336,0-11.733-.67-18.16-1.376-.348,4.238-1.884,24.842-1.729,28.251Z"/><path class="c" d="M221.615,197.3a33.87,33.87,0,0,1-.463,3.7c-.143.831-.22,1.685-.44,2.5-.045.167-.108.327-.157.492.136-.461-.048.034-.123.182-.047.093-.227.271.045-.036-.071.079-.14.158-.216.233-.059.059-.121.113-.183.168-.14.125.216-.113-.1.056-.495.267-.841.4-1.425.669-2.33,1.058-4.643,2.154-6.967,3.223q-.921.423-1.843.842l-.637.284c-.422.19.506-.189.115-.05a2.051,2.051,0,0,0-1.4,2.461,2.016,2.016,0,0,0,2.46,1.4c.971-.347,1.91-.832,2.846-1.261q2.161-.992,4.319-2l3.122-1.445c.083-.038.171-.069.251-.113-.065.036-.834.342-.237.11.228-.089.468-.19.686-.288a5.958,5.958,0,0,0,.8-.429,5.809,5.809,0,0,0,2.281-2.806,13.96,13.96,0,0,0,.606-2.867c.281-1.669.536-3.34.651-5.03a2,2,0,1,0-4,0Z"/><path class="c" d="M248.384,196.736a55.41,55.41,0,0,0,.946,7.324,6.169,6.169,0,0,0,4.1,4.664c.625.248-.578-.275-.073-.035.156.074.312.145.468.218l1.505.71q1.992.941,3.983,1.884c.9.425,1.791.883,2.707,1.273a2.068,2.068,0,0,0,2.737-.718,2.015,2.015,0,0,0-.718-2.736c-1.975-.842-3.9-1.836-5.837-2.754-.918-.435-1.835-.876-2.759-1.3-.581-.266-.907-.41-1.407-.662-.018-.009-.275-.182-.095-.051s-.086-.076-.127-.117c-.123-.123-.355-.461-.147-.128a4.1,4.1,0,0,0-.261-.448c-.125-.15.042.1.055.141-.034-.117-.081-.231-.116-.349a22.076,22.076,0,0,1-.481-2.647,40.22,40.22,0,0,1-.48-4.269,2.045,2.045,0,0,0-2-2,2.019,2.019,0,0,0-2,2Z"/><path class="b" d="M288.671,293.564a29.994,29.994,0,0,1-5.352-6.139c-1.223-2.166-4.044-8.125-4.763-11.72l-1.55-1.032q-.609,4.1-1.244,8.387c-.4,2.69,1.5,16.949,3.209,29.572l-83.417-.008c1.375-10.133,2.866-21.318,3.195-26.727-1.964-.058-3.8-.119-3.8-.119-3.459,0-22.408-1.469-24.256-2.351-.84-.252-.37-2.474.085-4.138,1.51-5.53,4.649-20.109,5.458-23.409,1.255-5.123,4.555-19.895,5.666-24.154.676-2.594,2.121-6.573,4.168-9a16.284,16.284,0,0,1,2.168-1.487,31.941,31.941,0,0,1,4.5-2.539,245.84,245.84,0,0,1,22.528-11.123,24.567,24.567,0,0,1,5.44-7.81,47.581,47.581,0,0,0,13.731,9.569c.284.129.6.287.693.585h2.463c.092-.3.409-.456.693-.585a47.563,47.563,0,0,0,13.73-9.569A23.825,23.825,0,0,1,257,206.634,238.1,238.1,0,0,1,281.789,218.7a41.7,41.7,0,0,1,3.784,2.014l1.006.548a15.772,15.772,0,0,1,2.135,1.464c2.047,2.425,3.492,6.4,4.168,9,1.111,4.259,2.867,11.7,4.676,19.4a60.766,60.766,0,0,1,2.494,7.17l6.339,3.147s-12.685,33.2-12.611,32.981S288.671,293.564,288.671,293.564Z"/><path class="c" d="M197.482,313.156c.782-5.763,1.565-11.526,2.261-17.3a93.841,93.841,0,0,0,1.072-11.85,52.166,52.166,0,0,0-.96-7.1q-.711-4.772-1.425-9.541-1.353-9.045-2.683-18.093c-.836-5.743-1.654-11.489-2.4-17.245a2.066,2.066,0,0,0-2-2,2.011,2.011,0,0,0-2,2c1.415,10.992,3.062,21.953,4.7,32.914.905,6.057,2.044,12.129,2.723,18.214a20.093,20.093,0,0,1-.09,3.686c-.159,2.119-.388,4.232-.628,6.343-.717,6.313-1.577,12.611-2.431,18.907a2.069,2.069,0,0,0,1.4,2.46,2.014,2.014,0,0,0,2.46-1.4Z"/><path class="c" d="M216.445,204.93q-7.771,3.231-15.275,7.04c-2.329,1.187-4.639,2.41-6.941,3.649a52.512,52.512,0,0,0-7.059,3.94,2.066,2.066,0,0,0-.718,2.736,2.015,2.015,0,0,0,2.737.718,49.769,49.769,0,0,1,6.678-3.734c2.3-1.243,4.617-2.472,6.948-3.664,4.811-2.46,9.7-4.754,14.693-6.828a2.066,2.066,0,0,0,1.4-2.46,2.011,2.011,0,0,0-2.46-1.4Z"/><path class="c" d="M257.015,208.787c4.86,2.02,9.63,4.249,14.319,6.637,2.2,1.121,4.385,2.275,6.561,3.444,2.37,1.274,5.045,2.34,7.193,3.962a2.011,2.011,0,0,0,2.736-.717,2.049,2.049,0,0,0-.717-2.736c-2.149-1.623-4.823-2.688-7.193-3.962-2.3-1.236-4.607-2.454-6.935-3.635q-7.318-3.713-14.9-6.85a2.013,2.013,0,0,0-2.461,1.4,2.052,2.052,0,0,0,1.4,2.46Z"/><path class="c" d="M285.57,222.991a5.685,5.685,0,0,1,2.491,2.235,22.8,22.8,0,0,1,2.215,4.786c1.023,3,1.667,6.143,2.408,9.218q.7,2.913,1.391,5.83c.512,2.164.837,4.492,1.554,6.595.776,2.273,1.881,4.688,2.494,7.17.617,2.5,4.476,1.44,3.857-1.063-.648-2.624-1.889-5.087-2.606-7.651-1.209-4.32-2.061-8.769-3.12-13.13a69.591,69.591,0,0,0-2.714-9.628,22.966,22.966,0,0,0-2.654-5.071,10.014,10.014,0,0,0-3.3-2.745c-2.24-1.277-4.257,2.178-2.019,3.454Z"/><path class="c" d="M187.194,219.537a11.939,11.939,0,0,0-2.539,1.777,14.554,14.554,0,0,0-2.5,3.944,36.556,36.556,0,0,0-2.449,7c-1.1,4.455-2.106,8.936-3.135,13.408q-2.8,12.179-5.6,24.358c-.56,2.433-1.125,4.866-1.743,7.285-.557,2.18-2.268,6.472.455,7.842,2.293,1.153,4.321-2.3,2.018-3.454,1.337.672.2.894.536.344.037-.061.113-.756.126-.821.112-.535.252-1.062.393-1.59q.328-1.227.631-2.459c.526-2.128,1.023-4.263,1.514-6.4.956-4.16,1.872-8.329,2.824-12.49q2.65-11.586,5.4-23.155a49.713,49.713,0,0,1,1.768-6.175,20.44,20.44,0,0,1,2.038-4.047,5.624,5.624,0,0,1,2.286-1.917c2.236-1.275.223-4.732-2.019-3.454Z"/><path class="c" d="M276.628,276.237a44.07,44.07,0,0,0,3.947,10.248,27.8,27.8,0,0,0,6.681,8.493,2.048,2.048,0,0,0,2.829,0,2.019,2.019,0,0,0,0-2.828,24.759,24.759,0,0,1-6.056-7.684,39.752,39.752,0,0,1-3.544-9.292,2,2,0,0,0-3.857,1.063Z"/><path class="c" d="M320.623,245.966c-1.8,9.407-2.725,18.966-4.161,28.431a86.968,86.968,0,0,1-2.222,10.968c-1.253,4.378-2.245,9-5.791,12.162-1.861,1.657-4.516,3.341-7.085,3.355a8.453,8.453,0,0,1-6.393-3.608c-3.208-4.394-1.3-10.007.3-14.64,1.133-3.28,2.711-6.4,4.025-9.606,1.519-3.715,2.961-7.46,4.4-11.207,1.771-4.619,3.521-9.246,5.3-13.863.744-1.934,1.493-3.868,2.261-5.793q.462-1.161.938-2.316l.141-.34c.16-.384-.1.235.1-.232q.192-.447.389-.891a2.063,2.063,0,0,0-.717-2.737,2.015,2.015,0,0,0-2.737.718c-3.252,7.292-5.891,14.879-8.74,22.333-1.565,4.092-3.132,8.184-4.773,12.246-1.313,3.247-2.908,6.367-4.172,9.869-1.925,5.335-3.7,11.287-1.176,16.718,2.542,5.471,9.055,8.858,14.834,6.522a19.007,19.007,0,0,0,10.886-11.438,73.857,73.857,0,0,0,3.3-12.3c1.994-11.041,2.848-22.263,4.956-33.285.481-2.515-3.373-3.593-3.857-1.063Z"/><path class="c" d="M288.392,279.059c.322-.435.642-.869.965-1.3.153-.2.306-.41.461-.615l.231-.305c.045-.059.35-.484.06-.08a28.278,28.278,0,0,1,1.987-2.4,25.318,25.318,0,0,1,2.208-2.187q.288-.252.586-.492c.007,0,.392-.3.16-.128s.123-.09.168-.123c.465-.34.945-.656,1.438-.954a2,2,0,0,0-2.018-3.454c-4.088,2.468-6.908,6.245-9.7,10.02a2.005,2.005,0,0,0,.717,2.736,2.057,2.057,0,0,0,2.736-.717Z"/><path class="c" d="M312.822,238.386c.765-1.576,1.731-3.045,2.493-4.62a10.6,10.6,0,0,0,.884-4.487,14.756,14.756,0,0,1,2.852-7.935,58.086,58.086,0,0,1,7.372-8.277q.928-.909,1.872-1.8c.372-.349.971-1.093,1.545-.944.416.107.475.256.4.589a9.253,9.253,0,0,1-.725,1.958c-1.6,3.245-4.565,5.545-5.966,8.915a2.011,2.011,0,0,0,1.4,2.46,2.051,2.051,0,0,0,2.46-1.4,19.115,19.115,0,0,1,2.983-4.177,20.731,20.731,0,0,0,3.06-4.867c.677-1.616,1.206-3.41.316-5.066a4.743,4.743,0,0,0-5.325-2.274c-1.942.58-3.442,2.405-4.841,3.775-1.584,1.551-3.126,3.145-4.589,4.811a28.826,28.826,0,0,0-6.044,9.608,12.79,12.79,0,0,0-.7,3.167c-.078.967,0,1.958-.132,2.919a5.957,5.957,0,0,1-.862,2.122c-.647,1.16-1.316,2.3-1.9,3.5-1.119,2.306,2.329,4.336,3.454,2.019Z"/><path class="c" d="M325.526,224.746c4.032-.9,8.155-1.373,12.178-2.3a17.722,17.722,0,0,0,4.031-1.84c1.651-.849,3.306-1.726,4.991-2.5a6.341,6.341,0,0,1,3.839-.849,3.741,3.741,0,0,0,2.08-.337,5.722,5.722,0,0,1,2.081-.184,2.548,2.548,0,0,1,2.226.869,2.931,2.931,0,0,1-.117,2.323,13.965,13.965,0,0,1-3.893,5.476,62.441,62.441,0,0,1-6.812,5.224,32.884,32.884,0,0,1-8.926,4.47c-1.788.537-3.593,1.016-5.375,1.575a26.69,26.69,0,0,0-5.329,2.022,12.857,12.857,0,0,0-5.877,7.278c-.8,2.454,3.064,3.5,3.857,1.063a8.121,8.121,0,0,1,3.161-4.278,19.943,19.943,0,0,1,5.849-2.412c2.3-.7,4.663-1.242,6.9-2.115a40.819,40.819,0,0,0,6.567-3.379,64.03,64.03,0,0,0,5.779-4.2,32.808,32.808,0,0,0,4.06-3.443c2.334-2.53,4.844-6.179,4.241-9.81-.773-4.651-7.07-5.856-10.7-3.789l1.009-.273a19.372,19.372,0,0,0-2.034-.22,9.274,9.274,0,0,0-2.333.585,36.89,36.89,0,0,0-4.449,2.037c-2.112,1.094-4.253,2.54-6.6,3-3.817.749-7.675,1.316-11.474,2.16-2.511.559-1.448,4.416,1.064,3.857Z"/><path class="c" d="M332.67,226.875c-.258.042-.517.079-.776.119-.31.048.321-.04.009,0l-.438.056c-.5.061-1,.118-1.5.178-1.172.141-2.349.285-3.506.522a13.11,13.11,0,0,0-6.122,2.918,2.012,2.012,0,0,0,0,2.829,2.048,2.048,0,0,0,2.828,0c.091-.079.181-.158.274-.235.131-.11.18-.121.016-.013.219-.145.432-.3.658-.432.2-.119.4-.229.606-.332.1-.052.21-.1.311-.149.264-.141-.283.1,0,0a16.831,16.831,0,0,1,2.84-.793c.463-.087.929-.157,1.4-.226.312-.046-.318.039,0,0l.353-.044c.265-.033.53-.064.8-.1,1.11-.13,2.222-.262,3.326-.442a2.009,2.009,0,0,0,1.4-2.46,2.059,2.059,0,0,0-2.461-1.4Z"/><path class="c" d="M348.587,216.019q-.514.525-1.077,1c-.185.157-.375.31-.566.46.22-.173.09-.07-.057.039l-.271.2a29.484,29.484,0,0,1-2.774,1.752q-1.383.777-2.831,1.43c-.223.1-.449.2-.674.3s.318-.129-.037.015l-.289.117q-.686.274-1.383.516a2,2,0,0,0,1.064,3.857c4.2-1.46,8.575-3.647,11.724-6.854a2,2,0,0,0-2.829-2.828Z"/><path class="c" d="M352.182,218.673a7.9,7.9,0,0,1-1,.989c-.121.1-.247.2-.369.3-.341.283.371-.274,0,0-.255.188-.509.375-.769.556-1.16.809-2.371,1.546-3.6,2.249q-1.77,1.017-3.594,1.935-.719.361-1.447.7c-.178.082-.359.16-.538.242-.369.169.46-.181.166-.068-.078.029-.154.062-.232.092a2.047,2.047,0,0,0-1.4,2.46,2.023,2.023,0,0,0,2.46,1.4,48.09,48.09,0,0,0,6.6-3.306c1.266-.726,2.517-1.488,3.711-2.329a13.979,13.979,0,0,0,2.829-2.393,2.048,2.048,0,0,0,0-2.828,2.024,2.024,0,0,0-2.829,0Z"/><path class="c" d="M169.683,285.154a16.993,16.993,0,0,0,4.778.972c2.486.32,4.983.56,7.48.783,4.31.385,8.675.854,13.007.869,2.574.009,2.577-3.991,0-4-4.149-.014-8.329-.459-12.458-.821-2.467-.216-4.934-.45-7.392-.751-.832-.1-1.259-.15-2.261-.322-.3-.052-.607-.105-.907-.175-.237-.055-1.011-.358-.229-.009a2.062,2.062,0,0,0-2.736.717,2.016,2.016,0,0,0,.718,2.737Z"/><path class="c" d="M174.823,284.561c-.669,7.805-1.242,15.631-1.636,23.455-.077,1.538-.19,3.095-.128,4.637.1,2.565,4.1,2.578,4,0a98.016,98.016,0,0,1,.447-10.1q.435-6.79.966-13.573c.113-1.472.225-2.944.351-4.415.22-2.565-3.782-2.55-4,0Z"/><path class="c" d="M172.12,276.692c6.5.64,13.036,1.464,19.568,1.68,2.575.085,2.571-3.915,0-4-6.532-.216-13.067-1.04-19.568-1.68a2.014,2.014,0,0,0-2,2,2.043,2.043,0,0,0,2,2Z"/><path class="d" d="M225.133,220.607c-3.883-5.295-5.957-9.072-9.214-14.373a23.5,23.5,0,0,1,4.784-6.465,47.581,47.581,0,0,0,13.731,9.569c.284.129.6.287.693.585a1.1,1.1,0,0,1-.159.775C234.79,211.067,226.43,219.009,225.133,220.607Z"/><path class="d" d="M247.584,220.607c3.883-5.295,5.957-9.072,9.214-14.373a23.483,23.483,0,0,0-4.785-6.465,47.563,47.563,0,0,1-13.73,9.569c-.284.129-.6.287-.693.585a1.1,1.1,0,0,0,.159.775C237.927,211.067,246.287,219.009,247.584,220.607Z"/><path class="c" d="M226.86,219.6c-3.367-4.607-6.234-9.514-9.215-14.372v2.018a22.5,22.5,0,0,1,4.473-6.06h-2.829a49.686,49.686,0,0,0,7.1,5.879q1.776,1.219,3.656,2.282.912.515,1.848.986.534.268,1.076.523.23.108.46.212.451.261-.025-.133l-.273-1.009c-.011-.145.6-.738.29-.472-.1.088-.191.2-.284.3-.331.343-.67.677-1.008,1.012-1.019,1.009-2.045,2.01-3.069,3.014a72.912,72.912,0,0,0-5.337,5.416,2.055,2.055,0,0,0,0,2.828,2.015,2.015,0,0,0,2.828,0,103.2,103.2,0,0,1,7.5-7.531,15.617,15.617,0,0,0,2.643-2.766,2.849,2.849,0,0,0-1.242-4.113c-1.447-.74-2.905-1.423-4.306-2.255a45.249,45.249,0,0,1-9.019-7,2.037,2.037,0,0,0-2.829,0,24.749,24.749,0,0,0-4.268,5.379c-.709,1.188-1.476,2.31-.728,3.674.555,1.014,1.21,1.987,1.807,2.978,2.311,3.83,4.665,7.616,7.306,11.23a2.059,2.059,0,0,0,2.736.718A2.016,2.016,0,0,0,226.86,219.6Z"/><path class="c" d="M249.311,221.616c2.641-3.614,5-7.4,7.306-11.23.565-.938,1.16-1.863,1.706-2.813a2.276,2.276,0,0,0,.2-2.348c-.219-.46-.484-.9-.742-1.342a24.806,24.806,0,0,0-4.355-5.528,2.035,2.035,0,0,0-2.829,0,45.045,45.045,0,0,1-7.8,6.251,46.341,46.341,0,0,1-4.3,2.424c-1.538.76-3.335,1.578-2.86,3.686.307,1.359,1.549,2.31,2.494,3.243,1.437,1.417,2.884,2.825,4.32,4.243,1.255,1.241,2.589,2.456,3.715,3.819a2.013,2.013,0,0,0,2.828,0,2.044,2.044,0,0,0,0-2.828,73.108,73.108,0,0,0-5.337-5.416c-1-.984-2.01-1.965-3.009-2.954-.346-.343-.693-.686-1.032-1.036-.1-.1-.194-.216-.3-.313-.3-.274.281.3.269.449l-.273,1.009q-.477.395-.025.133l.306-.14c.36-.17.72-.341,1.076-.518q.936-.467,1.848-.977,1.959-1.094,3.81-2.368a49.875,49.875,0,0,0,7.1-5.879H250.6a22.472,22.472,0,0,1,4.472,6.06v-2.018c-2.98,4.858-5.848,9.765-9.214,14.372a2.016,2.016,0,0,0,.718,2.737A2.046,2.046,0,0,0,249.311,221.616Z"/><path class="c" d="M234.367,210.543c0,4.118-.032,8.236-.053,12.354q-.061,11.906-.129,23.811l-.156,27.776q-.069,12.173-.136,24.344c-.023,4.384-.124,8.776-.065,13.16,0,.163,0,.327,0,.49,0,2.574,4,2.578,4,0,0-3.76.033-7.52.054-11.28q.061-11.628.128-23.257.078-13.872.156-27.743.071-12.417.136-24.835c.025-4.723.055-9.446.065-14.17q0-.324,0-.65c0-2.573-4-2.578-4,0Z"/><path class="c" d="M281.062,232.365c-1.369,10.762-2.968,21.494-4.562,32.224q-.7,4.738-1.41,9.475c-.453,3.048-1.093,6.129-1.351,9.2-.284,3.371.388,6.957.771,10.3.751,6.546,1.647,13.076,2.532,19.6a2.012,2.012,0,0,0,2.46,1.4,2.054,2.054,0,0,0,1.4-2.46c-.769-5.67-1.537-11.341-2.211-17.023a74.949,74.949,0,0,1-.974-11.372,70.278,70.278,0,0,1,1.092-7.628q.692-4.649,1.383-9.3,1.291-8.682,2.548-17.37c.813-5.677,1.6-11.358,2.325-17.047a2.01,2.01,0,0,0-2-2,2.05,2.05,0,0,0-2,2Z"/><path class="b" d="M271.121,245.139H255.7c0,1.117.024,4.066.024,5.413,2.574,0,13.459.025,15.4.025C271.121,248.714,271.1,245.361,271.121,245.139Z"/><path class="c" d="M271.121,243.139H255.7a2.028,2.028,0,0,0-2,2c0,1.8.023,3.608.024,5.413a2.03,2.03,0,0,0,2,2c5.132,0,10.264.024,15.4.025a2.029,2.029,0,0,0,2-2c0-1.806-.1-3.635,0-5.438a2,2,0,0,0-4,0c-.1,1.8,0,3.632,0,5.438l2-2c-5.132,0-10.264-.025-15.4-.025l2,2c0-1.8-.023-3.609-.024-5.413l-2,2h15.42C273.7,247.139,273.7,243.139,271.121,243.139Z"/><path class="e" d="M270.089,150.577c1.472,1.265.874,4.039-.619,5.133-1.828,1.341-5.605.257-7.491-.268-9.966-2.769-17.789-2.57-28.052-2.1a70.664,70.664,0,0,0-15.889,2.112c-2.3.644-13.623,4.469-13.831-.563l-1.223-1.178c-8.94-.574-3.891-18.106-1.524-22.563a38.3,38.3,0,0,1,22.894-18.96c14.624-4.124,33.453-3.206,42.872,11.329a31.708,31.708,0,0,1,4.307,23.661Z"/><path class="c" d="M249.422,128.281a25.886,25.886,0,0,1,3.641-.089c.563.026,1.423.1,1.788.147-.175-.023.368.056.356.054.139.022.277.045.415.07q.517.093,1.031.212a18.013,18.013,0,0,1,1.822.52c.165.056.329.116.492.178.08.03.439.175.2.074.286.121.567.257.844.4a12.442,12.442,0,0,1,1.663,1.025c-.207-.152.092.075.158.131.131.11.259.222.384.339.252.233.488.48.717.736a2,2,0,0,0,2.828-2.829c-3.959-4.418-10.7-5.5-16.339-4.968a2.055,2.055,0,0,0-2,2,2.016,2.016,0,0,0,2,2Z"/><path class="c" d="M202.984,151.712a3.478,3.478,0,0,1-.716-.141,2.784,2.784,0,0,1-.371-.124c.3.124.016,0-.037-.032-.135-.074-.265-.151-.393-.237-.279-.186.316.306-.092-.077-.124-.115-.581-.673-.4-.415a6.619,6.619,0,0,1-1.012-3.048,26.138,26.138,0,0,1,.942-8.91,43.308,43.308,0,0,1,1.284-4.231c.091-.251.184-.5.281-.749.057-.146.115-.29.173-.435.132-.325-.184.412.036-.087.239-.542.5-1.065.789-1.583a38.285,38.285,0,0,1,9.1-11c6.754-5.607,15.427-8.051,24.079-8.507,8.045-.425,16.54,1.053,23.055,6.078,8.458,6.522,12.075,18.132,9.9,28.438-.53,2.512,3.325,3.585,3.857,1.064,2.264-10.735-.772-22.571-8.677-30.347-6.729-6.619-16.208-9.3-25.465-9.3-9.574,0-19.57,2.3-27.374,8.031A38.414,38.414,0,0,0,197.3,136.7c-1.679,6.135-3.568,18.26,5.685,19.011,2.566.209,2.552-3.793,0-4Z"/><path class="c" d="M205,154.6a56.483,56.483,0,0,1,10.4-5.554,53.129,53.129,0,0,1,15.491-3.292c9.292-.637,19.093-.651,28.148,1.83q1.1.3,2.188.67c.349.12.7.245,1.041.378.135.052.269.106.4.159.482.193-.145-.071.2.086a14.749,14.749,0,0,1,2.581,1.433,2.017,2.017,0,0,0,2.737-.717,2.046,2.046,0,0,0-.718-2.737,21.216,21.216,0,0,0-6.232-2.8,59.291,59.291,0,0,0-11.476-2.131,111.79,111.79,0,0,0-16.95-.285,61.474,61.474,0,0,0-16.9,2.973,59.114,59.114,0,0,0-12.93,6.532c-2.15,1.4-.147,4.863,2.019,3.454Z"/><path class="c" d="M202.207,154.89c.342,4.733,5.426,4.822,9.041,4.286,3.842-.57,7.479-2,11.293-2.71,6.671-1.242,13.661-1.377,20.433-1.4a71.242,71.242,0,0,1,19.094,2.479c2.586.7,6,1.529,8.412-.1,2.639-1.788,3.372-5.964,1.023-8.274-1.837-1.806-4.667,1.02-2.828,2.828a1.466,1.466,0,0,1-.119,1.825c-.451.607-1.278.558-1.969.53-2.31-.094-4.593-1.016-6.827-1.535a73.428,73.428,0,0,0-17.218-1.746,143.78,143.78,0,0,0-17.737,1.025,105.831,105.831,0,0,0-11.38,2.577,21.365,21.365,0,0,1-5.156.783,3.6,3.6,0,0,1-1.91-.292c.405.177-.1-.07-.137-.114.23.247.031-.005-.08-.118.271.276.071.1.045,0,.149.595-.019-.573.02-.035-.184-2.552-4.186-2.572-4,0Z"/><path class="c" d="M230.055,183.447a12.822,12.822,0,0,0,6.168,1.437,10.142,10.142,0,0,0,6.315-1.9,2,2,0,0,0,0-2.829,2.062,2.062,0,0,0-2.828,0c.685-.534-.071.017-.291.133-.17.089-.637.229-.025.031-.17.055-.335.129-.506.184-.216.07-.435.129-.655.18a3.309,3.309,0,0,0-.762.144c.052-.087.4-.046-.014,0-.139.014-.278.025-.417.034-.335.022-.671.031-1.007.029-.3,0-.6-.012-.9-.033-.138-.009-.276-.02-.413-.034-.079-.008-.157-.016-.236-.026q-.232-.029.158.021a3.811,3.811,0,0,1-1.324-.294c-.185-.056-.366-.122-.549-.185-.464-.158.4.194-.02,0q-.341-.161-.673-.336a2,2,0,0,0-2.019,3.454Z"/><path class="c" d="M235,169.187a27.994,27.994,0,0,1,.656,3l-.072-.532a1.739,1.739,0,0,1,.011.414l.072-.531a1.011,1.011,0,0,1-.046.186l.2-.478a.666.666,0,0,1-.066.12l.313-.405a.642.642,0,0,1-.1.1l.405-.313a1.932,1.932,0,0,1-.238.126l.478-.2a1.707,1.707,0,0,1-.4.117l.532-.071a1.577,1.577,0,0,1-.376,0l.532.071c-.142-.019-.281-.054-.423-.073a1.522,1.522,0,0,0-.8-.036,1.484,1.484,0,0,0-.744.238,2,2,0,0,0-.717,2.736,1.913,1.913,0,0,0,1.195.919c.364.049.716.14,1.087.157a3.561,3.561,0,0,0,1.653-.4,2.489,2.489,0,0,0,1.349-1.628,3.89,3.89,0,0,0-.015-1.7c-.163-.966-.386-1.924-.635-2.872a2,2,0,0,0-2.46-1.4,2.025,2.025,0,0,0-1.2.919,2.1,2.1,0,0,0-.2,1.541Z"/><path class="c" d="M219.582,160.569c-.5,1.628-.174,5.373,2.91,5.692,4.076-.025,4.293-4.552,2.921-6.681C224.289,157.837,220.986,157.112,219.582,160.569Z"/><path class="c" d="M252.224,160.569c.5,1.628.175,5.373-2.909,5.692-4.076-.025-4.293-4.552-2.921-6.681C247.517,157.837,250.821,157.112,252.224,160.569Z"/><path class="b" d="M359.762,391.123c0-2.76,0-52.673.012-57.382,0,0,0-.985.01-2.534h3.942c-.007-2.741,0-5.748.009-10.4,1.784,0-338.736,0-343.675-.017-.01,4.659-.015,7.668-.02,10.408l3.979,0c-.008,5-.013,57.005-.008,59.755Z"/><path class="b" d="M49.267,312.85c0-3.336.032-14.342.032-15.2,9.158,0,87.1.109,99.968.109v14.8Z"/><path class="b" d="M110.609,286.749c0,.824,0,8.1.006,10.97l-22.987-.028c.006-3.549.006-10.3.006-10.81"/><path class="b" d="M55.183,222.658c0,5.614-.047,53.242.01,63.755.737-.021,72.171,0,87.868,0,0-8.522-.333-54.189-.333-63.53C142.208,222.883,60.965,222.658,55.183,222.658Z"/><path class="c" d="M53.183,222.658q0,10.517-.013,21.034-.008,15.609,0,31.216c0,3.835,0,7.67.024,11.5a2.026,2.026,0,0,0,2,2c8.59-.2,17.207-.01,25.8-.009q22.527,0,45.053.007l17.017,0a2.029,2.029,0,0,0,2-2c0-7.5-.067-14.993-.112-22.49q-.091-15.191-.18-30.382c-.018-3.553-.04-7.1-.041-10.658a2.029,2.029,0,0,0-2-2c-9.448-.006-18.9-.051-28.344-.076q-23.08-.063-46.161-.122c-4.347-.01-8.694-.027-13.04-.027-2.574,0-2.579,4,0,4,10.7,0,21.4.048,32.1.076l45.1.121c3.446.01,6.892.026,10.338.028l-2-2c0,7.691.066,15.383.112,23.074q.09,15.111.179,30.22c.019,3.412.041,6.824.042,10.236l2-2q-18.246,0-36.492-.006-21.02,0-42.039,0c-3.11,0-6.228-.065-9.337.008l2,2c-.043-8.177-.028-16.354-.028-24.531q0-15.122.012-30.244,0-4.491.006-8.98C57.183,220.084,53.183,220.079,53.183,222.658Z"/><path class="f" d="M64.566,233.689c.019,7.706.108,32.727.148,41.483a1.988,1.988,0,0,0,2,1.984c9.836-.048,52.991-.181,65.5-.2a1.989,1.989,0,0,0,1.99-2c-.025-8.7-.172-33.212-.2-41.149a1.988,1.988,0,0,0-1.989-1.985c-10.027-.021-55.032-.118-65.453-.135A1.992,1.992,0,0,0,64.566,233.689Z"/><path class="c" d="M361.762,391.123q-.015-9.633,0-19.266,0-14.715.006-29.428,0-4.344.007-8.688c.007-2.574-3.993-2.578-4,0q-.025,10.329-.01,20.658,0,14.52,0,29.039,0,3.843,0,7.685c0,2.574,4,2.578,4,0Z"/><path class="c" d="M18.06,320.786q-.012,5.2-.02,10.408a2.03,2.03,0,0,0,2,2c3.39.009,6.781,0,10.172,0q12.666,0,25.333,0l37.114,0,44.677,0H349.1q6.929,0,13.857,0h.765a2.03,2.03,0,0,0,2-2c-.008-3.468,0-6.935.009-10.4l-2,2h.007c2.574-.01,2.578-3.994,0-4-3.033-.007-6.066,0-9.1,0H199.766l-49.665,0-46.338,0-39.451,0-28.909,0q-7.222,0-14.445,0h-.9c-2.574-.006-2.578,3.994,0,4,3.463.008,6.926,0,10.389,0l25.763,0,37.222,0,45.012,0,49.243,0H349.958c4.378,0,8.852.269,13.224,0,.185-.011.374,0,.56,0v-4h-.007a2.03,2.03,0,0,0-2,2c-.008,3.468-.017,6.935-.009,10.4l2-2q-4.915.007-9.831,0H149.038l-46.174,0-39.227,0-28.562,0q-7.091,0-14.18,0H20.04l2,2q.011-5.2.02-10.408C22.065,318.212,18.065,318.208,18.06,320.786Z"/><path class="c" d="M51.267,312.85c0-5.067.03-10.134.032-15.2l-2,2q17.146,0,34.291.037,24.575.03,49.151.058,8.263.009,16.526.014l-2-2v14.8c0,2.574,4,2.578,4,0v-14.8a2.029,2.029,0,0,0-2-2q-18.471,0-36.943-.037l-48.41-.059q-7.308-.007-14.615-.013a2.03,2.03,0,0,0-2,2c0,5.067-.031,10.134-.032,15.2,0,2.574,4,2.578,4,0Z"/><path class="c" d="M85.634,286.881v10.162a2,2,0,0,0,4,0V286.881a2,2,0,0,0-4,0Z"/><path class="c" d="M108.609,286.749v10.294a2,2,0,0,0,4,0V286.749a2,2,0,0,0-4,0Z"/><path class="c" d="M26.011,390.951q-.016-10.062,0-20.125,0-15.38.007-30.758,0-4.464.007-8.929c.006-2.574-3.994-2.578-4,0-.018,7.172-.009,14.344-.011,21.517q0,15.183,0,30.366,0,3.965,0,7.929c0,2.573,4,2.578,4,0Z"/><path class="b" d="M2.087,3.174c-.014,9.982-.179,62.66.029,76.335a1.047,1.047,0,0,0,1.055,1.038c19.765-.021,309.676,0,377.545,0a1.056,1.056,0,0,0,1.054-1.067c-.081-12.049-1.354-63.359-1.429-76.044a1.051,1.051,0,0,0-1.052-1.052c-20.9-.014-344.65-.257-376.142-.263A1.054,1.054,0,0,0,2.087,3.174Z"/><path class="f" d="M.087,3.174C.062,20.906,0,38.638.013,56.37q0,7.033.03,14.066.012,2.641.031,5.284c.012,1.445-.272,3.347.2,4.728,1,2.928,5.91,2.1,8.4,2.1q13.782,0,27.565,0h99.246l60.8,0,60.78,0,55.954,0,44.918,0h16.9c2.128,0,6.158.7,7.842-.743,1.409-1.2,1.09-3.191,1.068-4.856s-.049-3.313-.077-4.97c-.344-19.877-.861-39.751-1.2-59.629q-.047-2.682-.084-5.366c-.018-1.37.25-3.179-.192-4.49C381.455.331,379.4.386,377.568.385L369.5.379,340.044.357,296.69.325,244.165.287,187.4.246,130.488.205,78.95.169,36.917.141,9.307.125C6.581.124.868-.848.159,2.643-.352,5.156,3.5,6.231,4.016,3.706c-.345,1.695-1.151.153-.565.417.088.039.265-.012.362,0a6.683,6.683,0,0,0,.788,0H6.374l4.393,0,12.114.007,35.74.022,47.224.033,54.184.038,56.418.041L271,4.306l47.957.036,36.732.027,21.308.015h1.3a2.2,2.2,0,0,0,.507,0c.053-.014.209.034.253,0,.4-.3-.865-.639-.715-.758-.386.306.04,3.639.047,4.182q.04,2.793.092,5.586.266,14.974.607,29.949c.2,9.6.416,19.2.581,28.8q.043,2.465.077,4.929a7.209,7.209,0,0,0,.02,1.852c.024.07-.043.344,0,.379l.768-.752h-.179c-.145-.1-.726,0-.911,0h-6.955l-38.283,0-50.766,0-58.639,0-60.479,0-57.762,0H56.95q-18.077,0-36.151,0l-11.555,0H4.05a2.044,2.044,0,0,0-.547,0c-.051.017-.186-.034-.226,0-.312.257,1.874-.119.836.763.071-.06-.025-.542-.009-.628a25.1,25.1,0,0,0-.04-4.393q-.019-2.808-.028-5.616-.025-7.143-.024-14.287-.006-15.57.032-31.14.021-10.036.043-20.072C4.091.6.091.6.087,3.174Z"/><path class="f" d="M149.75,32.147a34.034,34.034,0,0,0,.516,5.5c.36,2.578.808,5.143,1.287,7.7.988,5.277,2.073,10.558,3.479,15.741.388,1.428.72,3.4,1.637,4.6a2.066,2.066,0,0,0,2.737.718,2.014,2.014,0,0,0,.717-2.737,2.614,2.614,0,0,1-.226-.391c-.213-.411.117.334.015.038-.052-.149-.111-.294-.164-.442-.267-.752-.488-1.521-.7-2.29-.631-2.253-1.168-4.532-1.681-6.814-1.2-5.315-2.268-10.672-3.077-16.061a31.816,31.816,0,0,1-.537-5.563c.062-2.575-3.938-2.574-4,0Z"/><path class="f" d="M187.689,32.147a18.074,18.074,0,0,1-.095,2.041c-.084.919-.22,2-.309,2.612-.366,2.549-.807,5.088-1.282,7.619-.97,5.164-2.036,10.331-3.4,15.407-.252.939-.513,1.878-.826,2.8-.079.235-.478,1.11-.162.493a3.5,3.5,0,0,1-.3.552,2.013,2.013,0,0,0,.717,2.737,2.05,2.05,0,0,0,2.736-.718,12,12,0,0,0,1.432-3.86c.641-2.268,1.183-4.565,1.7-6.864,1.226-5.434,2.324-10.912,3.141-16.423a37.964,37.964,0,0,0,.645-6.4c-.062-2.57-4.063-2.58-4,0Z"/><path class="f" d="M181.891,62.885c-.181.136-.353.095.188-.044-.12.03-.232.09-.355.113-.288.054-.573.121-.862.172-.305.054.334-.028-.251.033-.177.018-.354.038-.531.055-.535.051-1.071.088-1.607.12-2.447.144-4.9.163-7.352.144-2.528-.02-5.058-.089-7.582-.237-1.027-.06-2.054-.131-3.076-.239-.192-.02-.383-.042-.575-.065-.121-.015.367.07-.112-.017-.284-.052-.568-.1-.848-.169-2.493-.651-3.556,3.206-1.063,3.857a28.539,28.539,0,0,0,5.442.619c2.692.164,5.391.236,8.088.253,2.569.016,5.147-.005,7.711-.187,1.445-.1,3.579-.035,4.8-.954a2.063,2.063,0,0,0,.718-2.736,2.015,2.015,0,0,0-2.737-.718Z"/><path class="f" d="M181.857,37.917c2.573,0,2.578-4,0-4s-2.578,4,0,4Z"/><path class="f" d="M158.5,38.144c3.689,2.2,8.661,2.9,12.877,2.743a28.345,28.345,0,0,0,7.089-1.148,12.092,12.092,0,0,0,4.8-2.408c1.894-1.752-.94-4.575-2.829-2.829-.153.142-.024.069-.4.287a9.733,9.733,0,0,1-.905.474,15.415,15.415,0,0,1-2.244.766,23.968,23.968,0,0,1-5.934.869c-3.411.067-7.451-.429-10.442-2.208-2.218-1.319-4.232,2.138-2.019,3.454Z"/><path class="f" d="M23.572,33.509c-.537-.739.187-2.191.673-3a8.7,8.7,0,0,1,3.716-2.8,26.162,26.162,0,0,1,10.848-2.485c7.608-.338,15.475-.72,22.518,2.738A8.453,8.453,0,0,1,64.7,30.49a4.594,4.594,0,0,1,.371,3.98c-.68,2.486,3.178,3.547,3.857,1.063a8.613,8.613,0,0,0-3.433-9.756C61.959,23.213,57.146,21.986,52.9,21.4A77.721,77.721,0,0,0,39,21.213,30.514,30.514,0,0,0,25.37,24.555a10.932,10.932,0,0,0-4.951,4.62c-.917,1.878-1.655,4.487-.3,6.353a2.058,2.058,0,0,0,2.736.718,2.016,2.016,0,0,0,.718-2.737Z"/><path class="f" d="M20.2,35.79c1.149,1.738,3.221,2.564,5.123,3.2a46.385,46.385,0,0,0,8.248,1.75,93.493,93.493,0,0,0,20.268.731,29.239,29.239,0,0,0,8.628-1.636,2.065,2.065,0,0,0,1.4-2.46,2.014,2.014,0,0,0-2.461-1.4,23.382,23.382,0,0,1-6.409,1.388,77.421,77.421,0,0,1-9.2.323A74.448,74.448,0,0,1,27.978,35.6c-.6-.159-1.194-.334-1.781-.535-.264-.09-.526-.186-.787-.286-.054-.021-.4-.165-.165-.064s-.172-.079-.217-.1c-.394-.2-.766-.411-1.142-.639-.288-.174.063.055.1.09a3.1,3.1,0,0,0-.26-.228,1.993,1.993,0,0,1-.15-.155c-.261-.224.265.381.071.089-1.413-2.138-4.878-.137-3.453,2.019Z"/><path class="f" d="M18.239,38.144c-2.765,1.535-4.523,4.7-2.933,7.735,1.539,2.941,5.478,3.282,8.409,3.679a108.611,108.611,0,0,0,11.1.7c3.531.114,7.067.225,10.6.157,2.571-.05,2.579-4.05,0-4-5.7.109-11.46-.055-17.146-.41a48.5,48.5,0,0,1-4.828-.5,18.709,18.709,0,0,1-4.063-.952,1.323,1.323,0,0,1-.683-1.021c-.058-.856.751-1.484,1.561-1.934,2.251-1.249.236-4.7-2.019-3.454Z"/><path class="f" d="M21.765,50.91c-2.483,1.363-2.657,4.951-1.463,7.237,1.289,2.466,4.391,2.7,6.857,2.927,3.592.329,7.228.225,10.83.2,8.117-.046,16.233-.164,24.349-.222,2.173-.016,4.377-.249,5.874-2.029a5.431,5.431,0,0,0-.322-7.207c-1.761-1.886-4.585.947-2.829,2.828a1.3,1.3,0,0,1-.379,2.165,7.362,7.362,0,0,1-2.938.248q-4.669.038-9.341.093c-6.856.069-13.718.2-20.575.13a35.542,35.542,0,0,1-6.463-.452,10.9,10.9,0,0,1-1.289-.331c-.323-.142-.168-.1-.072,0-.2-.208-.121-.1-.246-.389a2.568,2.568,0,0,1-.149-1.409c.047-.213.111,3.343.083-.26q-.084.117.115-.2-.448.387-.023.115c2.258-1.238.242-4.694-2.019-3.454Z"/><path class="f" d="M87.644,27.161c8,.017,16-.083,24-.058,2.575.009,2.578-3.991,0-4-8-.025-16,.075-24,.058-2.574-.005-2.578,3.995,0,4Z"/><path class="f" d="M87.644,39.989c4.186,0,8.372-.068,12.558-.069a2,2,0,0,0,0-4c-4.186,0-8.372.068-12.558.069a2,2,0,0,0,0,4Z"/><path class="f" d="M87.644,52.736c5.994,0,11.989.079,17.984.082,2.574,0,2.578-4,0-4-6,0-11.99-.079-17.984-.082-2.574,0-2.578,4,0,4Z"/><path class="f" d="M334.894,27.161c8,.017,16-.083,24-.058,2.574.009,2.578-3.991,0-4-8-.025-16,.075-24,.058-2.574-.005-2.578,3.995,0,4Z"/><path class="f" d="M334.894,39.989c6.193,0,12.385-.068,18.577-.069,2.574,0,2.578-4,0-4-6.192,0-12.384.068-18.577.069-2.573,0-2.578,4,0,4Z"/><path class="f" d="M334.894,52.736c3.989,0,7.977.08,11.966.082a2,2,0,0,0,0-4c-3.989,0-7.977-.08-11.966-.082a2,2,0,0,0,0,4Z"/><path class="f" d="M126.562,2.09V79.469c0,2.574,4,2.578,4,0V2.09c0-2.574-4-2.578-4,0Z"/><path class="f" d="M253.011,2.09V79.469c0,2.574,4,2.578,4,0V2.09c0-2.574-4-2.578-4,0Z"/><path class="f" d="M211.339,27.161c8,.017,16-.083,24-.058,2.574.009,2.578-3.991,0-4-8-.025-16,.075-24,.058-2.574-.005-2.577,3.995,0,4Z"/><path class="f" d="M211.339,39.989c4.186,0,8.372-.068,12.559-.069a2,2,0,0,0,0-4c-4.187,0-8.373.068-12.559.069a2,2,0,0,0,0,4Z"/><path class="g" d="M49.876,45.44c.824,2.141,1.632,4.291,2.531,6.4a1.939,1.939,0,0,0,1.727.99A65.8,65.8,0,0,0,65.187,51.07c3.343-.74,6.694-1.547,9.956-2.6a2.065,2.065,0,0,0,1.4-2.46,12.828,12.828,0,0,0-2.209-4.6,17.725,17.725,0,0,0-3.006-3.766c-1.946-1.665-4.789,1.152-2.828,2.828a13.843,13.843,0,0,1,2.38,2.957,10.244,10.244,0,0,1,1.806,3.649l1.4-2.46c-3.161,1.017-6.406,1.8-9.645,2.528a60.557,60.557,0,0,1-10.3,1.689l1.727.991c.163.382-.121-.3-.119-.3-.084-.208-.167-.415-.25-.623-.209-.525-.414-1.05-.619-1.576q-.574-1.475-1.14-2.953a2.058,2.058,0,0,0-2.46-1.4,2.015,2.015,0,0,0-1.4,2.461Z"/><path class="f" d="M306.373,64.219c1.7-10.832,2.848-21.789,4.048-32.684.2-1.793.452-3.6.524-5.405.1-2.575-3.9-2.57-4,0-.168,4.2-.857,8.422-1.348,12.59q-1.095,9.291-2.284,18.57-.135,1.042-.271,2.084c-.041.311-.083.621-.124.932-.08.605.014-.094-.064.479-.108.791-.215,1.582-.338,2.37a2.064,2.064,0,0,0,1.4,2.461,2.016,2.016,0,0,0,2.46-1.4Z"/><path class="f" d="M284.324,62.6c-.3-1.931-.42-2.977-.65-4.731q-.555-4.225-1.084-8.455c-.757-6.007-1.5-12.017-2.179-18.035-.195-1.74-.446-3.5-.516-5.246-.1-2.566-4.1-2.579-4,0,.17,4.224.881,8.477,1.386,12.67q1.11,9.221,2.31,18.43c.28,2.144.547,4.292.876,6.43a2.015,2.015,0,0,0,2.46,1.4,2.05,2.05,0,0,0,1.4-2.46Z"/><path class="f" d="M282.391,65.984c3.689.162,7.395.123,11.087.095a91.819,91.819,0,0,0,10.966-.392,2.064,2.064,0,0,0,2-2,2.012,2.012,0,0,0-2-2,91.812,91.812,0,0,1-10.966.392c-3.692.028-7.4.067-11.087-.095-2.574-.113-2.569,3.887,0,4Z"/><path class="f" d="M279.75,39.7c8.543-.152,17.089-.49,25.634-.5,2.574,0,2.578-4,0-4-8.545.009-17.091.347-25.634.5-2.571.045-2.579,4.046,0,4Z"/><path class="f" d="M281.174,52.409c7.7-.138,15.394-.49,23.092-.5,2.574,0,2.578-4,0-4-7.7.009-15.4.361-23.092.5-2.571.046-2.579,4.046,0,4Z"/><path class="f" d="M277.955,27.877c8.8-.2,17.6-.188,26.4-.238,1.42-.008,2.84-.019,4.261-.019,2.574,0,2.578-4,0-4-8.419,0-16.839.091-25.258.181-1.8.019-3.6.035-5.4.076-2.57.058-2.579,4.058,0,4Z"/><path class="f" d="M279.884,25.861c.316-1.411.522-2.844.873-4.247a10.637,10.637,0,0,1,.548-1.734c.38-.848.145.407-.914.144A1.459,1.459,0,0,0,280.7,20c1.713,0,3.443-.147,5.158-.183q7.878-.162,15.762-.1c1.036.01,2.073.022,3.109.054.364.011.727.029,1.09.046.11,0,.224.026.334.024.416-.009-.494-.087-.222-.03l-1.2-.92a35.543,35.543,0,0,1,2.229,6.654c.587,2.5,4.445,1.445,3.857-1.063a41.659,41.659,0,0,0-2.19-6.6c-.373-.887-.725-1.706-1.762-1.952a7.171,7.171,0,0,0-1.2-.124c-2.444-.138-4.9-.1-7.351-.107-5.773,0-11.613-.123-17.376.28a3.765,3.765,0,0,0-3.489,2.8,39.609,39.609,0,0,0-1.422,6.02c-.563,2.508,3.293,3.578,3.857,1.064Z"/><path class="g" d="M158.612,25.639c.492.613.151.2.044.031-.084-.131-.162-.266-.238-.4-.177-.32-.336-.651-.485-.985-.041-.092-.078-.186-.121-.277.085.179.171.413.042.094-.074-.183-.146-.366-.215-.551-.157-.415-.3-.835-.44-1.257a24.065,24.065,0,0,1-.657-2.419q-.059-.274-.106-.551c-.015-.086-.028-.173-.042-.259-.052-.325.055.545.029.207a5.851,5.851,0,0,1-.03-.8,2.01,2.01,0,0,0-2-2,2.047,2.047,0,0,0-2,2,9.22,9.22,0,0,0,.272,2.377,23.8,23.8,0,0,0,.712,2.62,15.633,15.633,0,0,0,2.406,5.006,2.007,2.007,0,0,0,2.829,0,2.06,2.06,0,0,0,0-2.829Z"/><path class="g" d="M160.827,22.507a62.585,62.585,0,0,0,2.31,7.434,2,2,0,0,0,1.195.919,2.043,2.043,0,0,0,1.541-.2,2.017,2.017,0,0,0,.919-1.2,2.328,2.328,0,0,0-.2-1.541c-.1-.238.2.5.125.3-.018-.048-.038-.1-.056-.144-.037-.1-.072-.193-.107-.291-.085-.239-.165-.48-.242-.722-.192-.6-.371-1.207-.546-1.814-.365-1.267-.711-2.539-1.081-3.8a2,2,0,0,0-3.857,1.063Z"/><path class="g" d="M177.438,19.951c-.877,3.158-1.478,6.394-2.465,9.522a2.018,2.018,0,0,0,1.4,2.46,2.043,2.043,0,0,0,2.46-1.4c.988-3.128,1.588-6.363,2.465-9.522a2,2,0,1,0-3.857-1.063Z"/><path class="g" d="M168.69,24.194a30.724,30.724,0,0,0,.418,3.049c.134.714.283,1.426.381,2.147l-.072-.532c.03.228.055.455.075.684a2.137,2.137,0,0,0,.586,1.414,2,2,0,0,0,2.828,0,1.96,1.96,0,0,0,.586-1.414c-.138-1.6-.534-3.148-.75-4.733l.071.531q-.075-.572-.123-1.146a2.145,2.145,0,0,0-.586-1.415,2,2,0,0,0-2.828,0,1.964,1.964,0,0,0-.586,1.415Z"/><path class="g" d="M183.147,23.888c-.415,1.227-.85,2.453-1.354,3.646l.2-.478c-.045.107-.092.214-.14.319a1.492,1.492,0,0,0-.237.744,1.512,1.512,0,0,0,.035.8,2.041,2.041,0,0,0,.919,1.2,2.016,2.016,0,0,0,1.542.2,1.952,1.952,0,0,0,1.195-.919A46.426,46.426,0,0,0,187,24.951a2,2,0,0,0-2.938-2.258,2.191,2.191,0,0,0-.919,1.2Z"/></svg>