<?xml version="1.0" encoding="utf-8"?>
<!-- Uploaded to: SVG Repo, www.svgrepo.com, Generator: SVG Repo Mixer Tools -->
<svg width="800px" height="800px" viewBox="-136.82 0 445.619 445.619" xmlns="http://www.w3.org/2000/svg"><defs><style>.a{fill:#ffffff;}.b{fill:#89705d;}.c{fill:#f2635f;}.d{fill:#211715;}</style></defs><path class="a" d="M105.534,240.117c.187,7.434-4.619,64.174-6,71.87v1.02c0,7.3-1.81,35.811-4.7,60.488-.192-.007-.386-.01-.583-.011-5.792-.028-11.912.071-17.7.043a5.281,5.281,0,0,0-3.06.707c-.8-23.157-1.811-52.224-.607-62.377a49.53,49.53,0,0,0-.76-8.41c-2.41-16.82-3.03-58.45-3.69-63.19"/><path class="a" d="M68.024,240.257c-.65,4.71-.77,46.26-2.12,62.15-.2,2.39-.88,6.03-.77,8.42,1.01,9.771-.171,39.512-1.051,63.142a6.243,6.243,0,0,0-2.381-.359c-5.789,0-11.908-.128-17.7-.128-.412,0-.814.011-1.2.045-2.762-24.067-5.185-53.276-4.814-60.52v-1.1c-1.3-7.44-6.18-64.24-6-71.35"/><path class="b" d="M93.764,100.787c7.86,3.03,14.24-4.02,14.19-9.93a30.873,30.873,0,0,0-1.69-9.9,83.019,83.019,0,0,1-3.82-19.21l-68.38,1.44a85.825,85.825,0,0,1-2.04,15.79,64.941,64.941,0,0,0-1.74,13.11c-.05,5.91,5.91,12.4,14.7,10.4Z"/><path class="a" d="M92.467,100.522c-.277-.112-8.054-3.759-8.236-3.823-2.74-.973-2.642-2.732-3-4.7a39.078,39.078,0,0,1-.642-6.216c7.174-3.158,12.93-12.8,13.939-15.533.153-.464.465-1.339.748-2.38l.573-.088a7.269,7.269,0,0,0,3.383-1.525,10.972,10.972,0,0,0,2.837-3.723,17.262,17.262,0,0,0,1.76-9.15,5.76,5.76,0,0,0-.6-2.317,4.075,4.075,0,0,0-2.93-1.948,4.314,4.314,0,0,0-3.452,1.01s-1.69-24.018-31.978-24.018c-25.844,0-25.928,24.018-25.928,24.018a4.314,4.314,0,0,0-3.452-1.01,4.073,4.073,0,0,0-2.929,1.948,5.744,5.744,0,0,0-.6,2.317,17.253,17.253,0,0,0,1.76,9.15,10.96,10.96,0,0,0,2.837,3.723,7.266,7.266,0,0,0,3.382,1.525l1.1.169a29.4,29.4,0,0,0,5.6,10.921,24.668,24.668,0,0,0,9.225,7.158,38.883,38.883,0,0,1-.569,6.114c-.334,1.969-.216,3.727-2.946,4.73-.18.066-8.808,4.161-9.334,4.344,0,0,2.749,20,24.082,20S92.467,100.522,92.467,100.522Z"/><path class="c" d="M38.774,383.807c.32,6.6.35,21.44-.32,24.47-1.5,4.68-5.24,9.33-6.88,11.41q-2.7,3.435-5.26,7.01a21.81,21.81,0,0,0-3.34,5.97,7.915,7.915,0,0,0,.59,6.63c.1.14.2.28.3.41a9.07,9.07,0,0,0,3.29,2.48,17.633,17.633,0,0,0,15.3-.67c4.17-2.48,6.6-5.03,9.85-8.71a73.591,73.591,0,0,1,6.49-6.62c2.12-1.85,5.01-3.22,5.97-5.87a12.758,12.758,0,0,0,.88-3.73s-.01-1.1-.02-2.74c-.07-.58-.07-2.23-.07-2.81-.09-8.33-.02-21.67.04-27.99"/><path class="c" d="M72.3,382.134v.01c.093,5.77.253,20.2.211,29.011,0,.58.01,2.23-.053,2.81,0,1.64,0,2.74,0,2.74a12.352,12.352,0,0,0,.9,3.724c.967,2.645,3.871,4,6,5.839a73.69,73.69,0,0,1,6.519,6.582c3.272,3.665,5.72,6.2,9.9,8.657a17.613,17.613,0,0,0,15.308.583,8.971,8.971,0,0,0,3.272-2.494q.15-.194.3-.419a7.91,7.91,0,0,0,.551-6.627,21.825,21.825,0,0,0-3.371-5.956q-2.578-3.552-5.3-6.976c-1.65-2.068-5.418-6.7-6.945-11.373-.686-3.023-.745-17.864-.463-24.463"/><path class="a" d="M95.706,243c11.455,2.618,25.9,1.931,37.032-2.136,14.54-5.311,23.457-12.325,31.111-25.778,4.407-7.744,7.112-17.333,5.778-32-2.534-27.876-10.741-49.058-24.889-65.778-14.666-17.333-25.185-25.926-34.963-28.593l-8.463,15.174Z"/><path class="d" d="M107.292,90.156c11.157,2.53,19.987,11.01,27.672,19.164a139.128,139.128,0,0,1,14.266,17.206,96.9,96.9,0,0,1,9.429,17.616,120.824,120.824,0,0,1,6.239,20.582,130.758,130.758,0,0,1,3.048,23.852,51.285,51.285,0,0,1-3.131,19.921,53.789,53.789,0,0,1-9.683,15.622c-9.121,10.4-23.011,16.449-36.6,17.977-2.189.247-4.387.386-6.589.441-2.57.065-2.58,4.066,0,4,15.206-.385,31.1-5.449,42.438-15.914a54.412,54.412,0,0,0,17.359-34.885c.725-8.39-.348-16.92-1.7-25.2a131.11,131.11,0,0,0-5.554-22.249,105.42,105.42,0,0,0-8.976-19.339,119.851,119.851,0,0,0-13.43-17.759A130.626,130.626,0,0,0,126.218,95.6a48.25,48.25,0,0,0-13.866-8.168,35.311,35.311,0,0,0-4-1.132c-2.506-.569-3.577,3.287-1.063,3.857Z"/><path class="c" d="M75.866,101.273l19.262.029c2.918.349,12.438,4.636,17.256,9.744,4.155,4.4,7.04,10.951,9.095,16.637a98.834,98.834,0,0,1,5.334,20.167c.475,3.457,1.333,10.471.973,15.1a11.787,11.787,0,0,1-6.6,9.491c-1.754.913-6.469.2-8.3-.543-3.836-1.555-9.219-6.038-11.852-9.307l-.623-.708q-.095,2.934-.12,5.908a162.8,162.8,0,0,0,1.981,20.846H34.781c-.784,5.256-1.63,10.584-2.357,15.555l-2.379,12.4c-5.211-.035-11.449-.5-16.234-.693-.6-.023-1.314-.555-1.216-1.142,2.535-15.193,2.995-51.458,5.8-80.86.509-5.343,1.334-14.67,7.192-21.224,5.3-5.929,13.791-11.021,17.018-11.443Z"/><path class="d" d="M42.073,99.294a15.512,15.512,0,0,0-4.6,1.753,44.944,44.944,0,0,0-5.914,3.692c-4.115,3-8.076,6.495-10.573,11-4.588,8.271-4.689,18.417-5.4,27.612-1.581,20.457-1.992,41-3.806,61.438-.18,2.022-.381,4.043-.627,6.058-.211,1.718-1.2,4.48.274,5.987,1.127,1.154,2.651,1.067,4.144,1.139,1.552.075,3.1.162,4.655.245,3.272.175,6.545.341,9.822.37,2.575.023,2.577-3.977,0-4-2.835-.025-5.667-.153-8.5-.3q-2.062-.108-4.125-.221-1.028-.054-2.055-.1c-.263-.012-.526-.027-.789-.036-.824-.028-.331-.086-.242.1l.273,1.009a28.5,28.5,0,0,1,.51-3.943c.188-1.514.349-3.032.5-4.551.342-3.555.6-7.116.84-10.679.579-8.751,1-17.512,1.476-26.27.511-9.448,1.057-18.9,1.818-28.33.6-7.474.755-15.66,4.165-22.51,2.167-4.352,5.773-7.727,9.662-10.56a45.688,45.688,0,0,1,5.644-3.552,12.54,12.54,0,0,1,3.917-1.49,2.014,2.014,0,0,0,1.4-2.46,2.052,2.052,0,0,0-2.46-1.4Z"/><path class="a" d="M23.941,218.083c-.263,6.539-3.248,16.055-4.569,22.439-.342,1.651-1.835,2.273-2.762.78-.443-.714-2.231-4.262-2.824-5.044-.769,2.572-.993,3.016-1.438,4.753-1.422,5.552-1.654,7.218-2.336,10.986-.293,1.62-.733,2.814-1.251,2.974-1.835.568-3.818.325-4.942-1.362a11.162,11.162,0,0,1-1.888-5.619,57.963,57.963,0,0,1,.976-9.137,30.447,30.447,0,0,1,3.338-8.1c3.127-5.276,5.708-9.3,7.562-15.122"/><path class="d" d="M21.941,218.083c-.263,5.634-1.912,11.182-3.264,16.628-.327,1.318-.651,2.637-.949,3.963a5.735,5.735,0,0,0-.375,1.654q-.139.179,0,.015.3-.394.922-.089a.417.417,0,0,1-.076-.2,11.562,11.562,0,0,0-1.291-2.4,21.821,21.821,0,0,0-1.4-2.413,2.03,2.03,0,0,0-3.656.477c-1.1,3.66-2.155,7.3-2.91,11.05-.34,1.688-.585,3.4-.938,5.081-.1.468-.168,1.132-.529,1.342a1.531,1.531,0,0,1-1.934-.6c-2.247-2.932-1.611-6.774-1.2-10.155a28.188,28.188,0,0,1,3.855-11.079c2.9-4.905,5.762-9.752,7.531-15.206.795-2.455-3.066-3.506-3.858-1.063C10.119,220.524,7.1,225.206,4.3,230.123a30.9,30.9,0,0,0-3.316,8.2,44.055,44.055,0,0,0-.735,5.027c-.477,4.221-.553,8.969,2.637,12.282a5.588,5.588,0,0,0,6.945.855c1.959-1.282,2.108-3.924,2.483-6.013a122.454,122.454,0,0,1,3.405-13.682l-3.655.477c1.31,1.826,1.9,4.42,3.564,5.963a3.251,3.251,0,0,0,4.531-.062c1.179-1.171,1.309-2.93,1.67-4.467,1.591-6.788,3.79-13.609,4.117-20.618.12-2.574-3.88-2.567-4,0Z"/><path class="a" d="M12.757,204.892a6.239,6.239,0,0,0-2.259,1.963c-.153.2-2.443,3.3-1.3,6.188a4.851,4.851,0,0,0,3.666,2.849c4.318.863,15.333,1.222,17.8.115.144-.782,1.311-10,1.311-10-3.222-.111-8.333-.778-12.37-1C15.167,204.758,14.222,204.175,12.757,204.892Z"/><path class="d" d="M11.747,203.165c-3.3,1.766-5.62,6.2-4.636,9.908,1.208,4.548,6.023,5.025,9.944,5.351a62.233,62.233,0,0,0,10.92.11c1.329-.125,3.646-.194,4.42-1.517a9.37,9.37,0,0,0,.59-3.293q.511-3.858.994-7.721c.139-1.1-1.03-1.962-2-2-4.015-.156-8-.733-12.011-.979-2.671-.164-5.688-1.038-8.221.141a2.016,2.016,0,0,0-.717,2.736,2.046,2.046,0,0,0,2.736.718c-.45.209.118-.029.23-.056.3-.073-.369-.038.2-.015.5.02,1,.049,1.5.1,1.666.18,3.329.3,5,.419,3.763.261,7.509.786,11.279.932l-2-2q-.289,2.3-.586,4.593-.215,1.663-.434,3.326c-.012.1-.1.766-.037.279q-.039.294-.08.588c-.033.229-.063.459-.1.687l1.4-1.4a5.29,5.29,0,0,1-.932.279c-.236.05-.474.09-.713.124.377-.054-.221.023-.294.03-1.185.111-2.371.164-3.56.181a77.16,77.16,0,0,1-8.258-.329c-1.751-.164-5.075-.14-5.469-2.59-.334-2.081,1.24-4.291,2.856-5.155C16.037,205.405,14.019,201.951,11.747,203.165Z"/><path class="d" d="M29.984,240.557c-.128,5.619.54,11.327.954,16.921q1.024,13.837,2.276,27.658c.678,7.593,1.353,15.192,2.235,22.765.137,1.179.282,2.357.45,3.532a19.088,19.088,0,0,1,.048,3.016c-.029,4.289.272,8.589.555,12.866.9,13.614,2.2,27.207,3.686,40.768q.3,2.7.606,5.4a2.06,2.06,0,0,0,2,2,2.013,2.013,0,0,0,2-2c-1.59-13.879-2.951-27.791-3.98-41.723-.365-4.944-.713-9.9-.838-14.855-.037-1.465,0-2.925.008-4.39a13.167,13.167,0,0,0-.2-1.963c-.029-.195-.055-.391-.082-.586-.017-.116.063.5.013.095-.017-.137-.036-.274-.053-.41-.887-6.984-1.492-14.009-2.131-21.019q-1.27-13.944-2.347-27.9c-.487-6.368-1.091-12.77-1.2-19.158-.005-.34-.008-.679,0-1.018.058-2.575-3.942-2.574-4,0Z"/><path class="d" d="M103.534,240.117c.128,5.631-.518,11.346-.924,16.954q-1,13.786-2.236,27.556c-.677,7.658-1.355,15.323-2.247,22.96q-.106.919-.223,1.838c-.028.22-.124.93-.038.311-.032.228-.063.456-.1.684a29.042,29.042,0,0,0-.248,3.741c-.075,4.227-.331,8.454-.588,12.673q-1.257,20.655-3.488,41.241-.3,2.718-.612,5.432a2.011,2.011,0,0,0,2,2,2.048,2.048,0,0,0,2-2c1.644-14.086,2.882-28.225,3.826-42.375.325-4.88.626-9.764.8-14.652.027-.773.05-1.546.064-2.319q.009-.478.011-.957c0-.3-.046-.83-.046-.825.038-.973.294-1.989.417-2.954.9-7.066,1.513-14.172,2.154-21.265q1.263-13.964,2.32-27.945c.476-6.345,1.065-12.724,1.156-19.089,0-.337.007-.673,0-1.009-.059-2.57-4.059-2.579-4,0Z"/><path class="d" d="M66.505,240.789c-.126-.93,0,.158.023.394.035.42.062.839.087,1.259.073,1.188.128,2.377.18,3.566.15,3.393.271,6.786.4,10.179.333,8.959.673,17.919,1.184,26.871.24,4.206.514,8.412.886,12.609.361,4.08,1.02,8.114,1.444,12.184.4,3.863-.177,7.751-.284,11.624-.132,4.781-.109,9.567-.052,14.349.162,13.4.65,26.792,1.114,40.183.088,2.567,4.089,2.579,4,0-.417-12.046-.845-24.093-1.054-36.146-.089-5.142-.144-10.286-.069-15.429.053-3.661.4-7.293.535-10.943a49.029,49.029,0,0,0-.844-8.573c-.174-1.231-.389-3.1-.547-4.67-.415-4.124-.708-8.261-.964-12.4-.557-9.035-.915-18.082-1.255-27.128-.151-4.043-.292-8.086-.465-12.128-.1-2.288-.152-4.594-.459-6.866a2.011,2.011,0,0,0-2.46-1.4,2.054,2.054,0,0,0-1.4,2.46Z"/><path class="d" d="M66.084,373.967c.451-12.124.928-24.248,1.224-36.377.214-8.785.549-17.656-.141-26.428A41.149,41.149,0,0,1,67.8,303.4c.187-1.672.285-3.355.387-5.034.239-3.95.393-7.906.527-11.861.307-9.065.483-18.135.673-27.2.087-4.1.169-8.2.292-12.3a66.067,66.067,0,0,1,.341-6.747,2.01,2.01,0,0,0-2-2,2.052,2.052,0,0,0-2,2c-.245,1.836-.243,3.722-.3,5.57-.115,3.5-.19,7.006-.266,10.51-.195,9.048-.362,18.1-.639,27.143-.127,4.154-.273,8.309-.489,12.459-.209,4.043-.69,8.019-1.074,12.046-.343,3.6.2,7.328.245,10.948.067,4.877,0,9.756-.1,14.632-.271,13.472-.813,26.938-1.314,40.4-.1,2.575,3.9,2.571,4,0Z"/><path class="c" d="M35.535,189.558A249.727,249.727,0,0,0,28.72,226.2c-2.343,21.953-3.556,30.687-4.439,51.667-.542,2.284-1.626,13.916-.929,16.128.547,1.738,1.215,2.3,2.865,3.283,1.4.834,7.407,1.37,9.064,1.56,4.313.5,25.669.874,33.378.719,7.692.156,29.078-.222,33.395-.719,1.657-.19,7.021-.584,8.425-1.417,1.65-.98,2.318-1.545,2.865-3.283.7-2.212.412-13.987-.13-16.271-.5-22.265-1.033-28.417-3.9-50.525a356.566,356.566,0,0,0-6.963-37.109"/><path class="d" d="M36.774,383.807c.2,4.246.235,8.5.216,12.751-.011,2.207-.04,4.414-.121,6.62-.031.826-.067,1.652-.122,2.476-.023.34-.048.68-.078,1.02-.018.2-.174,1.172-.059.6a19.96,19.96,0,0,1-3.271,6.675c-1.352,2.044-2.893,3.941-4.389,5.879-2.008,2.6-4.057,5.216-5.823,7.99a13.926,13.926,0,0,0-2.57,8.468c.514,6.2,6.729,8.92,12.238,9.29,5.774.389,10.722-1.848,15.093-5.46,4.618-3.816,7.973-8.913,12.589-12.742,1.945-1.614,4.249-2.863,5.568-5.109a13.189,13.189,0,0,0,1.59-6.744c-.082-10.823-.143-21.646-.041-32.473.024-2.574-3.976-2.576-4,0q-.131,13.839-.044,27.68c.015,1.938.164,3.891.093,5.828a7.384,7.384,0,0,1-2.844,5.583,75.548,75.548,0,0,0-6.132,5.193c-2.073,2.087-3.958,4.342-5.969,6.486-3.325,3.544-7.291,6.947-12.263,7.65-3.863.547-11.1-.149-11.855-5.05-.424-2.741,1.118-5.312,2.6-7.478,1.74-2.551,3.61-5.024,5.512-7.455,1.414-1.807,2.839-3.6,4.1-5.517A23.976,23.976,0,0,0,40.4,408.7a25.509,25.509,0,0,0,.427-4.6c.1-2.239.137-4.481.154-6.722.033-4.523,0-9.055-.211-13.574-.122-2.562-4.123-2.577-4,0Z"/><path class="a" d="M65.573,375.15c-1.048-1.532-2.919-1.54-3.871-1.54-5.789,0-11.908-.128-17.7-.128a6.391,6.391,0,0,0-4.282,1.151,5.541,5.541,0,0,0-1.787,4.953,10.057,10.057,0,0,0,.751,3.71c.724,1.2,2.535,1.33,4.017,1.33,6.095,0,11.8-.142,17.871-.142,1.607,0,4.313.081,5.115-1.6C66.549,381.073,66.342,376.274,65.573,375.15Z"/><path class="d" d="M67.3,374.141c-1.707-2.223-3.9-2.526-6.54-2.532-3.359-.007-6.719-.052-10.079-.086q-2.514-.026-5.027-.038a19.31,19.31,0,0,0-4.474.273,6.825,6.825,0,0,0-5.146,5.714c-.341,2.234-.2,5.715,1.407,7.479,1.883,2.066,5.2,1.682,7.712,1.668,3.441-.019,6.882-.073,10.323-.107,2.731-.026,5.637.256,8.339-.244,2.882-.533,4.052-2.626,4.343-5.345.224-2.1.272-4.909-.858-6.782-1.327-2.2-4.788-.194-3.454,2.019.167.277.036.032.012-.037.045.13.089.262.122.4.059.241.119.488.156.733a14.011,14.011,0,0,1,.1,2.606,6.314,6.314,0,0,1-.284,1.98c-.04.1.083.1-.158.274a2.418,2.418,0,0,1-.894.274,35.439,35.439,0,0,1-5.738.112c-2.636.019-5.271.056-7.907.085-2.485.028-5.059.231-7.537.016-.392-.034-1.06-.037-1.344-.352-.414-.46-.375-1.8-.419-2.393-.132-1.767.141-3.671,2.112-4.192a12.062,12.062,0,0,1,3.114-.178q2.028.006,4.057.025c2.89.026,5.78.065,8.67.086,1.369.01,2.741-.015,4.109.018.582.014,1.435.032,1.83.547a2.068,2.068,0,0,0,2.737.717A2.013,2.013,0,0,0,67.3,374.141Z"/><path class="d" d="M70.3,382.134c-.045,9.467.249,18.937.214,28.4-.017,4.7-.672,9.9,2.941,13.585a25.127,25.127,0,0,0,3.194,2.554A32.221,32.221,0,0,1,80,429.57c2.246,2.172,4.266,4.547,6.4,6.823,3.68,3.922,8.176,7.721,13.6,8.766,5.222,1.007,12.195.284,15.77-4.149,4.387-5.44.361-11.951-3.069-16.606-3.342-4.537-7.3-8.782-9.929-13.8a13.349,13.349,0,0,1-1.336-3.362c-.1-.478.05.472-.009-.069-.019-.177-.038-.353-.055-.53-.04-.413-.072-.827-.1-1.241-.153-2.246-.21-4.5-.25-6.75-.09-4.953-.095-9.919.111-14.87.107-2.573-3.894-2.569-4,0-.17,4.081-.182,8.17-.146,12.254a105.868,105.868,0,0,0,.44,11.137c.523,4.541,3.651,8.67,6.377,12.185,1.673,2.157,3.38,4.284,5.008,6.477,1.729,2.327,3.8,4.787,4.585,7.635.692,2.529.056,4.889-2.226,6.295a13.463,13.463,0,0,1-7.051,1.8c-5.189.013-9.382-2.6-13.027-6.1-4.211-4.046-7.669-8.762-12.425-12.236a17.835,17.835,0,0,1-2.5-2.055,6.838,6.838,0,0,1-1.476-3.105c-.514-1.918-.187-4.034-.178-6,.045-9.978-.258-19.958-.21-29.934.013-2.574-3.987-2.577-4,0Z"/><path class="a" d="M72.672,375.049c1.056-1.528,2.927-1.526,3.879-1.522,5.789.028,11.909-.071,17.7-.043a6.392,6.392,0,0,1,4.276,1.171,5.539,5.539,0,0,1,1.763,4.962,10.069,10.069,0,0,1-.768,3.706c-.731,1.195-2.542,1.318-4.024,1.311-6.095-.029-11.8-.2-17.87-.227-1.607-.008-4.313.059-5.107-1.627C71.668,380.966,71.9,376.168,72.672,375.049Z"/><path class="d" d="M74.087,376.463c1.057-1.364,3.055-.931,4.59-.931,2.643,0,5.287-.018,7.93-.034,2.614-.015,5.232-.062,7.845-.011,1.9.036,3.533.621,3.834,2.708.129.894.175,3.671-.675,4.2a4.494,4.494,0,0,1-2.112.237c-1.463,0-2.927-.022-4.39-.042-4.937-.067-9.912.019-14.844-.206a3.486,3.486,0,0,1-1.853-.374c-.251-.2-.328-.954-.38-1.49a15.042,15.042,0,0,1,.007-2.791,7.75,7.75,0,0,1,.167-1.091c.035-.144.07-.29.116-.431.134-.413-.113.162.077-.151,1.344-2.2-2.114-4.216-3.453-2.019-1,1.644-1.033,4.011-.953,5.871.1,2.215.515,4.571,2.669,5.69,2.193,1.14,5.028.8,7.409.825,3.359.035,6.717.1,10.075.153,1.62.024,3.24.046,4.859.053a10.922,10.922,0,0,0,3.917-.466c2.716-1.025,3.142-3.7,3.347-6.28.22-2.765-.621-5.6-3.039-7.189-2.522-1.657-5.911-1.222-8.775-1.215-3.688.009-7.376.047-11.064.051-2.816,0-6.181-.414-8.133,2.1a2.068,2.068,0,0,0,0,2.829A2.014,2.014,0,0,0,74.087,376.463Z"/><path class="a" d="M24.593,296.148A4.566,4.566,0,0,1,23.352,294c-.684-2.171.348-13.42.9-15.98l.491.066c12.209,1.652,74.308,1.981,88.448-.293.554,2.024.857,14.106.15,16.35-.547,1.738-1.215,2.3-2.865,3.283-1.4.833-6.768,1.227-8.425,1.417-4.317.5-25.7.875-33.395.719-7.709.155-29.065-.223-33.378-.719-1.657-.19-7.66-.726-9.064-1.56A9.443,9.443,0,0,1,24.593,296.148Z"/><path class="d" d="M33.606,189.027a264.415,264.415,0,0,0-6.56,34.29c-1.378,11.547-2.648,23.139-3.587,34.73-.534,6.6-.9,13.209-1.178,19.823l.586-1.414c-1.17,1.1-1.22,3.351-1.389,4.812-.265,2.293-.381,4.607-.424,6.914a28.155,28.155,0,0,0,.273,5.932,7.344,7.344,0,0,0,4.786,5.292,31.692,31.692,0,0,0,7.316,1.236c1.49.164,2.975.312,4.472.394,4.845.265,9.7.356,14.553.442q14.124.252,28.262.064c9.137-.116,18.515.073,27.561-1.443,2.468-.414,5.032-1.474,6.314-3.779a13.551,13.551,0,0,0,1.228-5.58c.19-2.274.278-4.561.267-6.843a21.013,21.013,0,0,0-.507-5.827,3.014,3.014,0,0,0-1.355-1.927l.99,1.727c-.24-10.758-.583-21.506-1.691-32.215-1.3-12.584-2.934-25.173-5.291-37.6-1.166-6.147-2.5-12.261-3.954-18.345-.6-2.5-4.457-1.443-3.857,1.063a356.3,356.3,0,0,1,6.763,35.6c1.42,10.606,2.751,21.24,3.355,31.928.369,6.518.529,13.047.675,19.573a1.991,1.991,0,0,0,.991,1.727,5.657,5.657,0,0,1-.5-.545c-.128-.045-.059-.232-.005.022.023.108.06.214.085.321.05.205.083.415.117.623-.067-.415.046.469.058.618.126,1.485.136,2.98.117,4.469q-.029,2.337-.189,4.672c-.045.653-.1,1.306-.165,1.958-.027.261-.055.523-.089.784.055-.431-.049.311-.071.433-.59,3.13-3.574,3.243-6.3,3.555-2.286.262-4.571.472-6.869.581-12.885.612-25.82.6-38.716.486-6.953-.059-13.915-.157-20.861-.491-2.23-.108-4.441-.319-6.658-.586a33.717,33.717,0,0,1-4.617-.823c-.575-.152-.05.069-.48-.215a9.546,9.546,0,0,1-1-.671,2.973,2.973,0,0,1-.837-1.51c-.061-.2-.088-.525-.035-.107-.032-.252-.052-.5-.071-.758-.05-.681-.068-1.363-.078-2.045-.021-1.555.017-3.112.091-4.665.072-1.519.177-3.039.354-4.551a13.607,13.607,0,0,1,.232-1.439c.041-.194.092-.385.139-.577.02-.08.054-.156.074-.235.1-.381-.2.4-.049.128-.478.886.264-.415.323-.627a10.383,10.383,0,0,0,.142-2.163q.091-2.1.2-4.194.177-3.492.4-6.983.4-6.252.987-12.49c1.784-19.132,3.673-38.3,8.167-57.018q.657-2.737,1.359-5.464c.639-2.5-3.218-3.559-3.857-1.063Z"/><path class="d" d="M100.444,61.747A90.082,90.082,0,0,0,103.959,80.3c1.693,5.451,3.832,12.271-.852,16.834A8.13,8.13,0,0,1,94.3,98.859c-2.42-.888-3.464,2.977-1.063,3.857,6.863,2.516,14.126-1.676,16.221-8.516,1.121-3.656.35-7.976-.612-11.582-.7-2.639-1.623-5.209-2.278-7.864a87.851,87.851,0,0,1-2.119-13.007,2.055,2.055,0,0,0-2-2,2.014,2.014,0,0,0-2,2Z"/><path class="d" d="M32.064,63.187A100.767,100.767,0,0,1,30.813,75.1c-.567,3.184-1.429,6.284-1.873,9.5-.46,3.32-1.118,7.006-.311,10.32a13.218,13.218,0,0,0,5.162,7.441,14.57,14.57,0,0,0,11.724,2.063c2.516-.539,1.451-4.395-1.063-3.857-5.256,1.125-11.273-1.635-12.107-7.384-.41-2.828.213-6.064.648-8.86.445-2.856,1.241-5.628,1.733-8.473a112.1,112.1,0,0,0,1.338-12.655c.147-2.571-3.853-2.563-4,0Z"/><path class="d" d="M53.859,86.029a46.1,46.1,0,0,1-.7,6.934,10.379,10.379,0,0,1-.258,1.089c-.09.318.148-.215-.089.162-.042.068-.083.136-.127.2.153-.235.078-.095-.062.04-.064.061-.127.124-.2.18.088-.073.259-.149-.062.023-.193.1-.378.214-.577.305-.037.017-.394.159-.567.236-2.16.969-4.288,2.017-6.433,3.019q-.886.414-1.775.824c-.209.1-.418.19-.627.285-.071.032-.145.061-.215.1-.107.052.585-.233.308-.132a2.053,2.053,0,0,0-1.4,2.46,2.017,2.017,0,0,0,2.46,1.4c2.373-.869,4.65-2.123,6.934-3.2.92-.433,1.851-.849,2.764-1.3.03-.015.063-.025.091-.041-.744.423-.465.2-.221.1s.469-.19.7-.3a5.975,5.975,0,0,0,1.515-1.013,5.5,5.5,0,0,0,1.567-2.745,33.1,33.1,0,0,0,.53-3.286,42.915,42.915,0,0,0,.442-5.346c.038-2.574-3.961-2.575-4,0Z"/><path class="d" d="M78.593,85.891a56.94,56.94,0,0,0,.884,7.712,5.83,5.83,0,0,0,3.3,4.648c.192.087.389.168.585.246.135.055.631.26.108.034-.427-.184-.24-.107-.15-.062.126.063.257.117.384.176q.68.314,1.357.63,1.912.889,3.826,1.784c1.011.471,2.017.959,3.047,1.392a2.011,2.011,0,0,0,2.46-1.4,2.052,2.052,0,0,0-1.4-2.46c.9.379.063.013-.229-.123L91.4,97.834l-3.592-1.676c-.815-.38-1.626-.77-2.448-1.135-.2-.087-.4-.171-.595-.253a1.6,1.6,0,0,1-.356-.162c-.117-.065-.227-.135-.342-.2-.149-.088-.172-.157-.027-.017-.072-.069-.405-.468-.28-.282s-.091-.195-.127-.256c-.144-.241.106.328.023.059-.023-.072-.05-.144-.073-.216-.06-.2-.107-.4-.149-.6a41.329,41.329,0,0,1-.839-7.2,2,2,0,0,0-4,0Z"/><path class="d" d="M41.6,102.95c6.447,4.111,14.323,6.293,21.867,7.1a52.632,52.632,0,0,0,22.6-3,28.783,28.783,0,0,0,9.179-4.7c1.977-1.653-.865-4.47-2.828-2.828a23.541,23.541,0,0,1-6.729,3.424,59.9,59.9,0,0,1-10.055,2.665,46.526,46.526,0,0,1-21.825-1.6A41.379,41.379,0,0,1,43.614,99.5c-2.177-1.388-4.186,2.072-2.019,3.454Z"/><path class="d" d="M102.14,180.382l-.016-.046h-1.145c-2.465,0-32.34.119-65.975.119A27.8,27.8,0,0,0,34.2,185c-.046,1.121-.054,2.517.011,4.221,14.894.006,57.435-.2,68.752-.2.057-1.614.048-2.946,0-4.023a27.8,27.8,0,0,0-.8-4.548Z"/><path class="d" d="M38.424,177.892c.639-6.467.049-13.132-.346-19.6-.4-6.489-.958-12.966-1.372-19.454-.329-5.157.7-10.123.977-15.246.136-2.572-3.864-2.564-4,0-.258,4.854-1.3,9.6-1.023,14.486.15,2.65.368,5.3.565,7.944.547,7.347,1.1,14.7,1.326,22.065a76.149,76.149,0,0,1-.127,9.8,2.014,2.014,0,0,0,2,2,2.045,2.045,0,0,0,2-2Z"/><path class="d" d="M99.268,144.29c-.407,6.151-.941,12.293-1.264,18.449a79.826,79.826,0,0,0-.2,8.428,86.3,86.3,0,0,0,1.36,10.071,2.016,2.016,0,0,0,2.46,1.4,2.045,2.045,0,0,0,1.4-2.46,73.316,73.316,0,0,1-1.232-9.317c-.121-2.827.086-5.69.238-8.513.325-6.024.845-12.035,1.243-18.055.17-2.57-3.831-2.559-4,0Z"/><path class="d" d="M100.979,178.336c-14.849,0-29.7.085-44.546.1q-10.715.015-21.429.015c-2.574,0-2.578,4,0,4q30.3,0,60.608-.1c1.789,0,3.578-.014,5.367-.015,2.574,0,2.578-4,0-4Z"/><path class="d" d="M34.7,191.225c18.224,0,36.448-.115,54.672-.174q5.536-.018,11.073-.025c2.573,0,2.578-4,0-4-17.557,0-35.115.123-52.672.174q-6.535.019-13.073.025c-2.574,0-2.578,4,0,4Z"/><path class="a" d="M69.071,190.226a56.8,56.8,0,0,1-7.685-.258,2.015,2.015,0,0,1-1.573-1.874c-.208-1.965-.125-7.907.392-9.014,1.022-.525,5.8-.547,8.56-.547,3.283,0,8.414.022,9.436.547.517,1.107.6,7.049.393,9.014a2.017,2.017,0,0,1-1.574,1.874A59.774,59.774,0,0,1,69.071,190.226Z"/><path class="d" d="M69.071,188.226c-2.018,0-4.044.051-6.059-.089-.357-.025-.742-.1-1.094-.1-.467,0,.009-.2.013.12,0,.091-.077-.287-.1-.144.021-.142-.074-.337-.033-.049-.017-.119-.021-.243-.028-.363-.017-.293-.032-.586-.041-.879-.047-1.421-.029-2.846.038-4.266.032-.656.088-1.308.147-1.961.037-.4-.034.173.007-.045.021-.116.037-.232.063-.347a2.8,2.8,0,0,1,.148-.493l-.92,1.195c-.52.239-.016.049.24-.007.111-.024.224-.039.336-.055-.384.057.079,0,.152-.01.759-.064,1.518-.113,2.28-.141,1.633-.059,3.268-.062,4.9-.061,1.692,0,3.385.009,5.076.072.753.028,1.507.064,2.258.137.05.005.579.067.308.03-.253-.034.227.04.231.041.212.045.829.285.195-.006l-.919-1.195a2.911,2.911,0,0,1,.147.493c.026.115.042.232.063.347.053.281-.043-.511.007.045.058.653.116,1.3.147,1.961.069,1.452.087,2.91.035,4.363-.009.261-.023.521-.038.782-.007.12-.011.243-.028.363.041-.287-.016-.1-.021.03,0-.067-.177.264-.107.142.109-.193.537-.109.02-.1-.307,0-.711.071-1.053.095-2.119.151-4.251.1-6.374.094-2.573,0-2.578,4,0,4,2.762,0,5.759.26,8.481-.329,2.695-.584,3.082-3.274,3.134-5.572a43.28,43.28,0,0,0-.2-5.828,5.249,5.249,0,0,0-.718-2.629c-.674-.873-1.906-.966-2.919-1.084a60.453,60.453,0,0,0-6.716-.249c-2.269-.009-4.542-.022-6.808.1-1.907.1-4.581.023-5.173,2.287a23.719,23.719,0,0,0-.445,5.633c-.024,2.288-.284,5.192,1.778,6.717,1.232.91,3.045.861,4.522.919,1.686.066,3.374.038,5.06.036C71.645,192.225,71.65,188.225,69.071,188.226Z"/><path class="d" d="M94.6,103.23a21.863,21.863,0,0,1,6.518,2.417,38.646,38.646,0,0,1,8.41,5.422c5.7,5.038,8.547,12.761,10.954,19.774A98.9,98.9,0,0,1,125.529,154c.306,3.325.861,7.193-.027,10.463a9.277,9.277,0,0,1-2.287,4,7.872,7.872,0,0,1-3.443,2.337,12.966,12.966,0,0,1-8.6-2.046,35.116,35.116,0,0,1-8.725-7.579c-1.63-1.994-4.446.85-2.828,2.828a39.093,39.093,0,0,0,8.625,7.623,18.51,18.51,0,0,0,9.486,3.214,8.713,8.713,0,0,0,4.762-.835,14.483,14.483,0,0,0,4.351-3.633c2.577-3.228,3.1-6.946,3.015-10.964A93.842,93.842,0,0,0,125.9,134.63c-2.5-8.328-5.51-17.238-11.2-23.979a34.288,34.288,0,0,0-10.032-7.658c-2.729-1.477-5.891-3.2-9.013-3.62a2.07,2.07,0,0,0-2.461,1.4,2.014,2.014,0,0,0,1.4,2.46Z"/><path class="a" d="M94.116,99.991a5.517,5.517,0,0,0,1.9-4.836c-.472-2.9-4.95-6.841-7.674-6.456s-5.094,2.1-7.517,3.487c-8.62,4.943-18.579,8.2-26.644,2.281a17.568,17.568,0,0,0-4.14-2.7,6.212,6.212,0,0,0-7.267,2.776L40.742,98a11.136,11.136,0,0,0,3.462,6.084c3.013,2.671,7.02,3.64,10.9,4.155A62.588,62.588,0,0,0,90.272,102.6,14.4,14.4,0,0,0,94.116,99.991Z"/><path class="d" d="M95.53,101.406a7.682,7.682,0,0,0,2.448-6.517,9.2,9.2,0,0,0-2.695-4.807,11.5,11.5,0,0,0-4.93-3.168c-2.106-.6-4.242.155-6.148,1.051-2.164,1.018-4.145,2.406-6.258,3.525a41.765,41.765,0,0,1-6.668,2.892c-4.2,1.36-8.83,1.914-13,.153-2.169-.914-3.8-2.546-5.766-3.77a8.152,8.152,0,0,0-6.27-1.089,8.474,8.474,0,0,0-5.1,3.7c-.953,1.49-2.648,3.549-2.283,5.348,2.148,10.616,15.214,12,24.008,12.044A64.881,64.881,0,0,0,79.9,108.561a63.3,63.3,0,0,0,8.038-2.748,24.006,24.006,0,0,0,7.595-4.407c1.87-1.776-.961-4.6-2.829-2.829-2.611,2.479-6.459,3.746-9.807,4.89a62.875,62.875,0,0,1-11.038,2.689,59.587,59.587,0,0,1-11.215.566,38.566,38.566,0,0,1-10.587-1.611c-3.678-1.225-6.557-3.756-7.383-7.639l-.2,1.541c.842-1.438,1.614-3.408,2.913-4.521a4.071,4.071,0,0,1,4.575-.581C52.1,95.044,53.779,96.837,56,97.875A18.988,18.988,0,0,0,62.628,99.6c4.73.365,9.412-1.032,13.7-2.9a57.73,57.73,0,0,0,6.589-3.429c1.651-.986,3.858-2.682,5.888-2.6,1.485.061,3.25,1.664,4.2,2.847,1.412,1.767,1.285,3.413-.305,5.056C90.911,100.428,93.736,103.26,95.53,101.406Z"/><path class="a" d="M71.117,108.534c1.2-1.5,3.235-2.556,6.3-1.663,3.4,1.135,3.9,5.2,3.151,7.414a5.433,5.433,0,0,1-7.278,3.12,5.6,5.6,0,0,1-3.436-6.169,6.491,6.491,0,0,1,1.259-2.7"/><path class="d" d="M72.532,109.948a6.081,6.081,0,0,1,.489-.539c.088-.086.183-.165.274-.248.322-.294-.381.238-.006.008.22-.136.439-.264.667-.388.4-.215-.427.125.014,0,.178-.052.351-.114.531-.157.117-.028.235-.045.352-.07.292-.063-.5.014-.013.009.323,0,.64,0,.962,0,.545.016-.4-.1.162.018.182.039.365.071.547.116s.341.1.513.148c.206.08.176.066-.092-.042.081.038.162.078.242.12.116.062.23.129.34.2.082.053.381.156.111.068-.241-.079-.007,0,.089.087s.18.172.264.263c.062.066.163.24.241.28l-.166-.209c.048.066.093.133.138.2a5.594,5.594,0,0,0,.4.748c-.247-.263-.116-.292-.024-.029.04.114.076.229.11.345q.083.288.139.582c.033.174.005.5,0-.063,0,.115.026.236.035.351a7.393,7.393,0,0,1,.016.8c0,.111-.011.222-.02.333-.037.448-.055-.073.023-.1a4.057,4.057,0,0,0-.121.6c-.04.156-.1.306-.141.461-.1.36.241-.436.044-.106-.072.123-.129.256-.2.379q-.085.146-.18.285c-.152.224-.267.162.036-.031a4.152,4.152,0,0,0-.49.538c-.09.087-.186.167-.278.252-.275.254.1-.092.106-.075a5.381,5.381,0,0,1-.777.482l-.12.06q-.3.135.107-.041c-.031.056-.328.115-.39.133-.134.04-.27.075-.407.1l-.14.028q-.333.054.1-.013c-.156.12-.72.014-.909.006-.369-.016-.018,0,.054.013-.222-.043-.441-.087-.659-.148-.173-.049-.34-.112-.511-.167-.591-.19.427.218.118.054-.14-.075-.284-.141-.422-.222-.161-.093-.313-.2-.468-.3-.246-.164-.078-.214.08.068-.042-.076-.177-.146-.245-.206a6.275,6.275,0,0,1-.559-.559c-.172-.195-.109-.317.013.038a2.52,2.52,0,0,0-.276-.4c-.066-.106-.128-.214-.187-.325-.039-.075-.077-.15-.113-.227q-.132-.294.05.121a4.631,4.631,0,0,1-.222-.773c-.122-.453.009.454-.007-.027-.007-.2-.021-.394-.015-.593,0-.156.017-.312.035-.467-.06.529.052-.164.078-.265.041-.161.09-.32.144-.478.038-.109.078-.217.121-.324-.085.206-.079.2.02-.011a10.056,10.056,0,0,1,.7-1.1,2,2,0,0,0-.717-2.736,2.062,2.062,0,0,0-2.736.717,7.887,7.887,0,0,0-1.631,5.259,7.5,7.5,0,0,0,1.875,4.379,7.808,7.808,0,0,0,7.83,2.435,7.416,7.416,0,0,0,5.279-5.858,7.449,7.449,0,0,0-8.809-9.069,6.925,6.925,0,0,0-4.232,2.45,2.049,2.049,0,0,0,0,2.828,2.024,2.024,0,0,0,2.829,0Z"/><path class="a" d="M58.368,106.1c1.464-1.836,3.955-3.125,7.707-2.034,4.163,1.388,4.768,6.361,3.853,9.065a6.643,6.643,0,0,1-8.9,3.814c-1.562-.625-5.089-3.158-4.2-7.541a7.945,7.945,0,0,1,1.54-3.3"/><path class="d" d="M59.783,107.513a7.17,7.17,0,0,1,.6-.659c.109-.106.224-.2.336-.3.367-.335-.347.2.082-.059.27-.166.536-.324.816-.475.452-.243-.379.1.124-.049.217-.064.428-.14.649-.192.143-.034.286-.062.431-.087.331-.057-.475,0,.1,0,.395-.006.781-.011,1.176.006.625.028-.326-.085.316.038.224.043.447.087.669.142s.417.121.627.181q.326.126-.006-.007c.1.046.2.095.3.147q.215.114.417.246c.009.006.426.309.181.118s.143.131.153.141c.112.1.22.21.324.321s.2.225.294.343c-.317-.4-.016,0,.035.081a7.707,7.707,0,0,1,.491.913c-.22-.472-.018-.024.015.072.049.139.093.28.134.421.067.235.124.473.17.712.021.11.082.6.019.042.016.142.032.285.043.428a8.918,8.918,0,0,1,.019.981c-.006.165,0,1.049-.013.4a3.069,3.069,0,0,1-.147.737c-.048.191-.122.374-.172.563-.108.4.23-.392.009-.022-.089.149-.158.312-.247.463-.069.118-.143.234-.22.348-.058.086-.357.447-.025.052a8.48,8.48,0,0,1-.6.658c-.11.106-.228.2-.34.308-.261.243-.021.021.039-.022a7.256,7.256,0,0,1-.949.59c-.072.036-.565.229-.123.067-.158.058-.315.115-.476.163s-.331.091-.5.127c-.076.015-.627.065-.165.034a8.763,8.763,0,0,1-1.111.007c-.4-.024-.142-.015-.053,0a7.143,7.143,0,0,1-.8-.18c-.212-.06-.416-.138-.625-.2-.694-.223.379.206.038.021-.171-.093-.348-.173-.516-.271-.2-.114-.383-.242-.572-.368-.106-.07-.411-.347.007.014-.1-.085-.2-.166-.3-.252a8,8,0,0,1-.683-.683c-.065-.074-.357-.459-.054-.044-.117-.161-.231-.323-.337-.492-.08-.129-.157-.262-.228-.4-.052-.1-.28-.707-.122-.236-.105-.314-.187-.626-.272-.945-.137-.515,0,.4-.025-.151-.01-.242-.026-.482-.018-.725a5.443,5.443,0,0,1,.043-.571c-.053.382.093-.373.111-.442a6.092,6.092,0,0,1,1.251-2.448,2.01,2.01,0,0,0-.717-2.736,2.052,2.052,0,0,0-2.737.717,9.275,9.275,0,0,0-1.933,6.2,8.669,8.669,0,0,0,2.163,5.039A9.1,9.1,0,0,0,66.01,119.2a8.63,8.63,0,0,0,6.144-6.852,9.442,9.442,0,0,0-3.4-9.135,9.379,9.379,0,0,0-6.823-1.405,8.1,8.1,0,0,0-4.978,2.88,2.061,2.061,0,0,0,0,2.829,2.015,2.015,0,0,0,2.829,0Z"/><path class="d" d="M33.075,179.923a22.6,22.6,0,0,0-.838,4.649,36.787,36.787,0,0,0,.02,5.653,2,2,0,0,0,4,0,38.06,38.06,0,0,1-.029-5.569c.014-.138.033-.275.047-.412.026-.242-.073.512-.022.162l.042-.284q.085-.578.19-1.151a14.27,14.27,0,0,1,.448-1.984,2.017,2.017,0,0,0-1.4-2.461,2.047,2.047,0,0,0-2.461,1.4Z"/><path class="d" d="M100.236,180.987a14.011,14.011,0,0,1,.437,1.923q.1.576.192,1.154c.015.095.028.191.042.286.051.34-.008-.027-.02-.156.014.154.039.308.054.462a38.061,38.061,0,0,1-.029,5.569,2.013,2.013,0,0,0,2,2,2.044,2.044,0,0,0,2-2,36.914,36.914,0,0,0,.02-5.653,22.535,22.535,0,0,0-.839-4.649,2,2,0,1,0-3.857,1.064Z"/><path class="d" d="M24.746,280.084c4.021.537,8.114.651,12.164.808,6.405.249,12.816.373,19.226.447,14.011.162,28.043.134,42.046-.421a132.932,132.932,0,0,0,15.534-1.2,2.014,2.014,0,0,0,1.4-2.46,2.048,2.048,0,0,0-2.46-1.4l-.533.081c-.571.088.075-.006-.175.025-.428.052-.856.1-1.284.15-1.032.11-2.066.2-3.1.28-2.563.2-5.13.335-7.7.448-6.484.285-12.975.417-19.464.494-13.8.162-27.617.1-41.412-.374-4.737-.162-9.537-.256-14.241-.884a2.01,2.01,0,0,0-2,2,2.051,2.051,0,0,0,2,2Z"/><path class="d" d="M98.26,51.547a2.239,2.239,0,0,1,3.171.417,4.8,4.8,0,0,1,.456,2.428,14.477,14.477,0,0,1-.2,2.977c-.646,3.536-2.433,7.783-6.365,8.488a2.016,2.016,0,0,0-1.4,2.46,2.045,2.045,0,0,0,2.46,1.4c6.087-1.092,8.993-7.96,9.451-13.478.237-2.852-.008-6.085-2.473-7.93a6.349,6.349,0,0,0-7.929.412,2.016,2.016,0,0,0,0,2.829,2.044,2.044,0,0,0,2.828,0Z"/><path class="d" d="M93.807,64.573a16.212,16.212,0,0,1-.945,4.37c-.063.192-.492,1.322-.226.717-.136.308-.278.611-.429.912a37.074,37.074,0,0,1-3.19,5.126C86.252,79.49,82.5,83.511,77.76,84.622c-2.505.588-1.445,4.446,1.063,3.857,5.708-1.339,10.134-6,13.492-10.549,2.9-3.924,5.29-8.371,5.492-13.357.1-2.574-3.9-2.569-4,0Z"/><path class="d" d="M40.355,48.718a6.352,6.352,0,0,0-7.93-.412c-2.466,1.838-2.709,5.083-2.473,7.93.459,5.518,3.364,12.386,9.451,13.478a2.058,2.058,0,0,0,2.461-1.4,2.017,2.017,0,0,0-1.4-2.46c-3.933-.706-5.72-4.952-6.365-8.488A14.364,14.364,0,0,1,33.9,54.56a5.56,5.56,0,0,1,.39-2.481,2.223,2.223,0,0,1,3.24-.532,2.057,2.057,0,0,0,2.829,0,2.017,2.017,0,0,0,0-2.829Z"/><path class="d" d="M38.18,64.345a33.633,33.633,0,0,0,7.169,16.1c4.038,4.781,9.385,8.226,15.679,8.905a2.012,2.012,0,0,0,2-2,2.047,2.047,0,0,0-2-2c-5.342-.576-9.8-4.012-13.114-8.05-3.276-3.992-5-8.991-5.877-14.017a2.016,2.016,0,0,0-2.46-1.4,2.046,2.046,0,0,0-1.4,2.46Z"/><path class="a" d="M99.275,126.848c-1.963,2.791-5.363,12.8-2.907,19.358a1.331,1.331,0,0,0,.517.75,1.273,1.273,0,0,0,.952.006c2-.563,4.221-2.537,6.251-2.978,2.754-.6,5.282,1.189,7.863.06a1.941,1.941,0,0,0,.8-.563c.606-.8.025-1.934-.586-2.73-1.222-1.594-3.792-3.788-4.685-5.587s-1.558-6.252-.643-8.04"/><path class="d" d="M97.548,125.839a25.472,25.472,0,0,0-3.455,9.448,28.306,28.306,0,0,0-.569,6.314c.07,1.962.29,4.438,1.384,6.134,1.692,2.622,4.953.642,6.914-.5a10.42,10.42,0,0,1,2.532-1.256,7.131,7.131,0,0,1,3.043.135c2.354.418,5.725.686,7.152-1.749,1.392-2.376-.641-4.767-2.194-6.427-.82-.876-1.7-1.719-2.437-2.669a4.769,4.769,0,0,1-1.023-2.039,13.272,13.272,0,0,1-.474-2.776,10.983,10.983,0,0,1,0-1.571c.036-.429-.1.4.033-.282.018-.094.267-.817.1-.467a2.058,2.058,0,0,0-.718-2.737,2.016,2.016,0,0,0-2.736.718c-1.157,2.482-.786,5.615-.069,8.179.784,2.8,2.872,4.707,4.781,6.788.212.231.43.46.624.705.127.16.37.7.5.763a.764.764,0,0,0,.059.138q.5-.681.17-.484c-.014-.012-.684.2-.767.21-1.535.2-3.161-.468-4.691-.544a9.024,9.024,0,0,0-4.808,1.28c-.653.353-1.283.746-1.931,1.109a11.14,11.14,0,0,1-1.088.57c-.145.061-.7.13-.473.2l.883.514s0,.362-.047.007a4.549,4.549,0,0,0-.21-.636,13.035,13.035,0,0,1-.319-1.325,14.193,14.193,0,0,1-.21-2.418,24.355,24.355,0,0,1,.551-5.383,21.65,21.65,0,0,1,2.938-7.93,2,2,0,0,0-3.454-2.018Z"/><path class="a" d="M109.537,128.382c2.373.594,6.225-.3,9.336-2.518,4.356-3.111.424-13.217-2.792-16.438-3.936-3.943-6.92-6.274-12.587-7.3-2.484-.451-5.134-1.316-7.18.562-2.314,2.123-1.906,5.192,1.274,5.683-2.9-.845-4.224,2.817-2.348,5.07-2.2.778-2.117,3.258-1.393,4.827.673,1.458,5.109,2.129,6.157,2.247-2.3.263-3.84,1.232-4.105,2.7-.173.955-.108,1.962,1.669,2.924,3.226,1.746,7.611,1.487,11.221,2"/><path class="d" d="M109.006,130.311a12.534,12.534,0,0,0,7.309-.822c2.118-.849,4.444-2.01,5.56-4.11,1.966-3.7.583-8.477-.986-12.054a23.75,23.75,0,0,0-8.084-9.447,20.166,20.166,0,0,0-6.153-3.059,22.875,22.875,0,0,0-7.642-1.274,6.576,6.576,0,0,0-6.073,5.177,4.826,4.826,0,0,0,4.12,5.573c2.5.474,3.593-3.241,1.063-3.857-4.727-1.151-7.346,4.444-4.607,8.008l1.195-2.938a4.832,4.832,0,0,0-3.229,3.791,5.878,5.878,0,0,0,1.144,4.669c1.709,1.885,4.995,2.261,7.381,2.543l-.531-3.928a6.513,6.513,0,0,0-5.1,3.006,4.448,4.448,0,0,0,.806,5.289c3.422,3.273,9.284,2.678,13.61,3.255a2.01,2.01,0,0,0,2-2,2.051,2.051,0,0,0-2-2c-3.079-.41-6.34-.228-9.294-1.31a3.533,3.533,0,0,1-1.71-1c.049.077.024-.189.1-.334.435-.8,1.836-.941,2.649-1.05a1.977,1.977,0,0,0,1.433-2.195A2.04,2.04,0,0,0,100,118.511c-.349-.041.327.051.015,0-.169-.026-.337-.051-.506-.079q-.557-.093-1.11-.211a11.586,11.586,0,0,1-2.281-.656c-.169-.076-.719-.526-.5-.229.111.152-.03-.073-.041-.1a3.188,3.188,0,0,1-.148-.535c-.071-.4-.148-1.135.341-1.337,1.038-.428,2.072-1.8,1.195-2.938a2,2,0,0,1-.537-1.805c.111-.369.137-.446.627-.327l1.063-3.857c-1.119-.212-1.621-.573-1.006-1.62.94-1.6,2.78-1.361,4.344-1.062,3.577.682,6.818,1.58,9.719,3.877a19.476,19.476,0,0,1,5.88,6.887c1.124,2.328,2.229,5.512,1.615,8.073-.363,1.511-1.419,2.076-2.968,2.827a9.155,9.155,0,0,1-5.635,1.034c-2.508-.557-3.579,3.3-1.063,3.857Z"/><path class="d" d="M104.33,107.741a57.817,57.817,0,0,0-6.742-1.374,1.994,1.994,0,0,0-1.414.585,2,2,0,0,0,0,2.829,2.317,2.317,0,0,0,1.414.586c.125.014.249.029.373.045l-.531-.071c1.977.268,3.9.8,5.837,1.257a2,2,0,1,0,1.063-3.857Z"/><path class="d" d="M103.069,113.438a25.335,25.335,0,0,0-3.211-.732c-1.054-.2-2.112-.369-3.162-.582a2.132,2.132,0,0,0-1.542.2,2,2,0,0,0,.478,3.656c1.05.213,2.109.384,3.162.582a25.128,25.128,0,0,1,3.211.733,2.017,2.017,0,0,0,2.461-1.4,2.047,2.047,0,0,0-1.4-2.461Z"/><path class="d" d="M103.189,119.178a16.713,16.713,0,0,0-3.048-.473l.532.071a3.853,3.853,0,0,1-.62-.127,2,2,0,0,0-2.46,1.4,2.022,2.022,0,0,0,.2,1.541,2.142,2.142,0,0,0,1.195.919,7.46,7.46,0,0,0,1.4.229c.377.043.755.075,1.131.125l-.531-.071a6.489,6.489,0,0,1,1.135.246,2,2,0,0,0,2.46-1.4,2.022,2.022,0,0,0-.2-1.541,2.169,2.169,0,0,0-1.2-.919Z"/><path class="c" d="M100.221,38.294C100.583,24.325,94.85,14,83.894,7.61A45.773,45.773,0,0,0,64.8,2.166c-9.289-.315-16.316.721-23.824,5.122C30.588,13.381,26.1,20.067,23.759,31.539A1.677,1.677,0,0,0,25.573,33.5c2.9-.156,6.459,2.178,10.025,2.622"/><path class="a" d="M17.88,34.04A4.516,4.516,0,0,1,23,32.67c2.777.9,3.2,4.178,2.6,5.965a4.434,4.434,0,0,1-5.911,2.548,4.511,4.511,0,0,1-2.825-4.959A5.227,5.227,0,0,1,17.88,34.04"/><path class="d" d="M102.221,38.294c.188-8.561-1.918-17-7.255-23.815C89.57,7.592,81.6,3.417,73.207,1.4,64.185-.778,53.779-.54,45.133,3.016c-7.6,3.125-14.884,8.445-18.976,15.7A35.9,35.9,0,0,0,23.511,24.7a25.866,25.866,0,0,0-1.769,7,3.631,3.631,0,0,0,1.765,3.254c1.1.653,2.272.406,3.459.668,2.766.61,5.275,2.019,8.1,2.427a2.068,2.068,0,0,0,2.461-1.4,2.014,2.014,0,0,0-1.4-2.46,40.181,40.181,0,0,1-6.612-2.009,14.067,14.067,0,0,0-2.915-.646c-.14-.015-1.048-.149-1.138-.044.1-.112.253.37.26.367.112-.053.126-.567.156-.7a37.7,37.7,0,0,1,3.506-10.022c3.484-6.405,9.662-11.02,16.21-13.994a34.822,34.822,0,0,1,11.82-2.872,47.879,47.879,0,0,1,12.77.554c7.742,1.53,15.106,4.827,20.479,10.739,5.655,6.224,7.736,14.483,7.555,22.733-.056,2.575,3.944,2.575,4,0Z"/><path class="d" d="M19.294,35.454a4.96,4.96,0,0,1,.395-.437c.072-.07.149-.134.223-.2.283-.258-.411.271-.082.066.178-.112.356-.216.541-.316.35-.189-.465.151-.078.034.126-.038.248-.082.376-.115.094-.024.189-.041.283-.063.418-.1-.492.02-.051.009.263-.006.52-.019.783,0l.138.012q.333.038-.105-.014a1.344,1.344,0,0,1,.446.091c.141.033.279.082.419.117.366.091-.411-.233-.008,0a5.413,5.413,0,0,0,.506.307c-.4-.171-.259-.212-.082-.051.076.069.148.141.218.215s.128.159.2.229c-.386-.385-.179-.235-.079-.079.127.2.208.416.33.611-.009-.014-.184-.494-.09-.2.03.094.066.186.094.28a5.346,5.346,0,0,1,.141.571c.032.169.023.49-.012-.149.005.1.02.19.027.285a5.932,5.932,0,0,1,.009.653c-.007.15-.026.3-.037.447.058-.752.014-.15-.036.049-.037.148-.117.3-.142.45.081-.481.183-.383.066-.175-.057.1-.11.207-.171.307-.1.169-.452.509-.01.052-.136.141-.254.3-.4.435-.073.071-.151.136-.225.205-.286.264.406-.273.078-.058-.211.137-.421.26-.643.379-.339.182.377-.109.124-.051-.088.021-.177.064-.264.09-.109.033-.22.062-.331.085l-.114.023q-.321.053.182-.022a3.6,3.6,0,0,0-.74.009c-.449-.008.46.111.011,0-.182-.043-.364-.079-.543-.133a1.727,1.727,0,0,1-.42-.146c-.05-.033.559.26.325.138-.114-.06-.232-.113-.344-.177-.131-.074-.259-.155-.383-.24-.066-.046-.129-.1-.2-.144.541.316.222.172.07.037s-.267-.253-.391-.389c-.063-.071-.12-.15-.185-.219.43.45.126.162.026.006q-.081-.128-.153-.261c-.033-.06-.064-.121-.094-.183q-.129-.282.078.191a3.451,3.451,0,0,0-.206-.732c.143.285.036.409.026.191-.008-.159-.019-.317-.015-.478a1.494,1.494,0,0,0,.026-.377c-.045.316-.049.362-.01.139.017-.084.035-.167.057-.25.033-.13.072-.259.115-.386.03-.088.063-.176.1-.262-.11.257-.118.285-.024.082a8.225,8.225,0,0,1,.567-.891,2,2,0,0,0,.2-1.541,2.037,2.037,0,0,0-.919-1.2,2.013,2.013,0,0,0-1.541-.2,2.363,2.363,0,0,0-1.2.919,6.676,6.676,0,0,0-1.364,4.384,6.452,6.452,0,0,0,1.622,3.822,6.759,6.759,0,0,0,6.776,2.072,6.4,6.4,0,0,0,4.563-5.2,6.862,6.862,0,0,0-2.609-6.583,6.953,6.953,0,0,0-5.075-.986,5.946,5.946,0,0,0-3.6,2.09,2.16,2.16,0,0,0-.585,1.415,2,2,0,0,0,3.414,1.414Z"/><path class="d" d="M36.471,34.718c.12-1.157.108-2.326.26-3.481l-.072.532.011-.08a2.244,2.244,0,0,0-.2-1.541,2,2,0,0,0-2.737-.718,1.928,1.928,0,0,0-.919,1.2c-.194,1.36-.2,2.728-.342,4.092a2,2,0,0,0,.586,1.414,2,2,0,0,0,2.828,0l.313-.405a1.987,1.987,0,0,0,.273-1.009Z"/><path class="a" d="M35.717,48.338c17.31-4.162,47.976-3.421,61.888-.38,1.977.433,3.336-1.082,3.6-2.881a20.856,20.856,0,0,0-.019-6.788c-.154-1.173-.722-1.744-1.824-3.292-1.31-1.842-6.05-3.47-7.57-3.811-11.506-2.578-26.215-2.472-42.139-.353-5.178.689-13.783,3.41-16.263,6.327s-2.991,6.44-.61,9.433"/><path class="d" d="M36.249,50.267c10.064-2.4,20.632-2.827,30.939-2.822,9.628.005,19.5.342,28.965,2.249a6.874,6.874,0,0,0,3.413.154,5.038,5.038,0,0,0,3-2.561c1.336-2.613.983-6.191.615-9-.655-5.01-5.789-7.582-10.127-8.838-5.417-1.567-11.389-1.938-17-2.132A149.714,149.714,0,0,0,55.5,28.14c-6.488.67-12.779,1.669-18.754,4.416a13.005,13.005,0,0,0-6.088,4.98A8.874,8.874,0,0,0,31.051,47.6a2.063,2.063,0,0,0,2.736.717,2.013,2.013,0,0,0,.718-2.736,5.26,5.26,0,0,1,.3-7.009A12.371,12.371,0,0,1,39.465,35.7a52.21,52.21,0,0,1,14.828-3.431c11.714-1.285,23.906-1.792,35.526.54,3.312.665,8.073,1.89,9.324,5.468a11.35,11.35,0,0,1,.329,3.549,8.626,8.626,0,0,1-.428,3.578c-.364.729-.77.651-1.477.5-.858-.179-1.719-.337-2.582-.482a167.9,167.9,0,0,0-27.423-1.981c-10.78-.024-21.852.459-32.377,2.964-2.5.6-1.443,4.453,1.064,3.857Z"/><path class="d" d="M62.928,73.905a12.164,12.164,0,0,0,5.851,1.365,9.648,9.648,0,0,0,6.015-1.82,2.005,2.005,0,0,0,0-2.829,2.064,2.064,0,0,0-2.829,0c.691-.538-.029-.009-.247.105-.17.089-.624.23,0,.018-.16.054-.314.121-.475.172-.425.137-.923.146-1.33.3.209-.081.32-.038.02-.009-.131.013-.261.024-.392.033-.315.02-.63.028-.946.026-.282,0-.564-.011-.846-.03-.13-.009-.259-.02-.388-.033-.074-.007-.147-.015-.221-.024q-.234-.029.181.024c-.073.055-.541-.1-.637-.119q-.306-.067-.606-.157c-.174-.052-.344-.115-.515-.173-.451-.155.419.2.01.008-.213-.1-.423-.2-.631-.315a2,2,0,1,0-2.019,3.454Z"/><path class="d" d="M67.511,60.446a26.125,26.125,0,0,1,.615,2.816l-.071-.532a1.745,1.745,0,0,1,.011.389l.071-.532a.877.877,0,0,1-.043.175l.2-.478a.688.688,0,0,1-.062.113l.313-.405a.659.659,0,0,1-.092.091l.405-.313a1.832,1.832,0,0,1-.223.118l.477-.2a1.583,1.583,0,0,1-.375.11l.531-.071a1.489,1.489,0,0,1-.353,0l.532.071c-.133-.018-.264-.05-.4-.068a2.244,2.244,0,0,0-1.541.2,2,2,0,0,0-.717,2.737,1.916,1.916,0,0,0,1.2.919c.352.047.694.135,1.053.151a3.464,3.464,0,0,0,1.614-.393,2.452,2.452,0,0,0,1.322-1.6,3.775,3.775,0,0,0-.014-1.662c-.153-.907-.363-1.806-.6-2.7a2,2,0,0,0-2.46-1.4,2.025,2.025,0,0,0-1.2.919,2.1,2.1,0,0,0-.2,1.541Z"/><path class="d" d="M53.159,52.324c-.47,1.528-.164,5.043,2.731,5.343,3.826-.023,4.03-4.273,2.742-6.271C57.577,49.76,54.476,49.079,53.159,52.324Z"/><path class="d" d="M83.8,52.324c.47,1.528.164,5.044-2.731,5.343-3.826-.023-4.03-4.273-2.742-6.272C79.381,49.759,82.481,49.079,83.8,52.324Z"/></svg>