<?xml version="1.0" encoding="utf-8"?>
<!-- Uploaded to: SVG Repo, www.svgrepo.com, Generator: SVG Repo Mixer Tools -->
<svg width="800px" height="800px" viewBox="-134.87 0 469.738 469.738" xmlns="http://www.w3.org/2000/svg"><defs><style>.a{fill:#ffffff;}.b{fill:#211715;}.c{fill:#4d4544;}.d{fill:#7a7473;}.e{fill:#bdbdbd;}.f{fill:#6dbf6b;}</style></defs><path class="a" d="M195.144,226.309c.354,5.442.659,10.262.763,12.322-5.326.842-16.352,2.026-16.352,2.026l-1.342-12.815Z"/><path class="a" d="M160.474,51.557a4.582,4.582,0,0,1,3.669-1.073,4.331,4.331,0,0,1,3.113,2.069,6.132,6.132,0,0,1,.641,2.463,18.356,18.356,0,0,1-1.871,9.724,11.657,11.657,0,0,1-3.015,3.957,7.731,7.731,0,0,1-3.594,1.62l-.616.1c-.295,1.1-.626,2.034-.789,2.528-.967,2.625-6.04,11.216-12.62,15.337v.035a56.91,56.91,0,0,0,.762,8.3c.433,2.474.3,4.685,3.736,5.927.228.082,4.043,1.845,4.558,2.071,0,0-5.2,12.792-22.976,12.792s-23.684-14-23.684-14c.27-.12,1.09-.42,1.69-.63.31-.11.57-.2.65-.23a.865.865,0,0,0,.17-.07c3.27-1.26,3.14-3.43,3.57-5.86.11-.63.21-1.35.3-2.11.22-1.93.38-4.13.43-5.93a28.1,28.1,0,0,1-7.487-6.465A31.178,31.178,0,0,1,101.165,70.5l-1.172-.179A7.731,7.731,0,0,1,96.4,68.7a11.657,11.657,0,0,1-3.015-3.957,18.356,18.356,0,0,1-1.871-9.724,6.132,6.132,0,0,1,.641-2.463,4.331,4.331,0,0,1,3.113-2.069,4.582,4.582,0,0,1,3.669,1.073s-.353-25.715,30.092-25.715C160.806,25.842,160.474,51.557,160.474,51.557Z"/><path class="a" d="M148.4,96.789a19.853,19.853,0,0,0-2.574-2.912,46.208,46.208,0,0,1-13.334,9.293c-.276.125-.584.278-.673.567a1.07,1.07,0,0,0,.154.753H127.4a1.07,1.07,0,0,0,.154-.753c-.089-.289-.4-.442-.673-.567a46.19,46.19,0,0,1-13.333-9.293,22.812,22.812,0,0,0-4.647,6.278s-.068.132-.2.362c1.392,4.1,3.561,10,5.987,16.95,5,14.315,11.844,30.291,15.529,38.249l.96,2.027A339.967,339.967,0,0,0,144.7,120.092c2.384-8,4.205-17.162,4.98-21.347C149.289,98.083,148.86,97.426,148.4,96.789Z"/><path class="a" d="M39.135,138.722a12.241,12.241,0,0,0-4.143-3.956,77.917,77.917,0,0,0-10.666-3.542,33.914,33.914,0,0,1-8.568-4.068c-2.462-1.5-5.779-4.217-8.033-5.96-3.27-2.529-8.962-10.3-3.358-12.886,1.568-.427,4.391-.59,5.756.29.478.065,1.329-.386,2.121-.23,2.91.575,5.908,2.488,8.593,3.75a19.321,19.321,0,0,0,3.975,1.868c1.53.348,9.651,1.75,12.482,2.355-.108-.271-.179-.453-.179-.453-1.154-2.981-4.78-5.858-6.26-9.334-.8-1.867-1.47-3.54.356-4.784,1.641-1.118,2.962-.279,4.274.964a96.25,96.25,0,0,1,8.222,8.6A22.041,22.041,0,0,1,48.6,120.3c.487,1.684.024,4.423.713,6.048.532,1.255,1.862,3.262,2.8,5.249Z"/><path class="a" d="M181.681,241.543c-1.767,7.468-3.794,13.1-4.407,20.754-.159,1.979,3.169,5.676,4.6,4.3.686-.656,2.216-2.236,2.7-2.8l-.5,11.313c3.131,2.267,9.1-.537,11.21-3.507,3.333-4.694,3.323-6.871,1.7-13.879s-3.287-11.179-3.408-18.37Z"/><path class="b" d="M183.07,276.839c2.7,1.81,6.181,1.1,8.938-.177a14.148,14.148,0,0,0,6.428-6.262c3.238-5.855.656-12.715-.892-18.71a53.6,53.6,0,0,1-1.959-12.334c-.055-2.57-4.055-2.579-4,0a55.706,55.706,0,0,0,1.9,12.623c.989,3.874,2.4,7.923,2.554,11.945a10.005,10.005,0,0,1-2.994,7.232c-1.775,1.782-5.537,3.853-7.959,2.229-2.144-1.437-4.149,2.026-2.019,3.454Z"/><path class="b" d="M193.144,226.309c.267,4.106.554,8.213.763,12.322l1.468-1.928c-.759.119-1.519.229-2.279.335l-.583.08c-.653.09.395-.051-.27.036l-1.243.162q-2.68.345-5.367.655-3.037.357-6.078.686a2.059,2.059,0,0,0-2,2,2.013,2.013,0,0,0,2,2c5.635-.606,11.284-1.218,16.883-2.1a2,2,0,0,0,1.469-1.929c-.209-4.109-.5-8.216-.763-12.322a2.047,2.047,0,0,0-2-2,2.017,2.017,0,0,0-2,2Z"/><path class="b" d="M179.752,241.012c-.872,3.657-1.916,7.27-2.785,10.928-.415,1.745-.783,3.5-1.07,5.272a25.035,25.035,0,0,0-.61,5.5,7.509,7.509,0,0,0,4.609,5.96c2.664.915,4.545-1.692,6.1-3.461,1.692-1.928-1.126-4.768-2.829-2.829-.623.711-1.287,1.388-1.951,2.059-.245.247-1.263,1.171-.268.474.269-.188.32.113-.142-.247a4.931,4.931,0,0,1-1.414-1.8c-.332-.725.028-2.235.165-3.268.789-5.953,2.665-11.7,4.055-17.524.6-2.5-3.26-3.57-3.858-1.063Z"/><path class="c" d="M196.72,371.43c1.142-16.388-.459-70.818-1.944-82.953a1.278,1.278,0,0,0-1.225-1.12c-5.181-.2-12.193-.372-17.677-.345a1.355,1.355,0,0,0-1.336,1.2c-1.405,11.492-4.285,65.368-3.863,82.553.092,3.751,3.119,5.1,6.87,5.143,3.942.043,8.473.042,12.223.034C193.432,375.933,196.465,375.086,196.72,371.43Z"/><path class="b" d="M198.72,371.43c.407-5.925.394-11.886.387-17.821-.009-8.155-.149-16.31-.354-24.463-.2-7.929-.463-15.857-.834-23.78-.252-5.392-.474-10.81-1.061-16.179a5.134,5.134,0,0,0-.567-2.282c-.8-1.268-2.085-1.524-3.475-1.576q-4.1-.153-8.205-.235c-2.776-.056-5.576-.175-8.352-.084a3.582,3.582,0,0,0-3.367,1.866,6.1,6.1,0,0,0-.447,2.137c-.6,5.389-.924,10.814-1.274,16.224-1.044,16.115-1.846,32.255-2.31,48.4-.1,3.383-.176,6.766-.211,10.15-.029,2.748-.336,5.8.2,8.5,1.059,5.37,6.932,5.613,11.3,5.641q4.4.027,8.806.014a13.674,13.674,0,0,0,6.579-1.162,6.4,6.4,0,0,0,3.188-5.35,2.015,2.015,0,0,0-2-2,2.043,2.043,0,0,0-2,2c-.154,1.61-1.425,2.16-2.887,2.388a47.245,47.245,0,0,1-7.209.125c-2.682,0-5.44.157-8.113-.084-1.415-.128-3.123-.576-3.658-2.041a11.575,11.575,0,0,1-.216-3.67q-.012-1.9.007-3.805c.028-3.111.095-6.221.179-9.331.412-15.281,1.163-30.557,2.1-45.814.357-5.818.727-11.638,1.253-17.444.083-.914.17-1.828.271-2.741a1.5,1.5,0,0,0,.054-.473c-.062-.205.333-.646-.3.125-.512.624-.1.345.449.345q1.944,0,3.889.02,4.056.044,8.112.163,1.8.051,3.6.116c.2.007.783.13.936.034l.068,0q.546-.007-.465-.748c-.058.094.057.487.069.6.549,5.022.769,10.088,1.012,15.131.353,7.328.608,14.661.808,22,.382,13.941.78,27.95.213,41.891-.043,1.076-.1,2.151-.171,3.226C194.543,374,198.544,373.988,198.72,371.43Z"/><path class="b" d="M181.571,291c.147-5.448.728-21.417.534-22.965,1.173-.013,3.342.135,4.547.1.1,4.483-.45,19.862-.387,22.917Z"/><path class="b" d="M183.571,291c.118-4.316.272-8.63.4-12.945.062-2.164.122-4.328.157-6.493a28.043,28.043,0,0,0-.018-3.527l-2,2c1.517,0,3.031.128,4.547.1l-2-2c.157,7.639-.523,15.28-.387,22.917l2-2L181.571,289c-2.574-.028-2.576,3.972,0,4l4.694.049a2.023,2.023,0,0,0,2-2c-.136-7.637.544-15.278.387-22.917a2.027,2.027,0,0,0-2-2c-1.516.031-3.03-.1-4.547-.1a2.011,2.011,0,0,0-2,2,27.353,27.353,0,0,1,.02,3.424c-.035,2.2-.1,4.4-.159,6.6-.123,4.315-.277,8.629-.4,12.945C179.5,293.573,183.5,293.571,183.571,291Z"/><path class="a" d="M155.256,420.751a30.54,30.54,0,0,0,3.457,13.93l-22.178-.43.086-12.46Z"/><path class="a" d="M106.231,420.751a30.541,30.541,0,0,1-3.458,13.93l22.178-.43-.085-12.46Z"/><path class="b" d="M104.231,420.751a28.7,28.7,0,0,1-3.185,12.921,2.045,2.045,0,0,0,.718,2.736,2.02,2.02,0,0,0,2.736-.717,33.17,33.17,0,0,0,3.731-14.94,2,2,0,0,0-4,0Z"/><path class="b" d="M122.866,421.791l.085,12.46a2,2,0,0,0,4,0l-.085-12.46a2,2,0,0,0-4,0Z"/><path class="b" d="M153.256,420.751a33.156,33.156,0,0,0,3.73,14.94,2,2,0,0,0,3.454-2.019,28.71,28.71,0,0,1-3.184-12.921,2,2,0,0,0-4,0Z"/><path class="d" d="M83.626,463.272c-.116-.151-.225-.308-.329-.47a8.808,8.808,0,0,1-.582-7.379,24.157,24.157,0,0,1,3.787-6.608q5.481-7.486,11.587-14.49c1.587-1.82,3.38-3.716,5.753-4.164a3.568,3.568,0,0,0,1.773,3.742,8.37,8.37,0,0,0,4.278.966,23.746,23.746,0,0,0,16.62-6.614c-.028,5,.022,6.663,0,11.664a10.48,10.48,0,0,1-.438,3.607c-1.028,2.78-4.076,4.119-6.521,5.792-6.364,4.355-9.715,12.3-16.383,16.171a17.21,17.21,0,0,1-15.913.57A10.038,10.038,0,0,1,83.626,463.272Z"/><path class="b" d="M134.621,421.791l-.086,12.46a2,2,0,0,0,4,0l.086-12.46a2,2,0,0,0-4,0Z"/><path class="e" d="M135.751,234.229a125.672,125.672,0,0,1-5.4-20.291l-.2.787q-.071.384-.153.8a108.915,108.915,0,0,1-5.513,18.6c-15.372-.137-30.052-.275-38.557-.414,1.65,17.269,3.488,51.4,5.174,79.423,1.987,33,2.8,106.106,3.246,113.471,4.932,1.645,24.115,1.761,35.556-.426l.626-.116c9.392,1.953,31.385,2.187,36.318.542.445-7.365,1.259-80.473,3.245-113.471,1.673-27.779,2.989-61.109,4.62-78.507C166.116,234.5,151.258,234.366,135.751,234.229Z"/><path class="b" d="M85.353,462.263c-1.764-2.411-1.3-5.449-.01-7.976a55.593,55.593,0,0,1,5.739-8.271q3.173-4.14,6.559-8.112c1.828-2.153,3.807-5.162,6.732-5.814l-2.46-2.461A5.829,5.829,0,0,0,105.8,436.2c2.632,1.032,5.78.761,8.51.323a25.448,25.448,0,0,0,13.62-6.851l-3.414-1.414c-.022,4.261.164,8.554-.021,12.81-.093,2.138-1.179,3.407-2.893,4.565a57.657,57.657,0,0,0-5.2,3.609c-6.048,5.129-9.633,13.857-17.855,16-4.468,1.166-10.438.41-13.5-3.383a2.012,2.012,0,0,0-2.828,0,2.048,2.048,0,0,0,0,2.829c3.11,3.849,8.921,5.341,13.677,5.006a20.356,20.356,0,0,0,12.98-6.145c3.2-3.156,5.678-6.959,8.876-10.118a31.092,31.092,0,0,1,5.264-3.947,11.793,11.793,0,0,0,4.659-4.621c1.26-2.721.856-6.042.849-8.965-.006-2.547-.017-5.095,0-7.642a2.022,2.022,0,0,0-3.414-1.414,21.429,21.429,0,0,1-9.4,5.292,20.489,20.489,0,0,1-6.213.725c-1.138-.045-4.061-.4-3.719-2.165a2.028,2.028,0,0,0-2.46-2.461c-3.578.8-5.931,3.834-8.189,6.481q-4.026,4.72-7.782,9.662c-4.04,5.3-10.39,13.142-5.44,19.907a2.06,2.06,0,0,0,2.737.717A2.014,2.014,0,0,0,85.353,462.263Z"/><path class="b" d="M83.925,234.85c1.45,15.238,2.306,30.537,3.234,45.813.914,15.046,1.935,30.094,2.575,45.156.552,13.006.91,26.02,1.229,39.034q.467,19.041.817,38.085c.149,7.548.213,15.106.516,22.65.014.341.028.681.049,1.022a2.075,2.075,0,0,0,1.468,1.928,28.762,28.762,0,0,0,6.56,1.007c3.095.241,6.2.306,9.309.289a115.96,115.96,0,0,0,20.751-1.721c2.527-.476,1.457-4.332-1.063-3.858a109.923,109.923,0,0,1-19.688,1.579c-3.011.017-6.027-.045-9.031-.268a22.931,22.931,0,0,1-5.775-.885l1.469,1.929c-.389-6.555-.356-13.152-.486-19.715q-.367-18.477-.774-36.953c-.31-13.237-.658-26.474-1.172-39.7-.555-14.276-1.49-28.533-2.345-42.793-.964-16.1-1.878-32.211-3.254-48.282q-.186-2.157-.389-4.312a2.056,2.056,0,0,0-2-2,2.014,2.014,0,0,0-2,2Z"/><path class="d" d="M177.86,463.272q.174-.227.329-.47a8.8,8.8,0,0,0,.583-7.379,24.183,24.183,0,0,0-3.787-6.608q-5.483-7.486-11.588-14.49c-1.586-1.82-3.38-3.716-5.752-4.164a3.568,3.568,0,0,1-1.774,3.742,8.365,8.365,0,0,1-4.278.966,23.743,23.743,0,0,1-16.619-6.614c.027,5-.023,6.663,0,11.664a10.5,10.5,0,0,0,.438,3.607c1.028,2.78,4.076,4.119,6.522,5.792,6.363,4.355,9.714,12.3,16.382,16.171a17.211,17.211,0,0,0,15.914.57A10.026,10.026,0,0,0,177.86,463.272Z"/><path class="b" d="M172.753,234.751c-1.45,15.25-2.084,30.586-2.884,45.88-.789,15.062-1.773,30.119-2.413,45.188-.552,13.006-.91,26.02-1.229,39.034q-.467,19.041-.817,38.085c-.15,7.548-.213,15.106-.516,22.65-.014.341-.029.681-.049,1.022l1.468-1.929a12.8,12.8,0,0,1-1.907.429c-.632.1-1.358.179-2.307.261-2.357.2-4.725.282-7.091.316a164.544,164.544,0,0,1-16.542-.562,64.415,64.415,0,0,1-7.407-.985c-2.513-.514-3.588,3.341-1.064,3.857a96.6,96.6,0,0,0,15.388,1.557,138.315,138.315,0,0,0,16.11-.134,25.661,25.661,0,0,0,5.884-.882,2.073,2.073,0,0,0,1.468-1.928c.389-6.555.356-13.152.486-19.715q.368-18.477.774-36.953c.31-13.237.658-26.474,1.172-39.7.555-14.281,1.487-28.543,2.236-42.814.846-16.122,1.542-32.267,2.859-48.358q.177-2.159.381-4.314a2.015,2.015,0,0,0-2-2,2.043,2.043,0,0,0-2,2Z"/><path class="b" d="M179.587,464.282c4.95-6.764-1.4-14.611-5.439-19.907q-3.763-4.932-7.783-9.662c-2.258-2.648-4.61-5.682-8.189-6.481a2.028,2.028,0,0,0-2.46,2.461c.343,1.766-2.586,2.12-3.718,2.165a20.454,20.454,0,0,1-6.213-.725,21.433,21.433,0,0,1-9.4-5.292,2.022,2.022,0,0,0-3.414,1.414c.011,2.268.006,4.537,0,6.805a48.183,48.183,0,0,0,.189,7.676c.812,5.082,5.969,6.587,9.377,9.571,3.39,2.967,5.9,6.763,8.938,10.057,3.234,3.5,7.2,6.272,11.985,7.07,5.371.894,12.207-.283,15.814-4.747a2.062,2.062,0,0,0,0-2.829,2.016,2.016,0,0,0-2.829,0c-2.682,3.32-7.738,4.32-11.787,3.739-4.287-.615-7.624-3.079-10.479-6.2-2.743-3-5.056-6.374-8-9.183a30.389,30.389,0,0,0-4.906-3.7c-1.437-.9-3.229-1.88-3.929-3.522a11.011,11.011,0,0,1-.371-4.221q0-1.775,0-3.548c.007-2.324.014-4.647,0-6.97l-3.414,1.414a25.442,25.442,0,0,0,13.619,6.851c2.665.427,5.737.7,8.324-.252a5.866,5.866,0,0,0,4.07-6.639l-2.46,2.461c2.863.638,4.786,3.526,6.578,5.632q3.458,4.063,6.714,8.294a57.644,57.644,0,0,1,5.642,8.083c1.343,2.571,1.9,5.682.086,8.164a2.014,2.014,0,0,0,.718,2.736A2.046,2.046,0,0,0,179.587,464.282Z"/><path class="b" d="M128.743,265.491c-.443,4.852-.392,9.769-.431,14.636-.06,7.289-.033,14.579.009,21.868.06,10.325.178,20.65.163,30.975q-.025,16.99-.066,33.98-.036,19.2-.038,38.407,0,6.946.033,13.892c.012,2.193-.077,4.426.089,6.616a2.307,2.307,0,0,0,1.015,1.93,2.012,2.012,0,0,0,2.737-.717,2.052,2.052,0,0,0-.718-2.737h0l.718.717c.179.333.251,1.395.238.562-.006-.351-.02-.7-.027-1.052-.023-1.233-.032-2.467-.04-3.7-.031-4.269-.036-8.538-.041-12.807q-.019-18.747.03-37.493.03-17.518.068-35.038c.016-9.555-.062-19.108-.128-28.662-.09-12.965-.414-26,.229-38.956.04-.807.089-1.614.162-2.419a2.014,2.014,0,0,0-2-2,2.043,2.043,0,0,0-2,2Z"/><path class="b" d="M108.8,105.124c-.561.238.07-.015.141-.041.215-.081.431-.159.647-.237.343-.123.689-.236,1.029-.364a9.341,9.341,0,0,0,2.624-1.415,6.4,6.4,0,0,0,2.186-3.687A59.05,59.05,0,0,0,116.6,88.567a2,2,0,0,0-4,0A60.541,60.541,0,0,1,111.631,98c-.05.263-.107.524-.18.78-.036.126-.08.249-.118.374-.139.462.12-.213-.01.026-.063.115-.121.233-.19.345-.057.092-.356.41-.073.117-.1.1-.2.206-.3.306-.055.053-.366.268-.1.09a22.855,22.855,0,0,1-3.88,1.633,2.014,2.014,0,0,0-.717,2.737,2.053,2.053,0,0,0,2.736.717Z"/><path class="b" d="M143.392,88.312a60.247,60.247,0,0,0,.7,8.046c.279,1.8.406,3.786,1.44,5.346a6.485,6.485,0,0,0,2.523,2.209c.341.169.695.314,1.048.455.783.309-.276-.156-.082-.046.215.121.462.206.686.308,1.244.565,2.479,1.148,3.727,1.7a2.063,2.063,0,0,0,2.736-.717,2.015,2.015,0,0,0-.717-2.737c-1.135-.5-2.259-1.033-3.389-1.548-.538-.245-1.078-.481-1.621-.715a5.908,5.908,0,0,1-1.046-.545c-.474-.325.167.2-.209-.18-.087-.084-.171-.172-.25-.264q.166.231.048.059c-.112-.165-.2-.337-.3-.51.164.3.006.021-.048-.142a8.25,8.25,0,0,1-.263-1.077c-.156-.838-.274-1.687-.407-2.529a52.15,52.15,0,0,1-.582-7.115c-.049-2.571-4.049-2.579-4,0Z"/><path class="f" d="M122.1,141.266c1.416-11.571,3.132-25.619,3.135-26.047a7.347,7.347,0,0,0-.3-1.838q-.105-.414-.2-.829c-.627-2.686-1.026-5.372-1.706-8.058,2.013,0,11.549-.022,14.321-.022-.934,2.85-1.121,4.84-2.056,7.69a11.164,11.164,0,0,0-.716,3.262c-.009.649,2.083,14.414,3.772,25.758.115,1.137,1.448,13.665,1.448,13.665l-19.356-.161Z"/><path class="b" d="M125.656,117.137c2.88,0,5.76-.064,8.641-.065a2,2,0,0,0,0-4c-2.881,0-5.761.064-8.641.065a2,2,0,0,0,0,4Z"/><path class="b" d="M140.025,139c-.986-6.611-1.993-13.218-2.952-19.833-.136-.934-.271-1.867-.4-2.8.064.466-.053-.386-.065-.524s-.037-.274-.039-.412c-.016-1.645.88-3.365,1.283-4.943.466-1.831.843-3.675,1.418-5.478a2.018,2.018,0,0,0-1.929-2.531c-4.774,0-9.547.021-14.321.022a2.023,2.023,0,0,0-1.928,2.532c.446,1.8.789,3.629,1.151,5.451.3,1.5,1,3.238.985,4.766a35.382,35.382,0,0,1-.424,3.725q-1.11,9.337-2.266,18.669a2.011,2.011,0,0,0,2,2,2.049,2.049,0,0,0,2-2q1.158-9.472,2.3-18.947a26.851,26.851,0,0,0,.38-3.7,32.14,32.14,0,0,0-1.069-5.336c-.382-1.9-.734-3.806-1.2-5.689l-1.929,2.532c4.774,0,9.547-.022,14.321-.022l-1.929-2.532c-.574,1.8-.953,3.647-1.418,5.478a31.935,31.935,0,0,0-1.4,5.589,22.824,22.824,0,0,0,.543,4.667c.98,6.8,2.018,13.59,3.032,20.384a2.014,2.014,0,0,0,2.46,1.4,2.051,2.051,0,0,0,1.4-2.46Z"/><path class="a" d="M140.218,114.713c4.282-4.255,7.086-9.41,10.249-14.558a22.828,22.828,0,0,0-4.646-6.278,46.208,46.208,0,0,1-13.334,9.293c-.276.125-.584.278-.673.567a1.07,1.07,0,0,0,.154.753,43.208,43.208,0,0,0,2.758,3.562C136.6,110.348,138.958,113.161,140.218,114.713Z"/><path class="a" d="M119.145,114.713c-4.282-4.255-7.086-9.41-10.249-14.558a22.812,22.812,0,0,1,4.647-6.278,46.19,46.19,0,0,0,13.333,9.293c.276.125.584.278.673.567a1.07,1.07,0,0,1-.154.753,43.208,43.208,0,0,1-2.758,3.562C122.761,110.348,120.405,113.161,119.145,114.713Z"/><path class="b" d="M141.633,116.127A59.559,59.559,0,0,0,150,104.779c.6-.994,1.2-1.991,1.806-2.984a2.9,2.9,0,0,0,.623-1.906,5.222,5.222,0,0,0-.817-1.8,24.324,24.324,0,0,0-4.38-5.623,2.034,2.034,0,0,0-2.828,0,43.48,43.48,0,0,1-7.17,5.811c-1.259.816-2.556,1.574-3.89,2.262-1.265.653-3.034,1.117-3.461,2.67a3.629,3.629,0,0,0,.946,3.142c.866,1.148,1.779,2.262,2.69,3.375,1.753,2.141,3.536,4.258,5.282,6.4a2.014,2.014,0,0,0,2.829,0,2.047,2.047,0,0,0,0-2.829c-1.458-1.791-2.942-3.561-4.411-5.343-.827-1-1.653-2.008-2.463-3.026-.228-.287-.458-.572-.675-.869-.094-.129-.184-.286-.288-.409-.178-.208.044-.246.018.086l-.273,1.01q-.5.409-.045.15l.311-.143c.313-.147.625-.3.935-.448q.95-.471,1.875-.988,1.908-1.064,3.71-2.3a48.337,48.337,0,0,0,6.908-5.722h-2.828a21.865,21.865,0,0,1,4.333,5.874V99.146c-3.018,4.924-5.829,10.025-9.936,14.152C136.987,115.125,139.814,117.955,141.633,116.127Z"/><path class="b" d="M120.559,113.3c-4.106-4.127-6.918-9.228-9.936-14.152v2.019a21.847,21.847,0,0,1,4.334-5.874h-2.829a48.535,48.535,0,0,0,6.909,5.722q1.8,1.237,3.71,2.3.849.474,1.719.91.464.233.935.453c.154.073.31.145.466.216q.451.259-.045-.15l-.273-1.01c-.022-.284.216-.317.019-.086-.087.1-.155.224-.232.332-.233.324-.484.635-.732.946-.81,1.018-1.636,2.022-2.463,3.026-1.469,1.782-2.953,3.552-4.41,5.343a2.059,2.059,0,0,0,0,2.829,2.014,2.014,0,0,0,2.828,0c1.711-2.1,3.457-4.177,5.175-6.273.922-1.126,1.843-2.253,2.725-3.411a3.723,3.723,0,0,0,1.019-3.237c-.416-1.509-2.074-1.961-3.306-2.59q-2-1.023-3.892-2.243a43.547,43.547,0,0,1-7.323-5.91,2.037,2.037,0,0,0-2.829,0,24.226,24.226,0,0,0-4.293,5.472,7.735,7.735,0,0,0-.868,1.689,2.676,2.676,0,0,0,.588,2.171c.6.993,1.2,1.99,1.8,2.984a59.521,59.521,0,0,0,8.371,11.348C119.549,117.954,122.378,115.126,120.559,113.3Z"/><path class="e" d="M38.509,153.857a179.982,179.982,0,0,0,6.36,25.073c2.16,6.183,3.482,12.784,9.823,16.86,6.481,4.167,13.2,2.455,18.477-1.683a34.661,34.661,0,0,0,6.244-6.2,50.775,50.775,0,0,0,6.469-9.14l.186-.246c.453,6.351.8,11.576.9,13.246.28,4.636-.463,9.26-.946,13.88-1.662,15.89-2.868,25.673-4.129,41.737,6.993,1.469,27.115,2.237,33.769-.743,7.39-3.31,12.925-23.484,14.488-31.912l.231-.622c2.675,14.2,7.724,30.675,14.355,33.1,7.092,2.592,27.912,1.988,35.327.477-.475-6.072-.941-11.244-1.427-16.176l.637-.069,16.538-1.875a2.489,2.489,0,0,0,2.183-2.6c-.1-2.139-.112-3.956-.41-10.081-1.379-28.332-3.326-58.34-4.7-85.758-.321-6.379-1.473-11.273-7.785-16.312-1.479-1.18-3.554-1.516-5.217-2.42a259.621,259.621,0,0,0-30.043-14.431,175.384,175.384,0,0,1-5.131,22.133,337.739,337.739,0,0,1-13.542,37.665l-.945-2.041c-3.685-7.958-10.532-23.934-15.529-38.249-2.656-7.61-5.005-13.959-6.363-18.057a269.446,269.446,0,0,0-26.487,12.98c-1.974,1.074-4.531,1.346-5.987,3.2a7.264,7.264,0,0,0-.962.729c-2.135,2.529-3.642,6.679-4.348,9.384-1.158,4.442-2.99,12.207-4.876,20.23a48.38,48.38,0,0,0-2.17,6.649c-2.2-6.427-4.369-12.945-5.028-14.311-1.841.053-18.394,5.859-21.361,7.034C37.381,147.332,37.852,150.323,38.509,153.857Z"/><path class="b" d="M53.838,130.587c-.834-1.721-2.194-3.4-2.753-5.228-.528-1.727-.094-3.665-.52-5.437a25.1,25.1,0,0,0-5.444-10c-1.553-1.878-3.209-3.668-4.926-5.4a28.968,28.968,0,0,0-4.923-4.5,4.746,4.746,0,0,0-5.789.574,4.7,4.7,0,0,0-1.093,5.131,19.333,19.333,0,0,0,3.348,5.9c1.176,1.5,2.708,3,3.449,4.794a2.065,2.065,0,0,0,2.46,1.4,2.012,2.012,0,0,0,1.4-2.46c-1.269-3.064-3.741-5.257-5.5-8.015-.486-.764-1.844-2.781-1.478-3.733-.045.117.2-.162.338-.223.244-.106.2-.149.452-.114.716.1,1.5,1.153,1.99,1.618a81.742,81.742,0,0,1,8.194,8.788c1.715,2.207,3.494,5.11,3.768,7.957.188,1.945-.04,3.886.773,5.721.8,1.812,1.936,3.465,2.8,5.249,1.122,2.316,4.573.29,3.454-2.019Z"/><path class="b" d="M38.147,114.485c-3.924-.873-7.909-1.464-11.853-2.232-2.405-.467-4.546-1.878-6.706-3a42.439,42.439,0,0,0-4.819-2.238,9.783,9.783,0,0,0-2.525-.648,19.483,19.483,0,0,0-2.121.23l1.009.273C7.92,105.042,2.3,105.648.577,109.261c-1.6,3.342.422,7.207,2.45,9.874,2.414,3.175,5.75,5.5,8.937,7.846a39.668,39.668,0,0,0,12.366,6.328c2.551.739,5.121,1.429,7.617,2.346a10.246,10.246,0,0,1,5.461,4.077c1.35,2.186,4.812.179,3.454-2.019-3.733-6.044-11.173-6.7-17.31-8.836a35.383,35.383,0,0,1-8.286-4.431,61.918,61.918,0,0,1-7.018-5.428,14.63,14.63,0,0,1-3.915-5.574c-.587-1.686-.514-3.139,1.573-3.412A8.374,8.374,0,0,1,8.028,110a10.712,10.712,0,0,1,1.563.527c.8.221,1.48-.191,2.254-.191a7.6,7.6,0,0,1,2.58.822c1.6.68,3.108,1.558,4.663,2.329a40.8,40.8,0,0,0,4.4,2.192A43.125,43.125,0,0,0,30.052,117c2.346.428,4.7.823,7.032,1.341,2.508.558,3.579-3.3,1.063-3.857Z"/><path class="b" d="M28.523,124.584c1.113.182,2.234.316,3.354.448.276.032.553.065.829.1l.368.046c.176.022.224.029.019,0,.518.072,1.034.151,1.548.248a16.593,16.593,0,0,1,2.879.794c.16.062.2.094.018.007.108.052.218.1.326.153.215.105.428.219.635.34.237.138.462.291.688.444.26.175-.209-.177.038.021.122.1.24.2.357.3a2,2,0,0,0,2.829-2.828,13.589,13.589,0,0,0-6.348-3.022c-1.169-.24-2.357-.388-3.541-.531-.521-.062-1.043-.122-1.564-.185l-.457-.058c-.182-.022-.216-.03-.014,0-.3-.044-.6-.088-.9-.137a2.051,2.051,0,0,0-2.46,1.4,2.024,2.024,0,0,0,1.4,2.46Z"/><path class="b" d="M10.12,112.211c3.273,3.334,7.818,5.609,12.189,7.126a2.013,2.013,0,0,0,2.46-1.4,2.049,2.049,0,0,0-1.4-2.461q-.688-.239-1.367-.508l-.376-.152c-.192-.078-.144-.061.018.009-.235-.1-.469-.2-.7-.308-1.031-.465-2.044-.974-3.03-1.527a30.673,30.673,0,0,1-2.822-1.777c-.1-.068-.19-.136-.284-.206.006.005-.414-.309-.213-.156s-.164-.131-.2-.161c-.087-.071-.174-.142-.26-.215q-.62-.519-1.187-1.1a2,2,0,1,0-2.828,2.828Z"/><path class="b" d="M6.37,114.979A14.462,14.462,0,0,0,9.3,117.461c1.246.878,2.55,1.672,3.871,2.43a50.162,50.162,0,0,0,6.864,3.438,2.008,2.008,0,0,0,2.46-1.4,2.058,2.058,0,0,0-1.4-2.461c-.081-.031-.161-.065-.242-.1-.3-.113.483.213.192.08-.2-.09-.4-.178-.6-.27-.508-.235-1.01-.481-1.509-.732q-1.9-.957-3.749-2.017c-1.279-.734-2.542-1.5-3.751-2.346-.271-.189-.537-.385-.8-.58-.321-.237.307.26-.014-.012-.127-.107-.259-.209-.386-.317a8.169,8.169,0,0,1-1.04-1.031,2.007,2.007,0,0,0-2.829,0,2.056,2.056,0,0,0,0,2.828Z"/><path class="a" d="M37.7,143.7c-.667-1.408-1.926-5.26-2.481-6.711,2.555-1.215,17.074-6.549,18.933-7.237a67.053,67.053,0,0,1,3.1,9.01Z"/><path class="b" d="M39.422,142.691c-.788-1.712-1.515-4.209-2.28-6.232l-.919,2.258c.217-.1.436-.2.656-.292-.564.246.285-.116.448-.183.761-.31,1.527-.61,2.293-.909q2.977-1.158,5.971-2.275,4.538-1.7,9.087-3.376l-2.258-.92a5.08,5.08,0,0,1,.33.66c-.209-.465,0,.009.041.116.091.238.183.474.272.713.341.919.659,1.847.968,2.776q.444,1.332.857,2.672c.1.342.21.683.3,1.028.2.721-.138.576.13-.5-.625,2.5,3.231,3.563,3.857,1.063a4.125,4.125,0,0,0-.286-2.168c-.292-.986-.608-1.965-.931-2.94a24.532,24.532,0,0,0-2.088-5.443,2.035,2.035,0,0,0-2.259-.92c-3.11,1.151-6.22,2.3-9.324,3.466-3.368,1.266-6.827,2.441-10.087,3.973a2,2,0,0,0-.919,2.259c.9,2.39,1.613,4.863,2.683,7.188a2.016,2.016,0,0,0,2.736.718,2.047,2.047,0,0,0,.718-2.737Z"/><path class="b" d="M76.1,113.066a10.318,10.318,0,0,0-3.377,2.79,22.544,22.544,0,0,0-2.554,4.733,63.884,63.884,0,0,0-2.815,9.582c-1.025,4.193-2.015,8.4-3,12.6a19.886,19.886,0,0,1-.811,3.063c-.27.656-.508,1.323-.734,2-.466,1.39-.9,2.8-1.244,4.224-.607,2.5,3.25,3.568,3.857,1.064.71-2.929,1.938-5.666,2.621-8.568.955-4.059,1.911-8.118,2.894-12.171a87.372,87.372,0,0,1,2.414-8.985,22.834,22.834,0,0,1,2.215-4.625,6.081,6.081,0,0,1,2.556-2.246c2.236-1.275.223-4.733-2.018-3.454Z"/><path class="b" d="M70.09,164.838c-.106-.214-.2-.432-.3-.65-.161-.358-.041-.093-.059-.137q-.112-.273-.222-.546c-.314-.787-.612-1.582-.906-2.377-.787-2.135-1.534-4.284-2.276-6.434-1.5-4.352-2.949-8.722-4.471-13.066a44.63,44.63,0,0,0-1.662-4.365,1.952,1.952,0,0,0-1.727-.991,17.87,17.87,0,0,0-4.124,1c-2.19.669-4.363,1.393-6.532,2.127-3.76,1.272-7.542,2.529-11.237,3.983a2.088,2.088,0,0,0-1.4,2.46c.756,5.48,1.791,10.928,2.989,16.328,1.523,6.863,3.556,13.508,5.739,20.181,2.064,6.306,4.679,12.422,10.794,15.772A16.335,16.335,0,0,0,65.5,199.9a21.635,21.635,0,0,0,9.615-4.8,46.6,46.6,0,0,0,6.516-6.723,43.335,43.335,0,0,0,5.976-8.6c1.111-2.309-2.337-4.34-3.454-2.019a37.579,37.579,0,0,1-4.759,7.071,55.065,55.065,0,0,1-5.062,5.7c-4.573,4.281-10.862,7.462-17.009,4.465-5.625-2.744-7.789-8.276-9.62-13.871-2.039-6.228-3.959-12.426-5.417-18.823-1.319-5.787-2.444-11.635-3.256-17.516l-1.4,2.46c3.607-1.42,7.3-2.648,10.969-3.892,2.153-.73,4.311-1.449,6.483-2.12.8-.246,1.595-.489,2.4-.7.284-.075.569-.141.854-.212.1-.025.2-.033.3-.061.345-.1-.581.048-.176.026l-1.727-.99c.024.05.053.17.093.2.182.149-.155-.394-.052-.122s.219.559.324.839c.26.695.509,1.393.755,2.093.713,2.025,1.4,4.058,2.094,6.09,1.519,4.465,3.014,8.941,4.633,13.371a51.448,51.448,0,0,0,2.051,5.1c1.138,2.309,4.589.285,3.454-2.019Z"/><path class="b" d="M82.992,164.177c.745,9.34,1.574,18.7,2,28.065a61.744,61.744,0,0,1-.566,9.815c-.367,3.2-.7,6.4-1.042,9.6-.581,5.437-1.178,10.872-1.734,16.311q-1.01,9.876-1.787,19.773c-.2,2.566,3.8,2.553,4,0,.888-11.323,2.074-22.613,3.288-33.9.336-3.129.65-6.261,1-9.388.365-3.262.809-6.523.87-9.809.069-3.727-.35-7.494-.607-11.208q-.663-9.63-1.421-19.254c-.2-2.549-4.206-2.57-4,0Z"/><path class="b" d="M76.366,115.43C78.06,127.257,80.5,139,81.794,150.88c.482,4.424.842,8.862,1.2,13.3.2,2.549,4.206,2.571,4,0-.555-6.913-1.163-13.81-2.171-20.674-.974-6.632-2.084-13.243-3.154-19.86-.5-3.089-1-6.178-1.444-9.276a2.013,2.013,0,0,0-2.46-1.4,2.052,2.052,0,0,0-1.4,2.46Z"/><path class="b" d="M77.627,116.534c1.733-1.284,3.965-1.739,5.855-2.765q3.494-1.9,7.01-3.744,3.351-1.751,6.746-3.414,1.677-.819,3.366-1.61c1.035-.485,2.64-.9,3.458-1.72,1.823-1.822-1-4.651-2.828-2.828-.028.028-1.1.377-1.358.495q-.86.4-1.717.8-1.684.793-3.354,1.613-3.393,1.663-6.738,3.424-3.317,1.738-6.6,3.531c-1.895,1.029-4.111,1.472-5.856,2.765a2.063,2.063,0,0,0-.717,2.737,2.014,2.014,0,0,0,2.736.717Z"/><path class="b" d="M135.02,175.681a4.74,4.74,0,0,1,.038-.558l-.071.532a3.729,3.729,0,0,1,.235-.874l-.2.478a3.161,3.161,0,0,1,.225-.432c.038-.059.081-.114.119-.173-.361.547-.236.3-.107.162.058-.061.121-.116.182-.173.219-.2-.442.3-.171.133a3.937,3.937,0,0,1,.477-.261l-.478.2a3.787,3.787,0,0,1,.931-.247l-.532.071a4.4,4.4,0,0,1,1.094,0l-.532-.072a3.761,3.761,0,0,1,.839.227l-.478-.2a4.441,4.441,0,0,1,.486.26c.272.159-.393-.343-.164-.131.064.058.129.115.19.177a1.572,1.572,0,0,0,.171.192c-.073-.052-.331-.459-.141-.167a3.266,3.266,0,0,1,.243.456l-.2-.478a4.139,4.139,0,0,1,.277,1.031l-.071-.532a4.3,4.3,0,0,1,.014,1.039l.071-.532a3.561,3.561,0,0,1-.226.843l.2-.477a3.312,3.312,0,0,1-.244.469c-.036.058-.078.111-.114.168.362-.565.226-.282.092-.138-.064.07-.134.132-.2.2-.216.205.442-.308.176-.132a3.754,3.754,0,0,1-.536.3l.478-.2a3.758,3.758,0,0,1-.919.25l.532-.071a4.585,4.585,0,0,1-1.073.01l.532.072a3.407,3.407,0,0,1-.812-.211l.477.2a3.828,3.828,0,0,1-.463-.251c-.265-.162.446.383.123.091-.061-.055-.119-.113-.174-.173-.128-.139-.239-.385.115.164-.044-.067-.092-.131-.134-.2a3.621,3.621,0,0,1-.232-.451l.2.477a4.282,4.282,0,0,1-.273-1.006l.071.531a4.946,4.946,0,0,1-.042-.6,2,2,0,0,0-4,0,5.347,5.347,0,0,0,2.614,4.785,5.505,5.505,0,0,0,6.484-1.091,5.09,5.09,0,0,0,1.2-2.5,5.961,5.961,0,0,0-.235-2.994,5.059,5.059,0,0,0-2.123-2.66,5.77,5.77,0,0,0-3.828-.609,4.854,4.854,0,0,0-3.225,2.023,5.326,5.326,0,0,0-.891,3.046,2,2,0,0,0,4,0Z"/><path class="b" d="M105.778,97.981c2.312,7.654,5.224,15.172,7.928,22.693,3.084,8.581,6.5,17.045,10.079,25.429,1.522,3.561,3.078,7.108,4.7,10.623a2.017,2.017,0,0,0,2.737.717,2.045,2.045,0,0,0,.717-2.736c-7.1-15.346-12.938-31.152-18.618-47.062-1.271-3.558-2.6-7.109-3.689-10.727-.742-2.458-4.6-1.41-3.857,1.063Z"/><path class="b" d="M150.607,100.413q9.093,3.7,17.834,8.178c2.861,1.459,5.7,2.966,8.521,4.493a34.37,34.37,0,0,0,4.145,2,11.222,11.222,0,0,1,3.734,2.117,17.006,17.006,0,0,1,4.584,6.088,21.8,21.8,0,0,1,1.4,6.955c.448,6.847.719,13.711,1.1,20.563.8,14.419,1.66,28.836,2.458,43.256q.593,10.7,1.127,21.4c.132,2.688.257,5.377.352,8.066.036,1.029.508,3.262-.168,4.007-.156.171.256-.028-.008.029a4.214,4.214,0,0,1-.436.05l-1.844.209-5.621.637-8.517.966a2.06,2.06,0,0,0-2,2,2.014,2.014,0,0,0,2,2c5.473-.621,10.951-1.2,16.418-1.862a4.607,4.607,0,0,0,4.3-4.61c.013-1.666-.121-3.354-.186-5.019-.274-7.062-.673-14.121-1.054-21.178-.812-15.08-1.708-30.156-2.559-45.234q-.626-11.064-1.2-22.13c-.285-5.586-.719-11.069-4.229-15.681a23.862,23.862,0,0,0-3.577-3.764,14.859,14.859,0,0,0-4.651-2.591c-3.421-1.281-6.627-3.4-9.868-5.089q-10.275-5.346-21-9.719a2.012,2.012,0,0,0-2.46,1.4,2.049,2.049,0,0,0,1.4,2.46Z"/><path class="b" d="M181.255,114.083c-2.458,15.531-5.07,31.061-6.273,46.749-.609,7.934-1.113,15.876-1.595,23.819q-.207,3.432-.41,6.862c-.345,5.969.7,11.974,1.328,17.9,1.357,12.769,2.757,25.529,3.761,38.332.2,2.549,4.2,2.571,4,0-.882-11.251-2.058-22.471-3.264-33.691-.667-6.2-1.655-12.458-1.873-18.692-.1-2.784.15-5.576.317-8.353.861-14.38,1.5-28.845,3.509-43.12,1.348-9.595,2.842-19.169,4.357-28.738a2.063,2.063,0,0,0-1.4-2.46,2.014,2.014,0,0,0-2.46,1.4Z"/><path class="b" d="M179.546,245.747a77.689,77.689,0,0,1-12.154,1.132,119.919,119.919,0,0,1-14.818-.264,36.444,36.444,0,0,1-5.81-.89,6.257,6.257,0,0,1-3.532-1.965c-3.2-3.292-4.935-8.136-6.388-12.393a133.311,133.311,0,0,1-4.973-20.206,2.017,2.017,0,0,0-2.46-1.4,2.045,2.045,0,0,0-1.4,2.46,138.341,138.341,0,0,0,4.495,18.764c1.653,5.123,3.637,10.465,7.081,14.682a10.919,10.919,0,0,0,4.783,3.52,27.535,27.535,0,0,0,5.674,1.153,102.182,102.182,0,0,0,15.388.593A87.967,87.967,0,0,0,180.61,249.6c2.521-.506,1.454-4.363-1.064-3.857Z"/><path class="b" d="M81.469,249.334a82.265,82.265,0,0,0,13.739,1.287,87.455,87.455,0,0,0,15.946-.747,19.455,19.455,0,0,0,5.687-1.59,13.317,13.317,0,0,0,4.464-4.052c3.073-4.032,5.008-8.949,6.664-13.7a105.629,105.629,0,0,0,4.108-15.276c.471-2.517-3.384-3.595-3.857-1.064a106.318,106.318,0,0,1-3.286,12.813,58.164,58.164,0,0,1-5.729,13.25,15.253,15.253,0,0,1-3.368,3.971,10.972,10.972,0,0,1-4.46,1.568,69.975,69.975,0,0,1-14.191.869,81.775,81.775,0,0,1-14.654-1.188c-2.514-.5-3.589,3.351-1.063,3.858Z"/><path class="b" d="M131.942,211.693c-1.042-8.379-1.928-16.778-2.743-25.182-.306-3.15-.6-6.3-.867-9.454a35.9,35.9,0,0,1-.2-5.945c.272-3.348,1.855-6.143,3.276-9.108,1.636-3.412,3.1-6.909,4.511-10.42,3.764-9.381,7.059-18.958,10.01-28.624a210.321,210.321,0,0,0,6.019-25.545,2.059,2.059,0,0,0-1.4-2.461,2.017,2.017,0,0,0-2.46,1.4c-3.038,17.558-8.419,34.6-14.856,51.194-1.454,3.748-2.972,7.473-4.66,11.122-1.366,2.951-3.129,5.829-3.912,9.009-1.274,5.174-.222,10.816.27,16.028.881,9.342,1.854,18.678,3.012,27.989a2.064,2.064,0,0,0,2,2,2.011,2.011,0,0,0,2-2Z"/><path class="b" d="M106.462,96.469a41.1,41.1,0,0,0-5.551,4.254,69.467,69.467,0,0,0-6.008,5.626c-1.28,1.383-3.144,3.29-1.922,5.264.79,1.276,1.809,2.468,2.721,3.657a46.214,46.214,0,0,0,3.526,4.224v-2.829a30.252,30.252,0,0,0-3.542,3.545,5.1,5.1,0,0,0-1.475,3.044,5.632,5.632,0,0,0,.982,2.511c1.5,2.629,3.234,5.131,4.936,7.627,4.886,7.166,9.962,14.218,15.257,21.087a68.207,68.207,0,0,0,6.334,7.624c1.853,1.789,4.685-1.036,2.828-2.828a56.592,56.592,0,0,1-5.042-5.959c-2.313-2.956-4.738-6.224-7.036-9.375-4.459-6.114-8.938-12.274-12.93-18.708-.513-.826-.943-1.7-1.441-2.529-.03-.05.143.544.054.085-.048-.243.088.619.055.424.088.517-.212.367.084.167.053-.036.416-.576.444-.611.325-.405.694-.781,1.057-1.152.724-.74,1.488-1.438,2.263-2.123a2.026,2.026,0,0,0,0-2.829,39.012,39.012,0,0,1-2.9-3.414,38.445,38.445,0,0,0-2.593-3.482c-.429-.437-.037-.724-.019.527a1.115,1.115,0,0,1-.152.6,6.389,6.389,0,0,0,.442-.7c-.293.408.162-.193.22-.261.128-.151.259-.3.391-.445.351-.391.715-.771,1.083-1.146,1.719-1.747,3.551-3.389,5.421-4.972a32.339,32.339,0,0,1,4.532-3.45c2.215-1.307.205-4.766-2.019-3.454Z"/><path class="b" d="M149.909,100.046a56.285,56.285,0,0,1,10.151,8.269,24.736,24.736,0,0,1,1.88,1.992c.245.3-.277-.21.106.159.067.064.089.239.163.28-.309-.174-.07-.748-.048-1.083.049-.747.05-.307-.081-.169-2.024,2.13-3.812,4.51-5.822,6.663a2.024,2.024,0,0,0,0,2.829,34.265,34.265,0,0,1,3.522,3.4c.169.195.684.886.673.889-.042.012.006-1.169.006-.633a1.133,1.133,0,0,1-.107.307c-.138.391.245-.5-.027.056-.194.4-.382.8-.583,1.194-1.376,2.7-2.905,5.328-4.427,7.949q-6.06,10.439-12.539,20.633c-.942,1.479-1.892,2.953-2.867,4.41-.366.546-.734,1.09-1.113,1.628-.14.2-.281.4-.425.595-.063.086-.128.17-.19.257-.3.422.223-.281.032-.037a2.064,2.064,0,0,0,0,2.828,2.014,2.014,0,0,0,2.829,0c4.16-5.307,7.539-11.334,11.041-17.079,3.866-6.344,7.856-12.7,11.2-19.343a11.479,11.479,0,0,0,1.064-2.478,4.083,4.083,0,0,0-1.2-3.341,30.13,30.13,0,0,0-4.065-4.063v2.829a63.671,63.671,0,0,0,6.415-7.427c1.361-2.018-.425-3.844-1.807-5.269a71.756,71.756,0,0,0-6.095-5.464,46.443,46.443,0,0,0-5.671-4.234c-2.223-1.309-4.238,2.147-2.019,3.454Z"/><path class="d" d="M155.763,17.049c4.263,2.052,6.877,6.605,8.4,10.491,2.254,5.759,2.849,15.492.414,23.032a3.935,3.935,0,0,0-.432-.088,4.57,4.57,0,0,0-3.548.977,39.086,39.086,0,0,0-6.745-14.242,16.01,16.01,0,0,0-7.395-5.564,31.283,31.283,0,0,1-5.86,2.854,35.929,35.929,0,0,1-8.423,1.81c-8.393.689-13.938.678-21.825-1.474A25.12,25.12,0,0,1,99.014,51.629a4.57,4.57,0,0,0-3.747-1.145c-.1.015-.2.033-.3.055a38.984,38.984,0,0,1,.194-25.929A22.885,22.885,0,0,0,96.469,16.9a25.528,25.528,0,0,1,4.942-5.487c8.052-6.749,16.293-8.77,24.254-9.326,8.678-.607,21.532,2.251,26.585,11.645Z"/><path class="b" d="M96.822,20a31.568,31.568,0,0,1,9.765-9.939,37.272,37.272,0,0,1,13.026-5.195c7.208-1.429,15.047-1.213,21.818,1.893a19.106,19.106,0,0,1,9.092,7.982c1.241,2.255,4.7.239,3.454-2.019C149.751,5.047,141.093,1.405,132.769.33a43.334,43.334,0,0,0-26.681,5.349,39.4,39.4,0,0,0-7.55,5.629,35.81,35.81,0,0,0-5.169,6.675c-1.388,2.178,2.073,4.186,3.453,2.019Z"/><path class="b" d="M96.72,49.5a38.178,38.178,0,0,1-1.744-15.082A33.911,33.911,0,0,1,96.571,26.6a33.441,33.441,0,0,0,1.871-8.321c.176-2.569-3.824-2.558-4,0-.195,2.861-1.178,5.388-1.993,8.1a39.1,39.1,0,0,0-1.506,8.464,41.232,41.232,0,0,0,1.92,15.715c.8,2.434,4.665,1.392,3.857-1.063Z"/><path class="b" d="M154.753,18.776c4.662,2.339,7.3,7.631,8.469,12.51a36.248,36.248,0,0,1-.29,17.814c-.687,2.485,3.171,3.545,3.857,1.063a40.39,40.39,0,0,0,.205-20.287c-1.444-5.706-4.784-11.825-10.222-14.554-2.294-1.152-4.322,2.3-2.019,3.454Z"/><path class="b" d="M161.888,52.971a2.505,2.505,0,0,1,3.566.47,5.227,5.227,0,0,1,.5,2.643,15.56,15.56,0,0,1-.22,3.2c-.694,3.8-2.63,8.35-6.852,9.107a2.018,2.018,0,0,0-1.4,2.461,2.045,2.045,0,0,0,2.46,1.4c6.412-1.15,9.469-8.391,9.952-14.2.247-2.979.011-6.388-2.566-8.319a6.62,6.62,0,0,0-8.275.418,2.016,2.016,0,0,0,0,2.828,2.044,2.044,0,0,0,2.829,0Z"/><path class="b" d="M157.369,66.9a17.294,17.294,0,0,1-1.009,4.678c-.09.276-.194.549-.277.827-.037.126-.2.479.025-.035-.142.327-.3.65-.456.969a39.407,39.407,0,0,1-3.39,5.448c-2.958,4.056-6.972,8.353-12.038,9.541-2.5.588-1.445,4.446,1.063,3.857C147.32,90.773,152,85.84,155.55,81.035c3.066-4.152,5.606-8.856,5.819-14.132.1-2.574-3.9-2.569-4,0Z"/><path class="b" d="M100.35,50.143a6.621,6.621,0,0,0-8.274-.418c-2.579,1.926-2.813,5.344-2.566,8.319.482,5.811,3.54,13.052,9.952,14.2a2.057,2.057,0,0,0,2.46-1.4,2.018,2.018,0,0,0-1.4-2.461c-4.222-.757-6.158-5.307-6.852-9.107a15.493,15.493,0,0,1-.223-3.019,6.008,6.008,0,0,1,.431-2.7,2.491,2.491,0,0,1,3.641-.592,2.053,2.053,0,0,0,2.828,0,2.015,2.015,0,0,0,0-2.828Z"/><path class="b" d="M98.249,66.628a35.619,35.619,0,0,0,7.587,17.053c4.268,5.054,9.918,8.709,16.574,9.427a2.012,2.012,0,0,0,2-2,2.047,2.047,0,0,0-2-2c-5.712-.616-10.483-4.272-14.027-8.592-3.494-4.261-5.34-9.586-6.276-14.952a2.019,2.019,0,0,0-2.461-1.4,2.048,2.048,0,0,0-1.4,2.461Z"/><path class="b" d="M145.923,33.584c3.655,1.352,6.292,4.35,8.25,7.587a34.328,34.328,0,0,1,4.436,10.514,2,2,0,1,0,3.857-1.064,37.633,37.633,0,0,0-5.137-11.952,20.911,20.911,0,0,0-10.343-8.942,2.018,2.018,0,0,0-2.46,1.4,2.042,2.042,0,0,0,1.4,2.46Z"/><path class="b" d="M146.642,29.166a30.6,30.6,0,0,1-8.535,4.018,45.273,45.273,0,0,1-10,1.419,54.629,54.629,0,0,1-18.226-1.968c-2.48-.706-3.539,3.152-1.063,3.858a58.745,58.745,0,0,0,19.721,2.086,49.05,49.05,0,0,0,10.855-1.6,34.1,34.1,0,0,0,9.272-4.36c2.142-1.408.14-4.874-2.019-3.454Z"/><path class="b" d="M108.324,34.832a23.555,23.555,0,0,1-10.3,15.056,2.046,2.046,0,0,0-.717,2.736,2.02,2.02,0,0,0,2.736.718A27.639,27.639,0,0,0,112.181,35.9a2.051,2.051,0,0,0-1.4-2.46,2.018,2.018,0,0,0-2.46,1.4Z"/><path class="b" d="M123.869,76.712a12.789,12.789,0,0,0,6.155,1.434,10.12,10.12,0,0,0,6.3-1.9,2,2,0,0,0,0-2.828,2.062,2.062,0,0,0-2.829,0c.686-.534-.068.016-.288.131-.171.089-.637.23-.024.031-.17.055-.335.129-.5.184-.215.069-.434.128-.654.179-.118.027-.7.06-.76.143.068-.094.392-.044-.012,0-.138.013-.277.025-.416.034q-.5.031-1,.028c-.3,0-.6-.012-.9-.032-.137-.01-.275-.021-.412-.035-.078-.007-.156-.016-.234-.026-.156-.018-.1-.012.158.021a3.732,3.732,0,0,1-1.321-.293c-.185-.055-.365-.122-.547-.184-.463-.158.4.194-.019,0-.227-.107-.45-.218-.671-.335a2,2,0,1,0-2.019,3.454Z"/><path class="b" d="M128.8,62.485a27.791,27.791,0,0,1,.654,2.992l-.071-.532a1.842,1.842,0,0,1,.011.413l.071-.531a.908.908,0,0,1-.045.185l.2-.477a.86.86,0,0,1-.066.119l.313-.405a.642.642,0,0,1-.1.1l.405-.313a1.986,1.986,0,0,1-.237.125l.478-.2a1.746,1.746,0,0,1-.4.116l.532-.071a1.568,1.568,0,0,1-.375,0l.531.072c-.141-.02-.28-.054-.421-.074a1.515,1.515,0,0,0-.8-.035,1.486,1.486,0,0,0-.743.237,2,2,0,0,0-.718,2.736,1.916,1.916,0,0,0,1.2.92c.363.049.715.14,1.085.156a3.548,3.548,0,0,0,1.652-.4,2.483,2.483,0,0,0,1.347-1.626,3.886,3.886,0,0,0-.014-1.7c-.163-.964-.386-1.919-.634-2.865a2,2,0,0,0-2.46-1.4,2.025,2.025,0,0,0-1.195.919,2.1,2.1,0,0,0-.2,1.542Z"/><path class="b" d="M113.424,53.886c-.5,1.624-.174,5.36,2.9,5.678,4.067-.024,4.283-4.541,2.914-6.664C118.119,51.161,114.824,50.438,113.424,53.886Z"/><path class="b" d="M145.986,53.887c.5,1.623.174,5.359-2.9,5.677-4.067-.025-4.283-4.541-2.914-6.665C141.29,51.161,144.586,50.438,145.986,53.887Z"/></svg>