<?xml version="1.0" encoding="utf-8"?>
<!-- Uploaded to: SVG Repo, www.svgrepo.com, Generator: SVG Repo Mixer Tools -->
<svg width="800px" height="800px" viewBox="0 -63.84 404.55 404.55" xmlns="http://www.w3.org/2000/svg"><defs><style>.a{fill:#ffffff;}.b{fill:#bdbdbd;}.c{fill:#87cce3;}.d{fill:#957f6e;}.e{fill:#211715;}.f{fill:none;}.g{fill:#231917;}</style></defs><path class="a" d="M164.3,86.259c.84-5.9.44-7.96-.73-13.05,0,0-.061-.266-.15-.668-3.374,4.606-19.291,11.815-29.982,10.554a37,37,0,0,1-4.322,2.806c-2.233,1.188-11.785,2.382-13.844,4.246a34.55,34.55,0,0,0-7.878,10.472,11.1,11.1,0,0,0-3.484-3.854,8.268,8.268,0,0,0-6.37-1.285c-3.2.808-4.86,3.855-5.443,6.757a19.415,19.415,0,0,0,2.522,13.511c-.52,2.081-.851,3.385-.851,3.385-.739,2.915-4.074,8.074-8.74,11.407A29.939,29.939,0,0,1,71.482,135.6,41.038,41.038,0,0,1,73.153,148.8a25.286,25.286,0,0,1-5.04,14.169c9.046,13.574,25.424,24.074,47.752,18.027,4.522-1.225,7.247-4.832,8.936-8.138-.416-.62-.69-1.031-.69-1.031-2.557-3.835-3.271-11.609-1.513-15.244l.045-.093a34.086,34.086,0,0,0,15.232,2.487,14.779,14.779,0,0,0,9.776-5.175c3.86-4.184,7.421-12.965,8.7-16.954.966-1.659,1.493-4.048,3.181-5.117,2.557-1.619,6.9-1.493,6.245-5.651a7.179,7.179,0,0,0-2.33-4.025c-5.864-5.51-3.409-15.965-1.656-23.5a57.359,57.359,0,0,0,2.51-12.292"/><path class="b" d="M83.253,43.429c2.889-6.444,12.148-10.667,27.012-10.9,11.419-.178,23.35,2.173,29.81,9.477l6.587,4.358c7.207,1.865,17.313,16.259,16.986,25.847-2.819,4.577-19.25,12.172-30.2,10.881a37.047,37.047,0,0,1-4.325,2.808c-2.233,1.188-11.785,2.382-13.844,4.246a34.391,34.391,0,0,0-7.871,10.475,11.174,11.174,0,0,0-3.491-3.857,8.268,8.268,0,0,0-6.37-1.285c-3.2.808-4.86,3.855-5.443,6.757a19.41,19.41,0,0,0,2.522,13.511c-.52,2.08-.851,3.385-.851,3.385-.739,2.915-4.074,8.074-8.74,11.407a29.967,29.967,0,0,1-13.549,5.066,74.73,74.73,0,0,0-6.254-14.151c-7.994-13.718-8.736-31.248-8.583-34.333.83-16.8,5.719-32.8,19.5-37.915Z"/><path class="a" d="M196.281,247.786c-1.36-.007-2.426,0-3.084.017a4.955,4.955,0,0,1-3.821-2.088c-1.208-1.911-.835-4.419,3.183-5.884-.814.057-1.614.119-2.384.185-1.081.093-4.351-.973-3.911-4.2.213-1.564,1.066-2.275,2.986-2.986a52.165,52.165,0,0,1,8.926-1.146l-3.664-.845a3.45,3.45,0,0,1-1.706-5.547c1.209-1.493,2.515-1.519,3.911-1.707,7.147-.96,24.48-.089,34.347,1.92,2.994.61,6.475,3.112,8.591,5.476,1.074,1.2,4.952,4.6,14.225,5.871.022,6.96.118,17.776.143,27.375l-1.413.105c-5.76.427-16.648,1.9-19.129,1.707a12.065,12.065,0,0,1-2.491-.369,34.3,34.3,0,0,1-8.886-3.9c-.947-.578-4.151-3.023-5.174-3.253-7.03-1.583-13.33-1.434-19.91-4.528a5.627,5.627,0,0,1-2.855-2.264c-.58-1.134-.165-2.911,1.023-3.136Z"/><path class="c" d="M305.884,191.992q-.38.571-.7,1.052l-.105-.388c-2.278-8.4-4.635-29.6-5.814-44.794l1.386.565a37.431,37.431,0,0,0,29.39.8l3.208-.7C322.6,165.98,310.773,184.613,305.884,191.992Z"/><path class="a" d="M357.951,77.16a14.457,14.457,0,0,0-1.207-4.539,6.228,6.228,0,0,0-4.327-3.19,6.587,6.587,0,0,0-5.054,1.075l-2-1.432c-23.48-.889-54.882-8.1-67.994-21.7-2.4,3.727-11.865,15.112-17.942,18.165a158.847,158.847,0,0,0,5.3,28.149c.859,6.671,8.605,22.752,15.47,28.993a34.462,34.462,0,0,0,18.33,8.427l.011.817c-.153,2.273.143,8.381.734,15.981l1.381.519a37.431,37.431,0,0,0,29.39.8l3.256-.786c6.891-11.3,13.278-22.106,16.957-29.037-.6-.594-.992-.986-.992-.986a17.983,17.983,0,0,1-3.2-3.84c-1.6-4.084-.783-6.044-.783-7.964l-.01-1.953a73.563,73.563,0,0,0,4.926-9.688,28.5,28.5,0,0,0,5.1-6.379C357.67,84.353,358.133,81.947,357.951,77.16Z"/><path class="a" d="M280.6,123.042q-.2-.177-.4-.359c-6.694-6.085-14.226-21.527-15.4-28.464,6.162,1.367,14.506,1.689,26,2.01,7.638.214,29.074-2.784,35.276-4.718.577.881,1,1.518,1,1.518,2.773,4.694,10.809,15.787,9.813,20.907-.854,4.394-14.156,15.431-29.658,17.28A34.942,34.942,0,0,1,280.6,123.042Z"/><path class="d" d="M362.575,78.432c5.813-.2,9.927,4.428,12.712,11.113,2.317,5.561-.017,18.695,2.9,23.966,1.394,2.519,3.387,5.017,6.2,5.616-4.93,5.4-12.92,7.67-19.981,6.461-5.372-4.6-9.674-8.526-9.881-9.912q-.786-.972-1.556-1.847c-.543,1.337-1.486,3.254-2.743,5.619l-.967-1.032a17.983,17.983,0,0,1-3.2-3.84c-2.025-5.178-.173-6.943-1.023-9.538A75.606,75.606,0,0,0,349.4,96.8l.347-1.461a27.237,27.237,0,0,0,5.548-6.745l1.5-2.176c1.6-2.88,2.938-5.441,4.056-7.8l1.349-.166C362.328,78.443,362.452,78.437,362.575,78.432Z"/><path class="d" d="M347.328,12.318a40.46,40.46,0,0,1,14.062,17.92c3.9,10.41,5.73,18.31,4.8,29.3-.752,8.84-2.932,15.26-9.387,26.88l-1.5,2.176c2.372-4.239,2.835-6.645,2.653-11.432a14.457,14.457,0,0,0-1.207-4.539,6.228,6.228,0,0,0-4.327-3.19,6.582,6.582,0,0,0-5.1,1.11l-1.955-1.467c-23.48-.889-54.882-8.1-67.994-21.7-2.4,3.727-11.868,15.115-17.943,18.172-.028-.372-.054-.726-.075-1.067-1.287-20.716,4.889-32.149,12.079-41.277,5.778-7.337,19.5-18.09,36.132-20.242,10.142-1.313,26.74-1.1,39.768,9.356"/><path class="e" d="M65.633,163.559a47.861,47.861,0,0,0,21.6,18.466,41.974,41.974,0,0,0,15.027,3.109,48.81,48.81,0,0,0,8.638-.627,27.97,27.97,0,0,0,8.451-2.318c4.728-2.419,7.413-7.283,9.235-12.053a2.419,2.419,0,0,0-1.676-2.952,2.454,2.454,0,0,0-2.952,1.676,25.954,25.954,0,0,1-2.223,4.551,12.686,12.686,0,0,1-3.933,4.139c-2.119,1.316-4.738,1.732-7.16,2.159a42.381,42.381,0,0,1-7.627.636,37.952,37.952,0,0,1-24.039-8.8,46.574,46.574,0,0,1-9.2-10.41c-1.678-2.581-5.835-.178-4.145,2.422Z"/><path class="e" d="M67.246,159.622a143.763,143.763,0,0,0-24.013,6.853,106.6,106.6,0,0,0-13.394,5.875c-3.485,1.868-7.373,4.088-9.732,7.343-2.952,4.071-4.861,8.99-6.6,13.673a90.391,90.391,0,0,0-3.039,9.781c-2.053,8.317-3.633,16.758-5.244,25.169-1.74,9.088-3.357,18.2-5.169,27.275a2.461,2.461,0,0,0,1.676,2.953,2.423,2.423,0,0,0,2.952-1.677c3.279-16.417,5.935-32.967,9.667-49.292a87.936,87.936,0,0,1,7.715-21.886,15.867,15.867,0,0,1,3.348-4.718,30.593,30.593,0,0,1,4.383-3.08,80.425,80.425,0,0,1,12-5.754,143.862,143.862,0,0,1,26.721-7.887A2.422,2.422,0,0,0,70.2,161.3a2.453,2.453,0,0,0-2.953-1.676Z"/><path class="e" d="M124.705,171.34c5.165,1.867,10.386,3.57,15.54,5.468,3.766,1.386,7.479,2.829,11.124,4.507,3.011,1.386,5.919,2.934,8.859,4.455,3.157,1.635,6.441,3.458,8.762,6.212a2.42,2.42,0,0,0,3.394,0,2.451,2.451,0,0,0,0-3.394,29.136,29.136,0,0,0-8.534-6.327c-2.814-1.53-5.651-3.033-8.552-4.392a209.442,209.442,0,0,0-20.672-8.144c-2.885-1-5.775-1.976-8.645-3.013a2.422,2.422,0,0,0-2.952,1.676,2.449,2.449,0,0,0,1.676,2.952Z"/><path class="e" d="M29.3,215.483c.77,7.056-.343,14.224-.274,21.3.069,7.142,1.17,14.245,2.257,21.29.684,4.434,1.394,8.863,2.052,13.3a2.417,2.417,0,0,0,2.953,1.676,2.461,2.461,0,0,0,1.676-2.952c-1.071-7.223-2.346-14.421-3.254-21.667a125.014,125.014,0,0,1-.593-21.715,71.884,71.884,0,0,0-.017-11.233,2.471,2.471,0,0,0-2.4-2.4,2.416,2.416,0,0,0-2.4,2.4Z"/><path class="e" d="M120.526,155.371a16.86,16.86,0,0,0-1.189,8.758,19.765,19.765,0,0,0,2.7,8.908,2.4,2.4,0,0,0,4.145-2.422c-.314-.482-.527-1.012-.822-1.5-.144-.239.14.381-.022-.045-.058-.154-.118-.306-.174-.461-.1-.284-.2-.572-.287-.861a20.587,20.587,0,0,1-.5-2.033c-.062-.314-.106-.633-.165-.948-.054-.286.036.362-.016-.106-.019-.178-.04-.355-.057-.533a20.869,20.869,0,0,1-.028-3.928c.015-.161.035-.321.052-.482-.019.182-.059.365-.006.077s.106-.593.176-.886c.066-.276.142-.549.231-.817.034-.1.073-.2.108-.3.178-.522-.225.487,0,0a2.455,2.455,0,0,0-.861-3.283,2.43,2.43,0,0,0-3.284.861Z"/><path class="e" d="M199.371,221.356c-3.191-3.835-6.328-7.716-9.475-11.587a2.408,2.408,0,0,0-3.395,0,2.469,2.469,0,0,0,0,3.394c3.148,3.871,6.285,7.752,9.476,11.587a2.409,2.409,0,0,0,3.394,0,2.466,2.466,0,0,0,0-3.394Z"/><path class="e" d="M168.956,192.646c3.615,3.612,6.873,7.6,10.14,11.52a2.409,2.409,0,0,0,3.394,0,2.466,2.466,0,0,0,0-3.394c-3.267-3.923-6.525-7.908-10.14-11.52a2.4,2.4,0,0,0-3.394,3.394Z"/><path class="e" d="M150.433,238.442c10.174,8.2,20.028,16.865,29.819,25.519,1.937,1.712,3.9,3.413,5.747,5.219,2.212,2.159,5.609-1.232,3.394-3.394-4-3.9-8.319-7.5-12.536-11.155q-8.436-7.317-16.964-14.528c-2.011-1.7-4.017-3.4-6.066-5.055a2.473,2.473,0,0,0-3.394,0,2.418,2.418,0,0,0,0,3.394Z"/><path class="e" d="M287.546,130.657c-3.825,4.9-10.1,7.459-15.614,9.944-6.453,2.91-12.725,6.692-16.258,13.044-3.707,6.664-5.442,14.188-7.249,21.529-1.585,6.445-3.186,12.93-4.29,19.478-.7,4.164-1.638,8.211-2.718,12.3-.789,2.99,3.839,4.265,4.629,1.276a111.4,111.4,0,0,0,2.531-11.142c.894-5.694,2.249-11.322,3.58-16.925,1.714-7.215,3.214-14.745,6.351-21.506a22.1,22.1,0,0,1,5.625-7.883,38.361,38.361,0,0,1,8.946-5.449c6.267-2.874,13.487-5.663,17.861-11.271a2.479,2.479,0,0,0,0-3.394,2.415,2.415,0,0,0-3.394,0Z"/><path class="e" d="M342.878,106.612c-.006.806-.131,1.6-.181,2.407a14.134,14.134,0,0,0,.27,3.583,10.359,10.359,0,0,0,1.458,3.94,32.943,32.943,0,0,0,3.138,3.571,2.424,2.424,0,0,0,3.4,0,2.448,2.448,0,0,0,0-3.394c-.506-.529-1.014-1.055-1.509-1.594-.217-.236-.432-.474-.641-.718a2.98,2.98,0,0,0-.331-.4c.091.069.264.371.093.113-.122-.184-.236-.368-.347-.557-.2-.334.209.605-.01-.055-.046-.138-.1-.275-.145-.413a13.832,13.832,0,0,1-.5-1.938c-.024-.134-.034-.278-.067-.41.054.216.047.468.021.1-.016-.241-.037-.48-.043-.721a12.774,12.774,0,0,1,.034-1.283c.054-.743.164-1.482.169-2.227a2.4,2.4,0,0,0-4.8,0Z"/><path class="e" d="M296.135,131.927a64.527,64.527,0,0,0,.166,7.552c.229,4.231.553,8.457.915,12.678.838,9.781,1.867,19.559,3.305,29.272a104.656,104.656,0,0,0,2.242,11.865c.8,2.98,5.433,1.716,4.629-1.276-2.1-7.82-2.865-15.8-3.769-23.722-1.042-9.135-1.9-18.3-2.446-27.481a72.857,72.857,0,0,1-.242-8.888,2.4,2.4,0,1,0-4.8,0Z"/><path class="e" d="M291.149,131.226c-3.317,3.176-6.511,6.481-9.671,9.813a2.466,2.466,0,0,0-.375,2.908c1.585,2.828,2.938,5.8,4.693,8.534l.376-2.909c-3.333,3.088-6.878,6.009-10.418,8.854a2.327,2.327,0,0,0-.617,2.335c2.133,6.132,4.3,12.221,6.7,18.255q3.118,7.838,6.207,15.687.721,1.832,1.443,3.664l4.628-1.276-.093-.237a2.473,2.473,0,0,0-2.952-1.677,2.418,2.418,0,0,0-1.677,2.953l.094.237a2.472,2.472,0,0,0,2.952,1.676,2.418,2.418,0,0,0,1.676-2.952c-3.609-9.2-7.453-18.321-10.871-27.59-1.224-3.317-2.318-6.677-3.48-10.016l-.617,2.335c3.54-2.845,7.085-5.766,10.418-8.854a2.424,2.424,0,0,0,.375-2.908c-1.755-2.73-3.109-5.7-4.693-8.533l-.376,2.908c3.16-3.332,6.354-6.637,9.671-9.813,2.236-2.141-1.161-5.532-3.394-3.394Z"/><path class="e" d="M350.657,113.191c-.181.442.253-.561-.029.065-.1.22-.2.441-.3.66-.223.485-.456.965-.692,1.444-.587,1.185-1.2,2.357-1.827,3.522-1.675,3.121-3.428,6.2-5.2,9.265-4.58,7.914-9.321,15.735-14.1,23.528q-7.312,11.911-14.793,23.718c-3.4,5.363-6.792,10.731-10.316,16.012-2.552,3.824-5.376,7.564-6.429,12.138a33.489,33.489,0,0,0-.525,8.377c.1,3.68.414,7.355.772,11.018.194,2,.408,3.991.629,5.985a2.472,2.472,0,0,0,2.4,2.4,2.415,2.415,0,0,0,2.4-2.4c-.784-7.076-1.762-14.335-1.367-21.468a17.108,17.108,0,0,1,2.184-7.368c1.049-1.909,2.333-3.669,3.55-5.47,3.3-4.878,6.442-9.864,9.6-14.835q7.377-11.612,14.591-23.327c4.853-7.879,9.662-15.787,14.329-23.777a185.436,185.436,0,0,0,9.044-16.549c.249-.549.485-1.1.713-1.662a2.414,2.414,0,0,0-1.676-2.952,2.46,2.46,0,0,0-2.952,1.676Z"/><path class="e" d="M351.274,115.526a77.4,77.4,0,0,1,7.417,10.233,78.983,78.983,0,0,1,5.939,11.215l.617-2.335c-5.085,4.446-10.432,8.58-15.618,12.906a2.409,2.409,0,0,0,0,3.394,34.317,34.317,0,0,1,4.66,5.178c.65.837,1.3,1.716,1.9,2.6.217.319.435.639.634.969.07.116.131.249.21.36.034.061.065.122.095.185a2.041,2.041,0,0,1-.18-1.6l.617-1.059q-6.129,7.074-12.349,14.068c-6.782,7.642-13.606,15.254-20.65,22.656-2.9,3.044-5.808,6.106-8.956,8.894-2.318,2.052,1.087,5.437,3.394,3.394,3.512-3.11,6.745-6.55,9.964-9.956,4.3-4.555,8.527-9.188,12.719-13.846q9.5-10.551,18.805-21.277c.735-.847,1.4-1.726,1.091-2.934a9.488,9.488,0,0,0-1.658-2.862,43.917,43.917,0,0,0-6.9-8.164v3.394c5.186-4.326,10.534-8.46,15.618-12.906a2.32,2.32,0,0,0,.617-2.335,86.542,86.542,0,0,0-14.59-23.566c-2.039-2.328-5.422,1.078-3.394,3.394Z"/><path class="e" d="M252.893,234.288a28.2,28.2,0,0,1-8.274-2.616,17.707,17.707,0,0,1-2.252-1.417c.507.377-.256-.223-.381-.337-.2-.18-.387-.371-.574-.564a22.894,22.894,0,0,0-7.942-5.612c-2.6-1.035-5.636-1.247-8.392-1.607a162.73,162.73,0,0,0-17.784-1.309c-2.584-.052-5.174-.049-7.754.105-2.3.137-5.132.135-7.093,1.473a5.957,5.957,0,0,0-.267,9.915c1.53,1.082,3.607,1.279,5.392,1.691,3.006.694,4.29-3.933,1.276-4.628a19.725,19.725,0,0,1-3.7-.854,1.434,1.434,0,0,1-.814-.964c-.047-1.1,1.294-1.417,2.06-1.533a71.871,71.871,0,0,1,13.193-.341,154.585,154.585,0,0,1,15.868,1.3c2.255.313,4.8.506,6.884,1.459a21.19,21.19,0,0,1,5.971,4.6c3.486,3.425,8.625,5.019,13.3,5.867a2.467,2.467,0,0,0,2.952-1.676,2.422,2.422,0,0,0-1.676-2.953Z"/><path class="e" d="M224.664,229.616a134.027,134.027,0,0,0-23.978-.5c-3.433.208-6.888.461-10.287,1.01-2.733.441-5.576,1.72-6.364,4.612a6.1,6.1,0,0,0,4.177,7.363,9.115,9.115,0,0,0,3.776.169q2.911-.214,5.828-.349c4.529-.215,8.974-.185,13.5.027,4.685.22,9.384.4,14.061.771a2.42,2.42,0,0,0,2.4-2.4,2.448,2.448,0,0,0-2.4-2.4c-3.554-.281-7.123-.425-10.683-.6-3.662-.186-7.349-.469-11.018-.4-3.133.06-6.266.205-9.394.4q-1.352.084-2.7.186c-.4.03-.805.056-1.206.1-.3.03-.652-.022-.139.069-.187-.033-.366-.085-.549-.13-.407-.1.175.116-.228-.082a1.421,1.421,0,0,1-.658-.482,1.1,1.1,0,0,1,.083-1.325,5.783,5.783,0,0,1,2.438-.833,82.842,82.842,0,0,1,8.694-.856,135.067,135.067,0,0,1,24.651.456,2.413,2.413,0,0,0,2.4-2.4,2.459,2.459,0,0,0-2.4-2.4Z"/><path class="e" d="M190.369,238.167a6.735,6.735,0,0,0-3.913,4.776,6.016,6.016,0,0,0,1.881,5.237c2.339,2.175,5.1,1.99,8.024,2.007,6.444.037,12.9.247,19.327.75a56.965,56.965,0,0,1,9.191,1.207c3,.708,4.286-3.919,1.276-4.629-5.462-1.289-11.252-1.5-16.836-1.773-5.057-.245-10.13-.4-15.194-.354a2.945,2.945,0,0,1-2.676-.885,1.012,1.012,0,0,1-.275-.62c.062.341.1-.551.009-.235.151-.536.934-.99,1.609-1.337,2.749-1.411.323-5.555-2.423-4.144Z"/><path class="e" d="M194.55,246.281c-2.8.842-3.765,4.185-2.457,6.662,1.348,2.552,4.663,3.673,7.213,4.55,5.353,1.838,11.05,2.016,16.538,3.245,0,0,1.023.322.33.029a3.5,3.5,0,0,1,.385.2c.389.228.773.46,1.15.707.806.527,1.588,1.089,2.38,1.637a31.849,31.849,0,0,0,5.857,3.12,22.359,22.359,0,0,0,7.719,2.023,33.282,33.282,0,0,0,4.3-.245c4.885-.448,9.751-1.1,14.643-1.472a2.459,2.459,0,0,0,2.4-2.4,2.419,2.419,0,0,0-2.4-2.4c-3.888.3-7.761.77-11.639,1.174-2.888.3-6.262,1.023-9.14.3a33.076,33.076,0,0,1-10.7-5.209,12.35,12.35,0,0,0-4.679-2.234c-2.5-.507-5.024-.838-7.541-1.225a48.1,48.1,0,0,1-8.329-1.881,18.313,18.313,0,0,1-3.506-1.54,10.184,10.184,0,0,1-.817-.8c.254.066-.782.488-.434.383,2.95-.889,1.693-5.523-1.276-4.628Z"/><path class="e" d="M349.025,10.621C339.86,3.345,328.474.115,316.872,0A60.181,60.181,0,0,0,285.328,8.39a59.342,59.342,0,0,0-19.755,18.852,56.39,56.39,0,0,0-8.7,28.028A94.462,94.462,0,0,0,258.1,74.388a156.278,156.278,0,0,0,4.469,20.488c.87,2.957,5.5,1.7,4.629-1.276a154.708,154.708,0,0,1-4.027-17.744,102.237,102.237,0,0,1-1.58-15.263c-.176-9.782,1.554-19.5,6.383-28.054A52.228,52.228,0,0,1,284.05,14.907,55.371,55.371,0,0,1,312.919,4.883c11.506-.572,23.519,1.834,32.712,9.132a2.475,2.475,0,0,0,3.394,0,2.417,2.417,0,0,0,0-3.394Z"/><path class="e" d="M277.243,82.625c1.073,2.041,1.845,7.109-1.6,8.313-4.686,1-6.321-4.976-5.4-8.157C271,80.176,274.574,78.376,277.243,82.625Z"/><path class="e" d="M308.513,81.314c1.217,2.2,2,7.7-2.1,9.105-5.571,1.208-7.352-5.263-6.178-8.755C301.192,78.805,305.463,76.75,308.513,81.314Z"/><path class="e" d="M262.675,95.8a54.949,54.949,0,0,0,4.1,11,75.741,75.741,0,0,0,6.745,11.713A35.436,35.436,0,0,0,282.9,127.8a36.789,36.789,0,0,0,13.077,5.3,34.857,34.857,0,0,0,11.885.426,2.415,2.415,0,0,0,1.676-2.952,2.461,2.461,0,0,0-2.952-1.676c-.447.066-.026,0,.055-.006-.173.02-.346.04-.519.057q-.443.043-.888.07c-.788.049-1.579.063-2.369.048a31.4,31.4,0,0,1-4.654-.419,33.575,33.575,0,0,1-11.539-4.149c-7.118-4.224-11.47-11.414-15.052-18.663A52.147,52.147,0,0,1,267.3,94.525c-.689-3.01-5.318-1.736-4.628,1.276Z"/><path class="e" d="M348.283,72.789a4.13,4.13,0,0,1,6.733,1.99,15.132,15.132,0,0,1-.04,8.761C353.23,89.207,348.424,94.562,343,96.58a2.466,2.466,0,0,0-1.677,2.952,2.42,2.42,0,0,0,2.953,1.676,25.913,25.913,0,0,0,13.875-12.873A20.632,20.632,0,0,0,360.386,79c.015-3.277-.574-7.1-3-9.523a8.969,8.969,0,0,0-11.524-.827A2.478,2.478,0,0,0,345,71.928a2.414,2.414,0,0,0,3.283.861Z"/><path class="e" d="M275.3,46.165c-.372.574-.769,1.13-1.176,1.679-.134.182-.27.361-.406.542l-.216.283q.283-.366.036-.046c-.286.363-.572.726-.862,1.086q-2.209,2.742-4.61,5.326a71.772,71.772,0,0,1-5.2,5.12c-.425.373-.856.74-1.3,1.1-.068.056-.77.6-.361.292q-.289.22-.583.433a18.448,18.448,0,0,1-2.438,1.514,2.4,2.4,0,0,0,2.422,4.145c4.179-2.124,7.7-5.811,10.85-9.206a73.786,73.786,0,0,0,7.985-9.842,2.4,2.4,0,0,0-4.145-2.422Z"/><path class="e" d="M275.67,49.073c6.274,6.447,14.748,10.49,23.075,13.573a144.152,144.152,0,0,0,29.73,7.254,166.138,166.138,0,0,0,16.886,1.574c3.089.121,3.083-4.679,0-4.8A158.518,158.518,0,0,1,316.6,62.859c-9.216-2.085-18.439-4.908-26.789-9.4a43.335,43.335,0,0,1-10.742-7.778c-2.158-2.218-5.55,1.178-3.394,3.394Z"/><path class="e" d="M327.861,93.6c3.073-4.178,6.206-8.312,9.626-12.215,3.437-3.921,7.144-7.59,10.911-11.193,2.236-2.139-1.161-5.53-3.4-3.394-3.844,3.677-7.626,7.424-11.123,11.437-3.606,4.136-6.914,8.523-10.164,12.942a2.418,2.418,0,0,0,.862,3.284,2.456,2.456,0,0,0,3.283-.861Z"/><path class="e" d="M355.386,120.682c6.921,6.887,14.841,12.754,22.154,19.211a124.626,124.626,0,0,1,10.637,10.665c3.491,3.924,7.381,8.151,9.659,12.937,2.864,6.013,2.13,13.419.737,19.7-.667,3.01,3.959,4.3,4.628,1.276,1.43-6.448,2.069-13.43.158-19.855-1.632-5.486-5.51-10.069-9.127-14.38a125.814,125.814,0,0,0-11.264-11.915c-3.886-3.563-7.96-6.922-11.994-10.316-4.134-3.478-8.361-6.908-12.194-10.722-2.192-2.182-5.588,1.211-3.394,3.394Z"/><path class="e" d="M257.32,193.249a190.216,190.216,0,0,1,3.41,20.328c.417,3.488.524,7,1.468,10.4.914,3.292,1.953,6.6,3.019,9.847.959,2.922,5.6,1.671,4.628-1.276-1.066-3.247-2.105-6.555-3.018-9.847s-.971-6.689-1.415-10.06c-.911-6.917-1.886-13.871-3.463-20.671-.7-3.008-5.328-1.734-4.629,1.276Z"/><path class="e" d="M389.931,217.474a87.094,87.094,0,0,0,.714,9.308c.46,3.95.814,7.93,1.41,11.861,1.021,6.739,3.253,13.149,5.171,19.661.871,2.956,5.5,1.7,4.629-1.277-1.877-6.37-4.054-12.639-5.1-19.222-.582-3.645-.88-7.356-1.307-11.023a87.094,87.094,0,0,1-.714-9.308c-.026-3.087-4.826-3.095-4.8,0Z"/><path class="e" d="M299.439,150.5a40.039,40.039,0,0,0,31.239,1.04,2.472,2.472,0,0,0,1.677-2.952,2.418,2.418,0,0,0-2.953-1.676,35.328,35.328,0,0,1-27.541-.557,2.471,2.471,0,0,0-3.283.861,2.419,2.419,0,0,0,.861,3.284Z"/><path class="e" d="M398.573,183.2c-2.713,13.666-6.436,27.208-12.281,39.891a141.222,141.222,0,0,1-9.892,17.9,92.125,92.125,0,0,1-13.7,17.153,36.887,36.887,0,0,1-7.11,5.349,33.178,33.178,0,0,1-7.708,2.9,137.558,137.558,0,0,1-18.785,3.68,292.935,292.935,0,0,1-39.641,1.972c-10.81-.082-21.607-.607-32.414-.822q-1.509-.03-3.019-.043l2.4,2.4c.061-13.037-.139-26.073-.142-39.111l-2.4,2.4c15.7-.58,31.387-1.272,47.09-1.691,4.044-.108,8.091-.156,12.135-.276a45.884,45.884,0,0,0,10.385-1.02c4.021-1.077,7.587-4.552,10.167-7.671,2.9-3.506,5.637-7.155,8.286-10.852,6.251-8.723,12.012-17.787,18.116-26.612a2.422,2.422,0,0,0-.862-3.283,2.447,2.447,0,0,0-3.283.861c-5.361,7.751-10.47,15.674-15.855,23.409-2.446,3.513-4.957,6.983-7.6,10.348-2.625,3.337-5.414,6.883-9.3,8.823a12.333,12.333,0,0,1-3.591.8c-1.764.189-3.537.287-5.309.355-3.672.14-7.349.164-11.023.257-8.96.224-17.918.532-26.875.87-7.494.282-14.986.6-22.48.879a2.441,2.441,0,0,0-2.4,2.4c0,13.038.2,26.074.142,39.111a2.435,2.435,0,0,0,2.4,2.4c10.472.079,20.936.662,31.408.819a321.3,321.3,0,0,0,40.186-1.509,161.986,161.986,0,0,0,20-3.358,61.714,61.714,0,0,0,8.752-2.561,34.332,34.332,0,0,0,8.172-4.8c5.82-4.515,10.506-10.352,14.736-16.335a144.251,144.251,0,0,0,10.946-18.127,169.021,169.021,0,0,0,13.819-40.047q.615-2.787,1.166-5.588a2.46,2.46,0,0,0-1.676-2.952,2.424,2.424,0,0,0-2.952,1.676Z"/><path class="e" d="M264.247,96.553a87.521,87.521,0,0,0,13.488,1.584c5.044.288,10.165.63,15.218.482a178.154,178.154,0,0,0,24.418-2.808,59.639,59.639,0,0,0,9.909-2.174,2.46,2.46,0,0,0,1.676-2.952A2.421,2.421,0,0,0,326,89.008a52.383,52.383,0,0,1-8.214,1.88c-4.011.719-8.046,1.314-12.088,1.812-3.817.47-7.65.884-11.492,1.069-4.691.227-9.429-.09-14.116-.31a88.458,88.458,0,0,1-14.571-1.535c-3.012-.651-4.3,3.975-1.276,4.629Z"/><path class="e" d="M325,94.241c1.8,3.033,3.8,5.945,5.579,9a49.87,49.87,0,0,1,2.83,5.443,20.961,20.961,0,0,1,.721,1.974c.113.371.216.744.3,1.122.035.158.066.317.1.476.109.588,0-.251.029.269a7.9,7.9,0,0,1,0,.936c-.026.363.118-.434,0-.043a2.452,2.452,0,0,1-.067.241c-.256.581.25-.353-.056.147-.16.261-.291.536-.457.794-.136.212-.282.417-.43.62-.262.358-.055.068,0,0-.113.141-.228.279-.345.416-.5.58-1.024,1.13-1.572,1.659a41.371,41.371,0,0,1-9.351,6.584,43.858,43.858,0,0,1-15.042,4.943,2.476,2.476,0,0,0-2.4,2.4,2.414,2.414,0,0,0,2.4,2.4,50.139,50.139,0,0,0,26.9-12.114c2.042-1.825,4.51-4.221,5.085-7.022.791-3.861-1.443-8.074-3.2-11.356-2.084-3.9-4.618-7.513-6.874-11.306-1.577-2.653-5.728-.241-4.144,2.423Z"/><path class="e" d="M279.412,47.376c-.271-2.242-.582-4.48-.871-6.72a2.643,2.643,0,0,0-.7-1.7,2.4,2.4,0,0,0-3.4,0,2.3,2.3,0,0,0-.7,1.7c.289,2.24.6,4.478.871,6.72a2.62,2.62,0,0,0,.7,1.7,2.4,2.4,0,0,0,3.394,0,2.313,2.313,0,0,0,.7-1.7Z"/><path class="e" d="M346.116,14.391A36.7,36.7,0,0,1,356.574,25.84c2.792,4.659,4.479,10.044,5.807,15.284a53.357,53.357,0,0,1-.556,28.625,83.587,83.587,0,0,1-7.1,15.456c-1.5,2.7,2.646,5.128,4.145,2.422a95.529,95.529,0,0,0,7.18-15.367,53.952,53.952,0,0,0,2.572-13.193,58.91,58.91,0,0,0-1.276-17.821,65.2,65.2,0,0,0-5.825-16.424,42.185,42.185,0,0,0-12.983-14.576c-2.554-1.751-4.958,2.407-2.423,4.145Z"/><path class="e" d="M362.2,80.848c3.094-.165,5.515,1.259,7.506,3.677a18.46,18.46,0,0,1,4,8.441c.989,6.118-.4,13.169,1.445,19.4,1.184,3.992,4.443,8.058,8.606,9.069l-1.059-4.012a20.063,20.063,0,0,1-17.643,5.844,2.473,2.473,0,0,0-2.952,1.676,2.419,2.419,0,0,0,1.676,2.953c8.047,1.308,16.659-1.022,22.313-7.078a2.425,2.425,0,0,0-1.059-4.012,6.711,6.711,0,0,1-3.885-3.049,8.651,8.651,0,0,1-1.63-3.7,51.066,51.066,0,0,1-.624-9.8,44.168,44.168,0,0,0-.821-9.877,24.043,24.043,0,0,0-5.3-9.635,13.206,13.206,0,0,0-10.572-4.7c-3.072.165-3.092,4.966,0,4.8Z"/><path class="e" d="M250.924,215.338c-1.442-2.007-3.092-3.882-4.693-5.761-1.989-2.336-4-4.659-6.1-6.893a22.435,22.435,0,0,0-2.655-2.494,2.406,2.406,0,0,0-3.284.861,2.475,2.475,0,0,0,.861,3.284c-.067-.052-.566-.476-.286-.214.058.054.121.1.18.158.156.14.307.284.457.43.366.356.72.723,1.072,1.092.952,1,1.877,2.027,2.794,3.059q3.016,3.4,5.912,6.9c.393.477.785.956,1.171,1.44.094.119.6.766.273.344s.074.1.157.218a2.457,2.457,0,0,0,3.284.861,2.428,2.428,0,0,0,.861-3.284Z"/><path class="e" d="M234.306,200.3a100.847,100.847,0,0,1-8.488,7.841,43.125,43.125,0,0,1-9.6,5.528,2.482,2.482,0,0,0-1.677,2.953,2.416,2.416,0,0,0,2.953,1.676,48.039,48.039,0,0,0,10.892-6.121,98.963,98.963,0,0,0,9.318-8.483c2.2-2.18-1.2-5.575-3.394-3.394Z"/><path class="e" d="M347.33,95.587c-3.086,6.808-7.115,13.933-12.993,18.714a2.416,2.416,0,0,0,0,3.394,2.455,2.455,0,0,0,3.394,0,41.325,41.325,0,0,0,8.019-9.317,73.324,73.324,0,0,0,5.725-10.368,2.473,2.473,0,0,0-.861-3.284,2.42,2.42,0,0,0-3.284.861Z"/><path class="e" d="M150.189,231.591c-1.669,6.2-2.8,12.538-4.5,18.738a121.257,121.257,0,0,0-3.641,19.98,2.417,2.417,0,0,0,2.4,2.4,2.452,2.452,0,0,0,2.4-2.4,116.98,116.98,0,0,1,3.6-19.184c1.648-6.041,2.74-12.214,4.366-18.258.8-2.986-3.826-4.26-4.629-1.276Z"/><path class="e" d="M156.684,225.294c1.369-6.461,2.8-12.925,4.784-19.23a56.216,56.216,0,0,1,3.434-8.81c1.655-3.23,3.74-5.427,6.347-8.163,2.132-2.236-1.257-5.636-3.394-3.394a40.532,40.532,0,0,0-6.963,8.875,60.443,60.443,0,0,0-3.836,9.539,198.965,198.965,0,0,0-5,19.907c-.638,3.013,3.988,4.3,4.628,1.276Z"/><path class="a" d="M183.442,212.945l.162.151c.853-.934,11.665-12.517,18.053-19.692a6.653,6.653,0,0,1-1.5-2.29,7.09,7.09,0,0,1-.113-4.252,4.229,4.229,0,0,1,2.126-2.576l-2.553-2.755c-7.679,8.529-22.03,24.464-22.325,24.876C178.113,207.361,181.55,211.173,183.442,212.945Z"/><path class="a" d="M201.5,174.145a4.4,4.4,0,0,0,.313,3.02,17.879,17.879,0,0,0,7.732,8.318,8.261,8.261,0,0,0,4.572.9c1.167-.314,2.469-1.524,2.3-2.859A10.251,10.251,0,0,0,214.8,178.7l-.331-.49c1.312-1.419,3.232-3.355,3.965-4.28a2.271,2.271,0,0,0,.173-.893.893.893,0,0,0-.313-.582q-1.731-1.855-3.612-3.564a1.065,1.065,0,0,0-.554-.325,1.539,1.539,0,0,0-.918.2c-1.033,1.036-3.372,3.392-4.518,4.679l-.479-.288c-1.539-.926-4.24-1.666-5.452-.757A3.366,3.366,0,0,0,201.5,174.145Z"/><path class="e" d="M215.655,200.224q-3.7-2.443-7.388-4.9c-1.891-1.258-4.45-2.6-5.558-4.433a3.9,3.9,0,0,1-.494-2.582,5.8,5.8,0,0,1,.2-1.06c-.1.3.174-.283.011-.068a2.532,2.532,0,0,1,1.077-.891,1.381,1.381,0,0,1,.775-.069,9.478,9.478,0,0,1,1.666.473c1.065.38,2.262.859,3.144,1.239,2.634,1.136,5.208,2.406,7.812,3.609a2.471,2.471,0,0,0,3.284-.861,2.421,2.421,0,0,0-.861-3.284c-2.732-1.261-5.431-2.6-8.2-3.775-2.819-1.2-6.29-3.043-9.375-1.781a7.079,7.079,0,0,0-3.583,3.2,9.3,9.3,0,0,0-.695,5.17c.477,3.434,3.077,5.713,5.8,7.548,3.3,2.227,6.635,4.417,9.96,6.612a2.4,2.4,0,0,0,2.422-4.144Z"/><path class="e" d="M200.725,176.717q-11.353,12.613-22.695,25.238c-.95,1.064-1.952,2.1-2.812,3.24a2.425,2.425,0,0,0,.375,2.909,85.083,85.083,0,0,0,6.314,6.689,2.434,2.434,0,0,0,3.394,0c6.017-6.566,12.128-13.043,18.053-19.692,2.05-2.3-1.334-5.707-3.394-3.394-5.925,6.649-12.036,13.126-18.053,19.692H185.3a85.259,85.259,0,0,1-6.314-6.689l.375,2.908c-.783,1.037.08-.042.292-.282q.737-.831,1.476-1.657,2.43-2.719,4.868-5.43,6.282-6.994,12.575-13.979l5.546-6.159c2.061-2.291-1.323-5.7-3.394-3.394Z"/><path class="e" d="M217.305,182.507c.89.3,1.8.531,2.69.844.093.033.731.345.352.131a1.923,1.923,0,0,1,.357.215,6.7,6.7,0,0,1,1,1.134c1.3,1.852,2.343,3.944,3.468,5.908,2.4,4.184,4.764,8.387,7.2,12.551,1.558,2.666,5.708.253,4.145-2.423-2.6-4.451-5.126-8.946-7.693-13.417a39.657,39.657,0,0,0-4.088-6.5c-1.646-1.886-3.9-2.306-6.152-3.071a2.4,2.4,0,1,0-1.276,4.628Z"/><path class="e" d="M197.1,210.256a27.768,27.768,0,0,0,1.813,3.233,31.834,31.834,0,0,0,2.651,3.726,2.416,2.416,0,0,0,1.7.7,2.443,2.443,0,0,0,1.7-.7,2.414,2.414,0,0,0,.7-1.7,2.7,2.7,0,0,0-.7-1.7c-.136-.16-.267-.323-.4-.489l.375.485a35.417,35.417,0,0,1-2.121-3.142,25.86,25.86,0,0,1-1.571-2.841,2.411,2.411,0,0,0-1.434-1.1,2.454,2.454,0,0,0-1.85.242,2.425,2.425,0,0,0-1.1,1.434l-.085.638a2.391,2.391,0,0,0,.327,1.212Z"/><path class="e" d="M189.83,205.57a7.954,7.954,0,0,0,3.669,4.85,6.368,6.368,0,0,0,6.988-1.273,9.109,9.109,0,0,0,2.57-6.47,39.9,39.9,0,0,0-.912-7.386,2.409,2.409,0,0,0-2.952-1.677,2.472,2.472,0,0,0-1.677,2.953q.225,1.389.449,2.78.057.359.113.718c.021.138.079.546.034.2.063.479.11.962.134,1.445a11.453,11.453,0,0,1-.014,1.447c0,.071-.091.618-.025.279s-.071.3-.087.373c-.038.163-.081.325-.131.485-.056.182-.209.561-.037.176a6.316,6.316,0,0,1-.589,1.033c.236-.338,0-.013-.138.121-.049.049-.444.385-.174.175s-.232.136-.3.172c-.251.141-.252.207-.012.034a1.887,1.887,0,0,1-.528.162c-.517.164.455.018-.084.017-.163,0-.665.109-.083.045a1.263,1.263,0,0,1-.528-.133l.269.117a1.9,1.9,0,0,1-.2-.111c-.134-.12.375.35-.023-.02-.106-.1-.2-.208-.3-.307-.372-.356.2.324-.07-.078a8.813,8.813,0,0,1-.557-.929l-.077-.156q-.168-.368.042.113c-.055-.015-.134-.388-.148-.433a2.4,2.4,0,1,0-4.628,1.276Z"/><path class="e" d="M210.055,175.53c.754-.9,1.585-1.743,2.4-2.586q.69-.711,1.387-1.416l.6-.609c.087-.087.178-.172.262-.263.032-.034.073-.065.1-.1q.2-.2-.314.224l-.348.158c.07-.026.35-.071-.051,0l-.185.027c.257,0,.161-.03-.29-.105.241.061-.734-.186-.638-.27l.216.2q.54.5,1.068,1,.984.948,1.926,1.938c.089.093.175.195.268.284s.165.277.054.034-.306-1.249-.317-.862c-.007.226.06-.341.05-.32a1.616,1.616,0,0,0-.053.255c0-.018.58-.9.451-.773a4.153,4.153,0,0,0-.269.321c-.4.471-.824.928-1.246,1.383-1.036,1.118-2.1,2.208-3.109,3.353a2.4,2.4,0,0,0,3.394,3.394c1.022-1.163,2.108-2.271,3.16-3.407.488-.528.979-1.056,1.434-1.613a3.592,3.592,0,0,0,.866-1.637,3.723,3.723,0,0,0-.224-2.474,6.411,6.411,0,0,0-1.2-1.473q-.607-.635-1.233-1.252a15.748,15.748,0,0,0-2.656-2.365,3.589,3.589,0,0,0-4.182.622c-.48.466-.943.95-1.412,1.426-1.126,1.146-2.281,2.283-3.312,3.516a2.454,2.454,0,0,0,0,3.4,2.429,2.429,0,0,0,3.394,0Z"/><path class="e" d="M212.728,179.909a7.924,7.924,0,0,1,.48.77c.054.1.378.872.213.423a11.92,11.92,0,0,1,.466,1.583c.043.2.078.407.115.612.1.586-.041-.53-.009-.071a3.82,3.82,0,0,0,.034.694c-.035-.058.076-.493.119-.46a3.055,3.055,0,0,1-.2.345c.278-.455-.442.309,0,0-.083.057-.167.112-.254.163s-.45.2-.15.093-.058.018-.138.022c-.274.014.544.011.086-.02-.244-.016-.491-.019-.735-.033.565.033-.179-.044-.353-.084-.264-.059-.525-.129-.784-.207-.124-.038-.248-.078-.371-.12-.072-.025-.578-.182-.218-.07.31.1,0,0-.084-.043-.1-.052-.2-.1-.3-.159-.3-.161-.586-.335-.871-.514-.244-.154-.485-.313-.721-.478-.133-.092-.265-.187-.4-.283-.619-.455.31.276-.268-.215a18.8,18.8,0,0,1-2.551-2.6c.255.32-.2-.27-.279-.39-.164-.235-.324-.473-.477-.715q-.477-.755-.882-1.551-.095-.183-.183-.369c-.054-.111-.166-.508-.065-.116.109.423-.077-.248-.1-.333a2.546,2.546,0,0,1-.123-.544c.064-.04.018.545.032.141,0-.054-.04-.48.007-.514.022-.017-.163.615-.006.117.022-.068.181-.552.051-.23-.142.354.061-.147.09-.135.09-.14.062-.114-.087.08l.139-.157c.105-.1.205-.211.32-.3l-.177.146c.181-.095.18-.1,0-.013-.256-.037-.062.032.1,0,.261-.053-.473-.02-.018.015.121.009.259,0,.382,0,.608,0-.456-.116.162.012.31.064.616.133.919.225.1.031.2.063.3.1.064.022.69.287.2.061.293.135.576.279.854.441a2.4,2.4,0,1,0,2.423-4.144,10.86,10.86,0,0,0-4.86-1.492,5.215,5.215,0,0,0-4.7,2.441c-1.894,2.836-.464,6.181,1.19,8.723a19.629,19.629,0,0,0,7.4,6.868c2.9,1.451,6.812,2.024,9.138-.743a5.416,5.416,0,0,0,1.063-4.659,11.313,11.313,0,0,0-1.788-4.732,2.4,2.4,0,1,0-4.145,2.423Z"/><path class="e" d="M177.007,209.446l-4.01,4.87a2.581,2.581,0,0,0-.7,1.7,2.441,2.441,0,0,0,.7,1.7,2.415,2.415,0,0,0,1.7.7,2.351,2.351,0,0,0,1.7-.7l4.01-4.87a2.581,2.581,0,0,0,.7-1.7,2.445,2.445,0,0,0-.7-1.7,2.417,2.417,0,0,0-1.7-.7,2.349,2.349,0,0,0-1.7.7Z"/><path class="e" d="M199.586,172.77a17.012,17.012,0,0,0-4.645.227,7.773,7.773,0,0,0-3.857,2.394,8.3,8.3,0,0,0-2.485,5.241,8.454,8.454,0,0,0,1.259,4.664A7.235,7.235,0,0,0,194,188.367a2.417,2.417,0,0,0,2.953-1.676,2.46,2.46,0,0,0-1.677-2.953,4.5,4.5,0,0,0-.57-.212c.59.112.25.108.022-.011-.126-.067-.251-.137-.371-.215-.512-.33.3.3.029.03-.079-.079-.164-.153-.24-.235-.408-.441.231.382.02.036a8.616,8.616,0,0,1-.437-.779c-.041-.086-.08-.173-.118-.26.133.32.164.394.095.222s-.127-.319-.178-.483c-.058-.187-.095-.378-.137-.569-.1-.457.007.535.011.018,0-.215,0-.433,0-.648,0-.532-.133.5,0-.014.021-.081.093-.608.174-.631q-.215.48-.044.128c.04-.075.082-.149.127-.221.111-.186.23-.367.354-.544.069-.1.141-.2.214-.295q-.286.369-.037.063c.283-.3.553-.612.864-.888.065-.059.132-.116.2-.172q.2-.168-.144.1a1.442,1.442,0,0,1,.406-.279c.09-.054.19-.1.279-.152.324-.206-.634.226-.07.035a6.878,6.878,0,0,1,.8-.2c.4-.084-.658.063.013,0,.143-.013.285-.023.428-.031a25.066,25.066,0,0,1,2.629.035,2.416,2.416,0,0,0,2.4-2.4,2.453,2.453,0,0,0-2.4-2.4Z"/><path class="e" d="M187.593,179.4a18.19,18.19,0,0,0-3.416,3.747,10.859,10.859,0,0,0-1.9,4.284,10.37,10.37,0,0,0,.415,4.67A7.128,7.128,0,0,0,186,196.36a2.4,2.4,0,1,0,2.423-4.144c-.144-.08-.28-.176-.423-.254-.262-.142.342.354-.017-.027-.082-.086-.166-.171-.247-.257-.371-.394.133.254-.01-.02a3.635,3.635,0,0,0-.238-.383c-.244-.352.072.268-.016,0s-.186-.544-.259-.824c-.079-.307-.143-.618-.2-.929-.015-.089-.058-.6-.034-.192s0-.08-.01-.133c-.021-.215-.022-.427-.028-.642-.014-.484-.078,0-.03.068-.042-.058.072-.356.087-.419.064-.263.155-.515.24-.772.142-.428-.124.221.015-.037.078-.143.141-.294.216-.438a13.252,13.252,0,0,1,1.033-1.643c.057-.078.367-.443.071-.1.091-.106.176-.217.267-.323q.334-.4.695-.772a15.6,15.6,0,0,1,1.45-1.33,2.407,2.407,0,0,0,0-3.394,2.468,2.468,0,0,0-3.394,0Z"/><path class="e" d="M109.982,100.391c-1.674-3.451-4.662-6.413-8.509-7.237a9.194,9.194,0,0,0-9.7,3.709c-3.918,5.483-2.646,13.594.28,19.192a25.964,25.964,0,0,0,7.967,8.954,2.419,2.419,0,0,0,3.284-.861,2.452,2.452,0,0,0-.861-3.283c-5.22-3.757-8.714-10.063-8.221-16.576.19-2.494,1.193-5.836,3.963-6.5,3.494-.831,6.291,2.2,7.656,5.019a2.423,2.423,0,0,0,3.284.861,2.449,2.449,0,0,0,.861-3.283Z"/><path class="e" d="M153.434,140.74a32.548,32.548,0,0,1-3.775-1.327l.573.242a15.852,15.852,0,0,1-3.259-1.673,2.414,2.414,0,0,0-1.849-.242,2.445,2.445,0,0,0-1.434,1.1,2.418,2.418,0,0,0-.242,1.849,2.782,2.782,0,0,0,1.1,1.435,14.062,14.062,0,0,0,2.649,1.408,36.351,36.351,0,0,0,4.958,1.833,2.4,2.4,0,1,0,1.276-4.628Z"/><path class="e" d="M152.02,111c.179,2.122-1.136,6.648-4.812,6.3-4.748-1.01-3.872-6.629-1.741-8.917C147.212,106.5,151.245,106.407,152.02,111Z"/><path class="e" d="M161.905,86.261c-.392,4.35-1.67,8.386-2.646,12.611a69.091,69.091,0,0,0-1.825,10.768,20.781,20.781,0,0,0,1.6,10.349,16.3,16.3,0,0,0,3.145,4.185,4.532,4.532,0,0,1,1.164,1.964,2.608,2.608,0,0,1,.1.871c.023-.282-.015.1-.025.142-.089.391.036.005-.082.172-.172.241.016-.028.037-.042-.12.08-.205.224-.327.307.333-.226-.3.146-.4.2a10.4,10.4,0,0,1-1.545.629,10.117,10.117,0,0,0-4.022,2.256,17.954,17.954,0,0,0-2.644,4.685c-.651,1.323-1.048,2.779-1.583,4.155a58.094,58.094,0,0,1-4.563,9.381c-1.776,2.886-4.143,5.6-7.355,6.911-3.33,1.356-7.341,1.017-10.8.383-3.721-.682-7.751-1.863-10.744-4.281a2.474,2.474,0,0,0-3.395,0,2.419,2.419,0,0,0,0,3.394,27.274,27.274,0,0,0,10.657,5.039,33.735,33.735,0,0,0,11.217,1.041,17.668,17.668,0,0,0,11.145-5.53,35.252,35.252,0,0,0,6.1-9.55c1.389-2.934,2.489-6.439,3.761-9.118.662-1.4,1.063-3,2.52-3.738.252-.127.921-.375,1.471-.581a18.514,18.514,0,0,0,2.2-.931c3.654-1.934,3.921-6.355,1.745-9.586-1.051-1.561-2.558-2.654-3.432-4.343a11.841,11.841,0,0,1-1.161-4.5,40.936,40.936,0,0,1,1.361-12.038c.552-2.455,1.329-4.845,1.886-7.3a60.136,60.136,0,0,0,1.233-7.906,2.417,2.417,0,0,0-2.4-2.4,2.451,2.451,0,0,0-2.4,2.4Z"/><path class="f" d="M65.548,121c-6.285-15.277-7.31-29.136-5.195-40.9,4.418-25.43,19.675-36.971,30.736-40.74a61.8,61.8,0,0,1,46.87,2.372c13.116,5.968,29.44,19.42,27.4,43.144"/><path class="e" d="M140.629,131.149a5.849,5.849,0,0,0-2.256.04,5.563,5.563,0,0,0-1.516.609,6.405,6.405,0,0,0-2.328,2.435c-.405.688-.859,1.344-1.275,2.024a17.305,17.305,0,0,0-1.4,2.911,2.413,2.413,0,0,0,.242,1.849,2.4,2.4,0,0,0,3.283.861,2.727,2.727,0,0,0,1.1-1.434q.084-.22.174-.44l-.242.574a16.079,16.079,0,0,1,1.313-2.425c.222-.347.448-.691.666-1.04.234-.375.433-.779.7-1.132l-.375.485a3.8,3.8,0,0,1,.656-.642l-.486.375a3.981,3.981,0,0,1,.808-.459l-.574.242a3.466,3.466,0,0,1,.793-.211l-.638.085a3.027,3.027,0,0,1,.624,0l-.638-.086.088.012a2.655,2.655,0,0,0,1.849-.242,2.4,2.4,0,0,0,.861-3.284,2.294,2.294,0,0,0-1.434-1.1Z"/><path class="g" d="M91.457,118.5a16.07,16.07,0,0,1-2.762,5.118,22.765,22.765,0,0,1-5.684,5.405A24.911,24.911,0,0,1,69.1,133.287c-3.09-.105-3.086,4.695,0,4.8a29.379,29.379,0,0,0,16.66-5.141c4.464-3.019,8.889-7.846,10.326-13.175.805-2.986-3.825-4.26-4.629-1.276Z"/><path class="e" d="M141.772,40.31c-6.51-7.228-16.868-9.531-26.191-10.072-8.885-.515-18.894.113-26.87,4.458a17.087,17.087,0,0,0-7.53,7.522,2.468,2.468,0,0,0,.861,3.283,2.418,2.418,0,0,0,3.283-.861,12.289,12.289,0,0,1,.9-1.625c.083-.127.467-.656.4-.574-.017.021.4-.46.558-.63a12.35,12.35,0,0,1,3.007-2.424,29.011,29.011,0,0,1,9.721-3.479,61.96,61.96,0,0,1,13.626-.958,51.909,51.909,0,0,1,13.412,1.989,24.473,24.473,0,0,1,11.43,6.765c2.071,2.3,5.457-1.1,3.394-3.394Z"/><path class="e" d="M165.789,74.512c1.086-6.44-1.747-13.084-5.141-18.42-3.07-4.827-7.562-10.459-13.348-12.042-2.984-.816-4.257,3.814-1.276,4.629a7.438,7.438,0,0,1,2.491,1.169,16.364,16.364,0,0,1,2.7,2.162,36.815,36.815,0,0,1,9.048,14.258c.217.674.409,1.356.57,2.045.11.475.288,1.413.315,1.632a14.5,14.5,0,0,1,.108,1.9q0,.391-.028.781c-.011.17-.026.339-.044.508q.048-.333-.022.105a2.471,2.471,0,0,0,1.676,2.952,2.419,2.419,0,0,0,2.952-1.676Z"/><path class="e" d="M75.5,46.893C67.748,49.831,62.269,55.968,59.057,63.5a56.115,56.115,0,0,0-3.591,12.413,73.661,73.661,0,0,0-1.237,11.857,74.891,74.891,0,0,0,2.84,19.884,64.347,64.347,0,0,0,5.093,13.215c1.789,3.395,3.7,6.726,5.192,10.27,3.88,9.213,5.732,21.676-.938,30.129a2.477,2.477,0,0,0,0,3.394,2.416,2.416,0,0,0,3.394,0c6.423-8.14,6.864-19.048,4.255-28.743a61.345,61.345,0,0,0-4.706-11.742A120.123,120.123,0,0,1,63.876,113.1C58.6,99.369,57.489,84.3,61.744,70.108c2.368-7.9,6.99-15.539,15.036-18.587a2.469,2.469,0,0,0,1.676-2.952A2.418,2.418,0,0,0,75.5,46.893Z"/><path class="e" d="M161.259,73.847c.249,1.087.5,2.175.709,3.271.09.471.154.946.24,1.417.06.328-.052-.481-.021-.152.01.107.026.215.038.322.026.241.049.483.067.725a22.826,22.826,0,0,1,.026,2.829c-.029.563-.074,1.126-.13,1.687-.033.33-.07.661-.11.991-.019.155-.039.31-.059.466-.055.441.082-.583-.03.218a2.468,2.468,0,0,0,1.676,2.952c1.132.258,2.765-.346,2.952-1.676a34.93,34.93,0,0,0,.475-7.467,46.147,46.147,0,0,0-1.205-6.859,2.42,2.42,0,0,0-2.952-1.676,2.452,2.452,0,0,0-1.676,2.952Z"/><path class="e" d="M161.625,70.915c-.084.138-.173.269-.265.4.343-.5,0-.014-.082.073-.267.273-.527.546-.811.8a13.722,13.722,0,0,1-2.049,1.533,42.078,42.078,0,0,1-6.608,3.466,41.769,41.769,0,0,1-15.76,3.645c-3.087.02-3.094,4.82,0,4.8a47.3,47.3,0,0,0,18.183-4.3,41.924,41.924,0,0,0,7.073-3.776,14.7,14.7,0,0,0,4.464-4.224c1.61-2.645-2.539-5.06-4.145-2.422Z"/><path class="e" d="M109.621,101.521a33.113,33.113,0,0,1,6.877-9.238c.156-.147.312-.3.474-.439-.052.046-.477.311-.116.1.157-.093.315-.181.475-.269.089-.049.183-.088.274-.131.331-.157-.332.128.037-.014.266-.1.534-.2.8-.287,1.271-.423,2.576-.742,3.878-1.05a53.242,53.242,0,0,0,6.96-1.762c3.211-1.237,6.2-3.7,8.7-6.013a38.718,38.718,0,0,0,7.695-9.883c1.48-2.712-2.663-5.138-4.144-2.422a34.523,34.523,0,0,1-6.506,8.5,33.242,33.242,0,0,1-4.034,3.3q-1.164.8-2.386,1.518c-.272.158-.547.31-.824.46.493-.267.082-.034-.2.061-2.36.8-4.863,1.2-7.279,1.788-2.3.563-4.888,1.13-6.732,2.712a34.9,34.9,0,0,0-8.1,10.648c-1.393,2.749,2.747,5.182,4.144,2.423Z"/></svg>