<?xml version="1.0" encoding="utf-8"?>
<!-- Uploaded to: SVG Repo, www.svgrepo.com, Generator: SVG Repo Mixer Tools -->
<svg width="800px" height="800px" viewBox="-38.21 0 314.411 314.411" xmlns="http://www.w3.org/2000/svg"><defs><style>.a{fill:#a18d7d;}.b{fill:#ffffff;}.c{fill:#b3b3b3;}.d{fill:#645d5c;}.e{fill:#211715;}.f{fill:none;}</style></defs><path class="a" d="M57.287,117a286.249,286.249,0,0,0,1.721-33.835c-1-30.038,6.9-51.821,19.361-63.746C85.878,12.235,102.8,2.441,121.81,2.441c11.6,0,17.739,1.224,24.347,3.77l3.731,1.438,7,3.8c4.473,2.428,5.667,4.279,9.777,8.244,9.505,9.17,16.112,25.67,17.164,40.445.3,4.262,1,15.352.329,23.029.338,27.272,5.014,42.537,7.428,50.05a53.273,53.273,0,0,1,2.931,17.085c.085,10.207-10.921,22.366-24.486,17.135l-92.668,2.93C62.2,173.828,51.918,162.634,52,152.426a112.473,112.473,0,0,1,3-22.607A100.262,100.262,0,0,0,57.287,117Z"/><path class="b" d="M182.852,86.6a9.694,9.694,0,0,0-1.014-3.894,6.846,6.846,0,0,0-4.923-3.273,7.361,7.361,0,0,0-4.3.684c-.077-.055-.307-.208-.418-.28-1.853-.319-5.148-7.9-5.148-7.9a89.464,89.464,0,0,0-6.419-15.491c-2.21-4.373-7.143-9.116-12.725-9.264,0,0-5.863-.477-11.926-.791-6.073,5.519-17.348,12.625-26.62,17.409,0,0-4.782,1.352-10.391,2.632C91.714,73.28,83.409,78.85,71.692,79.852a7.347,7.347,0,0,0-3.7-.42,6.848,6.848,0,0,0-4.923,3.273A9.677,9.677,0,0,0,62.06,86.6a29,29,0,0,0,2.958,15.377,18.442,18.442,0,0,0,4.767,6.258A12.223,12.223,0,0,0,75.47,110.8l1.854.286a49.317,49.317,0,0,0,9.4,18.351,41.739,41.739,0,0,0,15.065,11.842c.078,1.315.142,2.433.17,2.915a19.933,19.933,0,0,1-1.045,6.921c-1.94,4.8-21.67,14.78-22.39,15.1,0,0,6.819,33.5,43.263,33.5s43.4-33.5,43.4-33.5c-.72-.32-18.6-10.3-20.54-15.1-1.15-2.83-1.08-6.6-1.06-9.88h-.057v-.066c12.18-5.183,21.986-21.586,23.693-26.221.257-.781.782-2.252,1.248-4l.973-.151a12.223,12.223,0,0,0,5.685-2.562,18.458,18.458,0,0,0,4.768-6.258A29.014,29.014,0,0,0,182.852,86.6Z"/><path class="b" d="M117.6,233.1c-6.191-16.006-14.621-37.934-20.683-55.1l2.328.624a101.58,101.58,0,0,0,23.18,3.331c7.392.018,17.91-1.15,25.131-4.022l.84-.327c-7.993,26.641-21.234,64.053-24.429,71.976C122.5,245.737,120.259,239.961,117.6,233.1Z"/><path class="c" d="M60.5,311.417c1.46-15.48,2.79-30.49,3.2-37.779,0-3.352-1.462-13.523-3.276-25.3-12.153,15.163-29.237,22.8-44.512,18.1q-.378-.115-.754-.251c-4.85-.935-8.132-4.726-9.669-7.3-3.764-6.3-3.368-11.268-2.7-17.8,2.259-22.064,6.082-35.3,11.46-53,9.253.914,21.953,2.913,31.891,4.459v-12.7a57.466,57.466,0,0,1,9.29-5.3c5.4-2.685,14.889-7.053,23.039-10.945a49.524,49.524,0,0,1,11.3-8.062c3.925,16.887,27.388,76.222,34.193,94.036,4.3-10.675,26.858-74.921,30.22-94.178a59.145,59.145,0,0,1,7.991,4.853c6.7,3.083,15.115,6.784,22.014,9.936l13.617,6.014c5.624,1.662,12.148,6.25,15.232,11.636a70.489,70.489,0,0,1,7.262,18.91c4.688,22.629,11.056,39.748,14.7,64.159,1.1,7.388.8,15.32-2.173,22.174a13.691,13.691,0,0,1-7.093,6.774c-3.579,1.35-8.788,1.714-12.269.128a64.54,64.54,0,0,1-8.536-4.691l1.057,4.369c.67,2.77,1.43,7.16,2.19,12.34"/><path class="b" d="M181.094,259.534c3.339,4.353,7.892,5.673,13.36,5.238,3.869-.307,5.773-2.3,8.233-5.306A16.069,16.069,0,0,0,206.3,252.2c.769-3.681-.338-7.791-1.508-11.364-2.5-7.621-3.653-12.849-8.612-19.151-4.512-5.734-11.8-7.738-19.12-8.072-1.006-.006-3.076-.032-3.076-.032-3.564-.044-6.419.79-8.029,3.45a6.8,6.8,0,0,0,.858,8.1c-3.357-.142-5.7,1.352-6.207,4.326s.653,6.343,3.29,7.241c-1.945.582-3.278,3.328-3.109,5.268s1.523,5.252,3.808,5.737c-2.383.6-2.716,4.37-1.309,6.813s4.477,3.172,7.275,3.526,7.838.428,9.785,1.324Z"/><path class="d" d="M208.182,312.007c-.76-5.18-1.52-9.57-2.19-12.34l-1.057-4.369a61.53,61.53,0,0,1-11.565-9.713,65.993,65.993,0,0,1-8.138-10.485c-1.325-2.18-1.989-2.8-.367-4.675,1.826-2.117,5.172-3.636,7.169-5.58a13.346,13.346,0,0,1-10.7-5c-.539-.257-.994-.466-.994-.466a21.352,21.352,0,0,0-5.827-.974l-.292,1.346c-2.16,9.95-4.4,31.41-6.03,52.13Z"/><path class="b" d="M57.466,140.711a5.277,5.277,0,0,0-1.682-5.361,3.557,3.557,0,0,0-3.143-.525,5.375,5.375,0,0,0,.261-2.638h0a6.43,6.43,0,0,0,1.26-4.711,5.677,5.677,0,0,0-2.709-4.02c-4.331-2.588-8.455-3.157-13.475-3.64a8.712,8.712,0,0,0-2.7,1.241,4.78,4.78,0,0,0-3.148-4.08c-2.127-.673-4.732.451-6.429,1.9a16.193,16.193,0,0,0-2.563,3.046l-5.652,7.962c-3.366,4.742-6.9,10.154-5.978,15.9.626,3.9,3.234,8.913,4.592,12.621,2.3,6.264,5.807,11.252,6.054,18.236l25.381,3.4c.366-2.139.256-2.4,1.676-4s2.529-3.977,3.834-5.675a10.053,10.053,0,0,0,1.632-9.408c-1.022-3.248-2.966-5.542-2.793-8.943a11.487,11.487,0,0,1,2.379-5.738C55.453,144.561,56.942,142.728,57.466,140.711Z"/><path class="b" d="M50.663,182.462c.131-.886.237-1.573.3-1.914-1.226-.226-23.414-3.284-31.771-4.292-.743,3.223-1.635,7.886-2.654,12.081,9.908,1.091,22.867,3.178,32.369,4.651C48.974,194.447,50.073,186.447,50.663,182.462Z"/><path class="e" d="M181.767,83.164a184.115,184.115,0,0,0,4.279,39.148c.824,3.558,1.809,7.074,2.912,10.555a74.925,74.925,0,0,1,2.452,9.246,31.906,31.906,0,0,1,.582,10.215,16.963,16.963,0,0,1-12.6,13.662c-3.01.691-1.736,5.32,1.276,4.628a21.589,21.589,0,0,0,14.689-12.811c2.842-6.772,1.467-14.874-.408-21.737-1.1-4.022-2.489-7.951-3.528-11.992a143.4,143.4,0,0,1-3.038-15.412,198.654,198.654,0,0,1-1.813-25.5c-.041-3.086-4.841-3.095-4.8,0Z"/><path class="e" d="M172.81,82.915a4.753,4.753,0,0,1,6.778.793A8.129,8.129,0,0,1,180.534,88a25.538,25.538,0,0,1-.3,5.263c-1.074,6.345-4.371,14.076-11.435,15.306a2.42,2.42,0,0,0-1.676,2.952,2.455,2.455,0,0,0,2.952,1.677c9.711-1.692,14.352-12.708,15.157-21.474.389-4.242.281-9.548-3.3-12.474a9.712,9.712,0,0,0-12.518.27,2.42,2.42,0,0,0,0,3.394,2.45,2.45,0,0,0,3.394,0Z"/><path class="e" d="M166.967,105.486a24.138,24.138,0,0,1-1.128,6.024c-.228.771-.48,1.535-.736,2.3-.078.233-.158.464-.238.7-.161.469-.095.235-.032.1a50.888,50.888,0,0,1-3.238,5.924,57.5,57.5,0,0,1-12.836,14.8,24.372,24.372,0,0,1-9.466,4.786c-3.009.694-1.735,5.323,1.276,4.628,7.306-1.685,13.426-6.942,18.242-12.459a62.653,62.653,0,0,0,10.014-14.913,32.126,32.126,0,0,0,2.942-11.878c.105-3.089-4.695-3.085-4.8,0Z"/><path class="e" d="M75.5,79.521a9.711,9.711,0,0,0-12.517-.27c-3.584,2.926-3.692,8.232-3.3,12.474.8,8.766,5.446,19.782,15.156,21.474a2.469,2.469,0,0,0,2.952-1.677,2.42,2.42,0,0,0-1.676-2.952c-7.063-1.23-10.361-8.961-11.434-15.306a25.612,25.612,0,0,1-.3-5.263,8.277,8.277,0,0,1,.946-4.293,4.747,4.747,0,0,1,6.778-.793,2.464,2.464,0,0,0,3.394,0,2.42,2.42,0,0,0,0-3.394Z"/><path class="e" d="M73.448,104.848c2.652,15.289,10.96,30.275,25.138,37.636a34.256,34.256,0,0,0,12.333,3.68,2.416,2.416,0,0,0,2.4-2.4,2.454,2.454,0,0,0-2.4-2.4c-14.444-1.506-25.7-14.5-30.234-27.507a65.042,65.042,0,0,1-2.609-10.285,2.421,2.421,0,0,0-2.952-1.677,2.454,2.454,0,0,0-1.676,2.953Z"/><path class="e" d="M169.366,71.39a79.555,79.555,0,0,0-7.14-16.943c-2.974-5.118-8.249-9.3-14.319-9.574-3.088-.138-3.081,4.662,0,4.8,4.7.21,8.6,4.111,10.652,8.074a87.021,87.021,0,0,1,6.178,14.919c.885,2.951,5.519,1.694,4.629-1.276Z"/><path class="e" d="M146.795,3.9C138.045.547,128.486-.331,119.171.1A69.9,69.9,0,0,0,88.449,9.229a54.421,54.421,0,0,0-17.62,15.26,69.616,69.616,0,0,0-10.49,22.72c-3.2,11.664-4.113,23.907-3.731,35.96.1,3.081,4.9,3.094,4.8,0-.577-18.2,1.656-37.864,11.7-53.526a47.174,47.174,0,0,1,14.8-14.5,66.147,66.147,0,0,1,27.367-9.919,78.612,78.612,0,0,1,17.938.183,51.133,51.133,0,0,1,12.307,3.123,2.417,2.417,0,0,0,2.952-1.676A2.453,2.453,0,0,0,146.795,3.9Z"/><path class="e" d="M186.563,83.169a126.342,126.342,0,0,0,.059-16.465,106.532,106.532,0,0,0-1.438-14.626c-2.078-11.125-6.634-22.252-13.939-30.981-1.922-2.3-4.129-4.346-6.245-6.459a30.6,30.6,0,0,0-6.9-5.259c-2.708-1.491-5.132,2.653-2.423,4.144a24.522,24.522,0,0,1,5.456,4.044c1.866,1.829,3.779,3.648,5.539,5.579a52.305,52.305,0,0,1,8.458,13.134,70.975,70.975,0,0,1,5.109,15.5,88.545,88.545,0,0,1,1.521,13.732,130.736,130.736,0,0,1,0,17.659,2.419,2.419,0,0,0,2.4,2.4,2.449,2.449,0,0,0,2.4-2.4Z"/><path class="e" d="M135.434,43.7a77.622,77.622,0,0,1-12,9.188,172.95,172.95,0,0,1-15.286,8.934c-2.744,1.42-.319,5.564,2.423,4.145A173.359,173.359,0,0,0,126.2,56.8a83.015,83.015,0,0,0,12.627-9.713c2.208-2.168-1.187-5.561-3.4-3.394Z"/><path class="e" d="M111.657,49.824c-9.085,9.234-17.306,20.471-29.776,25.34A2.472,2.472,0,0,0,80.2,78.116a2.418,2.418,0,0,0,2.953,1.676c13.418-5.239,22.1-16.622,31.894-26.574,2.169-2.2-1.223-5.6-3.394-3.394Z"/><path class="e" d="M53.25,163.731c-.545-.545-.273-.331-.119-.1.07.1.141.2.213.305.159.224.323.443.49.66.432.561.869,1.114,1.345,1.638a19.834,19.834,0,0,0,2.413,2.241,23.084,23.084,0,0,0,6.9,3.758,2.416,2.416,0,0,0,2.952-1.676,2.458,2.458,0,0,0-1.676-2.952c-.262-.089-.523-.182-.781-.281-.146-.056-.308-.142-.459-.183.242.065.361.157.048.016q-.774-.345-1.515-.756-.693-.385-1.354-.825c-.218-.145-.432-.294-.644-.448-.125-.091-.247-.194-.375-.279.2.13.328.257.058.039a19.646,19.646,0,0,1-2.271-2.16q-.252-.281-.492-.572c-.08-.1-.157-.2-.237-.292-.189-.229.311.418.054.071a13.9,13.9,0,0,0-1.153-1.593,2.4,2.4,0,0,0-3.394,3.394Z"/><path class="e" d="M56.607,83.164c0,13.772-.315,27.921-2.884,41.381-.608,3.188-1.485,6.314-2.1,9.5A2.463,2.463,0,0,0,53.3,137a2.422,2.422,0,0,0,2.952-1.676c.561-2.9,1.35-5.747,1.932-8.642.542-2.693.952-5.41,1.31-8.133.9-6.849,1.374-13.752,1.643-20.652.192-4.908.27-9.819.271-14.731,0-3.089-4.8-3.094-4.8,0Z"/><path class="e" d="M141.187,141.234a50.38,50.38,0,0,0,.21,6.337,12.509,12.509,0,0,0,1.69,5.667c2.371,3.425,6.2,5.888,9.588,8.188a2.4,2.4,0,1,0,2.423-4.144c-1.614-1.095-3.218-2.214-4.728-3.45-.661-.541-1.308-1.1-1.922-1.7-.267-.26-.53-.526-.78-.8-.127-.14-.25-.283-.371-.428-.245-.294.265.432-.066-.091-.145-.23-.29-.45-.413-.693-.132-.26.131.388-.005-.038-.073-.226-.153-.448-.219-.676a13.87,13.87,0,0,1-.449-2.294,53.655,53.655,0,0,1-.158-5.88c.02-3.089-4.78-3.093-4.8,0Z"/><path class="e" d="M99.567,141.444A51.44,51.44,0,0,1,99.4,147.2a14.206,14.206,0,0,1-.482,2.362c-.067.222-.142.439-.219.658.054-.152.135-.232.017-.045-.085.133-.549.819-.213.393-2.188,2.771-5.51,4.655-8.48,6.5a2.4,2.4,0,1,0,2.423,4.144c1.939-1.206,3.852-2.459,5.668-3.846a20.629,20.629,0,0,0,4.277-4.045,11.19,11.19,0,0,0,1.7-5.211,47.924,47.924,0,0,0,.278-6.67c-.02-3.088-4.82-3.094-4.8,0Z"/><path class="e" d="M98.611,180.937a93.618,93.618,0,0,0,25.195,3.407c8.146-.133,16.764-1.112,24.392-4.1a2.472,2.472,0,0,0,1.676-2.952,2.417,2.417,0,0,0-2.952-1.676c-7.265,2.844-15.359,3.8-23.116,3.926a88.634,88.634,0,0,1-23.919-3.235c-2.989-.792-4.264,3.837-1.276,4.628Z"/><path class="e" d="M47.358,181.926c4.426-3.277,9.625-5.5,14.577-7.859,5.555-2.646,11.137-5.237,16.693-7.881a2.419,2.419,0,0,0,.861-3.283,2.452,2.452,0,0,0-3.284-.861c-5.556,2.643-11.137,5.234-16.693,7.88-4.952,2.358-10.15,4.582-14.577,7.86a2.474,2.474,0,0,0-.861,3.283,2.417,2.417,0,0,0,3.284.861Z"/><path class="e" d="M199.235,173.99c-1.106-.39-2.222-.747-3.33-1.13a1.812,1.812,0,0,0-.957-.043,1.778,1.778,0,0,0-.893.285,2.682,2.682,0,0,0-1.1,1.434,2.431,2.431,0,0,0,.241,1.849l.376.486a2.387,2.387,0,0,0,1.059.617c1.108.384,2.224.741,3.33,1.13a1.812,1.812,0,0,0,.957.043,1.774,1.774,0,0,0,.892-.285,2.677,2.677,0,0,0,1.1-1.434,2.426,2.426,0,0,0-.242-1.849l-.375-.486a2.407,2.407,0,0,0-1.059-.617Z"/><path class="e" d="M161.115,162.4c7.269,3.338,14.6,6.548,21.87,9.87a2.471,2.471,0,0,0,3.284-.861,2.418,2.418,0,0,0-.861-3.283c-7.275-3.322-14.6-6.533-21.87-9.87a2.471,2.471,0,0,0-3.284.861,2.42,2.42,0,0,0,.861,3.283Z"/><path class="f" d="M199.117,179.9c-.994,12.315-3.646,36.573-7.186,60.087-1.8,11.926-4.107,21.288-5.958,33.654"/><path class="e" d="M62.9,311.417c1.185-12.575,2.482-25.167,3.2-37.78.175-3.086-4.625-3.076-4.8,0-.718,12.613-2.015,25.2-3.2,37.78a2.417,2.417,0,0,0,2.4,2.4,2.452,2.452,0,0,0,2.4-2.4Z"/><path class="e" d="M51.792,207.967c2.869,19.044,6.269,38.544,8.71,57.348a67.387,67.387,0,0,1,.8,8.323c.013,3.088,4.813,3.094,4.8,0a60.468,60.468,0,0,0-.658-7.181c-.51-4.069-1.1-8.129-1.706-12.185-1.441-9.65-2.995-19.283-4.493-28.925-.966-6.215-1.891-12.436-2.828-18.656a2.417,2.417,0,0,0-2.953-1.676,2.46,2.46,0,0,0-1.676,2.952Z"/><path class="e" d="M110.32,264.3c-.81.346.108-.026.308-.087.138-.043.278-.072.416-.112.464-.135-.567-.025-.136.021.092.01.2.006.289.008.518.013-.569-.136-.068-.013.139.034.279.06.417.1.092.027.183.056.272.088q.359.135-.176-.082a3.812,3.812,0,0,0,.626.339l.119.078q.308.219-.143-.123a2.264,2.264,0,0,0,.32.278,5.37,5.37,0,0,0,.477.517l-.207-.263c.053.075.1.152.154.231a2.7,2.7,0,0,0,.265.484l-.134-.321c.034.084.064.169.091.255.036.114.066.229.093.346a1.365,1.365,0,0,0,.071.371l-.046-.33c.01.1.018.207.022.311.007.152,0,.3,0,.457.009.51.157-.537.011-.08-.057.182-.112.37-.164.553-.112.387.288-.576.095-.223-.046.083-.083.171-.128.254-.076.139-.163.269-.246.4-.121.2-.343.305.152-.181-.065.065-.12.149-.181.218a5.664,5.664,0,0,1-.4.407c-.07.065-.146.124-.215.189-.293.277.522-.364.186-.14-.16.106-.314.219-.478.318q-.206.123-.42.231c-.085.043-.173.08-.259.123-.345.174.661-.242.131-.062a9.367,9.367,0,0,1-1,.275c-.553.122.633-.042.084-.009-.215.013-.427.027-.643.021-.129,0-.756-.072-.221,0s-.081-.026-.207-.058c-.169-.043-.334-.123-.5-.161.65.147.506.234.332.138-.1-.056-.209-.1-.31-.163-.076-.044-.147-.1-.222-.141-.334-.19.481.43.2.162-.108-.1-.223-.2-.326-.309-.06-.065-.114-.15-.18-.208.474.417.285.406.155.181-.1-.171-.2-.339-.286-.515-.19-.376.213.6.085.189-.044-.139-.092-.276-.129-.417-.02-.074-.139-.4-.1-.452q.061.543.022.147l-.009-.158a3.507,3.507,0,0,0,.009-.464q-.092.576-.024.182.03-.153.072-.3c.023-.086.079-.41.151-.462q-.2.466-.037.1l.065-.135a8.564,8.564,0,0,1,.5-.881,2.8,2.8,0,0,0,.238-.343q-.356.451-.118.164c.045-.052.09-.1.137-.153.077-.083.157-.163.239-.241.067-.062.134-.123.2-.181q-.463.346-.159.124a6.791,6.791,0,0,1,.87-.487,2.409,2.409,0,0,0,.861-3.283,2.469,2.469,0,0,0-3.284-.861,7.652,7.652,0,0,0-3.425,3.329,7.447,7.447,0,0,0-.837,5.638,6.321,6.321,0,0,0,5.058,4.7,8.687,8.687,0,0,0,6.9-1.974,6.949,6.949,0,0,0,2.2-7.553,7.357,7.357,0,0,0-3.731-4.217,7.167,7.167,0,0,0-3.157-.755,8.1,8.1,0,0,0-3.011.834,2.4,2.4,0,0,0-1.1,1.434,2.457,2.457,0,0,0,.242,1.849,2.422,2.422,0,0,0,1.435,1.1A2.819,2.819,0,0,0,110.32,264.3Z"/><path class="e" d="M126.646,311.667c1.032-9.562,1.763-19.156,2.43-28.749.279-4.023.547-8.048.76-12.075a52.4,52.4,0,0,0-.437-11.909,54.238,54.238,0,0,0-2.191-8.321q-.658-1.92-1.425-3.8c-.293-.723-.6-1.441-.9-2.159l-.246-.57c-.048-.112-.4-.931-.163-.372a2.483,2.483,0,0,0-2.953-1.676,2.414,2.414,0,0,0-1.676,2.952,77.419,77.419,0,0,1,4.483,13,43.207,43.207,0,0,1,.763,11.833c-.39,7.9-.974,15.8-1.591,23.688-.474,6.061-1,12.119-1.651,18.163a2.415,2.415,0,0,0,2.4,2.4,2.454,2.454,0,0,0,2.4-2.4Z"/><path class="e" d="M151.878,154.767a150.073,150.073,0,0,1-3.578,14.609c-1.87,6.628-3.9,13.21-5.988,19.773q-6.661,20.951-14.022,41.674c-1.84,5.214-3.694,10.426-5.655,15.6a2.419,2.419,0,0,0,1.676,2.952,2.452,2.452,0,0,0,2.952-1.676c4.108-10.827,7.871-21.793,11.6-32.757,4.741-13.955,9.375-27.964,13.454-42.129a163.274,163.274,0,0,0,4.194-16.766,2.469,2.469,0,0,0-1.677-2.952,2.421,2.421,0,0,0-2.952,1.676Z"/><path class="e" d="M125.35,246.5c-4.528-11.765-9.109-23.508-13.594-35.289-5.156-13.543-10.281-27.11-14.942-40.832-1.731-5.095-3.494-10.228-4.721-15.473-.7-3.007-5.333-1.734-4.629,1.276,1.061,4.532,2.544,8.973,4.018,13.384,2.128,6.369,4.394,12.692,6.7,19,5.093,13.942,10.4,27.8,15.751,41.649q3.391,8.782,6.79,17.562a2.469,2.469,0,0,0,2.952,1.676,2.418,2.418,0,0,0,1.677-2.952Z"/><path class="e" d="M170.592,311.877c1.143-14.491,2.361-29.035,4.519-43.417.406-2.7.85-5.4,1.425-8.075.648-3.012-3.978-4.3-4.629-1.276-1.172,5.449-1.884,11-2.574,16.53-.929,7.45-1.684,14.921-2.367,22.4q-.632,6.918-1.174,13.841a2.42,2.42,0,0,0,2.4,2.4,2.448,2.448,0,0,0,2.4-2.4Z"/><path class="e" d="M203.677,300.305c.975,4.059,1.584,8.214,2.19,12.34a2.408,2.408,0,0,0,2.953,1.677,2.476,2.476,0,0,0,1.676-2.953c-.607-4.126-1.215-8.281-2.19-12.34a2.422,2.422,0,0,0-2.952-1.676,2.451,2.451,0,0,0-1.677,2.952Z"/><path class="e" d="M179.4,261.231a15.389,15.389,0,0,0,9.613,5.717c3.747.612,8.1.542,11.3-1.746a22.456,22.456,0,0,0,7.243-9.073c1.889-4.435,1.551-9.041.265-13.6-2.194-7.773-4.653-15.752-9.679-22.2-5.052-6.479-13.522-9-21.473-9.121-3.813-.06-7.808-.167-10.919,2.407a9.056,9.056,0,0,0-3.119,6.04,9.907,9.907,0,0,0,2.483,7.176l1.7-4.1c-3.972-.1-7.743,1.937-8.521,6.088s.855,8.614,4.966,10.193v-4.629a7.756,7.756,0,0,0-4.76,8.46c.462,3.014,2.335,6.346,5.459,7.175V245.4c-2.776.864-4.069,3.633-3.887,6.409a8.381,8.381,0,0,0,4.338,6.967,20.208,20.208,0,0,0,7.99,1.859c1.3.108,2.608.193,3.909.329.56.059,1.117.127,1.67.233.28.054.559.112.834.186.094.025.772.257.324.066a2.481,2.481,0,0,0,3.283-.861,2.415,2.415,0,0,0-.861-3.283c-3.759-1.6-8-1.057-11.948-1.815-1.619-.31-3.657-.8-4.407-2.455a4.249,4.249,0,0,1-.339-2.134,2.253,2.253,0,0,1,.218-.723c.037-.079.248-.292.1-.135-.188.2.292-.088.056-.014a2.421,2.421,0,0,0,0-4.629c-1.048-.278-1.759-2.028-2.02-3.311-.027-.131-.048-.389-.026-.112a3.439,3.439,0,0,1-.008-.574,4.774,4.774,0,0,1,.221-.9,2.9,2.9,0,0,1,1.134-1.477,2.424,2.424,0,0,0,0-4.629c-1.581-.607-1.837-3.2-1.55-4.612.38-1.867,1.959-2.286,3.829-2.24,2.272.055,2.912-2.577,1.7-4.1a4.365,4.365,0,0,1,1.207-6.74c2.131-1.067,4.9-.742,7.218-.686,6.264.154,13.007,1.962,17.178,6.918,4.3,5.115,6.086,11.494,8.1,17.722,1.107,3.43,2.508,7.255,1.775,10.91a16.822,16.822,0,0,1-4.654,8.131,8.025,8.025,0,0,1-3.248,2.329,13.151,13.151,0,0,1-5.011.371,11.339,11.339,0,0,1-8.277-4.56,2.414,2.414,0,0,0-3.394,0,2.46,2.46,0,0,0,0,3.394Z"/><path class="e" d="M166.808,227.54a64.332,64.332,0,0,1,6.716.213q.945.075,1.888.182c.2.023,1.1.08.456.054a6.364,6.364,0,0,1,.787.12,16,16,0,0,1,2.983.73,2.413,2.413,0,0,0,2.953-1.677,2.464,2.464,0,0,0-1.677-2.952,27.3,27.3,0,0,0-7.2-1.242,64.464,64.464,0,0,0-6.907-.228,2.4,2.4,0,1,0,0,4.8Z"/><path class="e" d="M164.856,239.391a49.686,49.686,0,0,1,7.31-.094q.888.052,1.775.139c.323.032.645.073.968.109.377.043-.379-.061-.011,0,.136.022.273.04.41.062a18.729,18.729,0,0,1,3.152.752,2.417,2.417,0,0,0,2.952-1.676,2.459,2.459,0,0,0-1.676-2.953,28.112,28.112,0,0,0-7.346-1.219,49.6,49.6,0,0,0-7.534.08,2.4,2.4,0,0,0,0,4.8Z"/><path class="e" d="M165.918,249.625c1.837.064,3.675.1,5.508.245q.7.054,1.409.13l.347.04c.317.036.024.009-.124-.019.222.043.449.064.672.1a16.086,16.086,0,0,1,2.579.619,2.417,2.417,0,0,0,2.952-1.676,2.458,2.458,0,0,0-1.676-2.953,24.834,24.834,0,0,0-5.981-1.028c-1.892-.152-3.79-.193-5.686-.259a2.419,2.419,0,0,0-2.4,2.4,2.45,2.45,0,0,0,2.4,2.4Z"/><path class="e" d="M197.176,178.522a24.8,24.8,0,0,1,13.419,9.9,59.555,59.555,0,0,1,7.058,17.452c1.553,6.417,2.876,12.881,4.519,19.28,1.548,6.03,3.176,12.039,4.7,18.075,1.625,6.453,3.117,12.939,4.339,19.48,1.269,6.8,2.5,13.656,1.735,20.592-.618,5.6-2.506,12.515-8.508,14.476a15.892,15.892,0,0,1-8.275.571c-2.9-.663-5.7-2.469-8.22-3.995a64.139,64.139,0,0,1-16.2-14.257,54.405,54.405,0,0,1-3.456-4.664c-.523-.793-1.021-1.6-1.515-2.414a4.685,4.685,0,0,0-.422-.723c-.216-.233.151-.068-.048.167,1.807-2.126,4.834-3.66,7.088-5.61,2.341-2.024-1.067-5.407-3.394-3.394-2.438,2.109-5.518,3.405-7.464,6.071-2.25,3.081.084,6.06,1.864,8.707a69.281,69.281,0,0,0,15.214,16.213,64.734,64.734,0,0,0,8.848,5.724c2.994,1.6,5.9,2.977,9.336,3.215,6.869.477,14.136-2.565,17.114-9.094,3.113-6.826,3.592-14.715,2.68-22.076a219.942,219.942,0,0,0-4.1-22.043c-3.116-13.575-7.118-26.929-10.107-40.534a92.6,92.6,0,0,0-3.024-11.422A74.037,74.037,0,0,0,215.5,187.3a29.6,29.6,0,0,0-17.043-13.409c-2.961-.9-4.227,3.729-1.276,4.628Z"/><path class="e" d="M195.781,218.083c.528-12.945,1-25.9,1.729-38.833.061-1.065.185-2.141.2-3.207a5.946,5.946,0,0,0-3.317-5.438,37.235,37.235,0,0,0-5.589-2.566c-1.769-.656-4.484-1.69-6.032-.094-1.354,1.4-1.327,3.878-1.435,5.681-.091,1.532-.144,3.068-.208,4.6-.151,3.647-.267,7.295-.38,10.942-.256,8.337-.518,16.678-.634,25.018-.043,3.09,4.757,3.091,4.8,0,.094-6.744.3-13.487.492-20.228.2-6.872.295-13.772.749-20.634a15.98,15.98,0,0,1,.246-2.1c.03-.163,0-.527.051-.274l-.058.126q.577-.96-1.484.829c.027-.128.518.253-.015-.011a4.459,4.459,0,0,0,.717.156,24.831,24.831,0,0,1,5.008,1.978c.661.331,1.282.734,1.936,1.071.194.1.371.368-.084-.092.113.114.29.212.37.355a2.4,2.4,0,0,1,.039,1.2c-.056.894-.121,1.786-.172,2.68-.369,6.512-.638,13.03-.921,19.546q-.417,9.644-.808,19.287c-.127,3.089,4.674,3.083,4.8,0Z"/><path class="e" d="M24.589,176.067c-.224-4.869-2.006-9.13-4.068-13.473-1.947-4.1-3.679-8.378-5.287-12.626a17.175,17.175,0,0,1-1.471-6.275,14.873,14.873,0,0,1,1.954-6.568c2.461-4.676,5.879-8.894,8.93-13.191,1.376-1.937,2.719-3.913,5.127-4.6,2.05-.587,3.284.895,3.125,2.856-.167,2.08,2.738,3.16,4.1,1.7.97-1.042,2.723-.753,3.846.044,1.138.809,1.162,2.858.863,4.191-.438,1.954,1.668,3.874,3.526,2.711,1.452-.909,2.794-1.37,4.2-.138a3.056,3.056,0,0,1,.9,3.5c-.6,1.874,1.26,3.27,2.952,2.953a1.12,1.12,0,0,1,1.344.452,2.927,2.927,0,0,1,.618,1.992c-.125,1.776-1.609,3.439-2.587,4.83a16.014,16.014,0,0,0-2.986,6.129A11.5,11.5,0,0,0,50.452,157c.777,1.92,1.865,3.775,2.232,5.838a7.648,7.648,0,0,1-1.1,5.426c-1.113,1.781-2.285,3.6-3.484,5.321a22.564,22.564,0,0,0-1.839,2.572,12.244,12.244,0,0,0-1.039,3.241,2.465,2.465,0,0,0,1.676,2.953,2.424,2.424,0,0,0,2.953-1.677,8.861,8.861,0,0,1,.646-2.269,20.576,20.576,0,0,1,1.748-2.4c1.046-1.512,1.925-3.123,3-4.614a12.615,12.615,0,0,0,1.612-11.477c-1.092-3.182-3.566-6.331-2.075-9.8,1.532-3.56,4.847-6.092,5.223-10.166a7.73,7.73,0,0,0-1.995-5.757c-1.595-1.818-3.741-2.113-6.014-1.687l2.953,2.952a7.84,7.84,0,0,0-2.428-8.426c-2.956-2.509-6.536-2.346-9.718-.354l3.526,2.71c.773-3.451.161-7.609-3.069-9.611-2.955-1.832-7.171-1.974-9.663.706l4.1,1.7a7.427,7.427,0,0,0-3.414-6.847c-2.449-1.475-5.393-1.048-7.842.179-2.643,1.324-4.276,3.649-5.94,5.992-1.82,2.562-3.646,5.119-5.456,7.688-3.175,4.506-6.454,9.783-6.055,15.532.366,5.275,3.194,10.257,5.093,15.1,2.1,5.364,5.432,10.322,5.7,16.232.142,3.076,4.943,3.094,4.8,0Z"/><path class="e" d="M25.878,138.542a97.537,97.537,0,0,1,6.283-9.011q.81-1.064,1.612-2.132c.258-.345.521-.688.77-1.039.276-.39-.336.355,0,.006.107-.111.206-.23.311-.343a19.929,19.929,0,0,1,1.563-1.443l.186-.152q-.208.157-.012.011c.157-.117.315-.231.476-.34q.448-.3.923-.563a2.4,2.4,0,0,0-2.422-4.144,17.2,17.2,0,0,0-3.9,3.02,41.618,41.618,0,0,0-3.318,4.252,103.036,103.036,0,0,0-6.62,9.455,2.4,2.4,0,1,0,4.144,2.423Z"/><path class="e" d="M36.9,141.983a64.324,64.324,0,0,1,4.021-6.191q.261-.353.526-.7c.109-.144.177-.227.026-.034l.27-.344q.576-.727,1.177-1.433,1.224-1.437,2.557-2.773a2.4,2.4,0,0,0-3.395-3.394,59.4,59.4,0,0,0-9.326,12.449,2.4,2.4,0,1,0,4.144,2.422Z"/><path class="e" d="M46.171,145.686c.538-.82,1.078-1.641,1.633-2.451q.4-.591.822-1.175c.14-.193.28-.386.422-.578.1-.134.637-.807.2-.275a29.321,29.321,0,0,1,4.032-4.228,2.408,2.408,0,0,0,0-3.394,2.467,2.467,0,0,0-3.394,0c-3.238,2.653-5.585,6.212-7.861,9.679a2.417,2.417,0,0,0,.861,3.283,2.455,2.455,0,0,0,3.284-.861Z"/><path class="e" d="M54.977,133.4a8.861,8.861,0,0,0,1.337-7.251,8.69,8.69,0,0,0-4.5-5.249c-4.3-2.328-9.025-3.016-13.831-3.482a2.417,2.417,0,0,0-2.4,2.4,2.452,2.452,0,0,0,2.4,2.4c1.008.1,2.015.2,3.02.329-.371-.048.42.061.414.06q.324.048.647.1c.469.077.936.162,1.4.259a26.315,26.315,0,0,1,2.6.672q.678.213,1.342.469a9.432,9.432,0,0,1,1.006.439q.682.327,1.34.7c.2.112.4.226.591.348.114.073.433.318.177.1.175.146.326.307.49.464.3.29-.028-.085.109.117.1.152.2.306.291.467.026.047.283.666.13.242a7.616,7.616,0,0,1,.307,1.128c-.1-.512,0,.093,0,.222,0,.07-.081.73.005.25a5.86,5.86,0,0,1-1.021,2.389,2.4,2.4,0,0,0,4.145,2.423Z"/><path class="e" d="M51.366,193.5c.932-4.043,1.17-8.235,1.912-12.315a2.436,2.436,0,0,0-1.677-2.952c-2.988-.534-6.025-.866-9.031-1.28q-8.067-1.112-16.14-2.176c-2.411-.316-4.824-.63-7.238-.922a2.4,2.4,0,0,0-2.315,1.762c-.893,3.91-1.645,7.851-2.574,11.753-.715,3,3.912,4.284,4.628,1.276.93-3.9,1.681-7.843,2.575-11.753l-2.314,1.762c9.285,1.123,18.423,2.4,27.689,3.7,1.147.162,2.3.3,3.444.5l-1.676-2.953c-.742,4.08-.98,8.272-1.911,12.315-.693,3.007,3.934,4.29,4.628,1.276Z"/><path class="e" d="M58.449,247c-5.506,6.73-12.424,12.668-20.6,15.876a35.147,35.147,0,0,1-11.37,2.521A37.975,37.975,0,0,1,15.029,263.7c-3.558-.931-6.218-3.73-7.929-6.834-2.167-3.93-2.537-8.09-2.208-12.492a204.644,204.644,0,0,1,4.125-27.853c2.027-9.391,4.763-18.6,7.554-27.79L14.256,190.5c12.178,1.215,24.258,3.314,36.35,5.161l-1.762-2.314c-.976,9.01-2.043,18.11-3.313,26.964-.4,2.809-.822,5.619-1.365,8.405a2.462,2.462,0,0,0,1.677,2.952,2.423,2.423,0,0,0,2.952-1.676c2.133-10.94,3.218-22.133,4.466-33.2q.195-1.722.383-3.445a2.388,2.388,0,0,0-1.762-2.314c-12.516-1.912-25.021-4.076-37.626-5.333a2.419,2.419,0,0,0-2.314,1.762c-2.627,8.648-5.211,17.315-7.19,26.138a224.941,224.941,0,0,0-4.6,29.982,27.548,27.548,0,0,0,1.911,13.929,19.8,19.8,0,0,0,8.464,9.541,28.185,28.185,0,0,0,6.427,2.176,34.873,34.873,0,0,0,6.427.95,37.053,37.053,0,0,0,12.682-1.607c10.25-3.109,19.058-9.964,25.777-18.175a2.471,2.471,0,0,0,0-3.394,2.42,2.42,0,0,0-3.4,0Z"/><path class="e" d="M152.981,157.478A63.251,63.251,0,0,1,164.3,164.8c3.186,2.518,6.858,5.636,9.085,8.652l.376-2.908c-3.6,4.17-7.41,8.292-10.63,12.767a2.433,2.433,0,0,0,.861,3.283c.615.408,1.233.812,1.836,1.239.88.624,1.406,1.326,2.344,1.966-.334-.228-.092-.233-.049-.058-.043-.173-.1-.321-.138-.5-.093-.483-.015.009-.018,0-.054-.084.167-.534-.021-.03a12.545,12.545,0,0,1-.889,1.713c-.33.541-.679,1.071-1.018,1.607-1.787,2.819-3.547,5.654-5.315,8.485-5.626,9.008-11.249,18.018-16.951,26.978-2.556,4.016-5.111,8.037-7.78,11.979-1.736,2.564,2.42,4.969,4.145,2.422,5.61-8.285,10.867-16.82,16.184-25.294,4.674-7.449,9.281-14.942,14-22.363,1.373-2.161,3.451-4.994,1.856-7.564-1.274-2.052-3.792-3.429-5.762-4.732l.861,3.283c.056-.077.131-.237.214-.289-.455.286-.077.1.1-.129q.443-.553.891-1.1,1.264-1.549,2.553-3.079,3.033-3.619,6.118-7.194a2.45,2.45,0,0,0,.375-2.908,51.982,51.982,0,0,0-9.836-9.624,69.075,69.075,0,0,0-12.29-8.075,2.462,2.462,0,0,0-3.284.861,2.423,2.423,0,0,0,.861,3.284Z"/><path class="e" d="M88.567,153.474a49.768,49.768,0,0,0-10.941,7.671,59.765,59.765,0,0,0-8.488,9.22,2.431,2.431,0,0,0,.375,2.908q3.084,3.577,6.119,7.194,1.24,1.482,2.467,2.975.461.563.914,1.13c.042.053.507.658.258.326-.233-.311.079.111.122.171l.861-3.284A25.63,25.63,0,0,0,75.1,185.74c-2.3,2.58-.608,5.419.962,7.9,1.666,2.628,3.25,5.309,4.857,7.973,5.786,9.593,11.546,19.2,17.429,28.735,2.638,4.276,5.271,8.566,8.087,12.728,1.722,2.544,5.883.145,4.145-2.423-5.394-7.971-10.3-16.29-15.289-24.517-4.732-7.805-9.385-15.659-14.162-23.436-.285-.463-.57-.926-.86-1.385-.328-.517-.662-1.03-.968-1.561a10.255,10.255,0,0,1-.528-1c.059.158-.062-.214-.053-.191-.146-.388-.07.077-.021-.06.093-.259-.033.239-.037.261-.038.225,0,.394-.027.185.021.178-.25.274,0,.041.11-.1.212-.214.321-.318a12.777,12.777,0,0,1,1.349-1.111c.772-.567,1.571-1.094,2.37-1.622a2.427,2.427,0,0,0,.861-3.284c-3.221-4.474-7.035-8.6-10.63-12.767l.375,2.909a54.229,54.229,0,0,1,7.737-8.248,44.975,44.975,0,0,1,9.97-6.921,2.425,2.425,0,0,0,.861-3.284,2.451,2.451,0,0,0-3.284-.861Z"/><path class="e" d="M114.6,120.339a19.4,19.4,0,0,0,9.349,2.163,15.2,15.2,0,0,0,9.428-2.778,2.413,2.413,0,0,0,0-3.394,2.463,2.463,0,0,0-3.395,0c.726-.565.156-.128-.031-.008s-.382.232-.579.335c-.164.086-.874.368-.221.126-.266.1-.528.2-.8.291a14.006,14.006,0,0,1-2.236.51c.351-.052-.085.006-.221.02-.219.021-.439.04-.659.054-.529.034-1.059.047-1.589.044-.475,0-.949-.019-1.423-.051-.217-.015-.434-.032-.651-.054-.019,0-.8-.11-.324-.035a16.05,16.05,0,0,1-2.088-.464c-.292-.087-.578-.192-.866-.291-.616-.211.344.179-.212-.083q-.537-.253-1.061-.53a2.453,2.453,0,0,0-3.284.861,2.427,2.427,0,0,0,.861,3.284Z"/><path class="e" d="M122.74,98.3a44,44,0,0,1,1.034,4.732l-.085-.638a2.852,2.852,0,0,1,.017.653l.086-.638a1.558,1.558,0,0,1-.072.294l.242-.574a1.19,1.19,0,0,1-.1.189l.375-.486a.975.975,0,0,1-.155.153l.486-.375a3.27,3.27,0,0,1-.375.2l.574-.242a2.741,2.741,0,0,1-.632.184l.638-.085a2.557,2.557,0,0,1-.593,0l.638.085c-.224-.031-.443-.085-.667-.115a1.812,1.812,0,0,0-.957-.043,1.774,1.774,0,0,0-.892.285,2.4,2.4,0,0,0-.861,3.283,2.3,2.3,0,0,0,1.434,1.1c.507.068,1,.2,1.514.22a4.843,4.843,0,0,0,2.227-.529,3.208,3.208,0,0,0,1.78-2.116,5.328,5.328,0,0,0-.022-2.283c-.258-1.524-.61-3.035-1-4.53A2.4,2.4,0,1,0,122.74,98.3Z"/><path class="e" d="M97.693,84.9c-.79,2.568-.275,8.476,4.59,8.979,6.431-.039,6.773-7.181,4.608-10.539C105.119,80.591,99.908,79.448,97.693,84.9Z"/><path class="e" d="M149.187,84.9c.79,2.568.275,8.475-4.59,8.978-6.43-.039-6.773-7.181-4.608-10.539C141.761,80.591,146.972,79.448,149.187,84.9Z"/></svg>