<?xml version="1.0" encoding="utf-8"?>
<!-- Uploaded to: SVG Repo, www.svgrepo.com, Generator: SVG Repo Mixer Tools -->
<svg width="800px" height="800px" viewBox="0 -68.72 426.724 426.724" xmlns="http://www.w3.org/2000/svg"><defs><style>.a{fill:#b5886a;}.b{fill:#f4b3b3;}.c{fill:#ffffff;}.d{fill:#211715;}.e{fill:#7a7473;}</style></defs><path class="a" d="M306.4,155.335c-6.777,1.773-11.785,3.431-11.785,3.431-13.171,2.794-22.1-6.248-22.028-14.493a84.8,84.8,0,0,1,2.608-18.26c2.029-7.246,3.478-20,3.475-37.68-.866-26.086,6-45,16.814-55.361C302,26.73,316.7,18.224,333.21,18.224a59.926,59.926,0,0,1,23.966,4.591l2.147.87,4.355,2.364c3.885,2.109,4.922,3.716,8.491,7.159,8.255,7.965,13.992,22.294,14.906,35.126.264,3.7.869,13.333.286,20,.293,22.028,4.354,34.358,6.451,40.426a40.315,40.315,0,0,1,2.545,13.8c.075,8.245-10.172,18.921-21.953,14.7,0,0-27.646-5.8-41.639-6.143C325.143,150.926,314.505,153.213,306.4,155.335Z"/><path class="b" d="M387.3,163.825a42.82,42.82,0,0,1,13.96,10.04c5.39,5.79,9.36,18.97,10.73,26.17,3.746,19.731,8.18,59.317,12.376,85.633a.986.986,0,0,1-.978,1.149c-25.227-.009-157.166.026-179.343.037a.989.989,0,0,1-.982-1.149c4.2-26.317,8.642-65.938,12.387-85.67,1.36-7.2,5.33-20.38,10.73-26.17a42.82,42.82,0,0,1,13.96-10.04l.8-.36c5.631-2.385,14.395-6.8,15.422-6.207a85.859,85.859,0,0,0,36.9,9.15c12.667.05,29.352-4.412,37.916-9.41.979-.627,10.582,4.555,16.124,6.823"/><path class="c" d="M292.053,85.237a6.225,6.225,0,0,0-4.982-1.457,5.877,5.877,0,0,0-4.227,2.81,8.306,8.306,0,0,0-.871,3.344,24.924,24.924,0,0,0,2.54,13.2,15.826,15.826,0,0,0,4.1,5.373c1.384,1.105,3.34,2.355,5.825,1.734l.464-.118a42.7,42.7,0,0,0,8.257,16.424,40.345,40.345,0,0,0,13.456,10.885,54.081,54.081,0,0,1-.821,6.893c-.5,2.87-.345,5.436-4.336,6.877-.264.095-12.886,6-13.654,6.261l-.611.208a85.965,85.965,0,0,0,36.075,8.732c12.494.05,28.9-4.291,37.556-9.2l-.852-.35c-.4-.167-11.721-5.551-11.985-5.646-3.991-1.441-3.833-4.007-4.336-6.877a58.15,58.15,0,0,1-.848-7.667c10.047-4.925,18.055-18.687,19.479-22.553.26-.791.839-2.405,1.28-4.258,1.783-.261,4.156-.26,5.509-1.34a15.824,15.824,0,0,0,4.094-5.373,24.9,24.9,0,0,0,2.54-13.2,8.321,8.321,0,0,0-.87-3.344,5.88,5.88,0,0,0-4.228-2.81,6.226,6.226,0,0,0-4.982,1.457c-6.984-2.131-15.409-13.3-18.1-18.353-1.884-3.532-3.933-11.191-5.557-16.6-7.721,10.056-17.534,17.181-29.721,20.662-2.9.862-.166-8.33.348-12.673-7.7,7.566-16.123,15.552-23.936,21.944Z"/><path class="d" d="M377.317,86.934a3.689,3.689,0,0,1,5.563,1.09,10.536,10.536,0,0,1,.507,4.314,21.553,21.553,0,0,1-.541,4.569,20.566,20.566,0,0,1-3.494,7.9,5.39,5.39,0,0,1-2.714,2.2,34.794,34.794,0,0,1-3.85.544,2.417,2.417,0,0,0-1.676,2.953,2.463,2.463,0,0,0,2.952,1.676,17.919,17.919,0,0,0,5.39-1.109,11.937,11.937,0,0,0,4.152-3.993,25.8,25.8,0,0,0,4.337-11.587c.52-3.954.664-9.108-2.572-12a8.686,8.686,0,0,0-11.448.05,2.419,2.419,0,0,0,0,3.394,2.451,2.451,0,0,0,3.394,0Z"/><path class="d" d="M371.72,105.912a20.837,20.837,0,0,1-1,5.228c-.2.655-.411,1.3-.631,1.953-.078.229-.486,1.209-.174.518a45.264,45.264,0,0,1-2.755,5.108,50.934,50.934,0,0,1-10.916,12.888,20.111,20.111,0,0,1-8.071,4.175c-3.008.7-1.735,5.327,1.276,4.629,6.317-1.467,11.582-6.061,15.71-10.86a56.431,56.431,0,0,0,8.779-13.244,28.284,28.284,0,0,0,2.581-10.395c.113-3.089-4.687-3.084-4.8,0Z"/><path class="d" d="M293.751,83.54a8.687,8.687,0,0,0-11.449-.05c-3.375,3.016-3.087,8.452-2.5,12.538,1.032,7.167,6.3,18.409,15.268,16.532,3.021-.632,1.742-5.26-1.276-4.628-2.239.468-4.371-1.637-5.583-3.276a21.082,21.082,0,0,1-3.479-8.178,21.555,21.555,0,0,1-.449-4.359,9.727,9.727,0,0,1,.571-4.206,3.691,3.691,0,0,1,5.5-.979,2.466,2.466,0,0,0,3.395,0,2.421,2.421,0,0,0,0-3.394Z"/><path class="d" d="M290.767,100.835a59.925,59.925,0,0,0,4.89,18.337,44.635,44.635,0,0,0,16,18.256A29.962,29.962,0,0,0,323.369,142a2.478,2.478,0,0,0,2.952-1.676,2.419,2.419,0,0,0-1.676-2.953c-6.99-1.046-12.891-5.068-17.667-10.122a41.269,41.269,0,0,1-9.917-18.333c-.386-1.5-.707-3.017-.973-4.543-.123-.7-.233-1.409-.336-2.116-.018-.123-.035-.246-.052-.368-.057-.412.042.324-.009-.07q-.064-.492-.124-.985a2.477,2.477,0,0,0-2.4-2.4,2.414,2.414,0,0,0-2.4,2.4Z"/><path class="d" d="M349.793,51.418c1.747,5.877,3.071,12.3,6.192,17.642a56.63,56.63,0,0,0,10.867,13.406,22.931,22.931,0,0,0,8.13,5.085c2.949.943,4.212-3.69,1.276-4.628-2.77-.885-5.473-3.231-7.654-5.408a56.591,56.591,0,0,1-6.564-7.9,31.532,31.532,0,0,1-3.905-7.411c-1.415-3.962-2.516-8.03-3.713-12.061-.878-2.954-5.512-1.7-4.629,1.276Z"/><path class="d" d="M350.244,48.63a58.529,58.529,0,0,1-15.727,14.376A51.484,51.484,0,0,1,325,67.55q-1.3.463-2.63.861c-.178.054-.8.121-.911.26.395-.5,1.542.352,1.818.693.019.024.242.582.091.18-.029-.077-.036-.323-.02-.009.019.372-.016-.374-.017-.451a13.31,13.31,0,0,1,.1-1.693c.3-2.736,1.183-6.105,1.558-9.114.27-2.167-2.745-3.025-4.1-1.7-7.722,7.581-15.563,15.078-23.935,21.944a2.417,2.417,0,0,0,0,3.394,2.454,2.454,0,0,0,3.394,0c8.372-6.866,16.213-14.363,23.936-21.944l-4.1-1.7c.054-.433-.076.485-.092.584-.06.365-.126.73-.193,1.094-.146.794-.3,1.585-.456,2.377-.314,1.633-.614,3.27-.8,4.924-.3,2.678.224,6.766,3.953,6.062a31.348,31.348,0,0,0,5.509-1.826,60.34,60.34,0,0,0,5.669-2.562,57.837,57.837,0,0,0,10.17-6.8,63.419,63.419,0,0,0,9.693-10.108,2.481,2.481,0,0,0,0-3.395,2.417,2.417,0,0,0-3.394,0Z"/><path class="d" d="M357.814,20.5a64.078,64.078,0,0,0-26.8-4.626,61.009,61.009,0,0,0-26.758,7.875,47.753,47.753,0,0,0-15.513,13.36,60.521,60.521,0,0,0-9.2,19.852,105.883,105.883,0,0,0-3.268,31.372c.1,3.081,4.9,3.095,4.8,0-.5-15.793,1.432-32.858,10.182-46.431a40.724,40.724,0,0,1,12.887-12.511A56.976,56.976,0,0,1,327.973,20.9a59.636,59.636,0,0,1,28.565,4.225,2.417,2.417,0,0,0,2.952-1.676,2.46,2.46,0,0,0-1.676-2.953Z"/><path class="d" d="M389.761,88.333a109.168,109.168,0,0,0,.062-14.069,96.715,96.715,0,0,0-1.163-12.417,60.188,60.188,0,0,0-11.707-26.924,73.77,73.77,0,0,0-5.477-5.791,29.323,29.323,0,0,0-5.717-4.664c-2.655-1.593-5.071,2.556-2.422,4.145a23,23,0,0,1,4.491,3.656c1.576,1.586,3.226,3.112,4.693,4.8a46.484,46.484,0,0,1,6.98,11.252,61.365,61.365,0,0,1,4.272,13.424,78.527,78.527,0,0,1,1.2,11.482,112.965,112.965,0,0,1-.012,15.105,2.42,2.42,0,0,0,2.4,2.4,2.449,2.449,0,0,0,2.4-2.4Z"/><path class="d" d="M276.271,88.333c-.009,11.58-.222,23.553-2.841,34.865a125.165,125.165,0,0,0-2.935,15.958,28.916,28.916,0,0,0-.042,7.933,15.932,15.932,0,0,0,2.912,6.577,20.458,20.458,0,0,0,16.966,8.007c3.086-.046,3.095-4.846,0-4.8a15.76,15.76,0,0,1-12.821-5.629c-2.974-3.8-2.663-7.787-2.177-12.464a122.3,122.3,0,0,1,2.779-14.539,108.376,108.376,0,0,0,2.065-14.049c.669-7.265.888-14.567.894-21.859,0-3.089-4.8-3.094-4.8,0Z"/><path class="d" d="M384.961,88.333c.171,11.7,1.348,23.518,4.549,34.809,1.164,4.105,2.815,8.082,3.706,12.26a33,33,0,0,1,.663,4.869,17.608,17.608,0,0,1-.08,4.019,13.428,13.428,0,0,1-2.946,5.959c-3.968,4.709-9.91,6.734-15.811,4.692-2.925-1.012-4.182,3.623-1.276,4.628a18.571,18.571,0,0,0,17.882-3.389,18.359,18.359,0,0,0,7.084-14.782,42.952,42.952,0,0,0-1.949-11.276c-.57-1.838-1.235-3.645-1.814-5.481a103.922,103.922,0,0,1-3.145-12.865,144.549,144.549,0,0,1-2.063-23.443c-.045-3.086-4.845-3.095-4.8,0Z"/><path class="d" d="M314.172,138.1a53.609,53.609,0,0,1-.665,5.4,32,32,0,0,1-.593,3.318c-.046.161-.326.824-.1.361-.1.212-.222.409-.341.612-.178.3.246-.254,0,.009-.075.078-.145.16-.222.236a3.553,3.553,0,0,1-.335.3c.261-.2-.123.061-.221.117-.585.336-1.186.552-1.824.842-3.163,1.438-6.3,2.924-9.46,4.376q-1.223.563-2.448,1.118c-.291.132-.584.26-.875.391-.572.258.585-.215.074-.033a2.462,2.462,0,0,0-1.676,2.953,2.422,2.422,0,0,0,2.952,1.676c1.279-.458,2.516-1.1,3.748-1.663q2.911-1.335,5.815-2.687,2.145-.994,4.292-1.986a3.461,3.461,0,0,0,.345-.156s-.893.358-.4.174c.242-.09.481-.193.719-.295a9.093,9.093,0,0,0,1.269-.632,7.5,7.5,0,0,0,3.053-3.686,17.491,17.491,0,0,0,.784-3.663c.388-2.353.744-4.7.906-7.086a2.4,2.4,0,1,0-4.8,0Z"/><path class="d" d="M350.415,137.044A74.439,74.439,0,0,0,351.7,147.26a8.059,8.059,0,0,0,5.338,6.145c.843.335-.635-.313-.037-.023.21.1.424.2.636.3q1,.47,2,.943,2.707,1.278,5.414,2.561c1.231.583,2.452,1.209,3.706,1.743a2.482,2.482,0,0,0,3.284-.861,2.417,2.417,0,0,0-.861-3.284c-2.659-1.133-5.245-2.471-7.857-3.707-1.268-.6-2.531-1.212-3.808-1.793a16.063,16.063,0,0,1-1.92-.909c.006,0-.337-.236-.165-.1s-.172-.161-.208-.194c-.082-.076-.158-.158-.233-.24.061.066.235.365-.016-.02-.113-.174-.208-.355-.308-.536.231.42-.074-.218-.121-.38a31.681,31.681,0,0,1-.68-3.779,54.054,54.054,0,0,1-.648-6.075,2.452,2.452,0,0,0-2.4-2.4,2.423,2.423,0,0,0-2.4,2.4Z"/><path class="d" d="M386.092,165.9a39.981,39.981,0,0,1,14.033,10.3c3.1,3.68,5.008,8.713,6.553,13.274,2.98,8.794,4.264,18.009,5.623,27.161,3.347,22.531,5.926,45.172,9.439,67.679a5.774,5.774,0,0,0,.263,1.668l1.292-1.559h-.2c-.1-.015-.2.007-.3,0-.407-.028-.827,0-1.235,0h-28.19q-24.366,0-48.73.009l-51.463.012-39.593.012-6.212,0H244.94a2.513,2.513,0,0,0-.459,0c-.07.014-.2-.032-.263,0-.8.4,1.8,1.134,1.215,1.559.235-.172.266-1.688.315-2.006q.161-1.026.317-2.053c1.749-11.467,3.274-22.968,4.814-34.464,1.482-11.069,2.939-22.144,4.615-33.186,1.4-9.239,2.838-18.45,6.124-27.245,1.726-4.619,3.875-9.147,7.36-12.632a45.519,45.519,0,0,1,14.358-9.4c4.21-1.842,8.318-3.975,12.691-5.4.616-.2-.374-.059.118-.021-1.418-.11-1.125-.337-.365.048q.321.163.644.322c1.428.7,2.883,1.348,4.35,1.963a88.045,88.045,0,0,0,8.95,3.2,87.292,87.292,0,0,0,19.732,3.551,76.544,76.544,0,0,0,18.2-1.309,93.564,93.564,0,0,0,16.825-4.642,57.865,57.865,0,0,0,7.154-3.24c.05-.027.752-.43.754-.427.031.044-1.3.3-.941.275s-.567-.236-.195-.021a2.414,2.414,0,0,0,.436.118,18.951,18.951,0,0,1,1.906.719c4.4,1.9,8.638,4.145,13.069,5.974a2.415,2.415,0,0,0,2.952-1.677,2.461,2.461,0,0,0-1.676-2.952c-4.322-1.783-8.833-4.247-13.324-6.082-1.577-.645-3.141-1.261-4.773-.428a69.111,69.111,0,0,1-6.638,3.112c-11.266,4.335-23.7,6.683-35.773,5.632a84.207,84.207,0,0,1-19.684-4.267,74.747,74.747,0,0,1-8.244-3.323c-1.047-.5-2.169-1.314-3.36-1.345a6.962,6.962,0,0,0-2.315.469c-4.833,1.625-9.437,4.071-14.1,6.118a46.143,46.143,0,0,0-14.971,10.487c-3.68,3.881-5.92,8.953-7.769,13.9A86.044,86.044,0,0,0,253,200.146c-1.848,9.934-3.2,19.964-4.577,29.973-1.641,11.972-3.195,23.956-4.863,35.924-.783,5.624-1.59,11.246-2.464,16.857-.232,1.487-.789,3.174-.025,4.584a3.6,3.6,0,0,0,3.28,1.77c.778.026,1.563,0,2.342,0q17.179-.007,34.36-.011l51.23-.014,51.812-.01q18.115,0,36.231,0c.859,0,1.718.014,2.576,0a3.868,3.868,0,0,0,2.944-1.049c1.312-1.389.841-3.115.577-4.8-.865-5.524-1.662-11.058-2.436-16.595-1.671-11.963-3.224-23.942-4.86-35.91-1.378-10.087-2.743-20.192-4.582-30.208a88.37,88.37,0,0,0-3.84-14.185c-1.8-4.967-3.985-10.119-7.555-14.1a44.678,44.678,0,0,0-14.633-10.62,2.472,2.472,0,0,0-3.284.861,2.419,2.419,0,0,0,.861,3.284Z"/><path class="d" d="M391.583,199c-.5,10.244-1.821,20.489-2.821,30.692-.576,5.887-1.158,11.775-1.7,17.666-.27,2.941-.841,6.072-.642,9.032.387,5.78,1.309,11.564,2.128,17.294.36,2.524.735,5.045,1.105,7.567.288,1.969.568,3.869.777,5.569a2.477,2.477,0,0,0,2.4,2.4,2.414,2.414,0,0,0,2.4-2.4c-1.1-8.878-2.645-17.692-3.621-26.587a32.692,32.692,0,0,1-.345-5.763c.118-1.783.278-3.563.437-5.342,1.076-12.04,2.333-24.064,3.478-36.1.444-4.666.975-9.346,1.2-14.029.15-3.088-4.651-3.081-4.8,0Z"/><path class="d" d="M271.063,199c.5,10.244,1.822,20.489,2.821,30.692.577,5.887,1.158,11.775,1.7,17.666.27,2.941.84,6.072.642,9.032-.683,10.214-2.764,20.312-4.021,30.46a2.414,2.414,0,0,0,2.4,2.4,2.459,2.459,0,0,0,2.4-2.4c.185-1.491.4-2.989.656-4.72.322-2.2.651-4.4.97-6.6.74-5.086,1.445-10.178,2.006-15.286a32.783,32.783,0,0,0,.345-5.771c-.118-1.783-.279-3.563-.438-5.342-1.076-12.04-2.332-24.064-3.477-36.1-.444-4.666-.975-9.346-1.2-14.029-.148-3.075-4.949-3.093-4.8,0Z"/><path class="d" d="M312.573,88.4c-.679,2.206-.237,7.279,3.941,7.71,5.522-.033,5.816-6.166,3.957-9.05C318.949,84.7,314.474,83.717,312.573,88.4Z"/><path class="d" d="M356.791,88.4c.679,2.2.237,7.278-3.941,7.709-5.522-.033-5.816-6.166-3.957-9.05C350.415,84.7,354.89,83.717,356.791,88.4Z"/><path class="d" d="M364.707,105.185a77.53,77.53,0,0,1,4.735-8.511,64.743,64.743,0,0,1,7.387-9.927c2.1-2.258-1.283-5.66-3.394-3.394a71.279,71.279,0,0,0-7.985,10.654,77.91,77.91,0,0,0-4.887,8.755,2.47,2.47,0,0,0,.861,3.284,2.42,2.42,0,0,0,3.283-.861Z"/><path class="d" d="M308.869,102.148A93.369,93.369,0,0,0,302.8,93.44a76.791,76.791,0,0,0-8.342-9.731,2.4,2.4,0,0,0-3.394,3.394,72.545,72.545,0,0,1,7.744,8.962,92.735,92.735,0,0,1,5.916,8.5c1.576,2.654,5.728.242,4.144-2.422Z"/><path class="c" d="M334.316,99.772a213.192,213.192,0,0,0-23.578,1.987c-1.238.169-4.3.449-5.1,1.358-1.5,1.691-.931,5.3-1.125,7.35a52.356,52.356,0,0,0,.292,9.835c.449,4.323.667,8.929,3.63,12.3,5.477,6.233,18.17,9.552,26.509,9.552a50.432,50.432,0,0,0,16.316-2.955c4.548-1.63,8.8-4.365,11.179-8.3,2.244-3.708,2.156-7.425,2.638-11.649a43.8,43.8,0,0,0,.173-8.947c-.2-2.045.316-5.386-1.2-7.1-.806-.909-3.329-1.277-4.568-1.438A223.836,223.836,0,0,0,334.316,99.772Z"/><path class="d" d="M334.316,97.372A165.9,165.9,0,0,0,316.009,98.7c-3.019.343-5.487.564-8.315,1.085a8.123,8.123,0,0,0-3.134,1.125,5.873,5.873,0,0,0-2.2,4.094,30.568,30.568,0,0,0-.2,4.321c-.017,1.561-.192,3.11-.173,4.675a88.471,88.471,0,0,0,.845,10.265c.44,3.378,1.247,6.678,3.4,9.406a21.229,21.229,0,0,0,6.2,5.082c10.992,6.29,24.613,7.178,36.62,3.681,6.249-1.82,12.752-5.067,15.893-11.09,1.622-3.109,2-6.51,2.321-9.951a61.709,61.709,0,0,0,.424-10.68c-.25-3.09.4-6.991-2.1-9.358-2.235-2.114-6.382-2.037-9.231-2.374a191.128,191.128,0,0,0-22.034-1.612c-3.089-.007-3.093,4.793,0,4.8a174.859,174.859,0,0,1,17.492,1.108c2.706.279,6.025.6,8.229.984a12.585,12.585,0,0,1,1.709.389c-.073-.023.424.139.271.073.167.072.52.458.33.181a5.8,5.8,0,0,1,.429,2.749c.055,2.875.312,5.728.151,8.607a64.692,64.692,0,0,1-.973,9.162c-1.16,5.7-5.718,9.364-10.968,11.326a44.265,44.265,0,0,1-32.621-.407c-4.316-1.794-8.794-4.46-10.136-9.221a46.036,46.036,0,0,1-1.179-8.362,79.454,79.454,0,0,1-.1-9.129,32.414,32.414,0,0,1,.081-3.676c.053-.381.283-.959.3-1.142l-.18.121c.235-.12.264-.146.085-.076.326-.094.642-.2.973-.285a64.385,64.385,0,0,1,7.422-1.028,167.624,167.624,0,0,1,18.685-1.374C337.4,102.164,337.41,97.364,334.316,97.372Z"/><path class="c" d="M46.144,156.954c6.654-2.716,12.783-5.394,19.371-8.209a1.839,1.839,0,0,1,1.808.191c7.5,6.307,21.006,10.1,35.819,10.141,13,.033,30.473-4.952,37.655-10.145a1.843,1.843,0,0,1,1.8-.187c6.587,2.815,12.716,5.493,19.371,8.209a66.476,66.476,0,0,1,14.789,9.052,32.281,32.281,0,0,1,9.45,12.546c7.454,18.92,16.126,78.6,19.514,107.186a.993.993,0,0,1-.992,1.111c-22.116,0-181.838.021-201.341.03a.99.99,0,0,1-.984-1.126c3.686-27.741,12.043-88.284,19.5-107.2a32.281,32.281,0,0,1,9.45-12.546,66.46,66.46,0,0,1,14.79-9.052"/><path class="c" d="M77.288,60.354c5.226-4.887,10.585-9.726,15.071-13.151.937-.716,2.227.214,2.293,1.467.153,2.937.383,7.576.831,7.564,4.725-.134,15.622-5.905,22.684-10.729l9.743,2.161c6.235,2.666,12.4,10,14.714,13.868a35.792,35.792,0,0,1,5.2,16.526,6.51,6.51,0,0,1,5.858-2.123,6.282,6.282,0,0,1,4.515,3,8.889,8.889,0,0,1,.93,3.572,26.619,26.619,0,0,1-2.713,14.1,16.915,16.915,0,0,1-4.374,5.739,5.1,5.1,0,0,1-5.112,1.2l-.67-.2a48.105,48.105,0,0,1-1.469,4.987c-1.419,3.853-8.96,16.909-18.68,22.916.151,2.03.415,4.053.766,6.068.52,2.987.36,5.655,4.513,7.156.188.068,5.8,2.726,9.406,4.459-7.182,5.193-24.655,10.178-37.655,10.145-14.813-.037-28.324-3.834-35.819-10.141a1.672,1.672,0,0,0-.239-.147l.857-.394c3.89-1.789,8.339-3.866,8.5-3.922,4.154-1.5,3.986-4.169,4.513-7.156a58.144,58.144,0,0,0,.782-6.042,46.53,46.53,0,0,1-10.772-9.652,52.265,52.265,0,0,1-9.624-17.709c-.6.159-.991.262-.991.262-2.429.653-4.284-.642-5.763-1.822a16.9,16.9,0,0,1-4.373-5.739,26.61,26.61,0,0,1-2.713-14.1,8.872,8.872,0,0,1,.93-3.572,6.278,6.278,0,0,1,4.515-3,6.653,6.653,0,0,1,5.322,1.557L64.6,72.332C68.287,68.9,72.737,64.61,77.288,60.354Z"/><path class="e" d="M93.771,7.517l.448.007c-1.234-.606-5.476-2.136-6.046-3.075,2.658-1.819,8.369-2.111,11.588-2.031,13.358.33,29.809,2.507,36.742,16.729l5.926,4.519c5.52,2.49,11.181,12.409,13.041,18.669,2.821,9.483,3.23,25.192.677,34.511a6.515,6.515,0,0,0-8.32,1.214,35.792,35.792,0,0,0-5.2-16.526c-2.314-3.867-8.479-11.2-14.714-13.868l-9.743-2.161c-7.062,4.824-17.959,10.6-22.684,10.729-.448.012-.678-4.627-.831-7.564-.066-1.253-1.356-2.183-2.293-1.467C83.967,53.611,72.52,64.964,64.6,72.332l-6.336,5.162a6.653,6.653,0,0,0-5.322-1.557,6.275,6.275,0,0,0-1.146.284c-3.464-4.1-3.551-21.407-1.318-30.675A44,44,0,0,1,64.485,22.929c-.871.038-5.013.4-5.162-.16s7.373-9.516,18.4-12.754A49.289,49.289,0,0,1,93.771,7.517Z"/><path class="d" d="M163.7,285.735l.241-.57,4.387.573c.218,1.152.094.424.119-.01.033-.583.069-1.167.1-1.751q.186-3.09.38-6.18.623-10.07,1.256-20.139,1.451-23.169,2.9-46.338c.256-4.11.539-8.219.759-12.331.165-3.086-4.635-3.077-4.8,0-.561,10.474-1.3,20.94-1.954,31.408q-1.434,22.878-2.863,45.754-.232,3.726-.459,7.452a14.169,14.169,0,0,0-.075,3.411c.372,1.965,3.523,2.4,4.387.574,0-.008.241-.57.242-.577a2.467,2.467,0,0,0-1.676-2.952,2.42,2.42,0,0,0-2.952,1.676Z"/><path class="d" d="M39.809,287.011c0,.007.239.569.243.577.859,1.817,4.012,1.4,4.386-.574a11.7,11.7,0,0,0-.041-2.859q-.181-3.021-.371-6.043Q43.4,268.005,42.765,257.9q-1.458-23.289-2.918-46.578c-.257-4.11-.539-8.219-.76-12.331-.164-3.072-4.965-3.092-4.8,0,.557,10.392,1.287,20.777,1.939,31.163q1.431,22.829,2.857,45.656.237,3.8.469,7.6.066,1.084.13,2.168c.025.444-.1,1.38.128.164l4.386-.573.241.57a2.42,2.42,0,0,0-2.952-1.677,2.456,2.456,0,0,0-1.676,2.953Z"/><path class="d" d="M150.06,79.191a4.165,4.165,0,0,1,5.882.652,7.4,7.4,0,0,1,.868,3.982,23.285,23.285,0,0,1-.3,4.827,24.17,24.17,0,0,1-3.239,8.673c-1.19,1.9-3.179,4.59-5.7,3.911-2.986-.8-4.26,3.825-1.276,4.628,4.548,1.225,8.089-1.76,10.569-5.278a27.811,27.811,0,0,0,4.56-12.6c.491-4.044.552-9.368-2.8-12.277a9.107,9.107,0,0,0-11.955.087,2.42,2.42,0,0,0,0,3.394,2.451,2.451,0,0,0,3.394,0Z"/><path class="d" d="M144.361,99.577a22.6,22.6,0,0,1-1.112,5.756c-.2.662-.418,1.32-.641,1.975-.063.184-.13.367-.192.551-.208.616.095-.182-.041.107a53.356,53.356,0,0,1-2.951,5.445,54.438,54.438,0,0,1-11.684,13.762,21.584,21.584,0,0,1-8.649,4.466c-3.008.7-1.735,5.325,1.276,4.628,6.7-1.551,12.281-6.423,16.663-11.5a60.363,60.363,0,0,0,9.365-14.095,29.981,29.981,0,0,0,2.766-11.09c.111-3.089-4.689-3.085-4.8,0Z"/><path class="d" d="M59.962,75.8a9.112,9.112,0,0,0-12.1.033c-3.352,3.089-3.144,8.55-2.589,12.694A27.248,27.248,0,0,0,50,100.913c2.549,3.484,6.42,6.609,10.983,5.577,3.011-.681,1.737-5.31-1.276-4.629-2.416.546-4.84-2.266-6.027-4.029A23.647,23.647,0,0,1,50.2,89.085a23.13,23.13,0,0,1-.391-4.6,9.325,9.325,0,0,1,.7-4.333,4.119,4.119,0,0,1,6.068-.959,2.464,2.464,0,0,0,3.394,0,2.421,2.421,0,0,0,0-3.394Z"/><path class="d" d="M56.95,94.96c1.891,15.2,10.423,30.091,23.512,38.349A31.693,31.693,0,0,0,92.6,137.966a2.478,2.478,0,0,0,2.952-1.676,2.419,2.419,0,0,0-1.676-2.953c-7.267-1.084-13.458-5.186-18.494-10.385a49.93,49.93,0,0,1-11.638-19.4q-.76-2.358-1.3-4.78Q62.2,97.691,62,96.6q-.087-.5-.164-1-.029-.18-.054-.36a1.64,1.64,0,0,1-.036-.274,2.476,2.476,0,0,0-2.4-2.4,2.415,2.415,0,0,0-2.4,2.4Z"/><path class="d" d="M118.106,42.629a98.6,98.6,0,0,1-12.333,7.409,55.975,55.975,0,0,1-5.8,2.613,27.633,27.633,0,0,1-2.659.859c-.386.1-.773.18-1.163.26-.255.053-.4.158-.1.023-.256.115-.76-.155.016.11l1.059.617c.114.125.4.857.465.744.034-.06-.077-.252-.079-.335a2.429,2.429,0,0,0-.055-.314c.01.06.04.313,0,0-.1-.808-.157-1.626-.212-2.439-.11-1.619.079-3.569-.555-5.077a3.938,3.938,0,0,0-4.713-2.369c-1.555.482-3.041,2.106-4.285,3.131-5.667,4.669-11.009,9.73-16.337,14.777-2.816,2.669-5.62,5.35-8.459,7.994-2.265,2.11,1.135,5.5,3.4,3.394,8.12-7.562,15.963-15.458,24.516-22.541q.686-.567,1.38-1.127c.294-.236,1.236-.744,1.339-1.058-.093.282-1.323-.2-1.265-.312a6.882,6.882,0,0,0,.115,2.1c.067,1.13.136,2.262.265,3.387a7.147,7.147,0,0,0,.67,2.9c1.213,2.006,4.083,1.12,5.9.585a46.477,46.477,0,0,0,6.391-2.524,95.1,95.1,0,0,0,14.918-8.666,2.467,2.467,0,0,0,.861-3.284,2.421,2.421,0,0,0-3.284-.861Z"/><path class="d" d="M126.7,49.738c5.015,2.21,9.24,6.477,12.421,10.863a33.34,33.34,0,0,1,6.294,17.213,2.456,2.456,0,0,0,2.4,2.4,2.421,2.421,0,0,0,2.4-2.4,37.922,37.922,0,0,0-6.949-19.636c-3.643-5.021-8.381-10.046-14.143-12.585a2.478,2.478,0,0,0-3.284.861,2.418,2.418,0,0,0,.861,3.284Z"/><path class="d" d="M138.575,17.936c-3.522-6.505-10.145-10.62-16.8-13.36A61.925,61.925,0,0,0,99.487.012C95.432-.057,90.474.1,86.962,2.376A2.424,2.424,0,0,0,86.1,5.66a7.953,7.953,0,0,0,3.361,2.4c1.281.587,2.582,1.076,3.546,1.536l1.211-4.472C85.607,5,76.467,6.88,68.962,11.222A43.837,43.837,0,0,0,60.7,17.428c-1.279,1.221-3.157,2.822-3.669,4.593-.642,2.223,1.414,3.293,3.248,3.433a33.413,33.413,0,0,0,4.208-.125l-1.7-4.1A45.674,45.674,0,0,0,48.57,43.37c-2.027,7.071-2.346,14.908-1.833,22.21a30.875,30.875,0,0,0,2.146,10.468,2.418,2.418,0,0,0,3.284.861,2.461,2.461,0,0,0,.861-3.284c.193.433-.069-.181-.119-.321-.093-.258-.177-.518-.255-.779-.2-.668-.361-1.347-.5-2.03a35.124,35.124,0,0,1-.569-4.246,75.657,75.657,0,0,1-.071-10.625,44.6,44.6,0,0,1,5.86-20.551,40.463,40.463,0,0,1,8.806-10.447c1.588-1.33.3-4.2-1.7-4.1-.771.039-1.54.1-2.312.129-.439.017-.879.03-1.319.021a3.662,3.662,0,0,0-.684-.032l.269.039q-.912-.231.957.872l.327,1.211a2.367,2.367,0,0,1-.248.976,1.139,1.139,0,0,0,.173-.279c.017-.108.515-.662-.028.014.092-.114.181-.23.277-.341q1-1.168,2.1-2.231a38.317,38.317,0,0,1,7.383-5.541c6.793-3.93,15.047-5.559,22.834-5.443,2.274.034,3.412-3.423,1.211-4.472-1.046-.5-2.018-.86-3-1.29-.534-.236-1.067-.477-1.585-.747-.223-.117-.439-.244-.659-.368-.54-.305-.229-.2.055.19l-.861,3.284c2.555-1.656,6.248-1.7,9.218-1.714a53.593,53.593,0,0,1,9.782.9c6.808,1.234,13.63,3.469,19.355,7.44a21.177,21.177,0,0,1,6.69,7.213c1.472,2.718,5.618.3,4.145-2.422Z"/><path class="d" d="M141.217,25.738c2.957,1.656,5.106,4.588,6.906,7.387a53.592,53.592,0,0,1,5.086,9.988c2.552,6.766,2.778,14.426,2.364,21.565A56.869,56.869,0,0,1,153.836,76.2c-.805,2.987,3.824,4.261,4.628,1.277a69.262,69.262,0,0,0,1.785-23.608A46.684,46.684,0,0,0,158.1,42.553a56.751,56.751,0,0,0-5.413-11.189c-2.306-3.718-5.153-7.591-9.045-9.771-2.7-1.511-5.121,2.634-2.423,4.145Z"/><path class="d" d="M69.152,150.467q3.432-1.578,6.856-3.17c.527-.244,1.082-.459,1.595-.731-1.165.617.025.006.29-.106.335-.142.669-.284.989-.457a8.732,8.732,0,0,0,1.6-1.13,8.613,8.613,0,0,0,2.542-5.36c.426-2.743.9-5.472,1.112-8.242a2.421,2.421,0,0,0-2.4-2.4,2.447,2.447,0,0,0-2.4,2.4c-.18,2.358-.576,4.622-.94,6.966a12.564,12.564,0,0,1-.551,2.329c.2-.558.013-.054-.059.077-.034.061-.417.629-.217.369s-.284.28-.33.33c-.311.348.279-.139-.176.152a32.448,32.448,0,0,1-3.851,1.832q-3.24,1.5-6.481,3a2.418,2.418,0,0,0-.861,3.283,2.455,2.455,0,0,0,3.283.861Z"/><path class="d" d="M123.712,131.255a80.811,80.811,0,0,0,1.237,9.108,7.944,7.944,0,0,0,4.423,5.852c.167.079,1.328.394,1.381.573,0,.007-.8-.362-.395-.163.208.1.422.195.633.293q1.339.627,2.676,1.26,3.314,1.565,6.625,3.136a2.466,2.466,0,0,0,3.283-.861,2.421,2.421,0,0,0-.861-3.284c-3.359-1.592-6.695-3.259-10.1-4.762a11.328,11.328,0,0,1-1.516-.7c-.137-.082-.271-.168-.4-.26q.273.225-.036-.038c-.148-.146-.291-.288-.433-.441.367.4-.11-.185-.177-.306s-.118-.222-.171-.336c.1.259.126.305.063.14a10.23,10.23,0,0,1-.369-1.379,69.577,69.577,0,0,1-1.065-7.832,2.46,2.46,0,0,0-2.4-2.4,2.418,2.418,0,0,0-2.4,2.4Z"/><path class="d" d="M46.782,159.268c3.878-1.585,7.736-3.218,11.587-4.867q2.955-1.265,5.906-2.535l1.333-.571c.131-.056.59-.173.67-.286.066-.095-1.211.41-.219-.1-.175.089-.252-.179.038.11a4,4,0,0,0,.364.285c.407.32.818.634,1.238.937,5.234,3.772,11.623,5.988,17.876,7.363a82.122,82.122,0,0,0,42.35-2.248,72.574,72.574,0,0,0,8.8-3.368,38.36,38.36,0,0,0,3.557-1.857,15.117,15.117,0,0,0,1.323-.845c.106-.08.576-.3.253-.3a6.534,6.534,0,0,1,1.315.589c3.786,1.623,7.567,3.256,11.361,4.859,3.718,1.57,7.471,3.029,11.023,4.956,5.858,3.178,11.826,7.22,15.564,12.845a41.806,41.806,0,0,1,5.154,12.172c2.8,9.795,4.767,19.842,6.623,29.852,2.213,11.934,4.138,23.922,5.916,35.929,1.559,10.533,2.983,20.923,4.262,31.48q.088.734.176,1.467a1.946,1.946,0,0,0,.043.359l.014.119q.081,1.083,1.353-1.17c-.076-.023-.173.014-.251,0a6.276,6.276,0,0,0-1.026,0h-9.154l-18.983,0-24.565,0-28.2,0-29.4,0-28.711,0-25.578,0-20.51,0-13.081,0H4.154a2.036,2.036,0,0,0-.413,0c-.055.012-.143-.025-.194,0-.266.129-1.505-1.328.584.637,1.126,1.059.537.783.723.3a14.979,14.979,0,0,0,.413-3.1c.149-1.112.227-1.69.4-2.946Q6.7,271.7,7.786,264.03c1.669-11.764,3.432-23.514,5.386-35.234,1.843-11.052,3.81-22.1,6.319-33.024,2.094-9.117,4.064-18.739,10.8-25.6,4.723-4.81,10.973-8.376,17.061-11.145a2.417,2.417,0,0,0,.861-3.283,2.456,2.456,0,0,0-3.283-.861,67.8,67.8,0,0,0-9.649,5.3,51.653,51.653,0,0,0-8.526,6.744,37.272,37.272,0,0,0-8.517,14.826c-2.942,9.221-4.8,18.814-6.6,28.309-2.282,12.02-4.234,24.1-6.065,36.2q-2.5,16.488-4.7,33.018-.255,1.888-.507,3.778A10.357,10.357,0,0,0,.1,286.683c.546,2.17,2.514,2.6,4.425,2.6H9.8l16.978,0,23.621,0,27.949,0,29.962,0,29.659,0,27.041,0,22.108,0,14.859,0c.776,0,1.553.016,2.329,0a3.682,3.682,0,0,0,3.25-1.521c.821-1.277.5-2.649.326-4.054q-.93-7.671-1.971-15.329-2.424-18.011-5.349-35.952c-1.911-11.636-3.97-23.261-6.538-34.772-1.007-4.517-2.089-9.024-3.4-13.464a43.036,43.036,0,0,0-6.159-13.5c-4.256-5.842-10.513-10.22-16.837-13.6-3.653-1.952-7.513-3.43-11.322-5.041-3.872-1.638-7.73-3.308-11.595-4.963-2.1-.9-3.652-1.182-5.628.158a30.35,30.35,0,0,1-3.236,1.885,56.843,56.843,0,0,1-8.121,3.285,84.792,84.792,0,0,1-20.185,4.132,72.191,72.191,0,0,1-22.082-1.861,51.215,51.215,0,0,1-9.527-3.209,37.669,37.669,0,0,1-4.068-2.184c-1.168-.726-2.182-1.656-3.326-2.4-2.049-1.326-4.04-.274-6.018.574l-5.7,2.447c-3.759,1.612-7.524,3.208-11.31,4.756a2.477,2.477,0,0,0-1.676,2.952,2.414,2.414,0,0,0,2.952,1.676Z"/><path class="d" d="M81.073,81.749c-.714,2.32-.248,7.658,4.147,8.112,5.81-.035,6.119-6.488,4.163-9.522C87.782,77.855,83.074,76.822,81.073,81.749Z"/><path class="d" d="M127.4,81.749c.714,2.321.249,7.658-4.146,8.112-5.81-.035-6.119-6.488-4.163-9.522C120.7,77.855,125.4,76.822,127.4,81.749Z"/><path class="d" d="M135.856,99.924a90.822,90.822,0,0,1,5.429-9.755,73.382,73.382,0,0,1,8.358-11.348c2.1-2.258-1.283-5.66-3.394-3.394a79.217,79.217,0,0,0-8.938,12.047,91.465,91.465,0,0,0-5.6,10.027,2.471,2.471,0,0,0,.861,3.284,2.421,2.421,0,0,0,3.284-.861Z"/><path class="d" d="M74.99,96.831c-4.2-7.118-8.554-14.409-14.2-20.5-2.1-2.271-5.493,1.13-3.394,3.394C62.747,85.5,66.844,92.48,70.845,99.254c1.57,2.658,5.721.246,4.145-2.423Z"/><path class="c" d="M103.2,93.864c-6.791,0-17.928,1.309-25.659,2.434-1.348.2-4.685.49-5.565,1.481-1.635,1.843-1.014,5.777-1.226,8.011a57.115,57.115,0,0,0,.318,10.722c.49,4.711.728,9.733,3.958,13.408,5.97,6.794,19.806,10.412,28.9,10.412a54.953,54.953,0,0,0,17.785-3.221c4.957-1.777,9.592-4.758,12.186-9.044,2.446-4.042,2.35-8.093,2.875-12.7a47.72,47.72,0,0,0,.188-9.753c-.223-2.229.345-5.87-1.31-7.736-.879-.99-3.629-1.387-4.979-1.568C122.171,95.173,110.741,93.864,103.2,93.864Z"/><path class="d" d="M103.2,91.464a162.75,162.75,0,0,0-20.129,1.679q-2.565.328-5.126.691l-1.042.15c.5-.071-.323.042-.461.06-.781.1-1.564.2-2.338.351a7,7,0,0,0-3.914,1.8,7.74,7.74,0,0,0-1.693,4.593c-.158,1.484-.044,2.973-.111,4.46-.083,1.818-.208,3.609-.149,5.432a103.977,103.977,0,0,0,1.015,11.028,18.619,18.619,0,0,0,4.077,9.911,24.31,24.31,0,0,0,6.76,5.158c12.041,6.554,26.6,7.427,39.6,3.525,6.749-2.026,13.823-5.687,17-12.349,1.639-3.443,1.962-7.135,2.315-10.88a67.622,67.622,0,0,0,.351-11.592c-.226-2.976.3-6.275-1.626-8.821-1.884-2.488-5.705-2.572-8.535-2.942-7.111-.932-14.256-1.771-21.422-2.126-1.52-.075-3.041-.122-4.562-.126-3.089-.007-3.093,4.793,0,4.8A171.5,171.5,0,0,1,122.2,97.657c2.957.338,6.065.662,8.893,1.126.874.144,2.353.239,2.976.861-.256-.255.157.663.188.789a9.2,9.2,0,0,1,.21,2.034c.083,3.085.342,6.166.191,9.253a77.166,77.166,0,0,1-1,9.963c-1.144,6.261-5.771,10.37-11.49,12.694a48.261,48.261,0,0,1-35.784.068c-4.577-1.793-9.864-4.642-11.535-9.593a40.645,40.645,0,0,1-1.467-9.093,64.062,64.062,0,0,1-.221-10.234c.086-1.408-.039-2.824.079-4.231.045-.53.287-1.147.318-1.588,0,.051.31-.567-.066-.119.143-.171.265-.161.646-.274a54.3,54.3,0,0,1,8.533-1.32A164.412,164.412,0,0,1,103.2,96.264C106.284,96.255,106.29,91.455,103.2,91.464Z"/></svg>