<?xml version="1.0" encoding="utf-8"?>
<!-- Uploaded to: SVG Repo, www.svgrepo.com, Generator: SVG Repo Mixer Tools -->
<svg width="800px" height="800px" viewBox="-29.85 0 327.97 327.97" xmlns="http://www.w3.org/2000/svg"><defs><style>.a{fill:#ffffff;}.b{fill:#b5886a;}.c{fill:#79c6e0;}.d{fill:#a6a2a1;}.e{fill:#211715;}</style></defs><path class="a" d="M265.871,325.565c-2.97-58.96-5.53-109.59-11.13-128.26a25.244,25.244,0,0,0-7.44-11.89,53.968,53.968,0,0,0-9.34-6.07c-8.54-4.12-19.62-9.12-27.23-13.52l-12.48-5.395c-3.379,34.7-18.071,63.308-30.145,90.8a260.093,260.093,0,0,1-12.385-25.4c-4.87-11.57-12.02-31.81-14.2-37.75-2.919-7.95-5.566-19.739-6.916-27.969l-9.474,4.059c-9.2,4.71-20.38,7.85-29.65,12.33a29.752,29.752,0,0,0-8.59,5.73,26.617,26.617,0,0,0-5.63,8.67c-7.089,18.5-7.688,27.156-15.552,46.844-2.912-6.958-5.647-13.734-8.668-21.145-9.682,5.1-25.109,12.166-34.789,14.265,4.825,15.449,9.666,32.069,16.467,47.541,4.725,10.749,11.193,20.768,22.549,23.756a29,29,0,0,0,25.07-4.605c6.14-4.487,12.9-13.58,17.151-18.945.074.968.115,1.818.115,2.524,0,6.94-2.54,30.24-3.58,44.44Z"/><path class="b" d="M129.727,129.883a48.318,48.318,0,0,1-7.261-13.647c-.976,6.421-4.5,9.127-8.295,11.74-3.456,2.381-7.209,4.625-9.426,9.186a26.73,26.73,0,0,0-2.135,12.021c.105,4.213,3.48,15.1,7.678,19.64l.931,1.257a110.619,110.619,0,0,0,13.912-5.915l10.188-3.312c4.58-2.84,8.83-5.93,9.68-8.03,1.12-2.78,1.07-6.44,1.05-9.685a41.466,41.466,0,0,1-15.241-11.907Q130.249,130.562,129.727,129.883Z"/><path class="a" d="M226.934,88.4a9.677,9.677,0,0,0-1.013-3.894A6.852,6.852,0,0,0,221,81.229a7.251,7.251,0,0,0-5.8,1.7s1.255-41.918-49.412-41.918-47.9,41.918-47.9,41.918a7.252,7.252,0,0,0-5.8-1.7,6.848,6.848,0,0,0-4.923,3.273,9.678,9.678,0,0,0-1.014,3.894,29.01,29.01,0,0,0,2.958,15.378,18.432,18.432,0,0,0,4.768,6.257,11.654,11.654,0,0,0,7.488,2.67,49.422,49.422,0,0,0,9.452,18.53,41.573,41.573,0,0,0,15.241,11.914v.008c.02,3.23.07,6.89-1.05,9.67-.883,2.181-5.434,5.431-10.213,8.359a197.64,197.64,0,0,0,4.669,20.522l1.956.521a109.8,109.8,0,0,0,25.058,3.6c7.99.019,19.36-1.244,27.165-4.348l1.246-.5a162.746,162.746,0,0,0,3.294-19.784c-4.365-2.935-8.561-6.192-9.445-8.376-1.15-2.83-1.08-6.6-1.06-9.88v-.006h0c12.151-5.212,21.927-21.568,23.632-26.2.257-.78.781-2.251,1.248-4l.973-.151a12.215,12.215,0,0,0,5.684-2.562,18.42,18.42,0,0,0,4.768-6.257A29.01,29.01,0,0,0,226.934,88.4Z"/><path class="b" d="M107.6,74.193c.387,2.131,1.3,5.72,1.979,7.928a6.852,6.852,0,0,1,2.5-.892,7.364,7.364,0,0,1,4.652.872c7.648-3.329,13.036-9.872,16.682-15.046C140.5,57,142.525,49.988,143.846,42.92c5.514,7.251,55.8,34.623,70.21,36.8L216.547,82A7.327,7.327,0,0,1,221,81.229a7.037,7.037,0,0,1,3.645,1.71,128.058,128.058,0,0,0,1.246-22.272c-1.05-15.052-6.967-31.913-16.445-41.255C197.149,7.294,187.037,2.448,164.029,2.448A58.852,58.852,0,0,0,123.388,18.8c-12.421,12.148-17.868,29.16-16.976,44.761A76.826,76.826,0,0,0,107.588,74"/><path class="c" d="M163.058,185.722a115.637,115.637,0,0,1-21.647-3.5l-1.957-.523c.661,2.281,1.355,4.442,2.065,6.376,2.181,5.941,9.334,26.176,14.2,37.742a258.781,258.781,0,0,0,12.383,25.411c9.6-21.857,20.853-44.423,26.759-70.2l-1.231.443c-7.8,3.1-19.175,4.367-27.165,4.348C165.379,185.823,164.237,185.787,163.058,185.722Z"/><path class="a" d="M116.244,263.007c-4.32-6.744-6.594-17.2-7.146-25.425-.569-8.459,1.3-25.8,6.411-38.535,1.364-7.73,2.888-14.464,4.03-20.986,1.7-9.723,6.1-17.022,14.559-21.3.192,1.419.442,3.027.745,4.763-5.387,8.114-8.38,30.8-7.938,38.426,5.223,15.347,16.886,29.811,18.762,46.905.551,5.019-1.077,9.8-3.822,14.037-2.547,3.932-6.463,6.045-10.632,7.991-1.822.851-3.991,1.709-5.741,2.7-1.319.747-2.506,1.807-3.984,2.144-3.242.738-5.713-2.409-6.116-5.3-.309-2.218.152-4.472,2.539-5.647,3.224-1.587,6.393-.561,9.828-2.375,3.217-1.7,5.8-2.434,7.4-8.13,2.116-7.542-2.875-16.831-5.785-23.661-1.531-3.595-7.036-16.33-8.286-18.553-1.362,5.553-3.877,20.308-2.919,27.152.787,5.622,2.919,16.452,6.671,22.706l1.925,3.679-8.593,2.963Z"/><path class="d" d="M138.907,272.555a4.538,4.538,0,0,0-2.376-4.17l-2.4-.94c-.948.5-1.924.976-2.915,1.438-1.342.627-2.873,1.258-4.285,1.942a17.334,17.334,0,0,0,2.064,3.71,5.288,5.288,0,0,0,3.222,2.021,6.116,6.116,0,0,0,2.428-.226,5.883,5.883,0,0,0,4.053-2.853A2.545,2.545,0,0,0,138.907,272.555Z"/><path class="d" d="M115.735,264.959a4.433,4.433,0,0,1,2.176-2.179,15.847,15.847,0,0,1,5.535-1.178,24.038,24.038,0,0,1,2.294,9.845,2.244,2.244,0,0,0-.268.136c-1.319.747-2.506,1.807-3.984,2.144-3.242.738-5.713-2.409-6.116-5.3A6.337,6.337,0,0,1,115.735,264.959Z"/><path class="e" d="M140.773,184.54a113.016,113.016,0,0,0,21.5,3.534,88.674,88.674,0,0,0,20.72-1.291,57.645,57.645,0,0,0,11.279-2.99,2.473,2.473,0,0,0,1.676-2.953A2.417,2.417,0,0,0,193,179.164a67.881,67.881,0,0,1-19.716,4.006A86.092,86.092,0,0,1,153.6,182.3a113.092,113.092,0,0,1-11.552-2.392c-2.988-.792-4.263,3.837-1.276,4.629Z"/><path class="e" d="M216.893,84.624a4.753,4.753,0,0,1,6.778.793,8.138,8.138,0,0,1,.946,4.293,25.469,25.469,0,0,1-.3,5.263c-1.073,6.345-4.371,14.076-11.434,15.306a2.42,2.42,0,0,0-1.676,2.952,2.454,2.454,0,0,0,2.952,1.677c9.71-1.692,14.351-12.708,15.156-21.474.39-4.242.281-9.548-3.3-12.474a9.711,9.711,0,0,0-12.517.27,2.42,2.42,0,0,0,0,3.394,2.45,2.45,0,0,0,3.394,0Z"/><path class="e" d="M211.049,107.2a24.092,24.092,0,0,1-1.127,6.024c-.229.771-.481,1.535-.737,2.3-.078.233-.158.464-.237.7-.161.469-.1.235-.033.1a50.732,50.732,0,0,1-3.237,5.924,57.483,57.483,0,0,1-12.837,14.8,24.358,24.358,0,0,1-9.466,4.786c-3.008.694-1.735,5.323,1.276,4.628,7.307-1.685,13.426-6.942,18.242-12.459a62.657,62.657,0,0,0,10.015-14.913,32.125,32.125,0,0,0,2.941-11.878c.106-3.089-4.694-3.085-4.8,0Z"/><path class="e" d="M119.578,81.23a9.712,9.712,0,0,0-12.518-.27c-3.583,2.926-3.691,8.232-3.3,12.474.805,8.766,5.446,19.782,15.157,21.474a2.47,2.47,0,0,0,2.952-1.677,2.421,2.421,0,0,0-1.676-2.952c-7.064-1.23-10.361-8.961-11.435-15.306a25.612,25.612,0,0,1-.3-5.263,8.277,8.277,0,0,1,.947-4.293,4.747,4.747,0,0,1,6.778-.793,2.464,2.464,0,0,0,3.394,0,2.421,2.421,0,0,0,0-3.394Z"/><path class="e" d="M118.023,109.152c3.071,14.516,11.639,28.664,25.318,35.38A34.291,34.291,0,0,0,155,147.873a2.417,2.417,0,0,0,2.4-2.4,2.454,2.454,0,0,0-2.4-2.4c-13.461-1.4-24.471-13.04-29.313-25.052a60.77,60.77,0,0,1-3.036-10.145c-.639-3.02-5.267-1.742-4.629,1.276Z"/><path class="e" d="M185.269,142.943a50.576,50.576,0,0,0,.21,6.337,12.522,12.522,0,0,0,1.69,5.667c2.372,3.425,6.2,5.888,9.589,8.188a2.4,2.4,0,1,0,2.423-4.144c-1.614-1.1-3.219-2.214-4.729-3.45-.661-.541-1.308-1.1-1.921-1.7-.268-.26-.53-.526-.781-.8-.127-.141-.25-.283-.371-.429-.245-.293.265.433-.065-.09-.145-.23-.29-.45-.414-.694-.131-.259.132.389,0-.037-.072-.226-.153-.448-.218-.676a13.981,13.981,0,0,1-.45-2.294,54.158,54.158,0,0,1-.158-5.88c.02-3.089-4.78-3.093-4.8,0Z"/><path class="e" d="M143.649,143.153a51.2,51.2,0,0,1-.164,5.757,14.206,14.206,0,0,1-.482,2.362c-.067.222-.142.439-.219.658.053-.152.135-.232.016-.045-.084.133-.548.819-.212.393-2.189,2.771-5.51,4.655-8.48,6.5a2.4,2.4,0,1,0,2.423,4.144c1.938-1.206,3.852-2.459,5.667-3.846a20.659,20.659,0,0,0,4.278-4.045,11.2,11.2,0,0,0,1.7-5.211,48.078,48.078,0,0,0,.277-6.67c-.019-3.088-4.819-3.094-4.8,0Z"/><path class="e" d="M69.286,235.153c4.29-11.24,7.173-22.886,10.954-34.29,2.007-6.053,3.846-12.226,8.348-16.941a26.736,26.736,0,0,1,7.747-5.18c2.929-1.44,5.953-2.676,8.994-3.859,7.056-2.745,14.251-5.209,21.014-8.646,2.754-1.4.328-5.542-2.423-4.144-6.129,3.114-12.634,5.37-19.037,7.84-6.142,2.369-12.7,4.757-17.875,8.938a27.2,27.2,0,0,0-6.4,7.8,60.671,60.671,0,0,0-3.9,9.707c-1.948,5.574-3.607,11.236-5.256,16.9-2.023,6.949-4.21,13.834-6.792,20.6a2.419,2.419,0,0,0,1.676,2.952,2.453,2.453,0,0,0,2.953-1.676Z"/><path class="e" d="M209.52,167.9c5.768,3.321,11.8,6.183,17.8,9.037,6.156,2.925,12.378,5.6,17.8,9.8,6.867,5.322,8.426,14.47,9.77,22.538,1.525,9.146,2.434,18.487,3.254,27.939,1.1,12.68,1.916,25.384,2.66,38.09.981,16.749,1.816,33.507,2.66,50.264.155,3.074,4.956,3.093,4.8,0-1.43-28.39-2.7-56.811-5.048-85.144-.836-10.1-1.8-20.207-3.344-30.225-1.339-8.663-2.887-17.82-8.924-24.593a37.274,37.274,0,0,0-8.456-6.491,104.548,104.548,0,0,0-10.017-5.025c-6.921-3.278-13.9-6.51-20.539-10.334-2.682-1.544-5.1,2.6-2.423,4.144Z"/><path class="e" d="M235.5,325.57c-.7-9.447-1.649-18.873-2.481-28.309-.566-6.41-1.47-12.987-.93-19.428,1.264-15.068,4.759-30.185,7.33-45.238,1.891-11.065,3.287-22.229,5.467-33.242a2.462,2.462,0,0,0-1.676-2.952,2.423,2.423,0,0,0-2.953,1.676c-1.927,9.736-3.213,19.6-4.821,29.389-1.285,7.821-2.852,15.589-4.213,23.395-1.413,8.1-2.786,16.226-3.681,24.4-.684,6.246-.146,12.373.383,18.617.9,10.566,2,21.116,2.775,31.693a2.459,2.459,0,0,0,2.4,2.4,2.421,2.421,0,0,0,2.4-2.4Z"/><path class="e" d="M89.1,199.877c1.362,10.655,2.76,21.308,4.423,31.921,1.2,7.692,2.658,15.337,4.018,23,1.32,7.444,2.691,14.936,3.413,22.258.6,6.035-.149,12.132-.668,18.149-.874,10.121-1.914,20.23-2.66,30.362a2.421,2.421,0,0,0,2.4,2.4,2.447,2.447,0,0,0,2.4-2.4c.665-9.038,1.567-18.057,2.372-27.083.353-3.957.7-7.915.965-11.879a56.222,56.222,0,0,0,.157-7.6,216.648,216.648,0,0,0-3.151-22.062c-1.23-7.1-2.606-14.174-3.788-21.282C97,223.777,95.426,211.828,93.9,199.877a2.478,2.478,0,0,0-2.4-2.4,2.414,2.414,0,0,0-2.4,2.4Z"/><path class="e" d="M142.308,44.826c2.269,2.687,5.548,4.7,8.443,6.625,4.71,3.139,9.59,6.027,14.511,8.82a324.1,324.1,0,0,0,34.31,17.155c4.425,1.858,9.07,3.865,13.846,4.6a2.476,2.476,0,0,0,2.952-1.677,2.419,2.419,0,0,0-1.676-2.952A54.029,54.029,0,0,1,203,73.685c-2.48-1-4.841-2.036-7.491-3.247q-4.233-1.935-8.4-4.006A322.689,322.689,0,0,1,154.932,48.46c-2.063-1.334-4.1-2.709-6.064-4.185l-.263-.2c-.355-.268.271.214.043.033-.178-.142-.358-.283-.535-.426-.323-.261-.641-.527-.953-.8a14.056,14.056,0,0,1-1.458-1.45,2.42,2.42,0,0,0-3.394,0,2.451,2.451,0,0,0,0,3.394Z"/><path class="e" d="M119.186,83.6c6.045-3.053,10.8-7.952,14.83-13.308a67.159,67.159,0,0,0,9.628-17.19,57.568,57.568,0,0,0,2.305-8.441,2.46,2.46,0,0,0-1.676-2.952,2.422,2.422,0,0,0-2.952,1.676,55.629,55.629,0,0,1-7.877,19.34c-4.278,6.673-9.481,13.094-16.68,16.731-2.758,1.393-.331,5.535,2.422,4.144Z"/><path class="e" d="M146.69,42.642q-3.225-3.671-6.337-7.438a2.409,2.409,0,0,0-1.7-.7,2.443,2.443,0,0,0-1.7.7,2.414,2.414,0,0,0-.7,1.7,2.734,2.734,0,0,0,.7,1.7q3.112,3.768,6.338,7.439a2.414,2.414,0,0,0,3.394,0,2.459,2.459,0,0,0,0-3.395Z"/><path class="e" d="M119.833,117.222c-1,3.9-3.516,6.36-6.737,8.588-3.605,2.493-7.268,4.9-9.63,8.7-4.531,7.3-3.8,16.577-1.1,24.35,1.434,4.132,3.26,8.376,6.223,11.657,2.075,2.3,5.462-1.106,3.394-3.394-2.137-2.366-3.634-5.784-4.756-8.885a49.881,49.881,0,0,1-1.581-5.2,18.933,18.933,0,0,1-.631-3.676c-.208-4.325.388-9.08,2.808-12.767,2.114-3.221,5.586-5.119,8.639-7.309,3.865-2.772,6.79-6.092,8-10.793.768-2.994-3.86-4.271-4.629-1.276Z"/><path class="e" d="M192.156,244.182c-3.19,2.932-6.426,5.816-9.749,8.6a2.409,2.409,0,0,0,0,3.394,2.464,2.464,0,0,0,3.394,0c3.323-2.78,6.559-5.665,9.749-8.6a2.418,2.418,0,0,0,0-3.394,2.452,2.452,0,0,0-3.394,0Z"/><path class="e" d="M161.97,278.989a7.422,7.422,0,0,0-1.987,8.053,6.816,6.816,0,0,0,2.043,3.033,8.179,8.179,0,0,0,4.5,1.741,7.226,7.226,0,0,0,7.229-4.041,6.954,6.954,0,0,0,.322-4.835,8.872,8.872,0,0,0-2.223-3.747,7.551,7.551,0,0,0-4.849-1.962,7.133,7.133,0,0,0-5.038,1.758,2.411,2.411,0,0,0,0,3.394,2.46,2.46,0,0,0,3.394,0c.051-.045.1-.089.158-.132l-.486.375a4.472,4.472,0,0,1,.969-.565l-.574.242a5.181,5.181,0,0,1,1.186-.316l-.638.085a5.88,5.88,0,0,1,1.44,0l-.638-.086a5.8,5.8,0,0,1,1.462.395l-.574-.242a4.888,4.888,0,0,1,1,.583l-.486-.375a4.57,4.57,0,0,1,.726.745l-.376-.486a7.482,7.482,0,0,1,.938,1.571l-.242-.573a5.872,5.872,0,0,1,.405,1.442l-.086-.638a4.779,4.779,0,0,1,0,1.183l.085-.638a4.453,4.453,0,0,1-.261.976l.242-.574a4.741,4.741,0,0,1-.6,1.032l.375-.486a5.525,5.525,0,0,1-.9.9l.485-.375a4.454,4.454,0,0,1-.926.531l.573-.242a5.7,5.7,0,0,1-1.36.362l.638-.086a6.525,6.525,0,0,1-1.658,0l.638.085a6.134,6.134,0,0,1-1.42-.381l.573.242a5.217,5.217,0,0,1-1.091-.623l.486.375a4.322,4.322,0,0,1-.769-.76l.375.486a5.015,5.015,0,0,1-.584-1.031l.242.573a6,6,0,0,1-.4-1.457l.085.638a5.5,5.5,0,0,1,0-1.381l-.086.638a5.058,5.058,0,0,1,.343-1.238l-.242.573a5.3,5.3,0,0,1,.606-1.027l-.375.486a6.28,6.28,0,0,1,.749-.8,2.417,2.417,0,0,0,0-3.394A2.455,2.455,0,0,0,161.97,278.989Z"/><path class="e" d="M131.927,158.4a168.9,168.9,0,0,0,8.231,32.926c3.685,10.192,7.335,20.4,11.346,30.473a293.193,293.193,0,0,0,17.09,35.237c3.266,5.805,6.847,11.5,9.671,17.536a61.658,61.658,0,0,1,3.306,8.125,21.312,21.312,0,0,1,.521,2.2,28.919,28.919,0,0,1,.414,2.865,162.456,162.456,0,0,1,.625,18.538c-.044,6.422-.244,12.84-.43,19.258-.089,3.09,4.711,3.087,4.8,0,.333-11.5.874-23.09.083-34.586a67.073,67.073,0,0,0-.781-6.9,30.772,30.772,0,0,0-1.918-6.219,147.683,147.683,0,0,0-9.1-17.87c-6.645-11.685-13.059-23.472-18.209-35.907-4.259-10.285-8-20.784-11.785-31.251-1.844-5.108-3.654-10.192-5.039-15.451a184.961,184.961,0,0,1-4.2-20.258,2.416,2.416,0,0,0-2.953-1.676,2.462,2.462,0,0,0-1.676,2.952Z"/><path class="a" d="M215.123,240.814a10.446,10.446,0,0,1-8.795,2.048,9,9,0,0,1-3.587-1.514c-4.693-3.354-5.109-10.106-3.875-15.307.46-1.935,2.644-6.93,7.871-8.076,2.951-18.787,1.054-43.08-6.733-55.809l-1.77-1.558q.217-2.187.373-4.407c7.855,3.3,13.046,9.2,14.618,14.979a98.588,98.588,0,0,1,1.371,47.821c4.731,2.471,6.127,8.541,5.148,13.671A13.773,13.773,0,0,1,215.123,240.814Z"/><path class="e" d="M196.122,157.316c-2.024,25.842-11.133,50.108-21.56,73.6-2.761,6.222-5.587,12.416-8.33,18.647a2.477,2.477,0,0,0,.861,3.284,2.418,2.418,0,0,0,3.283-.861c10.272-23.327,21.491-46.4,27.058-71.431a167.144,167.144,0,0,0,3.488-23.244,2.419,2.419,0,0,0-2.4-2.4,2.448,2.448,0,0,0-2.4,2.4Z"/><path class="e" d="M206.966,240.548c-5.177-1.088-6.573-6.3-6.242-10.975a16.338,16.338,0,0,1,.482-3c.053-.2.111-.4.176-.593.055-.166.431-1.048.146-.428a14.267,14.267,0,0,1,.978-1.814c.081-.126.637-.882.364-.54a10.759,10.759,0,0,1,.978-1.069,7.331,7.331,0,0,1,4.132-1.968,9.353,9.353,0,0,1,6.407,1.507c3.314,2.476,3.784,7.553,2.834,11.29-1.215,4.778-5.078,8.493-10.255,7.587a2.469,2.469,0,0,0-2.952,1.676,2.419,2.419,0,0,0,1.676,2.952,13.484,13.484,0,0,0,9.536-1.507,14.644,14.644,0,0,0,5.68-6.745c2.392-5.551,2.138-12.618-1.847-17.387-3.817-4.569-11.558-5.569-16.544-2.413a14.426,14.426,0,0,0-6.326,10.171,19.831,19.831,0,0,0,.873,10.388,12.024,12.024,0,0,0,8.628,7.493C208.7,245.81,209.992,241.184,206.966,240.548Z"/><path class="e" d="M141.07,151.694c-7.348,1.84-14.014,5.581-18.438,11.849-4.589,6.5-5.437,14.4-6.952,21.986-.483,2.419-.972,4.836-1.441,7.257a46.814,46.814,0,0,1-1.728,7.4A88.212,88.212,0,0,0,109,212.834a99.471,99.471,0,0,0-2.36,23.529,70.571,70.571,0,0,0,2.008,13.933,46.68,46.68,0,0,0,5.528,13.923c1.644,2.606,5.8.2,4.145-2.423-4.333-6.868-6.14-15.479-6.765-23.483a84.284,84.284,0,0,1,1.471-21.059,99.786,99.786,0,0,1,2.989-12.464,51.617,51.617,0,0,0,1.983-6.066c.442-2.457.916-4.908,1.4-7.357q1.323-6.662,2.579-13.335a32.556,32.556,0,0,1,3.09-9.283c3.591-6.734,9.96-10.593,17.281-12.427,2.994-.75,1.726-5.38-1.276-4.628Z"/><path class="e" d="M126.892,258.708c-3.561-6.036-5.042-13.426-6.147-20.271a22.559,22.559,0,0,1-.384-3.5c-.057-1.521-.012-3.046.075-4.565.195-3.415.608-6.818,1.132-10.2.493-3.177,1.054-6.354,1.814-9.479l-4.387.573c2.5,4.515,4.364,9.472,6.414,14.2,2.656,6.131,5.938,12.271,7.37,18.827.766,3.5.7,7.326-1.247,10.461a5.731,5.731,0,0,1-1.09,1.3,8.2,8.2,0,0,1-1.411.97,17.357,17.357,0,0,1-4.045,1.877c-2.134.559-4.393.405-6.506,1.079a7.687,7.687,0,0,0-4.8,3.726,9.4,9.4,0,0,0,2.346,10.747,6.841,6.841,0,0,0,5.755,1.649c2.185-.393,3.88-1.951,5.808-2.934,3.7-1.888,7.666-3.235,11.068-5.686a23.009,23.009,0,0,0,7.807-10.3,23.873,23.873,0,0,0,1.212-13.211c-1.354-8.443-4.984-16.331-8.8-23.91-1.894-3.764-3.866-7.49-5.691-11.289-.86-1.79-1.7-3.593-2.451-5.431q-.556-1.363-1.063-2.747a3.582,3.582,0,0,1-.4-1.595,87.416,87.416,0,0,1,1.57-16.508c.561-3.277,1.238-6.539,2.1-9.75.4-1.48.839-2.95,1.344-4.4a27.7,27.7,0,0,1,1.39-3.419,17.739,17.739,0,0,1,1.714-2.865,2.415,2.415,0,0,0-.861-3.283,2.457,2.457,0,0,0-3.284.861c-3.265,4.355-4.665,10.3-5.841,15.515a125.223,125.223,0,0,0-2.773,18.8c-.155,2.218-.6,5.05.149,7.186a103.22,103.22,0,0,0,4.788,11.149c3.591,7.34,7.7,14.47,10.549,22.151a54.86,54.86,0,0,1,3.05,11.6,18.935,18.935,0,0,1-2.4,11.982,18.707,18.707,0,0,1-8.309,7.591c-1.818.94-3.7,1.741-5.558,2.587-.9.407-1.792.824-2.646,1.314a24.329,24.329,0,0,1-2.831,1.727c-2.607,1.051-4.1-2.736-3.67-4.78.341-1.634,2.257-2.013,3.689-2.234,2.168-.336,4.3-.376,6.362-1.228,2.762-1.143,5.569-2.656,7.376-5.1A16.66,16.66,0,0,0,138,247.119c-.507-7.474-4.254-14.309-7.156-21.069-2.173-5.059-4.34-10.13-6.678-15.116-.329-.7-.654-1.407-1.03-2.085a2.426,2.426,0,0,0-4.387.574,121.892,121.892,0,0,0-3.029,19.621,42.5,42.5,0,0,0,.2,9.439,97.314,97.314,0,0,0,2.085,10.3,47.965,47.965,0,0,0,4.737,12.345c1.568,2.659,5.719.247,4.144-2.422Z"/><path class="e" d="M109.69,240.389q4.083-.246,8.146-.709a2.611,2.611,0,0,0,1.7-.7,2.4,2.4,0,0,0,0-3.394,2.32,2.32,0,0,0-1.7-.7q-4.062.464-8.146.709a2.4,2.4,0,1,0,0,4.8Z"/><path class="e" d="M133.728,236.845l.34-.146-.573.242a38.727,38.727,0,0,1,6.215-2.007,2.419,2.419,0,0,0,1.676-2.952,2.452,2.452,0,0,0-2.952-1.676,41.947,41.947,0,0,0-7.129,2.394,2.4,2.4,0,0,0-1.1,1.434,2.458,2.458,0,0,0,.242,1.85,2.43,2.43,0,0,0,1.435,1.1l.638.085a2.384,2.384,0,0,0,1.211-.327Z"/><path class="e" d="M209.145,218a120.469,120.469,0,0,0,1.149-23.958,92.858,92.858,0,0,0-3.74-22.815,46.726,46.726,0,0,0-4.478-10.278c-1.6-2.64-5.749-.23-4.144,2.422,3.336,5.514,5.044,11.9,6.174,18.2a116.311,116.311,0,0,1,.41,35.156,2.479,2.479,0,0,0,1.677,2.952A2.418,2.418,0,0,0,209.145,218Z"/><path class="e" d="M217.018,219.1a101.773,101.773,0,0,0-1.478-48.569,23.279,23.279,0,0,0-6.521-10.427,33.057,33.057,0,0,0-14.414-7.782c-2.991-.783-4.267,3.845-1.276,4.629,7.328,1.919,15.094,6.806,17.425,14.315a90,90,0,0,1,3.711,28.323,104.574,104.574,0,0,1-2.076,18.235,2.46,2.46,0,0,0,1.676,2.952,2.423,2.423,0,0,0,2.953-1.676Z"/><path class="e" d="M121.587,263.265a24.58,24.58,0,0,1,1.625,6.006l-.085-.638q.123.936.179,1.878a2.4,2.4,0,1,0,4.8,0,26.4,26.4,0,0,0-1.89-8.522,2.643,2.643,0,0,0-1.1-1.434,2.4,2.4,0,0,0-3.284.861,2.317,2.317,0,0,0-.242,1.849Z"/><path class="e" d="M135.521,270.112c.163.069.308.156.463.239.353.187-.237-.259.021.017.128.137.26.266.384.407-.33-.373-.046-.047.022.062.1.165.19.339.282.511.207.386-.087-.324.022.063.052.186.117.366.159.555.112.5.062.034.019.021.046.014.014.481.016.535.016.414.116-.388.007-.03-.17.557.228-.285-.022.129-.087.145-.168.291-.259.432.241-.373-.152.154-.23.23-.1.1-.389.326-.112.121a9.418,9.418,0,0,1-1.111.649c-.131.059-.1.05.079-.029-.108.044-.216.085-.326.124-.19.068-.382.129-.576.185-.214.062-.43.118-.647.166-.133.03-.268.057-.4.08q.24-.024.024,0c-.239.022-.473.018-.713.019-.254-.021-.271-.02-.048,0-.087-.016-.172-.036-.257-.059s-.649-.252-.263-.068a5.436,5.436,0,0,1-.54-.3q-.114-.07-.222-.147l-.017-.014c-.155-.139-.309-.277-.455-.427s-.284-.3-.412-.465c.176.224-.187-.282-.226-.341a20.462,20.462,0,0,1-1.372-2.636,2.009,2.009,0,0,0-2.737-.717,2.057,2.057,0,0,0-.717,2.736,12.827,12.827,0,0,0,3.159,4.735,7.33,7.33,0,0,0,2.654,1.475,7.231,7.231,0,0,0,3.408.026,9.06,9.06,0,0,0,4.834-2.468,5.348,5.348,0,0,0,1.322-5.028,6.148,6.148,0,0,0-3.191-4.245,2.057,2.057,0,0,0-2.736.717,2.022,2.022,0,0,0,.717,2.737Z"/><path class="e" d="M197.424,52.1a43.09,43.09,0,0,1,16.5,28.773,2.473,2.473,0,0,0,2.4,2.4,2.415,2.415,0,0,0,2.4-2.4A47.7,47.7,0,0,0,200.818,48.7a2.481,2.481,0,0,0-3.394,0,2.415,2.415,0,0,0,0,3.394Z"/><path class="e" d="M227.038,83.086a113.372,113.372,0,0,0,1.311-21.2,76.894,76.894,0,0,0-4.717-23.312C220.957,31.21,217.225,24,211.743,18.324a63.7,63.7,0,0,0-14.581-11.56,51.216,51.216,0,0,0-17.673-5.72A85.6,85.6,0,0,0,154.318.837a58.824,58.824,0,0,0-48.084,42.642,66.41,66.41,0,0,0-1.94,24.027,71.351,71.351,0,0,0,.979,7.134,2.424,2.424,0,0,0,2.953,1.677,2.452,2.452,0,0,0,1.676-2.953c-2.927-15.159-.492-31.179,8.024-44.18A54.706,54.706,0,0,1,150.013,6.622c7.87-2.039,16.028-2.066,24.087-1.395a54.327,54.327,0,0,1,17.268,4,50.942,50.942,0,0,1,13.591,9.232,47.986,47.986,0,0,1,6.636,7.126,55.9,55.9,0,0,1,5.554,9.692,74.314,74.314,0,0,1,6.034,22.087,96.634,96.634,0,0,1-.231,19.908c-.141,1.519-.307,3.034-.542,4.541a2.476,2.476,0,0,0,1.676,2.953,2.418,2.418,0,0,0,2.952-1.677Z"/><path class="e" d="M105.282,74.831a72.26,72.26,0,0,0,1.889,7.63,2.4,2.4,0,0,0,4.629-1.276,72.26,72.26,0,0,1-1.889-7.63,2.418,2.418,0,0,0-1.1-1.434,2.4,2.4,0,0,0-3.284.861,2.7,2.7,0,0,0-.242,1.849Z"/><path class="e" d="M208.319,234.1a2.661,2.661,0,0,1-1.065-.449c-1.394-1-1.518-3-1.151-4.547a3.17,3.17,0,0,1,4.111-2.315c1.854.508,2.417,2.571,2.09,4.281C211.954,232.909,210.519,234.517,208.319,234.1Z"/><path class="a" d="M36.85,164.777c-1.956-7.739-7.45-27.049-9.471-29.629-1.451-1.852-3.169-3.278-6.355-1.918-2.731,1.165-2.288,4.318-1.772,6.924.569,2.869,3.952,16.41,5.928,23.445a5.413,5.413,0,0,0-6.138-1.391c-2.166.989-3,2.836-2.759,4.17,0,0,.19,1.046.468,2.55a5.256,5.256,0,0,0-5.07.027c-1.872,1-3.757,3.684-2.835,5.619l1.236,2.594-.386-.317c-2.376-1.955-6.5-.751-7.174,1.855-.515,2,.354,4.36,1.467,6.189.133.217.274.45.424.694.138.428.217.67.217.67,1.509,4.674,4.448,11.816,8.851,16.906,2.043,2.359,4.4,4.7,6.256,7.232s2.314,5.343,3.218,8.372l.4,1.34c4.788-1.77,18.263-6.805,25.433-10.22l-.254-.717c-.706-3.255-1.483-7.486-1.022-10.243a69.721,69.721,0,0,1,3.11-9.122,16.894,16.894,0,0,0,1.3-7.631c-.326-2.965-1.094-7.2-3.3-10.3a5.976,5.976,0,0,0-1.609-1.519,1.652,1.652,0,0,0-.226-.136c-2.628-1.61-6.082-1.617-9.059-1.49l-.248-1.266C37.38,166.935,37.159,166,36.85,164.777Z"/><path class="a" d="M22.141,220.557c3.29-1.21,20.917-7.7,28.167-11.413.827,1.653,2.561,5.718,3.622,7.9l.458.926c-8.581,4.366-20.294,9.633-29,12.1-.244-.609-.42-1.052-.441-1.113-.921-2.745-2.752-7.49-3.111-8.283Z"/><path class="e" d="M27.265,228.314c-1.184-2.925-2.1-5.964-3.353-8.857l-1.435,3.526q6.231-2.3,12.422-4.693c5.595-2.181,11.263-4.346,16.62-7.074l-3.283-.861c1.282,2.6,2.363,5.289,3.622,7.9a2.422,2.422,0,0,0,3.283.861A2.451,2.451,0,0,0,56,215.83c-1.259-2.608-2.339-5.3-3.622-7.9a2.442,2.442,0,0,0-3.283-.861,171.073,171.073,0,0,1-15.769,6.705q-6.041,2.35-12.127,4.578a2.454,2.454,0,0,0-1.434,3.526c-.363-.834-.042-.078.025.1.112.294.22.59.329.885.249.678.494,1.358.742,2.037.573,1.57,1.146,3.14,1.773,4.69a2.476,2.476,0,0,0,2.952,1.676,2.417,2.417,0,0,0,1.677-2.952Z"/><path class="e" d="M76.2,255.894c-5.95-13.172-11.388-26.556-16.842-39.938a2.446,2.446,0,0,0-3.526-1.434q-8.432,4.434-17.21,8.179a97.749,97.749,0,0,1-17,5.843,2.423,2.423,0,0,0-1.676,2.953c3.082,9.873,6.05,19.785,9.462,29.551,1.762,5.041,3.641,10.042,5.706,14.968a95.755,95.755,0,0,0,5.74,11.9c4.238,7.148,10.142,13.386,18.187,16.079a31.788,31.788,0,0,0,26.492-3.01c8.123-5,13.837-13.311,19.65-20.665a2.476,2.476,0,0,0,0-3.394,2.415,2.415,0,0,0-3.394,0c-4.954,6.266-9.753,13.081-16.052,18.093a26.953,26.953,0,0,1-22.942,5.044c-7.493-1.757-13.021-6.944-17.032-13.317-4.794-7.616-7.927-16.318-10.941-24.751-3.747-10.481-6.932-21.15-10.247-31.772l-1.677,2.952A102.782,102.782,0,0,0,40.672,227q8.957-3.8,17.58-8.337l-3.526-1.434C60.337,231,65.932,244.767,72.053,258.316a2.416,2.416,0,0,0,3.283.861,2.457,2.457,0,0,0,.861-3.283Z"/><path class="e" d="M39.8,166.83c-.721-3.616-1.8-7.184-2.8-10.731-1.423-5.067-2.9-10.128-4.6-15.111-1.309-3.834-2.606-8.614-6.778-10.261-3.431-1.354-7.967.541-8.908,4.219-.643,2.514.057,5.2.627,7.671,1.592,6.9,3.36,13.765,5.234,20.591.817,2.975,5.449,1.712,4.628-1.276-1.592-5.8-3.075-11.637-4.494-17.484-.47-1.936-1-3.882-1.312-5.852-.15-.938-.3-2.239.125-2.831a2.632,2.632,0,0,1,2.532-.521,3.736,3.736,0,0,1,1.045.9c.117.129.545.7.253.271a3.408,3.408,0,0,1,.19.288c.261.481.5.966.724,1.467.167.376-.183-.47.042.1.065.166.133.33.2.5.167.425.328.853.486,1.282.338.921.659,1.848.972,2.778,1.558,4.629,2.936,9.32,4.263,14.02,1.049,3.717,2.188,7.46,2.944,11.252a2.424,2.424,0,0,0,2.953,1.676A2.449,2.449,0,0,0,39.8,166.83Z"/><path class="e" d="M2.315,186.9a54.55,54.55,0,0,0,7.84,15.927c2.081,2.768,4.591,5.163,6.776,7.843,2.131,2.613,2.782,5.576,3.71,8.74.867,2.958,5.5,1.7,4.629-1.276-.925-3.153-1.605-6.428-3.595-9.125-2.135-2.894-4.738-5.37-7.009-8.146-3.594-4.4-5.976-9.878-7.722-15.239-.953-2.925-5.589-1.673-4.629,1.276Z"/><path class="e" d="M40.318,184.721A40.226,40.226,0,0,0,39.17,179.9a6.114,6.114,0,0,0-2.557-3.615,10.643,10.643,0,0,0-4.424-1.249c-.378-.054-.764-.185-1.154-.207s-.252-.1-.054.032c.428.279-.255-.4-.338-.62a1.615,1.615,0,0,1-.043-1.132c.035-.13.593-1.248.34-1,.744-.72,2.911-.7,3.913-.787,1.4-.116,2.8-.209,4.2-.223a17.2,17.2,0,0,1,4.278.356A5.741,5.741,0,0,1,46.454,173a10.276,10.276,0,0,1,1.8,3.4,20.68,20.68,0,0,1,1.311,7.075c-.093,3.97-2.021,7.346-3.268,11.087-.3.908-.6,1.817-.865,2.737-.076.266-.156.533-.21.805s-.073.52-.108.781c.1-.752-.068.488-.087.706-.3,3.392.483,6.922,1.192,10.22.649,3.018,5.277,1.741,4.629-1.276a34.843,34.843,0,0,1-.936-9.6c-.022.366-.15.609.019.112.116-.34.2-.7.3-1.041.329-1.083.687-2.157,1.054-3.227.316-.919.639-1.837.986-2.745.077-.2.157-.4.235-.6.235-.6-.209.426.028-.071.265-.556.535-1.107.751-1.685a17.572,17.572,0,0,0,1-7.8,28.385,28.385,0,0,0-2.4-9.152A10.392,10.392,0,0,0,44.4,166.78a32.911,32.911,0,0,0-9.987-.221,17.58,17.58,0,0,0-4.823.9,5.806,5.806,0,0,0-3.341,3.619c-1.347,3.374.221,7.794,4.043,8.5,1.06.195,3.206.067,3.971.935a6.379,6.379,0,0,1,.71,2.373A26.181,26.181,0,0,1,35.69,186a2.416,2.416,0,0,0,2.952,1.676,2.462,2.462,0,0,0,1.676-2.952Z"/><path class="e" d="M13.528,186.542c.112.4.023-.514.013.038-.011.573.128-.309-.008.092-.053.157-.33.768-.053.258-.118.217-.22.438-.352.648-.065.1-.144.2-.206.309.015-.027.277-.3.093-.121-.149.148-.277.318-.429.464-.014.014-.209.227-.257.233.006,0,.485-.305.089-.077-.067.038-.136.079-.2.121-.444.292.108-.048.109-.032s-.772.208-.4.12c.327-.077-.067,0-.159.008s-.2.009-.3.01c-.122,0-.937-.07-.373.012a6.746,6.746,0,0,1-.808-.171c-.132-.037-.261-.081-.393-.122-.036-.011-.355-.134-.092-.027.238.1-.334-.177-.427-.233-.111-.067-.216-.14-.324-.212.075.05.361.322.057.028-.187-.181-.375-.358-.551-.55s-.315-.371-.475-.554c-.242-.278.194.279-.022-.028-.064-.09-.131-.177-.2-.266-.342-.474-.664-.963-.977-1.456a25.311,25.311,0,0,1-1.58-2.755c-.03-.064-.161-.424-.028-.067-.041-.109-.082-.217-.12-.326-.089-.253-.169-.51-.236-.77-.038-.147-.064-.3-.1-.444-.023-.087-.066-.47-.019-.027-.031-.293-.017-.585-.035-.877-.006-.1.049-.476-.024-.006.016-.1.038-.21.063-.314a3.226,3.226,0,0,0,.09-.322c.03-.247-.05.23-.1.226,0,0,.129-.231.144-.263.152-.324.03.183-.113.116.006,0,.4-.412.425-.441.264-.265-.105.132-.117.086a1.75,1.75,0,0,1,.266-.173c.092-.055.19-.1.281-.156.363-.22-.317.066-.052.013.212-.042.419-.142.631-.192.108-.025.22-.038.326-.067.281-.076-.581.017-.056.018.223,0,.447,0,.67,0,.39,0-.145-.018-.138-.025a1.254,1.254,0,0,1,.329.07c.108.027.214.066.323.093.405.1-.22-.178-.028-.018.124.1.8.517.3.132a2.465,2.465,0,0,0,3.394,0c.794-.864,1.054-2.565,0-3.394a7.4,7.4,0,0,0-8.269-.7C.215,176.067-.489,179.34.3,182.392A15.987,15.987,0,0,0,2.26,186.67,29.77,29.77,0,0,0,4.9,190.423a8.541,8.541,0,0,0,8.359,2.777c3.159-.738,5.8-4.753,4.9-7.934a2.4,2.4,0,0,0-4.628,1.276Z"/><path class="e" d="M19.185,167.875c-2.734-3-7.595-2.311-10.363.223a7.643,7.643,0,0,0-2.617,5.294c-.007,1.923,1.193,3.718,2.137,5.323,1.5,2.56,3.3,5.021,5.017,7.449a16.4,16.4,0,0,0,2.578,3.124,7.85,7.85,0,0,0,5.281,1.669c4.8-.2,7.478-4.894,6.265-9.321-.815-2.975-5.447-1.712-4.628,1.276a4.555,4.555,0,0,1,.165.772c.012.146.008.291.007.437,0,.03-.06.468-.007.178a2.057,2.057,0,0,1-.536,1.223c.223-.3-.21.183-.285.264-.18.194.044-.011.085-.042-.079.06-.163.115-.246.167a1.607,1.607,0,0,1-1.092.251,3.584,3.584,0,0,1-1.372-.242,1.8,1.8,0,0,0-.465-.216c-.035-.009-.324-.189.033.04.333.215-.033-.037-.095-.1-.287-.3-.556-.6-.822-.917-.17-.2.013.024.039.057-.094-.12-.185-.244-.275-.366-.165-.223-.326-.448-.486-.675-1.2-1.7-2.369-3.419-3.546-5.13a39.988,39.988,0,0,1-2.323-3.838c-.162-.3-.309-.616-.475-.917-.176-.319-.091-.056-.163-.378.059.26,0-.079,0-.069a2.533,2.533,0,0,1,.225-.662,4.11,4.11,0,0,1,1.094-1.347,2.949,2.949,0,0,1,1.192-.6,3.215,3.215,0,0,1,1.333-.09c-.254-.046.24.072.29.088.391.131-.275-.108.106.029.4.145.206.059.553.44a2.4,2.4,0,0,0,3.394-3.394Z"/><path class="e" d="M30.091,178.007a3.259,3.259,0,0,1-.218,1.72c.129-.3-.346.515-.2.308a4.358,4.358,0,0,0-.424.432,2.251,2.251,0,0,1-.849.388c-.411.131-.163.055-.027.037a1.75,1.75,0,0,1-.361.02.792.792,0,0,1-.356-.092,5.765,5.765,0,0,1-2.1-2.369c-.938-1.54-1.9-3.061-2.877-4.579-1.616-2.519-3.337-5.042-4.036-7.878-.009-.038-.095-.46-.027-.132.073.349.12-.276.008.025-.132.353.226-.653.029-.187a1.949,1.949,0,0,1,.749-.947,2.79,2.79,0,0,1,2.987-.29,8.525,8.525,0,0,1,2.68,2.771c.893,1.17,1.761,2.37,2.541,3.619,1.632,2.615,5.786.208,4.145-2.423a53.987,53.987,0,0,0-3.195-4.469,11.587,11.587,0,0,0-4.026-3.776c-3.964-1.849-9.4-.125-10.532,4.426-.475,1.916.275,3.856,1.039,5.589a41.573,41.573,0,0,0,3.1,5.476c1.181,1.852,2.329,3.725,3.507,5.578a9.611,9.611,0,0,0,4.533,4.133,6.519,6.519,0,0,0,6.227-1.333,7.259,7.259,0,0,0,2.482-6.047,2.45,2.45,0,0,0-2.4-2.4,2.423,2.423,0,0,0-2.4,2.4Z"/><path class="e" d="M163.433,88.272c.421-.105.844-.2,1.272-.276.182-.033.366-.061.549-.091.622-.1-.53.048.1-.01a22.183,22.183,0,0,1,2.4-.111c.37.007.741.024,1.11.052q.324.025.646.061c.092.01.184.02.276.032-.331-.046-.36-.048-.087-.008a23.47,23.47,0,0,1,2.359.523,2.4,2.4,0,0,0,1.276-4.628,21.741,21.741,0,0,0-11.179-.173,2.424,2.424,0,0,0-1.676,2.952,2.449,2.449,0,0,0,2.952,1.677Z"/><path class="e" d="M207.569,84.5q.444-.082.893-.143l-.638.085a17.128,17.128,0,0,1,3.365-.105,2.4,2.4,0,0,0,1.7-4.1l-.485-.376a2.391,2.391,0,0,0-1.212-.327,19.524,19.524,0,0,0-4.9.335,2.416,2.416,0,0,0-1.435,1.1,2.453,2.453,0,0,0-.242,1.849,2.426,2.426,0,0,0,1.1,1.434l.574.242a2.4,2.4,0,0,0,1.276,0Z"/><path class="e" d="M130.352,79.868a19.532,19.532,0,0,0-4.9-.335,2.547,2.547,0,0,0-1.7.7,2.4,2.4,0,0,0,0,3.394,2.383,2.383,0,0,0,1.7.7,17.138,17.138,0,0,1,3.366.105l-.638-.085c.3.04.6.088.893.143a2.579,2.579,0,0,0,1.849-.242,2.4,2.4,0,0,0,.861-3.283,2.361,2.361,0,0,0-1.434-1.1Z"/><path class="e" d="M164.608,83.264a7.2,7.2,0,0,0-2.728-4.934,14.214,14.214,0,0,0-5.574-1.99,46.934,46.934,0,0,0-12.634-.8c-3.962.269-8.349.825-11.964,2.571-3.692,1.782-4.411,5.39-4.526,9.13-.1,3.3.027,6.743,1.434,9.781,1.608,3.473,5.281,5.017,8.813,5.819a45.175,45.175,0,0,0,11.816.723c3.62-.142,7.658-.1,10.746-2.282,5.579-3.949,5.553-11.95,4.617-18.014a2.417,2.417,0,0,0-2.952-1.676,2.46,2.46,0,0,0-1.677,2.952c.535,3.466.74,8.73-1.548,11.693-1.473,1.907-4.009,2.286-6.366,2.405a82,82,0,0,1-9.432.118c-2.748-.178-6.3-.584-8.547-2.333-1.731-1.346-1.992-3.979-2.092-6-.061-1.225-.04-2.451,0-3.675.04-1.1-.023-2.48.657-3.422.763-1.058,2.3-1.385,3.464-1.707a37.327,37.327,0,0,1,4.976-1.029,45.4,45.4,0,0,1,11.057-.087,32.869,32.869,0,0,1,5.424,1.094,3.847,3.847,0,0,1,1.674.754,3.9,3.9,0,0,1,.728,2.194,2.419,2.419,0,0,0,2.953,1.676A2.458,2.458,0,0,0,164.608,83.264Z"/><path class="e" d="M176.016,84.54c.208-1.266.35-2.2,1.607-2.7a23.725,23.725,0,0,1,5.023-1.171,44.021,44.021,0,0,1,10.247-.294,28.423,28.423,0,0,1,9.142,1.885c2.477,1.114,2.176,3.861,2.195,6.188.019,2.278.035,5.057-1.275,7.035-1.418,2.143-4.912,2.715-7.252,3.06a49.846,49.846,0,0,1-9.311.2c-2.516-.1-5.764.034-7.8-1.5-3.479-2.628-3.157-8.966-2.578-12.706a2.477,2.477,0,0,0-1.677-2.952,2.417,2.417,0,0,0-2.952,1.676c-.852,5.5-.955,12.163,2.987,16.581,2.428,2.721,6.146,3.422,9.622,3.6a67.276,67.276,0,0,0,11.47-.062c3.637-.44,8.137-1.311,10.683-4.2,2.267-2.573,2.79-6.167,2.872-9.477.084-3.381.21-7.478-2.365-10.04-2.746-2.733-7.475-3.317-11.135-3.8a48.984,48.984,0,0,0-14.151.184,21.178,21.178,0,0,0-6.458,1.784,7.035,7.035,0,0,0-3.525,5.437,2.473,2.473,0,0,0,1.676,2.952A2.42,2.42,0,0,0,176.016,84.54Z"/><path class="e" d="M158.679,122.048a19.4,19.4,0,0,0,9.349,2.163,15.2,15.2,0,0,0,9.427-2.778,2.413,2.413,0,0,0,0-3.394,2.462,2.462,0,0,0-3.394,0c.726-.565.155-.128-.031-.008s-.382.232-.58.335c-.163.086-.873.368-.22.126-.266.1-.528.2-.8.291a14.018,14.018,0,0,1-2.235.51c.351-.052-.086.006-.222.02-.219.021-.439.04-.658.054-.529.034-1.059.047-1.589.044-.475,0-.949-.019-1.423-.051-.217-.015-.435-.032-.652-.054-.018,0-.8-.11-.323-.035a16.013,16.013,0,0,1-2.088-.464c-.293-.087-.578-.192-.867-.291-.616-.211.344.179-.211-.083-.359-.169-.712-.345-1.062-.53a2.452,2.452,0,0,0-3.283.861,2.426,2.426,0,0,0,.861,3.284Z"/><path class="e" d="M166.823,100.005a44,44,0,0,1,1.034,4.732l-.086-.638a2.852,2.852,0,0,1,.018.653l.086-.638a1.66,1.66,0,0,1-.072.294l.242-.574a1.12,1.12,0,0,1-.1.189l.375-.486a.929.929,0,0,1-.154.153l.486-.375a3.27,3.27,0,0,1-.375.2l.573-.242a2.727,2.727,0,0,1-.632.184l.638-.085a2.5,2.5,0,0,1-.593,0l.638.086c-.223-.031-.443-.085-.666-.115a1.812,1.812,0,0,0-.957-.043,1.786,1.786,0,0,0-.893.284,2.4,2.4,0,0,0-.861,3.284,2.3,2.3,0,0,0,1.435,1.1c.506.068,1,.2,1.513.22a4.84,4.84,0,0,0,2.227-.529,3.212,3.212,0,0,0,1.781-2.116,5.328,5.328,0,0,0-.023-2.283c-.257-1.524-.61-3.035-1-4.53a2.4,2.4,0,1,0-4.628,1.276Z"/><path class="e" d="M141.978,86.713c-.759,2.465-.264,8.136,4.406,8.619,6.173-.037,6.5-6.894,4.424-10.118C149.106,82.575,144.1,81.477,141.978,86.713Z"/><path class="e" d="M193.067,86.713c.759,2.465.265,8.136-4.406,8.619-6.173-.037-6.5-6.894-4.423-10.118C185.939,82.575,190.942,81.477,193.067,86.713Z"/></svg>