<?xml version="1.0" encoding="utf-8"?>
<!-- Uploaded to: SVG Repo, www.svgrepo.com, Generator: SVG Repo Mixer Tools -->
<svg width="800px" height="800px" viewBox="-91.09 0 390.187 390.187" xmlns="http://www.w3.org/2000/svg"><defs><style>.a{fill:#957f6e;}.b{fill:#ffffff;}.c{fill:#bdbdbd;}.d{fill:#211715;}</style></defs><path class="a" d="M61.182,204.784c2.917,6.887,5.639,12.9,7.639,16.743l5.153,3.531c1.081-.539,1.812-.923,2.925-1.394a1.318,1.318,0,0,1,1.621.464c1.035,1.207,2.044,2.481,3.3,3.822l.346.368c.222.015.444.029.652.041a23.277,23.277,0,0,1,3.3-2.008c.05.685.137,1.41.242,2.153,2.789-1.794,5.218-3.654,5.748-4.963.779-1.935.745-4.484.731-6.733l0-.259a28.749,28.749,0,0,1-10.458-8.2,34.136,34.136,0,0,1-6.5-12.7l-1.282-.2a8.458,8.458,0,0,1-3.934-1.773,12.76,12.76,0,0,1-3.3-4.33,20.079,20.079,0,0,1-2.047-10.64,6.7,6.7,0,0,1,.7-2.694,4.738,4.738,0,0,1,3.406-2.265,5.054,5.054,0,0,1,3.766.967c2.425-.985,9.193-4.1,11-5.166a78.608,78.608,0,0,0,9.671-6.651l6.6-.749c8.533-2.764,18.116-8.668,22.422-13.932.91,4.89,2.312,9.737,7.214,16.695,2.383,3.383,5.843,7.611,10.682,10.011a5.015,5.015,0,0,1,4.014-1.175,4.74,4.74,0,0,1,3.407,2.265,6.7,6.7,0,0,1,.7,2.694,20.07,20.07,0,0,1-2.047,10.64,12.744,12.744,0,0,1-3.3,4.33,8.458,8.458,0,0,1-3.934,1.773l-.674.1c-.322,1.208-.685,2.225-.863,2.765-1.175,3.19-7.891,14.432-16.254,18.083-.012,2.34-.1,5.09.735,7.135.526,1.3,2.74,3.145,5.27,4.929v-.026h0c.061-1.122.077-2.2.031-3.2a22.663,22.663,0,0,1,3.73,2.385l1.208-1.932a35.213,35.213,0,0,1,5.366-5.7,1.881,1.881,0,0,1,.87-.5,2.331,2.331,0,0,1,1.249.336,5.66,5.66,0,0,0,2.555.461l2.664-5.949c2.244-4.719,4.439-9.96,6.577-15.434l-.073-.3a132.264,132.264,0,0,1-2.007-22.4c-.108-5.793-.217-12.923-.427-15.873-.728-10.223-5.3-21.64-11.877-27.985-2.843-2.744-3.669-4.024-6.765-5.7l-7.428-3.626c-4.572-1.761-8.823-2.608-16.847-2.608-13.154,0-24.862,6.776-30.057,11.75-8.619,8.252-14.087,23.324-13.4,44.108a180.528,180.528,0,0,1-1.595,26.184S61.4,203.658,61.182,204.784Z"/><path class="b" d="M101.821,244.693a75.946,75.946,0,0,1-10.874-2l-.915-.124c5.233,15.367,14.218,33.887,18.09,43.779.215.569.484,1.277.776,2.08,3.115-8.172,12.257-29.073,16.62-46.409l-.931.193c-5.028,2-12.352,2.813-17.5,2.8A50.855,50.855,0,0,1,101.821,244.693Z"/><path class="c" d="M193.218,135.113c-5.373-1.906-11.109-3.687-14.862-4.657a1.764,1.764,0,0,0-2.1.963c-4,9.608-7.395,20.7-13.808,38.928-5.185,14.731-10.892,31.26-16.949,44l-2.664,5.949a5.66,5.66,0,0,1-2.555-.461,2.321,2.321,0,0,0-1.249-.335,1.87,1.87,0,0,0-.87.5,35.213,35.213,0,0,0-5.366,5.7l-1.208,1.932a22.663,22.663,0,0,0-3.73-2.385c.779,17.18-14.77,52.169-18.99,63.258-.274-.827-.527-1.562-.749-2.148-5.426-13.862-20.892-44.666-22-60a24.034,24.034,0,0,0-3.669,2.269l-.629-.67c-1.257-1.341-2.266-2.615-3.3-3.822a1.318,1.318,0,0,0-1.621-.464c-1.113.471-1.844.855-2.925,1.394l-5.153-3.531c-4.813-9.239-13.807-31.083-19.636-47.347-7.109-19.835-12.408-32.27-16.241-43.239a1.771,1.771,0,0,0-2.309-1.046,239,239,0,0,0-23.4,10.229,1.766,1.766,0,0,0-.9,2.09c3.352,10.41,7.674,21.918,18.412,51.642,6.459,17.922,14.345,40.208,18.4,50.761,2.815,7.343,17.63,45.665,17.852,58.478-.889,13.038-11.7,48.376-14.148,61.378-.22,1.171-.392,2.672.634,3.258a2.739,2.739,0,0,0,1.2.262c4.815.308,11.7.615,16.52.923,5.318.34,12.046.663,17.12-.985,10.813-3.511,17-16.151,22.084-26.426.322-1.025.643-2.127.958-3.28l.447.806c1.585,3.836,5.621,13.4,8,18.159a20.23,20.23,0,0,0,4.892,6.163,15.424,15.424,0,0,0,6.948,2.793c13.465,2.689,26.593.628,40.163-1.569a3.3,3.3,0,0,0,1.6-.551,2.433,2.433,0,0,0,.4-2.86c-1.524-10.474-10.027-40.628-13.791-63.542,1.647-16.815,12.291-48.638,14.958-55.987,4.533-13.286,12.747-40.35,18.514-58.6,4.742-15.01,7.071-18.86,14.606-42.7a1.8,1.8,0,0,0-1.041-2.193C198.784,137.16,196.052,136.119,193.218,135.113Z"/><path class="b" d="M70.659,193.68a8.458,8.458,0,0,0,3.934,1.773l1.282.2a34.136,34.136,0,0,0,6.5,12.7,28.749,28.749,0,0,0,10.458,8.2l0,.259c.014,2.249.048,4.8-.732,6.733-.529,1.31-2.96,3.171-5.752,4.966a86.471,86.471,0,0,0,3.386,13.776l1.2.413a70.678,70.678,0,0,0,16.141,2.319c5.147.013,12.471-.8,17.5-2.8l.472-.193c.643-2.071,1.235-4.045,1.768-5.9a58.935,58.935,0,0,0,1-7.654c-2.53-1.784-4.744-3.629-5.27-4.929-.831-2.045-.747-4.795-.735-7.135,8.363-3.651,15.079-14.893,16.254-18.083.178-.54.541-1.557.863-2.765l.674-.1a8.45,8.45,0,0,0,3.933-1.773,12.735,12.735,0,0,0,3.3-4.33,20.068,20.068,0,0,0,2.047-10.64,6.7,6.7,0,0,0-.7-2.694,4.74,4.74,0,0,0-3.407-2.265,5.015,5.015,0,0,0-4.014,1.175c-4.839-2.4-8.3-6.628-10.682-10.011-4.9-6.958-6.3-11.8-7.214-16.695-4.306,5.264-13.889,11.168-22.422,13.932l-6.6.749a78.608,78.608,0,0,1-9.671,6.651c-1.8,1.066-8.571,4.181-11,5.166a5.054,5.054,0,0,0-3.766-.967,4.738,4.738,0,0,0-3.406,2.265,6.681,6.681,0,0,0-.7,2.694,20.067,20.067,0,0,0,2.046,10.64A12.747,12.747,0,0,0,70.659,193.68Z"/><path class="b" d="M140.771,174.926a5.015,5.015,0,0,1,4.014-1.175,4.74,4.74,0,0,1,3.407,2.265,6.7,6.7,0,0,1,.7,2.694,20.068,20.068,0,0,1-2.047,10.64,12.735,12.735,0,0,1-3.3,4.33,8.45,8.45,0,0,1-3.933,1.773l-.674.1c-.322,1.208-.685,2.225-.863,2.765-1.175,3.19-7.891,14.432-16.254,18.083-.012,2.34-.1,5.09.735,7.135.527,1.3,2.739,3.148,5.274,4.929a73.825,73.825,0,0,1-2.263,13.342l-.51.21-.472.193c-5.028,2-12.352,2.813-17.5,2.8A70.678,70.678,0,0,1,90.947,242.7l-1.207-.416a86.708,86.708,0,0,1-3.391-13.77c2.8-1.794,5.229-3.658,5.759-4.969.78-1.935.746-4.484.732-6.733l0-.259a28.749,28.749,0,0,1-10.458-8.2,34.136,34.136,0,0,1-6.5-12.7l-1.283-.2a8.459,8.459,0,0,1-3.933-1.773,12.747,12.747,0,0,1-3.3-4.33,20.078,20.078,0,0,1-2.047-10.64,6.7,6.7,0,0,1,.7-2.694,4.738,4.738,0,0,1,3.406-2.265,5.054,5.054,0,0,1,3.766.967c2.425-.985,9.193-4.1,11-5.166a78.5,78.5,0,0,0,9.671-6.651l6.6-.749c8.533-2.764,18.116-8.668,22.422-13.932.91,4.89,2.312,9.737,7.214,16.695,2.383,3.383,5.843,7.611,10.682,10.011"/><path class="b" d="M180.993,123.272c-.359,1.1-1.528,4.523-2.207,6.5l-.249.725a197.746,197.746,0,0,1,22.079,7.446c.116-.414.2-.694.2-.694.658-2.139,1.867-5.811,2.165-6.729a.937.937,0,0,0-.6-1.151c-4.279-1.711-16.664-6.056-20.141-6.909a.957.957,0,0,0-1.18.6C181.044,123.117,181.021,123.188,180.993,123.272Z"/><path class="b" d="M27.06,123.684c-.132-.372-.238-.668-.3-.846a.95.95,0,0,0-1.2-.56c-3.445.988-15.52,6.064-19.734,7.935a.959.959,0,0,0-.55,1.186c.367,1.011,1.61,4.633,2.244,6.645l.523,1.663c5.964-3.066,15.109-6.966,21.347-9.344l-.549-1.587C28.392,127.474,27.547,125.061,27.06,123.684Z"/><path class="d" d="M154.222,367.685a199.4,199.4,0,0,1,1.233,20.571c.039,2.571,4.04,2.579,4,0a199.4,199.4,0,0,0-1.233-20.571,2.061,2.061,0,0,0-2-2,2.012,2.012,0,0,0-2,2Z"/><path class="d" d="M68.351,388.256c.2-6.053.544-12.1,1.174-18.127a2.014,2.014,0,0,0-2-2,2.045,2.045,0,0,0-2,2c-.63,6.024-.976,12.074-1.174,18.127-.084,2.574,3.916,2.571,4,0Z"/><path class="d" d="M142.185,176.34a2.933,2.933,0,0,1,4.2.552,5.863,5.863,0,0,1,.576,2.987,17.275,17.275,0,0,1-.247,3.548c-.771,4.221-2.945,9.258-7.63,10.1a2.017,2.017,0,0,0-1.4,2.46,2.045,2.045,0,0,0,2.46,1.4c6.928-1.243,10.229-9.079,10.751-15.359.264-3.181.043-6.869-2.715-8.939a7.053,7.053,0,0,0-8.825.428,2.015,2.015,0,0,0,0,2.828,2.043,2.043,0,0,0,2.828,0Z"/><path class="d" d="M137.562,191.718a19.12,19.12,0,0,1-1.11,5.168c-.1.3-.2.6-.3.906-.088.258-.091.24.012,0-.147.351-.315.693-.485,1.033a42.982,42.982,0,0,1-3.764,6.049c-3.259,4.458-7.676,9.171-13.249,10.477-2.5.587-1.444,4.445,1.064,3.857,6.533-1.531,11.611-6.872,15.46-12.073,3.351-4.525,6.142-9.653,6.375-15.412.1-2.574-3.9-2.57-4,0Z"/><path class="d" d="M74.85,173.512a7.057,7.057,0,0,0-8.826-.428c-2.758,2.066-2.978,5.762-2.714,8.939.521,6.28,3.822,14.116,10.751,15.359a2.057,2.057,0,0,0,2.46-1.4,2.017,2.017,0,0,0-1.4-2.46c-4.685-.84-6.859-5.877-7.629-10.1a17.114,17.114,0,0,1-.251-3.353,6.714,6.714,0,0,1,.5-3.049,2.916,2.916,0,0,1,4.279-.685,2.056,2.056,0,0,0,2.829,0,2.016,2.016,0,0,0,0-2.828Z"/><path class="d" d="M72.866,191.366a38.749,38.749,0,0,0,8.376,18.723c4.619,5.413,10.714,9.348,17.879,10.114a2.013,2.013,0,0,0,2-2,2.047,2.047,0,0,0-2-2c-6.218-.665-11.433-4.587-15.327-9.269-3.934-4.729-6.026-10.639-7.071-16.631a2.016,2.016,0,0,0-2.46-1.4,2.045,2.045,0,0,0-1.4,2.46Z"/><path class="d" d="M129.922,128.379a22.846,22.846,0,0,1,5.133,4.179,39.988,39.988,0,0,1,4.712,5.326,44.932,44.932,0,0,1,6.34,14.024,57.679,57.679,0,0,1,1.674,13.551c.154,5.7.125,11.4.416,17.094a129.863,129.863,0,0,0,1.881,16.6c.46,2.529,4.316,1.457,3.858-1.063-1.941-10.669-1.863-21.447-2.145-32.247a64.219,64.219,0,0,0-1.724-14.6,49.235,49.235,0,0,0-6.321-14.593,41.89,41.89,0,0,0-5.579-6.628,28.333,28.333,0,0,0-6.226-5.089c-2.254-1.248-4.274,2.2-2.019,3.454Z"/><path class="d" d="M63.536,202.991A177.62,177.62,0,0,0,65.2,177.5a140.959,140.959,0,0,1,.421-14.225,67.272,67.272,0,0,1,2.36-12.061c1.828-6.183,4.736-12.224,9.274-16.883,5.069-5.2,12.154-8.666,19.1-10.52a47.684,47.684,0,0,1,15.481-1.249,37.6,37.6,0,0,1,11.133,2.39,2.017,2.017,0,0,0,2.461-1.4,2.045,2.045,0,0,0-1.4-2.46,48.128,48.128,0,0,0-24.835-2,48.71,48.71,0,0,0-22.566,10.367c-11.993,10-15.329,27.491-15.485,42.289-.107,10.093.019,20.158-1.471,30.176a2.066,2.066,0,0,0,1.4,2.46,2.016,2.016,0,0,0,2.461-1.4Z"/><path class="d" d="M90.415,244.625a65.836,65.836,0,0,0,17.531,2.385,49.954,49.954,0,0,0,17.172-2.866,2.059,2.059,0,0,0,1.4-2.46,2.014,2.014,0,0,0-2.46-1.4c-10.242,3.981-22.143,3.233-32.576.481-2.492-.658-3.554,3.2-1.064,3.857Z"/><path class="d" d="M102.67,295.871a5.729,5.729,0,0,0-6.4,2.264,5.31,5.31,0,0,0,1.1,6.644,5.917,5.917,0,0,0,5.57,1.436,5.336,5.336,0,0,0,3.529-4.882,5.489,5.489,0,0,0-3.792-5.462,2.013,2.013,0,0,0-2.46,1.4,2.051,2.051,0,0,0,1.4,2.46c.1.035.191.071.286.111l-.478-.2a3.75,3.75,0,0,1,.383.2c.065.039.126.083.19.123.232.143-.2-.135-.2-.157,0,.009.468.467.516.519.138.152-.291-.412-.19-.245.026.043.06.084.088.127.045.067.087.137.127.207a3.1,3.1,0,0,1,.153.3l-.2-.478a3.6,3.6,0,0,1,.224.884l-.071-.532a4.507,4.507,0,0,1-.008,1.1l.072-.531a3.674,3.674,0,0,1-.241.847l.2-.478a4.069,4.069,0,0,1-.2.408q-.056.1-.117.189c-.235.354.22-.239.1-.119s-.269.262-.4.395c.39-.4.263-.2.1-.1a3.208,3.208,0,0,1-.378.194l.478-.2a3.278,3.278,0,0,1-.7.191l.531-.072a3.486,3.486,0,0,1-.866-.009l.531.072a4.458,4.458,0,0,1-1-.287l.478.2a5.566,5.566,0,0,1-.916-.5c-.139-.093-.307-.293.194.154-.045-.04-.092-.076-.137-.116a3.667,3.667,0,0,1-.3-.3c-.055-.06-.1-.127-.16-.187.4.442.207.273.112.124a3.446,3.446,0,0,1-.26-.487l.2.478a3.891,3.891,0,0,1-.255-.941l.071.532a3.653,3.653,0,0,1,0-.868l-.071.531a3.314,3.314,0,0,1,.183-.683l-.2.478c.082-.187.19-.346.288-.524.069-.124-.367.428-.071.1.059-.063.12-.125.183-.183.133-.123.35-.218-.137.09.074-.047.142-.1.216-.149a3.93,3.93,0,0,1,.549-.288l-.477.2a4.239,4.239,0,0,1,1.038-.279l-.532.071a4.091,4.091,0,0,1,.989,0l-.532-.072a4.041,4.041,0,0,1,.613.144,2.016,2.016,0,0,0,2.46-1.4A2.045,2.045,0,0,0,102.67,295.871Z"/><path class="d" d="M83.235,226.535c-.674-.722-1.321-1.469-1.957-2.225a13.357,13.357,0,0,0-1.7-1.93,3.329,3.329,0,0,0-2.077-.833,4.814,4.814,0,0,0-2.016.563c-.855.377-1.687.8-2.523,1.221a2.012,2.012,0,0,0-.718,2.736,2.051,2.051,0,0,0,2.737.718c.714-.357,1.424-.721,2.15-1.053.189-.087.378-.173.57-.254.26-.109-.325.136-.08.048s-.452-.017-.12.021c-.056-.007-.474-.1-.222-.012l-.293-.12q.193.122-.036-.048c-.275-.241.09.105.153.175,1.119,1.259,2.15,2.589,3.3,3.822a2.017,2.017,0,0,0,2.828,0,2.042,2.042,0,0,0,0-2.829Z"/><path class="d" d="M134.526,226.7c.206-.273.62-.79.978-1.213q.633-.747,1.308-1.459a24.3,24.3,0,0,1,2.768-2.62c-.2.151.063-.065.089-.048l-.739.084.21.059c-.249-.152.428.182.373.159.173.073.345.149.521.214a7.575,7.575,0,0,0,2.006.405,7.855,7.855,0,0,0,4.145-.884,2.013,2.013,0,0,0,.717-2.737,2.049,2.049,0,0,0-2.736-.717c-.3.148.014.016-.17.083-.126.047-.254.088-.384.125-.162.047-.326.085-.492.119-.125.026-.286.027-.069.012a6.824,6.824,0,0,1-1.011,0c.218.016.057.013-.069-.014-.165-.035-.328-.073-.49-.12s-.322-.1-.479-.163c.2.079-.056-.032-.115-.057a4.842,4.842,0,0,0-1.371-.4,3.546,3.546,0,0,0-2.765,1.056,36.414,36.414,0,0,0-5.679,6.1,2.005,2.005,0,0,0,.717,2.736,2.061,2.061,0,0,0,2.737-.717Z"/><path class="d" d="M101.544,151.679c-3.768,5.764-9.175,10.263-14.9,13.993a88.876,88.876,0,0,1-13.723,7.012,2.066,2.066,0,0,0-1.4,2.46,2.012,2.012,0,0,0,2.46,1.4,90.914,90.914,0,0,0,15.036-7.649c6.178-4.07,11.9-8.958,15.976-15.194,1.413-2.161-2.049-4.168-3.453-2.019Z"/><path class="d" d="M121.346,146.946a37.941,37.941,0,0,1-9.213,7.516,57.524,57.524,0,0,1-12.212,5.762c-2.434.8-1.392,4.663,1.064,3.857a62.073,62.073,0,0,0,13.167-6.165,41.427,41.427,0,0,0,10.022-8.142,2.053,2.053,0,0,0,0-2.828,2.015,2.015,0,0,0-2.828,0Z"/><path class="d" d="M141.78,173.2c-4.926-2.509-8.478-6.87-11.413-11.446a38.283,38.283,0,0,1-5.422-13.31c-.508-2.521-4.365-1.454-3.857,1.063a41.657,41.657,0,0,0,6.072,14.647c3.252,4.981,7.212,9.755,12.6,12.5,2.29,1.165,4.316-2.285,2.019-3.454Z"/><path class="d" d="M147.23,215.36c7.683-16.218,13.333-33.414,19.2-50.348,2.478-7.152,4.862-14.337,7.379-21.476.979-2.778,1.985-5.547,3.055-8.291q.351-.9.71-1.791c.119-.294.245-.585.359-.88.25-.647.164-.117-.106-.189,1.515.4,3.024.825,4.526,1.274q5.454,1.632,10.815,3.554c1.783.638,3.557,1.3,5.316,2,.255.1,1.694.583,1.725.655a11.166,11.166,0,0,0-.392,1.093q-.286.9-.575,1.8-3.149,9.837-6.632,19.56c-1.636,4.536-3.324,9.052-4.88,13.617-2.136,6.27-4.058,12.615-6.027,18.94-4.4,14.146-8.706,28.33-13.355,42.4q-.633,1.914-1.282,3.823c-.832,2.442,3.03,3.49,3.857,1.063,4.771-14,9.027-28.177,13.417-42.3,3.658-11.768,7.4-23.46,11.607-35.044q3.476-9.576,6.6-19.272.531-1.645,1.056-3.3a6.081,6.081,0,0,0,.465-3.451c-.551-2.121-2.723-2.73-4.519-3.448-3.72-1.488-7.508-2.81-11.317-4.051q-2.727-.888-5.479-1.7a18.644,18.644,0,0,0-4.871-1.2c-2.254,0-3.209,1.645-3.958,3.486q-.811,1.989-1.57,4c-2.434,6.411-4.6,12.924-6.809,19.413q-4.488,13.155-9.155,26.247c-3.111,8.736-6.287,17.468-9.975,25.979q-1.271,2.929-2.634,5.816c-1.1,2.314,2.351,4.346,3.453,2.019Z"/><path class="d" d="M45.085,244.111c-5.968-15.534-11.393-31.282-17.02-46.941-5.167-14.377-10.473-28.7-15.575-43.1q-1.134-3.2-2.237-6.412-.492-1.44-.973-2.884a21.608,21.608,0,0,0-.906-2.759c-.155-.313-.03-.272-.126-.16a4.248,4.248,0,0,1,1.123-.581q1.3-.665,2.624-1.3c1.89-.909,3.8-1.78,5.714-2.631q5.641-2.5,11.4-4.739c.5-.193,1.638-.89,2.157-.826-.262-.033-.173-.265-.069.213a10.063,10.063,0,0,0,.418,1.178q.8,2.228,1.629,4.442c1.218,3.254,2.472,6.5,3.727,9.735,3.222,8.325,6.417,16.661,9.454,25.056,5.689,15.727,11.676,31.455,18.893,46.556.574,1.2,1.162,2.4,1.776,3.578,1.186,2.285,4.639.265,3.454-2.019-3.339-6.43-6.157-13.147-8.934-19.833-3.495-8.417-6.829-16.906-9.937-25.474Q46.85,161.906,41.765,148.7c-1.333-3.444-2.672-6.885-3.98-10.339q-.882-2.329-1.738-4.668c-.558-1.531-.937-3.658-2.116-4.83-1.719-1.709-3.8-.925-5.732-.179q-2.862,1.1-5.695,2.284c-4.163,1.726-8.3,3.523-12.365,5.471-1.647.788-4.12,1.562-5.185,3.118-1.053,1.54-.585,3.068-.059,4.673q.977,2.982,2,5.946c4.536,13.134,9.4,26.159,14.123,39.225,6.211,17.161,12.214,34.4,18.592,51.5q.8,2.137,1.613,4.268a2.059,2.059,0,0,0,2.461,1.4,2.016,2.016,0,0,0,1.4-2.46Z"/><path class="d" d="M119.815,216.659c-.012,2.664-.156,5.714,1.133,8.14a9.869,9.869,0,0,0,2.22,2.567,41.241,41.241,0,0,0,3.648,2.83,2.009,2.009,0,0,0,2.736-.717,2.054,2.054,0,0,0-.717-2.737,28.861,28.861,0,0,1-2.766-2.14,14.789,14.789,0,0,1-1.151-1.116c-.071-.077-.139-.156-.208-.235-.17-.192-.14-.2,0,.008-.107-.158-.209-.314-.306-.479-.029-.049-.132-.291-.031-.047.113.271-.029-.108-.045-.158-.09-.269-.164-.543-.227-.82-.036-.158-.067-.317-.1-.476-.006-.034-.07-.413-.041-.222s-.023-.2-.026-.231c-.018-.168-.034-.337-.047-.5-.095-1.218-.08-2.441-.074-3.662a2,2,0,0,0-4,0Z"/><path class="d" d="M90.835,216.809c.011,1.228.025,2.459-.081,3.684-.014.164-.033.327-.049.491.021-.214.017-.1-.007.049-.047.282-.1.563-.166.841s-.148.531-.229.8c-.146.475.1-.119.012,0a2.666,2.666,0,0,0-.133.24c-.041.068-.089.133-.132.2-.191.293.211-.208.028-.042-.163.148-.3.335-.456.491a15,15,0,0,1-1.177,1.048c.008-.007-.39.31-.258.208s-.294.22-.284.212c-.256.191-.516.377-.778.561-.584.411-1.179.807-1.779,1.2a2,2,0,1,0,2.019,3.454A45.558,45.558,0,0,0,91.2,227.5a10.466,10.466,0,0,0,2.437-2.567,9.646,9.646,0,0,0,1.069-3.944,34.209,34.209,0,0,0,.13-4.175,2,2,0,0,0-4,0Z"/><path class="d" d="M125.861,225.239a48.021,48.021,0,0,1-1.2,11.58,140.275,140.275,0,0,1-3.709,13.9c-2.886,9.167-6.355,18.141-9.936,27.056-1.364,3.4-2.771,6.774-4.075,10.193a2.017,2.017,0,0,0,1.4,2.46,2.045,2.045,0,0,0,2.46-1.4c6.285-16.477,13.688-32.647,17.468-49.959a54.885,54.885,0,0,0,1.594-13.833c-.106-2.565-4.106-2.578-4,0Z"/><path class="d" d="M84.119,226.351c.555,7.248,3.033,14.334,5.533,21.1,2.987,8.093,6.424,16.015,9.888,23.913,2.759,6.293,5.7,12.549,7.948,19.05,1.28,3.7,2.364,7.4,2.11,11.347-.271,4.228-.722,8.468-1.317,12.663a169.847,169.847,0,0,1-5.791,26.545c-.768,2.463,3.092,3.516,3.857,1.063a179.43,179.43,0,0,0,5.514-24.731c.649-4.014,1.089-8.067,1.461-12.115.157-1.7.341-3.421.354-5.132a24.267,24.267,0,0,0-.979-6.327c-1.845-6.985-4.98-13.623-7.875-20.218-3.4-7.751-6.831-15.5-9.9-23.387-1.667-4.29-3.24-8.625-4.545-13.039a53.458,53.458,0,0,1-2.261-10.737c-.195-2.55-4.2-2.571-4,0Z"/><path class="d" d="M126.85,226.967a30.721,30.721,0,0,1,7.4,5.592c1.227,1.177,2.406,2.406,3.519,3.69.672.774,2.164,2.126,2.32,3.157v-1.063c-.126.776-1.162,1.811-1.639,2.467q-.825,1.136-1.669,2.257c-.75,1-1.527,1.982-2.256,3a2.021,2.021,0,0,0,.717,2.737c.733.432,1.5.8,2.235,1.233.363.218.906.617,1.119.731.433.231.671,1.232-.03-.654-.106-.284.119-.459-.051-.045-.969,2.355-2.178,4.826-3.4,7.181a126.761,126.761,0,0,1-9.09,14.147q-3.747,5.346-7.707,10.541a2.011,2.011,0,0,0,.717,2.736,2.05,2.05,0,0,0,2.737-.718c4.757-6.207,9.307-12.6,13.543-19.178a73.026,73.026,0,0,0,3.749-6.476c.742-1.461,1.467-2.931,2.15-4.42a15.824,15.824,0,0,0,1.269-3.161c.606-2.862-3.3-4.233-5.225-5.371l.718,2.736c1.547-2.154,3.206-4.225,4.74-6.39,1.079-1.522,1.782-2.94.676-4.694a27.744,27.744,0,0,0-2.247-2.933c-3.368-4.027-7.523-8.2-12.276-10.553-2.3-1.139-4.328,2.31-2.019,3.454Z"/><path class="d" d="M85.11,224.624a36.9,36.9,0,0,0-11.948,10.149,15.9,15.9,0,0,0-2.063,2.966c-.812,1.73.178,3,1.278,4.265.949,1.087,1.912,2.162,2.872,3.238.34.381.68.762,1.015,1.147q.234.27.463.543c.283.335-.1-.159.109.133l.718-2.737c-2.178,1.415-5.515,3.024-4.883,6.088a27.765,27.765,0,0,0,3.216,7.532c3.541,6.408,7.415,12.657,11.512,18.723a118.241,118.241,0,0,0,7.824,10.521c1.671,1.963,4.488-.878,2.828-2.828a146.257,146.257,0,0,1-12.43-17.807q-2.593-4.173-5.043-8.433a54.591,54.591,0,0,1-2.91-5.447,23.232,23.232,0,0,1-.977-2.7,3.63,3.63,0,0,0-.139-.516c-.152-.312-.009-.071-.11.307-.181.67-.216.456.216.063a22.088,22.088,0,0,1,2.915-2.05,2.018,2.018,0,0,0,.717-2.736c-.678-.926-1.449-1.777-2.212-2.632-.514-.576-1.03-1.151-1.542-1.728-.436-.491-1.718-1.531-1.828-2.142v1.063c.141-.983,1.437-2.221,2.077-2.971a43.109,43.109,0,0,1,3.3-3.444,29.779,29.779,0,0,1,7.042-5.114c2.308-1.141.283-4.592-2.018-3.454Z"/><path class="d" d="M41.227,245.148c3.768,9.829,7.43,19.7,10.736,29.694,2.028,6.129,3.963,12.307,5.469,18.588.313,1.308.606,2.622.862,3.942q.169.87.314,1.743c.046.275.088.551.129.826.066.436.014.025.075.55a23.458,23.458,0,0,1-.168,5.882c-.923,6.222-2.421,12.366-3.924,18.468-1.749,7.1-3.629,14.16-5.474,21.232-1.467,5.625-2.992,11.255-4.137,16.957-.328,1.634-.769,3.493.062,5.052,1.175,2.2,3.948,1.943,6.084,2.065,4.418.252,8.84.453,13.257.725,8.512.524,17.57.986,24.793-4.324,6.479-4.763,10.685-11.939,14.3-18.967.865-1.679,1.7-3.373,2.538-5.066,1.137-2.3-2.312-4.329-3.454-2.019-3.379,6.837-6.769,14.018-12.086,19.6a21.712,21.712,0,0,1-8.641,5.854c-4.137,1.383-8.65,1.345-12.96,1.172-4.227-.168-8.452-.477-12.677-.7-2.13-.113-4.259-.224-6.388-.352a5.719,5.719,0,0,0-1.39-.1c-.213.155.169.211.161.233a3.158,3.158,0,0,0-.006-.556A12.979,12.979,0,0,1,49,363.9c1.125-5.533,2.6-11,4.02-16.46,3.35-12.854,7.165-25.734,9.3-38.863a28.922,28.922,0,0,0,.625-6.722,52.408,52.408,0,0,0-1.079-6.932,182.274,182.274,0,0,0-4.9-17.6c-3.392-10.595-7.221-21.049-11.2-31.436l-.69-1.8a2.059,2.059,0,0,0-2.461-1.4,2.016,2.016,0,0,0-1.4,2.46Z"/><path class="d" d="M103.894,339.563c2.4,5.806,4.831,11.618,7.543,17.287,1.644,3.435,3.94,6.834,7.212,8.917,3.542,2.253,8.216,2.738,12.288,3.2,9.327,1.062,18.71.079,27.949-1.289q3.5-.517,6.988-1.095c2.036-.333,3.808-1.217,4.158-3.455a12.414,12.414,0,0,0-.509-3.936c-.188-1.083-.4-2.161-.62-3.237-2.774-13.519-6.384-26.861-9.325-40.345-.825-3.783-1.614-7.574-2.34-11.377q-.523-2.738-1-5.484a11.479,11.479,0,0,1,.106-3.742,167,167,0,0,1,3.906-18.264c2.867-11,6.226-21.9,9.976-32.629q.34-.975.691-1.947c.878-2.424-2.986-3.469-3.857-1.063-3.379,9.329-6.312,18.848-8.993,28.4-1.713,6.1-3.305,12.253-4.542,18.472-.552,2.774-1.023,5.564-1.356,8.373a16.09,16.09,0,0,0,.438,4.77q.472,2.673.993,5.336c2.76,14.2,6.322,28.216,9.6,42.3.6,2.591,1.2,5.184,1.739,7.789.224,1.072.438,2.146.632,3.224q.112.62.212,1.24a8.668,8.668,0,0,1,.324,1.5,7.755,7.755,0,0,1-1.788.3q-1.809.292-3.62.577c-2.295.359-4.594.7-6.9,1a118.54,118.54,0,0,1-13.335,1.033,68.52,68.52,0,0,1-13.316-1.013,20.337,20.337,0,0,1-5.637-1.606,12.882,12.882,0,0,1-4.129-3.689c-1.933-2.486-3.125-5.558-4.4-8.412q-1.983-4.43-3.86-8.9-.693-1.643-1.375-3.29a2.064,2.064,0,0,0-2.46-1.4,2.013,2.013,0,0,0-1.4,2.46Z"/><path class="b" d="M14.439,2.566c-.005,11.225,1.173,99.116,1.17,104.865,17.058-.007,167.633-.9,177.752-.9,0-9.186-.278-97.078-.365-104.527C184.06,1.983,29.708,2.448,14.439,2.566Z"/><path class="d" d="M12.439,2.566c0,4.714.065,9.429.114,14.143q.129,12.287.28,24.574Q13,55.25,13.172,69.215q.149,12.108.293,24.217c.053,4.475.119,8.951.142,13.427,0,.191,0,.381,0,.572a2.03,2.03,0,0,0,2,2c7.773,0,15.546-.055,23.319-.093q20.714-.1,41.427-.214,23.8-.127,47.594-.259,20.714-.112,41.427-.223,11.5-.061,23-.11l.985,0a2.03,2.03,0,0,0,2-2c0-4.393-.016-8.787-.027-13.18q-.032-12.031-.071-24.062-.043-13.927-.092-27.855-.043-12.28-.094-24.56c-.02-4.725-.033-9.451-.074-14.176Q195,2.351,195,2a2.031,2.031,0,0,0-2-2c-6.582-.014-13.165.021-19.748.038q-20.153.051-40.3.111Q108.866.223,84.789.3q-21.648.07-43.3.147Q28.623.5,15.757.557L14.439.566c-2.573.02-2.579,4.02,0,4,7.577-.058,15.155-.074,22.733-.1q20.921-.08,41.842-.145,24.12-.08,48.242-.15,20.969-.061,41.937-.118,11.463-.03,22.925-.048H193l-2-2c.048,4.12.052,8.241.07,12.362q.052,11.82.092,23.64.051,13.914.095,27.83.039,12.465.074,24.932.021,7.472.033,14.944,0,.409,0,.819l2-2c-6.681,0-13.361.057-20.041.091q-19.875.1-39.75.214l-47.5.258q-21.459.115-42.919.225-13.032.065-26.066.111l-1.479,0,2,2c0-3.854-.071-7.71-.115-11.563q-.135-11.623-.281-23.245Q17.044,58.7,16.874,44.77q-.151-12.694-.292-25.389c-.057-5.282-.124-10.566-.142-15.849,0-.322,0-.644,0-.966C16.439-.008,12.439-.012,12.439,2.566Z"/><path class="b" d="M204.756,92.215c-2.738-3.29-5.768-6.213-8.933-7.166-3.22-.97-8.555-.1-10.467,1.472a2.433,2.433,0,0,0-.491.534c-.719,1.1.1,2.4,1.119,3.677l.61.765c-1.39-.107-3.725.634-4.42,1.756-.792,1.278-.423,3.878.344,5.1l.132.312a4.1,4.1,0,0,0-1.01.418c-1.4.808-2.158,3.959-.737,6.351-2.46.913-3.078,4.823-.375,6.6a10.137,10.137,0,0,1,2.821,2.265c.823,1.333.5,1.6.634,3.156.222,2.48,1.12,3.436,3.174,4.526,0,0-.214.961-.427,1.836,3.586,1.167,8.249,2.8,11.813,4.1.472-1.252.989-2.619.989-2.619,1.4-2.936,5.631-17.189,6.02-21.126C206.044,99.183,206.527,94.689,204.756,92.215Z"/><path class="d" d="M181.092,107.641c1.1.3,2.173.7,3.236,1.1q.5.192,1,.392.294.119.586.24l.093.039.1.041q1.23.526,2.434,1.105a2,2,0,1,0,2.019-3.453,51.259,51.259,0,0,0-8.4-3.324,2,2,0,1,0-1.064,3.857Z"/><path class="d" d="M187.4,89.318c-.193-.248-.795-.915-.777-1.225.01-.161-.068.02-.067.018s.224-.154.289-.2a7.713,7.713,0,0,1,2.43-.9,12.567,12.567,0,0,1,5.429-.195,12.3,12.3,0,0,1,5.6,3.493c1.475,1.421,3.139,2.875,3.533,4.961a25.813,25.813,0,0,1-.1,7.049c-.058.615-.125,1.229-.18,1.844-.049.544.036-.157-.028.217q-.15.882-.336,1.756c-.694,3.238-1.6,6.435-2.539,9.608-.534,1.8-1.09,3.6-1.687,5.384-.234.7-.474,1.395-.73,2.085-.092.247-.189.492-.283.738-.162.421.125-.247-.144.328a2.058,2.058,0,0,0,.717,2.737,2.018,2.018,0,0,0,2.737-.718,67.586,67.586,0,0,0,3.247-9.49,98.327,98.327,0,0,0,2.817-11.017,51.867,51.867,0,0,0,.667-7.156c.077-2.4-.035-5.1-1.348-7.2a24.354,24.354,0,0,0-6.477-6.419,12.74,12.74,0,0,0-7.241-2.379,16.3,16.3,0,0,0-7.769,1.627,4.37,4.37,0,0,0-2.544,3.442c-.1,1.737.947,3.135,1.959,4.432a2.01,2.01,0,0,0,2.828,0,2.05,2.05,0,0,0,0-2.828Z"/><path class="d" d="M198.566,93.572a43.609,43.609,0,0,0-6.407-2.9,23.849,23.849,0,0,0-3.08-.8,11.661,11.661,0,0,0-3.405-.343c-2.129.229-4.589,1.149-5.485,3.257a7.747,7.747,0,0,0,.6,6.571c1.311,2.213,4.77.2,3.454-2.018a3.865,3.865,0,0,1-.24-.454c.156.366-.056-.227-.061-.248-.059-.2-.1-.4-.147-.606-.086-.379-.023.109-.045-.316-.011-.212-.024-.423-.019-.637,0-.048.046-.566.014-.344-.025.177.087-.325.1-.392.061-.22,0,.26.049-.081-.168.2-.176.214-.022.044l.121-.114c-.282.272.1-.056.174-.1a4.7,4.7,0,0,1,.513-.266c-.316.139.262-.084.27-.086q.288-.093.582-.16c.046-.011.554-.107.306-.07-.215.033.306-.02.368-.022s.5.012.353,0c3.484.28,6.838,1.883,9.981,3.538a2.045,2.045,0,0,0,2.737-.718,2.022,2.022,0,0,0-.718-2.736Z"/><path class="d" d="M194.753,99.946a60.482,60.482,0,0,0-5.924-2.158c-2.038-.655-4.022-1.513-6.21-1.154-4.551.747-5.407,6.272-3.467,9.765a2,2,0,1,0,3.454-2.019s-.282-.562-.152-.257a4.12,4.12,0,0,1-.159-.474c-.055-.189-.1-.381-.133-.575-.041-.22,0,.231-.009-.139,0-.19-.013-.376-.007-.566,0-.051.042-.549.012-.283s.043-.21.054-.261c.039-.168.091-.328.138-.494.131-.468-.19.284.044-.117a2.074,2.074,0,0,0,.187-.328c.064-.2-.259.242-.016.011.044-.049.091-.1.14-.141.112-.1.06-.064-.158.114.1-.2.6-.274.813-.322.142-.028.144-.03,0-.009l.213-.012c.213,0,.42,0,.633.02-.276-.025.09.02.191.041.17.035.338.077.505.122.39.105.773.236,1.155.367q1.158.4,2.323.766a45.239,45.239,0,0,1,4.349,1.557,2.055,2.055,0,0,0,2.737-.718,2.023,2.023,0,0,0-.718-2.736Z"/><path class="d" d="M188.166,120.252c-.376-.2-.736-.423-1.1-.651-.393-.248.114.129-.184-.143a4.615,4.615,0,0,1-.427-.435c-.093-.108-.075-.087.053.066-.049-.072-.094-.145-.136-.22s-.087-.151-.125-.23q.1.266.025.06a6.731,6.731,0,0,1-.272-1.04c-.106-.726,0-1.786-.181-2.626a5.675,5.675,0,0,0-1.445-2.632,13.758,13.758,0,0,0-2.5-1.875c.021.014-.481-.314-.288-.165a3.3,3.3,0,0,1-.448-.429c.213.244-.108-.177-.148-.233-.246-.34.012.149-.108-.213a4.029,4.029,0,0,1-.137-.54c.076.418.01-.1.01-.2,0-.149.075-.535,0-.188.038-.175.087-.345.136-.518.093-.328-.125.135.13-.242a2.415,2.415,0,0,1,.141-.22q-.18.225-.04.066c.047-.048.429-.374.249-.247s.34-.168.4-.2a2.017,2.017,0,0,0,.718-2.736,2.046,2.046,0,0,0-2.737-.718,5.575,5.575,0,0,0-2.985,5.365,5.838,5.838,0,0,0,1.1,3.09,10.554,10.554,0,0,0,2.77,2.29,4.2,4.2,0,0,1,1.052.9c-.272-.357.264.54.154.291a3.438,3.438,0,0,0,.116.416c-.126-.536-.026.118-.024.257,0,.2,0,.4.01.6a13.011,13.011,0,0,0,.23,1.947,7.048,7.048,0,0,0,3.966,4.806c2.266,1.222,4.288-2.23,2.019-3.454Z"/><path class="b" d="M9.043,128.686l.158-.062c3.33-1.421,7.765-3.265,11.317-4.652-.3-.874-.546-1.563-.546-1.563,2.13-1.006,3.084-1.93,3.426-4.43.215-1.572-.1-1.854.792-3.164a10.271,10.271,0,0,1,2.962-2.159c2.82-1.672,2.38-5.658-.066-6.7,1.552-2.354.934-5.579-.445-6.463a4.164,4.164,0,0,0-1.015-.475l.162-.3c.833-1.2,1.33-3.81.589-5.141-.65-1.168-2.977-2.029-4.393-1.989.384-.432.657-.743.657-.743,1.275-1.454,2.271-2.937.835-4.232-1.861-1.676-7.218-2.816-10.523-1.987A14.032,14.032,0,0,0,7.815,87.4a37.671,37.671,0,0,0-4.242,4.053c-1.91,2.419-1.635,6.991-1.373,12.063.207,4,4.885,19.8,6.094,23.09C8.294,126.605,8.643,127.573,9.043,128.686Z"/><path class="d" d="M25.811,104.28a52.039,52.039,0,0,0-8.64,2.986,2,2,0,0,0-.919,1.195,2,2,0,0,0,1.4,2.461,2.361,2.361,0,0,0,1.541-.2c-.153.065-.237.1-.033.015l.3-.122c.22-.089.44-.178.66-.265q.575-.227,1.152-.443,1.134-.423,2.284-.8c1.1-.363,2.2-.709,3.326-.964a2.015,2.015,0,0,0,1.4-2.46,2.044,2.044,0,0,0-2.46-1.4Z"/><path class="d" d="M24.055,92.256c1-1.165,2.058-2.471,2.121-4.081a4.236,4.236,0,0,0-2.054-3.582,15.119,15.119,0,0,0-7.147-2.175c-6-.556-11.119,3.188-14.816,7.619C.446,92.09.1,94.874.028,97.456a44.128,44.128,0,0,0,.34,7.526,89.613,89.613,0,0,0,2.615,11.023c1.035,3.727,2.059,7.494,3.383,11.131.873,2.4,4.74,1.364,3.857-1.063a157.489,157.489,0,0,1-5.239-18.319c-.163-.7-.319-1.408-.459-2.116-.061-.305-.119-.61-.173-.917-.025-.149-.146-1.015-.087-.512a47.143,47.143,0,0,1-.237-6.753c.055-1.9.213-3.849,1.59-5.269a23.429,23.429,0,0,1,6.264-5.053,10.242,10.242,0,0,1,6.69-.456,10.845,10.845,0,0,1,2.864.959c.328.178.675.321.811.593-.2-.409.017-.174-.2.091-.29.349-.516.756-.817,1.106-1.669,1.944,1.148,4.786,2.828,2.829Z"/><path class="d" d="M11.722,96.641c3.2-1.5,6.623-2.888,10.162-3.051.141-.007.281,0,.421,0,.493,0-.294-.1.223.029a9.84,9.84,0,0,1,1.1.314c.129.05.132.05.011,0,.1.043.189.089.281.138.148.081.293.169.44.252.421.237-.165-.053.191.147.136.152.16.169.069.052s-.072-.1.03.061l-.057-.162a2.853,2.853,0,0,1,.106.352c.108.333.017-.066.027.149s.015.418.006.628c0,.087-.038.483,0,.221a8.441,8.441,0,0,1-.3,1.243c-.108.373.094-.1-.1.244-.086.151-.168.3-.264.447a2,2,0,1,0,3.453,2.019,7.846,7.846,0,0,0,.936-6.366c-.737-2.131-3.045-3.3-5.15-3.647a11.689,11.689,0,0,0-3.622.133,25.253,25.253,0,0,0-3.246.657A43.559,43.559,0,0,0,9.7,93.187a2.017,2.017,0,0,0-.717,2.737,2.045,2.045,0,0,0,2.736.717Z"/><path class="d" d="M14.8,103.475a47,47,0,0,1,4.826-1.513c.843-.226,1.684-.457,2.522-.7.346-.1.691-.2,1.042-.283.2-.047.393-.089.592-.122.143-.024.133-.024-.028,0,.1-.011.2-.018.306-.022.171-.008.342,0,.513,0,.246.02.275.021.089,0l.207.046s.532.186.35.1a3.1,3.1,0,0,1,.309.171q.265.171-.112-.11c.092.022.2.206.265.266-.21-.207-.144-.2,0,.042.03.052.214.425.092.157s.065.21.083.273c.038.131.062.265.1.4.122.434.008-.283.025.144.015.363.013.713-.007,1.076.023-.419-.032.14-.047.2-.041.186-.1.365-.152.549-.087.331.037-.034-.051.149a6.35,6.35,0,0,1-.335.6,2.019,2.019,0,0,0,.718,2.736,2.041,2.041,0,0,0,2.736-.718c2.088-3.371,1.425-8.935-3.009-9.921-2.155-.479-4.181.26-6.235.821a60.133,60.133,0,0,0-5.858,1.791,2.048,2.048,0,0,0-1.4,2.46,2.023,2.023,0,0,0,2.461,1.4Z"/><path class="d" d="M20.981,124.136a7.111,7.111,0,0,0,4.13-4.532,11.833,11.833,0,0,0,.32-1.889c.029-.282.046-.564.062-.847.006-.112.012-.225.021-.337q-.069.411-.007.073c.034-.075.2-.511.039-.169.053-.108.487-.708.316-.52a4.861,4.861,0,0,1,1.127-.842,10.252,10.252,0,0,0,2.665-1.936,6.072,6.072,0,0,0,1.423-3.456,5.624,5.624,0,0,0-2.849-5.4,2.047,2.047,0,0,0-2.737.718,2.021,2.021,0,0,0,.718,2.736,3.286,3.286,0,0,1,.449.268c-.445-.334.262.325.056.079-.147-.175.146.241.181.3.239.381.037-.083.1.244.035.174.093.34.119.517-.054-.361-.017.037-.019.181,0,.09-.1.589,0,.187-.042.181-.086.355-.144.531.119-.362-.062.119-.11.2-.035.059-.35.452-.142.218a2.128,2.128,0,0,1-.82.626,14.181,14.181,0,0,0-2.689,1.848,5.7,5.7,0,0,0-1.539,2.608c-.22.855-.132,1.812-.3,2.59-.043.2-.093.405-.154.6-.027.088-.248.579-.068.218-.078.157-.169.3-.254.453-.213.385.224-.17-.1.124-.126.114-.242.239-.37.352.3-.27-.1.062-.174.113a11.112,11.112,0,0,1-1.27.688,2.018,2.018,0,0,0-.717,2.736,2.042,2.042,0,0,0,2.736.718Z"/><path class="d" d="M9.449,137.512c-.408-1.289-.838-2.571-1.274-3.851a22.511,22.511,0,0,1-1.022-3.081v1.064c-.057.4-.531.314,0,.157a4.078,4.078,0,0,0,.429-.189c.355-.156.712-.31,1.068-.465q1.155-.5,2.313-.99,2.838-1.206,5.695-2.372c1.863-.761,3.731-1.512,5.612-2.23.749-.286,1.5-.568,2.256-.834a4.406,4.406,0,0,1,1.628-.447L25.142,124c-.425-.192-.312-.763-.16-.2.057.208.149.419.22.621q.287.807.569,1.614.575,1.637,1.143,3.276c.837,2.417,4.7,1.378,3.857-1.064q-.715-2.065-1.443-4.127c-.473-1.344-.788-2.878-2.167-3.57-1.257-.632-2.577-.081-3.8.351-1.141.4-2.271.838-3.4,1.278-2.786,1.087-5.553,2.226-8.312,3.382q-2.021.847-4.037,1.71a19.786,19.786,0,0,0-3.05,1.375c-1.833,1.2-1.276,3.1-.693,4.79.591,1.708,1.171,3.42,1.717,5.143.775,2.445,4.638,1.4,3.857-1.064Z"/><path class="d" d="M180.714,130.3q.717-2.086,1.427-4.176c.2-.581.4-1.163.589-1.745a2.3,2.3,0,0,0,.182-.549q.309-.8-1.072.587c.095.025.19.049.285.075a21.714,21.714,0,0,0,2.51.745q1.683.529,3.353,1.092,3.817,1.275,7.606,2.636,1.724.618,3.44,1.252.779.289,1.554.584l.58.224.355.139q.588.26-.426-.4V129.7a19.513,19.513,0,0,1-.938,3.031c-.43,1.326-.858,2.652-1.27,3.983-.762,2.465,3.1,3.519,3.857,1.063.493-1.591,1.007-3.176,1.523-4.76.459-1.409,1.176-2.9.3-4.315-.726-1.173-2.331-1.536-3.554-2s-2.435-.9-3.656-1.343q-4.345-1.564-8.726-3.028c-1.2-.4-2.4-.79-3.6-1.161a10.942,10.942,0,0,0-3.09-.749c-2.172.019-2.744,1.937-3.312,3.622q-.877,2.6-1.771,5.191c-.837,2.44,3.025,3.488,3.857,1.064Z"/><path class="d" d="M100.92,202.367a13.326,13.326,0,0,0,6.313,1.355,13.2,13.2,0,0,0,6.6-1.384,2,2,0,1,0-2.019-3.454c-.117.067-.236.132-.357.192-.061.03-.124.056-.184.088-.305.158.494-.182.151-.064s-.708.244-1.076.332c-.233.056-.469.1-.706.143-.063.011-.476.074-.168.03s-.136.014-.2.02a19.9,19.9,0,0,1-2.043.1,17.859,17.859,0,0,1-1.935-.1c-.294-.032-.224.04,0,0a1.693,1.693,0,0,1-.412-.07q-.306-.057-.608-.134c-.352-.09-.691-.261-1.041-.342.052.012.5.23.219.089-.055-.028-.112-.053-.168-.08-.118-.057-.234-.118-.351-.179a2,2,0,0,0-2.019,3.454Z"/><path class="d" d="M106.418,186.87a30.22,30.22,0,0,1,.718,3.284l-.071-.532a2.02,2.02,0,0,1,.012.453l.072-.531a1.214,1.214,0,0,1-.05.2l.2-.478a.835.835,0,0,1-.072.131l.313-.405a.715.715,0,0,1-.107.106l.405-.313a2.156,2.156,0,0,1-.26.138l.477-.2a1.865,1.865,0,0,1-.438.128l.532-.071a1.774,1.774,0,0,1-.412,0l.532.071c-.155-.021-.308-.059-.463-.08a1.523,1.523,0,0,0-.8-.036,1.49,1.49,0,0,0-.744.238,2,2,0,0,0-.718,2.736,1.914,1.914,0,0,0,1.2.919c.381.052.751.148,1.139.165a3.7,3.7,0,0,0,1.714-.413,2.545,2.545,0,0,0,1.39-1.669,4.056,4.056,0,0,0-.016-1.761c-.179-1.058-.423-2.107-.7-3.145a2.065,2.065,0,0,0-.92-1.2,2,2,0,0,0-2.938,2.259Z"/><path class="d" d="M89.359,177.486c-.548,1.782-.191,5.882,3.186,6.23,4.462-.026,4.7-4.983,3.2-7.313C94.512,174.5,90.9,173.7,89.359,177.486Z"/><path class="d" d="M125.094,177.486c.549,1.782.191,5.882-3.185,6.23-4.462-.026-4.7-4.983-3.2-7.313C119.941,174.494,123.557,173.7,125.094,177.486Z"/></svg>