<?xml version="1.0" encoding="utf-8"?>
<!-- Uploaded to: SVG Repo, www.svgrepo.com, Generator: SVG Repo Mixer Tools -->
<svg width="800px" height="800px" viewBox="0 -40.81 424.048 424.048" xmlns="http://www.w3.org/2000/svg"><defs><style>.a{fill:#ffffff;}.b{fill:#fcabb6;}.c{fill:#211715;}.d{fill:#ad7b59;}.e{fill:none;}</style></defs><path class="a" d="M142.176,193.59c-.179.373-.365.746-.561,1.118-3.692,7.009-7.581,11.372-15.024,14.628a28.169,28.169,0,0,1-5.815,1.506c-1.8-6.172-2.544-12.59-.784-18.861a22.3,22.3,0,0,1-5.434-19.8,7.807,7.807,0,0,1,1.167-3.027,5.521,5.521,0,0,1,4.243-2.172,5.942,5.942,0,0,1,3.622,1.1c8.381-5.849,14.251-16.358,17.1-26.591.862,2.581,1.409,4.953,1.409,4.953-.214-1.044,2.906,19.391,3.444,24.619C145.91,175.786,146.346,184.867,142.176,193.59Z"/><path class="b" d="M143.38,198.538c7.074,2.853,14.105,5.814,21.155,8.728,1.4.577,3.078-.626,3.444-1.956a2.871,2.871,0,0,0-1.956-3.444c-7.049-2.914-14.08-5.875-21.155-8.728a2.818,2.818,0,0,0-3.444,1.956,2.868,2.868,0,0,0,1.956,3.444Z"/><path class="c" d="M144.415,145.812a.178.178,0,0,0-.01-.038,2.505,2.505,0,0,0-2.314-1.762,2.436,2.436,0,0,0-2.314,1.762,9.065,9.065,0,0,0,.278,3.274q.392,2.688.788,5.374.506,3.443,1,6.888.251,1.748.5,3.494.1.756.209,1.513l.114.839c.039.289,0-.013-.008-.06l.06.446a59.187,59.187,0,0,1,.436,13.413,35.808,35.808,0,0,1-7.353,18.55,24.022,24.022,0,0,1-6.62,5.823,26.2,26.2,0,0,1-9.858,3.331,2.417,2.417,0,0,0-1.676,2.952,2.46,2.46,0,0,0,2.952,1.677,29.362,29.362,0,0,0,16.84-8.392,38.745,38.745,0,0,0,9.659-18.337c2.2-10.071.317-20.095-1.139-30.11q-.528-3.635-1.064-7.267c-.113-.771-.227-1.541-.337-2.311-.035-.243-.065-.487-.1-.729-.049-.312.044.735.049.362,0-.331-.073.463-.094.546h-4.628a.266.266,0,0,1,.01.038c.647,3.019,5.276,1.742,4.628-1.276Z"/><path class="c" d="M358.918,183.2c4.911-1.743,9.9-3.532,14.657-5.235.126,2.205.253,4.339.365,6.212-8.287-.063-15.258-.11-17.488-.1Z"/><path class="c" d="M370.442,162.089c.079,7.251.688,14.509,1.114,21.745a2.454,2.454,0,0,0,2.4,2.4,2.421,2.421,0,0,0,2.4-2.4c-.426-7.236-1.035-14.494-1.114-21.745-.034-3.087-4.834-3.095-4.8,0Z"/><path class="c" d="M401.884,161.612c-.139,7.516-.8,15.032-1.439,22.519a2.419,2.419,0,0,0,2.4,2.4,2.449,2.449,0,0,0,2.4-2.4c.635-7.487,1.3-15,1.439-22.519.057-3.09-4.743-3.09-4.8,0Z"/><path class="c" d="M375.242,162.089c-.028.329.163-.6.154-.583a3.051,3.051,0,0,1,.449-.65,5.255,5.255,0,0,1,2.5-1.263,31.654,31.654,0,0,1,7.345-1.1c2.508-.118,5.021-.059,7.528.049a20.61,20.61,0,0,1,7.248,1.17,2.953,2.953,0,0,1,1.421,1.284c.164.3.05.067.006-.066a1.46,1.46,0,0,1,.011.44c.063-.486-.172.432-.079.282-.9,1.44-3.866,1.769-5.344,1.965a79.878,79.878,0,0,1-11.317.364,47.939,47.939,0,0,1-5.907-.352,13.012,13.012,0,0,1-2.629-.6l-.107-.038q.465.2-.19-.109a6.74,6.74,0,0,1-.719-.415l-.307-.233c-.151-.184-.061-.329-.059-.14-.032-3.087-4.832-3.095-4.8,0,.06,5.937,8.183,6.438,12.478,6.626a79.793,79.793,0,0,0,14.833-.475c2.719-.4,5.852-1.222,7.657-3.449a5.693,5.693,0,0,0-.121-7.3c-2.131-2.58-5.743-3.207-8.9-3.55a71.434,71.434,0,0,0-9.4-.3c-5.968.143-15.9.722-16.549,8.446a2.419,2.419,0,0,0,2.4,2.4A2.45,2.45,0,0,0,375.242,162.089Z"/><path class="a" d="M199.888,2.634c50.674-.061,108.093-.183,159.864-.23a4.193,4.193,0,0,1,4.21,4.2c.021,13.553.1,53.167.157,100.958-2.44.874-4.92,1.759-7.353,2.619,0,3.548-.018,10.327-.027,15.022a5.831,5.831,0,0,0,5.828,5.848q.757,0,1.57,0c.029,16.558.048,35.173.057,50.269-2.465.878-4.971,1.772-7.428,2.641,0,3.548-.018,10.327-.027,15.022a5.831,5.831,0,0,0,5.828,5.848h1.649c.012,9.921.025,13.7.025,20.792a4.514,4.514,0,0,1-4.5,4.52c-44.176.028-115.416.116-164.349.186.055-.076.112-.159.17-.242a39.622,39.622,0,0,0,4.453-10.741,7.984,7.984,0,0,0-1.316-6.472,12.73,12.73,0,0,0-5.1-4.929c-1.068-.6-10.805-4.27-12.007-4.514a5.9,5.9,0,0,1-1.883-.717c-.077-58.507-.211-142.654-.23-195.684a4.375,4.375,0,0,1,4.365-4.376Z"/><path class="d" d="M277,90.65c-9.841-3.76-16.548-10.134-22.205-19.7-3.009,8.31-18.583,29.287-26.318,34.285-1.212-2.984-2.177,18.031,2.216,28.1,2.065,6.742,10.574,18.972,22.227,23.116l.059.141A61.868,61.868,0,0,1,255.3,163.7l-2.318.652a170.369,170.369,0,0,0-24.065,8.59c-.054-.024-2.074-2.667-2.074-2.667-6.316-2.621-10.671-9.051-10.619-14.428a40.47,40.47,0,0,1,2.538-13.808c2.106-6.069.816-12.428,1.1-34.462-.578-6.667.031-16.3.289-20,.918-12.829,6.656-27.163,14.912-35.131,3.571-3.436,4.6-5.046,8.484-7.152l5.159-2.8,2.6-1.055c6.806-2.76,12.64-3.976,22.711-3.976,16.511,0,31.206,8.506,37.728,14.75,10.818,10.357,17.681,29.275,16.815,55.363,0,17.681,1.176,28.443,3.2,35.689,0,0,.966,3.849,1.679,8.525a3.483,3.483,0,0,0-.715-.591c-1.1-.668-2.988-1.1-4.074-.41a5.01,5.01,0,0,0-1.466,1.552c-.3-3.15-2.039-3.53-3.143-3.658a4.2,4.2,0,0,0-3.792,1.33c-2-2.875-4.426-2.578-5.616-1.762a13.774,13.774,0,0,0-2.284,2.423l-1.659-.631c-2.1-.8-6.315-2.345-10.691-3.935a20.4,20.4,0,0,0,5.082-7.659,33.035,33.035,0,0,0,3.232-7.9c2.637.956,5.053-.328,6.5-1.485a13.373,13.373,0,0,0,3.793-4.8c1.988-4,2.343-9.06,1.963-13.446a8.091,8.091,0,0,0-.847-3.254,6.531,6.531,0,0,0-4.532-2.709,6.056,6.056,0,0,0-4.58,1.2c-8.868-5.985-22.794-17.816-29.8-26.118-.445,3.085,3.232,12.949.334,12.087Q278.991,91.411,277,90.65Z"/><path class="a" d="M227.919,121.133c-.96-9.063-.257-17.895.557-15.895,7.736-5,23.31-25.976,26.319-34.286,6.421,10.855,14.194,17.6,26.369,21.08,2.9.862-.779-9-.334-12.087,7.006,8.3,20.931,20.133,29.8,26.118a6.053,6.053,0,0,1,4.579-1.2,6.531,6.531,0,0,1,4.532,2.709,8.091,8.091,0,0,1,.847,3.254c.38,4.386.025,9.45-1.963,13.446a13.373,13.373,0,0,1-3.793,4.8c-1.45,1.157-3.866,2.44-6.5,1.485a33.062,33.062,0,0,1-3.233,7.9,17.923,17.923,0,0,1-3.882,5.862c-1.1.96-.226,3.826,1.025,6.623a3.136,3.136,0,0,0-2.023,2.451c-.27,1.193.756,3.739,1.191,5.7a58.322,58.322,0,0,1,1.156,8.164c.278,3.71-.816,6.325,1.436,10.517-15.794,7.945-48.789,10.459-57.977-7.708,7.659-4.043,10.11-5.784,9.346-6.051-.831-4.026-3.546-9.864-2.22-7.485-11.771-4.056-20.378-16.4-22.456-23.188A43.718,43.718,0,0,1,227.919,121.133Z"/><path class="c" d="M182.125,186.435q-.03-24.6-.074-49.2-.042-25.083-.084-50.165-.041-24.832-.068-49.664-.012-12.147-.019-24.3c0-1.953-.027-3.909,0-5.862a2.038,2.038,0,0,1,1.442-2.123,8.576,8.576,0,0,1,2.216-.079l2.977,0,5.578-.006q23.578-.027,47.157-.066,24.533-.037,49.064-.079,24.454-.039,48.909-.07l12.018-.014,5.835,0c1.222,0,3.168-.44,4.07.638.823.983.422,3.147.424,4.375q0,2.63.008,5.261.027,16.139.054,32.279.037,22.9.07,45.8.009,6.373.017,12.748c0,3.088,4.8,3.093,4.8,0q-.031-24.665-.072-49.328-.029-18.205-.06-36.41-.01-5.739-.019-11.477c0-2.544-.071-4.965-2.056-6.871a7.037,7.037,0,0,0-5-1.819c-2.014-.012-4.028,0-6.042.006q-24.819.026-49.638.065-25.192.039-50.384.081-24.348.041-48.7.073L192.8.243l-5.776.006c-1.776,0-3.747-.223-5.443.406a6.827,6.827,0,0,0-3.8,3.387c-.872,1.8-.7,3.746-.7,5.685q0,6.127.007,12.256.018,25.191.058,50.38.039,25.679.084,51.359.043,25.263.081,50.528.009,6.091.016,12.185c0,3.088,4.8,3.094,4.8,0Z"/><path class="c" d="M361.82,207.983q.011,6.87.02,13.742,0,1.554,0,3.107a2.961,2.961,0,0,1-.507,2.169,2.233,2.233,0,0,1-1.593.74c-1.55.137-3.175,0-4.733,0q-17.245.013-34.493.035-35.118.043-70.236.106-19.524.033-39.046.062c-3.088,0-3.094,4.805,0,4.8q35.977-.053,71.954-.115,36.147-.055,72.3-.088c2.876,0,5.993.425,8.421-1.432,2.407-1.84,2.738-4.4,2.737-7.23q0-7.95-.021-15.9c0-3.089-4.8-3.094-4.8,0Z"/><path class="c" d="M366.594,181.168q-.015-24.7-.056-49.41c0-3.088-4.805-3.094-4.8,0q.042,24.705.056,49.41c0,3.088,4.8,3.094,4.8,0Z"/><path class="c" d="M312.057,107.976c1.512-1.271,4.563-.955,5.612.805a8.467,8.467,0,0,1,.631,3.87,30.592,30.592,0,0,1-.157,4.62,16.854,16.854,0,0,1-2.753,7.786c-1.242,1.761-3.523,3.84-5.866,3.351-3.015-.629-4.3,4-1.276,4.628,4.4.918,8.271-1.549,10.848-4.959a22.036,22.036,0,0,0,3.927-11.65c.307-3.822.525-9.153-2.727-11.834a9.006,9.006,0,0,0-11.633-.012,2.421,2.421,0,0,0,0,3.395,2.453,2.453,0,0,0,3.394,0Z"/><path class="c" d="M307.392,123.183a55.356,55.356,0,0,1-1.486,7.12,28.215,28.215,0,0,1-2.882,6.94,2.4,2.4,0,0,0,4.145,2.422,42.568,42.568,0,0,0,4.851-15.206,2.465,2.465,0,0,0-1.676-2.952c-1.14-.26-2.755.348-2.952,1.676Z"/><path class="c" d="M252.481,70.314c-.078.211-.16.421-.243.63-.158.4,0-.005.032-.072-.05.115-.1.232-.153.347-.259.565-.528,1.125-.812,1.678-.612,1.191-1.274,2.355-1.96,3.5-1.674,2.8-3.5,5.514-5.392,8.169a112.941,112.941,0,0,1-12.629,15.158,37.362,37.362,0,0,1-3.205,2.852c.414-.322-.235.164-.35.245-.212.148-.427.294-.646.431a9.4,9.4,0,0,1-1.3.691,2.414,2.414,0,0,0-.861,3.284,2.464,2.464,0,0,0,3.284.861,20.462,20.462,0,0,0,5.59-4.122,81.493,81.493,0,0,0,6.488-6.949,141.28,141.28,0,0,0,12.685-17.4,46,46,0,0,0,4.1-8.034,2.421,2.421,0,0,0-1.676-2.952,2.451,2.451,0,0,0-2.952,1.676Z"/><path class="c" d="M252.723,72.163c4.107,6.9,9.378,13.1,16.312,17.284a43.162,43.162,0,0,0,11.3,4.845,3.21,3.21,0,0,0,3.862-1.466,6.4,6.4,0,0,0,.356-3.881c-.227-1.781-.609-3.532-.95-5.294-.074-.385-.147-.771-.213-1.158-.02-.114-.167-1.12-.113-.672a7.855,7.855,0,0,1-.052-1.876l-4.1,1.7a130.837,130.837,0,0,0,14.193,13.92,173.721,173.721,0,0,0,15.835,12.4c2.558,1.746,4.962-2.412,2.423-4.144a163.725,163.725,0,0,1-15.162-11.907,129.783,129.783,0,0,1-13.894-13.661,2.378,2.378,0,0,0-2.622-.5,2.49,2.49,0,0,0-1.475,2.193c-.281,2.355.551,4.95,1,7.246.124.638.243,1.276.345,1.917a1.555,1.555,0,0,1,.052.4c.024.272.052.544.058.818,0,.2-.006.408-.012.614,0-.077.149-.537.02-.2-.05.128-.119.2.041-.054a1.932,1.932,0,0,1,1.6-1c.1-.012.592.194.273.033a4.846,4.846,0,0,0-.74-.217A39.153,39.153,0,0,1,263.91,79.228a51.7,51.7,0,0,1-7.043-9.487c-1.578-2.653-5.729-.241-4.144,2.422Z"/><path class="e" d="M332.046,145.263a84.852,84.852,0,0,1,2.609,18.261c.074,8.245-8.858,17.287-22.03,14.493"/><path class="c" d="M251.955,43.758a56.111,56.111,0,0,1,32.56-2.735c9.47,2.081,19.245,6.593,26.113,13.448,6.076,6.065,9.95,14.182,12.3,22.5a86.861,86.861,0,0,1,2.9,16.237c.548,6.385.288,12.755.372,19.151.137,10.478.439,21.383,3.261,31.548.825,2.972,5.458,1.71,4.629-1.276-2.483-8.942-2.84-18.248-3.043-27.572-.144-6.595.176-13.193-.261-19.78a97.9,97.9,0,0,0-2.674-17.52C325.8,68.629,321.844,59.7,315.5,52.638c-6.7-7.458-16.372-12.477-25.886-15.263a60.572,60.572,0,0,0-38.937,1.754A2.477,2.477,0,0,0,249,42.082a2.417,2.417,0,0,0,2.953,1.676Z"/><path class="c" d="M228.056,168.207a15.746,15.746,0,0,1-8.9-9.222,16.245,16.245,0,0,1-.355-6.735,38.961,38.961,0,0,1,1.826-8.223,32.382,32.382,0,0,0,1.581-7.116,77.157,77.157,0,0,0,.17-7.917c-.049-4.162-.136-8.322-.154-12.484-.012-2.968.154-5.965.041-8.929-.092-2.4-.251-4.785-.24-7.193.042-9.57.642-19.067,3.844-28.165A50.967,50.967,0,0,1,233.68,57.56a71.247,71.247,0,0,1,5.5-5.807,24.112,24.112,0,0,1,5.589-4.382c2.706-1.492.287-5.638-2.423-4.145a26.136,26.136,0,0,0-5.739,4.309c-1.742,1.717-3.547,3.41-5.162,5.249A51.038,51.038,0,0,0,223.1,66.242a66.184,66.184,0,0,0-4.7,15.835,110.8,110.8,0,0,0-1.085,13.633c-.19,5.536.126,11.049.1,16.582-.02,4.864.049,9.726.124,14.589.046,2.973.124,5.959-.058,8.929-.032.53-.074,1.06-.13,1.588-.02.178-.15,1.065-.031.3-.047.3-.092.6-.147.9a21,21,0,0,1-.736,2.81,50.34,50.34,0,0,0-2.354,9.988,20.915,20.915,0,0,0,.385,8.715,20.237,20.237,0,0,0,11.153,12.243,2.48,2.48,0,0,0,3.283-.861,2.416,2.416,0,0,0-.861-3.283Z"/><path class="c" d="M318.4,19.776l27.827,28.118c2.176,2.2,5.57-1.2,3.394-3.394L321.79,16.382c-2.177-2.2-5.571,1.2-3.4,3.394Z"/><path class="c" d="M335.5,18.189l12.46,12.59a2.4,2.4,0,0,0,3.394-3.395L338.89,14.794a2.4,2.4,0,0,0-3.395,3.395Z"/><path class="c" d="M205.88,192.9c.122-.182.254-.356.383-.532.228-.313-.067.086-.1.123.11-.141.22-.281.332-.42.547-.684,1.108-1.357,1.675-2.024q2.041-2.407,4.194-4.717a43.717,43.717,0,0,1,4-3.9c.1-.085.376-.25-.08.061.12-.082.234-.176.361-.247.188-.106.376-.211.568-.311.594-.308,1.2-.6,1.8-.881,7.521-3.539,15.231-6.547,23.1-9.488,3.782-1.414,7.594-2.864,11.5-3.894,2.985-.787,1.719-5.418-1.276-4.629-8.047,2.122-15.875,5.481-23.563,8.622-3.845,1.57-7.685,3.168-11.457,4.907A23.486,23.486,0,0,0,214,177.256,26.783,26.783,0,0,0,209.861,181a71.109,71.109,0,0,0-8.125,9.475c-1.72,2.577,2.436,4.983,4.144,2.423Z"/><path class="c" d="M243.893,171.174c7,13.766,25.117,16.046,38.874,14.693a74.987,74.987,0,0,0,12.724-2.336c2.972-.824,1.71-5.457-1.276-4.628a67.313,67.313,0,0,1-20.807,2.445c-6.523-.276-13.273-1.615-18.768-5.221a19.135,19.135,0,0,1-6.6-7.375c-1.4-2.754-5.543-.328-4.144,2.422Z"/><path class="c" d="M250.665,157.229c.612,1.688,1.257,3.362,1.779,5.081a22.955,22.955,0,0,1,.719,2.92c.038.231-.014.513-.024-.212,0,.1.024.205.033.3.017.187.028.375.028.564,0,.085-.007.171-.007.256,0,.434,0-.271.053-.325a.892.892,0,0,0-.053.244c-.038.2-.265.561.141-.3a2.457,2.457,0,0,0,.861,3.284,2.431,2.431,0,0,0,3.284-.861c1-2.133.334-4.62-.3-6.773-.54-1.85-1.233-3.645-1.889-5.454a2.4,2.4,0,0,0-4.629,1.276Z"/><path class="b" d="M311.45,147.348c-8.959-3.405-17.99-6.65-27.034-9.823a2.8,2.8,0,0,0-1.489,5.4c9.044,3.173,18.075,6.418,27.034,9.823a2.824,2.824,0,0,0,3.445-1.956,2.863,2.863,0,0,0-1.956-3.444Z"/><path class="a" d="M303.114,175.745c-1.033-3.094-.319-5.418-.55-8.5a58.322,58.322,0,0,0-1.156-8.164c-.435-1.956-1.461-4.5-1.191-5.7.163-.722.864-2.792,3.011-2.486,4.272.607,4.607,3.12,5.605,5.467l.3.7,1.559-3.833a18.071,18.071,0,0,1,3.959-4.985,3.7,3.7,0,0,1,4.773.752c-2.12,8.592-1.065,2.144,1.554.35a4.594,4.594,0,0,1,3.081-.67c1.1.128,2.839.508,3.146,3.657a4.974,4.974,0,0,1,1.463-1.551c1.086-.688,2.976-.258,4.074.41a4.339,4.339,0,0,1,1.892,3.146l-.021,1.061a5.926,5.926,0,0,1,2.876-2.084,3.941,3.941,0,0,1,4.192,1.519,7.967,7.967,0,0,1,1.429,4.456,27.775,27.775,0,0,1-.65,6.979,32.234,32.234,0,0,1-2.608,8.458c-2.509,4.985-4.657,5.658-6.842,12.6-8.753-1.15-16.1-1.722-25-2.187l-.008-.746a5.627,5.627,0,0,0-1.629-3.173A17.539,17.539,0,0,1,303.114,175.745Z"/><path class="c" d="M303.206,207.359c1.255-7.221,1.881-14.7,4.053-21.722l-2.315,1.762c10.433.506,20.83,1.294,31.174,2.771l-1.762-2.314c-.354,5.837-1.016,11.658-1.463,17.489a2.421,2.421,0,0,0,2.4,2.4,2.448,2.448,0,0,0,2.4-2.4c.447-5.831,1.109-11.652,1.463-17.489a2.4,2.4,0,0,0-1.762-2.314c-10.774-1.539-21.582-2.416-32.45-2.943a2.437,2.437,0,0,0-2.314,1.762c-2.171,7.024-2.8,14.5-4.052,21.722a2.469,2.469,0,0,0,1.676,2.952,2.419,2.419,0,0,0,2.952-1.676Z"/><path class="c" d="M336.18,185.533c1.765-4.045,4.846-7.27,6.543-11.363a36.585,36.585,0,0,0,2.007-7.033,30.86,30.86,0,0,0,.778-7.835,9.95,9.95,0,0,0-2.5-6.563,6.2,6.2,0,0,0-6.53-1.584,9.5,9.5,0,0,0-4.645,4.079,25.634,25.634,0,0,0-3.095,6.415c-.676,2.293-.766,5.225,1.672,6.526,2.467,1.318,5.042-.056,6.9-1.766,2.276-2.1-1.125-5.487-3.394-3.394a11.569,11.569,0,0,1-1.359.916q.029-.314.455.341.156.755.084.087c.091-.269.03-.536.163-1.034a19.738,19.738,0,0,1,2.5-5.311c.585-.939,1.545-2.545,2.868-2.441,1.683.134,2.039,2.717,2.1,3.963a27.819,27.819,0,0,1-.75,6.979,31.087,31.087,0,0,1-1.811,6.212c-1.626,3.713-4.5,6.662-6.123,10.383a2.478,2.478,0,0,0,.861,3.284,2.417,2.417,0,0,0,3.283-.861Z"/><path class="c" d="M337.032,154.35a6.674,6.674,0,0,0-5.061-6.044,5.9,5.9,0,0,0-4.517.416,8.568,8.568,0,0,0-2.895,3.388,36.7,36.7,0,0,0-2.957,8.145c-.731,2.752-.683,6.087,1.854,7.89a6.674,6.674,0,0,0,8.241-.885,2.4,2.4,0,1,0-3.394-3.394c-.159.162-.426.323-.085.12-.155.093-.329.181-.477.282.308-.211.148-.053-.11.02a1.9,1.9,0,0,0-.265.065c-.253.121.379,0,.1,0-.177,0-.36.014-.538.019-.087,0-.179-.02-.266-.013.021,0,.461.1.2.03-.161-.046-.333-.076-.5-.116-.511-.126.2.157-.1-.029a1.038,1.038,0,0,0-.2-.116c-.273-.084.244.153.181.16a1.688,1.688,0,0,1-.3-.3c.011-.015.3.416.181.208s.1.214.083.221-.172-.645-.19-.695c-.084-.245-.011.027,0,.087-.017-.113-.024-.228-.032-.342q-.024-.339-.017-.68c0-.108.018-.22.015-.329,0,.045-.1.378-.02.129s.131-.535.2-.8c.275-1.032.539-2.068.845-3.091.154-.519.319-1.035.5-1.544.085-.238.175-.474.266-.709-.006.015.153-.371.075-.187-.053.125.119-.263.14-.307a19.465,19.465,0,0,1,1.394-2.562c.237-.358-.132.1.165-.2.1-.1.469-.433.151-.2.2-.151.5-.213.114-.107.045-.013.362-.106.065-.036s.109,0,.186,0c.105,0,.21.013.315.01-.223.006-.246-.052,0,0s.482.15.725.2-.038-.028-.09-.052c.119.055.237.112.352.176.081.045.162.11.246.149.24.111-.168-.214-.012,0,.1.139.418.584.212.211a5.524,5.524,0,0,0,.345.593c.151.2-.041-.1-.056-.153.033.108.077.212.108.321a2.113,2.113,0,0,0,.056.225c.106.257-.043-.589-.034-.182a2.4,2.4,0,1,0,4.8,0Z"/><path class="c" d="M329.467,151.3a6.034,6.034,0,0,0-2.41-4.053,6.324,6.324,0,0,0-3.4-.985c-3.528-.134-5.856,2.346-7.188,5.338a26.427,26.427,0,0,0-2.028,7c-.366,2.585-.436,5.664,1.554,7.662a6.579,6.579,0,0,0,2.06,1.258c-.8-.387.284.123.556.192a6.047,6.047,0,0,0,1.229.157,6.4,6.4,0,0,0,4.919-1.928,2.454,2.454,0,0,0,0-3.394,2.425,2.425,0,0,0-3.394,0,4.042,4.042,0,0,1-.3.3c.031-.028.254-.251.068-.066a1.245,1.245,0,0,1-.268.154c.361-.206.136-.043.006-.01-.1.027-.768.185-.452.132.291-.049-.3.009-.414.012a1.6,1.6,0,0,1-.331-.014c-.01-.011.52.079.276.037-.438-.076-.213-.03.1.089-.242-.091-.488-.192-.726-.294.048.021.36.233.22.083-.047-.051-.143-.064-.194-.113-.364-.344.308.242.084.057-.376-.311.1.314-.042-.02-.036-.082-.324-.61-.158-.25.153.336-.038-.14-.065-.236s-.179-.775-.112-.424-.024-.288-.029-.393c-.012-.22-.015-.44-.012-.66,0-.5.052-1,.106-1.492-.052.481.023-.119.053-.29q.054-.314.118-.625c.106-.52.23-1.038.367-1.551.244-.911.564-1.79.848-2.688.184-.58-.211.457-.041.057.054-.129.11-.257.167-.384.184-.409.382-.81.6-1.2.122-.215.249-.427.385-.633.059-.091.122-.179.184-.268.212-.305-.226.243.025-.028.144-.156.288-.308.441-.456.244-.237-.352.15.024-.014a2.05,2.05,0,0,0,.307-.175,2.9,2.9,0,0,1,.509-.118,4.614,4.614,0,0,1,.539-.006c.107,0,.7.085.192,0-.489-.082.085.02.2.048s.648.222.266.057c-.514-.221.485.337.078.043-.367-.267.341.457.125.141-.181-.263-.022.01.01.055.314.442-.056-.235.051.08a6.908,6.908,0,0,1,.263,1.091,2.419,2.419,0,0,0,2.952,1.676,2.456,2.456,0,0,0,1.676-2.952Z"/><path class="c" d="M321.3,147.5a6.712,6.712,0,0,0-4.793-2.2,5.876,5.876,0,0,0-3.912,1.547,19.089,19.089,0,0,0-2.427,2.783,13.327,13.327,0,0,0-1.793,2.977,2.4,2.4,0,0,0,.242,1.849,2.4,2.4,0,0,0,3.283.861,2.839,2.839,0,0,0,1.1-1.434c-.393.936-.1.258.024.044.091-.161.189-.319.29-.476.256-.4.533-.786.818-1.165.372-.494-.275.342-.016.021.073-.092.146-.185.221-.276.146-.18.294-.358.446-.534.3-.353.618-.7.953-1.024.128-.124.263-.238.395-.356.24-.214-.535.34-.275.215.085-.04.164-.1.248-.151.2-.113.513-.154-.214.073.089-.028.174-.065.263-.092s.186-.052.28-.072c.524-.112-.392.014-.19.021.121,0,.245-.013.367-.01.227.006.507.134-.2-.047.25.064.493.115.74.195.173.066.078.026-.283-.12.079.037.158.077.234.119.121.066.234.145.353.215.405.24-.347-.331-.016-.016.157.149.316.292.466.449A2.4,2.4,0,0,0,321.3,147.5Z"/><path class="c" d="M313.075,158.389a13.485,13.485,0,0,1-2.484-4.067,9.09,9.09,0,0,0-2.779-4.137,7.822,7.822,0,0,0-6.179-1.568,5.4,5.4,0,0,0-3.655,3.849c-.538,1.866.166,3.824.681,5.616a42.986,42.986,0,0,1,1.13,5.521,35.16,35.16,0,0,1,.423,4.859c.013,1.37-.122,2.74-.063,4.11a14.724,14.724,0,0,0,1.459,5.782,18.287,18.287,0,0,0,1.823,2.972c.575.781,2.068,2.049,2.174,3.081a2.469,2.469,0,0,0,2.4,2.4,2.416,2.416,0,0,0,2.4-2.4c-.407-3.977-4.288-6.315-5.229-10.173-.471-1.933-.086-4.758-.217-7.114a47.333,47.333,0,0,0-1.672-10.314c-.241-.841-.5-1.678-.673-2.535-.017-.08-.037-.6-.083-.243a2.514,2.514,0,0,1,.2-.64c-.213.485.365-.356.11-.114-.086.082-.186.006.014-.016.477-.053-.1-.048.043,0a9.925,9.925,0,0,1,1.786.569,2.447,2.447,0,0,1,.963,1.1,13.091,13.091,0,0,1,.681,1.611,17.969,17.969,0,0,0,3.355,5.245,2.421,2.421,0,0,0,3.394,0,2.449,2.449,0,0,0,0-3.394Z"/><path class="c" d="M357.646,186.188q6.462-2.287,12.911-4.61a2.4,2.4,0,0,0-1.276-4.628q-6.454,2.31-12.911,4.609a2.4,2.4,0,1,0,1.276,4.629Z"/><path class="c" d="M410.5,186.569q6.189-2.949,12.359-5.933a2.412,2.412,0,0,0,.861-3.284,2.464,2.464,0,0,0-3.283-.861q-6.177,2.973-12.359,5.934a2.41,2.41,0,0,0-.861,3.283,2.463,2.463,0,0,0,3.283.861Z"/><path class="c" d="M408.792,205.865q6.95-3.767,13.878-7.57a2.421,2.421,0,0,0,.861-3.283,2.448,2.448,0,0,0-3.283-.861q-6.936,3.789-13.879,7.569a2.423,2.423,0,0,0-.861,3.284,2.452,2.452,0,0,0,3.284.861Z"/><path class="c" d="M354.364,184.161q0,4.733-.014,9.465c-.007,3.24-.571,6.984,1.309,9.833,1.917,2.906,4.864,3.769,8.175,3.77l8.694,0,19.908.006,8.963,0c3.17,0,6.155.079,8.672-2.178,2.934-2.63,2.667-6.388,2.672-9.977,0-3.373-.009-6.747-.009-10.121,0-3.089-4.8-3.094-4.8,0,0,2.6.01,5.2.01,7.8q0,2.283-.007,4.564a6.846,6.846,0,0,1-.439,3.345c-1.145,2.137-3.587,1.77-5.634,1.77l-8.141,0-17.892,0-8.457,0h-3.685a4.958,4.958,0,0,1-3.04-.584,3.493,3.493,0,0,1-1.5-2.521,49.465,49.465,0,0,1,0-5.294q.01-4.933.015-9.869c0-3.088-4.8-3.093-4.8,0Z"/><path class="c" d="M356.805,186.467c14.615,0,29.23.2,43.844.3,3.152.019,6.305.041,9.457.042,3.088,0,3.094-4.8,0-4.8-14.982,0-29.965-.2-44.947-.3-2.785-.018-5.569-.041-8.354-.042-3.088,0-3.093,4.8,0,4.8Z"/><path class="c" d="M357.646,112.41q6.462-2.287,12.911-4.61a2.4,2.4,0,1,0-1.276-4.628q-6.454,2.31-12.911,4.609a2.4,2.4,0,1,0,1.276,4.629Z"/><path class="c" d="M410.5,112.792q6.189-2.951,12.359-5.934a2.41,2.41,0,0,0,.861-3.283,2.462,2.462,0,0,0-3.283-.861q-6.177,2.971-12.359,5.933a2.411,2.411,0,0,0-.861,3.284,2.465,2.465,0,0,0,3.283.861Z"/><path class="c" d="M408.792,132.087q6.95-3.765,13.878-7.57a2.421,2.421,0,0,0,.861-3.283,2.448,2.448,0,0,0-3.283-.861q-6.936,3.79-13.879,7.569a2.423,2.423,0,0,0-.861,3.284,2.451,2.451,0,0,0,3.284.861Z"/><path class="c" d="M354.364,110.384q0,4.733-.014,9.464c-.007,3.24-.571,6.984,1.309,9.833,1.917,2.906,4.864,3.77,8.175,3.77l8.694,0,19.908.006,8.963,0c3.17,0,6.155.078,8.672-2.178,2.934-2.631,2.667-6.389,2.672-9.977,0-3.374-.009-6.748-.009-10.122,0-3.088-4.8-3.094-4.8,0,0,2.6.01,5.2.01,7.8q0,2.282-.007,4.563a6.846,6.846,0,0,1-.439,3.345c-1.145,2.137-3.587,1.77-5.634,1.77l-8.141,0-17.892-.006-8.457,0h-3.685a4.958,4.958,0,0,1-3.04-.584,3.493,3.493,0,0,1-1.5-2.521,49.465,49.465,0,0,1,0-5.294q.01-4.933.015-9.868c0-3.089-4.8-3.094-4.8,0Z"/><path class="c" d="M356.805,112.69c14.615,0,29.23.2,43.844.3,3.152.02,6.305.041,9.457.042,3.088,0,3.094-4.8,0-4.8-14.982,0-29.965-.2-44.947-.3-2.785-.018-5.569-.041-8.354-.041-3.088,0-3.093,4.8,0,4.8Z"/><path class="c" d="M274.227,128.937a15.83,15.83,0,0,0-6.454-.308,11.269,11.269,0,0,0-4.824,2.438h3.394a10.039,10.039,0,0,0-11-.711c-3.312,1.905-5.827,6.456-3.363,10l1.434-3.525c-2.26.316-3.54,2.707-3.9,4.741A7.287,7.287,0,0,0,251.1,147.9c2.362,2.742,7.872,3.879,10.66,1.121l-4.012-1.059c.735,4.43,6.528,5.569,10.2,5.758a11.9,11.9,0,0,0,11.564-6.394l-1.434,1.1c3.054-.933,5.968-2.479,6.634-5.915.82-4.222-1.856-9.012-6.515-8.981l2.314,1.762a8.283,8.283,0,0,0-6.286-6.354c-2.992-.778-4.268,3.851-1.276,4.628a3.594,3.594,0,0,1,2.933,3,2.41,2.41,0,0,0,2.315,1.762,1.842,1.842,0,0,1,1.718,1.483,2.509,2.509,0,0,1,.146,1.585,3.62,3.62,0,0,1-.155.556c.121-.312-.411.672-.141.308a3.37,3.37,0,0,1-.508.519c.292-.252-.241.155-.273.173-.229.132-.459.255-.7.367q-.237.108.076-.031-.192.074-.387.141c-.342.109-.689.207-1.029.322-1.161.394-1.48,1.107-2.064,2.05-1.519,2.453-4.19,3.254-6.933,3.114a12.742,12.742,0,0,1-3.946-.762,6.977,6.977,0,0,1-1.194-.641c-.036-.031-.454-.543-.274-.273q-.205-.381-.059-.08a2.627,2.627,0,0,1-.1-.478c-.306-1.843-2.832-2.226-4.011-1.059-.176.166-.126.133.151-.1a2.356,2.356,0,0,1-.288.157c.221.055.29-.09-.135,0-.161.034-.623.083-.209.048a6.689,6.689,0,0,1-.939.009,4.087,4.087,0,0,1-1.092-.247,3.566,3.566,0,0,1-.981-.584,1.932,1.932,0,0,1-.721-2.026,1.559,1.559,0,0,1,.1-.567c.029-.1.26-.779.158-.561.07-.151.193-.577.17-.322q-.31.177.045-.032-.35.164.065.062a2.411,2.411,0,0,0,1.435-3.526,1.26,1.26,0,0,1-.142-1.576,4.3,4.3,0,0,1,2.1-2.025c1.37-.642,3.775-.732,4.87.13a2.506,2.506,0,0,0,3.394,0c1.938-1.529,4.237-1.416,6.608-.9C275.962,134.226,277.248,129.6,274.227,128.937Z"/><path class="c" d="M225.3,106.909a69.714,69.714,0,0,0,.9,19.155,41.31,41.31,0,0,0,6.511,16.541,43.314,43.314,0,0,0,15.262,14.265c7.041,3.717,15.085,4.55,22.927,4.032,7.712-.509,16.217-2.012,22.571-6.73a2.475,2.475,0,0,0,.861-3.284,2.418,2.418,0,0,0-3.284-.861c-5,3.711-11.43,5.216-17.537,5.853-7.093.74-14.557.619-21.212-2.234a36.258,36.258,0,0,1-14.552-12.19,36.639,36.639,0,0,1-6.519-14.6,63.9,63.9,0,0,1-1.125-19.949,2.415,2.415,0,0,0-2.4-2.4,2.454,2.454,0,0,0-2.4,2.4Z"/><path class="e" d="M332.046,145.263a84.852,84.852,0,0,1,2.609,18.261c.074,8.245-8.858,17.287-22.03,14.493"/><path class="c" d="M260.761,271.376c2.22,2.5,5.464,3.1,8.652,3.255,2.9.137,6.484-.4,8.918-2.1a2.4,2.4,0,1,0-2.423-4.144,6.035,6.035,0,0,1-.567.354c-.131.071-.288.126-.413.207-.27.175.35-.121.028-.01-.589.2-1.168.4-1.776.545q-.454.108-.915.19c-.155.028-.311.053-.468.077.416-.063-.109.01-.188.018a14.773,14.773,0,0,1-1.973.073c-.6-.02-1.188-.075-1.781-.127-.469-.042.17.04-.111-.011-.139-.025-.279-.045-.418-.071-.273-.051-.544-.111-.812-.183-.3-.08-.586-.179-.874-.286.207.077.228.108.017,0-.119-.064-.241-.124-.358-.192s-.232-.146-.348-.217c-.367-.225.087.119-.1-.069-.233-.235-.478-.449-.7-.7a2.414,2.414,0,0,0-3.394,0,2.456,2.456,0,0,0,0,3.394Z"/><path class="c" d="M206.417,300.2q25.416-.014,50.833-.076,23.074-.056,46.15-.107,7.365-.014,14.729-.022l8.2-.009,4.043,0,2.188,0h1.477q1.509.192-.588-1.326l.328-1.211c.18-.376,0-.025-.215.125-.259.176-.51.367-.764.55l-1.533,1.106-3.281,2.366-6.443,4.646q-6.532,4.71-13.068,9.414-3.179,2.288-6.36,4.572a15.7,15.7,0,0,1-2.909,1.969,10.464,10.464,0,0,1-3.916.282l-15.222.026q-26.475.052-52.95.108-15.2.026-30.406.028c-3.088,0-3.094,4.8,0,4.8q26.739,0,53.477-.072,13.717-.03,27.435-.059l15.471-.028c2.546,0,5.367.344,7.78-.613,2.486-.986,4.683-3.028,6.842-4.58q13.092-9.413,26.165-18.853c1.9-1.371,5.072-2.841,4.269-5.711-.83-2.967-4.466-2.339-6.809-2.337q-7.7.006-15.405.016-25.19.033-50.377.105-25.755.065-51.509.092l-7.63,0c-3.089,0-3.094,4.8,0,4.8Z"/><path class="c" d="M363.278,280.419q-33.078,0-66.155.064l-18.574.031c-3.089,0-3.094,4.805,0,4.8q33.854-.06,67.708-.088,8.511-.006,17.021-.007c3.089,0,3.094-4.8,0-4.8Z"/><path class="c" d="M262.03,280.537q-26.545.048-53.09.089c-3.089,0-3.094,4.8,0,4.8q26.546-.03,53.09-.089c3.089,0,3.094-4.805,0-4.8Z"/><path class="c" d="M275.616,258c.039.135.045.281.086.414-.261-.843-.027-.19,0,.12.063.691.1,1.385.125,2.078.081,1.908.11,3.818.131,5.727.047,4.172.034,8.345,0,12.517q-.014,1.98-.033,3.959a8.562,8.562,0,0,1-.036,1.273,2.48,2.48,0,0,1-1.062,1.716,5.768,5.768,0,0,1-2.426.827c.485-.076-.267.023-.3.026-.224.014-.448.029-.672.035-.465.012-.929-.009-1.393-.034-.425-.022-.848-.053-1.272-.085-.04,0-.787-.092-.284-.021-.236-.033-.472-.074-.706-.122a9.908,9.908,0,0,1-1.166-.31c-.7-.235.339.208-.313-.127-.082-.041-.8-.5-.51-.272-.839-.661-.921-1.366-.937-2.743q-.036-3.086-.144-6.168c-.136-3.762-.314-7.521-.32-11.286,0-3.089-4.805-3.094-4.8,0,.006,3.63.17,7.254.305,10.881.076,2.03.134,4.06.155,6.091a9.787,9.787,0,0,0,.963,4.912c2.392,4.214,8.877,4.662,13.149,3.763a8.046,8.046,0,0,0,6.118-4.984,13.634,13.634,0,0,0,.463-4.6c.038-4.246.061-8.493.038-12.739-.014-2.484-.037-4.969-.122-7.452a20.05,20.05,0,0,0-.413-4.675c-.846-2.966-5.479-1.705-4.629,1.276Z"/><path class="c" d="M280.245,256.721c-1.36-5.323-5.606-8.518-10.649-10.121a30.081,30.081,0,0,0-17.417-.371,14.26,14.26,0,0,0-7.057,3.851c-1.537,1.666-1.506,3.45-1.553,5.6a55.482,55.482,0,0,0-.1,7.118,4.413,4.413,0,0,0,2.587,3.727,10.473,10.473,0,0,0,4.468.509c1.617,0,3.233,0,4.85.033,1.45.03,3.03.333,4.464.233,1.842-.128,2.985-1.634,4.583-2.349a8.4,8.4,0,0,1,4.6-.552,2.412,2.412,0,0,0,2.4-2.4,2.461,2.461,0,0,0-2.4-2.4,12.359,12.359,0,0,0-7.725,1.579,10.539,10.539,0,0,0-1.55,1.09c-.475.407-.09.28-.976.173-1.124-.136-2.265-.151-3.4-.174a57.173,57.173,0,0,0-7.143-.028c.15-.017-.326.006-.318-.134-.011.189.367.284.313.339a6.934,6.934,0,0,0,.024-1.47c.043-.992.061-1.985.077-2.978.016-.975.027-1.95.054-2.925.012-.438.024-.878.052-1.316.008-.136.03-.281.029-.417,0-.53-.141.375-.007.049.11-.271-.011.192-.1.268-.227.182.471-.494.379-.4a8.328,8.328,0,0,1,.818-.73,7.953,7.953,0,0,1,2.795-1.345,28.129,28.129,0,0,1,7.366-1.357,25.537,25.537,0,0,1,6.744.887c4.111,1.016,8.033,2.873,9.161,7.29.765,2.99,5.4,1.723,4.629-1.276Z"/><path class="d" d="M65.141,110.115a29.227,29.227,0,0,0-6.546,4.159c-14.083,8.3-23.472,26.749-20.773,55.887,1.486,16.048,2.361,25.405,1.282,32.984-.154,1.511-3.1,12.619-1.792,16.1,2.017,5.379,4.776,7.862,8.915,10.759,2.091,1.464,9.139,3.1,12.45,1.69,0,0,1.6-.462,3.626-1.115,13.444,10.27,38.9,10.283,52.185,5.916l6.844-2.248,1.3-.794c2.943-1.791,3.334-3.457,3.518-6.9.139-2.6-1.754-5.9-2.741-8.3-3.415-8.318-5.9-17.44-3.421-26.271a22.3,22.3,0,0,1-5.434-19.8,7.807,7.807,0,0,1,1.167-3.027,5.521,5.521,0,0,1,4.243-2.172,5.942,5.942,0,0,1,3.622,1.1c9.5-6.63,15.774-19.249,18.09-30.67a42.468,42.468,0,0,0-12.743-19.993A52.2,52.2,0,0,0,95.41,105.149C85.589,104.784,73.966,105.939,65.141,110.115Z"/><path class="c" d="M137.715,316.048a69.529,69.529,0,0,1-.79,11.958c-.45,3.888-.938,7.507-1.556,11.4a2.475,2.475,0,0,0,1.676,2.952A2.42,2.42,0,0,0,140,340.679q.977-6.157,1.69-12.355a70.919,70.919,0,0,0,.827-12.276c-.182-3.07-4.983-3.091-4.8,0Z"/><path class="a" d="M188.812,244.286c-8.13-2.021-15.045-3.381-23.186-4.755.406-2.186.773-4.157.773-4.157-3.674-3.025-7.093-5.582-7.8-9.661-.226-1.816-.122-5.962-.707-7.713-1.047-3.125-4.049-8.481-1.668-11.667,1.717-2.3,3.833-1.232,5.2-.634.834.363,2.114,1.558,4.324,3.753.229-.727.37-1.177.37-1.177a20.993,20.993,0,0,1,4.167-6.071c1.806-1.523,3.341-2.327,6.245-1.537,1.842.525,2.4,2.219,5.057,2.762,1.2.244,10.939,3.912,12.007,4.514a12.73,12.73,0,0,1,5.1,4.929,7.984,7.984,0,0,1,1.316,6.472,39.622,39.622,0,0,1-4.453,10.741,34.64,34.64,0,0,0-6.366,14.3Z"/><path class="c" d="M46.19,234.2a176.905,176.905,0,0,0-21.716,28.7,92.189,92.189,0,0,0-7.864,16c-2.4,6.4-4.566,12.877-6.91,19.293A184.1,184.1,0,0,1,.291,319.674c-1.417,2.74,2.724,5.171,4.145,2.423a187.9,187.9,0,0,0,8.743-19.543c2.326-6.115,4.385-12.327,6.619-18.475a95.962,95.962,0,0,1,7.362-16.33,174.09,174.09,0,0,1,10.576-15.807,158.554,158.554,0,0,1,11.848-14.35c2.119-2.246-1.269-5.646-3.394-3.394Z"/><path class="c" d="M29.72,286.715c-3.578,12.16-3.117,25.024-6.413,37.22-.807,2.985,3.822,4.259,4.629,1.276,3.3-12.2,2.835-25.061,6.413-37.22.873-2.969-3.757-4.237-4.629-1.276Z"/><path class="c" d="M139.2,137.566c-2.238,10.111-7,20.182-14.968,27.02a2.421,2.421,0,0,0,0,3.394,2.449,2.449,0,0,0,3.394,0c8.532-7.326,13.8-18.3,16.2-29.138.667-3.01-3.96-4.3-4.628-1.276Z"/><path class="c" d="M145.92,151.109a47.044,47.044,0,0,0-5.252-22.545A44.9,44.9,0,0,0,125.753,112a54.058,54.058,0,0,0-22.226-8.61,83.456,83.456,0,0,0-23.059.056c-8.15,1.093-16.311,3.41-22.869,8.55a2.413,2.413,0,0,0,0,3.394,2.459,2.459,0,0,0,3.394,0c5.118-4.011,11.786-5.866,18.093-6.921a83.206,83.206,0,0,1,20.7-.729c13.948,1.213,27.975,8.541,35.321,20.708a42.089,42.089,0,0,1,6.014,22.659c-.067,3.09,4.733,3.089,4.8,0Z"/><path class="c" d="M126.157,167.176a8.275,8.275,0,0,0-10.3-1.354c-3.384,2.179-4.022,6.469-4.137,10.194-.207,6.741,2.4,14,7.51,18.555,2.3,2.049,5.707-1.334,3.394-3.394a18.781,18.781,0,0,1-6.027-12.432,22.631,22.631,0,0,1,.026-4.316,8.8,8.8,0,0,1,.952-3.718c1.2-1.87,3.812-1.591,5.192-.141,2.134,2.242,5.525-1.156,3.394-3.394Z"/><path class="c" d="M127.707,235.863a104.856,104.856,0,0,1,18.807,9.383,57.983,57.983,0,0,1,6.709,4.824,28.89,28.89,0,0,1,2.232,2.1q.462.488.886,1.006c-.364-.446.055.074.1.143.161.229.322.456.476.689a48.9,48.9,0,0,1,5.041,10.949c1.5,4.221,2.782,8.522,3.925,12.853.463,1.755.905,3.515,1.307,5.285.119.526.237,1.052.341,1.58.034.173.053.355.1.525a2.217,2.217,0,0,1,.272-1.548l2.711-1.1h-.005l1.059.618q.491.743.354.447a2.417,2.417,0,0,0-3.283-.861,2.458,2.458,0,0,0-.861,3.284,2.31,2.31,0,0,0,1.46,1.142,2.487,2.487,0,0,0,2.71-1.1c.59-.98.225-2.16.006-3.2-.3-1.417-.642-2.825-1-4.23-1.1-4.383-2.349-8.734-3.794-13.017a68.077,68.077,0,0,0-5.553-13.009c-2.521-4.252-6.471-7.288-10.5-10.03a107.254,107.254,0,0,0-22.227-11.356,2.42,2.42,0,0,0-2.952,1.677,2.453,2.453,0,0,0,1.676,2.952Z"/><path class="c" d="M168.437,208.913c.217-.629-.241.44.115-.274.127-.252.264-.5.406-.744.266-.456.553-.9.85-1.337a15.444,15.444,0,0,1,1.924-2.421c1.4-1.366,3.267-1.861,4.839-.783a21.727,21.727,0,0,0,2.376,1.673,17.9,17.9,0,0,0,2.7.915c1.59.5,3.153,1.1,4.714,1.682q2.595.969,5.165,2c.114.046.7.3.071.027.126.055.259.1.381.166s.275.128.41.2a10.886,10.886,0,0,1,3.228,2.585,8.191,8.191,0,0,1,2.225,5.036c-.058,2.339-1.265,4.958-2.166,7.081-1.184,2.79-2.964,5.125-4.5,7.714a35.916,35.916,0,0,0-3.738,8.98c-.807,2.985,3.822,4.259,4.629,1.276a31.557,31.557,0,0,1,3.635-8.462,56.7,56.7,0,0,0,4.387-7.718c1.157-2.742,2.5-5.85,2.552-8.871a12.312,12.312,0,0,0-2.771-7.35,14.791,14.791,0,0,0-5.713-4.721c-1.883-.832-3.819-1.553-5.744-2.279-1.772-.667-3.546-1.343-5.347-1.926a12.986,12.986,0,0,1-1.988-.629c-1.156-.595-2.034-1.651-3.362-2.176a8.685,8.685,0,0,0-9.244,2.06,18.521,18.521,0,0,0-4.663,7.022c-1.011,2.926,3.624,4.183,4.629,1.276Z"/><path class="c" d="M169.2,209.506c-1.32-1.32-2.624-2.66-4-3.923a11.271,11.271,0,0,0-2.677-2.006,7.535,7.535,0,0,0-5.084-.885,6.284,6.284,0,0,0-4.222,4.4c-1.029,3.549.7,7.215,1.958,10.457,1.107,2.861.54,5.892,1.142,8.983.906,4.653,4.936,7.706,8.38,10.536a2.47,2.47,0,0,0,3.394,0,2.418,2.418,0,0,0,0-3.394c-2.389-1.963-5.426-3.994-6.708-6.928-.98-2.242-.518-5.292-.87-7.826-.382-2.752-1.922-5.191-2.563-7.889a4.128,4.128,0,0,1,.161-3.227c.537-.778,1.14-.441,1.762-.185a5.669,5.669,0,0,1,1.076.595c-.413-.284.07.064.214.187.218.186.431.379.642.573,1.375,1.263,2.679,2.6,4,3.923,2.187,2.187,5.582-1.206,3.394-3.394Z"/><path class="c" d="M160.209,248.333a73.885,73.885,0,0,1,2.8-8.364l-2.71,1.1c10.508,1.7,20.933,3.711,31.24,6.385l-1.676-2.952q-2.159,13.923-4.527,27.813c-1.437,8.476-2.835,16.956-4.7,25.352-.908,4.09-1.895,8.164-3.026,12.2a64.7,64.7,0,0,1-3.7,10.836c-1.759,3.621-4.608,6.294-8.663,7.041a17.487,17.487,0,0,1-10.74-1.968c-7.663-4.011-12.309-12.936-14.319-21.01-.746-3-5.376-1.726-4.628,1.276,2.105,8.455,6.686,16.825,13.753,22.111,6.953,5.2,17.231,6.456,24.266.831,3.58-2.862,5.29-7.3,6.721-11.514,1.353-3.982,2.456-8.05,3.468-12.13,2.158-8.7,3.764-17.5,5.274-26.334,1.891-11.063,3.73-22.134,5.448-33.225a2.459,2.459,0,0,0-1.676-2.953c-10.307-2.673-20.732-4.683-31.24-6.385a2.462,2.462,0,0,0-2.71,1.1,83.586,83.586,0,0,0-3.287,9.511c-.886,2.966,3.745,4.233,4.629,1.276Z"/><path class="c" d="M117.011,194.392c-1.155,7.819.576,15.5,3.4,22.788.616,1.584,1.3,3.134,2,4.683a11.99,11.99,0,0,1,1.35,4.349,8.526,8.526,0,0,1-.456,3.3,3.7,3.7,0,0,0-.414.694,5.97,5.97,0,0,1-1.466,1.174c-2.612,1.636-.2,5.791,2.422,4.145a9.152,9.152,0,0,0,4.575-7.286c.409-3.644-.88-6.613-2.355-9.87-3.132-6.919-5.558-15.048-4.427-22.7a2.479,2.479,0,0,0-1.677-2.952,2.418,2.418,0,0,0-2.952,1.676Z"/><path class="c" d="M50.442,117.426C36.71,130.414,33.859,150.823,35.3,168.8c.783,9.736,2.2,19.542,1.833,29.332q-.048,1.275-.154,2.548-.046.549-.106,1.1-.033.3-.07.6a1.4,1.4,0,0,1-.041.3c-.263,1.77-.612,3.524-.944,5.282-.429,2.275-.834,4.561-1.066,6.866a11.78,11.78,0,0,0,.392,5.448A23.955,23.955,0,0,0,45.33,232.276a18.334,18.334,0,0,0,6.36,2.02c2.464.39,5.247.654,7.625-.288a2.475,2.475,0,0,0,1.676-2.953,2.417,2.417,0,0,0-2.952-1.676,9.759,9.759,0,0,1-5.073.289,21.907,21.907,0,0,1-3.027-.675,8.943,8.943,0,0,1-2.007-.761A18.731,18.731,0,0,1,40,219.527a13.3,13.3,0,0,1-.475-1.261,3.077,3.077,0,0,1-.08-.386c.088.5.006-.008,0-.139a23.726,23.726,0,0,1,.08-2.612c.181-1.981.556-3.943.925-5.9a77.877,77.877,0,0,0,1.438-10.065c.493-8.843-.63-17.793-1.442-26.584-.934-10.111-1.119-20.291,1.4-30.206,2.074-8.179,5.914-15.805,11.995-21.557,2.249-2.127-1.15-5.517-3.394-3.394Z"/><path class="c" d="M50.311,207.457c-.337,6.587.994,13.562,4.791,19.04A29.533,29.533,0,0,0,66.573,236c9.919,4.841,21.545,6.14,32.46,5.54a63.456,63.456,0,0,0,16.093-2.726c2.926-.952,1.674-5.588-1.276-4.629-8.914,2.9-18.621,3.243-28,2.2-9.189-1.02-19.449-3.866-25.6-11.012a20.341,20.341,0,0,1-3.9-7.148,31.81,31.81,0,0,1-1.244-10.764c.158-3.087-4.643-3.078-4.8,0Z"/><path class="c" d="M263.248,117.965c-.337,1.284-.639,2.581-.86,3.891a4.921,4.921,0,0,0-.02,2.14,3.07,3.07,0,0,0,1.642,2,4.468,4.468,0,0,0,2.127.521c.473-.02.924-.138,1.389-.2a2.385,2.385,0,0,0,1.435-1.1,2.453,2.453,0,0,0,.242-1.849,2.426,2.426,0,0,0-1.1-1.434l-.574-.242a2.423,2.423,0,0,0-1.276,0c-.192.026-.38.072-.572.1l.638-.086a2.114,2.114,0,0,1-.509,0l.638.086a2.332,2.332,0,0,1-.543-.158l.573.242a2.6,2.6,0,0,1-.321-.171l.485.376a.818.818,0,0,1-.132-.131l.375.486a1.031,1.031,0,0,1-.089-.163l.242.574a1.3,1.3,0,0,1-.062-.253l.086.638a2.45,2.45,0,0,1,.015-.561l-.086.638a37.676,37.676,0,0,1,.889-4.063,2.5,2.5,0,0,0-.242-1.85,2.4,2.4,0,0,0-3.284-.861,2.482,2.482,0,0,0-1.1,1.435Z"/><path class="c" d="M289.059,107.648c.679,2.206.236,7.279-3.942,7.71-5.522-.033-5.816-6.166-3.957-9.05C282.682,103.947,287.157,102.965,289.059,107.648Z"/><path class="c" d="M244.838,107.648c-.678,2.206-.236,7.279,3.942,7.71,5.522-.033,5.816-6.166,3.957-9.05C251.215,103.947,246.74,102.965,244.838,107.648Z"/></svg>