<?xml version="1.0" encoding="utf-8"?>
<!-- Uploaded to: SVG Repo, www.svgrepo.com, Generator: SVG Repo Mixer Tools -->
<svg width="800px" height="800px" viewBox="-3.47 0 347.835 347.835" xmlns="http://www.w3.org/2000/svg"><defs><style>.a{fill:#ffffff;}.b{fill:#f4b3b3;}.c{fill:#cfcfcf;}.d{fill:#211715;}.e{fill:#b5886a;}.f{fill:none;}.g{fill:#c4dbee;}.h{fill:#5394cf;}.i{fill:#f3736f;}.j{fill:#7cc67a;}</style></defs><path class="a" d="M205.361,170.791c-6.684,0-8.351,0-19.3,0a2.834,2.834,0,0,0-2.793,2.346c-5.138,29.413-21.908,115.618-26.08,137.013A5.993,5.993,0,0,1,151.308,315c-27.558,0-68.2-.008-88.092-.007a3.985,3.985,0,0,1-3.987-4l.014-3.4a4,4,0,0,1,4-3.98h80.108a4.621,4.621,0,0,0,4.543-3.74c1.563-8,4.356-22.3,7.617-39.1-12.454,0-68.209-.007-92.378-.006a3.975,3.975,0,0,1-3.976-4l.012-2.963a3.994,3.994,0,0,1,3.995-3.978l94.458.01c5.043-26.126,13.16-69.59,15.957-84.6a6.472,6.472,0,0,1,6.371-5.282c12.328.007,19.982,0,25.378.012Z"/><path class="a" d="M248.313,184.415c1.078-6.692,2.233-12.958,3.39-18.526l.25-1.207c-7.869,1.516-15.844,2.606-24.564,3.64a1,1,0,0,1-1.093-.738c-1.433-5.642-2.727-13.366-3.482-18.213a1.024,1.024,0,0,1,.819-1.146c10.71-2.018,19.216-3.645,29.543-5.6l-.51-2.478c-1.556-7.555-4.086-20.424-2.979-26.114,1.483-7.622,7.364-13.9,8.482-21.589,4.953-.138,17.975-2.087,22.311-4.486a5.435,5.435,0,0,1,3.378-1.049,4.6,4.6,0,0,1,2.72,2.176c3.04,4.331,4.767,9.437,6.156,14.543a136.735,136.735,0,0,1,4.577,43.335,40.14,40.14,0,0,1-3.445,14.886c-.855,1.822-1.575,6.912-.851,7.888,12.943,17.455,12.837,61.822,23.625,83.574.931,1.877,1.959,3.958,1.388,5.974-.727,2.566-3.63,3.74-6.189,4.489-22.514,6.587-44.977,7.367-68.094,3C240.978,244.01,244.047,210.889,248.313,184.415Z"/><path class="b" d="M293.715,162.167a39.845,39.845,0,0,0,3.6-15.2,136.735,136.735,0,0,0-4.577-43.335c-1.389-5.106-3.116-10.212-6.156-14.543a4.6,4.6,0,0,0-2.72-2.176,5.435,5.435,0,0,0-3.378,1.049c-4.336,2.4-17.358,4.348-22.311,4.486-1.118,7.685-7,13.967-8.482,21.589-1.107,5.69,1.423,18.559,2.979,26.114l.511,2.482c-10.327,1.95-18.833,3.577-29.544,5.595a1.024,1.024,0,0,0-.819,1.146c.755,4.847,2.049,12.571,3.482,18.213a1,1,0,0,0,1.093.738c13.919-1.65,25.938-3.442,38.664-6.889,2.67,1.1,5.168,1.826,5.168,1.826a52.828,52.828,0,0,0,16.586.71c1.994-.21,5.6-.932,5.908-1.8"/><path class="a" d="M280.452,87.974c-3.885,2.131-14.606,3.9-20.391,4.362l-1.173-6.41c-.409-3.079-2.585-6.557-2.837-7.031a1.348,1.348,0,0,0-1.667-.634,18.714,18.714,0,0,1-10.047.214,7.767,7.767,0,0,1-4.647-3.495c-1.658-2.491-2.78-7.344-3.117-9.521a6.2,6.2,0,0,0-1.669-2.485c-1.194-1.052-3.017-1.781-2.334-3.885a3.781,3.781,0,0,1,1.543-1.9c3.5-2.375,3.09-8.005,2.8-12.062a30,30,0,0,1-.3-6.235,33.564,33.564,0,0,1,.865-5.488l.191.2a67.731,67.731,0,0,0,12.122,9.5c2.336,1.341,9.97,5.622,14.054,6.368l1.537.281a5.632,5.632,0,0,1,2.013-1.869,3.6,3.6,0,0,1,3.208-.13c1.5.748,2.087,2.606,2.155,4.284a12.044,12.044,0,0,1-5.621,10.517c1.34,3.024,2.731,6.11,3.052,9.362a10.872,10.872,0,0,1-1.678,7.234c-.85,1.224,3.629,2.358,5.709,2.626,2.472.268,5.278.227,7.115-1.262a5.655,5.655,0,0,0,1.437-1.776.135.135,0,0,0,0,.03l1.088,8.142a5.435,5.435,0,0,0-3.378,1.049Z"/><path class="a" d="M109.2,184.458l3.67-.2c.213-1.225.387-2.217.387-2.217.2-1.138.737-3.358.873-4.421-1.862-.361-7.623-1.818-9.021-2.078L97.386,174.1c.491,1.316,2.349,6.117,3.28,8.823l.677,1.971C103.952,184.75,106.578,184.6,109.2,184.458Z"/><path class="a" d="M82.113,185.989c6.056-.346,12.587-.718,19.23-1.091l-.677-1.972c-1.034-3.006-3.213-8.6-3.389-9.128-.952.176-17.613,4.663-18.2,4.849.091.565,1.21,4.553,1.652,6.373l.251,1.034Z"/><path class="a" d="M128.659,183.005l-.25.4c6.092-.326,11.821-.624,16.854-.872.616-1.44.628-.509-3.579-6.839a2.041,2.041,0,0,1-.742.12H134.1a2.538,2.538,0,0,1-.832-.114c-.5.826-3.418,5.388-4.089,6.463Z"/><path class="a" d="M134.1,175.815c-1.813,0-1.432-1.076-1.432-1.248-.008-2.234.006-5.116.006-5.725A1.449,1.449,0,0,1,134.1,167.2h6.837a1.417,1.417,0,0,1,1.427,1.545c0,2.031,0,4.827,0,5.821,0,.253.014,1.248-1.432,1.248H134.1"/><path class="a" d="M261.371,324.142a23.912,23.912,0,0,0-.049-7.982c-1.993-15.764-3.218-31.614-4.453-47.453a145.343,145.343,0,0,0,21.1.678q-.078,25.185-1.554,50.364a29.779,29.779,0,0,0,.009,5.465,14.7,14.7,0,0,0,.743,3.1,50.878,50.878,0,0,1-11.164,1.874c-4.532-.017-4.931-2.654-5.18-3.913a1.613,1.613,0,0,0-.076-.268A9.445,9.445,0,0,0,261.371,324.142Z"/><path class="a" d="M282.409,272.47q-.561-.629-1.077-1.211s-.72-.814-1.73-1.951a139.662,139.662,0,0,0,22.831-3.117c.132.215.206.339.206.339.773,1.307,4.169,7.466,5.512,9.609a58.219,58.219,0,0,1,5.7,10.162,55.446,55.446,0,0,0,2.97,6.426,11.386,11.386,0,0,0,5.049,4.8c1.236.529,2.467,1.068,3.694,1.578a49.924,49.924,0,0,1-6.3,10.478c-3,3.4-5.244,1.964-6.355,1.322a1.342,1.342,0,0,0-1.387-.019,23.38,23.38,0,0,0-2.414-7c-2.184-4.158-5.329-7.719-8.443-11.235C295.791,287.157,287.7,278.4,282.409,272.47Z"/><path class="a" d="M66.3,249.83H63.506c.927,2.864-9.568-44.4-12.379-60.682a1.232,1.232,0,0,1,1.155-1.44c14.555-.824,98.489-5.775,111.05-5.916l7.256-.081c-3.748,20.141-8.607,45.514-12.972,68.128Z"/><path class="a" d="M122.869,2c1.26,0,26.465.023,29.614.023,0,1.768.021,32.453.034,39.626-10.649,0-18.4.019-29.606.019C122.911,32.389,122.869,6.833,122.869,2Z"/><path class="a" d="M81.388,2c1.259,0,26.464.023,29.614.023,0,1.768.021,32.453.034,39.626-10.65,0-18.4.019-29.607.019C81.429,32.389,81.388,6.833,81.388,2Z"/><path class="a" d="M53.48,68.476c-1.923,0-1.518-1.1-1.518-1.278-.01-2.289,0-5.241,0-5.866a1.5,1.5,0,0,1,1.513-1.681h7.253a1.468,1.468,0,0,1,1.512,1.584c0,2.08.006,4.944.006,5.963,0,.259.015,1.278-1.518,1.278H53.48"/><path class="a" d="M19.851,68.476c-1.923,0-1.519-1.1-1.519-1.278-.009-2.289.006-5.241.006-5.866a1.5,1.5,0,0,1,1.513-1.681H27.1a1.469,1.469,0,0,1,1.513,1.584c0,2.08.006,4.944.006,5.963,0,.259.014,1.278-1.519,1.278H19.851"/><path class="a" d="M75.547,324.606a7.739,7.739,0,0,0-6.582,1.723,7.336,7.336,0,0,0-2.167,7.039,7.69,7.69,0,0,0,6.036,5.563c.386.078,4.311.807,6.945-1.976a7.652,7.652,0,0,0,.388-9.552A7.572,7.572,0,0,0,75.547,324.606Z"/><path class="a" d="M143.1,324.606a7.737,7.737,0,0,0-6.581,1.723,7.336,7.336,0,0,0-2.168,7.039,7.69,7.69,0,0,0,6.036,5.563c.386.078,4.311.807,6.945-1.976a7.652,7.652,0,0,0,.389-9.552A7.574,7.574,0,0,0,143.1,324.606Z"/><path class="c" d="M149.178,113.128a3.834,3.834,0,0,1-.146-1c0-1.278-.149-20.967-.149-22.909a10.981,10.981,0,0,1,2.13-5.907c0-.848,0-1.478,0-1.478,0-.726.261-1.261.95-1.261,1.239,0,13.327-.008,15.337-.008.522,0,1.092.209,1.092,1.318v1.647c1.446,1,2.136,4.7,2.136,5.811,0,1.463.031,20.933.031,21.985,0,2.851-1.176,5.432-2.731,5.432l-15.177.148A5.94,5.94,0,0,1,149.178,113.128Z"/><path class="c" d="M86.067,113.128a3.792,3.792,0,0,1-.146-1c0-1.278-.15-20.967-.15-22.909A10.982,10.982,0,0,1,87.9,83.316c0-.848,0-1.478,0-1.478,0-.726.261-1.261.95-1.261,1.239,0,13.327-.008,15.337-.008.522,0,1.092.209,1.092,1.318v1.647c1.446,1,2.136,4.7,2.136,5.811,0,1.463.031,20.933.031,21.985,0,2.851-1.176,5.432-2.731,5.432l-15.177.148A5.94,5.94,0,0,1,86.067,113.128Z"/><path class="c" d="M117.622,113.128a3.834,3.834,0,0,1-.146-1c0-1.278-.149-20.967-.149-22.909a10.974,10.974,0,0,1,2.131-5.907V81.838c0-.726.261-1.261.95-1.261,1.24,0,13.327-.008,15.337-.008.523,0,1.092.209,1.092,1.318v1.647c1.447,1,2.136,4.7,2.136,5.811,0,1.463.032,20.933.032,21.985,0,2.851-1.176,5.432-2.732,5.432l-15.176.148A5.944,5.944,0,0,1,117.622,113.128Z"/><path class="d" d="M130.911,183.173c1.2-1.92,2.415-3.831,3.628-5.744a2.018,2.018,0,0,0-.718-2.736,2.043,2.043,0,0,0-2.736.717c-1.213,1.913-2.428,3.824-3.628,5.744a2.02,2.02,0,0,0,.718,2.737,2.041,2.041,0,0,0,2.736-.718Z"/><path class="d" d="M140.635,177.718c.894,1.322,1.844,2.607,2.727,3.937a2.119,2.119,0,0,0,1.195.919,2,2,0,0,0,2.461-1.4,2.008,2.008,0,0,0-.2-1.541c-.883-1.329-1.833-2.614-2.727-3.936a2.131,2.131,0,0,0-1.2-.92,2.048,2.048,0,0,0-1.541.2,2.017,2.017,0,0,0-.919,1.195,1.994,1.994,0,0,0,.2,1.541Z"/><path class="d" d="M134.1,173.815a1.745,1.745,0,0,1-.306-.012c-.029-.048.448.11.156.016-.067-.021-.417-.129-.043.005.393.141-.121-.135.232.134a1.138,1.138,0,0,1,.384.5c.138.323.088.2.059.107-.064-.211.069.61.053.352-.006-.1.044-.426-.02.051-.094.707.058-.508.051-.371.021-.394,0-.794,0-1.187q0-2.209.008-4.417c0-.067,0-.135,0-.2,0-.4-.08.131-.044.211-.03-.066.058-.238.069-.305.042-.262-.1.227-.112.243.088-.169.238-.3-.125.11.3-.337-.3.17-.037.023-.414.229-.333.13-.172.095-.494.107-.3.027-.153.033.123,0,.247,0,.371,0h6.2a1.621,1.621,0,0,0,.4,0c-.043.022-.481-.107-.178-.008-.5-.163-.313-.157-.195-.077-.47-.318-.278-.244-.185-.141.241.264-.293-.415-.1-.128.158.239-.137-.522-.05-.106a1.059,1.059,0,0,0,.034.143c.085.232-.077-.324-.042-.338a7.629,7.629,0,0,0,.011.915q0,2.347,0,4.7c0,.175-.015.358,0,.532.019.256.129-.62.029-.242a.711.711,0,0,0-.038.12c-.032-.206.164-.366.223-.439.281-.349-.157.052.2-.192.294-.2.1-.076.024-.034-.223.123.518-.205.137-.077-.238.081-.022-.122.147-.019a1.668,1.668,0,0,0-.44,0H134.1a2,2,0,1,0,0,4h6.573a3.8,3.8,0,0,0,2.736-.888,3.241,3.241,0,0,0,.96-2.295c.057-1.618,0-3.249,0-4.869a6.428,6.428,0,0,0-.224-2.3,3.353,3.353,0,0,0-2.942-2.241c-1.013-.1-2.07-.017-3.086-.017h-3.641a3.764,3.764,0,0,0-2.636.833,3.684,3.684,0,0,0-1.15,2.576c-.122,1.715-.022,3.474-.019,5.192a4.342,4.342,0,0,0,0,.765c0-.01.076-1.236-.022.172a2.723,2.723,0,0,0,.119,1.022,3.277,3.277,0,0,0,3.335,2.054,2,2,0,0,0,0-4Z"/><path class="d" d="M76.078,322.677a9.62,9.62,0,0,0-9.776,3.69,9.222,9.222,0,0,0,1.225,12.011,10.388,10.388,0,0,0,8.711,2.535,8.864,8.864,0,0,0,7.413-8.835,9.484,9.484,0,0,0-7.573-9.4,2.051,2.051,0,0,0-2.46,1.4,2.019,2.019,0,0,0,1.4,2.46,10.98,10.98,0,0,1,1.329.376c.494.165-.358-.2.133.057.16.083.323.159.481.247s.33.193.489.3c.006,0,.464.36.245.175a4.764,4.764,0,0,1,1.264,1.529c.093.169.181.342.26.519-.161-.361.077.229.084.248a9.4,9.4,0,0,1,.293,1.144c.122.6.006-.356.032.254.008.2.025.4.027.6a7.19,7.19,0,0,1-.055,1c.056-.411-.059.232-.064.255q-.066.292-.156.579s-.228.618-.083.272a5.454,5.454,0,0,1-.27.541,4.085,4.085,0,0,1-1.3,1.513c.266-.2-.283.17-.27.162-.169.1-.346.19-.52.286-.508.279.315-.078-.222.1-.174.056-.346.117-.523.167s-.341.089-.514.125c-.079.016-.644.1-.13.037-.256.033-.513.052-.77.062-.475.017-.964-.084-1.432-.058.636-.036.323.048.085,0-.19-.036-.379-.081-.566-.132-.17-.046-.34-.1-.507-.156-.042-.014-.591-.233-.2-.062a8.044,8.044,0,0,1-.987-.516c-.162-.1-.317-.206-.474-.312-.487-.329.237.242-.2-.159-.239-.22-.475-.436-.692-.678a5.853,5.853,0,0,1-.905-1.543c-.057-.208-.127-.41-.177-.62,0,.012-.123-.681-.075-.319a6.377,6.377,0,0,1-.039-1.07c0,.007.058-.686.01-.317a5.78,5.78,0,0,1,.126-.626c.034-.138.071-.275.113-.41.026-.084.281-.724.183-.515a4.931,4.931,0,0,1,1.516-2,4.751,4.751,0,0,1,1.92-.938c.18-.047.362-.078.542-.12.427-.1-.3.006.156-.024.356-.023.708-.045,1.065-.035.241.007.479.036.719.051.362.023-.435-.182-.18-.024a.836.836,0,0,0,.233.041,2.052,2.052,0,0,0,2.46-1.4A2.017,2.017,0,0,0,76.078,322.677Z"/><path class="d" d="M143.634,322.677a9.622,9.622,0,0,0-9.777,3.69,9.222,9.222,0,0,0,1.225,12.011,10.389,10.389,0,0,0,8.711,2.535,8.864,8.864,0,0,0,7.414-8.835,9.484,9.484,0,0,0-7.573-9.4,2.051,2.051,0,0,0-2.46,1.4,2.018,2.018,0,0,0,1.4,2.46,10.914,10.914,0,0,1,1.328.376c.494.165-.357-.2.134.057.16.083.323.159.481.247s.33.193.489.3c.005,0,.463.36.244.175a4.754,4.754,0,0,1,1.265,1.529c.093.169.181.342.259.519-.16-.361.078.229.084.248a9.409,9.409,0,0,1,.294,1.144c.121.6.006-.356.031.254.009.2.026.4.027.6a7.037,7.037,0,0,1-.054,1c.055-.411-.059.232-.064.255q-.067.292-.157.579s-.227.618-.082.272a5.462,5.462,0,0,1-.271.541,4.091,4.091,0,0,1-1.3,1.513c.265-.2-.283.17-.27.162-.17.1-.346.19-.52.286-.508.279.314-.078-.223.1-.174.056-.346.117-.522.167s-.342.089-.515.125c-.078.016-.644.1-.13.037-.255.033-.513.052-.77.062-.475.017-.963-.084-1.431-.058.635-.036.322.048.085,0-.191-.036-.379-.081-.566-.132-.171-.046-.34-.1-.507-.156-.043-.014-.592-.233-.2-.062a8.191,8.191,0,0,1-.987-.516c-.162-.1-.317-.206-.474-.312-.486-.329.238.242-.2-.159-.238-.22-.474-.436-.691-.678a5.853,5.853,0,0,1-.905-1.543c-.058-.208-.127-.41-.177-.62,0,.012-.123-.681-.076-.319a6.376,6.376,0,0,1-.038-1.07c0,.007.058-.686.01-.317a5.776,5.776,0,0,1,.125-.626c.034-.138.072-.275.113-.41.026-.084.282-.724.184-.515a4.937,4.937,0,0,1,1.515-2,4.755,4.755,0,0,1,1.921-.938c.179-.047.361-.078.542-.12.427-.1-.3.006.156-.024.355-.023.708-.045,1.065-.035.24.007.478.036.718.051.363.023-.435-.182-.179-.024a.83.83,0,0,0,.233.041,2.053,2.053,0,0,0,2.46-1.4A2.019,2.019,0,0,0,143.634,322.677Z"/><path class="d" d="M163.332,179.792c-8.548.1-17.106.684-25.64,1.126q-20.409,1.056-40.812,2.232-17.916,1.012-35.83,2.054l-5.666.327c-1.965.113-4.659-.171-5.816,1.747-.868,1.44-.209,3.345.075,4.889q.4,2.165.818,4.324.99,5.106,2.041,10.2c2.74,13.394,5.678,26.747,8.438,40.137.157.764.314,1.529.464,2.294.494,2.524,4.35,1.456,3.857-1.063-2.365-12.068-5.093-24.067-7.6-36.107-1.39-6.685-2.775-13.374-4.023-20.088q-.168-.9-.33-1.8a6.744,6.744,0,0,0-.157-.885,3.068,3.068,0,0,0-.066-.377c.057.448-.1.71-.458.789-.3.092-.353.129-.172.108.316.188,1.494-.085,1.871-.107q2.581-.147,5.162-.3,16.923-.978,33.846-1.944,20.322-1.154,40.649-2.239c9.24-.486,18.487-1.037,27.737-1.286.537-.014,1.073-.026,1.609-.033,2.572-.03,2.579-4.03,0-4Z"/><path class="d" d="M138.445,241.036c2.278-16.155,4.845-32.267,7.53-48.36a2.059,2.059,0,0,0-1.4-2.46,2.017,2.017,0,0,0-2.46,1.4c-2.685,16.092-5.252,32.205-7.53,48.36a2.068,2.068,0,0,0,1.4,2.46,2.013,2.013,0,0,0,2.46-1.4Z"/><path class="d" d="M75.638,196.336c2.5,14.871,4.89,29.76,7,44.69a2.012,2.012,0,0,0,2.46,1.4,2.052,2.052,0,0,0,1.4-2.46c-2.11-14.931-4.5-29.819-7-44.69a2.016,2.016,0,0,0-2.46-1.4,2.047,2.047,0,0,0-1.4,2.46Z"/><path class="d" d="M119.837,240.5c.858-12.367,1.815-24.727,2.7-37.092q.361-5.028.708-10.058c.174-2.57-3.827-2.559-4,0-.915,13.48-1.939,26.954-2.925,40.429-.164,2.24-.33,4.48-.485,6.721-.179,2.569,3.822,2.558,4,0Z"/><path class="d" d="M96.757,194.6c.874,13.08,1.864,26.152,2.822,39.226q.246,3.336.488,6.674c.183,2.552,4.185,2.573,4,0-.874-12.154-1.787-24.306-2.653-36.461q-.336-4.719-.657-9.439c-.171-2.555-4.172-2.574-4,0Z"/><path class="d" d="M73.278,228.156l56.939-1.648,16.263-.471c2.569-.075,2.579-4.075,0-4l-56.132,1.625-17.07.494c-2.568.074-2.579,4.075,0,4Z"/><path class="d" d="M66.916,212.023c22-.93,44-2.037,66-3.047q9.288-.426,18.577-.821c2.565-.108,2.579-4.109,0-4-21.7.917-43.386,2.015-65.081,3.008q-9.747.447-19.5.86c-2.565.108-2.578,4.109,0,4Z"/><path class="d" d="M256.24,91.914c-1.124,7.194-6.114,12.942-8.069,19.867-1.658,5.875-.4,12.415.563,18.305.583,3.547,1.279,7.074,2,10.594.518,2.52,4.375,1.453,3.857-1.064a153.94,153.94,0,0,1-3.011-18.419,24.423,24.423,0,0,1,.245-7.593,43.906,43.906,0,0,1,4.055-9.508c1.816-3.531,3.595-7.16,4.214-11.119a2.063,2.063,0,0,0-1.4-2.46,2.016,2.016,0,0,0-2.461,1.4Z"/><path class="d" d="M270.689,165.188a50.842,50.842,0,0,0,17.65.71,2.012,2.012,0,0,0,1.4-2.46,2.053,2.053,0,0,0-2.46-1.4,45.03,45.03,0,0,1-7.928.223,45.845,45.845,0,0,1-7.6-.933,2.046,2.046,0,0,0-2.46,1.4,2.02,2.02,0,0,0,1.4,2.46Z"/><path class="d" d="M258.169,94.445a83.748,83.748,0,0,0,14.864-2.05,40.422,40.422,0,0,0,6.863-1.976c.994-.408,1.93-1.09,2.943-1.418,1.456-.47,2.356,1.553,2.978,2.566,3.917,6.373,5.605,14.136,7.068,21.387a133.712,133.712,0,0,1,2.588,23.073c.213,8.418.2,17.366-3.485,25.13-1.1,2.314,2.35,4.346,3.454,2.019,3.518-7.413,4.068-15.491,4.075-23.582a139.862,139.862,0,0,0-2.282-25.134c-1.414-7.776-3.188-15.949-6.881-23-1.547-2.955-3.845-7.176-7.811-6.493a18.912,18.912,0,0,0-3.952,1.7,28.191,28.191,0,0,1-3.12,1.022,74.611,74.611,0,0,1-17.3,2.76c-2.568.082-2.579,4.083,0,4Z"/><path class="d" d="M249.774,165.357c-2.631,12.7-4.632,25.528-6.186,38.4a363.951,363.951,0,0,0-2.9,42.051,170.053,170.053,0,0,0,1.054,20.973,2.063,2.063,0,0,0,1.469,1.929,150.981,150.981,0,0,0,43.923,1.994,145.083,145.083,0,0,0,21.973-4.086c2.9-.776,6.074-1.458,8.472-3.364,2.639-2.1,3.115-5.328,1.944-8.4-.884-2.314-2.12-4.478-3.009-6.8-.807-2.106-1.509-4.252-2.145-6.415-1.4-4.773-2.494-9.633-3.484-14.506-2.124-10.462-3.731-21.025-6.036-31.45-2.138-9.667-4.7-20.112-10.939-28.044a2.012,2.012,0,0,0-2.828,0,2.05,2.05,0,0,0,0,2.829c4.884,6.212,7.2,14.9,9.06,22.6,2.4,9.938,3.993,20.05,5.9,30.089,1.745,9.192,3.576,18.563,7.129,27.259.373.912.76,1.82,1.173,2.715a19.918,19.918,0,0,1,1.74,4.075c.559,2.662-2.013,3.762-4.133,4.439a126.627,126.627,0,0,1-20.681,4.542,145.231,145.231,0,0,1-46.995-1.34l1.468,1.928c-1.54-12.824-1.235-25.863-.422-38.729.874-13.836,2.481-27.63,4.635-41.324,1.069-6.8,2.277-13.57,3.673-20.306.521-2.513-3.334-3.587-3.857-1.064Z"/><path class="d" d="M279.918,272.673c4.492,5.068,9.082,10.048,13.632,15.063,4.78,5.269,10.193,10.48,13.616,16.773,2.05,3.769,3.211,8.187,2.237,12.448-.574,2.5,3.282,3.575,3.857,1.063,1.974-8.632-2.534-16.53-7.866-22.948-4.7-5.653-9.779-11-14.723-16.441-2.654-2.917-5.308-5.834-7.925-8.786-1.71-1.93-4.531.907-2.828,2.828Z"/><path class="d" d="M306.463,277.205a59.64,59.64,0,0,1,4.386,7.38c1.223,2.455,2.145,5.043,3.353,7.5a16.479,16.479,0,0,0,4.431,5.791c2.2,1.735,5.1,2.651,7.687,3.682a2.013,2.013,0,0,0,2.46-1.4,2.049,2.049,0,0,0-1.4-2.461c-2.123-.848-4.708-1.592-6.469-3.1a15.539,15.539,0,0,1-3.787-5.67c-1.039-2.319-1.955-4.681-3.115-6.945a59.8,59.8,0,0,0-4.1-6.806c-1.457-2.1-4.925-.1-3.454,2.019Z"/><path class="d" d="M254.917,269.321c.8,10.287,1.6,20.575,2.619,30.844q.754,7.638,1.693,15.258c.435,3.484,1.358,8.179-1.154,11.119-1.663,1.947,1.154,4.79,2.829,2.829,2.222-2.6,2.882-5.855,2.777-9.211-.12-3.8-.814-7.6-1.238-11.377-.939-8.367-1.7-16.753-2.389-25.144q-.589-7.157-1.137-14.318c-.2-2.55-4.2-2.572-4,0Z"/><path class="d" d="M275.965,271.451q-.088,15.694-.711,31.379-.309,7.716-.748,15.427c-.281,4.935-.337,9.532,2.314,13.9,1.333,2.2,4.793.19,3.454-2.019-2.537-4.185-1.942-8.708-1.684-13.377q.413-7.462.7-14.931.589-15.185.672-30.383c.014-2.575-3.986-2.578-4,0Z"/><path class="e" d="M261.383,14.211A29.831,29.831,0,0,1,288,26.14a25.05,25.05,0,0,1,4.933,13.892c-.027.684-.045,1.238-.045,1.238-.069,2.091-.113,5-.093,8.013-.6,11.475,1.145,17.938,2.039,21.073a19.88,19.88,0,0,1,.882,6.858c-.186,4.059-5.374,8.938-14.292,5.7L278.35,81.8a15.408,15.408,0,0,1-4.13-.024c-2.08-.268-6.559-1.4-5.709-2.626a10.872,10.872,0,0,0,1.678-7.234c-.321-3.252-1.712-6.338-3.052-9.362a12.044,12.044,0,0,0,5.621-10.517c-.068-1.678-.651-3.536-2.155-4.284a3.6,3.6,0,0,0-3.208.13,5.632,5.632,0,0,0-2.013,1.869l-1.537-.281c-4.084-.746-11.718-5.027-14.054-6.368a67.731,67.731,0,0,1-12.122-9.5l-.191-.2a28.79,28.79,0,0,1,1.022-3.339,23.445,23.445,0,0,1,12.915-13.522,33.962,33.962,0,0,1,5.3-1.545c1.511-.333,3.041-.622,4.582-.8Z"/><path class="d" d="M266.809,51.23a3.737,3.737,0,0,1,1.595-1.62,1.415,1.415,0,0,1,1.547.079c-.238-.174.188.214.2.227-.195-.227.15.258.155.266.262.406-.02-.175.141.289q.105.3.182.616c0-.007.126.631.079.315a6.127,6.127,0,0,1,.05.635,9.142,9.142,0,0,1-.546,3.631,10.088,10.088,0,0,1-4.467,5.384c-2.232,1.281-.219,4.739,2.019,3.454a14.057,14.057,0,0,0,6.994-12.469c-.116-2.657-1.279-5.571-4.062-6.388-3.037-.893-5.822,1.062-7.341,3.563-1.341,2.2,2.117,4.218,3.454,2.018Z"/><path class="d" d="M237.713,70.2A12.28,12.28,0,0,0,240.08,70a7.13,7.13,0,0,0,1.428-.387,6.308,6.308,0,0,0,2.362-1.438,2.089,2.089,0,0,0,.586-1.414,2.037,2.037,0,0,0-.586-1.415,2.015,2.015,0,0,0-1.414-.585,2.036,2.036,0,0,0-1.415.585,2.724,2.724,0,0,1-.3.275l.405-.313a4.74,4.74,0,0,1-1.047.6l.478-.2a7.446,7.446,0,0,1-1.862.484l.532-.071a10.05,10.05,0,0,1-1.531.077,2.017,2.017,0,0,0-2,2,2.039,2.039,0,0,0,2,2Z"/><path class="d" d="M241.3,50.868c-.3,1.2.044,3.917,2.185,4.053,2.816-.146,2.827-3.449,1.813-4.956C244.467,48.731,242.162,48.306,241.3,50.868Z"/><path class="d" d="M234.63,38.541c-.3,4.619,1.246,9.453.136,14.016a5.931,5.931,0,0,1-.93,2.187c-.652.867-1.672,1.331-2.338,2.2a4.514,4.514,0,0,0,.416,6.191,18.146,18.146,0,0,1,2.117,1.8,5.569,5.569,0,0,1,.895,2.582,33.523,33.523,0,0,0,2,6.479,11.4,11.4,0,0,0,4.592,5.474,15.05,15.05,0,0,0,6.849,1.563,21.547,21.547,0,0,0,4.222-.259A12.617,12.617,0,0,0,254.3,80.4c.38-.115.816-.044.316-.35-.562-.343-.207-.086-.165.09a15.64,15.64,0,0,0,1.3,2.465,14.183,14.183,0,0,1,1.2,3.856,2.013,2.013,0,0,0,2.46,1.4,2.049,2.049,0,0,0,1.4-2.46,20.11,20.11,0,0,0-2.455-6.478c-1.029-1.872-2.353-3.138-4.659-2.529-3.866,1.02-9.524,1.471-12.152-2.225a17.486,17.486,0,0,1-2.319-5.8c-.553-2.13-.7-4.182-2.135-5.963a14.173,14.173,0,0,0-2.139-1.911,2,2,0,0,1-.584-.624c.189.392.014.216.031.11a1.361,1.361,0,0,1,.307-.678c.585-.757,1.527-1.2,2.141-1.966a9.362,9.362,0,0,0,1.6-3.093c1.589-5.107-.158-10.507.177-15.7.166-2.571-3.835-2.561-4,0Z"/><path class="f" d="M285.458,65.547c4.526-7.411,6.2-14.52,6.079-20.8-.191-13.566-7.156-20.82-12.586-23.691a32.489,32.489,0,0,0-24.528-2.645c-7.3,2.013-16.889,7.647-17.793,20.131"/><path class="d" d="M290.747,50.292a66.556,66.556,0,0,0,1.525,18.222c.611,2.523,1.447,4.945,1.464,7.574,0,.407.007.821-.028,1.226-.02.235.009.016.015-.028a3.435,3.435,0,0,1-.083.406,3.918,3.918,0,0,1-.386,1.034,5.544,5.544,0,0,1-1.843,2c-2.865,1.862-6.4,1.326-9.457.256-2.434-.854-3.48,3.009-1.063,3.857,5.892,2.066,13.914,1.32,16.386-5.377,1.15-3.117.239-6.932-.617-10a52.808,52.808,0,0,1-1.392-6.451,68.656,68.656,0,0,1-.521-12.722c.1-2.574-3.9-2.57-4,0Z"/><path class="d" d="M261.3,12.2c-7.659.953-15.008,3.307-20.1,9.411a30.4,30.4,0,0,0-6.634,20.579c.1,2.566,4.1,2.579,4,0-.236-6.237,1.4-12.888,5.462-17.75a21.267,21.267,0,0,1,6.983-5.537A33.206,33.206,0,0,1,261.3,16.2a2.063,2.063,0,0,0,2-2,2.012,2.012,0,0,0-2-2Z"/><path class="d" d="M261.383,16.211c13.422-1.264,28.119,8.174,29.459,22.33a45.83,45.83,0,0,1-.016,5.149q-.065,3.544-.016,7.088c.034,2.572,4.034,2.58,4,0q-.043-3.337.009-6.676c.027-1.63.179-3.295.075-4.923a26.9,26.9,0,0,0-3.758-11.9A31.539,31.539,0,0,0,273.8,13.618a30.817,30.817,0,0,0-12.412-1.407,2.055,2.055,0,0,0-2,2,2.014,2.014,0,0,0,2,2Z"/><path class="d" d="M265.52,63.814a27.412,27.412,0,0,1,2.669,8.1,10.332,10.332,0,0,1-.286,3.856c-.316,1.127-1.155,2.034-1.426,3.142-.609,2.487,2.407,3.622,4.239,4.156a18.767,18.767,0,0,0,6.867.781A9.5,9.5,0,0,0,281.9,82.56a8.224,8.224,0,0,0,3.087-3.926,2.011,2.011,0,0,0-1.4-2.46,2.053,2.053,0,0,0-2.461,1.4c-1.047,2.485-4.075,2.439-6.338,2.26a17.585,17.585,0,0,1-3.017-.618q-.335-.1-.664-.208c-.077-.026-.78-.314-.516-.19-.167-.078-.326-.167-.488-.256-.236-.132.059-.018.1.167a1.558,1.558,0,0,1,.026,1.434c.091-.13.177-.262.259-.4a9.951,9.951,0,0,0,.521-.971,12.481,12.481,0,0,0,.823-2.261,13.879,13.879,0,0,0,.311-4.952,34.069,34.069,0,0,0-3.178-9.783,2.014,2.014,0,0,0-2.737-.718,2.05,2.05,0,0,0-.717,2.737Z"/><path class="d" d="M236.255,35.016a63.13,63.13,0,0,0,13.511,10.373c2.119,1.191,4.27,2.332,6.47,3.37a30.927,30.927,0,0,0,7.077,2.641c2.515.492,3.591-3.363,1.063-3.858-4.448-.87-8.684-3.41-12.592-5.607a59.08,59.08,0,0,1-12.7-9.748c-1.823-1.822-4.652,1.005-2.829,2.829Z"/><path class="d" d="M270.133,162.362a23.274,23.274,0,0,0,10.316-6.539c2.963-3.341,3.909-7.853,5.051-12.048a110.553,110.553,0,0,0,3.619-22.781c.262-4.483.087-9.438-1.547-13.669a13.26,13.26,0,0,0-20.318-5.162,18.019,18.019,0,0,0-5.715,9.449c-1.353,4.839-1.385,10.075-1.933,15.051a84.951,84.951,0,0,1-2.773,14.418c-.718,2.477,3.141,3.534,3.857,1.063,2.226-7.675,2.9-15.545,3.728-23.458.629-6.043,2.463-14.53,9.874-15.3a9.847,9.847,0,0,1,8.775,3.838c1.135,1.514,1.526,3.769,1.786,5.606a45.706,45.706,0,0,1,.329,6.1,82.947,82.947,0,0,1-2.644,20.361c-.516,2.069-1.082,4.124-1.661,6.176a25.31,25.31,0,0,1-2.216,6.079c-1.958,3.326-5.97,5.847-9.591,6.958-2.454.752-1.408,4.615,1.063,3.857Z"/><path class="d" d="M214.2,157.972q-12.834-.024-25.668-.008l-7.463,0a9.6,9.6,0,0,0-6.8,2.183c-2.645,2.345-2.873,5.934-3.48,9.188q-4.685,25.106-9.421,50.2-2.814,14.892-5.674,29.775l1.928-1.468-40.174,0-46.846,0H65.942c-1.729,0-3.556-.189-5.177.517a6.041,6.041,0,0,0-3.582,5.118,28.009,28.009,0,0,0-.026,2.9,6.57,6.57,0,0,0,2.705,5.4c1.492,1.037,3.207,1,4.939,1h8.762l44.267,0,35.458,0h2.221l-1.928-2.532Q150.91,274,148.226,287.752q-.95,4.872-1.9,9.743c-.261,1.338-.313,2.915-1.579,3.716-1.109.7-2.783.4-4.043.4H65.687a11.883,11.883,0,0,0-4.844.517,5.978,5.978,0,0,0-3.468,4.254,19.062,19.062,0,0,0-.141,3.5,7.828,7.828,0,0,0,.754,4.037c1.939,3.461,5.731,3.07,9.124,3.07l20.62,0,49.877,0h11.643a12.3,12.3,0,0,0,5.647-.857,7.956,7.956,0,0,0,3.817-4.173,28.093,28.093,0,0,0,1.157-5.149q.553-2.844,1.108-5.688,3.138-16.135,6.257-32.273,3.835-19.857,7.632-39.723,3.546-18.585,7.015-37.186,1.325-7.15,2.613-14.309.263-1.473.522-2.946a4.506,4.506,0,0,1,.321-1.488c.437-.673,1.486-.416,2.16-.416q5.141,0,10.281,0,3.789,0,7.579,0c2.574,0,2.578-4,0-4q-8.93,0-17.86,0c-2.255,0-4.353.281-5.614,2.4a9.958,9.958,0,0,0-.9,3.422q-.553,3.133-1.124,6.263-3.047,16.783-6.255,33.539-3.757,19.828-7.58,39.644-3.445,17.891-6.918,35.775-1.293,6.66-2.59,13.321-.49,2.522-.982,5.042a9.8,9.8,0,0,1-.7,2.676A4.04,4.04,0,0,1,151.308,313c-7.777.232-15.6,0-23.38,0l-25.12,0-23.365,0H65.109c-1.181,0-2.7.288-3.5-.81-.592-.815-.376-2.068-.372-3.013s-.18-2.1.485-2.862c.89-1.021,2.489-.7,3.7-.7h69.81a81.857,81.857,0,0,0,8.807-.051,6.693,6.693,0,0,0,4.867-2.968,11.747,11.747,0,0,0,1.353-4.427q2.2-11.238,4.383-22.477,1.4-7.194,2.8-14.388a2.029,2.029,0,0,0-1.929-2.531l-30.779,0-43.6,0c-5.889,0-11.781.05-17.669,0-2.638-.023-2.525-3.149-2.283-5.129.2-1.64,1.62-1.807,2.976-1.807h4.481l44.543,0,41.054,0h3.391a2.022,2.022,0,0,0,1.929-1.468q5.115-26.505,10.055-53.043,2.182-11.625,4.353-23.253c.5-2.707.987-5.42,1.515-8.123a4.63,4.63,0,0,1,3.329-3.844,12.242,12.242,0,0,1,3.026-.147l3.9,0q14.236,0,28.472.009c2.574,0,2.578-4,0-4Z"/><path class="a" d="M188.912,161.6c.046-.135.095-.263.148-.382,1.25-2.808,1.945-5.035,3.7-7.555a11.374,11.374,0,0,1,7.1-4.756,16.807,16.807,0,0,1,7.27.533c3.371,1.037,8.074,2.556,13.186,3.926l3.148.055c.585,3.5,1.321,7.57,2.129,11.2-3.138,1.338-6.759,2.889-6.759,2.889a11.534,11.534,0,0,1-9.634.265c-2.014-.7-3.947-1.4-5.588.364a15.927,15.927,0,0,0-2.037,3.3c-.522.87-1.153,1.215-2.537,1-.628-.1-1.087-1.13-1.13-2.055a23.552,23.552,0,0,1,.029-2.721l-1.343.965a3.245,3.245,0,0,1-3.461.92c-1.214-.641-1.342-2.715-.483-4.546l-1.149.363a2.342,2.342,0,0,1-2.593-.963A3.852,3.852,0,0,1,188.912,161.6Z"/><path class="d" d="M196.07,166.139c-.258,2.5-.906,7.425,2.44,8.234a4.353,4.353,0,0,0,4.061-.961,16.752,16.752,0,0,0,1.967-3.206,1.894,1.894,0,0,1,2.058-1.121c1.436.227,2.786.931,4.206,1.251a13.9,13.9,0,0,0,8.568-.889,2.065,2.065,0,0,0,1.4-2.46,2.014,2.014,0,0,0-2.461-1.4,10.4,10.4,0,0,1-6.441.889c-2.4-.547-4.844-2-7.365-1.2a6.21,6.21,0,0,0-3.109,2.458c-.631.88-.987,1.92-1.606,2.8-.157.225-.032.017.029-.009.165-.072.257.024-.14-.024-.742-.088.3.338.339.275.014-.025-.1-.529-.108-.59a20.418,20.418,0,0,1,.165-4.051,2.014,2.014,0,0,0-2-2,2.045,2.045,0,0,0-2,2Z"/><path class="d" d="M220.851,151.442c-4.322-1.166-8.584-2.523-12.865-3.828-4.232-1.289-9.151-1.4-12.957,1.131s-5.552,6.434-7.268,10.483c-.792,1.868-1.651,3.918-.7,5.915a4.3,4.3,0,0,0,4.972,2.156c2.487-.658,1.432-4.517-1.063-3.857a.48.48,0,0,1-.362-.048c-.206-.18.075.126.027-.094a2.908,2.908,0,0,1,.333-1.485c.6-1.537,1.255-3.089,1.994-4.563,1.439-2.865,3.591-5.532,6.858-6.3,3.195-.748,6.337.278,9.358,1.219,3.52,1.095,7.047,2.165,10.607,3.125,2.488.671,3.55-3.187,1.063-3.857Z"/><path class="d" d="M194.716,156.505a45.89,45.89,0,0,0-2.781,5.134q-.3.655-.583,1.319-.184.429-.364.86c-.053.128-.107.256-.16.385-.088.209-.108.258-.058.146a8.4,8.4,0,0,0-.669,3c0,1.924,1.062,3.992,3.13,4.307a5.2,5.2,0,0,0,5.094-2.015,2.014,2.014,0,0,0-.717-2.737,2.047,2.047,0,0,0-2.736.718c.435-.656.06,0,0-.045-.012-.009.408-.247.007-.042-.115.058-.405.141,0,.019-.125.037-.245.085-.371.12s-.256.054-.382.086c.469-.12.051-.034-.075-.018-.362.046.24.076.041.024-.3-.077-.12-.031.056.058-.321-.162.179.189.021.027s.2.338.016.018c-.211-.366.061.368-.026-.07-.012-.058-.092-.494-.057-.208s0-.184,0-.242c0-.15.014-.3.022-.448.012-.209-.069.242.031-.118l.156-.566c.112-.408-.1.195.116-.325.088-.209.173-.418.259-.628,0,.008.2-.474.14-.337-.068.161.126-.29.144-.332q.432-.992.907-1.965a45.443,45.443,0,0,1,2.294-4.108,2.018,2.018,0,0,0-.717-2.736,2.043,2.043,0,0,0-2.737.717Z"/><path class="d" d="M198.352,169.394q.18-.522.38-1.039l.1-.255c.011-.026.184-.441.056-.139-.115.271.01-.021.033-.074.036-.083.073-.165.11-.248q.456-1.013,1-1.982.526-.939,1.13-1.833.322-.48.667-.946c.108-.148.219-.294.33-.44.163-.218-.231.289-.059.077l.217-.273a2.17,2.17,0,0,0,.585-1.414,2,2,0,0,0-3.414-1.414,29.707,29.707,0,0,0-4.992,8.917,2.012,2.012,0,0,0,1.4,2.46,2.049,2.049,0,0,0,2.46-1.4Z"/><path class="d" d="M256.627,139.951q-10.449,1.968-20.893,3.956-5.246.994-10.492,1.986c-1.678.317-3.611.456-4.256,2.342-.453,1.322.1,2.97.32,4.308.491,3.013,1.016,6.021,1.609,9.015.288,1.456.591,2.908.922,4.354.362,1.583.565,3.393,2.218,4.143,1.472.668,3.589,0,5.129-.194q2.809-.348,5.615-.728c3.425-.464,6.845-.969,10.253-1.543a203.762,203.762,0,0,0,23.081-5.228c2.467-.718,1.417-4.579-1.063-3.857a199.847,199.847,0,0,1-20.68,4.811c-3.452.617-6.916,1.157-10.388,1.647q-2.706.381-5.417.723-1.289.162-2.577.32l-1.423.173-.717.086q-.934.019-.044.174l.514.882a24.935,24.935,0,0,1-1.072-4.416c-.358-1.679-.687-3.365-1-5.054q-.436-2.36-.832-4.727-.182-1.083-.357-2.169-.081-.506-.161-1.011c-.026-.161-.052-.323-.077-.484q-.092-.663-.02.068l-.718.717a5.838,5.838,0,0,1,1.969-.451l2.093-.4,4.277-.809,8.215-1.558q8.517-1.617,17.034-3.224c2.527-.476,1.457-4.331-1.063-3.857Z"/><path class="d" d="M82.66,184.488c-.522-2.122-1.254-4.224-1.653-6.372l-1.4,2.46c2.952-.913,5.978-1.63,8.962-2.429,3.057-.818,6.129-1.812,9.236-2.421l-2.46-1.4c1.058,3.068,2.328,6.061,3.389,9.129.836,2.418,4.7,1.378,3.857-1.064-1.06-3.068-2.331-6.061-3.389-9.128a2.06,2.06,0,0,0-2.46-1.4c-3.108.609-6.18,1.6-9.236,2.421-2.984.8-6.01,1.516-8.962,2.429a2.056,2.056,0,0,0-1.4,2.46c.4,2.148,1.131,4.251,1.652,6.373.614,2.5,4.473,1.44,3.858-1.064Z"/><path class="d" d="M104.578,177.467c3.032.572,5.993,1.486,9.022,2.078l-1.4-2.461c-.2,1.489-.609,2.944-.873,4.421a2,2,0,1,0,3.857,1.064c.264-1.478.673-2.933.873-4.421a2.155,2.155,0,0,0-.2-1.541,1.982,1.982,0,0,0-1.2-.92c-3.028-.591-5.99-1.505-9.021-2.077a2,2,0,1,0-1.064,3.857Z"/><path class="g" d="M62.09,69.392c1.513,2.162,2.258,3.1,2.745,3.811.4.583.727,1.015,1.023,1.387a9.7,9.7,0,0,1,2.11,5.947c.095,10.348.287,19.631.287,30.04,0,2.49.068,4.222-1.276,5.231a8.746,8.746,0,0,1-4.769,1.136H52.517c-1.89,0-4.612-.488-5.279-1.655a10.22,10.22,0,0,1-.766-4.712c0-10.3.189-19.512.283-29.7A10.671,10.671,0,0,1,49.01,74.41c.258-.331.544-.715.882-1.207.486-.709,1.817-2.486,2.79-4.107"/><path class="g" d="M28.46,69.392c1.514,2.162,2.259,3.1,2.745,3.811.4.583.728,1.015,1.023,1.387a9.7,9.7,0,0,1,2.11,5.947c.1,10.348.287,19.631.287,30.04,0,2.49.069,4.222-1.276,5.231a8.746,8.746,0,0,1-4.769,1.136H18.887c-1.89,0-4.612-.488-5.279-1.655a10.22,10.22,0,0,1-.766-4.712c0-10.3.189-19.512.284-29.7A10.664,10.664,0,0,1,15.38,74.41c.259-.331.544-.715.882-1.207.486-.709,1.818-2.486,2.791-4.107"/><path class="h" d="M46.779,85.377c-.077,4.8-.179,6.224-.21,11.561,6.958-.224,14.815-.082,21.765.1-.03-5.43-.132-6.934-.213-11.669Z"/><path class="h" d="M13.062,85.377c-.077,4.8-.18,6.224-.211,11.561,6.958-.224,14.815-.082,21.765.1-.029-5.43-.132-6.934-.213-11.669Z"/><path class="d" d="M185.191,115.963q-13.97-.061-27.938-.057-20.836-.021-41.672-.022-22.865-.006-45.727-.006-20.227,0-40.455,0-12.894,0-25.789-.022l-1.678,0c-2.574-.009-2.578,3.991,0,4q11.658.038,23.318.024,19.649.007,39.3.006,22.8,0,45.593,0,21.276,0,42.552.02,15.067.012,30.135.052,1.182,0,2.365.009c2.574.011,2.578-3.989,0-4Z"/><path class="d" d="M185.191,124.074q-13.97-.061-27.938-.057Q136.416,124,115.581,124q-22.865-.006-45.727-.005-20.227,0-40.455,0-12.894,0-25.789-.022l-1.678,0c-2.574-.009-2.578,3.991,0,4q11.658.037,23.318.024,19.649.007,39.3.006,22.8,0,45.593,0,21.276,0,42.552.02,15.067.013,30.135.052l2.365.009c2.574.011,2.578-3.988,0-4Z"/><path class="d" d="M60.363,70.4c.835,1.188,1.706,2.349,2.549,3.532a19.021,19.021,0,0,1,2.521,3.853c.739,1.881.545,3.941.567,5.921q.036,3.216.079,6.433c.055,4.308.112,8.617.145,12.925q.025,3.262.03,6.523c0,1,.028,2-.019,2.99a3.229,3.229,0,0,1-.252,1.429c-.653,1.014-2.9.929-3.929.936-1.136.009-2.272,0-3.408,0a61.61,61.61,0,0,1-7.481-.074,6.451,6.451,0,0,1-1.9-.466c-.411-.194-.394-.276-.526-.767a22.489,22.489,0,0,1-.262-5.775c.013-4.373.059-8.745.114-13.117q.045-3.666.093-7.331c.029-2.372-.084-4.792.1-7.157a10.277,10.277,0,0,1,2.367-5.381c1.139-1.549,2.259-3.131,3.261-4.771,1.346-2.2-2.112-4.214-3.453-2.019-2.034,3.328-5.111,6.287-5.913,10.217a36.958,36.958,0,0,0-.334,6.954q-.044,3.684-.093,7.369c-.062,4.834-.119,9.668-.138,14.5-.013,3.37-.83,8.936,2.858,10.772,2.725,1.357,6,1.044,8.955,1.044,3.026,0,6.349.345,9.311-.386a5.63,5.63,0,0,0,4.163-3.3c.708-1.829.491-4,.489-5.918-.007-4.837-.056-9.674-.116-14.511q-.048-4-.1-8.006A59.186,59.186,0,0,0,69.81,78.8c-.611-4.031-3.724-7.186-5.993-10.416-1.469-2.091-4.938-.094-3.454,2.019Z"/><path class="d" d="M53.48,66.476a1.4,1.4,0,0,1-.324-.012c.039.036.4.1.133.015-.5-.155.248.167.018.023.436.272.343.288.231.171.345.362.285.4.2.247.244.435.186.482.135.288-.057-.214.058.609.051.348-.009-.344-.043.22-.054.31.025-.209.07-.417.086-.626.028-.387,0-.785,0-1.173q0-2.271.008-4.542c0-.082,0-.165,0-.247,0-.252.137-.323-.04.189a1.434,1.434,0,0,0,.08-.326c-.007-.014-.21.517-.1.229.027-.07.194-.341,0-.031-.235.378.171-.13-.145.156-.346.312.225-.117-.159.1l-.132.058c.163-.038.159-.042-.013-.015.007.028-.369,0,.029.012.137,0,.274,0,.41,0H60.4c.111,0,.223,0,.335,0,.14-.005.359.068-.117-.029.155.032.263.139-.146-.086.133.073.236.185-.147-.14.063.053.275.283.034.01-.223-.253-.061-.057-.016.029-.013-.025-.14-.493-.11-.24a.9.9,0,0,0,.039.153c.055.15-.083.386-.037-.324-.019.3.012.607.013.9q0,2.466,0,4.932c0,.163-.016.335,0,.5.013.185.15-.629.012-.212-.068.206.235-.477.119-.285s.368-.392.149-.185.193-.149.192-.148c-.256.171.157-.1.184-.073-.009-.009-.231.08-.246.058s.434-.019.076-.036c-.131-.006-.263,0-.394,0H53.48a2,2,0,1,0,0,4H60.4a4.488,4.488,0,0,0,2.419-.547,3.153,3.153,0,0,0,1.433-2.64c.064-1.7,0-3.419,0-5.122A5.819,5.819,0,0,0,63.83,59.5a3.394,3.394,0,0,0-2.949-1.84c-1.08-.061-2.178,0-3.259,0H53.873a4.121,4.121,0,0,0-2.329.544,3.658,3.658,0,0,0-1.567,2.924c-.119,1.772-.021,3.584-.018,5.359a4.784,4.784,0,0,0,0,.738c-.037-.22.088-.655.059-.449s-.065.4-.082.606a2.871,2.871,0,0,0,.121,1.034c.44,1.505,2,2.044,3.421,2.069a2,2,0,0,0,0-4Z"/><path class="d" d="M47.311,87.389c6.76,0,13.521-.022,20.281-.022,2.574,0,2.578-4,0-4-6.76,0-13.521.022-20.281.022-2.573,0-2.578,4,0,4Z"/><path class="d" d="M46.807,98.937c7.025-.207,14.055-.08,21.078.1,2.575.066,2.574-3.934,0-4-7.023-.181-14.053-.308-21.078-.1-2.568.076-2.579,4.076,0,4Z"/><path class="d" d="M26.733,70.4c.835,1.188,1.707,2.349,2.55,3.532a18.975,18.975,0,0,1,2.52,3.853c.739,1.881.546,3.941.568,5.921q.034,3.216.078,6.433c.055,4.308.112,8.617.146,12.925q.024,3.262.029,6.523c0,1,.029,2-.019,2.99a3.229,3.229,0,0,1-.252,1.429c-.653,1.014-2.9.929-3.929.936-1.136.009-2.272,0-3.408,0a61.591,61.591,0,0,1-7.48-.074,6.465,6.465,0,0,1-1.9-.466c-.41-.194-.394-.276-.525-.767a22.49,22.49,0,0,1-.263-5.775c.014-4.373.06-8.745.114-13.117q.045-3.666.093-7.331c.03-2.372-.084-4.792.1-7.157a10.285,10.285,0,0,1,2.367-5.381c1.139-1.549,2.259-3.131,3.262-4.771,1.346-2.2-2.112-4.214-3.454-2.019-2.034,3.328-5.111,6.287-5.913,10.217a36.958,36.958,0,0,0-.334,6.954q-.042,3.684-.092,7.369c-.062,4.834-.119,9.668-.138,14.5-.013,3.37-.831,8.936,2.857,10.772,2.725,1.357,6,1.044,8.956,1.044,3.026,0,6.348.345,9.311-.386a5.629,5.629,0,0,0,4.162-3.3c.709-1.829.492-4,.489-5.918-.007-4.837-.055-9.674-.115-14.511q-.05-4-.1-8.006A58.863,58.863,0,0,0,36.18,78.8c-.61-4.031-3.724-7.186-5.993-10.416-1.468-2.091-4.938-.094-3.454,2.019Z"/><path class="d" d="M19.851,66.476a1.407,1.407,0,0,1-.325-.012c.039.036.4.1.133.015-.5-.155.248.167.018.023.436.272.343.288.232.171.345.362.285.4.2.247.243.435.185.482.134.288-.056-.214.059.609.052.348-.01-.344-.044.22-.055.31.025-.209.071-.417.086-.626.029-.387,0-.785,0-1.173q0-2.271.009-4.542v-.247c0-.252.137-.323-.04.189a1.383,1.383,0,0,0,.08-.326c-.006-.014-.209.517-.1.229.027-.07.2-.341,0-.031-.234.378.172-.13-.144.156-.346.312.225-.117-.159.1l-.133.058c.163-.038.159-.042-.013-.015.008.028-.369,0,.03.012.136,0,.273,0,.409,0h6.494c.111,0,.224,0,.335,0,.14-.005.36.068-.117-.029.155.032.263.139-.146-.086.133.073.236.185-.147-.14.063.053.275.283.034.01-.223-.253-.061-.057-.015.029-.014-.025-.141-.493-.111-.24a.9.9,0,0,0,.04.153c.055.15-.083.386-.038-.324-.019.3.013.607.013.9q0,2.466,0,4.932c0,.163-.015.335,0,.5.014.185.15-.629.013-.212-.068.206.234-.477.118-.285s.368-.392.15-.185.193-.149.191-.148c-.255.171.157-.1.185-.073-.01-.009-.231.08-.247.058s.434-.019.076-.036c-.13-.006-.263,0-.393,0H19.851a2,2,0,0,0,0,4h6.917a4.492,4.492,0,0,0,2.42-.547,3.158,3.158,0,0,0,1.433-2.64c.063-1.7,0-3.419,0-5.122A5.831,5.831,0,0,0,30.2,59.5a3.394,3.394,0,0,0-2.95-1.84c-1.08-.061-2.178,0-3.259,0H20.244a4.121,4.121,0,0,0-2.329.544,3.659,3.659,0,0,0-1.568,2.924c-.119,1.772-.021,3.584-.017,5.359a4.784,4.784,0,0,0,0,.738c-.037-.22.089-.655.059-.449s-.065.4-.082.606a2.872,2.872,0,0,0,.122,1.034c.44,1.505,2,2.044,3.421,2.069a2,2,0,0,0,0-4Z"/><path class="d" d="M13.682,87.389c6.76,0,13.52-.022,20.28-.022,2.574,0,2.578-4,0-4-6.76,0-13.52.022-20.28.022-2.574,0-2.578,4,0,4Z"/><path class="d" d="M13.177,98.937c7.025-.207,14.055-.08,21.079.1,2.575.066,2.573-3.934,0-4-7.024-.181-14.054-.308-21.079-.1-2.568.076-2.579,4.076,0,4Z"/><path class="d" d="M88,112.6a17.514,17.514,0,0,1-.093-3.658q-.022-3.4-.047-6.807c-.029-4.112-.065-8.225-.082-12.338a8.517,8.517,0,0,1,.647-3.365c.4-.957,1.269-1.838,1.446-2.846a4.3,4.3,0,0,0,.037-1.436c-.092-.441.2-.3-.126-.031l-.882.514a8.067,8.067,0,0,1,1.914-.052l3.889,0,8.152,0a6.244,6.244,0,0,0,1.152,0c.048-.01.149.022.188,0-.53.312.839-2.464-.908-.682-.08.082,0,.707,0,.827a3.505,3.505,0,0,0,.273,1.83c.209.358.452.421.66.7a6.174,6.174,0,0,1,.872,2.132,17.331,17.331,0,0,1,.334,4.55q.01,7.736.023,15.469c0,1.513.092,3.058-.016,4.568a5.588,5.588,0,0,1-.64,2.431,2.257,2.257,0,0,0-.209.318c-.188.419-.228.087.061.045.144-.021.058,0,.012,0-.56.034-1.13.011-1.692.016l-13.419.131,1.01.273A4.349,4.349,0,0,1,88,112.6c-.745-2.457-4.607-1.409-3.857,1.063.711,2.344,2.977,5.167,5.621,5.249,1.485.046,2.983-.029,4.468-.043,3.475-.034,6.985.077,10.456-.1,5.026-.26,4.767-6.862,4.762-10.56q-.01-6.784-.02-13.57c0-1.68.014-3.361-.007-5.04-.031-2.424-.713-5.891-2.722-7.473l.586,1.414c0-1.578.17-3.457-1.341-4.449a4.694,4.694,0,0,0-2.748-.516l-6.82,0-6.606,0a3.889,3.889,0,0,0-2.818.709c-1.18,1.056-1.046,2.593-1.047,4.03l.273-1.009c-2.789,3.855-2.4,8.21-2.37,12.669q.046,6.883.095,13.766a22.749,22.749,0,0,0,.238,4.917C84.719,116.166,88.576,115.105,88,112.6Z"/><path class="d" d="M119.551,112.6a17.446,17.446,0,0,1-.094-3.658q-.023-3.4-.047-6.807c-.029-4.112-.065-8.225-.081-12.338a8.5,8.5,0,0,1,.647-3.365c.4-.957,1.269-1.838,1.446-2.846a4.3,4.3,0,0,0,.036-1.436c-.092-.441.2-.3-.125-.031l-.883.514a8.076,8.076,0,0,1,1.915-.052l3.889,0,8.152,0a6.244,6.244,0,0,0,1.152,0c.048-.01.148.022.187,0-.529.312.839-2.464-.908-.682-.08.082,0,.707,0,.827a3.505,3.505,0,0,0,.273,1.83c.21.358.452.421.661.7a6.172,6.172,0,0,1,.871,2.132,17.289,17.289,0,0,1,.334,4.55q.011,7.736.023,15.469c0,1.513.092,3.058-.016,4.568a5.561,5.561,0,0,1-.64,2.431,2.313,2.313,0,0,0-.208.318c-.189.419-.229.087.061.045.144-.021.057,0,.012,0-.561.034-1.131.011-1.692.016l-13.419.131,1.009.273a4.347,4.347,0,0,1-2.555-2.587c-.745-2.457-4.608-1.409-3.857,1.063.711,2.344,2.977,5.167,5.62,5.249,1.485.046,2.984-.029,4.469-.043,3.475-.034,6.985.077,10.456-.1,5.025-.26,4.767-6.862,4.762-10.56l-.021-13.57c0-1.68.015-3.361-.007-5.04-.031-2.424-.713-5.891-2.722-7.473l.586,1.414c0-1.578.17-3.457-1.34-4.449a4.7,4.7,0,0,0-2.748-.516l-6.82,0-6.607,0a3.886,3.886,0,0,0-2.817.709c-1.18,1.056-1.046,2.593-1.047,4.03l.273-1.009c-2.79,3.855-2.4,8.21-2.37,12.669q.045,6.883.095,13.766a22.686,22.686,0,0,0,.238,4.917C116.274,116.166,120.132,115.105,119.551,112.6Z"/><path class="d" d="M151.106,112.6a17.514,17.514,0,0,1-.093-3.658q-.023-3.4-.047-6.807c-.029-4.112-.065-8.225-.082-12.338a8.534,8.534,0,0,1,.647-3.365c.4-.957,1.27-1.838,1.446-2.846a4.3,4.3,0,0,0,.037-1.436c-.092-.441.2-.3-.125-.031l-.883.514a8.067,8.067,0,0,1,1.914-.052l3.889,0,8.152,0a6.244,6.244,0,0,0,1.152,0c.048-.01.149.022.188,0-.53.312.839-2.464-.908-.682-.08.082,0,.707,0,.827a3.505,3.505,0,0,0,.273,1.83c.209.358.452.421.66.7a6.155,6.155,0,0,1,.872,2.132,17.289,17.289,0,0,1,.334,4.55q.01,7.736.023,15.469c0,1.513.092,3.058-.016,4.568a5.574,5.574,0,0,1-.64,2.431,2.207,2.207,0,0,0-.208.318c-.189.419-.229.087.061.045.143-.021.057,0,.011,0-.56.034-1.13.011-1.691.016l-13.42.131,1.01.273a4.349,4.349,0,0,1-2.556-2.587c-.745-2.457-4.607-1.409-3.857,1.063.711,2.344,2.977,5.167,5.621,5.249,1.485.046,2.983-.029,4.469-.043,3.475-.034,6.985.077,10.455-.1,5.026-.26,4.768-6.862,4.762-10.56q-.009-6.784-.02-13.57c0-1.68.015-3.361-.007-5.04-.031-2.424-.713-5.891-2.722-7.473l.586,1.414c0-1.578.17-3.457-1.341-4.449a4.691,4.691,0,0,0-2.747-.516l-6.821,0-6.606,0a3.889,3.889,0,0,0-2.818.709c-1.18,1.056-1.046,2.593-1.047,4.03l.273-1.009c-2.789,3.855-2.4,8.21-2.37,12.669q.047,6.883.1,13.766a22.685,22.685,0,0,0,.237,4.917C147.83,116.166,151.687,115.105,151.106,112.6Z"/><path class="d" d="M172.443,41.353c-4.751-.026-9.5-.012-14.256-.014q-15.3-.009-30.6-.015L91.27,41.31Q75.4,41.3,59.529,41.3q-8.4,0-16.8-.014h-.512c-2.574-.014-2.577,3.986,0,4,4.741.024,9.482.011,14.222.013l30.581.015,36.319.014q15.877.006,31.755.014,8.415,0,16.828.014l.517,0c2.575.014,2.578-3.986,0-4Z"/><path class="d" d="M129.55,11.844c4.155-.06,8.318-.126,12.473-.051a2.018,2.018,0,0,0,2-2,2.038,2.038,0,0,0-2-2c-4.155-.075-8.318-.009-12.473.051a2,2,0,0,0,0,4Z"/><path class="i" d="M152.5,23.69c0-.907,0-1.817,0-2.723-1.507-.782-3.6-1.459-8.82-.579a20.194,20.194,0,0,0-9.047,3.671,11.861,11.861,0,0,0-3.842,7.284c-.458,3.519.528,8.244,2.349,10.138l.127.18c6.382-.005,12.177-.014,19.254-.012C152.512,38.587,152.505,31.242,152.5,23.69Z"/><path class="d" d="M153.506,19.24a12.125,12.125,0,0,0-5.795-1.265,27.831,27.831,0,0,0-8.87,1.594,15.1,15.1,0,0,0-7.834,5.613,14.68,14.68,0,0,0-2.315,8.715,19.162,19.162,0,0,0,.863,5.04,13.381,13.381,0,0,0,.994,2.35,7.784,7.784,0,0,0,.483.754c.146.2.3.4.461.594.267.327-.27-.408.043.036a2.054,2.054,0,0,0,2.736.717,2.016,2.016,0,0,0,.718-2.736,10.225,10.225,0,0,1-1.671-3.076,15.3,15.3,0,0,1-.641-4.662,9.581,9.581,0,0,1,3.815-7.759,20.269,20.269,0,0,1,9.134-3.042,17.6,17.6,0,0,1,3.848-.056,8.132,8.132,0,0,1,1.249.307c.1.033.746.3.25.081.174.078.344.162.513.249,2.288,1.169,4.314-2.281,2.019-3.454Z"/><path class="d" d="M122.869,4q12.405,0,24.81.02l4.8,0-2-2q0,15.981.025,31.963,0,3.831.009,7.663l2-2q-14.8,0-29.606.019l2,2q0-16.917-.037-33.835,0-2.916,0-5.833c0-2.574-4-2.578-4,0q0,15.77.036,31.54,0,4.064.006,8.128a2.029,2.029,0,0,0,2,2q14.8,0,29.606-.019a2.028,2.028,0,0,0,2-2q-.03-17.38-.031-34.76,0-2.433,0-4.866a2.029,2.029,0,0,0-2-2Q139.592.023,126.7,0q-1.914,0-3.83,0C120.3,0,120.291,4,122.869,4Z"/><path class="j" d="M128.386,20.648a.687.687,0,0,1,.027-.673c1.05-1.64,3.326-2.849,6.391-2.771a6.483,6.483,0,0,1,6.066,4.059c-1.6,1.951-3.608,4.277-6.954,3.737A7.26,7.26,0,0,1,128.386,20.648Z"/><path class="d" d="M130.315,20.117c.093.266-.357,1.222-.057.694.111-.2-.26.271,0,.012.174-.176.346-.349.526-.52.263-.252-.182.091.021-.02.115-.063.219-.151.331-.22a7.872,7.872,0,0,1,.73-.391c-.259.125-.078.031.085-.028.141-.051.283-.1.427-.142.3-.09.605-.153.913-.218.359-.075-.073,0,.153-.027.17-.017.34-.032.51-.041a10.17,10.17,0,0,1,1.033-.006c.117.006.235.016.352.025.56.043-.383-.092.159.025.28.06.557.122.83.208.108.035.214.073.32.111.5.178-.331-.186.139.064.222.118.442.235.653.372.117.076.233.154.343.239-.324-.25-.016,0,.047.062.21.192.391.405.586.612.147.156-.137-.234.052.077.077.125.161.245.236.372a7.442,7.442,0,0,1,.443.895l.313-2.424c-.373.454-.748.906-1.149,1.335-.226.24-.458.474-.7.7-.1.093-.207.183-.312.272-.141.121-.278.2-.051.045a8.072,8.072,0,0,1-.843.526c-.047.025-.466.211-.216.11s-.187.06-.237.076c-.165.052-.332.088-.5.13-.513.129.369,0-.175.027-.156.007-.311.015-.467.013-.073,0-.585-.035-.421-.016.215.024-.291-.056-.338-.066q-.286-.06-.568-.143c-.148-.044-.293-.108-.442-.147s-.115-.04.061.035q-.12-.053-.237-.111a6.561,6.561,0,0,1-.8-.461c-.092-.062-.45-.374-.1-.068-.1-.085-.2-.167-.289-.254a7.37,7.37,0,0,1-.568-.591c-.079-.093-.336-.459-.044-.044-.067-.095-.136-.188-.2-.284a11.23,11.23,0,0,1-.745-1.289,2.013,2.013,0,0,0-2.736-.718,2.05,2.05,0,0,0-.718,2.737,9.377,9.377,0,0,0,7.194,5.336,7.505,7.505,0,0,0,5.136-1.156,15.109,15.109,0,0,0,3.295-3.161,2.137,2.137,0,0,0,.313-2.424,8.641,8.641,0,0,0-8.225-5.052,10.515,10.515,0,0,0-5.12,1.324c-1.526.892-3.486,2.689-2.794,4.655a2,2,0,0,0,3.857-1.063Z"/><path class="d" d="M88.069,11.844c4.155-.06,8.318-.126,12.473-.051a2.018,2.018,0,0,0,2-2,2.039,2.039,0,0,0-2-2c-4.155-.075-8.318-.009-12.473.051a2,2,0,0,0,0,4Z"/><path class="i" d="M111.017,23.69c0-.907,0-1.817,0-2.723-1.507-.782-3.6-1.459-8.82-.579a20.2,20.2,0,0,0-9.048,3.671,11.859,11.859,0,0,0-3.841,7.284c-.458,3.519.528,8.244,2.349,10.138l.127.18c6.382-.005,12.177-.014,19.254-.012C111.03,38.587,111.023,31.242,111.017,23.69Z"/><path class="d" d="M112.024,19.24a12.121,12.121,0,0,0-5.794-1.265,27.832,27.832,0,0,0-8.871,1.594,15.107,15.107,0,0,0-7.834,5.613A14.686,14.686,0,0,0,87.211,33.9a19.121,19.121,0,0,0,.863,5.04,13.381,13.381,0,0,0,.994,2.35,7.421,7.421,0,0,0,.483.754c.146.2.3.4.46.594.268.327-.27-.408.044.036a2.054,2.054,0,0,0,2.736.717,2.015,2.015,0,0,0,.717-2.736,10.2,10.2,0,0,1-1.67-3.076,15.265,15.265,0,0,1-.642-4.662,9.582,9.582,0,0,1,3.816-7.759,20.269,20.269,0,0,1,9.133-3.042,17.6,17.6,0,0,1,3.848-.056,8.145,8.145,0,0,1,1.25.307c.1.033.746.3.25.081.173.078.343.162.512.249,2.288,1.169,4.315-2.281,2.019-3.454Z"/><path class="d" d="M81.388,4q12.405,0,24.809.02,2.4,0,4.8,0l-2-2q0,15.981.024,31.963,0,3.831.01,7.663l2-2q-14.8,0-29.607.019l2,2q0-16.917-.036-33.835,0-2.916,0-5.833c0-2.574-4-2.578-4,0q0,15.77.036,31.54,0,4.064,0,8.128a2.029,2.029,0,0,0,2,2q14.8,0,29.607-.019a2.028,2.028,0,0,0,2-2q-.031-17.38-.031-34.76,0-2.433,0-4.866a2.03,2.03,0,0,0-2-2Q98.11.023,85.218,0l-3.83,0C78.814,0,78.81,4,81.388,4Z"/><path class="j" d="M86.905,20.648a.684.684,0,0,1,.027-.673c1.049-1.64,3.325-2.849,6.391-2.771a6.483,6.483,0,0,1,6.065,4.059C97.79,23.214,95.78,25.54,92.434,25A7.26,7.26,0,0,1,86.905,20.648Z"/><path class="d" d="M88.833,20.117c.094.266-.356,1.222-.057.694.112-.2-.26.271,0,.012.174-.176.347-.349.526-.52.263-.252-.181.091.021-.02.115-.063.22-.151.331-.22a7.763,7.763,0,0,1,.731-.391c-.26.125-.078.031.085-.028.141-.051.283-.1.426-.142.3-.09.606-.153.913-.218.359-.075-.073,0,.153-.027.17-.017.34-.032.511-.041A10.15,10.15,0,0,1,93.5,19.21c.118.006.235.016.353.025.559.043-.384-.092.159.025.279.06.556.122.829.208.108.035.214.073.321.111.5.178-.331-.186.139.064.222.118.442.235.653.372.116.076.232.154.342.239-.323-.25-.015,0,.047.062.211.192.392.405.586.612.147.156-.137-.234.053.077.076.125.161.245.236.372a7.587,7.587,0,0,1,.442.895l.313-2.424c-.372.454-.748.906-1.149,1.335-.225.24-.458.474-.7.7-.1.093-.206.183-.311.272-.141.121-.278.2-.051.045a8.086,8.086,0,0,1-.844.526c-.047.025-.466.211-.216.11s-.187.06-.236.076c-.165.052-.333.088-.5.13-.513.129.369,0-.175.027-.156.007-.31.015-.466.013-.073,0-.585-.035-.421-.016.214.024-.292-.056-.338-.066-.191-.04-.381-.088-.568-.143-.149-.044-.294-.108-.443-.147s-.115-.04.061.035q-.12-.053-.237-.111a6.625,6.625,0,0,1-.8-.461c-.093-.062-.45-.374-.1-.068-.1-.085-.195-.167-.289-.254a7.2,7.2,0,0,1-.568-.591c-.08-.093-.337-.459-.044-.044-.067-.095-.136-.188-.2-.284a11.223,11.223,0,0,1-.744-1.289,2.014,2.014,0,0,0-2.737-.718,2.049,2.049,0,0,0-.717,2.737,9.375,9.375,0,0,0,7.193,5.336,7.505,7.505,0,0,0,5.136-1.156,15.092,15.092,0,0,0,3.3-3.161,2.135,2.135,0,0,0,.312-2.424A8.641,8.641,0,0,0,92.89,15.2a10.511,10.511,0,0,0-5.119,1.324c-1.527.892-3.486,2.689-2.8,4.655a2,2,0,0,0,3.857-1.063Z"/><path class="d" d="M155.086,91.124c3.09,0,6.18-.052,9.271-.054a2,2,0,0,0,0-4c-3.091,0-6.181.052-9.271.054a2,2,0,0,0,0,4Z"/><path class="d" d="M123.531,91.124c3.09,0,6.18-.052,9.27-.054a2,2,0,0,0,0-4c-3.09,0-6.18.052-9.27.054a2,2,0,0,0,0,4Z"/><path class="d" d="M91.975,91.124c3.09,0,6.18-.052,9.271-.054a2,2,0,0,0,0-4c-3.091,0-6.181.052-9.271.054a2,2,0,0,0,0,4Z"/><path class="d" d="M276.428,165.444a51.845,51.845,0,0,0,1.182,5.458,2,2,0,0,0,3.858-1.063,51.652,51.652,0,0,1-1.183-5.458,2,2,0,0,0-.919-1.195,2,2,0,0,0-2.736.717,2.3,2.3,0,0,0-.2,1.541Z"/><path class="c" d="M278.348,327.924a49.074,49.074,0,0,1-12.34,2.266c-4.532-.017-4.931-2.654-5.18-3.913-.292-1.476-2.163-1.357-3.567-.911-1.763.56-3.143,2.31-5.766,4.212-2.229,1.246-4.765,2.4-7.629,3.827-1.257.624-4.936,2.327-5.985,3.494-2.943,3.275-.327,8.363,4.383,8.764,3.641.31,11.182.1,14.81.114,7.338.035,22.83-.172,24.59-3.249,1.323-2.326.96-4.918.629-7.353a17.232,17.232,0,0,0-.733-3.675,5.516,5.516,0,0,0-3.212-3.576"/><path class="c" d="M325.676,298.806a49.033,49.033,0,0,1-6.42,10.78c-3,3.4-5.244,1.964-6.355,1.322-1.3-.753-2.446.735-3.035,2.085-.739,1.7-.331,3.887-.626,7.113-.531,2.5-1.328,5.169-2.144,8.262-.357,1.357-1.5,5.246-1.31,6.805.527,4.372,6.079,5.753,9.482,2.471,2.63-2.536,7.435-8.351,9.837-11.071,4.858-5.5,14.9-17.3,13.745-20.646-.879-2.528-3.069-3.961-5.119-5.315a17.157,17.157,0,0,0-3.249-1.868,5.513,5.513,0,0,0-4.806.062"/><path class="d" d="M277.817,326a36.34,36.34,0,0,1-11.336,2.188,5.661,5.661,0,0,1-2.623-.382,1.284,1.284,0,0,1-.5-.364c-.437-.453.175.265-.163-.221-.055-.078-.268-.565-.109-.17a11.266,11.266,0,0,1-.334-1.3,3.465,3.465,0,0,0-2.374-2.484,7.213,7.213,0,0,0-6.167,1.554c-.93.708-1.794,1.493-2.7,2.233a18.217,18.217,0,0,1-3.488,2.093c-2.218,1.115-4.466,2.173-6.689,3.279a17.1,17.1,0,0,0-4.875,3.064c-3.2,3.352-1.826,8.557,1.826,10.909,1.865,1.2,4.035,1.318,6.184,1.387,2.215.071,4.433.057,6.649.04,8.013-.064,16.1.178,24.057-.92a22.9,22.9,0,0,0,5.238-1.191,5.705,5.705,0,0,0,3.7-3.834c.952-2.89.37-6.3-.189-9.226s-2.151-5.621-5.052-6.655c-2.429-.866-3.475,3-1.063,3.857,1.885.672,2.224,3.468,2.45,5.124.286,2.1.831,4.73-.39,6.639.272-.427-.207.046.173-.18-.177.106-.346.222-.525.323-.443.251-.018.047-.439.2q-.444.16-.9.291a27.753,27.753,0,0,1-4.269.819c-6.967.869-14.02.668-21.025.738-2.031.021-4.063.04-6.095.021a19.823,19.823,0,0,1-5.289-.327c-2.534-.752-4.029-4-1.6-5.7,3.291-2.308,7.3-3.737,10.862-5.567a37.994,37.994,0,0,0,5.66-4.109,4.62,4.62,0,0,1,1.939-.982c.227-.044.473-.037.69-.085l.128.034q.324.1-.126-.1c-.3.193-.054-.439-.117.073-.142,1.147,1.112,2.818,1.9,3.494a8.4,8.4,0,0,0,6.016,1.611,41.2,41.2,0,0,0,12.014-2.313,2.055,2.055,0,0,0,1.4-2.46,2.015,2.015,0,0,0-2.46-1.4Z"/><path class="d" d="M323.747,298.274a34.966,34.966,0,0,1-2.479,4.809,35.688,35.688,0,0,1-3.2,4.821,5.033,5.033,0,0,1-2.252,1.8,1.769,1.769,0,0,1-1.206-.137,5.629,5.629,0,0,0-2.348-.861,4.182,4.182,0,0,0-3.366,1.968c-1.4,1.915-1.5,4.116-1.527,6.4a16.578,16.578,0,0,1-.316,3.635c-.318,1.348-.684,2.685-1.048,4.022-.568,2.084-1.172,4.166-1.662,6.27-.458,1.967-.889,4.017-.164,5.973,1.543,4.156,6.5,5.453,10.294,3.634a15.423,15.423,0,0,0,4.4-3.846c1.517-1.665,2.986-3.374,4.453-5.083,5.175-6.03,10.721-11.9,14.977-18.647a19.676,19.676,0,0,0,2.342-4.716,5.683,5.683,0,0,0-1.011-5.178c-1.57-2.208-3.971-3.729-6.243-5.137-2.615-1.623-5.886-2.5-8.732-.924-2.252,1.248-.237,4.7,2.019,3.454,1.89-1.047,4.168.566,5.7,1.583,1.61,1.068,3.5,2.154,4.367,3.964.066.137.244.749.206.465-.06-.452-.063.539-.017.161.031-.257-.111.426-.148.549-.063.209-.218.628-.244.691a25.44,25.44,0,0,1-2.088,3.68c-3.8,5.812-8.555,10.924-13.061,16.18a91.451,91.451,0,0,1-7.548,8.424c-1.821,1.652-5.756,1.8-6.09-1.272a14.111,14.111,0,0,1,.86-4.57c.552-2.087,1.134-4.165,1.689-6.25a28.266,28.266,0,0,0,1.058-7.062,16.286,16.286,0,0,1,.1-2.47,3.9,3.9,0,0,1,.278-.943,5.577,5.577,0,0,0,.38-.662,2.992,2.992,0,0,1,.2-.247q.27-.249-.444-.119a19.476,19.476,0,0,0,1.794.847,5.578,5.578,0,0,0,2.693.182c2.249-.378,3.908-2.1,5.233-3.834a42.2,42.2,0,0,0,5.993-10.493,2.016,2.016,0,0,0-1.4-2.46,2.044,2.044,0,0,0-2.46,1.4Z"/></svg>