<?xml version="1.0" encoding="utf-8"?>
<!-- Uploaded to: SVG Repo, www.svgrepo.com, Generator: SVG Repo Mixer Tools -->
<svg width="800px" height="800px" viewBox="0 -5.77 356.084 356.084" xmlns="http://www.w3.org/2000/svg"><defs><style>.a{fill:#ffffff;}.b{fill:#a0a0a0;}.c{fill:#7a7473;}.d{fill:#211715;}.e{fill:none;}.f{fill:#cfcfcf;}.g{fill:#c5dbef;}.h{fill:#5394cf;}.i{fill:#f3736f;}.j{fill:#7cc67a;}.k{fill:#65a0d4;}</style></defs><path class="a" d="M241.669,318.9c.067-.195.137-.389.213-.581.019-.05.058-.164.11-.325a157.538,157.538,0,0,1-16.158-4.43c-.083.277-.136.449-.136.449a21.627,21.627,0,0,1-3.3,5.758l-.257.285a1.507,1.507,0,0,1,.2.62c.158,1.4.354,4.33,5.367,4.767a56.763,56.763,0,0,0,13.078-1.144.626.626,0,0,1-.008-.1A18.849,18.849,0,0,1,241.669,318.9Z"/><path class="a" d="M334.707,293.784c-.014-.045-.027-.091-.038-.136,0,0-.065-.279-.158-.7-4,3.267-8.83,6.809-13.817,10.258l.225.338c1.124,2.063,2.33,4.849,2.126,7.19l-.023.428a1.939,1.939,0,0,1,.565.135c1.386.554,4.2,1.82,7.423-2.1a51.253,51.253,0,0,0,6.51-11.99c-.131-.061-.2-.1-.2-.1A8.147,8.147,0,0,1,334.707,293.784Z"/><path class="a" d="M251.125,39.715a25.616,25.616,0,0,0-7.254-1.984,24.91,24.91,0,0,0-8.564-.393,29.216,29.216,0,0,0,.17,7.792c.287,4.057.7,9.687-2.8,12.062a3.776,3.776,0,0,0-1.543,1.9c-.683,2.1,1.14,2.833,2.333,3.885a6.193,6.193,0,0,1,1.67,2.485c.336,2.177,1.458,7.03,3.116,9.521a7.769,7.769,0,0,0,4.647,3.495,18.718,18.718,0,0,0,10.048-.214,1.348,1.348,0,0,1,1.667.634c.252.474,2.427,3.952,2.837,7.031l1.455,6.439c6.881-2.9,13.464-5.77,20.05-8.995a4.579,4.579,0,0,1,2.7-.676c.195.036.4.073.605.131-.556-1.809-1.063-4.077-1.652-6.686a13.878,13.878,0,0,1-.111-1.915,7.815,7.815,0,0,1,.587-3.552c-4.951-2.879-9-7.877-11.849-11.536a11.914,11.914,0,0,0,2.08-7.1c-.068-1.678-.652-3.536-2.155-4.284a3.6,3.6,0,0,0-3.208.13,6.33,6.33,0,0,0-2.611,2.9c-2.622.188-3.924-5.37-7.027-7.888A23.137,23.137,0,0,0,251.125,39.715Z"/><path class="a" d="M254.866,194.213c-.922-.079-1.808-.177-2.653-.295a4.6,4.6,0,0,1-2.025-.9l-.232,1.418c-5.111,23.333-10.5,44.373-15.111,65.185-3.006,13.565-10.115,48.706-10.846,53.128.391.65,13.475,4.568,21.948,6.019,4.9-17.962,9.151-35,14.972-52.332a281.877,281.877,0,0,1,11.26-26.932c.354,1.114.591,1.858.591,1.858.3,2.148,2.3,6.67,3.63,8.852,11.164,18.309,29.28,42.926,39.822,56.037a232.787,232.787,0,0,0,19.849-14.6c-9.229-14.9-19.388-30.5-28.617-45.4a37.031,37.031,0,0,1-3.942-8.6c-1.822-6.157-2.377-10.915-2.992-17.843-.9-10.111-1.447-15.815-2.12-22.259l-.662-7.183C284.577,193.1,266.708,195.227,254.866,194.213Z"/><path class="b" d="M241.575,324.094a54.938,54.938,0,0,1-13.865,1.346c-5.013-.437-5.209-3.364-5.367-4.767-.185-1.645-2.267-1.687-3.862-1.328-2,.452-3.693,2.243-6.772,4.085-2.582,1.16-5.5,2.2-8.8,3.491-1.448.569-5.677,2.1-6.947,3.278-3.561,3.319-1.141,9.137,4.034,10.011,4,.675,12.362,1.138,16.376,1.491,8.115.715,25.275,1.917,27.509-1.293,1.681-2.427,1.521-5.3,1.381-8a18.711,18.711,0,0,0-.469-4.1,6.072,6.072,0,0,0-3.22-4.216"/><path class="b" d="M337.551,297.108a50.9,50.9,0,0,1-6.541,12.09c-3.219,3.921-6.037,2.655-7.423,2.1-1.626-.65-2.834,1.047-3.4,2.538-.707,1.871,0,4.139-.025,7.577-.377,2.695.176,5.089-.48,8.444-.288,1.472-3.47,6.533-3.088,8.157,1.069,4.556,9.586,3.918,13.923.782,3.607-2.607,7.418-8.617,10-11.754,5.218-6.345,15.133-20.472,13.418-23.88-1.3-2.571-4.05-3.84-6.625-5.042a21.372,21.372,0,0,0-4.053-1.612,7.337,7.337,0,0,0-5.708.6"/><path class="c" d="M254.268,14.693a24.888,24.888,0,0,0-4.416,1.567,26.577,26.577,0,0,0-13.035,13.649,24.872,24.872,0,0,0-1.74,7.474,24.619,24.619,0,0,1,8.794.348,24.243,24.243,0,0,1,12.447,5.162c3.1,2.518,4.405,8.076,7.027,7.888a6.33,6.33,0,0,1,2.611-2.9,3.6,3.6,0,0,1,3.208-.13c1.5.748,2.087,2.606,2.155,4.284a11.914,11.914,0,0,1-2.08,7.1c2.845,3.66,6.9,8.66,11.852,11.539a36.4,36.4,0,0,1,3.86-6.43c2.327-3.551,8.146-11.934,7.661-23.551a29.372,29.372,0,0,0-5.63-15.7c-9.078-12.022-24.9-11.24-27.154-11.1A29.389,29.389,0,0,0,254.268,14.693Z"/><path class="d" d="M268.57,61.505c3.119,3.944,6.535,7.749,10.81,10.472a2.017,2.017,0,0,0,2.736-.718,2.043,2.043,0,0,0-.717-2.736q-.813-.517-1.586-1.091c-.037-.028-.415-.315-.218-.163s-.221-.176-.213-.17q-.345-.276-.68-.561c-.961-.815-1.875-1.684-2.752-2.587a68.2,68.2,0,0,1-4.552-5.275,2,2,0,0,0-2.828,0,2.061,2.061,0,0,0,0,2.829Z"/><path class="d" d="M244.4,39.509a20.805,20.805,0,0,1,10.594,4.874,16.279,16.279,0,0,1,3.1,4.173c.858,1.4,1.824,3.042,3.356,3.791a2.051,2.051,0,0,0,2.736-.718,2.018,2.018,0,0,0-.717-2.736,3.4,3.4,0,0,1-.406-.232c.363.244-.038-.05-.112-.13-.128-.138-.254-.273-.374-.418.211.256-.176-.246-.176-.247-.532-.762-.995-1.57-1.483-2.361a16.644,16.644,0,0,0-3.9-4.586,25.6,25.6,0,0,0-12.626-5.41,2.009,2.009,0,0,0-2,2,2.052,2.052,0,0,0,2,2Z"/><path class="d" d="M265.369,51.23a3.744,3.744,0,0,1,1.6-1.62,1.415,1.415,0,0,1,1.547.079c-.238-.174.188.214.2.227-.194-.227.151.258.156.266.261.406-.02-.175.141.289.07.2.131.407.181.616,0-.007.126.631.08.315a6.127,6.127,0,0,1,.05.635,11.031,11.031,0,0,1-.027,1.336,10.6,10.6,0,0,1-.519,2.3,10.088,10.088,0,0,1-4.467,5.384c-2.232,1.281-.219,4.739,2.019,3.454a14.057,14.057,0,0,0,6.994-12.469c-.116-2.657-1.28-5.571-4.062-6.388-3.037-.893-5.822,1.062-7.342,3.563-1.34,2.2,2.118,4.218,3.454,2.018Z"/><path class="d" d="M236.273,70.2A12.29,12.29,0,0,0,238.641,70a7.1,7.1,0,0,0,1.427-.387,6.3,6.3,0,0,0,2.363-1.438,2.088,2.088,0,0,0,.585-1.414,2.04,2.04,0,0,0-.585-1.415,2,2,0,0,0-2.829,0,2.816,2.816,0,0,1-.3.275l.4-.313a4.71,4.71,0,0,1-1.046.6l.478-.2a7.457,7.457,0,0,1-1.862.484l.531-.071a10.044,10.044,0,0,1-1.531.077,2.018,2.018,0,0,0-2,2,2.04,2.04,0,0,0,2,2Z"/><path class="d" d="M239.858,50.868c-.3,1.2.045,3.917,2.186,4.053,2.816-.146,2.827-3.449,1.813-4.956C243.027,48.731,240.722,48.306,239.858,50.868Z"/><path class="d" d="M233.191,38.541c-.3,4.619,1.246,9.453.136,14.016a5.931,5.931,0,0,1-.93,2.187c-.652.867-1.672,1.331-2.339,2.2a4.516,4.516,0,0,0,.416,6.191,18.074,18.074,0,0,1,2.118,1.8,5.58,5.58,0,0,1,.895,2.582,33.385,33.385,0,0,0,2,6.479,11.4,11.4,0,0,0,4.592,5.474,15.047,15.047,0,0,0,6.849,1.563,21.547,21.547,0,0,0,4.222-.259,12.57,12.57,0,0,0,1.716-.379c.381-.115.817-.044.316-.35-.561-.343-.206-.086-.164.09a15.634,15.634,0,0,0,1.3,2.465,14.15,14.15,0,0,1,1.2,3.856,2.013,2.013,0,0,0,2.46,1.4,2.049,2.049,0,0,0,1.4-2.46,20.11,20.11,0,0,0-2.455-6.478c-1.029-1.872-2.354-3.138-4.659-2.529-3.866,1.02-9.524,1.471-12.153-2.225a17.484,17.484,0,0,1-2.318-5.8c-.553-2.13-.7-4.182-2.135-5.963a14.132,14.132,0,0,0-2.14-1.911,2.008,2.008,0,0,1-.584-.624c.19.392.015.216.032.11a1.361,1.361,0,0,1,.307-.678c.584-.757,1.527-1.2,2.141-1.966a9.359,9.359,0,0,0,1.6-3.093c1.59-5.107-.157-10.507.178-15.7.166-2.571-3.835-2.561-4,0Z"/><path class="e" d="M284.018,65.547c4.527-7.411,6.205-14.52,6.08-20.8-.191-13.566-7.156-20.82-12.586-23.691a32.489,32.489,0,0,0-24.528-2.645c-7.3,2.013-16.89,7.647-17.793,20.131"/><path class="d" d="M237.141,39.953a21.4,21.4,0,0,1,.912-7.548q.369-1.152.817-2.276c-.26.657.033-.06.094-.192.137-.3.283-.589.433-.879a25.322,25.322,0,0,1,6.865-8.3c5.611-4.361,12.7-5.433,19.59-4.728,7.833.8,15.9,4.463,20.4,11.387,5.933,9.128,5.383,20.49.515,29.932a55.714,55.714,0,0,1-2.946,4.978,57.817,57.817,0,0,0-4.032,6.36,13.631,13.631,0,0,0-.794,9.345,40.783,40.783,0,0,0,2.411,8.112,2.016,2.016,0,0,0,2.737.717,2.045,2.045,0,0,0,.717-2.736,37.4,37.4,0,0,1-2.059-7.38,10.7,10.7,0,0,1-.263-3.909,11.055,11.055,0,0,1,1.7-3.923c2.081-3.387,4.479-6.513,6.258-10.086,5.154-10.349,5.778-22.653-.368-32.759-4.879-8.023-13.453-12.577-22.576-13.83-7.347-1.008-15.076-.232-21.475,3.8a27.207,27.207,0,0,0-12.932,23.912c.1,2.566,4.1,2.579,4,0Z"/><path class="a" d="M205.361,170.791c-6.684,0-8.351,0-19.3,0a2.834,2.834,0,0,0-2.793,2.346c-5.138,29.413-21.908,115.618-26.08,137.013A5.993,5.993,0,0,1,151.308,315c-27.558,0-68.2-.008-88.092-.007a3.985,3.985,0,0,1-3.987-4l.014-3.4a4,4,0,0,1,4-3.98h80.108a4.621,4.621,0,0,0,4.543-3.74c1.563-8,4.356-22.3,7.617-39.1-12.454,0-68.209-.007-92.378-.006a3.975,3.975,0,0,1-3.976-4l.012-2.963a3.994,3.994,0,0,1,3.995-3.978l94.458.01c5.043-26.126,13.16-69.59,15.957-84.6a6.472,6.472,0,0,1,6.371-5.282c12.328.007,19.982,0,25.378.012Z"/><path class="a" d="M109.2,184.458l3.67-.2c.213-1.225.387-2.217.387-2.217.2-1.138.737-3.358.873-4.421-1.862-.361-7.623-1.818-9.021-2.078L97.386,174.1c.491,1.316,2.349,6.117,3.28,8.823l.677,1.971C103.952,184.75,106.578,184.6,109.2,184.458Z"/><path class="a" d="M82.113,185.989c6.056-.346,12.587-.718,19.23-1.091l-.677-1.972c-1.034-3.006-3.213-8.6-3.389-9.128-.952.176-17.613,4.663-18.2,4.849.091.565,1.21,4.553,1.652,6.373l.251,1.034Z"/><path class="a" d="M128.659,183.005l-.25.4c6.092-.326,11.821-.624,16.854-.872.616-1.44.628-.509-3.579-6.839a2.041,2.041,0,0,1-.742.12H134.1a2.538,2.538,0,0,1-.832-.114c-.5.826-3.418,5.388-4.089,6.463Z"/><path class="a" d="M134.1,175.815c-1.813,0-1.432-1.076-1.432-1.248-.008-2.234.006-5.116.006-5.725A1.449,1.449,0,0,1,134.1,167.2h6.837a1.417,1.417,0,0,1,1.427,1.545c0,2.031,0,4.827,0,5.821,0,.253.014,1.248-1.432,1.248H134.1"/><path class="a" d="M66.3,249.83H63.506c.927,2.864-9.568-44.4-12.379-60.682a1.232,1.232,0,0,1,1.155-1.44c14.555-.824,98.489-5.775,111.05-5.916l7.256-.081c-3.748,20.141-8.607,45.514-12.972,68.128Z"/><path class="a" d="M122.869,2c1.26,0,26.465.023,29.614.023,0,1.768.021,32.453.034,39.626-10.649,0-18.4.019-29.606.019C122.911,32.389,122.869,6.833,122.869,2Z"/><path class="a" d="M81.388,2c1.259,0,26.464.023,29.614.023,0,1.768.021,32.453.034,39.626-10.65,0-18.4.019-29.607.019C81.429,32.389,81.388,6.833,81.388,2Z"/><path class="a" d="M53.48,68.476c-1.923,0-1.518-1.1-1.518-1.278-.01-2.289,0-5.241,0-5.866a1.5,1.5,0,0,1,1.513-1.681h7.253a1.468,1.468,0,0,1,1.512,1.584c0,2.08.006,4.944.006,5.963,0,.259.015,1.278-1.518,1.278H53.48"/><path class="a" d="M19.851,68.476c-1.923,0-1.519-1.1-1.519-1.278-.009-2.289.006-5.241.006-5.866a1.5,1.5,0,0,1,1.513-1.681H27.1a1.469,1.469,0,0,1,1.513,1.584c0,2.08.006,4.944.006,5.963,0,.259.014,1.278-1.519,1.278H19.851"/><path class="a" d="M75.547,324.606a7.739,7.739,0,0,0-6.582,1.723,7.336,7.336,0,0,0-2.167,7.039,7.69,7.69,0,0,0,6.036,5.563c.386.078,4.311.807,6.945-1.976a7.652,7.652,0,0,0,.388-9.552A7.572,7.572,0,0,0,75.547,324.606Z"/><path class="a" d="M143.1,324.606a7.737,7.737,0,0,0-6.581,1.723,7.336,7.336,0,0,0-2.168,7.039,7.69,7.69,0,0,0,6.036,5.563c.386.078,4.311.807,6.945-1.976a7.652,7.652,0,0,0,.389-9.552A7.574,7.574,0,0,0,143.1,324.606Z"/><path class="f" d="M149.178,113.128a3.834,3.834,0,0,1-.146-1c0-1.278-.149-20.967-.149-22.909a10.981,10.981,0,0,1,2.13-5.907c0-.848,0-1.478,0-1.478,0-.726.261-1.261.95-1.261,1.239,0,13.327-.008,15.337-.008.522,0,1.092.209,1.092,1.318v1.647c1.446,1,2.136,4.7,2.136,5.811,0,1.463.031,20.933.031,21.985,0,2.851-1.176,5.432-2.731,5.432l-15.177.148A5.94,5.94,0,0,1,149.178,113.128Z"/><path class="f" d="M86.067,113.128a3.792,3.792,0,0,1-.146-1c0-1.278-.15-20.967-.15-22.909A10.982,10.982,0,0,1,87.9,83.316c0-.848,0-1.478,0-1.478,0-.726.261-1.261.95-1.261,1.239,0,13.327-.008,15.337-.008.522,0,1.092.209,1.092,1.318v1.647c1.446,1,2.136,4.7,2.136,5.811,0,1.463.031,20.933.031,21.985,0,2.851-1.176,5.432-2.731,5.432l-15.177.148A5.94,5.94,0,0,1,86.067,113.128Z"/><path class="f" d="M117.622,113.128a3.834,3.834,0,0,1-.146-1c0-1.278-.149-20.967-.149-22.909a10.974,10.974,0,0,1,2.131-5.907V81.838c0-.726.261-1.261.95-1.261,1.24,0,13.327-.008,15.337-.008.523,0,1.092.209,1.092,1.318v1.647c1.447,1,2.136,4.7,2.136,5.811,0,1.463.032,20.933.032,21.985,0,2.851-1.176,5.432-2.732,5.432l-15.176.148A5.944,5.944,0,0,1,117.622,113.128Z"/><path class="d" d="M130.911,183.173c1.2-1.92,2.415-3.831,3.628-5.744a2.018,2.018,0,0,0-.718-2.736,2.043,2.043,0,0,0-2.736.717c-1.213,1.913-2.428,3.824-3.628,5.744a2.02,2.02,0,0,0,.718,2.737,2.041,2.041,0,0,0,2.736-.718Z"/><path class="d" d="M140.635,177.718c.894,1.322,1.844,2.607,2.727,3.937a2.119,2.119,0,0,0,1.195.919,2,2,0,0,0,2.461-1.4,2.008,2.008,0,0,0-.2-1.541c-.883-1.329-1.833-2.614-2.727-3.936a2.131,2.131,0,0,0-1.2-.92,2.048,2.048,0,0,0-1.541.2,2.017,2.017,0,0,0-.919,1.195,1.994,1.994,0,0,0,.2,1.541Z"/><path class="d" d="M134.1,173.815a1.745,1.745,0,0,1-.306-.012c-.029-.048.448.11.156.016-.067-.021-.417-.129-.043.005.393.141-.121-.135.232.134a1.138,1.138,0,0,1,.384.5c.138.323.088.2.059.107-.064-.211.069.61.053.352-.006-.1.044-.426-.02.051-.094.707.058-.508.051-.371.021-.394,0-.794,0-1.187q0-2.209.008-4.417c0-.067,0-.135,0-.2,0-.4-.08.131-.044.211-.03-.066.058-.238.069-.305.042-.262-.1.227-.112.243.088-.169.238-.3-.125.11.3-.337-.3.17-.037.023-.414.229-.333.13-.172.095-.494.107-.3.027-.153.033.123,0,.247,0,.371,0h6.2a1.621,1.621,0,0,0,.4,0c-.043.022-.481-.107-.178-.008-.5-.163-.313-.157-.195-.077-.47-.318-.278-.244-.185-.141.241.264-.293-.415-.1-.128.158.239-.137-.522-.05-.106a1.059,1.059,0,0,0,.034.143c.085.232-.077-.324-.042-.338a7.629,7.629,0,0,0,.011.915q0,2.347,0,4.7c0,.175-.015.358,0,.532.019.256.129-.62.029-.242a.711.711,0,0,0-.038.12c-.032-.206.164-.366.223-.439.281-.349-.157.052.2-.192.294-.2.1-.076.024-.034-.223.123.518-.205.137-.077-.238.081-.022-.122.147-.019a1.668,1.668,0,0,0-.44,0H134.1a2,2,0,1,0,0,4h6.573a3.8,3.8,0,0,0,2.736-.888,3.241,3.241,0,0,0,.96-2.295c.057-1.618,0-3.249,0-4.869a6.428,6.428,0,0,0-.224-2.3,3.353,3.353,0,0,0-2.942-2.241c-1.013-.1-2.07-.017-3.086-.017h-3.641a3.764,3.764,0,0,0-2.636.833,3.684,3.684,0,0,0-1.15,2.576c-.122,1.715-.022,3.474-.019,5.192a4.342,4.342,0,0,0,0,.765c0-.01.076-1.236-.022.172a2.723,2.723,0,0,0,.119,1.022,3.277,3.277,0,0,0,3.335,2.054,2,2,0,0,0,0-4Z"/><path class="d" d="M76.078,322.677a9.62,9.62,0,0,0-9.776,3.69,9.222,9.222,0,0,0,1.225,12.011,10.388,10.388,0,0,0,8.711,2.535,8.864,8.864,0,0,0,7.413-8.835,9.484,9.484,0,0,0-7.573-9.4,2.051,2.051,0,0,0-2.46,1.4,2.019,2.019,0,0,0,1.4,2.46,10.98,10.98,0,0,1,1.329.376c.494.165-.358-.2.133.057.16.083.323.159.481.247s.33.193.489.3c.006,0,.464.36.245.175a4.764,4.764,0,0,1,1.264,1.529c.093.169.181.342.26.519-.161-.361.077.229.084.248a9.4,9.4,0,0,1,.293,1.144c.122.6.006-.356.032.254.008.2.025.4.027.6a7.19,7.19,0,0,1-.055,1c.056-.411-.059.232-.064.255q-.066.292-.156.579s-.228.618-.083.272a5.454,5.454,0,0,1-.27.541,4.085,4.085,0,0,1-1.3,1.513c.266-.2-.283.17-.27.162-.169.1-.346.19-.52.286-.508.279.315-.078-.222.1-.174.056-.346.117-.523.167s-.341.089-.514.125c-.079.016-.644.1-.13.037-.256.033-.513.052-.77.062-.475.017-.964-.084-1.432-.058.636-.036.323.048.085,0-.19-.036-.379-.081-.566-.132-.17-.046-.34-.1-.507-.156-.042-.014-.591-.233-.2-.062a8.044,8.044,0,0,1-.987-.516c-.162-.1-.317-.206-.474-.312-.487-.329.237.242-.2-.159-.239-.22-.475-.436-.692-.678a5.853,5.853,0,0,1-.905-1.543c-.057-.208-.127-.41-.177-.62,0,.012-.123-.681-.075-.319a6.377,6.377,0,0,1-.039-1.07c0,.007.058-.686.01-.317a5.78,5.78,0,0,1,.126-.626c.034-.138.071-.275.113-.41.026-.084.281-.724.183-.515a4.931,4.931,0,0,1,1.516-2,4.751,4.751,0,0,1,1.92-.938c.18-.047.362-.078.542-.12.427-.1-.3.006.156-.024.356-.023.708-.045,1.065-.035.241.007.479.036.719.051.362.023-.435-.182-.18-.024a.836.836,0,0,0,.233.041,2.052,2.052,0,0,0,2.46-1.4A2.017,2.017,0,0,0,76.078,322.677Z"/><path class="d" d="M143.634,322.677a9.622,9.622,0,0,0-9.777,3.69,9.222,9.222,0,0,0,1.225,12.011,10.389,10.389,0,0,0,8.711,2.535,8.864,8.864,0,0,0,7.414-8.835,9.484,9.484,0,0,0-7.573-9.4,2.051,2.051,0,0,0-2.46,1.4,2.018,2.018,0,0,0,1.4,2.46,10.914,10.914,0,0,1,1.328.376c.494.165-.357-.2.134.057.16.083.323.159.481.247s.33.193.489.3c.005,0,.463.36.244.175a4.754,4.754,0,0,1,1.265,1.529c.093.169.181.342.259.519-.16-.361.078.229.084.248a9.409,9.409,0,0,1,.294,1.144c.121.6.006-.356.031.254.009.2.026.4.027.6a7.037,7.037,0,0,1-.054,1c.055-.411-.059.232-.064.255q-.067.292-.157.579s-.227.618-.082.272a5.462,5.462,0,0,1-.271.541,4.091,4.091,0,0,1-1.3,1.513c.265-.2-.283.17-.27.162-.17.1-.346.19-.52.286-.508.279.314-.078-.223.1-.174.056-.346.117-.522.167s-.342.089-.515.125c-.078.016-.644.1-.13.037-.255.033-.513.052-.77.062-.475.017-.963-.084-1.431-.058.635-.036.322.048.085,0-.191-.036-.379-.081-.566-.132-.171-.046-.34-.1-.507-.156-.043-.014-.592-.233-.2-.062a8.191,8.191,0,0,1-.987-.516c-.162-.1-.317-.206-.474-.312-.486-.329.238.242-.2-.159-.238-.22-.474-.436-.691-.678a5.853,5.853,0,0,1-.905-1.543c-.058-.208-.127-.41-.177-.62,0,.012-.123-.681-.076-.319a6.376,6.376,0,0,1-.038-1.07c0,.007.058-.686.01-.317a5.776,5.776,0,0,1,.125-.626c.034-.138.072-.275.113-.41.026-.084.282-.724.184-.515a4.937,4.937,0,0,1,1.515-2,4.755,4.755,0,0,1,1.921-.938c.179-.047.361-.078.542-.12.427-.1-.3.006.156-.024.355-.023.708-.045,1.065-.035.24.007.478.036.718.051.363.023-.435-.182-.179-.024a.83.83,0,0,0,.233.041,2.053,2.053,0,0,0,2.46-1.4A2.019,2.019,0,0,0,143.634,322.677Z"/><path class="d" d="M163.332,179.792c-8.548.1-17.106.684-25.64,1.126q-20.409,1.056-40.812,2.232-17.916,1.012-35.83,2.054l-5.666.327c-1.965.113-4.659-.171-5.816,1.747-.868,1.44-.209,3.345.075,4.889q.4,2.165.818,4.324.99,5.106,2.041,10.2c2.74,13.394,5.678,26.747,8.438,40.137.157.764.314,1.529.464,2.294.494,2.524,4.35,1.456,3.857-1.063-2.365-12.068-5.093-24.067-7.6-36.107-1.39-6.685-2.775-13.374-4.023-20.088q-.168-.9-.33-1.8a6.744,6.744,0,0,0-.157-.885,3.068,3.068,0,0,0-.066-.377c.057.448-.1.71-.458.789-.3.092-.353.129-.172.108.316.188,1.494-.085,1.871-.107q2.581-.147,5.162-.3,16.923-.978,33.846-1.944,20.322-1.154,40.649-2.239c9.24-.486,18.487-1.037,27.737-1.286.537-.014,1.073-.026,1.609-.033,2.572-.03,2.579-4.03,0-4Z"/><path class="d" d="M138.445,241.036c2.278-16.155,4.845-32.267,7.53-48.36a2.059,2.059,0,0,0-1.4-2.46,2.017,2.017,0,0,0-2.46,1.4c-2.685,16.092-5.252,32.205-7.53,48.36a2.068,2.068,0,0,0,1.4,2.46,2.013,2.013,0,0,0,2.46-1.4Z"/><path class="d" d="M75.638,196.336c2.5,14.871,4.89,29.76,7,44.69a2.012,2.012,0,0,0,2.46,1.4,2.052,2.052,0,0,0,1.4-2.46c-2.11-14.931-4.5-29.819-7-44.69a2.016,2.016,0,0,0-2.46-1.4,2.047,2.047,0,0,0-1.4,2.46Z"/><path class="d" d="M119.837,240.5c.858-12.367,1.815-24.727,2.7-37.092q.361-5.028.708-10.058c.174-2.57-3.827-2.559-4,0-.915,13.48-1.939,26.954-2.925,40.429-.164,2.24-.33,4.48-.485,6.721-.179,2.569,3.822,2.558,4,0Z"/><path class="d" d="M96.757,194.6c.874,13.08,1.864,26.152,2.822,39.226q.246,3.336.488,6.674c.183,2.552,4.185,2.573,4,0-.874-12.154-1.787-24.306-2.653-36.461q-.336-4.719-.657-9.439c-.171-2.555-4.172-2.574-4,0Z"/><path class="d" d="M73.278,228.156l56.939-1.648,16.263-.471c2.569-.075,2.579-4.075,0-4l-56.132,1.625-17.07.494c-2.568.074-2.579,4.075,0,4Z"/><path class="d" d="M66.916,212.023c22-.93,44-2.037,66-3.047q9.288-.426,18.577-.821c2.565-.108,2.579-4.109,0-4-21.7.917-43.386,2.015-65.081,3.008q-9.747.447-19.5.86c-2.565.108-2.578,4.109,0,4Z"/><path class="d" d="M214.2,157.972q-12.834-.024-25.668-.008l-7.463,0a9.6,9.6,0,0,0-6.8,2.183c-2.645,2.345-2.873,5.934-3.48,9.188q-4.685,25.106-9.421,50.2-2.814,14.892-5.674,29.775l1.928-1.468-40.174,0-46.846,0H65.942c-1.729,0-3.556-.189-5.177.517a6.041,6.041,0,0,0-3.582,5.118,28.009,28.009,0,0,0-.026,2.9,6.57,6.57,0,0,0,2.705,5.4c1.492,1.037,3.207,1,4.939,1h8.762l44.267,0,35.458,0h2.221l-1.928-2.532Q150.91,274,148.226,287.752q-.95,4.872-1.9,9.743c-.261,1.338-.313,2.915-1.579,3.716-1.109.7-2.783.4-4.043.4H65.687a11.883,11.883,0,0,0-4.844.517,5.978,5.978,0,0,0-3.468,4.254,19.062,19.062,0,0,0-.141,3.5,7.828,7.828,0,0,0,.754,4.037c1.939,3.461,5.731,3.07,9.124,3.07l20.62,0,49.877,0h11.643a12.3,12.3,0,0,0,5.647-.857,7.956,7.956,0,0,0,3.817-4.173,28.093,28.093,0,0,0,1.157-5.149q.553-2.844,1.108-5.688,3.138-16.135,6.257-32.273,3.835-19.857,7.632-39.723,3.546-18.585,7.015-37.186,1.325-7.15,2.613-14.309.263-1.473.522-2.946a4.506,4.506,0,0,1,.321-1.488c.437-.673,1.486-.416,2.16-.416q5.141,0,10.281,0,3.789,0,7.579,0c2.574,0,2.578-4,0-4q-8.93,0-17.86,0c-2.255,0-4.353.281-5.614,2.4a9.958,9.958,0,0,0-.9,3.422q-.553,3.133-1.124,6.263-3.047,16.783-6.255,33.539-3.757,19.828-7.58,39.644-3.445,17.891-6.918,35.775-1.293,6.66-2.59,13.321-.49,2.522-.982,5.042a9.8,9.8,0,0,1-.7,2.676A4.04,4.04,0,0,1,151.308,313c-7.777.232-15.6,0-23.38,0l-25.12,0-23.365,0H65.109c-1.181,0-2.7.288-3.5-.81-.592-.815-.376-2.068-.372-3.013s-.18-2.1.485-2.862c.89-1.021,2.489-.7,3.7-.7h69.81a81.857,81.857,0,0,0,8.807-.051,6.693,6.693,0,0,0,4.867-2.968,11.747,11.747,0,0,0,1.353-4.427q2.2-11.238,4.383-22.477,1.4-7.194,2.8-14.388a2.029,2.029,0,0,0-1.929-2.531l-30.779,0-43.6,0c-5.889,0-11.781.05-17.669,0-2.638-.023-2.525-3.149-2.283-5.129.2-1.64,1.62-1.807,2.976-1.807h4.481l44.543,0,41.054,0h3.391a2.022,2.022,0,0,0,1.929-1.468q5.115-26.505,10.055-53.043,2.182-11.625,4.353-23.253c.5-2.707.987-5.42,1.515-8.123a4.63,4.63,0,0,1,3.329-3.844,12.242,12.242,0,0,1,3.026-.147l3.9,0q14.236,0,28.472.009c2.574,0,2.578-4,0-4Z"/><path class="d" d="M82.66,184.488c-.522-2.122-1.254-4.224-1.653-6.372l-1.4,2.46c2.952-.913,5.978-1.63,8.962-2.429,3.057-.818,6.129-1.812,9.236-2.421l-2.46-1.4c1.058,3.068,2.328,6.061,3.389,9.129.836,2.418,4.7,1.378,3.857-1.064-1.06-3.068-2.331-6.061-3.389-9.128a2.06,2.06,0,0,0-2.46-1.4c-3.108.609-6.18,1.6-9.236,2.421-2.984.8-6.01,1.516-8.962,2.429a2.056,2.056,0,0,0-1.4,2.46c.4,2.148,1.131,4.251,1.652,6.373.614,2.5,4.473,1.44,3.858-1.064Z"/><path class="d" d="M104.578,177.467c3.032.572,5.993,1.486,9.022,2.078l-1.4-2.461c-.2,1.489-.609,2.944-.873,4.421a2,2,0,1,0,3.857,1.064c.264-1.478.673-2.933.873-4.421a2.155,2.155,0,0,0-.2-1.541,1.982,1.982,0,0,0-1.2-.92c-3.028-.591-5.99-1.505-9.021-2.077a2,2,0,1,0-1.064,3.857Z"/><path class="g" d="M62.09,69.392c1.513,2.162,2.258,3.1,2.745,3.811.4.583.727,1.015,1.023,1.387a9.7,9.7,0,0,1,2.11,5.947c.095,10.348.287,19.631.287,30.04,0,2.49.068,4.222-1.276,5.231a8.746,8.746,0,0,1-4.769,1.136H52.517c-1.89,0-4.612-.488-5.279-1.655a10.22,10.22,0,0,1-.766-4.712c0-10.3.189-19.512.283-29.7A10.671,10.671,0,0,1,49.01,74.41c.258-.331.544-.715.882-1.207.486-.709,1.817-2.486,2.79-4.107Z"/><path class="g" d="M28.46,69.392c1.514,2.162,2.259,3.1,2.745,3.811.4.583.728,1.015,1.023,1.387a9.7,9.7,0,0,1,2.11,5.947c.1,10.348.287,19.631.287,30.04,0,2.49.069,4.222-1.276,5.231a8.746,8.746,0,0,1-4.769,1.136H18.887c-1.89,0-4.612-.488-5.279-1.655a10.22,10.22,0,0,1-.766-4.712c0-10.3.189-19.512.284-29.7A10.664,10.664,0,0,1,15.38,74.41c.259-.331.544-.715.882-1.207.486-.709,1.818-2.486,2.791-4.107Z"/><path class="h" d="M46.779,85.377c-.077,4.8-.179,6.224-.21,11.561,6.958-.224,14.815-.082,21.765.1-.03-5.43-.132-6.934-.213-11.669Z"/><path class="h" d="M13.062,85.377c-.077,4.8-.18,6.224-.211,11.561,6.958-.224,14.815-.082,21.765.1-.029-5.43-.132-6.934-.213-11.669Z"/><path class="d" d="M185.191,115.963q-13.97-.061-27.938-.057-20.836-.021-41.672-.022-22.865-.006-45.727-.006-20.227,0-40.455,0-12.894,0-25.789-.022l-1.678,0c-2.574-.009-2.578,3.991,0,4q11.658.038,23.318.024,19.649.007,39.3.006,22.8,0,45.593,0,21.276,0,42.552.02,15.067.012,30.135.052,1.182,0,2.365.009c2.574.011,2.578-3.989,0-4Z"/><path class="d" d="M185.191,124.074q-13.97-.061-27.938-.057Q136.416,124,115.581,124q-22.865-.006-45.727-.005-20.227,0-40.455,0-12.894,0-25.789-.022l-1.678,0c-2.574-.009-2.578,3.991,0,4q11.658.037,23.318.024,19.649.007,39.3.006,22.8,0,45.593,0,21.276,0,42.552.02,15.067.013,30.135.052l2.365.009c2.574.011,2.578-3.988,0-4Z"/><path class="d" d="M60.363,70.4c.835,1.188,1.706,2.349,2.549,3.532a19.021,19.021,0,0,1,2.521,3.853c.739,1.881.545,3.941.567,5.921q.036,3.216.079,6.433c.055,4.308.112,8.617.145,12.925q.025,3.262.03,6.523c0,1,.028,2-.019,2.99a3.229,3.229,0,0,1-.252,1.429c-.653,1.014-2.9.929-3.929.936-1.136.009-2.272,0-3.408,0a61.61,61.61,0,0,1-7.481-.074,6.451,6.451,0,0,1-1.9-.466c-.411-.194-.394-.276-.526-.767a22.489,22.489,0,0,1-.262-5.775c.013-4.373.059-8.745.114-13.117q.045-3.666.093-7.331c.029-2.372-.084-4.792.1-7.157a10.277,10.277,0,0,1,2.367-5.381c1.139-1.549,2.259-3.131,3.261-4.771,1.346-2.2-2.112-4.214-3.453-2.019-2.034,3.328-5.111,6.287-5.913,10.217a36.958,36.958,0,0,0-.334,6.954q-.044,3.684-.093,7.369c-.062,4.834-.119,9.668-.138,14.5-.013,3.37-.83,8.936,2.858,10.772,2.725,1.357,6,1.044,8.955,1.044,3.026,0,6.349.345,9.311-.386a5.63,5.63,0,0,0,4.163-3.3c.708-1.829.491-4,.489-5.918-.007-4.837-.056-9.674-.116-14.511q-.048-4-.1-8.006A59.186,59.186,0,0,0,69.81,78.8c-.611-4.031-3.724-7.186-5.993-10.416-1.469-2.091-4.938-.094-3.454,2.019Z"/><path class="d" d="M53.48,66.476a1.4,1.4,0,0,1-.324-.012c.039.036.4.1.133.015-.5-.155.248.167.018.023.436.272.343.288.231.171.345.362.285.4.2.247.244.435.186.482.135.288-.057-.214.058.609.051.348-.009-.344-.043.22-.054.31.025-.209.07-.417.086-.626.028-.387,0-.785,0-1.173q0-2.271.008-4.542c0-.082,0-.165,0-.247,0-.252.137-.323-.04.189a1.434,1.434,0,0,0,.08-.326c-.007-.014-.21.517-.1.229.027-.07.194-.341,0-.031-.235.378.171-.13-.145.156-.346.312.225-.117-.159.1l-.132.058c.163-.038.159-.042-.013-.015.007.028-.369,0,.029.012.137,0,.274,0,.41,0H60.4c.111,0,.223,0,.335,0,.14-.005.359.068-.117-.029.155.032.263.139-.146-.086.133.073.236.185-.147-.14.063.053.275.283.034.01-.223-.253-.061-.057-.016.029-.013-.025-.14-.493-.11-.24a.9.9,0,0,0,.039.153c.055.15-.083.386-.037-.324-.019.3.012.607.013.9q0,2.466,0,4.932c0,.163-.016.335,0,.5.013.185.15-.629.012-.212-.068.206.235-.477.119-.285s.368-.392.149-.185.193-.149.192-.148c-.256.171.157-.1.184-.073-.009-.009-.231.08-.246.058s.434-.019.076-.036c-.131-.006-.263,0-.394,0H53.48a2,2,0,1,0,0,4H60.4a4.488,4.488,0,0,0,2.419-.547,3.153,3.153,0,0,0,1.433-2.64c.064-1.7,0-3.419,0-5.122A5.819,5.819,0,0,0,63.83,59.5a3.394,3.394,0,0,0-2.949-1.84c-1.08-.061-2.178,0-3.259,0H53.873a4.121,4.121,0,0,0-2.329.544,3.658,3.658,0,0,0-1.567,2.924c-.119,1.772-.021,3.584-.018,5.359a4.784,4.784,0,0,0,0,.738c-.037-.22.088-.655.059-.449s-.065.4-.082.606a2.871,2.871,0,0,0,.121,1.034c.44,1.505,2,2.044,3.421,2.069a2,2,0,0,0,0-4Z"/><path class="d" d="M47.311,87.389c6.76,0,13.521-.022,20.281-.022,2.574,0,2.578-4,0-4-6.76,0-13.521.022-20.281.022-2.573,0-2.578,4,0,4Z"/><path class="d" d="M46.807,98.937c7.025-.207,14.055-.08,21.078.1,2.575.066,2.574-3.934,0-4-7.023-.181-14.053-.308-21.078-.1-2.568.076-2.579,4.076,0,4Z"/><path class="d" d="M26.733,70.4c.835,1.188,1.707,2.349,2.55,3.532a18.975,18.975,0,0,1,2.52,3.853c.739,1.881.546,3.941.568,5.921q.034,3.216.078,6.433c.055,4.308.112,8.617.146,12.925q.024,3.262.029,6.523c0,1,.029,2-.019,2.99a3.229,3.229,0,0,1-.252,1.429c-.653,1.014-2.9.929-3.929.936-1.136.009-2.272,0-3.408,0a61.591,61.591,0,0,1-7.48-.074,6.465,6.465,0,0,1-1.9-.466c-.41-.194-.394-.276-.525-.767a22.49,22.49,0,0,1-.263-5.775c.014-4.373.06-8.745.114-13.117q.045-3.666.093-7.331c.03-2.372-.084-4.792.1-7.157a10.285,10.285,0,0,1,2.367-5.381c1.139-1.549,2.259-3.131,3.262-4.771,1.346-2.2-2.112-4.214-3.454-2.019-2.034,3.328-5.111,6.287-5.913,10.217a36.958,36.958,0,0,0-.334,6.954q-.042,3.684-.092,7.369c-.062,4.834-.119,9.668-.138,14.5-.013,3.37-.831,8.936,2.857,10.772,2.725,1.357,6,1.044,8.956,1.044,3.026,0,6.348.345,9.311-.386a5.629,5.629,0,0,0,4.162-3.3c.709-1.829.492-4,.489-5.918-.007-4.837-.055-9.674-.115-14.511q-.05-4-.1-8.006A58.863,58.863,0,0,0,36.18,78.8c-.61-4.031-3.724-7.186-5.993-10.416-1.468-2.091-4.938-.094-3.454,2.019Z"/><path class="d" d="M19.851,66.476a1.407,1.407,0,0,1-.325-.012c.039.036.4.1.133.015-.5-.155.248.167.018.023.436.272.343.288.232.171.345.362.285.4.2.247.243.435.185.482.134.288-.056-.214.059.609.052.348-.01-.344-.044.22-.055.31.025-.209.071-.417.086-.626.029-.387,0-.785,0-1.173q0-2.271.009-4.542v-.247c0-.252.137-.323-.04.189a1.383,1.383,0,0,0,.08-.326c-.006-.014-.209.517-.1.229.027-.07.2-.341,0-.031-.234.378.172-.13-.144.156-.346.312.225-.117-.159.1l-.133.058c.163-.038.159-.042-.013-.015.008.028-.369,0,.03.012.136,0,.273,0,.409,0h6.494c.111,0,.224,0,.335,0,.14-.005.36.068-.117-.029.155.032.263.139-.146-.086.133.073.236.185-.147-.14.063.053.275.283.034.01-.223-.253-.061-.057-.015.029-.014-.025-.141-.493-.111-.24a.9.9,0,0,0,.04.153c.055.15-.083.386-.038-.324-.019.3.013.607.013.9q0,2.466,0,4.932c0,.163-.015.335,0,.5.014.185.15-.629.013-.212-.068.206.234-.477.118-.285s.368-.392.15-.185.193-.149.191-.148c-.255.171.157-.1.185-.073-.01-.009-.231.08-.247.058s.434-.019.076-.036c-.13-.006-.263,0-.393,0H19.851a2,2,0,0,0,0,4h6.917a4.492,4.492,0,0,0,2.42-.547,3.158,3.158,0,0,0,1.433-2.64c.063-1.7,0-3.419,0-5.122A5.831,5.831,0,0,0,30.2,59.5a3.394,3.394,0,0,0-2.95-1.84c-1.08-.061-2.178,0-3.259,0H20.244a4.121,4.121,0,0,0-2.329.544,3.659,3.659,0,0,0-1.568,2.924c-.119,1.772-.021,3.584-.017,5.359a4.784,4.784,0,0,0,0,.738c-.037-.22.089-.655.059-.449s-.065.4-.082.606a2.872,2.872,0,0,0,.122,1.034c.44,1.505,2,2.044,3.421,2.069a2,2,0,0,0,0-4Z"/><path class="d" d="M13.682,87.389c6.76,0,13.52-.022,20.28-.022,2.574,0,2.578-4,0-4-6.76,0-13.52.022-20.28.022-2.574,0-2.578,4,0,4Z"/><path class="d" d="M13.177,98.937c7.025-.207,14.055-.08,21.079.1,2.575.066,2.573-3.934,0-4-7.024-.181-14.054-.308-21.079-.1-2.568.076-2.579,4.076,0,4Z"/><path class="d" d="M88,112.6a17.514,17.514,0,0,1-.093-3.658q-.022-3.4-.047-6.807c-.029-4.112-.065-8.225-.082-12.338a8.517,8.517,0,0,1,.647-3.365c.4-.957,1.269-1.838,1.446-2.846a4.3,4.3,0,0,0,.037-1.436c-.092-.441.2-.3-.126-.031l-.882.514a8.067,8.067,0,0,1,1.914-.052l3.889,0,8.152,0a6.244,6.244,0,0,0,1.152,0c.048-.01.149.022.188,0-.53.312.839-2.464-.908-.682-.08.082,0,.707,0,.827a3.505,3.505,0,0,0,.273,1.83c.209.358.452.421.66.7a6.174,6.174,0,0,1,.872,2.132,17.331,17.331,0,0,1,.334,4.55q.01,7.736.023,15.469c0,1.513.092,3.058-.016,4.568a5.588,5.588,0,0,1-.64,2.431,2.257,2.257,0,0,0-.209.318c-.188.419-.228.087.061.045.144-.021.058,0,.012,0-.56.034-1.13.011-1.692.016l-13.419.131,1.01.273A4.349,4.349,0,0,1,88,112.6c-.745-2.457-4.607-1.409-3.857,1.063.711,2.344,2.977,5.167,5.621,5.249,1.485.046,2.983-.029,4.468-.043,3.475-.034,6.985.077,10.456-.1,5.026-.26,4.767-6.862,4.762-10.56q-.01-6.784-.02-13.57c0-1.68.014-3.361-.007-5.04-.031-2.424-.713-5.891-2.722-7.473l.586,1.414c0-1.578.17-3.457-1.341-4.449a4.694,4.694,0,0,0-2.748-.516l-6.82,0-6.606,0a3.889,3.889,0,0,0-2.818.709c-1.18,1.056-1.046,2.593-1.047,4.03l.273-1.009c-2.789,3.855-2.4,8.21-2.37,12.669q.046,6.883.095,13.766a22.749,22.749,0,0,0,.238,4.917C84.719,116.166,88.576,115.105,88,112.6Z"/><path class="d" d="M119.551,112.6a17.446,17.446,0,0,1-.094-3.658q-.023-3.4-.047-6.807c-.029-4.112-.065-8.225-.081-12.338a8.5,8.5,0,0,1,.647-3.365c.4-.957,1.269-1.838,1.446-2.846a4.3,4.3,0,0,0,.036-1.436c-.092-.441.2-.3-.125-.031l-.883.514a8.076,8.076,0,0,1,1.915-.052l3.889,0,8.152,0a6.244,6.244,0,0,0,1.152,0c.048-.01.148.022.187,0-.529.312.839-2.464-.908-.682-.08.082,0,.707,0,.827a3.505,3.505,0,0,0,.273,1.83c.21.358.452.421.661.7a6.172,6.172,0,0,1,.871,2.132,17.289,17.289,0,0,1,.334,4.55q.011,7.736.023,15.469c0,1.513.092,3.058-.016,4.568a5.561,5.561,0,0,1-.64,2.431,2.313,2.313,0,0,0-.208.318c-.189.419-.229.087.061.045.144-.021.057,0,.012,0-.561.034-1.131.011-1.692.016l-13.419.131,1.009.273a4.347,4.347,0,0,1-2.555-2.587c-.745-2.457-4.608-1.409-3.857,1.063.711,2.344,2.977,5.167,5.62,5.249,1.485.046,2.984-.029,4.469-.043,3.475-.034,6.985.077,10.456-.1,5.025-.26,4.767-6.862,4.762-10.56l-.021-13.57c0-1.68.015-3.361-.007-5.04-.031-2.424-.713-5.891-2.722-7.473l.586,1.414c0-1.578.17-3.457-1.34-4.449a4.7,4.7,0,0,0-2.748-.516l-6.82,0-6.607,0a3.886,3.886,0,0,0-2.817.709c-1.18,1.056-1.046,2.593-1.047,4.03l.273-1.009c-2.79,3.855-2.4,8.21-2.37,12.669q.045,6.883.095,13.766a22.686,22.686,0,0,0,.238,4.917C116.274,116.166,120.132,115.105,119.551,112.6Z"/><path class="d" d="M151.106,112.6a17.514,17.514,0,0,1-.093-3.658q-.023-3.4-.047-6.807c-.029-4.112-.065-8.225-.082-12.338a8.534,8.534,0,0,1,.647-3.365c.4-.957,1.27-1.838,1.446-2.846a4.3,4.3,0,0,0,.037-1.436c-.092-.441.2-.3-.125-.031l-.883.514a8.067,8.067,0,0,1,1.914-.052l3.889,0,8.152,0a6.244,6.244,0,0,0,1.152,0c.048-.01.149.022.188,0-.53.312.839-2.464-.908-.682-.08.082,0,.707,0,.827a3.505,3.505,0,0,0,.273,1.83c.209.358.452.421.66.7a6.155,6.155,0,0,1,.872,2.132,17.289,17.289,0,0,1,.334,4.55q.01,7.736.023,15.469c0,1.513.092,3.058-.016,4.568a5.574,5.574,0,0,1-.64,2.431,2.207,2.207,0,0,0-.208.318c-.189.419-.229.087.061.045.143-.021.057,0,.011,0-.56.034-1.13.011-1.691.016l-13.42.131,1.01.273a4.349,4.349,0,0,1-2.556-2.587c-.745-2.457-4.607-1.409-3.857,1.063.711,2.344,2.977,5.167,5.621,5.249,1.485.046,2.983-.029,4.469-.043,3.475-.034,6.985.077,10.455-.1,5.026-.26,4.768-6.862,4.762-10.56q-.009-6.784-.02-13.57c0-1.68.015-3.361-.007-5.04-.031-2.424-.713-5.891-2.722-7.473l.586,1.414c0-1.578.17-3.457-1.341-4.449a4.691,4.691,0,0,0-2.747-.516l-6.821,0-6.606,0a3.889,3.889,0,0,0-2.818.709c-1.18,1.056-1.046,2.593-1.047,4.03l.273-1.009c-2.789,3.855-2.4,8.21-2.37,12.669q.047,6.883.1,13.766a22.685,22.685,0,0,0,.237,4.917C147.83,116.166,151.687,115.105,151.106,112.6Z"/><path class="d" d="M172.443,41.353c-4.751-.026-9.5-.012-14.256-.014q-15.3-.009-30.6-.015L91.27,41.31Q75.4,41.3,59.529,41.3q-8.4,0-16.8-.014h-.512c-2.574-.014-2.577,3.986,0,4,4.741.024,9.482.011,14.222.013l30.581.015,36.319.014q15.877.006,31.755.014,8.415,0,16.828.014l.517,0c2.575.014,2.578-3.986,0-4Z"/><path class="d" d="M129.55,11.844c4.155-.06,8.318-.126,12.473-.051a2.018,2.018,0,0,0,2-2,2.038,2.038,0,0,0-2-2c-4.155-.075-8.318-.009-12.473.051a2,2,0,0,0,0,4Z"/><path class="i" d="M152.5,23.69c0-.907,0-1.817,0-2.723-1.507-.782-3.6-1.459-8.82-.579a20.194,20.194,0,0,0-9.047,3.671,11.861,11.861,0,0,0-3.842,7.284c-.458,3.519.528,8.244,2.349,10.138l.127.18c6.382-.005,12.177-.014,19.254-.012C152.512,38.587,152.505,31.242,152.5,23.69Z"/><path class="d" d="M153.506,19.24a12.125,12.125,0,0,0-5.795-1.265,27.831,27.831,0,0,0-8.87,1.594,15.1,15.1,0,0,0-7.834,5.613,14.68,14.68,0,0,0-2.315,8.715,19.162,19.162,0,0,0,.863,5.04,13.381,13.381,0,0,0,.994,2.35,7.784,7.784,0,0,0,.483.754c.146.2.3.4.461.594.267.327-.27-.408.043.036a2.054,2.054,0,0,0,2.736.717,2.016,2.016,0,0,0,.718-2.736,10.225,10.225,0,0,1-1.671-3.076,15.3,15.3,0,0,1-.641-4.662,9.581,9.581,0,0,1,3.815-7.759,20.269,20.269,0,0,1,9.134-3.042,17.6,17.6,0,0,1,3.848-.056,8.132,8.132,0,0,1,1.249.307c.1.033.746.3.25.081.174.078.344.162.513.249,2.288,1.169,4.314-2.281,2.019-3.454Z"/><path class="d" d="M122.869,4q12.405,0,24.81.02l4.8,0-2-2q0,15.981.025,31.963,0,3.831.009,7.663l2-2q-14.8,0-29.606.019l2,2q0-16.917-.037-33.835,0-2.916,0-5.833c0-2.574-4-2.578-4,0q0,15.77.036,31.54,0,4.064.006,8.128a2.029,2.029,0,0,0,2,2q14.8,0,29.606-.019a2.028,2.028,0,0,0,2-2q-.03-17.38-.031-34.76,0-2.433,0-4.866a2.029,2.029,0,0,0-2-2Q139.592.023,126.7,0q-1.914,0-3.83,0C120.3,0,120.291,4,122.869,4Z"/><path class="j" d="M129.222,21.037a.785.785,0,0,1,.031-.771c1.2-1.878,3.806-3.261,7.315-3.172a7.422,7.422,0,0,1,6.943,4.646c-1.83,2.233-4.13,4.9-7.96,4.277A8.308,8.308,0,0,1,129.222,21.037Z"/><path class="d" d="M131.151,20.505q-.4,1.139-.127.7c.029-.045.059-.089.091-.133.083-.115.06-.088-.067.082l.107-.126c.2-.2.4-.4.6-.6.265-.248-.1.059.083-.068.126-.085.25-.172.379-.252a7.786,7.786,0,0,1,.836-.446c-.254.117.064-.025.166-.062q.242-.087.488-.162c.344-.1.693-.178,1.045-.25l.22-.037c-.121.013-.11.012.032,0,.194-.023.39-.037.585-.048a11.348,11.348,0,0,1,1.181-.007c.135.007.269.019.4.029.6.045-.326-.09.258.039.32.071.638.139.95.238.124.039.245.083.367.126.54.191-.273-.167.228.1.253.137.506.269.747.426.134.087.268.175.392.274-.256-.2.069.075.113.115a7.408,7.408,0,0,1,.671.7c.087.105.083.1-.01-.016l.115.163c.09.142.184.28.27.426a8.622,8.622,0,0,1,.507,1.024l.312-2.423c-.426.519-.855,1.036-1.315,1.526-.258.276-.524.544-.8.8-.117.106-.236.209-.356.311-.092.078-.343.257-.118.1a8.278,8.278,0,0,1-.965.6c-.04.021-.485.224-.282.141s-.262.087-.305.1c-.189.059-.381.1-.573.149-.514.135.27.021-.277.041a8.982,8.982,0,0,1-1.054-.009,8.874,8.874,0,0,1-1.076-.244c-.17-.05-.339-.108-.506-.168-.131-.051-.131-.048,0,.01-.092-.04-.182-.082-.271-.127a7.432,7.432,0,0,1-.911-.527c-.072-.048-.479-.381-.176-.123-.112-.1-.224-.191-.331-.291a8.294,8.294,0,0,1-.65-.676c-.067-.078-.361-.475-.1-.109-.078-.108-.156-.215-.231-.325a12.873,12.873,0,0,1-.852-1.476,2,2,0,0,0-3.454,2.019,10.443,10.443,0,0,0,8.023,5.969,8.34,8.34,0,0,0,5.694-1.288,17.053,17.053,0,0,0,3.713-3.573,2.135,2.135,0,0,0,.312-2.424,9.609,9.609,0,0,0-9.164-5.639,11.722,11.722,0,0,0-5.714,1.476c-1.632.954-3.809,2.887-3.065,5a2.049,2.049,0,0,0,2.46,1.4A2.017,2.017,0,0,0,131.151,20.505Z"/><path class="d" d="M88.069,11.844c4.155-.06,8.318-.126,12.473-.051a2.018,2.018,0,0,0,2-2,2.039,2.039,0,0,0-2-2c-4.155-.075-8.318-.009-12.473.051a2,2,0,0,0,0,4Z"/><path class="i" d="M111.017,23.69c0-.907,0-1.817,0-2.723-1.507-.782-3.6-1.459-8.82-.579a20.2,20.2,0,0,0-9.048,3.671,11.859,11.859,0,0,0-3.841,7.284c-.458,3.519.528,8.244,2.349,10.138l.127.18c6.382-.005,12.177-.014,19.254-.012C111.03,38.587,111.023,31.242,111.017,23.69Z"/><path class="d" d="M112.024,19.24a12.121,12.121,0,0,0-5.794-1.265,27.832,27.832,0,0,0-8.871,1.594,15.107,15.107,0,0,0-7.834,5.613A14.686,14.686,0,0,0,87.211,33.9a19.121,19.121,0,0,0,.863,5.04,13.381,13.381,0,0,0,.994,2.35,7.421,7.421,0,0,0,.483.754c.146.2.3.4.46.594.268.327-.27-.408.044.036a2.054,2.054,0,0,0,2.736.717,2.015,2.015,0,0,0,.717-2.736,10.2,10.2,0,0,1-1.67-3.076,15.265,15.265,0,0,1-.642-4.662,9.582,9.582,0,0,1,3.816-7.759,20.269,20.269,0,0,1,9.133-3.042,17.6,17.6,0,0,1,3.848-.056,8.145,8.145,0,0,1,1.25.307c.1.033.746.3.25.081.173.078.343.162.512.249,2.288,1.169,4.315-2.281,2.019-3.454Z"/><path class="d" d="M81.388,4q12.405,0,24.809.02,2.4,0,4.8,0l-2-2q0,15.981.024,31.963,0,3.831.01,7.663l2-2q-14.8,0-29.607.019l2,2q0-16.917-.036-33.835,0-2.916,0-5.833c0-2.574-4-2.578-4,0q0,15.77.036,31.54,0,4.064,0,8.128a2.029,2.029,0,0,0,2,2q14.8,0,29.607-.019a2.028,2.028,0,0,0,2-2q-.031-17.38-.031-34.76,0-2.433,0-4.866a2.03,2.03,0,0,0-2-2Q98.11.023,85.218,0l-3.83,0C78.814,0,78.81,4,81.388,4Z"/><path class="j" d="M87.952,21.113a.785.785,0,0,1,.031-.771c1.2-1.877,3.806-3.261,7.315-3.172a7.42,7.42,0,0,1,6.942,4.646c-1.829,2.233-4.129,4.895-7.959,4.277A8.308,8.308,0,0,1,87.952,21.113Z"/><path class="d" d="M89.881,20.581q-.4,1.139-.127.7c.029-.045.059-.089.09-.133q.125-.173-.066.082l.107-.126c.2-.2.395-.4.6-.6.264-.248-.1.059.083-.067.126-.086.25-.173.379-.252a7.62,7.62,0,0,1,.836-.447c-.254.117.063-.025.166-.062q.242-.087.488-.162c.344-.1.693-.178,1.045-.25l.22-.037c-.121.013-.11.012.032,0,.194-.023.39-.037.585-.048a11.629,11.629,0,0,1,1.181-.007c.135.007.269.019.4.029.6.045-.326-.09.258.039.32.071.638.139.95.238.123.039.245.083.367.126.539.191-.273-.167.228.1.253.137.506.269.747.426.133.087.268.175.392.274-.256-.2.069.076.113.115a7.392,7.392,0,0,1,.67.7q.131.157-.009-.016l.115.163c.09.142.184.281.27.426a8.615,8.615,0,0,1,.506,1.024l.313-2.423c-.426.519-.856,1.036-1.315,1.526-.258.276-.524.544-.8.8-.117.106-.236.209-.356.311-.092.078-.343.258-.118.1a8.278,8.278,0,0,1-.965.6c-.04.021-.485.224-.282.141s-.262.087-.3.1c-.189.059-.381.1-.573.149-.514.135.27.021-.277.041a9,9,0,0,1-1.055-.009,8.9,8.9,0,0,1-1.075-.244c-.17-.05-.339-.108-.506-.168-.131-.051-.131-.048,0,.01-.092-.04-.182-.082-.272-.127a7.5,7.5,0,0,1-.91-.527c-.072-.048-.479-.381-.177-.123-.112-.1-.223-.191-.331-.291a8.281,8.281,0,0,1-.649-.676c-.067-.078-.361-.475-.1-.109-.078-.108-.156-.215-.231-.325a12.873,12.873,0,0,1-.852-1.476,2,2,0,0,0-3.454,2.019,10.443,10.443,0,0,0,8.023,5.969A8.34,8.34,0,0,0,99.942,26.8a17.053,17.053,0,0,0,3.713-3.573,2.135,2.135,0,0,0,.312-2.424A9.609,9.609,0,0,0,94.8,15.167a11.722,11.722,0,0,0-5.714,1.476c-1.632.954-3.809,2.887-3.065,5a2.049,2.049,0,0,0,2.46,1.4A2.019,2.019,0,0,0,89.881,20.581Z"/><path class="d" d="M155.086,91.124c3.09,0,6.18-.052,9.271-.054a2,2,0,0,0,0-4c-3.091,0-6.181.052-9.271.054a2,2,0,0,0,0,4Z"/><path class="d" d="M123.531,91.124c3.09,0,6.18-.052,9.27-.054a2,2,0,0,0,0-4c-3.09,0-6.18.052-9.27.054a2,2,0,0,0,0,4Z"/><path class="d" d="M91.975,91.124c3.09,0,6.18-.052,9.271-.054a2,2,0,0,0,0-4c-3.091,0-6.181.052-9.271.054a2,2,0,0,0,0,4Z"/><path class="k" d="M300.326,189.805c.762-.171.779-1.379.67-2.126-1.313-8.964-1.855-19.281-2.744-29.355-.581-6.582-2.432-29.964-3.259-36.519-1.246-9.862-2.445-16.666-5.624-25.325-.366-1-.855-2.135-1.265-3.119-.513-1.23-3.438-8.254-3.556-8.667-.444-1.555-1.815-1.8-2.889-2a4.579,4.579,0,0,0-2.7.676c-6.723,3.293-13.443,6.213-20.48,9.176-.4.17-.873.309-1.042.669-.1.216-.125.933-.236,1.294-.9,2.708-3.092,10.9-3.927,15.361a216.958,216.958,0,0,0-3.387,25.269c-1.112,16-1.667,35.111-1.112,55.666.039,1.416,1.928,2.9,3.443,3.113C264.622,195.657,286.033,193.013,300.326,189.805Z"/><path class="d" d="M300.858,191.734c2.9-1.192,2.1-4.167,1.783-6.651-.376-2.942-.672-5.894-.935-8.848-.539-6.063-.951-12.137-1.48-18.2-.61-7-1.164-14-1.77-21-.66-7.611-1.323-15.216-2.508-22.767a96.207,96.207,0,0,0-3.6-15.3c-1.242-3.759-2.842-7.379-4.351-11.035-.5-1.2-1.014-2.394-1.467-3.611a5.145,5.145,0,0,0-4.343-3.558c-2.889-.474-5.814,1.653-8.326,2.831q-4.191,1.967-8.437,3.813c-2.768,1.21-5.752,2.2-8.422,3.6-1.7.9-1.822,3.158-2.319,4.859-1.217,4.166-2.325,8.387-3.186,12.642a242.628,242.628,0,0,0-4.155,35.425q-.923,17.535-.777,35.105.035,4.766.145,9.529a9.143,9.143,0,0,0,.557,4.089,6.393,6.393,0,0,0,2.683,2.567c1.917,1.007,4.439.977,6.561,1.1,2.206.131,4.416.159,6.625.125a186.978,186.978,0,0,0,31.045-3.365q3.348-.618,6.673-1.358c2.511-.561,1.448-4.418-1.064-3.857A198.168,198.168,0,0,1,272.369,192a124.619,124.619,0,0,1-13.677.429,50.775,50.775,0,0,1-5.753-.415,3.209,3.209,0,0,1-1.962-.976,1.351,1.351,0,0,1-.252-.394c.206.5.03-.431.026-.583q-.032-1.237-.059-2.475-.363-16.828.218-33.659a303.431,303.431,0,0,1,2.31-31.57c.782-5.572,1.686-11.152,3-16.626q.82-3.419,1.76-6.807c.262-.944.529-1.887.813-2.825a16.522,16.522,0,0,1,.543-2.106l-.717.717a20.922,20.922,0,0,1,3.545-1.57q2.208-.937,4.409-1.894,4.139-1.8,8.236-3.692,1.939-.9,3.867-1.83c1.032-.5,2.05-1.247,3.227-.941.926.241,1.035,1.272,1.371,2.1,1.221,3,2.5,5.967,3.713,8.967a81.707,81.707,0,0,1,4.228,14.528,211,211,0,0,1,2.888,22.648c.661,7.413,1.263,14.831,1.888,22.246q.633,7.53,1.225,15.063c.259,3.278.529,6.555.863,9.826.168,1.644.352,3.286.562,4.925q.145,1.136.3,2.27c.031.223.045.5.09.733.1.506-.217.5.1.212l.882-.515-.227.094a2.065,2.065,0,0,0-1.4,2.46A2.013,2.013,0,0,0,300.858,191.734Z"/><path class="d" d="M248.027,193.9c-5.29,24.126-11.5,48.043-16.628,72.2-3.2,15.064-6.444,30.149-9.187,45.3a4.4,4.4,0,0,0-.142,1.87,2.451,2.451,0,0,0,1.484,1.52,39.2,39.2,0,0,0,5.425,1.875,140.458,140.458,0,0,0,16.436,4.021,2.047,2.047,0,0,0,2.46-1.4c4.907-18.008,9.306-36.244,15.5-53.87,4.686-13.335,10.991-26.122,17.168-38.813,2.907-5.972,5.884-11.911,8.731-17.912,1.1-2.314-2.35-4.346-3.454-2.019-5.628,11.865-11.611,23.556-17.074,35.5-2.966,6.485-5.842,13.027-8.333,19.711-3.039,8.155-5.471,16.557-7.85,24.924-2.967,10.439-5.693,20.945-8.546,31.416l2.46-1.4A137.478,137.478,0,0,1,232.8,313.62c-1.821-.513-3.638-1.048-5.433-1.646-.615-.2-1.222-.424-1.829-.65-.278-.1-.169-.081.039.022-.067-.033-.194-.056-.24-.111-.255-.308-.072-.093.08.1l.514,1.946c1.855-11.129,4.358-22.182,6.638-33.229,3.344-16.2,7-32.317,10.831-48.411,2.9-12.208,5.8-24.417,8.488-36.673.55-2.509-3.3-3.581-3.857-1.064Z"/><path class="d" d="M296.4,197.546q.831,7.961,1.552,15.932c.6,6.608.973,13.295,2.373,19.8a46.17,46.17,0,0,0,3.258,10.029,89.489,89.489,0,0,0,5.393,9.168q5.874,9.384,11.839,18.713c4.538,7.141,9.072,14.284,13.529,21.477l.313-2.424a218.733,218.733,0,0,1-19.444,14.285l2.424.312a572.711,572.711,0,0,1-36.048-50.094c-2.7-4.224-6.086-8.836-6.89-13.912a2.014,2.014,0,0,0-2.46-1.4,2.049,2.049,0,0,0-1.4,2.46,25.173,25.173,0,0,0,2.365,6.543,58.322,58.322,0,0,0,3.54,6.135c2.891,4.6,5.894,9.13,8.956,13.618q9.449,13.848,19.583,27.214c3.12,4.128,6.281,8.228,9.522,12.262a2,2,0,0,0,2.424.313,228.149,228.149,0,0,0,20.253-14.91,2.013,2.013,0,0,0,.313-2.424c-7.759-12.521-15.752-24.894-23.6-37.363-1.912-3.042-3.908-6.054-5.695-9.172a37.57,37.57,0,0,1-3.76-9.5c-1.593-6.228-2.028-12.629-2.6-19.01q-.815-9.033-1.744-18.055a2.058,2.058,0,0,0-2-2,2.014,2.014,0,0,0-2,2Z"/><path class="a" d="M189.457,161.6c.046-.135.095-.263.148-.382,1.25-2.808,1.944-5.035,3.7-7.555a11.375,11.375,0,0,1,7.1-4.756,16.81,16.81,0,0,1,7.271.533c3.371,1.037,8.074,2.556,13.185,3.926l3.149.055c.585,3.5,1.321,7.57,2.129,11.2-3.139,1.338-6.759,2.889-6.759,2.889a11.534,11.534,0,0,1-9.634.265c-2.014-.7-3.947-1.4-5.588.364a15.927,15.927,0,0,0-2.037,3.3c-.522.87-1.153,1.215-2.537,1-.628-.1-1.087-1.13-1.13-2.055a23.552,23.552,0,0,1,.029-2.721l-1.343.965a3.245,3.245,0,0,1-3.461.92c-1.214-.641-1.342-2.715-.483-4.546l-1.149.363a2.342,2.342,0,0,1-2.593-.963A3.852,3.852,0,0,1,189.457,161.6Z"/><path class="d" d="M196.614,166.139c-.257,2.5-.905,7.425,2.441,8.234a4.353,4.353,0,0,0,4.061-.961,16.752,16.752,0,0,0,1.967-3.206,1.894,1.894,0,0,1,2.058-1.121c1.436.227,2.786.931,4.206,1.251a13.9,13.9,0,0,0,8.568-.889,2.065,2.065,0,0,0,1.4-2.46,2.015,2.015,0,0,0-2.461-1.4,10.4,10.4,0,0,1-6.441.889c-2.4-.547-4.844-2-7.365-1.2a6.206,6.206,0,0,0-3.109,2.458c-.631.88-.987,1.92-1.606,2.8-.157.225-.032.017.028-.009.166-.072.258.024-.139-.024-.742-.088.3.338.339.275.013-.025-.1-.529-.109-.59a20.494,20.494,0,0,1,.165-4.051,2.013,2.013,0,0,0-2-2,2.046,2.046,0,0,0-2,2Z"/><path class="d" d="M221.4,151.442c-4.323-1.166-8.584-2.523-12.865-3.828-4.232-1.289-9.151-1.4-12.957,1.131s-5.552,6.434-7.269,10.483c-.791,1.868-1.65,3.918-.7,5.915a4.3,4.3,0,0,0,4.972,2.156c2.487-.658,1.432-4.517-1.063-3.857a.48.48,0,0,1-.362-.048c-.206-.18.075.126.026-.094a2.919,2.919,0,0,1,.334-1.485c.6-1.537,1.254-3.089,1.994-4.563,1.438-2.865,3.591-5.532,6.858-6.3,3.195-.748,6.336.278,9.358,1.219,3.52,1.095,7.047,2.165,10.607,3.125,2.488.671,3.55-3.187,1.063-3.857Z"/><path class="d" d="M195.261,156.505a45.728,45.728,0,0,0-2.781,5.134q-.3.655-.584,1.319-.183.429-.363.86c-.054.128-.107.256-.16.385-.088.209-.108.258-.058.146a8.4,8.4,0,0,0-.669,3c0,1.924,1.062,3.992,3.13,4.307a5.2,5.2,0,0,0,5.094-2.015,2.015,2.015,0,0,0-.717-2.737,2.049,2.049,0,0,0-2.737.718c.436-.656.061,0,0-.045-.012-.009.408-.247.006-.042-.115.058-.4.141,0,.019-.125.037-.246.085-.371.12s-.256.054-.382.086c.469-.12.05-.034-.075-.018-.362.046.24.076.041.024-.3-.077-.12-.031.056.058-.321-.162.179.189.021.027s.2.338.016.018c-.211-.366.061.368-.027-.07-.011-.058-.091-.494-.056-.208s0-.184,0-.242c0-.15.014-.3.022-.448.012-.209-.069.242.031-.118.052-.188.1-.378.155-.566.113-.408-.1.195.116-.325.089-.209.174-.418.26-.628,0,.008.2-.474.14-.337-.068.161.126-.29.144-.332q.432-.992.907-1.965a45.443,45.443,0,0,1,2.294-4.108,2.018,2.018,0,0,0-.717-2.736,2.043,2.043,0,0,0-2.737.717Z"/><path class="d" d="M198.9,169.394q.18-.522.38-1.039l.1-.255c.011-.026.184-.441.056-.139-.115.271.01-.021.033-.074.036-.083.073-.165.11-.248q.454-1.013,1-1.982.526-.939,1.13-1.833c.215-.32.438-.635.666-.946.109-.148.22-.294.33-.44.164-.218-.23.289-.058.077.073-.091.144-.182.216-.273a2.166,2.166,0,0,0,.586-1.414,2,2,0,0,0-3.414-1.414,29.685,29.685,0,0,0-4.992,8.917,2.012,2.012,0,0,0,1.4,2.46,2.049,2.049,0,0,0,2.461-1.4Z"/><path class="k" d="M260.284,129.944a74.748,74.748,0,0,1-2.2,10.058c-11.8,3-22.964,5.779-34.129,8.544a1.03,1.03,0,0,0-.776,1.175c.932,4.816,2.131,12.408,3.771,17.994a1,1,0,0,0,1.119.7c15.051-2.348,26.6-4.768,40.413-9.35a21.83,21.83,0,0,0,10.5-6.95,19.528,19.528,0,0,0,2.78-6.456c3.227-11.307,4.066-15.683,4.7-27.311-.006-4.471-.1-8.948-1.972-12.988a11.855,11.855,0,0,0-9.8-5.5c-5.106,0-8.638,3.034-10.638,7.256a25.888,25.888,0,0,0-2.259,9.148C261.25,121.429,260.926,125.666,260.284,129.944Z"/><path class="d" d="M258.355,129.412a79.784,79.784,0,0,1-2.2,10.058l1.4-1.4q-12.067,3.071-24.155,6.07l-5.9,1.465c-1.647.408-4.244.567-5.486,1.841-1.314,1.349-.689,3.162-.392,4.774.3,1.638.6,3.278.9,4.916.664,3.544,1.361,7.094,2.342,10.566a3.248,3.248,0,0,0,3.973,2.6c2-.3,3.991-.636,5.983-.975,7.329-1.246,14.619-2.725,21.807-4.633q5.476-1.453,10.868-3.208a29.686,29.686,0,0,0,9.194-4.419,17.433,17.433,0,0,0,6.2-8.292,109.3,109.3,0,0,0,5.518-29.264,37.626,37.626,0,0,0-.936-11.794,12.635,12.635,0,0,0-2.435-4.991,13.591,13.591,0,0,0-3.891-3.171,13.313,13.313,0,0,0-17.224,3.9c-4.371,5.892-4.19,13.853-4.928,20.818-.182,1.718-.382,3.433-.635,5.141a2.066,2.066,0,0,0,1.4,2.461,2.015,2.015,0,0,0,2.46-1.4c.409-2.762.716-5.535.994-8.313.3-2.967.424-6.01,1-8.938.813-4.158,2.667-8.889,6.857-10.673s10.317.072,12.019,4.561c2,5.275,1.471,11.331,1.02,16.833a85.6,85.6,0,0,1-2.187,13.507c-.649,2.639-1.377,5.259-2.13,7.87a15.168,15.168,0,0,1-3.352,6.7c-3.83,3.946-8.94,5.33-14.037,6.874q-7.93,2.4-16.035,4.158c-3.085.672-6.183,1.277-9.29,1.837q-2.441.438-4.887.843-1.379.23-2.76.45a6.78,6.78,0,0,0-.937.148q-1.11.029.291.49l-.1-.365a10.972,10.972,0,0,0-.593-2.279q-.242-.993-.463-1.991c-.348-1.561-.664-3.129-.967-4.7-.277-1.444-.542-2.89-.806-4.336q-.181-1-.364-2c-.042-.227-.085-.455-.127-.683l-.123-.657q-.092-.768-.15.262l-.883.515a40.289,40.289,0,0,1,5.726-1.468l5.677-1.411q5.859-1.458,11.714-2.929,2.922-.733,5.845-1.473l3.075-.779a11.293,11.293,0,0,0,2.862-.807c.969-.567,1.112-1.847,1.376-2.831q.387-1.448.717-2.91c.409-1.825.742-3.664,1.024-5.512a2.063,2.063,0,0,0-1.4-2.46A2.015,2.015,0,0,0,258.355,129.412Z"/><path class="d" d="M241.043,322.166a36.328,36.328,0,0,1-6.151,1.022,42.943,42.943,0,0,1-6.706.285,6.044,6.044,0,0,1-2.695-.651,2.032,2.032,0,0,1-.911-1.031c-.087-.268-.139-.539-.2-.814-.113-.512.053.431-.009-.049-.022-.174-.039-.347-.064-.52a3.555,3.555,0,0,0-2.44-2.952c-2.3-.789-4.86.026-6.813,1.3-1.076.7-2.094,1.491-3.168,2.2a21.219,21.219,0,0,1-4.048,1.933c-2.486.976-4.993,1.9-7.475,2.885-2.044.812-4.461,1.61-6.032,3.226-3.4,3.5-2.195,8.892,1.518,11.606,1.953,1.427,4.3,1.675,6.626,1.942,2.439.28,4.889.469,7.337.654,8.649.652,17.371,1.675,26.054,1.24,3.7-.185,8.578-.314,10.383-4.145,1.428-3.033,1.2-6.619.9-9.878-.29-3.133-1.458-6.666-4.567-8.052a2.063,2.063,0,0,0-2.736.718,2.015,2.015,0,0,0,.718,2.736c2.3,1.024,2.563,3.772,2.67,5.991.118,2.435.55,5.516-1.08,7.587.291-.37-.132,0,.136-.172a5.187,5.187,0,0,1-.584.323c.407-.193-.379.122-.514.162-.326.1-.658.178-.992.249a27.809,27.809,0,0,1-4.63.5c-7.783.351-15.556-.5-23.307-1.073-2.321-.17-4.642-.338-6.96-.549a27.268,27.268,0,0,1-5.732-.778c-2.765-.883-4.623-4.706-2.075-6.535a23.276,23.276,0,0,1,5.252-2.4c2.436-.937,4.884-1.848,7.3-2.829a20.787,20.787,0,0,0,3.472-1.631c1.116-.715,2.17-1.519,3.268-2.26a6.716,6.716,0,0,1,2.22-1.123,7.925,7.925,0,0,1,1.342-.1c.038,0,.316.1.324.088-.08.15-.421-.462-.322-.465a18.118,18.118,0,0,0,.366,2.058,6.1,6.1,0,0,0,1.406,2.381c1.63,1.679,4.065,2.154,6.311,2.249a47.2,47.2,0,0,0,7.149-.371,40.8,40.8,0,0,0,6.518-1.091c2.474-.7,1.423-4.557-1.064-3.857Z"/><path class="d" d="M335.623,296.576a32.913,32.913,0,0,1-2.54,5.567,36.613,36.613,0,0,1-3.487,5.641,5.745,5.745,0,0,1-2.616,2.05,2.9,2.9,0,0,1-2.083-.164,4.271,4.271,0,0,0-5.935,2.114c-1.324,2.238-1.08,4.585-.9,7.062.112,1.515-.007,2.95-.041,4.459-.032,1.434.051,2.87-.048,4.3-.153,2.2-.984,3.478-1.944,5.537-.834,1.789-1.9,3.85-1.228,5.855,1.5,4.465,7.2,4.706,11.047,3.909,5.308-1.1,8.717-4.807,11.9-8.936,5.615-7.285,11.64-14.494,15.931-22.674a21.909,21.909,0,0,0,2.249-5.517,5.935,5.935,0,0,0-1.865-5.8c-2.106-2.135-5.11-3.379-7.826-4.538-3.036-1.294-6.743-1.915-9.7-.061-2.176,1.365-.171,4.827,2.019,3.454,2.048-1.285,4.7-.4,6.713.528,2.116.978,4.653,1.9,6.212,3.709a5.212,5.212,0,0,1,.353.458c.011.016.66.837.313.507-.021-.02-.02-.123-.022-.046,0,.136-.067.873.008.384a8.141,8.141,0,0,1-.227.989,21.031,21.031,0,0,1-1.817,4.17c-3.9,7.327-9.236,13.638-14.165,20.261-2.585,3.474-5.32,7.518-9.648,8.87a11.537,11.537,0,0,1-5.224.535,4.115,4.115,0,0,1-1.934-.727,3.575,3.575,0,0,1-.364-.4c-.111-.17-.205-.771-.194-.356-.013-.46-.1.156.013-.128.068-.172.1-.376.15-.554.11-.355.243-.706.387-1.048.387-.92.848-1.811,1.283-2.709a14.742,14.742,0,0,0,1.6-6.087c.058-1.169.008-2.339.019-3.508.012-1.355.174-2.673.1-4.03-.105-1.912-.768-4.277.382-5.992a2.073,2.073,0,0,1,.325-.409c.162-.148-.411-.287.229-.021.257.106.516.209.778.3a7.364,7.364,0,0,0,2.655.408c2.792-.124,4.933-1.975,6.547-4.1a43.659,43.659,0,0,0,3.744-6.127,37.256,37.256,0,0,0,2.7-6.064c.771-2.462-3.089-3.516-3.857-1.064Z"/><path class="d" d="M239.953,317.784a22.974,22.974,0,0,0-1.173,6.416,2.016,2.016,0,0,0,2,2,2.043,2.043,0,0,0,2-2q.039-.946.161-1.884l-.071.532a21.106,21.106,0,0,1,.94-4,2.014,2.014,0,0,0-1.4-2.461,2.049,2.049,0,0,0-2.46,1.4Z"/><path class="d" d="M223.814,321.182a22.865,22.865,0,0,0,3.812-6.64,2.013,2.013,0,0,0-.2-1.541,2,2,0,0,0-2.737-.718,2.3,2.3,0,0,0-.919,1.195q-.129.334-.268.666l.2-.478a21.992,21.992,0,0,1-2.84,4.851l.313-.4c-.063.081-.126.162-.19.242a2.171,2.171,0,0,0-.586,1.414,2.032,2.032,0,0,0,.586,1.414,2.01,2.01,0,0,0,1.414.586,1.936,1.936,0,0,0,1.414-.586Z"/><path class="d" d="M319.192,304.555c.219.4.431.814.631,1.229.1.218.206.437.3.658.033.074.065.149.1.224l-.106-.252a2.633,2.633,0,0,0,.161.4,13.131,13.131,0,0,1,.785,2.866l-.072-.532a7.666,7.666,0,0,1,.053,1.588,2.01,2.01,0,0,0,2,2,2.05,2.05,0,0,0,2-2c.222-2.857-1.07-5.75-2.4-8.2a2.019,2.019,0,0,0-2.737-.718,2.041,2.041,0,0,0-.717,2.736Z"/><path class="d" d="M332.74,294.179a7.31,7.31,0,0,0,1.539,2.733,12.66,12.66,0,0,0,1.623,1.61,2.132,2.132,0,0,0,1.414.586,2.036,2.036,0,0,0,1.414-.586,2.01,2.01,0,0,0,.586-1.414,1.975,1.975,0,0,0-.586-1.414,12.348,12.348,0,0,1-1.766-1.79l.313.405a5.632,5.632,0,0,1-.714-1.18l.2.478a3.691,3.691,0,0,1-.168-.491,2,2,0,0,0-2.46-1.4,2.025,2.025,0,0,0-1.195.919,2.1,2.1,0,0,0-.2,1.541Z"/><path class="d" d="M236.224,39.547l3.016-1.394a1.928,1.928,0,0,0,.955-1.993,1.486,1.486,0,0,0-.237-.743,2.027,2.027,0,0,0-1.2-.92l-.531-.071a1.991,1.991,0,0,0-1.01.273l-3.016,1.394a1.923,1.923,0,0,0-.954,1.992,1.486,1.486,0,0,0,.237.744,2.017,2.017,0,0,0,1.195.919l.532.072a1.987,1.987,0,0,0,1.009-.273Z"/></svg>