<?xml version="1.0" encoding="utf-8"?>
<!-- Uploaded to: SVG Repo, www.svgrepo.com, Generator: SVG Repo Mixer Tools -->
<svg width="800px" height="800px" viewBox="0 -71.44 424.077 424.077" xmlns="http://www.w3.org/2000/svg"><defs><style>.a{fill:#ffffff;}.b{fill:#7a7473;}.c{fill:#211715;}.d{fill:#f3736f;}.e{fill:#5394cf;}</style></defs><path class="a" d="M384.619,155.715a42.82,42.82,0,0,1,13.96,10.04c5.39,5.79,9.36,18.97,10.73,26.17,3.745,19.732,8.18,59.32,12.376,85.636a.987.987,0,0,1-.979,1.15c-25.1-.012-155.911.023-179.011.026a.988.988,0,0,1-.98-1.149c4.2-26.316,8.634-65.924,12.381-85.663,1.37-7.2,5.34-20.38,10.73-26.17a42.82,42.82,0,0,1,13.96-10.04l32.695,6.588a76.072,76.072,0,0,0,41.75.35h.01Z"/><path class="a" d="M367.283,148.743c-.4-.166-11.722-5.55-11.986-5.646-3.99-1.441-3.833-4.006-4.336-6.876a57.842,57.842,0,0,1-.845-7.663c10.045-4.929,18.052-18.692,19.477-22.557.26-.791.839-2.4,1.281-4.262,1.78-.26,4.15-.26,5.51-1.34a15.719,15.719,0,0,0,4.09-5.37,24.946,24.946,0,0,0,2.54-13.2,8.323,8.323,0,0,0-.87-3.35,5.881,5.881,0,0,0-4.23-2.81,6.111,6.111,0,0,0-2.962.3c.834-4.451-5.377-36.66-42.08-36.66-39.333,0-45.973,31.941-45.248,35.454,0,0,.115.559.3,1.423a6.329,6.329,0,0,0-3.536-.514,5.883,5.883,0,0,0-4.228,2.811,8.321,8.321,0,0,0-.87,3.344,24.907,24.907,0,0,0,2.54,13.2,15.824,15.824,0,0,0,4.094,5.373c1.385,1.1,3.341,2.355,5.825,1.734l.465-.118a42.687,42.687,0,0,0,8.257,16.424,40.345,40.345,0,0,0,13.456,10.885,54.262,54.262,0,0,1-.821,6.893c-.5,2.87-.346,5.435-4.336,6.876-.264.1-12.886,6-13.655,6.261,0,0,10.2,21.5,37.313,21.5S367.283,148.743,367.283,148.743Z"/><path class="b" d="M381.51,129.318c-6.5-2.254-11.933-6.7-13.87-13.676-.36-1.315-.742-2.607-1.037-3.915a36.914,36.914,0,0,0,2.99-5.726c.26-.791.84-2.407,1.28-4.261,1.784-.259,4.156-.258,5.508-1.337.091-.073.18-.148.269-.223,7.911,1.469,14.242,7.61,16.66,15.462.97,3.12,2.23,10.86-.2,12.56-2.5,1.75-8.66,2.07-10.96,1.33Q381.828,129.428,381.51,129.318Z"/><path class="b" d="M283.038,128.892c5.984-2.367,10.9-6.693,12.711-13.25.2-.73.41-1.46.61-2.18,0,0,.069-.248.19-.693a45.886,45.886,0,0,1-4.337-10.754c-.29.078-.464.122-.464.122-2.484.621-4.44-.629-5.825-1.734l-.05-.04a22.145,22.145,0,0,0-15.784,15.279c-.97,3.12-2.23,10.86.19,12.56,2.5,1.75,8.67,2.07,10.97,1.33Q282.156,129.239,283.038,128.892Z"/><path class="b" d="M283.755,44.239a44.351,44.351,0,0,1,10.755-17.13c6.29-6.1,19.37-13.09,35.31-13.09,19.36,0,27.86,4.04,38.2,14.14,7.98,7.78,12.95,21.83,13.84,34.37a52.938,52.938,0,0,1-1.4,14.2,6.04,6.04,0,0,0-2.613-1.058,6.233,6.233,0,0,0-4.983,1.458l-1.024.3c-.62-11.363-8.863-20.626-14.373-22.416a63.648,63.648,0,0,0-7.851-3.259c-3.1,3.154-6.949,7.272-11.162,8.709-1.728.59-16.041,3.913-17.8,3.411s-9.172,7.374-20.441,6.825a8.17,8.17,0,0,0-4.026.364c-2.962,1.458-3.379,6.8-7.36,5.689a6.291,6.291,0,0,0-4.513-1.08,5.611,5.611,0,0,0-1.133.291l-1.42-6.1A49.117,49.117,0,0,1,283.755,44.239Z"/><path class="c" d="M377.062,102.716c8.775,2.212,14.248,10.285,14.969,18.957a22.7,22.7,0,0,1,.051,2.881,3.035,3.035,0,0,1-.107.831,5.6,5.6,0,0,1-.189.7c.132-.366-.045.094-.116.211-.282.464.2-.091-.045.037-.336.174.559-.283-.139.058a4.884,4.884,0,0,1-.95.4,14.4,14.4,0,0,1-2.817.6,20.158,20.158,0,0,1-3.165.1,5.573,5.573,0,0,1-2.1-.379,23.239,23.239,0,0,1-5.991-3c-4.849-3.38-6.749-8.615-7.785-14.23a2.42,2.42,0,0,0-2.952-1.676,2.451,2.451,0,0,0-1.676,2.952c1.132,6.14,3.418,11.906,8.4,15.9,4.059,3.255,9.014,5.528,14.287,5.212,2.5-.151,5.46-.528,7.586-1.991,2.011-1.383,2.5-3.858,2.583-6.153a27.969,27.969,0,0,0-3.529-14.361,24.3,24.3,0,0,0-15.037-11.672c-3-.756-4.275,3.872-1.276,4.628Z"/><path class="c" d="M283.371,98.578c-10.363,3.615-16.543,13.607-16.878,24.34-.064,2.045.085,4.4,1.309,6.117,1.372,1.93,4.029,2.595,6.248,2.938a20.116,20.116,0,0,0,7.241.025,25.134,25.134,0,0,0,13.6-9.1,26.263,26.263,0,0,0,3.782-8.8c.833-2.98-3.8-4.252-4.629-1.276a23.8,23.8,0,0,1-2.519,6.508,16.832,16.832,0,0,1-4.028,4.37,21.9,21.9,0,0,1-5.545,3.048,10.4,10.4,0,0,1-4.968.732,13.805,13.805,0,0,1-5.081-1.094c-.7-.341.2.118-.138-.058-.265-.14.269.428-.044-.037-.044-.066-.218-.4-.036,0a2.943,2.943,0,0,1-.148-.436,7.529,7.529,0,0,1-.255-2.332,23.422,23.422,0,0,1,2.578-10.784,19.74,19.74,0,0,1,10.787-9.537,2.459,2.459,0,0,0,1.676-2.952,2.421,2.421,0,0,0-2.952-1.676Z"/><path class="c" d="M374.631,78.826a3.69,3.69,0,0,1,5.5.976,9.742,9.742,0,0,1,.57,4.209,21.676,21.676,0,0,1-.495,4.571,20.911,20.911,0,0,1-3.43,7.966,5.972,5.972,0,0,1-2.554,2.274,21.461,21.461,0,0,1-3.988.6,2.413,2.413,0,0,0-1.676,2.952,2.465,2.465,0,0,0,2.952,1.677,16.472,16.472,0,0,0,5.376-1.153,12.554,12.554,0,0,0,4.265-4.258,26.382,26.382,0,0,0,4.146-11.58c.484-3.87.541-8.871-2.614-11.684a8.688,8.688,0,0,0-11.448.053,2.419,2.419,0,0,0,0,3.394,2.451,2.451,0,0,0,3.394,0Z"/><path class="c" d="M369.036,97.8a20.882,20.882,0,0,1-1,5.228c-.2.655-.411,1.3-.632,1.952-.078.23-.485,1.21-.174.519a45.264,45.264,0,0,1-2.755,5.108A50.91,50.91,0,0,1,353.56,123.5a20.1,20.1,0,0,1-8.071,4.175c-3.007.7-1.734,5.327,1.276,4.628,6.318-1.466,11.582-6.06,15.711-10.859a56.493,56.493,0,0,0,8.779-13.244A28.3,28.3,0,0,0,373.836,97.8c.112-3.089-4.688-3.085-4.8,0Z"/><path class="c" d="M291.066,75.431a8.687,8.687,0,0,0-11.449-.051c-3.374,3.017-3.087,8.453-2.5,12.539,1.032,7.167,6.3,18.409,15.267,16.532,3.022-.632,1.743-5.26-1.276-4.628-2.238.468-4.37-1.637-5.582-3.276a21.075,21.075,0,0,1-3.48-8.178,21.563,21.563,0,0,1-.449-4.359,9.742,9.742,0,0,1,.571-4.206,3.691,3.691,0,0,1,5.5-.979,2.465,2.465,0,0,0,3.394,0,2.42,2.42,0,0,0,0-3.394Z"/><path class="c" d="M288.082,92.726a59.954,59.954,0,0,0,4.89,18.337,44.637,44.637,0,0,0,16,18.256,29.958,29.958,0,0,0,11.707,4.573,2.48,2.48,0,0,0,2.953-1.676,2.419,2.419,0,0,0-1.677-2.953c-6.989-1.046-12.89-5.068-17.666-10.122a41.257,41.257,0,0,1-9.917-18.334c-.386-1.5-.707-3.016-.973-4.542q-.184-1.056-.336-2.117c-.018-.122-.035-.245-.052-.368-.057-.411.042.324-.01-.069-.042-.328-.083-.657-.124-.985a2.475,2.475,0,0,0-2.4-2.4,2.415,2.415,0,0,0-2.4,2.4Z"/><path class="c" d="M311.488,129.993a53.609,53.609,0,0,1-.665,5.4,32.05,32.05,0,0,1-.593,3.318c-.046.161-.326.824-.1.361-.1.212-.222.409-.342.612-.178.3.247-.254,0,.009-.074.078-.144.16-.221.236a3.852,3.852,0,0,1-.335.3c.261-.2-.123.061-.221.117-.585.336-1.186.551-1.825.842-3.162,1.438-6.3,2.924-9.459,4.376q-1.222.563-2.449,1.118c-.291.132-.583.26-.875.391-.571.257.585-.216.074-.033A2.463,2.463,0,0,0,292.8,150a2.422,2.422,0,0,0,2.952,1.677c1.279-.458,2.516-1.1,3.749-1.663q2.912-1.335,5.815-2.687,2.145-.995,4.292-1.986a3.461,3.461,0,0,0,.345-.156s-.893.358-.4.174c.243-.09.481-.193.719-.295a9.05,9.05,0,0,0,1.27-.632,7.506,7.506,0,0,0,3.053-3.686,17.552,17.552,0,0,0,.783-3.663c.389-2.354.744-4.705.907-7.086a2.4,2.4,0,0,0-4.8,0Z"/><path class="c" d="M347.731,128.935a74.284,74.284,0,0,0,1.284,10.216,8.059,8.059,0,0,0,5.338,6.145c.843.335-.636-.313-.037-.023.21.1.424.2.635.3q1,.47,2,.943,2.709,1.278,5.414,2.561c1.232.583,2.453,1.208,3.707,1.743a2.481,2.481,0,0,0,3.283-.861,2.417,2.417,0,0,0-.861-3.284c-2.658-1.133-5.245-2.471-7.857-3.707-1.267-.6-2.53-1.212-3.807-1.793a16.063,16.063,0,0,1-1.92-.909c.006,0-.337-.236-.166-.1s-.172-.161-.207-.194c-.082-.076-.158-.158-.234-.24.062.066.235.365-.016-.021-.113-.173-.208-.354-.307-.536.23.421-.074-.217-.122-.379a32.124,32.124,0,0,1-.68-3.779,54.286,54.286,0,0,1-.647-6.075,2.452,2.452,0,0,0-2.4-2.4,2.422,2.422,0,0,0-2.4,2.4Z"/><path class="c" d="M383.408,157.788a41.919,41.919,0,0,1,12.1,8.252,30.881,30.881,0,0,1,6.513,10.1c3.081,7.133,4.747,14.7,6.023,22.324,3.008,17.973,5.161,36.089,7.621,54.142q.959,7.038,1.967,14.07.478,3.309.979,6.614.22,1.455.448,2.91a6.688,6.688,0,0,0,.263,1.668c-.574-.418,2.024-1.184,1.193-1.559-.069-.031-.223.012-.3,0a29.655,29.655,0,0,0-4.411,0h-5.669l-32.56,0-41.8.007-42.757.009-35,.008-11.85,0a31.3,31.3,0,0,0-4.109,0c-.073.01-.157-.017-.228,0,.754-.186.9,2.424,1.3,1.228a8.275,8.275,0,0,0,.211-1.337q.267-1.716.527-3.433.487-3.228.953-6.46c2.714-18.8,5-37.656,7.761-56.448,1.072-7.3,2.017-14.72,3.851-21.877,2.027-7.91,4.785-16.473,10.744-22.244A41.816,41.816,0,0,1,279,157.788a2.419,2.419,0,0,0,.861-3.284,2.457,2.457,0,0,0-3.284-.861,45.657,45.657,0,0,0-12.787,8.728,33.774,33.774,0,0,0-7.254,10.689,95.864,95.864,0,0,0-6.7,23.557c-3.113,18.425-5.3,37.006-7.826,55.517q-.983,7.2-2.021,14.389-.49,3.366-1,6.728c-.343,2.235-1.465,5.266.47,7.02,1.393,1.264,3.934.866,5.715.866h5.207l32.067-.007q21.27-.006,42.541-.009l44.026-.008q18.043,0,36.086,0h12.1c2.028,0,4.752.449,6.16-1.291,1.469-1.817.317-5-.006-7.111q-.516-3.376-1-6.757c-2.788-19.21-5.112-38.484-7.941-57.688-1.106-7.507-2.083-15.137-4.049-22.478-2.289-8.547-5.474-17.459-12.012-23.685a45.59,45.59,0,0,0-12.5-8.456,2.471,2.471,0,0,0-3.283.861,2.419,2.419,0,0,0,.861,3.284Z"/><path class="c" d="M388.985,190.247c-1.152,4.015-1.433,8.361-1.863,12.5-.694,6.668-1.2,13.355-1.664,20.042q-1.484,21.38-2.344,42.8c-.182,4.368-.416,8.749-.42,13.122,0,3.089,4.8,3.094,4.8,0,.009-10.119.707-20.275,1.233-30.376.749-14.38,1.564-28.775,2.947-43.11q.226-2.347.487-4.691.117-1.028.242-2.053c.043-.348.088-.7.133-1.046.089-.694-.052.343.058-.433a40.445,40.445,0,0,1,1.019-5.473c.854-2.974-3.777-4.244-4.628-1.276Z"/><path class="c" d="M269.128,191.523a35.98,35.98,0,0,1,.908,4.694q.051.349.1.7c.023.162.045.323.067.484-.009-.06-.076-.575-.02-.14q.12.926.232,1.85.243,2.023.448,4.052c.679,6.621,1.18,13.26,1.639,19.9q1.473,21.294,2.33,42.628c.18,4.333.412,8.678.415,13.016,0,3.089,4.8,3.094,4.8,0-.009-10.21-.715-20.457-1.247-30.648-.752-14.4-1.567-28.816-2.965-43.17-.471-4.831-.733-9.951-2.078-14.64-.851-2.964-5.484-1.7-4.629,1.276Z"/><path class="c" d="M285.568,75.321A73.642,73.642,0,0,1,283.535,64.9a47.8,47.8,0,0,1,2.135-18.614,42.54,42.54,0,0,1,9.171-16.007,40.488,40.488,0,0,1,12.8-8.962,52.614,52.614,0,0,1,19.1-4.8,70.322,70.322,0,0,1,18.875,1.279,36.339,36.339,0,0,1,12.956,5.49,44.844,44.844,0,0,1,11.251,10.568,52.994,52.994,0,0,1,7.929,17.876,50.837,50.837,0,0,1,1.4,19.263,52.7,52.7,0,0,1-.969,5.215c-.708,3.005,3.919,4.287,4.628,1.276a53.978,53.978,0,0,0,.729-21.483,63.565,63.565,0,0,0-6.965-20.427A47.086,47.086,0,0,0,364.6,21.816a42.936,42.936,0,0,0-13.623-7.554,64.049,64.049,0,0,0-18.51-2.617,60.957,60.957,0,0,0-22.184,3.422,51.689,51.689,0,0,0-15.843,8.939A43.521,43.521,0,0,0,283.1,39.634a53.107,53.107,0,0,0-4.517,20.012,60.076,60.076,0,0,0,1.973,15.3l.385,1.653c.7,3.008,5.329,1.735,4.628-1.276Z"/><path class="c" d="M356.9,57.325c.467.181-.395-.227.028.013.153.087.32.156.476.239.344.183.679.385,1.006.6a11.039,11.039,0,0,1,1.683,1.268,27.57,27.57,0,0,1,4.194,4.516,25.813,25.813,0,0,1,5.224,13.469,2.454,2.454,0,0,0,2.4,2.4,2.421,2.421,0,0,0,2.4-2.4,30.312,30.312,0,0,0-6.058-16.134c-2.621-3.517-5.9-6.98-10.076-8.6a2.419,2.419,0,0,0-2.953,1.676,2.455,2.455,0,0,0,1.676,2.952Z"/><path class="c" d="M347.54,51.059a18.674,18.674,0,0,1-11.466,8.084c-3.937,1-7.925,1.882-11.931,2.557-.372.063-.745.12-1.117.179-.093.014-.792.1-.167.026-.181.022-.361.045-.542.064-.3.031-.6.062-.9.069a2.708,2.708,0,0,0-.349,0c-.458.072.229.042.227.036-.156-.379-1.805.033-2.045.111a11.469,11.469,0,0,0-2.195,1.087c-3.971,2.337-7.844,4.581-12.472,5.33a22.928,22.928,0,0,1-4.778.189c-1.936-.094-3.893-.026-5.523,1.158a12.079,12.079,0,0,0-2.844,3.3,11.419,11.419,0,0,1-.953,1.333c.013-.013-.6.519-.29.3-.145.1-.336.147-.239.139a2.462,2.462,0,0,0-2.4,2.4,2.418,2.418,0,0,0,2.4,2.4c3.124-.26,4.485-2.528,6.114-4.878a2.5,2.5,0,0,1,2.08-1.395c1.732-.126,3.472.16,5.216.007,5.49-.479,10.39-2.687,15.054-5.5.644-.388,1.284-.794,1.952-1.142.124-.064.267-.118.385-.192.392-.249-.535.14-.126.058.66-.131-.5-.009-.548-.058.217.234,1.428.117,1.754.094.971-.07,1.94-.222,2.9-.373,4.149-.653,8.275-1.582,12.348-2.6a23.721,23.721,0,0,0,14.6-10.358c1.616-2.642-2.534-5.057-4.145-2.422Z"/><path class="c" d="M306.072,59.916a1.8,1.8,0,0,1,.048-1.739,2.077,2.077,0,0,1,.952-.563l3.7-1.366a49.608,49.608,0,0,1,7.011,11.111,23.014,23.014,0,0,1-7.263,3.421L306.2,60.253C306.156,60.145,306.112,60.032,306.072,59.916Z"/><path class="c" d="M308,59.385a3.376,3.376,0,0,1-.105-.342c-.031-.141-.038-.154-.021-.042,0,0-.406.595-.41.616.022-.121.82-.326,1.065-.416l2.777-1.024-1.946-.515a48.652,48.652,0,0,1,6.7,10.706l.717-2.736a21.832,21.832,0,0,1-6.784,3.219l2.46,1.4c-1.483-3.613-3.094-7.2-4.451-10.863a2.054,2.054,0,0,0-2.46-1.4,2.016,2.016,0,0,0-1.4,2.46c1.357,3.662,2.967,7.25,4.451,10.863a2.051,2.051,0,0,0,2.46,1.4,25.27,25.27,0,0,0,7.74-3.622,2.072,2.072,0,0,0,.717-2.737,52.388,52.388,0,0,0-7.322-11.515,1.94,1.94,0,0,0-1.946-.514c-1.49.549-3.061,1.012-4.5,1.692a3.46,3.46,0,0,0-1.6,4.436,2.044,2.044,0,0,0,2.46,1.4A2.02,2.02,0,0,0,308,59.385Z"/><path class="c" d="M352.241,160.253a10.235,10.235,0,0,0-2.407.566q-1.325.342-2.663.631c-1.679.364-3.373.67-5.075.905A72.908,72.908,0,0,1,331.51,163a74.6,74.6,0,0,1-20.391-3.012c-2.97-.87-4.239,3.76-1.276,4.629a79.754,79.754,0,0,0,21.213,3.178,76.609,76.609,0,0,0,10.906-.621c1.8-.232,3.59-.509,5.368-.864q1.343-.267,2.674-.587.664-.161,1.327-.333c.15-.04,1.431-.337.91-.337,3.088,0,3.093-4.8,0-4.8Z"/><path class="d" d="M340.123,191.779c.119-.95.2-1.822.229-2.5-.545-.142-15.651,0-17.022,0,.3,2.7,1.273,7.405,1.58,9.824-2.688,1.238-10.726,6.185-11.2,10.326-.314,2.68,1.456,12.6,2.255,17.715a107.659,107.659,0,0,0,10.429-7.309c-.206,2.347,12.027,15.125,15.163,17.95,1.216-2.731,7.842-18.209,6.743-21.8-1.477-4.821-11.164-17.487-9.939-16.842C338.53,200.983,339.631,195.71,340.123,191.779Z"/><path class="c" d="M323.73,218.943a102.834,102.834,0,0,1-8.981,6.132l3.526,1.435c-.826-5.265-2.094-10.643-2.2-15.987,0-.239.107-1.261-.019-.679a2.7,2.7,0,0,1,.514-1.284,12.452,12.452,0,0,1,2.475-2.734,32.1,32.1,0,0,1,6.44-4.34c2.74-1.43.315-5.574-2.423-4.145a37.239,37.239,0,0,0-7.411,5.09c-2.22,1.966-4.276,4.443-4.377,7.534a47.93,47.93,0,0,0,.88,8.39c.464,3.149,1,6.286,1.494,9.431.241,1.533,2.324,2.181,3.526,1.434a111.647,111.647,0,0,0,9.952-6.883,2.412,2.412,0,0,0,0-3.394,2.462,2.462,0,0,0-3.394,0Z"/><path class="c" d="M328.657,200.007a53.23,53.23,0,0,0-2.6,8.223,69.224,69.224,0,0,0-2.026,9.96c-.269,2.488.652,4.269,2.1,6.227a97.49,97.49,0,0,0,6.871,8.1c2.206,2.386,4.44,4.786,6.85,6.969,1.029.932,3.106,1.006,3.769-.486a127.382,127.382,0,0,0,6.033-15.86c.687-2.35,1.608-5.221.982-7.679-.772-3.03-2.861-5.922-4.526-8.514-1.8-2.8-3.814-5.5-5.5-8.37-1.564-2.661-5.715-.249-4.145,2.423,2.981,5.072,7.025,9.628,9.334,15.084-.179-.422.076.242.126.373.137.357.077.487.064.009a13.287,13.287,0,0,1-.023,1.425c-.03.374.075-.34-.053.337-.054.287-.107.573-.168.859-.144.677-.316,1.348-.5,2.016a92.853,92.853,0,0,1-3.024,8.832q-.843,2.173-1.743,4.325c-.054.13-.109.26-.163.389.125-.3.064-.149-.026.061l-.308.72q-.248.574-.5,1.147l3.769-.485a113.558,113.558,0,0,1-12.234-13.147,24.461,24.461,0,0,1-1.95-2.741c-.114-.2-.209-.4-.323-.595-.273-.464.159.519,0-.024-.13-.46-.054.421.012.12a4.741,4.741,0,0,0,.007-.716c.011-.235.037-.469.057-.7.057-.652-.019.038.045-.382q.174-1.144.4-2.281c.321-1.625.7-3.239,1.1-4.845.446-1.786.926-3.565,1.453-5.329.2-.667.405-1.332.627-1.991.092-.275.19-.548.286-.822.04-.114.1-.226.129-.342.121-.418-.225.509-.059.135a2.474,2.474,0,0,0-.861-3.283,2.417,2.417,0,0,0-3.283.861Z"/><path class="c" d="M331.372,201.278a32.708,32.708,0,0,1,1.259,4.391c.363,1.515.706,3.04.964,4.577a2.4,2.4,0,0,0,1.1,1.434,2.4,2.4,0,0,0,3.525-2.71c-.257-1.537-.6-3.062-.964-4.577A32.7,32.7,0,0,0,336,200a2.614,2.614,0,0,0-1.1-1.434,2.453,2.453,0,0,0-1.849-.242,2.426,2.426,0,0,0-1.677,2.952Z"/><path class="c" d="M320.93,189.283c.289,2.531.769,5.034,1.2,7.541.263,1.519.2,3.343,1.8,4.093a22.37,22.37,0,0,0,4.02,1.34,13.589,13.589,0,0,0,4.973.723,24.781,24.781,0,0,0,3.911-.933A16.926,16.926,0,0,0,340,200.729c1.256-.73,1.413-2.264,1.673-3.565a52.632,52.632,0,0,0,1.084-7.881,2.418,2.418,0,0,0-1.762-2.314,11.858,11.858,0,0,0-2.337-.139c-1.258-.012-2.517-.011-3.776-.009q-4.439.009-8.878.046c-.89.006-1.779.016-2.669.016a2.4,2.4,0,1,0,0,4.8c4.907,0,9.813-.088,14.72-.057.511,0,1.021.006,1.532.018.485.011,1.1.162.132-.046l-1.762-2.315c-.033.73-.1,1.458-.191,2.183q-.033.288-.071.575a1.137,1.137,0,0,1-.028.193c-.067.445-.133.889-.2,1.333a43.136,43.136,0,0,1-.895,4.406l1.1-1.435c-.245.121-.49.241-.737.355-.058.027-.68.292-.173.084q-.693.283-1.406.511a29.223,29.223,0,0,1-3.7.864h1.276a30.555,30.555,0,0,1-7.43-1.942l1.676,1.676c-.219-1.529-.5-3.049-.768-4.571-.141-.807-.282-1.614-.413-2.423-.064-.4-.123-.79-.183-1.185-.033-.22-.038-.269-.005-.019-.027-.2-.05-.4-.074-.605a2.472,2.472,0,0,0-2.4-2.4A2.416,2.416,0,0,0,320.93,189.283Z"/><path class="e" d="M376.9,175.966c4.689-2.558,22.194-13.872,21.784-14.471-1.455-2.128-16.692-8.52-27.329-13.384-5.838-2.669-9.935-5.112-10.966-5.59-6.035,12.91-18.6,34.358-26.026,46.156C346.8,187.107,356.75,186.958,376.9,175.966Z"/><path class="e" d="M286.527,175.966c-4.712-2.518-22.193-13.872-21.784-14.471,1.456-2.128,16.693-8.52,27.33-13.384,5.837-2.669,9.934-5.112,10.965-5.59,6.625,12.045,20.889,34.666,28.814,46.48C322.553,187.655,307.1,186.958,286.527,175.966Z"/><path class="c" d="M340.2,181.6a25.83,25.83,0,0,0,8.613-1.209,83.885,83.885,0,0,0,10.6-3.872,156.013,156.013,0,0,0,22.1-11.736,94.275,94.275,0,0,0,9.565-6.826,2.417,2.417,0,0,0,0-3.394,2.454,2.454,0,0,0-3.394,0,84,84,0,0,1-7.565,5.416c-3.31,2.144-6.711,4.15-10.171,6.042a113.058,113.058,0,0,1-21.119,9.366,41.138,41.138,0,0,1-4.893,1.2c-.164.029-1.193.171-.672.11-.341.04-.684.075-1.027.1a14.263,14.263,0,0,1-2.036,0,2.4,2.4,0,0,0,0,4.8Z"/><path class="c" d="M273.127,157.586c5.8,5.289,12.833,9.293,19.776,12.865a127.913,127.913,0,0,0,22.959,9.488,28.443,28.443,0,0,0,9.3,1.51c3.069-.185,3.091-4.987,0-4.8a12.334,12.334,0,0,1-1.413,0c-.3-.016-.591-.046-.886-.073-.125-.011-.25-.028-.374-.043.621.074-.054-.009-.142-.024-1.424-.235-2.83-.551-4.225-.926a91.94,91.94,0,0,1-10.357-3.556,142.765,142.765,0,0,1-21.9-11.044,61.74,61.74,0,0,1-9.344-6.793c-2.278-2.078-5.682,1.307-3.394,3.394Z"/><path class="c" d="M287.738,173.894c-3.342-1.8-6.537-3.9-9.726-5.948-3.478-2.237-6.974-4.484-10.3-6.951-.129-.095-.256-.193-.385-.288-.36-.267.353.292.038.029-.183-.154-.367-.31-.553-.461-.319-.26-.125-.317-.126-.075,0-.217.211.335.139.173.043.1-.364,2.7-.254,2.652.044-.019.232-.281.271-.26.008,0,.326-.281-.041.024-.3.247-.041.027.042-.026.138-.088.269-.187.4-.276.353-.233.716-.45,1.081-.662.909-.525,1.84-1.011,2.776-1.485,5.324-2.7,10.819-5.06,16.265-7.494,3.427-1.531,6.865-3.045,10.218-4.735,2.238-1.128,4.395-2.441,6.656-3.518l-3.283-.861c7.028,12.757,14.895,25.089,22.8,37.318q2.973,4.6,6.016,9.163l2.711-3.526c-4.749-.682-8.806-1.069-13.449-1.9a104.574,104.574,0,0,1-18.586-5.085,109.188,109.188,0,0,1-12.717-5.812c-2.726-1.45-5.154,2.692-2.422,4.144a112.543,112.543,0,0,0,22.032,8.995,121.792,121.792,0,0,0,17.175,3.416c1.223.164,2.447.318,3.671.471q.894.113,1.788.227c.126.016.764.1.53.069-.195-.026.543.077.7.1a2.46,2.46,0,0,0,2.522-.86,2.388,2.388,0,0,0,.188-2.666q-12.238-18.26-23.467-37.2c-1.824-3.069-3.624-6.154-5.347-9.282a2.456,2.456,0,0,0-3.283-.861c-2.018.961-3.944,2.133-5.934,3.151-3.187,1.631-6.453,3.094-9.719,4.556-5.852,2.62-11.765,5.143-17.486,8.04-2.451,1.241-8.94,4.143-5.194,7.537,2.893,2.621,6.46,4.685,9.714,6.814,3.959,2.59,7.937,5.249,12.108,7.492C288.036,179.5,290.463,175.359,287.738,173.894Z"/><path class="c" d="M378.112,178.038c3.576-1.961,7.008-4.215,10.432-6.426,3.638-2.349,7.337-4.683,10.746-7.36,1.25-.981,2.442-2.362,1.419-4.033-.9-1.466-2.855-2.375-4.311-3.16-5.4-2.911-11.094-5.308-16.692-7.808-3.581-1.6-7.181-3.165-10.694-4.907-2.5-1.239-4.9-2.7-7.411-3.9a2.436,2.436,0,0,0-3.284.861c-6,12.8-13.227,25.065-20.5,37.163q-2.719,4.521-5.521,8.994c-.888,1.412.24,3.841,2.072,3.611,4.912-.617,9.85-1.079,14.722-1.986a81.726,81.726,0,0,0,16.628-5.054,136.173,136.173,0,0,0,12.4-6c2.714-1.475.294-5.622-2.423-4.144a106.522,106.522,0,0,1-19.156,8.415,76.073,76.073,0,0,1-7.638,1.944c-1.159.232-2.322.437-3.488.623-1.183.188-2.25.336-3.154.452-2.628.337-5.262.619-7.89.949l2.072,3.612c7.5-11.93,14.634-24.132,21.219-36.59,1.668-3.156,3.293-6.335,4.808-9.567l-3.284.861c1.842.877,3.6,1.947,5.413,2.884,3.018,1.559,6.106,2.968,9.2,4.359,5.6,2.516,11.25,4.953,16.776,7.639a50.674,50.674,0,0,1,5.529,2.964c.161.105.316.22.478.324.385.246-.127-.041-.046-.038.058,0,.207.243.25.228.019-.006.081.1.1.107-.035-.01-.248-2.774-.305-2.655.2-.418.442-.464.065-.161-.181.146-.36.3-.538.45-.354.3.195-.145.048-.036-.127.094-.252.19-.379.284q-.472.351-.952.692c-.749.534-1.506,1.057-2.265,1.576q-2.776,1.893-5.6,3.716c-3.7,2.4-7.4,4.847-11.268,6.968C372.98,175.379,375.4,179.526,378.112,178.038Z"/><path class="c" d="M309.888,80.291c-.678,2.2-.236,7.278,3.942,7.71,5.522-.033,5.816-6.166,3.957-9.05C316.265,76.59,311.79,75.608,309.888,80.291Z"/><path class="c" d="M354.107,80.291c.679,2.206.236,7.279-3.941,7.71-5.522-.033-5.816-6.166-3.958-9.05C347.73,76.59,352.205,75.608,354.107,80.291Z"/><path class="c" d="M362.7,95.666c3.043-6.067,6.642-12.138,11.2-17.034a2.4,2.4,0,0,0-3.394-3.394,76.721,76.721,0,0,0-11.955,18,2.459,2.459,0,0,0,.861,3.284,2.423,2.423,0,0,0,3.283-.861Z"/><path class="c" d="M288.377,78.992a50.051,50.051,0,0,1,3.662,3.891q1.014,1.181,1.989,2.393c.546.677,1.345,1.692,1.67,2.118,2.09,2.744,4.147,5.534,5.974,8.462a2.4,2.4,0,1,0,4.144-2.423c-1.871-3-3.976-5.862-6.128-8.663a75.037,75.037,0,0,0-7.917-9.172,2.4,2.4,0,0,0-3.394,3.394Z"/><path class="a" d="M331.928,91.663A213.192,213.192,0,0,0,308.35,93.65c-1.238.169-4.3.449-5.1,1.358-1.5,1.691-.931,5.3-1.125,7.349a52.366,52.366,0,0,0,.292,9.836c.449,4.323.667,8.929,3.63,12.3,5.477,6.233,18.17,9.552,26.509,9.552a50.432,50.432,0,0,0,16.316-2.955c4.548-1.63,8.8-4.365,11.179-8.3,2.244-3.708,2.156-7.425,2.638-11.649a43.806,43.806,0,0,0,.173-8.947c-.206-2.045.316-5.386-1.2-7.1-.807-.909-3.329-1.277-4.568-1.439A224.06,224.06,0,0,0,331.928,91.663Z"/><path class="c" d="M331.928,89.263a166.139,166.139,0,0,0-18.307,1.33c-3.019.344-5.487.565-8.315,1.086a8.107,8.107,0,0,0-3.134,1.125,5.871,5.871,0,0,0-2.2,4.094,30.568,30.568,0,0,0-.2,4.321c-.017,1.561-.192,3.109-.173,4.674a88.47,88.47,0,0,0,.845,10.266c.44,3.378,1.247,6.678,3.4,9.406a21.225,21.225,0,0,0,6.2,5.081c10.992,6.291,24.613,7.179,36.62,3.682,6.249-1.82,12.752-5.068,15.893-11.09,1.622-3.109,2-6.51,2.321-9.951a61.709,61.709,0,0,0,.424-10.68c-.25-3.09.4-6.991-2.1-9.358-2.235-2.114-6.382-2.037-9.231-2.375a191.35,191.35,0,0,0-22.034-1.611c-3.089-.007-3.093,4.793,0,4.8a174.859,174.859,0,0,1,17.492,1.108c2.706.279,6.024.6,8.229.984a12.585,12.585,0,0,1,1.709.389c-.073-.023.424.139.271.073.167.072.52.458.33.181a5.8,5.8,0,0,1,.429,2.749c.055,2.875.312,5.728.151,8.607a64.692,64.692,0,0,1-.973,9.162c-1.16,5.7-5.718,9.364-10.968,11.326a44.265,44.265,0,0,1-32.621-.407c-4.316-1.794-8.794-4.46-10.136-9.221a46.036,46.036,0,0,1-1.179-8.362,79.472,79.472,0,0,1-.1-9.13,32.4,32.4,0,0,1,.081-3.675c.053-.381.283-.959.3-1.142l-.18.121c.235-.121.264-.146.085-.076.325-.094.642-.2.973-.285a64.385,64.385,0,0,1,7.422-1.028,167.386,167.386,0,0,1,18.685-1.374C335.016,94.055,335.022,89.255,331.928,89.263Z"/><path class="a" d="M103.731,143.075c-1.969.006-3.65.01-5.671.012-.7.691-1.647,1.645-2.833,2.947-2.782,3.053-6.04,6.13-8.342,8.88a83.517,83.517,0,0,1-12.917-20.451l-1.3-1.435c4.022,17.243,11.168,35.857,16.833,52.632,4.3,12.742,7.655,21.2,12.724,33.77l11.4-33.77c5.665-16.775,12.811-35.389,16.833-52.632l-1.106,1.435a83.517,83.517,0,0,1-12.917,20.451c-2.3-2.75-5.56-5.827-8.342-8.88-1.195-1.312-2.151-2.271-2.85-2.964Z"/><path class="a" d="M138.819,141.108c-3.555-1.685-9.912-4.7-10.112-4.768-4.153-1.5-3.994-4.17-4.513-7.157-.352-2.015-.616-4.038-.766-6.067,9.719-6.008,17.261-19.064,18.68-22.917a49.319,49.319,0,0,0,1.415-4.753l.724-.03a5.1,5.1,0,0,0,5.112-1.195,16.9,16.9,0,0,0,4.373-5.74,26.6,26.6,0,0,0,2.713-14.1,8.887,8.887,0,0,0-.929-3.572,6.282,6.282,0,0,0-4.516-3,6.651,6.651,0,0,0-5.321,1.557S147.316,33.8,100.5,33.8C56.353,33.8,55.58,69.36,55.58,69.36A6.651,6.651,0,0,0,50.259,67.8a6.282,6.282,0,0,0-4.516,3,8.887,8.887,0,0,0-.929,3.572,26.6,26.6,0,0,0,2.713,14.1,16.9,16.9,0,0,0,4.373,5.74c1.479,1.179,3.334,2.475,5.762,1.821,0,0,.416-.089,1.005-.218a52.258,52.258,0,0,0,9.611,17.665,46.51,46.51,0,0,0,10.772,9.652,58.109,58.109,0,0,1-.782,6.042c-.527,2.987-.36,5.655-4.513,7.157-.16.056-4.608,2.132-8.5,3.921,0,0,7.837,21.688,33.17,21.688S138.819,141.108,138.819,141.108Z"/><path class="b" d="M120.353,41.505c-3.529,3.688-8.425,8.156-13.294,9.818a9.76,9.76,0,0,1-5.742.557c-1.877-.536-3.486-2.384-3.1-4.265C88.824,55.03,78.241,62.846,66.2,62.259a8.738,8.738,0,0,0-4.3.389c-2.915,1.435-3.523,6.386-6.927,6.24A6.7,6.7,0,0,0,50.259,67.8a.48.48,0,0,0-.091.021l-.959-6.937C46.105,45.35,51.02,27.28,62.556,16.1c6.6-6.392,20.3-13.709,37-13.709,20.274,0,29.184,4.229,40.018,14.807,8.352,8.155,13.567,22.875,14.491,36.014a55.367,55.367,0,0,1-1.5,15.03A6.414,6.414,0,0,0,151,67.8a6.651,6.651,0,0,0-5.321,1.557l-1.361-.025c-.749-13.736-9.3-21.273-16.458-24.1Z"/><path class="d" d="M107.267,204.512l5.422-16.056c-2.145-14.35-4.417-29.344-4.4-30.138a15.608,15.608,0,0,1,1-4.54c.6-1.845.97-3.458,1.362-5.044-.867-.9-1.729-1.8-2.55-2.7-1.195-1.312-2.151-2.271-2.85-2.96-2.679,0-4.671.011-7.191.012-.7.692-1.647,1.646-2.833,2.948-.636.7-1.3,1.4-1.964,2.092.469,2.437.8,3.977,1.317,6.195.084.39.181.766.279,1.156a10.7,10.7,0,0,1,.418,2.563c0,.5-2.438,18.291-4.145,32.367,3.572,10.251,6.684,18.079,11.1,29.023Z"/><path class="c" d="M147.376,71.057a4.164,4.164,0,0,1,5.881.652,7.391,7.391,0,0,1,.868,3.983,23.216,23.216,0,0,1-.3,4.827,24.172,24.172,0,0,1-3.239,8.672c-1.191,1.9-3.18,4.591-5.7,3.911-2.987-.8-4.261,3.825-1.276,4.628,4.547,1.225,8.088-1.76,10.569-5.277a27.819,27.819,0,0,0,4.56-12.6c.491-4.043.552-9.368-2.8-12.276a9.107,9.107,0,0,0-11.955.086,2.419,2.419,0,0,0,0,3.394,2.45,2.45,0,0,0,3.394,0Z"/><path class="c" d="M141.677,91.443a22.69,22.69,0,0,1-1.112,5.756c-.2.662-.419,1.32-.642,1.975-.062.184-.129.367-.191.551-.208.616.094-.182-.041.107a53.477,53.477,0,0,1-2.951,5.446,54.439,54.439,0,0,1-11.685,13.762,21.584,21.584,0,0,1-8.648,4.465c-3.008.7-1.735,5.326,1.276,4.629,6.7-1.552,12.281-6.424,16.663-11.506a60.378,60.378,0,0,0,9.365-14.094,30,30,0,0,0,2.766-11.091c.11-3.089-4.69-3.084-4.8,0Z"/><path class="c" d="M57.277,67.663a9.11,9.11,0,0,0-12.1.034c-3.353,3.088-3.144,8.549-2.59,12.693a27.278,27.278,0,0,0,4.726,12.39c2.55,3.483,6.42,6.608,10.983,5.576,3.012-.681,1.737-5.31-1.276-4.628-2.415.546-4.839-2.267-6.026-4.03a23.623,23.623,0,0,1-3.487-8.747,23.114,23.114,0,0,1-.391-4.6,9.3,9.3,0,0,1,.7-4.333,4.119,4.119,0,0,1,6.067-.96,2.464,2.464,0,0,0,3.394,0,2.42,2.42,0,0,0,0-3.394Z"/><path class="c" d="M54.266,86.826c1.891,15.2,10.423,30.091,23.511,38.349a31.705,31.705,0,0,0,12.135,4.657,2.479,2.479,0,0,0,2.953-1.676,2.418,2.418,0,0,0-1.677-2.952c-7.266-1.085-13.458-5.186-18.493-10.385a49.925,49.925,0,0,1-11.638-19.4q-.761-2.359-1.3-4.781-.241-1.085-.434-2.179-.088-.5-.165-1c-.018-.12-.036-.24-.053-.36a1.519,1.519,0,0,1-.036-.274,2.477,2.477,0,0,0-2.4-2.4,2.414,2.414,0,0,0-2.4,2.4Z"/><path class="c" d="M66.468,142.334q3.43-1.579,6.856-3.17c.527-.244,1.081-.46,1.595-.732-1.165.618.024.006.289-.106.335-.142.669-.284.99-.457a8.752,8.752,0,0,0,1.6-1.13,8.61,8.61,0,0,0,2.542-5.36c.426-2.742.9-5.471,1.112-8.242a2.421,2.421,0,0,0-2.4-2.4,2.447,2.447,0,0,0-2.4,2.4c-.18,2.358-.577,4.623-.941,6.966a12.543,12.543,0,0,1-.55,2.329c.2-.558.012-.053-.06.078-.033.061-.416.628-.216.368s-.284.28-.33.331c-.312.348.279-.14-.177.152a32.455,32.455,0,0,1-3.851,1.832q-3.24,1.5-6.481,3a2.421,2.421,0,0,0-.861,3.284,2.456,2.456,0,0,0,3.284.861Z"/><path class="c" d="M121.027,123.121a81.041,81.041,0,0,0,1.237,9.108,7.945,7.945,0,0,0,4.424,5.852c.166.079,1.327.394,1.381.573,0,.007-.8-.361-.395-.163.208.1.422.195.632.294q1.341.626,2.677,1.259,3.314,1.566,6.624,3.136a2.467,2.467,0,0,0,3.284-.861,2.42,2.42,0,0,0-.861-3.283c-3.359-1.593-6.7-3.259-10.1-4.762a11.273,11.273,0,0,1-1.516-.7c-.137-.081-.271-.168-.4-.259q.273.224-.036-.038c-.148-.147-.292-.289-.434-.442.368.4-.109-.185-.177-.306s-.118-.222-.17-.335q.156.387.063.14a10.137,10.137,0,0,1-.369-1.38,69.58,69.58,0,0,1-1.066-7.832,2.46,2.46,0,0,0-2.4-2.4,2.42,2.42,0,0,0-2.4,2.4Z"/><path class="e" d="M3.564,264.725q-.6,6.9-1.158,14.012c13.794,0,180.3-.021,198.5-.021-3.984-50.74-9.754-94.76-14.464-110.47-1.45-4.82-3.61-7.71-6.02-9.63s-6.41-3.21-9.19-4.55c-9.05-4.37-20.86-9.24-30.13-13.1l-1.87-.779a48.6,48.6,0,0,0-8.77-7.159c-4.022,17.243-11.168,35.857-16.833,52.632q-5.7,16.886-11.4,33.769C97.16,206.86,93.808,198.4,89.506,185.66c-5.665-16.775-12.811-35.389-16.833-52.632a48.648,48.648,0,0,0-8.882,7.274l-1.595.664c-9.27,3.86-21.07,8.73-30.12,13.1-2.78,1.34-6.78,2.62-9.19,4.55s-4.58,4.81-6.02,9.63C12.6,182.5,7.453,220.018,3.564,264.725Z"/><path class="c" d="M95.869,160.322c4.011,0,8.023-.089,12.034-.091a2.4,2.4,0,1,0,0-4.8c-4.011,0-8.023.089-12.034.091a2.4,2.4,0,0,0,0,4.8Z"/><path class="c" d="M91.138,149.736c.452,2.279.984,4.536,1.51,6.8a5.94,5.94,0,0,1,.154,2.193c-.271,2.243-.579,4.481-.874,6.721-1.055,8.026-2.108,16.053-3.09,24.089a2.414,2.414,0,0,0,2.4,2.4,2.459,2.459,0,0,0,2.4-2.4c.994-8.138,2.062-16.266,3.131-24.4.285-2.172.589-4.344.846-6.52a9.827,9.827,0,0,0-.338-3.364c-.527-2.263-1.058-4.52-1.511-6.8a2.424,2.424,0,0,0-2.952-1.676,2.45,2.45,0,0,0-1.676,2.953Z"/><path class="c" d="M115,187.808c-1.144-7.651-2.3-15.3-3.424-22.953q-.282-1.927-.556-3.857-.092-.648-.18-1.295c-.068-.5.057.471-.029-.219-.017-.136-.035-.273-.052-.409-.323-2.681,1.143-5.454,1.789-8.016.756-3-3.872-4.274-4.628-1.276-.74,2.933-2.332,6.093-1.975,9.173.252,2.182.592,4.356.909,6.53,1.147,7.869,2.341,15.732,3.517,23.6a2.417,2.417,0,0,0,2.953,1.676A2.461,2.461,0,0,0,115,187.808Z"/><path class="c" d="M98.762,222.218a45.514,45.514,0,0,0-2.2,10.978,58.607,58.607,0,0,0,.282,7.88c.489,7.284.783,14.578,1.234,21.864q.489,7.9,1.107,15.786a2.46,2.46,0,0,0,2.4,2.4,2.419,2.419,0,0,0,2.4-2.4c-.67-8.61-1.256-17.228-1.662-25.855-.267-5.668-.858-11.34-1.02-17.01a36.894,36.894,0,0,1,2.086-12.367c.958-2.944-3.675-4.205-4.628-1.276Z"/><path class="c" d="M128.152,132.39a347.772,347.772,0,0,1-10.538,34.48q-6.006,17.29-11.859,34.629L98.76,222.213c-.99,2.933,3.644,4.192,4.629,1.276q6.2-18.36,12.4-36.72c3.8-11.261,7.916-22.418,11.535-33.741,2.042-6.388,3.925-12.831,5.457-19.362.705-3-3.922-4.287-4.628-1.276Z"/><path class="c" d="M70.358,133.666A347.772,347.772,0,0,0,80.9,168.146c3.839,11.052,7.51,22.177,11.624,33.13,2.24,5.962,4.608,11.875,6.988,17.782a2.474,2.474,0,0,0,2.952,1.676,2.416,2.416,0,0,0,1.677-2.952c-4.241-10.526-8.354-21.09-12-31.837-3.873-11.4-8.022-22.719-11.688-34.193-2.041-6.389-3.925-12.831-5.457-19.362-.7-3.006-5.335-1.733-4.629,1.276Z"/><path class="a" d="M116.443,154.914a83.517,83.517,0,0,0,12.917-20.451c-1.6-3.09-2.68-5.092-5.405-7.6-3.117,4.19-10.233,9.422-18.761,12.853a4.832,4.832,0,0,0-1.658.938c-.2.38.193.714.379,1.013.294.469,1.735,1.674,4.186,4.365C110.883,149.087,114.141,152.164,116.443,154.914Z"/><path class="a" d="M86.885,154.914a83.517,83.517,0,0,1-12.917-20.451c1.6-3.09,2.679-5.092,5.405-7.6,3.116,4.19,10.233,9.422,18.761,12.853a4.832,4.832,0,0,1,1.658.938c.2.38-.193.714-.38,1.013-.293.469-1.734,1.674-4.185,4.365C92.445,149.087,89.187,152.164,86.885,154.914Z"/><path class="c" d="M118.14,156.611a89.353,89.353,0,0,0,10.52-15.318c.713-1.336,1.39-2.691,2.042-4.057a9.114,9.114,0,0,0,1.015-2.454,4.367,4.367,0,0,0-.843-2.6,26.139,26.139,0,0,0-5.222-7.016,2.446,2.446,0,0,0-3.769.486,32.09,32.09,0,0,1-7.3,6.4,56.585,56.585,0,0,1-5.752,3.375c-1.955,1-4.169,1.661-6.043,2.788-2.184,1.311-1.954,3.546-.462,5.292.831.973,1.816,1.827,2.7,2.749,3.267,3.4,6.672,6.75,9.717,10.349a2.419,2.419,0,0,0,3.394,0,2.45,2.45,0,0,0,0-3.394c-2.426-2.867-5.16-5.453-7.716-8.2-1.1-1.18-2.187-2.361-3.329-3.5-.33-.327-.667-.648-.989-.983-.118-.122-.231-.249-.348-.372.273.288.121.353.039.131v1.276l.053-.276-.617,1.059c-.2.222-.078.031.119-.071.227-.117.454-.233.688-.337.6-.268,1.216-.5,1.818-.763q1.724-.747,3.4-1.6a56.42,56.42,0,0,0,6.078-3.6,36.277,36.277,0,0,0,8.694-7.9l-3.769.485a24.937,24.937,0,0,1,5.029,7.113v-2.423a88.457,88.457,0,0,1-12.541,19.965,2.466,2.466,0,0,0,0,3.394A2.419,2.419,0,0,0,118.14,156.611Z"/><path class="c" d="M88.582,153.217a88.457,88.457,0,0,1-12.541-19.965v2.423a24.911,24.911,0,0,1,5.029-7.113l-3.769-.485a36.277,36.277,0,0,0,8.694,7.9,56.25,56.25,0,0,0,5.885,3.5q1.667.859,3.384,1.614c.636.279,1.281.535,1.919.81.212.092.423.186.628.294.154.081.552.455.284.156l-.617-1.059.053.276v-1.276c-.05.136-.288.211.076-.175-.111.117-.212.242-.326.356q-.474.474-.948.945c-1.177,1.169-2.3,2.383-3.429,3.6-2.557,2.747-5.291,5.334-7.716,8.2a2.463,2.463,0,0,0,0,3.394,2.419,2.419,0,0,0,3.394,0c3-3.55,6.365-6.844,9.578-10.2,1.962-2.052,6.543-5.684,2.379-8.185-1.875-1.127-4.088-1.787-6.043-2.788a56.748,56.748,0,0,1-5.586-3.265,39.869,39.869,0,0,1-4.358-3.316,26.971,26.971,0,0,1-3.107-3.2,2.446,2.446,0,0,0-3.769-.486,25.741,25.741,0,0,0-5.132,6.847,5.611,5.611,0,0,0-.976,2.448,7.252,7.252,0,0,0,1.058,2.773q.978,2.049,2.042,4.057a89.106,89.106,0,0,0,10.52,15.318,2.418,2.418,0,0,0,3.394,0A2.452,2.452,0,0,0,88.582,153.217Z"/><path class="c" d="M115.03,230.676a5.579,5.579,0,0,1,.662.7l-.375-.485a4.682,4.682,0,0,1,.536.908l-.242-.574a4.474,4.474,0,0,1,.3,1.095l-.085-.638a4.844,4.844,0,0,1,0,1.221l.086-.638a5.323,5.323,0,0,1-.352,1.288l.242-.573a4.43,4.43,0,0,1-.517.911l.376-.485a3.932,3.932,0,0,1-.68.672l.486-.375a4.654,4.654,0,0,1-.965.55l.573-.242a5.4,5.4,0,0,1-1.255.337l.638-.085a5.754,5.754,0,0,1-1.466,0l.638.086a5.045,5.045,0,0,1-1.2-.32l.573.242a3.958,3.958,0,0,1-.819-.469l.485.375a4.919,4.919,0,0,1-.8-.8l.376.485a4.124,4.124,0,0,1-.533-.912l.242.573a3.966,3.966,0,0,1-.232-.862l.086.638a4.208,4.208,0,0,1,0-1.046l-.086.638a5.18,5.18,0,0,1,.358-1.275l-.242.573a6.614,6.614,0,0,1,.829-1.388l-.375.485a3.992,3.992,0,0,1,.641-.658l-.486.375a4.332,4.332,0,0,1,.882-.516l-.573.242a5.128,5.128,0,0,1,1.292-.349l-.638.086a5.164,5.164,0,0,1,1.273,0l-.638-.086a4.584,4.584,0,0,1,1.048.28l-.573-.242a3.946,3.946,0,0,1,.856.5l-.486-.375c.048.037.095.076.14.117a2.559,2.559,0,0,0,1.7.7,2.443,2.443,0,0,0,1.7-.7,2.414,2.414,0,0,0,.7-1.7,2.372,2.372,0,0,0-.7-1.7,6.661,6.661,0,0,0-4.286-1.641,6.994,6.994,0,0,0-3.875,1.061,7.422,7.422,0,0,0-3.124,7.51A6.487,6.487,0,0,0,109.82,238a7.218,7.218,0,0,0,9.984-2.289,7.22,7.22,0,0,0,.844-3.859,7.33,7.33,0,0,0-.727-2.641,6.5,6.5,0,0,0-1.5-1.931,2.528,2.528,0,0,0-1.7-.7,2.4,2.4,0,0,0-1.7,4.1Z"/><path class="c" d="M61.558,138.652c-5.86,2.44-11.724,4.871-17.551,7.39-5.566,2.406-11.011,5.087-16.591,7.452a23.619,23.619,0,0,0-7.092,4.168,19.2,19.2,0,0,0-4.362,6.194,52.029,52.029,0,0,0-3.011,9.987c-1.832,8.108-3.133,16.34-4.338,24.56C6.943,209.8,5.547,221.232,4.3,232.679Q1.781,255.671.006,278.737a2.423,2.423,0,0,0,2.4,2.4l23.444,0,44.783,0,52.772-.006,47.369-.006,28.573,0h1.563a2.419,2.419,0,0,0,2.4-2.4c-2.011-25.561-4.488-51.112-8.063-76.506-1.222-8.678-2.549-17.359-4.356-25.937-1.661-7.881-3.58-16.8-11.233-21.02-2.766-1.525-5.789-2.591-8.643-3.944-3.136-1.486-6.3-2.906-9.483-4.3-6.561-2.869-13.178-5.608-19.788-8.36a2.413,2.413,0,0,0-2.952,1.676,2.46,2.46,0,0,0,1.676,2.952c5.615,2.338,11.235,4.666,16.817,7.083,5.5,2.381,10.881,5.025,16.4,7.364a19.481,19.481,0,0,1,6.125,3.529,15.835,15.835,0,0,1,3.769,5.959,66.965,66.965,0,0,1,2.374,8.873c1.76,8.018,3.04,16.145,4.222,24.265,1.616,11.1,2.955,22.243,4.165,33.395q2.438,22.449,4.175,44.968l2.4-2.4-25.529,0-45.848,0-52.832.006-46.422,0-26.62,0H2.406l2.4,2.4c1.961-24.956,4.342-49.913,7.813-74.709,1.2-8.544,2.5-17.088,4.236-25.542,1.413-6.87,2.625-15.524,9.388-19.18,2.724-1.473,5.678-2.526,8.476-3.852,3.069-1.455,6.167-2.846,9.278-4.209,6.245-2.735,12.543-5.344,18.837-7.965a2.479,2.479,0,0,0,1.676-2.952,2.414,2.414,0,0,0-2.952-1.676Z"/><path class="c" d="M105.021,140.675q-3.569.006-7.137.015a2.4,2.4,0,0,0,0,4.8l7.137-.015a2.4,2.4,0,1,0,0-4.8Z"/><path class="c" d="M127.222,47.546a19.474,19.474,0,0,1,5.1,2.645,21.9,21.9,0,0,1,4.451,4.333,26.922,26.922,0,0,1,5.144,14.811c.184,3.07,4.986,3.091,4.8,0a31.851,31.851,0,0,0-6.174-17.721,25.456,25.456,0,0,0-12.046-8.7c-2.935-.983-4.195,3.651-1.276,4.629Z"/><path class="c" d="M118.656,39.808a44.027,44.027,0,0,1-9.353,7.831,15.033,15.033,0,0,1-5.327,2.026,4.046,4.046,0,0,1-2.464-.289c-.294-.161-1.037-.711-.979-1.123a2.424,2.424,0,0,0-4.012-2.335c-5.452,4.3-11.1,8.592-17.5,11.388a29.694,29.694,0,0,1-9.533,2.509c-3.4.255-7.095-.779-9.968,1.564a14.6,14.6,0,0,0-2.74,3.422,7.747,7.747,0,0,1-.936,1.255c-.291.309-.116.174-.383.335,0,0-.353.175-.155.087s-.445.041-.066.011a2.461,2.461,0,0,0-2.4,2.4,2.419,2.419,0,0,0,2.4,2.4c3.2-.254,4.657-2.594,6.316-5.02.577-.843,1.059-1.537,2.168-1.67,1.75-.209,3.589.149,5.357.043,7.468-.447,14.379-3.682,20.551-7.732,3.566-2.34,6.94-4.959,10.286-7.6L95.9,46.977a6.337,6.337,0,0,0,3.853,6.86c2.823,1.244,6.1.574,8.853-.545,5.238-2.127,9.569-6.063,13.44-10.09,2.142-2.228-1.248-5.626-3.394-3.394Z"/><path class="c" d="M154.887,68.837a61.928,61.928,0,0,0,1.625-12.122,53.659,53.659,0,0,0-.946-10.8,65.979,65.979,0,0,0-7.393-21.231A49.409,49.409,0,0,0,135.5,10.368a44.541,44.541,0,0,0-14.349-7.76C114.827.635,108.09.1,101.5.007a62.729,62.729,0,0,0-23.295,3.9A52.738,52.738,0,0,0,61.9,13.441,46.473,46.473,0,0,0,50.28,30.1,54.973,54.973,0,0,0,45.9,51.261c-.024,5.217,1.009,10.357,1.722,15.508l.241,1.738a2.413,2.413,0,0,0,2.952,1.676,2.464,2.464,0,0,0,1.676-2.952c-.477-3.45-1.12-6.909-1.5-10.368a49.97,49.97,0,0,1,1.825-19.73A45.223,45.223,0,0,1,62.06,20.1a41.574,41.574,0,0,1,13.25-9.745A55.239,55.239,0,0,1,95.519,4.936a74.029,74.029,0,0,1,20.069,1.2,38.438,38.438,0,0,1,13.752,5.648,47.093,47.093,0,0,1,11.965,11.073,55.137,55.137,0,0,1,8.4,18.616,53.645,53.645,0,0,1,1.566,20.659c-.241,1.827-.589,3.64-1.01,5.434-.706,3,3.921,4.287,4.629,1.276Z"/><path class="c" d="M128.93,134.725c3.94,3.11,7.719,6.448,11.334,9.929,1.8,1.732,3.567,3.508,5.2,5.4.333.387.662.778.977,1.179-.249-.317.141.188.187.252.126.173.251.346.371.523.213.313.408.633.6.961.038.067.326.682.158.282s.042.146.065.224l1.1-2.711c-4.987,3.707-10.18,7.175-15.02,11.074a2.422,2.422,0,0,0,0,3.394c1.665,1.694,3.449,3.27,5.2,4.871a34.809,34.809,0,0,1,4.147,4.06l-.375-2.909c-3.131,4.057-5.816,8.533-8.662,12.789q-7.331,10.964-14.608,21.965Q116.3,211,113.022,216c-1.7,2.592,2.457,5,4.144,2.423q13.082-19.974,26.438-39.77c1.12-1.66,2.19-3.385,3.414-4.971a2.436,2.436,0,0,0-.375-2.908,34.809,34.809,0,0,0-4.147-4.06c-1.753-1.6-3.537-3.177-5.2-4.871v3.394c4.25-3.424,9.444-6.9,14.048-10.323a2.49,2.49,0,0,0,1.1-2.71,14.713,14.713,0,0,0-3.082-4.939,70.945,70.945,0,0,0-5.23-5.543,152.616,152.616,0,0,0-11.809-10.388,2.477,2.477,0,0,0-3.394,0,2.416,2.416,0,0,0,0,3.394Z"/><path class="c" d="M70.67,131.331a152.43,152.43,0,0,0-11.809,10.388,70.757,70.757,0,0,0-5.23,5.543,14.716,14.716,0,0,0-3.083,4.939,2.478,2.478,0,0,0,1.1,2.71c4.607,3.425,9.8,6.9,14.049,10.323V161.84c-1.666,1.694-3.449,3.269-5.2,4.871a34.734,34.734,0,0,0-4.147,4.06c-.591.759-1.067,2.013-.376,2.908,3.131,4.056,5.816,8.533,8.662,12.788q7.331,10.965,14.607,21.965,3.3,4.989,6.583,9.988c1.686,2.574,5.844.172,4.145-2.423q-13.08-19.974-26.438-39.77c-1.12-1.66-2.19-3.384-3.414-4.971l-.375,2.909a34.734,34.734,0,0,1,4.147-4.06c1.753-1.6,3.536-3.177,5.2-4.871a2.416,2.416,0,0,0,0-3.394c-4.84-3.9-10.034-7.367-15.02-11.074l1.1,2.711c.022-.077.057-.323.127-.376-.32.243-.144.28.056-.056.19-.321.373-.641.581-.951a16.424,16.424,0,0,1,1.591-2.038c1.631-1.894,3.4-3.67,5.2-5.4,3.616-3.481,7.395-6.819,11.335-9.929a2.414,2.414,0,0,0,0-3.394,2.459,2.459,0,0,0-3.394,0Z"/><path class="c" d="M165.386,278.716c-.249-7.457-.377-14.907-.327-22.369.025-3.765.132-7.531.471-11.282.331-3.662,1-7.258,1.634-10.876,2.534-14.416,4.717-28.893,6.658-43.4q1.543-11.534,2.839-23.1a2.415,2.415,0,0,0-2.4-2.4,2.456,2.456,0,0,0-2.4,2.4q-2.361,21.238-5.6,42.369-1.636,10.788-3.5,21.541c-.645,3.7-1.358,7.389-1.793,11.123-.429,3.68-.615,7.383-.683,11.086-.151,8.3.02,16.607.3,24.905.1,3.081,4.9,3.095,4.8,0Z"/><path class="c" d="M24.7,168.344q2.384,21.449,5.678,42.784,1.663,10.889,3.558,21.739c.612,3.49,1.3,6.966,1.68,10.492.387,3.632.545,7.283.6,10.934.121,8.151-.038,16.3-.307,24.443-.1,3.09,4.7,3.086,4.8,0,.484-14.668,1.013-29.46-1.581-43.964q-3.867-21.617-6.785-43.39-1.56-11.5-2.843-23.038a2.473,2.473,0,0,0-2.4-2.4,2.415,2.415,0,0,0-2.4,2.4Z"/><path class="c" d="M78.389,73.616c-.714,2.32-.249,7.657,4.147,8.111,5.809-.035,6.118-6.487,4.163-9.521C85.1,69.722,80.39,68.689,78.389,73.616Z"/><path class="c" d="M124.719,73.616c.714,2.32.249,7.657-4.146,8.111-5.81-.035-6.119-6.488-4.164-9.521C118.01,69.722,122.718,68.689,124.719,73.616Z"/><path class="c" d="M133.926,90.256a85.936,85.936,0,0,1,13.015-19.124c2.107-2.256-1.28-5.658-3.394-3.394a90.505,90.505,0,0,0-13.765,20.1,2.454,2.454,0,0,0,.861,3.284,2.424,2.424,0,0,0,3.283-.861Z"/><path class="c" d="M54.717,71.592c5.163,5.579,9.168,12.31,13.055,18.864,1.574,2.655,5.725.243,4.144-2.423C67.829,81.142,63.575,74.1,58.111,68.2c-2.1-2.272-5.491,1.128-3.394,3.394Z"/><path class="a" d="M100.512,85.73c-6.791,0-17.928,1.309-25.66,2.435-1.348.2-4.685.489-5.564,1.48-1.635,1.843-1.014,5.777-1.226,8.012a57.1,57.1,0,0,0,.318,10.721c.49,4.712.728,9.733,3.957,13.409,5.971,6.794,19.806,10.412,28.9,10.412a54.985,54.985,0,0,0,17.786-3.221c4.957-1.777,9.591-4.759,12.185-9.045,2.446-4.041,2.351-8.093,2.875-12.7a47.65,47.65,0,0,0,.189-9.753c-.224-2.228.345-5.87-1.31-7.735-.879-.991-3.629-1.387-4.979-1.568C119.486,87.039,108.056,85.73,100.512,85.73Z"/><path class="c" d="M100.512,83.33a162.75,162.75,0,0,0-20.129,1.679q-2.565.328-5.126.692c-.348.049-.7.1-1.043.15.5-.072-.323.041-.46.06-.781.1-1.564.2-2.338.351a6.991,6.991,0,0,0-3.914,1.8,7.74,7.74,0,0,0-1.693,4.593c-.158,1.485-.044,2.973-.112,4.46-.082,1.818-.208,3.609-.148,5.433a103.7,103.7,0,0,0,1.015,11.027,18.632,18.632,0,0,0,4.076,9.912,24.33,24.33,0,0,0,6.761,5.157c12.04,6.555,26.6,7.428,39.594,3.525,6.75-2.026,13.824-5.686,17-12.349,1.639-3.443,1.961-7.135,2.315-10.88a67.622,67.622,0,0,0,.35-11.592c-.226-2.976.3-6.275-1.625-8.82-1.885-2.489-5.705-2.572-8.535-2.943-7.111-.932-14.257-1.771-21.423-2.126-1.519-.075-3.04-.122-4.561-.126-3.089-.007-3.094,4.793,0,4.8a171.5,171.5,0,0,1,19.008,1.394c2.957.338,6.064.661,8.892,1.126.875.143,2.353.238,2.977.86-.256-.255.156.663.188.789a9.264,9.264,0,0,1,.21,2.035c.082,3.084.342,6.165.19,9.252a77.147,77.147,0,0,1-1,9.963c-1.144,6.262-5.771,10.37-11.49,12.694a48.266,48.266,0,0,1-35.784.069c-4.577-1.793-9.864-4.643-11.536-9.594a40.635,40.635,0,0,1-1.466-9.093,63.943,63.943,0,0,1-.221-10.234c.086-1.408-.039-2.823.079-4.23.045-.531.286-1.148.318-1.589,0,.051.309-.567-.066-.119.143-.171.264-.16.646-.274a54.4,54.4,0,0,1,8.533-1.32,164.6,164.6,0,0,1,20.519-1.729C103.6,88.122,103.606,83.322,100.512,83.33Z"/></svg>