<?xml version="1.0" encoding="utf-8"?>
<!-- Uploaded to: SVG Repo, www.svgrepo.com, Generator: SVG Repo Mixer Tools -->
<svg width="800px" height="800px" viewBox="-30.61 0 429.388 429.388" xmlns="http://www.w3.org/2000/svg"><defs><style>.a{fill:#ffffff;}.b{fill:#211715;}.c{fill:#5d5654;}.d{fill:#6dbf6b;}.e{fill:#ffda71;}.f{fill:#f2635f;}.g{fill:#99d298;}.h{fill:#f4b467;}.i{fill:#ad7b59;}.j{fill:#f4b3b3;}</style></defs><path class="a" d="M137.138,192.986c8.172,6.822,26.525,12.635,42.546,12.675,14.034.035,32.888-5.341,40.674-10.946a2.843,2.843,0,0,1,2.117-.489c22.217,3.638,33.05,7.521,42.619,14.351,7.157,5.108,16.222,14.666,20.222,24.148,10.234,24.163,14.62,55.188,12.149,77.309-1,8.961-.988,16.5-3.973,24.175a18.209,18.209,0,0,1-6.238,8c-49.24.053-130.466.2-182.177.24l-.029-.023c-1.911-1.486-3.185-6.369-2.973-9.341-11.259,2.443-22.2,1.027-30.463-6.884a38.676,38.676,0,0,1-12.444-26.074c-1.286-18.237,9.443-51.059,13.481-61.777,3.582-9.81,13.162-27.544,30.075-36,7.111-3.556,24.444-9.334,34.414-9.369"/><path class="b" d="M288.168,344.591q9.484-.006,18.97,0c3.089,0,3.094-4.8,0-4.8q-9.484,0-18.97,0c-3.089,0-3.094,4.8,0,4.8Z"/><path class="b" d="M61,344.866q25.074,0,50.147-.038,31.381-.036,62.764-.085l36.261-.054c3.088,0,3.094-4.805,0-4.8q-32.358.048-64.717.095-29.341.041-58.684.07-12.886.01-25.771.012c-3.088,0-3.094,4.8,0,4.8Z"/><path class="a" d="M218.1,94.627q-.518-.7-1.045-1.384a35.3,35.3,0,0,0-17.63-11.6l-8.573-2.2-.79.561c-4.05,2.875-18.125,14.368-19.107,13.863-.675-.348-3.7-10.8-3.783-11.947-22.191,7.844-33.289,19.39-41.45,36.881l-.107.229-1.8-1.626a7.353,7.353,0,0,0-5.879-1.72A6.939,6.939,0,0,0,112.95,119a9.793,9.793,0,0,0-1.026,3.946,29.388,29.388,0,0,0,3,15.579,18.686,18.686,0,0,0,4.831,6.34c1.762,1.406,4.007,2.96,7.009,1.8-.578,7.952,3.138,17.581,8.852,23.024,4.35,4.143,10.845,8.274,18.427,8.243-.171,1.422-.371,2.824-.641,4.3-.56,3.23-.38,6.12-4.87,7.74-.07.02-.92.3-1.58.48l-9.687,2.642c8.23,6.777,26.481,12.533,42.423,12.572,13.658.034,31.881-5.057,40.024-10.5,7.274,3.5-11.423-5.393-11.773-5.521-4.49-1.621-4.318-4.509-4.884-7.732-.234-1.357-.306-1.4-.454-2.808,12.254-2.557,19.8-12.017,22.571-20.083,1.078-3.136,2.51-6.567,2.827-11.446a5.671,5.671,0,0,0,6.3-1.092,18.67,18.67,0,0,0,4.83-6.34,29.392,29.392,0,0,0,3-15.579,9.811,9.811,0,0,0-1.027-3.946,6.937,6.937,0,0,0-4.987-3.316,7.348,7.348,0,0,0-5.879,1.72s-1.252,1.13-2.505,2.263v-.042C227.515,110,223.241,101.6,218.1,94.627Z"/><path class="c" d="M239.857,98.66a67.008,67.008,0,0,0-2.55-19.636c-2.16-6.912-10.715-17.227-17.131-19.979l-6.4-5.187C208.518,42.02,188.8,34.992,174.046,34.627c-3.557-.087-9.865.234-12.8,2.244.629,1.038,5.315,2.727,6.678,3.4-7.291-.138-12.041.934-18.227,2.751-12.175,3.577-20.484,13.466-20.32,14.089s4.74.218,5.7.176c-7.393,6.121-14.338,15.964-16.587,25.295-2.954,12.26-.306,36.72,4.886,34.476a3.8,3.8,0,0,1,.439.347l1.8,1.625.107-.228c8.161-17.491,19.259-29.037,41.45-36.881.078,1.142,3.108,11.6,3.783,11.947.982.505,15.057-10.988,19.107-13.863l9.363,1.637a35.3,35.3,0,0,1,17.63,11.6c5.592,7.237,10.444,16,10.667,28v.04l2.505-2.261a7.348,7.348,0,0,1,5.879-1.72.95.95,0,0,1,.183.041C238.7,112.533,239.781,105.661,239.857,98.66Z"/><path class="b" d="M99.675,333.09a17.088,17.088,0,0,0,.8,5.929c.541,1.788,1.373,3.9,2.88,5.109a2.6,2.6,0,0,0,1.7.7,2.4,2.4,0,0,0,1.7-4.1,5.354,5.354,0,0,1-.647-.657c.559.63.115.135-.013-.068q-.147-.237-.279-.483t-.262-.526c-.042-.091-.079-.186-.124-.277.315.628.141.336.077.172-.165-.419-.309-.846-.436-1.278a22.693,22.693,0,0,1-.552-2.565c.142.815.019.1,0-.116s-.035-.444-.045-.667a11.311,11.311,0,0,1,.012-1.179,2.414,2.414,0,0,0-2.4-2.4,2.458,2.458,0,0,0-2.4,2.4Z"/><path class="b" d="M231.926,120.719a4.847,4.847,0,0,1,6.917.81c.885,1.281.923,3.093.97,4.588a25.844,25.844,0,0,1-.346,5.337,26.7,26.7,0,0,1-3.787,9.9c-1.378,2.118-3.595,4.9-6.394,4.135-2.984-.815-4.257,3.814-1.276,4.629,7.728,2.113,12.8-6.782,14.906-12.856a31.239,31.239,0,0,0,1.69-11.367c-.15-3.789-1.05-7.333-4.366-9.537a9.814,9.814,0,0,0-11.708.967,2.421,2.421,0,0,0,0,3.394,2.45,2.45,0,0,0,3.394,0Z"/><path class="b" d="M225.536,142.727a30.144,30.144,0,0,1-1.244,11.458,45.085,45.085,0,0,1-2.978,7.732,29.2,29.2,0,0,1-13.243,12.867,28.529,28.529,0,0,1-12.36,2.584c-3.089-.009-3.093,4.791,0,4.8a33.134,33.134,0,0,0,22.527-8.5,34.363,34.363,0,0,0,6.546-8.113,47.354,47.354,0,0,0,3.672-8.678,35.108,35.108,0,0,0,1.88-14.154,2.459,2.459,0,0,0-2.4-2.4,2.42,2.42,0,0,0-2.4,2.4Z"/><path class="b" d="M125.514,115.705a9.869,9.869,0,0,0-10.577-1.582c-3.617,1.642-5.071,5.063-5.413,8.821-.687,7.544,1.613,16.021,6.638,21.783,2.669,3.061,6.416,5.425,10.592,4.462,3.009-.694,1.736-5.323-1.276-4.628-2.7.624-5.405-2.349-6.777-4.328a26.661,26.661,0,0,1-4.479-15.292,10.344,10.344,0,0,1,.8-4.731c1.359-2.475,5.011-2.88,7.1-1.111a2.464,2.464,0,0,0,3.395,0,2.421,2.421,0,0,0,0-3.394Z"/><path class="b" d="M124.706,143.939c-2.3,13.575,5.735,27.723,17.953,33.634a25.69,25.69,0,0,0,12.88,2.7,2.457,2.457,0,0,0,2.4-2.4,2.42,2.42,0,0,0-2.4-2.4c-7.791.512-15.6-3.761-20.367-9.822-4.3-5.473-7.019-13.465-5.838-20.437a2.471,2.471,0,0,0-1.676-2.952,2.419,2.419,0,0,0-2.952,1.676Z"/><path class="b" d="M147.586,192.761a13.59,13.59,0,0,0,4.279-1.8,8.143,8.143,0,0,0,2.986-3.861,15.613,15.613,0,0,0,.714-3.3c.291-1.954.635-3.894.873-5.857a2.4,2.4,0,0,0-2.4-2.4,2.471,2.471,0,0,0-2.4,2.4q-.043.354-.088.709a2.314,2.314,0,0,1-.041.306c-.062.436-.126.871-.2,1.306-.118.731-.256,1.458-.366,2.19a18.042,18.042,0,0,1-.593,3.006c-.034.1-.073.2-.108.308-.153.448.264-.512.037-.1-.116.213-.231.421-.357.629-.27.443.213-.217.053-.052-.081.083-.152.177-.232.261q-.15.158-.312.3-.084.076-.171.147c-.137.112-.077.066.178-.138,0,.115-.673.428-.786.489-.163.088-.333.161-.5.247-.236.124.362-.128-.071.028-.583.211-1.181.387-1.778.554a2.4,2.4,0,1,0,1.276,4.628Z"/><path class="b" d="M200.2,179.172c.214,1.924.566,3.856.912,5.762a8.575,8.575,0,0,0,2.509,4.936,10.691,10.691,0,0,0,3.29,1.942c1.012.4-.512-.256,0-.01.178.085.358.165.536.249q2.125.993,4.243,2l5.958,2.818a2.468,2.468,0,0,0,3.284-.861,2.421,2.421,0,0,0-.861-3.284q-4.691-2.215-9.379-4.432c-.994-.468-2.1-.89-2.844-1.288-.2-.106-.394-.223-.585-.344-.09-.057-.178-.118-.264-.181.029.021.281.241.09.061-.139-.131-.277-.261-.413-.4-.065-.065-.118-.141-.183-.206.123.121.2.3.054.059-.1-.174-.208-.345-.307-.521-.042-.075-.071-.157-.114-.231.01.017.147.431.078.18-.1-.361-.236-.708-.321-1.074-.194-.828-.295-1.674-.427-2.512-.084-.535-.183-1.066-.285-1.6-.038-.193-.07-.387-.109-.58-.008-.044-.058-.343-.014-.064.055.353-.053-.467-.048-.425a2.471,2.471,0,0,0-2.4-2.4,2.415,2.415,0,0,0-2.4,2.4Z"/><path class="b" d="M137.138,190.586c-7.225.063-14.518,2.044-21.365,4.192-6.51,2.042-13.109,4.413-18.865,8.138-11.737,7.6-20.337,19.578-25.629,32.378-1.854,4.486-3.367,9.133-4.846,13.753-2.13,6.654-4.055,13.378-5.688,20.172a150.451,150.451,0,0,0-3.786,21.594c-.665,7.39-.214,14.919,2.564,21.877a41.758,41.758,0,0,0,13.1,17.51c6.711,5.158,15.266,6.965,23.6,6.2a55.633,55.633,0,0,0,6.5-1c3.02-.643,1.742-5.271-1.276-4.629-7.437,1.583-15.523,1.545-22.378-2.108C73.135,325.51,68.379,319.92,65.344,314c-6.356-12.4-3.672-27.062-.774-40.04A263.439,263.439,0,0,1,74.785,239.47a64,64,0,0,1,2.623-6.206,78.366,78.366,0,0,1,4.368-7.847,63.73,63.73,0,0,1,13.681-15.571c5.134-4.137,10.855-6.728,16.909-8.876a99.5,99.5,0,0,1,20.327-5.269,37.344,37.344,0,0,1,4.445-.315c3.087-.027,3.094-4.827,0-4.8Z"/><path class="b" d="M287.388,231.514A56.682,56.682,0,0,0,276.7,215.761a66.908,66.908,0,0,0-12.255-10.538c-7.322-4.842-15.655-7.8-24.133-9.9-2.9-.717-5.821-1.342-8.753-1.912q-2.367-.459-4.743-.875c-1.728-.3-3.65-.893-5.4-.694a7.6,7.6,0,0,0-3.305,1.5c-.946.608-1.929,1.157-2.93,1.668a56.73,56.73,0,0,1-6.8,2.885c-10.833,3.871-22.545,6.025-34.059,5.144a85.281,85.281,0,0,1-20.506-4.222c-5.213-1.746-10.839-4.116-14.98-7.533a2.469,2.469,0,0,0-3.394,0,2.418,2.418,0,0,0,0,3.394,48.682,48.682,0,0,0,13.443,7.443,86.821,86.821,0,0,0,17.905,4.811,76.308,76.308,0,0,0,18.211.905,97.87,97.87,0,0,0,17.626-3.123,76.323,76.323,0,0,0,15.108-5.627c.877-.453,1.74-.934,2.575-1.459.421-.265.823-.612,1.26-.846.6-.318.98-.13,1.681-.012,3.294.553,6.582,1.153,9.852,1.835,9.062,1.889,17.98,4.307,25.917,8.9a59.216,59.216,0,0,1,12.3,9.569,55.136,55.136,0,0,1,11.93,16.857,2.413,2.413,0,0,0,3.283.861,2.461,2.461,0,0,0,.861-3.283Z"/><path class="b" d="M250.473,292.106c1.845-5.974,2.707-12.322,3.6-18.491,1.133-7.785,2.066-15.619,2.533-23.474a73.758,73.758,0,0,0,.105-9.861,2.46,2.46,0,0,0-2.4-2.4,2.42,2.42,0,0,0-2.4,2.4c.48,6.414-.24,12.984-.894,19.359-.772,7.521-1.787,15.031-3.176,22.464a78.422,78.422,0,0,1-2,8.727c-.913,2.958,3.719,4.223,4.629,1.276Z"/><path class="b" d="M165.945,180.444A22.462,22.462,0,0,0,187.1,181.88a2.415,2.415,0,0,0,.861-3.283,2.459,2.459,0,0,0-3.283-.861,17.506,17.506,0,0,1-16.31-1.437,2.4,2.4,0,1,0-2.423,4.145Z"/><path class="b" d="M188.853,77.93c-4.5,3.207-8.64,6.675-13.018,9.95a57.433,57.433,0,0,1-5.33,3.676c-.378.221-.162.032.155-.05-.385.1.785,0,.965.055-.116-.033,1.223.534,1.257.922a1.248,1.248,0,0,0-.091-.161.927.927,0,0,1-.1-.206c-.073-.386.155.4.042.11-.44-1.124-.822-2.267-1.186-3.417q-.7-2.22-1.321-4.465c-.173-.627-.343-1.256-.5-1.889-.08-.331-.261-1.651-.154-.537-.137-1.428-1.44-2.882-3.038-2.314a82.173,82.173,0,0,0-22.011,11.281,63.476,63.476,0,0,0-14.87,15.84,85.085,85.085,0,0,0-6,10.863,2.468,2.468,0,0,0,.861,3.283,2.421,2.421,0,0,0,3.284-.861,72.136,72.136,0,0,1,10.935-17.329,59.759,59.759,0,0,1,16.345-12.85,88.325,88.325,0,0,1,12.736-5.6l-3.038-2.315a38.253,38.253,0,0,0,1.909,7.417c.408,1.321.822,2.646,1.327,3.934.467,1.191.959,2.542,2.339,2.921,1.979.542,4.239-1.5,5.707-2.548,2.744-1.969,5.411-4.049,8.082-6.116,2.509-1.942,4.529-3.591,7.137-5.452a2.466,2.466,0,0,0,.861-3.283,2.418,2.418,0,0,0-3.283-.861Z"/><path class="b" d="M198.789,83.953c12.041,3.172,20.817,14.025,24.562,25.52a40.869,40.869,0,0,1,1.973,11.77c.072,3.084,4.872,3.1,4.8,0a46.346,46.346,0,0,0-5.911-21.613c-3.484-6.239-7.982-11.8-14.022-15.71a35.554,35.554,0,0,0-10.126-4.595c-2.99-.788-4.266,3.841-1.276,4.628Z"/><path class="b" d="M215.852,52.646c-3.251-7.15-10.526-11.894-17.492-14.92a65,65,0,0,0-24.727-5.506c-4.4-.065-9.793.1-13.6,2.578a2.425,2.425,0,0,0-.861,3.284c1.7,2.367,5.313,3.194,7.54,4.258l1.211-4.472c-9.319-.144-19.209,1.865-27.377,6.475a48.052,48.052,0,0,0-9.292,6.869,18.353,18.353,0,0,0-3.926,4.557,2.626,2.626,0,0,0,.386,3.1,3.987,3.987,0,0,0,2.7.955,38.08,38.08,0,0,0,4.667-.138l-1.7-4.1a53.341,53.341,0,0,0-16.567,24.077c-2.46,7.734-2.358,16.518-1.465,24.5a38.852,38.852,0,0,0,2.712,11.664,2.417,2.417,0,0,0,3.283.861,2.458,2.458,0,0,0,.861-3.284c-.186-.416-.047-.109-.013-.021-.055-.142-.113-.283-.164-.426-.11-.3-.217-.608-.315-.916-.232-.729-.428-1.469-.6-2.213a46.125,46.125,0,0,1-.86-4.812,78.946,78.946,0,0,1-.565-11.876A45.929,45.929,0,0,1,121,82.46,41.963,41.963,0,0,1,126.692,70.3a52.1,52.1,0,0,1,10.084-11.315c1.591-1.329.3-4.2-1.7-4.1-.866.043-1.73.112-2.6.144-.535.02-1.072.035-1.607.017-.19-.006-.379-.016-.569-.032s-.139-.011.173.024q-.9-.249.97.859l.327,1.212c.027.25-.517,1.25-.171.832.139-.167.255-.371.381-.548-.442.618.166-.187.336-.383.295-.341.6-.673.912-1a39.193,39.193,0,0,1,5.083-4.5,42.9,42.9,0,0,1,8.171-4.8,52.993,52.993,0,0,1,9.577-2.908,49.985,49.985,0,0,1,11.858-1.141c2.275.035,3.41-3.422,1.211-4.473-1.115-.533-2.245-.956-3.329-1.434-.637-.28-1.273-.569-1.887-.9-.222-.119-.44-.247-.657-.377s-.134-.091.056.173l-.861,3.284c2.825-1.841,6.97-1.911,10.292-1.928a54.061,54.061,0,0,1,10.786,1.09c7.514,1.493,15.1,4.17,21.288,8.789a21.278,21.278,0,0,1,6.884,8.175,2.419,2.419,0,0,0,3.284.861,2.458,2.458,0,0,0,.861-3.284Z"/><path class="b" d="M218.965,61.118c3.695,1.631,6.707,4.625,9.317,7.635a33.878,33.878,0,0,1,6.539,10.391,49.856,49.856,0,0,1,2.316,11.737,71.492,71.492,0,0,1,0,13.66c-.43,4.322-1.348,8.854-3.456,12.584-1.522,2.692,2.623,5.114,4.145,2.422a34.414,34.414,0,0,0,3.776-12.26,70.907,70.907,0,0,0,.449-14.964,62.861,62.861,0,0,0-2.307-13.517,36.435,36.435,0,0,0-6.895-12.036c-3.077-3.826-6.9-7.783-11.466-9.8a2.477,2.477,0,0,0-3.284.861,2.418,2.418,0,0,0,.861,3.284Z"/><path class="b" d="M93.826,282.3c3.3,1.3,6.858,2.052,10.257,3.031,2.393.69,4.781,1.4,7.152,2.162,1.12.362,2.237.736,3.346,1.135.492.177.982.358,1.47.547.247.1.493.195.741.293.1.04.2.082.306.124-.215-.088-.175-.076.015.007a18.4,18.4,0,0,1,2.472,1.248c.138.087.268.185.406.27.331.2-.431-.356-.018,0,.237.206.092.269.081.049,0-.013-.172-.306-.2-.4.934,2.932,5.57,1.679,4.628-1.276-.518-1.627-2.015-2.605-3.463-3.348a47.668,47.668,0,0,0-6.24-2.528c-4.815-1.662-9.735-3.007-14.632-4.4-1.684-.479-3.413-.906-5.045-1.547a2.418,2.418,0,0,0-2.952,1.676,2.456,2.456,0,0,0,1.676,2.952Z"/><path class="b" d="M102.6,335.405a28.573,28.573,0,0,0,9.646-5.313A34.221,34.221,0,0,0,122.72,316.46a36.71,36.71,0,0,0,2.737-12.439c.159-3.087-4.641-3.078-4.8,0a30.547,30.547,0,0,1-6.01,16.927,29.777,29.777,0,0,1-9.82,8.325q-.585.318-1.185.607c-.224.108-1.352.593-.613.293a15.229,15.229,0,0,1-1.7.6c-2.975.816-1.712,5.448,1.276,4.629Z"/><path class="a" d="M251.339,328.676s10.49-5.91,16.71-.8c2.882,2.457,9.775,10.049,6.539,16.14-7.228,8.37-14.832,15.723-23.879,14.43-3.092,4.232-13.864,15.795-15.5,4.96-2.5,3.081-6.208,7.294-10.63,6.2-2.16-.58-3.76-3.27-2.59-5.18-4.282,5.536-12.321-.921-8.38-6.49-4.275,5.129-9.761-1.353-7.469-6.291,1.081-3.039,4.108-8.255,6-11.469,6.633-13.035,17.48-17.559,28.87-6.97a27.669,27.669,0,0,0,8.66-3.54h.01Z"/><path class="b" d="M242.6,335.3a31.293,31.293,0,0,0,8.284-3.562l-1.212.328h.01a2.4,2.4,0,1,0,0-4.8,3.935,3.935,0,0,0-1.943.747q-.572.326-1.154.631-1.128.591-2.3,1.088l.573-.242a24.591,24.591,0,0,1-3.534,1.181A2.4,2.4,0,0,0,242.6,335.3Z"/><path class="b" d="M246.982,366.092c2.858-2.717,5.274-5.848,7.87-8.807a2.4,2.4,0,0,0-3.394-3.394c-2.6,2.958-5.012,6.09-7.87,8.807a2.421,2.421,0,0,0,0,3.394,2.448,2.448,0,0,0,3.394,0Z"/><path class="b" d="M206.483,345.316c-2.09,3.942-4.483,8.464-2.349,12.916a6.592,6.592,0,0,0,11.169,1.4l-3.769-2.908a8.272,8.272,0,0,0,1.314,10.458,7.819,7.819,0,0,0,10.84-1.061l-3.769-2.908c-2.329,4.334,1.552,8.927,6.052,8.991,4.773.067,8.634-4.106,11.312-7.585l-4.387-1.85a6.5,6.5,0,0,0,4.866,7.366c3.592.859,6.79-1.768,9.22-4.041,2.261-2.114-1.138-5.5-3.394-3.394-1.1,1.034-2.522,2.522-4.1,2.77-.733.116-2.11-.681-1.962-1.425.554-2.791-2.75-3.975-4.387-1.849-1.476,1.917-3.553,4.2-5.91,5a2.764,2.764,0,0,1-2.607-.218c-.474-.395-.746-.991-.557-1.342a2.411,2.411,0,0,0-.619-3.1,2.375,2.375,0,0,0-3.151.187c-.984,1.246-2.921,1.967-4.284.865-1.309-1.058-1.16-3.192-.332-4.446,1.485-2.247-1.985-4.99-3.769-2.908-.553.645-1.35,1.371-2.184,1.145a2.779,2.779,0,0,1-1.626-2.335c-.362-2.535,1.411-5.2,2.529-7.308,1.446-2.727-2.695-5.155-4.145-2.422Z"/><path class="b" d="M249.557,338.753c-1.506-1.425-2.7-3.1-4.087-4.633a34.011,34.011,0,0,0-4.733-4.188,23.71,23.71,0,0,0-11.4-5.067,14.09,14.09,0,0,0-10.253,2.9,35.811,35.811,0,0,0-7.053,8.058,90.325,90.325,0,0,0-5.548,9.488c-1.456,2.723,2.686,5.15,4.145,2.422,2.757-5.153,5.643-10.578,9.793-14.774a10.238,10.238,0,0,1,7.272-3.4c3.512-.016,6.775,1.756,9.567,3.735a29.983,29.983,0,0,1,4.512,3.883c1.518,1.616,2.776,3.437,4.391,4.966,2.244,2.122,5.644-1.266,3.394-3.4Z"/><path class="b" d="M272.458,343.444a114.57,114.57,0,0,1-11.023,9.642c-.693.511-1.4,1.008-2.135,1.455-.315.191-.659.342-.97.538-.391.246.323-.114.055-.015-.147.054-.292.112-.44.165a15.2,15.2,0,0,1-5.963,1.05,2.4,2.4,0,1,0,0,4.8,18.307,18.307,0,0,0,11.644-3.679,120.048,120.048,0,0,0,12.226-10.562c2.235-2.141-1.162-5.532-3.394-3.394Z"/><path class="b" d="M215.678,359.144c3.254-4.528,6.127-9.319,9.417-13.822a2.41,2.41,0,0,0-.861-3.284,2.469,2.469,0,0,0-3.284.861c-3.29,4.5-6.163,9.294-9.416,13.823a2.409,2.409,0,0,0,.861,3.283,2.464,2.464,0,0,0,3.283-.861Z"/><path class="b" d="M224.349,365.292c1.461-2.143,2.858-4.328,4.315-6.474.713-1.05,1.442-2.091,2.2-3.112.193-.261.389-.521.585-.78l.149-.195q-.148.191,0,0l.309-.392q.673-.847,1.376-1.67a2.4,2.4,0,1,0-3.394-3.395c-3.623,4.257-6.545,8.992-9.685,13.6a2.415,2.415,0,0,0,.861,3.284,2.46,2.46,0,0,0,3.284-.861Z"/><path class="b" d="M237.283,364.617q1.035-1.394,2.093-2.769l-.375.486q1.9-2.46,3.912-4.836a2.564,2.564,0,0,0,.7-1.7,2.4,2.4,0,0,0-4.1-1.7c-2.218,2.624-4.332,5.333-6.381,8.09a2.414,2.414,0,0,0-.242,1.849,2.4,2.4,0,0,0,2.952,1.677,2.792,2.792,0,0,0,1.435-1.1Z"/><path class="d" d="M153.049,205.94a13.859,13.859,0,0,0,13.367-4.706c2.152-2.7,2.98-7.083.391-9.377-1.258-1.1-3-1.443-4.457-2.27-2.764-1.566-4.9-5.033-8.05-4.6-2.513.337-4.589,3.211-7.007,2.426a16.191,16.191,0,0,1-2.388-1.477c-2.285-1.192-5.231.395-6.433,2.682s-1.115,5-1.01,7.58c0,0,2.118,5.408,6.284,6.751S153.049,205.94,153.049,205.94Z"/><path class="a" d="M155.789,200.363c-2.456,3.8-4.218,8.348-7.109,11.638-1.1,1.25-2.759,2.139-3.863,3.383-3.871,4.364-5.112,7.624-7.387,11.869l-8.708.092c1.149-1.868,3.631-5.748,4.095-7.89.684-3.163-.189-6.116.376-9.3.569-3.214,2.577-5.959,4.528-8.576l5.521-7.407s1.605,1.249,5.605,3.693A15.3,15.3,0,0,0,155.789,200.363Z"/><path class="b" d="M130.795,228.556a50.871,50.871,0,0,0,3.672-6.6c1.313-3.075.885-6.205.925-9.454.039-3.217,1.553-5.792,3.386-8.339,2.132-2.961,4.356-5.86,6.536-8.785a2.415,2.415,0,0,0-.861-3.284,2.457,2.457,0,0,0-3.283.861c-2.139,2.869-4.311,5.715-6.411,8.612a19.546,19.546,0,0,0-4.041,9.059c-.361,3,.593,6.323-.528,9.2a40.507,40.507,0,0,1-3.54,6.3c-1.626,2.636,2.525,5.05,4.145,2.422Z"/><path class="b" d="M146.975,196.826c-1.837,2.706-3.739,5.37-5.623,8.044a2.424,2.424,0,0,0-.242,1.849,2.4,2.4,0,0,0,4.387.574c1.884-2.674,3.786-5.338,5.623-8.045a2.415,2.415,0,0,0-.861-3.283,2.459,2.459,0,0,0-3.284.861Z"/><path class="b" d="M153.716,199.152c-1.5,2.355-2.713,4.87-4.106,7.287a18.976,18.976,0,0,1-4.874,5.805c-4.152,3.258-6.522,8.313-8.9,12.889-1.422,2.737,2.719,5.168,4.145,2.422,2.388-4.6,4.626-9.143,8.784-12.411,4.34-3.41,6.211-9.041,9.095-13.57,1.664-2.613-2.489-5.024-4.145-2.422Z"/><path class="b" d="M139.862,196.193c-.082-2.067-.3-4.467.682-6.369.531-1.026,1.893-2.262,3.131-1.824.938.331,1.656,1.2,2.611,1.572a5.343,5.343,0,0,0,3.332.167,10.712,10.712,0,0,0,2.651-1.227,6.787,6.787,0,0,1,2.343-1.158c1.188-.156,2.435,1.09,3.339,1.87a18.641,18.641,0,0,0,5.164,3.338c1.352.561,2.673,1.1,2.884,2.68a6.413,6.413,0,0,1-1.481,4.546,11.433,11.433,0,0,1-10.831,3.837,2.465,2.465,0,0,0-2.952,1.677,2.421,2.421,0,0,0,1.676,2.952,16.611,16.611,0,0,0,14.471-3.99c3.543-3.316,5.694-9.567,2.081-13.635-1.7-1.915-4.277-2.212-6.269-3.672-1.88-1.377-3.393-3.158-5.629-4-2.544-.958-4.876.018-7.07,1.322-.613.364-1.5,1.021-2.064.814a7.2,7.2,0,0,1-1.3-.914,6.2,6.2,0,0,0-2.009-.891c-2.948-.7-5.949.918-7.667,3.259-2.02,2.754-2.02,6.385-1.891,9.646.123,3.078,4.923,3.094,4.8,0Z"/><path class="b" d="M100.186,279.2a47.864,47.864,0,0,1,.529-17.8c.594-3.023,1.368-6,1.906-9.035a38.187,38.187,0,0,1,1.851-7.618,16.135,16.135,0,0,1,4.664-6.423,42.892,42.892,0,0,1,6.269-3.9,30.685,30.685,0,0,1,8.8-3.275,73.71,73.71,0,0,1,8.822-1.109,11.916,11.916,0,0,1,3.95-.037,3.013,3.013,0,0,1,1.8,1.573c.05.081.29.721.113.2.108.317.038.785.108.174a2.457,2.457,0,0,1-.145.853c.155-.439-.08.157-.139.226.385-.452-.442.405-.169.174a11.024,11.024,0,0,1-2.129,1.238c-2.753,1.4-.326,5.546,2.423,4.145,2.685-1.37,4.942-3.242,4.965-6.505.017-2.492-2.016-5.061-4.148-6.139-2.894-1.463-6.563-.758-9.659-.433a50.6,50.6,0,0,0-10.366,1.843,44.954,44.954,0,0,0-9.882,4.822,25.43,25.43,0,0,0-7.151,6.231c-3.887,5.153-4.141,11.5-5.59,17.548-1.933,8.069-2.962,16.293-1.455,24.521a2.422,2.422,0,0,0,2.953,1.676,2.452,2.452,0,0,0,1.676-2.952Z"/><path class="b" d="M117.268,245.89a22.426,22.426,0,0,1,6.307-3.8,55.414,55.414,0,0,1,10.715-2.845,10.736,10.736,0,0,1,4.7-.037c1.159.38,1.583.85,1.516,1.89a5.383,5.383,0,0,1-.239,1.088q-.25.381-.028.126c-.2.187-.226.223-.092.11a3,3,0,0,1-.518.288,15.967,15.967,0,0,1-5.116.963,2.462,2.462,0,0,0-2.4,2.4,2.418,2.418,0,0,0,2.4,2.4c3.167-.264,7.663-.514,9.639-3.433,1.772-2.618,1.6-6.753-.9-8.827-3-2.5-6.845-2.143-10.466-1.559a56.958,56.958,0,0,0-10.662,2.873,29.2,29.2,0,0,0-8.249,4.967,2.416,2.416,0,0,0,0,3.395,2.458,2.458,0,0,0,3.394,0Z"/><path class="b" d="M124.03,252.943c-.476.628-.016.106.124-.027-.3.289-.084.061.12-.08.433-.3.886-.572,1.343-.834.857-.492,1.738-.944,2.63-1.369.354-.168.712-.33,1.071-.487q.37-.159.029-.012c.109-.045.218-.09.328-.133.273-.107.544-.216.818-.319a23.094,23.094,0,0,1,3.462-1.049c.1-.02.905-.126.456-.086.222-.02.444-.036.667-.034.136,0,.272.007.408.019-.222-.027-.237-.026-.046,0,.3.054.594.113.887.19.238.062.472.136.705.215q.406.151.086.034.213.1.416.225a2.592,2.592,0,0,1,.925.822,3.323,3.323,0,0,1,.274.422c.249.411,0-.238.089.258.043.151.079.3.109.457q-.032-.364.009.082c.013.247.023.494.014.743,0,.055-.081.754-.016.354a9.653,9.653,0,0,1-.235.952c-.148.547.163-.175-.122.29a4.369,4.369,0,0,1-.229.384q.246-.291-.023.013a2.452,2.452,0,0,0,0,3.394,2.424,2.424,0,0,0,3.394,0A8.629,8.629,0,0,0,143.58,250a7.767,7.767,0,0,0-4.937-5.558c-4.34-1.738-9.049.226-13,2.131-2.062.994-4.349,2.085-5.76,3.946a2.414,2.414,0,0,0,.861,3.283,2.459,2.459,0,0,0,3.284-.861Z"/><path class="b" d="M129.07,260.81a12.528,12.528,0,0,1,4.236-2.622,10.81,10.81,0,0,1,5.113-.252c.189.04.376.091.563.139-.144-.037-.753-.3.074.042-.237-.1-.286-.083.075.014.425.114.256.279.128.12-.163-.2.137.186.172.317a2.337,2.337,0,0,1-.009,1.16,6.205,6.205,0,0,1-.866,1.973c-.076.124-.311.342.021,0-.115.118-.19.076-.059.065.259-.022-.7.342-.453.236-2.752,1.192-5.64,1.3-8.149,3.117-2.636,1.9-3.179,5.109-3.831,8.115a9.966,9.966,0,0,1-.964,3.023,10.705,10.705,0,0,1-2.195,2.393c-1.828,1.646-3.938,3.256-5.114,5.462-1.453,2.725,2.689,5.153,4.145,2.423,1.085-2.035,3.314-3.486,4.971-5.046a12.114,12.114,0,0,0,3.659-6.391,30.927,30.927,0,0,1,1.422-5.437c-.212.493.107-.134.194-.264-.384.575.377-.328.2-.182-.011.009.607-.409.818-.536.183-.11.369-.217.556-.32.057-.032.65-.331.339-.2-.369.161.3-.094.3-.093.156-.048.311-.1.468-.142.351-.1.706-.195,1.06-.288.868-.229,1.741-.446,2.595-.726a7.12,7.12,0,0,0,4.295-3.008,8.62,8.62,0,0,0,1.173-6.781,5.353,5.353,0,0,0-1.614-2.488c-.145-.125-.989-.759-.124-.094a7.227,7.227,0,0,0-.793-.568,6.257,6.257,0,0,0-1.473-.592,15.463,15.463,0,0,0-7.8.128c-2.573.7-4.5,2.281-6.528,3.907a2.415,2.415,0,0,0,0,3.394,2.458,2.458,0,0,0,3.394,0Z"/><path class="b" d="M260.36,316.869l10.829-.756a2.4,2.4,0,0,0,0-4.8l-10.829.756a2.4,2.4,0,0,0,0,4.8Z"/><path class="b" d="M283,233.363a167.191,167.191,0,0,1,12.179,50.827,136.6,136.6,0,0,1,.059,24.142c-.42,4.477-.8,8.969-1.317,13.434-.479,4.129-1.195,8.575-2.992,12.362a17,17,0,0,1-7.386,7.6,16.226,16.226,0,0,1-4.186,1.617c-.3.074-.611.135-.919.194-.145.028-.294.052-.441.072.489-.067,0-.006-.1,0a10.251,10.251,0,0,1-1.752-.02l1.7.7c-3.372-4.26-6.6-8.72-11.05-11.938a29.47,29.47,0,0,0-16.028-5.1c-2.715-.073-5.452.356-8.163.128l2.315,1.762c-.213-.545.067.532-.011.054-.1-.605-.074.189.007-.226a15.531,15.531,0,0,1,.393-1.563,27.982,27.982,0,0,1,1.425-3.7,28.54,28.54,0,0,1,1.868-3.427c.362-.564-.018,0,.178-.237a4.878,4.878,0,0,0,.809-1.385,13.614,13.614,0,0,0,.835-3.212c.62-4.392-.617-8.879-.824-13.274a31.271,31.271,0,0,1,.877-10.08c.838-2.978-3.792-4.25-4.629-1.276a36.964,36.964,0,0,0-1,12.231c.282,4.807,1.95,9.917.024,14.552l.617-1.059c-1.794,1.922-2.872,4.55-3.852,6.948-.768,1.884-2.148,4.866-1.344,6.926a2.537,2.537,0,0,0,2.314,1.762,60.269,60.269,0,0,0,6.583-.113,27.124,27.124,0,0,1,6.7.739,22.019,22.019,0,0,1,10.852,5.728,54.33,54.33,0,0,1,4.4,4.967c.75.931,1.488,1.871,2.228,2.81a6.584,6.584,0,0,0,1.567,1.745,3.972,3.972,0,0,0,1.9.381c4.209.134,8.639-1.888,11.92-4.377a21.658,21.658,0,0,0,5.423-5.862,29.232,29.232,0,0,0,3.253-8.61c1.546-6.507,1.765-13.273,2.474-19.9,1.279-11.942.559-24.056-1.1-35.923a166.878,166.878,0,0,0-11.171-41.686,2.48,2.48,0,0,0-2.952-1.676A2.414,2.414,0,0,0,283,233.363Z"/><path class="b" d="M176.473,136.842c-.4,1.526-.76,3.069-1.023,4.625a5.372,5.372,0,0,0-.023,2.3,3.228,3.228,0,0,0,1.743,2.107,4.877,4.877,0,0,0,2.3.557c.521-.023,1.019-.154,1.532-.223a2.386,2.386,0,0,0,1.434-1.1,2.4,2.4,0,0,0-.861-3.283l-.573-.242a2.423,2.423,0,0,0-1.276,0c-.229.031-.453.086-.681.118l.638-.086a2.551,2.551,0,0,1-.6,0l.638.086a2.8,2.8,0,0,1-.645-.188l.573.242a3.1,3.1,0,0,1-.382-.2l.486.376a1.014,1.014,0,0,1-.158-.156l.375.486a1.208,1.208,0,0,1-.106-.193l.242.573a1.621,1.621,0,0,1-.073-.3l.086.638a2.855,2.855,0,0,1,.018-.666l-.086.638a44.819,44.819,0,0,1,1.056-4.831,2.4,2.4,0,0,0-4.629-1.276Z"/><path class="b" d="M152.448,125.061c-.8,2.582-.277,8.52,4.613,9.025,6.464-.039,6.808-7.218,4.632-10.593C159.911,120.729,154.673,119.58,152.448,125.061Z"/><path class="b" d="M203.728,125.062c.795,2.581.277,8.519-4.613,9.024-6.463-.039-6.807-7.218-4.632-10.593C196.265,120.729,201.5,119.58,203.728,125.062Z"/><path class="b" d="M177.409,163.65c-.074-.073-.145-.153-.22-.224-.366-.345.192.334.046.059-.047-.089-.109-.172-.158-.261-.231-.419.083.021.014.09.019-.019-.172-.523-.188-.588-.026-.1-.043-.2-.069-.3-.132-.52.031.553,0,.013a10.625,10.625,0,0,1-.017-1.359c.006-.106.02-.212.023-.318.012-.343-.132.595-.012.07.053-.229.1-.456.173-.68.156-.467,0,.088-.042.076,0,0,.154-.3.141-.275.068-.121.219-.5.349-.538-.061.02-.322.349-.083.125.087-.081.178-.168.259-.254.209-.219-.409.262-.148.112.1-.058.2-.12.3-.183.4-.26-.415.122-.115.043.094-.024.185-.059.28-.084.419-.107.043.108-.12-.008a1.97,1.97,0,0,0,.313-.023c.23-.015.46-.043.69-.05.113,0,.226.006.338,0,.529-.023-.5-.126.006-.011.206.048.4.109.608.167.5.141-.351-.194-.064-.027.092.053.191.1.285.149.118.067.231.145.35.211.3.165-.058-.1-.109-.1.141,0,.524.494.61.589.03.034.22.267.226.265-.032.011-.323-.472-.066-.071.117.184.225.37.336.557.216.364-.026-.1-.038-.111.075.067.1.322.131.422s.046.232.077.345q.048.273-.02-.2c.01.088.017.177.023.265a7.255,7.255,0,0,1,.014.794c0,.118-.014.235-.021.353-.018.291.095.118.019-.113.055.166-.106.518-.154.686-.033.113-.074.222-.108.334-.149.5.205-.347-.037.068-.059.1-.111.205-.173.305l-.095.147c-.118.167-.117.168.005,0l.092-.123c-.049.058-.1.114-.155.168-.07.072-.15.137-.22.21-.22.23.5-.3.065-.05-.088.051-.17.11-.258.16a1.9,1.9,0,0,0-.27.142q.477-.189.222-.092c-.071.028-.143.053-.217.076-.1.031-.2.058-.295.082-.232.057-.551.006.033.018-.174,0-.356.032-.531.037s-.336-.007-.5-.01c-.241,0-.1-.16.341.05a1.726,1.726,0,0,0-.3-.064c-.107-.028-.655-.226-.226-.06s-.205-.129-.315-.2-.2-.127-.3-.195c-.071-.049-.389-.34-.133-.094.29.281-.131-.117-.158-.141-.147-.126-.291-.257-.434-.388a2.4,2.4,0,0,0-3.394,3.394,9.391,9.391,0,0,0,3.579,2.281,7.247,7.247,0,0,0,3.464.032c3.366-.7,5.237-3.948,5.277-7.195a7.856,7.856,0,0,0-5.283-7.545,6.37,6.37,0,0,0-2.057-.331,9.3,9.3,0,0,0-2.4.274,6.126,6.126,0,0,0-3.562,2.831,8.332,8.332,0,0,0-1.025,4.726,7.219,7.219,0,0,0,2.009,4.927,2.4,2.4,0,0,0,3.394-3.394Z"/><path class="a" d="M123.9,395.3c-.115-.265-.229-.533-.341-.8-2.238-5.387-4.1-12.053-4.1-17.913,0-11.3,14.42-16.577,29.568-19.709,12.12-2.506,19.08-2.877,31.278-2.859,12.223-.018,19.184.352,31.308,2.859,14.63,3.024,29.675,8.193,29.678,18.619a52.9,52.9,0,0,1-11.53,32.974c-16.47,19.98-45.372,20.844-68.934,16.188C144.3,421.4,130.7,410.945,123.9,395.3Z"/><path class="b" d="M125.969,394.093a46.366,46.366,0,0,1-4.1-16.68,11.021,11.021,0,0,1,4.244-9.162c3.379-2.936,7.791-4.69,11.992-6.067a119.956,119.956,0,0,1,16.156-3.882c11.1-2,22.413-2.082,33.664-1.812a127.171,127.171,0,0,1,32.523,5.023c4.671,1.363,9.384,3.053,13.395,5.873a14.011,14.011,0,0,1,3.691,3.676,8.087,8.087,0,0,1,1.355,4.438,49.893,49.893,0,0,1-10.068,30.33c-11.94,15.578-32.347,19.616-50.939,18.613-9.243-.5-19.047-1.739-27.55-5.582a47.629,47.629,0,0,1-20.962-18.256,52.377,52.377,0,0,1-3.4-6.512,2.416,2.416,0,0,0-3.284-.861,2.461,2.461,0,0,0-.861,3.284,52.311,52.311,0,0,0,20.148,23.318c8.963,5.585,19.163,7.732,29.529,8.88,19.89,2.2,42.246-.516,57.029-15.317,8.374-8.385,13.3-19.74,14.752-31.418.594-4.786.946-9.787-1.99-13.908-2.774-3.894-7.048-6.4-11.364-8.261a88.378,88.378,0,0,0-16.48-4.991,137.733,137.733,0,0,0-18.027-2.762c-6.118-.484-12.271-.467-18.4-.429a140.911,140.911,0,0,0-17.206.994,143.483,143.483,0,0,0-17.913,3.451,59.181,59.181,0,0,0-14.835,5.692c-3.934,2.289-7.443,5.447-9.105,9.774-1.946,5.068-.594,11.277.78,16.317a65.624,65.624,0,0,0,3.086,8.66,2.415,2.415,0,0,0,3.284.861A2.463,2.463,0,0,0,125.969,394.093Z"/><path class="d" d="M227.033,375.416c2.631-1.852,3.213-8.156-1.346-10.936,1.253-2.367.113-5.794-2.918-8.039-2.143-1.588-6.976-1.9-9.71.366-2.238-2.614-4.735-4.312-7.986-4.524-4.37-.284-8.634,1.422-10.056,5.117-4.264-.853-8.812,2.274-9.7,5.117,0,0-7.533,15.919,2.7,18.762s21.32,2.274,26.437.853C220.468,380.461,227.033,375.416,227.033,375.416Z"/><path class="e" d="M175.223,355.876c-1-.553-2.008-1.051-2.99-1.482-3.037-1.333-6.75-1.083-8.3-.074s-4.271,4.228-5.555,5.556a13.717,13.717,0,0,1-7.71,4.706c.045.359.08.627.08.627l.414,3.169c4.719-.978,8.423,6.008,9.423,9.263a142.84,142.84,0,0,0,24.4-3.655l.367-6.068C185.746,363.439,180.6,358.853,175.223,355.876Z"/><path class="d" d="M197.763,377.459a67.687,67.687,0,0,0,10.508-3.749c1.609-.791,4.03-1.232,5.331,0a2.871,2.871,0,0,1,.106,3.712,5.2,5.2,0,0,1-1.033,1.088l3.023-1.071c2.594-1.652,5.472-.782,6.112.924.177,1.332,1.044,2.4-1.99,4.548-5.828,4.122-10.157,5.919-17.127,8.315a85.863,85.863,0,0,1-23.1,4.975l-5.061,1.337q-5.568-.205-11.114-.807l-.1-1.525a77.113,77.113,0,0,0-2.732-17.567l.743-.058c10.944-.853,21.035-2.452,29.266-5.256a9.543,9.543,0,0,1,3.673-.607c1.166.109,3.7,2.132,1.99,4.406l-1.02,2.03Q196.537,377.81,197.763,377.459Z"/><path class="f" d="M132.119,360.835a11.688,11.688,0,0,1,6.151-3.5c4.173-.767,9.026.274,11.868,3.828,0,0,4.653,5.416,1.1,10.793-6.711,10.172-17.051,3.633-17.051,3.633-5.686-3.695-4.66-11.157-2.843-13.787A9.216,9.216,0,0,1,132.119,360.835Z"/><path class="g" d="M137.572,373.8q.119-.258.247-.516c.627-1.253,2.139-3.2,3.486-3.583a4.813,4.813,0,0,1,3.981.863,19,19,0,0,1,1.988,1.614l.068-.138c.627-1.253,2.139-3.2,3.486-3.583,4.644-1.321,8.361,5.172,9.592,8.675a75.361,75.361,0,0,1,2.9,18.076l0,1.514q-3.635-.394-7.248-.957c-5.775-.9-11.575-2.142-16.8-4.755-.883-.441-1.794-.95-2.706-1.52-.277-3.826-.232-7.465-.232-7.465A15.014,15.014,0,0,1,137.572,373.8Z"/><path class="d" d="M132.478,386.929c-.033.088,4.476,2.713,4.484,2.808.776.471,1.55.9,2.3,1.273,5.228,2.613,11.028,3.855,16.8,4.755q3.612.563,7.248.958l0-1.515c0-.941-.05-2.022-.148-3.183a4.219,4.219,0,0,1-3.613-.684,11.109,11.109,0,0,1-2.908-3.635,8.423,8.423,0,0,0-1.366-1.9,4.265,4.265,0,0,0-4.346-.842,10.745,10.745,0,0,1-.626,3.056c-.472.392-.859.911-1.363,1.272a3.9,3.9,0,0,1-4.387-.293,11.122,11.122,0,0,1-2.908-3.635,8.366,8.366,0,0,0-1.365-1.9,4.261,4.261,0,0,0-3.928-.974A8.323,8.323,0,0,0,132.478,386.929Z"/><path class="b" d="M135.4,373.521a6.159,6.159,0,0,1-1.149-.964,4.142,4.142,0,0,1-.884-1.159c-.141-.237-.263-.481-.389-.725-.032-.061-.178-.422-.035-.063-.042-.107-.085-.214-.12-.323a16.553,16.553,0,0,1-.426-1.638c-.019-.089-.061-.472-.01-.021-.012-.109-.026-.218-.032-.328-.015-.253-.036-.5-.041-.759a14.8,14.8,0,0,1,.07-1.576c.032-.37-.069.4,0,.037.017-.1.032-.2.05-.293q.061-.332.142-.658c.108-.436.256-.853.4-1.276-.148.429-.067.147.05-.084.077-.152.158-.3.247-.447a5.822,5.822,0,0,1,1.015-1.187,9.386,9.386,0,0,1,3.218-2.025,10.068,10.068,0,0,1,1.817-.447c-.485.078.144-.011.309-.024q.432-.034.867-.042a7.59,7.59,0,0,1,2.821.322c.3.079.593.171.884.274.146.052.294.106.436.166-.238-.1-.052-.022.072.045a11.186,11.186,0,0,1,1.639,1c-.255-.2.063.065.091.091.157.141.312.283.461.431a8.591,8.591,0,0,1,.7.768c.072.09.242.34.416.618.23.367.433.748.626,1.136a2.424,2.424,0,0,0,3.283.861,2.449,2.449,0,0,0,.861-3.284c-2.863-5.776-9.569-8.35-15.709-6.8-3.212.812-6.67,3.1-8.2,6.121a13.381,13.381,0,0,0-1.292,7.359,12.131,12.131,0,0,0,5.39,9.038,2.4,2.4,0,0,0,2.423-4.145Z"/><path class="b" d="M134.464,354.524a10.137,10.137,0,0,0-.307,5.852l2.953-2.953-4.443-1.621a2.4,2.4,0,0,0-2.71,3.525,2.7,2.7,0,0,0,1.434,1.1l4.443,1.622a2.371,2.371,0,0,0,2.335-.617,2.449,2.449,0,0,0,.617-2.335c-.058-.248-.1-.5-.14-.749l.086.638a8.057,8.057,0,0,1,0-2.11l-.086.638a8.071,8.071,0,0,1,.443-1.717,2.416,2.416,0,0,0-.242-1.85,2.4,2.4,0,0,0-3.283-.861l-.486.376a2.4,2.4,0,0,0-.617,1.059Z"/><path class="b" d="M124.137,377.488c1.307,7.168,7.9,12.635,14.118,15.693,7.963,3.917,17.053,5.109,25.784,6.019a159.759,159.759,0,0,0,27.973.451c8.81-.631,18.1-1.549,26.4-4.757,8.124-3.141,15.385-8.867,18.23-17.358.984-2.936-3.651-4.195-4.628-1.276-2.147,6.406-7.765,10.955-13.8,13.565-7.4,3.2-15.818,4.142-23.776,4.834a159.943,159.943,0,0,1-26.035.135c-8.082-.618-16.489-1.54-24.168-4.266-6.418-2.279-14.151-7.067-15.473-14.316a2.422,2.422,0,0,0-2.952-1.677,2.453,2.453,0,0,0-1.676,2.953Z"/><path class="b" d="M151.025,366.963a16.505,16.505,0,0,0,7.745-4.055c1.733-1.656,3.247-3.526,4.942-5.219a13.587,13.587,0,0,1,1.343-1.241c-.226.171.224-.141.3-.178a1.71,1.71,0,0,1,.595-.2,8.818,8.818,0,0,1,4.284.154,24.482,24.482,0,0,1,8.224,4.654c2.156,1.757,4.67,4.228,4.5,7.039-.189,3.085,4.612,3.074,4.8,0,.208-3.385-1.778-6.446-4.062-8.764a32.746,32.746,0,0,0-9.039-6.274c-3.343-1.62-7.378-2.563-10.963-1.094-2.7,1.107-4.657,3.882-6.595,5.959a21.89,21.89,0,0,1-2.688,2.621,13.312,13.312,0,0,1-4.656,1.969c-3,.717-1.732,5.347,1.276,4.628Z"/><path class="b" d="M223.624,366.11c.1.036.193.074.289.113q-.508-.218-.159-.059c.151.079.306.151.455.234s.287.165.426.255c.184.118.559.519.072.023.214.217.47.4.684.616.089.092.176.187.26.283.416.481-.213-.33.013.008.16.24.318.476.455.73.077.142.144.288.215.434.182.377-.2-.553-.059-.131.088.263.178.522.246.791.038.152.071.3.1.458.1.564-.02-.3-.008-.122a11.825,11.825,0,0,1,.017,1.641c-.022.307-.166.295.031-.2a2.871,2.871,0,0,0-.079.427,7.029,7.029,0,0,1-.193.714c-.038.114-.085.225-.122.339-.06.181.306-.626.061-.158-.1.2-.207.4-.331.593-.149.23-.416.372.1-.108-.065.06-.116.141-.176.207-.08.088-.168.167-.251.251-.371.375.445-.318.15-.1a2.456,2.456,0,0,0-.861,3.284,2.427,2.427,0,0,0,3.284.861,8.175,8.175,0,0,0,3.194-6.215,9.76,9.76,0,0,0-2.353-7.043,10.008,10.008,0,0,0-4.186-2.748,2.412,2.412,0,0,0-2.953,1.676,2.466,2.466,0,0,0,1.677,2.952Z"/><path class="b" d="M214.446,358.777c.08-.077.163-.152.249-.224q.3-.248-.089.066c.035-.1.345-.228.422-.275.145-.086.294-.167.445-.242.1-.05.2-.1.308-.143-.286.119-.346.147-.178.083.354-.059.715-.237,1.071-.317.169-.038.34-.065.51-.1.269-.041.228-.037-.123.014.115-.012.23-.023.345-.032a10.152,10.152,0,0,1,1.032-.025c.2,0,.4.016.593.032.083.007.167.015.25.024.27.032.221.025-.145-.02.059-.078.823.169.941.2.2.054.392.114.584.182l.14.051q.36.142-.171-.075a4.067,4.067,0,0,0,.771.426c.41.247-.243-.237.171.13.155.137.312.271.462.415s.287.284.424.433c.077.085.583.747.246.271a9.339,9.339,0,0,1,.6.947c.033.061.328.7.187.361s.1.3.119.366c.049.162.093.325.129.49.135.614.024.011.02.011.128,0-.059,1.015,0,1.106q.078-.535.026-.258c-.013.076-.03.15-.049.225a4.943,4.943,0,0,1-.19.578,2.41,2.41,0,0,0,1.677,2.952,2.468,2.468,0,0,0,2.952-1.676c1.574-4.056-1.381-9.185-5.123-10.922-3.814-1.771-8.856-1.376-12,1.551a2.42,2.42,0,0,0,0,3.394,2.45,2.45,0,0,0,3.394,0Z"/><path class="b" d="M197.332,358.038c-.116.286.258-.458.341-.6.066-.111.293-.445.095-.181.093-.123.2-.239.3-.353a6.593,6.593,0,0,1,.85-.8c-.259.2.482-.294.59-.356.174-.1.353-.189.531-.284.1-.051.33-.157.095-.056a8.965,8.965,0,0,1,1.057-.363,9.313,9.313,0,0,1,2.021-.372,11.123,11.123,0,0,1,2.406.051c-.247-.039.1.027.157.042.213.052.427.1.639.155s.413.128.62.194c.064.021.373.141.146.046a10.281,10.281,0,0,1,3.762,2.86,2.4,2.4,0,0,0,3.394-3.394,13.665,13.665,0,0,0-11.646-4.709c-4.407.45-8.281,2.61-9.99,6.834a2.416,2.416,0,0,0,1.676,2.952,2.459,2.459,0,0,0,2.953-1.676Z"/><path class="b" d="M187.631,363.155c.027-.082.063-.165.087-.249.076-.265-.27.561-.091.225.089-.168.174-.336.274-.5s.237-.323.339-.492c-.076.126-.362.435-.1.146.071-.079.139-.16.211-.238.3-.328.665-.589.974-.906-.127.131-.408.306-.1.082.094-.069.19-.136.287-.2q.3-.2.6-.377t.638-.34c.087-.043.176-.082.264-.124.472-.225-.527.194-.033.015a10.962,10.962,0,0,1,1.34-.41q.18-.041.363-.075c.055-.01.551-.087.121-.025-.414.061.031,0,.124,0,.124-.01.248-.016.372-.02.249-.008.5,0,.746.011a1.3,1.3,0,0,0,.374.034l-.34-.046c.1.016.2.034.3.053a2.4,2.4,0,1,0,1.276-4.628,11.541,11.541,0,0,0-7.965,1.414A10.1,10.1,0,0,0,183,361.879a2.419,2.419,0,0,0,1.677,2.952,2.454,2.454,0,0,0,2.952-1.676Z"/><path class="b" d="M165.721,395.208a61.541,61.541,0,0,0-.935-9.449,62.611,62.611,0,0,0-1.83-8.583c-1.535-5-5.723-12.076-11.871-11.2-4.372.621-6.75,5.795-7.458,9.647a2.466,2.466,0,0,0,1.676,2.952,2.42,2.42,0,0,0,2.952-1.676,10.965,10.965,0,0,1,2.133-5.139,3.644,3.644,0,0,1,1.3-1.061,2.285,2.285,0,0,1,1.214.137c2.367.961,4.131,4.251,4.944,6.245a40.817,40.817,0,0,1,2.044,8.351,57.566,57.566,0,0,1,1.031,9.777c.007,3.088,4.807,3.094,4.8,0Z"/><path class="b" d="M154.5,393.929a35.429,35.429,0,0,0-.248-8.049,54.675,54.675,0,0,0-1.77-9.211,18.161,18.161,0,0,0-1.467-3.757,13.339,13.339,0,0,0-3.562-3.7c-3.192-2.474-7.155-2.841-9.977.391a15.266,15.266,0,0,0-3.511,11.624,2.468,2.468,0,0,0,2.4,2.4,2.416,2.416,0,0,0,2.4-2.4c-.3-3.072.225-7.128,2.979-9.086.95-.675,2.508.574,3.36,1.309a7.787,7.787,0,0,1,2.217,2.9,44.316,44.316,0,0,1,2.047,8.86,36.047,36.047,0,0,1,.332,8.723,2.415,2.415,0,0,0,2.4,2.4,2.457,2.457,0,0,0,2.4-2.4Z"/><path class="b" d="M202.012,365.572a1.147,1.147,0,0,1,.237-.132l-.573.242a2.32,2.32,0,0,1,.557-.139l-.638.085a4,4,0,0,1,1.026,0l-.638-.086a2.632,2.632,0,0,1,.653.166l-.574-.242c.032.014.063.029.094.045a1.788,1.788,0,0,0,.893.285,2.462,2.462,0,0,0,2.391-1.146,2.4,2.4,0,0,0-.861-3.284,5.5,5.5,0,0,0-.839-.35,2.734,2.734,0,0,0-.333-.08,7.34,7.34,0,0,0-1.371-.142,6.539,6.539,0,0,0-1.331.163,2.115,2.115,0,0,0-.305.095,3.709,3.709,0,0,0-.81.373,2.314,2.314,0,0,0-1.146,2.392,1.774,1.774,0,0,0,.285.892,2.417,2.417,0,0,0,1.434,1.1l.638.086a2.4,2.4,0,0,0,1.211-.328Z"/><path class="b" d="M213.254,368.99a2.026,2.026,0,0,1,.354-.193l-.573.242a3.1,3.1,0,0,1,.759-.2l-.638.085a3.584,3.584,0,0,1,.937,0l-.638-.086c.085.013.17.028.255.048a1.823,1.823,0,0,0,.957.043,2.469,2.469,0,0,0,2-1.719l.086-.638a2.4,2.4,0,0,0-.328-1.212l-.375-.485a2.4,2.4,0,0,0-1.059-.617,8.7,8.7,0,0,0-.893-.134,3.177,3.177,0,0,0-.322-.027,6.93,6.93,0,0,0-1.253.116,3.285,3.285,0,0,0-.6.142,7.621,7.621,0,0,0-.83.348,2.353,2.353,0,0,0-1.4,2.538,1.774,1.774,0,0,0,.285.892l.375.486a2.4,2.4,0,0,0,1.059.617l.638.086a2.385,2.385,0,0,0,1.211-.328Z"/><path class="b" d="M164.032,391.461a84.664,84.664,0,0,0,19.851-1.306,118.118,118.118,0,0,0,19.872-4.94,62.88,62.88,0,0,0,8.15-3.407,8.725,8.725,0,0,0,4.394-4.2,5.122,5.122,0,0,0-1.121-5.691c-2.794-2.6-6.508-.927-9.446.335-.795.341-2.428.941-3.547,1.323-1.561.532-3.138,1.018-4.722,1.476a213.2,213.2,0,0,1-26.962,5.764,2.416,2.416,0,0,0-1.676,2.952,2.46,2.46,0,0,0,2.952,1.677c7.454-1.142,14.869-2.6,22.177-4.466,3.092-.79,6.17-1.651,9.2-2.669,1.2-.4,2.393-.833,3.567-1.31,1.088-.441,2.157-1.049,3.274-1.4.382-.121,1.792-.573,1.938-.036.271.992-2.4,2.088-2.987,2.379A57,57,0,0,1,202,380.751a118.621,118.621,0,0,1-18.076,4.552,81.229,81.229,0,0,1-19.895,1.358,2.421,2.421,0,0,0-2.4,2.4,2.447,2.447,0,0,0,2.4,2.4Z"/><path class="b" d="M216.909,379.513a3.079,3.079,0,0,1,1.91-.547,2.261,2.261,0,0,1,.491.11c.29.1.172.049.254.15.115.143-.055-.179.008.2.032.2.091.389.122.586-.068-.427-.1-.2-.039.048-.033-.127.14-.346,0-.182-.209.248.213-.3-.029.018a15.868,15.868,0,0,1-3.771,2.787,49.827,49.827,0,0,1-4.4,2.483,76.82,76.82,0,0,1-9.4,3.744,107.77,107.77,0,0,1-11.416,3.285,71.816,71.816,0,0,1-11.043,1.6,2.456,2.456,0,0,0-2.4,2.4,2.421,2.421,0,0,0,2.4,2.4,95.637,95.637,0,0,0,25.987-5.849,65.805,65.805,0,0,0,11.212-5.02,37.14,37.14,0,0,0,5.574-3.786,5.378,5.378,0,0,0,2.074-4.317c-.287-5.2-5.9-6.648-9.956-4.262-2.661,1.566-.248,5.716,2.422,4.144Z"/><path class="b" d="M161.332,379.983a157.942,157.942,0,0,0,20.538-2.8,83.543,83.543,0,0,0,8.635-2.294,18.652,18.652,0,0,1,2.335-.689,3.269,3.269,0,0,1,1.159-.081c-.432-.117.161.113.264.2-.227-.192.219.314.086.123.184.263.149.012-.16.476-1.719,2.577,2.437,4.983,4.144,2.423a5.269,5.269,0,0,0-3.249-7.9c-1.8-.444-3.786.14-5.488.7q-2.451.807-4.947,1.46a134.9,134.9,0,0,1-23.317,3.587,2.46,2.46,0,0,0-2.4,2.4,2.418,2.418,0,0,0,2.4,2.4Z"/><path class="h" d="M300.589,179.1a7.83,7.83,0,0,0,.718,7.33c5.27,8.627,19.185,14.667,36.963,15.333,1.444.055,10-.222,12.074-3.185l-5.482-7.7"/><path class="b" d="M298.275,178.463c-3.148,9.467,7.038,16.838,14.506,20.21a59.363,59.363,0,0,0,14.2,4.3,58,58,0,0,0,13.548,1.13c4.082-.261,9.242-.8,11.885-4.312a2.416,2.416,0,0,0-.861-3.284,2.459,2.459,0,0,0-3.284.861c.277-.368.051-.1-.019-.025-.452.465.223-.128-.105.105a6.423,6.423,0,0,1-.928.533,13.944,13.944,0,0,1-1.967.634,23.184,23.184,0,0,1-4.37.663,49.687,49.687,0,0,1-11-.667c-7.837-1.194-16.358-3.6-22.457-8.808a21.043,21.043,0,0,1-3.486-3.722,6.445,6.445,0,0,1-1.037-6.342c.977-2.938-3.657-4.2-4.628-1.276Z"/><path class="i" d="M304.963,166.9c-3.209-.093-5.789,4.229-4.257,7.05,3.664,6.748,18.047,13.141,24.3,14.979,8.316,2.443,16.969,3.911,25.89,3.185,6.131-.5,7.671-5.84,4.411-8.887"/><path class="d" d="M305.187,154.418a7.02,7.02,0,0,0-6.793-.035c1.465,1.635,3.037,3.672,2.485,5.8-.249.96-.923,1.814-.936,2.807-.033,2.5,3.438,2.983,5.809,3.782,5.223,1.758,8.421,8.709,13.9,8.17,1.422-.139,2.9-.8,4.215-.235,1.825.793,2.069,3.418,3.692,4.569,1.532,1.087,3.62.478,5.5.481a15.968,15.968,0,0,1,4.479.876c2.991.889,6.691,2.949,9.682,3.838,4.729.3,8.815-1.672,13.195-3.481a9.9,9.9,0,0,0,4.362-3,4.632,4.632,0,0,0,.536-4.82c-.815-1.5-5.237-2.3-7.2-3.408"/><path class="b" d="M306.4,152.346a9.705,9.705,0,0,0-9.217-.035,2.428,2.428,0,0,0-.485,3.769c1.134,1.282,2.3,2.551,1.553,4.28-.851,1.974-1.018,4.043.476,5.762,2.1,2.418,5.747,2.276,8.277,3.972,2.607,1.748,4.572,4.319,7.309,5.905a9.57,9.57,0,0,0,4.745,1.37,29.486,29.486,0,0,0,4.7-.844c.307-.05.5-.035.853-.077.336-.04.153-.016-.167-.183-.206-.108-.067-.019.016.259.107.36.163.734.265,1.095.539,1.9,1.986,3.668,4.1,3.754a5.166,5.166,0,0,0,2.5-.656c.289-.142.58-.291.861-.448.068-.037.446,0,.084-.06,1.084.18,2.444,1.736,3.6,2.309,1.683.836,3.57,1.342,5.3,2.1,1.865.82,4,2.068,6.053,2.247,4.53.393,8.913-1.512,12.988-3.215,2.193-.917,4.432-1.821,6.03-3.665a7.359,7.359,0,0,0,1.669-6.788c-1.139-3.83-5.759-3.989-8.582-5.509-2.72-1.465-5.146,2.677-2.423,4.144a28.83,28.83,0,0,0,4.149,1.639,14.748,14.748,0,0,1,1.556.607c.235.115.455.248.681.379.15.086-.032.042-.028-.031-.029.614.166,1-.107,1.629a3.9,3.9,0,0,1-1.387,1.536,24.452,24.452,0,0,1-4.922,2.3,33.56,33.56,0,0,1-5.855,1.92,13.737,13.737,0,0,1-2.638.28,6.406,6.406,0,0,1-2.474-.641c-1.739-.689-3.429-1.5-5.159-2.212a15.9,15.9,0,0,1-3.958-1.858c-1.292-.928-2.661-1.935-4.325-1.957a5.874,5.874,0,0,0-2.538.639c-.256.119-.5.249-.754.381-.489.26-.33.06,0,.147.561.15.229.327.254-.032a3.97,3.97,0,0,1-.115-.493,8.9,8.9,0,0,0-.711-2.151,4.493,4.493,0,0,0-4.238-2.263,23.607,23.607,0,0,0-4.472.827c-.581.14-.021.061-.5.08a7.008,7.008,0,0,1-.845-.019,5.113,5.113,0,0,1-1.393-.479c-2.531-1.308-4.427-3.652-6.673-5.372a14.432,14.432,0,0,0-4.475-2.373c-.746-.235-1.5-.428-2.246-.677a9.606,9.606,0,0,1-1.345-.637c-.2-.107-.048-.075-.013.07s.009-.227-.039-.136c-.008.016.229-.5.3-.672A7.465,7.465,0,0,0,303.38,159c-.118-2.482-1.712-4.527-3.289-6.31l-.486,3.769a4.636,4.636,0,0,1,4.371.036c2.724,1.454,5.152-2.688,2.423-4.145Z"/><path class="b" d="M355.307,185.628c3.089,0,3.094-4.8,0-4.8s-3.094,4.8,0,4.8Z"/><path class="b" d="M304.963,164.5c-5.313.065-8.8,6.431-6.149,10.977,2.247,3.848,6.325,6.614,10.066,8.846a75.309,75.309,0,0,0,28.844,9.787,63.23,63.23,0,0,0,11.264.527c3.2-.152,6.629-.616,8.756-3.306a2.477,2.477,0,0,0,0-3.394,2.416,2.416,0,0,0-3.394,0c-1.4,1.766-3.5,1.82-5.6,1.91a61,61,0,0,1-8.473-.242,74.623,74.623,0,0,1-15.455-3.244,64.9,64.9,0,0,1-9.749-4.1,41.779,41.779,0,0,1-9.82-6.477c-.348-.329-.686-.669-1.01-1.023q-.187-.2-.367-.413c.012.015-.45-.56-.29-.346a7.917,7.917,0,0,1-.69-1.05,5.05,5.05,0,0,1-.239-.651c-.135-1.4,1.1-2.983,2.306-3,3.087-.038,3.095-4.838,0-4.8Z"/><path class="h" d="M336.714,148.209c-14.558-4.453-27.322-1.25-29.293,3.519-1.521,3.684.566,6.795,3.127,9.4,4.386,4.464,10.2,7.727,18.162,10.257,10.879,3.327,16.065,3.553,22.965,2.291,3.315-.606,6.364-1.969,6.988-5.282C359.483,164.041,360.291,155.42,336.714,148.209Z"/><path class="b" d="M304.511,153.986c-.046,5.46,4.694,9.627,8.748,12.609a49.988,49.988,0,0,0,14.381,6.966,62.445,62.445,0,0,0,14.8,3.151,32.335,32.335,0,0,0,12.195-1.309,9.541,9.541,0,0,0,5.57-4.251,10.939,10.939,0,0,0,1.052-3.973,12.628,12.628,0,0,0-.394-5.075c-1.868-6.257-8.186-10.081-13.777-12.594a68.67,68.67,0,0,0-18.7-5.6c-5.305-.724-11.024-.776-16.086,1.2a2.472,2.472,0,0,0-1.676,2.952,2.418,2.418,0,0,0,2.952,1.676c8.7-3.405,18.906-.7,27.276,2.374a44.015,44.015,0,0,1,10.527,5.284c.273.2.6.448.6.446.271.217.537.439.8.669a17.807,17.807,0,0,1,1.354,1.324c.195.213.379.434.567.653.363.423-.147-.256.225.3.275.414.546.826.78,1.265.108.2.2.413.3.619-.083-.165-.1-.311.059.168.129.389.254.775.344,1.175.042.188.066.381.11.568.119.507-.019-.6,0,.036.011.352.047.7.045,1.053,0,.328-.019.656-.048.983-.012.137-.037.275-.043.412-.007.175.105-.63,0-.048a4.074,4.074,0,0,1-1.376,2.863,11.041,11.041,0,0,1-4.953,1.626,33.418,33.418,0,0,1-4.789.459,42.015,42.015,0,0,1-11.615-1.65,57.262,57.262,0,0,1-15.364-6.075,31.386,31.386,0,0,1-5.526-4.22c-1.677-1.617-3.562-3.566-3.541-6.047.025-3.09-4.775-3.093-4.8,0Z"/><path class="f" d="M362.978,144.235c-16.832,13.189-33.384,26.736-50.115,40.052q-7.737,6.157-15.515,12.263a2.414,2.414,0,0,0,0,3.394,2.462,2.462,0,0,0,3.395,0c18.363-14.386,36.48-29.081,54.7-43.644q5.448-4.355,10.928-8.67a2.415,2.415,0,0,0,0-3.395,2.462,2.462,0,0,0-3.395,0Z"/><path class="f" d="M359.715,203.208c-13.189-16.833-26.736-33.385-40.052-50.116q-6.158-7.737-12.263-15.514a2.412,2.412,0,0,0-3.394,0,2.461,2.461,0,0,0,0,3.394c14.386,18.363,29.081,36.48,43.644,54.7q4.355,5.448,8.671,10.928a2.414,2.414,0,0,0,3.394,0,2.461,2.461,0,0,0,0-3.394Z"/><path class="a" d="M269.857,14.559c-1.716,4.711-7.134,23.724-7.237,25.756,14.092,7.076,29.637,15.323,41.518,19.614a97.9,97.9,0,0,0,9.471-3.76l10.966-4.745c.712-3.619,1.3-6.59,1.3-6.59a167.084,167.084,0,0,0,3.618-19.544l.1-.822-1.114-.382c-5.6-1.918-37.273-8.7-58.106-10.428C270.382,13.271,270.189,13.647,269.857,14.559Z"/><path class="j" d="M266.1,26.8c-.526,1.838-1.043,3.681-1.512,5.392,9.534,4.576,30.319,13.63,40.439,17.331C310.87,47.357,322.17,42.4,327.162,40q.663-3.39,1.211-6.8c-6.828,2.591-15.914,6.178-21.5,8.7-11.337-4.092-32-12.759-40.259-16.868Q266.355,25.909,266.1,26.8Z"/><path class="b" d="M328.214,46.477a190.672,190.672,0,0,0,3.677-21.187,2.413,2.413,0,0,0-2.4-2.4,2.458,2.458,0,0,0-2.4,2.4,179,179,0,0,1-3.506,19.91c-.719,3,3.909,4.284,4.629,1.277Z"/><path class="b" d="M267.723,13.444c-1.261,3.212-2.154,6.6-3.123,9.907-1.241,4.24-2.454,8.493-3.532,12.778a24.158,24.158,0,0,0-.848,4.186,2.344,2.344,0,0,0,1.188,2.073c13.456,6.76,26.778,14.118,40.9,19.417a4.205,4.205,0,0,0,3.187.2c.918-.31,1.827-.646,2.731-.995,2.223-.861,4.414-1.8,6.592-2.77a2.419,2.419,0,0,0,.861-3.284A2.461,2.461,0,0,0,312.4,54.1a90.806,90.806,0,0,1-8.9,3.518h1.276C290.6,52.465,277.279,45,263.831,38.243l1.189,2.072c.033-.487-.162.742.018-.066.076-.34.141-.683.218-1.023.225-.989.476-1.973.731-2.955.691-2.667,1.429-5.322,2.182-7.971,1.288-4.529,2.459-9.191,4.182-13.58a2.418,2.418,0,0,0-1.676-2.953,2.456,2.456,0,0,0-2.952,1.677Z"/><path class="b" d="M328.242,22.358c-4.864,1.876-9.854,3.487-14.633,5.577a2.406,2.406,0,0,0-.861,3.283,2.474,2.474,0,0,0,3.284.861c.4-.173-.616.252-.28.117l.256-.1c.209-.085.418-.168.627-.251q.847-.333,1.7-.657,2.085-.8,4.178-1.575c2.336-.874,4.681-1.724,7.007-2.622a2.455,2.455,0,0,0,1.676-2.952,2.426,2.426,0,0,0-2.952-1.676Z"/><path class="b" d="M291.631,23.2c-2.274-1.012-4.62-1.839-6.965-2.666-1.087-.383-2.175-.765-3.255-1.17-.47-.177-.937-.362-1.4-.548-.4-.161.377.171.113.048-.1-.047-.2-.089-.307-.135-.187-.085-.372-.172-.555-.263a2.4,2.4,0,0,0-2.423,4.145,55.611,55.611,0,0,0,6.195,2.425c1.142.4,2.286.8,3.423,1.223q.816.3,1.627.618c.269.106.536.214.8.324.3.122.016-.027-.115-.049a2.307,2.307,0,0,1,.439.193,2.464,2.464,0,0,0,3.284-.861,2.428,2.428,0,0,0-.861-3.284Z"/><path class="b" d="M280.492,12.364q-4.587-.608-9.194-1.027a2.41,2.41,0,0,0-2.4,2.4,2.463,2.463,0,0,0,2.4,2.4q4.609.411,9.194,1.027a2.383,2.383,0,0,0,1.7-.7,2.4,2.4,0,0,0,0-3.394,2.833,2.833,0,0,0-1.7-.7Z"/><path class="b" d="M329.115,21.772a129.7,129.7,0,0,0-14.022-3.487q-11.861-2.58-23.852-4.5a2.473,2.473,0,0,0-2.952,1.676,2.419,2.419,0,0,0,1.676,2.952q11.985,1.914,23.852,4.5A129.937,129.937,0,0,1,327.839,26.4c2.932.992,4.191-3.642,1.276-4.628Z"/><path class="f" d="M305.3,21.114a12.472,12.472,0,0,1-2.862-1.364,6.461,6.461,0,0,1-1.8-1.54c-2.134-2.882,0-6.519,2.055-8.706,1.818-1.931,4.982-4.8,7.881-4.624,1.951.12,4.324,3.915,4.751,6.28a13.207,13.207,0,0,1-.559,5.5c-1.01,2.09-2.322,3.817-4.617,4.542A7.9,7.9,0,0,1,305.3,21.114Z"/><path class="b" d="M305.935,18.8a9.981,9.981,0,0,1-2.041-.969c-.266-.161-.73-.46-.873-.576a3.131,3.131,0,0,1-.609-.706c-.018-.032-.2-.415-.082-.118-.063-.155-.094-.313-.142-.471-.206-.666-.017.2-.032-.2-.008-.2-.006-.4.006-.6-.023.385.088-.413.131-.566q.086-.3.2-.594c.059-.154.059-.157,0-.011.053-.116.109-.231.168-.344a11.045,11.045,0,0,1,2.469-3.2c.51-.5,1.044-.98,1.593-1.441.365-.308.19-.154.1-.088.133-.1.269-.2.405-.3a12.839,12.839,0,0,1,1.157-.728c.177-.1.358-.189.54-.28.06-.029.425-.16.083-.037A7.594,7.594,0,0,1,310,7.284c.379-.08-.521-.035.132-.009.057,0,.431.012.437,0-.023.026-.578-.081-.214-.006.429.089-.342-.25,0,.021.019.014.481.343.191.115-.257-.2.06.061.116.117.216.217.422.436.627.663.3.332.085.1.024.021.11.148.214.3.316.453q.341.512.629,1.055c.137.258.266.521.384.789-.193-.439.152.458.189.58a2.912,2.912,0,0,1,.172.71c-.018.013-.04-.57-.026-.163.006.187.022.373.026.56a19.13,19.13,0,0,1-.1,1.945c-.057.706.054-.292-.012.12-.027.17-.055.34-.087.509-.058.293-.147.576-.214.866-.089.376-.02-.241.092-.188.006,0-.309.608-.324.636-.184.341-.38.675-.6,1,.023-.036-.413.564-.213.308.132-.167-.264.3-.32.355-.128.135-.268.257-.4.39-.326.337.217-.095-.217.179-.129.081-.253.166-.385.242-.012.007-.656.335-.27.168a5.422,5.422,0,0,1-1.385.391,6.177,6.177,0,0,1-2.649-.313,2.4,2.4,0,0,0-1.276,4.628,10.233,10.233,0,0,0,7.8-.617,10.341,10.341,0,0,0,4.052-4.3,12.146,12.146,0,0,0,.278-10.421,11.679,11.679,0,0,0-3.574-4.636,5.761,5.761,0,0,0-5.482-.508,16.266,16.266,0,0,0-5.328,3.465,18.453,18.453,0,0,0-3.71,4.475,8.308,8.308,0,0,0-.66,7.632c1.187,2.547,4.075,4.066,6.623,4.915a2.4,2.4,0,1,0,1.276-4.628Z"/><path class="b" d="M303.827,39.3c-1.519,6-2.454,12.157-3.714,18.218a2.459,2.459,0,0,0,1.676,2.953,2.425,2.425,0,0,0,2.952-1.677c1.261-6.061,2.2-12.213,3.714-18.218.758-2.995-3.87-4.273-4.628-1.276Z"/><path class="f" d="M336.387,6.7C319.7,20.074,303.3,33.8,286.721,47.306q-7.668,6.243-15.377,12.435a2.416,2.416,0,0,0,0,3.394,2.458,2.458,0,0,0,3.394,0c18.2-14.59,36.155-29.486,54.213-44.251q5.4-4.414,10.83-8.792a2.415,2.415,0,0,0,0-3.394,2.458,2.458,0,0,0-3.394,0Z"/><path class="f" d="M333.781,65.741c-13.375-16.685-27.106-33.085-40.608-49.666Q286.93,8.407,280.739.7a2.416,2.416,0,0,0-3.395,0,2.458,2.458,0,0,0,0,3.394c14.59,18.2,29.486,36.154,44.252,54.213q4.414,5.4,8.791,10.83a2.415,2.415,0,0,0,3.394,0,2.457,2.457,0,0,0,0-3.394Z"/><path class="a" d="M53.8,78.464c3.6,14.771,7.731,32.935,10.406,44.322.092.956.636,3.373.636,3.373a3.818,3.818,0,0,1-1.328,3.777,44.122,44.122,0,0,1-6.864,5.317,53.986,53.986,0,0,1-15.222,5.612,35.533,35.533,0,0,1-6.331.868c-2.863.082-4.305-.58-5.027-1.357l-1.222-1.612c-5.453-9.779-15.3-27.3-23.156-41.591"/><path class="a" d="M7.122,88.805a33.036,33.036,0,0,1,6.439-5.158c4.342-2.813,7.291-3.815,12.047-5.656a54.747,54.747,0,0,1,12.631-3.63c6.019-1.015,12.5-1.292,14.27,2.489a11.706,11.706,0,0,1-3.153,8.615,26.805,26.805,0,0,1-7.212,5.44A75.017,75.017,0,0,1,21.475,98.8a26.719,26.719,0,0,1-8.169.78c-2.946-.273-6.863-1.555-8.237-4.42A7.292,7.292,0,0,1,7.122,88.805Z"/><path class="h" d="M24.911,115.843c3.951-.573,8.614-1.988,14.818-4.529,9.346-3.829,14.127-8.076,18.054-12.335.8,3.4,1.583,6.76,2.332,9.965a41.866,41.866,0,0,1-16.763,11.671c-9.691,3.97-15.2,4.884-20.435,4.079,0,0-.906-.14-2.333-.356-1.546-2.73-3.166-5.591-4.812-8.506l1.231.017A26.108,26.108,0,0,0,24.911,115.843Z"/><path class="b" d="M58.4,107.253a42.835,42.835,0,0,1-6.442,5.945,48.611,48.611,0,0,1-10.59,5.641,59.26,59.26,0,0,1-11.142,3.388,25.845,25.845,0,0,1-4.093.416q-.936.021-1.873-.028-.516-.027-1.03-.076c-.086-.008-1-.123-.616-.068a2.481,2.481,0,0,0-2.952,1.676,2.418,2.418,0,0,0,1.676,2.953c7.352,1.057,14.5-.939,21.306-3.633a53.51,53.51,0,0,0,11.737-6.124,48.613,48.613,0,0,0,7.413-6.7c2.082-2.276-1.3-5.679-3.394-3.394Z"/><path class="b" d="M15.924,118.335c8.753,1.236,17.146-1.643,25.116-4.994a52.71,52.71,0,0,0,18.44-12.665c2.106-2.256-1.281-5.658-3.394-3.394a48.126,48.126,0,0,1-16.462,11.487c-6.86,2.95-14.817,6.011-22.424,4.938a2.481,2.481,0,0,0-2.952,1.676,2.417,2.417,0,0,0,1.676,2.952Z"/><path class="h" d="M46.548,87.787a18.884,18.884,0,0,0,2.4-2.285c.715-.817-1.977-3.216-6.3-4.225-2.165-.506-6.23.4-7.679,1.236-3.147,1.815-8.243,4.989-11.608,5.514-5.124.8-7.644,1-10.03,4.193-1.441,1.925,7,6.675,9.681,6.087a57.5,57.5,0,0,0,18.4-7.125A40.273,40.273,0,0,0,46.548,87.787Z"/><path class="b" d="M59.069,130.474a41.067,41.067,0,0,1-15.444,7.344,37.851,37.851,0,0,1-8.717,1.515,10.443,10.443,0,0,1-1.777-.057,5.785,5.785,0,0,1-.9-.213c-.032-.011-.459-.164-.15-.044-.12-.047-.508-.144-.313-.154.179-.008-.391-.264.166.272a7.2,7.2,0,0,1-.661-.871,36.881,36.881,0,0,1-2.6-4.4l-3.436-6.146q-4.1-7.329-8.187-14.662-4.755-8.537-9.474-17.095c-1.489-2.707-5.636-.288-4.144,2.423q8.758,15.918,17.66,31.756c2.077,3.715,3.917,7.765,6.5,11.155,3.483,4.577,10.859,2.716,15.6,1.584a60.283,60.283,0,0,0,10.136-3.387,39.543,39.543,0,0,0,9.144-5.625,2.415,2.415,0,0,0,0-3.394,2.456,2.456,0,0,0-3.394,0Z"/><path class="b" d="M51.3,79.1c2.919,12,5.688,24.032,8.479,36.06.7,3.008,5.327,1.735,4.629-1.276-2.792-12.028-5.561-24.062-8.48-36.06-.73-3-5.36-1.73-4.628,1.276Z"/><path class="b" d="M14.245,85.942a48.628,48.628,0,0,1,9.08-4.583A96.186,96.186,0,0,1,33.483,77.77a46.873,46.873,0,0,1,10.428-1.652,14.079,14.079,0,0,1,4.145.349,2.847,2.847,0,0,1,2.2,1.594l-.328-1.211c.547,7.418-7.78,11.477-13.393,14.183a71.072,71.072,0,0,1-10.615,4.088c-3.645,1.085-7.515,2.164-11.346,2.126-2.614-.025-6.257-.688-7.612-3.3-1.422-2.744-5.566-.319-4.145,2.423,1.486,2.868,4.613,4.494,7.655,5.2,3.956.912,8,.332,11.9-.552a75.348,75.348,0,0,0,22.3-8.906c3.3-2,6.466-4.516,8.346-7.956a13.983,13.983,0,0,0,1.72-5.667A5.4,5.4,0,0,0,53.1,73.873c-2.258-2.163-5.638-2.595-8.629-2.566a51.012,51.012,0,0,0-10.8,1.473,83.153,83.153,0,0,0-11.255,3.808,56,56,0,0,0-10.6,5.21c-2.578,1.681-.175,5.838,2.423,4.144Z"/><path class="b" d="M31.643,83.172c-3.386-.946-7.586.1-9.348,3.381a11.073,11.073,0,0,0-.886,2.424c-.094.358-.189.716-.309,1.066-.068.2-.237.508-.051.151-.084.163-.164.328-.254.488-.189.336-.408.648-.622.968-.3.452.214-.236-.113.152-.133.158-.264.318-.4.473a24.952,24.952,0,0,1-1.981,1.989,2.418,2.418,0,0,0,0,3.394,2.453,2.453,0,0,0,3.394,0,22.006,22.006,0,0,0,3.413-3.826,14.58,14.58,0,0,0,1.74-4.27c.042-.142.087-.283.136-.422q.043-.126.093-.249-.174.407-.056.166c.084-.125.151-.268.229-.4.284-.468-.234.2.069-.075.1-.093.2-.2.3-.29.086-.077.3-.372.094-.086s.057-.026.189-.106c.11-.067.222-.13.337-.189.07-.037.141-.071.213-.1q.245-.113-.2.086a2.523,2.523,0,0,0,.471-.156c.137-.039.275-.072.414-.1.378-.078.158-.121-.029-.008.231-.14.852-.023,1.117-.009.507.025-.4-.124.153.026.2.055.411.095.614.152a2.4,2.4,0,1,0,1.276-4.628Z"/><path class="b" d="M47.569,81.206a8.849,8.849,0,0,0-6.987-1A6.905,6.905,0,0,0,35.974,84.9c-.293,1.049-.317,2.042-.475,2.854a6.719,6.719,0,0,1-.189.755q-.082.233.006.027l-.121.229c-.2.41.122-.032-.187.257-.035.033-.557.429-.233.217a5.032,5.032,0,0,1-.615.348c.3-.14-.075.021-.2.06a6.323,6.323,0,0,1-.69.172c-.188.037-.528.08-.152.038a5.73,5.73,0,0,1-.586.042c-.2,0-.6-.122-.107.023-.32-.094-.867-.235-1.017-.3a2.48,2.48,0,0,0-3.284.861,2.418,2.418,0,0,0,.861,3.284,9.258,9.258,0,0,0,3.269.925,9.074,9.074,0,0,0,2.868-.381,6.917,6.917,0,0,0,4.818-4.526,8.7,8.7,0,0,0,.3-1.4c.1-.657.129-1.027.2-1.44a7.688,7.688,0,0,1,.168-.766c.024-.085.2-.541.076-.277.033-.072.38-.594.133-.284a3.773,3.773,0,0,1,.488-.491c-.3.255.217-.113.277-.154.328-.223-.042-.017.171-.093a4.884,4.884,0,0,1,.674-.19c.158-.03.152-.031-.02,0l.275-.015a4.581,4.581,0,0,1,2.469.686,2.4,2.4,0,1,0,2.423-4.145Z"/><path class="b" d="M17.055,92.1a2.271,2.271,0,0,1,.262-.411l-.375.486a5.02,5.02,0,0,1,.881-.885l-.486.375c.032-.024.064-.049.1-.072a1.812,1.812,0,0,0,.673-.618,1.8,1.8,0,0,0,.43-.817,1.823,1.823,0,0,0,.043-.957A1.8,1.8,0,0,0,18.3,88.3l-.375-.486a2.407,2.407,0,0,0-1.059-.617l-.638-.086a2.4,2.4,0,0,0-1.212.328,7.83,7.83,0,0,0-1.219,1.042,10.483,10.483,0,0,0-.667.839,2.085,2.085,0,0,0-.215.349,1.781,1.781,0,0,0-.285.892,2.158,2.158,0,0,0,.472,1.773,1.823,1.823,0,0,0,.674.618l.573.242a2.423,2.423,0,0,0,1.276,0l.574-.242a2.416,2.416,0,0,0,.861-.861Z"/><path class="f" d="M57.615,70.309c-10.841,18.433-21.289,37.1-31.988,55.611q-4.947,8.561-9.952,17.088c-1.57,2.668,2.577,5.086,4.144,2.423C31.646,125.324,43.131,105.019,54.761,84.8c2.319-4.031,4.641-8.059,7-12.067,1.57-2.669-2.578-5.087-4.144-2.423Z"/><path class="f" d="M76.278,126.768c-18.433-10.841-37.1-21.289-55.611-31.988q-8.561-4.947-17.088-9.953c-2.668-1.569-5.087,2.578-2.423,4.145,20.107,11.827,40.412,23.312,60.632,34.942,4.031,2.319,8.059,4.641,12.067,7,2.669,1.57,5.087-2.578,2.423-4.144Z"/></svg>