<?xml version="1.0" encoding="utf-8"?>
<!-- Uploaded to: SVG Repo, www.svgrepo.com, Generator: SVG Repo Mixer Tools -->
<svg width="800px" height="800px" viewBox="0 -9.67 385.841 385.841" xmlns="http://www.w3.org/2000/svg"><defs><style>.a{fill:#fcd8d7;}.b{fill:#f8b1af;}.c{fill:#211715;}.d{fill:#ffffff;}.e{fill:#3f88c9;}.f{fill:#79c6e0;}.g{fill:#ffda71;}.h{fill:#bd957a;}.i{fill:#f2635f;}</style></defs><path class="a" d="M364.4,81.477a17.011,17.011,0,0,0-1.268,5.257,16.521,16.521,0,0,0,1.636,7.2,17.829,17.829,0,0,0,6.259,6.53c1.866,1.066,6.551,2.91,9.685,2.308,3.336-3.594,3.482-9.314,2.7-14.142-.7-4.375-5.226-9.184-9.045-11.432-1.363,2.432-2.335,4.588-3.625,6.81C369.6,83.531,366.688,82.4,364.4,81.477Z"/><path class="a" d="M23.3,43.859a24.032,24.032,0,0,1,4.547-2.4,15.68,15.68,0,0,1,7.018-.175,14.858,14.858,0,0,1,6.368,3.3c1.577,1.3,3.813,4.26,3.99,7.288-2.532,3.913-6.908,7.357-11.537,7.767-4.2.372-9.034-2.606-12-5.6,1.922-1.823,3.682-3.222,5.428-4.929C26.407,48.174,24.681,45.758,23.3,43.859Z"/><path class="b" d="M2.625,112.53a19.273,19.273,0,0,1-.47-6.978,12.552,12.552,0,0,1,2.56-6.814c4.668-6.36,11.625-7.86,19.118-7.966a3,3,0,0,1,1.1.124c2.256.845,3.34,6.643,3.651,8.682a20.633,20.633,0,0,1-.866,10.067c-1.946,5.365-7.055,9.751-12.428,11.675-1.137-3.4-1.442-6.911-1.973-10.461C10.677,111.188,6.013,112.384,2.625,112.53Z"/><path class="b" d="M353.813,38.106a27.538,27.538,0,0,1-.011,5.875,17.965,17.965,0,0,1-3.576,7.186,17,17,0,0,1-6.739,4.671c-2.155.9-6.344,1.575-9.5.134-2.6-4.65-3.741-10.914-1.681-15.811,1.868-4.439,7.465-7.736,12.074-9.129.815,2.917,1.287,5.444,2.079,8.121C347.79,38.938,351.155,38.486,353.813,38.106Z"/><path class="b" d="M68.916,22.3a36.674,36.674,0,0,1,1.716-7.651c1.21-3.089,4.55-6.6,6.739-8.327A22.691,22.691,0,0,1,87.5,2.183c3.067-.548,8.721-.215,12.413,2.575,2.042,6.811,1.714,15.3-2.388,21.085-3.717,5.243-11.963,7.918-18.372,8.4-.216-4.037-.1-7.465-.358-11.182C77,22.955,72.488,22.57,68.916,22.3Z"/><path class="c" d="M24.309,45.586a14.384,14.384,0,0,1,5.348-2.507,13.363,13.363,0,0,1,5.646.382c3.61,1.08,7.576,4.43,7.92,8.415l.273-1.01c-2.155,3.259-5.7,6.319-9.721,6.769-3.99.447-7.987-2.34-10.672-5.006v2.828c1.781-1.674,3.671-3.229,5.428-4.929a2.013,2.013,0,0,0,.313-2.423c-1.3-1.732-2.545-3.5-3.817-5.256a2.059,2.059,0,0,0-2.737-.717,2.016,2.016,0,0,0-.717,2.736c1.272,1.751,2.518,3.524,3.817,5.255L25.7,47.7c-1.757,1.7-3.646,3.254-5.427,4.929a2.024,2.024,0,0,0,0,2.828c2.891,2.872,6.7,5.418,10.8,6.046,4.284.655,8.363-1.127,11.626-3.811a17.416,17.416,0,0,0,4.25-4.807c.984-1.827-.59-4.909-1.568-6.469a16.037,16.037,0,0,0-10.117-7.081,18.853,18.853,0,0,0-6.67-.113,17.779,17.779,0,0,0-6.3,2.91C20.13,43.517,22.134,46.981,24.309,45.586Z"/><path class="c" d="M4.554,112A14.224,14.224,0,0,1,7.237,98.781a18.239,18.239,0,0,1,11.185-5.617c1.04-.164,2.093-.252,3.143-.313.5-.029,1-.049,1.508-.063.237-.007.52.015.76-.016.575-.075.163-.127.438.024-.151-.082.237.268.278.324a5.825,5.825,0,0,1,.578,1.043,15.309,15.309,0,0,1,.813,2.454c1.106,4.193,1.39,8.753-.281,12.845-1.9,4.642-6.272,8.224-10.9,9.929l2.461,1.4a63.816,63.816,0,0,1-1.974-10.461,1.986,1.986,0,0,0-1.928-1.468c-3.575.473-7.083,1.48-10.693,1.671-2.561.136-2.577,4.137,0,4,3.626-.192,7.11-1.2,10.693-1.671l-1.929-1.469a63.9,63.9,0,0,0,1.973,10.461,2.021,2.021,0,0,0,2.461,1.4c5.331-1.964,10.282-5.732,12.88-10.881,2.53-5.015,2.544-10.736,1.272-16.1-.494-2.085-1.166-4.428-2.644-6.046-1.8-1.97-4.666-1.485-7.069-1.271-5.38.477-10.641,2.042-14.671,5.793a17.02,17.02,0,0,0-4.867,7.537A20.826,20.826,0,0,0,.7,113.062C1.359,115.547,5.219,114.493,4.554,112Z"/><path class="c" d="M351.813,38.106c.2,2.345.411,4.844-.408,7.094a15.273,15.273,0,0,1-3.717,5.755c-3.089,2.905-8.526,5.069-12.69,3.291l.718.717A18.083,18.083,0,0,1,334.674,40.4c1.583-4.01,6.394-6.252,10.24-7.441l-2.46-1.4c.741,2.7,1.3,5.437,2.079,8.121a2.059,2.059,0,0,0,2.46,1.4c2.444-.387,4.9-.7,7.351-1.047a2.012,2.012,0,0,0,1.4-2.46,2.052,2.052,0,0,0-2.46-1.4c-2.45.349-4.907.66-7.352,1.047l2.461,1.4c-.78-2.684-1.338-5.426-2.079-8.121a2.025,2.025,0,0,0-2.46-1.4c-4.1,1.266-8.333,3.355-11.056,6.77-2.929,3.673-3.5,8.862-2.937,13.4a21.745,21.745,0,0,0,2.047,7.032c1.153,2.32,4.487,2.569,6.825,2.493a18.113,18.113,0,0,0,12.644-5.9,20.893,20.893,0,0,0,3.888-6.632c.926-2.587.777-5.464.551-8.158C355.6,35.559,351.6,35.536,351.813,38.106Z"/><path class="c" d="M70.845,22.828c.449-3.338.966-6.844,2.874-9.693a20.884,20.884,0,0,1,6.951-6.6c5.4-2.988,13-3.861,18.236-.046l-.919-1.2C99.831,11.6,99.84,19.5,95.7,24.966c-3.653,4.829-10.793,6.813-16.549,7.276l2,2c-.189-3.725-.114-7.459-.358-11.182a2.055,2.055,0,0,0-2-2c-3.3-.2-6.587-.51-9.881-.764-2.567-.2-2.554,3.8,0,4,3.294.254,6.584.564,9.881.764l-2-2c.244,3.723.169,7.457.358,11.182a2.022,2.022,0,0,0,2,2c5.8-.467,11.86-2.143,16.535-5.733,5.009-3.845,7.176-10.036,7.426-16.19a31.284,31.284,0,0,0-1.066-9.37c-.436-1.61-1.547-2.349-3-3.062A17.86,17.86,0,0,0,94.363.351,23.548,23.548,0,0,0,76.7,4.333a26.455,26.455,0,0,0-6.837,7.416c-1.816,3-2.412,6.6-2.872,10.016a2.069,2.069,0,0,0,1.4,2.46A2.013,2.013,0,0,0,70.845,22.828Z"/><path class="c" d="M362.668,80.468a16.94,16.94,0,0,0-1.559,7.116,18.652,18.652,0,0,0,1.687,6.83,17.808,17.808,0,0,0,9.339,8.786,21.131,21.131,0,0,0,6.262,1.647,6.067,6.067,0,0,0,3.319-.344,7.52,7.52,0,0,0,2.271-2.944c2.141-4.129,2.216-9.306,1.293-13.785-1.061-5.143-5.553-9.677-9.9-12.3a2.024,2.024,0,0,0-2.736.717c-1.248,2.25-2.345,4.579-3.625,6.81l2.259-.919c-2.1-.877-4.231-1.689-6.347-2.534a2.014,2.014,0,0,0-2.46,1.4,2.048,2.048,0,0,0,1.4,2.46c2.115.845,4.245,1.657,6.347,2.534a2,2,0,0,0,2.258-.919c1.28-2.231,2.377-4.561,3.625-6.81l-2.737.718c3.559,2.144,7.3,5.838,8.1,10.073.751,4,.7,9.153-2.16,12.36l.883-.515c-2.132.352-4.6-.511-6.539-1.322a14.683,14.683,0,0,1-5.2-3.81,12.5,12.5,0,0,1-2.316-13.228,2.063,2.063,0,0,0-.718-2.736A2.014,2.014,0,0,0,362.668,80.468Z"/><path class="d" d="M311.507,177.532c-.29-.12-3.97-1.87-4.16-1.93-2.82-1.56-3.42-3.96-3.78-6.08-.149-.827-.239-1.455-.307-2,6.959-3.17,12.509-12.073,13.5-14.571.181-.512.583-1.557.888-2.757.315.094.5.15.5.15a3.3,3.3,0,0,0,3.31-.774,10.961,10.961,0,0,0,2.831-3.715,17.228,17.228,0,0,0,1.756-9.13,5.748,5.748,0,0,0-.6-2.312,4.067,4.067,0,0,0-2.923-1.944,4.31,4.31,0,0,0-3.445,1.008,4.143,4.143,0,0,1-3.755.383A2.331,2.331,0,0,1,314,131.639a26.821,26.821,0,0,0-5.882-13.041c-1.116-1.292-3.06-3.125-4.636-3.61l-.867-.267a53.137,53.137,0,0,1-5.873,2.408c-1.516.52-3.522.906-4.63-.059-1.049-.914-.621-2.571-1.87-3.315a4.235,4.235,0,0,0-3.053-.069c-10.678,2.671-17.11,9.159-21.073,17.393a4.2,4.2,0,0,1-3.651,2.764,3.838,3.838,0,0,1-1.724-.364,4.308,4.308,0,0,0-3.445-1.008,4.065,4.065,0,0,0-2.922,1.944,5.748,5.748,0,0,0-.6,2.312,17.228,17.228,0,0,0,1.756,9.13,10.948,10.948,0,0,0,2.831,3.715,4.116,4.116,0,0,0,3.73,1.179l.734-.2a30.981,30.981,0,0,0,6.137,10.43,27.274,27.274,0,0,0,9.8,7.235c-.048.371-.117.8-.207,1.3-.37,2.12-.97,4.52-3.78,6.08-.2.06-3.87,1.81-4.17,1.93,0,0,3.7,17.237,19.942,17.237S311.507,177.532,311.507,177.532Z"/><path class="d" d="M347.723,246.03a38.028,38.028,0,0,0,2.609,5.4,72.9,72.9,0,0,0,9.236,10.531c2.491,2.341,5.373,5,5.267,8.411A2.5,2.5,0,0,1,362.4,273.1c-2.2.285-4.338-.746-6.249-1.867a52.429,52.429,0,0,1-6.417-4.437c-.456,2.2-3.011,3.249-5.218,2.97a3.138,3.138,0,0,1-2.6-2.74c-.445-2.333-.778-4.444-.963-5.444-.2-1.078-.612-3.5-.914-4.556l-2.124-9.889"/><path class="d" d="M234.2,246.03a38.028,38.028,0,0,1-2.609,5.4,72.9,72.9,0,0,1-9.236,10.531c-2.491,2.341-5.373,5-5.267,8.411a2.5,2.5,0,0,0,2.437,2.729c2.2.285,4.337-.746,6.248-1.867a52.429,52.429,0,0,0,6.417-4.437c.456,2.2,3.011,3.249,5.218,2.97a3.138,3.138,0,0,0,2.6-2.74c.445-2.333.778-4.444.963-5.444.2-1.078.612-3.5.914-4.556l2.124-9.889"/><path class="d" d="M271.775,359.1A25.345,25.345,0,0,1,267,362.8a15.9,15.9,0,0,1-9.292,1.547,9.751,9.751,0,0,1-4.689-1.847,6.667,6.667,0,0,1-2.558-4.625c-.2-2.653,1.239-5.166,2.925-7.044,3.948-4.4,8.114-8.721,11.716-13.452a1.87,1.87,0,0,1,2.227-.7c2.1.917,4.617.876,7.6.937a11.532,11.532,0,0,0,7.425-2.59c2.281-1.742,2.708,5.98,2.763,7.629.088,2.609.471,6.054-1.379,7.984-1.329,1.386-3.614,2.355-5.234,3.274A36.554,36.554,0,0,0,271.775,359.1Z"/><path class="d" d="M312.477,359.1a24.789,24.789,0,0,0,4.649,3.7,15.148,15.148,0,0,0,9.055,1.547,9.362,9.362,0,0,0,4.569-1.847,6.712,6.712,0,0,0,2.493-4.625c.195-2.653-1.207-5.166-2.85-7.044-3.848-4.4-7.907-8.721-11.418-13.452a1.8,1.8,0,0,0-2.17-.7c-2.044.917-4.5.876-7.4.937a11.066,11.066,0,0,1-7.237-2.59c-2.222-1.742-2.638,5.981-2.692,7.629-.086,2.609-.458,6.054,1.344,7.984,1.3,1.386,3.522,2.355,5.1,3.274A35.788,35.788,0,0,1,312.477,359.1Z"/><path class="d" d="M266.5,335.027c.448-4.233.577-13.532.687-20.895,5.123.048,13.048.043,18.146.015-.044.414-.072.692-.072.692-.434,3.963-1.6,13.5-2.276,19.684a11.841,11.841,0,0,1-8.055,3.095c-3.46-.071-6.3,0-8.577-1.46C266.4,335.839,266.453,335.459,266.5,335.027Z"/><path class="d" d="M317.069,335.705c-.513-3.594-1.03-13.792-1.141-21.232,0,0,0-.116,0-.331-5.269.039-12.723.03-17.431,0,.038.43.059.71.059.71.39,3.566.987,12.084,1.581,18.323,2.561,2.657,5.5,4.522,9.266,4.441,3.094-.065,5.68-.014,7.8-1.131C317.159,336.28,317.114,336.018,317.069,335.705Z"/><path class="c" d="M270.361,357.689c-2.407,2.221-4.729,3.94-8.016,4.585-3,.589-7.244.311-9.132-2.469-1.971-2.9.249-6.078,2.216-8.255,2.624-2.9,5.3-5.76,7.84-8.74q.915-1.074,1.8-2.171.442-.548.876-1.1c.167-.214.557-.956.828-1.028-.323.085.283.209.361.238a9.12,9.12,0,0,0,1.047.325,17.606,17.606,0,0,0,2.818.416c3.438.28,6.855.272,10.015-1.266A14.384,14.384,0,0,0,283.042,337c.631-.448.324-.177.243-.255l-.289.034a1.168,1.168,0,0,1-.878-.348c.258.071-.112-.224.045.074.264.5-.121-.389.1.2a10.071,10.071,0,0,1,.4,1.52,30.371,30.371,0,0,1,.464,4.766,17.417,17.417,0,0,1-.121,4.774c-.385,1.581-1.6,2.3-2.954,3.058a49.915,49.915,0,0,0-4.786,2.795,50.838,50.838,0,0,0-4.908,4.075c-1.9,1.749.937,4.573,2.828,2.828a38.276,38.276,0,0,1,5.193-4.191c1.559-1,3.278-1.721,4.829-2.732a8.034,8.034,0,0,0,3.464-4.116,14.893,14.893,0,0,0,.5-5.458c-.11-2.772-.131-13.258-5.32-10.987a20.4,20.4,0,0,0-1.992,1.268,9.7,9.7,0,0,1-2.6,1.074,20.024,20.024,0,0,1-6.26.112c-1.8-.146-3.607-1.293-5.4-.778-2.013.578-3.283,3.038-4.552,4.554-2.959,3.533-6.188,6.823-9.2,10.3-2.771,3.2-4.51,7.531-2.471,11.581,2.175,4.32,7.519,5.722,12,5.275a18.167,18.167,0,0,0,6.9-2.036,25.943,25.943,0,0,0,4.909-3.87C275.085,358.768,272.251,355.945,270.361,357.689Z"/><path class="c" d="M265.187,314.063c-.062,4.16-.119,8.32-.24,12.479-.052,1.777-.114,3.555-.212,5.33-.041.756-.089,1.511-.152,2.266q-.036.421-.079.843c-.017.156-.035.312-.053.469-.039.33.068-.462-.007.047a2.066,2.066,0,0,0,1.4,2.46,2.015,2.015,0,0,0,2.46-1.4,82.552,82.552,0,0,0,.636-9.677c.129-4.272.186-8.546.25-12.82.039-2.575-3.961-2.576-4,0Z"/><path class="c" d="M283.26,314.839c-.74,6.734-1.6,13.455-2.332,20.189a2.012,2.012,0,0,0,2,2,2.046,2.046,0,0,0,2-2c.736-6.734,1.592-13.455,2.332-20.189a2.013,2.013,0,0,0-2-2,2.047,2.047,0,0,0-2,2Z"/><path class="c" d="M311.062,360.517c2.85,2.7,5.8,4.906,9.752,5.652,4.067.769,9.038.289,12.03-2.89s2.958-7.672.822-11.327a32.505,32.505,0,0,0-4-4.962c-1.492-1.678-2.989-3.352-4.453-5.055s-2.882-3.413-4.231-5.194a4.992,4.992,0,0,0-2.31-1.977,4.389,4.389,0,0,0-3.056.247,18,18,0,0,1-5.533.594,9.629,9.629,0,0,1-5.294-1.2c-1.259-.734-2.343-1.969-3.944-1.529a3.783,3.783,0,0,0-2.326,2.58,22.445,22.445,0,0,0-1.022,6.688c-.171,3.571-.55,7.822,2.435,10.416a37,37,0,0,0,5.352,3.307,35.039,35.039,0,0,1,5.78,4.654c1.869,1.77,4.7-1.054,2.829-2.828a40.543,40.543,0,0,0-8.584-6.388c-1.151-.625-2.65-1.283-3.341-2.46a7.336,7.336,0,0,1-.579-3.746,47.587,47.587,0,0,1,.365-5.943,17.726,17.726,0,0,1,.488-2.256c.008-.025.192-.664.079-.243.132-.494.12-.042.022-.129l.092-.1a1.21,1.21,0,0,1-.892.348c-.486-.006-.689-.23-.071.221,2.966,2.162,6.115,2.681,9.707,2.588a23.91,23.91,0,0,0,4.46-.429,15.8,15.8,0,0,1,1.84-.612c-.327.021.169.384.33.589.392.5.774,1.009,1.166,1.508,2.3,2.926,4.774,5.707,7.246,8.487,2.086,2.346,5.445,5.237,5.024,8.748-.463,3.86-4.942,4.819-8.145,4.593-3.81-.27-6.538-2.25-9.207-4.778C312.022,355.92,309.188,358.743,311.062,360.517Z"/><path class="c" d="M313.928,314.473q.1,6.232.441,12.46c.172,3.173.331,6.37.8,9.516a2.015,2.015,0,0,0,2.461,1.4,2.05,2.05,0,0,0,1.4-2.46,1.9,1.9,0,0,1-.045-.338c-.031-.289-.065-.578-.095-.867-.071-.7-.131-1.4-.186-2.1-.144-1.821-.254-3.644-.351-5.467q-.321-6.065-.424-12.137c-.04-2.572-4.04-2.579-4,0Z"/><path class="c" d="M296.556,314.854c.753,6.968,1.093,13.975,1.846,20.944a2.059,2.059,0,0,0,2,2,2.012,2.012,0,0,0,2-2c-.753-6.969-1.093-13.976-1.846-20.944a2.059,2.059,0,0,0-2-2,2.013,2.013,0,0,0-2,2Z"/><path class="e" d="M269.245,314.148c-3.305-.02-5.917-.057-6.764-.116-.348-2.64.213-7.24-.072-11.411,0,0,0-1.086,0-2.562,1.411.1,2.721.168,3.831.192,6.956.148,25.934.74,26.222.74,5.859,0,15.58-.174,24.344-.47,1.681-.057,3.425-.193,5.139-.375-.038,1.442-.064,2.475-.064,2.475-.285,4.171.276,8.771-.072,11.411-2.606.182-21.949.152-26.713.082-.065-.211-.12-.368-.12-.368-.56-1.609-1.08-5.944-1.57-10.32h-2.518c-.49,4.376-1.01,8.711-1.57,10.32,0,0-.055.157-.12.368C285.977,314.161,276.115,314.19,269.245,314.148Z"/><path class="f" d="M232.009,244.029q-.894-.468-1.771-.969c4.038-9.939,7.644-21.36,11.682-31.3,2.89-7.113,5.76-15.469,9.983-21.881s14.518-11.555,22.318-13.585a23.947,23.947,0,0,0,32.862-.784c8.542,3.066,18.181,8.63,22.45,15.11,4.223,6.412,7.173,14.027,10.063,21.14,4.038,9.939,7.644,21.36,11.682,31.3a53.593,53.593,0,0,1-18.77,6.489l-3.8.716c.629,4.229,1.3,8.674,2.014,13.245,1.666,10.647,4.207,21.918,5.259,32.93a1.146,1.146,0,0,1-.907,1.449,99.3,99.3,0,0,1-18.268,2.632c-8.764.3-18.485.47-24.344.47-.288,0-19.266-.592-26.222-.74-5.222-.112-14.893-1.149-18.444-2.593a2.539,2.539,0,0,1-1.334-2.148c.212-7.019,1.4-12.886,2.334-19.926,1.084-8.144,2.416-17.064,3.687-25.308-1.778-.368-3.471-.727-3.471-.727A53.626,53.626,0,0,1,232.009,244.029Z"/><path class="d" d="M314.45,178.676a66.492,66.492,0,0,0-7.375-3.172,23.928,23.928,0,0,1-32.854.791,52.169,52.169,0,0,0-9.587,3.6,27.376,27.376,0,0,0,7.937,12.174l.141.068a10.547,10.547,0,0,0,2.68,1.69,11.241,11.241,0,0,0,8.7-.31,21.807,21.807,0,0,0,6.43-4.53,21.678,21.678,0,0,0,6.43,4.53,11.241,11.241,0,0,0,8.7.31,10.4,10.4,0,0,0,2.82-1.82l-.035.062a27.368,27.368,0,0,0,7.993-12.355Q315.449,179.179,314.45,178.676Z"/><path class="c" d="M260.409,302.621c.231,3.791-.368,7.64.072,11.411a2.068,2.068,0,0,0,2,2c4.162.273,8.38.131,12.548.135,4.721.006,9.444.014,14.165-.053a2.055,2.055,0,0,0,1.928-1.468c1.148-3.574,1.345-7.511,1.762-11.22a2.012,2.012,0,0,0-2-2,2.047,2.047,0,0,0-2,2c-.379,3.37-.576,6.91-1.619,10.156l1.929-1.468c-4.721.067-9.444.059-14.165.053-4.168,0-8.386.138-12.548-.135l2,2c-.44-3.771.159-7.621-.072-11.411-.156-2.558-4.157-2.575-4,0Z"/><path class="c" d="M319.877,302.621c-.231,3.791.368,7.64-.072,11.411l2-2c-4.162.273-8.38.131-12.547.135-4.722.006-9.445.014-14.166-.053l1.929,1.468c-1.043-3.246-1.24-6.787-1.619-10.156a2.06,2.06,0,0,0-2-2,2.014,2.014,0,0,0-2,2c.417,3.71.614,7.646,1.762,11.22a2.059,2.059,0,0,0,1.928,1.468c4.721.067,9.444.059,14.166.053,4.167,0,8.385.138,12.547-.135a2.071,2.071,0,0,0,2-2c.44-3.771-.159-7.621.072-11.411.157-2.571-3.844-2.562-4,0Z"/><path class="c" d="M253.9,223.806c-.872,9.512-2.283,18.94-3.727,28.378-1.489,9.731-2.783,19.488-4.231,29.224-.35,2.355-.692,4.713-.962,7.078a38.378,38.378,0,0,0-.5,7.384c.339,3.955,5,4.5,8.088,5.025a135.019,135.019,0,0,0,19.232,1.5q8.857.24,17.714.515c5.776.174,11.557.023,17.333-.107,4.644-.1,9.322-.109,13.95-.538a112.436,112.436,0,0,0,11.959-1.784,25.027,25.027,0,0,0,2.724-.62c2.16-.7,2.615-2.287,2.4-4.36-.526-5.108-1.328-10.185-2.21-15.242-1.74-9.972-3.463-19.928-4.955-29.942-1.232-8.27-2.382-16.558-3.784-24.8-.254-1.489-.519-2.975-.806-4.458-.489-2.524-4.345-1.456-3.857,1.064,3.165,16.335,4.848,32.934,7.77,49.314.87,4.876,1.789,9.743,2.572,14.634.376,2.35.723,4.7,1.006,7.066q.114.945.215,1.893c.031.3-.012,1.384.156,1.557.2.2.354-.631.429-.581a2.075,2.075,0,0,0-.481.126,100.911,100.911,0,0,1-21.879,2.542c-6.758.19-13.569.5-20.331.3q-7.452-.216-14.9-.441c-5.732-.164-11.49-.148-17.2-.709a57.7,57.7,0,0,1-9.8-1.6,4.66,4.66,0,0,1-1.267-.454c-.4-.641-.024-2.16.024-2.9.153-2.344.41-4.681.728-7.007q1.916-14.034,4.026-28.045c1.377-9.146,2.867-18.275,3.9-27.468q.368-3.269.665-6.543a2.015,2.015,0,0,0-2-2,2.043,2.043,0,0,0-2,2Z"/><path class="c" d="M257.47,121.373a31.052,31.052,0,0,1,13.277-22.641,32.578,32.578,0,0,1,19.329-5.949,34.277,34.277,0,0,1,11.41,1.871,32.456,32.456,0,0,1,4.813,2.158,37.774,37.774,0,0,1,5.511,3.655c.659.573,1.628,1.515,2.266,2.159a30.152,30.152,0,0,1,4.188,5.3,31.633,31.633,0,0,1,4.552,15.312,42.467,42.467,0,0,1-.595,9.208,4.292,4.292,0,0,0-2.551.6l-1.239.727a4.017,4.017,0,0,1-2.674.536,2.071,2.071,0,0,1-1.195-1.03,6.956,6.956,0,0,1-.573-1.729,26.762,26.762,0,0,0-5.636-12.659,7.2,7.2,0,0,0-2.324-3.5,4,4,0,0,0-3.251-.749,52.513,52.513,0,0,1-6.033,2.488c-1.516.52-3.522.906-4.63-.059-1.049-.914-.621-2.571-1.87-3.315a4.235,4.235,0,0,0-3.053-.069c-10.678,2.671-17.11,9.159-21.073,17.393,0,0-1.064,2.182-2.466,2.5a10.4,10.4,0,0,1-2.909-.1,4.211,4.211,0,0,0-2.615-1.04c.2,1.917-.971-5.079-.79-9.2Q257.381,122.286,257.47,121.373Z"/><path class="c" d="M271.139,179.461c1.417-.584,2.785-1.287,4.178-1.925l.316-.143c.249-.115-.549.229-.352.148s.391-.154.575-.251a8.628,8.628,0,0,0,1.871-1.395,9.047,9.047,0,0,0,2.162-3.452,17.451,17.451,0,0,0,.807-3.709,2.2,2.2,0,0,0-.2-1.541,2,2,0,0,0-3.655.477,20.822,20.822,0,0,1-.609,3.11c-.065.221-.142.437-.219.654a.857.857,0,0,0-.063.163c0,.008.184-.4.087-.208-.064.122-.116.251-.18.374a6.69,6.69,0,0,1-.4.677c-.042.062-.288.4-.1.151s-.116.127-.175.191c-.183.2-.382.38-.584.561-.275.247.267-.177-.046.04-.145.1-.29.2-.44.293-.369.228-.022.027.111.007a2.517,2.517,0,0,0-.523.221c-.087.037-.173.076-.259.115-.664.3-1.323.614-1.983.924l-1.14.535c-.235.109-1.214.528-.237.125a2.2,2.2,0,0,0-1.2.92,2.043,2.043,0,0,0-.2,1.541,2.02,2.02,0,0,0,2.46,1.4Z"/><path class="c" d="M301.257,167.512c.336,2.608.682,5.323,2.339,7.468a8.583,8.583,0,0,0,1.582,1.57,8.309,8.309,0,0,0,1.011.695,4.131,4.131,0,0,0,.639.29c.108.038-.618-.274-.343-.144.662.312,1.328.614,1.99.925s1.339.653,2.023.943a2.2,2.2,0,0,0,1.541.2,2,2,0,0,0,.478-3.656c-.748-.317-1.477-.687-2.212-1.032-.455-.213-.909-.427-1.365-.637-.145-.067-.29-.134-.436-.2a5.364,5.364,0,0,0-.574-.243c-.155.031.432.237.2.054a4.824,4.824,0,0,0-.482-.31q-.273-.2.03.033c-.078-.063-.155-.127-.231-.193-.213-.186-.7-.54-.787-.818q.258.342.069.082c-.051-.072-.1-.145-.148-.219q-.141-.219-.264-.447c-.033-.061-.172-.441-.226-.456.117.285.136.329.055.131-.03-.078-.059-.155-.087-.233a12.15,12.15,0,0,1-.487-1.87c-.073-.389-.14-.78-.2-1.171q-.05-.309-.095-.62c-.014-.094-.027-.188-.04-.282.041.308.048.354.019.137a2.053,2.053,0,0,0-2-2c-.969.043-2.143.889-2,2Z"/><path class="c" d="M320.481,134.894a2.218,2.218,0,0,1,3.226.53,5.44,5.44,0,0,1,.387,2.395,14.359,14.359,0,0,1-.206,2.891,15.273,15.273,0,0,1-2.046,5.409A7.524,7.524,0,0,1,320.234,148a1.472,1.472,0,0,1-1.563.414c-2.49-.664-3.552,3.193-1.063,3.857,3.162.844,5.64-1.188,7.364-3.648a18.433,18.433,0,0,0,2.989-8.312c.337-2.768.328-6.271-1.911-8.284a6.36,6.36,0,0,0-8.4.035,2.016,2.016,0,0,0,0,2.829,2.045,2.045,0,0,0,2.829,0Z"/><path class="c" d="M316.029,147.663a14.128,14.128,0,0,1-.942,4.033c-.086.242-.182.481-.26.725-.108.333.222-.41.038-.1-.156.266-.271.563-.416.836A34.382,34.382,0,0,1,311.291,158c-2.831,3.668-6.6,7.478-11.291,8.507-2.514.551-1.45,4.408,1.063,3.857,5.557-1.217,10.007-5.586,13.371-9.94,2.875-3.724,5.386-7.923,5.595-12.758.112-2.574-3.888-2.569-4,0Z"/><path class="c" d="M262.158,132.065a6.362,6.362,0,0,0-8.4-.035c-2.3,2.067-2.246,5.687-1.881,8.512a18.149,18.149,0,0,0,3.13,8.322c1.782,2.444,4.436,4.516,7.614,3.815a2,2,0,1,0-1.064-3.857c-1.344.3-2.781-1.476-3.433-2.457a15.051,15.051,0,0,1-2.176-5.5,14.363,14.363,0,0,1-.238-2.846,5.71,5.71,0,0,1,.391-2.594,2.218,2.218,0,0,1,3.226-.53,2.055,2.055,0,0,0,2.828,0,2.016,2.016,0,0,0,0-2.829Z"/><path class="c" d="M259.8,147.109a33.091,33.091,0,0,0,7.606,15.129c4,4.533,9.348,8.282,15.44,9.15a2.067,2.067,0,0,0,2.46-1.4,2.013,2.013,0,0,0-1.4-2.46c-10.487-1.494-18.22-11.6-20.253-21.485-.519-2.52-4.375-1.454-3.857,1.063Z"/><path class="c" d="M324.186,132.759c1.457-8.956.56-18.445-4.436-26.226a34.635,34.635,0,0,0-20.63-14.672,37.031,37.031,0,0,0-25.581,2.814,34.513,34.513,0,0,0-14.05,13.543,33.279,33.279,0,0,0-3.946,12.477,43.89,43.89,0,0,0,.564,12.067,2.015,2.015,0,0,0,2.46,1.4,2.048,2.048,0,0,0,1.4-2.461c-1.042-6.436-.9-13.112,1.811-19.147a30.379,30.379,0,0,1,11.048-12.823c13.04-8.551,31.508-5.743,41.508,6.143,6.006,7.138,7.461,16.829,6,25.825a2.061,2.061,0,0,0,1.4,2.46,2.016,2.016,0,0,0,2.46-1.4Z"/><path class="c" d="M304.357,111.59a50.737,50.737,0,0,1-5.373,2.577c-1.458.588-3.43,1.645-5.059,1.5-.6-.055-.467-.008-.658-.558a6.759,6.759,0,0,0-.983-2.158c-1.291-1.613-3.363-1.662-5.237-1.279a31.89,31.89,0,0,0-16.832,9.673,37.083,37.083,0,0,0-5.823,8.73c-1.121,2.305,2.327,4.336,3.454,2.019a30.2,30.2,0,0,1,11.177-12.9,27.8,27.8,0,0,1,9.087-3.664,2.783,2.783,0,0,1,.912-.1c.262.048.137,0,.171.031.175.19.226.766.306,1a6.122,6.122,0,0,0,.5,1.158,4.636,4.636,0,0,0,4.279,2.045,18.392,18.392,0,0,0,5.98-1.716,59.755,59.755,0,0,0,6.119-2.9c2.259-1.237.242-4.692-2.019-3.454Z"/><path class="c" d="M306.707,120.013a28.108,28.108,0,0,1,1.909,2.719,27.815,27.815,0,0,1,1.609,3.008,24.006,24.006,0,0,1,1.056,2.852,25.4,25.4,0,0,1,.754,3.315,2.006,2.006,0,0,0,2.46,1.4,2.059,2.059,0,0,0,1.4-2.46,29.242,29.242,0,0,0-6.356-13.66,2.006,2.006,0,0,0-2.829,0,2.059,2.059,0,0,0,0,2.829Z"/><path class="c" d="M259.735,135.206a5.142,5.142,0,0,0,2.452.631,4.9,4.9,0,0,0,2.032-.319,6.241,6.241,0,0,0,2.213-1.4,7.1,7.1,0,0,0,1.414-2.034,2.163,2.163,0,0,0,.2-1.541,2.043,2.043,0,0,0-.92-1.2,2.017,2.017,0,0,0-1.541-.2,1.955,1.955,0,0,0-1.195.919,6.285,6.285,0,0,1-.695,1.168l.313-.4a4.792,4.792,0,0,1-.788.8l.405-.313a4.093,4.093,0,0,1-.887.52l.478-.2a3.933,3.933,0,0,1-.889.244l.532-.072a3.833,3.833,0,0,1-1.015-.006l.532.072a3.857,3.857,0,0,1-.93-.228l.477.2a1.144,1.144,0,0,1-.171-.095,2,2,0,0,0-2.938,2.259,2.22,2.22,0,0,0,.919,1.195Z"/><path class="c" d="M312,131.645a4.475,4.475,0,0,0,2.246,3.913,6.158,6.158,0,0,0,5.832-.352,2.016,2.016,0,0,0,.717-2.736,2.045,2.045,0,0,0-2.736-.718q-.254.133-.516.249l.478-.2a5.751,5.751,0,0,1-1.365.394l.532-.072a3.906,3.906,0,0,1-1.036.007l.532.072a3.087,3.087,0,0,1-.643-.174l.478.2a2.914,2.914,0,0,1-.621-.36l.4.313a2.42,2.42,0,0,1-.395-.4l.313.405a2.4,2.4,0,0,1-.285-.488l.2.478a2.907,2.907,0,0,1-.179-.662l.072.532c-.017-.135-.027-.269-.031-.405a2.087,2.087,0,0,0-.586-1.414A2,2,0,0,0,312,131.645Z"/><path class="c" d="M302.953,116.916c.131.042.26.09.387.143l-.478-.2a8.214,8.214,0,0,1,1.732,1.063l-.4-.313a17.685,17.685,0,0,1,2.518,2.406,2,2,0,0,0,3.414-1.415,2.219,2.219,0,0,0-.585-1.414,18.157,18.157,0,0,0-2.2-2.155,10.15,10.15,0,0,0-3.317-1.97,2.018,2.018,0,0,0-2.46,1.4,2.044,2.044,0,0,0,1.4,2.46Z"/><path class="c" d="M284.81,156.364a9.963,9.963,0,0,0,11.9,0,2,2,0,0,0-2.828-2.828c-.077.075-.371.309-.041.055s-.04.018-.137.078c-.118.072-.239.139-.362.2-.082.04-.174.073-.253.118.1-.058.465-.177.15-.069a8.5,8.5,0,0,1-1.206.33c-.151.028-.489.171-.019.013a1.576,1.576,0,0,1-.37.038c-.3.025-.59.036-.886.037-.27,0-.541-.01-.811-.03a2.822,2.822,0,0,0-.447-.045c.192-.022.352.053.048,0a7.37,7.37,0,0,1-1.223-.324c-.161-.058-.419-.228.1.051-.068-.036-.142-.064-.211-.1-.137-.068-.272-.141-.4-.221-.1-.062-.191-.136-.291-.2.577.35.277.223.114.064a2,2,0,0,0-2.829,2.828Z"/><path class="c" d="M289.779,143.82a26.332,26.332,0,0,1,.618,2.83l-.071-.531a1.7,1.7,0,0,1,.011.391l.071-.532a.887.887,0,0,1-.043.176l.2-.478a.688.688,0,0,1-.062.113l.312-.405a.566.566,0,0,1-.092.091l.4-.313a1.78,1.78,0,0,1-.224.119l.477-.2a1.655,1.655,0,0,1-.378.11l.532-.072a1.506,1.506,0,0,1-.355,0l.532.071c-.134-.019-.265-.051-.4-.069a1.522,1.522,0,0,0-.8-.036,1.484,1.484,0,0,0-.744.238,2,2,0,0,0-.717,2.736,1.913,1.913,0,0,0,1.195.919c.353.048.7.136,1.055.152a3.459,3.459,0,0,0,1.617-.394,2.455,2.455,0,0,0,1.325-1.6,3.788,3.788,0,0,0-.014-1.665c-.154-.912-.365-1.816-.6-2.711a2,2,0,0,0-2.46-1.4,2.03,2.03,0,0,0-1.2.919,2.106,2.106,0,0,0-.2,1.542Z"/><path class="c" d="M275.509,136.234c-.462,1.5-.161,4.957,2.684,5.251,3.761-.023,3.961-4.2,2.695-6.164C279.851,133.713,276.8,133.045,275.509,136.234Z"/><path class="c" d="M305.5,136.234c.462,1.5.161,4.957-2.684,5.251-3.761-.023-3.961-4.2-2.695-6.164C301.156,133.713,304.2,133.045,305.5,136.234Z"/><path class="c" d="M272.807,177.709a25.936,25.936,0,0,0,34.417.392c1.973-1.658-.869-4.475-2.829-2.829a22.208,22.208,0,0,1-28.759-.391c-1.923-1.7-4.763,1.12-2.829,2.828Z"/><path class="c" d="M273.69,174.366c-9.461,2.5-19.46,7.585-24.595,16.235a106.661,106.661,0,0,0-7.113,15.6c-2.158,5.489-4.335,10.962-6.338,16.51-2.391,6.624-4.691,13.283-7.334,19.812a2,2,0,0,0,.919,2.259,56.116,56.116,0,0,0,19.248,6.691,2.066,2.066,0,0,0,2.46-1.4,2.014,2.014,0,0,0-1.4-2.46,53.1,53.1,0,0,1-18.292-6.288l.919,2.259c4.435-10.955,8.084-22.21,12.442-33.2a160.789,160.789,0,0,1,6.423-15.039,29.514,29.514,0,0,1,3.881-6.12,27.084,27.084,0,0,1,5.056-4.342,48.457,48.457,0,0,1,14.784-6.67c2.486-.657,1.432-4.517-1.063-3.857Z"/><path class="c" d="M306.816,177.531a60.17,60.17,0,0,1,13.565,6.972,33.957,33.957,0,0,1,5.342,4.54,29.407,29.407,0,0,1,4.021,5.758,125.117,125.117,0,0,1,6.938,15.059c2.1,5.183,4.073,10.406,5.962,15.67,2.17,6.044,4.3,12.108,6.7,18.062l.919-2.259a53.1,53.1,0,0,1-18.292,6.288,2.013,2.013,0,0,0-1.4,2.46,2.051,2.051,0,0,0,2.46,1.4,56.116,56.116,0,0,0,19.248-6.691,2.014,2.014,0,0,0,.919-2.259c-4.453-11-8.046-22.322-12.5-33.324a143.525,143.525,0,0,0-7.075-15.653,37.668,37.668,0,0,0-4.353-6.536,34.9,34.9,0,0,0-5.413-4.9,61.843,61.843,0,0,0-15.984-8.437c-2.419-.89-3.463,2.974-1.063,3.858Z"/><path class="c" d="M263.186,181.819c2.085,5.347,5.837,11.356,11.2,13.738,6.395,2.842,12.947-.743,17.554-5.153h-2.829c2.743,2.626,5.97,5.02,9.757,5.822a12.407,12.407,0,0,0,11.022-2.8L306.745,191l-.035.062a2.009,2.009,0,0,0,3.141,2.424,29.271,29.271,0,0,0,7.97-11.667,2.014,2.014,0,0,0-1.4-2.46,2.047,2.047,0,0,0-2.46,1.4,25.123,25.123,0,0,1-6.941,9.9l3.141,2.424.035-.062a2.009,2.009,0,0,0-3.142-2.423c-4.968,4.244-11.14.792-15.121-3.02a2.039,2.039,0,0,0-2.829,0c-3.388,3.243-8.644,6.7-13.424,4.183-4.03-2.122-7-6.8-8.64-11a2.059,2.059,0,0,0-2.46-1.4,2.015,2.015,0,0,0-1.4,2.46Z"/><path class="g" d="M284.5,253.473c-10.667-17.185-21.72-52.077-23.871-72.945,1.222-1.111,7.241-4.389,8.8-4.389,1.445,17.223,14.556,59.7,24.037,72.445"/><path class="c" d="M286.222,252.463c-5-8.086-8.679-16.99-11.929-25.9a244.4,244.4,0,0,1-9.08-30.89,135.564,135.564,0,0,1-2.588-15.148l-.586,1.415c.3-.262-.263.124,0-.008a3.786,3.786,0,0,0,.389-.273c.324-.219.656-.425.991-.628.771-.467,1.56-.9,2.36-1.321.721-.376,1.454-.751,2.2-1.068a10.629,10.629,0,0,1,1.061-.392c.118-.036.238-.064.355-.1.491-.151-.366,0,.026-.014l-2-2c.841,9.787,3.46,19.5,6.166,28.9a247.345,247.345,0,0,0,11.492,32.341,64.567,64.567,0,0,0,6.653,12.209,2.06,2.06,0,0,0,2.736.718,2.015,2.015,0,0,0,.717-2.737,59.14,59.14,0,0,1-5.781-10.3c-2.209-4.748-4.12-9.631-5.9-14.554a277.183,277.183,0,0,1-9.618-32.447,105.462,105.462,0,0,1-2.464-14.137,2.034,2.034,0,0,0-2-2c-2.245.1-4.525,1.488-6.449,2.539a27.892,27.892,0,0,0-2.808,1.7,4.142,4.142,0,0,0-1.266,1.143,3.6,3.6,0,0,0-.13,2.307,155.929,155.929,0,0,0,3.19,17.549,239.694,239.694,0,0,0,12.193,37.761,124.027,124.027,0,0,0,8.618,17.346c1.35,2.186,4.812.18,3.453-2.019Z"/><path class="g" d="M290.222,277.752a5.849,5.849,0,0,1-1.722-1.725c-2.073-3.265-4.461-12.764-4.383-19.623.028-2.511,2.691-6.024,5.691-6.921,12-3.533,21.028-4.875,32.752-8.281a4.6,4.6,0,0,1,5.185,2.072c2.233,2.837,4.154,6.145,5.4,12.493.964,4.924.418,15.474-4.359,17.008a189.12,189.12,0,0,1-29.3,6.383l-1.327.119A12.569,12.569,0,0,1,290.222,277.752Z"/><path class="c" d="M287.02,249.072a7.908,7.908,0,0,0-3.858,3.42,9.577,9.577,0,0,0-1.17,5.707,54.687,54.687,0,0,0,1.877,11.7c.764,2.848,1.665,6.331,3.819,8.482,2.695,2.691,6.906,3.186,10.519,2.876a123.152,123.152,0,0,0,12.61-2.01c4.593-.883,9.164-1.906,13.673-3.155,3.338-.924,6.687-1.527,8.571-4.706a19.98,19.98,0,0,0,2.255-8.859A30.492,30.492,0,0,0,329,241.86a2.01,2.01,0,0,0-2.828,0,2.049,2.049,0,0,0,0,2.828,25.937,25.937,0,0,1,5.2,15.019,24.031,24.031,0,0,1-.881,7.577,8.755,8.755,0,0,1-1.257,2.654,2.508,2.508,0,0,1-.841.761,14.233,14.233,0,0,1-1.975.67,178.873,178.873,0,0,1-23.336,5.2c-3.139.51-6.524,1.244-9.677.449a5.638,5.638,0,0,1-3.252-1.877,10.931,10.931,0,0,1-1.322-2.763,49.324,49.324,0,0,1-2.534-10.644,24.207,24.207,0,0,1-.33-5.511,4.547,4.547,0,0,1,.941-2.164,5.791,5.791,0,0,1,1.173-1.132c2.389-.893,1.355-4.761-1.063-3.857Z"/><path class="c" d="M310.147,257.018l3.4-.7a2,2,0,0,0,.478-3.655l-.478-.2a2.018,2.018,0,0,0-1.063,0l-3.4.7a2,2,0,0,0-.477,3.656l.477.2a2.022,2.022,0,0,0,1.064,0Z"/><path class="c" d="M304.034,266.4c3.964-.885,7.928-1.788,11.818-2.967,1.915-.58,3.81-1.225,5.686-1.922a27.944,27.944,0,0,0,5.9-2.668,13.188,13.188,0,0,0,3.909-3.635,9.183,9.183,0,0,0,.9-5.27,14.411,14.411,0,0,0-3.194-7.405,8.68,8.68,0,0,0-3.25-2.913c-1.986-.918-3.752-.387-5.755.172-4.235,1.184-8.512,2.2-12.795,3.192-4.224.975-8.451,1.939-12.644,3.042-3.215.846-10.533,1.9-8.284,6.927a50.909,50.909,0,0,0,5.936,10.56c2.863,3.681,7.549,3.784,11.779,2.887,2.516-.534,1.451-4.391-1.064-3.857-2.724.578-5.883.78-7.729-1.659a45.885,45.885,0,0,1-4.594-8.1,14.56,14.56,0,0,0-.773-1.638c.023,0,.671,1.983-.027.258.4.984-.173.1.009.179a8.444,8.444,0,0,0,1.034-.377q2.816-.817,5.656-1.55c3.562-.922,7.148-1.749,10.733-2.575,3.509-.808,7.016-1.623,10.5-2.532q1.44-.375,2.876-.772a12.537,12.537,0,0,1,2.659-.724,3.03,3.03,0,0,1,2.169,1.369,12.519,12.519,0,0,1,2.674,4.937,7.751,7.751,0,0,1,.1,1.845,10.114,10.114,0,0,1-.116,1.125,5.32,5.32,0,0,1-.131.686c.058-.192.119-.209,0-.008a8.852,8.852,0,0,1-2.759,2.494,26.749,26.749,0,0,1-5.568,2.447q-2.6.944-5.256,1.74c-3.772,1.126-7.613,2-11.453,2.857C300.459,263.105,301.522,266.962,304.034,266.4Z"/><path class="c" d="M232.472,245.021a35.562,35.562,0,0,1-2.874,5.767,60.313,60.313,0,0,1-4.539,5.561c-1.578,1.744-3.261,3.368-4.959,4.991a19.446,19.446,0,0,0-3.887,4.682,7.992,7.992,0,0,0-.879,5.954c.725,2.412,3.176,3.314,5.5,3.149a15.352,15.352,0,0,0,6.736-2.635,58.312,58.312,0,0,0,6.033-4.277l-3.342-.883c1.129,4.386,7.892,6.284,10.712,2.421,1.327-1.819,1.38-4.461,1.75-6.615.319-1.861.6-3.754,1.093-5.577.673-2.488-3.185-3.549-3.858-1.063-.761,2.816-1.1,5.767-1.623,8.634-.2,1.113-.16,2.629-1.566,2.682a2.455,2.455,0,0,1-2.651-1.545,2.028,2.028,0,0,0-3.343-.883,50.213,50.213,0,0,1-4.833,3.411c-1.544.961-3.258,2.106-5.108,2.33-.67.081-1.555.2-1.736-.562a3.482,3.482,0,0,1,.253-1.828,11.193,11.193,0,0,1,2.875-3.885,113.319,113.319,0,0,0,7.879-8.241,39.641,39.641,0,0,0,3.576-4.754,52.628,52.628,0,0,0,2.245-4.815,2.058,2.058,0,0,0-.718-2.737,2.016,2.016,0,0,0-2.736.718Z"/><path class="c" d="M346,247.04c.717,1.538,1.277,3.147,2.128,4.621a37.108,37.108,0,0,0,3.548,4.773,111.854,111.854,0,0,0,8.023,8.416,11.449,11.449,0,0,1,2.841,3.785,3.66,3.66,0,0,1,.287,1.928c-.17.708-.865.623-1.518.574-1.865-.14-3.581-1.266-5.13-2.221a50.3,50.3,0,0,1-5.029-3.532,2.028,2.028,0,0,0-3.343.883,2.457,2.457,0,0,1-2.651,1.545c-1.405-.053-1.366-1.576-1.566-2.682-.517-2.867-.862-5.818-1.623-8.634-.672-2.482-4.532-1.429-3.857,1.063.48,1.776.754,3.618,1.067,5.43.379,2.2.423,4.907,1.775,6.762,2.819,3.866,9.583,1.964,10.712-2.421l-3.342.883a58.312,58.312,0,0,0,6.033,4.277,15.352,15.352,0,0,0,6.736,2.635c2.324.165,4.775-.737,5.5-3.149a8,8,0,0,0-.88-5.954,19.446,19.446,0,0,0-3.887-4.682c-1.7-1.623-3.381-3.247-4.959-4.991a60.313,60.313,0,0,1-4.539-5.561,35.562,35.562,0,0,1-2.874-5.767,2.016,2.016,0,0,0-2.736-.718A2.045,2.045,0,0,0,346,247.04Z"/><path class="g" d="M250.021,122.624a3.815,3.815,0,0,1,1.325-3.038,26.12,26.12,0,0,1,6.04-3.987c.013-.038.025-.077.037-.12a33.512,33.512,0,0,1,9.891-15.5A31.708,31.708,0,0,1,289.6,92.04c3.477.215,6.73.153,10.105,1.277,3.029,1.012,6.822,2.35,9.473,4.22a35.512,35.512,0,0,1,12.032,16.175,10.066,10.066,0,0,1,.441,1.41,27.641,27.641,0,0,1,7.037,4.464,3.746,3.746,0,0,1,1.3,3.3,3.3,3.3,0,0,1-1.417,2.8c-5.647,3.8-25.08,5.861-38.558,5.861-13.781,0-32.9-2.06-38.544-5.861a3.3,3.3,0,0,1-1.417-2.8Q250.03,122.755,250.021,122.624Z"/><path class="c" d="M285.939,93.19c-4.681,2.008-7.613,7.2-8.921,11.9a67.24,67.24,0,0,0-2.292,14.417c-.131,2.573,3.87,2.566,4,0a63.684,63.684,0,0,1,1.988-12.755c1.035-3.962,3.167-8.363,7.244-10.111a2.011,2.011,0,0,0,.717-2.736,2.052,2.052,0,0,0-2.736-.718Z"/><path class="c" d="M291.42,96.2c3.139,1.548,5,5.663,6.206,8.836a40.339,40.339,0,0,1,2.73,14.622c-.022,2.575,3.978,2.577,4,0a43.388,43.388,0,0,0-3.143-16.375c-1.559-3.878-3.818-8.586-7.774-10.537-2.3-1.135-4.33,2.314-2.019,3.454Z"/><path class="c" d="M321.667,117.338c1.717.872,7.882,3.63,6.137,6.347a5.43,5.43,0,0,1-2.3,1.345,32.21,32.21,0,0,1-3.485,1.122,106.511,106.511,0,0,1-19.842,2.931,165.429,165.429,0,0,1-21.158.211,124.936,124.936,0,0,1-20.84-2.6c-2.515-.572-5.244-1.168-7.321-2.493a1.965,1.965,0,0,1-.227-3.074,20.045,20.045,0,0,1,5.74-3.792c2.295-1.166.273-4.618-2.019-3.454-3.582,1.819-8.83,4.58-8.264,9.32a5.548,5.548,0,0,0,2.831,4.5,19.64,19.64,0,0,0,3.511,1.542c7,2.445,14.745,3.157,22.088,3.743a167,167,0,0,0,24.122.2c7.673-.5,15.566-1.236,22.991-3.331,2.885-.815,7.151-1.987,8.089-5.25a6.315,6.315,0,0,0-1.486-6.306,24.534,24.534,0,0,0-6.549-4.418c-2.291-1.163-4.317,2.287-2.019,3.454Z"/><path class="c" d="M312.813,116.29a49.364,49.364,0,0,1-7.851,1.728q-5.394.881-10.855,1.267a111.4,111.4,0,0,1-20.2-.758,63.3,63.3,0,0,1-8.175-1.274c-2.5-.622-3.564,3.234-1.064,3.857a63.064,63.064,0,0,0,7.4,1.2q5.271.657,10.58.977a104.5,104.5,0,0,0,21.738-1.155,54.981,54.981,0,0,0,9.5-1.984c2.425-.821,1.384-4.685-1.064-3.857Z"/><path class="c" d="M324.146,116.774a36.765,36.765,0,0,0-7.793-15.264,30.04,30.04,0,0,0-6.793-6.122,39.535,39.535,0,0,0-8.607-3.76c-3.549-1.2-7.167-1.36-10.876-1.56a32.91,32.91,0,0,0-8.984.709,34.511,34.511,0,0,0-16.4,8.9A35.349,35.349,0,0,0,254.9,117.33c-.55,2.509,3.3,3.581,3.857,1.063a31.13,31.13,0,0,1,21.305-23.215,27.78,27.78,0,0,1,8.042-1.186,44.348,44.348,0,0,1,9.243.75,28.645,28.645,0,0,1,14.824,8.069,32.749,32.749,0,0,1,8.118,15.027c.572,2.509,4.429,1.447,3.857-1.064Z"/><path class="g" d="M287.351,86.843a4.588,4.588,0,0,0-2.32,4.319,3.609,3.609,0,0,0,1,2.426,4.311,4.311,0,0,0,3.732,1.164c1.99-.3,3.713-.907,4.375-2.287a4.411,4.411,0,0,0-.352-4.686C292.066,85.412,288.877,85.812,287.351,86.843Z"/><path class="c" d="M286.342,85.116a6.613,6.613,0,0,0-3.308,6.23,5.879,5.879,0,0,0,5.536,5.435,9.178,9.178,0,0,0,4-.66,5.86,5.86,0,0,0,3.274-2.6,6.7,6.7,0,0,0,.575-4.862,6.554,6.554,0,0,0-2.686-3.64,7.034,7.034,0,0,0-7.391.093,2,2,0,1,0,2.019,3.454c.121-.08.245-.155.374-.223.081-.042.169-.075.248-.121-.48.273-.334.13-.167.075.339-.112.7-.164,1.031-.271-.514.164-.319.037-.109.019.071-.007.143-.011.214-.015a5.439,5.439,0,0,1,.6.006c.091.006.184.024.274.025-.546-.008-.321-.054-.149-.009.2.053.4.107.593.164.394.113-.423-.224-.058-.029.067.036.137.068.2.105.1.056.2.122.3.18.35.2-.27-.243-.07-.064a6.024,6.024,0,0,1,.447.428l.042.048c.135.162.113.129-.069-.1.095.051.184.267.242.365.043.072.213.3.205.382.016-.156-.11-.321-.037-.082.042.137.09.271.124.41.009.035.13.49.045.156-.082-.318,0,.11.005.166,0,.123,0,.245,0,.368-.008.17.074.411.016-.008a1.413,1.413,0,0,1-.1.457,1.579,1.579,0,0,1-.149.463c.219-.29.042-.087-.023.04-.044.085-.1.164-.141.247-.18.334.263-.24.076-.089-.071.057-.13.143-.2.207-.048.047-.34.255-.061.069.3-.2-.042.022-.085.05-.1.066-.208.128-.316.185-.028.015-.339.151-.339.166,0-.062.436-.17.055-.03-.214.078-.43.146-.649.206s-.461.117-.694.165c-.12.025-.24.048-.361.069-.1.018-.2.034-.294.05l.223-.028a2.671,2.671,0,0,1-.828.025c-.436-.026.054-.014.052.017l-.318-.067c-.1-.026-.2-.054-.3-.086-.054-.018-.426-.166-.092-.025s-.012-.013-.066-.041c-.108-.055-.213-.116-.315-.181-.069-.043-.134-.089-.2-.134-.293-.194.331.29.161.124-.1-.095-.2-.18-.3-.28l-.045-.048q-.208-.246.059.084c-.056-.014-.154-.24-.185-.294-.041-.073-.161-.229-.158-.31q.162.4.05.092c-.022-.065-.041-.13-.058-.2A1.547,1.547,0,0,0,287,91.13q.057.48.035.154v-.122c0-.28.048-.556.06-.835-.023.567-.024.191.006.041.023-.114.049-.227.08-.338s.066-.21.1-.315c.1-.342-.216.422-.044.091.093-.179.194-.347.3-.52.155-.256-.118.151-.136.166.1-.086.176-.206.267-.3.146-.151.3-.286.464-.423.126-.109.222-.075-.143.109a3.791,3.791,0,0,0,.38-.269,2,2,0,0,0-2.019-3.454Z"/><path class="d" d="M92.836,130.725A18.673,18.673,0,0,1,87.7,132.61s-1,.127-1.787.223a4.38,4.38,0,0,0-2.458-.362,4.067,4.067,0,0,0-2.923,1.944,5.748,5.748,0,0,0-.6,2.312,17.219,17.219,0,0,0,1.757,9.13,10.945,10.945,0,0,0,2.83,3.715,4.119,4.119,0,0,0,3.731,1.179l.734-.2a30.964,30.964,0,0,0,6.137,10.43,27.271,27.271,0,0,0,9.8,7.235c-.047.371-.117.8-.206,1.3-.37,2.12-.97,4.52-3.78,6.08-.2.06-3.87,1.81-4.17,1.93,0,0,1.933,16.941,18.822,16.941s22.078-16.941,22.078-16.941c-.29-.12-3.97-1.87-4.16-1.93-2.82-1.56-3.42-3.96-3.78-6.08-.149-.827-.239-1.455-.309-2,6.96-3.165,12.511-12.068,13.5-14.566.18-.512.582-1.557.887-2.759l.5.152a3.3,3.3,0,0,0,3.309-.774,10.948,10.948,0,0,0,2.831-3.715,17.219,17.219,0,0,0,1.756-9.13,5.73,5.73,0,0,0-.6-2.312,4.067,4.067,0,0,0-2.923-1.944,4.306,4.306,0,0,0-2.079.212l-1.246-.712c-1.476-.844-5.126-3.143-6.419-4.084-.37-.221-.739-.452-1.1-.694-.311-.21-.621-.421-.923-.64-4.574-3.263-8.317-7.843-9.643-12.065-4.036,4.713-9.793,8-14.15,8.176-1.148.191.584-4.395,1.42-6.524-6.662,4.385-14.617,11.036-21.7,14.584"/><path class="c" d="M92.836,130.725A18.673,18.673,0,0,1,87.7,132.61s-1,.127-1.787.223a4.143,4.143,0,0,0-1.628-.388c.194,1.9-.971-5.089-.79-9.209A31.061,31.061,0,0,1,96.9,98.732a32.584,32.584,0,0,1,19.33-5.949,34.271,34.271,0,0,1,11.409,1.871,32.41,32.41,0,0,1,4.813,2.158,37.718,37.718,0,0,1,5.511,3.655c.66.573,1.629,1.515,2.266,2.159a30.2,30.2,0,0,1,4.189,5.3,31.621,31.621,0,0,1,4.551,15.312,42.31,42.31,0,0,1-.558,8.991l-.037.22a4.26,4.26,0,0,0-1.789.231c-.718-.406-1.245-.707-1.245-.707-1.476-.844-5.126-3.143-6.419-4.084-.37-.221-.739-.452-1.1-.694-.311-.21-.621-.421-.923-.64-4.574-3.263-8.317-7.843-9.643-12.065-4.036,4.713-9.793,8-14.15,8.176-1.148.191.584-4.395,1.42-6.524-6.662,4.385-14.617,11.036-21.7,14.584"/><path class="d" d="M173.5,246.03a38.028,38.028,0,0,0,2.609,5.4,72.839,72.839,0,0,0,9.236,10.531c2.491,2.341,5.373,5,5.267,8.411a2.5,2.5,0,0,1-2.437,2.729c-2.2.285-4.337-.746-6.248-1.867a52.429,52.429,0,0,1-6.417-4.437c-.456,2.2-3.011,3.249-5.218,2.97a3.14,3.14,0,0,1-2.6-2.74c-.444-2.333-.777-4.444-.963-5.444-.2-1.078-.611-3.5-.913-4.556l-2.124-9.889"/><path class="d" d="M59.976,246.03a38.013,38.013,0,0,1-2.608,5.4,72.9,72.9,0,0,1-9.236,10.531c-2.491,2.341-5.373,5-5.267,8.411A2.5,2.5,0,0,0,45.3,273.1c2.2.285,4.338-.746,6.249-1.867a52.429,52.429,0,0,0,6.417-4.437c.455,2.2,3.01,3.249,5.218,2.97a3.138,3.138,0,0,0,2.6-2.74c.445-2.333.778-4.444.963-5.444.2-1.078.612-3.5.914-4.556l2.123-9.889"/><path class="d" d="M97.931,359.1a25.339,25.339,0,0,1-4.77,3.7,15.9,15.9,0,0,1-9.292,1.547A9.747,9.747,0,0,1,79.18,362.5a6.664,6.664,0,0,1-2.558-4.625c-.2-2.653,1.238-5.166,2.925-7.044,3.948-4.4,8.113-8.721,11.716-13.452a1.87,1.87,0,0,1,2.227-.7c2.1.917,4.616.876,7.595.937a11.537,11.537,0,0,0,7.426-2.59c2.281-1.742,2.707,5.98,2.763,7.629.088,2.609.47,6.054-1.379,7.984-1.329,1.386-3.614,2.355-5.235,3.274A36.587,36.587,0,0,0,97.931,359.1Z"/><path class="d" d="M138.633,359.1a24.789,24.789,0,0,0,4.649,3.7,15.15,15.15,0,0,0,9.055,1.547,9.369,9.369,0,0,0,4.57-1.847,6.715,6.715,0,0,0,2.493-4.625c.195-2.653-1.208-5.166-2.851-7.044-3.848-4.4-7.907-8.721-11.417-13.452a1.8,1.8,0,0,0-2.171-.7c-2.044.917-4.5.876-7.4.937a11.065,11.065,0,0,1-7.236-2.59c-2.223-1.742-2.638,5.981-2.692,7.629-.086,2.609-.459,6.054,1.344,7.984,1.3,1.386,3.521,2.355,5.1,3.274A35.782,35.782,0,0,1,138.633,359.1Z"/><path class="d" d="M92.676,335.027c.448-4.233.577-13.532.687-20.895,5.123.048,13.048.043,18.146.015-.044.414-.072.692-.072.692-.433,3.963-1.595,13.5-2.275,19.684a11.843,11.843,0,0,1-8.056,3.095c-3.459-.071-6.3,0-8.577-1.46C92.582,335.839,92.631,335.459,92.676,335.027Z"/><path class="d" d="M143.124,335.705c-.513-3.594-1.03-13.792-1.142-21.232,0,0,0-.116,0-.331-5.269.039-12.723.03-17.432,0,.039.43.06.71.06.71.39,3.566.987,12.084,1.58,18.323,2.561,2.657,5.5,4.522,9.266,4.441,3.095-.065,5.68-.014,7.8-1.131C143.213,336.28,143.168,336.018,143.124,335.705Z"/><path class="h" d="M80.061,152.65a4.866,4.866,0,0,1,3.692-3.782,8.385,8.385,0,0,0,.765.7,4.119,4.119,0,0,0,3.731,1.179l.734-.2a30.958,30.958,0,0,0,6.137,10.431q1.084,1.21,2.248,2.289c-2.707,3.1-5.007,5-9.756,5.5-4.8.51-9.7-1.26-12.96-2.96a9.495,9.495,0,0,0,4.89-4.22,7.57,7.57,0,0,0,.7-2.09c.3-1.16-.17-2.37-.32-3.56A9.017,9.017,0,0,1,80.061,152.65Z"/><path class="i" d="M84.869,305.968q.423-3.079.912-6.147c2.446.241,4.8.391,6.612.43,6.956.148,25.934.74,26.221.74,5.86,0,15.58-.174,24.345-.47,2.05-.07,4.195-.257,6.265-.5.458,3.429.888,7.038,1.278,10.937,0,0,.01.16.03.31l-.21.23c-.97,1.08-8.09,2.09-14.34,2.4-6.35.31-13.4.33-17.65.33-3.71,0-12.42-.22-18.89-.71-6.65-.5-13.36-.96-15.26-2.1.03-.27.05-.46.05-.46Q84.528,308.463,84.869,305.968Z"/><path class="b" d="M58.009,244.029q-.894-.468-1.771-.969c4.038-9.939,7.644-21.36,11.682-31.3,2.89-7.113,5.76-15.469,9.983-21.881s14.518-11.555,22.318-13.585a23.947,23.947,0,0,0,32.862-.784c8.542,3.066,18.181,8.63,22.45,15.11,4.223,6.412,7.173,14.027,10.063,21.14,4.038,9.939,7.644,21.36,11.682,31.3a53.593,53.593,0,0,1-18.77,6.489l-3.8.716c.629,4.229,1.3,8.674,2.014,13.245,1.666,10.647,4.207,21.918,5.259,32.93a1.146,1.146,0,0,1-.907,1.449,99.3,99.3,0,0,1-18.268,2.632c-8.764.3-18.485.47-24.344.47-.288,0-19.266-.592-26.222-.74-5.222-.112-14.893-1.149-18.444-2.593a2.539,2.539,0,0,1-1.334-2.148c.212-7.019,1.4-12.886,2.334-19.926,1.084-8.144,2.416-17.064,3.687-25.308-1.778-.368-3.471-.727-3.471-.727A53.626,53.626,0,0,1,58.009,244.029Z"/><path class="d" d="M140.45,178.676a66.492,66.492,0,0,0-7.375-3.172,23.928,23.928,0,0,1-32.854.791,52.169,52.169,0,0,0-9.587,3.6,27.376,27.376,0,0,0,7.937,12.174l.141.068a10.547,10.547,0,0,0,2.68,1.69,11.241,11.241,0,0,0,8.7-.31,21.807,21.807,0,0,0,6.43-4.53,21.678,21.678,0,0,0,6.43,4.53,11.241,11.241,0,0,0,8.7.31,10.4,10.4,0,0,0,2.82-1.82l-.035.062a27.368,27.368,0,0,0,7.993-12.355Q141.449,179.179,140.45,178.676Z"/><path class="c" d="M83.31,146.919c-4.041,1.042-5.831,4.922-5.406,8.859a13.96,13.96,0,0,1,.409,3.188,5.165,5.165,0,0,1-1.057,2.445,8.758,8.758,0,0,1-3.614,2.669,2.013,2.013,0,0,0,0,3.454c4.5,2.318,9.606,3.809,14.7,3.143a14.92,14.92,0,0,0,5.924-1.958,20.3,20.3,0,0,0,4.52-4.038c1.695-1.925-1.124-4.765-2.828-2.828-2.227,2.531-4.544,4.387-7.976,4.872-4.232.6-8.587-.723-12.321-2.645v3.454c3.353-1.585,6.127-4.327,6.618-8.159.251-1.96-.7-3.839-.371-5.812a3.157,3.157,0,0,1,2.465-2.787c2.491-.643,1.435-4.5-1.063-3.857Z"/><path class="c" d="M80.06,223.806c-.872,9.512-2.284,18.94-3.728,28.378-1.489,9.731-2.782,19.488-4.23,29.224-.35,2.355-.692,4.713-.962,7.078a38.3,38.3,0,0,0-.5,7.384c.34,3.955,5,4.5,8.088,5.025a135.031,135.031,0,0,0,19.232,1.5q8.858.24,17.715.515c5.776.174,11.556.023,17.332-.107,4.645-.1,9.322-.109,13.951-.538a112.474,112.474,0,0,0,11.959-1.784,25.134,25.134,0,0,0,2.724-.62c2.159-.7,2.614-2.287,2.4-4.36-.527-5.108-1.328-10.185-2.211-15.242-1.74-9.972-3.462-19.928-4.954-29.942-1.232-8.27-2.382-16.558-3.785-24.8-.253-1.489-.518-2.975-.806-4.458-.489-2.524-4.345-1.456-3.857,1.064,3.166,16.335,4.848,32.934,7.77,49.314.87,4.876,1.79,9.743,2.573,14.634.376,2.35.722,4.7,1.006,7.066q.112.945.214,1.893c.032.3-.012,1.384.157,1.557.2.2.353-.631.428-.581a2.081,2.081,0,0,0-.48.126,100.911,100.911,0,0,1-21.879,2.542c-6.759.19-13.57.5-20.331.3q-7.452-.216-14.9-.441c-5.731-.164-11.49-.148-17.2-.709a57.7,57.7,0,0,1-9.8-1.6,4.647,4.647,0,0,1-1.267-.454c-.4-.641-.024-2.16.024-2.9.152-2.344.409-4.681.727-7.007q1.917-14.034,4.026-28.045c1.377-9.146,2.868-18.275,3.9-27.468q.368-3.269.665-6.543a2.016,2.016,0,0,0-2-2,2.042,2.042,0,0,0-2,2Z"/><path class="c" d="M97.3,179.461c1.417-.584,2.785-1.287,4.178-1.925l.315-.143c.25-.115-.549.229-.351.148s.391-.154.575-.251a8.652,8.652,0,0,0,1.871-1.395,9.056,9.056,0,0,0,2.161-3.452,17.453,17.453,0,0,0,.808-3.709,2.215,2.215,0,0,0-.2-1.541,2,2,0,0,0-3.656.477,20.946,20.946,0,0,1-.608,3.11c-.066.221-.142.437-.22.654a1.015,1.015,0,0,0-.063.163c0,.008.185-.4.087-.208-.063.122-.116.251-.179.374a6.7,6.7,0,0,1-.4.677c-.041.062-.287.4-.1.151s-.117.127-.175.191c-.184.2-.383.38-.584.561-.276.247.267-.177-.047.04-.145.1-.289.2-.439.293-.37.228-.023.027.111.007a2.5,2.5,0,0,0-.524.221c-.086.037-.172.076-.258.115-.664.3-1.323.614-1.983.924l-1.141.535c-.234.109-1.214.528-.237.125a2.2,2.2,0,0,0-1.195.92,2.043,2.043,0,0,0-.2,1.541,2.022,2.022,0,0,0,2.461,1.4Z"/><path class="c" d="M127.414,167.512c.336,2.608.682,5.323,2.338,7.468a8.557,8.557,0,0,0,1.583,1.57,8.232,8.232,0,0,0,1.011.695,4.12,4.12,0,0,0,.638.29c.109.038-.617-.274-.343-.144.662.312,1.329.614,1.991.925s1.339.653,2.023.943a2.2,2.2,0,0,0,1.541.2,2.041,2.041,0,0,0,1.195-.92,2.02,2.02,0,0,0-.718-2.736c-.748-.317-1.476-.687-2.212-1.032-.454-.213-.909-.427-1.364-.637-.145-.067-.291-.134-.437-.2a5.369,5.369,0,0,0-.573-.243c-.156.031.431.237.205.054a4.942,4.942,0,0,0-.482-.31q-.273-.2.03.033c-.079-.063-.156-.127-.231-.193-.213-.186-.7-.54-.788-.818q.26.342.07.082c-.051-.072-.1-.145-.148-.219q-.141-.219-.265-.447c-.033-.061-.172-.441-.225-.456q.176.428.055.131c-.03-.078-.06-.155-.088-.233a12.147,12.147,0,0,1-.486-1.87q-.109-.584-.2-1.171-.051-.309-.1-.62l-.039-.282q.061.462.019.137a2.054,2.054,0,0,0-2-2c-.969.043-2.143.889-2,2Z"/><path class="c" d="M146.637,134.894a2.219,2.219,0,0,1,3.227.53,5.44,5.44,0,0,1,.386,2.395,14.432,14.432,0,0,1-.205,2.891A15.292,15.292,0,0,1,148,146.119,7.545,7.545,0,0,1,146.391,148a1.473,1.473,0,0,1-1.563.414c-2.49-.664-3.552,3.193-1.064,3.857,3.162.844,5.64-1.188,7.365-3.648a18.431,18.431,0,0,0,2.988-8.312c.338-2.768.328-6.271-1.911-8.284a6.359,6.359,0,0,0-8.4.035,2.016,2.016,0,0,0,0,2.829,2.044,2.044,0,0,0,2.828,0Z"/><path class="c" d="M142.186,147.663a14.129,14.129,0,0,1-.943,4.033c-.085.242-.181.481-.26.725-.107.333.223-.41.039-.1-.157.266-.272.563-.417.836A34.464,34.464,0,0,1,137.448,158c-2.832,3.668-6.6,7.478-11.292,8.507-2.513.551-1.45,4.408,1.063,3.857,5.557-1.217,10.008-5.586,13.371-9.94,2.876-3.724,5.386-7.923,5.6-12.758.112-2.574-3.889-2.569-4,0Z"/><path class="c" d="M88.315,132.065a6.362,6.362,0,0,0-8.4-.035c-2.3,2.067-2.247,5.687-1.881,8.512a18.138,18.138,0,0,0,3.13,8.322c1.781,2.444,4.436,4.516,7.613,3.815a2,2,0,0,0-1.063-3.857c-1.344.3-2.781-1.476-3.433-2.457a15.051,15.051,0,0,1-2.176-5.5,14.288,14.288,0,0,1-.238-2.846,5.723,5.723,0,0,1,.39-2.594,2.219,2.219,0,0,1,3.227-.53,2.055,2.055,0,0,0,2.828,0,2.016,2.016,0,0,0,0-2.829Z"/><path class="c" d="M85.959,147.109a33.1,33.1,0,0,0,7.607,15.129c4,4.533,9.348,8.282,15.44,9.15a2.067,2.067,0,0,0,2.46-1.4,2.014,2.014,0,0,0-1.4-2.46c-10.486-1.494-18.22-11.6-20.253-21.485-.518-2.52-4.374-1.454-3.857,1.063Z"/><path class="c" d="M150.343,132.759c1.456-8.956.559-18.445-4.437-26.226a34.633,34.633,0,0,0-20.629-14.672A37.034,37.034,0,0,0,99.7,94.675a34.519,34.519,0,0,0-14.05,13.543A33.315,33.315,0,0,0,81.7,120.7a43.929,43.929,0,0,0,.565,12.067,2.015,2.015,0,0,0,2.46,1.4,2.049,2.049,0,0,0,1.4-2.461c-1.042-6.436-.906-13.112,1.81-19.147A30.388,30.388,0,0,1,98.98,99.728c13.04-8.551,31.508-5.743,41.508,6.143,6.006,7.138,7.461,16.829,6,25.825a2.062,2.062,0,0,0,1.4,2.46,2.017,2.017,0,0,0,2.461-1.4Z"/><path class="c" d="M110.967,156.364a9.963,9.963,0,0,0,11.9,0,2,2,0,1,0-2.828-2.828c-.077.075-.371.309-.042.055s-.04.018-.137.078c-.117.072-.239.139-.362.2-.081.04-.174.073-.252.118.1-.058.465-.177.15-.069a8.536,8.536,0,0,1-1.206.33c-.151.028-.49.171-.019.013a1.59,1.59,0,0,1-.371.038c-.294.025-.59.036-.885.037q-.406,0-.811-.03a2.846,2.846,0,0,0-.447-.045c.192-.022.352.053.047,0a7.385,7.385,0,0,1-1.222-.324c-.161-.058-.42-.228.1.051-.068-.036-.142-.064-.212-.1-.137-.068-.271-.141-.4-.221-.1-.062-.192-.136-.291-.2.577.35.276.223.113.064a2,2,0,1,0-2.828,2.828Z"/><path class="c" d="M115.935,143.82a26.1,26.1,0,0,1,.619,2.83l-.071-.531a1.761,1.761,0,0,1,.01.391l.072-.532a1.051,1.051,0,0,1-.043.176l.2-.478a.688.688,0,0,1-.062.113l.313-.405a.609.609,0,0,1-.092.091l.4-.313a1.714,1.714,0,0,1-.224.119l.478-.2a1.67,1.67,0,0,1-.378.11l.532-.072a1.506,1.506,0,0,1-.355,0l.532.071c-.134-.019-.265-.051-.4-.069a1.526,1.526,0,0,0-.8-.036,1.477,1.477,0,0,0-.743.238,2,2,0,0,0-.718,2.736,1.916,1.916,0,0,0,1.2.919c.354.048.7.136,1.056.152a3.462,3.462,0,0,0,1.617-.394,2.453,2.453,0,0,0,1.324-1.6,3.788,3.788,0,0,0-.013-1.665c-.154-.912-.365-1.816-.6-2.711a2,2,0,0,0-2.46-1.4,2.025,2.025,0,0,0-1.195.919,2.107,2.107,0,0,0-.2,1.542Z"/><path class="c" d="M101.665,136.234c-.462,1.5-.161,4.957,2.685,5.251,3.76-.023,3.96-4.2,2.694-6.164C106.008,133.713,102.96,133.045,101.665,136.234Z"/><path class="c" d="M131.655,136.234c.463,1.5.162,4.957-2.684,5.251-3.76-.023-3.96-4.2-2.7-6.164C127.313,133.713,130.36,133.045,131.655,136.234Z"/><path class="c" d="M98.964,177.709a25.934,25.934,0,0,0,34.416.392c1.974-1.658-.869-4.475-2.828-2.829a22.21,22.21,0,0,1-28.76-.391c-1.923-1.7-4.762,1.12-2.828,2.828Z"/><path class="c" d="M96.517,357.689c-2.407,2.221-4.729,3.94-8.015,4.585-3,.589-7.245.311-9.132-2.469-1.972-2.9.249-6.078,2.216-8.255,2.624-2.9,5.3-5.76,7.84-8.74q.915-1.074,1.8-2.171.443-.548.876-1.1c.167-.214.556-.956.828-1.028-.323.085.282.209.361.238a9.1,9.1,0,0,0,1.046.325,17.618,17.618,0,0,0,2.819.416c3.437.28,6.855.272,10.015-1.266A14.384,14.384,0,0,0,109.2,337c.63-.448.324-.177.242-.255l-.288.034a1.169,1.169,0,0,1-.879-.348c.259.071-.111-.224.046.074.263.5-.122-.389.1.2a9.951,9.951,0,0,1,.4,1.52,30.134,30.134,0,0,1,.464,4.766,17.417,17.417,0,0,1-.121,4.774c-.385,1.581-1.6,2.3-2.954,3.058a49.9,49.9,0,0,0-4.785,2.795,50.729,50.729,0,0,0-4.909,4.075c-1.9,1.749.938,4.573,2.829,2.828a38.276,38.276,0,0,1,5.193-4.191c1.559-1,3.277-1.721,4.829-2.732a8.032,8.032,0,0,0,3.463-4.116,14.893,14.893,0,0,0,.5-5.458c-.11-2.772-.131-13.258-5.32-10.987a20.279,20.279,0,0,0-1.992,1.268,9.707,9.707,0,0,1-2.6,1.074,20.017,20.017,0,0,1-6.259.112c-1.805-.146-3.608-1.293-5.4-.778-2.014.578-3.283,3.038-4.552,4.554-2.96,3.533-6.188,6.823-9.2,10.3-2.77,3.2-4.509,7.531-2.47,11.581,2.175,4.32,7.518,5.722,12,5.275a18.177,18.177,0,0,0,6.9-2.036,25.975,25.975,0,0,0,4.909-3.87C101.241,358.768,98.407,355.945,96.517,357.689Z"/><path class="c" d="M91.344,314.063c-.062,4.16-.119,8.32-.24,12.479-.052,1.777-.114,3.555-.212,5.33-.042.756-.089,1.511-.153,2.266-.024.281-.049.562-.078.843-.017.156-.035.312-.053.469-.039.33.068-.462-.008.047a2.066,2.066,0,0,0,1.4,2.46,2.015,2.015,0,0,0,2.46-1.4,82.77,82.77,0,0,0,.637-9.677c.128-4.272.186-8.546.25-12.82.038-2.575-3.962-2.576-4,0Z"/><path class="c" d="M109.417,314.839c-.74,6.734-1.6,13.455-2.333,20.189a2.013,2.013,0,0,0,2,2,2.045,2.045,0,0,0,2-2c.736-6.734,1.593-13.455,2.333-20.189a2.013,2.013,0,0,0-2-2,2.045,2.045,0,0,0-2,2Z"/><path class="c" d="M137.219,360.517c2.849,2.7,5.8,4.906,9.751,5.652,4.068.769,9.039.289,12.031-2.89s2.957-7.672.821-11.327a32.445,32.445,0,0,0-4-4.962c-1.491-1.678-2.988-3.352-4.453-5.055s-2.882-3.413-4.23-5.194a4.994,4.994,0,0,0-2.311-1.977,4.387,4.387,0,0,0-3.055.247,18,18,0,0,1-5.533.594,9.63,9.63,0,0,1-5.295-1.2c-1.259-.734-2.342-1.969-3.944-1.529a3.785,3.785,0,0,0-2.326,2.58,22.444,22.444,0,0,0-1.021,6.688c-.171,3.571-.55,7.822,2.435,10.416a36.994,36.994,0,0,0,5.351,3.307,35.046,35.046,0,0,1,5.781,4.654c1.869,1.77,4.7-1.054,2.828-2.828a40.493,40.493,0,0,0-8.584-6.388c-1.151-.625-2.649-1.283-3.34-2.46a7.336,7.336,0,0,1-.579-3.746,47.586,47.586,0,0,1,.364-5.943,17.914,17.914,0,0,1,.489-2.256c.007-.025.191-.664.078-.243.133-.494.12-.042.022-.129l.093-.1a1.212,1.212,0,0,1-.892.348c-.487-.006-.689-.23-.071.221,2.965,2.162,6.115,2.681,9.707,2.588a23.9,23.9,0,0,0,4.459-.429,15.809,15.809,0,0,1,1.841-.612c-.327.021.169.384.329.589.392.5.774,1.009,1.167,1.508,2.3,2.926,4.774,5.707,7.246,8.487,2.086,2.346,5.444,5.237,5.024,8.748-.463,3.86-4.942,4.819-8.145,4.593-3.811-.27-6.538-2.25-9.208-4.778C138.179,355.92,135.345,358.743,137.219,360.517Z"/><path class="c" d="M140.084,314.473q.1,6.232.442,12.46c.172,3.173.33,6.37.8,9.516a2.014,2.014,0,0,0,2.46,1.4,2.051,2.051,0,0,0,1.4-2.46,1.9,1.9,0,0,1-.045-.338c-.032-.289-.066-.578-.095-.867-.072-.7-.131-1.4-.187-2.1-.143-1.821-.254-3.644-.35-5.467q-.322-6.065-.425-12.137c-.04-2.572-4.04-2.579-4,0Z"/><path class="c" d="M122.713,314.854c.753,6.968,1.093,13.975,1.846,20.944a2.059,2.059,0,0,0,2,2,2.013,2.013,0,0,0,2-2c-.753-6.969-1.093-13.976-1.846-20.944a2.059,2.059,0,0,0-2-2,2.012,2.012,0,0,0-2,2Z"/><path class="c" d="M99.846,174.366c-9.46,2.5-19.46,7.585-24.595,16.235a106.766,106.766,0,0,0-7.113,15.6c-2.157,5.489-4.334,10.962-6.337,16.51C59.41,229.34,57.11,236,54.466,242.528a2,2,0,0,0,.919,2.259,56.123,56.123,0,0,0,19.248,6.691,2.067,2.067,0,0,0,2.461-1.4,2.016,2.016,0,0,0-1.4-2.46A53.1,53.1,0,0,1,57.4,241.333l.919,2.259c4.435-10.955,8.085-22.21,12.443-33.2a160.523,160.523,0,0,1,6.423-15.039,29.472,29.472,0,0,1,3.881-6.12,27.11,27.11,0,0,1,5.055-4.342,48.473,48.473,0,0,1,14.785-6.67c2.486-.657,1.431-4.517-1.064-3.857Z"/><path class="c" d="M132.972,177.531a60.156,60.156,0,0,1,13.566,6.972,34,34,0,0,1,5.342,4.54A29.45,29.45,0,0,1,155.9,194.8a125.117,125.117,0,0,1,6.938,15.059c2.1,5.183,4.073,10.406,5.962,15.67,2.169,6.044,4.294,12.108,6.705,18.062l.919-2.259a53.1,53.1,0,0,1-18.292,6.288,2.013,2.013,0,0,0-1.4,2.46,2.051,2.051,0,0,0,2.46,1.4,56.123,56.123,0,0,0,19.248-6.691,2.015,2.015,0,0,0,.919-2.259c-4.453-11-8.047-22.322-12.5-33.324a143.532,143.532,0,0,0-7.076-15.653,37.611,37.611,0,0,0-4.353-6.536,34.849,34.849,0,0,0-5.412-4.9,61.875,61.875,0,0,0-15.984-8.437c-2.42-.89-3.463,2.974-1.064,3.858Z"/><path class="c" d="M58.249,245.021a35.4,35.4,0,0,1-2.874,5.767,60.14,60.14,0,0,1-4.538,5.561c-1.578,1.744-3.261,3.368-4.96,4.991a19.465,19.465,0,0,0-3.886,4.682,8,8,0,0,0-.88,5.954c.726,2.412,3.177,3.314,5.5,3.149a15.352,15.352,0,0,0,6.737-2.635,58.312,58.312,0,0,0,6.033-4.277l-3.343-.883c1.13,4.386,7.893,6.284,10.713,2.421,1.327-1.819,1.38-4.461,1.75-6.615.319-1.861.6-3.754,1.092-5.577.673-2.488-3.184-3.549-3.857-1.063-.762,2.816-1.105,5.767-1.623,8.634-.2,1.113-.16,2.629-1.566,2.682a2.457,2.457,0,0,1-2.652-1.545,2.027,2.027,0,0,0-3.342-.883A50.213,50.213,0,0,1,51.72,268.8c-1.544.961-3.258,2.106-5.109,2.33-.669.081-1.554.2-1.735-.562a3.482,3.482,0,0,1,.253-1.828A11.181,11.181,0,0,1,48,264.85a113.319,113.319,0,0,0,7.879-8.241,39.748,39.748,0,0,0,3.576-4.754A52.355,52.355,0,0,0,61.7,247.04a2.059,2.059,0,0,0-.717-2.737,2.018,2.018,0,0,0-2.737.718Z"/><path class="c" d="M171.774,247.04c.718,1.538,1.278,3.147,2.129,4.621a37.108,37.108,0,0,0,3.548,4.773,111.854,111.854,0,0,0,8.023,8.416,11.449,11.449,0,0,1,2.841,3.785,3.67,3.67,0,0,1,.287,1.928c-.17.708-.865.623-1.518.574-1.865-.14-3.581-1.266-5.131-2.221a50.168,50.168,0,0,1-5.028-3.532,2.028,2.028,0,0,0-3.343.883,2.457,2.457,0,0,1-2.651,1.545c-1.406-.053-1.366-1.576-1.566-2.682-.517-2.867-.862-5.818-1.624-8.634-.671-2.482-4.531-1.429-3.857,1.063.481,1.776.755,3.618,1.068,5.43.379,2.2.423,4.907,1.775,6.762,2.819,3.866,9.583,1.964,10.712-2.421l-3.343.883a58.217,58.217,0,0,0,6.034,4.277,15.352,15.352,0,0,0,6.736,2.635c2.324.165,4.774-.737,5.5-3.149a8,8,0,0,0-.879-5.954,19.493,19.493,0,0,0-3.887-4.682c-1.7-1.623-3.382-3.247-4.959-4.991a60.313,60.313,0,0,1-4.539-5.561,35.562,35.562,0,0,1-2.874-5.767,2.017,2.017,0,0,0-2.736-.718,2.046,2.046,0,0,0-.718,2.737Z"/><path class="c" d="M89.343,181.819c2.084,5.347,5.836,11.356,11.2,13.738,6.395,2.842,12.947-.743,17.553-5.153h-2.828c2.742,2.626,5.969,5.02,9.756,5.822a12.406,12.406,0,0,0,11.022-2.8L132.9,191l-.034.062a2.009,2.009,0,0,0,3.141,2.424,29.292,29.292,0,0,0,7.97-11.667,2.015,2.015,0,0,0-1.4-2.46,2.047,2.047,0,0,0-2.46,1.4,25.126,25.126,0,0,1-6.942,9.9l3.142,2.424.034-.062a2.009,2.009,0,0,0-3.141-2.423c-4.969,4.244-11.14.792-15.122-3.02a2.038,2.038,0,0,0-2.828,0c-3.388,3.243-8.644,6.7-13.425,4.183-4.03-2.122-7-6.8-8.639-11a2.059,2.059,0,0,0-2.46-1.4,2.015,2.015,0,0,0-1.4,2.46Z"/><path class="g" d="M110.652,253.473c-10.667-17.185-21.719-52.077-23.87-72.945,1.222-1.111,7.24-4.389,8.8-4.389,1.444,17.223,14.556,59.7,24.037,72.445"/><path class="c" d="M112.379,252.463c-5-8.086-8.68-16.99-11.93-25.9a244.394,244.394,0,0,1-9.079-30.89,135.106,135.106,0,0,1-2.588-15.148l-.586,1.415c.3-.262-.264.124,0-.008a3.9,3.9,0,0,0,.389-.273c.323-.219.656-.425.99-.628.771-.467,1.561-.9,2.36-1.321.722-.376,1.455-.751,2.2-1.068a10.556,10.556,0,0,1,1.062-.392c.117-.036.237-.064.355-.1.491-.151-.366,0,.026-.014l-2-2c.841,9.787,3.46,19.5,6.166,28.9a247.052,247.052,0,0,0,11.492,32.341,64.562,64.562,0,0,0,6.652,12.209,2.061,2.061,0,0,0,2.737.718,2.015,2.015,0,0,0,.717-2.737,59.079,59.079,0,0,1-5.782-10.3c-2.209-4.748-4.12-9.631-5.9-14.554a277.381,277.381,0,0,1-9.619-32.447,105.456,105.456,0,0,1-2.463-14.137,2.034,2.034,0,0,0-2-2c-2.246.1-4.526,1.488-6.449,2.539a27.781,27.781,0,0,0-2.808,1.7,4.13,4.13,0,0,0-1.266,1.143,3.6,3.6,0,0,0-.13,2.307,155.929,155.929,0,0,0,3.19,17.549,239.691,239.691,0,0,0,12.192,37.761,124.137,124.137,0,0,0,8.618,17.346c1.351,2.186,4.812.18,3.454-2.019Z"/><path class="g" d="M116.222,277.752a5.849,5.849,0,0,1-1.722-1.725c-2.073-3.265-4.461-12.764-4.383-19.623.028-2.511,2.691-6.024,5.691-6.921,12-3.533,21.028-4.875,32.752-8.281a4.6,4.6,0,0,1,5.185,2.072c2.233,2.837,4.154,6.145,5.4,12.493.964,4.924.418,15.474-4.359,17.008a189.12,189.12,0,0,1-29.295,6.383l-1.327.119A12.569,12.569,0,0,1,116.222,277.752Z"/><path class="c" d="M113.176,249.072a7.917,7.917,0,0,0-3.858,3.42,9.577,9.577,0,0,0-1.17,5.707,54.749,54.749,0,0,0,1.877,11.7c.765,2.848,1.666,6.331,3.82,8.482,2.694,2.691,6.906,3.186,10.519,2.876a123.177,123.177,0,0,0,12.609-2.01c4.594-.883,9.164-1.906,13.674-3.155,3.338-.924,6.686-1.527,8.571-4.706a19.98,19.98,0,0,0,2.255-8.859,30.5,30.5,0,0,0-6.313-20.669,2.012,2.012,0,0,0-2.829,0,2.051,2.051,0,0,0,0,2.828,25.923,25.923,0,0,1,5.2,15.019,24,24,0,0,1-.88,7.577,8.733,8.733,0,0,1-1.258,2.654,2.506,2.506,0,0,1-.84.761,14.233,14.233,0,0,1-1.975.67,178.91,178.91,0,0,1-23.336,5.2c-3.139.51-6.525,1.244-9.678.449a5.644,5.644,0,0,1-3.252-1.877,10.962,10.962,0,0,1-1.321-2.763,49.324,49.324,0,0,1-2.534-10.644,24.094,24.094,0,0,1-.33-5.511,4.538,4.538,0,0,1,.941-2.164,5.765,5.765,0,0,1,1.172-1.132c2.39-.893,1.355-4.761-1.063-3.857Z"/><path class="c" d="M136.3,257.018l3.4-.7a2,2,0,0,0,.478-3.655l-.478-.2a2.022,2.022,0,0,0-1.064,0l-3.4.7a2,2,0,0,0-.478,3.656l.478.2a2.018,2.018,0,0,0,1.063,0Z"/><path class="c" d="M130.19,266.4c3.964-.885,7.929-1.788,11.818-2.967,1.916-.58,3.811-1.225,5.687-1.922a27.944,27.944,0,0,0,5.9-2.668,13.188,13.188,0,0,0,3.909-3.635,9.191,9.191,0,0,0,.9-5.27,14.4,14.4,0,0,0-3.195-7.405,8.677,8.677,0,0,0-3.249-2.913c-1.987-.918-3.752-.387-5.755.172-4.235,1.184-8.512,2.2-12.8,3.192-4.224.975-8.451,1.939-12.644,3.042-3.214.846-10.532,1.9-8.283,6.927a50.909,50.909,0,0,0,5.936,10.56c2.862,3.681,7.549,3.784,11.778,2.887,2.517-.534,1.452-4.391-1.063-3.857-2.724.578-5.884.78-7.729-1.659a45.885,45.885,0,0,1-4.594-8.1,14.553,14.553,0,0,0-.774-1.638c.023,0,.671,1.983-.026.258.4.984-.174.1.008.179a8.4,8.4,0,0,0,1.035-.377q2.816-.817,5.656-1.55c3.562-.922,7.147-1.749,10.733-2.575,3.508-.808,7.015-1.623,10.5-2.532q1.441-.375,2.876-.772a12.562,12.562,0,0,1,2.66-.724,3.027,3.027,0,0,1,2.168,1.369,12.519,12.519,0,0,1,2.674,4.937,7.751,7.751,0,0,1,.1,1.845,10.114,10.114,0,0,1-.116,1.125,5.5,5.5,0,0,1-.131.686c.058-.192.119-.209,0-.008A8.852,8.852,0,0,1,151.4,255.5a26.741,26.741,0,0,1-5.567,2.447q-2.6.944-5.256,1.74c-3.772,1.126-7.613,2-11.453,2.857C126.615,263.105,127.678,266.962,130.19,266.4Z"/><path class="c" d="M147.222,300.017c.5,3.744.91,7.5,1.31,11.25l.586-1.414-.21.23c-.025-.021.149-.1.057-.057-.054.028-.347.133-.144.08.237-.062-.187.061-.233.076a19.929,19.929,0,0,1-2.434.6,63.261,63.261,0,0,1-6.719.879c-5.039.433-10.116.493-15.171.54-8.278.078-16.564-.074-24.822-.686-2.935-.217-5.874-.42-8.8-.741-1.158-.127-2.314-.272-3.456-.5a8.324,8.324,0,0,1-2-.583l.991,1.727c.405-3.7.945-7.39,1.528-11.068a2.061,2.061,0,0,0-1.4-2.46,2.015,2.015,0,0,0-2.46,1.4c-.639,4.03-1.227,8.075-1.671,12.131a1.953,1.953,0,0,0,.99,1.727c1.921,1.071,4.325,1.254,6.462,1.516,3.177.388,6.374.6,9.564.839,5.4.4,10.825.607,16.242.7,5.044.086,10.1.029,15.138-.1,5.8-.152,11.732-.354,17.417-1.614,1.893-.419,4.587-1.121,4.507-3.524-.121-3.631-.8-7.341-1.28-10.94a2.067,2.067,0,0,0-2-2c-.97,0-2.144.922-2,2Z"/><path class="c" d="M146.353,130.244a83.126,83.126,0,0,1-9.143-5.93c-3.418-2.629-6.661-6.194-8.027-10.358a2.019,2.019,0,0,0-3.343-.883,25.7,25.7,0,0,1-6.549,5.475,17.96,17.96,0,0,1-3.317,1.524,14.822,14.822,0,0,1-1.591.43c-.228.047-.458.092-.689.12-.272.032-.944-.124-.25.09l.883.514a1.458,1.458,0,0,1,.4.883l.006-.174c-.136.156.022-.143.067-.34.127-.558.289-1.108.465-1.652.355-1.105.768-2.191,1.191-3.272.636-1.623-1.551-3.176-2.938-2.258-7.255,4.8-13.9,10.632-21.7,14.584-2.3,1.165-.274,4.617,2.019,3.454,7.793-3.952,14.441-9.784,21.7-14.584l-2.938-2.259a26.7,26.7,0,0,0-1.777,5.6,3.062,3.062,0,0,0,.68,2.845c.947.9,2.33.59,3.484.391,5.312-.915,10.222-4.564,13.686-8.544l-3.343-.883c2.9,8.838,11.348,14.262,19.008,18.679,2.234,1.289,4.251-2.167,2.019-3.454Z"/><path class="c" d="M91.826,129c-.668.327-1.34.646-2.025.937l.478-.2a12.552,12.552,0,0,1-3.036.938l.532-.071-.074.01a2.216,2.216,0,0,0-1.414.586,2,2,0,0,0,0,2.828,1.913,1.913,0,0,0,1.414.586,13.137,13.137,0,0,0,3.155-.82c1.016-.4,2.008-.858,2.989-1.338a2.023,2.023,0,0,0,.919-1.195,2.047,2.047,0,0,0-.2-1.541,2.021,2.021,0,0,0-1.2-.919,2.222,2.222,0,0,0-1.541.2Z"/><path class="g" d="M75.809,122.624a3.811,3.811,0,0,1,1.325-3.038,26.134,26.134,0,0,1,6.039-3.987c.014-.038.026-.077.038-.12a33.512,33.512,0,0,1,9.891-15.5,31.708,31.708,0,0,1,22.29-7.939c3.477.215,6.73.153,10.105,1.277,3.029,1.012,6.822,2.35,9.473,4.22A35.512,35.512,0,0,1,147,113.712a10.2,10.2,0,0,1,.441,1.41,27.641,27.641,0,0,1,7.037,4.464,3.746,3.746,0,0,1,1.3,3.3,3.3,3.3,0,0,1-1.417,2.8c-5.648,3.8-25.08,5.861-38.559,5.861-13.78,0-32.9-2.06-38.543-5.861a3.3,3.3,0,0,1-1.417-2.8Q75.818,122.755,75.809,122.624Z"/><path class="c" d="M111.727,93.19c-4.682,2.008-7.613,7.2-8.921,11.9a67.178,67.178,0,0,0-2.292,14.417c-.131,2.573,3.869,2.566,4,0a63.684,63.684,0,0,1,1.988-12.755c1.034-3.962,3.167-8.363,7.244-10.111a2.012,2.012,0,0,0,.717-2.736,2.052,2.052,0,0,0-2.736-.718Z"/><path class="c" d="M117.208,96.2c3.139,1.548,5,5.663,6.2,8.836a40.34,40.34,0,0,1,2.731,14.622c-.023,2.575,3.977,2.577,4,0A43.388,43.388,0,0,0,127,103.283c-1.559-3.878-3.818-8.586-7.774-10.537-2.3-1.135-4.33,2.314-2.019,3.454Z"/><path class="c" d="M147.455,117.338c1.717.872,7.882,3.63,6.137,6.347a5.43,5.43,0,0,1-2.3,1.345,32.3,32.3,0,0,1-3.486,1.122,106.486,106.486,0,0,1-19.842,2.931,165.413,165.413,0,0,1-21.157.211,124.923,124.923,0,0,1-20.84-2.6c-2.515-.572-5.244-1.168-7.321-2.493a1.964,1.964,0,0,1-.228-3.074,20.073,20.073,0,0,1,5.74-3.792c2.3-1.166.274-4.618-2.019-3.454-3.581,1.819-8.829,4.58-8.263,9.32a5.545,5.545,0,0,0,2.83,4.5,19.671,19.671,0,0,0,3.511,1.542c7,2.445,14.746,3.157,22.089,3.743a167,167,0,0,0,24.122.2c7.672-.5,15.565-1.236,22.99-3.331,2.886-.815,7.152-1.987,8.089-5.25a6.312,6.312,0,0,0-1.485-6.306,24.523,24.523,0,0,0-6.55-4.418c-2.29-1.163-4.317,2.287-2.018,3.454Z"/><path class="c" d="M138.6,116.29a49.351,49.351,0,0,1-7.852,1.728c-3.595.587-7.22,1.013-10.854,1.267a111.4,111.4,0,0,1-20.2-.758,63.345,63.345,0,0,1-8.176-1.274c-2.5-.622-3.564,3.234-1.063,3.857a63.064,63.064,0,0,0,7.4,1.2q5.271.657,10.579.977a104.506,104.506,0,0,0,21.739-1.155,54.989,54.989,0,0,0,9.494-1.984c2.426-.821,1.385-4.685-1.063-3.857Z"/><path class="c" d="M149.934,116.774a36.765,36.765,0,0,0-7.793-15.264,30.04,30.04,0,0,0-6.793-6.122,39.522,39.522,0,0,0-8.608-3.76c-3.549-1.2-7.166-1.36-10.875-1.56a32.921,32.921,0,0,0-8.985.709,34.513,34.513,0,0,0-16.4,8.9,35.342,35.342,0,0,0-9.794,17.651c-.55,2.509,3.3,3.581,3.857,1.063a31.128,31.128,0,0,1,21.3-23.215,27.768,27.768,0,0,1,8.041-1.186,44.352,44.352,0,0,1,9.244.75,28.649,28.649,0,0,1,14.824,8.069,32.758,32.758,0,0,1,8.118,15.027c.572,2.509,4.429,1.447,3.857-1.064Z"/><path class="g" d="M113.139,86.843a4.587,4.587,0,0,0-2.32,4.319,3.609,3.609,0,0,0,1,2.426,4.309,4.309,0,0,0,3.732,1.164c1.989-.3,3.712-.907,4.374-2.287a4.408,4.408,0,0,0-.351-4.686C117.853,85.412,114.665,85.812,113.139,86.843Z"/><path class="c" d="M112.13,85.116a6.608,6.608,0,0,0-3.308,6.23,5.878,5.878,0,0,0,5.536,5.435,9.171,9.171,0,0,0,4-.66,5.853,5.853,0,0,0,3.274-2.6,6.688,6.688,0,0,0,.575-4.862,6.548,6.548,0,0,0-2.685-3.64,7.034,7.034,0,0,0-7.391.093,2,2,0,1,0,2.019,3.454c.121-.08.245-.155.374-.223.081-.042.169-.075.248-.121-.48.273-.334.13-.168.075.34-.112.7-.164,1.032-.271-.514.164-.32.037-.11.019.072-.007.144-.011.215-.015a5.439,5.439,0,0,1,.6.006c.091.006.183.024.274.025-.546-.008-.321-.054-.149-.009.2.053.395.107.593.164.394.113-.423-.224-.059-.029.068.036.138.068.2.105.1.056.2.122.3.18.35.2-.27-.243-.07-.064a6.009,6.009,0,0,1,.446.428l.043.048q.2.243-.069-.1c.095.051.184.267.242.365.043.072.213.3.2.382.017-.156-.109-.321-.036-.082.041.137.089.271.124.41.009.035.13.49.044.156-.081-.318,0,.11.006.166,0,.123,0,.245,0,.368-.008.17.074.411.016-.008a1.385,1.385,0,0,1-.1.457,1.61,1.61,0,0,1-.149.463c.219-.29.042-.087-.023.04-.044.085-.1.164-.141.247-.18.334.263-.24.075-.089-.07.057-.129.143-.195.207-.049.047-.341.255-.061.069.3-.2-.042.022-.086.05-.1.066-.208.128-.315.185-.028.015-.339.151-.339.166,0-.062.436-.17.054-.03-.213.078-.43.146-.649.206s-.461.117-.693.165c-.12.025-.24.048-.361.069-.1.018-.2.034-.294.05l.223-.028a2.671,2.671,0,0,1-.828.025c-.436-.026.054-.014.052.017l-.319-.067c-.1-.026-.2-.054-.3-.086-.054-.018-.426-.166-.092-.025s-.013-.013-.066-.041c-.108-.055-.213-.116-.316-.181-.068-.043-.133-.089-.2-.134-.293-.194.331.29.161.124-.1-.095-.2-.18-.3-.28l-.046-.048q-.207-.246.06.084c-.056-.014-.154-.24-.185-.294-.041-.073-.162-.229-.159-.31q.164.4.051.092c-.022-.065-.041-.13-.058-.2a1.613,1.613,0,0,0-.071-.324q.057.48.035.154v-.122c0-.28.048-.556.059-.835-.023.567-.023.191.007.041.023-.114.049-.227.08-.338s.066-.21.1-.315c.1-.342-.216.422-.044.091.093-.179.193-.347.3-.52.156-.256-.118.151-.135.166.1-.086.175-.206.266-.3.147-.151.306-.286.465-.423.126-.109.221-.075-.144.109a3.693,3.693,0,0,0,.381-.269,2,2,0,0,0-2.019-3.454Z"/></svg>