<?xml version="1.0" encoding="utf-8"?>
<!-- Uploaded to: SVG Repo, www.svgrepo.com, Generator: SVG Repo Mixer Tools -->
<svg width="800px" height="800px" viewBox="-42.25 0 328.833 328.833" xmlns="http://www.w3.org/2000/svg"><defs><style>.a{fill:#ad7b59;}.b{fill:#211715;}.c{fill:#ffffff;}.d{fill:#f4b3b3;}</style></defs><path class="a" d="M191.822,86.179c.34,26.31,5.18,41.04,7.68,48.29a48.047,48.047,0,0,1,3.04,16.49c.07,9.13-10.4,23.08-23.14,21.06,0,0-37.155-3.566-52.664-3.566-19.556,0-46.015,2.856-46.015,2.856C64.989,174.642,54.605,162.8,54.7,152.955a101.306,101.306,0,0,1,3.124-21.811c2.426-8.654,4.162-23.887,4.165-45.006-1.024-31.16,7.181-53.754,20.107-66.121,7.792-7.454,25.348-17.608,45.07-17.6a71.587,71.587,0,0,1,28.625,5.493l2.564,1.041,5.2,2.825c4.64,2.521,5.878,4.44,10.14,8.555,9.857,9.517,16.7,26.635,17.79,41.963.314,4.421,1.034,15.926.334,23.889"/><path class="b" d="M59.582,86.139c-.005,8.59-.263,17.19-1.038,25.748A111.882,111.882,0,0,1,55.9,129.032a114.558,114.558,0,0,0-3.507,21.329,21.917,21.917,0,0,0,.934,8.65,22.638,22.638,0,0,0,4.738,7.843c5.621,6.1,13.86,8.232,21.9,7.019a2.415,2.415,0,0,0,1.676-2.952,2.46,2.46,0,0,0-2.952-1.676A19.34,19.34,0,0,1,61.973,164a17.673,17.673,0,0,1-4.019-6.263,17.426,17.426,0,0,1-.752-7.548,108.172,108.172,0,0,1,3.325-19.879,116.6,116.6,0,0,0,2.665-16.815c.9-9.086,1.184-18.228,1.19-27.354,0-3.088-4.8-3.093-4.8,0Z"/><path class="c" d="M183.894,112.579a20.933,20.933,0,0,0,3.487-5.138,30.1,30.1,0,0,0,3.074-15.951,10.031,10.031,0,0,0-1.05-4.04,7.1,7.1,0,0,0-5.106-3.4,7.221,7.221,0,0,0-7.076,3.019c-8.941-3.508-17.7-18.167-20.805-23.986-2.274-4.268-4.747-13.524-6.7-20.043-9.339,12.137-21.2,20.74-35.92,24.94-3.5,1.04-.2-10.063.425-15.309-9.032,8.866-25.981,23.5-35.872,32.649a7.244,7.244,0,0,0-7.042-2.967A7.107,7.107,0,0,0,66.2,85.75a10.041,10.041,0,0,0-1.052,4.039,30.091,30.091,0,0,0,3.063,15.953,19.125,19.125,0,0,0,4.943,6.493,12.678,12.678,0,0,0,5.9,2.66l1.939.154a51.507,51.507,0,0,0,23.763,31,66.966,66.966,0,0,1-1.1,9.763c-.648,3.7-.439,7.009-5.581,8.866-.231.088-8.011,3.714-13.153,6.064,11.172,5.6,27.6,10.4,43.132,10.438,14.226.055,32.7-4.654,43.361-10.18l-.577-.272c-4.351-2.047-12.6-5.962-12.854-6.051-5.132-1.859-4.934-5.162-5.577-8.86a74.292,74.292,0,0,1-1.08-9.466c14.641-5.787,20.495-20.04,22.237-24.765.243-.735.852-2.593,1.449-4.765.956-.151,1.519-.238,1.519-.238a12.666,12.666,0,0,0,5.9-2.656A15.129,15.129,0,0,0,183.894,112.579Z"/><path class="b" d="M179.977,87.509a5.017,5.017,0,0,1,7.171.844c.935,1.379.965,3.3,1,4.905a26.558,26.558,0,0,1-.367,5.314c-1.162,6.537-4.611,14.444-11.889,15.7a2.419,2.419,0,0,0-1.676,2.952,2.453,2.453,0,0,0,2.952,1.676c7.652-1.32,12.213-8.486,14.351-15.382a31.9,31.9,0,0,0,1.38-11.366c-.24-3.774-1.392-7.357-4.883-9.31a10.037,10.037,0,0,0-11.438,1.273,2.42,2.42,0,0,0,0,3.394,2.451,2.451,0,0,0,3.394,0Z"/><path class="b" d="M79.027,82.422A9.976,9.976,0,0,0,69.017,80.5c-3.747,1.463-5.69,4.563-6.174,8.462a31.068,31.068,0,0,0,5.4,21.488,16.285,16.285,0,0,0,10.168,6.763,2.471,2.471,0,0,0,2.953-1.676,2.42,2.42,0,0,0-1.676-2.952c-7.277-1.261-10.72-9.172-11.878-15.709a26.65,26.65,0,0,1-.363-5.315c.04-1.6.065-3.535,1.009-4.9a5.018,5.018,0,0,1,7.173-.837,2.463,2.463,0,0,0,3.394,0,2.421,2.421,0,0,0,0-3.394Z"/><path class="b" d="M76.268,102.962a71.546,71.546,0,0,0,5.888,22.024,53.434,53.434,0,0,0,19.092,21.758,35.746,35.746,0,0,0,14.022,5.479,2.479,2.479,0,0,0,2.952-1.676,2.418,2.418,0,0,0-1.676-2.953c-8.521-1.267-15.747-6.212-21.565-12.371a50.374,50.374,0,0,1-12.12-22.469c-.462-1.812-.846-3.642-1.165-5.484q-.207-1.2-.379-2.4c-.024-.165-.047-.331-.07-.5-.11-.8.057.455-.041-.311q-.07-.549-.138-1.1a2.476,2.476,0,0,0-2.4-2.4,2.415,2.415,0,0,0-2.4,2.4Z"/><path class="b" d="M147.576,44.268A61.557,61.557,0,0,0,153.389,61.8a84.087,84.087,0,0,0,10.176,16.352,37.686,37.686,0,0,0,5.9,6.068,2.476,2.476,0,0,0,3.394,0,2.418,2.418,0,0,0,0-3.394c-4.044-3.2-7.2-7.488-9.96-11.8a81.484,81.484,0,0,1-8.27-16.605,49.19,49.19,0,0,1-2.425-9.433,2.415,2.415,0,0,0-2.952-1.676,2.462,2.462,0,0,0-1.677,2.952Z"/><path class="b" d="M147.992,41.955a70.832,70.832,0,0,1-19.431,17.634,63.034,63.034,0,0,1-11.627,5.456q-1.493.52-3.007.971a3.8,3.8,0,0,0-.765.222c-.279.186.063-.041.225-.017a1.9,1.9,0,0,1,.769.225c.025.016.711.785.468.45.357.492.027.225.008-.114-.025-.424.008.042.012.108-.008-.131-.023-.264-.023-.4a19.627,19.627,0,0,1,.107-2.141c.367-3.428,1.44-7.421,1.9-11.109.269-2.17-2.742-3.022-4.1-1.7C103.1,60.771,92.477,68.72,82.673,77.533c-2.3,2.069,1.1,5.455,3.394,3.394,9.805-8.813,20.425-16.762,29.855-25.986l-4.1-1.7c-.091.731.043-.271-.027.191q-.048.32-.1.637c-.06.363-.125.726-.191,1.088-.179.987-.375,1.972-.565,2.957-.383,1.98-.75,3.964-.984,5.969a10.549,10.549,0,0,0,.168,4.416,3.468,3.468,0,0,0,4.166,2.4,55.81,55.81,0,0,0,13.532-5.395,69.519,69.519,0,0,0,12.02-8.093,76.5,76.5,0,0,0,11.542-12.067,2.48,2.48,0,0,0,0-3.394,2.416,2.416,0,0,0-3.394,0Z"/><path class="b" d="M156.426,5.6a76.085,76.085,0,0,0-31.9-5.52A72.4,72.4,0,0,0,92.665,9.486a56.42,56.42,0,0,0-18.219,15.7A72.01,72.01,0,0,0,63.453,48.909c-3.311,12.076-4.259,24.75-3.867,37.229.1,3.081,4.9,3.095,4.8,0C63.791,67.2,66.133,46.72,76.63,30.448A49.131,49.131,0,0,1,92.116,15.39,68.637,68.637,0,0,1,120.632,5.178a71.429,71.429,0,0,1,34.518,5.045A2.416,2.416,0,0,0,158.1,8.547,2.459,2.459,0,0,0,156.426,5.6Z"/><path class="b" d="M194.217,86.182a130.417,130.417,0,0,0,.075-16.926,112.324,112.324,0,0,0-1.444-15.042c-2.123-11.66-6.892-23.361-14.571-32.48-1.99-2.364-4.271-4.485-6.457-6.665A31.369,31.369,0,0,0,164.764,9.7c-2.708-1.491-5.132,2.653-2.422,4.144a25.394,25.394,0,0,1,5.625,4.162c1.933,1.891,3.912,3.778,5.736,5.775a54.056,54.056,0,0,1,8.716,13.442,73.569,73.569,0,0,1,5.454,16.487A92.51,92.51,0,0,1,189.426,67.9a135.391,135.391,0,0,1-.009,18.284,2.42,2.42,0,0,0,2.4,2.4,2.449,2.449,0,0,0,2.4-2.4Z"/><path class="b" d="M189.422,86.179c.2,14.006,1.607,28.146,5.453,41.654,1.394,4.9,3.36,9.639,4.405,14.628a40.052,40.052,0,0,1,.785,6.023c.054.983.1,1.975.071,2.96a8.872,8.872,0,0,1-.151,1.507,21.158,21.158,0,0,1-3.23,7.681c-3.57,5.426-9.915,10.078-16.715,9.073a2.479,2.479,0,0,0-2.952,1.676,2.417,2.417,0,0,0,1.676,2.952c13.99,2.069,26.7-11.588,26.133-25.188a51.138,51.138,0,0,0-2.426-13.343c-.667-2.1-1.419-4.167-2.077-6.269a124.242,124.242,0,0,1-3.741-15.432,173.574,173.574,0,0,1-2.431-27.922c-.043-3.086-4.843-3.095-4.8,0Z"/><path class="b" d="M126.716,101.671c-.407,1.551-.772,3.119-1.039,4.7a5.4,5.4,0,0,0-.024,2.32,3.238,3.238,0,0,0,1.754,2.117,4.9,4.9,0,0,0,2.317.561c.526-.023,1.029-.155,1.546-.225a2.391,2.391,0,0,0,1.435-1.1,2.453,2.453,0,0,0,.242-1.849,2.426,2.426,0,0,0-1.1-1.434l-.574-.242a2.423,2.423,0,0,0-1.276,0c-.232.031-.459.088-.691.12l.638-.086a2.582,2.582,0,0,1-.615,0l.638.086a2.885,2.885,0,0,1-.656-.191l.574.242a3.141,3.141,0,0,1-.389-.206l.486.375a1.046,1.046,0,0,1-.161-.158l.376.486a1.172,1.172,0,0,1-.108-.2l.242.573a1.589,1.589,0,0,1-.075-.3l.086.638a2.958,2.958,0,0,1,.019-.678l-.086.638a45.544,45.544,0,0,1,1.073-4.909,2.4,2.4,0,0,0-4.629-1.276Z"/><path class="b" d="M102.264,89.69c-.807,2.623-.281,8.657,4.689,9.17,6.568-.039,6.917-7.334,4.706-10.764C109.849,85.287,104.526,84.119,102.264,89.69Z"/><path class="b" d="M154.375,89.69c.807,2.623.282,8.657-4.688,9.17-6.568-.039-6.917-7.335-4.707-10.765C146.79,85.287,152.113,84.119,154.375,89.69Z"/><path class="d" d="M164.057,174.235c-10.629,4.011-24.664,6.992-36,6.948-15.978-.04-32.906-5.112-44.08-10.926-1.287-.747-12.811,5.131-19.436,7.841l-.49.224c-7.806-2.863-24.381-7.936-32.53-10.462-4.705,5.655-23.034,52.6-28.481,81.679-1.565,8.4-1.29,24.86,12.993,31.587,6.854,3.228,14.589,3.214,22.094,1.634,6.369-1.345,11.879-4.96,17-8.708q4.69-3.437,9.176-7.109c.352,4.5.55,6.383.481,7.136-1.3,14.323-4.1,45.64-4.829,52.354,20.251,0,166.852-.1,181.968-.1-4.638-34.913-11.548-79.949-17.578-102.895-2.279-8.464-8.613-26.434-15.069-33.346A51.1,51.1,0,0,0,192.615,178.1c-6.625-2.71-18.1-8.9-19.262-8.158A62.6,62.6,0,0,1,164.057,174.235Z"/><path class="b" d="M65.262,180.4c2.321-1.143,5.3-2.32,7.874-3.488,2.532-1.151,5.091-2.349,7.587-3.337a21.669,21.669,0,0,1,2.629-.911c.162-.041.34-.061.5-.111.182-.057-.611.029-.194.041-.112,0-1.283-.482-.576-.1.366.2.742.378,1.114.562a97.619,97.619,0,0,0,9.838,4.173c14.384,5.236,29.923,7.588,45.152,5.592A118.192,118.192,0,0,0,160.578,178a91.972,91.972,0,0,0,9.156-3.526c1.294-.582,2.571-1.2,3.816-1.885a4.286,4.286,0,0,0,.888-.5c.281-.268-.25.1-.341.127.072-.022-.684.075-.448.067.428-.013-.529-.182-.158-.025a4.2,4.2,0,0,0,.491.126,39.306,39.306,0,0,1,6.037,2.548c2.744,1.284,5.468,2.61,8.227,3.863A82.051,82.051,0,0,1,197,183.1a48.038,48.038,0,0,1,8.357,6.428,30.838,30.838,0,0,1,5.19,6.274,71.454,71.454,0,0,1,4.248,8.11,136.872,136.872,0,0,1,6.274,16.817q.505,1.662.961,3.339c.8,2.979,5.436,1.715,4.629-1.276a139.4,139.4,0,0,0-5.617-16.414c-2.384-5.827-5.017-11.755-8.969-16.71a49.353,49.353,0,0,0-16.878-13.008c-2.682-1.3-5.5-2.452-8.321-3.783-2.651-1.254-5.289-2.543-7.981-3.709-1.693-.733-4.066-2.078-6-1.6a18.308,18.308,0,0,0-3.384,1.716c-1.25.625-2.524,1.209-3.817,1.741a108.345,108.345,0,0,1-20.735,6.03,86.474,86.474,0,0,1-21.8,1.559,99.243,99.243,0,0,1-23.692-4.61,94.472,94.472,0,0,1-10.171-3.844c-1.486-.669-2.924-1.545-4.442-2.13a4.451,4.451,0,0,0-2.774,0,44.546,44.546,0,0,0-6.876,2.711c-2.849,1.258-5.672,2.576-8.519,3.839-1.347.6-2.555,1.036-3.842,1.67a2.424,2.424,0,0,0-.861,3.284,2.451,2.451,0,0,0,3.284.861Z"/><path class="b" d="M174.06,109.129c-.118,3.6-1.388,7.414-2.511,10.913-.263.821-.558,1.625-.879,2.425-.086.216-.175.431-.264.647-.159.387.026-.061.05-.116-.057.132-.114.265-.172.4-.24.544-.484,1.085-.74,1.62a39.657,39.657,0,0,1-11.613,14.89,32.247,32.247,0,0,1-12.7,5.779c-3.016.662-1.74,5.29,1.276,4.629,14.26-3.128,24.763-14.726,29.408-28.2,1.419-4.119,2.8-8.606,2.94-12.983.1-3.09-4.7-3.086-4.8,0Z"/><path class="b" d="M87.394,172.377c3.393-1.574,6.765-3.2,10.145-4.8.523-.248,1.042-.5,1.569-.742.414-.187-.354.147.291-.111a11.287,11.287,0,0,0,2.245-1.154,9.454,9.454,0,0,0,3.9-6.374,102.659,102.659,0,0,0,1.53-11.393,2.4,2.4,0,1,0-4.8,0c-.209,3.121-.744,6.18-1.219,9.266a13.1,13.1,0,0,1-.679,2.908c.142-.352-.149.27-.208.372s-.337.51-.285.445a5.827,5.827,0,0,1-.9.794A32.988,32.988,0,0,1,95.2,163.4l-5.282,2.5c-1.647.78-3.291,1.565-4.944,2.331a2.42,2.42,0,0,0-.861,3.284,2.456,2.456,0,0,0,3.284.861Z"/><path class="b" d="M170.841,168.331h-.01l1.211.328c-4.357-2.055-8.666-4.3-13.11-6.164-2.637-1.1-3.342-2.075-3.809-4.759a95.892,95.892,0,0,1-1.391-11.289c-.165-3.073-4.966-3.092-4.8,0a103.871,103.871,0,0,0,1.584,12.694,9.433,9.433,0,0,0,5.529,7.322q.462.2.929.389.822.319-.143-.077c.013.037.243.11.277.126.315.15.633.294.949.442q1.876.879,3.748,1.766l4.376,2.07,2.214,1.047a6.227,6.227,0,0,0,2.446.905c3.088,0,3.093-4.8,0-4.8Z"/><path class="b" d="M59.955,328.833q12.216,0,24.43-.01l41.84-.024,47.562-.029,41.937-.025q12.449-.007,24.9-.013h1.3c3.089,0,3.094-4.8,0-4.8q-11,0-22.007.01l-40.595.024L131.829,324l-43.037.025q-13.587.007-27.174.012H59.955c-3.088,0-3.093,4.8,0,4.8Z"/><path class="b" d="M222.031,224.075c3.009,11.484,5.177,23.194,7.245,34.877,2.561,14.475,4.819,29,6.932,43.551q1.73,11.9,3.315,23.829a2.48,2.48,0,0,0,2.4,2.4c1.164,0,2.573-1.106,2.4-2.4q-2.918-21.951-6.306-43.837c-2.173-13.911-4.491-27.808-7.269-41.612-1.219-6.058-2.522-12.105-4.089-18.084-.782-2.985-5.413-1.719-4.628,1.276Z"/><path class="b" d="M201.761,326.181c-.936-8.613-1.706-17.245-2.521-25.87q-.8-8.454-1.585-16.909-.333-3.577-.66-7.156a25.249,25.249,0,0,1-.2-2.958c.154-5.815.8-11.645,1.288-17.437q1.146-13.445,2.491-26.872c.387-3.835.787-7.67,1.231-11.5q.252-2.175.533-4.346c.064-.491-.029.209-.009.066s.043-.315.065-.473q.057-.405.117-.81c.064-.431.13-.862.206-1.291.056-.315.114-.63.187-.942.7-3.006-3.929-4.289-4.629-1.277a62.5,62.5,0,0,0-.958,6.459c-.435,3.512-.812,7.031-1.178,10.551q-1.4,13.453-2.554,26.931c-.574,6.584-1.2,13.177-1.539,19.777a50.887,50.887,0,0,0,.443,7.323q.751,8.157,1.521,16.314c.9,9.565,1.784,19.133,2.769,28.69q.089.865.182,1.729a2.471,2.471,0,0,0,2.4,2.4,2.415,2.415,0,0,0,2.4-2.4Z"/><path class="b" d="M62.355,326.433c.928-8.54,1.636-17.107,2.414-25.662q.756-8.319,1.506-16.639.327-3.63.656-7.259a27.74,27.74,0,0,0,.248-3.774c-.244-5.228-.823-10.452-1.16-15.676a2.456,2.456,0,0,0-2.4-2.4,2.421,2.421,0,0,0-2.4,2.4c.321,4.962.76,9.912,1.109,14.871.23,3.267-.382,6.622-.676,9.872q-1.467,16.24-2.956,32.478c-.365,3.931-.714,7.864-1.141,11.789a2.416,2.416,0,0,0,2.4,2.4,2.455,2.455,0,0,0,2.4-2.4Z"/><path class="d" d="M108.794,133.468c-8.955,1.388-27.517,3.667-35.791,4.93l-2.494-7.718c10.594-1.565,29.523-3.972,40.4-5.323Z"/><path class="b" d="M71.147,132.994c10.663-1.571,21.364-2.905,32.056-4.266q3.853-.49,7.707-.971a2.475,2.475,0,0,0,2.4-2.4,2.415,2.415,0,0,0-2.4-2.4q-16.663,2.072-33.3,4.323c-2.579.351-5.158.706-7.734,1.085a2.417,2.417,0,0,0-1.676,2.953,2.462,2.462,0,0,0,2.952,1.676Z"/><path class="b" d="M73.642,140.713c9.664-1.471,19.322-2.62,29.021-3.958,2.258-.312,4.516-.625,6.769-.973a2.417,2.417,0,0,0,1.676-2.952,2.46,2.46,0,0,0-2.952-1.677c-9.746,1.506-19.547,2.676-29.317,4.012-2.159.3-4.319.591-6.474.919a2.417,2.417,0,0,0-1.676,2.952,2.462,2.462,0,0,0,2.953,1.677Z"/><path class="b" d="M132.48,137.784a4.693,4.693,0,0,1-2.015,1.571,6.5,6.5,0,0,1-3.656.439,9.048,9.048,0,0,1-2.962-.92,4.583,4.583,0,0,1-1.134-.812c-.2-.2.017.153-.195-.269.151.3-.072-.323-.081-.372-.347-1.876-2.787-2.181-4.012-1.059-.328.3.208-.112-.043.045-.116.073-.234.14-.351.211-.151.091-.43.189-.117.069-.141.054-.287.1-.432.144a4.3,4.3,0,0,1-1.8.217,5.015,5.015,0,0,1-3.554-1.466,4.2,4.2,0,0,1-.88-1.508c-.082-.338.029.4-.008.01-.019-.2-.026-.4-.028-.595,0-.314.024-.836.045-1a10.989,10.989,0,0,1,.491-1.908c.072-.158.159-.306.241-.459.055-.1.311-.472.115-.206a1.953,1.953,0,0,1,.32-.316c-.125.1-.541.257-.128.148a2.434,2.434,0,0,0,1.434-3.525c-.98-1.984.675-4.336,2.156-5.235a4.6,4.6,0,0,1,5.825.574c2.131,2.245,5.521-1.153,3.394-3.395a9.451,9.451,0,0,0-12.019-1.08c-3.764,2.56-5.575,7.358-3.5,11.558l1.434-3.525c-2.589.685-3.909,3.422-4.351,5.86a8.634,8.634,0,0,0,1.687,7.568c3.127,3.735,9.775,4.6,13.469,1.211l-4.012-1.059c.725,3.916,5.582,5.534,9,5.9,4.169.442,8.637-1.54,10.3-5.534a2.414,2.414,0,0,0-1.676-2.952,2.461,2.461,0,0,0-2.953,1.676Z"/><path class="b" d="M141.477,122.911c-.413-4.745-4.463-7.938-8.984-8.608a10.858,10.858,0,0,0-6.69.976,10.7,10.7,0,0,0-4.273,4.308,2.4,2.4,0,0,0,4.145,2.423c.184-.326.423-.628.6-.956.1-.139.076-.11-.075.085.062-.077.125-.154.19-.229.109-.122.216-.246.329-.364.135-.141.274-.276.419-.406.048-.044.465-.385.2-.181s.17-.113.224-.149c.16-.105.325-.2.493-.3s.341-.177.516-.257c-.3.138-.175.067.06-.007.351-.109.7-.193,1.058-.275.452-.1-.216-.006.076-.012.212,0,.424-.03.636-.034a9.425,9.425,0,0,1,1.223.06c-.357-.04.022.009.179.039q.3.057.6.131c.4.1.785.226,1.173.363.42.149-.158-.113.075.035.141.09.308.149.457.229a9.384,9.384,0,0,1,1.05.66c-.275-.2-.066-.049.08.079.13.114.257.232.379.355.146.148.282.3.418.46-.22-.255-.055-.071.054.1q.143.216.266.444c.083.155.218.577.1.189.063.2.12.407.18.612.145.494-.007-.344.043.23a2.4,2.4,0,0,0,4.8,0Z"/><path class="b" d="M132.841,143.5c5.385.944,11.2-.66,13.659-5.961l-2.073,1.189a8.381,8.381,0,0,0,5.292-1.708,9.6,9.6,0,0,0,3.9-6.828,10.771,10.771,0,0,0-4.372-9.9c-2.519-1.732-5.667-1.784-8.56-1.2a2.4,2.4,0,0,0,1.276,4.628,7.442,7.442,0,0,1,1.866-.2,8.291,8.291,0,0,1,.971.053c-.5-.061.366.091.458.115a7.226,7.226,0,0,1,.787.256c-.384-.149-.033-.01.139.089.218.126.425.266.64.4q.324.235-.052-.042c.092.077.182.156.269.238.16.165.32.352.489.506q.252.3-.049-.083c.069.091.135.183.2.277.21.329.4.662.586,1,.323.591-.044-.218.08.156.064.193.141.382.2.576a9.326,9.326,0,0,1,.266,1.027c.019.1.114.352.078.442q-.084-.659-.041-.286c.008.073.015.146.02.219,0,.2.02.4.019.6s-.007.381-.02.572q-.048.466-.006.171a6.693,6.693,0,0,1-.23.989c-.025.084-.27.713-.095.316a6.192,6.192,0,0,1-.429.793c-.077.122-.159.242-.244.36.16-.2.152-.2-.022.012-.191.2-.372.4-.577.583-.1.09-.2.176-.3.259.226-.174.23-.184.013-.028-.381.213-.736.445-1.136.628.595-.272-.1.016-.231.056-.2.06-.416.088-.616.152-.385.121.558.033-.07,0-.167-.009-.333,0-.5-.01a2.326,2.326,0,0,0-2.072,1.189,6.422,6.422,0,0,1-1.325,2.02,3.6,3.6,0,0,1-.749.648,8.3,8.3,0,0,1-1.194.674c.28-.125-.161.059-.254.09-.205.07-.41.136-.619.193-.255.069-.514.128-.773.178a1.4,1.4,0,0,1-.442.061,11.7,11.7,0,0,1-2.882-.11,2.469,2.469,0,0,0-2.952,1.677,2.42,2.42,0,0,0,1.676,2.952Z"/><path class="c" d="M64.245,175.272a16.729,16.729,0,0,0,5.241-2.411c8.142-6.309,7.211-11.9,8.913-17.42a67.9,67.9,0,0,1,3.492-9.267c1.065-2.249,2.648-4.151,2.658-6.719,0-.718.891-2.866-3.2-3.092a10.964,10.964,0,0,0-3.453.164,5.571,5.571,0,0,0-3.631,3.172c-.529-1.788-1.062-3.578-1.062-3.578a15.25,15.25,0,0,0-3.028-5.927c-1.324-1.35-3.8-1.892-7.25,1.236-.112-.172-.226-.34-.342-.5a4.833,4.833,0,0,0-3.407-2.173c-1.523-.121-4.019-.059-5.124,4.593a6.885,6.885,0,0,0-1.6-2.659,5.194,5.194,0,0,0-4.993-.9,5.647,5.647,0,0,0-3.206,3.541l-.24,1.365a7.717,7.717,0,0,0-3.152-3.394,5.115,5.115,0,0,0-5.73.9,10.361,10.361,0,0,0-2.95,5.33,36.205,36.205,0,0,0-.92,9.07c-.01,3.85-.27,7.06.77,10.77,1.62,5.82,4.78,8.56,5.4,11.09a7.054,7.054,0,0,1,.06,1.25"/><path class="b" d="M35.248,159.354c-1.531-3.8-1.642-7.53-1.595-11.572.044-3.863-.144-8.213,1.6-11.781a4.584,4.584,0,0,1,3.12-2.8c1.3-.213,2.426.84,3.1,1.865a19.527,19.527,0,0,1,1.968,4.844,20.75,20.75,0,0,1,1.06,5.628,7.662,7.662,0,0,1-.087,1.092c-.06.61-.154.111.107.138a1.563,1.563,0,0,1-1.106-.684,11.029,11.029,0,0,1-2.31-5.651,2.416,2.416,0,0,0-2.952-1.676,2.461,2.461,0,0,0-1.676,2.952c.655,4.346,4.56,12.241,10.191,9.345,2.375-1.222,2.771-4.018,2.582-6.425a29.909,29.909,0,0,0-1.908-8.1c-.867-2.332-1.792-4.613-3.771-6.235a7.271,7.271,0,0,0-7.177-1.522c-5.457,1.892-6.909,8.139-7.357,13.246a85.525,85.525,0,0,0-.2,9.58,25.745,25.745,0,0,0,1.779,9.031,2.475,2.475,0,0,0,2.953,1.676,2.416,2.416,0,0,0,1.676-2.952Z"/><path class="b" d="M46.568,133.966a2.19,2.19,0,0,1,.087-.327c-.125.271-.123.274,0,.011.052-.084.46-.72.316-.536A4.113,4.113,0,0,1,48.1,132.1a2.841,2.841,0,0,1,2.658.286c1.005.863,1.326,2.566,1.691,3.852a40.052,40.052,0,0,1,1.1,5,27.7,27.7,0,0,1,.425,4.676,6.986,6.986,0,0,1-.434,1.9,7.136,7.136,0,0,1-.331.669q-.278.417.032-.017-.284.265.092-.032c-.132.092-.79.357-.254.183-.192.063-.383.108-.576.164q-.414.075.019.007c-.143.013-.287.021-.431.023-.106,0-.976-.089-.469,0a6.618,6.618,0,0,1-.885-.221c-.266-.1-.289-.1-.069-.014q-.21-.1-.411-.215c-.134-.078-.265-.161-.391-.251q.264.209-.058-.069-.173-.164-.327-.342c.127.172.11.139-.053-.1a2.454,2.454,0,0,0-3.284-.861,2.424,2.424,0,0,0-.861,3.283,8.053,8.053,0,0,0,8.19,3.443c3.452-.6,4.925-3.815,5.258-7.007a22.76,22.76,0,0,0-.374-5.2,43.466,43.466,0,0,0-1.084-5.585c-.942-3.517-2.255-7.433-6.26-8.334a7.342,7.342,0,0,0-5.85.978,7.809,7.809,0,0,0-3.22,4.379,2.453,2.453,0,0,0,1.676,2.952,2.425,2.425,0,0,0,2.952-1.676Z"/><path class="b" d="M56.724,132.762a5.228,5.228,0,0,1,.71-1.221,1.972,1.972,0,0,1,.266-.251c-.089.069-.3.2.062-.01s-.24.051.263-.1c.523-.155-.185-.059.176-.045.169.007.341-.012.51-.008a1.945,1.945,0,0,1,1.182.4c1.753,1.263,2.317,3.844,2.742,5.846a30.43,30.43,0,0,1,.86,6.8,6.345,6.345,0,0,1-.691,3.063c-.065.112-.446.673-.181.331a5.519,5.519,0,0,1-.4.452c-.15.156-.313.3-.472.441-.2.184.142-.1.153-.111-.086.06-.169.126-.258.181a7.3,7.3,0,0,0-.883.489c.122-.105.6-.248.213-.1-.206.077.292-.03.289-.03-.147-.01-.306,0-.455,0-.264,0,.073.021.11.026-.156-.023-.311-.058-.464-.095-.168-.041-.776-.249-.649-.192a2.3,2.3,0,0,1-1.191-.972c-1.589-2.645-5.741-.235-4.144,2.423,1.681,2.8,5.687,4.533,8.76,3.069a9.041,9.041,0,0,0,4.777-6.241c.735-3.464.013-7.158-.7-10.567s-2.084-7.325-5.293-9.131a7.144,7.144,0,0,0-5.549-.566c-2.288.749-3.562,2.7-4.375,4.848a2.419,2.419,0,0,0,1.676,2.952,2.452,2.452,0,0,0,2.952-1.676Z"/><path class="b" d="M65.275,132.573a10.138,10.138,0,0,1,1-.637c.134-.073.272-.137.408-.207q.354-.16-.179.071c.085-.034.17-.065.256-.095.242-.082.486-.137.734-.2.436-.1-.655.028-.123.021.127,0,.253-.011.38-.007.1,0,.208.019.311.023-.773-.027-.432-.064-.2-.006.109.027.214.064.322.1.373.109-.566-.281-.229-.1.181.1.359.238.542.325-.517-.246-.406-.341-.211-.154.074.072.15.14.221.214.166.172.568.782.113.1.152.229.32.447.469.679.306.478.584.974.841,1.48q.213.417.405.845c.072.162.225.592-.036-.094.045.119.095.235.14.353a9.36,9.36,0,0,1,.448,1.475,2.414,2.414,0,0,0,2.952,1.676,2.458,2.458,0,0,0,1.676-2.952,15.245,15.245,0,0,0-1.5-3.846,11.724,11.724,0,0,0-2.3-3.291,6.079,6.079,0,0,0-4.018-1.623,8.359,8.359,0,0,0-4.847,1.7,2.588,2.588,0,0,0-1.1,1.434,2.4,2.4,0,0,0,3.526,2.711Z"/><path class="b" d="M64.883,177.586a20.438,20.438,0,0,0,12.8-10.7c1.858-3.877,2.156-8.187,3.454-12.244a60.7,60.7,0,0,1,2.591-6.752c1.22-2.668,2.992-5.015,3.208-8.038.112-1.58.141-3.07-1.08-4.3-1.916-1.929-5.7-1.944-8.173-1.437-2.978.61-4.736,2.791-6,5.391a15.42,15.42,0,0,1-1.82,3.136,15.28,15.28,0,0,1-2.924,2.522,2.474,2.474,0,0,0-.861,3.284,2.417,2.417,0,0,0,3.283.861,20.784,20.784,0,0,0,4.959-4.649c1.067-1.511,1.615-3.585,2.754-4.916,1.239-1.447,3.82-1.153,5.339-.809.06.014.152.283-.015-.053.046.092.22.433-.055-.088-.1-.185-.064-.586-.111-.3-.076.466-.048.955-.1,1.423-.257,2.114-1.882,4.052-2.733,5.966-.994,2.233-1.9,4.517-2.675,6.834-1.153,3.437-1.491,7.08-2.677,10.494a15.7,15.7,0,0,1-10.436,9.742c-2.983.79-1.718,5.421,1.276,4.628Z"/><path class="b" d="M60.656,229.023a348.021,348.021,0,0,0,8.581-49.609,2.3,2.3,0,0,0-1.188-2.073c-3.927-1.683-8.021-2.982-12.078-4.309-5.394-1.763-10.81-3.457-16.229-5.139q-3.79-1.176-7.583-2.347a2.349,2.349,0,0,0-2.335.617,33.532,33.532,0,0,0-4.039,7.109c-2.04,4.327-3.879,8.752-5.656,13.193Q13.19,203.8,7.714,221.689c-1.854,6.039-3.576,12.123-5.055,18.266-1.2,4.967-2.431,10.024-2.63,15.15-.438,11.329,4.018,23.017,14.793,28.093,7.6,3.582,16.287,3.626,24.367,1.783,7.929-1.809,14.664-6.884,20.995-11.738Q62.9,271.16,65.56,269a2.417,2.417,0,0,0,0-3.395,2.457,2.457,0,0,0-3.394,0c-3.188,2.6-6.447,5.11-9.8,7.492a52.046,52.046,0,0,1-9.742,5.739,34.276,34.276,0,0,1-22.039,1.451,20.774,20.774,0,0,1-12.94-10.42,28.8,28.8,0,0,1-2.846-13.5q.012-1.654.16-3.3c.041-.453.091-.9.145-1.356.035-.287-.009.058-.014.1.019-.141.039-.281.061-.422q.054-.357.115-.713c.443-2.585,1.018-5.152,1.611-7.706,1.348-5.808,2.931-11.56,4.639-17.272q5.236-17.517,11.908-34.573c1.756-4.508,3.417-8.6,5.335-12.876a63.717,63.717,0,0,1,4.1-8.126c.109-.172.223-.34.336-.509.408-.617-.2.223.025-.048l-2.335.618c6.295,1.95,12.6,3.888,18.873,5.892,3.2,1.022,6.4,2.058,9.585,3.141,1.3.442,2.6.892,3.891,1.364q.786.286,1.567.587c.225.087.448.178.673.266.647.253-.2-.089.154.061l-1.189-2.072a339.084,339.084,0,0,1-8.41,48.333c-.773,2.993,3.855,4.27,4.629,1.276Z"/></svg>