<?xml version="1.0" encoding="utf-8"?>
<!-- Uploaded to: SVG Repo, www.svgrepo.com, Generator: SVG Repo Mixer Tools -->
<svg width="800px" height="800px" viewBox="0 -47.73 394.447 394.447" xmlns="http://www.w3.org/2000/svg"><defs><style>.a{fill:#ffffff;}.b{fill:#b6b2b2;}.c{fill:#211715;}.d{fill:#3f88c9;}</style></defs><path class="a" d="M256.692,155.166c1.392-.518,8.284-2.707,12.921-4.186,2.41-.758,4.215-1.334,4.311-1.363,4.252-1.526,4.089-4.262,4.617-7.315.1-.566.183-1.1.259-1.622.254-1.716.391-3.28.5-5.25a43.562,43.562,0,0,1-13.594-9.982s-1.9-2-3.971-4.162a47.781,47.781,0,0,1-5.811-11.79c-2.775,1.142-5.083-.117-6.7-1.248a16.644,16.644,0,0,1-4.662-5.362A26.206,26.206,0,0,1,240.994,89.2a8.741,8.741,0,0,1,.687-3.57,6.184,6.184,0,0,1,4.247-3.236,6.551,6.551,0,0,1,5.328,1.191l3.8-5.991a30.8,30.8,0,0,1,1.547-8.221,14.986,14.986,0,0,1,5.524-8.216c3.377-2.314,7.733-2.6,11.458-4.3,1.352-.617,2.787-1.263,4.182-1.985,2.521.265,4.608.4,4.608.4A53.1,53.1,0,0,0,299.3,51.278c5.891-2.431,11.456-4.581,13.457-10.631L319,39.2c9.388,8.5,14.815,19.248,16.625,31.86,0,0,3.034,6.416,3.772,7.982a6.6,6.6,0,0,1,4.8-1.552,6.184,6.184,0,0,1,4.628,2.664,8.722,8.722,0,0,1,1.14,3.451,26.2,26.2,0,0,1-1.77,14.032,16.662,16.662,0,0,1-3.933,5.918c-1.443,1.312-4.2,1.4-6.083,1.864-.286,1.317-.6,2.411-.757,3.031-1.255,4.231-8.981,19.7-19.481,25.313a61.412,61.412,0,0,0,.911,8.405c.535,3.055.367,5.787,4.615,7.321.281.1,12.33,5.833,12.76,6.01,0,0-11.824,22.73-41.824,22.73A41.358,41.358,0,0,1,256.692,155.166Z"/><path class="b" d="M307.35,13.428c-8.3-3.625-18.839-5.083-25.729-2.179a64.133,64.133,0,0,0-8.389,4.566l-11.959,7.3a61.869,61.869,0,0,0-10.715,7.635c-4.6,4.383-9.219,13.681-9.567,27.032-.179,6.86-.036,15.186,3.341,23.65l.449,1.125a6.091,6.091,0,0,1,1.248-.428,6.536,6.536,0,0,1,5.331,1.135l3.7-5.673a30.8,30.8,0,0,1,1.547-8.221,14.986,14.986,0,0,1,5.524-8.216c3.377-2.314,7.733-2.6,11.458-4.3,1.352-.617,2.787-1.263,4.182-1.985,2.521.265,4.608.4,4.608.4A53.1,53.1,0,0,0,299.3,51.278c5.891-2.431,11.456-4.581,13.457-10.631L319,39.2c9.388,8.5,14.815,19.248,16.625,31.86l3.345,7.08a6.539,6.539,0,0,1,5.1-1.917,6.44,6.44,0,0,1,1.881.432c.2-1.161.332-1.889.332-1.889,3.3-18.662-2.822-39.36-14.01-49.23-2.774-2.447-6.942-5.336-10.557-6.12l-6.5-1.41-1.89-1.3A36.059,36.059,0,0,0,307.35,13.428Z"/><path class="c" d="M246.646,80.781c-3.179-8.105-3.728-16.927-3.134-25.546.476-6.918,2.262-14.063,6.233-19.84a27.468,27.468,0,0,1,6.8-6.421c3.7-2.583,7.646-4.835,11.5-7.187,3.934-2.4,7.815-4.965,11.9-7.1a21.377,21.377,0,0,1,9.621-2.57,39.334,39.334,0,0,1,22.536,6.659c2.561,1.741,4.965-2.416,2.422-4.145a44.609,44.609,0,0,0-22.108-7.262,26.865,26.865,0,0,0-10.738,1.289c-4.476,1.646-8.507,4.376-12.555,6.846-4.211,2.571-8.468,5.08-12.622,7.742a38.876,38.876,0,0,0-9.264,7.554c-4.651,5.65-7.069,12.906-8.065,20.075-1.423,10.25-.965,21.482,2.84,31.183a2.471,2.471,0,0,0,2.952,1.676,2.417,2.417,0,0,0,1.677-2.952Z"/><path class="c" d="M321.068,21.727c3.894.913,7.456,3.534,10.313,6.252a35.8,35.8,0,0,1,6.443,8.456,56.04,56.04,0,0,1,6.753,23.148,59.13,59.13,0,0,1-.623,14.532,2.469,2.469,0,0,0,1.676,2.952,2.419,2.419,0,0,0,2.952-1.676,65.579,65.579,0,0,0-1.261-28.069c-2.156-8.067-5.933-16.073-11.86-22.065-3.53-3.569-8.159-7-13.117-8.158-3-.7-4.288,3.923-1.276,4.628Z"/><path class="c" d="M317.29,40.89a49.786,49.786,0,0,1,10.777,13.9A53.574,53.574,0,0,1,333.3,71.686a2.416,2.416,0,0,0,2.952,1.676,2.462,2.462,0,0,0,1.676-2.952A55.005,55.005,0,0,0,320.684,37.5C318.406,35.418,315,38.8,317.29,40.89Z"/><path class="c" d="M310.429,40c-1.611,4.651-6.35,6.708-10.571,8.455a59.347,59.347,0,0,1-17.487,4.4,2.466,2.466,0,0,0-2.4,2.4,2.417,2.417,0,0,0,2.4,2.4,67.113,67.113,0,0,0,10.254-1.622,67.028,67.028,0,0,0,9.531-3.376c5.62-2.363,10.8-5.3,12.9-11.381,1.013-2.925-3.622-4.182-4.629-1.276Z"/><path class="c" d="M289.346,37.694a34.366,34.366,0,0,1-5.415,9.149,25.075,25.075,0,0,1-8.919,6.71,36.32,36.32,0,0,1-5.151,2.1c-1.833.556-3.7,1-5.493,1.693a15.757,15.757,0,0,0-8.534,7.545,32.382,32.382,0,0,0-3.176,12.686,2.4,2.4,0,0,0,4.8,0,26.807,26.807,0,0,1,2.433-10.089,11.77,11.77,0,0,1,3.071-3.995,14.046,14.046,0,0,1,4.809-2.24c1.773-.536,3.581-.967,5.315-1.624a56.9,56.9,0,0,0,5.5-2.5,27.029,27.029,0,0,0,8.874-7.056,41.627,41.627,0,0,0,6.519-11.109,2.416,2.416,0,0,0-1.676-2.952,2.456,2.456,0,0,0-2.952,1.676Z"/><path class="c" d="M340.762,81.054c1.631-1.568,4.6-1.662,5.99.31a8.558,8.558,0,0,1,1.034,4.233,24.7,24.7,0,0,1-.113,4.923,21.979,21.979,0,0,1-3.3,9.233,5.836,5.836,0,0,1-2.457,2.42,27.728,27.728,0,0,1-4.12.871c-3.022.631-1.743,5.259,1.276,4.629a22.891,22.891,0,0,0,5.325-1.361,11.6,11.6,0,0,0,4.348-4.49,27.458,27.458,0,0,0,3.867-12.884c.243-4.223-.1-9.45-3.781-12.173a8.966,8.966,0,0,0-11.462.895c-2.23,2.146,1.166,5.537,3.394,3.394Z"/><path class="c" d="M336.4,99.72a24.838,24.838,0,0,1-1.527,8.8c-.122.343-.257.68-.391,1.019-.238.6.048-.092-.112.266-.11.244-.216.489-.328.732-.486,1.063-1.01,2.109-1.56,3.14a53.378,53.378,0,0,1-10.607,14.288,21.4,21.4,0,0,1-8.1,4.937c-2.951.887-1.694,5.521,1.276,4.628,6.657-2,11.784-7.164,15.894-12.551a60.121,60.121,0,0,0,8.343-14.625A28.264,28.264,0,0,0,341.2,99.72c-.088-3.083-4.889-3.095-4.8,0Z"/><path class="c" d="M252.467,81.511a8.912,8.912,0,0,0-11.7,1.229c-2.962,3.342-2.4,8.622-1.591,12.682a27.244,27.244,0,0,0,5.459,11.77c2.747,3.373,6.985,6.036,11.454,4.8,2.973-.825,1.71-5.457-1.276-4.628-2.7.749-5.239-1.588-6.784-3.561a23.885,23.885,0,0,1-4.612-12.872c-.065-1.405-.2-3.12.5-4.4,1.259-2.3,4.244-2.264,6.129-.869a2.416,2.416,0,0,0,3.283-.861,2.455,2.455,0,0,0-.861-3.284Z"/><path class="c" d="M252.263,105.567a52.9,52.9,0,0,0,7.724,17.4,2.464,2.464,0,0,0,3.283.861,2.42,2.42,0,0,0,.861-3.284,48.224,48.224,0,0,1-7.239-16.251,2.4,2.4,0,0,0-4.629,1.276Z"/><path class="c" d="M264.007,127.145c6.548,6.834,14.848,12.273,24.476,13.076a2.42,2.42,0,0,0,2.4-2.4,2.449,2.449,0,0,0-2.4-2.4c-8.3-.693-15.483-5.827-21.082-11.67-2.141-2.235-5.532,1.163-3.394,3.394Z"/><path class="a" d="M380.538,198.113c-.359-4.16-3.169-14.359-6.734-19.112a42.268,42.268,0,0,0-12.873-11.421c-8.295-4.508-15.311-8.2-23.322-11.936-.732-.24-1.236-.328-1.427-.206-9.121,5.323-26.886,10.073-40.368,10.02a90.946,90.946,0,0,1-40.725-10.511c-11.492,4.184-23.217,8.294-30.942,13.954-5.282,4.093-8.968,11.54-10.035,19.276-1.97,21.575,1.557,42.641,8.835,63.277,2.224,6.308,4.968,12.674,9.823,17.274,4.216,4,10.387,6.359,15.946,5.144-1.493,5.973-2.745,8.135-6.063,17.049,24.924,0,129.682-.564,149.229-.568-2.093-21.438-8.323-71.923-11.347-92.237"/><path class="c" d="M255.318,157.793a92.931,92.931,0,0,0,33.781,9.734c11.224,1.053,22.62-.7,33.379-3.91,2.73-.816,5.429-1.744,8.065-2.826,1.323-.543,2.637-1.11,3.925-1.733q.834-.4,1.653-.838.261-.139.521-.283t.5-.284q-1.537.011-.533.2c3,.757,4.274-3.871,1.276-4.629a4.407,4.407,0,0,0-3.671.574c-1,.55-2.016,1.057-3.049,1.534a66.643,66.643,0,0,1-6.315,2.49,103.242,103.242,0,0,1-15.98,4.064,79.064,79.064,0,0,1-33.884-1.732,84.69,84.69,0,0,1-17.251-6.5c-2.74-1.416-5.17,2.724-2.422,4.145Z"/><path class="c" d="M315.566,134.411a79.015,79.015,0,0,0,1.361,10.834,8.421,8.421,0,0,0,5.575,6.433c.877.349-.624-.309,0-.008.224.108.452.21.677.315q1.067.5,2.129,1,2.883,1.362,5.764,2.727c1.311.621,2.611,1.287,3.945,1.855a2.481,2.481,0,0,0,3.284-.861,2.416,2.416,0,0,0-.861-3.283c-2.83-1.207-5.583-2.631-8.364-3.946-1.35-.639-2.694-1.291-4.053-1.91a16.675,16.675,0,0,1-2.045-.967,2.529,2.529,0,0,1-1.19-1.661,33.913,33.913,0,0,1-.724-4.022,58.255,58.255,0,0,1-.695-6.509,2.451,2.451,0,0,0-2.4-2.4,2.423,2.423,0,0,0-2.4,2.4Z"/><path class="c" d="M257.33,157.48c5.427-1.993,11.029-3.581,16.54-5.329,2.913-.925,5.279-2.537,6.285-5.531a23.152,23.152,0,0,0,.7-3.68c.334-2.035.607-4.072.758-6.129a2.421,2.421,0,0,0-2.4-2.4,2.446,2.446,0,0,0-2.4,2.4c-.126,1.722-.356,3.41-.63,5.114a21.745,21.745,0,0,1-.656,3.419c-.151.458.129-.165-.124.3-.07.126-.386.606-.348.56a3.891,3.891,0,0,1-1.05.776,15.977,15.977,0,0,1-2.753.971c-5.065,1.6-10.21,3.072-15.2,4.905a2.464,2.464,0,0,0-1.677,2.952,2.42,2.42,0,0,0,2.953,1.676Z"/><path class="c" d="M326.276,153.209c10.336,4.41,20.379,9.4,30.27,14.726A48.253,48.253,0,0,1,366.1,174.2a31.569,31.569,0,0,1,8.524,11.286A55.537,55.537,0,0,1,377,192.575c.3,1.1.563,2.209.788,3.327q.13.653.239,1.309c-.007-.043.109.747.061.383-.033-.253.046.444.053.519a2.466,2.466,0,0,0,2.4,2.4,2.417,2.417,0,0,0,2.4-2.4,48.63,48.63,0,0,0-3.075-12.335,39.043,39.043,0,0,0-3.02-6.542,35.524,35.524,0,0,0-5.2-6.382,42.109,42.109,0,0,0-9.5-7.346q-7.5-4.146-15.168-7.989-9-4.519-18.276-8.455a2.48,2.48,0,0,0-3.283.861,2.417,2.417,0,0,0,.861,3.284Z"/><path class="c" d="M216.426,188.815c.949-6.595,3.693-13.861,9.181-18.026,5.786-4.39,12.966-7.12,19.692-9.685,4.389-1.675,8.817-3.243,13.227-4.863a2.464,2.464,0,0,0,1.676-2.952,2.421,2.421,0,0,0-2.952-1.677c-8.067,2.964-16.235,5.734-24.037,9.361a61.769,61.769,0,0,0-9.841,5.541,25.6,25.6,0,0,0-7.24,8.238,36.22,36.22,0,0,0-4.334,12.787,2.482,2.482,0,0,0,1.676,2.953,2.418,2.418,0,0,0,2.952-1.677Z"/><path class="c" d="M246.2,274.012c-1.465,5.584-3.851,10.874-5.864,16.271a2.42,2.42,0,0,0,1.677,2.952,2.451,2.451,0,0,0,2.952-1.676c2.012-5.4,4.4-10.687,5.864-16.271a2.4,2.4,0,0,0-4.629-1.276Z"/><path class="c" d="M351.485,195.112q.743,14.646.889,29.316c.049,5.034.023,9.986-.382,15-.933,11.539-2.222,23.055-3.52,34.558-.623,5.51-1.256,11.02-1.95,16.522a2.412,2.412,0,0,0,2.4,2.4,2.46,2.46,0,0,0,2.4-2.4c1.372-10.882,2.571-21.789,3.71-32.7,1.03-9.858,2.212-19.733,2.169-29.655q-.074-16.53-.916-33.043c-.156-3.074-4.957-3.093-4.8,0Z"/><path class="c" d="M378.22,198.755c1.675,11.263,3.074,22.26,4.509,33.609q2.549,20.162,4.86,40.352c.667,5.875,1.317,11.753,1.893,17.637a2.467,2.467,0,0,0,2.4,2.4,2.417,2.417,0,0,0,2.4-2.4c-1.145-11.7-2.529-23.378-3.928-35.05q-2.415-20.153-5.069-40.276c-.778-5.854-1.568-11.707-2.436-17.549A2.417,2.417,0,0,0,379.9,195.8a2.462,2.462,0,0,0-1.677,2.953Z"/><path class="c" d="M242.653,293.321q11.336,0,22.671-.057,16.749-.06,33.5-.135l36.974-.164q16.578-.075,33.156-.143,10.818-.042,21.636-.069h1.541c3.089,0,3.094-4.8,0-4.8-6.6,0-13.2.032-19.795.057q-16.011.062-32.023.136l-36.887.164q-17.232.075-34.464.142-12.163.045-24.329.069h-1.977c-3.089,0-3.094,4.8,0,4.8Z"/><path class="a" d="M268,190.938c1.732-2.492,8.6-12.377,8.79-15.616a4.7,4.7,0,0,0-1.209-1.632c-4.438-4.482-7.125-6.775-10.162-11.553-3.074-3.667-5.407-12.889-7.152-22.1a75.112,75.112,0,0,1-.881-15.7,2.367,2.367,0,0,1,2.172-2.53s1.133-.112,2.394-.129a10.465,10.465,0,0,1-.132-4.387,2.725,2.725,0,0,1,2.012-2.154,4.614,4.614,0,0,1,4.3,1.117,11.873,11.873,0,0,1,2.166,5.156l.341.773a2.944,2.944,0,0,1,2.039-1.3c3.712-.155,5.409,3.945,5.875,5.338,1.132,3.379,5.411,11.7,8.238,19.217a23.888,23.888,0,0,0,1.682,3.08,63.518,63.518,0,0,0,9.524,9.19c2.748,2.213,6.295,5.63,6.962,9.094a12.888,12.888,0,0,1-.605,5.743c-1.152,4.241-4.547,8.786-6.189,12.863-1.3,3.232-4,13.473-5.15,17.87"/><path class="c" d="M258.919,119.5c-4.6.7-4,5.975-3.981,9.388a76.035,76.035,0,0,0,1.66,15.061A89.043,89.043,0,0,0,260.1,157a35.927,35.927,0,0,0,5.458,9.493,52.5,52.5,0,0,0,4.223,4.793c.832.846,1.678,1.678,2.52,2.515a10.44,10.44,0,0,1,2.419,2.734l-.327-1.212c-.028.332,0-.139.029-.206a3.28,3.28,0,0,0-.1.408c-.088.278-.171.555-.271.829-.05.136-.1.271-.159.405.1-.244.029-.07-.036.069-.16.348-.324.693-.5,1.035-.793,1.576-1.694,3.1-2.621,4.6-1.528,2.472-3.155,4.881-4.813,7.267a2.421,2.421,0,0,0,.861,3.283,2.447,2.447,0,0,0,3.283-.861c2.15-3.093,4.264-6.223,6.144-9.489a29.52,29.52,0,0,0,2.6-5.414,4.624,4.624,0,0,0,.287-2.562c-.462-1.676-2.082-2.955-3.26-4.127-3.616-3.6-7.4-7.453-9.708-11.677a36.025,36.025,0,0,1-2.775-7.361c-.926-3.221-1.662-6.5-2.324-9.78a63.321,63.321,0,0,1-1.275-11.184c-.043-1.911-.026-3.824.014-5.735,0-.243.015-.48.023-.722-.026.753-.073.081.041-.04l-.093.191q.209-.345,0-.064a.237.237,0,0,1-.186.072,2.869,2.869,0,0,1,.635-.132,2.416,2.416,0,0,0,1.676-2.952,2.459,2.459,0,0,0-2.952-1.676Z"/><path class="c" d="M278.736,144.479c-1.9-5.968-3.441-12.059-5.158-18.081a10.823,10.823,0,0,1-.727-3.065c-.021.327.139-.138-.058.036.681-.6-.148.056-.118-.086.084-.394,1.656.537,1.618.506a4.474,4.474,0,0,1,1.2,1.463c.161.273.3.556.444.838.064.126.121.26.178.39-.222-.513,0,.022.029.107.49,1.462,1.115,2.879,1.736,4.289,1.853,4.2,3.85,8.346,5.579,12.6,1,2.458,1.859,4.972,3.573,7.046a54.336,54.336,0,0,0,5.3,5.492c1.841,1.68,3.838,3.177,5.682,4.85a15.707,15.707,0,0,1,4.315,5.422c.822,2.078.111,4.513-.571,6.53a39.263,39.263,0,0,1-3.11,6.309,54.393,54.393,0,0,0-4.7,11.556c-1.149,3.967-2.206,7.96-3.252,11.955-.783,2.991,3.846,4.267,4.628,1.276,1.949-7.441,3.509-15.219,7.259-21.994,2.577-4.655,5.82-10.208,4.685-15.758-1.064-5.2-5.857-8.632-9.638-11.858a63.263,63.263,0,0,1-6.007-5.788A20.876,20.876,0,0,1,288,142c-1.925-4.719-4.133-9.31-6.17-13.98-1.24-2.844-2.117-6.23-4.95-8.264A6.081,6.081,0,0,0,270.75,119a5.3,5.3,0,0,0-2.591,5.9c.753,3.475,1.959,6.913,2.92,10.336.984,3.509,1.922,7.041,3.029,10.514.934,2.932,5.57,1.679,4.628-1.276Z"/><path class="c" d="M270.861,146.407a89.718,89.718,0,0,1-6.039-21.465c-.244-1.619-.514-3.246-.715-4.87a7.2,7.2,0,0,1-.049-1.7,3.83,3.83,0,0,1,.129-.653c.1-.329-.09-.087.093-.182,2.473-1.274,3.338,3,3.7,4.512.721,3,5.351,1.731,4.628-1.276a15.023,15.023,0,0,0-2.407-5.729,6.554,6.554,0,0,0-5.72-2.41,5.269,5.269,0,0,0-4.85,3.585,11.8,11.8,0,0,0-.068,5.66c.694,4.247,1.257,8.467,2.309,12.649a98.484,98.484,0,0,0,4.843,14.3,2.415,2.415,0,0,0,3.284.861,2.465,2.465,0,0,0,.861-3.284Z"/><path class="c" d="M211.712,188.177c-1.9,21.28,1.57,42.664,8.526,62.785,3,8.664,6.942,18.03,15.3,22.79a19.93,19.93,0,0,0,13.076,2.574c3.931-.656,7.506-3.039,10.651-5.369a55.285,55.285,0,0,0,9.418-8.57,63.83,63.83,0,0,0,5.448-8c3.749-6.121,7.23-12.409,10.586-18.753,3.1-5.853,6.1-11.763,8.836-17.8.959-2.118,1.91-4.252,2.691-6.443.45-1.26.984-2.734.561-4.069-.627-1.975-2.767-3.36-4.36-4.483-2.379-1.676-4.908-3.143-7.439-4.576-6.028-3.415-12.209-6.554-18.373-9.715q-1.826-.937-3.649-1.882a2.465,2.465,0,0,0-3.284.861c-3.229,4.865-6.15,9.943-9.025,15.023s-5.724,10.2-8.245,15.465a2.466,2.466,0,0,0,.861,3.284,2.422,2.422,0,0,0,3.284-.861c2.521-5.268,5.369-10.386,8.244-15.466s5.8-10.157,9.026-15.022l-3.284.861c5.559,2.893,11.162,5.7,16.685,8.662,2.847,1.527,5.68,3.085,8.453,4.744,1.156.691,2.3,1.4,3.42,2.148.473.316.942.64,1.4.976.127.093.72.554.267.194.177.141.354.283.527.43.294.25.562.521.84.787.154.148.441.611-.007-.047a2.073,2.073,0,0,1,.221.356c-.2-.478-.022-.22-.168-.531-.115-.245-.039-.362-.038-.119,0,.424.178-.605.045-.306a2.858,2.858,0,0,0-.08.372c-.183.647-.38,1.282-.611,1.914-.14.38-.286.757-.435,1.133-.088.223-.178.444-.268.666-.063.154-.375.9-.167.408-2.266,5.344-4.874,10.551-7.523,15.714q-4.8,9.36-10.06,18.479c-3.15,5.428-6.23,10.994-10.781,15.386a52.151,52.151,0,0,1-9.3,7.231c-3.094,1.856-6.294,2.877-9.924,2.127-8.618-1.781-13.5-9.614-16.515-17.25a147.907,147.907,0,0,1-10.5-58.57c.083-2.517.244-5.03.468-7.539a2.418,2.418,0,0,0-2.4-2.4,2.451,2.451,0,0,0-2.4,2.4Z"/><path class="c" d="M298.286,94.927c.237.714.458,1.433.669,2.155a15.846,15.846,0,0,1,.579,2.3l-.085-.638a2.018,2.018,0,0,1,0,.453l.085-.638a1.286,1.286,0,0,1-.052.2l.242-.573a.963.963,0,0,1-.1.177l.376-.486a.749.749,0,0,1-.1.1l.486-.375a2.667,2.667,0,0,1-.5.282l.574-.242a2.3,2.3,0,0,1-.532.147l.638-.086a5.676,5.676,0,0,1-1-.055,2.42,2.42,0,0,0-1.7.7,2.4,2.4,0,0,0,0,3.395,2.658,2.658,0,0,0,1.7.7,7.716,7.716,0,0,0,.83.068,4.674,4.674,0,0,0,2.171-.615,3.164,3.164,0,0,0,1.59-2.068,4.9,4.9,0,0,0-.091-2.186c-.325-1.348-.722-2.678-1.16-3.994a2.542,2.542,0,0,0-1.1-1.434,2.451,2.451,0,0,0-1.85-.242,2.4,2.4,0,0,0-1.676,2.952Z"/><path class="c" d="M274.5,84.37c-.563,2.361.245,7.655,4.66,7.825,5.794-.409,5.686-6.867,3.539-9.767C280.946,80.052,276.182,79.325,274.5,84.37Z"/><path class="c" d="M320.918,81.371c.862,2.269.742,7.624-3.614,8.36-5.8.34-6.523-6.078-4.768-9.231C313.974,77.918,318.6,76.584,320.918,81.371Z"/><path class="c" d="M296.244,117.721c-.36.471.179-.169.257-.248.188-.19.388-.366.592-.538-.414.349.261-.171.349-.227.238-.152.483-.292.733-.421.087-.045.884-.376.412-.2.206-.077.412-.152.622-.218.282-.089.567-.165.856-.23.094-.021.989-.157.466-.1a13.72,13.72,0,0,1,1.944-.069c.245.008.489.022.734.041.161.013.322.028.483.046q-.359-.056.075.011a14.986,14.986,0,0,1,1.787.4c.273.082.538.179.806.274s.254.1-.018-.009c.116.053.231.109.344.168a2.4,2.4,0,0,0,2.422-4.145c-5.548-2.792-13.093-2.083-17.009,3.038a2.407,2.407,0,0,0,.861,3.284,2.475,2.475,0,0,0,3.284-.861Z"/><path class="c" d="M274.852,71.549a10.987,10.987,0,0,1-1.557,1.429l.486-.375a11.526,11.526,0,0,1-2.424,1.5l.573-.242a4.145,4.145,0,0,1-.421.153,2.505,2.505,0,0,0-1.434,1.1,2.4,2.4,0,0,0,2.71,3.526,10.053,10.053,0,0,0,2.836-1.468,14.489,14.489,0,0,0,2.625-2.235,2.549,2.549,0,0,0,.7-1.7,2.439,2.439,0,0,0-.7-1.7,2.412,2.412,0,0,0-1.7-.7,2.381,2.381,0,0,0-1.7.7Z"/><path class="c" d="M283.335,118.3v2.963a2.477,2.477,0,0,0,.7,1.7,2.672,2.672,0,0,0,1.7.7,2.427,2.427,0,0,0,1.7-.7,2.494,2.494,0,0,0,.7-1.7V118.3a2.477,2.477,0,0,0-.7-1.7,2.672,2.672,0,0,0-1.7-.7,2.427,2.427,0,0,0-1.7.7,2.5,2.5,0,0,0-.7,1.7Z"/><path class="a" d="M65.883,153.561c2.509-.792,5.744-1.993,6.047-2.109,4.626-1.667,4.447-4.643,5.027-7.968.281-1.566.5-3.028.677-4.542a48.438,48.438,0,0,1-13.043-9.989,55.437,55.437,0,0,1-11.44-18.18c-2.987,1.621-5.361.2-7.218-1.09a17.948,17.948,0,0,1-5.023-5.774,28.231,28.231,0,0,1-3.84-14.742,9.424,9.424,0,0,1,.739-3.845,6.662,6.662,0,0,1,4.573-3.487A7.091,7.091,0,0,1,47.9,82.948a13.253,13.253,0,0,0,4.16-5.611c4.978-4.871-2.489-21.689,7.325-29.8a26.62,26.62,0,0,1,12.444-5.475c7.191-1.41,21.655-4.353,27.919-4.293,7.665.072,13.519.094,22.79,3.382,10.884,3.281,16.3,20.416,16.98,28.824,0,0,1.646,4.088,2.976,8.033L143,79.085l.589-.6a7.055,7.055,0,0,1,5.526-2.013,6.659,6.659,0,0,1,4.985,2.867,9.426,9.426,0,0,1,1.23,3.717,28.218,28.218,0,0,1-1.9,15.115,17.925,17.925,0,0,1-4.234,6.375,5.409,5.409,0,0,1-5.329,1.616l-1.086-.255c-.341,1.7-.751,3.145-.95,3.913-1.38,4.654-10.026,21.934-21.7,27.64.159,2.057.435,4.108.783,6.151.562,3.182.383,6.025,4.813,7.62.2.08,3.646,1.666,6.164,2.925,0,0-11.259,20.3-34.37,20.3S65.883,153.561,65.883,153.561Z"/><path class="a" d="M37.317,248.926l.586.732.236.264c8.963-1.246,25.065-4.208,27.931-4.855,2.016-.455,4.673-1.05,7.705-1.733l-.02-.025a197.129,197.129,0,0,0-24.528-27.57,5.167,5.167,0,0,0-2.126-1.4,1.805,1.805,0,0,0-2.153.924l-1.318,1.909-.344-.3a13.124,13.124,0,0,0-4.372-2.562,5.235,5.235,0,0,0-4.748.6c-1.555,1.354-1.708,2.449-.83,4.315a8.894,8.894,0,0,0,1.771,2.325l-.463-.16a5.079,5.079,0,0,0-4.877,1.455,3.735,3.735,0,0,0-.579,3.948,14.5,14.5,0,0,0,3.211,4.211q1.362,1.364,2.706,2.751l-1.816-.008A3.991,3.991,0,0,0,30.1,235.2a3.386,3.386,0,0,0-.55,3.358,9.982,9.982,0,0,0,1.875,3.019Z"/><path class="a" d="M132.786,267.53a17.888,17.888,0,0,0,1.969-.191c3.7-.567,9.268-1.84,12.445-1.111,1.059.243,5.821,2.035,7.592,1.852,1.658-.171,4.244-2.512,4.888-3.117.863-4.075,2.3-16.644,3.721-29.99l-1.5-.523c-.985-.366-4.828-1.859-5.813-2.225a26.389,26.389,0,0,0-7.668-2c-5.481-.293-13.041,3.3-18.445,5.159-6.075,2.089-9.882,3.418-16.074,5.137l-.749.205c2.2,6.993,5.566,16.568,8.011,24.006l.294.137A23.829,23.829,0,0,0,132.786,267.53Z"/><path class="a" d="M120.91,273.42a287.529,287.529,0,0,1-34,12.21l1.811,1.117c1,.618,31.408,3.407,38.413,3.572,17.374.411,35.423,2.3,52.65-.67,7.232-1.257,15.121-3.55,19.161-12.054,2.958-6.224,2.4-15.145,2.072-24-.69-18.451-4.675-40.22-12.552-62.687-1.641-4.4-6.074-14.087-12.055-18.058q-1.213-.806-2.467-1.584l-.2.521a157.527,157.527,0,0,0-6.227,24.628c-1.062,7.439-5.891,59.4-7.823,68.547-.637.6-3.232,2.949-4.893,3.121-1.771.183-6.533-1.609-7.592-1.852-3.177-.729-8.746.544-12.445,1.111-4.752.724-9.317-.512-13.6-2.612.666,2.018,1.263,3.88,1.75,5.492.467,1.545-.567,2.406-2,3.2"/><path class="a" d="M120.91,273.42c-21.778,9.778-62.739,21.639-87.3,23.03-3.886.22-7.864.272-11.574-.9A24.055,24.055,0,0,1,8.624,284.672c-2.764-5.034-3.722-9.058-4.407-14.76-.942-7.835-2.261-22.472-1.815-30.351,1.111-19.629,2.909-36.222,8.288-53.919,1.918-5.4,4.266-9.623,7.507-13l1.234,1.29c3.1,5.2,9.292,17.2,11.045,23.924.889,3.407,3.007,10.077,4.388,16.853l5.374,34.91c9.17-1.37,23.178-3.955,25.832-4.554,9.48-2.141,33.158-7.369,43.2-10.393a2.015,2.015,0,0,1,2.494,1.394c2.277,8.242,8.423,25.135,11.149,34.151.467,1.545-.567,2.406-2,3.2"/><path class="d" d="M132.569,151.413a35.332,35.332,0,0,0-6.8-7.763A78.258,78.258,0,0,1,103.654,159.3a10.761,10.761,0,0,0-2.688,1.638h-4.04a10.743,10.743,0,0,0-2.688-1.638A78.286,78.286,0,0,1,72.122,143.65a35.57,35.57,0,0,0-7,8.064c-2.592.68-5.848,1.528-5.848,1.528-10.877,3.319-25.227,9.1-34.232,14.155a29,29,0,0,0-6.768,5.15c.667.8,1.152,1.387,1.152,1.387,3.1,5.2,9.292,17.2,11.045,23.924.879,3.37,2.962,9.934,4.338,16.624a5.784,5.784,0,0,1,4.1-.17,13.124,13.124,0,0,1,4.372,2.562q.421.369.833.733c.505-1.431.829-2.34.829-2.34a1.805,1.805,0,0,1,2.153-.924,5.167,5.167,0,0,1,2.126,1.4A197.31,197.31,0,0,1,73.772,243.33c11.226-2.526,27.589-6.274,35.494-8.656a2.015,2.015,0,0,1,2.494,1.394c.37,1.34.843,2.91,1.387,4.637.472-.112.756-.181.756-.181,6.192-1.719,10-3.048,16.074-5.137,5.4-1.858,12.964-5.452,18.445-5.159a26.389,26.389,0,0,1,7.668,2c.985.366,4.828,1.859,5.813,2.225l1.491.595c1.772-16.636,3.524-34.5,4.114-38.633a157.527,157.527,0,0,1,6.227-24.628l.213-.517c-13.342-8.306-29.424-14.225-36.049-16.827,0,0-2.086-.588-4.179-1.181C133.356,152.643,132.973,152.026,132.569,151.413Z"/><path class="b" d="M149.913,52.4a77.094,77.094,0,0,0-3.136-14.513c-4.511-13.734-12.23-22.51-26.372-25.642C110.894,1.483,89.252-.426,77.053,6.376a50.323,50.323,0,0,1-7.671,2.381c-9.86,1.875-19.73,10.99-24.856,21.329a64.148,64.148,0,0,0-6.65,31.4,84.85,84.85,0,0,0,3.508,20.662,5.736,5.736,0,0,1,1-.308A7.091,7.091,0,0,1,47.9,82.948a13.253,13.253,0,0,0,4.16-5.611c4.978-4.871-2.489-21.689,7.325-29.8a26.62,26.62,0,0,1,12.444-5.475c7.191-1.41,21.655-4.353,27.919-4.293,7.665.072,13.519.094,22.79,3.382,10.884,3.281,16.3,20.416,16.98,28.824,0,0,1.646,4.088,2.976,8.033L143,79.085l.589-.6a7,7,0,0,1,5.323-2.014C150.67,70.764,151.042,61.649,149.913,52.4Z"/><path class="c" d="M141.916,69.979a48.728,48.728,0,0,0-3.177-13.217c-1.88-4.907-4.392-9.8-8.2-13.5a17.647,17.647,0,0,0-7.363-4.418c-2.974-.855-4.244,3.775-1.276,4.628,5.133,1.476,8.614,6.712,10.956,11.636a48.845,48.845,0,0,1,2.936,8.061c.346,1.263.648,2.537.9,3.822q.174.907.309,1.821a1.747,1.747,0,0,1,.048.4c.026.256.053.512.074.769a2.463,2.463,0,0,0,2.4,2.4,2.417,2.417,0,0,0,2.4-2.4Z"/><path class="c" d="M114.174,38.3c-.978-2.784-2.019-5.7-4.067-7.9a13.806,13.806,0,0,0-3.077-2.328,18.9,18.9,0,0,0-3.838-1.822,2.419,2.419,0,0,0-2.952,1.676,2.453,2.453,0,0,0,1.676,2.952c.105.034.208.068.311.106.08.029.59.232.174.063s.063.033.146.072c.131.061.261.123.39.187.568.281,1.125.587,1.67.911.479.285.952.584,1.4.911.349.253.019.044-.123-.1.082.083.185.151.273.229.193.17.377.35.553.538.082.088.162.178.24.269.06.071.348.436.081.09s.018.032.071.107c.086.122.169.245.249.371a14.131,14.131,0,0,1,.8,1.434q.2.405.379.818c.042.1.084.192.125.288l-.118-.276a2.033,2.033,0,0,1,.186.46c.291.734.559,1.476.82,2.221a2.4,2.4,0,0,0,4.629-1.276Z"/><path class="c" d="M102.321,37.666a27.647,27.647,0,0,0-11.664-7.858,27.087,27.087,0,0,0-5.443-1.244,23.464,23.464,0,0,0-6.279-.347,2.477,2.477,0,0,0-2.4,2.4,2.414,2.414,0,0,0,2.4,2.4,19.7,19.7,0,0,1,5.152.2,27.627,27.627,0,0,1,5.131,1.163,22.473,22.473,0,0,1,9.709,6.683,2.422,2.422,0,0,0,3.394,0,2.449,2.449,0,0,0,0-3.4Z"/><path class="c" d="M120.072,8.539c-6.7-5.76-15.7-8.26-24.407-8.518A43.619,43.619,0,0,0,82.824,1.49a33.49,33.49,0,0,0-5.769,2.182c-.408.2-.822.4-1.213.632-.5.295.307-.079-.294.136-.807.289-1.617.565-2.436.818-3.8,1.171-7.65,1.82-11.258,3.582A40.4,40.4,0,0,0,50,17.967c-6.932,7.584-11.24,17.377-13.238,27.4-2.432,12.194-1.268,24.706,2.077,36.611.834,2.969,5.466,1.708,4.628-1.276-2.771-9.866-4.064-20.2-2.694-30.415C42.018,41,45.361,31.479,51.133,24.03a39.813,39.813,0,0,1,10.154-9.377,26.909,26.909,0,0,1,5.643-2.762c1.607-.545,3.275-.824,4.909-1.266,1.605-.435,3.213-.9,4.773-1.477,1.433-.531,2.728-1.331,4.139-1.907A34.5,34.5,0,0,1,91.988,4.862c8.5-.442,18.074,1.383,24.69,7.071a2.461,2.461,0,0,0,3.394,0,2.421,2.421,0,0,0,0-3.394Z"/><path class="c" d="M125.246,16.17c17.079,6.514,22.162,26.738,22.84,43.228a56.525,56.525,0,0,1-.93,14.3c-.655,3.012,3.972,4.3,4.628,1.276,2.105-9.681,1.334-20.16-.621-29.8-1.866-9.2-5.368-18.648-12-25.51a34.433,34.433,0,0,0-12.641-8.123,2.419,2.419,0,0,0-2.952,1.677,2.453,2.453,0,0,0,1.676,2.952Z"/><path class="c" d="M71.009,40.626a26.1,26.1,0,0,0-9.955,2.929,19.144,19.144,0,0,0-6.91,6.938c-3.237,5.47-2.371,11.893-2.473,17.985a31.52,31.52,0,0,1-.312,4.411,12.541,12.541,0,0,1-.486,1.878c-.155.449-.052.129-.008.035-.075.157-.156.31-.241.462-.049.088-.1.172-.158.257-.335.528.3-.326-.105.119-2.085,2.273,1.3,5.676,3.394,3.394,1.823-1.987,2.3-4.664,2.553-7.26.283-2.961.156-5.95.154-8.919a25.611,25.611,0,0,1,.676-7.589c.031-.1.268-.736.192-.556-.143.333.172-.34.2-.4.08-.16.161-.319.245-.478a20.532,20.532,0,0,1,1.33-2.185,13.659,13.659,0,0,1,2.71-2.857,18.412,18.412,0,0,1,9.191-3.361,2.475,2.475,0,0,0,2.4-2.4,2.413,2.413,0,0,0-2.4-2.4Z"/><path class="c" d="M117.722,137.46c.22,2.721.671,5.4,1.077,8.1a10.377,10.377,0,0,0,1.981,5.2,7.912,7.912,0,0,0,2.323,1.915c.29.161.591.3.9.429.134.058,1.3.536.534.208.192.082.38.171.57.258q2.8,1.287,5.57,2.656a2.46,2.46,0,0,0,3.284-.861,2.423,2.423,0,0,0-.861-3.283c-1.752-.873-3.521-1.711-5.3-2.531-.527-.243-1.267-.539-1.658-.714a13.353,13.353,0,0,1-1.184-.658c-.412-.256.187.234-.154-.128-.128-.137-.265-.271-.4-.4-.382-.383.194.375-.059-.084-.084-.153-.181-.295-.262-.45-.139-.267-.15-.412-.037-.055-.052-.164-.115-.324-.165-.49a16.525,16.525,0,0,1-.454-2.283c-.342-2.275-.719-4.529-.905-6.825a2.461,2.461,0,0,0-2.4-2.4,2.419,2.419,0,0,0-2.4,2.4Z"/><path class="c" d="M145.283,80.18c1.8-1.741,5.1-1.869,6.691.279a8.439,8.439,0,0,1,1.145,4.165,27.912,27.912,0,0,1-.025,5.415,24.326,24.326,0,0,1-2.978,9.448c-1.112,1.948-3.034,4.888-5.618,4.359a2.459,2.459,0,0,0-2.952,1.676,2.422,2.422,0,0,0,1.676,2.952,7.819,7.819,0,0,0,6.114-1.005,16.021,16.021,0,0,0,4.509-4.864,29.335,29.335,0,0,0,4.126-13.467c.305-4.39.06-10.1-3.67-13.063a9.467,9.467,0,0,0-12.412.711c-2.225,2.151,1.171,5.543,3.394,3.394Z"/><path class="c" d="M140.906,100.415a26.827,26.827,0,0,1-1.651,9.538c-.131.368-.277.731-.42,1.094-.239.606.058-.115-.111.266-.122.274-.242.549-.367.822-.535,1.173-1.113,2.327-1.72,3.464a57.557,57.557,0,0,1-11.464,15.415,23.185,23.185,0,0,1-8.756,5.328c-2.951.885-1.694,5.52,1.276,4.628,7.167-2.152,12.68-7.746,17.091-13.551a64.581,64.581,0,0,0,8.863-15.558,30.257,30.257,0,0,0,2.059-11.446c-.092-3.082-4.893-3.1-4.8,0Z"/><path class="c" d="M49.333,81.045a9.422,9.422,0,0,0-12.2,1.1c-3.3,3.533-2.72,9.178-1.866,13.556a29.255,29.255,0,0,0,5.747,12.577c2.762,3.445,7.176,6.615,11.782,5.255,2.956-.873,1.7-5.507-1.276-4.629-2.764.816-5.585-2.012-7.112-4.02a25,25,0,0,1-4.23-9.172,24.65,24.65,0,0,1-.7-5.006c-.051-1.494-.168-3.317.657-4.641,1.5-2.411,4.672-2.432,6.772-.872a2.417,2.417,0,0,0,3.284-.861,2.457,2.457,0,0,0-.861-3.284Z"/><path class="c" d="M49.347,107.052c4.11,13.734,13.363,26.567,26.117,33.461a34.425,34.425,0,0,0,11.353,3.894,2.479,2.479,0,0,0,2.952-1.676,2.417,2.417,0,0,0-1.676-2.952c-13.6-1.981-24.656-13.316-30.605-25.121a54.26,54.26,0,0,1-3.513-8.882c-.883-2.952-5.517-1.695-4.628,1.276Z"/><path class="c" d="M66.521,155.876c1.849-.588,3.68-1.236,5.5-1.906a11.139,11.139,0,0,0,4.77-2.811,9.573,9.573,0,0,0,2.139-4.849c.367-2.187.718-4.379,1.006-6.578a2.4,2.4,0,0,0-2.4-2.4,2.476,2.476,0,0,0-2.4,2.4c-.039.3-.043.33-.014.1-.023.165-.046.33-.07.495-.036.248-.074.5-.112.744-.093.592-.2,1.181-.3,1.771-.124.728-.218,1.46-.34,2.188a11.6,11.6,0,0,1-.445,1.878c-.217.632.166-.27-.029.1-.068.129-.129.261-.2.387-.084.147-.2.286-.278.436q-.155.218.147-.185c-.066.08-.133.157-.2.233q-.163.177-.342.338c-.083.075-.167.148-.254.217q.388-.3.062-.062c-.361.226-.735.414-1.107.622-.151.069-.127.061.074-.024-.143.058-.287.113-.433.166l-.124.047-.657.242c-1.744.639-3.5,1.258-5.266,1.82a2.4,2.4,0,0,0,1.276,4.629Z"/><path class="c" d="M158.132,263.124a17.45,17.45,0,0,1-1.907,1.617,8.124,8.124,0,0,1-1.629.936c-.5.158.307.054-.182.015a2.178,2.178,0,0,1-.564-.064c-2.706-.516-5.222-1.784-7.986-1.987-3.7-.27-7.47.689-11.095,1.28a20.571,20.571,0,0,1-12.1-2.121,2.468,2.468,0,0,0-3.284.861,2.421,2.421,0,0,0,.861,3.284,28.458,28.458,0,0,0,10.952,2.986c3.382.14,6.7-.779,10.032-1.239a14.818,14.818,0,0,1,6.9.327c2.262.722,5,1.853,7.406,1.359,2.28-.469,4.359-2.278,5.988-3.86,2.22-2.156-1.176-5.549-3.394-3.394Z"/><path class="c" d="M114.541,242.839c6.7-1.867,13.335-4.046,19.829-6.526a73.753,73.753,0,0,1,9.608-3.206,16.213,16.213,0,0,1,4.119-.492,18.717,18.717,0,0,1,5.591,1.282c2.549.893,5.048,1.923,7.577,2.868a2.422,2.422,0,0,0,2.953-1.677,2.452,2.452,0,0,0-1.677-2.952c-5.73-2.141-11.371-4.971-17.652-4.07a47.717,47.717,0,0,0-9.958,2.919c-3.251,1.227-6.506,2.41-9.8,3.53-3.925,1.336-7.875,2.582-11.87,3.7-2.971.828-1.709,5.461,1.276,4.629Z"/><path class="c" d="M8.376,185c-4.924,16.279-7.014,33.136-8.1,50.062a150.295,150.295,0,0,0,.2,20.824q.377,5.1.917,10.195A85.122,85.122,0,0,0,2.9,276.538c1.769,7.58,5.949,14.437,12.623,18.611a25.272,25.272,0,0,0,11.763,3.743,64.974,64.974,0,0,0,10.8-.392c13.881-1.355,27.607-4.494,41.042-8.157a311.823,311.823,0,0,0,38.957-13.105q2.026-.852,4.035-1.746a2.418,2.418,0,0,0,.861-3.284,2.46,2.46,0,0,0-3.284-.861,276.514,276.514,0,0,1-36.046,12.737,286.939,286.939,0,0,1-40.277,9c-2.807.389-5.63.69-8.457.887-3.919.273-7.983.5-11.8-.6-6.978-2.009-12.028-7.63-14.463-14.311-2.216-6.08-2.515-12.839-3.068-19.236a152.84,152.84,0,0,1-.818-19.58c.685-16.1,2.429-32.342,6.534-47.956q.793-3.019,1.7-6.006c.9-2.963-3.735-4.23-4.628-1.276Z"/><path class="c" d="M35.49,252.666c9.728-1.136,19.423-2.954,29.031-4.837,9.562-1.873,19.063-4.221,28.538-6.484,5.637-1.347,11.291-2.69,16.845-4.356,2.951-.886,1.694-5.52-1.276-4.629-10.457,3.137-21.2,5.419-31.836,7.833-8.318,1.887-16.615,3.642-25.018,5.112q-4.5.786-9.01,1.512c-2.637.419-4.984.781-7.274,1.049a2.473,2.473,0,0,0-2.4,2.4,2.415,2.415,0,0,0,2.4,2.4Z"/><path class="c" d="M109.9,236.989c.44-.08-.9.022-.459-.283a6.963,6.963,0,0,0,.269.95q.262.912.54,1.82c.453,1.49.926,2.974,1.407,4.456,1.115,3.432,2.273,6.851,3.431,10.268,1.164,3.434,2.334,6.865,3.473,10.306.5,1.5.985,3,1.458,4.5a6.078,6.078,0,0,1,.571,1.848c-.012.1.038-.129.032-.116-.115.241-.7.476-.928.606-2.68,1.535-.265,5.684,2.423,4.145,1.643-.941,3.177-2.28,3.285-4.305a12.271,12.271,0,0,0-.977-4.157c-.958-3.011-1.966-6-2.977-9-2.088-6.179-4.239-12.34-6.18-18.568-.416-1.336-.75-2.71-1.2-4.034a4.555,4.555,0,0,0-5.446-3.07,2.421,2.421,0,0,0-1.677,2.952,2.454,2.454,0,0,0,2.953,1.677Z"/><path class="c" d="M87.507,288.819a7.953,7.953,0,0,0,2.747.639c1.866.257,3.737.471,5.61.673,4.959.535,9.926,1,14.9,1.428,11.43.992,22.851,1.4,34.316,1.845a201.931,201.931,0,0,0,26.9-.324c6.892-.655,14.406-1.522,20.51-5.067,6.524-3.79,9.886-10.331,10.806-17.642a77.73,77.73,0,0,0,.287-12.358c-.131-3.847-.279-7.693-.58-11.532a219.649,219.649,0,0,0-9.91-49.434q-1.052-3.3-2.2-6.57a2.459,2.459,0,0,0-2.952-1.677,2.422,2.422,0,0,0-1.676,2.953A222.464,222.464,0,0,1,197.6,240.141a207.176,207.176,0,0,1,1.289,22.9c.006,6.835-.678,14.012-6.066,18.856-4.538,4.078-11.14,5.165-16.974,5.944a160.2,160.2,0,0,1-25.708.931c-11.834-.331-23.69-.72-35.492-1.689q-7.53-.618-15.05-1.369c-2.043-.205-4.086-.418-6.125-.654q-1.148-.133-2.292-.282c.715.092-.082-.012-.349-.052-.237-.035-.476-.07-.712-.113-.52-.1-.924-.343-.187.057-2.715-1.473-5.141,2.67-2.422,4.145Z"/><path class="c" d="M47.018,214.324a1.788,1.788,0,0,0-2.07.943l-1.308,1.918A202.317,202.317,0,0,1,61,234.813l3.429-3.244a197.208,197.208,0,0,0-15.2-15.83,5.167,5.167,0,0,0-2.126-1.4Z"/><path class="c" d="M62.7,233.116c-3.366-3.713-6.737-7.426-10.277-10.976q-2.529-2.538-5.178-4.951a25.06,25.06,0,0,0-5.96-4.5,8.909,8.909,0,0,0-6.881-.627,5.952,5.952,0,0,0-3.992,5.375c.052,2.458,1.7,4.548,3.376,6.183,1.627,1.589,3.243,3.172,4.835,4.8,3.952,4.035,8.015,7.961,11.862,12.1,2.108,2.268,5.5-1.133,3.394-3.394-3-3.23-6.137-6.337-9.25-9.461-1.408-1.412-2.815-2.826-4.192-4.269s-2.959-2.688-4.246-4.2a3.536,3.536,0,0,1-1.012-1.954c0,.125-.089.274.036.059a1.9,1.9,0,0,1,.689-.7c1.354-.695,3.168.261,4.3.959a31.53,31.53,0,0,1,4.577,3.869q2.242,2.075,4.394,4.243c3.488,3.506,6.814,7.17,10.135,10.833,2.079,2.294,5.465-1.109,3.394-3.394Z"/><path class="c" d="M35.282,219.08a7.348,7.348,0,0,0-7.388,2.291c-2.327,2.815-1.4,6.255.643,8.9a81.744,81.744,0,0,0,6.413,6.767c2.232,2.29,4.485,4.56,6.866,6.7a2.453,2.453,0,0,0,3.394,0,2.424,2.424,0,0,0,0-3.394c-3.743-3.359-7.158-7.053-10.7-10.617a24.5,24.5,0,0,1-2.226-2.4c-.45-.594-1.127-1.456-1.009-2.256.093-.629.485-.877.985-1.13a2.423,2.423,0,0,1,1.746-.235c2.969.874,4.238-3.757,1.276-4.629Z"/><path class="c" d="M33.289,231.352a6.54,6.54,0,0,0-5.537,2.981,6.348,6.348,0,0,0,.1,6.314,35.341,35.341,0,0,0,4.033,5.32l4.318,5.388a2.414,2.414,0,0,0,3.394,0,2.456,2.456,0,0,0,0-3.394c-2.244-2.8-4.54-5.567-6.735-8.406a14.063,14.063,0,0,1-.909-1.378c-.063-.143-.244-.937-.192-.5-.018-.151-.015-.3-.02-.452-.019-.62-.078.182.011-.137.012-.043.146-.468.061-.231s.218-.2.031-.03.712-.589.3-.288c.119-.086.247-.157.369-.239.155-.1.261-.12.027-.037,0,0,.6-.156.345-.115s.4,0,.406,0a2.421,2.421,0,0,0,2.4-2.4,2.448,2.448,0,0,0-2.4-2.4Z"/><path class="c" d="M47.02,216.478c-.231.46-.935-.131-.091.427a13.13,13.13,0,0,1,1.6,1.468q1.824,1.724,3.6,3.492,3.559,3.538,6.935,7.254a193.38,193.38,0,0,1,12.615,15.4,2.473,2.473,0,0,0,3.284.861,2.419,2.419,0,0,0,.861-3.284,204.125,204.125,0,0,0-15.221-18.385q-4.048-4.333-8.353-8.42c-1.321-1.254-2.685-2.785-4.515-3.263a4.26,4.26,0,0,0-4.863,2.027c-1.386,2.751,2.753,5.185,4.144,2.422Z"/><path class="c" d="M171.421,171.146a114.131,114.131,0,0,0-3.735,12.678c-.941,3.811-1.84,7.657-2.431,11.54-.634,4.16-1,8.369-1.435,12.552C162.369,221.78,161,235.654,159.4,249.5q-.3,2.586-.617,5.171-.137,1.11-.279,2.221-.069.546-.142,1.091c-.016.128-.033.256-.05.384-.076.573.056-.408-.014.107-.272,2-.53,4-.955,5.974-.648,3.012,3.978,4.3,4.629,1.276.942-4.373,1.357-8.889,1.887-13.324.824-6.9,1.563-13.806,2.292-20.714,1.213-11.508,2.245-23.044,3.658-34.53.087-.706-.085.545-.006.04.04-.258.074-.517.115-.774.146-.931.316-1.858.5-2.782.44-2.27.94-4.528,1.474-6.777a120.5,120.5,0,0,1,4.162-14.443,2.42,2.42,0,0,0-1.676-2.953,2.452,2.452,0,0,0-2.952,1.677Z"/><path class="c" d="M37.178,214.073c-.95-4.605-2.209-9.131-3.5-13.651a87.121,87.121,0,0,0-2.857-8.887,139.458,139.458,0,0,0-9.32-18.812c-1.576-2.655-5.727-.243-4.145,2.422a130.246,130.246,0,0,1,8.963,17.979,90.864,90.864,0,0,1,2.828,8.918c1.257,4.4,2.474,8.819,3.4,13.307.624,3.023,5.252,1.744,4.629-1.276Z"/><path class="c" d="M13,186.28a32.887,32.887,0,0,1,7.217-12.287c3.331-3.358,7.593-5.472,11.8-7.516,5.15-2.5,10.438-4.719,15.791-6.749a125.249,125.249,0,0,1,12.725-4.334l8.389-2.185c2.986-.778,1.72-5.409-1.276-4.629l-7.781,2.027A127.657,127.657,0,0,0,47.326,154.8c-5.645,2.118-11.229,4.434-16.674,7.025-4.643,2.21-9.328,4.535-13.114,8.081-4.391,4.114-7.154,9.5-9.162,15.1a2.422,2.422,0,0,0,1.676,2.952A2.449,2.449,0,0,0,13,186.28Z"/><path class="c" d="M190.776,190.267a54.269,54.269,0,0,0-7.088-13.447,25.673,25.673,0,0,0-6.07-6.045c-2.765-1.879-5.679-3.559-8.613-5.157-5.6-3.051-11.392-5.727-17.263-8.208-4.295-1.815-8.626-3.665-13.027-5.214-2.8-.987-5.759-1.643-8.62-2.449-2.978-.839-4.249,3.791-1.276,4.629,2.713.764,5.445,1.478,8.142,2.294,3.513,1.062,6.96,2.664,10.354,4.055,5.4,2.215,10.739,4.611,15.936,7.277,2.924,1.5,5.8,3.087,8.609,4.8a26.842,26.842,0,0,1,6.518,5.031,45.215,45.215,0,0,1,7.769,13.712,2.469,2.469,0,0,0,2.953,1.677,2.42,2.42,0,0,0,1.676-2.953Z"/><path class="a" d="M117.243,177.6c7.044-7.081,11.551-15.546,16.664-24.017a37.057,37.057,0,0,0-8.137-9.93A78.258,78.258,0,0,1,103.654,159.3a10.761,10.761,0,0,0-2.688,1.638c-.223.364,1.668.144,1.871.521a70.114,70.114,0,0,0,4.823,5.627C110.935,170.712,115.044,175.148,117.243,177.6Z"/><path class="a" d="M80.649,177.6c-7.044-7.081-11.551-15.546-16.664-24.017a37.057,37.057,0,0,1,8.137-9.93A78.286,78.286,0,0,0,94.238,159.3a10.743,10.743,0,0,1,2.688,1.638c.223.364-1.668.144-1.871.521a70.235,70.235,0,0,1-4.822,5.627C86.957,170.712,82.848,175.148,80.649,177.6Z"/><path class="c" d="M118.94,179.294c7.059-7.155,11.9-15.966,17.039-24.5a2.41,2.41,0,0,0,0-2.423,39.815,39.815,0,0,0-8.512-10.415,2.453,2.453,0,0,0-3.394,0,74.948,74.948,0,0,1-21.065,15.01,12.041,12.041,0,0,0-3.691,2.223,2.522,2.522,0,0,0-.249,3.289,3.255,3.255,0,0,0,2.559,1.112,1.647,1.647,0,0,0,.352.029c-.21.269-.981-.923-1.164-.858,0,0,.456.618.447.606.435.567.892,1.116,1.358,1.658,1.356,1.578,2.756,3.119,4.154,4.66,2.916,3.211,5.871,6.387,8.772,9.612,2.071,2.3,5.457-1.1,3.394-3.394-3.082-3.426-6.224-6.8-9.316-10.213-1.5-1.662-3.013-3.326-4.445-5.052-.411-.5.08.139-.22-.3a3.081,3.081,0,0,0-1.065-1.058,4.25,4.25,0,0,0-1.682-.437c-.156-.017-.315-.021-.47-.043-.718-.1.345.122-.091-.031l1.059.617-.061-.059.618,2.335.014-.08-.618,1.059c.218-.268-.257.05.051-.088.2-.091.418-.266.612-.378.368-.212.747-.408,1.129-.6.952-.473,1.917-.917,2.862-1.405a77.491,77.491,0,0,0,7.144-4.192,79.763,79.763,0,0,0,13.006-10.629h-3.394a35.823,35.823,0,0,1,7.762,9.443v-2.423c-4.933,8.186-9.521,16.672-16.289,23.532C113.375,178.1,116.767,181.5,118.94,179.294Z"/><path class="c" d="M82.346,175.9c-6.768-6.86-11.356-15.346-16.289-23.532v2.423a35.843,35.843,0,0,1,7.762-9.443H70.425a79.763,79.763,0,0,0,13.006,10.629,77.819,77.819,0,0,0,6.955,4.095c.972.5,1.963.968,2.946,1.45.418.205.832.418,1.235.65.168.1.343.193.5.3.617.432-.137-.2.16.162l-.618-1.059.014.08.618-2.335-.061.059,1.059-.617c-.365.128.4-.035.024.021-.155.023-.313.025-.468.041a4.533,4.533,0,0,0-1.729.418,3.136,3.136,0,0,0-1.11,1.047c-.048.067-.089.139-.137.206-.11.154.264-.321-.031.042-1.44,1.771-2.99,3.455-4.522,5.146-3.092,3.416-6.234,6.787-9.316,10.213-2.062,2.291,1.322,5.7,3.394,3.394,2.531-2.813,5.1-5.587,7.654-8.384,1.446-1.586,2.891-3.174,4.311-4.785a15.937,15.937,0,0,0,2.732-3.316c.245-.551-.694,1-1.035.793-.119-.07,0-.02.142,0a3.871,3.871,0,0,0,1.244-.16,2.523,2.523,0,0,0,1.9-2.735c-.2-1.71-2.058-2.588-3.437-3.272A93,93,0,0,1,85.3,151.464a73.44,73.44,0,0,1-11.48-9.511,2.459,2.459,0,0,0-3.394,0,39.815,39.815,0,0,0-8.512,10.415,2.41,2.41,0,0,0,0,2.423c5.144,8.537,9.98,17.348,17.039,24.5C81.125,181.5,84.518,178.1,82.346,175.9Z"/><path class="c" d="M96.146,120.492a6.625,6.625,0,0,1,.5-.536c.08-.077.717-.572.264-.249a10.2,10.2,0,0,1,1.251-.767c.081-.041.88-.383.435-.212.283-.108.568-.209.858-.3s.593-.167.894-.232q.226-.05.456-.09c.26-.041.307-.049.143-.025s-.117.018.145-.012c.169-.015.339-.027.508-.038q.509-.03,1.019-.033a18.022,18.022,0,0,1,1.873.087c.122.011.243.024.364.039-.239-.032-.215-.027.074.017s.607.11.908.181.57.143.851.231c.1.031.929.343.392.116a2.469,2.469,0,0,0,3.283-.861c.543-1.027.374-2.762-.861-3.284a17.625,17.625,0,0,0-9.195-1.16,12.02,12.02,0,0,0-7.554,3.731,2.4,2.4,0,1,0,3.395,3.394Z"/><path class="c" d="M99.5,96.735c.257.774.5,1.555.727,2.338a17.45,17.45,0,0,1,.629,2.492l-.086-.638a2.179,2.179,0,0,1,0,.491l.086-.638a1.406,1.406,0,0,1-.057.221l.242-.574a1.059,1.059,0,0,1-.107.192l.375-.485a.694.694,0,0,1-.1.107l.485-.375a2.876,2.876,0,0,1-.54.306l.573-.241a2.521,2.521,0,0,1-.577.159l.638-.086a6.156,6.156,0,0,1-1.085-.06,2.4,2.4,0,0,0-1.7,4.1,2.648,2.648,0,0,0,1.7.7,8.228,8.228,0,0,0,.9.074,4.841,4.841,0,0,0,2.252-.64,3.232,3.232,0,0,0,1.632-2.122,5.083,5.083,0,0,0-.1-2.264c-.352-1.462-.784-2.906-1.259-4.333a2.539,2.539,0,0,0-1.1-1.434,2.4,2.4,0,0,0-3.525,2.71Z"/><path class="c" d="M74.348,83.876c-.6,2.362.247,7.656,4.93,7.816,6.147-.422,6.044-6.881,3.772-9.778C81.19,79.542,76.137,78.826,74.348,83.876Z"/><path class="c" d="M123.418,80.717c.9,2.258.742,7.6-3.881,8.364-6.15.375-6.881-6.023-5-9.18C116.075,77.317,120.993,75.957,123.418,80.717Z"/><path class="c" d="M74.635,70.561a9.682,9.682,0,0,1-1,.883l.486-.376a13.145,13.145,0,0,1-2.861,1.721l.573-.242a4.761,4.761,0,0,1-.7.236,2.4,2.4,0,0,0-1.676,2.952,2.426,2.426,0,0,0,1.1,1.434,2.561,2.561,0,0,0,1.849.242,8.459,8.459,0,0,0,1.617-.631,12.624,12.624,0,0,0,1.283-.71,14.523,14.523,0,0,0,2.725-2.115,2.493,2.493,0,0,0,.7-1.7,2.443,2.443,0,0,0-.7-1.7,2.414,2.414,0,0,0-1.7-.7,2.473,2.473,0,0,0-1.7.7Z"/><path class="c" d="M83.779,118.3v2.963a2.477,2.477,0,0,0,.7,1.7,2.678,2.678,0,0,0,1.7.7,2.43,2.43,0,0,0,1.7-.7,2.493,2.493,0,0,0,.7-1.7V118.3a2.476,2.476,0,0,0-.7-1.7,2.677,2.677,0,0,0-1.7-.7,2.429,2.429,0,0,0-1.7.7,2.5,2.5,0,0,0-.7,1.7Z"/></svg>