<?xml version="1.0" encoding="utf-8"?>
<!-- Uploaded to: SVG Repo, www.svgrepo.com, Generator: SVG Repo Mixer Tools -->
<svg width="800px" height="800px" viewBox="0 -23.75 364.449 364.449" xmlns="http://www.w3.org/2000/svg"><defs><style>.a{fill:#b5886a;}.b{fill:#211715;}.c{fill:#f4b3b3;}.d{fill:#ffffff;}.e{fill:#ffda71;}</style></defs><path class="a" d="M304.992,17.02a64.668,64.668,0,0,0-6.464-5.032c-.151-.112-.3-.215-.466-.322a46.52,46.52,0,0,0-10.046-5.081,60.832,60.832,0,0,0-22.811-4.176,53.676,53.676,0,0,0-35.311,12.669c-13.04,11.506-20.862,27.516-18.853,53.663,2.811,19.631-3.457,40.8-1.992,56.982.426,4.856,2.846,10.7,9.569,15.317,0,0,21.768,7.671,46.361,7.671s49.687-9.092,49.687-9.092c10.482-3.887,10.655-10.483,10.738-14.321a40.456,40.456,0,0,0-2.064-13.911c-1.856-6.152-5.258-18.642-4.824-40.728h0c.788-6.374.494-15.634.35-19.194-.5-12.34-5.716-26.284-13.627-34.211-.075-.074-.162-.154-.251-.233"/><path class="b" d="M299.739,9.915c-5.851-4.175-13.071-6.841-20.059-8.38a65.545,65.545,0,0,0-23.846-.8,55.11,55.11,0,0,0-32.373,17.3C215.2,27.082,210.543,38.31,208.974,50.4a81.637,81.637,0,0,0-.645,10.839c.017,4.1.511,8.1.816,12.179.621,8.3-.1,16.631-.972,24.888-.808,7.672-1.857,15.382-1.741,23.113a30.613,30.613,0,0,0,1.218,9.317,23.172,23.172,0,0,0,5.131,8.485,29.492,29.492,0,0,0,4.626,3.894,2.423,2.423,0,0,0,3.284-.862,2.45,2.45,0,0,0-.861-3.283,20.7,20.7,0,0,1-6.527-7.15,17.874,17.874,0,0,1-1.953-7.383c-.468-7.182.362-14.4,1.13-21.536a206.355,206.355,0,0,0,1.692-23.87c-.036-3.98-.59-7.877-.839-11.836a94.639,94.639,0,0,1-.085-10.967c.6-11.378,3.943-22.641,10.945-31.661A50.264,50.264,0,0,1,251.147,6.609,58.382,58.382,0,0,1,292.4,11.116a43.468,43.468,0,0,1,4.912,2.944A2.42,2.42,0,0,0,300.6,13.2a2.453,2.453,0,0,0-.861-3.284Z"/><path class="b" d="M315.3,141.933c5.084-1.927,9.686-5,11.581-10.314,1.529-4.285,1.093-9.6.417-13.96-.654-4.224-2.142-8.254-3.156-12.4a104.569,104.569,0,0,1-2.254-12.5,162.1,162.1,0,0,1-.976-22.106l-1.762,2.314h0a2.531,2.531,0,0,0,1.762-2.314,108.483,108.483,0,0,0,.236-21.114,61.42,61.42,0,0,0-6.781-23.623,39.554,39.554,0,0,0-7.686-10.6c-2.26-2.1-5.662,1.285-3.394,3.394,5.309,4.938,8.659,12.16,10.744,18.987,2.031,6.652,2.53,13.346,2.6,20.255a98.969,98.969,0,0,1-.516,12.7l1.762-2.315,0,0a2.481,2.481,0,0,0-1.762,2.314,144.537,144.537,0,0,0,2.84,33.453c.684,3.136,1.6,6.192,2.472,9.276A38.745,38.745,0,0,1,323.006,123c.029,1.088.014,2.179-.029,3.266-.011.293-.026.586-.047.879-.014.184-.033.368-.048.552-.059.691.035-.1-.039.319a9.584,9.584,0,0,1-1.913,4.7,15.779,15.779,0,0,1-6.9,4.585,2.467,2.467,0,0,0-1.676,2.952,2.418,2.418,0,0,0,2.952,1.676Z"/><path class="c" d="M352.781,268.43a17.989,17.989,0,0,0,7.96-10.056,52.857,52.857,0,0,0,1.042-16.618c-4.223-28.222-7.112-45.777-14.223-71.555a77.322,77.322,0,0,0-11.777-23.778,47.259,47.259,0,0,0-9.03-8.816A68.992,68.992,0,0,0,311.4,129a1.991,1.991,0,0,0-1.589.015c-16.618,7.335-34.107,12.293-54.206,10.416-6.719-.628-15.7-3.5-20.792-9.342a1.987,1.987,0,0,0-2.218-.544c-3.712,1.44-7.26,2.934-10.894,4.549a38.6,38.6,0,0,0-8.71,5.54,27.874,27.874,0,0,0-8.34,12.58,165.851,165.851,0,0,0-6.75,25.678c-1.97,10.81-3.7,20.24-6.34,30.87l-.6,3.146c5.984.2,10.854.369,14.077.472A4.988,4.988,0,0,1,209.8,216.5q2.421,13.756,4.866,27.917c6-9.1,9.836-18.253,14.31-27.017,1.8,3.653,3.885,7.177,5.589,10.875a48.243,48.243,0,0,1,2.554,7.111c.131.46.285.91.457,1.356,1.115,2.888.958,7.8,3.161,13.016a105.383,105.383,0,0,1,9.473-5.457c4.07-2.07,8.63-3.91,13.08-2.95,5.68,1.23,8.434,3.739,14.074,5.119,4.122,1.015,6.362,0,9.926-.02,5,9.624,7.158,25.619,7.255,28.343,5.037-.074,28.5-.444,36.1-1.217,5.991-.61,12.136-.745,17.751-2.922A24.759,24.759,0,0,0,352.781,268.43Z"/><path class="d" d="M144.646,311.119c-18-.9-34.192-1.826-42.956-2.573a5,5,0,0,1-4.5-4.131c-6.14-35.246-10.985-63.255-15.567-90.069a4.988,4.988,0,0,1,5.036-5.833c25.369.607,99.66,3.267,118.376,3.865A4.988,4.988,0,0,1,209.8,216.5q2.421,13.763,4.868,27.929c6-9.108,9.833-18.262,14.309-27.028,1.8,3.652,3.885,7.176,5.588,10.874a48.243,48.243,0,0,1,2.554,7.111c.131.46.285.91.457,1.356,1.115,2.888.958,7.8,3.161,13.016q-2.495,1.61-4.9,3.363c-1.14.83-5.52,4.18-6.53,5.18a11.906,11.906,0,0,0-2.23,2.72c-.37.75-.9,2.84-.06,4.08a4.339,4.339,0,0,0,4.54,1.69l1.153-.243-.886,1.124a4.83,4.83,0,0,0-1.229,3.1,3.3,3.3,0,0,0,4.081,3.621,18.259,18.259,0,0,0,4.857-1.823,5.918,5.918,0,0,0-1.061,2.8,3.825,3.825,0,0,0,3.219,3.985c2.081.366,3.569-.616,5.355-1.747,5.492-3.477,10.793-7.485,16.3-10.909-3.324,4.247-4.6,7.663-7.606,12.269-.624.957-.92,3.411.345,4.484,1.924,1.633,4.285-.1,5-.675a85.2,85.2,0,0,0,10.649-9.97,15.175,15.175,0,0,0,11.675.05c1.6-.664,3.122-1.405,4.468-2.1,0,3.3,0,6.836,0,8.377-16.531,10.774-48.984,29.347-57.237,34.288a7.939,7.939,0,0,1-4.294,1.129C214.247,314.237,176.586,312.717,144.646,311.119Z"/><path class="b" d="M286.5,277.164c-14.451,9.393-29.421,18-44.3,26.693q-4.318,2.523-8.636,5.046c-2.334,1.368-4.708,3.289-7.51,3.234-4.558-.09-9.116-.286-13.671-.455q-21.993-.812-43.977-1.832c-15.586-.708-31.171-1.456-46.747-2.36-5.747-.334-11.494-.682-17.234-1.124a13.929,13.929,0,0,1-3.081-.32c-2.242-.718-2.1-3.791-2.43-5.689q-1.592-9.134-3.178-18.268-5.547-31.933-11.024-63.879-.288-1.689-.577-3.379a3.631,3.631,0,0,1,.158-2.6c.79-1.4,2.192-1.319,3.6-1.284q4.021.1,8.044.218,10.527.3,21.053.648,24.78.8,49.558,1.661,18.648.639,37.295,1.27c1.3.042,2.575.068,3.3,1.354a10.763,10.763,0,0,1,.748,3.357q.408,2.322.814,4.645,1.623,9.282,3.23,18.566,3.276,18.879,6.586,37.75,1.643,9.29,3.321,18.574a2.421,2.421,0,0,0,2.952,1.676,2.453,2.453,0,0,0,1.676-2.952c-4.655-25.714-9.034-51.476-13.543-77.216-.49-2.794-.6-5.926-2.6-8.127a7.98,7.98,0,0,0-5.934-2.41q-3.294-.1-6.587-.218-9.609-.324-19.218-.656-25.176-.865-50.353-1.707c-13.792-.455-27.6-1.082-41.4-1.259A7.543,7.543,0,0,0,80.4,209.4c-1.594,2.346-1.218,4.831-.769,7.455q1.314,7.684,2.634,15.369,2.779,16.176,5.58,32.348,3.126,18.046,6.269,36.091c.49,2.817.615,5.877,2.7,8.054,1.582,1.654,3.61,2.124,5.8,2.3,2.444.2,4.891.374,7.339.539,14.64.988,29.3,1.707,43.956,2.411q24.131,1.159,48.271,2.118,8.911.353,17.827.661c2.015.068,4.032.145,6.049.185,3.614.072,6.341-1.782,9.309-3.524,14.6-8.565,29.265-17.014,43.682-25.883,3.315-2.039,6.615-4.1,9.878-6.221,2.58-1.678.177-5.835-2.423-4.145Z"/><path class="b" d="M109.131,299.95c26.267,1.56,52.533,3.135,78.818,4.334q11.739.536,23.481.97c3.089.114,3.085-4.686,0-4.8-26.81-.989-53.6-2.434-80.381-4q-10.959-.644-21.918-1.3c-3.085-.184-3.075,4.617,0,4.8Z"/><path class="d" d="M240.44,127.736c2.112-.828,4.4-1.735,7.191-2.972A6.951,6.951,0,0,0,249.3,123.7a40.5,40.5,0,0,0,22.534-.451,43.867,43.867,0,0,0,16.967-10.27,53.222,53.222,0,0,0,4.171-4.224,63.89,63.89,0,0,0,4.122,10.484c.962,1.945,8.5,7.739,12.407,9.919-16.525,7.257-33.921,12.141-53.893,10.276-6.719-.628-15.7-3.5-20.792-9.342l-.056-.061c.05-.018.077-.03.077-.03C236.726,129.182,238.51,128.492,240.44,127.736Z"/><path class="d" d="M234.868,54.825c2.864-2.573,5.693-5.181,8.427-7.733-.213,3.112-.544,6.106-1.051,9.23a1.063,1.063,0,0,0,1.378,1.19c11.672-3.971,22.413-10.787,29.388-19.4A129.792,129.792,0,0,0,278.936,51.9c2.8,5.519,9.85,15.068,16.042,16.708,1.622.611,3.735,1.215,5.358,1.826,2.727-2.665,7.418-2.671,10.53-.466a11.747,11.747,0,0,1,4.517,10,19.4,19.4,0,0,1-4.062,10.514,27.979,27.979,0,0,1-11.743,9A54.327,54.327,0,0,1,288.8,112.974a43.867,43.867,0,0,1-16.967,10.27,40.5,40.5,0,0,1-22.534.451,39.953,39.953,0,0,1-11.273-4.891,38.679,38.679,0,0,1-10.242-10.046,52.5,52.5,0,0,1-7.835-15.532,72.7,72.7,0,0,1-3.236-15.562c-.347-3-.486-5.54-.543-7.375,1.088-.8,2.472-1.9,3.719-2.777C224.772,63.7,229.873,59.314,234.868,54.825Z"/><path class="b" d="M311.7,197.327q5.325,19.565,9.72,39.366c.669,3.014,5.3,1.739,4.628-1.276q-4.392-19.8-9.72-39.366c-.81-2.977-5.442-1.714-4.628,1.276Z"/><path class="b" d="M293.931,239.118c12.943,1.159,26.1-.249,39.037-.963,3.072-.17,3.091-4.971,0-4.8-12.933.714-26.094,2.122-39.037.963a2.418,2.418,0,0,0-2.4,2.4,2.45,2.45,0,0,0,2.4,2.4Z"/><path class="b" d="M220.141,181.653a35.106,35.106,0,0,1,.685,6.2c.187,2.311.319,4.626.477,6.94a83.21,83.21,0,0,0,1.785,13.656,55.056,55.056,0,0,0,5.151,12.779c2.079,3.952,4.313,7.829,5.73,12.082a50.748,50.748,0,0,1,1.954,6.648c.454,2.447.767,4.905,1.415,7.314.8,2.98,5.433,1.716,4.628-1.276-.581-2.163-.91-4.363-1.284-6.567a47.09,47.09,0,0,0-1.517-5.593,68.427,68.427,0,0,0-5.5-12.629,63.022,63.022,0,0,1-5.481-12.257,65.045,65.045,0,0,1-2.013-13.232c-.188-2.621-.329-5.246-.541-7.865a42.425,42.425,0,0,0-.856-7.474c-.792-2.982-5.424-1.717-4.629,1.276Z"/><path class="b" d="M226.691,216.6c-4.008,7.916-7.6,16.04-12.21,23.636-1.607,2.647,2.542,5.062,4.145,2.422,4.612-7.6,8.2-15.72,12.21-23.635,1.392-2.75-2.748-5.182-4.145-2.423Z"/><path class="b" d="M290.663,109.385a63.319,63.319,0,0,0,3.252,8.706,16.5,16.5,0,0,0,1.417,2.836,13.912,13.912,0,0,0,1.812,2.022,59.953,59.953,0,0,0,10.742,8.041c2.67,1.568,5.088-2.579,2.423-4.145A54.044,54.044,0,0,1,300.7,119.7a18.245,18.245,0,0,1-1.509-1.575c.16.19.244.4.084.077-.08-.161-.169-.319-.249-.481-.308-.625-.6-1.257-.889-1.892a55.192,55.192,0,0,1-2.84-7.722c-.836-2.968-5.468-1.707-4.629,1.276Z"/><path class="b" d="M236.049,132.07l.388-.167c.619-.264-.258.1.1-.042.255-.1.509-.211.763-.315q.855-.35,1.714-.687c1.152-.456,2.307-.9,3.459-1.36q2.067-.819,4.116-1.687a15.418,15.418,0,0,0,4.376-2.428,2.413,2.413,0,0,0,0-3.394,2.46,2.46,0,0,0-3.394,0c-.072.063-.289.239-.088.089-.13.1-.27.187-.409.272a8.779,8.779,0,0,1-1.048.516q-.5.22-1.01.438c-.2.088-.407.175-.61.261.223-.095-.076.031-.138.057q-1.836.765-3.687,1.491c-2.327.917-4.657,1.822-6.955,2.811a2.407,2.407,0,0,0-.861,3.284,2.476,2.476,0,0,0,3.284.861Z"/><path class="b" d="M302.033,72.133c2.087-1.937,5.548-1.713,7.718-.018,2.6,2.032,3.542,5.637,3.166,8.8-.925,7.772-7.764,13.533-14.5,16.473a2.415,2.415,0,0,0-.861,3.283,2.46,2.46,0,0,0,3.284.861c7.083-3.09,13.156-8.615,15.847-15.982,2.542-6.955.472-16.03-7.014-18.877a10.738,10.738,0,0,0-11.032,2.064c-2.27,2.106,1.13,5.494,3.394,3.395Z"/><path class="b" d="M213.774,70.46a83.669,83.669,0,0,0,4.905,26.372c3.117,8.314,8.22,16.447,15.279,21.978,13.866,10.865,34.228,11.4,48.921,1.88a58.865,58.865,0,0,0,18.793-20.032c1.536-2.686-2.61-5.107-4.145-2.423A54.939,54.939,0,0,1,282.819,114.9a38.47,38.47,0,0,1-23.27,7.778,38.084,38.084,0,0,1-20.243-5.9c-6.9-4.461-12.047-11.761-15.219-19.246a76.374,76.374,0,0,1-5.513-27.07c-.112-3.08-4.912-3.095-4.8,0Z"/><path class="b" d="M270.792,39.021c2.218,6.141,4.732,12.545,8.4,17.986,3.414,5.063,7.875,10.621,13.537,13.258a2.47,2.47,0,0,0,3.284-.861,2.42,2.42,0,0,0-.861-3.284c-5.042-2.347-8.992-7.281-12-11.816-3.346-5.041-5.684-10.893-7.729-16.56a2.463,2.463,0,0,0-2.952-1.676,2.422,2.422,0,0,0-1.677,2.953Z"/><path class="b" d="M271.3,36.426A54.569,54.569,0,0,1,258.684,47.6a70.666,70.666,0,0,1-7.648,4.3c-1.338.648-2.693,1.261-4.071,1.817a22.627,22.627,0,0,1-4.3,1.537h1.277q.653,2.011.736.968c.026-.163.05-.326.074-.49.061-.4.118-.811.174-1.217.117-.856.23-1.714.329-2.572.187-1.614.329-3.232.443-4.852.153-2.179-2.674-3.025-4.1-1.7-4.5,4.2-9.038,8.35-13.687,12.38A120.984,120.984,0,0,1,214.848,68.22c-2.583,1.673-.18,5.83,2.423,4.145a127.984,127.984,0,0,0,13.677-10.887c4.774-4.126,9.431-8.384,14.044-12.689l-4.1-1.7c-.18,2.546-.428,5.086-.811,7.61a5.179,5.179,0,0,0,.173,3.458,3.527,3.527,0,0,0,3.044,1.809,9.136,9.136,0,0,0,2.96-.855c1.062-.394,2.112-.815,3.156-1.253,2.01-.845,3.989-1.754,5.923-2.761A61.616,61.616,0,0,0,274.7,39.82a2.471,2.471,0,0,0,0-3.394,2.419,2.419,0,0,0-3.395,0Z"/><path class="d" d="M230.6,271.111c-.006-.117-.006-.232,0-.343a4.83,4.83,0,0,1,1.229-3.1l.886-1.124-1.153.243a4.339,4.339,0,0,1-4.54-1.69c-.84-1.24-.31-3.33.06-4.08a11.906,11.906,0,0,1,2.23-2.72c1.01-1,5.39-4.35,6.53-5.18a105.827,105.827,0,0,1,14.37-8.82c4.07-2.07,8.63-3.91,13.08-2.95,5.68,1.23,8.434,3.739,14.074,5.119,3.972.977,6.195.075,9.54-.013,3.278,6.316,5.336,15.376,6.39,21.627l-.693.207c-1.426.6-5.034,2.835-9.188,4.558a15.175,15.175,0,0,1-11.675-.05,85.279,85.279,0,0,1-10.649,9.97c-.712.572-3.073,2.308-5,.675-1.265-1.073-.969-3.527-.345-4.484,3-4.606,4.282-8.022,7.606-12.269-5.511,3.424-10.812,7.432-16.3,10.909-1.786,1.131-3.274,2.113-5.355,1.747a3.825,3.825,0,0,1-3.219-3.985,5.936,5.936,0,0,1,1.066-2.8l-1.652.768a10.962,10.962,0,0,1-3.21,1.063,3.975,3.975,0,0,1-3.219-.948A3.892,3.892,0,0,1,230.6,271.111Z"/><path class="b" d="M230.918,264.475a2.38,2.38,0,0,1-1.492-.273c-.667-.456-.483-1.209-.28-1.9.147-.5.058-.191,0-.072a4.154,4.154,0,0,1,.366-.62,9.84,9.84,0,0,1,1.023-1.148,19.735,19.735,0,0,1,1.556-1.42,103.143,103.143,0,0,1,9.461-6.963c4.53-2.958,9.449-6.078,14.624-7.759a13.116,13.116,0,0,1,7.763-.343,45.166,45.166,0,0,1,6.519,2.549,30.536,30.536,0,0,0,8.35,2.633c2.706.355,5.311-.194,8.009-.3,3.078-.123,3.094-4.924,0-4.8-2.557.1-5.133.735-7.691.332a31.587,31.587,0,0,1-7.912-2.761,31.683,31.683,0,0,0-8.155-2.746,18.66,18.66,0,0,0-9.422,1.256,81.435,81.435,0,0,0-17.156,9.582,63.524,63.524,0,0,0-9.34,7.347c-2.076,2.135-3.689,5.016-2.723,8.092,1.034,3.292,4.665,4.5,7.773,3.943a2.421,2.421,0,0,0,1.677-2.952,2.455,2.455,0,0,0-2.953-1.677Z"/><path class="b" d="M247.988,252.191a120.812,120.812,0,0,0-12.731,9.011c-3.5,2.778-8.323,6.483-6.787,11.627a5.393,5.393,0,0,0,4.238,3.839c2.283.427,4.339-.33,6.388-1.27a2.419,2.419,0,0,0,.861-3.283,2.455,2.455,0,0,0-3.283-.861,10.379,10.379,0,0,1-1.8.658,2.336,2.336,0,0,1-1.162.072c-.106-.024-.609-.228-.445-.146.135.069-.087-.1-.129-.183a2.007,2.007,0,0,1-.123-1.181c-.029.219.092-.338.121-.418-.057.161.213-.4.3-.527.133-.208.412-.806.652-.935-.142.076-.4.459-.1.147.1-.11.2-.226.305-.336.23-.244.47-.478.713-.708a81.452,81.452,0,0,1,9.722-7.605c1.859-1.307,3.742-2.586,5.69-3.756,2.645-1.59.234-5.742-2.423-4.145Z"/><path class="b" d="M255.834,257.151c-3.625,2.282-7.115,4.761-10.6,7.242-3.18,2.26-6.636,4.372-8.362,8.042-1.639,3.486-.4,7.64,3.4,9.007,4.079,1.468,7.849-1.628,11.032-3.757,4.171-2.79,8.237-5.736,12.474-8.43,2.6-1.653.194-5.809-2.423-4.145-3.98,2.531-7.81,5.284-11.717,7.922a37.658,37.658,0,0,1-5.858,3.7c-.917.392-2.258.447-2.734-.442-.535-1,.213-2.115.994-3.158a20.392,20.392,0,0,1,4.873-4.071c3.74-2.653,7.464-5.325,11.347-7.768,2.608-1.641.2-5.8-2.423-4.145Z"/><path class="b" d="M260.566,266.422a76.435,76.435,0,0,0-4.588,7.5c-1.366,2.406-3.384,4.691-3.151,7.63a5.241,5.241,0,0,0,2.265,4.126,5.408,5.408,0,0,0,4.688.529,10.547,10.547,0,0,0,3.245-1.942q1.862-1.5,3.658-3.08a81.663,81.663,0,0,0,7.2-7.2,2.458,2.458,0,0,0,0-3.394,2.425,2.425,0,0,0-3.395,0q-2.568,2.913-5.4,5.572-1.471,1.376-3.007,2.681-.74.633-1.492,1.251-.414.342-.833.68a2.525,2.525,0,0,1-.364.293c.151-.077.475-.337.129-.1a11.743,11.743,0,0,1-1.007.612c-.357.191.2-.006-.21.07-.142.026-.279.079-.422.1.335-.055.086.044-.019-.028.023.016.528.193-.033-.007-.012,0-.339-.15-.158-.055.274.144-.152-.28.115.146-.148-.235-.132-.451-.087-.115a2.341,2.341,0,0,1-.076-.284q-.054-.266.007.147l-.014-.2c0-.2,0-.4.007-.6.008-.453.014-.031-.01.063.023-.09.033-.182.06-.271s.054-.172.072-.256c.085-.4-.013.039-.065.122.163-.261.32-.525.485-.785.709-1.114,1.378-2.253,2.028-3.4a74.545,74.545,0,0,1,4.521-7.384,2.418,2.418,0,0,0-.861-3.284,2.455,2.455,0,0,0-3.284.861Z"/><path class="b" d="M272.512,275.635a18.273,18.273,0,0,0,12.611-.927c2.98-1.282,5.718-3.059,8.686-4.346a2.417,2.417,0,0,0,.861-3.284,2.463,2.463,0,0,0-3.284-.861c-2.636,1.144-5.08,2.721-7.7,3.911a13.767,13.767,0,0,1-9.9.878c-2.966-.884-4.234,3.747-1.276,4.629Z"/><path class="b" d="M193.878,209.4c1.836-7.417,3.373-14.9,4.782-22.406,1.406-7.491,2.694-14.99,4.662-22.36q1.47-5.5,3.332-10.887a31.959,31.959,0,0,1,4.3-8.542c4.139-5.629,10.774-8.619,17.023-11.227,1.6-.667,3.225-1.264,4.815-1.946.334-.143.71-.161.269-.307.141.047.434.481.538.592a20.711,20.711,0,0,0,1.841,1.726,30.983,30.983,0,0,0,7.778,4.673c5.869,2.494,12.053,3.3,18.389,3.479,14.069.391,27.957-2.624,41.046-7.642q2.166-.831,4.307-1.725,1.262-.525,2.517-1.066c1.031-.444.957-.591,1.947-.155a78.893,78.893,0,0,1,9.489,4.882,47.6,47.6,0,0,1,14.521,13.518,74.217,74.217,0,0,1,8.827,17.668c2.162,6.3,3.626,12.911,5.172,19.384,2.987,12.509,5.319,25.153,7.35,37.849q.835,5.225,1.626,10.455a81.583,81.583,0,0,1,1.212,9.273,58.447,58.447,0,0,1-.368,8.551,19.358,19.358,0,0,1-1.81,7.019c-2.881,5.381-8.677,8.292-14.432,9.52a93.977,93.977,0,0,1-11.025,1.32c-1.895.175-3.786.342-5.686.45-9.239.524-18.5.674-27.754.834q-2,.035-4,.064l2.4,2.4a69.453,69.453,0,0,0-1.495-10.352,82.013,82.013,0,0,0-4.353-15.38,31.724,31.724,0,0,0-4.035-7.479,2.481,2.481,0,0,0-3.284-.861,2.415,2.415,0,0,0-.861,3.283c3.83,4.963,5.566,11.424,6.984,17.438q1.017,4.311,1.7,8.694.135.873.256,1.749c-.085-.617.027.21.041.322.028.228.056.457.082.686.072.631.142,1.265.168,1.9a2.438,2.438,0,0,0,2.4,2.4c8.764-.129,17.53-.3,26.288-.643,4.64-.182,9.242-.539,13.867-.943,7.139-.622,14.486-1.548,20.444-5.887a21.533,21.533,0,0,0,6.448-7.092,23.838,23.838,0,0,0,2.338-8.4,60.365,60.365,0,0,0,.513-8.933,76.136,76.136,0,0,0-1.194-9.835c-2.045-13.509-4.2-27.007-7.073-40.37q-2.15-10.01-4.78-19.908a97.417,97.417,0,0,0-7.095-19.536,57.42,57.42,0,0,0-12.123-16.653,67.13,67.13,0,0,0-18.738-11.709,5.1,5.1,0,0,0-5.607,0q-2.423,1.056-4.88,2.03c-3.268,1.294-6.58,2.479-9.938,3.519a100.357,100.357,0,0,1-20.712,4.233c-6.762.6-13.981.793-20.648-.673a34.787,34.787,0,0,1-8.374-2.911,26.727,26.727,0,0,1-3.779-2.31c-1.206-.9-2.129-2.036-3.24-3.023-1.544-1.369-3.381-1.279-5.186-.57q-2.922,1.149-5.811,2.377A56.355,56.355,0,0,0,215.2,135a33.323,33.323,0,0,0-7.906,7.141,34.153,34.153,0,0,0-4.817,9.058c-5.443,14.828-7.436,30.47-10.687,45.845q-1.176,5.56-2.539,11.08c-.742,3,3.885,4.278,4.628,1.276Z"/><path class="d" d="M45.732,27.094C19.287,36.305,2.368,61.169,2.368,89.259c0,41.175,25.672,67.2,66.37,67.2,13,0,24.346-2.537,33.809-7.269,6.736,2.757,11.821,4.713,20.54,7.889-2.194-8.29-3.253-12.507-5.171-19.175,11.153-11.639,17.191-28.286,17.191-48.645,0-35.8-27.274-65.959-66.379-65.959A69.686,69.686,0,0,0,45.732,27.094Z"/><path class="b" d="M45.094,24.779A67.1,67.1,0,0,0,9.653,53.63C1.551,67.239-1.169,83.086.444,98.731c1.409,13.666,6.018,26.921,14.835,37.6,8.343,10.1,20.08,16.877,32.711,20.069a85.747,85.747,0,0,0,22.364,2.451,80.017,80.017,0,0,0,27.4-4.949q3.06-1.179,6-2.635l-1.85.242c6.791,2.778,13.647,5.377,20.54,7.89,1.775.647,3.39-1.3,2.952-2.953-1.693-6.4-3.343-12.811-5.17-19.175l-.618,2.335c8.648-9.082,14-20.739,16.315-33,2.318-12.282,2.282-25.218-1.253-37.266a67.881,67.881,0,0,0-16.286-28.067,66.869,66.869,0,0,0-28.156-17.2,73.889,73.889,0,0,0-39.949-.866c-1.751.454-3.48.983-5.19,1.572-2.9,1-1.655,5.639,1.276,4.629a69.079,69.079,0,0,1,41.945-.9,62.034,62.034,0,0,1,28.714,18.356,63.53,63.53,0,0,1,14.569,30.2,74.5,74.5,0,0,1,.859,19.237,75.374,75.374,0,0,1-4.33,20.609,56.111,56.111,0,0,1-9.153,16.194q-.714.87-1.464,1.708a9.383,9.383,0,0,0-1.787,2.167c-.444,1.01.026,2.07.307,3.061q.375,1.317.74,2.637c.856,3.091,1.673,6.192,2.489,9.294q.754,2.873,1.514,5.746l2.952-2.952c-4.475-1.631-8.943-3.284-13.38-5.019q-2.879-1.125-5.74-2.291a11.916,11.916,0,0,0-1.42-.58,3.225,3.225,0,0,0-2.358.494c-.958.467-1.927.914-2.91,1.325a74.99,74.99,0,0,1-28.253,5.361c-14.254.133-28.611-3.049-40.379-11.268-10.818-7.555-18.219-19.1-21.742-31.845C3.414,96,3.65,79.542,9.35,65.048A62.279,62.279,0,0,1,40.964,31.587c1.765-.82,3.571-1.534,5.406-2.179a2.461,2.461,0,0,0,1.677-2.952A2.423,2.423,0,0,0,45.094,24.779Z"/><path class="e" d="M90.272,71.676c-14.453,0-39.189.048-50.235.035,2.325,8.2,5.9,20.86,8.514,29.97,11.086-.03,38.486-.107,44.8-.122A2.011,2.011,0,0,0,95.311,100c1.167-5.023,4.528-19.631,5.933-25.848a2.017,2.017,0,0,0-1.961-2.461C97.354,71.68,94.191,71.676,90.272,71.676Z"/><path class="b" d="M47.859,74.093c14.859.222,29.733-.022,44.594-.017q2.41,0,4.82.007a6.3,6.3,0,0,0,1.859.006c.347-.142-.056.148-.079-.062L98.9,73.8q.066-.53-.022-.073a4.968,4.968,0,0,0-.314,1.384Q96.945,82.252,95.3,89.39q-.775,3.372-1.554,6.744l-.579,2.5c-.045.192-.373,1.029-.048.6.278-.368.285.06.084-.074-.1-.069-.523,0-.653,0q-5.571.015-11.144.038c-8.114.031-16.227.085-24.341.087-3.089,0-3.094,4.8,0,4.8,7.467,0,14.935-.051,22.4-.079q6.182-.024,12.362-.044A10.328,10.328,0,0,0,94.5,103.8a4.584,4.584,0,0,0,3.207-3.512c.5-1.979.921-3.981,1.38-5.971q1.787-7.756,3.56-15.518c.524-2.294,1.761-5.272.375-7.431-1.411-2.2-3.827-2.081-6.124-2.086-8.6-.021-17.209,0-25.814.016-7.739.012-15.485.111-23.224,0-3.09-.046-3.091,4.754,0,4.8Z"/><path class="b" d="M54.9,88.476c9.9,0,19.808-.05,29.713-.078q2.264-.006,4.528-.011c3.089,0,3.094-4.8,0-4.8-9.531,0-19.062.055-28.593.078q-2.825.007-5.648.011c-3.089,0-3.094,4.8,0,4.8Z"/><path class="b" d="M60.811,79.327c.536,4.838.931,9.7,1.558,14.524a2.465,2.465,0,0,0,2.4,2.4c1.162-.052,2.573-1.067,2.4-2.4-.627-4.828-1.022-9.686-1.558-14.524a2.457,2.457,0,0,0-2.4-2.4,2.425,2.425,0,0,0-2.4,2.4Z"/><path class="b" d="M78.677,79.327c-.4,4.985-.819,9.971-1.154,14.962a2.414,2.414,0,0,0,2.4,2.4,2.457,2.457,0,0,0,2.4-2.4c.335-4.991.754-9.977,1.154-14.962a2.41,2.41,0,0,0-2.4-2.4,2.461,2.461,0,0,0-2.4,2.4Z"/><path class="b" d="M31.058,66.247q1.794,0,3.589.008a6.332,6.332,0,0,0,1.633,0c-.221.3-.394-.687-.293-.007a27.008,27.008,0,0,0,.921,3.229q1.328,4.668,2.647,9.338,3.142,11.1,6.3,22.184,1.224,4.272,2.468,8.539c.42,1.429.72,3.025,1.846,4.084,1.328,1.249,3,1.2,4.681,1.207l19.63.035q8.9.016,17.8.028c3.088,0,3.093-4.8,0-4.8q-17.839,0-35.678-.059a17.871,17.871,0,0,0-3.163-.006c-.712.135.44-.013.138.329.04-.045-.135-.449-.158-.527q-.234-.783-.464-1.567c-.849-2.887-1.678-5.78-2.506-8.673q-3.2-11.158-6.345-22.328-1.429-5.047-2.863-10.1c-.424-1.489-.708-3.212-1.8-4.369-1.143-1.208-2.651-1.339-4.211-1.342-1.39,0-2.78-.009-4.17-.01-3.089,0-3.094,4.8,0,4.8Z"/><path class="b" d="M58.267,118.309a4.916,4.916,0,0,1,5.014,4.983,4.7,4.7,0,0,1-5.014,5.077c-3.146,0-5.014-1.967-5.014-5.077A4.912,4.912,0,0,1,58.267,118.309Z"/><path class="b" d="M86.9,118.309a4.917,4.917,0,0,1,5.014,4.983,4.7,4.7,0,0,1-5.015,5.077c-3.146,0-5.014-1.967-5.014-5.077A4.912,4.912,0,0,1,86.9,118.309Z"/><path class="b" d="M250.108,87.028a23.918,23.918,0,0,0-.86,2.517c-.419,1.424-.923,3.214.269,4.419a3.934,3.934,0,0,0,.88.637,4.248,4.248,0,0,0,1.035.4,7.256,7.256,0,0,0,1.479.1,2.466,2.466,0,0,0,1.7-.7,2.4,2.4,0,0,0,0-3.394,2.517,2.517,0,0,0-1.7-.7,6.152,6.152,0,0,1-.78,0l.638.085a1.9,1.9,0,0,1-.384-.107l.574.242a2.589,2.589,0,0,1-.516-.308l.486.375a.077.077,0,0,1-.018-.018l.376.486a.372.372,0,0,1-.022-.038l.242.573a.414.414,0,0,1-.021-.091l.085.638a1.7,1.7,0,0,1,.015-.377l-.085.638a13.392,13.392,0,0,1,.583-2.251c.2-.619.4-1.244.652-1.844a2.4,2.4,0,0,0-.242-1.849,2.4,2.4,0,0,0-3.283-.861l-.486.375a2.4,2.4,0,0,0-.617,1.059Z"/><path class="b" d="M232.141,76.492c-.68,2.131-.376,7.068,3.507,7.563,5.145.068,5.55-5.887,3.88-8.723C238.161,73.01,234.012,71.975,232.141,76.492Z"/><path class="b" d="M276.3,76.672c.643,2.253.087,7.393-4.163,7.743-5.6-.149-5.773-6.381-3.826-9.269C269.9,72.781,274.465,71.878,276.3,76.672Z"/><path class="b" d="M247.92,108.285a17.794,17.794,0,0,0,7.348.672,20.728,20.728,0,0,0,7.884-2.246,2.421,2.421,0,0,0,.861-3.283,2.451,2.451,0,0,0-3.284-.861c-.219.118-.44.233-.666.34-.006,0-.551.25-.238.113.28-.122-.111.042-.162.062a16.884,16.884,0,0,1-1.608.529q-.837.233-1.693.387c-.135.025-.27.048-.406.071-.052.008-.491.078-.19.033s-.138.016-.191.022c-.17.019-.34.037-.511.052a19.727,19.727,0,0,1-3.288.026c-.158-.013-.316-.03-.474-.044-.418-.04.08.025.084.015a5.017,5.017,0,0,1-.714-.122,11.551,11.551,0,0,1-1.476-.395,2.418,2.418,0,0,0-2.952,1.677,2.457,2.457,0,0,0,1.676,2.952Z"/></svg>