<?xml version="1.0" encoding="utf-8"?>
<!-- Uploaded to: SVG Repo, www.svgrepo.com, Generator: SVG Repo Mixer Tools -->
<svg width="800px" height="800px" viewBox="0 -69.42 424.846 424.846" xmlns="http://www.w3.org/2000/svg"><defs><style>.a{fill:#ffffff;}.b{fill:#957f6e;}.c{fill:#211715;}.d{fill:#bdbdbd;}.e{fill:#7a7473;}.f{fill:#5394cf;}</style></defs><path class="a" d="M314.92,165.156c-1.637-.336-3.2-.7-4.615-1.08-12.755-3.655-14.192-10.874-14.192-10.874.769-.262,13.391-6.165,13.655-6.261,3.99-1.441,3.833-4.006,4.336-6.876a54.262,54.262,0,0,0,.821-6.893,40.345,40.345,0,0,1-13.456-10.885,42.693,42.693,0,0,1-8.257-16.424l-.465.118c-2.484.621-4.44-.629-5.825-1.734a15.833,15.833,0,0,1-4.094-5.373,24.907,24.907,0,0,1-2.54-13.2,8.321,8.321,0,0,1,.87-3.344,5.883,5.883,0,0,1,4.228-2.811,6.206,6.206,0,0,1,4.722,1.253c2.845-1.145,11.418-5.086,13.672-6.419a88.809,88.809,0,0,0,15.149-11l4.849,1.91c10.487-3.4,22.265-10.653,27.558-17.123,1.118,6.01,2.841,11.967,8.866,20.519,3,4.256,7.384,9.6,13.554,12.509a6.144,6.144,0,0,1,5.161-1.644,5.881,5.881,0,0,1,4.227,2.811,8.322,8.322,0,0,1,.871,3.344,24.926,24.926,0,0,1-2.54,13.2,15.846,15.846,0,0,1-4.1,5.373c-1.353,1.079-3.726,1.078-5.514,1.336-.435,1.857-1.014,3.471-1.274,4.262-1.425,3.865-9.432,17.628-19.477,22.557a57.842,57.842,0,0,0,.845,7.663c.5,2.87.346,5.435,4.336,6.876.264.1,11.582,5.48,11.986,5.646a39.5,39.5,0,0,1-16.158,10.89c-6.251,2.486-15.355,3.5-21.754,3.482A83.6,83.6,0,0,1,314.92,165.156Z"/><path class="b" d="M392.126,124.494c-2.1-6.068-6.157-18.4-6.45-40.426.583-6.667-.023-16.3-.287-20-.913-12.832-6.65-27.161-14.906-35.126-3.287-3.171-4.426-4.785-7.62-6.667l-7.373-3.727a59.94,59.94,0,0,0-23.966-4.59c-16.51,0-31.2,8.5-37.726,14.748-10.818,10.357-17.68,29.275-16.815,55.361,0,17.681-1.445,30.434-3.474,37.68a84.789,84.789,0,0,0-2.609,18.26c-.074,8.245,8.858,17.287,22.029,14.492l3.629-.068a6.23,6.23,0,0,1-.445-1.23c.769-.262,13.391-6.165,13.655-6.261,3.99-1.441,3.833-4.006,4.336-6.876a54.262,54.262,0,0,0,.821-6.893,40.345,40.345,0,0,1-13.456-10.885,42.687,42.687,0,0,1-8.257-16.424l-.465.118c-2.484.621-4.44-.629-5.825-1.734a15.843,15.843,0,0,1-4.094-5.373,24.907,24.907,0,0,1-2.54-13.2,8.306,8.306,0,0,1,.871-3.344,5.879,5.879,0,0,1,4.227-2.811,6.206,6.206,0,0,1,4.722,1.253c2.845-1.145,11.418-5.086,13.672-6.419a88.809,88.809,0,0,0,15.149-11l4.849,1.91c10.487-3.4,22.265-10.653,27.558-17.123,1.118,6.01,2.841,11.967,8.866,20.518,3,4.257,7.384,9.6,13.554,12.51a6.144,6.144,0,0,1,5.161-1.644,5.881,5.881,0,0,1,4.227,2.811,8.288,8.288,0,0,1,.87,3.344,24.909,24.909,0,0,1-2.54,13.2,15.83,15.83,0,0,1-4.094,5.373c-1.353,1.079-3.726,1.078-5.514,1.336-.435,1.857-1.014,3.471-1.274,4.262-1.425,3.865-9.432,17.628-19.477,22.557a57.842,57.842,0,0,0,.845,7.663c.5,2.87.346,5.435,4.336,6.876.264.1,11.582,5.48,11.986,5.646,0,0-.155.189-.429.5l4.866-.092c11.78,4.225,22.027-6.451,21.953-14.7A40.331,40.331,0,0,0,392.126,124.494Z"/><path class="c" d="M375.632,82.669a3.688,3.688,0,0,1,5.562,1.09,10.533,10.533,0,0,1,.507,4.313,21.626,21.626,0,0,1-.54,4.57,20.566,20.566,0,0,1-3.494,7.9,5.39,5.39,0,0,1-2.714,2.2,34.794,34.794,0,0,1-3.85.544,2.415,2.415,0,0,0-1.676,2.953,2.463,2.463,0,0,0,2.952,1.676,17.877,17.877,0,0,0,5.389-1.11,11.919,11.919,0,0,0,4.153-3.992,25.82,25.82,0,0,0,4.337-11.587c.52-3.954.664-9.108-2.572-12a8.689,8.689,0,0,0-11.449.051,2.42,2.42,0,0,0,0,3.394,2.452,2.452,0,0,0,3.395,0Z"/><path class="c" d="M370.035,101.647a20.882,20.882,0,0,1-1,5.228c-.2.655-.411,1.305-.632,1.952-.078.23-.485,1.21-.174.519a45.264,45.264,0,0,1-2.755,5.108,50.91,50.91,0,0,1-10.916,12.888,20.1,20.1,0,0,1-8.071,4.175c-3.007.7-1.734,5.327,1.276,4.628,6.318-1.466,11.582-6.061,15.711-10.859a56.493,56.493,0,0,0,8.779-13.244,28.3,28.3,0,0,0,2.581-10.395c.112-3.089-4.688-3.085-4.8,0Z"/><path class="c" d="M292.065,79.275a8.687,8.687,0,0,0-11.449-.051c-3.374,3.017-3.087,8.453-2.5,12.539,1.032,7.167,6.3,18.409,15.267,16.532,3.022-.632,1.743-5.26-1.276-4.628-2.239.468-4.371-1.637-5.582-3.276a21.075,21.075,0,0,1-3.48-8.178,21.563,21.563,0,0,1-.449-4.359,9.749,9.749,0,0,1,.571-4.207,3.692,3.692,0,0,1,5.5-.978,2.465,2.465,0,0,0,3.394,0,2.42,2.42,0,0,0,0-3.394Z"/><path class="c" d="M289.081,96.57a59.954,59.954,0,0,0,4.89,18.337,44.637,44.637,0,0,0,16,18.256,29.958,29.958,0,0,0,11.707,4.573,2.48,2.48,0,0,0,2.953-1.676,2.419,2.419,0,0,0-1.677-2.953c-6.989-1.046-12.89-5.068-17.666-10.122a41.257,41.257,0,0,1-9.917-18.334c-.386-1.5-.707-3.016-.973-4.542q-.185-1.056-.336-2.117c-.018-.122-.035-.245-.052-.368-.057-.411.042.324-.01-.069-.043-.328-.083-.657-.124-.985a2.475,2.475,0,0,0-2.4-2.4,2.415,2.415,0,0,0-2.4,2.4Z"/><path class="c" d="M356.128,16.235a64.07,64.07,0,0,0-26.8-4.626,61,61,0,0,0-26.758,7.875,47.746,47.746,0,0,0-15.514,13.36,60.539,60.539,0,0,0-9.2,19.852,105.884,105.884,0,0,0-3.269,31.372c.1,3.081,4.9,3.095,4.8,0-.5-15.794,1.432-32.858,10.183-46.431a40.721,40.721,0,0,1,12.886-12.511,56.966,56.966,0,0,1,23.836-8.487,59.619,59.619,0,0,1,28.564,4.225,2.417,2.417,0,0,0,2.953-1.677,2.46,2.46,0,0,0-1.677-2.952Z"/><path class="c" d="M388.076,84.068A109.168,109.168,0,0,0,388.138,70a96.715,96.715,0,0,0-1.163-12.417,60.174,60.174,0,0,0-11.708-26.924,73.581,73.581,0,0,0-5.476-5.791,29.317,29.317,0,0,0-5.717-4.664c-2.655-1.593-5.072,2.556-2.423,4.145A22.974,22.974,0,0,1,366.143,28c1.576,1.585,3.225,3.112,4.692,4.8a46.457,46.457,0,0,1,6.981,11.252,61.292,61.292,0,0,1,4.271,13.424,78.53,78.53,0,0,1,1.2,11.481,113.148,113.148,0,0,1-.012,15.106,2.419,2.419,0,0,0,2.4,2.4,2.45,2.45,0,0,0,2.4-2.4Z"/><path class="c" d="M274.583,84.068c0,7.293-.221,14.6-.89,21.861a89.69,89.69,0,0,1-2.273,14.345,89.112,89.112,0,0,0-2.866,18,17.138,17.138,0,0,0,5.433,13.755c5.31,4.936,12.632,6.2,19.58,4.788a2.4,2.4,0,0,0-1.276-4.629c-5.1,1.039-10.729.2-14.69-3.352A13.306,13.306,0,0,1,274,143.755a13.924,13.924,0,0,1-.595-6.332,91.25,91.25,0,0,1,2.758-16.308A98.105,98.105,0,0,0,278.391,107c.752-7.616.988-15.279.992-22.929,0-3.089-4.8-3.094-4.8,0Z"/><path class="c" d="M383.276,84.068c.171,11.7,1.348,23.518,4.549,34.808,1.164,4.106,2.814,8.083,3.706,12.261a33,33,0,0,1,.663,4.869,17.655,17.655,0,0,1-.08,4.018,13.436,13.436,0,0,1-2.946,5.96c-3.968,4.709-9.91,6.734-15.812,4.692-2.925-1.013-4.182,3.623-1.276,4.628a18.572,18.572,0,0,0,17.883-3.389,18.358,18.358,0,0,0,7.083-14.782,42.944,42.944,0,0,0-1.948-11.276c-.571-1.838-1.236-3.646-1.814-5.481a103.922,103.922,0,0,1-3.145-12.865,144.549,144.549,0,0,1-2.063-23.443c-.045-3.086-4.845-3.095-4.8,0Z"/><path class="c" d="M312.487,133.837a53.609,53.609,0,0,1-.665,5.4,32.05,32.05,0,0,1-.593,3.318c-.046.161-.326.824-.1.361-.1.212-.222.409-.342.612-.178.3.247-.254,0,.009-.074.078-.144.16-.221.236a3.852,3.852,0,0,1-.335.3c.261-.2-.123.061-.221.117-.585.336-1.186.551-1.825.842-3.162,1.438-6.3,2.924-9.459,4.376q-1.222.563-2.449,1.118c-.291.132-.583.26-.875.391-.571.257.585-.216.074-.033a2.463,2.463,0,0,0-1.676,2.952,2.422,2.422,0,0,0,2.952,1.677c1.279-.458,2.516-1.1,3.749-1.663q2.911-1.337,5.815-2.687,2.145-.995,4.292-1.986a3.461,3.461,0,0,0,.345-.156s-.893.358-.4.174c.243-.09.481-.193.719-.3a9.05,9.05,0,0,0,1.27-.632,7.506,7.506,0,0,0,3.053-3.686,17.552,17.552,0,0,0,.783-3.663c.389-2.354.744-4.705.907-7.086a2.4,2.4,0,0,0-4.8,0Z"/><path class="c" d="M348.73,132.779a74.1,74.1,0,0,0,1.284,10.215,8.059,8.059,0,0,0,5.338,6.146c.843.335-.636-.313-.037-.023.21.1.424.2.635.3q1,.469,2,.943,2.709,1.278,5.414,2.561c1.232.583,2.453,1.208,3.707,1.743a2.481,2.481,0,0,0,3.283-.861,2.417,2.417,0,0,0-.861-3.284c-2.658-1.133-5.245-2.471-7.857-3.707-1.267-.6-2.53-1.212-3.807-1.793a16.219,16.219,0,0,1-1.92-.909c.006,0-.337-.236-.166-.1s-.172-.161-.207-.194c-.082-.076-.158-.158-.234-.24.062.066.235.365-.016-.021-.113-.173-.208-.354-.307-.536.23.421-.074-.217-.122-.379a31.919,31.919,0,0,1-.68-3.779,54.286,54.286,0,0,1-.647-6.075,2.452,2.452,0,0,0-2.4-2.4,2.422,2.422,0,0,0-2.4,2.4Z"/><path class="c" d="M310.887,84.135c-.678,2.2-.236,7.278,3.942,7.71,5.522-.033,5.816-6.166,3.957-9.05C317.264,80.434,312.789,79.452,310.887,84.135Z"/><path class="c" d="M355.106,84.135c.679,2.206.236,7.279-3.941,7.71-5.522-.033-5.816-6.166-3.958-9.05C348.729,80.434,353.2,79.452,355.106,84.135Z"/><path class="c" d="M363.714,99.508a73.149,73.149,0,0,1,11.235-16.514,2.4,2.4,0,0,0-3.394-3.394,77.618,77.618,0,0,0-11.986,17.485,2.457,2.457,0,0,0,.861,3.284,2.424,2.424,0,0,0,3.284-.861Z"/><path class="c" d="M289.385,82.834a50.134,50.134,0,0,1,3.661,3.9c1.246,1.451,2.7,3.259,3.658,4.517,2.093,2.737,4.142,5.533,5.965,8.459a2.4,2.4,0,1,0,4.145-2.423c-1.868-3-3.97-5.861-6.12-8.66a75.381,75.381,0,0,0-7.915-9.185,2.4,2.4,0,0,0-3.394,3.394Z"/><path class="a" d="M332.927,95.507a213.192,213.192,0,0,0-23.578,1.987c-1.238.169-4.3.449-5.1,1.358-1.5,1.691-.931,5.3-1.125,7.349a52.366,52.366,0,0,0,.292,9.836c.449,4.323.667,8.929,3.63,12.3,5.477,6.233,18.17,9.552,26.509,9.552a50.432,50.432,0,0,0,16.316-2.955c4.548-1.63,8.8-4.365,11.179-8.3,2.244-3.708,2.156-7.425,2.638-11.649a43.806,43.806,0,0,0,.173-8.947c-.206-2.045.316-5.386-1.2-7.1-.807-.909-3.329-1.277-4.568-1.439A224.06,224.06,0,0,0,332.927,95.507Z"/><path class="c" d="M332.927,93.107a166.139,166.139,0,0,0-18.307,1.33c-3.019.344-5.487.565-8.315,1.085a8.125,8.125,0,0,0-3.134,1.126,5.871,5.871,0,0,0-2.2,4.094,30.568,30.568,0,0,0-.2,4.321c-.017,1.561-.192,3.109-.173,4.674A88.47,88.47,0,0,0,301.439,120c.44,3.378,1.247,6.678,3.4,9.406a21.225,21.225,0,0,0,6.2,5.081c10.992,6.291,24.613,7.179,36.62,3.682,6.249-1.82,12.752-5.068,15.893-11.09,1.622-3.109,2-6.51,2.321-9.951a61.709,61.709,0,0,0,.424-10.68c-.25-3.09.4-6.991-2.1-9.358-2.235-2.114-6.382-2.037-9.231-2.375a191.35,191.35,0,0,0-22.034-1.611c-3.089-.007-3.093,4.793,0,4.8a174.859,174.859,0,0,1,17.492,1.108c2.705.279,6.024.6,8.229.984a12.585,12.585,0,0,1,1.709.389c-.073-.023.424.138.271.073.167.072.52.458.33.181a5.8,5.8,0,0,1,.429,2.749c.055,2.875.312,5.728.151,8.607a64.692,64.692,0,0,1-.973,9.162c-1.16,5.7-5.718,9.364-10.968,11.326a44.27,44.27,0,0,1-32.621-.407c-4.316-1.794-8.794-4.46-10.136-9.221a46.036,46.036,0,0,1-1.179-8.362,79.472,79.472,0,0,1-.1-9.13,32.4,32.4,0,0,1,.081-3.675c.053-.381.283-.959.3-1.142l-.18.121c.235-.121.264-.146.085-.076.325-.094.642-.2.973-.285a64.385,64.385,0,0,1,7.422-1.028,167.386,167.386,0,0,1,18.685-1.374C336.015,97.9,336.021,93.1,332.927,93.107Z"/><path class="c" d="M325.168,52.41c-4.6,7.048-11.2,12.56-18.192,17.128a74.086,74.086,0,0,1-8.525,4.838q-2.381,1.143-4.789,2.234-1.119.508-2.244,1.007c-.328.144-.657.289-.986.431-.083.036-.974.414-.477.2a2.481,2.481,0,0,0-1.676,2.952,2.415,2.415,0,0,0,2.952,1.677,126.386,126.386,0,0,0,13.56-6.346A83.415,83.415,0,0,0,321.8,63.924a53.753,53.753,0,0,0,7.513-9.091c1.692-2.595-2.462-5-4.145-2.423Z"/><path class="c" d="M349.5,46.6a46.584,46.584,0,0,1-11.334,9.248,70.675,70.675,0,0,1-15.023,7.087c-2.922.958-1.671,5.6,1.276,4.629A76.1,76.1,0,0,0,340.585,60a50.765,50.765,0,0,0,12.306-10,2.464,2.464,0,0,0,0-3.394,2.421,2.421,0,0,0-3.394,0Z"/><path class="c" d="M374.542,78.88c-6.034-3.057-10.393-8.407-13.992-14a47.143,47.143,0,0,1-6.727-16.462A2.4,2.4,0,0,0,349.2,49.7a51.125,51.125,0,0,0,7.459,17.992c3.987,6.1,8.85,11.986,15.465,15.338,2.749,1.393,5.182-2.747,2.423-4.145Z"/><path class="d" d="M247.2,234.167c-1.961,14.613-4.059,31.014-6.3,48.278a1,1,0,0,0,.983,1.132c23.465,0,153.278-.03,179.417-.03a1,1,0,0,0,.982-1.133c-6.111-46.731-11.164-87.732-15.221-103.187-1.22-4.69-3.15-8.76-5.47-10.61-2.34-1.87-6.2-3.1-8.88-4.39-7.558-3.659-17.434-8.1-24.024-11.977a57.83,57.83,0,0,0-5.787-4.993s-3.337-2.26-3.886-2.644c-3.874,15.871-10.5,33.7-16.049,49.175-4.2,11.71-7.337,20.147-11.6,32.063-3.889-10.758-8.2-22.069-12.03-32.753-5.534-15.427-11.459-33.094-16.6-48.4l-.069.049-3.976,2.693a45.405,45.405,0,0,0-6.766,6.263c-6.416,3.509-14.813,7.316-21.441,10.52-2.68,1.29-6.54,2.52-8.88,4.39-2.32,1.85-4.25,5.92-5.47,10.61C253.559,189.018,250.583,208.924,247.2,234.167Z"/><path class="a" d="M336.923,210.474c1.933-5.311,3.842-10.549,6.043-16.686,3.494-9.738,7.412-20.409,10.8-30.936a16.121,16.121,0,0,1-2.015.625c-6.25,2.486-15.355,3.5-21.753,3.482a87.972,87.972,0,0,1-20.066-2.883l-.364-.089c3.251,10.172,6.943,20.451,10.3,29.8l11.5,32.052C333.394,220.174,335.168,215.294,336.923,210.474Z"/><path class="c" d="M309.667,166.39a81.47,81.47,0,0,0,21.912,2.96c7.074-.118,14.554-.97,21.183-3.558a2.472,2.472,0,0,0,1.676-2.953,2.417,2.417,0,0,0-2.952-1.676c-6.263,2.446-13.222,3.275-19.907,3.387a76.437,76.437,0,0,1-20.636-2.789c-2.99-.79-4.265,3.839-1.276,4.629Z"/><path class="c" d="M321.046,235.452a5.345,5.345,0,0,1,.639.681l-.375-.486a4.513,4.513,0,0,1,.517.876l-.242-.573a4.311,4.311,0,0,1,.293,1.057l-.086-.638a4.652,4.652,0,0,1,0,1.179l.086-.638a5.18,5.18,0,0,1-.34,1.244l.242-.574a4.221,4.221,0,0,1-.5.88l.375-.486a3.664,3.664,0,0,1-.656.649l.486-.375a4.457,4.457,0,0,1-.932.532l.574-.242a5.259,5.259,0,0,1-1.212.325l.638-.085a5.584,5.584,0,0,1-1.415,0l.638.086a4.856,4.856,0,0,1-1.161-.309l.573.242a3.831,3.831,0,0,1-.791-.453l.486.375a4.707,4.707,0,0,1-.771-.768l.376.486a4.032,4.032,0,0,1-.515-.881l.242.573a3.8,3.8,0,0,1-.223-.832l.086.638a4.064,4.064,0,0,1,0-1.01l-.085.638a4.966,4.966,0,0,1,.345-1.231l-.242.573a6.378,6.378,0,0,1,.8-1.34l-.375.485a3.921,3.921,0,0,1,.619-.636l-.485.376a4.123,4.123,0,0,1,.851-.5l-.573.242a4.941,4.941,0,0,1,1.247-.337l-.638.086a5,5,0,0,1,1.229,0l-.638-.086a4.423,4.423,0,0,1,1.012.27l-.573-.242a3.814,3.814,0,0,1,.826.482l-.485-.375c.046.037.091.074.135.113a2.554,2.554,0,0,0,1.7.7,2.439,2.439,0,0,0,1.7-.7,2.412,2.412,0,0,0,.7-1.7,2.374,2.374,0,0,0-.7-1.7,6.519,6.519,0,0,0-4.2-1.609,6.838,6.838,0,0,0-3.783,1.035,7.252,7.252,0,0,0-3.054,7.345,6.343,6.343,0,0,0,2.626,3.708,7.051,7.051,0,0,0,9.753-2.24,7.045,7.045,0,0,0,.826-3.767,7.168,7.168,0,0,0-.714-2.591,6.322,6.322,0,0,0-1.457-1.881,2.526,2.526,0,0,0-1.7-.7,2.4,2.4,0,0,0-1.7,4.1Z"/><path class="c" d="M329.775,228.493a29.74,29.74,0,0,1,2.334,10.9c-.014,2.96-.244,5.926-.428,8.878-.412,6.594-.926,13.166-1.622,19.736-.514,4.855-1.056,9.707-1.6,14.558a2.414,2.414,0,0,0,2.4,2.4,2.457,2.457,0,0,0,2.4-2.4c.879-7.858,1.857-15.72,2.483-23.6.5-6.36,1.056-12.768,1.161-19.148a33.421,33.421,0,0,0-2.5-12.6,2.468,2.468,0,0,0-2.952-1.676,2.419,2.419,0,0,0-1.677,2.952Z"/><path class="c" d="M367.47,154.319c9.256,5.42,19.207,9.709,28.964,14.121,1.992.9,3.9,1.863,5.136,3.724a24.738,24.738,0,0,1,3.061,7.263c.717,2.629,1.274,5.3,1.8,7.975,3.54,17.957,5.746,36.2,8.144,54.336,1.842,13.933,3.633,27.873,5.457,41.809l2.4-2.4q-12.645,0-25.289,0l-40.826.007-46.348.009-41.423.007-26.113,0h-1.678l2.4,2.4c2.907-22.428,5.7-44.874,8.909-67.262,1.158-8.084,2.361-16.167,3.806-24.206.531-2.953,1.095-5.9,1.75-8.831.81-3.616,1.691-7.315,3.623-10.517a10.658,10.658,0,0,1,5.149-4.155c2.626-1.218,5.3-2.315,7.914-3.561,5.716-2.723,11.469-5.378,17.075-8.326,2.735-1.439.311-5.583-2.423-4.145-5.1,2.681-10.318,5.119-15.52,7.588-2.344,1.111-4.669,2.245-7.059,3.252a24.01,24.01,0,0,0-6.693,3.685c-3.488,3.048-5.051,8.162-6.128,12.5-.666,2.68-1.218,5.388-1.736,8.1-3.448,18.069-5.7,36.383-8.108,54.612q-2.722,20.628-5.359,41.269a2.419,2.419,0,0,0,2.4,2.4l23.721,0,40.025-.007,46.3-.009,42.136-.008q13.789,0,27.58,0h1.913a2.411,2.411,0,0,0,2.4-2.4c-3.1-23.669-6.037-47.362-9.456-70.987-1.2-8.275-2.435-16.552-3.994-24.768-.531-2.8-1.1-5.6-1.791-8.363-1.148-4.584-2.866-9.907-6.788-12.885-2.369-1.8-5.216-2.752-7.909-3.945-2.781-1.23-5.5-2.61-8.25-3.913-5.654-2.683-11.346-5.347-16.751-8.512-2.671-1.564-5.09,2.583-2.423,4.145Z"/><path class="c" d="M356.618,144.311c-2.645,10.7-6.135,21.166-9.782,31.555-3.633,10.348-7.383,20.657-11.133,30.962q-3.149,8.652-6.272,17.312a2.424,2.424,0,0,0,1.676,2.953,2.45,2.45,0,0,0,2.953-1.677c7.435-20.719,15.4-41.292,22.128-62.256,1.863-5.8,3.6-11.654,5.059-17.573.741-3-3.887-4.278-4.629-1.276Z"/><path class="c" d="M346.892,221.32q7.9-11.3,15.265-22.962,3.7-5.87,7.25-11.827,1.774-2.975,3.511-5.972c1.1-1.891,2.321-3.77,3.271-5.738,1.387-2.873-.59-4.82-2.528-6.724-1.816-1.784-3.7-3.5-5.594-5.2l-.486,3.769c1.707-1.013,3.389-2.073,5.131-3.027,1.551-.848,3.668-1.483,3.758-3.59.072-1.7-1.322-3.562-2.256-4.91a33.66,33.66,0,0,0-3.222-3.964,63.728,63.728,0,0,0-10.855-8.685c-2.564-1.737-4.968,2.42-2.422,4.145l2.5,1.691c.439.3.879.593,1.317.892.344.235-.223-.18.193.136.513.388,1.012.8,1.509,1.205a45.212,45.212,0,0,1,4.9,4.59,23.991,23.991,0,0,1,1.935,2.413q.5.72.944,1.473.2.338.388.679c.076.139.272.764.268.335l.328-1.212-.142.224.861-.861a35.7,35.7,0,0,1-3.595,1.955c-1.332.771-2.64,1.581-3.963,2.367a2.421,2.421,0,0,0-.486,3.769c1.549,1.392,3.092,2.791,4.6,4.231q1.085,1.038,2.138,2.107c.112.114.334.439.48.493.645.242-.183-.55.061-.518a8.461,8.461,0,0,0-.8,1.389q-3.186,5.607-6.5,11.139-6.582,10.986-13.66,21.666-4.044,6.1-8.243,12.1a2.422,2.422,0,0,0,.861,3.284,2.451,2.451,0,0,0,3.284-.861Z"/><path class="c" d="M391.01,282.555c-.96-8.555-2.093-17.1-2.86-25.673a48.023,48.023,0,0,1-.278-7.262c.172-2.769.556-5.663.917-8.232,1.947-13.843,4.847-27.523,7.014-41.329.724-4.607,1.417-9.218,2.195-13.816a73.328,73.328,0,0,1,1.9-9.2c.9-2.961-3.727-4.227-4.628-1.276a65.554,65.554,0,0,0-1.689,7.945c-.692,3.978-1.3,7.97-1.923,11.959q-1.77,11.353-3.879,22.636c-1.216,6.538-2.342,13.1-3.314,19.674-.808,5.466-1.711,10.975-1.313,16.511.674,9.38,2.006,18.717,3.055,28.059a2.471,2.471,0,0,0,2.4,2.4,2.415,2.415,0,0,0,2.4-2.4Z"/><path class="c" d="M262.5,176.9a65.546,65.546,0,0,1,1.682,7.888c.68,3.89,1.281,7.794,1.891,11.7,1.19,7.616,2.472,15.2,3.893,22.781,1.218,6.491,2.338,13,3.313,19.533.765,5.127,1.594,10.368,1.211,15.7-.674,9.385-2.006,18.729-3.055,28.077a2.414,2.414,0,0,0,2.4,2.4,2.457,2.457,0,0,0,2.4-2.4c.966-8.611,2.108-17.209,2.873-25.841a47.1,47.1,0,0,0,.252-7.309c-.2-3.018-.617-6.023-1.035-9.016-1.95-13.977-4.887-27.786-7.079-41.724-.723-4.592-1.417-9.189-2.194-13.773a74.277,74.277,0,0,0-1.923-9.289c-.9-2.946-5.535-1.69-4.629,1.276Z"/><path class="c" d="M300.476,145.518c7.229,21.507,14.533,42.978,22.421,64.255,2.313,6.239,4.631,12.476,6.88,18.739a2.462,2.462,0,0,0,2.952,1.676,2.421,2.421,0,0,0,1.676-2.952c-3.963-11.037-8.144-21.994-12.127-33.024-3.843-10.641-7.509-21.345-11.139-32.059q-3.032-8.952-6.035-17.911c-.979-2.913-5.616-1.664-4.628,1.276Z"/><path class="c" d="M318.985,219.355q-14.759-21.09-27.575-43.451a19.08,19.08,0,0,0-1.627-2.84c.241-.033-.582.758.061.518.2-.077.484-.5.641-.657q.649-.657,1.311-1.3c1.714-1.668,3.485-3.276,5.263-4.874a2.422,2.422,0,0,0-.485-3.77c-1.323-.785-2.632-1.6-3.964-2.367a35.5,35.5,0,0,1-3.6-1.955l.861.861-.141-.223.327,1.211c0,.362.071-.013.173-.164.144-.214.252-.464.38-.689q.437-.765.922-1.5a25.824,25.824,0,0,1,1.869-2.508,41.42,41.42,0,0,1,4.96-4.88,26.941,26.941,0,0,1,2.912-2.182l2.595-1.758c2.544-1.723.144-5.884-2.422-4.145a56.706,56.706,0,0,0-10.783,8.82,35.955,35.955,0,0,0-3.168,4.066c-.879,1.322-2.233,3.137-2.236,4.772,0,2.231,2.131,2.872,3.756,3.762,1.742.954,3.424,2.013,5.131,3.027l-.486-3.77c-1.664,1.5-3.321,3-4.931,4.553-1.485,1.433-3.767,3.126-3.723,5.412a6.78,6.78,0,0,0,1.191,3.14q.823,1.452,1.657,2.9,1.727,3,3.49,5.983,7.007,11.844,14.588,23.335,4.359,6.61,8.9,13.1a2.464,2.464,0,0,0,3.283.861,2.421,2.421,0,0,0,.861-3.284Z"/><path class="a" d="M156.383,79.219a8.872,8.872,0,0,0-.93-3.572,6.28,6.28,0,0,0-4.515-3c-.011,0-.023,0-.034,0v0a6.587,6.587,0,0,0-2.143.046c-.04.007-.079.02-.119.028-.193.039-.387.082-.575.138-.078.022-.151.054-.228.079-.149.05-.3.1-.444.157-.109.046-.213.1-.319.153s-.216.1-.319.152c-.141.078-.274.167-.408.254-.062.04-.128.075-.188.117a5.879,5.879,0,0,0-.544.434s0-.033.007-.091c-.766.488-1.1.364-1.133.02-.049-.53-.109-1.07-.191-1.6a42.962,42.962,0,0,0-1.038-4.659A54.993,54.993,0,0,0,137.714,55.6c-3.523-5.855-7.828-10.415-14.831-12.022l-16.357,1.066a19.771,19.771,0,0,0-15.472-.482c-3.523,1.4-6.688,3.87-10.509,4.158-3.44.259-7.309-1.235-10.129.616a8.345,8.345,0,0,0-2.3,2.606,66.6,66.6,0,0,0-3.592,6.3Q63.72,59.45,63,61.11c-.452,1.045-1.216,2.532-1.7,3.569a52.686,52.686,0,0,1-3.067,6.507c-.667,1.1-1.327,4.11-2.718,2.8,0,.136.007.211.007.211A6.653,6.653,0,0,0,50.2,72.645a6.459,6.459,0,0,0-1.02.249,6.152,6.152,0,0,0-3.5,2.753,8.872,8.872,0,0,0-.93,3.572,26.619,26.619,0,0,0,2.713,14.1,16.925,16.925,0,0,0,4.373,5.739c1.479,1.18,3.334,2.476,5.763,1.822l1.007-.213a52.236,52.236,0,0,0,9.608,17.66,46.562,46.562,0,0,0,10.773,9.653,58.1,58.1,0,0,1-.783,6.041c-.527,2.987-.359,5.655-4.512,7.156-.16.056-4.609,2.133-8.5,3.922,0,0,5.615,23.021,34.06,23.021s39.5-22.174,39.5-22.174c-3.554-1.685-9.912-4.7-10.112-4.769-4.153-1.5-3.993-4.169-4.512-7.156-.352-2.016-.616-4.04-.766-6.068,9.719-6.007,17.26-19.063,18.68-22.916a47.964,47.964,0,0,0,1.467-4.987l.671.2a5.1,5.1,0,0,0,5.113-1.2,16.925,16.925,0,0,0,4.373-5.739A26.619,26.619,0,0,0,156.383,79.219Z"/><path class="e" d="M145.732,74.044c-.848.575-1.208.447-1.242.087-.049-.53-.109-1.07-.191-1.6a42.962,42.962,0,0,0-1.038-4.659A54.993,54.993,0,0,0,137.714,55.6c-3.523-5.855-7.828-10.415-14.831-12.022l-16.357,1.066a19.771,19.771,0,0,0-15.472-.482c-3.523,1.4-6.688,3.87-10.509,4.158-3.44.259-7.309-1.235-10.129.616a8.352,8.352,0,0,0-2.3,2.6,66.738,66.738,0,0,0-3.592,6.3Q63.72,59.45,63,61.11c-.452,1.045-1.216,2.532-1.7,3.569a52.865,52.865,0,0,1-3.068,6.507c-.678,1.117-1.348,4.226-2.789,2.743l.078.273A6.653,6.653,0,0,0,50.2,72.645a6.463,6.463,0,0,0-1.137.278c-4-8.634-3.97-24.069-1.127-34.719,2.76-10.339,9.239-20.372,18.423-24.564l8.234-5.631c8.02-6.934,31.876-6.438,40.06-3.515C122.458,7.283,128.4,12.225,131.241,18l6.332,5.6c6.9,3.785,10.3,10.339,12.525,16.018,3.231,8.255,4.13,22.1.8,33.024a6.633,6.633,0,0,0-5.287,1.558Z"/><path class="c" d="M66.406,147.176q3.43-1.579,6.855-3.171c.528-.243,1.082-.459,1.595-.731-1.165.617.025.006.29-.106.335-.142.669-.284.989-.457a8.732,8.732,0,0,0,1.6-1.13,8.613,8.613,0,0,0,2.542-5.36c.426-2.743.9-5.471,1.112-8.242a2.421,2.421,0,0,0-2.4-2.4,2.447,2.447,0,0,0-2.4,2.4c-.18,2.358-.576,4.622-.94,6.966a12.545,12.545,0,0,1-.551,2.329c.2-.558.013-.053-.059.077-.034.062-.417.629-.217.369s-.284.28-.329.33c-.312.348.278-.139-.177.153a32.447,32.447,0,0,1-3.851,1.831q-3.24,1.5-6.481,3a2.419,2.419,0,0,0-.861,3.284,2.458,2.458,0,0,0,3.284.861Z"/><path class="c" d="M120.965,127.963a80.811,80.811,0,0,0,1.237,9.108,7.946,7.946,0,0,0,4.423,5.852c.167.079,1.328.394,1.381.573,0,.007-.8-.361-.395-.163.209.1.422.195.633.294q1.34.625,2.676,1.259,3.315,1.565,6.625,3.136a2.466,2.466,0,0,0,3.283-.861,2.418,2.418,0,0,0-.861-3.283c-3.359-1.593-6.7-3.259-10.1-4.763a11.328,11.328,0,0,1-1.516-.7c-.137-.082-.271-.168-.4-.26q.274.225-.036-.038c-.148-.146-.291-.288-.433-.441.368.4-.11-.185-.177-.306s-.118-.222-.171-.336q.157.389.064.141a10.288,10.288,0,0,1-.37-1.38,69.577,69.577,0,0,1-1.065-7.832,2.46,2.46,0,0,0-2.4-2.4,2.419,2.419,0,0,0-2.4,2.4Z"/><path class="c" d="M147.313,75.9a4.166,4.166,0,0,1,5.882.652,7.4,7.4,0,0,1,.868,3.983,23.221,23.221,0,0,1-.3,4.827,24.172,24.172,0,0,1-3.239,8.672c-1.19,1.9-3.179,4.591-5.7,3.911-2.986-.8-4.26,3.825-1.276,4.628,4.548,1.225,8.089-1.76,10.569-5.277a27.808,27.808,0,0,0,4.56-12.6c.491-4.044.552-9.368-2.8-12.276a9.106,9.106,0,0,0-11.955.086,2.42,2.42,0,0,0,0,3.394,2.451,2.451,0,0,0,3.394,0Z"/><path class="c" d="M141.614,96.285a22.6,22.6,0,0,1-1.112,5.756c-.2.662-.418,1.32-.641,1.975-.063.184-.13.367-.192.551-.208.616.095-.182-.04.107a53.683,53.683,0,0,1-2.952,5.446,54.413,54.413,0,0,1-11.684,13.761,21.577,21.577,0,0,1-8.649,4.466c-3.008.7-1.735,5.326,1.276,4.628,6.7-1.551,12.281-6.423,16.663-11.5a60.363,60.363,0,0,0,9.365-14.095,29.981,29.981,0,0,0,2.766-11.09c.111-3.089-4.689-3.085-4.8,0Z"/><path class="c" d="M57.215,72.505a9.11,9.11,0,0,0-12.1.034c-3.353,3.088-3.144,8.549-2.59,12.693a27.256,27.256,0,0,0,4.726,12.39c2.55,3.483,6.42,6.608,10.983,5.576,3.012-.681,1.737-5.31-1.276-4.629-2.416.547-4.84-2.266-6.027-4.029a23.664,23.664,0,0,1-3.487-8.747,23.12,23.12,0,0,1-.391-4.6,9.327,9.327,0,0,1,.7-4.334,4.12,4.12,0,0,1,6.068-.959,2.464,2.464,0,0,0,3.394,0,2.42,2.42,0,0,0,0-3.394Z"/><path class="c" d="M54.2,91.668c1.891,15.2,10.422,30.091,23.511,38.349a31.693,31.693,0,0,0,12.135,4.657A2.478,2.478,0,0,0,92.8,133a2.417,2.417,0,0,0-1.676-2.952c-7.267-1.085-13.458-5.187-18.494-10.385a49.949,49.949,0,0,1-11.638-19.4q-.76-2.359-1.3-4.781-.242-1.084-.435-2.179-.087-.5-.164-1c-.019-.12-.036-.24-.054-.36A1.506,1.506,0,0,1,59,91.668a2.477,2.477,0,0,0-2.4-2.4,2.413,2.413,0,0,0-2.4,2.4Z"/><path class="c" d="M78.327,78.457c-.714,2.321-.249,7.658,4.146,8.112,5.81-.035,6.119-6.488,4.163-9.521C85.035,74.564,80.327,73.53,78.327,78.457Z"/><path class="c" d="M124.656,78.458c.715,2.32.249,7.657-4.146,8.111-5.809-.035-6.119-6.488-4.163-9.522C117.948,74.563,122.656,73.53,124.656,78.458Z"/><path class="c" d="M133.864,95.1c1.654-3.263,3.5-6.432,5.468-9.516A68.318,68.318,0,0,1,146.8,75.6c2.1-2.258-1.283-5.66-3.394-3.394-5.558,5.964-10.009,13.214-13.686,20.465a2.458,2.458,0,0,0,.861,3.284,2.425,2.425,0,0,0,3.284-.861Z"/><path class="c" d="M54.655,76.434c5.163,5.579,9.167,12.31,13.054,18.864,1.575,2.655,5.726.243,4.145-2.423-4.087-6.891-8.342-13.932-13.8-19.835-2.1-2.273-5.491,1.128-3.394,3.394Z"/><path class="a" d="M100.449,90.572c-6.79,0-17.928,1.309-25.659,2.435-1.348.2-4.685.489-5.564,1.48C67.591,96.33,68.211,100.264,68,102.5a57.2,57.2,0,0,0,.317,10.722c.49,4.711.728,9.733,3.958,13.408,5.97,6.8,19.806,10.412,28.9,10.412a54.989,54.989,0,0,0,17.786-3.22c4.956-1.777,9.591-4.759,12.185-9.045,2.446-4.041,2.35-8.093,2.875-12.7a47.794,47.794,0,0,0,.189-9.753c-.224-2.229.345-5.87-1.311-7.736-.879-.99-3.629-1.386-4.979-1.568C119.424,91.881,107.994,90.572,100.449,90.572Z"/><path class="c" d="M100.449,88.172A162.766,162.766,0,0,0,80.32,89.851q-2.565.328-5.126.691l-1.042.15c.5-.071-.323.042-.461.06-.781.1-1.564.2-2.338.352a6.987,6.987,0,0,0-3.914,1.8,7.747,7.747,0,0,0-1.693,4.593c-.157,1.485-.043,2.973-.111,4.46-.083,1.818-.208,3.609-.149,5.432A103.692,103.692,0,0,0,66.5,118.414a18.618,18.618,0,0,0,4.076,9.911,24.31,24.31,0,0,0,6.76,5.158c12.041,6.554,26.6,7.428,39.6,3.525,6.749-2.026,13.823-5.686,16.995-12.349,1.639-3.443,1.962-7.135,2.315-10.88a67.622,67.622,0,0,0,.351-11.592c-.226-2.976.3-6.275-1.626-8.821-1.884-2.488-5.7-2.571-8.535-2.942-7.111-.932-14.256-1.771-21.422-2.126-1.52-.075-3.04-.122-4.562-.126-3.089-.007-3.093,4.793,0,4.8a171.727,171.727,0,0,1,19.008,1.393c2.957.339,6.065.662,8.893,1.127.874.143,2.353.238,2.976.86-.255-.255.157.663.189.789a9.263,9.263,0,0,1,.209,2.035c.083,3.084.342,6.165.191,9.252a77.147,77.147,0,0,1-1,9.963c-1.145,6.262-5.772,10.37-11.49,12.694a48.264,48.264,0,0,1-35.785.068c-4.577-1.792-9.864-4.642-11.535-9.593a40.636,40.636,0,0,1-1.467-9.093,64.062,64.062,0,0,1-.221-10.234c.086-1.408-.039-2.823.08-4.231.044-.53.286-1.147.317-1.588,0,.051.31-.567-.066-.119.143-.171.265-.16.646-.274a54.3,54.3,0,0,1,8.534-1.32,164.38,164.38,0,0,1,20.518-1.729C103.537,92.964,103.543,88.164,100.449,88.172Z"/><path class="a" d="M103.669,147.917c-1.969.006-3.65.01-5.671.011-.7.692-1.647,1.646-2.834,2.948-2.781,3.053-6.04,6.129-8.342,8.88a83.542,83.542,0,0,1-12.916-20.451l-1.3-1.435c4.022,17.243,11.168,35.857,16.833,52.632,4.3,12.741,7.655,21.2,12.724,33.77l11.4-33.77c5.665-16.775,12.811-35.389,16.833-52.632l-1.106,1.435a83.542,83.542,0,0,1-12.916,20.451c-2.3-2.751-5.561-5.827-8.342-8.88-1.2-1.312-2.151-2.271-2.85-2.964Z"/><path class="f" d="M107.205,209.354q2.711-8.028,5.422-16.056c-2.146-14.35-4.417-29.344-4.4-30.138a15.62,15.62,0,0,1,1-4.541c.6-1.844.97-3.458,1.363-5.043-.867-.9-1.729-1.8-2.55-2.7-1.2-1.312-2.151-2.271-2.85-2.96-2.68,0-4.671.011-7.191.012-.7.691-1.647,1.646-2.834,2.948-.635.7-1.3,1.4-1.963,2.092.469,2.437.8,3.977,1.317,6.2.083.39.181.766.278,1.156a10.7,10.7,0,0,1,.418,2.563c0,.5-2.438,18.29-4.144,32.367,3.571,10.251,6.684,18.079,11.1,29.023Q104.686,216.813,107.205,209.354Z"/><path class="a" d="M116.381,159.756A83.542,83.542,0,0,0,129.3,139.305c-1.6-3.09-2.679-5.092-5.405-7.6-3.116,4.19-10.232,9.422-18.761,12.853a4.826,4.826,0,0,0-1.658.938c-.2.38.193.714.38,1.013.293.469,1.734,1.674,4.186,4.365C110.82,153.929,114.078,157.005,116.381,159.756Z"/><path class="a" d="M86.822,159.756a83.542,83.542,0,0,1-12.916-20.451c1.6-3.09,2.679-5.092,5.4-7.6,3.117,4.19,10.233,9.422,18.762,12.853a4.836,4.836,0,0,1,1.658.938c.2.38-.193.714-.38,1.013-.293.469-1.734,1.674-4.186,4.365C92.383,153.929,89.124,157.005,86.822,159.756Z"/><path class="d" d="M200.019,273.443q.423,5.005.824,10.115c-18.2,0-184.709.021-198.5.021,3.98-50.75,9.75-94.771,14.46-110.491,1.44-4.82,3.61-7.71,6.02-9.63s6.41-3.21,9.19-4.55c9.05-4.37,20.85-9.24,30.12-13.1l1.595-.664a48.715,48.715,0,0,1,8.882-7.274c4.022,17.243,11.168,35.857,16.833,52.632,4.3,12.741,7.655,21.2,12.724,33.769l11.4-33.769c5.665-16.775,12.811-35.389,16.833-52.632a48.7,48.7,0,0,1,8.772,7.156c1.179.495,1.868.782,1.868.782,9.27,3.86,21.08,8.73,30.13,13.1,2.78,1.34,6.78,2.62,9.19,4.55s4.57,4.81,6.02,9.63C190.777,187.744,196.094,227.039,200.019,273.443Z"/><path class="c" d="M95.806,165.163c4.012,0,8.023-.088,12.035-.09a2.4,2.4,0,1,0,0-4.8c-4.012,0-8.023.089-12.035.09a2.4,2.4,0,1,0,0,4.8Z"/><path class="c" d="M91.075,154.577c.453,2.28.984,4.537,1.511,6.8a5.96,5.96,0,0,1,.153,2.193c-.27,2.242-.578,4.481-.873,6.721-1.056,8.026-2.109,16.053-3.09,24.088a2.412,2.412,0,0,0,2.4,2.4,2.459,2.459,0,0,0,2.4-2.4c.994-8.137,2.061-16.266,3.13-24.394.286-2.172.59-4.344.846-6.52a9.775,9.775,0,0,0-.338-3.364c-.526-2.263-1.058-4.52-1.51-6.8a2.424,2.424,0,0,0-2.952-1.676,2.449,2.449,0,0,0-1.677,2.952Z"/><path class="c" d="M114.939,192.65c-1.144-7.651-2.3-15.3-3.423-22.953q-.282-1.928-.557-3.857-.092-.648-.18-1.3c-.068-.494.057.472-.029-.218-.017-.137-.035-.273-.051-.41-.323-2.68,1.143-5.454,1.789-8.015.756-3-3.872-4.275-4.629-1.276-.74,2.933-2.331,6.093-1.975,9.173.253,2.182.592,4.356.909,6.529,1.148,7.87,2.342,15.733,3.518,23.6a2.416,2.416,0,0,0,2.952,1.676,2.46,2.46,0,0,0,1.676-2.952Z"/><path class="c" d="M98.7,227.06a45.61,45.61,0,0,0-2.2,10.978,58.592,58.592,0,0,0,.283,7.879c.489,7.285.783,14.579,1.234,21.865q.488,7.9,1.106,15.786a2.461,2.461,0,0,0,2.4,2.4,2.419,2.419,0,0,0,2.4-2.4c-.669-8.61-1.255-17.229-1.662-25.855-.267-5.668-.857-11.34-1.019-17.01a36.869,36.869,0,0,1,2.086-12.367c.958-2.944-3.676-4.206-4.629-1.276Z"/><path class="c" d="M128.089,137.232a347.24,347.24,0,0,1-10.538,34.48Q111.545,189,105.692,206.341L98.7,227.055c-.991,2.933,3.644,4.192,4.628,1.276q6.2-18.36,12.4-36.72c3.8-11.261,7.915-22.418,11.534-33.741,2.042-6.388,3.925-12.831,5.458-19.362.705-3.005-3.922-4.287-4.629-1.276Z"/><path class="c" d="M129.192,139.942a43.948,43.948,0,0,1,7.94,6.433,46.7,46.7,0,0,1,3.585,3.961q.682.859,1.292,1.772c.241.36.473.724.692,1.1.1.175.444,1.1.421.582l.328-1.211c.216-.4.256-.234-.184-.025-.3.141-.581.321-.869.479l-1.955,1.079-3.693,2.037a2.418,2.418,0,0,0-.485,3.769c1.722,1.56,3.437,3.128,5.1,4.747.777.756,1.536,1.529,2.3,2.3.745.757.331.4.277.266-.125-.314.115-.431-.265.138-.329.493-.569,1.071-.848,1.592q-3.261,6.1-6.637,12.134-6.9,12.372-14.123,24.565-3.989,6.777-8.027,13.522c-1.588,2.658,2.56,5.075,4.145,2.423,10.2-17.064,20.433-34.182,29.635-51.813a5.02,5.02,0,0,0,.615-4.2,9.33,9.33,0,0,0-2.513-3.182c-2.025-2.029-4.139-3.967-6.263-5.891l-.486,3.769,4.779-2.636c1.42-.783,3.408-1.491,3.886-3.229.408-1.486-.562-2.979-1.324-4.187A36,36,0,0,0,144,146.8a49.723,49.723,0,0,0-12.38-11c-2.641-1.619-5.055,2.531-2.423,4.144Z"/><path class="c" d="M70.3,138.508a347.24,347.24,0,0,0,10.538,34.48c3.839,11.052,7.509,22.177,11.624,33.13,2.24,5.962,4.608,11.875,6.988,17.782a2.475,2.475,0,0,0,2.952,1.676,2.416,2.416,0,0,0,1.676-2.952c-4.241-10.526-8.354-21.09-12-31.838-3.874-11.4-8.022-22.718-11.688-34.192-2.041-6.389-3.925-12.831-5.458-19.362-.705-3.006-5.334-1.734-4.628,1.276Z"/><path class="c" d="M71.4,135.8a49.723,49.723,0,0,0-12.38,11,36.427,36.427,0,0,0-2.43,3.3c-.754,1.179-1.672,2.55-1.455,4,.282,1.9,2.231,2.612,3.712,3.429l5,2.755-.486-3.769c-1.952,1.768-3.9,3.547-5.769,5.4-2.026,2-4.176,4.036-2.787,7.087,2,4.39,4.624,8.591,7,12.784,5.105,9,10.423,17.875,15.817,26.7q4.455,7.292,8.972,14.545c1.626,2.619,5.78.212,4.144-2.422-10.124-16.305-20.215-32.661-29.392-49.523q-.918-1.686-1.82-3.379c-.2-.383-.247-.964-.492-.418.26-.58,1.166-1.2,1.619-1.655,1.975-1.97,4.032-3.855,6.1-5.727a2.419,2.419,0,0,0-.486-3.769l-3.692-2.037-1.738-.959-.869-.479-.434-.24q-.462-.3.033.145l.327,1.211c-.023.52.318-.407.421-.582q.288-.486.6-.957c.433-.657.893-1.3,1.384-1.911a47.182,47.182,0,0,1,3.585-3.961,43.913,43.913,0,0,1,7.94-6.433c2.629-1.611.221-5.764-2.423-4.144Z"/><path class="c" d="M118.078,161.453a89.322,89.322,0,0,0,10.52-15.319q1.068-2,2.041-4.057a9.108,9.108,0,0,0,1.015-2.453,4.366,4.366,0,0,0-.842-2.6,26.16,26.16,0,0,0-5.222-7.016,2.447,2.447,0,0,0-3.77.486,32.065,32.065,0,0,1-7.3,6.4,56.408,56.408,0,0,1-5.752,3.376c-1.954,1-4.168,1.661-6.043,2.787-2.184,1.312-1.953,3.547-.462,5.293.832.973,1.816,1.827,2.7,2.749,3.266,3.4,6.672,6.75,9.717,10.349a2.42,2.42,0,0,0,3.394,0,2.451,2.451,0,0,0,0-3.394c-2.426-2.868-5.161-5.453-7.717-8.2-1.1-1.18-2.187-2.361-3.329-3.5-.329-.327-.667-.648-.989-.983-.118-.122-.23-.249-.347-.372.272.288.12.353.038.131v1.276l.053-.276-.617,1.059c-.2.222-.077.031.119-.071.227-.117.455-.233.689-.337.6-.268,1.215-.5,1.818-.763q1.722-.748,3.4-1.6a56.434,56.434,0,0,0,6.079-3.6,36.279,36.279,0,0,0,8.694-7.905l-3.77.486a24.93,24.93,0,0,1,5.03,7.112v-2.422a88.527,88.527,0,0,1-12.541,19.965,2.465,2.465,0,0,0,0,3.394A2.419,2.419,0,0,0,118.078,161.453Z"/><path class="c" d="M88.519,158.059a88.527,88.527,0,0,1-12.541-19.965v2.422a24.946,24.946,0,0,1,5.029-7.112l-3.769-.486a36.279,36.279,0,0,0,8.694,7.905,56.082,56.082,0,0,0,5.886,3.5q1.665.861,3.384,1.615c.635.279,1.281.535,1.918.81.213.092.423.186.629.294.153.081.552.454.284.156l-.617-1.059.053.276v-1.276c-.051.136-.289.21.076-.175-.111.117-.213.242-.327.356l-.948.945c-1.176,1.168-2.3,2.382-3.428,3.6-2.558,2.747-5.291,5.334-7.717,8.2a2.465,2.465,0,0,0,0,3.394,2.42,2.42,0,0,0,3.394,0c3-3.55,6.365-6.844,9.578-10.205,1.963-2.053,6.544-5.684,2.38-8.186-1.875-1.126-4.089-1.786-6.044-2.787a56.981,56.981,0,0,1-5.586-3.265,39.966,39.966,0,0,1-4.358-3.316,26.957,26.957,0,0,1-3.106-3.2,2.447,2.447,0,0,0-3.77-.486,25.762,25.762,0,0,0-5.132,6.847,5.6,5.6,0,0,0-.975,2.448,7.241,7.241,0,0,0,1.058,2.772q.977,2.05,2.041,4.057a89.227,89.227,0,0,0,10.52,15.319,2.419,2.419,0,0,0,3.394,0A2.451,2.451,0,0,0,88.519,158.059Z"/><path class="c" d="M114.968,235.517a5.587,5.587,0,0,1,.662.705l-.375-.486a4.708,4.708,0,0,1,.535.908l-.241-.573a4.474,4.474,0,0,1,.3,1.095l-.086-.638a4.891,4.891,0,0,1,0,1.221l.086-.638a5.325,5.325,0,0,1-.353,1.288l.242-.573a4.38,4.38,0,0,1-.516.911l.375-.486a3.862,3.862,0,0,1-.679.673l.485-.376a4.588,4.588,0,0,1-.965.551l.574-.242a5.411,5.411,0,0,1-1.256.337l.638-.086a5.7,5.7,0,0,1-1.465,0l.638.086a5.053,5.053,0,0,1-1.2-.32l.573.242a4.057,4.057,0,0,1-.819-.469l.486.375a4.885,4.885,0,0,1-.8-.8l.375.486a4.187,4.187,0,0,1-.533-.912l.242.573a3.964,3.964,0,0,1-.231-.862l.086.638a4.265,4.265,0,0,1,0-1.047l-.085.639a5.18,5.18,0,0,1,.358-1.275l-.242.573a6.617,6.617,0,0,1,.828-1.389l-.375.486a4.043,4.043,0,0,1,.642-.659l-.486.376a4.279,4.279,0,0,1,.882-.516l-.574.242a5.124,5.124,0,0,1,1.293-.349l-.638.086a5.164,5.164,0,0,1,1.273,0l-.638-.086a4.584,4.584,0,0,1,1.048.28l-.574-.242a3.952,3.952,0,0,1,.857.5l-.486-.376c.048.038.094.077.14.117a2.554,2.554,0,0,0,1.7.7,2.439,2.439,0,0,0,1.7-.7,2.411,2.411,0,0,0,.7-1.7,2.375,2.375,0,0,0-.7-1.7,6.665,6.665,0,0,0-4.287-1.642,7.013,7.013,0,0,0-3.875,1.061,7.426,7.426,0,0,0-3.124,7.511,6.487,6.487,0,0,0,2.681,3.79,7.218,7.218,0,0,0,9.985-2.29,7.2,7.2,0,0,0,.843-3.858,7.31,7.31,0,0,0-.727-2.641,6.511,6.511,0,0,0-1.5-1.931,2.531,2.531,0,0,0-1.7-.7,2.4,2.4,0,0,0-1.7,4.1Z"/><path class="c" d="M165.323,283.558c-.248-7.457-.376-14.907-.326-22.369.025-3.765.132-7.531.471-11.282.331-3.662,1-7.258,1.634-10.876,2.533-14.416,4.717-28.893,6.658-43.4q1.543-11.533,2.838-23.1a2.414,2.414,0,0,0-2.4-2.4,2.457,2.457,0,0,0-2.4,2.4q-2.36,21.239-5.595,42.369-1.638,10.788-3.5,21.541c-.644,3.7-1.357,7.388-1.793,11.123-.429,3.68-.614,7.382-.682,11.085-.151,8.3.02,16.607.3,24.906.1,3.081,4.9,3.1,4.8,0Z"/><path class="c" d="M24.634,173.186q2.385,21.448,5.678,42.784,1.665,10.889,3.559,21.739c.611,3.49,1.3,6.966,1.68,10.492.387,3.632.545,7.283.6,10.934.121,8.151-.038,16.3-.307,24.443-.1,3.09,4.7,3.086,4.8,0,.485-14.668,1.014-29.46-1.581-43.965Q35.2,218,32.277,196.224q-1.559-11.5-2.843-23.038a2.471,2.471,0,0,0-2.4-2.4,2.415,2.415,0,0,0-2.4,2.4Z"/><path class="c" d="M140.405,148.122c5.616,2.338,11.236,4.666,16.818,7.083,5.438,2.355,10.756,4.983,16.213,7.287a19.961,19.961,0,0,1,6.307,3.606,15.617,15.617,0,0,1,3.62,5.567,60.722,60.722,0,0,1,2.5,9.177c4.13,18.768,6.258,38.043,8.338,57.123q1.183,10.868,2.195,21.752.534,5.733,1.028,11.47.251,2.928.493,5.857a35.429,35.429,0,0,1,.408,5.767l.328-1.212c.391-.875,1.512-.355.656-.441-.131-.013-.269,0-.4,0h-9.292l-16.158,0-44.649,0-50.847.006-45.236,0-27.711,0H4.162a2.953,2.953,0,0,0-.352,0c-.8.1.3-.509.72.442l.328,1.211a32.755,32.755,0,0,1,.369-5.277q.22-2.69.45-5.378.431-5.042.892-10.082.9-9.762,1.92-19.511c1.2-11.393,2.529-22.776,4.124-34.12,1.192-8.478,2.489-16.955,4.222-25.341,1.41-6.82,2.635-15.348,9.346-18.975,2.724-1.473,5.677-2.526,8.476-3.853,3.068-1.454,6.167-2.845,9.277-4.208,6.245-2.735,12.544-5.345,18.837-7.965a2.48,2.48,0,0,0,1.677-2.952,2.416,2.416,0,0,0-2.953-1.676c-6,2.5-12,4.985-17.958,7.566-5.673,2.458-11.243,5.139-16.918,7.589a20.823,20.823,0,0,0-6.989,4.474,21.147,21.147,0,0,0-4.286,6.883,61.281,61.281,0,0,0-2.7,9.784c-1.876,8.585-3.218,17.291-4.459,25.987C6.47,217.794,5.038,229.85,3.759,241.92q-1.092,10.317-2.033,20.649-.484,5.289-.932,10.582-.228,2.694-.448,5.389c-.14,1.722-.792,4.23.171,5.8,1.25,2.038,3.88,1.639,5.938,1.639h5.206l34.707,0,47.85,0,49.865-.006,39.923,0h12.572c2.377,0,5.647.46,6.464-2.509a7.212,7.212,0,0,0,0-2.461q-.118-1.481-.24-2.961-.221-2.691-.449-5.383-.469-5.521-.977-11.04c-2.18-23.676-4.664-47.416-8.719-70.855-.653-3.778-1.358-7.548-2.184-11.292a57.238,57.238,0,0,0-2.909-10.11,19.977,19.977,0,0,0-4.425-6.643,22.274,22.274,0,0,0-6.937-4.213c-5.7-2.436-11.272-5.148-16.962-7.607-5.829-2.518-11.695-4.95-17.557-7.39a2.414,2.414,0,0,0-2.952,1.676,2.461,2.461,0,0,0,1.676,2.952Z"/><path class="c" d="M104.959,145.517q-3.568.006-7.137.015a2.4,2.4,0,1,0,0,4.8q3.568-.007,7.137-.015a2.4,2.4,0,0,0,0-4.8Z"/><path class="c" d="M133.313,16.787c-4.221-8.4-13.439-14.137-22.539-15.721a72.467,72.467,0,0,0-26.033.23c-4.218.828-8.522,2.2-11.849,5.016a2.419,2.419,0,0,0,0,3.394,2.449,2.449,0,0,0,3.394,0c.038-.032.59-.464.189-.163.118-.089.239-.178.362-.258.32-.21.639-.419.971-.611.538-.311,1.629-.838,1.87-.938a31.856,31.856,0,0,1,5.175-1.568A59.823,59.823,0,0,1,96.792,4.881c7.429-.143,14.644.23,21.345,3.736A24.884,24.884,0,0,1,129.168,19.21c1.388,2.76,5.53.333,4.145-2.423Z"/><path class="c" d="M65.144,11.568C56.937,15.39,51.2,23.129,47.773,31.3c-3.478,8.3-4.589,17.6-4.191,26.547a46.831,46.831,0,0,0,2.527,14.2,2.465,2.465,0,0,0,2.952,1.677,2.42,2.42,0,0,0,1.676-2.953C47.928,63.207,47.87,54.6,48.772,46.681c.921-8.084,3.59-16.134,8.606-22.626a27.79,27.79,0,0,1,10.188-8.342,2.42,2.42,0,0,0,.861-3.284,2.454,2.454,0,0,0-3.283-.861Z"/><path class="c" d="M136.362,25.674c5.465,3.063,8.894,8.294,11.188,13.994a48.547,48.547,0,0,1,3.025,19.455,50.362,50.362,0,0,1-1.769,12.145c-.83,2.98,3.8,4.252,4.628,1.276a59.249,59.249,0,0,0,1.346-23.876,43.69,43.69,0,0,0-6.815-18.539,27.272,27.272,0,0,0-9.181-8.6c-2.7-1.512-5.12,2.633-2.422,4.145Z"/><path class="c" d="M107.738,42.571a22.639,22.639,0,0,0-14.533-1.586,28.564,28.564,0,0,0-6.682,2.679,16.908,16.908,0,0,1-5.978,2.255c-2.3.21-4.586-.424-6.885-.315a8.4,8.4,0,0,0-6.351,2.968c-3.168,3.884-5.049,8.656-7.221,13.114-.983,2.018-1.779,4.115-2.76,6.131-.489,1.007-1.112,1.944-1.564,2.967-.177.4-.344.81-.536,1.206a2.644,2.644,0,0,0-.242.433c.029-.895,3.481,1.01,2.151-.191-2.287-2.067-5.692,1.317-3.394,3.394a3.371,3.371,0,0,0,5.449-.885c.373-.626.593-1.325.915-1.976.485-.981,1.076-1.9,1.543-2.895,1.88-4,3.508-8.118,5.571-12.035a34.417,34.417,0,0,1,3.73-6.168c1.429-1.7,3.745-1.3,5.724-1.118a17.461,17.461,0,0,0,7.267-.49,51.82,51.82,0,0,0,6.465-2.991,17.5,17.5,0,0,1,14.908-.352,2.472,2.472,0,0,0,3.284-.861,2.42,2.42,0,0,0-.861-3.284Z"/><path class="c" d="M89.709,33.5a21.022,21.022,0,0,1,15.24,2.464c3.912,2.237,6.185,5.6,8.187,9.541,1.4,2.754,5.542.327,4.145-2.423-2.428-4.776-5.474-8.813-10.243-11.45a26.057,26.057,0,0,0-18.6-2.76c-3.011.68-1.737,5.309,1.276,4.628Z"/><path class="c" d="M122.245,45.891c6.668,1.592,10.913,6.481,14.168,12.244a46.833,46.833,0,0,1,4.534,10.377c.3,1.072.564,2.156.783,3.247.2.985.208,2.042.446,3.01.569,2.31,3.067,2.39,4.768,1.347,2.629-1.612.22-5.765-2.423-4.145q-.762.4.205.058l1.211.328-.123-.057.861.861q.269,1.06.132.17-.064-.519-.136-1.038c-.064-.449-.138-.9-.221-1.341-.2-1.095-.463-2.18-.75-3.256a38.921,38.921,0,0,0-1.73-4.978,60.813,60.813,0,0,0-5.065-9.74c-3.685-5.664-8.687-10.116-15.384-11.715-3-.717-4.284,3.91-1.276,4.628Z"/></svg>