<?xml version="1.0" encoding="utf-8"?>
<!-- Uploaded to: SVG Repo, www.svgrepo.com, Generator: SVG Repo Mixer Tools -->
<svg width="800px" height="800px" viewBox="0 -8.72 421.518 421.518" xmlns="http://www.w3.org/2000/svg"><defs><style>.a{fill:#ffffff;}.b{fill:#7a7473;}.c{fill:#211715;}</style></defs><path class="a" d="M365.528,283.118a68.262,68.262,0,0,1,4.595,22.424,121.435,121.435,0,0,1-1.329,20.062l0,.029a7.01,7.01,0,0,1,.832.077,7.878,7.878,0,0,1,5.665,3.766,11.131,11.131,0,0,1,1.167,4.481,33.4,33.4,0,0,1-3.4,17.7,21.216,21.216,0,0,1-5.487,7.2c-2.167,1.729-4.345,2.585-7.848.941a65.764,65.764,0,0,1-12.39,23.234c-7.914,9.472-16.759,14.818-27.062,17.072a72.7,72.7,0,0,1-13.685,1.387,81.981,81.981,0,0,1-12.611-1.35c-10.371-1.918-20.219-7.637-28.133-17.109a65.591,65.591,0,0,1-12.113-22.336c-3.648,1.686-6.342-.169-8.436-1.839a21.216,21.216,0,0,1-5.487-7.2,33.385,33.385,0,0,1-3.4-17.7,11.113,11.113,0,0,1,1.166-4.481,7.991,7.991,0,0,1,8.02-3.764l-.313-1.982a114.683,114.683,0,0,1-1.343-18.188c1.053-25.222,14.217-40.8,25.841-49.553,10.012-7.534,22.522-12.03,37.255-12.03a62.887,62.887,0,0,1,58.506,39.159Z"/><path class="b" d="M261.467,253.221c-6.829,5.431-11.62,11.163-11.506,11.588,0,0,1.14.93,2.474,2A54.9,54.9,0,0,0,241.564,288.4c-2.55,10.417-2.389,27.8,2,37.263a8.266,8.266,0,0,1,6.094,2l8.489-3.454c1.623-6.53,3.231-12.276,4.627-18.858l-4.148-3.847a51.7,51.7,0,0,1,5.121-6.975,63.067,63.067,0,0,1,6.378-5.643c3.221-2.467,7.412-5.843,10.634-8.311,0,0-.31-1.456-.694-3.254,8.845-2.311,21.206.874,26,8.166,4.31-1.929,10.653-1.5,15.361-1.09a53.449,53.449,0,0,1,13.037,2.629,58.35,58.35,0,0,1,12.626,5.649,26.677,26.677,0,0,1,7.251,7.986c5.122,9.119,8.162,21.557,7.7,27.7a8.164,8.164,0,0,1,7.338-2.652,7.674,7.674,0,0,1,2.09.621c4.03-13.825,2.892-31.208-1.11-41.607-2.777-7.216-8.3-16.92-16.92-20.911l-6.642-7.019c-3.7-7.385-12.447-13.427-22.621-16.994-7.125-2.5-23-3.714-35.825-1.61l.308,3.237a57.415,57.415,0,0,0-13.157,3.5A52.269,52.269,0,0,0,261.467,253.221Z"/><path class="b" d="M306.384,286.126c6.522-1.394,13.239-2.259,19.9-1.4,7.177.921,13.818,4.5,19.491,8.866a2.615,2.615,0,0,0,3.558-.933,2.666,2.666,0,0,0-.933-3.557c-6.337-4.873-13.715-8.5-21.687-9.521-7.264-.935-14.592.015-21.71,1.535a2.6,2.6,0,0,0,1.382,5.015Z"/><path class="c" d="M364.785,329.611a5.621,5.621,0,0,1,8.077.98c.994,1.477,1.043,3.529,1.1,5.246a29.525,29.525,0,0,1-.371,5.932,30.679,30.679,0,0,1-4.186,11.19c-1.6,2.527-4.227,5.92-7.561,5-3.23-.893-4.608,4.122-1.382,5.015,8.733,2.416,14.488-7.8,16.823-14.649a35.5,35.5,0,0,0,1.877-12.485c-.136-4.332-1.1-8.451-4.906-10.982a11.005,11.005,0,0,0-13.145,1.079,2.623,2.623,0,0,0,0,3.677,2.655,2.655,0,0,0,3.677,0Z"/><path class="c" d="M251.742,325.934a11.074,11.074,0,0,0-12-1.715c-4.066,1.912-5.614,5.83-5.962,10.069-.689,8.4,1.828,17.662,7.29,24.164,2.99,3.559,7.339,6.428,12.139,5.3,3.257-.763,1.879-5.779-1.382-5.015-3.183.746-6.332-2.765-7.923-5.092a30.4,30.4,0,0,1-5.022-17.369c.032-1.834.042-4.1,1.109-5.689a5.62,5.62,0,0,1,8.076-.98,2.669,2.669,0,0,0,3.677,0,2.622,2.622,0,0,0,0-3.677Z"/><path class="c" d="M307.411,348.444a50.953,50.953,0,0,1,1.2,5.487l-.093-.691a3.364,3.364,0,0,1,.021.757l.093-.691a1.8,1.8,0,0,1-.084.34l.262-.621a1.292,1.292,0,0,1-.12.219l.407-.526a1.159,1.159,0,0,1-.18.177l.527-.407a3.541,3.541,0,0,1-.435.23l.621-.262a3.169,3.169,0,0,1-.732.214l.691-.093a2.932,2.932,0,0,1-.688,0l.692.093c-.26-.036-.514-.1-.773-.134a2.874,2.874,0,0,0-2,.262,2.6,2.6,0,0,0-.933,3.557,2.494,2.494,0,0,0,1.554,1.195c.571.077,1.126.223,1.706.248a5.408,5.408,0,0,0,2.491-.589,3.546,3.546,0,0,0,1.98-2.344,5.971,5.971,0,0,0-.026-2.549c-.3-1.768-.707-3.52-1.162-5.253a2.6,2.6,0,1,0-5.014,1.382Z"/><path class="c" d="M278.521,333.111c-.9,2.911-.312,9.607,5.2,10.177,7.289-.043,7.677-8.139,5.223-11.946C286.938,328.226,281.031,326.929,278.521,333.111Z"/><path class="c" d="M336.649,333.111c.9,2.911.313,9.608-5.2,10.177-7.289-.044-7.677-8.14-5.224-11.946C328.232,328.225,334.139,326.93,336.649,333.111Z"/><path class="c" d="M278.681,280.706a22.943,22.943,0,0,1,13.607-.769c4.291.97,8.9,3.067,11.4,6.436a2.681,2.681,0,0,0,3.558.933,2.618,2.618,0,0,0,.932-3.557c-3.432-4.611-8.649-7.433-14.182-8.75-5.409-1.287-11.473-1.4-16.7.693a2.681,2.681,0,0,0-1.816,3.2,2.618,2.618,0,0,0,3.2,1.815Z"/><path class="c" d="M303.139,268.437a25.706,25.706,0,0,1,2.7.812c.24.088.479.182.718.275.419.162-.039-.024.2.085.429.192.854.392,1.273.605a25.8,25.8,0,0,1,2.331,1.345q.591.382,1.163.8c.045.033.554.415.352.259-.14-.108.359.291.438.357a25.981,25.981,0,0,1,3.847,3.935c-.217-.276.058.081.136.187.127.173.251.346.373.521q.44.631.839,1.289a25.53,25.53,0,0,1,1.325,2.488,2.621,2.621,0,0,0,3.557.932,2.659,2.659,0,0,0,.933-3.557,28.507,28.507,0,0,0-18.807-15.345,2.6,2.6,0,0,0-1.383,5.014Z"/><path class="c" d="M325.193,271.618c.24.152.478.308.71.472.093.066.184.133.277.2.465.336-.31-.261-.054-.042.41.352.822.7,1.207,1.078.4.4.778.827,1.143,1.263.217.259-.017-.006-.09-.124.074.119.172.23.253.343q.249.346.48.706a15.881,15.881,0,0,1,.8,1.4q.174.342.331.693c.227.5.025-.069-.028-.073a1.843,1.843,0,0,1,.154.4,15.508,15.508,0,0,1,.487,1.543q.107.414.189.831c.043.214.18,1.118.073.319a2.863,2.863,0,0,0,.761,1.838,2.643,2.643,0,0,0,1.839.762c1.253-.056,2.793-1.156,2.6-2.6a18.346,18.346,0,0,0-8.513-13.5,2.624,2.624,0,0,0-3.557.933,2.655,2.655,0,0,0,.933,3.557Z"/><path class="c" d="M345.492,294.623a28.132,28.132,0,0,1,6.653,7.126,50.02,50.02,0,0,1,3.894,8.433,53.347,53.347,0,0,1,3.685,16.417c.1,3.339,5.3,3.353,5.2,0a57.783,57.783,0,0,0-4.014-18.186,54.9,54.9,0,0,0-4.378-9.456,32.321,32.321,0,0,0-7.363-8.011,2.679,2.679,0,0,0-3.677,0,2.62,2.62,0,0,0,0,3.677Z"/><path class="c" d="M279.693,278.44c-4.955,3.8-10.072,7.544-14.743,11.695-4.258,3.784-7.357,8.456-10.268,13.315-1.724,2.878,2.77,5.5,4.49,2.625,2.7-4.509,5.5-8.753,9.455-12.263,4.337-3.854,9.08-7.344,13.69-10.882a2.688,2.688,0,0,0,.933-3.558c-.64-1.094-2.436-1.793-3.557-.932Z"/><path class="c" d="M260.513,304.769c-1.349,6.332-3.062,12.577-4.626,18.858a2.6,2.6,0,0,0,5.014,1.382c1.564-6.281,3.277-12.525,4.626-18.858a2.661,2.661,0,0,0-1.815-3.2,2.627,2.627,0,0,0-3.2,1.816Z"/><path class="c" d="M253.255,262.591a42.14,42.14,0,0,0-7.741,10.029,58.544,58.544,0,0,0-5.936,14.117,71.357,71.357,0,0,0-1.6,25.864,48.454,48.454,0,0,0,3.34,13.929,2.615,2.615,0,0,0,3.557.932,2.668,2.668,0,0,0,.933-3.557,40.685,40.685,0,0,1-2.523-10.376,78.317,78.317,0,0,1-.473-12.718,54.48,54.48,0,0,1,6.288-23.954,39.46,39.46,0,0,1,7.831-10.59c2.478-2.259-1.207-5.928-3.677-3.676Z"/><path class="c" d="M295.672,238.607a54.753,54.753,0,0,0-26.229,6.436,71.355,71.355,0,0,0-18.128,14.334c-.866.929-1.7,1.883-2.478,2.887a4.1,4.1,0,0,0-1.232,2.654,2.672,2.672,0,0,0,2.6,2.6,2.618,2.618,0,0,0,2.6-2.6,2.716,2.716,0,0,1-.286,1.105c.05-.025.113-.2.15-.247.069-.091.135-.189.2-.284.377-.566-.251.272.023-.033.683-.765,1.322-1.565,2.021-2.318a78.284,78.284,0,0,1,6.757-6.427,61.772,61.772,0,0,1,9.1-6.46,51.739,51.739,0,0,1,10.828-4.468,45.455,45.455,0,0,1,14.076-1.979c3.347.048,3.348-5.152,0-5.2Z"/><path class="c" d="M349.286,255.591C345.2,247.6,337.008,242.3,328.97,238.9c-7.78-3.287-16.219-4.154-24.609-4.27a95.337,95.337,0,0,0-16.457,1.16,2.62,2.62,0,0,0-1.816,3.2,2.663,2.663,0,0,0,3.2,1.816,90.916,90.916,0,0,1,26.014-.234,46.633,46.633,0,0,1,21.234,8.42,26.45,26.45,0,0,1,8.262,9.222c1.525,2.98,6.013.352,4.49-2.624Z"/><path class="c" d="M352.371,266.168c7.317,3.465,12.109,10.792,15.165,17.96,3.313,7.77,4.27,16.706,4.071,25.155a65.538,65.538,0,0,1-2.234,15.882c-.888,3.231,4.127,4.61,5.014,1.382a76.156,76.156,0,0,0,1.578-30.846,53.043,53.043,0,0,0-9.279-23.7A31.535,31.535,0,0,0,355,261.677a2.674,2.674,0,0,0-3.558.933,2.624,2.624,0,0,0,.933,3.558Z"/><path class="c" d="M323.982,319.668a9.417,9.417,0,0,0,11.843-1.069,2.6,2.6,0,0,0-3.677-3.677c-.142.143-.291.274-.441.408-.306.275.447-.32.2-.149-.083.056-.163.115-.246.17a6.783,6.783,0,0,1-1.057.556l.621-.262a7.375,7.375,0,0,1-1.734.467l.692-.093a7.554,7.554,0,0,1-1.918,0l.691.093a7.087,7.087,0,0,1-1.726-.476l.621.262a6.483,6.483,0,0,1-1.241-.72,2.615,2.615,0,0,0-2-.262,2.65,2.65,0,0,0-1.554,1.195,2.62,2.62,0,0,0-.262,2,3.009,3.009,0,0,0,1.2,1.554Z"/><path class="c" d="M279.4,317.159c1.959,1.4,4.1,2.832,6.535,3.2a9.654,9.654,0,0,0,4.349-.275,19.212,19.212,0,0,0,3.813-1.754,2.6,2.6,0,0,0-2.624-4.49c-.5.284-1,.562-1.512.813-.068.033-.787.34-.471.22s-.418.143-.487.166c-.268.086-.54.16-.816.219q-.205.044-.414.075.514-.069.061-.028c-.2-.006-.409.011-.614,0-.133-.006-.265-.016-.4-.031q.546.078.1,0c-.451-.118-.892-.231-1.331-.39q-.405-.162.067.03c-.122-.056-.244-.114-.364-.173q-.365-.182-.718-.383a29.536,29.536,0,0,1-2.558-1.692,2.612,2.612,0,0,0-3.557.933,2.67,2.67,0,0,0,.933,3.557Z"/><path class="c" d="M302.138,377.74a11.838,11.838,0,0,1,1.384-1.482c.119-.107.245-.2.363-.311.293-.264-.29.183.041-.031.268-.174.524-.363.8-.528q.46-.279.944-.514c.143-.07.288-.139.434-.2-.247.1-.147.061.045,0,.649-.22,1.294-.362,1.959-.52.392-.093-.4.021.032-.006.174-.011.346-.033.52-.043.332-.02.664-.026,1-.015.158.006.321.031.479.028.4-.007-.373-.079.007-.008.34.063.675.127,1.008.221.293.082.575.188.862.288-.238-.083-.2-.1.01.009.139.067.279.134.416.206A14.761,14.761,0,0,1,314.282,376a2.61,2.61,0,0,0,3.557-.933,2.672,2.672,0,0,0-.933-3.557,13.03,13.03,0,0,0-9.947-2.41,13.8,13.8,0,0,0-8.5,4.965,2.667,2.667,0,0,0,0,3.677c.939.862,2.775,1.138,3.676,0Z"/><path class="c" d="M249.717,355.794c4.493,20.061,18.275,39.292,38.484,45.594a67.469,67.469,0,0,0,16.454,2.622,61.054,61.054,0,0,0,17.762-1.745,50.737,50.737,0,0,0,25.324-15.749,68.817,68.817,0,0,0,15.7-30.722c.73-3.26-4.282-4.652-5.014-1.382-4.021,17.95-16.061,35.967-34.177,41.909-9.98,3.274-21.235,3.272-31.419.932a46.175,46.175,0,0,1-23.888-14.59,63.1,63.1,0,0,1-14.215-28.251c-.731-3.264-5.746-1.883-5.014,1.382Z"/><path class="c" d="M382.881,266.527c.746-.683,1.522-1.326,2.313-1.956.371-.3-.313.235-.054.04l.275-.208q.348-.261.7-.517.675-.489,1.369-.953c.879-.587,1.779-1.144,2.706-1.652.444-.243.893-.475,1.35-.69.191-.09.987-.395.2-.1.219-.082.436-.173.656-.253a2.6,2.6,0,0,0-1.382-5.014,28.844,28.844,0,0,0-6.154,3.22,47.242,47.242,0,0,0-5.656,4.407,2.619,2.619,0,0,0,0,3.677,2.656,2.656,0,0,0,3.677,0Z"/><path class="c" d="M386.255,247.718c-2.53-3.356-.113-7.461,3.63-8.382a7.022,7.022,0,0,1,5.669.888,4.42,4.42,0,0,1,.813.8c-.189-.244.372.815.269.516a5.042,5.042,0,0,1-.147,2.812c-.851,3.266,3.937,4.526,5.015,1.382a5.371,5.371,0,0,1,1.46-2.46c-.248.217.1-.076.206-.141a5.274,5.274,0,0,1,.563-.305c-.331.145.088-.02.224-.055.214-.055.426-.114.642-.161a7.177,7.177,0,0,1,1.133-.115,7.581,7.581,0,0,1,1.573.033,6.349,6.349,0,0,1,2.737,1.252,3.143,3.143,0,0,1,1.355,1.746,6.691,6.691,0,0,1,.3,3.92c-.594,2.312-2.209,2.717-4.445,2.459-2.883-.333-3.59,4.68-.691,5.107a4.578,4.578,0,0,1,2.763,1.108,4.5,4.5,0,0,1,.7.972,6.95,6.95,0,0,1,.7,1.508,7.114,7.114,0,0,1-1.106,6.377,5.927,5.927,0,0,1-5.213,2.427,5.66,5.66,0,0,1-4.681-2.661c-1.685-2.89-6.181-.275-4.49,2.624a10.972,10.972,0,0,0,9.171,5.237,11.237,11.237,0,0,0,9.5-4.728c4.456-6.027,2.226-16.673-5.962-17.878l-.691,5.107a8.379,8.379,0,0,0,9.276-5.656c1.247-3.694.382-8.485-2.577-11.142a11.985,11.985,0,0,0-10.472-2.761c-3.674.664-5.835,3.425-6.994,6.8l5.015,1.382c.874-3.357.5-6.806-2.253-9.178a12.137,12.137,0,0,0-10.4-2.318,11.344,11.344,0,0,0-7.832,5.976,10.176,10.176,0,0,0,.745,10.124,2.682,2.682,0,0,0,3.557.933,2.618,2.618,0,0,0,.933-3.557Z"/><path class="a" d="M131.861,283.118a68.262,68.262,0,0,1,4.595,22.424,121.437,121.437,0,0,1-1.328,20.062l0,.029a7.046,7.046,0,0,1,.833.077,7.878,7.878,0,0,1,5.665,3.766,11.146,11.146,0,0,1,1.166,4.481,33.376,33.376,0,0,1-3.4,17.7,21.214,21.214,0,0,1-5.486,7.2c-2.168,1.729-4.346,2.585-7.848.941a65.785,65.785,0,0,1-12.391,23.234C105.745,392.5,96.9,397.847,86.6,400.1a72.7,72.7,0,0,1-13.684,1.387,81.994,81.994,0,0,1-12.612-1.35C49.93,398.22,40.082,392.5,32.168,383.029a65.587,65.587,0,0,1-12.112-22.336c-3.649,1.686-6.343-.169-8.437-1.839a21.214,21.214,0,0,1-5.486-7.2,33.376,33.376,0,0,1-3.4-17.7A11.146,11.146,0,0,1,3.9,329.476a7.991,7.991,0,0,1,8.02-3.764L11.6,323.73a114.8,114.8,0,0,1-1.343-18.188c1.053-25.222,14.217-40.8,25.842-49.553,10.011-7.534,22.521-12.03,37.254-12.03a61.34,61.34,0,0,1,37.26,12.03A61.04,61.04,0,0,1,131.861,283.118Z"/><path class="b" d="M27.8,253.221c-6.83,5.431-11.621,11.163-11.507,11.588,0,0,1.141.93,2.475,2A54.886,54.886,0,0,0,7.9,288.4c-2.55,10.417-2.389,27.8,2,37.263a8.266,8.266,0,0,1,6.094,2l8.49-3.454c1.623-6.53,3.231-12.276,4.626-18.858L24.961,301.5a51.7,51.7,0,0,1,5.121-6.975,63.078,63.078,0,0,1,6.379-5.643c3.221-2.467,7.412-5.843,10.633-8.311,0,0-.31-1.456-.694-3.254,8.845-2.311,21.206.874,26,8.166,4.31-1.929,10.652-1.5,15.36-1.09a53.439,53.439,0,0,1,13.037,2.629,58.35,58.35,0,0,1,12.626,5.649,26.679,26.679,0,0,1,7.252,7.986c5.121,9.119,8.162,21.557,7.7,27.7a8.164,8.164,0,0,1,7.338-2.652,7.67,7.67,0,0,1,2.091.621c4.03-13.825,2.892-31.208-1.111-41.607-2.777-7.216-8.3-16.92-16.92-20.911l-6.642-7.019c-3.7-7.385-12.447-13.427-22.621-16.994-7.125-2.5-23-3.714-35.825-1.61l.308,3.237a57.415,57.415,0,0,0-13.157,3.5A52.264,52.264,0,0,0,27.8,253.221Z"/><path class="b" d="M72.717,286.126c6.522-1.394,13.24-2.259,19.9-1.4,7.176.921,13.817,4.5,19.491,8.866a2.614,2.614,0,0,0,3.557-.933,2.666,2.666,0,0,0-.933-3.557c-6.337-4.873-13.715-8.5-21.687-9.521-7.263-.935-14.592.015-21.71,1.535a2.6,2.6,0,0,0,1.382,5.015Z"/><path class="c" d="M73.744,348.444a50.713,50.713,0,0,1,1.2,5.487l-.092-.691a3.306,3.306,0,0,1,.02.757l.093-.691a1.875,1.875,0,0,1-.083.34l.262-.621a1.366,1.366,0,0,1-.12.219l.406-.526a1.152,1.152,0,0,1-.179.177l.526-.407a3.6,3.6,0,0,1-.434.23l.621-.262a3.191,3.191,0,0,1-.733.214l.691-.093a2.924,2.924,0,0,1-.687,0l.691.093c-.259-.036-.514-.1-.773-.134a2.875,2.875,0,0,0-2,.262,2.6,2.6,0,0,0-.932,3.557,2.491,2.491,0,0,0,1.554,1.195c.571.077,1.125.223,1.706.248a5.4,5.4,0,0,0,2.49-.589,3.543,3.543,0,0,0,1.98-2.344,5.971,5.971,0,0,0-.026-2.549c-.3-1.768-.707-3.52-1.162-5.253a2.6,2.6,0,0,0-5.014,1.382Z"/><path class="c" d="M44.854,333.111c-.895,2.911-.311,9.607,5.2,10.177,7.289-.043,7.677-8.139,5.223-11.946C53.271,328.226,47.364,326.929,44.854,333.111Z"/><path class="c" d="M102.983,333.111c.9,2.911.312,9.608-5.2,10.177-7.289-.044-7.677-8.14-5.223-11.946C94.566,328.225,100.473,326.93,102.983,333.111Z"/><path class="c" d="M131.118,329.611a5.621,5.621,0,0,1,8.077.98c1,1.477,1.043,3.529,1.1,5.246a29.6,29.6,0,0,1-.372,5.932,30.661,30.661,0,0,1-4.186,11.19c-1.6,2.527-4.227,5.92-7.561,5-3.23-.893-4.608,4.122-1.382,5.015,8.733,2.416,14.489-7.8,16.824-14.649a35.546,35.546,0,0,0,1.877-12.485c-.137-4.332-1.1-8.451-4.906-10.982a11.007,11.007,0,0,0-13.146,1.079,2.623,2.623,0,0,0,0,3.677,2.655,2.655,0,0,0,3.677,0Z"/><path class="c" d="M18.076,325.934a11.076,11.076,0,0,0-12-1.715c-4.065,1.912-5.614,5.83-5.962,10.069-.688,8.4,1.829,17.662,7.29,24.164,2.99,3.559,7.34,6.428,12.14,5.3,3.257-.763,1.878-5.779-1.383-5.015-3.183.746-6.332-2.765-7.922-5.092a29.968,29.968,0,0,1-4.562-11.443,29.569,29.569,0,0,1-.46-5.926c.031-1.834.041-4.1,1.108-5.689a5.621,5.621,0,0,1,8.077-.98,2.669,2.669,0,0,0,3.677,0,2.623,2.623,0,0,0,0-3.677Z"/><path class="c" d="M84.377,370.815c-1.469-1.25-3.047-.942-4.8-.673-.312.048-.336.034-.009,0-.217.02-.432.047-.65.063a10.188,10.188,0,0,1-1.172.021c-.038,0-.814-.083-.311-.007-.219-.033-.436-.081-.65-.135a4.854,4.854,0,0,1-1.124-.413,9.3,9.3,0,0,0-10.607,1.337,2.6,2.6,0,0,0,3.677,3.677.824.824,0,0,1,.194-.176c.258-.112-.506.32-.219.169.208-.109.4-.265.6-.38a3.954,3.954,0,0,0,.4-.207c.248-.18-.553.185.015-.007a9.055,9.055,0,0,1,.929-.27c.13-.028.617-.056.1-.032.159-.008.317-.025.477-.028.206,0,.412,0,.618.019.379.028-.3-.114.075.017.21.074.441.107.655.174.041.013.4.157.181.06.573.251,1.117.551,1.7.776a10.687,10.687,0,0,0,4.885.566c.774-.081,1.549-.193,2.317-.323.344-.058-.54.03-.225.033.111,0,.23-.014.341-.024.053,0,.193.03.237,0-.35.2-1.114-.388-1.327-.569a2.6,2.6,0,1,0,3.677-3.677Z"/><path class="c" d="M44.4,280.706a22.942,22.942,0,0,1,13.607-.769c4.29.97,8.9,3.067,11.4,6.436a2.681,2.681,0,0,0,3.558.933,2.617,2.617,0,0,0,.932-3.557c-3.431-4.611-8.649-7.433-14.181-8.75-5.409-1.287-11.474-1.4-16.7.693a2.682,2.682,0,0,0-1.816,3.2,2.619,2.619,0,0,0,3.2,1.815Z"/><path class="c" d="M68.862,268.437a25.617,25.617,0,0,1,2.7.812c.241.088.479.182.718.275.419.162-.039-.024.2.085.429.192.854.392,1.273.605a25.8,25.8,0,0,1,2.331,1.345q.593.382,1.163.8c.045.033.554.415.352.259-.14-.108.359.291.438.357a25.887,25.887,0,0,1,3.847,3.935c-.217-.276.059.081.137.187.126.173.25.346.372.521q.439.631.839,1.289a25.315,25.315,0,0,1,1.325,2.488,2.621,2.621,0,0,0,3.557.932,2.658,2.658,0,0,0,.933-3.557,28.505,28.505,0,0,0-18.807-15.345,2.6,2.6,0,1,0-1.382,5.014Z"/><path class="c" d="M90.915,271.618c.241.152.478.308.711.472l.276.2c.466.336-.309-.261-.054-.042.411.352.822.7,1.207,1.078.4.4.779.827,1.144,1.263.216.259-.018-.006-.091-.124.074.119.172.23.254.343q.249.346.479.706a16.145,16.145,0,0,1,.806,1.4c.115.228.226.459.33.693.227.5.025-.069-.028-.073a1.746,1.746,0,0,1,.154.4,15.508,15.508,0,0,1,.487,1.543q.106.414.19.831c.042.214.179,1.118.072.319a2.863,2.863,0,0,0,.761,1.838,2.643,2.643,0,0,0,1.839.762c1.253-.056,2.793-1.156,2.6-2.6a18.348,18.348,0,0,0-8.512-13.5,2.625,2.625,0,0,0-3.558.933,2.655,2.655,0,0,0,.933,3.557Z"/><path class="c" d="M111.215,294.623a28.146,28.146,0,0,1,6.652,7.126,50.1,50.1,0,0,1,3.895,8.433,53.374,53.374,0,0,1,3.684,16.417c.1,3.339,5.3,3.353,5.2,0a57.755,57.755,0,0,0-4.014-18.186,54.975,54.975,0,0,0-4.377-9.456,32.321,32.321,0,0,0-7.363-8.011,2.679,2.679,0,0,0-3.677,0,2.619,2.619,0,0,0,0,3.677Z"/><path class="c" d="M45.415,278.44c-4.955,3.8-10.072,7.544-14.743,11.695-4.258,3.784-7.356,8.456-10.268,13.315-1.724,2.878,2.77,5.5,4.491,2.625,2.7-4.509,5.5-8.753,9.454-12.263,4.337-3.854,9.08-7.344,13.691-10.882a2.687,2.687,0,0,0,.932-3.558c-.64-1.094-2.436-1.793-3.557-.932Z"/><path class="c" d="M26.235,304.769c-1.349,6.332-3.062,12.577-4.626,18.858a2.6,2.6,0,1,0,5.014,1.382c1.565-6.281,3.277-12.525,4.627-18.858a2.661,2.661,0,0,0-1.816-3.2,2.627,2.627,0,0,0-3.2,1.816Z"/><path class="c" d="M18.978,262.591a42.114,42.114,0,0,0-7.741,10.029A58.507,58.507,0,0,0,5.3,286.737,71.357,71.357,0,0,0,3.7,312.6a48.487,48.487,0,0,0,3.34,13.929,2.616,2.616,0,0,0,3.558.932,2.669,2.669,0,0,0,.932-3.557,40.685,40.685,0,0,1-2.523-10.376,78.43,78.43,0,0,1-.473-12.718,54.48,54.48,0,0,1,6.288-23.954,39.442,39.442,0,0,1,7.832-10.59c2.478-2.259-1.208-5.928-3.677-3.676Z"/><path class="c" d="M61.394,238.607a54.753,54.753,0,0,0-26.229,6.436,71.355,71.355,0,0,0-18.128,14.334c-.865.929-1.7,1.883-2.478,2.887a4.109,4.109,0,0,0-1.232,2.654,2.672,2.672,0,0,0,2.6,2.6,2.618,2.618,0,0,0,2.6-2.6,2.7,2.7,0,0,1-.286,1.105c.051-.025.113-.2.15-.247.069-.091.135-.189.2-.284.377-.566-.25.272.023-.033.684-.765,1.323-1.565,2.022-2.318a78.272,78.272,0,0,1,6.756-6.427,61.825,61.825,0,0,1,9.1-6.46,51.747,51.747,0,0,1,10.829-4.468,45.444,45.444,0,0,1,14.075-1.979c3.347.048,3.349-5.152,0-5.2Z"/><path class="c" d="M115.009,255.591C110.921,247.6,102.73,242.3,94.693,238.9c-7.781-3.287-16.22-4.154-24.61-4.27a95.337,95.337,0,0,0-16.457,1.16,2.621,2.621,0,0,0-1.816,3.2,2.663,2.663,0,0,0,3.2,1.816,90.916,90.916,0,0,1,26.014-.234,46.629,46.629,0,0,1,21.234,8.42,26.453,26.453,0,0,1,8.263,9.222c1.524,2.98,6.012.352,4.49-2.624Z"/><path class="c" d="M118.093,266.168c7.317,3.465,12.109,10.792,15.165,17.96,3.313,7.77,4.27,16.706,4.071,25.155a65.538,65.538,0,0,1-2.234,15.882c-.888,3.231,4.127,4.61,5.015,1.382a76.174,76.174,0,0,0,1.578-30.846,53.066,53.066,0,0,0-9.279-23.7,31.545,31.545,0,0,0-11.691-10.327,2.673,2.673,0,0,0-3.557.933,2.623,2.623,0,0,0,.932,3.558Z"/><path class="c" d="M37.747,344.359a9.1,9.1,0,0,0-3.469,4.515,7.382,7.382,0,0,0,.377,5.579,7.143,7.143,0,0,0,4.1,3.585,6.847,6.847,0,0,0,5.459-.642,14.221,14.221,0,0,0,3.968-3.583,2.793,2.793,0,0,0,.761-1.838,2.6,2.6,0,0,0-4.438-1.839,22.366,22.366,0,0,1-1.512,1.686c-.284.279-.628.514-.9.8.332-.254.389-.3.171-.141-.079.057-.16.111-.242.165-.121.078-.245.154-.371.224-.083.047-.168.092-.253.134q-.37.174.233-.087c-.18.04-.355.131-.535.179-.09.024-.182.045-.274.064q-.412.072.271-.031a3.315,3.315,0,0,0-.432.018c-.095,0-.19-.005-.284-.013q.694.107.284.035c-.177-.046-.35-.094-.525-.146q-.378-.145.245.105c-.082-.039-.163-.081-.242-.126-.14-.078-.27-.169-.4-.257q-.242-.175.255.2c-.07-.059-.139-.12-.206-.184a4.4,4.4,0,0,0-.378-.4q.39.52.154.2c-.053-.076-.1-.154-.152-.233-.085-.139-.154-.284-.232-.427q-.129-.273.124.3-.051-.129-.093-.261c-.057-.177-.094-.356-.136-.537q-.068-.406.036.27c-.008-.1-.013-.2-.016-.295,0-.173.012-.343.017-.515.018-.207,0-.1-.05.327.016-.1.034-.194.054-.289a5.322,5.322,0,0,1,.157-.569c.031-.093.065-.186.1-.277q-.257.587-.084.214c.084-.153.159-.308.248-.457a2.358,2.358,0,0,0,.287-.436q-.389.489-.132.173c.064-.076.13-.151.2-.224.135-.146.277-.286.426-.418q.111-.1.228-.192-.5.376-.169.14a2.793,2.793,0,0,0,1.2-1.554,2.6,2.6,0,0,0-3.819-2.936Z"/><path class="c" d="M48.072,325.957a14.551,14.551,0,0,0,5.386-1.65,22.093,22.093,0,0,0,4.329-2.729,2.6,2.6,0,0,0,.762-1.839,2.641,2.641,0,0,0-.762-1.838,2.615,2.615,0,0,0-1.838-.762,2.991,2.991,0,0,0-1.839.762l-.191.152.526-.407a20.9,20.9,0,0,1-4.551,2.6l.621-.262a11.367,11.367,0,0,1-2.723.83l.691-.093c-.137.018-.274.032-.411.04a2.754,2.754,0,0,0-1.839.761,2.6,2.6,0,0,0,1.839,4.439Z"/><path class="c" d="M99.452,323.466c1.662.519,3.276,1.208,4.879,1.884l-.621-.262q.983.414,1.961.84a2.845,2.845,0,0,0,2,.262A2.653,2.653,0,0,0,109.228,325a2.624,2.624,0,0,0,.262-2,2.508,2.508,0,0,0-1.195-1.554,75.529,75.529,0,0,0-7.461-2.986,2.624,2.624,0,0,0-3.2,1.816,2.654,2.654,0,0,0,1.816,3.2Z"/><path class="c" d="M16.05,355.794c4.493,20.061,18.275,39.292,38.484,45.594a67.477,67.477,0,0,0,16.454,2.622,61.054,61.054,0,0,0,17.762-1.745,50.737,50.737,0,0,0,25.324-15.749,68.817,68.817,0,0,0,15.7-30.722c.73-3.26-4.282-4.652-5.014-1.382-4.021,17.95-16.061,35.967-34.176,41.909-9.981,3.274-21.236,3.272-31.419.932a46.167,46.167,0,0,1-23.888-14.59,63.112,63.112,0,0,1-14.216-28.251c-.731-3.264-5.745-1.883-5.014,1.382Z"/><path class="c" d="M150.545,249.938c.686,9.626,1.462,19.245,2.148,28.871a2.664,2.664,0,0,0,2.6,2.6,2.622,2.622,0,0,0,2.6-2.6c-.686-9.626-1.462-19.245-2.148-28.871a2.663,2.663,0,0,0-2.6-2.6,2.621,2.621,0,0,0-2.6,2.6Z"/><path class="c" d="M163.932,254l1.08,14.591a2.6,2.6,0,1,0,5.2,0L169.132,254a2.6,2.6,0,1,0-5.2,0Z"/><path class="c" d="M176.284,248.716c.629,7.34,1.11,14.693,1.739,22.034a2.668,2.668,0,0,0,2.6,2.6,2.619,2.619,0,0,0,2.6-2.6c-.629-7.341-1.11-14.694-1.739-22.034a2.667,2.667,0,0,0-2.6-2.6,2.619,2.619,0,0,0-2.6,2.6Z"/><path class="a" d="M365.528,66.452a68.256,68.256,0,0,1,4.595,22.423,121.435,121.435,0,0,1-1.329,20.062l0,.029a7.226,7.226,0,0,1,.832.077,7.878,7.878,0,0,1,5.665,3.766,11.135,11.135,0,0,1,1.167,4.482,33.4,33.4,0,0,1-3.4,17.7,21.213,21.213,0,0,1-5.487,7.2c-2.167,1.729-4.345,2.585-7.848.941a65.776,65.776,0,0,1-12.39,23.235c-7.914,9.472-16.759,14.817-27.062,17.071a72.791,72.791,0,0,1-13.685,1.388,81.98,81.98,0,0,1-12.611-1.351c-10.371-1.918-20.219-7.636-28.133-17.108a65.6,65.6,0,0,1-12.113-22.337c-3.648,1.686-6.342-.169-8.436-1.839a21.213,21.213,0,0,1-5.487-7.2,33.385,33.385,0,0,1-3.4-17.7,11.118,11.118,0,0,1,1.166-4.482,7.991,7.991,0,0,1,8.02-3.764l-.313-1.982a114.663,114.663,0,0,1-1.343-18.188c1.053-25.222,14.217-40.8,25.841-49.553,10.012-7.534,22.522-12.029,37.255-12.029a62.883,62.883,0,0,1,58.506,39.159Z"/><path class="b" d="M261.467,36.554c-6.829,5.431-11.62,11.163-11.506,11.588,0,0,1.14.93,2.474,2a54.887,54.887,0,0,0-10.871,21.582c-2.55,10.418-2.389,27.8,2,37.263a8.266,8.266,0,0,1,6.094,2l8.489-3.454c1.623-6.53,3.231-12.276,4.627-18.858l-4.148-3.846a51.575,51.575,0,0,1,5.121-6.975,62.944,62.944,0,0,1,6.378-5.643c3.221-2.468,7.412-5.844,10.634-8.311,0,0-.31-1.456-.694-3.255,8.845-2.31,21.206.874,26,8.167,4.31-1.93,10.653-1.5,15.361-1.091a53.449,53.449,0,0,1,13.037,2.63,58.254,58.254,0,0,1,12.626,5.649,26.659,26.659,0,0,1,7.251,7.985c5.122,9.119,8.162,21.558,7.7,27.7a8.165,8.165,0,0,1,7.338-2.653,7.674,7.674,0,0,1,2.09.621c4.03-13.825,2.892-31.207-1.11-41.607-2.777-7.216-8.3-16.92-16.92-20.91l-6.642-7.02c-3.7-7.385-12.447-13.426-22.621-16.994-7.125-2.5-23-3.713-35.825-1.609l.308,3.237a57.412,57.412,0,0,0-13.157,3.5A52.3,52.3,0,0,0,261.467,36.554Z"/><path class="b" d="M306.384,69.459c6.522-1.393,13.239-2.259,19.9-1.4,7.177.921,13.818,4.5,19.491,8.865a2.616,2.616,0,0,0,3.558-.932,2.667,2.667,0,0,0-.933-3.558c-6.337-4.873-13.715-8.494-21.687-9.521-7.264-.935-14.592.015-21.71,1.536a2.6,2.6,0,1,0,1.382,5.014Z"/><path class="c" d="M307.411,131.668a50.953,50.953,0,0,1,1.2,5.487l-.093-.691a3.364,3.364,0,0,1,.021.757l.093-.691a1.827,1.827,0,0,1-.084.341l.262-.622a1.341,1.341,0,0,1-.12.22l.407-.527a1.159,1.159,0,0,1-.18.177l.527-.407a3.541,3.541,0,0,1-.435.23l.621-.262a3.169,3.169,0,0,1-.732.214l.691-.093a2.879,2.879,0,0,1-.688,0l.692.093c-.26-.036-.514-.1-.773-.134a2.874,2.874,0,0,0-2,.262,2.6,2.6,0,0,0-.933,3.557,2.49,2.49,0,0,0,1.554,1.195c.571.077,1.126.223,1.706.248a5.408,5.408,0,0,0,2.491-.589,3.546,3.546,0,0,0,1.98-2.344,5.971,5.971,0,0,0-.026-2.549c-.3-1.768-.707-3.519-1.162-5.253a2.6,2.6,0,1,0-5.014,1.382Z"/><path class="c" d="M278.521,116.335c-.9,2.911-.312,9.607,5.2,10.177,7.289-.043,7.677-8.139,5.223-11.946C286.938,111.45,281.031,110.154,278.521,116.335Z"/><path class="c" d="M336.649,116.336c.9,2.91.313,9.607-5.2,10.176-7.289-.044-7.677-8.139-5.224-11.946C328.232,111.45,334.139,110.154,336.649,116.336Z"/><path class="c" d="M364.785,112.835a5.621,5.621,0,0,1,8.077.981c.994,1.476,1.043,3.528,1.1,5.245a29.525,29.525,0,0,1-.371,5.932,30.679,30.679,0,0,1-4.186,11.19c-1.6,2.527-4.227,5.92-7.561,5-3.23-.893-4.608,4.122-1.382,5.015,8.733,2.416,14.488-7.8,16.823-14.649a35.5,35.5,0,0,0,1.877-12.485c-.136-4.332-1.1-8.451-4.906-10.982a11.005,11.005,0,0,0-13.145,1.079,2.623,2.623,0,0,0,0,3.677,2.653,2.653,0,0,0,3.677,0Z"/><path class="c" d="M251.742,109.158a11.072,11.072,0,0,0-12-1.714c-4.066,1.911-5.614,5.829-5.962,10.068-.689,8.4,1.828,17.662,7.29,24.164,2.99,3.559,7.339,6.428,12.139,5.3,3.257-.763,1.879-5.778-1.382-5.015-3.183.746-6.332-2.765-7.923-5.092A30.4,30.4,0,0,1,238.88,119.5c.032-1.834.042-4.105,1.109-5.688a5.619,5.619,0,0,1,8.076-.981,2.668,2.668,0,0,0,3.677,0,2.622,2.622,0,0,0,0-3.677Z"/><path class="c" d="M249.717,139.128c4.493,20.061,18.275,39.291,38.484,45.593a67.421,67.421,0,0,0,16.454,2.622,61.054,61.054,0,0,0,17.762-1.745,50.737,50.737,0,0,0,25.324-15.749,68.814,68.814,0,0,0,15.7-30.721c.73-3.26-4.282-4.652-5.014-1.383-4.021,17.951-16.061,35.967-34.177,41.909-9.98,3.274-21.235,3.273-31.419.932A46.167,46.167,0,0,1,268.946,166a63.1,63.1,0,0,1-14.215-28.252c-.731-3.264-5.746-1.883-5.014,1.383Z"/><path class="c" d="M277.948,63.931a22.943,22.943,0,0,1,13.607-.77c4.291.97,8.9,3.067,11.4,6.436a2.68,2.68,0,0,0,3.557.933,2.618,2.618,0,0,0,.933-3.557c-3.432-4.611-8.65-7.433-14.182-8.75-5.409-1.287-11.473-1.395-16.7.693a2.681,2.681,0,0,0-1.816,3.2,2.619,2.619,0,0,0,3.2,1.816Z"/><path class="c" d="M302.406,51.661a25.617,25.617,0,0,1,2.7.812c.241.088.479.182.718.275.419.162-.038-.024.206.086.429.192.854.391,1.273.6a25.919,25.919,0,0,1,2.33,1.345q.592.382,1.163.8c.046.033.554.415.352.259-.139-.108.359.291.439.357a25.981,25.981,0,0,1,3.847,3.935c-.217-.276.058.081.136.188.126.172.251.345.373.521q.438.63.839,1.288a25.307,25.307,0,0,1,1.324,2.488,2.622,2.622,0,0,0,3.558.932,2.659,2.659,0,0,0,.932-3.557,28.5,28.5,0,0,0-18.806-15.345,2.6,2.6,0,1,0-1.383,5.014Z"/><path class="c" d="M324.46,54.843c.24.151.478.307.71.471.093.066.184.133.276.2.466.336-.309-.261-.054-.042.411.352.823.7,1.207,1.078.405.4.779.827,1.144,1.263.216.259-.018-.006-.09-.123.073.118.171.229.253.343.166.23.326.466.48.7q.436.682.8,1.405.174.342.331.693c.226.505.024-.069-.028-.072a1.834,1.834,0,0,1,.154.4,15.438,15.438,0,0,1,.486,1.544c.071.275.135.552.19.83.043.214.179,1.118.072.319a2.869,2.869,0,0,0,.762,1.838,2.642,2.642,0,0,0,1.838.762c1.254-.056,2.794-1.156,2.6-2.6a18.341,18.341,0,0,0-8.512-13.5,2.624,2.624,0,0,0-3.557.933,2.656,2.656,0,0,0,.933,3.558Z"/><path class="c" d="M344.759,77.847a28.132,28.132,0,0,1,6.653,7.126,50.02,50.02,0,0,1,3.894,8.433,53.352,53.352,0,0,1,3.684,16.417c.1,3.339,5.3,3.353,5.2,0a57.781,57.781,0,0,0-4.013-18.186,54.935,54.935,0,0,0-4.378-9.455,32.308,32.308,0,0,0-7.363-8.012,2.679,2.679,0,0,0-3.677,0,2.619,2.619,0,0,0,0,3.677Z"/><path class="c" d="M278.959,61.664c-4.955,3.8-10.072,7.544-14.742,11.695-4.258,3.784-7.357,8.456-10.268,13.315-1.724,2.878,2.77,5.5,4.49,2.625,2.7-4.508,5.5-8.753,9.455-12.263,4.337-3.854,9.079-7.343,13.69-10.882a2.688,2.688,0,0,0,.933-3.558c-.64-1.094-2.437-1.793-3.558-.932Z"/><path class="c" d="M259.78,87.993c-1.35,6.333-3.062,12.577-4.627,18.858a2.6,2.6,0,0,0,5.015,1.382c1.564-6.281,3.277-12.525,4.626-18.858a2.661,2.661,0,0,0-1.816-3.2,2.626,2.626,0,0,0-3.2,1.816Z"/><path class="c" d="M252.522,45.815a42.14,42.14,0,0,0-7.741,10.029,58.5,58.5,0,0,0-5.936,14.117,71.379,71.379,0,0,0-1.6,25.864,48.488,48.488,0,0,0,3.341,13.929,2.616,2.616,0,0,0,3.557.933,2.67,2.67,0,0,0,.933-3.558,40.686,40.686,0,0,1-2.524-10.376,78.421,78.421,0,0,1-.472-12.717,54.457,54.457,0,0,1,6.288-23.955A39.44,39.44,0,0,1,256.2,49.492c2.478-2.26-1.207-5.929-3.677-3.677Z"/><path class="c" d="M294.938,21.831a54.752,54.752,0,0,0-26.228,6.436A71.319,71.319,0,0,0,250.582,42.6c-.866.928-1.7,1.882-2.479,2.886a4.1,4.1,0,0,0-1.231,2.654,2.671,2.671,0,0,0,2.6,2.6,2.619,2.619,0,0,0,2.6-2.6,2.715,2.715,0,0,1-.287,1.1c.051-.025.114-.2.151-.247.069-.09.135-.189.2-.283.376-.567-.251.272.023-.034.683-.765,1.322-1.565,2.021-2.318a78.12,78.12,0,0,1,6.757-6.426,61.7,61.7,0,0,1,9.1-6.461,51.717,51.717,0,0,1,10.828-4.468,45.453,45.453,0,0,1,14.075-1.979c3.348.048,3.349-5.152,0-5.2Z"/><path class="c" d="M348.553,38.815c-4.087-7.989-12.279-13.293-20.316-16.688-7.78-3.288-16.219-4.155-24.609-4.27a95.15,95.15,0,0,0-16.458,1.16,2.619,2.619,0,0,0-1.815,3.2,2.662,2.662,0,0,0,3.2,1.816,90.945,90.945,0,0,1,26.013-.234,46.633,46.633,0,0,1,21.235,8.42,26.45,26.45,0,0,1,8.262,9.222c1.525,2.98,6.013.352,4.49-2.624Z"/><path class="c" d="M351.638,49.392c7.316,3.465,12.108,10.792,15.165,17.96,3.313,7.77,4.269,16.707,4.071,25.155a65.636,65.636,0,0,1-2.234,15.882c-.889,3.231,4.127,4.61,5.014,1.382a76.155,76.155,0,0,0,1.578-30.846,53.043,53.043,0,0,0-9.279-23.7A31.526,31.526,0,0,0,354.262,44.9a2.672,2.672,0,0,0-3.557.932,2.623,2.623,0,0,0,.933,3.558Z"/><path class="c" d="M302.571,159.972a11.827,11.827,0,0,1,1.469-1.557c.1-.093.441-.367.158-.15.133-.1.272-.2.411-.294q.468-.32.967-.593.221-.121.447-.234c.071-.035.581-.264.184-.1.31-.129.63-.238.951-.336a10.914,10.914,0,0,1,1.1-.275c.046-.01.54-.095.276-.056-.288.042.369-.028.358-.028a8.575,8.575,0,0,1,.921,0c.066,0,.7.061.351.02-.305-.036.181.035.234.045a9.976,9.976,0,0,1,1.035.26c.145.045.914.337.5.157a9.641,9.641,0,0,1,1.863,1.074c-.352-.258.276.249.387.354a9.619,9.619,0,0,1,.8.866,2.609,2.609,0,0,0,3.677,0,2.673,2.673,0,0,0,0-3.677,12.242,12.242,0,0,0-9.763-4.3,13.977,13.977,0,0,0-10,5.145,2.669,2.669,0,0,0,0,3.677c.94.862,2.775,1.138,3.677,0Z"/><path class="c" d="M274.071,106.694a33.408,33.408,0,0,0,6.014-1.517c2.139-.823,4.41-2.02,5.473-4.172a2.6,2.6,0,0,0-4.49-2.624,5.259,5.259,0,0,1-.295.509c-.126.195-.323.261.177-.222-.066.063-.121.14-.184.207-.143.152-.3.288-.453.428-.3.272.456-.324.2-.153-.083.056-.162.117-.245.173a9.343,9.343,0,0,1-1.148.652c-.1.048-.2.092-.3.139-.392.187.487-.194.191-.077-.232.092-.465.184-.7.268a35.627,35.627,0,0,1-5.628,1.375,2.613,2.613,0,0,0-1.816,3.2,2.669,2.669,0,0,0,3.2,1.816Z"/><path class="c" d="M378.26,46.956a20.2,20.2,0,0,0,11.588,1.576c3.456-.552,7.2-2.084,8.726-5.471a9.9,9.9,0,0,0-1.7-10.466c-2.317-2.71-6.224-4.337-9.727-3.111a5.2,5.2,0,0,0-3.4,3.842,7.894,7.894,0,0,0,.946,4.727,10.4,10.4,0,0,0,6.354,5.342c6.271,1.984,14.383.907,18.75-4.436a15.492,15.492,0,0,0,3.541-9.8,20.838,20.838,0,0,0-3.122-9.973c-3.188-5.655-10.726-12.157-17.629-8.8-3.364,1.636-4.422,5.3-3.784,8.777.688,3.745,3.443,6.88,6.151,9.389,5.22,4.837,14.2,9.3,20.95,4.829,6.265-4.147,6.586-12.392,4.363-18.9C418.2,8.423,412.879,1.94,406.44.325a10.958,10.958,0,0,0-5.118-.044c-3.264.731-1.883,5.745,1.382,5.014,4.015-.9,8.108,3.252,10.254,6.24,2.692,3.75,4.487,9.5,2.837,13.991a6.79,6.79,0,0,1-3.735,4.024c-2.479.971-5.293.228-7.614-.831a22.422,22.422,0,0,1-6.548-4.547c-1.765-1.754-3.719-3.816-4.084-6.393a2.911,2.911,0,0,1,.387-2.206,2.556,2.556,0,0,1,1.72-.844c2.044-.241,4.278,1.016,5.839,2.3a18.013,18.013,0,0,1,4.723,6.225,13.3,13.3,0,0,1,1.631,6.629c-.266,4.684-3.664,7.936-8.073,8.937a13.919,13.919,0,0,1-6.641-.171c-.47-.122-.94-.248-1.4-.415-.477-.174.47.264-.254-.108-.154-.078-.306-.162-.453-.253a3.251,3.251,0,0,1-.818-.65c-.217-.2-.425-.411-.632-.621q-.279-.3.014.069c-.1-.142-.189-.289-.274-.439a6.122,6.122,0,0,1-.5-1.082c-.1-.282-.141-.6-.25-.875l.011.17q0-.444-.033-.03c-.133-.068.222-.075.041-.042a4.883,4.883,0,0,1,1.636-.035,5.288,5.288,0,0,1,3.73,5.023c-.1,2.562-2.322,3.388-4.5,3.906a14.1,14.1,0,0,1-8.837-.806,2.682,2.682,0,0,0-3.558.932,2.621,2.621,0,0,0,.933,3.558Z"/><path class="a" d="M131.861,66.452a68.256,68.256,0,0,1,4.595,22.423,121.437,121.437,0,0,1-1.328,20.062l0,.029a7.264,7.264,0,0,1,.833.077,7.878,7.878,0,0,1,5.665,3.766,11.151,11.151,0,0,1,1.166,4.482,33.376,33.376,0,0,1-3.4,17.7,21.21,21.21,0,0,1-5.486,7.2c-2.168,1.729-4.346,2.585-7.848.941a65.8,65.8,0,0,1-12.391,23.235C105.745,175.835,96.9,181.18,86.6,183.434a72.789,72.789,0,0,1-13.684,1.388A81.993,81.993,0,0,1,60.3,183.471c-10.371-1.918-20.219-7.636-28.133-17.108a65.59,65.59,0,0,1-12.112-22.337c-3.649,1.686-6.343-.169-8.437-1.839a21.21,21.21,0,0,1-5.486-7.2,33.376,33.376,0,0,1-3.4-17.7A11.151,11.151,0,0,1,3.9,112.809a7.991,7.991,0,0,1,8.02-3.764l-.313-1.982a114.782,114.782,0,0,1-1.343-18.188C11.312,63.653,24.476,48.07,36.1,39.322c10.011-7.534,22.521-12.029,37.254-12.029a61.34,61.34,0,0,1,37.26,12.029A61.048,61.048,0,0,1,131.861,66.452Z"/><path class="b" d="M27.8,36.554c-6.83,5.431-11.621,11.163-11.507,11.588,0,0,1.141.93,2.475,2A54.875,54.875,0,0,0,7.9,71.728c-2.55,10.418-2.389,27.8,2,37.263a8.266,8.266,0,0,1,6.094,2l8.49-3.454c1.623-6.53,3.231-12.276,4.626-18.858l-4.148-3.846a51.575,51.575,0,0,1,5.121-6.975,62.956,62.956,0,0,1,6.379-5.643c3.221-2.468,7.412-5.844,10.633-8.311,0,0-.31-1.456-.694-3.255,8.845-2.31,21.206.874,26,8.167,4.31-1.93,10.652-1.5,15.36-1.091a53.439,53.439,0,0,1,13.037,2.63,58.254,58.254,0,0,1,12.626,5.649,26.661,26.661,0,0,1,7.252,7.985c5.121,9.119,8.162,21.558,7.7,27.7a8.165,8.165,0,0,1,7.338-2.653,7.67,7.67,0,0,1,2.091.621c4.03-13.825,2.892-31.207-1.111-41.607-2.777-7.216-8.3-16.92-16.92-20.91l-6.642-7.02c-3.7-7.385-12.447-13.426-22.621-16.994-7.125-2.5-23-3.713-35.825-1.609l.308,3.237a57.412,57.412,0,0,0-13.157,3.5A52.29,52.29,0,0,0,27.8,36.554Z"/><path class="b" d="M72.717,69.459c6.522-1.393,13.24-2.259,19.9-1.4,7.176.921,13.817,4.5,19.491,8.865a2.615,2.615,0,0,0,3.557-.932,2.667,2.667,0,0,0-.933-3.558c-6.337-4.873-13.715-8.494-21.687-9.521-7.263-.935-14.592.015-21.71,1.536a2.6,2.6,0,1,0,1.382,5.014Z"/><path class="c" d="M131.118,112.835a5.621,5.621,0,0,1,8.077.981c1,1.476,1.043,3.528,1.1,5.245a29.6,29.6,0,0,1-.372,5.932,30.661,30.661,0,0,1-4.186,11.19c-1.6,2.527-4.227,5.92-7.561,5-3.23-.893-4.608,4.122-1.382,5.015,8.733,2.416,14.489-7.8,16.824-14.649a35.546,35.546,0,0,0,1.877-12.485c-.137-4.332-1.1-8.451-4.906-10.982a11.007,11.007,0,0,0-13.146,1.079,2.623,2.623,0,0,0,0,3.677,2.653,2.653,0,0,0,3.677,0Z"/><path class="c" d="M18.076,109.158a11.074,11.074,0,0,0-12-1.714C2.008,109.355.459,113.273.111,117.512c-.688,8.4,1.829,17.662,7.29,24.164,2.99,3.559,7.34,6.428,12.14,5.3,3.257-.763,1.878-5.778-1.383-5.015-3.183.746-6.332-2.765-7.922-5.092A29.968,29.968,0,0,1,5.674,125.43a29.563,29.563,0,0,1-.46-5.926c.031-1.834.041-4.105,1.108-5.688a5.621,5.621,0,0,1,8.077-.981,2.668,2.668,0,0,0,3.677,0,2.623,2.623,0,0,0,0-3.677Z"/><path class="c" d="M73.744,131.668a50.713,50.713,0,0,1,1.2,5.487l-.092-.691a3.306,3.306,0,0,1,.02.757l.093-.691a1.906,1.906,0,0,1-.083.341l.262-.622a1.421,1.421,0,0,1-.12.22l.406-.527a1.152,1.152,0,0,1-.179.177l.526-.407a3.6,3.6,0,0,1-.434.23l.621-.262a3.191,3.191,0,0,1-.733.214l.691-.093a2.871,2.871,0,0,1-.687,0l.691.093c-.259-.036-.514-.1-.773-.134a2.875,2.875,0,0,0-2,.262,2.6,2.6,0,0,0-.932,3.557,2.488,2.488,0,0,0,1.554,1.195c.571.077,1.125.223,1.706.248a5.4,5.4,0,0,0,2.49-.589,3.543,3.543,0,0,0,1.98-2.344,5.971,5.971,0,0,0-.026-2.549c-.3-1.768-.707-3.519-1.162-5.253a2.6,2.6,0,0,0-5.014,1.382Z"/><path class="c" d="M44.854,116.335c-.895,2.911-.311,9.607,5.2,10.177,7.289-.043,7.677-8.139,5.223-11.946C53.271,111.45,47.364,110.154,44.854,116.335Z"/><path class="c" d="M102.983,116.336c.9,2.91.312,9.607-5.2,10.176-7.289-.044-7.677-8.139-5.223-11.946C94.566,111.45,100.473,110.154,102.983,116.336Z"/><path class="c" d="M44.77,63.931a22.943,22.943,0,0,1,13.607-.77c4.291.97,8.9,3.067,11.4,6.436a2.68,2.68,0,0,0,3.557.933,2.618,2.618,0,0,0,.933-3.557c-3.432-4.611-8.65-7.433-14.182-8.75-5.409-1.287-11.473-1.395-16.7.693a2.681,2.681,0,0,0-1.816,3.2,2.619,2.619,0,0,0,3.2,1.816Z"/><path class="c" d="M69.228,51.661a25.617,25.617,0,0,1,2.7.812c.241.088.479.182.719.275.419.162-.039-.024.2.086.429.192.854.391,1.273.6a25.8,25.8,0,0,1,2.331,1.345q.591.382,1.163.8c.045.033.554.415.351.259-.139-.108.36.291.439.357a25.981,25.981,0,0,1,3.847,3.935c-.217-.276.058.081.136.188.127.172.251.345.373.521q.44.63.839,1.288a25.307,25.307,0,0,1,1.324,2.488,2.622,2.622,0,0,0,3.558.932,2.66,2.66,0,0,0,.933-3.557A28.507,28.507,0,0,0,70.611,46.647a2.6,2.6,0,1,0-1.383,5.014Z"/><path class="c" d="M91.282,54.843c.24.151.478.307.71.471.093.066.184.133.277.2.465.336-.31-.261-.054-.042.41.352.822.7,1.207,1.078.4.4.778.827,1.143,1.263.217.259-.017-.006-.09-.123.074.118.171.229.253.343.166.23.326.466.48.7a16.026,16.026,0,0,1,.805,1.405q.174.342.331.693c.227.505.025-.069-.028-.072a1.834,1.834,0,0,1,.154.4,15.182,15.182,0,0,1,.486,1.544c.071.275.135.552.19.83.043.214.18,1.118.072.319a2.869,2.869,0,0,0,.762,1.838,2.642,2.642,0,0,0,1.838.762c1.254-.056,2.794-1.156,2.6-2.6a18.341,18.341,0,0,0-8.512-13.5,2.624,2.624,0,0,0-3.557.933,2.656,2.656,0,0,0,.933,3.558Z"/><path class="c" d="M111.581,77.847a28.132,28.132,0,0,1,6.653,7.126,50.02,50.02,0,0,1,3.894,8.433,53.352,53.352,0,0,1,3.684,16.417c.1,3.339,5.3,3.353,5.2,0A57.754,57.754,0,0,0,127,91.637a54.86,54.86,0,0,0-4.378-9.455,32.308,32.308,0,0,0-7.363-8.012,2.679,2.679,0,0,0-3.677,0,2.619,2.619,0,0,0,0,3.677Z"/><path class="c" d="M45.782,61.664c-4.955,3.8-10.073,7.544-14.743,11.695-4.258,3.784-7.357,8.456-10.268,13.315-1.724,2.878,2.77,5.5,4.49,2.625,2.7-4.508,5.5-8.753,9.455-12.263,4.337-3.854,9.08-7.343,13.69-10.882a2.688,2.688,0,0,0,.933-3.558C48.7,61.5,46.9,60.8,45.782,61.664Z"/><path class="c" d="M25.135,87.993c-1.349,6.333-3.062,12.577-4.626,18.858a2.6,2.6,0,0,0,5.014,1.382c1.565-6.281,3.277-12.525,4.627-18.858a2.661,2.661,0,0,0-1.816-3.2,2.627,2.627,0,0,0-3.2,1.816Z"/><path class="c" d="M19.344,45.815A42.14,42.14,0,0,0,11.6,55.844,58.5,58.5,0,0,0,5.667,69.961a71.357,71.357,0,0,0-1.6,25.864,48.454,48.454,0,0,0,3.34,13.929,2.616,2.616,0,0,0,3.557.933,2.67,2.67,0,0,0,.933-3.558A40.685,40.685,0,0,1,9.375,96.753,78.309,78.309,0,0,1,8.9,84.036,54.484,54.484,0,0,1,15.19,60.081a39.44,39.44,0,0,1,7.831-10.589c2.478-2.26-1.207-5.929-3.677-3.677Z"/><path class="c" d="M61.761,21.831a54.753,54.753,0,0,0-26.229,6.436A71.336,71.336,0,0,0,17.4,42.6c-.866.928-1.7,1.882-2.478,2.886a4.1,4.1,0,0,0-1.232,2.654,2.672,2.672,0,0,0,2.6,2.6,2.619,2.619,0,0,0,2.6-2.6,2.732,2.732,0,0,1-.286,1.1c.05-.025.113-.2.15-.247.069-.09.135-.189.2-.283.376-.567-.251.272.023-.034.683-.765,1.322-1.565,2.021-2.318a78.12,78.12,0,0,1,6.757-6.426,61.7,61.7,0,0,1,9.1-6.461A51.739,51.739,0,0,1,47.685,29.01a45.455,45.455,0,0,1,14.076-1.979c3.347.048,3.348-5.152,0-5.2Z"/><path class="c" d="M115.375,38.815c-4.087-7.989-12.278-13.293-20.316-16.688-7.78-3.288-16.219-4.155-24.609-4.27a95.131,95.131,0,0,0-16.457,1.16,2.618,2.618,0,0,0-1.816,3.2,2.663,2.663,0,0,0,3.2,1.816A90.952,90.952,0,0,1,81.389,23.8a46.633,46.633,0,0,1,21.234,8.42,26.45,26.45,0,0,1,8.262,9.222c1.525,2.98,6.013.352,4.49-2.624Z"/><path class="c" d="M118.46,49.392c7.317,3.465,12.108,10.792,15.165,17.96,3.313,7.77,4.269,16.707,4.071,25.155a65.538,65.538,0,0,1-2.234,15.882c-.888,3.231,4.127,4.61,5.014,1.382a76.155,76.155,0,0,0,1.578-30.846,53.043,53.043,0,0,0-9.279-23.7A31.531,31.531,0,0,0,121.085,44.9a2.673,2.673,0,0,0-3.558.932,2.623,2.623,0,0,0,.933,3.558Z"/><path class="c" d="M63.166,154.753c7.717-.674,15.467-.447,23.2-.79l-2.507-3.291a23.213,23.213,0,0,1-3.109,8.406c-1.223,1.975-3.118,3.814-5.441,3.717-2.113-.089-4.273-1.753-5.8-3.386a14.629,14.629,0,0,1-3.656-7.076,2.6,2.6,0,1,0-5.014,1.383C62.21,160.3,68.053,167.762,75.308,168c8.09.259,12.431-9.254,13.564-15.941a2.636,2.636,0,0,0-2.507-3.291c-7.732.343-15.482.116-23.2.79a2.669,2.669,0,0,0-2.6,2.6,2.619,2.619,0,0,0,2.6,2.6Z"/><path class="c" d="M152.285,23.189c-2.477,4.069-5.029,8.106-7.725,12.033a2.616,2.616,0,0,0,.933,3.558,2.665,2.665,0,0,0,3.557-.933c2.7-3.927,5.248-7.965,7.725-12.034a2.6,2.6,0,1,0-4.49-2.624Z"/><path class="c" d="M165.408,39.808q-6.222,3.129-12.6,5.933a2.607,2.607,0,0,0-.933,3.557,2.68,2.68,0,0,0,3.557.933q6.375-2.8,12.6-5.933a2.617,2.617,0,0,0,.932-3.557,2.663,2.663,0,0,0-3.557-.933Z"/><path class="c" d="M173.159,60.525q-7.046-.237-14.048-1.1a2.605,2.605,0,0,0-2.6,2.6,2.679,2.679,0,0,0,2.6,2.6q7,.865,14.048,1.1a2.621,2.621,0,0,0,2.6-2.6,2.653,2.653,0,0,0-2.6-2.6Z"/><path class="c" d="M16.05,139.128c4.493,20.061,18.275,39.291,38.484,45.593a67.429,67.429,0,0,0,16.454,2.622A61.054,61.054,0,0,0,88.75,185.6a50.737,50.737,0,0,0,25.324-15.749,68.814,68.814,0,0,0,15.7-30.721c.73-3.26-4.282-4.652-5.014-1.383-4.021,17.951-16.061,35.967-34.176,41.909-9.981,3.274-21.236,3.273-31.419.932A46.159,46.159,0,0,1,35.28,166a63.115,63.115,0,0,1-14.216-28.252c-.731-3.264-5.745-1.883-5.014,1.383Z"/></svg>