<?xml version="1.0" encoding="utf-8"?>
<!-- Uploaded to: SVG Repo, www.svgrepo.com, Generator: SVG Repo Mixer Tools -->
<svg width="800px" height="800px" viewBox="-25.45 0 395.231 395.231" xmlns="http://www.w3.org/2000/svg"><defs><style>.a{fill:#ffffff;}.b{fill:#f4b467;}.c{fill:#79c6e0;}.d{fill:#b5886a;}.e{fill:#211715;}.f{fill:#d9d9d9;}.g{fill:#645d5c;}</style></defs><path class="a" d="M116.076,224.516c-1.717.411-3.474.732-5.265.99a28.328,28.328,0,0,1-16.377-2.514L90.763,233l2.251,4.251a18.43,18.43,0,0,0,12.667,9.7,28.284,28.284,0,0,0,17.39-1.79c.313-.147.623-.3.926-.46a8.811,8.811,0,0,1-.32-1.1c-.555-2.636-1.635-11.721-1.86-13.491a34.977,34.977,0,0,1,.378-7.563A40.184,40.184,0,0,1,116.076,224.516Z"/><path class="a" d="M117.505,236.116c-20.889-26.222-54.743-34-54.743-34a23.872,23.872,0,0,0-5.861-1.592c-4.2-9.472-14.074-21.086-22.218-28.219A68.454,68.454,0,0,0,6.6,157.61a62.932,62.932,0,0,0-4.695-38.2,204.839,204.839,0,0,0,77.745,20.256c14.358,12.435,68.635,35.762,96.24,38.649,15.069,18.483,33.6,37.452,50.729,54.511-5.787-.574-9.177,1.744-12.207,4.78-2.013,2.017-3.061,4.8-4.124,7.448-4.227-4.961-10.758-7.324-16.708-8.963-11.637-3.206-16.455-3.713-24.316-3.966C169.267,232.126,137.727,231.227,117.505,236.116Z"/><path class="b" d="M324.344,2.9a21.743,21.743,0,0,0-26.3,16.9c-2.787,13,4.345,23.892,16.975,26.6,13.116,2.812,23.618-4.387,26.387-17.3A21.724,21.724,0,0,0,324.344,2.9Z"/><path class="c" d="M162.246,243.985c-4.658-5.384-11.314-8.173-18.054-10.356a12.048,12.048,0,0,0-4.861-.838c-1.482.15-2.427,1.135-3.445,2.337-3.808,3.967-7.862,7.719-12.815,10.035a26.69,26.69,0,0,1-16.865,1.866c-4.152-.912-8.345-3.315-10.514-6.784-2.085-2.329-4.308-5.531-6.678-6.255-5.333-1.63-10.519.3-13.647,1.38-.835.289-1.642.659-2.468,1.025-4.265,1.871-8.291,4.433-10.894,7.925a60.5,60.5,0,0,0-7.33,13.017c-.742,1.715-12.64,29.819-14.407,43.641-.648,5.051-.732,10.247.962,15.109a19.16,19.16,0,0,0,10.654,11.522c5.449,2.2,11.975,1.63,17.444-.577-.653,7.953-2.36,17.685-2.842,22.449,7.249,2.257,24.069,4.231,44.361,5.271l30.464-20.423c4.147,1.751,6.083,1.691,9.525,1.691a29.768,29.768,0,0,0,7.209-1.246c7-2.861,12.016-9.476,14.079-16.592,1.632-5.633,1.816-11.569,1.989-17.431.62-21.074,3.275-39.9-11.867-56.766"/><path class="d" d="M152.9,237.906c4.112-1.974,7.621-6.74,7.945-9.747a31.483,31.483,0,0,0-.7-11.055c-1.063-4.953-2.928-14.983-1.1-32.286h0a107.358,107.358,0,0,0,1.571-15.038c.435-9.718-2.778-21.011-8.537-27.763a42.127,42.127,0,0,0-12.983-9.529,49.082,49.082,0,0,0-17.861-4.81C108.248,126.515,96.2,132,90.566,136.128,79.42,144.281,71.935,162.667,73.689,176.1l0,0c.915,15.6-5.5,31.783-5.419,44.584.012,3.839,1.544,8.586,6.58,12.663l10.125,8.65,10.555-22,27.112-1.111,25.333,20.889Z"/><path class="a" d="M92.992,226.921,94.432,223a30.409,30.409,0,0,1-6.319-4.056q-7.972,21.728-15.944,43.455a28.021,28.021,0,0,1,3.254.509c.676.172,2.067.518,2.067.518a11.069,11.069,0,0,1,1.879.634Q86.181,245.486,92.992,226.921Z"/><path class="a" d="M144.305,205.607l.185-.12a18.951,18.951,0,0,0,4.408-4.7,12.917,12.917,0,0,0,2.367-8.047,10.355,10.355,0,0,0-.674-3.289A4.454,4.454,0,0,0,147.635,187c-1.471-.383-2.862.3-4.3.873-6.735-2.436-10.334-10.777-11.465-14.433-.8-2.587-2.266-9.477-1.684-14.058-3.964,5.143-35.789,12.243-48.575,12.243l-7.152,4.7a63.551,63.551,0,0,0,.821,22.007c1.026,4.513,3.631,9.17,6.066,12.95,6.5,10.079,17.6,15.933,29.469,14.224,6.336-.913,12.239-2.616,17.48-6.293a60.205,60.205,0,0,0,7.189-5.845c1.416-1.328,3.424-3.565,4.471-4.807C141.993,207.358,143.224,206.323,144.305,205.607Z"/><path class="e" d="M72.055,176.325a65.7,65.7,0,0,0,.436,20.33,43.29,43.29,0,0,0,7.854,17.41c6.644,9.165,17.471,15.061,28.955,14.018,7.095-.644,14.3-2.721,20.2-6.8a2.462,2.462,0,0,0,.861-3.284,2.423,2.423,0,0,0-3.284-.861,38.23,38.23,0,0,1-16.26,5.955,26.34,26.34,0,0,1-14.237-1.744,29.51,29.51,0,0,1-11.554-8.99,39.151,39.151,0,0,1-7.54-15.128,60.76,60.76,0,0,1-.633-20.908,2.412,2.412,0,0,0-2.4-2.4,2.462,2.462,0,0,0-2.4,2.4Z"/><path class="e" d="M144.406,190.006c1.04-.42,2.259-1.1,3.3-.38.788.546.838,1.109,1.04,2.089a10.4,10.4,0,0,1-.65,5.585c-1.881,4.293-5.479,6.87-9.381,9.2-2.648,1.583-.237,5.735,2.423,4.145,5.088-3.041,10.219-7.107,11.928-13.059a14.183,14.183,0,0,0-.165-8.775,6.707,6.707,0,0,0-3.463-3.69c-2.154-.986-4.19-.6-6.312.254a2.476,2.476,0,0,0-1.676,2.953,2.416,2.416,0,0,0,2.952,1.676Z"/><path class="e" d="M155.355,239.785a15.192,15.192,0,0,0,7.451-9.28c1.307-4.481.592-9.569-.354-14.039-.191-.905-.377-1.81-.543-2.72q-.136-.749-.258-1.5c-.046-.29-.091-.579-.135-.869-.026-.177-.157-1.115-.11-.758a88.691,88.691,0,0,1-.714-9.771,129.119,129.119,0,0,1,.75-16.032l-1.762,2.314h0a2.367,2.367,0,0,0,1.676-1.677,97.063,97.063,0,0,0,1.633-15.167,48.2,48.2,0,0,0-2.183-16.71,35.961,35.961,0,0,0-7.772-14.075A43,43,0,0,0,140,130.266c-10.981-5.054-23.219-6.592-34.978-3.41a50.266,50.266,0,0,0-14.376,6.308A38.245,38.245,0,0,0,80.4,143.431C74,152.6,69.883,164.849,71.289,176.1a2.424,2.424,0,0,0,4.472,1.211l0,0-4.473-1.212c.467,8.62-1.2,17.094-2.86,25.507-.8,4.055-1.579,8.113-2.1,12.215a38.039,38.039,0,0,0-.177,10.413,17.167,17.167,0,0,0,6.27,10.57,2.467,2.467,0,0,0,3.394,0,2.419,2.419,0,0,0,0-3.394,13.093,13.093,0,0,1-4.988-8.152,35.144,35.144,0,0,1,.277-9.239c.978-7.944,3.071-15.712,4.176-23.639a74.205,74.205,0,0,0,.8-14.281,2.422,2.422,0,0,0-4.472-1.211l0,0,4.472,1.212c-1.159-9.272,1.7-18.955,6.34-26.932a34.069,34.069,0,0,1,19.689-16.356,46.03,46.03,0,0,1,32.518.329,42.666,42.666,0,0,1,12.6,7.486,28.517,28.517,0,0,1,7.824,11.084,43.513,43.513,0,0,1,3.185,17.31,85.347,85.347,0,0,1-1.511,15.161l1.676-1.676h0a2.473,2.473,0,0,0-1.762,2.314,113.98,113.98,0,0,0-.262,23.9c.641,6.009,2.628,11.984,2.192,18.052a10.921,10.921,0,0,1-1.468,4.912,9.962,9.962,0,0,1-4.172,3.96c-2.76,1.388-.332,5.53,2.423,4.145Z"/><path class="e" d="M127.675,160.506a39.078,39.078,0,0,0,2.857,16.238c2.148,5.179,5.533,10.439,10.789,12.874a2.47,2.47,0,0,0,3.284-.861,2.421,2.421,0,0,0-.861-3.284c-4.289-1.987-7.177-6.5-8.781-10.487a35.508,35.508,0,0,1-2.488-14.48c.139-3.089-4.662-3.082-4.8,0Z"/><path class="e" d="M127.689,158.463c.6-.47,0-.011-.152.089-.176.119-.357.232-.539.342-.466.28-.947.535-1.434.777a26.689,26.689,0,0,1-3.222,1.376c-3.062,1.153-6.2,2.09-9.362,2.942a175.734,175.734,0,0,1-21.874,4.461,74.052,74.052,0,0,1-9.5.77c-3.089.009-3.095,4.809,0,4.8,6.841-.02,13.748-1.257,20.439-2.576a138.222,138.222,0,0,0,21.22-5.637,28.113,28.113,0,0,0,7.817-3.95,2.414,2.414,0,0,0,0-3.394,2.461,2.461,0,0,0-3.394,0Z"/><path class="e" d="M129.5,221.285a61.025,61.025,0,0,0,11.694-10.5,2.4,2.4,0,1,0-3.394-3.4,58.893,58.893,0,0,1-4.707,4.915q-1.484,1.357-3.042,2.627-.372.3-.748.6c-.532.42.214-.155-.1.078-.142.1-.281.213-.422.318q-.838.625-1.7,1.214a2.4,2.4,0,1,0,2.423,4.145Z"/><path class="a" d="M109.551,389.254H61.077q-.018-1.134-.035-2.291A184.774,184.774,0,0,1,64.9,356.882l1.447-7.454c7.136,2.276,23.958,4.263,44.3,5.314-.341,10.846-.323,22.241.12,32.486a5.63,5.63,0,0,0,.467,2.026Z"/><path class="e" d="M71.218,263.3c-1.579,3.832-3.7,7.418-5.568,11.109-1.861,3.668-3.851,7.671-4.4,11.789a18.208,18.208,0,0,0,.33,5.457c.362,2.189.8,4.367,1.233,6.542,1.053,5.248,2.178,10.483,3.174,15.743.222,1.167.436,2.336.635,3.507q.122.72.235,1.44c.037.239.072.478.108.717.015.1.028.195.042.292.053.366-.071-.585,0,.013a35.667,35.667,0,0,1-.1,7.245c-.6,7.236-1.918,14.379-2.752,21.586a2.415,2.415,0,0,0,2.4,2.4,2.457,2.457,0,0,0,2.4-2.4c.7-6.092,1.829-12.527,2.489-18.814a49,49,0,0,0,.493-8.8c-.155-1.979-.511-3.955-.856-5.908-.918-5.194-2.025-10.353-3.08-15.52-.486-2.378-.97-4.757-1.412-7.143-.168-.907-.331-1.815-.473-2.726-.031-.2-.059-.394-.09-.591-.091-.57.035.348-.007-.044-.031-.289-.071-.578-.089-.869a12.376,12.376,0,0,1,.951-4.879,54.914,54.914,0,0,1,2.6-6.018c2.138-4.284,4.526-8.42,6.353-12.855a2.416,2.416,0,0,0-1.676-2.953,2.46,2.46,0,0,0-2.952,1.677Z"/><path class="e" d="M110.847,352.352c-9.086-.47-18.173-1.12-27.21-2.2-5.614-.668-11.41-1.353-16.814-3.093-2.947-.948-4.209,3.685-1.276,4.629,5.688,1.831,11.814,2.508,17.72,3.22,9.158,1.105,18.37,1.765,27.58,2.241,3.088.16,3.079-4.64,0-4.8Z"/><path class="e" d="M62.585,356.244c-2.1,10.824-4.083,21.948-3.908,33.01.049,3.085,4.849,3.095,4.8,0-.169-10.649,1.715-21.316,3.736-31.734a2.462,2.462,0,0,0-1.676-2.952,2.422,2.422,0,0,0-2.952,1.676Z"/><path class="a" d="M41.95,295.734c1.044-3.977,2.908-5.781,6.146-5.3a4.938,4.938,0,0,1,4.047,5.895c-.877,3.913-.133,4.886.375,5.714a5.516,5.516,0,0,0,4.984,2.577,6.131,6.131,0,0,0,4.428-3.035c1.873-3.609,1.827-5.575,4.083-7.159a4.4,4.4,0,0,1,4.408.049,4.05,4.05,0,0,1,2.316,4.436c-.5,2.139-4.124,12.68-10.27,15.173s-12.194,1.086-17.039-3.374c-1.941-1.787-3.357-5.417-3.61-7.888C41.394,298.678,41.719,296.614,41.95,295.734Z"/><path class="e" d="M44.264,296.372a9.511,9.511,0,0,1,.888-2.338,2.883,2.883,0,0,1,.98-1.065,1.379,1.379,0,0,1,.612-.2c-.25.045.627-.011.742,0a2.758,2.758,0,0,1,1.441.544,2.284,2.284,0,0,1,.819,1.331,2.717,2.717,0,0,1-.015,1.5,11.1,11.1,0,0,0-.131,5.292,8.072,8.072,0,0,0,7.139,5.607,8.162,8.162,0,0,0,5.742-2.315,12.9,12.9,0,0,0,2.805-4.759c.509-1.23.913-2.791,1.942-3.476.98-.652,2.549.071,3.053,1.042-.127-.246.189.767.116.24.019.139,0,.814.035.485.036-.365-.05.179-.072.256-.054.191-.107.383-.164.573a32.438,32.438,0,0,1-1.129,3.116A26.723,26.723,0,0,1,64.6,309.6a11.268,11.268,0,0,1-9.235,3.276,12.361,12.361,0,0,1-10.224-6.886,15.506,15.506,0,0,1-1.111-5.894,22.158,22.158,0,0,1,.052-2.653c.012-.144.028-.287.043-.43.036-.343-.091.447,0,.007.047-.215.084-.431.138-.645.758-3-3.87-4.274-4.629-1.276a21.163,21.163,0,0,0,.564,11.346,14.875,14.875,0,0,0,3.532,5.968,20.277,20.277,0,0,0,6.686,4.2,17.267,17.267,0,0,0,14.235-.921c3.332-1.878,5.69-5.306,7.413-8.629a31.027,31.027,0,0,0,3-7.582c1.009-4.791-3.8-8.8-8.4-7.876a7.206,7.206,0,0,0-4.729,4.054c-.431.881-.763,1.809-1.139,2.714-.2.474-.408.94-.632,1.4q-.186.382-.387.756c-.041.076-.373.531-.13.224-.972,1.228-2.551,1.971-3.988,1.082a3.526,3.526,0,0,1-1.129-1.1c-.088-.143-.164-.3-.256-.436-.256-.39.12.42.034.1-.046-.168-.1-.334-.143-.5-.088-.337.026.409,0,.012a7.79,7.79,0,0,1-.017-.779,10.233,10.233,0,0,1,.217-1.707,9.158,9.158,0,0,0,.132-3.525,7.238,7.238,0,0,0-4.2-5.3,7.472,7.472,0,0,0-6.8.348c-2.145,1.376-3.209,3.768-3.86,6.142C38.818,298.079,43.447,299.352,44.264,296.372Z"/><path class="e" d="M82.309,262.985l13.954-38.032A2.421,2.421,0,0,0,94.587,222a2.451,2.451,0,0,0-2.953,1.676q-6.977,19.016-13.954,38.032a2.422,2.422,0,0,0,1.677,2.952,2.451,2.451,0,0,0,2.952-1.676Z"/><path class="e" d="M74.308,263.51l14.881-40.56A2.421,2.421,0,0,0,87.513,220a2.451,2.451,0,0,0-2.952,1.676l-14.882,40.56a2.422,2.422,0,0,0,1.677,2.952,2.451,2.451,0,0,0,2.952-1.676Z"/><path class="e" d="M126.429,227.083a27.028,27.028,0,0,0,6.93,9.36,2.4,2.4,0,0,0,3.394-3.394,26.276,26.276,0,0,1-1.971-1.907q-.453-.489-.882-1c-.142-.17-.281-.344-.421-.517-.32-.4.237.318.058.075-.074-.1-.149-.2-.222-.3a24.981,24.981,0,0,1-2.741-4.741,2.4,2.4,0,0,0-1.435-1.1,2.452,2.452,0,0,0-1.849.242,2.425,2.425,0,0,0-1.1,1.434,2.789,2.789,0,0,0,.242,1.85Z"/><path class="e" d="M90.942,238.461a21.31,21.31,0,0,0,14.5,10.892,30.2,30.2,0,0,0,22.185-3.971,55.71,55.71,0,0,0,9.854-8.452c2.146-2.223-1.244-5.622-3.394-3.394a47.461,47.461,0,0,1-9.969,8.366,24.5,24.5,0,0,1-11.737,3.268A21.656,21.656,0,0,1,102.6,243.4a16.8,16.8,0,0,1-7.51-7.366c-1.472-2.717-5.618-.3-4.144,2.423Z"/><path class="e" d="M127.409,192.586a9.7,9.7,0,0,0-.7,4.343,7.705,7.705,0,0,0,1.973,4.565,6.292,6.292,0,0,0,9.164.04,2.41,2.41,0,0,0,0-3.394,2.462,2.462,0,0,0-3.394,0c-.467.4.367-.24.016,0-.1.071-.208.146-.315.214a5.51,5.51,0,0,1-.813.425l.574-.242a4,4,0,0,1-.884.239l.638-.085a2.986,2.986,0,0,1-.634,0l.638.086a5.284,5.284,0,0,1-1.285-.36l.573.242a5.13,5.13,0,0,1-.7-.357c-.059-.036-.116-.074-.172-.114.34.273.439.348.3.228-.082-.095-.186-.176-.272-.268s-.152-.193-.238-.276q.375.5.161.2c-.044-.064-.087-.13-.129-.2a5.2,5.2,0,0,1-.369-.715l.242.573a5.583,5.583,0,0,1-.348-1.327l.086.638a6.929,6.929,0,0,1,.02-1.672l-.086.638a9.874,9.874,0,0,1,.579-2.148,2.418,2.418,0,0,0-.242-1.849,2.4,2.4,0,0,0-3.284-.861,2.755,2.755,0,0,0-1.1,1.434Z"/><path class="f" d="M133.191,307.381c-6.7.273-14.823.954-15.254,1.432a5.769,5.769,0,0,0-1.461.588,6.683,6.683,0,0,0-2.3,3.031,122.179,122.179,0,0,0-4.52,26.34,455.333,455.333,0,0,0-.675,48.456,5.782,5.782,0,0,0,5.725,5.525c21.634.222,62.307-2.666,78.583-4.5a6.735,6.735,0,0,0,5.989-7.032c-1.27-23.917-5.455-52.961-12.549-66.3-.52-.979-2.663-4.317-5.6-4.868,0,0-28.221-3.992-48.71-2.721"/><path class="e" d="M137.657,378.924c-1.2-13.937-2.889-27.846-5.391-41.612-1.224-6.736-2.646-13.437-4.313-20.077-.8-3.181-1.367-6.4-3.752-8.828a7.178,7.178,0,0,0-8.38-1.358c-2.524,1.166-3.691,3.757-4.405,6.273-.85,3-1.535,6.041-2.1,9.1a161.2,161.2,0,0,0-2.269,19.671c-.791,12.993-1.011,26.037-.667,39.049.075,2.861-.277,6.253.839,8.939a8.184,8.184,0,0,0,5.856,4.885,33.159,33.159,0,0,0,6.7.183q3.354-.029,6.707-.118c10.278-.259,20.55-.794,30.81-1.441,9.5-.6,19-1.3,28.476-2.181q2.655-.248,5.306-.523c2.166-.228,4.337-.36,6.244-1.541a9.22,9.22,0,0,0,4.305-6.784c.323-2.729-.186-5.718-.389-8.451a291.9,291.9,0,0,0-4.675-35.727,135.006,135.006,0,0,0-3.8-15.012c-1.226-3.789-2.563-8.028-4.981-11.249a10.736,10.736,0,0,0-6.006-4.4c-3.009-.674-4.294,3.952-1.276,4.628,3.327.746,4.881,4.932,5.967,7.645a94.43,94.43,0,0,1,3.91,12.639,234.965,234.965,0,0,1,5.234,32.1q.435,4.27.763,8.549c.209,2.734.539,5.526.525,8.27a4.388,4.388,0,0,1-2.6,3.981,15.473,15.473,0,0,1-4.485.68c-8.193.833-16.406,1.472-24.62,2.047-9.772.686-19.554,1.258-29.342,1.656-4.549.184-9.1.33-13.653.4q-2.928.045-5.856.04c-1.717-.006-3.365.027-4.415-1.557a5.207,5.207,0,0,1-.586-2.863q-.09-2.288-.151-4.577-.124-4.6-.146-9.213-.048-9.126.257-18.25c.4-11.975,1.013-24.022,3.816-35.715q.48-2,1.047-3.977c.074-.253.16-.508.225-.764.258-1.012-.19.223.177-.5a4.363,4.363,0,0,1,.843-1.217c1.7-1.595,3.484-.247,4.382,1.367a15.162,15.162,0,0,1,1.073,3.572q.654,2.531,1.261,5.074,1.107,4.642,2.066,9.318c2.6,12.657,4.438,25.461,5.771,38.311q.5,4.772.9,9.551a2.463,2.463,0,0,0,2.4,2.4,2.419,2.419,0,0,0,2.4-2.4Z"/><path class="e" d="M174.96,285.127a59.335,59.335,0,0,1,6.248,17.488,2.422,2.422,0,0,0,2.952,1.676,2.449,2.449,0,0,0,1.676-2.952,63.455,63.455,0,0,0-6.731-18.634,2.4,2.4,0,0,0-4.145,2.422Z"/><path class="c" d="M174.113,300.751c-.173,5.862-.357,11.8-1.989,17.431-2.063,7.116-7.082,13.731-14.079,16.592-1.658.678-6.6.7-7.846.549-2.518-.3-9.481-2.074-12.592-12l1.037-23.555Z"/><path class="a" d="M124.176,225.733c-.671-.2-2.305-.491-3.95-1.054a2.4,2.4,0,0,1-1.557-2.868c1.139-4.5,3.739-14.209,4.921-18.6a2.4,2.4,0,0,1,2.859-1.724c4.722,1.078,11.4,2.586,16.126,3.666a2.407,2.407,0,0,1,1.815,2.862c-.158.728-1.061,4.551-1.22,5.061Z"/><path class="e" d="M124.814,223.419c-.729-.2-1.473-.351-2.2-.54a5.55,5.55,0,0,1-1.745-.514c.154.159.131.092.132.108a5.948,5.948,0,0,1,.363-1.493q.3-1.162.605-2.324,1.305-4.986,2.641-9.964.572-2.139,1.147-4.278a3.418,3.418,0,0,1,.18-.625c.058-.119-.033.017-.144.024a11.4,11.4,0,0,1,2.718.6q5.832,1.327,11.666,2.65a7.269,7.269,0,0,1,1.907.527c-.105-.064.05-.288-.076.109-.1.3-.146.634-.219.944-.3,1.264-.563,2.546-.928,3.793-.871,2.97,3.76,4.239,4.628,1.276.94-3.205,2.647-7.9-.763-10.193a9.391,9.391,0,0,0-3.273-1.085l-3.669-.834-7.426-1.685c-2.3-.523-4.848-1.526-7.03-.128-1.9,1.218-2.229,3.459-2.769,5.473q-1.623,6.057-3.219,12.121c-.543,2.076-1.606,4.551-.834,6.665,1.095,3,4.37,3.259,7.037,4,2.981.83,4.252-3.8,1.276-4.629Z"/><path class="e" d="M122.3,310.7c4.2-.5,8.441-.742,12.665-.917a2.4,2.4,0,0,0,0-4.8c-4.224.175-8.465.414-12.665.917a2.461,2.461,0,0,0-2.4,2.4c.053,1.172,1.065,2.56,2.4,2.4Z"/><path class="e" d="M305.376,63.258l-14.141,55.433L288.2,130.61c-.764,2.994,3.864,4.272,4.628,1.276l13.919-54.563,3.263-12.789c.764-3-3.864-4.272-4.629-1.276Z"/><path class="e" d="M328.278,65.681l3.582,38.539.781,8.411a2.466,2.466,0,0,0,2.4,2.4,2.417,2.417,0,0,0,2.4-2.4L333.916,74.7l-.838-9.023a2.466,2.466,0,0,0-2.4-2.4,2.417,2.417,0,0,0-2.4,2.4Z"/><path class="e" d="M217.821,8.362l48.393,8.979L276.7,19.286a2.467,2.467,0,0,0,2.953-1.677,2.422,2.422,0,0,0-1.677-2.952L230.343,5.82,219.1,3.734a2.465,2.465,0,0,0-2.952,1.676,2.421,2.421,0,0,0,1.676,2.952Z"/><path class="e" d="M211.386,61.768,267,44.552l12.183-3.771c2.942-.911,1.687-5.546-1.276-4.629l-54.73,16.942L210.11,57.139c-2.942.911-1.687,5.546,1.276,4.629Z"/><path class="e" d="M242.706,108.192,282.953,66.46l8.683-9c2.145-2.225-1.245-5.623-3.394-3.4L248.629,95.137l-9.317,9.661c-2.146,2.224,1.244,5.622,3.394,3.394Z"/><path class="e" d="M324.982.583a25.371,25.371,0,0,0-15.9,1.644,23.942,23.942,0,0,0-10.78,10.1c-4.92,8.9-4.33,20.565,2.3,28.417,6.366,7.543,18.082,10.578,27.4,7.5,9.747-3.217,15.775-12.8,16.289-22.826a24.1,24.1,0,0,0-4.614-15.454,24.921,24.921,0,0,0-14.7-9.388c-3.01-.668-4.3,3.958-1.276,4.629,8.238,1.829,14.895,8.309,15.715,16.928.759,7.975-3.017,16.618-10.212,20.424-6.958,3.681-16.794,2.3-22.813-2.8-6.461-5.486-7.99-14.447-5.205-22.257A19.542,19.542,0,0,1,323.706,5.212C326.72,5.835,328.01,1.209,324.982.583Z"/><path class="e" d="M135.292,323.369c1.541,4.467,3.758,8.831,7.707,11.619a16.2,16.2,0,0,0,8.65,2.854,25.982,25.982,0,0,0,6.123-.493,17.108,17.108,0,0,0,6.2-3.189,29.069,29.069,0,0,0,9.417-12.355c2.329-5.65,2.8-11.915,3.027-17.96.208-5.517.435-11.037.59-16.555.278-9.919.009-20.157-3.563-29.542a47.782,47.782,0,0,0-3.722-7.72,40.237,40.237,0,0,0-5.775-7.74c-2.969-2.947-7.183-5.579-11.328-6.279a2.471,2.471,0,0,0-2.952,1.676,2.42,2.42,0,0,0,1.676,2.953c7.957,1.343,13.191,9.02,16.4,15.869,3.828,8.161,4.583,17.288,4.541,26.181-.023,4.816-.265,9.627-.447,14.438-.211,5.572-.131,11.225-1.157,16.726A27.254,27.254,0,0,1,165,326.665a21.634,21.634,0,0,1-4.834,4.308,11.565,11.565,0,0,1-4.815,1.924c-1.006.1-2.02.15-3.031.152-.421,0-.84-.015-1.261-.03-.03,0-.7-.071-.245-.008.394.055-.162-.041-.25-.062-.668-.157-1.334-.314-1.989-.522q-.492-.156-.973-.344c-.43-.167-.1-.043-.015,0-.2-.09-.4-.183-.59-.282a10.221,10.221,0,0,1-3.771-3.141,22.71,22.71,0,0,1-3.3-6.563c-1-2.9-5.64-1.656-4.629,1.276Z"/><path class="e" d="M68.686,324.719c-4.979,1.964-10.671,2.693-15.773.728a16.626,16.626,0,0,1-9.126-9.338,23.76,23.76,0,0,1-1.543-8.43,42.193,42.193,0,0,1,.172-4.4q.093-1.038.223-2.074a1.445,1.445,0,0,1,.037-.279c.035-.236.072-.473.11-.709a87.341,87.341,0,0,1,2.6-10.713c2.271-7.66,5.04-15.175,7.964-22.607q1.419-3.607,2.907-7.186c.1-.239.6-1.421.21-.5.085-.2.169-.4.254-.6a72.4,72.4,0,0,1,3.312-6.826c2.241-4.019,4.774-7.841,8.675-10.42A31.825,31.825,0,0,1,81.5,236.6a2.42,2.42,0,0,0,1.676-2.953,2.455,2.455,0,0,0-2.952-1.676,36.906,36.906,0,0,0-12.388,4.289,26.707,26.707,0,0,0-6.556,5.168,38.626,38.626,0,0,0-3.612,4.948c-3.47,5.421-5.844,11.444-8.22,17.4-3.089,7.742-6.009,15.572-8.425,23.552-2.776,9.167-5.314,19.543-2.261,28.953a21.759,21.759,0,0,0,11.2,13.092c6.283,2.9,13.659,2.475,20-.026a2.472,2.472,0,0,0,1.676-2.952,2.417,2.417,0,0,0-2.952-1.677Z"/><path class="e" d="M121.518,308.2a123.922,123.922,0,0,1,11.522-39.575,2.467,2.467,0,0,0-.861-3.284,2.42,2.42,0,0,0-3.283.861,130.786,130.786,0,0,0-12.178,42,2.415,2.415,0,0,0,2.4,2.4,2.454,2.454,0,0,0,2.4-2.4Z"/><path class="a" d="M73.695,262.583q.867.135,1.728.32c.676.172,2.067.518,2.067.518,2.4.6,4.162,1.657,4.773,3.722a4.709,4.709,0,0,1-2,5.279c2.274.495,3.585,1.908,3.4,3.988s-1.551,4.136-3.475,4.274c1.2.731,1.612,2.806,1.158,4.075s-1.942,3.252-3.559,3.176c1.491.822,1.053,3.4-.319,4.794s-3.557,1.339-5.493,1.085-5.327-1.089-6.788-.831l-.755.134c-2.965,2.164-6.715,2-10.216.781-2.538-.885-.948-14.141-.276-16.657,1.447-5.411,2.825-8.935,7.254-12.287C64.76,262.257,69.268,261.9,73.695,262.583Z"/><path class="e" d="M63.445,290.886a8.112,8.112,0,0,1-7.183,1.124c-.339-.088-.671-.194-1.006-.292-.892-.26-.178-.081-.007.02.487.286.173.02.472.457a1.337,1.337,0,0,0-.131-.23c.26.168.129.448.018.008-.028-.111-.065-.22-.093-.331-.039-.151-.07-.3-.1-.456-.022-.109-.116-.83-.053-.284a42.815,42.815,0,0,1,.421-10.416c-.06.451.075-.5.1-.661.047-.3.1-.607.152-.908.124-.673.3-1.325.48-1.984a23.366,23.366,0,0,1,2.495-6.228,13.68,13.68,0,0,1,4.745-4.565,13.269,13.269,0,0,1,7.209-1.436,21.368,21.368,0,0,1,7.312,1.475c1.754.772,2.525,2.849.778,4.17-1.528,1.157-1.621,3.851.574,4.387a3.31,3.31,0,0,1,1.364.577.835.835,0,0,1,.29.774c-.006.555-.435,2.113-1.092,2.2a2.424,2.424,0,0,0-1.211,4.472c.2.14.122,1.19.067,1.331-.138.354-.879,1.436-1.257,1.448a2.42,2.42,0,0,0-1.211,4.472c-.06-.04-.326-.5-.266-.488.1.016-.038.584-.038.583a2.016,2.016,0,0,1-.5.93c-.769.761-2.285.553-3.245.446-2.393-.264-4.917-1.219-7.339-.895a2.48,2.48,0,0,0-2.4,2.4c0,1.163,1.106,2.574,2.4,2.4a16.565,16.565,0,0,1,4.909.548,13.791,13.791,0,0,0,6.349.082c4.095-1.251,6.747-7.372,2.553-10.151l-1.211,4.473c5.743-.175,8.279-8.4,3.612-11.723l-1.211,4.472a6.852,6.852,0,0,0,5.875-6.674c.226-3.247-2.179-5.574-5.161-6.3l.573,4.387c2.926-2.214,4.3-5.709,2.628-9.182-1.312-2.721-4.172-3.752-6.9-4.436a26.549,26.549,0,0,0-9.83-.814,16.718,16.718,0,0,0-9.329,4.4c-3.815,3.483-5.891,8.68-6.726,13.7a46.568,46.568,0,0,0-.728,12.954,9,9,0,0,0,.858,3.27,4.391,4.391,0,0,0,2.935,2.083c3.844,1.143,8.167,1.011,11.487-1.441a2.472,2.472,0,0,0,.861-3.283,2.418,2.418,0,0,0-3.284-.861Z"/><path class="e" d="M80.9,270.107a44.938,44.938,0,0,0-4.668-1.059A19.726,19.726,0,0,0,71,268.585a2.591,2.591,0,0,0-1.7.7,2.4,2.4,0,0,0,1.7,4.1,11.049,11.049,0,0,1,2.1.032q.278.026.554.058l.316.038c.415.05-.49-.07-.188-.025.439.066.877.134,1.314.212a44.893,44.893,0,0,1,4.536,1.036,2.4,2.4,0,0,0,1.276-4.629Z"/><path class="e" d="M80.131,278.39a34.471,34.471,0,0,0-5.034-1.376,20.228,20.228,0,0,0-5.331-.5,2.4,2.4,0,0,0,0,4.8,12.821,12.821,0,0,1,2.173.042c.192.018.382.041.573.062.332.038-.1-.009-.2-.027.122.023.248.036.372.055q.647.1,1.288.23a34.378,34.378,0,0,1,4.881,1.346,2.414,2.414,0,0,0,2.952-1.676,2.463,2.463,0,0,0-1.676-2.953Z"/><path class="e" d="M77.623,285.061c-1.282-.289-2.561-.595-3.856-.825a18.036,18.036,0,0,0-4.382-.392,2.555,2.555,0,0,0-1.7.7,2.4,2.4,0,0,0,1.7,4.1,12.907,12.907,0,0,1,2.583.124l-.638-.086c1.692.231,3.352.633,5.017,1.007a2.4,2.4,0,1,0,1.276-4.628Z"/><path class="a" d="M131.963,261.143c1.534,6.157,1.517,19.951,1.664,28.782.108,6.454-.571,13.33.383,19.713s4.343,12.84,10.61,15.82,14.5,1.245,17.2-4.776c1.626-3.616,1.9-9.378,1.2-13.192-3-16.352-10.319-40.213-15.617-56.483,1.259-6.511,1.3-12.914,1.816-18.964.567-6.723-.81-8.6-5.986-13.96-.909-4.729-2.034-8.934-4.156-9.928a4.336,4.336,0,0,0-5.439,1.134c-1.42-.657-4.245-.251-5.219,1.016-.85,1.106-1.4,3.277-1.77,9.41a1.5,1.5,0,0,0-1.261-.984,2.3,2.3,0,0,0-2.375.947c-.943,1.154-1.495,8.119-1.2,10.436.225,1.77,1.305,10.855,1.86,13.491.69,3.283,2.954,5.9,4.869,9Z"/><path class="e" d="M145.785,253.8c3.463,10.707,6.831,21.451,9.8,32.309,1.407,5.152,2.727,10.332,3.85,15.554a42.819,42.819,0,0,1,1.208,13.656c-.382,3.884-1.814,7.212-5.811,8.549a12.723,12.723,0,0,1-11.594-2.019c-9.191-6.843-7.223-20.129-7.2-30.064.015-5.491-.1-11-.295-16.486-.174-4.9-.3-10-1.467-14.789-.728-3-5.358-1.73-4.628,1.276,1.02,4.207,1.116,8.7,1.281,13.131.191,5.155.248,10.317.3,15.475.123,11.5-1.905,25.025,7.387,33.811a17.9,17.9,0,0,0,14.047,4.993c4.756-.511,9.355-3.017,11.336-7.55s1.916-10.205,1.251-15.03a143.249,143.249,0,0,0-3.42-15.633c-3.3-12.961-7.307-25.737-11.421-38.459-.947-2.928-5.583-1.675-4.629,1.276Z"/><path class="e" d="M146.472,224.542c-.92-4.748-1.588-9.743-3.359-14.27-.711-1.818-1.587-3.658-3.446-4.535a6.52,6.52,0,0,0-7.722,1.855l2.335-.618c-2.928-1.193-6.575.743-8.081,3.274-1.449,2.434-1.669,5.517-1.871,8.267a2.421,2.421,0,0,0,2.4,2.4,2.447,2.447,0,0,0,2.4-2.4c.059-.8.122-1.607.233-2.4-.051.363.082-.485.1-.565q.072-.411.163-.818a12.007,12.007,0,0,1,.362-1.305c.031-.09.063-.179.1-.267q.141-.358-.094.211a3.469,3.469,0,0,0,.2-.421c.124-.235.268-.454.415-.676.164-.249.323-.189-.044.055a3.262,3.262,0,0,1,.288-.288q-.317.225.032-.016c.076-.045.846-.443.45-.279a6.283,6.283,0,0,1,.891-.264q.433-.079.03,0a3.837,3.837,0,0,1,.429,0c-.519,0,.143.059.324.133a2.317,2.317,0,0,0,2.336-.617c.16-.194.329-.373.5-.552.32-.324-.081-.015.286-.21.039-.021.67-.294.278-.16a3.419,3.419,0,0,1,.669-.17c-.5.059.222.041.269.045-.474-.044.179.073.254.1-.449-.17.327.156.269.187l-.313-.24c.06.051.116.105.171.162,0,.022.431.714-.043-.082.075.126.165.244.242.369.159.262.292.537.428.811.235.475-.018-.072.057.116s.148.378.218.568c.151.414.29.832.42,1.252a118.227,118.227,0,0,1,2.794,12.635,2.423,2.423,0,0,0,2.952,1.676,2.448,2.448,0,0,0,1.676-2.952Z"/><path class="e" d="M149.42,253.1c1.489-6.861,1.625-13.864,2.184-20.834a18.206,18.206,0,0,0-.561-7.5,18.963,18.963,0,0,0-4.148-6.3c-2.078-2.3-5.464,1.108-3.394,3.394a13.347,13.347,0,0,1,3.043,4.572c.646,2.117.363,4.443.19,6.729-.473,6.249-.608,12.521-1.942,18.668-.654,3.011,3.972,4.3,4.628,1.276Z"/><path class="e" d="M130.887,228.7c-.352-2.372-.653-4.751-.964-7.129a7.451,7.451,0,0,0-.7-2.887,4.96,4.96,0,0,0-4.206-2.38c-5.278-.047-5.43,6.5-5.629,10.286a55.677,55.677,0,0,0,.853,10.1c.5,3.834.844,7.525,2.435,11.079a106.609,106.609,0,0,0,6.782,12.322c1.621,2.623,5.775.215,4.145-2.422-1.934-3.13-3.783-6.326-5.463-9.6a28.677,28.677,0,0,1-1.931-4.3,23.875,23.875,0,0,1-.723-3.84c-.458-3.142-.865-6.366-1.243-9.592a27.567,27.567,0,0,1,.687-9.132c.037-.164.234-.549-.034.009.163-.34.011-.061.011-.062.114.1.113-.378.159-.138.06.32-.187-.276.06.115-.15-.237-.019.213-.022.328,0,.023.084.6.033.234-.045-.339.044.347.054.424.336,2.623.678,5.243,1.066,7.858a2.416,2.416,0,0,0,2.952,1.677,2.461,2.461,0,0,0,1.676-2.953Z"/><path class="e" d="M131.183,210.738c.63,5.225,1.229,10.454,1.86,15.68a2.461,2.461,0,0,0,2.4,2.4c1.171-.053,2.561-1.065,2.4-2.4-.631-5.226-1.23-10.455-1.86-15.68a2.461,2.461,0,0,0-2.4-2.4c-1.171.052-2.56,1.065-2.4,2.4Z"/><path class="e" d="M98.4,193.934c-.351.951-.673,1.913-.941,2.89a4.2,4.2,0,0,0-.088,1.939,2.716,2.716,0,0,0,.343.855,3.132,3.132,0,0,0,1.1,1.054,4.024,4.024,0,0,0,1.881.558,5.8,5.8,0,0,0,.632-.029,2.507,2.507,0,0,0,1.7-.7,2.4,2.4,0,0,0-1.7-4.1,4.694,4.694,0,0,1-.681.024l.638.086a1.653,1.653,0,0,1-.377-.1l.574.242a2.346,2.346,0,0,1-.375-.212l.485.375a.643.643,0,0,1-.108-.107l.375.486a.557.557,0,0,1-.05-.085l.242.573a.886.886,0,0,1-.052-.2l.086.638a1.474,1.474,0,0,1,0-.274l-.085.638a10.011,10.011,0,0,1,.475-1.692c.174-.532.355-1.061.549-1.587A2.4,2.4,0,0,0,99.5,192.5l-.485.375a2.4,2.4,0,0,0-.617,1.059Z"/><path class="e" d="M121.757,188.242c.387,1.892-.391,6.084-3.907,6.106-4.6-.474-4.349-5.608-2.567-7.861C116.742,184.642,120.551,184.186,121.757,188.242Z"/><path class="e" d="M93.085,184.316c.423,1.824-.116,5.937-3.282,6.118-4.16-.253-4.134-5.26-2.616-7.532C88.429,181.041,91.841,180.425,93.085,184.316Z"/><path class="e" d="M96.475,211.318c.6-.117,1.2-.235,1.8-.338.226-.038.451-.073.677-.109.288-.041.3-.044.04-.007.151-.018.3-.035.453-.05a15.847,15.847,0,0,1,1.586-.082c.3,0,.605.012.907.035.135.01.269.023.4.039q-.471-.068-.2-.024a12.461,12.461,0,0,1,1.3.311c.022.007.508.168.505.178q-.447-.195-.083-.031c.107.05.212.1.317.158q.312.165.606.36l.145.1q.319.232-.069-.056c.168.052.391.352.511.477.08.085.158.173.233.262q-.288-.386-.056-.064a2.4,2.4,0,1,0,4.144-2.423,9.528,9.528,0,0,0-6.1-3.869,22.33,22.33,0,0,0-8.392.506,2.414,2.414,0,0,0-1.677,2.952,2.461,2.461,0,0,0,2.953,1.676Z"/><path class="g" d="M16.9,115.054c-6.438,1.532-12.324,3.2-15.147,4.51a204.933,204.933,0,0,0,77.9,20.325c14.358,12.435,68.635,35.762,96.24,38.649C191.125,197.221,209.9,216.4,227.178,233.6c-.459-16.715-12.677-50.754-14.97-55.563-2.79-5.851-17.941-24.553-29.329-34.1-7.029-5.9-30.854-18.834-38.844-21.865,0,0-1.021-.387-2.367-.9-10.924-4.894-39.011-10.686-50.812-11.123-22.317-.827-47.133.527-51.4.859C34.808,111.266,25.377,113.037,16.9,115.054Z"/><path class="e" d="M169.267,234.748a86.725,86.725,0,0,1,18.448,2.507c7.4,1.825,15.661,3.724,20.879,9.719,1.308,1.5,3.4.468,4.012-1.059,1.171-2.921,2.384-5.477,4.779-7.592a11.252,11.252,0,0,1,7.221-2.964c3.081-.105,3.095-4.905,0-4.8a16.409,16.409,0,0,0-10.353,4.141c-3.179,2.715-4.751,6.134-6.276,9.939l4.011-1.059c-5.679-6.525-14.53-8.841-22.6-10.854a95.383,95.383,0,0,0-20.124-2.778c-3.09-.1-3.086,4.7,0,4.8Z"/><path class="e" d="M.282,121.827a60.589,60.589,0,0,1,4.007,35.367,2.451,2.451,0,0,0,1.676,2.953A66.03,66.03,0,0,1,32.1,173.464a96.829,96.829,0,0,1,18.736,21.258,55.606,55.606,0,0,1,3.638,6.461,2.918,2.918,0,0,0,1.5,1.759,13.578,13.578,0,0,0,2.119.444,24.853,24.853,0,0,1,4.029,1.269,2.415,2.415,0,0,0,2.952-1.677,2.46,2.46,0,0,0-1.676-2.952,23.894,23.894,0,0,0-5.861-1.592l1.434,1.1c-3.63-8.082-9.432-15.3-15.442-21.733a78.334,78.334,0,0,0-20.95-16.414,72.219,72.219,0,0,0-15.34-5.872l1.677,2.952a66.274,66.274,0,0,0-4.491-39.065,2.416,2.416,0,0,0-3.284-.861,2.459,2.459,0,0,0-.861,3.283Z"/><path class="e" d="M228.875,231.905c-14.884-14.82-29.637-29.813-43.4-45.693q-2.54-2.931-5.028-5.906-1.153-1.382-2.294-2.773a3.249,3.249,0,0,0-1.625-1.309,11.013,11.013,0,0,0-1.581-.191c-1.117-.133-2.276-.3-3.714-.552q-2.28-.392-4.543-.878a198.288,198.288,0,0,1-20.251-5.6A324.351,324.351,0,0,1,104.7,152.06a181.2,181.2,0,0,1-16.39-8.929c-1.068-.667-2.126-1.353-3.165-2.065-.447-.307-.89-.617-1.329-.934-.209-.151-.416-.3-.623-.457-.132-.1-.873-.669-.4-.3-.363-.285-.72-.575-1.075-.869a4.8,4.8,0,0,0-3.214-1.089q-3.892-.244-7.774-.638A201.614,201.614,0,0,1,11.558,121.44q-3.582-1.542-7.1-3.222a2.466,2.466,0,0,0-3.284.861,2.421,2.421,0,0,0,.861,3.283A207.818,207.818,0,0,0,61.9,140.5q8.838,1.26,17.754,1.792l-1.7-.7a79.555,79.555,0,0,0,12.893,8.63c6.114,3.461,12.431,6.564,18.821,9.48A318.251,318.251,0,0,0,153.9,176.321a129.9,129.9,0,0,0,21.991,4.617l-1.7-.7c12.378,15.164,25.868,29.395,39.6,43.331q5.811,5.9,11.685,11.733c2.191,2.182,5.587-1.21,3.394-3.394Z"/><path class="e" d="M3.085,121.576a87.464,87.464,0,0,1,12.135-3.644q7.666-1.907,15.446-3.335a80.919,80.919,0,0,1,10.053-1.38c3.965-.258,7.937-.432,11.908-.583,13.051-.5,26.245-.894,39.292-.137,9.791.568,19.651,2.659,29.3,4.939,4.921,1.163,9.828,2.446,14.622,4.062,2.172.733,3.843,1.457,5.624,2.151.847.331,1.7.637,2.547.975l.5.2c.588.242-.473-.206.136.058q.579.251,1.156.509a239.219,239.219,0,0,1,25.6,13.689c1.941,1.173,3.867,2.375,5.754,3.634.793.529,1.579,1.068,2.351,1.626q.51.368,1.01.747c-.417-.317.386.309.535.432a120.844,120.844,0,0,1,11.843,11.532c3.833,4.162,7.519,8.473,10.983,12.947a55.149,55.149,0,0,1,6.2,9.127c.173.352.324.714.482,1.073-.355-.809.022.061.1.25.112.276.223.554.332.831.572,1.449,1.116,2.909,1.648,4.373q2.262,6.22,4.25,12.536c3.067,9.682,5.939,19.58,7.383,29.653a56.4,56.4,0,0,1,.508,5.758c.094,3.082,4.894,3.095,4.8,0-.3-9.9-3.073-19.824-5.814-29.28-2.391-8.248-5.037-16.475-8.2-24.462-2.883-7.271-8.219-13.4-13.211-19.319-6.641-7.871-13.762-15.89-22.352-21.687a233.046,233.046,0,0,0-25.979-14.831,130.632,130.632,0,0,0-23.437-9.145,230.011,230.011,0,0,0-32-6.517,138.659,138.659,0,0,0-15.823-.924c-6.947-.108-13.9-.052-20.843.111q-8.2.194-16.4.6c-2.99.151-5.982.287-8.952.679a192.55,192.55,0,0,0-29.581,6.361,54.269,54.269,0,0,0-5.166,1.762A2.477,2.477,0,0,0,.133,119.9a2.414,2.414,0,0,0,2.952,1.676Z"/><path class="e" d="M144.529,113.045a22.47,22.47,0,0,0-4.3,7.507,2.4,2.4,0,0,0,4.629,1.276q.231-.678.51-1.337l-.242.573a19.73,19.73,0,0,1,2.5-4.295l-.375.486c.217-.278.44-.55.672-.816a2.544,2.544,0,0,0,.7-1.7,2.446,2.446,0,0,0-.7-1.7,2.419,2.419,0,0,0-1.7-.7,2.387,2.387,0,0,0-1.7.7Z"/></svg>