<?xml version="1.0" encoding="utf-8"?>
<!-- Uploaded to: SVG Repo, www.svgrepo.com, Generator: SVG Repo Mixer Tools -->
<svg width="800px" height="800px" viewBox="-13.17 0 394.461 394.461" xmlns="http://www.w3.org/2000/svg"><defs><style>.a{fill:#ffffff;}.b{fill:#a095c1;}.c{fill:#7a7473;}.d{fill:#211715;}.e{fill:#908b8a;}.f{fill:#f4b467;}.g{fill:#c6c6c6;}.h{fill:#b5886a;}</style></defs><path class="a" d="M332.323,288.192a5.623,5.623,0,0,1,4.53-1.32,5.32,5.32,0,0,1,3.85,2.56,7.5,7.5,0,0,1,.8,3.04,22.774,22.774,0,0,1-2.32,12.03,14.278,14.278,0,0,1-3.73,4.89c-1.178.939-3.226.98-4.824,1.19a38.21,38.21,0,0,1-1.353,4.729c-1.3,3.521-8.57,15.726-17.716,20.136a52.831,52.831,0,0,0,.751,6.559c.457,2.613.314,4.95,3.948,6.262.24.087,10.546,4.99,10.914,5.141,0,0-4.872,25.265-35.1,25.265s-30.623-24.7-30.623-24.7c.7-.238,12.194-5.614,12.434-5.7,3.634-1.312,3.491-3.649,3.948-6.262a49.337,49.337,0,0,0,.726-5.913,32.328,32.328,0,0,1-12.231-9.452,39.27,39.27,0,0,1-7.721-15.735c-2.368.7-4.224-.478-5.525-1.516a14.414,14.414,0,0,1-3.729-4.893,22.684,22.684,0,0,1-2.312-12.025,7.559,7.559,0,0,1,.792-3.045,5.354,5.354,0,0,1,3.85-2.559,5.672,5.672,0,0,1,4.537,1.327s-1.923-33.076,36.3-33.076C332.078,255.119,332.323,288.192,332.323,288.192Z"/><path class="a" d="M366.119,392.505c-1.7-6.815-5.539-18.332-10.447-23.6a39,39,0,0,0-12.713-9.146c-2.92-1.195-10.206-4.862-16-7.63-.231.478-.388.8-.388.8a13.664,13.664,0,0,1-6.86,7.65,34.654,34.654,0,0,1-8.9,2.73,1.411,1.411,0,0,0-1.13,1.42c.1,4.83.1,19.63.1,27.78Z"/><path class="a" d="M222.442,392.505c1.7-6.815,5.539-18.332,10.447-23.6a39,39,0,0,1,12.713-9.146c2.937-1.2,10.447-4.727,16.386-7.351.094.231.153.37.153.37a13.651,13.651,0,0,0,6.86,7.66,34.247,34.247,0,0,0,8.9,2.72,1.43,1.43,0,0,1,1.13,1.43c-.1,4.86-.11,19.8-.11,27.92Z"/><path class="b" d="M278.921,392.5c0-6.361.006-16.908.056-23.515l.8.22a63.821,63.821,0,0,0,29,.33l.953-.249c.047,6.565.047,16.891.047,23.214Z"/><path class="c" d="M303.671,228.671a39.418,39.418,0,0,0-9.778-.7c-20.424-1.122-39.9,14.227-43.842,33.562-1.068,5.215-.962,14.3.01,18.466l1.317,6.929a2.144,2.144,0,0,1,.309-.064,5.672,5.672,0,0,1,4.537,1.327l2.358,2.129c-1.095-4.163-1.577-8.42.9-12.383a31.472,31.472,0,0,1,5.236-5.739c3.752-3.511,8.326-6.794,12.077-10.3l6.016-3.531A102.621,102.621,0,0,0,300.708,273.5c4.559,2.944,10.087,3.408,18.085,3.01a26.176,26.176,0,0,1,5.117,15.683c3.355-.977,12-5.627,14.453-7.606,2.3-7.324.554-17.263-.629-23.051C334.429,245.33,320.212,231.925,303.671,228.671Z"/><path class="d" d="M335.23,288.9c5.719-1.162,4.514,7.455,3.7,10.6a18.454,18.454,0,0,1-3.052,6.62,6,6,0,0,1-2.055,1.922,11.992,11.992,0,0,1-3.194.539,2.062,2.062,0,0,0-2,2,2.013,2.013,0,0,0,2,2,18.818,18.818,0,0,0,4.56-.8,8.915,8.915,0,0,0,3.6-2.933,22.547,22.547,0,0,0,4.281-9.5c.653-3.23,1.036-7.247-.347-10.34a7.492,7.492,0,0,0-8.551-3.973c-2.521.512-1.454,4.369,1.063,3.857Z"/><path class="d" d="M257.638,286.781a7.728,7.728,0,0,0-10.163-.046c-2.944,2.629-2.758,7.366-2.267,10.944.889,6.481,5.52,16.912,13.714,15.218,2.519-.521,1.453-4.377-1.064-3.857-2.2.455-4.25-1.6-5.411-3.235a19.7,19.7,0,0,1-3.107-7.506,19.9,19.9,0,0,1-.377-4.126,8.6,8.6,0,0,1,.536-3.613,3.548,3.548,0,0,1,5.31-.951,2.055,2.055,0,0,0,2.829,0,2.016,2.016,0,0,0,0-2.828Z"/><path class="d" d="M328.955,307.846a19.041,19.041,0,0,1-.892,4.724c-.171.576-.359,1.146-.549,1.715-.06.179-.423,1.112-.206.613a35.081,35.081,0,0,1-2.461,4.524,45.123,45.123,0,0,1-10.007,11.6,19.1,19.1,0,0,1-7.435,3.78c-2.506.584-1.445,4.441,1.064,3.857,5.685-1.325,10.45-5.371,14.218-9.659a49.167,49.167,0,0,0,7.954-11.808,25.443,25.443,0,0,0,2.314-9.344c.1-2.574-3.9-2.57-4,0Z"/><path class="d" d="M255.831,307.379a43.56,43.56,0,0,0,9.226,20.841c5.189,6.156,12.075,10.7,20.194,11.558a2.014,2.014,0,0,0,2-2,2.046,2.046,0,0,0-2-2c-7.176-.761-13.181-5.3-17.647-10.724-4.395-5.337-6.744-12-7.916-18.738a2.018,2.018,0,0,0-2.461-1.4,2.045,2.045,0,0,0-1.4,2.46Z"/><path class="a" d="M335.606,307.684a4.91,4.91,0,0,0-5.007,4.976,4.7,4.7,0,0,0,5.008,5.07c3.142,0,5.007-1.964,5.007-5.07A4.906,4.906,0,0,0,335.606,307.684Z"/><path class="a" d="M253.606,307.684a4.91,4.91,0,0,0-5.007,4.976,4.7,4.7,0,0,0,5.008,5.07c3.142,0,5.007-1.964,5.007-5.07A4.906,4.906,0,0,0,253.606,307.684Z"/><path class="d" d="M335.606,305.684a7.014,7.014,0,0,0-6.736,5.02,7.244,7.244,0,0,0,2.29,7.6,7.748,7.748,0,0,0,8.1.557,7.262,7.262,0,0,0,1.142-11.334,7.217,7.217,0,0,0-4.8-1.842,2,2,0,0,0,0,4c.146,0,.291.014.436.017.485.011-.439-.1.027,0a6.179,6.179,0,0,1,.659.169l.127.043q.3.117-.11-.053a2.306,2.306,0,0,1,.235.114c.115.06.227.124.337.193.072.045.143.092.214.142.172.125.138.1-.1-.081,0,0,.426.4.459.436l.085.094q.162.195,0-.007l-.078-.1c.05.067.1.136.146.206.127.191.211.423.344.606.157.214-.157-.467-.026-.067.054.164.112.324.155.491.022.084.042.169.059.253.1.474-.042.009.009-.012-.017.007.027.6.026.675,0,.137-.009.274-.02.411l-.011.134c-.025.223-.017.177.022-.14-.09.069-.131.622-.165.737s-.077.229-.115.344c-.072.217-.115.021.065-.15a3.865,3.865,0,0,0-.335.6,1.629,1.629,0,0,0-.129.185c.171-.4.186-.232.026-.059-.063.068-.129.134-.2.2-.04.038-.081.076-.124.113q-.238.2.142-.1a4.964,4.964,0,0,0-.48.306,1.789,1.789,0,0,0-.313.155c.273-.25.3-.116.033-.027a5.346,5.346,0,0,1-.6.162c-.155.032-.53.024.018.013-.133,0-.271.028-.4.036a7.217,7.217,0,0,1-.832,0c-.089-.006-.177-.016-.266-.022-.461-.031.458.1.019,0-.2-.049-.4-.088-.6-.15a1.663,1.663,0,0,0-.34-.12q.442.194.154.061c-.052-.025-.1-.052-.155-.079a5.1,5.1,0,0,0-.532-.333c.349.128.265.231.1.065-.066-.065-.138-.126-.2-.192-.079-.081-.151-.166-.227-.25-.218-.24.1.1.105.137a3.555,3.555,0,0,0-.406-.7c-.114-.219.087-.04.062.15a1.432,1.432,0,0,0-.118-.344c-.061-.2-.1-.4-.148-.61-.1-.444.028.478,0,.013-.008-.136-.022-.271-.027-.407,0-.093.052-.793.021-.81.08.043-.1.478,0,.079.036-.147.064-.3.1-.441.036-.124.081-.243.121-.365.136-.412-.212.386,0,.009.134-.238.294-.466.425-.7s-.33.357-.037.058c.118-.121.228-.248.352-.363.023-.022.19-.169.191-.168-.24.179-.273.206-.1.08.07-.05.141-.1.214-.143.091-.057.185-.111.28-.163.057-.031.115-.061.173-.089.2-.091.158-.076-.116.043.022-.1.655-.206.776-.233l.136-.027c.221-.036.183-.033-.114.011.091-.074.463-.029.579-.03a2,2,0,0,0,0-4Z"/><path class="d" d="M253.606,305.684a7.014,7.014,0,0,0-6.736,5.02,7.244,7.244,0,0,0,2.29,7.6,7.748,7.748,0,0,0,8.1.557,7.262,7.262,0,0,0,1.142-11.334,7.217,7.217,0,0,0-4.8-1.842,2,2,0,1,0,0,4c.146,0,.291.014.436.017.485.011-.439-.1.027,0a6.179,6.179,0,0,1,.659.169l.127.043q.3.117-.11-.053a2.306,2.306,0,0,1,.235.114c.115.06.227.124.337.193.072.045.143.092.214.142.172.125.138.1-.1-.081,0,0,.426.4.459.436l.085.094q.162.195,0-.007l-.078-.1c.05.067.1.136.146.206.127.191.211.423.344.606.157.214-.157-.467-.026-.067.054.164.112.324.155.491.022.084.042.169.059.253.1.474-.042.009.009-.012-.017.007.027.6.026.675,0,.137-.009.274-.02.411l-.011.134c-.025.223-.017.177.022-.14-.09.069-.131.622-.165.737s-.077.229-.115.344c-.072.217-.115.021.065-.15a3.865,3.865,0,0,0-.335.6,1.629,1.629,0,0,0-.129.185c.171-.4.186-.232.026-.059-.063.068-.129.134-.2.2-.04.038-.081.076-.124.113q-.238.2.142-.1a4.964,4.964,0,0,0-.48.306,1.789,1.789,0,0,0-.313.155c.273-.25.3-.116.033-.027a5.346,5.346,0,0,1-.6.162c-.155.032-.53.024.018.013-.133,0-.271.028-.4.036a7.217,7.217,0,0,1-.832,0c-.089-.006-.177-.016-.266-.022-.461-.031.458.1.019,0-.2-.049-.4-.088-.6-.15a1.663,1.663,0,0,0-.34-.12q.443.194.154.061c-.052-.025-.1-.052-.155-.079a5.1,5.1,0,0,0-.532-.333c.349.128.265.231.1.065-.066-.065-.138-.126-.2-.192-.079-.081-.151-.166-.227-.25-.218-.24.1.1.1.137a3.555,3.555,0,0,0-.406-.7c-.114-.219.087-.04.062.15a1.432,1.432,0,0,0-.118-.344c-.061-.2-.1-.4-.148-.61-.1-.444.028.478,0,.013-.008-.136-.022-.271-.027-.407,0-.093.052-.793.021-.81.08.043-.1.478,0,.079.036-.147.064-.3.1-.441.036-.124.081-.243.121-.365.136-.412-.212.386,0,.009.134-.238.294-.466.425-.7s-.33.357-.037.058c.118-.121.228-.248.352-.363.023-.022.19-.169.191-.168-.24.179-.273.206-.1.08.07-.05.141-.1.214-.143.091-.057.185-.111.28-.163.057-.031.115-.061.173-.089.2-.091.158-.076-.116.043.022-.1.655-.206.776-.233l.136-.027c.221-.036.183-.033-.114.011.091-.074.463-.029.579-.03a2,2,0,0,0,0-4Z"/><path class="d" d="M276.551,336.334a49.381,49.381,0,0,1-.612,4.969,29.3,29.3,0,0,1-.541,3.021c-.035.126-.262.7-.108.374a4.74,4.74,0,0,1-.311.557c-.169.263.182-.2-.031.046-.065.073-.132.146-.2.215a1.6,1.6,0,0,1-.544.41c-.531.309-1.1.513-1.661.767-2.88,1.309-5.74,2.663-8.614,3.985q-1.113.512-2.23,1.018c-.265.12-.531.237-.8.356-.5.225.468-.17.024-.011a2.05,2.05,0,0,0-1.4,2.46,2.018,2.018,0,0,0,2.46,1.4c1.15-.411,2.261-.987,3.369-1.5q2.65-1.215,5.3-2.446,1.954-.906,3.909-1.809a1.933,1.933,0,0,0,.314-.142c-.01.007-.752.3-.317.14.214-.079.423-.169.633-.259a8.1,8.1,0,0,0,1.133-.567,6.63,6.63,0,0,0,2.7-3.245,15.978,15.978,0,0,0,.713-3.336c.351-2.127.672-4.251.819-6.4a2,2,0,0,0-4,0Z"/><path class="d" d="M309.554,335.371a67.335,67.335,0,0,0,1.163,9.254,7.15,7.15,0,0,0,4.731,5.466c.743.3-.516-.257.011,0,.191.092.386.179.578.27q.912.426,1.822.858,2.465,1.164,4.93,2.332c1.121.531,2.233,1.1,3.375,1.587a2.068,2.068,0,0,0,2.736-.717,2.014,2.014,0,0,0-.717-2.737c-2.421-1.032-4.776-2.25-7.155-3.375-1.154-.546-2.305-1.1-3.467-1.634a13.83,13.83,0,0,1-1.749-.827,2.228,2.228,0,0,1-1.042-1.452,28.936,28.936,0,0,1-.62-3.441,50,50,0,0,1-.6-5.582,2.043,2.043,0,0,0-2-2,2.02,2.02,0,0,0-2,2Z"/><path class="d" d="M319.943,350.539c.542-.258-1.348.321-.817.252-.716.093-.449-.123-.264-.022a2.94,2.94,0,0,0,.468.14c.25.082.5.177.741.273.159.062.929.382.606.245,1.547.659,3.069,1.378,4.588,2.1,3.793,1.8,7.553,3.671,11.337,5.492s7.675,3.343,11.161,5.69a36.151,36.151,0,0,1,6.688,5.818,27.129,27.129,0,0,1,3.789,5.9,79.534,79.534,0,0,1,5.95,16.608c.628,2.5,4.487,1.438,3.857-1.063a89.361,89.361,0,0,0-5.557-15.928,37.115,37.115,0,0,0-4.262-7.2,35.409,35.409,0,0,0-6.5-6.194,38.7,38.7,0,0,0-8.36-4.878c.524.222-.277-.123-.379-.168q-.512-.227-1.019-.461c-.816-.375-1.628-.759-2.438-1.146-4.012-1.917-7.99-3.9-12-5.814-1.915-.911-3.836-1.815-5.8-2.622-1.225-.5-2.506-1.1-3.8-.479-2.323,1.106-.3,4.556,2.019,3.454Z"/><path class="d" d="M311.781,392.5q0-9.486-.025-18.974c-.01-2.566-.02-5.132-.056-7.7,0-.286.1-1.434-.189-.853-.237.483-.088.172.268.165a5.338,5.338,0,0,0,.874-.183c.581-.126,1.161-.256,1.739-.4a31.14,31.14,0,0,0,5.728-1.971,15.768,15.768,0,0,0,8.379-9.136c.81-2.45-3.051-3.5-3.857-1.063-1.139,3.445-4.2,5.874-7.493,7.148a38.607,38.607,0,0,1-6,1.655c-2.017.424-3.418,1.482-3.469,3.695-.13,5.661.085,11.353.092,17.016q.006,5.3,0,10.6c0,2.574,4,2.579,4,0Z"/><path class="d" d="M271.088,347.614a4.183,4.183,0,0,0-3.362.245c-1.652.6-3.268,1.3-4.881,2-4.088,1.767-8.131,3.637-12.185,5.479-4.37,1.986-7.8,3.169-11.881,5.914A34.663,34.663,0,0,0,227.03,374.09a83.234,83.234,0,0,0-6.517,17.884c-.628,2.5,3.228,3.562,3.858,1.063a84.4,84.4,0,0,1,5.077-14.8,36.207,36.207,0,0,1,3.84-6.715,30.5,30.5,0,0,1,5.883-5.65c3.58-2.715,7.606-4.407,11.661-6.236,3.793-1.711,7.569-3.458,11.371-5.148,1.839-.818,3.52-1.562,5.284-2.266.648-.259,1.3-.517,1.963-.73.2-.065.416-.109.616-.179.074-.026.157-.022.23-.047a1.474,1.474,0,0,1-1.227-.193c2.31,1.108,4.342-2.34,2.019-3.454Z"/><path class="d" d="M260.212,353.306a15.578,15.578,0,0,0,7.106,8.492,25.039,25.039,0,0,0,5.71,2.285c.929.26,1.869.481,2.812.684a12.493,12.493,0,0,0,1.529.316c.042-.077-.283-.468-.34-.416-.04.036,0,.289-.006.346a22.462,22.462,0,0,0-.039,3.157q-.018,2.086-.027,4.171-.024,4.927-.029,9.856-.009,5.154-.007,10.307c0,2.574,4,2.579,4,0q0-9.586.031-19.174c.012-2.582.023-5.163.061-7.745.024-1.615-.21-3.2-1.786-4.051a10.552,10.552,0,0,0-2.759-.719c-1.085-.242-2.166-.51-3.229-.839-3.938-1.219-7.813-3.617-9.17-7.733-.8-2.434-4.666-1.391-3.857,1.063Z"/><path class="d" d="M279.249,371.137a65.566,65.566,0,0,0,30.063.33c2.514-.549,1.45-4.406-1.063-3.857a61.021,61.021,0,0,1-27.937-.33c-2.5-.637-3.559,3.22-1.063,3.857Z"/><path class="d" d="M275.385,260.483c-5.066,4.7-10.928,8.574-15.552,13.75a15.214,15.214,0,0,0-4.1,9.022c-.278,3.3.594,6.616,1.524,9.749.731,2.461,4.593,1.413,3.857-1.064-.833-2.8-1.662-5.728-1.381-8.685.289-3.047,2.041-5.361,4.128-7.462,4.481-4.51,9.7-8.163,14.349-12.481,1.891-1.755-.943-4.579-2.828-2.829Z"/><path class="d" d="M279.829,258.127a110.785,110.785,0,0,0,18.457,16.165A22.65,22.65,0,0,0,306.832,278a48.047,48.047,0,0,0,10.856.56c2.566-.1,2.579-4.1,0-4a43.005,43.005,0,0,1-9.961-.451,20.374,20.374,0,0,1-7.774-3.515,107.039,107.039,0,0,1-17.295-15.3c-1.763-1.883-4.588.95-2.829,2.829Z"/><path class="d" d="M336.652,283.793A17.993,17.993,0,0,1,336,285.63l.2-.478-.014.033a1.486,1.486,0,0,0-.237.743,2.055,2.055,0,0,0,.955,1.993l.477.2a2.022,2.022,0,0,0,1.064,0l.478-.2a2.014,2.014,0,0,0,.717-.718,22.543,22.543,0,0,0,.872-2.346,1.526,1.526,0,0,0,.036-.8,1.477,1.477,0,0,0-.238-.743,2.238,2.238,0,0,0-1.195-.919l-.531-.072a1.991,1.991,0,0,0-1.01.273l-.405.313a2,2,0,0,0-.514.882Z"/><path class="d" d="M251.989,279.472a46.869,46.869,0,0,1-.44-14.411,34.958,34.958,0,0,1,4.376-13.6A42.78,42.78,0,0,1,278.252,232.4a39.185,39.185,0,0,1,14.916-2.454c2.591.092,5.147-.059,7.734.282a40.1,40.1,0,0,1,7.286,1.7,42.831,42.831,0,0,1,22.969,18.323,43.285,43.285,0,0,1,5.305,15.254c1.059,6.033,1.78,12.6-.028,18.553l.515-.883c.361-.286-.282.2-.345.244-.185.13-.373.255-.561.38-.516.341-1.042.667-1.572.987-1.312.791-2.652,1.537-4,2.255a40.365,40.365,0,0,1-7.088,3.225l2.532,1.929a28.184,28.184,0,0,0-6.052-17.575c-3.791-4.932-9.42-8.933-11.8-14.844a2.064,2.064,0,0,0-2.46-1.4,2.014,2.014,0,0,0-1.4,2.461c2.405,5.97,7.367,10.266,11.52,15a24.407,24.407,0,0,1,6.19,16.35,2.018,2.018,0,0,0,2.532,1.929,41.409,41.409,0,0,0,6.718-2.939,70.977,70.977,0,0,0,6.9-3.932,4.8,4.8,0,0,0,2.44-2.849,28.838,28.838,0,0,0,.853-5.1,48.73,48.73,0,0,0-.355-10.34c-.767-6.045-1.954-11.99-4.635-17.5a44.965,44.965,0,0,0-11.3-14.449,47.322,47.322,0,0,0-16.318-9.1c-6.028-1.908-12.364-2.224-18.643-1.952a46.031,46.031,0,0,0-32.5,16.175,43.328,43.328,0,0,0-8.81,16.159,50.123,50.123,0,0,0-1.234,18.378,31.729,31.729,0,0,0,.58,3.869c.564,2.511,4.422,1.448,3.857-1.063Z"/><path class="d" d="M290.687,293.243c2.466,0,4.932-.064,7.4-.065a2,2,0,0,0,0-4c-2.467,0-4.933.064-7.4.065a2,2,0,0,0,0,4Z"/><path class="d" d="M260.16,289.771c1.865.6,3.741,1.166,5.606,1.767a2.017,2.017,0,0,0,2.461-1.4,2.045,2.045,0,0,0-1.4-2.46c-1.865-.6-3.742-1.166-5.607-1.767a2.017,2.017,0,0,0-2.46,1.4,2.045,2.045,0,0,0,1.4,2.46Z"/><path class="d" d="M269.448,295.606a6.192,6.192,0,0,1,.137-5.229,7.371,7.371,0,0,1,4.1-3.111,12.075,12.075,0,0,1,8.553.062c2.647,1.111,4.9,3.673,4.191,6.733a7.543,7.543,0,0,1-6.683,5.764,13.21,13.21,0,0,1-5.952-.354,7.22,7.22,0,0,1-4.342-3.865,2.065,2.065,0,0,0-2.46-1.4,2.012,2.012,0,0,0-1.4,2.46c2.119,5.144,7.2,7.621,12.6,7.281a14.764,14.764,0,0,0,6.826-1.688,11.815,11.815,0,0,0,4.749-5.624,9.112,9.112,0,0,0,.046-7.387,11.511,11.511,0,0,0-4.34-4.733,15.424,15.424,0,0,0-12.122-1.34,12.241,12.241,0,0,0-6.87,4.624,9.892,9.892,0,0,0-.89,8.867,2.053,2.053,0,0,0,2.46,1.4A2.017,2.017,0,0,0,269.448,295.606Z"/><path class="d" d="M322.845,296.669a10.11,10.11,0,0,0-.385-8.017,11.11,11.11,0,0,0-6.045-5.022,15.927,15.927,0,0,0-12.222.239,11.792,11.792,0,0,0-4.745,3.978,8.846,8.846,0,0,0-1.295,7.278,11.535,11.535,0,0,0,3.854,6.13,12.259,12.259,0,0,0,6.54,2.553,15.753,15.753,0,0,0,8.218-.9,11.269,11.269,0,0,0,6.08-6.241,2.013,2.013,0,0,0-1.4-2.46,2.049,2.049,0,0,0-2.46,1.4c-1.462,3.547-5.444,4.559-8.906,4.334a10.229,10.229,0,0,1-4.52-1.06,7.758,7.758,0,0,1-3.232-3.779,5.064,5.064,0,0,1,.135-4.559,7.658,7.658,0,0,1,2.954-2.825,11.41,11.41,0,0,1,8.229-.784,8.647,8.647,0,0,1,4.774,2.78,6.052,6.052,0,0,1,.566,5.893,2.018,2.018,0,0,0,1.4,2.46A2.043,2.043,0,0,0,322.845,296.669Z"/><path class="d" d="M287.336,318.893a15.32,15.32,0,0,0,7.373,1.709,12.02,12.02,0,0,0,7.459-2.209,2,2,0,0,0,0-2.828,2.06,2.06,0,0,0-2.828,0c.612-.477.157-.127,0-.026s-.3.181-.453.262c-.08.042-.162.08-.242.121-.218.112-.2-.03.1-.035a2.934,2.934,0,0,0-.624.227,11.032,11.032,0,0,1-1.748.4c.3-.045,0,0-.141.011-.171.017-.343.032-.515.043-.413.027-.828.037-1.242.035-.371,0-.742-.015-1.113-.04-.17-.012-.34-.026-.509-.043-.04,0-.656-.1-.22-.023a14.913,14.913,0,0,1-1.633-.362c-.229-.069-.452-.151-.678-.228-.5-.172.318.162-.136-.053-.28-.132-.556-.269-.83-.414a2,2,0,0,0-2.019,3.454Z"/><path class="d" d="M293.648,301.582a34.429,34.429,0,0,1,.809,3.7l-.072-.532a2.24,2.24,0,0,1,.014.511l.072-.532a1.209,1.209,0,0,1-.057.23l.2-.478a.924.924,0,0,1-.081.148l.313-.4a.757.757,0,0,1-.121.119l.405-.313a2.415,2.415,0,0,1-.293.155l.477-.2a2.171,2.171,0,0,1-.494.144l.532-.072a1.947,1.947,0,0,1-.464,0l.532.071c-.175-.024-.346-.067-.521-.09a1.506,1.506,0,0,0-.8-.036,1.486,1.486,0,0,0-.743.237,2,2,0,0,0-.718,2.737,1.919,1.919,0,0,0,1.195.919c.407.055.8.158,1.217.176a3.9,3.9,0,0,0,1.8-.431,2.621,2.621,0,0,0,1.449-1.728,4.292,4.292,0,0,0-.017-1.85c-.2-1.192-.477-2.374-.784-3.543a2,2,0,0,0-3.857,1.063Z"/><path class="d" d="M274.181,291.076c-.618,2.008-.215,6.627,3.589,7.02,5.029-.03,5.3-5.615,3.6-8.241C279.988,287.705,275.913,286.811,274.181,291.076Z"/><path class="d" d="M314.447,291.076c.618,2.008.216,6.627-3.589,7.02-5.028-.03-5.3-5.615-3.6-8.241C308.641,287.705,312.716,286.811,314.447,291.076Z"/><path class="e" d="M100.641,234.582l-5.561-3.23a54.565,54.565,0,0,0-21.823-4.18c-15.035,0-28.416,7.745-34.354,13.43-9.851,9.431-16.1,26.658-15.312,50.412.268,11.978-.072,21.8-.583,32.02a79.768,79.768,0,0,1-2.907,17.4c-1.584,5.715-4.773,11.206-9.791,14.365,0,0,1.735,14.988,34.624,14.988,64,0,89.893-8.976,89.893-8.976-3.164-2.394-6.433-4.91-8.23-8.447a24.616,24.616,0,0,1-2.069-8.679c-1.571-15.047-1.926-37.4-1.3-54.035-.069-8.1-.11-13.986-.3-16.5-1.112-14.777-6.683-25.076-14.2-32.328a31.514,31.514,0,0,0-7.06-5.635Z"/><path class="a" d="M100.242,350.35c-2.286-1.082-4.322-2.044-4.428-2.082-3.633-1.312-3.49-3.649-3.948-6.262a52.894,52.894,0,0,1-.772-6.982c9.149-4.484,16.441-17.017,17.738-20.537.237-.72.764-2.189,1.167-3.878,1.62-.24,3.78-.23,5.01-1.22a14.278,14.278,0,0,0,3.73-4.89,22.756,22.756,0,0,0,2.32-12.03,7.547,7.547,0,0,0-.8-3.04,5.32,5.32,0,0,0-3.85-2.56,5.664,5.664,0,0,0-4.53,1.33l-4.7-4.4c-5.13-2.027-10.093-9.508-12.931-14.923a64.666,64.666,0,0,1-4.2-12.491l-7.633-.232c-.842,4.389-1.815,5.989-3.63,9.273a19.657,19.657,0,0,1-10.232,9.081H44.817a36.918,36.918,0,0,0-3.892,9.5c-2.321,9.776-2.271,21.137-.562,32.695a36.243,36.243,0,0,0,5.521,9.117,36.833,36.833,0,0,0,12.257,9.908,49.272,49.272,0,0,1-.748,6.279c-.458,2.613-.315,4.95-3.948,6.262-.241.087-11.734,5.463-12.434,5.7,0,0,2.589,18.928,32.367,18.928s33.351-19.488,33.351-19.488C106.522,353.324,103.176,351.738,100.242,350.35Z"/><path class="d" d="M56.106,336.334a49.381,49.381,0,0,1-.612,4.969,29.03,29.03,0,0,1-.54,3.021c-.036.126-.263.7-.109.374a4.74,4.74,0,0,1-.311.557c-.168.263.182-.2-.031.046-.064.073-.131.146-.2.215a1.6,1.6,0,0,1-.544.41c-.531.309-1.1.513-1.661.767-2.88,1.309-5.74,2.663-8.614,3.985q-1.114.512-2.23,1.018c-.265.12-.532.237-.8.356-.5.225.468-.17.023-.011a2.052,2.052,0,0,0-1.4,2.46,2.019,2.019,0,0,0,2.461,1.4c1.149-.411,2.261-.987,3.369-1.5q2.651-1.215,5.3-2.446,1.953-.906,3.908-1.809a1.9,1.9,0,0,0,.314-.142c-.009.007-.751.3-.317.14.214-.079.424-.169.633-.259a8.108,8.108,0,0,0,1.134-.567,6.623,6.623,0,0,0,2.7-3.245,15.852,15.852,0,0,0,.713-3.336c.352-2.127.672-4.251.819-6.4a2,2,0,0,0-4,0Z"/><path class="d" d="M89.11,335.371a67.334,67.334,0,0,0,1.162,9.254A7.149,7.149,0,0,0,95,350.091c.743.3-.517-.257.01,0,.192.092.386.179.579.27q.912.426,1.821.858,2.466,1.164,4.93,2.332c1.122.531,2.234,1.1,3.375,1.587a2.069,2.069,0,0,0,2.737-.717,2.016,2.016,0,0,0-.718-2.737c-2.421-1.032-4.776-2.25-7.154-3.375-1.155-.546-2.305-1.1-3.468-1.634a13.882,13.882,0,0,1-1.748-.827,2.229,2.229,0,0,1-1.043-1.452,29.136,29.136,0,0,1-.619-3.441,49.765,49.765,0,0,1-.6-5.582,2.043,2.043,0,0,0-2-2,2.018,2.018,0,0,0-2,2Z"/><path class="a" d="M145.674,392.505c-1.7-6.815-5.538-18.332-10.447-23.6a39,39,0,0,0-12.712-9.146c-4.792-1.961-23.247-9.864-27.137-11.61-.233-1.444-.888-4.636-1.121-5.895s-1.031-3.79-2.36-3.724c-4.375.219-11.394,3.31-17.3,3.482-8.3.242-15.839-2.287-17.592-2.222-2.25.083-3.426,6.378-4.764,8.962-4.245,1.8-21.834,8.857-27.087,11.007A39,39,0,0,0,12.445,368.9C7.536,374.173,3.7,385.69,2,392.505Z"/><path class="d" d="M93.85,349.65c6.777,3.114,13.7,5.939,20.565,8.853a89.506,89.506,0,0,1,11.192,5.118A31.067,31.067,0,0,1,137.3,375.48a76.649,76.649,0,0,1,6.445,17.557c.628,2.5,4.487,1.438,3.857-1.063a88.418,88.418,0,0,0-5.714-16.26,31.723,31.723,0,0,0-11.243-13.538c-3.687-2.715-8.045-4.517-12.065-6.217q-6.417-2.714-12.819-5.467c-3.3-1.418-6.628-2.8-9.893-4.3a2.059,2.059,0,0,0-2.736.718,2.016,2.016,0,0,0,.717,2.736Z"/><path class="d" d="M3.926,393.037A84.213,84.213,0,0,1,9.08,378.065a35.424,35.424,0,0,1,3.824-6.632,30.87,30.87,0,0,1,6.141-5.8c3.665-2.7,7.7-4.382,11.88-6.072q6.3-2.548,12.6-5.095c3.429-1.389,6.879-2.742,10.272-4.22a2.014,2.014,0,0,0,.717-2.737,2.051,2.051,0,0,0-2.736-.717l-.54.232c.606-.259-.268.111-.413.171q-1.044.433-2.09.861-2.8,1.147-5.6,2.28-6.511,2.64-13.028,5.269c-4.314,1.745-8.6,3.4-12.432,6.107a34.542,34.542,0,0,0-11.252,12.7A84.236,84.236,0,0,0,.069,391.974c-.629,2.5,3.228,3.562,3.857,1.063Z"/><path class="d" d="M53.92,349.822a36.523,36.523,0,0,0,1.8-4.618c.227-.64.451-1.285.73-1.905.238-.532.784-1.243.905-1.555.243-.629.08.1.034-.036.026.079-.348.057-.376.078.08-.059.4.016.493.027-.506-.062.2.04.344.066.381.069.76.149,1.138.228,1.7.354,3.4.723,5.119,1.017a42.772,42.772,0,0,0,14.32.466c4.185-.7,8.177-2.3,12.367-2.949.365-.056.747-.048,1.108-.115-.527.1-.494-.364-.135.377a8.539,8.539,0,0,1,.605,2.081c.373,1.9.767,3.788,1.082,5.693a2.016,2.016,0,0,0,2.461,1.4,2.048,2.048,0,0,0,1.4-2.46c-.31-1.867-.7-3.72-1.061-5.578-.342-1.771-.96-3.871-2.533-4.938-1.632-1.107-4.036-.356-5.806.051-2.342.538-4.643,1.244-6.975,1.823a36.818,36.818,0,0,1-15,.424c-1.976-.318-3.93-.739-5.888-1.146-1.259-.262-2.7-.7-3.973-.307-1.951.608-2.867,2.752-3.571,4.48-.721,1.768-1.173,3.708-2.037,5.38-1.18,2.283,2.27,4.309,3.454,2.019Z"/><path class="f" d="M54.457,346.963c4.94,4.7,9.214,8,16.254,9.775l2.394.219a42.436,42.436,0,0,1-1.579-4c6.371-2.074,20.074-6.444,23.845-9.186,2.748,2.594,8.818,5.931,13.118,8.3-6.194,6.787-15.34,16.5-24.072,19.536l1.809,2.4c-7.106,6.116-16.391,8.964-25.455,11.363-.45.119-1.043.183-1.274-.222a1.073,1.073,0,0,1-.047-.7,96.228,96.228,0,0,1,2.095-9.777s.322-1.353.689-2.9c-7.408-1.424-12.156-5.86-17.743-11.74a65.618,65.618,0,0,1-5.8-7.441,85.548,85.548,0,0,0,13.671-7.655C53.079,345.639,53.775,346.314,54.457,346.963Z"/><path class="d" d="M113.293,289.613a3.539,3.539,0,0,1,5.306.949,8.868,8.868,0,0,1,.539,3.823,20.163,20.163,0,0,1-.469,4.333,18.86,18.86,0,0,1-3.241,7.4,5.17,5.17,0,0,1-2.49,2.058,27.693,27.693,0,0,1-3.471.5,2.012,2.012,0,0,0-1.4,2.46,2.053,2.053,0,0,0,2.46,1.4,15.7,15.7,0,0,0,4.707-.962,10.864,10.864,0,0,0,3.87-3.752,23.765,23.765,0,0,0,3.855-10.675c.426-3.441.467-7.909-2.339-10.414a7.721,7.721,0,0,0-10.159.051,2.015,2.015,0,0,0,0,2.828,2.043,2.043,0,0,0,2.828,0Z"/><path class="d" d="M108.51,307.022a19.47,19.47,0,0,1-.941,4.893c-.169.557-.351,1.109-.538,1.66-.055.163-.112.325-.168.488-.132.382,0,.01-.023.068a38.982,38.982,0,0,1-2.506,4.645,46.352,46.352,0,0,1-9.972,11.777,18.646,18.646,0,0,1-7.43,3.848c-2.506.584-1.445,4.442,1.064,3.857,5.734-1.337,10.5-5.507,14.246-9.866a51.084,51.084,0,0,0,7.962-12.039,25.6,25.6,0,0,0,2.306-9.331c.1-2.574-3.9-2.57-4,0Z"/><path class="d" d="M38.637,317.708c4.452,10.338,14.179,20.259,25.705,22a2.064,2.064,0,0,0,2.46-1.4,2.014,2.014,0,0,0-1.4-2.46c-10.636-1.606-19.216-10.644-23.314-20.161a2.013,2.013,0,0,0-2.737-.717,2.052,2.052,0,0,0-.717,2.736Z"/><path class="d" d="M95.612,229.424A58.357,58.357,0,0,0,71.5,225.207a55.2,55.2,0,0,0-24.323,7.05,43.414,43.414,0,0,0-14.218,12.159,54.885,54.885,0,0,0-8.371,17.994,96.142,96.142,0,0,0-2.993,28.6c.08,2.568,4.081,2.579,4,0-.451-14.4,1.308-29.95,9.269-42.331a37.212,37.212,0,0,1,11.789-11.477,52.092,52.092,0,0,1,21.808-7.776,54.468,54.468,0,0,1,26.092,3.851,2.014,2.014,0,0,0,2.46-1.4,2.048,2.048,0,0,0-1.4-2.46Z"/><path class="d" d="M125.233,289.649c-.071-8.4.231-16.906-1.511-25.18a49.17,49.17,0,0,0-10.747-22.08,42.694,42.694,0,0,0-10.291-8.933c-2.218-1.319-4.232,2.138-2.019,3.453a41.428,41.428,0,0,1,14.76,16.076,51.65,51.65,0,0,1,5.62,22.476c.152,4.726.148,9.46.188,14.188.022,2.573,4.022,2.579,4,0Z"/><path class="d" d="M114.74,318.612c-1.041.177-2.075.4-3.112.6a3,3,0,0,0-.541.228,1.714,1.714,0,0,0-.637.584,2.291,2.291,0,0,0-.487,1.374,43.812,43.812,0,0,0,.137,5.137,2.383,2.383,0,0,0,.664,1.6,2.234,2.234,0,0,0,1.6.665c1.445-.113,2.882-.263,4.316-.472l.542-.229a1.719,1.719,0,0,0,.636-.584,2.129,2.129,0,0,0,.487-1.374l-.23-3.251-.111-1.569a3.378,3.378,0,0,0-.394-1.6,2.5,2.5,0,0,0-2.27-1.194Z"/><path class="d" d="M21.591,291.014c.192,8.839.052,17.676-.326,26.509a112.423,112.423,0,0,1-1.04,13.054,57.587,57.587,0,0,1-3.217,12.758A20.868,20.868,0,0,1,9.3,353.071c-2.156,1.39-.153,4.854,2.019,3.454,7.524-4.85,10.464-13.229,12.166-21.6,1.843-9.068,1.922-18.45,2.116-27.673q.169-8.115-.01-16.233c-.056-2.57-4.056-2.579-4,0Z"/><path class="d" d="M121.233,289.649c-.376,10.045-.387,20.107-.117,30.154.133,4.954.34,9.907.663,14.853a94.638,94.638,0,0,0,1.512,14.234c1.367,6.173,5.7,9.989,10.526,13.646a2.013,2.013,0,0,0,2.737-.717,2.049,2.049,0,0,0-.718-2.736c-3.927-2.974-7.486-6.043-8.64-11.037-1-4.333-1.129-8.964-1.417-13.39-.63-9.668-.855-19.365-.842-29.052.008-5.319.1-10.639.3-15.955.1-2.574-3.9-2.57-4,0Z"/><path class="d" d="M88.119,256.919c1.506,5.966,3.382,11.646,6.639,16.893,2.926,4.713,6.605,9.73,11.885,11.918a2.012,2.012,0,0,0,2.46-1.4,2.05,2.05,0,0,0-1.4-2.46,15.618,15.618,0,0,1-5.323-4.34,43.8,43.8,0,0,1-4.569-6.389c-2.876-4.766-4.481-9.91-5.839-15.288-.629-2.494-4.488-1.438-3.857,1.063Z"/><path class="d" d="M80.514,254.613c-1.422,7.292-5.025,15.215-12.493,17.969a2.054,2.054,0,0,0-1.4,2.46,2.016,2.016,0,0,0,2.46,1.4c8.84-3.259,13.568-11.949,15.287-20.762a2.052,2.052,0,0,0-1.4-2.461,2.019,2.019,0,0,0-2.46,1.4Z"/><path class="d" d="M65.208,254.919A25.464,25.464,0,0,1,55.964,273.4a2.014,2.014,0,0,0,0,2.828,2.043,2.043,0,0,0,2.828,0,29.377,29.377,0,0,0,10.416-21.307c.118-2.574-3.882-2.568-4,0Z"/><path class="d" d="M45.254,330.679a116.991,116.991,0,0,1-4.078-32.915,59.439,59.439,0,0,1,1.908-14.1,36.541,36.541,0,0,1,2.123-5.705,54.211,54.211,0,0,1,3.449-5.536c3.109-4.942,5.291-10.63,4.317-16.532a2.015,2.015,0,0,0-2.46-1.4,2.048,2.048,0,0,0-1.4,2.46c.819,4.963-1.634,9.951-4.26,13.993a42.052,42.052,0,0,0-3.332,5.486,44.246,44.246,0,0,0-2.259,6.032,62.107,62.107,0,0,0-2.045,14.208,100.327,100.327,0,0,0,.64,16.217A141.021,141.021,0,0,0,41.4,331.743c.64,2.491,4.5,1.435,3.857-1.064Z"/><path class="d" d="M111.008,309.108c.138,3.432.32,6.862.518,10.29a2,2,0,0,0,4,0c-.2-3.428-.38-6.858-.518-10.29a2,2,0,0,0-4,0Z"/><path class="d" d="M71.243,354.809a29.252,29.252,0,0,1-9.487-4.288,63.523,63.523,0,0,1-7.98-7,2.028,2.028,0,0,0-2.423-.313,88.009,88.009,0,0,1-13.671,7.655,2.006,2.006,0,0,0-.718,2.736c4.236,5.99,9.057,11.794,15.142,16.007,5.709,3.953,12.447,5.084,19.272,4.463a2.054,2.054,0,0,0,2-2,2.015,2.015,0,0,0-2-2c-6.2.564-12.064-.324-17.253-3.917-5.486-3.8-9.894-9.179-13.707-14.572l-.717,2.737a88.009,88.009,0,0,0,13.671-7.655l-2.424-.313a69.426,69.426,0,0,0,8.789,7.624,32.5,32.5,0,0,0,10.443,4.692c2.494.643,3.558-3.214,1.063-3.858Z"/><path class="d" d="M75.725,357.831a44.29,44.29,0,0,1-2.27-5.4l-1.4,2.46c4.368-1.422,8.739-2.838,13.059-4.4,3.753-1.359,7.976-2.651,11.263-4.987l-2.424-.313c3.9,3.6,8.907,6.07,13.524,8.61l-.405-3.141a144.576,144.576,0,0,1-11.133,11.217c-3.755,3.3-7.97,6.531-12.8,8.047l1.946.514a41.552,41.552,0,0,1-9.364-12.6c-1.161-2.3-4.613-.276-3.454,2.018a51.08,51.08,0,0,0,5.687,8.885,35.665,35.665,0,0,0,3.66,3.954c.759.7,1.48,1.341,2.588,1.09a13.281,13.281,0,0,0,2.086-.761c6.13-2.545,11.338-7.044,16.048-11.626,2.615-2.544,5.1-5.212,7.563-7.905a2.025,2.025,0,0,0-.4-3.142c-4.3-2.366-9.081-4.628-12.714-7.984a2.034,2.034,0,0,0-2.424-.313c-3.111,2.211-7.08,3.421-10.631,4.7-4.215,1.518-8.476,2.9-12.735,4.285a2.025,2.025,0,0,0-1.4,2.46,52.07,52.07,0,0,0,2.673,6.357C73.413,362.157,76.864,360.132,75.725,357.831Z"/><path class="d" d="M59.617,374.14c-.532,2-1.01,4-1.418,6.027-.219,1.089-.425,2.182-.6,3.279a3.944,3.944,0,0,0,.172,2.714c1.057,1.808,3.125,1.254,4.751.816,1.836-.494,3.666-1.009,5.482-1.571,7.082-2.19,13.944-5.141,19.637-9.981,1.964-1.67-.877-4.487-2.829-2.828A42.086,42.086,0,0,1,72.92,379.47c-2.16.851-4.364,1.59-6.587,2.264q-1.618.49-3.248.94c-.583.162-2.409.928-2.879.738l.883.515-.178-.19.514.882a6.467,6.467,0,0,1,.36-1.986q.24-1.287.514-2.569.525-2.445,1.175-4.861c.664-2.49-3.194-3.552-3.857-1.063Z"/><path class="d" d="M66.892,318.893a15.314,15.314,0,0,0,7.373,1.709,12.02,12.02,0,0,0,7.459-2.209,2,2,0,0,0,0-2.828,2.062,2.062,0,0,0-2.829,0c.612-.477.158-.127,0-.026s-.3.181-.453.262c-.08.042-.162.08-.243.121-.217.112-.2-.03.1-.035a2.923,2.923,0,0,0-.625.227,11.007,11.007,0,0,1-1.748.4c.3-.045,0,0-.14.011-.172.017-.343.032-.515.043-.414.027-.828.037-1.243.035-.371,0-.742-.015-1.112-.04-.17-.012-.34-.026-.51-.043-.04,0-.656-.1-.22-.023a14.913,14.913,0,0,1-1.633-.362c-.229-.069-.452-.151-.677-.228-.5-.172.318.162-.136-.053-.28-.132-.556-.269-.83-.414a2,2,0,1,0-2.019,3.454Z"/><path class="d" d="M73.2,301.582a34.189,34.189,0,0,1,.809,3.7l-.071-.532a2.24,2.24,0,0,1,.014.511l.071-.532a1.206,1.206,0,0,1-.056.23l.2-.478a1.009,1.009,0,0,1-.081.148l.312-.4a.757.757,0,0,1-.121.119l.405-.313a2.276,2.276,0,0,1-.293.155l.478-.2a2.171,2.171,0,0,1-.494.144l.532-.072a1.947,1.947,0,0,1-.464,0l.532.071c-.175-.024-.347-.067-.522-.09a2.244,2.244,0,0,0-1.541.2,2,2,0,0,0-.717,2.737,1.916,1.916,0,0,0,1.2.919c.407.055.8.158,1.216.176a3.9,3.9,0,0,0,1.8-.431,2.621,2.621,0,0,0,1.449-1.728,4.308,4.308,0,0,0-.018-1.85c-.2-1.192-.477-2.374-.783-3.543a2,2,0,0,0-3.858,1.063Z"/><path class="d" d="M53.737,291.076c-.618,2.008-.215,6.627,3.589,7.02,5.028-.03,5.3-5.615,3.6-8.241C59.543,287.705,55.468,286.811,53.737,291.076Z"/><path class="d" d="M94,291.076c.618,2.008.215,6.627-3.589,7.02-5.028-.03-5.3-5.615-3.6-8.241C88.2,287.705,92.271,286.811,94,291.076Z"/><path class="a" d="M332.32,70.9a5.673,5.673,0,0,1,4.537-1.328,5.355,5.355,0,0,1,3.85,2.56,7.576,7.576,0,0,1,.793,3.045A22.691,22.691,0,0,1,339.187,87.2a14.427,14.427,0,0,1-3.729,4.894c-1.185.945-3.229.98-4.833,1.19a37.608,37.608,0,0,1-1.349,4.731c-1.3,3.521-8.57,15.726-17.716,20.135a52.787,52.787,0,0,0,.751,6.559c.457,2.614.314,4.95,3.948,6.263.24.086,10.546,4.99,10.914,5.141,0,0-5.584,25.081-31.955,25.081s-33.763-24.521-33.763-24.521c.7-.239,12.194-5.615,12.434-5.7,3.634-1.313,3.491-3.649,3.948-6.263a49.312,49.312,0,0,0,.726-5.913,32.318,32.318,0,0,1-12.231-9.452,39.255,39.255,0,0,1-7.721-15.734c-2.367.7-4.224-.478-5.525-1.516a14.427,14.427,0,0,1-3.729-4.894,22.68,22.68,0,0,1-2.312-12.024,7.559,7.559,0,0,1,.792-3.045,5.355,5.355,0,0,1,3.85-2.56,5.673,5.673,0,0,1,4.537,1.328s-4.561-41.261,35.142-41.261C335.218,29.637,332.32,70.9,332.32,70.9Z"/><path class="g" d="M255.435,69.069a9.824,9.824,0,0,1,.5-4.906c23.4-11.691,52.28-12.672,75.175.328,2.974,7.008-.257,9.884-5.48,10.369a21.024,21.024,0,0,1-9.556-1.944c-6.56-2.784-13.359-5.8-20.481-6.056a44.033,44.033,0,0,0-19.408,2.963c-2.985,1.067-7.643,3.561-10.722,4.315C260.027,75.469,256.16,73.122,255.435,69.069Z"/><path class="g" d="M332.552,30.49a39.5,39.5,0,0,0-28.307-20.254l-6.215-.891a4.246,4.246,0,0,0,.99-2.8,4.786,4.786,0,0,0-4.786-4.539c-1.809,0-5.053,1.109-5.053,4.287a5.408,5.408,0,0,0,.669,2.574l-5.156.73c-7.328,1.261-19.365,4.854-28.142,16a39.087,39.087,0,0,0-8.408,18.593,52.743,52.743,0,0,0,.718,23.933c26.559-16.634,62.708-18.35,88.661.5C340.052,54.348,338.507,41.457,332.552,30.49Z"/><path class="a" d="M278.116,175.208c-.239-4.3-.386-6.186-.6-10.051l-.127.055a77.67,77.67,0,0,1-2.654-15.381A30.146,30.146,0,0,1,276,139.6a42.087,42.087,0,0,0,40.248-.378,29.893,29.893,0,0,1,1.387,10.612,77.235,77.235,0,0,1-2.627,15.272c-.215,3.809-.365,5.772-.606,10.1Z"/><path class="f" d="M314.4,175.208c.246-4.438.4-6.39.621-10.383l13.255-28.58c.892-.572,9.636,4.147,14.683,6.213a39,39,0,0,1,12.713,9.145c4.908,5.273,8.743,16.79,10.447,23.6Z"/><path class="f" d="M222.442,175.208c1.7-6.815,5.539-18.332,10.447-23.6a39,39,0,0,1,12.713-9.145c5.52-2.26,13.109-6.25,14.717-5.906l17.2,28.605c.215,3.865.362,5.755.6,10.051Z"/><path class="e" d="M249.524,99.368c.018-.174.037-.346.058-.516a18.6,18.6,0,0,1,2.609-7.566,11.492,11.492,0,0,0,.9.807c1.3,1.038,3.158,2.218,5.525,1.516a39.255,39.255,0,0,0,7.721,15.734,34.345,34.345,0,0,0,9.638,8.2c-.521,2.482-2.885,4.9-6.241,6.6a22.237,22.237,0,0,1-6.637,2.088,22.677,22.677,0,0,1-14.813-2.592,4.895,4.895,0,0,1-1.636-1.43,1.487,1.487,0,0,1-.255-.715c-.007-.106.022-.517.149-.56,3.186-1.076,4.057-4.368,3.9-7.711s-1.013-6.79-1.07-10.146A32,32,0,0,1,249.524,99.368Z"/><path class="d" d="M249.767,91.513a25.148,25.148,0,0,0-2.275,13.635c.246,2.623.788,5.216.933,7.849.092,1.656.06,3.659-1.028,5.028a5.474,5.474,0,0,1-1.869,1.185,2.765,2.765,0,0,0-.989,3.189c.624,2.025,2.917,3.2,4.716,4a25.509,25.509,0,0,0,13.913,1.824c5.136-.722,10.494-3.019,13.532-7.392,1.473-2.119-1.993-4.12-3.453-2.019-2.668,3.839-8.215,5.449-12.642,5.666a22.127,22.127,0,0,1-7.165-.785,16.916,16.916,0,0,1-2.81-1.047q-.687-.338-1.342-.735c-.207-.126-.421-.334-.632-.435-.64-.308.318-.563-.392.467l-1.2.919c5.494-2.044,5.709-7.861,5.053-12.862-.728-5.545-1.511-11.265,1.1-16.472,1.15-2.3-2.3-4.323-3.454-2.019Z"/><path class="d" d="M333.731,72.309a3.566,3.566,0,0,1,5.249.835,8.025,8.025,0,0,1,.6,3.674A20.453,20.453,0,0,1,336.2,88.351a6.742,6.742,0,0,1-2.327,2.371,11.1,11.1,0,0,1-3.249.562,2.063,2.063,0,0,0-2,2,2.011,2.011,0,0,0,2,2,16.476,16.476,0,0,0,5.037-1,10.778,10.778,0,0,0,3.884-3.757A23.6,23.6,0,0,0,343.4,79.9c.424-3.46.49-7.937-2.329-10.459a7.738,7.738,0,0,0-10.169.04,2.015,2.015,0,0,0,0,2.829,2.044,2.044,0,0,0,2.828,0Z"/><path class="d" d="M257.638,69.484a7.727,7.727,0,0,0-10.163-.046c-2.944,2.628-2.758,7.366-2.267,10.944.889,6.48,5.52,16.912,13.714,15.218,2.519-.521,1.453-4.378-1.064-3.857-2.2.455-4.25-1.6-5.411-3.235A19.7,19.7,0,0,1,249.34,81a19.9,19.9,0,0,1-.377-4.126,8.6,8.6,0,0,1,.536-3.613,3.548,3.548,0,0,1,5.31-.951,2.055,2.055,0,0,0,2.829,0,2.016,2.016,0,0,0,0-2.828Z"/><path class="d" d="M276.551,119.037a49.417,49.417,0,0,1-.612,4.969,29.3,29.3,0,0,1-.541,3.021c-.035.126-.262.7-.108.374a4.822,4.822,0,0,1-.311.557c-.169.263.182-.2-.031.045-.065.074-.132.146-.2.215a1.6,1.6,0,0,1-.544.411c-.531.308-1.1.513-1.661.767-2.88,1.309-5.74,2.662-8.614,3.984q-1.113.513-2.23,1.019c-.265.12-.531.237-.8.356-.5.224.468-.171.024-.012a2.051,2.051,0,0,0-1.4,2.461,2.018,2.018,0,0,0,2.46,1.4c1.15-.412,2.261-.988,3.369-1.5q2.65-1.216,5.3-2.446l3.909-1.81a1.929,1.929,0,0,0,.314-.141c-.01.007-.752.3-.317.14.214-.079.423-.17.633-.259a8.207,8.207,0,0,0,1.133-.567,6.628,6.628,0,0,0,2.7-3.246,15.955,15.955,0,0,0,.713-3.335c.351-2.127.672-4.251.819-6.4a2,2,0,1,0-4,0Z"/><path class="d" d="M309.554,118.074a67.321,67.321,0,0,0,1.163,9.253,7.147,7.147,0,0,0,4.731,5.466c.743.3-.516-.256.011,0,.191.093.386.18.578.27q.912.427,1.822.858l4.93,2.333c1.121.531,2.233,1.1,3.375,1.587a2.067,2.067,0,0,0,2.736-.718,2.014,2.014,0,0,0-.717-2.736c-2.421-1.032-4.776-2.25-7.155-3.375-1.154-.547-2.305-1.1-3.467-1.634a13.7,13.7,0,0,1-1.749-.828,2.223,2.223,0,0,1-1.042-1.452,28.936,28.936,0,0,1-.62-3.441,49.982,49.982,0,0,1-.6-5.581,2.043,2.043,0,0,0-2-2,2.02,2.02,0,0,0-2,2Z"/><path class="d" d="M329.286,137.972c.219-.1-1.138.388-.73.227-.25.1-.446-.1-.2-.022.2.058.4.1.6.166.512.162,1.045.38,1.515.579,1.586.673,3.139,1.427,4.7,2.165,3.442,1.632,7.053,3.021,10.353,4.925a34.036,34.036,0,0,1,9.5,7.888,38.53,38.53,0,0,1,5.285,9.806,93.99,93.99,0,0,1,3.881,12.034c.628,2.494,4.487,1.437,3.857-1.064a94.756,94.756,0,0,0-3.675-11.512,46.346,46.346,0,0,0-5.831-11.21,37.025,37.025,0,0,0-10.3-8.978c-3.587-2.173-7.581-3.695-11.368-5.489-1.877-.889-3.755-1.787-5.682-2.563-1.271-.512-2.6-1.034-3.928-.406-2.325,1.1-.3,4.552,2.019,3.454Z"/><path class="d" d="M224.371,175.74c1.749-6.948,4.064-14.164,8-20.206a29.365,29.365,0,0,1,7.762-7.668c3.438-2.42,7.248-3.958,11.051-5.685,1.866-.848,3.722-1.724,5.611-2.519.756-.318,1.522-.627,2.3-.875.263-.084.528-.151.793-.225.47-.131.183-.037-.109-.082a2.064,2.064,0,0,0,2.46-1.4,2.015,2.015,0,0,0-1.4-2.461,7.382,7.382,0,0,0-3.754.639c-1.81.679-3.574,1.486-5.334,2.284-3.955,1.794-8.1,3.348-11.794,5.643a36.871,36.871,0,0,0-9.635,8.36,44.559,44.559,0,0,0-5.8,10.747,93.33,93.33,0,0,0-4.022,12.38c-.628,2.5,3.228,3.562,3.858,1.064Z"/><path class="d" d="M328.955,90.549a19.049,19.049,0,0,1-.892,4.724c-.171.575-.359,1.145-.549,1.715-.06.178-.423,1.112-.206.613a35.081,35.081,0,0,1-2.461,4.524,45.156,45.156,0,0,1-10.007,11.6,19.1,19.1,0,0,1-7.435,3.78c-2.506.583-1.445,4.441,1.064,3.857,5.685-1.325,10.45-5.371,14.218-9.66a49.167,49.167,0,0,0,7.954-11.808,25.433,25.433,0,0,0,2.314-9.343c.1-2.575-3.9-2.571-4,0Z"/><path class="d" d="M255.831,90.082a43.565,43.565,0,0,0,9.226,20.841c5.189,6.156,12.075,10.7,20.194,11.557a2.012,2.012,0,0,0,2-2,2.047,2.047,0,0,0-2-2c-7.176-.761-13.181-5.3-17.647-10.723-4.395-5.337-6.744-12-7.916-18.738a2.017,2.017,0,0,0-2.461-1.4,2.045,2.045,0,0,0-1.4,2.46Z"/><path class="d" d="M284.162,7.67a48.564,48.564,0,0,0-24.255,11.416,44.711,44.711,0,0,0-9.777,12.7,48.639,48.639,0,0,0-4.557,15.976A56.311,56.311,0,0,0,246.66,67.5c.563,2.511,4.42,1.448,3.857-1.063a52.625,52.625,0,0,1-1.188-16.528A45.9,45.9,0,0,1,252.951,35.1,41.111,41.111,0,0,1,273.389,15.05a49.311,49.311,0,0,1,11.837-3.523,2.016,2.016,0,0,0,1.4-2.46,2.045,2.045,0,0,0-2.46-1.4Z"/><path class="d" d="M253.366,66.638a9.091,9.091,0,0,0,2.4,7.285,9.669,9.669,0,0,0,7.515,2.563c3.242-.222,6.2-1.6,9.125-2.9a64.135,64.135,0,0,1,9.388-3.453,40.716,40.716,0,0,1,19.766-.405A72.692,72.692,0,0,1,312.591,73.6c3.5,1.471,6.908,2.949,10.739,3.264,3,.246,6.548-.336,8.81-2.479,2.416-2.289,2.4-5.732,1.525-8.718-.721-2.465-4.583-1.416-3.857,1.063.511,1.747.8,3.844-.664,4.977-1.8,1.394-4.659,1.38-6.781,1.038-3.361-.543-6.441-2.064-9.557-3.356a69.725,69.725,0,0,0-9.963-3.46,45.284,45.284,0,0,0-18.773-.418,52.076,52.076,0,0,0-8.7,2.493c-2.678,1-5.219,2.333-7.883,3.368-2.367.92-5.233,1.769-7.67.591-2.092-1.01-2.644-3.153-2.446-5.32a2.014,2.014,0,0,0-2-2,2.043,2.043,0,0,0-2,2Z"/><path class="d" d="M252.3,68.39c19.367-11.174,43.346-14.659,64.805-7.841a68.8,68.8,0,0,1,17.261,8.305c2.15,1.429,4.155-2.034,2.019-3.454-19.88-13.218-45.42-15.387-67.962-8.4a89.333,89.333,0,0,0-18.142,7.932c-2.229,1.286-.217,4.744,2.019,3.454Z"/><path class="d" d="M290.989,23.711a72.784,72.784,0,0,1,1.742,21.925c-.183,2.568,3.818,2.557,4,0a76.5,76.5,0,0,0-1.885-22.989c-.592-2.5-4.45-1.444-3.857,1.064Z"/><path class="d" d="M304.283,23.032c10.711,5.855,16.47,17.933,17.589,29.733a2.055,2.055,0,0,0,2,2,2.014,2.014,0,0,0,2-2c-1.251-13.19-7.563-26.624-19.57-33.187-2.26-1.235-4.281,2.217-2.019,3.454Z"/><path class="d" d="M279.159,19.578c-12.007,6.563-18.32,20-19.57,33.187a2.014,2.014,0,0,0,2,2,2.045,2.045,0,0,0,2-2c1.119-11.8,6.878-23.878,17.589-29.733,2.259-1.235.243-4.69-2.019-3.454Z"/><path class="d" d="M303.713,12.165A37.507,37.507,0,0,1,325.9,24.436c6.069,6.849,9.478,15.95,10.451,24.979a66.226,66.226,0,0,1-.541,17.432,2.064,2.064,0,0,0,1.4,2.461,2.016,2.016,0,0,0,2.46-1.4c1.677-10.59,1.432-21.59-2.351-31.728a44.148,44.148,0,0,0-17.733-22.3,39.677,39.677,0,0,0-14.805-5.576,2.062,2.062,0,0,0-2.46,1.4,2.016,2.016,0,0,0,1.4,2.46Z"/><path class="d" d="M276.13,141.955a44.239,44.239,0,0,0,39.357-.012c2.291-1.175.27-4.627-2.019-3.453a40.027,40.027,0,0,1-35.319.011c-2.287-1.171-4.314,2.28-2.019,3.454Z"/><path class="a" d="M313.059,120.2a3.333,3.333,0,0,0-2.022-.542,2.807,2.807,0,0,0-1.949,1.677c-1.089,2.232-.487,4.953.7,7.132s2.918,4.016,4.252,6.11c2.85,4.474,3.787,9.953,3.588,15.254a77.67,77.67,0,0,1-2.654,15.381,181.077,181.077,0,0,0,24.1-21.011c.944-.982,1.847-2.367,1.623-3.711a3.6,3.6,0,0,0-.894-1.639c-4.762-5.735-12.48-6.686-18.4-11.213C321.06,127.376,315.854,121.729,313.059,120.2Z"/><path class="a" d="M279.308,120.2a3.333,3.333,0,0,1,2.022-.542,2.807,2.807,0,0,1,1.949,1.677c1.089,2.232.487,4.953-.706,7.132s-2.917,4.016-4.252,6.11c-2.849,4.474-3.786,9.953-3.587,15.254a77.67,77.67,0,0,0,2.654,15.381,181.077,181.077,0,0,1-24.1-21.011c-.944-.982-1.848-2.367-1.623-3.711a3.6,3.6,0,0,1,.894-1.639c4.762-5.735,12.48-6.686,18.4-11.213C271.306,127.376,276.513,121.729,279.308,120.2Z"/><path class="d" d="M314.069,118.473c-2.149-1.108-4.433-1.129-6.05.865a7.951,7.951,0,0,0-1.3,6.525c.862,4.53,4.631,7.557,6.624,11.539,4.261,8.514,1.832,18.546-.3,27.278-.372,1.527,1.455,3.377,2.938,2.259,4.514-3.405,8.986-6.874,13.258-10.581q3.061-2.658,5.984-5.471a62.806,62.806,0,0,0,5.921-6.047,6.648,6.648,0,0,0,1.565-3.616,5.456,5.456,0,0,0-1.621-3.934,21.216,21.216,0,0,0-5.906-4.646c-2.17-1.21-4.47-2.164-6.716-3.222a26.66,26.66,0,0,1-5.78-3.311c-2.837-2.564-5.248-5.72-8.625-7.638-2.242-1.272-4.26,2.182-2.019,3.454,2.777,1.577,5.039,4.193,7.258,6.449,2.715,2.76,6.588,4.243,10.045,5.83a36.909,36.909,0,0,1,6.15,3.352,15.371,15.371,0,0,1,2.257,1.992c.813.868,1.253,1.335.552,2.432a18.079,18.079,0,0,1-2.493,2.7q-1.4,1.42-2.83,2.811-2.638,2.564-5.393,5.005c-4.371,3.87-8.966,7.474-13.626,10.988l2.938,2.259c2-8.209,3.927-16.805,1.812-25.2a25.058,25.058,0,0,0-2.11-5.535,40.812,40.812,0,0,0-3.41-5,12.241,12.241,0,0,1-2.621-5.217,4.544,4.544,0,0,1,.186-2.313c.358-.932.525-.951,1.285-.559C314.334,123.106,316.359,119.656,314.069,118.473Z"/><path class="d" d="M280.317,121.927c.707-.365.869-.42,1.235.417a4.5,4.5,0,0,1,.236,2.455,12.241,12.241,0,0,1-2.621,5.217c-2.43,3.309-4.5,6.493-5.52,10.531-2.115,8.392-.187,16.988,1.812,25.2l2.938-2.259a197.145,197.145,0,0,1-23.072-20.055c-.569-.587-1.819-1.626-1.692-2.573.116-.867,1.566-1.934,2.187-2.474A24.6,24.6,0,0,1,261.328,135c3.743-1.812,8.146-3.233,11.238-6.122,2.508-2.343,4.727-5.23,7.751-6.947,2.239-1.27.225-4.727-2.019-3.454-3.126,1.775-5.686,4.66-8.187,7.2a17.758,17.758,0,0,1-4.525,2.927c-2.224,1.135-4.54,2.08-6.776,3.191-3.869,1.924-10.968,6.035-8.68,11.29,1.093,2.512,3.618,4.489,5.535,6.378q2.922,2.878,5.984,5.611c4.714,4.194,9.693,8.075,14.729,11.873,1.483,1.118,3.313-.721,2.938-2.259-2.127-8.732-4.556-18.764-.295-27.278,1.993-3.982,5.762-7.008,6.624-11.539a7.958,7.958,0,0,0-1.3-6.525c-1.617-1.994-3.9-1.973-6.05-.865C276.01,119.654,278.031,123.107,280.317,121.927Z"/><path class="d" d="M313.021,164.825c-.194,3.462-.428,6.921-.621,10.383a2.013,2.013,0,0,0,2,2,2.046,2.046,0,0,0,2-2c.193-3.462.427-6.921.621-10.383a2.013,2.013,0,0,0-2-2,2.046,2.046,0,0,0-2,2Z"/><path class="d" d="M275.515,165.157c.187,3.351.414,6.7.6,10.051a2,2,0,0,0,4,0c-.187-3.351-.414-6.7-.6-10.051a2,2,0,0,0-4,0Z"/><path class="d" d="M299.214,11.041a6.389,6.389,0,0,0,1.537-6.265A7.014,7.014,0,0,0,296.463.4c-2.954-1.134-7.154.232-8.608,3.12a6.822,6.822,0,0,0,.683,7,2.2,2.2,0,0,0,1.195.919A2,2,0,0,0,291.992,8.5c-.161-.21-.6-.692-.593-.969,0,.235.076.219.021.032-.029-.1-.067-.2-.1-.3-.015-.052-.151-.6-.138-.608s.033.395.021.156c0-.1-.016-.2-.021-.3-.006-.162.006-.324,0-.486,0-.36-.1.4,0-.033.037-.156.079-.308.123-.461.13-.446-.166.28,0,0,.074-.127.15-.255.223-.382.16-.28-.322.346-.017.017.1-.1.194-.21.3-.308.039-.036.081-.07.119-.107.222-.215-.127.1-.156.112.107-.056.2-.145.306-.211.222-.141.477-.232.695-.373-.465.3-.2.081,0,.01.111-.039.224-.075.337-.108.233-.068.469-.118.708-.165.059-.011.124-.013.181-.029.037-.009-.507.045-.31.044.1,0,.2-.018.3-.023s.208-.007.311,0,.189.015.282.013c.255-.007-.485-.1-.048-.01.214.045.777.1.925.267.009.011-.366-.179-.165-.063.078.045.163.081.242.125.159.087.305.193.46.287.229.138-.279-.247-.082-.067.049.045.1.087.153.132.116.1.228.215.334.33.06.066.116.135.175.2.145.16-.108-.132-.109-.141.018.129.252.389.315.507.031.058.06.118.09.176.2.382-.087-.288-.024-.051.045.169.107.334.145.506.017.078.061.371.02.06-.045-.344,0,.091,0,.132a1.739,1.739,0,0,1-.022.629c.018-.041.093-.448,0-.066-.024.1-.044.2-.07.3s-.059.189-.089.284c-.1.31-.012-.072.036-.076-.022,0-.3.515-.317.55-.1.184.082-.118.105-.126-.059.021-.231.26-.278.308a2,2,0,1,0,2.829,2.829Z"/><path class="d" d="M287.336,101.6a15.319,15.319,0,0,0,7.373,1.708,12.013,12.013,0,0,0,7.459-2.208,2,2,0,0,0,0-2.828,2.06,2.06,0,0,0-2.828,0c.612-.477.157-.127,0-.026s-.3.181-.453.262c-.08.042-.162.08-.242.121-.218.112-.2-.031.1-.035a2.881,2.881,0,0,0-.624.227,11.257,11.257,0,0,1-1.748.4c.3-.046,0,0-.141.011-.171.017-.343.031-.515.043-.413.026-.828.037-1.242.034q-.556,0-1.113-.04c-.17-.011-.34-.025-.509-.042-.04,0-.656-.1-.22-.023A14.688,14.688,0,0,1,291,98.836c-.229-.068-.452-.15-.678-.227-.5-.172.318.161-.136-.053q-.42-.2-.83-.414a2,2,0,0,0-2.019,3.454Z"/><path class="d" d="M293.648,84.285a34.412,34.412,0,0,1,.809,3.7l-.072-.531a2.231,2.231,0,0,1,.014.51l.072-.531a1.2,1.2,0,0,1-.057.229l.2-.477a.914.914,0,0,1-.081.147l.313-.4a.8.8,0,0,1-.121.119l.405-.313a2.415,2.415,0,0,1-.293.155l.477-.2a2.171,2.171,0,0,1-.494.144l.532-.072a1.947,1.947,0,0,1-.464,0l.532.072c-.175-.025-.346-.067-.521-.091a1.515,1.515,0,0,0-.8-.035,1.486,1.486,0,0,0-.743.237,2,2,0,0,0-.718,2.736,1.912,1.912,0,0,0,1.195.919c.407.055.8.159,1.217.177a3.9,3.9,0,0,0,1.8-.431,2.625,2.625,0,0,0,1.449-1.728,4.3,4.3,0,0,0-.017-1.851c-.2-1.192-.477-2.373-.784-3.542a2,2,0,0,0-3.857,1.063Z"/><path class="d" d="M274.181,73.778c-.618,2.008-.215,6.628,3.589,7.021,5.029-.03,5.3-5.615,3.6-8.241C279.988,70.408,275.913,69.514,274.181,73.778Z"/><path class="d" d="M314.447,73.778c.618,2.009.216,6.628-3.589,7.021-5.028-.03-5.3-5.615-3.6-8.241C308.641,70.408,312.716,69.514,314.447,73.778Z"/><path class="h" d="M34.21,138.316c-9.825.236-16.218-6.994-16.163-13.66a78,78,0,0,1,2.377-16.627c1.848-6.6,3.169-18.213,3.169-34.312h0C22.8,49.963,29.052,32.736,38.9,23.305c5.938-5.685,19.319-13.43,34.354-13.43a54.565,54.565,0,0,1,21.823,4.18L98.143,15.3l3.651,2.151c2.909,1.714,3.946,3.184,6.94,6.072,7.517,7.252,12.741,20.3,13.573,31.985a135.068,135.068,0,0,1,.261,18.212c.267,20.059,3.965,31.287,5.874,36.813A36.744,36.744,0,0,1,130.76,123.1c.068,7.508-9.264,17.23-19.991,13.382Z"/><path class="a" d="M35.84,70.907a5.708,5.708,0,0,0-4.567-1.336A5.388,5.388,0,0,0,27.4,72.147a7.6,7.6,0,0,0-.8,3.065,22.819,22.819,0,0,0,2.328,12.1,14.5,14.5,0,0,0,3.752,4.925,9.184,9.184,0,0,0,5.894,2.1,38.887,38.887,0,0,0,7.439,14.583,32.649,32.649,0,0,0,12.128,9.437,48.85,48.85,0,0,1-.749,6.346c-.458,2.614-.315,4.95-3.948,6.263-.241.086-11.734,5.462-12.434,5.7,0,0-.211.072-.544.183a78.111,78.111,0,0,0,32.838,7.959c11.377.045,26.314-3.908,34.2-8.383l-.776-.319c-.368-.151-10.674-5.055-10.915-5.141-3.633-1.313-3.49-3.649-3.948-6.263a52.973,52.973,0,0,1-.759-6.719c9.406-4.255,16.936-16.869,18.262-20.468.2-.614.614-1.771.981-3.144.487-.078.767-.121.767-.121a9.614,9.614,0,0,0,4.474-2.016,14.5,14.5,0,0,0,3.752-4.925,22.819,22.819,0,0,0,2.328-12.1,7.6,7.6,0,0,0-.8-3.065A5.388,5.388,0,0,0,117,69.571a5.663,5.663,0,0,0-4.781,1.542C105.862,69.006,98.282,58.94,95.84,54.362c-1.724-3.234-3.686-9.882-5.076-15.221C83.68,48.36,74.683,54.9,63.506,58.088c-2.656.79-.152-7.635.319-11.615-7.06,6.934-14.778,14.254-21.939,20.113Z"/><path class="a" d="M2,175.208c1.7-6.815,5.538-18.332,10.447-23.6a38.994,38.994,0,0,1,12.712-9.145c5.52-2.26,13.11-6.25,14.717-5.906a77.966,77.966,0,0,0,33.431,8.262c11.535.045,26.728-4.018,34.527-8.569.892-.572,9.636,4.147,14.683,6.213a38.994,38.994,0,0,1,12.712,9.145c4.909,5.273,8.744,16.79,10.447,23.6Z"/><path class="d" d="M95.612,12.126A58.372,58.372,0,0,0,71.5,7.91a55.2,55.2,0,0,0-24.323,7.05A43.423,43.423,0,0,0,32.955,27.118a54.9,54.9,0,0,0-8.371,18,96.135,96.135,0,0,0-2.993,28.6c.08,2.568,4.081,2.579,4,0-.451-14.4,1.308-29.95,9.269-42.331A37.2,37.2,0,0,1,46.649,19.909a52.092,52.092,0,0,1,21.808-7.776,54.456,54.456,0,0,1,26.092,3.85,2.013,2.013,0,0,0,2.46-1.4,2.049,2.049,0,0,0-1.4-2.461Z"/><path class="d" d="M124.568,73.717a100.067,100.067,0,0,0,.053-12.878,87.55,87.55,0,0,0-1.039-11.132A54.676,54.676,0,0,0,113,25.26a65.011,65.011,0,0,0-4.854-5.148,27.45,27.45,0,0,0-5.34-4.391c-2.211-1.33-4.225,2.127-2.019,3.454a21.249,21.249,0,0,1,4.137,3.368c1.454,1.462,2.977,2.871,4.326,4.433a42.809,42.809,0,0,1,6.414,10.413c3.247,7.19,4.526,14.773,4.919,22.591a103.063,103.063,0,0,1-.012,13.737c-.214,2.565,3.787,2.551,4,0Z"/><path class="d" d="M21.593,73.717c-.009,10.525-.206,21.41-2.576,31.719a115.073,115.073,0,0,0-2.7,14.761,24.915,24.915,0,0,0,.01,7.163,14.568,14.568,0,0,0,2.722,5.919,18.45,18.45,0,0,0,15.165,7.037c2.572-.036,2.58-4.036,0-4a14.486,14.486,0,0,1-11.865-5.259,11.072,11.072,0,0,1-2.214-5.032,26.653,26.653,0,0,1,.259-6.588,119.005,119.005,0,0,1,2.564-13.288,99.478,99.478,0,0,0,1.815-12.424c.618-6.649.818-13.333.824-20.008,0-2.574-4-2.578-4,0Z"/><path class="d" d="M120.568,73.717a122.8,122.8,0,0,0,4.123,31.605c2.219,7.841,7.229,17.441,1.313,24.758a13.148,13.148,0,0,1-14.7,4.47c-2.438-.841-3.486,3.022-1.063,3.857,10.855,3.742,22.976-5.168,22.489-16.659-.222-5.235-1.852-9.979-3.406-14.911a94.632,94.632,0,0,1-2.874-11.761,132.013,132.013,0,0,1-1.878-21.359c-.038-2.572-4.038-2.579-4,0Z"/><path class="d" d="M56.106,119.037a49.417,49.417,0,0,1-.612,4.969,29.03,29.03,0,0,1-.54,3.021c-.036.126-.263.7-.109.374a4.822,4.822,0,0,1-.311.557c-.168.263.182-.2-.031.045-.064.074-.131.146-.2.215a1.6,1.6,0,0,1-.544.411c-.531.308-1.1.513-1.661.767-2.88,1.309-5.74,2.662-8.614,3.984q-1.114.513-2.23,1.019c-.265.12-.532.237-.8.356-.5.224.468-.171.023-.012a2.053,2.053,0,0,0-1.4,2.461,2.019,2.019,0,0,0,2.461,1.4c1.149-.412,2.261-.988,3.369-1.5q2.651-1.216,5.3-2.446l3.908-1.81a1.891,1.891,0,0,0,.314-.141c-.009.007-.751.3-.317.14.214-.079.424-.17.633-.259a8.219,8.219,0,0,0,1.134-.567,6.621,6.621,0,0,0,2.7-3.246,15.829,15.829,0,0,0,.713-3.335c.352-2.127.672-4.251.819-6.4a2,2,0,0,0-4,0Z"/><path class="d" d="M89.11,118.074a67.319,67.319,0,0,0,1.162,9.253A7.146,7.146,0,0,0,95,132.793c.743.3-.517-.256.01,0,.192.093.386.18.579.27q.912.427,1.821.858l4.93,2.333c1.122.531,2.234,1.1,3.375,1.587a2.068,2.068,0,0,0,2.737-.718,2.015,2.015,0,0,0-.718-2.736c-2.421-1.032-4.776-2.25-7.154-3.375-1.155-.547-2.305-1.1-3.468-1.634a13.751,13.751,0,0,1-1.748-.828,2.225,2.225,0,0,1-1.043-1.452,29.136,29.136,0,0,1-.619-3.441,49.747,49.747,0,0,1-.6-5.581,2.043,2.043,0,0,0-2-2,2.018,2.018,0,0,0-2,2Z"/><path class="d" d="M3.926,175.74a80.547,80.547,0,0,1,5.788-16.287,27.239,27.239,0,0,1,4.418-6.724,37.493,37.493,0,0,1,7.583-6.193,79,79,0,0,1,8.854-4.276c2.52-1.143,5.02-2.4,7.636-3.32.411-.144.826-.261,1.246-.378.38-.106.322.093.087-.028.443.227-.931-.547-.043.067a23.747,23.747,0,0,0,4.2,1.922,81.249,81.249,0,0,0,9.754,3.393,73.1,73.1,0,0,0,21.688,2.872,82.3,82.3,0,0,0,19.671-3.225,75.934,75.934,0,0,0,8.779-3.038c1.256-.527,2.5-1.082,3.709-1.707a11.159,11.159,0,0,0,1.3-.7c.805-.564-.943.267-.483.085-.347.137-.338-.088.081.047a49.862,49.862,0,0,1,5.914,2.549c2.527,1.2,5.072,2.338,7.621,3.486,6.208,2.8,11.889,7.295,15.236,13.286a74.6,74.6,0,0,1,6.782,18.173c.628,2.494,4.487,1.437,3.857-1.064a85.893,85.893,0,0,0-6.111-17.079,35.07,35.07,0,0,0-12.659-13.973,66.125,66.125,0,0,0-8.537-4.318c-2.545-1.175-5.056-2.423-7.618-3.561-1.625-.721-4-2.127-5.8-1.251a79.01,79.01,0,0,1-7.318,3.341,83.215,83.215,0,0,1-19.645,4.616,65.873,65.873,0,0,1-21.788-1.476,81.822,81.822,0,0,1-10.416-3.131c-1.541-.578-3.061-1.208-4.553-1.9-1.183-.551-2.407-1.47-3.753-1.394-2.419.136-4.922,1.578-7.079,2.545-2.915,1.308-5.872,2.552-8.762,3.91-5.913,2.78-11.6,7.113-15.172,12.652-3.353,5.2-5.512,11.263-7.263,17.167q-.568,1.917-1.056,3.855c-.629,2.5,3.228,3.562,3.857,1.064Z"/><path class="d" d="M113.847,72.321a3.615,3.615,0,0,1,5.207.683,6.982,6.982,0,0,1,.692,3.538,19.975,19.975,0,0,1-.291,4.108c-.893,4.894-3.447,10.706-8.87,11.678a2.018,2.018,0,0,0-1.4,2.46,2.044,2.044,0,0,0,2.46,1.4c7.755-1.39,11.444-10.177,12.028-17.2.291-3.5.091-7.639-2.952-9.931a7.748,7.748,0,0,0-9.706.444c-1.977,1.653.866,4.47,2.829,2.828Z"/><path class="d" d="M109.058,90.008a19.222,19.222,0,0,1-.9,4.758c-.172.58-.361,1.153-.553,1.726-.06.179-.424,1.116-.208.62a35.241,35.241,0,0,1-2.478,4.554,45.43,45.43,0,0,1-10.073,11.676,19.251,19.251,0,0,1-7.49,3.808c-2.506.584-1.445,4.441,1.064,3.857,5.72-1.333,10.514-5.4,14.305-9.719a49.507,49.507,0,0,0,8-11.882,25.605,25.605,0,0,0,2.327-9.4c.1-2.575-3.9-2.571-4,0Z"/><path class="d" d="M37.254,69.493a7.75,7.75,0,0,0-9.706-.444c-3.044,2.29-3.242,6.43-2.952,9.931.584,7.028,4.273,15.815,12.028,17.2a2.056,2.056,0,0,0,2.46-1.4,2.017,2.017,0,0,0-1.4-2.46c-5.423-.972-7.977-6.785-8.87-11.678a19.845,19.845,0,0,1-.3-3.887,7.9,7.9,0,0,1,.6-3.607,3.6,3.6,0,0,1,5.3-.835c1.962,1.641,4.806-1.174,2.829-2.828Z"/><path class="d" d="M35.845,91.577a42.746,42.746,0,0,0,10.011,20.2c5.083,5.568,11.622,9.554,19.2,10.357a2.013,2.013,0,0,0,2-2,2.045,2.045,0,0,0-2-2c-6.637-.7-12.3-4.634-16.654-9.5a38.834,38.834,0,0,1-8.7-18.123c-.534-2.517-4.391-1.452-3.857,1.063Z"/><path class="d" d="M88.954,40.133A110.76,110.76,0,0,0,92.625,52a34.878,34.878,0,0,0,4.268,7.74,56.091,56.091,0,0,0,6.808,7.986,22.069,22.069,0,0,0,8.2,5.384c2.457.788,3.508-3.073,1.063-3.857-2.635-.846-4.871-2.819-6.812-4.72a51.559,51.559,0,0,1-6.164-7.32c-3.806-5.444-5.5-11.786-7.177-18.145-.658-2.486-4.517-1.432-3.857,1.063Z"/><path class="d" d="M89.315,37.772A53.739,53.739,0,0,1,74.763,51.038,47.478,47.478,0,0,1,66,55.2q-1.121.4-2.258.739l-.766.225a1.689,1.689,0,0,1,.407,0,1.985,1.985,0,0,1,1.012.844c-.086-.121-.087-.461-.06-.1-.015-.2-.028-.395-.029-.594a12.4,12.4,0,0,1,.1-1.564c.328-2.78,1.071-5.5,1.419-8.275.226-1.806-2.288-2.521-3.415-1.414-7.078,6.948-14.265,13.818-21.938,20.113-1.991,1.633.853,4.449,2.829,2.828,7.672-6.3,14.86-13.165,21.938-20.113l-3.414-1.414c-.3,2.437-1.084,5.457-1.4,8.143-.256,2.153-.127,5.607,2.877,5.515,1.714-.053,3.653-1.009,5.234-1.622a54.919,54.919,0,0,0,5.242-2.339,52.738,52.738,0,0,0,9.477-6.3A58.148,58.148,0,0,0,92.144,40.6a2.069,2.069,0,0,0,0-2.829,2.014,2.014,0,0,0-2.829,0Z"/><path class="d" d="M66.892,101.6a15.314,15.314,0,0,0,7.373,1.708,12.013,12.013,0,0,0,7.459-2.208,2,2,0,0,0,0-2.828,2.062,2.062,0,0,0-2.829,0c.612-.477.158-.127,0-.026s-.3.181-.453.262c-.08.042-.162.08-.243.121-.217.112-.2-.031.1-.035a2.87,2.87,0,0,0-.625.227,11.231,11.231,0,0,1-1.748.4c.3-.046,0,0-.14.011-.172.017-.343.031-.515.043q-.621.039-1.243.034-.556,0-1.112-.04-.255-.016-.51-.042c-.04,0-.656-.1-.22-.023a14.688,14.688,0,0,1-1.633-.363c-.229-.068-.452-.15-.677-.227-.5-.172.318.161-.136-.053q-.42-.2-.83-.414a2,2,0,1,0-2.019,3.454Z"/><path class="d" d="M73.2,84.285a34.172,34.172,0,0,1,.809,3.7l-.071-.531a2.231,2.231,0,0,1,.014.51l.071-.531a1.2,1.2,0,0,1-.056.229l.2-.477a1,1,0,0,1-.081.147l.312-.4a.8.8,0,0,1-.121.119l.405-.313a2.276,2.276,0,0,1-.293.155l.478-.2a2.171,2.171,0,0,1-.494.144l.532-.072a1.947,1.947,0,0,1-.464,0l.532.072c-.175-.025-.347-.067-.522-.091a1.512,1.512,0,0,0-.8-.035,1.492,1.492,0,0,0-.744.237,2,2,0,0,0-.717,2.736,1.91,1.91,0,0,0,1.2.919c.407.055.8.159,1.216.177a3.9,3.9,0,0,0,1.8-.431,2.625,2.625,0,0,0,1.449-1.728,4.312,4.312,0,0,0-.018-1.851c-.2-1.192-.477-2.373-.783-3.542A2,2,0,0,0,73.2,84.285Z"/><path class="d" d="M53.737,73.778c-.618,2.008-.215,6.628,3.589,7.021,5.028-.03,5.3-5.615,3.6-8.241C59.543,70.408,55.468,69.514,53.737,73.778Z"/><path class="d" d="M94,73.778c.618,2.009.215,6.628-3.589,7.021-5.028-.03-5.3-5.615-3.6-8.241C88.2,70.408,92.271,69.514,94,73.778Z"/></svg>