<?xml version="1.0" encoding="utf-8"?>
<!-- Uploaded to: SVG Repo, www.svgrepo.com, Generator: SVG Repo Mixer Tools -->
<svg width="800px" height="800px" viewBox="-12.51 0 325.089 325.089" xmlns="http://www.w3.org/2000/svg"><defs><style>.a{fill:#ffffff;}.b{fill:#ffda71;}.c{fill:#211715;}.d{fill:#7a7473;}.e{fill:#5394cf;}</style></defs><path class="a" d="M151.575,253.293c-9.377-6-20.5-7.8-31.687-6.97-11.058.821-25.158,2.092-34,6.578-3.333,15.508-9.923,53.277-12.775,68.356,25.975-6.549,57.176-6.549,78.468,1.846,21.55-8.234,50.973-8.234,78.457-1.846-2.852-15.079-9.442-52.848-12.774-68.356-8.844-4.486-22.512-6.4-33.571-7.225C172.509,244.846,162.083,247.4,151.575,253.293Z"/><path class="a" d="M148.686,129.638a4.26,4.26,0,0,0-1.46-.826c-7.514-3.023-13.784-7.633-16.529-11.324a20.445,20.445,0,0,0-4.738,6.649c3.623,14.405,9.466,29.74,14.156,43.64q5.19,15.375,10.38,30.74,5.19-15.36,10.39-30.74c4.651-13.77,10.421-28.934,14.044-43.221-1.523-2.938-2.446-4.761-4.955-7.068-2.746,3.691-9.015,8.3-16.529,11.324a4.257,4.257,0,0,0-1.461.826Z"/><path class="a" d="M189.484,64.427a6.322,6.322,0,0,1,4.57-1.673,5.868,5.868,0,0,1,5.269,2.927c1.79,3.105,1.714,8.827.513,12.367-.851,2.507-2.246,6.342-5.607,9.092a6.962,6.962,0,0,1-5.372,1.551l-.6-.1c-.524,1.836-1.288,3.756-1.575,4.627-1.27,3.448-8.011,15.121-16.7,20.513,0,1.893,0,3.759,0,3.759-2.746,3.691-9.015,8.3-16.529,11.324a4.257,4.257,0,0,0-1.461.826h-3.3a4.26,4.26,0,0,0-1.46-.826c-7.514-3.023-13.784-7.633-16.529-11.324,0,0,0-1.627,0-3.518a37.376,37.376,0,0,1-10.17-8.846,42.862,42.862,0,0,1-8.949-16.485,6.888,6.888,0,0,1-5.634-1.5c-3.361-2.75-4.755-6.585-5.607-9.092-1.2-3.54-1.277-9.262.513-12.367a5.868,5.868,0,0,1,5.269-2.927,6.321,6.321,0,0,1,4.57,1.673s-4.83-35.446,38.837-35.446S189.484,64.427,189.484,64.427Z"/><path class="a" d="M245.77,82.9a3.318,3.318,0,0,0,.444,1.053,6.877,6.877,0,0,0,2.743,2.02,62.339,62.339,0,0,0,9.06,3.5,5.386,5.386,0,0,0,3.163-.982A6.124,6.124,0,0,0,262.3,86.96c1.668-3.195,4.911-11.026,4.507-12l-.078-1.233a87.021,87.021,0,0,1-16.116-6.684l-.6,1.025a72.409,72.409,0,0,0-4.227,13.317A3.859,3.859,0,0,0,245.77,82.9Z"/><path class="b" d="M281.2,38.278c.424.483.843,1.005,1.25,1.568a19.094,19.094,0,0,1,2.1,19.767,23.84,23.84,0,0,1-5.517,7.754,27.05,27.05,0,0,1-5.731,4.382,25.723,25.723,0,0,1-5.459,2.286,83.322,83.322,0,0,1-18.308-7.623c-3.02-2.853-4.44-9.6-4.217-13.252a26.877,26.877,0,0,1,1.446-7.839,22.818,22.818,0,0,1,4.635-7.487,19.587,19.587,0,0,1,9.937-6.1,22.561,22.561,0,0,1,12.611,1.21A20.565,20.565,0,0,1,281.2,38.278Z"/><path class="c" d="M279.787,39.692a18.938,18.938,0,0,1,4.235,8.265A18.208,18.208,0,0,1,282.9,58.426a24.806,24.806,0,0,1-15.589,13.68h1.063a76.041,76.041,0,0,1-14.915-5.8,9.306,9.306,0,0,1-3.093-1.925,11.162,11.162,0,0,1-1.638-3.022,21.477,21.477,0,0,1,4.085-22.107c3.507-3.771,7.965-6.122,13.224-5.961a18.836,18.836,0,0,1,13.746,6.4c1.723,1.919,4.545-.917,2.828-2.828-6.321-7.038-16.961-9.75-25.69-5.685a23.4,23.4,0,0,0-8.424,7.01,26.017,26.017,0,0,0-5.192,15.219,22.057,22.057,0,0,0,3.38,12.681c1.446,2.1,3.558,3.093,5.8,4.189,2.386,1.17,4.84,2.211,7.318,3.169,2.075.8,4.175,1.547,6.308,2.178a4.454,4.454,0,0,0,2.872.156,29.108,29.108,0,0,0,4.1-1.656,29.717,29.717,0,0,0,9.96-8.194,23.625,23.625,0,0,0,5.333-15.046,22.5,22.5,0,0,0-5.761-14.021C280.931,34.911,278.113,37.751,279.787,39.692Z"/><path class="c" d="M272.421,13.625q.035,3.186.1,6.371a2,2,0,0,0,4,0q-.069-3.184-.1-6.371a2,2,0,0,0-4,0Z"/><path class="c" d="M286.84,23.5q1.631-2.22,3.067-4.572a2,2,0,1,0-3.454-2.019q-1.435,2.351-3.066,4.572a2.01,2.01,0,0,0-.2,1.541,2,2,0,0,0,2.46,1.4l.478-.2a2.011,2.011,0,0,0,.717-.717Z"/><path class="c" d="M293.4,31.915c1.859-1.082,3.747-2.123,5.693-3.043a2.013,2.013,0,0,0,.919-1.2,2.043,2.043,0,0,0-.2-1.541,2.017,2.017,0,0,0-1.2-.919,2.256,2.256,0,0,0-1.541.2c-1.945.919-3.834,1.96-5.693,3.042a2,2,0,1,0,2.019,3.454Z"/><path class="c" d="M248.208,78a145.948,145.948,0,0,0,14.635,5.573,2,2,0,1,0,1.063-3.857,139.308,139.308,0,0,1-13.679-5.17,2.062,2.062,0,0,0-2.736.718A2.015,2.015,0,0,0,248.208,78Z"/><path class="c" d="M248.285,67.057a23.535,23.535,0,0,0-1.544,3.77q-.924,2.6-1.7,5.254a38.124,38.124,0,0,0-1.243,5.134c-.408,2.791,1.095,4.855,3.477,6.15a53.483,53.483,0,0,0,5.423,2.381,22.5,22.5,0,0,0,5.048,1.687,6.255,6.255,0,0,0,5.568-2.385,22.347,22.347,0,0,0,2.336-4.527c.846-1.929,1.66-3.879,2.353-5.869.426-1.224,1.145-2.914.73-4.225-.773-2.446-4.636-1.4-3.857,1.063.072.228-.038-.368-.037-.335,0,.252-.084.116.016.03s.049-.2-.012.038c-.031.119-.051.242-.08.361-.136.568-.318,1.125-.5,1.678-.483,1.428-1.037,2.834-1.623,4.222-.536,1.271-1.1,2.532-1.711,3.769a7.515,7.515,0,0,1-.989,1.651c-.232.267.293-.184,0,0a4.439,4.439,0,0,1-.526.283,4.192,4.192,0,0,1-.879.3c-.145.029-.435-.013-.144.019a2.227,2.227,0,0,1-.36-.088c-.279-.087-.562-.161-.841-.25-.777-.251-1.542-.538-2.3-.834-1.521-.592-3.021-1.235-4.509-1.9-1.287-.58-2.88-1.156-2.606-2.8a37.254,37.254,0,0,1,1.058-4.214q.769-2.667,1.69-5.289a18.3,18.3,0,0,1,1.224-3.05c1.274-2.241-2.181-4.259-3.454-2.019Z"/><path class="c" d="M274.925,59.685a9.973,9.973,0,0,0-2.64-6.131c-1.444-1.7-3.414-3.619-5.683-4.007-4.669-.8-9.141,3.437-7.648,8.187A6.272,6.272,0,0,0,263.4,61.9a5.618,5.618,0,0,0,3.223.068,7.214,7.214,0,0,0,2.948-2.057c3.334-3.767,1.513-8.746-2.044-11.589a9.636,9.636,0,0,0-14.462,1.487,2.063,2.063,0,0,0,0,2.828,2.014,2.014,0,0,0,2.829,0c1.82-2.288,4.411-3.717,7.3-2.392,1.994.915,4.594,3.3,4.17,5.545a3.546,3.546,0,0,1-2.018,2.393c.284-.078-.318-.016-.361-.022a4.513,4.513,0,0,1-.888-.231,3.126,3.126,0,0,1-.987-.689,2.333,2.333,0,0,1-.081-2.671,3.045,3.045,0,0,1,2.524-1.139c1.41.058,2.72,1.633,3.615,2.619a6.028,6.028,0,0,1,1.759,3.632c.1,2.566,4.1,2.579,4,0Z"/><path class="c" d="M1.932,234.006q20.667,0,41.335-.045,4.713,0,9.424-.007c2.574,0,2.578-4,0-4q-21.044,0-42.088.046-4.336,0-8.671.006c-2.574,0-2.578,4,0,4Z"/><path class="c" d="M246.691,234.006q20.944,0,41.888-.045,4.768,0,9.538-.007c2.574,0,2.578-4,0-4q-21.321,0-42.642.046-4.392,0-8.784.006c-2.574,0-2.578,4,0,4Z"/><path class="d" d="M105.085,33.19a47.282,47.282,0,0,1,16.7-21.882,46.722,46.722,0,0,1,28.184-8.886c9.813,0,17.9,2.326,24.7,6.563,9.707-12.49,24.936-6.275,26.793,3.408,1.2,6.238,1.56,10.092,4.415,15.729,2.939,5.8,5.4,6.528,10.51,8.929-4.139,6.112-9.584,11.309-18.784,9.111.043.573.077,1.158.1,1.749a48.774,48.774,0,0,1-1.817,15.116,7.824,7.824,0,0,0-1.838-.273,6.338,6.338,0,0,0-4.428,1.546c-6.474-1.552-13.168-8-17.044-12.949-3.787-4.833-6.156-10.638-8.156-17.194-6.068,6.833-16.349,12.432-27.8,18.706a157.151,157.151,0,0,1-19.283,7.544l-6.655,4.02a6.321,6.321,0,0,0-4.57-1.673,7.544,7.544,0,0,0-2.015.328,50.765,50.765,0,0,1-1.863-15.171A49.73,49.73,0,0,1,104.223,35.8Q104.621,34.463,105.085,33.19Z"/><path class="e" d="M92.427,226.348l.883-.46c-2.36-3.546-4.354-6.4-6-8.468-3.287-4.141-4.772-4.714-2.308-9.778a102.706,102.706,0,0,1,7.5-11.652l1.721-1.9c.582,5.54,1.224,10.7,1.86,14.154.986,11.885,1.251,11.536,2.085,23.642,23.016-.02,80.929-.041,103.409-.063.805-11.477,1.077-11.233,2.046-22.912.578-3.141,1.161-7.7,1.7-12.673l2.5,2.775a98.94,98.94,0,0,1,9.069,14.5c.621,3.278-2.677,11.329-4.627,13.929,0,0-1.309,1.009-2.454,1.862L241.677,241.8a80.639,80.639,0,0,0,9.053-17.217c1.594-4.288,1.048-9.536-.081-13.419-2.937-10.1-15.673-35.618-18.745-42.731-1.55-3.589-3.567-7.868-5.728-11.855a39.89,39.89,0,0,0-18.522-17.264c-5.405-2.471-15.8-7.546-24.4-11.773a42.516,42.516,0,0,0-7.549-6.128c-3.544,15.191-9.839,31.59-14.83,46.369L150.5,198.522l-10.382-30.744c-4.991-14.779-11.286-31.178-14.83-46.369a39.962,39.962,0,0,0-6.166,4.789c-9.775,4.323-22.4,10.016-28.834,13.265-6.628,3.347-11.444,8.222-15.833,14.97C72.2,157.9,70.48,161.9,68.584,165.5c-3.4,6.447-13.74,24.4-17.192,32.966-1.955,4.85-4.011,9.818-5.009,15.281-1.7,9.3,9.064,24.353,17.735,27.37Z"/><path class="c" d="M152.584,251.566c-9.721-6.149-21.355-8.057-32.7-7.243-10.341.742-21.233,1.474-31.029,5.128-1.038.387-2.066.812-3.07,1.28a3.257,3.257,0,0,0-1.629,1.16,4.636,4.636,0,0,0-.4,1.409q-.483,2.284-.938,4.573-1.14,5.693-2.2,11.4c-1.665,8.823-3.271,17.657-4.873,26.492-1.508,8.322-2.99,16.651-4.56,24.963a2.026,2.026,0,0,0,2.46,2.46,155.671,155.671,0,0,1,30.848-4.472,134.768,134.768,0,0,1,30.329,1.808,91.041,91.041,0,0,1,13.373,3.455c.936.324,1.9.818,2.855,1.055,1.208.3,2.777-.641,3.918-1.028q3.319-1.124,6.724-1.975a121.672,121.672,0,0,1,30.648-3.349,171.052,171.052,0,0,1,37.166,4.506,2.027,2.027,0,0,0,2.46-2.46c-3.024-16.009-5.805-32.063-8.8-48.077q-1.109-5.931-2.261-11.854-.48-2.451-.978-4.9c-.335-1.644-.373-3.994-1.963-4.877-4.32-2.4-9.51-3.648-14.3-4.665a141.4,141.4,0,0,0-16.064-2.35,64.286,64.286,0,0,0-18.646.572,63.063,63.063,0,0,0-18.387,6.989c-2.249,1.252-.234,4.708,2.019,3.454a55.732,55.732,0,0,1,25.864-7.484,94.02,94.02,0,0,1,12.786.85,119.441,119.441,0,0,1,12.567,2.089,54.508,54.508,0,0,1,12.452,4.152l-.919-1.2c3.948,18.41,7.049,37.013,10.414,55.535.777,4.276,1.553,8.552,2.36,12.822l2.46-2.46c-20.829-4.813-42.942-6.453-64.05-2.452a91.731,91.731,0,0,0-15.469,4.3h1.063a101.821,101.821,0,0,0-29-6.168,155.163,155.163,0,0,0-32.547.936,159.1,159.1,0,0,0-17.983,3.386l2.46,2.46c3.48-18.421,6.642-36.9,10.166-55.314.833-4.354,1.678-8.708,2.608-13.043l-.919,1.2c7.186-3.592,15.649-4.662,23.545-5.488,8.666-.906,17.464-1.71,26.061.168a43.532,43.532,0,0,1,14.063,5.713C152.747,256.4,154.756,252.94,152.584,251.566Z"/><path class="c" d="M149.63,262.032c0,15.779-.162,31.557-.164,47.337,0,2.573,4,2.578,4,0,0-15.78.163-31.558.164-47.337,0-2.574-4-2.578-4,0Z"/><path class="c" d="M95.037,224.879c-1.927-2.891-3.879-5.769-6.02-8.507-.826-1.056-1.756-2.046-2.531-3.14a2.4,2.4,0,0,1-.679-2.044c.356-2.424,2.168-4.854,3.446-6.874,1.576-2.493,3.23-4.944,4.986-7.314a2.013,2.013,0,0,0-.717-2.736,2.048,2.048,0,0,0-2.737.717c-1.894,2.556-3.676,5.2-5.357,7.905-1.515,2.434-3.26,5.133-3.6,8.037-.332,2.871,1.613,4.913,3.306,6.97a110.281,110.281,0,0,1,6.445,9c1.421,2.132,4.887.132,3.454-2.018Z"/><path class="c" d="M60.387,213.785a48.675,48.675,0,0,1,16.442-1.1,2.012,2.012,0,0,0,2-2,2.046,2.046,0,0,0-2-2,51.994,51.994,0,0,0-17.5,1.242c-2.5.6-1.442,4.461,1.063,3.858Z"/><path class="c" d="M206.419,200.424A68.693,68.693,0,0,1,211.7,208.3q1.183,2,2.3,4.035a13.579,13.579,0,0,0,.863,1.589c.421.564.175-.218.114.187-.031.205.008.471,0,.681a20.369,20.369,0,0,1-1.634,6.18,23.507,23.507,0,0,1-2.788,5.458l.718-.718q-1.221.939-2.454,1.863a2.062,2.062,0,0,0-.718,2.736,2.014,2.014,0,0,0,2.736.717,14.164,14.164,0,0,0,3.4-2.9,21.9,21.9,0,0,0,1.764-3.246,31.953,31.953,0,0,0,2.807-8.547,6.633,6.633,0,0,0-.327-4.132c-.81-1.577-1.7-3.123-2.581-4.659a80.015,80.015,0,0,0-6.644-9.953,2.014,2.014,0,0,0-2.829,0,2.05,2.05,0,0,0,0,2.829Z"/><path class="c" d="M225.289,214.112c-.59.258-.06.03.071-.016.158-.055.317-.1.477-.15.343-.1.69-.177,1.04-.243.185-.035.371-.063.556-.095q.336-.05-.1.011c.1-.013.195-.025.293-.036.4-.046.8-.08,1.205-.107a47.475,47.475,0,0,1,4.919-.02,2.016,2.016,0,0,0,2-2,2.043,2.043,0,0,0-2-2c-3.476-.135-7.234-.218-10.479,1.2a2.006,2.006,0,0,0-.718,2.736,2.063,2.063,0,0,0,2.737.718Z"/><path class="c" d="M150.231,82.843a36.5,36.5,0,0,1,.855,3.909l-.072-.532a2.38,2.38,0,0,1,.015.54l.071-.532a1.346,1.346,0,0,1-.059.243l.2-.478a.978.978,0,0,1-.085.156l.313-.405a.847.847,0,0,1-.128.126l.405-.313a2.415,2.415,0,0,1-.31.164l.478-.2a2.278,2.278,0,0,1-.522.152l.532-.072a2.059,2.059,0,0,1-.49,0l.531.071c-.184-.026-.366-.071-.55-.1a1.506,1.506,0,0,0-.8-.036,1.486,1.486,0,0,0-.743.237,2,2,0,0,0-.718,2.736,1.917,1.917,0,0,0,1.195.92c.42.056.828.163,1.255.182a4.016,4.016,0,0,0,1.849-.44,2.668,2.668,0,0,0,1.479-1.758,4.437,4.437,0,0,0-.019-1.895c-.213-1.259-.5-2.507-.828-3.743a2,2,0,1,0-3.857,1.064Z"/><path class="c" d="M162.72,74.441c-.02-1.911.761-4.1,2.525-5.019a4.331,4.331,0,0,1,6.029,3.081c.944,2.89-.54,6.745-3.84,7.078C164.737,79.735,162.677,76.974,162.72,74.441Z"/><path class="c" d="M129.405,74.454c-.02-1.911.761-4.1,2.525-5.019a4.331,4.331,0,0,1,6.029,3.081c.944,2.89-.54,6.745-3.84,7.078C131.422,79.748,129.362,76.987,129.405,74.454Z"/><path class="c" d="M151.366,94.985a5.661,5.661,0,0,0-5.388,3.177,6.576,6.576,0,0,0-.749,3.127,5.9,5.9,0,0,0,4.657,5.485,5.919,5.919,0,0,0,3.77-.59,5.256,5.256,0,0,0,2.372-2.407,7.221,7.221,0,0,0,.482-4.03,5.689,5.689,0,0,0-1.584-3.179,5.812,5.812,0,0,0-3.56-1.583,1.989,1.989,0,0,0-1.414.586,2,2,0,0,0,0,2.828,2.328,2.328,0,0,0,1.414.586c-.713-.085-.135-.013.042.033.152.04.3.1.445.148-.628-.194-.168-.065.012.044.077.046.148.107.226.149-.441-.242-.28-.226-.124-.087.113.1.212.213.315.323.246.263-.283-.423-.091-.116.033.052.068.1.1.155.082.133.138.281.219.413-.284-.463-.125-.31-.06-.12.032.093.061.187.086.282.044.165.062.334.1.5-.16-.657-.024-.1-.02.106a5.524,5.524,0,0,1-.018.561l-.011.116c-.025.215-.016.155.025-.18a1.722,1.722,0,0,0-.068.36c-.024.11-.058.215-.084.324-.037.157-.167.219.091-.188-.089.141-.162.3-.248.447-.193.329.332-.354.064-.081-.048.049-.092.1-.14.15-.072.074-.15.14-.226.21-.255.237.4-.257.077-.063-.148.09-.289.183-.444.261-.059.03-.38.18-.042.027s.019-.015-.048.007c-.162.053-.324.088-.489.128-.362.087.445-.021.189-.023-.113,0-.226.017-.34.017-.078,0-.16-.014-.238-.01-.242.012.554.122.169.02a2.984,2.984,0,0,0-.548-.16c.291,0,.356.163.107.036-.088-.045-.173-.092-.257-.142s-.163-.11-.247-.162c-.122-.088-.066-.043.169.133-.062-.05-.122-.1-.18-.155-.114-.1-.281-.377-.409-.428.19.077.226.327.1.123-.062-.1-.128-.2-.185-.3a1.09,1.09,0,0,0-.107-.2l.109.266c-.028-.07-.054-.142-.077-.215s-.043-.145-.061-.219c-.05-.209-.01-.555,0,.09,0-.309-.008-.6.01-.913-.041.694-.02.189.032-.017.033-.131.073-.456.172-.538.007-.006-.232.5-.091.217.049-.1.1-.2.149-.3.084-.153.18-.3.276-.441.2-.309-.332.379-.082.107.064-.069.124-.141.19-.208s.133-.133.2-.2c.138-.123.376-.2-.113.077.163-.091.309-.208.477-.294.065-.033.364-.164.018-.016-.361.155.041,0,.12-.025.061-.017.124-.033.186-.047.509-.112-.395.006-.046,0a5.77,5.77,0,0,1,.617.012,2.007,2.007,0,0,0,2-2A2.054,2.054,0,0,0,151.366,94.985Z"/><path class="c" d="M166.371,194.307c9.217-14.417,17.779-29.287,24.675-44.967a4.542,4.542,0,0,0,.5-3.316,7.24,7.24,0,0,0-2.1-2.775c-1.825-1.839-3.734-3.591-5.658-5.326l-.405,3.141q1.838-1.017,3.678-2.027a13.561,13.561,0,0,0,3.274-1.976c1.938-2-.665-5.043-1.922-6.688a43.9,43.9,0,0,0-11.68-10.693,2.018,2.018,0,0,0-2.938,1.195c-2.382,9.961-5.587,19.692-8.934,29.363q-5.189,15-10.291,30.016-3,8.867-6,17.731c-.826,2.445,3.036,3.494,3.857,1.064q5.265-15.582,10.533-31.163c3.319-9.794,6.891-19.5,10.022-29.358,1.739-5.477,3.328-11,4.665-16.589l-2.938,1.2a38.742,38.742,0,0,1,6.983,5.656,41.323,41.323,0,0,1,3.178,3.5q.615.772,1.164,1.595a10,10,0,0,1,1,1.54l.273-1.009q.45-.42-.231.038l-.817.451-1.635.9q-1.637.9-3.27,1.8a2.016,2.016,0,0,0-.405,3.141c1.516,1.367,3.023,2.745,4.487,4.168a12.106,12.106,0,0,1,2.152,2.164c.208.373.288-.271-.092.451-.251.477-.445.993-.668,1.484q-2.478,5.466-5.174,10.829c-3.525,7-7.344,13.856-11.375,20.582q-3.588,5.986-7.362,11.859c-1.391,2.175,2.07,4.183,3.453,2.019Z"/><path class="c" d="M152.423,197.985q-5.264-15.579-10.522-31.161c-3.3-9.755-6.859-19.424-9.984-29.239-1.756-5.516-3.361-11.078-4.7-16.71a2.018,2.018,0,0,0-2.938-1.195,44.254,44.254,0,0,0-11.638,10.643c-1.2,1.569-3.584,4.271-2.279,6.333.656,1.038,2.071,1.545,3.1,2.115q2.077,1.146,4.153,2.293l-.405-3.141c-1.628,1.474-3.247,2.958-4.814,4.5-1.45,1.424-3.457,2.979-3.05,5.259a12.738,12.738,0,0,0,1.208,2.952q.691,1.489,1.4,2.974,1.435,3.024,2.922,6.023,5.622,11.333,12.092,22.215,3.748,6.268,7.794,12.354c1.416,2.135,4.882.134,3.453-2.019a328.58,328.58,0,0,1-23.306-41.649,22.988,22.988,0,0,1-1.494-3.206c-.082-.287-.341.072.16-.409.394-.378.764-.783,1.151-1.169,1.723-1.717,3.514-3.362,5.317-4.994a2.016,2.016,0,0,0-.405-3.141q-1.638-.906-3.279-1.81l-1.53-.845-.874-.483q-.721-.486-.26-.054l.274,1.009a13.658,13.658,0,0,1,.794-1.221q.588-.91,1.258-1.764a40.1,40.1,0,0,1,3.175-3.532,39.444,39.444,0,0,1,7.1-5.776l-2.938-1.2c2.381,9.986,5.606,19.738,8.961,29.433q5.178,14.958,10.26,29.946,2.994,8.865,5.989,17.731c.82,2.426,4.684,1.385,3.857-1.064Z"/><path class="c" d="M164.77,143.614a78.551,78.551,0,0,0,9.386-13.73q.969-1.834,1.85-3.713a4.081,4.081,0,0,0,.694-2.255,6.379,6.379,0,0,0-.856-1.923,22.461,22.461,0,0,0-4.456-5.919,2.038,2.038,0,0,0-3.141.405,27.019,27.019,0,0,1-6.731,5.855,50.28,50.28,0,0,1-5.049,2.924,53.992,53.992,0,0,0-5.237,2.431c-3.284,2.144.566,5.155,2.174,6.831,2.869,2.988,5.86,5.932,8.538,9.094,1.666,1.967,4.483-.875,2.828-2.829-2.166-2.557-4.607-4.863-6.885-7.319-.961-1.036-1.922-2.069-2.925-3.065l-.845-.843c-.1-.095-.183-.2-.274-.3.448.49-.021-.06-.16-.31l.273,1.009.03-.321-.586,1.414a10.3,10.3,0,0,1,2.705-1.21q1.4-.623,2.769-1.327a49.465,49.465,0,0,0,5.316-3.167,31.788,31.788,0,0,0,7.513-6.85l-3.141.4a22.11,22.11,0,0,1,4.448,6.289v-2.018a78.2,78.2,0,0,1-11.066,17.612C160.3,142.746,163.114,145.59,164.77,143.614Z"/><path class="c" d="M138.729,140.785a78.165,78.165,0,0,1-11.067-17.612v2.018a22.127,22.127,0,0,1,4.449-6.289l-3.141-.4a31.749,31.749,0,0,0,7.513,6.85,49.451,49.451,0,0,0,5.315,3.167q1.365.7,2.77,1.327a10.3,10.3,0,0,1,2.7,1.21l-.586-1.414.03.321.273-1.009c-.1.179-.686.85-.159.31-.095.1-.177.2-.274.3-.253.245-.5.5-.749.747-1.036,1.028-2.029,2.092-3.022,3.161-2.278,2.456-4.718,4.762-6.885,7.319-1.654,1.954,1.162,4.8,2.829,2.829,2.678-3.162,5.668-6.106,8.537-9.094,1.608-1.675,5.467-4.681,2.175-6.831a53.538,53.538,0,0,0-5.238-2.431,50.088,50.088,0,0,1-5.049-2.924,27.032,27.032,0,0,1-6.73-5.855,2.039,2.039,0,0,0-3.142-.405,22.174,22.174,0,0,0-4.369,5.758,9.346,9.346,0,0,0-.906,1.818,3.361,3.361,0,0,0,.566,2.327q.927,1.975,1.941,3.907a78.606,78.606,0,0,0,9.386,13.73C137.556,145.589,140.373,142.746,138.729,140.785Z"/><path class="c" d="M141.519,209.165a4.85,4.85,0,0,1,.564.546c.242.269-.087-.148-.115-.153.026,0,.087.126.1.15.075.114.144.232.208.352.045.086.222.484.073.132s.022.086.054.19a5.162,5.162,0,0,1,.172.806l-.071-.532a5.407,5.407,0,0,1,0,1.284l.072-.532a5.484,5.484,0,0,1-.146.719c-.029.1-.066.2-.1.306-.128.414.2-.414.047-.1a5.168,5.168,0,0,1-.358.637c-.1.147-.317.3.094-.111-.086.087-.159.188-.245.275s-.2.166-.286.258c.353-.369.257-.192.092-.08a5.925,5.925,0,0,1-.685.387c-.331.167.441-.159.111-.048-.126.043-.25.089-.378.126a6,6,0,0,1-.783.168l.531-.072a5.763,5.763,0,0,1-1.5,0l.532.071a5.255,5.255,0,0,1-.679-.144c-.126-.036-.249-.081-.374-.124-.326-.113.441.221.118.045-.2-.11-.4-.222-.591-.35-.3-.2.363.35.064.037-.076-.079-.158-.152-.233-.233s-.118-.146-.182-.213c.432.451.146.188.044.028-.116-.183-.2-.38-.3-.569.279.512.126.3.066.135-.041-.117-.077-.234-.109-.353a5.5,5.5,0,0,1-.125-.636l.072.532a5.48,5.48,0,0,1,.008-1.39l-.072.531a5.661,5.661,0,0,1,.144-.682c.03-.1.062-.207.1-.309.168-.476-.178.349-.027.048a6.13,6.13,0,0,1,.313-.567c.05-.077.111-.15.159-.228-.318.53-.149.189-.018.046.074-.08.15-.159.231-.232.332-.3-.361.234-.052.035a5.966,5.966,0,0,1,.606-.36c.47-.233-.339.109-.013,0,.1-.032.191-.068.288-.1a5.545,5.545,0,0,1,.8-.177l-.532.072a5.655,5.655,0,0,1,1.424-.01l-.531-.071a5.685,5.685,0,0,1,1.126.285c.227.08-.449-.212-.153-.062.09.046.179.09.267.14.158.09.7.508.178.088a2.171,2.171,0,0,0,1.415.586,2,2,0,0,0,1.414-3.414,7.3,7.3,0,0,0-2.1-1.214,6.832,6.832,0,0,0-2.017-.375,7.041,7.041,0,0,0-3.973,1.016,6.832,6.832,0,0,0-2.861,7.147,6.254,6.254,0,0,0,1.793,3.3,6.612,6.612,0,0,0,3.991,1.692,6.75,6.75,0,0,0,6.639-3.5c1.239-2.629.9-6.141-1.468-8.06a2.161,2.161,0,0,0-1.414-.586,2,2,0,0,0-1.415,3.414Z"/><path class="c" d="M112.1,63.013a8.863,8.863,0,0,0-9.633-1.426,8.474,8.474,0,0,0-4.43,5.8c-1.521,5.787-.057,12.409,3.177,17.375,2.218,3.406,5.756,6.491,10.1,5.927a2.066,2.066,0,0,0,2-2,2.011,2.011,0,0,0-2-2c-3.487.452-5.875-2.4-7.389-5.2a19.54,19.54,0,0,1-2.389-7.535c-.2-2.479-.2-5.592,1.317-7.707.207-.289-.044.02.209-.242a4.146,4.146,0,0,1,.53-.489,4.067,4.067,0,0,1,1.513-.64,4.658,4.658,0,0,1,4.168.96c1.915,1.709,4.754-1.11,2.828-2.828Z"/><path class="c" d="M190.9,65.841a4.652,4.652,0,0,1,4.168-.96,4.412,4.412,0,0,1,2.2,1.292c1.587,2.08,1.58,5.311,1.373,7.786-.4,4.825-3.771,13.511-9.778,12.732a2.01,2.01,0,0,0-2,2,2.052,2.052,0,0,0,2,2c7.056.916,11.351-6.86,13.051-12.566,1.473-4.943,1.545-12.709-3.209-15.98a8.814,8.814,0,0,0-10.629.868c-1.925,1.717.912,4.538,2.828,2.828Z"/><path class="c" d="M186.806,85.879a24.407,24.407,0,0,1-1.269,4.613c-.213.6-.437,1.2-.651,1.806-.059.164-.116.33-.174.5-.134.382,0,.011-.023.069a40,40,0,0,1-2.667,4.946,49.1,49.1,0,0,1-10.442,12.337,19.675,19.675,0,0,1-7.888,4.1c-2.507.583-1.446,4.441,1.063,3.857,5.924-1.378,10.859-5.656,14.753-10.141a54.639,54.639,0,0,0,8.416-12.59,31.534,31.534,0,0,0,2.739-8.427,2.068,2.068,0,0,0-1.4-2.461,2.014,2.014,0,0,0-2.46,1.4Z"/><path class="c" d="M109.073,86.784a46.264,46.264,0,0,0,10.736,20.572c5.082,5.846,11.59,10.455,19.385,11.615a2.064,2.064,0,0,0,2.46-1.4,2.015,2.015,0,0,0-1.4-2.46c-7.2-1.071-12.926-5.188-17.62-10.586A42.108,42.108,0,0,1,112.93,85.72c-.54-2.515-4.4-1.451-3.857,1.064Z"/><path class="c" d="M197.918,63.175a54.82,54.82,0,0,0,1.269-20.946,49.059,49.059,0,0,0-5.446-16.889,41.378,41.378,0,0,0-9.4-11.643A58.8,58.8,0,0,0,170.954,4.72a52.2,52.2,0,0,0-38.065-1.491,50.013,50.013,0,0,0-24.438,19.008c-8.146,11.98-9.985,27.056-6.394,40.938.644,2.49,4.5,1.434,3.857-1.064-3.019-11.671-1.942-24.182,4.06-34.754a46.152,46.152,0,0,1,20.32-18.778,48.437,48.437,0,0,1,35.279-1.727,47.237,47.237,0,0,1,13.513,7.73,41.056,41.056,0,0,1,9.291,9.624,43.93,43.93,0,0,1,6.568,16.647,50.1,50.1,0,0,1-.884,21.258c-.618,2.5,3.238,3.565,3.857,1.064Z"/><path class="c" d="M148.507,199.053a49.147,49.147,0,0,1,1.743,8.4,43.1,43.1,0,0,1-.039,7.4,132.18,132.18,0,0,1-2.511,16.065c-.511,2.513,3.343,3.588,3.857,1.063a140.82,140.82,0,0,0,2.654-17.128,48.142,48.142,0,0,0-1.847-16.863c-.687-2.477-4.547-1.425-3.857,1.063Z"/><path class="a" d="M113.305,252.838c9.021-3.479.718-15.329-2.869-20.3-4.363-6.041-15.526-6.35-21.02-6.411-4.859-.054-12.018.582-15.966,3.744-2.755,2.211-6.744,5.907-8.577,10.272a11.93,11.93,0,0,0-.476,1.387c-.756,2.532,2.573,9.225,3.96,13.454,1.077,3.288,1.863,6.674,3.453,9.758,1.873,3.609,8.682,11.582,12.62,5.781l1.591-2.026c4.3,3.388,9.358,4.913,11.163-2.166,2.4.918,4.919.643,7.378-1.78Z"/><path class="c" d="M78.114,262.611A27.058,27.058,0,0,0,85,270.224c2.747,2.121,6.485,4.122,9.958,2.545,2.073-.942,3.228-3.011,3.919-5.082a2,2,0,0,0-3.857-1.063,5.143,5.143,0,0,1-.546,1.267,6.378,6.378,0,0,1-.391.61c.262-.361-.157.163-.221.226-.094.094-.6.443-.174.176-.161.1-.337.19-.493.295-.243.163.337-.056-.172.054-.133.029-.742.118-.151.065a6.021,6.021,0,0,1-1.147-.007c.573.056-.095-.034-.212-.062-.2-.049-.407-.108-.607-.173s-.412-.143-.614-.225c.448.18-.219-.11-.3-.149-.4-.2-.786-.418-1.164-.652a21.006,21.006,0,0,1-4.321-3.646q-.505-.533-.984-1.09-.23-.267-.452-.54c-.052-.063-.5-.635-.21-.256a18.243,18.243,0,0,1-1.3-1.925c-1.289-2.227-4.747-.215-3.454,2.019Z"/><path class="c" d="M85.305,257.217c2.408,3.621,5.12,7.315,8.789,9.751a10.077,10.077,0,0,0,5.769,1.849,9.327,9.327,0,0,0,6.113-2.848c1.86-1.786-.971-4.613-2.829-2.828a6.889,6.889,0,0,1-2.012,1.4,3.727,3.727,0,0,1-1.78.269c-.114,0-.459-.045-.176,0a5.612,5.612,0,0,1-.6-.126q-.3-.078-.6-.18c-.052-.018-.571-.23-.313-.116a11.03,11.03,0,0,1-2.12-1.271c-2.681-2.006-4.887-5.062-6.785-7.917a2.046,2.046,0,0,0-2.736-.717,2.021,2.021,0,0,0-.718,2.736Z"/><path class="c" d="M82.7,269.518a2.765,2.765,0,0,1-1.2.989,2.118,2.118,0,0,1-1.5-.139,10.129,10.129,0,0,1-3.546-2.644c-2.782-2.915-4.08-6.442-5.234-10.25-1.253-4.133-3.047-8.059-4.326-12.178a13.639,13.639,0,0,1-.579-2.328,5.261,5.261,0,0,1-.02-.769c.025-.35-.054.263.01-.046a6.426,6.426,0,0,1,.234-.777,17.516,17.516,0,0,1,3.692-5.758c2.754-3.067,5.7-5.511,9.749-6.532a41.361,41.361,0,0,1,11.193-.925c6.153.154,14.134.618,18.042,6.092a39.4,39.4,0,0,1,5.409,9.392,9.474,9.474,0,0,1,.693,4.381,3.775,3.775,0,0,1-2.542,2.884,2.062,2.062,0,0,0-1.4,2.46,2.014,2.014,0,0,0,2.46,1.4,8.617,8.617,0,0,0,4.6-3.684,8.734,8.734,0,0,0,.792-5.471c-.55-3.931-2.679-7.6-4.83-10.864a40.273,40.273,0,0,0-3.09-4.3,14.347,14.347,0,0,0-4.979-3.534,35.779,35.779,0,0,0-12.581-2.647,55.479,55.479,0,0,0-12.636.5,22.646,22.646,0,0,0-7.016,2.288,24.965,24.965,0,0,0-5.37,4.343c-3.212,3.186-7.079,7.795-6.271,12.632a33.381,33.381,0,0,0,2.093,6.512c.895,2.289,1.77,4.563,2.485,6.915,1.576,5.183,3.292,10.038,7.327,13.825A11.189,11.189,0,0,0,80,274.478c2.613.415,4.675-.866,6.155-2.941a2.016,2.016,0,0,0-.717-2.736,2.043,2.043,0,0,0-2.737.717Z"/><path class="c" d="M108.144,250.817c.745,1.35,9.665,17.958,13.695,24.851a2.785,2.785,0,0,0,3.858.97h0a2.786,2.786,0,0,0,1.051-3.614c-5.718-11.572-25.105-49.272-30.155-57.868-1.017-1.732-2.057-1.77-3.14-1.256a36.209,36.209,0,0,0-3.35,1.858c-1.182.786-1.574,1.707-.959,2.842,2.772,5.111,7.2,11.832,10.556,17.045,2.833,4.394,6.028,10.522,8.444,15.172"/><path class="a" d="M109.185,252.708c2.215,3.082,3.788,6.2,6.228,9.022,2.1,2.435,4.463,4.655,4.5,6.292.074,3.762-2.729,4.72-5.908,2.7a53.281,53.281,0,0,1-6.677-5.137c-4.726-4.41-9.574-10-10.852-10.819"/><path class="c" d="M107.458,253.718c2.305,3.244,4.2,6.748,6.829,9.757a24.25,24.25,0,0,1,3.4,4.095,2.124,2.124,0,0,1-.135,2.038.844.844,0,0,1-.747.144,4.539,4.539,0,0,1-1.8-.76c-1.059-.658-2.072-1.4-3.068-2.15a70.093,70.093,0,0,1-8.108-7.541c-2.008-2.077-3.938-4.634-6.353-6.265-2.14-1.444-4.144,2.02-2.019,3.454.244.165-.106-.09-.125-.106.077.066.158.127.231.2.185.175.376.344.56.52.5.48.984.978,1.466,1.476,1.326,1.368,2.633,2.755,3.961,4.121a70.93,70.93,0,0,0,9.477,8.411c2.4,1.718,5.61,3.772,8.54,1.954a5.43,5.43,0,0,0,2.317-4.367c.151-1.951-.864-3.478-2.038-4.934-1.518-1.884-3.254-3.56-4.642-5.55-1.488-2.134-2.79-4.391-4.3-6.512a2.057,2.057,0,0,0-2.737-.718,2.017,2.017,0,0,0-.717,2.737Z"/><path class="c" d="M141.2,152.936c1.426,1.061,2.806,2.182,4.231,3.246.738.55,1.487,1.087,2.259,1.59a6.056,6.056,0,0,0,2.8,1.336,5.763,5.763,0,0,0,2.683-1.259c.774-.5,1.523-1.032,2.261-1.58,1.466-1.089,2.883-2.243,4.349-3.333a2.063,2.063,0,0,0,.717-2.737,2.014,2.014,0,0,0-2.736-.717c-2.717,2.021-5.285,4.29-8.283,5.9h2.019c-3-1.609-5.567-3.878-8.284-5.9a2.013,2.013,0,0,0-2.736.717,2.048,2.048,0,0,0,.717,2.737Z"/><path class="c" d="M163.012,32.743c-4.991,5.56-11.573,9.487-17.994,13.168a136.472,136.472,0,0,1-17.078,8.573c-3.66,1.462-7.392,2.743-11.129,3.994-2.428.814-1.387,4.678,1.064,3.858,5.91-1.98,11.723-4.128,17.408-6.685,3.572-1.606,6.968-3.573,10.376-5.5,3.676-2.079,7.322-4.227,10.8-6.627a52.452,52.452,0,0,0,9.381-7.951c1.716-1.911-1.1-4.749-2.828-2.828Z"/><path class="c" d="M176.922,9.384c2.729-3.065,6.322-5.3,10.521-5.382a12.822,12.822,0,0,1,9.062,3.487A10.611,10.611,0,0,1,199,11.051c.84,2.036,1,4.4,1.4,6.547a39.014,39.014,0,0,0,4.862,13.521,15.8,15.8,0,0,0,4.362,4.7,37.8,37.8,0,0,0,5.757,2.963l-.718-2.736a23.691,23.691,0,0,1-5.842,6.356,12.774,12.774,0,0,1-8.434,2.22c-2.568-.186-2.557,3.814,0,4a16.283,16.283,0,0,0,10.453-2.766,28.953,28.953,0,0,0,7.277-7.791,2.008,2.008,0,0,0-.717-2.737,44.344,44.344,0,0,1-5.327-2.676,11.377,11.377,0,0,1-3.541-3.848c-2.663-4.452-3.749-9.358-4.667-14.4a20.482,20.482,0,0,0-1.753-6.077,14.443,14.443,0,0,0-3.379-4.207,17.048,17.048,0,0,0-11-4.117,18.437,18.437,0,0,0-13.645,6.556c-1.707,1.917,1.112,4.755,2.829,2.828Z"/><path class="c" d="M162.5,34.689c2.141,6.973,4.932,13.649,9.652,19.289,4.314,5.155,9.9,10.244,16.5,12.135,2.479.711,3.537-3.147,1.063-3.857-5.927-1.7-10.87-6.494-14.73-11.107-4.255-5.084-6.7-11.251-8.623-17.524-.754-2.453-4.616-1.407-3.857,1.064Z"/><path class="c" d="M128.463,43.385a109.71,109.71,0,0,0,7.892,12.931,1.974,1.974,0,0,0,2.406.662c.672-.3,1.444-.643,2.13-.964a1.98,1.98,0,0,0,.95-2.642c-1.553-3.281-4.753-9.794-6.489-13.139a2.4,2.4,0,0,0-3.029-1.116c-.858.347-1.842.75-2.709,1.115A2.292,2.292,0,0,0,128.463,43.385Z"/><path class="c" d="M90.014,167.741c.428,7.247,1.057,14.487,1.754,21.712.8,8.3,2.075,16.53,2.859,24.821.39,4.126.843,8.246,1.177,12.377.2,2.549,4.207,2.571,4,0-.292-3.618-.675-7.226-1.029-10.839-.24-2.441-.416-4.888-.661-7.328-.171-1.7-.537-3.394-.775-5.089-1.164-8.307-1.876-16.689-2.554-25.048-.287-3.532-.562-7.067-.771-10.606-.151-2.558-4.152-2.575-4,0Z"/><path class="c" d="M205.717,168.3c-.466,7.768-1.139,15.529-1.9,23.272-.422,4.269-.866,8.541-1.468,12.788-.293,2.066-.672,4.105-.85,6.185q-.306,3.57-.664,7.136c-.488,4.816-.929,9.629-1.267,14.458-.18,2.569,3.821,2.558,4,0q.458-6.541,1.124-13.062c.433-4.214.738-8.432,1.364-12.619,1.329-8.9,2.1-17.894,2.835-26.86.308-3.763.6-7.529.829-11.3.154-2.571-3.847-2.562-4,0Z"/><path class="c" d="M64.646,239.189c-3.8-1.368-7-4.592-9.529-7.668a32,32,0,0,1-6.362-11.856c-1.336-5.062.48-9.982,2.246-14.765a122.686,122.686,0,0,1,5.461-12.642c4-7.989,8.424-15.75,12.691-23.594,2.516-4.627,4.56-9.533,7.492-13.921a40.215,40.215,0,0,1,11-11.441c4.514-2.983,9.716-5.077,14.615-7.334q8.894-4.1,17.86-8.034a2.013,2.013,0,0,0,.717-2.736,2.05,2.05,0,0,0-2.736-.718q-8.226,3.63-16.4,7.365c-4.619,2.118-9.353,4.145-13.794,6.621a41.1,41.1,0,0,0-12.58,11.26c-3.672,4.833-6.06,10.274-8.909,15.59-4.28,7.986-8.808,15.836-12.9,23.922-2.132,4.209-4.018,8.492-5.723,12.893-2.039,5.264-4.236,11-3.3,16.718.876,5.344,3.77,10.353,7.055,14.57,3.146,4.04,7.138,7.864,12.036,9.627,2.426.873,3.471-2.991,1.063-3.857Z"/><path class="c" d="M182.255,129.264q7.779,3.829,15.584,7.606c4.312,2.077,8.871,3.882,12.966,6.368a37.564,37.564,0,0,1,11.161,10.35c3.415,4.836,5.854,10.442,8.212,15.849,2.756,6.322,5.835,12.507,8.736,18.764,3.322,7.165,6.8,14.378,9.3,21.881a27.33,27.33,0,0,1,1.467,7,19.751,19.751,0,0,1-1.737,9.149,67.413,67.413,0,0,1-7.994,14.557,2.011,2.011,0,0,0,.717,2.736,2.05,2.05,0,0,0,2.736-.717,67.308,67.308,0,0,0,7.39-13.171,29.683,29.683,0,0,0,2.745-8.314,26.176,26.176,0,0,0-.5-8.843,60.93,60.93,0,0,0-3.527-10.174c-1.7-4.123-3.512-8.2-5.364-12.253-3.217-7.043-6.623-14-9.816-21.051-2.157-4.764-4.23-9.567-6.815-14.122a41.752,41.752,0,0,0-10.846-12.44c-4.484-3.452-9.648-5.588-14.714-8.014-5.914-2.831-11.8-5.718-17.685-8.615-2.3-1.133-4.331,2.316-2.019,3.454Z"/><path class="a" d="M200.505,232.177q-.514.345-1.031.748c-3.516,2.536-6.164,4.76-7.1,6.9a4.35,4.35,0,0,0,1.431,5.12l1.8,1.068c-1.42,1.029-2.781,2.066-4.127,3.221-2.415,2.056-3.967,4.442-3.385,6.314.957,3.046,4.062,2.767,5.523,1.939a24,24,0,0,0-2.22,1.93,4.616,4.616,0,0,0,.411,6.089c1.369,1.112,4.441.86,6.665-.576l2.4-1.717c-1.492,1.783-1.523,4.173.394,5.429,1.758,1.152,4.687.49,6-.148a90.412,90.412,0,0,0,8.048-5.02c.977-.608,2.744-1.676,4.481-2.748,1.5-1.65-.5,1.074-1.293,2.621a7.219,7.219,0,0,0-.62,1.994,3.046,3.046,0,0,0,.889,2.775c2,2.106,4.59-.456,7.2-2.1a32.571,32.571,0,0,0,6.148-4.577,23.93,23.93,0,0,0,6.619-11.719,15.766,15.766,0,0,0-.868-10.878,19.66,19.66,0,0,0-4.355-5.7c-2.529-1.911-8.131-3.474-10.809-3.742a52.6,52.6,0,0,0-11.557-.244C207.2,229.463,203.866,229.926,200.505,232.177Z"/><path class="c" d="M211.254,247.4l.031-.021-2.019-3.454c-3.673,2.751-7.556,5.251-11.31,7.89-1.2.846-2.4,1.7-3.579,2.58-1.649,1.231-3.731,2.513-4.894,4.256a6.749,6.749,0,0,0-.361,6.539,5.321,5.321,0,0,0,4.871,3c3.456.133,5.973-1.886,8.606-3.767a2.055,2.055,0,0,0,.717-2.736,2.016,2.016,0,0,0-2.736-.717c-1.6,1.14-3.2,2.623-5.152,3.086a4.47,4.47,0,0,1-1.905.071c.048.012-.579-.212-.405-.128.119.058-.242-.289-.05-.043-.012-.015-.24-.265-.1-.078a2.729,2.729,0,0,1-.345-.6,2.767,2.767,0,0,1,.981-3.207c4.084-3.606,8.873-6.562,13.339-9.673,1.444-1,2.932-1.967,4.341-3.022a2.063,2.063,0,0,0,.717-2.737,2.02,2.02,0,0,0-2.736-.717l-.031.021a2.05,2.05,0,0,0-.718,2.736,2.019,2.019,0,0,0,2.737.718Z"/><path class="c" d="M192.618,255.75c-.471.257.143.022-.194.1-.157.036-.311.094-.468.135s-.491.063-.14.036a4.7,4.7,0,0,1-.7.006c.356.026-.022-.006-.172-.045a3.513,3.513,0,0,1-.343-.111q.257.1.066.006a.885.885,0,0,1-.467-.463,1.129,1.129,0,0,1-.227-.877c-.02.3.075-.3.083-.325a2.182,2.182,0,0,1,.209-.52,10.154,10.154,0,0,1,2.378-2.832c4.281-3.8,9.363-6.538,13.808-10.118a2.013,2.013,0,0,0,0-2.828,2.048,2.048,0,0,0-2.829,0c-2,1.609-4.219,2.958-6.315,4.437-2.252,1.589-4.5,3.184-6.627,4.945-1.9,1.579-3.951,3.568-4.539,6.07a5.484,5.484,0,0,0,2.426,5.92,6.24,6.24,0,0,0,6.072-.082c2.259-1.235.243-4.69-2.019-3.454Z"/><path class="c" d="M214.1,250.992c-3.442,2.421-6.905,4.821-10.292,7.32-2.731,2.015-6.39,4.3-5.972,8.195.48,4.469,5.451,5.422,9.057,4.268,3.516-1.125,6.5-3.744,9.588-5.674,2.845-1.774,5.787-3.42,8.531-5.35a2.054,2.054,0,0,0,.718-2.737,2.018,2.018,0,0,0-2.737-.717c-2.143,1.508-4.421,2.835-6.656,4.2-2.467,1.507-4.825,3.174-7.282,4.694a13.379,13.379,0,0,1-3.92,1.915c-.928.219-2.565.44-3.176-.525-.643-1.018.42-2.052,1.137-2.648.994-.825,1.994-1.631,3.037-2.393,3.3-2.409,6.647-4.746,9.986-7.095a2.054,2.054,0,0,0,.718-2.737,2.018,2.018,0,0,0-2.737-.717Z"/><path class="c" d="M194.814,243.216a2.343,2.343,0,0,1-.539-2.741,10.145,10.145,0,0,1,2.66-3.048c2.529-2.231,5.38-4.492,8.67-5.42a37.676,37.676,0,0,1,9.691-1.063,42.636,42.636,0,0,1,8.718.679A24.044,24.044,0,0,1,231.8,234.4a13.3,13.3,0,0,1,4.807,6.619c2.013,6.014-.615,12.925-4.59,17.541-2.6,3.023-5.91,4.963-9.185,7.166-.723.486-2.662,2.081-3,.367-.286-1.467,1.281-3.251,1.988-4.4,1.351-2.2-2.108-4.211-3.454-2.019-1.108,1.805-2.259,3.508-2.5,5.671a5.19,5.19,0,0,0,2.583,5.041c1.892,1.061,4,.3,5.7-.75,1.865-1.151,3.709-2.406,5.516-3.647,6.587-4.524,11.532-12.266,11.626-20.43a17.99,17.99,0,0,0-4.149-11.449c-2.359-3.03-5.532-4.5-9.15-5.593a42.525,42.525,0,0,0-10.83-1.545,44.6,44.6,0,0,0-12.093,1.042,18.224,18.224,0,0,0-6.268,2.925,46.1,46.1,0,0,0-5.789,4.679,8.933,8.933,0,0,0-2.944,5.293,6.33,6.33,0,0,0,2.715,5.764c2.139,1.446,4.143-2.018,2.019-3.453Z"/><path class="c" d="M109.935,233.907q17.153-.015,34.306-.023,19.248-.012,38.5-.024l18.288-.013c2.573,0,2.578-4,0-4q-17.358.015-34.714.024l-38.383.023-17.993.013c-2.574,0-2.579,4,0,4Z"/></svg>