<?xml version="1.0" encoding="utf-8"?>
<!-- Uploaded to: SVG Repo, www.svgrepo.com, Generator: SVG Repo Mixer Tools -->
<svg width="800px" height="800px" viewBox="0 -23.08 358.446 358.446" xmlns="http://www.w3.org/2000/svg"><defs><style>.a{fill:#fcc56b;}.b{fill:#211715;}.c{fill:#ad7b59;}.d{fill:#f9d9b2;}.e{fill:#f4b467;}.f{fill:#ffffff;}.g{fill:#6dbf6b;}</style></defs><path class="a" d="M282.773,308.122c-12.808-.41-25.119-2.685-33.6-12.452-5.748-6.614-8.849-14.787-10.937-22.977-4.365-17.124-3.045-36.97,6.829-50.8a30.689,30.689,0,0,1,12.328-10.09c7.195-3.231,15.46-3.253,23.506-2.014,7.014,1.424,13.977,2.391,20.788.978,17.73-2.607,34.771,2.66,43.105,17.873,6.015,10.981,6.171,23.883,3.962,35.968-1.8,9.857-5.186,19.668-11.639,27.787A42.134,42.134,0,0,1,316.3,306.65c-8.786,2.575-19.056,1.549-28.167,1.549C286.341,308.2,284.552,308.178,282.773,308.122Z"/><path class="b" d="M276.264,224.377c3.694,3.3,8.91,4.2,13.714,4.426a30.259,30.259,0,0,0,14.981-3.277c2.767-1.374.338-5.516-2.423-4.145a25.112,25.112,0,0,1-12.17,2.638c-3.526-.124-7.968-.586-10.708-3.036-2.3-2.054-5.7,1.33-3.394,3.394Z"/><path class="b" d="M282.773,305.722c-10.01-.336-20.867-1.79-28.733-8.582-8.537-7.37-12.487-18.976-14.527-29.745a65.643,65.643,0,0,1,1.46-31.848c3.209-10.1,9.8-19.409,20.318-22.666,5.743-1.779,11.9-1.74,17.813-.95,3.293.439,6.528,1.206,9.837,1.581a43.838,43.838,0,0,0,9.882.108c2.845-.324,5.617-.871,8.486-1.02a53.807,53.807,0,0,1,7.327.108,39.649,39.649,0,0,1,13.27,3.38c9.174,4.254,15.421,12.25,18.092,21.943,3.077,11.169,1.662,23.441-1.555,34.421-3.163,10.8-9.153,20.889-18.707,27.164a37.34,37.34,0,0,1-15.592,5.882c-5.992.8-12.087.475-18.109.349-3.087-.064-6.175-.032-9.262-.125s-3.087,4.706,0,4.8c6.649.2,13.362.383,20.013.261,6.3-.115,12.542-.891,18.389-3.339C332.513,302.7,341.123,293.3,346,282.136a76.982,76.982,0,0,0,5.246-17.951,70.369,70.369,0,0,0,.924-18.832c-1.17-11.665-6.152-22.712-15.728-29.792-8.335-6.163-19.124-8.313-29.324-7.751-2.961.163-5.837.764-8.777,1.061a44.984,44.984,0,0,1-10.467-.288c-3.541-.475-7.011-1.3-10.569-1.66a50.284,50.284,0,0,0-9.367-.142,33.844,33.844,0,0,0-17.723,6.488,37.253,37.253,0,0,0-10.753,13.287c-5.2,10.405-6.73,22.421-5.715,33.924a83.518,83.518,0,0,0,3.405,17.271,55.306,55.306,0,0,0,8.064,16.794,35.32,35.32,0,0,0,12.927,10.949,51.148,51.148,0,0,0,16.411,4.442c2.728.325,5.47.494,8.215.586C285.863,310.625,285.859,305.825,282.773,305.722Z"/><path class="b" d="M294.648,224.3a35.379,35.379,0,0,1,1.6-14.735c1.254-4.188,2.673-8.485,5.1-12.159.683-1.034,1.32-2.03.963-3.329a3.523,3.523,0,0,0-2.4-2.25,3.408,3.408,0,0,0-2.4-.187c-1.267.405-1.968,1.68-2.655,2.73a52.46,52.46,0,0,0-5.782,13.011c-1.713,5.437-2.784,11.217-2.05,16.919a2.479,2.479,0,0,0,2.4,2.4,2.413,2.413,0,0,0,2.4-2.4,36.357,36.357,0,0,1,1.879-15.643,59.526,59.526,0,0,1,2.5-6.7c.51-1.124,1.062-2.228,1.671-3.3a11.444,11.444,0,0,1,1.976-3l-1.059.618.282-.079h-1.276a3.2,3.2,0,0,1,.628.181c.236.083.624.436.226.155l-.861-.861.14.261-.328-1.211c-.022-.443-.1-.117-.276.09a7.561,7.561,0,0,0-.572.892q-.432.7-.82,1.427c-.605,1.131-1.121,2.3-1.611,3.488-.975,2.355-1.808,4.787-2.557,7.222-1.63,5.3-2.622,10.923-1.909,16.466a2.479,2.479,0,0,0,2.4,2.4,2.413,2.413,0,0,0,2.4-2.4Z"/><path class="c" d="M5.358,264.647a57.678,57.678,0,0,1,.518-9.609c1.4-10.445,6.423-20.766,13.067-27.386A75.052,75.052,0,0,1,39.02,213.738c10.846-5.127,21.581-7.936,29.6-15.846a3.432,3.432,0,0,1,4.779.183c6.015,6.478,16.388,11.62,24.284,14.965,13.507,5.722,25.04,14.639,29.677,22.249,3.48,5.711,5.589,10.344,6.832,16.8,4.054,21.834-3.2,45.011-34.87,54.2-6.021,1.747-17.611,3.624-29.049,3.624-11.51,0-23.033-1.876-29.054-3.624C15.6,298.858,5.961,282.269,5.358,264.647Z"/><path class="d" d="M11.671,286.112a42.418,42.418,0,0,1-6.313-21.465,57.678,57.678,0,0,1,.518-9.609,48.431,48.431,0,0,1,.963-5.082C25.9,268.333,48.945,273.977,69.1,273.977c25.688,0,46.491-3.972,65.153-21.561,3.921,21.737-3.42,44.732-34.931,53.875-6.021,1.747-17.611,3.624-29.049,3.624-11.51,0-23.033-1.876-29.054-3.624C26.592,302.046,17.173,294.816,11.671,286.112Z"/><path class="b" d="M7.758,264.647c-.4-13.69,4.366-27.564,14.6-36.932a72.234,72.234,0,0,1,16.64-11.305c6.37-3.164,13.139-5.443,19.5-8.633a50.789,50.789,0,0,0,8.417-5.229c.645-.5,1.281-1.012,1.9-1.551a9.7,9.7,0,0,1,1.554-1.442c1.048-.522,1.686.6,2.36,1.256,4.655,4.562,10.44,7.961,16.237,10.854,6.028,3.007,12.319,5.364,18.131,8.81A64.327,64.327,0,0,1,122.007,232.2c7.369,8.091,10.663,19.32,10.807,29.921.123,9.021-2.165,17.759-7.629,25.14-6.4,8.652-16.734,14.011-27.02,16.862a99.794,99.794,0,0,1-19.254,3.061,120.711,120.711,0,0,1-23.26-.577C44,305.211,32.115,302,22.708,294.679A38.329,38.329,0,0,1,8.415,271a43.22,43.22,0,0,1-.657-6.355c-.114-3.079-4.914-3.094-4.8,0A44.63,44.63,0,0,0,13.543,292.6c7.938,9.125,19.711,14.585,31.372,17.075a124.181,124.181,0,0,0,46.474.8c11.954-2.014,23.923-6.553,32.848-15a43.388,43.388,0,0,0,13.025-26.592,53.412,53.412,0,0,0-6.823-33.129,47.073,47.073,0,0,0-12.112-13.4A86.677,86.677,0,0,0,99.31,211.144a102.375,102.375,0,0,1-17.866-9.389,42.5,42.5,0,0,1-3.827-2.949c-1.215-1.061-2.272-2.488-3.649-3.331a5.96,5.96,0,0,0-5.019-.526c-1.677.591-2.832,2.074-4.162,3.187-5.366,4.488-12.044,7.138-18.43,9.8-7.056,2.944-13.895,6.1-20.145,10.559a55.965,55.965,0,0,0-14.273,13.961,52.286,52.286,0,0,0-8.086,20.064,60.16,60.16,0,0,0-.895,12.125C3.049,267.729,7.849,267.742,7.758,264.647Z"/><path class="b" d="M8.175,254.441A89.888,89.888,0,0,0,58.33,275.824a138.2,138.2,0,0,0,26.031-.035,97.408,97.408,0,0,0,24.958-5.121,77.233,77.233,0,0,0,25.2-15.238c2.306-2.066-1.1-5.451-3.394-3.394a71.037,71.037,0,0,1-20.71,13.095,87.156,87.156,0,0,1-23.18,5.579c-16.543,1.793-33.594,1.281-49.407-4.295a81.132,81.132,0,0,1-26.263-15.368c-2.319-2.022-5.728,1.36-3.394,3.394Z"/><path class="e" d="M270.5,12.508c6.221-2.964,13.36-4.1,20.751-4.1,7.878,0,14.718,1.166,21.011,4.224,7.155-2.371,20.645-2.79,29.984,6.053a41.99,41.99,0,0,1,11.326,19.92c4.246,16.218,3.821,42.21-7.765,54.884-7.919,8.664-20.615,11.16-32.405,8.664l-2.479-.524a29.254,29.254,0,0,1-6.4,3.284,43.457,43.457,0,0,1-25.083.32,25.637,25.637,0,0,1-7.815-3.521c-12.3,3.183-25.929.9-34.267-8.223-11.586-12.674-12.011-38.666-7.765-54.884a41.99,41.99,0,0,1,11.326-19.92c9.165-8.678,22.329-8.436,29.58-6.179"/><path class="b" d="M267.892,101.905c7.148,5.7,16.534,7.74,25.56,7.389,8.661-.337,17.351-3.2,23.571-9.458,2.179-2.193-1.213-5.589-3.4-3.394-5.318,5.353-12.775,7.764-20.176,8.052-7.619.3-16.066-1.12-22.166-5.983a2.475,2.475,0,0,0-3.394,0,2.417,2.417,0,0,0,0,3.394Z"/><path class="b" d="M271.71,14.58c6.222-2.918,13.191-3.808,20-3.769,6.534.037,13.113.969,19.074,3.769a2.468,2.468,0,0,0,3.284-.861,2.421,2.421,0,0,0-.861-3.284,50.754,50.754,0,0,0-21.5-4.424,51.8,51.8,0,0,0-22.426,4.424,2.42,2.42,0,0,0-.861,3.284,2.455,2.455,0,0,0,3.284.861Z"/><path class="b" d="M260.707,28.26c-4.63,6.61-6.682,14.8-7.426,22.736a63.881,63.881,0,0,0,2.745,25.713,43.826,43.826,0,0,0,6.192,12.37,2.474,2.474,0,0,0,3.284.861,2.419,2.419,0,0,0,.861-3.284c-4.575-6.192-7.02-13.768-8.028-21.345a59.024,59.024,0,0,1,1.549-23.9,35.667,35.667,0,0,1,4.968-10.728,2.421,2.421,0,0,0-.861-3.283,2.449,2.449,0,0,0-3.284.861Z"/><path class="b" d="M318.486,32.866a21.783,21.783,0,0,1,4.522,7.7,39.248,39.248,0,0,1,2.042,10.325,59.617,59.617,0,0,1-3.282,23.582,48.606,48.606,0,0,1-5.834,11.6,2.423,2.423,0,0,0,.861,3.284,2.449,2.449,0,0,0,3.284-.861A57.775,57.775,0,0,0,329.158,64.6c1.249-8.112,1.279-16.733-1.283-24.609a27.411,27.411,0,0,0-6-10.522c-2.133-2.243-5.523,1.155-3.394,3.395Z"/><path class="b" d="M271.136,10.193c-8.82-2.695-19.244-1.686-27.148,3.144C234.4,19.2,228.856,30.229,226.582,40.91a86.232,86.232,0,0,0-1.091,29.4c1.253,9.229,4.224,18.932,10.95,25.695,8.8,8.853,22.122,10.911,33.959,8.461,3.023-.626,1.743-5.253-1.276-4.628-9.212,1.906-19.908.74-27.357-5.465-6.635-5.527-9.672-13.912-11.159-22.2a79.265,79.265,0,0,1-.043-26.557c1.6-9.729,5.286-19.433,12.93-26.032,7.069-6.1,17.781-7.389,26.365-4.766,2.961.905,4.227-3.727,1.276-4.629Z"/><path class="b" d="M313.3,14.822c7.657-2.34,16.8-1.544,23.769,2.858,8.443,5.336,12.978,15.37,14.944,24.81a81.533,81.533,0,0,1,1.031,26.48c-1.01,8.133-3.453,16.994-9.195,23.1-7.542,8.021-19.393,9.925-29.813,7.769-3.015-.624-4.3,4-1.276,4.628,10.558,2.185,22.223.859,30.963-5.857,7.778-5.977,11.654-15.4,13.394-24.813a85.863,85.863,0,0,0,.053-29.775c-1.779-10.557-6.19-21.416-14.71-28.331-8.319-6.753-20.247-8.614-30.436-5.5-2.946.9-1.69,5.535,1.276,4.629Z"/><path class="f" d="M285.728,8.852c-.575,3.066-1.443,7.831-1.81,9.45a65.131,65.131,0,0,0,15.753.308c-.484-4.421-.8-9.72-1.1-13.3-2.708-.949-7.553-.9-11.044-.633-.619.047-.839.651-1.252,1.459C286.229,6.218,286.015,7.324,285.728,8.852Z"/><path class="b" d="M286.484,18.492c.615-3.7,1.31-7.387,1.985-11.077a3.986,3.986,0,0,0,.143-.758c-.009-.259-.183.11-.022-.026.228-.193-.16.158-.213.2-.1.078-.532.153-.3.176a3.1,3.1,0,0,0,.592-.1c-.321.045.607-.066.679-.073q.476-.046.952-.077,1.18-.078,2.365-.057,1.048.018,2.092.126a5.292,5.292,0,0,1,.725.1c.12.023.237.046.355.075-.341-.083.137.065.257.157-.217-.166,0-.046.034.083-.019-.076-.076-.239-.051-.038.038.292-.022-.147-.047-.215-.11-.287.019.1.032.2q.126.969.24,1.938c.366,3.089.682,6.184,1.018,9.277a2.458,2.458,0,0,0,2.4,2.4,2.425,2.425,0,0,0,2.4-2.4c-.341-3.133-.66-6.268-1.033-9.4-.194-1.629-.2-3.391-1.233-4.739-1.292-1.681-3.1-2.029-5.1-2.238a26.658,26.658,0,0,0-5.139-.017c-1.88.166-3.867.241-5.022,1.959a7.031,7.031,0,0,0-.873,2.794q-.281,1.526-.558,3.053c-.448,2.464-.9,4.928-1.312,7.4a2.46,2.46,0,0,0,1.676,2.953,2.429,2.429,0,0,0,2.952-1.677Z"/><path class="b" d="M279.856,19.915c7.787,2,16.4,1.862,24.282.482a2.42,2.42,0,0,0,1.676-2.952,2.454,2.454,0,0,0-2.952-1.676,58.776,58.776,0,0,1-10.982.766,45.941,45.941,0,0,1-10.748-1.249c-2.994-.767-4.272,3.861-1.276,4.629Z"/><path class="a" d="M97.321,11.861C110.967,16,119.644,24.23,124.053,33.448c10.877,22.743,5.9,51.628-16.153,66.178-12.275,8.09-26.294,9.432-41.03,9.647-10.719.149-29.966-1.883-43.174-9.75-26.984-16.1-27.328-57-6.674-77.5,4.67-4.633,11.773-8.286,18.167-10.8"/><path class="g" d="M72.351,9.18c3.573-2.9,10.686-4.782,12.272-4.987,5.134-.663,9.3-.87,12.816,1.165.508.517.129,3.755-.669,6.064a22.8,22.8,0,0,1-2.93,5.044,21.637,21.637,0,0,1,6.222,6.625c1.342,2.134,3.778,8.21,3.415,10.385-.906,2.563-7.12,4.583-10.952,4.971-12.148,1.231-19.888-5.5-21.147-9.186A21.281,21.281,0,0,1,64.662,38.7C57.029,44.083,39.1,44.568,38.089,43.17c-2.153-2.359-.414-10.981,1.282-14.225a17.4,17.4,0,0,1,4.557-5.437A15.125,15.125,0,0,1,35.669,14.1c-.407-1.33-.763-4.176-.11-4.829,3.729-2.214,11.263-3.884,17.27-3.728a22.951,22.951,0,0,1,11.5,4.168Z"/><path class="b" d="M96.683,14.175c9.619,2.958,18.425,8.7,23.669,17.453A51.849,51.849,0,0,1,127.2,58.321a49.2,49.2,0,0,1-7.6,26.18,46.126,46.126,0,0,1-24.1,18.515c-10.408,3.518-21.913,4.181-32.828,3.81a93.193,93.193,0,0,1-30.162-5.7,41.654,41.654,0,0,1-20.55-16.255A47.3,47.3,0,0,1,4.849,61.518,53.144,53.144,0,0,1,9.49,37.129a46.831,46.831,0,0,1,6.422-10.348,40.293,40.293,0,0,1,12.07-9.612,73.085,73.085,0,0,1,7.845-3.637A2.473,2.473,0,0,0,37.5,10.58,2.417,2.417,0,0,0,34.551,8.9,64.009,64.009,0,0,0,17.69,18.217,43.478,43.478,0,0,0,8.476,28.924,56.844,56.844,0,0,0,.16,54.854c-1.407,18.5,6.462,37.652,22.963,47.115,9.875,5.662,21.488,8.105,32.712,9.2a114.478,114.478,0,0,0,14.523.427,109.69,109.69,0,0,0,19.2-2.006c11.434-2.388,22.19-7.982,29.871-16.9a52.476,52.476,0,0,0,12.086-27.518A58.3,58.3,0,0,0,127.5,35.326a43.266,43.266,0,0,0-20.944-22.381,57.263,57.263,0,0,0-8.593-3.4c-2.959-.91-4.225,3.722-1.276,4.628Z"/><path class="b" d="M92.629,18.538a19.288,19.288,0,0,1,6.759,8.537,27.957,27.957,0,0,1,1.52,4.523,9.793,9.793,0,0,1,.209,1.058c-.047-.389-.029.336-.006.466.1.576.123-.492.124-.486.026.153-.318.237-.009.055a3.516,3.516,0,0,0-.573.556c-2.7,2.04-6.691,2.8-9.869,2.925a22.436,22.436,0,0,1-11.14-2.247,16.752,16.752,0,0,1-3.826-2.595c-.286-.264-.564-.539-.829-.825-.134-.145-.587-.677-.505-.572.12.153-.291-.414-.375-.547-.154-.243-.293-.492-.422-.749-1.383-2.762-5.525-.335-4.144,2.423,1.44,2.874,4.259,5.115,7.01,6.652a26.979,26.979,0,0,0,13.6,3.278c4.371-.081,9.425-1.076,13.042-3.679,1.637-1.178,2.859-2.7,2.7-4.818a20.638,20.638,0,0,0-1.509-5.785,25.277,25.277,0,0,0-9.33-12.315c-2.577-1.718-4.983,2.438-2.422,4.145Z"/><path class="b" d="M68.825,29.343a16.128,16.128,0,0,1-8.249,8.892A40.582,40.582,0,0,1,49.637,40.99a46.487,46.487,0,0,1-9.57.328c-.717-.059.376.128-.236-.035a4.032,4.032,0,0,0-.553-.131c-.484-.052.405.208.193.087-.291-.167.567.368.315.234.281.149.1.213-.041-.137.183.467-.1-.417-.137-.568a2.652,2.652,0,0,1-.1-.764,17.437,17.437,0,0,1,.118-3.14A24.5,24.5,0,0,1,41.17,30.73c.172-.426-.227.459.085-.192.108-.225.22-.442.343-.66a18.146,18.146,0,0,1,1.071-1.657,10.913,10.913,0,0,1,2.47-2.641A2.461,2.461,0,0,0,46,22.3a2.42,2.42,0,0,0-3.283-.861c-4.3,2.963-6.6,7.889-7.518,12.885-.611,3.327-1.6,10.043,2.712,11.43,2.959.952,6.645.531,9.671.258a49.442,49.442,0,0,0,13.667-2.89,19.218,19.218,0,0,0,6.488-3.889,24.154,24.154,0,0,0,5.717-8.611,2.42,2.42,0,0,0-1.677-2.953,2.455,2.455,0,0,0-2.952,1.677Z"/><path class="b" d="M45.139,21.436a12.908,12.908,0,0,1-7.156-7.977,9.007,9.007,0,0,1-.366-2.031,6.625,6.625,0,0,0-.01-.914c-.048.187-.042.148.02-.116q-1.149,1.161-.371.668c.691-.237,1.345-.65,2.04-.905.915-.334,1.847-.62,2.787-.873,7.465-2,14.6-2.16,21.036,2.492a2.417,2.417,0,0,0,3.283-.861,2.452,2.452,0,0,0-.861-3.283A24.61,24.61,0,0,0,55.464,3.45a31.693,31.693,0,0,0-10.594.336,30.538,30.538,0,0,0-10.16,3.2c-3.235,1.868-1.8,6.969-.612,9.713a17.363,17.363,0,0,0,8.619,8.877A2.47,2.47,0,0,0,46,24.719a2.418,2.418,0,0,0-.861-3.283Z"/><path class="b" d="M74.048,10.877C76.8,8.7,80.786,7.483,84.214,6.708a29,29,0,0,1,5.694-.572,12.182,12.182,0,0,1,6.32,1.3l-.861-.861c.182.252-.062-.19-.077-.2-.138-.057,0-.322-.022.141-.018.352-.014.706-.055,1.057a14.6,14.6,0,0,1-.7,3.044,18.014,18.014,0,0,1-2.743,4.638,2.414,2.414,0,0,0,.861,3.284,2.46,2.46,0,0,0,3.283-.861,19.133,19.133,0,0,0,3.778-7.92,11.4,11.4,0,0,0,.26-4.471c-.384-1.759-1.917-2.415-3.467-3-3.121-1.178-6.61-1.068-9.872-.728A33.2,33.2,0,0,0,79.656,3a28.525,28.525,0,0,0-9,4.483,2.415,2.415,0,0,0,0,3.394,2.459,2.459,0,0,0,3.395,0Z"/><path class="b" d="M71.687,18.97c.054-2.725.09-5.453.2-8.176.04-.931.091-1.861.168-2.789q.052-.63.122-1.259c.02-.18.042-.36.063-.54a2.927,2.927,0,0,1,.039-.307c-.152.691-.024.173,0,.02.218-1.436.771-3.1.011-4.468a2.81,2.81,0,0,0-2.17-1.4A4.586,4.586,0,0,0,69.1.015c-.2.017-1.685.209-.945.118a3.605,3.605,0,0,0-2.424.995,4.7,4.7,0,0,0-1.094,2.54c-.284,1.723-.506,3.461-.67,5.2-.316,3.347-.344,6.709-.39,10.068a2.4,2.4,0,1,0,4.8,0c.035-2.551.055-5.1.206-7.652q.112-1.911.331-3.814c.071-.61.124-1.016.207-1.583.054-.368.108-.737.171-1.1.025-.146.057-.291.08-.437l.07-.259a.762.762,0,0,1-.755.5c-1.167.618-.576.356-.023.283l.319-.043c-.252.032-.287.038-.1.016.11-.011.221-.025.331-.033a1.642,1.642,0,0,0,.315-.012h.1L67.88,2.942a2.111,2.111,0,0,0-.009.368c.009-.27.025-.157-.01.051q-.255,1.494-.435,3c-.184,1.537-.279,3.081-.342,4.627-.108,2.659-.144,5.322-.2,7.983a2.4,2.4,0,0,0,4.8,0Z"/><path class="b" d="M58.767,21.175a41.2,41.2,0,0,0,17.015.33,2.42,2.42,0,0,0,1.676-2.952,2.453,2.453,0,0,0-2.952-1.676c-.293.051-.586.1-.88.144s-.3.043-.048.009c-.156.02-.312.04-.469.058q-.972.112-1.948.179-1.98.137-3.967.107c-1.312-.02-2.625-.092-3.93-.234-.084-.009-1.014-.133-.565-.067-.309-.046-.618-.094-.926-.15q-.872-.156-1.73-.377a2.4,2.4,0,0,0-1.276,4.629Z"/></svg>