<?xml version="1.0" encoding="utf-8"?>
<!-- Uploaded to: SVG Repo, www.svgrepo.com, Generator: SVG Repo Mixer Tools -->
<svg width="800px" height="800px" viewBox="0 -5.15 289.941 289.941" xmlns="http://www.w3.org/2000/svg"><defs><style>.a{fill:#ffffff;}.b{fill:#211715;}.c{fill:#957f6e;}.d{fill:#f7a19f;}.e{fill:#f2635f;}.f{fill:#7a7473;}.g{fill:#5394cf;}.h{fill:#b2cfe9;}</style></defs><path class="a" d="M261.009,162.295l2.124,9.888c.3,1.054.714,3.479.914,4.557.185,1,.518,3.111.963,5.444a3.139,3.139,0,0,0,2.6,2.74c2.207.279,4.762-.765,5.218-2.97a52.429,52.429,0,0,0,6.417,4.437c1.911,1.121,4.051,2.152,6.248,1.867a2.5,2.5,0,0,0,2.437-2.729c.106-3.417-2.776-6.07-5.267-8.411a72.9,72.9,0,0,1-9.236-10.531,38.028,38.028,0,0,1-2.609-5.4l-1.844-4.409-8.445,3.333Z"/><path class="a" d="M243.654,47.524a4.307,4.307,0,0,1,3.445-1.008,4.069,4.069,0,0,1,2.923,1.943,5.756,5.756,0,0,1,.6,2.313,17.218,17.218,0,0,1-1.757,9.129,10.939,10.939,0,0,1-2.83,3.716,3.3,3.3,0,0,1-3.31.773l-.5-.149c-.3,1.2-.707,2.245-.887,2.757-.986,2.5-6.536,11.4-13.5,14.565.07.549.16,1.177.309,2,.36,2.12.96,4.52,3.78,6.08.19.06,3.87,1.81,4.16,1.93,0,0-1.155,14.94-21.3,14.94-19.26,0-19.6-14.94-19.6-14.94.3-.12,3.97-1.87,4.17-1.93,2.81-1.56,3.41-3.96,3.78-6.08.089-.506.159-.933.209-1.311a27.152,27.152,0,0,1-9.8-7.229,30.945,30.945,0,0,1-6.137-10.43l-.734.2a4.116,4.116,0,0,1-3.73-1.179,10.942,10.942,0,0,1-2.831-3.716,17.217,17.217,0,0,1-1.756-9.129,5.739,5.739,0,0,1,.6-2.313,4.069,4.069,0,0,1,2.923-1.943,4.306,4.306,0,0,1,3.445,1.008S183.977,24.443,214.5,24.443,243.654,47.524,243.654,47.524Z"/><path class="b" d="M195.727,93.505c1.417-.584,2.785-1.286,4.178-1.925l.316-.142c.249-.115-.55.229-.352.147a6.248,6.248,0,0,0,.575-.251,8.615,8.615,0,0,0,1.871-1.394,9.044,9.044,0,0,0,2.161-3.452,17.387,17.387,0,0,0,.808-3.71,2.216,2.216,0,0,0-.2-1.541,2,2,0,0,0-3.655.478,20.911,20.911,0,0,1-.609,3.109c-.066.221-.142.438-.219.655a.934.934,0,0,0-.064.163c0,.007.185-.4.088-.208-.064.122-.116.251-.18.373a6.6,6.6,0,0,1-.4.678c-.042.061-.288.4-.1.151s-.116.127-.175.191c-.184.2-.382.38-.584.561-.275.247.267-.177-.047.04-.145.1-.289.2-.439.292-.369.229-.022.027.111.008a2.472,2.472,0,0,0-.523.221c-.087.037-.173.076-.259.115-.664.3-1.323.614-1.983.924l-1.14.534c-.235.11-1.214.529-.238.126a2.2,2.2,0,0,0-1.2.919,2.04,2.04,0,0,0-.2,1.541,2.019,2.019,0,0,0,2.46,1.4Z"/><path class="b" d="M225.845,81.557c.336,2.608.682,5.323,2.339,7.467a8.5,8.5,0,0,0,1.582,1.571,8.115,8.115,0,0,0,1.011.694,4.033,4.033,0,0,0,.638.291c.109.037-.617-.274-.342-.144.661.312,1.328.614,1.99.925s1.339.653,2.023.943a2.2,2.2,0,0,0,1.541.2,2,2,0,0,0,.478-3.655c-.748-.318-1.477-.687-2.213-1.032-.454-.213-.908-.427-1.364-.637-.145-.067-.29-.134-.436-.2a5.745,5.745,0,0,0-.574-.244c-.156.032.432.238.205.054a5,5,0,0,0-.482-.309q-.273-.2.03.033c-.079-.063-.156-.127-.231-.193-.213-.186-.7-.54-.788-.818.173.227.2.255.07.082-.051-.072-.1-.145-.148-.219q-.141-.219-.265-.447c-.033-.061-.171-.442-.225-.457.117.286.136.33.055.131-.03-.077-.059-.154-.088-.232a12.176,12.176,0,0,1-.486-1.87c-.073-.389-.14-.78-.2-1.171q-.05-.309-.095-.62c-.014-.094-.027-.188-.04-.282q.061.462.019.137a2.053,2.053,0,0,0-2-2c-.969.043-2.143.888-2,2Z"/><path class="c" d="M254.081,15.945c-.118-.842-.267-1.716-.458-2.695A12.922,12.922,0,0,0,251.3,8.227c-3.136-4.047-6.478-5.392-11.023-6.1s-9.037,1.183-10.658,6.008c0,0,.017,8.009,1.128,9.676,2.111,3.666,11.786,9.17,11.786,9.17,4.353.835,8.432,3.941,13.767,3.633a23.378,23.378,0,0,1-1.81-9.476A46.7,46.7,0,0,0,254.081,15.945Z"/><path class="b" d="M231.548,8.67c2.486-6.976,12.237-5.138,16.53-1.049a12.5,12.5,0,0,1,3.155,4.543,23.021,23.021,0,0,1,1.127,6.392c.16,2.146.131,4.3.4,6.44a24.337,24.337,0,0,0,1.816,6.632l1.727-3.01c-4.765.2-8.7-2.63-13.235-3.562-2.512-.517-3.587,3.338-1.063,3.857a46.011,46.011,0,0,1,6.691,2.312,19.485,19.485,0,0,0,7.607,1.393,2.031,2.031,0,0,0,1.727-3.009c-3.03-7.121-.073-15.7-4.9-22.259A17.165,17.165,0,0,0,245.2,1.271a17.451,17.451,0,0,0-9.61-.958,10.95,10.95,0,0,0-7.9,7.294c-.865,2.429,3,3.475,3.857,1.063Z"/><path class="c" d="M191.267,44.77a18.7,18.7,0,0,1-5.135,1.885s-1,.127-1.787.222a4.174,4.174,0,0,0-1.628-.388c.194,1.9-.971-5.088-.79-9.208a31.059,31.059,0,0,1,13.408-24.5,32.578,32.578,0,0,1,19.329-5.949A34.281,34.281,0,0,1,226.074,8.7a32.456,32.456,0,0,1,4.813,2.158,37.666,37.666,0,0,1,5.511,3.655c.659.573,1.628,1.515,2.266,2.159a30.161,30.161,0,0,1,4.188,5.3A31.633,31.633,0,0,1,247.4,37.281a42.305,42.305,0,0,1-.559,8.991l-.036.22a4.256,4.256,0,0,0-1.789.231c-.719-.406-1.245-.707-1.245-.707-1.477-.844-5.127-3.143-6.42-4.084-.37-.221-.739-.452-1.1-.694-.31-.211-.621-.421-.923-.64-4.574-3.263-8.317-7.843-9.643-12.066-4.036,4.713-9.793,8-14.15,8.177-1.147.191.584-4.4,1.42-6.524-6.661,4.384-14.616,11.036-21.7,14.584"/><path class="b" d="M245.068,48.938a2.22,2.22,0,0,1,3.227.531,5.425,5.425,0,0,1,.386,2.395,14.359,14.359,0,0,1-.205,2.891,15.28,15.28,0,0,1-2.046,5.409,7.542,7.542,0,0,1-1.608,1.884,1.475,1.475,0,0,1-1.563.414c-2.49-.664-3.552,3.193-1.063,3.857,3.162.843,5.639-1.188,7.364-3.648a18.437,18.437,0,0,0,2.989-8.313c.337-2.767.328-6.271-1.912-8.283a6.359,6.359,0,0,0-8.4.035,2.015,2.015,0,0,0,0,2.828,2.043,2.043,0,0,0,2.828,0Z"/><path class="b" d="M240.617,61.707a14.1,14.1,0,0,1-.943,4.034c-.085.242-.181.481-.26.725-.107.333.223-.41.039-.1-.156.265-.271.563-.416.836a34.382,34.382,0,0,1-3.158,4.837c-2.832,3.668-6.6,7.478-11.292,8.507-2.513.551-1.449,4.408,1.064,3.857,5.557-1.218,10.007-5.587,13.37-9.941,2.876-3.723,5.386-7.922,5.6-12.758.112-2.573-3.888-2.568-4,0Z"/><path class="b" d="M186.746,46.11a6.362,6.362,0,0,0-8.4-.035c-2.3,2.067-2.246,5.686-1.881,8.512a18.142,18.142,0,0,0,3.13,8.322c1.781,2.444,4.436,4.515,7.613,3.815a2,2,0,1,0-1.063-3.857c-1.344.3-2.781-1.476-3.433-2.457a15.048,15.048,0,0,1-2.176-5.5,14.347,14.347,0,0,1-.238-2.845,5.721,5.721,0,0,1,.39-2.594,2.22,2.22,0,0,1,3.227-.531,2.053,2.053,0,0,0,2.828,0,2.015,2.015,0,0,0,0-2.828Z"/><path class="b" d="M184.39,61.154A33.112,33.112,0,0,0,192,76.283c4,4.533,9.348,8.282,15.44,9.149a2.067,2.067,0,0,0,2.46-1.4,2.015,2.015,0,0,0-1.4-2.461c-10.486-1.493-18.22-11.6-20.252-21.485-.519-2.519-4.375-1.453-3.858,1.064Z"/><path class="b" d="M248.774,46.8c1.457-8.956.559-18.445-4.437-26.227A34.638,34.638,0,0,0,223.708,5.905a37.037,37.037,0,0,0-25.581,2.814,34.5,34.5,0,0,0-14.05,13.544,33.273,33.273,0,0,0-3.946,12.477,43.893,43.893,0,0,0,.564,12.067,2.015,2.015,0,0,0,2.46,1.4,2.048,2.048,0,0,0,1.4-2.46c-1.042-6.436-.906-13.112,1.81-19.147a30.391,30.391,0,0,1,11.049-12.824c13.04-8.55,31.508-5.742,41.508,6.144,6.006,7.138,7.461,16.829,6,25.825a2.061,2.061,0,0,0,1.4,2.46,2.017,2.017,0,0,0,2.461-1.4Z"/><path class="b" d="M244.784,44.289a83.355,83.355,0,0,1-9.142-5.93c-3.419-2.63-6.662-6.194-8.028-10.358a2.018,2.018,0,0,0-3.342-.883,25.725,25.725,0,0,1-6.55,5.475,17.861,17.861,0,0,1-3.317,1.523,14.641,14.641,0,0,1-1.59.431c-.228.047-.459.092-.69.12-.272.032-.943-.124-.249.09l.882.514a1.458,1.458,0,0,1,.4.883l.006-.174c-.136.156.022-.144.067-.341.128-.558.29-1.107.465-1.652.356-1.1.768-2.19,1.192-3.271.635-1.623-1.551-3.176-2.938-2.258-7.256,4.8-13.9,10.632-21.7,14.584-2.3,1.164-.274,4.617,2.019,3.454,7.793-3.952,14.441-9.785,21.7-14.584l-2.938-2.259a26.7,26.7,0,0,0-1.777,5.6,3.064,3.064,0,0,0,.68,2.846c.947.9,2.331.59,3.484.391,5.312-.915,10.222-4.564,13.686-8.544l-3.343-.883c2.9,8.838,11.348,14.262,19.008,18.679,2.234,1.288,4.251-2.167,2.019-3.454Z"/><path class="b" d="M190.257,43.043c-.668.327-1.34.646-2.025.937l.478-.2a12.6,12.6,0,0,1-3.035.938l.531-.071-.074.01a2.222,2.222,0,0,0-1.414.585,2,2,0,0,0,0,2.829,1.913,1.913,0,0,0,1.414.586,13.184,13.184,0,0,0,3.155-.82c1.016-.4,2.008-.858,2.989-1.338a2.019,2.019,0,0,0,.919-1.2,2.045,2.045,0,0,0-.2-1.542,2.021,2.021,0,0,0-1.2-.919,2.228,2.228,0,0,0-1.541.2Z"/><path class="a" d="M237.318,272.678a16.029,16.029,0,0,0,2.973,2.32,19.506,19.506,0,0,0,12.141,2.492,11.5,11.5,0,0,0,5.159-1.817,6.418,6.418,0,0,0,2.815-4.548c.22-2.609-1.363-5.08-3.218-6.927-4.761-4.738-9.808-9.389-14.013-14.575-2.108,2.9-5.884,3.733-9.268,3.04-3.112-.637-5.884-2.339-8.59-4-2.589-1.592-2.979,5.88-3.04,7.5-.1,2.566-.518,5.954,1.518,7.851a20.512,20.512,0,0,0,6.508,3.54C233.426,268.507,235.038,270.519,237.318,272.678Z"/><path class="a" d="M198.415,272.678a16.029,16.029,0,0,1-2.973,2.32A19.506,19.506,0,0,1,183.3,277.49a11.5,11.5,0,0,1-5.159-1.817,6.415,6.415,0,0,1-2.815-4.548c-.22-2.609,1.363-5.08,3.218-6.927,4.761-4.738,9.808-9.389,14.013-14.575,2.108,2.9,5.884,3.733,9.268,3.04,3.112-.637,5.884-2.339,8.59-4,2.589-1.592,2.979,5.88,3.04,7.5.1,2.566.518,5.954-1.518,7.851a20.512,20.512,0,0,1-6.508,3.54C202.307,268.507,200.7,270.519,198.415,272.678Z"/><path class="a" d="M241.094,250.783c0,.253,0,.513,0,.777a9.91,9.91,0,0,1-7.189,1.1,26.3,26.3,0,0,1-8.266-3.8c-.381-2.094-.667-4.2-.887-6.315,5.359-.009,9.98-.07,16.1-.383q.076,2.985.239,5.97S241.091,249.321,241.094,250.783Z"/><path class="a" d="M193.594,250.31q.188-4.071.406-8.141c6.129.311,10.772.368,16.187.374q-.392,3.31-.623,6.637a24.692,24.692,0,0,1-7.738,3.483,9.48,9.48,0,0,1-8.253-1.906Z"/><path class="b" d="M192.17,239.792q-.313,5.488-.57,10.98a2.014,2.014,0,0,0,2,2,2.043,2.043,0,0,0,2-2q.256-5.492.57-10.98a2.013,2.013,0,0,0-2-2,2.045,2.045,0,0,0-2,2Z"/><path class="b" d="M208.622,239.621c-.433,3.167-.787,6.342-1.012,9.531a2.01,2.01,0,0,0,2,2,2.047,2.047,0,0,0,2-2q.156-2.212.386-4.419.111-1.059.237-2.116.063-.529.131-1.057c.026-.205.053-.411.08-.616.011-.088.023-.176.035-.264-.032.238-.032.24,0,0a2.21,2.21,0,0,0-.2-1.541,2,2,0,0,0-3.655.478Z"/><path class="b" d="M227.4,247.886q-.168-1.006-.311-2.018c-.014-.1-.108-.708-.027-.2-.026-.161-.043-.324-.063-.485q-.061-.488-.117-.973c-.156-1.353-.282-2.708-.391-4.065a2,2,0,0,0-4,0c.236,2.946.565,5.886,1.052,8.8a2.007,2.007,0,0,0,2.46,1.4,2.057,2.057,0,0,0,1.4-2.46Z"/><path class="b" d="M243.1,248.628q-.238-4.426-.29-8.86a2,2,0,1,0-4,0q.047,4.433.29,8.86a2,2,0,0,0,4,0Z"/><path class="b" d="M235.9,274.092a20.143,20.143,0,0,0,10.58,5.228c3.914.635,8.533.469,11.94-1.8a8.252,8.252,0,0,0,3.545-9.592c-1.317-3.8-4.686-6.445-7.468-9.173a131.137,131.137,0,0,1-9.912-10.545c-.905-1.108-2.443-.508-3.141.405-2.639,3.45-7.681,2.356-10.979.706-1.037-.519-2.039-1.106-3.031-1.706a6.181,6.181,0,0,0-2.458-1.135,3.369,3.369,0,0,0-3.356,2.14c-1.108,2.285-1.235,5.046-1.347,7.543a19.889,19.889,0,0,0,.269,6.074,8.012,8.012,0,0,0,3.75,4.645,32.314,32.314,0,0,0,6.066,2.8c2.242.875,3.845,2.789,5.542,4.41,1.861,1.779,4.694-1.045,2.828-2.828a36.341,36.341,0,0,0-4.618-4.1c-1.616-1.091-3.5-1.493-5.233-2.32-1.387-.66-3.4-1.5-4.185-2.906-.8-1.426-.532-3.395-.457-4.953.107-2.216.03-4.516.923-6.55-.108.247.189-.262.225-.364-.13.361-.136.08,0,.051-.136.03-.244.223-.406.262-.559.138-1.2-.318-.3.227.5.3.989.606,1.489.9a26.038,26.038,0,0,0,6.369,2.878c4.6,1.234,9.415.1,12.367-3.76l-3.141.405a126.071,126.071,0,0,0,9.418,10.059c1.531,1.5,3.089,2.986,4.594,4.517a8.019,8.019,0,0,1,2.647,4.734c.307,4.11-5.079,5.262-8.157,5.294a16.587,16.587,0,0,1-11.531-4.377C236.853,269.507,234.019,272.33,235.9,274.092Z"/><path class="b" d="M197,271.264a16.576,16.576,0,0,1-11.531,4.377c-3.075-.036-8.465-1.182-8.157-5.294a8.026,8.026,0,0,1,2.646-4.734c1.5-1.534,3.064-3.012,4.595-4.517a126.071,126.071,0,0,0,9.418-10.059l-3.141-.405a11.088,11.088,0,0,0,10.822,4.081,20.029,20.029,0,0,0,6.4-2.341c.894-.48,1.766-1,2.633-1.531a3.8,3.8,0,0,0,.739-.454c.2-.332.158.064-.017.006-.5-.165-.527.049-.882-.116-.234-.109-.127-.117-.125-.126.031-.1.195.35.191.341-.018-.04.14.409.187.566a14.289,14.289,0,0,1,.423,2.007c.114.773.2,1.932.244,2.864a19.39,19.39,0,0,1-.036,4.91c-.375,1.738-1.775,2.521-3.24,3.331-1.9,1.051-4.053,1.515-5.924,2.6A29.238,29.238,0,0,0,197,271.264c-1.865,1.782.966,4.608,2.828,2.828a23.07,23.07,0,0,1,4.765-4.05c1.786-.954,3.8-1.428,5.595-2.418a10.18,10.18,0,0,0,4.378-3.813,12.1,12.1,0,0,0,.959-6.135,29.67,29.67,0,0,0-.956-7.895,4.5,4.5,0,0,0-2.624-3.214c-1.876-.586-3.647,1.077-5.151,1.93-3.556,2.018-9.413,4.165-12.51.116-.7-.913-2.236-1.513-3.141-.405a118.546,118.546,0,0,1-8.6,9.249c-1.529,1.512-3.073,3.009-4.6,4.52a17.1,17.1,0,0,0-3.6,4.567,8.239,8.239,0,0,0,1.8,10.089c3.013,2.621,7.413,3.287,11.278,2.924a20.719,20.719,0,0,0,12.406-5.465C201.713,272.33,198.88,269.506,197,271.264Z"/><path class="d" d="M165.707,140.431c.365-10.669,3.325-24.142,10.632-35.712,3-4.562,9.153-9.276,15.22-11.889l.195-.217c1.535-1.523,5.206-4.5,7.172-6.1a.839.839,0,0,1,1.313.352c3.706,9.4,7.641,13.845,16.867,19.809,5.559-6.6,11.012-13.991,13.343-19.824a.825.825,0,0,1,1.216-.361c2.313,1.494,4.98,3.808,7.39,5.618,6.287,3.136,12.214,7.357,15.313,12.06,4.223,6.412,7.174,14.027,10.063,21.14,4.038,9.94,7.644,21.36,11.682,31.3a59.087,59.087,0,0,1-20.869,7.154l-6.326.709a26.976,26.976,0,0,1-.466,5.332l-.239,3.107-.054.7c.278,8.218.231,14.741.272,23.135.064,12.963.013,28.694-.437,41.666a2.893,2.893,0,0,1-.351,1.65c-.929,1.42-4.123,1.935-6.475,2.065-9,.49-14.647.42-23.857.42s-14.865.07-23.867-.42c-2.362-.13-5.161-.45-6.09-1.87A2.815,2.815,0,0,1,187,238.6c-.92-18.528-.943-25.417-1.016-42.972-.033-7.982-.13-16.077.207-23.115l-.557-2.013a73.478,73.478,0,0,1-.416-8.772l-.1-1.256a25.7,25.7,0,0,1-4.852,3.015c-4.092,1.678-8.793-1.256-11.017-5.448a33.842,33.842,0,0,1-3.58-14.655Q165.657,141.95,165.707,140.431Z"/><path class="b" d="M269.094,162.2c.718,1.539,1.278,3.148,2.129,4.622a37.108,37.108,0,0,0,3.548,4.773,111.854,111.854,0,0,0,8.023,8.416,11.449,11.449,0,0,1,2.841,3.785,3.66,3.66,0,0,1,.287,1.928c-.17.708-.865.622-1.518.573-1.865-.139-3.581-1.265-5.13-2.22a50.3,50.3,0,0,1-5.029-3.532,2.028,2.028,0,0,0-3.343.883,2.458,2.458,0,0,1-2.651,1.545c-1.406-.053-1.366-1.576-1.566-2.682-.517-2.867-.862-5.818-1.623-8.634-.672-2.482-4.532-1.429-3.858,1.063.481,1.776.755,3.618,1.068,5.43.379,2.2.423,4.907,1.775,6.761,2.819,3.867,9.583,1.965,10.712-2.42l-3.342.883a58.356,58.356,0,0,0,6.033,4.277,15.352,15.352,0,0,0,6.736,2.635c2.324.165,4.775-.737,5.5-3.149a8,8,0,0,0-.879-5.954,19.47,19.47,0,0,0-3.887-4.682c-1.7-1.623-3.382-3.248-4.959-4.991a60.313,60.313,0,0,1-4.539-5.561,35.562,35.562,0,0,1-2.874-5.767,2.016,2.016,0,0,0-2.736-.718,2.045,2.045,0,0,0-.718,2.736Z"/><path class="b" d="M255.244,165.756a60.43,60.43,0,0,0,21.878-7.427,2.012,2.012,0,0,0,.919-2.258c-4.508-11.136-8.154-22.595-12.667-33.732a132.818,132.818,0,0,0-7.341-16.014,33.987,33.987,0,0,0-4.534-6.447,38.5,38.5,0,0,0-6.291-5.305q-1.6-1.113-3.283-2.1c-1.308-.773-2.774-1.374-4.025-2.221-2.289-1.549-4.3-3.5-6.586-5.066a3.119,3.119,0,0,0-3.717-.314,4.988,4.988,0,0,0-1.527,2.466,45.555,45.555,0,0,1-2.42,4.457A127.307,127.307,0,0,1,211.21,110.4q-3.686,4.1-7.566,8.015c-.805.81-1.616,1.615-2.446,2.4-.249.236-.5.465-.755.7a2.548,2.548,0,0,0-.243.209,1.853,1.853,0,0,1,1.229-.457l1.009.273,0,0,.99,1.727q-.536,1.417-.252.963c1.379-2.183-2.081-4.193-3.454-2.019a2.023,2.023,0,0,0,2.813,2.73,10.153,10.153,0,0,0,1.537-1.334c1.911-1.812,3.747-3.7,5.562-5.612a179.05,179.05,0,0,0,16.256-19.332c1.311-1.84,2.567-3.722,3.711-5.671.528-.9,1.033-1.815,1.5-2.749.42-.839.772-1.9,1.237-2.631l-.718.717c-.567.413-.882-.076-.159.427q.416.289.823.59c.434.319.862.647,1.287.979,1.142.89,2.266,1.8,3.411,2.691,2.179,1.688,4.829,2.773,7.143,4.293A36.77,36.77,0,0,1,250,102.012a27.6,27.6,0,0,1,4.25,5.76,117.812,117.812,0,0,1,7.1,15.222q3.192,7.871,6.049,15.859c2.2,6.117,4.344,12.255,6.783,18.281l.919-2.259a55.351,55.351,0,0,1-19.859,6.881,2.066,2.066,0,0,0-2,2,2.012,2.012,0,0,0,2,2Z"/><path class="b" d="M233.365,98.392a97.427,97.427,0,0,1-17.42,23.785c-1.817,1.829,1.011,4.658,2.828,2.829a101.042,101.042,0,0,0,18.046-24.595c1.18-2.284-2.27-4.309-3.454-2.019Z"/><path class="e" d="M248.657,135.646c-.015-.375-.031-.727-.046-1.055l-2.33-.243c-6.067-1.263-39.567-1.049-45.387-.965l-9.963.373-2.592,23.407a13.531,13.531,0,0,1-3.18,3.279c.1,4.315.3,9.428.478,10.059,10.806.065,44.97-.377,62.815-.7C249.331,167.424,249.038,144.866,248.657,135.646Z"/><path class="b" d="M200.894,135.383c12.607-.178,25.261-.232,37.858.323,1.462.065,2.925.141,4.385.259.573.046,1.144.1,1.716.165.665.072-.241-.059.285.038.2.038.409.068.612.109,2.513.509,3.588-3.346,1.063-3.857a45.932,45.932,0,0,0-6.717-.65c-3.311-.171-6.626-.254-9.941-.317-7.285-.138-14.573-.157-21.859-.128-2.467.01-4.935.023-7.4.058-2.571.036-2.579,4.036,0,4Z"/><path class="b" d="M183.221,161.729c.032,1.958.071,3.917.161,5.873a16.766,16.766,0,0,0,.326,3.431,2,2,0,1,0,3.858-1.064c-.034-.126-.1-.612-.04-.152s.007.035,0-.07-.021-.219-.03-.328c-.054-.644-.087-1.289-.116-1.934-.085-1.918-.124-3.837-.155-5.756a2,2,0,0,0-4,0Z"/><path class="b" d="M246.452,132.168c.48,4.465.4,9.04.479,13.524.11,6.181.186,12.374-.006,18.554-.036,1.158-.08,2.317-.171,3.473-.019.237-.043.473-.064.71-.031.358-.079.467-.007.1a5.233,5.233,0,0,1-.16.733c-.849,2.435,3.014,3.482,3.857,1.063a17.433,17.433,0,0,0,.5-4.816c.117-2.793.139-5.59.146-8.384q.025-9.5-.278-18.993c-.064-1.985-.084-3.992-.3-5.968a2.059,2.059,0,0,0-2-2,2.013,2.013,0,0,0-2,2Z"/><path class="b" d="M185.637,172.5c16.4.094,32.8-.233,49.2-.48q6.808-.1,13.617-.224c2.571-.047,2.579-4.047,0-4q-26.4.483-52.8.681c-3.337.022-6.675.042-10.012.023-2.574-.015-2.577,3.985,0,4Z"/><path class="b" d="M186.612,156.154c-1.45,2.244-4.065,3.889-6.377,5.13-2.27,1.218-4.838.564-6.818-1.169-2.612-2.287-3.836-5.793-4.686-9.064a36.286,36.286,0,0,1-1.033-10.335,73.482,73.482,0,0,1,3.55-20.281c2.231-6.926,5.35-14.25,10.847-19.2a37.218,37.218,0,0,1,5.115-3.839q1.389-.873,2.845-1.635a14.047,14.047,0,0,0,2.918-1.512c1.113-1,2.191-2.037,3.341-3q1.04-.874,2.091-1.736l.91-.745c.16-.13.327-.253.48-.391.485-.439.306.031-.125-.018l-1.009-.273-.207-.321q.106.267.216.533c.137.335.278.668.419,1,.214.5.432,1.008.659,1.508.449.986.928,1.959,1.45,2.909a34.579,34.579,0,0,0,3.455,5.121,44.575,44.575,0,0,0,9.919,8.566c2.138,1.445,4.142-2.019,2.019-3.454a39.413,39.413,0,0,1-9.368-8.265,32.3,32.3,0,0,1-3.194-5.169q-.72-1.422-1.341-2.892c-.5-1.171-.791-2.377-2.008-2.991-2.207-1.111-4.25,1.345-5.792,2.62-.835.689-1.666,1.383-2.486,2.09a24.59,24.59,0,0,1-2.091,1.9c-.878.587-2.089.958-3.042,1.483q-1.826,1-3.545,2.189a39.355,39.355,0,0,0-6.214,5.2c-3.671,3.852-6.058,8.848-8.077,13.716a74.84,74.84,0,0,0-4.388,14.8c-1.817,9.639-2.343,19.887,1.792,29.024,2.133,4.715,6.775,9.053,12.324,8.2a13.88,13.88,0,0,0,5.436-2.536,18.765,18.765,0,0,0,5.469-5.138c1.4-2.169-2.06-4.176-3.454-2.019Z"/><path class="b" d="M246.213,172.3c.377,13.2.282,26.424.228,39.623-.029,6.864-.1,13.729-.273,20.591q-.059,2.331-.132,4.66c-.036,1.1.258,1.773-.8,2.216-2.715,1.137-6.159.858-9.036.965-6.375.235-12.755.19-19.133.191-6.361,0-12.722.038-19.08-.208-1.64-.063-3.281-.127-4.919-.234-.971-.064-3.2-.018-3.89-.816-.2-.235-.139-.325-.174-.682-.087-.876-.087-1.769-.129-2.648q-.121-2.531-.231-5.063c-.237-5.49-.417-10.982-.51-16.477-.111-6.585-.12-13.172-.15-19.759-.037-7.92-.159-15.855.295-23.766.148-2.572-3.853-2.563-4,0-.426,7.425-.341,14.871-.3,22.3.033,6.4.039,12.8.128,19.2q.115,8.436.471,16.865.1,2.322.2,4.641a47.462,47.462,0,0,0,.322,5.908c.573,3.265,4.248,3.952,7.009,4.215,6.521.622,13.163.522,19.707.521,6.891,0,13.787.073,20.677-.084,3.349-.076,6.761-.082,10.09-.459,2.688-.3,6.454-.971,7.257-4.053a20.8,20.8,0,0,0,.248-4.452q.083-2.8.141-5.6.111-5.257.16-10.516c.158-15.681.273-31.411-.175-47.087-.074-2.568-4.074-2.579-4,0Z"/><path class="e" d="M166.345,102.66a9.656,9.656,0,0,1,.47-3.9,8.881,8.881,0,0,1-2.441-3.376c-.156-.875,3-4.622,10.944-6.444,6.056-1.389,12.926-.123,13.223,1a6.509,6.509,0,0,1-.993,3.865c1.521.884,2.514,3.214,3.092,4.566a11.256,11.256,0,0,1-.71,9.291,10.129,10.129,0,0,1-8.072,4.166,11.933,11.933,0,0,1-10.817-.11C168.485,110.274,166.412,106.467,166.345,102.66Z"/><path class="b" d="M179.312,112.636c.886,4.488,1.7,8.99,2.62,13.47a2,2,0,1,0,3.857-1.063c-.923-4.48-1.734-8.983-2.62-13.47a2.02,2.02,0,0,0-2.46-1.4,2.041,2.041,0,0,0-1.4,2.46Z"/><path class="b" d="M168.345,102.66a8.288,8.288,0,0,1,.4-3.367,1.92,1.92,0,0,0-.514-1.946,6.965,6.965,0,0,1-1.113-1.144c-.237-.3-.405-.726-.666-1-.234-.245,0-.328-.081.128-.132.785-.043.428-.021.264-.081.592-.174.217.028.028.046-.043.356-.457.009-.032.14-.171.292-.333.448-.491a16.156,16.156,0,0,1,6.5-3.546,25.218,25.218,0,0,1,10.929-1.037,14.431,14.431,0,0,1,1.878.37,6.691,6.691,0,0,1,.786.246c-.054-.022.188-.037.246.14-.008-.022-.754-.933-.59-.965a4.65,4.65,0,0,1-.1.834,4.184,4.184,0,0,1-.664,1.653,2.027,2.027,0,0,0,.717,2.736c1.133.735,1.793,2.386,2.268,3.6a8.617,8.617,0,0,1,.338,4.912,6.525,6.525,0,0,1-1.561,3.368,8.6,8.6,0,0,1-4.347,2.314,13.563,13.563,0,0,0-2.713.525,12.484,12.484,0,0,1-2.168.639,9.772,9.772,0,0,1-4.927-.286c-3.313-1.081-4.965-4.654-5.084-7.945-.094-2.567-4.094-2.579-4,0,.15,4.145,2.057,8.815,5.867,10.883a14.105,14.105,0,0,0,12.655.013l-1.009.273a11.264,11.264,0,0,0,11.017-8.185,12.676,12.676,0,0,0-.306-7.8c-.882-2.2-1.966-4.435-4.011-5.761l.717,2.737c1.437-1.994,2.189-5.775-.361-7.15-2.661-1.434-6.408-1.445-9.332-1.3a28.785,28.785,0,0,0-11.2,2.891,13.429,13.429,0,0,0-5.391,4.244c-1.533,2.331.535,5.18,2.41,6.672l-.515-1.946a11.246,11.246,0,0,0-.541,4.431C164.378,105.232,168.379,105.239,168.345,102.66Z"/><path class="a" d="M195.377,145.229c-.067-1.036-.624-2.7-2.049-2.735a3.359,3.359,0,0,0,1.869-5.114,3.174,3.174,0,0,0-2.4-1.2,2.984,2.984,0,0,0,1.69-2.306,2.271,2.271,0,0,0-.894-2.213,3.463,3.463,0,0,0-2.747-.818,2.179,2.179,0,0,0,.974-2.81,3.423,3.423,0,0,0-2.623-1.767,9.8,9.8,0,0,0-3.371.2,16.712,16.712,0,0,0-7.586,2.977,7.891,7.891,0,0,0-2.459,5.418,24.8,24.8,0,0,0,1.019,9.464c.683,2.193,1.808,4.428,3.911,5.489a10.74,10.74,0,0,0,3.405.874,9.843,9.843,0,0,0,6.518-.794,11.663,11.663,0,0,0,3.182-1.779A3.822,3.822,0,0,0,195.377,145.229Z"/><path class="b" d="M197.377,145.229c-.233-2.439-1.461-4.45-4.049-4.735l.532,3.928a5.43,5.43,0,0,0,3.927-5.437c-.111-2.822-2.357-4.536-4.99-4.805l1.009,3.727a4.983,4.983,0,0,0,2.523-5.656,5.3,5.3,0,0,0-5.483-3.408l1.009,3.727a4.225,4.225,0,0,0,1.692-5.546c-1.038-2.047-3.432-2.9-5.608-2.831-4.377.136-10.2,1.765-12.654,5.678-2.487,3.968-1.828,9.822-.667,14.11a13.722,13.722,0,0,0,3.087,6.056c1.8,1.858,4.173,2.363,6.643,2.678a14.248,14.248,0,0,0,8.232-1.506c2.423-1.124,4.746-3.116,4.8-5.98.047-2.575-3.953-2.576-4,0-.029,1.624-2.808,2.574-4.052,3.049a10.67,10.67,0,0,1-6.43.178c-3.868-.921-4.8-5.864-5.105-9.259a16.019,16.019,0,0,1,.283-5.816,5.778,5.778,0,0,1,3.611-3.7,19.148,19.148,0,0,1,5.832-1.467c.607-.053,1.745-.15,2.232.36.191.2.4.364.088.538-1.638.923-1.02,3.925,1.01,3.727,1.239-.12,2.423.772.941,1.61-1.861,1.054-.844,3.538,1.01,3.727,1.448.148,1.161,2.055,0,2.385-2.3.653-1.616,3.692.531,3.929-.4-.045.033.564.049.735a2.056,2.056,0,0,0,2,2A2.014,2.014,0,0,0,197.377,145.229Z"/><path class="b" d="M186.042,140.786q.492-.236.991-.458c.188-.085.377-.178.571-.25l-.19.08c.095-.041.192-.08.288-.12q1.01-.414,2.042-.774a41.144,41.144,0,0,1,4.192-1.213,2.018,2.018,0,0,0,1.4-2.46,2.045,2.045,0,0,0-2.461-1.4,43.7,43.7,0,0,0-8.849,3.138,2.01,2.01,0,0,0-.717,2.737,2.054,2.054,0,0,0,2.736.717Z"/><path class="b" d="M184.283,135.15l.275-.117q-.379.159-.075.032c.174-.072.348-.144.523-.214q.441-.178.885-.346.9-.342,1.823-.637c1.263-.405,2.548-.736,3.84-1.037a2.017,2.017,0,0,0,1.4-2.46,2.044,2.044,0,0,0-2.46-1.4,48.717,48.717,0,0,0-8.227,2.722,2,2,0,0,0-.919,1.2,2.043,2.043,0,0,0,.2,1.541,2.017,2.017,0,0,0,1.195.919,2.341,2.341,0,0,0,1.541-.2Z"/><path class="b" d="M187.364,146.46q.408-.21.824-.4.213-.1.428-.193c.073-.032.146-.061.218-.094-.072.033-.4.165-.149.064.61-.246,1.224-.476,1.849-.68a20.515,20.515,0,0,1,3.392-.835,2,2,0,0,0,1.2-.919,2,2,0,0,0-.718-2.737,2.332,2.332,0,0,0-1.541-.2,24.655,24.655,0,0,0-7.517,2.543,2.015,2.015,0,0,0-.717,2.736,2.046,2.046,0,0,0,2.736.718Z"/><path class="b" d="M209.4,70.409a9.967,9.967,0,0,0,11.9,0,2,2,0,0,0-2.828-2.829c-.077.076-.371.31-.041.056s-.04.018-.138.078c-.117.072-.238.139-.362.2-.081.041-.173.074-.252.119a1.3,1.3,0,1,0,.15-.069,8.5,8.5,0,0,1-1.206.33c-.151.028-.49.171-.019.013a1.69,1.69,0,0,1-.37.038c-.3.025-.59.036-.886.036-.271,0-.541-.009-.811-.03a2.832,2.832,0,0,0-.447-.044c.192-.022.352.053.048,0a7.469,7.469,0,0,1-1.223-.324c-.161-.058-.419-.228.1.051-.068-.037-.142-.065-.211-.1q-.207-.1-.4-.22c-.1-.062-.191-.137-.291-.2.577.35.277.223.113.063a2,2,0,0,0-2.828,2.829Z"/><path class="b" d="M213.636,56.8c-.235.895-.445,1.8-.6,2.71a3.792,3.792,0,0,0-.013,1.666,2.457,2.457,0,0,0,1.294,1.589,3.458,3.458,0,0,0,1.648.407c.359-.015.7-.1,1.055-.151a2,2,0,0,0,1.195-.919,2,2,0,0,0-.717-2.737l-.478-.2a2,2,0,0,0-1.063,0c-.134.018-.266.05-.4.069l.531-.072a1.5,1.5,0,0,1-.354,0l.531.072a1.623,1.623,0,0,1-.378-.111l.478.2a1.921,1.921,0,0,1-.224-.119l.405.313a.616.616,0,0,1-.093-.091l.313.405a.732.732,0,0,1-.062-.113l.2.477a.9.9,0,0,1-.043-.175l.071.531a1.7,1.7,0,0,1,.011-.39l-.072.531a26.407,26.407,0,0,1,.619-2.831,2.077,2.077,0,0,0-.2-1.541,2,2,0,0,0-2.736-.717,2.065,2.065,0,0,0-.919,1.2Z"/><path class="b" d="M200.1,50.279c-.463,1.5-.161,4.956,2.684,5.25,3.76-.022,3.96-4.2,2.695-6.163C204.439,47.758,201.391,47.089,200.1,50.279Z"/><path class="b" d="M230.087,50.279c.462,1.5.161,4.956-2.684,5.25-3.761-.022-3.961-4.2-2.695-6.163C225.744,47.758,228.792,47.089,230.087,50.279Z"/><path class="a" d="M103.432,46.3a4.3,4.3,0,0,1,3.445-1.008,4.062,4.062,0,0,1,2.922,1.943,5.724,5.724,0,0,1,.6,2.312,17.228,17.228,0,0,1-1.756,9.13,10.948,10.948,0,0,1-2.831,3.715,3.3,3.3,0,0,1-3.309.774l-.5-.15c-.3,1.2-.707,2.246-.887,2.757-.986,2.5-6.537,11.4-13.495,14.571.068.544.157,1.172.307,2,.36,2.12.96,4.52,3.78,6.08.19.06,3.87,1.81,4.16,1.93,0,0-3.661,16.756-22.118,16.756S54.973,90.354,54.973,90.354c.3-.12,3.97-1.87,4.17-1.93,2.81-1.56,3.41-3.96,3.78-6.08.089-.5.159-.933.209-1.31a27.155,27.155,0,0,1-9.8-7.229,30.945,30.945,0,0,1-6.137-10.43l-.735.2a4.114,4.114,0,0,1-3.73-1.179A10.961,10.961,0,0,1,39.9,58.679a17.228,17.228,0,0,1-1.756-9.13,5.756,5.756,0,0,1,.6-2.312,4.066,4.066,0,0,1,2.923-1.943A4.3,4.3,0,0,1,45.11,46.3s2.867-22.525,29.533-22.525C102.2,23.777,103.432,46.3,103.432,46.3Z"/><path class="f" d="M42.028,32.607A31.1,31.1,0,0,1,55.112,11.554a32.588,32.588,0,0,1,19.33-5.948A34.271,34.271,0,0,1,85.851,7.477a32.456,32.456,0,0,1,4.813,2.158,37.644,37.644,0,0,1,5.511,3.654c.66.574,1.629,1.515,2.266,2.16a30.115,30.115,0,0,1,4.188,5.3,31.615,31.615,0,0,1,4.552,15.312,42.31,42.31,0,0,1-.558,8.991l-.036.217a4.269,4.269,0,0,0-3.155,1.035,4.144,4.144,0,0,1-3.756.382,2.338,2.338,0,0,1-1.313-2.217,26.757,26.757,0,0,0-5.876-13.046c-1.116-1.292-3.061-3.126-4.637-3.611,0,0-.33-.1-.864-.257a54.906,54.906,0,0,1-5.876,2.4c-1.516.52-3.522.907-4.629-.059-1.049-.914-.622-2.571-1.871-3.314a4.235,4.235,0,0,0-3.053-.07C60.879,29.179,54.448,35.668,50.484,43.9a4.206,4.206,0,0,1-3.65,2.764A3.862,3.862,0,0,1,45.11,46.3a4.223,4.223,0,0,0-2.616-1.041c.2,1.919-.97-5.078-.789-9.2A34.4,34.4,0,0,1,42.028,32.607Z"/><path class="b" d="M55.505,92.283C56.921,91.7,58.29,91,59.682,90.358c.1-.048.211-.094.316-.143.25-.115-.549.229-.351.148s.39-.153.575-.251a8.618,8.618,0,0,0,1.87-1.394,9.054,9.054,0,0,0,2.162-3.452,17.4,17.4,0,0,0,.807-3.71,2.21,2.21,0,0,0-.2-1.541,2,2,0,0,0-3.656.478A20.784,20.784,0,0,1,60.6,83.6c-.065.221-.141.438-.219.655a1,1,0,0,0-.063.162c0,.008.184-.395.087-.208-.063.123-.116.251-.179.374a6.905,6.905,0,0,1-.4.678c-.041.061-.288.4-.1.151s-.117.126-.175.19c-.184.2-.383.381-.584.561-.276.247.267-.176-.047.04-.145.1-.289.2-.439.293-.37.229-.023.027.111.008a2.447,2.447,0,0,0-.524.22l-.258.115c-.665.3-1.323.614-1.983.924q-.57.269-1.141.535c-.234.109-1.214.528-.237.126a2.2,2.2,0,0,0-1.2.919,2.044,2.044,0,0,0-.2,1.541,2.021,2.021,0,0,0,2.461,1.4Z"/><path class="b" d="M85.623,80.334c.336,2.609.682,5.324,2.338,7.468a8.594,8.594,0,0,0,1.583,1.571,8.29,8.29,0,0,0,1.01.694,4.174,4.174,0,0,0,.639.29c.109.038-.617-.273-.343-.144.662.312,1.329.614,1.991.925s1.339.653,2.022.943a2.2,2.2,0,0,0,1.542.2,2,2,0,0,0,.477-3.656c-.748-.317-1.477-.686-2.212-1.032q-.681-.319-1.364-.637c-.146-.067-.291-.134-.437-.2a5.59,5.59,0,0,0-.573-.243c-.156.031.431.237.2.054a5.136,5.136,0,0,0-.482-.31q-.273-.2.03.033c-.079-.062-.156-.126-.232-.192-.212-.186-.7-.54-.787-.818q.26.341.069.082c-.05-.072-.1-.146-.148-.22q-.141-.217-.264-.447c-.033-.061-.172-.441-.225-.456.117.286.135.329.055.131-.031-.077-.06-.155-.088-.233a12.051,12.051,0,0,1-.486-1.869q-.109-.584-.2-1.171c-.034-.207-.066-.413-.1-.62-.013-.094-.027-.188-.039-.282q.061.462.019.136a2.055,2.055,0,0,0-2-2c-.969.044-2.143.889-2,2Z"/><path class="b" d="M104.846,47.716a2.219,2.219,0,0,1,3.226.531,5.421,5.421,0,0,1,.387,2.4,14.417,14.417,0,0,1-.2,2.89,15.285,15.285,0,0,1-2.046,5.409,7.533,7.533,0,0,1-1.609,1.885,1.473,1.473,0,0,1-1.562.414c-2.49-.665-3.553,3.193-1.064,3.857,3.162.843,5.64-1.189,7.365-3.648a18.44,18.44,0,0,0,2.988-8.313c.338-2.767.328-6.271-1.911-8.283a6.357,6.357,0,0,0-8.4.035,2.014,2.014,0,0,0,0,2.828,2.043,2.043,0,0,0,2.828,0Z"/><path class="b" d="M100.4,60.485a14.136,14.136,0,0,1-.943,4.034c-.085.242-.181.481-.26.725-.107.333.222-.41.039-.1-.157.266-.272.564-.417.837a34.523,34.523,0,0,1-3.157,4.837c-2.832,3.667-6.6,7.478-11.292,8.507-2.513.55-1.45,4.407,1.063,3.857C90.985,81.966,95.436,77.6,98.8,73.243c2.876-3.723,5.386-7.922,5.6-12.758.112-2.574-3.889-2.568-4,0Z"/><path class="b" d="M46.524,44.888a6.36,6.36,0,0,0-8.4-.035c-2.3,2.067-2.247,5.686-1.881,8.512a18.156,18.156,0,0,0,3.129,8.322c1.782,2.443,4.437,4.515,7.614,3.815a2,2,0,0,0-1.063-3.857c-1.344.3-2.782-1.477-3.433-2.458a15.037,15.037,0,0,1-2.176-5.5,14.2,14.2,0,0,1-.238-2.845,5.719,5.719,0,0,1,.39-2.594,2.219,2.219,0,0,1,3.227-.531,2.054,2.054,0,0,0,2.828,0,2.016,2.016,0,0,0,0-2.828Z"/><path class="b" d="M44.168,59.931a33.11,33.11,0,0,0,7.607,15.13c4,4.533,9.348,8.282,15.44,9.149a2.067,2.067,0,0,0,2.46-1.4,2.014,2.014,0,0,0-1.4-2.46c-10.486-1.493-18.22-11.6-20.253-21.485-.518-2.52-4.375-1.453-3.857,1.063Z"/><path class="b" d="M108.551,45.582c1.457-8.957.56-18.445-4.436-26.227A34.64,34.64,0,0,0,83.485,4.683,37.032,37.032,0,0,0,57.9,7.5,34.519,34.519,0,0,0,43.854,21.04a33.315,33.315,0,0,0-3.946,12.477,43.929,43.929,0,0,0,.565,12.067,2.014,2.014,0,0,0,2.46,1.4,2.048,2.048,0,0,0,1.4-2.46c-1.042-6.437-.906-13.112,1.81-19.147A30.385,30.385,0,0,1,57.189,12.55C70.229,4,88.7,6.808,98.7,18.693c6.006,7.138,7.461,16.83,6,25.825a2.061,2.061,0,0,0,1.4,2.46,2.014,2.014,0,0,0,2.46-1.4Z"/><path class="b" d="M88.723,24.412a50.666,50.666,0,0,1-5.374,2.578c-1.458.587-3.429,1.644-5.058,1.5-.6-.056-.468-.009-.658-.558a6.808,6.808,0,0,0-.983-2.159c-1.292-1.613-3.364-1.661-5.238-1.278A31.9,31.9,0,0,0,54.58,34.162a37.1,37.1,0,0,0-5.822,8.73c-1.122,2.306,2.327,4.336,3.453,2.019a30.209,30.209,0,0,1,11.177-12.9,27.836,27.836,0,0,1,9.088-3.663,2.727,2.727,0,0,1,.911-.1c.262.047.137-.006.171.031.175.189.227.765.306,1a6.113,6.113,0,0,0,.5,1.157,4.638,4.638,0,0,0,4.279,2.046,18.392,18.392,0,0,0,5.981-1.717,59.855,59.855,0,0,0,6.119-2.9c2.258-1.236.242-4.692-2.019-3.454Z"/><path class="b" d="M44.1,48.029a5.135,5.135,0,0,0,2.452.63,4.9,4.9,0,0,0,2.033-.318,6.275,6.275,0,0,0,2.213-1.4,7.067,7.067,0,0,0,1.413-2.034,2.156,2.156,0,0,0,.2-1.541,2,2,0,0,0-2.46-1.4,1.955,1.955,0,0,0-1.2.919,6.243,6.243,0,0,1-.7,1.169l.313-.405a4.8,4.8,0,0,1-.788.8l.4-.313a4.065,4.065,0,0,1-.887.519l.478-.2a3.9,3.9,0,0,1-.889.243l.532-.071a3.868,3.868,0,0,1-1.014-.006l.532.071a3.865,3.865,0,0,1-.931-.228l.478.2a1.252,1.252,0,0,1-.172-.095,2,2,0,0,0-2.938,2.258,2.223,2.223,0,0,0,.919,1.2Z"/><path class="b" d="M96.363,44.468a4.474,4.474,0,0,0,2.246,3.912,6.155,6.155,0,0,0,5.832-.351,2.017,2.017,0,0,0,.718-2.737,2.045,2.045,0,0,0-2.737-.717c-.169.089-.34.171-.515.248l.478-.2a5.7,5.7,0,0,1-1.366.394l.532-.071a3.949,3.949,0,0,1-1.036.007l.532.071a3,3,0,0,1-.643-.174l.478.2a2.954,2.954,0,0,1-.62-.361l.4.313a2.413,2.413,0,0,1-.395-.394l.313.405a2.428,2.428,0,0,1-.284-.488l.2.478a2.868,2.868,0,0,1-.178-.662l.071.531c-.017-.134-.027-.268-.031-.4a2.086,2.086,0,0,0-.585-1.414,2,2,0,0,0-3.415,1.414Z"/><path class="b" d="M87.318,29.739c.29.1.023-.01.2.077.137.067.27.141.4.218a8.4,8.4,0,0,1,.91.611,15.1,15.1,0,0,1,1.481,1.365,20.4,20.4,0,0,1,2.766,3.7A24.9,24.9,0,0,1,96.4,44.73a2.017,2.017,0,0,0,2.461,1.4,2.048,2.048,0,0,0,1.4-2.461,27.9,27.9,0,0,0-4.024-10.453c-1.866-2.941-4.427-6.173-7.851-7.331a2,2,0,1,0-1.064,3.857Z"/><path class="a" d="M121.166,159.962l2.123,9.888c.3,1.054.714,3.478.914,4.556.185,1,.519,3.111.963,5.445a3.138,3.138,0,0,0,2.6,2.739c2.208.28,4.763-.764,5.218-2.969a52.652,52.652,0,0,0,6.417,4.437c1.911,1.121,4.052,2.151,6.249,1.866a2.5,2.5,0,0,0,2.436-2.728c.106-3.417-2.776-6.071-5.267-8.412a72.891,72.891,0,0,1-9.236-10.53,38.065,38.065,0,0,1-2.608-5.4L129.755,156l-8.889,2.889Z"/><path class="a" d="M28.932,159.962l-2.124,9.888c-.3,1.054-.714,3.478-.914,4.556-.185,1-.518,3.111-.963,5.445a3.138,3.138,0,0,1-2.6,2.739c-2.207.28-4.762-.764-5.218-2.969a52.652,52.652,0,0,1-6.417,4.437c-1.911,1.121-4.051,2.151-6.248,1.866a2.917,2.917,0,0,1-1.724-.742,2.926,2.926,0,0,1-.713-1.986c-.106-3.417,2.776-6.071,5.267-8.412a72.891,72.891,0,0,0,9.236-10.53,38.08,38.08,0,0,0,2.609-5.4l.69-2.632,9.2,3.2Z"/><path class="a" d="M84.156,241.649c4.6-.021,8.83-.1,14.222-.377q.072,3.432.26,6.859l.146,3.338a9.853,9.853,0,0,1-7.33,1.194,26.354,26.354,0,0,1-8.266-3.8c-.435-2.389-.745-4.793-.975-7.207Q83.2,241.652,84.156,241.649Z"/><path class="a" d="M51.814,251.313a7.5,7.5,0,0,1-.694-.558q.218-4.738.476-9.472c6.145.31,10.8.365,16.244.372q-.465,3.751-.727,7.526a24.743,24.743,0,0,1-7.74,3.482A9.761,9.761,0,0,1,51.814,251.313Z"/><path class="a" d="M94.865,272.678A16.029,16.029,0,0,0,97.838,275a19.506,19.506,0,0,0,12.141,2.492,11.5,11.5,0,0,0,5.159-1.817,6.415,6.415,0,0,0,2.815-4.548c.22-2.609-1.363-5.08-3.218-6.927-4.761-4.738-9.808-9.389-14.013-14.575-2.108,2.9-5.884,3.733-9.268,3.04-3.112-.637-5.884-2.339-8.59-4-2.589-1.592-2.979,5.88-3.04,7.5-.1,2.566-.518,5.954,1.518,7.851a20.512,20.512,0,0,0,6.508,3.54C90.973,268.507,92.585,270.519,94.865,272.678Z"/><path class="a" d="M55.962,272.678A16.029,16.029,0,0,1,52.989,275a19.506,19.506,0,0,1-12.141,2.492,11.5,11.5,0,0,1-5.159-1.817,6.418,6.418,0,0,1-2.815-4.548c-.22-2.609,1.363-5.08,3.218-6.927,4.761-4.738,9.808-9.389,14.013-14.575,2.108,2.9,5.884,3.733,9.268,3.04,3.112-.637,5.884-2.339,8.59-4,2.589-1.592,2.979,5.88,3.04,7.5.1,2.566.518,5.954-1.518,7.851a20.512,20.512,0,0,1-6.508,3.54C59.854,268.507,58.242,270.519,55.962,272.678Z"/><path class="b" d="M50.917,220.493q-1.1,15.1-1.8,30.228c-.119,2.573,3.882,2.567,4,0q.7-15.126,1.8-30.228c.186-2.568-3.814-2.556-4,0Z"/><path class="b" d="M69.085,223.786a153.492,153.492,0,0,0-3.969,25.331c-.186,2.569,3.815,2.557,4,0a146.728,146.728,0,0,1,3.827-24.268c.61-2.5-3.246-3.567-3.858-1.063Z"/><path class="b" d="M79.311,223.512c.341,8.336.422,16.689,1.784,24.942a2.016,2.016,0,0,0,2.46,1.4,2.049,2.049,0,0,0,1.4-2.461c-1.3-7.887-1.315-15.911-1.641-23.878-.105-2.565-4.106-2.579-4,0Z"/><path class="b" d="M96.987,220.915a204.8,204.8,0,0,0-.349,27.216c.137,2.561,4.138,2.577,4,0a204.8,204.8,0,0,1,.349-27.216c.2-2.567-3.8-2.554-4,0Z"/><path class="b" d="M93.451,274.092a20.143,20.143,0,0,0,10.58,5.228c3.914.635,8.533.469,11.94-1.8a8.252,8.252,0,0,0,3.545-9.592c-1.317-3.8-4.686-6.445-7.468-9.173a131.137,131.137,0,0,1-9.912-10.545c-.905-1.108-2.443-.508-3.141.405-2.639,3.45-7.681,2.356-10.979.706-1.037-.519-2.039-1.106-3.031-1.706a6.184,6.184,0,0,0-2.457-1.135,3.368,3.368,0,0,0-3.356,2.14c-1.109,2.285-1.236,5.046-1.348,7.543a19.857,19.857,0,0,0,.27,6.074,8.007,8.007,0,0,0,3.749,4.645,32.314,32.314,0,0,0,6.066,2.8c2.242.875,3.845,2.789,5.542,4.41,1.861,1.779,4.694-1.045,2.828-2.828a36.4,36.4,0,0,0-4.617-4.1c-1.617-1.091-3.5-1.493-5.234-2.32-1.387-.66-3.395-1.5-4.185-2.906-.8-1.426-.532-3.395-.456-4.953.106-2.216.029-4.516.922-6.55-.108.247.189-.262.225-.364-.129.361-.136.08,0,.051-.136.03-.244.223-.406.262-.559.138-1.2-.318-.3.227.5.3.989.606,1.489.9a26.038,26.038,0,0,0,6.369,2.878c4.6,1.234,9.415.1,12.367-3.76l-3.141.405a126.071,126.071,0,0,0,9.418,10.059c1.531,1.5,3.089,2.986,4.595,4.517a8.023,8.023,0,0,1,2.646,4.734c.308,4.11-5.079,5.262-8.157,5.294a16.587,16.587,0,0,1-11.531-4.377C94.4,269.507,91.566,272.33,93.451,274.092Z"/><path class="b" d="M54.548,271.264a16.576,16.576,0,0,1-11.531,4.377c-3.075-.036-8.465-1.182-8.157-5.294a8.022,8.022,0,0,1,2.647-4.734c1.5-1.534,3.063-3.012,4.594-4.517a126.071,126.071,0,0,0,9.418-10.059l-3.141-.405A11.088,11.088,0,0,0,59.2,254.713a20.02,20.02,0,0,0,6.4-2.341c.894-.48,1.766-1,2.633-1.531a3.8,3.8,0,0,0,.739-.454c.2-.332.158.064-.017.006-.5-.165-.527.049-.882-.116-.234-.109-.127-.117-.124-.126.03-.1.194.35.19.341-.018-.04.14.409.187.566a14.292,14.292,0,0,1,.424,2.007c.113.773.2,1.932.243,2.864a19.39,19.39,0,0,1-.036,4.91c-.375,1.738-1.774,2.521-3.24,3.331-1.9,1.051-4.053,1.515-5.924,2.6a29.238,29.238,0,0,0-5.245,4.492c-1.865,1.782.966,4.608,2.828,2.828a23.049,23.049,0,0,1,4.766-4.05c1.785-.954,3.8-1.428,5.594-2.418a10.18,10.18,0,0,0,4.378-3.813,12.1,12.1,0,0,0,.959-6.135,29.711,29.711,0,0,0-.955-7.895,4.507,4.507,0,0,0-2.625-3.214c-1.876-.586-3.647,1.077-5.151,1.93-3.556,2.018-9.413,4.165-12.51.116-.7-.913-2.236-1.513-3.141-.405a118.353,118.353,0,0,1-8.6,9.249c-1.529,1.512-3.073,3.009-4.6,4.52a17.117,17.117,0,0,0-3.6,4.567,8.24,8.24,0,0,0,1.8,10.089c3.013,2.621,7.413,3.287,11.278,2.924a20.719,20.719,0,0,0,12.406-5.465C59.261,272.33,56.428,269.506,54.548,271.264Z"/><path class="g" d="M130.839,143.125c-2.261-6.291-4.494-12.674-6.877-18.542-2.89-7.113-5.841-14.728-10.064-21.14-3.1-4.7-9.026-8.924-15.312-12.06-2.411-1.81-5.078-4.123-7.39-5.618a.826.826,0,0,0-1.217.361c-2.328,5.825-7.628,13.034-13.013,19.424-.872-.634-1.525-1.107-1.525-1.107-8.148-5.481-11.847-9.938-15.342-18.8a.84.84,0,0,0-1.313-.353c-1.966,1.6-5.636,4.582-7.172,6.1,0,0-.089.1-.2.217-6.067,2.614-12.146,6.534-15.151,11.1-4.223,6.411-7.093,14.767-9.983,21.88-3.32,8.172-6.347,17.346-9.563,25.874-.7,1.844-1.4,3.658-2.118,5.426,5.779,3.307,14.768,6.777,21.356,7.746l7.943.184-.313,6.853h-.3c-.4,7.259-.293,15.729-.258,24.074.074,17.555.1,24.444,1.033,42.972a2.782,2.782,0,0,0,.357,1.65c.946,1.42,3.792,1.74,6.2,1.87,9.157.49,14.918.42,24.278.42s15.11.07,24.267-.42c2.393-.13,5.641-.645,6.587-2.065a2.85,2.85,0,0,0,.357-1.65c.458-12.972.509-28.7.445-41.666-.039-7.811,0-14-.223-21.445V163.549l7.334-.291a72.855,72.855,0,0,0,21.979-7.375C133.989,151.811,132.407,147.49,130.839,143.125Z"/><path class="b" d="M17.393,157.843a35.572,35.572,0,0,1-2.874,5.768,60.447,60.447,0,0,1-4.539,5.561c-1.578,1.743-3.261,3.368-4.959,4.99a19.508,19.508,0,0,0-3.887,4.682A7.994,7.994,0,0,0,.255,184.8c.725,2.413,3.176,3.314,5.5,3.149a15.351,15.351,0,0,0,6.736-2.634,58.473,58.473,0,0,0,6.033-4.278l-3.342-.882c1.13,4.386,7.892,6.283,10.712,2.42,1.327-1.818,1.38-4.461,1.75-6.615.319-1.86.6-3.753,1.093-5.576.673-2.488-3.185-3.55-3.858-1.064-.761,2.817-1.105,5.767-1.623,8.635-.2,1.113-.16,2.628-1.566,2.681a2.453,2.453,0,0,1-2.651-1.545,2.028,2.028,0,0,0-3.343-.882,50.213,50.213,0,0,1-4.833,3.411c-1.544.961-3.258,2.105-5.108,2.329-.67.081-1.555.2-1.736-.562a3.477,3.477,0,0,1,.253-1.827,11.188,11.188,0,0,1,2.875-3.886,113.319,113.319,0,0,0,7.879-8.241,39.562,39.562,0,0,0,3.576-4.754,52.628,52.628,0,0,0,2.245-4.815,2.057,2.057,0,0,0-.718-2.736,2.016,2.016,0,0,0-2.736.717Z"/><path class="b" d="M129.251,159.862c.717,1.539,1.277,3.147,2.129,4.622a37.154,37.154,0,0,0,3.548,4.773,111.836,111.836,0,0,0,8.022,8.415,11.462,11.462,0,0,1,2.842,3.785,3.661,3.661,0,0,1,.286,1.928c-.169.708-.865.623-1.518.574-1.865-.14-3.581-1.265-5.13-2.221a50.124,50.124,0,0,1-5.029-3.531,2.027,2.027,0,0,0-3.342.882,2.459,2.459,0,0,1-2.652,1.545c-1.405-.053-1.366-1.575-1.565-2.681-.518-2.868-.862-5.819-1.624-8.635-.671-2.482-4.531-1.428-3.857,1.064.48,1.775.755,3.618,1.067,5.429.379,2.2.423,4.907,1.775,6.762,2.819,3.866,9.583,1.964,10.713-2.42l-3.343.882a58.378,58.378,0,0,0,6.034,4.278,15.346,15.346,0,0,0,6.736,2.634c2.324.165,4.774-.736,5.5-3.149a8,8,0,0,0-.879-5.954,19.531,19.531,0,0,0-3.887-4.682c-1.7-1.622-3.382-3.247-4.959-4.99a60.447,60.447,0,0,1-4.539-5.561,35.41,35.41,0,0,1-2.874-5.768,2.016,2.016,0,0,0-2.737-.717,2.045,2.045,0,0,0-.717,2.736Z"/><path class="b" d="M93.225,97.169a97.432,97.432,0,0,1-17.42,23.786c-1.816,1.828,1.011,4.658,2.828,2.829a101.047,101.047,0,0,0,18.046-24.6c1.18-2.283-2.27-4.309-3.454-2.019Z"/><path class="b" d="M53.579,98.543A48.466,48.466,0,0,0,59.368,109.4a2.046,2.046,0,0,0,2.736.718,2.022,2.022,0,0,0,.718-2.736,46.734,46.734,0,0,1-3.084-4.926q-.669-1.239-1.262-2.515-.316-.681-.61-1.371c.155.365-.13-.325-.156-.39q-.14-.348-.273-.7a2.047,2.047,0,0,0-2.461-1.4,2.022,2.022,0,0,0-1.4,2.46Z"/><path class="b" d="M36.973,161.4a63.457,63.457,0,0,1-21.36-7.248l.919,2.258c4.539-11.21,8.31-22.718,12.748-33.97a131.9,131.9,0,0,1,6.811-15.562,24.709,24.709,0,0,1,4.516-6.193,34.024,34.024,0,0,1,6.745-4.841c1.393-.788,2.825-1.509,4.285-2.166A10.235,10.235,0,0,0,54.222,91.7c.96-.855,1.945-1.681,2.934-2.5q.818-.678,1.639-1.35l.5-.412.471-.383q.549-.415-.241.076l-1.009-.273-.207-.321c.071.178.143.355.216.533q.207.5.419,1c.214.505.432,1.008.659,1.507.449.987.929,1.96,1.45,2.91a34.56,34.56,0,0,0,3.456,5.121,44.566,44.566,0,0,0,9.918,8.565c2.138,1.446,4.142-2.018,2.019-3.454-5.273-3.564-9.662-7.7-12.562-13.434-.776-1.534-1.27-3.3-2.133-4.771a2.841,2.841,0,0,0-2.352-1.4,3.669,3.669,0,0,0-2.462,1.109c-1.252,1.02-2.5,2.042-3.736,3.083a32.877,32.877,0,0,1-3.128,2.742c-.717.454-1.655.729-2.428,1.115q-1.467.732-2.884,1.559a42.2,42.2,0,0,0-5.157,3.547,28.273,28.273,0,0,0-7.073,8.779c-3.9,7.13-6.656,14.964-9.574,22.532-3.551,9.212-6.581,18.619-10.287,27.772a2.005,2.005,0,0,0,.919,2.259,66.477,66.477,0,0,0,22.316,7.651,2.066,2.066,0,0,0,2.46-1.4,2.014,2.014,0,0,0-1.4-2.46Z"/><path class="b" d="M108.182,165.851a83.625,83.625,0,0,0,15.1-3.093,62.4,62.4,0,0,0,13.376-5.148,2.015,2.015,0,0,0,.919-2.259c-4.426-10.932-7.993-22.187-12.42-33.121a147.363,147.363,0,0,0-7.051-15.664A38.761,38.761,0,0,0,113.784,100a35.061,35.061,0,0,0-6.009-5.41,54.377,54.377,0,0,0-7.006-4.337c-2.413-1.266-4.425-3.21-6.605-4.84-.986-.737-2.088-1.76-3.385-1.775A3.022,3.022,0,0,0,87.97,85.8a41.409,41.409,0,0,1-2.253,4.4c-3.919,6.722-8.99,12.776-14.174,18.549q-3.627,4.038-7.456,7.89c-.827.83-1.661,1.653-2.515,2.454-.254.239-.515.47-.771.707a2.626,2.626,0,0,0-.227.193,1.775,1.775,0,0,1,1.22-.452l1.009.273,0,0,.991,1.727q-.535,1.418-.251.961c1.377-2.184-2.083-4.193-3.454-2.019a2.026,2.026,0,0,0,2.8,2.739,9.766,9.766,0,0,0,1.512-1.3c1.832-1.72,3.591-3.521,5.328-5.336A169.316,169.316,0,0,0,85.47,97.887c1.31-1.841,2.563-3.725,3.7-5.677.5-.852.972-1.717,1.414-2.6s.786-1.953,1.279-2.723l-.717.717c-.568.413-.882-.076-.159.428.277.192.551.39.823.59.434.319.861.646,1.286.978,1.142.891,2.266,1.8,3.411,2.691,2.179,1.688,4.83,2.773,7.144,4.293a36.814,36.814,0,0,1,5.879,4.707,27.675,27.675,0,0,1,4.25,5.76,117.806,117.806,0,0,1,7.1,15.222q3.193,7.87,6.049,15.859c2.2,6.117,4.344,12.255,6.784,18.281l.919-2.258a57.76,57.76,0,0,1-12.42,4.744,77.826,77.826,0,0,1-14.032,2.951,2.055,2.055,0,0,0-2,2,2.015,2.015,0,0,0,2,2Z"/><path class="h" d="M105.352,133.786l-1.466-.306c-7.826-1.629-51.307-.033-58.815.075l-2.09.029c-.54,7.546-.508,32.885.09,35.045,10.806.065,44.97-.377,62.815-.7.874-2.359.59-24.658.207-33.985Z"/><path class="b" d="M41.254,131.208a29.9,29.9,0,0,0-.42,5.081c-.113,2.856-.163,5.714-.2,8.572-.074,6.221-.085,12.45.1,18.67a26.11,26.11,0,0,0,.408,5.629c.644,2.49,4.5,1.435,3.857-1.063-.156-.6-.008.3-.029-.089-.017-.311-.059-.622-.08-.934-.067-.957-.1-1.916-.135-2.875-.091-2.737-.124-5.476-.144-8.214-.044-6.168-.025-12.342.179-18.507.039-1.179.084-2.359.16-3.536.028-.435.067-.869.1-1.3.03-.362.054-.385-.006-.011.019-.119.037-.238.063-.357.543-2.509-3.313-3.582-3.857-1.063Z"/><path class="b" d="M103.886,130.295c.48,4.465.4,9.041.479,13.525.11,6.181.186,12.373-.006,18.553-.036,1.158-.079,2.318-.171,3.473-.018.237-.043.474-.063.71-.032.358-.08.468-.007.1a5.254,5.254,0,0,1-.161.732c-.849,2.436,3.014,3.483,3.857,1.064a17.437,17.437,0,0,0,.5-4.817c.117-2.792.139-5.589.146-8.384q.026-9.5-.278-18.992c-.064-1.985-.084-3.992-.3-5.969a2.059,2.059,0,0,0-2-2,2.013,2.013,0,0,0-2,2Z"/><path class="b" d="M104.33,174.406c.392,13.4.305,26.833.212,40.236-.046,6.656-.14,13.312-.339,19.965-.025.833-.056,1.667-.081,2.5a2.694,2.694,0,0,1-.1,1.011c-.581.741-2.487.876-3.307.983a89.583,89.583,0,0,1-9.021.437c-6.393.175-12.79.11-19.184.115-6.222,0-12.442,0-18.66-.265-1.568-.067-3.147-.107-4.709-.264-.742-.075-2.52-.135-2.979-.777-.253-.353-.125-1.185-.146-1.617q-.059-1.18-.116-2.361-.124-2.595-.237-5.19-.342-7.992-.488-15.99c-.107-6.474-.117-12.949-.147-19.423-.038-7.921-.162-15.856.3-23.767.151-2.572-3.85-2.563-4,0-.433,7.425-.346,14.871-.308,22.3.033,6.288.04,12.576.125,18.863q.111,8.208.451,16.411c.143,3.487.229,6.992.473,10.473.246,3.513,3.245,4.6,6.329,4.989,3.2.4,6.473.411,9.692.5s6.412.112,9.619.117c6.794.009,13.592.058,20.386-.042q5.061-.075,10.116-.332c2.652-.134,5.8-.247,8.04-1.855a4.589,4.589,0,0,0,1.855-3.909c.066-1.678.11-3.357.155-5.036q.139-5.3.206-10.6c.212-15.81.323-31.67-.139-47.476-.075-2.568-4.075-2.579-4,0Z"/><path class="b" d="M45.071,135.555c6.967-.1,13.933-.369,20.9-.525,9.374-.21,18.762-.409,28.138-.211,1.932.041,3.866.1,5.8.221.745.048,1.491.1,2.234.184.152.017.3.036.456.052.352.039-.441-.075,0,0,.253.043.506.081.758.132,2.513.51,3.588-3.344,1.064-3.857a50.5,50.5,0,0,0-8.519-.688c-4.331-.129-8.665-.128-13-.1-9.446.062-18.89.3-28.332.55-3.166.085-6.332.193-9.5.24-2.572.038-2.579,4.038,0,4Z"/><path class="b" d="M43.071,170.629c16.4.094,32.8-.233,49.2-.48q6.809-.1,13.617-.224c2.571-.047,2.579-4.047,0-4q-26.4.481-52.8.68c-3.337.022-6.675.043-10.012.024-2.574-.015-2.577,3.985,0,4Z"/><path class="b" d="M69.176,69.186a8.55,8.55,0,0,0,5.951,1.973,8.565,8.565,0,0,0,5.952-1.973,2,2,0,1,0-2.829-2.828c-.076.075-.37.31-.041.055s-.04.019-.137.078c-.118.073-.239.139-.362.2-.081.041-.174.073-.252.119.1-.059.465-.178.15-.07a8.44,8.44,0,0,1-1.206.33c-.152.029-.49.172-.019.014a1.705,1.705,0,0,1-.371.038c-.294.024-.59.036-.885.036-.271,0-.542-.009-.811-.03a2.729,2.729,0,0,0-.447-.044c.192-.023.352.053.047,0a7.356,7.356,0,0,1-1.222-.323c-.161-.059-.42-.229.1.051-.068-.037-.141-.065-.211-.1-.137-.067-.271-.14-.4-.221-.1-.061-.191-.136-.29-.2.577.35.276.223.113.063a2,2,0,0,0-2.828,2.828Z"/><path class="b" d="M74.144,56.642a26.354,26.354,0,0,1,.619,2.831l-.072-.532a1.706,1.706,0,0,1,.011.391l.072-.532a1.051,1.051,0,0,1-.043.176l.2-.478a.688.688,0,0,1-.062.113l.313-.4a.616.616,0,0,1-.093.091l.405-.313a1.844,1.844,0,0,1-.224.119l.478-.2a1.67,1.67,0,0,1-.378.11l.532-.071a1.505,1.505,0,0,1-.355,0l.531.072c-.133-.019-.265-.052-.4-.07a1.515,1.515,0,0,0-.8-.035,1.486,1.486,0,0,0-.743.237,2,2,0,0,0-.718,2.736,1.917,1.917,0,0,0,1.2.92c.353.047.7.135,1.056.151a3.462,3.462,0,0,0,1.617-.394,2.449,2.449,0,0,0,1.324-1.6,3.788,3.788,0,0,0-.013-1.665c-.154-.912-.365-1.816-.6-2.71a2,2,0,0,0-2.46-1.4,2.017,2.017,0,0,0-1.195.919,2.1,2.1,0,0,0-.2,1.541Z"/><path class="b" d="M59.874,49.056c-.462,1.5-.161,4.957,2.684,5.251,3.761-.023,3.961-4.2,2.7-6.163C64.217,46.536,61.169,45.867,59.874,49.056Z"/><path class="b" d="M89.864,49.056c.463,1.5.161,4.957-2.684,5.251-3.76-.023-3.961-4.2-2.7-6.163C85.522,46.536,88.569,45.867,89.864,49.056Z"/></svg>