<?xml version="1.0" encoding="utf-8"?>
<!-- Uploaded to: SVG Repo, www.svgrepo.com, Generator: SVG Repo Mixer Tools -->
<svg width="800px" height="800px" viewBox="0 -7.34 436.913 436.913" xmlns="http://www.w3.org/2000/svg"><defs><style>.a{fill:#ffffff;}.b{fill:#7a7473;}.c{fill:#211715;}.d{fill:#79c6e0;}.e{fill:#ffda71;}</style></defs><path class="a" d="M296.107,285.4c-2.181,3.375-3.988,5.458-4.935,7.382a9.942,9.942,0,0,0-1.052,5.259,33.369,33.369,0,0,0,.487,4.341c.32,1.824-.07,4.163-2.032,5.048-2.741,1.237-4.358,1.286-5.928-.318-2.5-2.887-2.832-6.2-3.161-10.337.19-6.9,3.7-10.138,6.617-14.664a6.265,6.265,0,0,0-2.967-9.137c-3.049-1.364-7.071.127-8.751,2.5-1.55,1.96-2.226,2.97-3.173,8.49a4.872,4.872,0,0,1-2.1,2.983c-3.414,2.3-6.006-.294-6.858-1.846-2.466-3.929-1.588-8.177.654-12.905,4.11-8.668,17.422-14.333,26.6-9.036C296.917,267.437,301.545,276.986,296.107,285.4Z"/><path class="a" d="M297.726,319.827a5.465,5.465,0,0,1-4.209,5.024,5.344,5.344,0,0,1-3.963-.949A5.688,5.688,0,0,1,287,319.437a5.414,5.414,0,0,1,4.83-5.107A5.6,5.6,0,0,1,297.726,319.827Z"/><path class="a" d="M318.983,318.018c.457-8.566,2.16-13.367,5.4-19.883,1.468-2.951,10.068-16.218,28.8-22.756a64.263,64.263,0,0,1,29.112-3.507c10.248,1.272,26.872,5,41.613,26.679A63.755,63.755,0,0,1,434.534,331.1c.61,21.716-10.071,37.331-17.412,45.338-4.764,5.195-13.486,12.22-14.163,19.333a43.474,43.474,0,0,0,1.213,9.169c1.324,4-2.3,4.823-4.619,5.577a84.268,84.268,0,0,1-8.612,2.255c-11.75,2.444-21.807,4.611-33.556,7.055-1.241.259-3.722.167-3.713-3.237.2-7.05-3.26-16.045-3.341-16.252a2.734,2.734,0,0,0-3.231-1.611c-5.517,1.494-14.04.684-20.268-1.593-3.177-1.161-6.246-3.429-8.649-7.974a33.138,33.138,0,0,1-2.682-7.947,78.1,78.1,0,0,1-1.674-11.853,12.6,12.6,0,0,0-2.862-5.337c-2.187-2.358-5.715-4.194-3.915-8.289a7.669,7.669,0,0,1,3.492-3.51c7.524-4.077,7.83-15.489,8.073-23.715a61.13,61.13,0,0,1,.756-13.329"/><path class="b" d="M352.434,275.646c-18.212,6.627-26.6,19.577-28.05,22.489-2.949,5.929-4.625,10.439-5.247,17.658,3.835-2.4,9.666-3.315,15.33-2.437,12.631,2.3,23.343,10.407,30.305,17.584,3.876,4.328,4.792,7.412,8.394,13.922,1.7-2.115,3.363-3.792,6.108-4.479a7.834,7.834,0,0,1,6.63,1.029c2.7,1.972,3.942,6.1,3.772,9.489a19.948,19.948,0,0,1-5.319,13.21c.154.448.244.707.244.707,2.608,7.492,12.8,19.387,21.171,24.089,3.128-4.633,8.138-8.967,11.35-12.469,7.341-8.007,18.022-23.622,17.412-45.338a63.755,63.755,0,0,0-10.624-32.549c-14.741-21.675-31.365-25.407-41.613-26.679a64.263,64.263,0,0,0-29.112,3.507Q352.807,275.511,352.434,275.646Z"/><path class="c" d="M294.034,284.19c-1.556,2.389-3.494,4.619-4.816,7.151a15.069,15.069,0,0,0-1.306,9.056,18.387,18.387,0,0,1,.4,3.476c-.131,1.208-.775,1.49-1.9,1.841-.932.291-1.247.406-1.839-.069a6.884,6.884,0,0,1-1.867-3.345,17.054,17.054,0,0,1-.465-8.481,20.017,20.017,0,0,1,3.455-6.93c1.621-2.312,3.523-4.508,3.764-7.441a8.8,8.8,0,0,0-3.267-7.4,9.3,9.3,0,0,0-8.425-1.586,11.4,11.4,0,0,0-6.076,4.6,14.5,14.5,0,0,0-2.256,5.452c-.26,1.151-.241,2.633-.869,3.639a2.513,2.513,0,0,1-2.646,1.221,2.9,2.9,0,0,1-1.5-1.3,7.592,7.592,0,0,1-1.261-3.929,15.867,15.867,0,0,1,2.684-8.325,18.972,18.972,0,0,1,11.629-7.832,14.834,14.834,0,0,1,14.719,4.375c4.125,4.436,5.1,10.629,1.83,15.829-1.648,2.623,2.5,5.035,4.145,2.423a17.168,17.168,0,0,0-.07-18.378,19.886,19.886,0,0,0-15.079-9.462,24.065,24.065,0,0,0-16.592,5.4,20.073,20.073,0,0,0-5.333,6.272c-1.676,3.191-3.069,7.02-2.666,10.678.343,3.122,1.811,6.4,4.55,8.127,3.2,2.017,7.309.7,9.425-2.236,1.026-1.423,1.192-3.033,1.543-4.7.134-.633.279-1.263.456-1.885.072-.253.148-.5.233-.753.043-.13.3-.78.124-.378a10.732,10.732,0,0,1,1.308-2.127c-.313.415.3-.391.38-.487a5.6,5.6,0,0,1,.444-.439,5.509,5.509,0,0,1,1.465-.923c2.229-.961,4.951-.381,5.993,1.973,1.122,2.533-1.049,4.7-2.424,6.636a26.244,26.244,0,0,0-4.084,7.728,21.814,21.814,0,0,0-.115,10.5c.6,2.988,2.137,6.577,5.028,7.988s7.278.119,9.12-2.464c1.955-2.74.89-5.926.678-8.979a9.039,9.039,0,0,1,.606-4.544,19.743,19.743,0,0,1,1.98-3.166c1.027-1.448,2.061-2.888,3.03-4.376C299.87,284.017,295.716,281.609,294.034,284.19Z"/><path class="c" d="M295.326,319.827l-.012.165q-.043.4.021-.153c.009,0-.075.353-.085.392-.032.127-.069.254-.11.379l-.052.148c-.075.193-.074.194,0,0l.06-.145c-.043.093-.088.185-.136.275-.072.134-.149.266-.231.394a2.2,2.2,0,0,0-.17.249q.339-.427.1-.133c-.048.057-.1.112-.148.166-.12.13-.544.4-.59.553.015-.051.479-.323.137-.116-.123.075-.241.157-.366.228-.083.047-.17.087-.252.135-.436.253.534-.168.055-.019a2.3,2.3,0,0,1-.854.224c.446.071.276-.024.1-.034s-.344-.007-.514-.013c-.48-.016.153-.01.154.022,0,0-.419-.1-.451-.105-.117-.033-.231-.072-.347-.11-.21-.07-.375-.246.136.068-.188-.116-.4-.2-.6-.307-.168-.1-.327-.21-.49-.316-.388-.253.41.339.22.174-.124-.107-.253-.209-.374-.321s-.243-.233-.358-.356c-.077-.082-.148-.168-.223-.251-.243-.266.143.19.153.207-.113-.2-.269-.381-.385-.582-.056-.1-.1-.2-.158-.293-.23-.408.156.491.024.066-.079-.256-.146-.508-.206-.769-.074-.321.011.627.023.106,0-.131-.007-.262,0-.393a1.759,1.759,0,0,0,.027-.372l-.043.343c.018-.1.038-.194.062-.29s.05-.192.079-.287.061-.188.1-.281c-.151.342-.174.4-.067.162.117-.22.229-.441.367-.65.053-.081.127-.163.171-.246-.276.516-.138.18.007.022.065-.071.552-.5.544-.52.025.072-.427.294-.127.1.169-.11.333-.223.51-.321.088-.048.18-.09.268-.138.46-.251-.52.151-.015.012a4.664,4.664,0,0,0,.732-.192c-.079.119-.572.052-.115.02.114-.007.228-.012.343-.011.138,0,.275.013.412.019.45.021-.559-.128-.091-.007.272.07.535.142.8.227.459.145-.386-.224-.12-.053.136.087.3.146.438.228.082.047.163.1.242.147s.158.1.236.159c.2.149.154.111-.147-.116.062.181.487.446.619.592a1.315,1.315,0,0,0,.186.218q-.338-.448-.115-.142c.054.079.107.159.158.24s.1.165.146.249.091.17.133.257q.159.348-.069-.173c-.04.16.192.6.23.775.082.388-.113.118,0-.12a2.448,2.448,0,1,0,4.829.613,8.1,8.1,0,0,0-5.487-7.5,7.658,7.658,0,0,0-8.735,3.056,7.032,7.032,0,0,0-1.281,4.607,7.9,7.9,0,0,0,1.972,4.472,8.323,8.323,0,0,0,5.941,2.877,7.39,7.39,0,0,0,5.217-2.165,8.165,8.165,0,0,0,2.373-5.344,2.412,2.412,0,0,0-2.4-2.4A2.458,2.458,0,0,0,295.326,319.827Z"/><path class="c" d="M382.287,365.456c1.814,5.093,5.146,9.6,8.63,13.674a55.021,55.021,0,0,0,13.014,11.484c2.65,1.6,5.065-2.547,2.422-4.145a50.768,50.768,0,0,1-11.805-10.458,55.6,55.6,0,0,1-4.664-6.172,29.44,29.44,0,0,1-2.968-5.659,2.463,2.463,0,0,0-2.953-1.677,2.422,2.422,0,0,0-1.676,2.953Z"/><path class="c" d="M333.829,315.67a49.639,49.639,0,0,1,18.858,8.132c4.786,3.277,9.807,7.287,12.971,12.215,1.93,3.006,3.392,6.3,5.094,9.435,1.475,2.715,5.621.3,4.145-2.423-1.577-2.9-2.955-5.929-4.671-8.755a35.248,35.248,0,0,0-6.059-7.3A66.926,66.926,0,0,0,347.3,315.121a49.307,49.307,0,0,0-12.189-4.079,2.465,2.465,0,0,0-2.953,1.676,2.422,2.422,0,0,0,1.676,2.952Z"/><path class="c" d="M375.918,345.314a7.834,7.834,0,0,1,4.852-2.794,5.026,5.026,0,0,1,4.667,1.741c2.123,2.646,2.115,6.452,1.487,9.611-1.332,6.7-6.1,11.289-12.278,13.844a2.478,2.478,0,0,0-1.676,2.952,2.415,2.415,0,0,0,2.952,1.677c6.539-2.7,12.05-7.02,14.65-13.779,2.456-6.388,2.5-16.707-4.825-19.995-4.679-2.1-9.894-.253-13.224,3.349-2.094,2.266,1.292,5.669,3.395,3.394Z"/><path class="c" d="M329.15,306.384a28.3,28.3,0,0,0-14.387,11.294,2.42,2.42,0,0,0,.861,3.284,2.455,2.455,0,0,0,3.284-.861q.278-.43.571-.85.147-.208.3-.415c.057-.078.351-.464.057-.085.418-.539.862-1.059,1.324-1.56a29.761,29.761,0,0,1,2.922-2.714c.291-.242-.444.326.082-.062.109-.081.219-.163.329-.243q.416-.3.841-.584.852-.565,1.748-1.064t1.828-.919l.374-.166c-.45.2-.006,0,.089-.033.348-.139.7-.269,1.054-.393a2.4,2.4,0,1,0-1.276-4.629Z"/><path class="c" d="M327.188,340.231c-.933,2.37-.981,8.006,3.351,8.868,5.786.472,6.712-6.265,5.056-9.618C334.239,336.737,329.651,335.241,327.188,340.231Z"/><path class="c" d="M321.383,318.018a44.1,44.1,0,0,1,5.4-19.286c.328-.583.686-1.15,1.058-1.707q.35-.524.717-1.036c.126-.176.254-.35.383-.524.069-.093.6-.782.286-.384a50.789,50.789,0,0,1,5.087-5.576c11.691-11.087,28.709-16.577,44.684-15.544q1.653.106,3.3.311.381.046.761.1c-.531-.071.15.022.345.05q1.575.229,3.139.531a54.428,54.428,0,0,1,7.267,1.929,49.581,49.581,0,0,1,15.738,9.022c12.978,10.991,21.861,27.4,22.563,44.531a62.022,62.022,0,0,1-13.212,40.2c-3.945,5.084-9.232,9.4-13.311,14.519-2.334,2.93-4.453,6.191-4.95,9.982a16.719,16.719,0,0,0,.159,4.278c.237,1.875.517,3.751.93,5.6a5.858,5.858,0,0,1,.315,1.811c.028-.333-.055.058-.078.1.169-.348-.053.024-.081.053.345-.342-.518.351-.157.1a4.089,4.089,0,0,1-1.336.644c-.7.245-1.409.46-2.116.682-4.468,1.4-9.066,2.275-13.642,3.236-9.29,1.949-18.631,3.755-27.884,5.87-.392.09.109-.012.165-.015-.119.006-.235.019-.354.018s-.248,0-.372-.014c.027,0,.439.015.162.008-.07,0-.477-.063-.18-.041.212.016.027-.016-.073-.064.114.055.1.065.093.029-.275-1.754-.166-3.591-.4-5.374a55.962,55.962,0,0,0-2.415-10.3c-.224-.68-.451-1.363-.714-2.029a5.251,5.251,0,0,0-4.569-3.487c-1.686-.1-3.441.621-5.138.748a36.552,36.552,0,0,1-6.127-.089c-3.552-.331-7.595-1.036-10.725-2.714a15.088,15.088,0,0,1-6.679-8.088,54.744,54.744,0,0,1-2.9-13.346,21.106,21.106,0,0,0-.962-5.761,15.03,15.03,0,0,0-3.516-5.305,14.824,14.824,0,0,1-2.839-2.967,1.766,1.766,0,0,1-.211-1.285,3.91,3.91,0,0,1,1.2-2.041c1.244-1.209,2.953-1.862,4.251-3.051a15.09,15.09,0,0,0,2.917-3.77c3.262-5.868,3.565-13.208,3.648-19.772a82.471,82.471,0,0,1,.679-12.99,2.471,2.471,0,0,0-1.677-2.952,2.42,2.42,0,0,0-2.952,1.676,63.823,63.823,0,0,0-.811,6.989c-.142,2.432-.009,4.847-.039,7.277a67.209,67.209,0,0,1-.728,10.053c-.5,3.057-1.322,6.33-3.226,8.807a11.659,11.659,0,0,1-3.43,2.78,9.816,9.816,0,0,0-4.3,5.191c-1.34,3.953,1.25,6.736,3.9,9.242a9.625,9.625,0,0,1,2.973,4.727c.4,1.854.394,3.945.656,5.856,1.166,8.51,3.449,18.6,11.76,22.946A34.66,34.66,0,0,0,335.8,401.6a38.254,38.254,0,0,0,6.393.243,45.65,45.65,0,0,0,5.566-.811c.131-.022.225.138.332.165s-.157-.336-.039-.121a6.207,6.207,0,0,1,.324.892q.683,1.943,1.237,3.927a53.634,53.634,0,0,1,1.283,5.658c.321,1.925.224,3.838.412,5.764.371,3.805,3.437,5.46,6.952,4.773,4.852-.947,9.683-2.028,14.52-3.051s9.678-2.048,14.52-3.062a134.016,134.016,0,0,0,13.547-3.357c3.1-1,6.234-2.762,5.98-6.514-.126-1.849-.781-3.72-1.069-5.559a22.1,22.1,0,0,1-.418-4.514c.17-3.2,2.6-6.306,4.61-8.66,2.57-3.007,5.491-5.677,8.212-8.541A67.863,67.863,0,0,0,436.3,341.946a63.043,63.043,0,0,0-2.4-28.06,69.621,69.621,0,0,0-13.344-23.7c-8.674-10.266-20.21-17.586-33.5-20-16.563-3.011-34.6.4-48.609,9.9a56.379,56.379,0,0,0-13.3,12.5,43.047,43.047,0,0,0-6.573,13.26,50.28,50.28,0,0,0-1.993,12.184c-.174,3.087,4.627,3.077,4.8,0Z"/><path class="c" d="M316.432,374.9q.415-.069.833-.126l-.638.085a16.817,16.817,0,0,1,4.241-.065l-.638-.086a10,10,0,0,1,2.477.645l-.573-.242c.076.032.152.066.228.1a2.6,2.6,0,0,0,1.849.242,2.4,2.4,0,0,0,1.677-2.952,2.336,2.336,0,0,0-1.1-1.434,13.379,13.379,0,0,0-4.848-1.159,21.606,21.606,0,0,0-4.781.364,2.408,2.408,0,0,0-1.434,1.1,2.453,2.453,0,0,0-.242,1.849,2.426,2.426,0,0,0,1.1,1.434,2.734,2.734,0,0,0,1.849.242Z"/><path class="a" d="M82.328,318.018c.457-8.566,2.16-13.367,5.4-19.883,1.468-2.951,10.068-16.218,28.8-22.756a64.257,64.257,0,0,1,29.111-3.507c10.248,1.272,26.873,5,41.613,26.679A63.755,63.755,0,0,1,197.879,331.1c.61,21.716-10.071,37.331-17.412,45.338-4.764,5.195-13.486,12.22-14.162,19.333a43.464,43.464,0,0,0,1.212,9.169c1.324,4-2.3,4.823-4.618,5.577a84.285,84.285,0,0,1-8.613,2.255c-11.749,2.444-21.807,4.611-33.556,7.055-1.241.259-3.722.167-3.713-3.237.2-7.05-3.26-16.045-3.341-16.252a2.734,2.734,0,0,0-3.231-1.611c-5.517,1.494-14.04.684-20.268-1.593-3.177-1.161-6.246-3.429-8.649-7.974a33.138,33.138,0,0,1-2.682-7.947,78.1,78.1,0,0,1-1.674-11.853,12.6,12.6,0,0,0-2.862-5.337c-2.187-2.358-5.715-4.194-3.915-8.289a7.669,7.669,0,0,1,3.492-3.51c7.524-4.077,7.83-15.489,8.073-23.715a61.13,61.13,0,0,1,.756-13.329"/><path class="a" d="M53.785,299.027c-1.511-5.882-9.566-27.931-13.955-36.448-1.217-2.361-1.968-2.987-3.684-3.021s-4.914,1.466-6.252,2.245a3.006,3.006,0,0,0-1.51,2.282,11.963,11.963,0,0,0,.849,3.362c2.9,7.432,6.855,16.462,10.046,24.057,1.6,3.809,4.385,10.067,5.857,11.829a3.014,3.014,0,0,0,2.608,1.088,10.356,10.356,0,0,0,4.979-2.069A3.268,3.268,0,0,0,53.785,299.027Z"/><path class="a" d="M59.252,312.608a5.762,5.762,0,0,1,2.44,6.466,5.627,5.627,0,0,1-2.922,3.151,5.992,5.992,0,0,1-5.424.041,5.708,5.708,0,0,1-2.195-7.08A5.909,5.909,0,0,1,59.252,312.608Z"/><path class="b" d="M115.779,275.646c-18.212,6.627-26.6,19.577-28.05,22.489-2.949,5.929-4.625,10.439-5.247,17.658,3.835-2.4,9.666-3.315,15.331-2.437,12.63,2.3,23.342,10.407,30.3,17.584,3.876,4.328,4.792,7.412,8.394,13.922,1.7-2.115,3.363-3.792,6.108-4.479a7.833,7.833,0,0,1,6.63,1.029c2.7,1.972,3.942,6.1,3.772,9.489a19.948,19.948,0,0,1-5.319,13.21c.155.448.244.707.244.707,2.608,7.492,12.8,19.387,21.171,24.089,3.128-4.633,8.138-8.967,11.35-12.469,7.341-8.007,18.022-23.622,17.412-45.338a63.755,63.755,0,0,0-10.624-32.549c-14.74-21.675-31.365-25.407-41.613-26.679a64.257,64.257,0,0,0-29.111,3.507C116.278,275.467,116.028,275.556,115.779,275.646Z"/><path class="c" d="M145.632,365.456c1.814,5.093,5.146,9.6,8.63,13.674a55.021,55.021,0,0,0,13.014,11.484c2.65,1.6,5.065-2.547,2.422-4.145a50.768,50.768,0,0,1-11.805-10.458,55.852,55.852,0,0,1-4.664-6.172,29.44,29.44,0,0,1-2.968-5.659,2.463,2.463,0,0,0-2.953-1.677,2.422,2.422,0,0,0-1.676,2.953Z"/><path class="c" d="M97.175,315.67a49.641,49.641,0,0,1,18.857,8.132c4.786,3.277,9.807,7.287,12.971,12.215,1.93,3.006,3.392,6.3,5.094,9.435,1.475,2.715,5.621.3,4.145-2.423-1.577-2.9-2.955-5.929-4.671-8.755a35.274,35.274,0,0,0-6.058-7.3,66.949,66.949,0,0,0-16.873-11.852,49.307,49.307,0,0,0-12.189-4.079,2.465,2.465,0,0,0-2.953,1.676,2.422,2.422,0,0,0,1.677,2.952Z"/><path class="c" d="M139.263,345.314a7.834,7.834,0,0,1,4.852-2.794,5.026,5.026,0,0,1,4.667,1.741c2.123,2.646,2.115,6.452,1.487,9.611-1.332,6.7-6.1,11.289-12.278,13.844a2.478,2.478,0,0,0-1.676,2.952,2.415,2.415,0,0,0,2.952,1.677c6.54-2.7,12.05-7.02,14.65-13.779,2.457-6.388,2.5-16.707-4.824-19.995-4.68-2.1-9.895-.253-13.224,3.349-2.095,2.266,1.292,5.669,3.394,3.394Z"/><path class="c" d="M92.5,306.384a28.3,28.3,0,0,0-14.387,11.294,2.42,2.42,0,0,0,.861,3.284,2.455,2.455,0,0,0,3.284-.861c.186-.287.375-.57.571-.85q.147-.208.3-.415c.058-.078.351-.464.057-.085.418-.539.862-1.059,1.324-1.56a29.761,29.761,0,0,1,2.922-2.714c.291-.242-.444.326.082-.062.109-.081.219-.163.329-.243q.415-.3.841-.584.852-.565,1.748-1.064t1.828-.919l.374-.166c-.45.2-.006,0,.089-.033.348-.139.7-.269,1.054-.393a2.4,2.4,0,1,0-1.276-4.629Z"/><path class="c" d="M90.533,340.231c-.933,2.37-.981,8.006,3.351,8.868,5.786.472,6.712-6.265,5.056-9.618C97.584,336.737,93,335.241,90.533,340.231Z"/><path class="c" d="M84.728,318.018a44.1,44.1,0,0,1,5.4-19.286c.328-.583.687-1.15,1.058-1.707.233-.349.473-.695.717-1.036.126-.176.254-.35.383-.524.069-.093.6-.782.286-.384a50.7,50.7,0,0,1,5.088-5.576c11.69-11.087,28.708-16.577,44.683-15.544q1.653.106,3.3.311.381.046.762.1c-.532-.071.149.022.344.05q1.575.229,3.139.531a54.428,54.428,0,0,1,7.267,1.929,49.57,49.57,0,0,1,15.738,9.022c12.978,10.991,21.862,27.4,22.563,44.531a62.022,62.022,0,0,1-13.212,40.2c-3.944,5.084-9.231,9.4-13.311,14.519-2.334,2.93-4.452,6.191-4.95,9.982a16.719,16.719,0,0,0,.159,4.278c.237,1.875.517,3.751.93,5.6a5.858,5.858,0,0,1,.315,1.811c.028-.333-.055.058-.077.1.168-.348-.053.024-.082.053.345-.342-.518.351-.157.1a4.079,4.079,0,0,1-1.336.644c-.7.245-1.409.46-2.116.682-4.468,1.4-9.065,2.275-13.642,3.236-9.29,1.949-18.63,3.755-27.884,5.87-.392.09.109-.012.165-.015-.119.006-.235.019-.354.018s-.248,0-.372-.014c.027,0,.439.015.162.008-.069,0-.477-.063-.18-.041.212.016.027-.016-.073-.064.114.055.1.065.093.029-.275-1.754-.166-3.591-.4-5.374a55.962,55.962,0,0,0-2.415-10.3c-.224-.68-.451-1.363-.714-2.029a5.251,5.251,0,0,0-4.569-3.487c-1.686-.1-3.441.621-5.138.748a36.553,36.553,0,0,1-6.127-.089c-3.552-.331-7.595-1.036-10.725-2.714a15.088,15.088,0,0,1-6.679-8.088,54.744,54.744,0,0,1-2.905-13.346A21.068,21.068,0,0,0,78.9,367a15.03,15.03,0,0,0-3.516-5.305,14.79,14.79,0,0,1-2.838-2.967,1.757,1.757,0,0,1-.211-1.285,3.9,3.9,0,0,1,1.2-2.041c1.244-1.209,2.952-1.862,4.25-3.051a15.09,15.09,0,0,0,2.917-3.77c3.262-5.868,3.565-13.208,3.648-19.772a82.471,82.471,0,0,1,.679-12.99,2.471,2.471,0,0,0-1.676-2.952,2.42,2.42,0,0,0-2.953,1.676,64.068,64.068,0,0,0-.811,6.989c-.142,2.432-.009,4.847-.039,7.277a67.209,67.209,0,0,1-.728,10.053c-.5,3.057-1.322,6.33-3.226,8.807a11.646,11.646,0,0,1-3.43,2.78,9.82,9.82,0,0,0-4.3,5.191c-1.34,3.953,1.25,6.736,3.9,9.242a9.618,9.618,0,0,1,2.973,4.727c.4,1.854.394,3.945.656,5.856,1.166,8.51,3.45,18.6,11.76,22.946A34.66,34.66,0,0,0,99.149,401.6a38.262,38.262,0,0,0,6.393.243,45.65,45.65,0,0,0,5.566-.811c.131-.022.225.138.332.165s-.156-.336-.039-.121a6.207,6.207,0,0,1,.324.892q.684,1.943,1.237,3.927a53.634,53.634,0,0,1,1.283,5.658c.321,1.925.224,3.838.412,5.764.371,3.805,3.437,5.46,6.952,4.773,4.853-.947,9.683-2.028,14.52-3.051s9.679-2.048,14.52-3.062a134.016,134.016,0,0,0,13.547-3.357c3.1-1,6.234-2.762,5.98-6.514-.125-1.849-.781-3.72-1.069-5.559a22.1,22.1,0,0,1-.418-4.514c.17-3.2,2.6-6.306,4.61-8.66,2.57-3.007,5.491-5.677,8.212-8.541a67.863,67.863,0,0,0,18.133-36.887,63.043,63.043,0,0,0-2.4-28.06,69.635,69.635,0,0,0-13.343-23.7c-8.675-10.266-20.211-17.586-33.5-20-16.563-3.011-34.6.4-48.609,9.9a56.379,56.379,0,0,0-13.3,12.5,43.07,43.07,0,0,0-6.573,13.26,50.328,50.328,0,0,0-1.993,12.184c-.174,3.087,4.627,3.077,4.8,0Z"/><path class="c" d="M77.892,376.84a21.752,21.752,0,0,0,10.711-2.2,2.421,2.421,0,0,0,.861-3.284,2.452,2.452,0,0,0-3.284-.861c-.187.1-.375.2-.567.29-.086.042-.332.214-.435.2q.492-.205.129-.058-.148.058-.3.114-.227.084-.456.159a16.84,16.84,0,0,1-2.3.576c-.191.035-.383.063-.574.1-.5.083.53-.06-.11.013q-.59.068-1.181.105c-.831.054-1.663.066-2.5.053a2.4,2.4,0,0,0,0,4.8Z"/><path class="c" d="M56.1,298.389a175.113,175.113,0,0,0-6.016-17.548c-2.5-6.615-4.969-13.4-8.282-19.662-.937-1.772-2.182-3.4-4.234-3.864-2.143-.485-4.277.289-6.224,1.118-1.816.773-3.833,1.628-4.75,3.5-.939,1.918-.525,3.723.141,5.645,1.583,4.567,3.629,9.014,5.513,13.461,1.943,4.586,3.862,9.185,5.846,13.753.946,2.177,1.922,4.347,3,6.46.9,1.764,1.892,3.827,3.672,4.86,2.374,1.379,5.292.462,7.576-.663,2.8-1.379,4.37-3.933,3.754-7.06a2.425,2.425,0,0,0-2.953-1.677,2.45,2.45,0,0,0-1.676,2.953c.249,1.262-2.117,1.917-2.985,2.157a2.021,2.021,0,0,1-1.4.082c-.079-.027-.5-.583-.1-.064a3.045,3.045,0,0,1-.176-.25c-.191-.306-.39-.6-.572-.917a83.313,83.313,0,0,1-4.531-9.529c-3.415-8.026-7.081-16.123-10.164-24.335q-.284-.756-.511-1.531c-.1-.354-.167-.725-.276-1.077.016.051-.012.329.014.11-.006-.142-.005-.117,0,.073l.093-.313A9.672,9.672,0,0,1,34,262.506c.417-.153.839-.294,1.269-.4.119-.031.9-.154.635-.138a1.3,1.3,0,0,1,.623.032c.022.007.366.137.139.039-.177-.076.145.272,0,.022.586.985,1.363,2.23,1.929,3.416,2.658,5.565,4.862,11.31,7.042,17.112a171.87,171.87,0,0,1,5.84,17.081C52.247,302.652,56.878,301.386,56.1,298.389Z"/><path class="c" d="M58.041,314.681l.132.087q.313.225-.11-.1a3.1,3.1,0,0,1,.345.3c.085.079.413.544.511.548l-.2-.252c.058.078.114.159.168.24.08.121.156.246.226.372.046.082.124.333.2.385q-.2-.5-.1-.245c.027.066.052.132.075.2a5.854,5.854,0,0,1,.223.813l.025.137c.04.258.031.182-.03-.227a1.536,1.536,0,0,0,.021.274c.013.262-.055.56-.02.815-.072-.519.068-.414.005-.109-.026.13-.058.26-.1.387-.011.038-.15.417-.145.421l.12-.3c-.042.09-.088.177-.136.263-.07.126-.152.243-.227.365-.117.194-.212.1.128-.155-.193.146-.347.4-.529.564-.087.08-.179.156-.269.234-.3.265.487-.328.138-.11-.256.16-.5.33-.771.471-.076.04-.152.079-.23.116-.534.255.423-.149.135-.053a10.144,10.144,0,0,1-1.232.357l-.138.025c-.256.041-.188.032.205-.025a1.8,1.8,0,0,0-.458.031c-.133,0-.265,0-.4,0-.625-.026.386.122-.1,0-.169-.041-.338-.073-.506-.124l-.169-.054q-.372-.139.064.033c-.251-.017-.46-.389-.692-.409l.262.207c-.073-.059-.145-.119-.214-.181-.1-.094-.2-.191-.3-.293-.079-.083-.149-.185-.233-.262q-.172-.21.159.209c-.055-.076-.108-.153-.16-.232-.126-.192-.244-.6-.41-.74.2.17.169.452.077.182-.046-.135-.1-.267-.137-.4-.08-.27-.1-.569-.185-.832.166.5.043.423.038.214-.005-.19-.019-.378-.015-.569a2.044,2.044,0,0,0,.026-.425l-.05.355c.015-.094.032-.187.051-.281.049-.234.125-.458.193-.688.146-.486-.257.475-.021.051.065-.117.123-.238.191-.354.046-.077.094-.153.144-.227s.1-.148.155-.22q-.36.457-.121.17c.2-.21.439-.4.63-.62.206-.233-.5.343-.108.08.154-.1.3-.207.462-.3.12-.07.242-.136.365-.2.062-.031.125-.061.188-.09q.252-.114-.254.1c.3-.033.631-.219.933-.286a3.5,3.5,0,0,0,.413-.077l-.359.05c.093-.009.186-.016.28-.022.33-.017.662.048.987.033-.537.024-.413-.07-.215-.018s.374.085.558.143l.139.046q.359.135-.163-.081a2.511,2.511,0,0,0,.535.272,2.4,2.4,0,0,0,2.422-4.145,8.39,8.39,0,0,0-9.577,1.095,7.921,7.921,0,0,0-1.785,9.335,7.44,7.44,0,0,0,3.286,3.509,8.05,8.05,0,0,0,5.677.554,8.45,8.45,0,0,0,5.439-4.1,8.171,8.171,0,0,0-3.04-10.39,2.417,2.417,0,0,0-3.283.861A2.456,2.456,0,0,0,58.041,314.681Z"/><path class="a" d="M318.983,79.353c.457-8.566,2.16-13.367,5.4-19.883,1.468-2.951,10.068-16.218,28.8-22.757A64.277,64.277,0,0,1,382.3,33.207c10.248,1.271,26.872,5,41.613,26.679a63.755,63.755,0,0,1,10.624,32.549c.61,21.715-10.071,37.331-17.412,45.338-4.764,5.195-13.486,12.219-14.163,19.333a43.474,43.474,0,0,0,1.213,9.169c1.324,4-2.3,4.823-4.619,5.576a84.279,84.279,0,0,1-8.612,2.256c-11.75,2.444-21.807,4.611-33.556,7.055-1.241.258-3.722.167-3.713-3.237.2-7.05-3.26-16.045-3.341-16.252a2.734,2.734,0,0,0-3.231-1.611c-5.517,1.494-14.04.684-20.268-1.593-3.177-1.161-6.246-3.429-8.649-7.974a33.138,33.138,0,0,1-2.682-7.947,78.1,78.1,0,0,1-1.674-11.853,12.6,12.6,0,0,0-2.862-5.337c-2.187-2.358-5.715-4.194-3.915-8.289a7.669,7.669,0,0,1,3.492-3.51c7.524-4.077,7.83-15.489,8.073-23.715a61.13,61.13,0,0,1,.756-13.329"/><path class="b" d="M352.434,36.981c-18.212,6.626-26.6,19.577-28.05,22.489-2.949,5.929-4.625,10.439-5.247,17.658,3.835-2.4,9.666-3.315,15.33-2.437,12.631,2.3,23.343,10.407,30.305,17.584,3.876,4.328,4.792,7.412,8.394,13.922,1.7-2.115,3.363-3.792,6.108-4.479a7.837,7.837,0,0,1,6.63,1.028c2.7,1.973,3.942,6.1,3.772,9.49a19.95,19.95,0,0,1-5.319,13.21c.154.448.244.707.244.707,2.608,7.491,12.8,19.387,21.171,24.089,3.128-4.634,8.138-8.967,11.35-12.469,7.341-8.007,18.022-23.623,17.412-45.338A63.755,63.755,0,0,0,423.91,59.886C409.169,38.21,392.545,34.478,382.3,33.207a64.277,64.277,0,0,0-29.112,3.506Q352.807,36.847,352.434,36.981Z"/><path class="d" d="M282.837,66.36c-1.262-.049-6.608-.255-10.6-4.183-4.025-3.961-4.257-9.333-4.395-12.532-.656-15.183,12.1-27.621,15.518-31.008,9.994,9.062,15.179,23.482,15.244,30.039a23.815,23.815,0,0,1-1.906,9.53,14.129,14.129,0,0,1-3.812,5.242C289.049,66.6,284.425,66.421,282.837,66.36Z"/><path class="c" d="M282.837,63.96c-.472-.019-.94-.053-1.41-.1-.695-.066.288.051-.167-.018-.17-.025-.34-.053-.509-.084q-.783-.141-1.552-.351a11.947,11.947,0,0,1-5.407-3.075c-2.806-2.851-3.387-6.785-3.543-10.57-.346-8.412,3.6-16.348,8.7-22.738a78,78,0,0,1,6.107-6.692h-3.394A48.437,48.437,0,0,1,294.842,41.59,36.467,36.467,0,0,1,296,46.335c.026.156.133.957.08.509.034.283.063.568.084.853a19.715,19.715,0,0,1-.028,3,21.985,21.985,0,0,1-1.255,5.64c-.092.256-.195.508-.291.764.081-.217.222-.465.057-.142-.362.711-.693,1.429-1.109,2.112-2.338,3.836-6.48,5.053-10.7,4.893-3.089-.118-3.084,4.683,0,4.8,4.594.175,9.222-1.046,12.565-4.355a19.605,19.605,0,0,0,4.949-9.74c1.851-8.441-1.109-16.878-5.064-24.289A50.289,50.289,0,0,0,285.059,16.94a2.445,2.445,0,0,0-3.394,0c-5.29,5.247-10.144,11.118-13.159,17.994a33.558,33.558,0,0,0-3.062,14.711c.179,4.813,1.071,9.562,4.274,13.338,3.244,3.826,8.219,5.585,13.119,5.777C285.926,68.881,285.921,64.081,282.837,63.96Z"/><path class="c" d="M382.287,126.791c1.814,5.093,5.146,9.6,8.63,13.674a55.043,55.043,0,0,0,13.014,11.484c2.65,1.6,5.065-2.547,2.422-4.145a50.768,50.768,0,0,1-11.805-10.458,55.616,55.616,0,0,1-4.664-6.173,29.433,29.433,0,0,1-2.968-5.658,2.463,2.463,0,0,0-2.953-1.677,2.422,2.422,0,0,0-1.676,2.953Z"/><path class="c" d="M333.829,77.005a49.623,49.623,0,0,1,18.858,8.132c4.786,3.277,9.807,7.287,12.971,12.215,1.93,3.006,3.392,6.3,5.094,9.435,1.475,2.715,5.621.295,4.145-2.423-1.577-2.9-2.955-5.93-4.671-8.755a35.279,35.279,0,0,0-6.059-7.3A66.948,66.948,0,0,0,347.3,76.456a49.307,49.307,0,0,0-12.189-4.079,2.465,2.465,0,0,0-2.953,1.676,2.422,2.422,0,0,0,1.676,2.952Z"/><path class="c" d="M329.15,67.719a28.3,28.3,0,0,0-14.387,11.294,2.418,2.418,0,0,0,.861,3.283,2.453,2.453,0,0,0,3.284-.861c.185-.286.375-.57.571-.849.1-.139.2-.278.3-.415.057-.078.351-.464.057-.085.418-.539.862-1.059,1.324-1.561a29.873,29.873,0,0,1,2.922-2.713c.291-.242-.444.326.082-.062.109-.082.219-.163.329-.243q.416-.3.841-.584.852-.567,1.748-1.064t1.828-.919l.374-.166c-.45.2-.006,0,.089-.033.348-.139.7-.269,1.054-.393a2.4,2.4,0,1,0-1.276-4.629Z"/><path class="c" d="M333.417,95.091a11.613,11.613,0,0,0,5.184,1.751,2.678,2.678,0,0,0,1.7-.7,2.4,2.4,0,0,0,0-3.394l-.486-.375a2.375,2.375,0,0,0-1.211-.328l-.208-.026.638.085a9.527,9.527,0,0,1-2.348-.647l.573.242a9.688,9.688,0,0,1-1.417-.749,2.4,2.4,0,0,0-3.283.861,2.418,2.418,0,0,0-.242,1.849,2.593,2.593,0,0,0,1.1,1.434Z"/><path class="c" d="M321.383,79.353a44.1,44.1,0,0,1,5.4-19.286c.328-.584.686-1.15,1.058-1.707q.35-.525.717-1.036.189-.264.383-.524c.069-.093.6-.783.286-.384a50.789,50.789,0,0,1,5.087-5.576C346.006,39.753,363.024,34.263,379,35.3q1.653.106,3.3.311c.254.031.508.064.761.1-.531-.07.15.023.345.051q1.575.229,3.139.531a54.428,54.428,0,0,1,7.267,1.929,49.562,49.562,0,0,1,15.738,9.022c12.978,10.991,21.861,27.4,22.563,44.531A62.024,62.024,0,0,1,418.9,131.973c-3.945,5.084-9.232,9.4-13.311,14.518-2.334,2.931-4.453,6.192-4.95,9.982a16.716,16.716,0,0,0,.159,4.278c.237,1.876.517,3.752.93,5.6a5.858,5.858,0,0,1,.315,1.811c.028-.333-.055.057-.078.1.169-.348-.053.024-.081.053.345-.342-.518.351-.157.1a4.065,4.065,0,0,1-1.336.643c-.7.246-1.409.461-2.116.683-4.468,1.4-9.066,2.275-13.642,3.236-9.29,1.949-18.631,3.755-27.884,5.87-.392.09.109-.012.165-.015-.119.006-.235.019-.354.018s-.248,0-.372-.014c.027,0,.439.014.162.008-.07,0-.477-.063-.18-.041.212.016.027-.016-.073-.064.114.055.1.064.093.029-.275-1.754-.166-3.591-.4-5.375a56,56,0,0,0-2.415-10.3c-.224-.679-.451-1.362-.714-2.029a5.252,5.252,0,0,0-4.569-3.487c-1.686-.1-3.441.622-5.138.749a36.552,36.552,0,0,1-6.127-.089c-3.552-.331-7.595-1.036-10.725-2.714a15.091,15.091,0,0,1-6.679-8.089,54.737,54.737,0,0,1-2.9-13.345,21.1,21.1,0,0,0-.962-5.761,15.021,15.021,0,0,0-3.516-5.305,14.824,14.824,0,0,1-2.839-2.967,1.767,1.767,0,0,1-.211-1.285,3.906,3.906,0,0,1,1.2-2.041c1.244-1.209,2.953-1.862,4.251-3.052a15.085,15.085,0,0,0,2.917-3.769c3.262-5.868,3.565-13.208,3.648-19.772a82.471,82.471,0,0,1,.679-12.99,2.471,2.471,0,0,0-1.677-2.952,2.42,2.42,0,0,0-2.952,1.676,63.823,63.823,0,0,0-.811,6.989c-.142,2.432-.009,4.847-.039,7.277a67.209,67.209,0,0,1-.728,10.053c-.5,3.057-1.322,6.33-3.226,8.806a11.659,11.659,0,0,1-3.43,2.78,9.821,9.821,0,0,0-4.3,5.192c-1.34,3.953,1.25,6.736,3.9,9.242a9.625,9.625,0,0,1,2.973,4.727c.4,1.853.394,3.944.656,5.856,1.166,8.51,3.449,18.6,11.76,22.946a34.682,34.682,0,0,0,11.989,3.191,38.361,38.361,0,0,0,6.393.243,45.65,45.65,0,0,0,5.566-.811c.131-.023.225.138.332.164s-.157-.335-.039-.12a6.163,6.163,0,0,1,.324.892q.683,1.941,1.237,3.927a53.634,53.634,0,0,1,1.283,5.658c.321,1.925.224,3.838.412,5.764.371,3.8,3.437,5.46,6.952,4.773,4.852-.947,9.683-2.028,14.52-3.051s9.678-2.048,14.52-3.062a134.016,134.016,0,0,0,13.547-3.357c3.1-.995,6.234-2.763,5.98-6.514-.126-1.849-.781-3.721-1.069-5.559a22.109,22.109,0,0,1-.418-4.515c.17-3.2,2.6-6.305,4.61-8.66,2.57-3.006,5.491-5.676,8.212-8.54A67.863,67.863,0,0,0,436.3,103.281a63.042,63.042,0,0,0-2.4-28.06,69.612,69.612,0,0,0-13.344-23.7c-8.674-10.266-20.21-17.587-33.5-20-16.563-3.011-34.6.4-48.609,9.9a56.379,56.379,0,0,0-13.3,12.5,43.036,43.036,0,0,0-6.573,13.26,50.272,50.272,0,0,0-1.993,12.184c-.174,3.086,4.627,3.077,4.8,0Z"/><path class="c" d="M315.047,138.722a23.641,23.641,0,0,1,2.51-.132c.38,0,.76.019,1.139.051.184.015.367.043.55.058-.077-.006-.561-.089-.231-.028.111.021.223.038.335.059a12.451,12.451,0,0,1,2.125.608c.09.034.179.072.269.106.289.11-.452-.2-.168-.07.182.087.368.167.549.255.411.2.813.416,1.21.641a2.4,2.4,0,1,0,2.423-4.145,17.023,17.023,0,0,0-5.132-2.023,19.467,19.467,0,0,0-5.579-.18,2.594,2.594,0,0,0-1.7.7,2.4,2.4,0,0,0,1.7,4.1Z"/><path class="c" d="M375.918,106.649a7.834,7.834,0,0,1,4.852-2.794,5.024,5.024,0,0,1,4.667,1.741c2.123,2.646,2.115,6.452,1.487,9.611-1.332,6.7-6.1,11.289-12.278,13.844A2.478,2.478,0,0,0,372.97,132a2.414,2.414,0,0,0,2.952,1.676c6.539-2.7,12.05-7.019,14.65-13.778,2.456-6.388,2.5-16.707-4.825-20-4.679-2.1-9.894-.253-13.224,3.35-2.094,2.266,1.292,5.669,3.395,3.394Z"/><path class="c" d="M327.188,101.566c-.933,2.37-.981,8.006,3.351,8.867,5.786.473,6.712-6.265,5.056-9.617C334.239,98.072,329.651,96.576,327.188,101.566Z"/><path class="a" d="M82.328,79.353c.457-8.566,2.16-13.367,5.4-19.883,1.468-2.951,10.068-16.218,28.8-22.757a64.271,64.271,0,0,1,29.111-3.506c10.248,1.271,26.873,5,41.613,26.679a63.755,63.755,0,0,1,10.624,32.549c.61,21.715-10.071,37.331-17.412,45.338-4.764,5.195-13.486,12.219-14.162,19.333a43.464,43.464,0,0,0,1.212,9.169c1.324,4-2.3,4.823-4.618,5.576a84.3,84.3,0,0,1-8.613,2.256c-11.749,2.444-21.807,4.611-33.556,7.055-1.241.258-3.722.167-3.713-3.237.2-7.05-3.26-16.045-3.341-16.252a2.734,2.734,0,0,0-3.231-1.611c-5.517,1.494-14.04.684-20.268-1.593-3.177-1.161-6.246-3.429-8.649-7.974a33.138,33.138,0,0,1-2.682-7.947A78.1,78.1,0,0,1,77.172,130.7a12.6,12.6,0,0,0-2.862-5.337C72.123,123,68.6,121.164,70.4,117.069a7.669,7.669,0,0,1,3.492-3.51c7.524-4.077,7.83-15.489,8.073-23.715a61.13,61.13,0,0,1,.756-13.329"/><path class="a" d="M36.613,65.993a72.346,72.346,0,0,0,6.178,12.533,3.3,3.3,0,0,0,2.088,1.556,6.876,6.876,0,0,0,3.378-.445,62.28,62.28,0,0,0,8.955-3.755,5.386,5.386,0,0,0,1.6-2.9,6.108,6.108,0,0,0-.247-1.878c-1.01-3.46-4.1-11.354-5.064-11.777"/><path class="b" d="M115.779,36.981c-18.212,6.626-26.6,19.577-28.05,22.489C84.78,65.4,83.1,69.909,82.482,77.128c3.835-2.4,9.666-3.315,15.331-2.437,12.63,2.3,23.342,10.407,30.3,17.584,3.876,4.328,4.792,7.412,8.394,13.922,1.7-2.115,3.363-3.792,6.108-4.479a7.836,7.836,0,0,1,6.63,1.028c2.7,1.973,3.942,6.1,3.772,9.49a19.95,19.95,0,0,1-5.319,13.21c.155.448.244.707.244.707,2.608,7.491,12.8,19.387,21.171,24.089,3.128-4.634,8.138-8.967,11.35-12.469,7.341-8.007,18.022-23.623,17.412-45.338a63.755,63.755,0,0,0-10.624-32.549c-14.74-21.676-31.365-25.408-41.613-26.679a64.271,64.271,0,0,0-29.111,3.506C116.278,36.8,116.028,36.891,115.779,36.981Z"/><path class="e" d="M38.468,22.905c.641.054,1.3.14,1.987.264a19.1,19.1,0,0,1,15.212,12.8,23.857,23.857,0,0,1,1.393,9.413,27.084,27.084,0,0,1-1.1,7.131,25.732,25.732,0,0,1-2.354,5.43,83.409,83.409,0,0,1-18.484,7.187c-4.154.034-9.855-3.851-12.222-6.636a26.918,26.918,0,0,1-4.388-6.656,22.808,22.808,0,0,1-1.843-8.609,19.593,19.593,0,0,1,2.94-11.283,20.19,20.19,0,0,1,6.1-5.862,20.009,20.009,0,0,1,3.836-2A20.558,20.558,0,0,1,38.468,22.905Z"/><path class="c" d="M145.632,126.791c1.814,5.093,5.146,9.6,8.63,13.674a55.043,55.043,0,0,0,13.014,11.484c2.65,1.6,5.065-2.547,2.422-4.145a50.768,50.768,0,0,1-11.805-10.458,55.863,55.863,0,0,1-4.664-6.173,29.433,29.433,0,0,1-2.968-5.658,2.463,2.463,0,0,0-2.953-1.677,2.422,2.422,0,0,0-1.676,2.953Z"/><path class="c" d="M97.175,77.005a49.626,49.626,0,0,1,18.857,8.132c4.786,3.277,9.807,7.287,12.971,12.215,1.93,3.006,3.392,6.3,5.094,9.435,1.475,2.715,5.621.295,4.145-2.423-1.577-2.9-2.955-5.93-4.671-8.755a35.306,35.306,0,0,0-6.058-7.3A66.971,66.971,0,0,0,110.64,76.456a49.307,49.307,0,0,0-12.189-4.079A2.465,2.465,0,0,0,95.5,74.053a2.422,2.422,0,0,0,1.677,2.952Z"/><path class="c" d="M139.263,106.649a7.834,7.834,0,0,1,4.852-2.794,5.024,5.024,0,0,1,4.667,1.741c2.123,2.646,2.115,6.452,1.487,9.611-1.332,6.7-6.1,11.289-12.278,13.844A2.478,2.478,0,0,0,136.315,132a2.414,2.414,0,0,0,2.952,1.676c6.54-2.7,12.05-7.019,14.65-13.778,2.457-6.388,2.5-16.707-4.824-20-4.68-2.1-9.895-.253-13.224,3.35-2.095,2.266,1.292,5.669,3.394,3.394Z"/><path class="c" d="M92.5,67.719A28.3,28.3,0,0,0,78.108,79.013a2.418,2.418,0,0,0,.861,3.283,2.453,2.453,0,0,0,3.284-.861c.186-.286.375-.57.571-.849.1-.139.2-.278.3-.415.058-.078.351-.464.057-.085.418-.539.862-1.059,1.324-1.561a29.873,29.873,0,0,1,2.922-2.713c.291-.242-.444.326.082-.062.109-.082.219-.163.329-.243q.415-.3.841-.584.852-.567,1.748-1.064t1.828-.919l.374-.166c-.45.2-.006,0,.089-.033.348-.139.7-.269,1.054-.393A2.4,2.4,0,1,0,92.5,67.719Z"/><path class="c" d="M90.533,101.566c-.933,2.37-.981,8.006,3.351,8.867,5.786.473,6.712-6.265,5.056-9.617C97.584,98.072,93,96.576,90.533,101.566Z"/><path class="c" d="M79.33,133.951a85.33,85.33,0,0,1,9.622.184c.323.032-.51-.079-.194-.026.1.016.192.029.288.044.185.03.369.062.553.1a10.037,10.037,0,0,1,1.055.263,1.673,1.673,0,0,0,.43.151c-.026,0-.566-.284-.284-.116.056.034.12.059.177.09.094.051.181.123.276.17.236.117-.476-.391-.285-.217a1.444,1.444,0,0,1,.141.141c-.538-.626-.249-.3-.1-.056.2.342-.091-.135-.074-.187a1.8,1.8,0,0,0,.086.267c.025.091.041.182.065.273.076.286-.132.041-.026-.217a2.79,2.79,0,0,0,.007.651c-.014.575.125-.464-.016.11-.051.205-.1.408-.161.61a2,2,0,0,1-.195.54c.268-.359.123-.269.035-.108s-.156.312-.24.465c-.131.238-.273.469-.423.695-.084.127-.571.764-.233.35a15.087,15.087,0,0,1-1.193,1.31q-.368.354-.757.683c-.1.089-.213.175-.319.262.264-.215.061-.048-.095.065a15.959,15.959,0,0,1-1.692,1.064,2.424,2.424,0,0,0-.861,3.284,2.45,2.45,0,0,0,3.283.861,16.953,16.953,0,0,0,6.063-5.533c1.266-1.95,2.093-4.548,1.324-6.841a5.459,5.459,0,0,0-4.382-3.589,30.279,30.279,0,0,0-6.127-.6c-1.917-.037-3.831.027-5.747.057a2.4,2.4,0,1,0,0,4.8Z"/><path class="c" d="M84.728,79.353a44.1,44.1,0,0,1,5.4-19.286c.328-.584.687-1.15,1.058-1.707.233-.35.473-.7.717-1.036q.189-.264.383-.524c.069-.093.6-.783.286-.384a50.7,50.7,0,0,1,5.088-5.576c11.69-11.087,28.708-16.577,44.683-15.544q1.653.106,3.3.311c.254.031.508.064.762.1-.532-.07.149.023.344.051q1.575.229,3.139.531a54.428,54.428,0,0,1,7.267,1.929,49.551,49.551,0,0,1,15.738,9.022c12.978,10.991,21.862,27.4,22.563,44.531a62.024,62.024,0,0,1-13.212,40.205c-3.944,5.084-9.231,9.4-13.311,14.518-2.334,2.931-4.452,6.192-4.95,9.982a16.716,16.716,0,0,0,.159,4.278c.237,1.876.517,3.752.93,5.6a5.858,5.858,0,0,1,.315,1.811c.028-.333-.055.057-.077.1.168-.348-.053.024-.082.053.345-.342-.518.351-.157.1a4.055,4.055,0,0,1-1.336.643c-.7.246-1.409.461-2.116.683-4.468,1.4-9.065,2.275-13.642,3.236-9.29,1.949-18.63,3.755-27.884,5.87-.392.09.109-.012.165-.015-.119.006-.235.019-.354.018s-.248,0-.372-.014c.027,0,.439.014.162.008-.069,0-.477-.063-.18-.041.212.016.027-.016-.073-.064.114.055.1.064.093.029-.275-1.754-.166-3.591-.4-5.375a56,56,0,0,0-2.415-10.3c-.224-.679-.451-1.362-.714-2.029a5.252,5.252,0,0,0-4.569-3.487c-1.686-.1-3.441.622-5.138.749a36.553,36.553,0,0,1-6.127-.089c-3.552-.331-7.595-1.036-10.725-2.714a15.091,15.091,0,0,1-6.679-8.089A54.737,54.737,0,0,1,79.861,134.1a21.062,21.062,0,0,0-.962-5.761,15.021,15.021,0,0,0-3.516-5.305,14.79,14.79,0,0,1-2.838-2.967,1.758,1.758,0,0,1-.211-1.285,3.893,3.893,0,0,1,1.2-2.041c1.244-1.209,2.952-1.862,4.25-3.052a15.085,15.085,0,0,0,2.917-3.769c3.262-5.868,3.565-13.208,3.648-19.772a82.471,82.471,0,0,1,.679-12.99A2.47,2.47,0,0,0,83.355,74.2,2.42,2.42,0,0,0,80.4,75.877a64.068,64.068,0,0,0-.811,6.989c-.142,2.432-.009,4.847-.039,7.277a67.209,67.209,0,0,1-.728,10.053c-.5,3.057-1.322,6.33-3.226,8.806a11.646,11.646,0,0,1-3.43,2.78,9.826,9.826,0,0,0-4.3,5.192c-1.34,3.953,1.25,6.736,3.9,9.242a9.618,9.618,0,0,1,2.973,4.727c.4,1.853.394,3.944.656,5.856,1.166,8.51,3.45,18.6,11.76,22.946a34.682,34.682,0,0,0,11.989,3.191,38.369,38.369,0,0,0,6.393.243,45.65,45.65,0,0,0,5.566-.811c.131-.023.225.138.332.164s-.156-.335-.039-.12a6.163,6.163,0,0,1,.324.892q.684,1.941,1.237,3.927a53.634,53.634,0,0,1,1.283,5.658c.321,1.925.224,3.838.412,5.764.371,3.8,3.437,5.46,6.952,4.773,4.853-.947,9.683-2.028,14.52-3.051s9.679-2.048,14.52-3.062a134.016,134.016,0,0,0,13.547-3.357c3.1-.995,6.234-2.763,5.98-6.514-.125-1.849-.781-3.721-1.069-5.559a22.109,22.109,0,0,1-.418-4.515c.17-3.2,2.6-6.305,4.61-8.66,2.57-3.006,5.491-5.676,8.212-8.54a67.863,67.863,0,0,0,18.133-36.887,63.042,63.042,0,0,0-2.4-28.06,69.626,69.626,0,0,0-13.343-23.7c-8.675-10.266-20.211-17.587-33.5-20-16.563-3.011-34.6.4-48.609,9.9a56.379,56.379,0,0,0-13.3,12.5,43.059,43.059,0,0,0-6.573,13.26,50.32,50.32,0,0,0-1.993,12.184c-.174,3.086,4.627,3.077,4.8,0Z"/><path class="c" d="M38.468,25.305a18.445,18.445,0,0,1,8.786,3.138A15.807,15.807,0,0,1,51.575,33a20.194,20.194,0,0,1,1.094,1.981,12.366,12.366,0,0,1,.618,1.452,24.427,24.427,0,0,1-1.75,20.3l.861-.861A75.479,75.479,0,0,1,37.77,61.943a8.81,8.81,0,0,1-3.557.735,11.246,11.246,0,0,1-3.028-1.011A20.8,20.8,0,0,1,25.059,57.3a21.131,21.131,0,0,1-5.991-14.473A16.585,16.585,0,0,1,25.41,29.2a18.581,18.581,0,0,1,13.058-3.895,2.4,2.4,0,0,0,0-4.8c-8.824-.651-18.146,4.082-22.051,12.227a23.365,23.365,0,0,0-2.031,12.446,26.681,26.681,0,0,0,7,15.212c2.929,3.276,7.494,6.259,11.882,6.96,2.524.4,4.913-.474,7.3-1.254,2.6-.851,5.139-1.852,7.651-2.924,1.939-.827,3.861-1.7,5.728-2.682a4.919,4.919,0,0,0,2.293-2.336,29.083,29.083,0,0,0,3.125-16.611A24.267,24.267,0,0,0,52.917,27a22.784,22.784,0,0,0-14.449-6.5,2.417,2.417,0,0,0-2.4,2.4A2.452,2.452,0,0,0,38.468,25.305Z"/><path class="c" d="M42.366,74.779a146.7,146.7,0,0,0,14.5-6.176,2.412,2.412,0,0,0,.861-3.283,2.46,2.46,0,0,0-3.283-.861c-2.2,1.075-4.431,2.083-6.68,3.047l-.439.187c-.12.051-.323.136-.085.037l-.879.366q-.87.36-1.745.709-1.753.7-3.529,1.346a2.4,2.4,0,1,0,1.276,4.628Z"/><path class="c" d="M34.3,66.631a23.753,23.753,0,0,0,1.519,3.8c.78,1.734,1.617,3.443,2.5,5.127A32.356,32.356,0,0,0,41.1,80.247c1.674,2.195,4.194,2.627,6.772,2.007a41.116,41.116,0,0,0,5.515-1.985,25.743,25.743,0,0,0,5.139-2.389,6.665,6.665,0,0,0,2.661-5.656,21.884,21.884,0,0,0-1.524-5.384c-.731-1.989-1.518-3.964-2.4-5.892-.578-1.263-1.259-2.987-2.546-3.693C52,55.767,49.579,59.911,52.29,61.4a1.24,1.24,0,0,1-.5-.5c.1.183.237.355.345.537.288.486.535,1,.776,1.508.662,1.4,1.089,2.47,1.673,4,.522,1.364,1.021,2.739,1.459,4.132a6.668,6.668,0,0,1,.378,1.776c-.023-.614-.058.044-.176.338.035-.087-.4.727-.352.671.141-.169-.266.179-.386.246-.274.152-.555.292-.837.428-.7.34-1.41.644-2.123.934q-2.334.949-4.714,1.784a7.092,7.092,0,0,1-2.078.514c-.524.015-.651-.116-1.005-.611A32.189,32.189,0,0,1,42.6,73.393q-1.276-2.421-2.418-4.911c-.175-.382-.348-.765-.516-1.15-.061-.141-.123-.282-.183-.423.194.458-.059-.15-.078-.2a11.658,11.658,0,0,1-.474-1.357c-.761-2.991-5.392-1.724-4.628,1.276Z"/><path class="c" d="M25.668,2.4q.055,3.3.075,6.6a2.4,2.4,0,1,0,4.8,0q-.019-3.3-.075-6.6a2.4,2.4,0,1,0-4.8,0Z"/><path class="c" d="M18.283,10.243l-.164-.211.375.485q-1.66-2.154-3.142-4.436a2.534,2.534,0,0,0-1.434-1.1,2.454,2.454,0,0,0-1.85.242A2.4,2.4,0,0,0,11.207,8.5c1.148,1.769,2.388,3.47,3.682,5.134a2.394,2.394,0,0,0,1.7.7,2.447,2.447,0,0,0,1.7-.7,2.417,2.417,0,0,0,.7-1.7L18.9,11.3a2.4,2.4,0,0,0-.617-1.059Z"/><path class="c" d="M9.6,19.566c-1.957-1.068-3.942-2.092-5.984-2.99a2.617,2.617,0,0,0-1.849-.242,2.445,2.445,0,0,0-1.434,1.1,2.418,2.418,0,0,0-.242,1.849,2.319,2.319,0,0,0,1.1,1.435c2.041.9,4.026,1.921,5.983,2.989a2.51,2.51,0,0,0,1.849.242A2.4,2.4,0,0,0,9.6,19.566Z"/><path class="c" d="M49.028,42.379a10.548,10.548,0,0,0-6.737-2.708c-2.279-.18-4.97-.153-6.895,1.229-4.021,2.886-4.278,9.251.294,11.787a6.824,6.824,0,0,0,7.387-.634,6.685,6.685,0,0,0,2.2-6.992c-.931-4.286-5.373-6.132-9.391-5.868a11.365,11.365,0,0,0-7.3,2.973,10.512,10.512,0,0,0-2.819,8.588,2.465,2.465,0,0,0,2.4,2.4,2.418,2.418,0,0,0,2.4-2.4,6.659,6.659,0,0,1,.842-4.539,5.426,5.426,0,0,1,3.351-2.055c.107-.024.948-.171.454-.1.3-.041.6-.063.9-.077s.6-.015.905,0c.15.006.3.022.45.027.677.02-.409-.109.248.026.286.059.572.115.854.2.119.035.863.34.426.129.252.122.485.266.727.4.375.215.09.067.007-.007.156.138.294.282.441.427.083.082.227.349.008,0,.075.118.143.245.22.36.047.072.181.409.03.02.054.141.1.288.14.433a4.537,4.537,0,0,1,.1.462c-.056-.346-.006.005,0,.07.005.162.007.323,0,.485,0,.006-.084.706-.034.434-.032.175-.079.35-.127.521s-.212.292-.04.094c.254-.292-.234.143-.293.182a2.007,2.007,0,0,1-1.721.471c.211.029-.284-.138-.344-.169a2.288,2.288,0,0,1-.68-.52,1.589,1.589,0,0,1-.383-1.237c0-.215.147-.548-.018.032.032-.11.039-.225.074-.335.075-.237.136-.475.229-.707-.2.49.143-.193.208-.323.036-.072.258-.376-.012-.027a5.014,5.014,0,0,1,.361-.4c.043-.045.39-.329.174-.168s.273-.155.322-.182c.624-.332-.214.055.2-.071.095-.029.55-.132.25-.082a14.559,14.559,0,0,1,3.01-.082,7.435,7.435,0,0,1,2.255.4,4.672,4.672,0,0,1,1.533.929c2.226,2.143,5.624-1.247,3.394-3.394Z"/></svg>