<?xml version="1.0" encoding="utf-8"?>
<!-- Uploaded to: SVG Repo, www.svgrepo.com, Generator: SVG Repo Mixer Tools -->
<svg width="800px" height="800px" viewBox="0 -74.15 386.087 386.087" xmlns="http://www.w3.org/2000/svg"><defs><style>.a{fill:#ffffff;}.b{fill:#211715;}.c{fill:#b5886a;}</style></defs><path class="a" d="M287.206,180.491c-5.228,8.98-11.867,17.626-14.831,27.089-1.9,6.082-2.031,16.9-1.534,27.81H377.993c-4.57-29.119-7.493-58.155-23.593-80.013-3.592-4.877-5.867-4.82-10.3-5.044-17.628-.892-41.033,7.614-50.6,15.728A55.759,55.759,0,0,1,287.206,180.491Z"/><path class="a" d="M271.634,58.844a121.427,121.427,0,0,1-14.405-10.909A65.433,65.433,0,0,0,255.77,65.8c-.27,9.14-.61,21.82-8.97,26.35a8.521,8.521,0,0,0-3.88,3.9c-2,4.55,1.92,6.59,4.35,9.21a14,14,0,0,1,3.18,5.93,86.778,86.778,0,0,0,1.86,13.17,36.82,36.82,0,0,0,2.98,8.83c2.67,5.05,6.08,7.57,9.61,8.86,6.92,2.53,16.39,3.43,22.52,1.77a3.038,3.038,0,0,1,3.59,1.79c.09.23,3.934,10.224,3.712,18.058v1.407c6.342-4.841,17.313-9.682,28.769-12.454-1.733-.979-2.681-2.048-1.9-3.061A24.676,24.676,0,0,0,326.2,133.35c-.373-7.561-3.3-14.854-6.057-22.016,8.979-4.08,14.091-10.747,14.587-20.65.189-3.77-1.188-8.352-4.191-10.544a8.593,8.593,0,0,0-7.1-1.2l-4-.215c-11.693-.628-29.246-8.841-34.628-11.845C280.955,64.733,276.276,61.919,271.634,58.844Z"/><path class="b" d="M272.215,237.79H377.993c3.089,0,3.094-4.8,0-4.8H272.215c-3.088,0-3.093,4.8,0,4.8Z"/><path class="b" d="M273.235,235.27c-.246-5.565-.372-11.149-.07-16.714a41.621,41.621,0,0,1,2.275-12.517c3.318-8.867,9.305-16.494,14.009-24.631a58.442,58.442,0,0,0,6.365-14.709l-.618,1.059a49,49,0,0,1,9.286-5.785,88.944,88.944,0,0,1,12.676-5.079c8.9-2.841,18.221-4.6,27.592-4.129.5.025,1,.049,1.5.088.187.014.917.09.715.061a8.467,8.467,0,0,1,2.093.591,12.989,12.989,0,0,1,4.105,4.238,82.844,82.844,0,0,1,7.534,13.132c4.259,9.217,6.93,19.121,9,29.033,2.494,11.951,4.1,24.065,5.985,36.12a2.416,2.416,0,0,0,2.952,1.676,2.458,2.458,0,0,0,1.676-2.952c-2.547-16.263-4.525-32.72-9.011-48.6a112.652,112.652,0,0,0-8.512-21.869,79.214,79.214,0,0,0-6.071-9.79c-1.983-2.717-4.3-5.289-7.715-6.067a37.8,37.8,0,0,0-9.413-.527,78.312,78.312,0,0,0-11.085,1.224,99.452,99.452,0,0,0-21.179,6.307,78.749,78.749,0,0,0-9.049,4.433c-1.253.728-2.48,1.5-3.663,2.337s-2.947,1.8-3.424,3.222c-.594,1.77-1.034,3.566-1.73,5.309a53.317,53.317,0,0,1-2.319,4.937c-1.774,3.387-3.8,6.637-5.835,9.868-4.065,6.441-8.286,12.894-10.817,20.13-2.514,7.19-2.389,15.327-2.263,22.845.038,2.254.115,4.506.214,6.758.137,3.077,4.937,3.094,4.8,0Z"/><path class="c" d="M382.01,58.742c-1.054-8.1-3.7-19.643-10.314-28.1C357.534,12.551,341.772,2.03,313.021,2.458a76,76,0,0,0-21.579,4.056c-14.127,4.866-25.693,16.386-31.76,29.168A56.621,56.621,0,0,0,255.927,46.7c7.141,7.011,20.143,15.305,28.88,20.182,5.382,3,22.935,11.217,34.628,11.845l2.271.762A9.256,9.256,0,0,1,323.168,79a8.709,8.709,0,0,1,7.367,1.143c3,2.192,4.38,6.774,4.191,10.544-.5,9.9-5.608,16.57-14.587,20.65,2.762,7.163,5.684,14.455,6.057,22.016a24.676,24.676,0,0,1-4.607,16.214c-2.062,2.68,7.966,5.748,12.653,6.586a30.734,30.734,0,0,0,11.506.036,37.259,37.259,0,0,0,7.662,4.439c18.1,6.219,29.234-3.648,30.058-12.339a44.836,44.836,0,0,0-1.23-15.559c-1.671-7.167-5.439-20.476-1.26-42.51,1.269-6.691,1.342-17.084,1.727-21.79A76.33,76.33,0,0,0,382.01,58.742Z"/><path class="b" d="M254.3,50.356a69.96,69.96,0,0,0-.966,9.28c-.1,2.825.067,5.644-.032,8.468a55.522,55.522,0,0,1-1.621,13.224,18.617,18.617,0,0,1-2.384,5.378,13.191,13.191,0,0,1-4.356,3.756,10.093,10.093,0,0,0-4.836,6.669,7.755,7.755,0,0,0,2.083,6.507c1.432,1.663,3.32,2.881,4.489,4.772a10.137,10.137,0,0,1,1.393,3.07c.233,1.176.191,2.483.325,3.678.69,6.166,1.707,12.562,4.327,18.238a20.689,20.689,0,0,0,10.973,10.752,45.006,45.006,0,0,0,16.18,2.918,34.673,34.673,0,0,0,4.532-.258c.734-.092,1.469-.194,2.2-.335a7.708,7.708,0,0,1,1.5-.352c.471.026.356.078.687.39-.173-.163-.1-.292.024.045.207.551.4,1.109.586,1.667,1.662,4.946,3.032,10.2,2.925,15.449-.063,3.09,4.737,3.09,4.8,0a48.057,48.057,0,0,0-2.473-14.776c-1.028-3.373-2.158-7.626-6.549-7.575a27.75,27.75,0,0,0-3.631.673,28.613,28.613,0,0,1-3.814.268,42.538,42.538,0,0,1-8.037-.652c-4.727-.843-9.407-2.111-12.695-5.812-3.863-4.347-5.129-10.48-6.079-16.043a77.154,77.154,0,0,1-.959-7.977,14.066,14.066,0,0,0-3.508-7.746c-1.234-1.465-3.144-2.722-4.111-4.208a2.128,2.128,0,0,1-.482-1.74,4.748,4.748,0,0,1,1.71-2.843,25.6,25.6,0,0,1,2.563-1.651,15.149,15.149,0,0,0,2.727-2.332,19.486,19.486,0,0,0,3.538-5.8c4.394-10.734,1.7-22.681,3.6-33.823a2.469,2.469,0,0,0-1.676-2.952,2.419,2.419,0,0,0-2.952,1.676Z"/><path class="a" d="M294.756,100.747a8.213,8.213,0,0,0-5.885-4.957c-10.626-2.3-24.239-3.887-34.373-4.926-2.054-.21-8,.223-10,2.667-1.849,2.259-2.667,4.667-2.408,8.926a65.291,65.291,0,0,0,2.115,13.587c1.449,5.421,6.661,17.855,10.683,22.072,9.539,10,16.091,8.933,24.832,7.971,6.671-.735,15.66-5.43,21.329-12.567a6.564,6.564,0,0,0,1.311-5.29c-.773-4.155-3.407-8.428-4.927-13.887C296.167,109.8,296.073,104,294.756,100.747Z"/><path class="b" d="M296.828,99.536a10.673,10.673,0,0,0-7.512-6.1c-3.675-.814-7.4-1.437-11.118-2.014-7.437-1.154-14.915-2.041-22.4-2.821-5.364-.559-11.744.29-14.565,5.469-1.652,3.034-1.7,6.424-1.449,9.784a70.092,70.092,0,0,0,1.744,11.408,77.244,77.244,0,0,0,6.347,16.315,41.888,41.888,0,0,0,4.405,7.172,28.262,28.262,0,0,0,26.416,9.977,45.945,45.945,0,0,0,17.109-5.733,29.49,29.49,0,0,0,8.433-7.608c2.252-3.055,1.76-6.879.42-10.193-1.35-3.338-3.2-6.461-4.4-9.862-1.211-3.45-1.525-7.1-2.1-10.685a22.172,22.172,0,0,0-1.092-4.534,2.469,2.469,0,0,0-2.952-1.676,2.417,2.417,0,0,0-1.676,2.952c1.122,2.906,1.3,6.135,1.776,9.187a37.4,37.4,0,0,0,2.935,9.753c1.273,2.825,2.961,5.573,3.7,8.606a4.489,4.489,0,0,1-.306,3.367,17.76,17.76,0,0,1-3.628,3.954c-4.271,3.8-9.766,5.669-15.228,7.023a26.968,26.968,0,0,1-14.82-.085,23.2,23.2,0,0,1-7.992-4.58,21.074,21.074,0,0,1-4.723-5.567,76.66,76.66,0,0,1-6.669-14.548,51.312,51.312,0,0,1-3.034-18.152c.069-1.958.782-4.545,2.2-5.584,1.654-1.209,4.122-1.465,6.154-1.531a66.091,66.091,0,0,1,9.529.885c3.787.435,7.57.907,11.343,1.451,3.813.549,7.619,1.161,11.4,1.9a16.271,16.271,0,0,1,4.86,1.266,6.382,6.382,0,0,1,2.741,3.232,2.415,2.415,0,0,0,3.283.861A2.461,2.461,0,0,0,296.828,99.536Z"/><path class="b" d="M312.748,129.414c3.614-1.576,6.74-4.481,9.557-7.173a89.305,89.305,0,0,0,9.013-10.022,29.234,29.234,0,0,0,2.877-4.25c1.425-2.737-2.716-5.167-4.144-2.423a20.244,20.244,0,0,1-1.3,2.107c-.3.433-.608.86-.922,1.282q-.258.345-.52.686c.284-.368-.274.343-.325.407-1.663,2.087-3.434,4.089-5.277,6.018a73.856,73.856,0,0,1-6.016,5.693,22.7,22.7,0,0,1-5.365,3.53,2.415,2.415,0,0,0-.861,3.284,2.46,2.46,0,0,0,3.283.861Z"/><path class="b" d="M294.446,97.813c7.759-6.915,16.536-13.37,26.1-17.531A2.416,2.416,0,0,0,321.4,77a2.461,2.461,0,0,0-3.284-.861A86.594,86.594,0,0,0,302.3,85.473a137.346,137.346,0,0,0-11.248,8.946c-2.311,2.06,1.094,5.445,3.394,3.394Z"/><path class="b" d="M319.251,84.288c2.184-2.37,5.485-4.126,8.751-2.83,2.777,1.1,4.053,4.523,4.287,7.288a19.821,19.821,0,0,1-5.718,15.477,26.312,26.312,0,0,1-8.474,5.4,2.48,2.48,0,0,0-1.676,2.953,2.415,2.415,0,0,0,2.952,1.676c7.142-2.948,13.189-7.669,16.058-15.036,2.743-7.041,2.847-18.5-5.323-22.052-5.068-2.2-10.672-.153-14.252,3.729-2.091,2.268,1.3,5.671,3.395,3.394Z"/><path class="b" d="M256.378,62.792c.073-12.463,3.4-24.779,10.743-34.933a52.9,52.9,0,0,1,26.62-19.576c20.3-6.375,44.462-4.351,61.627,8.989a76.077,76.077,0,0,1,9.979,9.483A54.447,54.447,0,0,1,374.2,39.339a60.836,60.836,0,0,1,4.575,14.442,77.327,77.327,0,0,1,1.4,10.952,48.9,48.9,0,0,1-.012,5.743c-.307,5.558-.392,11.148-1.117,16.674-.413,3.151-1.085,6.264-1.5,9.418s-.694,6.3-.813,9.464a88.581,88.581,0,0,0,.815,15.619c.49,3.5,1.234,6.941,2.052,10.375a60.631,60.631,0,0,1,1.428,7.408,41.456,41.456,0,0,1,.248,4.739c0,.9-.04,1.8-.1,2.7-.032.47-.068.941-.115,1.411-.052.53.083-.372-.026.206a14.926,14.926,0,0,1-.633,2.331c-.251.692.2-.41-.106.268-.094.21-.195.418-.3.624q-.322.63-.7,1.228a15.361,15.361,0,0,1-3.487,3.711,20.012,20.012,0,0,1-13.07,3.481,32.874,32.874,0,0,1-8.695-1.825c-2.934-.989-4.193,3.645-1.277,4.629,10.209,3.444,22.838,2.86,29.836-6.383,3.053-4.032,3.592-8.75,3.463-13.691-.134-5.153-1.412-10.094-2.528-15.091a88.387,88.387,0,0,1-1.3-30.309c.414-3.338,1.133-6.624,1.569-9.957.4-3.027.608-6.075.777-9.122.2-3.557.576-7.188.515-10.75a80.3,80.3,0,0,0-3.929-23.7,49.359,49.359,0,0,0-7.777-14.989,95.424,95.424,0,0,0-10.411-11.469,63.2,63.2,0,0,0-26.067-14.7,78.827,78.827,0,0,0-37.706-.934,64.01,64.01,0,0,0-15.758,5.527,58,58,0,0,0-14.943,11.377A61,61,0,0,0,258.1,33.473a62.507,62.507,0,0,0-5.709,19.053,75.065,75.065,0,0,0-.808,10.266c-.018,3.089,4.782,3.093,4.8,0Z"/><path class="b" d="M318.223,113c2.355,6.1,4.891,12.4,5.477,18.971a26.487,26.487,0,0,1-.6,8.874,20.486,20.486,0,0,1-1.259,3.664,39.448,39.448,0,0,1-2.327,3.84c-2.6,4.257,3.459,6.876,6.49,8.011a42.622,42.622,0,0,0,14.237,2.751,21.424,21.424,0,0,0,9.554-1.826,15.046,15.046,0,0,0,6.971-7.273,2.47,2.47,0,0,0-.861-3.284,2.421,2.421,0,0,0-3.284.861,10.945,10.945,0,0,1-4.913,5.388,15.638,15.638,0,0,1-7.064,1.338,38.277,38.277,0,0,1-12.485-2.267,22.82,22.82,0,0,1-2.477-.987c-.356-.17-.707-.351-1.049-.548-.174-.1-.343-.207-.513-.313-.061-.038-.589-.469-.208-.134-.118-.1-.232-.21-.342-.323-.2-.2.142.463.021.031-.1-.343.076.953.077.874,0-.184-.321.425-.009.124a4.917,4.917,0,0,0,.486-.661,20.315,20.315,0,0,0,1.29-2.086,28.6,28.6,0,0,0,3.062-16.054c-.629-7.059-3.116-13.688-5.648-20.247a2.471,2.471,0,0,0-2.953-1.676A2.418,2.418,0,0,0,318.223,113Z"/><path class="b" d="M254.185,48.354c7.628,7.458,16.973,13.365,26.141,18.731a126.882,126.882,0,0,0,23.057,10.477,61.25,61.25,0,0,0,16.052,3.566c3.086.183,3.075-4.618,0-4.8a53.527,53.527,0,0,1-13.212-2.875,123.38,123.38,0,0,1-12.872-5.018,150.373,150.373,0,0,1-22.235-12.823A97.133,97.133,0,0,1,257.579,44.96c-2.211-2.161-5.608,1.23-3.394,3.394Z"/><path class="b" d="M265.3,78.828c-1.036,2.633-1.09,8.9,3.723,9.853,6.43.526,7.458-6.961,5.618-10.686C273.13,74.946,268.032,73.284,265.3,78.828Z"/><path class="a" d="M47.206,180.491c-5.228,8.98-11.867,17.626-14.831,27.089-1.9,6.082-2.031,16.9-1.534,27.81H137.993c-4.57-29.119-7.493-58.155-23.593-80.013-3.592-4.877-5.867-4.82-10.3-5.044-17.628-.892-41.033,7.614-50.6,15.728A55.759,55.759,0,0,1,47.206,180.491Z"/><path class="a" d="M31.634,58.844a121.427,121.427,0,0,1-14.4-10.909A65.433,65.433,0,0,0,15.77,65.8c-.27,9.14-.61,21.82-8.97,26.35a8.521,8.521,0,0,0-3.88,3.9c-2,4.55,1.92,6.59,4.35,9.21a14,14,0,0,1,3.18,5.93,86.778,86.778,0,0,0,1.86,13.17,36.82,36.82,0,0,0,2.98,8.83c2.67,5.05,6.08,7.57,9.61,8.86,6.92,2.53,16.39,3.43,22.52,1.77a3.038,3.038,0,0,1,3.59,1.79c.09.23,3.934,10.224,3.712,18.058v1.407c6.342-4.841,17.313-9.682,28.769-12.454-1.733-.979-2.681-2.048-1.9-3.061A24.676,24.676,0,0,0,86.2,133.35c-.373-7.561-3.3-14.854-6.057-22.016,8.979-4.08,14.091-10.747,14.587-20.65.189-3.77-1.188-8.352-4.191-10.544a8.593,8.593,0,0,0-7.1-1.2l-4-.215C67.742,78.1,50.189,69.887,44.807,66.883,40.955,64.733,36.276,61.919,31.634,58.844Z"/><path class="b" d="M32.215,237.79H137.993c3.089,0,3.094-4.8,0-4.8H32.215c-3.088,0-3.093,4.8,0,4.8Z"/><path class="b" d="M33.235,235.27c-.246-5.565-.372-11.149-.07-16.714a41.621,41.621,0,0,1,2.275-12.517c3.318-8.867,9.305-16.494,14.009-24.631A58.442,58.442,0,0,0,55.814,166.7l-.618,1.059a49,49,0,0,1,9.286-5.785,88.944,88.944,0,0,1,12.676-5.079c8.9-2.841,18.221-4.6,27.592-4.129.5.025,1,.049,1.5.088.187.014.917.09.715.061a8.467,8.467,0,0,1,2.093.591,12.989,12.989,0,0,1,4.105,4.238,82.844,82.844,0,0,1,7.534,13.132c4.259,9.217,6.93,19.121,9,29.033,2.494,11.951,4.1,24.065,5.985,36.12a2.416,2.416,0,0,0,2.952,1.676,2.458,2.458,0,0,0,1.676-2.952c-2.547-16.263-4.525-32.72-9.011-48.6a112.652,112.652,0,0,0-8.512-21.869,79.214,79.214,0,0,0-6.071-9.79c-1.983-2.717-4.3-5.289-7.715-6.067a37.8,37.8,0,0,0-9.413-.527A78.312,78.312,0,0,0,88.5,149.124a99.452,99.452,0,0,0-21.179,6.307,78.749,78.749,0,0,0-9.049,4.433c-1.253.728-2.48,1.5-3.663,2.337s-2.947,1.8-3.424,3.222c-.594,1.77-1.034,3.566-1.73,5.309a53.317,53.317,0,0,1-2.319,4.937c-1.774,3.387-3.8,6.637-5.835,9.868-4.065,6.441-8.286,12.894-10.817,20.13-2.514,7.19-2.389,15.327-2.263,22.845.038,2.254.115,4.506.214,6.758.137,3.077,4.937,3.094,4.8,0Z"/><path class="c" d="M142.01,58.742c-1.054-8.1-3.7-19.643-10.314-28.1C117.534,12.551,101.772,2.03,73.021,2.458A76,76,0,0,0,51.442,6.514C37.315,11.38,25.749,22.9,19.682,35.682A56.621,56.621,0,0,0,15.927,46.7c7.141,7.011,20.143,15.305,28.88,20.182,5.382,3,22.935,11.217,34.628,11.845l2.271.762A9.256,9.256,0,0,1,83.168,79a8.709,8.709,0,0,1,7.367,1.143c3,2.192,4.38,6.774,4.191,10.544-.5,9.9-5.608,16.57-14.587,20.65C82.9,118.5,85.823,125.789,86.2,133.35a24.676,24.676,0,0,1-4.607,16.214c-2.062,2.68,7.966,5.748,12.653,6.586a30.734,30.734,0,0,0,11.506.036,37.259,37.259,0,0,0,7.662,4.439c18.1,6.219,29.234-3.648,30.058-12.339a44.836,44.836,0,0,0-1.23-15.559c-1.671-7.167-5.439-20.476-1.26-42.51,1.269-6.691,1.342-17.084,1.727-21.79A76.33,76.33,0,0,0,142.01,58.742Z"/><path class="b" d="M14.3,50.356a69.96,69.96,0,0,0-.966,9.28c-.1,2.825.067,5.644-.032,8.468a55.522,55.522,0,0,1-1.621,13.224,18.617,18.617,0,0,1-2.384,5.378,13.191,13.191,0,0,1-4.356,3.756A10.093,10.093,0,0,0,.1,97.131a7.755,7.755,0,0,0,2.083,6.507c1.432,1.663,3.32,2.881,4.489,4.772a10.137,10.137,0,0,1,1.393,3.07c.233,1.176.191,2.483.325,3.678.69,6.166,1.707,12.562,4.327,18.238a20.689,20.689,0,0,0,10.973,10.752,45.006,45.006,0,0,0,16.18,2.918,34.673,34.673,0,0,0,4.532-.258c.734-.092,1.469-.194,2.2-.335a7.708,7.708,0,0,1,1.5-.352c.471.026.356.078.687.39-.173-.163-.1-.292.024.045.207.551.4,1.109.586,1.667,1.662,4.946,3.032,10.2,2.925,15.449-.063,3.09,4.737,3.09,4.8,0A48.057,48.057,0,0,0,54.649,148.9c-1.028-3.373-2.158-7.626-6.549-7.575a27.75,27.75,0,0,0-3.631.673,28.613,28.613,0,0,1-3.814.268,42.538,42.538,0,0,1-8.037-.652c-4.727-.843-9.407-2.111-12.7-5.812-3.863-4.347-5.129-10.48-6.079-16.043a77.154,77.154,0,0,1-.959-7.977,14.066,14.066,0,0,0-3.508-7.746c-1.234-1.465-3.144-2.722-4.111-4.208a2.128,2.128,0,0,1-.482-1.74,4.748,4.748,0,0,1,1.71-2.843A25.6,25.6,0,0,1,9.057,93.59a15.149,15.149,0,0,0,2.727-2.332,19.486,19.486,0,0,0,3.538-5.8c4.394-10.734,1.7-22.681,3.6-33.823a2.469,2.469,0,0,0-1.676-2.952A2.419,2.419,0,0,0,14.3,50.356Z"/><path class="b" d="M78.223,113c2.355,6.1,4.891,12.4,5.477,18.971a26.487,26.487,0,0,1-.6,8.874,20.486,20.486,0,0,1-1.259,3.664,39.448,39.448,0,0,1-2.327,3.84c-2.6,4.257,3.459,6.876,6.49,8.011a42.622,42.622,0,0,0,14.237,2.751,21.424,21.424,0,0,0,9.554-1.826,15.046,15.046,0,0,0,6.971-7.273,2.47,2.47,0,0,0-.861-3.284,2.421,2.421,0,0,0-3.284.861,10.945,10.945,0,0,1-4.913,5.388,15.638,15.638,0,0,1-7.064,1.338,38.277,38.277,0,0,1-12.485-2.267,22.82,22.82,0,0,1-2.477-.987c-.356-.17-.707-.351-1.049-.548-.174-.1-.343-.207-.513-.313-.061-.038-.589-.469-.208-.134-.118-.1-.232-.21-.342-.323-.2-.2.142.463.021.031-.1-.343.076.953.077.874,0-.184-.321.425-.009.124a4.917,4.917,0,0,0,.486-.661,20.315,20.315,0,0,0,1.29-2.086A28.6,28.6,0,0,0,88.5,131.975c-.629-7.059-3.116-13.688-5.648-20.247a2.471,2.471,0,0,0-2.953-1.676A2.418,2.418,0,0,0,78.223,113Z"/><path class="b" d="M79.251,84.288c2.184-2.37,5.485-4.126,8.751-2.83,2.777,1.1,4.053,4.523,4.287,7.288a19.821,19.821,0,0,1-5.718,15.477,26.312,26.312,0,0,1-8.474,5.4,2.48,2.48,0,0,0-1.676,2.953,2.415,2.415,0,0,0,2.952,1.676c7.142-2.948,13.189-7.669,16.058-15.036,2.743-7.041,2.847-18.5-5.323-22.052-5.068-2.2-10.672-.153-14.252,3.729-2.091,2.268,1.3,5.671,3.4,3.394Z"/><path class="b" d="M14.185,48.354c7.628,7.458,16.973,13.365,26.141,18.731A126.882,126.882,0,0,0,63.383,77.562a61.25,61.25,0,0,0,16.052,3.566c3.086.183,3.075-4.618,0-4.8a53.527,53.527,0,0,1-13.212-2.875,123.38,123.38,0,0,1-12.872-5.018A150.373,150.373,0,0,1,31.116,55.612,97.133,97.133,0,0,1,17.579,44.96c-2.211-2.161-5.608,1.23-3.394,3.394Z"/><path class="b" d="M16.378,62.792c.073-12.463,3.4-24.779,10.743-34.933A52.9,52.9,0,0,1,53.741,8.283c20.3-6.375,44.462-4.351,61.627,8.989a76.077,76.077,0,0,1,9.979,9.483A54.447,54.447,0,0,1,134.2,39.339a60.836,60.836,0,0,1,4.575,14.442,77.327,77.327,0,0,1,1.4,10.952,48.9,48.9,0,0,1-.012,5.743c-.307,5.558-.392,11.148-1.117,16.674-.413,3.151-1.085,6.264-1.5,9.418s-.694,6.3-.813,9.464a88.581,88.581,0,0,0,.815,15.619c.49,3.5,1.234,6.941,2.052,10.375a60.631,60.631,0,0,1,1.428,7.408,41.456,41.456,0,0,1,.248,4.739c0,.9-.04,1.8-.1,2.7-.032.47-.068.941-.115,1.411-.052.53.083-.372-.026.206a14.926,14.926,0,0,1-.633,2.331c-.251.692.2-.41-.106.268-.094.21-.195.418-.3.624q-.322.63-.7,1.228a15.361,15.361,0,0,1-3.487,3.711,20.012,20.012,0,0,1-13.07,3.481,32.874,32.874,0,0,1-8.695-1.825c-2.934-.989-4.193,3.645-1.277,4.629,10.209,3.444,22.838,2.86,29.836-6.383,3.053-4.032,3.592-8.75,3.463-13.691-.134-5.153-1.412-10.094-2.528-15.091a88.387,88.387,0,0,1-1.3-30.309c.414-3.338,1.133-6.624,1.569-9.957.4-3.027.608-6.075.777-9.122.2-3.557.576-7.188.515-10.75a80.3,80.3,0,0,0-3.929-23.7,49.359,49.359,0,0,0-7.777-14.989,95.424,95.424,0,0,0-10.411-11.469,63.2,63.2,0,0,0-26.067-14.7,78.827,78.827,0,0,0-37.706-.934A64.01,64.01,0,0,0,43.451,7.374,58,58,0,0,0,28.508,18.751,61,61,0,0,0,18.1,33.473a62.507,62.507,0,0,0-5.709,19.053,75.065,75.065,0,0,0-.808,10.266c-.018,3.089,4.782,3.093,4.8,0Z"/><path class="b" d="M11.805,119.238a23.875,23.875,0,0,0,11.767-2.411,2.42,2.42,0,0,0,.861-3.283,2.452,2.452,0,0,0-3.284-.861,6.2,6.2,0,0,1-1.114.544c.625-.182-.128.043-.253.09q-.252.092-.507.176a18.6,18.6,0,0,1-2.554.64c-.213.039-.426.071-.639.106q-.41.059.085-.01l-.278.034c-.436.05-.874.088-1.312.117-.923.06-1.848.073-2.772.058a2.4,2.4,0,0,0,0,4.8Z"/><path class="b" d="M25.3,78.828c-1.036,2.633-1.09,8.9,3.723,9.853,6.43.526,7.458-6.961,5.618-10.686C33.13,74.946,28.032,73.284,25.3,78.828Z"/></svg>