<?xml version="1.0" encoding="utf-8"?>
<!-- Uploaded to: SVG Repo, www.svgrepo.com, Generator: SVG Repo Mixer Tools -->
<svg width="800px" height="800px" viewBox="0 -7.83 353.208 353.208" xmlns="http://www.w3.org/2000/svg"><defs><style>.a{fill:#ffffff;}.b{fill:#211715;}.c{fill:#79c6e0;}.d{fill:#f4b467;}.e{fill:#f2635f;}</style></defs><path class="a" d="M291.262,306.523c-20.34,0-34.4,5.937-34.4,12.885,0,8.043,2.844,13.128,34.4,13.128,36.589,0,34.4-5.085,34.4-13.128C325.664,312.413,311.53,306.523,291.262,306.523Z"/><path class="b" d="M291.262,304.523c-8.815.02-18.111.868-26.323,4.3-4.611,1.926-10.1,5.241-10.075,10.892.013,3.023.627,6.012,2.691,8.323,2.756,3.084,7.247,4.267,11.153,4.991,8.333,1.544,16.956,1.563,25.4,1.5,7.527-.06,15.252-.146,22.662-1.635,3.2-.644,6.9-1.674,9.036-4.333,1.664-2.068,1.9-4.613,1.88-7.176a12.323,12.323,0,0,0-.718-5.058,12.982,12.982,0,0,0-5.219-5.421c-6.654-4.171-15.133-5.475-22.812-6.083-2.554-.2-5.114-.291-7.675-.3s-2.578,3.994,0,4c8.2.018,16.711.786,24.41,3.8a18.446,18.446,0,0,1,6.385,3.855,6.168,6.168,0,0,1,.738.853c.134.2.264.4.381.61.058.105.347.776.2.376.077.208.14.419.2.632.029.105.111.613.082.375-.031-.266.006.366.008.435,0,.159,0,.319,0,.478.01,1.062.054,2.126-.007,3.187-.013.23-.039.46-.056.69-.03.437.1-.51.014-.084-.027.13-.043.263-.07.394-.044.215-.1.428-.158.638-.033.111-.079.22-.108.331-.116.437.1-.179.022-.034-.105.192-.2.391-.307.584-.057.106-.139.2-.2.3-.187.337.341-.337,0,0-.173.171-.325.361-.5.528-.1.093-.208.178-.309.271-.3.281.375-.219-.069.048a19.535,19.535,0,0,1-1.739.967c-.316.148.321-.118-.117.048-.19.072-.378.146-.569.214-.444.158-.893.3-1.346.427-5.489,1.562-11.318,1.741-17.033,1.936a197.045,197.045,0,0,1-26.283-.513,51.3,51.3,0,0,1-8-1.352,14.792,14.792,0,0,1-4.842-1.949c-.183-.115-.956-.7-.536-.352a9.8,9.8,0,0,1-.789-.707c-.156-.159-.694-.83-.338-.345a8.672,8.672,0,0,1-.525-.791c-.136-.238-.251-.483-.368-.731.289.609-.089-.281-.152-.492-.079-.263-.145-.53-.2-.8-.031-.145-.054-.292-.083-.438-.078-.406-.035-.278-.016-.084-.063-.624-.106-1.247-.118-1.875-.006-.344-.01-.688.018-1.032-.037.453.025-.114.066-.265.059-.213.122-.422.2-.629-.147.4.09-.177.154-.3.113-.21.241-.409.37-.609a5.184,5.184,0,0,1,.786-.925,11.975,11.975,0,0,1,2.635-2.019c6.134-3.706,13.88-4.87,20.9-5.4,2.417-.18,4.84-.259,7.264-.264C293.835,308.517,293.84,304.517,291.262,304.523Z"/><path class="a" d="M298.747,256.575c0,12.64-.184,36.594-.281,53.557,0,.96-2.941,1.68-6.941,1.68-3.6,0-6.671-.48-6.671-1.68.108-17.632.291-40.915.291-53.607Z"/><path class="b" d="M296.747,256.575c0,15.507-.142,31.013-.239,46.519q-.018,2.9-.035,5.788a4.329,4.329,0,0,0-.007,1.25l.368-.974.14-.11c.086.038-.309.11-.095.076-.766.121-1.5.432-2.284.529a24.533,24.533,0,0,1-6.547-.033c-.419-.064-.852-.239-1.267-.282-1.456-.154-.047-.032-.136-.031-.781.007,0-.175-.111-.028l.32.853,0-.379a5.12,5.12,0,0,0,0-.763q0-.771.01-1.544.081-12.882.168-25.764c.052-8.385.106-16.771.106-25.157,0-2.574-4-2.578-4,0,0,17.1-.169,34.207-.277,51.31-.012,1.942-.239,3.891,1.758,4.926,1.9.985,4.344,1.022,6.432,1.048,3.1.039,9.386.158,9.411-4.21q.076-13.226.165-26.45c.054-8.858.112-17.716.113-26.574,0-2.573-4-2.578-4,0Z"/><path class="a" d="M291.274,172.355c-25.72,0-43.5,19.921-43.5,43.231,0,26.985,16.825,44.042,43.5,44.042,27.3,0,43.5-17.057,43.5-44.042C334.776,192.117,316.9,172.355,291.274,172.355Z"/><path class="a" d="M285.28,211.706c-3.7-3.444-7.76-9.028-8.144-13.265a12.75,12.75,0,0,1,4.711-11.272c2.975-2.218,6.849-2.941,10.559-2.941,7.885,0,10.891,2.768,12.3,4.279a7.4,7.4,0,0,1,1.69,4.029c.19,1.888-1.494,4.532-2.859,5.849-1.82,1.754-4.484,3.379-6.628,5.328a11.615,11.615,0,0,0-3.759,5.137Z"/><path class="a" d="M298.528,214.362c4.832-1.493,11.695-2.225,15.56-.446a12.749,12.749,0,0,1,7.422,9.7c.439,3.685-.865,7.4-2.714,10.62-3.931,6.835-7.83,8.061-9.844,8.532a7.414,7.414,0,0,1-4.335-.544c-1.731-.776-3.184-3.554-3.644-5.394-.614-2.452-.694-5.572-1.315-8.4a11.619,11.619,0,0,0-2.579-5.818Z"/><path class="a" d="M291.385,223.023c-1.027,4.952-3.7,11.315-7.127,13.839a12.75,12.75,0,0,1-12.081,1.811c-3.438-1.4-6.065-4.334-7.987-7.508-4.085-6.743-3.276-10.749-2.714-12.74a7.41,7.41,0,0,1,2.57-3.533c1.516-1.14,4.65-1.07,6.484-.584,2.443.647,5.213,2.084,7.991,2.908a11.626,11.626,0,0,0,6.341.553Z"/><path class="b" d="M286.694,210.292a32.163,32.163,0,0,1-5.112-6.1,13.422,13.422,0,0,1-2.484-6.315,10.575,10.575,0,0,1,8.084-11.031c4.186-1.112,9.657-1.06,13.537,1.053a7.257,7.257,0,0,1,2.491,1.931,5.149,5.149,0,0,1,1.189,2.705,4.812,4.812,0,0,1-1.057,2.948c-1.639,2.534-4.566,4.078-6.849,5.958a16.278,16.278,0,0,0-5.268,6.876,2.015,2.015,0,0,0,1.4,2.46,2.044,2.044,0,0,0,2.46-1.4c1.056-2.787,3.621-4.686,5.925-6.417,2.457-1.845,4.932-3.642,6.361-6.448a8.13,8.13,0,0,0-.49-8.466,11.765,11.765,0,0,0-3.571-3.274c-4.667-2.888-11.162-3.123-16.383-1.98a14.56,14.56,0,0,0-11.72,12.64c-.846,6.875,3.916,13.216,8.662,17.684,1.873,1.764,4.707-1.059,2.828-2.828Z"/><path class="b" d="M299.06,216.291a32.253,32.253,0,0,1,7.415-1.368,15.011,15.011,0,0,1,6.6.72,10.519,10.519,0,0,1,6.27,11.848,21.854,21.854,0,0,1-3.626,7.873,14.912,14.912,0,0,1-4.209,4.222,7.543,7.543,0,0,1-3.093,1.256c-2.526.439-4.1-1.042-5.057-3.189-1.157-2.593-1.066-5.7-1.53-8.464a16.238,16.238,0,0,0-3.34-7.991c-1.633-1.992-4.448.852-2.828,2.828,1.791,2.184,2.2,5.161,2.547,7.879.382,3.032.633,6.023,2.193,8.723a8.125,8.125,0,0,0,7.38,4.27,11.365,11.365,0,0,0,5.14-1.5c4.992-2.705,8.651-8.623,10.074-13.973a14.548,14.548,0,0,0-6-16.155c-5.425-3.677-13.086-2.624-19.007-.832-2.458.743-1.411,4.6,1.063,3.857Z"/><path class="b" d="M289.456,222.491a32.369,32.369,0,0,1-2.3,7.006,15.636,15.636,0,0,1-3.853,5.583,10.513,10.513,0,0,1-13.283,0,20.673,20.673,0,0,1-4.816-6.153,16.734,16.734,0,0,1-2.144-6.169,8.265,8.265,0,0,1,.27-3.538,4.217,4.217,0,0,1,4.352-3.241c2.87-.018,5.5,1.419,8.119,2.417a17.456,17.456,0,0,0,9.59,1.305c2.528-.462,1.457-4.317-1.064-3.857-3.23.59-6.466-.892-9.4-2.073-2.74-1.1-5.442-2.054-8.443-1.716-5.116.577-7.713,5.425-7.462,10.205.292,5.568,3.537,11.412,7.592,15.142a14.537,14.537,0,0,0,17.01,2.222c5.677-3.026,8.412-10.107,9.684-16.065.536-2.511-3.319-3.584-3.857-1.064Z"/><path class="b" d="M291.274,170.355a46.138,46.138,0,0,0-28.04,9.24,44.8,44.8,0,0,0-15.683,23.18,52.457,52.457,0,0,0,.468,29,41.14,41.14,0,0,0,14.538,21.213c7.349,5.526,16.515,8.093,25.606,8.562,9.415.486,19.193-1.053,27.531-5.616a38.757,38.757,0,0,0,16.726-18.269,53.4,53.4,0,0,0,3.964-28.049,45.468,45.468,0,0,0-11.9-25.4,44.449,44.449,0,0,0-25.2-13.2,52.192,52.192,0,0,0-8.012-.654c-2.574-.01-2.578,3.99,0,4a42.273,42.273,0,0,1,25.781,8.491,40.665,40.665,0,0,1,14.168,21.245,49.271,49.271,0,0,1-.429,26.435,36.558,36.558,0,0,1-12.388,18.88c-6.587,5.124-14.9,7.567-23.137,8.1-8.728.561-17.8-.623-25.605-4.747a35.859,35.859,0,0,1-15.732-16.6,48.509,48.509,0,0,1-3.848-25.851,40.414,40.414,0,0,1,34.047-35.4,45.311,45.311,0,0,1,7.143-.543C293.847,174.345,293.852,170.345,291.274,170.355Z"/><path class="a" d="M291.275,207.542a8.258,8.258,0,0,0-8.422,8.371c0,5.225,3.258,8.528,8.423,8.528,5.285,0,8.423-3.3,8.423-8.528A8.253,8.253,0,0,0,291.275,207.542Z"/><path class="b" d="M291.275,205.542a10.408,10.408,0,0,0-10.016,7.443c-1.144,3.977.031,8.773,3.364,11.349a11.662,11.662,0,0,0,12.109.83c3.686-1.956,5.363-6.357,4.9-10.37a10.393,10.393,0,0,0-10.353-9.252c-2.575-.033-2.576,3.967,0,4a6.287,6.287,0,0,1,6.216,4.705,7.826,7.826,0,0,1-.135,4.187,4.55,4.55,0,0,1-.785,1.665c-.069.106-.141.211-.218.311.242-.316-.151.157-.169.176-.106.115-.217.226-.331.333-.055.052-.538.45-.246.231a6.314,6.314,0,0,1-3.624,1.271,11.487,11.487,0,0,1-2.179-.089,6.973,6.973,0,0,1-1.912-.622,6.854,6.854,0,0,1-.9-.56c.229.171-.367-.339-.455-.428s-.6-.721-.418-.465a7.619,7.619,0,0,1-.684-1.171,8.06,8.06,0,0,1-.541-4.066c-.033.287.028-.166.041-.231.052-.249.107-.5.178-.741a5.665,5.665,0,0,1,.341-.924,5.841,5.841,0,0,1,1.457-1.973,7.831,7.831,0,0,1,1.681-1.091,6.726,6.726,0,0,1,2.679-.518C293.847,209.509,293.854,205.509,291.275,205.542Z"/><path class="a" d="M13.233,291.619a25.339,25.339,0,0,1-6.383-4.045,12.653,12.653,0,0,1-3.581-5.41,19.338,19.338,0,0,1-1.1-4.74c-.293-10.023-.174-25.542.2-39.9a12.854,12.854,0,0,1,12.881-12.508c40.054.079,75.344.188,82.545.188,32.078-.07,59.368-.151,78.965-.188a12.848,12.848,0,0,1,12.873,12.508c.378,14.357.5,29.876.2,39.9a19.338,19.338,0,0,1-1.1,4.74,12.66,12.66,0,0,1-3.58,5.41,25.343,25.343,0,0,1-6.384,4.045Z"/><path class="a" d="M13.913,287.611c0,2.659-.029,4.323-.029,7.285a3.275,3.275,0,0,0,3.486,3.142H174.635a3.274,3.274,0,0,0,3.485-3.142c0-2.962-.029-4.626-.029-7.285Z"/><path class="b" d="M14.242,289.893a20.688,20.688,0,0,1-6.78-4.489,13.943,13.943,0,0,1-3.162-6.94,38.854,38.854,0,0,1-.254-6.978Q4,267.463,4,263.44q.006-9.027.189-18.051a86.832,86.832,0,0,1,.247-8.9,10.857,10.857,0,0,1,7.187-8.865c2.461-.831,5.038-.6,7.6-.6q9.6.02,19.209.042,16.557.038,33.113.08,24.167.061,48.332.006l33.623-.083q7.128-.018,14.255-.034l6.53-.014a17.808,17.808,0,0,1,6.257.656,10.908,10.908,0,0,1,7.056,9.155c.252,2.982.168,6.029.224,9.021q.085,4.6.133,9.212c.056,5.536.072,11.072,0,16.608-.062,4.747.1,10.017-3.413,13.73a20.673,20.673,0,0,1-6.78,4.489,2.013,2.013,0,0,0-.718,2.736,2.053,2.053,0,0,0,2.737.717,24.612,24.612,0,0,0,7.326-4.844,16.361,16.361,0,0,0,4.032-7.332,28.965,28.965,0,0,0,.792-7.839q.069-4.1.07-8.207.016-9.4-.171-18.806c-.1-5.36.578-11.371-2.338-16.147a15.049,15.049,0,0,0-12.038-7.137c-4.587-.241-9.249,0-13.843.011q-16.47.039-32.94.082-26.85.067-53.7.034-16.526-.042-33.05-.082l-19.785-.044c-5.568-.012-11.749-.9-16.713,2.193A15.061,15.061,0,0,0,.384,237.177c-.369,6.391-.292,12.845-.348,19.245-.05,5.756-.058,11.513.044,17.268a27.719,27.719,0,0,0,.845,7.679,15.978,15.978,0,0,0,4.106,7.259,25.168,25.168,0,0,0,7.192,4.718,2.068,2.068,0,0,0,2.737-.717,2.014,2.014,0,0,0-.718-2.736Z"/><path class="b" d="M11.913,287.611c0,1.557-.013,3.114-.021,4.671-.009,1.735-.234,3.6.688,5.162a5.689,5.689,0,0,0,4.894,2.594c.671.02,1.347,0,2.018,0h151.28c3.132,0,7.109.512,8.8-2.87.755-1.51.55-3.252.541-4.886-.008-1.557-.02-3.114-.021-4.671a2.029,2.029,0,0,0-2-2H34.427c-6.719,0-13.467-.182-20.185,0-.11,0-.22,0-.329,0-2.574,0-2.578,4,0,4H171.242c2.151,0,4.374.161,6.52,0,.109-.008.22,0,.329,0l-2-2c0,1.557.013,3.114.021,4.671.006,1.021.477,2.861-.543,3.517a2.263,2.263,0,0,1-1.282.239c-.823.007-1.648,0-2.472,0H18.623a4.116,4.116,0,0,1-2.3-.3c-.889-.667-.436-2.512-.431-3.456.008-1.557.02-3.114.021-4.671C15.914,285.037,11.914,285.033,11.913,287.611Z"/><path class="b" d="M16.127,277.487q10.031,0,20.06.032l36.145.072q20.987.042,41.973.078,18.756.032,37.513.05c7.588.006,15.177.023,22.766-.013l1.293-.007c2.573-.02,2.579-4.02,0-4-6.768.052-13.538.026-20.307.023q-18.135-.01-36.272-.044-20.989-.035-41.98-.077l-37.4-.075q-11.268-.022-22.535-.039H16.127c-2.574,0-2.578,4,0,4Z"/><path class="b" d="M16.127,265.735c3.288,0,6.577.04,9.865.017a2,2,0,1,0,0-4c-3.288.023-6.577-.016-9.865-.017a2,2,0,1,0,0,4Z"/><path class="c" d="M73.42,310.855a9.729,9.729,0,0,0-5.269,4.818,16.378,16.378,0,0,0-1.294,7.121c0,2.536.148,5.3-1.5,7.413a10.5,10.5,0,0,1-6.043,3.425c-2.507.583-1.446,4.441,1.063,3.857a15.213,15.213,0,0,0,6.951-3.549,11.259,11.259,0,0,0,3.408-7.215c.44-3.916-.941-10.047,3.75-12.013a2.068,2.068,0,0,0,1.4-2.46,2.013,2.013,0,0,0-2.461-1.4Z"/><path class="c" d="M95.643,310.855a9.735,9.735,0,0,0-5.27,4.818,16.378,16.378,0,0,0-1.294,7.121c0,2.536.148,5.3-1.5,7.413a10.5,10.5,0,0,1-6.043,3.425c-2.506.583-1.446,4.441,1.063,3.857a15.208,15.208,0,0,0,6.951-3.549,11.259,11.259,0,0,0,3.408-7.215c.44-3.916-.941-10.047,3.75-12.013a2.067,2.067,0,0,0,1.4-2.46,2.012,2.012,0,0,0-2.46-1.4Z"/><path class="c" d="M117.865,310.855a9.735,9.735,0,0,0-5.27,4.818,16.377,16.377,0,0,0-1.293,7.121c0,2.536.147,5.3-1.5,7.413a10.5,10.5,0,0,1-6.043,3.425c-2.506.583-1.445,4.441,1.063,3.857a15.208,15.208,0,0,0,6.951-3.549,11.265,11.265,0,0,0,3.409-7.215c.439-3.916-.942-10.047,3.749-12.013a2.066,2.066,0,0,0,1.4-2.46,2.012,2.012,0,0,0-2.46-1.4Z"/><path class="d" d="M291.213,40.934a20.5,20.5,0,0,0-20.908,20.779c0,12.97,8.088,21.169,20.909,21.169,13.119,0,20.908-8.2,20.908-21.169A20.484,20.484,0,0,0,291.213,40.934Z"/><path class="b" d="M291.213,38.934a22.781,22.781,0,0,0-22,16.3c-2.56,8.908.067,19.653,7.64,25.32,7.3,5.464,18.722,5.771,26.626,1.445,8.19-4.482,11.6-14.328,10.447-23.257A22.687,22.687,0,0,0,306.679,44.7a23.327,23.327,0,0,0-15.466-5.768c-2.575-.02-2.577,3.98,0,4A18.69,18.69,0,0,1,309.4,56.427c1.978,7.073.214,16.094-5.809,20.748a19.185,19.185,0,0,1-10.639,3.657,22.063,22.063,0,0,1-11.68-2.191c-6.933-3.7-9.765-11.865-8.829-19.393a18.857,18.857,0,0,1,5.88-11.48,19.051,19.051,0,0,1,12.888-4.834C293.786,42.914,293.792,38.914,291.213,38.934Z"/><path class="b" d="M289.276,1.932v19.13c0,2.574,4,2.578,4,0V1.932c0-2.574-4-2.578-4,0Z"/><path class="b" d="M293.276,121.932V102.8c0-2.574-4-2.579-4,0v19.13c0,2.574,4,2.578,4,0Z"/><path class="b" d="M289.276,1.932v19.13c0,2.574,4,2.578,4,0V1.932c0-2.574-4-2.578-4,0Z"/><path class="b" d="M293.276,121.932V102.8c0-2.574-4-2.579-4,0v19.13c0,2.574,4,2.578,4,0Z"/><path class="b" d="M231.276,63.932h19.13c2.574,0,2.578-4,0-4h-19.13c-2.574,0-2.579,4,0,4Z"/><path class="b" d="M351.276,59.932H332.145c-2.574,0-2.578,4,0,4h19.131c2.573,0,2.578-4,0-4Z"/><path class="b" d="M247.435,20.92l13.527,13.527a2,2,0,0,0,2.829-2.828L250.263,18.091a2,2,0,1,0-2.828,2.829Z"/><path class="b" d="M335.116,102.944,321.589,89.417a2,2,0,1,0-2.829,2.828l13.528,13.528a2,2,0,0,0,2.828-2.829Z"/><path class="b" d="M332.288,18.091,318.76,31.619a2,2,0,1,0,2.829,2.828L335.116,20.92a2,2,0,0,0-2.828-2.829Z"/><path class="b" d="M250.263,105.773l13.528-13.528a2,2,0,0,0-2.829-2.828l-13.527,13.527a2,2,0,1,0,2.828,2.829Z"/><path class="a" d="M69.229,120.881c0-25.45.081-87.512.087-110.154a2.454,2.454,0,0,1,2.465-2.452c11.887.033,44.188.237,59.715.26a2.455,2.455,0,0,1,2.452,2.459c.017,20.639.192,82.817.2,110.13a2.46,2.46,0,0,1-2.465,2.465c-14.93-.021-50.394-.2-60.014-.251A2.451,2.451,0,0,1,69.229,120.881Z"/><path class="b" d="M71.229,120.881q0-15.876.021-31.752.016-19.632.036-39.263.016-16.7.028-33.406,0-1.562,0-3.123,0-.694,0-1.39a3.867,3.867,0,0,1,.017-1.342c.3-.613,1.655-.326,2.231-.324l3.37.013q8.853.038,17.706.086,10.141.051,20.282.1,4.608.021,9.217.037,2.078.008,4.157.012l1.84,0c.368,0,1.274-.165,1.59.066.477.349.223,1.7.224,2.23l0,2.837q.006,3.256.011,6.511.015,8.087.033,16.173.04,19.351.084,38.7.037,18.039.063,36.078,0,3.5.006,6.991c0,1.268-.028,1.467-1.328,1.464l-3.462-.007q-8.7-.022-17.392-.061-17.271-.072-34.54-.162c-.657,0-4.142.381-4.2-.476-.17-2.556-4.171-2.574-4,0a4.57,4.57,0,0,0,3.259,4.3,11.888,11.888,0,0,0,3.047.171l6.486.033q9.078.045,18.157.087,9.865.045,19.732.083,4.337.015,8.674.028c2.531.007,6.144.665,8.141-1.191,2.073-1.926,1.425-5.483,1.422-8.056q0-3.924-.009-7.848-.012-9.282-.031-18.563-.04-20.487-.087-40.974-.037-16.69-.067-33.383c0-2.041.443-4.839-.542-6.677-1.622-3.03-5.478-2.353-8.358-2.361q-9.823-.029-19.648-.081l-20.8-.1Q82.216,6.318,77.83,6.3l-3.617-.015a13.928,13.928,0,0,0-3.618.15,4.556,4.556,0,0,0-3.279,4.294c-.044.934,0,1.88,0,2.815q0,3.422,0,6.843-.006,8.491-.013,16.983Q67.28,57.534,67.26,77.7q-.017,18.308-.029,36.614,0,3.282,0,6.565C67.228,123.454,71.228,123.459,71.229,120.881Z"/><path class="a" d="M93.824,53.732c0-6.923,0-11.591,0-20.015a7.869,7.869,0,0,1,15.738,0c0,20.984-.058,31.773-.058,52.458a13.392,13.392,0,0,1,5.8,11.178c0,8.109-5.376,13.774-13.612,13.774-7.919,0-13.6-5.611-13.6-13.774a13.488,13.488,0,0,1,5.749-11.161C93.831,73.8,93.827,64.06,93.824,53.732Z"/><path class="b" d="M95.824,53.732c0-6.508-.022-13.016,0-19.524.006-2.512,1.067-4.9,3.535-5.888a6.126,6.126,0,0,1,6.909,1.659c1.949,2.382,1.294,5.94,1.293,8.783q0,5.356-.01,10.713-.013,9.577-.033,19.154-.007,5.163-.012,10.324,0,2.881,0,5.761c0,.974-.171,2.119.586,2.875.545.545,1.252.937,1.81,1.485a12.483,12.483,0,0,1,1.578,15.129c-2.648,4.246-8.164,5.71-12.86,4.58a11.129,11.129,0,0,1-8.5-10.38,12.088,12.088,0,0,1,2.424-8.3A11.665,11.665,0,0,1,94.214,88.4c.786-.657,1.535-1.078,1.617-2.208.144-1.972,0-4.01,0-5.989q0-10.669-.006-21.341,0-2.565,0-5.13c0-2.574-4-2.578-4,0q0,16.23.007,32.46l.991-1.727a15.886,15.886,0,0,0-6.613,14.957,15.183,15.183,0,0,0,7.685,11.82,17.228,17.228,0,0,0,14.824.424A14.592,14.592,0,0,0,116.9,101.2a16.126,16.126,0,0,0-6.395-16.753l.991,1.727q0-21.039.053-42.078,0-2.783,0-5.566a53.508,53.508,0,0,0-.058-5.8,9.852,9.852,0,0,0-4.61-7.416,10.02,10.02,0,0,0-14.723,5.782,22.78,22.78,0,0,0-.346,5.9q0,2.915,0,5.829,0,5.457,0,10.914C91.825,56.306,95.825,56.31,95.824,53.732Z"/><path class="b" d="M116.019,42.315c1.519,0,3.038-.019,4.557-.019a2.064,2.064,0,0,0,1.415-.586,2,2,0,0,0-1.415-3.414c-1.519,0-3.038.019-4.557.019a2.064,2.064,0,0,0-1.414.586,2,2,0,0,0,1.414,3.414Z"/><path class="b" d="M116.019,60.4c1.519,0,3.038-.019,4.557-.019a2.064,2.064,0,0,0,1.415-.586,2,2,0,0,0-1.415-3.414c-1.519,0-3.038.019-4.557.019a2.064,2.064,0,0,0-1.414.586,2,2,0,0,0,1.414,3.414Z"/><path class="b" d="M116.019,78.481c1.519,0,3.038-.019,4.557-.02a2.068,2.068,0,0,0,1.415-.585,2,2,0,0,0-1.415-3.415c-1.519,0-3.038.019-4.557.02a2.064,2.064,0,0,0-1.414.586,2,2,0,0,0,1.414,3.414Z"/><path class="b" d="M82.574,42.315c1.519,0,3.038-.019,4.557-.019a2.062,2.062,0,0,0,1.414-.586A2,2,0,0,0,87.131,38.3c-1.519,0-3.038.019-4.557.019a2.062,2.062,0,0,0-1.414.586,2,2,0,0,0,1.414,3.414Z"/><path class="b" d="M82.574,60.4c1.519,0,3.038-.019,4.557-.019a2.062,2.062,0,0,0,1.414-.586,2,2,0,0,0-1.414-3.414c-1.519,0-3.038.019-4.557.019a2.062,2.062,0,0,0-1.414.586A2,2,0,0,0,82.574,60.4Z"/><path class="b" d="M82.574,78.481c1.519,0,3.038-.019,4.557-.02a2.065,2.065,0,0,0,1.414-.585,2,2,0,0,0-1.414-3.415c-1.519,0-3.038.019-4.557.02a2.062,2.062,0,0,0-1.414.586,2,2,0,0,0,1.414,3.414Z"/><path class="e" d="M98.569,96.9c0-8.184-.023-34.394-.027-44.985a3.144,3.144,0,0,1,3.145-3.146h0a3.15,3.15,0,0,1,3.15,3.15V96.892a1.1,1.1,0,0,1-1.1,1.1H99.67A1.094,1.094,0,0,1,98.569,96.9Z"/><path class="e" d="M101.689,89.712a7.5,7.5,0,0,0-7.644,7.6,7.372,7.372,0,0,0,7.645,7.739c4.624,0,7.644-3.186,7.644-7.739A7.489,7.489,0,0,0,101.689,89.712Z"/></svg>