<?xml version="1.0" encoding="utf-8"?>
<!-- Uploaded to: SVG Repo, www.svgrepo.com, Generator: SVG Repo Mixer Tools -->
<svg width="800px" height="800px" viewBox="0 -48.74 451.32 451.32" xmlns="http://www.w3.org/2000/svg"><defs><style>.a{fill:#ffffff;}.b{fill:#fcc56b;}.c{fill:#ef8561;}.d{fill:#211715;}.e{fill:#5394cf;}.f{fill:#7a7473;}</style></defs><path class="a" d="M109.493,2.849V2c-8.98,0-92.62.13-102.51.12,0,4.25-.29,97.718-.37,126.314,20.017,0,83.124-.015,102.859-.017C109.463,127.727,109.49,13.836,109.493,2.849Z"/><path class="a" d="M114.048,131.663c-.007,1.883-.016,6.181-.023,8.048a3.232,3.232,0,0,1-3.234,3.223L5.3,142.913a3.231,3.231,0,0,1-3.231-3.273c.022-1.869.049-6.155.07-8.012a3.23,3.23,0,0,1,3.233-3.2c18.93,0,87.031-.013,105.444-.014A3.232,3.232,0,0,1,114.048,131.663Z"/><path class="b" d="M18.374,101.414c-.032,8.523-.052,14.388-.052,15.368,5.107,0,76.947.183,79.413.183,0-.352,0-4.411,0-10.766l-6.6-3.665c-10.179-7.041-41.7-25.351-50-25.351a23.54,23.54,0,0,0-17.658,7.595c-1.222,1.33-3.665,3.774-3.665,3.774s-.536.535-1.4,1.4C18.4,94.108,18.386,97.977,18.374,101.414Z"/><path class="c" d="M97.742,97.048c0,3.525,0,6.724,0,9.476-3.351-2.028-6.6-3.99-6.6-3.99a314.549,314.549,0,0,0-27.749-16.4l.479-.361C67.24,82.94,76.5,77.515,80.963,77.515c5.056,0,8.5,2.647,11.809,4.928.95.654,3.692,2.769,3.692,2.769l1.281.959C97.744,90.025,97.743,93.686,97.742,97.048Z"/><path class="b" d="M61.2,49.35a23.442,23.442,0,0,1,8.015,4.468c1.384,1.071,5.526,4.391,6.261,4.92a4.5,4.5,0,0,0,1.074.747c.344.092.53-.115.785-.345A12.678,12.678,0,0,0,79.9,55.564a18.2,18.2,0,0,0,1.98-5.3,14.528,14.528,0,0,0-1.346-8.576c-.23-.451-.474-.5-.924-.522a25.854,25.854,0,0,0-2.7.108l-1.552.085a9.9,9.9,0,0,1-1.564.077c.153-.166.25-.368.386-.547l.454-.6.939-1.234.908-1.194c.151-.2.3-.4.454-.6a1.952,1.952,0,0,0,.371-.587c.115-.466-.456-1.218-.69-1.615a10.579,10.579,0,0,0-2.675-2.908,15.734,15.734,0,0,0-5.315-2.7,16,16,0,0,0-4.734-.639,10.254,10.254,0,0,0-2.347.306c-.762.2-1.387.258-1.245,1.208.853,5.711,1.738,12.079.3,17.743,0,0-.244.847-.319,1.022C60.47,49.136,61.2,49.35,61.2,49.35Z"/><path class="d" d="M8.613,128.43q.032-11.508.067-23.015l.093-30.966.1-32.044q.039-13.124.077-26.248c.013-4.505.252-9.076.036-13.577-.007-.153,0-.307,0-.46l-2,2q18.239.018,36.479-.036Q68.929,4.051,94.4,4.016q7.548-.01,15.1-.016l-2-2,0,12.546L107.483,44.8l-.009,36.487-.008,31.633c0,5.082-.194,10.206,0,15.286,0,.07,0,.14,0,.21,0,2.574,4,2.578,4,0l0-12.546.007-30.258.009-36.487.007-31.633c0-5.082.195-10.206,0-15.286,0-.07,0-.14,0-.21a2.03,2.03,0,0,0-2-2Q91.578,0,73.664.043,48.1.078,22.546.109,14.764.118,6.983.12a2.029,2.029,0,0,0-2,2c0,3.846-.019,7.693-.03,11.539Q4.919,26.188,4.88,38.716q-.048,15.851-.095,31.7-.048,15.735-.095,31.47-.036,12.183-.071,24.367l-.006,2.175c-.007,2.574,3.993,2.578,4,0Z"/><path class="d" d="M95.767,13.732q0,6.765,0,13.531,0,12.373-.007,24.746,0,14.2-.01,28.409,0,12.037-.008,24.075,0,4.056,0,8.111c0,1.34-.114,2.736,0,4.073.008.094,0,.193,0,.288l2-2c-8.865,0-17.731-.041-26.6-.062q-20.607-.05-41.214-.1c-3.868-.008-7.735-.022-11.6-.022l2,2c0-3.808.024-7.616.039-11.424q.045-11.966.093-23.932.055-14.169.112-28.338.05-12.528.1-25.056.027-6.837.048-13.673v-.506l-2,2c9.484.009,18.967-.02,28.451-.036q19.176-.034,38.354-.069,6.126-.01,12.251-.016c2.574,0,2.578-4,0-4q-13.9,0-27.8.043-19.267.036-38.536.067-6.358.009-12.719.011a2.029,2.029,0,0,0-2,2c0,3.909-.024,7.819-.038,11.728q-.045,12.043-.094,24.088-.055,14.174-.112,28.347-.049,12.459-.1,24.918c-.017,4.459-.117,8.928-.047,13.388,0,.153,0,.306,0,.46a2.029,2.029,0,0,0,2,2c9.494,0,18.989.039,28.483.062l40.686.1c3.415.009,6.83.023,10.244.023a2.028,2.028,0,0,0,2-2q0-5.071,0-10.142,0-11.5.007-23.008l.009-28.306q0-12.8.008-25.609,0-7.684,0-15.368v-.8C99.767,11.158,95.767,11.154,95.767,13.732Z"/><path class="d" d="M60.672,51.278c2.976.816,5.589,2.728,7.992,4.6,1.245.97,2.458,1.981,3.694,2.963,1.031.82,2.33,2.189,3.624,2.544,1.946.535,3.243-1.244,4.265-2.6a20,20,0,0,0,2.564-4.719,16.076,16.076,0,0,0,.657-10.233c-.43-1.619-1.082-4.026-2.9-4.535-2.081-.582-4.635.108-6.767.136l1.727,3.01c.7-1,1.462-1.941,2.2-2.907.7-.909,1.637-1.9,1.589-3.113-.074-1.879-1.944-3.919-3.251-5.106a17.793,17.793,0,0,0-12.3-4.5c-1.838.074-4.714.3-5.358,2.42a8.118,8.118,0,0,0,.227,3.356c.165,1.153.315,2.308.435,3.467.423,4.065.719,8.588-.7,12.5a2.021,2.021,0,0,0,1.4,2.461c.3.082.61.171.914.259,2.476.721,3.534-3.138,1.063-3.857-.3-.089-.608-.177-.914-.259l1.4,2.46c2.131-5.865,1.051-12.754.174-18.751-.234-1.6-.655.552-.849.314.008.009,1.025-.247.974-.237a9.995,9.995,0,0,1,2.363-.128,14.221,14.221,0,0,1,4.658,1.058,12.88,12.88,0,0,1,3.409,2.014,10.233,10.233,0,0,1,1.513,1.545,10.1,10.1,0,0,1,.572.86c.113.181.269.8.277.38l.273-1.01c-1.073,1.657-2.383,3.139-3.512,4.757A2.014,2.014,0,0,0,73.8,43.433c1.053-.014,2.1-.1,3.146-.172.483-.035.967-.069,1.451-.086q.364-.016.728-.017.861.024.224-.015l-.718-.718a10.894,10.894,0,0,1,1.138,8.08,15.257,15.257,0,0,1-4.119,7.476l.882-.514-.015-.008,1.009.273A18.351,18.351,0,0,1,74.2,55.224c-1.291-1.044-2.581-2.088-3.9-3.095a25.718,25.718,0,0,0-8.564-4.708C59.249,46.739,58.188,50.6,60.672,51.278Z"/><path class="d" d="M92.152,100.807A268.7,268.7,0,0,0,64.636,84.529a155.1,155.1,0,0,0-15.181-7.168,37.4,37.4,0,0,0-5.529-1.807,19.659,19.659,0,0,0-7.661.065A25.153,25.153,0,0,0,25.1,80.594a75.712,75.712,0,0,0-6.7,6.543c-1.822,1.824,1.006,4.653,2.829,2.829,1.794-1.8,3.465-3.755,5.36-5.442a21.138,21.138,0,0,1,8.619-4.589,22.784,22.784,0,0,1,5.5-.748c.394-.006.773.01,1.164.037.351.024-.432-.083.085.011.172.032.344.06.515.094a32.631,32.631,0,0,1,5.267,1.636c10.143,3.885,19.865,9.522,29.241,15.05,4.454,2.626,8.894,5.308,13.151,8.246,2.124,1.466,4.126-2,2.019-3.454Z"/><path class="d" d="M65.287,87.186a43.526,43.526,0,0,1,6.973-4.477c2.475-1.333,5.287-2.836,8.125-3.172,5.438-.644,10.894,4.184,15.07,7.4a2.01,2.01,0,0,0,2.736-.718,2.05,2.05,0,0,0-.718-2.736c-5.081-3.917-11.048-8.844-17.917-7.838a28.8,28.8,0,0,0-9.013,3.447,47.283,47.283,0,0,0-8.085,5.264c-1.982,1.646.861,4.462,2.829,2.828Z"/><path class="d" d="M27.226,46.841c2.66,4.229,7.667,7.586,12.813,6.651,3.431-.623,6.27-3.371,5.585-7.044a5.837,5.837,0,0,0-6.89-4.6c-4.935,1.008-4.91,6.773-1.924,9.843,1.862,1.915,4.82,2.433,7.368,2.755a14.567,14.567,0,0,0,8.746-1.377c2.272-1.212.254-4.667-2.019-3.454-2.955,1.578-6.559,1.037-9.645.159a3.518,3.518,0,0,1-2.5-2.374c-.243-.786-.229-1.275.541-1.573a1.451,1.451,0,0,1,1.075-.1c-.389-.05.1.046.23.1.216.083-.063-.034-.087-.045a3.608,3.608,0,0,1,.366.2c.4.244-.047-.095.184.138.077.078.4.445.281.288a1.533,1.533,0,0,1,.327.7c.046.17.071.595.052.192a4.549,4.549,0,0,1,0,.572c-.023.3.062-.339-.005-.043a1.324,1.324,0,0,1-.063.242c-.157.344-.015.062.017,0a2.093,2.093,0,0,1-.166.3c-.213.31-.051.1,0,.034a2.683,2.683,0,0,1-.255.277,1.66,1.66,0,0,1-.306.251,4.039,4.039,0,0,1-1.418.58c-3.486.855-7.089-1.893-8.853-4.7-1.367-2.174-4.829-.169-3.454,2.019Z"/><path class="d" d="M112.048,131.663q-.012,3.655-.02,7.312c0,.754.025,1.575-.808,1.886a5.048,5.048,0,0,1-1.631.073l-7.6,0-22.543,0-53.771-.011-18.578,0c-1.1,0-2.813.338-3.045-1.147a20.064,20.064,0,0,1,.039-3.08q.017-2.024.033-4.047c.007-.766-.121-1.719.721-2.1a4.574,4.574,0,0,1,1.765-.111h3.866q25.414,0,50.828-.006l47.76-.007c1.094,0,2.908-.318,2.982,1.246.12,2.563,4.121,2.578,4,0a5.366,5.366,0,0,0-5.509-5.246c-1.271-.017-2.543,0-3.815,0h-10.2l-27.325,0-55.506.008c-2.852,0-5.809-.22-8.652.017-3.235.27-4.884,2.891-4.913,5.913-.024,2.511-.242,5.111-.048,7.614a5.36,5.36,0,0,0,5.575,4.939c1.135.011,2.271,0,3.407,0l9.362,0,54.908.01,25.318.006h8.971c1.054,0,2.118.045,3.17,0a5.4,5.4,0,0,0,5.236-5.695c.026-2.525.012-5.051.021-7.576C116.056,129.089,112.057,129.085,112.048,131.663Z"/><path class="d" d="M35.755,102.315a9.325,9.325,0,0,1,2.147-1.729,6,6,0,0,1,1.1-.532c-.01,0,.542-.171.542-.115a2.657,2.657,0,0,1-.239-.153.118.118,0,0,1-.024-.084q-.009-.165.069.194s.054.359.035.183a8.07,8.07,0,0,1-.084,1.455c-.1,1.26-.01,2.773,1.126,3.561,1.239.859,2.459.2,3.613-.451.956-.538,1.886-1.12,2.844-1.656a52.886,52.886,0,0,1,6.189-2.961,2.062,2.062,0,0,0,1.4-2.461,2.013,2.013,0,0,0-2.46-1.4A62.321,62.321,0,0,0,46.224,98.8q-1.288.675-2.541,1.415c-.415.245-.827.5-1.244.737-.231.134-.464.267-.7.4-.271.148-.684.178-.1.178l1.414.586-.18-.152.515.882a4.368,4.368,0,0,1-.026-1.958,6.43,6.43,0,0,0-.1-1.815,3.835,3.835,0,0,0-2.793-3.012c-2.729-.68-5.785,1.575-7.539,3.432s1.056,4.7,2.828,2.828Z"/><path class="d" d="M81.727,95.47q.352-.3.718-.581l-.4.313a19.728,19.728,0,0,1,4.029-2.344,2,2,0,0,0,.919-1.2,2.045,2.045,0,0,0-.2-1.542,2.021,2.021,0,0,0-1.2-.919l-.531-.071a1.991,1.991,0,0,0-1.01.273A21.4,21.4,0,0,0,78.9,92.641a2.012,2.012,0,0,0-.585,1.414A2.04,2.04,0,0,0,78.9,95.47a2.013,2.013,0,0,0,1.415.585,2.245,2.245,0,0,0,1.414-.585Z"/><path class="a" d="M403.224,162.818c6.972,1.52,14.465,3.286,21.329,5.029,4.021-3.894,7.53-7.286,7.53-7.286,6.27-1.532,10.867-2.694,17.276-4.226l-.661-9.765c-8.572,1.437-21.913,3.718-31.632,5.394-6.322-3.236-16.424,1.305-13.875,10.843C403.2,162.809,403.214,162.816,403.224,162.818Z"/><path class="a" d="M431.231,189.8l-.073.028a6.528,6.528,0,0,1-3.814.247c-15.46-3.6-52.681-12.832-56.362-14.017-2.436-.784-3.76-2.622-3.139-4.414a29.676,29.676,0,0,1,6.554-8.054,15.775,15.775,0,0,1,13.28-3.882c12.834,2.229,34.523,7.278,48.288,11.183a6.539,6.539,0,0,1,3.953,3.08,15.886,15.886,0,0,1,1.714,5.544,6.6,6.6,0,0,1-2.935,6.3A43.4,43.4,0,0,1,431.231,189.8Z"/><path class="d" d="M430.7,187.874c-2.134.82-4.445-.1-6.569-.6q-3.119-.739-6.234-1.492-7.37-1.776-14.73-3.59c-8.77-2.159-17.539-4.325-26.281-6.6-1.233-.32-2.467-.643-3.7-.979a7.079,7.079,0,0,1-2.99-1.206c-.869-.8-.353-1.32.2-2.2a26.2,26.2,0,0,1,3.509-4.362,16.46,16.46,0,0,1,7.982-5c2.91-.7,5.712-.141,8.589.4q4.13.777,8.239,1.65,9.47,1.99,18.872,4.286,5.082,1.233,10.143,2.552,2.251.588,4.5,1.2a16.726,16.726,0,0,1,4.414,1.424,6.732,6.732,0,0,1,2.565,4.2,6.836,6.836,0,0,1,.132,4.506c-.7,1.659-2.332,2.507-3.805,3.368a36.288,36.288,0,0,1-4.833,2.441,2.061,2.061,0,0,0-1.4,2.46,2.014,2.014,0,0,0,2.46,1.4,41.966,41.966,0,0,0,4.85-2.31,20.331,20.331,0,0,0,4.5-3.013c2.8-2.766,2.925-6.532,1.888-10.116-1.042-3.6-3.118-6.348-6.816-7.415-3.052-.881-6.128-1.682-9.2-2.474q-10.171-2.62-20.428-4.9c-6.145-1.371-12.323-2.779-18.545-3.756a18.239,18.239,0,0,0-10.642,1.475,24.977,24.977,0,0,0-8.624,7.443c-1.076,1.369-2.477,3-2.911,4.731a4.974,4.974,0,0,0,1.211,4.488,9.125,9.125,0,0,0,4.635,2.46c8.226,2.285,16.545,4.264,24.83,6.316,9.985,2.474,19.965,5,30,7.273a8.973,8.973,0,0,0,5.254-.2,2.059,2.059,0,0,0,1.4-2.461A2.015,2.015,0,0,0,430.7,187.874Z"/><path class="d" d="M378.311,188.97c-.083.112-.167.222-.252.332l.313-.405c-1.141,1.474-2.353,2.891-3.507,4.354a2.183,2.183,0,0,0-.585,1.415,2.039,2.039,0,0,0,.585,1.414,2.019,2.019,0,0,0,1.415.586,1.934,1.934,0,0,0,1.414-.586c1.344-1.707,2.772-3.348,4.071-5.091a2.009,2.009,0,0,0,.2-1.541,2,2,0,0,0-2.46-1.4l-.478.2a2.019,2.019,0,0,0-.717.717Z"/><path class="d" d="M393.193,194.226c-.058.171-.124.338-.194.5l.2-.478c-.681,1.6-1.566,3.114-2.3,4.693a2.164,2.164,0,0,0-.2,1.542,2.039,2.039,0,0,0,.919,1.195,2.017,2.017,0,0,0,1.541.2,1.955,1.955,0,0,0,1.195-.919c.452-.971.95-1.921,1.433-2.877a21.828,21.828,0,0,0,1.263-2.8,2,2,0,0,0-3.857-1.063Z"/><path class="d" d="M406.987,198.813c-.187,2-.359,4-.588,6a2,2,0,0,0,.586,1.414,2,2,0,0,0,2.828,0,2.308,2.308,0,0,0,.586-1.414c.229-2,.4-4,.588-6a2,2,0,0,0-.585-1.414,2,2,0,0,0-2.829,0,2.27,2.27,0,0,0-.586,1.414Z"/><path class="d" d="M404.788,160.035c0-.241,0-.482.016-.724.007-.12.1-.777.023-.335a8.661,8.661,0,0,1,.336-1.374c.034-.1.073-.2.109-.305.1-.278-.14.3-.017.034.088-.192.18-.382.282-.567s.207-.363.321-.538c.073-.113.478-.637.188-.286a9.325,9.325,0,0,1,.842-.9c.15-.14.307-.272.465-.4-.35.292.164-.116.277-.192a10.027,10.027,0,0,1,1.069-.627c.162-.082.326-.159.492-.233-.452.2.259-.093.394-.138a10.685,10.685,0,0,1,1.2-.335c.205-.045.41-.079.616-.116.1-.018.389-.04-.067.008.13-.014.26-.028.39-.038a10.888,10.888,0,0,1,1.171-.031c.208.006.414.022.622.036.59.039-.187-.065.392.051a11.491,11.491,0,0,1,1.2.294c.172.054.341.117.511.177.063.022.368.153.118.044-.269-.117.13.065.182.091a12.062,12.062,0,0,1,1.067.622c.448.291-.021-.052.217.157.2.174.395.346.58.533.15.152.291.312.431.472.242.276.035.036-.009-.023.1.131.193.267.284.4.139.211.268.429.388.652.048.087.367.763.209.39a8.915,8.915,0,0,1,.715,3.318c.121,2.563,4.121,2.578,4,0-.235-5.02-3.034-9.5-8.075-10.822a12.57,12.57,0,0,0-12.161,3.374,10.656,10.656,0,0,0-2.783,7.333c.015,2.573,4.015,2.579,4,0Z"/><path class="d" d="M418.153,153.8q15.534-2.677,31.077-5.3a2.017,2.017,0,0,0,1.4-2.461,2.048,2.048,0,0,0-2.461-1.4q-15.545,2.607-31.076,5.3a2.016,2.016,0,0,0-1.4,2.46,2.045,2.045,0,0,0,2.46,1.4Z"/><path class="d" d="M432.615,162.49c5.759-1.409,11.51-2.847,17.276-4.227,2.5-.6,1.443-4.456-1.063-3.857-5.766,1.38-11.518,2.818-17.277,4.227-2.5.611-1.441,4.469,1.064,3.857Z"/><path class="d" d="M431.013,175.984c-2.091,1.361-2.895,3.814-3.586,6.084a2.019,2.019,0,0,0,1.4,2.46,2.041,2.041,0,0,0,2.46-1.4c.238-.783.48-1.565.794-2.321l-.2.478a7.772,7.772,0,0,1,.942-1.693l-.313.405a4.146,4.146,0,0,1,.724-.732l-.405.312c.068-.05.136-.1.207-.143a2.116,2.116,0,0,0,.919-1.195,2.042,2.042,0,0,0-.2-1.541,2,2,0,0,0-2.736-.718Z"/><path class="a" d="M238.58,152.408a4.422,4.422,0,0,1,1.506-.852c7.747-3.116,14.21-7.868,17.041-11.673,2.591,2.382,3.541,4.263,5.115,7.3-3.744,14.727-9.7,30.36-14.491,44.545l-10.7,31.695-10.7-31.695c-4.837-14.325-10.863-30.126-14.6-44.98a21.139,21.139,0,0,1,4.892-6.865c2.83,3.8,9.293,8.557,17.04,11.673a4.422,4.422,0,0,1,1.506.852Z"/><path class="a" d="M232.107,208.789q-2.371-7.024-4.744-14.048c1.509-12.359,3.579-27.473,3.579-27.9,0-.767-1.227-5.856-1.562-7.551l-.05-.177c.58-.6,1.152-1.21,1.7-1.815,2.227-2.444,3.535-3.538,3.8-3.965.169-.271.53-.575.345-.92h3.4c-.185.345.176.649.345.92.267.427,1.576,1.521,3.8,3.965.561.616,1.144,1.233,1.733,1.847-.148.6-.231.928-.231.928-.235.941-1.707,5.642-1.732,7.015-.013.729,2.144,14.936,4.1,28.055q-4.776,14.142-9.551,28.285Q234.578,216.106,232.107,208.789Z"/><path class="a" d="M238.158,279.888c-9.666-6.186-21.137-8.042-32.666-7.186-11.4.846-25.936,2.157-35.053,6.781-3.436,15.988-10.23,54.925-13.17,70.471,26.778-6.752,58.945-6.752,80.895,1.9,22.216-8.488,52.55-8.488,80.883-1.9-2.939-15.546-9.734-54.483-13.169-70.471-9.117-4.624-23.208-6.6-34.609-7.448C259.74,271.179,248.992,273.813,238.158,279.888Z"/><path class="a" d="M277.24,85.18a6.517,6.517,0,0,1,4.711-1.724,6.045,6.045,0,0,1,5.432,3.018c1.846,3.2,1.768,9.1.529,12.749-.877,2.584-2.315,6.538-5.78,9.373a7.179,7.179,0,0,1-5.538,1.6l-.621-.1c-.539,1.893-1.327,3.872-1.623,4.77-1.309,3.555-8.259,15.588-17.223,21.142v3.881c-2.831,3.8-9.294,8.557-17.041,11.673a4.422,4.422,0,0,0-1.506.852h-3.4a4.422,4.422,0,0,0-1.506-.852c-7.747-3.116-14.21-7.868-17.04-11.673v-3.629a38.487,38.487,0,0,1-10.486-9.117,44.2,44.2,0,0,1-9.226-17,7.1,7.1,0,0,1-5.808-1.545c-3.465-2.835-4.9-6.789-5.78-9.373-1.238-3.65-1.317-9.548.529-12.749a6.047,6.047,0,0,1,5.432-3.018,6.517,6.517,0,0,1,4.711,1.724s-7.294-42.25,40.706-42.25S277.24,85.18,277.24,85.18Z"/><path class="a" d="M236.475,221.723l-9.111-26.983c1.508-12.358,3.578-27.472,3.578-27.9,0-.767-1.227-5.856-1.562-7.551l-.052-.173c.58-.6,1.153-1.213,1.706-1.819,2.227-2.444,3.535-3.538,3.8-3.965.169-.271.53-.575.345-.92l3.386.039c-.146.328.195.62.358.881.267.427,1.576,1.521,3.8,3.965.586.643,1.195,1.287,1.812,1.928l-.31.847c-.235.941-1.707,5.642-1.732,7.015-.013.729,2.144,14.936,4.1,28.055l-9.551,28.285Z"/><path class="d" d="M251.718,166.773a80.968,80.968,0,0,0,9.617-14.048q.981-1.85,1.874-3.745a5.692,5.692,0,0,0,.826-2.2,4.776,4.776,0,0,0-.822-2.061,23.475,23.475,0,0,0-4.672-6.254,2.038,2.038,0,0,0-3.141.4,27.646,27.646,0,0,1-6.776,5.936,51.575,51.575,0,0,1-5.072,2.975c-1.833.942-4,1.547-5.718,2.669-3.39,2.216.769,5.388,2.4,7.094,2.9,3.041,5.942,6.016,8.659,9.226,1.665,1.967,4.483-.874,2.828-2.829-2.19-2.586-4.653-4.922-6.962-7.4-1.008-1.081-2-2.166-3.052-3.208-.323-.322-.648-.644-.971-.967-.1-.1-.189-.2-.282-.307.453.5-.043-.1-.174-.333l.273,1.01.03-.332L240,153.822c.563-.589,2-.9,2.77-1.244q1.422-.629,2.806-1.34a50.981,50.981,0,0,0,5.565-3.31,32.628,32.628,0,0,0,7.717-7.036l-3.141.405a22.815,22.815,0,0,1,4.6,6.5v-2.019a80.652,80.652,0,0,1-11.418,18.17C247.246,165.9,250.062,168.748,251.718,166.773Z"/><path class="d" d="M224.871,163.944a80.652,80.652,0,0,1-11.418-18.17v2.019a22.815,22.815,0,0,1,4.6-6.5l-3.141-.405a32.609,32.609,0,0,0,7.717,7.036A51.009,51.009,0,0,0,228,151.137q1.477.767,3,1.441c.775.343,2.207.655,2.77,1.244l-.585-1.414.03.332.273-1.01c-.092.168-.7.878-.174.333-.1.1-.182.209-.282.307-.294.285-.581.58-.872.869-1.081,1.074-2.112,2.191-3.15,3.306-2.309,2.478-4.773,4.813-6.963,7.4-1.654,1.954,1.162,4.8,2.828,2.829,2.675-3.159,5.669-6.075,8.517-9.077,1.629-1.718,5.984-4.991,2.539-7.243-1.656-1.083-3.752-1.669-5.522-2.569a51.727,51.727,0,0,1-5.1-2.965,27.868,27.868,0,0,1-6.942-6.046,2.039,2.039,0,0,0-3.142-.4,23.086,23.086,0,0,0-4.583,6.089,6.362,6.362,0,0,0-.875,1.96,4.17,4.17,0,0,0,.7,2.266c.626,1.328,1.278,2.644,1.966,3.941a80.836,80.836,0,0,0,9.617,14.048C223.7,168.748,226.516,165.905,224.871,163.944Z"/><path class="d" d="M231.467,168.731c3.564,0,7.127-.079,10.69-.08a2,2,0,0,0,0-4c-3.563,0-7.126.078-10.69.08a2,2,0,1,0,0,4Z"/><path class="d" d="M227.452,159.817c.277,1.379.6,2.749.906,4.123.141.641.282,1.283.411,1.926.057.285.109.57.162.855.09.476.049-.37.011.115-.123,1.554-.386,3.107-.589,4.652-1.02,7.772-2.048,15.544-3,23.325a2.01,2.01,0,0,0,2,2,2.049,2.049,0,0,0,2-2c.961-7.87,2-15.73,3.033-23.592a30.865,30.865,0,0,0,.545-4.524,20.531,20.531,0,0,0-.718-3.82c-.3-1.374-.629-2.744-.906-4.123-.507-2.522-4.363-1.455-3.857,1.063Z"/><path class="d" d="M248.335,193.312c-1.12-7.493-2.266-14.982-3.345-22.481q-.119-.825-.235-1.65l-.1-.739c-.072-.52.008.077-.035-.258a7.561,7.561,0,0,1-.106-1.333q.019-.2-.006.054c.027-.153.055-.305.087-.457.057-.259.112-.518.173-.776.161-.677.342-1.349.527-2.019.282-1.019.6-2.029.865-3.053.646-2.494-3.212-3.557-3.857-1.063a52.017,52.017,0,0,0-1.756,7.041,19.465,19.465,0,0,0,.51,4.773c1.1,7.681,2.276,15.351,3.423,23.024a2.014,2.014,0,0,0,2.46,1.4,2.051,2.051,0,0,0,1.4-2.46Z"/><path class="e" d="M171.188,255.237,148,267.335c-8.94-3.11-20.033-18.633-18.283-28.216,1.028-5.632,3.148-10.753,5.163-15.754,3.559-8.83,11.363-26.274,14.864-32.92,1.955-3.711,3.937-7.71,6.052-11.41A39,39,0,0,1,172.116,163.6c9.782-4.94,21.949-9.465,31.528-13.726a43.167,43.167,0,0,1,7.414-5.951c3.653,15.661,10.143,32.567,15.288,47.8l10.7,31.695,10.7-31.695c5.146-15.236,11.636-32.142,15.289-47.8a43.527,43.527,0,0,1,7.532,6.063c8.182,4.288,18.579,7.884,27.642,12.028a41.129,41.129,0,0,1,19.1,17.8c2.228,4.111,4.307,8.522,5.9,12.222,3.166,7.334,14.055,34,17.083,44.417,1.164,4,1.727,9.414.083,13.833a82.225,82.225,0,0,1-9.333,17.75l-34.333-11.75c.86-.629,4.025-3.048,4.025-3.048,2.009-2.686,5.409-10.982,4.766-14.364-2.315-4.345-5.956-10.865-9.727-15.416-.768,11.351-1.556,23.136-2.139,34.294-23.037.021-73.88.043-97.892.064,0,0-10.85,0-14.881,0-.829-12.286-1.919-25.335-2.948-37.727l-.649.723a105.79,105.79,0,0,0-7.737,12.012c-2.54,5.22-1.01,5.811,2.38,10.08,1.691,2.13,3.746,5.075,6.18,8.73Z"/><path class="d" d="M239.168,278.161c-10.012-6.335-22-8.3-33.676-7.459-10.643.764-21.844,1.521-31.928,5.268-1.092.406-2.171.852-3.226,1.344a3.275,3.275,0,0,0-1.626,1.16,5.073,5.073,0,0,0-.423,1.515q-.5,2.351-.964,4.707-1.17,5.844-2.264,11.7c-1.73,9.166-3.4,18.344-5.061,27.522-1.541,8.5-3.055,17.01-4.659,25.5a2.026,2.026,0,0,0,2.46,2.461,160.569,160.569,0,0,1,31.9-4.617,139.3,139.3,0,0,1,30.964,1.827,94.168,94.168,0,0,1,13.942,3.577c1,.344,2,.852,3.023,1.116,1.206.311,2.793-.647,3.928-1.033q3.422-1.162,6.932-2.042a125.216,125.216,0,0,1,31.589-3.477,176.366,176.366,0,0,1,38.434,4.649,2.028,2.028,0,0,0,2.461-2.461c-3.1-16.421-5.956-32.888-9.025-49.316q-1.154-6.177-2.353-12.346-.518-2.646-1.055-5.287c-.333-1.628-.371-4.016-1.965-4.872-4.526-2.43-9.79-3.757-14.779-4.815a145.736,145.736,0,0,0-16.6-2.42,65.922,65.922,0,0,0-19.2.612,64.984,64.984,0,0,0-18.858,7.183c-2.249,1.252-.235,4.709,2.019,3.454a57.586,57.586,0,0,1,26.469-7.719,94.886,94.886,0,0,1,13.227.851,123.367,123.367,0,0,1,13.083,2.161,56.334,56.334,0,0,1,12.921,4.3l-.919-1.195c4.082,19.033,7.287,38.265,10.766,57.414.791,4.354,1.582,8.708,2.4,13.057l2.46-2.461c-21.478-4.963-44.28-6.649-66.044-2.519a94.447,94.447,0,0,0-15.9,4.423H238.7c-9.54-3.735-19.769-5.553-29.95-6.362a159.83,159.83,0,0,0-33.4.959,164.59,164.59,0,0,0-18.608,3.5l2.46,2.461c3.6-19.046,6.866-38.152,10.512-57.188.849-4.435,1.71-8.868,2.657-13.283l-.919,1.195c7.395-3.7,16.1-4.806,24.227-5.658,8.959-.94,18.056-1.775,26.944.163a44.9,44.9,0,0,1,14.53,5.9C239.331,283,241.34,279.535,239.168,278.161Z"/><path class="d" d="M236.216,288.9c0,16.267-.168,32.534-.169,48.8,0,2.573,4,2.578,4,0,0-16.267.167-32.534.169-48.8,0-2.574-4-2.578-4,0Z"/><path class="f" d="M219.151,24.182a46.14,46.14,0,0,0-11.7,6.236A48.091,48.091,0,0,0,187.3,68.154a52.361,52.361,0,0,0,1.92,15.64,7.822,7.822,0,0,1,2.078-.338,6.517,6.517,0,0,1,4.711,1.724l6.061-4.7c4.913-5.474,13.585-13.726,19.67-16.918.713-.374,1.63.132,1.919,1.324a7.821,7.821,0,0,1,.187,2.855,1.487,1.487,0,0,0,2.119,1.6c4.344-2.413,12.085-7.27,17.574-9.583a16.018,16.018,0,0,1,8.778,1.36,25.945,25.945,0,0,1,6.876,4.436c4.913,4.228,9.624,10.028,11.711,15.278l6.338,4.355a6.517,6.517,0,0,1,4.711-1.724,8.033,8.033,0,0,1,1.9.282,50.319,50.319,0,0,0,1.871-15.584c-.814-19.039-10.523-30.866-19.9-37.56a48.649,48.649,0,0,0-29.307-9.337A50.9,50.9,0,0,0,219.151,24.182Z"/><path class="d" d="M179.819,250.626c-1.958-2.937-3.943-5.861-6.111-8.648-.864-1.11-1.832-2.148-2.655-3.288a2.811,2.811,0,0,1-.767-2.158c.324-2.528,2.262-5.1,3.59-7.2,1.619-2.559,3.317-5.075,5.12-7.509a2.013,2.013,0,0,0-.717-2.736,2.048,2.048,0,0,0-2.737.718c-1.908,2.574-3.7,5.24-5.4,7.956-1.586,2.534-3.434,5.347-3.809,8.37-.38,3.062,1.727,5.2,3.523,7.394,2.367,2.888,4.441,6.017,6.511,9.121,1.421,2.131,4.887.131,3.454-2.019Z"/><path class="d" d="M144.134,239.1a50.246,50.246,0,0,1,16.967-1.136,2.012,2.012,0,0,0,2-2,2.046,2.046,0,0,0-2-2,53.54,53.54,0,0,0-18.03,1.279c-2.5.6-1.442,4.461,1.063,3.857Z"/><path class="d" d="M294.743,225.339a70.234,70.234,0,0,1,5.32,7.911q1.227,2.061,2.38,4.165.476.864.943,1.734l.24.446c-.058-.361-.076-.434-.056-.219a5.245,5.245,0,0,1,.012.675,20.358,20.358,0,0,1-1.687,6.518,24.263,24.263,0,0,1-2.885,5.657l.718-.718q-1.258.969-2.53,1.92a2.063,2.063,0,0,0-.718,2.737,2.015,2.015,0,0,0,2.737.717,14.554,14.554,0,0,0,3.476-2.958,22.474,22.474,0,0,0,1.783-3.268,32.9,32.9,0,0,0,2.934-8.932,6.728,6.728,0,0,0-.331-4.148c-.846-1.668-1.79-3.3-2.726-4.917a81.685,81.685,0,0,0-6.782-10.148,2.011,2.011,0,0,0-2.828,0,2.048,2.048,0,0,0,0,2.828Z"/><path class="d" d="M314.121,239.441c-.582.255-.04.023.089-.022.162-.057.326-.108.491-.155.353-.1.712-.182,1.072-.251.191-.036.383-.065.574-.1.225-.033.195-.03-.088.009.1-.013.2-.026.3-.037q.62-.071,1.243-.11a48.46,48.46,0,0,1,5.071-.021,2.016,2.016,0,0,0,2-2,2.043,2.043,0,0,0-2-2c-3.571-.139-7.438-.228-10.772,1.23a2.006,2.006,0,0,0-.717,2.737,2.061,2.061,0,0,0,2.736.717Z"/><path class="d" d="M68.529,259.917q20.432,0,40.864-.046,4.66,0,9.321-.007c2.574,0,2.578-4,0-4q-20.808,0-41.616.046-4.285,0-8.569.007c-2.574,0-2.578,4,0,4Z"/><path class="d" d="M354.529,259.917q20.431,0,40.864-.046,4.661,0,9.321-.007c2.574,0,2.578-4,0-4q-20.808,0-41.616.046-4.286,0-8.569.007c-2.574,0-2.578,4,0,4Z"/><path class="d" d="M195.747,259.815q17.49-.015,34.98-.024l39.625-.025,18.524-.013c2.574,0,2.578-4,0-4q-17.61.015-35.219.024L214.1,255.8l-18.351.014c-2.573,0-2.578,4,0,4Z"/><path class="d" d="M200.371,149.142c-5.849,2.524-11.768,4.882-17.624,7.389-5.443,2.33-11.137,4.6-16.055,7.942a41.469,41.469,0,0,0-11.6,11.864,159.854,159.854,0,0,0-8.027,14.956c-4.175,8.338-7.938,16.905-11.591,25.482-2.04,4.792-4.108,9.608-5.766,14.548a38.976,38.976,0,0,0-2.129,8.816,18.166,18.166,0,0,0,.654,6.121,37.685,37.685,0,0,0,7.55,13.974c3.1,3.8,7,7.348,11.684,9.03,2.427.871,3.473-2.992,1.064-3.857-3.659-1.314-6.764-4.312-9.265-7.222a34.982,34.982,0,0,1-6.635-11.211,17.623,17.623,0,0,1-1.1-5.775,25.964,25.964,0,0,1,1.549-7.313c1.486-4.8,3.464-9.45,5.415-14.073,3.537-8.38,7.237-16.713,11.227-24.888,2.185-4.478,4.5-8.915,6.9-13.278A39.451,39.451,0,0,1,166.9,169.235c4.937-3.832,10.922-6.248,16.616-8.712,6.263-2.71,12.609-5.223,18.875-7.927a2.013,2.013,0,0,0,.717-2.737,2.051,2.051,0,0,0-2.736-.717Z"/><path class="d" d="M173.671,191.4c1.122,16.446,2.636,32.864,3.931,49.3q.577,7.337,1.1,14.68c.178,2.553,4.179,2.573,4,0-1.192-17.069-2.73-34.11-4.077-51.167q-.506-6.4-.951-12.81c-.175-2.554-4.176-2.573-4,0Z"/><path class="d" d="M271.454,152.679c5.544,2.717,11.3,4.98,17,7.321,5.215,2.138,10.551,4.191,15.2,7.426A38.7,38.7,0,0,1,314.4,178.781a111.238,111.238,0,0,1,7.321,14.8c.108.252.215.5.323.757l.231.546q.412.981.822,1.963,1.012,2.43,2.008,4.868,2.4,5.857,4.715,11.747c2.907,7.381,5.865,14.793,8.208,22.378a27.97,27.97,0,0,1,1.371,7.582,20.61,20.61,0,0,1-1.932,8.811,69.759,69.759,0,0,1-8.145,14.79,2.011,2.011,0,0,0,.718,2.736,2.049,2.049,0,0,0,2.736-.717,69.367,69.367,0,0,0,7.479-13.278,31.761,31.761,0,0,0,2.87-8.2,26.762,26.762,0,0,0-.233-8.815,68.388,68.388,0,0,0-3.242-10.583c-1.482-4.146-3.048-8.262-4.643-12.366q-4.327-11.135-8.95-22.155c-4.039-9.581-8.328-19.477-16.293-26.48-4.99-4.388-10.761-7.066-16.834-9.612-6.5-2.728-13.116-5.222-19.455-8.328-2.3-1.129-4.332,2.32-2.019,3.454Z"/><path class="d" d="M295.815,191.369c-.872,16.458-2.134,32.894-3.178,49.342q-.466,7.345-.873,14.693c-.14,2.572,3.86,2.565,4,0,.931-17.082,2.209-34.142,3.3-51.214q.408-6.409.756-12.821c.137-2.573-3.864-2.565-4,0Z"/><path class="d" d="M238.978,223.954q5.493-16.267,10.987-32.534c3.375-9.943,7-19.8,10.184-29.808,1.8-5.662,3.462-11.37,4.82-17.156l-2.938,1.2a40.205,40.205,0,0,1,7.247,5.87,42.257,42.257,0,0,1,3.293,3.645q.649.817,1.227,1.691.266.4.514.814c.072.122.467.858.46.708l.273-1.009q.43-.41-.258.057l-.842.464-1.683.929-3.367,1.857a2.015,2.015,0,0,0-.4,3.141c1.6,1.448,3.191,2.905,4.736,4.41a11.214,11.214,0,0,1,2.115,2.129c.265.512.133-.241,0,.3a10.446,10.446,0,0,1-.76,1.691q-2.56,5.652-5.347,11.2c-3.642,7.24-7.589,14.322-11.755,21.273q-3.695,6.162-7.579,12.206c-1.391,2.175,2.069,4.183,3.453,2.019A350.624,350.624,0,0,0,278.8,172.678a4.477,4.477,0,0,0,.444-3.526,8.233,8.233,0,0,0-2.2-2.775c-1.85-1.856-3.782-3.628-5.724-5.386l-.4,3.141,4.42-2.438c1.225-.676,2.956-1.283,3.368-2.782.595-2.168-2.066-5.031-3.3-6.573A44.95,44.95,0,0,0,264.05,142.2a2.017,2.017,0,0,0-2.938,1.195,309.636,309.636,0,0,1-9.288,30.5q-5.288,15.26-10.474,30.55l-6.23,18.449c-.825,2.444,3.037,3.493,3.858,1.063Z"/><path class="d" d="M224.33,216.915a338.437,338.437,0,0,1-24.085-43.059,17.143,17.143,0,0,1-1.488-3.195c-.026-.124-.144-.315-.167-.118.01-.087.377-.4.486-.516q.563-.579,1.135-1.148c1.75-1.738,3.57-3.405,5.4-5.06a2.015,2.015,0,0,0-.405-3.141l-3.367-1.857-1.683-.929-.842-.464q-.689-.466-.258-.057l.273,1.009c-.008.181.317-.464.382-.574q.282-.483.592-.948c.352-.53.722-1.048,1.113-1.549a41.305,41.305,0,0,1,3.407-3.787,40.205,40.205,0,0,1,7.247-5.87l-2.938-1.2a309.636,309.636,0,0,0,9.288,30.5q5.287,15.259,10.474,30.55l6.229,18.449c.82,2.426,4.684,1.385,3.858-1.063q-5.495-16.268-10.988-32.535c-3.375-9.943-7-19.8-10.184-29.808-1.8-5.661-3.462-11.37-4.82-17.155a2.017,2.017,0,0,0-2.938-1.195,44.95,44.95,0,0,0-11.35,10.141c-1.236,1.545-3.9,4.4-3.3,6.573.394,1.432,1.985,2.019,3.158,2.666l4.63,2.554-.405-3.141c-1.714,1.552-3.419,3.113-5.068,4.734-1.45,1.426-3.444,2.994-3.026,5.274a12.935,12.935,0,0,0,1.212,2.965q.738,1.59,1.49,3.175,1.479,3.115,3.01,6.2,5.8,11.686,12.474,22.906,3.85,6.436,8,12.684c1.416,2.135,4.882.134,3.454-2.019Z"/><path class="d" d="M250.287,234.351a4.539,4.539,0,0,1,.456.421,1.167,1.167,0,0,1,.215.251c.018.043-.262-.405-.172-.216a2.065,2.065,0,0,0,.13.2c.109.173.185.363.288.538s-.148-.291-.111-.262c.021.016.041.107.05.132.039.12.08.238.113.359a1.584,1.584,0,0,1,.126.6c0,.015-.053-.571-.038-.25,0,.047.008.095.011.142.008.126.011.252.01.379,0,.095,0,.189-.01.284,0,.047-.009.095-.011.142-.015.321.034-.263.038-.249a1.668,1.668,0,0,1-.138.647c-.03.107-.066.21-.1.315a.457.457,0,0,1-.049.133c-.035.026.213-.441.11-.26-.116.205-.207.421-.336.621a.874.874,0,0,1-.161.232c-.041.026.317-.368.166-.219-.045.044-.082.1-.125.143-.065.071-.132.14-.2.2-.049.046-.1.087-.151.132-.171.159.362-.257.166-.127s-.362.245-.556.349c-.1.057-.214.1-.32.158-.167.084.24-.1.243-.1a1.767,1.767,0,0,0-.193.072,5.7,5.7,0,0,1-.693.2c-.051.01-.278.02-.305.056.009-.012.547-.057.224-.031-.069,0-.138.013-.206.017a5.565,5.565,0,0,1-.671,0,1.429,1.429,0,0,1-.359-.031c-.041-.013.5.084.278.035-.083-.019-.168-.031-.251-.049a5,5,0,0,1-.634-.186.584.584,0,0,0-.142-.055s.408.189.246.1c-.118-.066-.241-.121-.357-.19s-.2-.127-.3-.193c-.273-.185.312.292.09.061-.156-.161-.307-.332-.464-.492.405.412.164.213.062.056-.061-.094-.118-.189-.171-.286s-.085-.17-.129-.255c-.071-.139-.052-.283.089.216-.017-.06-.046-.119-.067-.178a5.117,5.117,0,0,1-.168-.6.916.916,0,0,1-.06-.328c.014-.049.046.513.042.294,0-.063-.012-.127-.016-.191a5.349,5.349,0,0,1,0-.67c.006-.1.02-.191.025-.287.011-.208-.023.331-.039.294a.85.85,0,0,1,.043-.236,5.222,5.222,0,0,1,.161-.6c.028-.083.184-.471.035-.119s.018-.027.059-.107a6.634,6.634,0,0,1,.346-.572c.177-.272-.3.342-.079.1.087-.094.169-.192.26-.282.134-.133.469-.32-.021-.014.1-.064.2-.14.3-.2s.238-.141.362-.2l.14-.069c.3-.149-.37.138-.141.059a6.845,6.845,0,0,1,.752-.227l.155-.032c.382-.073-.122.052-.168.014.038.032.309-.029.367-.032a7.846,7.846,0,0,1,.84.019c.193.009-.271-.039-.271-.039.014.021.177.029.206.035.137.026.273.058.407.1s.265.084.4.129c.065.023.249.1-.046-.022-.337-.142-.01,0,.044.03.108.055.214.114.317.178.132.082.569.426.062.02a2.166,2.166,0,0,0,1.414.586,2,2,0,0,0,1.415-3.414,7.157,7.157,0,0,0-8.27-.58,6.979,6.979,0,0,0-2.921,7.3,6.4,6.4,0,0,0,1.833,3.374,6.755,6.755,0,0,0,4.07,1.726,6.9,6.9,0,0,0,6.792-3.584c1.266-2.686.914-6.274-1.5-8.234a2.164,2.164,0,0,0-1.415-.586,2,2,0,0,0-1.414,3.414Z"/><path class="d" d="M197.421,83.766a9.091,9.091,0,0,0-9.906-1.44,8.68,8.68,0,0,0-4.5,5.95c-1.554,5.984-.033,12.847,3.352,17.955,2.279,3.438,5.877,6.547,10.283,5.964a2.067,2.067,0,0,0,2-2c0-.971-.922-2.143-2-2-3.613.478-6.1-2.5-7.672-5.389a20.2,20.2,0,0,1-2.48-7.92c-.2-2.55-.187-5.862,1.472-7.99,1.314-1.688,4.753-1.975,6.619-.3,1.911,1.714,4.75-1.106,2.828-2.829Z"/><path class="d" d="M278.654,86.6c1.867-1.675,5.307-1.384,6.62.3,1.658,2.128,1.668,5.44,1.471,7.99a20.214,20.214,0,0,1-2.48,7.92c-1.567,2.892-4.06,5.867-7.671,5.389a2.01,2.01,0,0,0-2,2,2.051,2.051,0,0,0,2,2c7.266.962,11.732-7.15,13.432-13.035,1.468-5.079,1.531-13.072-3.426-16.354a9.028,9.028,0,0,0-10.774.96c-1.92,1.723.916,4.544,2.828,2.829Z"/><path class="d" d="M274.538,107.313a24.909,24.909,0,0,1-1.3,4.72c-.213.6-.437,1.2-.651,1.8-.07.2-.139.4-.21.6-.028.077-.206.5-.1.241.118-.279-.108.235-.142.309q-.126.269-.256.537c-.2.407-.406.81-.619,1.21-.521.975-1.077,1.931-1.656,2.871A50.616,50.616,0,0,1,258.8,132.375a20.3,20.3,0,0,1-8.137,4.223c-2.506.583-1.445,4.44,1.064,3.857,6.115-1.42,11.2-5.849,15.217-10.48a56.057,56.057,0,0,0,8.652-12.97,32.358,32.358,0,0,0,2.8-8.629,2.068,2.068,0,0,0-1.4-2.46,2.015,2.015,0,0,0-2.461,1.4Z"/><path class="d" d="M194.4,108.212a47.6,47.6,0,0,0,11.03,21.155c5.238,6.033,11.94,10.79,19.98,11.985a2.064,2.064,0,0,0,2.46-1.4,2.013,2.013,0,0,0-1.4-2.46c-7.443-1.106-13.367-5.372-18.215-10.956a43.459,43.459,0,0,1-10-19.39c-.538-2.516-4.4-1.451-3.857,1.063Z"/><path class="d" d="M264.692,27.42a53.2,53.2,0,0,0-49.274-3.885,50.9,50.9,0,0,0-27.571,30.223,53.228,53.228,0,0,0-.678,30.115c.644,2.49,4.5,1.435,3.857-1.063a49.436,49.436,0,0,1-.083-25.455A44.964,44.964,0,0,1,200.227,39.8a46.363,46.363,0,0,1,37.412-16.53,47.7,47.7,0,0,1,25.034,7.605c2.174,1.394,4.182-2.067,2.019-3.454Z"/><path class="d" d="M285.875,83.873a55.673,55.673,0,0,0,.738-24.839,48.185,48.185,0,0,0-8.262-18.84,50.187,50.187,0,0,0-6.916-7.654c-1.911-1.716-4.749,1.1-2.829,2.828a46.355,46.355,0,0,1,15.153,34.117,51.625,51.625,0,0,1-1.741,13.325c-.618,2.5,3.238,3.565,3.857,1.063Z"/><path class="d" d="M250.725,62.584a32.885,32.885,0,0,1,10.54,7.684,36.181,36.181,0,0,1,7.708,11.089,2.065,2.065,0,0,0,2.461,1.4,2.014,2.014,0,0,0,1.4-2.46,41.027,41.027,0,0,0-8.5-12.6,36.062,36.062,0,0,0-11.591-8.561,2.064,2.064,0,0,0-2.736.717,2.015,2.015,0,0,0,.717,2.736Z"/><path class="d" d="M203.482,81.892a91.281,91.281,0,0,1,16.457-14.911c.622-.417,1.255-.819,1.9-1.194.109-.063.624-.263.647-.386l-.841-.193.04.053c-.062.169.125.5.154.694.133.884-.1,1.772.069,2.648a3.55,3.55,0,0,0,1.547,2.342c1.749,1.111,3.334.231,4.915-.677s3.164-1.843,4.747-2.762a105.243,105.243,0,0,1,11.426-6.028,2.012,2.012,0,0,0,.718-2.736,2.053,2.053,0,0,0-2.737-.718,97.175,97.175,0,0,0-10.245,5.344c-1.653.953-3.3,1.922-4.948,2.88q-.943.549-1.893,1.087c.036-.021-.489.254-.487.272-.058-.776.911.2.869.244.144-.157.077-.851.076-1.076-.012-1.912-.506-4.294-2.49-5.083-1.771-.7-3.353.456-4.8,1.38a70.692,70.692,0,0,0-8.859,6.939,119.215,119.215,0,0,0-9.1,9.052c-1.718,1.909,1.1,4.746,2.829,2.829Z"/><path class="d" d="M235.12,222.891a49.5,49.5,0,0,0-1.913,17.226,143.8,143.8,0,0,0,2.745,17.783c.513,2.521,4.369,1.454,3.857-1.063a135.35,135.35,0,0,1-2.6-16.72,44.277,44.277,0,0,1-.028-7.489,50.413,50.413,0,0,1,1.8-8.674c.688-2.484-3.17-3.544-3.858-1.063Z"/><path class="a" d="M198.705,279.419c9.3-3.587.741-15.8-2.958-20.924-4.5-6.228-16.006-6.547-21.67-6.61-5.01-.055-12.39.6-16.46,3.86-2.84,2.28-6.952,6.09-8.842,10.59a12.1,12.1,0,0,0-.49,1.43c-.78,2.61,2.652,9.51,4.082,13.87,1.11,3.39,1.92,6.88,3.56,10.06,1.93,3.72,8.95,11.94,13.01,5.96l1.64-2.088c4.429,3.492,9.648,5.064,11.508-2.233,2.473.945,5.071.662,7.606-1.836Z"/><path class="d" d="M162.479,289.463a27.834,27.834,0,0,0,7.088,7.831c2.808,2.169,6.642,4.231,10.2,2.619,2.123-.963,3.3-3.082,4.013-5.2a2,2,0,0,0-3.858-1.064,5.582,5.582,0,0,1-.569,1.321,6.593,6.593,0,0,1-.4.63c.251-.344-.178.185-.237.245-.089.088-.61.455-.192.191-.166.105-.346.2-.509.3-.242.161.316-.049-.192.062-.126.028-.753.125-.172.07a5.986,5.986,0,0,1-1.182-.008c.56.057-.124-.04-.236-.067-.21-.05-.419-.11-.625-.177s-.425-.147-.633-.232c.428.174-.247-.124-.32-.16-.411-.2-.81-.431-1.2-.673a21.815,21.815,0,0,1-4.467-3.768q-.521-.549-1.015-1.124c-.157-.183-.313-.369-.466-.556-.049-.06-.5-.639-.226-.277a18.6,18.6,0,0,1-1.341-1.984c-1.289-2.227-4.747-.216-3.454,2.019Z"/><path class="d" d="M169.893,283.9c2.476,3.723,5.265,7.525,9.038,10.03a10.329,10.329,0,0,0,5.916,1.9,9.547,9.547,0,0,0,6.258-2.918c1.86-1.786-.97-4.613-2.828-2.828a7.016,7.016,0,0,1-2.094,1.458,3.937,3.937,0,0,1-1.86.283,8.115,8.115,0,0,1-1.774-.448,11.151,11.151,0,0,1-2.185-1.31c-2.8-2.1-5.055-5.233-7.017-8.184-1.419-2.133-4.885-.132-3.454,2.019Z"/><path class="d" d="M167.21,296.646a2.139,2.139,0,0,1-2.806.923,10.322,10.322,0,0,1-3.768-2.8c-2.833-2.984-4.173-6.581-5.353-10.474-1.293-4.264-3.134-8.316-4.461-12.562a14.684,14.684,0,0,1-.616-2.449,2.715,2.715,0,0,1,.226-1.7,17.911,17.911,0,0,1,3.691-5.817c2.782-3.136,5.809-5.737,9.922-6.823a41.727,41.727,0,0,1,11.666-1.034c6.478.151,14.773.625,18.878,6.384a40.508,40.508,0,0,1,5.536,9.634,9.918,9.918,0,0,1,.721,4.5,3.966,3.966,0,0,1-2.672,3.061,2.063,2.063,0,0,0-1.4,2.46,2.013,2.013,0,0,0,2.46,1.4,8.709,8.709,0,0,0,4.753-3.857,9.243,9.243,0,0,0,.733-5.735c-.586-3.911-2.735-7.588-4.872-10.846a42.17,42.17,0,0,0-3.231-4.513,14.838,14.838,0,0,0-5.257-3.705,37.183,37.183,0,0,0-12.946-2.673,56.261,56.261,0,0,0-13.088.559,22.966,22.966,0,0,0-7.088,2.357,26.237,26.237,0,0,0-5.619,4.6c-3.294,3.313-7.121,7.975-6.251,12.949a35.231,35.231,0,0,0,2.156,6.621c.931,2.38,1.833,4.747,2.576,7.194a41.94,41.94,0,0,0,3.4,8.952,23,23,0,0,0,4.042,5.088,11.6,11.6,0,0,0,5.746,3.32c2.7.455,4.841-.834,6.377-2.99a2.017,2.017,0,0,0-.717-2.737,2.044,2.044,0,0,0-2.737.718Z"/><path class="d" d="M193.384,277.335c.768,1.392,9.965,18.513,14.119,25.62a2.871,2.871,0,0,0,3.977,1h0a2.871,2.871,0,0,0,1.084-3.725c-5.895-11.93-25.881-50.8-31.087-59.657-1.05-1.786-2.121-1.825-3.238-1.3a37.483,37.483,0,0,0-3.454,1.914c-1.218.811-1.623,1.761-.988,2.931,2.857,5.268,7.418,12.2,10.882,17.572,2.92,4.53,6.214,10.847,8.7,15.641"/><path class="a" d="M194.457,279.285c2.284,3.177,3.906,6.388,6.421,9.3,2.168,2.51,4.6,4.8,4.634,6.487.076,3.877-2.813,4.865-6.09,2.78a54.887,54.887,0,0,1-6.884-5.3c-4.872-4.546-9.87-10.315-11.187-11.154"/><path class="d" d="M192.73,280.3c2.374,3.339,4.322,6.948,7.031,10.046a25.139,25.139,0,0,1,3.516,4.234,2.158,2.158,0,0,1-.161,2.185c-.575.459-1.879-.133-2.685-.634-1.091-.678-2.135-1.446-3.162-2.217a72.334,72.334,0,0,1-8.372-7.783c-2.065-2.138-4.051-4.772-6.537-6.45-2.139-1.444-4.144,2.02-2.019,3.454.247.167-.094-.081-.115-.1.078.067.162.131.238.2.19.18.387.354.577.536.515.5,1.014,1.008,1.511,1.522,1.367,1.41,2.714,2.84,4.083,4.248a73.154,73.154,0,0,0,9.758,8.662c2.452,1.756,5.744,3.875,8.741,2.013a5.529,5.529,0,0,0,2.358-4.448c.155-1.994-.882-3.554-2.082-5.043-1.568-1.946-3.362-3.677-4.795-5.734-1.534-2.2-2.876-4.526-4.431-6.713-1.479-2.081-4.949-.086-3.454,2.019Z"/><path class="a" d="M288.638,258.154q-.531.356-1.063.77c-3.625,2.614-6.355,4.907-7.32,7.111a4.483,4.483,0,0,0,1.475,5.278l1.852,1.1c-1.463,1.061-2.867,2.13-4.255,3.32-2.49,2.12-4.09,4.58-3.49,6.51.987,3.14,4.188,2.852,5.695,2a24.906,24.906,0,0,0-2.29,1.989,4.76,4.76,0,0,0,.424,6.277c1.412,1.147,4.579.887,6.871-.593l2.479-1.771c-1.538,1.839-1.57,4.3.406,5.6,1.813,1.187,4.832.5,6.181-.153a93.283,93.283,0,0,0,8.3-5.175c1.008-.627,2.829-1.728,4.62-2.833,1.55-1.7-.518,1.107-1.333,2.7a7.465,7.465,0,0,0-.639,2.056,3.143,3.143,0,0,0,.917,2.861c2.057,2.17,4.732-.471,7.416-2.167a33.553,33.553,0,0,0,6.339-4.718,24.676,24.676,0,0,0,6.824-12.081,16.263,16.263,0,0,0-.895-11.215,20.276,20.276,0,0,0-4.49-5.875c-2.607-1.971-8.382-3.581-11.143-3.858a54.251,54.251,0,0,0-11.914-.251C295.542,255.355,292.1,255.833,288.638,258.154Z"/><path class="d" d="M299.687,273.8l.032-.021L297.7,270.32c-3.787,2.836-7.789,5.413-11.66,8.134-1.241.872-2.475,1.752-3.69,2.66-1.691,1.262-3.829,2.578-5.022,4.365a6.892,6.892,0,0,0-.373,6.679,5.423,5.423,0,0,0,4.969,3.062c3.55.137,6.135-1.943,8.84-3.874a2.056,2.056,0,0,0,.717-2.737,2.016,2.016,0,0,0-2.736-.717c-1.651,1.179-3.311,2.709-5.326,3.187a4.589,4.589,0,0,1-2,.074c.041.01-.569-.207-.425-.135s-.3-.268-.071-.057a1.809,1.809,0,0,1-.467-.709,2.881,2.881,0,0,1,1.02-3.38c4.215-3.722,9.156-6.772,13.765-9.982,1.488-1.037,3.022-2.029,4.474-3.116a2.063,2.063,0,0,0,.718-2.737,2.02,2.02,0,0,0-2.736-.717l-.032.022a2.05,2.05,0,0,0-.718,2.736,2.018,2.018,0,0,0,2.736.717Z"/><path class="d" d="M280.538,282.508c-.48.262.126,0-.215.11-.16.05-.319.1-.482.139s-.514.069-.161.04a4.73,4.73,0,0,1-.724.006c.356.027-.063-.015-.193-.049a3.4,3.4,0,0,1-.354-.115c.162.065.18.066.053,0a1.006,1.006,0,0,1-.5-.5,1.236,1.236,0,0,1-.242-.936c-.019.269.083-.335.088-.351a2.616,2.616,0,0,1,.222-.551,10.483,10.483,0,0,1,2.461-2.932c4.413-3.917,9.653-6.74,14.234-10.431a2.012,2.012,0,0,0,0-2.828,2.047,2.047,0,0,0-2.828,0c-2.065,1.663-4.358,3.057-6.523,4.584-2.317,1.636-4.635,3.276-6.82,5.089-1.954,1.621-4.059,3.661-4.663,6.23a5.588,5.588,0,0,0,2.473,6.033,6.369,6.369,0,0,0,6.2-.085c2.259-1.234.243-4.689-2.019-3.454Z"/><path class="d" d="M302.68,277.6c-3.549,2.5-7.12,4.971-10.611,7.547-2.8,2.064-6.557,4.407-6.126,8.394.492,4.565,5.583,5.517,9.259,4.341,3.619-1.158,6.686-3.857,9.869-5.843,2.933-1.829,5.967-3.526,8.8-5.516,2.089-1.47.093-4.939-2.019-3.454-2.21,1.555-4.558,2.924-6.863,4.332-2.543,1.553-4.974,3.272-7.507,4.838a13.871,13.871,0,0,1-4.055,1.981c-.985.233-2.692.454-3.34-.564-.688-1.081.413-2.175,1.177-2.81,1.028-.855,2.064-1.688,3.144-2.477,3.4-2.483,6.852-4.893,10.3-7.315,2.089-1.47.093-4.939-2.019-3.454Z"/><path class="d" d="M282.74,269.586a2.477,2.477,0,0,1-.514-3.033,11.373,11.373,0,0,1,2.837-3.164c2.7-2.347,5.665-4.652,9.175-5.567a40.513,40.513,0,0,1,9.873-1,43.152,43.152,0,0,1,9.023.754,22.856,22.856,0,0,1,8.065,2.984,14.2,14.2,0,0,1,4.822,7.009c1.929,6.249-.891,13.294-5.02,18.024-2.693,3.085-6.172,5.135-9.561,7.367-.8.524-2.686,1.935-2.943.1-.217-1.554,1.324-3.3,2.069-4.513,1.35-2.2-2.108-4.212-3.454-2.019a15.031,15.031,0,0,0-2.493,5.283,5.37,5.37,0,0,0,2.386,5.581c1.893,1.13,4.008.507,5.774-.548,1.888-1.127,3.723-2.422,5.548-3.651,6.957-4.684,12.236-12.707,12.308-21.3a18.37,18.37,0,0,0-4.134-11.545c-2.387-3.1-5.48-4.647-9.168-5.8a43.47,43.47,0,0,0-11.181-1.689,48.118,48.118,0,0,0-12.254.935c-4.842,1.074-9.157,4.286-12.667,7.689-1.513,1.467-2.968,3.25-3.243,5.406a6.469,6.469,0,0,0,2.733,6.154c2.138,1.446,4.142-2.018,2.019-3.454Z"/><path class="d" d="M228.175,121.425c2.181,2.13,5.6,2.784,8.523,2.949a15.007,15.007,0,0,0,9.553-2.636,2.053,2.053,0,0,0,.718-2.736,2.019,2.019,0,0,0-2.737-.718c-.4.277-.807.547-1.229.791-.241.139-.485.27-.734.392-.134.066-.27.129-.406.19.364-.162-.211.077-.231.085a11.383,11.383,0,0,1-4.652.646,13.767,13.767,0,0,1-4.317-.827c-.049-.019-.494-.2-.239-.091s-.15-.074-.2-.1c-.212-.1-.42-.214-.623-.335-.107-.064-.209-.134-.315-.2-.067-.041-.363-.234-.068-.037s-.139-.128-.217-.2c-1.843-1.8-4.674,1.026-2.828,2.828Z"/><path class="d" d="M236.833,104.149a37.542,37.542,0,0,1,.881,4.03l-.072-.531a2.406,2.406,0,0,1,.015.556l.072-.532a1.352,1.352,0,0,1-.061.251l.2-.478a1.006,1.006,0,0,1-.088.161l.313-.405a.9.9,0,0,1-.132.13l.405-.313a2.779,2.779,0,0,1-.319.169l.477-.2a2.291,2.291,0,0,1-.538.157l.532-.071a2.133,2.133,0,0,1-.5,0l.532.071c-.191-.026-.378-.073-.568-.1a2.214,2.214,0,0,0-1.541.2,2,2,0,0,0-.718,2.737,1.918,1.918,0,0,0,1.2.919c.427.058.842.167,1.277.186a4.076,4.076,0,0,0,1.875-.445,2.693,2.693,0,0,0,1.5-1.776,4.489,4.489,0,0,0-.02-1.92c-.219-1.3-.519-2.585-.853-3.859a2,2,0,0,0-3.857,1.063Z"/><path class="d" d="M249.648,95.5c-.021-1.969.785-4.228,2.6-5.173a4.464,4.464,0,0,1,6.215,3.175c.973,2.98-.557,6.954-3.959,7.3C251.728,100.962,249.6,98.116,249.648,95.5Z"/><path class="d" d="M215.3,95.517c-.021-1.969.784-4.228,2.6-5.173a4.465,4.465,0,0,1,6.216,3.176c.973,2.979-.557,6.953-3.959,7.3C217.382,100.975,215.258,98.129,215.3,95.517Z"/></svg>