<?xml version="1.0" encoding="utf-8"?>
<!-- Uploaded to: SVG Repo, www.svgrepo.com, Generator: SVG Repo Mixer Tools -->
<svg width="800px" height="800px" viewBox="-68.25 0 450.408 450.408" xmlns="http://www.w3.org/2000/svg"><defs><style>.a{fill:#ffffff;}.b{fill:#f7a19f;}.c{fill:#211715;}.d{fill:#957f6e;}.e{fill:#f2635f;}.f{fill:#7a7473;}.g{fill:#5394cf;}.h{fill:#b1cfe9;}</style></defs><path class="a" d="M260.494,78.74a4.289,4.289,0,0,1,3.43-1,4.047,4.047,0,0,1,2.91,1.935,5.707,5.707,0,0,1,.6,2.3,17.154,17.154,0,0,1-1.748,9.091,10.9,10.9,0,0,1-2.819,3.7,7.221,7.221,0,0,1-3.361,1.515l-.575.089c-.276,1.032-.586,1.9-.738,2.363-1.107,3.006-7.973,14.38-16.133,16.193a31.63,31.63,0,0,1-8.867,1.183,47.037,47.037,0,0,1-8.285-.39c-5.4-.529-10.238-3.553-14.3-8.42a29.161,29.161,0,0,1-5.558-10.849l-1.1-.169a7.23,7.23,0,0,1-3.361-1.515,10.888,10.888,0,0,1-2.818-3.7,17.145,17.145,0,0,1-1.749-9.091,5.727,5.727,0,0,1,.6-2.3,4.051,4.051,0,0,1,2.911-1.935,4.29,4.29,0,0,1,3.43,1s1.07-26.355,27.342-26.355S260.494,78.74,260.494,78.74Z"/><path class="a" d="M311.3,275.209c-1.236-3.561-3.382-6.986-4.952-10.373a22.213,22.213,0,0,0-2.658-3.861c-.87-1.122-2.059-1.95-3.031-2.986-1.728-1.843-5.366-6.1-7.007-9.463-.588-1.6-1.527-4.659-2.249-7.462l-.28-.969-.618.2c-2.8.894-6.641,2.049-11.712,3.547,1.51,4.528,3.967,11.9,3.967,11.9a20.359,20.359,0,0,0,1.831,6.348,14.38,14.38,0,0,0,3.477,4.129,74.851,74.851,0,0,0,8.23,6.422,14.61,14.61,0,0,0,2.784-1.293q2.889,3.515,5.91,6.919a8.186,8.186,0,0,0,2.966,2.418,2.87,2.87,0,0,0,3.451-.872,4.177,4.177,0,0,0,.207-3.62Q311.467,275.7,311.3,275.209Z"/><path class="a" d="M256.122,432.432a52.93,52.93,0,0,0,5.115,2.78,15.568,15.568,0,0,0,7.728,1.459c2.416-.154,5.217-1.173,6.337-3.614.8-1.906.836-3.845-1.4-6.52a32.051,32.051,0,0,0-5.416-5.149,40.883,40.883,0,0,1-5.963-5.82,30.789,30.789,0,0,1-4.452-9.293l-.269-1.358c-6.268.376-12.488.369-19.593.348v.174c.008,3.345-.477,7.4-.6,8.961a8.555,8.555,0,0,0,2.106,6.319C240.978,422.2,250.9,429.245,256.122,432.432Z"/><path class="a" d="M193.253,423.855a24.674,24.674,0,0,1,2.911-2.467,35.775,35.775,0,0,0,5.962-5.82,22.8,22.8,0,0,0,3.667-7.086l.5-3.8c5.179.268,12.67.6,19.3.637a17.414,17.414,0,0,0,.256,5.734,8.072,8.072,0,0,0,.565.849,6.376,6.376,0,0,1,.617,5.743,8.724,8.724,0,0,1-2.1,3.076c-1.268,1.484-11.184,8.526-16.394,11.7a53.108,53.108,0,0,1-5.133,2.79,15.566,15.566,0,0,1-7.728,1.459c-2.415-.154-5.217-1.173-6.337-3.614-.8-1.906-.836-3.845,1.4-6.52A36.241,36.241,0,0,1,193.253,423.855Z"/><path class="a" d="M235.79,424.783c-.683-2.306-.668-5.257,2.292-6.823a9.019,9.019,0,0,0,1.628,2.759c1.268,1.484,11.185,8.526,16.412,11.713a52.93,52.93,0,0,0,5.115,2.78,15.568,15.568,0,0,0,7.728,1.459c2.416-.154,5.217-1.173,6.337-3.614a5.6,5.6,0,0,0,.5-2.364,5.557,5.557,0,0,1,3.214,6.777,6.8,6.8,0,0,1-4.42,4.763,18.374,18.374,0,0,1-7.309,1.353,26.266,26.266,0,0,1-5.928-.838c-6-1.566-12.413-5.672-17.868-9.658-1.684-1.23-5.256-3.9-6.451-5.61A9.84,9.84,0,0,1,235.79,424.783Z"/><path class="a" d="M186.31,439.129a8.587,8.587,0,0,1-.679-1.659,5.558,5.558,0,0,1,3.215-6.777,5.588,5.588,0,0,0,.5,2.364c1.12,2.441,3.922,3.46,6.337,3.614a15.566,15.566,0,0,0,7.728-1.459,53.108,53.108,0,0,0,5.133-2.79c5.21-3.177,15.126-10.219,16.394-11.7a9.781,9.781,0,0,0,1.909-2.6c4.042,2.417,1.968,7.639.763,9.362-1.195,1.708-4.443,4.036-6.119,5.276-6.607,4.887-12.471,8.075-18.2,9.992a20.557,20.557,0,0,1-5.928.838,18.374,18.374,0,0,1-7.309-1.353A6.85,6.85,0,0,1,186.31,439.129Z"/><path class="b" d="M300.075,235.616c-2.636-10.824-10.744-65.579-17.292-83.5-2.356-6.039-5.339-10.737-7.708-13.224a38.608,38.608,0,0,0-6.759-5.3c-5.333-2.856-8.036-4.086-13.6-6.505-3.178-2.5-5.5-4.591-8.4-6.829l-40.953,7.83c-6.551,3.388-13.314,6.948-17.852,12.763-4.333,5.551-7.848,16.073-9.306,22.963a151.956,151.956,0,0,0-3.519,24.605c-.256,4.876-.207,15.906,1.074,20.617,1.145,4.208,6.357,16.893,17.421,15.443-2.96,29.442.879,64.284,1.84,87.483,1.334,32.184,4.123,61.583,6.593,92.456,5.133.3,20.466,1.152,30.222.834,12,0,21.182.221,31.111-.73,2.239-33.9,3.9-63.144,5.185-92.778.761-17.584,3.2-42.255,3.24-65.72,8.906-2.613,15.1-4.441,19.129-5.728a77.92,77.92,0,0,0,8.815-3.482A1.067,1.067,0,0,0,300.075,235.616Z"/><path class="c" d="M191.182,224.491c-2.248,22.614-.727,45.44.724,68.054.69,10.735,1.149,21.474,1.725,32.215.673,12.572,1.565,25.132,2.551,37.684,1.1,14,2.309,27.983,3.43,41.977a2.056,2.056,0,0,0,2,2c15.51.9,31.022,1.018,46.556.821,4.936-.063,9.868-.258,14.784-.721a2.064,2.064,0,0,0,2-2q2.1-31.971,3.809-63.966c.513-9.9.957-19.8,1.41-29.7.434-9.475,1.161-18.934,1.764-28.4.773-12.126,1.408-24.268,1.437-36.421.006-2.574-3.994-2.578-4,0-.05,20.614-1.955,41.135-3.046,61.7-1.06,19.962-1.892,39.933-3.066,59.89q-1.086,18.452-2.308,36.9l2-2c-9.067.854-18.175.761-27.272.736-8.1-.022-16.165.02-24.261-.333q-4.905-.213-9.807-.5l2,2c-2-24.928-4.266-49.837-5.711-74.806-.639-11.046-1.041-22.1-1.743-33.144s-1.442-22.076-1.819-33.131a292.175,292.175,0,0,1,.843-38.849,2.014,2.014,0,0,0-2-2,2.043,2.043,0,0,0-2,2Z"/><path class="c" d="M255.845,431.361a16.907,16.907,0,0,1,6.9-5,21.814,21.814,0,0,1,3.823-1.2c.159-.033.318-.064.478-.092.034-.006.65-.1.215-.041.3-.037.595-.064.893-.079.281-.013.562-.017.842-.007.16.006.318.021.477.031.43.027-.38-.066.065.013a2.057,2.057,0,0,0,2.461-1.4,2.018,2.018,0,0,0-1.4-2.46c-3.228-.574-6.513.344-9.472,1.605a20.308,20.308,0,0,0-8.116,5.8,2.065,2.065,0,0,0,0,2.828,2.011,2.011,0,0,0,2.828,0Z"/><path class="c" d="M253.906,428.553a12.43,12.43,0,0,1,1.306-1.427c.26-.244.531-.473.8-.7l.154-.124c-.116.089-.12.092-.009.009q.2-.15.407-.3a22.08,22.08,0,0,1,3.768-2.115l.189-.082c-.131.056-.133.058,0,.005.157-.062.315-.125.473-.184q.469-.177.946-.331a18.312,18.312,0,0,1,1.941-.517c.149-.031.3-.06.448-.086.054-.01.642-.092.166-.034.277-.033.556-.059.836-.073.262-.013.525-.017.787-.007.149,0,.3.02.446.029.419.025-.407-.07.027.007a2.056,2.056,0,0,0,2.46-1.4,2.017,2.017,0,0,0-1.4-2.46c-3.057-.543-6.156.32-8.958,1.514a19.078,19.078,0,0,0-7.617,5.442,2.065,2.065,0,0,0,0,2.829,2.013,2.013,0,0,0,2.828,0Z"/><path class="c" d="M236.206,405.439c-.011,3.265-.679,6.529-.629,9.78a10.435,10.435,0,0,0,3.558,7.7,129,129,0,0,0,13.33,9.564c5.638,3.679,12.608,7.992,19.6,5.619a7.914,7.914,0,0,0,5.723-6.987c.2-3.644-2.844-6.648-5.28-8.954-1.308-1.239-2.8-2.225-4.143-3.419a49.852,49.852,0,0,1-4.187-4.3c-.114-.13-.246-.271-.357-.41.146.182.011.01-.052-.079-.2-.282-.385-.579-.564-.876-.428-.707-.817-1.437-1.186-2.176A28.547,28.547,0,0,1,260,405.743c-.683-2.478-4.543-1.426-3.857,1.064a33.439,33.439,0,0,0,3.618,8.287,29.787,29.787,0,0,0,5.51,6.226c2.434,2.228,12.346,8.482,7.064,12.255-2.463,1.76-6.252,1.29-8.925.378a38.173,38.173,0,0,1-7.908-4.27c-4.237-2.71-8.529-5.64-12.433-8.7-1.8-1.409-3.27-2.909-3.471-5.359a26.926,26.926,0,0,1,.312-4.46c.168-1.9.294-3.812.3-5.724.008-2.574-3.992-2.578-4,0Z"/><path class="c" d="M223.592,405.422c-.058,1.115-.11,2.234-.072,3.351a9.419,9.419,0,0,0,.421,2.848,2.148,2.148,0,0,0,.92,1.2,2,2,0,0,0,2.938-2.259,5.436,5.436,0,0,1-.252-1.075l.072.532a24.9,24.9,0,0,1-.027-4.593,2.014,2.014,0,0,0-2-2,2.045,2.045,0,0,0-2,2Z"/><path class="c" d="M275.4,432.677c3.032,1.687,1.913,5.867-.716,7.314-3.944,2.169-8.987,1.892-13.183.722a45.88,45.88,0,0,1-12.749-6.38,56,56,0,0,1-9.414-7.234c-1.615-1.668-3.107-5.535-.621-7.194,2.13-1.422.13-4.888-2.019-3.454-3.931,2.623-3.9,7.474-1.82,11.317a15.789,15.789,0,0,0,4.211,4.453c1.919,1.552,3.918,3.01,5.946,4.415,4.825,3.34,10.066,6.541,15.794,8.04,5.234,1.37,11.892,1.531,16.559-1.65,4.693-3.2,5.363-10.836.031-13.8-2.251-1.252-4.271,2.2-2.019,3.454Z"/><path class="c" d="M211.862,428.3a20.291,20.291,0,0,0-8.116-5.8c-2.96-1.259-6.242-2.179-9.472-1.605a2.016,2.016,0,0,0-1.4,2.46,2.044,2.044,0,0,0,2.46,1.4c.492-.087-.452.018.066-.013.132-.008.263-.021.4-.027.279-.013.558-.012.837,0,.327.013.654.041.98.082-.3-.038-.031,0,.12.025s.317.056.476.088a19.291,19.291,0,0,1,2.072.541q.508.162,1.01.348c.378.14.632.241.837.331a16.857,16.857,0,0,1,6.9,5,2.01,2.01,0,0,0,2.828,0,2.049,2.049,0,0,0,0-2.828Z"/><path class="c" d="M214.27,426.025a19.881,19.881,0,0,0-7.95-5.678c-2.908-1.237-6.128-2.139-9.3-1.575a2.016,2.016,0,0,0-1.4,2.46,2.044,2.044,0,0,0,2.46,1.4c.484-.086-.457.02.053-.011.129-.008.258-.021.387-.027.273-.013.546-.011.818,0q.481.021.959.081c-.3-.037-.055-.007.106.022s.311.055.466.086a19.166,19.166,0,0,1,2.027.53q.5.158.988.34c.382.142.618.237.809.32a16.411,16.411,0,0,1,6.745,4.884,2.012,2.012,0,0,0,2.829,0,2.052,2.052,0,0,0,0-2.829Z"/><path class="c" d="M225.11,417.111a9.079,9.079,0,0,1-2.935,3.4c-1.362,1.107-2.831,2.166-4.3,3.222-3.5,2.512-7.048,4.987-10.741,7.2a25.229,25.229,0,0,1-7.814,3.53c-2.219.444-5.071.49-7-.891a3.321,3.321,0,0,1-.885-4.575,21.393,21.393,0,0,1,5.472-5.693,37.741,37.741,0,0,0,6.4-6.032,25.154,25.154,0,0,0,4.424-8.262c.816-2.447-3.045-3.5-3.857-1.063a21.161,21.161,0,0,1-4.444,7.695,68.137,68.137,0,0,1-6.237,5.562c-2.284,1.973-4.81,4.382-5.9,7.254a7.24,7.24,0,0,0,1.595,7.406c4.348,4.6,12.011,2.907,16.921.4a107.664,107.664,0,0,0,13.021-8.311c3.7-2.626,8.419-5.345,10.149-9.777a2.016,2.016,0,0,0-1.4-2.461,2.046,2.046,0,0,0-2.46,1.4Z"/><path class="c" d="M187.23,429.223c-4.653,2.589-4.865,9.095-1.31,12.708a13.443,13.443,0,0,0,6.971,3.24,24.314,24.314,0,0,0,8.867.011,31.7,31.7,0,0,0,7.573-2.707,64.628,64.628,0,0,0,7.4-4.041c2.4-1.509,4.709-3.157,6.982-4.852a25.151,25.151,0,0,0,5.457-4.876c2.78-3.776,2.948-9.472-1.222-12.255-2.148-1.433-4.153,2.03-2.019,3.454,2.183,1.457,1.249,4.838-.053,6.565a19.2,19.2,0,0,1-3.906,3.452c-1.822,1.367-3.667,2.706-5.565,3.965-7.213,4.783-16.138,9.83-24.991,6.732a5.451,5.451,0,0,1-3.749-3.339,3.723,3.723,0,0,1,1.58-4.6c2.25-1.251.235-4.707-2.019-3.454Z"/><path class="d" d="M263.692,52.5a1.214,1.214,0,0,0,.184.041c2.065.438,4.6.071,5.6-1.773a6.766,6.766,0,0,0,.711-3.529c-.491-5.9-2.262-11.825-6.209-16.232a9.343,9.343,0,0,0-4.135-2.766,6.529,6.529,0,0,0-5.026.192,6.981,6.981,0,0,0-2.953,2.476,16.509,16.509,0,0,0-2.431,4.9s-.627,5.543,4.854,10.728S263.692,52.5,263.692,52.5Z"/><path class="d" d="M264.281,56.327a29.169,29.169,0,0,0-1.915-5.1,33.787,33.787,0,0,0-17.33-16.206,30.712,30.712,0,0,0-13.49-2.389c-15.44-.849-30.17,10.765-33.15,25.4a41.4,41.4,0,0,0,.03,13.847L199.7,77.72a4.1,4.1,0,0,1,1.5.107l1.685-.849c16.172-3.48,31.056-12.245,41.983-21.215a50.107,50.107,0,0,0,4.677,11.885c1.777,3.043,6.95,10.095,11.469,10.71a4.294,4.294,0,0,1,2.912-.622,3.554,3.554,0,0,1,.522.118c2.43-5.6,1.214-15.087.24-19.816Q264.511,57.176,264.281,56.327Z"/><path class="e" d="M261,183.362c-.063-1.1-.119-2.15-.166-3.139l-1.517-.3c-8.3-1.629-17.152-1-25.111-.889L214.8,180.3l-5.185,25.481a25.833,25.833,0,0,1-4.447,10.933l8.151-.044c11.259.074,30.963-.37,49.556-.741l.851-.017C262.517,204.509,261.507,192.236,261,183.362Z"/><path class="c" d="M266.4,78.316c1.557-3.793,1.621-8.182,1.363-12.216a47.412,47.412,0,0,0-2.028-11.857,35.192,35.192,0,0,0-17.582-19.98,33.821,33.821,0,0,0-14.752-3.669,42.308,42.308,0,0,0-12.819,1.4,36.221,36.221,0,0,0-19.459,14.481,30.356,30.356,0,0,0-4.872,12.264,38.554,38.554,0,0,0,.241,13.68c.562,2.511,4.42,1.449,3.858-1.063a34.72,34.72,0,0,1-.347-10.555,25.785,25.785,0,0,1,3.123-9.911,31.825,31.825,0,0,1,16-14.163,29.483,29.483,0,0,1,10.788-2.132,53.7,53.7,0,0,1,6.712.209,30.158,30.158,0,0,1,7.02,1.811,31.773,31.773,0,0,1,17.18,16.036,36.228,36.228,0,0,1,2.839,12.184c.359,4.11.471,8.537-1.125,12.42a2.014,2.014,0,0,0,1.4,2.461,2.052,2.052,0,0,0,2.461-1.4Z"/><path class="c" d="M243.387,58.124a44.044,44.044,0,0,0,5.936,12.85c2.6,3.676,6.163,8.178,10.786,9.248,2.5.579,3.574-3.276,1.063-3.857a10.552,10.552,0,0,1-4.666-3,32.457,32.457,0,0,1-4.009-4.807,40.689,40.689,0,0,1-5.252-11.494c-.73-2.462-4.592-1.414-3.858,1.064Z"/><path class="c" d="M257.461,93.087a16.069,16.069,0,0,1-.939,4.339c-.062.191-.491,1.317-.223.709q-.2.459-.426.906a36.915,36.915,0,0,1-3.169,5.094c-2.745,3.765-6.476,7.757-11.177,8.86-2.5.588-1.445,4.446,1.063,3.858,5.675-1.332,10.075-5.968,13.413-10.488,2.88-3.9,5.257-8.321,5.458-13.278.1-2.574-3.9-2.569-4,0Z"/><path class="c" d="M261.908,80.154a2.211,2.211,0,0,1,3.129.413,4.72,4.72,0,0,1,.453,2.405,14.46,14.46,0,0,1-.2,2.954c-.641,3.51-2.413,7.725-6.315,8.424a2.017,2.017,0,0,0-1.4,2.461,2.045,2.045,0,0,0,2.46,1.4c6.054-1.086,8.944-7.916,9.4-13.4.235-2.838-.011-6.054-2.464-7.889a6.319,6.319,0,0,0-7.894.411,2.015,2.015,0,0,0,0,2.828,2.044,2.044,0,0,0,2.829,0Z"/><path class="c" d="M204.375,77.326a6.323,6.323,0,0,0-7.894-.411c-2.455,1.829-2.7,5.055-2.463,7.889.455,5.488,3.345,12.318,9.4,13.4a2.058,2.058,0,0,0,2.461-1.4,2.018,2.018,0,0,0-1.4-2.461c-3.9-.7-5.675-4.914-6.315-8.424a14.211,14.211,0,0,1-.2-2.787,5.527,5.527,0,0,1,.385-2.458,2.2,2.2,0,0,1,3.2-.527,2.054,2.054,0,0,0,2.828,0,2.016,2.016,0,0,0,0-2.828Z"/><path class="c" d="M202.193,92.864a33.425,33.425,0,0,0,7.126,16c4.015,4.753,9.33,8.176,15.588,8.851a2.013,2.013,0,0,0,2-2,2.047,2.047,0,0,0-2-2c-5.305-.572-9.732-3.986-13.022-8-3.253-3.963-4.963-8.93-5.835-13.921a2.017,2.017,0,0,0-2.46-1.4,2.046,2.046,0,0,0-1.4,2.46Z"/><path class="c" d="M242.013,55.511c-11.607,9.182-25.143,16.37-39.662,19.539-2.514.548-1.45,4.405,1.063,3.857,15.221-3.322,29.277-10.956,41.427-20.568a2.01,2.01,0,0,0,0-2.828,2.05,2.05,0,0,0-2.828,0Z"/><path class="c" d="M213.316,218.666c16.517.1,33.043-.412,49.556-.741,2.57-.051,2.579-4.051,0-4-16.513.329-33.039.843-49.556.741-2.574-.016-2.577,3.984,0,4Z"/><path class="c" d="M280.828,256.275a22.328,22.328,0,0,0,1.456,5.533,14.514,14.514,0,0,0,3.419,4.948,70.925,70.925,0,0,0,9.581,7.613,2,2,0,1,0,2.019-3.454,67.335,67.335,0,0,1-8.564-6.789,10.955,10.955,0,0,1-2.713-3.657,20.548,20.548,0,0,1-1.341-5.258,2.013,2.013,0,0,0-2.46-1.4,2.054,2.054,0,0,0-1.4,2.461Z"/><path class="c" d="M204.353,126.361c-5.475,2.833-11.03,5.764-15.522,10.064-4.145,3.968-6.7,9.047-8.768,14.329a94.013,94.013,0,0,0-4.482,15.893A153.6,153.6,0,0,0,172.8,186.48a117.38,117.38,0,0,0-.032,14.946,34.862,34.862,0,0,0,1.859,10.539c2.614,6.788,7.576,13.671,15.34,14.549,5.05.572,9.741-1.628,13.438-4.906a26.612,26.612,0,0,0,8.133-15.3c.463-2.517-3.392-3.6-3.857-1.064a23.411,23.411,0,0,1-6.2,12.688c-2.648,2.625-5.93,4.583-9.752,4.668a11.254,11.254,0,0,1-8.464-3.865,19.933,19.933,0,0,1-2.73-3.664c-.379-.634-.732-1.284-1.061-1.944-.155-.312-.305-.625-.45-.942-.185-.406-.294-.664-.339-.776a29.015,29.015,0,0,1-1.849-8.955,116.364,116.364,0,0,1-.175-13.583,131.028,131.028,0,0,1,2.126-17.8,112.334,112.334,0,0,1,3.8-15.6c1.794-5.324,4.027-10.907,7.925-15.063,4.4-4.689,10.216-7.674,15.855-10.592,2.287-1.184.266-4.637-2.019-3.454Z"/><path class="c" d="M234.205,181.036c8.186-.12,16.483-.731,24.579.818,2.516.481,3.593-3.374,1.064-3.857-8.476-1.622-17.073-1.086-25.643-.961-2.572.038-2.579,4.038,0,4Z"/><path class="c" d="M219.978,117.505a47.711,47.711,0,0,0,16.388,16.639c2.206,1.339,4.219-2.118,2.019-3.454a43.485,43.485,0,0,1-14.953-15.2c-1.3-2.221-4.759-.21-3.454,2.019Z"/><path class="c" d="M252.275,139.769c-1.848,9.64-5.129,18.9-12.764,25.48-1.952,1.684.887,4.5,2.829,2.828,8.114-7,11.825-16.983,13.792-27.245.482-2.515-3.372-3.593-3.857-1.063Z"/><path class="c" d="M244.9,121.673c1.5,1.163,2.959,2.373,4.417,3.586A27.3,27.3,0,0,0,254.14,129c3.039,1.5,6.2,2.733,9.233,4.263a41.229,41.229,0,0,1,8.006,4.971,24.889,24.889,0,0,1,5.242,5.988c5.3,8.37,7.311,18.313,9.405,27.86,2.386,10.884,4.4,21.85,6.363,32.816,1.6,8.91,3.074,17.844,4.8,26.729.245,1.263.5,2.525.781,3.779.067.3.151,1.137.241.16.08-.859.141-.34-.343-.289a4.109,4.109,0,0,0-.823.361q-.654.286-1.309.569c-1.412.608-2.842,1.17-4.3,1.67-5.487,1.888-11.108,3.426-16.673,5.062l-2.79.82-1.586.466c-.231.067-.463.146-.7.2l-.236.069q-.447.156-.044-.03l.883.514c.082.068.189.559.008.138-.04-.093-.07-.191-.1-.286-.089-.254-.168-.51-.244-.768-.181-.611-.336-1.231-.48-1.852-.386-1.657-.694-3.333-.981-5.01-.784-4.592-1.382-9.214-1.933-13.839q-1.965-16.506-3.116-33.1c-.334-4.7-.641-9.407-.764-14.118-.067-2.569-4.067-2.579-4,0,.4,15.513,1.981,31.08,3.793,46.483a196.3,196.3,0,0,0,3.072,20.336,27.974,27.974,0,0,0,.744,2.78,6.355,6.355,0,0,0,.639,1.475c1.03,1.559,2.733,1.388,4.292.93,5.063-1.485,10.129-2.963,15.179-4.494a113.11,113.11,0,0,0,12.661-4.563c1.292-.566,2.594-1.118,2.958-2.634a4.914,4.914,0,0,0-.221-2.231c-.218-.969-.416-1.944-.609-2.919-1.249-6.308-2.321-12.651-3.441-18.983-2.93-16.578-5.737-33.242-9.8-49.59-1.931-7.779-4.259-15.5-8.95-22.128a30.223,30.223,0,0,0-9.684-8.744c-2.339-1.315-4.768-2.5-7.2-3.644-2.556-1.2-5.444-2.078-7.638-3.86-2.259-1.833-4.462-3.733-6.76-5.517a2.066,2.066,0,0,0-2.828,0,2.014,2.014,0,0,0,0,2.829Z"/><path class="c" d="M217.2,129.564a72.563,72.563,0,0,0,12.268,13.764,2.049,2.049,0,0,0,2.828,0,2.016,2.016,0,0,0,0-2.828,68.754,68.754,0,0,1-11.642-12.955,2.05,2.05,0,0,0-2.736-.717,2.018,2.018,0,0,0-.718,2.736Z"/><path class="c" d="M289.471,241.6c1.014,3.9,2.016,7.7,4.317,11.053a49.207,49.207,0,0,0,7.164,8.359,17.626,17.626,0,0,1,3.851,5.234c1.014,2.093,2.145,4.125,3.163,6.215a30.123,30.123,0,0,1,1.306,3.016c.323.9.865,2.072.561,3.033-.44,1.4-2.634-.773-3.172-1.363-3.737-4.1-7.251-8.425-10.635-12.814a2.067,2.067,0,0,0-2.736-.717,2.013,2.013,0,0,0-.718,2.736c3.422,4.439,6.969,8.777,10.684,12.975,1.589,1.8,3.408,3.6,5.978,3.589a4.654,4.654,0,0,0,4.626-4.264c.3-2.593-1.069-5.313-2.146-7.6-1.087-2.308-2.345-4.53-3.457-6.826-2.006-4.141-5.687-6.878-8.559-10.357a29.24,29.24,0,0,1-4.173-6.051,43.861,43.861,0,0,1-2.2-7.283c-.648-2.489-4.507-1.434-3.857,1.064Z"/><path class="a" d="M233.116,177.882a3.674,3.674,0,0,0,1.212-3.142,3.363,3.363,0,0,0-1.922-2.7,3.919,3.919,0,0,0-1.2-5.629,5.532,5.532,0,0,0,.116-.715c.019-.1.017-.211.026-.311a3.862,3.862,0,0,0-.631-2.522c-.6-.853-1.451-1-2.793-1.186-.982-.128-2.447-.192-3.845-.232-2.444.51-3.63.835-6.064,1.355a17.009,17.009,0,0,0-5.636,1.94,6.648,6.648,0,0,0-1.938,1.834c-1.149,1.705-1.282,3.867-1.767,5.873a16.509,16.509,0,0,1-3.644,6.985s-2.874,1.94-6.323,3.745a31.129,31.129,0,0,0,2.016,6.089l3.992,7.922c.04.08.089.191.141.319a10.494,10.494,0,0,1,3.591-1.563,25.6,25.6,0,0,1,3.827.078,8.2,8.2,0,0,0,9.406-3.191c1.355-1.893,2.242-4.694,4.071-6.125,0,0,3.695-1.227,4.976-1.612,2.072-.624,3.105-1.338,3.674-2.9A3.811,3.811,0,0,0,233.116,177.882Z"/><path class="a" d="M230.266,160.423a32.745,32.745,0,0,0,14.687-18.563c5.1-16.007-5.838-34.624-24.057-36.16-15.554-1.311-28.107,6.871-32.567,12.082-7.647,8.934-9.409,22.745-3.965,33.169s14.987,15.585,24.866,14.426Z"/><path class="c" d="M236.621,140.828c-10.433-6.9-25.323-3.42-34.782,3.6a24.729,24.729,0,0,0-7.274,8.018c-1.215,2.269,2.237,4.291,3.454,2.018,3.441-6.429,10.741-10.363,17.555-12.209,6.353-1.721,13.381-1.711,19.028,2.023,2.153,1.424,4.159-2.038,2.019-3.454Z"/><path class="c" d="M231.276,162.15c10.795-6.215,18.2-19.055,16.742-31.63a30.524,30.524,0,0,0-19.384-25.151c-6.224-2.308-13.245-2.226-19.68-.918a44.065,44.065,0,0,0-16.617,7.166,29.622,29.622,0,0,0-10.084,12.044,33.927,33.927,0,0,0-2.614,19.222c1.957,12.531,12.252,23.652,25.2,24.594a24.249,24.249,0,0,0,4.394-.1,2.061,2.061,0,0,0,2-2,2.013,2.013,0,0,0-2-2,21.693,21.693,0,0,1-14.977-3.79,26.546,26.546,0,0,1-9.794-13.616c-3.189-10.211-.247-22.472,8.034-29.46,8.241-6.955,20.632-10.624,31.262-8.386a26.1,26.1,0,0,1,19.623,19.115c3.143,12.175-3.427,25.3-14.121,31.456-2.231,1.284-.218,4.742,2.019,3.454Z"/><path class="c" d="M226,147.269c-.749,1.1-1.384,2.265-2.091,3.39a2,2,0,0,0,.718,2.736,2.022,2.022,0,0,0,1.541.2,2.15,2.15,0,0,0,1.195-.92c.707-1.124,1.342-2.291,2.091-3.389a2,2,0,0,0-2.259-2.938l-.478.2a2.006,2.006,0,0,0-.717.718Z"/><path class="c" d="M214.761,148.146c.214,1.385.494,2.76.689,4.148a2,2,0,0,0,.919,1.2,2,2,0,0,0,2.737-.718l.2-.478a2,2,0,0,0,0-1.063c-.195-1.388-.475-2.763-.689-4.148a1.993,1.993,0,0,0-.919-1.195,2,2,0,0,0-2.736.717l-.2.478a2.018,2.018,0,0,0,0,1.063Z"/><path class="c" d="M205.621,153.416l2.132,2.809a1.924,1.924,0,0,0,1.993.954,1.486,1.486,0,0,0,.743-.237,2.017,2.017,0,0,0,.919-1.195l.072-.532a1.987,1.987,0,0,0-.273-1.009l-2.132-2.809a2.064,2.064,0,0,0-2.736-.717,2.017,2.017,0,0,0-.919,1.195l-.072.532a2.007,2.007,0,0,0,.273,1.009Z"/><path class="c" d="M211.746,197.947a10.431,10.431,0,0,0,9.867-2.066,13.8,13.8,0,0,0,2.986-4.037c.365-.679.719-1.365,1.122-2.022.1-.168.209-.334.32-.5.041-.062.341-.469.241-.344s.225-.251.273-.3c.149-.158.306-.305.469-.448A2,2,0,1,0,224.2,185.4a12.958,12.958,0,0,0-2.67,3.712c-.345.642-.679,1.291-1.054,1.915a6.443,6.443,0,0,1-1.116,1.484,9.234,9.234,0,0,1-.719.665c.272-.227-.145.106-.206.147-.156.106-.316.207-.478.3q-.2.118-.411.223c-.12.061-.379.18-.114.069a7.282,7.282,0,0,1-1.057.343c-.151.037-.3.069-.456.1s-.411.046-.117.022a10.187,10.187,0,0,1-1.048.039c-.162,0-.323-.02-.485-.025-.459-.016.165.049-.255-.026a11.978,11.978,0,0,1-1.2-.279,2,2,0,1,0-1.064,3.857Z"/><path class="c" d="M233.19,166.7c.263-1.927.2-3.991-1.243-5.485-1.158-1.2-2.79-1.406-4.364-1.576a28.448,28.448,0,0,0-3.032-.178,13.338,13.338,0,0,0-2.926.477c-1.8.406-3.6.786-5.4,1.213-3.867.919-7.275,2.749-8.574,6.728-.559,1.712-.691,3.531-1.248,5.246a14.505,14.505,0,0,1-2.788,4.895c-1.664,1.947,1.153,4.79,2.828,2.829a19.127,19.127,0,0,0,4.251-8.272,20.216,20.216,0,0,1,1.065-4.286,5.376,5.376,0,0,1,3.038-2.547,29.517,29.517,0,0,1,4.662-1.212c1.409-.311,2.813-.712,4.234-.961a13.677,13.677,0,0,1,4.266.12,2.13,2.13,0,0,1,1.155.353c.333.342.27,1.183.214,1.593a2.07,2.07,0,0,0,1.4,2.46,2.014,2.014,0,0,0,2.46-1.4Z"/><path class="c" d="M230.438,168.275a2.034,2.034,0,0,1,.241,2.752,2.018,2.018,0,0,0,.718,2.737c1.206.551,1.15,1.822.305,2.7a2.018,2.018,0,0,0,0,2.828,1.971,1.971,0,0,1,.686,2.532,1.412,1.412,0,0,1-.642.695,6.337,6.337,0,0,1-1.546.639q-2.494.785-4.975,1.612c-2.432.807-1.39,4.672,1.063,3.857q1.461-.484,2.924-.96a24.172,24.172,0,0,0,4.347-1.574,5.926,5.926,0,0,0,.972-9.629V179.3a5.8,5.8,0,0,0,1.725-5.088,5.281,5.281,0,0,0-2.84-3.9l.717,2.736a6.072,6.072,0,0,0-1.676-8.225,2.015,2.015,0,0,0-2.736.718,2.043,2.043,0,0,0,.717,2.736Z"/><path class="c" d="M232.008,176.373c-1.435.37-2.864.761-4.3,1.137-.807.211-1.615.421-2.425.62-.294.072-.589.143-.885.208l-.285.058c-.4.083.6-.056.313-.04a2,2,0,0,0,0,4,10.056,10.056,0,0,0,1.784-.336c.826-.2,1.649-.415,2.472-.63,1.463-.382,2.922-.782,4.387-1.16a2,2,0,0,0-1.063-3.857Z"/><path class="c" d="M231.315,170.391c-3.245.867-6.476,1.8-9.747,2.57a2.018,2.018,0,0,0-1.4,2.461,2.042,2.042,0,0,0,2.46,1.4c3.271-.769,6.5-1.7,9.748-2.57a2,2,0,1,0-1.064-3.857Z"/><path class="c" d="M229.772,164.8c-3.4.883-6.763,1.9-10.155,2.816a2,2,0,0,0,1.063,3.857c3.392-.913,6.755-1.933,10.155-2.816a2,2,0,1,0-1.063-3.857Z"/><path class="c" d="M251.364,36.341c.876-2.86,2.854-6.677,6.358-6.5,3.45.171,5.773,3.34,7.293,6.093a27.492,27.492,0,0,1,3.056,10.1c.141,1.222.409,3.06-.554,4.053-.779.8-2.3.709-3.294.485-2.506-.569-3.576,3.287-1.063,3.857,3.266.741,7.032-.06,8.4-3.437s.32-7.668-.636-11.044c-1.857-6.555-7.195-15.826-15.412-13.879-4.28,1.014-6.8,5.287-8.006,9.209-.755,2.466,3.1,3.521,3.858,1.063Z"/><path class="c" d="M224.609,60.058c-.065.175-.13.348-.2.521-.017.042-.206.493-.112.276s-.1.23-.123.271q-.115.254-.237.5-.426.876-.929,1.712t-1.075,1.625c-.109.15-.219.3-.332.447.171-.223-.009.007-.089.106q-.321.4-.66.779a23.382,23.382,0,0,1-2.822,2.682c-.473.382.306-.218-.183.141-.125.092-.249.184-.375.273q-.415.3-.844.574c-.572.37-1.162.709-1.765,1.026a2.015,2.015,0,0,0-.718,2.736,2.046,2.046,0,0,0,2.737.717,24.741,24.741,0,0,0,11.582-13.326,2.011,2.011,0,0,0-1.4-2.461,2.053,2.053,0,0,0-2.46,1.4Z"/><path class="c" d="M196.372,180.481a16.786,16.786,0,0,0,.825,4.874,30.233,30.233,0,0,0,1.693,4.69c1.016,2.169,2.156,4.288,3.234,6.427.289.574.591,1.143.868,1.722.086.179.035.074-.014-.046.082.2.154.407.225.611.12.346.232.7.331,1.047.051.181.085.37.142.548.135.419.011-.206.029.127.134,2.561,4.134,2.577,4,0a12.224,12.224,0,0,0-1.433-4.65q-1.686-3.361-3.384-6.716a16.936,16.936,0,0,1-.861-1.851c-.307-.805-.577-1.623-.822-2.449a14.147,14.147,0,0,1-.833-4.334c.072-2.575-3.928-2.573-4,0Z"/><path class="c" d="M225.816,102.37a12.087,12.087,0,0,0,5.821,1.359,9.588,9.588,0,0,0,5.984-1.813,2,2,0,0,0,0-2.828,2.06,2.06,0,0,0-2.828,0c.691-.539-.025-.012-.244.1-.169.089-.621.23.009.016-.159.054-.313.12-.472.172-.425.136-.912.149-1.322.3.211-.078.323-.038.024-.009-.13.013-.26.024-.39.032-.312.02-.626.028-.939.027q-.422,0-.841-.031c-.129-.008-.257-.019-.385-.032-.074-.007-.147-.015-.22-.024q-.236-.028.183.024c-.05.051-.552-.1-.633-.118-.2-.045-.4-.1-.6-.156-.173-.052-.341-.114-.512-.172-.449-.154.421.2.014.009q-.318-.148-.628-.313a2,2,0,0,0-2.019,3.454Z"/><path class="c" d="M229.415,87.928c-.232.884-.441,1.777-.593,2.678a3.757,3.757,0,0,0-.013,1.658,2.447,2.447,0,0,0,1.29,1.585,3.448,3.448,0,0,0,1.639.406c.358-.016.7-.1,1.05-.151a1.992,1.992,0,0,0,1.195-.919,2.044,2.044,0,0,0,.2-1.541,2.022,2.022,0,0,0-.92-1.2l-.477-.2a2.022,2.022,0,0,0-1.064,0c-.132.018-.262.05-.394.068l.532-.071a1.472,1.472,0,0,1-.351,0l.532.071a1.613,1.613,0,0,1-.373-.109l.477.2a1.672,1.672,0,0,1-.221-.118l.405.313a.56.56,0,0,1-.092-.09l.313.405a.608.608,0,0,1-.061-.112l.2.478a.939.939,0,0,1-.042-.174l.071.532a1.662,1.662,0,0,1,.011-.386l-.072.532a25.93,25.93,0,0,1,.612-2.8,2.085,2.085,0,0,0-.2-1.541,2,2,0,0,0-2.736-.718,2.063,2.063,0,0,0-.919,1.2Z"/><path class="c" d="M216.117,80.918c-.467,1.518-.163,5.01,2.713,5.308,3.8-.023,4-4.246,2.724-6.231C220.507,78.369,217.426,77.693,216.117,80.918Z"/><path class="c" d="M246.56,80.918c.467,1.518.163,5.011-2.714,5.308-3.8-.023-4-4.246-2.724-6.231C242.17,78.369,245.251,77.693,246.56,80.918Z"/><path class="a" d="M103.962,51.764a4.5,4.5,0,0,1,3.6-1.054,4.248,4.248,0,0,1,3.056,2.032,5.987,5.987,0,0,1,.629,2.417,18,18,0,0,1-1.836,9.546,11.45,11.45,0,0,1-2.959,3.884,7.593,7.593,0,0,1-3.529,1.591l-.6.092c-.291,1.085-.616,2-.776,2.483-.95,2.577-5.933,11.017-12.4,15.06a50.28,50.28,0,0,0,.759,7.345c.44,2.49.3,4.72,3.76,5.97.23.08,2.16.84,2.68,1.07,0,0-.859,21.593-22.489,21.593s-22.321-21.8-22.321-21.8c.42-.18,1.86-.78,2.09-.86,3.46-1.25,3.33-3.48,3.76-5.97a47.073,47.073,0,0,0,.755-7.539,28.188,28.188,0,0,1-6.565-5.872A30.635,30.635,0,0,1,45.74,70.357l-1.15-.177a7.593,7.593,0,0,1-3.529-1.591,11.466,11.466,0,0,1-2.96-3.884,18.02,18.02,0,0,1-1.836-9.546,6,6,0,0,1,.629-2.417A4.252,4.252,0,0,1,39.95,50.71a4.5,4.5,0,0,1,3.6,1.054S42.3,24.83,72.969,24.83C103.34,24.83,103.962,51.764,103.962,51.764Z"/><path class="a" d="M80.516,427.555c-.757-2.555-.741-5.825,2.539-7.56a9.981,9.981,0,0,0,1.8,3.057c1.405,1.644,12.389,9.444,18.16,12.963a58.527,58.527,0,0,0,5.685,3.091,17.233,17.233,0,0,0,8.561,1.616c2.676-.17,5.779-1.3,7.02-4a6.2,6.2,0,0,0,.551-2.619c2.966,1.009,4.441,4.574,3.56,7.507a7.522,7.522,0,0,1-4.9,5.276,20.335,20.335,0,0,1-8.1,1.5,29.1,29.1,0,0,1-6.567-.929c-6.644-1.734-13.75-6.283-19.793-10.7-1.864-1.363-5.821-4.323-7.145-6.215A10.886,10.886,0,0,1,80.516,427.555Z"/><path class="a" d="M25.706,443.445a9.5,9.5,0,0,1-.752-1.838c-.881-2.933.594-6.5,3.564-7.507a6.15,6.15,0,0,0,.547,2.619c1.241,2.7,4.344,3.833,7.021,4a17.231,17.231,0,0,0,8.56-1.616,58.411,58.411,0,0,0,5.685-3.091C56.1,432.5,67.086,424.7,68.491,423.052a10.832,10.832,0,0,0,2.115-2.881c4.477,2.678,2.179,8.462.845,10.37-1.324,1.892-4.921,4.471-6.778,5.844-7.319,5.414-13.815,8.945-20.16,11.068a22.78,22.78,0,0,1-6.567.929,20.342,20.342,0,0,1-8.1-1.5A7.583,7.583,0,0,1,25.706,443.445Z"/><path class="a" d="M101.8,435.256c-5.974-3.774-15.628-10.67-16.939-12.2a9.47,9.47,0,0,1-2.333-7c.139-1.731.675-6.221.666-9.926v-.295c8.255-.171,16.006-.342,21.708-.472.169.985.293,1.693.293,1.693,1,3.778,3.7,8.952,4.932,10.294a45.272,45.272,0,0,0,6.6,6.447,35.478,35.478,0,0,1,6,5.7c2.482,2.963,2.445,5.111,1.556,7.223-1.241,2.7-4.344,3.833-7.02,4a17.233,17.233,0,0,1-8.561-1.616,58.527,58.527,0,0,1-5.685-3.091C102.633,435.78,102.224,435.526,101.8,435.256Z"/><path class="a" d="M29.505,437.5a5.585,5.585,0,0,1-.44-.785c-.889-2.112-.926-4.26,1.556-7.223a35.478,35.478,0,0,1,6-5.7,39.6,39.6,0,0,0,6.6-6.447,25.224,25.224,0,0,0,4.062-7.85l.235-3.02c5.992-.079,13.682-.213,21.7-.366a20.261,20.261,0,0,0,.241,6.079c.447.923.664,1.4,1.065,2.233A8.6,8.6,0,0,1,71.3,417.5a8.337,8.337,0,0,1-.482,2.149,9.675,9.675,0,0,1-2.33,3.407C67.086,424.7,56.1,432.5,50.331,436.015a58.411,58.411,0,0,1-5.685,3.091,17.231,17.231,0,0,1-8.56,1.616C33.685,440.569,30.94,439.645,29.505,437.5Z"/><path class="c" d="M52.547,103.717c.3-.13-.421.176-.041.017l.445-.185c.291-.121.581-.242.874-.359a14.97,14.97,0,0,0,2.014-.883,6.463,6.463,0,0,0,2.941-3.726,28.336,28.336,0,0,0,.742-4.14,51.452,51.452,0,0,0,.625-6.821,2,2,0,0,0-4,0,43.134,43.134,0,0,1-.461,5.619,38.036,38.036,0,0,1-.68,3.988c-.032.122-.066.243-.1.363-.019.058-.177.455-.058.18s-.063.113-.093.167c-.074.134-.157.259-.242.387.151-.226.113-.128-.039.022-.1.1-.2.194-.3.288.3-.269-.125.083-.18.118-.141.089-.287.171-.436.247-.32.166-.733.309-1.2.5q-.915.375-1.824.763A2.013,2.013,0,0,0,49.81,103a2.053,2.053,0,0,0,2.737.717Z"/><path class="c" d="M87.147,87.81a55.548,55.548,0,0,0,.673,6.933,21.139,21.139,0,0,0,.82,4.192,6.507,6.507,0,0,0,3.372,3.66c.617.29,1.265.514,1.9.763q.5.2,1,.4c.143.058.286.117.43.174.479.192-.27-.118-.007,0a2.065,2.065,0,0,0,2.736-.717,2.016,2.016,0,0,0-.717-2.737c-1.033-.449-2.083-.868-3.137-1.264a4.193,4.193,0,0,1-.745-.356A4.421,4.421,0,0,1,93,98.542c.266.206-.032-.052-.116-.137-.04-.041-.328-.385-.155-.16s-.077-.129-.106-.177c-.077-.13-.136-.268-.21-.4.229.408.025.043-.015-.079a24.921,24.921,0,0,1-.7-3.775,47.191,47.191,0,0,1-.552-6,2,2,0,0,0-4,0Z"/><path class="f" d="M91.076,4.922A39.856,39.856,0,0,0,74.062,2.048c-9.234.282-16.447,3.917-20.776,9.846l-4.039,3.473a20.135,20.135,0,0,0-9.534,10.7,30.632,30.632,0,0,0-1.359,19.176l1.9,5.438a4.482,4.482,0,0,1,3.192.994c2.231-4.236,2.938-7.067,5.148-10.319,1.48-2.178,5.049-3.949,9.377-5.265,2.174-.726,5.089-.907,7.321-2.232,8.879-6.581,16.421-7,20.091-6.784a10.465,10.465,0,0,1,3.662,1.107c.708.469-2.8,2.052-.51,3.25a38.635,38.635,0,0,1,6.947,4.527c2.995,2.636,3.9,6.049,4.374,9.4.448,3.148,1.9,4.287,3.99,6.517a4.444,4.444,0,0,1,3.6-1.174l.158-.656c2.308-9.6,1.728-17.724-.217-23.433s-6.579-12.291-12.34-14.4l5.2-1.058A29.027,29.027,0,0,0,91.076,4.922Z"/><path class="c" d="M105.376,53.178a2.422,2.422,0,0,1,3.443.453,5.082,5.082,0,0,1,.488,2.577,15.169,15.169,0,0,1-.214,3.128c-.679,3.718-2.569,8.174-6.7,8.915a2.018,2.018,0,0,0-1.4,2.46,2.045,2.045,0,0,0,2.46,1.4c6.311-1.131,9.322-8.257,9.8-13.977.244-2.939.005-6.293-2.537-8.2a6.539,6.539,0,0,0-8.168.416,2.016,2.016,0,0,0,0,2.829,2.044,2.044,0,0,0,2.829,0Z"/><path class="c" d="M100.877,66.828a16.959,16.959,0,0,1-.989,4.583c-.089.27-.191.539-.271.812-.038.127-.2.476.027-.044-.14.322-.29.638-.448.951a38.555,38.555,0,0,1-3.327,5.348c-2.9,3.975-6.832,8.186-11.8,9.35-2.5.588-1.444,4.446,1.064,3.857,5.931-1.391,10.533-6.241,14.023-10.966,3.014-4.08,5.507-8.7,5.717-13.891.105-2.574-3.895-2.569-4,0Z"/><path class="c" d="M44.966,50.349a6.54,6.54,0,0,0-8.167-.416c-2.544,1.9-2.781,5.263-2.537,8.2.475,5.72,3.486,12.846,9.8,13.977a2.057,2.057,0,0,0,2.461-1.4,2.018,2.018,0,0,0-1.4-2.46c-4.133-.741-6.022-5.2-6.7-8.915a15.062,15.062,0,0,1-.218-2.953,5.88,5.88,0,0,1,.418-2.632,2.409,2.409,0,0,1,3.517-.573,2.055,2.055,0,0,0,2.828,0,2.016,2.016,0,0,0,0-2.829Z"/><path class="c" d="M42.843,66.568A35.008,35.008,0,0,0,50.3,83.325c4.2,4.969,9.753,8.559,16.3,9.265a2.012,2.012,0,0,0,2-2,2.045,2.045,0,0,0-2-2c-5.6-.6-10.271-4.192-13.743-8.424-3.426-4.177-5.234-9.4-6.152-14.662a2.019,2.019,0,0,0-2.461-1.4,2.046,2.046,0,0,0-1.4,2.461Z"/><path class="c" d="M66.487,35.449a33.214,33.214,0,0,1,13.065-6,23.048,23.048,0,0,1,4.346-.419c.463,0,1.079-.014,1.469.031a8.761,8.761,0,0,1,1.58.387c.206.065.412.162.621.213.138.033.458.3.134,0l-.514-.883c-.574-1.554.814-1.818.121-1.226a4.307,4.307,0,0,0-.392.418,5.425,5.425,0,0,0-.832,1.182,2.876,2.876,0,0,0,.783,3.543,33.871,33.871,0,0,0,4.091,2.436A19.78,19.78,0,0,1,94.823,38.1c2.035,2.138,2.654,4.97,3.108,7.79.49,3.042,2.277,5.06,4.331,7.215,1.779,1.868,4.6-.963,2.828-2.828-1.293-1.358-2.657-2.594-3.116-4.479a38.35,38.35,0,0,0-1.63-6.415c-1.929-4.483-6.134-7.167-10.282-9.4-.985-.531-.33-.081-.38.768-.029.472.075.1-.066.2a2.319,2.319,0,0,0,.262-.294,4.293,4.293,0,0,0,1.187-1.715c.593-2.242-2.046-3.1-3.706-3.53a20.739,20.739,0,0,0-9.015.215A36.042,36.042,0,0,0,64.468,32a2.057,2.057,0,0,0-.718,2.736,2.016,2.016,0,0,0,2.737.718Z"/><path class="c" d="M48.238,13.64C37.029,19.064,33.316,34.554,36.426,45.775c.686,2.477,4.547,1.425,3.857-1.063-2.661-9.6.354-22.963,9.974-27.618,2.316-1.121.29-4.571-2.019-3.454Z"/><path class="c" d="M94.517,14.139c5.759,2.2,9.736,8.653,11.356,14.328,1.952,6.835,1.418,14.2-.2,21.044-.591,2.5,3.265,3.572,3.857,1.064,1.82-7.709,2.392-16.106.019-23.77-2.144-6.927-7.011-13.864-13.972-16.523a2.016,2.016,0,0,0-2.46,1.4,2.044,2.044,0,0,0,1.4,2.46Z"/><path class="c" d="M45.4,52.254c1.683-3.3,2.959-6.737,4.922-9.889.194-.312-.112.111.044-.065.117-.132.233-.265.356-.392a8.7,8.7,0,0,1,.768-.694c-.26.209.241-.172.241-.172q.217-.15.44-.293.515-.33,1.054-.622a28.4,28.4,0,0,1,5.279-2.107,2,2,0,0,0-1.063-3.858c-3.51,1.079-7.687,2.53-10.065,5.51-2.472,3.1-3.648,7.07-5.43,10.563a2.047,2.047,0,0,0,.718,2.737,2.02,2.02,0,0,0,2.736-.718Z"/><path class="c" d="M62.607,29.829c.009-.387.041-.769.073-1.153q.041-.339-.017.1c.013-.1.028-.191.043-.286.032-.19.067-.38.107-.568a15.129,15.129,0,0,1,.668-2.214q.124-.308-.034.077c.038-.089.078-.177.118-.265q.122-.264.254-.522.266-.516.574-1.009a6.139,6.139,0,0,1,.66-.957c-.371.391.072-.081.142-.164.126-.149.255-.293.386-.437a2,2,0,1,0-2.828-2.828,15.713,15.713,0,0,0-4.146,10.224,2,2,0,1,0,4,0Z"/><path class="c" d="M55.013,12.9C58.657,7.992,64.4,5.257,70.344,4.362a38.383,38.383,0,0,1,18.81,1.927,27.577,27.577,0,0,1,9.679,6.278c1.829,1.815,4.659-1.012,2.828-2.829A34.168,34.168,0,0,0,81.453.371C74.291-.524,66.686.089,60.2,3.44a25.121,25.121,0,0,0-8.636,7.444,2.015,2.015,0,0,0,.717,2.737,2.048,2.048,0,0,0,2.736-.718Z"/><path class="g" d="M134.872,129.5c-2.372-7.577-3.239-11.6-9.334-15.851-1.552-1.082-4.263-2.948-5.926-3.852a130.119,130.119,0,0,0-17.377-8.091c-.093-.061-.141-.095-.141-.095C98.874,99.38,95.02,95.9,91.76,93.793a.973.973,0,0,0-1.439.426,176.641,176.641,0,0,1-14.7,28.558A70.032,70.032,0,0,1,54.966,94.432a.992.992,0,0,0-1.553-.417c-2.326,1.894-6.669,5.421-8.486,7.222,0,0-.04.044-.106.113a164.393,164.393,0,0,0-20.429,9.506,23.111,23.111,0,0,0-4.748,3.1c-4.476,4.133-6.366,7.524-9.217,15.1-1.63,6.37-4.309,16.966-5.333,23.852-2.778,18.666-5.5,31.263.444,42.889,3.843,7.514,12.963,17.852,21.63,21.185q1.1.423,2.169.8c-.014,1.011-.021,1.567-.021,1.567-.233,17.509.875,50.161,1.594,78.222.889,34.667,4.592,101.576,5.037,108.941,5.333.319,78.368-1.341,78.37-1.385,2.371-40.519,3.121-71.335,3.7-109.556.445-29.111.406-47.555.406-73.333l.227-9.268c4.79-3.17,13.538-10.132,18.292-13.547,8.447-6.068.574-58.363-2.074-69.926"/><path class="h" d="M94.3,196.612c-.41-2.4-.824-4.859-1.235-7.342-5.8-.66-11.554-1.816-17.02-2.533-5.019-.658-9.683-1.478-14.383-2.08l-7.016-1.321c-2.451,12.052-4.873,24.3-6.537,31.678,1.2.02,1.95.038,1.95.038,10.618.311,37.108.281,47.824.6C96.82,210.874,95.574,204.064,94.3,196.612Z"/><path class="a" d="M85.764,188.24c-3.306-.527-6.561-1.089-9.721-1.5-5.019-.658-9.683-1.478-14.383-2.08L54.61,183.5c2.449-12.044,4.93-23.918,6.716-30.578,1.095-.05,1.768-.083,1.768-.083,3.769-.187,13.593-.189,17.333.192,0,0,3.288.073,6.719.14,1.245,6.806,3.547,21.79,5.917,36.1l-.747-.091C90.119,188.917,87.931,188.586,85.764,188.24Z"/><path class="c" d="M116.427,222.237c0,22.656-.014,45.311-.328,67.966-.334,24.108-.8,48.217-1.714,72.311q-.81,21.317-2.068,42.612l1.469-1.929c.891-.254.359-.063-.05-.051q-.74.021-1.479.038-2.726.069-5.451.131-8.829.2-17.66.391c-13.819.294-27.638.584-41.459.768-3.895.052-7.847.26-11.74.037l2,2c-.386-6.406-.721-12.816-1.063-19.225q-.957-17.928-1.819-35.861c-.625-13.056-1.213-26.114-1.689-39.176-.528-14.485-.855-28.977-1.249-43.466-.411-15.1-.876-30.219-.841-45.33q0-2.052.03-4.1c.033-2.575-3.967-2.576-4,0-.185,14.36.264,28.733.641,43.086.4,15.143.749,30.29,1.264,45.429.438,12.878,1.006,25.752,1.61,38.623q.869,18.5,1.851,36.985.581,11.01,1.2,22.018c.019.341.04.681.06,1.022a2.052,2.052,0,0,0,2,2c3.275.188,6.594.026,9.871-.013q9.557-.115,19.111-.307,20.235-.373,40.467-.844,3.267-.075,6.534-.154a12.393,12.393,0,0,0,2.919-.138,2.06,2.06,0,0,0,1.468-1.929q2.153-36.846,3.025-73.747.869-35.967,1.041-71.952c.056-12.4.044-24.793.044-37.19,0-2.574-4-2.578-4,0Z"/><path class="c" d="M50.057,217.052c12.936.372,25.886.273,38.826.428,3.033.036,6.067.077,9.1.165,2.575.074,2.572-3.926,0-4-12.936-.373-25.887-.274-38.826-.429-3.034-.036-6.068-.077-9.1-.164-2.575-.074-2.573,3.926,0,4Z"/><path class="c" d="M92.316,187.182c-6.193-.759-12.322-1.959-18.5-2.8-6.081-.825-12.135-1.838-18.221-2.625a2.01,2.01,0,0,0-2,2,2.05,2.05,0,0,0,2,2c12.271,1.586,24.446,3.915,36.725,5.421a2.01,2.01,0,0,0,2-2,2.05,2.05,0,0,0-2-2Z"/><path class="c" d="M64.316,171.46c8.085-1.844,16.5-2.181,24.761-2.127,2.574.016,2.577-3.984,0-4-8.62-.056-17.394.348-25.824,2.27-2.509.572-1.447,4.429,1.063,3.857Z"/><path class="c" d="M63.094,154.84c2.888-.139,5.787-.137,8.677-.117s5.787.026,8.656.309a2.013,2.013,0,0,0,2-2,2.044,2.044,0,0,0-2-2c-2.869-.283-5.775-.289-8.656-.309s-5.789-.022-8.677.117a2.043,2.043,0,0,0-2,2,2.02,2.02,0,0,0,2,2Z"/><path class="c" d="M102.579,434.688a19.156,19.156,0,0,1,7.69-5.57,22.756,22.756,0,0,1,4.286-1.352,8.454,8.454,0,0,1,1.814-.241c.311-.016.622-.02.933-.008.177.006.351.023.528.034.442.029-.33-.06.13.022a2.056,2.056,0,0,0,2.46-1.4,2.017,2.017,0,0,0-1.4-2.46c-3.513-.624-7.107.385-10.326,1.756a22.376,22.376,0,0,0-8.947,6.388,2.065,2.065,0,0,0,0,2.828,2.014,2.014,0,0,0,2.829,0Z"/><path class="c" d="M100.431,431.577a17.645,17.645,0,0,1,7.166-5.19c.416-.182,1.206-.477,1.826-.677a20.048,20.048,0,0,1,2.151-.573c.165-.034.33-.066.5-.1.022,0,.652-.1.241-.045.307-.039.617-.066.926-.082.29-.014.582-.018.872-.007.165.006.329.022.494.032.435.027-.364-.064.087.016a2.056,2.056,0,0,0,2.46-1.4,2.016,2.016,0,0,0-1.4-2.46c-3.323-.591-6.711.358-9.757,1.655a21.014,21.014,0,0,0-8.394,6,2.065,2.065,0,0,0,0,2.828,2.014,2.014,0,0,0,2.829,0Z"/><path class="c" d="M81.191,406.126c0,2.033-.135,4.061-.31,6.086-.133,1.538-.395,3.106-.387,4.653a11.345,11.345,0,0,0,3.88,8.472,143.254,143.254,0,0,0,14.644,10.508c6.225,4.067,14,8.934,21.727,6.22,3.4-1.193,6.067-4.029,6.092-7.778.025-3.928-3.271-7.119-5.931-9.613-1.5-1.4-3.21-2.523-4.721-3.9a55.72,55.72,0,0,1-4.647-4.838c-.04-.047-.219-.26-.023-.008-.089-.114-.172-.234-.253-.354-.22-.329-.431-.662-.633-1-.479-.8-.916-1.628-1.33-2.465a31.429,31.429,0,0,1-2.179-5.583c-.68-2.479-4.54-1.427-3.857,1.064a36.893,36.893,0,0,0,3.912,9,32.607,32.607,0,0,0,6.182,7.012c1.164,1.064,2.476,1.925,3.667,2.952a37.619,37.619,0,0,1,4.044,4.069c1.706,2,2.689,4.791.249,6.708-2.635,2.072-6.853,1.652-9.826.734-3.317-1.026-6.407-3.072-9.312-4.932-4.706-3.013-9.465-6.26-13.8-9.669-2.044-1.608-3.729-3.405-3.871-6.195a34.181,34.181,0,0,1,.343-4.681c.191-2.148.338-4.3.343-6.459.007-2.574-3.993-2.578-4,0Z"/><path class="c" d="M67.219,406.107c-.064,1.236-.122,2.475-.08,3.712a10.261,10.261,0,0,0,.459,3.1,2.148,2.148,0,0,0,.919,1.2,2.046,2.046,0,0,0,1.542.2,2.023,2.023,0,0,0,1.4-2.46,6.008,6.008,0,0,1-.278-1.191l.072.532a27.626,27.626,0,0,1-.03-5.088,2.014,2.014,0,0,0-2-2,2.045,2.045,0,0,0-2,2Z"/><path class="c" d="M98.685,108.523c-6.075,11.814-12.871,23.664-22.293,33.158-1.815,1.829,1.012,4.659,2.829,2.828,9.659-9.733,16.688-21.853,22.918-33.967,1.176-2.286-2.275-4.312-3.454-2.019Z"/><path class="c" d="M46.916,111.3a72.732,72.732,0,0,0,11.527,14.392,2,2,0,1,0,2.828-2.829,68.242,68.242,0,0,1-10.9-13.582,2,2,0,1,0-3.453,2.019Z"/><path class="c" d="M132.943,130.028c1.227,5.385,2.046,10.879,2.832,16.342,1.126,7.828,2.019,15.7,2.551,23.592.263,3.9.436,7.807.425,11.715,0,1.7-.046,3.4-.143,5.093-.043.74-.1,1.479-.164,2.217-.033.351-.068.7-.107,1.052q-.034.3-.073.611a2.277,2.277,0,0,1-.035.259,27.628,27.628,0,0,1-.778,3.747,15.267,15.267,0,0,1-.514,1.487c.214-.527-.072.139-.133.261-.113.223-.242.436-.367.653-.085.146-.507.643-.087.159-.117.135-.238.266-.358.4s-.608.488-.056.079c-.434.321-.874.634-1.309.955-1.86,1.372-3.7,2.774-5.538,4.174-4.111,3.126-8.181,6.39-12.564,9.133-5.35,3.349-10.929,6.8-17,8.658l1.541.2c.639.468.061.168.421.377.579.336-.076.092.034.021-.041.026-.385-.971-.062-.069-.185-.516-.372-1.026-.529-1.553-.491-1.656-.872-3.346-1.24-5.034-1.142-5.233-2.078-10.512-3-15.789-2.134-12.26-4.038-24.558-6.042-36.84-.4-2.456-.8-4.911-1.231-7.362-.157-.9-.316-1.794-.485-2.689q-.1-.549-.214-1.1a3.878,3.878,0,0,0-.092-.441c-.218-.662.348.015-.166.459l-.883.514c1.759-.729,3.7-.65,5.655-.825,2.547-.228,5.1-.4,7.646-.609,2.4-.193,4.8-.4,7.177-.761a14.874,14.874,0,0,0,2.233-.462c1.623-.514,1.944-1.569,2.231-3.143a95.612,95.612,0,0,0,1.293-13.4c.1-2.574-3.9-2.57-4,0A80.57,80.57,0,0,1,108.35,146l.92-1.2c.626-.274-.231.047-.4.092-.283.075-.569.133-.855.189-.924.179-1.532.252-2.407.351-2.24.255-4.491.425-6.739.6-2.208.17-4.417.33-6.621.543a29.063,29.063,0,0,0-5.44.755c-3.315.989-1.86,4.836-1.426,7.271.485,2.721.932,5.448,1.378,8.176,2.478,15.18,4.755,30.4,7.6,45.519.544,2.888,1.107,5.775,1.763,8.64a35.408,35.408,0,0,0,1.475,5.269,4.6,4.6,0,0,0,1.018,1.732c1.184,1.114,2.8.3,4.09-.189,1.544-.58,3.059-1.246,4.546-1.959a99.836,99.836,0,0,0,14.156-8.294c4.292-3.021,8.424-6.268,12.611-9.431,2.405-1.817,5.184-3.277,6.465-6.128a26.95,26.95,0,0,0,1.9-8.317,88.59,88.59,0,0,0,.341-10.941,248.61,248.61,0,0,0-2.05-25.61c-.878-7.075-1.891-14.151-3.255-21.152-.193-.987-.394-1.974-.618-2.955-.572-2.509-4.429-1.447-3.857,1.063Z"/><path class="c" d="M8.5,128.52c-1.909,7.463-3.866,14.957-5.13,22.561C1.988,159.4.506,167.852.077,176.28c-.353,6.959.448,13.927,3.585,20.226a52.94,52.94,0,0,0,15,17.788c7.675,5.9,17.671,8.1,27.082,9.427a2.084,2.084,0,0,0,2.259-.919,16.543,16.543,0,0,0,1.246-3.921c.6-2.42,1.129-4.859,1.652-7.3C52.421,204.5,53.835,197.4,55.27,190.3c1.568-7.759,3.135-15.52,4.808-23.258,1.175-5.438,2.272-10.96,3.95-16.271a3.223,3.223,0,0,0-.467-3.353c-1.009-1.095-2.554-1.087-3.933-1.259-2.739-.341-5.484-.636-8.229-.924-4.965-.522-9.945-.954-14.9-1.586a2.01,2.01,0,0,0-2,2,2.052,2.052,0,0,0,2,2c3.86.493,7.739.847,11.61,1.245q3.446.354,6.89.727,1.689.186,3.378.386c.466.056.933.112,1.4.171l.738.094.286.037q.8.165-.4-.4v-1.064c-.272,1.631-.938,3.268-1.35,4.875-.562,2.192-1.078,4.4-1.579,6.6-1.3,5.707-2.491,11.438-3.67,17.17-2.373,11.54-4.593,23.114-7.1,34.625-.442,2.032-.891,4.065-1.4,6.081-.162.638-.327,1.276-.519,1.905-.069.224-.153.444-.22.669-.164.555.248-.459-.009.012l2.259-.919a89.388,89.388,0,0,1-12.774-2.656,39.975,39.975,0,0,1-10.881-4.595A49.032,49.032,0,0,1,8.1,196.312C4.867,190.7,3.85,184.447,4.01,178.04c.2-8.023,1.72-15.98,2.906-23.9a247.792,247.792,0,0,1,5.44-24.56c.638-2.5-3.219-3.56-3.857-1.064Z"/><path class="c" d="M136.8,128.965a65.4,65.4,0,0,0-3.281-9.27,19.3,19.3,0,0,0-5.6-6.759A86.349,86.349,0,0,0,108.729,102.2c-1.819-.779-3.833-1.368-5.577-2.292a31.463,31.463,0,0,1-4.463-3.407c-1.536-1.223-3.07-2.454-4.671-3.59-1.585-1.125-3.633-2.018-5.121-.159a10.863,10.863,0,0,0-1.214,2.725q-.6,1.473-1.239,2.928-1.3,2.95-2.734,5.84c-1.925,3.894-4,7.711-6.187,11.468-4.947,8.516-10.416,16.719-16.082,24.77-1.485,2.109,1.982,4.11,3.454,2.019,5.312-7.548,10.447-15.228,15.146-23.174,2.334-3.947,4.56-7.959,6.62-12.056q1.5-2.991,2.88-6.045.732-1.633,1.422-3.287.335-.8.658-1.6.16-.4.318-.8.395-.813-.2.012H90.677c.658.093,1.558.974,2.124,1.393.868.642,1.715,1.312,2.561,1.984,1.637,1.3,3.263,2.624,4.956,3.854s3.859,1.8,5.785,2.611q2.561,1.073,5.066,2.276a87.286,87.286,0,0,1,10.761,5.917c2.6,1.734,5.281,3.487,7.025,6.15,2.023,3.09,2.9,6.8,3.988,10.284.764,2.449,4.627,1.4,3.857-1.063Z"/><path class="c" d="M12.356,129.584c1.79-4.736,3.79-9.294,7.389-12.945a29.953,29.953,0,0,1,7.729-5.169c3.035-1.61,6.11-3.145,9.236-4.571q2.082-.951,4.193-1.838a41.509,41.509,0,0,0,4.927-1.984,18.134,18.134,0,0,0,2.4-2.157c1.083-.948,2.188-1.872,3.3-2.79A21.408,21.408,0,0,0,54.4,95.779l.11-.089q.741-.535-1.317-.343c-.053.193.391.952.471,1.144.333.794.674,1.584,1.032,2.366a69.974,69.974,0,0,0,4.525,8.331,72.4,72.4,0,0,0,13.743,15.961c1.938,1.677,4.779-1.141,2.828-2.828A68.633,68.633,0,0,1,57.478,95.33c-.656-1.54-1.127-3.236-3.045-3.494-1.6-.215-2.694.974-3.829,1.9a73.072,73.072,0,0,0-7.2,6.2l.883-.514c-4.2,1.618-8.338,3.384-12.393,5.332-3.994,1.919-8.276,3.818-11.9,6.385-5.948,4.212-9,10.772-11.5,17.381a2.015,2.015,0,0,0,1.4,2.46,2.045,2.045,0,0,0,2.461-1.4Z"/><path class="c" d="M124.5,436.112c3.575,1.976,2.2,6.876-.892,8.527-4.469,2.389-10.1,2.068-14.825.725-5.155-1.466-9.878-4.278-14.305-7.235-3.547-2.369-7.352-4.866-10.3-7.98-1.838-1.939-3.344-6.317-.528-8.185,2.136-1.416.135-4.882-2.019-3.454-4.261,2.827-4.175,8.1-1.942,12.236a16.864,16.864,0,0,0,4.449,4.744c2.077,1.694,4.248,3.278,6.446,4.81,5.307,3.7,11.05,7.234,17.335,8.977,5.8,1.606,13.18,1.85,18.418-1.6,5.162-3.4,6.042-11.782.185-15.019-2.255-1.246-4.275,2.208-2.019,3.454Z"/><path class="c" d="M53.858,431.6a22.35,22.35,0,0,0-8.947-6.388c-3.22-1.37-6.812-2.381-10.326-1.756a2.016,2.016,0,0,0-1.4,2.46,2.045,2.045,0,0,0,2.46,1.4c.531-.094-.429.014.13-.022.146-.01.292-.024.438-.031.309-.014.618-.012.927,0a8.5,8.5,0,0,1,1.8.223,22.91,22.91,0,0,1,4.393,1.373,19.139,19.139,0,0,1,7.69,5.571,2.01,2.01,0,0,0,2.828,0,2.051,2.051,0,0,0,0-2.828Z"/><path class="c" d="M56.525,429.082a21.906,21.906,0,0,0-8.763-6.257c-3.162-1.344-6.685-2.335-10.136-1.722a2.017,2.017,0,0,0-1.4,2.46,2.045,2.045,0,0,0,2.461,1.4c.522-.093-.434.015.116-.02.143-.009.285-.023.428-.03.3-.014.6-.012.907,0,.354.015.71.044,1.062.09-.289-.038.061.012.174.032.173.031.345.061.516.1a22.539,22.539,0,0,1,4.288,1.339,18.618,18.618,0,0,1,7.515,5.444,2.012,2.012,0,0,0,2.829,0,2.052,2.052,0,0,0,0-2.829Z"/><path class="c" d="M68.893,419.113a10.259,10.259,0,0,1-3.327,3.875c-1.5,1.219-3.112,2.382-4.727,3.543-4.01,2.883-8.084,5.731-12.335,8.249-2.678,1.586-5.471,3.2-8.569,3.756-2.506.453-5.793.471-7.9-1.208a3.87,3.87,0,0,1-.922-5.069,23.165,23.165,0,0,1,6.25-6.547,40.786,40.786,0,0,0,7.034-6.655,27.493,27.493,0,0,0,4.822-9.029c.815-2.448-3.047-3.5-3.857-1.063a23.1,23.1,0,0,1-4.577,8.173,44.88,44.88,0,0,1-3.462,3.517c-1.12,1.015-2.369,1.846-3.527,2.815-2.5,2.091-5.29,4.706-6.6,7.737a7.794,7.794,0,0,0,1.19,8.105c4.506,5.46,13.316,3.563,18.7.825a118.564,118.564,0,0,0,14.572-9.29c2.23-1.582,4.45-3.188,6.582-4.9a14.016,14.016,0,0,0,4.517-5.771,2.016,2.016,0,0,0-1.4-2.46,2.045,2.045,0,0,0-2.46,1.4Z"/><path class="c" d="M26.834,432.658c-5.108,2.823-5.281,10.133-1.2,13.941a15.46,15.46,0,0,0,7.868,3.414,26.791,26.791,0,0,0,9.554-.124,35.921,35.921,0,0,0,8.059-2.931,71.662,71.662,0,0,0,8.185-4.469c2.7-1.694,5.284-3.545,7.834-5.45a27.22,27.22,0,0,0,5.888-5.276c2.992-4.065,3.216-10.259-1.3-13.253-2.151-1.427-4.157,2.036-2.019,3.454,2.54,1.685,1.524,5.534.019,7.567a20.756,20.756,0,0,1-4.335,3.849c-2.034,1.529-4.094,3.025-6.215,4.431-8,5.308-17.927,10.921-27.757,7.529-2.045-.7-3.717-1.785-4.425-3.918a4.34,4.34,0,0,1,1.86-5.31c2.254-1.245.239-4.7-2.018-3.454Z"/><path class="c" d="M68.75,76.489A12.6,12.6,0,0,0,74.811,77.9a9.971,9.971,0,0,0,6.213-1.874,2,2,0,0,0,0-2.829,2.062,2.062,0,0,0-2.828,0c.687-.535-.057.009-.276.124-.17.089-.633.23-.015.027-.167.054-.328.126-.5.18-.211.068-.425.125-.641.176a2.919,2.919,0,0,0-.747.14c.157-.106.333-.039,0-.006-.136.014-.272.025-.408.034q-.494.031-.987.028c-.294,0-.589-.012-.883-.032-.135-.009-.27-.02-.4-.034-.077-.007-.154-.016-.231-.025q-.234-.029.165.022a2.028,2.028,0,0,1-.664-.124q-.318-.07-.632-.164c-.182-.054-.359-.12-.538-.181-.459-.157.407.2-.009,0-.223-.105-.442-.214-.659-.329a2,2,0,0,0-2.019,3.454Z"/><path class="c" d="M73.571,62.5a27.135,27.135,0,0,1,.642,2.938l-.071-.532a1.839,1.839,0,0,1,.011.406l.071-.532a.947.947,0,0,1-.044.182l.2-.477a.783.783,0,0,1-.064.117l.313-.405a.663.663,0,0,1-.1.095l.4-.313a1.837,1.837,0,0,1-.232.123l.477-.2a1.727,1.727,0,0,1-.392.114l.532-.071a1.617,1.617,0,0,1-.368,0l.532.071c-.139-.019-.275-.053-.414-.071a1.506,1.506,0,0,0-.8-.036,1.486,1.486,0,0,0-.743.237,2,2,0,0,0-.718,2.737,1.919,1.919,0,0,0,1.2.919c.36.048.709.138,1.075.154a3.51,3.51,0,0,0,1.641-.4,2.475,2.475,0,0,0,1.339-1.618,3.847,3.847,0,0,0-.014-1.688c-.16-.947-.378-1.885-.622-2.813a2,2,0,0,0-2.46-1.4,2.025,2.025,0,0,0-1.2.919,2.1,2.1,0,0,0-.2,1.541Z"/><path class="c" d="M58.515,54.05c-.491,1.594-.171,5.262,2.849,5.574,3.992-.024,4.2-4.458,2.861-6.543C63.124,51.375,59.889,50.665,58.515,54.05Z"/><path class="c" d="M90.48,54.05c.491,1.6.171,5.262-2.849,5.574-3.992-.024-4.2-4.458-2.861-6.543C85.871,51.375,89.106,50.665,90.48,54.05Z"/></svg>