<?xml version="1.0" encoding="utf-8"?>
<!-- Uploaded to: SVG Repo, www.svgrepo.com, Generator: SVG Repo Mixer Tools -->
<svg width="800px" height="800px" viewBox="0 -1.69 330.805 330.805" xmlns="http://www.w3.org/2000/svg"><defs><style>.a{fill:#ffffff;}.b{fill:#79c6e0;}.c{fill:#bce2ef;}.d{fill:#211715;}.e{fill:#7a7473;}</style></defs><path class="a" d="M59.859,47.907c-8.811,1.775-16.282,3.284-22,4.448-.044,54.468,1.829,156.351,1.83,217.293,71.852-1.862,209.792-8.565,244.211-10.327a2.388,2.388,0,0,0,2.265-2.38c.079-19.6,1.18-222.437,1.357-251.773a2.791,2.791,0,0,0-3.367-2.754C225.207,14.772,115.658,36.667,59.859,47.907Z"/><path class="b" d="M272.7,27.89c.015-2.324.028-4.225.037-5.649a2.394,2.394,0,0,0-2.886-2.365c-21.822,4.579-51.818,10.7-82.868,16.983.1,15.632,2.34,181.7,2.66,211.726,35.894-1.629,66.748-3.15,79.636-3.811a2.37,2.37,0,0,0,2.254-2.374C271.523,218.921,272.451,66.152,272.7,27.89Z"/><path class="c" d="M177.859,38.705C125.28,49.33,71.686,60.037,51.205,64.22V253.933l1.6-.04c35.278-.875,90.243-3.182,136.762-5.3-.495-42.641-2.493-196.986-2.587-211.733Z"/><path class="d" d="M137.971,154.986q-2.269.093-4.54.176-.935.033-1.869.063a10.586,10.586,0,0,1-1.657.059l1.435,1.1-.1-.223.327,1.212c0-3.816-.048-7.631-.09-11.446q-.031-2.926-.061-5.853-.012-1.365-.021-2.728l-.006-1.245c0-.143.095-1.092-.024-.713l-1.1,1.435c-.3.217.136,0,.325-.036l.856-.174q.942-.191,1.882-.376,2.46-.489,4.92-.97a2.422,2.422,0,0,0,1.676-2.952,2.449,2.449,0,0,0-2.952-1.676c-2.054.4-4.109.805-6.161,1.217-1.914.383-4.067.668-4.221,3.1-.221,3.491.047,7.088.086,10.584.04,3.686.086,7.372.093,11.058,0,1.18.158,2.413,1.286,3.073a5.584,5.584,0,0,0,3.11.367c2.269-.07,4.537-.159,6.805-.252,3.078-.127,3.094-4.928,0-4.8Z"/><path class="d" d="M131.873,134.088c-1.074.215-1.975.4-2.642.538a.342.342,0,0,0-.24.33c0,5.75.18,16.04.18,22.42a.314.314,0,0,0,.32.31c2.34-.06,5.341-.17,8.481-.3-.118-8.115-.238-16.319-.357-24.431C135.454,133.38,133.472,133.769,131.873,134.088Z"/><path class="a" d="M147.381,49.48q-.031-2.452-.059-4.616l-10.931,2.2c.55,42,2.56,174.922,2.91,203.733q5.418-.226,10.85-.459C149.7,214.656,147.975,95.3,147.381,49.48Z"/><path class="a" d="M187.019,40.453c-.016-1.574-.027-2.786-.032-3.6Q181.359,38,175.7,39.136c.218,23.588,2.384,184.2,2.646,209.964q5.718-.256,11.3-.511C189.338,220.112,187.308,69.309,187.019,40.453Z"/><path class="a" d="M262.282,72.509c-4.1.1-10.061-.29-12.812-4.755-.881-1.43-.57-3.8-1.531-5.118a7.8,7.8,0,0,0-6.679-3.542c-12.092-.907-16.393.638-25.622,3.311-4.152,1.421-4.555,2.385-5.087,3.84-.77,2.108-.447,5.67,1.225,7.362,1.419,1.435,4.241,2.148,6.244,2.611s6.109.629,7.487,2.8c1.412,2.226,1.1,5.81,2.857,8.277a10.159,10.159,0,0,0,4.558,3.76c7.905,2.939,13.887,2.835,22.187,1.484,5.242-.853,11.627-2.229,17.149-3.21.033-5.507.066-10.874.1-16.042A49.964,49.964,0,0,0,262.282,72.509Z"/><path class="d" d="M52.807,256.293c12-.3,24-.693,36-1.12q21.014-.747,42.021-1.624,21.707-.894,43.411-1.866,20.355-.906,40.708-1.864,16.632-.781,33.262-1.594,6.309-.309,12.615-.624,2.474-.125,4.947-.249c1.774-.09,4.1.114,5.672-.761,3.146-1.756,2.482-5.842,2.489-8.907q.01-4.234.027-8.469.045-12.133.108-24.266.078-15.639.163-31.277.094-17.46.195-34.921.1-17.816.208-35.632.1-16.493.2-32.986.081-13.512.166-27.024.055-9.033.115-18.065c.006-.908.048-1.823.018-2.73a4.908,4.908,0,0,0-3.488-4.7c-1.59-.447-3.3.132-4.867.461q-8.341,1.746-16.69,3.468-19.262,3.978-38.536,7.892-21.243,4.321-42.493,8.607Q147.983,42.294,126.9,46.53q-18.77,3.774-37.538,7.545Q74.821,57,60.282,59.933q-4.858.983-9.715,1.973a2.4,2.4,0,1,0,1.276,4.628q11.542-2.357,23.094-4.672,16.753-3.373,33.509-6.737,19.96-4.011,39.92-8.029,21.166-4.261,42.329-8.545,20.45-4.14,40.891-8.318,17.559-3.594,35.106-7.248l1.856-.388a7,7,0,0,1,1.939-.407c-.44-.063-.1-.07-.153.161a3.219,3.219,0,0,0,0,.621q-.009,1.444-.019,2.89l-.051,7.947q-.073,11.6-.144,23.2-.093,15.172-.184,30.344-.1,17.192-.2,34.382-.1,17.655-.2,35.311-.093,16.565-.18,33.13-.072,13.92-.136,27.84-.043,9.75-.074,19.5,0,1.587,0,3.172c0,.42.011.842,0,1.262,0,.163-.008.336-.019.49,0,.066.134-.066.1-.06a4.329,4.329,0,0,1-.547.028q-4.766.243-9.531.48-14.265.711-28.531,1.392-18.789.9-37.579,1.758-21.162.968-42.328,1.878-21.387.918-42.779,1.75-19.466.75-38.934,1.374-8.09.251-16.181.456c-3.083.076-3.095,4.877,0,4.8Z"/><path class="d" d="M59.221,45.593q-11,2.215-22,4.447a2.426,2.426,0,0,0-1.762,2.315c-.009,12.2.067,24.4.165,36.6q.174,21.744.433,43.486.261,23.327.536,46.652.256,22.729.465,45.459.174,20.272.227,40.546,0,2.274,0,4.547a2.429,2.429,0,0,0,2.4,2.4q19.754-.513,39.5-1.248,22.8-.816,45.6-1.763,23.672-.97,47.341-2.026,22.364-.992,44.725-2.038,18.942-.883,37.884-1.805,13.187-.641,26.373-1.305c2.614-.133,5.517-.03,6.916-2.737a8.174,8.174,0,0,0,.544-3.847l.03-6.181q.049-10.272.1-20.546l.153-29.044q.091-17.322.185-34.644l.2-37.348q.1-18.576.2-37.152.094-17.094.188-34.186.077-14.02.155-28.042.054-9.571.109-19.143l.018-3.013a6.443,6.443,0,0,0-.636-3.332A5.331,5.331,0,0,0,283.515.1c-6.414,1.134-12.784,2.668-19.163,3.987Q241.879,8.733,219.389,13.3q-24.8,5.046-49.6,10.048-24.588,4.964-49.179,9.9-21.852,4.394-43.7,8.783-8.842,1.779-17.686,3.559C56.2,46.2,57.476,50.83,60.5,50.221Q79.939,46.306,99.382,42.4q23.265-4.674,46.529-9.357,24.815-5,49.625-10.017,23.718-4.8,47.429-9.652,20.353-4.168,40.693-8.411c.863-.181,1.4-.5,1.46.478.027.441,0,.894-.008,1.336q-.009,1.641-.019,3.283-.025,4.305-.049,8.612-.069,12.12-.136,24.241-.087,15.743-.173,31.484l-.195,35.668q-.1,18.66-.2,37.32-.1,17.935-.192,35.869-.086,15.944-.169,31.887-.066,12.422-.13,24.844-.038,7.59-.074,15.181a7.859,7.859,0,0,1-.078,1.831c.03-.108.353-.044-.063-.065-.158-.008-.322.017-.48.025l-1.215.062-2.4.122q-5.979.3-11.959.6-16.486.816-32.975,1.6-20.826.99-41.653,1.939-23.158,1.053-46.32,2.046-23.288.995-46.58,1.9-21.212.819-42.429,1.506-8.964.282-17.93.519l2.4,2.4q0-19.826-.186-39.651-.18-22.53-.444-45.058-.261-23.373-.537-46.745-.251-22.036-.455-44.073Q40.3,75.28,40.258,56.438q0-2.042,0-4.083l-1.762,2.314q11-2.238,22-4.448C63.523,49.612,62.242,44.984,59.221,45.593Z"/><path class="d" d="M144.921,44.866q.21,16.509.441,33.019.3,22.176.616,44.353.339,24.234.679,48.467.31,22.09.616,44.18.227,16.337.443,32.671.018,1.385.035,2.77c.039,3.086,4.84,3.095,4.8,0q-.195-15.355-.412-30.709-.3-21.586-.6-43.173-.339-24.2-.679-48.4-.317-22.612-.629-45.226-.24-17.423-.469-34.845-.02-1.554-.04-3.108c-.039-3.087-4.839-3.095-4.8,0Z"/><path class="d" d="M133.991,47.066q.22,16.8.467,33.6.326,22.853.661,45.7.357,24.456.715,48.913.318,21.8.63,43.6.212,14.843.409,29.686.015,1.116.028,2.232c.038,3.086,4.838,3.095,4.8,0q-.166-13.687-.372-27.375-.3-21.253-.613-42.5-.356-24.368-.712-48.735-.339-23.211-.673-46.423-.255-17.77-.5-35.54l-.042-3.152c-.04-3.087-4.84-3.1-4.8,0Z"/><path class="d" d="M173.281,39.146c.053,8.129.177,16.258.278,24.386q.288,23.069.592,46.135.356,27.366.716,54.733.327,24.981.65,49.961.209,16.3.4,32.6.01,1.067.022,2.132c.032,3.087,4.832,3.095,4.8,0q-.15-14.78-.358-29.557-.311-24.4-.633-48.793-.358-27.44-.718-54.88-.311-23.806-.614-47.614c-.116-9.246-.244-18.492-.326-27.739q-.006-.684-.011-1.367c-.02-3.088-4.82-3.095-4.8,0Z"/><path class="d" d="M184.581,36.856c.053,8.095.174,16.19.274,24.285q.284,22.98.583,45.96.351,27.244.706,54.489.328,25.386.654,50.773.216,16.905.417,33.812.013,1.2.026,2.4c.033,3.087,4.833,3.095,4.8,0q-.165-15.543-.378-31.087-.312-24.726-.636-49.453-.354-27.342-.708-54.684-.309-23.835-.608-47.669c-.113-9.147-.238-18.3-.319-27.442q-.006-.693-.011-1.385c-.02-3.088-4.82-3.095-4.8,0Z"/><path class="a" d="M92.049,96.305l28.713-31.749c2.068-2.286-1.316-5.691-3.394-3.394L88.655,92.911c-2.067,2.286,1.317,5.691,3.394,3.394Z"/><path class="a" d="M112.305,97.349l12.5-13.827a2.4,2.4,0,0,0-3.394-3.394l-12.5,13.827a2.4,2.4,0,0,0,3.394,3.394Z"/><path class="d" d="M261.769,219.859c2.844-3.291,7.24-4.373,11.457-3.853,4.721.581,8.96,3.328,12.484,6.373,4.106,3.547,7.607,7.715,11.552,11.43a38.781,38.781,0,0,0,13.679,8.73,33.833,33.833,0,0,0,18.139,1.083c3.021-.638,1.742-5.266-1.276-4.629a29.013,29.013,0,0,1-15.587-1.082c-5.125-1.8-9.3-5.215-13.107-8.994-7.479-7.419-14.82-16.6-26.063-17.729-5.33-.534-11.1,1.141-14.672,5.277-2.011,2.326,1.37,5.736,3.394,3.394Z"/><path class="d" d="M254.606,235.9c11.006.572,17.507,11.847,21.616,20.688,4.861,10.458,9.507,21.66,20.429,27.128a33.075,33.075,0,0,0,19.773,3,2.414,2.414,0,0,0,1.676-2.952,2.461,2.461,0,0,0-2.952-1.676,27.464,27.464,0,0,1-16.074-2.517,29.2,29.2,0,0,1-11.78-11.37c-5.848-9.625-8.642-20.868-16.629-29.157-4.3-4.459-9.787-7.618-16.059-7.944-3.087-.16-3.079,4.64,0,4.8Z"/><path class="a" d="M49.337,172.88A2.924,2.924,0,0,0,51.806,170a146.94,146.94,0,0,0-.891-16.459,3.5,3.5,0,0,0-1.531-2.522c.009,0,.02-.005.028,0,.8-11.617,10.626-47.461,11.449-55.058,2.223-20.289,1.536-40.32-.184-59.492a6.432,6.432,0,0,0-7.161-5.82c-.352.042-.71.091-1.071.145-5.253.794-11.42,2.853-17.488,3.934-2.913.518-5.387-3.426-7.142-3.547-2.67-.183-13.749,3.959-21.379,7.2A6.669,6.669,0,0,0,2.4,44.744c.074,2.4.307,5.44.8,9.849C4.214,63.771,5.461,72.3,6.756,81.45c1.369,9.681,3.535,21.213,5.1,30.318,1.523,8.872,6.034,31.555,6.316,40.389,0,0,.027.779.063,1.808h0c-3.245,1.424-5.223,4.348-4.714,11.449.347,4.829.2,9.37,2.9,10.76a10.554,10.554,0,0,0,4.317.544c-.133.74-.223,1.245-.223,1.245-3.644,17.205-7.493,37.113-9.469,54.543C8.667,253.518,3,272.062,3.988,288.65c.15,2.511,1.728,5.491,4.881,5.629l3.8.135c7.87.28,61.517.9,61.517.9S56.409,205.978,49.337,172.88Z"/><path class="d" d="M17.635,174.1a1.654,1.654,0,0,1-.743-.83,8.779,8.779,0,0,1-.554-2.2c-.293-2-.33-4.057-.446-6.071a17.016,17.016,0,0,1,.29-5.071c.074-.3.166-.59.26-.882.149-.463.022-.13.175-.435a8.867,8.867,0,0,1,.445-.783c.077-.121.161-.243.248-.355-.144.186-.113.144.027,0,.191-.2.385-.389.59-.575.073-.067.359-.263,0,0,.11-.078.222-.162.338-.229.208-.121.41-.248.624-.359.123-.065.249-.124.374-.184.343-.165-.522.185.11-.045a19.721,19.721,0,0,1,3.413-.868c2.989-.517,6.023-.94,9.324-1.339,4.558-.551,9.143-.8,13.725-1.046,1.429-.077,2.543-.265,2.761,1.4.259,1.979.375,3.988.506,5.979.136,2.08.237,4.164.288,6.248.022.907.034,1.815.03,2.722,0,.558.125,1.087-.386,1.348a6.315,6.315,0,0,1-1.631.24l-2.393.348-5.56.809q-6.048.88-12.1,1.764c-1.743.254-3.237.468-5.042.579a28.444,28.444,0,0,1-3.09.047c-.156-.007-.312-.018-.468-.028-.067,0-.652-.072-.368-.029-.207-.031-1.168-.34-.746-.143a2.469,2.469,0,0,0-3.284.861,2.42,2.42,0,0,0,.861,3.283c3.545,1.649,8.159.822,11.881.282q6.076-.882,12.152-1.772l6.223-.907a23.935,23.935,0,0,0,5.412-.939c2.443-.99,3.324-3.271,3.335-5.743.01-2.239-.069-4.479-.186-6.715-.124-2.39-.3-4.778-.528-7.16-.245-2.5-.58-4.771-2.8-6.3-2.192-1.5-4.954-.972-7.44-.832-2.639.148-5.278.314-7.911.559-4.323.4-8.659,1.084-12.628,1.665-2.9.424-5.825,1.1-8.106,3.048-3.115,2.663-3.7,7.1-3.549,10.957a63.827,63.827,0,0,0,.683,8.16,7.7,7.7,0,0,0,3.467,5.7C17.9,179.77,20.326,175.625,17.635,174.1Z"/><path class="d" d="M20.57,152.157c-.288-8.216-2-16.474-3.429-24.549-1.531-8.651-3.106-17.293-4.634-25.945Q9.3,83.48,6.891,65.185c-.794-6.017-1.6-12.058-1.979-18.119-.117-1.892-.391-3.847.951-5.389a6.388,6.388,0,0,1,2.531-1.539q1.746-.729,3.5-1.428a112.477,112.477,0,0,1,13.6-4.743c.381-.1.763-.19,1.148-.269.189-.038,1.2-.142.48-.1.2-.013.99,0,.225-.085.2.022.219.171-.012-.034a6.034,6.034,0,0,0,.6.371c1.586,1.082,3.283,2.853,5.512,3.215a11.58,11.58,0,0,0,4.224-.437c1.625-.341,3.239-.731,4.849-1.134,2.924-.73,5.837-1.523,8.8-2.09,2.066-.395,4.3-.859,5.895.88s1.277,4.683,1.451,6.871a322.963,322.963,0,0,1,.963,39.027q-.208,5.049-.628,10.088-.2,2.349-.443,4.694c-.046.434-.112.87-.143,1.305.064-.909,0-.011-.037.21-.4,2.525-.968,5.025-1.526,7.518-1.712,7.645-3.584,15.253-5.332,22.89C49.9,134,48.226,141.153,47.284,148.4c-.145,1.11-.268,2.224-.315,3.343-.131,3.088,4.669,3.082,4.8,0,.022-.514.059-1.026.107-1.538.028-.29.059-.581.092-.871.021-.179.166-1.285.083-.687.214-1.55.475-3.093.755-4.633.693-3.813,1.505-7.6,2.345-11.388,1.794-8.077,3.759-16.114,5.617-24.176.681-2.956,1.364-5.915,1.931-8.895A108.746,108.746,0,0,0,64.09,86.575a298.547,298.547,0,0,0-.264-40.692c-.223-3.251-.4-6.528-.79-9.764a8.942,8.942,0,0,0-4.023-6.533c-2.485-1.6-5.141-1.466-7.932-.993-3.006.509-5.959,1.3-8.913,2.046-1.607.406-3.216.806-4.834,1.164-1.091.24-2.549.783-3.432.448-1.709-.647-3.008-2.612-4.9-3.245-1.534-.513-3.258-.055-4.775.332-2.166.553-4.29,1.278-6.4,2.023-2.543.9-5.063,1.863-7.567,2.864-2.452.981-5.3,1.785-7.3,3.576C-1.148,41.487.06,47.42.552,52.28,1.861,65.24,3.708,78.2,5.829,91.053c1.65,10,3.438,19.972,5.259,29.937,1.6,8.771,3.333,17.716,4.3,26.443.175,1.57.322,3.145.378,4.724.107,3.08,4.908,3.094,4.8,0Z"/><path class="d" d="M37.823,75.078c-1.258,12.155-2.42,24.333-2.946,36.545-.133,3.088,4.667,3.082,4.8,0,.526-12.212,1.688-24.39,2.946-36.545a2.416,2.416,0,0,0-2.4-2.4,2.454,2.454,0,0,0-2.4,2.4Z"/><path class="d" d="M18.2,177.325c-3.533,16.7-6.8,33.476-8.977,50.409-1.094,8.5-2.276,16.94-3.787,25.378-1.414,7.9-2.9,15.822-3.6,23.828a65.367,65.367,0,0,0-.226,11.991c.4,4.069,3.025,7.417,7.258,7.748a2.421,2.421,0,0,0,2.4-2.4,2.448,2.448,0,0,0-2.4-2.4c-2.545-.2-2.522-3.5-2.571-5.329a86.207,86.207,0,0,1,.412-10.413c.716-7.531,2.148-14.975,3.478-22.414,2.873-16.073,4.479-32.318,7.366-48.392,1.606-8.939,3.4-17.844,5.278-26.73.638-3.013-3.988-4.3-4.628-1.276Z"/><path class="a" d="M70.958,160.342c.307-.607.66-1.232,1.084-1.9,4.077-5.9,10.7-12.9,19.359-16.019,0,0,6.645-2.564,11.005-.571q.226.839.436,1.757a45.233,45.233,0,0,1,1.561,7.659c1.142,5.79,2.711,13.829,8.516,15.823a5.482,5.482,0,0,1,2.881,2.069c1.758,2.687-.517,4.4-1.788,6.328a8.993,8.993,0,0,0-1.393,4.115,55.524,55.524,0,0,1,.215,8.577,24.047,24.047,0,0,1-.955,5.94,11.273,11.273,0,0,1-5.177,6.662c-4.138,2.345-10.069,3.929-14.149,3.524a1.956,1.956,0,0,0-2.094,1.522c-.092.407-1.079,10.348-1.032,12.315a15.032,15.032,0,0,0,.266,2.952c.708,3.144-7.951,7.847-17.938,7.847-10.457,0-20.361-5.97-19.363-8.555.4-1.038.658-5.207.73-8.049a12.793,12.793,0,0,0-.432-3.525,10.872,10.872,0,0,0-2.8-4.525c5.366-4.314,11.167-13.932,12.127-19.539,0,0,.033-.193.089-.529a14.3,14.3,0,0,1-5.323-8.716c-.521-2.38-.132-5.443,1.547-7.158a5.617,5.617,0,0,1,4.568-1.51,8,8,0,0,1,4.851,2.443C69.19,165.206,69.65,162.93,70.958,160.342Z"/><path class="a" d="M103.62,326.861c.186-3.138-.263-8.4-.263-13.133l-.706-17.552q2.008,1.406,4.106,2.667c2.276-6.25,6.418-17.14,8.075-21.527l8.516-22.571c-6.041-5.384-11.722-10.132-17.229-15.948-2.854-3.013-5.859-6.124-9.54-7.922a11.057,11.057,0,0,0-3.808-8.6,25.772,25.772,0,0,0-8.231-4.753c-4.614-1.84-13.416-2.835-19.545-2.134L51.19,216.946a41.449,41.449,0,0,0-19.31,16.793c-5.133,8.589-6.953,18.7-8.682,28.552-4.472,25.488-2.665,37.517-2.665,62.731Z"/><path class="a" d="M127.6,299.681a13.485,13.485,0,0,0,9.134-.2,19.425,19.425,0,0,0,5.165-3.011c10.824-8.586,24.459-25.39,31.88-41.067a17.293,17.293,0,0,1,9.211-8.47c3.788-1.414,7.2-2.095,9.954-3.3a11.378,11.378,0,0,0,3.524-2.245,7.024,7.024,0,0,0,2.3-4.589,22.056,22.056,0,0,0-.345-4.583c-1.553-5.318.261-9.859-3.083-14.373a10.741,10.741,0,0,0,.376-4.964c-.312-2.737-.863-4.254-3.047-5.1a5.515,5.515,0,0,0-1.964-.414,7.622,7.622,0,0,0-3.623,1.054,59.3,59.3,0,0,0-9.779,6.038c.233-3.6-2.443-6.929-4.708-6.542a5.445,5.445,0,0,0-3.968,3.782c-3.762,9.892-4.816,11.34-6.594,22.983a16.748,16.748,0,0,1-1.752,4.679c-3.041,4.544-19.421,25.507-22.7,27.166a7.57,7.57,0,0,1-3.852,1.094,11.446,11.446,0,0,1-5.078-2.145c-.963-.7-5.111-4.466-5.691-5.078l-1.242-1.312-6.88,18.236c-1.03,2.728-3.021,7.969-4.927,13.046l1.58,1.111a67.453,67.453,0,0,0,15.716,8.09C127.335,299.6,127.467,299.643,127.6,299.681Z"/><path class="e" d="M65.351,117a51.945,51.945,0,0,1,8.322.768c14.024,2.411,21.675,10.779,23.062,12.693a31.577,31.577,0,0,1,5.672,11.4c-4.358-2-11.006.563-11.006.563-8.663,3.118-15.282,10.12-19.359,16.019-2.23,3.519-2.514,5.808-4.291,10.837a8,8,0,0,0-4.851-2.443,5.617,5.617,0,0,0-4.568,1.51c-1.679,1.715-2.068,4.778-1.547,7.158a14.3,14.3,0,0,0,5.323,8.716c-.056.336-.089.529-.089.529-.96,5.608-6.762,15.226-12.13,19.541-2.759-2.908-6.815-5.381-9.5-7.479-6.139-4.8-15.539-14.58-17.673-30.013a45.718,45.718,0,0,1,3.669-24.279c7.865-17.074,19.184-21.678,26.282-23.788A42.979,42.979,0,0,1,65.351,117Z"/><path class="d" d="M99.983,142.57c2.307,6.687,2.172,14,5.394,20.408a12.891,12.891,0,0,0,6.76,6.374c.88.366,2.179,1.127,1.829,2.052-.536,1.42-1.953,2.527-2.619,3.937a10.531,10.531,0,0,0-1.01,5.5,55.8,55.8,0,0,1,.148,6.161c-.111,3.535-.5,7.542-3.082,10.226-2.2,2.29-5.8,3.4-8.821,4.125a19.661,19.661,0,0,1-4.888.611c-2.026-.029-3.905.11-5.068,2.058a6.963,6.963,0,0,0-.7,2.965c-.132,1.239-.252,2.48-.367,3.72a70.6,70.6,0,0,0-.527,7.433c.044,3.086,4.844,3.095,4.8,0a62.7,62.7,0,0,1,.439-6.464q.162-1.8.343-3.608c.045-.442.09-.884.139-1.326.034-.314.2-1.263.017-.229-.045.251-.439,0,.105.218a6.8,6.8,0,0,0,2.577-.035,30.007,30.007,0,0,0,5.762-1.071c3.34-.964,6.983-2.374,9.476-4.89,2.913-2.938,4.025-6.938,4.424-10.945a48.554,48.554,0,0,0,.168-6.416c-.057-1.693-.455-3.432.036-5.075.478-1.595,1.738-2.684,2.572-4.076a5.728,5.728,0,0,0,.492-5.281A7.617,7.617,0,0,0,113.9,164.9a6.913,6.913,0,0,1-3-2.122c-2.016-2.439-2.843-5.9-3.523-8.949-.937-4.2-1.354-8.444-2.766-12.537-1-2.9-5.64-1.655-4.628,1.276Z"/><path class="d" d="M105.219,143.253a35.168,35.168,0,0,0-7.449-15.308,36.172,36.172,0,0,0-10.15-7.871,48.061,48.061,0,0,0-39.762-2.23c-11.107,4.412-19.24,13.449-23.934,24.335a46.916,46.916,0,0,0,2.688,42.695,50.592,50.592,0,0,0,10.407,12.265c2.047,1.751,4.26,3.276,6.438,4.856,2.282,1.656,4.8,3.484,6.261,5.949a8.362,8.362,0,0,1,1,4.393c-.014,3.089,4.786,3.093,4.8,0a13.346,13.346,0,0,0-3.376-9.132,39.6,39.6,0,0,0-7.129-5.975,54.891,54.891,0,0,1-10.292-9.211A41.968,41.968,0,0,1,25.907,151.4c2.636-11.262,9.788-22.05,20.08-27.464a30.471,30.471,0,0,1,5.03-2.163,43.2,43.2,0,0,1,8.145-2.013A44.781,44.781,0,0,1,80.826,122.2a35.406,35.406,0,0,1,11.926,7.443c.517.5,1.02,1.01,1.494,1.548.159.18.308.369.466.549a2.107,2.107,0,1,0-.142-.189c.131.2.284.389.423.584a32,32,0,0,1,4.168,7.407,39.743,39.743,0,0,1,1.429,4.987c.683,3.011,5.312,1.737,4.629-1.276Z"/><path class="d" d="M59.7,184.11a27.034,27.034,0,0,1-4,9.408,35.356,35.356,0,0,1-7.107,8.741,2.421,2.421,0,0,0,0,3.394,2.448,2.448,0,0,0,3.394,0,40.108,40.108,0,0,0,7.857-9.712,32.03,32.03,0,0,0,4.487-10.555,2.467,2.467,0,0,0-1.676-2.952A2.42,2.42,0,0,0,59.7,184.11Z"/><path class="d" d="M92.267,139.587c-6.932,1.992-12.891,6.366-17.649,11.7a39.359,39.359,0,0,0-5.538,7.465c-1.574,2.963-2.391,6.251-3.476,9.407-1.008,2.927,3.627,4.184,4.628,1.276.949-2.758,1.623-5.682,2.993-8.261a33.976,33.976,0,0,1,4.787-6.493c4.223-4.734,9.365-8.7,15.531-10.47,2.964-.852,1.7-5.485-1.276-4.628Z"/><path class="d" d="M68.068,166.453a9.1,9.1,0,0,0-8.908-1.444c-3.158,1.287-4.663,4.3-4.951,7.561-.45,5.107,2.454,10.466,6.421,13.516a20.542,20.542,0,0,0,7.957,3.562,2.4,2.4,0,0,0,1.276-4.628c-.661-.153-1.317-.323-1.964-.529q-.531-.168-1.054-.365c.016.006-.66-.271-.432-.171a15.865,15.865,0,0,1-1.637-.838c-.3-.173-.584-.354-.866-.546-.054-.037-.6-.432-.327-.22a11.3,11.3,0,0,1-3.776-5.057c-.837-2.245-1.387-4.848-.088-6.858a2.941,2.941,0,0,1,2.514-1.225,5.246,5.246,0,0,1,3.412,1.386,2.413,2.413,0,0,0,3.284-.861,2.462,2.462,0,0,0-.861-3.283Z"/><path class="d" d="M98.994,142.353a21.376,21.376,0,0,0,4.44,2.264,1.812,1.812,0,0,0,.957.043,1.774,1.774,0,0,0,.892-.285,2.4,2.4,0,0,0,.861-3.283l-.375-.486a2.407,2.407,0,0,0-1.059-.617c-.2-.076-.394-.155-.59-.236l.574.242a18.856,18.856,0,0,1-3.278-1.787,1.794,1.794,0,0,0-.892-.285,1.823,1.823,0,0,0-.957.043,2.445,2.445,0,0,0-1.434,1.1,2.418,2.418,0,0,0-.242,1.849l.242.574a2.416,2.416,0,0,0,.861.861Z"/><path class="d" d="M100.452,160.969c.872,1.569,1.429,5.5-1.518,6.506-4,.868-5.271-3.753-4.425-6.249C95.2,159.182,98.268,157.711,100.452,160.969Z"/><path class="d" d="M49.978,214.874A44.028,44.028,0,0,0,32.11,229.09c-4.957,6.642-7.595,14.675-9.348,22.689a212.86,212.86,0,0,0-4.985,46.665c.048,8.861.352,17.717.356,26.578,0,3.089,4.8,3.094,4.8,0-.006-14.585-.948-29.215.2-43.779a221.078,221.078,0,0,1,3.389-23.9c1.5-7.864,3.417-15.832,7.636-22.73A39.551,39.551,0,0,1,52.4,219.019a2.415,2.415,0,0,0,.861-3.284,2.463,2.463,0,0,0-3.284-.861Z"/><path class="d" d="M65,217.791A44.049,44.049,0,0,1,82.368,219.3c5.136,1.585,12.007,5.164,11.822,11.408-.091,3.09,4.709,3.087,4.8,0,.244-8.237-7.372-13.128-14.207-15.653a39.886,39.886,0,0,0-9.447-1.954A47.673,47.673,0,0,0,65,212.991a2.471,2.471,0,0,0-2.4,2.4,2.416,2.416,0,0,0,2.4,2.4Z"/><path class="d" d="M179.468,211.884c-.769-3.169-3.488-6.929-7.2-6.33-3.781.611-5.316,3.828-6.55,7.034a93.581,93.581,0,0,0-4.855,14.814c-.749,3.657-.931,7.379-2.663,10.742-1.411,2.742,2.729,5.173,4.145,2.423a18.635,18.635,0,0,0,1.994-5.253c.341-1.993.63-3.993,1.021-5.979a57.84,57.84,0,0,1,2.1-7.9c1.022-2.933,2.189-5.82,3.318-8.713.4-1.031,1.156-2.278,2.071-2.444.423-.077.055-.051.265.067a2.464,2.464,0,0,1,.644.532,5.126,5.126,0,0,1,1.075,2.278c.727,3,5.357,1.73,4.628-1.276Z"/><path class="d" d="M100.957,311.89c.007,4.369.505,8.766.263,13.132a2.414,2.414,0,0,0,2.4,2.4,2.454,2.454,0,0,0,2.4-2.4c.242-4.366-.256-8.763-.263-13.132a2.4,2.4,0,0,0-4.8,0Z"/><path class="d" d="M175.85,256.613a15.049,15.049,0,0,1,7.056-7.054c3.371-1.609,7.183-2.152,10.628-3.6,3.763-1.578,7.16-4.468,7.595-8.769a18.642,18.642,0,0,0-.128-3.943c-.183-1.59-.692-3.1-.833-4.7-.372-4.207-.192-8.314-2.761-11.926l.242,1.849a14.981,14.981,0,0,0,.04-8.218,6.913,6.913,0,0,0-5.408-5.1c-3.287-.7-6.25,1.013-9.031,2.554a64,64,0,0,0-8.6,5.783,2.415,2.415,0,0,0,0,3.394,2.46,2.46,0,0,0,3.4,0,56.63,56.63,0,0,1,7.425-4.923c1.863-1.042,4.384-2.9,6.535-1.869a1.473,1.473,0,0,1,.929,1.023,10.7,10.7,0,0,1,.488,3.457,11.059,11.059,0,0,1-.405,2.625c-.368,1.666,1.159,2.971,1.621,4.5.691,2.282.521,4.7.745,7.053.225,2.366.878,4.35.964,6.532a5.461,5.461,0,0,1-2.729,5.3c-2.227,1.384-4.856,1.987-7.34,2.738a26.778,26.778,0,0,0-8.705,3.905,19.373,19.373,0,0,0-5.872,6.968,2.467,2.467,0,0,0,.861,3.284,2.421,2.421,0,0,0,3.284-.861Z"/><path class="d" d="M111.5,180.957c-.422.232-.855.441-1.3.632l.573-.242a12.092,12.092,0,0,1-3,.856l.638-.086a7.757,7.757,0,0,1-1.973.026l.638.086a4.383,4.383,0,0,1-.886-.2,2.4,2.4,0,0,0-2.953,1.676,2.461,2.461,0,0,0,1.677,2.952,7.071,7.071,0,0,0,1.651.305,7.606,7.606,0,0,0,1.659-.017,15.349,15.349,0,0,0,5.7-1.839,2.424,2.424,0,0,0,.861-3.284,2.451,2.451,0,0,0-3.284-.861Z"/><path class="d" d="M95.35,293.691a94.193,94.193,0,0,0,10.2,7.225,2.433,2.433,0,0,0,3.525-1.435c4.7-12.887,9.645-25.687,14.487-38.521l2.1-5.577a2.339,2.339,0,0,0-.618-2.335c-5.148-4.583-10.416-9.043-15.278-13.937-4.441-4.469-8.565-9.4-14.758-11.433-2.942-.965-4.2,3.669-1.276,4.628,5.554,1.82,9.3,6.89,13.294,10.853,4.676,4.641,9.706,8.905,14.624,13.283l-.617-2.335q-5.4,14.3-10.8,28.606c-1.95,5.157-3.9,10.313-5.791,15.492l3.525-1.434a85.041,85.041,0,0,1-9.223-6.474,2.472,2.472,0,0,0-3.4,0,2.418,2.418,0,0,0,0,3.394Z"/><path class="d" d="M158.2,238.144c-3.59,5.34-7.434,9.957-11.526,14.966-2.26,2.767-4.549,5.519-6.97,8.149-.829.9-1.671,1.8-2.583,2.619-.157.141-.334.27-.484.417s.514-.252-.006-.007a6.624,6.624,0,0,1-2.449.945,7.143,7.143,0,0,1-3.7-1.405c.031.02-1-.7-.491-.32.385.283-.2-.172-.266-.223-.336-.28-.666-.567-1-.855-1.383-1.21-2.8-2.416-4.086-3.735-2.155-2.22-5.548,1.176-3.394,3.394,2.7,2.782,5.892,5.833,9.547,7.241,4.112,1.585,7.844-.135,10.739-3.041,5.374-5.394,10.066-11.567,14.724-17.573,2.073-2.674,4.192-5.34,6.081-8.149,1.728-2.571-2.428-4.976-4.145-2.423Z"/><path class="d" d="M110.274,293.545a66.48,66.48,0,0,0,14.905,7.862,18.463,18.463,0,0,0,8.5,1.261,18.732,18.732,0,0,0,8.916-3.735,84.8,84.8,0,0,0,11.523-10.754,144.24,144.24,0,0,0,11.421-14.21,118.1,118.1,0,0,0,10.307-17.356,2.466,2.466,0,0,0-.861-3.284,2.422,2.422,0,0,0-3.284.861,125.057,125.057,0,0,1-18.819,28.181A105.363,105.363,0,0,1,142.229,293.1a22,22,0,0,1-6.134,4.071,12.1,12.1,0,0,1-8.256.083A56.237,56.237,0,0,1,112.7,289.4a2.42,2.42,0,0,0-3.283.861,2.448,2.448,0,0,0,.861,3.283Z"/><path class="d" d="M82.253,227.746a22.586,22.586,0,0,0-13.3,15.418c-1.857,7.064-.874,14.615,1.825,21.323a2.474,2.474,0,0,0,2.952,1.676,2.417,2.417,0,0,0,1.677-2.952c-2.284-5.675-3.4-11.95-2.016-17.994,1.279-5.585,4.722-10.588,10.137-12.842a2.48,2.48,0,0,0,1.677-2.952,2.416,2.416,0,0,0-2.953-1.677Z"/></svg>