<?xml version="1.0" encoding="utf-8"?>
<!-- Uploaded to: SVG Repo, www.svgrepo.com, Generator: SVG Repo Mixer Tools -->
<svg width="800px" height="800px" viewBox="0 -7.56 392.09 392.09" xmlns="http://www.w3.org/2000/svg"><defs><style>.a{fill:#ffffff;}.b{fill:#211715;}.c{fill:#f4b467;}.d{fill:#aaa0c7;}.e{fill:#b3b3b3;}.f{fill:#87cce3;}</style></defs><path class="a" d="M247.556,270.272c-2.388,2.544-5.6,5.813-8.332,8.653,3.017,2.522,3.938,4.634,7.071,5.489,3.612.985,8.822.642,12.667.111l1.926-.265a4.006,4.006,0,0,1,2.206-1.764,8.383,8.383,0,0,1,3.407-.51l-2.872-5.461c-.634-1.122-2.988-4.6-4.037-5.35-1.514-1.081-3.515-1.105-5.376-1.087q-3.273.033-6.547.063Z"/><path class="a" d="M263.094,282.5a4.017,4.017,0,0,0-2.764,3.941c.008,2.125,1.477,3.881,3.176,3.969,2.629.135,4.672-.084,6.6-1.96,1.237-1.2.808-3.585-.28-4.922a4.444,4.444,0,0,0-3.382-1.545A8.463,8.463,0,0,0,263.094,282.5Z"/><path class="a" d="M83.7,336.505c.149,2.572.306,4.9.469,6.941a64.174,64.174,0,0,0,1.46,11.47c2.07,7.77,5.33,13.22,11.55,19.45-10.66,0-53.44.33-61.33.33,7.11-7.11,11.48-13.59,12.98-20.2a108,108,0,0,0,1.47-11.47c3.11-26.81,1.92-110.37.78-134a13.973,13.973,0,0,0-3.63-9.05c-7.62-8.04-15.97-16.58-23.04-26.28-7.15-11.26-12.49-24.5-16.11-34.06-.2-.53-.41-1.14-.61-1.79a48.35,48.35,0,0,0,9.97-.82,132.4,132.4,0,0,0,15.01,23.93c6.619,8.718,16.187,17.677,24.176,25.286,1.189-18.3,2.373-31.031,3.074-45.136.29-5.78.74-11.87,1.12-17.4a21.227,21.227,0,0,0,6.18.89,27,27,0,0,0,5.41-.51c.23,4.84.48,9.82.71,14.33.858,16.619,1.574,28.253,2.641,45.288l1.429-1.418c5.49-5.32,17.92-14.23,28.22-23.48,6.68-6,13.84-13.2,19.97-19.42a98.588,98.588,0,0,0,13.54,1.27,271.965,271.965,0,0,1-23.73,26.82,309.4,309.4,0,0,0-27.45,31.43,29.05,29.05,0,0,0-5.86,17.27C81.328,246.839,82.016,307.366,83.7,336.505Z"/><path class="b" d="M70.629,124.086q1.15,24.15,2.645,48.281.448,7.256.905,14.509c.161,2.557,4.162,2.575,4,0-.993-15.842-1.969-31.685-2.792-47.537q-.4-7.626-.758-15.253c-.122-2.563-4.122-2.577-4,0Z"/><path class="b" d="M58.849,186.106c1.029-15.711,2.307-31.4,3.183-47.121.284-5.1.657-10.187,1.007-15.279.177-2.569-3.823-2.558-4,0-1.09,15.836-1.987,31.68-3.15,47.512q-.546,7.443-1.04,14.888c-.168,2.57,3.833,2.56,4,0Z"/><path class="b" d="M15.933,138.036a142.6,142.6,0,0,0,11.336,18.969A161.026,161.026,0,0,0,44.6,177.211c3.555,3.541,7.2,6.99,10.833,10.449,1.864,1.775,4.7-1.049,2.829-2.828C51.9,178.77,45.473,172.741,39.6,166.185a131.532,131.532,0,0,1-14.32-19.366c-2.133-3.509-4.047-7.14-5.9-10.8-1.162-2.3-4.614-.275-3.453,2.019Z"/><path class="b" d="M78.824,183.7c5.236-5.042,11.2-9.351,16.856-13.907,7.083-5.709,13.868-11.706,20.385-18.056,3.7-3.6,7.327-7.263,10.949-10.937,1.808-1.835-1.018-4.665-2.829-2.828-6.413,6.506-12.854,13-19.641,19.124-6.483,5.846-13.385,11.2-20.188,16.66-2.85,2.289-5.725,4.578-8.361,7.116-1.857,1.789.973,4.615,2.829,2.828Z"/><path class="b" d="M5.761,138.378c1.44,4.58,3.4,9.054,5.272,13.472,2.157,5.1,4.483,10.126,7.092,15.009,1.322,2.474,2.717,4.91,4.206,7.288a71.988,71.988,0,0,0,5.366,7.046c3.708,4.548,7.658,8.892,11.675,13.168,1.914,2.038,3.844,4.06,5.769,6.087a13.054,13.054,0,0,1,3.634,6.324,41.415,41.415,0,0,1,.522,7.473c.21,5.729.357,11.461.482,17.192q.507,23.238.508,46.485c.005,15.381-.1,30.773-.715,46.144-.222,5.593-.5,11.192-1.04,16.765-.446,4.58-.649,9.315-1.788,13.783A33.328,33.328,0,0,1,40.278,366.8a76.823,76.823,0,0,1-5.843,6.483,2.022,2.022,0,0,0,1.414,3.414c7.037,0,14.074-.067,21.11-.111q14.622-.091,29.244-.178c3.659-.019,7.318-.04,10.976-.041a2.022,2.022,0,0,0,1.415-3.414,43.578,43.578,0,0,1-8.069-10.637,37.511,37.511,0,0,1-3.908-13.33c-.624-6.143-.939-12.333-1.23-18.5-.7-14.848-1.034-29.715-1.278-44.576q-.4-24.261-.3-48.528c.036-6.66.105-13.32.261-19.978a30.406,30.406,0,0,1,2.776-12.945c2.07-4.2,5.366-7.808,8.292-11.43a286.954,286.954,0,0,1,21.337-23.795,275.253,275.253,0,0,0,20.56-22.716q1.782-2.205,3.519-4.448a2.066,2.066,0,0,0,0-2.828,2.014,2.014,0,0,0-2.829,0,274.159,274.159,0,0,1-18.619,21.635c-4.009,4.189-8.2,8.191-12.167,12.425q-5.52,5.9-10.69,12.106-4.724,5.645-9.225,11.468a31.32,31.32,0,0,0-6.246,13.216,64.262,64.262,0,0,0-.793,11.438q-.093,5.139-.136,10.276c-.145,16.137-.052,32.276.174,48.411.217,15.508.54,31.019,1.2,46.515.234,5.514.5,11.029.936,16.531.417,5.3.818,10.475,2.564,15.535a40.31,40.31,0,0,0,6.275,11.6,58.683,58.683,0,0,0,4.771,5.38l1.414-3.414c-7.7,0-15.39.064-23.085.111q-14.346.089-28.694.178c-3.183.018-6.367.041-9.551.041l1.415,3.414a60.377,60.377,0,0,0,10.379-13.142A37.413,37.413,0,0,0,51.768,348.3c.635-6.173,1.224-12.329,1.545-18.527.773-14.94.915-29.916.964-44.873q.078-24.024-.388-48.045-.178-9.449-.465-18.895c-.2-6.411.345-13.574-4.026-18.8-1.758-2.1-3.784-4.016-5.666-6.006q-3.019-3.192-5.983-6.436a156.38,156.38,0,0,1-11.337-13.657c-3.276-4.56-5.794-9.854-8.2-14.91-2.244-4.72-4.28-9.534-6.192-14.4-.837-2.129-1.716-4.259-2.4-6.443-.77-2.447-4.632-1.4-3.857,1.064Z"/><path class="b" d="M1.458,139.305a52.909,52.909,0,0,0,42.754-13.343,50,50,0,0,0,7.954-9.336l-3.141.4a31.342,31.342,0,0,0,6.772,6.439,21.142,21.142,0,0,0,10.951,3.121c7.483.177,15.724-2.595,20.158-8.924H83.453c7.285,12.191,21.024,18.841,34.359,22.157,15.059,3.744,31.653,4.225,46.6-.31,11.423-3.467,22.1-9.975,29.6-19.36a53.974,53.974,0,0,0,11.624-34.246c-.082-11.332-2.369-23.959-12.134-31.036a23.636,23.636,0,0,0-4.18-2.392v3.454a37.011,37.011,0,0,0,15.148-18.572c2.824-7.632,3.044-16.679,1.324-24.587A29.37,29.37,0,0,0,200.154.582a2.013,2.013,0,0,0-2.829,0,2.049,2.049,0,0,0,0,2.828c4.494,5.629,5.634,13.4,5.459,20.4-.186,7.46-2.111,14.474-6.581,20.529a32.163,32.163,0,0,1-8.9,8.145c-1.162.722-1.437,2.806,0,3.454a21.818,21.818,0,0,1,11.215,11.609,43.9,43.9,0,0,1,3.031,15.188c.537,11.418-2,22.611-8.528,32.1-6.239,9.067-15.618,15.745-25.879,19.547-13.624,5.048-28.8,5.374-42.98,2.732-12.777-2.381-26.3-7.411-34.726-17.793a31.374,31.374,0,0,1-2.527-3.672,2.025,2.025,0,0,0-3.453,0c-3.681,5.254-11.089,7.189-17.168,6.928a16.92,16.92,0,0,1-9.064-2.959,29.742,29.742,0,0,1-5.367-5.414,2.02,2.02,0,0,0-3.141.405,48.733,48.733,0,0,1-32.291,20.616,45.194,45.194,0,0,1-13.9.225,2.067,2.067,0,0,0-2.46,1.4,2.015,2.015,0,0,0,1.4,2.461Z"/><path class="b" d="M172.221,331.329q0,18.97-.018,37.94c0,1.232-.064,2.483,0,3.713a3.112,3.112,0,0,0,1.536,2.7,6.008,6.008,0,0,0,3.07.38c1.907-.016,3.825.031,5.731-.031a3.228,3.228,0,0,0,2.819-1.392,4.482,4.482,0,0,0,.465-2.514q0-9.622,0-19.246,0-9.873,0-19.746c0-2.573-4-2.578-4,0q0,17.363.008,34.725,0,1.861,0,3.724v.753a1.367,1.367,0,0,0,0,.409c.147.407.938-.477.565-.714-.216-.137-.884,0-1.141,0l-1.457.007c-.935.006-1.869.015-2.8.022a4.929,4.929,0,0,0-1.184.01h-.154q-.741-.053.554.807c.052-.06-.015-.333,0-.416a22.76,22.76,0,0,0,0-3.72q0-9.638.01-19.274.006-9.071.008-18.142c0-2.573-4-2.578-4,0Z"/><path class="b" d="M234.7,333.137q0,16.6.009,33.193,0,3.86,0,7.717l2-2c-3.205-.068-6.414.032-9.62.035l2,2q0-16.566.018-33.133,0-3.96,0-7.919c0-2.574-4-2.578-4,0q0,16.784-.017,33.565,0,3.744,0,7.487a2.028,2.028,0,0,0,2,2c3.206,0,6.415-.1,9.62-.035a2.026,2.026,0,0,0,2-2q0-16.91-.009-33.819,0-3.546,0-7.091c0-2.574-4-2.578-4,0Z"/><path class="a" d="M224.818,201.687c-3.575-1.479-9.5-4.984-12.557-4.208l-.6.151a13.67,13.67,0,0,0-.624-9.294,19.567,19.567,0,0,0,14.937-6.281,11.443,11.443,0,0,1-2.352-9.315,4.356,4.356,0,0,1,2.863-3.415,4.1,4.1,0,0,1,3.158.422A4.251,4.251,0,0,1,231,170.959a37.063,37.063,0,0,0,15.9-5.275c5.148,4.3,9.886.559,13.6-1.955a34.055,34.055,0,0,1-1.695,8.54c-.951,3.772-2.281,9,.615,11.827a3.614,3.614,0,0,1,1.134,2.044c.29,2.1-1.548,2.476-2.848,3.267a5.925,5.925,0,0,0-1.989,2.059c-.682,1.992-2.553,6.373-4.532,8.44a7.434,7.434,0,0,1-4.961,2.511,17.913,17.913,0,0,1-9.423-1.887,1.288,1.288,0,0,0-1.676.316c-.317.405-.78.95-1.1,1.432,0,0-.781,1.161-1.845,2.762a48.668,48.668,0,0,0-6.925-3.18C225.109,201.806,224.966,201.748,224.818,201.687Z"/><path class="c" d="M340.072,37.116a17.755,17.755,0,0,0-18.107,17.995c0,11.233,7,18.334,18.108,18.334,11.362,0,18.108-7.1,18.108-18.334A17.74,17.74,0,0,0,340.072,37.116Z"/><path class="b" d="M340.072,35.116a20.009,20.009,0,0,0-19.31,14.3c-2.256,7.818.057,17.21,6.673,22.205,6.4,4.831,16.447,5.1,23.392,1.3,7.152-3.915,10.154-12.486,9.19-20.291a19.935,19.935,0,0,0-6.272-12.355,20.479,20.479,0,0,0-13.673-5.153c-2.574-.023-2.576,3.977,0,4a15.918,15.918,0,0,1,15.5,11.491c1.675,5.994.207,13.639-4.859,17.627-5.042,3.97-13.351,4.3-18.956,1.386-5.987-3.117-8.422-10.026-7.682-16.494a15.963,15.963,0,0,1,16-14.01C342.645,39.093,342.651,35.093,340.072,35.116Z"/><path class="b" d="M338.127,5.338V19.906a2,2,0,1,0,4,0V5.338a2,2,0,0,0-4,0Z"/><path class="b" d="M342.127,105.264V90.7a2,2,0,1,0-4,0v14.568a2,2,0,1,0,4,0Z"/><path class="b" d="M303.383,21.386l10.3,10.3a2,2,0,1,0,2.828-2.828l-10.3-10.3a2,2,0,0,0-2.829,2.828Z"/><path class="b" d="M376.87,89.216l-10.3-10.3a2,2,0,1,0-2.828,2.828l10.3,10.3a2,2,0,1,0,2.828-2.828Z"/><path class="b" d="M374.042,18.558l-10.3,10.3a2,2,0,1,0,2.828,2.828l10.3-10.3a2,2,0,1,0-2.828-2.828Z"/><path class="b" d="M306.212,92.044l10.3-10.3a2,2,0,0,0-2.828-2.828l-10.3,10.3a2,2,0,0,0,2.829,2.828Z"/><path class="b" d="M290.164,57.3h14.568a2,2,0,0,0,0-4H290.164a2,2,0,0,0,0,4Z"/><path class="b" d="M390.09,53.3H375.522a2,2,0,0,0,0,4H390.09a2,2,0,0,0,0-4Z"/><path class="a" d="M250.592,253.927c5.332.131,7.787-1.926,10.666-6.131,2.114-3.087,10.281-18.11,12.575-23.137.294-.646-.446-1.672-1.069-2.013-2.908-1.593-9.987-4.719-12.574-5.712a1.188,1.188,0,0,0-1.4.437,52.634,52.634,0,0,0-3.067,5.317c-1.331,2.583-4.191,9.418-6.791,9.962-2.626.549-5.414-3.938-7.574-6.545l-6.32-5.432,2.519,33.482Z"/><path class="a" d="M232.179,212.6c1.131-3.622,1.255-5.728.861-6.881-.746-.892-4.566-2.61-7.791-3.854-3.51-1.354-9.8-5.189-12.988-4.381l-1.422.361-2.879,3.183c-17.436,19.284-19.846,35.4-19.962,56.53-.057,10.356.059,13.791-.084,21.951a10.9,10.9,0,0,0,1.789,5.466c3.22,4.635,7.435,3.506,12.966,2.82,8.412-1.043,14.514-2.154,25.818-3.955l3.964-6.034c2.562,1.294,4.817,2.167,5.827,2.11,3.363-3.516,7.77-7.971,10.437-10.888-2.025-2.33-6.094-6.546-9.677-10.39l1.924-4.33c-.94-6.275-2.9-24.375-3.836-30.65a15.236,15.236,0,0,0-4.435-9.817"/><path class="d" d="M254.108,304.124c1.352-3.167,2.378-5.611,3.447-7.747,0,0,5.074-5.852,2.666-11.852-6.37.334-12.9,1.323-16.307-1.554l-3.841-4.89-6.555.222-5.031,5.532c-11.3,1.8-17.406,2.912-25.818,3.955-4.189.52-7.623,1.293-10.442-.376l-.278,1.111c-1.605,6.414-.162,17.63,8.124,22,11.366,6,30,9.111,45.317,7.947a4.242,4.242,0,0,0,2.081-.808,5.515,5.515,0,0,0,1.644-2.319C251.272,310.731,252.834,307.107,254.108,304.124Z"/><path class="e" d="M206.258,159.958a32.232,32.232,0,0,0-.978,4.36c-1.056,4.335-.679,10.411,1.117,14.161,1.634,3.411,2.629,4.933,3.842,7.943.279.614.553,1.252.805,1.913a19.563,19.563,0,0,0,14.934-6.28,11.443,11.443,0,0,1-2.352-9.315,4.356,4.356,0,0,1,2.863-3.415,4.1,4.1,0,0,1,3.158.422A4.324,4.324,0,0,1,231,170.956a37.044,37.044,0,0,0,15.895-5.272c5.537,4.626,10.6-.053,14.424-2.492.588-5.809-3.057-12.26-7.159-15.678-9.14-7.616-27.7-10.839-34.605-3.189C212.873,146.758,208.356,152.942,206.258,159.958Z"/><path class="b" d="M267.243,291.153l31.379,63.676,8.839,17.938c1.137,2.309,4.589.284,3.454-2.019l-31.379-63.677L270.7,289.134c-1.138-2.309-4.589-.284-3.454,2.019Z"/><path class="b" d="M206.546,199.609c-6.58,7.308-12.185,15.437-15.69,24.669-3.063,8.066-4.267,16.672-4.667,25.253-.4,8.626-.14,17.274-.22,25.907-.042,4.589-.164,9.859,4.251,12.615,3.962,2.472,9.35,1.957,13.779,1.645a145.452,145.452,0,0,0,15.633-1.792c3-.541,5.973-1.213,8.911-2.014a13.2,13.2,0,0,0,6.67-4.616c1.67-1.943-1.147-4.785-2.828-2.828-1.436,1.67-2.741,2.992-4.906,3.587-2.537.7-5.109,1.286-7.692,1.786a115.491,115.491,0,0,1-12.8,1.655c-4.272.339-9.031,1.1-13.205-.184-4.3-1.324-3.851-6.035-3.816-9.692.152-15.855-1.219-32.328,3.812-47.627,3.161-9.61,8.867-18.063,15.6-25.535,1.718-1.909-1.1-4.747-2.829-2.829Z"/><path class="a" d="M259.764,359.387A19.059,19.059,0,0,1,249.74,357.3a130.637,130.637,0,0,0,3.4-25.332c.262-4.927-.19-10.246-.034-14.557l-3.7-2.7c4.291-9.185,8.258-17.819,10.3-21.927,4.877-1.6,10.1,2.04,12.122,6.68,1.964,4.5,1.641,9.636,1.106,14.518-1.31,11.949-3.481,26.563-6.87,38.1l-1.951,6.64A19.328,19.328,0,0,1,259.764,359.387Z"/><path class="b" d="M218.22,218.951c4.274,1.8,6.037,7.34,7,11.452,1.124,4.789,1.5,9.656,2.885,14.4.957,3.287,1.952,6.508,4.118,9.195,2.192,2.72,4.635,5.248,7.027,7.791,2.7,2.868,5.46,5.684,8.049,8.652v-2.829c-3.4,3.7-6.961,7.258-10.437,10.889l1.414-.586c-.521.01.21.1-.3-.02-.306-.071-.606-.154-.9-.25a18.749,18.749,0,0,1-2.086-.83,55.682,55.682,0,0,1-5.727-3.077,50.6,50.6,0,0,1-8.011-6.192c-1.367-1.26-2.722-2.541-4-3.893a23.676,23.676,0,0,1-2.958-4.056,102.91,102.91,0,0,1-6.143-11.021c-2.277-4.747-4.294-9.617-6.412-14.436a2.014,2.014,0,0,0-2.737-.717,2.049,2.049,0,0,0-.717,2.736c2.341,5.327,4.552,10.724,7.145,15.937q1.763,3.543,3.8,6.938a47.594,47.594,0,0,0,4.393,6.573,63.351,63.351,0,0,0,9.047,8.46A45.078,45.078,0,0,0,236.01,281.5c.982.315,2.317.7,3.277.14a10.527,10.527,0,0,0,1.923-1.892q.945-.978,1.893-1.955c2.36-2.434,4.734-4.856,7.026-7.354a2.055,2.055,0,0,0,0-2.829c-4.752-5.448-10.059-10.4-14.685-15.965-.212-.256-.424-.513-.629-.775.238.305-.172-.234-.235-.323a7.659,7.659,0,0,1-.737-1.322,46.168,46.168,0,0,1-2.031-6.014c-1.4-4.93-1.684-10.052-3.012-14.988-1.468-5.454-4.066-10.837-9.516-13.127a2.012,2.012,0,0,0-2.461,1.4,2.052,2.052,0,0,0,1.4,2.46Z"/><path class="b" d="M231.277,215.25a15.8,15.8,0,0,1,3.023,4.689,25.762,25.762,0,0,1,.977,4.785c.278,1.93.54,4.071.8,6.222.674,5.5,1.3,11.008,1.981,16.509.3,2.462.606,4.926.971,7.38a2.015,2.015,0,0,0,2.461,1.4,2.053,2.053,0,0,0,1.4-2.461c-1.437-9.657-2.318-20.075-3.744-30.015a24.088,24.088,0,0,0-1.218-5.489,22.1,22.1,0,0,0-3.823-5.845c-1.64-1.987-4.456.856-2.829,2.828Z"/><path class="b" d="M258.05,291.653c-2.9,5.812-5.564,11.742-8.3,17.628-.859,1.845-1.675,3.719-2.59,5.537-.81,1.61-1.861,1.678-3.532,1.768a94.465,94.465,0,0,1-10.8-.057,96.431,96.431,0,0,1-21.023-3.555,60.364,60.364,0,0,1-8.774-3.212,15.046,15.046,0,0,1-6.4-4.88,20.321,20.321,0,0,1-2.752-15.825c.606-2.5-3.25-3.568-3.858-1.063a25.071,25.071,0,0,0,1.894,16.769,17.479,17.479,0,0,0,6.012,6.82,41.884,41.884,0,0,0,9.187,4.1,95.264,95.264,0,0,0,22.385,4.592,99.24,99.24,0,0,0,11.732.408c1.847-.048,4.041.1,5.791-.548a6.833,6.833,0,0,0,3.821-3.779c3.592-7.542,6.934-15.207,10.662-22.683,1.145-2.3-2.3-4.325-3.454-2.019Z"/><path class="b" d="M260.685,294.586c3.366-.807,6.7,1.394,8.479,4.14,2.387,3.678,2.368,8.362,2.038,12.577a236.229,236.229,0,0,1-3.667,25.9c-.927,4.827-2.013,9.627-3.39,14.347-.723,2.476,3.136,3.533,3.857,1.063a197.069,197.069,0,0,0,5.676-28.4c.649-4.723,1.362-9.491,1.614-14.256s-.244-10.036-3.2-13.993c-2.9-3.881-7.582-6.4-12.473-5.23-2.5.6-1.443,4.457,1.063,3.857Z"/><path class="a" d="M257.148,374.876c-2.153-.127-4.312-.389-6.429-.691a8.121,8.121,0,0,1-4.48-1.848,7.311,7.311,0,0,1-2.018-5.008,28.05,28.05,0,0,1,1.057-8.381,12.355,12.355,0,0,1,1.409-3.461l3.053,1.816c5.119,3.044,15.438,2.919,19.08-1.245,3.923,1.3,6.28,3.9,9.586,5.716,2.334,1.28,4.834,1.526,5.667,3.444,1.038,2.39,1.074,3.389.519,5.037a7.3,7.3,0,0,1-2.63,3.085,10.511,10.511,0,0,1-3.667,1.222c-6.288.305-12.007.372-18.3.4C259.053,374.963,258.1,374.933,257.148,374.876Z"/><path class="b" d="M251.11,317.414c-.106,3.336.081,6.673.113,10.009.032,3.373-.174,6.74-.429,10.1a128.079,128.079,0,0,1-2.983,19.246c-.58,2.5,3.276,3.574,3.857,1.064a134.86,134.86,0,0,0,3.094-19.9c.263-3.344.483-6.7.464-10.054-.019-3.489-.227-6.978-.116-10.467.082-2.575-3.918-2.572-4,0Z"/><path class="b" d="M248.73,359.03a19.679,19.679,0,0,0,8.922,2.351,20.744,20.744,0,0,0,9.339-1.6,2.013,2.013,0,0,0,.717-2.736,2.05,2.05,0,0,0-2.736-.717c.192-.084-.05.02-.112.043q-.254.1-.511.185-.421.144-.85.261a17.431,17.431,0,0,1-1.92.409c-.41.064-1.14.128-1.734.156q-1.1.051-2.193,0a17.349,17.349,0,0,1-3.709-.549,10.99,10.99,0,0,1-3.194-1.256c-2.23-1.3-4.246,2.159-2.019,3.454Z"/><path class="b" d="M162.48,238.993c6.8-.514,13.575-1.237,20.371-1.751a2.049,2.049,0,0,0,2-2,2.016,2.016,0,0,0-2-2c-6.8.514-13.575,1.237-20.371,1.751a2.05,2.05,0,0,0-2,2,2.016,2.016,0,0,0,2,2Z"/><path class="b" d="M160.443,237.118q1.2,24.733,2.884,49.442.464,6.795.968,13.586c.293,3.941.98,7.751,3.027,11.2,1.727,2.909,4.455,5.192,7.126,7.208a21.571,21.571,0,0,0,8.057,3.9c3.8.884,7.773.631,11.647.658,4.789.033,9.577.08,14.366.082,2.573,0,2.578-4,0-4-4.066,0-8.131-.035-12.2-.066-3.452-.026-6.978.165-10.418-.15a17.174,17.174,0,0,1-7.614-2.612,28.275,28.275,0,0,1-3.7-2.845,20.7,20.7,0,0,1-3.165-3.195,18.657,18.657,0,0,1-3.089-9.681q-.489-6.549-.938-13.1-.86-12.534-1.593-25.078-.741-12.669-1.358-25.345c-.124-2.563-4.124-2.578-4,0Z"/><path class="b" d="M149.629,239.933c.65,13.165,1.144,26.337,1.963,39.493.422,6.766.916,13.529,1.6,20.273a53.329,53.329,0,0,0,1.58,10.07,32.461,32.461,0,0,0,4.365,8.976,32.822,32.822,0,0,0,13.039,11.54c4.874,2.223,9.912,2.68,15.194,2.686q13.4.015,26.789.056,12.526.03,25.052.053h1.526c2.574,0,2.578-4,0-4-16.682,0-33.364-.077-50.046-.105-3.878-.006-7.859.234-11.668-.591a25.81,25.81,0,0,1-13.856-8.377,33.4,33.4,0,0,1-5.115-7.627,29.1,29.1,0,0,1-2.523-9.54c-.721-6.4-1.234-12.829-1.67-19.257-.985-14.538-1.514-29.1-2.233-43.651-.127-2.562-4.128-2.578-4,0Z"/><path class="b" d="M175.605,306.1c3.644-1.141,7.2-2.535,10.778-3.868a2.045,2.045,0,0,0,1.4-2.461,2.024,2.024,0,0,0-2.46-1.4c-3.576,1.334-7.134,2.728-10.778,3.869a2,2,0,0,0,1.064,3.857Z"/><path class="b" d="M270.453,358.945c2.288,1.291,4.281,3.026,6.554,4.336a26.54,26.54,0,0,0,3.247,1.481,3.578,3.578,0,0,1,2.092,1.466,3.7,3.7,0,0,1-.554,4.644,4.808,4.808,0,0,1-1.845,1.221,7.992,7.992,0,0,1-2.885.526c-5.683.251-11.375.345-17.063.34a60.22,60.22,0,0,1-8.289-.638c-2.119-.3-4.254-.781-5.086-2.99-.961-2.551-.356-5.78.217-8.355.461-2.071.96-4.717,3.05-5.742,2.311-1.133.287-4.584-2.019-3.453-2.473,1.212-3.715,3.791-4.436,6.321a27.207,27.207,0,0,0-1.187,9.622c.267,2.988,1.578,5.887,4.37,7.293,2.759,1.389,6.166,1.513,9.194,1.764,3.484.288,6.994.174,10.486.13,3.425-.044,6.85-.126,10.273-.271,2.518-.106,5.032-.466,7.07-2.081a7.743,7.743,0,0,0,3.253-6.832,8.838,8.838,0,0,0-1.724-4.476,8.706,8.706,0,0,0-3.678-2.276c-3.324-1.352-5.924-3.737-9.022-5.484-2.245-1.266-4.263,2.188-2.018,3.454Z"/><path class="b" d="M248.843,272.142c1.908-.019,3.816-.048,5.724-.056.393,0,.786,0,1.18.017.322.014.74.044.87.064a6.083,6.083,0,0,1,1.226.308c-.167-.063.131.059.15.069.061.031.582.285.59.358,0-.028-.405-.375-.124-.077.072.077.153.148.226.224.176.181.341.373.5.566.092.109.181.22.27.33s.244.315.076.094c.191.25.377.5.561.758a31.491,31.491,0,0,1,1.807,2.738c1.278,2.233,4.736.221,3.454-2.019a31.981,31.981,0,0,0-1.975-2.968,13.093,13.093,0,0,0-2.779-3.1,9.581,9.581,0,0,0-5.447-1.36c-2.1-.028-4.209.033-6.312.054-2.572.025-2.579,4.025,0,4Z"/><path class="b" d="M239.548,281.939a21.875,21.875,0,0,0,3.7,3.317,12.528,12.528,0,0,0,5.242,1.581,42.817,42.817,0,0,0,11-.383,2.013,2.013,0,0,0,1.4-2.46,2.055,2.055,0,0,0-2.461-1.4,40.355,40.355,0,0,1-9.383.3,8.806,8.806,0,0,1-3.674-1.034,17.529,17.529,0,0,1-3-2.756c-1.817-1.829-4.645,1-2.828,2.828Z"/><path class="b" d="M233.415,171.369a6.049,6.049,0,0,0-11.718.84,13.638,13.638,0,0,0,4.639,13.083,2.056,2.056,0,0,0,2.829,0,2.016,2.016,0,0,0,0-2.828,9.957,9.957,0,0,1-3.747-8.222c0-.06.058-.645.018-.33.027-.215.07-.43.118-.64.039-.17.083-.338.136-.5.03-.1.064-.2.1-.294-.056.128-.055.13,0,.006a2.459,2.459,0,0,1,.423-.68c.027-.026.443-.415.19-.216a2.634,2.634,0,0,1,.515-.309c-.291.134.25-.065.318-.079-.193.039.382-.016.4-.016a3.143,3.143,0,0,1,.8.181,3.486,3.486,0,0,1,.566.354c-.238-.181.2.2.215.213l.133.144c-.089-.123-.094-.126-.016-.011.041.065.3.568.22.372a2.061,2.061,0,0,0,2.461,1.4,2.012,2.012,0,0,0,1.4-2.46Z"/><path class="b" d="M258.443,164.654c-.387,4.074-2.02,7.874-2.579,11.918a12.888,12.888,0,0,0,.27,5.859,8.06,8.06,0,0,0,1.426,2.587c.261.316,1.22,1.056,1.038,1.572-.127.361-1.112.657-1.427.824a7.741,7.741,0,0,0-2.358,1.9c-1.116,1.358-1.538,3.1-2.284,4.673a16.433,16.433,0,0,1-2.928,4.672,6.28,6.28,0,0,1-5.066,1.791,15.026,15.026,0,0,1-6.308-1.415,3.707,3.707,0,0,0-3.386-.4,7.041,7.041,0,0,0-2.549,2.634c-1.49,2.1,1.977,4.1,3.454,2.019a8.423,8.423,0,0,0,.791-1.028l-.747,0,.274.158a3.133,3.133,0,0,0,.59.3,16.865,16.865,0,0,0,3.069,1.087,20.346,20.346,0,0,0,6.5.619c4.547-.385,7.412-3.749,9.357-7.584.455-.9.863-1.814,1.251-2.74a11.37,11.37,0,0,1,.864-2.006c.94-1.37,2.819-1.607,3.9-2.861a4.652,4.652,0,0,0-.238-5.942,7.046,7.046,0,0,1-1.365-1.916,7.188,7.188,0,0,1-.324-2.83,24.982,24.982,0,0,1,1.179-6.089,39.938,39.938,0,0,0,1.6-7.8,2.014,2.014,0,0,0-2-2,2.043,2.043,0,0,0-2,2Z"/><path class="b" d="M223.94,181.29c-.367.359-.744.707-1.137,1.038-.1.082-.2.163-.3.244-.473.389.155-.11-.126.1q-.307.231-.624.45a19.851,19.851,0,0,1-2.745,1.591c-.232.11-.465.217-.7.318.2-.084.065-.028-.055.018s-.239.094-.36.139c-.48.179-.968.341-1.461.482-.524.151-1.055.279-1.589.385q-.378.075-.758.135c-.036.006-.418.058-.211.032.231-.028-.321.033-.307.032a2.046,2.046,0,0,0-2,2,2.021,2.021,0,0,0,2,2,22.053,22.053,0,0,0,13.2-6.138,2,2,0,0,0-2.828-2.828Z"/><path class="b" d="M249.616,161.324a34.5,34.5,0,0,1-18.251,7.6,2.057,2.057,0,0,0-2,2,2.014,2.014,0,0,0,2,2,39.217,39.217,0,0,0,21.079-8.773,2.013,2.013,0,0,0,0-2.828,2.044,2.044,0,0,0-2.828,0Z"/><path class="b" d="M262.76,166.066c2.7-8.784-3.438-18.047-10.7-22.491-6.7-4.1-15.352-6.376-23.2-5.441-3.961.472-7.938,1.777-10.717,4.777l.883-.514c-7.586,2.846-12.555,9.657-14.766,17.266a34.386,34.386,0,0,0-1.49,11.955,23.694,23.694,0,0,0,1.134,6.007,45.158,45.158,0,0,0,2.685,5.675c2.164,4.211,4.583,8.974,3.152,13.786-.736,2.473,3.124,3.529,3.857,1.063,1.424-4.787-.064-9.1-1.944-13.49-1.508-3.523-3.781-6.731-4.546-10.532a27.366,27.366,0,0,1,.507-11.443,27.038,27.038,0,0,1,4.629-10.39,19.156,19.156,0,0,1,3.634-3.7A17.483,17.483,0,0,1,218,147.222a23.752,23.752,0,0,0,2.767-1.326,20.36,20.36,0,0,1,3.221-2.383,15.106,15.106,0,0,1,3.923-1.224c6.473-1.22,13.772.464,19.593,3.345a21.808,21.808,0,0,1,8.713,7.144c2.382,3.532,3.986,8,2.684,12.224-.759,2.466,3.1,3.52,3.857,1.064Z"/><path class="b" d="M258.621,162.6a27.8,27.8,0,0,1-3.933,2.37c-.09.042-.18.083-.271.122.251-.1.273-.113.068-.03-.185.069-.367.141-.554.2a9.589,9.589,0,0,1-.985.276,2.627,2.627,0,0,1-.573.1c.577.013-.066-.007-.193,0q-.294.015-.588,0c-.113,0-.781-.073-.21,0a2.216,2.216,0,0,0-1.541.2,2,2,0,0,0,.477,3.656,10.527,10.527,0,0,0,3.262-.03,11.69,11.69,0,0,0,2.72-.876,26.287,26.287,0,0,0,4.34-2.551,2,2,0,1,0-2.019-3.454Z"/><path class="b" d="M250.887,179.241c.062-.01.125-.018.187-.027l-.532.072a10.572,10.572,0,0,1,1.733-.085,2.056,2.056,0,0,0,2-2l-.071-.532a2.009,2.009,0,0,0-.514-.883l-.405-.312a1.991,1.991,0,0,0-1.01-.273,13.519,13.519,0,0,0-2.451.183,1.491,1.491,0,0,0-.68.358,1.514,1.514,0,0,0-.516.561,1.486,1.486,0,0,0-.237.743,1.526,1.526,0,0,0,.036.8l.2.478a2.014,2.014,0,0,0,.718.717l.478.2a2.018,2.018,0,0,0,1.063,0Z"/><path class="b" d="M212.793,199.407c.556-.124-.218,0,.126-.028.17-.011.34-.013.511-.007a2.919,2.919,0,0,1,.818.107,17.119,17.119,0,0,1,2.523.771c1.761.665,3.445,1.52,5.148,2.318,1.755.822,3.571,1.486,5.347,2.259.963.419,1.921.856,2.851,1.346.363.191.724.389,1.071.609a4.283,4.283,0,0,1,.408.275c-.225-.183-.094-.064.03.071l-.515-.883c.05.159.086.318.122.48.017.076.007-.3,0,.132a12.578,12.578,0,0,1-.054,1.372,23.909,23.909,0,0,1-.931,3.834c-.757,2.467,3.1,3.521,3.857,1.064.73-2.378,1.694-5.458.861-7.945-.42-1.255-1.855-1.955-2.954-2.527-1.556-.809-3.18-1.494-4.8-2.156-2.451-1-4.872-2.208-7.435-3.31-2.488-1.068-5.289-2.254-8.046-1.639-2.512.56-1.449,4.417,1.063,3.857Z"/><path class="b" d="M262.563,280.567a5.952,5.952,0,0,0-4.214,5.444,6.012,6.012,0,0,0,4.03,6.223,10.858,10.858,0,0,0,4.292.048,8.088,8.088,0,0,0,3.569-1.373,5.385,5.385,0,0,0,2.552-3.71,6.585,6.585,0,0,0-.845-4.11c-1.882-3.291-6.108-3.667-9.384-2.522a2,2,0,1,0,1.063,3.857,9.348,9.348,0,0,1,1.742-.442c-.41.059-.011.011.093,0,.149-.01.3-.017.448-.019a3.42,3.42,0,0,1,.981.051c-.045-.014-.462-.092-.1,0,.115.028.232.049.347.079s.222.069.335.1c.375.1-.082-.05-.092-.049.17-.013.456.248.6.334.386.229-.271-.3.036.035.1.106.2.21.3.312.326.329-.129-.272-.03-.042a2.656,2.656,0,0,0,.172.269c.044.074.086.15.126.227l.058.117q.135.294-.043-.115c.071.011.182.564.2.635.021.086.037.173.056.26.09.421-.007-.406-.005-.01a2.519,2.519,0,0,0-.009.642l.037-.283c-.014.082-.032.162-.052.242-.009.035-.078.224-.072.234-.095-.151.239-.39.028-.092s-.01-.048.076-.056a2.06,2.06,0,0,0-.165.179c-.147.149-.309.281-.466.419-.114.1-.154.231.052-.038a1.261,1.261,0,0,1-.3.2,6.225,6.225,0,0,1-.542.316,1.285,1.285,0,0,1-.369.175c.269-.015.3-.112.1-.052-.257.079-.507.165-.769.226a2.02,2.02,0,0,1-.663.124c.117.051.4-.04.121-.023-.14.009-.279.024-.419.033-.49.028-.982.026-1.473.009-.155,0-.312-.02-.467-.02-.267,0,.044-.1.171.027a1.519,1.519,0,0,0-.35-.092c-.266-.068.1-.074.14.064a1.335,1.335,0,0,0-.27-.147c-.353-.174.091-.054.047.06.028-.072-.571-.421-.546-.547,0-.02.274.429.077.083-.056-.1-.119-.191-.174-.29a1.008,1.008,0,0,1-.153-.308c.012.276.1.277.048.087-.043-.165-.232-.528-.175-.7l.033.239c-.011-.1-.017-.2-.021-.3,0-.08,0-.16,0-.24,0-.112.012-.224.018-.337.021-.418-.112.548-.014.11.036-.163.068-.324.117-.483.021-.072.048-.142.071-.214.132-.414-.212.4-.036.085.089-.16.2-.32.282-.484.106-.223-.345.384-.083.1.078-.083.151-.169.233-.25s.157-.127.221-.2q.171-.142-.159.122c.071-.051.143-.1.217-.144s.155-.094.235-.136.168-.088.253-.127q-.378.153-.06.03a2.045,2.045,0,0,0,1.4-2.46A2.024,2.024,0,0,0,262.563,280.567Z"/><path class="b" d="M239.941,227.519c2,2.439,3.863,5.73,6.968,6.882,3.04,1.128,5.274-1.311,6.794-3.611a74.729,74.729,0,0,0,3.808-7.215c.779-1.514,1.592-3.02,2.511-4.455.183-.285.6-.547-.033-.357-.673.2-.286.031-.159.166s.5.2.689.275q.831.337,1.656.693c2.789,1.2,5.568,2.435,8.28,3.8.335.169.966.686,1.333.705.3.016-.09.645.188-.227.286-.9.045-.282-.01-.22a3.125,3.125,0,0,0-.319.672c-.47.982-.96,1.954-1.454,2.923q-3.838,7.519-8.031,14.858a47.932,47.932,0,0,1-3.565,5.684,10.371,10.371,0,0,1-3.376,3.021,9.783,9.783,0,0,1-4.629.816c-2.575-.038-2.576,3.962,0,4a12.729,12.729,0,0,0,9.148-3.162,25.99,25.99,0,0,0,4.517-6c2.957-4.974,5.7-10.09,8.37-15.221.611-1.175,1.217-2.353,1.807-3.539a15.107,15.107,0,0,0,1.391-3.072c.822-3.542-4.185-5.13-6.588-6.242a69.433,69.433,0,0,0-8.429-3.652c-2.292-.7-3.583.963-4.642,2.709-.866,1.428-1.665,2.9-2.408,4.4-.71,1.428-1.378,2.877-2.133,4.283a14.136,14.136,0,0,1-2.708,3.977.994.994,0,0,1-.474.325c.172-.057-.023-.025-.1-.063a6.319,6.319,0,0,1-1.72-1.27c-1.426-1.447-2.573-3.141-3.856-4.709-1.631-1.993-4.447.851-2.829,2.828Z"/><path class="b" d="M262.912,215.519a16.752,16.752,0,0,0,.112-2.769,2.1,2.1,0,0,0-.586-1.415,2.228,2.228,0,0,0-1.414-.585,2,2,0,0,0-2,2,16.752,16.752,0,0,1-.112,2.769,1.507,1.507,0,0,0,.173.771,1.8,1.8,0,0,0,1.057,1.057,1.51,1.51,0,0,0,.77.172,2.021,2.021,0,0,0,1.415-.586l.312-.405a1.985,1.985,0,0,0,.273-1.009Z"/><path class="b" d="M253.492,196.051c1.759,1.971,3.5,3.977,5.119,6.067l-.313-.405q.165.215.326.433a2.172,2.172,0,0,0,1.195.919,2.043,2.043,0,0,0,1.541-.2,2.022,2.022,0,0,0,.718-2.736c-.9-1.228-1.882-2.4-2.862-3.556-.952-1.128-1.913-2.248-2.895-3.349a2.014,2.014,0,0,0-2.829,0,2.048,2.048,0,0,0,0,2.829Z"/><path class="f" d="M258.206,205.09c3.021,4.158,12.023,16.227,15.128,20.5a2.419,2.419,0,0,0,3.356.418c2.792-2.017,6.853-4.981,9.627-7.016a2.417,2.417,0,0,0,.634-3.321c-2.733-3.762-12.319-17.009-14.965-20.65a1.114,1.114,0,0,0-1.562-.273c-2.969,2.156-9.027,6.617-11.994,8.773A1.115,1.115,0,0,0,258.206,205.09Z"/><path class="b" d="M256.48,206.1c3.667,5.044,7.408,10.035,11.116,15.049q1.29,1.743,2.575,3.489c.8,1.084,1.561,2.5,2.723,3.214,1.873,1.146,3.853.574,5.5-.622s3.3-2.4,4.947-3.6c1.572-1.148,3.605-2.239,4.886-3.71a4.427,4.427,0,0,0,.272-5.5c-1.456-2.1-3.007-4.147-4.508-6.219-3.385-4.673-6.726-9.381-10.158-14.019a3.4,3.4,0,0,0-2.581-1.627,4.053,4.053,0,0,0-2.683,1.076q-2.435,1.774-4.863,3.559-2.491,1.827-4.985,3.651a9.978,9.978,0,0,0-2.084,1.674,3.18,3.18,0,0,0-.162,3.582c1.237,2.258,4.693.242,3.453-2.018.152.276-.612.982-.193.948.131-.011.317-.231.429-.312l.7-.509q.915-.667,1.829-1.338L266.609,200q1.818-1.332,3.637-2.661a8,8,0,0,0,.783-.571c.061-.058.275-.145.305-.222.1-.251-1.009-.378-.993-.4a7.649,7.649,0,0,0,.688.948q4.539,6.256,9.069,12.517,2.08,2.873,4.162,5.744c.323.445,1.241,1.3,1.025,1.862-.179.462-1.166.922-1.562,1.212l-2.231,1.631q-2.184,1.595-4.372,3.182c-.664.481-1.642,1.659-2.329.972a21.785,21.785,0,0,1-1.85-2.522q-1.223-1.657-2.448-3.313c-3.523-4.762-7.076-9.5-10.56-14.3a2.058,2.058,0,0,0-2.736-.718A2.015,2.015,0,0,0,256.48,206.1Z"/><path class="a" d="M273.918,200.206v-.077a4.186,4.186,0,0,1,2.814-3.911c2.213-.632,4.555.514,6.174,2.149,2.627,2.656,5.958,6.8,5.329,10.905-.87,2.547-2.046,3.387-4.851,3.579a4.771,4.771,0,0,1-4.89-3.161c-.3-1.053-.164-2.233-.684-3.2a7.712,7.712,0,0,0-1.778-1.83A6.153,6.153,0,0,1,273.918,200.206Z"/><path class="b" d="M275.918,200.206a2.32,2.32,0,0,1,1.236-2.024,3.84,3.84,0,0,1,3.406.8,15.56,15.56,0,0,1,2.962,3.048,15.051,15.051,0,0,1,2.171,3.466,8.024,8.024,0,0,1,.582,2.006,3.628,3.628,0,0,1-.12,1.66c.121-.258-.053.12-.084.18-.057.113-.114.225-.177.334s-.127.2-.188.306c-.154.259.2-.212.006,0-.09.1-.622.527-.251.284-.125.082-.609.338-.485.287.237-.1-.117.034-.173.049-.12.033-.238.069-.359.1-.16.039-.322.07-.485.1.093-.015.334-.029-.109.014a3.691,3.691,0,0,1-1.719-.1,2.45,2.45,0,0,1-1.774-1.818,22.279,22.279,0,0,0-.454-2.559,5.728,5.728,0,0,0-1.674-2.408c-1.17-1.039-2.281-2.073-2.311-3.72-.047-2.571-4.048-2.579-4,0a8.266,8.266,0,0,0,2.7,5.871c.563.524,1.329.944,1.548,1.706.269.938.193,1.935.547,2.86,1.438,3.762,6,5.055,9.567,3.668a6.035,6.035,0,0,0,3.37-3.222,8.183,8.183,0,0,0,.086-6.163,18.9,18.9,0,0,0-3.219-5.518,17.692,17.692,0,0,0-4.163-4.029,7.418,7.418,0,0,0-7.068-.729,6.307,6.307,0,0,0-3.369,5.556C271.873,202.781,275.873,202.781,275.918,200.206Z"/></svg>