<?xml version="1.0" encoding="utf-8"?>
<!-- Uploaded to: SVG Repo, www.svgrepo.com, Generator: SVG Repo Mixer Tools -->
<svg width="800px" height="800px" viewBox="0 -65.29 367.002 367.002" xmlns="http://www.w3.org/2000/svg"><defs><style>.a{fill:#ffffff;}.b{fill:#7a7473;}.c{fill:#211715;}</style></defs><path class="a" d="M231.792,87.228c3.545-5.905,3.785-14.657,3.986-21.453a68.367,68.367,0,0,1,.742-14.232c4.263-2.592,10.657-3.568,16.871-2.6,14.034,2.553,25.936,11.564,33.671,19.538,4.307,4.808,5.326,8.235,9.327,15.469,1.887-2.35,3.737-4.213,6.787-4.977a8.709,8.709,0,0,1,7.367,1.143c3,2.192,4.379,6.774,4.191,10.544a22.17,22.17,0,0,1-5.91,14.678c.171.5.271.785.271.785,2.9,8.323,14.217,21.538,23.52,26.764a16.837,16.837,0,0,0-3.122,7.629,19.891,19.891,0,0,0,.24,5.5s.118.988.287,2.394c-2.016-1.31-4-1.339-6.89-1.485-16.831-.851-39.047,8.231-49.734,16.167,1.812-8.366-2.286-17.262-2.378-17.5a3.038,3.038,0,0,0-3.59-1.79c-6.13,1.66-15.6.76-22.52-1.77-3.53-1.29-6.94-3.81-9.61-8.86a36.82,36.82,0,0,1-2.98-8.83,86.778,86.778,0,0,1-1.86-13.17,14,14,0,0,0-3.18-5.93c-2.43-2.62-6.35-4.66-4.35-9.21a8.521,8.521,0,0,1,3.88-3.9A13.062,13.062,0,0,0,231.792,87.228Z"/><path class="a" d="M266.726,176.738c-.6,1.787-1.289,3.793-2.091,6.052-5.08,15.877-7.687,26.046-13.966,51.237h107c-4.709-29.816-7.594-59.6-24.079-81.986-3.649-4.953-5.959-4.9-10.461-5.124-16.877-.854-39.17,8.281-49.828,16.232C270.5,165.238,269.4,168.841,266.726,176.738Z"/><path class="b" d="M273.354,7.038C253.118,14.4,243.8,28.791,242.187,32.026c-3.277,6.588-5.139,11.6-5.83,19.62,4.262-2.67,10.74-3.683,17.034-2.708,14.034,2.553,25.936,11.564,33.671,19.538,4.307,4.808,5.326,8.235,9.327,15.469,1.887-2.35,3.737-4.213,6.787-4.977a8.709,8.709,0,0,1,7.367,1.143c3,2.192,4.379,6.774,4.191,10.544a22.17,22.17,0,0,1-5.91,14.678c.171.5.271.785.271.785,2.9,8.324,14.219,21.541,23.524,26.766,3.475-5.149,9.042-9.964,12.61-13.855,8.157-8.9,20.025-26.247,19.347-50.375a70.839,70.839,0,0,0-11.805-36.166C336.393,8.4,317.921,4.258,306.535,2.845a71.415,71.415,0,0,0-32.346,3.9C273.909,6.839,273.63,6.938,273.354,7.038Z"/><path class="c" d="M234.3,50.327a69.955,69.955,0,0,0-.957,9.051c-.108,2.8.064,5.589-.03,8.383a58.981,58.981,0,0,1-1.462,12.913c-.957,3.682-2.646,7.271-5.988,9.228a11.41,11.41,0,0,0-5.4,5.848,7.289,7.289,0,0,0,.822,6.7c1.234,1.788,3,3.036,4.433,4.636a10.7,10.7,0,0,1,1.788,2.838,9.709,9.709,0,0,1,.7,3.314,68.417,68.417,0,0,0,3.51,17.7c1.838,4.943,4.994,9.564,9.712,12.14,4.551,2.485,10.129,3.419,15.237,3.823a38.857,38.857,0,0,0,9.086-.305,13.652,13.652,0,0,1,2.738-.431c.149.009.214.215.3.286-.177-.153-.188-.46.182.4.225.525-.2-.533,0,.01,1.784,4.677,3.075,9.774,2.26,14.805a2.474,2.474,0,0,0,1.677,2.952,2.419,2.419,0,0,0,2.952-1.676,32.188,32.188,0,0,0-1.619-15.652q-.31-.9-.669-1.772c-.133-.327-.269-.652-.411-.975-.047-.108-.163-.358.06.144.346.781-.368-.772-.465-.918a5.517,5.517,0,0,0-3.024-2.259,8.627,8.627,0,0,0-4.235.272,36.822,36.822,0,0,1-15.071-.647c-4.548-1.034-8.674-2.641-11.467-6.579-3.412-4.81-4.544-10.933-5.4-16.654-.187-1.246-.339-2.5-.465-3.749a25.5,25.5,0,0,0-.434-4.01,15.991,15.991,0,0,0-4.092-7.026c-1.259-1.264-3.079-2.435-3.7-4.05a3.212,3.212,0,0,1,.222-2.042,5.576,5.576,0,0,1,1.958-2.243c1.83-1.272,3.675-2.248,5.129-4a20.8,20.8,0,0,0,3.326-5.789c4.176-10.624,1.553-22.4,3.426-33.388a2.471,2.471,0,0,0-1.676-2.952,2.42,2.42,0,0,0-2.953,1.676Z"/><path class="c" d="M238.586,54.118a47.711,47.711,0,0,1,6.576-22.47,35.877,35.877,0,0,1,4.115-5.5,58.989,58.989,0,0,1,7.954-7.535,66.971,66.971,0,0,1,27.646-12.38,66.45,66.45,0,0,1,17.642-1.359q2.107.125,4.2.39l.378.048c.625.079-.36-.051.036,0,.363.05.726.1,1.089.156q2.077.312,4.134.742a54.9,54.9,0,0,1,19.319,8.035,70.112,70.112,0,0,1,20.582,21.869,67.127,67.127,0,0,1,9.883,31.642,66.272,66.272,0,0,1-5.572,29.629,73.948,73.948,0,0,1-12.275,19.09c-2.971,3.342-6.306,6.336-9.315,9.643-3.17,3.482-6.434,7.5-7.542,12.187a20.6,20.6,0,0,0-.021,8.332,2.42,2.42,0,0,0,2.952,1.676,2.453,2.453,0,0,0,1.677-2.952,13.93,13.93,0,0,1,.49-7.332,21.777,21.777,0,0,1,3.361-5.617c3.074-3.941,6.834-7.273,10.268-10.884a77.524,77.524,0,0,0,13.386-19.226,72.187,72.187,0,0,0,7.433-30.132,71.891,71.891,0,0,0-8.128-34.1,75.89,75.89,0,0,0-20.576-24.943A60.318,60.318,0,0,0,316.839,2.356a73.461,73.461,0,0,0-57.861,9.155A61.738,61.738,0,0,0,242.6,26.878a34.331,34.331,0,0,0-3.161,5.316,53.741,53.741,0,0,0-4.7,13.539,67.073,67.073,0,0,0-.952,8.385c-.173,3.087,4.628,3.077,4.8,0Z"/><path class="c" d="M306.781,106.756c2,5.615,5.685,10.6,9.527,15.084a60.95,60.95,0,0,0,14.4,12.71c2.651,1.6,5.066-2.547,2.423-4.145a56.533,56.533,0,0,1-13.178-11.669c-3.369-3.9-6.877-8.574-8.542-13.256a2.463,2.463,0,0,0-2.953-1.677,2.423,2.423,0,0,0-1.676,2.953Z"/><path class="c" d="M252.753,51.252a55.351,55.351,0,0,1,21.109,9.126,73.751,73.751,0,0,1,8.052,6.439,37.007,37.007,0,0,1,6.341,7.131c2.155,3.348,3.784,7.024,5.683,10.517,1.475,2.716,5.621.3,4.144-2.422-1.748-3.218-3.276-6.572-5.176-9.706a38.567,38.567,0,0,0-6.565-7.95,74.17,74.17,0,0,0-18.921-13.3,54.371,54.371,0,0,0-13.391-4.463,2.464,2.464,0,0,0-2.952,1.676,2.421,2.421,0,0,0,1.676,2.952Z"/><path class="c" d="M299.258,84.259c2.185-2.37,5.486-4.126,8.751-2.83,2.777,1.1,4.053,4.523,4.287,7.288a19.82,19.82,0,0,1-5.717,15.477,26.312,26.312,0,0,1-8.474,5.4,2.478,2.478,0,0,0-1.676,2.952,2.416,2.416,0,0,0,2.952,1.677c7.142-2.949,13.188-7.669,16.058-15.036,2.743-7.042,2.847-18.5-5.323-22.052-5.068-2.2-10.673-.153-14.252,3.729-2.091,2.268,1.3,5.671,3.394,3.394Z"/><path class="c" d="M247.554,41.449a31.15,31.15,0,0,0-15.827,12.426,2.419,2.419,0,0,0,.861,3.283,2.453,2.453,0,0,0,3.284-.861q.309-.477.635-.943.163-.233.332-.461c.044-.06.35-.467.1-.149.463-.6.958-1.177,1.471-1.734A28.858,28.858,0,0,1,241.662,50c.326-.26-.438.321.145-.111.121-.09.243-.181.366-.27q.46-.333.934-.648.948-.63,1.942-1.182t2.031-1.022l.416-.184c-.382.167.089-.034.162-.063.387-.155.778-.3,1.172-.438a2.4,2.4,0,1,0-1.276-4.628Z"/><path class="c" d="M245.3,78.8c-1.037,2.633-1.09,8.9,3.723,9.853,6.429.525,7.458-6.961,5.618-10.686C253.137,74.917,248.04,73.255,245.3,78.8Z"/><path class="c" d="M290.083,126.9c5.01-1.913,9.445-5.34,13.557-8.707a76.686,76.686,0,0,0,6.035-5.446,25.383,25.383,0,0,0,3.988-4.847c1.56-2.673-2.587-5.092-4.145-2.423-.182.313-.385.608-.59.906-.374.543.1-.1-.175.236q-.187.233-.379.461c-.689.82-1.426,1.6-2.181,2.363-1.809,1.823-3.735,3.534-5.717,5.167a73.156,73.156,0,0,1-6.2,4.612c-1.014.671-2.047,1.314-3.111,1.9-.47.26-.947.51-1.431.743-.192.093-.386.182-.58.27-.257.111-.252.11.015-.005-.119.048-.238.094-.358.139a2.47,2.47,0,0,0-1.676,2.953,2.418,2.418,0,0,0,2.952,1.676Z"/><path class="c" d="M273.107,99.709c3.63-3.238,7.436-6.292,11.359-9.167a86.179,86.179,0,0,1,16.286-9.858,2.417,2.417,0,0,0,.861-3.284,2.463,2.463,0,0,0-3.284-.861,86.946,86.946,0,0,0-16.587,10.079c-4.143,3.054-8.186,6.27-12.029,9.7-2.31,2.06,1.094,5.445,3.394,3.394Z"/><path class="a" d="M274.214,100.648a8.215,8.215,0,0,0-5.885-4.957C257.7,93.4,244.09,91.8,233.956,90.766c-2.054-.211-8,.222-10,2.667-1.849,2.259-2.667,4.666-2.408,8.926a65.272,65.272,0,0,0,2.115,13.586c1.449,5.422,5.048,17.6,9.071,21.821,9.538,10,17.7,9.185,26.444,8.222,6.671-.735,15.66-5.429,21.329-12.566a6.566,6.566,0,0,0,1.311-5.291c-.773-4.154-3.407-8.428-4.927-13.886C275.625,109.7,275.531,103.9,274.214,100.648Z"/><path class="c" d="M276.286,99.437a10.669,10.669,0,0,0-7.512-6.1c-3.6-.8-7.256-1.412-10.9-1.981-7.445-1.161-14.933-2.052-22.427-2.835-5.318-.556-11.658.144-14.606,5.191-1.758,3.009-1.855,6.459-1.61,9.843a70.448,70.448,0,0,0,1.7,11.376,105.014,105.014,0,0,0,5.526,16.838,28.5,28.5,0,0,0,4.112,7.167,30.357,30.357,0,0,0,8.447,6.863c5.337,2.938,11.215,3.442,17.181,2.9a37.333,37.333,0,0,0,8.564-1.526A39.038,39.038,0,0,0,281.7,135.733a10.036,10.036,0,0,0,2.535-5.278,12.061,12.061,0,0,0-.67-5.168c-1.069-3.393-2.718-6.572-3.835-9.95-1.182-3.576-1.541-7.287-2.144-10.985a21.645,21.645,0,0,0-1.061-4.342,2.47,2.47,0,0,0-2.952-1.676,2.418,2.418,0,0,0-1.676,2.952c1.122,2.906,1.3,6.136,1.776,9.188a43.769,43.769,0,0,0,2.786,9.77c1.1,2.7,2.689,5.591,3.042,8.525.361,3.01-2.783,5.478-4.8,7.248a31.357,31.357,0,0,1-14.978,7.489c-4.549.775-9.982,1.1-14.555-.276a21.683,21.683,0,0,1-7.345-4,20.306,20.306,0,0,1-5.306-5.939c-2.615-4.657-4.232-9.906-5.711-15.013-1.678-5.8-3.107-11.957-2.893-18.035.071-2.007.815-4.628,2.316-5.656,1.713-1.174,4.217-1.426,6.291-1.465a70.775,70.775,0,0,1,9.278.892c3.787.435,7.57.907,11.343,1.451,3.813.549,7.618,1.161,11.4,1.9a16.3,16.3,0,0,1,4.86,1.267,6.382,6.382,0,0,1,2.741,3.232,2.414,2.414,0,0,0,3.283.861A2.463,2.463,0,0,0,276.286,99.437Z"/><path class="c" d="M252.983,234.665c3.41-13.678,6.751-27.387,10.769-40.9,1.952-6.566,4.141-13.04,6.349-19.522.473-1.389.949-2.777,1.479-4.144a18.774,18.774,0,0,1,1.221-2.661c.21-.377.449-.731.68-1.1.317-.5-.175.179.092-.132.163-.189.326-.377.5-.555.134-.136.28-.261.416-.394.077-.076.168-.142.25-.212-.034.029-.415.314-.115.092q.924-.686,1.88-1.326a87.164,87.164,0,0,1,18.717-9.3,80.359,80.359,0,0,1,22.515-5.151,50.271,50.271,0,0,1,5.393-.044,20.244,20.244,0,0,1,3.841.366,5.917,5.917,0,0,1,2.914,1.689,28.513,28.513,0,0,1,3.506,4.539,91.551,91.551,0,0,1,10.447,21.458c5.549,16.153,7.846,33.215,10.4,50.032q.5,3.278,1.008,6.553a2.417,2.417,0,0,0,2.952,1.676,2.458,2.458,0,0,0,1.676-2.952c-2.742-17.5-4.818-35.268-10-52.267a105.1,105.1,0,0,0-10.053-23.335q-1.612-2.694-3.432-5.257a23.079,23.079,0,0,0-3.808-4.482c-2.6-2.167-5.512-2.622-8.8-2.788a70.908,70.908,0,0,0-23.424,3.22,103.62,103.62,0,0,0-21.648,9.064,42.936,42.936,0,0,0-7.666,5.086,14.489,14.489,0,0,0-3.386,5.2c-1.273,2.975-2.25,6.067-3.287,9.13-1.23,3.635-2.485,7.253-3.622,10.919-4,12.918-7.333,26.023-10.617,39.139q-.886,3.541-1.769,7.084c-.747,3,3.881,4.277,4.629,1.276Z"/><path class="c" d="M251.778,236.427H357.556c3.089,0,3.094-4.8,0-4.8H251.778c-3.088,0-3.093,4.8,0,4.8Z"/><path class="a" d="M11.792,87.228c3.545-5.905,3.785-14.657,3.986-21.453a68.367,68.367,0,0,1,.742-14.232c4.263-2.592,10.657-3.568,16.871-2.6C47.425,51.491,59.327,60.5,67.062,68.476c4.307,4.808,5.326,8.235,9.327,15.469,1.887-2.35,3.737-4.213,6.787-4.977a8.709,8.709,0,0,1,7.367,1.143c3,2.192,4.379,6.774,4.191,10.544a22.17,22.17,0,0,1-5.91,14.678c.171.5.271.785.271.785,2.9,8.323,14.217,21.538,23.52,26.764a16.837,16.837,0,0,0-3.122,7.629,19.891,19.891,0,0,0,.24,5.5s.118.988.287,2.394c-2.016-1.31-4-1.339-6.89-1.485-16.831-.851-39.047,8.231-49.734,16.167,1.812-8.366-2.286-17.262-2.378-17.5a3.038,3.038,0,0,0-3.59-1.79c-6.13,1.66-15.6.76-22.52-1.77-3.53-1.29-6.94-3.81-9.61-8.86a36.82,36.82,0,0,1-2.98-8.83,86.778,86.778,0,0,1-1.86-13.17,14,14,0,0,0-3.18-5.93c-2.43-2.62-6.35-4.66-4.35-9.21a8.521,8.521,0,0,1,3.88-3.9A13.062,13.062,0,0,0,11.792,87.228Z"/><path class="a" d="M46.726,176.738c-.6,1.787-1.289,3.793-2.091,6.052-5.08,15.877-7.687,26.046-13.966,51.237h107c-4.709-29.816-7.594-59.6-24.079-81.986-3.649-4.953-5.959-4.9-10.461-5.124-16.877-.854-39.17,8.281-49.828,16.232C50.5,165.238,49.4,168.841,46.726,176.738Z"/><path class="b" d="M53.354,7.038C33.118,14.4,23.8,28.791,22.187,32.026c-3.277,6.588-5.139,11.6-5.83,19.62,4.262-2.67,10.74-3.683,17.034-2.708C47.425,51.491,59.327,60.5,67.062,68.476c4.307,4.808,5.326,8.235,9.327,15.469,1.887-2.35,3.737-4.213,6.787-4.977a8.709,8.709,0,0,1,7.367,1.143c3,2.192,4.379,6.774,4.191,10.544a22.17,22.17,0,0,1-5.91,14.678c.171.5.271.785.271.785,2.9,8.324,14.219,21.541,23.524,26.766,3.475-5.149,9.042-9.964,12.61-13.855,8.157-8.9,20.025-26.247,19.347-50.375a70.839,70.839,0,0,0-11.805-36.166C116.393,8.4,97.921,4.258,86.535,2.845a71.415,71.415,0,0,0-32.346,3.9C53.909,6.839,53.63,6.938,53.354,7.038Z"/><path class="c" d="M14.3,50.327a69.955,69.955,0,0,0-.957,9.051c-.108,2.8.064,5.589-.03,8.383a58.981,58.981,0,0,1-1.462,12.913C10.9,84.356,9.208,87.945,5.866,89.9a11.41,11.41,0,0,0-5.4,5.848,7.289,7.289,0,0,0,.822,6.7c1.234,1.788,3,3.036,4.433,4.636a10.7,10.7,0,0,1,1.788,2.838,9.709,9.709,0,0,1,.7,3.314,68.417,68.417,0,0,0,3.51,17.7c1.838,4.943,4.994,9.564,9.712,12.14,4.551,2.485,10.129,3.419,15.237,3.823a38.857,38.857,0,0,0,9.086-.305,13.652,13.652,0,0,1,2.738-.431c.149.009.214.215.3.286-.177-.153-.188-.46.182.4.225.525-.2-.533,0,.01,1.784,4.677,3.075,9.774,2.26,14.805a2.474,2.474,0,0,0,1.677,2.952,2.419,2.419,0,0,0,2.952-1.676,32.188,32.188,0,0,0-1.619-15.652q-.31-.9-.669-1.772c-.133-.327-.269-.652-.411-.975-.047-.108-.163-.358.06.144.346.781-.368-.772-.465-.918a5.517,5.517,0,0,0-3.024-2.259,8.627,8.627,0,0,0-4.235.272,36.822,36.822,0,0,1-15.071-.647c-4.548-1.034-8.674-2.641-11.467-6.579-3.412-4.81-4.544-10.933-5.4-16.654-.187-1.246-.339-2.5-.465-3.749a25.5,25.5,0,0,0-.434-4.01,15.991,15.991,0,0,0-4.092-7.026c-1.259-1.264-3.079-2.435-3.7-4.05a3.212,3.212,0,0,1,.222-2.042,5.576,5.576,0,0,1,1.958-2.243c1.83-1.272,3.675-2.248,5.129-4a20.8,20.8,0,0,0,3.326-5.789c4.176-10.624,1.553-22.4,3.426-33.388a2.471,2.471,0,0,0-1.676-2.952A2.42,2.42,0,0,0,14.3,50.327Z"/><path class="c" d="M18.586,54.118a47.711,47.711,0,0,1,6.576-22.47,35.877,35.877,0,0,1,4.115-5.5,58.989,58.989,0,0,1,7.954-7.535A66.971,66.971,0,0,1,64.877,6.237,66.45,66.45,0,0,1,82.519,4.878q2.108.125,4.2.39l.378.048c.625.079-.36-.051.036,0,.363.05.726.1,1.089.156q2.078.312,4.134.742a54.9,54.9,0,0,1,19.319,8.035,70.112,70.112,0,0,1,20.582,21.869,67.127,67.127,0,0,1,9.883,31.642,66.272,66.272,0,0,1-5.572,29.629,73.948,73.948,0,0,1-12.275,19.09c-2.971,3.342-6.306,6.336-9.315,9.643-3.17,3.482-6.434,7.5-7.542,12.187a20.6,20.6,0,0,0-.021,8.332,2.42,2.42,0,0,0,2.952,1.676,2.453,2.453,0,0,0,1.677-2.952,13.93,13.93,0,0,1,.49-7.332,21.777,21.777,0,0,1,3.361-5.617c3.074-3.941,6.834-7.273,10.268-10.884a77.524,77.524,0,0,0,13.386-19.226,72.187,72.187,0,0,0,7.433-30.132,71.891,71.891,0,0,0-8.128-34.1,75.89,75.89,0,0,0-20.576-24.943A60.318,60.318,0,0,0,96.839,2.356a73.461,73.461,0,0,0-57.861,9.155A61.738,61.738,0,0,0,22.6,26.878a34.331,34.331,0,0,0-3.161,5.316,53.741,53.741,0,0,0-4.7,13.539,67.073,67.073,0,0,0-.952,8.385c-.173,3.087,4.628,3.077,4.8,0Z"/><path class="c" d="M86.781,106.756c2,5.615,5.685,10.6,9.527,15.084a60.95,60.95,0,0,0,14.4,12.71c2.651,1.6,5.066-2.547,2.423-4.145a56.533,56.533,0,0,1-13.178-11.669c-3.369-3.9-6.877-8.574-8.542-13.256a2.463,2.463,0,0,0-2.953-1.677,2.423,2.423,0,0,0-1.676,2.953Z"/><path class="c" d="M32.753,51.252a55.351,55.351,0,0,1,21.109,9.126,73.751,73.751,0,0,1,8.052,6.439,37.007,37.007,0,0,1,6.341,7.131c2.155,3.348,3.784,7.024,5.683,10.517,1.475,2.716,5.621.3,4.144-2.422-1.748-3.218-3.276-6.572-5.176-9.706a38.567,38.567,0,0,0-6.565-7.95,74.17,74.17,0,0,0-18.921-13.3,54.371,54.371,0,0,0-13.391-4.463A2.464,2.464,0,0,0,31.077,48.3a2.421,2.421,0,0,0,1.676,2.952Z"/><path class="c" d="M79.258,84.259c2.185-2.37,5.486-4.126,8.751-2.83,2.777,1.1,4.053,4.523,4.287,7.288a19.82,19.82,0,0,1-5.717,15.477,26.312,26.312,0,0,1-8.474,5.4,2.478,2.478,0,0,0-1.676,2.952,2.416,2.416,0,0,0,2.952,1.677c7.142-2.949,13.188-7.669,16.058-15.036,2.743-7.042,2.847-18.5-5.323-22.052-5.068-2.2-10.673-.153-14.252,3.729-2.091,2.268,1.3,5.671,3.394,3.394Z"/><path class="c" d="M27.554,41.449A31.15,31.15,0,0,0,11.727,53.875a2.419,2.419,0,0,0,.861,3.283,2.453,2.453,0,0,0,3.284-.861q.309-.477.635-.943.163-.233.332-.461c.044-.06.35-.467.105-.149.463-.6.958-1.177,1.471-1.734A28.858,28.858,0,0,1,21.662,50c.326-.26-.438.321.145-.111.121-.09.243-.181.366-.27q.461-.333.934-.648.948-.63,1.942-1.182t2.031-1.022l.416-.184c-.382.167.089-.034.162-.063.387-.155.778-.3,1.172-.438a2.4,2.4,0,1,0-1.276-4.628Z"/><path class="c" d="M25.3,78.8c-1.037,2.633-1.09,8.9,3.723,9.853,6.429.525,7.458-6.961,5.618-10.686C33.137,74.917,28.04,73.255,25.3,78.8Z"/><path class="c" d="M32.983,234.665c3.41-13.678,6.751-27.387,10.769-40.9,1.952-6.566,4.141-13.04,6.349-19.522.473-1.389.949-2.777,1.479-4.144a18.774,18.774,0,0,1,1.221-2.661c.21-.377.449-.731.68-1.1.317-.5-.175.179.092-.132.163-.189.326-.377.5-.555.134-.136.28-.261.416-.394.077-.076.168-.142.25-.212-.034.029-.415.314-.115.092q.924-.686,1.88-1.326a87.164,87.164,0,0,1,18.717-9.3,80.359,80.359,0,0,1,22.515-5.151,50.271,50.271,0,0,1,5.393-.044,20.244,20.244,0,0,1,3.841.366,5.917,5.917,0,0,1,2.914,1.689,28.513,28.513,0,0,1,3.506,4.539,91.551,91.551,0,0,1,10.447,21.458c5.549,16.153,7.846,33.215,10.4,50.032q.5,3.278,1.008,6.553a2.417,2.417,0,0,0,2.952,1.676,2.458,2.458,0,0,0,1.676-2.952c-2.742-17.5-4.818-35.268-10-52.267a105.1,105.1,0,0,0-10.053-23.335q-1.612-2.694-3.432-5.257a23.079,23.079,0,0,0-3.808-4.482c-2.6-2.167-5.512-2.622-8.8-2.788a70.908,70.908,0,0,0-23.424,3.22A103.62,103.62,0,0,0,58.7,156.833a42.936,42.936,0,0,0-7.666,5.086,14.489,14.489,0,0,0-3.386,5.2c-1.273,2.975-2.25,6.067-3.287,9.13-1.23,3.635-2.485,7.253-3.622,10.919-4.005,12.918-7.333,26.023-10.617,39.139q-.887,3.541-1.769,7.084c-.747,3,3.881,4.277,4.629,1.276Z"/><path class="c" d="M31.778,236.427H137.556c3.089,0,3.094-4.8,0-4.8H31.778c-3.088,0-3.093,4.8,0,4.8Z"/><path class="c" d="M11.312,119.209A23.882,23.882,0,0,0,23.079,116.8a2.42,2.42,0,0,0,.861-3.283,2.451,2.451,0,0,0-3.283-.861,6.181,6.181,0,0,1-1.115.544c.625-.182-.127.043-.253.089q-.252.093-.507.177a18.7,18.7,0,0,1-2.554.64c-.212.038-.425.07-.638.106-.274.039-.245.036.085-.01l-.278.034q-.655.074-1.313.116c-.923.06-1.847.074-2.772.059a2.4,2.4,0,1,0,0,4.8Z"/></svg>