<?xml version="1.0" encoding="utf-8"?>
<!-- Uploaded to: SVG Repo, www.svgrepo.com, Generator: SVG Repo Mixer Tools -->
<svg width="800px" height="800px" viewBox="-158.77 0 443.364 443.364" xmlns="http://www.w3.org/2000/svg"><defs><style>.a{fill:#ffffff;}.b{fill:#957f6e;}.c{fill:#211715;}.d{fill:#645d5c;}.e{fill:#bdbdbd;}.f{fill:#79c6e0;}</style></defs><path class="a" d="M84.269,96.58c-.277-.114-3.355-1.314-3.536-1.38-2.735-.987-2.627-2.746-2.972-4.713a37.936,37.936,0,0,1-.6-7.461c7.2-2.987,13-12.693,14.01-15.427.151-.458.459-1.321.738-2.347l.566-.086a7.175,7.175,0,0,0,3.335-1.5,10.824,10.824,0,0,0,2.8-3.672,17.026,17.026,0,0,0,1.735-9.023,5.671,5.671,0,0,0-.594-2.285,4.019,4.019,0,0,0-2.889-1.92,4.254,4.254,0,0,0-3.4,1S92.342,22.733,63.206,22.733c-25.778,0-26.853,25.025-26.853,25.025a4.256,4.256,0,0,0-3.4-1,4.017,4.017,0,0,0-2.889,1.92,5.688,5.688,0,0,0-.595,2.285A17.018,17.018,0,0,0,31.2,59.99,10.824,10.824,0,0,0,34,63.662a7.175,7.175,0,0,0,3.335,1.5l1.088.167A28.944,28.944,0,0,0,43.938,76.1a24.784,24.784,0,0,0,8.47,6.783,37.449,37.449,0,0,1-.593,7.6c-.344,1.967-.236,3.726-2.971,4.713-.181.066-1.454.484-1.981.664,0,0,.273,14.424,17.009,14.424S84.269,96.58,84.269,96.58Z"/><path class="b" d="M30.793,66.072A12.167,12.167,0,0,1,32.5,62.1,9.138,9.138,0,0,0,34,63.662a7.175,7.175,0,0,0,3.335,1.5l1.088.167A28.929,28.929,0,0,0,43.938,76.1a28.079,28.079,0,0,0,4.685,4.5c-.67,2.639-4.33,5.142-8.818,5.825A15.6,15.6,0,0,1,29.617,84.65a3.4,3.4,0,0,1-1.124-.986.993.993,0,0,1-.176-.491c0-.071.015-.352.1-.381,2.192-.745,2.79-3.007,2.684-5.306s-.7-4.671-.736-6.978a21.281,21.281,0,0,1,.147-2.9A15.288,15.288,0,0,1,30.793,66.072Z"/><path class="c" d="M50.421,84.372c-.016.806-.055,1.611-.122,2.414-.03.365-.066.728-.107,1.092-.02.181-.042.363-.065.544-.018.141-.018.146,0,.013l-.03.217c-.162,1.085-.283,2.214-.549,3.28-.025.1-.051.2-.082.294s-.191.361-.022.1c.219-.334-.256.382-.239.4-.031-.041.34-.361.035-.058-.08.079-.159.157-.24.235-.309.3.343-.186-.062.036-.118.064-.231.138-.35.2s-.348.157-.093.057c-.094.037-.186.07-.28.1-.166.058-.334.112-.5.167-.461.154-.923.306-1.383.462A2,2,0,1,0,47.4,97.792a20.594,20.594,0,0,0,3.285-1.231A5.521,5.521,0,0,0,53.3,93.347a21.621,21.621,0,0,0,.617-3.414,43.179,43.179,0,0,0,.5-5.561,2,2,0,0,0-4,0Z"/><path class="c" d="M75.156,84.372a50.014,50.014,0,0,0,.723,6.926,7.632,7.632,0,0,0,1.53,4.093,8.39,8.39,0,0,0,3.553,2.031c.926.36,1.855.712,2.775,1.086a2,2,0,0,0,2.46-1.4,2.061,2.061,0,0,0-1.4-2.461c-.813-.331-1.634-.642-2.452-.961-.346-.134-.691-.269-1.037-.4-.079-.03-.159-.057-.237-.089.338.139-.2-.117-.266-.153-.113-.066-.537-.421-.175-.09-.1-.1-.2-.2-.306-.293-.3-.285.181.337-.009-.014-.061-.112-.125-.223-.187-.334-.185-.329.109.423-.007-.051-.036-.145-.084-.287-.118-.433-.134-.572-.2-1.158-.292-1.737a39.435,39.435,0,0,1-.558-5.723,2,2,0,0,0-4,0Z"/><path class="a" d="M40.973,96.035c-6.792,2.543-14.4,5.639-18.823,8.881a18.944,18.944,0,0,0-4.383,5.585,22.555,22.555,0,0,0-2.534,4.7C12.8,120.835,6.581,137.762,3.6,145.485c-2.83,7.336-1.795,14.6,2.146,19.661S21,173.815,26.334,175.64c6.614,2.263,12.419,3.936,18.306,5.393l23.986-1.792c3.227-.24,24.492-2.5,34.845-4.79,4.49-.994,13.311-3.265,17.138-6.456,3.747-3.123,3.624-10.465,2.285-18.149-1.411-8.09-6.253-29.955-7.557-34.608-.851-3.038-2.538-6.412-4.623-8.155a4.31,4.31,0,0,0-.547-.433c-1.413-1.582-3.124-2.111-4.834-3.041A219.754,219.754,0,0,0,83.365,92.863,21.08,21.08,0,0,0,79.042,87,42.531,42.531,0,0,1,66.768,95.55c-.254.115-.538.256-.62.522h-2.2c-.082-.266-.365-.407-.619-.522A42.517,42.517,0,0,1,51.053,87a22.065,22.065,0,0,0-4.938,7.146C44.507,94.728,42.769,95.362,40.973,96.035Z"/><path class="a" d="M89.119,315.969c2.428,19.3-1.573,38.742-3.973,58.047-1.635,13.157-1.915,28.212,7.39,37.657,1.993,1.989,2.734,6.528,1.306,8.789-2.164,3.428-7.036,1.59-10.542-.008-4.229-1.928-8.276-4.262-12.519-6.158-2.677-1.2-4.323-2.607-7.383-2.105-2.487.407-4.1,1.934-6.173,3.443-4.2,3.049-8.676,5.929-14.05,5.717-3.914-.154-9.308-4.466-6.4-8.7,1.11-1.614,3.007-2.487,4.2-4.209a27.593,27.593,0,0,0,3.2-6.23c3.3-8.928,2.661-18.929,1.509-28.2-2.4-19.305-6.4-38.746-3.973-58.047"/><path class="c" d="M39.722,315.969c-1.74,14.142-.1,28.354,1.835,42.385.906,6.58,1.967,13.156,2.59,19.771a66.932,66.932,0,0,1-.107,16.5c-.9,5.8-3.007,11.365-7.149,15.634-1.793,1.848,1.032,4.68,2.829,2.828,8.1-8.344,9.381-20.458,8.7-31.544-.407-6.585-1.444-13.128-2.361-19.656-.993-7.067-1.979-14.139-2.562-21.254a121.012,121.012,0,0,1,.229-24.664,2.011,2.011,0,0,0-2-2,2.049,2.049,0,0,0-2,2Z"/><path class="c" d="M63.274,315.589c-.005,25.282.083,50.568-.336,75.847q-.185,11.063-.521,22.122c-.08,2.575,3.92,2.572,4,0,.81-26.1.848-52.207.854-78.314l0-19.655c0-2.574-4-2.578-4,0Z"/><path class="c" d="M87.119,315.969c1.786,14.517.017,29.105-1.994,43.5-1.7,12.141-4.183,24.7-2.061,36.952a31.306,31.306,0,0,0,8.057,16.667c1.8,1.851,4.623-.979,2.829-2.828-7.659-7.893-8.213-19.688-7.433-30.049,1.022-13.577,3.868-26.961,4.907-40.546a119.276,119.276,0,0,0-.305-23.695,2.063,2.063,0,0,0-2-2,2.012,2.012,0,0,0-2,2Z"/><path class="d" d="M24.062,437.126c-.11-.144-.214-.292-.312-.446a8.362,8.362,0,0,1-.553-7.006,22.939,22.939,0,0,1,3.6-6.273q5.2-7.107,11-13.756c1.507-1.727,3.209-3.528,5.462-3.953-.364,1.357-.909,4.71.287,5.447s3.022.735,4.426.759c6.152.107,12.726-4.3,16.141-7.381.232-.21.666.084.669.418.031,3.963.364,5.677.344,10.055a10.081,10.081,0,0,1-.761,3.39c-.976,2.639-3.87,3.91-6.192,5.5-6.04,4.134-9.222,11.676-15.552,15.352a16.345,16.345,0,0,1-15.107.541A9.529,9.529,0,0,1,24.062,437.126Z"/><path class="d" d="M107.286,437.126c.11-.144.214-.292.312-.446a8.362,8.362,0,0,0,.553-7.006,22.939,22.939,0,0,0-3.595-6.273q-5.2-7.107-11-13.756c-1.507-1.727-3.209-3.528-5.461-3.953.363,1.357.978,4.969-.219,5.706s-3.168.709-4.573.734c-6.1.106-12.553-4.492-15.975-7.536-.264-.236-.755-.058-.759.246-.046,3.986-.517,5.4-.5,9.815a12.3,12.3,0,0,0,.917,3.723c.975,2.639,3.869,3.91,6.191,5.5,6.04,4.134,9.222,11.676,15.552,15.352a16.347,16.347,0,0,0,15.108.541A9.534,9.534,0,0,0,107.286,437.126Z"/><path class="c" d="M25.789,436.117c-1.631-2.229-1.232-5.047-.048-7.4a52.206,52.206,0,0,1,5.49-7.931q3.032-3.953,6.267-7.746c1.712-2.014,3.554-4.808,6.287-5.423l-2.46-2.461c-.52,2.026-1.029,4.858.2,6.726,1.579,2.392,5.88,2.2,8.37,1.9,5.865-.7,11.281-3.987,15.622-7.86l-.883.515.2-.071H63.778l.219.076-.883-.515.176.178-.514-.883a11.742,11.742,0,0,1,.083,2.59c.042.882.1,1.764.146,2.646.107,1.993.392,4.2-.158,6.137a6.716,6.716,0,0,1-3.268,4,40.084,40.084,0,0,0-4.695,3.313c-5.59,4.87-9.015,12.973-16.7,14.98-4.212,1.1-9.813.374-12.7-3.188a2.013,2.013,0,0,0-2.828,0,2.046,2.046,0,0,0,0,2.828c2.178,2.684,5.788,4.12,9.133,4.6a18.71,18.71,0,0,0,10.593-1.535c5.88-2.721,9.185-8.573,13.5-13.088a21.378,21.378,0,0,1,3.453-3.012c1.239-.835,2.544-1.563,3.734-2.471,3.06-2.334,4.107-5.654,4.058-9.413-.02-1.492-.1-2.98-.185-4.469-.088-1.531.151-3.4-.262-4.869a2.519,2.519,0,0,0-1.718-1.729,2.664,2.664,0,0,0-2.588.839,34.378,34.378,0,0,1-3.282,2.492c-3.042,2.015-6.623,3.851-10.343,4a18.453,18.453,0,0,1-2.67-.062,9.2,9.2,0,0,1-1.1-.218c-.777-.179.005-.207-.066.146.1-.512-.1-1.28-.038-1.861a11.7,11.7,0,0,1,.319-1.669,2.022,2.022,0,0,0-2.46-2.46c-3.455.777-5.719,3.712-7.9,6.271q-3.8,4.454-7.336,9.115c-3.858,5.058-9.873,12.535-5.153,18.986a2.06,2.06,0,0,0,2.737.717A2.014,2.014,0,0,0,25.789,436.117Z"/><path class="c" d="M109.013,438.136c4.721-6.452-1.3-13.928-5.153-18.986q-3.549-4.653-7.336-9.115c-2.179-2.558-4.443-5.494-7.9-6.271a2.022,2.022,0,0,0-2.46,2.46,10.132,10.132,0,0,1,.406,3.3,2.313,2.313,0,0,1-.08.511c-.143-.064.852-.388.084-.218a11.722,11.722,0,0,1-2.226.3,17.713,17.713,0,0,1-9.377-2.487,35.264,35.264,0,0,1-4.132-2.709c-1.062-.8-2.314-2.415-3.742-2.425-2.405-.016-2.494,2.176-2.575,3.971-.064,1.417-.215,2.827-.318,4.242-.244,3.335-.278,7,1.692,9.9,1.822,2.677,4.906,3.794,7.322,5.791,4.955,4.094,7.961,10.052,13.277,13.779a18.069,18.069,0,0,0,11.335,3.159c3.912-.24,8.318-1.65,10.868-4.792a2.058,2.058,0,0,0,0-2.828,2.014,2.014,0,0,0-2.828,0c-2.551,3.142-7.352,4.091-11.193,3.508-4-.607-7.119-2.91-9.79-5.828-2.609-2.85-4.81-6.066-7.617-8.736a29.51,29.51,0,0,0-4.739-3.567c-1.342-.84-2.929-1.734-3.616-3.241-1-2.191-.892-4.467-.735-6.81.061-.9.149-1.8.221-2.7.04-.5.076-1.006.1-1.509a6.378,6.378,0,0,1,.075-1.654l-.919,1.2.2-.125-1.009.273.248-.025-1.01-.273a7.235,7.235,0,0,1,1.244.993q.873.705,1.775,1.373a36.108,36.108,0,0,0,3.673,2.4,23.136,23.136,0,0,0,8.992,3.081c2.4.243,6.606.412,8.1-1.911,1.252-1.944.686-4.9.147-6.993l-2.46,2.461c2.669.6,4.457,3.275,6.133,5.242q3.308,3.883,6.421,7.927a54.253,54.253,0,0,1,5.392,7.742c1.242,2.4,1.735,5.282.05,7.585a2.014,2.014,0,0,0,.718,2.736A2.046,2.046,0,0,0,109.013,438.136Z"/><path class="e" d="M33.182,188.018c-1.39,4.88-3.686,17.8-4.808,24.162-5.485,31.082,2.767,95.246,2.851,103.032,12.027,1.214,57.582,1.325,67.426-.071.712-7.937,8.152-71.879,2.667-102.961-1.123-6.361-3.411-19.06-4.8-23.94Z"/><path class="c" d="M31.254,187.486c-1.274,4.526-2.075,9.2-2.94,13.821-.843,4.507-1.745,9.022-2.374,13.565A190.9,190.9,0,0,0,24.5,242.167c.114,18.926,1.622,37.826,3.348,56.663.5,5.426,1.3,10.927,1.378,16.382a2.054,2.054,0,0,0,2,2c8.381.835,16.892.805,25.305.894,10.453.109,20.917.1,31.365-.265a108.892,108.892,0,0,0,11.288-.772,2.021,2.021,0,0,0,1.468-1.928c1.176-13.04,2.565-26.046,3.424-39.115.659-10.019,1.128-20.055,1.228-30.1a223.138,223.138,0,0,0-1.14-27.879c-.572-4.935-1.508-9.817-2.416-14.7-.971-5.223-1.861-10.523-3.3-15.643-.7-2.474-4.557-1.422-3.857,1.064,1.281,4.55,2.1,9.248,2.974,13.888.834,4.415,1.72,8.84,2.338,13.292a193.49,193.49,0,0,1,1.422,26.681c-.019,18.759-1.338,37.516-3.065,56.187-.5,5.443-1.114,10.877-1.605,16.321l1.469-1.929c-.353.049.452-.053.078-.011-.145.016-.289.035-.434.051-.322.036-.643.068-.965.1-.707.065-1.414.118-2.121.166-1.824.123-3.651.207-5.478.278-4.813.185-9.629.27-14.445.318-10.509.107-21.027.054-31.533-.265-4-.122-8.015-.238-12-.635l2,2c-.06-4.522-.7-9.077-1.12-13.575-.781-8.451-1.526-16.906-2.13-25.373-.713-9.983-1.254-19.982-1.427-29.99a219.791,219.791,0,0,1,.947-27.85c.518-4.7,1.453-9.43,2.318-14.124.969-5.258,1.848-10.6,3.3-15.75.7-2.482-3.16-3.542-3.857-1.064Z"/><path class="c" d="M33.485,190.018h62.8c2.574,0,2.578-4,0-4h-62.8c-2.574,0-2.578,4,0,4Z"/><path class="d" d="M81.781,94.12c-1.4,2.384-14.33,20.042-16.96,22.777,0,0-.195.2-.524.553-1.362-1.861-3.159-4.176-4.258-5.366-3.506-4.208-11.922-15.113-12.763-17.532l-.351-.705-.673.246c-7.046,2.574-16.655,6.044-22.551,9.771.822,3.5,4.848,30.757,6.454,41.766l1.06,14.833-2.058,12.743c-.84,5.355-2.344,15-2.541,16.226L23.6,206.468l-.084.471c8.645,1.165,19.561,1.778,27.657,1.054a7.845,7.845,0,0,0,3.173-.762,6.116,6.116,0,0,0,2.4-2.548c1.79-3.491,5.7-11.129,8.008-17.052.154.283.243.443.243.443,2.293,4.982,6.441,13.426,8.682,16.609a7.919,7.919,0,0,0,2.4,2.548,7.845,7.845,0,0,0,3.173.762c8.208.734,17.168.094,26.046-1.1l-.053-.364-2.491-17.045c-1.566-11.54-3.3-24.576-2.933-27.035,2.669-18.039,5.067-33.692,6.673-46.345l1.625-11.03,0-.036c-.9-.517-1.846-.909-2.794-1.425A219.264,219.264,0,0,0,83.171,92.782"/><path class="c" d="M64.55,181.5c-.039.376,0,.057.006-.015-.02.124-.039.25-.066.373-.058.272-.115.544-.183.813-.157.627-.346,1.245-.548,1.858-.492,1.488-1.066,2.95-1.673,4.394-1.345,3.2-2.852,6.339-4.391,9.451q-.966,1.953-1.958,3.894c-.692,1.356-1.306,2.894-2.869,3.425-1.882.641-4.219.5-6.187.562-2.265.071-4.532.063-6.8,0a156.615,156.615,0,0,1-15.721-1.232,2.01,2.01,0,0,0-2,2,2.051,2.051,0,0,0,2,2q7.389.949,14.845,1.2c2.489.083,4.98.1,7.469.031a38.03,38.03,0,0,0,6.86-.556c4.029-.873,5.5-4.689,7.153-7.987,1.66-3.317,3.275-6.66,4.747-10.066,1.4-3.229,2.946-6.615,3.313-10.152a2.013,2.013,0,0,0-2-2,2.045,2.045,0,0,0-2,2Z"/><path class="c" d="M63.269,189.083a144.07,144.07,0,0,0,7.846,15.327,20.884,20.884,0,0,0,2.35,3.254,7.654,7.654,0,0,0,4.968,2.244,76.268,76.268,0,0,0,11.638.339c4.753-.157,9.49-.615,14.2-1.222a2.064,2.064,0,0,0,2-2,2.012,2.012,0,0,0-2-2,146.679,146.679,0,0,1-15.167,1.25c-2.365.057-4.732.037-7.094-.087-1.828-.1-4.379.111-5.721-1.353-2.05-2.236-3.406-5.308-4.788-7.973q-2.51-4.839-4.782-9.8a2.015,2.015,0,0,0-2.736-.717,2.046,2.046,0,0,0-.718,2.736Z"/><path class="c" d="M106.193,104.538c-1.984,13.477-3.783,26.978-5.783,40.453-.825,5.559-1.68,11.114-2.478,16.677-.419,2.915.089,5.963.406,8.867.8,7.305,1.777,14.6,2.84,21.869l2.141,14.653a2.014,2.014,0,0,0,2.461,1.4,2.051,2.051,0,0,0,1.4-2.46c-1.58-10.813-3.2-21.619-4.5-32.472a82.387,82.387,0,0,1-.905-10.182,41.408,41.408,0,0,1,.77-5.7q.608-4.095,1.218-8.19c1.424-9.572,2.85-19.144,4.133-28.737q.239-1.783.468-3.569c.03-.231.058-.464.089-.7-.045.339-.027.193-.017.122.017-.124.036-.247.054-.37q.266-1.808.532-3.615l1.028-6.981a2.066,2.066,0,0,0-1.4-2.46,2.014,2.014,0,0,0-2.46,1.4Z"/><path class="c" d="M19.045,112.421a16.527,16.527,0,0,1,4.484-6.043,45.444,45.444,0,0,1,6.9-3.859c5.306-2.5,10.846-4.486,16.352-6.5,2.4-.876,1.363-4.743-1.063-3.857-5.952,2.174-11.934,4.335-17.658,7.067a40.735,40.735,0,0,0-7.083,4.082,19.248,19.248,0,0,0-5.388,7.089c-1.092,2.315,2.356,4.348,3.454,2.019Z"/><path class="c" d="M29.287,159.931c-1.949,12.426-3.87,24.857-6.067,37.241l-1.554,8.764a2.058,2.058,0,0,0,1.4,2.461,2.017,2.017,0,0,0,2.46-1.4q3.034-17.106,5.759-34.246.933-5.878,1.862-11.759a2.064,2.064,0,0,0-1.4-2.461,2.015,2.015,0,0,0-2.46,1.4Z"/><path class="c" d="M21.776,104.356c.765,3.265,1.364,6.574,1.97,9.871.371,2.015.728,4.032,1.058,6.054.287,1.767.463,2.812.615,4.349a2.056,2.056,0,0,0,2,2,2.014,2.014,0,0,0,2-2c-.372-3.757-1.087-7.492-1.767-11.2-.621-3.385-1.234-6.783-2.019-10.135-.588-2.505-4.445-1.445-3.857,1.063Z"/><path class="c" d="M80.054,93.11c-1.63,2.737-3.653,5.287-5.525,7.858C71.9,104.579,69,108.5,66.418,111.816c-.968,1.243-1.923,2.524-3.011,3.666-1.774,1.865,1.05,4.7,2.829,2.829a93.926,93.926,0,0,0,6.71-8.512q4.131-5.5,8.127-11.105c.83-1.169,1.7-2.331,2.435-3.565,1.319-2.217-2.137-4.231-3.454-2.019Z"/><path class="c" d="M45.347,95.083a17.83,17.83,0,0,0,2.093,3.7c1.207,1.79,2.486,3.533,3.78,5.262,2.485,3.322,4.99,6.675,7.718,9.8,1.439,1.649,2.764,3.4,4.041,5.177.277.385.552.771.817,1.164a1.942,1.942,0,0,0,.227.338c.3.251-.169-.353-.081-.641a1.877,1.877,0,0,0,.041.529c.106,1.668.116,3.344.149,5.014.269,13.817.3,27.641.365,41.46.023,4.871.053,9.742.053,14.613,0,2.574,4,2.578,4,0,0-11.4-.085-22.8-.171-34.2-.05-6.749-.1-13.5-.218-20.247-.034-1.988-.061-3.977-.145-5.963-.018-.411-.034-.824-.078-1.234-.2-1.82-2.066-3.642-3.131-5.041-2.837-3.725-5.926-7.25-8.767-10.977-1.5-1.97-2.983-3.956-4.4-5.987-.558-.8-1.108-1.6-1.625-2.429-.2-.314-.39-.63-.569-.953-.072-.131-.137-.267-.211-.4-.282-.486.059.2-.031-.048-.885-2.394-4.752-1.359-3.857,1.063Z"/><path class="c" d="M82.64,94.71c4.5,1.874,8.924,3.944,13.269,6.163,2.038,1.041,4.061,2.112,6.076,3.2a47.634,47.634,0,0,1,6.278,3.462,2.013,2.013,0,0,0,2.736-.718,2.048,2.048,0,0,0-.718-2.736A47.79,47.79,0,0,0,104,100.616c-2.14-1.152-4.288-2.288-6.455-3.39Q90.75,93.77,83.7,90.853a2.012,2.012,0,0,0-2.46,1.4,2.051,2.051,0,0,0,1.4,2.46Z"/><path class="a" d="M56.351,103.95c-4.025-3.839-6.664-6.436-9.576-11.175A21,21,0,0,1,51.053,87,42.517,42.517,0,0,0,63.327,95.55c.254.115.537.256.619.522a.982.982,0,0,1-.142.694C63.645,97.1,58.027,102.357,56.351,103.95Z"/><path class="a" d="M74.624,104.718a76.967,76.967,0,0,0,8.7-11.943A21.017,21.017,0,0,0,79.042,87,42.531,42.531,0,0,1,66.768,95.55c-.254.115-.538.256-.62.522a.987.987,0,0,0,.142.694C66.449,97.1,72.653,103.048,74.624,104.718Z"/><path class="c" d="M57.765,102.536A55.151,55.151,0,0,1,48.5,91.765v2.019a19.869,19.869,0,0,1,3.965-5.375H49.638a44.8,44.8,0,0,0,6.378,5.283q1.617,1.112,3.329,2.075.831.467,1.683.894c.256.129.515.255.775.377.171.081.342.161.515.239q.452.256-.1-.2l-.273-1.01c-.015-.193.353-.607.361-.613a2.251,2.251,0,0,0-.215.231c-.226.238-.463.468-.7.7-.713.7-1.437,1.391-2.162,2.081-1.427,1.359-2.866,2.708-4.3,4.066-1.87,1.776.962,4.6,2.828,2.828,2.155-2.047,4.337-4.065,6.458-6.147,1.143-1.122,2.381-2.529,1.4-4.243-.627-1.1-2.035-1.48-3.1-2.031Q60.808,92.049,59.176,91a39.806,39.806,0,0,1-6.709-5.416,2.038,2.038,0,0,0-2.829,0,22.413,22.413,0,0,0-3.983,5.08,7.271,7.271,0,0,0-.809,1.582,2.494,2.494,0,0,0,.519,2.05q.819,1.3,1.724,2.537a65.787,65.787,0,0,0,7.848,8.534C56.8,107.141,59.632,104.317,57.765,102.536Z"/><path class="c" d="M76.038,106.132a78.737,78.737,0,0,0,7.152-9.4c.571-.878,1.157-1.757,1.683-2.663.751-1.3.223-2.284-.461-3.451a22.366,22.366,0,0,0-3.956-5.035,2.035,2.035,0,0,0-2.828,0,39.6,39.6,0,0,1-6.216,5.094q-1.659,1.1-3.413,2.039c-1.078.577-2.559.975-3.326,1.969C63.35,96.4,64.636,98,65.841,99.2c1.151,1.149,2.327,2.273,3.508,3.391,1.267,1.2,2.532,2.409,3.861,3.541a2.052,2.052,0,0,0,2.828,0,2.017,2.017,0,0,0,0-2.829c-1.673-1.425-3.258-2.96-4.846-4.478-.795-.761-1.588-1.525-2.369-2.3-.259-.258-.519-.516-.771-.781-.078-.081-.15-.175-.233-.249-.194-.173.342.415.329.577l-.273,1.01q-.55.452-.1.2l.394-.182q.465-.218.922-.447.8-.4,1.586-.841,1.746-.975,3.4-2.113a44.779,44.779,0,0,0,6.38-5.285H77.628a19.906,19.906,0,0,1,3.965,5.375V91.765A81.392,81.392,0,0,1,73.21,103.3a2.048,2.048,0,0,0,0,2.829A2.02,2.02,0,0,0,76.038,106.132Z"/><path class="c" d="M28.2,141.616c0,1.455.148,2.925.22,4.378q.128,2.58.25,5.162a2,2,0,1,0,4,0q-.121-2.582-.25-5.162c-.072-1.453-.22-2.923-.22-4.378a2,2,0,1,0-4,0Z"/><path class="a" d="M24.843,117.445c-2.046,1.417-6.241,4.578-7.815,5.652,5.4,7.907,13.112,18.5,19.778,28.231l-2.946-8.541C30.684,133.87,27.6,125.2,24.843,117.445Z"/><path class="c" d="M38.533,150.1c-6.5-9.478-13.3-18.743-19.778-28.23l-.718,2.736c2.723-1.873,5.313-3.934,8.038-5.806,2.108-1.448.11-4.916-2.019-3.454-2.725,1.872-5.315,3.933-8.038,5.806a2.03,2.03,0,0,0-.717,2.737c6.482,9.487,13.283,18.752,19.778,28.23,1.447,2.11,4.915.112,3.454-2.019Z"/><path class="f" d="M52.136,194.139c-8.2-23.128-20.815-58.42-29.222-82.13,16.44-5.829,48.325-17.115,59.293-21l.006,0c10.68,29.956,19.983,56.794,28.9,81.952-11.851,4.2-47.251,17.022-58.977,21.18Z"/><path class="c" d="M54.065,193.385q-11.538-32.539-23.154-65.052-3.039-8.538-6.068-17.078l-1.4,2.46q24.653-8.74,49.311-17.467,4.992-1.767,9.982-3.537l-1.541-.2.005,0-.919-1.2c7.726,21.673,15.316,43.393,22.953,65.1q2.967,8.432,5.951,16.856l1.4-2.461c-16.1,5.711-32.152,11.561-48.229,17.336q-5.371,1.929-10.748,3.845l1.541.2h0c-2.307-1.118-4.338,2.33-2.019,3.454,1.44.7,3.562-.515,4.975-1.019l5.006-1.793q6.317-2.268,12.631-4.543,13.416-4.83,26.831-9.66,5.537-1.989,11.078-3.963a2.027,2.027,0,0,0,1.4-2.46c-7.823-22.064-15.518-44.174-23.326-66.243q-1.541-4.356-3.087-8.709-.785-2.21-1.572-4.42c-.46-1.294-.772-3.554-2.321-3.98-1.218-.334-3.087.718-4.238,1.125L73.814,91.64l-24.306,8.608q-13.563,4.8-27.125,9.61a2.027,2.027,0,0,0-1.4,2.46q11.591,32.691,23.261,65.353,2.983,8.387,5.961,16.778C51.062,196.858,54.928,195.82,54.065,193.385Z"/><path class="a" d="M97.978,167.493h0c-6.314-17.809-16.029-44.985-22.5-63.243"/><path class="c" d="M98.987,165.766h0l.919,1.2q-8.869-25.016-17.8-50.011-2.354-6.615-4.7-13.231c-.855-2.41-4.721-1.372-3.857,1.063q9.135,25.765,18.332,51.508,1.175,3.3,2.346,6.6.581,1.63,1.158,3.262c.339.953.6,2.593,1.586,3.071,2.307,1.118,4.337-2.331,2.019-3.454Z"/><path class="a" d="M104.185,151.842C99.132,153,71,157.02,65.616,157.809c.235,2.661,2.692,20.177,3.01,21.432,3.227-.24,24.492-2.5,34.845-4.79,4.49-.994,13.311-3.265,17.138-6.456,3.747-3.123,3.624-10.465,2.285-18.149"/><path class="a" d="M65.726,162.429l-.545-3c-1.112-.307-2.2-.226-3.136-.867a10.7,10.7,0,0,1-2.416-2.555,11.5,11.5,0,0,0-5.34-4.185,24.72,24.72,0,0,0-6.3-.724c-1.56-.092-5.3.069-5.719,2.139A3.671,3.671,0,0,0,42.3,155C50.743,157.723,59.274,160.355,65.726,162.429Z"/><path class="c" d="M65.712,157.5a8.513,8.513,0,0,1-2.657-.665,7.625,7.625,0,0,1-1.7-1.837,16.083,16.083,0,0,0-4.09-3.946c-2.985-1.892-6.956-2.078-10.4-1.966-3.055.1-6.375,1.122-6.663,4.645-.282,3.454,2.536,4.939,5.32,5.932,2.429.866,3.475-3,1.063-3.857a7.59,7.59,0,0,1-2.019-.889.817.817,0,0,1-.409-.714,3.364,3.364,0,0,0,.047-.435c-.053-.35.129-.2,0-.053a4.31,4.31,0,0,1,2.051-.595,26.3,26.3,0,0,1,3.4.053,13.31,13.31,0,0,1,4.277.642,8.964,8.964,0,0,1,3.258,2.363,36.767,36.767,0,0,0,2.981,3.443c1.386,1.175,2.787,1.327,4.48,1.737,2.5.6,3.568-3.251,1.063-3.858Z"/><path class="c" d="M103.654,149.913c-4.542,1.031-9.214,1.61-13.813,2.314q-9.144,1.4-18.3,2.716-3.228.469-6.456.938a1.992,1.992,0,0,0-1.468,1.928c.355,3.891.984,7.771,1.526,11.639.478,3.41.749,6.971,1.555,10.325a2.013,2.013,0,0,0,1.929,1.468c6.944-.528,13.882-1.47,20.779-2.42,8.409-1.158,16.942-2.427,24.942-5.382,4.177-1.544,8.508-3.449,10.258-7.843,1.958-4.917,1.144-10.776.293-15.839-1.3-7.728-3.069-15.4-4.782-23.039-.813-3.627-1.62-7.26-2.544-10.861-1.2-4.688-3.382-9.3-7.727-11.789-2.237-1.281-4.255,2.174-2.018,3.454a9.913,9.913,0,0,1,3.935,4.162,21.813,21.813,0,0,1,1.914,5.087c.755,2.922,1.419,5.867,2.087,8.809,1.7,7.5,3.359,15.01,4.793,22.562.825,4.349,1.657,8.958,1,13.385a7.974,7.974,0,0,1-2.152,4.869,16.624,16.624,0,0,1-4.963,2.74c-7.563,3.024-15.734,4.342-23.754,5.5-7.315,1.054-14.691,2.046-22.064,2.607l1.928,1.469c-.784-3.266-1.05-6.732-1.517-10.053-.515-3.669-1.084-7.153-1.421-10.848l-1.468,1.929c10.766-1.578,21.544-3.084,32.284-4.838,2.1-.342,4.211-.659,6.285-1.13,2.51-.569,1.447-4.427-1.063-3.857Z"/><path class="a" d="M90.185,174.167c-.839-.709-3.236-2.579-5.48-4.312a8.333,8.333,0,0,1,1.167-.528c1.924-.42,4.647.473,5.3-2.668.434-2.089-2.97-3.728-4.454-4.265-1.911-.691-4.119-1.691-6.133-1.839a11.622,11.622,0,0,0-6.624,1.754,10.82,10.82,0,0,1-3.261,1.407,25.653,25.653,0,0,1-4.943.088c-1.03,4.649-2.532,10.195-3.9,15.527.649,1.256,1.206,2.892,1.726,4.035,1.2,2.643,2.7,3.979,4.969,5.775a19.128,19.128,0,0,0,4.155,2.51c1.54.52,3.706-1.543,4.691-2.175.243-.155,2.095.76,3.593-.207.6-.39,1.042-2.045,1.892-2.763.953-.805,1.935-.616,3.085-.923,1.134-.3,2.174-2.868,1.7-3.792C92.485,184.052,93.556,177.019,90.185,174.167Z"/><path class="c" d="M65.311,165.758a15.215,15.215,0,0,0,7.668-.7,42.77,42.77,0,0,1,4.47-2.126,8.189,8.189,0,0,1,4.873,0,36.635,36.635,0,0,1,4.271,1.545c.717.313,2.13.9,2.532,1.679.763,1.49-2.478,1.218-3.253,1.169-2.571-.164-2.561,3.837,0,4a9.741,9.741,0,0,0,4.025-.305,5.083,5.083,0,0,0,3.2-3.831c.7-3.543-2.961-5.618-5.754-6.689a27.873,27.873,0,0,0-5.825-1.835,12.313,12.313,0,0,0-6.561.931c-1.742.724-3.622,2.112-5.2,2.227a23.307,23.307,0,0,1-4.451-.067,2.012,2.012,0,0,0-2,2,2.049,2.049,0,0,0,2,2Z"/><path class="c" d="M80.034,168.774c2.924,2.224,5.982,4.375,8.737,6.808a4,4,0,0,1,1.34,3.657,1.762,1.762,0,0,1-.443.935.257.257,0,0,1-.153.054,1.81,1.81,0,0,1-.838-.164c-1.4-.616-3.623.439-2.938,2.259.1.267-.209.735-.4,1.256a.5.5,0,0,1-.207.24q.635-.3-.078-.078a7.731,7.731,0,0,0-1.407.221,4.92,4.92,0,0,0-2.388,1.327,24.308,24.308,0,0,0-1.43,2.24c-.466.589.121.044-.176.159a1.875,1.875,0,0,1-.846-.012,3.586,3.586,0,0,0-2.423.074c-.88.477-2.1,2.053-3.15,1.972a6.359,6.359,0,0,1-2.143-1.217,21.034,21.034,0,0,1-1.758-1.28,13.663,13.663,0,0,1-3.494-3.811c-.953-1.693-1.433-3.607-2.37-5.31a13.684,13.684,0,0,0-4.715-4.562c-2.159-1.416-4.165,2.046-2.019,3.453a9.342,9.342,0,0,1,3.536,3.63c.8,1.631,1.291,3.4,2.208,4.97a20.607,20.607,0,0,0,7.055,6.659c1.366.853,2.85,1.7,4.513,1.389a6.626,6.626,0,0,0,2.074-.835,7.314,7.314,0,0,0,1.912-1.347c.157-.206.621-.163-.288-.084-.95.082-.458.02-.26.1a4.626,4.626,0,0,0,1.237.2,5.327,5.327,0,0,0,2.684-.387,3.819,3.819,0,0,0,1.738-1.505,8.3,8.3,0,0,1,.944-1.665c.557-.507,1.515-.385,2.218-.563a3.776,3.776,0,0,0,2.011-1.313c1.039-1.262,1.89-3.359,1.279-4.983l-2.938,2.259c2.465,1.082,5.234.916,6.694-1.638a7.617,7.617,0,0,0-.085-6.936c-.982-1.987-2.94-3.23-4.638-4.555q-3.272-2.555-6.576-5.068a2.013,2.013,0,0,0-2.737.717,2.049,2.049,0,0,0,.718,2.736Z"/><path class="a" d="M26.787,149.8c12.311,4.37,28.685,9.326,39.251,12.728-1.333,6.37-3.77,14.829-5.489,22.017-12.428-2.535-21.924-4.7-34.215-8.906C21,173.815,9.688,170.211,5.747,165.146"/><path class="c" d="M26.255,151.73c12.967,4.593,26.158,8.515,39.251,12.727l-1.4-2.46c-1.563,7.4-3.722,14.664-5.489,22.017l2.46-1.4a286.325,286.325,0,0,1-29.007-7.192c-7.206-2.276-15-4.474-21.389-8.617a14.121,14.121,0,0,1-6.09-8.419c-1.221-4.525-.367-8.972,1.277-13.26,2.583-6.741,5.079-13.515,7.661-20.257q1.011-2.643,2.047-5.276.426-1.077.863-2.15c.349-.854.365-.9.686-1.628a26.226,26.226,0,0,1,2.991-5.163,21.422,21.422,0,0,1,3.789-3.9c1.991-1.634-.853-4.45-2.828-2.829a25.462,25.462,0,0,0-6.721,8.389c-1.385,2.818-2.482,5.8-3.616,8.72-2.782,7.17-5.44,14.386-8.174,21.574C.948,146.873-.364,151.134.091,155.762a19.251,19.251,0,0,0,5.322,11.986c2.823,2.712,6.494,4.486,10.057,6,3.384,1.44,6.854,2.633,10.333,3.818a278.322,278.322,0,0,0,34.214,8.907,2.036,2.036,0,0,0,2.46-1.4c1.767-7.354,3.926-14.616,5.49-22.018a2.052,2.052,0,0,0-1.4-2.46c-13.093-4.212-26.285-8.134-39.252-12.727-2.431-.862-3.477,3-1.063,3.857Z"/><path class="b" d="M97.944,28.98c-.108-.628-.218-1.209-.325-1.731C94.661,12.74,80.047,1.223,64.722,2.064,49.4,1.223,34.783,12.74,31.824,27.249a41.258,41.258,0,0,0,.024,13.732l1.467,5.747a4.225,4.225,0,0,1,3.038,1.03c6.057-4.2,16.331-11.5,21.65-16.075-.437,2.716-1.992,7.334-.034,6.86,8.178-1.894,16.016-5.713,20.755-11.67a57.363,57.363,0,0,0,3.862,10.346c1.716,2.939,6.689,9.551,10.869,10.539a4.254,4.254,0,0,1,3.4-1,4.151,4.151,0,0,1,.531.116C99.519,41.946,98.8,33.981,97.944,28.98Z"/><path class="c" d="M33.76,40.574a34.949,34.949,0,0,1-.3-10.818A25.874,25.874,0,0,1,37,19.349,31.623,31.623,0,0,1,54.657,5.342,38.251,38.251,0,0,1,66.168,4.021,29,29,0,0,1,77.462,6.306,31.6,31.6,0,0,1,93.67,21.663a34.863,34.863,0,0,1,2.851,11.561c.434,4.3.634,9-1.039,13.074a2.012,2.012,0,0,0,1.4,2.46,2.05,2.05,0,0,0,2.46-1.4c1.637-3.992,1.628-8.643,1.3-12.877a44.673,44.673,0,0,0-2.229-11.791A35.05,35.05,0,0,0,81.584,3.842,34.4,34.4,0,0,0,69.216.167a57.646,57.646,0,0,0-6.48-.143A32.724,32.724,0,0,0,56.173.8a35.719,35.719,0,0,0-21,14.035A30.4,30.4,0,0,0,29.738,27.6,38.563,38.563,0,0,0,29.9,41.637c.558,2.512,4.415,1.449,3.857-1.063Z"/><path class="c" d="M76.916,27.831c1.323,4.511,2.809,9.052,5.59,12.889,2.561,3.533,5.985,7.825,10.417,8.967,2.494.642,3.558-3.215,1.063-3.858a10.7,10.7,0,0,1-4.377-2.894A33.035,33.035,0,0,1,85.673,38.3c-2.441-3.458-3.718-7.5-4.9-11.532-.722-2.465-4.584-1.416-3.857,1.063Z"/><path class="c" d="M77.392,25.355a30.577,30.577,0,0,1-12.758,9.028q-1.89.75-3.84,1.337-1.075.325-2.165.6a3.716,3.716,0,0,0-.992.243q-.689.1.542.384a.754.754,0,0,1,.825.53c-.016.006-.06.233,0-.158.031-.2.013-.409.034-.609.043-.4.132-.8.212-1.2.222-1.1.493-2.19.681-3.3a2.019,2.019,0,0,0-3.343-1.946A261.739,261.739,0,0,1,35.344,46.031c-2.1,1.458-.1,4.927,2.019,3.454A271.988,271.988,0,0,0,59.417,33.1l-3.342-1.946c-.4,2.319-1.63,5.2-.877,7.545a2.723,2.723,0,0,0,3.3,1.774,36.937,36.937,0,0,0,4.91-1.391c6.361-2.154,12.56-5.581,16.809-10.9a2.061,2.061,0,0,0,0-2.828,2.012,2.012,0,0,0-2.828,0Z"/><path class="c" d="M30.4,61.7a17.375,17.375,0,0,0-1.976,9.9c.149,1.9.556,3.773.667,5.676.06,1.034.111,2.435-.677,3.236-.464.471-1.134.534-1.565,1.075a2.652,2.652,0,0,0-.4,2.381c.473,1.606,2.223,2.553,3.65,3.18a18.412,18.412,0,0,0,10.445,1.185A13.863,13.863,0,0,0,49.7,83.033c1.481-2.112-1.985-4.114-3.454-2.019-1.589,2.265-4.919,3.32-7.54,3.546a14.82,14.82,0,0,1-4.988-.371,12.252,12.252,0,0,1-1.922-.643,10.026,10.026,0,0,1-.893-.459q-.3-.173-.591-.367-.393-.452.022.247l-.273,1.009.085-.175-1.2.919c3.951-1.522,4.438-5.446,3.968-9.192-.505-4.018-1.154-8.109.934-11.814,1.266-2.246-2.188-4.264-3.453-2.019Z"/><path class="c" d="M94.869,49.172a2.18,2.18,0,0,1,3.082.407,4.675,4.675,0,0,1,.447,2.38,14.212,14.212,0,0,1-.2,2.928c-.635,3.478-2.389,7.656-6.257,8.35a2.018,2.018,0,0,0-1.4,2.46,2.044,2.044,0,0,0,2.46,1.4c6.016-1.078,8.888-7.864,9.34-13.317.235-2.824-.012-6.019-2.452-7.844a6.289,6.289,0,0,0-7.853.411,2.015,2.015,0,0,0,0,2.828,2.044,2.044,0,0,0,2.829,0Z"/><path class="c" d="M90.43,62a15.956,15.956,0,0,1-.931,4.3c-.063.191-.49,1.313-.22.7-.134.3-.274.6-.424.9a36.424,36.424,0,0,1-3.145,5.056c-2.722,3.734-6.422,7.693-11.084,8.787-2.505.588-1.445,4.446,1.063,3.857C81.325,84.277,85.7,79.672,89.01,75.183,91.871,71.31,94.23,66.92,94.43,62c.1-2.574-3.9-2.569-4,0Z"/><path class="c" d="M37.767,46.344a6.29,6.29,0,0,0-7.852-.411c-2.442,1.819-2.687,5.025-2.453,7.844.453,5.452,3.325,12.239,9.34,13.317a2.057,2.057,0,0,0,2.461-1.4,2.017,2.017,0,0,0-1.4-2.46c-3.868-.694-5.623-4.873-6.258-8.35a14.126,14.126,0,0,1-.2-2.763,5.456,5.456,0,0,1,.38-2.432,2.165,2.165,0,0,1,3.152-.52,2.053,2.053,0,0,0,2.828,0,2.015,2.015,0,0,0,0-2.828Z"/><path class="c" d="M35.577,61.781a33.192,33.192,0,0,0,7.076,15.887c3.988,4.721,9.267,8.119,15.481,8.79a2.012,2.012,0,0,0,2-2,2.046,2.046,0,0,0-2-2c-5.261-.568-9.65-3.955-12.913-7.931-3.227-3.931-4.923-8.859-5.787-13.81a2.017,2.017,0,0,0-2.46-1.4,2.045,2.045,0,0,0-1.4,2.461Z"/><path class="c" d="M59.581,71.224a12.012,12.012,0,0,0,5.784,1.35,9.537,9.537,0,0,0,5.951-1.8,2,2,0,0,0,0-2.828,2.062,2.062,0,0,0-2.829,0c.692-.539-.02-.016-.238.1-.169.089-.62.229.012.014-.158.054-.31.12-.469.171-.424.136-.9.153-1.312.3.212-.075.327-.039.028-.01-.129.013-.258.024-.387.032-.31.02-.621.028-.932.026q-.418,0-.835-.03c-.127-.008-.255-.019-.382-.032-.073-.007-.145-.015-.218-.024-.157-.019-.095-.01.185.025a4.756,4.756,0,0,1-1.225-.272c-.172-.051-.339-.113-.508-.171-.448-.153.423.2.017.011-.21-.1-.418-.2-.623-.311a2,2,0,0,0-2.019,3.454Z"/><path class="c" d="M64.088,57.936a26.13,26.13,0,0,1,.607,2.777l-.072-.532a1.638,1.638,0,0,1,.011.383l.071-.531a.938.938,0,0,1-.042.172l.2-.478a.746.746,0,0,1-.061.111l.313-.405a.6.6,0,0,1-.091.09l.405-.313a1.927,1.927,0,0,1-.22.116l.477-.2a1.652,1.652,0,0,1-.37.108l.531-.072a1.492,1.492,0,0,1-.347,0l.531.071c-.131-.018-.26-.05-.391-.068a1.515,1.515,0,0,0-.8-.035,1.486,1.486,0,0,0-.743.237,2,2,0,0,0-.718,2.736l.313.405a2,2,0,0,0,.883.515c.349.047.689.134,1.045.15a3.443,3.443,0,0,0,1.606-.392,2.441,2.441,0,0,0,1.316-1.595,3.754,3.754,0,0,0-.013-1.654c-.151-.894-.358-1.781-.588-2.658a2,2,0,0,0-2.46-1.4,2.022,2.022,0,0,0-1.2.919,2.1,2.1,0,0,0-.2,1.541Z"/><path class="c" d="M49.962,49.919c-.464,1.507-.162,4.974,2.693,5.269,3.773-.023,3.974-4.214,2.7-6.184C54.319,47.39,51.261,46.719,49.962,49.919Z"/><path class="c" d="M80.177,49.92c.463,1.506.161,4.973-2.693,5.268-3.774-.023-3.974-4.214-2.7-6.184C75.819,47.39,78.877,46.719,80.177,49.92Z"/></svg>