<?xml version="1.0" encoding="UTF-8" standalone="no"?>
<!-- Created with Inkscape (http://www.inkscape.org/) -->

<svg
   version="1.1"
   id="svg1"
   width="261.10666"
   height="117.77333"
   viewBox="0 0 261.10666 117.77333"
   xmlns="http://www.w3.org/2000/svg"
   xmlns:svg="http://www.w3.org/2000/svg">
  <defs
     id="defs1" />
  <g
     id="g1">
    <g
       id="group-R5">
      <path
         id="path2"
         d="m 836.777,572.242 c -2.91,0 -5.808,0 -8.722,-0.285 v -52.332 c 2.644,-0.254 5.019,-0.527 7.129,-0.527 17.195,0.273 30.144,10.039 30.144,27.488 0,15.07 -8.199,25.656 -28.551,25.656 m 0.789,-87.246 c -2.105,0 -5.808,0 -9.511,0.262 v -59.199 h -41.239 v 178.418 c 15.332,0.793 32.25,1.32 50.75,1.32 45.469,0 70.321,-20.606 70.321,-57.363 0,-34.621 -24.852,-63.438 -70.321,-63.438 v 0"
         style="fill:#231f20;fill-opacity:1;fill-rule:nonzero;stroke:none"
         transform="matrix(0.13333333,0,0,-0.13333333,0,117.77333)" />
      <path
         id="path3"
         d="m 1048.25,426.059 v 74.269 h -65.301 v -74.269 h -41.23 v 178.418 h 41.23 V 536.02 h 65.301 v 68.457 h 41.23 V 426.059 h -41.23"
         style="fill:#231f20;fill-opacity:1;fill-rule:nonzero;stroke:none"
         transform="matrix(0.13333333,0,0,-0.13333333,0,117.77333)" />
      <path
         id="path4"
         d="m 1185.43,510.648 c -3.17,0 -12.96,0 -17.18,-0.273 v -67.148 c 4.76,-0.789 12.69,-1.582 24.32,-1.582 31.45,0 45.2,15.605 45.2,36.484 0,25.109 -23,32.519 -52.34,32.519 m 8.46,78.243 c -8.72,0 -17.98,-0.274 -25.64,-0.536 v -62.121 c 5.55,-0.254 10.05,-0.254 16.92,-0.254 31.72,0 48.37,12.415 48.37,33.555 0,16.934 -8.19,29.356 -39.65,29.356 v 0 m -2.91,-163.633 c -10.83,0 -27.75,0.527 -43.1,0.801 v 178.418 c 12.17,0.273 28.3,0.793 49.71,0.793 38.86,0 57.1,-16.379 57.1,-42.297 0,-19.559 -13.48,-36.465 -33.57,-42.293 v -0.52 c 26.43,-3.972 37.8,-22.469 37.8,-41.504 0,-19.285 -11.63,-53.398 -67.94,-53.398 v 0"
         style="fill:#231f20;fill-opacity:1;fill-rule:nonzero;stroke:none"
         transform="matrix(0.13333333,0,0,-0.13333333,0,117.77333)" />
      <path
         id="path5"
         d="m 1339.01,544.742 c -18.51,0 -31.72,-13.488 -34.89,-34.094 h 66.61 c 0.53,20.352 -11.63,34.094 -31.72,34.094 m 51.8,-48.906 h -87.75 c -1.32,-39.375 14.27,-55.773 43.61,-55.773 13.75,0 28.29,3.437 38.07,8.468 l 1.85,-16.933 c -12.16,-5.02 -26.97,-7.93 -43.35,-7.93 -39.65,0 -60.8,21.414 -60.8,67.422 0,39.375 21.15,68.719 57.62,68.719 36.22,0 51.29,-25.106 51.29,-54.188 0,-2.383 0,-5.812 -0.54,-9.785 v 0"
         style="fill:#231f20;fill-opacity:1;fill-rule:nonzero;stroke:none"
         transform="matrix(0.13333333,0,0,-0.13333333,0,117.77333)" />
      <path
         id="path6"
         d="m 1488.35,540.25 c -29.07,4.754 -42.82,-17.453 -42.82,-61.594 v -52.597 h -19.82 v 131.367 h 19.56 c 0,-8.719 -1.06,-21.68 -2.91,-33.035 l 0.26,-0.274 c 5.29,19.297 19.03,38.856 46.51,35.692 l -0.78,-19.559"
         style="fill:#231f20;fill-opacity:1;fill-rule:nonzero;stroke:none"
         transform="matrix(0.13333333,0,0,-0.13333333,0,117.77333)" />
      <path
         id="path7"
         d="m 1611.79,426.059 v 85.109 c 0,20.613 -5.55,32.508 -24.58,32.508 -23.52,0 -40.18,-23.262 -40.18,-54.453 v -63.164 h -19.82 v 131.367 h 19.56 c 0,-8.446 -0.8,-21.153 -2.12,-29.082 l 0.53,-0.254 c 7.4,19.023 24.05,31.973 47.05,31.973 30.14,0 39.39,-19.012 39.39,-42.286 v -91.718 h -19.83"
         style="fill:#231f20;fill-opacity:1;fill-rule:nonzero;stroke:none"
         transform="matrix(0.13333333,0,0,-0.13333333,0,117.77333)" />
    </g>
  </g>
</svg>
